<svg width="330" height="330" viewBox="0 0 330 330" fill="none" xmlns="http://www.w3.org/2000/svg">
<g clip-path="url(#clip0_3569_14283)">
<path d="M166.355 292.404C161.877 292.404 157.398 292.05 153.038 291.343C148.736 290.754 141.959 289.163 137.362 287.218C121.629 281.325 108.134 271.013 98.4107 257.224C88.4518 243.14 83.2072 226.522 83.2072 209.197C83.2072 197.175 85.6822 185.567 90.6911 174.724C95.4643 164.234 102.241 155.042 110.904 147.263L113.379 144.729C117.975 139.956 118.27 139.661 120.804 136.833C121.098 136.479 121.393 136.125 121.805 135.713C124.752 132.295 130.291 125.872 137.775 120.509C146.909 113.968 156.573 110.433 166.355 110.433H166.65C176.432 110.433 186.096 113.968 195.23 120.509C202.714 125.872 208.254 132.236 211.2 135.654C211.554 136.067 211.848 136.479 212.202 136.833C214.146 139.072 214.795 139.72 216.975 141.9C218.036 142.961 219.391 144.375 221.454 146.497C230.293 154.275 237.305 163.527 242.196 174.193C247.264 185.213 249.916 196.94 249.916 209.197C249.916 220.452 247.677 231.354 243.375 241.608C239.191 251.508 233.18 260.406 225.52 268.067C217.859 275.727 208.961 281.738 199.061 285.922C188.512 290.165 177.611 292.404 166.355 292.404ZM166.414 111.14H166.179C143.727 111.67 128.405 129.467 122.513 136.184C122.159 136.597 121.864 137.068 121.511 137.422C118.977 140.368 118.564 140.722 114.086 145.377L111.611 147.97C94.2268 163.586 84.15 185.861 84.15 209.256C84.15 243.552 105.6 274.372 137.657 286.334H137.716C142.254 288.279 148.971 289.811 153.214 290.4C157.575 291.108 161.818 291.461 166.296 291.461C211.73 291.461 248.855 254.513 248.855 209.079C248.855 185.331 238.543 162.702 220.688 147.027C218.625 144.906 217.211 143.433 216.209 142.372C214.029 140.133 213.38 139.484 211.436 137.304C211.141 136.95 210.846 136.361 210.434 135.949C204.482 129.231 188.925 111.729 166.414 111.14Z" fill="#323A50"/>
<path opacity="0.2" d="M208.313 146.438C211.259 144.847 212.85 143.668 209.786 140.192C204.718 134.358 189.279 114.734 166.12 114.734H165.884C142.666 114.734 127.286 134.417 122.218 140.192C119.154 143.609 121.629 145.672 122.925 146.674C128.877 142.843 134.357 139.779 141.429 137.54C141.664 137.481 150.504 133.297 165.413 133.179C165.471 133.179 175.489 133.061 185.036 136.067C196.527 139.131 202.125 142.902 208.313 146.438Z" fill="url(#paint0_linear_3569_14283)"/>
<path opacity="0.2" d="M165.53 277.79C203.12 277.79 233.593 247.449 233.593 210.022C233.593 172.595 203.12 142.254 165.53 142.254C127.941 142.254 97.4679 172.595 97.4679 210.022C97.4679 247.449 127.941 277.79 165.53 277.79Z" fill="url(#paint1_radial_3569_14283)"/>
<path opacity="0.34" d="M236.952 178.318C236.893 178.141 236.775 177.965 236.716 177.847C236.421 178.318 236.127 178.731 235.538 179.084C234.182 179.909 231.943 179.497 231.236 177.965C230.823 177.14 230.411 176.374 229.88 175.608C229.586 175.195 229.35 174.841 229.055 174.429C228.938 174.252 228.938 174.252 229.055 174.429C228.996 174.311 228.938 174.252 228.82 174.134C228.643 173.958 228.525 173.781 228.348 173.663C227.111 172.308 225.638 170.834 224.4 170.009C223.634 169.479 222.868 169.008 222.102 168.595C221.866 168.477 221.63 168.359 221.395 168.241C221.336 168.241 221.336 168.182 221.336 168.182C220.864 168.006 220.511 167.829 220.039 167.711C219.568 167.593 219.096 167.475 218.625 167.358C218.625 167.358 217.918 167.24 217.977 167.24C217.8 167.24 217.623 167.181 217.505 167.181C216.386 167.063 215.266 167.063 214.205 167.063C210.139 167.181 206.663 167.829 202.714 168.359C198.589 168.831 194.405 169.184 190.28 169.538C182.089 170.127 173.957 171.07 165.766 171.188C161.7 171.247 157.693 170.54 153.745 169.833C149.797 169.125 146.143 168.595 142.313 168.182C134.357 167.24 126.284 166.827 118.329 167.534C116.738 167.711 115.441 166.179 115.205 164.765C115.146 164.765 115.029 164.824 114.97 164.824C114.498 164.941 114.086 165.059 113.614 165.236C113.32 165.354 113.143 165.413 112.907 165.531C112.789 165.59 112.73 165.59 112.613 165.649C110.727 166.474 108.9 167.593 107.309 168.831C107.25 168.89 106.838 169.184 106.838 169.184C106.602 169.361 106.366 169.597 106.189 169.715C105.777 170.068 105.423 170.422 105.011 170.834C104.245 171.6 103.538 172.366 102.771 173.191C102.713 173.25 102.654 173.309 102.654 173.309C102.654 173.309 102.595 173.368 102.595 173.427C102.418 173.663 102.241 173.899 102.123 174.075C101.829 174.488 101.593 174.841 101.357 175.313C101.121 175.725 100.886 176.079 100.709 176.55C100.65 176.727 100.355 177.434 100.65 176.668C100.591 176.904 100.473 177.14 100.414 177.316C99.884 178.966 98.2929 179.909 96.525 179.556C95.9947 179.438 95.4054 179.084 95.0518 178.613C94.9929 178.731 95.1108 178.849 95.0518 178.966C91.1036 188.277 88.8054 198.413 88.8054 209.138C88.8054 251.743 123.338 286.393 166.061 286.393C208.784 286.393 243.375 251.684 243.375 209.02C243.257 198.118 240.959 187.747 236.952 178.318Z" fill="url(#paint2_linear_3569_14283)"/>
<g opacity="0.2">
<path d="M226.404 237.718L225.932 237.659C225.579 240.016 218.743 243.257 217.211 243.493C216.621 243.611 216.268 243.434 215.855 243.257C215.384 243.021 214.854 242.786 213.911 243.375C212.379 244.318 207.016 250.152 205.896 252.98C204.718 255.868 204.011 257.4 201.3 258.461C199.886 258.991 197.646 258.991 195.289 258.991C193.109 258.991 190.929 258.991 189.161 259.462C186.568 260.111 184.093 261.348 182.914 261.937C183.563 261.23 184.211 260.523 184.8 259.757C185.861 258.461 186.804 257.459 187.393 256.987C188.159 256.457 190.929 256.103 193.934 255.809C197.941 255.337 202.42 254.925 203.775 253.511C205.307 252.037 207.605 246.38 209.373 241.902C210.316 239.545 211.141 237.423 211.671 236.598C212.143 235.714 213.675 234.712 215.266 233.652C217.977 231.884 221.041 229.821 220.982 227.405H220.511C220.57 229.645 217.623 231.53 215.03 233.298C213.321 234.477 211.848 235.42 211.259 236.421C210.788 237.305 209.904 239.368 208.961 241.784C207.193 246.262 204.954 251.802 203.48 253.216C203.009 253.687 201.948 254.1 200.593 254.395C201.418 253.923 202.479 253.216 203.186 252.273C204.541 250.623 205.543 246.734 206.191 244.612C206.309 244.2 206.368 243.964 206.427 243.728C206.663 243.08 206.368 242.668 206.132 242.314C205.838 241.843 205.543 241.371 205.72 240.193C205.955 238.896 206.663 238.366 207.488 237.836C208.018 237.423 208.548 237.07 208.961 236.421C209.963 234.83 209.373 233.239 209.02 232.296V232.237C208.784 231.648 208.254 231.707 207.841 231.766C207.429 231.825 207.252 231.825 207.075 231.53C206.898 231.295 207.311 230.823 207.605 230.352C208.077 229.645 208.666 228.878 208.313 228.053L207.841 228.289C208.077 228.761 207.605 229.468 207.193 230.057C206.721 230.646 206.368 231.295 206.663 231.766C207.016 232.237 207.488 232.237 207.9 232.178C208.371 232.12 208.489 232.12 208.548 232.414V232.473C208.902 233.298 209.373 234.771 208.548 236.127C208.195 236.657 207.723 237.011 207.193 237.423C206.368 238.012 205.543 238.661 205.248 240.075C205.013 241.43 205.425 242.02 205.72 242.491C205.955 242.845 206.132 243.08 205.955 243.552C205.896 243.787 205.779 244.023 205.661 244.436C205.13 246.38 204.07 250.387 202.773 251.92C201.418 253.687 198.884 254.571 198.648 254.689C197.116 254.925 195.407 255.161 193.698 255.278C190.575 255.632 187.864 255.868 186.98 256.575C186.332 257.046 185.389 258.107 184.27 259.462C182.148 261.937 179.202 265.414 177.257 265.296C176.196 265.237 175.077 264.943 173.898 264.766C171.541 264.295 168.771 263.705 165.825 264.295C159.814 265.473 157.752 266.593 156.514 268.066C155.336 269.421 154.746 271.189 154.746 271.248L155.218 271.425C155.218 271.425 155.807 269.657 156.927 268.361C158.105 267.005 160.05 265.945 165.943 264.766C168.771 264.236 171.482 264.766 173.78 265.237C175.018 265.532 176.138 265.709 177.198 265.768C178.671 265.886 180.439 264.412 182.207 262.586L182.325 262.762C182.384 262.762 185.684 260.877 189.22 259.934C190.87 259.462 193.109 259.462 195.23 259.462C197.588 259.462 199.886 259.462 201.418 258.873C204.305 257.695 205.13 256.045 206.309 253.098C207.429 250.387 212.673 244.612 214.146 243.67C214.854 243.198 215.207 243.375 215.679 243.552C216.091 243.728 216.504 243.905 217.211 243.787C218.979 243.67 225.991 240.37 226.404 237.718Z" fill="url(#paint3_linear_3569_14283)"/>
<path d="M170.598 248.679C169.832 249.504 169.95 250.919 170.068 252.51C170.186 254.042 170.363 255.751 169.655 257.224C168.3 259.994 162.23 262.233 162.172 262.233L162.348 262.704C162.643 262.587 168.654 260.406 170.127 257.519C170.834 255.987 170.657 254.219 170.598 252.569C170.48 251.096 170.363 249.799 171.011 249.151C171.659 248.444 174.193 247.854 176.491 247.383C179.084 246.794 181.323 246.263 181.854 245.556C182.325 244.908 182.443 244.201 182.561 243.612C182.679 242.963 182.738 242.433 183.327 242.079C183.621 241.844 185.154 241.962 186.804 242.079C191.341 242.374 198.236 242.728 200.711 239.31C202.655 236.599 202.007 234.596 201.418 232.887C200.946 231.531 200.534 230.294 201.418 228.762C202.066 227.583 203.304 227.229 204.659 226.758C207.311 225.933 210.611 224.872 212.673 218.037C213.145 216.446 212.909 214.854 212.673 213.204C212.32 211.083 212.084 209.079 213.263 207.253L212.85 206.958C211.495 208.962 211.848 211.142 212.143 213.263C212.438 214.854 212.614 216.446 212.202 217.86C210.139 224.46 207.016 225.462 204.423 226.287C202.95 226.758 201.713 227.17 200.947 228.526C200.004 230.176 200.475 231.649 200.947 233.004C201.477 234.713 202.125 236.481 200.298 238.956C198 242.138 190.988 241.726 186.863 241.49C185.271 241.372 184.27 241.313 183.68 241.431C183.975 240.783 184.152 239.899 184.27 238.838C184.623 237.07 184.918 235.008 185.92 233.888C186.391 233.358 187.216 233.122 188.159 232.828C190.457 232.179 193.698 231.237 196.173 224.695V224.637C196.645 222.338 196.114 220.806 195.584 219.863C195.289 219.392 194.877 219.215 194.405 218.979C193.875 218.744 193.227 218.449 192.814 217.742C191.989 216.504 191.636 209.61 191.93 208.254C191.93 208.137 191.989 208.078 191.989 208.078C192.048 208.019 192.343 208.137 192.52 208.254C193.227 208.549 194.464 208.962 195.938 207.842L195.643 207.429C194.347 208.372 193.345 207.96 192.638 207.783C192.225 207.606 191.989 207.488 191.695 207.665C191.518 207.783 191.459 207.901 191.4 208.137C191.105 209.433 191.4 216.563 192.343 217.919C192.873 218.685 193.58 219.038 194.111 219.274C194.582 219.51 194.877 219.628 195.054 219.922C195.525 220.747 196.055 222.221 195.584 224.342C193.168 230.647 190.104 231.531 187.864 232.12C186.863 232.415 186.038 232.651 185.448 233.299C184.329 234.537 183.975 236.599 183.621 238.426C183.386 239.663 183.209 240.783 182.855 241.313H182.914C182.266 241.785 182.148 242.433 182.03 243.081C181.913 243.612 181.854 244.26 181.382 244.849C180.911 245.438 178.436 246.028 176.314 246.499C173.722 247.324 171.364 247.913 170.598 248.679Z" fill="url(#paint4_linear_3569_14283)"/>
<path d="M171.246 202.008C171.836 202.597 172.307 203.127 172.013 204.541C171.777 205.484 171.305 206.84 170.716 208.313C169.714 210.847 168.713 213.499 169.184 214.736C169.42 215.325 169.773 215.738 170.127 216.15C170.834 216.975 171.6 217.859 171.246 220.511C170.893 222.633 169.832 224.283 168.889 225.579C168.123 226.758 167.416 227.759 167.534 228.761C167.593 229.527 168.005 230.058 168.418 230.529C169.125 231.413 169.891 232.356 168.889 234.713C168.123 236.54 167.063 237.011 166.238 237.365C165.295 237.777 164.529 238.131 164.823 239.84C165.118 241.725 166.238 242.904 167.416 244.024C168.241 244.849 169.066 245.733 169.655 246.852L170.127 246.616C169.596 245.379 168.713 244.495 167.829 243.611C166.709 242.433 165.589 241.372 165.413 239.663C165.177 238.308 165.707 238.072 166.591 237.659C167.475 237.247 168.713 236.716 169.538 234.772C170.657 232.179 169.773 231.059 169.007 230.058C168.595 229.586 168.241 229.115 168.182 228.525C168.123 227.759 168.713 226.816 169.538 225.697C170.48 224.341 171.659 222.574 171.954 220.393C172.425 217.506 171.482 216.504 170.716 215.62C170.363 215.208 170.068 214.854 169.832 214.324C169.42 213.263 170.421 210.611 171.364 208.313C171.895 206.899 172.484 205.484 172.72 204.483C173.073 202.833 172.425 202.184 171.836 201.477C171.364 201.006 170.952 200.534 170.716 199.65L170.245 199.768C170.304 201.006 170.834 201.477 171.246 202.008Z" fill="url(#paint5_linear_3569_14283)"/>
<path d="M173.663 265.886C172.072 265.12 168.064 264.767 165.648 265.238C163.291 265.651 159.107 266.594 157.516 268.361C156.573 269.363 155.748 271.308 155.748 271.426L156.22 271.603C156.22 271.603 157.045 269.658 157.929 268.715C159.461 267.006 163.939 266.063 165.766 265.71C168.359 265.238 172.189 265.71 173.545 266.358C175.018 267.065 175.548 268.185 175.607 268.656C175.843 270.306 173.132 271.779 173.073 271.838L173.309 272.31C173.427 272.251 176.373 270.66 176.079 268.715C175.843 267.831 175.195 266.653 173.663 265.886Z" fill="url(#paint6_linear_3569_14283)"/>
<path d="M174.841 237.306C175.666 237.659 176.491 237.954 177.021 238.72C177.67 239.604 178.966 241.902 177.257 243.906C176.55 244.731 174.782 245.379 173.073 246.027C171.423 246.616 169.832 247.265 169.302 248.031C168.771 248.856 168.83 250.27 168.948 251.92C169.066 253.393 169.184 254.925 168.83 256.104C168.123 258.52 161.995 261.407 161.936 261.466L162.113 261.938C162.407 261.82 168.477 258.932 169.184 256.281C169.596 254.984 169.479 253.334 169.361 251.92C169.243 250.447 169.125 248.974 169.596 248.325C170.068 247.677 171.6 247.088 173.132 246.557C174.9 245.909 176.727 245.202 177.493 244.318C178.848 242.727 178.848 240.606 177.316 238.543C176.727 237.659 175.784 237.306 174.959 237.011C174.134 236.657 173.309 236.363 172.955 235.656C172.248 234.124 172.779 232.474 173.721 231.766C174.016 231.59 174.193 231.413 174.488 231.295C175.313 230.824 176.196 230.234 177.257 229.115C178.671 227.641 181.323 221.336 181.795 218.331C182.089 216.563 181.559 215.797 181.088 214.972C180.675 214.324 180.263 213.616 180.145 212.379L179.673 212.438C179.791 213.793 180.263 214.559 180.675 215.207C181.146 215.974 181.618 216.681 181.323 218.272C180.852 221.218 178.259 227.347 176.904 228.82C175.843 229.94 175.018 230.411 174.193 230.941C173.898 231.118 173.721 231.295 173.427 231.413C172.307 232.12 171.659 234.124 172.484 235.891C173.014 236.599 173.957 236.952 174.841 237.306Z" fill="url(#paint7_linear_3569_14283)"/>
</g>
<g opacity="0.2">
<path d="M154.688 264.119C154.452 262.822 153.096 261.879 151.623 260.937C150.504 260.17 148.795 259.228 147.321 258.403C145.966 257.695 144.846 257.047 144.375 256.694C144.257 256.576 144.139 256.458 144.021 256.281C143.314 255.103 142.725 252.392 142.902 250.27C143.02 249.033 142.843 248.031 142.784 247.265C142.666 246.44 142.607 245.851 142.843 245.32C143.02 244.908 143.314 244.849 143.786 244.79C144.257 244.731 144.905 244.613 145.141 243.847C145.377 243.199 145.318 242.492 145.2 241.785C145.082 241.137 144.964 240.429 145.318 240.017C145.613 239.604 145.907 239.545 146.32 239.369C146.791 239.192 147.204 239.015 147.616 238.426C147.97 237.895 147.498 237.188 146.909 236.304C146.025 235.008 144.846 233.299 145.377 231.178C145.907 228.879 146.673 228.938 147.675 229.056C148.146 229.115 148.736 229.233 149.266 228.997C150.209 228.644 151.093 226.64 151.977 224.46C152.625 222.81 153.332 221.101 154.039 220.57C154.746 220.04 155.395 219.922 155.925 219.804C156.455 219.687 157.045 219.569 157.457 219.038C157.929 218.39 157.693 217.506 157.457 216.74C157.28 216.269 157.163 215.797 157.28 215.562L156.868 215.326C156.632 215.738 156.809 216.269 157.045 216.858C157.28 217.506 157.516 218.272 157.104 218.744C156.75 219.156 156.396 219.215 155.807 219.333C155.277 219.451 154.511 219.569 153.745 220.158C153.038 220.688 152.33 222.456 151.564 224.224C150.798 226.11 149.914 228.29 149.148 228.526C148.677 228.703 148.205 228.644 147.793 228.585C146.732 228.408 145.671 228.231 145.023 231.001C144.493 233.358 145.73 235.185 146.614 236.54C147.086 237.247 147.498 237.895 147.321 238.131C146.968 238.603 146.673 238.72 146.261 238.897C145.848 239.074 145.436 239.251 145.082 239.722C144.67 240.253 144.788 241.078 144.905 241.844C145.023 242.492 145.082 243.14 144.905 243.67C144.67 244.201 144.375 244.201 143.845 244.319C143.373 244.378 142.843 244.495 142.548 245.144C142.254 245.792 142.371 246.499 142.489 247.383C142.607 248.149 142.725 249.033 142.607 250.27C142.489 251.626 142.666 253.335 143.079 254.631C142.077 253.04 140.78 250.447 140.604 247.913C140.427 245.792 140.839 245.085 141.37 243.965C141.9 242.904 142.607 241.667 143.079 238.72C143.786 234.595 141.959 230.706 140.78 228.644C140.898 228.231 141.723 225.462 143.904 224.695L145.023 224.283C147.145 223.576 148.913 222.928 149.914 222.397C151.211 221.749 152.154 219.628 152.33 218.272C152.448 217.506 152.036 216.976 151.741 216.622C151.388 216.21 151.152 215.856 151.211 215.267C151.27 214.795 152.036 214.206 152.92 213.676C154.216 212.851 155.807 211.79 156.396 210.022C157.163 207.901 156.396 206.958 155.748 206.133C155.395 205.72 155.1 205.367 154.982 204.837L154.511 204.954C154.688 205.544 154.982 206.015 155.336 206.369C155.984 207.194 156.632 207.901 155.925 209.787C155.336 211.378 153.804 212.379 152.625 213.204C151.564 213.853 150.798 214.442 150.68 215.208C150.621 216.033 151.034 216.504 151.329 216.917C151.682 217.329 151.918 217.624 151.8 218.272C151.564 219.628 150.563 221.513 149.561 222.044C148.618 222.515 146.732 223.222 144.729 223.87L143.609 224.283C141.605 224.99 140.663 227.229 140.368 228.172C139.955 227.583 139.72 227.229 139.72 227.17C139.661 227.112 135.477 223.281 133.65 220.335C131.764 217.388 131.823 214.972 132.825 214.088C133.355 213.617 134.416 213.617 135.713 213.558C136.891 213.499 138.188 213.44 139.307 213.028C141.075 212.379 142.371 209.845 142.666 209.079C143.138 207.96 143.668 206.487 143.373 205.779C142.902 204.424 140.957 204.07 140.839 204.07L140.721 204.542C140.721 204.542 142.548 204.954 142.961 205.956C143.138 206.369 142.902 207.488 142.254 208.962C141.605 210.435 140.368 212.203 139.071 212.674C137.952 213.087 136.714 213.145 135.595 213.145C134.239 213.204 133.12 213.263 132.413 213.794C131.293 214.737 131.057 217.329 133.179 220.629C135.005 223.517 139.13 227.288 139.307 227.524C139.543 227.819 143.491 232.945 142.489 238.72C142.018 241.608 141.311 242.845 140.839 243.847C140.721 244.083 140.604 244.319 140.486 244.495C140.014 243.14 140.014 242.197 140.014 241.608C140.073 240.665 140.014 240.135 138.718 239.31C137.009 238.249 133.709 238.072 131.529 237.954C130.645 237.895 129.938 237.837 129.525 237.778C128.17 237.424 127.404 236.835 127.109 235.597C126.814 234.595 127.05 234.242 127.521 233.77C127.639 233.594 127.816 233.417 127.934 233.299C128.111 233.063 128.405 232.828 128.818 232.651C129.643 232.179 130.763 231.472 130.704 229.881C130.645 228.467 129.702 227.995 128.759 227.524C128.17 227.17 127.463 226.876 126.991 226.169C125.695 224.519 124.28 219.745 123.986 217.153C123.691 214.206 124.28 208.785 124.693 208.431C124.929 208.372 125.636 208.726 126.225 208.962C127.345 209.492 128.7 210.199 129.702 209.904C129.879 209.845 130.055 209.845 130.173 209.787C131.411 209.492 131.529 209.374 131.47 208.195C131.411 207.312 130.763 207.194 130.173 207.135C129.761 207.076 129.466 207.017 129.23 206.722C128.759 206.133 128.877 203.894 128.995 203.069L128.523 203.01C128.464 203.363 128.17 206.192 128.877 207.017C129.23 207.429 129.702 207.488 130.114 207.547C130.645 207.665 130.939 207.724 130.998 208.195C131.057 208.667 131.057 208.903 130.939 209.02C130.821 209.138 130.527 209.197 130.055 209.374C129.938 209.433 129.761 209.433 129.584 209.492C128.759 209.728 127.404 209.02 126.402 208.549C125.4 208.078 124.87 207.842 124.516 207.96C123.573 208.313 123.22 214.854 123.455 217.153C123.75 219.863 125.164 224.695 126.52 226.404C127.05 227.112 127.816 227.524 128.464 227.819C129.348 228.29 130.055 228.703 130.173 229.881C130.232 231.237 129.407 231.767 128.523 232.179C128.111 232.415 127.757 232.651 127.521 232.945C127.404 233.122 127.286 233.299 127.109 233.417C126.638 233.947 126.284 234.419 126.638 235.715C127.05 237.07 127.875 237.837 129.407 238.19C129.702 238.249 130.114 238.308 130.704 238.367C130.35 238.603 129.996 238.603 129.584 238.603C129.113 238.603 128.7 238.544 128.229 238.897C127.521 239.428 127.934 240.312 128.288 240.96C128.464 241.254 128.641 241.549 128.582 241.667C128.582 241.844 128.523 241.962 128.405 242.02C128.17 242.256 127.698 242.315 127.05 242.197C126.343 242.079 125.341 241.019 124.752 240.37C124.516 240.135 124.339 239.899 124.221 239.84C123.927 239.604 123.632 239.663 123.338 239.663C122.925 239.722 122.571 239.722 122.159 239.428C121.923 239.251 121.805 239.015 121.746 238.779C121.688 238.249 121.923 237.66 122.1 237.483C122.159 237.365 122.395 237.424 122.571 237.424C122.866 237.424 123.22 237.424 123.514 237.188C123.986 236.776 124.163 236.128 124.045 235.067C123.986 234.537 123.514 234.478 123.102 234.478C122.63 234.478 122.1 234.419 121.864 233.77C121.688 233.299 121.982 232.828 122.336 232.238C122.807 231.354 123.514 230.176 122.63 228.585C121.57 226.581 120.391 226.817 119.507 226.994C119.154 227.053 118.977 227.112 118.741 227.053C118.564 226.994 118.446 226.876 118.388 226.758C118.329 226.581 118.446 226.404 118.505 226.345L118.152 226.051C118.093 226.11 117.857 226.463 117.975 226.876C118.034 227.17 118.27 227.347 118.564 227.406C118.859 227.524 119.154 227.465 119.566 227.406C120.391 227.229 121.275 227.053 122.159 228.762C122.925 230.176 122.395 231.06 121.864 231.944C121.452 232.592 121.157 233.181 121.393 233.888C121.746 234.831 122.513 234.831 123.043 234.89C123.514 234.89 123.514 234.949 123.573 235.067C123.632 235.892 123.514 236.422 123.161 236.717C122.984 236.835 122.748 236.835 122.513 236.835C122.277 236.835 121.923 236.835 121.688 237.07C121.452 237.365 121.216 238.072 121.216 238.72C121.275 239.192 121.452 239.487 121.746 239.722C122.277 240.135 122.807 240.076 123.161 240.017C123.455 240.017 123.632 239.958 123.691 240.076C123.809 240.135 123.986 240.37 124.163 240.547C124.811 241.254 125.813 242.433 126.696 242.551C126.696 242.551 126.696 242.551 126.755 242.551C127.521 242.669 128.111 242.551 128.405 242.256C128.641 242.079 128.759 241.785 128.759 241.608C128.759 241.313 128.582 241.019 128.405 240.606C127.993 239.899 127.875 239.428 128.229 239.133C128.582 238.897 128.877 238.897 129.348 238.897C129.879 238.897 130.527 238.956 131.057 238.249C131.116 238.249 131.175 238.249 131.234 238.249C133.414 238.367 136.596 238.603 138.188 239.604C139.307 240.253 139.307 240.665 139.248 241.49C139.189 242.256 139.13 243.258 139.838 245.026C139.602 245.733 139.484 246.558 139.543 247.913C139.838 252.038 143.02 256.222 143.255 256.517C143.373 256.753 143.55 256.929 143.727 256.988C144.198 257.401 145.318 257.99 146.732 258.756C148.205 259.581 149.914 260.524 150.975 261.29C152.33 262.233 153.686 263.176 153.863 264.237C153.921 264.708 153.745 265.238 153.391 265.769C151.859 267.89 149.855 275.197 149.796 275.433L150.268 275.492C150.327 275.02 152.33 267.949 153.745 266.004C154.629 265.356 154.805 264.708 154.688 264.119Z" fill="url(#paint8_linear_3569_14283)"/>
<path d="M151.564 266.004C150.916 263.705 147.675 261.348 146.614 260.7C144.316 259.286 139.072 259.05 136.655 259.521C135.536 259.757 134.77 260.111 134.063 260.464C133.296 260.877 132.648 261.171 131.764 261.171C129.938 261.171 128.936 261.407 128.052 262.055C127.875 262.173 127.816 262.35 127.816 262.468C127.816 262.821 128.17 263.116 128.523 263.529C128.818 263.823 129.172 264.177 129.172 264.413C129.172 264.53 129.054 264.589 128.936 264.648C127.698 265.296 126.814 264.354 126.755 264.354L126.402 264.707C126.402 264.707 127.639 265.945 129.113 265.12C129.407 264.943 129.584 264.766 129.584 264.53C129.643 264.059 129.171 263.646 128.818 263.234C128.582 262.998 128.229 262.704 128.288 262.527L128.346 262.468C129.113 261.879 130.055 261.702 131.764 261.702C132.766 261.702 133.473 261.348 134.239 260.995C134.888 260.641 135.654 260.287 136.714 260.052C139.013 259.58 144.198 259.816 146.32 261.171C147.675 261.938 150.445 264.295 151.093 266.239C151.27 266.77 150.975 267.713 150.621 268.538C148.854 272.663 148.264 275.55 148.264 275.609L148.736 275.727C148.736 275.668 149.325 272.78 151.034 268.773C151.329 268.066 151.8 266.77 151.564 266.004Z" fill="url(#paint9_linear_3569_14283)"/>
<path d="M152.625 265.591C152.507 264.766 151.682 263.883 151.329 263.47C151.27 263.411 151.27 263.411 151.27 263.352C149.62 261.408 147.145 259.522 145.613 258.933C145.141 258.756 144.611 258.638 143.963 258.52C141.429 257.224 138.895 256.811 136.479 256.281C135.123 255.986 133.827 255.809 132.471 255.397C128.877 254.336 122.866 248.384 122.571 248.09C122.336 247.795 118.329 242.668 117.916 240.9C117.739 240.134 116.855 236.245 116.443 235.125C116.03 234.183 110.904 232.474 109.843 232.12H109.784H109.725C107.25 232.002 103.538 231.766 103.184 231.59C102.771 231.295 102.3 229.94 102.418 229.291C102.477 229.056 102.771 228.879 103.007 228.702C103.479 228.349 104.009 227.995 104.127 227.288C104.186 226.816 103.773 225.166 103.184 222.633C102.595 220.275 101.829 216.916 102.005 216.386C102.182 215.915 102.477 215.797 102.83 215.679C103.184 215.561 103.538 215.502 103.655 214.972C103.714 214.795 103.596 214.618 103.538 214.559C103.302 214.265 102.771 214.324 102.064 214.324C101.357 214.383 100.473 214.441 100.061 214.088L99.7661 214.441C100.238 214.913 101.239 214.854 102.064 214.795C102.477 214.795 103.066 214.736 103.184 214.854C103.125 215.09 103.007 215.149 102.713 215.208C102.3 215.325 101.829 215.443 101.534 216.209C101.298 216.858 101.829 219.274 102.713 222.75C103.184 224.754 103.714 226.816 103.655 227.229C103.596 227.7 103.184 228.054 102.713 228.349C102.3 228.643 101.946 228.82 101.888 229.291C101.77 229.999 102.3 231.59 102.889 232.061C103.361 232.415 108.134 232.591 109.666 232.709C112.613 233.652 115.736 234.949 115.971 235.42C116.325 236.245 116.973 238.897 117.386 241.077C117.857 243.022 121.982 248.266 122.159 248.502C122.454 248.797 128.464 254.866 132.236 255.927C133.591 256.34 134.946 256.575 136.302 256.811C138.246 257.224 140.191 257.577 142.254 258.343C141.134 258.225 139.955 258.108 138.777 258.049C137.775 257.99 136.832 257.931 136.125 257.813C130.527 257.224 127.404 256.399 125.4 254.925C123.102 253.334 116.266 247.265 115.736 246.558C115.441 246.145 115.264 245.733 115.205 245.202C115.088 244.731 114.97 244.318 114.734 243.788C113.85 241.843 110.609 239.781 108.252 238.249C107.014 237.483 105.954 236.834 105.718 236.422C105.305 235.891 105.482 235.538 105.659 235.066C105.777 234.713 105.954 234.418 105.954 233.888H105.482C105.482 234.3 105.364 234.595 105.188 234.89C104.952 235.361 104.716 235.95 105.246 236.658C105.541 237.129 106.543 237.718 107.898 238.602C110.196 240.075 113.438 242.138 114.204 243.906C114.439 244.377 114.557 244.849 114.675 245.261C114.852 245.85 114.97 246.381 115.323 246.793C115.854 247.5 122.807 253.629 125.105 255.22C127.227 256.693 130.35 257.518 136.007 258.166C136.714 258.225 137.657 258.343 138.659 258.402C141.134 258.579 143.963 258.815 145.377 259.286C146.85 259.816 149.266 261.643 150.857 263.529C150.857 263.529 150.916 263.588 150.975 263.647C151.27 263.941 152.036 264.825 152.154 265.474C152.271 266.122 151.741 267.418 151.152 269.127C150.563 270.777 149.796 272.781 149.148 275.256L149.62 275.374C150.268 272.958 150.975 270.895 151.623 269.304C152.271 267.654 152.684 266.358 152.625 265.591Z" fill="url(#paint10_linear_3569_14283)"/>
<path d="M105.423 202.774C105.364 203.127 104.952 203.658 104.598 204.247C103.891 205.367 103.066 206.545 103.538 207.547C103.832 208.077 104.539 208.549 105.364 209.079C106.896 210.14 108.782 211.377 109.548 213.734C110.786 217.447 113.909 224.106 113.968 224.165V224.224C114.027 224.283 117.916 229.468 116.502 234.595L116.973 234.713C118.329 229.586 114.675 224.4 114.38 224.047C114.38 223.988 114.263 223.811 114.145 223.575C114.675 223.458 115.854 223.104 116.62 222.102C117.209 221.336 117.445 220.275 117.268 219.097C116.973 217.034 116.03 215.09 115.146 213.381C114.38 211.967 113.791 210.67 113.791 209.786C113.85 209.02 114.263 208.843 114.911 208.667C115.618 208.431 116.502 208.195 116.679 206.663C116.855 205.072 115.736 204.365 114.793 203.717C114.086 203.245 113.555 202.95 113.614 202.42C113.732 200.947 115.854 198.884 115.854 198.884L115.5 198.531C115.382 198.649 113.261 200.711 113.143 202.361C113.084 203.186 113.791 203.658 114.498 204.07C115.382 204.6 116.325 205.249 116.148 206.545C116.03 207.783 115.441 207.959 114.734 208.136C114.145 208.313 113.379 208.549 113.32 209.609C113.202 210.67 113.909 211.908 114.675 213.499C115.5 215.149 116.502 217.034 116.738 219.038C116.855 220.099 116.679 221.042 116.148 221.69C115.382 222.692 114.204 222.986 113.791 223.045C112.907 221.1 110.727 216.445 109.784 213.617C108.959 211.142 106.896 209.727 105.364 208.725C104.598 208.195 103.891 207.724 103.655 207.311C103.243 206.604 104.009 205.425 104.657 204.483C105.129 203.834 105.482 203.245 105.541 202.833C105.659 202.243 105.011 201.242 104.245 200.181C103.596 199.179 102.83 198.059 102.713 197.234L102.241 197.293C102.359 198.236 103.125 199.356 103.832 200.475C104.893 201.3 105.541 202.302 105.423 202.774Z" fill="url(#paint11_linear_3569_14283)"/>
<path d="M149.973 267.536C149.443 266.299 147.852 265.297 146.732 264.531C146.261 264.236 145.907 264 145.73 263.824C145.554 263.647 145.495 263.47 145.436 263.293C145.318 262.763 145.141 262.291 144.021 261.879C142.313 261.172 138.188 260.818 136.891 261.643C136.361 261.997 136.302 262.409 136.302 262.763C136.42 263.706 137.598 264.531 138.6 264.943C139.307 265.179 139.366 265.945 139.425 266.711C139.484 267.359 139.543 268.066 140.014 268.361C140.368 268.597 140.486 268.833 140.486 269.009C140.427 269.245 140.014 269.54 139.13 269.658C137.775 269.834 135.83 269.245 135.83 269.245L135.713 269.717C135.83 269.717 137.834 270.247 139.189 270.129C140.191 270.011 140.839 269.658 140.957 269.127C141.075 268.715 140.839 268.302 140.368 267.949C140.014 267.713 139.955 267.183 139.955 266.593C139.896 265.768 139.838 264.767 138.836 264.413C137.775 264.059 136.891 263.234 136.832 262.645C136.773 262.35 136.95 262.174 137.245 261.997C138.423 261.29 142.313 261.525 144.021 262.233C145.023 262.645 145.082 262.999 145.2 263.352C145.259 263.588 145.318 263.824 145.613 264.118C145.848 264.354 146.202 264.59 146.673 264.884C147.734 265.533 149.266 266.593 149.796 267.654C150.15 268.42 149.738 269.245 149.266 270.424C148.795 271.543 148.146 272.899 147.911 274.725L148.382 274.784C148.677 273.016 149.207 271.602 149.738 270.6C149.973 269.422 150.445 268.479 149.973 267.536Z" fill="url(#paint12_linear_3569_14283)"/>
</g>
<path d="M165 174.487C186.512 174.487 203.952 165.253 203.952 153.862C203.952 142.471 186.512 133.237 165 133.237C143.488 133.237 126.048 142.471 126.048 153.862C126.048 165.253 143.488 174.487 165 174.487Z" fill="#2A697F"/>
<path d="M164.646 154.511C174.052 154.511 181.677 150.711 181.677 146.025C181.677 141.338 174.052 137.539 164.646 137.539C155.241 137.539 147.616 141.338 147.616 146.025C147.616 150.711 155.241 154.511 164.646 154.511Z" fill="#293C4F"/>
<path d="M164.646 139.602C173.368 139.602 180.616 142.843 181.618 147.027C181.677 146.673 181.736 146.378 181.736 146.025C181.736 141.369 174.075 137.539 164.705 137.539C155.336 137.539 147.675 141.31 147.675 146.025C147.675 146.378 147.734 146.673 147.793 147.027C148.736 142.843 155.925 139.602 164.646 139.602Z" fill="#DBDBDB"/>
<path d="M181.618 148.795L181.205 147.204C180.204 143.138 173.132 140.073 164.646 140.073C156.161 140.073 149.089 143.138 148.087 147.204L147.675 148.795L147.263 147.204C147.145 146.791 147.086 146.438 147.086 146.084C147.086 143.668 148.971 141.429 152.271 139.779C155.513 138.188 159.932 137.304 164.529 137.304C169.125 137.304 173.486 138.188 176.786 139.779C180.145 141.429 181.971 143.727 181.971 146.084C181.971 146.438 181.912 146.791 181.795 147.204L181.618 148.795ZM164.646 137.952C155.984 137.952 148.854 141.134 148.029 145.2C150.327 141.664 156.986 139.189 164.646 139.189C172.307 139.189 178.907 141.664 181.264 145.2C180.439 141.193 173.309 137.952 164.646 137.952Z" fill="#323A50"/>
<path d="M165.118 133.355C143.609 133.355 126.166 142.489 126.166 153.863C126.166 165.177 143.609 174.37 165.118 174.37C186.627 174.37 204.07 165.236 204.07 153.863C204.011 142.548 186.568 133.355 165.118 133.355ZM181.795 146.202C181.795 146.261 181.854 146.32 181.854 146.379C181.854 146.438 181.854 146.497 181.854 146.555C181.146 150.798 173.839 154.157 164.882 154.157C156.161 154.157 148.912 150.975 147.911 146.909C147.911 146.791 147.852 146.673 147.852 146.555C147.852 146.497 147.852 146.438 147.793 146.379C147.793 146.32 147.793 145.966 147.793 145.907C147.793 145.789 147.793 145.259 147.793 145.259C147.793 145.259 147.793 145.259 147.793 145.141C147.852 144.611 148.029 144.198 148.264 143.668C148.559 143.197 148.912 142.725 149.384 142.313H149.443C152.212 139.543 158.105 137.657 164.823 137.657C174.252 137.657 181.912 141.37 181.912 145.907H181.677C181.736 145.966 181.795 146.084 181.795 146.202Z" fill="#DBDBDB"/>
<path d="M165.118 174.605C154.629 174.605 144.788 172.425 137.421 168.595C129.938 164.646 125.812 159.402 125.812 153.744C125.812 148.087 129.938 142.843 137.421 138.895C144.846 135.005 154.629 132.884 165.118 132.884C175.607 132.884 185.448 135.064 192.814 138.895C200.298 142.843 204.423 148.087 204.423 153.744C204.423 159.402 200.298 164.646 192.814 168.595C185.448 172.543 175.548 174.605 165.118 174.605ZM165.118 133.709C143.904 133.709 126.638 142.666 126.638 153.744C126.638 164.823 143.904 173.78 165.118 173.78C186.332 173.78 203.598 164.823 203.598 153.744C203.598 142.725 186.332 133.709 165.118 133.709ZM164.764 154.452C155.984 154.452 148.5 151.211 147.439 146.85C147.38 146.732 147.38 146.614 147.38 146.496C147.38 146.437 147.38 146.378 147.321 146.261C147.321 146.202 147.321 146.143 147.321 146.084V146.143C147.321 146.025 147.321 145.907 147.321 145.671V145.259C147.38 144.67 147.557 144.08 147.852 143.491C148.146 143.02 148.5 142.43 149.089 141.959C149.148 141.9 149.148 141.9 149.148 141.9C152.095 138.953 158.105 137.127 164.823 137.127C169.479 137.127 173.78 138.011 177.139 139.543C180.498 141.134 182.384 143.373 182.384 145.73V146.143H182.207C182.207 146.202 182.207 146.261 182.207 146.261C182.207 146.32 182.207 146.378 182.148 146.437C181.441 151.034 173.898 154.452 164.764 154.452ZM148.087 145.73C148.087 145.907 148.087 145.966 148.087 146.084V146.202C148.087 146.261 148.087 146.261 148.087 146.32C148.087 146.378 148.087 146.437 148.087 146.496C148.087 146.614 148.146 146.732 148.146 146.791C149.148 150.798 156.22 153.744 164.705 153.744C173.368 153.744 180.675 150.562 181.323 146.496V146.437C181.323 146.378 181.264 146.32 181.323 146.202C181.323 146.202 181.323 146.143 181.323 146.084C181.323 146.025 181.323 145.966 181.323 145.848V145.436H181.5C181.264 143.55 179.614 141.782 176.727 140.368C173.545 138.836 169.302 138.011 164.823 138.011C158.4 138.011 152.448 139.778 149.679 142.548L149.62 142.607C149.148 143.078 148.854 143.491 148.618 143.962C148.323 144.434 148.146 144.964 148.146 145.377C148.088 145.495 148.087 145.73 148.087 145.73Z" fill="#323A50"/>
<g opacity="0.3">
<path d="M166.12 286.923C166.061 286.923 166.002 286.923 165.943 286.923C152.271 286.923 138.718 283.093 126.638 276.021H126.579L125.989 275.432C110.962 266.711 99.6482 253.098 93.2839 236.186C90.8089 229.586 89.2179 222.632 88.5696 214.677C88.3339 210.964 88.3339 207.546 88.5696 203.834C88.7464 200.18 89.2768 196.527 90.2196 192.166C91.1625 187.805 92.5768 183.386 94.6393 178.73L95.3464 179.084C93.3429 183.68 91.9286 188.041 90.9857 192.402C90.0429 196.645 89.5714 200.357 89.3947 203.893C89.1589 207.546 89.1589 210.964 89.3947 214.618C90.0429 222.396 91.575 229.409 94.05 235.891C100.355 252.744 111.552 266.121 126.461 274.784H126.52L127.109 275.373C151.388 289.693 180.439 289.752 204.777 275.55C206.014 274.784 207.193 273.959 208.666 273.134C221.571 264.825 231.236 252.98 237.423 237.895C237.718 237.187 237.954 236.421 238.248 235.655C238.543 234.889 238.72 234.123 239.073 233.357C243.788 219.096 244.259 204.482 240.664 190.045V189.986C240.488 189.396 238.13 182.03 236.657 178.612L237.364 178.259C238.72 181.441 241.195 188.807 241.43 189.809C245.084 204.423 244.554 219.155 239.78 233.593V233.652C239.486 234.359 239.25 235.066 239.014 235.891C238.72 236.657 238.543 237.423 238.189 238.189C232.002 253.393 222.161 265.414 209.138 273.782C207.723 274.607 206.486 275.373 205.307 276.198C193.227 283.211 179.673 286.923 166.12 286.923Z" fill="#323A50"/>
</g>
<path d="M263.352 180.557C261.466 174.31 256.457 170.067 248.561 168.064C244.023 166.826 239.721 166.708 237.954 166.767C237.895 166.532 237.777 166.296 237.6 166.119C239.132 166.06 243.787 166.119 248.737 167.474C256.811 169.596 262.055 174.074 263.941 180.38C264.354 181.205 275.962 205.601 277.377 219.921C277.789 223.692 280.795 224.517 286.334 225.991C290.93 227.287 297.236 228.996 305.132 233.18L304.779 233.769C297 229.644 290.695 227.876 286.157 226.639C280.5 225.107 277.082 224.164 276.67 219.921C275.491 208.312 267.477 189.749 264.412 183.091C264.589 188.041 261.171 194.817 254.1 203.48C247.382 211.73 237.423 221.571 224.518 232.826C219.686 236.951 214.912 241.017 210.257 244.848L209.55 244.553C214.264 240.782 219.214 236.598 224.164 232.296C253.216 207.016 266.711 189.16 263.352 180.557Z" fill="#323A50"/>
<path d="M239.839 172.778C239.78 172.307 239.191 170.008 239.014 169.596C239.073 169.36 239.957 170.775 239.898 170.539C239.898 170.067 239.604 169.596 239.191 169.301C239.25 168.83 239.25 168.594 238.72 168.3C238.779 168.064 238.248 168.064 238.248 167.828C239.073 169.183 240.075 171.069 240.429 172.601C241.784 179.673 230.941 196.526 208.313 222.573C203.304 228.348 198.236 234.005 193.639 238.837L192.932 238.601C213.204 216.798 241.548 183.621 239.839 172.778Z" fill="#323A50"/>
<path d="M237.659 166.061C237.777 166.178 237.895 166.296 237.954 166.473L242.138 166.296C240.193 166.061 238.602 166.061 237.659 166.061Z" fill="#323A50"/>
<path d="M238.779 168.123L249.621 167.651C249.15 167.534 248.796 167.416 248.325 167.298L238.602 167.71C238.661 167.828 238.72 168.005 238.779 168.123Z" fill="#323A50"/>
<path d="M239.191 169.773L253.629 169.184C253.334 169.066 253.098 168.889 252.804 168.771L239.014 169.302C239.014 169.361 239.014 169.42 239.014 169.479C239.073 169.596 239.132 169.714 239.191 169.773Z" fill="#323A50"/>
<path d="M239.839 171.482L256.457 170.833C256.222 170.716 256.045 170.539 255.868 170.421L239.78 171.069C239.78 171.187 239.78 171.305 239.839 171.482Z" fill="#323A50"/>
<path d="M240.016 173.014L258.461 172.307C258.284 172.189 258.107 172.012 257.989 171.895L240.016 172.602C240.016 172.778 240.016 172.896 240.016 173.014Z" fill="#323A50"/>
<path d="M240.075 174.723L260.111 173.898C259.993 173.78 259.875 173.603 259.757 173.485L240.075 174.251C240.075 174.546 240.075 174.605 240.075 174.723Z" fill="#323A50"/>
<path d="M239.839 176.137C239.78 176.255 239.78 176.373 239.721 176.491L261.407 175.607C261.289 175.489 261.23 175.312 261.113 175.194L239.839 176.137Z" fill="#323A50"/>
<path d="M239.309 177.964C239.309 178.023 239.25 178.141 239.25 178.2L262.468 177.257C262.409 177.139 262.291 176.963 262.232 176.845L239.368 177.788C239.309 177.847 239.309 177.905 239.309 177.964Z" fill="#323A50"/>
<path d="M238.661 179.496L262.998 178.494C263.057 178.612 263.116 178.789 263.175 178.907L238.484 179.908C238.543 179.791 238.602 179.673 238.661 179.496Z" fill="#323A50"/>
<path d="M237.895 181.264L263.647 180.203C263.705 180.321 263.705 180.439 263.764 180.616L237.718 181.676C237.777 181.558 237.836 181.441 237.895 181.264Z" fill="#323A50"/>
<path d="M237.07 182.973L264 181.854C264 181.971 264.059 182.148 264.059 182.266L236.893 183.386C236.952 183.268 237.011 183.15 237.07 182.973Z" fill="#323A50"/>
<path d="M236.127 184.741L264.118 183.621C264.118 183.739 264.118 183.916 264.118 184.034L235.95 185.212C236.068 185.035 236.068 184.918 236.127 184.741Z" fill="#323A50"/>
<path d="M235.243 186.39L264 185.212C264 185.33 263.941 185.507 263.941 185.624L235.066 186.803C235.125 186.626 235.184 186.567 235.243 186.39Z" fill="#323A50"/>
<path d="M234.182 188.158L263.587 186.921C263.529 187.039 263.529 187.216 263.47 187.333L233.887 188.571C234.064 188.394 234.182 188.335 234.182 188.158Z" fill="#323A50"/>
<path d="M233.18 189.867L263.116 188.63C263.057 188.748 262.998 188.925 262.939 189.042L232.886 190.28C233.004 190.221 233.063 190.044 233.18 189.867Z" fill="#323A50"/>
<path d="M232.002 191.636L262.35 190.398C262.291 190.516 262.232 190.693 262.173 190.87L231.707 192.107C231.825 191.99 231.943 191.813 232.002 191.636Z" fill="#323A50"/>
<path d="M230.882 193.285L261.584 192.048C261.525 192.166 261.407 192.343 261.348 192.519L230.646 193.757C230.705 193.58 230.823 193.462 230.882 193.285Z" fill="#323A50"/>
<path d="M229.645 195.053L260.582 193.757C260.523 193.934 260.405 194.051 260.346 194.228L229.35 195.525C229.527 195.407 229.645 195.23 229.645 195.053Z" fill="#323A50"/>
<path d="M228.466 196.821L259.58 195.524C259.462 195.701 259.404 195.819 259.286 195.996L228.112 197.292C228.289 197.115 228.407 196.939 228.466 196.821Z" fill="#323A50"/>
<path d="M227.17 198.589L258.402 197.293C258.284 197.47 258.225 197.588 258.107 197.764L226.816 199.061C226.993 198.884 227.052 198.766 227.17 198.589Z" fill="#323A50"/>
<path d="M225.991 200.239L257.341 198.942C257.223 199.119 257.105 199.237 257.046 199.414L225.696 200.71C225.814 200.475 225.932 200.357 225.991 200.239Z" fill="#323A50"/>
<path d="M224.695 202.066L256.045 200.77C255.927 200.946 255.809 201.064 255.691 201.241L224.341 202.537C224.459 202.302 224.577 202.125 224.695 202.066Z" fill="#323A50"/>
<path d="M223.339 203.775L254.689 202.479C254.571 202.655 254.454 202.773 254.336 202.95L223.045 204.246C223.163 204.011 223.221 203.952 223.339 203.775Z" fill="#323A50"/>
<path d="M221.984 205.543L253.275 204.246C253.157 204.423 253.039 204.541 252.921 204.718L221.689 206.014C221.748 205.778 221.866 205.719 221.984 205.543Z" fill="#323A50"/>
<path d="M220.57 207.31L251.743 206.014C251.625 206.19 251.507 206.308 251.33 206.485L220.216 207.782C220.393 207.605 220.452 207.428 220.57 207.31Z" fill="#323A50"/>
<path d="M219.214 209.079L250.211 207.782C250.093 207.959 249.975 208.077 249.798 208.254L218.802 209.55C218.92 209.373 219.038 209.255 219.214 209.079Z" fill="#323A50"/>
<path d="M217.741 210.846L248.561 209.55C248.443 209.727 248.266 209.844 248.148 210.021L217.329 211.318C217.564 211.141 217.682 210.964 217.741 210.846Z" fill="#323A50"/>
<path d="M216.445 212.496L247.146 211.259C247.029 211.436 246.852 211.553 246.734 211.73L216.091 212.968C216.15 212.791 216.268 212.614 216.445 212.496Z" fill="#323A50"/>
<path d="M215.03 214.087L245.496 212.85C245.379 213.026 245.202 213.144 245.084 213.321L214.677 214.559C214.854 214.382 214.971 214.264 215.03 214.087Z" fill="#323A50"/>
<path d="M213.616 215.914L243.846 214.677C243.729 214.854 243.552 214.971 243.434 215.148L213.263 216.386C213.321 216.209 213.498 216.032 213.616 215.914Z" fill="#323A50"/>
<path d="M212.143 217.682L242.079 216.444C241.902 216.621 241.784 216.739 241.607 216.916L211.73 218.153C211.907 217.918 212.025 217.8 212.143 217.682Z" fill="#323A50"/>
<path d="M210.611 219.449L240.311 218.212C240.134 218.389 240.016 218.507 239.839 218.683L210.198 219.921C210.375 219.744 210.493 219.567 210.611 219.449Z" fill="#323A50"/>
<path d="M209.196 221.099L238.602 219.921C238.425 220.098 238.307 220.216 238.13 220.392L208.843 221.571C208.961 221.394 209.079 221.276 209.196 221.099Z" fill="#323A50"/>
<path d="M207.782 222.75L236.834 221.571C236.657 221.748 236.539 221.866 236.363 222.043L207.37 223.221C207.605 223.044 207.664 222.927 207.782 222.75Z" fill="#323A50"/>
<path d="M206.25 224.517L235.007 223.339C234.83 223.516 234.712 223.634 234.536 223.81L205.896 224.989C206.014 224.812 206.132 224.694 206.25 224.517Z" fill="#323A50"/>
<path d="M204.777 226.286L233.121 225.107C232.945 225.284 232.827 225.402 232.65 225.579L204.364 226.757C204.482 226.581 204.6 226.404 204.777 226.286Z" fill="#323A50"/>
<path d="M203.127 228.053L231.059 226.934C230.882 227.11 230.705 227.228 230.588 227.405L202.655 228.525C202.95 228.348 203.068 228.23 203.127 228.053Z" fill="#323A50"/>
<path d="M201.595 229.88L229.173 228.761C228.996 228.938 228.82 229.055 228.702 229.232L201.241 230.352C201.3 230.175 201.418 229.998 201.595 229.88Z" fill="#323A50"/>
<path d="M200.121 231.471L227.288 230.352C227.111 230.528 226.934 230.646 226.816 230.823L199.768 231.943C199.886 231.766 200.004 231.648 200.121 231.471Z" fill="#323A50"/>
<path d="M198.471 233.298L225.225 232.179C225.048 232.355 224.871 232.473 224.754 232.65L198.118 233.711C198.295 233.593 198.412 233.416 198.471 233.298Z" fill="#323A50"/>
<path d="M196.939 235.066L223.221 234.005C223.045 234.182 222.868 234.3 222.75 234.476L196.527 235.537C196.645 235.301 196.821 235.183 196.939 235.066Z" fill="#323A50"/>
<path d="M195.348 236.893L221.218 235.832C221.041 236.009 220.864 236.127 220.746 236.303L194.995 237.364C195.054 237.128 195.171 236.952 195.348 236.893Z" fill="#323A50"/>
<path d="M193.875 238.484L219.332 237.423C219.155 237.6 218.979 237.718 218.861 237.894L193.521 238.955C193.58 238.778 193.698 238.66 193.875 238.484Z" fill="#323A50"/>
<path d="M194.288 240.075L217.329 239.132C217.152 239.309 216.975 239.426 216.857 239.603L195.348 240.487C194.995 240.31 194.641 240.193 194.288 240.075Z" fill="#323A50"/>
<path d="M198.825 241.548L215.207 240.899C215.03 241.076 214.854 241.194 214.736 241.371L200.004 241.96C199.591 241.842 199.237 241.724 198.825 241.548Z" fill="#323A50"/>
<path d="M203.48 243.08L213.086 242.668C212.909 242.845 212.732 242.963 212.614 243.139L204.718 243.493C204.246 243.375 203.893 243.257 203.48 243.08Z" fill="#323A50"/>
<path d="M208.136 244.612L210.846 244.494C210.67 244.671 210.493 244.789 210.316 244.966L209.196 245.024C208.843 244.907 208.548 244.73 208.136 244.612Z" fill="#323A50"/>
<path d="M69.4179 180.557C71.3036 174.31 76.3125 170.067 84.209 168.064C88.7465 166.826 93.0482 166.708 94.8161 166.767C94.875 166.532 94.9929 166.296 95.1697 166.119C93.6375 166.06 88.9821 166.119 84.0321 167.474C75.9589 169.596 70.7143 174.074 68.8286 180.38C68.4161 181.205 56.8072 205.601 55.3929 219.921C54.9804 223.692 51.975 224.517 46.4357 225.991C41.8393 227.287 35.5339 228.996 27.6375 233.18L27.9911 233.769C35.7697 229.644 42.075 227.876 46.6125 226.639C52.2697 225.107 55.6875 224.164 56.1 219.921C57.2786 208.312 65.2929 189.749 68.3572 183.091C68.1804 188.041 71.5982 194.817 78.6697 203.48C85.3875 211.73 95.3465 221.571 108.252 232.826C113.084 236.951 117.857 241.017 122.513 244.848L123.22 244.553C118.505 240.782 113.555 236.598 108.605 232.296C79.4947 207.016 66 189.16 69.4179 180.557Z" fill="#323A50"/>
<path d="M92.8714 172.778C92.9304 172.307 93.5197 170.008 93.6964 169.596C93.6375 169.36 92.7536 170.775 92.8125 170.539C92.8125 170.067 93.1072 169.596 93.5197 169.301C93.4607 168.83 93.4607 168.594 93.9911 168.3C93.9322 168.064 94.4625 168.064 94.4625 167.828C93.6375 169.183 92.6357 171.069 92.2821 172.601C90.9268 179.673 101.77 196.526 124.398 222.573C129.407 228.348 134.475 234.005 139.071 238.837L139.779 238.601C119.507 216.798 91.1625 183.621 92.8714 172.778Z" fill="#323A50"/>
<path d="M95.1107 166.061C94.9929 166.178 94.875 166.296 94.8161 166.473L90.6321 166.296C92.5179 166.061 94.1089 166.061 95.1107 166.061Z" fill="#323A50"/>
<path d="M93.9322 168.123L83.0893 167.651C83.5607 167.534 83.9143 167.416 84.3857 167.298L94.1089 167.71C94.05 167.828 93.9911 168.005 93.9322 168.123Z" fill="#323A50"/>
<path d="M93.5197 169.773L79.0822 169.184C79.3768 169.066 79.6125 168.889 79.9071 168.771L93.6964 169.302C93.6964 169.361 93.6964 169.42 93.6964 169.479C93.6375 169.596 93.5786 169.714 93.5197 169.773Z" fill="#323A50"/>
<path d="M92.8715 171.482L76.2537 170.833C76.4894 170.716 76.6662 170.539 76.8429 170.421L92.9304 171.069C92.9894 171.187 92.9304 171.305 92.8715 171.482Z" fill="#323A50"/>
<path d="M92.6946 173.014L74.25 172.307C74.4268 172.189 74.6036 172.012 74.7214 171.895L92.6946 172.602C92.6946 172.778 92.6946 172.896 92.6946 173.014Z" fill="#323A50"/>
<path d="M92.6358 174.723L72.6 173.898C72.7179 173.78 72.8357 173.603 72.9536 173.485L92.6358 174.251C92.6358 174.546 92.6358 174.605 92.6358 174.723Z" fill="#323A50"/>
<path d="M92.8714 176.137C92.9304 176.255 92.9304 176.373 92.9893 176.491L71.3036 175.607C71.4214 175.489 71.4804 175.312 71.5982 175.194L92.8714 176.137Z" fill="#323A50"/>
<path d="M93.4018 177.964C93.4018 178.023 93.4607 178.141 93.4607 178.2L70.2429 177.257C70.3018 177.139 70.4197 176.963 70.4786 176.845L93.3429 177.788C93.4018 177.847 93.4018 177.905 93.4018 177.964Z" fill="#323A50"/>
<path d="M94.05 179.496L69.7125 178.494C69.6536 178.612 69.5947 178.789 69.5358 178.907L94.2269 179.908C94.1679 179.791 94.109 179.673 94.05 179.496Z" fill="#323A50"/>
<path d="M94.875 181.264L69.1232 180.203C69.0643 180.321 69.0643 180.439 69.0054 180.616L95.0518 181.676C94.934 181.558 94.875 181.441 94.875 181.264Z" fill="#323A50"/>
<path d="M95.6411 182.973L68.7107 181.854C68.7107 181.971 68.6518 182.148 68.6518 182.266L95.8179 183.386C95.8179 183.268 95.7589 183.15 95.6411 182.973Z" fill="#323A50"/>
<path d="M96.584 184.741L68.5929 183.621C68.5929 183.739 68.5929 183.916 68.5929 184.034L96.7607 185.212C96.7018 185.035 96.6429 184.918 96.584 184.741Z" fill="#323A50"/>
<path d="M97.4679 186.39L68.7107 185.212C68.7107 185.33 68.7696 185.507 68.7696 185.624L97.6446 186.803C97.6446 186.626 97.5857 186.567 97.4679 186.39Z" fill="#323A50"/>
<path d="M98.5285 188.158L69.1232 186.921C69.1821 187.039 69.1821 187.216 69.241 187.333L98.8232 188.571C98.6464 188.394 98.5285 188.335 98.5285 188.158Z" fill="#323A50"/>
<path d="M99.5303 189.867L69.5946 188.63C69.6535 188.748 69.7125 188.925 69.7714 189.042L99.825 190.28C99.7071 190.221 99.6482 190.044 99.5303 189.867Z" fill="#323A50"/>
<path d="M100.709 191.636L70.3607 190.398C70.4196 190.516 70.4786 190.693 70.5375 190.87L101.004 192.107C100.886 191.99 100.827 191.813 100.709 191.636Z" fill="#323A50"/>
<path d="M101.829 193.285L71.1268 192.048C71.1857 192.166 71.3036 192.343 71.3625 192.519L102.064 193.757C102.005 193.58 101.946 193.462 101.829 193.285Z" fill="#323A50"/>
<path d="M103.066 195.053L72.1286 193.757C72.1875 193.934 72.3054 194.051 72.3643 194.228L103.361 195.525C103.184 195.407 103.125 195.23 103.066 195.053Z" fill="#323A50"/>
<path d="M104.245 196.821L73.1304 195.524C73.2482 195.701 73.3072 195.819 73.425 195.996L104.598 197.292C104.421 197.115 104.363 196.939 104.245 196.821Z" fill="#323A50"/>
<path d="M105.541 198.589L74.309 197.293C74.4268 197.47 74.4857 197.588 74.6036 197.764L105.895 199.061C105.777 198.884 105.659 198.766 105.541 198.589Z" fill="#323A50"/>
<path d="M106.72 200.239L75.3696 198.942C75.4875 199.119 75.6053 199.237 75.6643 199.414L107.014 200.71C106.896 200.475 106.779 200.357 106.72 200.239Z" fill="#323A50"/>
<path d="M108.016 202.066L76.6661 200.77C76.7839 200.946 76.9018 201.064 77.0197 201.241L108.37 202.537C108.252 202.302 108.134 202.125 108.016 202.066Z" fill="#323A50"/>
<path d="M109.371 203.775L78.0215 202.479C78.1393 202.655 78.2572 202.773 78.375 202.95L109.666 204.246C109.548 204.011 109.489 203.952 109.371 203.775Z" fill="#323A50"/>
<path d="M110.727 205.543L79.4357 204.246C79.5536 204.423 79.6715 204.541 79.7893 204.718L111.021 206.014C110.963 205.778 110.845 205.719 110.727 205.543Z" fill="#323A50"/>
<path d="M112.141 207.31L80.9679 206.014C81.0858 206.19 81.2036 206.308 81.3804 206.485L112.495 207.782C112.318 207.605 112.259 207.428 112.141 207.31Z" fill="#323A50"/>
<path d="M113.555 209.079L82.5589 207.782C82.6768 207.959 82.7947 208.077 82.9714 208.254L113.968 209.55C113.791 209.373 113.673 209.255 113.555 209.079Z" fill="#323A50"/>
<path d="M114.97 210.846L84.15 209.55C84.2679 209.727 84.4446 209.844 84.5625 210.021L115.382 211.318C115.146 211.141 115.029 210.964 114.97 210.846Z" fill="#323A50"/>
<path d="M116.325 212.496L85.6232 211.259C85.7411 211.436 85.9179 211.553 86.0357 211.73L116.679 212.968C116.561 212.791 116.443 212.614 116.325 212.496Z" fill="#323A50"/>
<path d="M117.68 214.087L87.2144 212.85C87.3322 213.026 87.509 213.144 87.6269 213.321L118.034 214.559C117.857 214.382 117.798 214.264 117.68 214.087Z" fill="#323A50"/>
<path d="M119.095 215.914L88.8643 214.677C88.9821 214.854 89.1589 214.971 89.2768 215.148L119.448 216.386C119.389 216.209 119.271 216.032 119.095 215.914Z" fill="#323A50"/>
<path d="M120.568 217.682L90.6321 216.444C90.8089 216.621 90.9268 216.739 91.1036 216.916L120.98 218.153C120.804 217.918 120.686 217.8 120.568 217.682Z" fill="#323A50"/>
<path d="M122.1 219.449L92.4 218.212C92.5768 218.389 92.6947 218.507 92.8714 218.683L122.513 219.921C122.336 219.744 122.218 219.567 122.1 219.449Z" fill="#323A50"/>
<path d="M123.514 221.099L94.109 219.921C94.2858 220.098 94.4036 220.216 94.5804 220.392L123.868 221.571C123.75 221.394 123.632 221.276 123.514 221.099Z" fill="#323A50"/>
<path d="M124.929 222.75L95.8768 221.571C96.0536 221.748 96.1714 221.866 96.3482 222.043L125.341 223.221C125.105 223.044 125.046 222.927 124.929 222.75Z" fill="#323A50"/>
<path d="M126.461 224.517L97.7036 223.339C97.8804 223.516 97.9982 223.634 98.175 223.81L126.814 224.989C126.696 224.812 126.579 224.694 126.461 224.517Z" fill="#323A50"/>
<path d="M127.934 226.286L99.5894 225.107C99.7661 225.284 99.884 225.402 100.061 225.579L128.346 226.757C128.229 226.581 128.111 226.404 127.934 226.286Z" fill="#323A50"/>
<path d="M129.584 228.053L101.652 226.934C101.829 227.11 102.005 227.228 102.123 227.405L130.055 228.525C129.761 228.348 129.702 228.23 129.584 228.053Z" fill="#323A50"/>
<path d="M131.116 229.88L103.538 228.761C103.714 228.938 103.891 229.055 104.009 229.232L131.47 230.352C131.411 230.175 131.293 229.998 131.116 229.88Z" fill="#323A50"/>
<path d="M132.589 231.471L105.423 230.352C105.6 230.528 105.777 230.646 105.895 230.823L132.943 231.943C132.825 231.766 132.707 231.648 132.589 231.471Z" fill="#323A50"/>
<path d="M134.239 233.298L107.486 232.179C107.663 232.355 107.839 232.473 107.957 232.65L134.593 233.711C134.416 233.593 134.298 233.416 134.239 233.298Z" fill="#323A50"/>
<path d="M135.771 235.066L109.489 234.005C109.666 234.182 109.843 234.3 109.961 234.476L136.184 235.537C136.066 235.301 135.889 235.183 135.771 235.066Z" fill="#323A50"/>
<path d="M137.362 236.893L111.493 235.832C111.67 236.009 111.846 236.127 111.964 236.303L137.716 237.364C137.657 237.128 137.539 236.952 137.362 236.893Z" fill="#323A50"/>
<path d="M138.895 238.484L113.438 237.423C113.614 237.6 113.791 237.718 113.909 237.894L139.248 238.955C139.13 238.778 139.013 238.66 138.895 238.484Z" fill="#323A50"/>
<path d="M138.423 240.075L115.382 239.132C115.559 239.309 115.736 239.426 115.854 239.603L137.363 240.487C137.775 240.31 138.07 240.193 138.423 240.075Z" fill="#323A50"/>
<path d="M133.886 241.548L117.504 240.899C117.68 241.076 117.857 241.194 117.975 241.371L132.707 241.96C133.179 241.842 133.473 241.724 133.886 241.548Z" fill="#323A50"/>
<path d="M129.23 243.08L119.625 242.668C119.802 242.845 119.979 242.963 120.096 243.139L127.993 243.493C128.464 243.375 128.818 243.257 129.23 243.08Z" fill="#323A50"/>
<path d="M124.575 244.612L121.864 244.494C122.041 244.671 122.218 244.789 122.395 244.966L123.514 245.024C123.868 244.907 124.221 244.73 124.575 244.612Z" fill="#323A50"/>
<path d="M135.418 139.071C135.3 139.071 135.182 139.012 135.123 138.953C134.534 138.541 133.945 138.128 133.473 137.716C133.237 137.539 133.179 137.245 133.414 137.009C133.591 136.773 133.886 136.714 134.121 136.95C134.593 137.362 135.182 137.716 135.712 138.128C135.948 138.305 136.007 138.6 135.83 138.836C135.771 139.012 135.595 139.071 135.418 139.071ZM132.295 136.537C132.177 136.537 132 136.478 131.941 136.361C131.47 135.889 130.939 135.359 130.527 134.828C130.35 134.593 130.35 134.298 130.586 134.121C130.821 133.945 131.116 133.945 131.293 134.18C131.705 134.652 132.177 135.182 132.648 135.595C132.884 135.83 132.884 136.066 132.648 136.302C132.53 136.478 132.412 136.537 132.295 136.537ZM129.702 133.414C129.525 133.414 129.348 133.296 129.23 133.178C128.523 132 128.287 131.234 128.287 131.175C128.229 130.88 128.405 130.645 128.641 130.586C128.936 130.527 129.171 130.703 129.23 130.939C129.23 130.939 129.407 131.587 130.055 132.648C130.232 132.884 130.114 133.178 129.879 133.355C129.879 133.355 129.761 133.414 129.702 133.414Z" fill="#FF4200"/>
<path d="M127.109 127.463C126.932 127.463 126.814 127.345 126.755 127.227L115.5 107.368H76.9607C76.725 107.368 76.6071 107.25 76.6071 107.073C76.6071 106.838 76.7839 106.543 77.0197 106.543H115.795C115.971 106.543 116.089 106.838 116.148 106.955L127.521 126.814C127.639 127.05 127.58 127.286 127.345 127.404C127.227 127.404 127.168 127.463 127.109 127.463Z" fill="#FF4200"/>
<path d="M81.1447 103.95H79.4357V94.6393L77.0197 95.9357V94.2857L79.6714 92.8125H81.2036V103.95H81.1447Z" fill="#FF4200"/>
<path d="M84.15 106.425H82.7947L84.0911 101.946H86.0947L84.15 106.425Z" fill="#FF4200"/>
<path d="M94.6982 103.95H92.9893V101.004H87.2143V99.6486L92.9893 92.7539H94.6982V99.5307H96.4661V101.004H94.6982V103.95ZM92.9893 95.0521L89.2179 99.5307H92.9893V95.0521Z" fill="#FF4200"/>
<path d="M100.355 103.95H99.3535V99.2946H100.355V99.8839C100.709 99.4125 101.239 99.1768 101.888 99.1768C102.241 99.1768 102.536 99.2357 102.83 99.4125C103.066 99.5893 103.243 99.766 103.361 100.002C103.538 99.766 103.773 99.5303 104.068 99.4125C104.362 99.2357 104.716 99.1768 105.07 99.1768C105.6 99.1768 106.013 99.3535 106.307 99.6482C106.602 99.9428 106.72 100.414 106.72 101.004V103.891H105.718V101.239C105.718 100.473 105.423 100.12 104.775 100.12C104.539 100.12 104.304 100.179 104.068 100.355C103.832 100.532 103.655 100.709 103.596 100.886V103.95H102.595V101.298C102.595 100.532 102.3 100.179 101.652 100.179C101.416 100.179 101.18 100.237 100.945 100.414C100.709 100.532 100.532 100.709 100.414 100.945V103.95H100.355Z" fill="#FF4200"/>
<path d="M109.077 103.95H108.075V99.2946H109.077V99.8839C109.43 99.4125 109.961 99.1768 110.609 99.1768C110.963 99.1768 111.257 99.2357 111.552 99.4125C111.787 99.5893 111.964 99.766 112.082 100.002C112.259 99.766 112.495 99.5303 112.789 99.4125C113.084 99.2357 113.437 99.1768 113.791 99.1768C114.321 99.1768 114.734 99.3535 115.029 99.6482C115.323 99.9428 115.441 100.414 115.441 101.004V103.891H114.439V101.239C114.439 100.473 114.145 100.12 113.496 100.12C113.261 100.12 113.025 100.179 112.789 100.355C112.554 100.532 112.377 100.709 112.318 100.886V103.95H111.316V101.298C111.316 100.532 111.021 100.179 110.373 100.179C110.137 100.179 109.902 100.237 109.666 100.414C109.43 100.532 109.254 100.709 109.136 100.945V103.95H109.077Z" fill="#FF4200"/>
<path d="M197.882 139.779C197.705 139.779 197.587 139.72 197.47 139.602C197.293 139.366 197.293 139.072 197.529 138.895C197.705 138.718 197.882 138.6 198 138.482C198.236 138.306 198.53 138.306 198.707 138.541C198.884 138.777 198.884 139.072 198.648 139.248C198.471 139.366 198.354 139.543 198.177 139.72C198.177 139.779 198.059 139.779 197.882 139.779ZM199.827 137.952C199.709 137.952 199.532 137.893 199.414 137.775C199.179 137.539 199.238 137.304 199.414 137.068C199.886 136.597 200.416 136.066 200.77 135.654C200.946 135.418 201.241 135.418 201.477 135.654C201.713 135.831 201.713 136.125 201.477 136.361C201.005 136.832 200.534 137.304 200.063 137.834C200.121 137.952 200.004 137.952 199.827 137.952ZM202.596 135.006C202.479 135.006 202.361 134.947 202.243 134.888C202.007 134.711 201.948 134.416 202.184 134.181C203.009 133.12 203.245 132.648 203.245 132.648C203.363 132.354 203.657 132.236 203.893 132.354C204.188 132.472 204.305 132.766 204.188 133.002C204.188 133.061 203.893 133.591 202.95 134.77C202.95 134.947 202.773 135.006 202.596 135.006Z" fill="#FF4200"/>
<path d="M206.073 128.052C206.014 128.052 205.896 128.052 205.896 128.052C205.661 127.934 205.602 127.639 205.72 127.521L217.152 107.78C217.211 107.662 217.387 107.604 217.505 107.604H256.163C256.398 107.604 256.575 107.839 256.575 108.016C256.575 108.252 256.28 108.37 256.104 108.37H217.918L206.604 127.757C206.427 127.934 206.191 128.052 206.073 128.052Z" fill="#FF4200"/>
<path d="M224.636 100.944H222.927V91.6338L220.511 92.9302V91.2213L223.163 89.748H224.695V100.944H224.636Z" fill="#FF4200"/>
<path d="M227.641 103.36H226.286L227.582 98.8818H229.586L227.641 103.36Z" fill="#FF4200"/>
<path d="M238.602 100.945H230.823V99.6481L234.359 96.3481C235.125 95.6409 235.655 95.0516 236.009 94.5802C236.304 94.1088 236.48 93.5784 236.48 93.0481C236.48 92.4588 236.304 92.0463 235.891 91.6927C235.479 91.3391 234.948 91.1624 234.3 91.1624C233.18 91.1624 232.179 91.6338 231.177 92.5766V90.7499C232.12 89.9838 233.18 89.5713 234.477 89.5713C235.538 89.5713 236.421 89.8659 237.187 90.4552C237.954 91.0445 238.307 91.8695 238.307 92.8124C238.307 93.5784 238.13 94.2266 237.777 94.8749C237.364 95.5231 236.775 96.2302 235.891 97.0552L233.475 99.3534H238.72V100.945H238.602Z" fill="#FF4200"/>
<path d="M242.904 100.945H241.902V96.2897H242.904V96.879C243.257 96.4076 243.787 96.1719 244.436 96.1719C244.789 96.1719 245.084 96.2308 245.379 96.4076C245.614 96.5844 245.791 96.7612 245.909 96.9969C246.086 96.7612 246.321 96.5255 246.616 96.4076C246.911 96.2897 247.264 96.1719 247.618 96.1719C248.148 96.1719 248.561 96.3487 248.855 96.6433C249.15 96.9379 249.268 97.4094 249.268 97.9987V100.886H248.266V98.2344C248.266 97.4683 247.971 97.1147 247.323 97.1147C247.087 97.1147 246.852 97.1737 246.616 97.3504C246.38 97.5272 246.204 97.704 246.145 97.8808V100.945H245.143V98.2933C245.143 97.5272 244.848 97.1737 244.2 97.1737C243.964 97.1737 243.729 97.2326 243.493 97.4094C243.257 97.5272 243.08 97.704 242.962 97.9397V100.945H242.904Z" fill="#FF4200"/>
<path d="M251.625 100.945H250.623V96.2897H251.625V96.879C251.979 96.4076 252.509 96.1719 253.157 96.1719C253.511 96.1719 253.805 96.2308 254.1 96.4076C254.336 96.5844 254.512 96.7612 254.63 96.9969C254.807 96.7612 255.043 96.5255 255.337 96.4076C255.632 96.2897 255.986 96.1719 256.339 96.1719C256.87 96.1719 257.282 96.3487 257.577 96.6433C257.871 96.9379 257.989 97.4094 257.989 97.9987V100.886H256.929V98.2344C256.929 97.4683 256.634 97.1147 255.986 97.1147C255.75 97.1147 255.514 97.1737 255.279 97.3504C255.043 97.5272 254.866 97.704 254.807 97.8808V100.945H253.805V98.2933C253.805 97.5272 253.511 97.1737 252.862 97.1737C252.627 97.1737 252.391 97.2326 252.155 97.4094C251.92 97.5272 251.743 97.704 251.625 97.9397V100.945Z" fill="#FF4200"/>
</g>
<defs>
<linearGradient id="paint0_linear_3569_14283" x1="270.486" y1="217.633" x2="69.2588" y2="70.4534" gradientUnits="userSpaceOnUse">
<stop offset="0.2655" stop-color="#032A3D" stop-opacity="0"/>
<stop offset="0.7809" stop-color="#032A3D"/>
</linearGradient>
<radialGradient id="paint1_radial_3569_14283" cx="0" cy="0" r="1" gradientUnits="userSpaceOnUse" gradientTransform="translate(165.553 210.011) scale(68.0667 67.7557)">
<stop offset="0.2655" stop-color="#032A3D" stop-opacity="0"/>
<stop offset="1" stop-color="#032A3D"/>
</radialGradient>
<linearGradient id="paint2_linear_3569_14283" x1="138.914" y1="102.474" x2="188.908" y2="298.729" gradientUnits="userSpaceOnUse">
<stop offset="0.4054" stop-color="#032A3D" stop-opacity="0"/>
<stop offset="1" stop-color="#032A3D"/>
</linearGradient>
<linearGradient id="paint3_linear_3569_14283" x1="102.865" y1="169.535" x2="234.365" y2="292.893" gradientUnits="userSpaceOnUse">
<stop offset="0.2655" stop-color="#032A3D" stop-opacity="0"/>
<stop offset="0.7809" stop-color="#032A3D"/>
</linearGradient>
<linearGradient id="paint4_linear_3569_14283" x1="109.997" y1="161.934" x2="241.497" y2="285.291" gradientUnits="userSpaceOnUse">
<stop offset="0.2655" stop-color="#032A3D" stop-opacity="0"/>
<stop offset="0.7809" stop-color="#032A3D"/>
</linearGradient>
<linearGradient id="paint5_linear_3569_14283" x1="107.451" y1="164.648" x2="238.951" y2="288.005" gradientUnits="userSpaceOnUse">
<stop offset="0.2655" stop-color="#032A3D" stop-opacity="0"/>
<stop offset="0.7809" stop-color="#032A3D"/>
</linearGradient>
<linearGradient id="paint6_linear_3569_14283" x1="82.4294" y1="191.321" x2="213.929" y2="314.678" gradientUnits="userSpaceOnUse">
<stop offset="0.2655" stop-color="#032A3D" stop-opacity="0"/>
<stop offset="0.7809" stop-color="#032A3D"/>
</linearGradient>
<linearGradient id="paint7_linear_3569_14283" x1="101.091" y1="171.428" x2="232.59" y2="294.785" gradientUnits="userSpaceOnUse">
<stop offset="0.2655" stop-color="#032A3D" stop-opacity="0"/>
<stop offset="0.7809" stop-color="#032A3D"/>
</linearGradient>
<linearGradient id="paint8_linear_3569_14283" x1="90.888" y1="182.304" x2="222.388" y2="305.662" gradientUnits="userSpaceOnUse">
<stop offset="0.2655" stop-color="#032A3D" stop-opacity="0"/>
<stop offset="0.7809" stop-color="#032A3D"/>
</linearGradient>
<linearGradient id="paint9_linear_3569_14283" x1="72.2535" y1="202.168" x2="203.753" y2="325.525" gradientUnits="userSpaceOnUse">
<stop offset="0.2655" stop-color="#032A3D" stop-opacity="0"/>
<stop offset="0.7809" stop-color="#032A3D"/>
</linearGradient>
<linearGradient id="paint10_linear_3569_14283" x1="75.4136" y1="198.8" x2="206.913" y2="322.157" gradientUnits="userSpaceOnUse">
<stop offset="0.2655" stop-color="#032A3D" stop-opacity="0"/>
<stop offset="0.7809" stop-color="#032A3D"/>
</linearGradient>
<linearGradient id="paint11_linear_3569_14283" x1="85.5797" y1="187.963" x2="217.079" y2="311.32" gradientUnits="userSpaceOnUse">
<stop offset="0.2655" stop-color="#032A3D" stop-opacity="0"/>
<stop offset="0.7809" stop-color="#032A3D"/>
</linearGradient>
<linearGradient id="paint12_linear_3569_14283" x1="72.245" y1="202.177" x2="203.745" y2="325.535" gradientUnits="userSpaceOnUse">
<stop offset="0.2655" stop-color="#032A3D" stop-opacity="0"/>
<stop offset="0.7809" stop-color="#032A3D"/>
</linearGradient>
<clipPath id="clip0_3569_14283">
<rect width="330" height="330" fill="white"/>
</clipPath>
</defs>
</svg>
