<svg width="330" height="330" viewBox="0 0 330 330" fill="none" xmlns="http://www.w3.org/2000/svg">
<g clip-path="url(#clip0_3632_75338)">
<path d="M58.7603 109.021V220.867H73.6167V217.434H103.662V111.79H73.6167V109.021H58.7603Z" fill="white"/>
<path d="M103.884 111.901V217.545C103.884 217.766 103.717 218.265 103.496 218.265H74.2264V220.646C74.2264 220.867 73.8938 221.144 73.5612 221.144H58.4277C58.2059 221.144 57.9288 220.922 57.9288 220.646V108.855C57.9288 108.634 58.1505 108.634 58.4277 108.634H73.5612C73.783 108.634 74.2264 108.634 74.2264 108.855V111.624H103.496C103.662 111.624 103.884 111.679 103.884 111.901ZM103.052 217.268V112.62H73.5058C73.2841 112.62 73.1732 112.233 73.1732 111.901V109.187H58.9266V220.258H73.1732V217.545C73.1732 217.323 73.2841 217.268 73.5058 217.268H103.052Z" fill="#323A50"/>
<path d="M103.219 115.334H58.3723V213.67H103.219V115.334Z" fill="white"/>
<path d="M103.717 115.334V213.669C103.717 213.891 103.551 214.057 103.329 214.057H58.4277C58.206 214.057 58.0397 213.891 58.0397 213.669V115.334C58.0397 115.112 58.206 114.946 58.4277 114.946H103.274C103.496 114.946 103.717 115.112 103.717 115.334ZM102.831 213.282V115.832H58.8158V213.282H102.831Z" fill="#323A50"/>
<path d="M140.415 125.854L140.692 203.204L86.3111 209.627L86.3665 119.486L140.415 125.854Z" fill="white"/>
<path d="M141.191 203.205C141.191 203.426 141.025 203.592 140.858 203.592L86.422 210.015C86.3111 210.015 86.2003 210.015 86.0894 209.904C85.9785 209.849 85.9785 209.738 85.9785 209.628L86.0339 119.376C86.0339 119.265 86.0894 119.154 86.1448 119.099C86.2557 119.044 86.3666 118.988 86.4774 118.988L140.526 125.466C140.748 125.466 140.858 125.688 140.858 125.854L141.191 203.205ZM86.7546 209.185L140.304 202.817L140.027 126.242L86.8655 119.874L86.7546 209.185Z" fill="#323A50"/>
<path d="M132.543 136.54V192.131L108.596 204.312V124.304L132.543 136.54Z" fill="white"/>
<path d="M132.987 136.54V192.075C132.987 192.241 132.876 192.352 132.765 192.463L108.762 204.644C108.651 204.699 108.485 204.699 108.374 204.644C108.263 204.589 108.208 204.423 108.208 204.312V124.303C108.208 124.137 108.263 124.027 108.374 123.971C108.485 123.916 108.651 123.916 108.762 123.971L132.71 136.208C132.876 136.263 132.987 136.429 132.987 136.54ZM132.1 191.854V136.817L108.984 124.968V203.537L132.1 191.854Z" fill="#323A50"/>
<path d="M139.14 200.99C139.14 201.211 138.974 201.377 138.807 201.377L86.4774 207.634C86.2557 207.634 85.9785 207.523 85.9785 207.302C85.9785 207.08 86.0894 206.803 86.3111 206.803L138.641 200.547C138.807 200.491 139.085 200.657 139.14 200.99Z" fill="#323A50"/>
<path d="M139.029 127.903C139.029 128.18 138.807 128.401 138.53 128.291L86.4774 122.089C86.2556 122.089 86.0893 121.868 86.1448 121.591C86.1448 121.37 86.3665 121.203 86.6437 121.259L138.696 127.46C138.807 127.46 139.029 127.626 139.029 127.903Z" fill="#323A50"/>
<path d="M93.8502 122.587C99.8371 167.27 93.8502 206.306 93.8502 206.306L91.023 206.638C87.0317 163.727 91.1339 122.311 91.1339 122.311L93.8502 122.587Z" fill="white"/>
<path d="M97.0099 164.17C97.0099 188.698 94.349 206.14 94.349 206.361C94.349 206.527 94.1827 206.693 94.0164 206.693L91.1893 207.026C91.0784 207.026 90.9676 207.026 90.9121 206.915C90.8013 206.859 90.7458 206.749 90.7458 206.638C89.5817 194.18 88.9719 180.559 88.9719 166.329C88.9719 141.247 90.8013 122.422 90.8567 122.2C90.8567 122.089 90.9121 121.979 91.023 121.923C91.1339 121.868 91.1893 121.812 91.3002 121.812L94.0164 122.089C94.1827 122.089 94.349 122.255 94.349 122.422C96.1229 135.71 97.0099 149.719 97.0099 164.17ZM93.5175 205.863C93.8501 203.316 96.1229 186.816 96.1229 164.115C96.1229 149.885 95.236 135.987 93.4621 122.92L91.5219 122.698C91.2447 125.688 89.6926 143.351 89.6926 166.274C89.6926 180.338 90.3023 193.737 91.411 206.084L93.5175 205.863Z" fill="#323A50"/>
<path d="M92.7415 174.025C92.7415 174.136 92.6861 174.246 92.6306 174.302C92.4643 174.468 92.2426 174.468 91.9654 174.302L89.1383 171.533C88.972 171.367 88.972 171.146 89.1383 170.869C89.3046 170.703 89.5263 170.703 89.8035 170.869L92.6306 173.637C92.6861 173.803 92.7415 173.914 92.7415 174.025Z" fill="#323A50"/>
<path d="M95.5132 174.911C95.5132 175.021 95.4578 175.132 95.4023 175.188C95.236 175.354 95.0143 175.354 94.7371 175.188L89.1383 169.706C88.972 169.54 88.972 169.318 89.1383 169.042C89.3046 168.875 89.5263 168.875 89.8035 169.042L95.4023 174.523C95.4578 174.689 95.5132 174.8 95.5132 174.911Z" fill="#323A50"/>
<path d="M94.848 158.3C94.848 158.411 94.7925 158.521 94.7371 158.577C94.5708 158.743 94.349 158.743 94.0719 158.577L89.3045 153.926C89.1382 153.76 89.1382 153.538 89.3045 153.261C89.4708 153.095 89.6926 153.095 89.9697 153.261L94.7371 157.912C94.848 158.078 94.848 158.134 94.848 158.3Z" fill="#323A50"/>
<path d="M93.0187 158.411C93.0187 158.522 92.9632 158.632 92.9078 158.688C92.7415 158.854 92.5198 158.854 92.2426 158.688L89.1937 155.643C89.0274 155.476 89.0274 155.255 89.1937 154.978C89.36 154.812 89.5817 154.812 89.8589 154.978L92.9078 158.023C93.0187 158.19 93.0187 158.3 93.0187 158.411Z" fill="#323A50"/>
<path d="M156.99 110.682C150.504 116.939 150.615 116.994 147.455 119.818C141.579 125.078 121.9 140.692 121.678 164.335V164.612C121.844 188.255 141.524 203.924 147.455 209.129C150.781 212.063 150.67 212.008 157.821 218.874C172.789 235.54 194.463 246.005 218.633 246.005C253.778 246.005 283.602 223.857 295.243 192.85C295.298 192.85 295.409 192.518 295.464 192.518C296.296 190.525 298.513 183.936 299.289 178.122C300.01 173.803 300.343 168.875 300.343 164.39C300.343 119.32 263.756 82.7764 218.633 82.7764C193.909 82.7764 171.957 93.6287 156.99 110.682Z" fill="white"/>
<path d="M300.62 164.446C300.62 169.097 300.287 174.08 299.567 178.233C298.791 184.047 296.629 190.58 295.742 192.684L295.631 192.906H295.575C295.575 192.961 295.52 193.016 295.464 193.072C289.699 208.575 279.444 221.808 265.863 231.387C251.949 241.243 235.596 246.392 218.522 246.392C206.659 246.392 195.184 243.901 184.541 239.028C174.23 234.322 165.083 227.622 157.489 219.151C156.435 218.099 155.493 217.268 154.717 216.493C150.282 212.174 149.95 211.897 147.178 209.406C146.901 209.129 146.457 208.797 146.069 208.464C142.688 205.585 136.479 200.104 131.157 192.74C124.672 183.714 121.401 174.246 121.235 164.612V164.391C121.29 154.756 124.672 145.288 131.157 136.263C136.479 128.899 142.688 123.417 146.069 120.538C146.457 120.206 146.845 119.874 147.178 119.597C149.284 117.714 150.005 117.05 152.001 115.057C153.054 114.06 154.495 112.565 156.657 110.516C164.252 101.824 173.454 94.9024 183.931 90.0299C194.796 85.0467 206.382 82.4443 218.466 82.4443C229.553 82.4443 240.307 84.6037 250.396 88.8672C260.153 92.9645 268.967 98.9443 276.506 106.475C284.045 114.005 289.976 122.753 294.134 132.553C298.458 142.575 300.62 153.372 300.62 164.446ZM295.021 192.352C295.797 190.47 298.014 183.881 298.791 178.178C299.456 174.136 299.844 169.097 299.844 164.501C299.844 119.708 263.368 83.2749 218.522 83.2749C195.073 83.2749 172.733 93.4074 157.322 111.07C155.16 113.174 153.664 114.614 152.666 115.61C150.615 117.604 149.894 118.324 147.788 120.206C147.511 120.483 147.067 120.815 146.679 121.147C140.027 126.906 122.343 142.243 122.177 164.391V164.612C122.343 186.815 140.027 202.097 146.679 207.855C147.067 208.188 147.455 208.52 147.788 208.797C150.615 211.288 150.947 211.621 155.382 215.939C156.158 216.714 157.101 217.6 158.154 218.652C173.509 235.761 195.572 245.617 218.633 245.617C252.392 245.617 283.047 224.355 294.799 192.74L294.855 192.518H294.91C294.91 192.463 294.966 192.407 295.021 192.352Z" fill="#323A50"/>
<path d="M301.008 164.447C301.008 175.521 298.846 186.317 294.522 196.45C290.42 206.195 284.433 215.054 276.894 222.584C269.355 230.114 260.485 236.039 250.729 240.192C240.585 244.51 229.83 246.67 218.688 246.67C206.77 246.67 195.295 244.178 184.596 239.306C174.23 234.599 165.083 227.9 157.433 219.373C150.726 212.839 150.338 212.618 147.455 210.071L146.956 209.683C146.624 209.406 146.18 209.019 145.792 208.687C142.133 205.586 136.146 200.326 130.769 192.906C124.284 183.881 120.902 174.413 120.847 164.724V164.502C120.902 154.868 124.284 145.289 130.769 136.319C136.091 128.955 142.133 123.64 145.792 120.539C146.18 120.207 146.624 119.819 146.956 119.542C150.116 116.718 150.282 116.663 156.602 110.462C164.252 101.769 173.454 94.8477 183.986 89.9752C194.907 84.992 206.493 82.3896 218.577 82.3896C229.664 82.3896 240.474 84.549 250.618 88.8678C260.375 92.9651 269.244 98.945 276.783 106.475C284.322 114.005 290.254 122.864 294.411 132.609C298.791 142.521 301.008 153.318 301.008 164.447ZM122.122 164.391V164.613C122.288 186.65 139.971 201.876 146.624 207.635C147.012 207.967 147.455 208.354 147.788 208.687L148.287 209.074C151.114 211.621 151.446 211.898 158.32 218.432V218.487C173.675 235.541 195.738 245.396 218.743 245.396C263.479 245.396 299.899 209.074 299.899 164.336C299.899 119.598 263.534 83.2755 218.743 83.2755C195.35 83.2755 173.066 93.3527 157.655 111.015L157.6 111.071C151.114 117.328 151.058 117.383 147.843 120.207C147.51 120.484 147.067 120.871 146.679 121.259C139.971 127.128 122.288 142.354 122.122 164.391Z" fill="#323A50"/>
<path opacity="0.83" d="M157.544 120.981C155.438 118.988 153.387 118.379 150.005 121.313C144.295 126.352 125.115 141.523 124.893 164.391V164.612C125.06 187.535 144.24 202.651 149.95 207.689C153.387 210.679 155.826 209.129 157.267 208.464C160.926 206.526 161.646 203.703 161.092 202.927C157.766 197.557 149.229 194.844 147.233 188.808C147.178 188.642 142.965 179.839 142.854 165.221C142.854 165.166 142.799 155.255 145.681 145.897C148.065 137.26 157.211 131.778 160.593 126.352C161.757 124.691 159.207 122.587 157.544 120.981Z" fill="url(#paint0_linear_3632_75338)"/>
<path d="M293.303 164.668C293.303 206.084 259.709 239.638 218.245 239.638C193.854 239.638 172.179 228.01 158.431 209.96" fill="white"/>
<path d="M293.691 164.723C293.691 174.966 291.695 184.767 287.815 194.069C284.045 203.094 278.557 211.067 271.683 218.044C264.754 224.965 256.716 230.391 247.68 234.156C238.367 238.087 228.444 240.025 218.3 240.025C206.271 240.025 194.851 237.312 184.208 231.886C174.063 226.792 165.083 219.206 158.154 210.181L158.819 209.683C173.066 228.398 194.74 239.195 218.355 239.195C259.543 239.195 293.081 205.696 293.081 164.612L293.691 164.723Z" fill="#323A50"/>
<path d="M218.189 233.491C256.244 233.491 287.094 202.678 287.094 164.668C287.094 126.657 256.244 95.8438 218.189 95.8438C180.134 95.8438 149.284 126.657 149.284 164.668C149.284 202.678 180.134 233.491 218.189 233.491Z" fill="white"/>
<path d="M287.371 164.668C287.371 183.161 280.165 200.437 267.082 213.504C254 226.571 236.593 233.769 218.189 233.769C199.674 233.769 182.379 226.571 169.296 213.504C156.214 200.437 149.007 183.051 149.007 164.668C149.007 146.285 156.214 128.9 169.296 115.832C182.379 102.765 199.785 95.5674 218.189 95.5674C236.704 95.5674 254 102.765 267.082 115.832C280.22 128.9 287.371 146.23 287.371 164.668ZM149.617 164.668C149.617 202.43 180.383 233.16 218.189 233.16C255.995 233.16 286.761 202.43 286.761 164.668C286.761 126.906 255.995 96.1764 218.189 96.1764C180.383 96.2318 149.617 126.962 149.617 164.668Z" fill="#323A50"/>
<g opacity="0.1">
<path d="M245.685 104.869L245.629 105.367C248.013 105.644 251.117 112.455 251.339 113.894C251.45 114.503 251.283 114.836 251.173 115.168C251.006 115.721 250.785 116.164 251.283 117.05C252.226 118.601 257.936 123.805 260.763 125.024C263.59 126.131 265.142 126.906 266.195 129.564C266.805 131.003 266.805 133.218 266.805 135.488C266.805 137.592 266.805 139.862 267.304 141.524C268.025 144.07 269.133 146.507 269.798 147.725C269.078 147.06 268.357 146.507 267.692 145.898C266.472 144.846 265.308 143.96 264.92 143.295C264.31 142.52 264.089 139.752 263.756 136.873C263.368 132.997 262.869 128.512 261.594 127.183C260.097 125.633 254.609 123.418 250.119 121.646C247.736 120.705 245.685 119.874 244.853 119.431C243.966 118.878 243.024 117.438 241.97 115.888C240.197 113.23 238.201 110.24 235.762 110.295V110.794C237.924 110.738 239.809 113.617 241.527 116.22C242.636 117.936 243.578 119.32 244.576 119.93C245.463 120.483 247.458 121.203 249.898 122.144C254.332 123.916 259.82 126.076 261.206 127.57C261.705 128.124 262.093 129.121 262.315 130.394C261.816 129.564 261.151 128.567 260.264 127.792C258.656 126.518 254.776 125.411 252.725 124.857C252.392 124.747 252.06 124.691 251.838 124.636C251.173 124.47 250.785 124.691 250.341 124.913C249.953 125.19 249.399 125.522 248.29 125.245C247.07 125.024 246.516 124.304 245.906 123.529C245.574 122.975 245.13 122.477 244.576 122.034C242.968 121.092 241.416 121.701 240.585 121.978H240.529C239.919 122.2 239.975 122.753 239.975 123.086C240.03 123.418 240.03 123.75 239.809 123.861C239.587 123.972 239.088 123.695 238.644 123.307C237.924 122.809 237.148 122.255 236.427 122.587L236.593 122.975C237.148 122.753 237.757 123.196 238.367 123.639C239.032 124.027 239.531 124.47 240.086 124.193C240.64 123.916 240.474 123.362 240.474 123.03C240.418 122.643 240.418 122.421 240.64 122.31H240.696C241.527 122.034 242.913 121.48 244.299 122.31C244.853 122.643 245.186 123.141 245.518 123.584C246.128 124.414 246.682 125.245 248.179 125.466C249.454 125.688 250.119 125.356 250.618 125.079C250.951 124.857 251.228 124.747 251.671 124.857C251.838 124.913 252.226 124.968 252.558 125.079C254.443 125.633 258.379 126.685 259.931 127.903C261.65 129.232 262.592 131.723 262.647 131.889C262.869 133.44 263.035 135.101 263.257 136.706C263.59 139.752 263.922 142.409 264.477 143.295C264.976 143.96 266.084 144.901 267.304 145.953C269.798 148.057 273.125 150.881 273.014 152.874C272.958 153.871 272.736 154.978 272.459 156.252C271.96 158.633 271.406 161.29 271.905 164.225C273.014 170.149 274.178 172.253 275.619 173.416C276.949 174.523 278.668 175.188 278.723 175.188L278.89 174.8C278.89 174.8 277.171 174.191 275.896 173.084C274.621 171.977 273.457 170.039 272.348 164.169C271.794 161.346 272.348 158.743 272.903 156.418C273.125 155.255 273.402 154.037 273.513 152.985C273.623 151.49 272.182 149.774 270.408 148.057L270.575 148.002C270.575 147.946 268.69 144.624 267.803 141.247C267.415 139.586 267.415 137.426 267.415 135.378C267.415 132.997 267.415 130.782 266.805 129.232C265.696 126.408 264.033 125.577 261.151 124.47C258.49 123.362 252.78 118.158 251.893 116.774C251.505 116.054 251.616 115.721 251.782 115.223C251.949 114.891 252.115 114.393 252.004 113.673C251.561 112.178 248.235 105.201 245.685 104.869Z" fill="#323A50"/>
<path d="M256.494 159.85C257.326 160.626 258.656 160.515 260.264 160.404C261.816 160.293 263.424 160.127 264.865 160.736C267.637 162.01 269.743 168.045 269.743 168.1L270.131 167.99C270.076 167.768 267.969 161.788 265.031 160.404C263.479 159.684 261.705 159.795 260.208 160.016C258.712 160.127 257.437 160.238 256.771 159.629C256.051 158.909 255.552 156.473 254.998 154.203C254.388 151.656 253.944 149.496 253.168 148.887C252.448 148.334 251.838 148.223 251.228 148.167C250.563 148.057 250.119 148.001 249.676 147.392C249.51 147.115 249.565 145.565 249.676 143.959C249.898 139.475 250.341 132.719 246.96 130.283C244.299 128.345 242.359 129.01 240.585 129.563C239.254 130.062 237.979 130.449 236.593 129.563C235.485 128.899 235.041 127.736 234.653 126.407C233.822 123.805 232.768 120.594 226.061 118.434C224.453 117.936 222.901 118.213 221.294 118.434C219.242 118.711 217.302 119.099 215.473 117.825L215.251 118.157C217.247 119.486 219.353 119.154 221.46 118.877C223.067 118.656 224.509 118.379 226.005 118.877C232.491 120.87 233.489 123.971 234.321 126.463C234.819 127.958 235.207 129.176 236.482 129.951C238.146 130.892 239.531 130.449 240.917 129.951C242.636 129.342 244.41 128.844 246.793 130.615C249.898 132.886 249.565 139.807 249.343 143.849C249.288 145.454 249.232 146.451 249.288 147.005C248.623 146.783 247.736 146.617 246.738 146.396C244.964 146.119 242.968 145.731 241.915 144.735C241.361 144.181 241.139 143.516 240.862 142.575C240.197 140.305 239.254 137.149 232.824 134.602H232.768C230.551 134.104 228.999 134.657 228.056 135.211C227.668 135.433 227.391 135.931 227.225 136.318C227.003 136.872 226.671 137.426 226.061 137.924C224.897 138.755 218.023 139.032 216.748 138.81C216.637 138.81 216.582 138.755 216.582 138.755C216.526 138.699 216.637 138.423 216.692 138.146C216.914 137.426 217.413 136.263 216.36 134.768L216.027 134.99C216.97 136.208 216.637 137.204 216.304 137.924C216.194 138.256 216.083 138.644 216.194 138.865C216.249 138.976 216.415 139.087 216.692 139.142C217.967 139.364 224.952 139.142 226.338 138.201C227.114 137.647 227.447 136.983 227.668 136.429C227.835 136.042 228.001 135.654 228.334 135.488C229.165 134.99 230.606 134.547 232.713 134.934C238.922 137.37 239.809 140.36 240.418 142.52C240.695 143.516 240.973 144.347 241.582 144.956C242.747 146.063 244.908 146.451 246.682 146.728C247.847 146.894 249.066 147.115 249.51 147.503C250.008 148.167 250.618 148.278 251.283 148.389C251.893 148.5 252.392 148.555 253.002 149.053C253.667 149.552 254.166 151.933 254.665 154.037C255.219 156.694 255.718 159.075 256.494 159.85Z" fill="#323A50"/>
<path d="M210.428 159.131C211.094 158.521 211.537 158.079 212.978 158.355C213.921 158.521 215.251 159.075 216.692 159.573C219.242 160.57 221.792 161.567 223.012 161.124C223.622 160.902 224.01 160.515 224.342 160.183C225.174 159.463 226.061 158.688 228.722 159.131C230.828 159.407 232.436 160.57 233.711 161.511C234.819 162.287 235.817 163.006 236.815 162.84C237.591 162.785 238.035 162.342 238.589 161.954C239.476 161.235 240.418 160.459 242.691 161.456C244.465 162.231 244.908 163.283 245.297 164.114C245.685 165 246.073 165.83 247.791 165.553C249.62 165.277 250.785 164.058 251.893 163.006C252.725 162.176 253.612 161.345 254.665 160.847L254.499 160.459C253.334 161.068 252.448 161.899 251.561 162.674C250.452 163.782 249.399 164.834 247.68 165.11C246.35 165.332 246.073 164.889 245.74 164.003C245.407 163.117 244.853 161.954 242.913 161.124C240.307 160.072 239.254 160.902 238.312 161.733C237.757 162.12 237.369 162.508 236.76 162.563C235.984 162.619 235.097 162.01 233.988 161.29C232.658 160.349 230.994 159.241 228.722 158.854C225.895 158.466 224.897 159.241 224.01 160.016C223.677 160.349 223.234 160.681 222.79 160.847C221.792 161.235 219.132 160.183 216.859 159.297C215.417 158.688 214.087 158.245 213.089 158.023C211.426 157.691 210.872 158.245 210.151 158.909C209.763 159.297 209.264 159.795 208.377 159.961L208.488 160.349C209.431 160.127 209.929 159.629 210.428 159.131Z" fill="#323A50"/>
<path d="M273.457 156.86C272.681 158.466 272.348 162.397 272.792 164.833C273.18 167.214 274.122 171.256 275.841 172.862C276.839 173.748 278.723 174.634 278.834 174.634L279.001 174.246C279.001 174.246 277.06 173.416 276.118 172.53C274.399 170.979 273.513 166.605 273.18 164.778C272.681 162.176 273.18 158.466 273.845 157.137C274.566 155.642 275.619 155.199 276.118 155.144C277.781 154.978 279.167 157.635 279.167 157.691L279.555 157.525C279.499 157.414 277.947 154.535 276.007 154.756C275.342 154.646 274.178 155.31 273.457 156.86Z" fill="#323A50"/>
<path d="M245.241 155.642C245.518 154.812 245.906 153.981 246.682 153.538C247.569 152.874 249.787 151.656 251.782 153.372C252.614 154.092 253.279 155.864 253.833 157.47C254.443 159.131 254.997 160.681 255.774 161.179C256.605 161.733 257.936 161.567 259.599 161.456C261.095 161.345 262.537 161.29 263.701 161.567C266.14 162.287 268.967 168.267 269.022 168.322L269.41 168.156C269.3 167.934 266.472 161.899 263.812 161.179C262.592 160.847 260.929 160.958 259.488 161.069C257.991 161.179 256.605 161.235 255.94 160.847C255.275 160.46 254.776 158.854 254.166 157.303C253.501 155.532 252.891 153.76 252.004 152.985C250.396 151.656 248.345 151.711 246.294 153.151C245.463 153.76 245.075 154.701 244.742 155.532C244.41 156.362 244.077 157.137 243.412 157.47C241.86 158.189 240.252 157.636 239.587 156.694C239.42 156.473 239.31 156.141 239.088 155.919C238.534 155.089 238.09 154.203 236.981 153.151C235.429 151.711 229.331 149.164 226.393 148.666C224.62 148.389 223.843 148.832 223.012 149.386C222.347 149.773 221.737 150.216 220.462 150.327L220.517 150.825C221.848 150.715 222.568 150.216 223.289 149.829C224.065 149.33 224.786 148.943 226.283 149.164C229.165 149.663 235.263 152.154 236.649 153.538C237.702 154.535 238.256 155.366 238.7 156.196C238.866 156.418 238.977 156.75 239.199 156.971C239.919 158.079 241.86 158.743 243.633 157.912C244.52 157.414 244.908 156.528 245.241 155.642Z" fill="#323A50"/>
</g>
<g opacity="0.1">
<path d="M271.683 175.52C270.464 175.686 269.521 177.126 268.523 178.51C267.747 179.618 266.805 181.279 265.973 182.774C265.253 184.047 264.643 185.21 264.255 185.653C264.2 185.764 264.033 185.874 263.922 185.985C262.814 186.705 260.097 187.203 257.991 187.037C256.771 186.982 255.829 187.092 255.053 187.148C254.221 187.259 253.612 187.314 253.113 187.092C252.725 186.926 252.614 186.594 252.558 186.151C252.503 185.653 252.392 185.099 251.616 184.822C250.951 184.601 250.286 184.712 249.565 184.767C248.844 184.878 248.29 184.933 247.846 184.656C247.514 184.379 247.292 184.047 247.181 183.715C247.015 183.327 246.849 182.829 246.239 182.497C245.685 182.165 245.075 182.608 244.188 183.217C242.968 184.103 241.25 185.265 239.143 184.767C236.87 184.213 236.981 183.549 237.092 182.552C237.148 182.054 237.259 181.556 237.037 180.946C236.704 180.005 234.653 179.175 232.547 178.289C230.884 177.569 229.165 176.96 228.777 176.295C228.223 175.576 228.112 175.022 228.001 174.413C227.89 173.804 227.835 173.306 227.225 172.863C226.56 172.309 225.673 172.641 224.952 172.863C224.453 172.973 224.01 173.139 223.788 173.029L223.566 173.361C223.899 173.527 224.453 173.416 225.118 173.25C225.784 173.084 226.56 172.863 227.003 173.195C227.391 173.472 227.502 173.915 227.613 174.413C227.724 175.022 227.835 175.631 228.444 176.462C228.999 177.181 230.606 177.901 232.436 178.566C234.32 179.341 236.372 180.227 236.704 181.002C236.87 181.5 236.815 181.943 236.76 182.331C236.649 183.327 236.482 184.379 239.199 185.044C241.582 185.597 243.301 184.324 244.631 183.438C245.352 182.94 245.906 182.552 246.239 182.718C246.738 182.995 246.849 183.383 247.015 183.77C247.126 184.103 247.292 184.601 247.846 184.933C248.456 185.321 249.121 185.21 249.897 185.099C250.563 184.988 251.172 184.933 251.727 185.099C252.281 185.265 252.337 185.708 252.392 186.096C252.447 186.483 252.503 187.092 253.224 187.369C253.889 187.591 254.499 187.535 255.386 187.425C256.162 187.314 257.049 187.259 258.213 187.314C259.488 187.425 261.151 187.259 262.592 186.926C260.984 187.923 258.49 189.196 255.995 189.418C253.944 189.584 253.224 189.196 252.115 188.643C251.117 188.089 249.731 187.48 246.904 186.926C242.802 186.207 238.922 187.978 236.926 189.196C236.593 189.086 233.822 188.255 233.045 186.151L232.713 185.099C231.992 183.051 231.382 181.279 230.884 180.337C230.218 179.119 228.167 178.178 226.892 177.901C226.116 177.79 225.673 178.123 225.229 178.51C224.897 178.787 224.453 179.119 223.899 179.119C223.345 179.064 222.901 178.289 222.291 177.403C221.46 176.185 220.406 174.579 218.688 173.97C216.637 173.195 215.695 173.97 214.863 174.634C214.475 174.911 214.087 175.299 213.644 175.41L213.754 175.797C214.364 175.686 214.752 175.243 215.251 174.967C216.083 174.302 216.803 173.748 218.633 174.358C220.24 174.967 221.238 176.406 222.014 177.68C222.735 178.676 223.178 179.507 223.954 179.562C224.786 179.618 225.174 179.285 225.673 178.898C226.005 178.621 226.393 178.289 226.948 178.399C228.278 178.621 230.107 179.562 230.662 180.559C231.161 181.5 231.771 183.327 232.491 185.265L232.824 186.317C233.544 188.311 235.706 189.196 236.649 189.529C236.039 189.861 235.706 190.193 235.706 190.248C235.651 190.304 231.881 194.401 228.999 196.228C226.116 198.111 223.677 198.056 222.846 197.059C222.347 196.505 222.291 195.453 222.236 194.235C222.18 193.128 222.125 191.799 221.681 190.636C221.016 188.864 218.577 187.646 217.801 187.259C216.748 186.705 215.196 186.262 214.475 186.539C213.2 187.037 212.757 188.975 212.757 189.03L213.145 189.086C213.145 189.086 213.477 187.314 214.586 186.926C214.974 186.816 216.138 186.982 217.524 187.646C219.021 188.311 220.684 189.473 221.183 190.691C221.571 191.743 221.571 193.072 221.737 194.124C221.792 195.398 221.848 196.561 222.402 197.17C223.345 198.277 225.894 198.498 229.11 196.394C231.937 194.567 235.651 190.581 235.873 190.359C236.15 190.138 241.25 186.262 246.904 187.203C249.731 187.702 250.951 188.311 251.949 188.864C252.17 188.975 252.447 189.086 252.669 189.196C251.339 189.75 250.452 189.695 249.787 189.584C248.844 189.529 248.29 189.584 247.569 190.802C246.571 192.463 246.35 195.73 246.239 197.889C246.183 198.775 246.128 199.495 246.073 199.827C245.795 201.156 245.13 201.876 243.966 202.264C242.968 202.54 242.691 202.319 242.137 201.931C242.026 201.821 241.86 201.71 241.638 201.599C241.416 201.433 241.25 201.045 240.973 200.713C240.474 199.883 239.864 198.775 238.256 198.886C236.815 198.941 236.372 199.827 235.873 200.769C235.595 201.433 235.207 201.987 234.598 202.54C232.935 203.759 228.223 205.198 225.673 205.475C222.79 205.752 217.413 205.254 217.136 204.755C217.08 204.589 217.413 203.814 217.746 203.205C218.3 202.098 218.91 200.713 218.688 199.772C218.633 199.606 218.633 199.495 218.577 199.384C218.3 198.222 218.189 198.056 216.97 198.166C216.083 198.222 215.972 198.886 215.916 199.384C215.861 199.717 215.805 200.104 215.584 200.326C214.974 200.824 212.812 200.603 211.98 200.547L211.925 200.935C212.202 200.99 214.974 201.267 215.861 200.658C216.249 200.381 216.36 199.827 216.415 199.495C216.526 198.886 216.582 198.665 217.08 198.609C217.579 198.554 217.801 198.554 217.912 198.665C218.023 198.775 218.078 198.997 218.189 199.551C218.245 199.661 218.245 199.827 218.3 199.938C218.466 200.769 217.912 202.042 217.413 203.039C216.914 203.98 216.692 204.589 216.803 204.921C217.136 205.863 223.622 206.139 225.839 205.918C228.5 205.696 233.267 204.202 234.986 202.928C235.706 202.374 236.094 201.71 236.482 201.045C236.981 200.16 237.314 199.44 238.478 199.384C239.753 199.329 240.307 200.16 240.862 200.99C241.083 201.378 241.361 201.765 241.638 201.987C241.804 202.097 241.915 202.208 242.137 202.319C242.691 202.707 243.135 203.15 244.354 202.817C245.684 202.43 246.405 201.599 246.849 200.104C246.904 199.827 246.959 199.384 246.959 198.831C247.181 199.163 247.181 199.551 247.181 199.938C247.181 200.326 247.126 200.824 247.458 201.267C248.013 202.042 248.9 201.544 249.454 201.212C249.731 201.101 250.064 200.935 250.23 200.935C250.341 200.935 250.452 200.99 250.563 201.101C250.729 201.322 250.784 201.821 250.729 202.43C250.618 203.15 249.565 204.091 248.9 204.644C248.678 204.866 248.512 205.032 248.345 205.198C248.179 205.42 248.179 205.807 248.234 206.084C248.29 206.416 248.29 206.859 248.068 207.191C247.957 207.358 247.736 207.468 247.403 207.524C246.849 207.579 246.294 207.358 246.183 207.247C246.128 207.191 246.128 207.025 246.128 206.748C246.128 206.472 246.128 206.084 245.906 205.807C245.574 205.309 244.853 205.143 243.855 205.198C243.245 205.254 243.245 205.752 243.245 206.139C243.245 206.638 243.19 207.136 242.525 207.358C242.026 207.524 241.582 207.302 240.973 206.97C240.086 206.416 238.977 205.863 237.369 206.748C235.429 207.801 235.651 208.908 235.762 209.794C235.817 210.071 235.873 210.403 235.817 210.569C235.762 210.735 235.651 210.846 235.595 210.846C235.429 210.901 235.263 210.79 235.207 210.735L234.986 211.067C235.041 211.067 235.374 211.344 235.817 211.233C236.039 211.178 236.205 211.012 236.427 210.624C236.538 210.347 236.482 209.96 236.427 209.628C236.316 208.853 236.15 207.911 237.757 207.025C239.199 206.25 240.03 206.804 240.917 207.247C241.582 207.579 242.137 207.967 242.802 207.634C243.744 207.302 243.744 206.527 243.744 205.973C243.744 205.475 243.8 205.42 243.911 205.42C244.742 205.364 245.241 205.475 245.574 205.807C245.685 205.973 245.685 206.195 245.685 206.472C245.685 206.748 245.685 207.081 245.906 207.302C246.128 207.524 246.849 207.856 247.569 207.69C247.957 207.634 248.345 207.468 248.567 207.136C248.9 206.582 248.844 206.139 248.844 205.696C248.844 205.42 248.789 205.198 248.9 205.087C248.955 204.977 249.177 204.866 249.454 204.589C250.175 203.925 251.283 202.928 251.394 202.042C251.394 202.042 251.394 202.042 251.394 201.987C251.505 201.212 251.394 200.713 251.117 200.326C250.951 200.16 250.729 200.049 250.396 200.049C250.064 200.049 249.787 200.215 249.454 200.381C248.733 200.713 248.29 200.99 247.957 200.547C247.736 200.27 247.736 199.883 247.736 199.495C247.736 198.941 247.791 198.332 247.07 197.779C247.07 197.723 247.07 197.668 247.07 197.668C247.181 195.564 247.348 192.353 248.345 190.802C249.066 189.695 249.399 189.75 250.175 189.75C250.951 189.806 251.949 189.861 253.667 189.086C254.388 189.307 255.219 189.418 256.494 189.307C260.541 189.03 264.698 185.819 264.976 185.653C265.142 185.542 265.308 185.376 265.475 185.265C265.807 184.767 266.472 183.66 267.248 182.331C268.08 180.836 269.022 179.23 269.798 178.067C270.685 176.794 271.628 175.41 272.681 175.243C273.18 175.188 273.623 175.299 274.233 175.797C276.284 177.348 283.546 179.341 283.768 179.341L283.823 178.953C283.435 178.898 276.395 176.96 274.51 175.465C272.903 175.576 272.293 175.354 271.683 175.52Z" fill="#323A50"/>
<path d="M273.623 178.565C271.406 179.23 269.022 182.386 268.357 183.382C267.027 185.597 266.694 190.802 267.193 193.238C267.415 194.29 267.803 195.121 268.135 195.785C268.468 196.56 268.856 197.225 268.856 198.055C268.856 199.882 269.078 200.824 269.743 201.71C269.854 201.876 270.02 201.931 270.131 201.931C270.464 201.931 270.852 201.654 271.184 201.211C271.406 200.934 271.849 200.492 272.016 200.547C272.127 200.547 272.182 200.658 272.238 200.768C272.903 201.931 272.016 202.817 271.96 202.872L272.238 203.149C272.238 203.149 273.402 201.987 272.57 200.492C272.404 200.215 272.238 200.104 271.96 199.993C271.572 199.938 271.129 200.325 270.741 200.768C270.519 200.99 270.186 201.377 270.02 201.377L269.965 201.322C269.355 200.547 269.189 199.606 269.189 197.889C269.189 196.893 268.856 196.228 268.413 195.398C268.135 194.733 267.692 193.958 267.526 192.906C267.027 190.691 267.359 185.542 268.634 183.438C269.41 182.164 271.628 179.341 273.568 178.787C274.122 178.676 275.065 178.898 275.785 179.174C279.832 180.891 282.715 181.555 282.77 181.555L282.825 181.168C282.825 181.168 279.943 180.559 275.952 178.898C275.619 178.842 274.344 178.399 273.623 178.565Z" fill="#323A50"/>
<path d="M273.18 177.569C272.348 177.68 271.461 178.511 271.129 178.787C271.073 178.843 271.073 178.843 271.073 178.843C269.133 180.504 267.304 182.829 266.694 184.435C266.528 184.823 266.417 185.432 266.361 186.096C265.142 188.643 264.643 191.079 264.2 193.46C263.978 194.734 263.645 196.118 263.313 197.392C262.315 200.935 256.383 206.86 256.106 207.136C255.884 207.303 250.729 211.4 248.955 211.732C248.179 211.898 244.354 212.729 243.301 213.227C242.358 213.559 240.64 218.709 240.363 219.705C240.252 222.197 240.03 225.851 239.753 226.128C239.476 226.516 238.09 227.014 237.48 226.903C237.259 226.903 237.092 226.626 236.87 226.294C236.593 225.907 236.15 225.298 235.429 225.187C234.875 225.131 233.378 225.464 230.828 226.128C228.444 226.737 225.229 227.457 224.62 227.291C224.065 227.125 224.01 226.737 223.899 226.46C223.843 226.183 223.733 225.741 223.178 225.63C223.012 225.574 222.901 225.685 222.846 225.74C222.624 225.962 222.624 226.516 222.679 227.235C222.735 227.955 222.79 228.841 222.458 229.229L222.79 229.506C223.178 228.952 223.123 228.011 223.123 227.235C223.123 226.848 223.067 226.239 223.178 226.128C223.4 226.183 223.4 226.239 223.511 226.626C223.622 226.959 223.733 227.512 224.453 227.734C225.118 227.955 227.391 227.457 230.884 226.626C232.824 226.128 234.819 225.685 235.318 225.74C235.873 225.796 236.15 226.294 236.427 226.682C236.649 227.014 236.981 227.457 237.369 227.512C238.09 227.623 239.642 227.125 240.086 226.571C240.418 226.073 240.695 221.366 240.751 219.927C241.693 217.048 242.913 213.947 243.467 213.725C244.299 213.449 246.904 212.784 249.066 212.286C250.951 211.898 256.162 207.746 256.383 207.579C256.605 207.358 262.647 201.323 263.756 197.613C264.089 196.339 264.421 194.955 264.643 193.682C264.976 191.799 265.419 189.861 266.195 187.868C266.084 188.975 266.029 190.138 265.918 191.356C265.863 192.298 265.807 193.239 265.696 193.959C265.087 199.44 264.255 202.485 262.869 204.479C261.262 206.694 255.386 213.504 254.665 214.002C254.332 214.279 253.833 214.39 253.334 214.611C252.946 214.722 252.448 214.833 251.893 215.11C250.008 215.94 247.957 219.152 246.461 221.532C245.685 222.695 244.964 223.747 244.687 224.024C244.132 224.356 243.8 224.246 243.356 224.079C243.079 223.969 242.636 223.803 242.192 223.803V224.19C242.58 224.19 242.913 224.301 243.19 224.412C243.744 224.633 244.188 224.799 244.964 224.356C245.352 224.079 246.017 223.138 246.849 221.754C248.345 219.484 250.341 216.328 252.115 215.497C252.614 215.276 253.057 215.165 253.445 215.11C254.055 214.944 254.499 214.833 254.997 214.445C255.718 213.836 261.705 207.081 263.313 204.811C264.809 202.762 265.585 199.606 266.195 194.014C266.251 193.294 266.306 192.353 266.417 191.412C266.583 188.92 266.75 186.152 267.304 184.823C267.858 183.328 269.688 181.002 271.572 179.397C271.572 179.397 271.628 179.341 271.683 179.341C271.96 179.12 272.792 178.345 273.513 178.234C274.178 178.123 275.397 178.566 277.116 179.23C278.723 179.839 280.774 180.559 283.158 181.224L283.269 180.836C280.83 180.172 278.834 179.507 277.282 178.898C275.176 177.902 273.956 177.459 273.18 177.569Z" fill="#323A50"/>
<path d="M211.204 224.024C211.537 224.079 212.091 224.411 212.701 224.854C213.754 225.574 214.974 226.405 216.027 225.851C216.582 225.574 217.025 224.91 217.579 224.024C218.577 222.474 219.797 220.591 222.18 219.871C225.839 218.653 232.38 215.497 232.436 215.497H232.491C232.547 215.442 237.702 211.677 242.691 212.95L242.802 212.562C237.702 211.234 232.657 214.833 232.269 215.165C232.214 215.165 232.048 215.276 231.771 215.386C231.66 214.833 231.272 213.67 230.274 212.895C229.498 212.286 228.5 212.064 227.336 212.175C225.34 212.396 223.4 213.393 221.737 214.224C220.24 214.999 219.021 215.552 218.134 215.497C217.358 215.442 217.247 214.943 217.08 214.39C216.914 213.67 216.692 212.784 215.14 212.618C213.533 212.452 212.867 213.559 212.258 214.445C211.759 215.165 211.482 215.608 210.983 215.552C209.486 215.442 207.49 213.393 207.49 213.393L207.213 213.67C207.269 213.725 209.32 215.829 210.983 216.051C211.814 216.106 212.202 215.386 212.701 214.722C213.255 213.836 213.81 212.95 215.196 213.061C216.415 213.172 216.637 213.836 216.803 214.5C216.97 215.165 217.136 215.774 218.3 215.94C219.298 215.995 220.573 215.331 222.125 214.611C223.788 213.781 225.617 212.839 227.558 212.618C228.611 212.507 229.498 212.673 230.218 213.227C231.161 214.002 231.438 215.165 231.549 215.608C229.609 216.494 225.063 218.542 222.236 219.484C219.741 220.314 218.411 222.363 217.413 223.858C216.859 224.633 216.471 225.353 215.972 225.574C215.251 225.962 214.142 225.242 213.145 224.578C212.479 224.19 211.981 223.747 211.482 223.692C210.816 223.636 209.874 224.245 208.821 224.91C207.823 225.574 206.714 226.349 205.938 226.46L205.994 226.848C206.881 226.737 207.989 225.962 209.042 225.242C209.763 224.578 210.761 223.913 211.204 224.024Z" fill="#323A50"/>
<path d="M275.065 180.171C273.901 180.725 272.903 182.22 272.127 183.327C271.849 183.715 271.572 184.158 271.406 184.324C271.24 184.49 271.073 184.49 270.852 184.545C270.297 184.656 269.909 184.822 269.41 185.985C268.69 187.701 268.357 191.688 269.244 193.072C269.577 193.626 270.02 193.681 270.297 193.681C271.24 193.57 272.071 192.463 272.404 191.466C272.626 190.747 273.346 190.691 274.122 190.636C274.787 190.58 275.397 190.525 275.785 190.027C276.007 189.75 276.284 189.528 276.451 189.639C276.672 189.695 277.005 190.138 277.116 190.968C277.227 192.242 276.783 194.29 276.783 194.29L277.171 194.401C277.171 194.346 277.725 192.352 277.504 190.913C277.393 189.916 277.005 189.252 276.561 189.141C276.229 189.03 275.73 189.252 275.453 189.75C275.231 190.027 274.677 190.082 274.178 190.138C273.402 190.193 272.404 190.248 272.071 191.245C271.739 192.242 270.963 193.127 270.297 193.183C270.076 193.183 269.798 193.072 269.632 192.851C268.911 191.743 269.133 187.923 269.854 186.206C270.242 185.21 270.63 185.154 270.963 185.099C271.184 185.044 271.517 184.988 271.739 184.767C271.905 184.601 272.127 184.158 272.515 183.715C273.18 182.718 274.178 181.112 275.286 180.669C276.062 180.337 276.894 180.725 278.003 181.278C279.056 181.777 280.442 182.386 282.327 182.607L282.382 182.22C280.608 181.998 279.333 181.389 278.28 180.946C276.949 180.171 276.007 179.728 275.065 180.171Z" fill="#323A50"/>
</g>
<g opacity="0.34">
<path d="M218.3 231.886C255.192 231.886 285.098 201.866 285.098 164.834C285.098 127.802 255.192 97.7822 218.3 97.7822C181.408 97.7822 151.502 127.802 151.502 164.834C151.502 201.866 181.408 231.886 218.3 231.886Z" fill="url(#paint1_radial_3632_75338)"/>
<path d="M285.375 164.834C285.375 182.774 278.446 199.661 265.752 212.396C253.057 225.131 236.205 232.108 218.355 232.108C200.506 232.108 183.654 225.131 170.959 212.396C158.265 199.661 151.335 182.774 151.335 164.834C151.335 146.894 158.265 130.007 170.959 117.272C183.654 104.537 200.506 97.5605 218.355 97.5605C236.205 97.5605 253.057 104.537 265.752 117.272C278.391 129.951 285.375 146.839 285.375 164.834ZM151.723 164.834C151.723 201.654 181.603 231.72 218.355 231.72C255.108 231.72 284.987 201.765 284.987 164.834C284.987 128.014 255.108 97.9481 218.355 97.9481C181.603 97.9481 151.723 127.958 151.723 164.834Z" fill="#323A50"/>
</g>
<path d="M144.184 164.169C144.184 177.513 152.666 187.867 167.467 189.03C168.187 189.085 168.077 188.975 167.522 188.975C162.034 188.975 159.207 178.122 159.207 164.723C159.207 151.324 162.034 140.471 167.522 140.471C167.855 140.471 167.91 140.471 167.578 140.416C154.606 140.25 144.184 150.77 144.184 164.169Z" fill="#293C4F"/>
<path d="M152.666 182.053C152.777 182.053 152.001 182.164 151.169 182.109C150.559 182.053 149.95 181.887 149.395 181.555C148.841 181.223 148.397 180.89 147.843 180.447C147.843 180.447 147.843 180.392 147.788 180.392C145.016 177.679 143.076 171.865 143.076 165.166C143.076 155.864 146.734 148.223 151.335 148.223C151.335 148.223 151.945 148.223 152.333 148.278C153.109 148.333 153.83 148.61 154.44 149.109L160.704 126.407C160.316 126.407 161.092 126.407 159.429 126.407C148.065 126.407 138.863 143.627 138.863 164.889C138.863 186.151 148.065 203.37 159.429 203.37C160.094 203.37 160.704 203.315 161.424 203.204L154.772 180.835C154.273 181.223 153.276 181.887 152.666 182.053Z" fill="#DBDBDB"/>
<path d="M161.979 203.426L161.591 203.481C160.87 203.592 160.26 203.647 159.54 203.647C153.885 203.647 148.564 199.605 144.628 192.186C140.748 184.877 138.586 175.132 138.586 164.778C138.586 154.424 140.692 144.735 144.628 137.371C148.564 129.951 153.885 125.909 159.54 125.909C160.094 125.909 160.371 125.909 160.538 125.909C160.593 125.909 160.648 125.909 160.704 125.909V125.965C160.704 125.965 160.759 126.02 160.815 126.02H161.369L154.828 149.718L154.329 149.386C153.664 148.998 153.109 148.666 152.444 148.611C152.056 148.555 151.446 148.555 151.446 148.555C147.122 148.555 143.63 155.975 143.63 165.111C143.63 171.478 145.459 177.347 148.231 180.06L148.287 180.116C148.675 180.503 149.229 180.891 149.617 181.112C150.116 181.334 150.726 181.5 151.28 181.666C151.834 181.721 152.278 181.666 152.5 181.666H152.61C152.943 181.555 153.664 181.168 154.606 180.503L155.105 180.226L161.979 203.426ZM139.306 164.834C139.306 185.819 148.397 202.928 159.54 202.928C160.039 202.928 160.482 202.872 161.036 202.817L154.662 181.444C153.996 181.832 153.387 182.275 152.832 182.386C152.333 182.552 151.169 182.441 151.169 182.441C150.504 182.386 149.839 182.164 149.229 181.832C148.675 181.555 148.176 181.112 147.621 180.669L147.566 180.614C144.628 177.679 142.743 171.699 142.743 165.055C142.743 160.46 143.63 156.141 145.238 152.929C146.901 149.552 149.063 147.669 151.446 147.669C151.502 147.669 152.056 147.669 152.5 147.725C153.165 147.78 153.719 147.946 154.329 148.334L160.26 126.684C160.094 126.684 159.872 126.684 159.484 126.684C148.397 126.74 139.306 143.849 139.306 164.834Z" fill="#323A50"/>
<path opacity="0.52" d="M145.293 165.111C145.293 156.418 148.453 149.275 152.61 148.223C152.333 148.168 151.945 148.112 151.613 148.112C147.012 148.112 143.297 155.698 143.297 165.111C143.297 174.468 147.012 182.109 151.613 182.109C151.779 182.109 152.001 182.164 152.222 182.109C152.278 182.109 152.998 182.109 153.996 181.777C154.551 181.611 154.772 180.946 154.662 180.891C153.387 181.943 152.444 181.887 152.222 181.887C148.342 180.559 145.293 173.527 145.293 165.111Z" fill="url(#paint2_linear_3632_75338)"/>
<path d="M146.235 165.111C146.235 156.473 149.95 150.05 154.662 148.998C153.387 148.112 152.222 148.168 151.89 148.168C147.289 148.168 143.297 155.753 143.297 165.055C143.297 174.413 146.734 181.998 151.945 182.054C152.278 182.054 154.606 181.777 154.606 180.835C149.395 180.946 146.235 173.804 146.235 165.111Z" fill="#DBDBDB"/>
<path d="M155.77 149.164L154.828 149.33C150.116 150.382 146.734 156.971 146.734 165.055C146.734 171.09 148.287 176.24 150.781 178.787C151.89 179.894 153.276 180.503 154.661 180.503H155.05V180.891C155.05 181.057 154.994 181.389 154.717 181.666C153.941 182.386 152.222 182.552 152.001 182.552C149.34 182.496 147.012 180.669 145.349 177.236C143.796 174.08 142.909 169.762 142.909 165.055C142.909 160.515 143.852 156.141 145.515 152.929C147.233 149.552 149.451 147.725 151.89 147.725H151.945C152.333 147.725 153.553 147.725 154.828 148.611L155.77 149.164ZM143.741 165.055C143.741 174.634 147.233 181.666 152.056 181.721C152.278 181.721 153.331 181.555 153.941 181.223C152.61 181.057 151.28 180.448 150.227 179.34C147.51 176.683 145.903 171.312 145.903 165.11C145.903 160.847 146.79 157.027 148.397 153.981C149.728 151.379 151.557 149.607 153.719 148.887C152.943 148.611 152.389 148.611 152.056 148.611H152.001C147.51 148.611 143.741 156.141 143.741 165.055Z" fill="#323A50"/>
<path d="M285.542 164.668C285.542 182.607 278.557 199.55 265.807 212.23C253.057 224.965 236.15 231.941 218.189 231.941C203.333 231.941 189.253 227.235 177.445 218.265L177.778 217.767C189.419 226.681 203.388 231.277 218.134 231.277C254.942 231.277 284.877 201.377 284.877 164.612C284.877 127.847 254.942 97.9479 218.134 97.9479C203.277 97.9479 189.197 102.71 177.5 111.735L177.168 111.237C189.031 102.101 203.222 97.3389 218.189 97.3389C236.15 97.3389 253.113 104.315 265.807 117.05C278.557 129.841 285.542 146.728 285.542 164.668Z" fill="#323A50"/>
<path d="M154.662 180.836L157.766 180.78L163.642 196.782C163.864 197.391 164.64 197.391 164.861 196.782L164.917 196.727L165.305 195.675C165.416 195.342 165.97 195.398 166.026 195.73L166.524 198V198.111C166.746 199.163 168.187 199.274 168.576 198.277L169.573 196.007C169.74 195.619 170.349 195.675 170.46 196.062C170.959 198.111 172.012 202.319 174.23 208.354C182.268 228.619 204.663 238.143 204.663 238.143C204.663 238.143 194.075 236.205 186.869 232.717C182.268 230.557 174.95 227.013 167.023 219.76C161.702 214.943 156.879 208.465 156.879 208.465C156.879 208.465 161.923 206.195 160.815 202.762C159.651 200.159 154.218 184.988 154.662 180.836Z" fill="white"/>
<path d="M208.266 239.305L204.719 238.641C204.608 238.641 194.02 236.648 186.813 233.215C182.323 231.111 174.895 227.512 166.857 220.203C161.535 215.441 156.713 208.908 156.657 208.852L156.38 208.465L156.768 208.299C156.823 208.299 160.648 206.471 160.648 203.869C160.648 203.648 160.593 203.315 160.538 203.039C159.263 200.325 154.163 186.317 154.163 181.445C154.163 181.223 154.163 180.946 154.218 180.78L154.273 180.448L158.043 180.393L163.974 196.671C164.03 196.837 164.141 196.837 164.196 196.837C164.252 196.837 164.362 196.837 164.418 196.671L164.917 195.508C165.028 195.231 165.305 194.955 165.693 195.01C166.026 195.065 166.358 195.287 166.414 195.674L166.968 198.111C167.023 198.443 167.301 198.664 167.578 198.664C167.799 198.664 168.132 198.609 168.298 198.277L169.296 196.007C169.462 195.674 169.795 195.453 170.183 195.453C170.516 195.508 170.904 195.73 170.959 196.117C171.347 198.055 172.511 202.319 174.729 208.354C178.831 218.653 186.813 226.127 192.8 230.612C199.286 235.429 204.885 237.866 204.94 237.921L208.266 239.305ZM157.655 208.742C158.764 210.237 162.977 215.552 167.411 219.649C175.394 226.847 182.767 230.446 187.201 232.55C191.913 234.765 198.122 236.426 201.781 237.257C199.508 236.094 196.126 234.101 192.412 231.332C186.37 226.792 178.276 219.206 174.008 208.686C171.791 202.54 170.627 198.332 170.239 196.339C170.239 196.339 170.239 196.284 170.183 196.284C170.128 196.284 170.128 196.284 170.128 196.339L169.13 198.609C168.908 199.218 168.243 199.55 167.578 199.495C166.912 199.44 166.414 198.941 166.303 198.332L165.748 195.951L165.36 197.059C165.194 197.446 164.751 197.778 164.362 197.723C163.974 197.723 163.531 197.446 163.365 197.003L157.6 181.223H155.105C155.105 181.278 155.105 181.334 155.105 181.445C155.105 186.206 160.094 200.159 161.369 202.762V202.817C161.48 203.149 161.535 203.537 161.535 203.869C161.535 206.416 158.764 208.133 157.655 208.742Z" fill="#323A50"/>
<path d="M293.691 164.723H292.859C292.859 123.639 259.321 90.0854 218.134 90.0854C194.574 90.0854 172.899 100.882 158.597 119.597L157.988 119.099C164.861 110.018 173.897 102.543 184.042 97.3941C194.63 92.0233 206.16 89.2549 218.134 89.2549C228.334 89.2549 238.201 91.2482 247.514 95.124C256.55 98.8891 264.532 104.371 271.517 111.236C278.446 118.158 283.879 126.241 287.648 135.267C291.695 144.679 293.691 154.48 293.691 164.723Z" fill="#323A50"/>
<path d="M154.662 148.998L157.766 149.054L163.254 132.609C163.476 132 164.252 132 164.473 132.609L164.529 132.664L164.917 133.716C165.028 134.049 165.582 133.993 165.638 133.661L166.136 131.391V131.28C166.358 130.228 167.799 130.117 168.187 131.114L169.185 133.384C169.352 133.772 169.961 133.716 170.072 133.329C170.571 131.28 171.624 127.072 173.842 121.037C181.935 100.772 203.776 91.3037 203.776 91.3037C203.776 91.3037 193.632 93.1863 186.37 96.6745C181.769 98.8339 174.452 102.378 166.524 109.631C161.203 114.448 157.101 121.369 157.101 121.369C157.101 121.369 161.48 123.307 160.427 126.74C159.207 129.287 154.218 144.846 154.662 148.998Z" fill="white"/>
<path d="M207.379 90.0859L204.053 91.5255C203.998 91.5255 198.51 93.9618 192.135 98.7789C186.314 103.264 178.387 110.683 174.285 121.037C172.068 127.073 170.959 131.336 170.516 133.274C170.46 133.606 170.183 133.938 169.74 133.938C169.407 133.994 169.019 133.772 168.853 133.385L167.855 131.114C167.744 130.782 167.356 130.727 167.134 130.727C166.912 130.727 166.58 130.893 166.524 131.281L165.97 133.717C165.915 134.049 165.638 134.326 165.249 134.381C164.917 134.437 164.584 134.215 164.473 133.883L163.974 132.72C163.919 132.554 163.808 132.554 163.753 132.554C163.697 132.554 163.586 132.554 163.531 132.72L157.988 149.442L154.218 149.386L154.163 149.054C154.163 148.888 154.107 148.666 154.107 148.334C154.107 143.406 158.708 129.066 159.983 126.408C160.094 126.131 160.094 125.744 160.094 125.467C160.094 122.975 156.934 121.591 156.934 121.536L156.546 121.369L156.768 121.037C156.823 120.982 161.036 114.061 166.247 109.244C174.341 101.935 181.769 98.3913 186.204 96.2319C193.41 92.7437 203.555 90.8611 203.665 90.8057L207.379 90.0859ZM165.416 133.551L165.97 131.17C166.081 130.505 166.635 130.062 167.245 130.007C167.91 129.952 168.465 130.284 168.797 130.893L169.795 133.163C169.795 133.163 169.795 133.218 169.85 133.218C169.906 133.218 169.906 133.218 169.906 133.163C170.294 131.17 171.458 126.906 173.675 120.816C177.833 110.296 185.816 102.71 191.802 98.2252C195.406 95.5121 198.676 93.5188 201.005 92.3561C197.457 93.1866 191.525 94.7923 186.869 97.0071C182.434 99.1111 175.006 102.655 167.079 109.908C162.533 113.95 158.875 119.653 157.932 121.148C158.875 121.702 161.258 123.197 161.258 125.633C161.258 125.965 161.203 126.408 161.092 126.796V126.851C159.872 129.453 155.271 143.573 155.271 148.445C155.271 148.556 155.271 148.611 155.271 148.666H157.766L163.143 132.554C163.309 132.166 163.697 131.834 164.141 131.834C164.529 131.834 164.972 132.056 165.139 132.499L165.416 133.551Z" fill="#323A50"/>
<path d="M167.966 140.306C162.478 140.306 159.595 151.213 159.595 164.613C159.595 178.012 162.422 188.92 167.966 188.92C173.454 188.92 179.496 178.012 179.496 164.613C179.496 151.213 173.398 140.306 167.966 140.306Z" fill="#DBDBDB"/>
<path d="M179.94 164.612C179.94 170.98 178.609 177.126 176.17 181.998C173.786 186.649 170.793 189.362 167.91 189.362C165.139 189.362 162.866 186.76 161.314 181.943C159.983 177.569 159.207 171.589 159.207 164.612C159.207 157.636 159.983 151.656 161.314 147.282C162.866 142.465 165.139 139.862 167.91 139.862C170.793 139.862 173.786 142.52 176.17 147.226C178.609 152.044 179.94 158.245 179.94 164.612ZM159.983 164.612C159.983 171.367 160.759 177.458 162.034 181.666C163.032 184.767 164.861 188.476 167.855 188.476C170.405 188.476 173.232 185.874 175.339 181.611C177.722 176.904 179.053 170.814 179.053 164.612C179.053 158.356 177.778 152.376 175.339 147.614C173.177 143.24 170.405 140.748 167.855 140.748C164.806 140.748 162.977 144.458 162.034 147.559C160.704 151.767 159.983 157.857 159.983 164.612Z" fill="#323A50"/>
<path d="M168.077 140.97C162.866 140.97 160.205 151.545 160.205 164.668C160.205 177.735 162.921 188.31 168.077 188.31C173.287 188.31 179.053 177.735 179.053 164.612C179.053 151.49 173.232 140.97 168.077 140.97Z" fill="#DBDBDB"/>
<path d="M179.053 164.613C179.053 170.814 177.833 176.739 175.505 181.39C173.343 185.874 170.627 188.366 167.966 188.366C165.416 188.366 163.365 185.93 162.034 181.39C160.759 177.126 160.039 171.312 160.039 164.613C160.039 157.913 160.759 152.099 162.034 147.836C163.476 143.24 165.527 140.859 167.966 140.859C170.571 140.859 173.343 143.406 175.449 147.836C177.833 152.487 179.053 158.467 179.053 164.613ZM160.26 164.613C160.26 178.898 163.309 188.2 168.021 188.2C173.01 188.2 178.886 177.901 178.886 164.613C178.886 151.324 173.066 141.025 168.021 141.025C163.365 141.081 160.26 150.328 160.26 164.613Z" fill="#323A50"/>
<path d="M168.187 142.188C163.697 142.188 161.424 152.266 161.424 164.668C161.424 177.071 163.808 187.148 168.187 187.148C172.622 187.148 177.611 177.071 177.611 164.668C177.611 152.266 172.678 142.188 168.187 142.188Z" fill="#DBDBDB"/>
<path d="M177.722 164.668C177.722 170.482 176.669 176.129 174.673 180.559C172.789 184.822 170.405 187.203 168.187 187.203C166.026 187.203 164.252 184.933 162.977 180.559C161.868 176.572 161.258 171.035 161.258 164.668C161.258 158.245 161.868 152.764 162.977 148.777C164.196 144.403 165.97 142.133 168.187 142.133C170.405 142.133 172.844 144.569 174.673 148.777C176.669 153.151 177.722 158.799 177.722 164.668ZM161.48 164.668C161.48 178.289 164.141 187.037 168.187 187.037C172.511 187.037 177.556 177.292 177.556 164.668C177.556 152.044 172.567 142.299 168.187 142.299C164.085 142.244 161.48 151.047 161.48 164.668Z" fill="#323A50"/>
<path d="M168.243 143.517C164.418 143.517 162.422 153.04 162.422 164.834C162.422 176.627 164.418 186.151 168.243 186.151C172.068 186.151 176.392 176.627 176.392 164.834C176.392 153.095 172.068 143.517 168.243 143.517Z" fill="#DBDBDB"/>
<path d="M176.503 164.779C176.503 170.316 175.56 175.686 173.842 179.839C172.234 183.826 170.183 186.151 168.243 186.151C166.358 186.151 164.806 183.992 163.753 179.839C162.81 176.019 162.256 170.814 162.256 164.779C162.256 158.744 162.81 153.539 163.753 149.718C164.806 145.621 166.358 143.406 168.243 143.406C170.183 143.406 172.234 145.676 173.842 149.718C175.56 153.871 176.503 159.242 176.503 164.779ZM162.478 164.779C162.478 177.624 164.695 185.985 168.243 185.985C171.957 185.985 176.281 176.738 176.281 164.779C176.281 152.819 171.957 143.572 168.243 143.572C164.751 143.572 162.478 151.878 162.478 164.779Z" fill="#323A50"/>
<path d="M168.188 144.957C165.139 144.957 163.531 153.871 163.531 164.779C163.531 175.687 165.139 184.601 168.188 184.601C171.236 184.601 175.006 175.687 175.006 164.779C175.006 153.816 171.236 144.957 168.188 144.957Z" fill="#DBDBDB"/>
<path d="M175.117 164.834C175.117 175.908 171.292 184.767 168.188 184.767C164.64 184.767 163.42 173.97 163.42 164.834C163.42 155.698 164.64 144.901 168.188 144.901C171.292 144.901 175.117 153.76 175.117 164.834ZM163.642 164.834C163.642 176.849 165.416 184.601 168.188 184.601C171.181 184.601 174.95 175.465 174.95 164.834C174.95 154.203 171.236 145.067 168.188 145.067C165.416 145.067 163.642 152.819 163.642 164.834Z" fill="#323A50"/>
<path d="M168.243 146.672C165.804 146.672 164.584 154.867 164.584 164.944C164.584 175.021 165.804 183.215 168.243 183.215C170.682 183.215 173.62 175.021 173.62 164.944C173.62 154.811 170.571 146.672 168.243 146.672Z" fill="#DBDBDB"/>
<path d="M173.675 164.889C173.675 175.021 170.737 183.216 168.243 183.216C165.471 183.216 164.529 173.748 164.529 164.889C164.529 155.974 165.527 146.562 168.243 146.562C170.627 146.562 173.675 154.701 173.675 164.889ZM164.695 164.889C164.695 175.741 166.136 182.994 168.243 182.994C170.627 182.994 173.509 174.634 173.509 164.889C173.509 155.144 170.627 146.783 168.243 146.783C166.136 146.783 164.695 154.036 164.695 164.889Z" fill="#323A50"/>
<path d="M168.409 148.61C166.635 148.61 165.748 155.974 165.748 165C165.748 174.025 166.635 181.389 168.409 181.389C170.183 181.389 172.29 174.025 172.29 165C172.29 155.974 170.183 148.61 168.409 148.61Z" fill="#DBDBDB"/>
<path d="M172.4 165C172.4 174.136 170.239 181.5 168.409 181.5C166.414 181.5 165.693 172.973 165.693 165C165.693 157.027 166.414 148.5 168.409 148.5C170.239 148.5 172.4 155.809 172.4 165ZM165.859 165C165.859 174.745 166.857 181.279 168.409 181.279C169.961 181.279 172.179 174.468 172.179 165C172.179 155.587 169.961 148.721 168.409 148.721C166.912 148.721 165.859 155.255 165.859 165Z" fill="#323A50"/>
<path d="M319.301 180.061C319.301 179.673 319.357 179.175 319.357 178.787C316.585 178.676 313.869 178.676 311.319 178.676C306.274 178.676 301.451 178.676 299.899 177.569C299.622 177.348 299.179 177.458 298.957 177.735C298.735 178.012 298.846 178.455 299.123 178.676C301.008 180.005 305.553 180.005 311.319 180.005C313.869 179.95 316.585 179.95 319.301 180.061Z" fill="#323A50"/>
<path d="M320.41 204.921C320.41 204.423 320.41 203.98 320.41 203.482C316.086 201.821 311.485 199.551 307.549 197.502C302.061 194.678 297.682 192.463 295.52 192.74C295.187 192.796 294.91 193.072 294.91 193.515C294.91 193.903 295.243 194.124 295.686 194.124C297.46 193.903 302.061 196.228 306.939 198.775C311.041 200.824 315.864 203.205 320.41 204.921Z" fill="#323A50"/>
<path opacity="0.19" d="M320.299 204.035C320.299 203.813 320.299 203.481 320.299 203.26C320.244 199.827 320.188 196.449 319.966 193.016C319.578 188.476 319.135 183.936 319.357 179.396C310.598 179.063 301.618 180.005 299.456 177.956C298.402 183.825 297.405 188.31 295.575 193.183C298.68 192.463 310.265 200.159 320.299 204.035Z" fill="url(#paint3_linear_3632_75338)"/>
<path opacity="0.16" d="M319.966 193.017C319.634 188.975 319.246 184.822 319.301 180.781C319.079 180.781 318.747 180.725 318.525 180.725C313.425 180.338 304.389 181.223 299.567 179.729C298.07 186.317 297.793 187.425 296.241 191.799C303.059 193.626 310.598 198.609 317.694 201.378C318.636 201.71 319.523 202.098 320.299 202.375C320.244 199.274 320.188 196.173 319.966 193.017Z" fill="url(#paint4_linear_3632_75338)"/>
<path d="M320.022 194.401C320.022 194.124 319.966 193.792 319.966 193.515C319.301 193.239 318.691 192.962 318.026 192.629C316.585 191.91 315.31 191.411 314.146 190.858C315.365 190.913 316.751 191.245 318.303 192.02C318.802 192.242 319.246 192.519 319.8 192.74C319.856 192.796 319.911 192.796 319.966 192.851C319.966 192.519 319.911 192.131 319.856 191.799C318.858 191.079 317.86 190.304 316.973 189.584C314.312 187.203 312.039 187.812 310.044 188.366C309.268 188.532 308.492 188.754 307.771 188.754C307.272 188.643 306.828 188.532 306.33 188.421C305.775 188.311 305.387 188.2 304.999 188.034C304.279 187.646 303.946 187.093 303.447 186.484C302.56 185.376 301.673 184.213 298.569 183.937C298.513 184.213 298.458 184.49 298.402 184.767C301.285 184.933 302.061 185.874 302.893 186.926L302.948 186.982C302.615 186.816 302.172 186.594 301.895 186.373C300.675 185.653 299.733 185.099 298.347 185.155C298.292 185.431 298.236 185.764 298.125 185.985C299.345 185.874 300.232 186.373 301.507 187.093C302.338 187.646 303.392 188.145 304.667 188.698C305.165 188.975 305.664 189.252 306.44 189.418C306.828 189.529 307.272 189.529 307.66 189.529C308.381 189.695 308.99 189.861 309.711 190.138C309.046 190.138 308.436 190.083 307.715 189.916C305.775 189.363 304.057 188.643 302.616 187.923C300.897 187.093 299.456 186.373 298.07 186.317C298.014 186.594 297.904 186.926 297.848 187.148C299.123 187.148 300.62 187.868 302.283 188.698C303.835 189.418 305.609 190.249 307.605 190.747C308.88 191.079 310.155 191.024 311.43 190.913C311.596 190.913 311.762 190.913 311.984 190.913C313.758 191.577 315.698 192.408 317.804 193.405C318.525 193.737 319.246 194.069 320.022 194.401ZM311.984 190.027C311.152 189.75 310.376 189.418 309.545 189.197C309.767 189.141 310.044 189.086 310.265 189.03C312.261 188.532 314.146 188.034 316.529 190.138C316.696 190.304 316.918 190.47 317.139 190.692C315.088 190.027 313.425 189.972 311.984 190.027Z" fill="#323A50"/>
<path d="M254 157.636V162.73H233.046C232.879 162.73 233.156 162.564 233.156 162.73V168.655C233.156 168.821 232.879 169.485 233.046 169.485H254V173.029C254 173.14 253.889 173.25 254 173.306C254.111 173.361 254.111 173.361 254.166 173.306L265.142 165.831L265.308 165.776C265.364 165.72 265.419 165.61 265.419 165.554C265.419 165.443 265.364 165.388 265.253 165.333L254.221 157.47C254.111 157.415 254.111 157.415 254 157.47C253.889 157.415 254 157.47 254 157.636Z" fill="white"/>
<path d="M228.056 179.784L225.063 184.988C225.008 185.044 225.008 185.155 225.008 185.21C225.008 185.265 225.063 185.376 225.174 185.376L241.194 194.567L239.032 198.332C238.977 198.443 238.977 198.554 239.032 198.665C239.088 198.775 239.199 198.831 239.31 198.831L252.946 197.613C253.057 197.613 253.168 197.502 253.224 197.391V197.336V197.28C253.224 197.225 253.224 197.17 253.168 197.17L247.237 185.099C247.181 184.988 247.07 184.933 246.96 184.933C246.849 184.933 246.738 184.988 246.682 185.099L244.465 188.975L228.389 179.784C228.334 179.562 228.167 179.618 228.056 179.784Z" fill="white"/>
<path d="M150.061 188.145C148.453 193.626 145.238 191.855 144.406 195.786C143.852 198.444 141.801 195.62 140.304 198.388C144.794 203.482 147.067 204.866 150.227 207.579C153.608 210.514 156.103 209.24 157.544 208.576C161.147 206.693 161.813 204.589 161.258 202.818C159.318 196.173 157.378 191.412 155.493 185.1C155.382 185.044 150.338 185.266 150.061 188.145Z" fill="#8BB4D1"/>
<path d="M161.702 203.925C161.702 205.807 160.371 207.524 157.655 208.908L157.544 208.963C156.047 209.628 153.442 210.901 150.005 207.856C149.174 207.136 148.397 206.527 147.621 205.918C145.515 204.201 143.298 202.374 140.082 198.609C139.971 198.498 139.971 198.388 140.027 198.277C140.914 196.671 142.023 196.727 142.799 196.782C143.575 196.782 143.907 196.837 144.074 195.785C144.462 193.792 145.404 193.128 146.568 192.408C147.732 191.633 148.952 190.802 149.728 188.034C149.95 185.985 152.389 184.988 154.606 184.712C155.382 184.656 155.604 184.656 155.659 184.933C156.546 187.812 157.433 190.47 158.32 193.017C159.318 196.007 160.371 199.163 161.425 202.707C161.646 203.149 161.702 203.537 161.702 203.925ZM140.692 198.332C143.796 201.931 146.014 203.703 148.009 205.309C148.785 205.973 149.562 206.527 150.393 207.302C153.497 210.071 155.826 208.963 157.212 208.299L157.322 208.243C159.817 206.97 161.036 205.475 161.036 203.814C161.036 203.537 160.981 203.149 160.926 202.873C159.872 199.274 158.819 196.173 157.821 193.238C156.99 190.747 156.103 188.255 155.216 185.431C154.551 185.431 152.555 185.653 151.335 186.594C150.781 186.982 150.504 187.535 150.449 188.144V188.2C149.562 191.19 148.231 192.131 146.956 192.906C145.958 193.626 145.127 194.069 144.85 195.785C144.572 197.391 143.63 197.336 142.854 197.336C142.023 197.391 141.357 197.336 140.692 198.332Z" fill="#323A50"/>
<g opacity="0.83">
<path opacity="0.57" d="M143.242 197.114C143.131 197.114 143.02 197.114 142.965 197.114C143.187 198.775 143.464 200.436 143.63 201.987C143.796 202.153 143.963 202.264 144.184 202.485C143.796 200.658 143.464 198.886 143.242 197.114Z" fill="url(#paint5_linear_3632_75338)"/>
<path opacity="0.57" d="M144.295 195.841C144.184 196.56 143.963 196.837 143.575 196.948C143.852 198.886 144.184 200.879 144.462 202.817C145.071 203.371 145.626 203.869 146.18 204.368C145.681 201.211 145.182 198 144.517 194.899C144.462 195.176 144.351 195.508 144.295 195.841Z" fill="url(#paint6_linear_3632_75338)"/>
<path opacity="0.57" d="M147.344 192.241C147.233 192.352 147.122 192.407 147.012 192.463C147.178 193.293 147.289 194.068 147.511 194.899C147.4 194.013 147.344 193.127 147.344 192.241Z" fill="url(#paint7_linear_3632_75338)"/>
<path opacity="0.57" d="M148.564 200.934C148.619 201.543 148.675 202.097 148.73 202.761C148.896 203.979 149.063 205.308 149.34 206.526C149.395 206.693 149.451 206.859 149.451 207.135C149.617 207.302 149.839 207.468 150.061 207.689C150.338 207.911 150.67 208.243 150.947 208.409C150.005 202.817 148.952 197.28 148.12 191.688C148.065 191.743 147.954 191.854 147.899 191.909C148.065 194.844 148.287 197.944 148.564 200.934Z" fill="url(#paint8_linear_3632_75338)"/>
<path opacity="0.57" d="M154.107 201.931C154.606 204.422 155.216 206.803 155.77 209.24C155.992 209.184 156.269 209.073 156.491 209.018C155.216 202.263 153.83 195.508 152.444 188.753C152.777 193.127 153.276 197.557 154.107 201.931Z" fill="url(#paint9_linear_3632_75338)"/>
<path opacity="0.57" d="M155.327 209.074C154.717 206.582 154.163 204.146 153.664 201.654C152.666 196.394 152.222 191.189 151.779 185.874C151.114 186.151 150.559 186.649 150.227 187.203C151.225 194.622 152.721 201.986 153.885 209.406C154.44 209.461 154.939 209.406 155.382 209.295C155.327 209.295 155.327 209.24 155.327 209.074Z" fill="url(#paint10_linear_3632_75338)"/>
<path opacity="0.57" d="M160.039 206.638C158.043 199.495 156.047 192.463 154.772 185.154C154.662 185.154 154.606 185.154 154.495 185.154C156.103 192.629 157.544 200.104 158.985 207.579C159.429 207.302 159.761 206.97 160.039 206.638Z" fill="url(#paint11_linear_3632_75338)"/>
</g>
<path d="M281.939 194.955L274.788 171.035L326.175 177.181V208.52L281.939 194.955Z" fill="url(#paint12_linear_3632_75338)"/>
<path d="M238.811 130.948C238.755 131.059 238.755 131.17 238.811 131.281L240.973 135.046L224.952 144.237C224.897 144.292 224.841 144.348 224.786 144.403C224.73 144.459 224.786 144.569 224.841 144.625L227.835 149.829C227.946 149.995 228.112 150.051 228.334 149.94L244.354 140.749L246.571 144.625C246.627 144.735 246.738 144.791 246.849 144.791C246.96 144.791 247.07 144.735 247.126 144.625L253.002 132.554C253.002 132.499 253.057 132.443 253.057 132.443V132.388V132.333C253.002 132.222 252.891 132.111 252.78 132.111L239.143 130.893C239.088 130.782 238.922 130.893 238.811 130.948Z" fill="white"/>
<path d="M253.445 132.388C253.445 132.499 253.445 132.554 253.39 132.665L247.514 144.735C247.403 144.957 247.237 145.068 246.96 145.068C246.682 145.068 246.461 144.957 246.35 144.791L244.299 141.192L228.5 150.272C228.223 150.438 227.779 150.328 227.613 150.051L224.62 144.846C224.564 144.735 224.509 144.569 224.564 144.348C224.62 144.182 224.675 144.071 224.841 144.016L240.64 134.935L238.644 131.391C238.534 131.225 238.534 130.893 238.644 130.727C238.755 130.561 238.977 130.45 239.254 130.45L252.891 131.668C253.113 131.668 253.39 131.834 253.501 132.167V132.222C253.39 132.333 253.445 132.388 253.445 132.388ZM225.174 144.569L228.167 149.829C228.167 149.829 228.167 149.829 228.223 149.829L244.52 140.472L246.96 144.569L252.836 132.499V132.443L239.199 131.225L241.582 135.212L225.174 144.569Z" fill="#293C4F"/>
<path d="M227.225 108.967L214.808 114.67C214.697 114.725 214.641 114.836 214.641 114.947C214.641 115.057 214.697 115.168 214.808 115.224L218.577 117.383L209.153 133.606C209.098 133.661 209.098 133.772 209.098 133.828C209.098 133.883 209.153 133.994 209.264 133.994L214.475 136.984C214.641 137.094 214.808 137.039 214.974 136.873L224.398 120.65L228.278 122.864C228.389 122.92 228.5 122.92 228.611 122.864C228.722 122.809 228.777 122.698 228.777 122.588L227.835 109.244C227.835 109.188 227.779 109.078 227.724 109.022L227.668 108.967C227.447 108.967 227.336 108.967 227.225 108.967Z" fill="white"/>
<path d="M228.943 122.698C228.943 122.92 228.833 123.086 228.666 123.252C228.5 123.363 228.278 123.363 228.001 123.252L224.398 121.203L215.14 137.15C214.974 137.427 214.53 137.537 214.253 137.371L209.043 134.381C208.932 134.326 208.821 134.16 208.765 134.049C208.71 133.883 208.765 133.717 208.821 133.551L218.078 117.604L214.53 115.611C214.364 115.5 214.253 115.334 214.253 115.057C214.253 114.836 214.42 114.67 214.586 114.504L227.003 108.801C227.225 108.69 227.558 108.745 227.724 108.912L227.779 108.967C227.89 109.078 227.946 109.188 227.946 109.354L228.943 122.698ZM209.375 133.828L214.641 136.818H214.697L224.231 120.318L228.334 122.754C228.334 122.754 228.334 122.754 228.389 122.754L227.447 109.41L227.391 109.354C227.391 109.354 227.391 109.354 227.336 109.354L214.919 115.002L218.91 117.383L209.375 133.828Z" fill="#293C4F"/>
<path d="M246.571 186.207C246.461 186.207 246.35 186.262 246.294 186.373L243.911 190.027L228.334 180.006C228.278 180.006 228.167 179.95 228.112 179.95C228.056 179.95 227.946 180.006 227.946 180.116L224.73 185.155C224.62 185.321 224.675 185.487 224.841 185.653L240.418 195.675L237.979 199.44C237.924 199.551 237.924 199.662 237.979 199.772C238.035 199.883 238.145 199.938 238.256 199.938L251.671 199.662C251.727 199.662 251.782 199.662 251.782 199.662H251.838H251.893C251.949 199.551 252.004 199.385 251.949 199.329L246.738 186.65C246.849 186.318 246.738 186.262 246.571 186.207Z" fill="white"/>
<path d="M251.949 199.883C251.838 199.938 251.782 199.938 251.671 199.938L238.256 200.215C238.035 200.215 237.757 200.104 237.702 199.938C237.591 199.717 237.591 199.44 237.702 199.274L239.919 195.786L224.62 185.93C224.342 185.764 224.287 185.321 224.453 185.044L227.668 180.005C227.724 179.895 227.89 179.784 228.056 179.729C228.223 179.729 228.334 179.673 228.555 179.839L243.855 189.695L246.073 186.262C246.183 186.096 246.405 185.985 246.682 185.985C246.96 185.985 247.07 186.151 247.237 186.373L252.448 199.052C252.558 199.274 252.503 199.551 252.281 199.828H252.226C252.004 199.717 251.949 199.883 251.949 199.883ZM228.223 180.338L224.897 185.376C224.897 185.376 224.897 185.376 224.897 185.432L240.751 195.62L238.201 199.661L251.671 199.385H251.727L246.516 186.705L244.022 190.636L228.223 180.338Z" fill="#293C4F"/>
<path d="M260.319 166.606L249.509 158.19C249.399 158.135 249.288 158.135 249.177 158.19C249.066 158.245 249.011 158.356 249.011 158.467L248.844 162.841L230.052 161.955C229.997 161.955 229.886 161.955 229.83 162.01C229.775 162.01 229.719 162.121 229.775 162.232L229.498 168.212C229.498 168.433 229.609 168.544 229.775 168.544L248.567 169.43L248.401 173.915C248.401 174.026 248.456 174.136 248.567 174.192C248.678 174.247 248.789 174.247 248.9 174.192L260.319 167.215C260.375 167.215 260.43 167.104 260.485 166.994V166.938C260.541 166.772 260.43 166.717 260.319 166.606Z" fill="white"/>
<path d="M248.955 174.413C248.733 174.524 248.567 174.468 248.345 174.413C248.179 174.358 248.068 174.136 248.068 173.804L248.234 169.707L229.775 168.821C229.442 168.821 229.11 168.488 229.165 168.156L229.442 162.176C229.442 162.066 229.553 161.899 229.609 161.789C229.719 161.678 229.886 161.623 230.107 161.623L248.567 162.509L248.733 158.467C248.733 158.245 248.844 158.079 249.066 157.913C249.288 157.802 249.565 157.858 249.731 157.968L260.375 166.384C260.596 166.551 260.652 166.883 260.596 167.104V167.16C260.541 167.326 260.485 167.436 260.319 167.492L248.955 174.413ZM230.052 162.176L229.83 168.156V168.212L248.844 169.097L248.623 173.859C248.623 173.859 248.623 173.859 248.623 173.915L260.042 166.938V166.883C260.042 166.883 260.042 166.883 260.042 166.827L249.343 158.411L249.121 163.062L230.052 162.176Z" fill="#293C4F"/>
<path d="M227.613 219.262C227.724 219.151 227.779 219.04 227.779 218.985L228.722 205.641C228.722 205.53 228.666 205.42 228.555 205.364C228.444 205.309 228.334 205.309 228.223 205.364L224.342 207.579L214.919 191.356C214.808 191.19 214.641 191.134 214.42 191.245L209.209 194.235C209.098 194.235 209.042 194.346 209.042 194.401C209.042 194.457 209.042 194.567 209.098 194.623L218.522 210.846L214.752 213.005C214.641 213.061 214.586 213.171 214.586 213.282C214.586 213.393 214.641 213.503 214.752 213.559L227.169 219.262C227.336 219.428 227.447 219.428 227.613 219.262Z" fill="white"/>
<path d="M228.001 218.93C228.001 219.096 227.946 219.207 227.835 219.317L227.779 219.373C227.613 219.539 227.28 219.594 227.059 219.483L214.641 213.78C214.475 213.67 214.309 213.504 214.309 213.227C214.309 213.005 214.42 212.839 214.586 212.673L218.134 210.68L208.876 194.733C208.821 194.623 208.765 194.457 208.821 194.235C208.876 194.124 208.987 193.958 209.098 193.903L214.309 190.913C214.586 190.747 215.029 190.858 215.196 191.134L224.453 207.081L228.056 205.032C228.278 204.921 228.555 204.921 228.722 205.032C228.888 205.143 228.999 205.309 228.999 205.586L228.001 218.93ZM209.375 194.512L218.91 211.012L214.919 213.393L227.336 219.041C227.391 219.041 227.391 219.041 227.391 219.041L227.447 218.985L228.389 205.641C228.334 205.641 228.334 205.641 228.334 205.641L224.231 208.077L214.697 191.577H214.641L209.375 194.512Z" fill="#293C4F"/>
</g>
<defs>
<linearGradient id="paint0_linear_3632_75338" x1="201.103" y1="152.391" x2="67.8668" y2="186.683" gradientUnits="userSpaceOnUse">
<stop offset="0.2655" stop-color="#032A3D" stop-opacity="0"/>
<stop offset="0.7809" stop-color="#032A3D"/>
</linearGradient>
<radialGradient id="paint1_radial_3632_75338" cx="0" cy="0" r="1" gradientUnits="userSpaceOnUse" gradientTransform="translate(238.365 163.444) rotate(-90) scale(70.7373 70.4575)">
<stop offset="0.4054" stop-color="#032A3D" stop-opacity="0"/>
<stop offset="1" stop-color="#032A3D"/>
</radialGradient>
<linearGradient id="paint2_linear_3632_75338" x1="175.041" y1="142.878" x2="126.998" y2="188.951" gradientUnits="userSpaceOnUse">
<stop offset="0.3301" stop-color="#C4FFFF"/>
<stop offset="0.8279" stop-color="#47B4FF"/>
<stop offset="1" stop-color="#0C37A6"/>
</linearGradient>
<linearGradient id="paint3_linear_3632_75338" x1="278.227" y1="140.289" x2="328.478" y2="219.348" gradientUnits="userSpaceOnUse">
<stop offset="0.4054" stop-color="#032A3D" stop-opacity="0"/>
<stop offset="1" stop-color="#032A3D"/>
</linearGradient>
<linearGradient id="paint4_linear_3632_75338" x1="306.662" y1="204.195" x2="312.561" y2="179.088" gradientUnits="userSpaceOnUse">
<stop offset="0.2069" stop-color="#032A3D"/>
<stop offset="0.5151" stop-color="#032A3D" stop-opacity="0.2"/>
<stop offset="0.9216" stop-color="#032A3D"/>
</linearGradient>
<linearGradient id="paint5_linear_3632_75338" x1="133.046" y1="193.46" x2="162.588" y2="210.77" gradientUnits="userSpaceOnUse">
<stop offset="0.2655" stop-color="#032A3D" stop-opacity="0"/>
<stop offset="0.7809" stop-color="#032A3D"/>
</linearGradient>
<linearGradient id="paint6_linear_3632_75338" x1="133.526" y1="192.641" x2="163.068" y2="209.951" gradientUnits="userSpaceOnUse">
<stop offset="0.2655" stop-color="#032A3D" stop-opacity="0"/>
<stop offset="0.7809" stop-color="#032A3D"/>
</linearGradient>
<linearGradient id="paint7_linear_3632_75338" x1="136.684" y1="187.251" x2="166.225" y2="204.562" gradientUnits="userSpaceOnUse">
<stop offset="0.2655" stop-color="#032A3D" stop-opacity="0"/>
<stop offset="0.7809" stop-color="#032A3D"/>
</linearGradient>
<linearGradient id="paint8_linear_3632_75338" x1="134.438" y1="191.085" x2="163.979" y2="208.395" gradientUnits="userSpaceOnUse">
<stop offset="0.2655" stop-color="#032A3D" stop-opacity="0"/>
<stop offset="0.7809" stop-color="#032A3D"/>
</linearGradient>
<linearGradient id="paint9_linear_3632_75338" x1="136.04" y1="188.351" x2="165.581" y2="205.661" gradientUnits="userSpaceOnUse">
<stop offset="0.2655" stop-color="#032A3D" stop-opacity="0"/>
<stop offset="0.7809" stop-color="#032A3D"/>
</linearGradient>
<linearGradient id="paint10_linear_3632_75338" x1="136.297" y1="187.913" x2="165.838" y2="205.223" gradientUnits="userSpaceOnUse">
<stop offset="0.2655" stop-color="#032A3D" stop-opacity="0"/>
<stop offset="0.7809" stop-color="#032A3D"/>
</linearGradient>
<linearGradient id="paint11_linear_3632_75338" x1="137.905" y1="185.168" x2="167.446" y2="202.479" gradientUnits="userSpaceOnUse">
<stop offset="0.2655" stop-color="#032A3D" stop-opacity="0"/>
<stop offset="0.7809" stop-color="#032A3D"/>
</linearGradient>
<linearGradient id="paint12_linear_3632_75338" x1="286.447" y1="183.279" x2="327.954" y2="193.158" gradientUnits="userSpaceOnUse">
<stop offset="0.3715" stop-color="white" stop-opacity="0"/>
<stop offset="0.7103" stop-color="#FFFCFF"/>
</linearGradient>
<clipPath id="clip0_3632_75338">
<rect width="330" height="330" fill="white"/>
</clipPath>
</defs>
</svg>
