<svg width="330" height="330" viewBox="0 0 330 330" fill="none" xmlns="http://www.w3.org/2000/svg">
<g clip-path="url(#clip0_3671_12350)">
<path opacity="0.2" d="M165.531 286.039C203.088 286.039 233.534 255.725 233.534 218.33C233.534 180.936 203.088 150.621 165.531 150.621C127.974 150.621 97.5273 180.936 97.5273 218.33C97.5273 255.725 127.974 286.039 165.531 286.039Z" fill="url(#paint0_radial_3671_12350)"/>
<path opacity="0.34" d="M236.834 186.686C236.775 186.509 236.716 186.332 236.598 186.214C236.363 186.686 235.95 187.098 235.42 187.452C234.006 188.277 231.825 187.864 231.118 186.332C230.706 185.507 230.293 184.741 229.763 183.975C229.527 183.562 229.232 183.209 228.938 182.796C228.82 182.62 228.82 182.62 228.938 182.796C228.879 182.737 228.82 182.619 228.702 182.561C228.584 182.384 228.407 182.207 228.29 182.03C227.052 180.616 225.579 179.202 224.4 178.377C223.634 177.846 222.868 177.375 222.043 176.962C221.807 176.844 221.572 176.727 221.336 176.609C221.277 176.609 221.277 176.609 221.277 176.55C220.865 176.373 220.452 176.255 219.981 176.137C219.509 176.019 219.038 175.902 218.566 175.843C218.566 175.843 217.859 175.725 217.918 175.725C217.741 175.725 217.624 175.666 217.447 175.666C216.327 175.548 215.266 175.548 214.147 175.548C210.081 175.666 206.663 176.314 202.656 176.786C198.531 177.257 194.347 177.611 190.222 177.905C182.031 178.494 173.899 179.437 165.707 179.614C161.7 179.673 157.634 178.966 153.686 178.259C149.738 177.552 146.143 177.021 142.313 176.609C134.357 175.666 126.343 175.253 118.388 175.961C116.797 176.078 115.5 174.664 115.265 173.191C115.206 173.191 115.147 173.191 115.029 173.25C114.557 173.368 114.145 173.486 113.674 173.662C113.438 173.721 113.202 173.839 112.907 173.957C112.79 174.016 112.731 174.016 112.672 174.075C110.786 174.9 109.018 176.019 107.368 177.257C107.309 177.316 106.956 177.611 106.956 177.611C106.72 177.787 106.484 177.964 106.307 178.2C105.895 178.553 105.541 178.907 105.129 179.261C104.363 180.027 103.597 180.793 102.949 181.677C102.89 181.736 102.89 181.794 102.831 181.794C102.831 181.794 102.772 181.853 102.772 181.912C102.595 182.148 102.477 182.325 102.3 182.561C102.006 182.973 101.77 183.327 101.534 183.739C101.298 184.152 101.063 184.505 100.886 184.918C100.827 185.036 100.591 185.802 100.827 185.036C100.768 185.271 100.65 185.448 100.591 185.684C100.002 187.334 98.4699 188.277 96.7021 187.864C96.1128 187.746 95.5824 187.393 95.2288 186.921C95.1699 187.039 95.2878 187.157 95.2288 187.275C91.2806 196.527 88.9824 206.721 88.9824 217.446C88.9824 260.052 123.515 294.584 166.12 294.584C208.725 294.584 243.257 260.052 243.257 217.446C243.14 206.427 240.9 196.055 236.834 186.686Z" fill="url(#paint1_linear_3671_12350)"/>
<g opacity="0.2">
<path d="M226.287 245.968L225.816 245.909C225.521 248.266 218.626 251.507 217.153 251.743C216.564 251.861 216.21 251.684 215.857 251.566C215.385 251.33 214.855 251.153 213.912 251.684C212.38 252.627 207.076 258.461 205.898 261.289C204.719 264.177 204.012 265.709 201.301 266.769C199.828 267.359 197.648 267.359 195.291 267.359C193.11 267.359 190.93 267.359 189.162 267.83C186.569 268.537 184.094 269.716 182.916 270.305C183.564 269.598 184.153 268.891 184.742 268.184C185.803 266.946 186.746 265.827 187.335 265.414C188.16 264.825 190.93 264.53 193.817 264.236C197.766 263.823 202.303 263.352 203.658 261.996C205.249 260.523 207.489 254.866 209.257 250.387C210.199 247.971 211.024 245.909 211.555 245.084C212.085 244.2 213.558 243.198 215.149 242.137C217.86 240.369 220.924 238.307 220.866 235.891H220.394C220.453 238.071 217.507 240.016 214.914 241.725C213.205 242.844 211.732 243.846 211.142 244.789C210.612 245.673 209.787 247.736 208.844 250.152C207.076 254.63 204.837 260.169 203.364 261.584C202.833 262.055 201.832 262.468 200.476 262.762C201.301 262.291 202.362 261.584 203.069 260.641C204.366 258.991 205.485 255.102 206.016 253.039C206.133 252.686 206.192 252.391 206.251 252.155C206.428 251.507 206.192 251.094 205.957 250.682C205.662 250.211 205.367 249.739 205.544 248.561C205.78 247.264 206.487 246.734 207.312 246.203C207.842 245.85 208.373 245.437 208.785 244.789C209.787 243.198 209.139 241.548 208.844 240.723V240.664C208.608 240.075 208.078 240.134 207.666 240.134C207.253 240.193 207.017 240.193 206.899 239.957C206.782 239.721 207.076 239.25 207.43 238.778C207.901 238.071 208.491 237.246 208.137 236.539L207.724 236.716C207.96 237.246 207.489 237.894 207.076 238.484C206.664 239.132 206.251 239.721 206.546 240.193C206.841 240.664 207.371 240.664 207.783 240.605C208.196 240.546 208.373 240.546 208.491 240.841V240.9C208.785 241.725 209.374 243.198 208.491 244.553C208.137 245.084 207.666 245.437 207.135 245.85C206.31 246.439 205.485 247.087 205.191 248.561C204.955 249.916 205.308 250.505 205.662 250.977C205.898 251.33 206.016 251.566 205.898 252.037C205.839 252.214 205.721 252.568 205.662 252.921C205.132 254.807 204.012 258.814 202.774 260.405C201.36 262.173 198.944 263.057 198.708 263.175C197.176 263.411 195.467 263.587 193.817 263.764C190.694 264.118 187.983 264.412 187.099 265.002C186.451 265.473 185.508 266.593 184.389 267.889C182.267 270.364 179.321 273.841 177.317 273.664C176.257 273.605 175.137 273.369 173.958 273.134C171.542 272.662 168.832 272.073 165.885 272.603C159.816 273.723 157.812 274.902 156.574 276.316C155.396 277.671 154.807 279.439 154.807 279.498L155.219 279.675C155.219 279.675 155.808 277.907 156.928 276.611C158.048 275.255 160.051 274.136 165.944 273.016C168.773 272.486 171.483 273.016 173.841 273.546C175.078 273.782 176.198 274.018 177.258 274.136C178.732 274.253 180.558 272.78 182.267 270.953L182.385 271.13C182.444 271.13 185.744 269.244 189.28 268.302C190.93 267.83 193.169 267.83 195.291 267.83C197.707 267.83 199.946 267.83 201.478 267.241C204.366 266.121 205.191 264.412 206.369 261.525C207.489 258.814 212.733 253.039 214.207 252.155C214.914 251.743 215.267 251.861 215.739 252.037C216.092 252.214 216.564 252.391 217.33 252.273C218.921 251.919 225.933 248.678 226.287 245.968Z" fill="url(#paint2_linear_3671_12350)"/>
<path d="M170.54 256.987C169.715 257.812 169.892 259.168 170.01 260.818C170.128 262.35 170.304 264.059 169.597 265.473C168.242 268.243 162.172 270.423 162.113 270.423L162.29 270.895C162.526 270.777 168.595 268.655 170.01 265.709C170.776 264.177 170.599 262.35 170.422 260.759C170.304 259.286 170.187 257.989 170.835 257.341C171.542 256.634 174.076 256.045 176.315 255.573C178.908 254.984 181.088 254.512 181.678 253.746C182.208 253.039 182.326 252.391 182.385 251.802C182.503 251.153 182.562 250.682 183.151 250.27C183.445 250.093 184.978 250.152 186.628 250.27C191.165 250.505 198.06 250.918 200.476 247.5C202.42 244.789 201.772 242.845 201.183 241.077C200.712 239.662 200.299 238.484 201.183 237.011C201.89 235.832 203.069 235.478 204.424 235.007C207.076 234.182 210.376 233.121 212.438 226.286C212.91 224.695 212.674 223.045 212.438 221.453C212.085 219.332 211.79 217.387 213.086 215.502L212.733 215.207C211.378 217.211 211.731 219.391 212.026 221.512C212.262 223.103 212.497 224.636 212.085 226.109C210.081 232.65 206.899 233.711 204.365 234.536C202.892 235.007 201.654 235.42 200.888 236.716C199.945 238.366 200.417 239.78 200.888 241.195C201.478 242.903 202.067 244.671 200.24 247.205C197.942 250.387 190.929 249.975 186.804 249.739C185.213 249.621 184.212 249.621 183.563 249.68C183.858 249.032 183.976 248.148 184.153 247.087C184.447 245.32 184.801 243.257 185.862 242.196C186.392 241.666 187.158 241.43 188.101 241.136C190.399 240.428 193.581 239.545 196.115 233.003V232.945C196.587 230.705 196.056 229.114 195.526 228.171C195.29 227.759 194.819 227.523 194.347 227.287C193.817 227.052 193.228 226.757 192.756 226.05C191.931 224.812 191.578 217.918 191.872 216.621C191.872 216.503 191.931 216.445 191.931 216.445C191.99 216.386 192.285 216.503 192.52 216.562C193.228 216.798 194.465 217.27 195.938 216.209L195.644 215.796C194.347 216.739 193.345 216.386 192.638 216.091C192.226 215.973 191.931 215.855 191.695 215.973C191.519 216.032 191.46 216.209 191.401 216.445C191.106 217.741 191.401 224.812 192.344 226.286C192.874 227.111 193.581 227.405 194.112 227.641C194.524 227.818 194.878 227.995 195.054 228.289C195.526 229.173 196.056 230.587 195.585 232.709C193.169 239.014 190.104 239.898 187.865 240.546C186.863 240.841 186.038 241.077 185.39 241.725C184.27 242.962 183.917 245.025 183.563 246.911C183.328 248.148 183.151 249.268 182.738 249.798C182.09 250.27 181.972 250.918 181.854 251.566C181.736 252.155 181.678 252.686 181.206 253.334C180.735 253.982 178.26 254.512 176.079 254.984C173.722 255.632 171.365 256.162 170.54 256.987Z" fill="url(#paint3_linear_3671_12350)"/>
<path d="M171.247 210.316C171.837 210.964 172.308 211.436 172.013 212.85C171.837 213.793 171.306 215.148 170.717 216.621C169.715 219.155 168.713 221.807 169.185 223.045C169.421 223.634 169.774 224.046 170.128 224.459C170.894 225.343 171.66 226.227 171.247 228.878C170.894 231 169.774 232.65 168.89 234.005C168.124 235.184 167.417 236.186 167.476 237.128C167.535 237.895 167.947 238.425 168.36 238.896C169.067 239.78 169.833 240.723 168.831 243.08C168.065 244.907 167.004 245.378 166.179 245.732C165.237 246.145 164.471 246.498 164.765 248.207C165.06 250.034 166.238 251.271 167.358 252.391C168.183 253.216 169.008 254.1 169.538 255.22L169.951 254.984C169.362 253.805 168.478 252.862 167.653 252.037C166.533 250.918 165.472 249.798 165.178 248.089C164.942 246.734 165.472 246.498 166.356 246.086C167.24 245.673 168.478 245.143 169.303 243.198C170.422 240.605 169.538 239.486 168.713 238.484C168.301 238.012 167.947 237.541 167.888 236.952C167.829 236.127 168.419 235.243 169.185 234.123C170.128 232.768 171.306 231.059 171.601 228.82C172.013 225.932 171.188 224.93 170.363 224.046C170.01 223.634 169.715 223.28 169.479 222.75C169.067 221.748 170.128 219.037 171.012 216.68C171.601 215.207 172.131 213.852 172.308 212.85C172.662 211.2 172.072 210.552 171.424 209.903C171.012 209.432 170.54 208.961 170.363 208.077L169.892 208.195C170.304 209.314 170.776 209.845 171.247 210.316Z" fill="url(#paint4_linear_3671_12350)"/>
<path d="M173.604 274.195C172.013 273.429 168.006 273.075 165.531 273.487C163.174 273.9 158.99 274.843 157.399 276.611C156.456 277.612 155.631 279.557 155.631 279.616L156.043 279.793C156.043 279.793 156.868 277.848 157.752 276.905C159.343 275.196 163.763 274.254 165.649 273.959C168.242 273.487 172.072 273.959 173.427 274.607C174.901 275.314 175.431 276.434 175.49 276.905C175.726 278.555 172.956 280.029 172.956 280.029L173.192 280.441C173.309 280.382 176.256 278.791 175.961 276.846C175.843 276.08 175.136 274.902 173.604 274.195Z" fill="url(#paint5_linear_3671_12350)"/>
<path d="M174.784 245.614C175.609 245.968 176.434 246.262 176.964 247.028C177.612 247.912 178.909 250.21 177.2 252.214C176.493 253.039 174.725 253.687 173.016 254.335C171.307 254.925 169.716 255.514 169.244 256.28C168.714 257.105 168.832 258.519 168.95 260.169C169.068 261.643 169.185 263.175 168.832 264.353C168.125 266.769 162.055 269.657 161.996 269.716L162.173 270.128C162.409 270.01 168.537 267.123 169.303 264.471C169.657 263.175 169.539 261.584 169.48 260.11C169.362 258.637 169.303 257.223 169.716 256.516C170.128 255.868 171.719 255.278 173.251 254.748C175.019 254.1 176.846 253.452 177.612 252.509C178.968 250.918 178.909 248.796 177.435 246.734C176.846 245.85 175.903 245.496 175.078 245.143C174.253 244.789 173.428 244.494 173.075 243.728C172.368 242.196 172.898 240.487 173.9 239.898C174.135 239.721 174.371 239.603 174.666 239.427C175.491 238.896 176.375 238.425 177.435 237.246C178.85 235.714 181.501 229.468 181.973 226.462C182.267 224.694 181.737 223.928 181.266 223.103C180.853 222.455 180.441 221.807 180.323 220.51L179.851 220.569C179.969 221.925 180.441 222.691 180.853 223.339C181.325 224.105 181.796 224.812 181.501 226.403C181.03 229.35 178.437 235.478 177.082 236.952C176.08 238.071 175.196 238.543 174.371 239.014C174.135 239.191 173.841 239.309 173.605 239.485C172.485 240.252 171.837 242.196 172.662 243.964C173.016 244.848 173.9 245.26 174.784 245.614Z" fill="url(#paint6_linear_3671_12350)"/>
</g>
<g opacity="0.2">
<path d="M154.688 272.368C154.512 271.13 153.097 270.187 151.624 269.127C150.504 268.361 148.795 267.418 147.322 266.593C146.026 265.827 144.847 265.237 144.435 264.884C144.317 264.766 144.199 264.648 144.081 264.471C143.374 263.352 142.844 260.582 142.962 258.461C143.02 257.223 142.903 256.28 142.844 255.514C142.726 254.689 142.667 254.1 142.903 253.569C143.079 253.157 143.374 253.098 143.845 253.039C144.317 252.98 144.965 252.862 145.26 252.096C145.496 251.448 145.378 250.741 145.319 250.034C145.201 249.327 145.142 248.678 145.437 248.266C145.731 247.853 146.026 247.736 146.438 247.618C146.851 247.441 147.322 247.264 147.735 246.675C148.088 246.144 147.617 245.437 146.969 244.553C146.085 243.316 144.906 241.548 145.437 239.427C145.967 237.069 146.733 237.187 147.676 237.364C148.147 237.423 148.737 237.541 149.267 237.305C150.21 236.952 151.094 234.889 151.978 232.768C152.685 231.118 153.392 229.409 153.981 228.937C154.688 228.407 155.337 228.289 155.867 228.171C156.456 228.053 156.987 227.936 157.399 227.405C157.87 226.757 157.635 225.873 157.399 225.107C157.281 224.636 157.104 224.164 157.222 223.928L156.81 223.693C156.574 224.046 156.751 224.636 156.928 225.225C157.104 225.932 157.34 226.698 156.987 227.111C156.692 227.523 156.279 227.582 155.69 227.7C155.101 227.818 154.394 227.936 153.628 228.525C152.921 229.055 152.213 230.764 151.447 232.591C150.681 234.477 149.797 236.598 148.972 236.893C148.501 237.069 148.029 237.011 147.558 236.952C146.497 236.775 145.437 236.657 144.788 239.368C144.258 241.725 145.496 243.552 146.438 244.907C146.91 245.614 147.322 246.203 147.146 246.498C146.851 246.969 146.497 247.087 146.085 247.264C145.672 247.382 145.26 247.559 144.906 248.089C144.494 248.678 144.612 249.444 144.729 250.152C144.847 250.8 144.906 251.448 144.729 251.978C144.553 252.509 144.14 252.568 143.669 252.627C143.197 252.686 142.667 252.744 142.372 253.452C142.078 254.1 142.195 254.807 142.313 255.632C142.431 256.398 142.549 257.282 142.431 258.519C142.313 259.875 142.49 261.525 142.844 262.939C141.842 261.289 140.546 258.755 140.369 256.28C140.192 254.159 140.604 253.452 141.135 252.332C141.665 251.271 142.313 249.975 142.844 247.087C143.551 242.903 141.724 239.073 140.545 237.011C140.663 236.598 141.488 233.828 143.669 233.062L144.788 232.65C146.851 231.884 148.678 231.294 149.621 230.764C150.858 230.116 151.86 227.994 152.095 226.698C152.213 225.932 151.86 225.461 151.506 225.048C151.212 224.636 150.917 224.282 150.917 223.693C150.976 223.162 151.742 222.691 152.626 222.043C153.922 221.218 155.454 220.157 156.103 218.389C156.869 216.268 156.103 215.325 155.454 214.5C155.101 214.087 154.806 213.734 154.688 213.203L154.276 213.321C154.453 213.911 154.806 214.382 155.101 214.794C155.749 215.619 156.397 216.386 155.69 218.212C155.101 219.803 153.569 220.805 152.39 221.63C151.329 222.337 150.563 222.868 150.504 223.575C150.446 224.4 150.799 224.871 151.153 225.284C151.447 225.696 151.742 225.991 151.624 226.58C151.388 227.936 150.387 229.821 149.444 230.293C148.501 230.764 146.615 231.412 144.67 232.119L143.551 232.532C141.547 233.239 140.604 235.478 140.31 236.421C139.897 235.832 139.662 235.478 139.603 235.419C139.544 235.361 135.36 231.53 133.533 228.643C131.647 225.696 131.706 223.28 132.708 222.396C133.238 221.925 134.299 221.866 135.595 221.807C136.774 221.748 138.071 221.689 139.19 221.277C140.958 220.628 142.254 218.094 142.549 217.328C143.021 216.209 143.551 214.736 143.256 213.969C142.785 212.673 140.84 212.261 140.722 212.202L140.663 212.673C140.663 212.673 142.49 213.027 142.844 214.146C142.962 214.559 142.785 215.678 142.137 217.152C141.429 218.625 140.251 220.393 139.013 220.864C137.894 221.277 136.656 221.336 135.537 221.336C134.24 221.394 133.062 221.453 132.413 221.984C131.294 222.927 131.058 225.519 133.179 228.819C135.006 231.707 139.072 235.419 139.308 235.655C139.544 235.95 143.492 241.077 142.549 246.793C142.078 249.621 141.429 250.918 140.899 251.919C140.781 252.155 140.663 252.391 140.545 252.627C140.015 251.212 140.074 250.387 140.133 249.739C140.192 248.796 140.133 248.266 138.837 247.441C137.128 246.38 133.828 246.203 131.647 246.086C130.763 246.027 129.997 245.968 129.644 245.909C128.288 245.614 127.581 244.966 127.228 243.728C126.933 242.727 127.169 242.432 127.581 241.902C127.699 241.784 127.817 241.607 127.994 241.43C128.171 241.194 128.524 241.018 128.878 240.782C129.703 240.311 130.822 239.662 130.704 238.012C130.645 236.598 129.703 236.127 128.76 235.596C128.112 235.243 127.463 234.889 126.992 234.241C125.754 232.591 124.281 227.818 124.046 225.225C123.751 222.337 124.281 216.916 124.753 216.562C124.929 216.503 125.695 216.857 126.285 217.152C127.404 217.682 128.819 218.33 129.762 218.094C129.938 218.036 130.056 218.036 130.233 217.977C131.47 217.682 131.588 217.564 131.529 216.327C131.471 215.443 130.822 215.325 130.233 215.266C129.879 215.207 129.467 215.148 129.29 214.853C128.819 214.264 128.995 212.025 129.054 211.2L128.642 211.141C128.583 211.436 128.288 214.264 128.937 215.148C129.231 215.561 129.762 215.619 130.174 215.678C130.763 215.796 131.058 215.855 131.058 216.327C131.117 216.798 131.117 217.093 130.999 217.152C130.881 217.269 130.587 217.328 130.115 217.446C129.997 217.505 129.82 217.505 129.644 217.564C128.819 217.8 127.522 217.152 126.462 216.621C125.519 216.15 124.929 215.914 124.576 216.032C123.633 216.386 123.338 222.927 123.574 225.166C123.869 227.877 125.283 232.65 126.638 234.418C127.169 235.125 127.935 235.537 128.583 235.891C129.467 236.362 130.233 236.775 130.292 237.894C130.351 239.25 129.526 239.78 128.642 240.252C128.229 240.487 127.817 240.723 127.64 241.018C127.522 241.194 127.404 241.312 127.287 241.489C126.815 242.019 126.462 242.491 126.815 243.728C127.228 245.084 128.053 245.85 129.585 246.203C129.879 246.262 130.292 246.321 130.881 246.321C130.528 246.557 130.174 246.557 129.762 246.557C129.349 246.557 128.878 246.498 128.406 246.852C127.64 247.382 128.112 248.266 128.465 248.914C128.642 249.209 128.76 249.503 128.76 249.68C128.76 249.798 128.701 249.916 128.583 250.034C128.347 250.211 127.876 250.269 127.228 250.211C126.521 250.093 125.519 249.032 124.929 248.384C124.694 248.148 124.517 247.912 124.399 247.853C124.163 247.618 123.81 247.677 123.515 247.677C123.162 247.736 122.749 247.736 122.396 247.441C122.16 247.323 122.042 247.087 122.042 246.793C121.983 246.262 122.219 245.673 122.337 245.496C122.395 245.437 122.631 245.437 122.808 245.437C123.103 245.437 123.456 245.437 123.751 245.202C124.222 244.789 124.399 244.141 124.34 243.139C124.281 242.55 123.81 242.55 123.397 242.55C122.926 242.55 122.395 242.491 122.16 241.843C121.983 241.371 122.219 240.9 122.572 240.311C123.103 239.427 123.751 238.307 122.867 236.657C121.806 234.712 120.628 234.889 119.803 235.066C119.508 235.125 119.213 235.184 119.037 235.125C118.86 235.066 118.742 234.948 118.742 234.889C118.683 234.712 118.801 234.536 118.86 234.477L118.506 234.182C118.447 234.241 118.212 234.594 118.329 235.007C118.388 235.243 118.624 235.419 118.919 235.596C119.213 235.714 119.567 235.655 119.92 235.596C120.745 235.419 121.629 235.302 122.513 236.952C123.279 238.366 122.749 239.309 122.219 240.193C121.865 240.841 121.512 241.43 121.747 242.137C122.101 243.08 122.867 243.08 123.397 243.139C123.869 243.139 123.928 243.198 123.928 243.316C123.987 244.141 123.869 244.73 123.515 245.025C123.338 245.143 123.103 245.143 122.867 245.143C122.572 245.143 122.278 245.143 122.042 245.378C121.806 245.614 121.512 246.321 121.629 247.028C121.688 247.441 121.865 247.794 122.16 248.03C122.69 248.384 123.221 248.384 123.574 248.325C123.869 248.325 124.046 248.266 124.163 248.384C124.281 248.443 124.458 248.678 124.635 248.914C125.283 249.621 126.344 250.8 127.169 250.918C127.169 250.918 127.169 250.918 127.228 250.918C127.994 251.036 128.583 250.918 128.937 250.623C129.113 250.446 129.231 250.211 129.29 249.916C129.29 249.621 129.113 249.327 128.937 248.914C128.583 248.207 128.347 247.736 128.76 247.441C129.054 247.205 129.408 247.205 129.82 247.205C130.351 247.205 130.999 247.264 131.529 246.557C131.588 246.557 131.647 246.557 131.706 246.557C133.828 246.675 137.069 246.911 138.66 247.853C139.779 248.561 139.779 248.914 139.72 249.739C139.662 250.505 139.603 251.507 140.369 253.275C140.133 253.982 140.015 254.807 140.133 256.162C140.428 260.287 143.61 264.471 143.845 264.766C143.963 264.943 144.14 265.119 144.258 265.237C144.729 265.591 145.908 266.239 147.204 267.005C148.678 267.83 150.387 268.773 151.506 269.539C152.803 270.482 154.217 271.425 154.335 272.486C154.394 272.957 154.276 273.487 153.863 274.018C152.272 276.08 150.328 283.446 150.269 283.682L150.681 283.741C150.74 283.269 152.744 276.257 154.217 274.253C154.629 273.605 154.806 272.957 154.688 272.368Z" fill="url(#paint7_linear_3671_12350)"/>
<path d="M151.565 274.253C150.916 272.014 147.734 269.598 146.615 268.95C144.316 267.536 139.072 267.241 136.656 267.771C135.536 268.007 134.77 268.361 134.063 268.714C133.297 269.068 132.648 269.421 131.765 269.421C129.938 269.421 128.936 269.657 128.052 270.305C127.875 270.423 127.816 270.6 127.816 270.718C127.816 271.071 128.111 271.425 128.523 271.778C128.818 272.073 129.231 272.427 129.172 272.662C129.172 272.78 129.054 272.839 128.936 272.898C127.757 273.546 126.815 272.662 126.756 272.603L126.461 272.898C126.461 272.898 127.64 274.077 129.172 273.311C129.466 273.134 129.584 272.957 129.643 272.721C129.702 272.25 129.29 271.837 128.818 271.484C128.582 271.248 128.229 270.953 128.229 270.777L128.288 270.718C129.054 270.128 129.997 269.893 131.706 269.893C132.707 269.893 133.415 269.539 134.24 269.127C134.888 268.773 135.654 268.42 136.715 268.184C139.013 267.712 144.198 267.948 146.379 269.303C147.675 270.128 150.563 272.368 151.093 274.371C151.27 274.902 150.975 275.903 150.622 276.611C148.854 280.736 148.265 283.682 148.265 283.682L148.677 283.8C148.677 283.8 149.266 280.853 151.034 276.787C151.329 276.316 151.8 275.078 151.565 274.253Z" fill="url(#paint8_linear_3671_12350)"/>
<path d="M152.567 273.9C152.449 273.075 151.624 272.191 151.33 271.837C151.271 271.778 151.271 271.778 151.271 271.719C149.621 269.775 147.205 267.889 145.614 267.3C145.201 267.123 144.612 267.005 143.964 266.887C141.371 265.65 138.896 265.178 136.48 264.707C135.183 264.471 133.828 264.177 132.473 263.823C128.878 262.762 122.867 256.752 122.573 256.516C122.396 256.28 118.271 251.094 117.917 249.327C117.74 248.56 116.915 244.671 116.444 243.61C116.031 242.668 110.905 240.959 109.844 240.605H109.785C107.31 240.487 103.598 240.252 103.244 240.016C102.832 239.721 102.36 238.307 102.478 237.718C102.478 237.482 102.773 237.305 103.067 237.128C103.539 236.834 104.069 236.421 104.187 235.714C104.246 235.184 103.892 233.593 103.244 231.059C102.655 228.643 101.83 225.402 102.065 224.812C102.242 224.282 102.596 224.223 102.89 224.105C103.185 224.046 103.598 223.928 103.715 223.398C103.774 223.221 103.657 223.103 103.598 222.985C103.362 222.691 102.832 222.75 102.124 222.809C101.417 222.868 100.533 222.927 100.121 222.573L99.8262 222.927C100.357 223.398 101.299 223.339 102.124 223.28C102.537 223.28 103.126 223.221 103.244 223.339C103.185 223.575 103.067 223.634 102.773 223.693C102.419 223.81 101.889 223.928 101.594 224.694C101.358 225.343 101.889 227.7 102.773 231.235C103.244 233.239 103.774 235.243 103.715 235.714C103.657 236.244 103.185 236.539 102.773 236.834C102.36 237.069 102.007 237.364 101.948 237.777C101.83 238.543 102.36 240.134 102.949 240.546C103.421 240.9 108.194 241.135 109.667 241.194C112.614 242.137 115.737 243.434 115.973 243.905C116.326 244.73 116.915 247.382 117.446 249.562C117.858 251.507 122.042 256.752 122.219 256.987C122.455 257.223 128.524 263.352 132.296 264.412C133.651 264.825 135.007 265.061 136.303 265.296C138.248 265.65 140.192 266.062 142.196 266.828C141.076 266.71 139.839 266.593 138.719 266.534C137.717 266.475 136.833 266.416 136.067 266.298C130.469 265.709 127.405 264.884 125.342 263.41C123.044 261.819 116.208 255.809 115.678 255.102C115.383 254.748 115.265 254.277 115.089 253.746C114.971 253.334 114.853 252.862 114.617 252.332C113.733 250.387 110.492 248.325 108.135 246.793C106.898 246.027 105.837 245.319 105.601 244.966C105.248 244.435 105.365 244.082 105.542 243.61C105.66 243.316 105.837 242.903 105.837 242.432H105.365C105.365 242.844 105.248 243.139 105.13 243.434C104.894 243.964 104.717 244.435 105.189 245.202C105.483 245.614 106.485 246.262 107.84 247.146C110.139 248.619 113.38 250.682 114.146 252.45C114.382 252.921 114.499 253.393 114.617 253.805C114.794 254.394 114.912 254.866 115.265 255.337C115.855 256.044 122.749 262.114 125.048 263.764C127.169 265.237 130.292 266.121 135.949 266.71C136.657 266.769 137.599 266.828 138.601 266.946C141.076 267.123 143.905 267.3 145.26 267.83C146.792 268.36 149.149 270.187 150.74 272.132C150.74 272.132 150.799 272.191 150.858 272.25C151.094 272.544 151.919 273.428 151.978 274.077C152.096 274.725 151.624 276.021 150.976 277.73C150.387 279.38 149.621 281.384 148.973 283.859L149.385 283.977C150.033 281.502 150.799 279.498 151.389 277.848C152.273 275.903 152.685 274.666 152.567 273.9Z" fill="url(#paint9_linear_3671_12350)"/>
<path d="M105.483 211.082C105.424 211.436 105.071 211.966 104.658 212.555C103.892 213.675 103.067 214.912 103.597 215.855C103.892 216.386 104.599 216.857 105.424 217.446C106.956 218.448 108.901 219.744 109.667 222.102C110.905 225.814 114.087 232.414 114.087 232.473V232.532C114.146 232.591 117.976 237.836 116.621 242.844L117.033 242.962C118.389 237.777 114.735 232.65 114.381 232.237C114.381 232.178 114.264 232.002 114.146 231.766C114.676 231.648 115.855 231.294 116.68 230.234C117.269 229.468 117.505 228.407 117.387 227.228C117.151 225.166 116.149 223.221 115.265 221.571C114.499 220.098 113.851 218.861 113.969 217.977C114.028 217.152 114.499 217.034 115.089 216.857C115.796 216.68 116.68 216.386 116.856 214.853C117.033 213.203 115.914 212.496 114.971 211.966C114.205 211.494 113.792 211.2 113.851 210.669C113.969 209.196 116.031 207.134 116.09 207.134L115.796 206.78C115.678 206.839 113.556 208.961 113.439 210.611C113.38 211.436 114.087 211.907 114.794 212.319C115.678 212.85 116.621 213.439 116.444 214.794C116.326 216.032 115.678 216.209 114.971 216.386C114.322 216.562 113.615 216.739 113.556 217.859C113.498 218.919 114.146 220.216 114.912 221.748C115.737 223.398 116.739 225.284 116.974 227.287C117.092 228.348 116.915 229.232 116.385 229.939C115.619 230.941 114.44 231.236 114.028 231.294C113.144 229.35 111.022 224.753 110.08 221.866C109.255 219.391 107.192 217.977 105.66 216.975C104.894 216.444 104.187 215.973 103.951 215.561C103.539 214.853 104.305 213.675 104.953 212.732C105.365 212.084 105.778 211.494 105.837 211.082C105.896 210.434 105.306 209.491 104.54 208.371C103.892 207.369 103.126 206.25 103.008 205.425L102.596 205.484C102.714 206.427 103.48 207.546 104.187 208.607C104.894 209.668 105.542 210.611 105.483 211.082Z" fill="url(#paint10_linear_3671_12350)"/>
<path d="M149.974 275.785C149.444 274.548 147.853 273.546 146.733 272.839C146.262 272.544 145.908 272.309 145.731 272.132C145.555 271.955 145.496 271.778 145.496 271.601C145.378 271.071 145.201 270.6 144.081 270.128C142.373 269.421 138.248 269.068 136.951 269.893C136.421 270.246 136.303 270.659 136.362 271.012C136.48 271.955 137.599 272.78 138.66 273.134C139.367 273.369 139.426 274.076 139.485 274.901C139.544 275.55 139.603 276.198 140.074 276.61C140.369 276.846 140.546 277.082 140.487 277.318C140.428 277.553 140.015 277.848 139.073 277.966C137.776 278.084 135.772 277.612 135.714 277.553L135.596 277.966C135.655 277.966 137.717 278.496 139.073 278.378C140.074 278.26 140.723 277.907 140.84 277.376C140.958 276.964 140.723 276.551 140.251 276.198C139.956 275.962 139.897 275.432 139.839 274.843C139.78 274.018 139.721 273.016 138.719 272.721C137.717 272.368 136.774 271.601 136.715 270.953C136.656 270.718 136.833 270.482 137.069 270.305C138.247 269.598 142.078 269.834 143.846 270.541C144.847 270.953 144.906 271.307 145.024 271.66C145.083 271.896 145.142 272.191 145.378 272.426C145.555 272.603 145.967 272.898 146.439 273.193C147.499 273.841 149.031 274.901 149.503 275.962C149.856 276.728 149.444 277.553 148.914 278.732C148.442 279.851 147.794 281.207 147.558 283.034L147.971 283.093C148.206 281.325 148.796 279.969 149.326 278.909C149.974 277.73 150.387 276.728 149.974 275.785Z" fill="url(#paint11_linear_3671_12350)"/>
</g>
<path d="M165 183.444C186.48 183.444 203.893 174.078 203.893 162.525C203.893 150.971 186.48 141.605 165 141.605C143.52 141.605 126.107 150.971 126.107 162.525C126.107 174.078 143.52 183.444 165 183.444Z" fill="#2A697F"/>
<path d="M164.648 162.82C174.086 162.82 181.737 159.047 181.737 154.393C181.737 149.739 174.086 145.966 164.648 145.966C155.21 145.966 147.559 149.739 147.559 154.393C147.559 159.047 155.21 162.82 164.648 162.82Z" fill="#293C4F"/>
<path d="M164.646 147.97C173.368 147.97 180.557 151.211 181.559 155.395C181.618 155.041 181.677 154.746 181.677 154.393C181.677 149.737 174.016 145.966 164.587 145.966C155.159 145.966 147.498 149.737 147.498 154.393C147.498 154.746 147.557 155.1 147.616 155.395C148.736 151.211 155.925 147.97 164.646 147.97Z" fill="#DBDBDB"/>
<path d="M181.559 157.104L181.147 155.454C180.145 151.387 173.073 148.323 164.588 148.323C156.161 148.323 149.031 151.387 148.029 155.454L147.616 157.104L147.204 155.454C147.086 155.1 147.086 154.687 147.086 154.334C147.086 151.918 148.913 149.679 152.331 148.029C155.631 146.379 159.932 145.495 164.588 145.495C169.184 145.495 173.545 146.379 176.845 148.029C180.204 149.679 182.09 151.918 182.09 154.334C182.09 154.687 182.031 155.041 181.972 155.454L181.559 157.104ZM164.647 147.557C172.307 147.557 178.907 150.032 181.206 153.627C180.381 149.561 173.25 146.379 164.647 146.379C155.984 146.379 148.854 149.561 148.088 153.627C150.386 150.091 156.986 147.557 164.647 147.557Z" fill="#323A50"/>
<path d="M165.059 141.723C143.609 141.723 126.166 150.857 126.166 162.171C126.166 173.486 143.55 182.62 165.059 182.62C186.509 182.62 203.952 173.486 203.952 162.171C203.952 150.857 186.568 141.723 165.059 141.723ZM181.736 154.511C181.736 154.57 181.795 154.628 181.795 154.628C181.795 154.687 181.795 154.746 181.795 154.805C181.087 159.048 173.78 162.407 164.764 162.407C156.043 162.407 148.854 159.225 147.852 155.159C147.852 155.041 147.793 154.923 147.793 154.864C147.793 154.805 147.793 154.746 147.793 154.687C147.793 154.629 147.793 154.687 147.793 154.628C147.793 154.511 147.793 154.982 147.793 154.393C147.793 154.393 147.793 153.98 147.793 153.862C147.852 153.273 148.029 152.684 148.323 152.154C148.618 151.623 148.971 151.093 149.443 150.621L149.502 150.562C152.271 147.793 158.105 145.907 164.882 145.907C174.311 145.907 181.971 149.62 181.971 154.157H181.795C181.677 154.334 181.736 154.452 181.736 154.511Z" fill="#DBDBDB"/>
<path d="M165.059 183.032C154.629 183.032 144.788 180.911 137.363 177.021C129.879 173.073 125.754 167.828 125.754 162.23C125.754 156.632 129.879 151.328 137.363 147.439C144.788 143.55 154.57 141.428 165.059 141.428C175.549 141.428 185.331 143.55 192.756 147.439C200.24 151.387 204.365 156.632 204.365 162.23C204.365 167.828 200.24 173.132 192.756 177.021C185.39 180.852 175.549 183.032 165.059 183.032ZM165.059 142.136C143.845 142.136 126.579 151.152 126.579 162.171C126.579 173.191 143.845 182.207 165.059 182.207C186.274 182.207 203.54 173.191 203.54 162.171C203.54 151.093 186.274 142.136 165.059 142.136ZM164.706 162.82C155.925 162.82 148.441 159.578 147.381 155.277C147.381 155.159 147.322 155.041 147.322 154.923C147.322 154.864 147.322 154.805 147.263 154.746C147.263 154.687 147.263 154.628 147.263 154.628V154.57C147.263 154.452 147.263 154.334 147.263 154.157V153.745C147.322 153.155 147.499 152.566 147.852 151.977C148.147 151.446 148.5 150.916 149.031 150.386L149.09 150.327C152.036 147.38 158.047 145.553 164.765 145.553C169.361 145.553 173.722 146.437 177.022 148.028C180.381 149.678 182.266 151.859 182.266 154.216V154.628H182.149C182.149 154.687 182.149 154.687 182.149 154.746C182.149 154.805 182.149 154.864 182.09 154.923C181.382 159.461 173.899 162.82 164.706 162.82ZM148.088 154.098C148.088 154.275 148.088 154.334 148.088 154.452V154.511C148.088 154.57 148.088 154.57 148.088 154.628C148.088 154.687 148.088 154.746 148.088 154.805C148.088 154.923 148.147 154.982 148.147 155.1C149.149 159.048 156.22 162.053 164.706 162.053C173.368 162.053 180.616 158.871 181.324 154.805V154.746C181.324 154.687 181.265 154.628 181.324 154.511V154.452C181.324 154.393 181.324 154.334 181.324 154.216V153.803H181.5C181.265 151.918 179.615 150.15 176.727 148.736C173.545 147.203 169.302 146.378 164.824 146.378C158.4 146.378 152.449 148.146 149.679 150.916L149.62 150.975C149.149 151.446 148.854 151.859 148.618 152.33C148.324 152.861 148.206 153.332 148.147 153.803C148.088 153.862 148.088 154.098 148.088 154.098Z" fill="#323A50"/>
<g opacity="0.3">
<path d="M166.062 295.173C166.004 295.173 165.945 295.173 165.945 295.173C152.273 295.173 138.72 291.402 126.698 284.271H126.639L126.05 283.682C111.023 274.961 99.7089 261.407 93.4035 244.436C90.8696 237.895 89.3374 230.882 88.6892 222.986C88.5124 219.273 88.5124 215.855 88.6892 212.143C88.866 208.489 89.3964 204.836 90.3392 200.475C91.2821 196.114 92.6964 191.695 94.7589 187.039L95.5249 187.393C93.5214 191.989 92.1071 196.35 91.1642 200.652C90.2214 204.953 89.7499 208.607 89.5732 212.202C89.3964 215.855 89.3964 219.273 89.5732 222.927C90.2214 230.705 91.7535 237.659 94.2285 244.141C100.534 260.936 111.73 274.371 126.58 282.975H126.639L127.229 283.564C151.448 297.884 180.5 297.943 204.896 283.741C206.075 282.916 207.312 282.091 208.786 281.325C221.691 273.016 231.355 261.23 237.484 246.145C237.779 245.437 238.014 244.671 238.309 243.905C238.545 243.139 238.839 242.373 239.134 241.666C243.789 227.405 244.379 212.85 240.725 198.353V198.295C240.607 197.705 238.191 190.28 236.718 186.921L237.484 186.627C238.839 189.75 241.314 197.175 241.491 198.177C245.145 212.791 244.614 227.523 239.841 241.902V241.961C239.546 242.668 239.311 243.434 239.016 244.141C238.78 244.907 238.486 245.673 238.191 246.439C231.945 261.643 222.221 273.664 209.139 282.032C207.725 282.857 206.487 283.682 205.309 284.448C193.17 291.461 179.675 295.173 166.062 295.173Z" fill="#323A50"/>
</g>
<path d="M263.235 189.514C261.349 183.268 256.399 179.084 248.444 177.021C243.906 175.843 239.605 175.725 237.837 175.725C237.778 175.489 237.66 175.254 237.483 175.077C239.015 175.018 243.671 175.077 248.621 176.373C256.694 178.495 261.939 182.973 263.883 189.279C264.296 190.104 275.905 214.5 277.319 228.761C277.673 232.532 280.737 233.357 286.276 234.889C290.873 236.127 297.178 237.836 305.015 242.079L304.721 242.668C296.942 238.484 290.696 236.775 286.099 235.538C280.442 234.005 277.024 233.063 276.612 228.879C275.433 217.211 267.419 198.707 264.414 192.048C264.59 196.998 261.173 203.775 254.16 212.379C247.442 220.57 237.542 230.47 224.578 241.725C219.805 245.909 214.973 249.916 210.258 253.688L209.492 253.452C214.206 249.68 219.215 245.496 224.106 241.195C253.158 215.973 266.653 198.118 263.235 189.514Z" fill="#323A50"/>
<path d="M239.841 181.795C239.782 181.323 239.192 179.025 239.016 178.612C239.075 178.377 239.959 179.791 239.9 179.555C239.9 179.084 239.605 178.612 239.193 178.318C239.251 177.846 239.251 177.611 238.78 177.316C238.839 177.08 238.309 177.08 238.25 176.904C239.075 178.318 240.076 180.145 240.371 181.677C241.726 188.748 230.884 205.543 208.255 231.589C203.246 237.305 198.178 243.021 193.641 247.854L192.934 247.618C213.205 225.755 241.55 192.579 239.841 181.795Z" fill="#323A50"/>
<path d="M237.602 175.018C237.719 175.136 237.778 175.254 237.896 175.371L242.139 175.195C240.135 175.018 238.544 175.018 237.602 175.018Z" fill="#323A50"/>
<path d="M238.722 177.08L249.565 176.668C249.152 176.55 248.74 176.432 248.268 176.314L238.545 176.727C238.604 176.786 238.663 176.903 238.722 177.08Z" fill="#323A50"/>
<path d="M239.134 178.73L253.571 178.141C253.277 178.023 253.041 177.905 252.746 177.787L238.957 178.318C238.957 178.377 238.957 178.436 238.957 178.494C239.016 178.553 239.075 178.671 239.134 178.73Z" fill="#323A50"/>
<path d="M239.841 180.439L256.458 179.791C256.282 179.673 256.046 179.555 255.869 179.378L239.723 180.027C239.723 180.144 239.782 180.321 239.841 180.439Z" fill="#323A50"/>
<path d="M239.959 182.03L258.404 181.264C258.227 181.146 258.109 181.029 257.932 180.852L239.959 181.559C239.959 181.736 239.959 181.854 239.959 182.03Z" fill="#323A50"/>
<path d="M240.076 183.739L260.112 182.914C259.994 182.796 259.876 182.678 259.758 182.502L240.076 183.327C240.076 183.445 240.076 183.562 240.076 183.739Z" fill="#323A50"/>
<path d="M239.782 185.095C239.723 185.212 239.723 185.33 239.664 185.389L261.35 184.505C261.232 184.387 261.173 184.211 261.055 184.093L239.841 185.036L239.782 185.095Z" fill="#323A50"/>
<path d="M239.252 186.921C239.252 186.98 239.193 187.098 239.193 187.157L262.411 186.214C262.352 186.096 262.293 185.92 262.176 185.802L239.311 186.745C239.311 186.804 239.252 186.862 239.252 186.921Z" fill="#323A50"/>
<path d="M238.604 188.513L263.001 187.511C263.06 187.629 263.118 187.805 263.177 187.923L238.486 188.925C238.486 188.748 238.545 188.63 238.604 188.513Z" fill="#323A50"/>
<path d="M237.837 190.221L263.589 189.161C263.648 189.279 263.648 189.396 263.707 189.573L237.66 190.634C237.719 190.516 237.778 190.398 237.837 190.221Z" fill="#323A50"/>
<path d="M237.072 191.93L263.943 190.87C263.943 190.987 264.002 191.105 264.002 191.282L236.836 192.402C236.895 192.225 236.954 192.107 237.072 191.93Z" fill="#323A50"/>
<path d="M236.128 193.698L264.119 192.579C264.119 192.696 264.119 192.873 264.119 192.991L235.951 194.111C235.951 193.993 236.069 193.875 236.128 193.698Z" fill="#323A50"/>
<path d="M235.245 195.348L263.944 194.17C263.944 194.288 263.885 194.464 263.885 194.582L235.01 195.761C235.069 195.584 235.128 195.466 235.245 195.348Z" fill="#323A50"/>
<path d="M234.183 197.116L263.588 195.938C263.529 196.055 263.529 196.232 263.47 196.35L233.947 197.529C234.006 197.352 234.124 197.234 234.183 197.116Z" fill="#323A50"/>
<path d="M233.122 198.825L263.058 197.587C262.999 197.705 262.94 197.882 262.881 198L232.887 199.237C232.946 199.12 233.005 198.943 233.122 198.825Z" fill="#323A50"/>
<path d="M232.003 200.593L262.352 199.355C262.293 199.473 262.234 199.65 262.175 199.768L231.768 201.005C231.768 200.887 231.885 200.77 232.003 200.593Z" fill="#323A50"/>
<path d="M230.884 202.243L261.527 201.005C261.468 201.123 261.41 201.3 261.292 201.418L230.59 202.655C230.708 202.538 230.767 202.42 230.884 202.243Z" fill="#323A50"/>
<path d="M229.646 204.011L260.583 202.773C260.524 202.891 260.407 203.068 260.348 203.186L229.41 204.423C229.469 204.305 229.587 204.187 229.646 204.011Z" fill="#323A50"/>
<path d="M228.468 205.779L259.582 204.541C259.524 204.659 259.406 204.836 259.347 204.954L228.232 206.191C228.232 206.073 228.35 205.896 228.468 205.779Z" fill="#323A50"/>
<path d="M227.172 207.546L258.404 206.309C258.286 206.427 258.227 206.603 258.109 206.721L226.877 207.959C226.936 207.841 227.054 207.664 227.172 207.546Z" fill="#323A50"/>
<path d="M225.992 209.196L257.283 207.959C257.165 208.077 257.106 208.254 256.988 208.371L225.697 209.668C225.756 209.432 225.874 209.314 225.992 209.196Z" fill="#323A50"/>
<path d="M224.638 210.964L255.929 209.668C255.812 209.786 255.694 209.962 255.635 210.08L224.344 211.377C224.403 211.259 224.521 211.082 224.638 210.964Z" fill="#323A50"/>
<path d="M223.342 212.673L254.633 211.377C254.515 211.495 254.397 211.671 254.279 211.789L222.988 213.027C223.106 212.968 223.224 212.85 223.342 212.673Z" fill="#323A50"/>
<path d="M221.926 214.5L253.158 213.262C253.04 213.38 252.922 213.557 252.804 213.675L221.572 214.912C221.749 214.736 221.808 214.618 221.926 214.5Z" fill="#323A50"/>
<path d="M220.572 216.209L251.687 214.971C251.569 215.089 251.451 215.266 251.333 215.384L220.219 216.621C220.337 216.504 220.454 216.386 220.572 216.209Z" fill="#323A50"/>
<path d="M219.158 217.977L250.154 216.739C250.036 216.857 249.919 217.034 249.801 217.152L218.863 218.389C218.922 218.271 219.04 218.154 219.158 217.977Z" fill="#323A50"/>
<path d="M217.743 219.745L248.562 218.507C248.444 218.625 248.326 218.802 248.15 218.92L217.33 220.157C217.507 220.039 217.625 219.862 217.743 219.745Z" fill="#323A50"/>
<path d="M216.387 221.454L247.03 220.216C246.912 220.334 246.794 220.511 246.617 220.629L216.033 221.866C216.151 221.689 216.269 221.571 216.387 221.454Z" fill="#323A50"/>
<path d="M215.031 223.045L245.497 221.807C245.38 221.925 245.203 222.102 245.085 222.22L214.678 223.457C214.796 223.339 214.913 223.221 215.031 223.045Z" fill="#323A50"/>
<path d="M213.559 224.871L243.789 223.634C243.671 223.752 243.494 223.928 243.377 224.046L213.205 225.284C213.323 225.107 213.441 224.989 213.559 224.871Z" fill="#323A50"/>
<path d="M212.145 226.58L242.08 225.343C241.962 225.461 241.786 225.637 241.668 225.755L211.791 226.993C211.909 226.875 212.027 226.757 212.145 226.58Z" fill="#323A50"/>
<path d="M210.613 228.348L240.254 227.17C240.137 227.288 239.96 227.464 239.842 227.582L210.26 228.761C210.378 228.643 210.496 228.525 210.613 228.348Z" fill="#323A50"/>
<path d="M209.197 230.057L238.544 228.878C238.426 228.996 238.249 229.173 238.131 229.291L208.844 230.469C208.962 230.293 209.079 230.175 209.197 230.057Z" fill="#323A50"/>
<path d="M207.784 231.648L236.835 230.47C236.659 230.588 236.541 230.764 236.364 230.882L207.371 232.061C207.548 231.943 207.666 231.825 207.784 231.648Z" fill="#323A50"/>
<path d="M206.252 233.475L234.951 232.296C234.774 232.414 234.656 232.591 234.479 232.709L205.84 233.887C206.017 233.711 206.134 233.593 206.252 233.475Z" fill="#323A50"/>
<path d="M204.719 235.184L233.063 234.064C232.887 234.182 232.769 234.359 232.592 234.477L204.365 235.596C204.483 235.478 204.601 235.361 204.719 235.184Z" fill="#323A50"/>
<path d="M203.188 237.011L231.12 235.891C230.943 236.009 230.825 236.186 230.649 236.304L202.775 237.423C202.893 237.246 203.011 237.129 203.188 237.011Z" fill="#323A50"/>
<path d="M201.596 238.779L229.174 237.659C228.998 237.777 228.88 237.954 228.703 238.071L201.242 239.191C201.301 239.073 201.419 238.955 201.596 238.779Z" fill="#323A50"/>
<path d="M200.123 240.428L227.289 239.309C227.112 239.427 226.995 239.603 226.818 239.721L199.77 240.841C199.887 240.723 200.005 240.546 200.123 240.428Z" fill="#323A50"/>
<path d="M198.531 242.196L225.285 241.136C225.108 241.254 224.99 241.43 224.813 241.548L198.178 242.609C198.237 242.491 198.413 242.373 198.531 242.196Z" fill="#323A50"/>
<path d="M196.942 243.964L223.224 242.904C223.047 243.021 222.87 243.198 222.753 243.316L196.529 244.377C196.706 244.259 196.824 244.082 196.942 243.964Z" fill="#323A50"/>
<path d="M195.35 245.732L221.219 244.671C221.043 244.789 220.866 244.966 220.748 245.084L194.996 246.145C195.055 246.027 195.173 245.909 195.35 245.732Z" fill="#323A50"/>
<path d="M193.819 247.382L219.217 246.38C219.04 246.498 218.863 246.675 218.746 246.793L193.406 247.795C193.583 247.677 193.701 247.559 193.819 247.382Z" fill="#323A50"/>
<path d="M194.289 248.973L217.33 248.03C217.153 248.148 216.977 248.325 216.8 248.443L195.291 249.327C194.996 249.209 194.643 249.091 194.289 248.973Z" fill="#323A50"/>
<path d="M198.826 250.505L215.149 249.857C214.973 249.975 214.796 250.152 214.619 250.27L199.887 250.859C199.592 250.741 199.18 250.623 198.826 250.505Z" fill="#323A50"/>
<path d="M203.482 251.978L213.029 251.566C212.852 251.684 212.675 251.861 212.498 251.978L204.602 252.273C204.249 252.214 203.895 252.096 203.482 251.978Z" fill="#323A50"/>
<path d="M208.137 253.511L210.847 253.393C210.671 253.511 210.494 253.687 210.317 253.805L209.197 253.864C208.844 253.805 208.49 253.687 208.137 253.511Z" fill="#323A50"/>
<path d="M69.4776 189.514C71.3634 183.268 76.3133 179.084 84.2687 177.021C88.8062 175.843 93.108 175.725 94.8758 175.725C94.9348 175.489 95.0526 175.254 95.2294 175.077C93.6973 175.018 89.0419 175.077 84.0919 176.373C76.0187 178.495 70.774 182.973 68.8294 189.279C68.4169 190.104 56.808 214.5 55.3937 228.761C55.0401 232.532 51.9758 233.357 46.4365 234.889C41.8401 236.127 35.5348 237.836 27.6973 242.079L27.9919 242.668C35.7705 238.484 42.0169 236.775 46.6133 235.538C52.2705 234.005 55.6883 233.063 56.1008 228.879C57.2794 217.211 65.2937 198.707 68.2991 192.048C68.1223 196.998 71.5401 203.775 78.5526 212.379C85.2705 220.57 95.1705 230.47 108.135 241.725C112.908 245.909 117.74 249.916 122.454 253.688L123.22 253.452C118.506 249.68 113.497 245.496 108.606 241.195C79.6133 215.973 66.1187 198.118 69.4776 189.514Z" fill="#323A50"/>
<path d="M92.9305 181.795C92.9894 181.323 93.5787 179.025 93.7555 178.612C93.6965 178.377 92.8126 179.791 92.8715 179.555C92.8715 179.084 93.1662 178.612 93.5787 178.318C93.5198 177.846 93.5198 177.611 93.9912 177.316C93.9323 177.08 94.4626 177.08 94.5216 176.904C93.6966 178.318 92.6948 180.145 92.4001 181.677C91.0448 188.748 101.888 205.543 124.516 231.589C129.525 237.305 134.593 243.021 139.13 247.854L139.838 247.618C119.566 225.755 91.2216 192.579 92.9305 181.795Z" fill="#323A50"/>
<path d="M95.1703 175.018C95.0525 175.136 94.9935 175.254 94.8757 175.371L90.6328 175.195C92.5775 175.018 94.1685 175.018 95.1703 175.018Z" fill="#323A50"/>
<path d="M94.0499 177.08L83.207 176.668C83.6195 176.55 84.032 176.432 84.5035 176.314L94.2267 176.727C94.1088 176.786 94.1088 176.903 94.0499 177.08Z" fill="#323A50"/>
<path d="M93.6387 178.73L79.2012 178.141C79.4958 178.023 79.7315 177.905 80.0262 177.787L93.8155 178.318C93.8155 178.377 93.8155 178.436 93.8155 178.494C93.6976 178.553 93.6976 178.671 93.6387 178.73Z" fill="#323A50"/>
<path d="M92.9304 180.439L76.3125 179.791C76.4893 179.673 76.725 179.555 76.9018 179.378L93.0482 180.027C92.9893 180.144 92.9893 180.321 92.9304 180.439Z" fill="#323A50"/>
<path d="M92.7533 182.03L74.3086 181.264C74.4854 181.146 74.6033 181.029 74.7801 180.852L92.7533 181.559C92.7533 181.736 92.7533 181.854 92.7533 182.03Z" fill="#323A50"/>
<path d="M92.6959 183.739L72.6602 182.914C72.778 182.796 72.8959 182.678 73.0137 182.502L92.6959 183.327C92.6959 183.445 92.6959 183.562 92.6959 183.739Z" fill="#323A50"/>
<path d="M92.9312 185.095C92.9901 185.212 92.9901 185.33 93.049 185.389L71.3633 184.505C71.4811 184.387 71.5401 184.211 71.6579 184.093L92.9312 184.977C92.9312 185.036 92.9312 185.095 92.9312 185.095Z" fill="#323A50"/>
<path d="M93.5203 186.921C93.5203 186.98 93.5792 187.098 93.5792 187.157L70.3613 186.214C70.4203 186.096 70.4792 185.92 70.597 185.802L93.4613 186.745C93.4613 186.804 93.4613 186.862 93.5203 186.921Z" fill="#323A50"/>
<path d="M94.1689 188.513L69.7725 187.511C69.7136 187.629 69.6546 187.805 69.5957 187.923L94.2868 188.925C94.2868 188.748 94.2279 188.63 94.1689 188.513Z" fill="#323A50"/>
<path d="M94.8755 190.221L69.1237 189.161C69.0648 189.279 69.0648 189.396 69.0059 189.573L95.0523 190.634C94.9934 190.516 94.9344 190.398 94.8755 190.221Z" fill="#323A50"/>
<path d="M95.6999 191.93L68.8284 190.87C68.8284 190.987 68.7695 191.105 68.7695 191.282L95.9356 192.402C95.8767 192.225 95.7588 192.107 95.6999 191.93Z" fill="#323A50"/>
<path d="M96.6434 193.698L68.6523 192.579C68.6523 192.696 68.6523 192.873 68.6523 192.991L96.8202 194.111C96.7613 193.993 96.7023 193.875 96.6434 193.698Z" fill="#323A50"/>
<path d="M97.5283 195.348L68.8301 194.17C68.8301 194.288 68.889 194.464 68.889 194.582L97.764 195.761C97.7051 195.584 97.5872 195.466 97.5283 195.348Z" fill="#323A50"/>
<path d="M98.5889 197.116L69.1836 195.938C69.2425 196.055 69.2425 196.232 69.3014 196.35L98.8247 197.529C98.7657 197.352 98.6479 197.234 98.5889 197.116Z" fill="#323A50"/>
<path d="M99.6486 198.825L69.7129 197.587C69.7718 197.705 69.8307 197.882 69.8897 198L99.8843 199.237C99.8254 199.12 99.7075 198.943 99.6486 198.825Z" fill="#323A50"/>
<path d="M100.768 200.593L70.4199 199.355C70.4789 199.473 70.5378 199.65 70.5967 199.768L101.004 201.005C100.945 200.887 100.886 200.77 100.768 200.593Z" fill="#323A50"/>
<path d="M101.889 202.243L71.2461 201.005C71.305 201.123 71.3639 201.3 71.4818 201.418L102.184 202.655C102.066 202.538 102.007 202.42 101.889 202.243Z" fill="#323A50"/>
<path d="M103.125 204.011L72.1875 202.773C72.2464 202.891 72.3643 203.068 72.4232 203.186L103.361 204.423C103.302 204.305 103.184 204.187 103.125 204.011Z" fill="#323A50"/>
<path d="M104.304 205.779L73.1895 204.541C73.2484 204.659 73.3662 204.836 73.4251 204.954L104.539 206.191C104.539 206.073 104.422 205.896 104.304 205.779Z" fill="#323A50"/>
<path d="M105.601 207.546L74.3691 206.309C74.487 206.427 74.5459 206.603 74.6638 206.721L105.896 207.959C105.778 207.841 105.719 207.664 105.601 207.546Z" fill="#323A50"/>
<path d="M106.779 209.196L75.4883 207.959C75.6061 208.077 75.6651 208.254 75.7829 208.371L107.074 209.668C107.015 209.432 106.897 209.314 106.779 209.196Z" fill="#323A50"/>
<path d="M108.135 210.964L76.8438 209.668C76.9616 209.786 77.0795 209.962 77.1384 210.08L108.429 211.377C108.312 211.259 108.253 211.082 108.135 210.964Z" fill="#323A50"/>
<path d="M109.432 212.673L78.1406 211.377C78.2585 211.495 78.3764 211.671 78.4942 211.789L109.785 213.027C109.667 212.968 109.55 212.85 109.432 212.673Z" fill="#323A50"/>
<path d="M110.787 214.5L79.5547 213.262C79.6725 213.38 79.7904 213.557 79.9082 213.675L111.14 214.912C111.023 214.736 110.905 214.618 110.787 214.5Z" fill="#323A50"/>
<path d="M112.2 216.209L81.0859 214.971C81.2038 215.089 81.3217 215.266 81.4395 215.384L112.554 216.621C112.377 216.504 112.318 216.386 112.2 216.209Z" fill="#323A50"/>
<path d="M113.616 217.977L82.6191 216.739C82.737 216.857 82.8548 217.034 82.9727 217.152L113.91 218.389C113.851 218.271 113.733 218.154 113.616 217.977Z" fill="#323A50"/>
<path d="M115.029 219.745L84.209 218.507C84.3268 218.625 84.4447 218.802 84.6215 218.92L115.441 220.157C115.205 220.039 115.088 219.862 115.029 219.745Z" fill="#323A50"/>
<path d="M116.385 221.454L85.7422 220.216C85.86 220.334 85.9779 220.511 86.1547 220.629L116.739 221.866C116.621 221.689 116.503 221.571 116.385 221.454Z" fill="#323A50"/>
<path d="M117.681 223.045L87.2148 221.807C87.3327 221.925 87.5095 222.102 87.6274 222.22L118.034 223.457C117.917 223.339 117.799 223.221 117.681 223.045Z" fill="#323A50"/>
<path d="M119.154 224.871L88.9238 223.634C89.0417 223.752 89.2184 223.928 89.3363 224.046L119.508 225.284C119.39 225.107 119.272 224.989 119.154 224.871Z" fill="#323A50"/>
<path d="M120.627 226.58L90.6914 225.343C90.8093 225.461 90.986 225.637 91.1039 225.755L120.981 226.993C120.863 226.875 120.745 226.757 120.627 226.58Z" fill="#323A50"/>
<path d="M122.159 228.348L92.5176 227.17C92.6354 227.288 92.8122 227.464 92.9301 227.582L122.512 228.761C122.394 228.643 122.277 228.525 122.159 228.348Z" fill="#323A50"/>
<path d="M123.573 230.057L94.2266 228.878C94.3444 228.996 94.5212 229.173 94.639 229.291L123.927 230.469C123.809 230.293 123.691 230.175 123.573 230.057Z" fill="#323A50"/>
<path d="M124.987 231.648L95.9355 230.47C96.1123 230.588 96.2302 230.764 96.407 230.882L125.4 232.061C125.223 231.943 125.105 231.825 124.987 231.648Z" fill="#323A50"/>
<path d="M126.52 233.475L97.8223 232.296C97.9991 232.414 98.1169 232.591 98.2937 232.709L126.933 233.887C126.756 233.711 126.638 233.593 126.52 233.475Z" fill="#323A50"/>
<path d="M128.052 235.184L99.707 234.064C99.8838 234.182 100.002 234.359 100.178 234.477L128.405 235.596C128.287 235.478 128.17 235.361 128.052 235.184Z" fill="#323A50"/>
<path d="M129.585 237.011L101.652 235.891C101.829 236.009 101.947 236.186 102.124 236.304L129.997 237.423C129.82 237.246 129.702 237.129 129.585 237.011Z" fill="#323A50"/>
<path d="M131.176 238.779L103.598 237.659C103.774 237.777 103.892 237.954 104.069 238.071L131.53 239.191C131.412 239.073 131.294 238.955 131.176 238.779Z" fill="#323A50"/>
<path d="M132.648 240.428L105.482 239.309C105.659 239.427 105.777 239.603 105.954 239.721L133.002 240.841C132.884 240.723 132.766 240.546 132.648 240.428Z" fill="#323A50"/>
<path d="M134.24 242.196L107.486 241.136C107.663 241.254 107.781 241.43 107.958 241.548L134.593 242.609C134.476 242.491 134.358 242.373 134.24 242.196Z" fill="#323A50"/>
<path d="M135.831 243.964L109.549 242.904C109.726 243.021 109.902 243.198 110.02 243.316L136.243 244.377C136.067 244.259 135.949 244.082 135.831 243.964Z" fill="#323A50"/>
<path d="M137.422 245.732L111.553 244.671C111.73 244.789 111.906 244.966 112.024 245.084L137.776 246.145C137.717 246.027 137.54 245.909 137.422 245.732Z" fill="#323A50"/>
<path d="M138.955 247.382L113.557 246.38C113.733 246.498 113.91 246.675 114.028 246.793L139.367 247.795C139.191 247.677 139.073 247.559 138.955 247.382Z" fill="#323A50"/>
<path d="M138.482 248.973L115.441 248.03C115.618 248.148 115.795 248.325 115.972 248.443L137.481 249.327C137.775 249.209 138.129 249.091 138.482 248.973Z" fill="#323A50"/>
<path d="M133.944 250.505L117.621 249.857C117.798 249.975 117.975 250.152 118.151 250.27L132.884 250.859C133.178 250.741 133.532 250.623 133.944 250.505Z" fill="#323A50"/>
<path d="M129.291 251.978L119.744 251.566C119.921 251.684 120.098 251.861 120.274 251.978L128.171 252.273C128.524 252.214 128.878 252.096 129.291 251.978Z" fill="#323A50"/>
<path d="M124.635 253.511L121.924 253.393C122.101 253.511 122.277 253.687 122.454 253.805L123.574 253.864C123.927 253.805 124.281 253.687 124.635 253.511Z" fill="#323A50"/>
<path d="M166.592 300.83C162.113 300.83 157.635 300.477 153.215 299.77C148.913 299.18 142.137 297.648 137.54 295.645C121.806 289.811 108.37 279.439 98.5883 265.65C88.6294 251.566 83.3848 235.007 83.3848 217.682C83.3848 205.661 85.9187 194.052 90.8687 183.209C95.6419 172.72 102.419 163.527 111.022 155.807L113.379 153.391C118.035 148.559 118.329 148.264 120.922 145.377C121.217 145.023 121.512 144.67 121.924 144.257C124.87 140.839 130.41 134.77 137.894 129.407C147.028 122.866 156.633 119.684 166.415 119.684H166.651C176.433 119.684 186.038 122.866 195.172 129.407C202.656 134.77 208.137 141.016 211.142 144.375C211.495 144.787 211.849 145.082 212.144 145.436C214.088 147.675 214.737 148.323 216.976 150.562C217.978 151.623 219.392 153.037 221.395 155.1C230.235 162.82 237.188 172.13 242.138 182.737C247.265 193.757 249.799 205.484 249.799 217.682C249.799 228.937 247.619 239.78 243.258 250.034C239.074 259.934 233.063 268.832 225.403 276.493C217.742 284.153 208.844 290.105 198.944 294.348C188.69 298.65 177.788 300.83 166.592 300.83ZM166.651 120.214H166.415C143.904 120.214 128.406 138.187 122.513 144.905C122.16 145.318 121.806 145.612 121.512 145.966C118.919 148.912 118.624 149.148 113.969 153.98L111.553 156.455C94.1687 172.071 84.1508 194.405 84.1508 217.741C84.1508 251.978 105.719 282.975 137.776 294.937C142.313 296.882 148.972 298.414 153.274 299.003C157.635 299.711 162.054 300.064 166.533 300.064C211.967 300.064 248.915 263.116 248.915 217.682C248.915 193.934 238.662 171.305 220.747 155.63C218.744 153.568 217.329 152.153 216.328 151.093C214.088 148.853 213.44 148.146 211.495 145.907C211.201 145.553 210.847 145.318 210.494 144.905C204.66 138.187 189.103 120.214 166.651 120.214Z" fill="#323A50"/>
<path opacity="0.2" d="M208.49 155.041C211.436 153.391 213.027 152.448 210.022 149.03C204.895 143.255 189.574 123.809 166.356 123.809H166.12C142.902 123.809 127.581 143.255 122.454 149.03C119.39 152.507 121.806 154.393 123.22 155.453C129.231 151.623 134.652 148.559 141.665 146.261C141.901 146.202 150.74 141.959 165.59 141.841C165.649 141.841 175.667 141.723 185.154 144.728C196.704 147.734 202.302 151.505 208.49 155.041Z" fill="url(#paint12_linear_3671_12350)"/>
<path d="M230.47 179.791C230.293 179.791 230.117 179.732 230.058 179.555C229.704 179.025 229.351 178.436 228.938 177.846C228.761 177.611 228.82 177.316 229.056 177.139C229.292 176.962 229.586 177.021 229.763 177.257C230.176 177.846 230.529 178.436 230.883 178.966C231.06 179.202 230.942 179.496 230.706 179.673C230.647 179.791 230.588 179.791 230.47 179.791ZM228.172 176.432C227.995 176.432 227.877 176.373 227.76 176.196C227.347 175.666 226.935 175.136 226.522 174.605C226.345 174.37 226.404 174.075 226.581 173.898C226.817 173.721 227.111 173.78 227.288 173.957C227.701 174.487 228.113 175.077 228.526 175.607C228.702 175.843 228.643 176.137 228.408 176.314C228.408 176.373 228.29 176.432 228.172 176.432ZM225.697 173.191C225.579 173.191 225.402 173.132 225.285 173.014C224.872 172.484 224.401 171.953 223.988 171.482C223.811 171.246 223.811 170.952 224.047 170.775C224.283 170.598 224.577 170.598 224.754 170.834C225.226 171.364 225.638 171.895 226.11 172.366C226.286 172.602 226.286 172.896 226.051 173.073C225.933 173.191 225.815 173.191 225.697 173.191ZM222.986 170.127C222.869 170.127 222.692 170.068 222.633 169.95C221.808 169.066 221.219 168.477 221.219 168.477C221.042 168.3 221.042 167.946 221.219 167.77C221.395 167.593 221.749 167.593 221.926 167.77C221.926 167.77 222.515 168.3 223.34 169.243C223.517 169.42 223.517 169.773 223.34 169.95C223.281 170.127 223.104 170.127 222.986 170.127Z" fill="#FF4200"/>
<path d="M107.015 169.066C106.897 169.066 106.78 169.007 106.721 168.948C106.485 168.771 106.426 168.477 106.603 168.241C106.603 168.241 107.074 167.593 107.899 166.591C108.076 166.355 108.371 166.355 108.606 166.532C108.842 166.709 108.842 167.003 108.665 167.239C107.899 168.182 107.428 168.83 107.428 168.83C107.369 169.007 107.192 169.066 107.015 169.066ZM109.608 165.943C109.49 165.943 109.372 165.884 109.255 165.825C109.019 165.648 109.019 165.295 109.196 165.118C109.667 164.587 110.08 164.057 110.551 163.586C110.728 163.409 111.081 163.35 111.258 163.586C111.494 163.762 111.494 164.116 111.258 164.293C110.787 164.764 110.374 165.294 109.903 165.825C109.903 165.884 109.726 165.943 109.608 165.943ZM112.378 162.937C112.26 162.937 112.142 162.878 112.024 162.819C111.847 162.643 111.847 162.289 112.024 162.112C112.496 161.641 113.026 161.111 113.497 160.698C113.674 160.521 114.028 160.521 114.205 160.698C114.381 160.875 114.381 161.228 114.205 161.405C113.733 161.877 113.262 162.348 112.731 162.819C112.613 162.878 112.496 162.937 112.378 162.937ZM115.324 160.168C115.206 160.168 115.03 160.109 114.912 159.991C114.735 159.755 114.735 159.461 114.971 159.284C115.088 159.166 115.265 159.048 115.383 158.93C115.619 158.753 115.914 158.753 116.09 158.989C116.267 159.225 116.267 159.519 116.031 159.696C115.914 159.814 115.796 159.932 115.619 160.05C115.56 160.109 115.442 160.168 115.324 160.168Z" fill="#FF4200"/>
<path d="M117.27 190.104C117.211 190.104 117.152 190.104 117.034 190.045C116.798 189.927 116.68 189.632 116.798 189.396C116.798 189.396 117.152 188.689 117.741 187.57C117.859 187.334 118.154 187.216 118.448 187.334C118.684 187.452 118.802 187.746 118.684 188.041C118.095 189.161 117.8 189.809 117.8 189.868C117.623 189.986 117.446 190.104 117.27 190.104ZM119.155 186.509C119.096 186.509 118.979 186.509 118.92 186.45C118.684 186.332 118.566 185.979 118.743 185.743C119.096 185.154 119.45 184.564 119.804 183.975C119.921 183.739 120.275 183.68 120.511 183.798C120.746 183.916 120.805 184.27 120.687 184.505C120.334 185.095 119.98 185.684 119.686 186.214C119.509 186.391 119.332 186.509 119.155 186.509ZM121.277 183.032C121.159 183.032 121.1 183.032 120.982 182.973C120.746 182.796 120.687 182.502 120.864 182.266C121.277 181.677 121.63 181.146 122.043 180.557C122.22 180.321 122.514 180.262 122.75 180.439C122.986 180.616 123.045 180.911 122.868 181.146C122.455 181.677 122.102 182.207 121.689 182.796C121.63 182.973 121.454 183.032 121.277 183.032ZM123.693 179.732C123.575 179.732 123.457 179.673 123.398 179.614C123.162 179.437 123.162 179.143 123.339 178.907C123.752 178.377 124.223 177.846 124.695 177.316C124.871 177.08 125.225 177.08 125.402 177.257C125.637 177.434 125.637 177.787 125.461 177.964C125.048 178.436 124.577 178.966 124.164 179.496C123.987 179.673 123.87 179.732 123.693 179.732Z" fill="#FF4200"/>
</g>
<defs>
<radialGradient id="paint0_radial_3671_12350" cx="0" cy="0" r="1" gradientUnits="userSpaceOnUse" gradientTransform="translate(165.549 218.317) scale(68.0089 67.6961)">
<stop offset="0.2655" stop-color="#032A3D" stop-opacity="0"/>
<stop offset="1" stop-color="#032A3D"/>
</radialGradient>
<linearGradient id="paint1_linear_3671_12350" x1="138.884" y1="110.882" x2="188.84" y2="306.984" gradientUnits="userSpaceOnUse">
<stop offset="0.4054" stop-color="#032A3D" stop-opacity="0"/>
<stop offset="1" stop-color="#032A3D"/>
</linearGradient>
<linearGradient id="paint2_linear_3671_12350" x1="102.851" y1="177.923" x2="234.249" y2="301.185" gradientUnits="userSpaceOnUse">
<stop offset="0.2655" stop-color="#032A3D" stop-opacity="0"/>
<stop offset="0.7809" stop-color="#032A3D"/>
</linearGradient>
<linearGradient id="paint3_linear_3671_12350" x1="110.019" y1="170.282" x2="241.416" y2="293.544" gradientUnits="userSpaceOnUse">
<stop offset="0.2655" stop-color="#032A3D" stop-opacity="0"/>
<stop offset="0.7809" stop-color="#032A3D"/>
</linearGradient>
<linearGradient id="paint4_linear_3671_12350" x1="107.46" y1="173.009" x2="238.858" y2="296.272" gradientUnits="userSpaceOnUse">
<stop offset="0.2655" stop-color="#032A3D" stop-opacity="0"/>
<stop offset="0.7809" stop-color="#032A3D"/>
</linearGradient>
<linearGradient id="paint5_linear_3671_12350" x1="82.4512" y1="199.669" x2="213.849" y2="322.931" gradientUnits="userSpaceOnUse">
<stop offset="0.2655" stop-color="#032A3D" stop-opacity="0"/>
<stop offset="0.7809" stop-color="#032A3D"/>
</linearGradient>
<linearGradient id="paint6_linear_3671_12350" x1="101.192" y1="179.692" x2="232.59" y2="302.954" gradientUnits="userSpaceOnUse">
<stop offset="0.2655" stop-color="#032A3D" stop-opacity="0"/>
<stop offset="0.7809" stop-color="#032A3D"/>
</linearGradient>
<linearGradient id="paint7_linear_3671_12350" x1="90.9131" y1="190.649" x2="222.311" y2="313.911" gradientUnits="userSpaceOnUse">
<stop offset="0.2655" stop-color="#032A3D" stop-opacity="0"/>
<stop offset="0.7809" stop-color="#032A3D"/>
</linearGradient>
<linearGradient id="paint8_linear_3671_12350" x1="72.3176" y1="210.471" x2="203.715" y2="333.733" gradientUnits="userSpaceOnUse">
<stop offset="0.2655" stop-color="#032A3D" stop-opacity="0"/>
<stop offset="0.7809" stop-color="#032A3D"/>
</linearGradient>
<linearGradient id="paint9_linear_3671_12350" x1="75.4466" y1="207.137" x2="206.844" y2="330.398" gradientUnits="userSpaceOnUse">
<stop offset="0.2655" stop-color="#032A3D" stop-opacity="0"/>
<stop offset="0.7809" stop-color="#032A3D"/>
</linearGradient>
<linearGradient id="paint10_linear_3671_12350" x1="85.729" y1="196.175" x2="217.127" y2="319.437" gradientUnits="userSpaceOnUse">
<stop offset="0.2655" stop-color="#032A3D" stop-opacity="0"/>
<stop offset="0.7809" stop-color="#032A3D"/>
</linearGradient>
<linearGradient id="paint11_linear_3671_12350" x1="72.2803" y1="210.512" x2="203.678" y2="333.773" gradientUnits="userSpaceOnUse">
<stop offset="0.2655" stop-color="#032A3D" stop-opacity="0"/>
<stop offset="0.7809" stop-color="#032A3D"/>
</linearGradient>
<linearGradient id="paint12_linear_3671_12350" x1="270.477" y1="226.288" x2="69.59" y2="79.3569" gradientUnits="userSpaceOnUse">
<stop offset="0.2655" stop-color="#032A3D" stop-opacity="0"/>
<stop offset="0.7809" stop-color="#032A3D"/>
</linearGradient>
<clipPath id="clip0_3671_12350">
<rect width="330" height="330" fill="white"/>
</clipPath>
</defs>
</svg>
