<svg width="330" height="330" viewBox="0 0 330 330" fill="none" xmlns="http://www.w3.org/2000/svg">
<g clip-path="url(#clip0_3672_16249)">
<path d="M166.473 300.712C161.994 300.712 157.516 300.359 153.096 299.652C148.735 299.062 142.017 297.53 137.362 295.527C121.569 289.634 108.134 279.262 98.3514 265.473C88.3925 251.389 83.0889 234.771 83.0889 217.446C83.0889 205.425 85.6228 193.816 90.5728 182.914C95.346 172.425 102.182 163.173 110.785 155.454C112.141 154.039 113.201 152.92 114.085 152.036C117.916 148.146 118.269 147.734 120.685 144.964C120.98 144.611 121.275 144.257 121.628 143.845C124.575 140.427 130.055 134.121 137.598 128.7C146.791 122.159 156.396 118.741 166.178 118.682H166.414C176.255 118.741 185.86 122.159 195.053 128.7C202.537 134.062 208.076 140.427 211.023 143.845C211.376 144.257 211.671 144.611 211.966 144.964C213.733 147.027 214.441 147.675 216.267 149.561C217.328 150.68 218.86 152.154 221.217 154.629C230.057 162.348 237.069 171.718 242.019 182.325C247.146 193.345 249.739 205.13 249.739 217.329C249.739 228.584 247.558 239.486 243.198 249.739C239.014 259.639 233.003 268.537 225.342 276.198C217.682 283.859 208.784 289.87 198.883 294.054C188.63 298.532 177.728 300.712 166.473 300.712ZM166.532 119.625H166.296C143.726 119.802 128.169 137.716 122.335 144.493C121.982 144.905 121.687 145.259 121.392 145.612C118.976 148.323 118.505 148.854 114.792 152.684C113.909 153.627 112.789 154.746 111.433 156.102C94.0496 171.718 84.0317 194.111 84.0317 217.446C84.0317 251.743 105.6 282.798 137.775 294.761C142.312 296.705 148.971 298.237 153.273 298.827C157.633 299.534 162.112 299.887 166.532 299.887C212.025 299.887 249.032 262.88 249.032 217.387C249.032 193.58 238.719 170.952 220.805 155.277C218.448 152.861 216.916 151.329 215.855 150.209C214.028 148.323 213.321 147.616 211.494 145.612C211.2 145.259 210.905 144.905 210.551 144.493C204.659 137.775 189.101 119.802 166.532 119.625Z" fill="#323A50"/>
<path opacity="0.2" d="M208.43 154.688C211.376 153.038 212.967 151.977 209.962 148.5C204.835 142.666 189.455 123.279 166.237 123.102H166.001C142.783 123.279 127.403 142.725 122.276 148.5C119.212 151.977 121.628 153.98 122.983 154.982C128.994 151.152 134.415 148.146 141.487 145.789C141.664 145.73 150.562 141.488 165.471 141.37C165.53 141.37 175.548 141.311 185.094 144.257C196.644 147.38 202.242 151.152 208.43 154.688Z" fill="url(#paint0_linear_3672_16249)"/>
<path opacity="0.2" d="M165.706 286.039C203.329 286.039 233.828 255.698 233.828 218.271C233.828 180.844 203.329 150.503 165.706 150.503C128.084 150.503 97.585 180.844 97.585 218.271C97.585 255.698 128.084 286.039 165.706 286.039Z" fill="url(#paint1_radial_3672_16249)"/>
<path opacity="0.34" d="M237.129 186.627C237.07 186.45 237.011 186.273 236.893 186.155C236.657 186.627 236.245 187.039 235.714 187.393C234.3 188.218 232.12 187.805 231.412 186.273C231 185.448 230.587 184.682 230.057 183.916C229.821 183.504 229.527 183.15 229.232 182.738C229.114 182.561 229.114 182.561 229.232 182.738C229.173 182.679 229.114 182.561 229.055 182.502C228.937 182.325 228.761 182.148 228.643 181.972C227.405 180.557 225.932 179.143 224.754 178.318C223.987 177.788 223.221 177.316 222.396 176.904C222.161 176.786 221.925 176.668 221.689 176.55C221.63 176.55 221.63 176.55 221.63 176.491C221.218 176.314 220.805 176.197 220.334 176.079C219.862 175.961 219.391 175.843 218.92 175.725C218.92 175.725 218.212 175.607 218.271 175.607C218.095 175.607 217.977 175.548 217.8 175.548C216.68 175.43 215.62 175.43 214.5 175.43C210.434 175.548 206.957 176.197 203.009 176.668C198.825 177.198 194.7 177.493 190.516 177.788C182.325 178.377 174.193 179.379 165.943 179.496C161.936 179.555 157.87 178.848 153.921 178.141C149.973 177.434 146.32 176.904 142.548 176.491C134.593 175.548 126.579 175.077 118.564 175.843C116.914 175.961 115.677 174.546 115.441 173.073C115.382 173.073 115.323 173.073 115.264 173.132C114.793 173.25 114.321 173.368 113.909 173.545C113.673 173.604 113.437 173.721 113.143 173.78C113.025 173.839 112.966 173.839 112.907 173.898C111.021 174.723 109.195 175.784 107.545 177.08C107.486 177.139 107.132 177.434 107.073 177.434C106.837 177.611 106.602 177.788 106.425 178.023C106.012 178.377 105.659 178.73 105.246 179.084C104.48 179.85 103.714 180.675 103.066 181.5C103.007 181.559 103.007 181.618 102.948 181.618L102.889 181.677C102.712 181.913 102.536 182.089 102.418 182.325C102.182 182.738 101.887 183.091 101.652 183.504C101.416 183.916 101.18 184.27 101.004 184.682C100.945 184.8 100.65 185.566 100.945 184.8C100.886 185.036 100.768 185.213 100.709 185.448C100.12 187.098 98.5875 188.041 96.8196 187.629C96.2303 187.511 95.7 187.157 95.2875 186.686C95.2285 186.804 95.3464 186.922 95.2875 187.039C91.3982 196.291 89.041 206.486 89.041 217.211C89.041 259.875 123.632 294.466 166.296 294.466C208.961 294.466 243.552 259.875 243.552 217.211C243.434 206.368 241.136 195.996 237.129 186.627Z" fill="url(#paint2_linear_3672_16249)"/>
<g opacity="0.2">
<path d="M226.58 246.027L226.109 245.968C225.814 248.325 218.919 251.566 217.446 251.802C216.857 251.92 216.503 251.743 216.15 251.625C215.619 251.448 215.148 251.212 214.205 251.743C212.673 252.686 207.369 258.52 206.132 261.348C204.953 264.236 204.246 265.768 201.535 266.829C200.062 267.418 197.823 267.418 195.466 267.418C193.285 267.418 191.046 267.418 189.337 267.889C186.744 268.596 184.269 269.775 183.091 270.364C183.739 269.657 184.328 268.891 184.918 268.243C185.978 267.005 186.921 265.886 187.51 265.473C188.276 264.884 191.046 264.589 194.051 264.295C198 263.882 202.537 263.352 203.951 262.055C205.542 260.523 207.782 254.925 209.55 250.388C210.492 247.971 211.317 245.909 211.848 245.084C212.378 244.2 213.851 243.198 215.442 242.138C218.153 240.37 221.218 238.307 221.159 235.891H220.687C220.746 238.071 217.8 240.075 215.207 241.784C213.498 242.904 212.025 243.905 211.435 244.907C210.905 245.791 210.08 247.854 209.137 250.27C207.369 254.748 205.13 260.287 203.657 261.761C203.126 262.232 202.066 262.645 200.769 262.939C201.653 262.468 202.655 261.761 203.362 260.818C204.659 259.168 205.778 255.279 206.309 253.157C206.426 252.804 206.485 252.509 206.544 252.273C206.721 251.625 206.485 251.212 206.25 250.8C205.955 250.329 205.66 249.857 205.837 248.679C206.073 247.382 206.78 246.852 207.605 246.321C208.135 245.909 208.666 245.555 209.078 244.907C210.08 243.316 209.432 241.666 209.137 240.841V240.782C208.901 240.193 208.371 240.252 207.959 240.252C207.546 240.311 207.31 240.311 207.192 240.075C207.075 239.839 207.369 239.368 207.723 238.896C208.194 238.189 208.784 237.364 208.43 236.657L208.017 236.834C208.253 237.364 207.782 238.013 207.369 238.602C206.898 239.25 206.485 239.839 206.839 240.311C207.134 240.841 207.664 240.782 208.076 240.723C208.489 240.664 208.666 240.664 208.784 240.9V240.959C209.137 241.843 209.668 243.257 208.784 244.612C208.43 245.143 207.959 245.555 207.428 245.909C206.603 246.498 205.778 247.088 205.484 248.62C205.248 249.975 205.601 250.564 205.955 251.036C206.191 251.389 206.309 251.625 206.191 252.096C206.132 252.273 206.073 252.627 205.955 252.98C205.425 254.866 204.305 258.873 203.067 260.464C201.653 262.232 199.178 263.175 199.001 263.234C197.469 263.47 195.701 263.646 194.11 263.823C190.987 264.177 188.276 264.471 187.392 265.061C186.744 265.532 185.801 266.652 184.682 267.948C182.56 270.482 179.614 273.9 177.61 273.782C176.55 273.723 175.43 273.487 174.251 273.252C171.835 272.78 169.125 272.191 166.178 272.721C160.109 273.841 158.046 275.02 156.867 276.493C155.689 277.848 155.1 279.616 155.1 279.675L155.512 279.852C155.512 279.852 156.101 278.084 157.221 276.787C158.341 275.432 160.344 274.312 166.237 273.193C169.066 272.662 171.776 273.193 174.134 273.723C175.371 273.959 176.491 274.195 177.551 274.313C179.084 274.43 180.851 272.898 182.56 271.13L182.619 271.307C182.678 271.307 185.978 269.421 189.514 268.479C191.223 268.007 193.403 268.007 195.525 268.007C197.941 268.007 200.239 268.007 201.712 267.418C204.6 266.298 205.425 264.589 206.603 261.702C207.723 258.991 212.968 253.216 214.441 252.332C215.148 251.861 215.501 252.038 215.973 252.214C216.385 252.391 216.857 252.568 217.564 252.45C219.155 251.979 226.226 248.679 226.58 246.027Z" fill="url(#paint3_linear_3672_16249)"/>
<path d="M170.716 256.987C169.95 257.812 170.068 259.227 170.186 260.818C170.303 262.35 170.48 264.059 169.773 265.532C168.418 268.302 162.348 270.482 162.289 270.541L162.407 271.012C162.643 270.953 168.712 268.773 170.127 265.827C170.834 264.294 170.716 262.468 170.598 260.877C170.48 259.403 170.362 258.107 171.01 257.459C171.718 256.752 174.252 256.162 176.491 255.691C179.084 255.102 181.323 254.571 181.853 253.864C182.384 253.157 182.502 252.509 182.561 251.92C182.678 251.271 182.737 250.8 183.327 250.387C183.621 250.211 185.153 250.27 186.803 250.387C191.341 250.623 198.235 251.036 200.652 247.618C202.596 244.907 201.948 242.903 201.359 241.195C200.887 239.78 200.475 238.543 201.359 237.128C202.007 235.95 203.244 235.596 204.6 235.125C207.252 234.241 210.552 233.239 212.673 226.403C213.144 224.812 212.909 223.162 212.673 221.571C212.319 219.45 212.025 217.505 213.262 215.62L212.85 215.384C211.494 217.387 211.848 219.568 212.143 221.689C212.378 223.28 212.614 224.812 212.143 226.286C210.08 232.886 206.957 233.887 204.423 234.712C202.95 235.184 201.712 235.596 200.946 236.893C200.003 238.543 200.475 240.016 200.946 241.371C201.535 243.08 202.125 244.848 200.298 247.382C198 250.564 190.987 250.152 186.803 249.975C185.212 249.916 184.152 249.857 183.562 249.916C183.798 249.268 183.975 248.325 184.152 247.323C184.446 245.555 184.8 243.493 185.86 242.373C186.391 241.843 187.098 241.607 188.1 241.312C190.398 240.664 193.639 239.721 196.173 233.18V233.121C196.644 230.882 196.114 229.291 195.584 228.348C195.348 227.936 194.877 227.7 194.405 227.464C193.875 227.228 193.285 226.934 192.814 226.227C191.989 224.989 191.635 218.095 191.93 216.739C191.93 216.621 191.989 216.562 191.989 216.562C192.048 216.503 192.343 216.621 192.578 216.68C193.286 216.916 194.523 217.387 195.996 216.327L195.76 215.914C194.464 216.857 193.462 216.503 192.755 216.209C192.343 216.091 192.048 215.973 191.812 216.091C191.694 216.15 191.577 216.327 191.518 216.562C191.282 217.859 191.518 224.93 192.46 226.403C192.991 227.169 193.698 227.523 194.228 227.818C194.641 227.994 194.994 228.171 195.171 228.466C195.643 229.35 196.173 230.764 195.702 232.886C193.285 239.191 190.221 240.075 187.982 240.723C186.98 241.018 186.155 241.253 185.566 241.902C184.446 243.139 184.093 245.202 183.739 247.087C183.562 248.325 183.327 249.444 182.973 249.975C182.325 250.446 182.207 251.094 182.089 251.743C181.971 252.332 181.912 252.862 181.441 253.511C180.969 254.159 178.494 254.689 176.314 255.161C173.898 255.632 171.482 256.162 170.716 256.987Z" fill="url(#paint4_linear_3672_16249)"/>
<path d="M171.423 210.257C172.012 210.905 172.484 211.377 172.189 212.791C172.012 213.734 171.482 215.089 170.893 216.562C169.891 219.155 168.889 221.748 169.36 222.986C169.596 223.575 169.95 223.987 170.303 224.4C171.01 225.284 171.835 226.168 171.423 228.82C171.069 230.941 169.95 232.591 169.066 233.946C168.3 235.125 167.593 236.127 167.652 237.128C167.71 237.895 168.123 238.425 168.594 238.896C169.302 239.839 170.068 240.723 169.066 243.08C168.3 244.907 167.239 245.378 166.355 245.732C165.412 246.145 164.646 246.498 164.882 248.266C165.177 250.093 166.355 251.33 167.475 252.45C168.3 253.275 169.125 254.159 169.714 255.278L170.127 255.102C169.537 253.923 168.653 252.98 167.828 252.155C166.709 251.036 165.648 249.916 165.353 248.207C165.118 246.793 165.589 246.616 166.532 246.204C167.416 245.791 168.653 245.261 169.478 243.316C170.598 240.664 169.714 239.603 168.889 238.602C168.477 238.071 168.123 237.659 168.064 237.07C168.005 236.304 168.594 235.361 169.36 234.241C170.303 232.886 171.482 231.177 171.777 228.937C172.248 226.05 171.364 225.048 170.598 224.164C170.244 223.752 169.95 223.398 169.714 222.868C169.302 221.807 170.362 219.155 171.246 216.798C171.835 215.325 172.366 213.97 172.543 212.968C172.896 211.318 172.307 210.67 171.659 210.021C171.246 209.55 170.775 209.079 170.598 208.195L170.127 208.312C170.421 209.255 170.952 209.786 171.423 210.257Z" fill="url(#paint5_linear_3672_16249)"/>
<path d="M173.78 274.195C172.189 273.429 168.182 273.075 165.707 273.546C163.349 273.959 159.166 274.902 157.574 276.67C156.632 277.671 155.807 279.616 155.807 279.734L156.219 279.911C156.219 279.911 157.103 277.966 157.928 277.023C159.519 275.314 163.998 274.371 165.824 274.077C168.476 273.605 172.248 274.077 173.603 274.725C175.076 275.432 175.607 276.493 175.666 277.023C175.842 278.673 173.132 280.146 173.132 280.146L173.308 280.559C173.426 280.5 176.373 278.909 176.078 276.964C176.019 276.139 175.312 274.961 173.78 274.195Z" fill="url(#paint6_linear_3672_16249)"/>
<path d="M174.958 245.614C175.783 245.968 176.608 246.262 177.138 247.028C177.787 247.912 179.083 250.211 177.315 252.214C176.608 253.039 174.84 253.687 173.131 254.336C171.422 254.925 169.831 255.514 169.36 256.339C168.83 257.164 168.888 258.578 169.006 260.228C169.124 261.702 169.183 263.234 168.888 264.412C168.181 266.828 162.112 269.775 162.053 269.775L162.23 270.187C162.465 270.07 168.594 267.182 169.36 264.53C169.713 263.234 169.596 261.643 169.478 260.17C169.36 258.637 169.301 257.282 169.713 256.575C170.126 255.927 171.717 255.337 173.249 254.807C175.017 254.159 176.844 253.511 177.61 252.568C178.965 250.977 178.906 248.855 177.433 246.793C176.844 245.909 175.901 245.555 175.076 245.202C174.251 244.848 173.426 244.553 173.072 243.787C172.365 242.255 172.896 240.546 173.838 239.898C174.074 239.721 174.369 239.603 174.605 239.427C175.488 238.896 176.313 238.425 177.374 237.246C178.788 235.714 181.44 229.468 181.912 226.462C182.206 224.695 181.735 223.87 181.205 223.045C180.792 222.396 180.38 221.748 180.262 220.452L179.79 220.511C179.908 221.866 180.38 222.632 180.792 223.28C181.263 224.046 181.735 224.753 181.44 226.345C180.969 229.291 178.376 235.42 177.021 236.893C176.019 238.012 175.135 238.484 174.31 239.014C174.074 239.191 173.78 239.309 173.544 239.486C172.424 240.193 171.776 242.196 172.601 243.964C173.19 244.907 174.074 245.261 174.958 245.614Z" fill="url(#paint7_linear_3672_16249)"/>
</g>
<g opacity="0.2">
<path d="M154.804 272.427C154.628 271.189 153.213 270.187 151.74 269.186C150.62 268.42 148.912 267.477 147.438 266.593C146.142 265.886 144.963 265.178 144.551 264.884C144.433 264.825 144.315 264.648 144.197 264.471C143.49 263.352 142.96 260.582 143.078 258.402C143.137 257.164 143.019 256.221 142.96 255.455C142.842 254.63 142.783 254.041 143.019 253.511C143.195 253.098 143.49 253.039 143.962 252.98C144.433 252.921 145.081 252.803 145.376 252.037C145.612 251.389 145.494 250.623 145.435 249.975C145.317 249.268 145.258 248.678 145.553 248.207C145.847 247.795 146.142 247.677 146.554 247.559C146.967 247.382 147.438 247.205 147.851 246.616C148.204 246.086 147.733 245.379 147.144 244.495C146.26 243.257 145.081 241.489 145.553 239.368C146.083 237.07 146.79 237.128 147.792 237.305C148.263 237.364 148.853 237.482 149.383 237.246C150.326 236.893 151.21 234.83 152.094 232.709C152.801 231.059 153.508 229.35 154.156 228.879C154.863 228.348 155.453 228.23 156.042 228.112C156.631 227.995 157.162 227.936 157.574 227.346C158.104 226.698 157.81 225.814 157.574 225.048C157.456 224.577 157.279 224.105 157.397 223.87L156.985 223.634C156.808 224.046 156.926 224.577 157.103 225.166C157.279 225.814 157.515 226.639 157.162 227.052C156.808 227.464 156.454 227.523 155.865 227.641C155.276 227.759 154.569 227.877 153.803 228.466C153.095 228.996 152.388 230.705 151.622 232.532C150.856 234.418 149.972 236.539 149.206 236.834C148.735 237.011 148.263 236.952 147.792 236.893C146.731 236.775 145.67 236.598 145.022 239.309C144.492 241.666 145.729 243.493 146.672 244.848C147.144 245.555 147.615 246.145 147.379 246.439C147.085 246.911 146.731 247.028 146.319 247.205C145.906 247.323 145.494 247.5 145.14 248.03C144.728 248.62 144.845 249.386 144.963 250.093C145.081 250.741 145.14 251.389 144.963 251.92C144.787 252.45 144.374 252.509 143.903 252.568C143.431 252.627 142.901 252.686 142.606 253.393C142.37 254.041 142.429 254.689 142.547 255.573C142.665 256.339 142.724 257.223 142.665 258.461C142.547 259.816 142.724 261.466 143.078 262.88C142.076 261.23 140.779 258.696 140.544 256.221C140.367 254.1 140.779 253.393 141.31 252.273C141.84 251.212 142.488 249.916 143.019 246.97C143.726 242.786 141.899 238.896 140.72 236.893C140.838 236.48 141.663 233.711 143.844 232.945L144.963 232.532C147.026 231.825 148.853 231.118 149.795 230.646C151.033 229.998 152.035 227.877 152.212 226.58C152.329 225.814 151.976 225.343 151.622 224.93C151.328 224.518 151.033 224.164 151.033 223.516C151.092 222.986 151.858 222.455 152.742 221.866C153.979 220.982 155.57 219.98 156.219 218.212C156.985 216.091 156.219 215.148 155.57 214.323C155.217 213.911 154.922 213.557 154.804 213.027L154.392 213.145C154.51 213.734 154.922 214.205 155.276 214.618C155.924 215.443 156.513 216.209 155.865 218.036C155.276 219.627 153.744 220.629 152.565 221.454C151.504 222.161 150.738 222.691 150.679 223.457C150.62 224.282 151.033 224.753 151.328 225.166C151.681 225.578 151.917 225.873 151.799 226.462C151.563 227.818 150.562 229.703 149.619 230.234C148.676 230.705 146.79 231.354 144.787 232.061L143.667 232.473C141.663 233.18 140.72 235.42 140.367 236.362C139.954 235.773 139.719 235.42 139.66 235.361C139.601 235.302 135.417 231.471 133.531 228.584C131.645 225.637 131.704 223.221 132.706 222.337C133.237 221.866 134.297 221.807 135.594 221.748C136.772 221.689 138.069 221.63 139.247 221.218C141.015 220.57 142.312 218.036 142.606 217.27C143.137 216.15 143.608 214.618 143.313 213.911C142.842 212.614 140.897 212.202 140.779 212.143L140.72 212.614C140.72 212.614 142.547 213.027 142.901 214.087C143.019 214.5 142.842 215.62 142.194 217.093C141.545 218.566 140.367 220.334 139.07 220.805C137.951 221.218 136.713 221.277 135.594 221.336C134.297 221.395 133.119 221.453 132.47 221.984C131.351 222.927 131.115 225.52 133.237 228.82C135.063 231.707 139.129 235.42 139.424 235.655C139.66 235.95 143.667 241.077 142.665 246.793C142.194 249.621 141.545 250.918 141.015 251.92C140.897 252.155 140.779 252.391 140.662 252.627C140.131 251.212 140.19 250.387 140.249 249.739C140.308 248.796 140.249 248.266 138.953 247.441C137.244 246.38 133.944 246.203 131.763 246.086C130.879 246.027 130.113 245.968 129.76 245.909C128.345 245.555 127.697 244.966 127.344 243.728C127.049 242.727 127.285 242.432 127.756 241.902C127.874 241.784 127.992 241.607 128.169 241.43C128.345 241.195 128.699 240.959 129.053 240.782C129.878 240.311 130.997 239.662 130.879 238.012C130.82 236.598 129.878 236.127 128.935 235.596C128.287 235.243 127.638 234.948 127.167 234.241C125.929 232.591 124.456 227.818 124.22 225.225C123.926 222.337 124.456 216.857 124.928 216.504C125.104 216.445 125.87 216.798 126.46 217.093C127.579 217.623 128.994 218.271 129.937 218.036C130.113 217.977 130.231 217.977 130.408 217.918C131.645 217.623 131.763 217.505 131.704 216.268C131.645 215.384 130.997 215.266 130.467 215.207C130.054 215.148 129.76 215.089 129.524 214.795C129.053 214.205 129.229 211.966 129.288 211.141L128.817 211.082C128.758 211.436 128.463 214.205 129.112 215.089C129.465 215.502 129.937 215.561 130.349 215.62C130.938 215.737 131.233 215.796 131.233 216.268C131.292 216.739 131.292 216.975 131.174 217.093C131.056 217.211 130.762 217.27 130.29 217.387C130.172 217.446 129.995 217.446 129.819 217.505C128.994 217.682 127.697 217.093 126.637 216.562C125.635 216.091 125.104 215.855 124.751 215.973C123.808 216.327 123.513 222.927 123.69 225.166C123.926 227.877 125.399 232.709 126.754 234.418C127.285 235.125 128.051 235.537 128.64 235.891C129.583 236.362 130.29 236.775 130.349 237.954C130.408 239.309 129.583 239.78 128.699 240.311C128.287 240.546 127.933 240.782 127.697 241.077C127.579 241.253 127.462 241.43 127.344 241.548C126.872 242.079 126.519 242.55 126.872 243.787C127.285 245.202 128.11 245.909 129.642 246.262C129.937 246.321 130.349 246.38 130.938 246.38C130.585 246.616 130.231 246.616 129.819 246.616C129.406 246.616 128.876 246.557 128.463 246.911C127.697 247.441 128.169 248.325 128.522 248.973C128.64 249.268 128.817 249.562 128.817 249.739C128.817 249.857 128.758 249.975 128.64 250.093C128.404 250.27 127.933 250.328 127.285 250.27C126.578 250.152 125.576 249.091 124.987 248.443C124.751 248.207 124.574 247.971 124.456 247.912C124.22 247.736 123.867 247.736 123.572 247.795C123.219 247.853 122.806 247.853 122.453 247.618C122.276 247.5 122.099 247.264 122.099 246.97C122.04 246.439 122.276 245.85 122.453 245.673C122.512 245.614 122.688 245.614 122.924 245.614C123.219 245.614 123.572 245.614 123.867 245.379C124.338 244.966 124.515 244.318 124.456 243.316C124.397 242.727 123.926 242.727 123.513 242.727C123.042 242.727 122.512 242.668 122.276 242.02C122.099 241.548 122.335 241.077 122.688 240.487C123.219 239.603 123.867 238.425 122.924 236.834C121.863 234.83 120.685 235.066 119.801 235.243C119.506 235.302 119.212 235.361 119.035 235.302C118.858 235.243 118.74 235.125 118.74 235.066C118.681 234.889 118.799 234.712 118.858 234.653L118.504 234.418C118.504 234.477 118.21 234.83 118.328 235.243C118.387 235.478 118.563 235.714 118.917 235.832C119.212 235.95 119.565 235.891 119.919 235.832C120.685 235.714 121.628 235.478 122.57 237.187C123.337 238.602 122.806 239.545 122.335 240.428C121.981 241.077 121.628 241.666 121.863 242.314C122.217 243.257 122.983 243.316 123.513 243.316C123.985 243.316 124.044 243.375 124.044 243.493C124.103 244.318 123.985 244.907 123.631 245.202C123.454 245.32 123.219 245.32 122.983 245.32C122.688 245.32 122.394 245.32 122.158 245.555C121.922 245.791 121.628 246.557 121.745 247.205C121.804 247.618 121.981 247.971 122.276 248.207C122.806 248.561 123.337 248.561 123.749 248.502C124.044 248.502 124.22 248.443 124.338 248.561C124.456 248.62 124.574 248.855 124.81 249.091C125.458 249.798 126.519 250.977 127.344 251.095C127.344 251.095 127.344 251.095 127.403 251.095C128.169 251.212 128.758 251.095 129.112 250.8C129.288 250.623 129.406 250.387 129.465 250.093C129.465 249.798 129.288 249.503 129.112 249.091C128.758 248.384 128.522 247.912 128.935 247.618C129.288 247.382 129.583 247.382 129.995 247.382C130.526 247.382 131.174 247.441 131.704 246.734C131.763 246.734 131.822 246.734 131.822 246.734C133.944 246.852 137.185 247.087 138.835 248.03C139.954 248.737 139.954 249.091 139.895 249.916C139.837 250.682 139.778 251.684 140.544 253.452C140.308 254.159 140.19 254.984 140.308 256.339C140.603 260.464 143.785 264.648 144.02 264.943C144.138 265.12 144.315 265.296 144.433 265.414C144.904 265.768 146.083 266.416 147.379 267.182C148.853 268.007 150.562 268.95 151.681 269.716C152.978 270.659 154.392 271.602 154.51 272.662C154.569 273.134 154.451 273.664 153.979 274.195C152.388 276.316 150.444 283.623 150.385 283.918L150.856 283.977C150.915 283.505 152.919 276.434 154.333 274.489C154.745 273.664 154.922 273.016 154.804 272.427Z" fill="url(#paint8_linear_3672_16249)"/>
<path d="M151.681 274.312C151.033 272.073 147.792 269.657 146.731 269.009C144.433 267.594 139.188 267.3 136.772 267.83C135.652 268.066 134.886 268.419 134.179 268.773C133.413 269.127 132.765 269.48 131.881 269.48C130.054 269.48 129.053 269.716 128.169 270.364C127.992 270.482 127.933 270.659 127.933 270.777C127.933 271.13 128.286 271.484 128.64 271.837C128.935 272.073 129.347 272.486 129.288 272.721C129.288 272.839 129.17 272.898 129.053 272.957C127.874 273.605 126.931 272.721 126.872 272.662L126.519 273.016C126.519 273.016 127.697 274.194 129.229 273.428C129.524 273.252 129.642 273.075 129.701 272.839C129.76 272.368 129.288 271.955 128.935 271.602C128.699 271.366 128.345 271.071 128.345 270.894L128.404 270.836C129.17 270.246 130.113 270.069 131.822 270.069C132.824 270.069 133.531 269.716 134.356 269.303C135.004 268.95 135.77 268.596 136.831 268.361C139.129 267.889 144.315 268.184 146.495 269.48C147.792 270.246 150.679 272.544 151.269 274.548C151.386 275.078 151.151 276.08 150.797 276.787C149.029 280.912 148.44 283.859 148.44 283.918L148.852 283.977C148.852 283.977 149.442 281.03 151.21 276.964C151.445 276.375 151.917 275.137 151.681 274.312Z" fill="url(#paint9_linear_3672_16249)"/>
<path d="M152.742 273.959C152.624 273.134 151.799 272.25 151.505 271.896C151.446 271.837 151.446 271.837 151.446 271.837C149.796 269.893 147.38 268.007 145.788 267.418C145.317 267.241 144.787 267.123 144.138 267.005C141.546 265.768 139.071 265.296 136.655 264.825C135.358 264.589 134.003 264.295 132.647 263.941C129.053 262.88 122.983 256.87 122.747 256.634C122.571 256.398 118.446 251.212 118.092 249.386C117.915 248.62 117.031 244.73 116.619 243.67C116.206 242.727 111.079 241.018 110.019 240.664C107.485 240.546 103.831 240.311 103.478 240.075C103.065 239.78 102.594 238.366 102.712 237.777C102.712 237.541 103.006 237.364 103.301 237.187C103.772 236.893 104.303 236.48 104.421 235.773C104.479 235.243 104.126 233.652 103.478 231.118C102.888 228.702 102.063 225.461 102.299 224.871C102.476 224.341 102.83 224.282 103.183 224.164C103.537 224.105 103.89 223.987 104.008 223.457C104.067 223.28 103.949 223.103 103.89 223.045C103.655 222.809 103.124 222.809 102.417 222.868C101.71 222.927 100.767 222.986 100.413 222.632L100.178 222.986C100.708 223.457 101.651 223.398 102.476 223.339C102.888 223.339 103.478 223.28 103.596 223.398C103.537 223.634 103.478 223.634 103.124 223.752C102.771 223.87 102.24 223.987 101.946 224.753C101.71 225.402 102.24 227.759 103.124 231.295C103.596 233.298 104.126 235.302 104.067 235.773C104.008 236.303 103.537 236.598 103.124 236.893C102.712 237.128 102.358 237.423 102.299 237.836C102.181 238.543 102.712 240.193 103.301 240.605C103.772 240.959 108.546 241.195 110.019 241.253C112.965 242.196 116.088 243.493 116.324 243.964C116.678 244.789 117.326 247.441 117.797 249.621C118.21 251.507 122.394 256.811 122.571 257.046C122.806 257.282 128.935 263.411 132.647 264.53C134.003 264.943 135.358 265.178 136.655 265.414C138.54 265.768 140.544 266.18 142.606 266.946C141.487 266.828 140.249 266.77 139.13 266.652C138.128 266.593 137.244 266.534 136.478 266.416C130.88 265.827 127.756 264.943 125.753 263.528C123.455 261.937 116.619 255.927 116.03 255.22C115.735 254.807 115.617 254.395 115.44 253.805C115.322 253.393 115.205 252.921 114.969 252.391C114.085 250.505 110.844 248.384 108.487 246.852C107.249 246.086 106.188 245.379 105.953 245.025C105.599 244.495 105.717 244.141 105.894 243.67C106.012 243.316 106.188 242.962 106.188 242.491H105.717C105.717 242.903 105.599 243.198 105.481 243.493C105.246 244.023 105.069 244.495 105.54 245.261C105.835 245.673 106.837 246.321 108.192 247.205C110.49 248.678 113.731 250.741 114.497 252.568C114.733 253.039 114.851 253.511 114.969 253.923C115.146 254.512 115.263 254.984 115.617 255.455C116.206 256.162 123.101 262.232 125.399 263.882C127.521 265.355 130.644 266.239 136.36 266.829C137.067 266.887 138.01 266.946 139.012 267.064C141.487 267.241 144.315 267.477 145.671 267.948C147.203 268.478 149.56 270.305 151.151 272.25C151.151 272.25 151.21 272.309 151.21 272.368C151.446 272.662 152.271 273.546 152.33 274.195C152.388 274.843 151.976 276.08 151.328 277.848C150.738 279.498 149.972 281.561 149.324 284.036L149.737 284.153C150.385 281.678 151.151 279.675 151.74 278.025C152.388 275.962 152.86 274.725 152.742 273.959Z" fill="url(#paint10_linear_3672_16249)"/>
<path d="M105.54 211.023C105.481 211.377 105.128 211.907 104.715 212.496C104.008 213.616 103.124 214.853 103.654 215.796C103.949 216.327 104.656 216.798 105.481 217.387C107.013 218.389 108.958 219.686 109.724 222.043C110.962 225.755 114.144 232.414 114.144 232.473V232.532C114.203 232.591 118.033 237.836 116.737 242.903L117.149 243.021C118.505 237.836 114.851 232.709 114.497 232.296C114.497 232.237 114.379 232.061 114.262 231.825C114.792 231.707 115.971 231.353 116.796 230.293C117.385 229.527 117.621 228.525 117.503 227.287C117.267 225.225 116.265 223.28 115.381 221.63C114.615 220.157 113.967 218.919 114.085 217.977C114.144 217.211 114.615 217.034 115.204 216.857C115.912 216.68 116.796 216.386 116.972 214.853C117.149 213.203 116.03 212.496 115.087 211.966C114.38 211.494 113.908 211.2 113.967 210.669C114.085 209.196 116.206 207.134 116.206 207.134L115.912 206.78C115.853 206.839 113.672 208.961 113.554 210.611C113.496 211.436 114.203 211.907 114.91 212.319C115.794 212.85 116.737 213.439 116.56 214.794C116.442 216.032 115.794 216.209 115.087 216.386C114.438 216.562 113.731 216.798 113.613 217.859C113.555 218.919 114.203 220.216 114.969 221.748C115.853 223.398 116.796 225.284 117.031 227.287C117.149 228.348 116.972 229.291 116.442 229.939C115.676 230.941 114.497 231.236 114.085 231.294C113.142 229.35 111.079 224.694 110.137 221.866C109.312 219.391 107.249 217.977 105.717 216.975C104.951 216.444 104.244 215.973 104.008 215.561C103.596 214.853 104.362 213.734 105.01 212.732C105.481 212.084 105.835 211.494 105.894 211.082C105.953 210.434 105.363 209.491 104.597 208.371C103.949 207.369 103.183 206.25 103.065 205.425L102.594 205.484C102.712 206.427 103.478 207.546 104.185 208.607C104.951 209.609 105.599 210.611 105.54 211.023Z" fill="url(#paint11_linear_3672_16249)"/>
<path d="M150.09 275.844C149.559 274.607 147.968 273.605 146.849 272.898C146.377 272.603 146.024 272.368 145.847 272.191C145.67 272.014 145.67 271.837 145.611 271.66C145.493 271.13 145.317 270.659 144.197 270.187C142.488 269.48 138.363 269.126 137.008 270.01C136.477 270.364 136.418 270.777 136.418 271.13C136.536 272.073 137.656 272.898 138.717 273.251C139.424 273.487 139.483 274.253 139.542 275.019C139.601 275.668 139.66 276.316 140.131 276.728C140.485 276.964 140.602 277.2 140.543 277.376C140.485 277.612 140.072 277.907 139.129 278.025C137.833 278.143 135.829 277.612 135.77 277.612L135.652 278.084C135.711 278.084 137.774 278.614 139.129 278.496C140.131 278.378 140.779 278.025 140.897 277.494C141.015 277.082 140.779 276.669 140.308 276.316C139.954 276.08 139.954 275.55 139.895 274.96C139.836 274.194 139.777 273.134 138.776 272.839C137.715 272.485 136.831 271.719 136.772 271.071C136.772 270.835 136.89 270.6 137.126 270.423C138.304 269.716 142.134 269.952 143.902 270.659C144.904 271.071 144.963 271.425 145.081 271.778C145.14 272.014 145.199 272.309 145.493 272.544C145.67 272.721 146.083 273.016 146.554 273.31C147.615 273.959 149.147 275.019 149.677 276.08C150.031 276.846 149.618 277.671 149.088 278.85C148.617 279.969 147.968 281.325 147.674 283.21L148.145 283.269C148.381 281.501 149.029 280.146 149.501 279.027C150.09 277.73 150.502 276.787 150.09 275.844Z" fill="url(#paint12_linear_3672_16249)"/>
</g>
<path d="M165.118 183.386C186.63 183.386 204.07 173.993 204.07 162.407C204.07 150.821 186.63 141.428 165.118 141.428C143.605 141.428 126.166 150.821 126.166 162.407C126.166 173.993 143.605 183.386 165.118 183.386Z" fill="#2A697F"/>
<path d="M164.764 162.702C174.202 162.702 181.853 158.929 181.853 154.275C181.853 149.621 174.202 145.848 164.764 145.848C155.326 145.848 147.675 149.621 147.675 154.275C147.675 158.929 155.326 162.702 164.764 162.702Z" fill="#293C4F"/>
<path d="M164.763 147.852C173.485 147.852 180.733 151.093 181.735 155.277C181.793 154.923 181.852 154.629 181.852 154.275C181.852 149.62 174.192 145.848 164.763 145.848C155.335 145.848 147.674 149.62 147.674 154.275C147.674 154.629 147.733 154.982 147.792 155.277C148.852 151.093 156.042 147.852 164.763 147.852Z" fill="#DBDBDB"/>
<path d="M181.735 156.986L181.322 155.336C180.321 151.27 173.19 148.205 164.763 148.205C156.337 148.205 149.206 151.27 148.205 155.336L147.792 156.986L147.38 155.336C147.262 154.923 147.262 154.57 147.262 154.216C147.262 151.8 149.089 149.561 152.506 147.852C155.806 146.202 160.167 145.318 164.763 145.318C169.36 145.318 173.721 146.202 177.021 147.852C180.38 149.502 182.265 151.8 182.265 154.216C182.265 154.57 182.206 154.923 182.147 155.336L181.735 156.986ZM164.763 147.439C172.424 147.439 179.024 149.973 181.381 153.509C180.556 149.443 173.426 146.261 164.763 146.261C156.101 146.261 148.971 149.443 148.146 153.509C150.503 149.914 157.103 147.439 164.763 147.439Z" fill="#323A50"/>
<path d="M165.235 141.546C143.726 141.546 126.283 150.739 126.283 161.995C126.283 173.309 143.726 182.443 165.235 182.443C186.744 182.443 204.187 173.25 204.187 161.995C204.187 150.739 186.744 141.546 165.235 141.546ZM181.912 154.393C181.912 154.452 181.971 154.511 181.971 154.511C181.971 154.57 181.971 154.629 181.971 154.687C181.264 158.93 173.897 162.289 164.94 162.289C156.219 162.289 148.971 159.107 147.969 155.041C147.969 154.923 147.91 154.805 147.91 154.687C147.91 154.629 147.91 154.57 147.91 154.511C147.91 154.452 147.91 154.452 147.91 154.393C147.91 154.275 147.91 154.275 147.91 154.039C147.91 154.039 147.91 153.745 147.91 153.627C147.969 153.037 148.146 152.507 148.44 151.977C148.676 151.446 149.089 150.975 149.56 150.504C149.56 150.504 149.619 150.504 149.619 150.445C152.389 147.675 158.281 145.73 165.058 145.73C174.487 145.73 182.206 149.443 182.206 153.98H182.03C181.853 154.157 181.912 154.275 181.912 154.393Z" fill="#DBDBDB"/>
<path d="M165.235 182.914C154.746 182.914 144.905 180.793 137.539 176.845C130.055 172.896 125.93 167.652 125.93 161.995C125.93 156.396 130.055 151.093 137.539 147.145C144.964 143.255 154.805 141.075 165.235 141.075C175.724 141.075 185.565 143.196 192.932 147.145C200.415 151.093 204.54 156.337 204.54 161.995C204.54 167.593 200.415 172.896 192.932 176.845C185.565 180.793 175.724 182.914 165.235 182.914ZM165.235 141.959C143.962 141.959 126.696 150.975 126.696 162.054C126.696 173.132 143.962 182.148 165.235 182.148C186.508 182.148 203.774 173.132 203.774 162.054C203.774 150.975 186.508 141.959 165.235 141.959ZM164.882 162.702C156.042 162.702 148.617 159.461 147.498 155.1C147.498 154.982 147.439 154.864 147.439 154.746C147.439 154.687 147.439 154.629 147.38 154.57C147.38 154.511 147.38 154.452 147.38 154.452V154.393C147.38 154.334 147.38 154.275 147.38 154.039V153.627V153.568C147.439 152.978 147.615 152.389 147.969 151.8C148.264 151.27 148.676 150.739 149.148 150.209L149.206 150.15C152.153 147.204 158.164 145.377 164.882 145.377C169.478 145.377 173.839 146.261 177.139 147.852C180.556 149.502 182.383 151.682 182.383 154.039V154.452H182.265C182.265 154.511 182.265 154.511 182.265 154.57C182.265 154.629 182.265 154.687 182.265 154.746C181.558 159.284 174.074 162.702 164.882 162.702ZM148.205 154.098C148.205 154.216 148.205 154.275 148.205 154.334V154.393C148.205 154.452 148.205 154.452 148.205 154.511C148.205 154.57 148.205 154.629 148.205 154.687C148.205 154.805 148.264 154.864 148.264 154.982C149.265 158.93 156.396 161.936 164.823 161.936C173.485 161.936 180.792 158.754 181.44 154.687V154.629C181.44 154.57 181.382 154.511 181.44 154.452V154.393C181.44 154.334 181.44 154.275 181.44 154.157V153.745H181.617C181.44 151.859 179.731 150.032 176.844 148.677C173.662 147.145 169.419 146.32 164.882 146.32C158.458 146.32 152.506 148.087 149.737 150.857L149.678 150.916C149.207 151.387 148.912 151.859 148.617 152.271C148.381 152.743 148.205 153.273 148.146 153.745C148.205 153.804 148.205 153.98 148.205 154.098Z" fill="#323A50"/>
<g opacity="0.3">
<path d="M166.237 295.232C166.178 295.232 166.119 295.232 166.119 295.232C152.448 295.232 138.835 291.402 126.814 284.271H126.755L126.166 283.682C111.139 274.961 99.8244 261.348 93.4602 244.377C90.9262 237.836 89.3941 230.764 88.7459 222.868C88.5691 219.155 88.5691 215.738 88.7459 212.025C88.9227 208.371 89.453 204.718 90.3959 200.357C91.3388 195.938 92.753 191.577 94.8155 186.921L95.5816 187.275C93.578 191.871 92.1637 196.232 91.2209 200.593C90.278 204.895 89.8066 208.548 89.5709 212.143C89.3941 215.796 89.3941 219.214 89.5709 222.927C90.2191 230.705 91.7513 237.718 94.2263 244.2C100.532 261.054 111.728 274.489 126.637 283.093H126.696L127.285 283.682C151.564 298.002 180.616 298.12 205.012 283.859C206.191 283.093 207.428 282.209 208.901 281.443C221.807 273.134 231.471 261.289 237.658 246.204C237.953 245.496 238.189 244.73 238.483 243.964C238.719 243.198 239.014 242.432 239.308 241.725C244.023 227.464 244.553 212.85 240.899 198.354V198.295C240.782 197.705 238.366 190.28 236.892 186.921L237.658 186.568C239.014 189.75 241.489 197.116 241.666 198.118C245.319 212.732 244.789 227.464 240.016 241.961V242.02C239.721 242.727 239.485 243.493 239.249 244.2C239.014 244.966 238.719 245.732 238.424 246.498C232.178 261.761 222.396 273.723 209.314 282.15C207.899 282.975 206.662 283.8 205.483 284.566C193.344 291.52 179.849 295.232 166.237 295.232Z" fill="#323A50"/>
</g>
<path d="M130.35 132.53C130.232 132.53 130.055 132.471 129.996 132.353L118.741 112.73H92.0463C91.8106 112.73 91.6338 112.553 91.6338 112.318C91.6338 112.082 91.8106 111.905 92.0463 111.905H118.977C119.095 111.905 119.271 111.964 119.33 112.082L130.703 131.882C130.821 132.059 130.762 132.353 130.586 132.412C130.468 132.53 130.409 132.53 130.35 132.53Z" fill="#FF4200"/>
<path d="M99.5296 109.136H91.751V107.839L95.2867 104.539C96.0528 103.832 96.5831 103.243 96.9367 102.771C97.2903 102.3 97.4081 101.77 97.4081 101.239C97.4081 100.65 97.2313 100.237 96.8188 99.8839C96.4063 99.5303 95.876 99.3535 95.2277 99.3535C94.1081 99.3535 93.0474 99.8249 92.1045 100.768V98.941C93.0474 98.175 94.1081 97.7625 95.4046 97.7625C96.4653 97.7625 97.3492 98.0571 98.1153 98.7053C98.8813 99.2946 99.2349 100.12 99.2349 101.062C99.2349 101.829 99.0581 102.536 98.7045 103.125C98.292 103.773 97.7027 104.48 96.8188 105.305L94.4028 107.603H99.6474L99.5296 109.136Z" fill="#FF4200"/>
<path d="M104.539 109.136H103.537V104.48H104.539V105.069C104.893 104.598 105.423 104.362 106.071 104.362C106.425 104.362 106.719 104.421 107.014 104.598C107.25 104.716 107.485 104.952 107.544 105.187C107.721 104.952 107.957 104.716 108.251 104.598C108.546 104.48 108.9 104.362 109.253 104.362C109.784 104.362 110.196 104.539 110.432 104.834C110.668 105.128 110.844 105.6 110.844 106.248V109.136H109.843V106.425C109.843 105.659 109.489 105.305 108.9 105.305C108.664 105.305 108.428 105.364 108.192 105.541C107.957 105.659 107.78 105.894 107.721 106.071V109.136H106.719V106.484C106.719 105.718 106.366 105.364 105.776 105.364C105.541 105.364 105.305 105.423 105.069 105.541C104.834 105.659 104.657 105.894 104.539 106.071V109.136Z" fill="#FF4200"/>
<path d="M113.024 109.136H112.022V104.48H113.024V105.069C113.378 104.598 113.908 104.362 114.556 104.362C114.91 104.362 115.205 104.421 115.499 104.598C115.735 104.716 115.971 104.952 116.03 105.187C116.206 104.952 116.442 104.716 116.737 104.598C117.031 104.48 117.385 104.362 117.739 104.362C118.269 104.362 118.681 104.539 118.917 104.834C119.212 105.187 119.33 105.6 119.33 106.248V109.136H118.328V106.425C118.328 105.659 117.974 105.305 117.385 105.305C117.149 105.305 116.914 105.364 116.678 105.541C116.442 105.718 116.265 105.894 116.206 106.071V109.136H115.205V106.484C115.205 105.718 114.851 105.364 114.262 105.364C114.026 105.364 113.79 105.423 113.555 105.541C113.319 105.659 113.142 105.894 113.024 106.071V109.136Z" fill="#FF4200"/>
<path d="M141.899 132.943C141.664 132.943 141.487 132.825 141.428 132.589C141.369 132.353 141.487 132.059 141.781 131.941C142.135 131.823 142.43 131.764 142.783 131.646C143.019 131.587 143.314 131.705 143.431 132C143.49 132.236 143.372 132.53 143.078 132.648C142.724 132.766 142.43 132.825 142.135 132.943C142.017 132.943 141.958 132.943 141.899 132.943Z" fill="#FF4200"/>
<path d="M137.126 150.327C137.067 150.327 137.009 150.327 136.891 150.268C136.301 149.973 135.712 149.678 135.182 149.325C134.946 149.207 134.828 148.853 135.005 148.618C135.182 148.382 135.476 148.264 135.712 148.441C136.243 148.735 136.773 149.03 137.362 149.325C137.598 149.443 137.716 149.737 137.598 149.973C137.539 150.209 137.362 150.327 137.126 150.327ZM133.885 148.323C133.767 148.323 133.65 148.264 133.591 148.205C133.06 147.793 132.53 147.321 132.059 146.909C131.882 146.732 131.882 146.378 132.059 146.202C132.235 146.025 132.589 146.025 132.766 146.202C133.178 146.614 133.65 147.027 134.18 147.38C134.416 147.557 134.416 147.852 134.298 148.087C134.18 148.264 134.003 148.323 133.885 148.323ZM131.234 145.553C131.057 145.553 130.88 145.494 130.821 145.318C130.409 144.728 130.173 144.08 129.996 143.432C129.937 143.196 130.114 142.902 130.35 142.843C130.585 142.784 130.88 142.96 130.939 143.196C131.057 143.727 131.293 144.257 131.646 144.787C131.764 145.023 131.705 145.318 131.469 145.494C131.41 145.553 131.292 145.553 131.234 145.553ZM130.35 141.9H130.291C129.996 141.841 129.819 141.605 129.819 141.31C129.878 140.662 130.114 139.955 130.409 139.307C130.526 139.071 130.821 138.953 131.116 139.071C131.351 139.189 131.469 139.484 131.351 139.778C131.116 140.309 130.88 140.898 130.821 141.428C130.821 141.723 130.585 141.9 130.35 141.9ZM132 138.482C131.882 138.482 131.764 138.423 131.646 138.364C131.469 138.187 131.41 137.834 131.587 137.657C132 137.185 132.471 136.714 133.06 136.243C133.296 136.066 133.591 136.125 133.768 136.302C133.944 136.478 133.885 136.832 133.709 137.009C133.178 137.421 132.766 137.834 132.412 138.246C132.294 138.423 132.176 138.482 132 138.482ZM134.946 136.066C134.769 136.066 134.593 136.007 134.534 135.83C134.416 135.594 134.475 135.3 134.71 135.123C135.241 134.769 135.83 134.475 136.419 134.121C136.655 134.003 136.95 134.062 137.126 134.357C137.244 134.593 137.185 134.887 136.891 135.064C136.301 135.359 135.771 135.653 135.241 136.007C135.123 136.007 135.005 136.066 134.946 136.066ZM138.305 134.239C138.128 134.239 137.893 134.121 137.834 133.944C137.716 133.709 137.834 133.414 138.069 133.296C138.659 133.06 139.248 132.825 139.896 132.589C140.132 132.471 140.426 132.648 140.544 132.884C140.662 133.119 140.485 133.414 140.25 133.532C139.66 133.768 139.071 134.003 138.482 134.239C138.423 134.239 138.364 134.239 138.305 134.239Z" fill="#FF4200"/>
<path d="M139.838 151.446C139.779 151.446 139.72 151.446 139.661 151.387C139.307 151.269 139.013 151.152 138.718 150.975C138.482 150.857 138.305 150.562 138.423 150.327C138.541 150.091 138.836 149.914 139.071 150.032C139.366 150.15 139.661 150.268 140.014 150.385C140.25 150.503 140.427 150.798 140.309 151.034C140.25 151.328 140.073 151.446 139.838 151.446Z" fill="#FF4200"/>
<path d="M114.144 153.803C114.38 153.391 115.087 152.448 115.382 152.153C115.382 151.918 114.969 152.507 115.146 152.271C115.264 151.859 115.558 151.446 116.089 151.328C116.207 150.857 116.501 150.386 117.09 150.268C117.09 150.091 117.149 149.855 117.267 149.678C116.03 150.739 114.498 152.212 113.732 153.509C110.196 159.814 115.028 179.202 128.051 211.2C130.939 218.271 133.944 225.284 136.714 231.353H137.48C125.223 204.07 109.017 163.527 114.144 153.803Z" fill="#323A50"/>
<path d="M89.7478 153.45C93.5193 148.146 99.5889 145.789 107.839 146.32C112.553 146.673 116.619 147.911 118.328 148.5C118.446 148.323 118.623 148.087 118.859 147.97C117.385 147.439 112.966 145.966 107.898 145.612C99.5889 145.023 93.1068 147.557 89.2764 152.92C88.6282 153.568 69.771 172.955 63.8193 186.037C62.2282 189.455 59.105 189.279 53.33 188.925C48.5568 188.63 42.0157 188.218 33.2354 189.691L33.3532 190.339C42.0746 188.866 48.5568 189.279 53.2711 189.573C59.105 189.927 62.6407 190.162 64.4085 186.273C69.2996 175.607 82.8532 160.639 87.8621 155.336C86.0942 159.932 87.155 167.534 91.0443 177.964C94.7568 187.923 101.003 200.475 109.607 215.325C112.789 220.805 116.089 226.227 119.33 231.295H120.096C116.855 226.227 113.437 220.629 110.196 214.971C90.8085 181.795 83.796 160.521 89.7478 153.45Z" fill="#323A50"/>
<path d="M243.198 153.45C239.426 148.146 233.357 145.789 225.107 146.32C220.392 146.673 216.326 147.911 214.617 148.5C214.5 148.323 214.323 148.087 214.087 147.97C215.56 147.439 219.98 145.966 225.048 145.612C233.357 145.023 239.839 147.557 243.669 152.92C244.317 153.568 263.175 172.955 269.126 186.037C270.717 189.455 273.841 189.279 279.616 188.925C284.389 188.63 290.93 188.218 299.71 189.691L299.593 190.339C290.871 188.866 284.389 189.279 279.675 189.573C273.841 189.927 270.305 190.162 268.537 186.273C263.646 175.607 250.093 160.639 245.084 155.336C246.851 159.932 245.791 167.534 241.901 177.964C238.189 187.923 231.942 200.475 223.339 215.325C220.157 220.805 216.857 226.227 213.616 231.295H212.85C216.091 226.227 219.509 220.629 222.75 214.971C242.137 181.795 249.209 160.521 243.198 153.45Z" fill="#323A50"/>
<path d="M218.507 153.686C218.271 153.273 216.974 151.27 216.739 150.916C216.739 150.68 218.035 151.741 217.917 151.564C217.799 151.152 217.328 150.798 216.857 150.621C216.739 150.15 216.68 149.914 216.149 149.796C216.149 149.62 215.619 149.738 215.56 149.561C216.798 150.622 218.33 152.095 219.096 153.391C222.632 159.697 217.799 179.084 204.776 211.082C201.889 218.154 198.883 225.166 196.114 231.236H195.348C207.428 203.952 223.633 163.35 218.507 153.686Z" fill="#323A50"/>
<path d="M118.8 148.087C117.916 147.793 116.266 147.203 114.026 146.673L118.446 148.323C118.505 148.264 118.623 148.146 118.8 148.087Z" fill="#323A50"/>
<path d="M117.444 149.384L107.78 145.73C107.308 145.671 106.896 145.671 106.483 145.671L117.208 149.737C117.267 149.62 117.385 149.502 117.444 149.384Z" fill="#323A50"/>
<path d="M116.324 150.739L103.124 145.73C102.83 145.73 102.535 145.789 102.24 145.848L116.147 151.152C116.147 151.034 116.206 150.916 116.324 150.739Z" fill="#323A50"/>
<path d="M115.146 152.271C115.146 152.213 115.146 152.213 115.146 152.154L99.6475 146.261C99.4118 146.32 99.1761 146.379 98.9404 146.438L114.969 152.507C115.028 152.448 115.087 152.389 115.146 152.271Z" fill="#323A50"/>
<path d="M114.145 153.804C114.204 153.745 114.263 153.627 114.263 153.568L97.1733 147.086C96.9965 147.145 96.7608 147.204 96.584 147.321L114.086 153.921C114.145 153.862 114.145 153.804 114.145 153.804Z" fill="#323A50"/>
<path d="M113.614 155.1L94.9929 148.029C94.8161 148.087 94.6983 148.205 94.5215 148.264L113.555 155.454C113.555 155.395 113.555 155.277 113.614 155.1Z" fill="#323A50"/>
<path d="M113.26 156.809L93.1654 149.207C93.0475 149.325 92.9297 149.384 92.7529 149.502L113.201 157.221C113.26 157.104 113.26 156.927 113.26 156.809Z" fill="#323A50"/>
<path d="M113.143 158.636L91.6338 150.504C91.516 150.622 91.3981 150.68 91.2803 150.798L113.143 159.048C113.143 158.872 113.143 158.754 113.143 158.636Z" fill="#323A50"/>
<path d="M113.142 160.403L90.278 151.741C90.1602 151.859 90.1013 151.977 89.9834 152.095L113.142 160.875C113.142 160.757 113.142 160.58 113.142 160.403Z" fill="#323A50"/>
<path d="M113.319 162.289L89.2172 153.155C89.1582 153.214 89.0993 153.332 88.9814 153.509L113.378 162.761C113.319 162.643 113.319 162.466 113.319 162.289Z" fill="#323A50"/>
<path d="M113.554 164.234L88.3331 154.688C88.2741 154.805 88.2152 154.923 88.1562 155.041L113.613 164.705C113.555 164.529 113.554 164.352 113.554 164.234Z" fill="#323A50"/>
<path d="M113.85 166.178L87.6267 156.219C87.5677 156.337 87.5677 156.455 87.5088 156.632L113.909 166.65C113.909 166.473 113.85 166.355 113.85 166.178Z" fill="#323A50"/>
<path d="M114.203 168.005L87.2728 157.811C87.2728 157.929 87.2139 158.046 87.2139 158.223L114.262 168.477C114.262 168.3 114.203 168.182 114.203 168.005Z" fill="#323A50"/>
<path d="M114.615 170.009L87.0957 159.579C87.0957 159.696 87.0957 159.873 87.0957 159.991L114.733 170.48C114.674 170.304 114.674 170.186 114.615 170.009Z" fill="#323A50"/>
<path d="M115.087 172.012L87.0371 161.405C87.0371 161.523 87.0371 161.7 87.0371 161.877L115.146 172.543C115.146 172.307 115.146 172.13 115.087 172.012Z" fill="#323A50"/>
<path d="M115.618 174.016L87.1553 163.232C87.1553 163.35 87.2142 163.527 87.2142 163.704L115.736 174.488C115.677 174.37 115.677 174.193 115.618 174.016Z" fill="#323A50"/>
<path d="M116.147 175.961L87.4492 165.059C87.4492 165.236 87.5081 165.354 87.5081 165.53L116.265 176.432C116.206 176.314 116.147 176.137 116.147 175.961Z" fill="#323A50"/>
<path d="M116.737 178.023L87.7441 167.062C87.8031 167.239 87.803 167.357 87.862 167.534L116.914 178.554C116.796 178.377 116.796 178.2 116.737 178.023Z" fill="#323A50"/>
<path d="M117.326 180.086L88.1562 169.066C88.2152 169.243 88.2152 169.42 88.2741 169.538L117.444 180.557C117.444 180.38 117.385 180.204 117.326 180.086Z" fill="#323A50"/>
<path d="M117.975 182.148L88.6875 171.07C88.7464 171.246 88.7464 171.423 88.8054 171.541L118.093 182.62C118.093 182.502 118.034 182.325 117.975 182.148Z" fill="#323A50"/>
<path d="M118.564 184.093L89.2178 172.955C89.2767 173.132 89.3356 173.309 89.3356 173.427L118.682 184.564C118.741 184.446 118.623 184.211 118.564 184.093Z" fill="#323A50"/>
<path d="M119.33 186.214L89.9834 175.077C90.0423 175.253 90.1012 175.43 90.1602 175.607L119.507 186.745C119.389 186.509 119.389 186.332 119.33 186.214Z" fill="#323A50"/>
<path d="M119.978 188.277L90.6318 177.139C90.6908 177.316 90.7497 177.493 90.8086 177.67L120.096 188.748C120.096 188.571 120.037 188.453 119.978 188.277Z" fill="#323A50"/>
<path d="M120.745 190.398L91.457 179.32C91.516 179.496 91.5749 179.673 91.6338 179.85L120.862 190.928C120.862 190.752 120.803 190.575 120.745 190.398Z" fill="#323A50"/>
<path d="M121.51 192.461L92.3408 181.382C92.3997 181.559 92.4587 181.736 92.5176 181.912L121.687 192.932C121.628 192.814 121.569 192.637 121.51 192.461Z" fill="#323A50"/>
<path d="M122.276 194.641L93.2246 183.621C93.2835 183.798 93.3424 183.975 93.4603 184.152L122.512 195.171C122.394 194.995 122.335 194.818 122.276 194.641Z" fill="#323A50"/>
<path d="M123.042 196.703L94.1084 185.743C94.1673 185.919 94.2852 186.096 94.3441 186.273L123.219 197.234C123.16 197.057 123.101 196.88 123.042 196.703Z" fill="#323A50"/>
<path d="M123.809 198.766L95.1104 187.864C95.1693 188.041 95.2871 188.218 95.346 188.395L123.985 199.237C123.926 199.061 123.867 198.943 123.809 198.766Z" fill="#323A50"/>
<path d="M124.574 200.711L96.0527 189.868C96.1117 190.044 96.2295 190.221 96.2885 190.398L124.81 201.182C124.692 201.064 124.633 200.887 124.574 200.711Z" fill="#323A50"/>
<path d="M125.399 202.891L97.0547 192.166C97.1136 192.343 97.2315 192.52 97.2904 192.696L125.517 203.421C125.517 203.245 125.458 203.068 125.399 202.891Z" fill="#323A50"/>
<path d="M126.225 205.012L98.1748 194.405C98.2337 194.582 98.3516 194.759 98.4105 194.936L126.402 205.543C126.343 205.366 126.284 205.189 126.225 205.012Z" fill="#323A50"/>
<path d="M127.108 207.193L99.2939 196.645C99.3529 196.821 99.4707 196.998 99.5297 197.175L127.226 207.664C127.226 207.546 127.167 207.37 127.108 207.193Z" fill="#323A50"/>
<path d="M127.934 209.196L100.414 198.766C100.532 198.943 100.591 199.12 100.709 199.296L128.169 209.727C128.052 209.55 127.993 209.373 127.934 209.196Z" fill="#323A50"/>
<path d="M128.758 211.2L101.533 200.887C101.651 201.064 101.71 201.241 101.828 201.418L128.994 211.73C128.876 211.554 128.817 211.377 128.758 211.2Z" fill="#323A50"/>
<path d="M129.642 213.38L102.712 203.186C102.83 203.363 102.889 203.539 103.007 203.716L129.819 213.852C129.819 213.734 129.701 213.557 129.642 213.38Z" fill="#323A50"/>
<path d="M130.526 215.561L103.949 205.484C104.067 205.661 104.126 205.837 104.244 206.014L130.703 216.032C130.703 215.914 130.585 215.738 130.526 215.561Z" fill="#323A50"/>
<path d="M131.469 217.741L105.246 207.782C105.364 207.959 105.423 208.136 105.541 208.312L131.646 218.212C131.587 218.095 131.528 217.918 131.469 217.741Z" fill="#323A50"/>
<path d="M132.412 219.921L106.602 210.139C106.719 210.316 106.778 210.493 106.896 210.67L132.648 220.452C132.53 220.275 132.471 220.157 132.412 219.921Z" fill="#323A50"/>
<path d="M133.237 221.984L107.78 212.32C107.898 212.496 107.957 212.673 108.134 212.85L133.473 222.455C133.414 222.337 133.355 222.161 133.237 221.984Z" fill="#323A50"/>
<path d="M134.239 224.164L109.194 214.677C109.312 214.854 109.43 215.03 109.548 215.207L134.475 224.636C134.357 224.518 134.298 224.341 134.239 224.164Z" fill="#323A50"/>
<path d="M135.122 226.345L110.49 216.975C110.608 217.152 110.726 217.328 110.844 217.505L135.417 226.816C135.299 226.698 135.24 226.521 135.122 226.345Z" fill="#323A50"/>
<path d="M136.125 228.525L111.905 219.332C112.023 219.509 112.141 219.686 112.259 219.921L136.42 229.055C136.302 228.878 136.184 228.702 136.125 228.525Z" fill="#323A50"/>
<path d="M137.008 230.587L113.201 221.571C113.319 221.748 113.437 221.925 113.555 222.161L137.303 231.118C137.185 230.941 137.126 230.764 137.008 230.587Z" fill="#323A50"/>
<path d="M136.066 231.943L114.498 223.752C114.616 223.928 114.734 224.164 114.852 224.341L135.005 232.002C135.359 231.943 135.712 231.943 136.066 231.943Z" fill="#323A50"/>
<path d="M131.292 231.943L115.971 226.109C116.089 226.286 116.206 226.521 116.324 226.698L130.114 231.943C130.526 231.943 130.88 231.943 131.292 231.943Z" fill="#323A50"/>
<path d="M126.401 231.884L117.444 228.466C117.562 228.643 117.68 228.879 117.798 229.055L125.223 231.884C125.576 231.884 125.989 231.884 126.401 231.884Z" fill="#323A50"/>
<path d="M121.51 231.884L118.977 230.941C119.094 231.118 119.212 231.354 119.33 231.53L120.391 231.943C120.744 231.884 121.098 231.884 121.51 231.884Z" fill="#323A50"/>
<path d="M214.205 147.969C214.323 148.028 214.441 148.146 214.618 148.205L218.566 146.673C216.621 147.145 215.148 147.675 214.205 147.969Z" fill="#323A50"/>
<path d="M215.914 149.561L226.05 145.671C225.638 145.671 225.166 145.73 224.754 145.73L215.679 149.207C215.738 149.325 215.856 149.443 215.914 149.561Z" fill="#323A50"/>
<path d="M216.857 151.034L230.351 145.848C230.057 145.789 229.762 145.789 229.468 145.789L216.621 150.739C216.621 150.798 216.68 150.857 216.68 150.857C216.739 150.916 216.798 150.975 216.857 151.034Z" fill="#323A50"/>
<path d="M218.036 152.389L233.593 146.378C233.357 146.32 233.121 146.261 232.886 146.202L217.8 152.036C217.918 152.153 217.977 152.271 218.036 152.389Z" fill="#323A50"/>
<path d="M218.743 153.862L235.95 147.204C235.774 147.145 235.597 147.086 235.361 146.968L218.566 153.45C218.625 153.568 218.684 153.686 218.743 153.862Z" fill="#323A50"/>
<path d="M219.333 155.453L238.072 148.205C237.895 148.146 237.777 148.028 237.601 147.969L219.215 155.041C219.274 155.159 219.333 155.336 219.333 155.453Z" fill="#323A50"/>
<path d="M219.568 156.809C219.568 156.927 219.568 157.045 219.568 157.162L239.84 149.325C239.722 149.207 239.604 149.148 239.427 149.03L219.568 156.691C219.568 156.75 219.568 156.809 219.568 156.809Z" fill="#323A50"/>
<path d="M219.627 158.753C219.627 158.812 219.627 158.93 219.627 158.989L241.313 150.621C241.195 150.503 241.077 150.445 240.959 150.327L219.568 158.577C219.627 158.636 219.627 158.695 219.627 158.753Z" fill="#323A50"/>
<path d="M219.509 160.404L242.314 151.623C242.432 151.741 242.491 151.859 242.609 151.977L219.509 160.875C219.509 160.757 219.509 160.58 219.509 160.404Z" fill="#323A50"/>
<path d="M219.391 162.348L243.434 153.096C243.493 153.155 243.552 153.273 243.67 153.45L219.332 162.82C219.332 162.643 219.391 162.466 219.391 162.348Z" fill="#323A50"/>
<path d="M219.156 164.234L244.318 154.511C244.377 154.629 244.436 154.747 244.495 154.864L219.097 164.646C219.097 164.529 219.156 164.352 219.156 164.234Z" fill="#323A50"/>
<path d="M218.861 166.179L245.025 156.102C245.084 156.22 245.084 156.337 245.143 156.514L218.802 166.65C218.802 166.473 218.802 166.355 218.861 166.179Z" fill="#323A50"/>
<path d="M218.507 168.005L245.379 157.634C245.379 157.752 245.438 157.869 245.438 158.046L218.448 168.477C218.448 168.3 218.507 168.182 218.507 168.005Z" fill="#323A50"/>
<path d="M218.094 170.009L245.555 159.402C245.555 159.52 245.555 159.696 245.555 159.814L217.977 170.48C218.035 170.363 218.035 170.186 218.094 170.009Z" fill="#323A50"/>
<path d="M217.623 172.012L245.615 161.229C245.615 161.346 245.615 161.523 245.615 161.7L217.564 172.543C217.564 172.307 217.623 172.189 217.623 172.012Z" fill="#323A50"/>
<path d="M217.152 174.075L245.556 163.114C245.556 163.232 245.556 163.409 245.497 163.586L217.034 174.546C217.034 174.37 217.093 174.193 217.152 174.075Z" fill="#323A50"/>
<path d="M216.622 175.961L245.261 164.882C245.261 165.059 245.202 165.177 245.202 165.353L216.504 176.432C216.504 176.314 216.563 176.137 216.622 175.961Z" fill="#323A50"/>
<path d="M216.032 178.082L244.966 166.945C244.966 167.121 244.907 167.239 244.848 167.416L215.914 178.553C215.914 178.377 216.032 178.2 216.032 178.082Z" fill="#323A50"/>
<path d="M215.443 180.086L244.554 168.889C244.495 169.066 244.495 169.243 244.436 169.361L215.325 180.557C215.325 180.439 215.384 180.262 215.443 180.086Z" fill="#323A50"/>
<path d="M214.795 182.207L243.964 170.952C243.905 171.128 243.905 171.305 243.846 171.423L214.677 182.678C214.677 182.502 214.736 182.384 214.795 182.207Z" fill="#323A50"/>
<path d="M214.205 184.093L243.434 172.779C243.375 172.955 243.316 173.132 243.316 173.25L214.028 184.564C214.087 184.446 214.146 184.27 214.205 184.093Z" fill="#323A50"/>
<path d="M213.498 186.214L242.786 174.9C242.727 175.077 242.668 175.253 242.609 175.43L213.321 186.745C213.38 186.568 213.439 186.391 213.498 186.214Z" fill="#323A50"/>
<path d="M212.85 188.336L242.137 177.021C242.078 177.198 242.019 177.375 241.96 177.552L212.673 188.866C212.732 188.63 212.791 188.454 212.85 188.336Z" fill="#323A50"/>
<path d="M212.084 190.457L241.312 179.202C241.253 179.378 241.194 179.555 241.135 179.732L211.966 190.987C211.966 190.752 212.025 190.634 212.084 190.457Z" fill="#323A50"/>
<path d="M211.377 192.52L240.488 181.323C240.429 181.5 240.37 181.677 240.311 181.854L211.2 193.05C211.259 192.873 211.318 192.696 211.377 192.52Z" fill="#323A50"/>
<path d="M210.611 194.7L239.604 183.504C239.545 183.68 239.486 183.857 239.368 184.034L210.375 195.171C210.434 195.054 210.552 194.877 210.611 194.7Z" fill="#323A50"/>
<path d="M209.786 196.763L238.602 185.625C238.543 185.802 238.484 185.979 238.366 186.155L209.55 197.234C209.668 197.116 209.727 196.939 209.786 196.763Z" fill="#323A50"/>
<path d="M209.079 198.825L237.718 187.746C237.659 187.923 237.541 188.1 237.482 188.277L208.843 199.296C208.961 199.178 209.02 199.002 209.079 198.825Z" fill="#323A50"/>
<path d="M208.313 200.77L236.775 189.809C236.716 189.986 236.598 190.162 236.539 190.339L208.136 201.3C208.195 201.123 208.254 201.005 208.313 200.77Z" fill="#323A50"/>
<path d="M207.487 202.95L235.714 192.048C235.655 192.225 235.537 192.402 235.478 192.578L207.311 203.48C207.369 203.303 207.428 203.127 207.487 202.95Z" fill="#323A50"/>
<path d="M206.662 205.071L234.653 194.287C234.594 194.464 234.476 194.641 234.418 194.818L206.485 205.602C206.544 205.425 206.603 205.248 206.662 205.071Z" fill="#323A50"/>
<path d="M205.838 207.252L233.534 196.586C233.475 196.762 233.358 196.939 233.299 197.116L205.661 207.782C205.661 207.605 205.779 207.429 205.838 207.252Z" fill="#323A50"/>
<path d="M205.013 209.314L232.474 198.707C232.356 198.884 232.297 199.061 232.179 199.237L204.777 209.786C204.895 209.668 204.954 209.491 205.013 209.314Z" fill="#323A50"/>
<path d="M204.188 211.318L231.354 200.829C231.236 201.005 231.177 201.182 231.059 201.359L203.952 211.789C204.07 211.671 204.129 211.495 204.188 211.318Z" fill="#323A50"/>
<path d="M203.304 213.498L230.175 203.127C230.057 203.303 229.998 203.48 229.881 203.657L203.127 213.97C203.186 213.852 203.245 213.675 203.304 213.498Z" fill="#323A50"/>
<path d="M202.42 215.62L228.938 205.366C228.82 205.543 228.761 205.72 228.643 205.896L202.243 216.091C202.302 215.973 202.361 215.796 202.42 215.62Z" fill="#323A50"/>
<path d="M201.536 217.859L227.7 207.782C227.583 207.959 227.524 208.136 227.406 208.312L201.359 218.33C201.418 218.212 201.477 218.036 201.536 217.859Z" fill="#323A50"/>
<path d="M200.593 220.098L226.345 210.139C226.227 210.316 226.168 210.493 226.05 210.67L200.357 220.57C200.475 220.393 200.534 220.216 200.593 220.098Z" fill="#323A50"/>
<path d="M199.768 222.102L225.166 212.32C225.048 212.496 224.989 212.673 224.872 212.85L199.532 222.632C199.591 222.455 199.709 222.278 199.768 222.102Z" fill="#323A50"/>
<path d="M198.826 224.282L223.87 214.618C223.752 214.794 223.693 214.971 223.517 215.207L198.59 224.812C198.649 224.636 198.767 224.459 198.826 224.282Z" fill="#323A50"/>
<path d="M197.882 226.462L222.514 216.975C222.396 217.152 222.279 217.328 222.161 217.564L197.646 226.993C197.705 226.816 197.823 226.639 197.882 226.462Z" fill="#323A50"/>
<path d="M196.939 228.702L221.1 219.391C220.982 219.568 220.864 219.745 220.746 219.98L196.645 229.291C196.762 229.055 196.88 228.879 196.939 228.702Z" fill="#323A50"/>
<path d="M196.055 230.705L219.804 221.512C219.686 221.689 219.568 221.925 219.45 222.102L195.761 231.236C195.879 231.059 195.938 230.882 196.055 230.705Z" fill="#323A50"/>
<path d="M196.998 232.061L218.566 223.752C218.448 223.928 218.33 224.164 218.212 224.341L198.118 232.061C197.705 232.061 197.352 232.061 196.998 232.061Z" fill="#323A50"/>
<path d="M201.771 232.061L217.093 226.168C216.975 226.345 216.857 226.58 216.739 226.757L202.95 232.061C202.538 232.061 202.184 232.061 201.771 232.061Z" fill="#323A50"/>
<path d="M206.722 231.943L215.679 228.525C215.561 228.702 215.443 228.937 215.325 229.114L207.959 231.943C207.488 231.943 207.075 231.943 206.722 231.943Z" fill="#323A50"/>
<path d="M211.554 231.943L214.088 230.941C213.97 231.118 213.852 231.354 213.734 231.53L212.673 231.943C212.32 231.943 211.966 231.943 211.554 231.943Z" fill="#323A50"/>
</g>
<defs>
<linearGradient id="paint0_linear_3672_16249" x1="270.6" y1="226.036" x2="69.2801" y2="78.7878" gradientUnits="userSpaceOnUse">
<stop offset="0.2655" stop-color="#032A3D" stop-opacity="0"/>
<stop offset="0.7809" stop-color="#032A3D"/>
</linearGradient>
<radialGradient id="paint1_radial_3672_16249" cx="0" cy="0" r="1" gradientUnits="userSpaceOnUse" gradientTransform="translate(165.688 218.249) scale(68.1039 67.7879)">
<stop offset="0.2655" stop-color="#032A3D" stop-opacity="0"/>
<stop offset="1" stop-color="#032A3D"/>
</radialGradient>
<linearGradient id="paint2_linear_3672_16249" x1="138.997" y1="110.692" x2="189.029" y2="307.092" gradientUnits="userSpaceOnUse">
<stop offset="0.4054" stop-color="#032A3D" stop-opacity="0"/>
<stop offset="1" stop-color="#032A3D"/>
</linearGradient>
<linearGradient id="paint3_linear_3672_16249" x1="102.883" y1="177.867" x2="234.48" y2="301.316" gradientUnits="userSpaceOnUse">
<stop offset="0.2655" stop-color="#032A3D" stop-opacity="0"/>
<stop offset="0.7809" stop-color="#032A3D"/>
</linearGradient>
<linearGradient id="paint4_linear_3672_16249" x1="110.077" y1="170.197" x2="241.675" y2="293.646" gradientUnits="userSpaceOnUse">
<stop offset="0.2655" stop-color="#032A3D" stop-opacity="0"/>
<stop offset="0.7809" stop-color="#032A3D"/>
</linearGradient>
<linearGradient id="paint5_linear_3672_16249" x1="107.54" y1="172.902" x2="239.137" y2="296.351" gradientUnits="userSpaceOnUse">
<stop offset="0.2655" stop-color="#032A3D" stop-opacity="0"/>
<stop offset="0.7809" stop-color="#032A3D"/>
</linearGradient>
<linearGradient id="paint6_linear_3672_16249" x1="82.4874" y1="199.608" x2="214.085" y2="323.057" gradientUnits="userSpaceOnUse">
<stop offset="0.2655" stop-color="#032A3D" stop-opacity="0"/>
<stop offset="0.7809" stop-color="#032A3D"/>
</linearGradient>
<linearGradient id="paint7_linear_3672_16249" x1="101.238" y1="179.619" x2="232.835" y2="303.068" gradientUnits="userSpaceOnUse">
<stop offset="0.2655" stop-color="#032A3D" stop-opacity="0"/>
<stop offset="0.7809" stop-color="#032A3D"/>
</linearGradient>
<linearGradient id="paint8_linear_3672_16249" x1="90.89" y1="190.65" x2="222.487" y2="314.099" gradientUnits="userSpaceOnUse">
<stop offset="0.2655" stop-color="#032A3D" stop-opacity="0"/>
<stop offset="0.7809" stop-color="#032A3D"/>
</linearGradient>
<linearGradient id="paint9_linear_3672_16249" x1="72.3384" y1="210.426" x2="203.936" y2="333.875" gradientUnits="userSpaceOnUse">
<stop offset="0.2655" stop-color="#032A3D" stop-opacity="0"/>
<stop offset="0.7809" stop-color="#032A3D"/>
</linearGradient>
<linearGradient id="paint10_linear_3672_16249" x1="75.4193" y1="207.142" x2="207.017" y2="330.591" gradientUnits="userSpaceOnUse">
<stop offset="0.2655" stop-color="#032A3D" stop-opacity="0"/>
<stop offset="0.7809" stop-color="#032A3D"/>
</linearGradient>
<linearGradient id="paint11_linear_3672_16249" x1="85.7619" y1="196.117" x2="217.359" y2="319.566" gradientUnits="userSpaceOnUse">
<stop offset="0.2655" stop-color="#032A3D" stop-opacity="0"/>
<stop offset="0.7809" stop-color="#032A3D"/>
</linearGradient>
<linearGradient id="paint12_linear_3672_16249" x1="72.3004" y1="210.467" x2="203.898" y2="333.916" gradientUnits="userSpaceOnUse">
<stop offset="0.2655" stop-color="#032A3D" stop-opacity="0"/>
<stop offset="0.7809" stop-color="#032A3D"/>
</linearGradient>
<clipPath id="clip0_3672_16249">
<rect width="330" height="330" fill="white"/>
</clipPath>
</defs>
</svg>
