<svg width="330" height="330" viewBox="0 0 330 330" fill="none" xmlns="http://www.w3.org/2000/svg">
<g clip-path="url(#clip0_3618_7535)">
<path d="M166.709 301.066C162.231 301.066 157.693 300.713 153.332 300.005C149.031 299.416 142.195 297.884 137.598 295.88C121.806 289.988 108.37 279.616 98.5877 265.827C88.5699 251.743 83.3252 235.125 83.3252 217.741C83.3252 205.72 85.8591 194.052 90.8091 183.209C95.5823 172.72 102.418 163.468 111.022 155.748L112.495 154.216C117.975 148.559 118.211 148.323 120.922 145.2C121.216 144.847 121.57 144.493 121.923 144.08C124.87 140.663 130.409 134.298 137.893 128.936C147.027 122.395 156.691 118.977 166.473 118.918H166.709C176.491 118.977 186.156 122.395 195.289 128.936C202.773 134.298 208.313 140.663 211.259 144.08C211.613 144.493 211.966 144.847 212.261 145.2C214.382 147.557 214.913 148.205 217.623 150.975C218.566 151.977 219.804 153.214 221.513 154.923C230.352 162.643 237.365 172.013 242.314 182.62C247.441 193.639 250.034 205.425 250.034 217.682C250.034 228.938 247.854 239.839 243.493 250.152C239.309 260.052 233.298 269.009 225.638 276.67C217.977 284.33 209.079 290.341 199.12 294.525C188.866 298.886 177.964 301.066 166.709 301.066ZM166.709 119.684H166.473C143.963 119.861 128.406 137.834 122.513 144.611C122.159 145.023 121.806 145.436 121.511 145.73C118.741 148.854 118.506 149.089 113.025 154.746L111.552 156.279C94.1091 171.954 84.0913 194.347 84.0913 217.682C84.0913 251.979 105.718 283.093 137.834 295.055C142.372 297 149.089 298.532 153.391 299.121C157.752 299.829 162.231 300.182 166.65 300.182C212.143 300.182 249.209 263.116 249.209 217.623C249.209 193.816 238.897 171.129 220.982 155.454C219.332 153.745 218.095 152.448 217.093 151.447C214.382 148.677 213.793 148.088 211.672 145.672C211.377 145.318 211.023 144.964 210.67 144.552C204.836 137.834 189.279 119.861 166.709 119.684Z" fill="#323A50"/>
<path opacity="0.2" d="M208.666 154.923C211.613 153.273 213.204 152.094 210.198 148.618C205.072 142.784 189.691 123.278 166.414 123.102H166.179C142.902 123.278 127.522 142.843 122.395 148.618C119.33 152.094 121.747 154.098 123.102 155.159C129.113 151.328 134.534 148.323 141.605 146.025C141.782 145.966 150.68 141.723 165.589 141.605C165.648 141.605 175.725 141.546 185.213 144.493C196.88 147.616 202.479 151.387 208.666 154.923Z" fill="url(#paint0_linear_3618_7535)"/>
<path opacity="0.2" d="M165.884 286.393C203.507 286.393 234.006 256.026 234.006 218.566C234.006 181.106 203.507 150.739 165.884 150.739C128.262 150.739 97.7627 181.106 97.7627 218.566C97.7627 256.026 128.262 286.393 165.884 286.393Z" fill="url(#paint1_radial_3618_7535)"/>
<path opacity="0.34" d="M237.364 186.921C237.305 186.744 237.246 186.567 237.128 186.449C236.893 186.921 236.48 187.333 235.95 187.687C234.535 188.512 232.355 188.099 231.648 186.567C231.235 185.742 230.823 184.976 230.293 184.21C230.057 183.797 229.762 183.444 229.468 183.031C229.35 182.855 229.35 182.855 229.468 183.031C229.409 182.972 229.35 182.855 229.291 182.796C229.173 182.619 228.996 182.442 228.878 182.265C227.641 180.851 226.168 179.437 224.989 178.612C224.223 178.081 223.457 177.61 222.632 177.198C222.396 177.08 222.16 176.962 221.925 176.844C221.866 176.844 221.866 176.844 221.866 176.785C221.453 176.608 221.041 176.49 220.569 176.373C220.098 176.255 219.627 176.137 219.155 176.019C219.155 176.019 218.448 175.901 218.507 175.901C218.33 175.901 218.212 175.842 218.035 175.842C216.916 175.724 215.855 175.724 214.735 175.724C210.669 175.842 207.193 176.49 203.244 176.962C199.06 177.492 194.935 177.787 190.752 178.081C182.56 178.671 174.428 179.672 166.178 179.79C162.171 179.849 158.105 179.142 154.157 178.435C150.209 177.728 146.555 177.198 142.784 176.785C134.828 175.842 126.755 175.371 118.741 176.137C117.091 176.255 115.853 174.84 115.618 173.367C115.559 173.367 115.5 173.367 115.441 173.426C114.969 173.544 114.498 173.662 114.085 173.839C113.85 173.898 113.614 174.015 113.319 174.074C113.202 174.133 113.143 174.133 113.084 174.192C111.198 175.017 109.371 176.137 107.721 177.374C107.662 177.433 107.309 177.728 107.25 177.728C107.014 177.905 106.778 178.081 106.602 178.317C106.189 178.671 105.835 179.024 105.423 179.378C104.657 180.144 103.891 180.969 103.243 181.794C103.184 181.853 103.184 181.912 103.125 181.912L103.066 181.971C102.889 182.206 102.712 182.383 102.594 182.619C102.359 183.031 102.064 183.385 101.828 183.798C101.593 184.21 101.357 184.564 101.18 184.976C101.121 185.094 100.827 185.86 101.121 185.094C101.062 185.33 100.944 185.506 100.885 185.742C100.296 187.392 98.764 188.335 96.9961 187.923C96.4069 187.805 95.8765 187.451 95.464 186.98C95.4051 187.098 95.5229 187.215 95.464 187.333C91.5158 196.644 89.1587 206.839 89.1587 217.564C89.1587 260.287 123.75 294.878 166.473 294.878C209.196 294.878 243.787 260.287 243.787 217.564C243.669 206.662 241.43 196.29 237.364 186.921Z" fill="url(#paint2_linear_3618_7535)"/>
<g opacity="0.2">
<path d="M226.757 246.322L226.285 246.263C225.991 248.62 219.096 251.861 217.623 252.097C217.034 252.214 216.68 252.038 216.327 251.92C215.796 251.743 215.325 251.507 214.382 252.038C212.85 252.981 207.487 258.814 206.309 261.643C205.13 264.53 204.364 266.063 201.653 267.123C200.18 267.713 197.941 267.713 195.584 267.713C193.403 267.713 191.164 267.713 189.455 268.184C186.862 268.891 184.387 270.07 183.15 270.659C183.798 269.952 184.387 269.186 184.977 268.538C186.037 267.3 186.98 266.18 187.569 265.768C188.335 265.179 191.164 264.884 194.11 264.589C198.059 264.177 202.596 263.647 204.01 262.35C205.602 260.818 207.841 255.22 209.609 250.682C210.552 248.266 211.377 246.204 211.907 245.379C212.437 244.495 213.91 243.493 215.502 242.432C218.212 240.664 221.277 238.602 221.218 236.127H220.746C220.805 238.307 217.859 240.311 215.266 242.02C213.557 243.139 212.084 244.141 211.494 245.143C210.964 246.027 210.139 248.089 209.196 250.505C207.428 254.984 205.189 260.582 203.716 261.997C203.185 262.468 202.125 262.88 200.828 263.175C201.712 262.704 202.714 261.997 203.421 261.054C204.718 259.404 205.837 255.514 206.427 253.393C206.544 253.039 206.603 252.745 206.662 252.509C206.839 251.861 206.603 251.448 206.368 251.036C206.073 250.564 205.778 250.093 205.955 248.914C206.191 247.618 206.898 247.088 207.723 246.557C208.253 246.145 208.784 245.791 209.196 245.143C210.198 243.552 209.55 241.902 209.255 241.018V240.959C209.019 240.37 208.489 240.429 208.077 240.429C207.664 240.488 207.428 240.488 207.31 240.252C207.193 240.016 207.487 239.545 207.841 239.073C208.312 238.366 208.902 237.541 208.548 236.834L208.135 237.011C208.371 237.541 207.9 238.189 207.487 238.779C207.016 239.427 206.603 240.016 206.957 240.488C207.252 241.018 207.782 240.959 208.194 240.9C208.607 240.841 208.784 240.841 208.902 241.077V241.136C209.255 242.02 209.785 243.434 208.902 244.789C208.548 245.32 208.077 245.732 207.546 246.086C206.721 246.675 205.896 247.264 205.602 248.797C205.366 250.152 205.719 250.741 206.073 251.272C206.309 251.625 206.427 251.861 206.309 252.332C206.25 252.509 206.191 252.863 206.073 253.216C205.543 255.161 204.423 259.109 203.185 260.7C201.771 262.468 199.296 263.411 199.06 263.47C197.528 263.705 195.76 263.882 194.169 264.059C191.046 264.413 188.335 264.707 187.452 265.297C186.803 265.768 185.86 266.888 184.741 268.184C182.619 270.718 179.673 274.136 177.669 274.018C176.609 273.959 175.489 273.723 174.31 273.488C171.894 273.016 169.184 272.427 166.237 272.957C160.168 274.077 158.105 275.255 156.927 276.729C155.748 278.084 155.159 279.852 155.159 279.911L155.571 280.088C155.571 280.088 156.16 278.32 157.28 277.023C158.4 275.668 160.403 274.548 166.355 273.429C169.184 272.898 171.894 273.429 174.252 273.959C175.489 274.195 176.609 274.43 177.669 274.548C179.202 274.666 180.969 273.134 182.678 271.366L182.737 271.543C182.796 271.543 186.096 269.657 189.632 268.714C191.341 268.243 193.521 268.243 195.643 268.243C198.059 268.243 200.357 268.243 201.889 267.654C204.777 266.534 205.602 264.825 206.78 261.879C207.9 259.168 213.144 253.393 214.618 252.509C215.325 252.038 215.678 252.214 216.15 252.391C216.562 252.568 217.034 252.745 217.741 252.627C219.391 252.273 226.462 248.973 226.757 246.322Z" fill="url(#paint3_linear_3618_7535)"/>
<path d="M170.893 257.341C170.126 258.166 170.244 259.58 170.362 261.171C170.48 262.703 170.657 264.412 169.95 265.885C168.594 268.655 162.525 270.835 162.466 270.894L162.584 271.366C162.819 271.307 168.889 269.126 170.303 266.121C171.01 264.589 170.893 262.762 170.775 261.171C170.657 259.698 170.539 258.401 171.187 257.753C171.894 257.046 174.428 256.457 176.668 255.985C179.26 255.396 181.5 254.866 182.03 254.158C182.56 253.451 182.678 252.803 182.737 252.214C182.855 251.566 182.914 251.094 183.503 250.682C183.798 250.505 185.33 250.564 186.98 250.682C191.518 250.917 198.412 251.33 200.887 247.912C202.832 245.201 202.184 243.198 201.594 241.489C201.123 240.075 200.71 238.837 201.594 237.364C202.243 236.185 203.48 235.832 204.835 235.36C207.487 234.476 210.787 233.416 212.909 226.639C213.38 225.048 213.144 223.398 212.909 221.807C212.555 219.685 212.26 217.682 213.498 215.855L213.085 215.619C211.73 217.623 212.084 219.803 212.378 221.924C212.614 223.516 212.85 225.048 212.378 226.521C210.316 233.121 207.193 234.123 204.659 234.948C203.185 235.419 201.948 235.832 201.123 237.128C200.18 238.778 200.652 240.251 201.123 241.607C201.712 243.316 202.302 245.142 200.475 247.617C198.177 250.8 191.164 250.387 186.98 250.21C185.389 250.151 184.328 250.092 183.739 250.151C183.975 249.503 184.152 248.56 184.328 247.558C184.623 245.791 184.977 243.728 186.037 242.608C186.568 242.078 187.275 241.842 188.276 241.548C190.575 240.899 193.816 239.957 196.35 233.416V233.357C196.821 231.117 196.291 229.526 195.76 228.583C195.525 228.171 195.053 227.935 194.582 227.699C194.052 227.464 193.462 227.169 192.991 226.462C192.166 225.225 191.812 218.33 192.107 216.975C192.107 216.857 192.166 216.798 192.166 216.798C192.225 216.739 192.519 216.857 192.755 216.916C193.462 217.151 194.7 217.623 196.173 216.562L195.937 216.15C194.641 217.092 193.639 216.739 192.932 216.444C192.519 216.326 192.225 216.208 191.989 216.326C191.871 216.385 191.753 216.562 191.694 216.798C191.459 218.094 191.694 225.224 192.637 226.639C193.168 227.405 193.875 227.758 194.405 228.053C194.818 228.23 195.171 228.407 195.348 228.701C195.819 229.585 196.35 230.999 195.878 233.121C193.403 239.426 190.398 240.31 188.159 240.958C187.157 241.253 186.332 241.489 185.684 242.137C184.564 243.374 184.21 245.437 183.857 247.323C183.68 248.56 183.444 249.68 183.091 250.21C182.443 250.682 182.325 251.33 182.207 251.978C182.089 252.567 182.03 253.098 181.559 253.746C181.087 254.394 178.612 254.924 176.432 255.396C174.075 255.985 171.659 256.516 170.893 257.341Z" fill="url(#paint4_linear_3618_7535)"/>
<path d="M171.6 210.551C172.189 211.2 172.66 211.671 172.366 213.085C172.189 214.028 171.659 215.384 171.069 216.857C170.068 219.45 169.066 222.101 169.537 223.28C169.773 223.869 170.127 224.282 170.48 224.694C171.187 225.578 172.012 226.462 171.6 229.114C171.246 231.235 170.127 232.885 169.243 234.241C168.477 235.419 167.769 236.421 167.828 237.423C167.887 238.189 168.3 238.719 168.771 239.191C169.478 240.134 170.244 241.018 169.243 243.375C168.477 245.201 167.416 245.673 166.532 246.026C165.589 246.439 164.823 246.793 165.059 248.56C165.353 250.387 166.532 251.625 167.652 252.744C168.477 253.569 169.302 254.453 169.891 255.573L170.303 255.396C169.714 254.218 168.83 253.275 168.005 252.391C166.885 251.271 165.825 250.151 165.53 248.443C165.294 247.028 165.766 246.852 166.709 246.439C167.593 246.027 168.83 245.496 169.655 243.551C170.775 240.9 169.891 239.839 169.066 238.837C168.653 238.307 168.3 237.894 168.241 237.305C168.182 236.539 168.771 235.596 169.537 234.476C170.48 233.121 171.659 231.412 172.012 229.173C172.484 226.285 171.6 225.284 170.834 224.4C170.48 223.987 170.185 223.634 169.95 223.103C169.537 222.043 170.598 219.391 171.482 217.034C172.071 215.56 172.602 214.205 172.778 213.203C173.132 211.553 172.543 210.905 171.894 210.198C171.482 209.727 171.01 209.255 170.834 208.371L170.362 208.489C170.598 209.55 171.128 210.08 171.6 210.551Z" fill="url(#paint5_linear_3618_7535)"/>
<path d="M173.957 274.548C172.366 273.782 168.359 273.428 165.884 273.899C163.527 274.312 159.343 275.255 157.752 277.023C156.809 278.024 155.984 279.969 155.984 280.087L156.396 280.264C156.396 280.264 157.28 278.319 158.105 277.376C159.696 275.667 164.175 274.724 166.002 274.371C168.654 273.899 172.425 274.371 173.78 275.019C175.254 275.726 175.784 276.787 175.843 277.317C176.02 278.967 173.309 280.44 173.309 280.44L173.486 280.853C173.604 280.794 176.55 279.203 176.255 277.258C176.196 276.492 175.489 275.314 173.957 274.548Z" fill="url(#paint6_linear_3618_7535)"/>
<path d="M175.194 245.909C176.019 246.262 176.844 246.557 177.375 247.323C178.023 248.207 179.319 250.505 177.551 252.509C176.844 253.334 175.076 253.982 173.367 254.63C171.659 255.219 170.067 255.809 169.596 256.634C169.066 257.459 169.125 258.873 169.242 260.523C169.36 261.996 169.419 263.528 169.125 264.707C168.417 267.182 162.289 270.069 162.23 270.069L162.407 270.482C162.642 270.364 168.771 267.476 169.537 264.825C169.891 263.528 169.773 261.937 169.655 260.464C169.537 258.932 169.478 257.576 169.891 256.869C170.303 256.221 171.894 255.632 173.485 255.101C175.253 254.453 177.08 253.805 177.846 252.862C179.201 251.271 179.142 249.15 177.669 247.087C177.08 246.203 176.137 245.85 175.312 245.496C174.487 245.143 173.662 244.848 173.309 244.082C172.601 242.55 173.132 240.841 174.075 240.193C174.31 240.016 174.605 239.898 174.841 239.721C175.725 239.191 176.55 238.719 177.61 237.541C179.025 236.009 181.676 229.762 182.148 226.757C182.442 224.989 181.971 224.164 181.441 223.339C181.028 222.691 180.616 222.043 180.498 220.746L180.026 220.805C180.144 222.16 180.616 222.926 181.028 223.575C181.5 224.341 181.971 225.048 181.676 226.639C181.205 229.585 178.612 235.714 177.257 237.187C176.255 238.307 175.371 238.778 174.546 239.309C174.31 239.485 174.016 239.603 173.78 239.78C172.66 240.487 172.012 242.491 172.837 244.259C173.367 245.201 174.251 245.555 175.194 245.909Z" fill="url(#paint7_linear_3618_7535)"/>
</g>
<g opacity="0.2">
<path d="M154.982 272.78C154.805 271.543 153.391 270.541 151.918 269.539C150.798 268.773 149.089 267.83 147.616 266.946C146.319 266.239 145.141 265.532 144.728 265.237C144.61 265.178 144.493 265.002 144.375 264.825C143.668 263.705 143.137 260.936 143.255 258.755C143.314 257.518 143.196 256.575 143.137 255.75C143.019 254.925 142.96 254.336 143.196 253.805C143.373 253.393 143.668 253.334 144.139 253.275C144.61 253.216 145.259 253.098 145.553 252.332C145.789 251.684 145.671 250.918 145.612 250.269C145.553 249.621 145.435 248.973 145.73 248.502C146.025 248.089 146.319 247.971 146.732 247.853C147.144 247.677 147.616 247.5 148.028 246.911C148.382 246.38 147.91 245.673 147.321 244.789C146.437 243.552 145.259 241.784 145.73 239.603C146.26 237.305 146.968 237.364 147.969 237.541C148.441 237.6 149.03 237.718 149.56 237.482C150.503 237.128 151.387 235.066 152.271 232.944C152.978 231.294 153.685 229.586 154.334 229.114C155.041 228.584 155.63 228.466 156.219 228.348C156.809 228.23 157.339 228.171 157.752 227.582C158.282 226.934 157.987 226.05 157.752 225.284C157.634 224.812 157.457 224.341 157.575 224.105L157.162 223.869C156.985 224.282 157.103 224.812 157.28 225.402C157.457 226.05 157.693 226.875 157.339 227.287C156.985 227.7 156.632 227.759 156.043 227.877C155.453 227.994 154.746 228.112 153.98 228.702C153.273 229.232 152.566 230.941 151.8 232.768C151.034 234.653 150.15 236.775 149.325 237.069C148.853 237.246 148.382 237.187 147.91 237.128C146.85 237.011 145.789 236.834 145.141 239.544C144.61 241.902 145.848 243.728 146.791 245.084C147.262 245.791 147.734 246.38 147.498 246.675C147.203 247.146 146.85 247.264 146.437 247.441C146.025 247.559 145.612 247.736 145.259 248.266C144.846 248.855 144.964 249.621 145.082 250.328C145.2 250.977 145.259 251.625 145.082 252.155C144.905 252.686 144.493 252.744 144.021 252.803C143.55 252.862 143.019 252.921 142.725 253.628C142.489 254.277 142.548 254.925 142.666 255.809C142.784 256.575 142.843 257.459 142.784 258.696C142.666 260.052 142.843 261.702 143.196 263.116C142.194 261.466 140.898 258.932 140.662 256.457C140.485 254.336 140.898 253.628 141.428 252.509C141.959 251.448 142.607 250.152 143.137 247.205C143.844 243.021 142.018 239.132 140.839 237.128C140.957 236.716 141.782 233.946 143.962 233.18L145.082 232.768C147.144 232.061 148.971 231.353 149.914 230.882C151.151 230.234 152.153 228.112 152.389 226.816C152.507 226.05 152.153 225.578 151.8 225.166C151.505 224.753 151.21 224.4 151.21 223.752C151.269 223.221 152.035 222.691 152.919 222.102C154.157 221.218 155.748 220.216 156.396 218.448C157.162 216.327 156.396 215.384 155.748 214.559C155.394 214.146 155.1 213.793 154.982 213.262L154.569 213.38C154.687 213.969 155.1 214.441 155.453 214.853C156.101 215.678 156.691 216.444 156.043 218.271C155.453 219.862 153.921 220.864 152.743 221.689C151.682 222.396 150.916 222.927 150.798 223.693C150.739 224.518 151.151 224.989 151.446 225.402C151.8 225.814 152.035 226.109 151.918 226.698C151.682 228.053 150.68 229.939 149.737 230.469C148.794 230.941 146.909 231.589 144.905 232.296L143.785 232.709C141.782 233.416 140.839 235.655 140.485 236.598C140.073 236.009 139.837 235.655 139.778 235.596C139.719 235.537 135.535 231.707 133.65 228.761C131.764 225.814 131.823 223.398 132.825 222.514C133.355 222.043 134.416 221.984 135.712 221.925C136.891 221.866 138.187 221.807 139.366 221.394C141.134 220.746 142.43 218.212 142.725 217.446C143.255 216.327 143.726 214.794 143.432 214.087C142.96 212.791 140.957 212.378 140.898 212.319L140.839 212.791C140.839 212.791 142.666 213.203 143.019 214.264C143.137 214.677 142.96 215.796 142.312 217.269C141.664 218.743 140.485 220.511 139.189 220.982C138.069 221.394 136.832 221.453 135.712 221.512C134.416 221.571 133.237 221.63 132.589 222.161C131.469 223.162 131.234 225.696 133.355 228.996C135.182 231.884 139.248 235.596 139.543 235.891C139.778 236.186 143.785 241.312 142.784 247.087C142.312 249.916 141.664 251.212 141.134 252.273C141.016 252.509 140.898 252.744 140.78 252.98C140.25 251.566 140.309 250.741 140.368 250.093C140.427 249.15 140.368 248.619 139.071 247.794C137.362 246.734 134.062 246.557 131.882 246.439C130.998 246.38 130.232 246.321 129.878 246.262C128.464 245.909 127.816 245.319 127.403 244.082C127.109 243.08 127.344 242.786 127.816 242.255C127.934 242.137 128.051 241.961 128.228 241.784C128.405 241.548 128.759 241.312 129.112 241.136C129.937 240.664 131.057 240.016 130.939 238.366C130.88 236.952 129.937 236.48 128.994 235.95C128.346 235.596 127.698 235.302 127.226 234.594C125.989 232.944 124.516 228.171 124.221 225.578C123.926 222.691 124.457 217.211 124.928 216.857C125.105 216.798 125.871 217.152 126.46 217.446C127.58 217.977 128.994 218.625 129.937 218.389C130.114 218.33 130.232 218.33 130.409 218.271C131.646 217.977 131.764 217.859 131.705 216.621C131.646 215.737 130.998 215.619 130.468 215.561C130.055 215.502 129.76 215.443 129.525 215.148C129.053 214.559 129.23 212.319 129.289 211.494L128.818 211.436C128.759 211.789 128.464 214.559 129.112 215.443C129.466 215.855 129.937 215.914 130.35 215.973C130.939 216.091 131.234 216.15 131.234 216.621C131.293 217.093 131.293 217.328 131.175 217.446C131.057 217.564 130.762 217.623 130.291 217.741C130.173 217.8 129.996 217.8 129.819 217.859C128.994 218.036 127.698 217.446 126.637 216.916C125.635 216.444 125.105 216.209 124.752 216.327C123.809 216.68 123.514 223.28 123.691 225.519C123.926 228.23 125.4 233.062 126.755 234.771C127.285 235.478 128.051 235.891 128.7 236.244C129.643 236.716 130.35 237.128 130.409 238.307C130.468 239.662 129.643 240.134 128.759 240.664C128.346 240.9 127.993 241.136 127.757 241.43C127.639 241.607 127.521 241.784 127.403 241.902C126.932 242.432 126.578 242.903 126.932 244.141C127.344 245.555 128.169 246.262 129.701 246.616C129.996 246.675 130.409 246.734 130.998 246.734C130.644 246.969 130.291 246.969 129.878 246.969C129.466 246.969 128.935 246.911 128.523 247.264C127.757 247.794 128.228 248.678 128.582 249.327C128.7 249.621 128.877 249.916 128.877 250.093C128.877 250.211 128.818 250.328 128.7 250.446C128.464 250.623 127.993 250.682 127.344 250.623C126.637 250.505 125.635 249.444 125.046 248.796C124.81 248.561 124.634 248.325 124.516 248.266C124.28 248.089 123.926 248.089 123.632 248.148C123.278 248.207 122.866 248.207 122.512 247.971C122.335 247.853 122.159 247.618 122.159 247.323C122.1 246.793 122.335 246.203 122.512 246.027C122.571 245.968 122.748 245.968 122.984 245.968C123.278 245.968 123.632 245.968 123.926 245.732C124.398 245.319 124.575 244.671 124.516 243.669C124.457 243.08 123.985 243.08 123.573 243.08C123.102 243.08 122.571 243.021 122.335 242.373C122.159 241.902 122.394 241.43 122.748 240.841C123.278 239.957 123.927 238.778 122.984 237.187C121.923 235.184 120.744 235.419 119.86 235.596C119.566 235.655 119.271 235.714 119.094 235.655C118.918 235.596 118.8 235.478 118.8 235.419C118.741 235.243 118.859 235.066 118.918 235.007L118.564 234.771C118.564 234.83 118.269 235.184 118.387 235.596C118.446 235.832 118.623 236.068 118.976 236.186C119.271 236.303 119.625 236.244 119.978 236.186C120.744 236.068 121.687 235.832 122.63 237.541C123.396 238.955 122.866 239.898 122.394 240.782C122.041 241.43 121.687 242.019 121.923 242.727C122.276 243.669 123.043 243.728 123.573 243.728C124.044 243.728 124.103 243.787 124.103 243.905C124.162 244.73 124.044 245.319 123.691 245.614C123.514 245.732 123.278 245.732 123.043 245.732C122.748 245.732 122.453 245.732 122.218 245.968C121.982 246.203 121.687 246.969 121.805 247.618C121.864 248.03 122.041 248.384 122.335 248.619C122.866 248.973 123.396 248.973 123.809 248.914C124.103 248.914 124.28 248.855 124.398 248.973C124.516 249.032 124.634 249.268 124.869 249.503C125.518 250.211 126.578 251.389 127.403 251.507C127.403 251.507 127.403 251.507 127.462 251.507C128.228 251.625 128.818 251.507 129.171 251.212C129.348 251.036 129.466 250.8 129.525 250.505C129.525 250.211 129.348 249.916 129.171 249.503C128.818 248.796 128.582 248.325 128.994 248.03C129.348 247.794 129.643 247.794 130.055 247.794C130.585 247.794 131.234 247.853 131.764 247.146C131.823 247.146 131.882 247.146 131.882 247.146C134.003 247.264 137.244 247.5 138.894 248.443C140.014 249.15 140.014 249.503 139.955 250.328C139.896 251.094 139.837 252.096 140.603 253.864C140.368 254.571 140.25 255.396 140.368 256.752C140.662 260.877 143.903 265.061 144.08 265.355C144.198 265.532 144.375 265.709 144.493 265.827C144.964 266.18 146.143 266.828 147.498 267.594C148.971 268.419 150.68 269.362 151.8 270.128C153.096 271.071 154.51 272.014 154.628 273.075C154.687 273.546 154.569 274.077 154.098 274.607C152.507 276.728 150.503 284.094 150.503 284.33L150.975 284.389C151.034 283.918 153.037 276.846 154.51 274.902C154.923 273.959 155.1 273.369 154.982 272.78Z" fill="url(#paint8_linear_3618_7535)"/>
<path d="M151.859 274.665C151.21 272.426 147.969 270.01 146.909 269.362C144.61 267.947 139.366 267.653 136.891 268.183C135.771 268.419 135.005 268.773 134.298 269.126C133.532 269.48 132.884 269.833 132 269.833C130.173 269.833 129.171 270.069 128.287 270.717C128.11 270.835 128.052 271.012 128.052 271.13C128.052 271.483 128.405 271.837 128.759 272.19C129.053 272.426 129.466 272.839 129.407 273.074C129.407 273.192 129.289 273.251 129.171 273.31C127.993 273.958 127.05 273.074 126.991 273.015L126.637 273.369C126.637 273.369 127.816 274.547 129.348 273.781C129.643 273.605 129.76 273.428 129.819 273.192C129.878 272.721 129.407 272.308 129.053 271.955C128.818 271.719 128.464 271.424 128.464 271.248L128.523 271.189C129.289 270.599 130.232 270.423 131.941 270.423C132.943 270.423 133.65 270.069 134.475 269.656C135.123 269.303 135.889 268.949 136.95 268.714C139.248 268.242 144.434 268.537 146.614 269.833C147.91 270.599 150.798 272.898 151.387 274.901C151.505 275.431 151.269 276.433 150.916 277.14C149.148 281.265 148.559 284.212 148.559 284.212L148.971 284.271C148.971 284.271 149.56 281.324 151.328 277.258C151.623 276.728 152.094 275.431 151.859 274.665Z" fill="url(#paint9_linear_3618_7535)"/>
<path d="M152.92 274.312C152.802 273.487 151.977 272.603 151.682 272.249C151.623 272.19 151.623 272.19 151.623 272.19C149.973 270.246 147.557 268.36 145.966 267.771C145.495 267.594 144.964 267.476 144.316 267.358C141.723 266.121 139.248 265.649 136.832 265.178C135.536 264.942 134.18 264.648 132.825 264.294C129.23 263.233 123.161 257.222 122.925 256.987C122.748 256.751 118.623 251.565 118.27 249.739C118.093 248.973 117.209 245.083 116.796 243.964C116.384 243.021 111.257 241.312 110.196 240.958C107.662 240.84 104.009 240.605 103.655 240.369C103.243 240.074 102.771 238.66 102.889 238.071C102.889 237.835 103.184 237.658 103.478 237.481C103.95 237.187 104.48 236.774 104.598 236.067C104.657 235.537 104.304 233.946 103.655 231.412C103.066 228.996 102.241 225.696 102.477 225.106C102.654 224.576 103.007 224.517 103.361 224.399C103.714 224.34 104.068 224.222 104.186 223.692C104.245 223.515 104.127 223.339 104.068 223.28C103.832 223.044 103.302 223.044 102.595 223.103C101.887 223.162 100.945 223.221 100.591 222.867L100.296 223.221C100.827 223.692 101.77 223.633 102.595 223.574C103.007 223.574 103.596 223.515 103.714 223.633C103.655 223.869 103.596 223.869 103.243 223.987C102.889 224.105 102.359 224.223 102.064 224.989C101.829 225.637 102.359 227.994 103.243 231.53C103.714 233.533 104.245 235.537 104.186 236.008C104.127 236.539 103.655 236.833 103.243 237.128C102.83 237.364 102.477 237.658 102.418 238.071C102.3 238.778 102.83 240.428 103.42 240.84C103.891 241.194 108.664 241.43 110.196 241.489C113.143 242.431 116.266 243.728 116.502 244.199C116.855 245.024 117.504 247.676 117.975 249.915C118.387 251.86 122.571 257.105 122.748 257.34C122.984 257.576 129.112 263.705 132.825 264.824C134.18 265.237 135.536 265.473 136.832 265.708C138.777 266.062 140.721 266.474 142.784 267.24C141.664 267.123 140.427 267.064 139.248 266.946C138.246 266.887 137.304 266.828 136.596 266.71C130.998 266.121 127.875 265.237 125.871 263.823C123.573 262.231 116.737 256.221 116.148 255.514C115.853 255.101 115.736 254.689 115.559 254.099C115.441 253.687 115.323 253.215 115.087 252.685C114.204 250.74 110.962 248.678 108.605 247.146C107.368 246.38 106.307 245.673 106.071 245.319C105.718 244.789 105.836 244.435 106.012 243.964C106.13 243.61 106.307 243.256 106.307 242.785H105.836C105.836 243.198 105.718 243.492 105.6 243.787C105.364 244.317 105.187 244.789 105.659 245.555C105.954 245.967 106.955 246.615 108.311 247.499C110.609 248.973 113.85 251.035 114.616 252.862C114.852 253.333 114.97 253.805 115.087 254.217C115.264 254.806 115.382 255.278 115.736 255.749C116.325 256.456 123.22 262.585 125.518 264.176C127.639 265.649 130.762 266.533 136.478 267.123C137.186 267.181 138.128 267.24 139.13 267.358C141.605 267.535 144.434 267.771 145.789 268.242C147.321 268.773 149.679 270.599 151.27 272.544C151.27 272.544 151.329 272.603 151.329 272.662C151.564 272.956 152.389 273.84 152.448 274.489C152.507 275.137 152.095 276.433 151.446 278.142C150.857 279.792 150.091 281.855 149.443 284.33L149.855 284.448C150.504 281.973 151.27 279.969 151.859 278.319C152.566 276.315 153.037 275.078 152.92 274.312Z" fill="url(#paint10_linear_3618_7535)"/>
<path d="M105.659 211.317C105.6 211.671 105.246 212.201 104.834 212.79C104.127 213.91 103.243 215.148 103.773 216.091C104.068 216.621 104.775 217.092 105.6 217.682C107.132 218.683 109.077 219.98 109.843 222.337C111.08 226.049 114.262 232.708 114.262 232.767V232.826C114.321 232.885 118.152 238.13 116.855 243.198L117.268 243.316C118.623 238.13 114.97 233.003 114.616 232.591C114.616 232.532 114.498 232.355 114.38 232.119C114.911 232.001 116.089 231.648 116.914 230.587C117.503 229.821 117.739 228.819 117.621 227.582C117.386 225.519 116.384 223.574 115.5 221.866C114.734 220.392 114.086 219.155 114.203 218.212C114.262 217.446 114.734 217.269 115.323 217.092C116.03 216.916 116.914 216.621 117.091 215.089C117.268 213.439 116.148 212.732 115.205 212.201C114.498 211.73 114.027 211.435 114.086 210.905C114.203 209.432 116.325 207.369 116.325 207.369L116.03 207.016C115.971 207.074 113.791 209.196 113.673 210.846C113.614 211.671 114.321 212.142 115.028 212.555C115.912 213.085 116.855 213.674 116.678 215.03C116.561 216.267 115.912 216.444 115.205 216.621C114.557 216.798 113.85 217.033 113.732 218.094C113.673 219.155 114.321 220.451 115.087 221.983C115.971 223.633 116.914 225.519 117.15 227.523C117.268 228.583 117.091 229.526 116.561 230.174C115.795 231.176 114.616 231.471 114.203 231.53C113.261 229.585 111.198 224.93 110.255 222.101C109.43 219.626 107.368 218.212 105.836 217.21C105.07 216.68 104.362 216.208 104.127 215.796C103.714 215.089 104.48 213.969 105.128 212.967C105.6 212.319 105.953 211.73 106.012 211.317C106.071 210.669 105.482 209.726 104.716 208.607C104.068 207.605 103.302 206.485 103.184 205.66L102.712 205.719C102.83 206.662 103.596 207.782 104.303 208.842C105.07 209.903 105.718 210.905 105.659 211.317Z" fill="url(#paint11_linear_3618_7535)"/>
<path d="M150.268 276.198C149.737 274.96 148.146 273.958 147.027 273.192C146.555 272.897 146.202 272.662 146.025 272.485C145.848 272.308 145.848 272.131 145.789 271.955C145.671 271.424 145.494 270.953 144.375 270.481C142.666 269.774 138.541 269.421 137.185 270.305C136.655 270.658 136.596 271.071 136.596 271.424C136.714 272.367 137.834 273.192 138.894 273.546C139.602 273.781 139.66 274.548 139.719 275.314C139.778 275.962 139.837 276.61 140.309 277.022C140.662 277.258 140.78 277.494 140.721 277.671C140.662 277.906 140.25 278.201 139.307 278.319C138.01 278.437 136.007 277.906 135.948 277.906L135.83 278.378C135.889 278.378 137.952 278.908 139.366 278.79C140.368 278.672 141.016 278.319 141.134 277.789C141.252 277.376 141.016 276.964 140.544 276.61C140.191 276.374 140.191 275.844 140.132 275.255C140.073 274.489 140.014 273.428 139.012 273.133C137.952 272.78 137.068 272.014 137.009 271.365C137.009 271.13 137.126 270.894 137.362 270.717C138.541 270.01 142.371 270.246 144.139 270.953C145.141 271.365 145.2 271.719 145.318 272.073C145.376 272.308 145.435 272.603 145.73 272.839C145.907 273.015 146.319 273.31 146.791 273.605C147.851 274.253 149.384 275.314 149.914 276.374C150.268 277.14 149.855 277.965 149.325 279.144C148.853 280.264 148.205 281.619 147.91 283.505L148.382 283.564C148.618 281.796 149.266 280.44 149.737 279.321C150.268 278.142 150.68 277.14 150.268 276.198Z" fill="url(#paint12_linear_3618_7535)"/>
</g>
<path d="M165.295 183.68C186.807 183.68 204.246 174.287 204.246 162.701C204.246 151.115 186.807 141.723 165.295 141.723C143.782 141.723 126.343 151.115 126.343 162.701C126.343 174.287 143.782 183.68 165.295 183.68Z" fill="#2A697F"/>
<path d="M165 162.996C174.438 162.996 182.089 159.197 182.089 154.51C182.089 149.824 174.438 146.024 165 146.024C155.562 146.024 147.911 149.824 147.911 154.51C147.911 159.197 155.562 162.996 165 162.996Z" fill="#293C4F"/>
<path d="M165 148.087C173.721 148.087 180.97 151.328 181.971 155.512C182.03 155.158 182.089 154.864 182.089 154.51C182.089 149.855 174.428 146.024 165 146.024C155.571 146.024 147.911 149.796 147.911 154.51C147.911 154.864 147.97 155.217 148.029 155.512C149.03 151.328 156.22 148.087 165 148.087Z" fill="#DBDBDB"/>
<path d="M181.913 157.28L181.5 155.63C180.498 151.564 173.368 148.5 164.941 148.5C156.514 148.5 149.325 151.564 148.382 155.63L147.97 157.28L147.557 155.63C147.439 155.218 147.439 154.864 147.439 154.511C147.439 152.095 149.266 149.855 152.684 148.146C155.984 146.496 160.345 145.612 164.941 145.612C169.597 145.612 173.957 146.496 177.198 148.146C180.557 149.796 182.443 152.095 182.443 154.511C182.443 154.864 182.384 155.218 182.325 155.63L181.913 157.28ZM165 146.437C156.338 146.437 149.207 149.619 148.382 153.686C150.681 150.15 157.339 147.616 165 147.616C172.661 147.616 179.32 150.15 181.618 153.686C180.793 149.678 173.663 146.437 165 146.437Z" fill="#323A50"/>
<path d="M114.145 153.862C114.381 153.45 115.088 152.507 115.382 152.212C115.382 151.977 114.97 152.566 115.147 152.33C115.264 151.918 115.559 151.505 116.089 151.387C116.207 150.916 116.502 150.444 117.091 150.327C117.091 150.15 117.15 149.914 117.268 149.737C116.03 150.798 114.498 152.271 113.673 153.568C110.138 159.873 114.97 179.319 128.052 211.318C130.939 218.389 133.945 225.402 136.714 231.471H137.481C125.223 204.187 109.018 163.586 114.145 153.862Z" fill="#323A50"/>
<path d="M89.6893 153.509C93.4607 148.205 99.5303 145.848 107.78 146.379C112.495 146.732 116.561 147.97 118.27 148.559C118.387 148.382 118.564 148.146 118.8 148.029C117.327 147.498 112.907 146.025 107.839 145.671C99.5303 145.082 93.0482 147.616 89.2178 153.038C88.5696 153.686 69.7125 173.073 63.7607 186.155C62.1696 189.573 59.0464 189.396 53.2714 189.043C48.4982 188.748 41.9571 188.336 33.1768 189.809L33.2946 190.457C42.016 188.984 48.4982 189.396 53.2714 189.691C59.1053 190.045 62.641 190.28 64.4089 186.391C69.3 175.725 82.8535 160.757 87.8624 155.395C86.0946 160.05 87.1553 167.593 91.0446 178.023C94.7571 187.982 101.004 200.534 109.607 215.384C112.789 220.864 116.089 226.286 119.33 231.354H120.096C116.855 226.286 113.437 220.629 110.196 215.03C90.7499 181.854 83.6786 160.58 89.6893 153.509Z" fill="#323A50"/>
<path d="M165.413 141.781C143.904 141.781 126.461 150.974 126.461 162.288C126.461 173.603 143.904 182.796 165.413 182.796C186.922 182.796 204.365 173.603 204.365 162.288C204.365 150.974 186.922 141.781 165.413 141.781ZM182.09 154.687C182.09 154.746 182.148 154.805 182.148 154.805C182.148 154.863 182.148 154.922 182.148 154.981C181.441 159.224 174.075 162.583 165.118 162.583C156.397 162.583 149.148 159.401 148.147 155.335C148.147 155.217 148.088 155.099 148.088 154.981C148.088 154.922 148.088 154.863 148.088 154.805C148.088 154.746 148.088 154.628 148.088 154.569C148.088 154.451 148.088 154.333 148.088 154.097C148.088 154.097 148.088 153.921 148.088 153.744C148.147 153.154 148.323 152.683 148.618 152.153C148.854 151.622 149.266 151.151 149.738 150.68H149.797C152.566 147.91 158.459 146.024 165.236 146.024C174.665 146.024 182.384 149.737 182.384 154.274H182.207C182.031 154.451 182.09 154.569 182.09 154.687Z" fill="#DBDBDB"/>
<path d="M165.413 183.208C154.923 183.208 145.082 181.087 137.657 177.139C130.173 173.191 126.048 167.946 126.048 162.289C126.048 156.691 130.173 151.387 137.657 147.439C145.082 143.55 154.923 141.369 165.413 141.369C175.902 141.369 185.743 143.491 193.168 147.439C200.652 151.387 204.777 156.632 204.777 162.289C204.777 167.887 200.652 173.191 193.168 177.139C185.743 181.028 175.902 183.208 165.413 183.208ZM165.413 142.194C144.139 142.194 126.873 151.21 126.873 162.289C126.873 173.367 144.139 182.383 165.413 182.383C186.686 182.383 203.952 173.367 203.952 162.289C203.952 151.21 186.686 142.194 165.413 142.194ZM165.059 162.996C156.22 162.996 148.795 159.755 147.675 155.394C147.675 155.276 147.616 155.158 147.616 155.041C147.616 154.982 147.616 154.923 147.557 154.864C147.557 154.805 147.557 154.746 147.557 154.687C147.557 154.628 147.557 154.628 147.557 154.628C147.557 154.51 147.557 154.392 147.557 154.157V153.744C147.616 153.155 147.793 152.624 148.147 152.035C148.382 151.505 148.795 151.033 149.325 150.503C149.384 150.444 149.384 150.444 149.443 150.444C152.448 147.498 158.4 145.671 165.118 145.671C169.773 145.671 174.134 146.555 177.434 148.146C180.852 149.796 182.679 151.976 182.679 154.392V154.805H182.561C182.561 154.864 182.561 154.864 182.561 154.923C182.561 154.982 182.561 155.041 182.561 155.1C181.795 159.578 174.252 162.996 165.059 162.996ZM148.382 154.157C148.382 154.333 148.382 154.451 148.382 154.569C148.382 154.569 148.382 154.628 148.382 154.687C148.382 154.746 148.382 154.746 148.382 154.805C148.382 154.864 148.382 154.923 148.382 154.982C148.382 155.099 148.441 155.158 148.441 155.276C149.443 159.224 156.573 162.23 165 162.23C173.663 162.23 180.97 159.048 181.618 154.982V154.923C181.618 154.864 181.559 154.805 181.618 154.746V154.687C181.618 154.628 181.618 154.569 181.618 154.451V154.039H181.795C181.618 152.153 179.909 150.326 177.022 148.971C173.839 147.439 169.597 146.614 165.059 146.614C158.636 146.614 152.684 148.382 149.914 151.151L149.855 151.21C149.384 151.682 149.089 152.094 148.854 152.507C148.559 153.037 148.441 153.45 148.382 153.98V154.157Z" fill="#323A50"/>
<path d="M243.257 153.509C239.486 148.205 233.416 145.848 225.166 146.379C220.452 146.732 216.386 147.97 214.677 148.559C214.559 148.382 214.382 148.146 214.146 148.029C215.62 147.498 220.039 146.025 225.107 145.671C233.416 145.082 239.898 147.616 243.729 153.038C244.377 153.686 263.234 173.073 269.186 186.155C270.777 189.573 273.9 189.396 279.675 189.043C284.448 188.748 290.989 188.336 299.77 189.809L299.652 190.457C290.93 188.984 284.448 189.396 279.675 189.691C273.841 190.045 270.305 190.28 268.538 186.391C263.647 175.725 250.093 160.757 245.084 155.395C246.852 160.05 245.791 167.593 241.902 178.023C238.189 187.982 231.943 200.534 223.339 215.384C220.157 220.864 216.857 226.286 213.616 231.354H212.85C216.091 226.286 219.509 220.629 222.75 215.03C242.196 181.854 249.268 160.58 243.257 153.509Z" fill="#323A50"/>
<path d="M218.507 153.744C218.271 153.332 216.975 151.328 216.739 150.975C216.739 150.739 218.036 151.8 217.918 151.623C217.8 151.21 217.329 150.857 216.857 150.68C216.739 150.208 216.68 149.973 216.15 149.855C216.15 149.678 215.62 149.796 215.561 149.619C216.798 150.68 218.33 152.153 219.155 153.449C222.691 159.755 217.859 179.201 204.777 211.2C201.889 218.271 198.884 225.283 196.114 231.353H195.348C207.429 204.01 223.634 163.408 218.507 153.744Z" fill="#323A50"/>
<g opacity="0.3">
<path d="M166.414 295.586C166.355 295.586 166.297 295.586 166.297 295.586C152.625 295.586 139.013 291.755 126.932 284.625H126.873L126.284 284.036C111.257 275.314 99.884 261.702 93.5197 244.73C90.9858 238.189 89.4537 231.118 88.8054 223.221C88.6287 219.509 88.6287 216.091 88.8054 212.378C88.9822 208.725 89.5125 205.012 90.4554 200.711C91.3983 196.291 92.8125 191.93 94.875 187.216L95.6411 187.569C93.6376 192.166 92.2233 196.527 91.2804 200.887C90.3376 205.189 89.8661 208.843 89.6304 212.437C89.4536 216.091 89.4536 219.509 89.6304 223.221C90.2786 231 91.8108 238.012 94.2858 244.494C100.591 261.348 111.846 274.784 126.696 283.446H126.755L127.345 284.036C151.623 298.414 180.734 298.473 205.13 284.212C206.309 283.446 207.605 282.562 209.02 281.737C221.925 273.428 231.648 261.584 237.777 246.498C238.071 245.791 238.307 245.025 238.602 244.259C238.838 243.493 239.132 242.727 239.427 242.02C244.141 227.7 244.671 213.144 241.018 198.648V198.589C240.9 198 238.484 190.575 237.011 187.216L237.777 186.862C239.132 190.044 241.607 197.47 241.784 198.412C245.438 213.027 244.907 227.818 240.134 242.255V242.314C239.839 243.021 239.604 243.787 239.368 244.494C239.132 245.261 238.838 246.027 238.543 246.793C232.297 262.055 222.514 274.077 209.432 282.444C208.018 283.269 206.78 284.094 205.602 284.861C193.58 291.873 180.027 295.586 166.414 295.586Z" fill="#323A50"/>
</g>
<path d="M167.121 68.3569C161.641 68.3569 157.104 63.8783 157.104 58.339C157.104 52.9765 166.414 37.773 166.768 37.1247L167.062 36.6533L167.357 37.1247C167.77 37.773 177.021 52.9765 177.021 58.339C177.08 63.8783 172.602 68.3569 167.121 68.3569ZM167.121 38.0676C165.471 40.7783 157.87 53.8015 157.87 58.4569C157.87 63.5837 162.054 67.7087 167.121 67.7087C172.189 67.7087 176.373 63.5247 176.373 58.4569C176.373 53.7426 168.771 40.7783 167.121 38.0676Z" fill="#323A50"/>
<path d="M161.052 55.2749L160.345 55.0981C161.347 51.2088 165.059 44.1963 165.236 43.8428L165.884 44.1963C165.825 44.3142 161.995 51.5035 161.052 55.2749Z" fill="#323A50"/>
<path d="M162.525 63.7017C159.284 61.1088 159.932 56.7481 159.932 56.5713L160.639 56.6892C160.639 56.7481 160.05 60.8731 162.938 63.1713L162.525 63.7017Z" fill="#323A50"/>
<path d="M170.362 91.9871V76.9014H163.821V91.9871H158.636L166.768 104.126H166.827L175.43 91.9871H170.362Z" fill="#FF4200"/>
<path d="M118.741 148.323C117.857 148.028 116.207 147.439 113.968 146.908L118.387 148.558C118.446 148.499 118.623 148.381 118.741 148.323Z" fill="#323A50"/>
<path d="M117.386 149.678L107.721 146.025C107.25 145.966 106.837 145.966 106.425 145.966L117.15 150.032C117.209 149.855 117.327 149.796 117.386 149.678Z" fill="#323A50"/>
<path d="M116.266 151.033L103.066 146.024C102.771 146.024 102.477 146.083 102.182 146.142L116.089 151.446C116.089 151.269 116.148 151.151 116.266 151.033Z" fill="#323A50"/>
<path d="M115.088 152.565C115.088 152.506 115.088 152.506 115.088 152.448L99.5894 146.555C99.3537 146.614 99.118 146.673 98.8823 146.731L114.911 152.801C114.97 152.742 115.029 152.624 115.088 152.565Z" fill="#323A50"/>
<path d="M114.086 154.039C114.145 153.98 114.204 153.862 114.204 153.803L97.0556 147.321C96.8788 147.38 96.6431 147.439 96.4663 147.557L113.968 154.157C114.086 154.157 114.086 154.098 114.086 154.039Z" fill="#323A50"/>
<path d="M113.556 155.395L94.8752 148.323C94.6984 148.382 94.5806 148.5 94.4038 148.559L113.438 155.748C113.497 155.689 113.497 155.513 113.556 155.395Z" fill="#323A50"/>
<path d="M113.202 157.044L93.1073 149.442C92.9894 149.56 92.8716 149.619 92.6948 149.737L113.143 157.457C113.202 157.339 113.202 157.221 113.202 157.044Z" fill="#323A50"/>
<path d="M113.084 158.871L91.5162 150.739C91.3983 150.857 91.2805 150.916 91.1626 151.034L113.025 159.284C113.084 159.166 113.084 158.989 113.084 158.871Z" fill="#323A50"/>
<path d="M113.084 160.698L90.2194 152.035C90.1016 152.153 90.0427 152.271 89.9248 152.389L113.084 161.169C113.084 160.992 113.084 160.816 113.084 160.698Z" fill="#323A50"/>
<path d="M113.261 162.583L89.1591 153.449C89.1001 153.508 89.0412 153.626 88.9233 153.803L113.32 163.055C113.261 162.878 113.261 162.76 113.261 162.583Z" fill="#323A50"/>
<path d="M113.496 164.469L88.275 154.923C88.216 155.041 88.1571 155.159 88.0981 155.276L113.555 164.941C113.496 164.823 113.496 164.646 113.496 164.469Z" fill="#323A50"/>
<path d="M113.791 166.473L87.568 156.514C87.5091 156.632 87.5091 156.749 87.4502 156.926L113.85 166.944C113.85 166.767 113.791 166.59 113.791 166.473Z" fill="#323A50"/>
<path d="M114.145 168.24L87.2142 158.046C87.2142 158.164 87.1553 158.282 87.1553 158.458L114.262 168.771C114.203 168.594 114.145 168.417 114.145 168.24Z" fill="#323A50"/>
<path d="M114.557 170.303L86.9785 159.873C86.9785 159.991 86.9785 160.168 86.9785 160.286L114.675 170.775C114.616 170.598 114.616 170.421 114.557 170.303Z" fill="#323A50"/>
<path d="M115.029 172.248L86.9785 161.582C86.9785 161.7 86.9785 161.877 86.9785 162.053L115.146 172.719C115.087 172.602 115.088 172.425 115.029 172.248Z" fill="#323A50"/>
<path d="M115.559 174.31L87.0962 163.526C87.0962 163.644 87.1551 163.821 87.1551 163.998L115.677 174.782C115.618 174.605 115.618 174.487 115.559 174.31Z" fill="#323A50"/>
<path d="M116.089 176.255L87.332 165.354C87.332 165.53 87.3909 165.648 87.3909 165.825L116.207 176.727C116.148 176.55 116.148 176.373 116.089 176.255Z" fill="#323A50"/>
<path d="M116.678 178.317L87.6855 167.356C87.7445 167.533 87.7444 167.651 87.8034 167.828L116.855 178.848C116.737 178.612 116.737 178.494 116.678 178.317Z" fill="#323A50"/>
<path d="M117.268 180.38L88.0981 169.36C88.1571 169.537 88.1571 169.714 88.216 169.832L117.386 180.91C117.386 180.675 117.327 180.498 117.268 180.38Z" fill="#323A50"/>
<path d="M117.916 182.443L88.6284 171.364C88.6873 171.541 88.6873 171.718 88.7462 171.836L118.034 182.973C118.034 182.796 117.975 182.62 117.916 182.443Z" fill="#323A50"/>
<path d="M118.564 184.388L89.2178 173.25C89.2767 173.427 89.3356 173.604 89.3356 173.721L118.682 184.859C118.682 184.682 118.623 184.505 118.564 184.388Z" fill="#323A50"/>
<path d="M119.271 186.45L89.9248 175.312C89.9837 175.489 90.0427 175.666 90.1016 175.843L119.448 186.98C119.389 186.804 119.33 186.627 119.271 186.45Z" fill="#323A50"/>
<path d="M119.979 188.571L90.6323 177.434C90.6913 177.61 90.7501 177.787 90.8091 177.964L120.156 189.101C120.038 188.866 120.038 188.689 119.979 188.571Z" fill="#323A50"/>
<path d="M120.685 190.692L91.3979 179.555C91.4569 179.731 91.5158 179.908 91.5748 180.085L120.862 191.164C120.803 190.987 120.744 190.869 120.685 190.692Z" fill="#323A50"/>
<path d="M121.452 192.755L92.2231 181.677C92.2821 181.854 92.341 182.03 92.4 182.207L121.57 193.227C121.57 193.109 121.511 192.932 121.452 192.755Z" fill="#323A50"/>
<path d="M122.218 194.936L93.166 183.916C93.2249 184.093 93.2839 184.27 93.4017 184.446L122.454 195.466C122.336 195.23 122.277 195.112 122.218 194.936Z" fill="#323A50"/>
<path d="M122.984 196.998L94.0498 186.037C94.1087 186.214 94.2266 186.391 94.2855 186.567L123.161 197.528C123.161 197.351 123.043 197.175 122.984 196.998Z" fill="#323A50"/>
<path d="M123.75 199.06L94.9927 188.158C95.0516 188.335 95.1694 188.512 95.2283 188.689L123.927 199.59C123.868 199.414 123.809 199.237 123.75 199.06Z" fill="#323A50"/>
<path d="M124.516 201.005L95.9355 190.162C95.9945 190.339 96.1123 190.516 96.1713 190.692L124.693 201.476C124.634 201.359 124.575 201.182 124.516 201.005Z" fill="#323A50"/>
<path d="M125.341 203.185L96.9966 192.46C97.0555 192.637 97.1734 192.814 97.2323 192.99L125.518 203.715C125.518 203.539 125.4 203.362 125.341 203.185Z" fill="#323A50"/>
<path d="M126.225 205.307L98.1162 194.641C98.1751 194.817 98.293 194.994 98.3519 195.171L126.402 205.778C126.343 205.66 126.284 205.483 126.225 205.307Z" fill="#323A50"/>
<path d="M127.05 207.488L99.2358 196.939C99.2948 197.116 99.4126 197.293 99.4716 197.47L127.227 208.018C127.227 207.841 127.109 207.664 127.05 207.488Z" fill="#323A50"/>
<path d="M127.875 209.491L100.355 199.061C100.473 199.237 100.532 199.414 100.65 199.591L128.111 210.021C128.052 209.844 127.934 209.668 127.875 209.491Z" fill="#323A50"/>
<path d="M128.7 211.494L101.416 201.182C101.534 201.358 101.593 201.535 101.711 201.712L128.877 212.025C128.877 211.848 128.759 211.671 128.7 211.494Z" fill="#323A50"/>
<path d="M129.584 213.675L102.654 203.48C102.772 203.657 102.831 203.834 102.948 204.011L129.82 214.147C129.761 214.029 129.643 213.852 129.584 213.675Z" fill="#323A50"/>
<path d="M130.527 215.855L103.95 205.778C104.068 205.955 104.127 206.132 104.245 206.309L130.763 216.385C130.645 216.209 130.586 216.032 130.527 215.855Z" fill="#323A50"/>
<path d="M131.411 218.035L105.188 208.076C105.305 208.253 105.364 208.43 105.482 208.607L131.588 218.507C131.588 218.389 131.529 218.212 131.411 218.035Z" fill="#323A50"/>
<path d="M132.353 220.274L106.484 210.492C106.602 210.669 106.661 210.846 106.779 211.022L132.53 220.805C132.471 220.628 132.412 220.451 132.353 220.274Z" fill="#323A50"/>
<path d="M133.237 222.279L107.78 212.614C107.898 212.791 107.957 212.968 108.134 213.145L133.532 222.75C133.355 222.632 133.296 222.455 133.237 222.279Z" fill="#323A50"/>
<path d="M134.18 224.458L109.136 214.971C109.254 215.147 109.371 215.324 109.489 215.501L134.475 224.989C134.357 224.812 134.239 224.635 134.18 224.458Z" fill="#323A50"/>
<path d="M135.123 226.639L110.432 217.27C110.55 217.446 110.668 217.623 110.786 217.8L135.359 227.111C135.3 226.993 135.182 226.816 135.123 226.639Z" fill="#323A50"/>
<path d="M136.066 228.878L111.846 219.686C111.964 219.862 112.082 220.039 112.2 220.275L136.36 229.409C136.243 229.232 136.184 229.055 136.066 228.878Z" fill="#323A50"/>
<path d="M137.009 230.882L113.143 221.866C113.26 222.043 113.378 222.22 113.496 222.455L137.244 231.472C137.127 231.236 137.068 231.059 137.009 230.882Z" fill="#323A50"/>
<path d="M136.066 232.237L114.439 224.046C114.557 224.223 114.675 224.458 114.793 224.635L134.947 232.296C135.3 232.237 135.654 232.237 136.066 232.237Z" fill="#323A50"/>
<path d="M131.234 232.237L115.913 226.403C116.03 226.58 116.148 226.816 116.266 226.993L130.055 232.237C130.468 232.237 130.88 232.237 131.234 232.237Z" fill="#323A50"/>
<path d="M126.343 232.237L117.386 228.819C117.504 228.996 117.621 229.232 117.739 229.409L125.164 232.237C125.518 232.178 125.93 232.178 126.343 232.237Z" fill="#323A50"/>
<path d="M121.452 232.178L118.918 231.235C119.036 231.412 119.154 231.648 119.272 231.825L120.332 232.237C120.745 232.237 121.098 232.178 121.452 232.178Z" fill="#323A50"/>
<path d="M214.205 148.029C214.323 148.088 214.441 148.206 214.618 148.265L218.566 146.732C216.68 147.204 215.148 147.675 214.205 148.029Z" fill="#323A50"/>
<path d="M215.973 149.62L226.109 145.73C225.696 145.73 225.225 145.789 224.812 145.789L215.678 149.325C215.796 149.384 215.855 149.502 215.973 149.62Z" fill="#323A50"/>
<path d="M216.916 151.034L230.41 145.789C230.116 145.73 229.821 145.73 229.526 145.73L216.621 150.68C216.621 150.739 216.68 150.798 216.68 150.798C216.739 150.916 216.798 150.975 216.916 151.034Z" fill="#323A50"/>
<path d="M218.095 152.448L233.652 146.437C233.416 146.379 233.18 146.32 232.945 146.261L217.859 152.095C217.918 152.212 218.036 152.33 218.095 152.448Z" fill="#323A50"/>
<path d="M218.743 153.862L235.95 147.204C235.773 147.145 235.596 147.086 235.361 146.968L218.566 153.45C218.684 153.627 218.684 153.745 218.743 153.862Z" fill="#323A50"/>
<path d="M219.332 155.512L238.071 148.264C237.894 148.205 237.776 148.087 237.6 148.028L219.214 155.1C219.273 155.218 219.332 155.394 219.332 155.512Z" fill="#323A50"/>
<path d="M219.568 156.867C219.568 156.985 219.568 157.103 219.568 157.221L239.839 149.384C239.721 149.266 239.603 149.207 239.427 149.089L219.509 156.75C219.568 156.809 219.568 156.867 219.568 156.867Z" fill="#323A50"/>
<path d="M219.626 158.812C219.626 158.871 219.626 158.989 219.626 159.048L241.312 150.68C241.194 150.563 241.076 150.504 240.958 150.386L219.567 158.636C219.626 158.695 219.626 158.754 219.626 158.812Z" fill="#323A50"/>
<path d="M219.509 160.522L242.314 151.741C242.432 151.859 242.491 151.977 242.609 152.095L219.509 160.993C219.509 160.757 219.509 160.639 219.509 160.522Z" fill="#323A50"/>
<path d="M219.391 162.407L243.493 153.155C243.552 153.214 243.611 153.332 243.728 153.509L219.332 162.878C219.332 162.702 219.391 162.525 219.391 162.407Z" fill="#323A50"/>
<path d="M219.155 164.293L244.317 154.569C244.376 154.687 244.435 154.805 244.494 154.923L219.037 164.705C219.155 164.587 219.155 164.469 219.155 164.293Z" fill="#323A50"/>
<path d="M218.861 166.238L245.025 156.161C245.084 156.279 245.084 156.397 245.143 156.574L218.743 166.768C218.802 166.591 218.861 166.415 218.861 166.238Z" fill="#323A50"/>
<path d="M218.566 168.065L245.437 157.693C245.437 157.811 245.496 157.929 245.496 158.106L218.448 168.536C218.507 168.359 218.507 168.242 218.566 168.065Z" fill="#323A50"/>
<path d="M218.094 170.127L245.614 159.52C245.614 159.637 245.614 159.814 245.614 159.932L217.977 170.598C218.035 170.421 218.094 170.245 218.094 170.127Z" fill="#323A50"/>
<path d="M217.682 172.071L245.673 161.287C245.673 161.405 245.673 161.582 245.673 161.758L217.564 172.601C217.564 172.425 217.623 172.248 217.682 172.071Z" fill="#323A50"/>
<path d="M217.152 174.134L245.555 163.173C245.555 163.291 245.555 163.468 245.496 163.644L217.034 174.605C217.093 174.428 217.093 174.31 217.152 174.134Z" fill="#323A50"/>
<path d="M216.621 176.079L245.32 165C245.32 165.177 245.261 165.295 245.261 165.471L216.503 176.55C216.562 176.373 216.562 176.196 216.621 176.079Z" fill="#323A50"/>
<path d="M216.032 178.141L244.966 167.004C244.966 167.181 244.907 167.299 244.848 167.475L215.855 178.672C215.973 178.436 216.032 178.318 216.032 178.141Z" fill="#323A50"/>
<path d="M215.443 180.145L244.553 168.89C244.494 169.066 244.494 169.243 244.435 169.361L215.325 180.616C215.384 180.499 215.384 180.322 215.443 180.145Z" fill="#323A50"/>
<path d="M214.795 182.266L244.023 171.011C243.964 171.188 243.964 171.364 243.905 171.482L214.677 182.737C214.736 182.62 214.795 182.443 214.795 182.266Z" fill="#323A50"/>
<path d="M214.205 184.211L243.493 172.896C243.434 173.073 243.375 173.25 243.375 173.368L214.087 184.682C214.087 184.505 214.146 184.388 214.205 184.211Z" fill="#323A50"/>
<path d="M213.557 186.332L242.844 175.018C242.785 175.194 242.726 175.371 242.667 175.548L213.38 186.862C213.38 186.626 213.498 186.509 213.557 186.332Z" fill="#323A50"/>
<path d="M212.85 188.394L242.137 177.08C242.078 177.257 242.019 177.434 241.96 177.61L212.673 188.925C212.732 188.748 212.791 188.571 212.85 188.394Z" fill="#323A50"/>
<path d="M212.084 190.516L241.312 179.261C241.253 179.438 241.194 179.614 241.135 179.791L211.907 191.046C211.966 190.87 212.025 190.693 212.084 190.516Z" fill="#323A50"/>
<path d="M211.377 192.637L240.487 181.382C240.428 181.559 240.369 181.735 240.31 181.912L211.2 193.168C211.259 192.991 211.318 192.814 211.377 192.637Z" fill="#323A50"/>
<path d="M210.61 194.759L239.603 183.562C239.544 183.739 239.485 183.916 239.367 184.093L210.375 195.289C210.492 195.113 210.551 194.936 210.61 194.759Z" fill="#323A50"/>
<path d="M209.844 196.881L238.719 185.743C238.66 185.92 238.601 186.097 238.484 186.273L209.667 197.411C209.726 197.234 209.785 197.057 209.844 196.881Z" fill="#323A50"/>
<path d="M209.078 198.884L237.776 187.806C237.717 187.982 237.6 188.159 237.541 188.336L208.901 199.356C208.96 199.238 209.019 199.061 209.078 198.884Z" fill="#323A50"/>
<path d="M208.312 200.887L236.833 189.927C236.775 190.104 236.657 190.28 236.598 190.457L208.135 201.418C208.194 201.241 208.253 201.064 208.312 200.887Z" fill="#323A50"/>
<path d="M207.546 203.068L235.832 192.166C235.773 192.343 235.655 192.52 235.596 192.696L207.369 203.598C207.369 203.421 207.428 203.245 207.546 203.068Z" fill="#323A50"/>
<path d="M206.662 205.189L234.712 194.405C234.653 194.582 234.536 194.759 234.477 194.936L206.544 205.72C206.544 205.543 206.603 205.366 206.662 205.189Z" fill="#323A50"/>
<path d="M205.837 207.37L233.593 196.645C233.534 196.821 233.416 196.998 233.357 197.175L205.661 207.841C205.72 207.723 205.779 207.546 205.837 207.37Z" fill="#323A50"/>
<path d="M205.012 209.374L232.473 198.767C232.355 198.943 232.296 199.12 232.178 199.297L204.776 209.845C204.894 209.727 204.953 209.551 205.012 209.374Z" fill="#323A50"/>
<path d="M204.246 211.377L231.412 200.888C231.294 201.064 231.235 201.241 231.117 201.418L204.01 211.848C204.069 211.731 204.128 211.554 204.246 211.377Z" fill="#323A50"/>
<path d="M203.362 213.617L230.234 203.245C230.116 203.422 230.057 203.599 229.939 203.775L203.126 214.088C203.185 213.97 203.244 213.734 203.362 213.617Z" fill="#323A50"/>
<path d="M202.478 215.738L228.996 205.484C228.878 205.661 228.819 205.838 228.702 206.015L202.243 216.209C202.302 216.091 202.36 215.915 202.478 215.738Z" fill="#323A50"/>
<path d="M201.536 217.918L227.7 207.841C227.582 208.018 227.523 208.194 227.405 208.371L201.359 218.448C201.418 218.271 201.477 218.153 201.536 217.918Z" fill="#323A50"/>
<path d="M200.651 220.157L226.462 210.198C226.344 210.375 226.285 210.552 226.167 210.729L200.475 220.629C200.475 220.511 200.533 220.334 200.651 220.157Z" fill="#323A50"/>
<path d="M199.767 222.161L225.166 212.379C225.048 212.556 224.989 212.732 224.871 212.909L199.532 222.691C199.65 222.574 199.709 222.338 199.767 222.161Z" fill="#323A50"/>
<path d="M198.825 224.4L223.811 214.735C223.693 214.912 223.634 215.089 223.457 215.325L198.53 224.93C198.648 224.753 198.766 224.576 198.825 224.4Z" fill="#323A50"/>
<path d="M197.882 226.58L222.514 217.093C222.396 217.27 222.278 217.446 222.16 217.682L197.646 227.17C197.764 226.934 197.823 226.757 197.882 226.58Z" fill="#323A50"/>
<path d="M196.939 228.761L221.158 219.45C221.041 219.627 220.923 219.804 220.805 220.039L196.703 229.35C196.762 229.173 196.88 228.997 196.939 228.761Z" fill="#323A50"/>
<path d="M196.055 230.824L219.862 221.631C219.744 221.808 219.626 222.043 219.509 222.22L195.819 231.354C195.878 231.177 195.996 231.001 196.055 230.824Z" fill="#323A50"/>
<path d="M196.998 232.179L218.566 223.87C218.448 224.047 218.33 224.283 218.212 224.459L198.118 232.179C197.705 232.179 197.352 232.179 196.998 232.179Z" fill="#323A50"/>
<path d="M201.771 232.179L217.092 226.286C216.975 226.463 216.857 226.699 216.739 226.875L202.95 232.179C202.596 232.179 202.183 232.179 201.771 232.179Z" fill="#323A50"/>
<path d="M206.721 232.06L215.678 228.643C215.56 228.819 215.443 229.055 215.325 229.232L207.9 232.06C207.487 232.06 207.134 232.06 206.721 232.06Z" fill="#323A50"/>
<path d="M211.612 232.06L214.146 231.059C214.028 231.235 213.911 231.471 213.793 231.648L212.732 232.06C212.319 232.06 211.966 232.06 211.612 232.06Z" fill="#323A50"/>
</g>
<defs>
<linearGradient id="paint0_linear_3618_7535" x1="270.966" y1="226.256" x2="69.4041" y2="78.8314" gradientUnits="userSpaceOnUse">
<stop offset="0.2655" stop-color="#032A3D" stop-opacity="0"/>
<stop offset="0.7809" stop-color="#032A3D"/>
</linearGradient>
<radialGradient id="paint1_radial_3618_7535" cx="0" cy="0" r="1" gradientUnits="userSpaceOnUse" gradientTransform="translate(165.884 218.566) scale(68.2146 67.8996)">
<stop offset="0.2655" stop-color="#032A3D" stop-opacity="0"/>
<stop offset="1" stop-color="#032A3D"/>
</radialGradient>
<linearGradient id="paint2_linear_3618_7535" x1="139.25" y1="110.903" x2="189.318" y2="307.445" gradientUnits="userSpaceOnUse">
<stop offset="0.4054" stop-color="#032A3D" stop-opacity="0"/>
<stop offset="1" stop-color="#032A3D"/>
</linearGradient>
<linearGradient id="paint3_linear_3618_7535" x1="103.037" y1="178.14" x2="234.73" y2="301.679" gradientUnits="userSpaceOnUse">
<stop offset="0.2655" stop-color="#032A3D" stop-opacity="0"/>
<stop offset="0.7809" stop-color="#032A3D"/>
</linearGradient>
<linearGradient id="paint4_linear_3618_7535" x1="110.157" y1="170.549" x2="241.85" y2="294.088" gradientUnits="userSpaceOnUse">
<stop offset="0.2655" stop-color="#032A3D" stop-opacity="0"/>
<stop offset="0.7809" stop-color="#032A3D"/>
</linearGradient>
<linearGradient id="paint5_linear_3618_7535" x1="107.689" y1="173.18" x2="239.382" y2="296.719" gradientUnits="userSpaceOnUse">
<stop offset="0.2655" stop-color="#032A3D" stop-opacity="0"/>
<stop offset="0.7809" stop-color="#032A3D"/>
</linearGradient>
<linearGradient id="paint6_linear_3618_7535" x1="82.6176" y1="199.908" x2="214.31" y2="323.446" gradientUnits="userSpaceOnUse">
<stop offset="0.2655" stop-color="#032A3D" stop-opacity="0"/>
<stop offset="0.7809" stop-color="#032A3D"/>
</linearGradient>
<linearGradient id="paint7_linear_3618_7535" x1="101.393" y1="179.892" x2="233.086" y2="303.43" gradientUnits="userSpaceOnUse">
<stop offset="0.2655" stop-color="#032A3D" stop-opacity="0"/>
<stop offset="0.7809" stop-color="#032A3D"/>
</linearGradient>
<linearGradient id="paint8_linear_3618_7535" x1="91.047" y1="190.921" x2="222.74" y2="314.46" gradientUnits="userSpaceOnUse">
<stop offset="0.2655" stop-color="#032A3D" stop-opacity="0"/>
<stop offset="0.7809" stop-color="#032A3D"/>
</linearGradient>
<linearGradient id="paint9_linear_3618_7535" x1="72.4129" y1="210.785" x2="204.106" y2="334.323" gradientUnits="userSpaceOnUse">
<stop offset="0.2655" stop-color="#032A3D" stop-opacity="0"/>
<stop offset="0.7809" stop-color="#032A3D"/>
</linearGradient>
<linearGradient id="paint10_linear_3618_7535" x1="75.6162" y1="207.37" x2="207.309" y2="330.909" gradientUnits="userSpaceOnUse">
<stop offset="0.2655" stop-color="#032A3D" stop-opacity="0"/>
<stop offset="0.7809" stop-color="#032A3D"/>
</linearGradient>
<linearGradient id="paint11_linear_3618_7535" x1="85.8765" y1="196.433" x2="217.569" y2="319.971" gradientUnits="userSpaceOnUse">
<stop offset="0.2655" stop-color="#032A3D" stop-opacity="0"/>
<stop offset="0.7809" stop-color="#032A3D"/>
</linearGradient>
<linearGradient id="paint12_linear_3618_7535" x1="72.4195" y1="210.778" x2="204.112" y2="334.316" gradientUnits="userSpaceOnUse">
<stop offset="0.2655" stop-color="#032A3D" stop-opacity="0"/>
<stop offset="0.7809" stop-color="#032A3D"/>
</linearGradient>
<clipPath id="clip0_3618_7535">
<rect width="330" height="330" fill="white"/>
</clipPath>
</defs>
</svg>
