<svg width="330" height="330" viewBox="0 0 330 330" fill="none" xmlns="http://www.w3.org/2000/svg">
<g clip-path="url(#clip0_3562_7731)">
<path d="M241.693 174.292C236.815 163.641 229.775 154.322 220.905 146.556C218.688 144.282 217.191 142.728 216.138 141.674C214.198 139.677 213.533 139.012 211.648 136.904C211.371 136.571 211.038 136.183 210.706 135.794C207.712 132.355 202.169 126.031 194.685 120.651C185.538 114.105 175.893 110.666 166.081 110.61H165.804C155.937 110.666 146.346 114.05 137.2 120.651C129.661 126.031 124.117 132.411 121.179 135.794C120.847 136.183 120.514 136.571 120.237 136.904C117.742 139.677 117.354 140.121 113.308 144.337C112.476 145.114 111.534 146.112 110.425 147.277C110.425 147.61 110.37 147.887 110.148 148.109C110.148 148.276 110.092 148.497 109.982 148.608C109.982 148.664 109.982 148.719 109.982 148.719C110.259 148.442 110.591 148.165 110.868 147.887C112.033 146.722 113.03 145.724 113.862 144.836C117.909 140.676 118.352 140.232 120.791 137.403C121.068 137.07 121.401 136.682 121.734 136.294C127.61 129.526 143.242 111.553 165.748 111.331H166.026C188.587 111.498 204.109 129.471 210.096 136.238C210.428 136.626 210.761 137.015 211.038 137.348C212.923 139.456 213.588 140.177 215.584 142.174C216.637 143.228 218.134 144.781 220.351 147.055C238.312 162.754 248.567 185.386 248.567 209.294C248.567 254.892 211.537 291.891 166.026 291.891C161.535 291.891 157.045 291.558 152.721 290.837C148.397 290.227 141.69 288.729 137.144 286.788C104.992 274.751 83.3177 243.686 83.3177 209.294C83.3177 189.768 90.3024 171.019 102.72 156.208C102.72 156.152 102.72 156.152 102.72 156.097C102.775 155.487 102.941 154.932 103.163 154.433C97.786 160.535 93.2958 167.413 89.9143 174.846C84.9807 185.774 82.4307 197.368 82.4307 209.405C82.4307 226.823 87.697 243.354 97.6751 257.499C107.432 271.367 120.958 281.74 136.701 287.564C141.302 289.561 148.065 291.115 152.444 291.669C156.879 292.39 161.425 292.723 165.859 292.723C177.168 292.723 188.088 290.504 198.344 286.178C208.266 281.906 217.191 275.915 224.841 268.26C232.491 260.605 238.589 251.674 242.747 241.745C247.126 231.427 249.288 220.444 249.288 209.239C249.399 197.201 246.793 185.33 241.693 174.292Z" fill="#323A50"/>
<path opacity="0.2" d="M208.045 146.612C210.983 144.947 212.646 143.838 209.597 140.399C204.497 134.574 189.031 115.104 165.804 114.882H165.582C142.3 115.048 127 134.574 121.789 140.399C118.74 143.893 121.124 145.89 122.51 146.944C128.497 143.117 133.929 140.121 141.08 137.736C141.246 137.681 150.227 133.409 165.139 133.298C165.194 133.298 175.283 133.243 184.818 136.183C196.237 139.289 201.781 143.061 208.045 146.612Z" fill="url(#paint0_linear_3562_7731)"/>
<path opacity="0.2" d="M165.249 278.189C202.907 278.189 233.434 247.766 233.434 210.237C233.434 172.708 202.907 142.284 165.249 142.284C127.592 142.284 97.0654 172.708 97.0654 210.237C97.0654 247.766 127.592 278.189 165.249 278.189Z" fill="url(#paint1_radial_3562_7731)"/>
<path opacity="0.34" d="M236.704 178.563C236.649 178.397 236.593 178.23 236.482 178.064C236.261 178.563 235.817 178.951 235.318 179.284C233.877 180.116 231.715 179.672 230.994 178.175C230.606 177.343 230.163 176.566 229.664 175.789C229.387 175.401 229.11 174.957 228.833 174.625C228.722 174.458 228.722 174.458 228.833 174.625C228.777 174.569 228.722 174.458 228.666 174.347C228.555 174.181 228.389 174.014 228.278 173.792C227.059 172.35 225.562 170.963 224.342 170.131C223.566 169.577 222.79 169.133 221.959 168.689C221.737 168.578 221.46 168.467 221.238 168.356C221.183 168.356 221.183 168.356 221.183 168.301C220.795 168.134 220.351 168.023 219.908 167.912C219.464 167.802 218.965 167.691 218.466 167.58C218.466 167.58 217.746 167.469 217.801 167.469C217.635 167.469 217.524 167.413 217.302 167.413C216.194 167.302 215.14 167.302 213.976 167.302C209.929 167.413 206.437 168.079 202.446 168.523C198.288 169.077 194.131 169.355 189.973 169.632C181.769 170.242 173.675 171.241 165.416 171.352C161.369 171.407 157.322 170.686 153.331 170.02C149.395 169.299 145.737 168.8 141.912 168.356C133.929 167.413 125.891 166.914 117.853 167.691C116.19 167.802 114.971 166.415 114.749 164.917C114.693 164.917 114.638 164.917 114.583 164.972C114.084 165.083 113.64 165.194 113.252 165.361C113.03 165.416 112.753 165.527 112.476 165.638C112.365 165.694 112.31 165.694 112.254 165.749C110.37 166.581 108.54 167.691 106.877 168.911C106.822 168.966 106.489 169.244 106.378 169.244C106.157 169.41 105.879 169.577 105.713 169.854C105.325 170.187 104.882 170.575 104.549 170.908C103.773 171.685 102.997 172.517 102.387 173.349C102.332 173.404 102.332 173.46 102.276 173.46L102.221 173.515C102.054 173.737 101.888 173.903 101.722 174.181C101.445 174.569 101.167 175.013 100.946 175.346C100.724 175.734 100.447 176.178 100.281 176.511C100.225 176.621 99.9479 177.398 100.225 176.622C100.17 176.843 100.059 177.01 100.003 177.287C99.3936 178.951 97.8968 179.894 96.1229 179.451C95.5132 179.34 95.0143 178.951 94.5708 178.508C94.5154 178.618 94.6262 178.729 94.5708 178.84C90.635 188.16 88.2513 198.366 88.2513 209.072C88.2513 251.841 122.842 286.511 165.637 286.511C208.433 286.511 243.024 252.007 243.024 209.239C243.024 198.366 240.751 187.993 236.704 178.563Z" fill="url(#paint2_linear_3562_7731)"/>
<g opacity="0.2">
<path d="M226.172 238.029L225.673 237.973C225.396 240.358 218.466 243.576 216.97 243.798C216.36 243.909 216.027 243.742 215.639 243.631C215.085 243.465 214.641 243.243 213.699 243.742C212.147 244.685 206.825 250.51 205.606 253.394C204.441 256.279 203.665 257.832 200.949 258.886C199.452 259.496 197.235 259.496 194.907 259.496C192.745 259.496 190.472 259.496 188.754 259.995C186.148 260.716 183.654 261.881 182.434 262.492C183.099 261.77 183.654 260.994 184.319 260.384C185.372 259.163 186.314 257.998 186.924 257.61C187.756 257 190.527 256.723 193.465 256.445C197.457 256.057 201.947 255.502 203.388 254.226C204.996 252.673 207.213 247.07 209.043 242.577C209.985 240.137 210.816 238.084 211.315 237.252C211.87 236.364 213.311 235.366 214.919 234.312C217.635 232.537 220.684 230.484 220.628 227.988H220.129C220.185 230.152 217.247 232.149 214.641 233.868C212.923 234.978 211.482 235.976 210.872 236.975C210.318 237.862 209.541 239.915 208.599 242.355C206.825 246.849 204.608 252.451 203.056 253.838C202.501 254.337 201.448 254.726 200.173 255.003C201.06 254.504 202.058 253.838 202.778 252.895C204.109 251.231 205.218 247.348 205.772 245.24C205.883 244.907 205.938 244.574 205.994 244.352C206.16 243.687 205.938 243.298 205.716 242.855C205.439 242.355 205.107 241.912 205.328 240.747C205.55 239.471 206.271 238.916 207.102 238.306C207.657 237.918 208.156 237.529 208.599 236.864C209.597 235.255 208.932 233.646 208.654 232.759V232.703C208.433 232.093 207.878 232.149 207.49 232.149C207.102 232.204 206.825 232.204 206.659 231.982C206.548 231.76 206.825 231.261 207.213 230.817C207.712 230.096 208.266 229.264 207.934 228.598L207.546 228.765C207.768 229.32 207.324 229.93 206.881 230.54C206.382 231.206 205.994 231.76 206.326 232.26C206.603 232.814 207.158 232.759 207.546 232.648C207.934 232.592 208.156 232.592 208.266 232.814V232.87C208.599 233.757 209.153 235.144 208.266 236.531C207.934 237.086 207.435 237.474 206.936 237.807C206.104 238.417 205.273 238.972 204.996 240.525C204.774 241.856 205.107 242.466 205.495 243.021C205.716 243.354 205.827 243.631 205.716 244.075C205.661 244.241 205.606 244.63 205.495 244.963C204.94 246.904 203.832 250.843 202.612 252.451C201.171 254.226 198.732 255.169 198.51 255.225C196.958 255.447 195.184 255.613 193.632 255.835C190.527 256.168 187.811 256.501 186.924 257.055C186.259 257.555 185.317 258.664 184.208 259.94C182.101 262.492 179.163 265.875 177.112 265.764C176.059 265.709 174.95 265.487 173.675 265.21C171.236 264.71 168.576 264.156 165.582 264.655C159.54 265.764 157.433 266.929 156.269 268.427C155.105 269.758 154.495 271.533 154.495 271.589L154.883 271.755C154.883 271.755 155.493 269.98 156.602 268.704C157.71 267.373 159.706 266.208 165.693 265.099C168.52 264.544 171.236 265.099 173.565 265.653C174.784 265.875 175.948 266.153 177.057 266.264C178.609 266.375 180.383 264.821 182.046 263.102L182.101 263.268C182.157 263.268 185.538 261.382 188.975 260.439C190.694 259.94 192.856 259.94 194.962 259.94C197.401 259.94 199.674 259.94 201.226 259.33C204.109 258.22 204.94 256.501 206.104 253.561C207.213 250.843 212.479 245.073 213.921 244.13C214.641 243.631 214.974 243.853 215.473 244.02C215.861 244.186 216.36 244.352 217.08 244.241C218.744 244.02 225.839 240.691 226.172 238.029Z" fill="url(#paint3_linear_3562_7731)"/>
<path d="M170.239 249.068C169.407 249.9 169.573 251.286 169.684 252.895C169.795 254.448 169.961 256.112 169.296 257.61C167.966 260.384 161.868 262.547 161.813 262.603L161.923 263.102C162.201 263.046 168.243 260.883 169.684 257.832C170.405 256.279 170.294 254.448 170.183 252.895C170.072 251.397 169.961 250.121 170.571 249.4C171.292 248.679 173.786 248.125 176.059 247.625C178.665 247.015 180.882 246.516 181.436 245.739C181.991 245.018 182.101 244.408 182.157 243.798C182.268 243.132 182.323 242.688 182.933 242.245C183.21 242.078 184.762 242.134 186.425 242.245C190.971 242.522 197.845 242.91 200.339 239.471C202.28 236.753 201.614 234.756 201.06 233.036C200.561 231.594 200.173 230.374 201.06 228.931C201.725 227.766 202.945 227.378 204.275 226.934C206.936 226.047 210.207 224.993 212.369 218.225C212.867 216.617 212.59 215.008 212.369 213.399C212.036 211.291 211.703 209.294 212.978 207.464L212.59 207.187C211.26 209.183 211.593 211.347 211.87 213.51C212.091 215.119 212.369 216.617 211.87 218.114C209.819 224.716 206.659 225.714 204.109 226.546C202.612 227.045 201.393 227.434 200.561 228.709C199.619 230.374 200.062 231.816 200.561 233.203C201.171 234.922 201.725 236.753 199.896 239.194C197.623 242.355 190.583 241.967 186.425 241.801C184.818 241.745 183.765 241.69 183.21 241.745C183.487 241.08 183.598 240.137 183.82 239.138C184.097 237.363 184.485 235.311 185.538 234.201C186.093 233.646 186.758 233.425 187.756 233.147C190.029 232.482 193.299 231.538 195.849 224.993V224.937C196.348 222.719 195.794 221.11 195.239 220.167C195.018 219.779 194.519 219.501 194.075 219.279C193.521 219.057 192.967 218.725 192.468 218.059C191.636 216.839 191.304 209.849 191.581 208.573C191.581 208.462 191.636 208.407 191.636 208.407C191.692 208.351 191.969 208.462 192.246 208.518C192.967 208.795 194.186 209.239 195.683 208.185L195.406 207.797C194.131 208.74 193.133 208.407 192.412 208.074C192.024 207.963 191.692 207.852 191.47 207.963C191.359 208.019 191.248 208.185 191.193 208.462C190.916 209.738 191.193 216.894 192.135 218.336C192.689 219.168 193.355 219.446 193.909 219.779C194.297 219.945 194.685 220.111 194.851 220.444C195.35 221.332 195.849 222.719 195.406 224.882C192.911 231.206 189.862 232.093 187.7 232.703C186.703 232.981 185.816 233.258 185.206 233.868C184.097 235.089 183.709 237.197 183.376 239.083C183.21 240.303 182.988 241.523 182.545 241.967C181.88 242.466 181.769 243.077 181.658 243.742C181.547 244.352 181.492 244.852 180.993 245.517C180.494 246.183 178.055 246.682 175.893 247.181C173.454 247.736 171.07 248.235 170.239 249.068Z" fill="url(#paint4_linear_3562_7731)"/>
<path d="M170.959 202.25C171.569 202.915 172.012 203.359 171.735 204.801C171.569 205.744 171.015 207.076 170.46 208.573C169.462 211.18 168.465 213.843 168.908 215.008C169.13 215.618 169.518 216.006 169.851 216.45C170.571 217.338 171.403 218.225 170.959 220.888C170.627 222.996 169.462 224.66 168.576 225.991C167.744 227.156 167.079 228.155 167.134 229.153C167.19 229.93 167.633 230.429 168.077 230.928C168.797 231.871 169.573 232.814 168.576 235.089C167.799 236.919 166.746 237.363 165.859 237.751C164.917 238.14 164.141 238.528 164.363 240.303C164.64 242.189 165.859 243.354 166.968 244.463C167.799 245.295 168.631 246.183 169.185 247.292L169.573 247.126C168.964 245.961 168.077 245.018 167.301 244.13C166.192 243.021 165.139 241.912 164.806 240.192C164.584 238.75 165.083 238.583 165.97 238.195C166.857 237.807 168.077 237.252 168.908 235.311C170.017 232.648 169.13 231.594 168.298 230.595C167.91 230.041 167.522 229.652 167.467 229.042C167.411 228.21 168.021 227.323 168.742 226.213C169.684 224.882 170.848 223.162 171.236 220.888C171.735 218.003 170.848 217.005 170.072 216.117C169.74 215.729 169.407 215.341 169.185 214.842C168.797 213.788 169.851 211.125 170.737 208.795C171.347 207.297 171.846 205.966 172.012 204.968C172.345 203.303 171.791 202.693 171.126 201.972C170.737 201.473 170.239 201.029 170.072 200.142L169.573 200.253C170.017 201.251 170.516 201.806 170.959 202.25Z" fill="url(#paint5_linear_3562_7731)"/>
<path d="M173.343 266.319C171.735 265.543 167.744 265.21 165.249 265.654C162.866 266.042 158.708 266.985 157.045 268.76C156.103 269.759 155.271 271.7 155.271 271.811L155.659 271.978C155.659 271.978 156.546 270.036 157.378 269.038C158.985 267.318 163.42 266.375 165.249 266.042C167.91 265.543 171.68 266.042 173.01 266.708C174.507 267.429 175.006 268.483 175.061 268.982C175.228 270.646 172.511 272.089 172.511 272.089L172.678 272.477C172.789 272.421 175.727 270.813 175.449 268.871C175.56 268.261 174.895 266.985 173.343 266.319Z" fill="url(#paint6_linear_3562_7731)"/>
<path d="M174.562 237.641C175.394 237.973 176.225 238.306 176.724 239.083C177.39 239.97 178.665 242.245 176.891 244.297C176.17 245.129 174.396 245.795 172.733 246.405C171.015 247.015 169.407 247.57 168.964 248.402C168.409 249.234 168.465 250.621 168.631 252.285C168.742 253.783 168.797 255.28 168.52 256.445C167.799 258.942 161.702 261.826 161.646 261.826L161.813 262.214C162.09 262.103 168.187 259.219 168.964 256.556C169.296 255.28 169.185 253.616 169.074 252.174C168.964 250.621 168.908 249.234 169.296 248.568C169.684 247.903 171.292 247.348 172.899 246.793C174.673 246.128 176.503 245.517 177.279 244.574C178.609 242.966 178.554 240.858 177.112 238.805C176.503 237.918 175.56 237.585 174.673 237.197C173.842 236.864 173.01 236.531 172.678 235.754C171.957 234.201 172.511 232.537 173.509 231.871C173.731 231.705 174.064 231.594 174.285 231.372C175.172 230.818 176.004 230.374 177.057 229.209C178.498 227.656 181.104 221.443 181.603 218.336C181.88 216.561 181.436 215.729 180.882 214.897C180.494 214.232 180.05 213.566 179.94 212.29L179.441 212.345C179.552 213.677 180.05 214.453 180.438 215.119C180.937 215.951 181.381 216.617 181.104 218.17C180.605 221.11 178.055 227.267 176.669 228.71C175.671 229.819 174.784 230.318 173.953 230.818C173.675 230.984 173.398 231.095 173.177 231.317C172.068 232.038 171.403 234.035 172.234 235.81C172.733 236.919 173.675 237.308 174.562 237.641Z" fill="url(#paint7_linear_3562_7731)"/>
</g>
<g opacity="0.2">
<path d="M154.329 264.488C154.163 263.268 152.721 262.269 151.28 261.271C150.171 260.494 148.453 259.551 146.956 258.663C145.626 257.942 144.462 257.221 144.018 256.944C143.907 256.888 143.796 256.722 143.686 256.556C142.965 255.446 142.466 252.673 142.577 250.509C142.632 249.289 142.521 248.346 142.466 247.514C142.355 246.682 142.3 246.071 142.521 245.572C142.688 245.184 143.02 245.073 143.464 245.018C143.963 244.962 144.572 244.851 144.905 244.074C145.127 243.409 145.016 242.632 144.961 242.022C144.85 241.301 144.794 240.691 145.071 240.247C145.349 239.859 145.681 239.692 146.069 239.581C146.457 239.415 146.956 239.248 147.344 238.638C147.677 238.084 147.233 237.418 146.624 236.53C145.737 235.31 144.572 233.535 145.016 231.316C145.57 229.042 146.236 229.097 147.233 229.264C147.732 229.319 148.287 229.43 148.841 229.208C149.783 228.875 150.67 226.767 151.557 224.604C152.278 222.94 152.998 221.165 153.608 220.776C154.329 220.222 154.939 220.111 155.493 220C156.103 219.889 156.602 219.833 157.045 219.223C157.6 218.558 157.267 217.67 157.045 216.949C156.934 216.45 156.768 216.006 156.879 215.784L156.491 215.562C156.325 215.95 156.435 216.505 156.602 217.115C156.768 217.781 156.99 218.613 156.657 219.001C156.325 219.39 155.937 219.501 155.382 219.612C154.772 219.723 154.107 219.833 153.331 220.444C152.61 220.998 151.89 222.663 151.169 224.493C150.393 226.379 149.506 228.542 148.675 228.82C148.176 228.986 147.732 228.931 147.233 228.875C146.18 228.764 145.127 228.598 144.462 231.316C143.907 233.701 145.182 235.476 146.125 236.863C146.624 237.584 147.067 238.139 146.845 238.472C146.568 238.971 146.18 239.082 145.792 239.248C145.404 239.359 144.961 239.526 144.628 240.081C144.24 240.691 144.351 241.412 144.462 242.133C144.572 242.799 144.628 243.409 144.462 244.019C144.295 244.574 143.852 244.629 143.408 244.685C142.909 244.74 142.411 244.796 142.133 245.517C141.856 246.182 141.967 246.848 142.078 247.68C142.189 248.457 142.244 249.344 142.189 250.565C142.078 251.896 142.244 253.56 142.577 255.002C141.579 253.338 140.304 250.842 140.027 248.29C139.861 246.182 140.249 245.461 140.858 244.352C141.413 243.298 142.023 241.967 142.577 239.027C143.298 234.866 141.468 230.928 140.304 228.931C140.415 228.542 141.246 225.769 143.408 224.992L144.517 224.604C146.568 223.883 148.397 223.162 149.34 222.718C150.559 222.052 151.557 219.944 151.834 218.669C151.945 217.892 151.557 217.448 151.225 217.004C150.947 216.616 150.615 216.228 150.615 215.562C150.67 215.007 151.446 214.508 152.333 213.898C153.553 213.01 155.16 212.012 155.826 210.237C156.602 208.129 155.826 207.186 155.16 206.354C154.828 205.966 154.495 205.522 154.384 205.078L153.996 205.189C154.107 205.799 154.551 206.243 154.883 206.687C155.548 207.519 156.103 208.295 155.493 210.126C154.883 211.735 153.387 212.733 152.167 213.565C151.114 214.286 150.282 214.786 150.227 215.562C150.171 216.394 150.559 216.838 150.892 217.282C151.225 217.67 151.502 218.003 151.391 218.558C151.169 219.889 150.171 221.775 149.229 222.33C148.287 222.829 146.402 223.439 144.406 224.216L143.298 224.604C141.302 225.325 140.359 227.544 139.971 228.487C139.583 227.877 139.306 227.544 139.251 227.489C139.195 227.433 134.982 223.606 133.098 220.666C131.213 217.726 131.213 215.285 132.266 214.397C132.82 213.898 133.874 213.843 135.149 213.787C136.313 213.732 137.643 213.676 138.807 213.232C140.581 212.567 141.856 210.07 142.244 209.294C142.799 208.184 143.242 206.631 142.965 205.91C142.466 204.634 140.47 204.19 140.415 204.135L140.359 204.634C140.359 204.634 142.189 205.023 142.521 206.132C142.632 206.52 142.466 207.685 141.801 209.127C141.136 210.57 139.916 212.345 138.696 212.844C137.588 213.232 136.313 213.343 135.204 213.399C133.874 213.454 132.71 213.51 132.1 214.064C130.991 215.063 130.769 217.615 132.876 220.887C134.705 223.772 138.752 227.544 139.084 227.766C139.306 228.043 143.353 233.202 142.3 238.971C141.801 241.8 141.191 243.076 140.637 244.185C140.526 244.407 140.415 244.685 140.304 244.907C139.75 243.464 139.805 242.688 139.916 241.967C139.971 241.024 139.916 240.469 138.641 239.692C136.923 238.638 133.652 238.472 131.435 238.361C130.548 238.305 129.772 238.25 129.439 238.195C127.998 237.862 127.388 237.251 126.944 236.031C126.667 235.033 126.889 234.7 127.332 234.201C127.443 234.09 127.554 233.923 127.72 233.701C127.887 233.479 128.275 233.202 128.607 233.036C129.439 232.536 130.548 231.926 130.492 230.262C130.437 228.82 129.494 228.376 128.552 227.821C127.887 227.489 127.277 227.156 126.778 226.49C125.559 224.826 124.062 220.055 123.785 217.448C123.507 214.508 124.006 209.072 124.505 208.739C124.672 208.684 125.448 209.017 126.057 209.349C127.166 209.904 128.607 210.514 129.55 210.292C129.716 210.237 129.827 210.237 130.049 210.181C131.268 209.904 131.379 209.793 131.324 208.517C131.268 207.63 130.603 207.519 130.104 207.463C129.716 207.408 129.384 207.352 129.162 207.075C128.663 206.465 128.885 204.246 128.94 203.414L128.441 203.358C128.386 203.691 128.109 206.465 128.718 207.352C129.051 207.741 129.55 207.852 129.938 207.907C130.548 208.018 130.825 208.073 130.825 208.573C130.88 209.072 130.88 209.294 130.769 209.405C130.658 209.516 130.381 209.571 129.882 209.682C129.772 209.738 129.605 209.738 129.384 209.793C128.552 209.96 127.277 209.405 126.224 208.85C125.226 208.351 124.672 208.129 124.339 208.24C123.397 208.573 123.119 215.174 123.286 217.448C123.563 220.166 125.004 224.992 126.335 226.767C126.889 227.489 127.61 227.877 128.275 228.265C129.217 228.764 129.938 229.153 129.993 230.318C130.049 231.649 129.162 232.204 128.33 232.703C127.942 232.925 127.499 233.202 127.332 233.535C127.222 233.701 127.111 233.868 127 234.034C126.501 234.589 126.168 235.033 126.501 236.253C126.889 237.695 127.72 238.361 129.273 238.749C129.55 238.805 129.993 238.86 130.548 238.86C130.215 239.082 129.827 239.082 129.439 239.082C129.051 239.082 128.497 239.027 128.109 239.359C127.332 239.914 127.831 240.802 128.164 241.412C128.275 241.689 128.441 242.022 128.441 242.188C128.441 242.299 128.386 242.41 128.275 242.521C128.053 242.688 127.554 242.743 126.944 242.688C126.224 242.577 125.226 241.523 124.672 240.857C124.45 240.635 124.284 240.358 124.117 240.302C123.84 240.136 123.507 240.136 123.23 240.191C122.898 240.247 122.454 240.247 122.122 240.025C121.955 239.914 121.789 239.692 121.789 239.359C121.734 238.805 121.955 238.25 122.122 238.084C122.177 238.028 122.399 238.028 122.621 238.028C122.898 238.028 123.286 238.028 123.563 237.806C124.062 237.418 124.228 236.752 124.173 235.754C124.117 235.144 123.618 235.144 123.23 235.144C122.731 235.144 122.232 235.088 122.011 234.422C121.844 233.923 122.066 233.479 122.399 232.869C122.953 231.982 123.563 230.817 122.676 229.208C121.623 227.211 120.459 227.433 119.572 227.599C119.294 227.655 118.962 227.71 118.796 227.655C118.629 227.599 118.518 227.489 118.518 227.378C118.463 227.211 118.574 227.045 118.629 226.989L118.297 226.712C118.297 226.767 118.019 227.1 118.13 227.544C118.186 227.766 118.408 228.043 118.74 228.154C119.073 228.265 119.405 228.21 119.738 228.154C120.569 228.043 121.456 227.821 122.399 229.485C123.175 230.928 122.621 231.871 122.122 232.703C121.789 233.368 121.401 233.923 121.623 234.644C121.955 235.587 122.731 235.643 123.286 235.643C123.785 235.643 123.84 235.698 123.84 235.809C123.896 236.641 123.785 237.252 123.452 237.529C123.286 237.64 123.064 237.64 122.787 237.64C122.51 237.64 122.177 237.64 121.955 237.862C121.734 238.139 121.401 238.86 121.567 239.526C121.623 239.914 121.789 240.302 122.122 240.524C122.676 240.857 123.175 240.857 123.618 240.802C123.896 240.802 124.117 240.746 124.228 240.857C124.339 240.913 124.505 241.135 124.727 241.412C125.392 242.133 126.446 243.298 127.277 243.409C127.277 243.409 127.277 243.409 127.332 243.409C128.109 243.52 128.663 243.409 129.051 243.131C129.217 242.965 129.328 242.743 129.384 242.41C129.384 242.133 129.217 241.8 129.051 241.412C128.718 240.691 128.441 240.247 128.885 239.914C129.217 239.692 129.55 239.692 129.938 239.692C130.492 239.692 131.102 239.748 131.656 239.027C131.712 239.027 131.767 239.027 131.767 239.027C133.874 239.138 137.144 239.359 138.752 240.302C139.861 241.024 139.861 241.356 139.805 242.188C139.75 242.965 139.694 243.964 140.47 245.739C140.249 246.46 140.138 247.292 140.193 248.623C140.47 252.728 143.741 256.944 143.907 257.221C144.018 257.388 144.184 257.554 144.295 257.72C144.794 258.053 145.958 258.719 147.289 259.496C148.785 260.328 150.449 261.271 151.613 262.047C152.943 262.99 154.329 263.933 154.44 264.987C154.495 265.487 154.384 265.986 153.885 266.54C152.278 268.648 150.282 276.026 150.282 276.248L150.781 276.303C150.837 275.804 152.832 268.759 154.329 266.818C154.273 265.708 154.44 265.098 154.329 264.488Z" fill="url(#paint8_linear_3562_7731)"/>
<path d="M151.225 266.373C150.559 264.155 147.344 261.714 146.291 261.048C144.018 259.606 138.696 259.329 136.257 259.883C135.149 260.105 134.373 260.494 133.652 260.826C132.876 261.159 132.211 261.547 131.379 261.547C129.55 261.547 128.552 261.769 127.665 262.435C127.499 262.546 127.443 262.712 127.443 262.823C127.443 263.156 127.776 263.544 128.164 263.877C128.441 264.155 128.885 264.543 128.829 264.765C128.829 264.876 128.718 264.931 128.607 264.987C127.443 265.652 126.501 264.709 126.445 264.709L126.113 265.042C126.113 265.042 127.277 266.207 128.829 265.43C129.106 265.264 129.217 265.098 129.328 264.82C129.383 264.321 128.94 263.933 128.497 263.6C128.275 263.378 127.887 263.045 127.887 262.879L127.942 262.823C128.774 262.213 129.661 261.991 131.435 261.991C132.432 261.991 133.153 261.658 133.985 261.215C134.65 260.882 135.426 260.494 136.479 260.272C138.752 259.772 143.963 260.105 146.125 261.381C147.4 262.213 150.282 264.432 150.892 266.429C151.003 266.984 150.781 267.982 150.393 268.648C148.619 272.753 148.009 275.748 148.009 275.804L148.397 275.859C148.397 275.859 149.007 272.919 150.781 268.87C150.947 268.426 151.391 267.206 151.225 266.373Z" fill="url(#paint9_linear_3562_7731)"/>
<path d="M152.222 265.985C152.112 265.153 151.28 264.266 151.003 263.933C150.947 263.877 150.947 263.877 150.947 263.877C149.284 261.936 146.901 260.05 145.293 259.44C144.794 259.273 144.295 259.162 143.63 259.051C141.025 257.831 138.586 257.332 136.146 256.888C134.871 256.666 133.486 256.333 132.155 256C128.552 254.947 122.51 248.9 122.232 248.678C122.066 248.401 117.909 243.242 117.576 241.411C117.41 240.635 116.523 236.752 116.079 235.642C115.691 234.699 110.48 232.98 109.483 232.647C106.933 232.536 103.274 232.314 102.941 232.037C102.553 231.759 102.054 230.317 102.11 229.762C102.11 229.541 102.387 229.374 102.72 229.152C103.219 228.875 103.717 228.431 103.828 227.71C103.884 227.155 103.551 225.602 102.886 223.05C102.276 220.61 101.445 217.337 101.722 216.727C101.888 216.172 102.276 216.116 102.609 216.006C102.941 215.95 103.329 215.839 103.44 215.284C103.496 215.118 103.385 214.952 103.329 214.896C103.108 214.619 102.553 214.674 101.833 214.73C101.112 214.785 100.17 214.841 99.837 214.508L99.5599 214.841C100.114 215.34 101.057 215.229 101.833 215.173C102.221 215.173 102.83 215.118 102.941 215.229C102.886 215.451 102.83 215.506 102.442 215.562C102.11 215.673 101.556 215.784 101.278 216.56C101.057 217.226 101.556 219.556 102.442 223.106C102.941 225.103 103.44 227.155 103.385 227.599C103.329 228.154 102.83 228.431 102.442 228.709C102.054 228.986 101.666 229.263 101.611 229.652C101.5 230.373 101.999 232.037 102.609 232.425C103.108 232.758 107.875 233.035 109.372 233.091C112.31 234.034 115.525 235.31 115.691 235.809C116.024 236.641 116.689 239.304 117.188 241.522C117.576 243.464 121.789 248.734 121.955 248.956C122.232 249.233 128.33 255.335 132.044 256.444C133.375 256.833 134.761 257.11 136.091 257.332C138.031 257.665 140.027 258.108 142.023 258.885C140.914 258.774 139.639 258.719 138.475 258.608C137.477 258.552 136.535 258.497 135.814 258.386C130.215 257.776 127.111 256.888 125.004 255.501C122.731 253.893 115.802 247.846 115.303 247.125C115.026 246.737 114.915 246.293 114.693 245.683C114.583 245.295 114.472 244.795 114.195 244.241C113.308 242.299 110.092 240.247 107.653 238.693C106.434 237.861 105.38 237.196 105.103 236.863C104.771 236.308 104.882 235.975 105.048 235.531C105.159 235.199 105.325 234.81 105.325 234.367H104.826C104.826 234.755 104.715 235.088 104.549 235.365C104.327 235.92 104.161 236.364 104.604 237.14C104.882 237.528 105.879 238.194 107.265 239.082C109.538 240.579 112.809 242.632 113.585 244.462C113.806 244.962 113.917 245.405 114.084 245.794C114.25 246.404 114.361 246.848 114.749 247.347C115.359 248.068 122.232 254.17 124.616 255.779C126.723 257.276 129.882 258.164 135.592 258.719C136.313 258.774 137.255 258.83 138.253 258.94C140.748 259.107 143.575 259.329 144.961 259.828C146.513 260.383 148.841 262.269 150.448 264.155C150.448 264.155 150.504 264.21 150.504 264.266C150.781 264.543 151.557 265.431 151.613 266.096C151.723 266.762 151.28 268.038 150.615 269.757C150.005 271.422 149.284 273.474 148.619 275.97L149.007 276.081C149.672 273.585 150.448 271.588 151.003 269.924C151.89 267.982 152.333 266.762 152.222 265.985Z" fill="url(#paint10_linear_3562_7731)"/>
<path d="M105.048 203.025C104.992 203.358 104.66 203.913 104.216 204.523C103.496 205.633 102.609 206.908 103.163 207.851C103.44 208.406 104.161 208.85 105.048 209.46C106.6 210.459 108.54 211.734 109.316 214.12C110.536 217.836 113.751 224.493 113.806 224.548V224.604C113.862 224.659 117.742 229.929 116.412 234.977L116.8 235.088C118.13 229.874 114.527 224.77 114.139 224.382C114.139 224.327 114.028 224.16 113.917 223.883C114.472 223.772 115.636 223.383 116.467 222.33C117.077 221.497 117.299 220.554 117.188 219.334C116.911 217.282 115.968 215.34 115.081 213.621C114.305 212.123 113.64 210.902 113.751 209.959C113.806 209.127 114.305 209.016 114.86 208.85C115.58 208.684 116.467 208.351 116.634 206.853C116.8 205.189 115.691 204.468 114.749 203.913C114.028 203.414 113.585 203.136 113.64 202.637C113.751 201.139 115.858 199.087 115.858 199.087L115.58 198.754C115.525 198.81 113.363 200.918 113.197 202.582C113.141 203.414 113.862 203.858 114.527 204.301C115.414 204.856 116.356 205.411 116.19 206.798C116.079 208.018 115.414 208.24 114.693 208.406C114.028 208.573 113.363 208.795 113.197 209.904C113.141 210.958 113.806 212.289 114.527 213.787C115.414 215.451 116.356 217.337 116.578 219.334C116.689 220.388 116.523 221.331 115.968 221.997C115.192 222.995 114.028 223.273 113.585 223.328C112.642 221.387 110.591 216.727 109.593 213.898C108.762 211.402 106.655 210.015 105.159 209.016C104.327 208.462 103.662 208.018 103.44 207.574C103.052 206.853 103.773 205.688 104.438 204.745C104.937 204.079 105.27 203.525 105.325 203.081C105.38 202.415 104.771 201.472 104.05 200.363C103.385 199.364 102.609 198.255 102.498 197.423L101.999 197.478C102.11 198.421 102.886 199.531 103.607 200.585C104.438 201.583 105.103 202.582 105.048 203.025Z" fill="url(#paint11_linear_3562_7731)"/>
<path d="M149.617 267.872C149.063 266.652 147.51 265.653 146.402 264.877C145.903 264.599 145.57 264.322 145.404 264.155C145.238 263.989 145.238 263.823 145.182 263.601C145.071 263.046 144.905 262.602 143.741 262.103C142.022 261.382 137.92 261.049 136.534 261.937C135.98 262.269 135.925 262.769 135.925 263.046C136.036 263.989 137.144 264.821 138.198 265.154C138.918 265.376 138.974 266.152 139.029 266.929C139.084 267.595 139.14 268.26 139.639 268.649C139.971 268.87 140.138 269.148 140.027 269.314C139.971 269.536 139.528 269.869 138.586 269.98C137.311 270.091 135.26 269.592 135.204 269.592L135.093 270.091C135.149 270.091 137.2 270.646 138.641 270.479C139.639 270.368 140.304 269.98 140.415 269.481C140.526 269.092 140.304 268.649 139.805 268.316C139.473 268.094 139.473 267.539 139.417 266.984C139.362 266.152 139.306 265.154 138.308 264.877C137.255 264.544 136.368 263.767 136.313 263.101C136.313 262.824 136.424 262.602 136.645 262.436C137.809 261.715 141.634 261.937 143.408 262.658C144.406 263.046 144.462 263.434 144.572 263.767C144.628 263.989 144.683 264.322 144.96 264.544C145.127 264.71 145.57 265.043 146.014 265.32C147.067 265.986 148.619 267.04 149.118 268.094C149.451 268.87 149.063 269.703 148.508 270.867C148.009 271.977 147.4 273.364 147.067 275.25L147.566 275.305C147.788 273.53 148.453 272.199 148.896 271.034C149.617 269.813 150.06 268.87 149.617 267.872Z" fill="url(#paint12_linear_3562_7731)"/>
</g>
<path d="M164.695 175.234C186.218 175.234 203.665 165.847 203.665 154.266C203.665 142.686 186.218 133.298 164.695 133.298C143.172 133.298 125.725 142.686 125.725 154.266C125.725 165.847 143.172 175.234 164.695 175.234Z" fill="#2A697F"/>
<path d="M164.307 154.655C173.767 154.655 181.436 150.855 181.436 146.168C181.436 141.48 173.767 137.681 164.307 137.681C154.847 137.681 147.178 141.48 147.178 146.168C147.178 150.855 154.847 154.655 164.307 154.655Z" fill="#293C4F"/>
<path d="M164.307 139.676C173.066 139.676 180.272 142.894 181.27 147.11C181.325 146.777 181.381 146.444 181.381 146.111C181.381 141.452 173.731 137.624 164.252 137.624C154.772 137.624 147.122 141.396 147.122 146.111C147.122 146.444 147.178 146.832 147.233 147.11C148.342 143.005 155.604 139.676 164.307 139.676Z" fill="#DBDBDB"/>
<path d="M181.325 148.885L180.937 147.221C179.94 143.172 172.789 140.065 164.307 140.065C155.826 140.065 148.675 143.116 147.677 147.221L147.289 148.885L146.901 147.221C146.79 146.833 146.79 146.444 146.79 146.112C146.79 143.671 148.675 141.452 152.056 139.732C155.382 138.068 159.706 137.181 164.363 137.181C169.019 137.181 173.398 138.068 176.669 139.732C180.106 141.397 181.935 143.671 181.935 146.112C181.935 146.444 181.88 146.833 181.824 147.221L181.325 148.885ZM164.307 138.068C155.659 138.068 148.508 141.23 147.677 145.39C149.95 141.84 156.657 139.344 164.307 139.344C171.957 139.344 178.609 141.896 180.937 145.39C180.161 141.286 173.01 138.068 164.307 138.068Z" fill="#323A50"/>
<path d="M164.806 133.409C143.242 133.409 125.836 142.617 125.836 153.934C125.836 165.25 143.353 174.458 164.806 174.458C186.37 174.458 203.776 165.25 203.776 153.934C203.776 142.617 186.314 133.409 164.806 133.409ZM181.436 146.279C181.436 146.334 181.492 146.39 181.492 146.39C181.492 146.445 181.492 146.5 181.492 146.556C180.771 150.827 173.398 154.156 164.418 154.156C155.659 154.156 148.453 150.994 147.455 146.833C147.455 146.722 147.4 146.611 147.4 146.5C147.4 146.445 147.4 146.39 147.4 146.334C147.4 146.279 147.4 146.223 147.4 146.168C147.4 146.057 147.4 146.001 147.4 145.835C147.4 145.835 147.4 145.557 147.4 145.447C147.455 144.836 147.621 144.337 147.954 143.782C148.231 143.228 148.619 142.784 149.063 142.285H149.118C151.89 139.511 157.766 137.57 164.584 137.57C174.008 137.57 181.713 141.286 181.713 145.835H181.547C181.436 146.057 181.492 146.168 181.436 146.279Z" fill="#DBDBDB"/>
<path d="M164.806 174.846C154.329 174.846 144.462 172.738 137.089 168.8C129.605 164.861 125.503 159.536 125.503 153.933C125.503 148.331 129.605 143.005 137.089 139.067C144.517 135.184 154.329 133.021 164.806 133.021C175.283 133.021 185.15 135.128 192.523 139.067C200.007 143.005 204.109 148.331 204.109 153.933C204.109 159.536 200.007 164.861 192.523 168.8C185.095 172.683 175.283 174.846 164.806 174.846ZM164.806 133.853C143.519 133.853 126.279 142.894 126.279 153.933C126.279 165.028 143.63 174.014 164.806 174.014C185.982 174.014 203.333 164.972 203.333 153.933C203.333 142.894 185.982 133.853 164.806 133.853ZM164.418 154.599C155.604 154.599 148.12 151.382 147.012 146.999C147.012 146.888 146.956 146.777 146.956 146.667C146.956 146.611 146.956 146.556 146.901 146.5C146.901 146.445 146.901 146.445 146.901 146.389V146.334C146.901 146.223 146.901 146.167 146.901 146.001V145.613C146.901 145.613 146.901 145.613 146.901 145.557C146.956 144.947 147.122 144.392 147.511 143.782C147.788 143.227 148.176 142.728 148.675 142.173L148.73 142.118C151.668 139.178 157.71 137.347 164.473 137.347C169.13 137.347 173.509 138.235 176.78 139.844C180.217 141.508 182.046 143.671 182.046 146.112V146.5H181.935C181.935 146.556 181.935 146.556 181.935 146.611C181.935 146.666 181.935 146.722 181.935 146.777C181.159 151.16 173.62 154.599 164.418 154.599ZM147.677 145.945C147.677 146.056 147.677 146.112 147.677 146.223V146.334C147.677 146.389 147.677 146.389 147.677 146.445C147.677 146.5 147.677 146.556 147.677 146.611C147.677 146.722 147.732 146.777 147.732 146.888C148.73 150.882 155.881 153.822 164.363 153.822C173.01 153.822 180.328 150.66 181.048 146.556V146.5C181.048 146.445 180.993 146.389 181.048 146.334V146.278C181.048 146.223 181.048 146.167 181.048 146.056V145.668H181.215C181.048 143.782 179.33 141.951 176.447 140.62C173.287 139.067 169.019 138.179 164.473 138.179C158.043 138.179 152.056 139.954 149.34 142.783L149.284 142.839C148.785 143.338 148.453 143.782 148.287 144.17C148.009 144.725 147.899 145.169 147.788 145.668C147.732 145.613 147.677 145.89 147.677 145.945Z" fill="#323A50"/>
<g opacity="0.3">
<path d="M165.804 287.343C165.748 287.343 165.693 287.343 165.693 287.343C151.945 287.343 138.419 283.515 126.335 276.359H126.279L125.669 275.749C110.591 267.04 99.2827 253.394 92.9632 236.42C90.4132 229.819 88.9165 222.774 88.2513 214.897C88.085 211.18 88.085 207.686 88.2513 203.969C88.4176 200.308 88.972 196.591 89.9143 192.209C90.8567 187.771 92.3534 183.389 94.3491 178.73L95.1252 179.062C93.1295 183.666 91.6328 188.049 90.7459 192.375C89.8035 196.702 89.3046 200.363 89.0828 203.914C88.9165 207.575 88.9165 211.069 89.0828 214.73C89.748 222.552 91.2448 229.541 93.7393 236.087C100.059 252.95 111.312 266.374 126.168 275.084H126.224L126.834 275.694C151.169 290.061 180.217 290.116 204.663 275.86C205.827 275.028 207.158 274.196 208.544 273.364C221.515 265.043 231.161 253.117 237.314 238.084C237.591 237.363 237.868 236.586 238.145 235.865C238.367 235.089 238.7 234.312 238.977 233.646C243.689 219.335 244.243 204.746 240.585 190.268V190.212C240.474 189.602 238.035 182.169 236.593 178.785L237.369 178.452C238.7 181.614 241.194 189.047 241.416 190.046C245.075 204.746 244.52 219.501 239.753 233.924V233.979C239.476 234.7 239.199 235.477 238.922 236.143C238.7 236.919 238.367 237.696 238.09 238.417C231.826 253.671 222.07 265.653 208.987 274.085C207.546 274.917 206.326 275.749 205.162 276.526C192.911 283.626 179.385 287.343 165.804 287.343Z" fill="#323A50"/>
</g>
<path d="M263.202 181.392C261.317 175.124 256.383 170.908 248.345 168.856C243.744 167.691 239.531 167.58 237.702 167.58C237.647 167.358 237.536 167.081 237.369 166.914C238.977 166.859 243.578 166.914 248.512 168.19C256.605 170.298 261.871 174.791 263.756 181.17C264.144 182.002 275.785 206.521 277.227 220.777C277.615 224.549 280.719 225.381 286.262 226.934C290.863 228.155 297.238 229.93 305.055 234.146L304.777 234.756C297.017 230.595 290.697 228.876 286.096 227.6C280.442 226.047 277.005 225.104 276.617 220.888C275.453 209.128 267.359 190.711 264.366 183.944C264.532 188.881 261.151 195.759 254.055 204.413C247.348 212.678 237.369 222.552 224.398 233.868C219.63 238.029 214.752 242.133 210.04 245.906L209.264 245.684C213.976 241.912 218.965 237.64 223.954 233.369C253.057 207.852 266.639 189.99 263.202 181.392Z" fill="#323A50"/>
<path d="M239.698 173.57C239.642 173.071 239.032 170.797 238.866 170.408C238.922 170.187 239.809 171.573 239.753 171.407C239.753 170.908 239.476 170.464 239.032 170.187C239.088 169.687 239.088 169.465 238.644 169.188C238.7 169.022 238.145 168.966 238.09 168.8C238.922 170.242 239.919 172.017 240.197 173.57C241.527 180.726 230.717 197.59 208.045 223.661C203.056 229.43 197.956 235.088 193.355 239.97L192.634 239.748C213.034 217.726 241.472 184.443 239.698 173.57Z" fill="#323A50"/>
<path d="M237.48 166.803C237.591 166.914 237.647 167.025 237.757 167.136L242.026 166.969C240.03 166.803 238.423 166.803 237.48 166.803Z" fill="#323A50"/>
<path d="M238.589 168.856L249.509 168.356C249.121 168.245 248.678 168.134 248.234 168.023L238.478 168.412C238.478 168.578 238.478 168.689 238.589 168.856Z" fill="#323A50"/>
<path d="M238.977 170.519L253.445 169.909C253.168 169.798 252.891 169.687 252.614 169.576L238.755 170.131C238.755 170.186 238.755 170.242 238.755 170.297C238.922 170.353 238.977 170.464 238.977 170.519Z" fill="#323A50"/>
<path d="M239.698 172.239L256.383 171.573C256.217 171.462 255.995 171.296 255.774 171.185L239.587 171.85C239.642 171.961 239.642 172.128 239.698 172.239Z" fill="#323A50"/>
<path d="M239.864 173.848L258.379 173.071C258.268 172.96 258.102 172.794 257.88 172.683L239.864 173.404C239.864 173.57 239.864 173.737 239.864 173.848Z" fill="#323A50"/>
<path d="M239.919 175.511L259.987 174.679C259.876 174.568 259.765 174.402 259.654 174.291L239.919 175.123C239.919 175.29 239.919 175.4 239.919 175.511Z" fill="#323A50"/>
<path d="M239.698 176.954C239.642 177.065 239.642 177.176 239.587 177.287L261.317 176.399C261.262 176.288 261.151 176.122 261.04 176.011L239.698 176.954C239.698 176.898 239.698 176.898 239.698 176.954Z" fill="#323A50"/>
<path d="M239.088 178.784C239.088 178.84 239.032 178.951 239.032 179.006L262.315 178.063C262.259 177.952 262.204 177.786 262.093 177.675L239.143 178.618C239.143 178.673 239.143 178.729 239.088 178.784Z" fill="#323A50"/>
<path d="M238.423 180.393L262.869 179.395C262.925 179.505 262.98 179.672 263.035 179.783L238.201 180.781C238.367 180.615 238.423 180.504 238.423 180.393Z" fill="#323A50"/>
<path d="M237.757 182.058L263.59 181.004C263.645 181.115 263.645 181.226 263.701 181.392L237.591 182.446C237.591 182.391 237.702 182.28 237.757 182.058Z" fill="#323A50"/>
<path d="M236.981 183.777L263.922 182.668C263.922 182.779 263.978 182.945 263.978 183.056L236.76 184.166C236.815 184.11 236.926 183.999 236.981 183.777Z" fill="#323A50"/>
<path d="M236.039 185.607L264.033 184.498C264.033 184.609 264.033 184.775 264.033 184.886L235.817 185.996C235.928 185.885 235.984 185.718 236.039 185.607Z" fill="#323A50"/>
<path d="M235.152 187.217L263.922 186.052C263.922 186.163 263.867 186.329 263.867 186.44L234.93 187.605C234.986 187.494 235.041 187.328 235.152 187.217Z" fill="#323A50"/>
<path d="M234.099 188.991L263.59 187.826C263.534 187.937 263.534 188.104 263.479 188.214L233.877 189.379C233.877 189.268 234.043 189.102 234.099 188.991Z" fill="#323A50"/>
<path d="M233.046 190.766L263.035 189.546C262.98 189.657 262.925 189.823 262.869 189.934L232.824 191.155C232.824 190.988 232.879 190.877 233.046 190.766Z" fill="#323A50"/>
<path d="M231.826 192.542L262.259 191.321C262.204 191.432 262.149 191.599 262.093 191.71L231.604 192.93C231.66 192.819 231.771 192.653 231.826 192.542Z" fill="#323A50"/>
<path d="M230.773 194.15L261.483 192.93C261.428 193.041 261.372 193.207 261.262 193.318L230.496 194.538C230.606 194.483 230.662 194.316 230.773 194.15Z" fill="#323A50"/>
<path d="M229.553 195.925L260.541 194.705C260.485 194.816 260.375 194.982 260.319 195.093L229.331 196.314C229.387 196.258 229.442 196.092 229.553 195.925Z" fill="#323A50"/>
<path d="M228.278 197.701L259.432 196.48C259.377 196.591 259.266 196.758 259.155 196.869L228.001 198.089C228.112 197.923 228.167 197.812 228.278 197.701Z" fill="#323A50"/>
<path d="M227.003 199.475L258.324 198.255C258.213 198.366 258.157 198.532 258.046 198.643L226.726 199.864C226.837 199.753 226.948 199.642 227.003 199.475Z" fill="#323A50"/>
<path d="M225.839 201.139L257.215 199.919C257.104 200.03 257.049 200.196 256.938 200.307L225.562 201.528C225.673 201.361 225.728 201.25 225.839 201.139Z" fill="#323A50"/>
<path d="M224.453 202.915L255.829 201.694C255.718 201.805 255.663 201.972 255.496 202.083L224.121 203.303C224.287 203.192 224.398 203.026 224.453 202.915Z" fill="#323A50"/>
<path d="M223.178 204.69L254.554 203.47C254.443 203.581 254.332 203.747 254.221 203.858L222.846 205.078C222.957 204.912 223.067 204.801 223.178 204.69Z" fill="#323A50"/>
<path d="M221.848 206.465L253.168 205.244C253.057 205.355 252.946 205.522 252.836 205.632L221.515 206.853C221.571 206.742 221.682 206.575 221.848 206.465Z" fill="#323A50"/>
<path d="M220.407 208.129L251.561 206.908C251.45 207.019 251.339 207.186 251.228 207.297L220.074 208.517C220.24 208.461 220.296 208.295 220.407 208.129Z" fill="#323A50"/>
<path d="M219.021 209.904L250.064 208.684C249.953 208.795 249.842 208.961 249.731 209.072L218.743 210.292C218.743 210.237 218.854 210.07 219.021 209.904Z" fill="#323A50"/>
<path d="M217.579 211.679L248.456 210.459C248.345 210.57 248.179 210.736 248.068 210.847L217.247 212.068C217.358 211.901 217.469 211.79 217.579 211.679Z" fill="#323A50"/>
<path d="M216.249 213.343L246.959 212.123C246.849 212.234 246.682 212.4 246.571 212.511L215.916 213.732C215.972 213.621 216.083 213.51 216.249 213.343Z" fill="#323A50"/>
<path d="M214.863 215.007L245.407 213.787C245.297 213.898 245.13 214.064 245.019 214.175L214.531 215.396C214.641 215.285 214.752 215.174 214.863 215.007Z" fill="#323A50"/>
<path d="M213.422 216.838L243.633 215.617C243.523 215.728 243.356 215.895 243.245 216.005L213.089 217.226C213.145 217.059 213.255 216.949 213.422 216.838Z" fill="#323A50"/>
<path d="M211.925 218.503L241.915 217.282C241.804 217.393 241.638 217.56 241.527 217.671L211.592 218.835C211.703 218.835 211.814 218.724 211.925 218.503Z" fill="#323A50"/>
<path d="M210.373 220.333L240.086 219.168C239.975 219.279 239.809 219.445 239.698 219.556L210.04 220.721C210.151 220.666 210.318 220.499 210.373 220.333Z" fill="#323A50"/>
<path d="M208.987 221.997L238.423 220.832C238.312 220.943 238.145 221.109 237.924 221.22L208.599 222.385C208.765 222.33 208.876 222.108 208.987 221.997Z" fill="#323A50"/>
<path d="M207.546 223.661L236.649 222.496C236.538 222.607 236.372 222.773 236.15 222.884L207.158 224.049C207.324 223.883 207.435 223.772 207.546 223.661Z" fill="#323A50"/>
<path d="M206.049 225.436L234.819 224.271C234.709 224.382 234.542 224.549 234.321 224.66L205.661 225.825C205.772 225.714 205.938 225.603 206.049 225.436Z" fill="#323A50"/>
<path d="M204.497 227.211L232.879 226.102C232.713 226.213 232.602 226.379 232.38 226.49L204.109 227.599C204.275 227.488 204.386 227.322 204.497 227.211Z" fill="#323A50"/>
<path d="M202.889 228.986L230.884 227.877C230.717 227.988 230.606 228.154 230.385 228.265L202.446 229.375C202.668 229.264 202.778 229.153 202.889 228.986Z" fill="#323A50"/>
<path d="M201.337 230.816L228.943 229.707C228.777 229.818 228.666 229.984 228.444 230.095L200.949 231.205C201.06 231.094 201.226 230.983 201.337 230.816Z" fill="#323A50"/>
<path d="M199.896 232.426L227.114 231.316C226.948 231.427 226.781 231.594 226.615 231.705L199.508 232.814C199.619 232.759 199.785 232.537 199.896 232.426Z" fill="#323A50"/>
<path d="M198.288 234.2L225.063 233.146C224.897 233.257 224.73 233.424 224.564 233.535L197.9 234.589C198.011 234.533 198.122 234.367 198.288 234.2Z" fill="#323A50"/>
<path d="M196.736 235.976L223.123 234.922C222.957 235.033 222.79 235.199 222.624 235.31L196.348 236.364C196.404 236.253 196.57 236.142 196.736 235.976Z" fill="#323A50"/>
<path d="M195.073 237.806L221.016 236.752C220.85 236.863 220.684 237.029 220.517 237.14L194.63 238.194C194.851 238.083 194.962 237.917 195.073 237.806Z" fill="#323A50"/>
<path d="M193.576 239.47L219.076 238.416C218.91 238.527 218.744 238.693 218.577 238.804L193.244 239.803C193.299 239.747 193.41 239.581 193.576 239.47Z" fill="#323A50"/>
<path d="M194.02 240.968L217.136 240.025C216.97 240.136 216.803 240.303 216.582 240.414L195.018 241.301C194.74 241.301 194.352 241.19 194.02 240.968Z" fill="#323A50"/>
<path d="M198.621 242.577L215.085 241.911C214.919 242.022 214.752 242.188 214.53 242.299L199.73 242.91C199.397 242.799 198.953 242.688 198.621 242.577Z" fill="#323A50"/>
<path d="M203.277 244.075L212.867 243.687C212.701 243.797 212.535 243.964 212.313 244.075L204.331 244.408C204.053 244.297 203.665 244.186 203.277 244.075Z" fill="#323A50"/>
<path d="M207.934 245.572L210.65 245.461C210.484 245.572 210.318 245.738 210.096 245.849L208.987 245.905C208.599 245.905 208.266 245.738 207.934 245.572Z" fill="#323A50"/>
<path d="M68.9602 181.392C70.845 175.124 75.7786 170.908 83.8166 168.856C88.4176 167.691 92.6306 167.58 94.46 167.58C94.5154 167.358 94.6263 167.081 94.7926 166.914C93.185 166.859 88.5839 166.914 83.6503 168.19C75.5569 170.298 70.2906 174.791 68.4059 181.17C68.0178 182.002 56.3766 206.521 54.9353 220.777C54.5473 224.549 51.443 225.381 45.8996 226.934C41.2985 228.155 34.9236 229.93 27.1074 234.146L27.3845 234.756C35.1453 230.595 41.4648 228.876 46.0659 227.6C51.7202 226.047 55.1571 225.104 55.5451 220.888C56.7092 209.128 64.8026 190.711 67.7961 183.944C67.6298 188.881 71.0113 195.759 78.1068 204.413C84.8144 212.678 94.7926 222.552 107.764 233.868C112.532 238.029 117.41 242.133 122.122 245.906L122.898 245.684C118.186 241.912 113.197 237.64 108.208 233.369C79.1047 207.852 65.5233 189.99 68.9602 181.392Z" fill="#323A50"/>
<path d="M92.4643 173.57C92.5198 173.071 93.1295 170.797 93.2958 170.408C93.2404 170.187 92.3535 171.573 92.4089 171.407C92.4089 170.908 92.6861 170.464 93.1295 170.187C93.0741 169.687 93.0741 169.465 93.5176 169.188C93.4621 169.022 94.0165 168.966 94.0719 168.8C93.2404 170.242 92.2426 172.017 91.9654 173.57C90.635 180.726 101.445 197.59 124.117 223.661C129.106 229.43 134.206 235.088 138.807 239.97L139.528 239.748C119.184 217.726 90.6904 184.443 92.4643 173.57Z" fill="#323A50"/>
<path d="M94.6263 166.803C94.5154 166.914 94.46 167.025 94.3491 167.136L90.0807 166.969C92.1318 166.803 93.6839 166.803 94.6263 166.803Z" fill="#323A50"/>
<path d="M93.5176 168.856L82.597 168.356C82.9851 168.245 83.4286 168.134 83.872 168.023L93.6285 168.412C93.6285 168.578 93.573 168.689 93.5176 168.856Z" fill="#323A50"/>
<path d="M93.1295 170.519L78.6058 169.965C78.8829 169.854 79.1601 169.743 79.4373 169.632L93.2958 170.187C93.2958 170.242 93.2958 170.297 93.2958 170.353C93.2404 170.353 93.185 170.464 93.1295 170.519Z" fill="#323A50"/>
<path d="M92.4643 172.239L75.7786 171.573C75.9449 171.462 76.1667 171.296 76.3884 171.185L92.5752 171.85C92.5198 171.961 92.4643 172.128 92.4643 172.239Z" fill="#323A50"/>
<path d="M92.2426 173.848L73.7276 173.071C73.8385 172.96 74.0048 172.794 74.2265 172.683L92.2426 173.404C92.2426 173.57 92.2426 173.737 92.2426 173.848Z" fill="#323A50"/>
<path d="M92.1872 175.511L72.12 174.679C72.2309 174.568 72.3417 174.402 72.4526 174.291L92.1872 175.123C92.1872 175.29 92.1872 175.4 92.1872 175.511Z" fill="#323A50"/>
<path d="M92.4643 176.954C92.5198 177.065 92.5198 177.176 92.5752 177.287L70.845 176.399C70.9004 176.288 71.0113 176.122 71.1221 176.011L92.4643 176.843C92.4643 176.898 92.4643 176.898 92.4643 176.954Z" fill="#323A50"/>
<path d="M93.0187 178.784C93.0187 178.84 93.0741 178.951 93.0741 179.006L69.7917 178.063C69.8472 177.952 69.9026 177.786 70.0135 177.675L92.9633 178.618C92.9633 178.673 93.0187 178.729 93.0187 178.784Z" fill="#323A50"/>
<path d="M93.6285 180.393L69.182 179.395C69.1266 179.505 69.0711 179.672 69.0157 179.783L93.8502 180.781C93.7948 180.615 93.6839 180.504 93.6285 180.393Z" fill="#323A50"/>
<path d="M94.4045 182.058L68.5722 181.004C68.5167 181.115 68.5167 181.226 68.4613 181.392L94.5708 182.446C94.5154 182.391 94.46 182.28 94.4045 182.058Z" fill="#323A50"/>
<path d="M95.236 183.777L68.295 182.668C68.295 182.779 68.2396 182.945 68.2396 183.056L95.4578 184.166C95.3469 184.11 95.2915 183.999 95.236 183.777Z" fill="#323A50"/>
<path d="M96.123 185.607L68.1287 184.498C68.1287 184.609 68.1287 184.775 68.1287 184.886L96.3447 185.996C96.2893 185.885 96.2339 185.718 96.123 185.607Z" fill="#323A50"/>
<path d="M97.0654 187.217L68.295 186.052C68.295 186.163 68.3505 186.329 68.3505 186.44L97.2872 187.605C97.1763 187.494 97.1209 187.328 97.0654 187.217Z" fill="#323A50"/>
<path d="M98.0632 188.991L68.5722 187.826C68.6276 187.937 68.6276 188.104 68.6831 188.214L98.285 189.379C98.2295 189.268 98.1741 189.102 98.0632 188.991Z" fill="#323A50"/>
<path d="M99.1719 190.766L69.1819 189.546C69.2374 189.657 69.2928 189.823 69.3482 189.934L99.3936 191.155C99.3936 190.988 99.2273 190.877 99.1719 190.766Z" fill="#323A50"/>
<path d="M100.336 192.542L69.9026 191.321C69.958 191.432 70.0135 191.599 70.0689 191.71L100.558 192.93C100.502 192.819 100.391 192.653 100.336 192.542Z" fill="#323A50"/>
<path d="M101.445 194.15L70.7341 192.93C70.7896 193.041 70.845 193.207 70.9559 193.318L101.722 194.538C101.611 194.483 101.5 194.316 101.445 194.15Z" fill="#323A50"/>
<path d="M102.609 195.925L71.6211 194.705C71.6765 194.816 71.7874 194.982 71.8428 195.093L102.831 196.314C102.831 196.258 102.72 196.092 102.609 195.925Z" fill="#323A50"/>
<path d="M103.828 197.701L72.6743 196.48C72.7298 196.591 72.8406 196.758 72.9515 196.869L104.106 198.089C104.106 197.923 103.939 197.812 103.828 197.701Z" fill="#323A50"/>
<path d="M105.159 199.475L73.8384 198.255C73.9493 198.366 74.0047 198.532 74.1156 198.643L105.436 199.864C105.381 199.753 105.27 199.642 105.159 199.475Z" fill="#323A50"/>
<path d="M106.323 201.139L74.9471 199.919C75.058 200.03 75.1134 200.196 75.2243 200.307L106.6 201.528C106.545 201.361 106.434 201.25 106.323 201.139Z" fill="#323A50"/>
<path d="M107.653 202.915L76.2776 201.694C76.3885 201.805 76.4439 201.972 76.6102 202.083L107.986 203.303C107.875 203.192 107.82 203.026 107.653 202.915Z" fill="#323A50"/>
<path d="M109.039 204.69L77.6634 203.47C77.7743 203.581 77.8851 203.747 77.996 203.858L109.372 205.078C109.205 204.912 109.095 204.801 109.039 204.69Z" fill="#323A50"/>
<path d="M110.37 206.465L79.0493 205.244C79.1601 205.355 79.271 205.522 79.3819 205.632L110.702 206.853C110.647 206.742 110.48 206.575 110.37 206.465Z" fill="#323A50"/>
<path d="M111.755 208.129L80.6014 206.908C80.7123 207.019 80.8232 207.186 80.934 207.297L112.088 208.517C111.977 208.461 111.866 208.295 111.755 208.129Z" fill="#323A50"/>
<path d="M113.141 209.904L82.0981 208.684C82.209 208.795 82.3199 208.961 82.4307 209.072L113.418 210.292C113.418 210.237 113.252 210.07 113.141 209.904Z" fill="#323A50"/>
<path d="M114.583 211.679L83.7057 210.459C83.8166 210.57 83.9829 210.736 84.0938 210.847L114.915 212.068C114.804 211.901 114.693 211.79 114.583 211.679Z" fill="#323A50"/>
<path d="M115.913 213.343L85.2025 212.123C85.3133 212.234 85.4796 212.4 85.5905 212.511L116.246 213.732C116.135 213.621 116.024 213.51 115.913 213.343Z" fill="#323A50"/>
<path d="M117.299 215.007L86.7546 213.787C86.8655 213.898 87.0318 214.064 87.1427 214.175L117.632 215.396C117.521 215.285 117.41 215.174 117.299 215.007Z" fill="#323A50"/>
<path d="M118.74 216.838L88.5285 215.617C88.6394 215.728 88.8057 215.895 88.9165 216.005L119.073 217.226C118.962 217.059 118.851 216.949 118.74 216.838Z" fill="#323A50"/>
<path d="M120.237 218.503L90.247 217.282C90.3579 217.393 90.5242 217.56 90.635 217.671L120.57 218.835C120.459 218.835 120.348 218.724 120.237 218.503Z" fill="#323A50"/>
<path d="M121.734 220.333L92.0209 219.168C92.1317 219.279 92.298 219.445 92.4089 219.556L122.066 220.721C122.011 220.666 121.9 220.499 121.734 220.333Z" fill="#323A50"/>
<path d="M123.175 221.997L93.7393 220.832C93.8502 220.943 94.0165 221.109 94.2382 221.22L123.563 222.385C123.397 222.33 123.286 222.108 123.175 221.997Z" fill="#323A50"/>
<path d="M124.561 223.661L95.4578 222.496C95.5687 222.607 95.735 222.773 95.9567 222.884L124.949 224.049C124.838 223.883 124.727 223.772 124.561 223.661Z" fill="#323A50"/>
<path d="M126.113 225.436L97.3426 224.271C97.4535 224.382 97.6198 224.549 97.8415 224.66L126.501 225.825C126.335 225.714 126.224 225.603 126.113 225.436Z" fill="#323A50"/>
<path d="M127.665 227.211L99.2828 226.102C99.4491 226.213 99.5599 226.379 99.7817 226.49L128.053 227.599C127.887 227.488 127.776 227.322 127.665 227.211Z" fill="#323A50"/>
<path d="M129.217 228.986L101.223 227.877C101.389 227.988 101.5 228.154 101.722 228.265L129.661 229.375C129.494 229.264 129.384 229.153 129.217 228.986Z" fill="#323A50"/>
<path d="M130.825 230.816L103.219 229.707C103.385 229.818 103.496 229.984 103.717 230.095L131.213 231.205C131.047 231.094 130.936 230.983 130.825 230.816Z" fill="#323A50"/>
<path d="M132.211 232.426L104.992 231.316C105.159 231.427 105.325 231.594 105.491 231.705L132.599 232.814C132.488 232.759 132.377 232.537 132.211 232.426Z" fill="#323A50"/>
<path d="M133.818 234.2L107.044 233.146C107.21 233.257 107.376 233.424 107.542 233.535L134.206 234.589C134.095 234.533 133.985 234.367 133.818 234.2Z" fill="#323A50"/>
<path d="M135.37 235.976L108.984 234.922C109.15 235.033 109.316 235.199 109.483 235.31L135.758 236.364C135.648 236.253 135.537 236.142 135.37 235.976Z" fill="#323A50"/>
<path d="M137.033 237.806L111.09 236.752C111.257 236.863 111.423 237.029 111.589 237.14L137.477 238.194C137.311 238.083 137.144 237.917 137.033 237.806Z" fill="#323A50"/>
<path d="M138.53 239.47L113.03 238.416C113.197 238.527 113.363 238.693 113.529 238.804L138.918 239.803C138.807 239.747 138.697 239.581 138.53 239.47Z" fill="#323A50"/>
<path d="M138.087 240.968L114.971 240.025C115.137 240.136 115.303 240.303 115.525 240.414L137.089 241.301C137.366 241.301 137.754 241.19 138.087 240.968Z" fill="#323A50"/>
<path d="M133.541 242.577L117.077 241.911C117.243 242.022 117.41 242.188 117.631 242.299L132.432 242.91C132.765 242.799 133.153 242.688 133.541 242.577Z" fill="#323A50"/>
<path d="M128.885 244.075L119.294 243.687C119.461 243.797 119.627 243.964 119.849 244.075L127.831 244.408C128.109 244.297 128.552 244.186 128.885 244.075Z" fill="#323A50"/>
<path d="M124.228 245.572L121.512 245.461C121.678 245.572 121.845 245.738 122.066 245.849L123.175 245.905C123.508 245.905 123.896 245.738 124.228 245.572Z" fill="#323A50"/>
<path d="M111.589 257.055L111.312 256.722C111.035 256.445 104.937 249.123 99.8925 236.863C96.9545 229.652 95.0143 222.163 94.1828 214.675C93.1295 205.3 93.6839 195.814 95.9567 186.606C96.1784 185.663 101.334 167.025 101.999 165.25L102.165 164.861L105.159 165.915L104.992 166.304C104.438 167.801 99.3936 185.941 99.061 187.327C94.1828 207.463 98.3958 224.66 102.831 235.587C107.598 247.403 113.696 254.614 113.751 254.67L114.028 255.003L111.589 257.055ZM102.664 165.86C101.666 169.077 97.0099 185.83 96.7882 186.717C94.5708 195.925 93.961 205.245 95.0143 214.508C95.8458 221.942 97.786 229.319 100.669 236.475C105.103 247.347 110.37 254.226 111.645 255.779L112.753 254.836C111.534 253.283 106.267 246.404 101.999 235.809C97.5088 224.771 93.2404 207.408 98.174 187.05C98.5067 185.719 103.052 169.41 103.995 166.304L102.664 165.86Z" fill="#323A50"/>
<path d="M104.494 166.803C104.327 166.803 104.161 166.803 103.995 166.747L102.609 166.415C102.11 166.304 101.611 165.971 101.278 165.527C100.89 164.972 100.724 164.307 100.89 163.641L110.48 123.258L116.301 124.645L106.711 165.083C106.545 165.693 106.157 166.248 105.602 166.581C105.27 166.692 104.882 166.803 104.494 166.803ZM111.146 124.256L101.722 163.807C101.611 164.196 101.722 164.64 101.944 164.972C102.165 165.25 102.442 165.416 102.775 165.527L104.161 165.86C104.494 165.915 104.882 165.915 105.159 165.749C105.491 165.583 105.769 165.194 105.879 164.806L115.303 125.199L111.146 124.256Z" fill="#323A50"/>
<path d="M114.638 125.088L111.09 124.256L117.243 98.5171L108.318 96.4092L112.864 77.2715L134.927 82.5413L130.381 101.679L120.736 99.4046L114.638 125.088ZM112.143 123.646L114.028 124.089L120.181 98.3507L129.827 100.625L133.985 83.1515L113.529 78.27L109.372 95.7435L118.297 97.8514L112.143 123.646Z" fill="#323A50"/>
<path d="M119.239 126.197L107.21 123.313L111.201 106.505L123.23 109.389L119.239 126.197ZM108.208 122.703L118.574 125.199L122.177 110L111.811 107.503L108.208 122.703Z" fill="#323A50"/>
<path d="M120.791 126.42C120.403 126.42 120.071 126.364 119.683 126.309L106.711 123.202C105.491 122.925 104.438 122.148 103.828 121.094C103.163 120.04 102.997 118.764 103.274 117.544L110.702 86.3691L132.765 91.6389L125.337 122.814C124.838 124.922 122.953 126.42 120.791 126.42ZM111.367 87.3676L104.105 117.766C103.884 118.764 104.05 119.818 104.549 120.651C105.103 121.538 105.935 122.148 106.933 122.37L119.904 125.477C120.181 125.532 120.514 125.587 120.791 125.587C122.565 125.587 124.117 124.367 124.505 122.647L131.767 92.3046L111.367 87.3676Z" fill="#323A50"/>
<path d="M111.312 107.282C111.146 107.06 106.988 102.234 108.429 96.1318L109.261 96.2983C107.93 102.012 111.922 106.671 111.977 106.671L111.312 107.282Z" fill="#323A50"/>
<path d="M122.787 110L122.454 109.223C122.51 109.223 128.275 106.672 129.661 100.958L130.492 101.18C128.995 107.282 123.009 109.889 122.787 110Z" fill="#323A50"/>
<path d="M136.756 83.7615L110.647 77.5487L116.744 51.9209L142.854 58.1337L136.756 83.7615ZM111.7 76.9386L136.202 82.7631L141.912 58.7439L117.41 52.9194L111.7 76.9386Z" fill="#323A50"/>
<path d="M147.067 59.9093L112.199 51.5885L113.474 46.1523L148.342 54.4731L147.067 59.9093ZM113.197 50.9784L146.457 58.9108L147.344 55.0832L114.084 47.1508L113.197 50.9784Z" fill="#323A50"/>
<path d="M109.815 126.919C109.76 126.863 107.875 125.476 107.321 123.091L108.152 122.925C108.651 124.977 110.314 126.253 110.314 126.309L109.815 126.919Z" fill="#323A50"/>
<path d="M115.359 127.972L115.192 127.14C115.192 127.14 117.243 126.752 118.629 125.088L119.294 125.643C117.742 127.529 115.469 127.972 115.359 127.972Z" fill="#323A50"/>
<path d="M136.127 13.772L157.43 18.8379L157.622 18.0284L136.319 12.9625L136.127 13.772Z" fill="#323A50"/>
<path d="M82.9296 131.967L77.6634 131.8C78.1623 115.104 84.0938 99.7379 84.3155 99.0723L89.2491 100.958C89.1937 101.069 83.3731 116.213 82.9296 131.967Z" fill="#E95A24"/>
<path d="M74.1156 129.415L80.1025 138.568H80.1579L86.6437 129.526L74.1156 129.415Z" fill="#FF5B00"/>
<path d="M152.056 39.0519L146.457 53.8628L115.525 46.6515L117.299 30.8421L124.284 1.10938H123.452L116.467 30.6757L114.583 47.2617L147.012 54.8613L152.888 39.3292L161.868 1.10938H160.981L152.056 39.0519Z" fill="#323A50"/>
<path d="M138.087 287.176L137.865 287.065C136.978 286.732 136.146 286.399 135.26 286.066C134.872 286.233 134.539 286.344 134.151 286.51C135.204 286.954 136.257 287.398 137.311 287.786C137.366 289.838 135.093 294.276 132.488 299.435C129.162 305.981 125.004 314.19 124.284 320.403L125.115 320.514C125.891 314.412 129.993 306.313 133.264 299.823C136.146 294.11 138.419 289.617 138.142 287.453L138.087 287.176Z" fill="#323A50"/>
<path d="M157.821 292.39C157.71 292.113 157.433 292.002 157.267 291.724C155.992 291.558 154.662 291.392 153.387 291.17L153.109 291.114L152.943 291.336C151.613 293.222 151.613 297.882 151.613 303.817C151.613 310.696 151.613 319.238 149.284 324.952L150.061 325.285C152.444 319.405 152.444 310.751 152.444 303.817C152.444 298.492 152.444 293.832 153.497 292.002C154.883 292.224 156.435 292.224 157.821 292.39Z" fill="#323A50"/>
<path opacity="0.2" d="M137.643 287.842C138.696 291.947 126.002 309.808 124.561 321.18C128.995 326.339 142.411 327.837 149.562 325.84C153.885 315.134 150.116 295.386 153.22 291.947C147.178 290.782 142.577 289.783 137.643 287.842Z" fill="url(#paint13_linear_3562_7731)"/>
</g>
<defs>
<linearGradient id="paint0_linear_3562_7731" x1="270.268" y1="218.032" x2="68.609" y2="70.6357" gradientUnits="userSpaceOnUse">
<stop offset="0.2655" stop-color="#032A3D" stop-opacity="0"/>
<stop offset="0.7809" stop-color="#032A3D"/>
</linearGradient>
<radialGradient id="paint1_radial_3562_7731" cx="0" cy="0" r="1" gradientUnits="userSpaceOnUse" gradientTransform="translate(165.242 210.263) scale(68.1882 67.9198)">
<stop offset="0.2655" stop-color="#032A3D" stop-opacity="0"/>
<stop offset="1" stop-color="#032A3D"/>
</radialGradient>
<linearGradient id="paint2_linear_3562_7731" x1="138.541" y1="102.486" x2="188.691" y2="299.219" gradientUnits="userSpaceOnUse">
<stop offset="0.4054" stop-color="#032A3D" stop-opacity="0"/>
<stop offset="1" stop-color="#032A3D"/>
</linearGradient>
<linearGradient id="paint3_linear_3562_7731" x1="102.362" y1="169.777" x2="234.188" y2="293.357" gradientUnits="userSpaceOnUse">
<stop offset="0.2655" stop-color="#032A3D" stop-opacity="0"/>
<stop offset="0.7809" stop-color="#032A3D"/>
</linearGradient>
<linearGradient id="paint4_linear_3562_7731" x1="109.511" y1="162.152" x2="241.336" y2="285.732" gradientUnits="userSpaceOnUse">
<stop offset="0.2655" stop-color="#032A3D" stop-opacity="0"/>
<stop offset="0.7809" stop-color="#032A3D"/>
</linearGradient>
<linearGradient id="paint5_linear_3562_7731" x1="106.966" y1="164.866" x2="238.791" y2="288.446" gradientUnits="userSpaceOnUse">
<stop offset="0.2655" stop-color="#032A3D" stop-opacity="0"/>
<stop offset="0.7809" stop-color="#032A3D"/>
</linearGradient>
<linearGradient id="paint6_linear_3562_7731" x1="81.9222" y1="191.582" x2="213.747" y2="315.161" gradientUnits="userSpaceOnUse">
<stop offset="0.2655" stop-color="#032A3D" stop-opacity="0"/>
<stop offset="0.7809" stop-color="#032A3D"/>
</linearGradient>
<linearGradient id="paint7_linear_3562_7731" x1="100.779" y1="171.466" x2="232.604" y2="295.046" gradientUnits="userSpaceOnUse">
<stop offset="0.2655" stop-color="#032A3D" stop-opacity="0"/>
<stop offset="0.7809" stop-color="#032A3D"/>
</linearGradient>
<linearGradient id="paint8_linear_3562_7731" x1="90.381" y1="182.557" x2="222.206" y2="306.137" gradientUnits="userSpaceOnUse">
<stop offset="0.2655" stop-color="#032A3D" stop-opacity="0"/>
<stop offset="0.7809" stop-color="#032A3D"/>
</linearGradient>
<linearGradient id="paint9_linear_3562_7731" x1="71.7806" y1="202.398" x2="203.606" y2="325.978" gradientUnits="userSpaceOnUse">
<stop offset="0.2655" stop-color="#032A3D" stop-opacity="0"/>
<stop offset="0.7809" stop-color="#032A3D"/>
</linearGradient>
<linearGradient id="paint10_linear_3562_7731" x1="74.8817" y1="199.09" x2="206.707" y2="322.67" gradientUnits="userSpaceOnUse">
<stop offset="0.2655" stop-color="#032A3D" stop-opacity="0"/>
<stop offset="0.7809" stop-color="#032A3D"/>
</linearGradient>
<linearGradient id="paint11_linear_3562_7731" x1="85.2731" y1="188.006" x2="217.098" y2="311.586" gradientUnits="userSpaceOnUse">
<stop offset="0.2655" stop-color="#032A3D" stop-opacity="0"/>
<stop offset="0.7809" stop-color="#032A3D"/>
</linearGradient>
<linearGradient id="paint12_linear_3562_7731" x1="71.755" y1="202.426" x2="203.58" y2="326.006" gradientUnits="userSpaceOnUse">
<stop offset="0.2655" stop-color="#032A3D" stop-opacity="0"/>
<stop offset="0.7809" stop-color="#032A3D"/>
</linearGradient>
<linearGradient id="paint13_linear_3562_7731" x1="139.402" y1="355.832" x2="138.178" y2="240.825" gradientUnits="userSpaceOnUse">
<stop offset="0.2655" stop-color="#032A3D" stop-opacity="0"/>
<stop offset="0.7809" stop-color="#032A3D"/>
</linearGradient>
<clipPath id="clip0_3562_7731">
<rect width="330" height="330" fill="white"/>
</clipPath>
</defs>
</svg>
