<svg width="330" height="330" viewBox="0 0 330 330" fill="none" xmlns="http://www.w3.org/2000/svg">
<g clip-path="url(#clip0_3632_75961)">
<path d="M301.174 163.889C301.174 168.333 300.842 172.833 300.121 177.167C299.511 181.5 298.014 188.222 296.019 192.778C290.198 208.445 279.887 221.833 266.251 231.5C252.281 241.445 235.762 246.611 218.633 246.611C206.659 246.611 195.184 244.111 184.374 239.167C174.008 234.389 164.806 227.667 157.156 219.111C155.936 217.945 154.939 216.945 154.107 216.111C150.005 212.111 149.562 211.667 146.79 209.278C146.513 209 146.069 208.667 145.681 208.333C142.3 205.389 136.036 199.945 130.658 192.445C124.173 183.333 120.791 173.778 120.68 164.056V163.833C120.736 154.111 124.117 144.5 130.658 135.445C136.036 128 142.244 122.5 145.681 119.556C146.069 119.222 146.457 118.889 146.79 118.611C148.841 116.778 149.506 116.111 151.502 114.167C152.555 113.111 154.107 111.611 156.38 109.389C164.03 100.611 173.287 93.6112 183.82 88.7223C194.74 83.6668 206.437 81.0557 218.522 81.0557C229.664 81.0557 240.474 83.2223 250.674 87.5557C260.541 91.7223 269.355 97.7223 276.949 105.333C284.544 112.945 290.475 121.833 294.688 131.667C299.012 141.833 301.174 152.667 301.174 163.889ZM121.512 163.833V164.056C121.678 186.445 139.473 201.889 146.18 207.778C146.568 208.111 146.956 208.445 147.289 208.722C150.06 211.167 150.504 211.611 154.606 215.556C155.438 216.389 156.491 217.389 157.71 218.556C173.232 235.945 195.35 245.833 218.522 245.833C252.503 245.833 283.324 224.389 295.187 192.445C297.127 187.945 298.68 181.278 299.234 177.056C299.955 172.722 300.287 168.333 300.287 163.889C300.287 118.667 263.59 81.8335 218.411 81.8335C194.851 81.8335 172.345 92.0557 156.823 109.889C154.551 112.111 153.054 113.611 151.945 114.667C150.005 116.556 149.284 117.278 147.178 119.111C146.901 119.389 146.457 119.722 146.069 120.056C139.473 125.889 121.678 141.389 121.512 163.833Z" fill="#323A50"/>
<path opacity="0.2" d="M156.325 122.111C154.717 119.167 153.608 117.556 150.171 120.611C144.406 125.667 125.115 141 124.949 164.056V164.278C125.115 187.389 144.462 202.667 150.171 207.723C153.608 210.723 155.604 208.389 156.602 207C152.832 201.056 149.839 195.667 147.51 188.611C147.455 188.445 143.242 179.556 143.131 164.778C143.131 164.723 143.076 154.723 146.014 145.278C149.063 133.889 152.777 128.334 156.325 122.111Z" fill="url(#paint0_linear_3632_75961)"/>
<path opacity="0.2" d="M219.409 232.333C256.545 232.333 286.65 202.038 286.65 164.667C286.65 127.295 256.545 97 219.409 97C182.272 97 152.167 127.295 152.167 164.667C152.167 202.038 182.272 232.333 219.409 232.333Z" fill="url(#paint1_radial_3632_75961)"/>
<path opacity="0.34" d="M187.977 93.6667C187.811 93.7223 187.7 93.7778 187.479 93.889C187.977 94.1112 188.365 94.5556 188.698 95.0556C189.53 96.389 189.086 98.6112 187.589 99.389C186.758 99.7778 185.982 100.222 185.206 100.722C184.818 100.945 184.43 101.278 184.042 101.556C183.875 101.667 183.875 101.667 184.042 101.556C183.986 101.611 183.875 101.667 183.82 101.722C183.654 101.833 183.487 102 183.266 102.111C181.824 103.333 180.494 104.833 179.607 106C179.053 106.778 178.609 107.556 178.166 108.278C178.055 108.5 177.944 108.778 177.833 109C177.833 109.056 177.833 109.056 177.778 109.056C177.611 109.445 177.5 109.889 177.39 110.333C177.279 110.833 177.168 111.278 177.112 111.778C177.112 111.778 177.001 112.5 177.001 112.445C177.001 112.611 176.946 112.722 176.946 112.945C176.835 114.056 176.835 115.111 176.835 116.278C176.946 120.333 177.611 123.778 178.055 127.722C178.609 131.833 178.886 136 179.163 140.111C179.773 148.278 180.716 156.333 180.826 164.5C180.882 168.5 180.161 172.556 179.496 176.5C178.775 180.389 178.276 184.056 177.833 187.833C176.946 195.722 176.503 203.722 177.168 211.667C177.279 213.278 175.893 214.5 174.396 214.722C174.396 214.778 174.396 214.833 174.451 214.889C174.562 215.389 174.673 215.778 174.84 216.222C174.895 216.445 175.006 216.722 175.061 217C175.117 217.111 175.117 217.167 175.172 217.222C176.004 219.111 177.057 220.889 178.276 222.556C178.332 222.611 178.609 222.945 178.609 223.056C178.775 223.278 178.942 223.556 179.219 223.722C179.551 224.111 179.939 224.5 180.272 224.889C181.048 225.667 181.824 226.389 182.656 227.056C182.711 227.111 182.767 227.111 182.767 227.167L182.822 227.222C183.044 227.389 183.21 227.5 183.487 227.722C183.875 227.945 184.263 228.278 184.651 228.5C185.039 228.722 185.427 229 185.816 229.167C185.926 229.222 186.702 229.445 185.926 229.222C186.148 229.278 186.314 229.389 186.592 229.445C188.255 230.056 189.197 231.556 188.754 233.278C188.643 233.889 188.255 234.389 187.811 234.778C187.922 234.833 188.033 234.722 188.144 234.778C197.346 238.722 207.49 241.056 218.078 241.056C260.375 241.056 294.688 206.667 294.688 164.278C294.688 121.889 260.541 87.5001 218.189 87.5001C207.601 87.389 197.29 89.6112 187.977 93.6667Z" fill="url(#paint2_linear_3632_75961)"/>
<g opacity="0.2">
<path d="M246.904 104.167L246.849 104.667C249.232 104.945 252.392 111.834 252.614 113.278C252.725 113.889 252.558 114.223 252.447 114.556C252.281 115.111 252.059 115.556 252.558 116.5C253.501 118.056 259.266 123.334 262.093 124.5C264.92 125.667 266.472 126.389 267.526 129.111C268.135 130.556 268.135 132.778 268.135 135.111C268.135 137.223 268.135 139.5 268.634 141.167C269.355 143.778 270.519 146.223 271.129 147.445C270.408 146.778 269.687 146.223 269.022 145.611C267.803 144.556 266.639 143.611 266.251 143C265.641 142.223 265.419 139.445 265.086 136.5C264.698 132.556 264.199 128.056 262.869 126.723C261.372 125.167 255.773 122.945 251.339 121.111C248.955 120.167 246.904 119.334 246.072 118.889C245.186 118.334 244.188 116.889 243.19 115.278C241.416 112.611 239.42 109.556 236.926 109.611V110.111C239.088 110.056 241.028 113 242.746 115.556C243.855 117.278 244.853 118.723 245.795 119.278C246.682 119.834 248.733 120.611 251.172 121.556C255.607 123.334 261.151 125.556 262.536 127.056C263.035 127.611 263.423 128.611 263.701 129.889C263.202 129.056 262.536 128 261.594 127.278C259.986 126 256.106 124.889 254 124.334C253.667 124.223 253.334 124.167 253.113 124.111C252.447 123.945 252.059 124.167 251.616 124.389C251.117 124.667 250.674 125 249.509 124.778C248.234 124.556 247.68 123.834 247.126 123.056C246.738 122.5 246.35 122 245.684 121.556C244.077 120.611 242.525 121.223 241.638 121.5H241.582C240.973 121.723 241.028 122.278 241.028 122.667C241.083 123.056 241.083 123.334 240.862 123.445C240.64 123.556 240.141 123.278 239.698 122.889C238.977 122.389 238.201 121.834 237.48 122.167L237.646 122.556C238.201 122.334 238.811 122.778 239.42 123.223C240.086 123.723 240.64 124.056 241.139 123.778C241.693 123.5 241.638 122.945 241.527 122.556C241.416 122.167 241.471 121.945 241.693 121.834H241.749C242.58 121.556 243.966 121 245.407 121.834C245.962 122.167 246.294 122.667 246.682 123.167C247.292 124 247.846 124.834 249.343 125.111C250.674 125.334 251.283 125 251.782 124.611C252.115 124.389 252.392 124.278 252.835 124.389C253.002 124.445 253.39 124.5 253.722 124.611C255.607 125.167 259.543 126.223 261.151 127.5C262.869 128.945 263.811 131.334 263.922 131.556C264.144 133.111 264.31 134.778 264.532 136.445C264.865 139.556 265.197 142.223 265.752 143.111C266.251 143.778 267.359 144.723 268.579 145.778C271.073 147.889 274.455 150.778 274.344 152.778C274.289 153.778 274.067 154.945 273.79 156.167C273.291 158.556 272.736 161.223 273.235 164.223C274.344 170.223 275.508 172.278 276.949 173.5C278.28 174.667 280.054 175.278 280.109 175.278L280.275 174.889C280.275 174.889 278.557 174.278 277.282 173.167C275.952 172.056 274.843 170.111 273.734 164.167C273.18 161.334 273.734 158.667 274.289 156.334C274.51 155.111 274.787 153.945 274.898 152.889C275.009 151.389 273.568 149.667 271.739 147.945L271.905 147.889C271.905 147.834 270.02 144.5 269.078 141.056C268.579 139.389 268.579 137.223 268.579 135.111C268.579 132.723 268.579 130.445 267.969 128.889C266.86 126.056 265.142 125.223 262.259 124.056C259.543 122.945 253.833 117.723 252.946 116.278C252.447 115.556 252.669 115.223 252.835 114.723C253.002 114.334 253.168 113.889 253.057 113.167C252.78 111.5 249.565 104.445 246.904 104.167Z" fill="url(#paint3_linear_3632_75961)"/>
<path d="M257.825 159.612C258.656 160.389 259.987 160.278 261.594 160.167C263.146 160.056 264.809 159.889 266.251 160.556C269.022 161.889 271.129 167.945 271.184 168L271.683 167.889C271.628 167.667 269.466 161.612 266.472 160.223C264.92 159.5 263.146 159.612 261.594 159.723C260.097 159.834 258.822 159.945 258.157 159.334C257.437 158.612 256.882 156.112 256.383 153.889C255.774 151.278 255.275 149.112 254.554 148.5C253.833 147.945 253.224 147.834 252.614 147.778C251.949 147.667 251.505 147.612 251.062 147C250.895 146.723 250.951 145.167 251.062 143.556C251.283 139.056 251.727 132.223 248.345 129.778C245.629 127.834 243.689 128.5 241.97 129.056C240.529 129.556 239.365 129.945 237.924 129.056C236.76 128.389 236.372 127.167 235.928 125.834C235.097 123.167 234.043 119.945 227.28 117.834C225.673 117.334 224.065 117.612 222.513 117.834C220.462 118.112 218.466 118.5 216.637 117.223L216.415 117.612C218.411 118.945 220.573 118.612 222.679 118.334C224.287 118.112 225.784 117.834 227.225 118.334C233.766 120.334 234.764 123.445 235.595 126C236.094 127.5 236.482 128.723 237.757 129.5C239.42 130.445 240.806 130 242.192 129.5C243.911 128.889 245.685 128.334 248.124 130.167C251.283 132.445 250.895 139.445 250.674 143.556C250.618 145.167 250.563 146.167 250.618 146.723C249.953 146.5 249.066 146.334 248.013 146.112C246.239 145.834 244.243 145.445 243.135 144.445C242.58 143.889 242.358 143.223 242.081 142.223C241.416 139.945 240.474 136.723 233.988 134.223H233.932C231.715 133.723 230.107 134.278 229.221 134.834C228.832 135.056 228.555 135.556 228.389 136C228.167 136.556 227.835 137.112 227.169 137.612C225.95 138.445 219.076 138.778 217.801 138.5C217.69 138.5 217.635 138.445 217.635 138.445C217.579 138.389 217.69 138.112 217.746 137.834C217.967 137.112 218.466 135.889 217.413 134.389L217.025 134.612C217.967 135.889 217.635 136.834 217.302 137.556C217.191 137.945 217.08 138.278 217.191 138.5C217.247 138.612 217.413 138.723 217.69 138.778C218.965 139 226.005 138.778 227.447 137.834C228.223 137.278 228.555 136.612 228.777 136.056C228.943 135.667 229.11 135.278 229.442 135.112C230.274 134.612 231.715 134.167 233.822 134.556C240.086 137 240.973 140.056 241.582 142.223C241.86 143.223 242.137 144.056 242.746 144.667C243.966 145.778 246.073 146.167 247.846 146.5C249.066 146.667 250.23 146.889 250.674 147.278C251.173 147.945 251.782 148.056 252.447 148.167C253.057 148.278 253.556 148.334 254.166 148.834C254.831 149.334 255.33 151.723 255.829 153.889C256.439 156.5 256.993 158.834 257.825 159.612Z" fill="url(#paint4_linear_3632_75961)"/>
<path d="M211.426 158.945C212.091 158.334 212.535 157.889 213.976 158.167C214.918 158.334 216.249 158.889 217.69 159.445C220.24 160.445 222.901 161.445 224.065 161.001C224.675 160.778 225.063 160.389 225.506 160.056C226.338 159.334 227.225 158.556 229.886 158.945C231.992 159.223 233.655 160.389 234.93 161.334C236.094 162.112 237.092 162.834 238.035 162.667C238.811 162.612 239.31 162.167 239.808 161.778C240.695 161.056 241.638 160.278 243.966 161.278C245.795 162.056 246.183 163.112 246.627 163.945C247.015 164.834 247.403 165.667 249.121 165.389C250.951 165.112 252.115 163.889 253.279 162.778C254.11 161.945 254.997 161.112 256.106 160.612L255.94 160.223C254.776 160.834 253.889 161.667 253.002 162.501C251.893 163.612 250.784 164.667 249.121 164.945C247.791 165.167 247.514 164.723 247.126 163.778C246.738 162.889 246.239 161.723 244.243 160.889C241.638 159.778 240.529 160.667 239.587 161.501C239.032 161.889 238.644 162.278 238.035 162.334C237.258 162.389 236.372 161.778 235.207 161.056C233.877 160.112 232.159 159.001 229.941 158.612C227.114 158.112 226.116 159.001 225.174 159.778C224.786 160.112 224.398 160.445 223.899 160.612C222.901 161.001 220.24 159.945 217.912 159.056C216.471 158.445 215.085 157.945 214.142 157.778C212.479 157.445 211.87 158.001 211.204 158.667C210.705 159.056 210.317 159.556 209.375 159.723L209.486 160.223C210.428 159.889 210.983 159.389 211.426 158.945Z" fill="url(#paint5_linear_3632_75961)"/>
<path d="M274.898 156.611C274.122 158.223 273.79 162.167 274.233 164.667C274.621 167.056 275.564 171.167 277.282 172.778C278.28 173.667 280.22 174.556 280.275 174.556L280.442 174.167C280.442 174.167 278.502 173.334 277.559 172.445C275.841 170.889 274.898 166.445 274.621 164.611C274.122 162 274.621 158.223 275.286 156.889C276.007 155.389 277.06 154.889 277.559 154.834C279.222 154.667 280.608 157.389 280.663 157.389L281.052 157.223C280.996 157.111 279.444 154.223 277.448 154.445C276.783 154.445 275.619 155.056 274.898 156.611Z" fill="url(#paint6_linear_3632_75961)"/>
<path d="M246.516 155.444C246.793 154.611 247.181 153.778 247.957 153.278C248.844 152.611 251.062 151.333 253.057 153.111C253.889 153.833 254.554 155.611 255.108 157.278C255.718 158.944 256.272 160.5 257.049 161.055C257.88 161.611 259.266 161.555 260.873 161.333C262.37 161.222 263.811 161.167 265.031 161.444C267.47 162.167 270.353 168.222 270.408 168.278L270.796 168.111C270.685 167.889 267.803 161.778 265.197 161C263.922 160.667 262.315 160.778 260.873 160.889C259.377 161 257.991 161.055 257.326 160.667C256.66 160.278 256.106 158.667 255.552 157.111C254.887 155.333 254.277 153.555 253.334 152.722C251.727 151.389 249.676 151.444 247.625 152.889C246.793 153.5 246.405 154.444 246.073 155.278C245.74 156.111 245.407 156.889 244.631 157.222C243.079 157.944 241.416 157.389 240.806 156.444C240.64 156.222 240.529 155.889 240.307 155.667C239.753 154.833 239.31 153.944 238.145 152.889C236.593 151.444 230.44 148.889 227.447 148.389C225.673 148.111 224.897 148.555 224.065 149.111C223.4 149.5 222.79 149.944 221.46 150.055L221.515 150.556C222.846 150.444 223.622 149.944 224.287 149.555C225.063 149.055 225.784 148.667 227.28 148.889C230.218 149.389 236.316 151.889 237.702 153.278C238.811 154.278 239.31 155.167 239.753 155.944C239.919 156.167 240.03 156.5 240.252 156.722C240.973 157.833 242.968 158.5 244.687 157.667C245.795 157.222 246.128 156.333 246.516 155.444Z" fill="url(#paint7_linear_3632_75961)"/>
</g>
<g opacity="0.2">
<path d="M273.069 175.444C271.849 175.611 270.907 177.055 269.909 178.444C269.133 179.555 268.191 181.222 267.359 182.778C266.639 184.055 266.029 185.222 265.641 185.667C265.585 185.778 265.419 185.889 265.253 186C264.144 186.722 261.428 187.222 259.266 187.111C258.046 187.055 257.104 187.167 256.328 187.222C255.496 187.333 254.887 187.389 254.388 187.167C254 187 253.889 186.667 253.833 186.222C253.778 185.722 253.667 185.111 252.891 184.889C252.226 184.667 251.56 184.778 250.84 184.833C250.119 184.944 249.565 185 249.121 184.722C248.733 184.444 248.567 184.111 248.456 183.778C248.29 183.389 248.124 182.889 247.514 182.5C246.959 182.167 246.294 182.611 245.463 183.222C244.243 184.111 242.525 185.278 240.363 184.778C238.09 184.222 238.201 183.555 238.312 182.555C238.367 182.055 238.478 181.555 238.256 180.944C237.924 180 235.873 179.111 233.711 178.222C232.048 177.5 230.329 176.778 229.886 176.222C229.331 175.5 229.22 174.944 229.11 174.333C228.999 173.722 228.943 173.222 228.334 172.778C227.668 172.222 226.781 172.555 226.061 172.778C225.562 172.889 225.118 173.055 224.897 172.944L224.675 173.333C225.063 173.5 225.562 173.389 226.227 173.222C226.892 173.055 227.668 172.833 228.112 173.167C228.5 173.444 228.611 173.889 228.722 174.444C228.832 175 228.943 175.722 229.553 176.5C230.107 177.222 231.77 177.944 233.544 178.667C235.429 179.444 237.536 180.333 237.868 181.111C238.035 181.611 237.979 182.055 237.924 182.555C237.813 183.555 237.646 184.667 240.363 185.333C242.746 185.889 244.52 184.611 245.851 183.722C246.571 183.222 247.126 182.833 247.458 183C247.957 183.278 248.068 183.667 248.234 184.055C248.345 184.444 248.512 184.889 249.066 185.222C249.676 185.611 250.396 185.5 251.117 185.389C251.782 185.278 252.392 185.222 252.946 185.389C253.501 185.555 253.556 186 253.612 186.389C253.667 186.889 253.722 187.389 254.443 187.667C255.108 187.889 255.718 187.833 256.605 187.722C257.381 187.611 258.268 187.555 259.432 187.611C260.763 187.722 262.426 187.555 263.811 187.222C262.204 188.222 259.654 189.5 257.215 189.722C255.164 189.889 254.388 189.5 253.334 188.944C252.337 188.389 250.951 187.778 248.068 187.222C243.966 186.5 240.086 188.333 238.035 189.5C237.646 189.389 234.93 188.555 234.099 186.444L233.711 185.333C232.99 183.278 232.38 181.5 231.826 180.5C231.161 179.278 229.054 178.278 227.779 178.055C227.003 177.944 226.56 178.278 226.116 178.667C225.728 178.944 225.34 179.278 224.786 179.278C224.231 179.222 223.788 178.444 223.178 177.555C222.347 176.333 221.293 174.722 219.575 174.055C217.524 173.278 216.581 174.055 215.75 174.722C215.362 175 214.974 175.389 214.475 175.5L214.586 175.889C215.196 175.778 215.584 175.333 216.083 175.055C216.914 174.389 217.635 173.833 219.519 174.444C221.127 175.055 222.125 176.5 222.956 177.778C223.677 178.778 224.176 179.611 224.897 179.667C225.728 179.722 226.172 179.389 226.615 179C227.003 178.722 227.336 178.389 227.89 178.5C229.22 178.722 231.105 179.722 231.604 180.667C232.103 181.611 232.713 183.444 233.433 185.444L233.822 186.555C234.542 188.555 236.704 189.5 237.646 189.778C237.037 190.167 236.704 190.444 236.704 190.5C236.649 190.555 232.879 194.667 229.941 196.555C227.003 198.444 224.564 198.389 223.733 197.389C223.234 196.833 223.178 195.778 223.123 194.555C223.067 193.389 223.012 192.111 222.568 190.944C221.903 189.167 219.464 187.944 218.633 187.555C217.524 187 216.027 186.555 215.306 186.833C214.032 187.333 213.588 189.278 213.588 189.389L214.087 189.444C214.087 189.444 214.475 187.611 215.528 187.278C215.916 187.167 217.08 187.333 218.466 188C219.963 188.667 221.681 189.833 222.125 191.111C222.513 192.222 222.624 193.5 222.679 194.611C222.735 195.889 222.79 197.055 223.344 197.722C224.287 198.833 226.837 199.055 230.107 196.944C232.935 195.111 236.649 191.111 236.926 190.778C237.203 190.555 242.358 186.611 248.013 187.611C250.84 188.111 252.115 188.722 253.113 189.278C253.334 189.389 253.612 189.5 253.833 189.611C252.392 190.167 251.616 190.111 250.951 190C250.008 189.944 249.454 190 248.733 191.278C247.736 192.944 247.514 196.222 247.403 198.444C247.347 199.333 247.292 200.055 247.237 200.389C246.959 201.722 246.294 202.444 245.13 202.833C244.132 203.111 243.855 202.889 243.301 202.444C243.19 202.333 243.024 202.222 242.802 202.055C242.58 201.889 242.303 201.5 242.137 201.167C241.638 200.333 241.028 199.222 239.365 199.333C237.924 199.389 237.48 200.278 236.981 201.278C236.704 201.944 236.316 202.555 235.651 203.055C233.988 204.278 229.276 205.778 226.671 206C223.788 206.278 218.355 205.778 218.078 205.278C218.023 205.111 218.355 204.333 218.688 203.722C219.242 202.611 219.852 201.222 219.63 200.222C219.575 200.055 219.575 199.944 219.519 199.722C219.242 198.5 219.131 198.389 217.912 198.444C217.025 198.5 216.914 199.167 216.859 199.667C216.803 200.055 216.748 200.389 216.471 200.611C215.861 201.111 213.643 200.889 212.867 200.833L212.812 201.333C213.089 201.389 215.916 201.667 216.748 201.055C217.136 200.778 217.247 200.222 217.302 199.833C217.413 199.222 217.468 199 217.967 198.944C218.466 198.889 218.688 198.889 218.799 199C218.91 199.111 218.965 199.389 219.076 199.889C219.131 200 219.131 200.167 219.187 200.389C219.353 201.222 218.799 202.5 218.3 203.555C217.801 204.5 217.579 205.111 217.69 205.444C218.023 206.389 224.564 206.667 226.781 206.444C229.498 206.222 234.265 204.722 235.983 203.444C236.704 202.889 237.092 202.167 237.48 201.555C237.979 200.667 238.312 199.944 239.476 199.889C240.806 199.833 241.305 200.667 241.859 201.5C242.081 201.889 242.358 202.278 242.636 202.5C242.802 202.611 242.913 202.722 243.134 202.833C243.689 203.333 244.132 203.667 245.352 203.333C246.682 202.944 247.458 202.111 247.846 200.555C247.902 200.278 247.957 199.833 247.957 199.278C248.179 199.611 248.179 200 248.179 200.389C248.179 200.778 248.124 201.278 248.456 201.722C249.011 202.5 249.897 202 250.507 201.667C250.784 201.555 251.117 201.389 251.283 201.389C251.394 201.389 251.505 201.444 251.616 201.555C251.782 201.778 251.838 202.278 251.782 202.889C251.671 203.611 250.618 204.555 249.953 205.111C249.731 205.333 249.454 205.5 249.399 205.667C249.232 205.889 249.232 206.278 249.288 206.555C249.343 206.889 249.343 207.333 249.121 207.667C249.011 207.833 248.789 207.944 248.456 208C247.902 208.055 247.347 207.833 247.181 207.722C247.126 207.667 247.126 207.5 247.126 207.222C247.126 206.944 247.126 206.555 246.904 206.278C246.516 205.778 245.851 205.611 244.853 205.667C244.243 205.722 244.243 206.222 244.243 206.611C244.243 207.111 244.188 207.611 243.523 207.833C243.024 208 242.58 207.778 241.97 207.444C241.083 206.889 239.975 206.278 238.312 207.222C236.372 208.278 236.593 209.444 236.704 210.278C236.76 210.555 236.815 210.889 236.76 211.055C236.704 211.222 236.593 211.333 236.538 211.333C236.372 211.389 236.205 211.278 236.15 211.222L235.928 211.555C235.983 211.555 236.316 211.833 236.76 211.722C236.981 211.667 237.258 211.5 237.369 211.111C237.48 210.833 237.425 210.444 237.369 210.111C237.258 209.333 237.092 208.389 238.7 207.5C240.141 206.722 240.973 207.278 241.859 207.722C242.525 208.055 243.079 208.444 243.744 208.222C244.687 207.889 244.687 207.111 244.687 206.555C244.687 206.055 244.742 206 244.853 206C245.684 205.944 246.294 206.055 246.516 206.389C246.627 206.555 246.627 206.778 246.627 207.055C246.627 207.333 246.627 207.667 246.849 207.889C247.07 208.111 247.791 208.444 248.512 208.278C248.9 208.222 249.288 208.055 249.509 207.722C249.842 207.167 249.787 206.722 249.787 206.278C249.787 206 249.731 205.778 249.842 205.667C249.897 205.555 250.119 205.444 250.396 205.167C251.117 204.5 252.281 203.5 252.392 202.611C252.392 202.611 252.392 202.611 252.392 202.555C252.503 201.778 252.392 201.222 252.115 200.889C251.949 200.722 251.727 200.611 251.394 200.611C251.117 200.611 250.784 200.778 250.452 200.944C249.731 201.278 249.288 201.555 248.955 201.111C248.733 200.833 248.733 200.444 248.733 200.055C248.733 199.5 248.789 198.889 248.068 198.333C248.068 198.278 248.068 198.222 248.068 198.222C248.179 196.111 248.345 192.833 249.343 191.278C250.064 190.167 250.396 190.167 251.228 190.222C252.004 190.278 253.002 190.333 254.776 189.555C255.496 189.778 256.328 189.889 257.658 189.778C261.705 189.5 265.918 186.278 266.195 186.055C266.361 185.944 266.528 185.778 266.694 185.667C267.027 185.167 267.692 184.055 268.468 182.722C269.299 181.222 270.242 179.611 271.018 178.444C271.905 177.167 272.903 175.778 273.9 175.611C274.399 175.555 274.843 175.667 275.453 176.167C277.504 177.722 284.821 179.722 285.043 179.778L285.098 179.278C284.599 179.222 277.615 177.278 275.73 175.778C274.289 175.5 273.734 175.333 273.069 175.444Z" fill="url(#paint8_linear_3632_75961)"/>
<path d="M274.954 178.555C272.736 179.222 270.353 182.389 269.687 183.444C268.246 185.722 268.024 190.944 268.523 193.389C268.745 194.5 269.133 195.278 269.466 196C269.798 196.778 270.186 197.444 270.186 198.278C270.186 200.111 270.408 201.111 271.073 201.944C271.184 202.111 271.351 202.166 271.461 202.166C271.794 202.166 272.182 201.889 272.515 201.444C272.736 201.166 273.18 200.722 273.346 200.778C273.457 200.778 273.512 200.889 273.568 201C274.233 202.166 273.346 203.111 273.291 203.111L273.568 203.389C273.568 203.389 274.732 202.222 273.956 200.722C273.79 200.444 273.623 200.333 273.346 200.222C272.847 200.166 272.515 200.611 272.127 201C271.905 201.222 271.572 201.611 271.406 201.611L271.351 201.555C270.741 200.778 270.574 199.833 270.574 198.111C270.574 197.111 270.242 196.444 269.798 195.555C269.521 194.889 269.078 194.111 268.911 193.055C268.412 190.778 268.745 185.611 270.02 183.444C270.796 182.166 273.069 179.333 275.009 178.722C275.564 178.611 276.506 178.833 277.227 179.222C281.273 180.944 284.211 181.611 284.211 181.611L284.267 181.222C284.267 181.222 281.384 180.611 277.337 178.944C277.005 178.833 275.785 178.333 274.954 178.555Z" fill="url(#paint9_linear_3632_75961)"/>
<path d="M274.621 177.5C273.79 177.611 272.903 178.444 272.57 178.722C272.515 178.777 272.515 178.777 272.515 178.777C270.574 180.444 268.69 182.833 268.135 184.388C267.969 184.888 267.858 185.388 267.747 186.055C266.528 188.611 266.029 191.055 265.585 193.5C265.364 194.777 265.031 196.166 264.698 197.444C263.701 201 257.714 207 257.437 207.333C257.215 207.5 252.004 211.611 250.23 212C249.454 212.166 245.574 213 244.52 213.5C243.578 213.888 241.86 219.055 241.582 220.055C241.471 222.555 241.25 226.222 240.973 226.555C240.695 226.944 239.31 227.444 238.7 227.333C238.478 227.333 238.312 227.055 238.09 226.722C237.813 226.222 237.369 225.722 236.649 225.611C236.094 225.555 234.598 225.888 232.048 226.555C229.664 227.166 226.393 227.888 225.784 227.722C225.229 227.555 225.174 227.166 225.063 226.888C225.008 226.611 224.897 226.166 224.342 226.055C224.176 226 224.065 226.111 223.954 226.166C223.733 226.388 223.733 226.944 223.788 227.666C223.843 228.388 223.899 229.277 223.566 229.666L223.899 229.944C224.398 229.388 224.287 228.444 224.231 227.666C224.231 227.277 224.176 226.666 224.287 226.555C224.509 226.611 224.509 226.666 224.619 227.055C224.73 227.388 224.841 227.944 225.562 228.222C226.227 228.444 228.555 227.944 232.048 227.055C233.988 226.555 236.039 226.111 236.482 226.166C237.037 226.222 237.314 226.722 237.591 227.111C237.813 227.5 238.145 227.888 238.533 227.944C239.254 228.055 240.806 227.555 241.25 227C241.582 226.5 241.86 221.777 241.915 220.333C242.857 217.444 244.132 214.277 244.631 214.055C245.463 213.777 248.068 213.111 250.286 212.611C252.17 212.222 257.437 208.055 257.658 207.888C257.88 207.666 263.978 201.555 265.031 197.833C265.419 196.5 265.696 195.111 265.918 193.833C266.251 191.944 266.694 189.944 267.47 187.944C267.359 189.055 267.304 190.222 267.193 191.444C267.138 192.388 267.082 193.333 266.971 194.111C266.361 199.666 265.53 202.722 264.144 204.777C262.536 207 256.605 213.888 255.884 214.388C255.496 214.666 255.053 214.777 254.554 215C254.166 215.111 253.667 215.222 253.113 215.5C251.228 216.333 249.121 219.555 247.625 221.944C246.849 223.166 246.128 224.222 245.795 224.5C245.241 224.833 244.908 224.722 244.465 224.555C244.188 224.444 243.744 224.277 243.301 224.277V224.777C243.689 224.777 244.021 224.888 244.299 225C244.853 225.222 245.296 225.388 246.073 224.944C246.461 224.666 247.126 223.666 248.013 222.277C249.509 220 251.505 216.777 253.334 216C253.833 215.777 254.277 215.666 254.665 215.5C255.275 215.333 255.718 215.222 256.217 214.833C256.938 214.222 262.98 207.388 264.588 205.111C266.084 203.055 266.86 199.888 267.526 194.222C267.581 193.5 267.636 192.555 267.747 191.555C267.914 189.055 268.135 186.277 268.634 184.944C269.189 183.444 271.018 181.111 272.903 179.5C272.903 179.5 272.958 179.444 273.014 179.444C273.291 179.222 274.178 178.444 274.843 178.333C275.508 178.222 276.728 178.666 278.446 179.333C280.054 179.944 282.105 180.666 284.599 181.333L284.71 180.944C282.271 180.277 280.275 179.611 278.668 178.944C276.617 177.888 275.342 177.388 274.621 177.5Z" fill="url(#paint10_linear_3632_75961)"/>
<path d="M212.202 224.389C212.535 224.445 213.089 224.778 213.699 225.222C214.808 225.945 215.972 226.778 217.025 226.222C217.579 225.945 218.023 225.278 218.577 224.389C219.575 222.833 220.85 220.945 223.178 220.222C226.837 219 233.434 215.833 233.489 215.778H233.544C233.6 215.722 238.811 211.889 243.8 213.222L243.911 212.833C238.811 211.5 233.711 215.111 233.323 215.445C233.267 215.445 233.101 215.556 232.824 215.667C232.713 215.111 232.325 213.945 231.327 213.167C230.551 212.556 229.553 212.333 228.389 212.445C226.338 212.667 224.453 213.667 222.735 214.556C221.238 215.333 220.018 216 219.131 215.833C218.355 215.778 218.245 215.278 218.023 214.722C217.856 214 217.524 213.111 216.027 212.945C214.42 212.778 213.754 213.889 213.145 214.833C212.646 215.556 212.369 216 211.87 215.945C210.373 215.833 208.377 213.778 208.322 213.722L208.045 214C208.1 214.056 210.207 216.167 211.814 216.389C212.646 216.445 213.089 215.722 213.533 215.056C214.087 214.167 214.641 213.222 216.027 213.389C217.247 213.5 217.468 214.167 217.635 214.833C217.801 215.5 218.023 216.167 219.131 216.278C220.129 216.333 221.404 215.667 222.956 214.945C224.619 214.111 226.504 213.111 228.444 212.889C229.498 212.778 230.385 212.945 231.105 213.5C232.048 214.278 232.38 215.445 232.436 215.889C230.495 216.778 225.894 218.889 223.067 219.833C220.573 220.667 219.242 222.722 218.245 224.222C217.69 225 217.302 225.722 216.803 225.945C216.083 226.333 214.974 225.611 213.976 224.945C213.311 224.445 212.757 224.111 212.313 224.056C211.648 224 210.705 224.611 209.652 225.333C208.654 226 207.546 226.778 206.77 226.889L206.825 227.389C207.712 227.278 208.821 226.5 209.929 225.778C210.761 225 211.759 224.333 212.202 224.389Z" fill="url(#paint11_linear_3632_75961)"/>
<path d="M276.506 180.111C275.286 180.667 274.289 182.222 273.568 183.333C273.291 183.833 273.014 184.167 272.847 184.333C272.681 184.5 272.515 184.5 272.293 184.555C271.739 184.667 271.351 184.833 270.852 186C270.131 187.722 269.798 191.778 270.685 193.167C271.018 193.722 271.461 193.778 271.794 193.778C272.736 193.667 273.568 192.555 273.901 191.5C274.122 190.778 274.843 190.722 275.619 190.667C276.284 190.611 276.894 190.555 277.282 190.055C277.504 189.778 277.781 189.555 277.947 189.667C278.169 189.722 278.502 190.167 278.612 191C278.723 192.278 278.224 194.333 278.224 194.333L278.723 194.444C278.723 194.389 279.278 192.389 279.111 190.944C279 189.944 278.612 189.278 278.169 189.167C277.781 189.055 277.337 189.278 277.005 189.778C276.783 190.055 276.229 190.111 275.674 190.167C274.898 190.222 273.845 190.278 273.568 191.278C273.235 192.278 272.459 193.222 271.794 193.278C271.572 193.278 271.295 193.167 271.129 192.944C270.408 191.778 270.63 188 271.351 186.222C271.739 185.222 272.127 185.167 272.459 185.055C272.681 185 273.014 184.944 273.235 184.667C273.402 184.5 273.734 184.055 274.011 183.611C274.677 182.611 275.674 181 276.783 180.555C277.559 180.222 278.391 180.611 279.555 181.167C280.663 181.667 281.994 182.278 283.879 182.5L283.934 182C282.16 181.778 280.83 181.167 279.777 180.667C278.391 180.167 277.448 179.722 276.506 180.111Z" fill="url(#paint12_linear_3632_75961)"/>
</g>
<path d="M163.974 203.833C175.455 203.833 184.762 186.522 184.762 165.167C184.762 143.812 175.455 126.5 163.974 126.5C152.494 126.5 143.187 143.812 143.187 165.167C143.187 186.522 152.494 203.833 163.974 203.833Z" fill="#2A697F"/>
<path d="M155.936 182.5C160.559 182.5 164.307 174.889 164.307 165.5C164.307 156.111 160.559 148.5 155.936 148.5C151.314 148.5 147.566 156.111 147.566 165.5C147.566 174.889 151.314 182.5 155.936 182.5Z" fill="#293C4F"/>
<path d="M149.561 165.5C149.561 156.833 152.777 149.667 156.934 148.667C156.657 148.611 156.269 148.556 155.936 148.556C151.28 148.556 147.566 156.167 147.566 165.556C147.566 174.945 151.335 182.556 155.936 182.556C156.269 182.556 156.657 182.5 156.934 182.445C152.721 181.389 149.561 174.222 149.561 165.5Z" fill="#DBDBDB"/>
<path d="M158.653 148.667L157.045 149.056C153.054 150 149.95 157.111 149.95 165.556C149.95 174 152.943 181.056 157.045 182.056L158.653 182.445L157.045 182.834C156.657 182.945 156.269 182.945 155.936 182.945C153.497 182.945 151.28 181.111 149.617 177.723C148.009 174.5 147.067 170.111 147.067 165.556C147.067 160.945 147.954 156.611 149.617 153.389C151.28 150 153.497 148.167 155.936 148.167C156.269 148.167 156.657 148.223 157.045 148.278L158.653 148.667ZM149.118 165.5C149.118 157.889 151.613 151.334 155.105 149C151.058 149.834 147.898 156.889 147.898 165.5C147.898 174.111 151.058 181.223 155.105 182C151.613 179.723 149.118 173.167 149.118 165.5Z" fill="#323A50"/>
<path d="M143.297 165.111C143.297 186.5 152.389 203.778 163.642 203.778C174.84 203.778 183.986 186.5 183.986 165.111C183.986 143.722 174.895 126.444 163.642 126.444C152.389 126.389 143.297 143.722 143.297 165.111ZM156.047 148.5C156.103 148.5 156.158 148.444 156.158 148.444C156.214 148.444 156.269 148.444 156.325 148.444C160.593 149.167 163.864 156.444 163.864 165.389C163.864 174.056 160.759 181.222 156.657 182.222C156.546 182.222 156.435 182.278 156.38 182.278C156.325 182.278 156.269 182.278 156.214 182.278C156.158 182.278 156.103 182.278 156.047 182.278C155.936 182.278 155.881 182.278 155.715 182.278C155.715 182.278 155.493 182.278 155.327 182.278C154.717 182.222 154.218 182.056 153.719 181.722C153.165 181.5 152.721 181.056 152.222 180.611C149.451 177.889 147.566 172.056 147.566 165.278C147.566 155.889 151.225 148.278 155.77 148.278V148.444C155.826 148.556 155.936 148.5 156.047 148.5Z" fill="#DBDBDB"/>
<path d="M184.319 165.111C184.319 175.5 182.212 185.333 178.332 192.667C174.452 200.111 169.185 204.167 163.586 204.167C157.988 204.167 152.777 200.056 148.841 192.667C145.016 185.278 142.854 175.556 142.854 165.111C142.854 154.722 144.96 144.889 148.841 137.556C152.721 130.111 157.988 126.056 163.586 126.056C169.185 126.056 174.396 130.167 178.332 137.556C182.212 144.889 184.319 154.667 184.319 165.111ZM143.741 165.111C143.741 186.278 152.721 203.389 163.642 203.389C174.618 203.389 183.543 186.222 183.543 165.111C183.543 144.056 174.562 126.833 163.642 126.833C152.61 126.778 143.741 143.945 143.741 165.111ZM164.307 165.445C164.307 174.167 161.092 181.611 156.768 182.667C156.657 182.667 156.546 182.722 156.435 182.722C156.38 182.722 156.325 182.722 156.269 182.778C156.214 182.778 156.214 182.778 156.158 182.778H156.103C155.992 182.778 155.936 182.778 155.77 182.778H155.382H155.216C154.606 182.722 154.052 182.556 153.442 182.167C152.888 181.889 152.389 181.5 151.89 181L151.834 180.945C148.952 178 147.122 172 147.122 165.333C147.122 160.722 148.009 156.389 149.562 153.111C151.169 149.722 153.331 147.889 155.77 147.889H156.158V148C156.214 148 156.214 148 156.269 148C156.325 148 156.38 148 156.435 148C160.926 148.889 164.307 156.333 164.307 165.445ZM155.659 182C155.77 182 155.826 182 155.881 182H155.936C155.992 182 155.992 182 156.047 182C156.103 182 156.158 182 156.214 182C156.325 182 156.38 181.945 156.491 181.945C160.427 181 163.365 173.889 163.365 165.445C163.365 156.833 160.26 149.611 156.158 148.889H156.103C156.047 148.889 155.992 148.945 155.936 148.889H155.881C155.826 148.889 155.77 148.889 155.659 148.889H155.271V148.722C153.387 148.889 151.613 150.611 150.282 153.5C148.73 156.611 147.899 160.889 147.899 165.389C147.899 171.778 149.672 177.667 152.444 180.445L152.5 180.5C152.998 181 153.387 181.278 153.83 181.5C154.384 181.722 154.772 181.889 155.327 182C155.382 182 155.604 182 155.659 182Z" fill="#323A50"/>
<g opacity="0.3">
<path d="M295.686 164.111C295.686 164.167 295.686 164.222 295.686 164.222C295.686 177.778 291.917 191.334 284.821 203.334V203.389L284.211 204C275.564 218.945 262.093 230.222 245.241 236.556C238.755 239.056 231.771 240.556 223.899 241.222C220.24 241.389 216.803 241.389 213.089 241.222C209.486 241.056 205.827 240.5 201.559 239.611C197.18 238.667 192.856 237.222 188.199 235.222L188.476 234.445C193.022 236.445 197.401 237.889 201.67 238.834C205.938 239.722 209.541 240.278 213.089 240.445C216.748 240.611 220.074 240.611 223.733 240.445C231.438 239.778 238.423 238.278 244.853 235.778C261.539 229.5 274.843 218.334 283.435 203.611V203.556L284.045 202.945C298.236 178.778 298.347 149.889 284.211 125.667C283.435 124.5 282.604 123.222 281.772 121.834C273.512 109 261.816 99.3891 246.849 93.278C246.128 93.0003 245.352 92.7225 244.687 92.4447C243.911 92.2225 243.135 91.8891 242.469 91.6114C228.334 86.9447 213.81 86.3892 199.452 90.0003H199.397C198.787 90.1114 191.414 92.5558 188.088 93.9447L187.811 93.1669C190.915 91.8336 198.288 89.3892 199.286 89.1669C213.754 85.5003 228.389 86.1114 242.691 90.778H242.746C243.467 91.0558 244.243 91.3336 244.908 91.5558C245.685 91.778 246.461 92.1114 247.126 92.3892C262.259 98.6114 274.122 108.278 282.493 121.334C283.324 122.778 284.1 124 284.932 125.167C292.028 137.111 295.686 150.611 295.686 164.111Z" fill="#323A50"/>
</g>
<path d="M154.939 87.8334C149.672 91.6112 147.344 97.6112 147.843 105.778C148.176 110.445 149.451 114.5 150.005 116.167C149.839 116.278 149.617 116.445 149.451 116.722C148.896 115.222 147.51 110.889 147.178 105.778C146.568 97.5001 149.118 91.0557 154.44 87.2779C155.105 86.6112 174.285 67.889 187.257 61.9445C190.694 60.389 190.472 57.2223 190.139 51.5001C189.862 46.7779 189.419 40.2779 190.915 31.5557L191.581 31.6668C190.139 40.3334 190.527 46.7779 190.805 51.5001C191.137 57.2779 191.414 60.8334 187.589 62.5557C177.001 67.389 162.201 80.889 156.879 85.889C161.48 84.1668 168.963 85.1668 179.33 89.0001C189.197 92.6668 201.67 98.9445 216.36 107.5C221.848 110.667 227.169 113.945 232.214 117.111V117.889C227.169 114.667 221.626 111.278 216.027 108C183.044 88.889 161.923 81.8334 154.939 87.8334Z" fill="#323A50"/>
<path d="M155.16 112.389C154.772 112.611 152.721 113.944 152.444 114.166C152.222 114.166 153.276 112.889 153.109 113C152.721 113.111 152.333 113.611 152.167 114.055C151.668 114.166 151.446 114.222 151.335 114.778C151.169 114.778 151.28 115.333 151.114 115.389C152.111 114.166 153.608 112.611 154.883 111.833C161.147 108.278 180.383 113.111 212.091 126.055C219.076 128.889 226.061 131.889 232.048 134.611V135.389C204.996 123.333 164.695 107.222 155.16 112.389Z" fill="#323A50"/>
<path d="M149.506 116.611C149.562 116.5 149.672 116.388 149.728 116.222L148.176 112.277C148.675 114.222 149.118 115.666 149.506 116.611Z" fill="#323A50"/>
<path d="M151.003 114.888L147.122 104.777C147.122 105.166 147.178 105.666 147.178 106.055L150.67 115.111C150.781 115.111 150.892 115 151.003 114.888Z" fill="#323A50"/>
<path d="M152.5 113.945L147.289 100.556C147.233 100.833 147.233 101.167 147.233 101.445L152.167 114.278C152.222 114.278 152.278 114.222 152.278 114.222C152.389 114.111 152.444 114.056 152.5 113.945Z" fill="#323A50"/>
<path d="M153.83 112.777L147.899 97.2773C147.843 97.4996 147.788 97.7773 147.732 97.9996L153.497 113C153.608 112.888 153.719 112.833 153.83 112.777Z" fill="#323A50"/>
<path d="M155.271 112.111L148.675 95C148.619 95.1667 148.564 95.3333 148.453 95.6111L154.883 112.333C155.05 112.222 155.16 112.111 155.271 112.111Z" fill="#323A50"/>
<path d="M156.879 111.5L149.672 92.8887C149.617 93.0553 149.506 93.1664 149.451 93.3887L156.435 111.611C156.602 111.611 156.768 111.555 156.879 111.5Z" fill="#323A50"/>
<path d="M158.265 111.333C158.376 111.333 158.486 111.333 158.597 111.333L150.836 91.2217C150.726 91.3328 150.67 91.4439 150.559 91.6106L158.154 111.388C158.209 111.333 158.209 111.333 158.265 111.333Z" fill="#323A50"/>
<path d="M160.15 111.277C160.205 111.277 160.316 111.277 160.371 111.277L152.056 89.7217C151.945 89.8328 151.89 89.9439 151.779 89.9995L159.983 111.277C160.039 111.277 160.094 111.277 160.15 111.277Z" fill="#323A50"/>
<path d="M161.812 111.389L153.109 88.7221C153.22 88.611 153.331 88.5554 153.386 88.4443L162.201 111.444C162.09 111.389 161.979 111.389 161.812 111.389Z" fill="#323A50"/>
<path d="M163.697 111.5L154.495 87.5552C154.551 87.4997 154.661 87.4441 154.828 87.333L164.141 111.555C163.974 111.5 163.864 111.5 163.697 111.5Z" fill="#323A50"/>
<path d="M165.582 111.667L155.992 86.6667C156.103 86.6111 156.214 86.5556 156.325 86.5L166.026 111.778C165.859 111.722 165.748 111.722 165.582 111.667Z" fill="#323A50"/>
<path d="M167.522 112L157.489 85.9998C157.6 85.9442 157.71 85.9442 157.877 85.8887L167.966 112.111C167.855 112.055 167.689 112 167.522 112Z" fill="#323A50"/>
<path d="M169.352 112.334L159.041 85.6669C159.152 85.6669 159.263 85.6113 159.429 85.6113L169.795 112.5C169.629 112.389 169.462 112.389 169.352 112.334Z" fill="#323A50"/>
<path d="M171.292 112.722L160.815 85.3887C160.926 85.3887 161.092 85.3887 161.203 85.3887L171.735 112.833C171.68 112.833 171.458 112.778 171.292 112.722Z" fill="#323A50"/>
<path d="M173.287 113.222L162.589 85.3887C162.699 85.3887 162.866 85.3887 163.087 85.3887L173.786 113.278C173.675 113.278 173.454 113.278 173.287 113.222Z" fill="#323A50"/>
<path d="M175.283 113.722L164.418 85.5C164.529 85.5 164.695 85.5 164.917 85.5556L175.837 113.833C175.671 113.778 175.505 113.722 175.283 113.722Z" fill="#323A50"/>
<path d="M177.279 114.222L166.303 85.7217C166.469 85.7217 166.58 85.7772 166.802 85.7772L177.833 114.277C177.556 114.333 177.445 114.277 177.279 114.222Z" fill="#323A50"/>
<path d="M179.33 114.778L168.243 86C168.409 86 168.52 86.0555 168.742 86.1111L179.829 114.889C179.607 114.889 179.496 114.833 179.33 114.778Z" fill="#323A50"/>
<path d="M181.325 115.389L170.183 86.4443C170.349 86.4999 170.46 86.4999 170.682 86.5555L181.824 115.5C181.658 115.5 181.492 115.444 181.325 115.389Z" fill="#323A50"/>
<path d="M183.432 116.056L172.234 87.0557C172.4 87.1112 172.511 87.1112 172.733 87.1668L183.931 116.167C183.709 116.167 183.543 116.111 183.432 116.056Z" fill="#323A50"/>
<path d="M185.317 116.611L174.119 87.5557C174.285 87.6112 174.396 87.6668 174.618 87.6668L185.816 116.778C185.705 116.722 185.427 116.667 185.317 116.611Z" fill="#323A50"/>
<path d="M187.368 117.277L176.17 88.166C176.336 88.2216 176.447 88.2771 176.724 88.3327L187.922 117.444C187.756 117.388 187.589 117.333 187.368 117.277Z" fill="#323A50"/>
<path d="M189.474 118L178.276 88.8887C178.443 88.9442 178.609 88.9998 178.831 89.0553L190.029 118.111C189.807 118.111 189.64 118.055 189.474 118Z" fill="#323A50"/>
<path d="M191.581 118.667L180.383 89.6113C180.549 89.6669 180.716 89.7224 180.937 89.778L192.135 118.889C191.913 118.834 191.747 118.778 191.581 118.667Z" fill="#323A50"/>
<path d="M193.687 119.444L182.545 90.5C182.711 90.5556 182.878 90.6111 183.099 90.6667L194.242 119.611C193.964 119.556 193.798 119.5 193.687 119.444Z" fill="#323A50"/>
<path d="M195.794 120.222L184.707 91.3887C184.873 91.4442 185.039 91.4998 185.261 91.6109L196.348 120.444C196.126 120.333 195.905 120.278 195.794 120.222Z" fill="#323A50"/>
<path d="M197.9 121L186.869 92.333C187.035 92.3886 187.201 92.4441 187.423 92.5552L198.455 121.222C198.233 121.111 198.066 121.055 197.9 121Z" fill="#323A50"/>
<path d="M199.896 121.777L188.92 93.333C189.086 93.3886 189.252 93.4997 189.474 93.5552L200.45 122C200.228 121.889 200.062 121.833 199.896 121.777Z" fill="#323A50"/>
<path d="M201.891 122.499L190.971 94.2217C191.137 94.2772 191.304 94.3883 191.525 94.4439L202.39 122.666C202.169 122.611 202.058 122.555 201.891 122.499Z" fill="#323A50"/>
<path d="M203.998 123.277L193.188 95.166C193.355 95.2216 193.521 95.3327 193.743 95.3882L204.552 123.444C204.331 123.444 204.164 123.333 203.998 123.277Z" fill="#323A50"/>
<path d="M206.104 124.111L195.406 96.2773C195.572 96.3329 195.738 96.444 195.96 96.4996L206.603 124.277C206.492 124.222 206.326 124.166 206.104 124.111Z" fill="#323A50"/>
<path d="M208.322 124.944L197.734 97.3887C197.9 97.4442 198.066 97.5553 198.288 97.6109L208.876 125.111C208.599 125.055 208.488 125 208.322 124.944Z" fill="#323A50"/>
<path d="M210.317 125.722L199.84 98.4443C200.007 98.5554 200.173 98.611 200.395 98.7221L210.816 125.944C210.65 125.889 210.484 125.833 210.317 125.722Z" fill="#323A50"/>
<path d="M212.258 126.556L201.891 99.5557C202.058 99.6668 202.224 99.7223 202.446 99.8334L212.812 126.778C212.59 126.722 212.424 126.611 212.258 126.556Z" fill="#323A50"/>
<path d="M214.42 127.444L204.164 100.777C204.331 100.888 204.497 100.944 204.719 101.055L214.974 127.666C214.808 127.555 214.586 127.5 214.42 127.444Z" fill="#323A50"/>
<path d="M216.582 128.333L206.437 102C206.603 102.111 206.77 102.167 206.991 102.278L217.08 128.556C216.914 128.444 216.803 128.389 216.582 128.333Z" fill="#323A50"/>
<path d="M218.743 129.222L208.71 103.222C208.876 103.333 209.042 103.388 209.264 103.499L219.242 129.444C219.076 129.333 218.965 129.277 218.743 129.222Z" fill="#323A50"/>
<path d="M220.961 130.167L211.149 104.5C211.315 104.611 211.482 104.667 211.703 104.778L221.571 130.278C221.349 130.278 221.127 130.222 220.961 130.167Z" fill="#323A50"/>
<path d="M222.956 130.999L213.255 105.722C213.422 105.833 213.588 105.888 213.81 105.999L223.511 131.166C223.345 131.166 223.178 131.055 222.956 130.999Z" fill="#323A50"/>
<path d="M225.174 131.945L215.639 107.056C215.805 107.167 215.972 107.222 216.249 107.333L225.728 132.111C225.506 132.056 225.34 132 225.174 131.945Z" fill="#323A50"/>
<path d="M227.336 132.833L217.912 108.389C218.078 108.5 218.245 108.611 218.522 108.666L227.835 133.055C227.613 133 227.502 132.944 227.336 132.833Z" fill="#323A50"/>
<path d="M229.498 133.833L220.24 109.777C220.406 109.888 220.573 110 220.85 110.055L230.052 134C229.886 133.944 229.719 133.888 229.498 133.833Z" fill="#323A50"/>
<path d="M231.549 134.722L222.458 111.111C222.624 111.222 222.846 111.334 223.067 111.389L232.159 134.889C231.881 134.834 231.715 134.778 231.549 134.722Z" fill="#323A50"/>
<path d="M232.879 133.778L224.62 112.389C224.786 112.5 225.008 112.611 225.229 112.722L232.879 132.666C232.879 133 232.879 133.389 232.879 133.778Z" fill="#323A50"/>
<path d="M232.879 128.944L227.059 113.777C227.225 113.888 227.447 114 227.668 114.111L232.935 127.833C232.824 128.222 232.824 128.555 232.879 128.944Z" fill="#323A50"/>
<path d="M232.768 124.056L229.331 115.111C229.498 115.222 229.719 115.334 229.941 115.445L232.768 122.778C232.768 123.278 232.768 123.722 232.768 124.056Z" fill="#323A50"/>
<path d="M232.768 119.222L231.826 116.666C231.992 116.777 232.214 116.888 232.436 116.999L232.824 118.055C232.768 118.499 232.768 118.888 232.768 119.222Z" fill="#323A50"/>
<path d="M154.939 239.834C149.672 236.056 147.344 230.056 147.843 221.889C148.176 217.223 149.451 213.167 150.005 211.501C149.839 211.389 149.617 211.223 149.451 210.945C148.896 212.445 147.51 216.778 147.178 221.889C146.568 230.167 149.118 236.612 154.44 240.389C155.105 241.056 174.285 259.778 187.257 265.723C190.694 267.278 190.472 270.445 190.139 276.167C189.862 280.889 189.419 287.389 190.915 296.112L191.581 296.001C190.139 287.334 190.527 280.889 190.805 276.167C191.137 270.389 191.414 266.834 187.589 265.112C177.001 260.278 162.201 246.778 156.879 241.778C161.48 243.501 168.963 242.501 179.33 238.667C189.197 235.001 201.67 228.723 216.36 220.167C221.848 217.001 227.169 213.723 232.214 210.556V209.778C227.169 213.001 221.626 216.389 216.027 219.667C183.044 238.778 161.923 245.778 154.939 239.834Z" fill="#323A50"/>
<path d="M155.16 215.223C154.772 215.001 152.721 213.667 152.444 213.445C152.222 213.445 153.276 214.723 153.109 214.612C152.721 214.501 152.333 214.001 152.167 213.556C151.668 213.445 151.446 213.389 151.335 212.834C151.169 212.834 151.28 212.278 151.114 212.223C152.111 213.445 153.608 215.001 154.883 215.778C161.147 219.334 180.383 214.501 212.091 201.556C219.076 198.723 226.061 195.723 232.048 193.001V192.278C204.996 204.278 164.695 220.334 155.16 215.223Z" fill="#323A50"/>
<path d="M149.506 210.945C149.561 211.056 149.672 211.168 149.728 211.334L148.176 215.279C148.675 213.445 149.118 211.89 149.506 210.945Z" fill="#323A50"/>
<path d="M151.003 212.723L147.122 222.834C147.122 222.445 147.178 221.945 147.178 221.557L150.67 212.501C150.781 212.557 150.892 212.612 151.003 212.723Z" fill="#323A50"/>
<path d="M152.5 213.667L147.4 227.056C147.344 226.778 147.344 226.445 147.344 226.167L152.278 213.334C152.333 213.334 152.389 213.39 152.389 213.39C152.389 213.501 152.444 213.556 152.5 213.667Z" fill="#323A50"/>
<path d="M153.83 214.834L147.898 230.223C147.843 230.001 147.788 229.723 147.732 229.501L153.497 214.501C153.608 214.668 153.719 214.723 153.83 214.834Z" fill="#323A50"/>
<path d="M155.271 215.501L148.675 232.612C148.619 232.445 148.564 232.278 148.453 232.001L154.883 215.278C155.049 215.389 155.16 215.445 155.271 215.501Z" fill="#323A50"/>
<path d="M156.879 216.056L149.672 234.668C149.617 234.501 149.506 234.39 149.451 234.168L156.435 215.945C156.602 216.001 156.768 216.001 156.879 216.056Z" fill="#323A50"/>
<path d="M158.265 216.334C158.376 216.334 158.486 216.334 158.597 216.334L150.836 236.445C150.726 236.334 150.67 236.223 150.559 236.056L158.154 216.278C158.209 216.334 158.209 216.334 158.265 216.334Z" fill="#323A50"/>
<path d="M160.149 216.39C160.205 216.39 160.316 216.39 160.371 216.39L152.056 237.945C151.945 237.834 151.89 237.723 151.779 237.667L159.983 216.39C160.039 216.39 160.094 216.39 160.149 216.39Z" fill="#323A50"/>
<path d="M161.812 216.278L153.109 238.945C153.22 239.056 153.331 239.112 153.386 239.223L162.2 216.223C162.09 216.278 161.979 216.278 161.812 216.278Z" fill="#323A50"/>
<path d="M163.697 216.112L154.495 240.057C154.551 240.112 154.661 240.168 154.828 240.279L164.141 216.057C163.974 216.057 163.863 216.112 163.697 216.112Z" fill="#323A50"/>
<path d="M165.582 215.889L155.992 240.889C156.103 240.945 156.214 241.001 156.324 241.056L166.025 215.778C165.859 215.834 165.748 215.889 165.582 215.889Z" fill="#323A50"/>
<path d="M167.522 215.612L157.489 241.612C157.599 241.668 157.71 241.668 157.877 241.723L167.966 215.501C167.855 215.557 167.688 215.557 167.522 215.612Z" fill="#323A50"/>
<path d="M169.352 215.223L159.041 241.89C159.152 241.89 159.263 241.946 159.429 241.946L169.795 215.057C169.629 215.168 169.462 215.223 169.352 215.223Z" fill="#323A50"/>
<path d="M171.292 214.834L160.815 242.167C160.926 242.167 161.092 242.167 161.203 242.167L171.735 214.723C171.68 214.778 171.458 214.834 171.292 214.834Z" fill="#323A50"/>
<path d="M173.287 214.389L162.589 242.223C162.699 242.223 162.866 242.223 163.087 242.223L173.786 214.334C173.675 214.278 173.454 214.389 173.287 214.389Z" fill="#323A50"/>
<path d="M175.283 213.889L164.418 242.112C164.529 242.112 164.695 242.112 164.917 242.056L175.837 213.778C175.671 213.778 175.505 213.834 175.283 213.889Z" fill="#323A50"/>
<path d="M177.279 213.334L166.303 241.834C166.469 241.834 166.58 241.778 166.802 241.778L177.833 213.278C177.556 213.278 177.445 213.334 177.279 213.334Z" fill="#323A50"/>
<path d="M179.33 212.834L168.243 241.612C168.409 241.612 168.52 241.556 168.742 241.5L179.829 212.723C179.607 212.723 179.496 212.778 179.33 212.834Z" fill="#323A50"/>
<path d="M181.325 212.222L170.183 241.167C170.349 241.111 170.46 241.111 170.682 241.056L181.824 212.111C181.658 212.111 181.492 212.167 181.325 212.222Z" fill="#323A50"/>
<path d="M183.432 211.612L172.234 240.612C172.4 240.556 172.511 240.556 172.733 240.5L183.931 211.5C183.709 211.445 183.543 211.556 183.432 211.612Z" fill="#323A50"/>
<path d="M185.317 210.945L174.119 240.001C174.285 239.945 174.396 239.889 174.618 239.889L185.815 210.778C185.705 210.889 185.427 210.945 185.317 210.945Z" fill="#323A50"/>
<path d="M187.368 210.278L176.17 239.389C176.336 239.334 176.447 239.278 176.724 239.222L187.922 210.111C187.756 210.167 187.589 210.222 187.368 210.278Z" fill="#323A50"/>
<path d="M189.474 209.556L178.276 238.668C178.443 238.612 178.609 238.556 178.831 238.501L190.028 209.445C189.807 209.445 189.64 209.501 189.474 209.556Z" fill="#323A50"/>
<path d="M191.581 208.889L180.383 237.945C180.549 237.889 180.716 237.834 180.937 237.778L192.135 208.778C191.913 208.778 191.747 208.834 191.581 208.889Z" fill="#323A50"/>
<path d="M193.687 208.168L182.545 237.112C182.711 237.057 182.877 237.001 183.099 236.945L194.241 208.001C193.964 208.057 193.798 208.112 193.687 208.168Z" fill="#323A50"/>
<path d="M195.794 207.389L184.707 236.223C184.873 236.167 185.039 236.111 185.261 236L196.348 207.167C196.126 207.278 195.905 207.334 195.794 207.389Z" fill="#323A50"/>
<path d="M197.9 206.612L186.869 235.279C187.035 235.223 187.201 235.167 187.423 235.056L198.454 206.39C198.233 206.501 198.066 206.556 197.9 206.612Z" fill="#323A50"/>
<path d="M199.896 205.834L188.92 234.278C189.086 234.222 189.252 234.111 189.474 234.056L200.45 205.611C200.228 205.722 200.062 205.778 199.896 205.834Z" fill="#323A50"/>
<path d="M201.891 205.168L190.971 233.445C191.137 233.39 191.303 233.279 191.525 233.223L202.39 205.001C202.169 205.057 202.058 205.112 201.891 205.168Z" fill="#323A50"/>
<path d="M203.998 204.334L193.188 232.445C193.355 232.389 193.521 232.278 193.743 232.223L204.552 204.167C204.331 204.223 204.164 204.278 203.998 204.334Z" fill="#323A50"/>
<path d="M206.104 203.501L195.406 231.334C195.572 231.278 195.738 231.167 195.96 231.112L206.603 203.334C206.492 203.39 206.326 203.445 206.104 203.501Z" fill="#323A50"/>
<path d="M208.322 202.668L197.734 230.223C197.9 230.168 198.066 230.057 198.288 230.001L208.876 202.501C208.599 202.501 208.488 202.557 208.322 202.668Z" fill="#323A50"/>
<path d="M210.317 201.834L199.84 229.111C200.007 229 200.173 228.945 200.395 228.834L210.872 201.611C210.65 201.722 210.484 201.778 210.317 201.834Z" fill="#323A50"/>
<path d="M212.258 201.001L201.836 228.001C202.002 227.889 202.169 227.834 202.39 227.723L212.757 200.778C212.59 200.889 212.424 200.945 212.258 201.001Z" fill="#323A50"/>
<path d="M214.42 200.168L204.164 226.834C204.33 226.723 204.497 226.668 204.719 226.556L214.974 199.945C214.808 200.001 214.586 200.056 214.42 200.168Z" fill="#323A50"/>
<path d="M216.581 199.279L206.437 225.612C206.603 225.501 206.77 225.446 206.991 225.334L217.08 199.057C216.914 199.112 216.803 199.223 216.581 199.279Z" fill="#323A50"/>
<path d="M218.743 198.445L208.71 224.445C208.876 224.334 209.042 224.278 209.264 224.167L219.242 198.223C219.076 198.223 218.965 198.278 218.743 198.445Z" fill="#323A50"/>
<path d="M220.961 197.501L211.094 223.112C211.26 223.001 211.426 222.945 211.648 222.834L221.515 197.334C221.349 197.279 221.127 197.39 220.961 197.501Z" fill="#323A50"/>
<path d="M222.956 196.612L213.255 221.89C213.422 221.779 213.588 221.723 213.81 221.612L223.455 196.445C223.344 196.445 223.178 196.556 222.956 196.612Z" fill="#323A50"/>
<path d="M225.174 195.723L215.584 220.612C215.75 220.5 215.916 220.445 216.193 220.334L225.728 195.612C225.506 195.5 225.34 195.667 225.174 195.723Z" fill="#323A50"/>
<path d="M227.336 194.778L217.912 219.223C218.078 219.112 218.245 219.001 218.522 218.945L227.89 194.612C227.613 194.556 227.502 194.723 227.336 194.778Z" fill="#323A50"/>
<path d="M229.498 193.834L220.24 217.834C220.406 217.722 220.573 217.611 220.85 217.556L230.052 193.611C229.886 193.611 229.719 193.778 229.498 193.834Z" fill="#323A50"/>
<path d="M231.549 192.945L222.458 216.556C222.624 216.445 222.846 216.334 223.067 216.278L232.159 192.778C231.881 192.834 231.715 192.889 231.549 192.945Z" fill="#323A50"/>
<path d="M232.879 193.89L224.619 215.334C224.786 215.223 225.007 215.112 225.229 215.001L232.879 195.056C232.879 194.556 232.879 194.223 232.879 193.89Z" fill="#323A50"/>
<path d="M232.879 198.667L227.059 213.834C227.225 213.723 227.447 213.611 227.668 213.5L232.935 199.778C232.824 199.445 232.824 199 232.879 198.667Z" fill="#323A50"/>
<path d="M232.768 203.501L229.331 212.445C229.498 212.334 229.719 212.223 229.941 212.112L232.768 204.779C232.768 204.334 232.768 203.89 232.768 203.501Z" fill="#323A50"/>
<path d="M232.768 208.39L231.826 210.945C231.992 210.834 232.214 210.723 232.436 210.612L232.824 209.556C232.768 209.112 232.768 208.779 232.768 208.39Z" fill="#323A50"/>
<path d="M71.3438 163.389C71.3438 168.889 66.9091 173.333 61.4211 173.333C56.0994 173.333 41.0213 164.111 40.4115 163.722L39.9126 163.444L40.4115 163.166C41.0767 162.777 56.1548 153.555 61.4211 153.555C66.9091 153.5 71.3438 157.944 71.3438 163.389ZM41.243 163.389C43.9593 165 56.82 172.611 61.4765 172.611C66.521 172.611 70.6786 168.5 70.6786 163.389C70.6786 158.333 66.5765 154.166 61.4765 154.166C56.8755 154.166 43.9593 161.777 41.243 163.389Z" fill="#323A50"/>
<path d="M58.3722 169.445L58.2059 170.167C54.3809 169.223 47.3408 165.445 47.0636 165.334L47.3408 164.667C47.5071 164.723 54.6027 168.5 58.3722 169.445Z" fill="#323A50"/>
<path d="M66.6874 167.944C64.082 171.167 59.8135 170.556 59.5918 170.5L59.7027 169.778C59.7581 169.778 63.8048 170.389 66.133 167.5L66.6874 167.944Z" fill="#323A50"/>
<path d="M94.848 160.222H79.8807V166.722H94.848V171.834L106.822 163.778L106.877 163.667L94.848 155.111V160.222Z" fill="#FF4200"/>
</g>
<defs>
<linearGradient id="paint0_linear_3632_75961" x1="227.173" y1="60.2699" x2="80.6764" y2="260.125" gradientUnits="userSpaceOnUse">
<stop offset="0.2655" stop-color="#032A3D" stop-opacity="0"/>
<stop offset="0.7809" stop-color="#032A3D"/>
</linearGradient>
<radialGradient id="paint1_radial_3632_75961" cx="0" cy="0" r="1" gradientUnits="userSpaceOnUse" gradientTransform="translate(219.303 164.67) rotate(-90) scale(67.6791 67.2175)">
<stop offset="0.2655" stop-color="#032A3D" stop-opacity="0"/>
<stop offset="1" stop-color="#032A3D"/>
</radialGradient>
<linearGradient id="paint2_linear_3632_75961" x1="112.793" y1="191.14" x2="307.668" y2="141.605" gradientUnits="userSpaceOnUse">
<stop offset="0.4054" stop-color="#032A3D" stop-opacity="0"/>
<stop offset="1" stop-color="#032A3D"/>
</linearGradient>
<linearGradient id="paint3_linear_3632_75961" x1="179.408" y1="227.02" x2="302.151" y2="96.4611" gradientUnits="userSpaceOnUse">
<stop offset="0.2655" stop-color="#032A3D" stop-opacity="0"/>
<stop offset="0.7809" stop-color="#032A3D"/>
</linearGradient>
<linearGradient id="paint4_linear_3632_75961" x1="171.834" y1="219.899" x2="294.576" y2="89.3402" gradientUnits="userSpaceOnUse">
<stop offset="0.2655" stop-color="#032A3D" stop-opacity="0"/>
<stop offset="0.7809" stop-color="#032A3D"/>
</linearGradient>
<linearGradient id="paint5_linear_3632_75961" x1="174.486" y1="222.392" x2="297.228" y2="91.8337" gradientUnits="userSpaceOnUse">
<stop offset="0.2655" stop-color="#032A3D" stop-opacity="0"/>
<stop offset="0.7809" stop-color="#032A3D"/>
</linearGradient>
<linearGradient id="paint6_linear_3632_75961" x1="200.973" y1="247.294" x2="323.716" y2="116.735" gradientUnits="userSpaceOnUse">
<stop offset="0.2655" stop-color="#032A3D" stop-opacity="0"/>
<stop offset="0.7809" stop-color="#032A3D"/>
</linearGradient>
<linearGradient id="paint7_linear_3632_75961" x1="181.15" y1="228.657" x2="303.893" y2="98.0984" gradientUnits="userSpaceOnUse">
<stop offset="0.2655" stop-color="#032A3D" stop-opacity="0"/>
<stop offset="0.7809" stop-color="#032A3D"/>
</linearGradient>
<linearGradient id="paint8_linear_3632_75961" x1="192.227" y1="239.07" x2="314.969" y2="108.512" gradientUnits="userSpaceOnUse">
<stop offset="0.2655" stop-color="#032A3D" stop-opacity="0"/>
<stop offset="0.7809" stop-color="#032A3D"/>
</linearGradient>
<linearGradient id="paint9_linear_3632_75961" x1="211.698" y1="257.376" x2="334.44" y2="126.817" gradientUnits="userSpaceOnUse">
<stop offset="0.2655" stop-color="#032A3D" stop-opacity="0"/>
<stop offset="0.7809" stop-color="#032A3D"/>
</linearGradient>
<linearGradient id="paint10_linear_3632_75961" x1="208.454" y1="254.326" x2="331.196" y2="123.767" gradientUnits="userSpaceOnUse">
<stop offset="0.2655" stop-color="#032A3D" stop-opacity="0"/>
<stop offset="0.7809" stop-color="#032A3D"/>
</linearGradient>
<linearGradient id="paint11_linear_3632_75961" x1="197.477" y1="244.006" x2="320.219" y2="113.448" gradientUnits="userSpaceOnUse">
<stop offset="0.2655" stop-color="#032A3D" stop-opacity="0"/>
<stop offset="0.7809" stop-color="#032A3D"/>
</linearGradient>
<linearGradient id="paint12_linear_3632_75961" x1="211.746" y1="257.422" x2="334.489" y2="126.863" gradientUnits="userSpaceOnUse">
<stop offset="0.2655" stop-color="#032A3D" stop-opacity="0"/>
<stop offset="0.7809" stop-color="#032A3D"/>
</linearGradient>
<clipPath id="clip0_3632_75961">
<rect width="330" height="330" fill="white"/>
</clipPath>
</defs>
</svg>
