<svg width="330" height="330" viewBox="0 0 330 330" fill="none" xmlns="http://www.w3.org/2000/svg">
<g clip-path="url(#clip0_3569_15923)">
<path d="M162.938 291.933C158.459 291.933 153.98 291.579 149.62 290.872C145.318 290.283 138.6 288.75 134.004 286.747C118.329 280.913 104.893 270.541 95.1697 256.87C85.2697 242.845 80.025 226.286 80.025 209.079C80.025 197.116 82.5 185.566 87.45 174.724C92.2233 164.293 99 155.1 107.545 147.381L110.02 144.847C114.498 140.25 114.852 139.838 117.386 136.95C117.68 136.597 117.975 136.243 118.329 135.831C121.275 132.413 126.755 126.108 134.239 120.745C143.373 114.204 152.92 110.786 162.702 110.786H162.938C172.72 110.786 182.266 114.204 191.4 120.745C198.884 126.108 204.364 132.413 207.311 135.831C207.664 136.243 208.018 136.597 208.254 136.95C210.198 139.131 210.846 139.779 212.968 142.018C213.97 143.079 215.384 144.493 217.446 146.615C226.286 154.334 233.239 163.586 238.13 174.193C243.198 185.154 245.791 196.881 245.791 209.02C245.791 220.216 243.611 231.059 239.25 241.313C235.066 251.213 229.114 260.052 221.454 267.654C213.852 275.256 204.954 281.266 195.113 285.45C184.977 289.752 174.134 291.933 162.938 291.933ZM162.996 111.965H162.761C140.368 111.965 125.164 129.643 119.33 136.361C118.977 136.774 118.329 137.481 118.034 137.775C115.5 140.663 114.852 141.075 110.373 145.731L108.016 148.206C90.6911 163.763 81.0268 185.743 81.0268 209.02C81.0268 243.14 102.536 273.959 134.357 285.863H134.416C138.541 287.808 145.554 289.399 149.855 289.988C154.216 290.695 158.577 291.049 162.996 291.049C208.254 291.049 244.966 254.277 244.966 208.961C244.966 185.272 234.654 162.702 216.798 147.145L216.621 147.027C214.559 144.906 213.38 143.609 212.32 142.608C210.139 140.368 209.609 139.661 207.664 137.422C207.37 137.068 207.134 136.891 206.78 136.479C200.888 129.82 185.448 111.965 162.996 111.965Z" fill="#323A50"/>
<path opacity="0.2" d="M204.718 146.614C207.664 144.964 209.255 143.786 206.25 140.368C201.182 134.593 185.861 115.559 162.702 114.97H162.466C139.307 115.559 124.045 134.593 118.918 140.368C115.912 143.786 118.27 145.848 119.625 146.85C125.577 143.02 130.998 140.073 138.011 137.775C138.246 137.716 147.027 133.532 161.877 133.414C161.936 133.414 171.954 133.355 181.382 136.302C192.991 139.307 198.53 143.079 204.718 146.614Z" fill="url(#paint0_linear_3569_15923)"/>
<path opacity="0.2" d="M162.171 277.318C199.599 277.318 229.939 247.109 229.939 209.844C229.939 172.58 199.599 142.371 162.171 142.371C124.744 142.371 94.4036 172.58 94.4036 209.844C94.4036 247.109 124.744 277.318 162.171 277.318Z" fill="url(#paint1_radial_3569_15923)"/>
<path opacity="0.34" d="M233.239 178.377C233.18 178.2 233.121 178.023 233.004 177.905C232.768 178.377 232.355 178.789 231.825 179.143C230.47 179.968 228.289 179.555 227.523 178.023C227.111 177.198 226.698 176.432 226.168 175.666C225.932 175.254 225.638 174.9 225.343 174.488C225.225 174.311 225.225 174.311 225.343 174.488C225.284 174.429 225.225 174.311 225.166 174.252C225.048 174.075 224.871 173.898 224.754 173.721C223.516 172.307 222.043 170.893 220.864 170.068C220.098 169.538 219.332 169.066 218.507 168.654C218.271 168.536 218.036 168.418 217.8 168.3C217.741 168.3 217.741 168.3 217.741 168.241C217.329 168.064 216.916 167.946 216.445 167.829C215.973 167.711 215.502 167.593 215.03 167.534C215.03 167.534 214.323 167.416 214.382 167.416C214.205 167.416 214.088 167.357 213.911 167.357C212.791 167.239 211.73 167.239 210.611 167.239C206.545 167.357 203.127 168.005 199.12 168.477C194.995 168.948 190.87 169.302 186.745 169.596C178.613 170.186 170.48 171.129 162.289 171.246C158.282 171.305 154.275 170.598 150.327 169.891C146.438 169.184 142.784 168.654 139.013 168.241C131.116 167.357 123.102 166.886 115.146 167.593C113.555 167.711 112.318 166.296 112.023 164.823C111.964 164.823 111.905 164.823 111.788 164.882C111.316 165 110.904 165.118 110.432 165.295C110.196 165.354 109.961 165.471 109.666 165.589C109.548 165.648 109.489 165.648 109.43 165.707C107.545 166.532 105.777 167.593 104.127 168.889C104.068 168.948 103.714 169.243 103.714 169.243C103.479 169.42 103.243 169.596 103.066 169.832C102.654 170.186 102.3 170.539 101.888 170.893C101.121 171.659 100.414 172.425 99.7072 173.25C99.6482 173.309 99.6482 173.368 99.5893 173.368C99.5893 173.368 99.5304 173.427 99.5304 173.486C99.3536 173.721 99.2357 173.898 99.0589 174.134C98.7643 174.546 98.5286 174.9 98.2929 175.313C98.0572 175.725 97.8215 176.079 97.6447 176.491C97.5857 176.609 97.35 177.375 97.5857 176.609C97.5268 176.845 97.409 177.021 97.35 177.257C96.7607 178.907 95.2286 179.85 93.4607 179.438C92.8714 179.32 92.3411 178.966 91.9875 178.495C91.9286 178.613 92.0464 178.73 91.9875 178.848C88.0393 188.1 85.7411 198.236 85.7411 208.902C85.7411 251.389 120.155 285.804 162.643 285.804C205.13 285.804 239.545 251.389 239.545 208.902C239.545 198 237.305 187.688 233.239 178.377Z" fill="url(#paint2_linear_3569_15923)"/>
<g opacity="0.2">
<path d="M222.75 237.482L222.279 237.423C221.984 239.78 215.148 242.962 213.675 243.198C213.086 243.316 212.732 243.139 212.379 243.021C211.907 242.785 211.377 242.609 210.434 243.139C208.902 244.082 203.598 249.857 202.42 252.685C201.241 255.514 200.534 257.046 197.823 258.166C196.409 258.755 194.17 258.755 191.812 258.755C189.691 258.755 187.452 258.755 185.684 259.226C183.091 259.934 180.616 261.112 179.437 261.701C180.086 260.994 180.675 260.287 181.264 259.58C182.325 258.342 183.268 257.223 183.857 256.81C184.623 256.221 187.393 255.926 190.339 255.632C194.287 255.219 198.766 254.748 200.18 253.392C201.771 251.919 203.952 246.321 205.779 241.784C206.721 239.367 207.546 237.305 208.018 236.48C208.548 235.596 210.021 234.594 211.612 233.534C214.323 231.766 217.329 229.703 217.27 227.287H216.798C216.857 229.467 213.911 231.412 211.318 233.121C209.609 234.241 208.136 235.242 207.605 236.185C207.134 237.069 206.25 239.132 205.307 241.548C203.539 246.026 201.3 251.566 199.827 252.98C199.296 253.451 198.295 253.864 196.998 254.159C197.823 253.687 198.884 252.98 199.591 252.037C200.887 250.387 201.948 246.498 202.537 244.435C202.655 244.082 202.714 243.787 202.773 243.551C202.95 242.903 202.714 242.491 202.479 242.078C202.184 241.666 201.889 241.135 202.066 239.957C202.302 238.66 203.009 238.13 203.775 237.6C204.305 237.246 204.836 236.834 205.248 236.185C206.25 234.594 205.602 233.003 205.307 232.119V232.06C205.071 231.471 204.541 231.53 204.129 231.53C203.716 231.589 203.48 231.589 203.362 231.353C203.245 231.117 203.539 230.646 203.893 230.175C204.364 229.467 204.954 228.642 204.6 227.935L204.187 228.112C204.423 228.642 203.952 229.291 203.539 229.88C203.127 230.528 202.714 231.117 203.009 231.589C203.304 232.06 203.834 232.06 204.246 232.001C204.659 231.942 204.836 231.942 204.954 232.237V232.296C205.248 233.121 205.779 234.594 204.954 235.95C204.6 236.48 204.129 236.834 203.598 237.246C202.773 237.835 201.948 238.425 201.654 239.898C201.418 241.253 201.771 241.842 202.125 242.314C202.361 242.667 202.479 242.903 202.361 243.375C202.302 243.551 202.243 243.905 202.125 244.259C201.595 246.144 200.475 250.151 199.237 251.684C197.823 253.392 195.407 254.335 195.171 254.453C193.639 254.689 191.93 254.866 190.28 255.042C187.157 255.396 184.446 255.691 183.562 256.28C182.914 256.751 181.971 257.871 180.852 259.109C178.73 261.584 175.843 265.001 173.839 264.884C172.779 264.825 171.659 264.589 170.48 264.353C168.064 263.882 165.354 263.292 162.466 263.823C156.455 264.942 154.393 266.121 153.214 267.535C152.036 268.891 151.446 270.659 151.446 270.717L151.859 270.894C151.859 270.894 152.448 269.126 153.568 267.889C154.687 266.534 156.691 265.414 162.584 264.294C165.412 263.764 168.064 264.294 170.421 264.825C171.659 265.06 172.779 265.296 173.839 265.414C175.312 265.532 177.139 264.059 178.789 262.232L178.907 262.409C178.966 262.409 182.266 260.523 185.743 259.58C187.393 259.167 189.632 259.109 191.754 259.109C194.17 259.109 196.409 259.109 197.941 258.519C200.829 257.4 201.595 255.691 202.773 252.803C203.893 250.092 209.137 244.376 210.611 243.434C211.318 243.021 211.671 243.139 212.143 243.316C212.496 243.492 212.968 243.669 213.734 243.551C215.384 243.375 222.396 240.134 222.75 237.482Z" fill="url(#paint3_linear_3569_15923)"/>
<path d="M167.18 248.384C166.355 249.209 166.532 250.564 166.65 252.214C166.768 253.746 166.945 255.455 166.237 256.869C164.882 259.639 158.871 261.819 158.812 261.819L158.989 262.291C159.225 262.173 165.236 260.051 166.709 257.105C167.475 255.573 167.298 253.805 167.121 252.214C167.004 250.741 166.886 249.444 167.534 248.796C168.241 248.089 170.775 247.5 173.014 247.028C175.607 246.439 177.788 245.967 178.377 245.201C178.907 244.494 179.025 243.846 179.084 243.257C179.202 242.609 179.261 242.137 179.85 241.725C180.145 241.548 181.677 241.607 183.327 241.725C187.864 241.96 194.7 242.373 197.116 239.014C199.061 236.303 198.413 234.359 197.823 232.591C197.352 231.176 196.939 229.998 197.823 228.525C198.53 227.346 199.709 226.992 201.064 226.521C203.716 225.696 206.957 224.635 209.079 217.859C209.55 216.267 209.314 214.617 209.079 213.026C208.725 210.905 208.43 208.96 209.668 207.134L209.314 206.839C207.959 208.842 208.312 211.023 208.607 213.085C208.843 214.676 209.079 216.209 208.666 217.682C206.662 224.223 203.48 225.225 200.946 226.05C199.473 226.521 198.236 226.934 197.47 228.23C196.527 229.88 196.998 231.294 197.47 232.709C198.059 234.417 198.648 236.185 196.821 238.66C194.523 241.842 187.57 241.43 183.386 241.194C181.795 241.076 180.793 241.076 180.204 241.135C180.498 240.487 180.616 239.603 180.793 238.542C181.087 236.775 181.441 234.771 182.443 233.651C182.973 233.121 183.68 232.885 184.682 232.591C186.98 231.942 190.163 231 192.696 224.517V224.459C193.168 222.219 192.638 220.628 192.107 219.685C191.871 219.273 191.4 219.037 190.929 218.801C190.398 218.566 189.809 218.271 189.337 217.564C188.512 216.326 188.159 209.432 188.454 208.135C188.454 208.017 188.513 207.959 188.513 207.959C188.571 207.9 188.866 208.017 189.102 208.076C189.809 208.312 191.046 208.784 192.52 207.723L192.107 207.428C190.811 208.371 189.868 208.017 189.102 207.723C188.689 207.605 188.395 207.487 188.159 207.605C187.982 207.664 187.923 207.841 187.864 208.076C187.57 209.373 187.864 216.444 188.807 217.859C189.338 218.684 190.045 218.978 190.575 219.214C190.988 219.391 191.341 219.567 191.518 219.862C191.989 220.687 192.52 222.16 192.048 224.282C189.632 230.528 186.568 231.412 184.329 232.06C183.327 232.355 182.502 232.591 181.913 233.239C180.793 234.476 180.439 236.539 180.145 238.366C179.909 239.603 179.732 240.723 179.379 241.253C178.73 241.725 178.613 242.373 178.495 243.021C178.377 243.61 178.318 244.141 177.846 244.789C177.375 245.378 174.9 245.967 172.779 246.439C170.304 247.087 167.946 247.617 167.18 248.384Z" fill="url(#paint4_linear_3569_15923)"/>
<path d="M167.829 201.889C168.418 202.537 168.889 203.009 168.595 204.423C168.418 205.366 167.887 206.721 167.298 208.135C166.296 210.669 165.295 213.321 165.766 214.5C166.002 215.089 166.355 215.502 166.709 215.914C167.475 216.739 168.182 217.623 167.829 220.275C167.475 222.396 166.355 224.046 165.471 225.402C164.705 226.58 163.998 227.582 164.057 228.525C164.116 229.291 164.529 229.821 164.941 230.293C165.648 231.177 166.414 232.119 165.412 234.477C164.646 236.303 163.586 236.716 162.761 237.128C161.818 237.541 161.052 237.894 161.346 239.603C161.641 241.43 162.82 242.609 163.939 243.787C164.764 244.612 165.589 245.496 166.12 246.616L166.532 246.38C165.943 245.202 165.059 244.318 164.234 243.434C163.114 242.314 162.054 241.194 161.759 239.485C161.523 238.13 162.054 237.894 162.937 237.482C163.821 237.069 165 236.539 165.825 234.594C166.945 232.002 166.061 230.882 165.236 229.939C164.823 229.468 164.47 228.996 164.411 228.407C164.352 227.641 164.941 226.698 165.707 225.578C166.65 224.223 167.77 222.514 168.123 220.275C168.536 217.387 167.711 216.385 166.945 215.502C166.591 215.089 166.296 214.735 166.061 214.205C165.648 213.203 166.709 210.493 167.593 208.194C168.182 206.721 168.654 205.366 168.889 204.364C169.243 202.714 168.654 202.066 168.005 201.418C167.593 200.946 167.121 200.475 166.945 199.591L166.473 199.709C166.886 200.887 167.416 201.418 167.829 201.889Z" fill="url(#paint5_linear_3569_15923)"/>
<path d="M170.186 265.532C168.595 264.766 164.587 264.412 162.171 264.825C159.814 265.237 155.63 266.18 154.039 267.948C153.096 268.95 152.271 270.894 152.271 270.953L152.684 271.13C152.684 271.13 153.509 269.185 154.393 268.242C155.984 266.534 160.404 265.591 162.23 265.296C164.823 264.825 168.595 265.296 169.95 265.944C171.423 266.651 171.954 267.712 172.012 268.242C172.248 269.892 169.479 271.366 169.479 271.366L169.714 271.778C169.832 271.719 172.72 270.128 172.484 268.184C172.425 267.476 171.718 266.298 170.186 265.532Z" fill="url(#paint6_linear_3569_15923)"/>
<path d="M171.364 237.069C172.189 237.423 173.014 237.717 173.545 238.483C174.193 239.367 175.489 241.665 173.78 243.669C173.073 244.494 171.305 245.142 169.596 245.79C167.888 246.38 166.355 246.969 165.825 247.735C165.295 248.56 165.413 249.974 165.53 251.624C165.648 253.098 165.766 254.571 165.413 255.808C164.705 258.224 158.636 261.112 158.577 261.171L158.754 261.583C158.989 261.465 165.059 258.578 165.825 255.926C166.179 254.63 166.061 253.039 166.002 251.565C165.884 250.092 165.825 248.678 166.237 247.971C166.65 247.323 168.241 246.733 169.773 246.203C171.541 245.555 173.368 244.907 174.134 243.964C175.489 242.373 175.43 240.251 173.957 238.189C173.368 237.305 172.425 236.951 171.6 236.598C170.775 236.244 169.95 235.949 169.655 235.183C168.948 233.651 169.479 231.942 170.421 231.353C170.657 231.176 170.893 231.058 171.188 230.882C172.013 230.351 172.896 229.88 173.957 228.701C175.371 227.169 177.964 220.982 178.495 217.976C178.789 216.208 178.318 215.442 177.788 214.617C177.375 213.969 176.962 213.321 176.845 212.024L176.373 212.083C176.491 213.439 176.963 214.205 177.375 214.853C177.846 215.619 178.318 216.326 178.023 217.917C177.552 220.864 175.018 226.933 173.604 228.407C172.602 229.526 171.718 229.998 170.952 230.469C170.716 230.646 170.421 230.764 170.186 230.94C169.066 231.707 168.418 233.651 169.243 235.36C169.596 236.362 170.48 236.715 171.364 237.069Z" fill="url(#paint7_linear_3569_15923)"/>
</g>
<g opacity="0.2">
<path d="M151.329 263.764C151.152 262.526 149.737 261.584 148.323 260.523C147.204 259.757 145.495 258.814 144.021 257.989C142.725 257.282 141.546 256.634 141.134 256.28C141.016 256.162 140.898 256.044 140.78 255.867C140.073 254.748 139.543 252.037 139.661 249.857C139.72 248.619 139.602 247.676 139.543 246.91C139.425 246.085 139.366 245.496 139.602 244.966C139.779 244.553 140.073 244.494 140.545 244.435C141.016 244.376 141.664 244.259 141.9 243.492C142.136 242.844 142.018 242.137 141.959 241.43C141.841 240.723 141.782 240.075 142.077 239.662C142.371 239.25 142.666 239.132 143.079 239.014C143.491 238.837 143.962 238.66 144.375 238.071C144.729 237.541 144.257 236.834 143.668 235.95C142.784 234.712 141.605 233.003 142.136 230.823C142.666 228.525 143.373 228.584 144.375 228.76C144.846 228.819 145.436 228.937 145.966 228.701C146.909 228.348 147.793 226.285 148.677 224.164C149.384 222.514 150.091 220.805 150.68 220.334C151.387 219.803 151.977 219.685 152.566 219.567C153.155 219.45 153.686 219.332 154.098 218.801C154.57 218.153 154.334 217.269 154.098 216.503C153.98 216.032 153.804 215.56 153.921 215.325L153.509 215.089C153.332 215.442 153.45 215.973 153.627 216.621C153.804 217.328 154.039 218.094 153.686 218.507C153.391 218.919 152.979 218.978 152.389 219.096C151.8 219.214 151.093 219.332 150.327 219.921C149.62 220.451 148.912 222.16 148.146 223.928C147.38 225.814 146.496 227.935 145.73 228.23C145.259 228.407 144.788 228.348 144.316 228.289C143.255 228.112 142.195 227.994 141.546 230.705C141.016 233.062 142.254 234.889 143.196 236.185C143.668 236.892 144.08 237.482 143.904 237.776C143.609 238.248 143.255 238.366 142.843 238.542C142.43 238.66 142.018 238.837 141.664 239.367C141.252 239.957 141.37 240.723 141.487 241.43C141.605 242.078 141.664 242.726 141.487 243.257C141.311 243.787 140.898 243.846 140.486 243.905C140.014 243.964 139.484 244.023 139.189 244.73C138.954 245.378 139.012 246.085 139.13 246.91C139.248 247.676 139.366 248.56 139.248 249.798C139.13 251.153 139.307 252.803 139.661 254.159C138.659 252.567 137.362 249.975 137.186 247.5C137.009 245.437 137.421 244.671 137.952 243.551C138.482 242.491 139.13 241.194 139.661 238.307C140.368 234.123 138.541 230.292 137.362 228.289C137.48 227.876 138.305 225.107 140.486 224.341L141.605 223.928C143.668 223.162 145.495 222.573 146.437 222.042C147.675 221.394 148.677 219.273 148.854 217.976C148.971 217.21 148.618 216.739 148.264 216.326C147.97 215.914 147.675 215.56 147.734 214.971C147.793 214.441 148.559 213.969 149.443 213.38C150.68 212.555 152.271 211.494 152.92 209.726C153.686 207.664 152.92 206.721 152.271 205.896C151.918 205.484 151.623 205.13 151.505 204.6L151.093 204.717C151.27 205.307 151.623 205.778 151.918 206.191C152.566 207.016 153.155 207.782 152.507 209.609C151.918 211.2 150.445 212.201 149.207 213.026C148.205 213.734 147.38 214.264 147.321 214.971C147.262 215.796 147.616 216.267 147.97 216.68C148.264 217.092 148.559 217.387 148.441 217.976C148.205 219.332 147.204 221.217 146.261 221.689C145.318 222.16 143.432 222.809 141.487 223.516L140.368 223.928C138.364 224.635 137.421 226.875 137.127 227.817C136.714 227.228 136.479 226.875 136.42 226.875C136.361 226.816 132.177 222.985 130.35 220.098C128.464 217.151 128.523 214.735 129.525 213.91C130.055 213.439 131.116 213.38 132.354 213.321C133.532 213.262 134.829 213.203 135.948 212.791C137.716 212.142 138.954 209.609 139.307 208.842C139.779 207.782 140.309 206.25 140.014 205.484C139.543 204.187 137.598 203.775 137.48 203.775L137.421 204.246C137.421 204.246 139.248 204.6 139.602 205.719C139.72 206.132 139.543 207.251 138.895 208.725C138.246 210.198 137.068 211.966 135.771 212.437C134.711 212.85 133.414 212.909 132.295 212.909C130.998 212.967 129.82 213.026 129.171 213.557C128.052 214.5 127.816 217.034 129.937 220.334C131.764 223.221 135.83 226.934 136.066 227.169C136.302 227.464 140.25 232.591 139.248 238.307C138.777 241.135 138.129 242.432 137.598 243.434C137.48 243.669 137.362 243.905 137.245 244.141C136.714 242.726 136.773 241.901 136.832 241.253C136.891 240.31 136.832 239.78 135.536 238.955C133.827 237.953 130.527 237.717 128.405 237.6C127.521 237.541 126.814 237.482 126.402 237.423C125.046 237.128 124.339 236.48 123.986 235.242C123.691 234.241 123.927 233.946 124.339 233.416C124.457 233.298 124.575 233.121 124.693 232.944C124.87 232.709 125.223 232.532 125.577 232.296C126.402 231.825 127.521 231.176 127.404 229.526C127.345 228.112 126.402 227.641 125.459 227.11C124.811 226.757 124.162 226.462 123.691 225.755C122.454 224.105 120.98 219.332 120.745 216.739C120.45 213.851 120.98 208.43 121.452 208.076C121.629 208.017 122.395 208.371 122.984 208.666C124.104 209.196 125.459 209.844 126.461 209.609C126.637 209.55 126.755 209.55 126.932 209.491C128.17 209.196 128.287 209.078 128.229 207.9C128.17 207.016 127.521 206.898 126.991 206.839C126.637 206.78 126.284 206.721 126.048 206.426C125.577 205.837 125.754 203.598 125.812 202.773L125.4 202.714C125.341 203.009 125.046 205.837 125.695 206.662C125.989 207.075 126.52 207.134 126.932 207.192C127.521 207.31 127.757 207.369 127.816 207.841C127.875 208.312 127.875 208.548 127.757 208.666C127.639 208.784 127.345 208.842 126.873 208.96C126.755 209.019 126.579 209.019 126.402 209.078C125.577 209.314 124.28 208.666 123.22 208.135C122.277 207.664 121.687 207.428 121.334 207.546C120.391 207.9 120.096 214.441 120.332 216.68C120.627 219.391 122.041 224.164 123.396 225.873C123.927 226.58 124.693 226.992 125.341 227.346C126.225 227.817 126.932 228.23 127.05 229.35C127.109 230.705 126.284 231.176 125.4 231.707C124.987 231.942 124.634 232.178 124.398 232.473C124.28 232.65 124.162 232.767 124.045 232.944C123.573 233.475 123.22 233.946 123.573 235.184C123.986 236.539 124.811 237.305 126.343 237.659C126.637 237.717 127.05 237.776 127.639 237.776C127.286 238.012 126.932 238.012 126.52 238.012C126.107 238.012 125.636 237.953 125.164 238.307C124.398 238.837 124.87 239.721 125.223 240.369C125.4 240.664 125.518 240.959 125.518 241.135C125.518 241.253 125.459 241.371 125.341 241.489C125.105 241.666 124.634 241.725 123.986 241.666C123.279 241.548 122.277 240.487 121.687 239.839C121.452 239.603 121.275 239.367 121.157 239.309C120.921 239.073 120.568 239.132 120.273 239.132C119.92 239.191 119.507 239.191 119.154 238.896C118.918 238.778 118.8 238.542 118.8 238.248C118.741 237.717 118.977 237.128 119.095 236.951C119.154 236.892 119.389 236.892 119.566 236.892C119.861 236.892 120.214 236.892 120.509 236.657C120.98 236.244 121.157 235.596 121.098 234.594C121.039 234.005 120.568 234.005 120.155 234.005C119.684 234.005 119.154 233.946 118.918 233.298C118.741 232.826 118.977 232.355 119.33 231.766C119.861 230.882 120.509 229.762 119.625 228.112C118.564 226.167 117.386 226.344 116.561 226.521C116.266 226.58 115.971 226.639 115.795 226.58C115.618 226.521 115.5 226.403 115.5 226.344C115.441 226.167 115.559 225.991 115.618 225.932L115.264 225.637C115.205 225.696 114.97 226.05 115.087 226.462C115.146 226.698 115.382 226.875 115.677 227.051C115.971 227.169 116.325 227.11 116.679 227.051C117.504 226.875 118.387 226.757 119.271 228.407C120.037 229.821 119.507 230.705 118.977 231.589C118.623 232.237 118.27 232.826 118.505 233.475C118.859 234.417 119.625 234.417 120.155 234.476C120.627 234.476 120.686 234.535 120.686 234.653C120.745 235.478 120.627 236.067 120.273 236.303C120.096 236.421 119.861 236.421 119.625 236.421C119.33 236.421 119.036 236.421 118.8 236.657C118.564 236.892 118.27 237.6 118.387 238.307C118.446 238.719 118.623 239.073 118.918 239.309C119.448 239.662 119.92 239.662 120.332 239.603C120.627 239.603 120.804 239.544 120.921 239.662C121.039 239.721 121.216 239.957 121.393 240.192C122.041 240.9 123.102 242.078 123.927 242.196C123.927 242.196 123.927 242.196 123.986 242.196C124.752 242.314 125.341 242.196 125.636 241.901C125.812 241.725 125.93 241.489 125.989 241.194C125.989 240.9 125.812 240.605 125.636 240.192C125.282 239.485 125.046 239.014 125.459 238.719C125.754 238.484 126.107 238.484 126.52 238.484C127.05 238.484 127.698 238.542 128.229 237.835C128.287 237.835 128.346 237.835 128.405 237.835C130.527 237.953 133.768 238.189 135.359 239.132C136.479 239.839 136.479 240.192 136.42 241.017C136.361 241.784 136.302 242.785 137.068 244.553C136.832 245.26 136.714 246.085 136.832 247.441C137.127 251.507 140.309 255.691 140.545 255.985C140.662 256.162 140.839 256.339 140.957 256.457C141.429 256.81 142.607 257.459 143.904 258.225C145.377 259.05 147.086 259.992 148.146 260.759C149.443 261.701 150.798 262.644 150.975 263.646C151.034 264.117 150.916 264.648 150.504 265.178C148.971 267.241 146.968 274.548 146.909 274.842L147.321 274.901C147.38 274.43 149.384 267.417 150.798 265.473C151.27 264.942 151.446 264.353 151.329 263.764Z" fill="url(#paint8_linear_3569_15923)"/>
<path d="M148.205 265.65C147.557 263.41 144.375 260.994 143.314 260.346C141.016 258.932 135.771 258.637 133.355 259.168C132.236 259.403 131.47 259.757 130.763 260.11C129.996 260.464 129.348 260.818 128.464 260.818C126.638 260.818 125.636 261.053 124.752 261.702C124.575 261.819 124.516 261.996 124.516 262.114C124.516 262.468 124.811 262.821 125.223 263.175C125.518 263.469 125.93 263.823 125.871 264.059C125.871 264.177 125.754 264.235 125.636 264.294C124.457 264.943 123.514 264.059 123.514 264L123.22 264.294C123.22 264.294 124.398 265.473 125.871 264.707C126.166 264.53 126.284 264.353 126.343 264.118C126.402 263.646 125.989 263.234 125.518 262.88C125.282 262.644 124.929 262.35 124.929 262.173L124.988 262.114C125.754 261.525 126.696 261.289 128.405 261.289C129.407 261.289 130.114 260.935 130.88 260.523C131.529 260.169 132.295 259.816 133.355 259.58C135.654 259.109 140.78 259.344 142.961 260.7C144.257 261.466 147.145 263.764 147.675 265.709C147.852 266.239 147.557 267.241 147.204 267.948C145.436 272.073 144.846 274.96 144.846 275.019L145.259 275.137C145.259 275.137 145.848 272.25 147.557 268.184C147.97 267.712 148.441 266.416 148.205 265.65Z" fill="url(#paint9_linear_3569_15923)"/>
<path d="M149.266 265.296C149.148 264.471 148.323 263.587 148.029 263.234C147.97 263.175 147.97 263.175 147.97 263.116C146.32 261.171 143.904 259.285 142.313 258.696C141.9 258.519 141.311 258.402 140.663 258.284C138.129 257.046 135.595 256.575 133.237 256.103C131.941 255.868 130.586 255.573 129.289 255.219C125.695 254.218 119.684 248.207 119.448 247.912C119.271 247.677 115.205 242.491 114.793 240.723C114.616 239.957 113.791 236.068 113.32 235.007C112.907 234.064 107.78 232.355 106.779 232.002H106.72C104.245 231.884 100.532 231.648 100.237 231.412C99.825 231.118 99.3536 229.762 99.4714 229.114C99.4714 228.878 99.7661 228.702 100.061 228.525C100.532 228.23 101.063 227.818 101.18 227.11C101.239 226.58 100.886 225.048 100.237 222.514C99.6482 220.098 98.8821 216.857 99.0589 216.268C99.2357 215.737 99.5893 215.678 99.8839 215.56C100.179 215.502 100.591 215.384 100.709 214.853C100.768 214.677 100.65 214.559 100.591 214.441C100.355 214.146 99.825 214.205 99.1179 214.264C98.4107 214.323 97.5268 214.382 97.1143 214.028L96.8196 214.382C97.35 214.853 98.2929 214.794 99.1179 214.735C99.5304 214.735 100.12 214.677 100.237 214.794C100.179 215.03 100.061 215.089 99.7661 215.148C99.4125 215.266 98.8822 215.384 98.6464 216.091C98.4107 216.739 98.9411 219.096 99.825 222.573C100.296 224.518 100.827 226.58 100.768 227.052C100.709 227.582 100.238 227.877 99.825 228.171C99.4125 228.407 99.0589 228.702 99 229.114C98.8821 229.88 99.4125 231.471 100.002 231.884C100.473 232.237 105.246 232.473 106.72 232.532C109.666 233.475 112.789 234.771 112.966 235.243C113.32 236.068 113.909 238.719 114.439 240.9C114.852 242.785 119.036 248.089 119.212 248.266C119.448 248.502 125.518 254.571 129.23 255.691C130.586 256.103 131.941 256.339 133.237 256.575C135.123 256.928 137.127 257.341 139.13 258.107C138.011 257.989 136.773 257.871 135.654 257.812C134.652 257.753 133.768 257.694 133.002 257.577C127.463 256.987 124.339 256.162 122.336 254.689C120.037 253.098 113.261 247.087 112.671 246.38C112.377 246.027 112.259 245.555 112.082 245.025C111.964 244.612 111.846 244.141 111.611 243.61C110.727 241.725 107.486 239.603 105.129 238.13C103.891 237.364 102.83 236.657 102.595 236.303C102.241 235.773 102.359 235.419 102.536 234.948C102.654 234.653 102.83 234.241 102.83 233.769H102.359C102.359 234.182 102.241 234.477 102.123 234.771C101.887 235.302 101.711 235.773 102.182 236.539C102.477 236.952 103.479 237.6 104.834 238.484C107.132 239.957 110.314 242.019 111.139 243.787C111.375 244.259 111.493 244.73 111.611 245.143C111.788 245.732 111.905 246.203 112.259 246.675C112.848 247.382 119.743 253.452 121.982 255.043C124.045 256.516 127.227 257.4 132.884 257.989C133.591 258.048 134.534 258.107 135.536 258.225C138.011 258.402 140.839 258.578 142.195 259.109C143.727 259.639 146.025 261.466 147.616 263.352C147.616 263.352 147.675 263.41 147.734 263.469C147.97 263.764 148.795 264.589 148.854 265.296C148.971 265.944 148.5 267.182 147.852 268.95C147.263 270.6 146.496 272.603 145.848 275.078L146.261 275.196C146.909 272.721 147.675 270.718 148.264 269.127C148.912 267.3 149.384 266.062 149.266 265.296Z" fill="url(#paint10_linear_3569_15923)"/>
<path d="M102.3 202.655C102.241 203.009 101.888 203.539 101.475 204.128C100.768 205.248 99.8839 206.486 100.414 207.428C100.709 207.959 101.416 208.43 102.241 209.019C103.773 210.021 105.659 211.318 106.484 213.675C107.721 217.387 110.845 223.987 110.904 224.046V224.105C110.963 224.164 114.793 229.35 113.437 234.418L113.85 234.536C115.205 229.409 111.552 224.282 111.257 223.869C111.257 223.811 111.139 223.634 111.021 223.398C111.552 223.28 112.73 222.927 113.496 221.866C114.086 221.1 114.321 220.098 114.204 218.861C113.968 216.798 112.966 214.912 112.082 213.203C111.316 211.73 110.668 210.493 110.786 209.609C110.845 208.843 111.316 208.666 111.905 208.548C112.613 208.371 113.496 208.077 113.673 206.544C113.85 204.894 112.73 204.187 111.788 203.657C111.021 203.186 110.609 202.891 110.668 202.361C110.786 200.887 112.848 198.884 112.907 198.825L112.612 198.471C112.495 198.53 110.373 200.652 110.255 202.302C110.196 203.127 110.904 203.598 111.611 204.011C112.495 204.541 113.438 205.13 113.261 206.486C113.143 207.723 112.495 207.9 111.788 208.077C111.139 208.253 110.432 208.43 110.373 209.55C110.314 210.552 110.962 211.907 111.729 213.38C112.554 215.03 113.555 216.916 113.791 218.861C113.909 219.921 113.732 220.805 113.202 221.512C112.436 222.514 111.257 222.809 110.845 222.868C109.961 220.923 107.839 216.327 106.896 213.498C106.071 211.023 104.009 209.668 102.477 208.666C101.711 208.136 101.004 207.664 100.768 207.252C100.355 206.544 101.121 205.425 101.77 204.423C102.182 203.775 102.595 203.186 102.654 202.773C102.713 202.125 102.123 201.182 101.357 200.121C100.709 199.119 99.9429 198 99.825 197.175L99.4125 197.234C99.5304 198.118 100.296 199.237 101.004 200.357C101.711 201.241 102.359 202.243 102.3 202.655Z" fill="url(#paint11_linear_3569_15923)"/>
<path d="M146.614 267.182C146.084 266.004 144.493 264.943 143.373 264.236C142.902 263.941 142.548 263.706 142.371 263.529C142.195 263.352 142.136 263.175 142.136 262.998C142.018 262.468 141.841 261.997 140.721 261.584C139.012 260.877 134.946 260.523 133.591 261.348C133.061 261.702 133.002 262.114 133.002 262.468C133.12 263.411 134.239 264.236 135.3 264.589C136.007 264.825 136.066 265.532 136.125 266.298C136.184 266.947 136.243 267.595 136.714 267.948C137.009 268.184 137.186 268.42 137.127 268.597C137.068 268.832 136.655 269.127 135.712 269.245C134.416 269.363 132.412 268.891 132.412 268.832L132.295 269.245C132.354 269.245 134.416 269.775 135.771 269.657C136.773 269.539 137.421 269.186 137.539 268.655C137.657 268.243 137.421 267.83 136.95 267.477C136.655 267.241 136.596 266.711 136.537 266.122C136.479 265.297 136.42 264.354 135.418 264C134.416 263.647 133.473 262.881 133.414 262.232C133.355 261.997 133.532 261.761 133.768 261.584C134.887 260.877 138.777 261.113 140.486 261.82C141.487 262.232 141.546 262.586 141.664 262.939C141.723 263.175 141.782 263.47 142.018 263.706C142.195 263.882 142.607 264.177 143.079 264.472C144.139 265.12 145.671 266.181 146.143 267.241C146.496 268.007 146.084 268.832 145.612 270.011C145.141 271.131 144.493 272.486 144.257 274.313L144.67 274.372C144.905 272.604 145.495 271.248 146.025 270.188C146.614 269.068 147.086 268.125 146.614 267.182Z" fill="url(#paint12_linear_3569_15923)"/>
</g>
<path d="M161.582 175.136C182.997 175.136 200.357 165.796 200.357 154.275C200.357 142.754 182.997 133.414 161.582 133.414C140.167 133.414 122.807 142.754 122.807 154.275C122.807 165.796 140.167 175.136 161.582 175.136Z" fill="#2A697F"/>
<path d="M161.229 154.569C170.634 154.569 178.259 150.797 178.259 146.143C178.259 141.489 170.634 137.716 161.229 137.716C151.823 137.716 144.198 141.489 144.198 146.143C144.198 150.797 151.823 154.569 161.229 154.569Z" fill="#293C4F"/>
<path d="M161.229 139.779C169.95 139.779 177.08 143.02 178.082 147.204C178.141 146.85 178.2 146.556 178.2 146.202C178.2 141.547 170.598 137.775 161.17 137.775C151.8 137.775 144.139 141.547 144.139 146.202C144.139 146.556 144.198 146.909 144.257 147.204C145.377 143.02 152.566 139.779 161.229 139.779Z" fill="#DBDBDB"/>
<path d="M178.141 148.854L177.729 147.204C176.727 143.138 169.655 140.133 161.229 140.133C152.802 140.133 145.73 143.197 144.729 147.204L144.316 148.854L143.904 147.204C143.786 146.85 143.786 146.438 143.786 146.084C143.786 143.668 145.613 141.429 148.971 139.779C152.213 138.188 156.573 137.245 161.17 137.245C165.766 137.245 170.127 138.129 173.368 139.779C176.727 141.429 178.554 143.668 178.554 146.084C178.554 146.438 178.495 146.792 178.436 147.204L178.141 148.854ZM161.229 138.129C152.625 138.129 145.495 141.311 144.729 145.377C147.027 141.842 153.627 139.367 161.229 139.367C168.83 139.367 175.43 141.842 177.729 145.377C176.963 141.311 169.891 138.129 161.229 138.129Z" fill="#323A50"/>
<path d="M161.7 133.532C140.309 133.532 122.925 142.666 122.925 153.922C122.925 165.177 140.25 174.311 161.7 174.311C183.091 174.311 200.475 165.177 200.475 153.922C200.475 142.666 183.091 133.532 161.7 133.532ZM178.259 146.32C178.259 146.379 178.318 146.438 178.318 146.438C178.318 146.497 178.318 146.555 178.318 146.614C177.611 150.857 170.304 154.157 161.346 154.157C152.625 154.157 145.495 150.975 144.493 146.909C144.493 146.791 144.434 146.673 144.434 146.614C144.434 146.555 144.434 146.497 144.434 146.438C144.434 146.379 144.434 146.438 144.434 146.379C144.434 146.261 144.434 146.143 144.434 146.143C144.434 146.143 144.434 145.789 144.434 145.613C144.493 145.023 144.67 144.434 144.964 143.963C145.259 143.432 145.612 142.902 146.084 142.489L146.143 142.43C148.912 139.661 154.746 137.775 161.523 137.775C170.893 137.775 178.554 141.429 178.554 145.966H178.377C178.259 146.084 178.318 146.202 178.259 146.32Z" fill="#DBDBDB"/>
<path d="M161.7 174.664C151.27 174.664 141.487 172.543 134.121 168.653C126.637 164.705 122.571 159.461 122.571 153.862C122.571 148.264 126.696 143.019 134.121 139.071C141.487 135.182 151.27 133.061 161.7 133.061C172.13 133.061 181.912 135.182 189.279 139.071C196.762 143.019 200.829 148.264 200.829 153.862C200.829 159.461 196.704 164.705 189.279 168.653C181.912 172.543 172.13 174.664 161.7 174.664ZM161.7 133.944C140.545 133.944 123.337 142.902 123.337 153.921C123.337 164.941 140.545 173.898 161.7 173.898C182.855 173.898 200.062 164.941 200.062 153.921C200.062 142.902 182.855 133.944 161.7 133.944ZM161.346 154.569C152.566 154.569 145.141 151.328 144.08 147.027C144.08 146.909 144.021 146.791 144.021 146.673C144.021 146.614 144.021 146.555 143.962 146.496C143.962 146.437 143.962 146.378 143.962 146.378V146.319C143.962 146.202 143.962 146.084 143.962 145.907V145.494C144.021 144.905 144.198 144.316 144.552 143.727C144.846 143.196 145.2 142.725 145.73 142.194L145.789 142.136C148.736 139.189 154.687 137.421 161.405 137.421C166.002 137.421 170.362 138.305 173.604 139.896C176.962 141.546 178.848 143.727 178.848 146.084V146.496H178.73C178.73 146.555 178.73 146.555 178.73 146.614C178.73 146.673 178.73 146.732 178.73 146.791C177.964 151.152 170.48 154.569 161.346 154.569ZM144.729 145.907C144.729 146.084 144.729 146.143 144.729 146.261V146.319C144.729 146.378 144.729 146.378 144.729 146.437C144.729 146.496 144.729 146.555 144.729 146.614C144.729 146.732 144.787 146.791 144.787 146.909C145.789 150.857 152.861 153.803 161.287 153.803C169.891 153.803 177.139 150.621 177.846 146.555V146.496C177.846 146.437 177.787 146.378 177.846 146.319C177.846 146.319 177.846 146.261 177.846 146.202C177.846 146.143 177.846 146.084 177.846 145.966V145.553H178.023C177.787 143.668 176.137 141.9 173.25 140.486C170.068 138.953 165.884 138.128 161.405 138.128C154.982 138.128 149.089 139.896 146.32 142.666L146.261 142.725C145.789 143.196 145.495 143.609 145.259 144.08C144.964 144.611 144.846 145.082 144.787 145.553C144.787 145.671 144.729 145.848 144.729 145.907Z" fill="#323A50"/>
<g opacity="0.3">
<path d="M162.702 286.452C162.643 286.452 162.584 286.452 162.584 286.452C148.971 286.452 135.418 282.68 123.455 275.55H123.396L122.807 274.961C107.839 266.298 96.5839 252.744 90.2196 235.832C87.7446 229.291 86.2125 222.278 85.5054 214.441C85.3286 210.728 85.3286 207.311 85.5054 203.657C85.6821 200.062 86.2125 196.35 87.1554 192.048C88.0982 187.687 89.5125 183.268 91.575 178.671L92.3411 179.025C90.3375 183.621 88.9232 187.923 87.9804 192.284C87.0964 196.527 86.5661 200.18 86.3893 203.775C86.2125 207.428 86.2125 210.846 86.3893 214.5C87.0375 222.278 88.5697 229.173 91.0447 235.655C97.35 252.391 108.488 265.768 123.279 274.371H123.338L123.927 274.961C148.088 289.221 177.021 289.28 201.3 275.137C202.479 274.312 203.716 273.487 205.13 272.721C217.977 264.471 227.641 252.686 233.77 237.659C234.064 236.952 234.3 236.186 234.595 235.478C234.83 234.712 235.125 233.946 235.42 233.239C240.075 219.037 240.605 204.482 237.011 190.103V190.044C236.893 189.455 234.477 182.089 233.063 178.73L233.829 178.436C235.184 181.559 237.6 188.984 237.836 189.927C241.489 204.482 240.9 219.155 236.186 233.534V233.593C235.891 234.3 235.655 235.066 235.361 235.773C235.125 236.539 234.83 237.305 234.536 238.012C228.348 253.216 218.625 265.119 205.602 273.487C204.188 274.312 202.95 275.137 201.771 275.903C189.691 282.739 176.196 286.452 162.702 286.452Z" fill="#323A50"/>
</g>
<path d="M239.132 145.141C235.361 139.838 229.35 137.48 221.159 138.07C216.445 138.423 212.379 139.661 210.729 140.25C210.611 140.014 210.434 139.838 210.198 139.779C211.671 139.248 216.032 137.834 221.1 137.422C229.409 136.832 235.773 139.366 239.604 144.729C240.252 145.377 258.991 164.705 264.943 177.67C266.475 181.088 269.657 180.911 275.373 180.557C280.146 180.263 286.629 179.85 295.35 181.323L295.232 181.972C286.57 180.498 280.087 180.911 275.373 181.205C269.539 181.559 266.062 181.795 264.295 177.964C259.462 167.357 245.968 152.448 240.959 147.145C242.727 151.741 241.666 159.284 237.777 169.655C234.123 179.555 227.877 192.048 219.273 206.839C216.091 212.32 212.791 217.682 209.609 222.75H208.843C212.084 217.682 215.443 212.084 218.684 206.545C238.071 173.368 245.084 152.154 239.132 145.141Z" fill="#323A50"/>
<path d="M214.5 145.377C214.264 144.964 212.968 142.961 212.732 142.666C212.732 142.43 214.029 143.491 213.911 143.314C213.793 142.902 213.321 142.489 212.85 142.371C212.732 141.9 212.673 141.664 212.143 141.546C212.143 141.311 211.612 141.487 211.554 141.311C212.791 142.371 214.323 143.786 215.089 145.141C218.625 151.387 213.793 170.716 200.829 202.596C197.941 209.609 194.995 216.562 192.225 222.691H191.459C203.48 195.407 219.627 154.982 214.5 145.377Z" fill="#323A50"/>
<path d="M210.257 139.72C210.375 139.779 210.552 139.897 210.67 139.956L214.618 138.424C212.673 138.895 211.141 139.367 210.257 139.72Z" fill="#323A50"/>
<path d="M211.966 141.253L222.043 137.363C221.63 137.363 221.159 137.422 220.746 137.422L211.671 140.899C211.789 141.076 211.848 141.135 211.966 141.253Z" fill="#323A50"/>
<path d="M212.909 142.725L226.345 137.539C226.05 137.48 225.755 137.48 225.461 137.48L212.673 142.43C212.673 142.489 212.732 142.548 212.732 142.548C212.732 142.607 212.85 142.666 212.909 142.725Z" fill="#323A50"/>
<path d="M214.087 144.081L229.527 138.129C229.291 138.07 229.055 138.011 228.82 137.952L213.793 143.727C213.911 143.845 214.028 143.963 214.087 144.081Z" fill="#323A50"/>
<path d="M214.736 145.554L231.884 138.954C231.707 138.896 231.53 138.778 231.295 138.719L214.559 145.142C214.677 145.26 214.677 145.378 214.736 145.554Z" fill="#323A50"/>
<path d="M215.325 147.145L233.946 139.955C233.77 139.897 233.652 139.779 233.475 139.72L215.207 146.791C215.266 146.85 215.325 147.027 215.325 147.145Z" fill="#323A50"/>
<path d="M215.561 148.501C215.561 148.619 215.561 148.737 215.561 148.854L235.714 141.076C235.596 140.958 235.478 140.899 235.302 140.781L215.502 148.383C215.561 148.442 215.561 148.501 215.561 148.501Z" fill="#323A50"/>
<path d="M215.62 150.445C215.62 150.504 215.62 150.622 215.62 150.681L237.187 142.372C237.07 142.254 236.952 142.195 236.834 142.077L215.561 150.268C215.62 150.327 215.62 150.386 215.62 150.445Z" fill="#323A50"/>
<path d="M215.502 152.095L238.189 143.374C238.307 143.492 238.366 143.61 238.484 143.728L215.502 152.567C215.502 152.39 215.502 152.213 215.502 152.095Z" fill="#323A50"/>
<path d="M215.384 153.981L239.309 144.729C239.368 144.788 239.427 144.906 239.545 145.083L215.325 154.453C215.325 154.276 215.384 154.158 215.384 153.981Z" fill="#323A50"/>
<path d="M215.148 155.866L240.193 146.202C240.252 146.32 240.311 146.438 240.37 146.556L215.089 156.338C215.148 156.161 215.148 156.043 215.148 155.866Z" fill="#323A50"/>
<path d="M214.854 157.811L240.9 147.793C240.959 147.911 240.959 148.029 241.018 148.205L214.795 158.341C214.795 158.164 214.854 157.988 214.854 157.811Z" fill="#323A50"/>
<path d="M214.5 159.638L241.254 149.325C241.254 149.443 241.313 149.62 241.313 149.738L214.441 160.109C214.441 159.932 214.5 159.814 214.5 159.638Z" fill="#323A50"/>
<path d="M214.088 161.642L241.43 151.094C241.43 151.212 241.43 151.388 241.43 151.506L213.97 162.113C214.029 161.937 214.088 161.819 214.088 161.642Z" fill="#323A50"/>
<path d="M213.675 163.645L241.489 152.92C241.489 153.038 241.489 153.215 241.489 153.332L213.557 164.116C213.557 163.94 213.616 163.763 213.675 163.645Z" fill="#323A50"/>
<path d="M213.145 165.649L241.371 154.747C241.371 154.924 241.312 155.042 241.312 155.218L212.968 166.12C213.086 166.002 213.086 165.826 213.145 165.649Z" fill="#323A50"/>
<path d="M212.614 167.594L241.136 156.574C241.136 156.751 241.077 156.869 241.077 157.046L212.496 168.065C212.555 167.889 212.614 167.712 212.614 167.594Z" fill="#323A50"/>
<path d="M212.084 169.656L240.841 158.577C240.782 158.754 240.782 158.872 240.723 159.049L211.907 170.186C211.966 169.95 212.025 169.774 212.084 169.656Z" fill="#323A50"/>
<path d="M211.495 171.66L240.429 160.522C240.37 160.699 240.37 160.817 240.311 160.994L211.318 172.19C211.377 172.014 211.436 171.837 211.495 171.66Z" fill="#323A50"/>
<path d="M210.846 173.722L239.898 162.525C239.839 162.702 239.839 162.82 239.78 162.997L210.729 174.193C210.729 174.075 210.787 173.899 210.846 173.722Z" fill="#323A50"/>
<path d="M210.257 175.666L239.368 164.411C239.309 164.588 239.25 164.765 239.191 164.883L210.08 176.138C210.139 176.02 210.198 175.843 210.257 175.666Z" fill="#323A50"/>
<path d="M209.55 177.788L238.72 166.532C238.661 166.709 238.602 166.886 238.543 167.004L209.373 178.259C209.432 178.082 209.491 177.964 209.55 177.788Z" fill="#323A50"/>
<path d="M208.843 179.85L237.953 168.595C237.895 168.772 237.836 168.948 237.777 169.125L208.666 180.322C208.725 180.145 208.784 180.027 208.843 179.85Z" fill="#323A50"/>
<path d="M208.136 181.972L237.187 170.775C237.128 170.952 237.07 171.129 237.011 171.306L207.959 182.502C208.018 182.266 208.077 182.149 208.136 181.972Z" fill="#323A50"/>
<path d="M207.37 184.034L236.362 172.838C236.304 173.015 236.245 173.191 236.186 173.368L207.252 184.565C207.252 184.388 207.311 184.211 207.37 184.034Z" fill="#323A50"/>
<path d="M206.662 186.215L235.537 175.077C235.479 175.254 235.42 175.431 235.302 175.608L206.486 186.745C206.486 186.509 206.604 186.333 206.662 186.215Z" fill="#323A50"/>
<path d="M205.896 188.278L234.594 177.199C234.536 177.376 234.418 177.553 234.359 177.73L205.661 188.808C205.72 188.631 205.837 188.455 205.896 188.278Z" fill="#323A50"/>
<path d="M205.13 190.281L233.652 179.262C233.593 179.439 233.475 179.615 233.416 179.792L204.954 190.753C205.012 190.635 205.071 190.458 205.13 190.281Z" fill="#323A50"/>
<path d="M204.364 192.285L232.709 181.324C232.65 181.501 232.532 181.678 232.473 181.855L204.187 192.756C204.246 192.639 204.305 192.462 204.364 192.285Z" fill="#323A50"/>
<path d="M203.539 194.406L231.648 183.563C231.589 183.74 231.471 183.917 231.413 184.094L203.362 194.937C203.421 194.76 203.48 194.583 203.539 194.406Z" fill="#323A50"/>
<path d="M202.714 196.528L230.588 185.803C230.529 185.98 230.411 186.156 230.352 186.333L202.538 197.058C202.596 196.881 202.655 196.705 202.714 196.528Z" fill="#323A50"/>
<path d="M201.889 198.708L229.468 188.042C229.35 188.219 229.291 188.396 229.173 188.572L201.654 199.179C201.771 199.062 201.83 198.885 201.889 198.708Z" fill="#323A50"/>
<path d="M201.064 200.711L228.407 190.163C228.289 190.34 228.23 190.517 228.112 190.693L200.887 201.183C200.946 201.065 201.005 200.888 201.064 200.711Z" fill="#323A50"/>
<path d="M200.298 202.715L227.346 192.284C227.229 192.461 227.17 192.638 227.052 192.815L200.062 203.186C200.18 203.068 200.239 202.891 200.298 202.715Z" fill="#323A50"/>
<path d="M199.414 204.896L226.109 194.583C225.991 194.76 225.932 194.937 225.814 195.113L199.179 205.426C199.296 205.249 199.355 205.072 199.414 204.896Z" fill="#323A50"/>
<path d="M198.53 207.075L224.93 196.881C224.812 197.058 224.754 197.234 224.636 197.411L198.354 207.547C198.412 207.37 198.471 207.193 198.53 207.075Z" fill="#323A50"/>
<path d="M197.646 209.256L223.693 199.238C223.575 199.415 223.516 199.592 223.398 199.769L197.47 209.786C197.47 209.61 197.529 209.433 197.646 209.256Z" fill="#323A50"/>
<path d="M196.704 211.436L222.337 201.536C222.22 201.713 222.161 201.89 222.043 202.066L196.468 211.908C196.586 211.79 196.645 211.613 196.704 211.436Z" fill="#323A50"/>
<path d="M195.878 213.439L221.159 203.657C221.041 203.834 220.923 204.011 220.864 204.188L195.643 213.97C195.702 213.793 195.761 213.616 195.878 213.439Z" fill="#323A50"/>
<path d="M194.936 215.68L219.804 206.074C219.686 206.251 219.568 206.428 219.509 206.605L194.7 216.151C194.759 216.033 194.877 215.856 194.936 215.68Z" fill="#323A50"/>
<path d="M193.993 217.801L218.448 208.372C218.33 208.549 218.212 208.726 218.154 208.902L193.757 218.331C193.875 218.154 193.934 217.977 193.993 217.801Z" fill="#323A50"/>
<path d="M193.05 220.04L217.093 210.788C216.975 210.965 216.857 211.142 216.739 211.377L192.755 220.629C192.873 220.393 192.991 220.217 193.05 220.04Z" fill="#323A50"/>
<path d="M192.166 222.043L215.855 212.909C215.737 213.086 215.62 213.263 215.502 213.498L191.93 222.573C191.989 222.397 192.107 222.22 192.166 222.043Z" fill="#323A50"/>
<path d="M193.109 223.398L214.559 215.148C214.441 215.325 214.323 215.502 214.205 215.738L194.228 223.457C193.816 223.398 193.462 223.398 193.109 223.398Z" fill="#323A50"/>
<path d="M197.882 223.399L213.086 217.506C212.968 217.683 212.85 217.859 212.732 218.095L199.002 223.399C198.648 223.34 198.295 223.399 197.882 223.399Z" fill="#323A50"/>
<path d="M202.773 223.281L211.671 219.863C211.554 220.04 211.436 220.217 211.318 220.453L203.952 223.281C203.539 223.281 203.127 223.281 202.773 223.281Z" fill="#323A50"/>
<path d="M207.605 223.281L210.139 222.338C210.021 222.515 209.904 222.75 209.786 222.927L208.725 223.34C208.371 223.281 208.018 223.281 207.605 223.281Z" fill="#323A50"/>
<path d="M86.8607 145.141C90.6321 139.838 96.6429 137.48 104.834 138.07C109.548 138.423 113.614 139.661 115.264 140.25C115.382 140.014 115.559 139.838 115.795 139.779C114.321 139.248 109.961 137.834 104.893 137.422C96.5839 136.832 90.2196 139.366 86.3893 144.729C85.741 145.377 67.0018 164.705 61.05 177.67C59.5179 181.088 56.3357 180.911 50.6196 180.557C45.8464 180.263 39.3643 179.85 30.6429 181.323L30.7607 181.972C39.4232 180.498 45.9053 180.911 50.6196 181.205C56.4536 181.559 59.9304 181.795 61.6982 177.964C66.5304 167.357 80.025 152.448 85.0339 147.145C83.2661 151.741 84.3268 159.284 88.2161 169.655C91.8696 179.555 98.1161 192.048 106.72 206.839C109.902 212.32 113.202 217.682 116.384 222.75H117.15C113.909 217.682 110.55 212.084 107.309 206.545C87.9214 173.368 80.9089 152.154 86.8607 145.141Z" fill="#323A50"/>
<path d="M111.493 145.377C111.729 144.964 113.025 142.961 113.261 142.666C113.261 142.43 111.964 143.491 112.082 143.314C112.2 142.902 112.671 142.489 113.143 142.371C113.261 141.9 113.32 141.664 113.85 141.546C113.85 141.311 114.38 141.487 114.439 141.311C113.202 142.371 111.67 143.786 110.904 145.141C107.368 151.387 112.2 170.716 125.164 202.596C128.052 209.609 130.998 216.562 133.768 222.691H134.534C122.513 195.407 106.366 154.982 111.493 145.377Z" fill="#323A50"/>
<path d="M115.736 139.72C115.618 139.779 115.441 139.897 115.323 139.956L111.375 138.424C113.32 138.895 114.852 139.367 115.736 139.72Z" fill="#323A50"/>
<path d="M114.027 141.253L103.95 137.363C104.363 137.363 104.834 137.422 105.246 137.422L114.321 140.899C114.204 141.076 114.086 141.135 114.027 141.253Z" fill="#323A50"/>
<path d="M113.084 142.725L99.6482 137.539C99.9429 137.48 100.238 137.48 100.532 137.48L113.32 142.43C113.32 142.489 113.261 142.548 113.261 142.548C113.261 142.607 113.143 142.666 113.084 142.725Z" fill="#323A50"/>
<path d="M111.905 144.081L96.4661 138.129C96.7018 138.07 96.9375 138.011 97.1732 137.952L112.2 143.727C112.082 143.845 111.964 143.963 111.905 144.081Z" fill="#323A50"/>
<path d="M111.257 145.554L94.1089 138.954C94.2857 138.896 94.4625 138.778 94.6982 138.719L111.434 145.142C111.316 145.26 111.316 145.378 111.257 145.554Z" fill="#323A50"/>
<path d="M110.609 147.145L91.9875 139.955C92.1642 139.897 92.2821 139.779 92.4589 139.72L110.727 146.791C110.727 146.85 110.668 147.027 110.609 147.145Z" fill="#323A50"/>
<path d="M110.432 148.501C110.432 148.619 110.432 148.737 110.432 148.854L90.2786 141.076C90.3965 140.958 90.5143 140.899 90.6911 140.781L110.491 148.383C110.432 148.442 110.432 148.501 110.432 148.501Z" fill="#323A50"/>
<path d="M110.373 150.445C110.373 150.504 110.373 150.622 110.373 150.681L88.8054 142.372C88.9232 142.254 89.0411 142.195 89.1589 142.077L110.432 150.268C110.373 150.327 110.373 150.386 110.373 150.445Z" fill="#323A50"/>
<path d="M110.491 152.095L87.8036 143.314C87.6857 143.432 87.6268 143.55 87.5089 143.668L110.491 152.507C110.491 152.389 110.491 152.213 110.491 152.095Z" fill="#323A50"/>
<path d="M110.609 153.981L86.6838 144.729C86.6249 144.788 86.566 144.906 86.4482 145.083L110.668 154.453C110.668 154.276 110.609 154.158 110.609 153.981Z" fill="#323A50"/>
<path d="M110.845 155.866L85.8 146.202C85.741 146.32 85.6821 146.438 85.6232 146.556L110.904 156.338C110.845 156.161 110.845 156.043 110.845 155.866Z" fill="#323A50"/>
<path d="M111.139 157.811L85.0929 147.793C85.0339 147.911 85.0339 148.029 84.975 148.205L111.198 158.341C111.198 158.164 111.139 157.988 111.139 157.811Z" fill="#323A50"/>
<path d="M111.434 159.638L84.6803 149.325C84.6803 149.443 84.6214 149.62 84.6214 149.738L111.493 160.109C111.552 159.932 111.493 159.814 111.434 159.638Z" fill="#323A50"/>
<path d="M111.905 161.642L84.5625 151.094C84.5625 151.212 84.5625 151.388 84.5625 151.506L112.023 162.113C111.964 161.937 111.905 161.819 111.905 161.642Z" fill="#323A50"/>
<path d="M112.318 163.645L84.5036 152.92C84.5036 153.038 84.5036 153.215 84.5036 153.332L112.436 164.116C112.436 163.94 112.377 163.763 112.318 163.645Z" fill="#323A50"/>
<path d="M112.848 165.649L84.6214 154.747C84.6214 154.924 84.6803 155.042 84.6803 155.218L113.025 166.12C112.907 166.002 112.907 165.826 112.848 165.649Z" fill="#323A50"/>
<path d="M113.32 167.594L84.7982 156.574C84.7982 156.751 84.8572 156.869 84.8572 157.046L113.438 168.065C113.438 167.889 113.379 167.712 113.32 167.594Z" fill="#323A50"/>
<path d="M113.909 169.656L85.1518 158.519C85.2107 158.695 85.2107 158.813 85.2696 158.99L114.086 170.127C114.027 169.951 113.968 169.774 113.909 169.656Z" fill="#323A50"/>
<path d="M114.498 171.66L85.5642 160.522C85.6232 160.699 85.6232 160.817 85.6821 160.994L114.675 172.19C114.616 172.014 114.557 171.837 114.498 171.66Z" fill="#323A50"/>
<path d="M115.146 173.722L86.0946 162.525C86.1535 162.702 86.1535 162.82 86.2125 162.997L115.264 174.193C115.264 174.075 115.205 173.899 115.146 173.722Z" fill="#323A50"/>
<path d="M115.736 175.666L86.625 164.411C86.6839 164.588 86.7428 164.765 86.8018 164.883L115.913 176.138C115.854 176.02 115.795 175.843 115.736 175.666Z" fill="#323A50"/>
<path d="M116.443 177.788L87.2732 166.532C87.3322 166.709 87.3911 166.886 87.45 167.004L116.62 178.259C116.561 178.082 116.502 177.964 116.443 177.788Z" fill="#323A50"/>
<path d="M117.15 179.85L88.0393 168.595C88.0983 168.772 88.1572 168.948 88.2161 169.125L117.327 180.38C117.268 180.145 117.209 180.027 117.15 179.85Z" fill="#323A50"/>
<path d="M117.857 181.972L88.8054 170.775C88.8643 170.952 88.9232 171.129 88.9821 171.306L118.034 182.502C117.975 182.266 117.916 182.149 117.857 181.972Z" fill="#323A50"/>
<path d="M118.564 184.034L89.5714 172.838C89.6303 173.015 89.6893 173.191 89.7482 173.368L118.682 184.565C118.682 184.388 118.623 184.211 118.564 184.034Z" fill="#323A50"/>
<path d="M119.33 186.215L90.4554 175.077C90.5143 175.254 90.5732 175.431 90.6911 175.608L119.507 186.745C119.448 186.509 119.389 186.333 119.33 186.215Z" fill="#323A50"/>
<path d="M120.096 188.278L91.3982 177.199C91.4572 177.376 91.575 177.553 91.634 177.73L120.273 188.808C120.214 188.631 120.155 188.455 120.096 188.278Z" fill="#323A50"/>
<path d="M120.863 190.281L92.3411 179.262C92.4 179.439 92.5179 179.615 92.5768 179.792L121.039 190.753C120.98 190.635 120.921 190.458 120.863 190.281Z" fill="#323A50"/>
<path d="M121.629 192.285L93.284 181.324C93.3429 181.501 93.4608 181.678 93.5197 181.855L121.805 192.756C121.746 192.639 121.688 192.462 121.629 192.285Z" fill="#323A50"/>
<path d="M122.454 194.406L94.3446 183.563C94.4036 183.74 94.5214 183.917 94.5804 184.094L122.63 194.937C122.571 194.76 122.513 194.583 122.454 194.406Z" fill="#323A50"/>
<path d="M123.22 196.528L95.3465 185.803C95.4054 185.98 95.5233 186.156 95.5822 186.333L123.396 197.058C123.396 196.881 123.338 196.705 123.22 196.528Z" fill="#323A50"/>
<path d="M124.103 198.708L96.5249 188.042C96.6428 188.219 96.7017 188.396 96.8196 188.572L124.339 199.179C124.221 199.062 124.162 198.885 124.103 198.708Z" fill="#323A50"/>
<path d="M124.87 200.711L97.5268 190.163C97.6446 190.34 97.7035 190.517 97.8214 190.693L125.046 201.183C125.046 201.065 124.987 200.888 124.87 200.711Z" fill="#323A50"/>
<path d="M125.695 202.715L98.6464 192.284C98.7642 192.461 98.8232 192.638 98.941 192.815L125.93 203.186C125.812 203.068 125.754 202.891 125.695 202.715Z" fill="#323A50"/>
<path d="M126.579 204.896L99.8839 194.583C100.002 194.76 100.061 194.937 100.179 195.113L126.814 205.367C126.696 205.249 126.638 205.072 126.579 204.896Z" fill="#323A50"/>
<path d="M127.462 207.075L101.062 196.881C101.18 197.058 101.239 197.234 101.357 197.411L127.639 207.547C127.58 207.37 127.521 207.193 127.462 207.075Z" fill="#323A50"/>
<path d="M128.346 209.256L102.3 199.238C102.418 199.415 102.477 199.592 102.595 199.769L128.523 209.786C128.523 209.61 128.405 209.433 128.346 209.256Z" fill="#323A50"/>
<path d="M129.289 211.436L103.655 201.536C103.773 201.713 103.832 201.89 103.95 202.066L129.525 211.908C129.407 211.79 129.348 211.613 129.289 211.436Z" fill="#323A50"/>
<path d="M130.114 213.439L104.834 203.657C104.952 203.834 105.07 204.011 105.129 204.188L130.35 213.911C130.291 213.793 130.232 213.616 130.114 213.439Z" fill="#323A50"/>
<path d="M131.057 215.68L106.189 206.074C106.307 206.251 106.425 206.428 106.484 206.605L131.293 216.151C131.234 216.033 131.116 215.856 131.057 215.68Z" fill="#323A50"/>
<path d="M132 217.801L107.545 208.372C107.662 208.549 107.78 208.726 107.839 208.902L132.236 218.331C132.118 218.154 132.059 217.977 132 217.801Z" fill="#323A50"/>
<path d="M132.943 220.04L108.9 210.788C109.018 210.965 109.136 211.142 109.254 211.377L133.237 220.629C133.12 220.393 133.002 220.217 132.943 220.04Z" fill="#323A50"/>
<path d="M133.827 222.043L110.137 212.909C110.255 213.086 110.373 213.263 110.491 213.498L134.062 222.573C134.004 222.397 133.886 222.22 133.827 222.043Z" fill="#323A50"/>
<path d="M132.884 223.398L111.434 215.148C111.552 215.325 111.67 215.502 111.787 215.738L131.764 223.457C132.177 223.398 132.53 223.398 132.884 223.398Z" fill="#323A50"/>
<path d="M128.111 223.399L112.907 217.506C113.025 217.683 113.143 217.859 113.261 218.095L126.991 223.399C127.345 223.34 127.698 223.399 128.111 223.399Z" fill="#323A50"/>
<path d="M123.22 223.281L114.321 219.863C114.439 220.04 114.557 220.217 114.675 220.453L122.041 223.281C122.454 223.281 122.866 223.281 123.22 223.281Z" fill="#323A50"/>
<path d="M118.329 223.281L115.795 222.338C115.912 222.515 116.03 222.75 116.148 222.927L117.209 223.34C117.621 223.281 117.975 223.281 118.329 223.281Z" fill="#323A50"/>
<path d="M161.936 103.538C156.455 103.538 151.977 99.059 151.977 93.5786C151.977 88.275 161.229 73.1304 161.582 72.4822L161.877 72.0107L162.171 72.4822C162.584 73.1304 171.777 88.275 171.777 93.5786C171.895 99.1179 167.416 103.538 161.936 103.538ZM161.936 73.3661C160.286 76.0768 152.684 88.9822 152.684 93.6375C152.684 98.7054 156.809 102.889 161.936 102.889C167.004 102.889 171.188 98.7643 171.188 93.6375C171.188 89.0411 163.586 76.0768 161.936 73.3661Z" fill="#323A50"/>
<path d="M155.925 90.5145L155.218 90.3377C156.22 86.5073 159.932 79.4948 160.109 79.2002L160.757 79.5538C160.698 79.6127 156.868 86.802 155.925 90.5145Z" fill="#323A50"/>
<path d="M157.457 98.8823C154.216 96.2895 154.864 91.9287 154.923 91.752L155.63 91.8698C155.63 91.9287 155.041 95.9948 157.929 98.352L157.457 98.8823Z" fill="#323A50"/>
<path d="M166.179 25.339V10.0176H159.696V25.339H153.921L161.995 37.4194H162.112L170.657 25.339H166.179Z" fill="#FF4200"/>
<path d="M176.138 68.2983C170.657 68.2983 166.179 63.8197 166.179 58.3393C166.179 53.0358 175.43 37.8911 175.784 37.2429L176.079 36.7715L176.373 37.2429C176.786 37.8911 185.979 53.0358 185.979 58.3393C186.096 63.8197 181.618 68.2983 176.138 68.2983ZM176.138 38.1268C174.488 40.8376 166.886 53.7429 166.886 58.3983C166.886 63.4661 171.011 67.6501 176.138 67.6501C181.205 67.6501 185.389 63.5251 185.389 58.3983C185.389 53.7429 177.788 40.8376 176.138 38.1268Z" fill="#323A50"/>
<path d="M170.127 55.2752L169.42 55.0984C170.421 51.2681 174.134 44.2556 174.311 43.9609L174.959 44.3145C174.9 44.3145 171.07 51.5038 170.127 55.2752Z" fill="#323A50"/>
<path d="M171.6 63.5835C168.359 60.9906 169.007 56.6299 169.066 56.4531L169.773 56.571C169.773 56.6299 169.184 60.696 172.071 63.0531L171.6 63.5835Z" fill="#323A50"/>
</g>
<defs>
<linearGradient id="paint0_linear_3569_15923" x1="266.612" y1="217.554" x2="66.1356" y2="70.9232" gradientUnits="userSpaceOnUse">
<stop offset="0.2655" stop-color="#032A3D" stop-opacity="0"/>
<stop offset="0.7809" stop-color="#032A3D"/>
</linearGradient>
<radialGradient id="paint1_radial_3569_15923" cx="0" cy="0" r="1" gradientUnits="userSpaceOnUse" gradientTransform="translate(162.167 209.869) scale(67.7878 67.476)">
<stop offset="0.2655" stop-color="#032A3D" stop-opacity="0"/>
<stop offset="1" stop-color="#032A3D"/>
</radialGradient>
<linearGradient id="paint2_linear_3569_15923" x1="135.59" y1="102.784" x2="185.383" y2="298.248" gradientUnits="userSpaceOnUse">
<stop offset="0.4054" stop-color="#032A3D" stop-opacity="0"/>
<stop offset="1" stop-color="#032A3D"/>
</linearGradient>
<linearGradient id="paint3_linear_3569_15923" x1="99.6728" y1="169.606" x2="230.643" y2="292.467" gradientUnits="userSpaceOnUse">
<stop offset="0.2655" stop-color="#032A3D" stop-opacity="0"/>
<stop offset="0.7809" stop-color="#032A3D"/>
</linearGradient>
<linearGradient id="paint4_linear_3569_15923" x1="106.817" y1="161.99" x2="237.788" y2="284.851" gradientUnits="userSpaceOnUse">
<stop offset="0.2655" stop-color="#032A3D" stop-opacity="0"/>
<stop offset="0.7809" stop-color="#032A3D"/>
</linearGradient>
<linearGradient id="paint5_linear_3569_15923" x1="104.267" y1="164.708" x2="235.238" y2="287.569" gradientUnits="userSpaceOnUse">
<stop offset="0.2655" stop-color="#032A3D" stop-opacity="0"/>
<stop offset="0.7809" stop-color="#032A3D"/>
</linearGradient>
<linearGradient id="paint6_linear_3569_15923" x1="79.3399" y1="191.281" x2="210.311" y2="314.142" gradientUnits="userSpaceOnUse">
<stop offset="0.2655" stop-color="#032A3D" stop-opacity="0"/>
<stop offset="0.7809" stop-color="#032A3D"/>
</linearGradient>
<linearGradient id="paint7_linear_3569_15923" x1="98.0187" y1="171.369" x2="228.989" y2="294.23" gradientUnits="userSpaceOnUse">
<stop offset="0.2655" stop-color="#032A3D" stop-opacity="0"/>
<stop offset="0.7809" stop-color="#032A3D"/>
</linearGradient>
<linearGradient id="paint8_linear_3569_15923" x1="87.7739" y1="182.29" x2="218.744" y2="305.151" gradientUnits="userSpaceOnUse">
<stop offset="0.2655" stop-color="#032A3D" stop-opacity="0"/>
<stop offset="0.7809" stop-color="#032A3D"/>
</linearGradient>
<linearGradient id="paint9_linear_3569_15923" x1="69.2395" y1="202.048" x2="200.21" y2="324.909" gradientUnits="userSpaceOnUse">
<stop offset="0.2655" stop-color="#032A3D" stop-opacity="0"/>
<stop offset="0.7809" stop-color="#032A3D"/>
</linearGradient>
<linearGradient id="paint10_linear_3569_15923" x1="72.3573" y1="198.725" x2="203.328" y2="321.586" gradientUnits="userSpaceOnUse">
<stop offset="0.2655" stop-color="#032A3D" stop-opacity="0"/>
<stop offset="0.7809" stop-color="#032A3D"/>
</linearGradient>
<linearGradient id="paint11_linear_3569_15923" x1="82.6064" y1="187.799" x2="213.577" y2="310.66" gradientUnits="userSpaceOnUse">
<stop offset="0.2655" stop-color="#032A3D" stop-opacity="0"/>
<stop offset="0.7809" stop-color="#032A3D"/>
</linearGradient>
<linearGradient id="paint12_linear_3569_15923" x1="69.2015" y1="202.089" x2="200.172" y2="324.95" gradientUnits="userSpaceOnUse">
<stop offset="0.2655" stop-color="#032A3D" stop-opacity="0"/>
<stop offset="0.7809" stop-color="#032A3D"/>
</linearGradient>
<clipPath id="clip0_3569_15923">
<rect width="330" height="330" fill="white"/>
</clipPath>
</defs>
</svg>
