<svg width="303" height="185" viewBox="0 0 303 185" fill="none" xmlns="http://www.w3.org/2000/svg">
<path opacity="0.2" d="M175.5 16.5996C170.3 16.8996 161.2 18.8996 155.7 20.4996C152.4 21.4996 149.9 18.8996 149 18.2996C143.2 21.9996 140.6 22.6996 139.5 23.8996C137.9 25.4996 136.6 26.1996 135.1 27.8996L134.4 28.8996C134.2 29.0996 133.8 29.5996 133.7 29.7996C133.5 30.1996 133 30.4996 132.8 30.8996C132.7 31.0996 132.2 31.5996 132.2 31.7996C132 32.2996 131.5 32.1996 131.3 32.6996C130.6 34.5996 129.7 35.2996 128.6 36.8996C128.7 37.4996 127.6 38.7996 127.4 39.2996C127.1 40.4996 125.5 43.3996 125.1 44.5996C122.7 51.2996 121.7 61.6996 121.4 61.8996C121 62.4996 119.7 59.0996 122.1 48.9996C122.2 48.6996 121.6 46.6996 121.4 46.4996L120.2 46.3996C119.9 46.3996 119.1 49.3996 118.8 49.3996C118.7 49.3996 118.8 61.8996 118.8 61.8996C118.7 61.8996 116.6 62.7996 116.5 62.7996C115.4 62.9996 118.1 47.9996 117 48.2996C116.8 48.2996 117.2 44.5996 117 44.6996C116.9 44.6996 115.8 44.1996 115.7 44.2996C115.7 44.4996 115.2 45.1996 114.4 44.7996C114.2 46.0996 113.2 46.6996 112.1 47.2996C112.1 47.4996 111.8 47.5996 111.7 47.8996C111.4 48.7996 111.3 49.6996 110.8 50.4996C110.8 50.8996 110.4 51.2996 110.2 51.6996C110.1 51.8996 110.1 51.9996 110 52.1996C109.9 52.8996 109.8 53.4996 109.5 54.0996C109.5 54.0996 109.5 54.1996 109.5 54.2996C109.5 54.3996 109.7 54.5996 109.7 54.6996C109.8 56.0996 109.7 57.2996 109.2 58.5996C109.2 58.6996 109.1 58.7996 109.1 58.8996C109.1 59.3996 109 59.7996 108.8 60.2996C109 61.2996 109 62.1996 108.6 63.0996C108.6 63.3996 108.8 63.8996 108.7 64.1996C108.7 64.2996 108.6 64.7996 108.6 64.8996C108.6 65.7996 108.4 66.1996 108.4 67.0996C108.4 67.3996 108.4 67.5996 108.4 67.8996C108.4 68.2996 108.5 68.6996 108.6 69.0996C108.9 71.1996 109.1 73.2996 109 75.3996C109 75.6996 109.1 75.8996 109.2 76.1996C109.2 76.1996 109.6 76.9996 109.6 77.0996C110 77.3996 109.8 77.0996 110.1 77.4996C110.4 75.2996 110.9 73.0996 111.6 70.8996C112.4 68.4996 113.5 65.5996 115.5 63.8996C116.9 62.6996 118.5 62.2996 120.1 62.4996C122.3 62.1996 124.3 62.7996 125 64.8996L126 65.6996C126.1 65.7996 126.3 65.9996 126.4 66.1996C126.5 66.3996 126.9 66.4996 127 66.6996C127.6 67.3996 127.8 68.2996 128.4 68.9996C130 70.9996 130.7 72.0996 131.4 74.4996C131.5 74.7996 131.9 76.6996 131.9 76.9996C132.9 79.0996 132.8 80.8996 133.1 83.1996C133.3 84.4996 133.3 85.7996 133.3 87.0996C133.8 88.7996 134.3 90.5996 134.3 92.3996C134.3 94.2996 134.7 96.5996 134.5 98.4996C134.1 102.7 132.8 106.5 131.5 110.5C130.8 112.8 130.7 114.7 129.2 116.6C128.7 117.1 128.7 118.3 128.2 118.8C128 119.2 127.3 119.7 127 120.1C126.1 121.3 124 123.3 122.8 123.6C120.6 125.5 116 124.1 114.6 121.5C112.6 117.7 111.1 114.4 110.6 110.2C110.5 110.3 110 109.9 109.9 110C108.9 111.2 108.2 118.8 108.8 127.5C108.9 128.9 109.7 133.9 112.5 139C112.7 139.3 114.1 141.9 115.8 141.2C118.4 140.2 115.9 125 116.5 124C116.6 123.8 119.1 124 118.8 125.7C117.9 130.3 118.3 135 119.1 137.9C119.6 139.9 121.1 138.9 121 138.5C120.4 132.2 120.8 125.8 120.8 125.1C120.7 125.2 122.3 124.5 122.6 124.4C123.1 152.7 144.9 166.9 150.3 168.5C151.7 167.6 156.1 165.6 158.6 166.4C163.1 167.9 172.2 169.4 177.3 169.4C217.7 169.9 252.6 137.5 252.6 93.0996C252.6 62.5996 237.8 37.6996 212.2 24.0996C200.6 17.7996 186.9 16.0996 175.5 16.5996Z" fill="url(#paint0_radial_2536_1597)"/>
<path opacity="0.2" d="M101.3 42.0996C101.3 42.0996 73.5998 90.7996 101 141.2C101 141.2 73.7998 126.9 70.4998 97.3996C70.2998 92.6996 70.9998 87.7996 70.9998 87.7996C73.6998 64.4996 101.3 42.0996 101.3 42.0996Z" fill="url(#paint1_radial_2536_1597)"/>
<path d="M174.6 185C161.2 185 148.3 182.2 136.3 176.7C124.7 171.4 114.4 163.8 105.8 154.3C104.4 152.9 103.2 151.8 102.2 150.8C97.6996 146.4 97.2996 146 94.1996 143.3C93.7996 143 93.3995 142.6 92.9995 142.2C89.1995 138.9 82.1996 132.8 76.1996 124.5C68.8996 114.3 65.0996 103.6 65.0996 92.7V92.4C65.1996 81.5 68.8996 70.8 76.1996 60.6C82.1996 52.3 89.1995 46.2 92.9995 42.9C93.4995 42.5 93.8996 42.2 94.1996 41.8C96.4996 39.8 97.2995 39 99.3995 37C100.6 35.8 102.3 34.2 104.9 31.6C113.5 21.8 123.8 14 135.6 8.5C147.8 2.8 160.9 0 174.5 0C187 0 199.1 2.39999 210.5 7.29999C221.5 12 231.4 18.6 239.9 27.1C248.4 35.6 255.1 45.5 259.7 56.5C264.5 67.9 267 80 267 92.5C267 94.8 267 100.1 269.8 103C271 104.2 272.8 104.8 274.9 104.8H276.2C283.3 104.8 295.1 104.7 302.7 107.4L302.2 108.7C294.9 106.1 283.2 106.2 276.2 106.2H274.9C272.4 106.2 270.3 105.5 268.8 103.9C265.6 100.7 265.6 94.9 265.6 92.5C265.6 42.2 224.7 1.39996 174.5 1.39996C148.2 1.39996 123.2 12.7 105.9 32.5C103.3 35 101.6 36.7 100.4 37.9C98.2995 40 97.4996 40.8 95.1996 42.8C94.7996 43.1 94.3995 43.5 93.9995 43.9C86.5995 50.4 66.7996 67.5 66.5996 92.4V92.7C66.7996 117.6 86.5995 134.7 93.9995 141.2C94.4995 141.6 94.8996 141.9 95.1996 142.3C98.2996 145 98.6996 145.5 103.2 149.8C104.2 150.7 105.4 151.9 106.8 153.3C124.1 172.5 148.8 183.6 174.6 183.6C210.7 183.6 243.7 161.7 258.6 127.8C258.9 127.2 259.5 126.7 260.2 126.4C261.9 125.8 264.2 126.3 266.6 127.6C268.3 128.6 270.1 129.7 272.1 130.9C279 135.1 286.8 139.9 295.4 141.4L295.2 142.7C286.4 141.2 278.4 136.3 271.4 132C269.5 130.8 267.7 129.7 266 128.8C263 127.1 261.2 127.5 260.7 127.7C260.3 127.8 260 128.1 259.9 128.3C252.6 144.9 241 158.9 226.2 169C210.9 179.5 193.1 185 174.6 185Z" fill="#383F51"/>
<path d="M174.1 177.9C162.3 177.9 151 175.6 140.3 170.9C130 166.4 120.8 160 113 151.9L113.7 151.3C129.7 167.9 151.1 177.1 174.2 177.1C206.5 177.1 235.4 159 249.6 130C249.9 129.4 250.1 128.8 250.4 128.3C252.9 122.8 254.6 123 260.8 123.8L261.6 123.9L261.5 124.8L260.7 124.7C254.6 123.9 253.5 123.8 251.2 128.7C250.9 129.3 250.7 129.9 250.4 130.4C243.5 144.5 232.9 156.4 219.7 164.8C206 173.3 190.3 177.9 174.1 177.9Z" fill="#383F51"/>
<path d="M269.5 108C263 105.2 260.2 100.4 260.1 92.2002C259.5 46.4002 220.9 9.2002 174.1 9.2002C148.6 9.2002 127.4 21.2001 117 31.4001C116.7 31.7001 114.6 33.2002 111.2 35.7002C108.5 37.6002 105.5 39.9002 105.2 40.2002L104.6 39.5002C105 39.1002 107.3 37.4001 110.7 34.9001C113.2 33.1001 116.1 31.0002 116.4 30.7002C127 20.3002 148.4 8.2002 174.1 8.2002C185.6 8.2002 196.7 10.4002 207.3 14.7002C217.6 18.9002 226.8 24.9002 234.8 32.6002C251.4 48.4002 260.6 69.6002 260.9 92.1002C261 99.9002 263.7 104.4 269.8 107.1L269.5 108Z" fill="#383F51"/>
<path d="M178.9 170.3C177.1 170.3 175.2 170.2 173.3 170.1C168.2 169.7 163.1 168.7 158.3 167.3C157.8 167.1 156.6 167.1 155.5 167.2C154.2 167.3 152 168.2 150.5 169.1L149.8 168C151.2 167.1 153.6 166 155.4 165.9C156.4 165.8 157.9 165.8 158.7 166C163.5 167.4 168.4 168.4 173.5 168.8C213.5 171.9 248.7 140.3 251.9 98.3004C253.5 78.0004 247.4 58.3004 234.8 42.8004C222.2 27.4004 204.6 18.0004 185.3 16.5004C176.2 15.8004 167.2 16.8004 158.5 19.6004C156.6 20.2004 154.6 20.5004 153.6 20.4004C151.9 20.3004 149.9 19.3004 149 18.1004L150.1 17.3004C150.7 18.1004 152.3 19.0004 153.7 19.1004C154.6 19.1004 156.5 18.9004 158.2 18.3004C167 15.5004 176.2 14.4004 185.5 15.1004C205.2 16.6004 223.1 26.1004 236 41.9004C248.8 57.6004 255 77.7004 253.3 98.3004C251.7 119 242.5 137.8 227.4 151.4C213.7 163.7 196.7 170.3 178.9 170.3Z" fill="#383F51"/>
<path d="M301.2 111.8C294.6 109.1 286.6 109 280.2 109C274.9 108.9 270.7 108.9 268.5 107.5L269 106.7C271 107.9 275.3 108 280.2 108C286.7 108.1 294.8 108.2 301.5 110.9L301.2 111.8Z" fill="#383F51"/>
<path d="M295.8 139.1C289.8 138.4 283.5 134.9 277.4 131.5C271.3 128.2 265.6 125 260.4 124.5L260.5 123.6C265.9 124.1 271.7 127.3 277.8 130.7C283.8 134 290.1 137.4 295.9 138.2L295.8 139.1Z" fill="#383F51"/>
<path d="M101.1 142C92.2 128.4 88.4 112.8 88.7 91.7C89.4 65.5 95.3 51.9 101.1 42L101.9 42.5C96.2 52.3 90.3 65.8 89.7 91.7C89.4 112.7 93.2 128 101.9 141.5L101.1 142Z" fill="#383F51"/>
<path d="M114.4 153.2C108.2 146.8 103.8 143.9 99.9004 141.2C98.1004 140 96.5004 138.9 94.8004 137.5C87.9004 132 82.6005 126.4 78.6005 120.4C72.8005 111.8 69.9004 102.4 69.9004 92.5004V92.2004C69.9004 78.5004 77.5004 66.3004 83.9004 58.4004C91.8004 48.6004 100.7 41.8004 104.7 39.4004L105.2 40.2004C101.3 42.6004 92.5004 49.3004 84.7004 59.0004C78.4004 66.8004 70.9004 78.9004 70.9004 92.2004V92.5004C70.9004 109.1 79.0004 123.6 95.5004 136.8C97.2004 138.1 98.8005 139.3 100.6 140.5C104.5 143.1 108.9 146.1 115.2 152.6L114.4 153.2Z" fill="#383F51"/>
<path d="M181.599 175C169.899 175 155.399 173 143.199 165.4C135.499 160.6 128.699 152.1 124.999 142.7C122.299 135.5 121.699 130.8 121.199 123.1H122.099C122.599 130.7 123.199 135.4 125.799 142.5C129.399 151.6 136.199 160.1 143.599 164.8C165.599 178.7 195.699 173.6 201.499 172.4L201.699 173.3C199.099 173.6 191.399 175 181.599 175Z" fill="#383F51"/>
<path d="M117 155.8C108.8 148.4 107.6 144 106 138.5C105.9 138.1 105.8 137.8 105.7 137.4C104 130.9 103.6 121.5 104.5 110.9C104.6 109.6 105.7 108.7 107 108.7L109.9 108.9L109.8 109.4C107.1 120.4 108.9 132.6 112.2 138.1C113 139.5 113.9 140.3 114.7 140.5C114.9 140.5 115 140.5 115.1 140.4C115.9 139.8 115.8 136.5 115.7 134.6C115.7 134.3 115.7 134.1 115.7 133.9C115.6 130.4 114.9 122.9 114.9 122.8L114.8 121.8L115.6 122.4C116.6 123.1 117.6 123.6 118.4 123.8L118.8 123.9V124.3C118.8 124.3 118.2 129.9 118.5 135.1C118.6 136.9 119.2 137.8 119.6 138C119.7 138.1 119.8 138 119.8 138C120 137.8 120.4 137.1 120.2 135.2C119.3 127.6 120.1 124 120.2 123.9L121.1 124.1C121.1 124.1 120.3 127.7 121.2 135.1C121.4 136.9 121.2 138.2 120.5 138.7C120.2 138.9 119.7 139 119.3 138.8C118.4 138.4 117.8 137 117.7 135.2C117.5 130.7 117.8 126 117.9 124.6C117.3 124.4 116.6 124.1 115.9 123.7C116.1 125.8 116.6 131.1 116.6 133.9C116.6 134.1 116.6 134.4 116.6 134.6C116.7 137.6 116.7 140.2 115.6 141.1C115.3 141.3 114.9 141.4 114.5 141.3C113.4 141.1 112.4 140.1 111.4 138.5C108 133 106.1 120.7 108.7 109.7L106.9 109.6C106.1 109.6 105.4 110.1 105.4 110.9C104.5 121.4 104.9 130.7 106.6 137.1C106.7 137.5 106.8 137.8 106.9 138.2C108.4 143.6 109.6 147.9 117.6 155.1L117 155.8Z" fill="#383F51"/>
<path d="M122 62.7H121.1C121.6 54.9 122.2 50.3 124.9 43.1C128.6 33.7 135.5 25.2 143.1 20.4C165.4 6.29999 195.8 11.5 201.6 12.7L201.4 13.6C195.6 12.4 165.6 7.30004 143.5 21.2C136.1 25.8 129.3 34.4 125.7 43.5C123 50.5 122.4 55.1 122 62.7Z" fill="#383F51"/>
<path d="M106.599 77.1002C105.399 77.1002 104.299 76.2001 104.299 74.9001C103.399 64.3001 103.799 54.8001 105.499 48.4001L105.599 47.9001C107.299 42.1001 108.499 37.8002 116.999 30.2002L117.599 30.9001C109.299 38.3001 108.199 42.3002 106.499 48.2002L106.399 48.7002C104.799 55.1002 104.299 64.4001 105.199 74.9001C105.299 75.7001 105.899 76.3002 106.699 76.2002L108.499 76.1002C106.799 63.2002 108.299 50.8002 112.199 45.8002C113.199 44.6002 114.199 43.9002 115.399 43.8002C115.899 43.8002 116.299 43.9002 116.599 44.2002C117.399 45.0002 117.299 46.7002 117.099 49.0002C117.099 49.7002 116.999 50.4002 116.999 51.1002C116.899 53.4002 116.599 56.6001 116.399 58.9001C116.199 60.7001 116.099 61.8002 115.999 62.6002C116.599 62.2002 117.199 61.9002 117.899 61.7002C117.899 60.4002 117.699 55.9002 117.799 51.5002C117.899 48.5002 118.599 46.4001 119.799 45.9001C120.299 45.7001 120.799 45.8002 121.199 46.1002C121.999 46.8002 122.199 48.4002 121.699 50.1002C119.599 56.9002 120.799 62.0002 120.799 62.1002L119.899 62.3002C119.899 62.1002 118.699 56.9002 120.799 49.8002C121.299 48.3002 120.999 47.1002 120.599 46.7002C120.399 46.5002 120.199 46.6002 120.099 46.6002C119.499 46.8002 118.699 48.3001 118.599 51.4001C118.399 56.7001 118.699 61.9001 118.699 61.9001V62.3002L118.299 62.4001C117.299 62.6001 116.299 63.2002 115.499 63.8002C115.399 63.9002 115.299 63.9002 115.299 64.0002L114.999 64.1002L114.599 63.5002L114.799 63.3002C114.999 62.2002 115.699 55.1002 115.899 51.0002C115.899 50.3002 115.999 49.6001 115.999 48.9001C116.099 47.1001 116.299 45.3002 115.799 44.8002C115.699 44.7002 115.599 44.7002 115.299 44.7002C114.399 44.8002 113.499 45.4001 112.699 46.4001C109.499 50.5001 107.299 62.1002 109.199 76.5002L109.299 77.0002L106.499 77.2002C106.699 77.1002 106.699 77.1002 106.599 77.1002Z" fill="#383F51"/>
<path d="M104.8 110C104.8 109.9 102.6 102.7 102.7 91.9C102.8 83 104.3 75.5 104.3 75.5L105.2 75.7C105.2 75.8 103.7 83.1 103.6 92C103.4 102.6 105.6 109.8 105.6 109.8L104.8 110Z" fill="#383F51"/>
<path d="M109.6 84.9004H0V87.2004H109.6V84.9004Z" fill="url(#paint2_linear_2536_1597)"/>
<path d="M109.6 91.5H0V93.8H109.6V91.5Z" fill="url(#paint3_linear_2536_1597)"/>
<path d="M109.6 98H0V100.3H109.6V98Z" fill="url(#paint4_linear_2536_1597)"/>
<path d="M109.6 78.5996H0V80.8996H109.6V78.5996Z" fill="url(#paint5_linear_2536_1597)"/>
<path d="M109.6 104.4H0V106.7H109.6V104.4Z" fill="url(#paint6_linear_2536_1597)"/>
<g opacity="0.5">
<path d="M204.9 25.5996L204.8 26.0996C207.4 26.3996 211 34.0996 211.3 35.6996C211.4 36.3996 211.2 36.7996 211.1 37.1996C210.9 37.7996 210.6 38.2996 211.3 39.2996C212.3 40.9996 218.8 46.8996 221.9 48.1996C225.1 49.4996 226.8 50.2996 228 53.2996C228.6 54.8996 228.6 57.3996 228.7 59.9996C228.7 62.3996 228.7 64.8996 229.2 66.7996C230 69.6996 231.3 72.3996 232 73.6996C231.2 72.9996 230.4 72.2996 229.6 71.5996C228.2 70.3996 227 69.3996 226.5 68.6996C225.9 67.7996 225.6 64.7996 225.2 61.4996C224.7 57.0996 224.2 52.0996 222.7 50.5996C221 48.8996 214.8 46.3996 209.8 44.3996C207.1 43.2996 204.8 42.3996 203.9 41.8996C202.9 41.2996 201.8 39.6996 200.7 37.8996C198.7 34.8996 196.5 31.4996 193.8 31.5996V32.0996C196.2 31.9996 198.4 35.2996 200.3 38.1996C201.6 40.0996 202.6 41.6996 203.7 42.3996C204.7 42.9996 207 43.8996 209.7 44.8996C214.7 46.8996 220.8 49.2996 222.4 50.9996C222.9 51.5996 223.4 52.6996 223.7 54.1996C223.2 53.2996 222.4 52.0996 221.4 51.2996C219.6 49.7996 215.3 48.5996 212.9 47.9996C212.5 47.8996 212.2 47.7996 211.9 47.6996C211.2 47.4996 210.7 47.6996 210.3 47.9996C209.8 48.2996 209.3 48.6996 208 48.3996C206.6 48.1996 206 47.2996 205.4 46.4996C205 45.8996 204.5 45.2996 203.8 44.8996C202 43.7996 200.2 44.4996 199.3 44.8996H199.2C198.5 45.0996 198.6 45.7996 198.6 46.1996C198.6 46.5996 198.6 46.8996 198.4 47.0996C198.2 47.2996 197.6 46.8996 197.1 46.4996C196.3 45.9996 195.4 45.2996 194.6 45.6996L194.8 46.1996C195.4 45.8996 196.1 46.4996 196.8 46.8996C197.5 47.3996 198.2 47.7996 198.7 47.4996C199.3 47.1996 199.2 46.5996 199.2 46.0996C199.2 45.5996 199.2 45.3996 199.4 45.2996H199.5C200.4 44.8996 202 44.3996 203.6 45.2996C204.2 45.6996 204.6 46.1996 205 46.7996C205.7 47.6996 206.3 48.5996 208 48.8996C209.5 49.0996 210.2 48.6996 210.7 48.3996C211.1 48.1996 211.4 47.9996 211.9 48.1996C212.1 48.2996 212.5 48.3996 212.9 48.4996C215 49.0996 219.4 50.2996 221.2 51.6996C223.1 53.2996 224.2 55.9996 224.3 56.1996C224.6 57.8996 224.8 59.7996 225 61.5996C225.4 65.0996 225.7 68.0996 226.4 68.9996C226.9 69.6996 228.2 70.7996 229.6 71.9996C232.4 74.3996 236.2 77.5996 236 79.7996C235.9 80.9996 235.7 82.1996 235.4 83.4996C234.9 86.1996 234.2 89.1996 234.8 92.3996C236.1 99.0996 237.4 101.4 239 102.7C240.5 104 242.5 104.7 242.5 104.7L242.7 104.2C242.7 104.2 240.8 103.5 239.3 102.3C237.8 101 236.6 98.7996 235.3 92.2996C234.7 89.0996 235.3 86.1996 235.9 83.5996C236.2 82.1996 236.4 80.9996 236.5 79.7996C236.6 78.0996 235 76.1996 233 74.2996L233.2 74.1996C233.2 74.1996 231.1 70.4996 230.1 66.5996C229.6 64.6996 229.6 62.2996 229.6 59.8996C229.6 57.1996 229.6 54.6996 228.9 52.9996C227.6 49.7996 225.8 48.8996 222.5 47.5996C219.5 46.3996 213.1 40.4996 212.1 38.8996C211.6 38.0996 211.8 37.6996 212 37.1996C212.2 36.7996 212.4 36.2996 212.3 35.4996C211.5 33.7996 207.8 25.9996 204.9 25.5996Z" fill="url(#paint7_linear_2536_1597)"/>
<path d="M217 87.4C217.9 88.3 219.5 88.1 221.2 88C222.9 87.8 224.8 87.7 226.4 88.4C229.5 89.9 231.9 96.6 231.9 96.7L232.4 96.5C232.3 96.2 229.9 89.5 226.6 87.9C224.9 87.1 222.9 87.3 221.1 87.4C219.5 87.6 218 87.7 217.3 86.9C216.5 86.1 215.9 83.3 215.3 80.8C214.6 77.9 214.1 75.5 213.2 74.8C212.4 74.2 211.7 74.1 211 74C210.3 73.9 209.7 73.8 209.3 73.2C209.1 72.9 209.2 71.2 209.3 69.4C209.6 64.4 210 56.7 206.3 54C203.3 51.8 201.1 52.6 199.2 53.2C197.6 53.7 196.3 54.2 194.7 53.2C193.4 52.5 193 51.1 192.5 49.6C191.6 46.7 190.4 43 182.8 40.7C181 40.2 179.2 40.5 177.5 40.7C175.2 41.1 173 41.4 170.9 40L170.6 40.4C172.8 41.9 175.2 41.5 177.6 41.2C179.4 40.9 181.1 40.7 182.7 41.2C190 43.5 191.1 47 192 49.8C192.5 51.4 193 52.8 194.4 53.7C196.2 54.8 197.8 54.2 199.4 53.7C201.3 53.1 203.3 52.4 206.1 54.4C209.6 57 209.2 64.7 208.9 69.3C208.8 71.1 208.7 72.2 208.8 72.9C208.1 72.6 207.1 72.4 205.9 72.2C203.9 71.9 201.7 71.5 200.4 70.3C199.8 69.7 199.5 68.9 199.2 67.8C198.5 65.2 197.4 61.7 190.2 58.9C187.7 58.4 185.9 59 184.9 59.6C184.4 59.9 184.2 60.4 184 60.9C183.7 61.5 183.4 62.2 182.6 62.7C181.2 63.6 173.6 64 172.1 63.7C172 63.7 171.9 63.6 171.9 63.6C171.9 63.5 172 63.2 172.1 63C172.4 62.2 172.9 60.9 171.7 59.2L171.3 59.5C172.3 60.9 171.9 62 171.6 62.8C171.4 63.2 171.3 63.6 171.5 63.9C171.6 64.1 171.8 64.2 172 64.2C173.4 64.5 181.3 64.2 182.9 63.1C183.8 62.5 184.1 61.7 184.4 61.1C184.6 60.6 184.8 60.2 185.1 60C186 59.5 187.7 58.9 190 59.4C197 62.1 198 65.5 198.7 67.9C199 69 199.3 70 200 70.6C201.4 71.8 203.7 72.2 205.7 72.6C207.1 72.8 208.3 73.1 208.9 73.5C209.4 74.2 210.1 74.3 210.9 74.5C211.5 74.6 212.2 74.7 212.8 75.2C213.5 75.7 214.1 78.4 214.6 80.9C215.6 83.9 216.2 86.5 217 87.4Z" fill="url(#paint8_linear_2536_1597)"/>
<path d="M165.3 86.5992C166 85.8992 166.5 85.3993 168.1 85.6993C169.2 85.8993 170.7 86.4992 172.3 87.0992C175.1 88.1992 178.1 89.2992 179.4 88.7992C180.1 88.5992 180.5 88.0992 181 87.7992C181.9 86.9992 182.9 86.0992 185.9 86.5992C188.3 86.9992 190.1 88.1993 191.6 89.1993C192.9 90.0993 194 90.7993 195.1 90.6993C195.9 90.5993 196.5 90.1993 197.1 89.6993C198.1 88.8993 199.2 88.0993 201.7 89.1993C203.7 89.9993 204.2 91.1993 204.6 92.1993C205.1 93.1993 205.4 94.0992 207.4 93.7992C209.5 93.4992 210.8 92.1992 212 90.8992C212.9 89.9992 213.9 89.0992 215.1 88.3992L214.9 87.8992C213.6 88.4992 212.6 89.4992 211.6 90.3992C210.3 91.5992 209.1 92.7992 207.2 93.0992C205.7 93.2992 205.4 92.7992 205 91.7992C204.6 90.7992 204 89.4992 201.8 88.5992C198.9 87.3992 197.7 88.3993 196.6 89.1993C196 89.6993 195.6 89.9992 194.9 90.0992C194 90.1992 193 89.4993 191.8 88.6993C190.3 87.6993 188.4 86.3993 185.9 85.9993C182.7 85.4993 181.6 86.4992 180.6 87.2992C180.2 87.6992 179.7 87.9993 179.2 88.1993C178 88.6993 175.1 87.4993 172.5 86.4993C170.9 85.8993 169.4 85.2992 168.3 85.0992C166.5 84.6992 165.8 85.3992 165 86.0992C164.5 86.5992 164 87.0992 163 87.2992L163.1 87.7992C164.2 87.6992 164.8 87.1992 165.3 86.5992Z" fill="url(#paint9_linear_2536_1597)"/>
<path d="M236.1 83.9996C235.2 85.7996 234.9 90.1995 235.4 92.8995C235.9 95.4995 236.9 100.1 238.9 101.9C240 102.9 242.2 103.9 242.3 103.9L242.5 103.4C242.5 103.4 240.3 102.5 239.3 101.5C237.4 99.7996 236.4 94.7996 236 92.6996C235.5 89.7996 236 85.5995 236.7 84.0995C237.5 82.4995 238.7 81.8995 239.3 81.7995C241.1 81.5995 242.8 84.5995 242.8 84.5995L243.3 84.3995C243.2 84.2995 241.5 80.9995 239.3 81.2995C238.3 81.5995 237 82.2996 236.1 83.9996Z" fill="url(#paint10_linear_2536_1597)"/>
<path d="M204.4 82.6993C204.8 81.7993 205.1 80.8993 206 80.2993C207 79.5993 209.5 78.1992 211.8 80.0992C212.7 80.8993 213.4 82.8993 214.1 84.6993C214.8 86.5993 215.4 88.2992 216.3 88.8992C217.2 89.4992 218.8 89.3993 220.6 89.2993C222.2 89.1993 223.9 89.0993 225.2 89.4993C227.9 90.2993 231.1 96.9993 231.2 97.0993L231.7 96.8992C231.6 96.5992 228.4 89.8993 225.4 88.9993C224 88.5993 222.2 88.6993 220.6 88.7993C218.9 88.8993 217.4 88.9993 216.6 88.4993C215.9 87.9993 215.2 86.2992 214.6 84.5992C213.9 82.5992 213.2 80.5993 212.1 79.7993C210.3 78.2993 208 78.3993 205.7 79.9993C204.8 80.6993 204.3 81.6992 204 82.5992C203.6 83.4992 203.3 84.3993 202.4 84.7993C200.7 85.5993 198.8 84.9992 198.1 83.8992C197.9 83.5992 197.8 83.2993 197.6 82.9993C197 82.0993 196.5 81.0992 195.2 79.8992C193.5 78.2992 186.6 75.3992 183.2 74.8992C181.2 74.5992 180.4 75.0993 179.4 75.6993C178.7 76.1993 177.9 76.5993 176.5 76.6993V77.1993C178 77.0993 178.8 76.4993 179.6 76.0993C180.5 75.5993 181.2 75.0992 183 75.3992C186.3 75.8992 193 78.7993 194.7 80.2993C195.9 81.3993 196.5 82.3993 197 83.2993C197.2 83.5993 197.3 83.8993 197.5 84.1993C198.3 85.3993 200.5 86.1993 202.4 85.2993C203.6 84.6993 204 83.6993 204.4 82.6993Z" fill="url(#paint11_linear_2536_1597)"/>
</g>
<g opacity="0.5">
<path d="M234.1 105C232.7 105.2 231.6 106.8 230.5 108.4C229.6 109.6 228.6 111.5 227.7 113.2C226.9 114.7 226.2 115.9 225.8 116.4C225.7 116.5 225.6 116.6 225.4 116.8C224.1 117.6 221.1 118.2 218.7 118C217.3 117.9 216.3 118 215.4 118.1C214.5 118.2 213.8 118.3 213.2 118.1C212.7 117.9 212.7 117.6 212.6 117C212.5 116.5 212.4 115.8 211.6 115.5C210.9 115.2 210.1 115.3 209.3 115.5C208.5 115.7 207.8 115.7 207.4 115.4C207 115.1 206.8 114.7 206.7 114.3C206.5 113.8 206.3 113.3 205.7 112.9C205.1 112.5 204.3 113 203.4 113.7C202 114.7 200.1 116 197.7 115.4C195.1 114.8 195.2 114 195.4 112.9C195.5 112.4 195.6 111.7 195.3 111.1C194.9 110 192.6 109.1 190.2 108.1C188.4 107.3 186.5 106.5 185.9 105.8C185.3 105 185.2 104.3 185.1 103.7C185 103 184.9 102.5 184.3 102C183.6 101.4 182.6 101.8 181.7 102C181.2 102.2 180.6 102.3 180.4 102.2L180.2 102.6C180.6 102.8 181.2 102.6 181.9 102.4C182.6 102.2 183.5 101.9 184 102.3C184.5 102.7 184.5 103.1 184.7 103.7C184.8 104.3 185 105.1 185.6 106C186.2 106.8 188.1 107.6 190.1 108.4C192.2 109.3 194.6 110.2 194.9 111.1C195.1 111.6 195 112.1 194.9 112.7C194.7 113.9 194.6 115 197.6 115.8C200.2 116.4 202.2 115 203.7 114C204.5 113.5 205.1 113 205.5 113.2C206 113.5 206.2 113.9 206.4 114.4C206.6 114.8 206.7 115.3 207.3 115.7C207.9 116.2 208.8 116 209.6 115.9C210.3 115.8 211 115.7 211.7 115.9C212.3 116.1 212.4 116.5 212.4 117.1C212.5 117.6 212.6 118.2 213.3 118.5C214 118.8 214.8 118.7 215.7 118.6C216.5 118.5 217.5 118.4 218.9 118.5C220.4 118.6 222.2 118.4 223.8 118C222 119.1 219.2 120.6 216.4 120.8C214.1 121 213.3 120.6 212 119.9C210.8 119.3 209.4 118.6 206.2 118C201.6 117.2 197.3 119.2 195 120.6C194.6 120.5 191.5 119.5 190.6 117.1L190.2 115.9C189.4 113.6 188.7 111.6 188.1 110.5C187.4 109.1 185 108 183.6 107.8C182.7 107.7 182.2 108.1 181.8 108.5C181.4 108.8 181 109.2 180.3 109.1C179.7 109.1 179.1 108.2 178.5 107.2C177.6 105.8 176.4 104 174.5 103.3C172.2 102.5 171.1 103.3 170.2 104C169.7 104.4 169.3 104.7 168.8 104.9L168.9 105.4C169.6 105.2 170.1 104.8 170.5 104.5C171.4 103.8 172.2 103.1 174.3 103.8C176.1 104.5 177.2 106.1 178.1 107.5C178.9 108.7 179.5 109.6 180.3 109.6C181.2 109.7 181.7 109.2 182.2 108.9C182.6 108.5 183 108.2 183.6 108.4C185.1 108.6 187.2 109.8 187.8 110.8C188.3 111.8 189.1 113.9 189.9 116.1L190.3 117.3C191.1 119.5 193.5 120.6 194.6 120.9C193.9 121.3 193.5 121.6 193.5 121.7C193.5 121.7 189.2 126.4 186 128.5C182.7 130.6 180 130.6 179.1 129.4C178.6 128.8 178.5 127.6 178.5 126.2C178.5 124.9 178.4 123.5 177.9 122.2C177.2 120.2 174.4 118.8 173.5 118.5C172.3 117.9 170.6 117.4 169.8 117.7C168.4 118.2 167.9 120.4 167.9 120.5L168.4 120.6C168.4 120.6 168.8 118.6 170 118.2C170.5 118 171.7 118.3 173.3 119C174.9 119.7 176.9 121.1 177.4 122.5C177.9 123.7 177.9 125.1 178 126.4C178.1 127.9 178.1 129.1 178.7 129.9C179.8 131.1 182.6 131.4 186.3 129.1C189.5 127.1 193.6 122.6 193.9 122.3C194.2 122.1 199.9 117.6 206.3 118.7C209.5 119.2 210.9 120 212 120.5C212.3 120.6 212.5 120.8 212.8 120.9C211.2 121.5 210.3 121.4 209.6 121.4C208.5 121.3 208 121.4 207.1 122.8C205.9 124.7 205.7 128.3 205.6 130.8C205.5 131.8 205.5 132.6 205.4 133C205 134.5 204.4 135.3 203 135.7C201.9 136 201.5 135.7 201 135.3C200.8 135.2 200.7 135 200.5 134.9C200.2 134.7 200 134.3 199.8 133.9C199.3 133 198.5 131.7 196.7 131.8C195.1 131.9 194.6 132.9 194 133.9C193.6 134.6 193.3 135.3 192.5 135.9C190.7 137.3 185.4 138.9 182.5 139.2C179.3 139.5 173.3 138.9 172.9 138.4C172.8 138.2 173.2 137.3 173.5 136.7C174.1 135.5 174.8 133.9 174.6 132.8C174.6 132.6 174.5 132.5 174.5 132.3C174.2 130.9 174 130.8 172.7 130.9C171.7 131 171.6 131.7 171.5 132.3C171.4 132.7 171.4 133.1 171.1 133.4C170.4 133.9 168 133.7 167.1 133.6L167 134.1C167.4 134.1 170.5 134.5 171.4 133.8C171.9 133.4 171.9 132.9 172 132.4C172.1 131.8 172.2 131.5 172.7 131.4C173.2 131.3 173.5 131.4 173.6 131.4C173.7 131.5 173.8 131.8 173.9 132.4C173.9 132.6 174 132.7 174 132.9C174.2 133.8 173.5 135.3 173 136.4C172.5 137.5 172.2 138.1 172.3 138.5C172.7 139.6 180 139.9 182.4 139.7C185.4 139.4 190.7 137.8 192.7 136.3C193.5 135.7 193.9 134.9 194.3 134.2C194.8 133.2 195.2 132.4 196.6 132.3C198.1 132.2 198.7 133.2 199.2 134.1C199.5 134.6 199.7 135 200.1 135.2C200.3 135.3 200.5 135.5 200.6 135.6C201.2 136.1 201.7 136.5 203.1 136.1C204.6 135.6 205.4 134.7 205.9 133C206 132.7 206 132.2 206.1 131.6C206.4 132 206.4 132.4 206.3 132.8C206.3 133.3 206.3 133.8 206.6 134.3C207.2 135.1 208.2 134.6 208.9 134.3C209.2 134.1 209.6 134 209.7 134C209.9 134 210 134.1 210.1 134.2C210.3 134.5 210.4 135 210.3 135.7C210.2 136.5 209 137.6 208.3 138.2C208 138.4 207.8 138.7 207.7 138.8C207.5 139.1 207.5 139.5 207.5 139.8C207.5 140.2 207.6 140.6 207.3 141.1C207.1 141.3 206.9 141.5 206.6 141.5C206 141.6 205.3 141.3 205.2 141.1C205.1 141 205.1 140.8 205.1 140.6C205.1 140.3 205.1 139.9 204.9 139.5C204.5 139 203.7 138.8 202.6 138.9C202 139 201.9 139.5 201.9 140C201.9 140.5 201.9 141.1 201.1 141.4C200.6 141.6 200.1 141.3 199.4 140.9C198.4 140.3 197.1 139.6 195.3 140.6C193.1 141.8 193.4 143.1 193.5 144C193.6 144.3 193.6 144.6 193.5 144.8C193.4 145 193.3 145.1 193.2 145.1C193 145.1 192.8 145 192.7 145L192.4 145.4C192.4 145.4 192.9 145.7 193.3 145.6C193.6 145.5 193.8 145.3 193.9 144.9C194 144.6 194 144.2 193.9 143.8C193.7 142.9 193.5 141.9 195.4 140.9C197 140.1 198 140.6 199 141.2C199.7 141.6 200.4 142 201.1 141.7C202.1 141.3 202.2 140.5 202.2 139.9C202.2 139.4 202.3 139.3 202.4 139.3C203.3 139.2 204 139.4 204.3 139.8C204.5 140 204.4 140.3 204.4 140.5C204.4 140.8 204.4 141.2 204.6 141.4C204.9 141.6 205.7 142 206.4 141.9C206.9 141.9 207.3 141.6 207.5 141.3C207.9 140.7 207.9 140.1 207.8 139.7C207.8 139.4 207.8 139.2 207.9 139.1C208 139 208.2 138.8 208.5 138.6C209.3 137.9 210.6 136.7 210.7 135.8C210.8 135 210.7 134.3 210.4 133.9C210.2 133.7 209.9 133.6 209.6 133.5C209.3 133.5 208.9 133.7 208.5 133.9C207.7 134.3 207.2 134.5 206.9 134.1C206.6 133.7 206.7 133.4 206.7 132.9C206.7 132.3 206.7 131.6 206 131C206 130.9 206 130.9 206 130.8C206.1 128.4 206.4 124.8 207.4 123.1C208.2 121.9 208.6 121.9 209.5 121.9C210.3 121.9 211.5 122 213.4 121.2C214.2 121.5 215.1 121.6 216.6 121.5C221.2 121.2 225.8 117.6 226.1 117.4C226.3 117.2 226.5 117.1 226.6 116.9C227 116.4 227.7 115.1 228.6 113.6C229.5 112 230.6 110.1 231.4 108.9C232.4 107.4 233.5 105.9 234.6 105.7C235.1 105.6 235.7 105.8 236.3 106.3C238.6 108 246.8 110.2 247 110.3L247.1 109.8C246.6 109.7 238.8 107.5 236.6 105.9C235.5 105.1 234.8 104.9 234.1 105Z" fill="url(#paint12_linear_2536_1597)"/>
<path d="M236.2 108.501C233.7 109.201 231.1 112.801 230.3 114.001C228.7 116.501 228.4 122.401 229 125.101C229.2 126.301 229.7 127.201 230.1 128.001C230.5 128.901 230.9 129.601 230.9 130.601C230.9 132.601 231.2 133.701 231.9 134.701C232.1 134.901 232.2 134.901 232.4 135.001C232.8 135.001 233.2 134.601 233.6 134.201C233.9 133.901 234.3 133.401 234.5 133.501C234.6 133.501 234.7 133.701 234.8 133.801C235.5 135.101 234.5 136.101 234.5 136.201L234.9 136.601C234.9 136.601 236.2 135.301 235.3 133.601C235.1 133.301 234.9 133.101 234.6 133.101C234.1 133.001 233.7 133.501 233.2 134.001C233 134.201 232.6 134.701 232.4 134.601C232.4 134.601 232.4 134.601 232.3 134.501C231.6 133.601 231.4 132.601 231.4 130.701C231.4 129.601 231 128.801 230.6 127.901C230.2 127.201 229.8 126.301 229.6 125.101C229.1 122.601 229.4 116.801 230.8 114.401C231.7 113.001 234.2 109.801 236.4 109.101C237 108.901 238.1 109.201 238.9 109.601C243.5 111.501 246.7 112.201 246.7 112.201L246.8 111.701C246.8 111.701 243.6 111.001 239 109.101C238.5 108.801 237.1 108.201 236.2 108.501Z" fill="url(#paint13_linear_2536_1597)"/>
<path d="M235.8 107.3C234.9 107.4 233.9 108.4 233.5 108.7L233.4 108.8C231.2 110.6 229.1 113.3 228.5 115.1C228.3 115.6 228.2 116.2 228.1 116.9C226.7 119.7 226.2 122.5 225.7 125.2C225.4 126.6 225.1 128.2 224.7 129.6C223.5 133.6 216.9 140.3 216.6 140.6C216.3 140.8 210.6 145.3 208.6 145.8C207.7 146 203.4 147 202.2 147.4C201.2 147.8 199.2 153.6 198.9 154.7C198.8 157.5 198.5 161.6 198.3 161.9C198 162.4 196.4 162.9 195.7 162.8C195.5 162.8 195.2 162.5 195 162.1C194.7 161.6 194.2 161 193.4 160.9C192.8 160.8 191.1 161.2 188.3 161.9C185.6 162.6 182 163.4 181.4 163.2C180.8 163 180.7 162.6 180.6 162.3C180.5 161.9 180.4 161.5 179.8 161.4C179.6 161.4 179.4 161.4 179.4 161.5C179.1 161.7 179.1 162.3 179.2 163.1C179.2 163.9 179.3 164.9 178.9 165.3L179.3 165.6C179.8 165 179.7 164 179.7 163C179.7 162.5 179.6 161.9 179.7 161.8C179.9 161.8 180 162 180.1 162.3C180.2 162.7 180.4 163.3 181.2 163.6C181.9 163.9 184.5 163.3 188.4 162.3C190.6 161.8 192.9 161.2 193.4 161.3C194 161.4 194.3 161.9 194.6 162.3C194.9 162.7 195.2 163.1 195.6 163.2C196.4 163.3 198.2 162.7 198.6 162.1C199 161.6 199.2 156.3 199.3 154.6C200.4 151.4 201.8 147.9 202.3 147.6C203.2 147.2 206.1 146.5 208.6 146C210.7 145.5 216.6 140.9 216.8 140.7C217.1 140.4 223.8 133.7 225.1 129.5C225.5 128 225.8 126.5 226.1 125C226.5 122.9 226.9 120.7 227.8 118.4C227.7 119.6 227.6 121 227.5 122.3C227.4 123.4 227.3 124.4 227.3 125.2C226.6 131.4 225.7 134.8 224.1 137.1C222.3 139.6 215.7 147.2 214.9 147.8C214.5 148.1 214 148.3 213.4 148.4C212.9 148.5 212.4 148.7 211.8 148.9C209.7 149.8 207.4 153.5 205.7 156.1C204.8 157.5 204.1 158.6 203.7 158.9C203.1 159.3 202.7 159.2 202.2 158.9C201.8 158.7 201.4 158.6 200.9 158.6V159.1C201.4 159.1 201.7 159.3 202 159.4C202.6 159.6 203.1 159.9 204 159.3C204.5 159 205.2 157.9 206.1 156.4C207.7 153.8 210 150.3 212 149.4C212.5 149.2 213 149 213.5 148.9C214.2 148.7 214.7 148.6 215.2 148.2C216 147.6 222.7 139.9 224.5 137.4C226.1 135.1 227.1 131.6 227.8 125.3C227.9 124.5 228 123.5 228 122.4C228.2 119.6 228.4 116.5 229 115C229.6 113.3 231.6 110.7 233.7 108.9C233.7 108.9 233.8 108.9 233.8 108.8C234.1 108.5 235.1 107.6 235.8 107.5C236.5 107.4 237.9 107.9 239.8 108.6C241.6 109.3 243.9 110.1 246.6 110.8L246.7 110.3C244 109.6 241.7 108.8 239.9 108.1C238 107.7 236.7 107.2 235.8 107.3Z" fill="url(#paint14_linear_2536_1597)"/>
<path d="M166.2 159.601C166.6 159.601 167.2 160.101 167.8 160.501C169 161.301 170.4 162.201 171.5 161.701C172.1 161.401 172.6 160.601 173.2 159.601C174.3 157.901 175.7 155.801 178.3 154.901C182.4 153.501 189.8 150.001 189.8 150.001C189.9 150.001 195.6 145.701 201.3 147.201L201.4 146.701C195.7 145.201 190 149.301 189.5 149.601C189.4 149.601 189.3 149.701 189 149.801C188.9 149.201 188.5 147.901 187.3 147.001C186.4 146.301 185.3 146.101 184 146.201C181.7 146.501 179.6 147.601 177.7 148.501C176.1 149.301 174.7 150.101 173.7 150.001C172.8 149.901 172.7 149.401 172.5 148.801C172.3 148.001 172 147.001 170.3 146.801C168.5 146.601 167.7 147.901 167.1 148.901C166.6 149.701 166.2 150.201 165.7 150.201C164.1 150.101 161.8 147.701 161.8 147.701L161.4 148.001C161.5 148.101 163.8 150.501 165.6 150.601C166.5 150.701 167 149.901 167.5 149.101C168.1 148.101 168.8 147.101 170.3 147.301C171.7 147.501 171.9 148.101 172.1 148.901C172.3 149.601 172.5 150.401 173.7 150.501C174.9 150.601 176.3 149.801 178 149.001C179.8 148.101 181.9 147.001 184.1 146.701C185.3 146.501 186.3 146.801 187.1 147.401C188.2 148.201 188.5 149.601 188.6 150.001C186.4 151.001 181.3 153.301 178.2 154.401C175.4 155.301 173.9 157.601 172.8 159.301C172.2 160.201 171.7 160.901 171.2 161.201C170.4 161.701 169.1 160.801 168 160.101C167.3 159.601 166.6 159.201 166.2 159.101C165.5 159.001 164.4 159.701 163.2 160.501C162.1 161.201 160.8 162.101 160 162.201L160.1 162.701C161.1 162.501 162.4 161.701 163.6 160.901C164.6 160.201 165.7 159.501 166.2 159.601Z" fill="url(#paint15_linear_2536_1597)"/>
<path d="M237.9 110.2C236.5 110.8 235.4 112.5 234.6 113.8C234.3 114.3 234 114.7 233.8 114.9C233.6 115.1 233.4 115.1 233.2 115.2C232.6 115.3 232.1 115.5 231.6 116.8C230.8 118.7 230.4 123.2 231.4 124.7C231.8 125.3 232.3 125.4 232.6 125.4C233.6 125.3 234.6 124 235 122.9C235.3 122.1 236.1 122 236.9 122C237.6 122 238.4 121.9 238.8 121.3C239 120.9 239.3 120.8 239.5 120.8C239.8 120.9 240.1 121.3 240.2 122.3C240.4 123.7 239.8 126 239.8 126L240.3 126.1C240.3 126 240.9 123.8 240.7 122.2C240.6 121.1 240.2 120.4 239.6 120.2C239.2 120.1 238.7 120.3 238.3 120.9C238.1 121.3 237.4 121.3 236.8 121.4C235.9 121.5 234.8 121.6 234.4 122.7C234 123.9 233.1 124.8 232.4 124.9C232.1 124.9 231.9 124.8 231.7 124.5C230.9 123.2 231.2 119 232 117C232.5 115.9 232.8 115.8 233.2 115.7C233.5 115.7 233.8 115.6 234.1 115.3C234.3 115.1 234.6 114.6 235 114.1C235.7 112.9 236.9 111.2 238.1 110.7C239 110.3 239.9 110.7 241.2 111.3C242.4 111.8 243.9 112.5 246 112.8L246.1 112.3C244.1 112 242.6 111.4 241.4 110.8C240.1 110.2 239 109.8 237.9 110.2Z" fill="url(#paint16_linear_2536_1597)"/>
</g>
<path d="M119.2 122C116.4 122 114.2 119.1 112.6 113.5C111.2 108.4 110.4 101.3 110.4 93.1002C110.4 84.9002 111.2 77.9002 112.6 72.7002C114.2 67.2002 116.4 64.2002 119.2 64.2002C122 64.2002 125.1 67.4002 127.5 72.7002C130 78.4002 131.4 85.6002 131.4 93.1002C131.4 100.6 130 107.8 127.5 113.5C125.1 118.8 122 122 119.2 122ZM119.2 64.4001C113.9 64.4001 110.5 75.7002 110.5 93.2002C110.5 110.7 113.9 122 119.2 122C124.8 122 131.2 109.4 131.2 93.2002C131.2 77.0002 124.8 64.4001 119.2 64.4001Z" fill="#383F51"/>
<path d="M119.299 120.6C116.899 120.6 114.999 117.8 113.599 112.6C112.399 107.7 111.699 101.1 111.699 93.3C111.699 85.5 112.399 78.9 113.599 74C114.899 68.7 116.899 66 119.299 66C121.799 66 124.399 68.9 126.399 74C128.599 79.4 129.799 86.2 129.799 93.3C129.799 100.4 128.599 107.2 126.399 112.6C124.299 117.7 121.799 120.6 119.299 120.6ZM119.299 66.1C114.799 66.1 111.899 76.8 111.899 93.3C111.899 109.8 114.799 120.5 119.299 120.5C124.099 120.5 129.699 108.6 129.699 93.3C129.599 78 124.099 66.1 119.299 66.1Z" fill="#383F51"/>
<path d="M119.199 118.9C117.299 118.9 115.699 116.3 114.699 111.4C113.699 106.8 113.199 100.6 113.199 93.4004C113.199 86.2004 113.699 79.9004 114.699 75.4004C115.799 70.5004 117.299 67.9004 119.199 67.9004C121.199 67.9004 123.399 70.7004 125.099 75.4004C126.999 80.5004 127.999 86.9004 127.999 93.4004C127.999 99.9004 126.999 106.3 125.099 111.4C123.399 116.1 121.199 118.9 119.199 118.9ZM119.199 68.0004C115.599 68.0004 113.299 78.0004 113.299 93.4004C113.299 108.8 115.599 118.8 119.199 118.8C121.099 118.8 123.299 116 124.999 111.4C126.899 106.3 127.899 99.9004 127.899 93.4004C127.899 86.9004 126.899 80.5004 124.999 75.4004C123.299 70.7004 121.099 68.0004 119.199 68.0004Z" fill="#383F51"/>
<path d="M119.2 116.8C115.7 116.8 114.5 104.2 114.5 93.4C114.5 82.6 115.7 70 119.2 70C122.3 70 126.1 80.4 126.1 93.4C126.1 106.4 122.4 116.8 119.2 116.8ZM119.2 70.1C116.4 70.1 114.6 79.3 114.6 93.4C114.6 107.6 116.4 116.7 119.2 116.7C120.7 116.7 122.4 114.2 123.7 109.9C125.2 105.2 126 99.4 126 93.4C126 87.4 125.2 81.6 123.7 76.9C122.4 72.6 120.7 70.1 119.2 70.1Z" fill="#383F51"/>
<path d="M119.5 114.6C117 114.6 116.1 103.3 116.1 93.5004C116.1 83.7004 117 72.4004 119.5 72.4004C121.8 72.4004 124.5 81.8004 124.5 93.5004C124.6 105.2 121.8 114.6 119.5 114.6ZM119.5 72.6004C117.5 72.6004 116.2 80.8004 116.2 93.6004C116.2 106.4 117.5 114.6 119.5 114.6C121.7 114.6 124.4 104.9 124.4 93.6004C124.4 82.3004 121.8 72.6004 119.5 72.6004Z" fill="#383F51"/>
<path d="M109.1 78.8004L227.5 56.4004L227.9 58.7004L110 81.1004L109.1 78.8004Z" fill="url(#paint17_linear_2536_1597)"/>
<path d="M109.5 88.0004L227.5 56.4004L227.9 58.7004L109.1 90.2004L109.5 88.0004Z" fill="url(#paint18_linear_2536_1597)"/>
<path d="M109.1 89.3L233.4 87.5V89.8L109.1 91.6V89.3Z" fill="url(#paint19_linear_2536_1597)"/>
<path d="M109.5 104.4L232.9 88L233.4 90.2L109.5 106.7V104.4Z" fill="url(#paint20_linear_2536_1597)"/>
<path d="M109.1 91.5996L238.4 120.9L238 123.2L108.6 93.8996L109.1 91.5996Z" fill="url(#paint21_linear_2536_1597)"/>
<path d="M109.5 104.4L238.4 121.3L238 123.6L109.1 106.2L109.5 104.4Z" fill="url(#paint22_linear_2536_1597)"/>
<path d="M119.299 124.6C115.699 124.6 112.799 121.3 110.899 115.1C109.099 109.5 108.199 101.8 108.199 93.0004C108.199 84.2004 109.099 76.5004 110.899 70.9004C112.899 64.7004 115.799 61.4004 119.299 61.4004C122.999 61.4004 126.799 64.8004 129.699 70.8004C132.799 77.0004 134.499 84.9004 134.499 93.0004C134.499 101.1 132.799 109 129.699 115.2C126.799 121.2 122.999 124.6 119.299 124.6ZM119.299 62.4004C115.499 62.4004 113.199 67.1004 111.899 71.1004C110.199 76.5004 109.299 84.3004 109.299 92.9004C109.299 101.5 110.199 109.3 111.899 114.7C113.099 118.7 115.399 123.4 119.299 123.4C122.499 123.4 125.999 120.1 128.699 114.6C131.699 108.6 133.299 100.8 133.299 92.9004C133.299 84.9004 131.699 77.2004 128.699 71.2004C125.999 65.7004 122.499 62.4004 119.299 62.4004Z" fill="#383F51"/>
<defs>
<radialGradient id="paint0_radial_2536_1597" cx="0" cy="0" r="1" gradientUnits="userSpaceOnUse" gradientTransform="translate(172.418 92.8214) rotate(-90) scale(78.3669 78.0065)">
<stop offset="0.2655" stop-color="#212F3C" stop-opacity="0"/>
<stop offset="1" stop-color="#212F3C"/>
</radialGradient>
<radialGradient id="paint1_radial_2536_1597" cx="0" cy="0" r="1" gradientUnits="userSpaceOnUse" gradientTransform="translate(126.844 91.6286) rotate(-90) scale(53.5622 53.5622)">
<stop offset="0.2655" stop-color="#212F3C" stop-opacity="0"/>
<stop offset="1" stop-color="#212F3C"/>
</radialGradient>
<linearGradient id="paint2_linear_2536_1597" x1="-17.5647" y1="85.4442" x2="144.833" y2="86.7975" gradientUnits="userSpaceOnUse">
<stop offset="0.0541237" stop-color="#8DBCAD"/>
<stop offset="0.3943" stop-color="#5EA6AE"/>
<stop offset="0.5851" stop-color="#5CA7AF"/>
<stop offset="0.6633" stop-color="#5796AC"/>
<stop offset="0.8104" stop-color="#507DA7"/>
<stop offset="0.8814" stop-color="#4E74A6"/>
</linearGradient>
<linearGradient id="paint3_linear_2536_1597" x1="-17.5647" y1="91.9848" x2="144.833" y2="93.3382" gradientUnits="userSpaceOnUse">
<stop offset="0.0541237" stop-color="#8DBCAD"/>
<stop offset="0.3943" stop-color="#5EA6AE"/>
<stop offset="0.5851" stop-color="#5CA7AF"/>
<stop offset="0.6633" stop-color="#5796AC"/>
<stop offset="0.8104" stop-color="#507DA7"/>
<stop offset="0.8814" stop-color="#4E74A6"/>
</linearGradient>
<linearGradient id="paint4_linear_2536_1597" x1="-17.5647" y1="98.5258" x2="144.833" y2="99.8792" gradientUnits="userSpaceOnUse">
<stop offset="0.0541237" stop-color="#8DBCAD"/>
<stop offset="0.3943" stop-color="#5EA6AE"/>
<stop offset="0.5851" stop-color="#5CA7AF"/>
<stop offset="0.6633" stop-color="#5796AC"/>
<stop offset="0.8104" stop-color="#507DA7"/>
<stop offset="0.8814" stop-color="#4E74A6"/>
</linearGradient>
<linearGradient id="paint5_linear_2536_1597" x1="-17.5647" y1="79.128" x2="144.833" y2="80.4812" gradientUnits="userSpaceOnUse">
<stop offset="0.0541237" stop-color="#8DBCAD"/>
<stop offset="0.3943" stop-color="#5EA6AE"/>
<stop offset="0.5851" stop-color="#5CA7AF"/>
<stop offset="0.6633" stop-color="#5796AC"/>
<stop offset="0.8104" stop-color="#507DA7"/>
<stop offset="0.8814" stop-color="#4E74A6"/>
</linearGradient>
<linearGradient id="paint6_linear_2536_1597" x1="-17.5647" y1="104.887" x2="144.833" y2="106.24" gradientUnits="userSpaceOnUse">
<stop offset="0.0541237" stop-color="#8DBCAD"/>
<stop offset="0.3943" stop-color="#5EA6AE"/>
<stop offset="0.5851" stop-color="#5CA7AF"/>
<stop offset="0.6633" stop-color="#5796AC"/>
<stop offset="0.8104" stop-color="#507DA7"/>
<stop offset="0.8814" stop-color="#4E74A6"/>
</linearGradient>
<linearGradient id="paint7_linear_2536_1597" x1="104.254" y1="122.943" x2="286.951" y2="34.5263" gradientUnits="userSpaceOnUse">
<stop offset="0.0541237" stop-color="#8DBCAD" stop-opacity="0.6"/>
<stop offset="0.4794" stop-color="#5EA6AE" stop-opacity="0.6"/>
<stop offset="0.5851" stop-color="#5CA7AF" stop-opacity="0.6"/>
<stop offset="0.6633" stop-color="#5796AC" stop-opacity="0.701"/>
<stop offset="0.8104" stop-color="#507DA7" stop-opacity="0.8907"/>
<stop offset="0.8814" stop-color="#4E74A6" stop-opacity="0.9824"/>
</linearGradient>
<linearGradient id="paint8_linear_2536_1597" x1="101.361" y1="116.966" x2="284.058" y2="28.5498" gradientUnits="userSpaceOnUse">
<stop offset="0.0541237" stop-color="#8DBCAD" stop-opacity="0.6"/>
<stop offset="0.4794" stop-color="#5EA6AE" stop-opacity="0.6"/>
<stop offset="0.5851" stop-color="#5CA7AF" stop-opacity="0.6"/>
<stop offset="0.6633" stop-color="#5796AC" stop-opacity="0.701"/>
<stop offset="0.8104" stop-color="#507DA7" stop-opacity="0.8907"/>
<stop offset="0.8814" stop-color="#4E74A6" stop-opacity="0.9824"/>
</linearGradient>
<linearGradient id="paint9_linear_2536_1597" x1="106.886" y1="128.381" x2="289.583" y2="39.964" gradientUnits="userSpaceOnUse">
<stop offset="0.0541237" stop-color="#8DBCAD" stop-opacity="0.6"/>
<stop offset="0.4794" stop-color="#5EA6AE" stop-opacity="0.6"/>
<stop offset="0.5851" stop-color="#5CA7AF" stop-opacity="0.6"/>
<stop offset="0.6633" stop-color="#5796AC" stop-opacity="0.701"/>
<stop offset="0.8104" stop-color="#507DA7" stop-opacity="0.8907"/>
<stop offset="0.8814" stop-color="#4E74A6" stop-opacity="0.9824"/>
</linearGradient>
<linearGradient id="paint10_linear_2536_1597" x1="118.259" y1="151.881" x2="300.956" y2="63.4647" gradientUnits="userSpaceOnUse">
<stop offset="0.0541237" stop-color="#8DBCAD" stop-opacity="0.6"/>
<stop offset="0.4794" stop-color="#5EA6AE" stop-opacity="0.6"/>
<stop offset="0.5851" stop-color="#5CA7AF" stop-opacity="0.6"/>
<stop offset="0.6633" stop-color="#5796AC" stop-opacity="0.701"/>
<stop offset="0.8104" stop-color="#507DA7" stop-opacity="0.8907"/>
<stop offset="0.8814" stop-color="#4E74A6" stop-opacity="0.9824"/>
</linearGradient>
<linearGradient id="paint11_linear_2536_1597" x1="109.025" y1="132.802" x2="291.722" y2="44.3852" gradientUnits="userSpaceOnUse">
<stop offset="0.0541237" stop-color="#8DBCAD" stop-opacity="0.6"/>
<stop offset="0.4794" stop-color="#5EA6AE" stop-opacity="0.6"/>
<stop offset="0.5851" stop-color="#5CA7AF" stop-opacity="0.6"/>
<stop offset="0.6633" stop-color="#5796AC" stop-opacity="0.701"/>
<stop offset="0.8104" stop-color="#507DA7" stop-opacity="0.8907"/>
<stop offset="0.8814" stop-color="#4E74A6" stop-opacity="0.9824"/>
</linearGradient>
<linearGradient id="paint12_linear_2536_1597" x1="178.427" y1="73.1052" x2="239.999" y2="179.335" gradientUnits="userSpaceOnUse">
<stop offset="0.0541237" stop-color="#8DBCAD" stop-opacity="0.6"/>
<stop offset="0.4794" stop-color="#5EA6AE" stop-opacity="0.6"/>
<stop offset="0.5851" stop-color="#5CA7AF" stop-opacity="0.6"/>
<stop offset="0.6633" stop-color="#5796AC" stop-opacity="0.701"/>
<stop offset="0.8104" stop-color="#507DA7" stop-opacity="0.8907"/>
<stop offset="0.8814" stop-color="#4E74A6" stop-opacity="0.9824"/>
</linearGradient>
<linearGradient id="paint13_linear_2536_1597" x1="202.307" y1="59.2636" x2="263.88" y2="165.493" gradientUnits="userSpaceOnUse">
<stop offset="0.0541237" stop-color="#8DBCAD" stop-opacity="0.6"/>
<stop offset="0.4794" stop-color="#5EA6AE" stop-opacity="0.6"/>
<stop offset="0.5851" stop-color="#5CA7AF" stop-opacity="0.6"/>
<stop offset="0.6633" stop-color="#5796AC" stop-opacity="0.701"/>
<stop offset="0.8104" stop-color="#507DA7" stop-opacity="0.8907"/>
<stop offset="0.8814" stop-color="#4E74A6" stop-opacity="0.9824"/>
</linearGradient>
<linearGradient id="paint14_linear_2536_1597" x1="176.027" y1="74.4961" x2="237.599" y2="180.726" gradientUnits="userSpaceOnUse">
<stop offset="0.0541237" stop-color="#8DBCAD" stop-opacity="0.6"/>
<stop offset="0.4794" stop-color="#5EA6AE" stop-opacity="0.6"/>
<stop offset="0.5851" stop-color="#5CA7AF" stop-opacity="0.6"/>
<stop offset="0.6633" stop-color="#5796AC" stop-opacity="0.701"/>
<stop offset="0.8104" stop-color="#507DA7" stop-opacity="0.8907"/>
<stop offset="0.8814" stop-color="#4E74A6" stop-opacity="0.9824"/>
</linearGradient>
<linearGradient id="paint15_linear_2536_1597" x1="144.798" y1="92.5972" x2="206.371" y2="198.827" gradientUnits="userSpaceOnUse">
<stop offset="0.0541237" stop-color="#8DBCAD" stop-opacity="0.6"/>
<stop offset="0.4794" stop-color="#5EA6AE" stop-opacity="0.6"/>
<stop offset="0.5851" stop-color="#5CA7AF" stop-opacity="0.6"/>
<stop offset="0.6633" stop-color="#5796AC" stop-opacity="0.701"/>
<stop offset="0.8104" stop-color="#507DA7" stop-opacity="0.8907"/>
<stop offset="0.8814" stop-color="#4E74A6" stop-opacity="0.9824"/>
</linearGradient>
<linearGradient id="paint16_linear_2536_1597" x1="203.875" y1="58.3543" x2="265.448" y2="164.584" gradientUnits="userSpaceOnUse">
<stop offset="0.0541237" stop-color="#8DBCAD" stop-opacity="0.6"/>
<stop offset="0.4794" stop-color="#5EA6AE" stop-opacity="0.6"/>
<stop offset="0.5851" stop-color="#5CA7AF" stop-opacity="0.6"/>
<stop offset="0.6633" stop-color="#5796AC" stop-opacity="0.701"/>
<stop offset="0.8104" stop-color="#507DA7" stop-opacity="0.8907"/>
<stop offset="0.8814" stop-color="#4E74A6" stop-opacity="0.9824"/>
</linearGradient>
<linearGradient id="paint17_linear_2536_1597" x1="90.522" y1="84.8301" x2="265.256" y2="48.8263" gradientUnits="userSpaceOnUse">
<stop offset="0.0541237" stop-color="#8DBCAD"/>
<stop offset="0.3943" stop-color="#5EA6AE"/>
<stop offset="0.5851" stop-color="#5CA7AF"/>
<stop offset="0.6633" stop-color="#5796AC"/>
<stop offset="0.8104" stop-color="#507DA7"/>
<stop offset="0.8814" stop-color="#4E74A6"/>
</linearGradient>
<linearGradient id="paint18_linear_2536_1597" x1="90.0029" y1="93.4763" x2="266.573" y2="48.1101" gradientUnits="userSpaceOnUse">
<stop offset="0.0541237" stop-color="#8DBCAD"/>
<stop offset="0.3943" stop-color="#5EA6AE"/>
<stop offset="0.5851" stop-color="#5CA7AF"/>
<stop offset="0.6633" stop-color="#5796AC"/>
<stop offset="0.8104" stop-color="#507DA7"/>
<stop offset="0.8814" stop-color="#4E74A6"/>
</linearGradient>
<linearGradient id="paint19_linear_2536_1597" x1="89.6626" y1="89.8919" x2="273.58" y2="88.9672" gradientUnits="userSpaceOnUse">
<stop offset="0.0541237" stop-color="#8DBCAD"/>
<stop offset="0.3943" stop-color="#5EA6AE"/>
<stop offset="0.5851" stop-color="#5CA7AF"/>
<stop offset="0.6633" stop-color="#5796AC"/>
<stop offset="0.8104" stop-color="#507DA7"/>
<stop offset="0.8814" stop-color="#4E74A6"/>
</linearGradient>
<linearGradient id="paint20_linear_2536_1597" x1="89.4543" y1="105.664" x2="273.394" y2="86.9123" gradientUnits="userSpaceOnUse">
<stop offset="0.0541237" stop-color="#8DBCAD"/>
<stop offset="0.3943" stop-color="#5EA6AE"/>
<stop offset="0.5851" stop-color="#5CA7AF"/>
<stop offset="0.6633" stop-color="#5796AC"/>
<stop offset="0.8104" stop-color="#507DA7"/>
<stop offset="0.8814" stop-color="#4E74A6"/>
</linearGradient>
<linearGradient id="paint21_linear_2536_1597" x1="88.707" y1="85.7039" x2="278.849" y2="134.576" gradientUnits="userSpaceOnUse">
<stop offset="0.0541237" stop-color="#8DBCAD"/>
<stop offset="0.3943" stop-color="#5EA6AE"/>
<stop offset="0.5851" stop-color="#5CA7AF"/>
<stop offset="0.6633" stop-color="#5796AC"/>
<stop offset="0.8104" stop-color="#507DA7"/>
<stop offset="0.8814" stop-color="#4E74A6"/>
</linearGradient>
<linearGradient id="paint22_linear_2536_1597" x1="89.4393" y1="100.521" x2="279.292" y2="130.182" gradientUnits="userSpaceOnUse">
<stop offset="0.0541237" stop-color="#8DBCAD"/>
<stop offset="0.3943" stop-color="#5EA6AE"/>
<stop offset="0.5851" stop-color="#5CA7AF"/>
<stop offset="0.6633" stop-color="#5796AC"/>
<stop offset="0.8104" stop-color="#507DA7"/>
<stop offset="0.8814" stop-color="#4E74A6"/>
</linearGradient>
</defs>
</svg>
