<svg width="330" height="330" viewBox="0 0 330 330" fill="none" xmlns="http://www.w3.org/2000/svg">
<g clip-path="url(#clip0_3489_27055)">
<path opacity="0.3" d="M9.66409 207.723C7.66051 230.646 27.6373 254.63 41.6034 264.295C42.0748 268.714 42.4284 272.368 42.7819 275.314C42.7819 275.314 51.1498 289.87 67.6498 297.648C91.2802 308.786 118.269 303.07 144.611 303.07C144.611 303.07 145.966 286.57 151.034 274.902C155.984 263.411 163.586 251.154 163.586 251.154C163.586 251.154 174.959 251.566 181.5 250.505C188.984 249.268 189.396 247.441 191.164 242.727C197.528 225.343 205.896 195.879 205.896 175.725C205.896 155.571 198.53 151.918 198 146.437C197.587 142.548 199.591 130.468 199.886 126.932C200.298 121.393 194.582 105.659 192.932 103.243C191.4 101.004 194.7 101.593 193.993 99C193.05 95.6411 192.873 92.2232 191.694 89.2178C178.789 55.6286 152.743 43.4303 118.977 47.3196C116.502 47.6143 107.427 46.0821 104.893 46.1411C47.5552 47.9678 -14.9091 109.312 16.7944 184.27C16.7355 184.387 9.66409 193.875 9.66409 207.723Z" fill="url(#paint0_linear_3489_27055)"/>
<path d="M42.6058 252.509C46.613 233.239 50.9148 226.521 53.213 219.214C53.6255 217.918 53.0951 216.621 53.5076 215.502C51.1505 215.738 48.7933 215.62 46.6719 214.854C44.4916 214.088 40.1308 200.829 38.7755 199.296C36.2416 196.527 36.0648 193.109 34.8273 189.573C31.2326 179.379 33.9433 169.066 33.7666 169.125C34.0612 169.891 23.513 173.957 16.9719 183.916C16.9719 183.916 9.90048 193.404 9.90048 207.252C7.89691 230.175 27.8737 254.159 41.8987 263.823C42.3701 268.243 42.7237 271.896 43.0773 274.843C43.0183 274.961 40.013 264.707 42.6058 252.509Z" fill="url(#paint1_linear_3489_27055)"/>
<path d="M156.927 250.27C145.377 250.034 136.95 249.621 128.582 249.504C125.282 249.975 102.477 249.621 99.3534 248.679C73.6016 240.605 67.5909 216.386 66.5302 213.734C66.4713 213.675 66.9427 212.968 66.8838 212.909C66.7659 212.85 66.648 212.791 66.5891 212.732C66.2945 212.555 65.9998 212.379 65.7641 212.202C64.9391 212.85 63.9373 213.38 62.9355 213.734C63.5838 214.441 64.0552 215.207 64.232 216.15C65.882 225.402 66.8838 234.83 69.2409 243.905C70.3016 247.971 71.7159 251.979 73.1891 255.927C73.8963 257.812 74.6034 259.639 75.3695 261.466C75.5463 261.879 75.723 262.291 75.8409 262.645C75.8998 262.821 76.0177 262.998 76.0766 263.175C76.4302 264 76.8427 264.884 77.1963 265.709C80.3784 272.839 83.973 279.852 87.8623 286.629C91.2213 292.462 94.8159 298.238 98.5873 303.895C113.673 304.484 129.289 302.539 144.787 302.539C144.787 302.539 146.143 286.039 151.211 274.371C155.866 263.646 162.761 252.214 163.644 250.8C161.405 250.623 159.225 250.329 156.927 250.27Z" fill="url(#paint2_linear_3489_27055)"/>
<path d="M172.366 251.213C161.818 251.213 144.906 250.564 138.954 250.152C135.006 249.857 128.818 249.975 122.277 250.093C115.972 250.211 109.49 250.329 104.245 250.093C93.2254 249.621 80.4968 240.782 72.6004 228.054C67.945 220.57 66.6486 215.855 66.1182 213.852C66.0593 213.557 65.9414 213.263 65.8825 213.027C65.6468 213.086 65.2932 213.263 64.9397 213.439C63.1718 214.205 59.8718 215.62 55.5111 215.973C49.0879 216.504 46.2004 215.325 46.1414 215.266C46.0236 215.207 45.8468 215.089 44.2557 212.261C43.6075 211.082 42.2522 208.548 40.6611 205.248C38.245 200.239 35.0039 192.873 33.3539 186.568C31.1146 177.788 32.47 169.655 34.4736 168.477C36.3593 167.357 40.3664 166.179 44.845 166.296C47.4968 166.355 50.8557 167.063 54.3914 167.77C60.8147 169.125 68.0629 170.598 71.8932 168.123C78.9647 163.586 75.4289 141.723 75.37 141.488L76.195 141.311C76.3718 142.195 79.8486 163.939 72.3057 168.771C68.1218 171.423 61.0504 169.95 54.1557 168.536C50.6789 167.829 47.3789 167.121 44.7272 167.063C40.1307 167.004 36.3004 168.3 34.8271 169.125C33.4718 169.95 31.8218 177.257 34.12 186.332C37.0664 197.941 45.67 213.38 46.495 214.5C47.1432 214.736 50.2075 215.502 55.3343 215.089C59.5182 214.736 62.7593 213.38 64.4682 212.614C65.47 212.202 65.8236 212.025 66.1182 212.143C66.4718 212.261 66.5307 212.614 66.8254 213.557C67.3557 215.561 68.6521 220.157 73.1897 227.523C80.9093 240.075 93.3432 248.738 104.127 249.209C109.372 249.445 115.854 249.327 122.159 249.209C128.7 249.091 134.888 248.973 138.895 249.268C146.556 249.798 172.543 250.682 179.379 250.093C186.097 249.504 187.983 247.382 189.574 244.789C191.283 242.079 199.179 216.504 201.124 207.311C206.781 183.68 205.072 169.184 204.424 165.354C203.481 159.579 200.299 152.802 198.649 149.148C197.883 147.498 197.529 146.673 197.411 146.32C197.293 145.671 197.647 142.371 198.236 137.068C198.708 132.943 199.179 128.7 199.12 127.58C198.884 121.098 195.466 109.666 193.816 106.189C192.402 103.243 191.813 102.83 191.813 102.83C191.813 102.83 191.872 102.83 191.931 102.889L192.108 102.064C192.756 102.182 193.875 104.186 194.641 105.895C196.35 109.43 199.768 121.039 200.063 127.639C200.122 128.877 199.65 132.943 199.179 137.304C198.708 141.252 198.236 145.73 198.354 146.261C198.413 146.555 198.943 147.616 199.474 148.913C201.183 152.566 204.365 159.402 205.308 165.354C205.956 169.243 207.665 183.857 201.949 207.664C199.886 217.152 192.049 242.55 190.281 245.379C188.513 248.148 186.509 250.505 179.379 251.095C178.024 251.154 175.49 251.213 172.366 251.213Z" fill="#323A50"/>
<path d="M145.141 303.305L144.316 303.246C144.316 303.07 145.436 288.043 149.09 278.084C153.391 266.416 163.409 250.682 163.468 250.505L164.175 250.977C164.057 251.154 154.157 266.77 149.856 278.379C146.261 288.22 145.2 303.188 145.141 303.305Z" fill="#323A50"/>
<path d="M46.2002 215.325C39.2466 212.437 32.4698 207.075 26.518 199.886C20.3895 192.402 15.4395 183.209 12.1984 173.25C7.30732 158.105 2.18054 127.58 22.9823 93.5196C28.227 84.975 34.8859 77.2554 42.7823 70.7143C49.5591 65.0572 57.2198 60.225 65.5877 56.2768C80.3788 49.3232 94.7573 46.4357 103.302 46.0822C111.847 45.7286 119.566 47.1429 126.343 50.3839C132.059 53.0947 137.127 57.1607 141.311 62.3464C151.329 74.6625 153.568 89.3946 152.861 92.1643C152.566 93.2839 152.036 94.05 151.27 94.4625C149.679 95.2286 147.557 94.2857 145.023 93.1661L144.847 93.1071C136.656 89.5125 118.8 85.9179 91.2216 101.829C82.8538 106.661 79.2002 113.968 77.6091 119.271C75.9002 124.988 76.1359 129.643 76.1359 129.702L75.3109 129.761C75.3109 129.584 75.0163 124.929 76.843 119.036C78.493 113.614 82.2645 106.071 90.8091 101.121C103.773 93.6375 116.031 89.6304 127.227 89.2768C133.827 89.0411 140.014 90.1018 145.2 92.3411L145.377 92.4C147.616 93.4018 149.738 94.2857 150.916 93.6964C151.447 93.4607 151.8 92.8714 152.036 91.9875C152.802 89.0411 150.032 74.4268 140.663 62.8768C131.47 51.6214 118.918 46.2 103.302 46.9072C94.8752 47.2607 80.6145 50.1482 65.9413 57.0429C47.6145 65.6464 33.4127 78.0804 23.6895 93.9911C3.00554 127.757 8.0734 157.988 12.9645 173.014C19.3288 192.638 32.1752 208.607 46.4359 214.559L46.2002 215.325Z" fill="#323A50"/>
<path d="M188.925 103.655C185.153 103.655 180.262 100.768 174.664 97.4679C167.651 93.3429 159.755 88.7465 152.566 89.0411L152.507 88.2161C159.932 87.9215 167.946 92.6357 175.076 96.7607C180.557 99.9429 185.742 103.007 189.278 102.771C190.869 102.654 192.048 102.241 192.755 101.416C193.462 100.65 193.698 99.4715 193.521 97.9393C193.521 97.8804 192.991 92.5179 189.101 84.5036C184.741 75.4286 178.2 67.1786 169.655 60.0482C155.335 48.0268 137.892 46.9072 128.758 47.3197C105.069 48.3804 83.6781 54.509 65.1156 65.5286L64.7031 64.8215C83.3835 53.684 104.951 47.4965 128.758 46.4947C135.064 46.2 141.251 46.7893 147.085 48.0857C155.925 50.1482 163.703 53.9197 170.185 59.4C178.848 66.6482 185.448 74.9572 189.867 84.15C193.816 92.3411 194.346 97.8804 194.346 97.9393C194.523 99.7661 194.169 101.121 193.344 102.064C192.519 103.066 191.164 103.596 189.278 103.714C189.219 103.655 189.101 103.655 188.925 103.655Z" fill="#323A50"/>
<path d="M159.166 173.957C155.984 173.957 153.096 173.309 151.976 170.068C150.68 166.238 153.744 160.463 153.862 160.227L154.628 160.639C154.628 160.698 151.623 166.355 152.801 169.773C153.98 173.132 157.28 173.25 161.169 173.014C165.353 172.779 175.842 171.129 179.85 167.593C183.621 164.293 184.917 160.698 183.326 157.929C181.735 155.218 177.728 149.679 177.669 149.62C177.434 149.266 171.659 140.486 170.362 137.068C170.303 136.832 170.185 136.596 170.126 136.361C168.889 133.179 167.534 129.584 168.123 125.341C168.653 121.098 169.655 117.798 172.778 114.793C175.194 112.436 179.201 109.313 186.273 109.666C192.814 109.961 199.885 112.495 200.769 113.673C201.359 114.498 201.476 116.973 200.534 118.564C199.944 119.566 199.001 120.038 197.823 119.861C195.878 119.625 194.228 119.095 192.873 118.741C192.048 118.505 191.282 118.27 190.751 118.211C189.396 118.034 187.392 118.623 187.392 118.623L187.157 117.798C187.216 117.798 189.337 117.15 190.869 117.327C191.459 117.386 192.225 117.621 193.167 117.916C194.464 118.27 196.114 118.8 197.941 119.036C198.766 119.154 199.355 118.859 199.826 118.152C200.651 116.796 200.416 114.675 200.121 114.204C199.591 113.438 193.05 110.845 186.273 110.55C179.555 110.255 175.725 113.202 173.426 115.441C170.48 118.329 169.537 121.452 169.007 125.518C168.476 129.584 169.773 132.884 171.01 136.184C171.069 136.42 171.187 136.655 171.246 136.891C172.484 140.191 178.376 149.148 178.435 149.266C178.435 149.325 182.501 154.923 184.092 157.634C185.919 160.757 184.564 164.764 180.439 168.359C176.255 172.013 165.471 173.78 161.228 174.016C160.521 173.957 159.814 173.957 159.166 173.957Z" fill="#323A50"/>
<path d="M176.432 176.079C176.432 176.02 176.314 174.311 177.139 172.425C177.257 172.189 177.434 171.954 177.611 171.659C177.316 171.541 177.08 171.364 176.845 171.246C176.55 171.011 176.196 170.775 175.784 170.48C173.839 169.007 170.657 166.532 167.004 166.296C164.352 166.12 162.702 167.004 161.818 167.711C163.998 167.475 168.005 167.298 169.066 168.654C169.302 168.948 169.479 169.479 169.125 170.186C169.066 170.362 168.83 170.893 166.414 171.364C163.232 172.012 156.75 172.425 155.1 170.893C153.037 169.007 153.627 166.473 153.627 166.355L154.452 166.591C154.452 166.65 153.98 168.771 155.689 170.304C156.514 171.07 160.168 171.364 164.057 170.893C166.945 170.539 168.182 170.068 168.3 169.832C168.477 169.42 168.359 169.243 168.3 169.184C167.534 168.182 163.232 168.359 160.639 168.712L159.696 168.83L160.227 168.064C160.286 167.946 162.289 165.177 167.004 165.471C170.893 165.766 174.252 168.3 176.255 169.832C176.668 170.127 177.021 170.362 177.257 170.598C177.493 170.775 177.787 170.952 178.082 171.07C179.437 169.537 181.736 167.946 182.737 167.946C183.209 167.946 183.386 168.182 183.445 168.3C184.034 169.361 183.621 171.011 182.561 171.895C181.736 172.602 179.909 172.602 178.318 172.071C178.082 172.366 177.905 172.602 177.787 172.837C177.021 174.487 177.139 176.02 177.139 176.079H176.432ZM179.084 171.305C180.38 171.659 181.736 171.6 182.207 171.187C182.914 170.598 183.268 169.361 182.914 168.712C182.266 168.712 180.38 170.009 179.084 171.305Z" fill="#323A50"/>
<path d="M142.725 202.714L142.548 201.889L142.784 201.83C143.785 201.595 144.728 201.064 145.435 200.298C148.323 197.234 155.335 189.868 157.751 188.159C160.934 185.979 165.53 183.15 169.125 183.563C170.775 183.739 173.839 185.154 175.135 185.743C175.843 186.038 176.609 186.096 177.316 185.861C178.789 185.389 180.851 184.8 182.737 184.8C186.037 184.859 188.748 188.454 190.044 191.518C192.048 196.173 191.517 202.302 191.459 202.538L190.634 202.479C190.634 202.42 191.164 196.291 189.278 191.871C187.982 188.807 185.389 185.684 182.737 185.625C180.969 185.566 179.025 186.155 177.61 186.627C176.667 186.921 175.666 186.921 174.782 186.45C173.839 185.979 170.598 184.505 169.066 184.329C165.766 183.975 161.287 186.686 158.282 188.748C155.925 190.398 148.971 197.705 146.084 200.77C145.259 201.654 144.198 202.302 142.96 202.538L142.725 202.714Z" fill="#323A50"/>
<path d="M42.7235 276.139C42.6645 275.963 41.6038 272.486 41.427 266.18C41.2502 260.346 41.7806 250.918 45.3752 239.073C46.377 235.773 47.7913 232.12 49.2645 228.289C52.9181 218.802 57.0431 208.077 55.1574 201.771C53.802 199.414 51.386 200.652 51.2681 200.711L50.8556 199.945C51.9752 199.355 54.5092 198.884 55.8645 201.418L55.9235 201.477C57.986 208.018 53.9199 218.507 50.0306 228.584C48.5574 232.414 47.1431 236.068 46.1413 239.309C39.2467 261.761 43.4306 275.786 43.4895 275.904L42.7235 276.139Z" fill="#323A50"/>
<path d="M39.0692 262.88C38.9514 262.821 29.1692 255.986 20.9192 244.2C16.0871 237.305 12.7281 230.057 10.9014 222.75C8.66207 213.557 8.89778 204.188 11.6085 194.877C14.6139 184.564 20.8603 177.846 25.5746 174.075C30.7014 169.95 35.0621 168.3 35.2389 168.241L35.5335 169.007C35.4746 169.007 31.1139 170.716 26.1049 174.723C21.5085 178.436 15.3799 184.977 12.4335 195.113C6.36385 215.914 14.0835 233.004 21.5674 243.729C29.6996 255.338 39.4228 262.114 39.5406 262.232L39.0692 262.88Z" fill="#323A50"/>
<path d="M193.522 144.493C192.579 144.493 191.459 144.434 190.104 144.257C186.804 143.904 183.268 143.138 181.323 142.371C177.375 140.839 174.959 139.366 174.9 139.307L174.841 139.248L174.782 139.189C174.723 139.13 173.722 137.363 174.252 134.534C174.429 133.709 174.841 133.002 175.548 132.589C177.788 131.175 181.972 132.236 182.148 132.236L181.913 133.061C181.854 133.061 177.906 132.059 175.961 133.296C175.431 133.65 175.136 134.063 175.018 134.711C174.606 136.891 175.254 138.305 175.372 138.659C175.843 138.954 178.082 140.25 181.559 141.605C183.445 142.313 186.863 143.079 190.104 143.432C194.523 143.904 195.82 143.432 195.938 143.255C196.115 142.902 196.173 142.136 195.702 141.134C194.877 139.307 192.932 137.893 190.457 137.245C186.509 136.243 179.909 137.48 177.906 137.952C177.611 138.011 177.375 137.893 177.316 137.598C177.257 137.363 177.316 137.068 177.552 136.95C177.906 136.714 182.797 133.473 189.691 134.593C190.988 134.829 192.284 135.3 193.64 135.83C195.761 136.655 197.882 137.539 200.357 137.304C201.595 137.186 202.361 137.009 203.009 136.655C201.3 136.95 198.766 137.186 196.704 135.948L197.116 135.182C199.709 136.655 203.186 135.713 204.364 135.418C204.836 135.3 205.072 135.241 205.248 135.536C205.307 135.713 205.307 135.889 205.19 136.066C204.011 137.127 203.127 137.834 200.475 138.07C197.823 138.305 195.525 137.421 193.345 136.538C192.048 136.007 190.811 135.536 189.573 135.3C185.272 134.593 181.736 135.713 179.791 136.596C182.856 136.066 187.511 135.536 190.693 136.302C194.582 137.304 195.997 139.661 196.468 140.663C196.94 141.723 197.057 142.784 196.704 143.491C196.468 144.198 195.407 144.493 193.522 144.493Z" fill="#323A50"/>
<path d="M151.682 202.243L151.211 201.536C151.27 201.477 159.343 196.468 169.715 196.291C170.657 196.291 171.954 196.704 173.486 197.175C175.49 197.882 177.847 198.648 179.497 198.295C180.381 198.118 181.382 197.941 182.325 197.705C185.272 196.998 188.1 196.35 189.927 197.529C190.811 198.118 191.341 199.061 191.577 200.416L190.752 200.593C190.575 199.473 190.163 198.707 189.456 198.295C187.923 197.293 185.154 197.941 182.502 198.589C181.559 198.825 180.557 199.061 179.614 199.179C177.729 199.532 175.313 198.707 173.191 198.059C171.836 197.587 170.54 197.234 169.773 197.234C159.579 197.116 151.741 202.184 151.682 202.243Z" fill="#323A50"/>
<path d="M173.755 208.3L173.746 209.125L183.704 209.231L183.713 208.406L173.755 208.3Z" fill="#323A50"/>
<path d="M150.68 140.427C149.914 140.427 149.089 140.25 148.5 139.72C147.851 139.13 147.675 138.129 147.969 136.832C148.5 134.416 148.264 132.589 147.203 131.175C145.789 129.289 142.842 128.229 138.423 127.934L138.482 127.109C143.255 127.462 146.319 128.641 147.91 130.704C149.089 132.295 149.384 134.357 148.794 137.068C148.559 138.07 148.676 138.718 149.089 139.13C149.855 139.837 151.446 139.602 151.976 139.425L152.212 140.25C152.153 140.25 151.505 140.427 150.68 140.427Z" fill="#323A50"/>
<path d="M94.4037 139.366H94.1679C93.5197 139.366 93.0483 138.954 92.9304 138.305C92.2822 134.593 102.418 120.332 129.054 110.314C137.48 107.132 148.854 106.543 153.273 111.021C157.752 115.559 155.041 121.864 155.041 121.923L154.805 122.454L154.334 122.041C154.275 122.041 150.916 118.8 144.08 117.268C137.775 115.854 127.168 115.618 112.436 122.454L112.082 121.688C127.05 114.675 137.893 114.97 144.316 116.443C149.973 117.739 153.273 120.038 154.452 120.98C154.982 119.448 155.984 114.911 152.684 111.552C148.5 107.309 137.539 107.957 129.348 111.021C114.911 116.443 106.189 122.866 101.357 127.227C95.4054 132.707 93.5197 136.773 93.7554 138.129C93.8144 138.423 93.9322 138.482 94.1679 138.482C96.6429 138.541 100.355 137.598 102.064 136.714L102.418 137.48C100.709 138.364 96.9965 139.366 94.4037 139.366Z" fill="#323A50"/>
<path d="M126.343 147.145C125.577 147.145 124.811 147.145 124.104 147.086C117.327 146.614 114.557 143.668 112.495 141.546C111.729 140.78 111.08 140.073 110.373 139.661C110.196 139.543 110.02 139.425 109.784 139.366L109.548 139.307L109.489 139.012C109.489 138.777 109.666 138.423 110.02 138.187C111.021 137.598 112.789 138.129 115.323 139.779C115.795 140.132 116.266 140.427 116.679 140.78C119.212 142.607 121.157 144.08 129.584 143.727L131.352 143.668C137.48 143.432 142.784 143.196 145.554 142.43L145.789 143.255C145.554 143.314 145.318 143.373 145.023 143.432C144.257 143.609 143.137 143.904 141.782 144.316C138.07 145.495 132.589 147.145 126.343 147.145ZM110.668 138.777C110.727 138.777 110.786 138.836 110.845 138.836C111.67 139.307 112.318 140.014 113.143 140.839C115.205 142.961 117.739 145.671 124.162 146.084C130.114 146.496 135.536 145.2 139.602 143.962C137.245 144.139 134.534 144.257 131.47 144.375L129.702 144.434C120.98 144.787 118.8 143.137 116.266 141.311C115.854 141.016 115.441 140.662 114.911 140.368C112.259 138.718 111.08 138.718 110.668 138.777Z" fill="#323A50"/>
<path opacity="0.6" d="M12.7285 169.832C12.6696 170.127 12.6107 170.421 12.5518 170.657C12.7285 170.598 12.8464 170.598 13.0232 170.539C12.9053 170.362 12.8464 170.068 12.7285 169.832Z" fill="#DBDBDB"/>
<path d="M147.616 143.668L147.439 142.843C147.498 142.843 151.506 141.9 155.1 139.484L155.572 140.191C151.859 142.666 147.793 143.609 147.616 143.668Z" fill="#323A50"/>
<path d="M132.649 192.638C90.1611 183.916 87.804 157.045 86.8022 154.393C86.7433 154.334 71.3629 190.457 73.779 199.591C74.8397 203.657 97.8218 242.314 125.224 233.652C123.102 203.068 135.89 193.286 132.649 192.638Z" fill="url(#paint3_linear_3489_27055)"/>
<path d="M293.641 254.866C293.582 254.748 287.395 241.548 283.505 237.6C281.737 235.773 279.793 234.359 278.084 233.004C276.493 231.825 275.02 230.705 273.959 229.527C269.539 224.105 267.595 218.389 266.18 214.205C265.532 212.32 264.943 210.67 264.353 209.491C262.998 206.957 260.877 204.423 258.814 201.948C257.105 199.886 255.514 198 254.277 196.055C251.448 191.636 246.97 186.332 244.141 184.034C242.786 182.973 241.077 180.439 239.25 177.788C237.777 175.607 236.245 173.368 234.889 171.954L234.653 171.718C231.295 168.536 223.457 160.993 223.457 157.339C223.457 154.157 225.637 152.095 229.762 151.388C230.057 151.329 230.646 151.446 231.412 151.682C231.353 151.564 231.295 151.446 231.295 151.329C230.941 149.738 231.943 147.498 232.591 146.791C233.534 145.73 256.103 137.363 272.073 134.77C273.605 134.534 275.02 134.004 276.257 133.532C277.553 133.061 278.732 132.648 279.616 132.707C282.503 132.825 286.098 135.182 288.75 136.832C289.516 137.363 290.223 137.775 290.695 138.07C291.578 138.541 292.58 138.954 293.582 139.366C294.996 139.955 296.47 140.486 297.589 141.311C298.591 142.018 300.771 144.08 303.07 146.32C305.191 148.323 307.371 150.445 308.609 151.388C310.2 152.684 312.321 153.568 314.62 154.511C318.332 156.043 322.162 157.634 324.461 161.111C326.523 164.234 326.287 171.364 323.577 184.27C321.514 194.17 321.161 199.65 321.22 204.777C321.22 206.486 321.22 208.666 321.161 210.964C321.102 216.268 321.043 222.22 321.455 225.638C322.28 232.65 325.875 240.252 325.875 240.311L325.109 240.664C325.05 240.605 321.455 232.886 320.63 225.755C320.218 222.279 320.277 216.268 320.336 210.964C320.336 208.666 320.395 206.486 320.395 204.777C320.336 199.532 320.748 194.052 322.811 184.093C324.461 176.255 326.346 165.354 323.812 161.582C321.632 158.341 317.92 156.809 314.384 155.277C312.086 154.275 309.905 153.391 308.196 152.036C306.9 151.034 304.72 148.913 302.598 146.909C300.418 144.846 298.178 142.666 297.236 142.018C296.175 141.252 294.761 140.721 293.346 140.191C292.345 139.779 291.284 139.366 290.341 138.895C289.811 138.6 289.103 138.188 288.337 137.657C285.921 136.125 282.268 133.768 279.616 133.65C278.909 133.591 277.848 134.004 276.611 134.475C275.314 134.946 273.841 135.477 272.25 135.771C255.514 138.541 234.182 146.791 233.239 147.557C232.709 148.205 231.825 150.15 232.12 151.329C232.237 151.741 232.414 152.036 232.827 152.154C236.245 153.45 243.375 156.809 244.377 157.28C245.437 157.163 253.393 156.102 256.457 153.627L256.634 153.45L256.87 153.509C257.046 153.568 257.223 153.686 257.636 153.804C259.816 154.805 266.357 157.811 274.548 153.332L274.902 153.155L275.137 153.45C275.196 153.568 275.314 153.745 275.491 154.039C276.728 156.22 280.5 162.996 290.753 162.054L291.461 161.995L291.166 162.643C289.928 165.413 290.459 168.123 292.816 170.775C294.584 172.779 296.823 173.957 296.823 174.016L297.471 174.37L296.823 174.723C296.234 175.077 282.091 183.386 277.671 183.386H277.553C272.957 183.209 264.648 177.905 261.407 175.077C259.639 173.486 256.516 169.773 253.746 166.473C251.212 163.468 248.855 160.639 248.03 160.05C247.5 159.696 246.145 158.989 244.318 158.105L244.2 158.046C244.2 158.046 243.316 157.634 242.02 157.045C237.07 154.805 230.882 152.271 230.057 152.448C227.523 152.92 224.459 154.098 224.459 157.575C224.459 161.052 232.355 168.477 235.361 171.364L235.655 171.659C237.011 173.132 238.543 175.371 240.075 177.611C241.784 180.145 243.552 182.679 244.789 183.68C247.736 186.038 252.273 191.4 255.161 195.938C256.339 197.823 257.93 199.709 259.639 201.713C261.761 204.246 263.882 206.78 265.296 209.432C265.945 210.67 266.534 212.32 267.182 214.264C268.596 218.389 270.482 224.046 274.784 229.35C275.786 230.47 277.259 231.53 278.791 232.709C280.559 234.005 282.503 235.538 284.33 237.364C288.278 241.43 294.348 254.336 294.584 254.866H293.641ZM245.673 157.634C247.028 158.282 248.03 158.813 248.384 159.107C249.327 159.755 251.566 162.525 254.218 165.648C256.928 168.889 260.052 172.602 261.761 174.193C265.296 177.316 273.311 182.207 277.377 182.266C280.971 182.384 292.757 175.725 295.586 174.075C293.582 172.838 287.807 168.536 289.928 162.643C285.627 162.879 281.914 161.877 278.968 159.579C276.434 157.634 275.137 155.277 274.489 154.157C274.43 154.098 274.43 154.039 274.371 153.98C266.003 158.4 259.286 155.277 257.105 154.275C256.928 154.216 256.811 154.098 256.693 154.098C253.923 156.22 248.266 157.221 245.673 157.634Z" fill="#323A50"/>
<path d="M322.28 172.779L321.455 172.661C321.455 172.602 322.28 165.648 319.688 162.407C318.332 160.757 316.859 159.991 315.15 159.048C313.5 158.164 311.555 157.162 309.434 155.159C305.132 151.034 283.918 137.068 277.73 136.42C274.784 136.125 259.757 138.129 259.639 138.187L259.521 137.362C260.111 137.304 274.784 135.3 277.789 135.595C284.33 136.302 305.545 150.327 310.023 154.57C312.086 156.573 313.913 157.516 315.563 158.341C317.271 159.225 318.921 160.109 320.336 161.877C323.105 165.412 322.28 172.484 322.28 172.779Z" fill="#323A50"/>
<path d="M229.762 167.004L229.526 166.179C232.355 165.354 236.775 161.523 236.834 159.814C236.951 157.811 234.476 153.804 230.528 152.271L230.823 151.505C234.889 153.096 237.835 157.339 237.659 159.932C237.541 162.289 232.473 166.179 229.762 167.004Z" fill="#323A50"/>
<path d="M231.589 150.091V149.266C231.648 149.266 240.31 149.089 244.259 142.077L245.025 142.489C240.841 149.973 231.707 150.091 231.589 150.091Z" fill="#323A50"/>
<path d="M286.511 179.555H285.686C285.686 179.496 285.863 174.959 286.275 169.655C286.452 167.593 285.156 164.882 282.504 161.641L283.152 161.111C285.981 164.529 287.336 167.416 287.1 169.714C286.688 174.959 286.511 179.496 286.511 179.555Z" fill="#323A50"/>
<path d="M250.328 161.523L249.798 160.875C249.916 160.757 252.744 158.4 260.051 154.57L260.464 155.336C253.216 159.107 250.387 161.523 250.328 161.523Z" fill="#323A50"/>
<path d="M245.497 206.957C244.672 206.957 243.847 206.78 243.081 206.368C239.191 204.482 237.365 198.766 235.597 193.286C234.477 189.809 233.416 186.45 231.884 184.152C230.234 181.618 227.052 179.791 223.752 177.964C219.332 175.43 214.265 172.602 212.084 167.298C209.491 160.934 207.606 152.154 210.257 146.673C211.377 144.316 213.263 142.666 215.797 141.9C225.107 139.071 230.175 141.311 236.304 144.788L235.891 145.554C229.94 142.136 224.99 139.955 216.032 142.725C213.734 143.432 212.025 144.846 211.023 147.027C208.49 152.33 210.316 160.816 212.909 167.004C214.972 172.013 219.686 174.664 224.165 177.257C227.582 179.202 230.823 181.029 232.591 183.739C234.182 186.155 235.243 189.514 236.422 193.109C238.131 198.413 239.898 203.952 243.493 205.661C249.15 208.43 255.809 198.177 255.868 198.059L256.575 198.53C256.34 198.884 251.036 206.957 245.497 206.957Z" fill="#323A50"/>
</g>
<defs>
<linearGradient id="paint0_linear_3489_27055" x1="28.7379" y1="403.246" x2="154.634" y2="18.8314" gradientUnits="userSpaceOnUse">
<stop offset="0.37" stop-color="#DBDBDB" stop-opacity="0"/>
<stop offset="0.46" stop-color="#DBDBDB"/>
</linearGradient>
<linearGradient id="paint1_linear_3489_27055" x1="-19.9009" y1="241.291" x2="48.0709" y2="218.738" gradientUnits="userSpaceOnUse">
<stop offset="0.37" stop-color="#DBDBDB" stop-opacity="0"/>
<stop offset="0.94" stop-color="#DBDBDB"/>
</linearGradient>
<linearGradient id="paint2_linear_3489_27055" x1="54.1971" y1="306.076" x2="135.522" y2="227.292" gradientUnits="userSpaceOnUse">
<stop offset="0.37" stop-color="#DBDBDB" stop-opacity="0"/>
<stop offset="0.94" stop-color="#DBDBDB"/>
</linearGradient>
<linearGradient id="paint3_linear_3489_27055" x1="101.09" y1="239.561" x2="104.901" y2="166.508" gradientUnits="userSpaceOnUse">
<stop offset="0.56" stop-color="#DBDBDB" stop-opacity="0"/>
<stop offset="0.94" stop-color="#DBDBDB"/>
</linearGradient>
<clipPath id="clip0_3489_27055">
<rect width="330" height="330" fill="white"/>
</clipPath>
</defs>
</svg>
