<svg width="330" height="330" viewBox="0 0 330 330" fill="none" xmlns="http://www.w3.org/2000/svg">
<g clip-path="url(#clip0_3618_8670)">
<path d="M165.766 301.596C161.288 301.596 156.75 301.243 152.389 300.536C148.029 299.946 141.252 298.414 136.656 296.411C120.863 290.518 107.368 280.146 97.6448 266.357C87.6859 252.273 82.3823 235.596 82.3823 218.271C82.3823 206.191 84.9163 194.582 89.8663 183.739C94.6395 173.25 101.475 163.998 110.079 156.279C111.434 154.864 112.495 153.745 113.438 152.861C117.209 148.971 117.622 148.559 120.038 145.848C120.332 145.495 120.627 145.141 120.981 144.729C123.927 141.311 129.466 134.888 136.95 129.525C146.143 122.925 155.748 119.448 165.589 119.448H165.884C175.725 119.448 185.389 122.984 194.523 129.525C202.007 134.888 207.547 141.311 210.493 144.67C210.847 145.082 211.141 145.436 211.436 145.789C213.204 147.852 213.911 148.5 215.738 150.386C216.857 151.505 218.331 152.979 220.688 155.454C229.527 163.232 236.539 172.543 241.489 183.209C246.616 194.229 249.209 206.014 249.209 218.271C249.209 229.527 247.029 240.429 242.668 250.741C238.484 260.7 232.473 269.598 224.813 277.259C217.152 284.92 208.254 290.93 198.295 295.114C187.923 299.357 177.022 301.596 165.766 301.596ZM165.825 119.92H165.589C143.02 120.509 127.463 138.246 121.57 144.964C121.216 145.377 120.922 145.848 120.627 146.143C118.211 148.854 117.739 149.384 114.027 153.273C113.143 154.216 112.023 155.336 110.668 156.75V156.809C93.2252 172.484 83.2073 194.877 83.2073 218.271C83.2073 252.568 104.834 283.682 137.009 295.704C141.547 297.648 148.264 299.18 152.566 299.77C156.927 300.477 161.406 300.83 165.825 300.83C211.377 300.83 248.443 263.764 248.443 218.213C248.443 194.405 238.131 171.718 220.216 156.043C217.859 153.568 216.327 152.095 215.266 150.975C213.439 149.089 212.732 148.382 210.906 146.379C210.611 146.025 210.316 145.495 209.963 145.082C203.952 138.246 188.395 120.509 165.825 119.92Z" fill="#323A50"/>
<path opacity="0.2" d="M207.782 155.395C210.729 153.745 212.32 152.802 209.314 149.384C204.188 143.55 188.807 124.104 165.53 124.104H165.295C142.018 124.104 126.638 143.609 121.511 149.384C118.447 152.861 120.863 154.746 122.277 155.807C128.288 151.977 133.709 148.912 140.78 146.555C141.016 146.496 149.855 142.254 164.764 142.136C164.823 142.136 174.9 142.018 184.388 145.023C195.938 148.029 201.536 151.8 207.782 155.395Z" fill="url(#paint0_linear_3618_8670)"/>
<path opacity="0.2" d="M164.941 286.923C202.596 286.923 233.121 256.529 233.121 219.037C233.121 181.545 202.596 151.151 164.941 151.151C127.286 151.151 96.7607 181.545 96.7607 219.037C96.7607 256.529 127.286 286.923 164.941 286.923Z" fill="url(#paint1_radial_3618_8670)"/>
<path opacity="0.34" d="M236.421 187.334C236.362 187.157 236.303 186.981 236.186 186.863C235.95 187.334 235.537 187.747 235.007 188.1C233.593 188.925 231.412 188.513 230.705 186.981C230.293 186.156 229.88 185.39 229.35 184.623C229.114 184.211 228.819 183.857 228.525 183.445C228.407 183.268 228.407 183.268 228.525 183.445C228.466 183.386 228.407 183.268 228.289 183.209C228.171 183.032 227.994 182.856 227.877 182.679C226.639 181.265 225.166 179.85 223.928 179.025C223.162 178.495 222.396 178.023 221.571 177.611C221.336 177.493 221.1 177.375 220.864 177.257C220.805 177.257 220.805 177.257 220.805 177.198C220.393 177.022 219.98 176.904 219.509 176.786C219.037 176.668 218.566 176.55 218.094 176.491L217.387 176.373C217.211 176.373 217.093 176.314 216.916 176.314C215.796 176.197 214.677 176.197 213.616 176.197C209.55 176.315 206.073 176.963 202.066 177.493C197.941 177.964 193.757 178.318 189.573 178.613C181.382 179.202 173.25 180.204 165 180.322C160.934 180.381 156.927 179.673 152.978 178.966C149.03 178.259 145.377 177.729 141.546 177.316C133.591 176.373 125.518 175.961 117.503 176.668C115.853 176.845 114.616 175.372 114.38 173.898C114.321 173.898 114.262 173.898 114.144 173.957C113.673 174.075 113.261 174.193 112.789 174.37C112.553 174.429 112.318 174.547 112.023 174.665C111.905 174.723 111.846 174.723 111.787 174.782C109.902 175.607 108.075 176.727 106.425 177.965C106.366 178.023 106.012 178.318 106.012 178.318C105.777 178.495 105.541 178.672 105.364 178.907C104.952 179.261 104.598 179.615 104.186 179.968C103.419 180.734 102.653 181.559 101.946 182.384C101.887 182.443 101.887 182.502 101.828 182.502C101.828 182.502 101.769 182.561 101.769 182.62C101.593 182.856 101.475 183.032 101.298 183.268C101.003 183.681 100.768 184.034 100.532 184.447C100.296 184.859 100.061 185.213 99.8837 185.625C99.8248 185.743 99.5891 186.509 99.8248 185.743C99.7659 185.979 99.648 186.156 99.5891 186.391C98.9998 188.041 97.4677 188.984 95.6998 188.572C95.1105 188.454 94.5802 188.1 94.1677 187.629C94.1087 187.747 94.2266 187.865 94.1677 187.982C90.2194 197.293 87.8623 207.488 87.8623 218.213C87.8623 260.936 122.512 295.586 165.236 295.586C207.959 295.586 242.609 260.936 242.609 218.213C242.786 207.134 240.546 196.704 236.421 187.334Z" fill="url(#paint2_linear_3618_8670)"/>
<g opacity="0.2">
<path d="M225.873 246.792L225.402 246.733C225.107 249.09 218.213 252.332 216.739 252.567C216.15 252.685 215.796 252.508 215.443 252.391C214.913 252.155 214.441 251.978 213.498 252.508C211.966 253.451 206.604 259.285 205.425 262.114C204.246 265.001 203.539 266.533 200.829 267.594C199.355 268.183 197.116 268.183 194.759 268.183C192.579 268.183 190.339 268.183 188.63 268.655C186.038 269.362 183.504 270.541 182.325 271.13C182.973 270.423 183.621 269.657 184.211 269.008C185.271 267.771 186.214 266.651 186.804 266.239C187.629 265.649 190.398 265.355 193.345 265.06C197.352 264.648 201.83 264.176 203.245 262.821C204.836 261.348 207.075 255.69 208.843 251.153C209.786 248.737 210.611 246.674 211.141 245.849C211.671 244.965 213.145 243.964 214.736 242.903C217.446 241.135 220.511 239.073 220.452 236.598H219.98C220.039 238.778 217.093 240.723 214.5 242.491C212.791 243.61 211.318 244.612 210.729 245.614C210.198 246.498 209.373 248.56 208.43 250.976C206.663 255.455 204.423 261.053 202.891 262.467C202.361 262.939 201.359 263.351 200.004 263.646C200.888 263.174 201.889 262.467 202.596 261.524C203.893 259.874 205.013 255.985 205.602 253.864C205.72 253.51 205.779 253.157 205.838 252.98C206.014 252.332 205.779 251.919 205.543 251.507C205.248 251.035 204.954 250.564 205.13 249.385C205.366 248.089 206.073 247.558 206.898 247.028C207.429 246.674 207.959 246.262 208.371 245.614C209.373 244.023 208.725 242.373 208.43 241.489V241.43C208.195 240.84 207.664 240.899 207.252 240.899C206.839 240.958 206.604 240.958 206.486 240.723C206.368 240.487 206.663 240.016 207.016 239.544C207.488 238.837 208.077 238.012 207.723 237.246L207.311 237.423C207.546 237.953 207.075 238.601 206.663 239.191C206.25 239.839 205.838 240.428 206.132 240.899C206.427 241.43 206.957 241.371 207.37 241.312C207.782 241.253 207.959 241.253 208.077 241.548V241.607C208.371 242.491 208.961 243.905 208.077 245.26C207.723 245.79 207.252 246.144 206.721 246.557C205.896 247.146 205.013 247.794 204.777 249.267C204.541 250.623 204.895 251.212 205.248 251.742C205.484 252.096 205.602 252.332 205.484 252.803C205.425 252.98 205.307 253.333 205.248 253.687C204.718 255.632 203.598 259.58 202.361 261.171C200.946 262.939 198.471 263.882 198.236 263.941C196.704 264.176 194.936 264.353 193.345 264.53C190.221 264.883 187.511 265.178 186.627 265.767C185.979 266.239 185.036 267.358 183.916 268.655C181.795 271.189 178.848 274.607 176.845 274.489C175.784 274.43 174.664 274.194 173.486 273.958C171.07 273.487 168.359 272.898 165.413 273.428C159.343 274.548 157.28 275.785 156.102 277.199C154.923 278.555 154.334 280.323 154.334 280.382L154.746 280.558C154.746 280.558 155.336 278.791 156.455 277.494C157.575 276.139 159.579 275.019 165.53 273.899C168.359 273.369 171.07 273.899 173.427 274.43C174.664 274.665 175.784 274.901 176.904 275.019C178.436 275.137 180.204 273.605 181.913 271.837L182.03 272.014C182.089 272.014 185.389 270.128 188.925 269.185C190.634 268.714 192.814 268.714 194.936 268.714C197.352 268.714 199.65 268.714 201.123 268.124C204.011 267.005 204.836 265.296 206.014 262.349C207.134 259.639 212.379 253.864 213.852 252.921C214.559 252.449 214.913 252.626 215.384 252.803C215.738 252.98 216.209 253.157 216.975 253.039C218.448 252.744 225.52 249.444 225.873 246.792Z" fill="url(#paint3_linear_3618_8670)"/>
<path d="M170.009 257.753C169.184 258.578 169.361 259.992 169.478 261.583C169.596 263.116 169.773 264.883 169.066 266.298C167.711 269.126 161.641 271.248 161.582 271.307L161.759 271.778C161.995 271.66 168.064 269.539 169.478 266.533C170.245 265.001 170.068 263.174 169.891 261.583C169.773 260.11 169.655 258.814 170.303 258.107C171.011 257.399 173.545 256.81 175.784 256.339C178.377 255.749 180.616 255.219 181.146 254.512C181.677 253.805 181.795 253.157 181.853 252.567C181.971 251.919 182.03 251.448 182.62 251.035C182.914 250.858 184.446 250.917 186.096 251.035C190.634 251.271 197.528 251.683 200.003 248.266C201.948 245.555 201.3 243.551 200.711 241.842C200.239 240.428 199.827 239.191 200.711 237.776C201.418 236.598 202.596 236.244 203.952 235.773C206.603 234.948 209.903 233.887 212.025 227.051C212.496 225.46 212.261 223.81 212.025 222.219C211.671 220.098 211.377 218.094 212.673 216.267L212.32 215.973C210.964 217.976 211.318 220.157 211.612 222.278C211.848 223.869 212.084 225.401 211.671 226.874C209.609 233.474 206.486 234.476 203.952 235.301C202.478 235.773 201.182 236.185 200.416 237.482C199.473 239.132 199.945 240.605 200.416 241.96C201.005 243.669 201.595 245.437 199.768 247.971C197.47 251.153 190.457 250.741 186.273 250.505C184.682 250.387 183.621 250.387 183.032 250.446C183.327 249.798 183.445 248.914 183.621 247.853C183.916 246.085 184.27 244.023 185.33 242.903C185.861 242.373 186.627 242.137 187.57 241.842C189.927 241.135 193.109 240.251 195.643 233.71V233.651C196.114 231.412 195.584 229.821 195.053 228.878C194.818 228.466 194.346 228.23 193.875 227.994C193.345 227.758 192.755 227.464 192.284 226.757C191.459 225.519 191.105 218.624 191.4 217.269C191.4 217.151 191.459 217.092 191.459 217.092C191.518 217.033 191.812 217.151 192.048 217.21C192.755 217.446 193.993 217.917 195.466 216.857L195.171 216.444C193.875 217.387 192.873 217.033 192.166 216.739C191.753 216.621 191.459 216.503 191.223 216.621C191.046 216.68 190.987 216.857 190.928 217.092C190.634 218.389 190.928 225.519 191.871 226.933C192.402 227.758 193.109 228.053 193.698 228.348C194.111 228.524 194.464 228.701 194.641 228.996C195.112 229.88 195.643 231.294 195.171 233.415C192.755 239.721 189.691 240.605 187.452 241.253C186.45 241.548 185.625 241.783 184.977 242.432C183.857 243.669 183.503 245.732 183.15 247.617C182.914 248.855 182.737 249.974 182.325 250.505C181.677 250.976 181.559 251.624 181.441 252.273C181.323 252.862 181.264 253.451 180.793 254.041C180.321 254.689 177.846 255.219 175.666 255.691C173.191 256.457 170.775 256.987 170.009 257.753Z" fill="url(#paint4_linear_3618_8670)"/>
<path d="M170.657 211.023C171.247 211.671 171.718 212.142 171.423 213.557C171.247 214.5 170.716 215.855 170.127 217.328C169.125 219.921 168.123 222.573 168.595 223.751C168.831 224.341 169.184 224.753 169.538 225.166C170.304 226.05 171.07 226.933 170.657 229.585C170.304 231.707 169.184 233.357 168.3 234.712C167.475 235.891 166.827 236.892 166.886 237.835C166.945 238.601 167.357 239.132 167.77 239.662C168.477 240.546 169.243 241.489 168.241 243.846C167.475 245.673 166.414 246.144 165.531 246.498C164.588 246.91 163.822 247.264 164.116 249.032C164.411 250.917 165.589 252.096 166.709 253.216C167.534 254.041 168.359 254.925 168.948 256.044L169.361 255.808C168.772 254.63 167.888 253.687 167.063 252.862C165.943 251.683 164.882 250.623 164.588 248.914C164.352 247.5 164.882 247.323 165.766 246.91C166.65 246.498 167.888 245.967 168.713 244.023C169.832 241.371 168.948 240.31 168.123 239.308C167.711 238.778 167.357 238.366 167.298 237.776C167.239 236.951 167.829 236.067 168.595 234.948C169.538 233.592 170.716 231.883 171.07 229.644C171.482 226.757 170.657 225.755 169.832 224.871C169.479 224.458 169.184 224.105 168.948 223.575C168.536 222.514 169.597 219.862 170.481 217.505C171.07 216.032 171.6 214.676 171.777 213.675C172.131 212.025 171.541 211.376 170.893 210.728C170.481 210.257 170.009 209.785 169.832 208.901L169.361 209.019C169.714 209.962 170.245 210.492 170.657 211.023Z" fill="url(#paint5_linear_3618_8670)"/>
<path d="M173.014 275.019C171.423 274.253 167.416 273.899 164.941 274.312C162.584 274.724 158.4 275.667 156.75 277.435C155.807 278.437 154.982 280.382 154.923 280.499L155.336 280.676C155.336 280.676 156.161 278.732 157.045 277.789C158.636 276.08 163.114 275.137 164.941 274.842C167.593 274.371 171.364 274.842 172.72 275.49C174.193 276.198 174.723 277.317 174.782 277.848C175.018 279.498 172.248 280.971 172.248 280.971L172.484 281.383C172.602 281.324 175.548 279.733 175.254 277.789C175.254 276.964 174.605 275.785 173.014 275.019Z" fill="url(#paint6_linear_3618_8670)"/>
<path d="M174.252 246.38C175.077 246.733 175.902 247.028 176.432 247.794C177.08 248.678 178.377 250.976 176.668 252.98C175.961 253.805 174.193 254.453 172.484 255.101C170.775 255.69 169.184 256.28 168.712 257.046C168.182 257.871 168.3 259.285 168.418 260.935C168.536 262.408 168.653 263.94 168.3 265.119C167.593 267.594 161.464 270.481 161.405 270.481L161.582 270.894C161.818 270.776 167.946 267.889 168.712 265.237C169.066 263.94 168.948 262.29 168.889 260.876C168.771 259.403 168.712 257.989 169.125 257.281C169.537 256.633 171.128 256.044 172.72 255.514C174.487 254.865 176.314 254.217 177.08 253.274C178.436 251.683 178.377 249.562 176.903 247.499C176.314 246.615 175.371 246.262 174.487 245.908C173.662 245.555 172.837 245.26 172.484 244.494C171.777 242.962 172.307 241.253 173.309 240.605C173.545 240.428 173.839 240.31 174.075 240.133C174.9 239.603 175.784 239.131 176.845 237.953C178.259 236.421 180.911 230.174 181.382 227.169C181.677 225.401 181.146 224.635 180.675 223.751C180.262 223.103 179.85 222.455 179.732 221.158L179.261 221.217C179.378 222.572 179.85 223.339 180.262 223.987C180.734 224.753 181.205 225.46 180.911 227.051C180.439 229.997 177.846 236.126 176.491 237.599C175.489 238.719 174.605 239.19 173.78 239.721C173.545 239.897 173.25 240.015 173.014 240.192C171.895 240.958 171.246 242.903 172.071 244.671C172.425 245.672 173.368 246.026 174.252 246.38Z" fill="url(#paint7_linear_3618_8670)"/>
</g>
<g opacity="0.2">
<path d="M154.098 273.251C153.921 272.014 152.507 271.012 151.034 270.01C149.914 269.244 148.205 268.301 146.732 267.417C145.436 266.651 144.257 266.062 143.786 265.708C143.668 265.591 143.55 265.473 143.432 265.296C142.725 264.176 142.195 261.407 142.312 259.226C142.371 257.989 142.253 257.046 142.194 256.28C142.077 255.455 142.018 254.866 142.253 254.335C142.43 253.923 142.725 253.864 143.196 253.805C143.668 253.746 144.316 253.628 144.611 252.862C144.846 252.214 144.728 251.507 144.67 250.799C144.552 250.092 144.493 249.444 144.787 249.032C145.082 248.619 145.377 248.501 145.789 248.383C146.202 248.207 146.673 248.03 147.086 247.441C147.439 246.91 146.968 246.203 146.319 245.319C145.436 244.082 144.257 242.314 144.728 240.133C145.259 237.776 146.025 237.894 147.027 238.071C147.498 238.13 148.087 238.248 148.618 238.012C149.561 237.658 150.444 235.596 151.328 233.415C152.036 231.765 152.743 230.057 153.332 229.526C154.039 228.996 154.687 228.878 155.218 228.76C155.807 228.642 156.337 228.524 156.75 227.994C157.28 227.346 156.986 226.462 156.75 225.696C156.632 225.224 156.455 224.753 156.573 224.517L156.161 224.282C155.925 224.635 156.102 225.224 156.278 225.814C156.455 226.521 156.691 227.287 156.337 227.699C156.043 228.112 155.63 228.171 155.041 228.289C154.452 228.407 153.745 228.524 152.978 229.114C152.271 229.644 151.564 231.353 150.798 233.18C150.032 235.065 149.148 237.187 148.323 237.482C147.852 237.658 147.38 237.599 146.909 237.541C145.848 237.364 144.787 237.246 144.139 239.957C143.609 242.314 144.846 244.14 145.789 245.496C146.261 246.203 146.673 246.792 146.496 247.087C146.202 247.558 145.848 247.676 145.436 247.853C145.023 247.971 144.611 248.148 144.257 248.678C143.844 249.267 143.962 250.033 144.08 250.741C144.198 251.389 144.257 252.037 144.08 252.567C143.903 253.098 143.491 253.157 143.02 253.215C142.548 253.274 142.018 253.333 141.723 254.041C141.428 254.689 141.546 255.396 141.664 256.221C141.782 256.987 141.9 257.93 141.782 259.108C141.664 260.464 141.841 262.114 142.194 263.528C141.193 261.878 139.896 259.344 139.72 256.869C139.543 254.748 139.955 254.04 140.486 252.921C141.016 251.86 141.664 250.564 142.194 247.617C142.902 243.433 141.075 239.544 139.837 237.541C139.955 237.128 140.78 234.358 142.961 233.592L144.08 233.18C146.143 232.414 147.97 231.766 148.912 231.294C150.209 230.646 151.152 228.524 151.387 227.228C151.505 226.462 151.152 225.991 150.798 225.578C150.503 225.166 150.209 224.812 150.209 224.223C150.268 223.692 151.034 223.162 151.918 222.573C153.214 221.748 154.805 220.687 155.395 218.919C156.161 216.798 155.395 215.855 154.746 215.03C154.393 214.617 154.098 214.264 153.98 213.733L153.568 213.851C153.745 214.441 154.098 214.912 154.452 215.324C155.1 216.149 155.748 216.915 155.041 218.742C154.452 220.333 152.92 221.335 151.741 222.16C150.68 222.867 149.855 223.398 149.796 224.105C149.737 224.93 150.091 225.401 150.444 225.814C150.739 226.226 151.034 226.521 150.916 227.11C150.68 228.466 149.678 230.351 148.677 230.882C147.734 231.353 145.848 232.001 143.845 232.708L142.725 233.121C140.721 233.828 139.778 236.067 139.425 237.01C139.012 236.421 138.718 236.067 138.718 236.008C138.659 235.949 134.475 232.119 132.589 229.232C130.703 226.285 130.762 223.869 131.764 222.985C132.295 222.514 133.414 222.455 134.652 222.396C135.83 222.337 137.127 222.278 138.305 221.866C140.073 221.217 141.37 218.683 141.723 217.917C142.195 216.798 142.725 215.265 142.43 214.558C141.959 213.262 139.955 212.849 139.896 212.79L139.837 213.262C139.837 213.262 141.664 213.616 142.018 214.735C142.136 215.148 141.959 216.267 141.311 217.741C140.603 219.214 139.425 220.982 138.187 221.453C137.068 221.866 135.83 221.924 134.711 221.983C133.355 222.042 132.236 222.101 131.587 222.632C130.468 223.574 130.232 226.167 132.353 229.467C134.18 232.355 138.246 236.126 138.541 236.362C138.777 236.657 142.784 241.783 141.782 247.558C141.311 250.446 140.662 251.683 140.132 252.685C140.014 252.921 139.896 253.157 139.778 253.392C139.248 251.978 139.307 251.153 139.366 250.505C139.425 249.562 139.366 249.032 138.069 248.207C136.361 247.146 133.061 246.969 130.88 246.851C129.996 246.792 129.23 246.733 128.877 246.674C127.521 246.38 126.814 245.732 126.461 244.494C126.166 243.492 126.402 243.198 126.814 242.667C126.932 242.549 127.05 242.373 127.227 242.196C127.403 241.96 127.757 241.783 128.111 241.548C128.936 241.076 130.055 240.428 129.996 238.778C129.937 237.364 128.994 236.892 128.052 236.362C127.403 236.008 126.755 235.655 126.284 235.007C125.046 233.357 123.573 228.583 123.278 225.991C122.984 223.044 123.514 217.623 123.986 217.269C124.162 217.21 124.928 217.564 125.518 217.858C126.637 218.389 128.052 219.037 128.994 218.801C129.171 218.742 129.289 218.742 129.466 218.683C130.703 218.389 130.821 218.271 130.762 217.033C130.703 216.149 130.055 216.032 129.466 215.973C129.112 215.914 128.7 215.855 128.523 215.56C128.052 214.971 128.228 212.732 128.287 211.907L127.816 211.848C127.757 212.142 127.462 214.971 128.111 215.855C128.405 216.267 128.936 216.326 129.348 216.385C129.937 216.503 130.232 216.562 130.232 217.033C130.291 217.505 130.291 217.799 130.173 217.858C130.055 217.976 129.761 218.035 129.289 218.153C129.171 218.212 128.995 218.212 128.818 218.271C127.993 218.507 126.696 217.858 125.636 217.328C124.634 216.857 124.103 216.621 123.75 216.739C122.807 217.092 122.512 223.692 122.689 225.932C122.984 228.642 124.457 233.474 125.753 235.183C126.284 235.949 127.05 236.303 127.698 236.657C128.582 237.128 129.348 237.541 129.407 238.66C129.466 240.016 128.582 240.546 127.757 241.017C127.344 241.253 126.932 241.489 126.755 241.783C126.637 241.96 126.52 242.078 126.402 242.255C125.93 242.785 125.577 243.257 125.93 244.494C126.343 245.849 127.168 246.616 128.7 246.969C128.994 247.028 129.407 247.087 129.996 247.087C129.643 247.323 129.289 247.323 128.877 247.323C128.464 247.323 127.934 247.264 127.521 247.617C126.755 248.148 127.227 249.032 127.58 249.68C127.757 249.974 127.875 250.269 127.875 250.446C127.875 250.564 127.816 250.682 127.698 250.799C127.462 250.976 126.991 251.035 126.343 250.976C125.636 250.858 124.634 249.798 124.045 249.149C123.809 248.914 123.632 248.678 123.514 248.619C123.278 248.383 122.925 248.442 122.63 248.442C122.277 248.501 121.864 248.501 121.511 248.207C121.275 248.089 121.157 247.853 121.157 247.558C121.098 247.028 121.334 246.439 121.452 246.262C121.511 246.203 121.746 246.203 121.923 246.203C122.218 246.203 122.571 246.203 122.866 245.967C123.337 245.555 123.514 244.907 123.455 243.905C123.396 243.316 122.925 243.316 122.512 243.316C122.041 243.316 121.511 243.257 121.275 242.608C121.098 242.137 121.334 241.666 121.687 241.076C122.218 240.192 122.866 239.014 121.982 237.423C120.921 235.419 119.743 235.655 118.859 235.832C118.564 235.89 118.269 235.949 118.093 235.891C117.916 235.832 117.798 235.714 117.798 235.655C117.739 235.478 117.857 235.301 117.916 235.242L117.562 234.948C117.503 235.007 117.268 235.36 117.386 235.773C117.445 236.008 117.68 236.244 117.975 236.362C118.27 236.48 118.623 236.421 118.977 236.362C119.802 236.185 120.686 236.008 121.628 237.717C122.394 239.132 121.864 240.074 121.334 240.958C120.98 241.607 120.627 242.196 120.862 242.903C121.216 243.846 121.982 243.846 122.512 243.905C122.984 243.905 123.043 243.964 123.043 244.082C123.102 244.907 122.984 245.496 122.63 245.791C122.453 245.908 122.218 245.908 121.982 245.908C121.687 245.908 121.393 245.908 121.157 246.144C120.921 246.38 120.627 247.146 120.744 247.794C120.803 248.207 120.98 248.56 121.275 248.796C121.805 249.149 122.336 249.149 122.689 249.09C122.984 249.09 123.161 249.032 123.278 249.149C123.396 249.208 123.573 249.444 123.75 249.68C124.398 250.387 125.459 251.565 126.284 251.683C126.284 251.683 126.284 251.683 126.343 251.683C127.109 251.801 127.698 251.683 128.052 251.389C128.228 251.212 128.346 250.976 128.405 250.682C128.405 250.387 128.228 250.092 128.052 249.68C127.698 248.973 127.462 248.501 127.875 248.207C128.228 247.971 128.523 247.971 128.936 247.971C129.466 247.971 130.114 248.03 130.703 247.323C130.762 247.323 130.821 247.323 130.88 247.323C133.002 247.44 136.302 247.676 137.893 248.619C139.012 249.326 139.012 249.68 138.953 250.505C138.894 251.271 138.836 252.273 139.602 254.041C139.366 254.748 139.248 255.573 139.366 256.928C139.661 261.053 142.843 265.237 143.078 265.532C143.196 265.708 143.373 265.885 143.491 266.003C143.962 266.357 145.141 267.005 146.496 267.771C147.97 268.596 149.678 269.539 150.798 270.305C152.095 271.248 153.509 272.19 153.686 273.251C153.744 273.723 153.627 274.253 153.155 274.783C151.564 276.905 149.561 284.212 149.561 284.507L149.973 284.566C150.032 284.094 152.036 277.023 153.509 275.078C153.98 274.43 154.157 273.84 154.098 273.251Z" fill="url(#paint8_linear_3618_8670)"/>
<path d="M150.916 275.137C150.268 272.898 147.027 270.482 145.966 269.833C143.668 268.419 138.364 268.125 135.948 268.655C134.828 268.891 134.062 269.244 133.355 269.598C132.589 269.951 131.941 270.305 131.057 270.305C129.23 270.305 128.228 270.541 127.344 271.189C127.168 271.307 127.109 271.483 127.109 271.601C127.109 271.955 127.403 272.308 127.816 272.662C128.111 272.957 128.523 273.31 128.464 273.546C128.464 273.664 128.346 273.723 128.228 273.782C127.05 274.43 126.107 273.487 126.048 273.487L125.753 273.782C125.753 273.782 126.932 275.019 128.464 274.194C128.759 274.017 128.877 273.841 128.936 273.605C128.994 273.133 128.582 272.721 128.111 272.367C127.875 272.132 127.521 271.837 127.521 271.66L127.58 271.601C128.346 271.012 129.289 270.776 130.998 270.776C132 270.776 132.707 270.423 133.532 270.01C134.18 269.657 134.946 269.303 136.007 269.067C138.305 268.596 143.491 268.832 145.671 270.187C146.968 271.012 149.855 273.251 150.444 275.255C150.621 275.785 150.327 276.787 149.973 277.494C148.205 281.619 147.616 284.566 147.616 284.566L148.028 284.683C148.028 284.683 148.618 281.737 150.386 277.671C150.68 277.199 151.152 275.903 150.916 275.137Z" fill="url(#paint9_linear_3618_8670)"/>
<path d="M151.977 274.724C151.859 273.899 151.034 272.956 150.739 272.662C150.68 272.603 150.68 272.603 150.68 272.544C149.03 270.599 146.614 268.714 145.023 268.124C144.611 267.947 144.021 267.83 143.373 267.712C140.78 266.474 138.305 266.003 135.889 265.531C134.593 265.296 133.237 265.001 131.882 264.647C128.287 263.587 122.218 257.576 121.982 257.34C121.805 257.105 117.68 251.919 117.327 250.092C117.15 249.326 116.266 245.437 115.854 244.317C115.441 243.374 110.255 241.665 109.254 241.312H109.195C106.661 241.194 103.007 240.958 102.654 240.722C102.241 240.428 101.77 239.014 101.829 238.424C101.829 238.189 102.123 238.012 102.418 237.835C102.889 237.54 103.42 237.128 103.537 236.421C103.596 235.89 103.243 234.299 102.595 231.765C102.005 229.349 101.18 226.049 101.416 225.46C101.593 224.93 101.946 224.871 102.241 224.753C102.536 224.694 102.948 224.576 103.066 224.046C103.125 223.869 103.007 223.751 102.948 223.633C102.712 223.339 102.182 223.397 101.475 223.456C100.768 223.515 99.825 223.574 99.4714 223.221L99.1768 223.574C99.7071 224.046 100.65 223.987 101.475 223.928C101.887 223.928 102.477 223.869 102.595 223.987C102.536 224.222 102.418 224.281 102.123 224.34C101.77 224.458 101.239 224.576 100.945 225.342C100.709 225.99 101.239 228.347 102.123 231.883C102.595 233.887 103.125 235.89 103.066 236.362C103.007 236.892 102.536 237.187 102.123 237.481C101.711 237.717 101.357 238.012 101.298 238.424C101.18 239.19 101.711 240.781 102.3 241.194C102.771 241.547 107.545 241.783 109.077 241.842C112.023 242.785 115.146 244.081 115.382 244.553C115.736 245.378 116.325 248.03 116.855 250.21C117.268 252.155 121.452 257.399 121.629 257.635C121.864 257.871 127.934 263.999 131.705 265.119C133.061 265.531 134.416 265.767 135.712 266.003C137.657 266.356 139.602 266.769 141.664 267.535C140.545 267.417 139.307 267.299 138.129 267.24C137.127 267.181 136.243 267.122 135.477 267.005C129.879 266.415 126.755 265.59 124.752 264.117C122.454 262.526 115.618 256.456 115.029 255.749C114.734 255.396 114.616 254.924 114.439 254.394C114.321 253.981 114.204 253.51 113.968 252.98C113.084 251.035 109.843 248.972 107.486 247.44C106.248 246.674 105.187 245.967 104.952 245.614C104.598 245.083 104.716 244.73 104.893 244.258C105.011 243.964 105.187 243.551 105.187 243.08H104.716C104.716 243.492 104.598 243.787 104.48 244.081C104.245 244.612 104.068 245.083 104.539 245.849C104.834 246.262 105.836 246.91 107.191 247.794C109.548 249.267 112.73 251.33 113.496 253.156C113.732 253.628 113.85 254.099 113.968 254.512C114.145 255.101 114.262 255.572 114.616 256.044C115.205 256.751 122.1 262.88 124.398 264.471C126.52 265.944 129.643 266.828 135.359 267.417C136.066 267.476 137.009 267.535 138.011 267.653C140.486 267.83 143.314 268.006 144.729 268.537C146.261 269.067 148.618 270.953 150.209 272.839C150.209 272.839 150.268 272.897 150.327 272.956C150.562 273.251 151.387 274.135 151.505 274.783C151.623 275.431 151.152 276.728 150.504 278.437C149.914 280.087 149.148 282.149 148.5 284.624L148.912 284.742C149.561 282.267 150.327 280.264 150.916 278.614C151.623 276.787 152.095 275.549 151.977 274.724Z" fill="url(#paint10_linear_3618_8670)"/>
<path d="M104.716 211.789C104.657 212.143 104.303 212.673 103.891 213.262C103.125 214.382 102.3 215.619 102.83 216.621C103.125 217.151 103.832 217.623 104.657 218.212C106.189 219.214 108.134 220.51 108.9 222.867C110.137 226.58 113.32 233.239 113.32 233.298V233.357C113.378 233.416 117.209 238.66 115.912 243.728L116.325 243.846C117.68 238.66 113.968 233.534 113.673 233.121C113.673 233.062 113.555 232.885 113.437 232.65C113.968 232.532 115.146 232.178 115.971 231.117C116.561 230.351 116.796 229.291 116.678 228.112C116.443 226.05 115.441 224.105 114.557 222.396C113.791 220.923 113.143 219.685 113.202 218.742C113.261 217.917 113.732 217.8 114.321 217.623C115.028 217.446 115.912 217.151 116.089 215.619C116.266 213.969 115.146 213.262 114.203 212.673C113.437 212.201 113.025 211.907 113.084 211.376C113.202 209.903 115.323 207.841 115.323 207.841L115.028 207.487C114.911 207.605 112.789 209.668 112.671 211.318C112.612 212.143 113.32 212.614 114.027 213.026C114.911 213.557 115.853 214.146 115.677 215.501C115.559 216.739 114.911 216.916 114.203 217.093C113.555 217.269 112.848 217.446 112.789 218.566C112.73 219.626 113.378 220.923 114.145 222.455C114.97 224.105 115.971 225.991 116.207 227.994C116.325 229.055 116.148 229.939 115.618 230.646C114.852 231.648 113.673 231.942 113.261 232.001C112.377 230.057 110.255 225.401 109.253 222.573C108.428 220.098 106.366 218.684 104.834 217.682C104.068 217.151 103.361 216.68 103.125 216.268C102.712 215.501 103.478 214.382 104.127 213.439C104.539 212.791 104.952 212.201 105.011 211.789C105.07 211.141 104.48 210.198 103.714 209.078C103.066 208.076 102.3 206.957 102.182 206.132L101.77 206.191C101.887 207.134 102.653 208.253 103.361 209.314C104.127 210.375 104.775 211.318 104.716 211.789Z" fill="url(#paint11_linear_3618_8670)"/>
<path d="M149.325 276.669C148.795 275.432 147.204 274.43 146.084 273.664C145.613 273.369 145.259 273.134 145.082 272.957C144.906 272.78 144.847 272.603 144.847 272.426C144.729 271.896 144.552 271.425 143.432 270.953C141.723 270.246 137.598 269.892 136.243 270.717C135.713 271.071 135.595 271.484 135.654 271.837C135.772 272.78 136.95 273.664 137.952 274.017C138.659 274.253 138.718 275.019 138.777 275.785C138.836 276.434 138.895 277.141 139.366 277.494C139.661 277.73 139.838 277.966 139.779 278.201C139.72 278.437 139.307 278.732 138.364 278.85C137.068 278.967 135.064 278.496 135.006 278.437L134.888 278.85C134.947 278.85 137.009 279.38 138.364 279.262C139.366 279.144 140.014 278.791 140.132 278.26C140.25 277.848 140.014 277.435 139.543 277.082C139.248 276.846 139.189 276.316 139.131 275.726C139.072 274.901 139.013 273.9 138.011 273.605C136.95 273.251 136.066 272.485 136.007 271.837C135.948 271.601 136.125 271.366 136.361 271.189C137.539 270.482 141.37 270.717 143.138 271.425C144.139 271.837 144.198 272.191 144.316 272.544C144.375 272.78 144.434 273.075 144.67 273.31C144.847 273.487 145.259 273.782 145.731 274.076C146.791 274.725 148.323 275.785 148.854 276.846C149.207 277.612 148.795 278.437 148.264 279.616C147.793 280.735 147.145 282.091 146.909 283.976L147.322 284.035C147.557 282.209 148.206 280.912 148.677 279.851C149.325 278.555 149.797 277.612 149.325 276.669Z" fill="url(#paint12_linear_3618_8670)"/>
</g>
<path d="M164.411 184.093C185.923 184.093 203.363 174.7 203.363 163.114C203.363 151.528 185.923 142.136 164.411 142.136C142.898 142.136 125.459 151.528 125.459 163.114C125.459 174.7 142.898 184.093 164.411 184.093Z" fill="#2A697F"/>
<path d="M164.057 163.409C173.495 163.409 181.146 159.61 181.146 154.923C181.146 150.237 173.495 146.438 164.057 146.438C154.619 146.438 146.968 150.237 146.968 154.923C146.968 159.61 154.619 163.409 164.057 163.409Z" fill="#293C4F"/>
<path d="M164.057 148.5C172.778 148.5 180.027 151.741 181.028 155.925C181.087 155.571 181.146 155.277 181.146 154.923C181.146 150.268 173.486 146.438 164.057 146.438C154.628 146.438 146.968 150.209 146.968 154.923C146.968 155.277 147.027 155.63 147.086 155.925C148.087 151.741 155.277 148.5 164.057 148.5Z" fill="#DBDBDB"/>
<path d="M181.028 157.693L180.616 156.043C179.614 151.977 172.484 148.913 164.057 148.913C155.571 148.913 148.441 151.977 147.498 156.043L147.086 157.693L146.673 156.043C146.555 155.69 146.555 155.277 146.555 154.924C146.555 152.508 148.441 150.268 151.8 148.559C155.1 146.909 159.461 146.025 164.057 146.025C168.653 146.025 173.073 146.909 176.314 148.559C179.673 150.209 181.559 152.508 181.559 154.924C181.559 155.277 181.5 155.631 181.441 156.043L181.028 157.693ZM164.057 148.088C171.718 148.088 178.377 150.622 180.675 154.158C179.85 150.091 172.719 146.85 164.057 146.85C155.394 146.85 148.264 150.033 147.439 154.158C149.737 150.622 156.396 148.088 164.057 148.088Z" fill="#323A50"/>
<path d="M164.47 142.194C142.961 142.194 125.518 151.387 125.518 162.701C125.518 174.016 142.961 183.209 164.47 183.209C185.979 183.209 203.422 174.016 203.422 162.701C203.422 151.387 186.038 142.194 164.47 142.194ZM181.206 155.041C181.206 155.1 181.264 155.159 181.264 155.159C181.264 155.218 181.264 155.276 181.264 155.335C180.557 159.578 173.191 162.937 164.234 162.937C155.513 162.937 148.264 159.755 147.263 155.689C147.263 155.571 147.204 155.453 147.204 155.394C147.204 155.335 147.204 155.277 147.204 155.218C147.204 155.159 147.204 155.1 147.204 155.041C147.204 154.923 147.204 154.687 147.204 154.687C147.204 154.687 147.204 154.393 147.204 154.275C147.263 153.685 147.44 153.155 147.734 152.625C148.029 152.094 148.382 151.623 148.854 151.151H148.913C151.682 148.382 157.575 146.496 164.352 146.496C173.781 146.496 181.5 150.209 181.5 154.746H181.323C181.147 154.864 181.206 154.982 181.206 155.041Z" fill="#DBDBDB"/>
<path d="M164.47 183.622C153.98 183.622 144.139 181.5 136.714 177.552C129.23 173.604 125.105 168.359 125.105 162.702C125.105 157.045 129.23 151.8 136.714 147.852C144.139 143.963 153.98 141.782 164.47 141.782C174.959 141.782 184.8 143.904 192.225 147.852C199.709 151.8 203.834 157.045 203.834 162.702C203.834 168.359 199.709 173.604 192.225 177.552C184.859 181.441 174.959 183.622 164.47 183.622ZM164.47 142.607C143.197 142.607 125.872 151.623 125.872 162.702C125.872 173.78 143.197 182.796 164.47 182.796C185.743 182.796 203.068 173.78 203.068 162.702C203.068 151.623 185.743 142.607 164.47 142.607ZM164.116 163.409C155.277 163.409 147.793 160.168 146.732 155.807C146.732 155.689 146.673 155.572 146.673 155.454C146.673 155.395 146.673 155.336 146.614 155.277C146.614 155.218 146.614 155.159 146.614 155.1V155.041C146.614 154.923 146.614 154.864 146.614 154.688V154.275V154.216C146.673 153.627 146.85 153.038 147.204 152.448C147.498 151.918 147.911 151.388 148.382 150.857L148.441 150.798C151.388 147.852 157.398 146.025 164.175 146.025C168.83 146.025 173.191 146.909 176.491 148.5C179.909 150.15 181.736 152.33 181.736 154.688V155.1H181.618C181.618 155.159 181.618 155.159 181.618 155.218C181.618 155.277 181.618 155.336 181.559 155.395C180.852 159.991 173.368 163.409 164.116 163.409ZM147.439 154.747C147.439 154.864 147.439 154.923 147.439 154.982V155.041C147.439 155.1 147.439 155.1 147.439 155.159C147.439 155.218 147.439 155.277 147.439 155.336C147.439 155.454 147.498 155.513 147.498 155.63C148.5 159.579 155.63 162.584 164.057 162.584C172.72 162.584 180.027 159.402 180.675 155.336V155.277C180.675 155.218 180.616 155.159 180.675 155.1C180.675 155.1 180.675 155.041 180.675 154.982C180.675 154.923 180.675 154.864 180.675 154.747V154.334H180.852C180.616 152.448 178.966 150.622 176.079 149.266C172.897 147.734 168.654 146.909 164.116 146.909C157.693 146.909 151.741 148.677 148.972 151.447L148.913 151.505C148.441 151.977 148.147 152.389 147.852 152.861C147.616 153.332 147.439 153.863 147.38 154.334C147.439 154.452 147.439 154.688 147.439 154.747Z" fill="#323A50"/>
<g opacity="0.3">
<path d="M165.471 296.057C165.412 296.057 165.353 296.057 165.353 296.057C151.682 296.057 138.069 292.227 125.989 285.096H125.93L125.341 284.507C110.255 275.786 98.9409 262.173 92.5766 245.143C90.0427 238.543 88.5105 231.53 87.8623 223.634C87.6266 219.921 87.6266 216.444 87.8623 212.791C88.0391 209.137 88.5695 205.425 89.5123 201.123C90.4552 196.703 91.9284 192.343 93.932 187.628L94.698 187.982C92.6945 192.578 91.2213 196.939 90.3373 201.3C89.3945 205.602 88.923 209.255 88.6873 212.85C88.5105 216.503 88.5105 219.921 88.6873 223.634C89.3355 231.471 90.8677 238.425 93.3427 244.907C99.648 261.76 110.903 275.196 125.812 283.859H125.871L126.461 284.448C150.798 298.827 179.85 298.885 204.305 284.625C205.484 283.8 206.78 282.975 208.194 282.15C221.1 273.841 230.823 261.996 237.011 246.852C237.305 246.144 237.541 245.378 237.836 244.612C238.071 243.846 238.366 243.08 238.661 242.373C243.375 228.053 243.905 213.439 240.252 198.943V198.884C240.134 198.294 237.718 190.869 236.244 187.51L237.011 187.216C238.366 190.398 240.841 197.823 241.077 198.825C244.73 213.498 244.2 228.23 239.427 242.668V242.727C239.132 243.434 238.896 244.2 238.602 244.966C238.366 245.732 238.071 246.498 237.777 247.264C231.53 262.527 221.748 274.548 208.666 282.916C207.252 283.741 206.014 284.566 204.836 285.332C192.637 292.344 179.084 296.057 165.471 296.057Z" fill="#323A50"/>
</g>
<path d="M242.373 153.921C238.602 148.618 232.532 146.201 224.282 146.791C219.568 147.144 215.502 148.382 213.793 148.971C213.675 148.735 213.498 148.559 213.262 148.441C214.735 147.91 219.155 146.437 224.223 146.084C232.532 145.494 239.014 148.028 242.844 153.45C243.493 154.098 262.35 173.544 268.36 186.626C269.952 190.103 273.075 189.867 278.85 189.514C283.623 189.219 290.164 188.807 298.944 190.28L298.827 190.928C290.105 189.455 283.623 189.867 278.85 190.162C273.016 190.516 269.48 190.751 267.712 186.862C262.821 176.196 249.268 161.228 244.259 155.866C246.027 160.462 244.966 168.064 241.077 178.494C237.364 188.453 231.118 201.005 222.455 215.914C219.273 221.394 215.973 226.816 212.732 231.884H211.966C215.207 226.757 218.625 221.159 221.866 215.56C241.312 182.266 248.384 160.993 242.373 153.921Z" fill="#323A50"/>
<path d="M217.623 154.157C217.387 153.745 216.091 151.741 215.796 151.388C215.796 151.152 217.093 152.213 216.975 152.036C216.857 151.623 216.386 151.211 215.914 151.093C215.796 150.622 215.737 150.386 215.207 150.268C215.207 150.032 214.677 150.209 214.618 150.032C215.855 151.093 217.387 152.507 218.212 153.863C221.748 160.168 216.916 179.614 203.834 211.613C200.946 218.684 197.941 225.697 195.171 231.825H194.405C206.545 204.482 222.75 163.822 217.623 154.157Z" fill="#323A50"/>
<path d="M213.321 148.441C213.439 148.5 213.616 148.618 213.734 148.677L217.682 147.145C215.737 147.616 214.264 148.087 213.321 148.441Z" fill="#323A50"/>
<path d="M215.03 150.032L225.166 146.084C224.753 146.084 224.282 146.143 223.869 146.143L214.735 149.679C214.853 149.796 214.971 149.914 215.03 150.032Z" fill="#323A50"/>
<path d="M215.973 151.447L229.468 146.261C229.173 146.202 228.878 146.202 228.584 146.202L215.678 151.152C215.678 151.211 215.737 151.27 215.737 151.27C215.855 151.329 215.914 151.388 215.973 151.447Z" fill="#323A50"/>
<path d="M217.21 152.86L232.767 146.85C232.532 146.791 232.296 146.732 232.06 146.673L216.975 152.507C217.034 152.625 217.092 152.742 217.21 152.86Z" fill="#323A50"/>
<path d="M217.859 154.276L235.125 147.617C234.948 147.558 234.771 147.44 234.535 147.381L217.741 153.863C217.741 154.04 217.8 154.158 217.859 154.276Z" fill="#323A50"/>
<path d="M218.448 155.925L237.187 148.677C237.01 148.618 236.893 148.5 236.716 148.441L218.33 155.513C218.389 155.631 218.448 155.807 218.448 155.925Z" fill="#323A50"/>
<path d="M218.683 157.281C218.683 157.398 218.683 157.516 218.683 157.634L238.955 149.797C238.837 149.679 238.719 149.62 238.542 149.502L218.625 157.163C218.683 157.222 218.683 157.281 218.683 157.281Z" fill="#323A50"/>
<path d="M218.743 159.225C218.743 159.284 218.743 159.401 218.743 159.46L240.428 151.092C240.31 150.975 240.193 150.857 240.075 150.798L218.684 159.048C218.743 159.107 218.743 159.166 218.743 159.225Z" fill="#323A50"/>
<path d="M218.625 160.875L241.43 152.095C241.548 152.213 241.607 152.33 241.725 152.448L218.625 161.347C218.625 161.17 218.625 161.052 218.625 160.875Z" fill="#323A50"/>
<path d="M218.507 162.82L242.608 153.509C242.667 153.568 242.726 153.686 242.844 153.862L218.448 163.232C218.448 163.114 218.507 162.937 218.507 162.82Z" fill="#323A50"/>
<path d="M218.271 164.706L243.434 154.982C243.493 155.1 243.552 155.218 243.61 155.336L218.153 165.177C218.212 165 218.271 164.823 218.271 164.706Z" fill="#323A50"/>
<path d="M217.976 166.65L244.2 156.573C244.259 156.691 244.259 156.809 244.317 156.986L217.917 167.18C217.917 167.004 217.917 166.827 217.976 166.65Z" fill="#323A50"/>
<path d="M217.623 168.477L244.494 158.105C244.494 158.223 244.553 158.4 244.553 158.518L217.505 168.948C217.564 168.83 217.623 168.654 217.623 168.477Z" fill="#323A50"/>
<path d="M217.211 170.48L244.73 159.873C244.73 159.991 244.73 160.168 244.73 160.286L217.093 170.952C217.152 170.834 217.211 170.657 217.211 170.48Z" fill="#323A50"/>
<path d="M216.739 172.484L244.73 161.7C244.73 161.818 244.73 161.995 244.73 162.172L216.621 173.014C216.68 172.838 216.739 172.661 216.739 172.484Z" fill="#323A50"/>
<path d="M216.268 174.547L244.671 163.586C244.671 163.763 244.612 163.881 244.612 164.057L216.15 175.018C216.15 174.841 216.209 174.723 216.268 174.547Z" fill="#323A50"/>
<path d="M215.737 176.491L244.435 165.412C244.435 165.589 244.376 165.707 244.376 165.884L215.619 176.962C215.678 176.785 215.678 176.609 215.737 176.491Z" fill="#323A50"/>
<path d="M215.148 178.554L244.082 167.416C244.023 167.593 244.023 167.711 243.964 167.887L214.971 179.084C215.089 178.848 215.089 178.73 215.148 178.554Z" fill="#323A50"/>
<path d="M214.559 180.616L243.669 169.36C243.61 169.537 243.61 169.655 243.551 169.832L214.382 181.087C214.441 180.91 214.5 180.734 214.559 180.616Z" fill="#323A50"/>
<path d="M213.91 182.678L243.139 171.423C243.08 171.6 243.021 171.776 243.021 171.894L213.792 183.15C213.792 183.032 213.851 182.855 213.91 182.678Z" fill="#323A50"/>
<path d="M213.321 184.623L242.609 173.309C242.55 173.485 242.491 173.662 242.432 173.78L213.145 185.094C213.203 184.976 213.262 184.8 213.321 184.623Z" fill="#323A50"/>
<path d="M212.614 186.745L241.96 175.431C241.901 175.607 241.842 175.784 241.783 175.961L212.437 187.275C212.496 187.04 212.555 186.922 212.614 186.745Z" fill="#323A50"/>
<path d="M211.907 188.807L241.194 177.493C241.135 177.67 241.076 177.847 241.017 178.024L211.73 189.338C211.848 189.161 211.848 188.984 211.907 188.807Z" fill="#323A50"/>
<path d="M211.2 190.928L240.428 179.673C240.369 179.85 240.31 180.026 240.252 180.203L211.023 191.459C211.082 191.282 211.141 191.105 211.2 190.928Z" fill="#323A50"/>
<path d="M210.492 193.05L239.662 181.795C239.603 181.972 239.544 182.149 239.485 182.325L210.375 193.581C210.375 193.404 210.433 193.227 210.492 193.05Z" fill="#323A50"/>
<path d="M209.727 195.171L238.778 183.975C238.719 184.151 238.661 184.328 238.543 184.505L209.55 195.701C209.55 195.525 209.609 195.348 209.727 195.171Z" fill="#323A50"/>
<path d="M208.901 197.293L237.776 186.155C237.717 186.332 237.6 186.509 237.541 186.686L208.725 197.823C208.784 197.646 208.842 197.47 208.901 197.293Z" fill="#323A50"/>
<path d="M208.194 199.355L236.893 188.276C236.834 188.453 236.716 188.63 236.657 188.807L208.018 199.885C208.077 199.65 208.135 199.532 208.194 199.355Z" fill="#323A50"/>
<path d="M207.428 201.3L235.95 190.28C235.891 190.457 235.773 190.634 235.714 190.811L207.251 201.771C207.31 201.653 207.369 201.477 207.428 201.3Z" fill="#323A50"/>
<path d="M206.603 203.481L234.889 192.579C234.83 192.756 234.712 192.933 234.653 193.109L206.426 204.011C206.485 203.834 206.544 203.658 206.603 203.481Z" fill="#323A50"/>
<path d="M205.778 205.602L233.828 194.818C233.769 194.995 233.652 195.172 233.593 195.349L205.602 206.133C205.66 205.956 205.719 205.779 205.778 205.602Z" fill="#323A50"/>
<path d="M204.953 207.783L232.709 197.058C232.591 197.234 232.532 197.411 232.414 197.588L204.718 208.254C204.777 208.136 204.836 207.959 204.953 207.783Z" fill="#323A50"/>
<path d="M204.128 209.844L231.589 199.237C231.471 199.414 231.412 199.591 231.294 199.768L203.893 210.316C204.01 210.198 204.069 210.021 204.128 209.844Z" fill="#323A50"/>
<path d="M203.303 211.849L230.528 201.359C230.41 201.536 230.351 201.713 230.234 201.89L203.126 212.379C203.185 212.202 203.244 212.025 203.303 211.849Z" fill="#323A50"/>
<path d="M202.419 214.029L229.291 203.657C229.173 203.834 229.114 204.011 228.996 204.188L202.184 214.5C202.301 214.382 202.36 214.205 202.419 214.029Z" fill="#323A50"/>
<path d="M201.536 216.209L228.053 205.955C227.936 206.132 227.877 206.309 227.759 206.485L201.3 216.68C201.418 216.503 201.477 216.385 201.536 216.209Z" fill="#323A50"/>
<path d="M200.652 218.389L226.816 208.312C226.698 208.489 226.639 208.666 226.521 208.843L200.416 218.92C200.475 218.743 200.593 218.566 200.652 218.389Z" fill="#323A50"/>
<path d="M199.709 220.629L225.519 210.67C225.401 210.847 225.284 211.024 225.225 211.2L199.532 221.1C199.591 220.982 199.65 220.806 199.709 220.629Z" fill="#323A50"/>
<path d="M198.884 222.632L224.341 212.85C224.223 213.026 224.105 213.203 224.046 213.38L198.707 223.162C198.707 222.985 198.766 222.809 198.884 222.632Z" fill="#323A50"/>
<path d="M197.941 224.871L222.986 215.207C222.868 215.384 222.75 215.561 222.691 215.796L197.764 225.402C197.764 225.225 197.823 225.048 197.941 224.871Z" fill="#323A50"/>
<path d="M196.998 226.993L221.63 217.506C221.512 217.683 221.394 217.859 221.276 218.095L196.762 227.583C196.821 227.347 196.939 227.17 196.998 226.993Z" fill="#323A50"/>
<path d="M196.055 229.233L220.275 219.922C220.157 220.099 220.039 220.275 219.921 220.511L195.819 229.822C195.878 229.586 195.937 229.409 196.055 229.233Z" fill="#323A50"/>
<path d="M195.112 231.294L218.919 222.102C218.801 222.278 218.684 222.455 218.566 222.691L194.876 231.825C194.994 231.648 195.053 231.471 195.112 231.294Z" fill="#323A50"/>
<path d="M196.055 232.591L217.623 224.282C217.505 224.459 217.387 224.636 217.269 224.872L197.175 232.65C196.821 232.65 196.468 232.591 196.055 232.591Z" fill="#323A50"/>
<path d="M200.887 232.591L216.209 226.698C216.091 226.875 215.973 227.052 215.855 227.288L202.066 232.591C201.653 232.591 201.3 232.591 200.887 232.591Z" fill="#323A50"/>
<path d="M205.778 232.532L214.735 229.056C214.618 229.232 214.5 229.468 214.382 229.645L206.957 232.474C206.603 232.532 206.191 232.532 205.778 232.532Z" fill="#323A50"/>
<path d="M210.729 232.473L213.262 231.472C213.145 231.648 213.027 231.884 212.909 232.061L211.848 232.473C211.436 232.473 211.082 232.473 210.729 232.473Z" fill="#323A50"/>
<g opacity="0.3">
<path d="M262.939 190.163C261.053 183.916 256.103 179.673 248.089 177.611C243.493 176.432 239.25 176.314 237.423 176.314C237.364 176.079 237.246 175.843 237.07 175.666C238.602 175.607 243.257 175.666 248.207 176.963C256.28 179.084 261.584 183.563 263.47 189.927C263.882 190.752 275.491 215.207 276.964 229.527C277.318 233.298 280.382 234.123 285.98 235.655C290.577 236.893 296.941 238.661 304.778 242.845L304.484 243.434C296.705 239.25 290.4 237.541 285.803 236.304C280.146 234.772 276.728 233.829 276.316 229.586C275.137 217.918 267.123 199.355 264.059 192.697C264.236 197.647 260.759 204.482 253.746 213.086C247.028 221.336 237.07 231.236 224.105 242.491C219.332 246.675 214.441 250.682 209.786 254.513L209.02 254.277C213.734 250.505 218.743 246.263 223.634 242.02C252.803 216.68 266.357 198.766 262.939 190.163Z" fill="#323A50"/>
<path d="M239.427 182.384C239.368 181.913 238.72 179.615 238.602 179.202C238.661 178.966 239.545 180.381 239.486 180.145C239.486 179.674 239.191 179.202 238.779 178.907C238.838 178.436 238.838 178.2 238.366 177.906C238.425 177.67 237.895 177.67 237.836 177.493C238.661 178.907 239.663 180.734 239.957 182.266C241.313 189.397 230.47 206.191 207.782 232.356C202.773 238.131 197.705 243.788 193.109 248.679L192.402 248.443C212.732 226.463 241.195 193.227 239.427 182.384Z" fill="#323A50"/>
<path d="M237.188 175.607C237.305 175.725 237.364 175.843 237.482 175.961L241.725 175.784C239.78 175.607 238.189 175.607 237.188 175.607Z" fill="#323A50"/>
<path d="M238.307 177.67L249.209 177.258C248.796 177.14 248.384 177.022 247.913 176.904L238.13 177.317C238.248 177.376 238.307 177.553 238.307 177.67Z" fill="#323A50"/>
<path d="M238.779 179.32L253.275 178.731C252.98 178.613 252.745 178.495 252.45 178.377L238.661 178.907C238.661 178.966 238.661 179.025 238.661 179.084C238.661 179.143 238.72 179.261 238.779 179.32Z" fill="#323A50"/>
<path d="M239.427 181.028L256.104 180.38C255.927 180.262 255.691 180.145 255.515 179.968L239.368 180.616C239.368 180.793 239.368 180.911 239.427 181.028Z" fill="#323A50"/>
<path d="M239.604 182.62L258.048 181.854C257.872 181.736 257.754 181.618 257.577 181.441L239.545 182.149C239.604 182.325 239.604 182.502 239.604 182.62Z" fill="#323A50"/>
<path d="M239.663 184.329L259.757 183.504C259.639 183.386 259.522 183.269 259.404 183.092L239.722 183.917C239.663 184.094 239.663 184.211 239.663 184.329Z" fill="#323A50"/>
<path d="M239.427 185.743C239.368 185.861 239.368 185.979 239.309 186.038L261.054 185.154C260.936 185.036 260.877 184.859 260.759 184.741L239.427 185.625C239.427 185.684 239.427 185.684 239.427 185.743Z" fill="#323A50"/>
<path d="M238.896 187.57C238.896 187.629 238.837 187.747 238.837 187.806L262.114 186.863C262.055 186.745 261.996 186.568 261.878 186.45L238.955 187.393C238.896 187.452 238.896 187.511 238.896 187.57Z" fill="#323A50"/>
<path d="M238.189 189.102L262.645 188.101C262.703 188.218 262.762 188.395 262.821 188.513L238.071 189.515C238.13 189.397 238.13 189.22 238.189 189.102Z" fill="#323A50"/>
<path d="M237.482 190.87L263.293 189.81C263.352 189.927 263.352 190.045 263.411 190.222L237.306 191.283C237.365 191.165 237.424 190.988 237.482 190.87Z" fill="#323A50"/>
<path d="M236.657 192.579L263.647 191.459C263.647 191.577 263.705 191.695 263.705 191.871L236.48 192.991C236.539 192.873 236.598 192.755 236.657 192.579Z" fill="#323A50"/>
<path d="M235.714 194.347L263.764 193.228C263.764 193.345 263.764 193.522 263.764 193.64L235.479 194.76C235.596 194.642 235.655 194.524 235.714 194.347Z" fill="#323A50"/>
<path d="M234.83 195.997L263.647 194.818C263.647 194.936 263.588 195.113 263.588 195.231L234.595 196.409C234.654 196.233 234.772 196.115 234.83 195.997Z" fill="#323A50"/>
<path d="M233.77 197.765L263.234 196.586C263.175 196.704 263.175 196.881 263.116 196.998L233.534 198.177C233.593 198 233.711 197.882 233.77 197.765Z" fill="#323A50"/>
<path d="M232.709 199.474L262.704 198.236C262.645 198.354 262.586 198.531 262.527 198.649L232.415 199.886C232.532 199.768 232.65 199.651 232.709 199.474Z" fill="#323A50"/>
<path d="M231.59 201.241L261.997 200.004C261.938 200.122 261.879 200.299 261.82 200.416L231.295 201.654C231.413 201.536 231.472 201.418 231.59 201.241Z" fill="#323A50"/>
<path d="M230.47 202.95L261.231 201.713C261.172 201.831 261.113 202.008 260.995 202.125L230.175 203.363C230.293 203.186 230.352 203.068 230.47 202.95Z" fill="#323A50"/>
<path d="M229.232 204.718L260.229 203.48C260.17 203.598 260.052 203.775 259.993 203.893L228.938 205.13C229.055 204.954 229.173 204.836 229.232 204.718Z" fill="#323A50"/>
<path d="M228.053 206.427L259.227 205.189C259.168 205.307 259.05 205.484 258.991 205.602L227.759 206.839C227.818 206.722 227.936 206.604 228.053 206.427Z" fill="#323A50"/>
<path d="M226.757 208.195L258.048 206.898C257.931 207.016 257.872 207.193 257.754 207.311L226.404 208.607C226.522 208.49 226.64 208.372 226.757 208.195Z" fill="#323A50"/>
<path d="M225.579 209.845L256.929 208.549C256.811 208.667 256.752 208.843 256.634 208.961L225.225 210.258C225.343 210.14 225.461 210.022 225.579 209.845Z" fill="#323A50"/>
<path d="M224.223 211.613L255.632 210.316C255.514 210.434 255.397 210.611 255.338 210.729L223.929 212.025C223.988 211.907 224.105 211.79 224.223 211.613Z" fill="#323A50"/>
<path d="M222.868 213.38L254.277 212.084C254.159 212.202 254.041 212.379 253.923 212.496L222.573 213.793C222.691 213.675 222.809 213.498 222.868 213.38Z" fill="#323A50"/>
<path d="M221.513 215.149L252.804 213.853C252.686 213.97 252.568 214.147 252.45 214.265L221.159 215.561C221.277 215.444 221.395 215.326 221.513 215.149Z" fill="#323A50"/>
<path d="M220.157 216.916L251.39 215.679C251.272 215.797 251.154 215.973 251.036 216.091L219.863 217.329C219.922 217.211 220.04 217.034 220.157 216.916Z" fill="#323A50"/>
<path d="M218.743 218.684L249.857 217.446C249.739 217.564 249.621 217.741 249.504 217.859L218.448 219.096C218.507 218.978 218.625 218.861 218.743 218.684Z" fill="#323A50"/>
<path d="M217.329 220.452L248.266 219.215C248.148 219.333 248.03 219.509 247.854 219.627L216.975 220.865C217.093 220.747 217.211 220.57 217.329 220.452Z" fill="#323A50"/>
<path d="M215.973 222.161L246.734 220.924C246.616 221.042 246.498 221.218 246.321 221.336L215.62 222.574C215.737 222.397 215.855 222.279 215.973 222.161Z" fill="#323A50"/>
<path d="M214.618 223.752L245.143 222.515C245.025 222.633 244.848 222.809 244.73 222.927L214.264 224.165C214.382 224.047 214.5 223.929 214.618 223.752Z" fill="#323A50"/>
<path d="M213.145 225.579L243.434 224.342C243.316 224.46 243.139 224.636 243.021 224.754L212.791 225.992C212.909 225.874 213.027 225.697 213.145 225.579Z" fill="#323A50"/>
<path d="M211.671 227.347L241.666 226.109C241.548 226.227 241.371 226.404 241.254 226.522L211.318 227.759C211.436 227.583 211.554 227.465 211.671 227.347Z" fill="#323A50"/>
<path d="M210.139 229.114L239.839 227.936C239.721 228.053 239.545 228.23 239.427 228.348L209.786 229.527C209.904 229.409 210.021 229.232 210.139 229.114Z" fill="#323A50"/>
<path d="M208.725 230.765L238.19 229.586C238.072 229.704 237.895 229.881 237.777 229.998L208.431 231.177C208.49 231.059 208.607 230.941 208.725 230.765Z" fill="#323A50"/>
<path d="M207.311 232.415L236.422 231.236C236.245 231.354 236.127 231.531 235.95 231.649L206.898 232.827C207.075 232.71 207.193 232.533 207.311 232.415Z" fill="#323A50"/>
<path d="M205.779 234.182L234.536 233.004C234.359 233.122 234.241 233.299 234.064 233.416L205.366 234.595C205.543 234.477 205.661 234.359 205.779 234.182Z" fill="#323A50"/>
<path d="M204.246 235.95L232.65 234.771C232.473 234.889 232.355 235.066 232.179 235.184L203.834 236.304C204.011 236.245 204.129 236.068 204.246 235.95Z" fill="#323A50"/>
<path d="M202.655 237.777L230.705 236.657C230.529 236.775 230.411 236.952 230.234 237.07L202.302 238.189C202.42 238.013 202.537 237.895 202.655 237.777Z" fill="#323A50"/>
<path d="M201.065 239.544L228.702 238.425C228.525 238.543 228.407 238.719 228.231 238.837L200.711 239.957C200.829 239.839 200.947 239.721 201.065 239.544Z" fill="#323A50"/>
<path d="M199.65 241.195L226.875 240.075C226.699 240.193 226.581 240.37 226.404 240.488L199.238 241.607C199.356 241.489 199.473 241.313 199.65 241.195Z" fill="#323A50"/>
<path d="M198 242.963L224.813 241.902C224.636 242.02 224.518 242.197 224.341 242.315L197.646 243.376C197.764 243.258 197.882 243.14 198 242.963Z" fill="#323A50"/>
<path d="M196.468 244.731L222.868 243.67C222.691 243.788 222.514 243.965 222.396 244.082L196.114 245.143C196.173 245.025 196.291 244.907 196.468 244.731Z" fill="#323A50"/>
<path d="M194.818 246.558L220.747 245.497C220.57 245.615 220.393 245.792 220.275 245.91L194.464 246.97C194.582 246.852 194.7 246.676 194.818 246.558Z" fill="#323A50"/>
<path d="M193.345 248.207L218.861 247.146C218.684 247.264 218.507 247.441 218.389 247.559L192.991 248.561C193.05 248.443 193.168 248.325 193.345 248.207Z" fill="#323A50"/>
<path d="M193.757 249.74L216.857 248.797C216.681 248.915 216.504 249.092 216.327 249.209L194.759 250.093C194.464 249.975 194.111 249.858 193.757 249.74Z" fill="#323A50"/>
<path d="M198.354 251.271L214.736 250.623C214.559 250.741 214.382 250.918 214.205 251.036L199.414 251.625C199.061 251.566 198.707 251.448 198.354 251.271Z" fill="#323A50"/>
<path d="M203.009 252.804L212.614 252.392C212.437 252.509 212.261 252.686 212.084 252.804L204.128 253.099C203.775 253.04 203.362 252.922 203.009 252.804Z" fill="#323A50"/>
<path d="M207.665 254.336L210.375 254.218C210.198 254.336 210.022 254.512 209.845 254.63L208.725 254.689C208.372 254.571 208.018 254.453 207.665 254.336Z" fill="#323A50"/>
</g>
<path d="M89.2179 153.921C92.9893 148.618 99.059 146.201 107.309 146.791C112.023 147.144 116.089 148.382 117.798 148.971C117.916 148.735 118.093 148.559 118.329 148.441C116.855 147.91 112.436 146.437 107.368 146.084C99.059 145.494 92.5768 148.028 88.7465 153.45C88.0983 154.098 69.2411 173.544 63.2304 186.626C61.6393 190.103 58.5161 189.867 52.7411 189.514C47.9679 189.219 41.4268 188.807 32.6465 190.28L32.7643 190.928C41.4858 189.455 47.9679 189.867 52.7411 190.162C58.5751 190.516 62.1108 190.751 63.8786 186.862C68.7697 176.196 82.3233 161.228 87.3322 155.866C85.5643 160.462 86.6251 168.064 90.5143 178.494C94.2268 188.453 100.473 201.005 109.136 215.914C112.318 221.394 115.618 226.816 118.859 231.884H119.625C116.384 226.757 112.966 221.159 109.725 215.56C90.2786 182.266 83.2072 160.993 89.2179 153.921Z" fill="#323A50"/>
<path d="M113.968 154.157C114.203 153.745 115.5 151.741 115.794 151.388C115.794 151.152 114.498 152.213 114.616 152.036C114.734 151.623 115.205 151.211 115.677 151.093C115.794 150.622 115.853 150.386 116.384 150.268C116.384 150.032 116.914 150.209 116.973 150.032C115.736 151.093 114.203 152.507 113.378 153.863C109.843 160.168 114.675 179.614 127.757 211.613C130.644 218.684 133.65 225.697 136.42 231.825H137.186C125.046 204.482 108.841 163.822 113.968 154.157Z" fill="#323A50"/>
<path d="M118.27 148.441C118.152 148.5 117.975 148.618 117.857 148.677L113.909 147.145C115.854 147.616 117.327 148.087 118.27 148.441Z" fill="#323A50"/>
<path d="M116.561 150.032L106.425 146.084C106.838 146.084 107.309 146.143 107.722 146.143L116.856 149.679C116.738 149.796 116.62 149.914 116.561 150.032Z" fill="#323A50"/>
<path d="M115.618 151.447L102.124 146.261C102.418 146.202 102.713 146.202 103.007 146.202L115.913 151.152C115.913 151.211 115.854 151.27 115.854 151.27C115.736 151.329 115.677 151.388 115.618 151.447Z" fill="#323A50"/>
<path d="M114.439 152.86L98.8823 146.85C99.118 146.791 99.3538 146.732 99.5895 146.673L114.675 152.507C114.557 152.625 114.498 152.742 114.439 152.86Z" fill="#323A50"/>
<path d="M113.732 154.276L96.4663 147.617C96.6431 147.558 96.8199 147.44 97.0556 147.381L113.85 153.863C113.85 154.04 113.791 154.158 113.732 154.276Z" fill="#323A50"/>
<path d="M113.143 155.925L94.4038 148.677C94.5806 148.618 94.6985 148.5 94.8752 148.441L113.261 155.513C113.202 155.631 113.143 155.807 113.143 155.925Z" fill="#323A50"/>
<path d="M112.907 157.281C112.907 157.398 112.907 157.516 112.907 157.634L92.6357 149.797C92.7536 149.679 92.8715 149.62 93.0482 149.502L112.966 157.163C112.907 157.222 112.907 157.281 112.907 157.281Z" fill="#323A50"/>
<path d="M112.848 159.225C112.848 159.284 112.848 159.401 112.848 159.46L91.1626 151.092C91.2805 150.975 91.3983 150.857 91.5162 150.798L112.907 159.048C112.848 159.107 112.848 159.166 112.848 159.225Z" fill="#323A50"/>
<path d="M112.966 160.875L90.1609 152.095C90.043 152.213 89.9841 152.33 89.8662 152.448L112.966 161.347C112.966 161.17 112.966 161.052 112.966 160.875Z" fill="#323A50"/>
<path d="M113.084 162.82L88.9823 153.509C88.9234 153.568 88.8644 153.686 88.7466 153.862L113.143 163.232C113.143 163.114 113.143 162.937 113.084 162.82Z" fill="#323A50"/>
<path d="M113.32 164.706L88.1573 154.982C88.0983 155.1 88.0394 155.218 87.9805 155.336L113.438 165.177C113.379 165 113.32 164.823 113.32 164.706Z" fill="#323A50"/>
<path d="M113.615 166.65L87.3913 156.573C87.3324 156.691 87.3324 156.809 87.2734 156.986L113.673 167.18C113.673 167.004 113.673 166.827 113.615 166.65Z" fill="#323A50"/>
<path d="M113.968 168.477L87.0965 158.105C87.0965 158.223 87.0376 158.4 87.0376 158.518L114.086 168.948C114.027 168.83 113.968 168.654 113.968 168.477Z" fill="#323A50"/>
<path d="M114.38 170.48L86.8608 159.873C86.8608 159.991 86.8608 160.168 86.8608 160.286L114.498 170.952C114.439 170.834 114.38 170.657 114.38 170.48Z" fill="#323A50"/>
<path d="M114.852 172.484L86.8608 161.7C86.8608 161.818 86.8608 161.995 86.8608 162.172L114.97 173.014C114.911 172.838 114.852 172.661 114.852 172.484Z" fill="#323A50"/>
<path d="M115.323 174.547L86.9199 163.586C86.9199 163.763 86.9789 163.881 86.9789 164.057L115.441 175.018C115.441 174.841 115.382 174.723 115.323 174.547Z" fill="#323A50"/>
<path d="M115.853 176.491L87.1553 165.412C87.1553 165.589 87.2142 165.707 87.2142 165.884L115.971 176.962C115.912 176.785 115.912 176.609 115.853 176.491Z" fill="#323A50"/>
<path d="M116.443 178.554L87.5093 167.416C87.5682 167.593 87.5682 167.711 87.6271 167.887L116.62 179.084C116.502 178.848 116.502 178.73 116.443 178.554Z" fill="#323A50"/>
<path d="M117.032 180.616L87.9214 169.36C87.9803 169.537 87.9803 169.655 88.0392 169.832L117.209 181.087C117.15 180.91 117.091 180.734 117.032 180.616Z" fill="#323A50"/>
<path d="M117.681 182.678L88.4521 171.423C88.5111 171.6 88.57 171.776 88.57 171.894L117.799 183.15C117.799 183.032 117.74 182.855 117.681 182.678Z" fill="#323A50"/>
<path d="M118.27 184.623L88.9824 173.309C89.0414 173.485 89.1003 173.662 89.1592 173.78L118.447 185.094C118.388 184.976 118.329 184.8 118.27 184.623Z" fill="#323A50"/>
<path d="M118.977 186.745L89.6304 175.431C89.6893 175.607 89.7482 175.784 89.8071 175.961L119.154 187.275C119.095 187.04 119.036 186.922 118.977 186.745Z" fill="#323A50"/>
<path d="M119.684 188.807L90.3965 177.493C90.4554 177.67 90.5143 177.847 90.5733 178.024L119.861 189.338C119.802 189.161 119.743 188.984 119.684 188.807Z" fill="#323A50"/>
<path d="M120.391 190.928L91.1626 179.673C91.2215 179.85 91.2805 180.026 91.3394 180.203L120.568 191.459C120.509 191.282 120.45 191.105 120.391 190.928Z" fill="#323A50"/>
<path d="M121.157 193.05L91.9878 181.795C92.0467 181.972 92.1056 182.149 92.1646 182.325L121.275 193.581C121.275 193.404 121.216 193.227 121.157 193.05Z" fill="#323A50"/>
<path d="M121.923 195.171L92.8716 183.975C92.9305 184.151 92.9894 184.328 93.1073 184.505L122.1 195.701C122.041 195.525 121.982 195.348 121.923 195.171Z" fill="#323A50"/>
<path d="M122.689 197.293L93.8145 186.155C93.8734 186.332 93.9912 186.509 94.0502 186.686L122.866 197.823C122.807 197.646 122.748 197.47 122.689 197.293Z" fill="#323A50"/>
<path d="M123.396 199.355L94.6982 188.276C94.7572 188.453 94.875 188.63 94.934 188.807L123.573 199.885C123.514 199.65 123.455 199.532 123.396 199.355Z" fill="#323A50"/>
<path d="M124.163 201.3L95.6411 190.28C95.7 190.457 95.8179 190.634 95.8768 190.811L124.339 201.771C124.28 201.653 124.221 201.477 124.163 201.3Z" fill="#323A50"/>
<path d="M124.988 203.481L96.7021 192.579C96.7611 192.756 96.8789 192.933 96.9379 193.109L125.165 204.011C125.106 203.834 125.047 203.658 124.988 203.481Z" fill="#323A50"/>
<path d="M125.813 205.602L97.7627 194.818C97.8216 194.995 97.9395 195.172 97.9984 195.349L125.989 206.133C125.931 205.956 125.872 205.779 125.813 205.602Z" fill="#323A50"/>
<path d="M126.697 207.783L98.9414 197.058C99.0593 197.234 99.1182 197.411 99.236 197.588L126.932 208.254C126.815 208.136 126.756 207.959 126.697 207.783Z" fill="#323A50"/>
<path d="M127.463 209.844L100.002 199.237C100.12 199.414 100.179 199.591 100.297 199.768L127.698 210.316C127.581 210.198 127.522 210.021 127.463 209.844Z" fill="#323A50"/>
<path d="M128.288 211.849L101.062 201.359C101.18 201.536 101.239 201.713 101.357 201.89L128.464 212.379C128.405 212.202 128.346 212.025 128.288 211.849Z" fill="#323A50"/>
<path d="M129.172 214.029L102.3 203.657C102.418 203.834 102.477 204.011 102.595 204.188L129.407 214.5C129.29 214.382 129.231 214.205 129.172 214.029Z" fill="#323A50"/>
<path d="M130.055 216.209L103.538 205.955C103.655 206.132 103.714 206.309 103.832 206.485L130.291 216.68C130.173 216.503 130.114 216.385 130.055 216.209Z" fill="#323A50"/>
<path d="M130.939 218.389L104.775 208.312C104.893 208.489 104.952 208.666 105.07 208.843L131.175 218.92C131.116 218.743 131.057 218.566 130.939 218.389Z" fill="#323A50"/>
<path d="M131.882 220.629L106.072 210.67C106.19 210.847 106.307 211.024 106.366 211.2L132.059 221.1C132.059 220.982 131.941 220.806 131.882 220.629Z" fill="#323A50"/>
<path d="M132.707 222.632L107.25 212.85C107.368 213.026 107.486 213.203 107.545 213.38L132.884 223.162C132.884 222.985 132.825 222.809 132.707 222.632Z" fill="#323A50"/>
<path d="M133.65 224.871L108.605 215.207C108.723 215.384 108.841 215.561 108.9 215.796L133.827 225.402C133.827 225.225 133.768 225.048 133.65 224.871Z" fill="#323A50"/>
<path d="M134.593 226.993L109.961 217.506C110.079 217.683 110.197 217.859 110.315 218.095L134.829 227.583C134.77 227.347 134.711 227.17 134.593 226.993Z" fill="#323A50"/>
<path d="M135.595 229.233L111.375 219.922C111.493 220.099 111.611 220.275 111.729 220.511L135.83 229.822C135.712 229.586 135.654 229.409 135.595 229.233Z" fill="#323A50"/>
<path d="M136.479 231.294L112.671 222.102C112.789 222.278 112.907 222.455 113.025 222.691L136.714 231.825C136.596 231.648 136.537 231.471 136.479 231.294Z" fill="#323A50"/>
<path d="M135.536 232.591L113.968 224.282C114.086 224.459 114.203 224.636 114.321 224.872L134.416 232.65C134.77 232.65 135.123 232.591 135.536 232.591Z" fill="#323A50"/>
<path d="M130.704 232.591L115.382 226.698C115.5 226.875 115.618 227.052 115.736 227.288L129.525 232.591C129.938 232.591 130.291 232.591 130.704 232.591Z" fill="#323A50"/>
<path d="M125.813 232.532L116.855 229.056C116.973 229.232 117.091 229.468 117.209 229.645L124.634 232.474C124.988 232.532 125.4 232.532 125.813 232.532Z" fill="#323A50"/>
<path d="M120.922 232.473L118.388 231.472C118.506 231.648 118.623 231.884 118.741 232.061L119.802 232.473C120.156 232.473 120.509 232.473 120.922 232.473Z" fill="#323A50"/>
<g opacity="0.3">
<path d="M68.6518 190.163C70.5375 183.916 75.4875 179.673 83.5018 177.611C88.0982 176.432 92.3411 176.314 94.1679 176.314C94.2268 176.079 94.3446 175.843 94.5214 175.666C92.9893 175.607 88.3339 175.666 83.3839 176.963C75.3107 179.084 70.0071 183.563 68.1214 189.927C67.7089 190.752 56.1 215.207 54.6268 229.527C54.2732 233.298 51.2089 234.123 45.6107 235.655C41.0143 236.893 34.65 238.661 26.8125 242.845L27.1071 243.434C34.8857 239.25 41.1911 237.541 45.7875 236.304C51.4446 234.772 54.8625 233.829 55.275 229.586C56.4536 217.918 64.4679 199.355 67.5321 192.697C67.3554 197.647 70.8321 204.482 77.8446 213.086C84.5625 221.336 94.5214 231.236 107.486 242.491C112.259 246.675 117.15 250.682 121.805 254.513L122.571 254.277C117.857 250.505 112.848 246.263 107.957 242.02C78.7875 216.68 65.2339 198.766 68.6518 190.163Z" fill="#323A50"/>
<path d="M92.1644 182.384C92.2233 181.913 92.8715 179.615 92.9894 179.202C92.9304 178.966 92.0465 180.381 92.1054 180.145C92.1054 179.674 92.4001 179.202 92.8126 178.907C92.7536 178.436 92.7536 178.2 93.2251 177.906C93.1661 177.67 93.6965 177.67 93.7554 177.493C92.9304 178.907 91.9286 180.734 91.634 182.266C90.2786 189.397 101.122 206.191 123.809 232.356C128.818 238.131 133.886 243.788 138.482 248.679L139.189 248.443C118.859 226.463 90.3965 193.227 92.1644 182.384Z" fill="#323A50"/>
<path d="M94.4032 175.607C94.2854 175.725 94.2264 175.843 94.1086 175.961L89.8657 175.784C91.8104 175.607 93.4014 175.607 94.4032 175.607Z" fill="#323A50"/>
<path d="M93.2836 177.67L82.3818 177.258C82.7943 177.14 83.2068 177.022 83.6783 176.904L93.4604 177.317C93.3426 177.376 93.2836 177.553 93.2836 177.67Z" fill="#323A50"/>
<path d="M92.8124 179.32L78.3159 178.731C78.6106 178.613 78.8463 178.495 79.1409 178.377L92.9302 178.907C92.9302 178.966 92.9302 179.025 92.9302 179.084C92.9302 179.143 92.8713 179.261 92.8124 179.32Z" fill="#323A50"/>
<path d="M92.1641 181.028L75.4873 180.38C75.6641 180.262 75.8998 180.145 76.0766 179.968L92.223 180.616C92.223 180.793 92.223 180.911 92.1641 181.028Z" fill="#323A50"/>
<path d="M91.9876 182.62L73.543 181.854C73.7198 181.736 73.8376 181.618 74.0144 181.441L92.0465 182.149C91.9876 182.325 91.9876 182.502 91.9876 182.62Z" fill="#323A50"/>
<path d="M91.9286 184.329L71.834 183.504C71.9518 183.386 72.0697 183.269 72.1876 183.092L91.8697 183.917C91.9286 184.094 91.9286 184.211 91.9286 184.329Z" fill="#323A50"/>
<path d="M92.1644 185.743C92.2233 185.861 92.2233 185.979 92.2822 186.038L70.5376 185.154C70.6555 185.036 70.7144 184.859 70.8322 184.741L92.1644 185.625C92.1644 185.684 92.1644 185.684 92.1644 185.743Z" fill="#323A50"/>
<path d="M92.6944 187.57C92.6944 187.629 92.7533 187.747 92.7533 187.806L69.4766 186.863C69.5355 186.745 69.5944 186.568 69.7123 186.45L92.6355 187.393C92.6944 187.452 92.6944 187.511 92.6944 187.57Z" fill="#323A50"/>
<path d="M93.4017 189.102L68.9463 188.101C68.8874 188.218 68.8285 188.395 68.7695 188.513L93.5195 189.515C93.5195 189.397 93.4606 189.22 93.4017 189.102Z" fill="#323A50"/>
<path d="M94.1087 190.87L68.298 189.81C68.2391 189.927 68.2391 190.045 68.1802 190.222L94.2855 191.283C94.2266 191.165 94.1677 190.988 94.1087 190.87Z" fill="#323A50"/>
<path d="M94.934 192.579L67.9447 191.459C67.9447 191.577 67.8857 191.695 67.8857 191.871L95.1107 192.991C95.0518 192.873 94.9929 192.755 94.934 192.579Z" fill="#323A50"/>
<path d="M95.8767 194.347L67.8267 193.228C67.8267 193.345 67.8267 193.522 67.8267 193.64L96.1124 194.76C95.9945 194.642 95.9356 194.524 95.8767 194.347Z" fill="#323A50"/>
<path d="M96.7604 195.997L67.9443 194.818C67.9443 194.936 68.0033 195.113 68.0033 195.231L96.9961 196.409C96.9372 196.233 96.8193 196.115 96.7604 195.997Z" fill="#323A50"/>
<path d="M97.8212 197.765L68.3569 196.586C68.4159 196.704 68.4159 196.881 68.4748 196.998L98.0569 198.177C97.998 198 97.8801 197.882 97.8212 197.765Z" fill="#323A50"/>
<path d="M98.8819 199.474L68.8872 198.236C68.9461 198.354 69.0051 198.531 69.064 198.649L99.1765 199.886C99.0586 199.768 98.9408 199.651 98.8819 199.474Z" fill="#323A50"/>
<path d="M100.002 201.241L69.5947 200.004C69.6537 200.122 69.7126 200.299 69.7715 200.416L100.297 201.654C100.179 201.536 100.12 201.418 100.002 201.241Z" fill="#323A50"/>
<path d="M101.121 202.95L70.3604 201.713C70.4193 201.831 70.4782 202.008 70.5961 202.125L101.416 203.363C101.298 203.186 101.239 203.068 101.121 202.95Z" fill="#323A50"/>
<path d="M102.359 204.718L71.3623 203.48C71.4212 203.598 71.5391 203.775 71.598 203.893L102.653 205.13C102.536 204.954 102.418 204.836 102.359 204.718Z" fill="#323A50"/>
<path d="M103.596 206.427L72.4229 205.189C72.4818 205.307 72.5996 205.484 72.6586 205.602L103.891 206.839C103.773 206.722 103.655 206.604 103.596 206.427Z" fill="#323A50"/>
<path d="M104.834 208.195L73.543 206.898C73.6608 207.016 73.7198 207.193 73.8376 207.311L105.188 208.607C105.07 208.49 104.952 208.372 104.834 208.195Z" fill="#323A50"/>
<path d="M106.071 209.845L74.7212 208.549C74.839 208.667 74.898 208.843 75.0158 208.961L106.425 210.258C106.248 210.14 106.13 210.022 106.071 209.845Z" fill="#323A50"/>
<path d="M107.368 211.613L75.959 210.316C76.0768 210.434 76.1947 210.611 76.2536 210.729L107.663 212.025C107.604 211.907 107.486 211.79 107.368 211.613Z" fill="#323A50"/>
<path d="M108.723 213.38L77.314 212.084C77.4318 212.202 77.5497 212.379 77.6675 212.496L109.018 213.793C108.9 213.675 108.841 213.498 108.723 213.38Z" fill="#323A50"/>
<path d="M110.079 215.149L78.7876 213.853C78.9055 213.97 79.0233 214.147 79.1412 214.265L110.432 215.561C110.314 215.444 110.197 215.326 110.079 215.149Z" fill="#323A50"/>
<path d="M111.434 216.916L80.2017 215.679C80.3195 215.797 80.4374 215.973 80.5552 216.091L111.728 217.329C111.67 217.211 111.552 217.034 111.434 216.916Z" fill="#323A50"/>
<path d="M112.848 218.684L81.7339 217.446C81.8517 217.564 81.9696 217.741 82.0875 217.859L113.143 219.096C113.084 218.978 112.966 218.861 112.848 218.684Z" fill="#323A50"/>
<path d="M114.262 220.452L83.3247 219.215C83.4426 219.333 83.5604 219.509 83.7372 219.627L114.616 220.865C114.498 220.747 114.38 220.57 114.262 220.452Z" fill="#323A50"/>
<path d="M115.618 222.161L84.8569 220.924C84.9748 221.042 85.0926 221.218 85.2694 221.336L115.971 222.574C115.853 222.397 115.736 222.279 115.618 222.161Z" fill="#323A50"/>
<path d="M116.973 223.752L86.4482 222.515C86.5661 222.633 86.7429 222.809 86.8607 222.927L117.327 224.165C117.209 224.047 117.091 223.929 116.973 223.752Z" fill="#323A50"/>
<path d="M118.447 225.579L88.1572 224.342C88.2751 224.46 88.4519 224.636 88.5697 224.754L118.8 225.992C118.682 225.874 118.564 225.697 118.447 225.579Z" fill="#323A50"/>
<path d="M119.919 227.347L89.9248 226.109C90.0427 226.227 90.2194 226.404 90.3373 226.522L120.273 227.759C120.155 227.583 120.037 227.465 119.919 227.347Z" fill="#323A50"/>
<path d="M121.451 229.114L91.7515 227.936C91.8693 228.053 92.0461 228.23 92.164 228.348L121.805 229.527C121.687 229.409 121.569 229.232 121.451 229.114Z" fill="#323A50"/>
<path d="M122.866 230.765L93.4019 229.586C93.5197 229.704 93.6965 229.881 93.8144 229.998L123.161 231.177C123.102 231.059 122.984 230.941 122.866 230.765Z" fill="#323A50"/>
<path d="M124.28 232.415L95.1694 231.236C95.3462 231.354 95.4641 231.531 95.6409 231.649L124.693 232.827C124.516 232.71 124.398 232.533 124.28 232.415Z" fill="#323A50"/>
<path d="M125.812 234.182L97.0552 233.004C97.232 233.122 97.3498 233.299 97.5266 233.416L126.225 234.595C126.048 234.477 125.93 234.359 125.812 234.182Z" fill="#323A50"/>
<path d="M127.344 235.95L98.9409 234.771C99.1177 234.889 99.2356 235.066 99.4123 235.184L127.757 236.304C127.58 236.245 127.462 236.068 127.344 235.95Z" fill="#323A50"/>
<path d="M128.936 237.777L100.886 236.657C101.063 236.775 101.18 236.952 101.357 237.07L129.289 238.189C129.171 238.013 129.054 237.895 128.936 237.777Z" fill="#323A50"/>
<path d="M130.527 239.544L102.889 238.425C103.066 238.543 103.184 238.719 103.361 238.837L130.88 239.957C130.762 239.839 130.645 239.721 130.527 239.544Z" fill="#323A50"/>
<path d="M131.941 241.195L104.716 240.075C104.893 240.193 105.01 240.37 105.187 240.488L132.353 241.607C132.235 241.489 132.118 241.313 131.941 241.195Z" fill="#323A50"/>
<path d="M133.591 242.963L106.778 241.902C106.955 242.02 107.073 242.197 107.25 242.315L133.944 243.376C133.827 243.258 133.709 243.14 133.591 242.963Z" fill="#323A50"/>
<path d="M135.123 244.731L108.723 243.67C108.9 243.788 109.077 243.965 109.195 244.082L135.477 245.143C135.418 245.025 135.3 244.907 135.123 244.731Z" fill="#323A50"/>
<path d="M136.773 246.558L110.845 245.497C111.022 245.615 111.198 245.792 111.316 245.91L137.127 246.97C137.009 246.852 136.891 246.676 136.773 246.558Z" fill="#323A50"/>
<path d="M138.247 248.207L112.73 247.146C112.907 247.264 113.084 247.441 113.202 247.559L138.6 248.561C138.541 248.443 138.423 248.325 138.247 248.207Z" fill="#323A50"/>
<path d="M137.834 249.74L114.734 248.797C114.911 248.915 115.087 249.092 115.264 249.209L136.832 250.093C137.127 249.975 137.48 249.858 137.834 249.74Z" fill="#323A50"/>
<path d="M133.238 251.271L116.855 250.623C117.032 250.741 117.209 250.918 117.386 251.036L132.177 251.625C132.53 251.566 132.884 251.448 133.238 251.271Z" fill="#323A50"/>
<path d="M128.582 252.804L118.977 252.392C119.153 252.509 119.33 252.686 119.507 252.804L127.462 253.099C127.816 253.04 128.228 252.922 128.582 252.804Z" fill="#323A50"/>
<path d="M123.927 254.336L121.216 254.218C121.393 254.336 121.569 254.512 121.746 254.63L122.866 254.689C123.219 254.571 123.573 254.453 123.927 254.336Z" fill="#323A50"/>
</g>
<path d="M78.1981 147.558L74.1909 144.375C74.6034 143.845 84.6213 131.352 98.2927 122.808L101.003 127.109C88.0981 135.183 78.3159 147.44 78.1981 147.558Z" fill="#EA5A24"/>
<path d="M94.5215 120.98L105.129 121.57L105.188 121.629L100.768 131.47L94.5215 120.98Z" fill="#FF5B00"/>
<path d="M252.45 147.557C252.332 147.439 242.55 135.241 229.645 127.168L232.355 122.866C246.027 131.411 256.045 143.904 256.457 144.434L252.45 147.557Z" fill="#EA5A24"/>
<path d="M236.127 120.98L225.578 121.57L225.52 121.629L229.88 131.47L236.127 120.98Z" fill="#FF5B00"/>
<path d="M159.579 140.544C158.754 140.544 157.929 140.368 157.104 140.309C156.868 140.309 156.691 140.073 156.75 139.837C156.75 139.601 156.986 139.425 157.163 139.425C157.929 139.484 158.754 139.543 159.579 139.602C159.814 139.602 159.991 139.896 159.991 140.073C159.932 140.309 159.755 140.544 159.579 140.544ZM171.659 140.544C171.423 140.544 171.246 140.309 171.246 140.073C171.246 139.837 171.423 139.602 171.659 139.602C172.484 139.543 173.25 139.484 174.075 139.425C174.311 139.425 174.488 139.543 174.488 139.778C174.488 140.014 174.311 140.25 174.134 140.309C173.309 140.368 172.484 140.544 171.659 140.544ZM154.746 140.014C153.863 139.896 153.038 139.837 152.271 139.719C152.036 139.66 151.918 139.484 151.918 139.248C151.977 139.012 152.154 138.894 152.389 138.894C153.155 139.012 153.98 139.13 154.805 139.189C155.041 139.189 155.218 139.425 155.159 139.66C155.1 139.896 154.923 140.014 154.746 140.014ZM176.491 140.014C176.314 140.014 176.138 139.837 176.079 139.66C176.079 139.425 176.196 139.248 176.432 139.189C177.257 139.071 178.023 139.012 178.848 138.894C179.084 138.835 179.261 139.012 179.32 139.248C179.379 139.484 179.202 139.66 178.966 139.719C178.141 139.837 177.316 139.955 176.491 140.014ZM149.973 139.366H149.914C149.089 139.189 148.264 139.071 147.498 138.894C147.263 138.835 147.145 138.6 147.204 138.423C147.263 138.187 147.498 138.069 147.675 138.128C148.441 138.305 149.207 138.482 150.032 138.6C150.268 138.659 150.386 138.835 150.386 139.071C150.327 139.189 150.15 139.366 149.973 139.366ZM181.264 139.366C181.088 139.366 180.911 139.248 180.852 139.012C180.793 138.777 180.97 138.6 181.205 138.541C182.03 138.423 182.796 138.246 183.563 138.069C183.798 138.01 183.975 138.128 184.034 138.364C184.093 138.6 183.975 138.776 183.739 138.835C182.973 139.012 182.207 139.189 181.323 139.307C181.323 139.366 181.264 139.366 181.264 139.366ZM145.259 138.246C145.2 138.246 145.2 138.246 145.141 138.246C144.257 138.01 143.491 137.716 142.843 137.421C142.607 137.362 142.548 137.068 142.607 136.891C142.666 136.655 142.902 136.596 143.138 136.655C143.786 136.95 144.552 137.185 145.377 137.421C145.613 137.48 145.73 137.716 145.671 137.951C145.554 138.128 145.436 138.246 145.259 138.246ZM185.979 138.246C185.802 138.246 185.625 138.128 185.566 137.951C185.507 137.716 185.625 137.48 185.861 137.421C186.686 137.185 187.452 136.891 188.1 136.655C188.336 136.596 188.571 136.655 188.63 136.891C188.689 137.126 188.63 137.362 188.395 137.421C187.688 137.716 186.921 137.951 186.096 138.246C186.037 138.246 185.979 138.246 185.979 138.246ZM140.839 136.36C140.78 136.36 140.663 136.36 140.604 136.301C139.661 135.594 139.13 135.064 139.13 134.298C139.13 134.062 139.307 134.121 139.543 134.121C139.779 134.121 139.955 134.062 139.955 134.298C139.955 134.828 140.368 135.241 141.075 135.771C141.252 135.889 141.311 136.125 141.193 136.301C141.075 136.36 140.957 136.36 140.839 136.36ZM190.398 136.36C190.28 136.36 190.163 136.301 190.045 136.184C189.927 136.007 189.927 135.771 190.163 135.594C190.929 135.064 191.282 134.534 191.282 134.003C191.282 133.768 191.636 133.591 191.813 133.591C192.048 133.591 192.402 133.768 192.402 133.944V134.003C192.402 134.769 191.754 135.535 190.811 136.243C190.693 136.301 190.457 136.36 190.398 136.36ZM140.78 132.53C140.663 132.53 140.545 132.471 140.427 132.353C140.309 132.176 140.309 131.941 140.545 131.764C141.134 131.351 141.841 130.939 142.784 130.585C143.02 130.526 143.255 130.585 143.314 130.821C143.373 131.057 143.314 131.293 143.079 131.352C142.254 131.705 141.546 132.059 141.016 132.471C140.957 132.471 140.898 132.53 140.78 132.53ZM190.339 132.471C190.28 132.471 190.163 132.471 190.104 132.412C189.573 132.059 188.866 131.705 188.041 131.352C187.805 131.293 187.746 131.057 187.805 130.821C187.864 130.585 188.1 130.526 188.336 130.585C189.22 130.939 189.986 131.351 190.575 131.764C190.752 131.882 190.811 132.176 190.693 132.353C190.575 132.412 190.457 132.471 190.339 132.471ZM145.2 130.585C145.023 130.585 144.846 130.468 144.788 130.291C144.729 130.055 144.846 129.819 145.082 129.76C145.789 129.525 146.614 129.348 147.439 129.171C147.675 129.112 147.852 129.23 147.911 129.466C147.97 129.701 147.852 129.878 147.616 129.937C146.791 130.114 146.025 130.35 145.318 130.526C145.259 130.585 145.259 130.585 145.2 130.585ZM185.92 130.526C185.861 130.526 185.861 130.526 185.802 130.526C185.095 130.291 184.329 130.114 183.504 129.937C183.268 129.878 183.15 129.643 183.209 129.466C183.268 129.23 183.504 129.112 183.68 129.171C184.505 129.348 185.33 129.584 186.038 129.76C186.273 129.819 186.391 130.055 186.332 130.291C186.273 130.409 186.096 130.526 185.92 130.526ZM149.914 129.466C149.738 129.466 149.561 129.348 149.502 129.112C149.443 128.876 149.62 128.7 149.855 128.641C150.621 128.523 151.446 128.346 152.271 128.287C152.507 128.228 152.684 128.405 152.743 128.641C152.802 128.876 152.625 129.053 152.389 129.112C151.564 129.23 150.798 129.348 150.032 129.466C149.973 129.466 149.914 129.466 149.914 129.466ZM181.205 129.466H181.146C180.38 129.348 179.614 129.23 178.789 129.112C178.554 129.053 178.436 128.876 178.436 128.641C178.495 128.405 178.671 128.287 178.907 128.287C179.732 128.405 180.557 128.523 181.323 128.641C181.559 128.7 181.677 128.876 181.677 129.112C181.559 129.348 181.441 129.466 181.205 129.466ZM154.688 128.818C154.511 128.818 154.334 128.641 154.275 128.464C154.275 128.228 154.393 128.051 154.629 127.993C155.395 127.934 156.22 127.816 157.045 127.757C157.28 127.757 157.457 127.934 157.457 128.11C157.457 128.346 157.28 128.523 157.104 128.523C156.338 128.641 155.513 128.7 154.688 128.818ZM176.432 128.818C175.607 128.759 174.782 128.641 174.016 128.582C173.78 128.582 173.604 128.346 173.663 128.169C173.663 127.934 173.898 127.757 174.075 127.816C174.9 127.875 175.725 127.934 176.491 128.051C176.727 128.051 176.904 128.287 176.845 128.523C176.786 128.641 176.609 128.818 176.432 128.818Z" fill="#323A50"/>
<path d="M171.777 128.699C171.718 128.699 171.718 128.699 171.777 128.699C170.952 128.699 170.127 128.64 169.302 128.64C169.066 128.64 168.889 128.464 168.889 128.228C168.889 127.992 169.066 127.815 169.302 127.815C170.127 127.815 170.952 127.815 171.718 127.874C171.953 127.874 172.13 128.051 172.13 128.287C172.13 128.523 171.953 128.699 171.777 128.699Z" fill="#323A50"/>
<path d="M176.432 128.818C175.607 128.759 174.782 128.641 174.016 128.582C173.78 128.582 173.603 128.346 173.662 128.17C173.662 127.934 173.898 127.757 174.075 127.816C174.9 127.875 175.725 127.934 176.491 128.052C176.727 128.052 176.903 128.288 176.844 128.523C176.786 128.641 176.609 128.818 176.432 128.818Z" fill="#323A50"/>
<path d="M167.062 128.699C167.003 128.699 167.003 128.699 167.062 128.699C166.237 128.699 165.412 128.64 164.587 128.64C164.352 128.64 164.175 128.464 164.175 128.228C164.175 127.992 164.352 127.815 164.587 127.815C165.412 127.815 166.237 127.815 167.003 127.874C167.239 127.874 167.416 128.051 167.416 128.287C167.416 128.523 167.239 128.699 167.062 128.699Z" fill="#323A50"/>
<path d="M161.759 128.581C160.934 128.64 160.109 128.64 159.284 128.699C159.048 128.699 158.872 128.523 158.872 128.346C158.872 128.11 159.048 127.933 159.225 127.933C160.05 127.874 160.875 127.815 161.641 127.815C161.877 127.815 162.054 127.992 162.054 128.228C162.113 128.405 161.995 128.581 161.759 128.581Z" fill="#323A50"/>
<path d="M166.886 139.66C167.711 139.66 168.536 139.66 169.361 139.602C169.597 139.602 169.773 139.778 169.773 140.014C169.773 140.25 169.597 140.427 169.361 140.427C168.536 140.427 167.711 140.485 166.945 140.485C166.709 140.485 166.532 140.309 166.532 140.073C166.532 139.896 166.709 139.719 166.886 139.66Z" fill="#323A50"/>
<path d="M162.171 139.66C162.996 139.66 163.821 139.66 164.646 139.602C164.882 139.602 165.059 139.778 165.059 140.014C165.059 140.25 164.882 140.427 164.646 140.427C163.821 140.427 162.996 140.485 162.23 140.485C161.995 140.485 161.818 140.309 161.818 140.073C161.818 139.896 161.995 139.719 162.171 139.66Z" fill="#323A50"/>
</g>
<defs>
<linearGradient id="paint0_linear_3618_8670" x1="269.908" y1="226.824" x2="68.5008" y2="79.513" gradientUnits="userSpaceOnUse">
<stop offset="0.2655" stop-color="#032A3D" stop-opacity="0"/>
<stop offset="0.7809" stop-color="#032A3D"/>
</linearGradient>
<radialGradient id="paint1_radial_3618_8670" cx="0" cy="0" r="1" gradientUnits="userSpaceOnUse" gradientTransform="translate(164.96 219.046) scale(68.1931 67.8795)">
<stop offset="0.2655" stop-color="#032A3D" stop-opacity="0"/>
<stop offset="1" stop-color="#032A3D"/>
</radialGradient>
<linearGradient id="paint2_linear_3618_8670" x1="138.228" y1="111.297" x2="188.319" y2="307.931" gradientUnits="userSpaceOnUse">
<stop offset="0.4054" stop-color="#032A3D" stop-opacity="0"/>
<stop offset="1" stop-color="#032A3D"/>
</linearGradient>
<linearGradient id="paint3_linear_3618_8670" x1="102.096" y1="178.519" x2="233.85" y2="302.115" gradientUnits="userSpaceOnUse">
<stop offset="0.2655" stop-color="#032A3D" stop-opacity="0"/>
<stop offset="0.7809" stop-color="#032A3D"/>
</linearGradient>
<linearGradient id="paint4_linear_3618_8670" x1="109.283" y1="170.857" x2="241.037" y2="294.453" gradientUnits="userSpaceOnUse">
<stop offset="0.2655" stop-color="#032A3D" stop-opacity="0"/>
<stop offset="0.7809" stop-color="#032A3D"/>
</linearGradient>
<linearGradient id="paint5_linear_3618_8670" x1="106.718" y1="173.592" x2="238.472" y2="297.188" gradientUnits="userSpaceOnUse">
<stop offset="0.2655" stop-color="#032A3D" stop-opacity="0"/>
<stop offset="0.7809" stop-color="#032A3D"/>
</linearGradient>
<linearGradient id="paint6_linear_3618_8670" x1="81.6418" y1="200.324" x2="213.395" y2="323.919" gradientUnits="userSpaceOnUse">
<stop offset="0.2655" stop-color="#032A3D" stop-opacity="0"/>
<stop offset="0.7809" stop-color="#032A3D"/>
</linearGradient>
<linearGradient id="paint7_linear_3618_8670" x1="100.432" y1="180.293" x2="232.186" y2="303.888" gradientUnits="userSpaceOnUse">
<stop offset="0.2655" stop-color="#032A3D" stop-opacity="0"/>
<stop offset="0.7809" stop-color="#032A3D"/>
</linearGradient>
<linearGradient id="paint8_linear_3618_8670" x1="90.126" y1="191.279" x2="221.88" y2="314.875" gradientUnits="userSpaceOnUse">
<stop offset="0.2655" stop-color="#032A3D" stop-opacity="0"/>
<stop offset="0.7809" stop-color="#032A3D"/>
</linearGradient>
<linearGradient id="paint9_linear_3618_8670" x1="71.4807" y1="211.155" x2="203.234" y2="334.751" gradientUnits="userSpaceOnUse">
<stop offset="0.2655" stop-color="#032A3D" stop-opacity="0"/>
<stop offset="0.7809" stop-color="#032A3D"/>
</linearGradient>
<linearGradient id="paint10_linear_3618_8670" x1="74.6173" y1="207.811" x2="206.371" y2="331.407" gradientUnits="userSpaceOnUse">
<stop offset="0.2655" stop-color="#032A3D" stop-opacity="0"/>
<stop offset="0.7809" stop-color="#032A3D"/>
</linearGradient>
<linearGradient id="paint11_linear_3618_8670" x1="84.9276" y1="196.821" x2="216.681" y2="320.417" gradientUnits="userSpaceOnUse">
<stop offset="0.2655" stop-color="#032A3D" stop-opacity="0"/>
<stop offset="0.7809" stop-color="#032A3D"/>
</linearGradient>
<linearGradient id="paint12_linear_3618_8670" x1="71.4429" y1="211.196" x2="203.196" y2="334.792" gradientUnits="userSpaceOnUse">
<stop offset="0.2655" stop-color="#032A3D" stop-opacity="0"/>
<stop offset="0.7809" stop-color="#032A3D"/>
</linearGradient>
<clipPath id="clip0_3618_8670">
<rect width="330" height="330" fill="white"/>
</clipPath>
</defs>
</svg>
