<svg width="330" height="330" viewBox="0 0 330 330" fill="none" xmlns="http://www.w3.org/2000/svg">
<g clip-path="url(#clip0_3618_19183)">
<path d="M165.766 301.42C161.288 301.42 156.809 301.066 152.389 300.359C148.029 299.77 141.311 298.238 136.714 296.234C120.981 290.341 107.486 279.97 97.7626 266.18C87.8037 252.096 82.5591 235.479 82.5591 218.154C82.5591 206.132 85.093 194.523 90.043 183.68C94.8162 173.191 101.652 163.998 110.256 156.22L112.377 154.039C117.268 149.03 117.563 148.677 120.156 145.73C120.45 145.377 120.804 145.023 121.157 144.611C124.104 141.193 129.643 134.829 137.127 129.466C146.261 122.925 155.866 119.507 165.707 119.448H165.943C175.784 119.507 185.389 122.925 194.523 129.466C202.007 134.829 207.547 141.193 210.493 144.611C210.847 145.023 211.2 145.377 211.495 145.73C213.498 147.97 214.147 148.618 216.445 151.034C217.447 152.036 218.802 153.45 220.747 155.454C229.586 163.173 236.598 172.543 241.489 183.15C246.616 194.17 249.209 205.955 249.209 218.154C249.209 229.409 247.029 240.311 242.668 250.564C238.484 260.464 232.473 269.363 224.813 277.023C217.152 284.684 208.254 290.695 198.354 294.879C187.923 299.239 177.022 301.42 165.766 301.42ZM165.884 120.273H165.648C143.138 120.45 127.581 138.423 121.747 145.141C121.393 145.554 121.039 145.907 120.745 146.261C118.093 149.266 117.798 149.561 112.907 154.629L110.786 156.809C93.4019 172.425 83.3841 194.818 83.3841 218.154C83.3841 252.45 104.952 283.446 137.068 295.409C141.606 297.354 148.264 298.886 152.566 299.475C156.927 300.182 161.406 300.536 165.825 300.536C211.318 300.536 248.266 263.529 248.266 218.095C248.266 194.288 238.013 171.659 220.039 155.984C218.154 153.98 216.739 152.625 215.738 151.564C213.38 149.148 212.732 148.5 210.729 146.202C210.434 145.848 210.081 145.495 209.727 145.082C203.893 138.423 188.336 120.45 165.884 120.273Z" fill="#323A50"/>
<path opacity="0.2" d="M207.723 155.454C210.67 153.804 212.261 152.684 209.256 149.207C204.129 143.432 188.748 123.927 165.531 123.75H165.295C142.077 123.927 126.697 143.432 121.57 149.207C118.564 152.684 120.922 154.688 122.277 155.748C128.288 151.918 133.709 148.912 140.781 146.614C140.957 146.555 149.856 142.312 164.764 142.195C164.823 142.195 174.841 142.136 184.388 145.082C195.938 148.146 201.536 151.918 207.723 155.454Z" fill="url(#paint0_linear_3618_19183)"/>
<path opacity="0.2" d="M165 286.746C202.59 286.746 233.062 256.405 233.062 218.978C233.062 181.551 202.59 151.21 165 151.21C127.41 151.21 96.9375 181.551 96.9375 218.978C96.9375 256.405 127.41 286.746 165 286.746Z" fill="url(#paint1_radial_3618_19183)"/>
<path opacity="0.34" d="M236.363 187.334C236.304 187.157 236.245 186.98 236.127 186.862C235.891 187.334 235.479 187.746 234.948 188.1C233.593 188.925 231.354 188.512 230.647 186.98C230.234 186.155 229.822 185.389 229.291 184.623C229.056 184.211 228.761 183.857 228.466 183.445C228.348 183.268 228.348 183.268 228.466 183.445C228.407 183.386 228.348 183.268 228.29 183.209C228.172 183.032 227.995 182.855 227.877 182.678C226.64 181.264 225.166 179.85 223.988 179.025C223.222 178.495 222.456 178.023 221.631 177.611C221.395 177.493 221.159 177.375 220.923 177.257C220.865 177.257 220.864 177.257 220.864 177.198C220.452 177.021 220.039 176.903 219.568 176.786C219.097 176.668 218.625 176.55 218.154 176.432C218.154 176.432 217.447 176.314 217.506 176.314C217.329 176.314 217.211 176.255 217.034 176.255C215.914 176.137 214.854 176.137 213.734 176.137C209.668 176.255 206.191 176.903 202.243 177.375C198.118 177.905 193.934 178.2 189.809 178.495C181.618 179.084 173.486 180.086 165.295 180.204C161.288 180.262 157.222 179.555 153.273 178.848C149.325 178.141 145.672 177.611 141.9 177.198C133.945 176.255 125.931 175.843 117.916 176.55C116.266 176.668 115.029 175.253 114.793 173.78C114.734 173.78 114.675 173.78 114.616 173.839C114.145 173.957 113.673 174.075 113.261 174.252C113.025 174.311 112.789 174.428 112.495 174.487C112.377 174.546 112.318 174.546 112.259 174.605C110.373 175.43 108.547 176.491 106.897 177.787C106.838 177.846 106.484 178.141 106.425 178.141C106.189 178.318 105.954 178.495 105.777 178.73C105.364 179.084 105.011 179.437 104.598 179.791C103.832 180.557 103.066 181.382 102.418 182.207C102.359 182.266 102.359 182.325 102.3 182.325L102.241 182.384C102.064 182.62 101.888 182.796 101.77 183.032C101.534 183.445 101.239 183.798 101.004 184.211C100.768 184.623 100.532 184.977 100.356 185.389C100.297 185.507 100.002 186.273 100.297 185.507C100.238 185.743 100.12 185.92 100.061 186.155C99.4716 187.805 97.9395 188.748 96.1716 188.336C95.5824 188.218 95.052 187.864 94.6395 187.393C94.5806 187.511 94.6984 187.628 94.6395 187.746C90.6913 197.057 88.3931 207.193 88.3931 217.918C88.3931 260.582 122.984 295.173 165.648 295.173C208.313 295.173 242.904 260.582 242.904 217.918C242.727 207.134 240.429 196.762 236.363 187.334Z" fill="url(#paint2_linear_3618_19183)"/>
<g opacity="0.2">
<path d="M225.814 246.733L225.343 246.674C225.048 249.032 218.154 252.273 216.681 252.508C216.091 252.626 215.738 252.449 215.384 252.332C214.854 252.155 214.382 251.919 213.439 252.449C211.907 253.392 206.604 259.226 205.425 262.055C204.247 264.942 203.539 266.474 200.829 267.535C199.356 268.124 197.116 268.124 194.759 268.124C192.579 268.124 190.339 268.124 188.631 268.596C186.038 269.303 183.563 270.482 182.384 271.071C183.032 270.364 183.622 269.598 184.211 268.949C185.272 267.712 186.214 266.592 186.804 266.18C187.57 265.59 190.339 265.296 193.345 265.001C197.293 264.589 201.831 264.058 203.245 262.762C204.836 261.23 207.075 255.632 208.843 251.094C209.786 248.678 210.611 246.615 211.141 245.79C211.672 244.907 213.145 243.905 214.736 242.844C217.447 241.076 220.511 239.014 220.452 236.598H219.981C220.039 238.778 217.093 240.723 214.5 242.491C212.791 243.61 211.318 244.612 210.729 245.614C210.198 246.498 209.373 248.56 208.431 250.976C206.663 255.455 204.423 260.994 202.95 262.467C202.42 262.939 201.359 263.351 200.063 263.646C200.947 263.174 201.948 262.467 202.656 261.524C203.952 259.874 205.072 255.985 205.602 253.864C205.72 253.51 205.779 253.216 205.838 252.98C206.014 252.332 205.779 251.919 205.543 251.507C205.248 251.035 204.954 250.564 205.131 249.385C205.366 248.089 206.073 247.558 206.898 247.028C207.429 246.615 207.959 246.262 208.372 245.614C209.373 244.023 208.725 242.373 208.431 241.548V241.489C208.195 240.899 207.664 240.958 207.252 240.958C206.839 240.958 206.604 241.017 206.486 240.782C206.368 240.546 206.663 240.074 207.016 239.603C207.488 238.896 208.077 238.071 207.723 237.364L207.311 237.54C207.547 238.071 207.075 238.719 206.663 239.308C206.191 239.957 205.779 240.546 206.132 241.017C206.427 241.548 206.957 241.489 207.37 241.43C207.782 241.371 207.959 241.371 208.077 241.607V241.665C208.431 242.549 208.961 243.964 208.077 245.319C207.723 245.849 207.252 246.262 206.722 246.616C205.897 247.205 205.072 247.794 204.777 249.326C204.541 250.682 204.895 251.271 205.248 251.742C205.484 252.096 205.602 252.332 205.484 252.803C205.425 252.98 205.366 253.333 205.248 253.687C204.718 255.573 203.598 259.58 202.361 261.171C200.947 262.939 198.472 263.882 198.295 263.941C196.763 264.176 194.995 264.353 193.404 264.53C190.281 264.883 187.57 265.178 186.686 265.767C186.038 266.239 185.095 267.358 183.975 268.655C181.854 271.189 178.907 274.607 176.904 274.43C175.843 274.371 174.723 274.135 173.545 273.899C171.129 273.428 168.418 272.839 165.472 273.369C159.402 274.489 157.339 275.667 156.161 277.141C154.982 278.496 154.393 280.264 154.393 280.323L154.806 280.499C154.806 280.499 155.395 278.732 156.514 277.435C157.634 276.08 159.638 274.96 165.531 273.84C168.359 273.31 171.07 273.84 173.427 274.371C174.664 274.607 175.784 274.842 176.845 274.96C178.377 275.078 180.145 273.605 181.854 271.778L181.913 271.955C181.972 271.955 185.272 270.069 188.807 269.126C190.516 268.655 192.697 268.655 194.818 268.655C197.234 268.655 199.473 268.655 201.006 268.066C203.893 266.946 204.718 265.237 205.897 262.349C207.016 259.639 212.261 253.864 213.734 252.98C214.441 252.508 214.795 252.685 215.266 252.862C215.679 253.039 216.15 253.216 216.857 253.098C218.448 252.685 225.461 249.385 225.814 246.733Z" fill="url(#paint3_linear_3618_19183)"/>
<path d="M170.009 257.694C169.243 258.519 169.361 259.933 169.479 261.524C169.597 263.056 169.774 264.765 169.066 266.179C167.711 268.949 161.641 271.129 161.583 271.188L161.7 271.66C161.936 271.601 168.006 269.421 169.42 266.474C170.127 264.942 170.009 263.115 169.891 261.524C169.774 260.051 169.656 258.754 170.304 258.106C171.011 257.399 173.545 256.81 175.784 256.338C178.377 255.749 180.616 255.219 181.147 254.512C181.677 253.804 181.795 253.156 181.854 252.567C181.972 251.919 182.031 251.447 182.62 251.035C182.915 250.858 184.447 250.917 186.097 251.035C190.634 251.271 197.529 251.683 199.945 248.265C201.89 245.555 201.241 243.61 200.652 241.842C200.181 240.428 199.768 239.19 200.652 237.776C201.3 236.597 202.538 236.244 203.893 235.772C206.545 234.888 209.845 233.887 211.908 227.051C212.379 225.46 212.143 223.81 211.908 222.219C211.554 220.097 211.259 218.153 212.497 216.267L212.084 216.031C210.729 218.035 211.083 220.215 211.377 222.337C211.613 223.928 211.849 225.46 211.377 226.933C209.315 233.533 206.191 234.535 203.657 235.36C202.184 235.831 200.947 236.244 200.181 237.54C199.238 239.19 199.709 240.663 200.181 242.019C200.77 243.728 201.359 245.496 199.532 248.029C197.234 251.212 190.222 250.799 186.038 250.622C184.447 250.563 183.386 250.504 182.797 250.563C183.033 249.915 183.209 248.972 183.386 247.971C183.681 246.203 184.034 244.14 185.095 243.021C185.625 242.49 186.333 242.254 187.334 241.96C189.633 241.312 192.874 240.369 195.349 233.828V233.769C195.82 231.529 195.29 229.938 194.759 228.996C194.524 228.583 194.052 228.347 193.581 228.112C193.05 227.876 192.461 227.581 191.99 226.874C191.165 225.637 190.811 218.742 191.106 217.387C191.106 217.269 191.165 217.21 191.165 217.21C191.224 217.151 191.518 217.269 191.754 217.328C192.461 217.563 193.699 218.035 195.172 216.974L194.936 216.562C193.64 217.504 192.638 217.151 191.931 216.856C191.518 216.738 191.224 216.621 190.988 216.738C190.87 216.797 190.752 216.974 190.693 217.21C190.457 218.506 190.693 225.578 191.636 227.051C192.166 227.817 192.874 228.171 193.404 228.406C193.816 228.583 194.17 228.76 194.347 229.054C194.818 229.938 195.349 231.353 194.877 233.474C192.461 239.779 189.397 240.663 187.157 241.312C186.156 241.606 185.331 241.842 184.741 242.49C183.622 243.728 183.268 245.79 182.915 247.676C182.738 248.913 182.502 250.033 182.149 250.563C181.5 251.035 181.382 251.683 181.265 252.331C181.147 252.921 181.088 253.451 180.616 254.099C180.145 254.747 177.67 255.278 175.49 255.749C173.191 256.338 170.775 256.928 170.009 257.694Z" fill="url(#paint4_linear_3618_19183)"/>
<path d="M170.716 210.964C171.305 211.612 171.777 212.083 171.482 213.498C171.305 214.44 170.775 215.796 170.186 217.269C169.184 219.862 168.182 222.455 168.654 223.692C168.889 224.281 169.243 224.694 169.596 225.106C170.304 225.99 171.129 226.874 170.716 229.526C170.363 231.647 169.243 233.297 168.359 234.653C167.593 235.831 166.886 236.833 167.004 237.835C167.063 238.601 167.475 239.131 167.946 239.603C168.654 240.546 169.42 241.43 168.418 243.787C167.652 245.614 166.591 246.085 165.707 246.439C164.764 246.851 163.998 247.205 164.234 248.972C164.529 250.799 165.707 252.037 166.827 253.156C167.652 253.981 168.477 254.865 169.066 255.985L169.479 255.808C168.889 254.63 168.005 253.687 167.18 252.862C166.061 251.742 165 250.622 164.705 248.914C164.47 247.558 164.941 247.322 165.884 246.91C166.768 246.497 168.005 245.967 168.83 244.022C169.95 241.371 169.066 240.31 168.241 239.367C167.829 238.837 167.475 238.424 167.416 237.835C167.357 237.069 167.946 236.126 168.713 235.006C169.655 233.651 170.834 231.942 171.129 229.703C171.6 226.815 170.716 225.814 169.95 224.93C169.596 224.517 169.302 224.164 169.066 223.633C168.654 222.572 169.714 219.921 170.598 217.564C171.188 216.09 171.718 214.735 171.895 213.733C172.248 212.083 171.659 211.435 171.011 210.787C170.598 210.315 170.127 209.844 169.95 208.96L169.479 209.078C169.773 209.962 170.245 210.492 170.716 210.964Z" fill="url(#paint5_linear_3618_19183)"/>
<path d="M173.073 274.901C171.482 274.135 167.475 273.781 165 274.253C162.643 274.665 158.459 275.608 156.868 277.376C155.925 278.378 155.1 280.323 155.1 280.381L155.513 280.558C155.513 280.558 156.397 278.614 157.222 277.671C158.813 275.962 163.291 275.019 165.118 274.724C167.77 274.253 171.541 274.724 172.897 275.373C174.37 276.08 174.9 277.14 174.959 277.671C175.136 279.321 172.425 280.794 172.425 280.794L172.602 281.206C172.72 281.148 175.666 279.556 175.372 277.612C175.313 276.846 174.605 275.667 173.073 274.901Z" fill="url(#paint6_linear_3618_19183)"/>
<path d="M174.252 246.321C175.077 246.674 175.902 246.969 176.432 247.735C177.081 248.619 178.377 250.917 176.609 252.921C175.902 253.746 174.134 254.394 172.425 255.042C170.716 255.631 169.125 256.221 168.654 257.046C168.123 257.871 168.182 259.285 168.3 260.935C168.418 262.408 168.477 263.94 168.182 265.119C167.475 267.535 161.406 270.481 161.347 270.481L161.523 270.894C161.759 270.776 167.888 267.889 168.654 265.237C169.007 263.94 168.89 262.349 168.772 260.876C168.654 259.344 168.595 257.989 169.007 257.281C169.42 256.633 171.011 256.044 172.543 255.514C174.311 254.865 176.138 254.217 176.904 253.274C178.259 251.683 178.2 249.562 176.727 247.499C176.138 246.615 175.195 246.262 174.37 245.908C173.545 245.555 172.72 245.26 172.366 244.494C171.659 242.962 172.19 241.253 173.132 240.605C173.368 240.428 173.663 240.31 173.898 240.133C174.782 239.603 175.607 239.131 176.668 237.953C178.082 236.421 180.734 230.174 181.206 227.169C181.5 225.401 181.029 224.576 180.498 223.751C180.086 223.103 179.673 222.455 179.556 221.158L179.084 221.217C179.202 222.572 179.673 223.339 180.086 223.987C180.557 224.753 181.029 225.46 180.734 227.051C180.263 229.997 177.729 236.126 176.315 237.599C175.313 238.719 174.429 239.19 173.604 239.721C173.368 239.897 173.073 240.015 172.838 240.192C171.718 240.899 171.07 242.903 171.895 244.671C172.484 245.555 173.368 245.967 174.252 246.321Z" fill="url(#paint7_linear_3618_19183)"/>
</g>
<g opacity="0.2">
<path d="M154.157 273.133C153.981 271.896 152.566 270.894 151.152 269.892C150.032 269.126 148.324 268.183 146.85 267.299C145.554 266.592 144.375 265.944 143.963 265.59C143.845 265.531 143.727 265.354 143.609 265.178C142.902 264.058 142.372 261.288 142.49 259.108C142.549 257.871 142.431 256.928 142.372 256.162C142.254 255.337 142.195 254.747 142.431 254.217C142.607 253.804 142.902 253.746 143.374 253.687C143.845 253.628 144.493 253.51 144.729 252.744C144.965 252.096 144.847 251.388 144.788 250.681C144.67 249.974 144.611 249.385 144.906 248.913C145.2 248.501 145.495 248.383 145.907 248.265C146.32 248.088 146.791 247.912 147.204 247.322C147.557 246.792 147.086 246.085 146.497 245.201C145.613 243.963 144.434 242.196 144.906 240.074C145.436 237.776 146.143 237.835 147.145 238.012C147.616 238.071 148.206 238.188 148.736 237.953C149.679 237.599 150.563 235.537 151.447 233.415C152.154 231.765 152.861 230.056 153.509 229.585C154.216 229.054 154.806 228.937 155.395 228.819C155.984 228.701 156.515 228.642 156.927 228.053C157.457 227.404 157.163 226.521 156.927 225.754C156.809 225.283 156.632 224.812 156.75 224.576L156.338 224.34C156.161 224.753 156.279 225.283 156.456 225.872C156.632 226.521 156.868 227.346 156.515 227.758C156.161 228.171 155.807 228.229 155.218 228.347C154.629 228.465 153.922 228.583 153.156 229.172C152.449 229.703 151.741 231.412 150.975 233.238C150.209 235.124 149.325 237.246 148.559 237.54C148.088 237.717 147.616 237.658 147.145 237.599C146.084 237.481 145.024 237.305 144.375 240.015C143.845 242.372 145.082 244.199 146.025 245.554C146.497 246.262 146.968 246.851 146.732 247.146C146.438 247.617 146.084 247.735 145.672 247.912C145.259 248.029 144.847 248.206 144.493 248.737C144.081 249.326 144.199 250.092 144.316 250.799C144.434 251.447 144.493 252.096 144.316 252.626C144.14 253.156 143.727 253.215 143.256 253.274C142.784 253.333 142.254 253.392 141.959 254.099C141.724 254.747 141.782 255.396 141.9 256.279C142.018 257.046 142.077 257.93 142.018 259.167C141.9 260.522 142.077 262.172 142.431 263.587C141.429 261.937 140.132 259.403 139.897 256.928C139.72 254.806 140.132 254.099 140.663 252.98C141.193 251.919 141.841 250.622 142.372 247.735C143.079 243.551 141.252 239.721 140.074 237.658C140.191 237.246 141.016 234.476 143.197 233.71L144.316 233.297C146.379 232.59 148.206 231.942 149.149 231.412C150.386 230.763 151.388 228.642 151.565 227.346C151.682 226.58 151.329 226.108 150.975 225.696C150.681 225.283 150.386 224.929 150.386 224.34C150.445 223.81 151.211 223.279 152.095 222.69C153.332 221.806 154.924 220.804 155.572 219.037C156.338 216.915 155.572 216.031 154.924 215.147C154.57 214.735 154.275 214.381 154.157 213.851L153.745 213.969C153.863 214.558 154.275 215.029 154.629 215.442C155.277 216.267 155.866 217.033 155.218 218.86C154.629 220.451 153.097 221.453 151.918 222.278C150.857 222.985 150.091 223.515 150.032 224.281C149.974 225.106 150.386 225.578 150.681 225.99C151.034 226.403 151.27 226.697 151.152 227.287C150.916 228.642 149.915 230.528 148.972 231.058C148.029 231.529 146.143 232.178 144.14 232.885L143.02 233.297C141.016 234.004 140.074 236.244 139.72 237.187C139.307 236.597 139.072 236.244 139.013 236.185C138.954 236.126 134.77 232.296 132.884 229.408C130.999 226.462 131.057 224.046 132.059 223.162C132.59 222.69 133.65 222.631 134.947 222.572C136.125 222.513 137.422 222.455 138.6 222.042C140.368 221.394 141.606 218.86 141.959 218.094C142.49 216.974 142.961 215.442 142.666 214.735C142.195 213.438 140.25 213.026 140.132 212.967L140.074 213.438C140.074 213.438 141.9 213.851 142.254 214.912C142.372 215.324 142.195 216.444 141.547 217.917C140.899 219.39 139.72 221.158 138.424 221.629C137.304 222.042 136.066 222.101 134.947 222.16C133.65 222.219 132.472 222.278 131.824 222.808C130.704 223.81 130.468 226.344 132.59 229.644C134.416 232.531 138.482 236.244 138.777 236.48C139.013 236.774 143.02 241.901 142.018 247.617C141.547 250.446 140.899 251.742 140.368 252.744C140.25 252.979 140.132 253.215 140.015 253.451C139.484 252.037 139.543 251.212 139.602 250.563C139.661 249.621 139.602 249.09 138.306 248.265C136.597 247.205 133.297 247.028 131.116 246.91C130.232 246.851 129.466 246.792 129.113 246.733C127.757 246.379 127.05 245.79 126.697 244.553C126.402 243.551 126.638 243.256 127.109 242.726C127.227 242.608 127.345 242.431 127.522 242.254C127.699 242.019 128.052 241.783 128.406 241.606C129.231 241.135 130.35 240.487 130.232 238.837C130.174 237.422 129.231 236.951 128.288 236.421C127.64 236.067 126.991 235.772 126.52 235.065C125.282 233.415 123.809 228.642 123.574 226.049C123.279 223.162 123.809 217.681 124.281 217.328C124.457 217.269 125.224 217.622 125.813 217.917C126.932 218.447 128.347 219.096 129.29 218.86C129.466 218.801 129.584 218.801 129.761 218.742C130.999 218.447 131.116 218.329 131.057 217.092C130.999 216.208 130.35 216.09 129.82 216.031C129.407 215.972 129.113 215.913 128.877 215.619C128.406 215.029 128.582 212.79 128.641 211.965L128.17 211.906C128.111 212.26 127.816 215.029 128.465 215.913C128.818 216.326 129.29 216.385 129.702 216.444C130.291 216.562 130.586 216.621 130.586 217.092C130.645 217.563 130.645 217.799 130.527 217.917C130.409 218.035 130.115 218.094 129.643 218.212C129.525 218.271 129.349 218.271 129.172 218.329C128.347 218.506 127.05 217.917 125.99 217.387C124.988 216.915 124.457 216.679 124.104 216.797C123.161 217.151 122.866 223.692 123.043 225.931C123.279 228.642 124.752 233.474 126.107 235.183C126.638 235.89 127.404 236.303 127.993 236.656C128.936 237.128 129.643 237.54 129.702 238.719C129.761 240.074 128.936 240.546 128.052 241.076C127.64 241.312 127.286 241.547 127.05 241.842C126.932 242.019 126.815 242.196 126.697 242.313C126.225 242.844 125.872 243.315 126.225 244.553C126.638 245.908 127.463 246.674 128.995 247.028C129.29 247.087 129.702 247.146 130.291 247.146C129.938 247.381 129.584 247.381 129.172 247.381C128.759 247.381 128.229 247.322 127.816 247.676C127.05 248.206 127.522 249.09 127.875 249.738C127.993 250.033 128.17 250.328 128.17 250.504C128.17 250.622 128.111 250.74 127.993 250.858C127.757 251.035 127.286 251.094 126.638 251.035C125.931 250.917 124.929 249.856 124.34 249.208C124.104 248.972 123.927 248.737 123.809 248.678C123.574 248.501 123.22 248.501 122.925 248.56C122.572 248.619 122.159 248.619 121.806 248.383C121.629 248.265 121.452 248.029 121.452 247.735C121.393 247.204 121.629 246.615 121.806 246.438C121.865 246.379 122.041 246.379 122.277 246.379C122.572 246.379 122.925 246.379 123.22 246.144C123.691 245.731 123.868 245.083 123.809 244.081C123.75 243.492 123.279 243.492 122.866 243.492C122.395 243.492 121.865 243.433 121.629 242.785C121.452 242.313 121.688 241.842 122.041 241.253C122.572 240.369 123.22 239.19 122.277 237.599C121.216 235.596 120.038 235.831 119.154 236.008C118.859 236.067 118.565 236.126 118.388 236.067C118.211 236.008 118.093 235.89 118.093 235.831C118.034 235.654 118.152 235.478 118.211 235.419L117.857 235.183C117.857 235.242 117.563 235.596 117.681 236.008C117.74 236.244 117.916 236.479 118.27 236.597C118.565 236.715 118.918 236.656 119.272 236.597C120.038 236.479 120.981 236.244 121.924 237.953C122.69 239.367 122.159 240.31 121.688 241.194C121.334 241.842 120.981 242.431 121.216 243.079C121.57 244.022 122.336 244.081 122.866 244.081C123.338 244.081 123.397 244.14 123.397 244.258C123.456 245.083 123.338 245.672 122.984 245.967C122.807 246.085 122.572 246.085 122.336 246.085C122.041 246.085 121.747 246.085 121.511 246.321C121.275 246.556 120.981 247.322 121.099 247.971C121.157 248.383 121.334 248.737 121.629 248.972C122.159 249.326 122.69 249.326 123.102 249.267C123.397 249.267 123.574 249.208 123.691 249.326C123.809 249.385 123.927 249.621 124.163 249.856C124.811 250.563 125.872 251.742 126.697 251.86C126.697 251.86 126.697 251.86 126.756 251.86C127.522 251.978 128.111 251.86 128.465 251.565C128.641 251.388 128.759 251.153 128.818 250.858C128.818 250.563 128.641 250.269 128.465 249.856C128.111 249.149 127.875 248.678 128.288 248.383C128.641 248.147 128.936 248.147 129.349 248.147C129.879 248.147 130.527 248.206 131.057 247.499C131.116 247.499 131.175 247.499 131.175 247.499C133.297 247.617 136.538 247.853 138.188 248.796C139.307 249.503 139.307 249.856 139.249 250.681C139.19 251.447 139.131 252.449 139.897 254.217C139.661 254.924 139.543 255.749 139.661 257.105C139.956 261.23 143.138 265.413 143.374 265.708C143.491 265.885 143.668 266.062 143.786 266.179C144.257 266.533 145.436 267.181 146.732 267.947C148.206 268.772 149.915 269.715 151.034 270.481C152.331 271.424 153.745 272.367 153.863 273.428C153.922 273.899 153.804 274.429 153.332 274.96C151.741 277.081 149.797 284.388 149.738 284.624L150.209 284.683C150.268 284.212 152.272 277.14 153.686 275.196C154.04 274.371 154.275 273.722 154.157 273.133Z" fill="url(#paint8_linear_3618_19183)"/>
<path d="M150.975 275.019C150.327 272.78 147.086 270.364 146.025 269.715C143.727 268.301 138.482 268.006 136.066 268.537C134.946 268.772 134.18 269.126 133.473 269.48C132.707 269.833 132.059 270.187 131.175 270.187C129.348 270.187 128.346 270.422 127.462 271.071C127.286 271.189 127.227 271.365 127.227 271.483C127.227 271.837 127.58 272.19 127.934 272.544C128.229 272.78 128.641 273.192 128.582 273.428C128.582 273.546 128.464 273.605 128.346 273.664C127.168 274.312 126.225 273.428 126.166 273.369L125.812 273.722C125.812 273.722 126.991 274.901 128.523 274.135C128.818 273.958 128.936 273.781 128.995 273.546C129.054 273.074 128.582 272.662 128.229 272.308C127.993 272.072 127.639 271.778 127.639 271.601L127.698 271.542C128.464 270.953 129.407 270.776 131.116 270.776C132.118 270.776 132.825 270.422 133.65 270.01C134.298 269.656 135.064 269.303 136.125 269.067C138.423 268.596 143.609 268.89 145.789 270.187C147.086 270.953 149.973 273.251 150.562 275.255C150.68 275.785 150.445 276.787 150.091 277.494C148.323 281.619 147.734 284.565 147.734 284.565L148.146 284.624C148.146 284.624 148.736 281.678 150.504 277.612C150.739 277.081 151.211 275.844 150.975 275.019Z" fill="url(#paint9_linear_3618_19183)"/>
<path d="M152.036 274.666C151.918 273.841 151.093 272.957 150.798 272.603C150.739 272.544 150.739 272.544 150.739 272.544C149.089 270.6 146.673 268.714 145.082 268.125C144.611 267.948 144.08 267.83 143.432 267.712C140.839 266.475 138.364 266.003 135.948 265.532C134.652 265.296 133.297 265.001 131.941 264.648C128.347 263.587 122.336 257.576 122.041 257.341C121.864 257.105 117.739 251.919 117.386 250.092C117.209 249.326 116.325 245.437 115.913 244.376C115.5 243.433 110.373 241.725 109.313 241.371C106.779 241.253 103.125 241.017 102.772 240.782C102.359 240.487 101.888 239.073 102.005 238.483C102.005 238.248 102.3 238.071 102.595 237.894C103.066 237.6 103.597 237.187 103.714 236.48C103.773 235.95 103.42 234.359 102.772 231.825C102.182 229.409 101.416 226.167 101.593 225.578C101.77 225.048 102.123 224.989 102.477 224.871C102.83 224.812 103.184 224.694 103.302 224.164C103.361 223.987 103.243 223.81 103.184 223.751C102.948 223.516 102.418 223.516 101.711 223.575C101.004 223.634 100.061 223.692 99.7072 223.339L99.4126 223.692C99.943 224.164 100.886 224.105 101.711 224.046C102.123 224.046 102.713 223.987 102.83 224.105C102.772 224.341 102.713 224.341 102.359 224.459C102.005 224.576 101.475 224.694 101.18 225.46C100.945 226.108 101.475 228.466 102.359 232.001C102.83 234.005 103.361 236.009 103.302 236.48C103.243 237.01 102.772 237.305 102.359 237.6C101.947 237.835 101.593 238.13 101.534 238.542C101.416 239.25 101.947 240.9 102.536 241.312C103.007 241.666 107.78 241.901 109.254 241.96C112.2 242.903 115.323 244.2 115.559 244.671C115.913 245.496 116.561 248.148 117.032 250.328C117.445 252.214 121.629 257.517 121.805 257.753C122.041 257.989 128.111 264.117 131.882 265.178C133.238 265.591 134.593 265.826 135.889 266.062C137.775 266.416 139.779 266.828 141.841 267.594C140.722 267.476 139.484 267.417 138.364 267.3C137.363 267.241 136.479 267.182 135.713 267.064C130.114 266.475 126.991 265.591 124.988 264.176C122.689 262.585 115.854 256.575 115.323 255.867C115.029 255.455 114.911 255.042 114.734 254.512C114.616 254.1 114.498 253.628 114.263 253.098C113.379 251.212 110.138 249.091 107.78 247.558C106.543 246.792 105.482 246.085 105.247 245.732C104.893 245.201 105.011 244.848 105.188 244.376C105.305 244.023 105.482 243.669 105.482 243.198H105.011C105.011 243.61 104.893 243.905 104.775 244.2C104.539 244.73 104.363 245.201 104.834 245.967C105.129 246.38 106.13 247.028 107.486 247.912C109.784 249.385 113.025 251.448 113.791 253.275C114.027 253.746 114.145 254.217 114.263 254.63C114.439 255.219 114.557 255.691 114.911 256.162C115.5 256.869 122.395 262.939 124.693 264.589C126.814 266.062 129.938 266.946 135.654 267.535C136.361 267.594 137.304 267.653 138.305 267.771C140.78 267.948 143.609 268.184 144.964 268.655C146.497 269.185 148.854 271.012 150.445 272.957C150.445 272.957 150.504 273.016 150.504 273.075C150.739 273.369 151.564 274.253 151.623 274.901C151.741 275.55 151.27 276.787 150.622 278.555C150.032 280.205 149.266 282.267 148.618 284.742L149.03 284.86C149.679 282.385 150.386 280.382 151.034 278.732C151.682 276.669 152.154 275.432 152.036 274.666Z" fill="url(#paint10_linear_3618_19183)"/>
<path d="M104.893 211.789C104.834 212.142 104.48 212.673 104.068 213.262C103.361 214.382 102.477 215.619 103.007 216.562C103.302 217.092 104.009 217.564 104.834 218.153C106.366 219.155 108.311 220.451 109.077 222.808C110.314 226.521 113.496 233.18 113.496 233.239V233.298C113.555 233.357 117.386 238.542 116.089 243.669L116.502 243.787C117.857 238.601 114.203 233.474 113.85 233.062C113.85 233.003 113.732 232.826 113.614 232.59C114.144 232.473 115.323 232.119 116.148 231.058C116.737 230.292 116.973 229.29 116.855 228.053C116.619 225.99 115.618 224.046 114.734 222.396C113.968 220.923 113.32 219.685 113.437 218.742C113.496 217.976 113.968 217.799 114.557 217.623C115.264 217.446 116.148 217.151 116.325 215.619C116.502 213.969 115.382 213.262 114.439 212.731C113.732 212.26 113.261 211.965 113.319 211.435C113.437 209.962 115.559 207.899 115.559 207.899L115.264 207.546C115.205 207.605 113.025 209.726 112.907 211.376C112.848 212.201 113.555 212.673 114.262 213.085C115.146 213.615 116.089 214.205 115.912 215.56C115.795 216.798 115.146 216.974 114.439 217.151C113.791 217.328 113.084 217.564 112.966 218.624C112.907 219.685 113.555 220.981 114.321 222.514C115.205 224.164 116.148 226.049 116.384 228.053C116.502 229.114 116.325 230.056 115.795 230.705C115.028 231.706 113.85 232.001 113.437 232.06C112.495 230.115 110.432 225.46 109.489 222.632C108.664 220.157 106.602 218.742 105.069 217.74C104.303 217.21 103.596 216.739 103.361 216.326C102.948 215.619 103.714 214.499 104.362 213.498C104.834 212.849 105.187 212.26 105.246 211.848C105.305 211.199 104.716 210.257 103.95 209.137C103.302 208.135 102.536 207.015 102.418 206.19L101.946 206.249C102.064 207.192 102.83 208.312 103.537 209.373C104.303 210.315 104.952 211.317 104.893 211.789Z" fill="url(#paint11_linear_3618_19183)"/>
<path d="M149.443 276.551C148.913 275.313 147.322 274.311 146.202 273.604C145.731 273.31 145.377 273.074 145.2 272.897C145.023 272.72 145.023 272.543 144.964 272.367C144.847 271.836 144.67 271.365 143.55 270.893C141.841 270.186 137.775 269.833 136.361 270.717C135.831 271.07 135.772 271.483 135.772 271.836C135.889 272.779 137.009 273.604 138.07 273.958C138.777 274.194 138.836 274.96 138.895 275.726C138.954 276.374 139.013 277.022 139.484 277.435C139.838 277.67 139.956 277.906 139.897 278.083C139.838 278.319 139.425 278.613 138.541 278.731C137.245 278.849 135.241 278.319 135.182 278.319L135.064 278.79C135.123 278.79 137.186 279.32 138.541 279.202C139.543 279.085 140.191 278.731 140.309 278.201C140.427 277.788 140.191 277.376 139.72 277.022C139.366 276.786 139.366 276.256 139.307 275.667C139.248 274.901 139.189 273.84 138.188 273.545C137.127 273.192 136.243 272.426 136.184 271.777C136.184 271.542 136.302 271.306 136.538 271.129C137.716 270.422 141.547 270.658 143.314 271.365C144.316 271.777 144.375 272.131 144.493 272.485C144.552 272.72 144.611 273.015 144.906 273.251C145.082 273.427 145.495 273.722 145.966 274.017C147.027 274.665 148.559 275.726 149.089 276.786C149.443 277.552 149.031 278.377 148.5 279.556C148.029 280.676 147.381 282.031 147.145 283.917L147.616 283.976C147.852 282.208 148.5 280.852 148.972 279.733C149.384 278.495 149.856 277.494 149.443 276.551Z" fill="url(#paint12_linear_3618_19183)"/>
</g>
<path d="M164.47 184.151C185.949 184.151 203.362 174.759 203.362 163.173C203.362 151.587 185.949 142.194 164.47 142.194C142.99 142.194 125.577 151.587 125.577 163.173C125.577 174.759 142.99 184.151 164.47 184.151Z" fill="#2A697F"/>
<path d="M164.057 163.468C173.495 163.468 181.146 159.695 181.146 155.041C181.146 150.387 173.495 146.614 164.057 146.614C154.619 146.614 146.968 150.387 146.968 155.041C146.968 159.695 154.619 163.468 164.057 163.468Z" fill="#293C4F"/>
<path d="M164.057 148.618C172.778 148.618 180.027 151.859 180.969 156.043C181.028 155.689 181.087 155.395 181.087 155.041C181.087 150.386 173.427 146.614 163.998 146.614C154.569 146.614 146.909 150.386 146.909 155.041C146.909 155.395 146.968 155.748 147.027 156.043C148.146 151.859 155.335 148.618 164.057 148.618Z" fill="#DBDBDB"/>
<path d="M181.028 157.751L180.616 156.102C179.614 152.035 172.484 148.971 164.057 148.971C155.63 148.971 148.5 152.035 147.498 156.102L147.086 157.751L146.673 156.102C146.555 155.689 146.555 155.335 146.555 154.982C146.555 152.566 148.382 150.326 151.8 148.676C155.1 147.026 159.461 146.143 164.057 146.143C168.653 146.143 173.014 147.026 176.314 148.676C179.673 150.326 181.559 152.625 181.559 154.982C181.559 155.335 181.5 155.689 181.441 156.102L181.028 157.751ZM164.057 148.205C171.718 148.205 178.318 150.739 180.675 154.275C179.85 150.209 172.719 147.027 164.057 147.027C155.394 147.027 148.264 150.209 147.439 154.275C149.796 150.68 156.455 148.205 164.057 148.205Z" fill="#323A50"/>
<path d="M164.529 142.312C143.02 142.312 125.636 151.446 125.636 162.761C125.636 174.075 143.079 183.209 164.529 183.209C186.038 183.209 203.421 174.075 203.421 162.761C203.421 151.446 186.038 142.312 164.529 142.312ZM181.205 155.159C181.205 155.218 181.264 155.277 181.264 155.277C181.264 155.336 181.264 155.395 181.264 155.454C180.557 159.696 173.25 163.055 164.234 163.055C155.513 163.055 148.264 159.873 147.321 155.807C147.321 155.689 147.263 155.571 147.263 155.454C147.263 155.395 147.263 155.336 147.263 155.277C147.263 155.218 147.263 155.1 147.263 155.1C147.263 154.982 147.263 154.923 147.263 154.688C147.263 154.688 147.263 154.452 147.263 154.334C147.321 153.745 147.498 153.273 147.793 152.743C148.029 152.213 148.441 151.741 148.913 151.27H148.971C151.741 148.5 157.634 146.614 164.411 146.614C173.839 146.614 181.559 150.327 181.559 154.864H181.382C181.146 154.923 181.205 155.041 181.205 155.159Z" fill="#DBDBDB"/>
<path d="M164.529 183.68C154.039 183.68 144.198 181.559 136.832 177.61C129.348 173.662 125.223 168.418 125.223 162.76C125.223 157.103 129.348 151.859 136.832 147.91C144.257 144.021 154.098 141.841 164.529 141.841C175.018 141.841 184.859 143.962 192.225 147.91C199.709 151.859 203.834 157.103 203.834 162.76C203.834 168.418 199.709 173.662 192.225 177.61C184.859 181.5 175.018 183.68 164.529 183.68ZM164.529 142.725C143.314 142.725 126.048 151.741 126.048 162.76C126.048 173.78 143.314 182.796 164.529 182.796C185.743 182.796 203.009 173.78 203.009 162.76C203.009 151.741 185.743 142.725 164.529 142.725ZM164.175 163.468C155.336 163.468 147.911 160.227 146.85 155.866C146.85 155.748 146.791 155.63 146.791 155.512C146.791 155.453 146.791 155.394 146.732 155.335C146.732 155.277 146.732 155.218 146.732 155.218V155.159C146.732 155.041 146.732 154.923 146.732 154.687V154.275C146.791 153.685 146.968 153.155 147.321 152.507C147.557 151.977 147.97 151.505 148.5 150.916L148.559 150.857C151.505 147.91 157.516 146.084 164.234 146.084C168.83 146.084 173.191 146.968 176.491 148.559C179.909 150.209 181.736 152.389 181.736 154.746V155.159H181.618C181.618 155.218 181.618 155.218 181.618 155.277C181.618 155.335 181.618 155.394 181.618 155.453C180.852 160.05 173.368 163.468 164.175 163.468ZM147.498 154.687C147.498 154.864 147.498 154.923 147.498 155.041C147.498 155.041 147.498 155.1 147.498 155.159C147.498 155.218 147.498 155.218 147.498 155.277C147.498 155.335 147.498 155.394 147.498 155.453C147.498 155.571 147.557 155.63 147.557 155.748C148.559 159.696 155.689 162.702 164.116 162.702C172.778 162.702 180.086 159.519 180.734 155.453V155.394C180.734 155.335 180.675 155.277 180.734 155.218V155.159C180.734 155.1 180.734 155.041 180.734 154.923V154.51H180.911C180.734 152.625 179.025 150.798 176.137 149.443C172.955 147.91 168.712 147.085 164.234 147.085C157.811 147.085 151.859 148.853 149.089 151.623L149.03 151.682C148.559 152.153 148.264 152.566 148.029 152.978C147.793 153.509 147.616 153.98 147.557 154.452C147.557 154.51 147.498 154.687 147.498 154.687Z" fill="#323A50"/>
<g opacity="0.3">
<path d="M165.53 295.939C165.471 295.939 165.413 295.939 165.413 295.939C151.741 295.939 138.129 292.108 126.107 284.978H126.048L125.459 284.389C110.432 275.667 99.1179 262.114 92.7536 245.083C90.2197 238.542 88.6875 231.471 88.0393 223.574C87.8625 219.862 87.8625 216.444 88.0393 212.732C88.2161 209.078 88.7465 205.424 89.6893 201.064C90.6322 196.644 92.0465 192.283 94.109 187.628L94.875 187.982C92.8715 192.578 91.4572 196.939 90.5143 201.299C89.5715 205.601 89.1 209.255 88.8643 212.849C88.6875 216.503 88.6875 219.921 88.8643 223.574C89.5125 231.353 91.0447 238.365 93.5197 244.848C99.8251 261.642 111.021 275.078 125.93 283.74H125.989L126.579 284.33C150.857 298.649 179.909 298.767 204.305 284.507C205.484 283.74 206.721 282.856 208.195 282.09C221.1 273.782 230.764 261.937 236.952 246.851C237.246 246.144 237.482 245.378 237.777 244.612C238.013 243.846 238.307 243.08 238.602 242.373C243.257 228.112 243.846 213.498 240.193 199.06V199.001C240.075 198.412 237.659 190.987 236.186 187.628L236.952 187.274C238.307 190.457 240.782 197.823 240.959 198.824C244.613 213.439 244.082 228.171 239.309 242.608V242.667C239.014 243.374 238.779 244.14 238.543 244.848C238.307 245.614 238.013 246.38 237.718 247.146C231.471 262.408 221.689 274.371 208.666 282.739C207.252 283.564 206.014 284.389 204.836 285.155C192.696 292.226 179.143 295.939 165.53 295.939Z" fill="#323A50"/>
</g>
<path d="M163.763 139.365C154.688 139.365 146.497 138.128 141.782 136.006L142.018 135.476C146.555 137.538 154.864 138.776 163.763 138.776C177.434 138.776 188.925 135.771 188.925 132.235C188.925 128.699 177.375 125.694 163.763 125.694C158.93 125.694 154.275 126.047 150.268 126.754L150.15 126.165C154.216 125.458 158.93 125.104 163.763 125.104C178.2 125.104 189.514 128.287 189.514 132.294C189.514 136.301 178.2 139.365 163.763 139.365Z" fill="#323A50"/>
<path d="M170.716 92.7534L173.545 89.748L176.02 101.18V101.239L164.293 99.4123L167.063 96.4659L170.716 92.7534Z" fill="#FF4200"/>
<path d="M146.85 93.2246L149.855 97.5853C149.855 97.5853 152.743 95.5817 156.514 94.6388C161.111 93.4603 165 94.2263 167.947 96.996L171.541 93.1067C167.18 89.0996 161.464 87.8621 154.982 89.571C150.386 90.8085 147.027 93.1656 146.85 93.2246Z" fill="#FF4200"/>
<path d="M262.821 189.867C260.994 183.62 255.985 179.436 248.03 177.315C243.493 176.136 239.191 176.018 237.423 176.018C237.364 175.783 237.246 175.547 237.069 175.37C238.66 175.311 243.257 175.37 248.207 176.667C256.28 178.788 261.525 183.267 263.469 189.572C263.882 190.397 275.491 214.794 276.905 229.113C277.318 232.885 280.323 233.71 285.921 235.242C290.518 236.479 296.823 238.188 304.719 242.431L304.425 243.02C296.646 238.836 290.4 237.127 285.803 235.89C280.146 234.358 276.728 233.415 276.316 229.172C275.137 217.504 267.123 199.001 264.059 192.342C264.235 197.292 260.818 204.127 253.805 212.731C247.087 220.981 237.128 230.822 224.223 242.077C219.45 246.261 214.559 250.268 209.903 254.099L209.137 253.863C213.851 250.092 218.86 245.908 223.751 241.606C252.744 216.326 266.239 198.47 262.821 189.867Z" fill="#323A50"/>
<path d="M239.368 182.148C239.309 181.676 238.72 179.378 238.543 178.965C238.602 178.73 239.486 180.144 239.427 179.967C239.427 179.496 239.132 179.024 238.72 178.73C238.778 178.258 238.778 178.023 238.307 177.728C238.366 177.551 237.836 177.492 237.777 177.315C238.602 178.671 239.603 180.556 239.898 182.089C241.195 189.219 230.411 206.014 207.723 232.06C202.714 237.776 197.646 243.492 193.05 248.383L192.343 248.148C212.732 226.167 241.136 192.931 239.368 182.148Z" fill="#323A50"/>
<path d="M237.128 175.371C237.246 175.489 237.305 175.606 237.423 175.724L241.666 175.548C239.721 175.371 238.13 175.312 237.128 175.371Z" fill="#323A50"/>
<path d="M238.307 177.433L249.209 176.962C248.797 176.844 248.384 176.726 247.913 176.608L238.189 177.021C238.189 177.139 238.248 177.257 238.307 177.433Z" fill="#323A50"/>
<path d="M238.72 179.083L253.157 178.494C252.922 178.376 252.627 178.258 252.332 178.141L238.543 178.671C238.543 178.73 238.543 178.789 238.543 178.848C238.602 178.907 238.661 179.025 238.72 179.083Z" fill="#323A50"/>
<path d="M239.368 180.792L255.986 180.144C255.809 180.026 255.573 179.908 255.396 179.731L239.25 180.38C239.309 180.498 239.368 180.674 239.368 180.792Z" fill="#323A50"/>
<path d="M239.545 182.384L257.99 181.618C257.872 181.5 257.695 181.382 257.518 181.205L239.545 181.912C239.545 182.089 239.545 182.207 239.545 182.384Z" fill="#323A50"/>
<path d="M239.604 184.092L259.639 183.267C259.521 183.149 259.404 183.031 259.286 182.854L239.604 183.621C239.604 183.797 239.604 183.974 239.604 184.092Z" fill="#323A50"/>
<path d="M239.368 185.448C239.309 185.566 239.309 185.683 239.25 185.801L260.936 184.917C260.877 184.8 260.759 184.682 260.641 184.505L239.368 185.389V185.448Z" fill="#323A50"/>
<path d="M238.838 187.274C238.838 187.333 238.779 187.451 238.779 187.51L261.997 186.567C261.938 186.449 261.879 186.331 261.761 186.154L238.897 187.097C238.838 187.156 238.838 187.274 238.838 187.274Z" fill="#323A50"/>
<path d="M238.189 188.865L262.586 187.863C262.644 187.981 262.703 188.099 262.762 188.276L238.071 189.278C238.071 189.101 238.071 188.983 238.189 188.865Z" fill="#323A50"/>
<path d="M237.423 190.633L263.175 189.572C263.234 189.69 263.234 189.808 263.293 189.985L237.247 191.045C237.306 190.869 237.364 190.751 237.423 190.633Z" fill="#323A50"/>
<path d="M236.599 192.342L263.529 191.223C263.529 191.341 263.588 191.458 263.588 191.635L236.363 192.755C236.481 192.578 236.54 192.46 236.599 192.342Z" fill="#323A50"/>
<path d="M235.714 194.11L263.705 192.99C263.705 193.108 263.705 193.226 263.705 193.403L235.479 194.522C235.537 194.346 235.596 194.228 235.714 194.11Z" fill="#323A50"/>
<path d="M234.771 195.701L263.529 194.522C263.529 194.64 263.47 194.758 263.47 194.935L234.536 196.114C234.654 195.996 234.712 195.819 234.771 195.701Z" fill="#323A50"/>
<path d="M233.77 197.469L263.175 196.29C263.116 196.408 263.116 196.526 263.057 196.703L233.475 197.881C233.593 197.763 233.652 197.586 233.77 197.469Z" fill="#323A50"/>
<path d="M232.709 199.178L262.645 197.94C262.586 198.058 262.527 198.235 262.468 198.353L232.415 199.59C232.473 199.473 232.591 199.355 232.709 199.178Z" fill="#323A50"/>
<path d="M231.531 200.945L261.938 199.708C261.879 199.826 261.82 200.003 261.761 200.12L231.295 201.358C231.354 201.24 231.472 201.122 231.531 200.945Z" fill="#323A50"/>
<path d="M230.411 202.654L261.113 201.417C261.054 201.535 260.995 201.712 260.877 201.829L230.116 203.067C230.234 202.89 230.352 202.772 230.411 202.654Z" fill="#323A50"/>
<path d="M229.232 204.422L260.17 203.185C260.111 203.302 259.993 203.479 259.934 203.597L228.938 204.835C228.996 204.717 229.114 204.54 229.232 204.422Z" fill="#323A50"/>
<path d="M227.995 206.131L259.109 204.894C259.05 205.011 258.932 205.188 258.873 205.306L227.7 206.544C227.818 206.426 227.877 206.308 227.995 206.131Z" fill="#323A50"/>
<path d="M226.698 207.958L257.93 206.721C257.813 206.839 257.754 207.015 257.636 207.133L226.345 208.371C226.522 208.194 226.639 208.076 226.698 207.958Z" fill="#323A50"/>
<path d="M225.52 209.549L256.811 208.312C256.693 208.429 256.634 208.606 256.516 208.724L225.166 209.962C225.284 209.844 225.402 209.726 225.52 209.549Z" fill="#323A50"/>
<path d="M224.164 211.318L255.514 210.08C255.396 210.198 255.337 210.375 255.161 210.493L223.811 211.73C223.987 211.612 224.105 211.494 224.164 211.318Z" fill="#323A50"/>
<path d="M222.868 213.085L254.218 211.848C254.1 211.966 253.982 212.142 253.864 212.26L222.573 213.498C222.632 213.38 222.75 213.203 222.868 213.085Z" fill="#323A50"/>
<path d="M221.512 214.853L252.803 213.615C252.686 213.733 252.568 213.91 252.45 214.028L221.218 215.265C221.277 215.147 221.395 214.971 221.512 214.853Z" fill="#323A50"/>
<path d="M220.098 216.62L251.272 215.383C251.154 215.501 251.036 215.677 250.918 215.795L219.804 217.033C219.922 216.915 219.98 216.738 220.098 216.62Z" fill="#323A50"/>
<path d="M218.684 218.389L249.739 217.151C249.621 217.269 249.503 217.446 249.386 217.564L218.389 218.801C218.448 218.684 218.566 218.566 218.684 218.389Z" fill="#323A50"/>
<path d="M217.27 220.156L248.148 218.919C248.03 219.037 247.912 219.214 247.736 219.331L216.916 220.569C217.093 220.392 217.211 220.274 217.27 220.156Z" fill="#323A50"/>
<path d="M215.914 221.807L246.616 220.569C246.498 220.687 246.38 220.864 246.203 220.982L215.561 222.219C215.678 222.101 215.796 221.984 215.914 221.807Z" fill="#323A50"/>
<path d="M214.618 223.456L245.084 222.219C244.966 222.337 244.848 222.513 244.671 222.631L214.264 223.869C214.382 223.751 214.5 223.574 214.618 223.456Z" fill="#323A50"/>
<path d="M213.145 225.224L243.375 223.986C243.257 224.104 243.139 224.281 242.962 224.399L212.791 225.636C212.85 225.518 212.968 225.401 213.145 225.224Z" fill="#323A50"/>
<path d="M211.671 226.992L241.666 225.755C241.548 225.873 241.371 226.05 241.254 226.167L211.318 227.346C211.377 227.287 211.554 227.11 211.671 226.992Z" fill="#323A50"/>
<path d="M210.139 228.76L239.839 227.581C239.722 227.699 239.545 227.876 239.427 227.994L209.845 229.172C209.904 229.054 210.022 228.936 210.139 228.76Z" fill="#323A50"/>
<path d="M208.725 230.41L238.131 229.231C238.013 229.349 237.836 229.526 237.659 229.644L208.372 230.822C208.489 230.705 208.607 230.587 208.725 230.41Z" fill="#323A50"/>
<path d="M207.311 232.06L236.363 230.882C236.245 231 236.068 231.176 235.891 231.294L206.898 232.473C207.075 232.355 207.193 232.237 207.311 232.06Z" fill="#323A50"/>
<path d="M205.779 233.828L234.536 232.649C234.418 232.767 234.241 232.944 234.065 233.062L205.425 234.24C205.543 234.123 205.661 234.005 205.779 233.828Z" fill="#323A50"/>
<path d="M204.246 235.596L232.591 234.477C232.414 234.594 232.296 234.771 232.12 234.889L203.834 236.009C204.011 235.891 204.129 235.773 204.246 235.596Z" fill="#323A50"/>
<path d="M202.714 237.422L230.705 236.303C230.529 236.421 230.411 236.597 230.234 236.715L202.361 237.835C202.42 237.658 202.597 237.54 202.714 237.422Z" fill="#323A50"/>
<path d="M201.123 239.19L228.702 238.07C228.525 238.188 228.407 238.365 228.23 238.483L200.77 239.602C200.828 239.485 201.005 239.367 201.123 239.19Z" fill="#323A50"/>
<path d="M199.65 240.84L226.875 239.721C226.698 239.839 226.521 240.015 226.404 240.133L199.296 241.253C199.414 241.135 199.532 240.958 199.65 240.84Z" fill="#323A50"/>
<path d="M198.059 242.609L224.813 241.548C224.636 241.666 224.459 241.842 224.341 241.96L197.706 243.021C197.764 242.903 197.882 242.785 198.059 242.609Z" fill="#323A50"/>
<path d="M196.468 244.376L222.809 243.315C222.632 243.433 222.455 243.61 222.337 243.728L196.114 244.789C196.232 244.671 196.35 244.553 196.468 244.376Z" fill="#323A50"/>
<path d="M194.877 246.203L220.747 245.143C220.57 245.26 220.393 245.437 220.275 245.555L194.523 246.616C194.582 246.439 194.7 246.321 194.877 246.203Z" fill="#323A50"/>
<path d="M193.345 247.853L218.802 246.792C218.625 246.91 218.448 247.087 218.33 247.204L192.991 248.206C193.109 248.088 193.227 247.971 193.345 247.853Z" fill="#323A50"/>
<path d="M193.816 249.385L216.857 248.442C216.68 248.56 216.503 248.737 216.327 248.855L194.818 249.739C194.523 249.621 194.169 249.503 193.816 249.385Z" fill="#323A50"/>
<path d="M198.354 250.917L214.736 250.269C214.559 250.386 214.382 250.563 214.205 250.681L199.473 251.27C199.12 251.211 198.707 251.035 198.354 250.917Z" fill="#323A50"/>
<path d="M203.009 252.45L212.555 252.037C212.378 252.155 212.202 252.332 212.025 252.45L204.128 252.803C203.775 252.685 203.421 252.568 203.009 252.45Z" fill="#323A50"/>
<path d="M207.665 253.981L210.375 253.863C210.198 253.981 210.022 254.158 209.845 254.276L208.725 254.335C208.372 254.217 208.018 254.099 207.665 253.981Z" fill="#323A50"/>
<path d="M68.8875 189.867C70.7143 183.62 75.7232 179.436 83.6786 177.315C88.2161 176.136 92.5178 176.018 94.2857 176.018C94.3446 175.783 94.4625 175.547 94.6393 175.37C93.0482 175.311 88.4518 175.37 83.5018 176.667C75.4286 178.788 70.1839 183.267 68.2393 189.572C67.8268 190.397 56.2178 214.794 54.8036 229.113C54.3911 232.885 51.3857 233.71 45.7875 235.242C41.1911 236.479 34.8857 238.188 26.9893 242.431L27.2839 243.02C35.0625 238.836 41.3089 237.127 45.9053 235.89C51.5625 234.358 54.9803 233.415 55.3928 229.172C56.5714 217.504 64.5857 199.001 67.65 192.342C67.4732 197.292 70.8911 204.127 77.9036 212.731C84.6214 220.981 94.5803 230.822 107.486 242.077C112.259 246.261 117.15 250.268 121.805 254.099L122.571 253.863C117.857 250.092 112.848 245.908 107.957 241.606C79.0232 216.326 65.4696 198.47 68.8875 189.867Z" fill="#323A50"/>
<path d="M92.3413 182.148C92.4002 181.676 92.9895 179.378 93.1663 178.965C93.1074 178.73 92.2234 180.144 92.2824 179.967C92.2824 179.496 92.577 179.024 92.9895 178.73C92.9306 178.258 92.9306 178.023 93.402 177.728C93.3431 177.551 93.8734 177.492 93.9323 177.315C93.1073 178.671 92.1056 180.556 91.8109 182.089C90.5145 189.219 101.298 206.014 123.986 232.06C128.995 237.776 134.063 243.492 138.659 248.383L139.366 248.148C118.977 226.167 90.5734 192.931 92.3413 182.148Z" fill="#323A50"/>
<path d="M94.5805 175.371C94.4626 175.489 94.4037 175.606 94.2858 175.724L90.043 175.548C91.9876 175.371 93.6376 175.312 94.5805 175.371Z" fill="#323A50"/>
<path d="M93.4609 177.433L82.5591 176.962C82.9716 176.844 83.3841 176.726 83.8555 176.608L93.5787 177.021C93.5198 177.139 93.4609 177.257 93.4609 177.433Z" fill="#323A50"/>
<path d="M93.0483 179.083L78.6108 178.494C78.8466 178.376 79.1412 178.258 79.4358 178.141L93.2251 178.671C93.2251 178.73 93.2251 178.789 93.2251 178.848C93.1073 178.907 93.1073 179.025 93.0483 179.083Z" fill="#323A50"/>
<path d="M92.341 180.792L75.7231 180.144C75.8999 180.026 76.1356 179.908 76.3124 179.731L92.4589 180.38C92.3999 180.498 92.3999 180.674 92.341 180.792Z" fill="#323A50"/>
<path d="M92.1644 182.384L73.7197 181.618C73.8376 181.5 74.0144 181.382 74.1911 181.205L92.1644 181.912C92.1644 182.089 92.1644 182.207 92.1644 182.384Z" fill="#323A50"/>
<path d="M92.1055 184.092L72.0698 183.267C72.1877 183.149 72.3055 183.031 72.4234 182.854L92.1055 183.621C92.1055 183.797 92.1055 183.974 92.1055 184.092Z" fill="#323A50"/>
<path d="M92.3413 185.448C92.4002 185.566 92.4002 185.683 92.4591 185.801L70.7734 184.917C70.8324 184.8 70.9502 184.682 71.0681 184.505L92.3413 185.389V185.448Z" fill="#323A50"/>
<path d="M92.8713 187.274C92.8713 187.333 92.9303 187.451 92.9303 187.51L69.7124 186.567C69.7713 186.449 69.8303 186.331 69.9481 186.154L92.8124 187.097C92.8713 187.156 92.8713 187.274 92.8713 187.274Z" fill="#323A50"/>
<path d="M93.5786 188.865L69.1821 187.863C69.1232 187.981 69.0643 188.099 69.0054 188.276L93.6964 189.278C93.6964 189.101 93.6375 188.983 93.5786 188.865Z" fill="#323A50"/>
<path d="M94.2857 190.633L68.5339 189.572C68.4749 189.69 68.4749 189.808 68.416 189.985L94.4624 191.045C94.4035 190.869 94.3446 190.751 94.2857 190.633Z" fill="#323A50"/>
<path d="M95.1109 192.342L68.1805 191.223C68.1805 191.341 68.1216 191.458 68.1216 191.635L95.3466 192.755C95.2876 192.578 95.1698 192.46 95.1109 192.342Z" fill="#323A50"/>
<path d="M96.0536 194.11L68.0625 192.99C68.0625 193.108 68.0625 193.226 68.0625 193.403L96.2893 194.522C96.1714 194.346 96.1125 194.228 96.0536 194.11Z" fill="#323A50"/>
<path d="M96.9373 195.701L68.1802 194.522C68.1802 194.64 68.2391 194.758 68.2391 194.935L97.173 196.114C97.1141 195.996 97.0552 195.819 96.9373 195.701Z" fill="#323A50"/>
<path d="M97.9981 197.469L68.5928 196.29C68.6517 196.408 68.6517 196.526 68.7106 196.703L98.2928 197.881C98.1749 197.763 98.0571 197.586 97.9981 197.469Z" fill="#323A50"/>
<path d="M99.0588 199.178L69.123 197.94C69.182 198.058 69.2409 198.235 69.2998 198.353L99.3534 199.59C99.2356 199.473 99.1766 199.355 99.0588 199.178Z" fill="#323A50"/>
<path d="M100.179 200.945L69.7715 199.708C69.8304 199.826 69.8894 200.003 69.9483 200.12L100.414 201.358C100.355 201.24 100.296 201.122 100.179 200.945Z" fill="#323A50"/>
<path d="M101.298 202.654L70.5962 201.417C70.6551 201.535 70.7141 201.712 70.8319 201.829L101.593 203.067C101.475 202.89 101.416 202.772 101.298 202.654Z" fill="#323A50"/>
<path d="M102.536 204.422L71.5981 203.185C71.6571 203.302 71.7749 203.479 71.8339 203.597L102.83 204.835C102.712 204.717 102.595 204.54 102.536 204.422Z" fill="#323A50"/>
<path d="M103.714 206.131L72.6001 204.894C72.659 205.011 72.7769 205.188 72.8358 205.306L104.009 206.544C103.95 206.426 103.832 206.308 103.714 206.131Z" fill="#323A50"/>
<path d="M105.011 207.958L73.7788 206.721C73.8967 206.839 73.9556 207.015 74.0735 207.133L105.365 208.371C105.188 208.194 105.129 208.076 105.011 207.958Z" fill="#323A50"/>
<path d="M106.19 209.549L74.8984 208.312C75.0163 208.429 75.0752 208.606 75.1931 208.724L106.543 209.962C106.425 209.844 106.307 209.726 106.19 209.549Z" fill="#323A50"/>
<path d="M107.545 211.318L76.1948 210.08C76.3127 210.198 76.3716 210.375 76.5484 210.493L107.898 211.73C107.781 211.612 107.663 211.494 107.545 211.318Z" fill="#323A50"/>
<path d="M108.841 213.085L77.5498 211.789C77.6677 211.907 77.7855 212.084 77.9034 212.202L109.194 213.439C109.077 213.38 108.959 213.203 108.841 213.085Z" fill="#323A50"/>
<path d="M110.255 214.853L78.9644 213.615C79.0822 213.733 79.2001 213.91 79.3179 214.028L110.55 215.265C110.491 215.147 110.373 214.971 110.255 214.853Z" fill="#323A50"/>
<path d="M111.611 216.62L80.4375 215.383C80.5554 215.501 80.6732 215.677 80.7911 215.795L111.905 217.033C111.846 216.915 111.729 216.738 111.611 216.62Z" fill="#323A50"/>
<path d="M113.025 218.389L81.9697 217.151C82.0876 217.269 82.2054 217.446 82.3233 217.564L113.32 218.801C113.261 218.684 113.143 218.566 113.025 218.389Z" fill="#323A50"/>
<path d="M114.439 220.156L83.5605 218.919C83.6784 219.037 83.7963 219.214 83.9731 219.331L114.793 220.569C114.675 220.392 114.557 220.274 114.439 220.156Z" fill="#323A50"/>
<path d="M115.795 221.807L85.0928 220.569C85.2106 220.687 85.3285 220.864 85.5053 220.982L116.148 222.219C116.03 222.101 115.912 221.984 115.795 221.807Z" fill="#323A50"/>
<path d="M117.15 223.456L86.6841 222.219C86.8019 222.337 86.9198 222.513 87.0966 222.631L117.504 223.869C117.386 223.751 117.268 223.574 117.15 223.456Z" fill="#323A50"/>
<path d="M118.623 225.224L88.3931 223.986C88.5109 224.104 88.6288 224.281 88.8056 224.399L118.977 225.636C118.859 225.518 118.741 225.401 118.623 225.224Z" fill="#323A50"/>
<path d="M120.096 226.992L90.1016 225.755C90.2194 225.873 90.3962 226.05 90.5141 226.167L120.45 227.346C120.332 227.287 120.214 227.11 120.096 226.992Z" fill="#323A50"/>
<path d="M121.57 228.76L91.8696 227.581C91.9875 227.699 92.1643 227.876 92.2821 227.994L121.864 229.172C121.805 229.054 121.687 228.936 121.57 228.76Z" fill="#323A50"/>
<path d="M122.984 230.41L93.5786 229.231C93.6965 229.349 93.8733 229.526 94.0501 229.644L123.338 230.822C123.22 230.705 123.102 230.587 122.984 230.41Z" fill="#323A50"/>
<path d="M124.398 232.06L95.3462 230.882C95.464 231 95.6408 231.176 95.8176 231.294L124.81 232.473C124.634 232.355 124.516 232.237 124.398 232.06Z" fill="#323A50"/>
<path d="M125.93 233.828L97.1733 232.649C97.2912 232.767 97.468 232.944 97.6448 233.062L126.284 234.24C126.166 234.123 126.048 234.005 125.93 233.828Z" fill="#323A50"/>
<path d="M127.462 235.596L99.1177 234.477C99.2945 234.594 99.4123 234.771 99.5891 234.889L127.875 236.009C127.698 235.891 127.58 235.773 127.462 235.596Z" fill="#323A50"/>
<path d="M129.054 237.422L101.062 236.303C101.239 236.421 101.357 236.597 101.534 236.715L129.407 237.835C129.289 237.658 129.171 237.54 129.054 237.422Z" fill="#323A50"/>
<path d="M130.644 239.19L103.066 238.07C103.243 238.188 103.361 238.365 103.537 238.483L130.998 239.602C130.88 239.485 130.762 239.367 130.644 239.19Z" fill="#323A50"/>
<path d="M132.118 240.84L104.893 239.721C105.07 239.839 105.247 240.015 105.364 240.133L132.472 241.253C132.354 241.135 132.236 240.958 132.118 240.84Z" fill="#323A50"/>
<path d="M133.709 242.609L106.956 241.548C107.132 241.666 107.309 241.842 107.427 241.96L134.063 243.021C133.945 242.903 133.827 242.785 133.709 242.609Z" fill="#323A50"/>
<path d="M135.3 244.376L108.959 243.315C109.136 243.433 109.313 243.61 109.43 243.728L135.654 244.789C135.536 244.671 135.418 244.553 135.3 244.376Z" fill="#323A50"/>
<path d="M136.891 246.203L111.021 245.143C111.198 245.26 111.375 245.437 111.493 245.555L137.245 246.616C137.127 246.439 137.009 246.321 136.891 246.203Z" fill="#323A50"/>
<path d="M138.364 247.853L112.907 246.792C113.084 246.91 113.261 247.087 113.379 247.204L138.718 248.206C138.659 248.088 138.482 247.971 138.364 247.853Z" fill="#323A50"/>
<path d="M137.893 249.385L114.852 248.442C115.028 248.56 115.205 248.737 115.382 248.855L136.891 249.739C137.244 249.621 137.598 249.503 137.893 249.385Z" fill="#323A50"/>
<path d="M133.355 250.917L116.973 250.269C117.15 250.386 117.327 250.563 117.503 250.681L132.236 251.27C132.648 251.211 133.002 251.035 133.355 250.917Z" fill="#323A50"/>
<path d="M128.7 252.45L119.154 252.037C119.331 252.155 119.507 252.332 119.684 252.45L127.581 252.803C127.934 252.685 128.347 252.568 128.7 252.45Z" fill="#323A50"/>
<path d="M124.045 253.981L121.334 253.863C121.511 253.981 121.688 254.158 121.864 254.276L122.984 254.335C123.396 254.217 123.691 254.099 124.045 253.981Z" fill="#323A50"/>
</g>
<defs>
<linearGradient id="paint0_linear_3618_19183" x1="269.914" y1="226.72" x2="68.6085" y2="79.4828" gradientUnits="userSpaceOnUse">
<stop offset="0.2655" stop-color="#032A3D" stop-opacity="0"/>
<stop offset="0.7809" stop-color="#032A3D"/>
</linearGradient>
<radialGradient id="paint1_radial_3618_19183" cx="0" cy="0" r="1" gradientUnits="userSpaceOnUse" gradientTransform="translate(165.017 219.028) scale(68.0812 67.7668)">
<stop offset="0.2655" stop-color="#032A3D" stop-opacity="0"/>
<stop offset="1" stop-color="#032A3D"/>
</radialGradient>
<linearGradient id="paint2_linear_3618_19183" x1="138.281" y1="111.475" x2="188.292" y2="307.794" gradientUnits="userSpaceOnUse">
<stop offset="0.4054" stop-color="#032A3D" stop-opacity="0"/>
<stop offset="1" stop-color="#032A3D"/>
</linearGradient>
<linearGradient id="paint3_linear_3618_19183" x1="102.213" y1="178.615" x2="233.756" y2="302.013" gradientUnits="userSpaceOnUse">
<stop offset="0.2655" stop-color="#032A3D" stop-opacity="0"/>
<stop offset="0.7809" stop-color="#032A3D"/>
</linearGradient>
<linearGradient id="paint4_linear_3618_19183" x1="109.415" y1="170.938" x2="240.958" y2="294.336" gradientUnits="userSpaceOnUse">
<stop offset="0.2655" stop-color="#032A3D" stop-opacity="0"/>
<stop offset="0.7809" stop-color="#032A3D"/>
</linearGradient>
<linearGradient id="paint5_linear_3618_19183" x1="106.878" y1="173.642" x2="238.422" y2="297.04" gradientUnits="userSpaceOnUse">
<stop offset="0.2655" stop-color="#032A3D" stop-opacity="0"/>
<stop offset="0.7809" stop-color="#032A3D"/>
</linearGradient>
<linearGradient id="paint6_linear_3618_19183" x1="81.8212" y1="200.354" x2="213.364" y2="323.752" gradientUnits="userSpaceOnUse">
<stop offset="0.2655" stop-color="#032A3D" stop-opacity="0"/>
<stop offset="0.7809" stop-color="#032A3D"/>
</linearGradient>
<linearGradient id="paint7_linear_3618_19183" x1="100.57" y1="180.367" x2="232.113" y2="303.765" gradientUnits="userSpaceOnUse">
<stop offset="0.2655" stop-color="#032A3D" stop-opacity="0"/>
<stop offset="0.7809" stop-color="#032A3D"/>
</linearGradient>
<linearGradient id="paint8_linear_3618_19183" x1="90.2363" y1="191.383" x2="221.779" y2="314.781" gradientUnits="userSpaceOnUse">
<stop offset="0.2655" stop-color="#032A3D" stop-opacity="0"/>
<stop offset="0.7809" stop-color="#032A3D"/>
</linearGradient>
<linearGradient id="paint9_linear_3618_19183" x1="71.6725" y1="211.171" x2="203.216" y2="334.569" gradientUnits="userSpaceOnUse">
<stop offset="0.2655" stop-color="#032A3D" stop-opacity="0"/>
<stop offset="0.7809" stop-color="#032A3D"/>
</linearGradient>
<linearGradient id="paint10_linear_3618_19183" x1="74.7523" y1="207.889" x2="206.295" y2="331.287" gradientUnits="userSpaceOnUse">
<stop offset="0.2655" stop-color="#032A3D" stop-opacity="0"/>
<stop offset="0.7809" stop-color="#032A3D"/>
</linearGradient>
<linearGradient id="paint11_linear_3618_19183" x1="85.0997" y1="196.858" x2="216.643" y2="320.256" gradientUnits="userSpaceOnUse">
<stop offset="0.2655" stop-color="#032A3D" stop-opacity="0"/>
<stop offset="0.7809" stop-color="#032A3D"/>
</linearGradient>
<linearGradient id="paint12_linear_3618_19183" x1="71.6443" y1="211.201" x2="203.188" y2="334.599" gradientUnits="userSpaceOnUse">
<stop offset="0.2655" stop-color="#032A3D" stop-opacity="0"/>
<stop offset="0.7809" stop-color="#032A3D"/>
</linearGradient>
<clipPath id="clip0_3618_19183">
<rect width="330" height="330" fill="white"/>
</clipPath>
</defs>
</svg>
