<svg width="330" height="330" viewBox="0 0 330 330" fill="none" xmlns="http://www.w3.org/2000/svg">
<g clip-path="url(#clip0_6392_36115)">
<path d="M166.417 300.592C161.975 300.592 157.457 300.209 153.015 299.52C148.65 298.907 141.91 297.375 137.315 295.384C121.539 289.487 108.06 279.148 98.3339 265.363C88.378 251.272 83.0938 234.653 83.0938 217.345C83.0938 205.321 85.621 193.681 90.599 182.806C95.3472 172.314 102.163 163.047 110.817 155.389C112.196 154.01 113.268 152.861 114.11 151.942C117.939 148.037 118.322 147.654 120.696 144.897C121.003 144.514 121.309 144.207 121.615 143.748C124.526 140.302 130.04 134.022 137.621 128.584C146.812 122.075 156.385 118.628 166.187 118.552H166.417C176.22 118.628 185.869 121.998 195.059 128.584C202.565 133.945 208.079 140.302 211.065 143.748C211.448 144.131 211.755 144.514 211.984 144.897C213.746 146.964 214.435 147.577 216.273 149.492C217.345 150.64 218.877 152.096 221.251 154.546C230.058 162.281 237.104 171.624 242.082 182.27C247.213 193.298 249.817 205.092 249.817 217.268C249.817 228.526 247.596 239.401 243.307 249.663C239.095 259.543 233.122 268.426 225.463 276.161C217.805 283.82 208.921 289.793 198.965 294.005C188.626 298.447 177.675 300.592 166.417 300.592ZM166.494 119.547H166.264C143.672 119.701 128.125 137.621 122.305 144.437C121.922 144.82 121.615 145.203 121.386 145.586C118.935 148.266 118.476 148.802 114.799 152.632C113.88 153.551 112.808 154.699 111.43 156.078C94.0452 171.701 84.0128 194.063 84.0128 217.422C84.0128 251.731 105.609 282.748 137.775 294.771C142.293 296.686 148.956 298.218 153.245 298.83C157.61 299.52 162.052 299.902 166.494 299.902C211.984 299.902 248.974 262.912 248.974 217.422C248.974 193.604 238.636 171.012 220.715 155.312C218.341 152.861 216.809 151.33 215.737 150.257C213.899 148.343 213.21 147.654 211.372 145.662C211.065 145.28 210.759 144.973 210.453 144.514C204.632 137.698 189.086 119.701 166.494 119.547Z" fill="#323A50"/>
<path opacity="0.2" d="M208.386 154.623C211.296 152.938 212.904 151.942 209.917 148.42C204.786 142.599 189.393 123.223 166.188 122.994H165.958C142.753 123.147 127.36 142.599 122.229 148.42C119.166 151.866 121.54 153.934 122.918 154.929C128.968 151.1 134.329 148.113 141.451 145.739C141.605 145.662 150.565 141.45 165.422 141.297C165.499 141.297 175.531 141.221 185.028 144.207C196.592 147.271 202.183 151.1 208.386 154.623Z" fill="url(#paint0_linear_6392_36115)"/>
<path opacity="0.2" d="M165.649 285.964C203.251 285.964 233.733 255.619 233.733 218.187C233.733 180.755 203.251 150.411 165.649 150.411C128.048 150.411 97.5664 180.755 97.5664 218.187C97.5664 255.619 128.048 285.964 165.649 285.964Z" fill="url(#paint1_radial_6392_36115)"/>
<path opacity="0.34" d="M237.104 186.558C237.027 186.405 236.951 186.175 236.874 186.099C236.644 186.558 236.185 187.018 235.725 187.324C234.347 188.167 232.126 187.707 231.437 186.175C231.054 185.333 230.594 184.567 230.058 183.801C229.828 183.418 229.522 183.035 229.216 182.653C229.063 182.499 229.063 182.499 229.216 182.653C229.139 182.576 229.063 182.499 229.063 182.423C228.909 182.27 228.756 182.04 228.68 181.887C227.454 180.508 225.999 179.053 224.774 178.211C224.008 177.675 223.242 177.215 222.4 176.832C222.17 176.679 221.94 176.602 221.711 176.449C221.634 176.449 221.634 176.449 221.634 176.373C221.251 176.219 220.792 176.066 220.332 175.99C219.873 175.913 219.413 175.76 218.954 175.607L218.264 175.454C218.111 175.454 217.958 175.377 217.805 175.377C216.656 175.224 215.584 175.224 214.512 175.224C210.453 175.377 206.93 175.99 203.024 176.449C198.812 176.985 194.753 177.292 190.541 177.598C182.346 178.211 174.229 179.206 165.957 179.283C161.975 179.359 157.916 178.594 153.934 177.904C149.951 177.215 146.352 176.679 142.599 176.219C134.635 175.3 126.593 174.841 118.629 175.53C116.944 175.683 115.718 174.228 115.489 172.773C115.412 172.773 115.336 172.773 115.336 172.85C114.876 173.003 114.417 173.08 113.957 173.233C113.727 173.309 113.497 173.386 113.191 173.462C113.038 173.539 113.038 173.539 112.961 173.616C111.047 174.458 109.209 175.53 107.601 176.832C107.524 176.909 107.218 177.215 107.141 177.215C106.911 177.368 106.682 177.598 106.452 177.828C106.069 178.211 105.686 178.517 105.303 178.9C104.537 179.666 103.771 180.508 103.082 181.351C103.006 181.427 103.005 181.504 102.929 181.504L102.852 181.58C102.699 181.81 102.469 181.963 102.393 182.27C102.163 182.653 101.857 183.035 101.627 183.418C101.397 183.801 101.167 184.184 100.938 184.567C100.861 184.72 100.555 185.486 100.861 184.72C100.785 184.95 100.708 185.103 100.631 185.41C100.019 187.094 98.4871 188.013 96.7256 187.63C96.113 187.477 95.5769 187.171 95.1939 186.711C95.1174 186.865 95.2705 186.941 95.1939 187.094C91.2882 196.361 88.9141 206.547 88.9141 217.268C88.9141 259.926 123.53 294.542 166.187 294.542C208.844 294.542 243.46 259.926 243.46 217.268C243.384 206.24 241.086 195.902 237.104 186.558Z" fill="url(#paint2_linear_6392_36115)"/>
<g opacity="0.2">
<path d="M226.533 245.911L226.074 245.834C225.767 248.208 218.875 251.425 217.42 251.654C216.807 251.808 216.501 251.578 216.118 251.501C215.582 251.348 215.122 251.118 214.203 251.654C212.672 252.573 207.387 258.394 206.162 261.227C205.013 264.138 204.247 265.669 201.567 266.741C200.112 267.354 197.814 267.354 195.517 267.354C193.296 267.354 191.075 267.354 189.39 267.814C186.786 268.503 184.336 269.728 183.11 270.264C183.799 269.575 184.336 268.809 184.948 268.12C186.02 266.895 186.939 265.746 187.552 265.363C188.318 264.75 191.075 264.444 194.062 264.214C198.044 263.831 202.563 263.295 203.941 261.993C205.549 260.462 207.77 254.871 209.532 250.353C210.451 247.902 211.293 245.911 211.829 245.068C212.365 244.149 213.82 243.154 215.429 242.158C218.109 240.397 221.172 238.329 221.172 235.878H220.713C220.789 238.099 217.803 240.09 215.199 241.775C213.514 242.924 211.982 243.919 211.446 244.915C210.91 245.834 210.068 247.825 209.149 250.276C207.387 254.718 205.166 260.308 203.635 261.764C203.099 262.223 202.026 262.683 200.725 262.912C201.644 262.453 202.639 261.764 203.328 260.768C204.63 259.083 205.779 255.254 206.239 253.11C206.392 252.727 206.392 252.42 206.468 252.191C206.621 251.501 206.392 251.118 206.162 250.735C205.856 250.276 205.549 249.816 205.779 248.591C206.009 247.289 206.698 246.753 207.54 246.217C208.077 245.834 208.613 245.451 208.996 244.838C209.991 243.23 209.378 241.622 209.072 240.78V240.703C208.842 240.09 208.306 240.167 207.923 240.167C207.54 240.243 207.234 240.243 207.158 240.014C207.004 239.784 207.311 239.324 207.694 238.865C208.153 238.176 208.766 237.333 208.383 236.644L208 236.797C208.23 237.333 207.77 237.946 207.311 238.559C206.851 239.248 206.392 239.784 206.775 240.243C207.081 240.78 207.617 240.703 208 240.626C208.383 240.55 208.613 240.55 208.689 240.78V240.856C209.072 241.775 209.608 243.154 208.689 244.532C208.306 245.068 207.847 245.451 207.311 245.834C206.468 246.447 205.626 246.983 205.396 248.515C205.166 249.893 205.549 250.429 205.856 250.965C206.085 251.348 206.239 251.578 206.085 252.037C206.009 252.191 205.932 252.573 205.856 252.956C205.32 254.871 204.171 258.853 202.945 260.462C201.567 262.223 199.04 263.142 198.886 263.219C197.355 263.448 195.593 263.602 193.985 263.831C190.845 264.214 188.165 264.521 187.246 265.057C186.556 265.516 185.637 266.665 184.565 267.967C182.421 270.494 179.511 273.94 177.52 273.787C176.447 273.711 175.299 273.481 174.15 273.251C171.699 272.792 169.019 272.179 166.109 272.715C160.058 273.864 157.991 275.013 156.765 276.468C155.617 277.846 155.004 279.608 155.004 279.684L155.387 279.837C155.387 279.837 156 278.076 157.072 276.774C158.22 275.395 160.212 274.323 166.109 273.175C168.942 272.638 171.623 273.175 173.997 273.711C175.222 273.94 176.371 274.17 177.443 274.323C178.975 274.476 180.736 272.945 182.421 271.107L182.498 271.26C182.574 271.26 185.867 269.345 189.39 268.426C191.075 267.967 193.296 267.967 195.44 267.967C197.891 267.967 200.112 267.967 201.643 267.354C204.554 266.205 205.396 264.521 206.545 261.61C207.694 258.93 212.901 253.11 214.356 252.267C215.046 251.808 215.429 251.961 215.888 252.114C216.271 252.267 216.807 252.497 217.496 252.344C219.105 251.884 226.227 248.591 226.533 245.911Z" fill="url(#paint3_linear_6392_36115)"/>
<path d="M170.705 256.862C169.94 257.705 170.016 259.083 170.169 260.691C170.323 262.223 170.476 263.908 169.786 265.363C168.408 268.12 162.358 270.341 162.281 270.341L162.434 270.801C162.664 270.724 168.714 268.58 170.169 265.593C170.859 264.061 170.782 262.223 170.629 260.615C170.476 259.16 170.399 257.858 171.012 257.169C171.701 256.479 174.228 255.867 176.526 255.407C179.13 254.794 181.351 254.258 181.887 253.569C182.423 252.88 182.576 252.191 182.576 251.655C182.729 250.965 182.729 250.506 183.342 250.123C183.648 249.97 185.18 249.97 186.788 250.123C191.307 250.353 198.199 250.812 200.65 247.366C202.564 244.685 201.952 242.694 201.339 240.933C200.88 239.554 200.42 238.252 201.339 236.874C202.028 235.725 203.254 235.342 204.556 234.883C207.236 233.964 210.529 232.968 212.597 226.152C213.056 224.544 212.827 222.936 212.597 221.327C212.214 219.183 211.908 217.268 213.21 215.354L212.827 215.124C211.448 217.115 211.831 219.336 212.137 221.404C212.367 223.012 212.597 224.544 212.137 225.999C210.07 232.585 206.93 233.581 204.402 234.423C202.947 234.883 201.722 235.342 200.956 236.644C200.037 238.329 200.497 239.784 200.956 241.086C201.569 242.771 202.105 244.532 200.267 247.136C197.969 250.353 190.924 249.893 186.788 249.74C185.18 249.663 184.108 249.587 183.572 249.663C183.801 248.974 183.954 248.055 184.184 247.06C184.491 245.298 184.874 243.23 185.869 242.082C186.405 241.545 187.094 241.316 188.09 241.009C190.388 240.32 193.604 239.401 196.131 232.891V232.815C196.591 230.594 196.055 228.986 195.519 228.067C195.289 227.684 194.829 227.377 194.37 227.148C193.834 226.918 193.221 226.612 192.762 225.922C191.919 224.697 191.613 217.804 191.843 216.426C191.843 216.273 191.919 216.273 191.919 216.273C191.996 216.196 192.302 216.349 192.532 216.426C193.221 216.656 194.446 217.115 195.978 216.043L195.748 215.66C194.446 216.579 193.451 216.273 192.762 215.966C192.379 215.813 192.072 215.737 191.843 215.813C191.689 215.89 191.613 216.043 191.536 216.273C191.307 217.575 191.536 224.62 192.455 226.076C192.991 226.841 193.681 227.224 194.217 227.454C194.6 227.607 194.983 227.837 195.136 228.143C195.595 229.062 196.131 230.441 195.672 232.585C193.221 238.865 190.158 239.784 187.937 240.397C186.941 240.703 186.099 240.933 185.486 241.545C184.337 242.771 184.031 244.839 183.648 246.753C183.495 247.979 183.265 249.127 182.882 249.663C182.193 250.123 182.116 250.812 181.963 251.425C181.81 252.037 181.81 252.574 181.274 253.186C180.815 253.875 178.364 254.335 176.143 254.871C173.845 255.56 171.471 256.096 170.705 256.862Z" fill="url(#paint4_linear_6392_36115)"/>
<path d="M171.395 210.146C172.007 210.835 172.467 211.295 172.16 212.673C172.007 213.592 171.471 214.971 170.858 216.426C169.863 219.03 168.867 221.634 169.327 222.859C169.557 223.472 169.939 223.855 170.246 224.238C170.935 225.157 171.777 225.999 171.395 228.679C171.012 230.824 169.939 232.432 169.02 233.811C168.255 234.959 167.565 236.031 167.642 237.027C167.719 237.793 168.101 238.329 168.561 238.788C169.25 239.707 170.016 240.626 169.02 243.001C168.255 244.839 167.182 245.298 166.34 245.681C165.421 246.064 164.655 246.447 164.885 248.208C165.191 250.046 166.34 251.272 167.489 252.42C168.331 253.263 169.174 254.105 169.71 255.254L170.093 255.101C169.48 253.952 168.638 252.957 167.795 252.191C166.646 251.042 165.574 249.97 165.344 248.208C165.115 246.83 165.574 246.6 166.493 246.217C167.412 245.834 168.638 245.298 169.403 243.307C170.552 240.627 169.633 239.554 168.791 238.635C168.408 238.099 168.025 237.716 167.948 237.104C167.872 236.338 168.484 235.419 169.25 234.27C170.169 232.892 171.395 231.207 171.701 228.986C172.16 226.076 171.318 225.08 170.552 224.238C170.169 223.855 169.863 223.472 169.633 222.936C169.25 221.863 170.322 219.183 171.165 216.886C171.777 215.43 172.314 214.052 172.467 213.056C172.85 211.371 172.237 210.759 171.548 210.146C171.165 209.687 170.629 209.227 170.476 208.308L170.016 208.461C170.399 209.151 170.935 209.687 171.395 210.146Z" fill="url(#paint5_linear_6392_36115)"/>
<path d="M173.768 274.094C172.16 273.328 168.178 272.945 165.727 273.404C163.353 273.787 159.217 274.783 157.609 276.544C156.69 277.54 155.848 279.454 155.848 279.608L156.231 279.761C156.231 279.761 157.15 277.846 157.915 276.851C159.524 275.166 163.966 274.17 165.804 273.94C168.484 273.481 172.237 273.94 173.615 274.63C175.07 275.319 175.606 276.391 175.683 276.927C175.836 278.612 173.156 280.067 173.156 280.067L173.309 280.45C173.462 280.373 176.372 278.765 176.066 276.851C175.989 276.008 175.3 274.859 173.768 274.094Z" fill="url(#paint6_linear_6392_36115)"/>
<path d="M174.915 245.528C175.758 245.911 176.6 246.217 177.136 246.906C177.826 247.825 179.051 250.123 177.289 252.114C176.6 252.957 174.839 253.569 173.077 254.258C171.392 254.871 169.784 255.407 169.325 256.25C168.789 257.092 168.865 258.471 168.942 260.155C169.095 261.611 169.095 263.142 168.789 264.368C168.099 266.818 162.049 269.728 161.973 269.728L162.126 270.111C162.356 269.958 168.482 267.125 169.248 264.444C169.631 263.142 169.478 261.534 169.401 260.079C169.248 258.547 169.248 257.169 169.631 256.479C170.014 255.79 171.622 255.254 173.154 254.718C174.915 254.029 176.753 253.416 177.519 252.497C178.898 250.889 178.821 248.744 177.366 246.753C176.753 245.834 175.834 245.528 174.992 245.145C174.149 244.762 173.307 244.456 173.001 243.766C172.311 242.235 172.848 240.55 173.767 239.861C173.996 239.708 174.303 239.554 174.532 239.401C175.451 238.865 176.217 238.406 177.289 237.18C178.668 235.649 181.348 229.369 181.808 226.382C182.114 224.62 181.655 223.778 181.119 222.936C180.736 222.246 180.276 221.634 180.2 220.332L179.74 220.408C179.893 221.787 180.353 222.553 180.736 223.165C181.195 223.931 181.655 224.62 181.425 226.229C180.965 229.139 178.362 235.342 176.983 236.797C175.988 237.946 175.069 238.406 174.303 238.942C174.073 239.095 173.767 239.248 173.537 239.401C172.388 240.09 171.775 242.082 172.618 243.843C173.154 244.839 174.073 245.145 174.915 245.528Z" fill="url(#paint7_linear_6392_36115)"/>
</g>
<g opacity="0.2">
<path d="M154.773 272.332C154.62 271.107 153.165 270.111 151.71 269.116C150.561 268.35 148.876 267.431 147.421 266.512C146.119 265.823 144.971 265.134 144.511 264.827C144.358 264.751 144.281 264.597 144.128 264.444C143.439 263.295 142.903 260.538 142.98 258.394C143.056 257.169 142.903 256.173 142.826 255.484C142.673 254.642 142.673 254.105 142.903 253.569C143.056 253.186 143.362 253.11 143.822 253.033C144.281 252.957 144.971 252.88 145.2 252.114C145.43 251.425 145.354 250.736 145.277 250.046C145.124 249.357 145.124 248.745 145.43 248.285C145.737 247.902 146.043 247.749 146.426 247.596C146.809 247.443 147.345 247.213 147.728 246.677C148.111 246.141 147.575 245.451 147.038 244.532C146.119 243.307 144.971 241.546 145.43 239.401C145.966 237.104 146.656 237.18 147.651 237.334C148.111 237.41 148.723 237.487 149.259 237.257C150.178 236.874 151.097 234.806 151.94 232.739C152.629 231.054 153.318 229.369 154.008 228.909C154.697 228.373 155.31 228.22 155.922 228.143C156.535 228.067 157.071 227.99 157.454 227.378C157.99 226.688 157.684 225.846 157.454 225.08C157.301 224.621 157.148 224.161 157.301 223.931L156.918 223.702C156.765 224.085 156.841 224.621 157.071 225.233C157.224 225.923 157.454 226.688 157.148 227.148C156.765 227.531 156.458 227.607 155.846 227.761C155.233 227.914 154.544 227.99 153.778 228.603C153.089 229.139 152.399 230.824 151.557 232.662C150.791 234.577 149.872 236.644 149.106 236.951C148.647 237.104 148.187 237.104 147.728 237.027C146.656 236.874 145.583 236.721 144.971 239.478C144.435 241.852 145.66 243.69 146.656 244.992C147.115 245.681 147.575 246.294 147.345 246.6C147.038 247.06 146.656 247.213 146.273 247.366C145.89 247.519 145.43 247.672 145.124 248.208C144.741 248.821 144.818 249.587 144.971 250.276C145.124 250.965 145.124 251.578 144.971 252.114C144.818 252.65 144.358 252.727 143.899 252.804C143.439 252.88 142.903 252.957 142.597 253.646C142.367 254.335 142.443 254.948 142.52 255.867C142.673 256.633 142.673 257.552 142.673 258.777C142.52 260.156 142.75 261.764 143.056 263.219C142.061 261.534 140.759 259.007 140.529 256.556C140.376 254.412 140.759 253.723 141.295 252.574C141.831 251.502 142.443 250.2 142.98 247.289C143.669 243.077 141.831 239.248 140.682 237.18C140.835 236.797 141.601 233.964 143.822 233.198L144.971 232.815C147.038 232.126 148.876 231.437 149.796 230.901C151.021 230.211 152.016 228.144 152.246 226.842C152.399 226.076 152.016 225.616 151.634 225.157C151.327 224.774 151.021 224.391 151.021 223.778C151.097 223.242 151.863 222.706 152.706 222.093C153.931 221.174 155.539 220.179 156.152 218.417C156.918 216.273 156.152 215.354 155.463 214.512C155.08 214.129 154.773 213.746 154.697 213.21L154.314 213.363C154.467 213.975 154.85 214.435 155.233 214.818C155.922 215.66 156.458 216.426 155.846 218.264C155.233 219.872 153.701 220.868 152.553 221.71C151.48 222.4 150.715 222.936 150.638 223.702C150.561 224.544 151.021 225.004 151.327 225.386C151.71 225.769 151.94 226.076 151.787 226.688C151.557 228.067 150.561 229.905 149.566 230.441C148.647 230.901 146.732 231.59 144.741 232.279L143.592 232.662C141.601 233.351 140.682 235.572 140.299 236.568C139.916 235.955 139.61 235.649 139.61 235.572C139.533 235.496 135.398 231.666 133.483 228.833C131.569 225.923 131.645 223.472 132.641 222.553C133.177 222.093 134.249 222.017 135.551 221.94C136.7 221.864 138.002 221.787 139.227 221.404C140.988 220.715 142.29 218.188 142.597 217.422C143.133 216.273 143.592 214.741 143.286 214.052C142.826 212.75 140.835 212.367 140.759 212.291L140.682 212.75C140.682 212.75 142.52 213.133 142.903 214.205C143.056 214.588 142.826 215.737 142.214 217.192C141.524 218.647 140.376 220.409 139.074 220.945C137.925 221.328 136.7 221.404 135.627 221.481C134.326 221.557 133.177 221.634 132.488 222.17C131.339 223.089 131.109 225.693 133.253 228.986C135.091 231.896 139.15 235.572 139.457 235.802C139.686 236.108 143.669 241.239 142.673 246.907C142.214 249.74 141.524 251.042 140.988 252.038C140.835 252.267 140.759 252.497 140.605 252.727C140.069 251.348 140.146 250.506 140.223 249.817C140.299 248.898 140.223 248.362 138.921 247.519C137.236 246.447 133.943 246.294 131.722 246.141C130.803 246.064 130.037 245.988 129.731 245.988C128.352 245.605 127.663 245.069 127.28 243.767C126.973 242.771 127.203 242.465 127.663 241.929C127.816 241.775 127.893 241.622 128.046 241.469C128.199 241.239 128.582 241.01 128.965 240.78C129.807 240.32 130.879 239.631 130.803 238.023C130.726 236.644 129.807 236.108 128.888 235.572C128.199 235.189 127.586 234.883 127.127 234.194C125.901 232.509 124.446 227.761 124.216 225.157C123.91 222.247 124.446 216.809 124.906 216.426C125.059 216.35 125.825 216.732 126.437 217.039C127.586 217.575 128.965 218.188 129.884 217.958C130.037 217.881 130.19 217.881 130.343 217.805C131.569 217.498 131.722 217.422 131.645 216.12C131.569 215.201 130.956 215.124 130.42 215.048C130.037 214.971 129.731 214.894 129.501 214.665C129.041 214.052 129.194 211.831 129.271 210.989L128.812 210.912C128.735 211.295 128.429 214.052 129.118 214.894C129.501 215.277 129.96 215.354 130.343 215.431C130.956 215.584 131.262 215.584 131.262 216.12C131.339 216.579 131.339 216.809 131.186 216.962C131.032 217.115 130.803 217.115 130.267 217.269C130.113 217.345 129.96 217.345 129.807 217.422C128.965 217.575 127.663 217.039 126.591 216.503C125.595 216.043 125.059 215.813 124.676 215.89C123.757 216.273 123.451 222.859 123.604 225.08C123.834 227.761 125.289 232.662 126.667 234.347C127.203 235.036 127.969 235.496 128.582 235.802C129.501 236.261 130.267 236.721 130.267 237.87C130.343 239.248 129.501 239.708 128.582 240.244C128.199 240.474 127.816 240.703 127.586 241.01C127.433 241.163 127.356 241.392 127.203 241.469C126.744 242.005 126.361 242.465 126.744 243.69C127.127 245.069 127.969 245.834 129.501 246.141C129.807 246.217 130.19 246.294 130.803 246.294C130.42 246.524 130.113 246.524 129.654 246.524C129.271 246.524 128.735 246.447 128.275 246.83C127.51 247.366 127.969 248.208 128.352 248.898C128.505 249.204 128.658 249.51 128.658 249.664C128.658 249.817 128.582 249.893 128.505 250.046C128.275 250.2 127.816 250.276 127.127 250.2C126.437 250.046 125.442 249.051 124.829 248.362C124.599 248.132 124.446 247.902 124.293 247.826C124.063 247.672 123.68 247.672 123.374 247.672C122.991 247.749 122.608 247.749 122.225 247.519C122.072 247.366 121.842 247.136 121.842 246.83C121.766 246.294 121.996 245.681 122.225 245.528C122.302 245.451 122.455 245.451 122.685 245.451C122.991 245.451 123.374 245.451 123.604 245.222C124.063 244.839 124.293 244.15 124.216 243.154C124.14 242.541 123.68 242.541 123.297 242.541C122.838 242.541 122.302 242.465 122.072 241.852C121.919 241.392 122.149 240.933 122.455 240.32C122.991 239.401 123.604 238.253 122.685 236.644C121.613 234.653 120.464 234.883 119.545 235.036C119.239 235.113 118.932 235.189 118.779 235.113C118.626 235.036 118.473 234.959 118.473 234.883C118.396 234.73 118.549 234.5 118.626 234.5L118.243 234.27C118.243 234.347 117.937 234.653 118.09 235.113C118.166 235.342 118.32 235.572 118.702 235.725C119.009 235.878 119.392 235.802 119.698 235.725C120.464 235.572 121.383 235.342 122.378 237.104C123.144 238.482 122.608 239.478 122.149 240.32C121.766 241.01 121.459 241.546 121.689 242.235C122.072 243.154 122.838 243.231 123.374 243.231C123.834 243.231 123.91 243.307 123.91 243.384C123.987 244.226 123.834 244.762 123.527 245.069C123.374 245.222 123.144 245.222 122.838 245.222C122.532 245.222 122.225 245.222 121.996 245.451C121.766 245.681 121.459 246.447 121.613 247.136C121.689 247.519 121.842 247.902 122.149 248.132C122.685 248.515 123.221 248.515 123.604 248.438C123.91 248.438 124.063 248.362 124.216 248.515C124.37 248.591 124.446 248.821 124.676 249.051C125.365 249.74 126.361 250.965 127.203 251.042C127.203 251.042 127.203 251.042 127.28 251.042C128.046 251.195 128.658 251.042 128.965 250.736C129.118 250.583 129.271 250.353 129.348 250.046C129.348 249.74 129.194 249.434 128.965 249.051C128.582 248.362 128.352 247.902 128.812 247.596C129.194 247.366 129.501 247.366 129.884 247.366C130.42 247.366 131.032 247.443 131.569 246.677C131.645 246.677 131.722 246.677 131.722 246.677C133.866 246.83 137.083 247.06 138.767 247.979C139.916 248.668 139.916 249.051 139.84 249.893C139.763 250.659 139.686 251.655 140.529 253.416C140.299 254.105 140.146 254.948 140.299 256.326C140.605 260.462 143.745 264.597 144.052 264.904C144.205 265.057 144.358 265.287 144.435 265.363C144.894 265.746 146.119 266.359 147.345 267.125C148.8 267.967 150.561 268.886 151.634 269.652C152.935 270.571 154.314 271.567 154.467 272.562C154.544 273.022 154.391 273.558 153.931 274.094C152.323 276.238 150.408 283.514 150.332 283.82L150.791 283.897C150.868 283.437 152.859 276.315 154.237 274.4C154.697 273.558 154.927 272.945 154.773 272.332Z" fill="url(#paint8_linear_6392_36115)"/>
<path d="M151.636 274.17C150.947 271.95 147.73 269.499 146.658 268.886C144.36 267.508 139.076 267.201 136.702 267.737C135.553 267.967 134.788 268.35 134.098 268.656C133.332 269.039 132.72 269.346 131.801 269.346C129.963 269.346 128.967 269.575 128.048 270.265C127.895 270.418 127.818 270.571 127.818 270.648C127.818 271.031 128.201 271.337 128.508 271.72C128.814 271.95 129.197 272.409 129.197 272.639C129.197 272.792 129.044 272.792 128.967 272.869C127.818 273.558 126.823 272.639 126.746 272.562L126.363 272.945C126.363 272.945 127.512 274.094 129.044 273.328C129.35 273.175 129.427 272.945 129.503 272.715C129.58 272.256 129.12 271.796 128.737 271.49C128.508 271.26 128.125 270.954 128.125 270.801L128.201 270.724C128.967 270.112 129.886 269.958 131.648 269.958C132.643 269.958 133.332 269.575 134.175 269.193C134.864 268.81 135.553 268.503 136.626 268.274C138.923 267.814 144.131 268.12 146.275 269.422C147.577 270.188 150.487 272.486 151.023 274.477C151.176 275.013 150.87 276.008 150.564 276.698C148.802 280.833 148.19 283.743 148.19 283.82L148.573 283.897C148.573 283.897 149.185 280.986 150.947 276.851C151.406 276.238 151.866 275.013 151.636 274.17Z" fill="url(#paint9_linear_6392_36115)"/>
<path d="M152.708 273.864C152.554 273.022 151.789 272.179 151.482 271.796C151.406 271.72 151.406 271.72 151.406 271.72C149.721 269.805 147.347 267.891 145.738 267.278C145.279 267.125 144.743 266.972 144.054 266.895C141.45 265.67 138.999 265.21 136.548 264.674C135.246 264.444 133.868 264.138 132.566 263.755C128.967 262.683 122.916 256.709 122.687 256.48C122.534 256.25 118.398 251.042 118.015 249.204C117.862 248.438 116.943 244.532 116.56 243.46C116.177 242.541 111.046 240.78 109.974 240.474C107.447 240.32 103.77 240.091 103.464 239.861C103.081 239.555 102.545 238.176 102.698 237.563C102.698 237.334 103.005 237.18 103.311 236.951C103.77 236.644 104.307 236.261 104.46 235.572C104.536 235.036 104.153 233.428 103.541 230.901C102.928 228.45 102.162 225.233 102.392 224.621C102.545 224.085 102.928 224.008 103.311 223.931C103.694 223.855 104 223.778 104.153 223.242C104.23 223.089 104.077 222.859 104 222.859C103.77 222.629 103.234 222.629 102.545 222.706C101.856 222.783 100.86 222.859 100.554 222.476L100.324 222.859C100.86 223.319 101.779 223.242 102.622 223.242C103.005 223.242 103.617 223.166 103.77 223.319C103.694 223.548 103.617 223.548 103.311 223.702C102.928 223.855 102.392 223.931 102.162 224.697C101.932 225.387 102.469 227.684 103.311 231.207C103.77 233.198 104.307 235.189 104.23 235.649C104.153 236.185 103.694 236.491 103.311 236.798C102.928 237.027 102.545 237.334 102.469 237.717C102.315 238.406 102.851 240.091 103.464 240.474C103.924 240.856 108.672 241.086 110.204 241.163C113.114 242.082 116.254 243.384 116.483 243.843C116.866 244.686 117.479 247.289 117.939 249.51C118.321 251.425 122.534 256.709 122.687 256.939C122.916 257.169 129.043 263.296 132.796 264.444C134.174 264.827 135.476 265.134 136.778 265.363C138.693 265.746 140.684 266.129 142.752 266.895C141.603 266.742 140.378 266.742 139.305 266.589C138.31 266.512 137.391 266.435 136.625 266.359C131.034 265.746 127.894 264.904 125.903 263.449C123.606 261.84 116.79 255.867 116.177 255.178C115.871 254.795 115.794 254.335 115.564 253.799C115.411 253.416 115.335 252.88 115.105 252.421C114.186 250.506 110.969 248.438 108.595 246.907C107.37 246.141 106.298 245.451 106.068 245.069C105.685 244.532 105.838 244.15 105.991 243.69C106.145 243.307 106.298 243.001 106.298 242.541H105.838C105.838 242.924 105.685 243.231 105.609 243.537C105.379 244.073 105.226 244.532 105.685 245.298C105.991 245.681 106.987 246.37 108.366 247.213C110.663 248.668 113.88 250.736 114.645 252.574C114.875 253.033 115.028 253.493 115.105 253.952C115.258 254.565 115.411 255.024 115.794 255.484C116.407 256.173 123.299 262.223 125.597 263.908C127.741 265.363 130.805 266.282 136.548 266.818C137.238 266.895 138.233 266.972 139.229 267.048C141.68 267.201 144.513 267.431 145.892 267.967C147.423 268.503 149.797 270.341 151.406 272.256C151.406 272.256 151.482 272.332 151.482 272.409C151.712 272.715 152.554 273.558 152.631 274.247C152.708 274.936 152.248 276.162 151.635 277.923C151.023 279.608 150.257 281.676 149.644 284.126L150.027 284.28C150.716 281.829 151.406 279.838 152.018 278.153C152.325 275.855 152.861 274.63 152.708 273.864Z" fill="url(#paint10_linear_6392_36115)"/>
<path d="M105.532 210.912C105.456 211.295 105.149 211.831 104.69 212.367C104 213.516 103.081 214.741 103.618 215.66C103.924 216.196 104.613 216.656 105.456 217.269C106.987 218.264 108.902 219.566 109.668 221.94C110.893 225.693 114.109 232.279 114.109 232.356V232.432C114.186 232.509 118.015 237.717 116.713 242.771L117.096 242.924C118.475 237.717 114.799 232.585 114.416 232.202C114.416 232.126 114.263 231.973 114.186 231.743C114.722 231.59 115.871 231.283 116.713 230.211C117.326 229.445 117.556 228.45 117.403 227.225C117.173 225.157 116.177 223.242 115.258 221.557C114.492 220.102 113.88 218.877 113.956 217.881C114.033 217.115 114.492 216.962 115.105 216.733C115.794 216.579 116.713 216.273 116.867 214.741C117.02 213.056 115.948 212.367 114.952 211.831C114.263 211.372 113.803 211.065 113.803 210.529C113.956 209.074 116.024 207.006 116.024 207.006L115.718 206.623C115.641 206.7 113.497 208.844 113.344 210.453C113.267 211.295 114.033 211.755 114.722 212.137C115.641 212.674 116.56 213.286 116.407 214.588C116.254 215.814 115.641 215.967 114.952 216.196C114.263 216.35 113.573 216.579 113.497 217.652C113.42 218.724 114.109 220.026 114.875 221.557C115.794 223.242 116.713 225.08 116.943 227.071C117.096 228.144 116.867 229.063 116.33 229.752C115.565 230.747 114.416 231.054 113.956 231.13C113.037 229.216 110.97 224.544 109.974 221.71C109.132 219.26 107.064 217.805 105.532 216.809C104.766 216.273 104.077 215.814 103.847 215.431C103.464 214.741 104.23 213.593 104.843 212.597C105.302 211.908 105.685 211.372 105.762 210.912C105.838 210.223 105.226 209.304 104.46 208.232C103.771 207.236 103.081 206.087 102.928 205.322L102.469 205.398C102.622 206.317 103.388 207.466 104.077 208.538C104.919 209.534 105.609 210.529 105.532 210.912Z" fill="url(#paint11_linear_6392_36115)"/>
<path d="M150.027 275.702C149.491 274.477 147.882 273.481 146.81 272.792C146.351 272.486 145.968 272.256 145.815 272.103C145.661 271.949 145.661 271.72 145.585 271.567C145.432 271.03 145.278 270.571 144.206 270.111C142.521 269.422 138.386 269.039 137.007 269.958C136.471 270.341 136.395 270.724 136.395 271.107C136.548 272.026 137.62 272.868 138.692 273.251C139.382 273.481 139.458 274.247 139.535 275.013C139.611 275.702 139.688 276.315 140.147 276.698C140.53 276.927 140.607 277.157 140.53 277.387C140.454 277.617 140.071 277.923 139.152 278.076C137.85 278.229 135.859 277.693 135.782 277.693L135.629 278.153C135.705 278.153 137.773 278.689 139.075 278.536C140.071 278.382 140.76 278.076 140.837 277.54C140.99 277.157 140.683 276.698 140.224 276.391C139.841 276.162 139.841 275.625 139.841 275.013C139.764 274.247 139.688 273.175 138.692 272.868C137.62 272.486 136.778 271.72 136.701 271.107C136.701 270.877 136.854 270.648 137.084 270.418C138.233 269.729 142.062 269.958 143.823 270.648C144.819 271.03 144.896 271.413 144.972 271.796C145.049 272.026 145.125 272.332 145.355 272.562C145.508 272.715 145.968 273.022 146.427 273.328C147.499 274.017 149.031 275.013 149.567 276.085C149.95 276.851 149.491 277.693 148.955 278.842C148.495 279.991 147.806 281.293 147.576 283.207L148.035 283.284C148.265 281.522 148.955 280.144 149.414 279.072C150.027 277.617 150.486 276.698 150.027 275.702Z" fill="url(#paint12_linear_6392_36115)"/>
</g>
<path d="M165.114 183.265C186.643 183.265 204.095 173.87 204.095 162.281C204.095 150.692 186.643 141.297 165.114 141.297C143.585 141.297 126.133 150.692 126.133 162.281C126.133 173.87 143.585 183.265 165.114 183.265Z" fill="#2A697F"/>
<path d="M164.731 162.588C174.163 162.588 181.809 158.816 181.809 154.163C181.809 149.511 174.163 145.739 164.731 145.739C155.299 145.739 147.652 149.511 147.652 154.163C147.652 158.816 155.299 162.588 164.731 162.588Z" fill="#293C4F"/>
<path d="M164.732 147.73C173.463 147.73 180.738 150.947 181.734 155.159C181.81 154.776 181.887 154.47 181.887 154.163C181.887 149.492 174.228 145.739 164.809 145.739C155.389 145.739 147.73 149.492 147.73 154.163C147.73 154.546 147.807 154.853 147.884 155.159C148.803 151.024 156.002 147.73 164.732 147.73Z" fill="#DBDBDB"/>
<path d="M181.734 156.92L181.351 155.236C180.355 151.177 173.233 148.113 164.809 148.113C156.385 148.113 149.262 151.177 148.267 155.236L147.884 156.92L147.501 155.236C147.348 154.853 147.348 154.47 147.348 154.087C147.348 151.636 149.186 149.415 152.555 147.73C155.848 146.046 160.214 145.203 164.809 145.203C169.404 145.203 173.769 146.122 177.062 147.73C180.432 149.415 182.27 151.713 182.27 154.087C182.27 154.47 182.193 154.776 182.117 155.236L181.734 156.92ZM164.732 147.347C172.391 147.347 178.977 149.875 181.351 153.398C180.508 149.339 173.386 146.122 164.732 146.122C156.078 146.122 148.956 149.339 148.113 153.398C150.488 149.798 157.074 147.347 164.732 147.347Z" fill="#323A50"/>
<path d="M165.188 141.45C143.668 141.45 126.207 150.641 126.207 161.898C126.207 173.233 143.668 182.346 165.188 182.346C186.708 182.346 204.169 173.156 204.169 161.898C204.169 150.641 186.708 141.45 165.188 141.45ZM181.884 154.317C181.884 154.393 181.96 154.47 181.96 154.47C181.96 154.546 181.96 154.623 181.96 154.623C181.271 158.835 173.919 162.205 164.958 162.205C156.228 162.205 148.952 158.988 147.957 154.929C147.957 154.776 147.88 154.699 147.88 154.546C147.88 154.47 147.88 154.393 147.88 154.393C147.88 154.317 147.88 154.317 147.88 154.24C147.88 154.087 147.88 154.087 147.88 153.857C147.88 153.857 147.88 153.551 147.88 153.474C147.957 152.861 148.11 152.325 148.416 151.789C148.646 151.253 149.106 150.794 149.565 150.334C149.565 150.334 149.642 150.334 149.642 150.258C152.399 147.501 158.296 145.586 165.112 145.586C174.531 145.586 182.266 149.339 182.266 153.857H182.113C181.807 154.087 181.884 154.163 181.884 154.317Z" fill="#DBDBDB"/>
<path d="M165.19 182.806C154.698 182.806 144.895 180.661 137.467 176.756C129.961 172.773 125.902 167.566 125.902 161.898C125.902 156.308 130.038 151.023 137.467 147.041C144.895 143.135 154.698 140.991 165.19 140.991C175.682 140.991 185.485 143.135 192.913 147.041C200.418 151.023 204.477 156.231 204.477 161.898C204.477 167.489 200.342 172.773 192.913 176.756C185.561 180.738 175.682 182.806 165.19 182.806ZM165.19 141.833C143.9 141.833 126.668 150.87 126.668 161.898C126.668 172.926 143.9 181.963 165.19 181.963C186.48 181.963 203.712 172.926 203.712 161.898C203.712 150.87 186.48 141.833 165.19 141.833ZM164.884 162.588C156.076 162.588 148.648 159.371 147.499 155.006C147.499 154.853 147.422 154.776 147.422 154.623C147.422 154.546 147.422 154.47 147.346 154.47C147.346 154.393 147.346 154.317 147.346 154.317V154.24C147.346 154.163 147.346 154.087 147.346 153.857V153.474V153.398C147.422 152.785 147.576 152.249 147.959 151.636C148.265 151.1 148.648 150.564 149.107 150.028L149.184 149.951C152.094 147.041 158.144 145.203 164.884 145.203C169.479 145.203 173.844 146.122 177.137 147.654C180.583 149.339 182.345 151.483 182.345 153.857V154.24H182.192C182.192 154.317 182.192 154.317 182.192 154.393C182.192 154.47 182.192 154.546 182.192 154.546C181.502 159.218 174.074 162.588 164.884 162.588ZM148.188 154.01C148.188 154.163 148.188 154.163 148.188 154.24V154.317C148.188 154.393 148.188 154.393 148.188 154.47C148.188 154.546 148.188 154.623 148.188 154.623C148.188 154.776 148.265 154.776 148.265 154.929C149.26 158.912 156.383 161.898 164.807 161.898C173.461 161.898 180.813 158.682 181.426 154.623V154.546C181.426 154.47 181.349 154.393 181.426 154.393V154.317C181.426 154.24 181.426 154.163 181.426 154.087V153.704H181.579C181.426 151.789 179.664 149.951 176.831 148.649C173.614 147.118 169.402 146.275 164.884 146.275C158.451 146.275 152.477 148.037 149.72 150.794L149.643 150.87C149.184 151.33 148.878 151.789 148.571 152.249C148.341 152.708 148.188 153.244 148.112 153.704C148.188 153.704 148.188 153.857 148.188 154.01Z" fill="#323A50"/>
<g opacity="0.3">
<path d="M166.186 295.154C166.109 295.154 166.033 295.154 166.033 295.154C152.401 295.154 138.769 291.325 126.745 284.203L126.132 283.59C111.122 274.86 99.7875 261.228 93.431 244.303C90.9038 237.793 89.3721 230.671 88.7594 222.783C88.6062 219.03 88.6062 215.66 88.7594 211.908C88.9126 208.232 89.4487 204.632 90.4443 200.267C91.3633 195.825 92.8184 191.46 94.8861 186.865L95.652 187.248C93.6608 191.843 92.2057 196.208 91.2867 200.573C90.3677 204.862 89.9082 208.538 89.6018 212.137C89.4487 215.813 89.4487 219.183 89.6018 222.936C90.2911 230.747 91.8228 237.716 94.2734 244.226C100.553 261.075 111.811 274.553 126.668 283.131H126.745L127.358 283.743C151.635 298.065 180.66 298.218 205.09 283.897C206.239 283.131 207.541 282.212 208.996 281.446C221.939 273.175 231.588 261.304 237.715 246.217C238.021 245.528 238.251 244.762 238.557 243.996C238.787 243.231 239.094 242.465 239.4 241.775C244.072 227.531 244.608 212.903 241.008 198.429V198.352C240.855 197.74 238.481 190.311 237.026 187.018L237.792 186.635C239.17 189.852 241.621 197.204 241.774 198.199C245.45 212.827 244.914 227.531 240.089 242.005V242.082C239.783 242.771 239.553 243.537 239.323 244.303C239.094 245.069 238.787 245.834 238.481 246.6C232.201 261.84 222.475 273.787 209.379 282.288C208.001 283.131 206.699 283.973 205.55 284.739C193.296 291.402 179.818 295.154 166.186 295.154Z" fill="#323A50"/>
</g>
<path d="M130.038 132.107C129.885 132.107 129.732 131.954 129.655 131.877L118.55 112.502H67.086C66.8563 112.502 66.7031 112.349 66.7031 112.119C66.7031 111.889 66.8563 111.736 67.086 111.736H118.78C118.933 111.736 119.087 111.812 119.163 111.966L130.421 131.571C130.498 131.801 130.498 132.031 130.268 132.107C130.191 132.107 130.115 132.107 130.038 132.107Z" fill="#FF4200"/>
<path d="M146.885 130.729C146.655 130.729 146.425 130.576 146.425 130.346C146.349 130.039 146.578 129.81 146.808 129.733C147.114 129.657 147.497 129.58 147.804 129.58C148.11 129.503 148.34 129.733 148.416 129.963C148.493 130.269 148.263 130.499 148.033 130.576C147.727 130.652 147.344 130.729 147.038 130.729C146.961 130.729 146.885 130.729 146.885 130.729Z" fill="#FF4200"/>
<path d="M143.057 152.249C142.98 152.249 142.98 152.249 142.904 152.249C142.214 152.019 141.602 151.789 141.066 151.636C140.836 151.559 140.683 151.253 140.759 151.023C140.836 150.794 141.142 150.64 141.372 150.717C141.908 150.947 142.521 151.1 143.21 151.33C143.44 151.406 143.593 151.713 143.516 151.942C143.516 152.172 143.287 152.249 143.057 152.249ZM139.457 150.947C139.381 150.947 139.304 150.947 139.304 150.87C139.075 150.794 138.845 150.717 138.692 150.64C138.309 150.487 137.926 150.258 137.466 150.104C137.237 149.951 137.083 149.721 137.237 149.415C137.39 149.185 137.619 149.032 137.926 149.185C138.309 149.415 138.692 149.568 139.075 149.721C139.228 149.798 139.457 149.875 139.687 149.951C139.917 150.028 140.07 150.334 139.994 150.64C139.84 150.794 139.611 150.947 139.457 150.947ZM135.935 149.262C135.858 149.262 135.781 149.262 135.705 149.185C135.016 148.802 134.403 148.42 134.02 148.19C133.79 148.037 133.714 147.73 133.867 147.501C134.02 147.271 134.326 147.194 134.556 147.347C134.939 147.654 135.552 147.96 136.164 148.343C136.394 148.496 136.471 148.802 136.394 149.032C136.318 149.109 136.088 149.262 135.935 149.262ZM132.718 147.041C132.565 147.041 132.488 146.964 132.412 146.888C131.876 146.428 131.416 145.892 131.033 145.433C130.88 145.203 130.88 144.897 131.11 144.743C131.34 144.59 131.646 144.59 131.799 144.82C132.182 145.28 132.565 145.739 133.101 146.199C133.331 146.352 133.331 146.658 133.178 146.888C133.024 147.041 132.871 147.041 132.718 147.041ZM130.421 143.978C130.191 143.978 130.038 143.824 129.961 143.671C129.731 142.982 129.578 142.293 129.578 141.604C129.578 141.297 129.808 141.144 130.038 141.144C130.344 141.144 130.497 141.374 130.497 141.604C130.497 142.216 130.65 142.752 130.803 143.288C130.88 143.518 130.803 143.824 130.421 143.978C130.574 143.978 130.497 143.978 130.421 143.978ZM130.574 140.225C130.497 140.225 130.421 140.225 130.344 140.148C130.114 139.995 129.961 139.766 130.114 139.459C130.421 138.923 130.803 138.31 131.263 137.774C131.416 137.545 131.722 137.545 131.952 137.698C132.182 137.851 132.182 138.157 132.029 138.387C131.569 138.923 131.263 139.383 131.033 139.919C130.88 140.148 130.727 140.225 130.574 140.225ZM132.948 137.238C132.795 137.238 132.641 137.162 132.565 137.085C132.412 136.855 132.412 136.549 132.641 136.396C133.101 135.936 133.637 135.553 134.173 135.17C134.403 135.017 134.709 135.017 134.862 135.247C135.016 135.477 135.016 135.783 134.786 135.936C134.25 136.319 133.79 136.702 133.331 137.162C133.178 137.162 133.101 137.238 132.948 137.238ZM136.088 134.864C135.935 134.864 135.781 134.788 135.628 134.634C135.475 134.405 135.552 134.098 135.781 133.945C136.318 133.639 136.93 133.256 137.466 132.95C137.696 132.796 138.002 132.873 138.156 133.179C138.309 133.409 138.232 133.715 137.926 133.869C137.313 134.175 136.777 134.481 136.241 134.788C136.241 134.864 136.164 134.864 136.088 134.864ZM139.534 133.026C139.304 133.026 139.151 132.95 139.075 132.72C138.921 132.49 139.075 132.184 139.304 132.031C139.917 131.724 140.53 131.494 141.142 131.265C141.372 131.188 141.678 131.265 141.832 131.571C141.985 131.877 141.832 132.107 141.525 132.26C140.913 132.49 140.3 132.72 139.764 133.026C139.611 133.026 139.534 133.026 139.534 133.026ZM143.133 131.648C142.904 131.648 142.751 131.494 142.674 131.265C142.597 131.035 142.751 130.729 142.98 130.652C143.593 130.422 144.282 130.269 144.895 130.116C145.201 130.039 145.431 130.193 145.508 130.499C145.584 130.805 145.431 131.035 145.125 131.112C144.512 131.265 143.899 131.418 143.287 131.648C143.21 131.648 143.21 131.648 143.133 131.648Z" fill="#FF4200"/>
<path d="M145.891 153.244C145.814 153.244 145.737 153.244 145.737 153.244C145.661 153.168 145.278 153.091 144.818 152.938C144.589 152.861 144.436 152.555 144.512 152.325C144.589 152.096 144.895 151.942 145.125 152.019C145.661 152.172 145.967 152.325 146.12 152.325C146.35 152.402 146.503 152.708 146.427 153.015C146.274 153.091 146.044 153.244 145.891 153.244Z" fill="#FF4200"/>
<path d="M201.953 131.801C201.8 131.648 201.723 131.418 201.8 131.265L213.057 111.659C213.134 111.506 213.287 111.43 213.44 111.43H252.881C253.111 111.43 253.264 111.583 253.264 111.813C253.264 112.042 253.111 112.196 252.881 112.196H213.67L202.565 131.571C202.489 131.724 202.336 131.801 202.182 131.801C202.029 131.878 201.953 131.878 201.953 131.801Z" fill="#FF4200"/>
<path d="M199.119 146.658C198.966 146.428 198.966 146.122 199.195 145.969C199.655 145.509 200.114 145.05 200.497 144.59C200.651 144.361 200.957 144.361 201.187 144.514C201.416 144.667 201.416 144.973 201.263 145.203C200.88 145.663 200.421 146.199 199.885 146.658C199.808 146.735 199.655 146.811 199.578 146.811C199.349 146.811 199.195 146.811 199.119 146.658ZM201.57 143.748C201.34 143.671 201.187 143.365 201.263 143.135C201.493 142.599 201.57 141.987 201.57 141.451C201.57 141.144 201.799 140.991 202.029 140.991C202.335 140.991 202.489 141.221 202.489 141.451C202.489 142.14 202.335 142.829 202.106 143.518C202.029 143.748 201.799 143.825 201.57 143.748C201.723 143.748 201.646 143.748 201.57 143.748ZM201.187 139.689C200.957 139.23 200.574 138.693 200.191 138.157C200.038 137.928 200.038 137.621 200.268 137.468C200.497 137.315 200.804 137.315 200.957 137.545C201.416 138.157 201.799 138.694 202.106 139.23C202.259 139.459 202.106 139.766 201.876 139.919C201.799 139.995 201.723 139.995 201.646 139.995C201.416 139.995 201.263 139.919 201.187 139.689ZM198.889 136.855C198.43 136.473 197.97 136.013 197.434 135.63C197.204 135.477 197.128 135.171 197.357 134.941C197.511 134.711 197.817 134.635 198.047 134.864C198.583 135.247 199.119 135.707 199.578 136.09C199.808 136.243 199.808 136.549 199.655 136.779C199.578 136.932 199.425 136.932 199.272 136.932C199.119 137.009 198.966 136.932 198.889 136.855Z" fill="#FF4200"/>
<path d="M220.18 107.6H218.495V98.7167L216.121 99.942V98.3338L218.648 96.8787H220.103V107.6H220.18Z" fill="#FF4200"/>
<path d="M223.013 109.974H221.711L223.013 105.686H224.927L223.013 109.974Z" fill="#FF4200"/>
<path d="M233.581 107.6H226.152V106.375L229.522 103.235C230.211 102.546 230.747 102.01 231.13 101.55C231.437 101.091 231.59 100.631 231.59 100.095C231.59 99.5592 231.36 99.0997 230.977 98.7933C230.594 98.487 230.058 98.3338 229.445 98.3338C228.373 98.3338 227.378 98.7934 226.459 99.6358V97.8743C227.301 97.1085 228.373 96.7256 229.599 96.7256C230.594 96.7256 231.437 97.0319 232.202 97.568C232.892 98.1807 233.275 98.9465 233.275 99.8655C233.275 100.555 233.121 101.244 232.739 101.857C232.356 102.469 231.743 103.159 230.901 103.924L228.603 106.145H233.658V107.6H233.581Z" fill="#FF4200"/>
<path d="M238.558 107.6H237.562V103.082H238.558V103.695C238.864 103.235 239.4 103.005 240.013 103.005C240.396 103.005 240.626 103.082 240.932 103.235C241.162 103.388 241.392 103.541 241.468 103.848C241.621 103.618 241.851 103.388 242.158 103.235C242.464 103.082 242.77 103.005 243.153 103.005C243.689 103.005 244.072 103.159 244.302 103.465C244.608 103.771 244.761 104.231 244.761 104.843V107.677H243.766V105.073C243.766 104.307 243.459 103.924 242.847 103.924C242.617 103.924 242.387 104.001 242.158 104.154C241.928 104.307 241.775 104.46 241.698 104.69V107.677H240.702V105.073C240.702 104.307 240.396 103.924 239.783 103.924C239.554 103.924 239.324 104.001 239.094 104.154C238.864 104.307 238.711 104.46 238.635 104.69V107.6H238.558Z" fill="#FF4200"/>
<path d="M247.058 107.6H246.062V103.082H247.058V103.695C247.364 103.235 247.901 103.005 248.513 103.005C248.896 103.005 249.126 103.082 249.432 103.235C249.662 103.388 249.892 103.541 249.968 103.848C250.121 103.618 250.351 103.388 250.658 103.235C250.964 103.082 251.27 103.005 251.653 103.005C252.189 103.005 252.572 103.159 252.802 103.465C253.108 103.771 253.261 104.231 253.261 104.843V107.677H252.266V105.073C252.266 104.307 251.959 103.924 251.347 103.924C251.117 103.924 250.887 104.001 250.658 104.154C250.428 104.307 250.275 104.46 250.198 104.69V107.677H249.202V105.073C249.202 104.307 248.896 103.924 248.283 103.924C248.054 103.924 247.824 104.001 247.594 104.154C247.364 104.307 247.211 104.46 247.135 104.69V107.6H247.058Z" fill="#FF4200"/>
<path d="M70.6111 107.907C69.3091 107.907 68.3135 107.6 67.3945 107.064V105.456C68.237 106.069 69.3091 106.375 70.5345 106.375C71.2237 106.375 71.8364 106.145 72.3725 105.762C72.9086 105.379 73.1383 104.843 73.1383 104.154C73.1383 103.541 72.9086 103.005 72.4491 102.622C71.9896 102.24 71.3769 102.01 70.6111 102.01C70.1515 102.01 69.692 102.086 69.2325 102.24V101.091L72.1427 98.3338H67.7775V96.8787H74.3637V98.1806L71.6066 100.784C72.4491 100.861 73.2149 101.244 73.8276 101.857C74.4403 102.469 74.7466 103.235 74.7466 104.154C74.7466 105.226 74.3637 106.145 73.5212 106.835C72.832 107.6 71.8364 107.907 70.6111 107.907Z" fill="#FF4200"/>
<path d="M76.8918 110.051H75.5898L76.8918 105.762H78.8064L76.8918 110.051Z" fill="#FF4200"/>
<path d="M87.4599 107.677H80.0312V106.452L83.4009 103.312C84.0902 102.622 84.6263 102.086 85.0092 101.627C85.3155 101.167 85.4687 100.708 85.4687 100.172C85.4687 99.6356 85.239 99.1761 84.856 98.8698C84.4731 98.5634 83.937 98.4103 83.3244 98.4103C82.2522 98.4103 81.2566 98.8698 80.3376 99.7122V97.9508C81.18 97.1849 82.2522 96.802 83.4775 96.802C84.4731 96.802 85.3155 97.1083 86.0814 97.6444C86.7706 98.2571 87.1536 99.0229 87.1536 99.9419C87.1536 100.631 87.0004 101.32 86.6175 101.933C86.2345 102.546 85.6219 103.235 84.7794 104.001L82.4819 106.222H87.5365V107.677H87.4599Z" fill="#FF4200"/>
<path d="M92.0532 107.907C90.9044 107.907 89.9088 107.677 89.0664 107.141V105.533C89.9088 106.069 90.9044 106.375 91.9766 106.375C92.7424 106.375 93.3551 106.145 93.8912 105.762C94.4273 105.379 94.657 104.843 94.657 104.154C94.657 103.541 94.4273 103.005 93.8912 102.622C93.4317 102.24 92.7424 102.01 91.9766 102.01C91.1342 102.01 90.2917 102.163 89.3727 102.469L90.062 96.8787H95.576V98.3338H91.2873L90.981 100.784C91.3639 100.708 91.8234 100.631 92.3595 100.631C93.5083 100.631 94.5039 100.938 95.1931 101.627C95.959 102.24 96.3419 103.082 96.3419 104.154C96.3419 105.303 95.959 106.145 95.1165 106.835C94.2741 107.6 93.2785 107.907 92.0532 107.907Z" fill="#FF4200"/>
<path d="M101.32 107.677H100.324V103.159H101.32V103.771C101.626 103.312 102.162 103.082 102.775 103.082C103.158 103.082 103.388 103.159 103.694 103.312C103.924 103.465 104.153 103.618 104.23 103.924C104.383 103.695 104.613 103.465 104.919 103.312C105.226 103.159 105.532 103.082 105.915 103.082C106.451 103.082 106.834 103.235 107.064 103.542C107.37 103.848 107.523 104.307 107.523 104.92V107.754H106.451V105.15C106.451 104.384 106.145 104.001 105.532 104.001C105.302 104.001 105.072 104.078 104.843 104.231C104.613 104.384 104.46 104.537 104.383 104.767V107.754H103.388V105.15C103.388 104.384 103.081 104.001 102.469 104.001C102.239 104.001 102.009 104.078 101.779 104.231C101.55 104.384 101.396 104.537 101.32 104.767V107.677Z" fill="#FF4200"/>
<path d="M109.746 107.677H108.75V103.159H109.746V103.771C110.052 103.312 110.588 103.082 111.201 103.082C111.584 103.082 111.813 103.159 112.12 103.312C112.349 103.465 112.579 103.618 112.656 103.924C112.809 103.695 113.039 103.465 113.345 103.312C113.651 103.159 113.958 103.082 114.341 103.082C114.877 103.082 115.26 103.235 115.489 103.542C115.796 103.848 115.949 104.307 115.949 104.92V107.754H114.953V105.15C114.953 104.384 114.647 104.001 114.034 104.001C113.805 104.001 113.575 104.078 113.345 104.231C113.115 104.384 112.962 104.537 112.886 104.767V107.754H111.813V105.15C111.813 104.384 111.507 104.001 110.894 104.001C110.665 104.001 110.435 104.078 110.205 104.231C109.975 104.384 109.822 104.537 109.746 104.767V107.677Z" fill="#FF4200"/>
<path d="M263.601 189.162C261.686 182.882 256.785 178.67 248.744 176.602C244.149 175.454 239.937 175.301 238.099 175.301C238.022 175.071 237.945 174.841 237.716 174.688C239.324 174.611 243.919 174.688 248.897 175.99C256.938 178.134 262.299 182.576 264.137 188.932C264.52 189.775 276.161 214.205 277.616 228.526C277.999 232.279 281.062 233.121 286.653 234.653C291.248 235.878 297.604 237.64 305.416 241.852L305.109 242.465C297.298 238.252 291.018 236.568 286.423 235.342C280.756 233.811 277.386 232.892 276.927 228.603C275.778 216.962 267.737 198.352 264.673 191.689C264.826 196.667 261.38 203.483 254.334 212.137C247.595 220.408 237.639 230.288 224.696 241.546C219.872 245.758 215.047 249.817 210.375 253.569L209.609 253.339C214.358 249.587 219.336 245.298 224.313 241.086C253.492 215.66 267.047 197.816 263.601 189.162Z" fill="#323A50"/>
<path d="M240.089 181.427C240.012 180.968 239.4 178.67 239.246 178.211C239.323 177.981 240.166 179.359 240.166 179.13C240.166 178.67 239.859 178.211 239.476 177.904C239.553 177.445 239.553 177.215 239.093 176.909C239.17 176.679 238.634 176.679 238.557 176.526C239.4 177.904 240.395 179.742 240.702 181.274C242.08 188.396 231.205 205.245 208.46 231.36C203.482 237.104 198.351 242.771 193.756 247.672L193.066 247.443C213.361 225.54 241.774 192.226 240.089 181.427Z" fill="#323A50"/>
<path d="M237.867 174.611C238.02 174.764 238.02 174.841 238.174 174.994L242.386 174.841C240.471 174.611 238.786 174.611 237.867 174.611Z" fill="#323A50"/>
<path d="M238.941 176.679L249.816 176.296C249.433 176.143 248.973 176.066 248.514 175.913L238.711 176.296C238.864 176.449 238.941 176.603 238.941 176.679Z" fill="#323A50"/>
<path d="M239.399 178.364L253.874 177.751C253.567 177.598 253.338 177.522 253.031 177.368L239.246 177.904C239.246 177.981 239.246 178.058 239.246 178.058C239.246 178.211 239.323 178.287 239.399 178.364Z" fill="#323A50"/>
<path d="M240.091 180.125L256.786 179.513C256.633 179.36 256.403 179.283 256.173 179.13L239.938 179.743C240.014 179.819 240.014 179.896 240.091 180.125Z" fill="#323A50"/>
<path d="M240.242 181.657L258.775 180.891C258.622 180.738 258.469 180.661 258.316 180.508L240.319 181.198C240.242 181.427 240.242 181.504 240.242 181.657Z" fill="#323A50"/>
<path d="M240.319 183.418L260.384 182.576C260.231 182.423 260.154 182.346 260.001 182.193L240.242 183.036C240.319 183.112 240.319 183.189 240.319 183.418Z" fill="#323A50"/>
<path d="M240.013 184.72C239.936 184.874 239.936 184.95 239.859 185.027L261.609 184.108C261.456 183.955 261.456 183.801 261.303 183.725L240.013 184.72C240.089 184.72 240.089 184.72 240.013 184.72Z" fill="#323A50"/>
<path d="M239.475 186.559C239.475 186.635 239.398 186.712 239.398 186.788L262.68 185.869C262.603 185.716 262.527 185.563 262.45 185.486L239.552 186.405C239.552 186.482 239.475 186.559 239.475 186.559Z" fill="#323A50"/>
<path d="M238.864 188.167L263.294 187.171C263.371 187.324 263.448 187.477 263.448 187.554L238.711 188.55C238.711 188.396 238.788 188.32 238.864 188.167Z" fill="#323A50"/>
<path d="M238.098 189.851L263.907 188.779C263.984 188.932 263.984 189.009 264.06 189.162L237.945 190.234C237.945 190.158 238.022 190.081 238.098 189.851Z" fill="#323A50"/>
<path d="M237.331 191.69L264.289 190.541C264.289 190.694 264.365 190.771 264.365 190.924L237.102 192.072C237.178 191.919 237.178 191.766 237.331 191.69Z" fill="#323A50"/>
<path d="M236.413 193.451L264.443 192.302C264.443 192.455 264.443 192.609 264.443 192.685L236.184 193.834C236.184 193.681 236.337 193.528 236.413 193.451Z" fill="#323A50"/>
<path d="M235.494 194.983L264.289 193.834C264.289 193.987 264.213 194.14 264.213 194.217L235.188 195.366C235.341 195.289 235.417 195.212 235.494 194.983Z" fill="#323A50"/>
<path d="M234.424 196.744L263.908 195.595C263.832 195.748 263.832 195.902 263.755 195.978L234.117 197.127C234.27 197.05 234.347 196.974 234.424 196.744Z" fill="#323A50"/>
<path d="M233.351 198.582L263.372 197.357C263.295 197.51 263.219 197.663 263.219 197.74L233.121 198.965C233.198 198.812 233.274 198.659 233.351 198.582Z" fill="#323A50"/>
<path d="M232.201 200.344L262.605 199.118C262.528 199.271 262.452 199.424 262.452 199.501L231.895 200.726C232.048 200.573 232.124 200.42 232.201 200.344Z" fill="#323A50"/>
<path d="M231.05 201.952L261.837 200.727C261.76 200.88 261.684 201.033 261.607 201.109L230.82 202.335C230.897 202.258 231.05 202.105 231.05 201.952Z" fill="#323A50"/>
<path d="M229.902 203.713L260.918 202.488C260.842 202.641 260.765 202.794 260.688 202.871L229.672 204.096C229.672 204.019 229.748 203.943 229.902 203.713Z" fill="#323A50"/>
<path d="M228.677 205.475L259.847 204.249C259.77 204.402 259.694 204.556 259.617 204.632L228.371 205.858C228.524 205.781 228.524 205.628 228.677 205.475Z" fill="#323A50"/>
<path d="M227.377 207.236L258.699 205.934C258.546 206.087 258.546 206.24 258.393 206.317L227.07 207.619C227.223 207.542 227.3 207.466 227.377 207.236Z" fill="#323A50"/>
<path d="M226.228 208.921L257.628 207.619C257.474 207.772 257.474 207.925 257.321 208.002L225.922 209.304C225.922 209.227 226.075 208.997 226.228 208.921Z" fill="#323A50"/>
<path d="M224.849 210.682L256.249 209.38C256.096 209.534 256.019 209.687 255.942 209.763L224.543 211.065C224.696 210.989 224.773 210.835 224.849 210.682Z" fill="#323A50"/>
<path d="M223.547 212.444L254.946 211.142C254.793 211.295 254.717 211.448 254.563 211.525L223.164 212.827C223.317 212.75 223.394 212.597 223.547 212.444Z" fill="#323A50"/>
<path d="M222.09 214.205L253.413 212.903C253.26 213.056 253.183 213.21 253.03 213.286L221.707 214.588C221.937 214.512 222.09 214.358 222.09 214.205Z" fill="#323A50"/>
<path d="M220.789 215.967L252.035 214.741C251.882 214.894 251.806 215.048 251.652 215.124L220.406 216.349C220.559 216.273 220.636 216.12 220.789 215.967Z" fill="#323A50"/>
<path d="M219.334 217.728L250.427 216.503C250.274 216.656 250.197 216.809 250.044 216.886L219.027 218.111C219.104 218.034 219.257 217.958 219.334 217.728Z" fill="#323A50"/>
<path d="M217.955 219.49L248.895 218.264C248.741 218.417 248.665 218.57 248.512 218.647L217.648 219.872C217.725 219.796 217.802 219.643 217.955 219.49Z" fill="#323A50"/>
<path d="M216.576 221.174L247.363 219.949C247.209 220.102 247.133 220.255 246.98 220.332L216.27 221.557C216.346 221.481 216.499 221.327 216.576 221.174Z" fill="#323A50"/>
<path d="M215.199 222.859L245.756 221.634C245.603 221.787 245.45 221.94 245.373 222.017L214.816 223.242C214.97 223.089 215.123 223.012 215.199 222.859Z" fill="#323A50"/>
<path d="M213.742 224.621L243.993 223.395C243.84 223.548 243.687 223.702 243.61 223.778L213.359 225.004C213.513 224.85 213.666 224.774 213.742 224.621Z" fill="#323A50"/>
<path d="M212.289 226.382L242.31 225.157C242.157 225.31 242.004 225.463 241.927 225.54L211.906 226.765C212.059 226.688 212.136 226.535 212.289 226.382Z" fill="#323A50"/>
<path d="M210.756 228.22L240.547 227.071C240.394 227.224 240.24 227.378 240.164 227.454L210.449 228.603C210.526 228.45 210.602 228.297 210.756 228.22Z" fill="#323A50"/>
<path d="M209.304 229.828L238.789 228.68C238.636 228.833 238.482 228.986 238.406 229.063L209.074 230.211C209.074 230.135 209.227 229.982 209.304 229.828Z" fill="#323A50"/>
<path d="M208.002 231.513L237.18 230.365C237.027 230.518 236.874 230.671 236.721 230.747L207.695 231.896C207.695 231.743 207.772 231.59 208.002 231.513Z" fill="#323A50"/>
<path d="M206.391 233.274L235.186 232.126C235.033 232.279 234.88 232.432 234.727 232.509L206.008 233.657C206.161 233.581 206.238 233.428 206.391 233.274Z" fill="#323A50"/>
<path d="M204.859 235.036L233.272 233.887C233.119 234.04 232.966 234.194 232.813 234.27L204.477 235.419C204.63 235.342 204.706 235.113 204.859 235.036Z" fill="#323A50"/>
<path d="M203.328 236.797L231.358 235.649C231.205 235.802 231.052 235.955 230.898 236.032L202.945 237.18C203.022 237.104 203.175 236.951 203.328 236.797Z" fill="#323A50"/>
<path d="M201.72 238.636L229.367 237.487C229.214 237.64 229.061 237.793 228.908 237.87L201.414 239.018C201.414 238.942 201.567 238.789 201.72 238.636Z" fill="#323A50"/>
<path d="M200.266 240.244L227.53 239.095C227.376 239.248 227.223 239.401 227.07 239.478L199.883 240.627C200.036 240.55 200.113 240.397 200.266 240.244Z" fill="#323A50"/>
<path d="M198.656 242.005L225.461 240.933C225.308 241.086 225.154 241.239 225.001 241.316L198.273 242.388C198.35 242.312 198.503 242.235 198.656 242.005Z" fill="#323A50"/>
<path d="M197.049 243.767L223.47 242.694C223.317 242.848 223.087 243.001 223.01 243.077L196.742 244.149C196.819 244.073 196.972 243.996 197.049 243.767Z" fill="#323A50"/>
<path d="M195.439 245.605L221.401 244.532C221.248 244.686 221.018 244.839 220.942 244.915L195.133 245.988C195.209 245.911 195.286 245.758 195.439 245.605Z" fill="#323A50"/>
<path d="M193.984 247.289L219.487 246.217C219.334 246.37 219.104 246.524 219.027 246.6L193.602 247.596C193.678 247.596 193.831 247.366 193.984 247.289Z" fill="#323A50"/>
<path d="M194.445 248.821L217.574 247.902C217.42 248.055 217.191 248.208 217.038 248.285L195.441 249.204C195.058 249.051 194.752 248.898 194.445 248.821Z" fill="#323A50"/>
<path d="M198.965 250.353L215.354 249.74C215.201 249.893 214.971 250.047 214.818 250.123L200.037 250.736C199.731 250.659 199.348 250.506 198.965 250.353Z" fill="#323A50"/>
<path d="M203.637 251.884L213.21 251.501C213.057 251.655 212.827 251.808 212.674 251.884L204.709 252.191C204.403 252.114 204.02 251.961 203.637 251.884Z" fill="#323A50"/>
<path d="M208.305 253.416L210.985 253.263C210.832 253.416 210.602 253.569 210.449 253.646L209.3 253.722C208.994 253.646 208.611 253.493 208.305 253.416Z" fill="#323A50"/>
<path d="M69.307 189.162C71.2216 182.882 76.123 178.67 84.1643 176.602C88.7593 175.454 92.9714 175.301 94.8094 175.301C94.886 175.071 94.9626 174.841 95.1924 174.688C93.5841 174.611 88.989 174.688 84.0111 175.99C75.9698 178.134 70.6089 182.576 68.7709 188.932C68.388 189.775 56.7472 214.205 55.2921 228.526C54.9092 232.279 51.8459 233.121 46.2552 234.653C41.6602 235.878 35.3037 237.64 27.4922 241.852L27.7985 242.465C35.6101 238.252 41.89 236.568 46.485 235.342C52.1522 233.811 55.5219 232.892 55.9814 228.603C57.1302 216.962 65.1715 198.352 68.2348 191.689C68.0816 196.667 71.5279 203.483 78.5736 212.137C85.313 220.408 95.2689 230.288 108.212 241.546C113.036 245.758 117.861 249.817 122.533 253.569L123.299 253.339C118.55 249.587 113.572 245.298 108.595 241.086C79.4161 215.66 65.8607 197.816 69.307 189.162Z" fill="#323A50"/>
<path d="M92.8189 181.427C92.8955 180.968 93.5082 178.67 93.6613 178.211C93.5847 177.981 92.7423 179.359 92.7423 179.13C92.7423 178.67 93.0486 178.211 93.4316 177.904C93.355 177.445 93.355 177.215 93.8145 176.909C93.7379 176.679 94.274 176.679 94.3506 176.526C93.5081 177.904 92.5126 179.742 92.2062 181.274C90.8277 188.396 101.703 205.245 124.448 231.36C129.426 237.104 134.557 242.771 139.152 247.672L139.841 247.443C119.394 225.54 91.0575 192.226 92.8189 181.427Z" fill="#323A50"/>
<path d="M95.038 174.611C94.8848 174.764 94.8848 174.841 94.7316 174.994L90.5195 174.841C92.4341 174.611 94.119 174.611 95.038 174.611Z" fill="#323A50"/>
<path d="M93.8905 176.679L83.0156 176.296C83.3985 176.143 83.858 176.066 84.3175 175.913L94.1203 176.296C94.0437 176.449 93.9671 176.603 93.8905 176.679Z" fill="#323A50"/>
<path d="M93.5056 178.364L79.0312 177.751C79.3376 177.598 79.5673 177.522 79.8737 177.368L93.6588 177.904C93.6588 177.981 93.6588 178.058 93.6588 178.058C93.5822 178.211 93.5822 178.287 93.5056 178.364Z" fill="#323A50"/>
<path d="M92.8164 180.125L76.1211 179.513C76.2743 179.36 76.504 179.283 76.7338 179.13L92.9696 179.743C92.893 179.819 92.893 179.896 92.8164 180.125Z" fill="#323A50"/>
<path d="M92.588 181.657L74.0547 180.891C74.2079 180.738 74.361 180.661 74.5142 180.508L92.5114 181.198C92.588 181.427 92.588 181.504 92.588 181.657Z" fill="#323A50"/>
<path d="M92.5884 183.418L72.5234 182.576C72.6766 182.423 72.7532 182.346 72.9064 182.193L92.665 183.036C92.5884 183.112 92.5884 183.189 92.5884 183.418Z" fill="#323A50"/>
<path d="M92.8154 184.72C92.892 184.874 92.892 184.95 92.9686 185.027L71.2188 184.108C71.3719 183.955 71.3719 183.801 71.5251 183.725L92.8154 184.72Z" fill="#323A50"/>
<path d="M93.3534 186.559C93.3534 186.635 93.4299 186.712 93.4299 186.788L70.1484 185.869C70.225 185.716 70.3016 185.563 70.3782 185.486L93.2768 186.405C93.3534 186.482 93.3534 186.559 93.3534 186.559Z" fill="#323A50"/>
<path d="M94.0405 188.167L69.6102 187.171C69.5336 187.324 69.457 187.477 69.457 187.554L94.1936 188.55C94.1171 188.396 94.1171 188.32 94.0405 188.167Z" fill="#323A50"/>
<path d="M94.7315 189.851L68.9227 188.779C68.8461 188.932 68.8461 189.009 68.7695 189.162L94.8846 190.234C94.8846 190.158 94.8846 190.081 94.7315 189.851Z" fill="#323A50"/>
<path d="M95.5732 191.69L68.6156 190.541C68.6156 190.694 68.5391 190.771 68.5391 190.924L95.8029 192.072C95.7263 191.919 95.6498 191.766 95.5732 191.69Z" fill="#323A50"/>
<path d="M96.4945 193.451L68.4648 192.302C68.4648 192.455 68.4648 192.609 68.4648 192.685L96.7243 193.834C96.7243 193.681 96.5711 193.528 96.4945 193.451Z" fill="#323A50"/>
<path d="M97.4127 194.983L68.6172 193.834C68.6172 193.987 68.6938 194.14 68.6938 194.217L97.7191 195.366C97.5659 195.289 97.4893 195.212 97.4127 194.983Z" fill="#323A50"/>
<path d="M98.4848 196.744L69 195.595C69.0766 195.748 69.0766 195.902 69.1532 195.978L98.7911 197.127C98.638 197.05 98.4848 196.974 98.4848 196.744Z" fill="#323A50"/>
<path d="M99.556 198.582L69.5352 197.357C69.6117 197.51 69.6883 197.663 69.6883 197.74L99.7858 198.965C99.7092 198.812 99.6326 198.659 99.556 198.582Z" fill="#323A50"/>
<path d="M100.705 200.344L70.3008 199.118C70.3774 199.271 70.4539 199.424 70.4539 199.501L101.011 200.726C100.858 200.573 100.781 200.42 100.705 200.344Z" fill="#323A50"/>
<path d="M101.779 201.952L70.9922 200.727C71.0688 200.88 71.1454 201.033 71.2219 201.109L102.009 202.335C102.009 202.258 101.855 202.105 101.779 201.952Z" fill="#323A50"/>
<path d="M103.001 203.713L71.9844 202.488C72.061 202.641 72.1375 202.794 72.2141 202.871L103.231 204.096C103.154 204.019 103.077 203.943 103.001 203.713Z" fill="#323A50"/>
<path d="M104.15 205.475L72.9805 204.249C73.0571 204.402 73.1336 204.556 73.2102 204.632L104.456 205.858C104.303 205.781 104.303 205.628 104.15 205.475Z" fill="#323A50"/>
<path d="M105.452 207.236L74.1289 205.934C74.2821 206.087 74.2821 206.24 74.4352 206.317L105.758 207.619C105.605 207.542 105.528 207.466 105.452 207.236Z" fill="#323A50"/>
<path d="M106.603 208.921L75.2031 207.619C75.3563 207.772 75.3563 207.925 75.5095 208.002L106.909 209.304C106.832 209.227 106.756 208.997 106.603 208.921Z" fill="#323A50"/>
<path d="M107.981 210.682L76.582 209.38C76.7352 209.534 76.8118 209.687 76.8884 209.763L108.288 211.065C108.135 210.989 108.058 210.835 107.981 210.682Z" fill="#323A50"/>
<path d="M109.282 212.444L77.8828 211.142C78.036 211.295 78.1126 211.448 78.2657 211.525L109.665 212.827C109.512 212.75 109.435 212.597 109.282 212.444Z" fill="#323A50"/>
<path d="M110.663 214.205L79.3398 212.903C79.493 213.056 79.5696 213.21 79.7228 213.286L111.046 214.588C110.892 214.512 110.739 214.358 110.663 214.205Z" fill="#323A50"/>
<path d="M112.039 215.967L80.793 214.741C80.9461 214.894 81.0227 215.048 81.1759 215.124L112.422 216.349C112.269 216.273 112.192 216.12 112.039 215.967Z" fill="#323A50"/>
<path d="M113.495 217.728L82.4023 216.503C82.5555 216.656 82.6321 216.809 82.7853 216.886L113.802 218.111C113.725 218.034 113.572 217.958 113.495 217.728Z" fill="#323A50"/>
<path d="M114.873 219.49L83.9336 218.264C84.0868 218.417 84.1633 218.57 84.3165 218.647L115.18 219.872C115.103 219.796 115.027 219.643 114.873 219.49Z" fill="#323A50"/>
<path d="M116.252 221.174L85.4648 219.949C85.618 220.102 85.6946 220.255 85.8478 220.332L116.558 221.557C116.481 221.481 116.328 221.327 116.252 221.174Z" fill="#323A50"/>
<path d="M117.553 222.859L86.9961 221.634C87.1493 221.787 87.3024 221.94 87.379 222.017L117.936 223.242C117.859 223.089 117.706 223.012 117.553 222.859Z" fill="#323A50"/>
<path d="M119.087 224.621L88.8359 223.395C88.9891 223.548 89.1423 223.702 89.2189 223.778L119.469 225.004C119.316 224.85 119.163 224.774 119.087 224.621Z" fill="#323A50"/>
<path d="M120.54 226.382L90.5195 225.157C90.6727 225.31 90.8259 225.463 90.9025 225.54L120.923 226.765C120.77 226.688 120.617 226.535 120.54 226.382Z" fill="#323A50"/>
<path d="M121.994 228.22L92.2031 227.071C92.3563 227.224 92.5095 227.378 92.586 227.454L122.301 228.603C122.301 228.45 122.147 228.297 121.994 228.22Z" fill="#323A50"/>
<path d="M123.45 229.828L93.9648 228.68C94.118 228.833 94.2712 228.986 94.3478 229.063L123.679 230.211C123.756 230.135 123.603 229.982 123.45 229.828Z" fill="#323A50"/>
<path d="M124.831 231.513L95.6523 230.365C95.8055 230.518 95.9587 230.671 96.1118 230.747L125.137 231.896C125.061 231.743 124.984 231.59 124.831 231.513Z" fill="#323A50"/>
<path d="M126.436 233.274L97.6406 232.126C97.7938 232.279 97.947 232.432 98.1001 232.509L126.819 233.657C126.666 233.581 126.513 233.428 126.436 233.274Z" fill="#323A50"/>
<path d="M127.967 235.036L99.5547 233.887C99.7079 234.04 99.861 234.194 100.014 234.27L128.35 235.419C128.197 235.342 128.044 235.113 127.967 235.036Z" fill="#323A50"/>
<path d="M129.502 236.797L101.473 235.649C101.626 235.802 101.779 235.955 101.932 236.032L129.885 237.18C129.732 237.104 129.579 236.951 129.502 236.797Z" fill="#323A50"/>
<path d="M131.108 238.636L103.461 237.487C103.614 237.64 103.767 237.793 103.92 237.87L131.414 239.018C131.414 238.942 131.184 238.789 131.108 238.636Z" fill="#323A50"/>
<path d="M132.565 240.244L105.301 239.095C105.454 239.248 105.607 239.401 105.76 239.478L132.948 240.627C132.794 240.55 132.641 240.397 132.565 240.244Z" fill="#323A50"/>
<path d="M134.172 242.005L107.367 240.933C107.52 241.086 107.674 241.239 107.827 241.316L134.554 242.388C134.478 242.312 134.248 242.235 134.172 242.005Z" fill="#323A50"/>
<path d="M135.703 243.767L109.281 242.694C109.434 242.848 109.664 243.001 109.741 243.077L136.009 244.149C136.009 244.073 135.856 243.996 135.703 243.767Z" fill="#323A50"/>
<path d="M137.388 245.605L111.426 244.532C111.579 244.686 111.809 244.839 111.885 244.915L137.694 245.988C137.617 245.911 137.541 245.758 137.388 245.605Z" fill="#323A50"/>
<path d="M138.842 247.289L113.34 246.217C113.493 246.37 113.723 246.524 113.799 246.6L139.225 247.596C139.149 247.596 138.995 247.366 138.842 247.289Z" fill="#323A50"/>
<path d="M138.386 248.821L115.258 247.902C115.411 248.055 115.641 248.208 115.794 248.285L137.391 249.204C137.697 249.051 138.003 248.898 138.386 248.821Z" fill="#323A50"/>
<path d="M133.866 250.353L117.477 249.74C117.63 249.893 117.859 250.047 118.013 250.123L132.793 250.736C133.1 250.659 133.483 250.506 133.866 250.353Z" fill="#323A50"/>
<path d="M129.194 251.884L119.621 251.501C119.774 251.655 120.004 251.808 120.157 251.884L128.122 252.191C128.428 252.114 128.811 251.961 129.194 251.884Z" fill="#323A50"/>
<path d="M124.524 253.416L121.844 253.263C121.997 253.416 122.227 253.569 122.38 253.646L123.529 253.722C123.835 253.646 124.218 253.493 124.524 253.416Z" fill="#323A50"/>
</g>
<defs>
<linearGradient id="paint0_linear_6392_36115" x1="270.816" y1="225.879" x2="69.5169" y2="78.6466" gradientUnits="userSpaceOnUse">
<stop offset="0.2655" stop-color="#032A3D" stop-opacity="0"/>
<stop offset="0.7809" stop-color="#032A3D"/>
</linearGradient>
<radialGradient id="paint1_radial_6392_36115" cx="0" cy="0" r="1" gradientUnits="userSpaceOnUse" gradientTransform="translate(166.511 218.054) scale(68.0289 67.7007)">
<stop offset="0.2655" stop-color="#032A3D" stop-opacity="0"/>
<stop offset="1" stop-color="#032A3D"/>
</radialGradient>
<linearGradient id="paint2_linear_6392_36115" x1="139.16" y1="110.457" x2="189.187" y2="306.837" gradientUnits="userSpaceOnUse">
<stop offset="0.4054" stop-color="#032A3D" stop-opacity="0"/>
<stop offset="1" stop-color="#032A3D"/>
</linearGradient>
<linearGradient id="paint3_linear_6392_36115" x1="103.071" y1="177.731" x2="234.655" y2="301.167" gradientUnits="userSpaceOnUse">
<stop offset="0.2655" stop-color="#032A3D" stop-opacity="0"/>
<stop offset="0.7809" stop-color="#032A3D"/>
</linearGradient>
<linearGradient id="paint4_linear_6392_36115" x1="110.284" y1="170.044" x2="241.868" y2="293.48" gradientUnits="userSpaceOnUse">
<stop offset="0.2655" stop-color="#032A3D" stop-opacity="0"/>
<stop offset="0.7809" stop-color="#032A3D"/>
</linearGradient>
<linearGradient id="paint5_linear_6392_36115" x1="107.622" y1="172.882" x2="239.205" y2="296.318" gradientUnits="userSpaceOnUse">
<stop offset="0.2655" stop-color="#032A3D" stop-opacity="0"/>
<stop offset="0.7809" stop-color="#032A3D"/>
</linearGradient>
<linearGradient id="paint6_linear_6392_36115" x1="82.737" y1="199.408" x2="214.321" y2="322.844" gradientUnits="userSpaceOnUse">
<stop offset="0.2655" stop-color="#032A3D" stop-opacity="0"/>
<stop offset="0.7809" stop-color="#032A3D"/>
</linearGradient>
<linearGradient id="paint7_linear_6392_36115" x1="101.415" y1="179.496" x2="232.999" y2="302.932" gradientUnits="userSpaceOnUse">
<stop offset="0.2655" stop-color="#032A3D" stop-opacity="0"/>
<stop offset="0.7809" stop-color="#032A3D"/>
</linearGradient>
<linearGradient id="paint8_linear_6392_36115" x1="91.0426" y1="190.553" x2="222.626" y2="313.989" gradientUnits="userSpaceOnUse">
<stop offset="0.2655" stop-color="#032A3D" stop-opacity="0"/>
<stop offset="0.7809" stop-color="#032A3D"/>
</linearGradient>
<linearGradient id="paint9_linear_6392_36115" x1="72.4828" y1="210.34" x2="204.066" y2="333.776" gradientUnits="userSpaceOnUse">
<stop offset="0.2655" stop-color="#032A3D" stop-opacity="0"/>
<stop offset="0.7809" stop-color="#032A3D"/>
</linearGradient>
<linearGradient id="paint10_linear_6392_36115" x1="75.759" y1="206.847" x2="207.342" y2="330.284" gradientUnits="userSpaceOnUse">
<stop offset="0.2655" stop-color="#032A3D" stop-opacity="0"/>
<stop offset="0.7809" stop-color="#032A3D"/>
</linearGradient>
<linearGradient id="paint11_linear_6392_36115" x1="85.9374" y1="195.997" x2="217.521" y2="319.433" gradientUnits="userSpaceOnUse">
<stop offset="0.2655" stop-color="#032A3D" stop-opacity="0"/>
<stop offset="0.7809" stop-color="#032A3D"/>
</linearGradient>
<linearGradient id="paint12_linear_6392_36115" x1="72.4374" y1="210.387" x2="204.021" y2="333.824" gradientUnits="userSpaceOnUse">
<stop offset="0.2655" stop-color="#032A3D" stop-opacity="0"/>
<stop offset="0.7809" stop-color="#032A3D"/>
</linearGradient>
<clipPath id="clip0_6392_36115">
<rect width="330" height="330" fill="white"/>
</clipPath>
</defs>
</svg>
