<svg width="361" height="185" viewBox="0 0 361 185" fill="none" xmlns="http://www.w3.org/2000/svg">
<g clip-path="url(#clip0_6249_32441)">
<path opacity="0.2" d="M233.249 16.5998C228.061 16.8998 218.982 18.8998 213.495 20.4998C210.203 21.4998 207.709 18.8999 206.811 18.2999C201.025 21.9999 198.431 22.6999 197.333 23.8999C195.737 25.4999 194.44 26.1999 192.944 27.8999L192.245 28.8999C192.046 29.0999 191.647 29.5999 191.547 29.7999C191.348 30.1999 190.849 30.4999 190.649 30.8999C190.549 31.0999 190.051 31.5999 190.051 31.7999C189.851 32.2999 189.352 32.1999 189.153 32.6999C188.454 34.5999 187.557 35.2999 186.459 36.8999C186.559 37.4999 185.461 38.7999 185.262 39.2999C184.963 40.4999 183.366 43.3998 182.967 44.5998C180.573 51.2999 179.575 61.6999 179.276 61.8999C178.877 62.4999 177.58 59.0998 179.974 48.9998C180.074 48.6998 179.476 46.6998 179.276 46.4998L178.079 46.3999C177.78 46.3999 176.981 49.3999 176.682 49.3999C176.582 49.3999 176.682 61.8999 176.682 61.8999C176.582 61.8999 174.487 62.7999 174.388 62.7999C173.29 62.9999 175.984 47.9999 174.886 48.2999C174.687 48.2999 175.086 44.5999 174.886 44.6999C174.787 44.6999 173.689 44.1999 173.589 44.2999C173.589 44.4999 173.091 45.1999 172.293 44.7999C172.093 46.0999 171.095 46.6999 169.998 47.2999C169.998 47.4999 169.699 47.5999 169.599 47.8999C169.3 48.7999 169.2 49.6998 168.701 50.4998C168.701 50.8998 168.302 51.2999 168.102 51.6999C168.003 51.8999 168.003 51.9999 167.903 52.1999C167.803 52.8999 167.703 53.4999 167.404 54.0998V54.2999C167.404 54.3999 167.604 54.5999 167.604 54.6999C167.703 56.0999 167.604 57.2999 167.105 58.5998C167.105 58.6998 167.005 58.7999 167.005 58.8999C167.005 59.3999 166.905 59.7999 166.706 60.2999C166.905 61.2999 166.905 62.1998 166.506 63.0998C166.506 63.3998 166.706 63.8999 166.606 64.1999C166.606 64.2999 166.506 64.7999 166.506 64.8999C166.506 65.7999 166.307 66.1998 166.307 67.0998V67.8999C166.307 68.2999 166.406 68.6998 166.506 69.0998C166.805 71.1998 167.005 73.2999 166.905 75.3999C166.905 75.6999 167.005 75.8999 167.105 76.1999C167.105 76.1999 167.504 76.9999 167.504 77.0998C167.903 77.3998 167.703 77.0998 168.003 77.4998C168.302 75.2998 168.801 73.0999 169.499 70.8999C170.297 68.4999 171.395 65.5999 173.39 63.8999C174.787 62.6999 176.383 62.2998 177.979 62.4998C180.174 62.1998 182.169 62.7999 182.868 64.8999L183.865 65.6999C183.965 65.7999 184.165 65.9999 184.264 66.1999C184.364 66.3999 184.763 66.4999 184.863 66.6999C185.461 67.3999 185.661 68.2998 186.26 68.9998C187.856 70.9998 188.554 72.0998 189.253 74.4998C189.352 74.7998 189.751 76.6998 189.751 76.9998C190.749 79.0998 190.649 80.8999 190.949 83.1999C191.148 84.4999 191.148 85.7999 191.148 87.0999C191.647 88.7999 192.146 90.5999 192.146 92.3999C192.146 94.2999 192.545 96.5998 192.345 98.4998C191.946 102.7 190.649 106.5 189.352 110.5C188.654 112.8 188.554 114.7 187.058 116.6C186.559 117.1 186.559 118.3 186.06 118.8C185.861 119.2 185.162 119.7 184.863 120.1C183.965 121.3 181.87 123.3 180.673 123.6C178.478 125.5 173.889 124.1 172.492 121.5C170.497 117.7 169 114.4 168.501 110.2C168.402 110.3 167.903 109.9 167.803 110C166.805 111.2 166.107 118.8 166.706 127.5C166.805 128.9 167.604 133.9 170.397 139C170.597 139.3 171.993 141.9 173.689 141.2C176.283 140.2 173.789 125 174.388 124C174.487 123.8 176.981 124 176.682 125.7C175.784 130.3 176.183 135 176.981 137.9C177.48 139.9 178.977 138.9 178.877 138.5C178.278 132.2 178.677 125.8 178.677 125.1C178.578 125.2 180.174 124.5 180.473 124.4C180.972 152.7 202.721 166.9 208.108 168.5C209.505 167.6 213.894 165.6 216.389 166.4C220.878 167.9 229.957 169.4 235.045 169.4C275.349 169.9 310.167 137.5 310.167 93.0999C310.167 62.5999 295.402 37.6999 269.862 24.0998C258.19 17.6998 244.522 15.9998 233.249 16.5998Z" fill="url(#paint0_radial_6249_32441)"/>
<path opacity="0.2" d="M159.224 42C159.224 42 131.589 90.7 158.925 141.1C158.925 141.1 131.789 126.8 128.497 97.3C128.297 92.6 128.996 87.7 128.996 87.7C131.589 64.5 159.224 42 159.224 42Z" fill="url(#paint1_radial_6249_32441)"/>
<path d="M232.352 185C218.983 185 206.114 182.2 194.142 176.7C182.569 171.4 172.293 163.8 163.714 154.3C162.317 152.9 161.12 151.8 160.122 150.8C155.633 146.4 155.234 146 152.141 143.3C151.742 143 151.343 142.6 150.944 142.2C147.153 138.9 140.169 132.8 134.183 124.5C126.9 114.3 123.109 103.6 123.109 92.7V92.4C123.209 81.5 126.9 70.8 134.183 60.6C140.169 52.3 147.153 46.2 150.944 42.9C151.443 42.5 151.842 42.2 152.141 41.8C154.435 39.8 155.234 39 157.329 37C158.526 35.8 160.222 34.2 162.816 31.6C171.396 21.8 181.671 14 193.443 8.5C205.615 2.8 218.684 0 232.252 0C244.723 0 256.794 2.40002 268.167 7.30002C279.141 12 289.018 18.6 297.498 27.1C305.978 35.6 312.662 45.5 317.251 56.5C322.04 67.9 324.534 80 324.534 92.5C324.534 94.8 324.534 100.1 327.328 103C328.525 104.2 330.321 104.8 332.416 104.8H333.713C340.796 104.8 352.568 104.7 360.15 107.4L359.651 108.7C352.369 106.1 340.696 106.2 333.713 106.2H332.416C329.922 106.2 327.827 105.5 326.33 103.9C323.138 100.7 323.138 94.9 323.138 92.5C323.138 42.2 282.334 1.40002 232.252 1.40002C206.014 1.40002 181.073 12.7 163.813 32.5C161.219 35 159.523 36.7 158.326 37.9C156.231 40 155.433 40.8 153.139 42.8C152.739 43.1 152.34 43.5 151.941 43.9C144.559 50.4 124.805 67.5 124.606 92.4V92.7C124.805 117.6 144.559 134.7 151.941 141.2C152.44 141.6 152.839 141.9 153.139 142.3C156.231 145 156.63 145.5 161.12 149.8C162.117 150.7 163.315 151.9 164.711 153.3C181.971 172.5 206.612 183.6 232.352 183.6C268.367 183.6 301.289 161.7 316.154 127.8C316.453 127.2 317.052 126.7 317.75 126.4C319.446 125.8 321.741 126.3 324.135 127.6C325.831 128.6 327.627 129.7 329.622 130.9C336.506 135.1 344.288 139.9 352.868 141.4L352.668 142.7C343.889 141.2 335.908 136.3 328.924 132C327.028 130.8 325.233 129.7 323.537 128.8C320.544 127.1 318.748 127.5 318.249 127.7C317.85 127.8 317.551 128.1 317.451 128.3C310.168 144.9 298.595 158.9 283.83 169C268.467 179.5 250.708 185 232.352 185Z" fill="#383F51"/>
<path d="M231.853 177.8C220.08 177.8 208.807 175.5 198.132 170.8C187.856 166.3 178.678 159.9 170.896 151.8L171.595 151.2C187.557 167.8 208.907 177 231.952 177C264.176 177 293.008 158.9 307.175 129.9C307.474 129.3 307.674 128.7 307.973 128.2C310.467 122.7 312.163 122.9 318.349 123.7L319.147 123.8L319.047 124.7L318.249 124.6C312.163 123.8 311.066 123.7 308.771 128.6C308.472 129.2 308.272 129.8 307.973 130.3C301.089 144.4 290.514 156.3 277.345 164.7C263.678 173.2 247.915 177.8 231.853 177.8Z" fill="#383F51"/>
<path d="M326.929 107.9C320.444 105.1 317.651 100.3 317.551 92.1001C316.953 46.3001 278.443 9.1001 231.753 9.1001C206.313 9.1001 185.163 21.1001 174.788 31.3001C174.489 31.6001 172.393 33.1001 169.001 35.6001C166.308 37.5001 163.315 39.8001 163.016 40.1001L162.417 39.4001C162.816 39.0001 165.111 37.3001 168.503 34.8001C170.997 33.0001 173.89 30.9001 174.189 30.6001C184.764 20.2001 206.114 8.1001 231.753 8.1001C243.226 8.1001 254.3 10.3001 264.875 14.6001C275.151 18.8001 284.329 24.8001 292.311 32.5001C308.872 48.3001 318.05 69.5001 318.349 92.0001C318.449 99.8001 321.143 104.3 327.228 107L326.929 107.9Z" fill="#383F51"/>
<path d="M236.542 170.2C234.746 170.2 232.85 170.1 230.955 170C225.867 169.6 220.779 168.6 215.99 167.2C215.491 167 214.294 167 213.197 167.1C211.9 167.2 209.705 168.1 208.208 169L207.51 167.9C208.907 167 211.301 165.9 213.097 165.8C214.094 165.7 215.591 165.7 216.389 165.9C221.178 167.3 226.066 168.3 231.154 168.7C271.06 171.8 306.177 140.2 309.37 98.1998C310.966 77.8998 304.88 58.1998 292.31 42.6998C279.74 27.2998 262.181 17.8999 242.926 16.3999C233.848 15.6999 224.869 16.6998 216.19 19.4998C214.294 20.0998 212.299 20.3998 211.301 20.2998C209.605 20.1998 207.61 19.1998 206.712 17.9998L207.809 17.1998C208.408 17.9998 210.004 18.8998 211.401 18.9998C212.299 18.9998 214.194 18.7998 215.89 18.1998C224.67 15.3998 233.848 14.2998 243.126 14.9998C262.78 16.4998 280.638 25.9998 293.507 41.7998C306.277 57.4998 312.462 77.5998 310.766 98.1998C309.17 118.9 299.992 137.7 284.927 151.3C271.26 163.7 254.3 170.2 236.542 170.2Z" fill="#383F51"/>
<path d="M358.654 111.8C352.07 109.1 344.089 109 337.704 109C332.416 108.9 328.226 108.9 326.031 107.5L326.53 106.7C328.525 107.9 332.815 108 337.704 108C344.188 108.1 352.269 108.2 358.954 110.9L358.654 111.8Z" fill="#383F51"/>
<path d="M353.266 139C347.28 138.3 340.995 134.8 334.909 131.4C328.824 128.1 323.137 124.9 317.949 124.4L318.049 123.5C323.436 124 329.223 127.2 335.308 130.6C341.294 133.9 347.579 137.3 353.366 138.1L353.266 139Z" fill="#383F51"/>
<path d="M158.924 142C150.045 128.4 146.254 112.8 146.553 91.7C147.252 65.5 153.138 51.9 158.924 42L159.722 42.5C154.036 52.3 148.15 65.8 147.551 91.7C147.252 112.7 151.043 128 159.722 141.5L158.924 142Z" fill="#383F51"/>
<path d="M172.293 153.2C166.107 146.8 161.718 143.9 157.827 141.2C156.031 140 154.435 138.9 152.739 137.5C145.855 132 140.568 126.4 136.577 120.4C130.791 111.8 127.897 102.4 127.897 92.4999V92.1999C127.897 78.4999 135.48 66.2999 141.865 58.3999C149.746 48.5999 158.625 41.7999 162.616 39.3999L163.114 40.1999C159.224 42.5999 150.444 49.2999 142.663 58.9999C136.377 66.7999 128.895 78.8999 128.895 92.1999V92.4999C128.895 109.1 136.976 123.6 153.437 136.8C155.133 138.1 156.729 139.3 158.525 140.5C162.416 143.1 166.806 146.1 173.091 152.6L172.293 153.2Z" fill="#383F51"/>
<path d="M239.235 174.9C227.563 174.9 213.097 172.9 200.926 165.3C193.244 160.5 186.46 152 182.769 142.6C180.075 135.4 179.476 130.7 178.978 123H179.875C180.374 130.6 180.973 135.3 183.567 142.4C187.158 151.5 193.942 160 201.325 164.7C223.273 178.6 253.302 173.5 259.089 172.3L259.288 173.2C256.694 173.6 249.012 174.9 239.235 174.9Z" fill="#383F51"/>
<path d="M174.887 155.8C166.706 148.4 165.509 144 163.913 138.5C163.813 138.1 163.713 137.8 163.614 137.4C161.918 130.9 161.519 121.5 162.416 110.9C162.516 109.6 163.614 108.7 164.911 108.7L167.804 108.9L167.704 109.4C165.01 120.4 166.806 132.6 170.098 138.1C170.896 139.5 171.794 140.3 172.592 140.5C172.792 140.5 172.892 140.5 172.991 140.4C173.79 139.8 173.69 136.5 173.59 134.6V133.9C173.49 130.4 172.792 122.9 172.792 122.8L172.692 121.8L173.49 122.4C174.488 123.1 175.486 123.6 176.284 123.8L176.683 123.9V124.3C176.683 124.3 176.084 129.9 176.383 135.1C176.483 136.9 177.082 137.8 177.481 138C177.581 138.1 177.68 138 177.68 138C177.88 137.8 178.279 137.1 178.079 135.2C177.182 127.6 177.98 124 178.079 123.9L178.977 124.1C178.977 124.1 178.179 127.7 179.077 135.1C179.277 136.9 179.077 138.2 178.379 138.7C178.079 138.9 177.581 139 177.182 138.8C176.284 138.4 175.685 137 175.585 135.2C175.386 130.7 175.685 126 175.785 124.6C175.186 124.4 174.488 124.1 173.79 123.7C173.989 125.8 174.488 131.1 174.488 133.9V134.6C174.588 137.6 174.588 140.2 173.49 141.1C173.191 141.3 172.792 141.4 172.393 141.3C171.295 141.1 170.298 140.1 169.3 138.5C165.908 133 164.013 120.7 166.607 109.7L164.811 109.6C164.013 109.6 163.314 110.1 163.314 110.9C162.416 121.4 162.815 130.7 164.511 137.1C164.611 137.5 164.711 137.8 164.811 138.2C166.307 143.6 167.504 147.9 175.486 155.1L174.887 155.8Z" fill="#383F51"/>
<path d="M179.776 62.7H178.878C179.377 54.9 179.975 50.3 182.669 43.1C186.36 33.7 193.244 25.2 200.826 20.4C223.074 6.30002 253.402 11.5 259.189 12.7L258.989 13.6C253.203 12.4 223.273 7.30001 201.225 21.2C193.843 25.8 187.059 34.4 183.467 43.5C180.873 50.4 180.175 55 179.776 62.7Z" fill="#383F51"/>
<path d="M164.511 77.0001C163.314 77.0001 162.216 76.1001 162.216 74.8001C161.318 64.2001 161.717 54.7001 163.413 48.3001L163.513 47.8001C165.209 42.0001 166.406 37.7001 174.886 30.1001L175.485 30.8001C167.204 38.2001 166.107 42.2001 164.411 48.1001L164.311 48.6001C162.715 55.0001 162.216 64.3001 163.114 74.8001C163.214 75.6001 163.812 76.2001 164.611 76.1001L166.406 76.0001C164.71 63.1001 166.207 50.7001 170.098 45.7001C171.095 44.5001 172.093 43.8001 173.29 43.7001C173.789 43.7001 174.188 43.8001 174.487 44.1001C175.285 44.9001 175.186 46.6001 174.986 48.9001C174.986 49.6001 174.886 50.3001 174.886 51.0001C174.787 53.3001 174.487 56.5001 174.288 58.8001C174.088 60.6001 173.988 61.7001 173.889 62.5001C174.487 62.1001 175.086 61.8001 175.784 61.6001C175.784 60.3001 175.585 55.8001 175.684 51.4001C175.784 48.4001 176.483 46.3001 177.68 45.8001C178.179 45.6001 178.677 45.7001 179.076 46.0001C179.875 46.7001 180.074 48.3001 179.575 50.0001C177.48 56.8001 178.677 61.9001 178.677 62.0001L177.78 62.2001C177.78 62.0001 176.582 56.8001 178.677 49.7001C179.176 48.2001 178.877 47.0001 178.478 46.6001C178.278 46.4001 178.079 46.5001 177.979 46.5001C177.38 46.7001 176.582 48.2001 176.483 51.3001C176.283 56.6001 176.582 61.8001 176.582 61.8001V62.2001L176.183 62.3001C175.186 62.5001 174.188 63.1001 173.39 63.7001C173.29 63.8001 173.19 63.8001 173.19 63.9001L172.891 64.0001L172.492 63.4001L172.692 63.2001C172.891 62.1001 173.589 55.0001 173.789 50.9001C173.789 50.2001 173.889 49.5001 173.889 48.8001C173.988 47.0001 174.188 45.2001 173.689 44.7001C173.589 44.6001 173.49 44.6001 173.19 44.6001C172.292 44.7001 171.395 45.3001 170.596 46.3001C167.404 50.4001 165.209 62.0001 167.105 76.4001L167.204 76.9001L164.411 77.1001C164.611 77.0001 164.511 77.0001 164.511 77.0001Z" fill="#383F51"/>
<path d="M162.716 109.9C162.716 109.8 160.521 102.6 160.62 91.7999C160.72 82.8999 162.217 75.3999 162.217 75.3999L163.115 75.5999C163.115 75.6999 161.618 82.9999 161.518 91.8999C161.319 102.5 163.514 109.7 163.514 109.7L162.716 109.9Z" fill="#383F51"/>
<g opacity="0.5">
<path d="M262.48 25.5L262.38 26C264.974 26.3 268.566 34 268.865 35.6C268.965 36.3 268.765 36.7 268.666 37.1C268.466 37.7 268.167 38.2 268.865 39.2C269.863 40.9 276.347 46.8 279.44 48.1C282.633 49.4 284.329 50.2 285.526 53.2C286.124 54.8 286.124 57.3 286.224 59.9C286.224 62.3 286.224 64.8 286.723 66.7C287.521 69.6 288.818 72.3 289.516 73.6C288.718 72.9 287.92 72.2 287.122 71.5C285.725 70.3 284.528 69.3 284.029 68.6C283.431 67.7 283.131 64.7 282.732 61.4C282.234 57 281.735 52 280.238 50.5C278.542 48.8 272.357 46.3 267.369 44.3C264.675 43.2 262.38 42.3 261.482 41.8C260.485 41.2 259.387 39.6 258.29 37.8C256.295 34.8 254.1 31.4 251.406 31.5V32C253.801 31.9 255.995 35.2 257.891 38.1C259.188 40 260.186 41.6 261.283 42.3C262.281 42.9 264.575 43.8 267.269 44.8C272.257 46.8 278.343 49.2 279.939 50.9C280.438 51.5 280.937 52.6 281.236 54.1C280.737 53.2 279.939 52 278.941 51.2C277.146 49.7 272.856 48.5 270.461 47.9C270.062 47.8 269.763 47.7 269.464 47.6C268.765 47.4 268.266 47.6 267.867 47.9C267.369 48.2 266.87 48.6 265.573 48.3C264.176 48.1 263.578 47.2 262.979 46.4C262.58 45.8 262.081 45.2 261.383 44.8C259.587 43.7 257.791 44.4 256.893 44.8H256.794C256.095 45 256.195 45.7 256.195 46.1C256.195 46.5 256.195 46.8 255.995 47C255.796 47.2 255.197 46.8 254.699 46.4C253.9 45.9 253.003 45.2 252.204 45.6L252.404 46.1C253.002 45.8 253.701 46.4 254.399 46.8C255.098 47.3 255.796 47.7 256.295 47.4C256.893 47.1 256.794 46.5 256.794 46C256.794 45.5 256.794 45.3 256.993 45.2H257.093C257.991 44.8 259.587 44.3 261.183 45.2C261.782 45.6 262.181 46.1 262.58 46.7C263.278 47.6 263.877 48.5 265.573 48.8C267.069 49 267.768 48.6 268.266 48.3C268.666 48.1 268.965 47.9 269.464 48.1C269.663 48.2 270.062 48.3 270.461 48.4C272.556 49 276.946 50.2 278.742 51.6C280.637 53.2 281.735 55.9 281.834 56.1C282.134 57.8 282.333 59.7 282.533 61.5C282.932 65 283.231 68 283.93 68.9C284.428 69.6 285.725 70.7 287.122 71.9C289.915 74.3 293.706 77.5 293.507 79.7C293.407 80.9 293.208 82.1 292.908 83.4C292.41 86.1 291.711 89.1 292.31 92.3C293.607 99 294.904 101.3 296.5 102.6C297.996 103.9 299.992 104.6 299.992 104.6L300.191 104.1C300.191 104.1 298.296 103.4 296.799 102.2C295.303 100.9 294.106 98.7 292.809 92.2C292.21 89 292.809 86.1 293.407 83.5C293.706 82.1 293.906 80.9 294.006 79.7C294.106 78 292.509 76.1 290.514 74.2L290.714 74.1C290.714 74.1 288.619 70.4 287.621 66.5C287.122 64.6 287.122 62.2 287.122 59.8C287.122 57.1 287.122 54.6 286.424 52.9C285.127 49.7 283.331 48.8 280.039 47.5C277.046 46.3 270.661 40.4 269.663 38.8C269.164 38 269.364 37.6 269.563 37.1C269.763 36.7 269.962 36.2 269.863 35.4C269.065 33.7 265.473 25.9 262.48 25.5Z" fill="url(#paint2_linear_6249_32441)"/>
<path d="M274.651 87.4C275.549 88.3 277.145 88.1 278.841 88C280.537 87.8 282.433 87.7 284.029 88.4C287.122 89.9 289.516 96.6 289.516 96.7L290.015 96.5C289.915 96.2 287.521 89.5 284.229 87.9C282.533 87.1 280.537 87.3 278.742 87.4C277.145 87.6 275.649 87.7 274.95 86.9C274.152 86.1 273.554 83.3 272.955 80.8C272.257 77.9 271.758 75.5 270.86 74.8C270.062 74.2 269.364 74.1 268.665 74C267.967 73.9 267.368 73.8 266.969 73.2C266.77 72.9 266.87 71.2 266.969 69.4C267.269 64.4 267.668 56.7 263.976 54C260.983 51.8 258.789 52.6 256.893 53.2C255.297 53.7 254 54.2 252.404 53.2C251.107 52.5 250.708 51.1 250.209 49.6C249.311 46.7 248.114 43 240.532 40.7C238.736 40.2 236.94 40.5 235.244 40.7C232.95 41.1 230.755 41.4 228.66 40L228.36 40.4C230.555 41.9 232.95 41.5 235.344 41.2C237.14 40.9 238.836 40.7 240.432 41.2C247.715 43.5 248.812 47 249.71 49.8C250.209 51.4 250.708 52.8 252.104 53.7C253.9 54.8 255.496 54.2 257.093 53.7C258.988 53.1 260.983 52.4 263.777 54.4C267.269 57 266.87 64.7 266.57 69.3C266.47 71.1 266.371 72.2 266.47 72.9C265.772 72.6 264.774 72.4 263.577 72.2C261.582 71.9 259.387 71.5 258.09 70.3C257.492 69.7 257.192 68.9 256.893 67.8C256.195 65.2 255.097 61.7 247.914 58.9C245.42 58.4 243.624 59 242.627 59.6C242.128 59.9 241.928 60.4 241.729 60.9C241.43 61.5 241.13 62.2 240.332 62.7C238.935 63.6 231.353 64 229.857 63.7C229.757 63.7 229.657 63.6 229.657 63.6C229.657 63.5 229.757 63.2 229.857 63C230.156 62.2 230.655 60.9 229.458 59.2L229.059 59.5C230.056 60.9 229.657 62 229.358 62.8C229.158 63.2 229.059 63.6 229.258 63.9C229.358 64.1 229.558 64.2 229.757 64.2C231.154 64.5 239.035 64.2 240.631 63.1C241.529 62.5 241.829 61.7 242.128 61.1C242.327 60.6 242.527 60.2 242.826 60C243.724 59.5 245.42 58.9 247.715 59.4C254.698 62.1 255.696 65.5 256.394 67.9C256.694 69 256.993 70 257.691 70.6C259.088 71.8 261.382 72.2 263.378 72.6C264.774 72.8 265.972 73.1 266.57 73.5C267.069 74.2 267.767 74.3 268.566 74.5C269.164 74.6 269.862 74.7 270.461 75.2C271.159 75.7 271.758 78.4 272.257 80.9C273.155 83.8 273.753 86.5 274.651 87.4Z" fill="url(#paint3_linear_6249_32441)"/>
<path d="M222.973 86.6C223.672 85.9 224.17 85.4 225.767 85.7C226.864 85.9 228.361 86.5 229.957 87.1C232.75 88.2 235.743 89.3 237.04 88.8C237.738 88.6 238.138 88.1 238.636 87.8C239.534 87 240.532 86.1 243.525 86.6C245.919 87 247.715 88.2 249.211 89.2C250.508 90.1 251.606 90.8 252.703 90.7C253.501 90.6 254.1 90.2 254.698 89.7C255.696 88.9 256.794 88.1 259.288 89.2C261.283 90 261.782 91.2 262.181 92.2C262.68 93.2 262.979 94.1 264.974 93.8C267.069 93.5 268.366 92.2 269.563 90.9C270.461 90 271.459 89.1 272.656 88.4L272.457 87.9C271.16 88.5 270.162 89.5 269.164 90.4C267.867 91.6 266.67 92.8 264.775 93.1C263.278 93.3 262.979 92.8 262.58 91.8C262.181 90.8 261.582 89.5 259.387 88.6C256.494 87.4 255.297 88.4 254.2 89.2C253.601 89.7 253.202 90 252.504 90.1C251.606 90.2 250.608 89.5 249.411 88.7C247.914 87.7 246.019 86.4 243.525 86C240.332 85.5 239.235 86.5 238.237 87.3C237.838 87.7 237.339 88 236.841 88.2C235.643 88.7 232.75 87.5 230.156 86.5C228.56 85.9 227.064 85.3 225.966 85.1C224.17 84.7 223.472 85.4 222.674 86.1C222.175 86.6 221.676 87.1 220.679 87.3L220.778 87.8C221.876 87.7 222.474 87.1 222.973 86.6Z" fill="url(#paint4_linear_6249_32441)"/>
<path d="M293.706 84C292.808 85.8 292.509 90.2 293.008 92.9C293.507 95.5 294.504 100.1 296.5 101.9C297.597 102.9 299.792 103.9 299.892 103.9L300.091 103.4C300.091 103.4 297.896 102.5 296.899 101.5C295.003 99.8 294.006 94.8 293.606 92.7C293.108 89.8 293.606 85.6 294.305 84.1C295.103 82.5 296.3 81.9 296.899 81.8C298.694 81.6 300.39 84.6 300.39 84.6L300.889 84.4C300.79 84.3 299.094 81 296.899 81.3C295.801 81.5 294.504 82.3 293.706 84Z" fill="url(#paint5_linear_6249_32441)"/>
<path d="M262.08 82.7C262.479 81.8 262.779 80.9 263.677 80.3C264.674 79.6 267.168 78.2 269.463 80.1C270.361 80.9 271.059 82.9 271.758 84.7C272.456 86.6 273.055 88.3 273.952 88.9C274.85 89.5 276.447 89.4 278.242 89.3C279.839 89.2 281.535 89.1 282.831 89.5C285.525 90.3 288.718 97 288.817 97.1L289.316 96.9C289.216 96.6 286.024 89.9 283.031 89C281.634 88.6 279.839 88.7 278.242 88.8C276.546 88.9 275.05 89 274.252 88.5C273.553 88 272.855 86.3 272.256 84.6C271.558 82.6 270.86 80.6 269.762 79.8C267.967 78.3 265.672 78.4 263.377 80C262.479 80.7 261.981 81.7 261.681 82.6C261.282 83.5 260.983 84.4 260.085 84.8C258.389 85.6 256.494 85 255.795 83.9C255.596 83.6 255.496 83.3 255.296 83C254.698 82.1 254.199 81.1 252.902 79.9C251.206 78.3 244.322 75.4 240.93 74.9C238.935 74.6 238.137 75.1 237.139 75.7C236.441 76.2 235.643 76.6 234.246 76.7V77.2C235.743 77.1 236.541 76.5 237.339 76.1C238.237 75.6 238.935 75.1 240.731 75.4C244.023 75.9 250.707 78.8 252.403 80.3C253.6 81.4 254.199 82.4 254.698 83.3C254.897 83.6 254.997 83.9 255.197 84.2C255.995 85.4 258.19 86.2 260.085 85.3C261.282 84.6 261.681 83.6 262.08 82.7Z" fill="url(#paint6_linear_6249_32441)"/>
</g>
<g opacity="0.5">
<path d="M291.711 104.9C290.314 105.1 289.217 106.7 288.119 108.3C287.221 109.5 286.224 111.4 285.326 113.1C284.528 114.6 283.829 115.8 283.43 116.3C283.33 116.4 283.231 116.5 283.031 116.7C281.734 117.5 278.741 118.1 276.347 117.9C274.95 117.8 273.953 117.9 273.055 118C272.157 118.1 271.458 118.2 270.86 118C270.361 117.8 270.361 117.5 270.261 116.9C270.161 116.4 270.062 115.7 269.264 115.4C268.565 115.1 267.767 115.2 266.969 115.4C266.171 115.5 265.473 115.6 265.073 115.3C264.674 115 264.475 114.6 264.375 114.2C264.176 113.7 263.976 113.2 263.377 112.8C262.779 112.4 261.981 112.9 261.083 113.6C259.686 114.6 257.791 115.9 255.396 115.3C252.802 114.7 252.902 113.9 253.102 112.8C253.201 112.3 253.301 111.6 253.002 111C252.603 109.9 250.308 109 247.914 108C246.118 107.2 244.223 106.4 243.624 105.7C243.025 104.9 242.926 104.2 242.826 103.6C242.726 102.9 242.626 102.4 242.028 101.9C241.329 101.3 240.332 101.7 239.434 101.9C238.935 102.1 238.337 102.2 238.137 102.1L237.937 102.5C238.337 102.7 238.935 102.5 239.633 102.3C240.332 102.1 241.23 101.8 241.729 102.2C242.227 102.6 242.227 103 242.427 103.6C242.527 104.2 242.726 105 243.325 105.9C243.923 106.7 245.819 107.5 247.814 108.3C249.909 109.2 252.304 110.1 252.603 111C252.802 111.5 252.703 112 252.603 112.6C252.403 113.8 252.304 114.9 255.297 115.7C257.89 116.3 259.886 114.9 261.382 113.9C262.18 113.4 262.779 112.9 263.178 113.1C263.677 113.4 263.876 113.8 264.076 114.3C264.275 114.7 264.375 115.2 264.974 115.6C265.572 116.1 266.47 115.9 267.268 115.8C267.967 115.7 268.665 115.6 269.363 115.8C269.962 116 270.062 116.4 270.062 117C270.161 117.5 270.261 118.1 270.96 118.4C271.658 118.7 272.456 118.6 273.354 118.5C274.152 118.4 275.15 118.3 276.546 118.4C278.043 118.5 279.839 118.3 281.435 117.9C279.639 119 276.846 120.5 274.052 120.7C271.758 120.9 270.96 120.5 269.663 119.8C268.465 119.2 267.069 118.5 263.876 117.9C259.287 117.1 254.997 119.1 252.703 120.5C252.304 120.4 249.211 119.4 248.313 117L247.914 115.8C247.116 113.5 246.417 111.5 245.819 110.4C245.121 109 242.726 107.9 241.329 107.7C240.432 107.6 239.933 108 239.534 108.4C239.135 108.7 238.736 109.1 238.037 109C237.439 109 236.84 108.1 236.241 107.1C235.344 105.7 234.146 103.9 232.251 103.2C229.956 102.4 228.859 103.2 227.961 103.9C227.462 104.3 227.063 104.6 226.564 104.8L226.664 105.3C227.362 105.1 227.861 104.7 228.26 104.4C229.158 103.7 229.956 103 232.051 103.7C233.847 104.4 234.945 106 235.842 107.4C236.641 108.6 237.239 109.5 238.037 109.5C238.935 109.6 239.434 109.1 239.933 108.8C240.332 108.4 240.731 108.1 241.329 108.3C242.826 108.5 244.921 109.7 245.52 110.7C246.018 111.7 246.817 113.8 247.615 116L248.014 117.2C248.812 119.4 251.206 120.5 252.304 120.8C251.605 121.2 251.206 121.5 251.206 121.6C251.206 121.6 246.916 126.3 243.724 128.4C240.432 130.5 237.738 130.5 236.84 129.3C236.341 128.7 236.241 127.5 236.241 126.1C236.241 124.8 236.142 123.4 235.643 122.1C234.945 120.1 232.151 118.7 231.253 118.4C230.056 117.8 228.36 117.3 227.562 117.6C226.165 118.1 225.666 120.3 225.666 120.4L226.165 120.5C226.165 120.5 226.564 118.5 227.761 118.1C228.26 117.9 229.457 118.2 231.054 118.9C232.65 119.6 234.645 121 235.144 122.4C235.643 123.6 235.643 125 235.743 126.3C235.842 127.8 235.842 129 236.441 129.8C237.538 131 240.332 131.3 244.023 129C247.216 127 251.306 122.5 251.605 122.2C251.905 122 257.591 117.5 263.976 118.6C267.169 119.1 268.565 119.9 269.663 120.4C269.962 120.5 270.161 120.7 270.461 120.8C268.865 121.4 267.967 121.3 267.268 121.3C266.171 121.2 265.672 121.3 264.774 122.7C263.577 124.6 263.377 128.2 263.278 130.7C263.178 131.7 263.178 132.5 263.078 132.9C262.679 134.4 262.081 135.2 260.684 135.6C259.586 135.9 259.187 135.6 258.689 135.2C258.489 135.1 258.389 134.9 258.19 134.8C257.89 134.6 257.691 134.2 257.491 133.8C256.993 132.9 256.194 131.6 254.399 131.7C252.802 131.8 252.304 132.8 251.705 133.8C251.306 134.5 251.007 135.2 250.209 135.8C248.413 137.2 243.125 138.8 240.232 139.1C237.04 139.4 231.054 138.8 230.655 138.3C230.555 138.1 230.954 137.2 231.253 136.6C231.852 135.4 232.55 133.8 232.351 132.7C232.351 132.5 232.251 132.4 232.251 132.2C231.952 130.8 231.752 130.7 230.455 130.8C229.457 130.9 229.358 131.6 229.258 132.2C229.158 132.6 229.158 133 228.859 133.3C228.161 133.8 225.766 133.6 224.868 133.5L224.769 134C225.168 134 228.26 134.4 229.158 133.7C229.657 133.3 229.657 132.8 229.757 132.3C229.857 131.7 229.956 131.4 230.455 131.3H231.353C231.453 131.4 231.553 131.7 231.652 132.3C231.652 132.5 231.752 132.6 231.752 132.8C231.952 133.7 231.253 135.2 230.754 136.3C230.256 137.4 229.956 138 230.056 138.4C230.455 139.5 237.738 139.8 240.132 139.6C243.125 139.3 248.413 137.7 250.408 136.2C251.206 135.6 251.605 134.8 252.004 134.1C252.503 133.1 252.902 132.3 254.299 132.2C255.795 132.1 256.394 133.1 256.893 134C257.192 134.5 257.392 134.9 257.791 135.1C257.99 135.2 258.19 135.4 258.289 135.5C258.888 136 259.387 136.4 260.784 136C262.28 135.5 263.078 134.6 263.577 132.9C263.677 132.6 263.677 132.1 263.777 131.5C264.076 131.9 264.076 132.3 263.976 132.7C263.976 133.2 263.976 133.7 264.275 134.2C264.874 135 265.872 134.5 266.57 134.2C266.869 134 267.268 133.9 267.368 133.9C267.568 133.9 267.667 134 267.767 134.1C267.967 134.4 268.066 134.9 267.967 135.6C267.867 136.4 266.67 137.5 265.971 138.1C265.672 138.3 265.473 138.6 265.373 138.7C265.173 139 265.173 139.4 265.173 139.7C265.173 140.1 265.273 140.5 264.974 141C264.774 141.2 264.575 141.4 264.275 141.4C263.677 141.5 262.978 141.2 262.879 141C262.779 140.9 262.779 140.7 262.779 140.5C262.779 140.2 262.779 139.8 262.579 139.4C262.18 138.9 261.382 138.7 260.285 138.8C259.686 138.9 259.586 139.4 259.586 139.9C259.586 140.4 259.586 141 258.788 141.3C258.289 141.5 257.791 141.2 257.092 140.8C256.095 140.2 254.798 139.5 253.002 140.5C250.807 141.7 251.106 143 251.206 143.9C251.306 144.2 251.306 144.5 251.206 144.7C251.106 144.9 251.007 145 250.907 145C250.707 145 250.508 144.9 250.408 144.9L250.109 145.3C250.109 145.3 250.608 145.6 251.007 145.5C251.306 145.4 251.505 145.2 251.605 144.8C251.705 144.5 251.705 144.1 251.605 143.7C251.406 142.8 251.206 141.8 253.102 140.8C254.698 140 255.696 140.5 256.693 141.1C257.392 141.5 258.09 141.9 258.788 141.6C259.786 141.2 259.886 140.4 259.886 139.8C259.886 139.3 259.985 139.2 260.085 139.2C260.983 139.1 261.681 139.3 261.981 139.7C262.18 139.9 262.081 140.2 262.081 140.4C262.081 140.7 262.081 141.1 262.28 141.3C262.579 141.5 263.377 141.9 264.076 141.8C264.575 141.8 264.974 141.5 265.173 141.2C265.572 140.6 265.572 140 265.473 139.6C265.473 139.3 265.473 139.1 265.572 139C265.672 138.9 265.872 138.7 266.171 138.5C266.969 137.8 268.266 136.6 268.366 135.7C268.465 134.9 268.366 134.2 268.066 133.8C267.867 133.6 267.568 133.5 267.268 133.4C266.969 133.4 266.57 133.6 266.171 133.8C265.373 134.2 264.874 134.4 264.575 134C264.275 133.6 264.375 133.3 264.375 132.8C264.375 132.2 264.375 131.5 263.677 130.9V130.7C263.777 128.3 264.076 124.7 265.073 123C265.872 121.8 266.271 121.8 267.169 121.8C267.967 121.8 269.164 121.9 271.059 121.1C271.857 121.4 272.755 121.5 274.252 121.4C278.841 121.1 283.43 117.5 283.729 117.3C283.929 117.1 284.129 117 284.228 116.8C284.627 116.3 285.326 115 286.224 113.5C287.121 111.9 288.219 110 289.017 108.8C290.015 107.3 291.112 105.8 292.209 105.6C292.708 105.5 293.307 105.7 293.905 106.2C296.2 107.9 304.381 110.1 304.58 110.2L304.68 109.7C304.181 109.6 296.4 107.4 294.205 105.8C293.008 105.1 292.309 104.8 291.711 104.9Z" fill="url(#paint7_linear_6249_32441)"/>
<path d="M293.806 108.4C291.312 109.1 288.718 112.7 287.92 113.9C286.324 116.4 286.024 122.3 286.623 125C286.822 126.2 287.321 127.1 287.72 127.9C288.119 128.8 288.518 129.5 288.518 130.5C288.518 132.5 288.818 133.6 289.516 134.6C289.716 134.8 289.815 134.8 290.015 134.9C290.414 134.9 290.813 134.5 291.212 134.1C291.511 133.8 291.91 133.3 292.11 133.4C292.21 133.4 292.309 133.6 292.409 133.7C293.108 135 292.11 136 292.11 136.1L292.509 136.5C292.509 136.5 293.806 135.2 292.908 133.5C292.709 133.2 292.509 133 292.21 133C291.711 132.9 291.312 133.4 290.813 133.9C290.613 134.1 290.214 134.6 290.015 134.5L289.915 134.4C289.217 133.5 289.017 132.5 289.017 130.6C289.017 129.5 288.618 128.7 288.219 127.8C287.82 127.1 287.421 126.2 287.221 125C286.723 122.5 287.022 116.7 288.419 114.3C289.317 112.9 291.811 109.7 294.005 109C294.604 108.8 295.701 109.1 296.5 109.5C301.089 111.4 304.281 112.1 304.281 112.1L304.381 111.6C304.381 111.6 301.189 110.9 296.599 109C296.001 108.7 294.604 108.2 293.806 108.4Z" fill="url(#paint8_linear_6249_32441)"/>
<path d="M293.307 107.3C292.409 107.4 291.412 108.4 291.013 108.7L290.913 108.8C288.718 110.6 286.623 113.3 286.024 115.1C285.825 115.6 285.725 116.2 285.625 116.9C284.229 119.7 283.73 122.5 283.231 125.2C282.932 126.6 282.632 128.2 282.233 129.6C281.036 133.6 274.452 140.3 274.152 140.6C273.853 140.8 268.166 145.3 266.171 145.8C265.273 146 260.983 147 259.786 147.4C258.789 147.8 256.793 153.6 256.494 154.7C256.394 157.5 256.095 161.6 255.895 161.9C255.596 162.4 254 162.9 253.301 162.8C253.102 162.8 252.803 162.5 252.603 162.1C252.304 161.6 251.805 161 251.007 160.9C250.408 160.8 248.712 161.2 245.919 161.9C243.225 162.6 239.634 163.4 239.035 163.2C238.437 163 238.337 162.6 238.237 162.3C238.137 161.9 238.037 161.5 237.439 161.4C237.239 161.4 237.04 161.4 237.04 161.5C236.741 161.7 236.741 162.3 236.84 163.1C236.84 163.9 236.94 164.9 236.541 165.3L236.94 165.6C237.439 165 237.339 164 237.339 163C237.339 162.5 237.239 161.9 237.339 161.8C237.539 161.8 237.638 162 237.738 162.3C237.838 162.7 238.037 163.3 238.836 163.6C239.534 163.9 242.128 163.3 246.019 162.3C248.213 161.8 250.508 161.2 251.007 161.3C251.605 161.4 251.905 161.9 252.204 162.3C252.503 162.7 252.803 163.1 253.202 163.2C254 163.3 255.796 162.7 256.195 162.1C256.594 161.6 256.793 156.3 256.893 154.6C257.99 151.4 259.387 147.9 259.886 147.6C260.784 147.2 263.677 146.5 266.171 146C268.266 145.5 274.152 140.9 274.352 140.7C274.651 140.4 281.335 133.7 282.632 129.5C283.031 128 283.331 126.5 283.63 125C284.029 122.9 284.428 120.7 285.326 118.4C285.226 119.6 285.126 121 285.027 122.3C284.927 123.4 284.827 124.4 284.827 125.2C284.129 131.4 283.231 134.8 281.635 137.1C279.839 139.6 273.254 147.2 272.456 147.8C272.057 148.1 271.558 148.3 270.96 148.4C270.461 148.5 269.962 148.7 269.364 148.9C267.269 149.8 264.974 153.5 263.278 156.1C262.38 157.5 261.682 158.6 261.283 158.9C260.684 159.3 260.285 159.2 259.786 158.9C259.387 158.7 258.988 158.6 258.489 158.6V159.1C258.988 159.1 259.287 159.3 259.587 159.4C260.185 159.6 260.684 159.9 261.582 159.3C262.081 159 262.779 157.9 263.677 156.4C265.273 153.8 267.568 150.3 269.563 149.4C270.062 149.2 270.561 149 271.06 148.9C271.758 148.7 272.257 148.6 272.756 148.2C273.554 147.6 280.238 139.9 282.034 137.4C283.63 135.1 284.628 131.6 285.326 125.3C285.426 124.5 285.525 123.5 285.525 122.4C285.725 119.6 285.925 116.5 286.523 115C287.122 113.3 289.117 110.7 291.212 108.9C291.212 108.9 291.312 108.9 291.312 108.8C291.611 108.5 292.609 107.6 293.307 107.5C294.005 107.4 295.402 107.9 297.298 108.6C299.093 109.3 301.388 110.1 304.082 110.8L304.181 110.3C301.488 109.6 299.193 108.8 297.397 108.1C295.602 107.7 294.205 107.2 293.307 107.3Z" fill="url(#paint9_linear_6249_32441)"/>
<path d="M223.871 159.6C224.27 159.6 224.869 160.1 225.467 160.5C226.664 161.3 228.061 162.2 229.158 161.7C229.757 161.4 230.256 160.6 230.854 159.6C231.952 157.9 233.349 155.8 235.942 154.9C240.033 153.5 247.415 150 247.415 150C247.515 150 253.202 145.7 258.888 147.2L258.988 146.7C253.302 145.2 247.615 149.3 247.116 149.6C247.016 149.6 246.917 149.7 246.617 149.8C246.518 149.2 246.118 147.9 244.921 147C244.023 146.3 242.926 146.1 241.629 146.2C239.334 146.5 237.239 147.6 235.344 148.5C233.748 149.3 232.351 150.1 231.353 150C230.455 149.9 230.356 149.4 230.156 148.8C229.957 148 229.657 147 227.961 146.8C226.166 146.6 225.367 147.9 224.769 148.9C224.27 149.7 223.871 150.2 223.372 150.2C221.776 150.1 219.481 147.7 219.481 147.7L219.082 148C219.182 148.1 221.477 150.5 223.272 150.6C224.17 150.7 224.669 149.9 225.168 149.1C225.766 148.1 226.465 147.1 227.961 147.3C229.358 147.5 229.558 148.1 229.757 148.9C229.957 149.6 230.156 150.4 231.353 150.5C232.55 150.6 233.947 149.8 235.643 149C237.439 148.1 239.534 147 241.729 146.7C242.926 146.5 243.924 146.8 244.722 147.4C245.819 148.2 246.118 149.6 246.218 150C244.023 151 238.935 153.3 235.843 154.4C233.049 155.3 231.553 157.6 230.455 159.3C229.857 160.2 229.358 160.9 228.859 161.2C228.061 161.7 226.764 160.8 225.667 160.1C224.968 159.6 224.27 159.2 223.871 159.1C223.173 159 222.075 159.7 220.878 160.5C219.781 161.2 218.484 162.1 217.686 162.2L217.785 162.7C218.783 162.5 220.08 161.7 221.277 160.9C222.275 160.2 223.372 159.5 223.871 159.6Z" fill="url(#paint10_linear_6249_32441)"/>
<path d="M295.403 110.2C294.006 110.8 292.909 112.5 292.11 113.8C291.811 114.3 291.512 114.7 291.312 114.9C291.113 115.1 290.913 115.1 290.714 115.2C290.115 115.3 289.616 115.5 289.118 116.8C288.319 118.7 287.92 123.2 288.918 124.7C289.317 125.3 289.816 125.4 290.115 125.4C291.113 125.3 292.11 124 292.51 122.9C292.809 122.1 293.607 122 294.405 122C295.103 122 295.902 121.9 296.301 121.3C296.5 120.9 296.799 120.8 296.999 120.8C297.298 120.9 297.597 121.3 297.697 122.3C297.897 123.7 297.298 126 297.298 126L297.797 126.1C297.797 126 298.396 123.8 298.196 122.2C298.096 121.1 297.697 120.4 297.099 120.2C296.7 120.1 296.201 120.3 295.802 120.9C295.602 121.3 294.904 121.3 294.305 121.4C293.407 121.5 292.31 121.6 291.911 122.7C291.512 123.9 290.614 124.8 289.916 124.9C289.616 124.9 289.417 124.8 289.217 124.5C288.419 123.2 288.718 119 289.517 117C290.015 115.9 290.315 115.8 290.714 115.7C291.013 115.7 291.312 115.6 291.612 115.3C291.811 115.1 292.11 114.6 292.51 114.1C293.208 112.9 294.405 111.2 295.602 110.7C296.5 110.3 297.398 110.7 298.695 111.3C299.892 111.8 301.389 112.5 303.484 112.8L303.583 112.3C301.588 112 300.092 111.4 298.894 110.8C297.598 110.2 296.5 109.7 295.403 110.2Z" fill="url(#paint11_linear_6249_32441)"/>
</g>
<path d="M177.082 122C174.289 122 172.094 119.1 170.498 113.5C169.101 108.4 168.303 101.3 168.303 93.0999C168.303 84.8999 169.101 77.9 170.498 72.7C172.094 67.2 174.289 64.2 177.082 64.2C179.875 64.2 182.968 67.4 185.363 72.7C187.857 78.4 189.253 85.5999 189.253 93.0999C189.253 100.6 187.857 107.8 185.363 113.5C182.968 118.8 179.875 122 177.082 122ZM177.082 64.3C171.794 64.3 168.403 75.5999 168.403 93.0999C168.403 110.6 171.794 121.9 177.082 121.9C182.669 121.9 189.054 109.3 189.054 93.0999C189.054 76.8999 182.569 64.3 177.082 64.3Z" fill="#383F51"/>
<path d="M177.082 120.6C174.688 120.6 172.792 117.8 171.396 112.6C170.198 107.7 169.5 101.1 169.5 93.3C169.5 85.5 170.198 78.9 171.396 74C172.692 68.7 174.688 66 177.082 66C179.476 66 182.17 68.9 184.165 74C186.36 79.4 187.557 86.2 187.557 93.3C187.557 100.4 186.36 107.2 184.165 112.6C182.17 117.7 179.576 120.6 177.082 120.6ZM177.082 66C172.593 66 169.7 76.7 169.7 93.2C169.7 109.7 172.593 120.4 177.082 120.4C181.871 120.4 187.458 108.5 187.458 93.2C187.458 77.9 181.871 66 177.082 66Z" fill="#383F51"/>
<path d="M176.982 118.8C175.086 118.8 173.49 116.2 172.493 111.3C171.495 106.7 170.996 100.5 170.996 93.2998C170.996 86.0998 171.495 79.7998 172.493 75.2998C173.59 70.3998 175.086 67.7998 176.982 67.7998C178.977 67.7998 181.172 70.5998 182.868 75.2998C184.764 80.3998 185.761 86.7998 185.761 93.2998C185.761 99.7998 184.764 106.2 182.868 111.3C181.172 116 178.977 118.8 176.982 118.8ZM176.982 67.8998C173.39 67.8998 171.096 77.8998 171.096 93.2998C171.096 108.7 173.39 118.7 176.982 118.7C178.878 118.7 181.072 115.9 182.768 111.3C184.664 106.2 185.662 99.7998 185.662 93.2998C185.662 86.7998 184.664 80.3998 182.768 75.2998C181.072 70.6998 178.977 67.8998 176.982 67.8998Z" fill="#383F51"/>
<path d="M177.082 116.8C173.591 116.8 172.394 104.2 172.394 93.4C172.394 82.6 173.591 70 177.082 70C180.175 70 183.966 80.4 183.966 93.4C183.966 106.3 180.175 116.8 177.082 116.8ZM177.082 70.1C174.289 70.1 172.493 79.3 172.493 93.4C172.493 107.5 174.289 116.7 177.082 116.7C178.579 116.7 180.275 114.2 181.572 109.9C183.068 105.2 183.866 99.4 183.866 93.4C183.866 87.4 183.068 81.6 181.572 76.9C180.275 72.6 178.579 70.1 177.082 70.1Z" fill="#383F51"/>
<path d="M177.381 114.6C174.887 114.6 173.989 103.3 173.989 93.4999C173.989 83.6999 174.887 72.3999 177.381 72.3999C179.676 72.3999 182.37 81.7999 182.37 93.4999C182.37 105.2 179.676 114.6 177.381 114.6ZM177.381 72.5999C175.386 72.5999 174.089 80.7999 174.089 93.5999C174.089 106.4 175.386 114.6 177.381 114.6C179.576 114.6 182.27 104.9 182.27 93.5999C182.27 82.2999 179.576 72.5999 177.381 72.5999Z" fill="#383F51"/>
<path d="M177.182 124.5C173.591 124.5 170.698 121.2 168.802 115C167.006 109.4 166.108 101.7 166.108 92.8998C166.108 84.0998 167.006 76.3998 168.802 70.7998C170.797 64.5998 173.691 61.2998 177.182 61.2998C180.874 61.2998 184.665 64.6998 187.558 70.6998C190.651 76.8998 192.347 84.7998 192.347 92.8998C192.347 101 190.651 108.9 187.558 115.1C184.565 121.1 180.774 124.5 177.182 124.5ZM177.182 62.3998C173.391 62.3998 171.097 67.0998 169.8 71.0998C168.104 76.4998 167.206 84.2998 167.206 92.8998C167.206 101.5 168.104 109.3 169.8 114.7C170.997 118.7 173.291 123.4 177.182 123.4C180.375 123.4 183.867 120.1 186.56 114.6C189.553 108.6 191.149 100.8 191.149 92.8998C191.149 84.9998 189.553 77.1998 186.56 71.1998C183.767 65.6998 180.275 62.3998 177.182 62.3998Z" fill="#383F51"/>
<path d="M120.416 91.6001H80.6094V92.1001H120.416V91.6001Z" fill="#383F51"/>
<path d="M127.998 96.9999C127.2 97.3999 125.604 97.9999 124.806 98.2999C124.706 97.7999 123.908 91.0999 124.905 85.8999C126.202 86.1999 126.801 86.5999 128.198 86.9999C127.499 91.4999 127.998 96.2999 127.998 96.9999Z" fill="#8C8C8C"/>
<mask id="mask0_6249_32441" style="mask-type:luminance" maskUnits="userSpaceOnUse" x="0" y="20" width="105" height="163">
<path d="M104.254 131.2L0 182.7L20.4518 116.9L28.832 131.7C28.832 131.7 26.1384 119.3 29.1313 114.5C32.4235 109.2 43.7967 107.4 42.7991 102.8C42.0009 98.9999 32.1242 99.0999 27.4353 95.7999C23.744 93.1999 23.8438 86.3999 23.8438 86.3999C23.8438 86.3999 24.2428 79.3999 24.3426 78.0999C24.7416 73.9999 25.8391 71.2999 33.8202 69.5999C38.4094 68.5999 56.1675 69.3999 56.8659 65.4999C57.664 61.1999 43.3977 54.9999 38.8085 51.1999C30.9271 44.7999 35.9153 30.2999 35.9153 30.2999L39.5068 20.3999L102.658 53.5999L104.254 131.2Z" fill="white"/>
</mask>
<g mask="url(#mask0_6249_32441)">
<path d="M173.491 194.5C116.724 194.5 70.4336 148.2 70.4336 91.1999C70.4336 34.1999 116.625 -12.1001 173.491 -12.1001C230.356 -12.1001 276.448 34.2999 276.448 91.1999C276.448 148.1 230.257 194.5 173.491 194.5ZM173.491 -6.00012C120.017 -6.00012 76.4195 37.5999 76.4195 91.2999C76.4195 145 119.917 188.6 173.491 188.6C227.064 188.6 270.562 145 270.562 91.2999C270.562 37.5999 226.964 -6.00012 173.491 -6.00012Z" fill="#A7BED3"/>
</g>
<mask id="mask1_6249_32441" style="mask-type:luminance" maskUnits="userSpaceOnUse" x="0" y="20" width="105" height="163">
<path d="M104.254 131.2L0 182.7L20.4518 116.9L28.832 131.7C28.832 131.7 26.1384 119.3 29.1313 114.5C32.4235 109.2 43.7967 107.4 42.7991 102.8C42.0009 98.9999 32.1242 99.0999 27.4353 95.7999C23.744 93.1999 23.8438 86.3999 23.8438 86.3999C23.8438 86.3999 24.2428 79.3999 24.3426 78.0999C24.7416 73.9999 25.8391 71.2999 33.8202 69.5999C38.4094 68.5999 56.1675 69.3999 56.8659 65.4999C57.664 61.1999 43.3977 54.9999 38.8085 51.1999C30.9271 44.7999 35.9153 30.2999 35.9153 30.2999L39.5068 20.3999L102.658 53.5999L104.254 131.2Z" fill="white"/>
</mask>
<g mask="url(#mask1_6249_32441)">
<path d="M174.188 201.5C113.631 201.5 64.4473 152.2 64.4473 91.5C64.4473 30.8 113.631 -18.5 174.188 -18.5C234.746 -18.5 283.93 30.8 283.93 91.5C283.93 152.2 234.746 201.5 174.188 201.5ZM174.188 -14.5C115.926 -14.5 68.4379 33.1 68.4379 91.5C68.4379 149.9 115.926 197.5 174.188 197.5C232.451 197.5 279.939 149.9 279.939 91.5C279.939 33.1 232.551 -14.5 174.188 -14.5Z" fill="#C4CECB"/>
</g>
<mask id="mask2_6249_32441" style="mask-type:luminance" maskUnits="userSpaceOnUse" x="0" y="20" width="105" height="163">
<path d="M104.254 131.2L0 182.7L20.4518 116.9L28.832 131.7C28.832 131.7 26.1384 119.3 29.1313 114.5C32.4235 109.2 43.7967 107.4 42.7991 102.8C42.0009 98.9999 32.1242 99.0999 27.4353 95.7999C23.744 93.1999 23.8438 86.3999 23.8438 86.3999C23.8438 86.3999 24.2428 79.3999 24.3426 78.0999C24.7416 73.9999 25.8391 71.2999 33.8202 69.5999C38.4094 68.5999 56.1675 69.3999 56.8659 65.4999C57.664 61.1999 43.3977 54.9999 38.8085 51.1999C30.9271 44.7999 35.9153 30.2999 35.9153 30.2999L39.5068 20.3999L102.658 53.5999L104.254 131.2Z" fill="white"/>
</mask>
<g mask="url(#mask2_6249_32441)">
<path d="M172.992 230C96.4721 230 34.1191 167.6 34.1191 90.7999C34.1191 13.9999 96.3723 -48.4001 172.992 -48.4001C249.611 -48.4001 311.864 13.9999 311.864 90.7999C311.864 167.6 249.611 230 172.992 230ZM172.992 -21.3001C111.337 -21.3001 61.0556 28.9999 61.0556 90.8999C61.0556 152.8 111.237 203.1 172.992 203.1C234.746 203.1 284.928 152.8 284.928 90.8999C284.928 28.9999 234.746 -21.3001 172.992 -21.3001Z" fill="#A5CECE"/>
</g>
<mask id="mask3_6249_32441" style="mask-type:luminance" maskUnits="userSpaceOnUse" x="0" y="20" width="105" height="163">
<path d="M104.254 131.2L0 182.7L20.4518 116.9L28.832 131.7C28.832 131.7 26.1384 119.3 29.1313 114.5C32.4235 109.2 43.7967 107.4 42.7991 102.8C42.0009 98.9999 32.1242 99.0999 27.4353 95.7999C23.744 93.1999 23.8438 86.3999 23.8438 86.3999C23.8438 86.3999 24.2428 79.3999 24.3426 78.0999C24.7416 73.9999 25.8391 71.2999 33.8202 69.5999C38.4094 68.5999 56.1675 69.3999 56.8659 65.4999C57.664 61.1999 43.3977 54.9999 38.8085 51.1999C30.9271 44.7999 35.9153 30.2999 35.9153 30.2999L39.5068 20.3999L102.658 53.5999L104.254 131.2Z" fill="white"/>
</mask>
<g mask="url(#mask3_6249_32441)">
<path d="M173.191 240C90.9851 240 24.043 172.9 24.043 90.5C24.043 8.1 90.9851 -59 173.191 -59C255.397 -59 322.339 8.1 322.339 90.5C322.339 172.9 255.397 240 173.191 240ZM173.191 -52C94.7762 -52 31.0265 11.9 31.0265 90.5C31.0265 169.1 94.7762 233 173.191 233C251.606 233 315.356 169.1 315.356 90.5C315.356 11.9 251.606 -52 173.191 -52Z" fill="#A0A8A8"/>
</g>
</g>
<defs>
<radialGradient id="paint0_radial_6249_32441" cx="0" cy="0" r="1" gradientUnits="userSpaceOnUse" gradientTransform="translate(225.97 83.0464) rotate(-90) scale(81.088 80.8972)">
<stop offset="0.27" stop-color="#212F3C" stop-opacity="0"/>
<stop offset="1" stop-color="#212F3C"/>
</radialGradient>
<radialGradient id="paint1_radial_6249_32441" cx="0" cy="0" r="1" gradientUnits="userSpaceOnUse" gradientTransform="translate(182.932 88.039) rotate(-90) scale(54.199 54.0715)">
<stop offset="0.27" stop-color="#212F3C" stop-opacity="0"/>
<stop offset="1" stop-color="#212F3C"/>
</radialGradient>
<linearGradient id="paint2_linear_6249_32441" x1="160.094" y1="119.728" x2="344.782" y2="30.5587" gradientUnits="userSpaceOnUse">
<stop offset="0.05" stop-color="#8DBCAD" stop-opacity="0.6"/>
<stop offset="0.48" stop-color="#5EA6AE" stop-opacity="0.6"/>
<stop offset="0.59" stop-color="#5CA7AF" stop-opacity="0.6"/>
<stop offset="0.66" stop-color="#5796AC" stop-opacity="0.7"/>
<stop offset="0.81" stop-color="#507DA7" stop-opacity="0.89"/>
<stop offset="0.88" stop-color="#4E74A6" stop-opacity="0.98"/>
</linearGradient>
<linearGradient id="paint3_linear_6249_32441" x1="157.154" y1="113.64" x2="341.842" y2="24.4702" gradientUnits="userSpaceOnUse">
<stop offset="0.05" stop-color="#8DBCAD" stop-opacity="0.6"/>
<stop offset="0.48" stop-color="#5EA6AE" stop-opacity="0.6"/>
<stop offset="0.59" stop-color="#5CA7AF" stop-opacity="0.6"/>
<stop offset="0.66" stop-color="#5796AC" stop-opacity="0.7"/>
<stop offset="0.81" stop-color="#507DA7" stop-opacity="0.89"/>
<stop offset="0.88" stop-color="#4E74A6" stop-opacity="0.98"/>
</linearGradient>
<linearGradient id="paint4_linear_6249_32441" x1="162.77" y1="125.27" x2="347.457" y2="36.0998" gradientUnits="userSpaceOnUse">
<stop offset="0.05" stop-color="#8DBCAD" stop-opacity="0.6"/>
<stop offset="0.48" stop-color="#5EA6AE" stop-opacity="0.6"/>
<stop offset="0.59" stop-color="#5CA7AF" stop-opacity="0.6"/>
<stop offset="0.66" stop-color="#5796AC" stop-opacity="0.7"/>
<stop offset="0.81" stop-color="#507DA7" stop-opacity="0.89"/>
<stop offset="0.88" stop-color="#4E74A6" stop-opacity="0.98"/>
</linearGradient>
<linearGradient id="paint5_linear_6249_32441" x1="174.272" y1="149.094" x2="358.96" y2="59.9248" gradientUnits="userSpaceOnUse">
<stop offset="0.05" stop-color="#8DBCAD" stop-opacity="0.6"/>
<stop offset="0.48" stop-color="#5EA6AE" stop-opacity="0.6"/>
<stop offset="0.59" stop-color="#5CA7AF" stop-opacity="0.6"/>
<stop offset="0.66" stop-color="#5796AC" stop-opacity="0.7"/>
<stop offset="0.81" stop-color="#507DA7" stop-opacity="0.89"/>
<stop offset="0.88" stop-color="#4E74A6" stop-opacity="0.98"/>
</linearGradient>
<linearGradient id="paint6_linear_6249_32441" x1="164.97" y1="129.828" x2="349.657" y2="40.6586" gradientUnits="userSpaceOnUse">
<stop offset="0.05" stop-color="#8DBCAD" stop-opacity="0.6"/>
<stop offset="0.48" stop-color="#5EA6AE" stop-opacity="0.6"/>
<stop offset="0.59" stop-color="#5CA7AF" stop-opacity="0.6"/>
<stop offset="0.66" stop-color="#5796AC" stop-opacity="0.7"/>
<stop offset="0.81" stop-color="#507DA7" stop-opacity="0.89"/>
<stop offset="0.88" stop-color="#4E74A6" stop-opacity="0.98"/>
</linearGradient>
<linearGradient id="paint7_linear_6249_32441" x1="235.34" y1="69.1354" x2="297.747" y2="176.552" gradientUnits="userSpaceOnUse">
<stop offset="0.05" stop-color="#8DBCAD" stop-opacity="0.6"/>
<stop offset="0.48" stop-color="#5EA6AE" stop-opacity="0.6"/>
<stop offset="0.59" stop-color="#5CA7AF" stop-opacity="0.6"/>
<stop offset="0.66" stop-color="#5796AC" stop-opacity="0.7"/>
<stop offset="0.81" stop-color="#507DA7" stop-opacity="0.89"/>
<stop offset="0.88" stop-color="#4E74A6" stop-opacity="0.98"/>
</linearGradient>
<linearGradient id="paint8_linear_6249_32441" x1="259.203" y1="55.2715" x2="321.61" y2="162.688" gradientUnits="userSpaceOnUse">
<stop offset="0.05" stop-color="#8DBCAD" stop-opacity="0.6"/>
<stop offset="0.48" stop-color="#5EA6AE" stop-opacity="0.6"/>
<stop offset="0.59" stop-color="#5CA7AF" stop-opacity="0.6"/>
<stop offset="0.66" stop-color="#5796AC" stop-opacity="0.7"/>
<stop offset="0.81" stop-color="#507DA7" stop-opacity="0.89"/>
<stop offset="0.88" stop-color="#4E74A6" stop-opacity="0.98"/>
</linearGradient>
<linearGradient id="paint9_linear_6249_32441" x1="232.622" y1="70.7146" x2="295.03" y2="178.131" gradientUnits="userSpaceOnUse">
<stop offset="0.05" stop-color="#8DBCAD" stop-opacity="0.6"/>
<stop offset="0.48" stop-color="#5EA6AE" stop-opacity="0.6"/>
<stop offset="0.59" stop-color="#5CA7AF" stop-opacity="0.6"/>
<stop offset="0.66" stop-color="#5796AC" stop-opacity="0.7"/>
<stop offset="0.81" stop-color="#507DA7" stop-opacity="0.89"/>
<stop offset="0.88" stop-color="#4E74A6" stop-opacity="0.98"/>
</linearGradient>
<linearGradient id="paint10_linear_6249_32441" x1="200.986" y1="89.0944" x2="263.394" y2="196.511" gradientUnits="userSpaceOnUse">
<stop offset="0.05" stop-color="#8DBCAD" stop-opacity="0.6"/>
<stop offset="0.48" stop-color="#5EA6AE" stop-opacity="0.6"/>
<stop offset="0.59" stop-color="#5CA7AF" stop-opacity="0.6"/>
<stop offset="0.66" stop-color="#5796AC" stop-opacity="0.7"/>
<stop offset="0.81" stop-color="#507DA7" stop-opacity="0.89"/>
<stop offset="0.88" stop-color="#4E74A6" stop-opacity="0.98"/>
</linearGradient>
<linearGradient id="paint11_linear_6249_32441" x1="260.697" y1="54.4038" x2="323.104" y2="161.82" gradientUnits="userSpaceOnUse">
<stop offset="0.05" stop-color="#8DBCAD" stop-opacity="0.6"/>
<stop offset="0.48" stop-color="#5EA6AE" stop-opacity="0.6"/>
<stop offset="0.59" stop-color="#5CA7AF" stop-opacity="0.6"/>
<stop offset="0.66" stop-color="#5796AC" stop-opacity="0.7"/>
<stop offset="0.81" stop-color="#507DA7" stop-opacity="0.89"/>
<stop offset="0.88" stop-color="#4E74A6" stop-opacity="0.98"/>
</linearGradient>
<clipPath id="clip0_6249_32441">
<rect width="360.15" height="185" fill="white"/>
</clipPath>
</defs>
</svg>
