<svg width="330" height="330" viewBox="0 0 330 330" fill="none" xmlns="http://www.w3.org/2000/svg">
<path d="M301.058 163.152C301.058 167.609 300.732 172.174 300.025 176.522C299.426 180.815 297.903 187.663 295.89 192.228C290.015 207.989 279.624 221.413 265.861 231.196C251.771 241.196 235.178 246.467 217.77 246.467C205.747 246.467 194.105 243.913 183.225 238.967C172.725 234.185 163.477 227.391 155.752 218.75L154.229 217.283C148.571 211.793 148.353 211.576 145.198 208.859C144.871 208.587 144.491 208.207 144.055 207.88C140.628 204.946 134.263 199.402 128.932 191.902C122.404 182.772 118.976 173.098 118.922 163.37V163.152C118.976 153.37 122.404 143.75 128.932 134.62C134.318 127.12 140.683 121.63 144.055 118.641C144.491 118.315 144.817 117.935 145.198 117.663C147.537 115.543 148.19 115 150.964 112.283C151.944 111.359 153.195 110.109 154.936 108.424C162.661 99.6196 172.018 92.6087 182.626 87.6631C193.67 82.5544 205.42 79.9457 217.715 79.9457C228.976 79.9457 239.857 82.1196 250.193 86.4674C260.094 90.6522 269.07 96.6305 276.686 104.293C284.357 111.957 290.341 120.815 294.53 130.761C298.882 140.978 301.058 151.902 301.058 163.152ZM119.683 163.152V163.37C119.847 185.87 137.854 201.413 144.599 207.283C145.035 207.609 145.415 207.989 145.742 208.261C148.843 211.033 149.115 211.25 154.773 216.739L156.296 218.207C171.963 235.652 194.377 245.652 217.715 245.652C251.988 245.652 283.106 224.022 295.074 191.957C297.033 187.446 298.556 180.707 299.154 176.413C299.862 172.065 300.188 167.609 300.188 163.152C300.188 117.717 263.14 80.6522 217.606 80.6522C193.778 80.6522 171.093 90.9783 155.425 108.859C153.739 110.489 152.433 111.739 151.4 112.717C148.625 115.435 148.027 116.033 145.633 118.152C145.307 118.424 144.926 118.804 144.491 119.13C137.854 125.054 119.847 140.598 119.683 163.152Z" fill="#323A50"/>
<path opacity="0.2" d="M154.936 121.196C153.304 118.261 152.107 116.685 148.626 119.674C142.805 124.783 123.275 140.163 123.111 163.424V163.641C123.275 186.902 142.859 202.283 148.626 207.391C152.107 210.435 154.12 208.044 155.154 206.685C151.346 200.707 148.299 195.272 146.014 188.207C145.96 188.044 141.717 179.13 141.608 164.239C141.608 164.185 141.553 154.13 144.491 144.62C147.646 132.989 151.4 127.391 154.936 121.196Z" fill="url(#paint0_linear_3748_13506)"/>
<path opacity="0.2" d="M218.585 232.011C256.051 232.011 286.424 201.547 286.424 163.967C286.424 126.388 256.051 95.924 218.585 95.924C181.119 95.924 150.746 126.388 150.746 163.967C150.746 201.547 181.119 232.011 218.585 232.011Z" fill="url(#paint1_radial_3748_13506)"/>
<path opacity="0.34" d="M186.923 92.5544C186.76 92.6088 186.597 92.6631 186.434 92.7718C186.923 92.9892 187.304 93.424 187.685 93.9674C188.501 95.3805 188.12 97.5544 186.542 98.2609C185.726 98.6957 184.965 99.0761 184.203 99.6196C183.768 99.837 183.442 100.163 183.006 100.435C182.843 100.544 182.843 100.544 183.006 100.435C182.952 100.489 182.843 100.544 182.789 100.598C182.626 100.707 182.462 100.87 182.245 101.033C180.83 102.283 179.416 103.75 178.6 104.891C178.056 105.652 177.621 106.413 177.185 107.228C177.077 107.446 176.968 107.717 176.859 107.935C176.859 107.989 176.859 107.989 176.805 107.989C176.641 108.424 176.533 108.804 176.369 109.294C176.261 109.783 176.152 110.217 176.043 110.707C176.043 110.707 175.934 111.413 175.934 111.359C175.934 111.522 175.88 111.63 175.88 111.848C175.771 112.989 175.771 114.022 175.771 115.163C175.88 119.239 176.533 122.717 177.022 126.63C177.566 130.815 177.838 134.946 178.165 139.13C178.763 147.337 179.742 155.435 179.851 163.696C179.905 167.717 179.198 171.739 178.491 175.707C177.784 179.674 177.24 183.315 176.859 187.065C175.934 195 175.445 203.098 176.206 211.087C176.315 212.717 174.9 213.967 173.432 214.185C173.432 214.239 173.432 214.294 173.486 214.348C173.595 214.837 173.704 215.272 173.921 215.707C173.976 215.924 174.084 216.196 174.139 216.467C174.193 216.576 174.193 216.63 174.248 216.685C175.064 218.587 176.206 220.38 177.403 222.065C177.457 222.12 177.729 222.5 177.729 222.554C177.893 222.772 178.056 223.044 178.328 223.207C178.654 223.641 179.035 223.967 179.361 224.402C180.123 225.163 180.939 225.924 181.755 226.576C181.809 226.63 181.864 226.63 181.864 226.685L181.918 226.739C182.136 226.902 182.354 227.065 182.571 227.228C183.006 227.446 183.333 227.772 183.768 227.989C184.203 228.207 184.53 228.478 184.965 228.641C185.074 228.696 185.835 228.967 185.074 228.696C185.291 228.75 185.509 228.859 185.726 228.913C187.358 229.511 188.338 231.033 187.902 232.772C187.794 233.37 187.413 233.913 186.978 234.294C187.086 234.348 187.195 234.239 187.304 234.294C196.607 238.261 206.834 240.598 217.551 240.598C260.257 240.598 294.856 206.033 294.856 163.37C294.856 120.707 260.257 86.1414 217.551 86.1414C206.671 86.2501 196.28 88.4783 186.923 92.5544Z" fill="url(#paint2_linear_3748_13506)"/>
<g opacity="0.2">
<path d="M246.33 103.152L246.275 103.641C248.614 103.913 251.879 110.815 252.096 112.283C252.205 112.88 252.042 113.207 251.933 113.587C251.77 114.13 251.498 114.565 252.042 115.544C252.967 117.065 258.842 122.446 261.671 123.587C264.554 124.783 266.077 125.544 267.165 128.261C267.764 129.728 267.764 131.957 267.764 134.348C267.764 136.522 267.764 138.75 268.253 140.489C268.961 143.098 270.158 145.544 270.702 146.794C269.994 146.141 269.233 145.544 268.58 144.946C267.329 143.913 266.241 142.935 265.805 142.337C265.207 141.576 264.935 138.75 264.609 135.815C264.173 131.848 263.684 127.337 262.378 125.924C260.855 124.348 255.251 122.12 250.736 120.326C248.342 119.402 246.275 118.587 245.459 118.044C244.589 117.5 243.555 116.033 242.522 114.457C240.781 111.739 238.713 108.696 236.211 108.75V109.239C238.387 109.185 240.4 112.12 242.086 114.728C243.229 116.413 244.208 117.88 245.187 118.478C246.058 119.022 248.125 119.837 250.573 120.761C255.034 122.5 260.637 124.783 262.052 126.25C262.541 126.794 262.922 127.826 263.249 129.13C262.759 128.261 262.052 127.228 261.127 126.522C259.495 125.217 255.578 124.13 253.456 123.533C253.13 123.424 252.803 123.37 252.586 123.315C251.933 123.152 251.552 123.37 251.117 123.587C250.627 123.859 250.192 124.185 248.995 124.022C247.69 123.804 247.146 123.098 246.656 122.283C246.221 121.739 245.894 121.25 245.242 120.815C243.664 119.837 241.978 120.489 241.107 120.761H241.053C240.454 120.978 240.509 121.522 240.509 121.957C240.563 122.391 240.563 122.609 240.345 122.717C240.128 122.826 239.638 122.554 239.149 122.174C238.441 121.685 237.625 121.141 236.918 121.467L237.081 121.902C237.625 121.685 238.278 122.12 238.822 122.554C239.475 123.044 240.073 123.424 240.509 123.098C241.053 122.826 240.998 122.283 240.944 121.848C240.889 121.413 240.889 121.25 241.107 121.141H241.161C242.032 120.815 243.446 120.272 244.806 121.141C245.35 121.467 245.731 121.957 246.112 122.5C246.71 123.315 247.309 124.13 248.832 124.457C250.192 124.674 250.791 124.348 251.28 123.967C251.607 123.75 251.879 123.641 252.314 123.75C252.477 123.804 252.858 123.859 253.184 123.967C255.143 124.511 259.06 125.598 260.692 126.848C262.433 128.261 263.412 130.707 263.466 130.978C263.684 132.5 263.901 134.294 264.065 135.87C264.391 138.967 264.717 141.685 265.316 142.554C265.805 143.207 266.893 144.13 268.199 145.272C270.756 147.391 274.129 150.326 274.02 152.337C273.966 153.37 273.748 154.511 273.476 155.707C272.986 158.098 272.442 160.815 272.932 163.75C274.074 169.837 275.217 171.848 276.686 173.044C278.046 174.239 279.787 174.783 279.841 174.783L280.004 174.348C280.004 174.348 278.263 173.75 276.958 172.663C275.598 171.522 274.51 169.565 273.367 163.587C272.823 160.761 273.367 158.044 273.911 155.707C274.129 154.457 274.401 153.37 274.51 152.283C274.618 150.761 273.095 148.967 271.354 147.283L271.518 147.228C271.518 147.174 269.613 143.859 268.689 140.326C268.199 138.641 268.199 136.467 268.199 134.348C268.199 131.957 268.199 129.62 267.601 128.098C266.458 125.217 264.772 124.402 261.834 123.207C259.114 122.065 253.347 116.848 252.477 115.38C251.987 114.674 252.205 114.348 252.368 113.859C252.531 113.424 252.695 112.989 252.586 112.283C252.314 110.489 248.995 103.424 246.33 103.152Z" fill="url(#paint3_linear_3748_13506)"/>
<path d="M257.373 158.967C258.189 159.728 259.603 159.62 261.181 159.511C262.704 159.402 264.445 159.239 265.914 159.946C268.688 161.304 270.864 167.337 270.919 167.446L271.408 167.337C271.354 167.12 269.178 161.033 266.186 159.62C264.663 158.913 262.813 159.022 261.235 159.13C259.766 159.239 258.461 159.348 257.808 158.696C257.101 157.989 256.502 155.435 256.067 153.207C255.469 150.598 254.925 148.37 254.217 147.826C253.51 147.283 252.857 147.174 252.259 147.12C251.606 147.011 251.117 146.957 250.736 146.359C250.573 146.087 250.627 144.511 250.736 142.88C250.953 138.37 251.389 131.467 247.961 128.967C245.241 127.011 243.228 127.663 241.542 128.261C240.127 128.75 238.876 129.13 237.407 128.261C236.211 127.609 235.884 126.359 235.395 125C234.524 122.337 233.436 119.076 226.69 116.957C225.113 116.467 223.426 116.739 221.849 116.957C219.727 117.283 217.714 117.609 215.919 116.359L215.701 116.794C217.714 118.152 219.89 117.772 222.012 117.5C223.589 117.283 225.113 117.011 226.581 117.5C233.164 119.565 234.198 122.663 235.014 125.217C235.503 126.685 235.884 127.935 237.19 128.75C238.822 129.674 240.291 129.239 241.651 128.75C243.337 128.152 245.187 127.554 247.635 129.402C250.79 131.685 250.409 138.696 250.246 142.88C250.192 144.457 250.137 145.544 250.192 146.141C249.539 145.924 248.614 145.707 247.581 145.544C245.84 145.272 243.772 144.891 242.63 143.859C242.086 143.315 241.868 142.609 241.596 141.631C240.944 139.348 240.019 136.087 233.49 133.587H233.436C231.206 133.098 229.628 133.641 228.649 134.185C228.214 134.402 227.996 134.891 227.778 135.381C227.561 135.924 227.234 136.522 226.527 136.957C225.276 137.772 218.421 138.152 217.061 137.826C216.952 137.826 216.898 137.772 216.898 137.772C216.844 137.717 216.952 137.446 217.007 137.174C217.224 136.467 217.714 135.217 216.68 133.75L216.245 133.967C217.17 135.272 216.844 136.25 216.517 136.957C216.408 137.391 216.3 137.663 216.408 137.88C216.463 137.989 216.626 138.098 216.898 138.152C218.204 138.37 225.33 138.152 226.745 137.228C227.506 136.685 227.887 135.978 228.159 135.489C228.322 135.054 228.486 134.728 228.812 134.565C229.682 134.076 231.097 133.587 233.218 134.022C239.529 136.467 240.399 139.511 241.052 141.739C241.324 142.717 241.596 143.587 242.249 144.185C243.5 145.326 245.568 145.652 247.417 146.033C248.669 146.196 249.757 146.467 250.301 146.794C250.79 147.446 251.443 147.554 252.041 147.663C252.64 147.772 253.184 147.826 253.782 148.315C254.435 148.804 254.979 151.25 255.414 153.424C256.013 155.761 256.557 158.207 257.373 158.967Z" fill="url(#paint4_linear_3748_13506)"/>
<path d="M210.588 158.261C211.241 157.663 211.73 157.228 213.145 157.5C214.07 157.663 215.43 158.207 216.898 158.804C219.51 159.783 222.121 160.815 223.318 160.326C223.916 160.109 224.297 159.728 224.732 159.402C225.603 158.696 226.473 157.88 229.139 158.261C231.26 158.587 232.893 159.728 234.253 160.598C235.449 161.359 236.429 162.065 237.408 162.011C238.169 161.957 238.714 161.522 239.149 161.087C240.074 160.38 240.998 159.62 243.338 160.598C245.187 161.359 245.623 162.446 246.003 163.315C246.439 164.239 246.765 165 248.56 164.783C250.41 164.511 251.607 163.315 252.749 162.174C253.565 161.359 254.436 160.544 255.578 159.946L255.415 159.511C254.218 160.109 253.293 160.978 252.423 161.794C251.28 162.935 250.192 163.967 248.451 164.239C247.037 164.457 246.874 164.022 246.439 163.044C246.003 162.174 245.514 160.924 243.555 160.109C240.89 158.967 239.856 159.891 238.822 160.707C238.278 161.141 237.897 161.467 237.299 161.522C236.537 161.576 235.613 160.978 234.47 160.217C233.11 159.294 231.424 158.098 229.193 157.772C226.31 157.283 225.331 158.207 224.406 158.967C223.971 159.294 223.644 159.62 223.1 159.837C222.067 160.272 219.401 159.185 217.007 158.315C215.538 157.717 214.178 157.174 213.199 157.011C211.567 156.685 210.914 157.228 210.207 157.88C209.717 158.315 209.282 158.75 208.357 158.913L208.466 159.402C209.554 159.239 210.098 158.696 210.588 158.261Z" fill="url(#paint5_linear_3748_13506)"/>
<path d="M274.563 155.87C273.802 157.446 273.421 161.467 273.91 163.913C274.346 166.25 275.27 170.435 277.011 172.011C277.991 172.935 279.949 173.75 280.058 173.75L280.221 173.315C280.221 173.315 278.263 172.446 277.338 171.63C275.651 170.054 274.672 165.544 274.346 163.75C273.856 161.087 274.346 157.337 274.998 155.978C275.706 154.511 276.739 153.967 277.283 153.913C278.915 153.75 280.384 156.467 280.384 156.467L280.819 156.304C280.765 156.196 279.187 153.261 277.229 153.533C276.522 153.641 275.325 154.348 274.563 155.87Z" fill="url(#paint6_linear_3748_13506)"/>
<path d="M245.948 154.674C246.275 153.859 246.601 153.043 247.363 152.5C248.233 151.848 250.518 150.543 252.531 152.337C253.347 153.043 254 154.783 254.653 156.522C255.251 158.207 255.849 159.837 256.665 160.272C257.481 160.815 258.896 160.761 260.528 160.598C261.997 160.489 263.52 160.435 264.717 160.707C267.165 161.413 270.103 167.554 270.103 167.609L270.538 167.446C270.429 167.228 267.546 161.087 264.88 160.326C263.574 160 261.997 160.109 260.528 160.217C259.005 160.326 257.645 160.38 256.937 160C256.285 159.565 255.686 157.989 255.197 156.413C254.544 154.674 253.891 152.826 252.966 152.065C251.388 150.707 249.267 150.761 247.2 152.228C246.329 152.826 245.948 153.75 245.622 154.565C245.295 155.38 244.969 156.196 244.207 156.576C242.684 157.283 240.943 156.739 240.345 155.815C240.182 155.598 240.073 155.272 239.855 155.054C239.311 154.185 238.876 153.37 237.679 152.283C236.156 150.87 229.9 148.207 226.908 147.772C225.167 147.5 224.296 147.935 223.48 148.478C222.828 148.913 222.175 149.293 220.869 149.402L220.924 149.891C222.284 149.783 223.045 149.293 223.698 148.913C224.46 148.424 225.167 147.989 226.745 148.261C229.682 148.75 235.83 151.304 237.298 152.663C238.441 153.641 238.876 154.565 239.42 155.38C239.583 155.598 239.692 155.924 239.91 156.141C240.617 157.283 242.63 157.88 244.371 157.065C245.241 156.467 245.567 155.598 245.948 154.674Z" fill="url(#paint7_linear_3748_13506)"/>
</g>
<g opacity="0.2">
<path d="M272.77 174.837C271.519 175 270.539 176.413 269.506 177.88C268.744 179.022 267.819 180.707 266.894 182.174C266.187 183.478 265.48 184.62 265.208 185.054C265.154 185.163 264.99 185.272 264.773 185.38C263.63 186.087 260.91 186.63 258.68 186.522C257.429 186.467 256.504 186.576 255.688 186.63C254.872 186.739 254.273 186.793 253.729 186.576C253.294 186.413 253.24 186.087 253.185 185.652C253.131 185.163 253.022 184.511 252.26 184.239C251.608 184.022 250.846 184.13 250.193 184.185C249.54 184.239 248.888 184.348 248.452 184.076C248.017 183.804 247.908 183.478 247.8 183.098C247.636 182.663 247.473 182.228 246.875 181.794C246.331 181.467 245.623 181.902 244.753 182.5C243.502 183.37 241.761 184.565 239.585 184.076C237.3 183.533 237.354 182.826 237.518 181.848C237.572 181.359 237.681 180.815 237.463 180.272C237.137 179.348 235.07 178.424 232.948 177.554C231.316 176.848 229.575 176.141 229.14 175.489C228.596 174.783 228.487 174.185 228.378 173.587C228.269 172.989 228.215 172.446 227.617 172.065C226.964 171.522 226.093 171.848 225.332 172.065C224.842 172.174 224.407 172.337 224.135 172.228L223.917 172.663C224.352 172.826 224.842 172.717 225.44 172.554C226.093 172.391 226.909 172.12 227.345 172.5C227.78 172.826 227.834 173.207 227.943 173.804C228.052 174.402 228.161 175.109 228.759 175.87C229.303 176.576 230.989 177.283 232.839 178.044C234.743 178.804 236.865 179.674 237.137 180.489C237.3 180.978 237.246 181.413 237.191 181.902C237.082 182.935 236.919 184.022 239.585 184.674C241.924 185.217 243.774 183.967 245.134 183.043C245.841 182.554 246.439 182.12 246.712 182.337C247.201 182.609 247.31 182.989 247.473 183.37C247.582 183.804 247.745 184.185 248.289 184.565C248.888 185 249.649 184.837 250.356 184.728C251.009 184.62 251.662 184.565 252.206 184.728C252.75 184.891 252.804 185.326 252.859 185.761C252.913 186.25 252.968 186.739 253.675 187.065C254.328 187.283 254.981 187.228 255.851 187.12C256.613 187.011 257.483 186.957 258.734 187.011C260.094 187.12 261.726 186.957 263.141 186.576C261.509 187.554 258.952 188.859 256.504 189.13C254.382 189.294 253.675 188.913 252.532 188.37C251.499 187.826 250.193 187.174 247.256 186.685C243.067 185.978 239.204 187.826 237.191 188.967C236.756 188.859 234.036 188.044 233.22 185.87L232.785 184.728C232.077 182.663 231.37 180.87 230.881 179.891C230.228 178.641 228.106 177.663 226.801 177.446C226.039 177.337 225.549 177.663 225.168 178.044C224.733 178.315 224.407 178.641 223.754 178.641C223.21 178.587 222.72 177.826 222.122 176.957C221.252 175.707 220.218 174.13 218.477 173.478C216.355 172.717 215.431 173.478 214.615 174.13C214.179 174.457 213.853 174.783 213.309 174.891L213.418 175.326C214.016 175.217 214.451 174.783 214.887 174.457C215.703 173.804 216.464 173.207 218.314 173.859C219.892 174.457 220.925 175.978 221.741 177.174C222.448 178.207 222.992 179.022 223.754 179.13C224.57 179.185 225.06 178.804 225.44 178.478C225.876 178.152 226.148 177.88 226.746 177.989C228.106 178.207 230.01 179.239 230.5 180.163C230.989 181.087 231.642 182.989 232.349 185L232.785 186.141C233.492 188.152 235.722 189.076 236.647 189.457C236.049 189.891 235.722 190.109 235.668 190.163C235.614 190.217 231.805 194.402 228.813 196.304C225.876 198.207 223.428 198.152 222.557 197.12C222.068 196.576 222.013 195.543 221.959 194.239C221.904 193.043 221.85 191.794 221.415 190.598C220.762 188.859 218.259 187.554 217.443 187.228C216.301 186.685 214.778 186.25 214.071 186.522C212.765 187.011 212.384 188.967 212.33 189.076L212.819 189.13C212.819 189.13 213.255 187.283 214.288 186.957C214.723 186.848 215.811 187.011 217.28 187.663C218.749 188.315 220.544 189.511 220.98 190.761C221.415 191.902 221.469 193.098 221.524 194.239C221.578 195.543 221.632 196.685 222.176 197.337C223.156 198.478 225.712 198.696 229.031 196.576C231.914 194.728 235.614 190.707 235.94 190.38C236.212 190.163 241.38 186.141 247.147 187.12C249.976 187.609 251.281 188.261 252.315 188.75C252.532 188.859 252.804 188.967 253.022 189.076C251.608 189.62 250.792 189.565 250.139 189.511C249.214 189.457 248.67 189.511 247.854 190.815C246.82 192.5 246.603 195.815 246.494 197.989C246.439 198.859 246.385 199.62 246.331 200C246.004 201.413 245.406 202.065 244.155 202.446C243.175 202.717 242.849 202.5 242.305 202.011C242.196 201.902 242.033 201.793 241.815 201.576C241.598 201.413 241.326 201.033 241.163 200.707C240.673 199.891 240.02 198.75 238.388 198.859C236.974 198.913 236.484 199.837 235.994 200.815C235.668 201.467 235.342 202.12 234.634 202.554C233.002 203.804 228.215 205.272 225.604 205.544C222.72 205.815 217.226 205.326 216.899 204.837C216.845 204.674 217.171 203.913 217.498 203.315C218.042 202.174 218.695 200.761 218.423 199.837C218.368 199.674 218.368 199.565 218.314 199.348C218.042 198.098 217.879 197.989 216.682 198.043C215.811 198.098 215.703 198.75 215.648 199.294C215.594 199.728 215.539 200 215.213 200.217C214.615 200.707 212.384 200.489 211.568 200.435L211.514 200.924C211.84 200.978 214.615 201.25 215.539 200.652C215.975 200.326 216.029 199.837 216.083 199.402C216.192 198.804 216.247 198.533 216.736 198.533C217.226 198.478 217.443 198.478 217.552 198.587C217.661 198.696 217.715 199.022 217.824 199.457C217.879 199.565 217.879 199.728 217.933 199.946C218.096 200.761 217.498 202.065 217.008 203.098C216.519 204.076 216.301 204.62 216.41 205C216.736 205.924 223.373 206.25 225.604 206.033C228.324 205.815 233.166 204.348 234.852 202.989C235.559 202.446 235.994 201.685 236.321 201.033C236.81 200.109 237.191 199.402 238.388 199.348C239.748 199.293 240.238 200.109 240.727 200.978C240.945 201.413 241.217 201.739 241.489 201.957C241.652 202.065 241.815 202.174 241.979 202.283C242.523 202.772 242.958 203.098 244.209 202.772C245.623 202.337 246.331 201.522 246.657 200C246.711 199.728 246.766 199.294 246.766 198.696C246.984 199.022 246.984 199.402 246.984 199.837C246.984 200.272 246.929 200.761 247.256 201.196C247.8 201.957 248.67 201.467 249.323 201.141C249.595 201.033 249.921 200.87 250.084 200.87C250.193 200.87 250.302 200.924 250.411 201.033C250.574 201.25 250.628 201.739 250.574 202.391C250.465 203.098 249.377 204.076 248.724 204.674C248.507 204.891 248.235 205.109 248.18 205.217C248.017 205.435 248.017 205.815 248.072 206.087C248.126 206.413 248.126 206.848 247.908 207.228C247.8 207.391 247.582 207.554 247.256 207.554C246.712 207.609 246.113 207.391 245.95 207.228C245.895 207.174 245.895 207.011 245.895 206.739C245.895 206.467 245.895 206.087 245.678 205.815C245.243 205.326 244.644 205.163 243.611 205.217C243.012 205.272 243.012 205.761 243.012 206.141C243.012 206.63 242.958 207.12 242.305 207.391C241.815 207.554 241.38 207.337 240.782 206.957C239.911 206.413 238.714 205.761 237.137 206.739C235.124 207.772 235.396 208.967 235.559 209.837C235.614 210.109 235.668 210.435 235.614 210.598C235.559 210.761 235.45 210.87 235.396 210.87C235.233 210.924 235.07 210.815 234.961 210.761L234.743 211.087C234.798 211.087 235.178 211.359 235.559 211.25C235.777 211.196 236.049 211.033 236.158 210.652C236.266 210.38 236.212 210 236.158 209.674C236.049 208.913 235.831 207.989 237.518 207.011C238.932 206.25 239.857 206.793 240.782 207.228C241.435 207.554 242.033 207.935 242.74 207.717C243.665 207.391 243.719 206.576 243.719 206.087C243.719 205.598 243.774 205.544 243.883 205.544C244.699 205.489 245.297 205.598 245.569 205.978C245.678 206.141 245.678 206.413 245.678 206.63C245.678 206.902 245.678 207.228 245.895 207.446C246.113 207.663 246.875 207.989 247.528 207.88C247.963 207.826 248.289 207.663 248.507 207.337C248.833 206.794 248.833 206.304 248.779 205.87C248.779 205.598 248.724 205.38 248.833 205.272C248.888 205.163 249.105 205.054 249.377 204.783C250.084 204.13 251.281 203.098 251.39 202.228C251.39 202.228 251.39 202.228 251.39 202.174C251.499 201.413 251.39 200.815 251.118 200.489C250.955 200.326 250.683 200.217 250.411 200.163C250.139 200.163 249.812 200.326 249.432 200.489C248.724 200.815 248.235 201.087 247.963 200.652C247.745 200.326 247.745 200 247.745 199.62C247.745 199.076 247.8 198.424 247.092 197.935C247.092 197.88 247.092 197.826 247.092 197.826C247.201 195.707 247.419 192.446 248.398 190.815C249.105 189.674 249.432 189.674 250.302 189.783C251.064 189.837 252.043 189.891 253.838 189.13C254.545 189.348 255.361 189.457 256.721 189.348C260.856 189.076 265.045 185.815 265.317 185.652C265.48 185.544 265.643 185.38 265.806 185.217C266.133 184.728 266.786 183.587 267.547 182.228C268.363 180.761 269.288 179.076 270.104 177.935C271.029 176.63 272.008 175.217 273.042 175.109C273.531 175.054 274.021 175.163 274.565 175.652C276.687 177.228 284.031 179.239 284.303 179.239L284.357 178.75C283.868 178.696 276.796 176.685 274.892 175.217C273.967 174.891 273.368 174.728 272.77 174.837Z" fill="url(#paint8_linear_3748_13506)"/>
<path d="M274.675 177.989C272.445 178.641 269.997 181.848 269.398 182.935C267.984 185.217 267.712 190.489 268.201 192.935C268.419 194.076 268.8 194.837 269.126 195.544C269.453 196.304 269.833 196.957 269.833 197.826C269.833 199.674 270.051 200.652 270.704 201.522C270.813 201.685 270.976 201.739 271.139 201.739C271.465 201.739 271.846 201.413 272.173 201.033C272.39 200.761 272.825 200.326 273.043 200.38C273.152 200.38 273.206 200.489 273.261 200.598C273.913 201.794 273.043 202.717 272.989 202.772L273.315 203.098C273.315 203.098 274.512 201.902 273.75 200.38C273.587 200.109 273.424 199.946 273.152 199.891C272.662 199.837 272.281 200.326 271.901 200.652C271.683 200.87 271.357 201.25 271.193 201.25L271.139 201.196C270.541 200.435 270.377 199.511 270.377 197.772C270.377 196.794 270.051 196.087 269.616 195.217C269.289 194.565 268.909 193.804 268.691 192.772C268.201 190.489 268.528 185.272 269.833 183.098C270.595 181.794 272.88 178.913 274.893 178.315C275.437 178.207 276.416 178.424 277.123 178.804C281.258 180.544 284.195 181.141 284.195 181.141L284.25 180.707C284.25 180.707 281.312 180.109 277.232 178.37C276.742 178.207 275.437 177.717 274.675 177.989Z" fill="url(#paint9_linear_3748_13506)"/>
<path d="M274.349 176.902C273.533 177.011 272.663 177.826 272.282 178.152C272.227 178.207 272.227 178.207 272.227 178.207C270.269 179.837 268.419 182.283 267.821 183.859C267.658 184.348 267.549 184.837 267.386 185.489C266.134 188.098 265.699 190.544 265.209 192.989C264.992 194.294 264.665 195.652 264.339 197.011C263.305 200.598 257.267 206.685 257.049 206.902C256.832 207.065 251.609 211.196 249.814 211.576C249.052 211.739 245.135 212.609 244.047 213.044C243.122 213.478 241.382 218.587 241.055 219.62C240.946 222.174 240.729 225.815 240.457 226.141C240.185 226.576 238.77 227.011 238.172 226.902C237.954 226.902 237.737 226.631 237.573 226.304C237.301 225.815 236.866 225.326 236.159 225.163C235.615 225.109 234.037 225.435 231.481 226.087C229.087 226.685 225.768 227.5 225.17 227.283C224.626 227.12 224.572 226.739 224.463 226.413C224.408 226.087 224.299 225.707 223.755 225.598C223.592 225.544 223.429 225.652 223.32 225.707C223.103 225.924 223.103 226.467 223.157 227.174C223.211 227.881 223.266 228.804 222.939 229.185L223.266 229.457C223.755 228.913 223.701 227.989 223.592 227.174C223.592 226.739 223.538 226.196 223.647 226.033C223.864 226.087 223.864 226.141 223.973 226.522C224.082 226.848 224.191 227.391 224.952 227.717C225.605 227.935 227.944 227.446 231.481 226.522C233.493 226.033 235.506 225.544 235.941 225.598C236.485 225.652 236.757 226.141 237.084 226.522C237.301 226.957 237.628 227.283 238.009 227.337C238.716 227.446 240.348 226.902 240.783 226.359C241.11 225.87 241.382 221.141 241.436 219.565C242.361 216.631 243.666 213.478 244.156 213.261C244.972 212.935 247.638 212.283 249.868 211.794C251.827 211.359 257.049 207.228 257.267 207.011C257.484 206.794 263.632 200.652 264.774 196.957C265.209 195.598 265.427 194.239 265.645 192.935C265.971 190.978 266.406 189.076 267.168 187.011C267.059 188.152 267.005 189.348 266.896 190.544C266.842 191.522 266.787 192.5 266.678 193.207C266.08 198.804 265.209 201.902 263.795 203.913C262.217 206.196 256.179 213.044 255.472 213.641C255.036 213.913 254.656 214.076 254.057 214.239C253.622 214.348 253.187 214.457 252.643 214.728C250.684 215.598 248.617 218.859 247.094 221.196C246.332 222.446 245.625 223.478 245.244 223.75C244.7 224.076 244.374 223.967 243.884 223.804C243.558 223.696 243.177 223.533 242.687 223.533V224.022C243.122 224.022 243.394 224.131 243.666 224.239C244.21 224.457 244.646 224.674 245.407 224.185C245.843 223.913 246.441 222.881 247.366 221.522C248.835 219.239 250.902 215.978 252.752 215.217C253.241 215 253.676 214.891 254.112 214.728C254.71 214.565 255.145 214.457 255.635 214.076C256.342 213.478 262.489 206.576 264.067 204.294C265.536 202.174 266.406 199.076 267.005 193.37C267.059 192.663 267.114 191.739 267.222 190.707C267.386 188.261 267.658 185.435 268.093 184.076C268.637 182.554 270.432 180.217 272.391 178.587C272.391 178.587 272.445 178.533 272.499 178.533C272.771 178.315 273.696 177.5 274.349 177.391C275.002 177.337 276.307 177.717 277.994 178.37C279.626 178.967 281.693 179.728 284.196 180.381L284.304 179.946C281.856 179.294 279.844 178.533 278.157 177.935C276.307 177.283 275.111 176.794 274.349 176.902Z" fill="url(#paint10_linear_3748_13506)"/>
<path d="M211.351 224.13C211.678 224.185 212.222 224.565 212.82 224.946C213.962 225.652 215.159 226.522 216.138 225.978C216.682 225.707 217.118 225 217.716 224.13C218.695 222.609 220.001 220.652 222.395 219.891C226.094 218.641 232.785 215.489 232.84 215.489H232.894C232.949 215.435 238.171 211.63 243.285 212.88L243.394 212.446C238.225 211.087 233.057 214.728 232.677 215.109C232.622 215.109 232.459 215.217 232.187 215.326C232.078 214.783 231.697 213.641 230.664 212.772C229.902 212.174 228.923 211.957 227.672 212.065C225.604 212.283 223.646 213.315 221.959 214.185C220.491 214.946 219.239 215.598 218.315 215.489C217.553 215.435 217.39 214.946 217.172 214.348C217.009 213.641 216.682 212.772 215.159 212.609C213.527 212.446 212.82 213.533 212.276 214.511C211.786 215.217 211.514 215.707 210.97 215.652C209.501 215.544 207.434 213.424 207.434 213.424L207.108 213.696C207.162 213.75 209.284 215.924 210.916 216.033C211.732 216.087 212.222 215.38 212.602 214.674C213.146 213.804 213.745 212.826 215.05 213.044C216.302 213.152 216.465 213.804 216.628 214.511C216.791 215.163 217.063 215.87 218.097 215.978C219.131 216.033 220.436 215.38 221.959 214.62C223.591 213.75 225.496 212.772 227.508 212.554C228.542 212.446 229.521 212.609 230.174 213.152C231.153 213.913 231.48 215.109 231.534 215.489C229.576 216.413 224.952 218.478 222.123 219.457C219.675 220.272 218.26 222.337 217.226 223.859C216.682 224.62 216.247 225.326 215.812 225.544C215.105 225.978 213.962 225.217 212.983 224.565C212.33 224.076 211.732 223.75 211.351 223.696C210.698 223.641 209.773 224.239 208.631 225C207.652 225.652 206.509 226.413 205.693 226.522L205.748 227.011C206.673 226.902 207.815 226.141 208.849 225.435C209.937 224.728 210.916 224.076 211.351 224.13Z" fill="url(#paint11_linear_3748_13506)"/>
<path d="M276.198 179.565C274.947 180.109 273.968 181.685 273.206 182.826C272.934 183.315 272.662 183.641 272.499 183.804C272.336 183.967 272.172 183.967 271.955 184.022C271.411 184.13 270.976 184.294 270.486 185.435C269.779 187.12 269.452 191.25 270.323 192.609C270.649 193.152 271.084 193.207 271.465 193.207C272.39 193.098 273.206 191.957 273.587 190.924C273.804 190.217 274.566 190.163 275.328 190.109C275.98 190.054 276.633 190 277.014 189.511C277.232 189.185 277.504 189.022 277.667 189.076C277.885 189.13 278.211 189.565 278.32 190.489C278.429 191.794 277.885 193.804 277.885 193.859L278.374 193.967C278.374 193.913 278.918 191.848 278.809 190.435C278.701 189.457 278.32 188.804 277.83 188.696C277.395 188.587 277.014 188.804 276.633 189.294C276.416 189.62 275.872 189.62 275.273 189.728C274.512 189.783 273.424 189.837 273.152 190.87C272.825 191.902 272.009 192.826 271.411 192.88C271.193 192.88 270.921 192.772 270.758 192.554C270.051 191.359 270.268 187.554 270.976 185.761C271.411 184.783 271.737 184.728 272.118 184.565C272.336 184.511 272.662 184.457 272.88 184.13C273.043 183.967 273.369 183.533 273.641 183.098C274.294 182.065 275.328 180.489 276.416 180C277.177 179.674 277.993 180.054 279.19 180.598C280.333 181.087 281.638 181.739 283.542 182.011L283.597 181.522C281.856 181.304 280.496 180.652 279.353 180.163C278.157 179.565 277.177 179.13 276.198 179.565Z" fill="url(#paint12_linear_3748_13506)"/>
</g>
<path d="M162.389 203.478C173.807 203.478 183.062 186.056 183.062 164.565C183.062 143.074 173.807 125.652 162.389 125.652C150.972 125.652 141.717 143.074 141.717 164.565C141.717 186.056 150.972 203.478 162.389 203.478Z" fill="#2A697F"/>
<path d="M156.949 192.446C163.92 192.446 169.57 180.061 169.57 164.783C169.57 149.505 163.92 137.12 156.949 137.12C149.979 137.12 144.328 149.505 144.328 164.783C144.328 180.061 149.979 192.446 156.949 192.446Z" fill="#293C4F"/>
<path d="M148.189 164.565C148.189 150.815 152.487 139.402 158.036 137.826C157.546 137.717 157.165 137.663 156.73 137.663C150.583 137.663 145.523 149.728 145.523 164.62C145.523 179.457 150.528 191.576 156.73 191.576C157.22 191.576 157.655 191.467 158.036 191.413C152.487 189.728 148.189 178.37 148.189 164.565Z" fill="#DBDBDB"/>
<path d="M160.376 137.88L158.2 138.533C152.814 140.109 148.788 151.359 148.788 164.62C148.788 177.88 152.868 189.239 158.2 190.707L160.376 191.359L158.2 192.011C157.656 192.174 157.166 192.174 156.731 192.174C153.521 192.174 150.584 189.293 148.299 183.913C146.123 178.696 144.926 171.848 144.926 164.565C144.926 157.228 146.123 150.326 148.299 145.217C150.475 139.946 153.521 136.957 156.731 136.957C157.221 136.957 157.656 137.065 158.2 137.12L160.376 137.88ZM146.014 164.565C146.014 178.207 150.203 189.457 155.588 190.761C150.91 187.12 147.537 176.63 147.537 164.565C147.537 152.5 150.91 142.011 155.588 138.37C150.312 139.674 146.014 150.924 146.014 164.565Z" fill="#323A50"/>
<path d="M153.902 215.652C153.467 215.435 152.542 214.728 152.27 214.402C152.053 214.402 152.597 214.837 152.379 214.62C151.944 214.511 151.563 214.185 151.454 213.696C150.965 213.587 150.529 213.261 150.421 212.717C150.257 212.717 149.985 212.663 149.822 212.554C150.856 213.804 152.379 215.326 153.63 216.141C159.941 219.674 179.362 214.837 211.405 201.794C218.477 198.913 225.495 195.924 231.533 193.152V192.391C204.224 204.565 163.586 220.761 153.902 215.652Z" fill="#323A50"/>
<path d="M153.521 240.054C148.244 236.304 145.85 230.217 146.394 221.957C146.721 217.228 147.972 213.207 148.57 211.467C148.407 211.359 148.135 211.196 148.026 210.924C147.482 212.391 146.013 216.793 145.687 221.848C145.089 230.217 147.645 236.739 153.031 240.543C153.684 241.196 173.051 260.054 186.162 265.978C189.589 267.554 189.426 270.707 189.045 276.467C188.773 281.25 188.338 287.772 189.807 296.522L190.459 296.413C188.991 287.717 189.426 281.25 189.698 276.467C190.024 270.652 190.296 267.12 186.379 265.326C175.717 260.435 160.756 246.902 155.37 241.902C160.049 243.641 167.556 242.609 178.002 238.75C187.957 235.054 200.524 228.804 215.375 220.217C220.87 217.065 226.256 213.75 231.369 210.489V209.728C226.31 212.989 220.652 216.359 215.049 219.62C181.864 239.022 160.593 246.087 153.521 240.054Z" fill="#323A50"/>
<path d="M153.521 86.6304C148.244 90.3804 145.85 96.4674 146.394 104.728C146.721 109.457 147.972 113.478 148.57 115.217C148.407 115.326 148.135 115.489 148.026 115.761C147.482 114.293 146.013 109.891 145.687 104.837C145.089 96.5217 147.645 90.0543 153.031 86.25C153.684 85.5978 173.051 66.7391 186.162 60.8152C189.589 59.2391 189.426 56.0869 189.045 50.3261C188.773 45.5435 188.338 39.0217 189.807 30.2717L190.459 30.3804C188.991 39.0761 189.426 45.5435 189.698 50.3261C190.024 56.1413 190.296 59.6739 186.379 61.4674C175.717 66.3587 160.756 79.8913 155.37 84.8913C160.049 83.1522 167.556 84.1848 178.002 88.0435C187.957 91.7391 200.524 97.9891 215.375 106.576C220.87 109.728 226.256 113.043 231.369 116.304V117.065C226.31 113.804 220.652 110.435 215.049 107.174C181.864 87.7174 160.593 80.6522 153.521 86.6304Z" fill="#323A50"/>
<path d="M153.738 111.359C153.303 111.576 151.345 112.88 150.964 113.098C150.746 113.098 151.78 111.793 151.617 111.902C151.181 112.011 150.855 112.5 150.692 112.935C150.202 113.043 149.985 113.098 149.876 113.641C149.713 113.641 149.821 114.185 149.658 114.239C150.692 112.989 152.215 111.467 153.466 110.652C159.777 107.12 179.198 111.957 211.241 125C218.313 127.88 225.331 130.87 231.369 133.641V134.402C204.005 122.446 163.422 106.25 153.738 111.359Z" fill="#323A50"/>
<g opacity="0.3">
<path d="M295.618 163.424C295.618 163.478 295.618 163.533 295.618 163.533C295.618 177.174 291.81 190.815 284.684 202.88V202.935L284.085 203.533C275.381 218.533 261.726 229.891 244.753 236.25C238.225 238.804 231.153 240.326 223.264 240.978C219.565 241.141 216.138 241.141 212.438 240.978C208.794 240.815 205.094 240.272 200.797 239.348C196.39 238.424 192.038 237.011 187.305 234.946L187.631 234.185C192.201 236.196 196.608 237.609 200.96 238.533C205.257 239.457 208.902 239.946 212.493 240.163C216.138 240.326 219.565 240.326 223.264 240.163C231.044 239.511 238.062 237.989 244.535 235.489C261.4 229.185 274.837 217.935 283.487 203.098V203.043L284.085 202.446C298.447 178.207 298.502 149.13 284.249 124.728C283.487 123.533 282.616 122.283 281.8 120.87C273.477 107.989 261.672 98.2609 246.548 92.1196C245.841 91.8478 245.079 91.5761 244.318 91.3044C243.556 91.087 242.795 90.7609 242.087 90.4891C227.78 85.7609 213.2 85.2718 198.729 88.9131H198.675C198.076 89.0218 190.678 91.4674 187.305 92.9348L186.979 92.1739C190.134 90.8152 197.587 88.3696 198.512 88.1522C213.146 84.5109 227.943 85.0544 242.359 89.7826H242.414C243.121 90.0544 243.883 90.3261 244.59 90.5435C245.351 90.7609 246.113 91.087 246.875 91.3587C262.053 97.6087 274.075 107.391 282.453 120.435C283.269 121.848 284.085 123.098 284.847 124.239C291.865 136.304 295.618 149.837 295.618 163.424Z" fill="#323A50"/>
</g>
<path d="M68.3821 162.717C68.3821 168.206 63.9212 172.717 58.3722 172.717C52.9865 172.717 37.8084 163.424 37.1556 163.043L36.666 162.772L37.1556 162.5C37.8084 162.065 52.9865 152.826 58.3722 152.826C63.8668 152.772 68.3821 157.228 68.3821 162.717ZM38.0805 162.717C40.8005 164.348 53.8025 171.956 58.481 171.956C63.5948 171.956 67.7293 167.772 67.7293 162.717C67.7293 157.663 63.5404 153.478 58.481 153.478C53.7481 153.478 40.8005 161.087 38.0805 162.717Z" fill="#323A50"/>
<path d="M55.272 168.804L55.1088 169.511C51.2463 168.533 44.2285 164.783 43.8477 164.62L44.1741 163.967C44.3373 164.022 51.5183 167.826 55.272 168.804Z" fill="#323A50"/>
<path d="M63.7047 167.283C61.0935 170.544 56.7413 169.891 56.5781 169.891L56.6869 169.185C56.7413 169.185 60.8758 169.783 63.1607 166.902L63.7047 167.283Z" fill="#323A50"/>
<path d="M91.9931 159.457H76.9238V166.033H91.9931V171.196L104.125 163.044V162.989L91.9931 154.402V159.457Z" fill="#FF4200"/>
<path d="M148.299 211.033C148.027 211.902 147.429 213.533 146.885 215.761L148.517 211.413C148.517 211.359 148.354 211.141 148.299 211.033Z" fill="#323A50"/>
<path d="M149.658 212.391L146.013 221.957C145.959 222.446 145.959 222.826 145.959 223.261L149.985 212.663C149.876 212.554 149.767 212.446 149.658 212.391Z" fill="#323A50"/>
<path d="M151.019 213.478L146.068 226.522C146.068 226.793 146.123 227.12 146.177 227.391L151.454 213.641C151.291 213.641 151.128 213.587 151.019 213.478Z" fill="#323A50"/>
<path d="M152.596 214.62C152.541 214.62 152.541 214.62 152.487 214.62L146.666 229.946C146.72 230.163 146.775 230.435 146.829 230.652L152.868 214.837C152.759 214.728 152.65 214.674 152.596 214.62Z" fill="#323A50"/>
<path d="M154.065 215.598C154.01 215.543 153.902 215.489 153.847 215.489L147.428 232.446C147.482 232.609 147.537 232.826 147.645 233.043L154.174 215.761C154.174 215.598 154.119 215.598 154.065 215.598Z" fill="#323A50"/>
<path d="M155.424 216.141L148.406 234.62C148.461 234.783 148.569 234.891 148.624 235.109L155.75 216.304C155.696 216.196 155.533 216.196 155.424 216.141Z" fill="#323A50"/>
<path d="M157.056 216.467L149.549 236.304C149.658 236.413 149.712 236.522 149.821 236.685L157.491 216.467C157.328 216.467 157.219 216.467 157.056 216.467Z" fill="#323A50"/>
<path d="M158.907 216.576L150.855 237.881C150.964 237.989 151.019 238.098 151.127 238.207L159.288 216.631C159.179 216.576 159.016 216.576 158.907 216.576Z" fill="#323A50"/>
<path d="M160.701 216.576L152.105 239.185C152.214 239.294 152.323 239.348 152.486 239.457L161.191 216.576C161.027 216.576 160.81 216.576 160.701 216.576Z" fill="#323A50"/>
<path d="M162.607 216.413L153.576 240.217C153.631 240.272 153.739 240.326 153.957 240.435L163.096 216.359C162.879 216.413 162.77 216.413 162.607 216.413Z" fill="#323A50"/>
<path d="M164.456 216.141L155.045 241.087C155.154 241.141 155.263 241.196 155.426 241.25L165 216.087C164.837 216.141 164.674 216.141 164.456 216.141Z" fill="#323A50"/>
<path d="M166.468 215.87L156.621 241.794C156.73 241.848 156.839 241.848 157.056 241.902L166.957 215.815C166.794 215.815 166.577 215.87 166.468 215.87Z" fill="#323A50"/>
<path d="M168.263 215.489L158.145 242.12C158.253 242.12 158.362 242.174 158.58 242.174L168.807 215.38C168.59 215.435 168.426 215.489 168.263 215.489Z" fill="#323A50"/>
<path d="M170.33 215.109L159.994 242.337C160.103 242.337 160.266 242.337 160.429 242.337L170.82 215C170.602 215.054 170.439 215.054 170.33 215.109Z" fill="#323A50"/>
<path d="M172.236 214.62L161.682 242.337C161.79 242.337 161.954 242.337 162.171 242.337L172.725 214.511C172.616 214.565 172.453 214.565 172.236 214.62Z" fill="#323A50"/>
<path d="M174.301 214.076L163.639 242.174C163.747 242.174 163.911 242.12 164.128 242.12L174.791 213.967C174.628 214.022 174.465 214.022 174.301 214.076Z" fill="#323A50"/>
<path d="M176.261 213.587L165.436 242.011C165.599 242.011 165.708 241.957 165.925 241.957L176.751 213.478C176.533 213.533 176.37 213.533 176.261 213.587Z" fill="#323A50"/>
<path d="M178.328 212.989L167.447 241.631C167.61 241.576 167.719 241.576 167.937 241.522L178.872 212.826C178.6 212.935 178.491 212.935 178.328 212.989Z" fill="#323A50"/>
<path d="M180.396 212.391L169.461 241.196C169.624 241.141 169.787 241.141 169.951 241.087L180.94 212.283C180.668 212.283 180.504 212.337 180.396 212.391Z" fill="#323A50"/>
<path d="M182.462 211.739L171.473 240.652C171.636 240.598 171.799 240.598 171.962 240.544L183.006 211.63C182.788 211.63 182.625 211.685 182.462 211.739Z" fill="#323A50"/>
<path d="M184.366 211.087L173.322 240.054C173.485 240 173.649 239.946 173.812 239.946L184.855 210.978C184.692 210.978 184.475 211.033 184.366 211.087Z" fill="#323A50"/>
<path d="M186.434 210.381L175.391 239.402C175.554 239.348 175.717 239.294 175.935 239.239L186.978 210.272C186.815 210.272 186.597 210.326 186.434 210.381Z" fill="#323A50"/>
<path d="M188.555 209.674L177.512 238.641C177.675 238.587 177.838 238.533 178.056 238.478L189.099 209.511C188.827 209.62 188.664 209.62 188.555 209.674Z" fill="#323A50"/>
<path d="M190.676 208.967L179.633 237.881C179.796 237.826 179.959 237.772 180.177 237.717L191.166 208.804C190.948 208.859 190.84 208.913 190.676 208.967Z" fill="#323A50"/>
<path d="M192.745 208.207L181.756 237.065C181.919 237.011 182.082 236.957 182.3 236.902L193.235 208.098C193.071 208.098 192.908 208.152 192.745 208.207Z" fill="#323A50"/>
<path d="M194.921 207.446L183.986 236.141C184.15 236.087 184.313 236.033 184.53 235.924L195.465 207.228C195.193 207.337 195.084 207.391 194.921 207.446Z" fill="#323A50"/>
<path d="M196.988 206.685L186.107 235.272C186.271 235.217 186.434 235.109 186.651 235.054L197.532 206.522C197.314 206.522 197.151 206.631 196.988 206.685Z" fill="#323A50"/>
<path d="M199.054 205.924L188.229 234.348C188.392 234.294 188.555 234.185 188.773 234.131L199.598 205.761C199.381 205.815 199.218 205.87 199.054 205.924Z" fill="#323A50"/>
<path d="M200.959 205.163L190.242 233.37C190.405 233.315 190.569 233.207 190.786 233.152L201.449 205C201.34 205.054 201.177 205.109 200.959 205.163Z" fill="#323A50"/>
<path d="M203.136 204.348L192.527 232.337C192.691 232.283 192.854 232.174 193.071 232.12L203.68 204.185C203.516 204.185 203.353 204.294 203.136 204.348Z" fill="#323A50"/>
<path d="M205.257 203.478L194.703 231.25C194.866 231.196 195.03 231.087 195.247 231.033L205.747 203.315C205.638 203.37 205.475 203.424 205.257 203.478Z" fill="#323A50"/>
<path d="M207.433 202.663L196.988 230.163C197.151 230.109 197.315 230 197.532 229.946L207.977 202.5C207.814 202.446 207.651 202.554 207.433 202.663Z" fill="#323A50"/>
<path d="M209.446 201.794L199.109 228.967C199.273 228.859 199.436 228.804 199.653 228.696L209.99 201.576C209.826 201.631 209.609 201.739 209.446 201.794Z" fill="#323A50"/>
<path d="M211.458 200.978L201.23 227.935C201.394 227.826 201.557 227.772 201.774 227.663L212.002 200.815C211.784 200.815 211.621 200.924 211.458 200.978Z" fill="#323A50"/>
<path d="M213.634 200.109L203.516 226.739C203.679 226.63 203.842 226.576 204.06 226.467L214.124 199.946C213.961 199.946 213.798 200.054 213.634 200.109Z" fill="#323A50"/>
<path d="M215.811 199.185L205.855 225.435C206.019 225.326 206.182 225.272 206.399 225.163L216.355 198.967C216.137 199.076 215.974 199.13 215.811 199.185Z" fill="#323A50"/>
<path d="M217.987 198.315L208.141 224.239C208.304 224.131 208.467 224.076 208.685 223.967L218.477 198.152C218.314 198.098 218.151 198.207 217.987 198.315Z" fill="#323A50"/>
<path d="M220.217 197.337L210.533 222.88C210.696 222.772 210.86 222.717 211.077 222.609L220.761 197.174C220.543 197.228 220.38 197.283 220.217 197.337Z" fill="#323A50"/>
<path d="M222.231 196.467L212.656 221.63C212.819 221.522 212.983 221.467 213.2 221.304L222.721 196.196C222.557 196.359 222.394 196.413 222.231 196.467Z" fill="#323A50"/>
<path d="M224.406 195.543L214.994 220.272C215.157 220.163 215.321 220.054 215.538 219.946L224.95 195.272C224.732 195.38 224.569 195.489 224.406 195.543Z" fill="#323A50"/>
<path d="M226.582 194.62L217.279 219.022C217.443 218.913 217.606 218.804 217.823 218.696L227.072 194.402C226.908 194.457 226.745 194.565 226.582 194.62Z" fill="#323A50"/>
<path d="M228.812 193.641L219.727 217.554C219.89 217.446 220.053 217.337 220.325 217.228L229.356 193.37C229.138 193.478 228.975 193.533 228.812 193.641Z" fill="#323A50"/>
<path d="M230.826 192.718L221.904 216.304C222.068 216.196 222.231 216.087 222.503 215.978L231.425 192.5C231.153 192.609 230.989 192.663 230.826 192.718Z" fill="#323A50"/>
<path d="M232.186 193.641L224.08 215C224.243 214.891 224.515 214.783 224.678 214.674L232.24 194.783C232.186 194.402 232.186 194.076 232.186 193.641Z" fill="#323A50"/>
<path d="M232.185 198.424L226.418 213.533C226.581 213.424 226.853 213.315 227.016 213.207L232.239 199.565C232.185 199.185 232.185 198.75 232.185 198.424Z" fill="#323A50"/>
<path d="M232.185 203.261L228.812 212.12C228.976 212.011 229.248 211.902 229.411 211.794L232.24 204.457C232.131 204.076 232.131 203.641 232.185 203.261Z" fill="#323A50"/>
<path d="M232.185 208.098L231.26 210.598C231.423 210.489 231.695 210.381 231.858 210.272L232.293 209.239C232.239 208.75 232.185 208.424 232.185 208.098Z" fill="#323A50"/>
<path d="M147.974 115.38C148.028 115.272 148.137 115.163 148.191 114.946L146.668 110.978C147.212 112.88 147.647 114.402 147.974 115.38Z" fill="#323A50"/>
<path d="M149.605 113.587L145.797 103.424C145.797 103.859 145.851 104.294 145.851 104.728L149.279 113.913C149.387 113.804 149.496 113.75 149.605 113.587Z" fill="#323A50"/>
<path d="M151.019 112.663L145.851 99.1305C145.797 99.4022 145.797 99.7283 145.797 100L150.639 112.935C150.693 112.935 150.747 112.88 150.747 112.88C150.911 112.88 150.965 112.772 151.019 112.663Z" fill="#323A50"/>
<path d="M152.433 111.522L146.558 95.924C146.503 96.1413 146.449 96.4131 146.395 96.6305L152.107 111.739C152.216 111.685 152.324 111.576 152.433 111.522Z" fill="#323A50"/>
<path d="M153.847 110.87L147.319 93.6414C147.265 93.8044 147.21 93.9674 147.102 94.2392L153.467 111.087C153.63 110.924 153.739 110.924 153.847 110.87Z" fill="#323A50"/>
<path d="M155.534 110.326L148.407 91.576C148.353 91.7391 148.244 91.8478 148.189 92.0652L155.098 110.489C155.207 110.38 155.425 110.326 155.534 110.326Z" fill="#323A50"/>
<path d="M156.894 110.054C157.002 110.054 157.111 110.054 157.22 110.054L149.549 89.7283C149.441 89.837 149.386 89.9457 149.277 90.163L156.73 110.109C156.839 110.054 156.894 110.054 156.894 110.054Z" fill="#323A50"/>
<path d="M158.798 110.054C158.853 110.054 158.962 110.054 159.016 110.054L150.801 88.3152C150.693 88.4239 150.638 88.5326 150.529 88.6413L158.635 110.109C158.69 110.054 158.744 110.054 158.798 110.054Z" fill="#323A50"/>
<path d="M160.539 110.163L151.943 87.3369C152.052 87.2282 152.161 87.1739 152.324 87.0652L161.028 110.217C160.756 110.163 160.648 110.163 160.539 110.163Z" fill="#323A50"/>
<path d="M162.39 110.272L153.305 86.1413C153.359 86.087 153.468 86.0326 153.686 85.924L162.879 110.38C162.716 110.38 162.553 110.272 162.39 110.272Z" fill="#323A50"/>
<path d="M164.294 110.544L154.773 85.3261C154.882 85.2718 154.991 85.2174 155.154 85.1631L164.729 110.652C164.566 110.544 164.457 110.544 164.294 110.544Z" fill="#323A50"/>
<path d="M166.251 110.87L156.35 84.6739C156.458 84.6195 156.567 84.6195 156.785 84.5652L166.795 111.033C166.577 110.924 166.414 110.87 166.251 110.87Z" fill="#323A50"/>
<path d="M168.046 111.141L157.873 84.2392C157.982 84.2392 158.091 84.1848 158.308 84.1848L168.536 111.304C168.373 111.196 168.264 111.196 168.046 111.141Z" fill="#323A50"/>
<path d="M170.113 111.63L159.723 84.076C159.831 84.076 159.995 84.076 160.158 84.076L170.603 111.793C170.44 111.685 170.222 111.63 170.113 111.63Z" fill="#323A50"/>
<path d="M172.073 112.065L161.52 84.0217C161.628 84.0217 161.792 84.0217 162.009 84.0217L172.617 112.174C172.4 112.174 172.237 112.12 172.073 112.065Z" fill="#323A50"/>
<path d="M174.141 112.609L163.369 84.1305C163.478 84.1305 163.641 84.1305 163.859 84.1848L174.576 112.717C174.413 112.663 174.304 112.663 174.141 112.609Z" fill="#323A50"/>
<path d="M176.044 113.152L165.164 84.4022C165.327 84.4022 165.436 84.4566 165.654 84.4566L176.534 113.261C176.371 113.207 176.208 113.207 176.044 113.152Z" fill="#323A50"/>
<path d="M178.111 113.75L167.176 84.7826C167.339 84.7826 167.448 84.8369 167.665 84.8913L178.655 113.967C178.437 113.804 178.274 113.75 178.111 113.75Z" fill="#323A50"/>
<path d="M180.124 114.348L169.08 85.1631C169.243 85.2174 169.407 85.2174 169.57 85.2718L180.613 114.457C180.45 114.457 180.287 114.457 180.124 114.348Z" fill="#323A50"/>
<path d="M182.245 115.054L171.201 85.7609C171.364 85.8152 171.528 85.8152 171.691 85.8696L182.734 115.163C182.571 115.109 182.408 115.054 182.245 115.054Z" fill="#323A50"/>
<path d="M184.151 115.652L173.053 86.3043C173.216 86.3587 173.379 86.413 173.542 86.413L184.64 115.761C184.477 115.761 184.368 115.706 184.151 115.652Z" fill="#323A50"/>
<path d="M186.272 116.304L175.174 86.9565C175.337 87.0109 175.5 87.0652 175.718 87.1196L186.816 116.467C186.598 116.467 186.489 116.359 186.272 116.304Z" fill="#323A50"/>
<path d="M188.338 117.011L177.24 87.6631C177.403 87.7174 177.567 87.7718 177.784 87.8261L188.882 117.174C188.719 117.174 188.501 117.065 188.338 117.011Z" fill="#323A50"/>
<path d="M190.46 117.826L179.416 88.5326C179.579 88.5869 179.742 88.6413 179.96 88.6956L191.004 117.989C190.84 117.935 190.623 117.88 190.46 117.826Z" fill="#323A50"/>
<path d="M192.583 118.533L181.539 89.3478C181.702 89.4021 181.865 89.4565 182.083 89.5108L193.127 118.696C192.909 118.641 192.746 118.587 192.583 118.533Z" fill="#323A50"/>
<path d="M194.704 119.293L183.715 90.2174C183.878 90.2718 184.041 90.3261 184.259 90.4348L195.248 119.511C195.03 119.457 194.867 119.348 194.704 119.293Z" fill="#323A50"/>
<path d="M196.825 120.109L185.891 91.1957C186.054 91.25 186.217 91.3044 186.435 91.4131L197.369 120.272C197.152 120.217 196.989 120.163 196.825 120.109Z" fill="#323A50"/>
<path d="M198.785 120.87L187.904 92.1196C188.068 92.174 188.231 92.2827 188.448 92.337L199.274 121.033C199.165 120.978 199.002 120.924 198.785 120.87Z" fill="#323A50"/>
<path d="M200.797 121.63L190.08 93.0435C190.243 93.0978 190.406 93.2065 190.624 93.2609L201.341 121.793C201.178 121.793 200.96 121.739 200.797 121.63Z" fill="#323A50"/>
<path d="M202.973 122.446L192.311 94.1305C192.474 94.1848 192.637 94.2935 192.855 94.3479L203.517 122.609C203.354 122.609 203.136 122.554 202.973 122.446Z" fill="#323A50"/>
<path d="M205.095 123.315L194.541 95.2174C194.704 95.2718 194.867 95.3805 195.085 95.4348L205.639 123.424C205.476 123.478 205.258 123.37 205.095 123.315Z" fill="#323A50"/>
<path d="M207.271 124.185L196.771 96.3588C196.935 96.4131 197.098 96.5218 197.316 96.5762L207.761 124.348C207.652 124.294 207.434 124.239 207.271 124.185Z" fill="#323A50"/>
<path d="M209.283 125L198.893 97.5C199.056 97.6087 199.219 97.663 199.437 97.7717L209.773 125.217C209.61 125.163 209.446 125.054 209.283 125Z" fill="#323A50"/>
<path d="M211.241 125.815L200.959 98.5869C201.122 98.6956 201.285 98.75 201.503 98.8587L211.731 126.033C211.622 125.978 211.458 125.924 211.241 125.815Z" fill="#323A50"/>
<path d="M213.472 126.685L203.299 99.7826C203.462 99.8913 203.625 99.9456 203.843 100.054L213.962 126.957C213.853 126.902 213.635 126.793 213.472 126.685Z" fill="#323A50"/>
<path d="M215.594 127.609L205.529 101.033C205.693 101.141 205.856 101.196 206.073 101.304L216.083 127.826C215.974 127.772 215.811 127.717 215.594 127.609Z" fill="#323A50"/>
<path d="M217.77 128.533L207.869 102.337C208.032 102.446 208.196 102.5 208.413 102.609L218.314 128.696C218.151 128.696 218.042 128.641 217.77 128.533Z" fill="#323A50"/>
<path d="M220 129.456L210.262 103.587C210.425 103.696 210.588 103.75 210.806 103.859L220.489 129.62C220.38 129.62 220.217 129.565 220 129.456Z" fill="#323A50"/>
<path d="M222.014 130.326L212.439 104.891C212.603 105 212.766 105.054 212.983 105.163L222.558 130.544C222.449 130.489 222.177 130.435 222.014 130.326Z" fill="#323A50"/>
<path d="M224.243 131.304L214.777 106.25C214.941 106.359 215.104 106.413 215.376 106.63L224.787 131.63C224.624 131.467 224.406 131.359 224.243 131.304Z" fill="#323A50"/>
<path d="M226.42 132.283L217.117 107.609C217.28 107.717 217.444 107.826 217.716 107.989L227.018 132.554C226.801 132.391 226.583 132.337 226.42 132.283Z" fill="#323A50"/>
<path d="M228.597 133.207L219.457 108.967C219.62 109.076 219.783 109.185 220.055 109.348L229.195 133.478C229.032 133.424 228.814 133.315 228.597 133.207Z" fill="#323A50"/>
<path d="M230.663 134.13L221.633 110.272C221.796 110.38 222.068 110.489 222.231 110.652L231.207 134.402C230.99 134.293 230.827 134.185 230.663 134.13Z" fill="#323A50"/>
<path d="M232.024 133.206L223.863 111.576C224.026 111.685 224.298 111.793 224.462 111.956L232.024 132.065C232.024 132.5 232.024 132.826 232.024 133.206Z" fill="#323A50"/>
<path d="M232.022 128.424L226.256 113.098C226.419 113.207 226.691 113.315 226.854 113.478L232.077 127.283C232.077 127.609 232.077 127.989 232.022 128.424Z" fill="#323A50"/>
<path d="M231.969 123.478L228.596 114.511C228.759 114.62 229.031 114.728 229.194 114.891L231.969 122.337C231.969 122.717 231.969 123.043 231.969 123.478Z" fill="#323A50"/>
<path d="M232.022 118.587L231.043 116.033C231.206 116.141 231.478 116.25 231.641 116.413L232.022 117.5C232.022 117.88 232.022 118.261 232.022 118.587Z" fill="#323A50"/>
<path d="M141.771 164.457C141.771 185.924 150.965 203.37 162.281 203.37C173.596 203.37 182.79 185.924 182.79 164.457C182.79 142.989 173.596 125.543 162.281 125.543C150.965 125.543 141.771 142.989 141.771 164.457ZM168.537 164.457C168.537 179.565 163.26 191.793 156.732 191.793C150.204 191.793 144.927 179.565 144.927 164.457C144.927 149.348 150.204 137.12 156.732 137.12C163.26 137.12 168.537 149.402 168.537 164.457Z" fill="#DBDBDB"/>
<path d="M183.225 164.402C183.225 174.891 181.104 184.728 177.132 192.12C173.161 199.62 167.938 203.696 162.281 203.696C156.677 203.696 151.4 199.565 147.429 192.12C143.566 184.728 141.336 174.891 141.336 164.402C141.336 153.913 143.458 144.076 147.429 136.685C151.4 129.185 156.623 125.109 162.281 125.109C167.884 125.109 173.161 129.239 177.132 136.685C181.049 144.13 183.225 153.967 183.225 164.402ZM142.206 164.402C142.206 185.652 151.237 202.88 162.281 202.88C173.378 202.88 182.355 185.652 182.355 164.402C182.355 143.152 173.324 125.924 162.281 125.924C151.237 125.924 142.206 143.152 142.206 164.402Z" fill="#323A50"/>
<defs>
<linearGradient id="paint0_linear_3748_13506" x1="226.262" y1="58.9699" x2="79.029" y2="260.469" gradientUnits="userSpaceOnUse">
<stop offset="0.2655" stop-color="#032A3D" stop-opacity="0"/>
<stop offset="0.7809" stop-color="#032A3D"/>
</linearGradient>
<radialGradient id="paint1_radial_3748_13506" cx="0" cy="0" r="1" gradientUnits="userSpaceOnUse" gradientTransform="translate(218.588 163.975) rotate(-90) scale(68.1388 67.8983)">
<stop offset="0.2655" stop-color="#032A3D" stop-opacity="0"/>
<stop offset="1" stop-color="#032A3D"/>
</radialGradient>
<linearGradient id="paint2_linear_3748_13506" x1="110.926" y1="190.56" x2="307.442" y2="140.449" gradientUnits="userSpaceOnUse">
<stop offset="0.4054" stop-color="#032A3D" stop-opacity="0"/>
<stop offset="1" stop-color="#032A3D"/>
</linearGradient>
<linearGradient id="paint3_linear_3748_13506" x1="178.204" y1="226.783" x2="301.611" y2="95.1001" gradientUnits="userSpaceOnUse">
<stop offset="0.2655" stop-color="#032A3D" stop-opacity="0"/>
<stop offset="0.7809" stop-color="#032A3D"/>
</linearGradient>
<linearGradient id="paint4_linear_3748_13506" x1="170.605" y1="219.662" x2="294.012" y2="87.979" gradientUnits="userSpaceOnUse">
<stop offset="0.2655" stop-color="#032A3D" stop-opacity="0"/>
<stop offset="0.7809" stop-color="#032A3D"/>
</linearGradient>
<linearGradient id="paint5_linear_3748_13506" x1="173.166" y1="222.061" x2="296.573" y2="90.3782" gradientUnits="userSpaceOnUse">
<stop offset="0.2655" stop-color="#032A3D" stop-opacity="0"/>
<stop offset="0.7809" stop-color="#032A3D"/>
</linearGradient>
<linearGradient id="paint6_linear_3748_13506" x1="199.889" y1="247.105" x2="323.296" y2="115.423" gradientUnits="userSpaceOnUse">
<stop offset="0.2655" stop-color="#032A3D" stop-opacity="0"/>
<stop offset="0.7809" stop-color="#032A3D"/>
</linearGradient>
<linearGradient id="paint7_linear_3748_13506" x1="179.97" y1="228.437" x2="303.376" y2="96.7549" gradientUnits="userSpaceOnUse">
<stop offset="0.2655" stop-color="#032A3D" stop-opacity="0"/>
<stop offset="0.7809" stop-color="#032A3D"/>
</linearGradient>
<linearGradient id="paint8_linear_3748_13506" x1="190.932" y1="238.709" x2="314.338" y2="107.026" gradientUnits="userSpaceOnUse">
<stop offset="0.2655" stop-color="#032A3D" stop-opacity="0"/>
<stop offset="0.7809" stop-color="#032A3D"/>
</linearGradient>
<linearGradient id="paint9_linear_3748_13506" x1="210.775" y1="257.304" x2="334.182" y2="125.622" gradientUnits="userSpaceOnUse">
<stop offset="0.2655" stop-color="#032A3D" stop-opacity="0"/>
<stop offset="0.7809" stop-color="#032A3D"/>
</linearGradient>
<linearGradient id="paint10_linear_3748_13506" x1="207.37" y1="254.113" x2="330.777" y2="122.43" gradientUnits="userSpaceOnUse">
<stop offset="0.2655" stop-color="#032A3D" stop-opacity="0"/>
<stop offset="0.7809" stop-color="#032A3D"/>
</linearGradient>
<linearGradient id="paint11_linear_3748_13506" x1="196.466" y1="243.895" x2="319.873" y2="112.212" gradientUnits="userSpaceOnUse">
<stop offset="0.2655" stop-color="#032A3D" stop-opacity="0"/>
<stop offset="0.7809" stop-color="#032A3D"/>
</linearGradient>
<linearGradient id="paint12_linear_3748_13506" x1="210.786" y1="257.314" x2="334.193" y2="125.632" gradientUnits="userSpaceOnUse">
<stop offset="0.2655" stop-color="#032A3D" stop-opacity="0"/>
<stop offset="0.7809" stop-color="#032A3D"/>
</linearGradient>
</defs>
</svg>
