<svg width="330" height="330" viewBox="0 0 330 330" fill="none" xmlns="http://www.w3.org/2000/svg">
<g clip-path="url(#clip0_3614_8645)">
<g opacity="0.7">
<mask id="mask0_3614_8645" style="mask-type:luminance" maskUnits="userSpaceOnUse" x="133" y="42" width="66" height="97">
<path d="M198.766 131.058V42.9004H133.12V131.175C133.12 131.234 133.179 131.234 133.179 131.293C133.179 135.006 147.911 138.07 165.943 138.07C183.975 138.07 198.707 135.065 198.707 131.293C198.707 131.175 198.766 131.116 198.766 131.058Z" fill="white"/>
</mask>
<g mask="url(#mask0_3614_8645)">
<path d="M217.918 155.277V51.1504H111.257V155.395C111.257 155.454 111.257 155.454 111.257 155.513C111.257 159.933 135.123 163.527 164.647 163.527C194.17 163.527 218.036 159.933 218.036 155.513C217.977 155.454 217.918 155.395 217.918 155.277ZM146.261 150.74C146.202 151.329 145.907 151.859 145.2 152.272C144.964 152.39 144.729 152.449 144.493 152.508C143.079 154.216 140.545 155.336 137.952 155.336C134.77 155.336 132.236 153.863 130.998 151.859C129.997 151.152 129.172 150.268 128.759 149.325C128.229 149.031 127.698 148.736 127.345 148.383C126.991 148.206 126.638 147.97 126.343 147.734C124.516 146.615 123.397 144.965 123.338 143.079C123.161 139.897 127.05 137.127 131.057 137.127C131.352 137.127 131.588 137.127 131.882 137.186C132.118 137.127 132.236 137.127 132.472 137.127C133.061 137.127 133.591 137.304 133.886 137.599C134.357 137.775 134.77 137.952 135.182 138.129C135.241 138.188 135.418 138.247 135.477 138.306C135.713 138.365 135.831 138.424 136.007 138.483C137.952 139.543 140.014 140.722 141.547 142.136C141.782 142.254 142.018 142.431 142.136 142.608C142.489 143.02 142.902 143.374 143.256 143.845C143.609 144.022 143.963 144.375 144.081 144.67C144.081 144.729 144.139 144.788 144.139 144.847C144.198 144.906 144.198 144.965 144.316 145.024C144.316 144.965 144.257 144.965 144.257 144.906C144.493 145.141 144.611 145.377 144.788 145.672C144.847 145.731 144.964 145.849 145.023 145.908C145.731 146.968 146.261 148.206 146.379 149.384C146.379 149.502 146.379 149.561 146.379 149.679C146.438 149.915 146.556 150.15 146.556 150.386C146.379 150.386 146.32 150.563 146.261 150.74Z" fill="url(#paint0_linear_3614_8645)"/>
</g>
</g>
<path d="M199.473 50.207H132.589V124.162H199.473V50.207Z" fill="url(#paint1_linear_3614_8645)"/>
<path d="M165.766 301.655C161.288 301.655 156.75 301.302 152.389 300.595C148.029 300.005 141.252 298.473 136.656 296.47C120.863 290.577 107.368 280.205 97.6448 266.416C87.6859 252.332 82.3823 235.655 82.3823 218.33C82.3823 206.25 84.9163 194.641 89.8663 183.798C94.6395 173.309 101.475 164.057 110.079 156.279C111.139 155.218 112.023 154.275 112.789 153.45C117.15 148.972 117.504 148.618 119.979 145.73C120.568 145.082 121.275 144.198 122.218 143.079C124.752 140.073 128.523 135.477 133.12 130.822C133.297 130.645 133.532 130.645 133.709 130.822C133.886 130.998 133.886 131.234 133.709 131.411C129.172 136.066 125.4 140.604 122.866 143.609C121.923 144.729 121.216 145.613 120.627 146.261C118.093 149.148 117.739 149.502 113.379 153.98C112.613 154.805 111.729 155.689 110.668 156.809C93.2252 172.484 83.2073 194.877 83.2073 218.272C83.2073 252.568 104.834 283.682 137.009 295.704C141.547 297.648 148.264 299.18 152.566 299.77C156.927 300.477 161.406 300.83 165.825 300.83C211.377 300.83 248.443 263.764 248.443 218.213C248.443 194.405 238.131 171.718 220.216 156.043C218.095 153.804 216.622 152.33 215.561 151.27C213.498 149.148 212.791 148.441 210.906 146.32C210.434 145.789 209.845 145.082 209.197 144.316C206.486 141.134 201.889 135.772 196.468 130.468C196.291 130.291 196.291 130.055 196.468 129.879C196.645 129.702 196.881 129.702 197.057 129.879C202.538 135.241 207.075 140.604 209.845 143.786C210.552 144.611 211.141 145.259 211.554 145.789C213.439 147.911 214.147 148.618 216.209 150.739C217.27 151.8 218.684 153.273 220.864 155.513C229.704 163.291 236.716 172.602 241.666 183.268C246.793 194.288 249.386 206.073 249.386 218.33C249.386 229.586 247.206 240.488 242.845 250.8C238.661 260.759 232.65 269.657 224.989 277.318C217.329 284.979 208.431 290.989 198.472 295.173C187.982 299.475 177.022 301.655 165.766 301.655Z" fill="#323A50"/>
<path opacity="0.2" d="M207.782 155.453C210.729 153.803 212.32 152.684 209.314 149.207C204.188 143.373 182.148 115.677 167.18 115.264L165.589 115.205C146.614 115.971 126.638 143.432 121.511 149.266C118.447 152.743 120.863 154.746 122.277 155.748C128.288 151.918 133.709 148.912 140.78 146.555C141.016 146.496 149.855 142.253 164.764 142.135C164.823 142.135 174.9 142.077 184.388 145.023C195.997 148.146 201.595 151.918 207.782 155.453Z" fill="url(#paint2_linear_3614_8645)"/>
<path opacity="0.2" d="M165.589 286.393C203.244 286.393 233.769 255.999 233.769 218.507C233.769 181.015 203.244 150.621 165.589 150.621C127.934 150.621 97.4087 181.015 97.4087 218.507C97.4087 255.999 127.934 286.393 165.589 286.393Z" fill="url(#paint3_radial_3614_8645)"/>
<path opacity="0.34" d="M237.07 186.804C237.011 186.627 236.952 186.45 236.834 186.332C236.598 186.804 236.186 187.216 235.655 187.57C234.241 188.395 232.061 187.982 231.354 186.45C230.941 185.625 230.529 184.859 229.998 184.093C229.763 183.681 229.468 183.327 229.173 182.915C229.055 182.738 229.055 182.738 229.173 182.915C229.114 182.856 229.055 182.738 228.938 182.679C228.82 182.502 228.643 182.325 228.525 182.149C227.288 180.734 225.814 179.32 224.577 178.495C223.811 177.965 223.045 177.493 222.22 177.081C221.984 176.963 221.748 176.845 221.513 176.727C221.454 176.727 221.454 176.727 221.454 176.668C221.041 176.491 220.629 176.374 220.157 176.256C219.686 176.138 219.214 176.02 218.743 175.961L218.036 175.843C217.859 175.843 217.741 175.784 217.564 175.784C216.445 175.666 215.325 175.666 214.264 175.666C210.198 175.784 206.721 176.432 202.714 176.963C198.589 177.493 194.405 177.788 190.221 178.082C182.03 178.672 173.898 179.674 165.648 179.791C161.582 179.85 157.575 179.143 153.627 178.436C149.679 177.729 146.025 177.199 142.195 176.786C134.239 175.843 126.166 175.431 118.152 176.138C116.502 176.315 115.264 174.841 115.029 173.368C114.97 173.368 114.911 173.368 114.793 173.427C114.321 173.545 113.909 173.663 113.438 173.84C113.202 173.899 112.966 174.016 112.671 174.134C112.554 174.193 112.495 174.193 112.436 174.252C110.55 175.077 108.723 176.197 107.073 177.434C107.014 177.493 106.661 177.788 106.661 177.788C106.425 177.965 106.189 178.141 106.013 178.377C105.6 178.731 105.246 179.084 104.834 179.438C104.068 180.204 103.302 181.029 102.595 181.854C102.536 181.913 102.536 181.972 102.477 181.972C102.477 181.972 102.418 182.031 102.418 182.09C102.241 182.325 102.123 182.502 101.946 182.738C101.652 183.15 101.416 183.504 101.18 183.916C100.945 184.329 100.709 184.682 100.532 185.095C100.473 185.213 100.238 185.979 100.473 185.213C100.414 185.449 100.296 185.625 100.238 185.861C99.6482 187.511 98.1161 188.454 96.3482 188.041C95.7589 187.924 95.2286 187.57 94.8161 187.099C94.7572 187.216 94.875 187.334 94.8161 187.452C90.8679 196.763 88.5107 206.957 88.5107 217.682C88.5107 260.406 123.161 295.056 165.884 295.056C208.607 295.056 243.257 260.406 243.257 217.682C243.434 206.604 241.195 196.174 237.07 186.804Z" fill="url(#paint4_linear_3614_8645)"/>
<g opacity="0.2">
<path d="M226.521 246.262L226.05 246.203C225.755 248.56 218.861 251.801 217.387 252.037C216.798 252.155 216.444 251.978 216.091 251.86C215.561 251.625 215.089 251.448 214.146 251.978C212.614 252.921 207.252 258.755 206.073 261.583C204.894 264.471 204.187 266.003 201.477 267.064C200.003 267.653 197.764 267.653 195.407 267.653C193.227 267.653 190.987 267.653 189.278 268.125C186.686 268.832 184.152 270.01 182.973 270.6C183.621 269.892 184.269 269.126 184.859 268.478C185.919 267.241 186.862 266.121 187.452 265.708C188.277 265.119 191.046 264.825 193.993 264.53C198 264.117 202.478 263.646 203.893 262.291C205.484 260.817 207.723 255.16 209.491 250.623C210.434 248.207 211.259 246.144 211.789 245.319C212.319 244.435 213.793 243.433 215.384 242.373C218.094 240.605 221.159 238.542 221.1 236.067H220.628C220.687 238.248 217.741 240.192 215.148 241.96C213.439 243.08 211.966 244.082 211.377 245.083C210.846 245.967 210.021 248.03 209.078 250.446C207.311 254.925 205.071 260.523 203.539 261.937C203.009 262.408 202.007 262.821 200.652 263.116C201.536 262.644 202.537 261.937 203.244 260.994C204.541 259.344 205.661 255.455 206.25 253.333C206.368 252.98 206.427 252.626 206.486 252.45C206.662 251.801 206.427 251.389 206.191 250.976C205.896 250.505 205.602 250.033 205.778 248.855C206.014 247.558 206.721 247.028 207.546 246.498C208.077 246.144 208.607 245.732 209.019 245.083C210.021 243.492 209.373 241.842 209.078 240.958V240.9C208.843 240.31 208.312 240.369 207.9 240.369C207.487 240.428 207.252 240.428 207.134 240.192C207.016 239.957 207.311 239.485 207.664 239.014C208.136 238.307 208.725 237.482 208.371 236.716L207.959 236.892C208.194 237.423 207.723 238.071 207.311 238.66C206.898 239.308 206.486 239.898 206.78 240.369C207.075 240.9 207.605 240.841 208.018 240.782C208.43 240.723 208.607 240.723 208.725 241.017V241.076C209.019 241.96 209.609 243.375 208.725 244.73C208.371 245.26 207.9 245.614 207.369 246.026C206.544 246.616 205.66 247.264 205.425 248.737C205.189 250.092 205.543 250.682 205.896 251.212C206.132 251.566 206.25 251.801 206.132 252.273C206.073 252.45 205.955 252.803 205.896 253.157C205.366 255.101 204.246 259.05 203.009 260.641C201.594 262.408 199.119 263.351 198.884 263.41C197.352 263.646 195.584 263.823 193.993 264C190.869 264.353 188.159 264.648 187.275 265.237C186.627 265.708 185.684 266.828 184.564 268.125C182.443 270.658 179.496 274.076 177.493 273.958C176.432 273.9 175.312 273.664 174.134 273.428C171.718 272.957 169.007 272.367 166.06 272.898C159.991 274.017 157.928 275.255 156.75 276.669C155.571 278.025 154.982 279.792 154.982 279.851L155.394 280.028C155.394 280.028 155.984 278.26 157.103 276.964C158.223 275.608 160.227 274.489 166.178 273.369C169.007 272.839 171.718 273.369 174.075 273.9C175.312 274.135 176.432 274.371 177.552 274.489C179.084 274.607 180.852 273.075 182.56 271.307L182.678 271.483C182.737 271.483 186.037 269.598 189.573 268.655C191.282 268.183 193.462 268.183 195.584 268.183C198 268.183 200.298 268.183 201.771 267.594C204.659 266.475 205.484 264.766 206.662 261.819C207.782 259.108 213.027 253.333 214.5 252.391C215.207 251.919 215.56 252.096 216.032 252.273C216.385 252.45 216.857 252.626 217.623 252.508C219.096 252.214 226.168 248.914 226.521 246.262Z" fill="url(#paint5_linear_3614_8645)"/>
<path d="M170.598 257.281C169.773 258.106 169.95 259.521 170.068 261.112C170.186 262.644 170.362 264.412 169.655 265.826C168.3 268.655 162.23 270.776 162.171 270.835L162.348 271.306C162.584 271.188 168.654 269.067 170.068 266.062C170.834 264.53 170.657 262.703 170.48 261.112C170.362 259.638 170.245 258.342 170.893 257.635C171.6 256.928 174.134 256.338 176.373 255.867C178.966 255.278 181.205 254.747 181.736 254.04C182.266 253.333 182.384 252.685 182.443 252.096C182.561 251.447 182.62 250.976 183.209 250.563C183.504 250.387 185.036 250.446 186.686 250.563C191.223 250.799 198.118 251.212 200.593 247.794C202.537 245.083 201.889 243.08 201.3 241.371C200.829 239.956 200.416 238.719 201.3 237.305C202.007 236.126 203.186 235.772 204.541 235.301C207.193 234.476 210.493 233.415 212.614 226.58C213.086 224.988 212.85 223.338 212.614 221.747C212.261 219.626 211.966 217.622 213.262 215.796L212.909 215.501C211.554 217.505 211.907 219.685 212.202 221.806C212.437 223.397 212.673 224.93 212.261 226.403C210.198 233.003 207.075 234.005 204.541 234.83C203.068 235.301 201.771 235.713 201.005 237.01C200.062 238.66 200.534 240.133 201.005 241.488C201.595 243.197 202.184 244.965 200.357 247.499C198.059 250.681 191.046 250.269 186.862 250.033C185.271 249.915 184.211 249.915 183.621 249.974C183.916 249.326 184.034 248.442 184.211 247.381C184.505 245.613 184.859 243.551 185.92 242.431C186.45 241.901 187.216 241.665 188.159 241.371C190.516 240.663 193.698 239.78 196.232 233.238V233.18C196.704 230.94 196.173 229.349 195.643 228.406C195.407 227.994 194.936 227.758 194.464 227.522C193.934 227.287 193.345 226.992 192.873 226.285C192.048 225.047 191.695 218.153 191.989 216.797C191.989 216.68 192.048 216.621 192.048 216.621C192.107 216.562 192.402 216.68 192.637 216.738C193.345 216.974 194.582 217.446 196.055 216.385L195.761 215.972C194.464 216.915 193.462 216.562 192.755 216.267C192.343 216.149 192.048 216.031 191.812 216.149C191.636 216.208 191.577 216.385 191.518 216.621C191.223 217.917 191.518 225.047 192.461 226.462C192.991 227.287 193.698 227.581 194.287 227.876C194.7 228.053 195.054 228.23 195.23 228.524C195.702 229.408 196.232 230.822 195.761 232.944C193.345 239.249 190.28 240.133 188.041 240.781C187.039 241.076 186.214 241.312 185.566 241.96C184.446 243.197 184.093 245.26 183.739 247.146C183.504 248.383 183.327 249.503 182.914 250.033C182.266 250.505 182.148 251.153 182.03 251.801C181.912 252.39 181.854 252.98 181.382 253.569C180.911 254.217 178.436 254.747 176.255 255.219C173.78 255.926 171.423 256.456 170.598 257.281Z" fill="url(#paint6_linear_3614_8645)"/>
<path d="M171.305 210.493C171.895 211.141 172.366 211.612 172.071 213.026C171.895 213.969 171.364 215.325 170.775 216.798C169.773 219.391 168.771 222.043 169.243 223.221C169.478 223.81 169.832 224.223 170.186 224.635C170.952 225.519 171.718 226.403 171.305 229.055C170.952 231.176 169.832 232.826 168.948 234.182C168.123 235.36 167.475 236.362 167.534 237.305C167.593 238.071 168.005 238.601 168.418 239.132C169.125 240.016 169.891 240.959 168.889 243.316C168.123 245.143 167.062 245.614 166.178 245.968C165.236 246.38 164.47 246.734 164.764 248.501C165.059 250.387 166.237 251.566 167.357 252.685C168.182 253.51 169.007 254.394 169.596 255.514L170.009 255.278C169.42 254.1 168.536 253.157 167.711 252.332C166.591 251.153 165.53 250.093 165.236 248.384C165 246.969 165.53 246.793 166.414 246.38C167.298 245.968 168.536 245.437 169.361 243.493C170.48 240.841 169.596 239.78 168.771 238.778C168.359 238.248 168.005 237.835 167.946 237.246C167.887 236.421 168.477 235.537 169.243 234.418C170.186 233.062 171.364 231.353 171.718 229.114C172.13 226.226 171.305 225.225 170.48 224.341C170.127 223.928 169.832 223.575 169.596 223.044C169.184 221.984 170.245 219.332 171.128 216.975C171.718 215.501 172.248 214.146 172.425 213.144C172.778 211.494 172.189 210.846 171.541 210.198C171.128 209.726 170.657 209.255 170.48 208.371L170.009 208.489C170.362 209.432 170.893 210.021 171.305 210.493Z" fill="url(#paint7_linear_3614_8645)"/>
<path d="M173.662 274.489C172.071 273.723 168.064 273.369 165.589 273.782C163.232 274.194 159.048 275.137 157.398 276.905C156.455 277.907 155.63 279.851 155.571 279.969L155.984 280.146C155.984 280.146 156.809 278.201 157.693 277.258C159.284 275.55 163.762 274.607 165.589 274.312C168.241 273.841 172.012 274.312 173.368 274.96C174.841 275.667 175.371 276.787 175.43 277.317C175.666 278.967 172.896 280.441 172.896 280.441L173.132 280.853C173.25 280.794 176.196 279.203 175.902 277.258C175.902 276.433 175.253 275.255 173.662 274.489Z" fill="url(#paint8_linear_3614_8645)"/>
<path d="M174.9 245.849C175.725 246.203 176.55 246.498 177.08 247.264C177.728 248.148 179.025 250.446 177.316 252.449C176.609 253.274 174.841 253.923 173.132 254.571C171.423 255.16 169.832 255.749 169.36 256.515C168.83 257.34 168.948 258.755 169.066 260.405C169.184 261.878 169.301 263.41 168.948 264.589C168.241 267.064 162.112 269.951 162.053 269.951L162.23 270.364C162.466 270.246 168.594 267.358 169.36 264.707C169.714 263.41 169.596 261.76 169.537 260.346C169.419 258.873 169.36 257.458 169.773 256.751C170.185 256.103 171.776 255.514 173.368 254.983C175.135 254.335 176.962 253.687 177.728 252.744C179.084 251.153 179.025 249.032 177.551 246.969C176.962 246.085 176.019 245.732 175.135 245.378C174.31 245.024 173.485 244.73 173.132 243.964C172.425 242.432 172.955 240.723 173.957 240.074C174.193 239.898 174.487 239.78 174.723 239.603C175.548 239.073 176.432 238.601 177.493 237.423C178.907 235.89 181.559 229.644 182.03 226.639C182.325 224.871 181.794 224.105 181.323 223.221C180.91 222.573 180.498 221.924 180.38 220.628L179.909 220.687C180.026 222.042 180.498 222.808 180.91 223.457C181.382 224.223 181.853 224.93 181.559 226.521C181.087 229.467 178.494 235.596 177.139 237.069C176.137 238.189 175.253 238.66 174.428 239.19C174.193 239.367 173.898 239.485 173.662 239.662C172.543 240.428 171.894 242.373 172.719 244.14C173.073 245.142 174.016 245.496 174.9 245.849Z" fill="url(#paint9_linear_3614_8645)"/>
</g>
<g opacity="0.2">
<path d="M154.747 272.721C154.57 271.483 153.155 270.482 151.682 269.48C150.563 268.714 148.854 267.771 147.38 266.887C146.084 266.121 144.905 265.532 144.434 265.178C144.316 265.06 144.198 264.942 144.08 264.766C143.373 263.646 142.843 260.876 142.961 258.696C143.02 257.458 142.902 256.516 142.843 255.75C142.725 254.925 142.666 254.335 142.902 253.805C143.079 253.392 143.373 253.333 143.845 253.275C144.316 253.216 144.964 253.098 145.259 252.332C145.495 251.683 145.377 250.976 145.318 250.269C145.2 249.562 145.141 248.914 145.436 248.501C145.73 248.089 146.025 247.971 146.438 247.853C146.85 247.676 147.322 247.5 147.734 246.91C148.088 246.38 147.616 245.673 146.968 244.789C146.084 243.551 144.905 241.783 145.377 239.603C145.907 237.246 146.673 237.364 147.675 237.541C148.147 237.6 148.736 237.717 149.266 237.482C150.209 237.128 151.093 235.066 151.977 232.885C152.684 231.235 153.391 229.526 153.98 228.996C154.688 228.466 155.336 228.348 155.866 228.23C156.455 228.112 156.986 227.994 157.398 227.464C157.929 226.816 157.634 225.932 157.398 225.166C157.28 224.694 157.104 224.223 157.222 223.987L156.809 223.751C156.573 224.105 156.75 224.694 156.927 225.283C157.104 225.991 157.339 226.757 156.986 227.169C156.691 227.582 156.279 227.641 155.689 227.758C155.1 227.876 154.393 227.994 153.627 228.583C152.92 229.114 152.213 230.823 151.447 232.65C150.68 234.535 149.797 236.657 148.972 236.951C148.5 237.128 148.029 237.069 147.557 237.01C146.497 236.833 145.436 236.716 144.788 239.426C144.257 241.783 145.495 243.61 146.438 244.966C146.909 245.673 147.322 246.262 147.145 246.557C146.85 247.028 146.497 247.146 146.084 247.323C145.672 247.441 145.259 247.617 144.905 248.148C144.493 248.737 144.611 249.503 144.729 250.21C144.847 250.858 144.905 251.507 144.729 252.037C144.552 252.567 144.139 252.626 143.668 252.685C143.197 252.744 142.666 252.803 142.372 253.51C142.077 254.158 142.195 254.866 142.313 255.691C142.43 256.457 142.548 257.4 142.43 258.578C142.313 259.933 142.489 261.583 142.843 262.998C141.841 261.348 140.545 258.814 140.368 256.28C140.191 254.158 140.604 253.451 141.134 252.332C141.664 251.271 142.313 249.975 142.843 247.028C143.55 242.844 141.723 238.955 140.486 236.951C140.604 236.539 141.429 233.769 143.609 233.003L144.729 232.591C146.791 231.825 148.618 231.176 149.561 230.705C150.857 230.057 151.8 227.935 152.036 226.639C152.154 225.873 151.8 225.401 151.447 224.989C151.152 224.576 150.857 224.223 150.857 223.633C150.916 223.103 151.682 222.573 152.566 221.983C153.863 221.158 155.454 220.098 156.043 218.33C156.809 216.208 156.043 215.266 155.395 214.441C155.041 214.028 154.747 213.675 154.629 213.144L154.216 213.262C154.393 213.851 154.747 214.323 155.1 214.735C155.748 215.56 156.397 216.326 155.689 218.153C155.1 219.744 153.568 220.746 152.389 221.571C151.329 222.278 150.504 222.808 150.445 223.516C150.386 224.341 150.739 224.812 151.093 225.225C151.388 225.637 151.682 225.932 151.564 226.521C151.329 227.876 150.327 229.762 149.325 230.292C148.382 230.764 146.497 231.412 144.493 232.119L143.373 232.532C141.37 233.239 140.427 235.478 140.073 236.421C139.661 235.832 139.366 235.478 139.366 235.419C139.307 235.36 135.123 231.53 133.238 228.642C131.352 225.696 131.411 223.28 132.413 222.396C132.943 221.925 134.063 221.866 135.3 221.807C136.479 221.748 137.775 221.689 138.954 221.276C140.722 220.628 142.018 218.094 142.372 217.328C142.843 216.208 143.373 214.676 143.079 213.969C142.607 212.673 140.604 212.26 140.545 212.201L140.486 212.673C140.486 212.673 142.313 213.026 142.666 214.146C142.784 214.558 142.607 215.678 141.959 217.151C141.252 218.625 140.073 220.392 138.836 220.864C137.716 221.276 136.479 221.335 135.359 221.394C134.004 221.453 132.884 221.512 132.236 222.042C131.116 222.985 130.88 225.578 133.002 228.878C134.829 231.766 138.895 235.537 139.189 235.773C139.425 236.067 143.432 241.194 142.43 246.969C141.959 249.857 141.311 251.094 140.78 252.155C140.663 252.391 140.545 252.626 140.427 252.862C139.897 251.448 139.955 250.623 140.014 249.975C140.073 249.032 140.014 248.501 138.718 247.676C137.009 246.616 133.709 246.439 131.529 246.321C130.645 246.262 129.879 246.203 129.525 246.144C128.17 245.85 127.463 245.201 127.109 243.964C126.814 242.962 127.05 242.667 127.463 242.137C127.58 242.019 127.698 241.842 127.875 241.666C128.052 241.43 128.405 241.253 128.759 241.017C129.584 240.546 130.704 239.898 130.645 238.248C130.586 236.833 129.643 236.362 128.7 235.832C128.052 235.478 127.404 235.125 126.932 234.476C125.695 232.826 124.222 228.053 123.927 225.46C123.632 222.514 124.163 217.092 124.634 216.739C124.811 216.68 125.577 217.033 126.166 217.328C127.286 217.858 128.7 218.507 129.643 218.271C129.82 218.212 129.938 218.212 130.114 218.153C131.352 217.858 131.47 217.741 131.411 216.503C131.352 215.619 130.704 215.501 130.114 215.442C129.761 215.383 129.348 215.325 129.172 215.03C128.7 214.441 128.877 212.201 128.936 211.376L128.464 211.317C128.405 211.612 128.111 214.441 128.759 215.325C129.054 215.737 129.584 215.796 129.997 215.855C130.586 215.973 130.88 216.032 130.88 216.503C130.939 216.975 130.939 217.269 130.822 217.328C130.704 217.446 130.409 217.505 129.938 217.623C129.82 217.682 129.643 217.682 129.466 217.741C128.641 217.976 127.345 217.328 126.284 216.798C125.282 216.326 124.752 216.091 124.398 216.208C123.455 216.562 123.161 223.162 123.338 225.401C123.632 228.112 125.105 232.944 126.402 234.653C126.932 235.419 127.698 235.773 128.347 236.126C129.23 236.598 129.997 237.01 130.055 238.13C130.114 239.485 129.23 240.016 128.405 240.487C127.993 240.723 127.58 240.958 127.404 241.253C127.286 241.43 127.168 241.548 127.05 241.725C126.579 242.255 126.225 242.726 126.579 243.964C126.991 245.319 127.816 246.085 129.348 246.439C129.643 246.498 130.055 246.557 130.645 246.557C130.291 246.792 129.938 246.792 129.525 246.792C129.113 246.792 128.582 246.733 128.17 247.087C127.404 247.617 127.875 248.501 128.229 249.15C128.405 249.444 128.523 249.739 128.523 249.916C128.523 250.033 128.464 250.151 128.347 250.269C128.111 250.446 127.639 250.505 126.991 250.446C126.284 250.328 125.282 249.267 124.693 248.619C124.457 248.383 124.28 248.148 124.163 248.089C123.927 247.853 123.573 247.912 123.279 247.912C122.925 247.971 122.513 247.971 122.159 247.676C121.923 247.558 121.805 247.323 121.805 247.028C121.747 246.498 121.982 245.908 122.1 245.732C122.159 245.673 122.395 245.673 122.572 245.673C122.866 245.673 123.22 245.673 123.514 245.437C123.986 245.025 124.163 244.376 124.104 243.375C124.045 242.785 123.573 242.785 123.161 242.785C122.689 242.785 122.159 242.726 121.923 242.078C121.747 241.607 121.982 241.135 122.336 240.546C122.866 239.662 123.514 238.483 122.63 236.892C121.57 234.889 120.391 235.125 119.507 235.301C119.213 235.36 118.918 235.419 118.741 235.36C118.564 235.301 118.447 235.183 118.447 235.125C118.388 234.948 118.505 234.771 118.564 234.712L118.211 234.417C118.152 234.476 117.916 234.83 118.034 235.242C118.093 235.478 118.329 235.714 118.623 235.832C118.918 235.95 119.272 235.891 119.625 235.832C120.45 235.655 121.334 235.478 122.277 237.187C123.043 238.601 122.513 239.544 121.982 240.428C121.629 241.076 121.275 241.666 121.511 242.373C121.864 243.316 122.63 243.316 123.161 243.375C123.632 243.375 123.691 243.433 123.691 243.551C123.75 244.376 123.632 244.966 123.279 245.26C123.102 245.378 122.866 245.378 122.63 245.378C122.336 245.378 122.041 245.378 121.805 245.614C121.57 245.85 121.275 246.616 121.393 247.264C121.452 247.676 121.629 248.03 121.923 248.266C122.454 248.619 122.984 248.619 123.338 248.56C123.632 248.56 123.809 248.501 123.927 248.619C124.045 248.678 124.222 248.914 124.398 249.15C125.047 249.857 126.107 251.035 126.932 251.153C126.932 251.153 126.932 251.153 126.991 251.153C127.757 251.271 128.347 251.153 128.7 250.858C128.877 250.682 128.995 250.446 129.054 250.151C129.054 249.857 128.877 249.562 128.7 249.15C128.347 248.442 128.111 247.971 128.523 247.676C128.877 247.441 129.172 247.441 129.584 247.441C130.114 247.441 130.763 247.5 131.352 246.792C131.411 246.792 131.47 246.792 131.529 246.792C133.65 246.91 136.95 247.146 138.541 248.089C139.661 248.796 139.661 249.15 139.602 249.975C139.543 250.741 139.484 251.742 140.25 253.51C140.014 254.217 139.897 255.042 140.014 256.398C140.309 260.523 143.491 264.707 143.727 265.001C143.845 265.178 144.022 265.355 144.139 265.473C144.611 265.826 145.789 266.475 147.145 267.241C148.618 268.066 150.327 269.008 151.447 269.775C152.743 270.717 154.157 271.66 154.334 272.721C154.393 273.192 154.275 273.723 153.804 274.253C152.213 276.375 150.209 283.682 150.209 283.976L150.622 284.035C150.68 283.564 152.684 276.492 154.157 274.548C154.629 273.9 154.805 273.31 154.747 272.721Z" fill="url(#paint10_linear_3614_8645)"/>
<path d="M151.564 274.607C150.916 272.367 147.675 269.951 146.614 269.303C144.316 267.889 139.013 267.594 136.596 268.125C135.477 268.36 134.711 268.714 134.004 269.067C133.238 269.421 132.589 269.775 131.705 269.775C129.879 269.775 128.877 270.01 127.993 270.659C127.816 270.776 127.757 270.953 127.757 271.071C127.757 271.425 128.052 271.778 128.464 272.132C128.759 272.426 129.171 272.78 129.113 273.016C129.113 273.134 128.995 273.192 128.877 273.251C127.698 273.9 126.755 272.957 126.696 272.957L126.402 273.251C126.402 273.251 127.58 274.489 129.113 273.664C129.407 273.487 129.525 273.31 129.584 273.075C129.643 272.603 129.23 272.191 128.759 271.837C128.523 271.601 128.17 271.307 128.17 271.13L128.229 271.071C128.995 270.482 129.938 270.246 131.647 270.246C132.648 270.246 133.355 269.892 134.18 269.48C134.829 269.126 135.595 268.773 136.655 268.537C138.954 268.066 144.139 268.301 146.32 269.657C147.616 270.482 150.504 272.721 151.093 274.725C151.27 275.255 150.975 276.257 150.621 276.964C148.854 281.089 148.264 284.035 148.264 284.035L148.677 284.153C148.677 284.153 149.266 281.207 151.034 277.141C151.329 276.669 151.8 275.373 151.564 274.607Z" fill="url(#paint11_linear_3614_8645)"/>
<path d="M152.625 274.254C152.507 273.429 151.682 272.486 151.388 272.191C151.329 272.132 151.329 272.132 151.329 272.073C149.679 270.129 147.263 268.243 145.672 267.654C145.259 267.477 144.67 267.359 144.022 267.241C141.429 266.004 138.954 265.532 136.538 265.061C135.241 264.825 133.886 264.53 132.531 264.177C128.936 263.116 122.866 257.105 122.631 256.87C122.454 256.634 118.329 251.448 117.975 249.621C117.798 248.855 116.914 244.966 116.502 243.846C116.089 242.904 110.904 241.195 109.902 240.841H109.843C107.309 240.723 103.656 240.488 103.302 240.252C102.889 239.957 102.418 238.543 102.477 237.954C102.477 237.718 102.772 237.541 103.066 237.364C103.538 237.07 104.068 236.657 104.186 235.95C104.245 235.42 103.891 233.829 103.243 231.295C102.654 228.879 101.829 225.579 102.064 224.989C102.241 224.459 102.595 224.4 102.889 224.282C103.184 224.223 103.597 224.105 103.714 223.575C103.773 223.398 103.656 223.28 103.597 223.163C103.361 222.868 102.831 222.927 102.123 222.986C101.416 223.045 100.473 223.104 100.12 222.75L99.8252 223.104C100.356 223.575 101.298 223.516 102.123 223.457C102.536 223.457 103.125 223.398 103.243 223.516C103.184 223.752 103.066 223.811 102.772 223.87C102.418 223.987 101.888 224.105 101.593 224.871C101.357 225.52 101.888 227.877 102.772 231.413C103.243 233.416 103.773 235.42 103.714 235.891C103.656 236.421 103.184 236.716 102.772 237.011C102.359 237.246 102.006 237.541 101.947 237.954C101.829 238.72 102.359 240.311 102.948 240.723C103.42 241.077 108.193 241.313 109.725 241.371C112.672 242.314 115.795 243.611 116.031 244.082C116.384 244.907 116.973 247.559 117.504 249.739C117.916 251.684 122.1 256.929 122.277 257.164C122.513 257.4 128.582 263.529 132.354 264.648C133.709 265.061 135.064 265.296 136.361 265.532C138.306 265.886 140.25 266.298 142.313 267.064C141.193 266.946 139.956 266.829 138.777 266.77C137.775 266.711 136.891 266.652 136.125 266.534C130.527 265.945 127.404 265.12 125.4 263.646C123.102 262.055 116.266 255.986 115.677 255.279C115.382 254.925 115.264 254.454 115.088 253.923C114.97 253.511 114.852 253.039 114.616 252.509C113.732 250.564 110.491 248.502 108.134 246.97C106.897 246.204 105.836 245.496 105.6 245.143C105.247 244.612 105.364 244.259 105.541 243.788C105.659 243.493 105.836 243.08 105.836 242.609H105.364C105.364 243.021 105.247 243.316 105.129 243.611C104.893 244.141 104.716 244.612 105.188 245.379C105.482 245.791 106.484 246.439 107.839 247.323C110.197 248.796 113.379 250.859 114.145 252.686C114.381 253.157 114.498 253.629 114.616 254.041C114.793 254.63 114.911 255.102 115.264 255.573C115.854 256.28 122.748 262.409 125.047 264C127.168 265.473 130.291 266.357 136.007 266.946C136.714 267.005 137.657 267.064 138.659 267.182C141.134 267.359 143.963 267.536 145.377 268.066C146.909 268.596 149.266 270.482 150.857 272.368C150.857 272.368 150.916 272.427 150.975 272.486C151.211 272.78 152.036 273.664 152.154 274.312C152.272 274.961 151.8 276.257 151.152 277.966C150.563 279.616 149.797 281.679 149.148 284.154L149.561 284.271C150.209 281.796 150.975 279.793 151.564 278.143C152.272 276.257 152.743 275.02 152.625 274.254Z" fill="url(#paint12_linear_3614_8645)"/>
<path d="M105.364 211.259C105.305 211.612 104.952 212.143 104.539 212.732C103.773 213.852 102.948 215.089 103.479 216.091C103.773 216.621 104.48 217.093 105.305 217.682C106.838 218.684 108.782 219.98 109.548 222.337C110.786 226.05 113.968 232.709 113.968 232.768V232.827C114.027 232.885 117.857 238.13 116.561 243.198L116.973 243.316C118.329 238.13 114.616 233.003 114.322 232.591C114.322 232.532 114.204 232.355 114.086 232.119C114.616 232.002 115.795 231.648 116.62 230.587C117.209 229.821 117.445 228.761 117.327 227.582C117.091 225.519 116.089 223.575 115.205 221.866C114.439 220.393 113.791 219.155 113.85 218.212C113.909 217.387 114.38 217.269 114.97 217.093C115.677 216.916 116.561 216.621 116.738 215.089C116.914 213.439 115.795 212.732 114.852 212.143C114.086 211.671 113.673 211.377 113.732 210.846C113.85 209.373 115.972 207.31 115.972 207.31L115.677 206.957C115.559 207.075 113.438 209.137 113.32 210.787C113.261 211.612 113.968 212.084 114.675 212.496C115.559 213.027 116.502 213.616 116.325 214.971C116.207 216.209 115.559 216.385 114.852 216.562C114.204 216.739 113.497 216.916 113.438 218.035C113.379 219.096 114.027 220.393 114.793 221.925C115.618 223.575 116.62 225.46 116.855 227.464C116.973 228.525 116.797 229.409 116.266 230.116C115.5 231.118 114.322 231.412 113.909 231.471C113.025 229.527 110.904 224.871 109.902 222.043C109.077 219.568 107.014 218.153 105.482 217.152C104.716 216.621 104.009 216.15 103.773 215.737C103.361 214.971 104.127 213.852 104.775 212.909C105.188 212.26 105.6 211.671 105.659 211.259C105.718 210.61 105.129 209.668 104.363 208.548C103.714 207.546 102.948 206.427 102.83 205.602L102.418 205.66C102.536 206.603 103.302 207.723 104.009 208.784C104.775 209.844 105.423 210.787 105.364 211.259Z" fill="url(#paint13_linear_3614_8645)"/>
<path d="M149.974 276.139C149.443 274.902 147.852 273.9 146.733 273.134C146.261 272.839 145.908 272.603 145.731 272.427C145.554 272.25 145.495 272.073 145.495 271.896C145.377 271.366 145.2 270.894 144.081 270.423C142.372 269.716 138.247 269.362 136.891 270.187C136.361 270.541 136.243 270.953 136.302 271.307C136.42 272.25 137.599 273.134 138.6 273.487C139.308 273.723 139.366 274.489 139.425 275.255C139.484 275.903 139.543 276.61 140.015 276.964C140.309 277.2 140.486 277.435 140.427 277.671C140.368 277.907 139.956 278.202 139.013 278.319C137.717 278.437 135.713 277.966 135.654 277.907L135.536 278.319C135.595 278.319 137.658 278.85 139.013 278.732C140.015 278.614 140.663 278.26 140.781 277.73C140.899 277.318 140.663 276.905 140.192 276.552C139.897 276.316 139.838 275.785 139.779 275.196C139.72 274.371 139.661 273.369 138.659 273.075C137.599 272.721 136.715 271.955 136.656 271.307C136.597 271.071 136.774 270.835 137.009 270.659C138.188 269.952 142.018 270.187 143.786 270.894C144.788 271.307 144.847 271.66 144.965 272.014C145.024 272.25 145.083 272.544 145.318 272.78C145.495 272.957 145.908 273.252 146.379 273.546C147.44 274.194 148.972 275.255 149.502 276.316C149.856 277.082 149.443 277.907 148.913 279.085C148.441 280.205 147.793 281.56 147.558 283.446L147.97 283.505C148.206 281.678 148.854 280.382 149.325 279.321C149.974 278.025 150.386 277.082 149.974 276.139Z" fill="url(#paint14_linear_3614_8645)"/>
</g>
<path d="M165.059 183.563C186.604 183.563 204.07 174.17 204.07 162.584C204.07 150.998 186.604 141.605 165.059 141.605C143.514 141.605 126.048 150.998 126.048 162.584C126.048 174.17 143.514 183.563 165.059 183.563Z" fill="#2A697F"/>
<path d="M164.705 162.879C174.144 162.879 181.795 159.079 181.795 154.393C181.795 149.706 174.144 145.907 164.705 145.907C155.267 145.907 147.616 149.706 147.616 154.393C147.616 159.079 155.267 162.879 164.705 162.879Z" fill="#293C4F"/>
<path d="M164.705 147.97C173.427 147.97 180.675 151.211 181.677 155.395C181.736 155.041 181.795 154.747 181.795 154.393C181.795 149.738 174.134 145.907 164.705 145.907C155.277 145.907 147.616 149.679 147.616 154.393C147.616 154.747 147.675 155.1 147.734 155.395C148.736 151.211 155.925 147.97 164.705 147.97Z" fill="#DBDBDB"/>
<path d="M181.677 157.163L181.264 155.513C180.263 151.447 173.132 148.383 164.705 148.383C156.22 148.383 149.089 151.447 148.146 155.513L147.734 157.163L147.321 155.513C147.204 155.159 147.204 154.747 147.204 154.393C147.204 151.977 149.089 149.738 152.448 148.029C155.748 146.379 160.109 145.495 164.705 145.495C169.302 145.495 173.721 146.379 176.963 148.029C180.321 149.679 182.207 151.977 182.207 154.393C182.207 154.747 182.148 155.1 182.089 155.513L181.677 157.163ZM164.705 147.558C172.366 147.558 179.025 150.092 181.323 153.627C180.498 149.561 173.368 146.32 164.705 146.32C156.043 146.32 148.913 149.502 148.088 153.627C150.386 150.092 157.045 147.558 164.705 147.558Z" fill="#323A50"/>
<path d="M165.118 141.664C143.609 141.664 126.107 150.857 126.107 162.171C126.107 173.486 143.55 182.678 165.118 182.678C186.627 182.678 204.128 173.486 204.128 162.171C204.128 150.857 186.686 141.664 165.118 141.664ZM181.794 154.334C181.794 154.393 181.853 154.51 181.853 154.569C181.853 154.628 181.853 154.746 181.853 154.805C181.146 159.048 173.839 162.407 164.882 162.407C156.16 162.407 148.559 159.225 147.969 155.159C147.969 155.041 147.852 154.923 147.852 154.864C147.852 154.805 147.793 154.746 147.793 154.687C147.793 154.628 147.793 154.687 147.793 154.628C147.793 154.51 147.734 154.393 147.734 154.393C147.734 154.393 147.734 153.98 147.734 153.862C147.793 153.273 147.969 152.684 148.264 152.153C148.559 151.623 148.912 151.093 149.384 150.621L149.443 150.562C152.212 147.793 158.105 145.671 164.882 145.671C174.311 145.671 182.03 149.619 182.03 153.744H181.853C181.794 154.393 181.853 154.216 181.794 154.334Z" fill="#DBDBDB"/>
<path d="M165.118 183.091C154.628 183.091 144.787 180.97 137.362 177.022C129.878 173.073 125.753 167.829 125.753 162.172C125.753 156.514 129.878 151.27 137.362 147.322C144.787 143.432 154.628 141.252 165.118 141.252C175.607 141.252 185.448 143.373 192.873 147.322C200.357 151.27 204.482 156.514 204.482 162.172C204.482 167.829 200.357 173.073 192.873 177.022C185.448 180.911 175.607 183.091 165.118 183.091ZM165.118 142.077C143.844 142.077 126.519 151.093 126.519 162.172C126.519 173.25 143.844 182.266 165.118 182.266C186.391 182.266 203.716 173.25 203.716 162.172C203.716 151.093 186.391 142.077 165.118 142.077ZM164.764 162.879C155.925 162.879 148.441 159.638 147.38 155.277C147.38 155.159 147.321 155.041 147.321 154.923C147.321 154.864 147.321 154.806 147.262 154.747C147.262 154.688 147.262 154.629 147.262 154.629V154.57C147.262 154.452 147.262 154.334 147.262 154.157V153.745C147.321 153.156 147.498 152.566 147.852 151.977C148.146 151.447 148.5 150.916 149.03 150.386L149.089 150.327C152.036 147.381 158.046 145.554 164.764 145.554C169.419 145.554 173.78 146.438 177.08 148.029C180.498 149.679 182.325 151.859 182.325 154.216V154.629H182.207C182.207 154.688 182.207 154.688 182.207 154.747C182.207 154.806 182.207 154.864 182.148 154.923C181.5 159.461 174.016 162.879 164.764 162.879ZM148.087 154.098C148.087 154.275 148.087 154.334 148.087 154.452V154.511C148.087 154.57 148.087 154.57 148.087 154.629C148.087 154.688 148.087 154.747 148.087 154.806C148.087 154.923 148.146 154.982 148.146 155.1C149.148 159.048 156.278 162.054 164.705 162.054C173.368 162.054 180.675 158.872 181.323 154.806V154.747C181.323 154.688 181.264 154.629 181.323 154.57C181.323 154.57 181.323 154.511 181.323 154.452C181.323 154.393 181.323 154.334 181.323 154.216V153.804H181.5C181.264 151.918 179.614 150.091 176.727 148.736C173.544 147.204 169.302 146.379 164.764 146.379C158.341 146.379 152.389 148.147 149.619 150.916L149.561 150.975C149.089 151.447 148.794 151.859 148.559 152.331C148.264 152.861 148.146 153.332 148.087 153.804C148.087 153.922 148.087 154.098 148.087 154.098Z" fill="#323A50"/>
<g opacity="0.3">
<path d="M166.12 295.527C166.061 295.527 166.002 295.527 166.002 295.527C152.33 295.527 138.718 291.696 126.638 284.566H126.579L125.989 283.977C110.904 275.255 99.5893 261.643 93.2251 244.612C90.6911 238.012 89.159 231 88.5108 223.103C88.2751 219.391 88.2751 215.914 88.5108 212.261C88.6876 208.607 89.2179 204.894 90.1608 200.593C91.1036 196.173 92.5768 191.812 94.5804 187.098L95.3465 187.452C93.3429 192.048 91.8697 196.409 90.9858 200.769C90.0429 205.071 89.5715 208.725 89.3357 212.319C89.159 215.973 89.159 219.391 89.3357 223.103C89.984 230.941 91.5161 237.894 93.9911 244.377C100.296 261.23 111.552 274.666 126.461 283.328H126.52L127.109 283.918C151.446 298.296 180.498 298.355 204.954 284.094C206.132 283.269 207.429 282.444 208.843 281.619C221.748 273.311 231.471 261.466 237.659 246.321C237.954 245.614 238.189 244.848 238.484 244.082C238.72 243.316 239.014 242.55 239.309 241.843C244.023 227.523 244.554 212.909 240.9 198.412V198.353C240.782 197.764 238.366 190.339 236.893 186.98L237.659 186.686C239.014 189.868 241.489 197.293 241.725 198.294C245.379 212.968 244.848 227.7 240.075 242.196V242.255C239.78 242.962 239.545 243.728 239.25 244.494C239.014 245.261 238.72 246.027 238.425 246.793C232.179 262.055 222.396 274.077 209.314 282.444C207.9 283.269 206.663 284.094 205.484 284.861C193.286 291.814 179.732 295.527 166.12 295.527Z" fill="#323A50"/>
</g>
<path d="M263.588 189.632C261.702 183.386 256.752 179.143 248.738 177.081C244.141 175.902 239.898 175.784 238.072 175.784C238.013 175.548 237.895 175.313 237.718 175.136C239.25 175.077 243.905 175.136 248.855 176.432C256.929 178.554 262.232 183.032 264.118 189.397C264.53 190.222 276.139 214.677 277.613 228.997C277.966 232.768 281.03 233.593 286.629 235.125C291.225 236.363 297.589 238.131 305.427 242.314L305.132 242.904C297.354 238.72 291.048 237.011 286.452 235.773C280.795 234.241 277.377 233.298 276.964 229.056C275.786 217.388 267.772 198.825 264.707 192.166C264.884 197.116 261.407 203.952 254.395 212.556C247.677 220.806 237.718 230.706 224.754 241.961C219.922 246.145 215.089 250.152 210.434 253.982L209.668 253.747C214.382 249.975 219.391 245.732 224.282 241.489C253.452 216.15 267.005 198.236 263.588 189.632Z" fill="#323A50"/>
<path d="M240.075 181.854C240.016 181.383 239.368 179.084 239.25 178.672C239.309 178.436 240.193 179.85 240.134 179.615C240.134 179.143 239.84 178.672 239.427 178.377C239.486 177.906 239.486 177.67 239.015 177.375C239.074 177.14 238.543 177.14 238.484 176.963C239.309 178.377 240.311 180.204 240.606 181.736C241.961 188.866 231.118 205.661 208.431 231.825C203.422 237.6 198.354 243.258 193.757 248.149L193.05 247.913C213.381 225.933 241.843 192.697 240.075 181.854Z" fill="#323A50"/>
<path d="M237.836 175.077C237.954 175.195 238.013 175.313 238.131 175.431L242.373 175.254C240.429 175.077 238.838 175.077 237.836 175.077Z" fill="#323A50"/>
<path d="M238.956 177.14L249.857 176.728C249.445 176.61 249.032 176.492 248.561 176.374L238.779 176.787C238.897 176.845 238.956 177.022 238.956 177.14Z" fill="#323A50"/>
<path d="M239.368 178.79L253.864 178.2C253.57 178.082 253.334 177.965 253.039 177.847L239.25 178.377C239.25 178.436 239.25 178.495 239.25 178.554C239.309 178.613 239.368 178.731 239.368 178.79Z" fill="#323A50"/>
<path d="M240.075 180.498L256.752 179.85C256.575 179.732 256.339 179.614 256.163 179.438L240.016 180.086C240.016 180.263 240.016 180.38 240.075 180.498Z" fill="#323A50"/>
<path d="M240.252 182.09L258.696 181.324C258.52 181.206 258.402 181.088 258.225 180.911L240.193 181.618C240.252 181.795 240.252 181.972 240.252 182.09Z" fill="#323A50"/>
<path d="M240.311 183.799L260.406 182.974C260.288 182.856 260.17 182.738 260.052 182.562L240.37 183.387C240.311 183.563 240.311 183.681 240.311 183.799Z" fill="#323A50"/>
<path d="M240.075 185.213C240.016 185.331 240.016 185.448 239.958 185.507L261.702 184.623C261.584 184.506 261.525 184.329 261.407 184.211L240.075 185.095C240.075 185.154 240.075 185.154 240.075 185.213Z" fill="#323A50"/>
<path d="M239.545 187.04C239.545 187.098 239.486 187.216 239.486 187.275L262.763 186.332C262.704 186.215 262.645 186.038 262.527 185.92L239.604 186.863C239.545 186.922 239.545 186.981 239.545 187.04Z" fill="#323A50"/>
<path d="M238.838 188.572L263.293 187.57C263.352 187.688 263.411 187.865 263.47 187.983L238.72 188.985C238.72 188.867 238.779 188.69 238.838 188.572Z" fill="#323A50"/>
<path d="M238.13 190.34L263.941 189.279C264 189.397 264 189.515 264.059 189.692L237.954 190.753C238.013 190.635 238.071 190.458 238.13 190.34Z" fill="#323A50"/>
<path d="M237.306 192.048L264.295 190.929C264.295 191.047 264.354 191.164 264.354 191.341L237.129 192.461C237.188 192.343 237.247 192.225 237.306 192.048Z" fill="#323A50"/>
<path d="M236.363 193.817L264.413 192.697C264.413 192.815 264.413 192.992 264.413 193.11L236.127 194.229C236.245 194.112 236.304 193.994 236.363 193.817Z" fill="#323A50"/>
<path d="M235.479 195.467L264.295 194.288C264.295 194.406 264.236 194.583 264.236 194.701L235.243 195.879C235.302 195.702 235.42 195.585 235.479 195.467Z" fill="#323A50"/>
<path d="M234.418 197.234L263.882 196.056C263.823 196.174 263.823 196.35 263.764 196.468L234.182 197.647C234.241 197.529 234.359 197.352 234.418 197.234Z" fill="#323A50"/>
<path d="M233.357 198.944L263.352 197.706C263.293 197.824 263.234 198.001 263.175 198.119L233.062 199.356C233.18 199.238 233.298 199.12 233.357 198.944Z" fill="#323A50"/>
<path d="M232.238 200.711L262.645 199.474C262.586 199.591 262.527 199.768 262.468 199.886L231.943 201.124C232.061 201.006 232.12 200.888 232.238 200.711Z" fill="#323A50"/>
<path d="M231.118 202.42L261.879 201.183C261.82 201.3 261.761 201.477 261.643 201.595L230.823 202.833C230.941 202.656 231 202.538 231.118 202.42Z" fill="#323A50"/>
<path d="M229.881 204.188L260.877 202.95C260.818 203.068 260.7 203.245 260.641 203.363L229.586 204.6C229.704 204.423 229.822 204.306 229.881 204.188Z" fill="#323A50"/>
<path d="M228.643 205.897L259.816 204.659C259.757 204.777 259.639 204.954 259.58 205.072L228.348 206.309C228.466 206.191 228.584 206.073 228.643 205.897Z" fill="#323A50"/>
<path d="M227.405 207.723L258.696 206.427C258.579 206.545 258.52 206.721 258.402 206.839L227.052 208.136C227.17 207.959 227.287 207.841 227.405 207.723Z" fill="#323A50"/>
<path d="M226.168 209.315L257.518 208.019C257.4 208.136 257.341 208.313 257.223 208.431L225.814 209.727C225.991 209.61 226.109 209.492 226.168 209.315Z" fill="#323A50"/>
<path d="M224.872 211.083L256.281 209.786C256.163 209.904 256.045 210.081 255.986 210.199L224.518 211.554C224.636 211.377 224.754 211.259 224.872 211.083Z" fill="#323A50"/>
<path d="M223.516 212.85L254.925 211.554C254.807 211.672 254.69 211.848 254.572 211.966L223.222 213.263C223.34 213.145 223.398 212.968 223.516 212.85Z" fill="#323A50"/>
<path d="M222.161 214.619L253.452 213.322C253.334 213.44 253.216 213.617 253.098 213.735L221.807 215.031C221.925 214.913 222.043 214.795 222.161 214.619Z" fill="#323A50"/>
<path d="M220.805 216.386L252.038 215.148C251.92 215.266 251.802 215.443 251.684 215.561L220.511 216.798C220.57 216.681 220.688 216.563 220.805 216.386Z" fill="#323A50"/>
<path d="M219.391 218.154L250.506 216.916C250.388 217.034 250.27 217.211 250.152 217.329L219.097 218.566C219.156 218.448 219.273 218.33 219.391 218.154Z" fill="#323A50"/>
<path d="M217.977 219.922L248.915 218.685C248.797 218.802 248.679 218.979 248.502 219.097L217.624 220.335C217.741 220.217 217.859 220.099 217.977 219.922Z" fill="#323A50"/>
<path d="M216.563 221.631L247.323 220.394C247.205 220.511 247.088 220.688 246.911 220.806L216.209 222.044C216.386 221.867 216.504 221.749 216.563 221.631Z" fill="#323A50"/>
<path d="M215.266 223.222L245.791 221.984C245.673 222.102 245.497 222.279 245.379 222.397L214.913 223.634C215.03 223.517 215.148 223.399 215.266 223.222Z" fill="#323A50"/>
<path d="M213.793 225.049L244.082 223.812C243.964 223.929 243.788 224.106 243.67 224.224L213.439 225.462C213.557 225.344 213.675 225.167 213.793 225.049Z" fill="#323A50"/>
<path d="M212.32 226.817L242.315 225.579C242.197 225.697 242.02 225.874 241.902 225.992L211.966 227.229C212.084 227.052 212.202 226.934 212.32 226.817Z" fill="#323A50"/>
<path d="M210.788 228.584L240.488 227.405C240.37 227.523 240.193 227.7 240.075 227.818L210.434 228.996C210.552 228.878 210.67 228.702 210.788 228.584Z" fill="#323A50"/>
<path d="M209.373 230.234L238.838 229.056C238.72 229.174 238.543 229.35 238.425 229.468L209.079 230.647C209.138 230.529 209.255 230.411 209.373 230.234Z" fill="#323A50"/>
<path d="M207.959 231.885L237.07 230.706C236.893 230.824 236.775 231.001 236.598 231.119L207.546 232.297C207.723 232.179 207.841 232.002 207.959 231.885Z" fill="#323A50"/>
<path d="M206.427 233.652L235.184 232.474C235.008 232.591 234.89 232.768 234.713 232.886L206.015 234.065C206.191 233.947 206.309 233.829 206.427 233.652Z" fill="#323A50"/>
<path d="M204.895 235.42L233.299 234.241C233.122 234.359 233.004 234.536 232.827 234.654L204.482 235.773C204.659 235.714 204.777 235.597 204.895 235.42Z" fill="#323A50"/>
<path d="M203.304 237.247L231.354 236.127C231.177 236.245 231.059 236.422 230.882 236.539L202.95 237.659C203.068 237.482 203.186 237.364 203.304 237.247Z" fill="#323A50"/>
<path d="M201.712 239.014L229.35 237.895C229.173 238.012 229.055 238.189 228.879 238.307L201.359 239.427C201.477 239.309 201.595 239.191 201.712 239.014Z" fill="#323A50"/>
<path d="M200.298 240.665L227.523 239.545C227.346 239.663 227.229 239.84 227.052 239.957L199.886 241.077C200.004 240.959 200.121 240.782 200.298 240.665Z" fill="#323A50"/>
<path d="M198.648 242.433L225.461 241.372C225.284 241.49 225.166 241.667 224.99 241.785L198.295 242.845C198.413 242.727 198.531 242.61 198.648 242.433Z" fill="#323A50"/>
<path d="M197.057 244.2L223.457 243.14C223.28 243.258 223.104 243.434 222.986 243.552L196.704 244.613C196.821 244.495 196.939 244.377 197.057 244.2Z" fill="#323A50"/>
<path d="M195.466 246.028L221.395 244.967C221.218 245.085 221.041 245.261 220.924 245.379L195.113 246.44C195.231 246.322 195.349 246.145 195.466 246.028Z" fill="#323A50"/>
<path d="M193.934 247.677L219.45 246.616C219.273 246.734 219.097 246.911 218.979 247.029L193.581 248.03C193.698 247.972 193.816 247.795 193.934 247.677Z" fill="#323A50"/>
<path d="M194.405 249.209L217.505 248.267C217.328 248.384 217.152 248.561 216.975 248.679L195.407 249.563C195.112 249.445 194.759 249.327 194.405 249.209Z" fill="#323A50"/>
<path d="M199.002 250.741L215.384 250.093C215.207 250.211 215.031 250.387 214.854 250.505L200.063 251.095C199.709 251.036 199.356 250.918 199.002 250.741Z" fill="#323A50"/>
<path d="M203.657 252.274L213.263 251.861C213.086 251.979 212.909 252.156 212.732 252.274L204.777 252.568C204.423 252.51 204.011 252.392 203.657 252.274Z" fill="#323A50"/>
<path d="M208.312 253.805L211.023 253.688C210.846 253.805 210.67 253.982 210.493 254.1L209.373 254.159C209.02 254.041 208.666 253.923 208.312 253.805Z" fill="#323A50"/>
<path d="M69.3002 189.632C71.1859 183.386 76.1359 179.143 84.1502 177.081C88.7466 175.902 92.9895 175.784 94.8163 175.784C94.8752 175.548 94.9931 175.313 95.1699 175.136C93.6377 175.077 88.9823 175.136 84.0323 176.432C75.9591 178.554 70.6556 183.032 68.7699 189.397C68.3574 190.222 56.7484 214.677 55.2752 228.997C54.9216 232.768 51.8574 233.593 46.2591 235.125C41.6627 236.363 35.2984 238.131 27.4609 242.314L27.7556 242.904C35.5342 238.72 41.8395 237.011 46.4359 235.773C52.0931 234.241 55.5109 233.298 55.9234 229.056C57.102 217.388 65.1163 198.825 68.1806 192.166C68.0038 197.116 71.4806 203.952 78.4931 212.556C85.2109 220.806 95.1699 230.706 108.134 241.961C112.966 246.145 117.798 250.152 122.454 253.982L123.22 253.747C118.506 249.975 113.497 245.732 108.606 241.489C79.4359 216.15 65.8824 198.236 69.3002 189.632Z" fill="#323A50"/>
<path d="M92.8128 181.854C92.8717 181.383 93.52 179.084 93.6378 178.672C93.5789 178.436 92.695 179.85 92.7539 179.615C92.7539 179.143 93.0485 178.672 93.461 178.377C93.4021 177.906 93.4021 177.67 93.8735 177.375C93.8146 177.14 94.345 177.14 94.4039 176.963C93.5789 178.377 92.5771 180.204 92.2824 181.736C90.9271 188.866 101.77 205.661 124.457 231.825C129.466 237.6 134.534 243.258 139.131 248.149L139.838 247.913C119.507 225.933 91.045 192.697 92.8128 181.854Z" fill="#323A50"/>
<path d="M95.0522 175.077C94.9343 175.195 94.8754 175.313 94.7575 175.431L90.5146 175.254C92.4593 175.077 94.0504 175.077 95.0522 175.077Z" fill="#323A50"/>
<path d="M93.9325 177.14L83.0308 176.728C83.4433 176.61 83.8557 176.492 84.3272 176.374L94.1093 176.787C93.9915 176.845 93.9325 177.022 93.9325 177.14Z" fill="#323A50"/>
<path d="M93.4613 178.79L78.9648 178.2C79.2595 178.082 79.4952 177.965 79.7899 177.847L93.5791 178.377C93.5791 178.436 93.5791 178.495 93.5791 178.554C93.5791 178.613 93.5202 178.731 93.4613 178.79Z" fill="#323A50"/>
<path d="M92.813 180.498L76.1362 179.85C76.313 179.732 76.5487 179.614 76.7255 179.438L92.8719 180.086C92.8719 180.263 92.813 180.38 92.813 180.498Z" fill="#323A50"/>
<path d="M92.636 182.09L74.1914 181.324C74.3682 181.206 74.486 181.088 74.6628 180.911L92.695 181.618C92.636 181.795 92.636 181.972 92.636 182.09Z" fill="#323A50"/>
<path d="M92.5771 183.799L72.4824 182.974C72.6003 182.856 72.7181 182.738 72.836 182.562L92.5181 183.387C92.5771 183.563 92.5771 183.681 92.5771 183.799Z" fill="#323A50"/>
<path d="M92.8128 185.213C92.8718 185.331 92.8718 185.448 92.9307 185.507L71.186 184.623C71.3039 184.506 71.3628 184.329 71.4807 184.211L92.8128 185.095C92.8128 185.154 92.8128 185.154 92.8128 185.213Z" fill="#323A50"/>
<path d="M93.3434 187.04C93.3434 187.098 93.4023 187.216 93.4023 187.275L70.1255 186.332C70.1844 186.215 70.2434 186.038 70.3612 185.92L93.2844 186.863C93.3433 186.922 93.3434 186.981 93.3434 187.04Z" fill="#323A50"/>
<path d="M94.0506 188.572L69.5952 187.57C69.5363 187.688 69.4774 187.865 69.4185 187.983L94.1685 188.985C94.1095 188.867 94.0506 188.69 94.0506 188.572Z" fill="#323A50"/>
<path d="M94.7577 190.34L68.947 189.279C68.888 189.397 68.888 189.515 68.8291 189.692L94.9345 190.753C94.8755 190.635 94.8166 190.458 94.7577 190.34Z" fill="#323A50"/>
<path d="M95.5824 192.048L68.5931 190.929C68.5931 191.047 68.5342 191.164 68.5342 191.341L95.7592 192.461C95.7003 192.343 95.6413 192.225 95.5824 192.048Z" fill="#323A50"/>
<path d="M96.5256 193.817L68.4756 192.697C68.4756 192.815 68.4756 192.992 68.4756 193.11L96.7613 194.229C96.6434 194.112 96.5845 193.994 96.5256 193.817Z" fill="#323A50"/>
<path d="M97.4093 195.467L68.5933 194.288C68.5933 194.406 68.6522 194.583 68.6522 194.701L97.645 195.879C97.5861 195.702 97.4682 195.585 97.4093 195.467Z" fill="#323A50"/>
<path d="M98.4701 197.234L69.0059 196.056C69.0648 196.174 69.0648 196.35 69.1237 196.468L98.7059 197.647C98.588 197.529 98.5291 197.352 98.4701 197.234Z" fill="#323A50"/>
<path d="M99.5308 198.944L69.5361 197.706C69.5951 197.824 69.654 198.001 69.7129 198.119L99.8254 199.356C99.7076 199.238 99.5897 199.12 99.5308 198.944Z" fill="#323A50"/>
<path d="M100.65 200.711L70.2432 199.474C70.3021 199.591 70.361 199.768 70.4199 199.886L100.945 201.124C100.827 201.006 100.768 200.888 100.65 200.711Z" fill="#323A50"/>
<path d="M101.77 202.42L71.0093 201.183C71.0682 201.3 71.1271 201.477 71.245 201.595L102.065 202.833C101.947 202.656 101.888 202.538 101.77 202.42Z" fill="#323A50"/>
<path d="M103.008 204.188L72.0112 202.95C72.0702 203.068 72.188 203.245 72.2469 203.363L103.302 204.6C103.184 204.423 103.067 204.306 103.008 204.188Z" fill="#323A50"/>
<path d="M104.186 205.897L73.0132 204.659C73.0721 204.777 73.1899 204.954 73.2489 205.072L104.481 206.309C104.422 206.191 104.304 206.073 104.186 205.897Z" fill="#323A50"/>
<path d="M105.482 207.723L74.1914 206.427C74.3093 206.545 74.3682 206.721 74.486 206.839L105.836 208.136C105.718 207.959 105.6 207.841 105.482 207.723Z" fill="#323A50"/>
<path d="M106.661 209.315L75.311 208.019C75.4289 208.136 75.4878 208.313 75.6057 208.431L107.015 209.727C106.897 209.61 106.779 209.492 106.661 209.315Z" fill="#323A50"/>
<path d="M108.016 211.083L76.6074 209.786C76.7253 209.904 76.8431 210.081 76.9021 210.199L108.311 211.495C108.252 211.377 108.134 211.259 108.016 211.083Z" fill="#323A50"/>
<path d="M109.372 212.85L77.9629 211.554C78.0807 211.672 78.1986 211.848 78.3165 211.966L109.666 213.263C109.549 213.145 109.431 212.968 109.372 212.85Z" fill="#323A50"/>
<path d="M110.727 214.619L79.436 213.322C79.5539 213.44 79.6718 213.617 79.7896 213.735L111.081 215.031C110.963 214.913 110.845 214.795 110.727 214.619Z" fill="#323A50"/>
<path d="M112.083 216.386L80.8506 215.148C80.9684 215.266 81.0863 215.443 81.2041 215.561L112.377 216.798C112.318 216.681 112.201 216.563 112.083 216.386Z" fill="#323A50"/>
<path d="M113.497 218.154L82.3828 216.916C82.5007 217.034 82.6185 217.211 82.7364 217.329L113.792 218.566C113.733 218.448 113.615 218.33 113.497 218.154Z" fill="#323A50"/>
<path d="M114.911 219.922L83.9736 218.685C84.0915 218.802 84.2094 218.979 84.3861 219.097L115.265 220.335C115.147 220.217 115.029 220.099 114.911 219.922Z" fill="#323A50"/>
<path d="M116.267 221.631L85.5059 220.394C85.6237 220.511 85.7416 220.688 85.9184 220.806L116.62 222.044C116.502 221.867 116.384 221.749 116.267 221.631Z" fill="#323A50"/>
<path d="M117.622 223.222L87.0967 221.984C87.2145 222.102 87.3913 222.279 87.5092 222.397L117.975 223.634C117.857 223.517 117.74 223.399 117.622 223.222Z" fill="#323A50"/>
<path d="M119.095 225.049L88.8057 223.812C88.9235 223.929 89.1003 224.106 89.2182 224.224L119.449 225.462C119.331 225.344 119.213 225.167 119.095 225.049Z" fill="#323A50"/>
<path d="M120.568 226.817L90.5737 225.579C90.6916 225.697 90.8684 225.874 90.9862 225.992L120.922 227.229C120.804 227.052 120.686 226.934 120.568 226.817Z" fill="#323A50"/>
<path d="M122.1 228.584L92.4004 227.405C92.5182 227.523 92.695 227.7 92.8129 227.818L122.454 228.996C122.336 228.878 122.218 228.702 122.1 228.584Z" fill="#323A50"/>
<path d="M123.515 230.234L94.0503 229.056C94.1682 229.174 94.3449 229.35 94.4628 229.468L123.809 230.647C123.75 230.529 123.632 230.411 123.515 230.234Z" fill="#323A50"/>
<path d="M124.929 231.885L95.8184 230.706C95.9951 230.824 96.113 231.001 96.2898 231.119L125.342 232.297C125.165 232.179 125.047 232.002 124.929 231.885Z" fill="#323A50"/>
<path d="M126.461 233.652L97.7041 232.474C97.8809 232.591 97.9987 232.768 98.1755 232.886L126.874 234.065C126.697 233.947 126.579 233.829 126.461 233.652Z" fill="#323A50"/>
<path d="M127.993 235.42L99.5898 234.241C99.7666 234.359 99.8845 234.536 100.061 234.654L128.406 235.773C128.229 235.714 128.111 235.597 127.993 235.42Z" fill="#323A50"/>
<path d="M129.584 237.247L101.534 236.127C101.711 236.245 101.829 236.422 102.006 236.539L129.938 237.659C129.82 237.482 129.702 237.364 129.584 237.247Z" fill="#323A50"/>
<path d="M131.176 239.014L103.538 237.895C103.715 238.012 103.833 238.189 104.01 238.307L131.529 239.427C131.411 239.309 131.293 239.191 131.176 239.014Z" fill="#323A50"/>
<path d="M132.59 240.665L105.365 239.545C105.542 239.663 105.659 239.84 105.836 239.957L133.002 241.077C132.884 240.959 132.708 240.782 132.59 240.665Z" fill="#323A50"/>
<path d="M134.24 242.433L107.427 241.372C107.604 241.49 107.722 241.667 107.899 241.785L134.593 242.845C134.475 242.727 134.358 242.61 134.24 242.433Z" fill="#323A50"/>
<path d="M135.772 244.2L109.372 243.14C109.549 243.258 109.726 243.434 109.844 243.552L136.126 244.613C136.067 244.495 135.89 244.377 135.772 244.2Z" fill="#323A50"/>
<path d="M137.422 246.028L111.493 244.967C111.67 245.085 111.847 245.261 111.965 245.379L137.775 246.44C137.657 246.322 137.54 246.145 137.422 246.028Z" fill="#323A50"/>
<path d="M138.895 247.677L113.379 246.616C113.556 246.734 113.732 246.911 113.85 247.029L139.249 248.03C139.19 247.972 139.072 247.795 138.895 247.677Z" fill="#323A50"/>
<path d="M138.424 249.209L115.324 248.267C115.501 248.384 115.677 248.561 115.854 248.679L137.422 249.563C137.776 249.445 138.129 249.327 138.424 249.209Z" fill="#323A50"/>
<path d="M133.886 250.741L117.504 250.093C117.681 250.211 117.857 250.387 118.034 250.505L132.825 251.095C133.179 251.036 133.532 250.918 133.886 250.741Z" fill="#323A50"/>
<path d="M129.231 252.274L119.625 251.861C119.802 251.979 119.979 252.156 120.156 252.274L128.111 252.568C128.465 252.51 128.818 252.392 129.231 252.274Z" fill="#323A50"/>
<path d="M124.575 253.805L121.865 253.688C122.042 253.805 122.218 253.982 122.395 254.1L123.515 254.159C123.868 254.041 124.222 253.923 124.575 253.805Z" fill="#323A50"/>
<path d="M165.589 138.6C149.561 138.6 132.589 136.302 132.589 132C132.589 127.699 149.62 125.4 165.589 125.4C181.559 125.4 198.589 127.699 198.589 132C198.589 136.302 181.618 138.6 165.589 138.6ZM165.589 126.284C146.614 126.284 133.414 129.349 133.414 132.059C133.414 134.77 146.614 137.834 165.589 137.834C184.564 137.834 197.764 134.77 197.764 132.059C197.764 129.349 184.564 126.284 165.589 126.284Z" fill="#FF00FF"/>
<path d="M110.373 156.927C110.255 156.927 110.196 156.868 110.078 156.809C109.902 156.632 109.902 156.396 110.078 156.22L111.669 154.57C111.846 154.393 112.082 154.393 112.259 154.57C112.436 154.746 112.436 154.982 112.259 155.159L110.668 156.809C110.55 156.927 110.432 156.927 110.373 156.927ZM220.393 156.161C220.275 156.161 220.157 156.102 220.098 156.043C219.45 155.395 218.919 154.805 218.389 154.275C218.212 154.098 218.212 153.862 218.389 153.686C218.566 153.509 218.802 153.509 218.978 153.686C219.509 154.216 220.039 154.805 220.687 155.454C220.864 155.63 220.864 155.866 220.687 156.043C220.628 156.102 220.511 156.161 220.393 156.161ZM113.673 153.509C113.555 153.509 113.496 153.45 113.378 153.391C113.202 153.214 113.202 152.979 113.378 152.802C114.027 152.095 114.616 151.564 115.087 151.034C115.264 150.857 115.5 150.857 115.677 151.034C115.853 151.211 115.853 151.446 115.677 151.623C115.205 152.154 114.616 152.684 113.968 153.391C113.909 153.509 113.791 153.509 113.673 153.509ZM216.975 152.625C216.857 152.625 216.739 152.566 216.68 152.507L214.971 150.739C214.794 150.562 214.794 150.327 214.971 150.15C215.148 149.973 215.384 149.973 215.561 150.15L217.269 151.918C217.446 152.095 217.446 152.33 217.269 152.507C217.211 152.625 217.093 152.625 216.975 152.625ZM117.032 149.973C116.914 149.973 116.855 149.914 116.737 149.855C116.561 149.679 116.561 149.443 116.737 149.266C117.327 148.618 117.798 148.087 118.387 147.498C118.564 147.321 118.8 147.321 118.977 147.439C119.153 147.616 119.153 147.852 119.036 148.029C118.446 148.677 117.975 149.207 117.386 149.855C117.268 149.973 117.15 149.973 117.032 149.973ZM213.616 149.148C213.498 149.148 213.38 149.089 213.321 149.03C212.791 148.441 212.261 147.911 211.671 147.204C211.494 147.027 211.553 146.791 211.73 146.614C211.907 146.437 212.143 146.496 212.319 146.673C212.909 147.38 213.439 147.911 213.969 148.441C214.146 148.618 214.146 148.854 213.969 149.03C213.793 149.089 213.675 149.148 213.616 149.148ZM120.332 146.379C120.214 146.379 120.155 146.32 120.037 146.261C119.861 146.084 119.861 145.848 119.978 145.671C120.45 145.141 120.98 144.493 121.569 143.786C121.687 143.609 121.982 143.609 122.159 143.727C122.336 143.845 122.336 144.139 122.218 144.316C121.687 144.964 121.098 145.671 120.627 146.202C120.568 146.32 120.45 146.379 120.332 146.379ZM210.316 145.495C210.198 145.495 210.08 145.436 210.021 145.377C209.727 145.023 209.432 144.67 209.078 144.316L208.43 143.55C208.312 143.373 208.312 143.137 208.489 142.961C208.666 142.843 208.902 142.843 209.078 143.02L209.727 143.786C210.08 144.198 210.375 144.552 210.669 144.846C210.787 145.023 210.787 145.259 210.611 145.436C210.493 145.436 210.434 145.495 210.316 145.495ZM123.514 142.607C123.396 142.607 123.337 142.548 123.278 142.489C123.102 142.371 123.102 142.077 123.219 141.9C123.691 141.311 124.221 140.662 124.811 140.014C124.928 139.837 125.223 139.837 125.4 139.955C125.577 140.073 125.577 140.368 125.459 140.545C124.869 141.193 124.398 141.841 123.868 142.43C123.75 142.607 123.632 142.607 123.514 142.607ZM207.134 141.782C207.016 141.782 206.898 141.723 206.839 141.664C206.309 141.075 205.778 140.486 205.248 139.837C205.071 139.661 205.13 139.425 205.307 139.248C205.484 139.071 205.719 139.13 205.896 139.307C206.486 139.955 207.016 140.545 207.487 141.134C207.664 141.311 207.605 141.546 207.428 141.723C207.311 141.723 207.252 141.782 207.134 141.782ZM126.696 138.895C126.578 138.895 126.519 138.836 126.402 138.777C126.225 138.6 126.225 138.364 126.343 138.187C126.873 137.539 127.462 136.95 127.934 136.361C128.111 136.184 128.346 136.184 128.523 136.302C128.7 136.479 128.7 136.714 128.582 136.891C128.052 137.48 127.521 138.129 126.991 138.718C126.873 138.836 126.755 138.895 126.696 138.895ZM203.893 138.07C203.775 138.07 203.657 138.011 203.598 137.952C203.068 137.362 202.478 136.714 201.948 136.125C201.771 135.948 201.83 135.712 201.948 135.536C202.125 135.359 202.361 135.418 202.537 135.536C203.068 136.125 203.657 136.714 204.187 137.362C204.364 137.539 204.305 137.775 204.128 137.952C204.069 138.07 204.011 138.07 203.893 138.07ZM129.937 135.241C129.819 135.241 129.761 135.182 129.643 135.123C129.466 134.946 129.466 134.711 129.643 134.534C130.173 133.945 130.762 133.296 131.293 132.707C131.469 132.53 131.705 132.53 131.882 132.707C132.059 132.884 132.059 133.12 131.882 133.296C131.352 133.886 130.762 134.475 130.232 135.064C130.173 135.182 130.055 135.241 129.937 135.241ZM200.593 134.475C200.475 134.475 200.357 134.416 200.298 134.357C199.709 133.768 199.178 133.179 198.589 132.589C198.412 132.412 198.412 132.177 198.589 132C198.766 131.823 199.002 131.823 199.178 132C199.768 132.589 200.298 133.179 200.887 133.768C201.064 133.945 201.064 134.18 200.887 134.357C200.769 134.475 200.652 134.475 200.593 134.475ZM133.296 131.646C133.178 131.646 133.119 131.587 133.002 131.529C132.825 131.352 132.825 131.116 133.002 130.939C133.591 130.35 134.18 129.761 134.711 129.171C134.887 128.995 135.123 128.995 135.3 129.171C135.477 129.348 135.477 129.584 135.3 129.761C134.711 130.291 134.18 130.88 133.591 131.529C133.473 131.587 133.414 131.646 133.296 131.646ZM197.175 130.998C197.057 130.998 196.939 130.939 196.88 130.88C196.291 130.291 195.702 129.702 195.112 129.171C194.936 128.995 194.936 128.759 195.112 128.582C195.289 128.405 195.525 128.405 195.702 128.582C196.291 129.112 196.88 129.702 197.469 130.291C197.646 130.468 197.646 130.704 197.469 130.88C197.352 130.939 197.234 130.998 197.175 130.998ZM136.773 128.17C136.655 128.17 136.537 128.111 136.478 128.052C136.302 127.875 136.302 127.639 136.478 127.462C137.068 126.873 137.657 126.343 138.246 125.754C138.423 125.577 138.659 125.636 138.836 125.754C139.012 125.93 138.953 126.166 138.836 126.343C138.246 126.873 137.657 127.462 137.068 127.993C136.95 128.17 136.832 128.17 136.773 128.17ZM193.639 127.58C193.521 127.58 193.462 127.521 193.344 127.462C192.755 126.873 192.107 126.343 191.518 125.812C191.341 125.636 191.341 125.4 191.459 125.223C191.636 125.046 191.871 125.046 192.048 125.164C192.637 125.695 193.286 126.225 193.875 126.814C194.052 126.991 194.052 127.227 193.875 127.404C193.816 127.521 193.698 127.58 193.639 127.58ZM140.368 124.87C140.25 124.87 140.132 124.811 140.073 124.752C139.896 124.575 139.955 124.339 140.132 124.162C140.78 123.632 141.369 123.102 142.018 122.571C142.194 122.454 142.43 122.454 142.607 122.63C142.725 122.807 142.725 123.043 142.548 123.22C141.959 123.75 141.311 124.28 140.662 124.811C140.544 124.87 140.486 124.87 140.368 124.87ZM189.986 124.339C189.868 124.339 189.809 124.28 189.75 124.221C189.102 123.691 188.512 123.161 187.864 122.689C187.687 122.571 187.687 122.277 187.805 122.1C187.923 121.923 188.218 121.923 188.394 122.041C189.043 122.571 189.632 123.102 190.28 123.632C190.457 123.75 190.457 124.045 190.339 124.221C190.162 124.28 190.044 124.339 189.986 124.339ZM144.139 121.746C144.021 121.746 143.903 121.687 143.844 121.57C143.727 121.393 143.727 121.157 143.903 120.98C144.552 120.45 145.2 119.979 145.848 119.507C146.025 119.389 146.261 119.389 146.437 119.625C146.555 119.802 146.555 120.037 146.319 120.214C145.671 120.686 145.023 121.157 144.375 121.687C144.316 121.746 144.257 121.746 144.139 121.746ZM186.155 121.216C186.096 121.216 185.978 121.216 185.919 121.157C185.271 120.686 184.623 120.155 183.975 119.743C183.798 119.625 183.739 119.33 183.857 119.154C183.975 118.977 184.269 118.918 184.446 119.036C185.094 119.507 185.743 119.979 186.45 120.509C186.627 120.627 186.686 120.921 186.509 121.098C186.391 121.157 186.273 121.216 186.155 121.216ZM148.146 118.918C148.028 118.918 147.911 118.859 147.793 118.741C147.675 118.564 147.734 118.329 147.911 118.152C148.618 117.68 149.325 117.268 149.973 116.796C150.15 116.679 150.444 116.737 150.562 116.914C150.68 117.091 150.621 117.386 150.444 117.504C149.796 117.916 149.089 118.329 148.382 118.8C148.264 118.859 148.205 118.918 148.146 118.918ZM182.148 118.387C182.089 118.387 181.971 118.387 181.912 118.329C181.205 117.857 180.498 117.445 179.85 117.032C179.673 116.914 179.614 116.679 179.732 116.502C179.85 116.325 180.086 116.266 180.262 116.384C180.969 116.796 181.677 117.209 182.384 117.68C182.561 117.798 182.619 118.034 182.502 118.27C182.384 118.329 182.266 118.387 182.148 118.387ZM152.33 116.384C152.212 116.384 152.036 116.325 151.977 116.148C151.859 115.971 151.918 115.677 152.153 115.618C152.919 115.205 153.627 114.852 154.334 114.498C154.511 114.38 154.805 114.498 154.864 114.675C154.982 114.852 154.864 115.146 154.687 115.205C153.98 115.559 153.273 115.912 152.507 116.325C152.448 116.325 152.389 116.384 152.33 116.384ZM177.905 115.912C177.846 115.912 177.787 115.912 177.728 115.854C177.021 115.441 176.255 115.087 175.548 114.793C175.371 114.675 175.253 114.439 175.371 114.262C175.489 114.086 175.725 113.968 175.902 114.086C176.609 114.439 177.375 114.793 178.141 115.146C178.318 115.264 178.436 115.5 178.318 115.677C178.2 115.854 178.082 115.912 177.905 115.912ZM156.75 114.262C156.573 114.262 156.455 114.145 156.396 114.027C156.337 113.791 156.396 113.555 156.632 113.496C157.398 113.202 158.223 112.907 158.989 112.671C159.225 112.612 159.461 112.73 159.519 112.966C159.578 113.202 159.461 113.437 159.225 113.496C158.459 113.732 157.693 113.968 156.927 114.262C156.868 114.262 156.809 114.262 156.75 114.262ZM173.427 113.909C173.368 113.909 173.309 113.909 173.309 113.909C172.543 113.614 171.777 113.379 171.011 113.202C170.775 113.143 170.657 112.907 170.716 112.73C170.775 112.495 171.011 112.377 171.187 112.436C171.953 112.612 172.778 112.907 173.544 113.202C173.78 113.261 173.839 113.496 173.78 113.732C173.78 113.791 173.603 113.909 173.427 113.909ZM161.405 112.907C161.228 112.907 161.052 112.789 160.993 112.554C160.934 112.318 161.111 112.141 161.287 112.082C162.112 111.905 162.937 111.787 163.762 111.729C163.998 111.729 164.175 111.846 164.175 112.082C164.175 112.318 164.057 112.495 163.821 112.495C163.055 112.554 162.23 112.671 161.464 112.848C161.464 112.907 161.464 112.907 161.405 112.907ZM168.712 112.671H168.653C167.828 112.554 167.062 112.495 166.296 112.495C166.061 112.495 165.884 112.436 165.884 112.2C165.884 111.964 166.061 111.964 166.296 111.964C167.121 111.964 167.946 111.905 168.771 112.023C169.007 112.082 169.125 112.2 169.125 112.436C169.125 112.612 168.948 112.671 168.712 112.671Z" fill="#323A50"/>
</g>
<defs>
<linearGradient id="paint0_linear_3614_8645" x1="111.272" y1="107.349" x2="218.045" y2="107.349" gradientUnits="userSpaceOnUse">
<stop offset="0.1362" stop-color="white" stop-opacity="0.1"/>
<stop offset="0.5167" stop-color="#AC00FF"/>
<stop offset="0.9409" stop-color="white" stop-opacity="0"/>
</linearGradient>
<linearGradient id="paint1_linear_3614_8645" x1="169.303" y1="175.409" x2="163.826" y2="28.7382" gradientUnits="userSpaceOnUse">
<stop offset="0.4437" stop-color="#DBDBDB" stop-opacity="0"/>
<stop offset="0.5607" stop-color="#EBEBEB" stop-opacity="0.2967"/>
<stop offset="0.7119" stop-color="#FAFAFA" stop-opacity="0.6797"/>
<stop offset="0.8383" stop-color="white"/>
</linearGradient>
<linearGradient id="paint2_linear_3614_8645" x1="270.926" y1="225.631" x2="69.3222" y2="78.1754" gradientUnits="userSpaceOnUse">
<stop offset="0.2655" stop-color="#032A3D" stop-opacity="0"/>
<stop offset="0.7809" stop-color="#032A3D"/>
</linearGradient>
<radialGradient id="paint3_radial_3614_8645" cx="0" cy="0" r="1" gradientUnits="userSpaceOnUse" gradientTransform="translate(165.605 218.495) scale(68.1954 67.8818)">
<stop offset="0.2655" stop-color="#032A3D" stop-opacity="0"/>
<stop offset="1" stop-color="#032A3D"/>
</radialGradient>
<linearGradient id="paint4_linear_3614_8645" x1="138.868" y1="110.766" x2="188.961" y2="307.406" gradientUnits="userSpaceOnUse">
<stop offset="0.4054" stop-color="#032A3D" stop-opacity="0"/>
<stop offset="1" stop-color="#032A3D"/>
</linearGradient>
<linearGradient id="paint5_linear_3614_8645" x1="102.735" y1="177.99" x2="234.493" y2="301.59" gradientUnits="userSpaceOnUse">
<stop offset="0.2655" stop-color="#032A3D" stop-opacity="0"/>
<stop offset="0.7809" stop-color="#032A3D"/>
</linearGradient>
<linearGradient id="paint6_linear_3614_8645" x1="109.923" y1="170.328" x2="241.681" y2="293.927" gradientUnits="userSpaceOnUse">
<stop offset="0.2655" stop-color="#032A3D" stop-opacity="0"/>
<stop offset="0.7809" stop-color="#032A3D"/>
</linearGradient>
<linearGradient id="paint7_linear_3614_8645" x1="107.357" y1="173.063" x2="239.115" y2="296.662" gradientUnits="userSpaceOnUse">
<stop offset="0.2655" stop-color="#032A3D" stop-opacity="0"/>
<stop offset="0.7809" stop-color="#032A3D"/>
</linearGradient>
<linearGradient id="paint8_linear_3614_8645" x1="82.2798" y1="199.795" x2="214.038" y2="323.395" gradientUnits="userSpaceOnUse">
<stop offset="0.2655" stop-color="#032A3D" stop-opacity="0"/>
<stop offset="0.7809" stop-color="#032A3D"/>
</linearGradient>
<linearGradient id="paint9_linear_3614_8645" x1="101.071" y1="179.763" x2="232.829" y2="303.363" gradientUnits="userSpaceOnUse">
<stop offset="0.2655" stop-color="#032A3D" stop-opacity="0"/>
<stop offset="0.7809" stop-color="#032A3D"/>
</linearGradient>
<linearGradient id="paint10_linear_3614_8645" x1="90.7648" y1="190.75" x2="222.523" y2="314.35" gradientUnits="userSpaceOnUse">
<stop offset="0.2655" stop-color="#032A3D" stop-opacity="0"/>
<stop offset="0.7809" stop-color="#032A3D"/>
</linearGradient>
<linearGradient id="paint11_linear_3614_8645" x1="72.1189" y1="210.627" x2="203.877" y2="334.227" gradientUnits="userSpaceOnUse">
<stop offset="0.2655" stop-color="#032A3D" stop-opacity="0"/>
<stop offset="0.7809" stop-color="#032A3D"/>
</linearGradient>
<linearGradient id="paint12_linear_3614_8645" x1="75.2556" y1="207.284" x2="207.014" y2="330.884" gradientUnits="userSpaceOnUse">
<stop offset="0.2655" stop-color="#032A3D" stop-opacity="0"/>
<stop offset="0.7809" stop-color="#032A3D"/>
</linearGradient>
<linearGradient id="paint13_linear_3614_8645" x1="85.5662" y1="196.292" x2="217.324" y2="319.892" gradientUnits="userSpaceOnUse">
<stop offset="0.2655" stop-color="#032A3D" stop-opacity="0"/>
<stop offset="0.7809" stop-color="#032A3D"/>
</linearGradient>
<linearGradient id="paint14_linear_3614_8645" x1="72.0811" y1="210.668" x2="203.839" y2="334.268" gradientUnits="userSpaceOnUse">
<stop offset="0.2655" stop-color="#032A3D" stop-opacity="0"/>
<stop offset="0.7809" stop-color="#032A3D"/>
</linearGradient>
<clipPath id="clip0_3614_8645">
<rect width="330" height="330" fill="white"/>
</clipPath>
</defs>
</svg>
