<svg width="330" height="330" viewBox="0 0 330 330" fill="none" xmlns="http://www.w3.org/2000/svg">
<path d="M148.248 127.867C145.994 128.178 140.712 129.574 140.557 129.619C138.922 130.151 137.552 130.749 136.601 131.392C125.595 138.597 117.816 147.73 114.369 151.676C111.142 155.334 111.186 155.268 103.584 163.137C85.2405 179.653 73.6821 203.595 73.6821 230.264C73.6821 269.014 98.0365 302.045 132.248 314.814C135.828 316.344 140.292 317.785 149.198 319.292C153.906 320.046 158.724 320.445 163.652 320.445C213.333 320.445 253.6 280.054 253.6 230.219C253.6 203.129 241.688 178.833 222.836 162.295C215.963 155.157 215.897 155.223 212.781 151.676C209.355 147.775 201.952 138.375 190.857 131.592C185.266 128.178 173.929 126.848 163.033 126.781C157.862 126.759 152.69 127.158 148.204 127.867" fill="#DBDBDB"/>
<path d="M163.652 320.888C158.79 320.888 153.906 320.489 149.132 319.736C139.695 318.14 135.364 316.632 132.093 315.235C115.009 308.851 100.379 297.545 89.7931 282.537C78.9641 267.196 73.2622 249.129 73.2622 230.264C73.2622 217.162 75.9805 204.526 81.373 192.71C86.5665 181.293 93.948 171.251 103.296 162.827L105.086 160.965C110.877 154.957 111.098 154.736 114.037 151.388L114.523 150.834C118.192 146.666 125.794 137.954 136.358 131.038C137.353 130.395 138.723 129.774 140.447 129.22C140.601 129.175 145.751 127.779 148.182 127.446C152.823 126.693 157.994 126.316 163.055 126.338C175.918 126.404 186.15 128.178 191.1 131.215C201.023 137.267 208.051 145.491 211.83 149.903C212.317 150.457 212.736 150.967 213.112 151.388C215.366 153.96 216.029 154.625 218.814 157.507C219.875 158.593 221.245 160.012 223.146 161.985C232.759 170.409 240.34 180.562 245.688 192.134C251.235 204.105 254.042 216.94 254.042 230.241C254.042 242.478 251.655 254.361 246.948 265.534C242.395 276.33 235.875 286.017 227.566 294.353C219.256 302.688 209.598 309.228 198.835 313.794C187.697 318.472 175.851 320.888 163.652 320.888ZM148.403 128.311C146.193 128.621 140.955 129.996 140.734 130.04C139.099 130.572 137.773 131.148 136.844 131.747C126.391 138.597 118.811 147.243 115.186 151.388L114.678 151.942C111.739 155.29 111.496 155.534 105.683 161.541L103.849 163.426C84.9532 180.451 74.102 204.792 74.102 230.219C74.102 267.529 97.5282 301.336 132.38 314.371C135.629 315.745 139.894 317.231 149.243 318.827C153.95 319.58 158.79 319.98 163.608 319.98C212.957 319.98 253.114 279.699 253.114 230.197C253.114 204.304 241.953 179.653 222.505 162.605L222.483 162.583C220.582 160.61 219.212 159.192 218.151 158.105C215.344 155.223 214.681 154.536 212.405 151.965C212.029 151.521 211.587 151.034 211.123 150.479C207.366 146.112 200.405 137.976 190.592 131.991C185.774 129.042 175.763 127.313 163.055 127.247C158.061 127.202 152.823 127.557 148.403 128.311Z" fill="#323A50"/>
<path opacity="0.2" d="M209.399 161.519C212.604 159.746 214.35 158.504 211.035 154.758C205.488 148.44 192.449 128.444 167.232 128.222C167.232 128.222 164.094 128.178 164.072 128.178H163.188H161.796C136.579 128.399 121.419 148.418 115.849 154.736C112.556 158.504 115.164 160.699 116.645 161.807C123.164 157.64 129.043 154.359 136.712 151.832C136.933 151.765 146.569 147.176 162.724 147.043C162.768 147.043 173.685 146.954 184.006 150.191C196.603 153.561 202.659 157.662 209.399 161.519Z" fill="url(#paint0_linear_3618_29575)"/>
<path opacity="0.2" d="M163.232 304.262C204.035 304.262 237.113 271.231 237.113 230.486C237.113 189.74 204.035 156.709 163.232 156.709C122.429 156.709 89.3511 189.74 89.3511 230.486C89.3511 271.231 122.429 304.262 163.232 304.262Z" fill="url(#paint1_radial_3618_29575)"/>
<path opacity="0.34" d="M240.715 196.036C240.627 195.859 240.561 195.681 240.472 195.504C240.207 196.036 239.787 196.479 239.213 196.834C237.71 197.721 235.323 197.277 234.527 195.593C234.107 194.706 233.621 193.841 233.069 193.021C232.781 192.578 232.494 192.157 232.163 191.735C232.03 191.558 232.03 191.558 232.163 191.735C232.096 191.647 232.008 191.558 231.942 191.447C231.787 191.27 231.632 191.07 231.478 190.893C230.152 189.363 228.516 187.834 227.234 186.903C226.417 186.326 225.577 185.794 224.693 185.351C224.45 185.218 224.184 185.107 223.919 184.974C223.875 184.952 223.853 184.952 223.831 184.93C223.831 184.93 223.831 184.93 223.809 184.93C223.345 184.752 222.903 184.597 222.416 184.464C221.908 184.331 221.4 184.22 220.869 184.109C220.892 184.109 220.118 183.999 220.14 183.999C219.963 183.976 219.809 183.954 219.632 183.954C218.438 183.843 217.245 183.821 216.03 183.843C211.609 183.954 207.875 184.686 203.543 185.218C199.034 185.772 194.548 186.127 190.018 186.459C181.133 187.102 172.315 188.166 163.387 188.299C159.011 188.366 154.635 187.59 150.326 186.836C146.06 186.082 142.104 185.484 137.972 185.018C129.353 184.021 120.623 183.511 111.938 184.309C110.17 184.464 108.821 182.89 108.556 181.294C108.49 181.316 108.402 181.316 108.335 181.338C107.849 181.449 107.341 181.604 106.855 181.759C106.589 181.848 106.324 181.959 106.037 182.048C105.926 182.092 105.838 182.136 105.772 182.159C103.716 183.067 101.772 184.242 99.9814 185.617C99.9372 185.661 99.5173 185.994 99.4952 185.994C99.2521 186.193 99.009 186.393 98.7659 186.614C98.3239 186.991 97.904 187.39 97.4841 187.789C96.6443 188.61 95.8487 189.496 95.0973 190.405C95.0531 190.472 95.0089 190.516 94.9647 190.56C94.9426 190.583 94.9205 190.627 94.8984 190.649C94.7216 190.893 94.5448 191.115 94.3901 191.358C94.1028 191.78 93.8155 192.223 93.5503 192.666C93.3072 193.088 93.0641 193.531 92.8431 193.974C92.7768 194.129 92.4895 194.928 92.7768 194.107C92.6884 194.351 92.6 194.573 92.5116 194.817C91.8928 196.635 90.2131 197.654 88.2904 197.211C87.6716 197.078 87.097 196.701 86.655 196.191C86.6108 196.302 86.6992 196.457 86.655 196.568C82.3676 206.677 79.8481 217.761 79.8481 229.444C79.8481 275.887 117.374 313.529 163.674 313.529C209.974 313.529 247.5 275.887 247.5 229.444C247.566 217.539 245.113 206.256 240.715 196.036Z" fill="url(#paint2_linear_3618_29575)"/>
<g opacity="0.2">
<path d="M229.268 260.657L228.759 260.59C228.428 263.162 220.958 266.664 219.345 266.93C218.704 267.041 218.306 266.864 217.908 266.708C217.356 266.487 216.803 266.243 215.808 266.864C214.129 267.883 208.361 274.224 207.079 277.327C205.819 280.453 205.001 282.116 202.062 283.291C200.493 283.911 198.062 283.911 195.498 283.933C193.156 283.933 190.725 283.933 188.846 284.443C186.04 285.197 183.321 286.483 182.039 287.148C182.747 286.372 183.41 285.574 184.051 284.82C185.222 283.446 186.216 282.249 186.879 281.783C187.741 281.162 190.747 280.852 193.951 280.497C198.261 280.032 203.145 279.5 204.67 278.059C206.372 276.418 208.803 270.3 210.77 265.378C211.808 262.762 212.714 260.501 213.245 259.592C213.797 258.639 215.433 257.553 217.157 256.4C220.074 254.449 223.411 252.232 223.345 249.572L222.836 249.594C222.903 251.989 219.698 254.117 216.891 255.979C215.035 257.22 213.422 258.284 212.803 259.349C212.25 260.302 211.344 262.563 210.306 265.201C208.361 270.078 205.952 276.13 204.338 277.682C203.764 278.214 202.637 278.635 201.222 278.946C202.151 278.413 203.256 277.66 204.051 276.64C205.488 274.866 206.659 270.61 207.278 268.327C207.388 267.928 207.477 267.595 207.543 267.374C207.764 266.642 207.499 266.199 207.234 265.777C206.924 265.29 206.593 264.758 206.814 263.472C207.057 262.075 207.852 261.499 208.714 260.878C209.289 260.457 209.886 260.036 210.306 259.349C211.366 257.619 210.703 255.846 210.35 254.893L210.328 254.826C210.085 254.161 209.488 254.228 209.068 254.272C208.648 254.316 208.383 254.316 208.206 254.05C208.051 253.806 208.427 253.274 208.781 252.765C209.311 251.989 209.93 251.124 209.532 250.304L209.068 250.525C209.333 251.08 208.803 251.811 208.361 252.476C207.875 253.164 207.433 253.806 207.764 254.338C208.096 254.893 208.67 254.826 209.09 254.782C209.554 254.738 209.731 254.738 209.841 255.004L209.864 255.07C210.217 256.001 210.792 257.553 209.864 259.06C209.488 259.659 208.957 260.058 208.405 260.457C207.499 261.1 206.593 261.765 206.305 263.383C206.062 264.846 206.46 265.511 206.792 266.043C207.035 266.442 207.189 266.686 207.035 267.196C206.968 267.418 206.88 267.75 206.77 268.172C206.195 270.255 205.002 274.6 203.631 276.307C202.106 278.214 199.432 279.234 199.189 279.322C197.51 279.588 195.631 279.788 193.863 279.987C190.46 280.364 187.542 280.675 186.57 281.362C185.863 281.872 184.824 283.091 183.653 284.488C181.332 287.214 178.172 290.939 175.984 290.806C174.857 290.739 173.619 290.473 172.315 290.207C169.708 289.675 166.746 289.054 163.564 289.653C156.978 290.894 154.768 292.18 153.464 293.732C152.204 295.217 151.541 297.146 151.519 297.212L151.983 297.39C151.983 297.368 152.646 295.483 153.84 294.064C155.077 292.601 157.221 291.382 163.652 290.163C166.746 289.586 169.641 290.185 172.205 290.717C173.531 290.983 174.768 291.249 175.94 291.338C177.575 291.449 179.498 289.83 181.376 287.857L181.465 288.035C181.509 288.012 185.133 285.973 188.935 284.953C190.769 284.465 193.156 284.465 195.454 284.465C198.062 284.465 200.537 284.465 202.195 283.8C205.311 282.559 206.195 280.719 207.477 277.549C208.692 274.6 214.394 268.305 215.985 267.329C216.759 266.842 217.135 266.997 217.643 267.218C218.063 267.396 218.571 267.595 219.345 267.484C221.223 267.152 228.892 263.561 229.268 260.657Z" fill="url(#paint3_linear_3618_29575)"/>
<path d="M168.691 272.628C167.829 273.515 167.961 275.044 168.116 276.796C168.271 278.458 168.426 280.343 167.696 281.895C166.238 284.932 159.652 287.281 159.585 287.326L159.74 287.814C160.027 287.725 166.569 285.375 168.138 282.138C168.934 280.476 168.757 278.503 168.624 276.774C168.47 275.155 168.359 273.737 169.066 273.027C169.818 272.273 172.58 271.631 175.011 271.076C177.818 270.433 180.227 269.879 180.846 269.059C181.42 268.305 181.531 267.574 181.641 266.931C181.752 266.244 181.84 265.689 182.459 265.268C182.791 265.046 184.448 265.135 186.216 265.246C191.145 265.534 198.614 265.955 201.266 262.253C203.388 259.305 202.681 257.155 202.04 255.248C201.532 253.718 201.09 252.388 202.018 250.792C202.747 249.529 204.051 249.107 205.554 248.62C208.427 247.689 211.985 246.536 214.283 239.132C214.814 237.402 214.527 235.607 214.261 233.878C213.908 231.594 213.576 229.422 214.924 227.404L214.504 227.116C213.024 229.311 213.399 231.683 213.753 233.966C214.018 235.718 214.283 237.38 213.775 238.976C211.565 246.137 208.14 247.245 205.377 248.132C203.786 248.642 202.416 249.085 201.576 250.526C200.537 252.322 201.045 253.896 201.554 255.403C202.173 257.265 202.813 259.216 200.847 261.943C198.327 265.423 190.747 264.98 186.216 264.736C184.47 264.647 183.365 264.581 182.724 264.67C183.012 263.982 183.188 262.963 183.387 261.854C183.719 259.903 184.095 257.709 185.222 256.489C185.774 255.891 186.592 255.647 187.653 255.337C190.172 254.605 193.642 253.585 196.382 246.491L196.404 246.447C196.913 243.986 196.338 242.257 195.763 241.26C195.498 240.794 195.012 240.55 194.504 240.329C193.929 240.063 193.266 239.752 192.758 238.999C191.874 237.668 191.498 230.131 191.808 228.69C191.83 228.579 191.874 228.513 191.874 228.513C191.962 228.468 192.25 228.579 192.493 228.668C193.266 228.956 194.592 229.444 196.205 228.269L195.918 227.848C194.526 228.868 193.443 228.468 192.669 228.18C192.25 228.025 191.918 227.914 191.631 228.069C191.476 228.158 191.366 228.335 191.299 228.579C191.012 229.998 191.299 237.713 192.338 239.287C192.913 240.151 193.686 240.506 194.283 240.794C194.747 241.016 195.123 241.193 195.321 241.526C195.852 242.457 196.382 244.053 195.918 246.336C193.266 253.186 189.951 254.162 187.542 254.871C186.459 255.181 185.531 255.47 184.89 256.157C183.675 257.487 183.277 259.77 182.923 261.788C182.702 263.118 182.481 264.381 182.061 264.913L182.083 264.936C181.376 265.468 181.266 266.155 181.133 266.864C181.023 267.485 180.934 268.106 180.426 268.771C179.918 269.458 177.244 270.057 174.879 270.589C172.138 271.165 169.531 271.764 168.691 272.628Z" fill="url(#paint4_linear_3618_29575)"/>
<path d="M169.442 221.773C170.083 222.461 170.592 222.993 170.282 224.544C170.061 225.586 169.487 227.072 168.89 228.623C167.807 231.417 166.702 234.299 167.21 235.607C167.453 236.249 167.851 236.715 168.227 237.136C169.023 238.067 169.862 239.043 169.42 241.925C169.067 244.252 167.851 246.048 166.857 247.489C165.995 248.752 165.243 249.861 165.354 250.925C165.42 251.745 165.884 252.322 166.348 252.876C167.144 253.873 167.962 254.893 166.879 257.442C166.061 259.415 164.89 259.925 163.962 260.324C162.967 260.768 162.105 261.145 162.392 263.051C162.702 265.068 163.984 266.376 165.199 267.618C166.083 268.527 167.011 269.48 167.608 270.699L168.05 270.478C167.431 269.17 166.481 268.194 165.553 267.241C164.337 266 163.166 264.802 162.879 262.962C162.636 261.455 163.166 261.211 164.138 260.79C165.089 260.369 166.415 259.792 167.321 257.642C168.514 254.782 167.564 253.585 166.702 252.543C166.26 251.989 165.884 251.523 165.818 250.858C165.73 249.994 166.393 249.018 167.232 247.777C168.249 246.292 169.509 244.43 169.884 241.991C170.371 238.865 169.42 237.757 168.581 236.781C168.205 236.36 167.873 235.939 167.652 235.385C167.21 234.254 168.337 231.35 169.332 228.779C169.951 227.205 170.525 225.697 170.746 224.611C171.122 222.793 170.481 222.106 169.774 221.374C169.31 220.887 168.824 220.377 168.603 219.401L168.116 219.512C168.382 220.665 168.956 221.241 169.442 221.773Z" fill="url(#paint5_linear_3618_29575)"/>
<path d="M172.006 291.382C170.26 290.54 165.928 290.163 163.254 290.651C160.691 291.094 156.16 292.136 154.414 294.043C153.42 295.129 152.491 297.257 152.469 297.346L152.933 297.545C152.933 297.523 153.862 295.417 154.79 294.375C156.491 292.513 161.354 291.493 163.365 291.139C166.216 290.629 170.304 291.116 171.807 291.848C173.42 292.624 173.973 293.799 174.039 294.375C174.26 296.171 171.299 297.767 171.276 297.789L171.497 298.255C171.63 298.188 174.813 296.481 174.525 294.331C174.415 293.466 173.685 292.181 172.006 291.382Z" fill="url(#paint6_linear_3618_29575)"/>
<path d="M173.31 260.236C174.194 260.591 175.1 260.968 175.675 261.788C176.36 262.763 177.774 265.246 175.896 267.441C175.122 268.35 173.199 269.059 171.343 269.724C169.509 270.389 167.785 271.032 167.232 271.875C166.658 272.761 166.746 274.313 166.879 276.109C166.989 277.705 167.1 279.367 166.724 280.675C165.973 283.336 159.343 286.484 159.276 286.528L159.497 286.993C159.785 286.86 166.393 283.713 167.21 280.831C167.608 279.434 167.476 277.661 167.365 276.087C167.255 274.446 167.144 272.916 167.63 272.185C168.094 271.476 169.818 270.855 171.498 270.234C173.42 269.525 175.387 268.815 176.249 267.796C177.73 266.044 177.664 263.761 176.05 261.5C175.387 260.569 174.371 260.147 173.465 259.793C172.559 259.416 171.697 259.061 171.321 258.263C170.547 256.6 171.144 254.738 172.183 254.051C172.448 253.874 172.735 253.719 173.023 253.541C173.951 252.987 174.901 252.433 176.05 251.169C177.597 249.507 180.448 242.701 180.979 239.42C181.288 237.491 180.758 236.627 180.183 235.718C179.741 235.008 179.277 234.277 179.167 232.902L178.658 232.947C178.791 234.432 179.299 235.252 179.763 235.984C180.294 236.848 180.758 237.58 180.493 239.309C179.962 242.523 177.2 249.174 175.697 250.77C174.592 251.967 173.664 252.521 172.78 253.053C172.492 253.231 172.205 253.386 171.94 253.586C170.724 254.384 170.017 256.534 170.901 258.44C171.343 259.438 172.338 259.837 173.31 260.236Z" fill="url(#paint7_linear_3618_29575)"/>
</g>
<g opacity="0.2">
<path d="M151.453 289.41C151.232 288.058 149.729 286.994 148.16 285.908C146.944 285.065 145.11 284.023 143.474 283.114C142.038 282.316 140.8 281.607 140.314 281.23C140.182 281.141 140.071 280.986 139.938 280.809C139.143 279.567 138.568 276.597 138.745 274.225C138.833 272.873 138.701 271.831 138.612 270.988C138.502 270.079 138.414 269.436 138.657 268.86C138.833 268.417 139.165 268.35 139.695 268.261C140.226 268.195 140.889 268.084 141.198 267.242C141.463 266.532 141.353 265.734 141.242 264.981C141.132 264.227 141.021 263.54 141.353 263.074C141.662 262.653 142.016 262.52 142.414 262.365C142.878 262.187 143.386 261.988 143.806 261.345C144.182 260.769 143.673 260.015 143.01 259.062C142.06 257.687 140.756 255.803 141.309 253.453C141.905 250.926 142.679 251.037 143.762 251.192C144.292 251.28 144.889 251.369 145.508 251.125C146.546 250.726 147.475 248.509 148.447 246.16C149.198 244.342 149.972 242.48 150.657 241.97C151.408 241.393 152.094 241.26 152.712 241.149C153.353 241.039 153.928 240.928 154.392 240.329C154.944 239.642 154.635 238.667 154.392 237.802C154.237 237.292 154.083 236.76 154.193 236.516L153.773 236.272C153.552 236.694 153.729 237.27 153.928 237.935C154.149 238.667 154.392 239.509 154.016 239.997C153.663 240.44 153.221 240.529 152.624 240.64C152.005 240.75 151.232 240.906 150.37 241.548C149.574 242.147 148.823 243.987 148.005 245.96C147.165 248.022 146.193 250.349 145.353 250.66C144.845 250.837 144.336 250.771 143.828 250.704C142.701 250.549 141.53 250.372 140.822 253.342C140.226 255.914 141.596 257.909 142.59 259.35C143.121 260.126 143.585 260.769 143.386 261.079C143.055 261.611 142.657 261.744 142.215 261.921C141.795 262.076 141.309 262.254 140.933 262.808C140.491 263.429 140.624 264.271 140.734 265.069C140.845 265.756 140.933 266.488 140.712 267.087C140.491 267.663 140.093 267.729 139.585 267.796C139.099 267.862 138.48 267.951 138.17 268.683C137.883 269.392 137.972 270.124 138.104 271.077C138.215 271.897 138.325 272.895 138.237 274.203C138.126 275.666 138.303 277.484 138.701 278.991C137.618 277.218 136.181 274.424 135.982 271.72C135.806 269.436 136.226 268.638 136.844 267.441C137.419 266.311 138.148 264.87 138.701 261.7C139.496 257.155 137.507 252.943 136.181 250.726C136.292 250.305 137.22 247.268 139.563 246.426L140.756 246.004C143.01 245.206 144.977 244.497 146.016 243.965C147.386 243.278 148.447 240.95 148.668 239.531C148.801 238.689 148.381 238.179 148.027 237.713C147.696 237.292 147.364 236.893 147.408 236.206C147.452 235.652 148.292 235.075 149.265 234.432C150.635 233.501 152.359 232.371 153.044 230.464C153.862 228.181 153.044 227.161 152.315 226.252C151.961 225.809 151.629 225.388 151.475 224.856L151.011 224.989C151.165 225.632 151.563 226.119 151.939 226.585C152.646 227.471 153.309 228.292 152.58 230.309C151.939 232.06 150.303 233.147 148.977 234.033C147.85 234.787 146.966 235.363 146.9 236.184C146.834 237.07 147.254 237.58 147.607 238.046C147.961 238.467 148.248 238.844 148.138 239.465C147.894 240.95 146.812 242.989 145.751 243.544C144.734 244.054 142.701 244.785 140.535 245.561L139.342 245.982C137.154 246.758 136.137 249.174 135.784 250.216C135.364 249.551 135.054 249.174 135.032 249.152L135.01 249.13C134.966 249.086 130.413 244.896 128.38 241.726C126.325 238.511 126.369 235.873 127.474 234.942C128.071 234.432 129.22 234.388 130.59 234.322C131.85 234.277 133.264 234.211 134.524 233.745C136.447 233.036 137.817 230.287 138.193 229.444C138.745 228.247 139.275 226.585 138.988 225.809C138.48 224.39 136.336 223.925 136.248 223.902L136.159 224.39C136.181 224.39 138.126 224.811 138.546 225.964C138.701 226.407 138.48 227.649 137.773 229.223C137.043 230.841 135.761 232.748 134.369 233.257C133.176 233.701 131.806 233.745 130.59 233.812C129.154 233.878 127.916 233.923 127.187 234.543C125.971 235.585 125.706 238.378 128.004 241.97C129.993 245.095 134.413 249.174 134.701 249.44C134.944 249.751 139.275 255.359 138.193 261.589C137.662 264.692 136.955 266.089 136.38 267.197C136.248 267.463 136.115 267.707 136.005 267.951C135.452 266.422 135.496 265.49 135.54 264.781C135.607 263.739 135.563 263.163 134.148 262.298C132.314 261.168 128.712 260.946 126.347 260.813C125.397 260.746 124.579 260.702 124.203 260.613C122.7 260.259 121.949 259.594 121.551 258.264C121.22 257.155 121.507 256.823 121.971 256.268C122.104 256.113 122.236 255.936 122.391 255.736C122.568 255.47 122.943 255.249 123.341 255.027C124.225 254.495 125.463 253.785 125.352 252.012C125.264 250.46 124.291 249.95 123.253 249.396C122.568 249.041 121.86 248.665 121.33 247.933C119.96 246.115 118.391 240.928 118.103 238.112C117.794 234.942 118.369 229.023 118.899 228.646C119.12 228.58 119.938 228.957 120.579 229.267C121.794 229.844 123.297 230.575 124.358 230.309C124.535 230.265 124.689 230.22 124.844 230.198C126.17 229.888 126.325 229.755 126.236 228.425C126.17 227.472 125.441 227.338 124.866 227.25C124.446 227.183 124.07 227.117 123.827 226.829C123.319 226.186 123.496 223.747 123.584 222.86L123.098 222.794C123.054 223.149 122.722 226.208 123.43 227.139C123.783 227.582 124.314 227.671 124.756 227.738C125.374 227.848 125.684 227.915 125.728 228.447C125.772 228.979 125.772 229.245 125.684 229.356C125.573 229.489 125.264 229.555 124.733 229.688C124.579 229.733 124.424 229.755 124.247 229.799C123.341 230.021 121.927 229.334 120.778 228.802C119.717 228.292 119.098 228.026 118.722 228.159C117.684 228.536 117.352 235.696 117.595 238.135C117.882 241.083 119.474 246.315 120.91 248.221C121.507 249.019 122.302 249.44 122.988 249.817C123.982 250.349 124.756 250.748 124.822 252.034C124.91 253.497 123.96 254.052 123.054 254.606C122.612 254.872 122.192 255.116 121.949 255.47C121.816 255.67 121.684 255.825 121.551 255.98C121.065 256.579 120.645 257.066 121.043 258.441C121.485 259.948 122.391 260.746 124.048 261.145C124.358 261.212 124.844 261.256 125.463 261.301C125.087 261.567 124.689 261.567 124.247 261.544C123.783 261.522 123.253 261.5 122.767 261.877C121.949 262.476 122.457 263.429 122.811 264.116C122.965 264.426 123.142 264.759 123.142 264.936C123.142 265.091 123.076 265.202 122.965 265.313C122.7 265.535 122.17 265.579 121.485 265.49C120.733 265.38 119.65 264.205 119.01 263.495C118.766 263.229 118.568 263.008 118.435 262.897C118.148 262.675 117.794 262.697 117.463 262.742C117.065 262.786 116.645 262.808 116.225 262.52C116.004 262.365 115.871 262.121 115.827 261.788C115.761 261.212 116.026 260.547 116.181 260.392C116.269 260.303 116.468 260.303 116.689 260.325C116.998 260.347 117.396 260.347 117.728 260.081C118.236 259.66 118.435 258.906 118.347 257.82C118.28 257.199 117.75 257.177 117.308 257.177C116.777 257.155 116.225 257.133 115.96 256.424C115.761 255.914 116.048 255.404 116.424 254.761C116.976 253.785 117.684 252.544 116.711 250.771C115.562 248.62 114.28 248.864 113.352 249.041C113.02 249.108 112.733 249.152 112.534 249.086C112.335 249.019 112.225 248.908 112.203 248.798C112.158 248.62 112.269 248.421 112.313 248.354L111.937 248.066C111.915 248.11 111.628 248.509 111.739 248.953C111.827 249.219 112.026 249.44 112.379 249.573C112.711 249.706 113.065 249.64 113.462 249.551C114.324 249.396 115.319 249.197 116.313 251.037C117.131 252.588 116.579 253.586 116.026 254.539C115.628 255.226 115.253 255.891 115.54 256.623C115.916 257.643 116.755 257.687 117.33 257.687C117.838 257.709 117.905 257.754 117.905 257.887C117.993 258.796 117.838 259.416 117.463 259.727C117.286 259.882 117.021 259.86 116.755 259.86C116.446 259.837 116.092 259.837 115.871 260.104C115.628 260.392 115.319 261.168 115.407 261.899C115.451 262.365 115.672 262.742 116.004 262.985C116.579 263.384 117.131 263.34 117.573 263.296C117.882 263.274 118.081 263.251 118.192 263.362C118.302 263.451 118.479 263.673 118.722 263.916C119.452 264.715 120.557 265.956 121.485 266.089C121.507 266.089 121.507 266.089 121.529 266.089C122.347 266.2 122.988 266.089 123.363 265.779C123.584 265.601 123.695 265.313 123.717 265.025C123.739 264.715 123.54 264.36 123.341 263.961C122.943 263.207 122.722 262.675 123.164 262.365C123.518 262.099 123.894 262.121 124.336 262.121C124.932 262.143 125.617 262.165 126.214 261.434C126.281 261.434 126.325 261.434 126.369 261.434C128.689 261.567 132.203 261.788 133.949 262.852C135.165 263.606 135.143 264.005 135.098 264.892C135.054 265.712 134.988 266.843 135.784 268.749C135.518 269.503 135.408 270.412 135.496 271.897C135.828 276.375 139.298 280.942 139.541 281.252C139.695 281.474 139.85 281.651 140.005 281.784C140.513 282.183 141.773 282.893 143.231 283.713C144.845 284.622 146.679 285.642 147.872 286.484C149.309 287.482 150.79 288.523 150.966 289.676C151.055 290.208 150.878 290.74 150.414 291.339C148.712 293.622 146.546 301.625 146.502 301.891L146.988 301.958C147.055 301.47 149.198 293.777 150.79 291.649C151.364 290.74 151.563 290.075 151.453 289.41Z" fill="url(#paint8_linear_3618_29575)"/>
<path d="M148.049 291.471C147.342 289.01 143.85 286.417 142.701 285.685C140.203 284.155 134.501 283.845 131.872 284.399C130.678 284.643 129.816 285.064 129.065 285.441C128.225 285.84 127.518 286.195 126.545 286.195C124.556 286.195 123.473 286.461 122.523 287.148C122.324 287.303 122.28 287.481 122.258 287.592C122.236 287.991 122.612 288.345 123.031 288.744C123.341 289.033 123.783 289.454 123.761 289.675C123.739 289.786 123.606 289.875 123.496 289.941C122.192 290.651 121.197 289.653 121.153 289.609L120.799 289.964C120.821 289.986 122.103 291.272 123.717 290.385C124.026 290.207 124.181 290.008 124.225 289.742C124.291 289.254 123.805 288.811 123.363 288.368C123.12 288.124 122.722 287.769 122.744 287.614C122.744 287.592 122.788 287.569 122.81 287.547C123.672 286.904 124.667 286.683 126.545 286.683C127.628 286.683 128.38 286.306 129.286 285.862C130.015 285.508 130.833 285.109 131.982 284.865C134.479 284.333 140.093 284.643 142.458 286.084C143.872 286.949 146.988 289.432 147.607 291.582C147.762 292.158 147.474 293.222 147.121 294.043C145.22 298.521 144.557 301.735 144.557 301.757L145.021 301.846C145.021 301.824 145.662 298.654 147.563 294.22C147.762 293.71 148.292 292.336 148.049 291.471Z" fill="url(#paint9_linear_3618_29575)"/>
<path d="M149.176 291.072C149.044 290.163 148.137 289.188 147.806 288.811C147.762 288.767 147.74 288.744 147.718 288.722C145.927 286.594 143.297 284.532 141.574 283.912C141.087 283.734 140.469 283.601 139.761 283.49C136.977 282.138 134.259 281.606 131.651 281.096C130.236 280.83 128.756 280.542 127.319 280.121C123.429 278.99 116.866 272.451 116.578 272.162C116.357 271.874 111.937 266.243 111.517 264.293C111.341 263.45 110.39 259.216 109.904 258.041C109.484 257.021 103.871 255.137 102.744 254.782H102.722H102.699C99.9811 254.671 95.981 254.405 95.6053 254.162C95.1633 253.851 94.655 252.322 94.7434 251.634C94.7655 251.391 95.0749 251.191 95.4064 250.969C95.8926 250.637 96.5114 250.216 96.6219 249.418C96.6882 248.863 96.2904 247.134 95.6053 244.363C94.9644 241.747 94.1025 238.178 94.3235 237.535C94.5224 236.981 94.876 236.87 95.2517 236.781C95.6053 236.693 96.0252 236.56 96.1357 236.006C96.1799 235.784 96.0915 235.651 96.0252 235.584C95.7821 235.296 95.2075 235.318 94.4119 235.363C93.6384 235.407 92.6439 235.474 92.224 235.097L91.9146 235.474C92.4892 235.961 93.5279 235.895 94.434 235.85C94.876 235.828 95.539 235.784 95.6495 235.895C95.6495 235.895 95.6495 235.895 95.6495 235.917C95.6053 236.161 95.4948 236.205 95.1191 236.316C94.7213 236.427 94.1688 236.582 93.8594 237.38C93.5942 238.112 94.1909 240.661 95.1191 244.496C95.6495 246.646 96.1799 248.885 96.1136 249.373C96.0252 249.95 95.5611 250.282 95.097 250.592C94.6771 250.881 94.2793 251.147 94.213 251.612C94.1025 252.41 94.655 254.162 95.2738 254.605C95.8042 254.982 100.954 255.226 102.589 255.314C105.771 256.356 109.197 257.753 109.418 258.285C109.772 259.172 110.479 262.054 110.987 264.47C111.451 266.554 115.982 272.295 116.158 272.539L116.181 272.561C116.468 272.85 123.054 279.478 127.12 280.675C128.579 281.096 130.059 281.384 131.496 281.65C133.573 282.05 135.739 282.471 137.927 283.313C136.712 283.18 135.386 283.091 134.126 283.003C133.065 282.936 132.049 282.848 131.253 282.759C125.197 282.094 121.816 281.185 119.606 279.633C117.131 277.882 109.683 271.342 109.086 270.566C108.755 270.145 108.622 269.657 108.468 269.059C108.335 268.593 108.202 268.083 107.959 267.507C107.031 265.423 103.495 263.14 100.909 261.499C99.5833 260.635 98.412 259.903 98.1689 259.526C97.7711 258.928 97.9037 258.573 98.1247 258.041C98.2794 257.686 98.4341 257.287 98.4562 256.755H97.97C97.97 257.199 97.8153 257.531 97.6827 257.842C97.4396 258.396 97.2186 258.95 97.7711 259.792C98.0805 260.258 99.1634 260.945 100.644 261.898C103.164 263.517 106.633 265.734 107.495 267.707C107.738 268.239 107.871 268.726 107.981 269.192C108.158 269.835 108.291 270.367 108.689 270.877C109.307 271.675 116.821 278.281 119.319 280.054C121.595 281.673 125.021 282.604 131.187 283.269C131.982 283.357 132.999 283.424 134.06 283.513C136.756 283.712 139.806 283.934 141.308 284.466C142.944 285.064 145.508 287.06 147.253 289.121C147.276 289.143 147.298 289.188 147.342 289.232C147.629 289.542 148.469 290.496 148.579 291.227C148.69 291.959 148.182 293.311 147.474 295.195C146.811 296.969 145.994 299.208 145.287 301.912L145.751 302.045C146.436 299.363 147.253 297.168 147.916 295.395C148.8 293.267 149.287 291.914 149.176 291.072Z" fill="url(#paint10_linear_3618_29575)"/>
<path d="M97.9699 222.616C97.9257 222.993 97.5279 223.592 97.0859 224.234C96.2903 225.432 95.3842 226.784 95.9588 227.848C96.2682 228.424 97.0196 228.934 97.9699 229.555C99.6495 230.663 101.727 232.06 102.567 234.609C103.915 238.644 107.34 245.871 107.385 245.937L107.407 245.982C107.451 246.048 111.65 251.723 110.191 257.243L110.655 257.376C112.136 251.746 108.136 246.159 107.804 245.716C107.782 245.649 107.694 245.472 107.561 245.184C108.136 245.051 109.44 244.652 110.28 243.543C110.943 242.679 111.186 241.592 111.031 240.284C110.744 238.045 109.683 235.939 108.733 234.099C107.915 232.503 107.208 231.129 107.296 230.153C107.362 229.289 107.849 229.156 108.512 228.956C109.285 228.735 110.258 228.469 110.434 226.784C110.633 225.01 109.396 224.234 108.401 223.614C107.606 223.104 107.097 222.771 107.164 222.195C107.318 220.577 109.572 218.36 109.595 218.338L109.263 217.983C109.175 218.072 106.854 220.355 106.699 222.151C106.611 223.06 107.407 223.547 108.18 224.035C109.153 224.633 110.147 225.276 109.992 226.739C109.838 228.092 109.175 228.291 108.423 228.491C107.738 228.69 106.965 228.912 106.854 230.109C106.766 231.24 107.495 232.658 108.335 234.321C109.263 236.139 110.302 238.178 110.567 240.329C110.722 241.504 110.501 242.479 109.926 243.233C109.108 244.297 107.804 244.629 107.362 244.718C106.368 242.59 104.092 237.558 103.053 234.454C102.147 231.75 99.8926 230.242 98.2572 229.134C97.3953 228.557 96.666 228.07 96.4008 227.582C95.9588 226.784 96.7765 225.565 97.5058 224.478C97.992 223.769 98.3898 223.148 98.4561 222.661C98.5445 221.973 97.8594 220.931 97.0638 219.734C96.3345 218.648 95.5168 217.407 95.3842 216.542L94.8979 216.608C95.0527 217.606 95.8704 218.825 96.6439 220.022C97.329 221.064 98.0362 222.128 97.9699 222.616Z" fill="url(#paint11_linear_3618_29575)"/>
<path d="M146.325 293.134C145.751 291.804 144.027 290.695 142.789 289.897C142.303 289.587 141.883 289.299 141.706 289.121C141.53 288.944 141.485 288.744 141.441 288.523C141.309 287.946 141.132 287.459 139.894 286.949C138.038 286.173 133.596 285.796 132.115 286.727C131.518 287.104 131.452 287.592 131.474 287.924C131.585 288.944 132.844 289.875 133.971 290.252C134.745 290.518 134.811 291.316 134.877 292.158C134.922 292.868 134.988 293.599 135.518 293.998C135.872 294.242 136.027 294.508 135.96 294.73C135.894 294.996 135.452 295.328 134.458 295.439C133.043 295.594 130.855 295.018 130.833 295.018L130.723 295.506C130.811 295.528 132.999 296.104 134.524 295.927C135.629 295.816 136.314 295.417 136.447 294.863C136.557 294.442 136.314 293.976 135.806 293.599C135.452 293.355 135.408 292.757 135.364 292.136C135.297 291.272 135.209 290.163 134.126 289.809C132.999 289.432 132.027 288.567 131.96 287.88C131.938 287.592 132.071 287.348 132.358 287.17C133.618 286.372 137.795 286.661 139.695 287.436C140.778 287.88 140.867 288.257 140.955 288.656C140.999 288.922 141.066 289.21 141.375 289.498C141.596 289.72 142.016 289.986 142.546 290.341C143.673 291.072 145.375 292.181 145.905 293.378C146.281 294.22 145.861 295.129 145.287 296.393C144.756 297.59 144.071 299.075 143.784 301.114L144.27 301.181C144.535 299.23 145.198 297.767 145.729 296.592C146.303 295.218 146.789 294.176 146.325 293.134Z" fill="url(#paint12_linear_3618_29575)"/>
</g>
<path d="M162.635 192.511C185.96 192.511 204.869 182.298 204.869 169.7C204.869 157.102 185.96 146.889 162.635 146.889C139.31 146.889 120.402 157.102 120.402 169.7C120.402 182.298 139.31 192.511 162.635 192.511Z" fill="#2A697F"/>
<path d="M162.259 170.01C172.5 170.01 180.801 165.891 180.801 160.81C180.801 155.729 172.5 151.61 162.259 151.61C152.019 151.61 143.717 155.729 143.717 160.81C143.717 165.891 152.019 170.01 162.259 170.01Z" fill="#293C4F"/>
<path d="M162.26 153.827C171.741 153.827 179.564 157.352 180.647 161.919C180.736 161.564 180.78 161.187 180.78 160.81C180.78 155.734 172.47 151.61 162.238 151.61C152.005 151.61 143.696 155.734 143.696 160.81C143.696 161.187 143.74 161.564 143.828 161.919C144.956 157.374 152.779 153.827 162.26 153.827Z" fill="#DBDBDB"/>
<path d="M180.647 163.803L180.227 162.03C179.166 157.618 171.431 154.271 162.26 154.271C153.088 154.271 145.353 157.596 144.292 162.03L143.872 163.803L143.453 162.03C143.342 161.608 143.298 161.209 143.298 160.81C143.298 158.172 145.309 155.734 148.978 153.916C152.536 152.142 157.265 151.167 162.282 151.167C167.299 151.167 172.028 152.142 175.586 153.916C179.255 155.734 181.266 158.194 181.266 160.81C181.266 161.209 181.222 161.608 181.111 162.03L180.647 163.803ZM162.26 153.384C170.569 153.384 177.752 156.111 180.271 159.968C179.387 155.534 171.652 152.054 162.26 152.054C152.867 152.054 145.132 155.534 144.248 159.968C146.768 156.111 153.95 153.384 162.26 153.384Z" fill="#323A50"/>
<path d="M162.746 146.999C139.408 146.999 120.512 156.975 120.512 169.278C120.512 181.582 139.43 191.558 162.746 191.558C186.083 191.558 204.979 181.582 204.979 169.278C204.979 156.975 186.061 146.999 162.746 146.999ZM180.824 160.987C180.824 161.032 180.868 161.098 180.868 161.143C180.868 161.209 180.846 161.276 180.846 161.342C180.094 165.975 172.116 169.611 162.37 169.611C152.889 169.611 145.066 166.153 143.983 161.697C143.961 161.586 143.938 161.453 143.916 161.342C143.894 161.276 143.894 161.209 143.894 161.143C143.894 161.098 143.894 161.032 143.872 160.965C143.85 160.832 143.85 160.788 143.85 160.566C143.85 160.566 143.85 160.278 143.872 160.123C143.938 159.502 144.137 158.926 144.425 158.349C144.712 157.795 145.132 157.263 145.64 156.731C145.662 156.709 145.684 156.709 145.684 156.709C148.668 153.694 155.055 151.61 162.414 151.61C172.647 151.61 181 155.645 181 160.588H180.779C180.779 160.721 180.824 160.854 180.824 160.987Z" fill="#DBDBDB"/>
<path d="M162.746 192.001C151.386 192.001 140.712 189.673 132.667 185.417C124.535 181.139 120.07 175.397 120.07 169.278C120.07 163.16 124.557 157.418 132.667 153.14C140.712 148.906 151.386 146.556 162.746 146.556C174.105 146.556 184.78 148.883 192.824 153.14C200.957 157.418 205.421 163.16 205.421 169.278C205.421 175.397 200.935 181.139 192.824 185.417C184.78 189.673 174.105 192.001 162.746 192.001ZM162.746 147.442C139.695 147.442 120.954 157.241 120.954 169.278C120.954 181.316 139.695 191.114 162.746 191.114C185.796 191.114 204.537 181.316 204.537 169.278C204.537 157.241 185.796 147.442 162.746 147.442ZM162.348 170.032C152.779 170.032 144.69 166.485 143.519 161.785C143.497 161.652 143.452 161.542 143.43 161.409C143.408 161.342 143.408 161.276 143.386 161.187C143.386 161.143 143.386 161.098 143.364 161.054V160.965C143.342 160.854 143.342 160.766 143.342 160.566V160.123H143.364C143.364 160.101 143.364 160.101 143.364 160.078C143.43 159.413 143.629 158.793 143.983 158.15C144.292 157.573 144.712 156.997 145.287 156.443C145.309 156.421 145.353 156.398 145.375 156.376C148.58 153.184 155.099 151.189 162.392 151.189C167.409 151.189 172.138 152.142 175.719 153.871C179.409 155.645 181.42 158.039 181.42 160.633V161.076H181.266C181.266 161.12 181.266 161.165 181.266 161.231C181.266 161.298 181.244 161.364 181.244 161.431C180.448 166.308 172.337 170.032 162.348 170.032ZM144.27 160.588C144.27 160.744 144.27 160.788 144.292 160.877V160.987C144.292 161.032 144.292 161.054 144.292 161.098C144.292 161.165 144.314 161.209 144.314 161.276C144.336 161.386 144.358 161.497 144.381 161.586C145.441 165.909 153.176 169.145 162.348 169.145C171.741 169.145 179.652 165.687 180.382 161.253C180.382 161.231 180.382 161.187 180.404 161.165C180.382 161.098 180.36 161.032 180.382 160.943C180.382 160.921 180.382 160.877 180.36 160.854C180.338 160.788 180.338 160.699 180.338 160.61V160.167H180.536C180.315 158.105 178.481 156.155 175.343 154.647C171.895 152.985 167.298 152.053 162.392 152.053C155.409 152.053 148.955 154.004 145.972 157.019C145.95 157.041 145.928 157.064 145.905 157.086C145.419 157.573 145.044 158.083 144.8 158.571C144.513 159.125 144.336 159.635 144.292 160.189C144.27 160.278 144.27 160.5 144.27 160.588Z" fill="#323A50"/>
<path d="M163.232 143.009C178.489 143.009 190.857 139.664 190.857 135.538C190.857 131.412 178.489 128.067 163.232 128.067C147.975 128.067 135.606 131.412 135.606 135.538C135.606 139.664 147.975 143.009 163.232 143.009Z" fill="#DBDBDB"/>
<path d="M163.232 143.452C149.441 143.452 135.165 140.482 135.165 135.538C135.165 130.595 149.441 127.624 163.232 127.624C177.022 127.624 191.299 130.595 191.299 135.538C191.299 140.482 177.022 143.452 163.232 143.452ZM163.232 128.511C146.966 128.511 136.049 132.146 136.049 135.538C136.049 138.93 146.966 142.566 163.232 142.566C179.498 142.566 190.415 138.93 190.415 135.538C190.415 132.146 179.498 128.511 163.232 128.511Z" fill="#323A50"/>
<g opacity="0.3">
<path d="M163.806 314.238C163.762 314.238 163.696 314.238 163.652 314.238C148.8 314.216 134.06 310.092 120.998 302.334L120.954 302.311L120.291 301.646C103.981 292.158 91.6935 277.372 84.7982 258.883C82.0799 251.745 80.4003 244.075 79.6931 235.496C79.4721 231.461 79.4721 227.714 79.6931 223.68C79.892 219.734 80.4666 215.699 81.4611 210.977C82.4777 206.189 84.0468 201.4 86.2568 196.324L87.0746 196.679C84.8866 201.689 83.3396 206.433 82.323 211.155C81.3285 215.832 80.776 219.822 80.555 223.724C80.334 227.714 80.334 231.439 80.555 235.429C81.2622 243.92 82.9197 251.501 85.6159 258.573C92.467 276.884 104.622 291.515 120.777 300.915L120.822 300.937L121.485 301.602C147.828 317.209 179.365 317.297 205.841 301.801C207.145 300.937 208.493 300.028 210.04 299.141C224.052 290.119 234.549 277.217 241.245 260.79C241.577 260.014 241.842 259.194 242.129 258.373C242.395 257.553 242.682 256.711 243.013 255.913C248.097 240.373 248.693 224.5 244.759 208.738L244.737 208.672C244.583 208.007 241.997 199.959 240.406 196.28L241.223 195.925C242.704 199.361 245.356 207.43 245.599 208.516C249.577 224.433 248.981 240.483 243.831 256.201L243.809 256.245C243.478 256.999 243.212 257.841 242.947 258.639C242.682 259.46 242.395 260.324 242.041 261.122C235.278 277.727 224.67 290.762 210.482 299.895L210.46 299.917C208.935 300.804 207.587 301.691 206.283 302.555L206.261 302.577C193.266 310.203 178.569 314.238 163.806 314.238Z" fill="#323A50"/>
</g>
<path d="M223.013 162.828C216.14 155.689 216.074 155.601 212.958 152.054C209.333 147.93 202.106 138.309 190.018 131.26C182.923 127.114 170.393 126.161 163.1 126.493C158.834 126.693 153.42 127.136 148.381 128.023L140.756 129.863C138.944 130.484 137.375 131.193 136.159 132.036C125.573 139.373 117.905 148.196 114.523 152.054C111.297 155.712 111.341 155.734 103.738 163.604C85.3953 180.119 73.8369 204.083 73.8369 230.774C73.8369 269.525 95.6056 300.206 128.491 314.172C146.193 321.886 160.558 321.221 163.807 321.221C213.488 321.221 253.755 280.631 253.755 230.796C253.777 203.662 241.865 179.365 223.013 162.828Z" fill="url(#paint13_linear_3618_29575)"/>
<path d="M170.945 22.8998V6.49512H163.873V22.8998H158.237L167.077 36.0457L167.166 36.09L176.47 22.8998H170.945Z" fill="#FF4200"/>
<path d="M170.702 92.3315C165.575 92.3315 161.42 88.1639 161.42 83.0208C161.42 78.0329 170.061 63.8229 170.415 63.2243L170.702 62.7588L170.989 63.2243C171.365 63.8229 179.984 78.0329 179.984 83.0208C179.984 88.1639 175.807 92.3315 170.702 92.3315ZM170.702 64.0446C169.177 66.5939 162.083 78.6979 162.083 83.0208C162.083 87.787 165.95 91.6665 170.702 91.6665C175.454 91.6665 179.321 87.787 179.321 83.0208C179.321 78.7201 172.205 66.5939 170.702 64.0446Z" fill="#323A50"/>
<path d="M165.066 80.1392L164.425 79.984C165.331 76.3706 168.823 69.8087 168.978 69.5205L169.553 69.8309C169.508 69.8974 165.95 76.6144 165.066 80.1392Z" fill="#323A50"/>
<path d="M166.458 87.9647C163.453 85.5483 164.05 81.4693 164.072 81.292L164.735 81.4028C164.735 81.4472 164.182 85.2823 166.878 87.4548L166.458 87.9647Z" fill="#323A50"/>
<path d="M153.508 63.2914C149.95 63.2914 147.055 60.3873 147.055 56.8182C147.055 53.3599 152.978 43.6058 153.243 43.2067L153.53 42.7412L153.817 43.2067C154.06 43.6279 160.005 53.3821 160.005 56.8182C159.983 60.3873 157.066 63.2914 153.508 63.2914ZM153.508 44.027C152.315 46.0443 147.718 53.9806 147.718 56.8182C147.718 60.0326 150.326 62.6263 153.508 62.6263C156.712 62.6263 159.298 60.0105 159.298 56.8182C159.32 53.9585 154.701 46.0443 153.508 44.027Z" fill="#323A50"/>
<path d="M150.546 60.2765C148.447 58.5917 148.867 55.7319 148.867 55.6211L149.53 55.7319C149.53 55.7541 149.154 58.3257 150.966 59.7888L150.546 60.2765Z" fill="#323A50"/>
<path d="M194.371 119.11H134.037V134.451C134.037 134.562 134.015 134.673 134.015 134.783C134.015 134.894 134.037 135.005 134.037 135.116V135.094H133.971C134.524 140.414 147.806 144.56 164.116 144.56C180.426 144.56 193.708 140.414 194.261 135.094H194.371V119.11Z" fill="#DBDBDB"/>
<path d="M164.116 144.981C156.182 144.981 148.668 144.006 143.01 142.21C137.198 140.393 133.816 137.865 133.551 135.094C133.551 135.006 133.551 134.917 133.595 134.828C133.595 134.806 133.595 134.784 133.595 134.74C133.595 134.673 133.595 134.607 133.595 134.54C133.595 134.496 133.595 134.451 133.595 134.407V119.066C133.595 118.823 133.794 118.623 134.037 118.623H194.371C194.614 118.623 194.813 118.823 194.813 119.066V135.028C194.813 135.161 194.747 135.294 194.658 135.36C194.172 137.998 190.835 140.415 185.222 142.166C179.564 144.006 172.072 144.981 164.116 144.981ZM134.457 135.272C135.386 140.149 148.535 144.095 164.116 144.095C179.984 144.095 193.31 140.016 193.818 135.028C193.818 134.939 193.863 134.85 193.929 134.784V119.554H134.479V134.451C134.479 134.518 134.479 134.584 134.479 134.651C134.479 134.695 134.479 134.74 134.479 134.784C134.479 134.828 134.479 134.873 134.479 134.917C134.479 134.961 134.479 135.028 134.479 135.072V135.094C134.479 135.161 134.479 135.227 134.457 135.272Z" fill="#323A50"/>
<path d="M164.227 129.486C180.924 129.486 194.46 125.099 194.46 119.687C194.46 114.276 180.924 109.889 164.227 109.889C147.529 109.889 133.994 114.276 133.994 119.687C133.994 125.099 147.529 129.486 164.227 129.486Z" fill="#DBDBDB"/>
<path d="M164.227 129.951C147.033 129.951 133.574 125.451 133.574 119.71C133.574 113.968 147.033 109.468 164.227 109.468C181.421 109.468 194.902 113.968 194.902 119.71C194.902 125.451 181.421 129.951 164.227 129.951ZM164.227 110.332C148.094 110.332 134.458 114.611 134.458 119.687C134.458 124.764 148.094 129.043 164.227 129.043C180.36 129.043 194.018 124.764 194.018 119.687C194.018 114.611 180.382 110.332 164.227 110.332Z" fill="#323A50"/>
<path d="M164.293 127.069C179.281 127.069 191.432 123.675 191.432 119.488C191.432 115.301 179.281 111.906 164.293 111.906C149.304 111.906 137.154 115.301 137.154 119.488C137.154 123.675 149.304 127.069 164.293 127.069Z" fill="#DBDBDB"/>
<path d="M164.293 127.513C150.723 127.513 136.712 124.52 136.712 119.488C136.712 114.456 150.746 111.463 164.293 111.463C177.862 111.463 191.874 114.456 191.874 119.488C191.874 124.52 177.84 127.513 164.293 127.513ZM164.293 112.35C148.315 112.35 137.596 116.03 137.596 119.488C137.596 122.946 148.337 126.626 164.293 126.626C180.271 126.626 190.99 122.946 190.99 119.488C190.99 116.03 180.271 112.35 164.293 112.35Z" fill="#323A50"/>
<path d="M269.181 199.317V199.295C267.17 192.533 261.755 187.944 253.114 185.683C248.163 184.375 243.522 184.264 241.578 184.264C241.533 183.998 241.401 183.754 241.202 183.555C242.904 183.511 247.92 183.555 253.291 184.974C262.042 187.279 267.766 192.134 269.844 199.051C270.264 199.937 282.883 226.54 284.43 242.102C284.85 246.203 288.165 247.112 294.198 248.752C299.193 250.127 306.044 251.989 314.574 256.578L314.243 257.221C305.801 252.676 298.994 250.814 294.021 249.462C287.9 247.777 284.187 246.779 283.723 242.168C282.463 229.466 273.733 209.315 270.44 202.043C270.639 207.408 266.904 214.857 259.28 224.234C252.009 233.19 241.202 243.942 227.146 256.201C221.953 260.746 216.671 265.135 211.61 269.258L210.792 268.992C215.919 264.891 221.334 260.302 226.66 255.647C258.197 228.136 272.871 208.694 269.181 199.317Z" fill="#323A50"/>
<path d="M243.721 190.893C243.633 190.383 242.992 187.856 242.837 187.435C242.882 187.191 243.854 188.72 243.81 188.499C243.832 188.011 243.5 187.457 243.036 187.169C243.103 186.637 243.103 186.371 242.572 186.06C242.616 185.839 242.064 185.816 242.02 185.595C242.926 187.102 244.009 189.142 244.34 190.782C245.777 198.519 234.041 216.808 209.444 245.206C204.029 251.457 198.526 257.642 193.532 262.963L192.758 262.697C214.792 238.799 245.622 202.664 243.721 190.893Z" fill="#323A50"/>
<path d="M241.29 183.511C241.401 183.644 241.511 183.777 241.599 183.91L246.196 183.732C244.097 183.511 242.351 183.489 241.29 183.511Z" fill="#323A50"/>
<path d="M242.528 185.749L254.329 185.262C253.887 185.129 253.423 184.996 252.937 184.885L242.373 185.306C242.417 185.461 242.484 185.594 242.528 185.749Z" fill="#323A50"/>
<path d="M242.992 187.567L258.661 186.924C258.374 186.791 258.064 186.658 257.755 186.525L242.793 187.124C242.793 187.19 242.793 187.235 242.815 187.301C242.881 187.39 242.926 187.479 242.992 187.567Z" fill="#323A50"/>
<path d="M243.721 189.43L261.777 188.699C261.556 188.566 261.357 188.41 261.136 188.277L243.611 188.987C243.633 189.12 243.677 189.275 243.721 189.43Z" fill="#323A50"/>
<path d="M243.898 191.137L263.899 190.317C263.744 190.184 263.567 190.029 263.39 189.896L243.876 190.694C243.898 190.849 243.898 190.982 243.898 191.137Z" fill="#323A50"/>
<path d="M243.964 193.021L265.733 192.134C265.6 191.979 265.468 191.846 265.335 191.713L243.986 192.577C243.986 192.71 243.986 192.866 243.964 193.021Z" fill="#323A50"/>
<path d="M243.699 194.529C243.655 194.639 243.633 194.772 243.588 194.883L267.125 193.93C267.037 193.775 266.926 193.642 266.816 193.509L243.721 194.44C243.721 194.462 243.721 194.484 243.699 194.529Z" fill="#323A50"/>
<path d="M243.125 196.502C243.102 196.59 243.08 196.679 243.036 196.768L268.23 195.748C268.164 195.593 268.076 195.46 267.987 195.305L243.169 196.302C243.147 196.391 243.125 196.457 243.125 196.502Z" fill="#323A50"/>
<path d="M242.395 198.208L268.871 197.122C268.937 197.277 268.982 197.41 269.048 197.565L242.218 198.652C242.285 198.497 242.329 198.341 242.395 198.208Z" fill="#323A50"/>
<path d="M241.599 200.115L269.556 198.984C269.6 199.095 269.645 199.228 269.667 199.428L241.378 200.581C241.467 200.403 241.533 200.27 241.599 200.115Z" fill="#323A50"/>
<path d="M240.716 201.977L269.954 200.78C269.976 200.913 269.998 201.068 270.021 201.224L240.495 202.421C240.561 202.288 240.627 202.133 240.716 201.977Z" fill="#323A50"/>
<path d="M239.721 203.905L270.109 202.664C270.109 202.819 270.086 202.952 270.086 203.107L239.456 204.349C239.544 204.216 239.632 204.061 239.721 203.905Z" fill="#323A50"/>
<path d="M238.726 205.657L269.932 204.394C269.91 204.549 269.888 204.682 269.843 204.837L238.439 206.123C238.572 205.968 238.638 205.812 238.726 205.657Z" fill="#323A50"/>
<path d="M237.599 207.586L269.534 206.3C269.49 206.455 269.446 206.588 269.401 206.743L237.312 208.051C237.423 207.896 237.511 207.741 237.599 207.586Z" fill="#323A50"/>
<path d="M236.45 209.47L268.959 208.14C268.915 208.295 268.849 208.45 268.782 208.583L236.163 209.913C236.251 209.78 236.339 209.625 236.45 209.47Z" fill="#323A50"/>
<path d="M235.213 211.398L268.186 210.068C268.12 210.224 268.053 210.379 267.987 210.512L234.925 211.864C235.014 211.709 235.102 211.554 235.213 211.398Z" fill="#323A50"/>
<path d="M233.997 213.217L267.302 211.864C267.236 212.019 267.147 212.175 267.059 212.308L233.688 213.66C233.798 213.505 233.909 213.372 233.997 213.217Z" fill="#323A50"/>
<path d="M232.693 215.145L266.285 213.771C266.197 213.926 266.109 214.081 266.02 214.236L232.384 215.61C232.472 215.455 232.583 215.3 232.693 215.145Z" fill="#323A50"/>
<path d="M231.367 217.03L265.158 215.655C265.07 215.81 264.959 215.966 264.871 216.121L231.058 217.495C231.146 217.34 231.257 217.185 231.367 217.03Z" fill="#323A50"/>
<path d="M229.975 218.98L263.898 217.605C263.788 217.761 263.699 217.916 263.589 218.071L229.643 219.445C229.754 219.29 229.864 219.135 229.975 218.98Z" fill="#323A50"/>
<path d="M228.671 220.753L262.661 219.379C262.551 219.534 262.44 219.689 262.33 219.844L228.317 221.219C228.45 221.042 228.56 220.909 228.671 220.753Z" fill="#323A50"/>
<path d="M227.234 222.682L261.269 221.308C261.158 221.463 261.048 221.618 260.915 221.773L226.881 223.148C226.991 222.992 227.124 222.837 227.234 222.682Z" fill="#323A50"/>
<path d="M225.798 224.589L259.81 223.215C259.699 223.37 259.567 223.525 259.456 223.68L225.466 225.055C225.555 224.877 225.687 224.744 225.798 224.589Z" fill="#323A50"/>
<path d="M224.295 226.518L258.241 225.144C258.108 225.299 257.998 225.454 257.865 225.609L223.941 226.984C224.052 226.828 224.185 226.673 224.295 226.518Z" fill="#323A50"/>
<path d="M222.815 228.424L256.65 227.05C256.517 227.205 256.385 227.36 256.252 227.515L222.461 228.89C222.571 228.735 222.682 228.579 222.815 228.424Z" fill="#323A50"/>
<path d="M221.267 230.374L254.948 229C254.815 229.155 254.683 229.31 254.55 229.466L220.914 230.84C221.024 230.685 221.157 230.53 221.267 230.374Z" fill="#323A50"/>
<path d="M219.742 232.281L253.246 230.929C253.114 231.084 252.959 231.239 252.826 231.394L219.367 232.747C219.499 232.569 219.632 232.436 219.742 232.281Z" fill="#323A50"/>
<path d="M218.262 234.099L251.567 232.747C251.434 232.902 251.28 233.057 251.147 233.213L217.886 234.565C218.019 234.41 218.151 234.255 218.262 234.099Z" fill="#323A50"/>
<path d="M216.825 235.873L249.909 234.521C249.755 234.676 249.622 234.831 249.467 234.986L216.45 236.338C216.56 236.183 216.693 236.028 216.825 235.873Z" fill="#323A50"/>
<path d="M215.212 237.823L248.03 236.493C247.876 236.648 247.743 236.804 247.588 236.959L214.836 238.289C214.946 238.134 215.079 237.978 215.212 237.823Z" fill="#323A50"/>
<path d="M213.62 239.73L246.152 238.399C245.997 238.555 245.843 238.71 245.688 238.865L213.223 240.173C213.355 240.04 213.488 239.885 213.62 239.73Z" fill="#323A50"/>
<path d="M211.985 241.681L244.207 240.373C244.052 240.528 243.898 240.683 243.743 240.839L211.609 242.147C211.72 241.991 211.852 241.836 211.985 241.681Z" fill="#323A50"/>
<path d="M210.46 243.476L242.351 242.19C242.196 242.346 242.041 242.501 241.865 242.656L210.062 243.942C210.195 243.787 210.328 243.631 210.46 243.476Z" fill="#323A50"/>
<path d="M208.935 245.272L240.494 243.986C240.34 244.142 240.163 244.297 240.008 244.452L208.538 245.738C208.67 245.56 208.803 245.427 208.935 245.272Z" fill="#323A50"/>
<path d="M207.256 247.201L238.439 245.938C238.284 246.093 238.108 246.248 237.953 246.403L206.858 247.667C206.991 247.511 207.123 247.356 207.256 247.201Z" fill="#323A50"/>
<path d="M205.598 249.108L236.384 247.866C236.207 248.021 236.052 248.177 235.875 248.332L205.178 249.573C205.333 249.418 205.466 249.263 205.598 249.108Z" fill="#323A50"/>
<path d="M203.896 251.058L234.262 249.816C234.085 249.972 233.931 250.127 233.754 250.282L203.477 251.501C203.631 251.368 203.764 251.213 203.896 251.058Z" fill="#323A50"/>
<path d="M202.173 253.031L232.096 251.812C231.92 251.967 231.765 252.122 231.588 252.277L201.753 253.496C201.886 253.341 202.04 253.186 202.173 253.031Z" fill="#323A50"/>
<path d="M200.581 254.805L230.107 253.607C229.93 253.763 229.754 253.918 229.599 254.073L200.184 255.27C200.316 255.115 200.449 254.96 200.581 254.805Z" fill="#323A50"/>
<path d="M198.858 256.755L227.898 255.58C227.721 255.735 227.544 255.89 227.367 256.046L198.438 257.221C198.571 257.065 198.703 256.91 198.858 256.755Z" fill="#323A50"/>
<path d="M197.134 258.662L225.709 257.509C225.533 257.664 225.356 257.819 225.179 257.974L196.714 259.127C196.869 258.972 197.001 258.817 197.134 258.662Z" fill="#323A50"/>
<path d="M195.388 260.613L223.478 259.482C223.301 259.638 223.124 259.793 222.947 259.948L194.968 261.079C195.101 260.923 195.233 260.768 195.388 260.613Z" fill="#323A50"/>
<path d="M193.752 262.408L221.378 261.277C221.201 261.433 221.024 261.588 220.847 261.743L193.333 262.851C193.465 262.718 193.62 262.563 193.752 262.408Z" fill="#323A50"/>
<path d="M194.261 264.115L219.278 263.096C219.101 263.251 218.902 263.406 218.726 263.561L195.388 264.514C195.012 264.381 194.636 264.248 194.261 264.115Z" fill="#323A50"/>
<path d="M199.189 265.8L216.958 265.068C216.781 265.224 216.582 265.379 216.406 265.534L200.405 266.177C200.007 266.066 199.587 265.933 199.189 265.8Z" fill="#323A50"/>
<path d="M204.25 267.418L214.637 266.997C214.438 267.152 214.261 267.307 214.062 267.463L205.466 267.817C205.068 267.684 204.67 267.551 204.25 267.418Z" fill="#323A50"/>
<path d="M209.311 269.103L212.228 268.992C212.029 269.147 211.853 269.303 211.654 269.458L210.416 269.502C210.04 269.369 209.687 269.236 209.311 269.103Z" fill="#323A50"/>
<path d="M58.676 199.317V199.295C60.6871 192.533 66.1017 187.944 74.7429 185.683C79.6933 184.375 84.3343 184.264 86.2791 184.264C86.3233 183.998 86.4559 183.754 86.6549 183.555C84.9531 183.511 79.9364 183.555 74.566 184.974C65.8144 187.279 60.0904 192.134 58.013 199.051C57.5931 199.937 44.9739 226.54 43.4269 242.102C43.007 246.203 39.692 247.112 33.6586 248.752C28.664 250.127 21.8129 251.989 13.2822 256.578L13.6137 257.221C22.056 252.676 28.8629 250.814 33.8354 249.462C39.9572 247.777 43.67 246.779 44.1341 242.168C45.3938 229.466 54.1234 209.315 57.4163 202.043C57.2174 207.408 60.9523 214.857 68.5769 224.234C75.8479 233.19 86.6549 243.942 100.711 256.201C105.904 260.746 111.186 265.135 116.247 269.258L117.065 268.992C111.937 264.891 106.523 260.302 101.197 255.647C69.6598 228.136 54.9853 208.694 58.676 199.317Z" fill="#323A50"/>
<path d="M84.1353 190.893C84.2237 190.383 84.8646 187.856 85.0193 187.435C84.9751 187.191 84.0027 188.72 84.0469 188.499C84.0248 188.011 84.3563 187.457 84.8204 187.169C84.7541 186.637 84.7541 186.371 85.2845 186.06C85.2403 185.839 85.7928 185.816 85.837 185.595C84.9309 187.102 83.848 189.142 83.5165 190.782C82.08 198.519 93.8152 216.808 118.413 245.206C123.827 251.457 129.33 257.642 134.325 262.963L135.098 262.697C113.064 238.799 82.2347 202.664 84.1353 190.893Z" fill="#323A50"/>
<path d="M86.5669 183.511C86.4564 183.644 86.3459 183.777 86.2575 183.91L81.6606 183.732C83.7602 183.511 85.5061 183.489 86.5669 183.511Z" fill="#323A50"/>
<path d="M85.3288 185.749L73.5273 185.262C73.9693 185.129 74.4334 184.996 74.9197 184.885L85.4835 185.306C85.4393 185.461 85.373 185.594 85.3288 185.749Z" fill="#323A50"/>
<path d="M84.8648 187.567L69.1958 186.924C69.4831 186.791 69.7925 186.658 70.1019 186.525L85.0637 187.124C85.0637 187.19 85.0637 187.235 85.0416 187.301C84.9753 187.39 84.9311 187.479 84.8648 187.567Z" fill="#323A50"/>
<path d="M84.1354 189.43L66.0796 188.699C66.3006 188.566 66.4995 188.41 66.7205 188.277L84.2459 188.987C84.2238 189.12 84.1796 189.275 84.1354 189.43Z" fill="#323A50"/>
<path d="M83.9587 191.137L63.958 190.317C64.1127 190.184 64.2895 190.029 64.4663 189.896L83.9808 190.694C83.9587 190.849 83.9587 190.982 83.9587 191.137Z" fill="#323A50"/>
<path d="M83.8927 193.021L62.124 192.134C62.2566 191.979 62.3892 191.846 62.5218 191.713L83.8706 192.577C83.8706 192.71 83.8706 192.866 83.8927 193.021Z" fill="#323A50"/>
<path d="M84.1576 194.529C84.2018 194.639 84.2239 194.772 84.2681 194.883L60.7314 193.93C60.8198 193.775 60.9304 193.642 61.0409 193.509L84.1356 194.44C84.1356 194.462 84.1355 194.484 84.1576 194.529Z" fill="#323A50"/>
<path d="M84.7323 196.502C84.7544 196.59 84.7765 196.679 84.8207 196.768L59.6265 195.748C59.6928 195.593 59.7812 195.46 59.8696 195.305L84.6881 196.302C84.7102 196.391 84.7323 196.457 84.7323 196.502Z" fill="#323A50"/>
<path d="M85.4619 198.208L58.9859 197.122C58.9196 197.277 58.8754 197.41 58.8091 197.565L85.6387 198.652C85.5724 198.497 85.5282 198.341 85.4619 198.208Z" fill="#323A50"/>
<path d="M86.2572 200.115L58.3004 198.984C58.2562 199.095 58.212 199.228 58.1899 199.428L86.4782 200.581C86.3898 200.403 86.3235 200.27 86.2572 200.115Z" fill="#323A50"/>
<path d="M87.1413 201.977L57.9027 200.78C57.8806 200.913 57.8585 201.068 57.8364 201.224L87.3623 202.421C87.296 202.288 87.2297 202.133 87.1413 201.977Z" fill="#323A50"/>
<path d="M88.1358 203.905L57.748 202.664C57.748 202.819 57.7701 202.952 57.7701 203.107L88.401 204.349C88.3126 204.216 88.2242 204.061 88.1358 203.905Z" fill="#323A50"/>
<path d="M89.1304 205.657L57.9028 204.394C57.9249 204.549 57.947 204.682 57.9912 204.837L89.3956 206.123C89.2851 205.968 89.2188 205.812 89.1304 205.657Z" fill="#323A50"/>
<path d="M90.2575 207.586L58.3228 206.3C58.367 206.455 58.4112 206.588 58.4554 206.743L90.5448 208.051C90.4343 207.896 90.3459 207.741 90.2575 207.586Z" fill="#323A50"/>
<path d="M91.4068 209.47L58.8975 208.14C58.9417 208.295 59.008 208.45 59.0743 208.583L91.6941 209.913C91.6057 209.78 91.5173 209.625 91.4068 209.47Z" fill="#323A50"/>
<path d="M92.6444 211.398L59.6709 210.068C59.7372 210.224 59.8035 210.379 59.8698 210.512L92.9317 211.864C92.8433 211.709 92.7549 211.554 92.6444 211.398Z" fill="#323A50"/>
<path d="M93.8597 213.217L60.5547 211.864C60.621 212.019 60.7094 212.175 60.7978 212.308L94.1691 213.66C94.0586 213.505 93.9481 213.372 93.8597 213.217Z" fill="#323A50"/>
<path d="M95.1636 215.145L61.5713 213.771C61.6597 213.926 61.7481 214.081 61.8365 214.236L95.473 215.61C95.3846 215.455 95.2741 215.3 95.1636 215.145Z" fill="#323A50"/>
<path d="M96.4899 217.03L62.6987 215.655C62.7871 215.81 62.8976 215.966 62.986 216.121L96.7993 217.495C96.7109 217.34 96.6004 217.185 96.4899 217.03Z" fill="#323A50"/>
<path d="M97.8818 218.98L63.958 217.605C64.0685 217.761 64.1569 217.916 64.2674 218.071L98.2133 219.445C98.1028 219.29 97.9923 219.135 97.8818 218.98Z" fill="#323A50"/>
<path d="M99.1859 220.753L65.1958 219.379C65.3063 219.534 65.4168 219.689 65.5273 219.844L99.5395 221.219C99.4069 221.042 99.2964 220.909 99.1859 220.753Z" fill="#323A50"/>
<path d="M100.622 222.682L66.5879 221.308C66.6984 221.463 66.8089 221.618 66.9415 221.773L100.976 223.148C100.865 222.992 100.733 222.837 100.622 222.682Z" fill="#323A50"/>
<path d="M102.059 224.589L68.0469 223.215C68.1574 223.37 68.29 223.525 68.4005 223.68L102.391 225.055C102.302 224.877 102.17 224.744 102.059 224.589Z" fill="#323A50"/>
<path d="M103.562 226.518L69.6157 225.144C69.7483 225.299 69.8588 225.454 69.9914 225.609L103.915 226.984C103.805 226.828 103.672 226.673 103.562 226.518Z" fill="#323A50"/>
<path d="M105.042 228.424L71.207 227.05C71.3396 227.205 71.4722 227.36 71.6048 227.515L105.396 228.89C105.286 228.735 105.175 228.579 105.042 228.424Z" fill="#323A50"/>
<path d="M106.589 230.374L72.9087 229C73.0413 229.155 73.1739 229.31 73.3065 229.466L106.943 230.84C106.832 230.685 106.7 230.53 106.589 230.374Z" fill="#323A50"/>
<path d="M108.114 232.281L74.6104 230.929C74.743 231.084 74.8977 231.239 75.0303 231.394L108.49 232.747C108.357 232.569 108.225 232.436 108.114 232.281Z" fill="#323A50"/>
<path d="M109.595 234.099L76.29 232.747C76.4226 232.902 76.5773 233.057 76.7099 233.213L109.971 234.565C109.838 234.41 109.706 234.255 109.595 234.099Z" fill="#323A50"/>
<path d="M111.032 235.873L77.9478 234.521C78.1025 234.676 78.2351 234.831 78.3898 234.986L111.407 236.338C111.297 236.183 111.164 236.028 111.032 235.873Z" fill="#323A50"/>
<path d="M112.645 237.823L79.8262 236.493C79.9809 236.648 80.1135 236.804 80.2682 236.959L113.021 238.289C112.91 238.134 112.778 237.978 112.645 237.823Z" fill="#323A50"/>
<path d="M114.236 239.73L81.7046 238.399C81.8593 238.555 82.014 238.71 82.1687 238.865L114.634 240.173C114.501 240.04 114.369 239.885 114.236 239.73Z" fill="#323A50"/>
<path d="M115.871 241.681L83.6494 240.373C83.8041 240.528 83.9588 240.683 84.1135 240.839L116.247 242.147C116.137 241.991 116.004 241.836 115.871 241.681Z" fill="#323A50"/>
<path d="M117.396 243.476L85.5059 242.19C85.6606 242.346 85.8153 242.501 85.9921 242.656L117.794 243.942C117.662 243.787 117.529 243.631 117.396 243.476Z" fill="#323A50"/>
<path d="M118.921 245.272L87.3623 243.986C87.517 244.142 87.6938 244.297 87.8485 244.452L119.319 245.738C119.187 245.56 119.054 245.427 118.921 245.272Z" fill="#323A50"/>
<path d="M120.601 247.201L89.4175 245.938C89.5722 246.093 89.749 246.248 89.9037 246.403L120.999 247.667C120.866 247.511 120.733 247.356 120.601 247.201Z" fill="#323A50"/>
<path d="M122.259 249.108L91.4731 247.866C91.6499 248.021 91.8047 248.177 91.9815 248.332L122.679 249.573C122.524 249.418 122.391 249.263 122.259 249.108Z" fill="#323A50"/>
<path d="M123.96 251.058L93.5947 249.816C93.7715 249.972 93.9262 250.127 94.103 250.282L124.38 251.501C124.226 251.368 124.093 251.213 123.96 251.058Z" fill="#323A50"/>
<path d="M125.684 253.031L95.7603 251.812C95.9371 251.967 96.0918 252.122 96.2686 252.277L126.104 253.496C125.971 253.341 125.817 253.186 125.684 253.031Z" fill="#323A50"/>
<path d="M127.275 254.805L97.7495 253.607C97.9263 253.763 98.1031 253.918 98.2578 254.073L127.673 255.27C127.541 255.115 127.408 254.96 127.275 254.805Z" fill="#323A50"/>
<path d="M128.999 256.755L99.9595 255.58C100.136 255.735 100.313 255.89 100.49 256.046L129.419 257.221C129.286 257.065 129.154 256.91 128.999 256.755Z" fill="#323A50"/>
<path d="M130.723 258.662L102.147 257.509C102.324 257.664 102.501 257.819 102.678 257.974L131.143 259.127C130.988 258.972 130.856 258.817 130.723 258.662Z" fill="#323A50"/>
<path d="M132.469 260.613L104.379 259.482C104.556 259.638 104.733 259.793 104.91 259.948L132.889 261.079C132.756 260.923 132.623 260.768 132.469 260.613Z" fill="#323A50"/>
<path d="M134.104 262.408L106.479 261.277C106.656 261.433 106.833 261.588 107.009 261.743L134.524 262.851C134.392 262.718 134.237 262.563 134.104 262.408Z" fill="#323A50"/>
<path d="M133.596 264.115L108.579 263.096C108.755 263.251 108.954 263.406 109.131 263.561L132.469 264.514C132.845 264.381 133.22 264.248 133.596 264.115Z" fill="#323A50"/>
<path d="M128.667 265.8L110.899 265.068C111.076 265.224 111.275 265.379 111.451 265.534L127.452 266.177C127.85 266.066 128.27 265.933 128.667 265.8Z" fill="#323A50"/>
<path d="M123.607 267.418L113.22 266.997C113.419 267.152 113.595 267.307 113.794 267.463L122.391 267.817C122.789 267.684 123.187 267.551 123.607 267.418Z" fill="#323A50"/>
<path d="M118.546 269.103L115.628 268.992C115.827 269.147 116.004 269.303 116.203 269.458L117.441 269.502C117.816 269.369 118.17 269.236 118.546 269.103Z" fill="#323A50"/>
<defs>
<linearGradient id="paint0_linear_3618_29575" x1="277.056" y1="238.835" x2="58.1423" y2="79.212" gradientUnits="userSpaceOnUse">
<stop offset="0.2655" stop-color="#032A3D" stop-opacity="0"/>
<stop offset="0.7809" stop-color="#032A3D"/>
</linearGradient>
<radialGradient id="paint1_radial_3618_29575" cx="0" cy="0" r="1" gradientUnits="userSpaceOnUse" gradientTransform="translate(163.241 230.493) scale(73.8935 73.7809)">
<stop offset="0.2655" stop-color="#032A3D" stop-opacity="0"/>
<stop offset="1" stop-color="#032A3D"/>
</radialGradient>
<linearGradient id="paint2_linear_3618_29575" x1="134.276" y1="113.4" x2="188.869" y2="327.048" gradientUnits="userSpaceOnUse">
<stop offset="0.4054" stop-color="#032A3D" stop-opacity="0"/>
<stop offset="1" stop-color="#032A3D"/>
</linearGradient>
<linearGradient id="paint3_linear_3618_29575" x1="95.1238" y1="186.466" x2="238.303" y2="320.366" gradientUnits="userSpaceOnUse">
<stop offset="0.2655" stop-color="#032A3D" stop-opacity="0"/>
<stop offset="0.7809" stop-color="#032A3D"/>
</linearGradient>
<linearGradient id="paint4_linear_3618_29575" x1="102.912" y1="178.139" x2="246.091" y2="312.039" gradientUnits="userSpaceOnUse">
<stop offset="0.2655" stop-color="#032A3D" stop-opacity="0"/>
<stop offset="0.7809" stop-color="#032A3D"/>
</linearGradient>
<linearGradient id="paint5_linear_3618_29575" x1="100.132" y1="181.111" x2="243.312" y2="315.011" gradientUnits="userSpaceOnUse">
<stop offset="0.2655" stop-color="#032A3D" stop-opacity="0"/>
<stop offset="0.7809" stop-color="#032A3D"/>
</linearGradient>
<linearGradient id="paint6_linear_3618_29575" x1="72.9593" y1="210.167" x2="216.139" y2="344.067" gradientUnits="userSpaceOnUse">
<stop offset="0.2655" stop-color="#032A3D" stop-opacity="0"/>
<stop offset="0.7809" stop-color="#032A3D"/>
</linearGradient>
<linearGradient id="paint7_linear_3618_29575" x1="93.3209" y1="188.395" x2="236.5" y2="322.295" gradientUnits="userSpaceOnUse">
<stop offset="0.2655" stop-color="#032A3D" stop-opacity="0"/>
<stop offset="0.7809" stop-color="#032A3D"/>
</linearGradient>
<linearGradient id="paint8_linear_3618_29575" x1="82.153" y1="200.337" x2="225.332" y2="334.237" gradientUnits="userSpaceOnUse">
<stop offset="0.2655" stop-color="#032A3D" stop-opacity="0"/>
<stop offset="0.7809" stop-color="#032A3D"/>
</linearGradient>
<linearGradient id="paint9_linear_3618_29575" x1="61.9488" y1="221.94" x2="205.128" y2="355.84" gradientUnits="userSpaceOnUse">
<stop offset="0.2655" stop-color="#032A3D" stop-opacity="0"/>
<stop offset="0.7809" stop-color="#032A3D"/>
</linearGradient>
<linearGradient id="paint10_linear_3618_29575" x1="65.3476" y1="218.306" x2="208.527" y2="352.206" gradientUnits="userSpaceOnUse">
<stop offset="0.2655" stop-color="#032A3D" stop-opacity="0"/>
<stop offset="0.7809" stop-color="#032A3D"/>
</linearGradient>
<linearGradient id="paint11_linear_3618_29575" x1="76.5198" y1="206.36" x2="219.699" y2="340.26" gradientUnits="userSpaceOnUse">
<stop offset="0.2655" stop-color="#032A3D" stop-opacity="0"/>
<stop offset="0.7809" stop-color="#032A3D"/>
</linearGradient>
<linearGradient id="paint12_linear_3618_29575" x1="61.9078" y1="221.984" x2="205.087" y2="355.885" gradientUnits="userSpaceOnUse">
<stop offset="0.2655" stop-color="#032A3D" stop-opacity="0"/>
<stop offset="0.7809" stop-color="#032A3D"/>
</linearGradient>
<linearGradient id="paint13_linear_3618_29575" x1="164.1" y1="187.8" x2="163.236" y2="321.883" gradientUnits="userSpaceOnUse">
<stop offset="0.3715" stop-color="#DBDBDB" stop-opacity="0"/>
<stop offset="0.9342" stop-color="#DBDBDB"/>
</linearGradient>
</defs>
</svg>
