<svg width="330" height="330" viewBox="0 0 330 330" fill="none" xmlns="http://www.w3.org/2000/svg">
<g clip-path="url(#clip0_3671_12119)">
<path d="M220.746 154.923C214.5 148.382 214.441 148.5 211.554 145.259C206.309 139.307 190.516 119.507 166.65 119.271H166.414C142.548 119.448 126.755 139.248 121.511 145.259C118.564 148.618 118.623 148.5 111.611 155.689C94.8161 170.775 84.209 192.579 84.209 216.916C84.209 252.273 106.484 282.445 137.834 294.113C137.834 294.171 138.188 294.289 138.188 294.348C140.191 295.173 146.909 297.413 152.743 298.179C157.045 298.886 162.113 299.239 166.591 299.239C212.084 299.239 248.973 262.35 248.973 216.857C248.914 192.166 238.013 170.009 220.746 154.923Z" fill="#DBDBDB"/>
<path d="M166.533 299.711C161.818 299.711 156.75 299.298 152.625 298.65C146.733 297.884 140.133 295.704 138.011 294.761L137.775 294.643C137.717 294.643 137.658 294.584 137.599 294.525C121.983 288.691 108.606 278.379 98.9415 264.707C89.0415 250.682 83.7969 234.182 83.7969 216.975C83.7969 205.013 86.2719 193.463 91.2219 182.679C95.9951 172.248 102.713 163.114 111.317 155.395C112.377 154.334 113.261 153.391 114.027 152.625C118.329 148.205 118.683 147.852 121.158 145.023C121.452 144.729 121.747 144.316 122.1 143.904C125.047 140.545 130.527 134.239 137.952 128.877C147.027 122.336 156.633 118.977 166.356 118.918H166.592C176.374 118.977 185.92 122.336 194.995 128.877C202.42 134.239 207.9 140.545 210.847 143.904C211.2 144.316 211.495 144.67 211.79 145.023C213.675 147.145 214.383 147.852 216.386 149.914C217.447 150.975 218.861 152.448 220.983 154.629C229.763 162.289 236.717 171.6 241.608 182.148C246.675 193.05 249.268 204.777 249.268 216.916C249.268 228.113 247.088 238.955 242.786 249.15C238.602 258.991 232.65 267.83 225.049 275.432C217.447 283.034 208.608 288.986 198.767 293.17C188.572 297.53 177.729 299.711 166.533 299.711ZM138.424 294.054C140.309 294.82 146.968 297.059 152.743 297.825C156.868 298.473 161.877 298.886 166.533 298.886C211.731 298.886 248.502 262.114 248.502 216.916C248.502 193.286 238.308 170.775 220.452 155.218C218.331 153.038 216.917 151.564 215.856 150.504C213.793 148.441 213.145 147.734 211.2 145.554C210.906 145.259 210.611 144.847 210.258 144.434C204.424 137.716 188.984 119.92 166.592 119.684H166.356C143.963 119.861 128.524 137.716 122.69 144.375C122.336 144.788 122.041 145.141 121.747 145.495C119.213 148.323 118.918 148.736 114.558 153.155C113.792 153.922 112.908 154.864 111.847 155.925C94.5808 171.423 84.6219 193.639 84.6219 216.857C84.6219 250.918 106.072 281.797 138.011 293.641L138.247 293.7V293.759C138.247 293.936 138.365 293.995 138.424 294.054Z" fill="#323A50"/>
<path d="M166.532 300.123C155.336 300.123 144.493 297.943 134.239 293.582C124.339 289.398 115.5 283.447 107.898 275.786C100.296 268.184 94.2856 259.286 90.1016 249.445C85.7999 239.25 83.5605 228.348 83.5605 217.152C83.5605 205.13 86.0945 193.58 90.9856 182.797C95.7588 172.366 102.536 163.173 111.08 155.454C117.68 148.677 117.916 148.323 120.509 145.436L120.921 144.964C121.216 144.611 121.569 144.198 121.982 143.786C125.164 140.132 130.468 134.004 137.893 128.641C147.027 122.1 156.573 118.741 166.296 118.623H166.532C176.314 118.682 185.861 122.041 194.936 128.641C202.361 134.004 207.664 140.132 210.846 143.786C211.259 144.257 211.553 144.611 211.907 144.964C214.736 148.205 214.794 148.264 221.1 154.747C229.939 162.466 236.893 171.718 241.784 182.325C246.852 193.286 249.444 205.013 249.444 217.211C249.444 228.407 247.264 239.25 242.903 249.504C238.719 259.404 232.768 268.243 225.107 275.845C217.505 283.447 208.607 289.457 198.766 293.641C188.63 297.884 177.787 300.123 166.532 300.123ZM166.65 119.802H166.414C144.257 119.979 128.818 137.834 122.984 144.552C122.571 145.023 122.277 145.377 121.923 145.73L121.511 146.202C118.977 149.089 118.682 149.443 112.023 156.279H111.964C94.757 171.777 84.857 193.993 84.857 217.152C84.857 262.232 121.511 298.886 166.591 298.886C211.671 298.886 248.325 262.232 248.325 217.152C248.325 193.58 238.13 171.129 220.393 155.572L220.334 155.513C214.028 148.972 213.969 148.913 211.082 145.672C210.787 145.318 210.434 144.905 210.021 144.493C204.246 137.775 188.807 119.979 166.65 119.802Z" fill="#323A50"/>
<path opacity="0.83" d="M210.374 155.513C212.378 153.391 213.026 151.329 209.962 147.911C204.835 142.136 189.631 122.866 166.531 122.63H166.296C143.196 122.807 127.933 142.136 122.865 147.911C119.86 151.329 121.451 153.863 122.099 155.277C124.044 158.989 126.931 159.638 127.698 159.166C133.06 155.866 135.83 147.204 141.958 145.2C142.135 145.141 150.974 140.957 165.765 140.839C165.824 140.839 175.783 140.78 185.271 143.727C194.051 146.084 199.531 155.395 204.953 158.754C206.662 159.755 208.724 157.163 210.374 155.513Z" fill="url(#paint0_linear_3671_12119)"/>
<path d="M166.297 292.345C124.517 292.345 90.6328 258.461 90.6328 216.68C90.6328 192.048 102.36 170.245 120.569 156.396" fill="#DBDBDB"/>
<path d="M166.237 292.698C155.924 292.698 146.024 290.695 136.654 286.747C127.579 282.916 119.447 277.436 112.494 270.423C105.54 263.411 100.001 255.279 96.1706 246.263C92.2223 236.893 90.2188 226.934 90.2188 216.622C90.2188 204.541 92.9884 192.991 98.4098 182.266C103.596 172.072 111.138 162.997 120.331 156.043L120.803 156.691C101.887 171.07 91.0438 192.932 91.0438 216.622C91.0438 258.107 124.81 291.873 166.296 291.873V292.698H166.237Z" fill="#323A50"/>
<path d="M166.297 286.039C204.635 286.039 235.715 254.96 235.715 216.621C235.715 178.283 204.635 147.204 166.297 147.204C127.958 147.204 96.8789 178.283 96.8789 216.621C96.8789 254.96 127.958 286.039 166.297 286.039Z" fill="#DBDBDB"/>
<path d="M166.296 286.334C147.675 286.334 130.173 279.086 116.973 265.945C103.773 252.745 96.584 235.243 96.584 216.621C96.584 198 103.832 180.498 116.973 167.298C130.173 154.098 147.675 146.909 166.296 146.909C184.918 146.909 202.42 154.157 215.62 167.298C228.82 180.498 236.009 198 236.009 216.621C236.009 235.243 228.761 252.745 215.62 265.945C202.42 279.086 184.918 286.334 166.296 286.334ZM166.296 147.557C128.17 147.557 97.1733 178.554 97.1733 216.68C97.1733 254.807 128.17 285.804 166.296 285.804C204.423 285.804 235.42 254.807 235.42 216.68C235.42 178.554 204.423 147.557 166.296 147.557Z" fill="#323A50"/>
<g opacity="0.1">
<path d="M226.64 244.318L226.169 244.259C225.874 246.616 219.038 249.798 217.565 250.034C216.976 250.152 216.622 249.975 216.269 249.857C215.738 249.68 215.267 249.445 214.324 249.975C212.792 250.918 207.488 256.693 206.31 259.521C205.131 262.35 204.424 263.882 201.713 264.943C200.299 265.532 198.06 265.532 195.703 265.532C193.581 265.532 191.342 265.532 189.633 266.004C187.04 266.711 184.565 267.889 183.387 268.479C184.035 267.771 184.624 267.064 185.213 266.357C186.274 265.12 187.217 264 187.806 263.587C188.572 262.998 191.342 262.762 194.288 262.409C198.237 261.996 202.715 261.525 204.129 260.17C205.662 258.696 207.901 253.098 209.728 248.62C210.67 246.204 211.495 244.141 211.967 243.316C212.497 242.432 213.97 241.43 215.562 240.429C218.213 238.661 221.278 236.598 221.219 234.182H220.747C220.806 236.362 217.86 238.307 215.326 240.016C213.617 241.136 212.144 242.137 211.554 243.08C211.024 243.964 210.199 246.027 209.256 248.443C207.488 252.921 205.249 258.402 203.776 259.816C203.245 260.287 202.244 260.7 200.947 260.995C201.772 260.523 202.833 259.816 203.54 258.873C204.837 257.282 205.956 253.393 206.487 251.271C206.604 250.918 206.663 250.623 206.722 250.387C206.899 249.739 206.663 249.327 206.428 248.914C206.133 248.443 205.838 247.971 206.015 246.793C206.251 245.496 206.958 244.966 207.783 244.436C208.313 244.023 208.844 243.67 209.256 243.021C210.199 241.43 209.61 239.839 209.315 238.955V238.896C209.079 238.307 208.549 238.366 208.137 238.366C207.724 238.425 207.488 238.425 207.37 238.189C207.253 237.954 207.547 237.482 207.901 237.011C208.372 236.304 208.962 235.537 208.608 234.771L208.195 234.948C208.431 235.479 207.96 236.127 207.547 236.716C207.076 237.364 206.722 237.954 207.017 238.425C207.312 238.955 207.842 238.896 208.254 238.837C208.667 238.779 208.844 238.779 208.962 239.014V239.073C209.256 239.898 209.787 241.312 208.962 242.727C208.608 243.257 208.137 243.611 207.606 244.023C206.781 244.612 205.956 245.202 205.662 246.675C205.426 248.03 205.779 248.62 206.133 249.091C206.369 249.445 206.487 249.68 206.369 250.152C206.31 250.329 206.251 250.682 206.133 251.036C205.603 252.921 204.542 256.929 203.245 258.461C201.831 260.229 199.415 261.112 199.179 261.23C197.647 261.466 195.938 261.643 194.288 261.82C191.165 262.173 188.513 262.468 187.629 263.057C186.981 263.529 186.038 264.648 184.978 265.886C182.856 268.361 179.969 271.779 177.965 271.661C176.904 271.602 175.785 271.366 174.606 271.13C172.19 270.659 169.479 270.07 166.592 270.6C160.581 271.72 158.519 272.898 157.34 274.312C156.162 275.668 155.572 277.436 155.572 277.495L155.985 277.671C155.985 277.671 156.574 275.904 157.694 274.607C158.813 273.252 160.817 272.132 166.651 271.071C169.479 270.541 172.131 271.071 174.488 271.602C175.726 271.837 176.845 272.073 177.906 272.191C179.379 272.309 181.147 270.836 182.856 269.009L182.915 269.186C182.974 269.186 186.274 267.3 189.751 266.357C191.46 265.886 193.64 265.886 195.703 265.886C198.119 265.886 200.358 265.886 201.89 265.296C204.719 264.177 205.544 262.468 206.722 259.58C207.842 256.87 213.028 251.154 214.501 250.27C215.208 249.798 215.562 249.975 216.033 250.152C216.445 250.329 216.858 250.505 217.565 250.387C219.274 250.27 226.287 246.97 226.64 244.318Z" fill="#323A50"/>
<path d="M171.188 255.22C170.422 256.045 170.54 257.4 170.658 259.05C170.776 260.582 170.952 262.291 170.245 263.705C168.89 266.475 162.879 268.596 162.82 268.655L162.938 269.127C163.174 269.068 169.185 266.887 170.599 263.941C171.306 262.409 171.188 260.641 171.07 259.05C170.952 257.577 170.835 256.28 171.483 255.632C172.19 254.925 174.724 254.336 176.904 253.864C179.497 253.275 181.677 252.745 182.267 252.037C182.797 251.33 182.915 250.682 182.974 250.093C183.092 249.445 183.151 248.973 183.74 248.561C184.035 248.384 185.567 248.443 187.158 248.561C191.695 248.796 198.531 249.209 200.947 245.85C202.892 243.139 202.244 241.195 201.654 239.427C201.183 238.012 200.77 236.834 201.654 235.361C202.302 234.182 203.54 233.828 204.895 233.357C207.547 232.532 210.788 231.471 212.91 224.695C213.381 223.103 213.145 221.453 212.91 219.921C212.615 217.859 212.261 215.855 213.499 214.028L213.086 213.793C211.731 215.796 212.085 217.977 212.379 220.039C212.615 221.63 212.851 223.162 212.379 224.636C210.376 231.177 207.194 232.178 204.719 233.003C203.245 233.475 202.008 233.887 201.242 235.184C200.299 236.834 200.77 238.248 201.242 239.662C201.831 241.371 202.42 243.139 200.594 245.614C198.295 248.796 191.342 248.384 187.217 248.148C185.626 248.089 184.624 248.03 184.035 248.089C184.27 247.441 184.447 246.557 184.624 245.496C184.919 243.728 185.272 241.725 186.333 240.605C186.863 240.075 187.57 239.839 188.572 239.545C190.87 238.896 194.052 237.953 196.586 231.471V231.412C197.058 229.173 196.527 227.582 195.997 226.698C195.761 226.286 195.29 226.05 194.819 225.873C194.288 225.637 193.699 225.343 193.227 224.636C192.402 223.398 192.049 216.562 192.344 215.207C192.344 215.089 192.402 215.03 192.402 215.03C192.461 214.971 192.756 215.089 192.992 215.148C193.699 215.384 194.936 215.855 196.41 214.795L196.174 214.382C194.877 215.325 193.935 214.971 193.227 214.677C192.815 214.559 192.52 214.441 192.285 214.559C192.167 214.618 192.049 214.795 191.99 215.03C191.754 216.327 191.99 223.339 192.933 224.812C193.463 225.578 194.17 225.932 194.701 226.168C195.113 226.345 195.467 226.521 195.644 226.816C196.115 227.641 196.586 229.114 196.174 231.236C193.758 237.482 190.694 238.366 188.513 239.014C187.511 239.309 186.686 239.545 186.097 240.193C184.977 241.43 184.624 243.493 184.27 245.32C184.094 246.557 183.858 247.677 183.504 248.148C182.856 248.62 182.738 249.268 182.62 249.916C182.502 250.505 182.444 251.036 181.972 251.684C181.501 252.332 179.085 252.862 176.904 253.334C174.311 253.923 171.954 254.453 171.188 255.22Z" fill="#323A50"/>
<path d="M171.836 208.843C172.425 209.491 172.896 209.962 172.602 211.377C172.425 212.32 171.895 213.675 171.305 215.089C170.303 217.623 169.302 220.275 169.773 221.454C170.009 222.043 170.362 222.455 170.716 222.868C171.423 223.693 172.189 224.636 171.836 227.229C171.541 229.35 170.421 231 169.478 232.296C168.712 233.475 168.005 234.477 168.123 235.42C168.182 236.186 168.595 236.716 169.007 237.187C169.714 238.071 170.48 239.014 169.478 241.371C168.712 243.198 167.652 243.611 166.827 244.023C165.943 244.436 165.118 244.789 165.412 246.498C165.707 248.325 166.886 249.562 168.005 250.682C168.83 251.507 169.655 252.391 170.186 253.511L170.598 253.334C170.009 252.155 169.184 251.271 168.3 250.387C167.18 249.268 166.12 248.148 165.825 246.498C165.589 245.143 166.061 244.907 167.003 244.495C167.887 244.082 169.066 243.611 169.891 241.607C171.011 239.014 170.127 237.895 169.302 236.952C168.889 236.421 168.536 236.009 168.477 235.42C168.418 234.654 169.007 233.711 169.773 232.591C170.716 231.236 171.836 229.527 172.189 227.287C172.661 224.459 171.777 223.398 171.011 222.514C170.657 222.102 170.362 221.748 170.186 221.218C169.773 220.157 170.834 217.564 171.718 215.207C172.307 213.793 172.837 212.379 173.014 211.377C173.368 209.727 172.778 209.079 172.13 208.43C171.718 207.959 171.246 207.546 171.07 206.604L170.598 206.721C170.893 207.782 171.423 208.312 171.836 208.843Z" fill="#323A50"/>
<path d="M174.193 272.368C172.602 271.602 168.654 271.248 166.179 271.72C163.822 272.132 159.697 273.075 158.106 274.843C157.222 275.845 156.338 277.789 156.338 277.848L156.75 278.025C156.75 278.025 157.575 276.08 158.459 275.138C159.991 273.429 164.47 272.486 166.297 272.191C168.89 271.72 172.661 272.191 174.016 272.839C175.49 273.546 176.02 274.607 176.079 275.138C176.256 276.788 173.545 278.261 173.545 278.261L173.722 278.673C173.84 278.614 176.786 277.082 176.491 275.079C176.433 274.254 175.725 273.075 174.193 272.368Z" fill="#323A50"/>
<path d="M175.43 243.905C176.255 244.2 177.08 244.553 177.611 245.319C178.259 246.203 179.555 248.502 177.788 250.505C177.08 251.33 175.313 251.978 173.604 252.568C171.895 253.157 170.363 253.746 169.832 254.512C169.302 255.337 169.361 256.752 169.538 258.402C169.655 259.875 169.714 261.348 169.42 262.586C168.713 265.002 162.643 267.889 162.584 267.948L162.761 268.361C162.996 268.243 169.066 265.355 169.832 262.762C170.186 261.466 170.068 259.875 169.95 258.461C169.832 256.987 169.773 255.573 170.186 254.925C170.598 254.277 172.189 253.687 173.721 253.157C175.489 252.509 177.257 251.861 178.082 250.918C179.438 249.327 179.379 247.264 177.905 245.143C177.316 244.318 176.373 243.905 175.548 243.611C174.723 243.257 173.957 242.962 173.604 242.196C172.896 240.664 173.427 238.955 174.37 238.366C174.605 238.189 174.9 238.071 175.136 237.894C175.961 237.364 176.845 236.893 177.905 235.714C179.32 234.182 181.913 227.994 182.443 224.989C182.738 223.221 182.266 222.455 181.736 221.63C181.323 220.982 180.911 220.334 180.793 219.037L180.321 219.096C180.439 220.452 180.911 221.218 181.323 221.866C181.795 222.632 182.207 223.339 181.971 224.93C181.5 227.877 178.966 233.946 177.552 235.419C176.55 236.539 175.666 237.011 174.9 237.482C174.664 237.659 174.37 237.777 174.134 237.953C173.014 238.661 172.366 240.664 173.191 242.373C173.604 243.198 174.488 243.552 175.43 243.905Z" fill="#323A50"/>
</g>
<g opacity="0.1">
<path d="M155.395 270.541C155.218 269.304 153.804 268.361 152.39 267.359C151.27 266.593 149.62 265.65 148.088 264.825C146.791 264.118 145.613 263.47 145.2 263.116C145.082 263.057 144.965 262.88 144.847 262.704C144.14 261.584 143.609 258.873 143.727 256.693C143.786 255.455 143.668 254.513 143.609 253.746C143.491 252.921 143.432 252.332 143.668 251.802C143.845 251.389 144.14 251.33 144.611 251.271C145.082 251.213 145.731 251.095 145.966 250.329C146.202 249.68 146.084 248.973 146.025 248.266C145.966 247.559 145.848 246.97 146.143 246.498C146.438 246.086 146.732 245.968 147.086 245.85C147.498 245.673 147.97 245.496 148.382 244.907C148.736 244.377 148.265 243.67 147.675 242.845C146.791 241.607 145.613 239.898 146.143 237.718C146.673 235.42 147.381 235.538 148.382 235.655C148.854 235.714 149.443 235.832 149.973 235.596C150.916 235.243 151.8 233.18 152.684 231.059C153.391 229.409 154.098 227.7 154.688 227.229C155.395 226.698 155.984 226.58 156.573 226.463C157.163 226.345 157.693 226.286 158.106 225.696C158.636 225.048 158.341 224.164 158.106 223.398C157.988 222.927 157.811 222.455 157.929 222.22L157.516 221.984C157.34 222.396 157.457 222.868 157.634 223.516C157.811 224.164 158.047 224.93 157.693 225.402C157.398 225.814 156.986 225.873 156.397 225.991C155.807 226.109 155.1 226.227 154.334 226.816C153.627 227.346 152.92 229.055 152.154 230.823C151.388 232.709 150.504 234.83 149.738 235.125C149.266 235.302 148.795 235.243 148.323 235.184C147.263 235.066 146.202 234.889 145.554 237.6C145.023 239.957 146.261 241.784 147.145 243.08C147.616 243.788 148.029 244.377 147.852 244.671C147.557 245.143 147.204 245.261 146.791 245.438C146.379 245.555 145.966 245.732 145.613 246.263C145.2 246.852 145.318 247.618 145.436 248.325C145.554 248.973 145.613 249.621 145.436 250.152C145.259 250.682 144.847 250.741 144.375 250.8C143.904 250.859 143.373 250.918 143.079 251.625C142.843 252.273 142.902 252.921 143.02 253.805C143.138 254.571 143.197 255.455 143.138 256.634C143.02 257.989 143.197 259.639 143.55 260.995C142.548 259.404 141.252 256.811 141.075 254.336C140.898 252.273 141.311 251.507 141.841 250.446C142.372 249.386 143.02 248.089 143.55 245.202C144.257 241.077 142.431 237.188 141.252 235.184C141.37 234.771 142.195 232.002 144.375 231.236L145.495 230.823C147.557 230.116 149.384 229.468 150.327 228.938C151.565 228.289 152.566 226.168 152.743 224.871C152.861 224.105 152.507 223.634 152.154 223.221C151.859 222.809 151.565 222.455 151.565 221.866C151.623 221.336 152.39 220.805 153.273 220.275C154.511 219.45 156.102 218.389 156.75 216.68C157.516 214.618 156.75 213.675 156.102 212.85C155.807 212.438 155.454 212.084 155.336 211.554L154.923 211.671C155.041 212.261 155.454 212.732 155.748 213.145C156.397 213.97 156.986 214.677 156.338 216.563C155.748 218.154 154.275 219.155 153.038 219.98C151.977 220.688 151.211 221.218 151.152 221.925C151.093 222.75 151.447 223.221 151.8 223.634C152.095 224.046 152.39 224.341 152.272 224.93C152.036 226.286 151.034 228.171 150.091 228.643C149.148 229.114 147.322 229.763 145.318 230.47L144.198 230.882C142.195 231.589 141.252 233.77 140.957 234.771C140.545 234.182 140.309 233.829 140.25 233.829C140.191 233.77 136.066 229.939 134.181 227.052C132.295 224.105 132.354 221.689 133.356 220.864C133.886 220.393 134.947 220.334 136.184 220.275C137.363 220.216 138.659 220.157 139.779 219.745C141.547 219.096 142.784 216.563 143.138 215.796C143.668 214.677 144.14 213.204 143.845 212.496C143.373 211.2 141.429 210.788 141.311 210.729L141.252 211.2C141.252 211.2 143.079 211.613 143.432 212.614C143.55 213.027 143.373 214.146 142.725 215.561C142.077 217.034 140.898 218.802 139.602 219.214C138.482 219.627 137.245 219.686 136.125 219.745C134.829 219.804 133.65 219.863 133.002 220.393C131.882 221.336 131.647 223.87 133.768 227.17C135.595 229.998 139.661 233.77 139.897 234.005C140.132 234.3 144.081 239.427 143.079 245.084C142.607 247.913 141.959 249.209 141.429 250.211C141.311 250.446 141.193 250.682 141.075 250.918C140.545 249.504 140.604 248.679 140.663 248.03C140.722 247.088 140.663 246.557 139.366 245.791C137.657 244.73 134.416 244.554 132.236 244.436C131.352 244.377 130.645 244.318 130.291 244.259C128.936 243.964 128.229 243.316 127.875 242.138C127.581 241.136 127.816 240.841 128.288 240.311C128.406 240.193 128.523 240.016 128.7 239.839C128.877 239.604 129.231 239.368 129.584 239.191C130.409 238.72 131.529 238.071 131.411 236.421C131.352 235.007 130.468 234.536 129.466 234.005C128.818 233.711 128.17 233.357 127.698 232.65C126.461 231 124.988 226.227 124.752 223.693C124.457 220.805 124.988 215.384 125.459 215.03C125.636 214.971 126.402 215.325 126.991 215.62C128.111 216.15 129.466 216.798 130.468 216.563C130.645 216.504 130.763 216.504 130.94 216.445C132.177 216.15 132.295 216.032 132.236 214.854C132.177 213.97 131.529 213.852 130.998 213.793C130.586 213.734 130.291 213.675 130.056 213.38C129.584 212.791 129.761 210.552 129.82 209.786L129.348 209.727C129.29 210.021 128.995 212.85 129.643 213.675C129.938 214.088 130.468 214.146 130.881 214.205C131.47 214.323 131.706 214.382 131.765 214.854C131.823 215.325 131.823 215.561 131.706 215.679C131.588 215.796 131.293 215.855 130.822 215.973C130.704 216.032 130.527 216.032 130.35 216.091C129.525 216.268 128.229 215.679 127.168 215.207C126.225 214.736 125.636 214.5 125.282 214.618C124.34 214.971 124.045 221.513 124.222 223.752C124.457 226.463 125.931 231.236 127.286 232.945C127.816 233.652 128.582 234.064 129.172 234.418C130.056 234.889 130.763 235.243 130.881 236.421C130.94 237.777 130.115 238.248 129.29 238.779C128.877 239.014 128.523 239.25 128.288 239.545C128.17 239.721 128.052 239.839 127.934 240.016C127.463 240.546 127.109 241.018 127.463 242.255C127.875 243.611 128.7 244.377 130.232 244.73C130.527 244.789 130.94 244.848 131.529 244.848C131.175 245.084 130.822 245.084 130.409 245.084C129.997 245.084 129.525 245.025 129.054 245.379C128.288 245.909 128.759 246.793 129.113 247.441C129.231 247.736 129.407 248.03 129.407 248.207C129.407 248.325 129.348 248.443 129.231 248.561C128.995 248.738 128.523 248.796 127.875 248.738C127.168 248.62 126.166 247.559 125.636 246.911C125.4 246.675 125.223 246.439 125.106 246.38C124.87 246.204 124.516 246.204 124.222 246.263C123.868 246.321 123.456 246.321 123.102 246.086C122.925 245.968 122.807 245.732 122.748 245.438C122.69 244.907 122.925 244.318 123.043 244.141C123.102 244.082 123.279 244.082 123.515 244.082C123.809 244.082 124.163 244.082 124.457 243.846C124.929 243.434 125.106 242.786 125.047 241.784C124.988 241.195 124.516 241.195 124.104 241.195C123.632 241.195 123.102 241.136 122.866 240.488C122.69 240.016 122.925 239.545 123.279 238.955C123.809 238.071 124.457 236.952 123.515 235.302C122.454 233.357 121.275 233.534 120.45 233.711C120.156 233.77 119.861 233.829 119.684 233.77C119.507 233.711 119.39 233.593 119.39 233.534C119.331 233.357 119.448 233.18 119.507 233.121L119.154 232.886C119.154 232.945 118.859 233.298 118.977 233.711C119.036 233.946 119.213 234.182 119.566 234.3C119.861 234.418 120.215 234.359 120.568 234.3C121.334 234.182 122.277 234.005 123.161 235.655C123.927 237.07 123.397 237.954 122.925 238.838C122.572 239.486 122.218 240.075 122.454 240.723C122.807 241.666 123.573 241.666 124.104 241.666C124.575 241.666 124.634 241.725 124.634 241.843C124.693 242.668 124.575 243.257 124.222 243.552C124.045 243.67 123.809 243.67 123.573 243.67C123.279 243.67 122.984 243.67 122.748 243.905C122.513 244.141 122.218 244.848 122.336 245.555C122.395 245.968 122.572 246.321 122.866 246.557C123.397 246.911 123.927 246.852 124.281 246.852C124.575 246.852 124.752 246.793 124.87 246.911C124.988 246.97 125.106 247.205 125.341 247.441C125.99 248.148 127.05 249.327 127.875 249.445C127.875 249.445 127.875 249.445 127.934 249.445C128.7 249.563 129.29 249.445 129.643 249.15C129.82 248.973 129.938 248.738 129.938 248.443C129.938 248.148 129.761 247.854 129.584 247.5C129.231 246.793 128.995 246.321 129.407 246.027C129.702 245.791 130.056 245.791 130.468 245.791C130.998 245.791 131.647 245.85 132.177 245.143C132.236 245.143 132.295 245.143 132.295 245.143C134.416 245.261 137.657 245.438 139.248 246.439C140.368 247.146 140.368 247.5 140.309 248.325C140.25 249.091 140.191 250.093 140.957 251.861C140.722 252.568 140.604 253.393 140.722 254.748C141.016 258.814 144.198 262.998 144.434 263.293C144.552 263.47 144.729 263.646 144.847 263.764C145.318 264.118 146.438 264.766 147.793 265.532C149.266 266.357 150.975 267.3 152.036 268.066C153.332 268.95 154.688 269.952 154.865 270.954C154.923 271.425 154.806 271.896 154.334 272.486C152.802 274.548 150.798 281.855 150.74 282.091L151.211 282.15C151.27 281.679 153.215 274.666 154.688 272.721C155.336 271.779 155.513 271.189 155.395 270.541Z" fill="#323A50"/>
<path d="M152.272 272.427C151.624 270.188 148.442 267.83 147.381 267.123C145.083 265.709 139.897 265.414 137.481 265.945C136.361 266.18 135.595 266.534 134.888 266.888C134.122 267.241 133.474 267.595 132.59 267.595C130.763 267.595 129.761 267.83 128.936 268.479C128.76 268.596 128.701 268.773 128.701 268.891C128.701 269.245 128.995 269.598 129.408 269.952C129.702 270.188 130.115 270.6 130.056 270.777C130.056 270.895 129.938 270.954 129.82 271.013C128.642 271.661 127.699 270.777 127.699 270.718L127.404 271.013C127.404 271.013 128.583 272.191 130.056 271.425C130.351 271.248 130.469 271.071 130.528 270.836C130.586 270.364 130.115 270.011 129.761 269.598C129.526 269.363 129.172 269.068 129.172 268.891L129.231 268.832C129.997 268.243 130.94 268.066 132.649 268.066C133.651 268.066 134.358 267.713 135.183 267.3C135.831 267.005 136.597 266.593 137.658 266.416C139.956 265.945 145.083 266.239 147.263 267.536C148.56 268.302 151.388 270.6 151.978 272.545C152.095 273.075 151.86 274.018 151.506 274.784C149.738 278.85 149.149 281.796 149.149 281.855L149.561 281.914C149.561 281.914 150.151 279.027 151.86 274.961C152.036 274.489 152.508 273.252 152.272 272.427Z" fill="#323A50"/>
<path d="M153.332 272.073C153.215 271.248 152.39 270.364 152.095 270.011C152.036 269.952 152.036 269.952 152.036 269.952C150.386 268.007 147.97 266.121 146.438 265.532C145.966 265.355 145.436 265.238 144.788 265.12C142.254 263.882 139.72 263.411 137.363 262.939C136.066 262.704 134.711 262.409 133.415 262.055C129.879 260.995 123.868 255.043 123.574 254.807C123.397 254.571 119.331 249.386 118.918 247.618C118.741 246.852 117.857 242.963 117.445 241.902C117.032 240.959 111.906 239.25 110.904 238.955C108.429 238.838 104.775 238.602 104.422 238.366C104.009 238.071 103.538 236.657 103.656 236.068C103.656 235.832 103.95 235.655 104.245 235.479C104.716 235.184 105.247 234.771 105.365 234.064C105.424 233.534 105.07 232.002 104.422 229.468C103.832 227.052 103.066 223.811 103.243 223.221C103.42 222.691 103.774 222.632 104.068 222.514C104.363 222.455 104.775 222.338 104.893 221.807C104.952 221.63 104.834 221.513 104.775 221.395C104.54 221.159 104.009 221.159 103.302 221.218C102.595 221.277 101.711 221.336 101.299 220.982L101.004 221.336C101.534 221.807 102.477 221.748 103.302 221.689C103.715 221.689 104.304 221.63 104.422 221.748C104.363 221.984 104.304 221.984 103.95 222.102C103.597 222.22 103.066 222.338 102.772 223.045C102.536 223.693 103.066 226.05 103.95 229.527C104.422 231.471 104.893 233.534 104.834 234.005C104.775 234.536 104.304 234.83 103.891 235.125C103.479 235.361 103.125 235.655 103.066 236.068C102.949 236.775 103.479 238.366 104.009 238.779C104.481 239.132 109.195 239.368 110.727 239.427C113.615 240.37 116.797 241.666 116.974 242.138C117.268 242.963 117.916 245.555 118.388 247.795C118.8 249.68 122.984 254.925 123.102 255.161C123.338 255.396 129.407 261.466 133.12 262.586C134.475 262.998 135.831 263.234 137.127 263.47C139.013 263.823 141.016 264.236 143.02 265.002C141.9 264.884 140.722 264.825 139.543 264.707C138.6 264.648 137.657 264.589 136.891 264.471C131.352 263.882 128.229 263.057 126.225 261.643C123.986 260.052 117.15 254.1 116.62 253.393C116.325 252.98 116.207 252.568 116.031 252.038C115.913 251.625 115.795 251.154 115.559 250.623C114.734 248.738 111.493 246.616 109.077 245.143C107.84 244.377 106.779 243.67 106.543 243.316C106.19 242.786 106.307 242.432 106.484 241.961C106.602 241.666 106.779 241.254 106.779 240.782H106.307C106.307 241.195 106.19 241.489 106.072 241.784C105.836 242.314 105.659 242.786 106.131 243.552C106.425 243.964 107.427 244.613 108.782 245.496C111.081 246.97 114.263 248.973 115.029 250.8C115.265 251.271 115.382 251.743 115.5 252.155C115.677 252.745 115.795 253.216 116.149 253.688C116.738 254.395 123.574 260.464 125.872 262.055C127.934 263.529 131.116 264.354 136.715 265.002C137.422 265.061 138.365 265.12 139.366 265.238C141.841 265.414 144.611 265.65 146.025 266.121C147.499 266.652 149.856 268.479 151.447 270.364C151.447 270.364 151.506 270.423 151.506 270.482C151.741 270.777 152.566 271.661 152.625 272.309C152.684 272.957 152.272 274.195 151.624 275.904C151.034 277.495 150.268 279.557 149.62 282.032L150.032 282.15C150.681 279.675 151.388 277.671 152.036 276.08C152.979 274.077 153.391 272.839 153.332 272.073Z" fill="#323A50"/>
<path d="M106.425 209.609C106.366 209.962 106.012 210.493 105.6 211.082C104.893 212.202 104.068 213.38 104.539 214.382C104.834 214.912 105.482 215.384 106.366 215.914C107.898 216.916 109.784 218.212 110.55 220.511C111.787 224.164 114.911 230.764 114.97 230.823V230.882C115.029 230.941 118.859 236.127 117.504 241.136L117.916 241.254C119.271 236.127 115.618 231 115.323 230.587C115.323 230.529 115.205 230.352 115.087 230.116C115.618 229.998 116.796 229.645 117.562 228.643C118.152 227.877 118.387 226.875 118.27 225.696C118.034 223.634 117.032 221.748 116.148 220.039C115.382 218.566 114.734 217.329 114.852 216.445C114.911 215.679 115.382 215.561 115.971 215.325C116.679 215.148 117.562 214.854 117.739 213.321C117.916 211.73 116.796 211.023 115.854 210.434C115.146 209.962 114.675 209.668 114.734 209.137C114.852 207.664 116.914 205.661 116.973 205.602L116.679 205.307C116.62 205.366 114.498 207.487 114.321 209.137C114.262 209.962 114.97 210.434 115.677 210.846C116.561 211.377 117.504 211.966 117.327 213.321C117.209 214.559 116.561 214.736 115.912 214.912C115.264 215.089 114.557 215.325 114.498 216.386C114.439 217.446 115.087 218.684 115.854 220.216C116.679 221.866 117.68 223.752 117.916 225.696C118.034 226.757 117.857 227.641 117.327 228.348C116.561 229.291 115.382 229.645 114.97 229.704C114.086 227.759 111.964 223.162 111.021 220.334C110.196 217.859 108.134 216.504 106.602 215.502C105.836 214.971 105.129 214.559 104.893 214.087C104.48 213.38 105.246 212.261 105.895 211.259C106.366 210.611 106.72 210.021 106.779 209.609C106.837 208.961 106.248 208.018 105.482 206.957C104.834 205.955 104.068 204.836 103.95 204.07L103.479 204.129C103.596 205.012 104.362 206.132 105.07 207.252C105.836 208.195 106.484 209.137 106.425 209.609Z" fill="#323A50"/>
<path d="M150.681 273.959C150.15 272.721 148.559 271.719 147.44 271.012C146.968 270.718 146.615 270.482 146.438 270.305C146.261 270.128 146.261 269.952 146.202 269.775C146.084 269.244 145.907 268.832 144.788 268.361C143.079 267.653 139.013 267.3 137.657 268.184C137.127 268.537 137.068 268.95 137.068 269.303C137.186 270.246 138.306 271.071 139.366 271.425C140.073 271.661 140.132 272.368 140.191 273.193C140.25 273.841 140.309 274.489 140.781 274.902C141.075 275.137 141.252 275.373 141.193 275.55C141.134 275.786 140.722 276.08 139.838 276.198C138.541 276.316 136.538 275.786 136.538 275.786L136.42 276.257C136.479 276.257 138.482 276.787 139.897 276.669C140.899 276.552 141.547 276.198 141.665 275.727C141.782 275.314 141.547 274.902 141.075 274.548C140.781 274.312 140.722 273.782 140.663 273.193C140.604 272.427 140.545 271.366 139.543 271.071C138.482 270.718 137.599 269.952 137.54 269.303C137.54 269.068 137.657 268.832 137.893 268.655C139.072 267.948 142.843 268.184 144.611 268.891C145.613 269.303 145.672 269.657 145.79 270.011C145.849 270.246 145.907 270.541 146.202 270.777C146.379 270.953 146.791 271.248 147.263 271.543C148.324 272.191 149.856 273.252 150.327 274.312C150.681 275.078 150.268 275.903 149.738 277.082C149.266 278.202 148.618 279.557 148.382 281.384L148.854 281.443C149.09 279.675 149.679 278.319 150.209 277.259C150.681 275.844 151.093 274.902 150.681 273.959Z" fill="#323A50"/>
</g>
<g opacity="0.34">
<path d="M166.472 283.741C203.834 283.741 234.122 253.585 234.122 216.386C234.122 179.186 203.834 149.03 166.472 149.03C129.11 149.03 98.8223 179.186 98.8223 216.386C98.8223 253.585 129.11 283.741 166.472 283.741Z" fill="url(#paint1_radial_3671_12119)"/>
<path d="M166.178 284.33C148.028 284.33 130.998 277.318 118.21 264.53C105.423 251.802 98.3516 234.83 98.3516 216.798C98.3516 198.766 105.423 181.795 118.21 169.066C130.998 156.338 148.087 149.266 166.178 149.266C184.269 149.266 201.359 156.279 214.146 169.066C226.934 181.795 234.005 198.766 234.005 216.798C234.005 234.83 226.934 251.802 214.146 264.53C201.359 277.318 184.328 284.33 166.178 284.33ZM166.178 149.62C128.994 149.62 98.7051 179.732 98.7051 216.739C98.7051 253.746 128.935 283.918 166.178 283.918C203.362 283.918 233.652 253.805 233.652 216.798C233.652 179.791 203.362 149.62 166.178 149.62Z" fill="#323A50"/>
</g>
<path d="M166.827 142.077C153.332 142.077 142.902 150.68 141.782 165.53C141.723 166.237 141.841 166.12 141.841 165.589C141.841 160.05 152.802 157.162 166.296 157.162C179.791 157.162 190.752 159.991 190.752 165.589C190.752 166.002 190.752 166.061 190.811 165.648C190.987 152.566 180.321 142.077 166.827 142.077Z" fill="#293C4F"/>
<path d="M148.794 150.563C148.794 150.68 148.676 149.914 148.735 149.089C148.794 148.5 148.971 147.793 149.265 147.263C149.56 146.732 149.913 146.202 150.385 145.73C150.385 145.73 150.444 145.73 150.444 145.671C153.213 142.843 159.047 140.957 165.824 140.957C175.253 140.957 182.972 144.611 182.972 149.266C182.972 149.266 182.972 149.855 182.913 150.268C182.854 151.034 182.56 151.741 182.088 152.389L205.012 158.636C205.012 158.164 205.012 159.107 205.012 157.339C205.012 145.907 187.628 136.596 166.178 136.596C144.728 136.596 127.344 145.907 127.344 157.339C127.344 157.988 127.403 158.695 127.521 159.343L150.09 152.625C149.619 152.213 148.912 151.211 148.794 150.563Z" fill="#DBDBDB"/>
<path d="M127.167 159.991L127.108 159.52C126.991 158.812 126.932 158.164 126.932 157.457C126.932 151.741 131.057 146.437 138.541 142.43C145.907 138.482 155.748 136.302 166.178 136.302C176.608 136.302 186.45 138.482 193.816 142.43C201.299 146.437 205.424 151.741 205.424 157.457C205.424 157.987 205.424 158.282 205.424 158.459C205.424 158.518 205.424 158.577 205.424 158.636H205.366C205.366 158.636 205.307 158.695 205.307 158.754V159.284L181.382 152.684L181.735 152.212C182.207 151.564 182.442 150.916 182.501 150.268C182.56 149.796 182.56 149.266 182.56 149.266C182.56 144.905 175.076 141.37 165.824 141.37C159.401 141.37 153.508 143.196 150.739 145.966L150.68 146.025C150.208 146.496 149.914 146.968 149.619 147.439C149.383 147.911 149.148 148.559 149.089 149.089C149.03 149.62 149.089 150.15 149.089 150.327V150.445C149.207 150.857 149.56 151.505 150.267 152.507L150.562 152.979L127.167 159.991ZM166.178 137.127C144.964 137.127 127.757 146.261 127.757 157.457C127.757 157.929 127.816 158.4 127.874 158.93L149.442 152.507C149.03 151.859 148.617 151.211 148.499 150.68C148.323 150.209 148.441 149.03 148.441 149.03C148.499 148.382 148.735 147.675 149.03 147.086C149.324 146.555 149.737 145.966 150.208 145.495L150.267 145.436C153.214 142.43 159.224 140.604 165.942 140.604C170.598 140.604 174.899 141.487 178.2 143.079C181.558 144.729 183.444 146.968 183.444 149.325C183.444 149.384 183.444 149.914 183.385 150.386C183.326 151.034 183.149 151.623 182.796 152.271L204.658 158.282C204.658 158.105 204.658 157.87 204.658 157.516C204.599 146.261 187.333 137.127 166.178 137.127Z" fill="#323A50"/>
<path opacity="0.52" d="M165.883 143.137C174.664 143.137 181.912 146.379 182.914 150.504C182.973 150.209 183.032 149.855 183.032 149.502C183.032 144.846 175.371 141.075 165.883 141.075C156.396 141.075 148.735 144.846 148.735 149.502C148.735 149.679 148.676 149.973 148.735 150.091C148.735 150.15 148.735 150.857 149.089 151.859C149.266 152.389 149.914 152.625 149.973 152.507C148.912 151.211 148.912 150.209 148.971 150.091C150.326 146.202 157.398 143.137 165.883 143.137Z" fill="url(#paint2_linear_3671_12119)"/>
<path d="M165.883 144.139C174.604 144.139 181.145 147.911 182.147 152.625C183.031 151.27 182.972 150.15 182.972 149.855C182.972 145.2 175.312 141.193 165.883 141.193C156.454 141.193 148.735 144.611 148.676 149.973C148.676 150.327 148.97 152.625 149.913 152.625C149.913 147.263 157.103 144.139 165.883 144.139Z" fill="#DBDBDB"/>
<path d="M181.971 153.686L181.794 152.743C180.733 148.029 174.074 144.611 165.883 144.611C159.755 144.611 154.628 146.143 152.035 148.736C150.857 149.914 150.326 151.211 150.326 152.684V153.096H149.914C149.737 153.096 149.442 153.037 149.148 152.743C148.44 151.977 148.264 150.268 148.264 150.032C148.323 147.321 150.208 144.964 153.567 143.314C156.749 141.782 161.11 140.898 165.824 140.898C170.421 140.898 174.782 141.841 178.082 143.55C181.44 145.259 183.326 147.557 183.326 149.973V150.032C183.326 150.445 183.326 151.623 182.442 152.979L181.971 153.686ZM165.883 141.605C156.219 141.605 149.148 145.141 149.089 149.973C149.089 150.209 149.265 151.27 149.56 151.859C149.737 150.504 150.326 149.207 151.446 148.087C154.157 145.377 159.519 143.727 165.824 143.727C170.067 143.727 173.957 144.611 177.021 146.261C179.614 147.616 181.44 149.502 182.207 151.564C182.501 150.798 182.501 150.209 182.501 149.914V149.855C182.56 145.377 174.899 141.605 165.883 141.605Z" fill="#323A50"/>
<path d="M162.171 283.8C126.991 281.62 98.9994 252.332 98.9994 216.621C98.9994 201.771 103.714 187.746 112.671 175.961L112.199 175.607C103.183 187.511 98.4102 201.654 98.4102 216.621C98.4102 234.771 105.482 251.802 118.328 264.648C129.819 276.139 144.728 283.034 160.816 284.33C161.228 284.154 161.817 284.095 162.171 283.8Z" fill="#323A50"/>
<path d="M228.761 189.986C226.521 184.8 223.634 179.909 220.157 175.312L219.686 175.666C223.221 180.263 226.109 185.271 228.348 190.516C228.466 190.28 228.584 190.104 228.761 189.986Z" fill="#323A50"/>
<path d="M150.032 152.625L150.091 155.807L133.885 161.759C133.296 161.995 133.296 162.82 133.885 163.055L133.944 163.114L135.064 163.586C135.418 163.704 135.359 164.234 135.005 164.293L132.707 164.764H132.589C131.528 165 131.41 166.414 132.412 166.827L134.71 167.829C135.123 168.005 135.064 168.595 134.652 168.713C132.589 169.184 128.346 170.245 122.218 172.543C101.828 180.616 92.1641 203.186 92.1641 203.186C92.1641 203.186 94.1087 192.52 97.5855 185.213C99.8247 180.557 103.36 173.25 110.609 165.177C115.441 159.814 122.041 154.982 122.041 154.982C122.041 154.982 124.339 160.109 127.816 158.989C130.527 157.575 145.789 152.095 150.032 152.625Z" fill="#DBDBDB"/>
<path d="M90.9863 206.663L91.6345 203.127C91.6345 203.009 93.6381 192.343 97.1149 185.095C99.2952 180.616 102.89 173.073 110.256 164.941C115.088 159.638 121.688 154.746 121.747 154.688L122.16 154.393L122.336 154.864C122.336 154.923 124.163 158.813 126.815 158.813C127.051 158.813 127.345 158.754 127.64 158.695C130.351 157.398 144.493 152.271 149.443 152.271C149.679 152.271 149.915 152.271 150.092 152.33L150.445 152.389L150.504 156.22L134.004 162.054C133.827 162.113 133.827 162.23 133.827 162.289C133.827 162.348 133.827 162.466 134.004 162.525L135.183 162.996C135.477 163.114 135.713 163.468 135.654 163.763C135.595 164.116 135.36 164.411 135.006 164.47L132.531 165C132.177 165.059 132.001 165.354 132.001 165.589C132.001 165.825 132.06 166.12 132.413 166.296L134.711 167.298C135.065 167.475 135.242 167.77 135.242 168.182C135.183 168.595 134.947 168.889 134.593 168.948C132.59 169.42 128.347 170.48 122.218 172.779C111.788 176.904 104.245 184.977 99.7667 190.988C94.8756 197.529 92.4595 203.127 92.4006 203.186L90.9863 206.663ZM121.865 155.571C120.392 156.691 114.97 160.934 110.904 165.471C103.656 173.486 100.061 180.97 97.9399 185.389C95.7006 190.104 94.0506 196.35 93.1667 200.063C94.4042 197.764 96.4077 194.346 99.1774 190.634C103.715 184.505 111.376 176.373 122.042 172.13C128.229 169.832 132.531 168.771 134.535 168.3C134.535 168.3 134.593 168.3 134.593 168.241C134.593 168.182 134.593 168.182 134.535 168.182L132.236 167.18C131.647 166.945 131.293 166.296 131.352 165.648C131.411 165 131.883 164.47 132.531 164.352L134.888 163.821L133.768 163.35C133.356 163.173 133.061 162.761 133.12 162.289C133.12 161.818 133.415 161.464 133.827 161.288L149.738 155.454V152.92C149.679 152.92 149.62 152.92 149.502 152.92C144.67 152.92 130.645 157.988 128.052 159.225H127.993C127.64 159.343 127.286 159.402 126.933 159.402C124.222 159.52 122.454 156.691 121.865 155.571Z" fill="#323A50"/>
<path d="M166.238 292.698V291.873C207.724 291.873 241.549 258.107 241.549 216.622C241.549 192.873 230.706 171.011 211.79 156.691L212.262 156.043C221.395 162.997 228.997 172.072 234.183 182.266C239.604 192.991 242.374 204.541 242.374 216.622C242.374 226.875 240.37 236.834 236.422 246.263C232.592 255.338 227.112 263.47 220.099 270.423C213.087 277.377 204.954 282.916 195.879 286.747C186.51 290.695 176.551 292.698 166.238 292.698Z" fill="#323A50"/>
<path d="M182.149 152.625L182.09 155.807L198.708 161.346C199.297 161.582 199.297 162.407 198.708 162.643H198.59L197.47 163.114C197.117 163.232 197.176 163.762 197.529 163.821L199.827 164.293H199.945C201.006 164.528 201.124 165.943 200.122 166.355L197.824 167.357C197.411 167.534 197.47 168.123 197.883 168.241C199.945 168.712 204.188 169.773 210.317 172.071C230.706 180.145 240.311 202.243 240.311 202.243C240.311 202.243 238.367 192.048 234.89 184.741C232.651 180.086 229.115 172.779 221.867 164.705C217.034 159.343 210.081 155.218 210.081 155.218C210.081 155.218 208.136 159.637 204.659 158.518C202.008 157.162 186.333 152.154 182.149 152.625Z" fill="#DBDBDB"/>
<path d="M241.549 205.72L240.135 202.42C240.135 202.361 237.66 196.88 232.827 190.398C228.349 184.505 220.806 176.55 210.376 172.425C204.247 170.186 200.004 169.066 198.001 168.653C197.647 168.595 197.352 168.241 197.352 167.887C197.293 167.475 197.529 167.18 197.883 167.003L200.181 166.002C200.535 165.884 200.652 165.53 200.593 165.295C200.593 165.059 200.417 164.764 200.063 164.705L197.588 164.175C197.235 164.116 196.999 163.821 196.94 163.468C196.881 163.114 197.117 162.82 197.411 162.702L198.59 162.23C198.767 162.171 198.767 162.053 198.767 161.995C198.767 161.936 198.767 161.818 198.59 161.759L181.736 156.161L181.795 152.33L182.149 152.271C182.326 152.271 182.62 152.212 182.856 152.212C187.865 152.212 202.243 156.868 205.013 158.164C205.308 158.282 205.661 158.282 205.956 158.282C208.431 158.282 209.904 155.041 209.904 155.041L210.081 154.628L210.493 154.864C210.552 154.923 217.565 159.107 222.397 164.47C229.763 172.602 233.358 180.086 235.538 184.623C239.015 191.871 240.96 202.125 240.96 202.243L241.549 205.72ZM197.765 163.409L200.122 163.939C200.77 164.057 201.242 164.587 201.301 165.236C201.36 165.884 201.006 166.473 200.417 166.768L198.118 167.77C198.118 167.77 198.06 167.77 198.06 167.828C198.06 167.887 198.06 167.887 198.118 167.887C200.122 168.359 204.424 169.42 210.611 171.718C221.218 175.961 228.879 183.975 233.417 189.986C236.186 193.639 238.131 196.939 239.368 199.237C238.543 195.643 236.893 189.691 234.654 184.977C232.533 180.498 228.938 173.073 221.69 165.059C217.565 160.521 211.849 156.809 210.376 155.866C209.845 156.809 208.313 159.166 205.897 159.166C205.485 159.166 205.131 159.107 204.718 158.989H204.66C202.067 157.693 187.806 153.096 182.856 153.096C182.738 153.096 182.679 153.096 182.62 153.096V155.571L198.943 160.993C199.415 161.17 199.651 161.523 199.651 161.995C199.651 162.466 199.415 162.82 199.002 163.055L197.765 163.409Z" fill="#323A50"/>
<path d="M190.927 165.943C190.927 160.404 179.966 157.516 166.413 157.516C152.859 157.516 141.898 160.404 141.898 165.943C141.898 171.482 152.859 177.611 166.413 177.611C179.966 177.611 190.927 171.541 190.927 165.943Z" fill="#DBDBDB"/>
<path d="M166.355 178.082C159.931 178.082 153.744 176.727 148.853 174.252C144.138 171.895 141.428 168.889 141.428 165.943C141.428 163.114 144.021 160.816 148.912 159.284C153.331 157.87 159.401 157.163 166.355 157.163C173.367 157.163 179.378 157.929 183.797 159.284C188.688 160.816 191.281 163.173 191.281 165.943C191.281 168.83 188.571 171.895 183.856 174.252C179.024 176.727 172.778 178.082 166.355 178.082ZM166.355 157.929C159.519 157.929 153.39 158.695 149.147 160.05C145.965 161.052 142.253 162.879 142.253 165.943C142.253 168.477 144.846 171.305 149.206 173.486C153.98 175.902 160.049 177.198 166.355 177.198C172.66 177.198 178.73 175.902 183.503 173.486C187.863 171.305 190.456 168.477 190.456 165.943C190.456 162.879 186.685 161.052 183.562 160.05C179.319 158.695 173.19 157.929 166.355 157.929Z" fill="#323A50"/>
<path d="M190.28 166.061C190.28 160.816 179.555 158.105 166.355 158.105C153.155 158.105 142.43 160.816 142.43 166.061C142.43 171.305 153.155 177.08 166.355 177.08C179.555 177.08 190.28 171.305 190.28 166.061Z" fill="#DBDBDB"/>
<path d="M166.355 177.198C160.168 177.198 154.157 175.961 149.443 173.663C144.964 171.482 142.371 168.713 142.371 166.12C142.371 163.586 144.846 161.523 149.443 160.109C153.685 158.813 159.578 158.105 166.355 158.105C173.132 158.105 179.025 158.813 183.268 160.109C187.923 161.523 190.339 163.586 190.339 166.12C190.339 168.772 187.746 171.482 183.268 173.663C178.553 175.961 172.543 177.198 166.355 177.198ZM166.355 158.282C151.859 158.282 142.548 161.347 142.548 166.12C142.548 171.188 152.978 177.022 166.355 177.022C179.732 177.022 190.162 171.129 190.162 166.12C190.162 161.347 180.851 158.282 166.355 158.282Z" fill="#323A50"/>
<path d="M189.041 166.238C189.041 161.7 178.905 159.402 166.354 159.402C153.802 159.402 143.666 161.759 143.666 166.238C143.666 170.775 153.802 175.784 166.354 175.784C178.905 175.784 189.041 170.775 189.041 166.238Z" fill="#DBDBDB"/>
<path d="M166.354 175.843C160.461 175.843 154.745 174.723 150.267 172.779C146.024 170.893 143.549 168.536 143.549 166.238C143.549 164.057 145.847 162.23 150.267 160.993C154.333 159.873 159.872 159.225 166.354 159.225C172.836 159.225 178.376 159.814 182.442 160.993C186.861 162.23 189.16 164.057 189.16 166.238C189.16 168.536 186.685 170.893 182.442 172.779C177.904 174.782 172.247 175.843 166.354 175.843ZM166.354 159.461C152.624 159.461 143.785 162.113 143.785 166.238C143.785 170.598 153.626 175.666 166.354 175.666C179.083 175.666 188.924 170.598 188.924 166.238C188.924 162.113 180.085 159.461 166.354 159.461Z" fill="#323A50"/>
<path d="M187.687 166.297C187.687 162.407 178.082 160.404 166.237 160.404C154.392 160.404 144.787 162.407 144.787 166.297C144.787 170.186 154.392 174.488 166.237 174.488C178.082 174.488 187.687 170.186 187.687 166.297Z" fill="#DBDBDB"/>
<path d="M166.177 174.606C160.638 174.606 155.217 173.663 150.974 171.954C146.967 170.363 144.609 168.3 144.609 166.297C144.609 164.411 146.79 162.879 150.974 161.759C154.804 160.816 160.108 160.286 166.177 160.286C172.247 160.286 177.55 160.816 181.381 161.759C185.565 162.82 187.745 164.411 187.745 166.297C187.745 168.241 185.447 170.304 181.381 171.954C177.197 173.604 171.775 174.606 166.177 174.606ZM166.177 160.463C153.213 160.463 144.786 162.761 144.786 166.297C144.786 170.068 154.097 174.37 166.177 174.37C178.258 174.37 187.568 170.009 187.568 166.297C187.568 162.761 179.2 160.463 166.177 160.463Z" fill="#323A50"/>
<path d="M186.212 166.237C186.212 163.114 177.255 161.523 166.176 161.523C155.098 161.523 146.141 163.114 146.141 166.237C146.141 169.361 155.098 173.132 166.176 173.132C177.196 173.132 186.212 169.302 186.212 166.237Z" fill="#DBDBDB"/>
<path d="M166.177 173.25C155.04 173.25 146.023 169.42 146.023 166.238C146.023 162.702 156.866 161.464 166.177 161.464C175.488 161.464 186.331 162.702 186.331 166.238C186.272 169.361 177.315 173.25 166.177 173.25ZM166.177 161.641C154.097 161.641 146.259 163.468 146.259 166.238C146.259 169.302 155.452 173.073 166.177 173.073C176.902 173.073 186.095 169.302 186.095 166.238C186.095 163.409 178.257 161.641 166.177 161.641Z" fill="#323A50"/>
<path d="M184.504 166.238C184.504 163.821 176.254 162.584 166.118 162.584C155.982 162.584 147.732 163.821 147.732 166.238C147.732 168.654 155.982 171.6 166.118 171.6C176.254 171.6 184.504 168.654 184.504 166.238Z" fill="#DBDBDB"/>
<path d="M166.119 171.777C155.865 171.777 147.615 168.772 147.615 166.297C147.615 163.527 157.162 162.525 166.119 162.525C175.017 162.525 184.622 163.527 184.622 166.297C184.563 168.713 176.372 171.777 166.119 171.777ZM166.119 162.702C155.217 162.702 147.851 164.116 147.851 166.238C147.851 168.654 156.278 171.541 166.119 171.541C175.96 171.541 184.387 168.654 184.387 166.238C184.387 164.116 177.021 162.702 166.119 162.702Z" fill="#323A50"/>
<path d="M182.501 166.473C182.501 164.705 175.076 163.822 165.942 163.822C156.808 163.822 149.383 164.705 149.383 166.473C149.383 168.241 156.808 170.422 165.942 170.422C175.076 170.422 182.501 168.241 182.501 166.473Z" fill="#DBDBDB"/>
<path d="M166.001 170.48C156.808 170.48 149.383 168.3 149.383 166.473C149.383 164.411 157.986 163.704 166.001 163.704C174.015 163.704 182.619 164.411 182.619 166.473C182.619 168.3 175.194 170.48 166.001 170.48ZM166.001 163.939C156.16 163.939 149.56 165 149.56 166.473C149.56 168.005 156.454 170.304 166.001 170.304C175.547 170.304 182.442 168.005 182.442 166.473C182.442 164.941 175.842 163.939 166.001 163.939Z" fill="#323A50"/>
<path d="M213.085 199.886L230.057 187.393C230.057 187.393 228.466 184.034 227.523 183.975L210.787 196.704L213.085 199.886Z" fill="white"/>
<path d="M213.027 200.298L210.375 196.704L227.464 183.739H227.582C228.643 183.739 229.998 186.509 230.352 187.334L230.47 187.57L213.027 200.298ZM211.2 196.821L213.145 199.473L229.645 187.334C228.938 185.92 228.054 184.505 227.582 184.329L211.2 196.821Z" fill="#323A50"/>
<path d="M212.834 200.106C213.316 199.774 213.213 198.787 212.604 197.903C211.995 197.019 211.11 196.571 210.627 196.903C210.145 197.236 210.248 198.222 210.857 199.107C211.466 199.991 212.351 200.439 212.834 200.106Z" fill="white"/>
<path d="M212.496 200.475C211.907 200.475 211.141 200.004 210.61 199.238C209.903 198.177 209.785 197.057 210.434 196.586C210.61 196.468 210.787 196.409 210.964 196.409C211.553 196.409 212.319 196.88 212.85 197.646C213.557 198.707 213.675 199.827 213.027 200.298C212.909 200.416 212.732 200.475 212.496 200.475ZM210.964 197.057C210.905 197.057 210.846 197.057 210.787 197.116C210.493 197.293 210.61 198.118 211.141 198.884C211.612 199.591 212.202 199.886 212.496 199.886C212.555 199.886 212.614 199.886 212.673 199.827C212.968 199.65 212.85 198.825 212.319 198.059C211.848 197.352 211.318 197.057 210.964 197.057Z" fill="#323A50"/>
<path d="M100.531 163.939C99.7652 163.939 99.058 163.645 98.4687 163.173L97.9384 162.702C96.7009 161.582 96.583 159.638 97.7027 158.4L100.649 155.159C101.238 154.511 102.063 154.157 102.888 154.157C103.654 154.157 104.362 154.452 104.951 154.923L105.481 155.395C106.719 156.514 106.837 158.459 105.717 159.697L102.771 162.938C102.24 163.586 101.415 163.939 100.531 163.939ZM103.006 154.688C102.299 154.688 101.651 154.982 101.179 155.513L98.233 158.754C97.3491 159.755 97.408 161.288 98.4098 162.23L98.9402 162.702C99.4116 163.114 100.001 163.35 100.59 163.35C101.297 163.35 101.946 163.055 102.417 162.525L105.363 159.284C106.247 158.282 106.188 156.75 105.187 155.807L104.656 155.336C104.185 154.923 103.596 154.688 103.006 154.688Z" fill="#293C4F"/>
<path d="M105.533 159.569L102.361 162.977L103.267 163.82L106.439 160.412L105.533 159.569Z" fill="white"/>
<path d="M103.243 164.116C103.184 164.116 103.067 164.116 103.008 164.057L102.124 163.232C102.065 163.173 102.006 163.114 102.006 162.996C102.006 162.879 102.006 162.82 102.065 162.761L105.247 159.343C105.365 159.225 105.542 159.225 105.659 159.343L106.543 160.168C106.602 160.227 106.661 160.286 106.661 160.404C106.661 160.521 106.661 160.58 106.602 160.639L103.42 164.057C103.42 164.116 103.302 164.116 103.243 164.116ZM102.772 162.996L103.184 163.409L105.954 160.404L105.542 159.991L102.772 162.996Z" fill="#293C4F"/>
<path d="M126.932 180.263L126.107 184.564L116.561 175.784C118.623 174.429 120.155 174.016 120.155 174.016L126.932 180.263Z" fill="white"/>
<path d="M125.99 184.741L116.031 175.725L116.326 175.489C118.388 174.134 119.921 173.721 119.979 173.662L120.156 173.604L127.051 180.086L125.99 184.741ZM117.033 175.843L125.872 183.975L126.579 180.38L120.038 174.37C119.626 174.487 118.506 174.9 117.033 175.843Z" fill="#293C4F"/>
<path d="M126.699 184.861C127.382 184.844 127.911 183.801 127.879 182.533C127.848 181.264 127.268 180.249 126.585 180.266C125.902 180.283 125.373 181.325 125.405 182.594C125.436 183.863 126.016 184.878 126.699 184.861Z" fill="white"/>
<path d="M126.696 185.036C125.812 185.036 125.164 183.916 125.105 182.443C125.046 180.97 125.695 179.732 126.578 179.732C127.227 179.85 128.111 180.852 128.17 182.325C128.229 183.798 127.58 185.036 126.696 185.036ZM126.755 180.439C126.343 180.439 125.695 181.205 125.695 182.384C125.695 183.563 125.989 183.975 125.989 183.975L126.225 184.329L126.578 184.505C126.991 184.505 127.698 183.739 127.639 182.62C127.58 181.382 127.168 180.439 126.755 180.439Z" fill="#293C4F"/>
<path d="M98.9995 159.814C98.9406 159.814 98.8817 159.814 98.8228 159.755C98.7049 159.638 98.7049 159.461 98.8228 159.343L100.65 157.339C100.767 157.222 100.944 157.222 101.062 157.339C101.18 157.457 101.18 157.634 101.062 157.752L99.2353 159.755C99.1763 159.755 99.1174 159.814 98.9995 159.814Z" fill="#293C4F"/>
<path d="M101.535 157.045C101.476 157.045 101.417 157.045 101.358 156.986C101.24 156.868 101.24 156.691 101.358 156.573L101.888 155.984C102.006 155.866 102.183 155.866 102.301 155.984C102.419 156.102 102.419 156.279 102.301 156.396L101.77 156.986C101.712 156.986 101.594 157.045 101.535 157.045Z" fill="#293C4F"/>
<path d="M118.682 200.887C118.564 200.77 118.446 200.593 118.446 200.416V200.298C118.388 199.886 118.093 199.473 117.68 199.296L116.148 198.53L115.5 197.941L117.739 195.466L118.27 195.937L119.566 197.764C119.743 198.059 120.037 198.236 120.391 198.295L120.804 198.412C120.98 198.471 121.098 198.53 121.216 198.648C121.216 198.648 124.104 202.243 123.514 202.95C123.514 202.95 123.514 203.009 123.455 203.009C122.807 203.657 118.682 200.887 118.682 200.887Z" fill="white"/>
<path d="M123.102 203.421C121.924 203.421 118.859 201.418 118.506 201.182L118.447 201.123C118.27 200.946 118.152 200.711 118.152 200.475V200.357C118.093 200.003 117.858 199.709 117.563 199.591L115.972 198.825L115.088 198L117.74 195.053L118.506 195.761L119.802 197.587C119.979 197.823 120.156 197.941 120.45 198L120.863 198.118C121.099 198.177 121.275 198.295 121.452 198.471C122.572 199.886 124.399 202.42 123.691 203.186L123.633 203.245C123.515 203.362 123.338 203.421 123.102 203.421ZM118.859 200.652C119.802 201.241 122.218 202.773 123.102 202.773C123.161 202.773 123.22 202.773 123.22 202.773L123.279 202.714C123.456 202.42 122.395 200.534 120.981 198.825C120.922 198.766 120.804 198.707 120.686 198.648L120.274 198.53C119.861 198.412 119.508 198.177 119.272 197.882L117.975 196.114L117.681 195.878L115.854 197.882L116.266 198.236L117.799 199.002C118.27 199.237 118.624 199.709 118.741 200.239V200.357C118.741 200.475 118.8 200.593 118.859 200.652Z" fill="#293C4F"/>
<path d="M116.089 198.53L80.084 166.238C80.084 166.238 80.7322 164.646 81.6161 162.938C82.4411 163.704 118.329 196.055 118.329 196.055C118.682 196.35 118.446 197.175 117.857 197.882C117.857 197.882 117.857 197.941 117.798 197.941C117.15 198.589 116.443 198.825 116.089 198.53Z" fill="white"/>
<path d="M118.8 199.532C118.682 199.532 118.564 199.473 118.506 199.355C118.447 199.179 118.506 199.002 118.623 198.943C118.682 198.943 119.389 198.53 119.213 197.882C119.154 197.705 119.272 197.529 119.389 197.529C119.566 197.47 119.743 197.588 119.743 197.705C120.038 198.589 119.331 199.238 118.859 199.473C118.859 199.532 118.8 199.532 118.8 199.532Z" fill="#293C4F"/>
<path opacity="0.93" d="M236.128 215.796C236.128 254.513 204.719 285.921 166.003 285.921C164.117 285.921 162.231 285.863 160.404 285.686C171.719 284.036 182.267 281.855 190.929 269.893C199.356 258.343 188.336 249.504 208.844 232.296C216.563 225.755 231.59 208.018 230.588 190.693C232.003 193.345 236.128 207.782 236.128 215.796Z" fill="url(#paint3_radial_3671_12119)"/>
<path opacity="0.63" d="M123.81 222.102C120.804 233.239 130.174 242.668 138.011 246.086C142.844 248.207 149.149 244.613 158.283 256.28C162.644 261.879 185.861 263.647 187.747 251.507C189.574 239.427 199.415 237.07 196.233 225.755C193.64 216.563 188.926 215.561 188.69 206.663C188.513 200.711 185.626 193.639 174.253 190.222C169.538 188.807 162.879 192.225 153.274 192.343C142.372 192.461 128.524 182.62 128.053 183.15C126.697 184.623 143.315 201.241 136.303 209.314C130.41 216.15 126.108 213.793 123.81 222.102Z" fill="url(#paint4_linear_3671_12119)"/>
<path d="M161.523 285.568L156.75 285.037L158.871 284.095L160.816 284.212C170.539 282.621 181.736 280.5 189.102 269.716C191.813 265.768 192.225 261.82 192.638 257.695C193.404 250.329 194.229 242.02 207.605 231.471C215.914 224.871 230.764 204.011 228.525 189.927L230.47 191.459C231.648 199.65 227.17 208.961 223.339 215.443C218.625 223.398 212.673 230.057 208.784 233.121C196.114 243.139 195.348 250.682 194.582 257.989C194.111 262.409 193.698 266.593 190.693 270.954C182.914 282.386 171.423 284.389 161.523 285.568Z" fill="#DBDBDB"/>
<path d="M160.403 284.213C159.813 284.213 159.224 284.154 158.635 284.095L158.694 283.505C161.228 283.859 163.997 283.27 165.824 282.916H165.942C173.779 281.325 182.678 278.438 188.983 269.186C191.753 265.061 192.165 261.054 192.637 256.811C193.403 249.621 194.228 241.43 207.31 231.059C211.081 228.113 216.915 221.571 221.512 213.734C225.224 207.488 229.349 198.236 228.053 189.986L228.642 189.868C229.997 198.295 225.813 207.664 222.042 214.029C217.387 221.925 211.494 228.466 207.663 231.471C194.758 241.666 193.933 249.386 193.167 256.811C192.695 261.113 192.283 265.238 189.395 269.421C182.913 278.909 173.485 281.855 165.942 283.388H165.824C164.528 283.8 162.465 284.213 160.403 284.213Z" fill="#323A50"/>
<path d="M106.542 120.627C98.0565 124.28 91.3386 134.534 92.5761 142.136C93.6369 148.795 98.9994 154.452 100.178 155.63C99.8833 155.984 99.6476 156.22 99.4708 156.396C99.7065 156.632 99.8244 156.75 99.8244 156.75L99.4119 157.221C99.4119 157.221 99.294 157.104 99.0583 156.927C98.8226 157.163 98.5869 157.457 98.1744 157.87C96.9369 156.632 90.9851 150.268 89.7476 142.607C88.3333 133.709 95.6994 122.218 105.423 118.034C110.667 115.795 114.439 113.202 117.208 110.373H116.324C113.673 112.966 110.019 115.382 105.187 117.445C95.2279 121.747 87.744 133.473 89.1583 142.666C90.5136 151.388 97.8797 158.4 97.9976 158.518L98.2333 158.754L98.469 158.518C99.1172 157.811 99.4708 157.457 99.7654 157.104C100.06 156.809 100.355 156.455 100.885 155.866L101.121 155.63L100.885 155.395C100.59 155.159 94.344 149.148 93.2244 142.018C92.0458 134.652 98.5869 124.693 106.837 121.157C113.437 118.329 118.387 114.793 121.805 110.373H121.039C117.621 114.557 112.907 117.916 106.542 120.627Z" fill="#293C4F"/>
<path d="M94.9925 129.466C97.7622 125.047 101.887 121.452 106.248 119.566C112.435 116.914 116.678 113.732 119.684 110.373H118.859C115.971 113.555 111.846 116.502 106.012 119.036C101.475 120.98 97.3496 124.575 94.4621 129.172C91.6336 133.65 90.3961 138.423 90.9854 142.372C92.105 149.384 97.6443 155.454 99.0586 156.868C99.1175 156.809 99.1764 156.691 99.2354 156.632C99.2943 156.573 99.3532 156.455 99.4122 156.396C97.9979 154.982 92.5764 149.089 91.5157 142.254C90.9854 138.482 92.2229 133.827 94.9925 129.466Z" fill="#293C4F"/>
<path d="M241.136 180.439C240.665 179.673 240.252 178.848 239.899 178.377C239.84 178.259 239.781 178.141 239.722 178.023L290.519 139.896H289.517L238.956 177.846L238.779 177.964L238.838 178.2C238.897 178.318 238.956 178.436 239.251 178.848C239.663 179.379 240.253 180.263 240.724 181.088L240.901 181.323L241.136 181.146C241.608 180.852 290.46 144.08 295.999 139.896H294.997C289.281 144.257 244.908 177.67 241.136 180.439Z" fill="#293C4F"/>
<path d="M118.505 195.879C117.798 195.23 59.2819 142.313 38.7158 123.75H37.8319C57.5729 141.605 115.205 193.698 118.093 196.35C118.152 196.409 118.152 196.586 118.093 196.822C118.034 197.116 117.798 197.47 117.562 197.764L117.503 197.823C117.091 198.295 116.619 198.472 116.384 198.472C116.325 198.472 116.266 198.472 116.207 198.413L33.589 123.691H32.7051L115.912 198.766C116.03 198.884 116.266 198.943 116.502 198.943C116.973 198.943 117.562 198.648 118.034 198.118L118.093 198.059C118.446 197.705 118.682 197.293 118.8 196.88C118.859 196.468 118.8 196.114 118.505 195.879Z" fill="#293C4F"/>
<path opacity="0.39" d="M144.61 270.423L120.744 236.775L210.905 197.411L212.908 200.062L144.61 270.423Z" fill="url(#paint5_linear_3671_12119)"/>
<path opacity="0.39" d="M162.23 283.27L109.076 225.284L210.964 197.352L212.849 200.063L162.23 283.27Z" fill="url(#paint6_linear_3671_12119)"/>
</g>
<defs>
<linearGradient id="paint0_linear_3671_12119" x1="178.762" y1="199.485" x2="144.23" y2="65.1602" gradientUnits="userSpaceOnUse">
<stop offset="0.2655" stop-color="#032A3D" stop-opacity="0"/>
<stop offset="0.7809" stop-color="#032A3D"/>
</linearGradient>
<radialGradient id="paint1_radial_3671_12119" cx="0" cy="0" r="1" gradientUnits="userSpaceOnUse" gradientTransform="translate(167.658 236.611) scale(71.3444 71.0185)">
<stop offset="0.4054" stop-color="#032A3D" stop-opacity="0"/>
<stop offset="1" stop-color="#032A3D"/>
</radialGradient>
<linearGradient id="paint2_linear_3671_12119" x1="188.411" y1="173.177" x2="141.971" y2="124.694" gradientUnits="userSpaceOnUse">
<stop offset="0.3301" stop-color="#C4FFFF"/>
<stop offset="0.8279" stop-color="#47B4FF"/>
<stop offset="1" stop-color="#0C37A6"/>
</linearGradient>
<radialGradient id="paint3_radial_3671_12119" cx="0" cy="0" r="1" gradientUnits="userSpaceOnUse" gradientTransform="translate(159.469 214.245) scale(75.2732 75.2732)">
<stop offset="0.33" stop-color="#032A3D" stop-opacity="0.7"/>
<stop offset="0.4716" stop-color="#07253A" stop-opacity="0.7593"/>
<stop offset="1" stop-color="#131831" stop-opacity="0.9805"/>
</radialGradient>
<linearGradient id="paint4_linear_3671_12119" x1="123.254" y1="221.912" x2="196.854" y2="221.912" gradientUnits="userSpaceOnUse">
<stop stop-color="#E9F0F0"/>
<stop offset="0.4806" stop-color="#898B8D"/>
<stop offset="0.9748" stop-color="#6F6A81"/>
</linearGradient>
<linearGradient id="paint5_linear_3671_12119" x1="251.61" y1="207.853" x2="83.526" y2="229.401" gradientUnits="userSpaceOnUse">
<stop offset="0.2329" stop-color="white"/>
<stop offset="0.7209" stop-color="#AAF1FF" stop-opacity="0"/>
</linearGradient>
<linearGradient id="paint6_linear_3671_12119" x1="238.775" y1="185.434" x2="142.408" y2="247.372" gradientUnits="userSpaceOnUse">
<stop offset="0.0206186" stop-color="white"/>
<stop offset="0.7861" stop-color="#AAF1FF" stop-opacity="0"/>
</linearGradient>
<clipPath id="clip0_3671_12119">
<rect width="330" height="330" fill="white"/>
</clipPath>
</defs>
</svg>
