<svg width="330" height="330" viewBox="0 0 330 330" fill="none" xmlns="http://www.w3.org/2000/svg">
<g clip-path="url(#clip0_3489_27181)">
<path opacity="0.3" d="M9.24882 207.723C7.24596 230.705 27.2156 254.689 41.2356 264.354C41.7069 268.773 42.0603 272.427 42.4138 275.373C42.4138 275.373 50.7786 289.929 67.2727 297.707C90.9536 308.845 117.933 303.129 144.324 303.129C144.324 303.129 145.679 286.629 150.745 274.902C155.693 263.411 163.292 251.154 163.292 251.154C163.292 251.154 174.661 251.566 181.2 250.505C188.681 249.268 189.152 247.441 190.861 242.727C197.223 225.343 205.647 195.879 205.647 175.666C205.647 155.454 198.283 151.8 197.694 146.379C197.282 142.489 199.285 130.35 199.579 126.814C199.991 121.216 194.277 105.541 192.628 103.125C191.096 100.886 194.395 101.475 193.688 98.8822C192.746 95.5233 192.569 92.1054 191.391 89.1001C178.431 55.4518 152.453 43.2536 118.64 47.2018C116.166 47.4965 107.094 45.9643 104.561 46.0233C47.1853 47.8501 -15.2567 109.254 16.4355 184.27C16.3766 184.329 9.24882 193.816 9.24882 207.723Z" fill="url(#paint0_linear_3489_27181)"/>
<path d="M42.237 252.568C46.3016 233.298 50.543 226.58 52.8404 219.214C53.2527 217.918 52.7225 216.621 53.1349 215.502C50.7786 215.738 48.4223 215.62 46.3016 214.854C44.122 214.088 39.7629 200.829 38.3491 199.296C35.8161 196.527 35.6394 193.109 34.4023 189.573C30.8089 179.379 33.4598 169.066 33.342 169.125C33.6365 169.891 23.0921 173.957 16.5533 183.916C16.5533 183.916 9.48442 193.404 9.48442 207.311C7.48156 230.293 27.4512 254.277 41.4712 263.941C41.9425 268.361 42.2959 272.014 42.6494 274.961C42.6494 274.961 39.6451 264.766 42.237 252.568Z" fill="url(#paint1_linear_3489_27181)"/>
<path d="M156.635 250.329C145.03 250.093 136.666 249.68 128.242 249.563C124.943 250.034 102.146 249.68 98.9647 248.738C73.1632 240.664 67.1547 216.386 66.0943 213.793C66.0354 213.734 66.5067 213.027 66.4478 212.968C66.33 212.909 66.2122 212.85 66.1532 212.791C65.8587 212.614 65.5642 212.438 65.3285 212.261C64.5038 212.909 63.5024 213.439 62.501 213.793C63.149 214.5 63.6202 215.266 63.7969 216.209C65.4464 225.461 66.4478 234.889 68.8041 244.023C69.8644 248.089 71.2782 252.096 72.7509 256.045C73.4578 257.93 74.1647 259.757 74.9305 261.643C75.1072 262.055 75.2839 262.468 75.4017 262.821C75.4606 262.998 75.5784 263.175 75.6374 263.352C75.9908 264.177 76.4032 265.061 76.7566 265.886C79.9376 273.075 83.531 280.029 87.4189 286.864C90.7766 292.757 94.37 298.473 98.14 304.13C113.22 304.72 128.89 302.775 144.382 302.775C144.382 302.775 145.737 286.275 150.803 274.548C155.457 263.823 162.408 252.391 163.233 250.977C161.112 250.623 158.933 250.388 156.635 250.329Z" fill="url(#paint2_linear_3489_27181)"/>
<path d="M172.069 251.271C161.524 251.271 144.618 250.623 138.668 250.211C134.721 249.916 128.536 250.034 121.997 250.152C115.694 250.27 109.214 250.388 103.913 250.152C92.838 249.68 80.1729 240.841 72.2793 228.054C67.6256 220.57 66.3296 215.855 65.7995 213.852C65.7406 213.557 65.6227 213.263 65.5638 213.027C65.3282 213.086 64.9748 213.263 64.6213 213.439C62.8541 214.205 59.5553 215.679 55.1961 215.973C48.7752 216.504 45.8887 215.325 45.8298 215.266C45.712 215.207 45.5353 215.089 43.9448 212.261C43.2968 211.082 41.9419 208.548 40.3514 205.248C37.9362 200.239 34.6963 192.873 33.0469 186.568C30.8084 177.788 32.1633 169.655 34.1661 168.418C36.0512 167.298 40.0569 166.12 44.5339 166.179C47.1847 166.238 50.5424 166.945 54.0769 167.652C60.4978 169.007 67.7434 170.48 71.6313 168.005C78.7002 163.468 75.1658 141.605 75.1069 141.37L75.9316 141.193C76.1083 142.136 79.5838 163.88 72.0437 168.654C67.8612 171.305 60.7334 169.832 53.9001 168.418C50.3657 167.711 47.1258 167.004 44.4749 166.945C39.8802 166.886 36.0512 168.182 34.5785 169.007C33.2236 169.832 31.5742 177.139 33.8716 186.214C36.817 197.823 45.4175 213.204 46.2422 214.382C46.7134 214.559 49.541 215.384 55.0783 214.971C59.2607 214.618 62.5006 213.263 64.209 212.496C65.2104 212.084 65.5638 211.907 65.8584 212.025C66.2118 212.143 66.2707 212.496 66.5653 213.439C67.0954 215.443 68.3914 220.039 72.9273 227.405C80.6442 239.957 93.0737 248.679 103.854 249.091C109.097 249.327 115.576 249.209 121.879 249.091C128.418 248.973 134.603 248.855 138.609 249.15C146.267 249.68 172.304 250.564 179.138 249.975C185.853 249.386 187.738 247.205 189.387 244.613C191.096 241.902 198.989 216.327 200.933 207.134C206.588 183.445 204.88 169.007 204.232 165.118C203.29 159.343 200.109 152.566 198.459 148.913C197.693 147.263 197.34 146.438 197.222 146.084C197.104 145.436 197.458 142.136 198.047 136.832C198.518 132.707 198.989 128.464 198.93 127.286C198.695 120.804 195.278 109.371 193.629 105.895C192.215 102.889 191.626 102.536 191.626 102.536C191.626 102.536 191.685 102.536 191.744 102.595L191.92 101.77C192.568 101.888 193.688 103.891 194.454 105.6C196.162 109.136 199.578 120.745 199.873 127.345C199.932 128.582 199.461 132.648 198.989 137.009C198.518 140.957 198.047 145.436 198.165 146.025C198.224 146.32 198.754 147.38 199.284 148.677C200.992 152.33 204.173 159.166 205.175 165.118C205.823 169.007 207.531 183.621 201.817 207.429C199.755 216.975 191.92 242.373 190.153 245.202C188.386 247.971 186.383 250.329 179.255 250.918C177.724 251.213 175.191 251.271 172.069 251.271Z" fill="#323A50"/>
<path d="M144.854 303.423L144.029 303.364C144.029 303.188 145.149 288.102 148.86 278.143C153.16 266.475 163.174 250.741 163.292 250.564L163.999 251.036C163.881 251.213 153.985 266.888 149.684 278.438C145.973 288.279 144.854 303.246 144.854 303.423Z" fill="#323A50"/>
<path d="M45.8299 215.325C38.8788 212.437 32.1044 207.075 26.1547 199.827C20.0284 192.343 15.0801 183.15 11.8402 173.191C6.95089 158.046 1.82593 127.462 22.6792 93.3428C27.922 84.7982 34.5785 77.0785 42.4721 70.4785C49.2465 64.8214 56.9045 59.9893 65.3283 56.041C80.114 49.0875 94.5464 46.2 103.088 45.7875C111.63 45.4339 119.346 46.8482 126.121 50.0893C131.835 52.8589 136.901 56.866 141.142 62.0518C151.157 74.3678 153.395 89.1589 152.688 91.9285C152.394 93.0482 151.863 93.8143 151.098 94.2268C149.507 94.9928 147.386 94.05 144.853 92.9303L144.677 92.8714C136.489 89.2768 118.64 85.6821 91.0708 101.593C82.706 106.425 79.0537 113.732 77.4632 119.036C75.7549 124.752 75.9905 129.407 75.9905 129.466L75.1658 129.525C75.1658 129.348 74.8713 124.693 76.6974 118.8C78.3468 113.379 82.1169 105.836 90.7174 100.886C103.677 93.4018 115.93 89.3946 127.181 89.041C133.779 88.8053 140.023 89.866 145.148 92.1053L145.325 92.1643C147.563 93.166 149.684 94.05 150.862 93.4607C151.392 93.225 151.805 92.6357 151.981 91.7518C152.747 88.7464 149.978 74.1321 140.612 62.6411C131.423 51.3268 118.875 45.9643 103.206 46.6714C94.7231 47.025 80.4675 49.9125 65.7995 56.8071C47.4793 65.4107 33.2237 77.8446 23.5039 93.8143C2.82737 127.639 7.89341 157.87 12.7238 172.896C19.0858 192.579 31.9277 208.489 46.2422 214.5L45.8299 215.325Z" fill="#323A50"/>
<path d="M188.622 103.537C184.852 103.537 179.963 100.65 174.366 97.35C167.356 93.225 159.404 88.5696 152.217 88.9232L152.158 88.0982C159.581 87.8036 167.651 92.5178 174.72 96.6428C180.198 99.825 185.382 102.889 188.975 102.654C190.566 102.536 191.744 102.123 192.451 101.298C193.158 100.532 193.394 99.3536 193.217 97.8214C193.217 97.7625 192.687 92.4 188.799 84.3268C184.44 75.2518 177.901 67.0018 169.359 59.8125C155.045 47.7911 137.549 46.6714 128.419 47.0839C104.738 48.1446 83.2954 54.2732 64.7395 65.2928L64.3271 64.5857C83.0008 53.4482 104.561 47.2607 128.419 46.2C134.722 45.9053 140.907 46.4946 146.798 47.7911C155.634 49.8536 163.41 53.625 169.948 59.1053C178.608 66.3536 185.205 74.6625 189.623 83.8554C193.57 92.1054 194.1 97.5857 194.1 97.6446C194.277 99.4714 193.924 100.827 193.099 101.77C192.274 102.771 190.861 103.302 189.034 103.42C188.917 103.537 188.74 103.537 188.622 103.537Z" fill="#323A50"/>
<path d="M158.874 173.898C155.693 173.898 152.806 173.25 151.687 170.009C150.391 166.179 153.454 160.404 153.572 160.168L154.338 160.58C154.338 160.639 151.334 166.296 152.512 169.714C153.69 173.073 156.989 173.191 160.877 172.955C165.059 172.72 175.545 171.07 179.609 167.534C183.379 164.234 184.675 160.639 183.085 157.87C181.494 155.159 177.489 149.62 177.43 149.561C177.194 149.207 171.421 140.427 170.125 137.009C170.066 136.773 169.949 136.538 169.89 136.302C168.653 133.12 167.298 129.525 167.887 125.223C168.417 120.921 169.418 117.68 172.54 114.616C174.956 112.259 178.961 109.136 186.03 109.489C192.569 109.784 199.697 112.318 200.522 113.496C201.111 114.321 201.228 116.796 200.286 118.388C199.697 119.389 198.754 119.861 197.576 119.684C195.632 119.448 193.983 118.918 192.628 118.564C191.803 118.329 191.037 118.093 190.507 118.034C189.152 117.857 187.15 118.446 187.15 118.446L186.914 117.621C186.973 117.621 189.093 116.973 190.625 117.15C191.214 117.209 191.98 117.445 192.922 117.739C194.218 118.093 195.868 118.623 197.753 118.859C198.578 118.977 199.167 118.682 199.638 117.975C200.463 116.62 200.227 114.498 199.932 114.027C199.402 113.261 192.864 110.668 186.089 110.373C179.374 110.079 175.545 113.025 173.247 115.264C170.243 118.152 169.359 121.275 168.829 125.341C168.299 129.407 169.595 132.766 170.832 136.007C170.891 136.243 171.009 136.479 171.068 136.714C172.305 140.014 178.196 148.971 178.255 149.089C178.255 149.148 182.319 154.746 183.91 157.457C185.736 160.58 184.381 164.646 180.257 168.182C176.075 171.836 165.295 173.604 161.053 173.839C160.229 173.898 159.522 173.898 158.874 173.898Z" fill="#323A50"/>
<path d="M176.134 176.02C176.134 175.961 176.016 174.252 176.841 172.366C176.959 172.13 177.135 171.895 177.312 171.6C177.018 171.482 176.782 171.305 176.546 171.188C176.252 170.952 175.898 170.716 175.486 170.421C173.542 168.948 170.361 166.473 166.709 166.238C164.058 166.061 162.408 166.945 161.525 167.652C163.704 167.416 167.71 167.239 168.77 168.595C169.006 168.889 169.183 169.42 168.829 170.127C168.77 170.304 168.535 170.834 166.12 171.305C162.939 171.954 156.459 172.366 154.809 170.834C152.748 168.948 153.337 166.414 153.337 166.296L154.161 166.532C154.161 166.591 153.69 168.713 155.398 170.245C156.223 171.011 159.875 171.305 163.763 170.834C166.65 170.48 167.887 170.009 168.064 169.773C168.24 169.361 168.122 169.184 168.064 169.125C167.298 168.123 162.939 168.3 160.406 168.654L159.463 168.771L159.993 168.005C160.052 167.888 162.055 165.118 166.768 165.413C170.656 165.707 174.013 168.241 176.016 169.773C176.428 170.068 176.782 170.304 177.018 170.539C177.253 170.716 177.548 170.893 177.842 171.011C179.197 169.479 181.494 167.888 182.496 167.888C182.967 167.888 183.144 168.123 183.203 168.241C183.792 169.302 183.38 171.011 182.319 171.836C181.494 172.543 179.668 172.543 178.019 172.013C177.783 172.307 177.607 172.543 177.489 172.779C176.723 174.429 176.841 175.961 176.841 176.02H176.134ZM178.785 171.246C180.081 171.6 181.436 171.541 181.907 171.129C182.614 170.539 182.967 169.361 182.614 168.654C182.025 168.654 180.081 169.95 178.785 171.246Z" fill="#323A50"/>
<path d="M142.38 202.714L142.203 201.889L142.439 201.83C143.44 201.595 144.383 201.064 145.09 200.298C147.976 197.234 154.986 189.868 157.401 188.159C160.582 185.979 165.177 183.15 168.77 183.563C170.42 183.739 173.483 185.154 174.779 185.743C175.486 186.038 176.252 186.096 177.017 185.861C178.49 185.389 180.552 184.8 182.437 184.8C185.736 184.859 188.446 188.454 189.742 191.518C191.744 196.173 191.214 202.302 191.155 202.596L190.331 202.538C190.331 202.479 190.861 196.35 188.976 191.93C187.68 188.866 185.088 185.743 182.437 185.684C180.67 185.625 178.726 186.214 177.312 186.686C176.369 186.98 175.368 186.98 174.484 186.509C173.542 186.038 170.302 184.564 168.77 184.388C165.472 184.034 160.995 186.745 157.931 188.807C155.575 190.457 148.624 197.764 145.738 200.829C144.913 201.713 143.853 202.361 142.615 202.596L142.38 202.714Z" fill="#323A50"/>
<path d="M42.3548 276.198C42.2959 276.021 41.2356 272.545 41.0589 266.18C40.8821 260.346 41.4123 250.918 45.0057 239.014C46.0071 235.714 47.4209 232.061 48.8936 228.171C52.5458 218.684 56.6694 207.959 54.7843 201.654C53.4294 199.296 51.0142 200.534 50.8964 200.593L50.4841 199.827C51.6033 199.237 54.1363 198.766 55.4912 201.3L55.5501 201.359C57.6119 207.9 53.5473 218.389 49.6594 228.466C48.1867 232.296 46.7729 235.95 45.7715 239.25C38.8793 261.702 43.0617 275.727 43.1206 275.904L42.3548 276.198Z" fill="#323A50"/>
<path d="M38.6436 262.88C38.5258 262.821 28.7471 255.927 20.5001 244.2C15.6696 237.305 12.253 230.057 10.4858 222.75C8.24728 213.557 8.48291 204.188 11.1927 194.818C14.1969 184.505 20.4411 177.788 25.1537 173.957C30.2787 169.832 34.6379 168.182 34.8146 168.064L35.1091 168.83C35.0502 168.83 30.6911 170.539 25.6839 174.546C21.0891 178.318 14.9627 184.859 12.0174 194.936C6.0088 215.738 13.6668 232.886 21.2069 243.611C29.3951 255.22 39.0559 261.996 39.1737 262.055L38.6436 262.88Z" fill="#323A50"/>
<path d="M193.217 144.434C192.274 144.434 191.155 144.375 189.8 144.198C186.501 143.845 182.967 143.079 181.023 142.312C177.076 140.78 174.661 139.307 174.602 139.248L174.543 139.189L174.484 139.13C174.425 139.071 173.424 137.304 173.954 134.475C174.131 133.65 174.543 132.943 175.25 132.53C177.489 131.116 181.671 132.177 181.848 132.177L181.612 133.002C181.553 133.002 177.606 132 175.662 133.237C175.132 133.591 174.838 134.004 174.72 134.652C174.308 136.832 174.956 138.246 175.073 138.6C175.545 138.895 177.842 140.191 181.259 141.546C183.144 142.254 186.619 143.02 189.8 143.373C194.218 143.845 195.514 143.373 195.632 143.196C195.809 142.843 195.868 142.077 195.396 141.075C194.572 139.248 192.628 137.775 190.154 137.186C186.207 136.184 179.55 137.421 177.606 137.893C177.371 137.952 177.076 137.834 177.017 137.539C176.958 137.304 177.017 137.009 177.253 136.891C177.606 136.655 182.496 133.414 189.388 134.534C190.684 134.77 191.98 135.241 193.335 135.771C195.455 136.596 197.635 137.48 200.05 137.245C201.287 137.127 202.053 136.95 202.701 136.596C200.993 136.891 198.46 137.127 196.398 135.889L196.81 135.123C199.402 136.596 202.878 135.654 204.056 135.359C204.527 135.241 204.763 135.182 204.998 135.477C205.057 135.654 205.057 135.83 204.939 136.007C203.761 137.068 202.878 137.775 200.227 138.011C197.576 138.246 195.279 137.362 193.099 136.479C191.803 135.948 190.566 135.477 189.329 135.241C185.029 134.534 181.494 135.654 179.55 136.537C182.614 136.007 187.267 135.477 190.448 136.243C194.336 137.245 195.809 139.602 196.221 140.604C196.692 141.664 196.81 142.725 196.457 143.432C196.162 144.139 195.102 144.434 193.217 144.434Z" fill="#323A50"/>
<path d="M151.392 202.243L150.921 201.477C150.98 201.418 159.05 196.35 169.418 196.232C170.36 196.232 171.656 196.645 173.188 197.175C175.25 197.882 177.547 198.589 179.197 198.295C180.139 198.118 181.082 197.941 182.024 197.705C185.028 196.998 187.797 196.35 189.623 197.529C190.507 198.118 191.037 199.061 191.273 200.416L190.448 200.593C190.271 199.473 189.859 198.707 189.152 198.295C187.62 197.293 184.852 197.941 182.201 198.589C181.258 198.825 180.257 199.061 179.314 199.179C177.429 199.532 175.014 198.766 172.893 198.059C171.539 197.588 170.243 197.234 169.477 197.234C159.286 197.175 151.451 202.184 151.392 202.243Z" fill="#323A50"/>
<path d="M173.395 208.264L173.387 209.089L183.4 209.196L183.409 208.371L173.395 208.264Z" fill="#323A50"/>
<path d="M150.332 140.368C149.566 140.368 148.741 140.191 148.152 139.661C147.504 139.071 147.328 138.07 147.622 136.773C148.152 134.357 147.917 132.471 146.856 131.116C145.443 129.23 142.497 128.111 138.079 127.816L138.138 126.991C142.91 127.345 145.973 128.523 147.563 130.586C148.741 132.177 149.036 134.239 148.447 136.95C148.211 137.952 148.329 138.6 148.741 139.013C149.507 139.72 151.098 139.484 151.628 139.307L151.863 140.132C151.863 140.191 151.157 140.368 150.332 140.368Z" fill="#323A50"/>
<path d="M94.0164 139.248H93.7808C93.1328 139.248 92.6615 138.836 92.5437 138.188C91.8957 134.475 102.028 120.214 128.713 110.138C137.137 106.955 148.506 106.366 152.924 110.845C157.401 115.382 154.691 121.688 154.691 121.746L154.456 122.277L153.984 121.864C153.925 121.864 150.568 118.623 143.675 117.091C137.372 115.677 126.769 115.441 112.042 122.277L111.689 121.511C126.71 114.616 137.549 114.911 144.029 116.384C149.684 117.68 152.983 119.979 154.161 120.98C154.691 119.448 155.693 114.911 152.394 111.552C148.211 107.309 137.196 107.957 129.066 111.021C114.634 116.443 105.857 122.866 101.085 127.227C95.1356 132.707 93.2506 136.773 93.4862 138.129C93.5451 138.423 93.6629 138.482 93.8986 138.482C96.4316 138.541 100.084 137.598 101.851 136.714L102.205 137.48C100.378 138.305 96.6672 139.248 94.0164 139.248Z" fill="#323A50"/>
<path d="M126.062 147.086C125.297 147.086 124.531 147.086 123.824 147.027C117.05 146.555 114.281 143.609 112.219 141.488C111.453 140.721 110.805 140.014 110.098 139.602C109.922 139.484 109.745 139.366 109.509 139.307L109.274 139.248L109.215 138.954C109.215 138.718 109.392 138.364 109.745 138.129C110.746 137.539 112.514 138.07 115.047 139.72C115.518 140.073 115.989 140.368 116.402 140.721C118.935 142.548 120.879 144.021 129.361 143.727L131.128 143.668C137.255 143.432 142.557 143.196 145.384 142.43L145.62 143.255C145.384 143.314 145.148 143.373 144.854 143.432C144.088 143.609 142.969 143.904 141.555 144.316C137.726 145.377 132.248 147.086 126.062 147.086ZM110.334 138.718C110.393 138.718 110.452 138.777 110.511 138.777C111.336 139.248 111.984 139.955 112.808 140.78C114.87 142.902 117.403 145.613 123.824 146.025C129.774 146.438 135.193 145.082 139.258 143.904C136.901 144.08 134.133 144.198 131.07 144.316L129.302 144.375C120.584 144.729 118.404 143.079 115.812 141.252C115.4 140.957 114.988 140.604 114.458 140.309C111.866 138.659 110.746 138.659 110.334 138.718Z" fill="#323A50"/>
<path opacity="0.6" d="M12.3115 169.773C12.2526 170.068 12.1937 170.362 12.1348 170.598C12.3115 170.539 12.4293 170.539 12.606 170.48C12.5471 170.304 12.4293 170.009 12.3115 169.773Z" fill="#DBDBDB"/>
<path d="M147.269 143.609L147.092 142.784C147.151 142.784 151.156 141.841 154.75 139.425L155.221 140.132C151.51 142.607 147.445 143.55 147.269 143.609Z" fill="#323A50"/>
<path d="M132.307 192.638C89.8342 183.916 87.4779 156.986 86.4176 154.393C86.3587 154.334 70.9838 190.457 73.399 199.591C74.4593 203.657 97.4922 242.373 124.884 233.652C122.764 203.068 135.546 193.286 132.307 192.638Z" fill="url(#paint3_linear_3489_27181)"/>
<path d="M215.012 165.766C214.07 165.177 213.068 164.411 212.126 163.586C208.768 160.698 206.235 156.75 205.175 152.743C203.879 147.911 204.821 143.196 207.825 139.13C212.42 133.002 219.43 132.177 226.97 136.832L226.499 137.539C219.371 133.12 212.774 133.886 208.473 139.602C202.288 147.793 206.294 157.398 212.656 162.879C216.603 166.296 220.373 167.652 223.966 168.889C227.029 169.95 229.916 170.952 232.567 173.132L232.036 173.78C229.503 171.659 226.676 170.716 223.73 169.655C221.08 168.83 218.075 167.77 215.012 165.766Z" fill="#323A50"/>
<path d="M231.919 151.211C229.445 149.62 227.207 147.675 226.146 145.554C223.967 141.252 227.089 135.359 228.149 134.357C228.562 134.004 229.092 134.239 233.451 136.479C240.873 140.25 254.658 147.38 265.968 148.146C269.797 148.441 273.508 151.388 275.511 152.979C275.982 153.332 276.336 153.627 276.571 153.804C276.689 153.863 277.042 154.039 277.396 154.216C277.867 154.452 278.397 154.629 278.692 154.864L278.221 155.571C278.044 155.454 277.514 155.218 277.101 155.041C276.689 154.864 276.336 154.688 276.159 154.57C275.864 154.393 275.511 154.098 275.04 153.745C273.096 152.213 269.502 149.384 265.909 149.148C254.422 148.323 240.52 141.193 233.039 137.363C231.036 136.361 229.151 135.359 228.562 135.241C227.737 136.243 224.909 141.429 226.853 145.318C229.975 151.388 243.347 155.925 243.465 155.984H243.524L243.583 156.043C243.583 156.043 244.82 156.986 246.587 158.282L246.116 158.989C244.525 157.87 243.347 156.986 243.112 156.809C242.405 156.338 236.632 154.334 231.919 151.211Z" fill="#323A50"/>
<path d="M234.628 142.725C231.506 140.721 228.09 136.479 227.56 135.83L228.208 135.3C230.034 137.598 235.335 143.432 237.633 142.961C238.693 142.725 239.636 141.841 240.519 141.016L241.108 141.605C240.107 142.548 239.105 143.55 237.809 143.786C236.926 143.963 235.807 143.491 234.628 142.725Z" fill="#323A50"/>
<path d="M232.096 173.604C230.682 172.661 229.386 171.305 228.443 170.068L229.15 169.537C230.446 171.305 232.803 173.545 235.1 173.898C237.986 174.37 247.353 173.191 252.124 169.479C253.126 168.712 254.422 168.359 255.718 168.595C259.37 169.125 267.617 167.652 267.676 167.652L267.794 168.477C267.44 168.536 259.311 169.95 255.6 169.42C254.539 169.302 253.42 169.537 252.654 170.186C247.706 174.075 237.927 175.254 234.982 174.782C233.981 174.664 233.038 174.193 232.096 173.604Z" fill="#323A50"/>
<path d="M329.058 244.436C327.762 238.071 326.701 225.343 326.701 225.225L324.345 204.6C324.345 204.423 323.697 186.214 320.752 179.261C319.397 176.02 316.452 174.487 314.095 173.486C313.565 173.25 312.858 173.014 312.092 172.72C309.147 171.659 304.67 170.009 301.489 167.652C301.077 167.357 300.605 167.004 300.134 166.65C295.952 163.645 288.942 158.577 285.878 157.162C282.403 155.63 263.729 152.979 259.841 154.216C257.839 154.864 237.574 162.23 229.799 165.766C229.327 166.002 228.974 166.355 228.856 166.945C228.62 167.77 228.856 168.889 229.504 169.714L228.797 170.245C228.031 169.243 227.737 167.887 228.031 166.768C228.267 165.943 228.738 165.354 229.445 165.059C237.28 161.523 257.544 154.098 259.606 153.45C263.729 152.154 282.639 154.805 286.232 156.455C289.413 157.87 296.187 162.761 300.664 166.002C301.136 166.355 301.607 166.709 302.019 167.004C305.141 169.243 309.559 170.893 312.446 171.954C313.271 172.248 313.919 172.484 314.508 172.72C317.041 173.78 320.104 175.371 321.635 178.907C324.64 185.92 325.229 203.539 325.288 204.482L327.644 225.048C327.644 225.166 328.704 237.895 330 244.2L329.058 244.436Z" fill="#323A50"/>
<path d="M237.928 194.346C237.457 194.052 237.103 193.639 236.75 193.168C236.573 192.932 236.22 192.402 238.988 188.571C240.52 186.45 242.228 184.387 243.288 183.386C244.054 182.737 245.291 181.441 246.764 180.027C249.768 177.021 253.538 173.309 254.834 172.484C256.778 171.305 268.089 167.357 268.56 167.18C268.913 167.062 277.219 163.88 280.106 164.411C283.051 165 302.255 176.668 305.318 178.907C306.732 179.909 307.969 180.321 309.206 180.734C310.855 181.323 312.446 181.854 313.86 183.562C316.393 186.745 316.923 191.812 316.923 192.048L316.098 192.107C316.098 192.048 315.568 187.039 313.212 184.093C311.975 182.561 310.561 182.089 308.97 181.5C307.733 181.087 306.32 180.616 304.847 179.555C301.548 177.198 282.639 165.707 279.929 165.177C277.278 164.646 268.913 167.829 268.795 167.887C268.678 167.946 257.014 172.012 255.188 173.132C253.951 173.898 250.063 177.729 247.235 180.557C245.763 182.03 244.467 183.268 243.76 183.916C241.521 185.979 237.457 191.636 237.398 192.637C239.459 195.466 245.056 194.346 249.533 191.754C250.652 191.105 252.183 189.632 253.656 188.159C255.541 186.332 257.132 184.741 258.133 184.564C262.787 183.857 272.33 178.73 272.448 178.671L272.86 179.437C272.448 179.673 263.022 184.682 258.31 185.389C257.544 185.507 255.836 187.216 254.304 188.748C252.773 190.28 251.241 191.754 250.063 192.461C245.939 194.995 240.755 196.173 237.928 194.346Z" fill="#323A50"/>
<path d="M289.471 237.246C287.999 224.223 293.065 214.736 295.244 210.729C295.657 210.021 296.01 209.255 296.069 209.02C292.652 202.95 290.06 195.289 290.06 193.698C290.06 192.696 289.412 192.048 288.352 192.048C285.642 191.989 280.989 191.282 276.688 189.455C276.512 189.573 276.335 189.691 276.099 189.868C274.744 190.87 271.976 192.932 267.204 193.993C263.375 194.877 260.135 194.523 258.309 193.109C257.426 192.402 256.954 191.518 256.896 190.516C256.896 190.221 256.896 189.868 261.255 186.037C263.316 184.211 265.496 182.443 265.496 182.443H265.555L274.509 177.905C275.51 177.375 276.63 177.198 277.749 177.316C283.286 177.905 296.187 179.379 298.661 180.97C298.72 180.97 298.72 181.029 298.779 181.029C300.31 182.148 301.783 184.329 303.432 186.627C304.787 188.571 306.201 190.634 307.792 192.284C311.149 195.879 312.504 200.534 312.563 200.711L311.738 200.946C311.738 200.887 310.384 196.291 307.144 192.873C305.553 191.164 304.08 189.102 302.726 187.098C301.135 184.859 299.662 182.737 298.307 181.677C296.658 180.439 286.585 179.025 277.69 178.082C276.747 177.964 275.805 178.141 274.921 178.612L266.026 183.091C262.845 185.743 258.191 189.809 257.779 190.516C257.838 191.282 258.191 191.93 258.839 192.402C260.489 193.698 263.434 193.934 267.028 193.109C271.622 192.107 274.273 190.104 275.569 189.102C275.982 188.807 276.276 188.571 276.512 188.454L276.688 188.395L276.865 188.454C281.048 190.28 285.701 190.987 288.411 191.046C289.943 191.046 290.944 192.107 290.944 193.58C290.944 194.759 293.3 202.184 296.894 208.548C297.129 208.961 296.835 209.432 296.01 210.964C293.889 214.912 288.882 224.223 290.296 237.011L289.471 237.246Z" fill="#323A50"/>
<path d="M303.138 277.73C302.961 277.495 300.958 274.43 297.659 269.48C295.598 266.416 293.536 263.234 293.359 262.998C291.239 260.346 289.943 258.225 288.764 256.339C286.762 253.098 285.053 250.27 280.105 246.321C272.211 240.075 263.022 219.096 262.668 218.212C262.609 218.095 258.545 207.546 255.069 203.304C251.594 199.002 245.055 194.759 244.996 194.759L245.467 194.052C245.762 194.229 252.124 198.412 255.717 202.773C259.311 207.134 263.257 217.446 263.434 217.918C263.552 218.154 272.859 239.604 280.635 245.732C285.76 249.739 287.468 252.627 289.53 255.986C290.649 257.871 291.945 259.993 294.007 262.586C294.125 262.762 295.48 264.825 298.366 269.127C300.723 272.662 303.609 277.082 303.845 277.318L303.138 277.73Z" fill="#323A50"/>
<path d="M275.628 200.063C273.449 198.648 269.384 195.584 268.795 191.93L269.62 191.813C270.268 195.702 275.51 199.061 276.924 199.945C277.808 198.413 281.224 192.696 284.347 190.752L284.818 191.459C281.46 193.639 277.513 200.652 277.454 200.77L277.219 201.123L276.865 200.946C276.865 200.829 276.335 200.534 275.628 200.063Z" fill="#323A50"/>
<path d="M228.738 168.889V168.005C228.797 168.005 237.398 167.652 240.579 165C241.521 164.234 241.109 162.702 240.814 161.346L240.755 161.052L241.58 160.875L241.639 161.17C241.992 162.702 242.464 164.529 241.109 165.648C237.692 168.536 229.151 168.889 228.738 168.889Z" fill="#323A50"/>
<path d="M236.632 192.696L237.103 191.989C237.221 192.048 237.751 192.284 239.165 191.871C241.934 190.988 245.586 188.395 246.882 185.566C247.294 184.623 246.705 183.739 245.115 183.032L245.468 182.266C248.237 183.563 248.001 185.095 247.648 185.92C246.234 189.102 242.405 191.754 239.4 192.696C238.517 192.932 237.339 193.109 236.632 192.696Z" fill="#323A50"/>
<path d="M258.192 192.343L257.897 191.518C257.956 191.459 264.672 188.984 265.909 185.625C266.203 184.8 266.145 183.975 265.673 183.15L266.439 182.738C267.028 183.798 267.087 184.859 266.675 185.92C265.32 189.691 258.487 192.225 258.192 192.343Z" fill="#323A50"/>
<path d="M239.871 187.805C239.577 187.511 233.156 180.557 231.919 173.721L232.744 173.545C233.922 180.145 240.402 187.098 240.461 187.157L239.871 187.805Z" fill="#323A50"/>
<path d="M238.819 174.142L238.5 174.902L248.601 179.148L248.921 178.387L238.819 174.142Z" fill="#323A50"/>
<path d="M222.73 159.461C221.198 158.459 219.725 157.28 218.429 155.807C214.895 151.8 214.718 149.266 214.6 147.734C214.541 146.968 214.483 146.614 214.188 146.437C212.656 145.377 211.302 145.023 210.123 145.377C208.592 145.848 207.885 147.38 207.885 147.38L207.119 147.027C207.119 146.968 207.944 145.141 209.888 144.552C211.302 144.139 212.951 144.552 214.718 145.73C215.366 146.143 215.425 146.85 215.484 147.675C215.602 149.089 215.779 151.446 219.136 155.218C224.202 160.993 233.686 163.114 233.804 163.114L233.628 163.939C233.274 163.939 227.678 162.702 222.73 159.461Z" fill="#323A50"/>
</g>
<defs>
<linearGradient id="paint0_linear_3489_27181" x1="28.2913" y1="403.422" x2="154.343" y2="18.6715" gradientUnits="userSpaceOnUse">
<stop offset="0.37" stop-color="#DBDBDB" stop-opacity="0"/>
<stop offset="0.46" stop-color="#DBDBDB"/>
</linearGradient>
<linearGradient id="paint1_linear_3489_27181" x1="-20.3904" y1="241.35" x2="47.6267" y2="218.792" gradientUnits="userSpaceOnUse">
<stop offset="0.37" stop-color="#DBDBDB" stop-opacity="0"/>
<stop offset="0.94" stop-color="#DBDBDB"/>
</linearGradient>
<linearGradient id="paint2_linear_3489_27181" x1="53.7645" y1="306.18" x2="135.164" y2="227.35" gradientUnits="userSpaceOnUse">
<stop offset="0.37" stop-color="#DBDBDB" stop-opacity="0"/>
<stop offset="0.94" stop-color="#DBDBDB"/>
</linearGradient>
<linearGradient id="paint3_linear_3489_27181" x1="100.65" y1="239.577" x2="104.468" y2="166.453" gradientUnits="userSpaceOnUse">
<stop offset="0.56" stop-color="#DBDBDB" stop-opacity="0"/>
<stop offset="0.94" stop-color="#DBDBDB"/>
</linearGradient>
<clipPath id="clip0_3489_27181">
<rect width="330" height="330" fill="white"/>
</clipPath>
</defs>
</svg>
