<svg width="330" height="330" viewBox="0 0 330 330" fill="none" xmlns="http://www.w3.org/2000/svg">
<g clip-path="url(#clip0_3489_27148)">
<path opacity="0.3" d="M9.19373 209.079C7.19016 232.061 27.1669 256.163 41.2509 265.827C41.7223 270.305 42.0759 273.9 42.4294 276.905C42.4294 276.905 50.8562 291.52 67.3562 299.298C91.1044 310.495 118.153 304.72 144.612 304.72C144.612 304.72 145.967 288.161 151.035 276.434C155.985 264.943 163.587 252.627 163.587 252.627C163.587 252.627 174.96 253.039 181.56 251.979C189.103 250.741 189.515 248.914 191.224 244.141C197.588 226.698 206.015 197.175 206.015 176.904C206.015 156.632 198.649 152.979 198.06 147.557C197.647 143.668 199.651 131.529 199.946 127.993C200.358 122.395 194.642 106.661 192.933 104.245C191.401 102.005 194.701 102.595 193.994 100.002C193.051 96.6429 192.815 93.2251 191.696 90.1608C178.672 56.4536 152.626 44.2554 118.742 48.1447C116.267 48.4394 107.133 46.9072 104.599 46.9661C47.0848 48.7929 -15.5563 110.373 16.2652 185.566C16.2652 185.625 9.19373 195.171 9.19373 209.079Z" fill="url(#paint0_linear_3489_27148)"/>
<path d="M41.9571 252.745C46.0232 233.416 50.266 226.698 52.6232 219.332C53.0357 218.036 52.5053 216.739 52.9178 215.62C50.5607 215.855 48.2035 215.738 46.0821 214.971C43.9017 214.205 39.541 200.888 38.1267 199.355C35.5928 196.586 35.416 193.168 34.1196 189.632C30.5249 179.379 33.1767 169.066 33.0589 169.125C33.3535 169.891 22.7464 173.957 16.2053 183.975C16.2053 183.975 9.13387 193.521 9.13387 207.429C7.1303 230.411 27.1071 254.513 41.191 264.177C41.6624 268.655 42.016 272.25 42.3696 275.255C42.4285 275.196 39.4232 264.943 41.9571 252.745Z" fill="url(#paint1_linear_3489_27148)"/>
<path d="M156.691 250.505C145.082 250.27 136.655 249.857 128.228 249.739C124.928 250.211 102.064 249.857 98.8821 248.914C73.0124 240.841 67.0017 216.504 65.941 213.852C65.8821 213.793 66.3535 213.086 66.3535 213.027C66.2356 212.968 66.1178 212.909 66.0588 212.85C65.7642 212.673 65.4696 212.496 65.2338 212.32C64.4088 212.968 63.4071 213.498 62.4053 213.852C63.0535 214.559 63.5838 215.325 63.7017 216.268C65.3517 225.579 66.3535 235.007 68.7696 244.141C69.8303 248.207 71.2446 252.214 72.7767 256.221C73.4838 258.107 74.191 259.993 74.9571 261.82C75.1338 262.232 75.3106 262.645 75.4285 262.998C75.4874 263.175 75.6053 263.352 75.6642 263.529C76.0178 264.354 76.4303 265.238 76.7838 266.063C79.966 273.252 83.6196 280.264 87.5088 287.041C90.8678 292.934 94.5213 298.65 98.2338 304.366C113.378 304.955 129.053 303.011 144.552 303.011C144.552 303.011 145.907 286.452 150.975 274.725C155.63 263.941 162.584 252.509 163.468 251.095C161.17 250.8 158.989 250.564 156.691 250.505Z" fill="url(#paint2_linear_3489_27148)"/>
<path d="M172.189 251.448C161.582 251.448 144.67 250.8 138.659 250.388C134.652 250.093 128.523 250.211 121.923 250.329C115.618 250.447 109.077 250.564 103.832 250.329C92.7537 249.857 80.0251 241.018 72.1287 228.172C67.4733 220.629 66.1769 215.914 65.6465 213.911C65.5876 213.616 65.4698 213.322 65.4108 213.086C65.1751 213.145 64.8215 213.322 64.468 213.498C62.7001 214.264 59.4001 215.738 55.0394 216.032C48.6162 216.563 45.6698 215.384 45.6698 215.325C45.5519 215.266 45.3751 215.148 43.784 212.32C43.1358 211.141 41.7805 208.607 40.1894 205.307C37.7144 200.239 34.4733 192.932 32.8823 186.568C30.643 177.729 31.9983 169.597 34.0019 168.418C35.8876 167.298 39.9537 166.12 44.3733 166.179C47.084 166.238 50.384 166.945 53.9787 167.652C60.4019 169.007 67.6501 170.48 71.5394 168.005C78.6108 163.468 75.0751 141.547 75.0162 141.311L75.8412 141.134C76.018 142.077 79.4948 163.822 71.9519 168.654C67.768 171.364 60.6376 169.832 53.743 168.418C50.2073 167.711 46.9073 167.004 44.3144 166.945C39.718 166.886 35.8287 168.182 34.3555 169.007C33.0001 169.832 31.3501 177.139 33.6483 186.214C36.5948 197.823 45.1983 213.263 46.0233 214.441C46.4948 214.618 49.3233 215.443 54.9215 215.03C59.1644 214.677 62.3465 213.322 64.0555 212.555C65.0573 212.143 65.4108 211.966 65.7055 212.084C66.059 212.202 66.118 212.555 66.4126 213.498C66.943 215.502 68.2394 220.098 72.7769 227.523C80.5555 240.075 92.9894 248.855 103.773 249.268C109.018 249.504 115.559 249.386 121.864 249.268C128.405 249.15 134.652 249.032 138.659 249.327C146.379 249.857 172.425 250.741 179.261 250.152C186.038 249.563 187.923 247.382 189.514 244.789C191.223 242.079 199.12 216.445 201.123 207.193C206.78 183.445 205.13 168.948 204.423 165.118C203.48 159.284 200.298 152.507 198.589 148.913C197.823 147.263 197.411 146.438 197.352 146.084C197.234 145.436 197.588 142.136 198.177 136.832C198.648 132.707 199.12 128.464 199.061 127.286C198.825 120.804 195.407 109.313 193.757 105.836C192.343 102.83 191.754 102.477 191.754 102.477C191.754 102.477 191.813 102.477 191.872 102.536L192.048 101.711C192.697 101.829 193.816 103.891 194.582 105.541C196.291 109.077 199.709 120.745 200.004 127.345C200.063 128.582 199.591 132.648 199.12 137.009C198.648 140.957 198.177 145.436 198.295 146.025C198.354 146.32 198.884 147.38 199.473 148.677C201.182 152.389 204.364 159.225 205.366 165.118C206.014 169.066 207.723 183.68 202.007 207.547C199.945 217.093 192.107 242.55 190.339 245.379C188.572 248.148 186.568 250.505 179.438 251.095C177.847 251.389 175.313 251.448 172.189 251.448Z" fill="#323A50"/>
<path d="M144.906 303.659L144.081 303.6C144.081 303.423 145.201 288.337 148.913 278.32C153.215 266.652 163.233 250.859 163.351 250.682L164.058 251.154C163.94 251.33 153.981 267.005 149.679 278.614C145.967 288.514 144.906 303.541 144.906 303.659Z" fill="#323A50"/>
<path d="M45.6111 215.443C38.6575 212.555 31.8218 207.193 25.87 199.945C19.7415 192.461 14.7325 183.209 11.5504 173.25C6.60039 158.046 1.47361 127.463 22.3933 93.225C27.6379 84.6215 34.2968 76.9018 42.2522 70.3018C49.029 64.6447 56.7486 59.7536 65.1754 55.8054C80.0254 48.7929 94.4629 45.9054 103.008 45.5518C111.552 45.1393 119.331 46.6126 126.108 49.8536C131.883 52.6233 136.891 56.6304 141.134 61.8751C151.211 74.25 153.391 89.0411 152.684 91.8108C152.39 92.9893 151.859 93.7554 151.093 94.109C149.502 94.875 147.322 93.9322 144.788 92.8125L144.611 92.7536C136.42 89.159 118.506 85.5054 90.8682 101.534C82.5004 106.366 78.8468 113.732 77.1968 119.036C75.4879 124.811 75.7236 129.407 75.7236 129.525L74.8986 129.584C74.8986 129.407 74.604 124.752 76.4307 118.859C78.0807 113.379 81.8522 105.836 90.4557 100.886C103.479 93.4018 115.736 89.3947 126.991 88.9822C133.591 88.7465 139.838 89.8072 144.965 92.0465L145.141 92.1054C147.381 93.1072 149.502 93.9911 150.681 93.4018C151.211 93.1661 151.624 92.5768 151.859 91.6929C152.625 88.6875 149.856 74.0733 140.486 62.5233C131.293 51.209 118.683 45.8465 103.008 46.4947C94.5218 46.9072 80.2611 49.7358 65.529 56.6893C47.1432 65.2929 32.8825 77.7858 23.1593 93.6965C2.41646 127.639 7.54325 157.929 12.3754 173.014C18.7397 192.696 31.645 208.725 45.9647 214.677L45.6111 215.443Z" fill="#323A50"/>
<path d="M188.807 103.42C185.036 103.42 180.145 100.532 174.488 97.2322C167.475 93.1072 159.52 88.4518 152.331 88.7465L152.272 87.9215C159.697 87.6268 167.77 92.3411 174.9 96.5251C180.381 99.7661 185.625 102.771 189.161 102.595C190.752 102.477 191.931 102.064 192.638 101.239C193.345 100.473 193.581 99.2947 193.404 97.7626C193.404 97.7036 192.874 92.3411 188.984 84.2679C184.624 75.1929 178.023 66.884 169.479 59.7536C155.1 47.6733 137.598 46.5536 128.465 46.9661C104.716 48.0268 83.2074 54.1554 64.6449 65.234L64.2324 64.5268C82.9717 53.3304 104.54 47.1429 128.465 46.0822C134.829 45.7875 141.016 46.3768 146.85 47.6733C155.69 49.7358 163.527 53.5072 170.068 59.0465C178.731 66.2947 185.39 74.6626 189.809 83.8554C193.757 92.1054 194.288 97.6447 194.288 97.6447C194.465 99.4715 194.111 100.827 193.286 101.77C192.461 102.771 191.047 103.302 189.22 103.42C189.043 103.42 188.925 103.42 188.807 103.42Z" fill="#323A50"/>
<path d="M158.931 173.898C155.749 173.898 152.861 173.25 151.682 170.009C150.386 166.179 153.45 160.404 153.568 160.168L154.334 160.58C154.334 160.639 151.329 166.296 152.507 169.773C153.686 173.132 156.986 173.25 160.875 173.014C165.059 172.779 175.607 171.07 179.674 167.593C183.445 164.293 184.741 160.698 183.15 157.929C181.559 155.218 177.552 149.62 177.493 149.561C177.257 149.148 171.482 140.368 170.186 136.95C170.127 136.714 170.009 136.479 169.95 136.243C168.713 133.061 167.357 129.466 167.947 125.164C168.477 120.863 169.479 117.621 172.602 114.557C175.018 112.2 179.084 109.077 186.156 109.43C192.756 109.725 199.827 112.259 200.711 113.438C201.3 114.263 201.418 116.738 200.475 118.329C199.886 119.33 198.943 119.802 197.765 119.625C195.82 119.389 194.17 118.859 192.815 118.446C191.99 118.211 191.224 117.975 190.634 117.916C189.279 117.739 187.275 118.329 187.275 118.329L187.04 117.504C187.099 117.504 189.22 116.855 190.752 117.032C191.341 117.091 192.107 117.327 193.05 117.621C194.347 118.034 195.997 118.505 197.882 118.741C198.707 118.859 199.297 118.564 199.768 117.857C200.593 116.502 200.357 114.38 200.063 113.909C199.532 113.143 192.991 110.55 186.215 110.255C179.497 109.961 175.607 112.907 173.309 115.205C170.304 118.093 169.42 121.216 168.89 125.341C168.359 129.407 169.656 132.766 170.893 136.007C170.952 136.243 171.07 136.479 171.129 136.714C172.366 140.014 178.259 149.03 178.318 149.148C178.318 149.207 182.384 154.805 184.034 157.516C185.861 160.698 184.506 164.705 180.381 168.3C176.138 171.954 165.354 173.721 161.111 173.957C160.286 173.898 159.579 173.898 158.931 173.898Z" fill="#323A50"/>
<path d="M176.255 176.02C176.255 175.961 176.137 174.252 176.962 172.366C177.08 172.13 177.257 171.895 177.434 171.6C177.139 171.482 176.904 171.305 176.668 171.188C176.373 170.952 176.02 170.716 175.607 170.421C173.662 168.948 170.48 166.473 166.827 166.238C164.175 166.061 162.525 166.945 161.641 167.652C163.821 167.416 167.887 167.239 168.889 168.595C169.125 168.889 169.302 169.42 168.948 170.127C168.889 170.304 168.654 170.834 166.237 171.305C163.055 171.954 156.573 172.366 154.923 170.834C152.861 168.948 153.45 166.355 153.45 166.296L154.275 166.532C154.275 166.591 153.804 168.713 155.512 170.304C156.337 171.07 159.991 171.364 163.939 170.893C166.886 170.539 168.064 170.068 168.241 169.832C168.418 169.42 168.3 169.243 168.241 169.184C167.475 168.182 163.114 168.359 160.58 168.713L159.637 168.83L160.168 168.064C160.227 167.946 162.23 165.118 166.945 165.471C170.834 165.766 174.193 168.3 176.196 169.832C176.609 170.127 176.963 170.363 177.198 170.598C177.434 170.775 177.729 170.952 178.023 171.07C179.379 169.538 181.677 167.946 182.737 167.888C183.209 167.888 183.386 168.123 183.445 168.3C184.034 169.361 183.621 171.07 182.561 171.895C181.736 172.602 179.909 172.602 178.259 172.071C178.023 172.366 177.846 172.602 177.729 172.838C176.962 174.488 177.08 176.079 177.08 176.079H176.255V176.02ZM178.907 171.246C180.204 171.6 181.559 171.541 182.03 171.129C182.737 170.539 183.091 169.361 182.737 168.654C182.148 168.654 180.204 169.95 178.907 171.246Z" fill="#323A50"/>
<path d="M142.431 202.773L142.254 201.948L142.49 201.889C143.491 201.654 144.434 201.123 145.141 200.357C148.029 197.293 155.041 189.868 157.516 188.218C160.699 186.038 165.354 183.209 168.949 183.621C170.599 183.798 173.722 185.213 174.959 185.802C175.666 186.096 176.432 186.214 177.199 185.92C178.672 185.448 180.734 184.859 182.62 184.859C185.92 184.918 188.631 188.571 189.986 191.636C191.99 196.35 191.459 202.479 191.4 202.714L190.575 202.655C190.575 202.596 191.106 196.468 189.22 191.989C187.924 188.925 185.331 185.802 182.62 185.743C180.852 185.684 178.849 186.273 177.493 186.745C176.55 187.039 175.549 187.039 174.665 186.568C173.722 186.096 170.481 184.623 168.949 184.446C165.649 184.034 161.17 186.804 158.106 188.925C155.749 190.575 148.736 197.882 145.849 200.946C145.024 201.83 143.904 202.479 142.725 202.714L142.431 202.773Z" fill="#323A50"/>
<path d="M42.1345 276.434C42.0756 276.257 41.0149 272.78 40.8381 266.416C40.6613 260.582 41.1917 251.095 44.8452 239.191C45.847 235.891 47.2613 232.238 48.7935 228.348C52.447 218.861 56.631 208.077 54.6863 201.771C53.331 199.414 50.9149 200.652 50.797 200.711L50.3845 199.945C51.5042 199.355 54.0381 198.884 55.4524 201.418L55.5113 201.477C57.5738 208.077 53.5077 218.566 49.6185 228.643C48.1452 232.473 46.731 236.127 45.7292 239.427C38.8345 261.938 43.0185 276.021 43.0774 276.139L42.1345 276.434Z" fill="#323A50"/>
<path d="M38.4221 263.116C38.3042 263.057 28.4632 256.163 20.2132 244.377C15.381 237.482 11.9632 230.234 10.1953 222.868C7.95601 213.675 8.19173 204.247 10.9024 194.877C13.9078 184.564 20.2132 177.788 24.9274 174.016C30.0542 169.891 34.4149 168.241 34.5917 168.123L34.8864 168.889C34.8274 168.889 30.4667 170.598 25.3989 174.664C20.8024 178.377 14.6149 184.977 11.7274 195.113C5.6578 215.973 13.3774 233.122 20.9203 243.905C29.1114 255.573 38.8346 262.35 38.8935 262.409L38.4221 263.116Z" fill="#323A50"/>
<path d="M151.447 202.243L150.976 201.536C151.035 201.477 159.108 196.409 169.538 196.291C170.481 196.291 171.777 196.704 173.31 197.234C175.372 197.941 177.67 198.707 179.32 198.413C180.263 198.236 181.206 198 182.149 197.823C185.154 197.116 187.983 196.468 189.81 197.646C190.693 198.236 191.224 199.179 191.46 200.534L190.635 200.711C190.458 199.591 190.045 198.825 189.338 198.413C187.806 197.411 185.036 198.059 182.326 198.707C181.383 198.943 180.381 199.179 179.438 199.296C177.552 199.65 175.136 198.825 173.015 198.118C171.66 197.646 170.304 197.234 169.538 197.234C159.402 197.293 151.506 202.243 151.447 202.243Z" fill="#323A50"/>
<path d="M173.529 208.365L173.521 209.19L183.538 209.297L183.547 208.472L173.529 208.365Z" fill="#323A50"/>
<path d="M150.386 140.309C149.62 140.309 148.795 140.132 148.206 139.602C147.558 139.012 147.381 138.011 147.676 136.714C148.206 134.298 147.97 132.412 146.91 131.057C145.495 129.171 142.549 128.052 138.07 127.757L138.129 126.932C142.902 127.286 145.967 128.464 147.558 130.527C148.736 132.118 149.031 134.239 148.442 136.891C148.206 137.893 148.324 138.6 148.736 138.954C149.502 139.661 151.094 139.425 151.683 139.248L151.919 140.073C151.919 140.073 151.211 140.309 150.386 140.309Z" fill="#323A50"/>
<path d="M93.9328 139.189H93.6971C93.0489 139.189 92.5774 138.777 92.4596 138.129C91.8114 134.416 102.006 120.097 128.701 110.02C137.127 106.838 148.56 106.248 152.979 110.727C157.458 115.264 154.747 121.629 154.747 121.688L154.511 122.218L154.04 121.805C153.981 121.805 150.563 118.564 143.727 117.032C137.422 115.618 126.756 115.323 112.024 122.277L111.67 121.511C126.697 114.498 137.54 114.793 144.022 116.266C149.679 117.563 152.979 119.861 154.158 120.863C154.688 119.33 155.69 114.793 152.39 111.375C148.147 107.132 137.186 107.78 128.995 110.845C114.558 116.325 105.777 122.689 100.945 127.109C94.9346 132.589 93.1078 136.714 93.3435 138.011C93.4024 138.305 93.5203 138.364 93.756 138.364C96.2899 138.423 99.9435 137.48 101.711 136.597L102.124 137.363C100.297 138.247 96.5846 139.189 93.9328 139.189Z" fill="#323A50"/>
<path d="M126.049 147.027C125.283 147.027 124.517 147.027 123.81 146.968C117.033 146.496 114.263 143.55 112.201 141.429C111.435 140.663 110.786 139.955 110.079 139.543C109.902 139.425 109.667 139.307 109.49 139.248L109.254 139.189L109.195 138.895C109.195 138.659 109.372 138.305 109.726 138.07C110.727 137.48 112.495 138.011 115.029 139.661C115.501 140.014 115.972 140.309 116.385 140.663C118.919 142.489 120.922 143.963 129.349 143.668L131.117 143.609C137.245 143.373 142.608 143.138 145.377 142.371L145.613 143.196C145.377 143.255 145.142 143.314 144.847 143.373C144.081 143.55 142.961 143.845 141.547 144.257C137.776 145.318 132.236 147.027 126.049 147.027ZM110.315 138.659C110.374 138.659 110.433 138.718 110.492 138.718C111.317 139.189 111.965 139.896 112.79 140.721C114.852 142.902 117.386 145.554 123.869 146.025C129.82 146.438 135.242 145.082 139.308 143.904C136.951 144.08 134.181 144.198 131.117 144.316L129.349 144.375C120.569 144.729 118.388 143.079 115.854 141.193C115.442 140.898 115.029 140.545 114.499 140.25C111.847 138.541 110.669 138.541 110.315 138.659Z" fill="#323A50"/>
<path d="M156.75 136.479C156.75 133.238 152.92 128.523 149.03 126.225C144.139 123.338 136.243 121.864 128.052 121.864C113.32 121.864 103.479 129.172 103.479 136.479C103.479 143.786 112.082 151.27 130.114 149.679C137.952 148.972 145.082 147.145 149.973 144.434C154.157 142.077 156.75 139.838 156.75 136.479Z" fill="#293C4F"/>
<path d="M123.109 134.575L110.123 137.784L110.321 138.585L123.307 135.376L123.109 134.575Z" fill="#E8E8E8"/>
<path d="M133.238 141.016C129.172 141.016 126.343 140.25 124.634 138.6C123.043 137.068 122.866 135.123 122.866 133.768C122.866 128.229 127.05 125.577 135.359 125.989C139.013 126.166 143.197 127.286 145.495 128.641C147.263 129.702 149.207 131.941 149.207 133.65C149.207 135.536 147.616 136.655 145.907 137.598C145.023 138.07 140.25 140.604 135.889 140.898C134.947 140.957 134.063 141.016 133.238 141.016ZM133.65 126.814C126.932 126.814 123.691 129.113 123.691 133.768C123.691 136.773 124.752 140.132 133.238 140.132C134.063 140.132 134.947 140.073 135.83 140.014C139.072 139.779 143.079 138.129 145.495 136.773C147.557 135.654 148.323 134.77 148.323 133.591C148.323 132.354 146.791 130.35 145.082 129.348C142.843 128.052 138.836 126.991 135.3 126.814C134.711 126.814 134.18 126.814 133.65 126.814Z" fill="#E8E8E8"/>
<path d="M169.833 135.477C169.185 132.589 167.358 130.468 169.362 129.113C173.428 126.402 182.974 124.163 189.869 124.163C202.185 124.163 206.604 134.416 204.188 140.663C201.831 146.85 199.474 151.034 186.569 149.914C178.731 149.207 170.658 139.307 169.833 135.477Z" fill="#293C4F"/>
<path d="M151.565 136.184L149.562 134.357C152.508 131.057 159.933 123.514 166.062 124.575C168.654 125.047 170.658 126.932 171.954 130.232L169.42 131.234C168.478 128.877 167.24 127.522 165.59 127.227C161.701 126.579 155.749 131.411 151.565 136.184Z" fill="#293C4F"/>
<path d="M193.817 140.545C192.756 140.545 191.518 140.486 190.222 140.309C186.51 139.838 182.62 137.363 181.854 136.95C180.44 136.007 179.144 134.946 179.261 133.296C179.32 131.823 181.088 129.938 182.679 129.113C184.683 128.052 188.277 127.286 191.342 127.286H191.519C195.702 127.345 198.649 128.229 200.299 129.938C201.419 131.116 201.89 132.707 201.772 134.711C201.477 138.6 198.885 140.545 193.817 140.545ZM191.283 128.052C188.336 128.052 184.977 128.759 183.033 129.761C181.56 130.527 180.145 132.236 180.086 133.238C180.027 134.239 180.676 135.005 182.326 136.125C184.329 137.421 187.57 139.013 190.34 139.366C191.636 139.543 192.815 139.602 193.817 139.602C199.769 139.602 200.711 136.891 200.829 134.534C200.947 132.766 200.535 131.411 199.533 130.409C198.06 128.877 195.349 128.052 191.401 128.052H191.283Z" fill="#E8E8E8"/>
<path d="M181.677 135.864L173.916 137.864L174.122 138.662L181.883 136.663L181.677 135.864Z" fill="#E8E8E8"/>
<path d="M130.115 195.82C86.0364 186.804 83.5614 158.872 82.5007 156.102C82.4417 156.043 66.4721 193.522 68.9471 203.009C70.0667 207.252 93.9328 247.382 122.395 238.366C120.215 206.604 133.533 196.527 130.115 195.82Z" fill="url(#paint3_linear_3489_27148)"/>
<path d="M128.995 202.42V201.771C129.584 201.771 130.292 201.595 130.94 201.3L131.175 201.889C130.409 202.243 129.643 202.42 128.995 202.42ZM126.756 202.125C126.167 201.948 125.459 201.771 124.693 201.536L124.87 200.946C125.636 201.182 126.343 201.418 126.933 201.536L126.756 202.125ZM133.061 200.946L132.708 200.416C133.238 200.062 133.827 199.65 134.417 199.179L134.829 199.65C134.24 200.121 133.65 200.593 133.061 200.946ZM122.69 200.887C122.042 200.652 121.393 200.416 120.686 200.18L120.922 199.591C121.629 199.827 122.277 200.062 122.925 200.298L122.69 200.887ZM118.624 199.414C117.975 199.179 117.327 198.943 116.62 198.648L116.856 198.059C117.563 198.295 118.211 198.589 118.859 198.825L118.624 199.414ZM136.42 198.177L135.949 197.705C136.42 197.234 136.892 196.704 137.422 196.173L137.893 196.586C137.363 197.175 136.892 197.705 136.42 198.177ZM114.617 197.882C113.968 197.646 113.32 197.352 112.613 197.057L112.849 196.468C113.497 196.762 114.145 196.998 114.852 197.234L114.617 197.882ZM110.668 196.291C110.02 195.996 109.372 195.761 108.724 195.466L108.959 194.877C109.608 195.171 110.256 195.466 110.904 195.702L110.668 196.291ZM139.308 194.995L138.836 194.582C139.249 194.052 139.72 193.521 140.133 192.932L140.663 193.345C140.192 193.934 139.72 194.464 139.308 194.995ZM106.779 194.582C106.131 194.288 105.483 193.993 104.834 193.698L105.129 193.109C105.777 193.404 106.425 193.698 107.074 193.993L106.779 194.582ZM102.89 192.755C102.242 192.461 101.593 192.107 100.945 191.812L101.24 191.223C101.829 191.518 102.477 191.871 103.125 192.166L102.89 192.755ZM141.9 191.636L141.37 191.223C141.783 190.693 142.195 190.104 142.608 189.514L143.138 189.927C142.725 190.516 142.313 191.105 141.9 191.636ZM99.0594 190.811C98.4112 190.457 97.763 190.104 97.1737 189.809L97.4683 189.279C98.0576 189.573 98.7058 189.927 99.3541 190.28L99.0594 190.811ZM205.013 189.161C205.013 189.161 204.247 189.102 203.009 188.925L203.127 188.277C204.247 188.454 205.013 188.512 205.013 188.512V189.161ZM95.3469 188.748C94.6987 188.395 94.1094 187.982 93.5201 187.629L93.8737 187.098C94.463 187.452 95.0523 187.805 95.7005 188.159L95.3469 188.748ZM200.947 188.454C200.24 188.277 199.533 188.041 198.884 187.805L199.12 187.216C199.768 187.452 200.417 187.688 201.124 187.805L200.947 188.454ZM144.317 188.041L143.727 187.746C144.022 187.157 144.258 186.509 144.552 185.802L145.142 186.038C144.906 186.804 144.611 187.452 144.317 188.041ZM196.881 186.921C196.292 186.509 195.761 186.038 195.231 185.448L195.702 185.036C196.174 185.566 196.704 186.037 197.175 186.391L196.881 186.921ZM91.6933 186.509C91.1041 186.096 90.4558 185.684 89.9255 185.271L90.338 184.741C90.8683 185.154 91.4576 185.566 92.1058 185.979L91.6933 186.509ZM145.79 183.975L145.2 183.798C145.377 183.15 145.554 182.502 145.731 181.736L146.32 181.913C146.143 182.679 145.967 183.327 145.79 183.975ZM88.2165 183.975C87.6862 183.504 87.1558 183.091 86.7433 182.679L86.6255 182.561L87.0969 182.089L87.2148 182.207C87.6862 182.62 88.1576 183.032 88.688 183.504L88.2165 183.975ZM193.993 183.68C193.64 183.091 193.286 182.443 192.992 181.736L193.581 181.441C193.875 182.148 194.229 182.737 194.583 183.268L193.993 183.68ZM85.1523 180.97C84.6808 180.439 84.2683 179.85 83.8558 179.202L84.3862 178.848C84.7987 179.437 85.2112 180.027 85.6237 180.557L85.1523 180.97ZM146.733 179.791L146.143 179.673C146.261 179.025 146.379 178.318 146.556 177.611L147.204 177.729C146.968 178.436 146.85 179.143 146.733 179.791ZM192.108 179.791C191.872 179.202 191.636 178.495 191.4 177.788L191.99 177.552C192.225 178.259 192.461 178.907 192.697 179.555L192.108 179.791ZM82.7362 177.375C82.4415 176.786 82.1469 176.079 81.8523 175.43L82.4415 175.195C82.7362 175.843 82.9719 176.491 83.3255 177.139L82.7362 177.375ZM190.752 175.666C190.575 175.018 190.34 174.37 190.163 173.604L190.752 173.427C190.988 174.193 191.165 174.841 191.342 175.489L190.752 175.666ZM147.44 175.607L146.792 175.489C146.909 174.782 147.027 174.134 147.086 173.427L147.381 173.486L147.675 173.545C147.675 174.193 147.558 174.9 147.44 175.607ZM81.1451 173.368C80.9094 172.72 80.7326 172.013 80.5558 171.305L81.1451 171.129C81.3219 171.836 81.4987 172.484 81.6755 173.132L81.1451 173.368ZM189.515 171.6C189.397 171.129 189.22 170.598 189.102 170.127L188.925 169.538L189.515 169.361L189.692 169.95C189.809 170.421 189.986 170.952 190.104 171.423L189.515 171.6ZM148.147 171.364L147.499 171.246C147.617 170.539 147.734 169.832 147.852 169.125L148.5 169.243C148.383 169.95 148.265 170.657 148.147 171.364ZM80.1433 169.184C80.0255 168.477 79.9076 167.77 79.8487 167.062L80.4969 167.004C80.5558 167.711 80.6737 168.418 80.7916 169.066L80.1433 169.184ZM188.395 167.475C188.159 166.709 187.983 166.002 187.806 165.413L188.395 165.236C188.572 165.825 188.808 166.532 188.984 167.298L188.395 167.475ZM148.854 167.18L148.265 167.062C148.442 166.296 148.559 165.589 148.736 165L149.325 165.177C149.149 165.766 149.031 166.414 148.854 167.18ZM79.613 164.941C79.5541 164.234 79.554 163.527 79.4951 162.761H80.1433C80.1433 163.468 80.2023 164.175 80.2023 164.882L79.613 164.941ZM187.158 163.409C186.922 162.643 186.627 162.054 186.392 161.464L186.981 161.229C187.217 161.818 187.511 162.466 187.747 163.232L187.158 163.409ZM149.856 163.055L149.267 162.879C149.502 162.112 149.738 161.405 150.033 160.875L150.622 161.111C150.327 161.7 150.092 162.348 149.856 163.055ZM80.1433 160.639H79.4951C79.4951 159.932 79.554 159.225 79.554 158.459L80.2023 158.518C80.2023 159.225 80.1433 159.932 80.1433 160.639ZM185.449 159.579C185.036 158.871 184.565 158.4 184.093 158.164L184.388 157.634C184.918 157.929 185.449 158.459 185.979 159.225L185.449 159.579ZM151.624 159.343L151.152 158.93C151.506 158.459 151.918 158.105 152.331 157.87C152.508 157.752 152.684 157.634 152.861 157.575L153.156 158.105C152.979 158.223 152.802 158.282 152.625 158.4C152.272 158.636 151.977 158.93 151.624 159.343ZM155.042 157.163L154.806 156.573C155.395 156.279 156.102 156.043 156.809 155.748L157.045 156.337C156.338 156.632 155.69 156.927 155.042 157.163ZM182.561 156.632L181.383 154.864L181.913 154.511L183.092 156.279L182.561 156.632ZM80.379 156.396L79.7308 156.337C79.7898 155.63 79.9076 154.923 79.9665 154.216L80.6148 154.275C80.4969 154.982 80.438 155.689 80.379 156.396ZM158.99 155.63L158.813 155.041C159.638 154.746 160.404 154.57 160.875 154.452L161.052 155.041C160.581 155.159 159.874 155.395 158.99 155.63ZM163.056 154.157L162.761 153.568C163.409 153.214 164.058 152.92 164.706 152.566L165 153.155C164.293 153.509 163.704 153.862 163.056 154.157ZM180.204 153.096L179.733 152.448C179.615 152.389 179.261 152.095 178.731 151.8L179.025 151.27C179.556 151.564 179.909 151.682 180.027 151.918H180.086L180.617 152.743L180.204 153.096ZM166.886 152.33L166.65 151.741C167.358 151.446 168.006 151.152 168.654 150.916L168.89 151.505C168.242 151.741 167.534 151.977 166.886 152.33ZM80.9094 152.212L80.2612 152.154L80.3201 151.8C80.3791 151.211 80.438 150.621 80.5558 150.032L81.2041 150.091C81.1451 150.68 81.0273 151.27 80.9683 151.859L80.9094 152.212ZM176.904 150.916C176.256 150.68 175.549 150.504 174.9 150.445L174.959 149.796C175.667 149.914 176.374 150.091 177.081 150.327L176.904 150.916ZM170.834 150.798L170.658 150.209C171.483 149.973 172.19 149.796 172.838 149.737L172.897 150.386C172.308 150.445 171.6 150.621 170.834 150.798ZM81.4398 147.97L80.7916 147.852C80.9094 147.086 81.0273 146.379 81.2041 145.73L81.7933 145.848C81.6755 146.555 81.5576 147.204 81.4398 147.97ZM82.3237 143.845L81.7344 143.668C81.9701 142.961 82.2058 142.254 82.4415 141.605L83.0308 141.841C82.7362 142.489 82.5005 143.137 82.3237 143.845ZM83.9737 140.073L83.4433 139.72C83.8558 139.071 84.3273 138.482 84.7987 138.011L85.2701 138.482C84.7987 138.895 84.3862 139.484 83.9737 140.073ZM86.8612 137.127L86.5076 136.596C86.5666 136.537 86.6844 136.479 86.7433 136.42C87.2737 136.125 87.804 135.83 88.3344 135.477L88.629 136.007C88.0987 136.302 87.5683 136.596 87.038 136.95C87.038 137.068 86.9201 137.127 86.8612 137.127ZM90.5737 135.064L90.279 134.534C90.8683 134.18 91.5165 133.827 92.1648 133.532L92.4594 134.121C91.8112 134.357 91.163 134.711 90.5737 135.064ZM94.3451 133.061L94.0505 132.471C95.2291 131.882 95.9951 131.529 95.9951 131.529L96.2898 132.118C96.2308 132.118 95.4648 132.471 94.3451 133.061Z" fill="#323A50"/>
<path opacity="0.6" d="M95.9362 177.022L87.9219 170.657L98.588 147.322L107.545 151.859L95.9362 177.022Z" fill="#FF0000"/>
<path opacity="0.6" d="M113.673 182.561L102.595 180.145L109.313 152.743L119.389 154.923L113.673 182.561Z" fill="#FF0000"/>
<path opacity="0.6" d="M129.82 184.152L118.447 183.504L121.453 155.218L132.001 155.866L129.82 184.152Z" fill="#FF0000"/>
<path opacity="0.6" d="M143.963 182.796L133.474 183.975L134.181 155.807L144.965 154.923L143.963 182.796Z" fill="#FF0000"/>
</g>
<defs>
<linearGradient id="paint0_linear_3489_27148" x1="30.7432" y1="386.421" x2="152.509" y2="33.4345" gradientUnits="userSpaceOnUse">
<stop offset="0.37" stop-color="#DBDBDB" stop-opacity="0"/>
<stop offset="0.57" stop-color="#DBDBDB"/>
</linearGradient>
<linearGradient id="paint1_linear_3489_27148" x1="-20.6896" y1="241.522" x2="47.4999" y2="218.899" gradientUnits="userSpaceOnUse">
<stop offset="0.37" stop-color="#DBDBDB" stop-opacity="0"/>
<stop offset="0.94" stop-color="#DBDBDB"/>
</linearGradient>
<linearGradient id="paint2_linear_3489_27148" x1="53.6761" y1="306.506" x2="135.258" y2="227.471" gradientUnits="userSpaceOnUse">
<stop offset="0.37" stop-color="#DBDBDB" stop-opacity="0"/>
<stop offset="0.94" stop-color="#DBDBDB"/>
</linearGradient>
<linearGradient id="paint3_linear_3489_27148" x1="97.3457" y1="244.537" x2="101.302" y2="168.673" gradientUnits="userSpaceOnUse">
<stop offset="0.56" stop-color="#DBDBDB" stop-opacity="0"/>
<stop offset="0.94" stop-color="#DBDBDB"/>
</linearGradient>
<clipPath id="clip0_3489_27148">
<rect width="330" height="330" fill="white"/>
</clipPath>
</defs>
</svg>
