<svg width="330" height="330" viewBox="0 0 330 330" fill="none" xmlns="http://www.w3.org/2000/svg">
<g clip-path="url(#clip0_3489_27085)">
<path opacity="0.3" d="M9.31049 207.723C7.30692 230.705 27.2837 254.748 41.3087 264.413C41.7801 268.832 42.1337 272.486 42.4873 275.432C42.4873 275.432 50.9141 290.046 67.3551 297.766C91.0444 308.963 118.034 303.188 144.434 303.188C144.434 303.188 145.789 286.688 150.857 274.961C155.807 263.47 163.409 251.213 163.409 251.213C163.409 251.213 174.782 251.625 181.323 250.564C188.807 249.327 189.278 247.5 190.987 242.786C197.352 225.343 205.778 195.879 205.778 175.666C205.778 155.454 198.412 151.8 197.823 146.379C197.411 142.489 199.414 130.35 199.709 126.814C200.121 121.216 194.405 105.541 192.755 103.125C191.223 100.886 194.523 101.475 193.816 98.8822C192.873 95.5232 192.696 92.1054 191.518 89.1C178.553 55.4518 152.507 43.2536 118.682 47.1429C116.207 47.4375 107.132 45.9054 104.598 45.9643C47.1426 47.7322 -15.3806 109.195 16.3819 184.329C16.3819 184.329 9.31049 193.816 9.31049 207.723Z" fill="url(#paint0_linear_3489_27085)"/>
<path d="M42.252 252.568C46.3181 233.298 50.5609 226.58 52.8592 219.214C53.2717 217.918 52.7413 216.621 53.1538 215.502C50.7967 215.737 48.4395 215.62 46.3181 214.854C44.1377 214.087 39.777 200.77 38.3627 199.237C35.8288 196.468 35.652 193.05 34.4145 189.514C30.8199 179.32 33.4717 169.007 33.3538 169.007C33.6484 169.773 23.1002 173.839 16.5002 183.857C16.5002 183.857 9.4288 193.345 9.4288 207.252C7.42523 230.234 27.402 254.277 41.427 263.941C41.8984 268.361 42.252 272.014 42.6056 274.961C42.6645 275.02 39.7181 264.766 42.252 252.568Z" fill="url(#paint1_linear_3489_27085)"/>
<path d="M156.809 250.329C145.201 250.093 136.833 249.68 128.406 249.562C125.106 250.034 102.301 249.68 99.1184 248.737C73.3077 240.664 67.297 216.386 66.2362 213.734C66.1773 213.675 66.6487 212.968 66.5898 212.909C66.472 212.85 66.3541 212.791 66.2952 212.732C66.0005 212.555 65.7059 212.379 65.4702 212.202C64.6452 212.85 63.6434 213.38 62.6416 213.734C63.2898 214.441 63.7612 215.207 63.938 216.15C65.588 225.402 66.5898 234.83 69.0059 243.964C70.0666 248.03 71.4809 252.037 72.9541 255.986C73.6612 257.871 74.3684 259.757 75.1345 261.584C75.3112 261.996 75.488 262.409 75.6059 262.762C75.6648 262.939 75.7827 263.116 75.8416 263.293C76.1952 264.118 76.6077 265.002 76.9612 265.827C80.1434 273.016 83.797 279.97 87.6862 286.805C91.0452 292.698 94.6398 298.414 98.4112 304.071C113.497 304.661 129.172 302.716 144.67 302.716C144.67 302.716 146.026 286.216 151.093 274.489C155.749 263.764 162.702 252.332 163.586 250.859C161.288 250.623 159.108 250.387 156.809 250.329Z" fill="url(#paint2_linear_3489_27085)"/>
<path d="M172.248 251.271C161.7 251.271 144.728 250.623 138.777 250.211C134.769 249.916 128.641 250.034 122.1 250.152C115.794 250.27 109.312 250.387 104.009 250.152C92.9301 249.68 80.2015 240.841 72.364 228.054C67.7087 220.57 66.4123 215.855 65.8819 213.852C65.823 213.557 65.7051 213.262 65.6462 213.027C65.4105 213.086 65.0569 213.262 64.7033 213.439C62.9355 214.205 59.6355 215.679 55.2748 215.973C48.8515 216.504 45.964 215.325 45.9051 215.266C45.7873 215.207 45.6105 215.089 44.0194 212.261C43.3712 211.082 42.0158 208.548 40.4247 205.248C37.9497 200.18 34.7676 192.873 33.1176 186.509C30.8783 177.729 32.2337 169.537 34.2372 168.359C36.123 167.239 40.1301 166.061 44.6087 166.12C47.2605 166.179 50.6194 166.886 54.1551 167.593C60.5783 168.948 67.8265 170.421 71.7158 167.946C78.7873 163.409 75.2515 141.487 75.1926 141.311L76.0176 141.134C76.1944 142.077 79.6712 163.821 72.1283 168.654C67.9444 171.305 60.814 169.832 53.9194 168.418C50.3837 167.711 47.0837 167.004 44.4908 166.945C39.8944 166.886 36.064 168.182 34.5319 169.007C33.1765 169.832 31.5265 177.139 33.8248 186.214C36.7712 197.823 45.3748 213.321 46.1998 214.441C46.848 214.677 49.9712 215.443 55.098 215.03C59.2819 214.677 62.523 213.321 64.2319 212.555C65.2337 212.143 65.5873 211.966 65.8819 212.084C66.2355 212.202 66.2944 212.555 66.589 213.498C67.1194 215.502 68.4158 220.098 72.9533 227.523C80.673 240.075 93.1658 248.796 103.95 249.268C109.194 249.504 115.677 249.386 121.982 249.268C128.523 249.15 134.71 249.032 138.718 249.327C146.378 249.857 172.425 250.741 179.26 250.152C185.978 249.562 187.923 247.382 189.514 244.789C191.223 242.079 199.119 216.504 201.064 207.252C206.721 183.562 205.012 169.066 204.364 165.236C203.421 159.402 200.239 152.684 198.53 149.03C197.764 147.38 197.41 146.555 197.293 146.202C197.175 145.554 197.528 142.254 198.118 136.95C198.589 132.825 199.06 128.582 199.002 127.404C198.766 120.921 195.348 109.489 193.698 106.012C192.284 103.007 191.694 102.654 191.694 102.654C191.694 102.654 191.753 102.654 191.812 102.712L191.989 101.887C192.637 102.005 193.757 104.009 194.523 105.718C196.232 109.254 199.65 120.862 199.944 127.462C200.003 128.7 199.532 132.766 199.06 137.127C198.589 141.075 198.118 145.554 198.235 146.143C198.294 146.437 198.825 147.498 199.355 148.795C201.064 152.448 204.246 159.284 205.248 165.236C205.896 169.125 207.605 183.739 201.889 207.605C199.827 217.152 191.989 242.55 190.221 245.379C188.453 248.148 186.45 250.505 179.319 251.095C177.905 251.212 175.371 251.271 172.248 251.271Z" fill="#323A50"/>
<path d="M144.965 303.423L144.14 303.364C144.14 303.188 145.259 288.102 148.972 278.143C153.274 266.475 163.291 250.682 163.409 250.505L164.116 250.977C163.999 251.154 154.099 266.829 149.797 278.438C146.084 288.338 144.965 303.305 144.965 303.423Z" fill="#323A50"/>
<path d="M45.8465 215.325C38.8929 212.437 32.0572 207.075 26.1643 199.827C20.0358 192.343 15.0858 183.15 11.8447 173.191C6.95363 158.046 1.82684 127.462 22.6876 93.3428C27.9322 84.7982 34.5911 77.0785 42.4876 70.4785C49.2643 64.8214 56.9251 59.9893 65.3518 56.041C80.2018 49.0875 94.5804 46.2 103.125 45.7875C111.67 45.4339 119.389 46.8482 126.225 50.0893C131.941 52.8589 137.009 56.866 141.252 62.0518C151.27 74.3678 153.509 89.1589 152.802 91.9285C152.507 93.0482 151.977 93.8143 151.211 94.2268C149.62 94.9928 147.439 94.05 144.964 92.9303L144.788 92.8714C136.596 89.2768 118.741 85.6821 91.1036 101.593C82.7358 106.425 79.0822 113.732 77.4911 119.036C75.7822 124.752 76.0179 129.407 76.0179 129.466L75.1929 129.525C75.1929 129.348 74.8983 124.693 76.7251 118.8C78.3751 113.379 82.1465 105.836 90.7501 100.827C103.714 93.3428 115.971 89.3357 127.227 88.9821C133.827 88.7464 140.073 89.8071 145.2 92.0464L145.377 92.1053C147.616 93.1071 149.738 93.991 150.916 93.4018C151.446 93.166 151.859 92.5768 152.036 91.6928C152.802 88.6875 150.032 74.0732 140.663 62.5232C131.47 51.2089 118.859 45.8464 103.243 46.5535C94.7572 46.9071 80.4965 49.7946 65.8233 56.7482C47.4376 65.4107 33.2358 77.8446 23.5126 93.7553C2.82863 127.639 7.89649 157.87 12.7876 172.896C19.1518 192.579 31.9983 208.548 46.3179 214.5L45.8465 215.325Z" fill="#323A50"/>
<path d="M188.807 103.479C185.035 103.479 180.144 100.591 174.487 97.2911C167.475 93.1661 159.519 88.5107 152.33 88.8643L152.271 88.0393C159.696 87.7446 167.769 92.4589 174.9 96.5839C180.38 99.825 185.625 102.83 189.16 102.654C190.751 102.536 191.93 102.123 192.637 101.298C193.344 100.532 193.58 99.3536 193.403 97.8214C193.403 97.7625 192.873 92.4 188.984 84.3268C184.623 75.2518 178.023 66.9428 169.478 59.8125C155.1 47.7911 137.657 46.6714 128.523 47.025C104.834 48.0857 83.3835 54.2143 64.7621 65.2928L64.3496 64.5857C83.03 53.4482 104.598 47.2607 128.464 46.2C134.828 45.9053 140.957 46.4946 146.85 47.7911C155.689 49.8536 163.467 53.625 170.009 59.1053C178.671 66.3536 185.271 74.7214 189.691 83.9143C193.639 92.1643 194.169 97.6446 194.169 97.7036C194.346 99.5303 193.992 100.886 193.167 101.829C192.342 102.83 190.928 103.361 189.101 103.479C189.101 103.479 188.984 103.479 188.807 103.479Z" fill="#323A50"/>
<path d="M159.048 173.839C155.866 173.839 152.979 173.191 151.859 169.95C150.563 166.12 153.627 160.345 153.745 160.109L154.511 160.521C154.511 160.58 151.506 166.237 152.684 169.714C153.863 173.073 157.163 173.191 161.052 172.955C165.236 172.72 175.725 171.07 179.791 167.534C183.563 164.234 184.859 160.639 183.268 157.87C181.677 155.159 177.67 149.62 177.611 149.561C177.375 149.207 171.6 140.368 170.304 137.009C170.245 136.773 170.127 136.537 170.068 136.302C168.831 133.12 167.475 129.525 168.065 125.223C168.595 120.921 169.597 117.68 172.72 114.616C175.136 112.259 179.143 109.136 186.215 109.489C192.815 109.784 199.886 112.318 200.711 113.496C201.3 114.321 201.418 116.796 200.475 118.387C199.886 119.389 198.943 119.861 197.765 119.684C195.82 119.448 194.17 118.918 192.815 118.564C191.99 118.329 191.223 118.093 190.693 118.034C189.338 117.857 187.334 118.446 187.334 118.446L187.098 117.621C187.157 117.621 189.279 116.973 190.811 117.15C191.4 117.209 192.166 117.445 193.109 117.739C194.406 118.093 196.056 118.623 197.941 118.859C198.766 118.977 199.356 118.682 199.827 117.975C200.652 116.62 200.416 114.498 200.122 114.027C199.591 113.261 193.05 110.668 186.273 110.373C179.556 110.079 175.725 113.025 173.427 115.264C170.422 118.152 169.538 121.275 169.007 125.341C168.477 129.407 169.773 132.766 171.011 136.007C171.07 136.243 171.188 136.479 171.247 136.714C172.484 140.014 178.377 149.03 178.436 149.089C178.436 149.148 182.502 154.746 184.093 157.457C185.92 160.58 184.565 164.646 180.44 168.182C176.256 171.836 165.472 173.604 161.17 173.839C160.345 173.839 159.697 173.839 159.048 173.839Z" fill="#323A50"/>
<path d="M176.314 175.961C176.314 175.902 176.196 174.193 177.021 172.307C177.139 172.071 177.316 171.836 177.493 171.541C177.198 171.423 176.962 171.246 176.726 171.128C176.432 170.893 176.078 170.657 175.666 170.362C173.721 168.889 170.539 166.414 166.885 166.178C164.234 166.002 162.584 166.886 161.7 167.593C163.88 167.357 167.887 167.18 168.948 168.536C169.184 168.83 169.36 169.361 169.007 170.068C168.948 170.245 168.712 170.775 166.296 171.246C163.114 171.895 156.632 172.307 154.982 170.775C152.919 168.889 153.509 166.355 153.509 166.237L154.334 166.473C154.334 166.532 153.862 168.653 155.571 170.245C156.396 171.011 160.05 171.305 163.998 170.834C166.885 170.48 168.123 170.009 168.3 169.773C168.476 169.361 168.359 169.184 168.3 169.125C167.534 168.123 163.173 168.3 160.639 168.654L159.696 168.771L160.226 168.005C160.285 167.887 162.289 165.118 167.003 165.412C170.893 165.707 174.251 168.241 176.255 169.773C176.668 170.068 177.021 170.303 177.257 170.539C177.493 170.716 177.787 170.893 178.082 171.011C179.437 169.479 181.735 167.887 182.737 167.887C183.209 167.887 183.385 168.123 183.444 168.241C184.034 169.302 183.621 171.011 182.56 171.836C181.735 172.543 179.909 172.543 178.259 172.012C178.023 172.307 177.846 172.543 177.728 172.779C176.962 174.429 177.08 176.02 177.08 176.02H176.314V175.961ZM178.966 171.187C180.262 171.541 181.618 171.482 182.089 171.07C182.796 170.48 183.15 169.302 182.796 168.595C182.207 168.595 180.262 169.891 178.966 171.187Z" fill="#323A50"/>
<path d="M142.548 202.655L142.371 201.83L142.607 201.771C143.609 201.536 144.551 201.005 145.259 200.239C148.146 197.175 155.159 189.75 157.575 188.1C160.757 185.92 165.353 183.091 168.948 183.504C170.598 183.68 173.662 185.095 174.959 185.684C175.666 185.979 176.432 186.037 177.198 185.802C178.671 185.33 180.734 184.741 182.619 184.741C185.919 184.8 188.63 188.395 189.985 191.459C191.989 196.114 191.459 202.243 191.4 202.538L190.575 202.479C190.575 202.42 191.105 196.291 189.219 191.871C187.923 188.807 185.33 185.684 182.619 185.625C180.851 185.566 178.848 186.155 177.493 186.627C176.55 186.921 175.548 186.921 174.664 186.45C173.721 185.979 170.48 184.505 168.948 184.329C165.648 183.975 161.169 186.686 158.105 188.748C155.748 190.398 148.794 197.705 145.907 200.77C145.082 201.654 144.021 202.302 142.784 202.538L142.548 202.655Z" fill="#323A50"/>
<path d="M42.37 276.198C42.311 276.021 41.2503 272.545 41.0735 266.18C40.8967 260.346 41.4271 250.859 45.0217 239.014C46.0235 235.714 47.4378 232.061 48.911 228.171C52.5646 218.684 56.6896 207.959 54.8039 201.654C53.4485 199.296 51.0325 200.534 50.9146 200.593L50.5021 199.827C51.6217 199.237 54.1557 198.766 55.57 201.3L55.6289 201.359C57.6914 207.959 53.6253 218.389 49.736 228.525C48.2628 232.355 46.8485 236.009 45.8467 239.309C38.9521 261.761 43.136 275.845 43.195 275.962L42.37 276.198Z" fill="#323A50"/>
<path d="M38.716 262.939C38.5982 262.88 28.7571 255.986 20.5071 244.259C15.675 237.364 12.2571 230.116 10.4892 222.75C8.24996 213.557 8.48567 204.187 11.1964 194.818C14.2017 184.505 20.4482 177.787 25.2214 173.957C30.3482 169.832 34.7089 168.182 34.8857 168.064L35.1803 168.83C35.1214 168.83 30.7607 170.539 25.7517 174.546C21.1553 178.259 14.9678 184.859 12.0803 194.936C6.01067 215.737 13.7303 232.886 21.2732 243.611C29.4642 255.22 39.1875 262.055 39.2464 262.114L38.716 262.939Z" fill="#323A50"/>
<path d="M151.506 202.184L151.034 201.477C151.093 201.418 159.166 196.35 169.538 196.232C170.481 196.232 171.777 196.645 173.309 197.175C175.313 197.882 177.67 198.648 179.32 198.295C180.263 198.118 181.206 197.941 182.148 197.705C185.154 196.998 187.982 196.35 189.809 197.529C190.693 198.118 191.223 199.061 191.459 200.416L190.634 200.593C190.457 199.473 190.045 198.707 189.338 198.295C187.806 197.293 185.036 197.941 182.384 198.589C181.441 198.825 180.44 199.061 179.497 199.179C177.611 199.532 175.195 198.707 173.073 198C171.718 197.529 170.422 197.116 169.597 197.116C159.461 197.175 151.623 202.125 151.506 202.184Z" fill="#323A50"/>
<path d="M173.576 208.288L173.567 209.113L183.585 209.219L183.593 208.394L173.576 208.288Z" fill="#323A50"/>
<path d="M150.503 140.309C149.737 140.309 148.912 140.132 148.323 139.602C147.675 139.012 147.498 138.011 147.793 136.714C148.323 134.298 148.087 132.412 147.026 131.057C145.612 129.171 142.666 128.052 138.246 127.757L138.305 126.932C143.078 127.286 146.143 128.464 147.734 130.527C148.912 132.118 149.207 134.18 148.618 136.891C148.382 137.893 148.5 138.6 148.912 138.954C149.678 139.661 151.269 139.425 151.8 139.248L152.035 140.073C152.035 140.132 151.328 140.309 150.503 140.309Z" fill="#323A50"/>
<path d="M94.1087 139.189H93.873C93.2248 139.189 92.7534 138.777 92.6355 138.129C91.9873 134.416 102.123 120.155 128.818 110.079C137.244 106.896 148.618 106.307 153.037 110.786C157.516 115.323 154.805 121.629 154.805 121.746L154.569 122.277L154.098 121.864C154.039 121.864 150.68 118.623 143.786 117.091C137.48 115.677 126.814 115.382 112.141 122.277L111.787 121.511C126.755 114.498 137.598 114.793 144.08 116.266C149.737 117.563 153.037 119.861 154.216 120.863C154.746 119.33 155.748 114.793 152.448 111.434C148.264 107.191 137.244 107.839 129.112 110.904C114.675 116.325 105.894 122.748 101.062 127.109C95.1105 132.589 93.2248 136.655 93.4605 138.011C93.5194 138.305 93.6373 138.364 93.873 138.364C96.4069 138.423 100.061 137.48 101.828 136.596L102.182 137.363C100.473 138.246 96.7605 139.189 94.1087 139.189Z" fill="#323A50"/>
<path d="M126.166 147.027C125.4 147.027 124.634 147.027 123.927 146.968C117.15 146.496 114.38 143.55 112.318 141.429C111.552 140.663 110.904 139.955 110.196 139.543C110.02 139.425 109.843 139.307 109.607 139.248L109.371 139.189L109.312 138.895C109.312 138.659 109.489 138.305 109.843 138.07C110.845 137.48 112.612 138.011 115.146 139.661C115.618 140.014 116.089 140.309 116.502 140.663C119.036 142.489 121.039 143.963 129.466 143.668L131.234 143.609C137.362 143.373 142.666 143.138 145.495 142.371L145.73 143.196C145.495 143.255 145.259 143.314 144.964 143.373C144.198 143.55 143.079 143.845 141.664 144.257C137.893 145.318 132.354 147.027 126.166 147.027ZM110.491 138.659C110.55 138.659 110.609 138.718 110.668 138.718C111.493 139.189 112.141 139.896 112.966 140.721C115.029 142.843 117.562 145.554 123.986 146.025C129.937 146.438 135.359 145.082 139.425 143.904C137.068 144.08 134.298 144.198 131.234 144.316L129.466 144.375C120.745 144.729 118.505 143.079 115.971 141.252C115.559 140.957 115.146 140.604 114.616 140.309C112.023 138.6 110.845 138.6 110.491 138.659Z" fill="#323A50"/>
<path opacity="0.6" d="M12.3164 169.714C12.2575 170.009 12.1986 170.304 12.1396 170.539C12.3164 170.48 12.4343 170.48 12.6111 170.421C12.5521 170.245 12.4343 170.009 12.3164 169.714Z" fill="#DBDBDB"/>
<path d="M156.809 136.537C156.809 133.296 152.979 128.582 149.09 126.343C144.198 123.455 136.302 121.982 128.111 121.982C113.438 121.982 103.597 129.289 103.597 136.596C103.597 143.903 112.141 151.328 130.173 149.737C138.011 149.03 145.082 147.203 149.973 144.493C154.216 142.077 156.809 139.896 156.809 136.537Z" fill="#293C4F"/>
<path d="M123.257 134.621L110.271 137.83L110.468 138.631L123.455 135.422L123.257 134.621Z" fill="#E8E8E8"/>
<path d="M133.355 141.016C129.289 141.016 126.461 140.25 124.811 138.6C123.22 137.068 123.043 135.123 123.043 133.768C123.043 128.228 127.227 125.577 135.536 125.989C139.189 126.166 143.314 127.286 145.672 128.641C147.439 129.702 149.325 131.941 149.325 133.591C149.325 135.477 147.734 136.596 146.025 137.539C145.141 138.011 140.368 140.545 136.007 140.839C135.064 140.957 134.18 141.016 133.355 141.016ZM133.768 126.814C127.05 126.814 123.809 129.112 123.809 133.768C123.809 136.714 124.87 140.132 133.297 140.132C134.122 140.132 135.005 140.073 135.889 140.014C139.13 139.778 143.138 138.128 145.554 136.773C147.616 135.653 148.382 134.77 148.382 133.591C148.382 132.353 146.85 130.35 145.141 129.348C142.902 128.052 138.895 126.991 135.359 126.814C134.829 126.814 134.298 126.814 133.768 126.814Z" fill="#E8E8E8"/>
<path d="M169.892 135.477C169.243 132.589 167.417 130.468 169.42 129.112C173.486 126.402 183.033 124.162 189.868 124.162C202.184 124.162 206.545 134.357 204.188 140.662C201.831 146.85 199.533 151.034 186.568 149.855C178.79 149.207 170.717 139.307 169.892 135.477Z" fill="#293C4F"/>
<path d="M151.624 136.184L149.62 134.357C152.567 131.057 159.992 123.514 166.12 124.575C168.713 125.046 170.717 126.932 172.013 130.232L169.479 131.234C168.536 128.877 167.299 127.58 165.649 127.227C161.759 126.637 155.867 131.47 151.624 136.184Z" fill="#293C4F"/>
<path d="M193.816 140.545C192.756 140.545 191.518 140.486 190.222 140.309C186.509 139.837 182.62 137.421 181.913 136.95C180.499 136.007 179.202 134.946 179.32 133.296C179.379 131.823 181.147 129.937 182.738 129.112C184.741 128.052 188.336 127.286 191.4 127.286H191.577C195.761 127.345 198.707 128.229 200.299 129.937C201.418 131.116 201.89 132.707 201.772 134.711C201.477 138.6 198.943 140.545 193.816 140.545ZM191.341 128.111C188.395 128.111 185.036 128.818 183.091 129.82C181.618 130.586 180.204 132.295 180.145 133.296C180.086 134.298 180.734 135.064 182.384 136.184C184.388 137.48 187.629 139.071 190.399 139.425C191.695 139.602 192.874 139.661 193.875 139.661C199.827 139.661 200.77 136.95 200.888 134.593C201.006 132.825 200.593 131.47 199.591 130.468C198.118 128.936 195.407 128.111 191.459 128.111H191.341Z" fill="#E8E8E8"/>
<path d="M181.768 135.864L174.007 137.864L174.213 138.662L181.973 136.663L181.768 135.864Z" fill="#E8E8E8"/>
<path d="M130.291 195.761C86.2713 186.745 83.7963 158.871 82.7356 156.161C82.6766 156.102 66.7659 193.521 69.2409 202.95C70.3606 207.193 94.1677 247.264 122.63 238.248C120.332 206.545 133.65 196.409 130.291 195.761Z" fill="url(#paint3_linear_3489_27085)"/>
<path d="M121.687 194.346L121.628 193.698C122.218 193.639 122.866 193.404 123.514 193.109L123.809 193.698C123.102 194.052 122.394 194.287 121.687 194.346ZM119.448 194.17C118.859 194.052 118.152 193.816 117.385 193.58L117.562 192.991C118.328 193.227 119.035 193.462 119.566 193.58L119.448 194.17ZM115.382 192.873C114.734 192.637 114.085 192.402 113.378 192.166L113.614 191.577C114.321 191.812 114.969 192.107 115.618 192.284L115.382 192.873ZM125.635 192.402L125.223 191.93C125.694 191.518 126.225 191.046 126.755 190.457L127.227 190.929C126.637 191.518 126.107 191.989 125.635 192.402ZM111.375 191.4C110.727 191.164 110.078 190.87 109.371 190.634L109.607 190.045C110.314 190.339 110.962 190.575 111.61 190.811L111.375 191.4ZM107.427 189.75C106.778 189.455 106.13 189.22 105.482 188.925L105.718 188.336C106.366 188.63 107.014 188.866 107.662 189.161L107.427 189.75ZM128.582 189.279L128.11 188.866C128.523 188.395 128.935 187.805 129.407 187.216L129.937 187.57C129.407 188.218 128.994 188.807 128.582 189.279ZM203.952 188.984C203.244 188.925 202.537 188.748 201.83 188.63L201.948 188.041C202.655 188.218 203.303 188.336 204.01 188.395L203.952 188.984ZM103.478 188.1C102.83 187.805 102.182 187.511 101.534 187.216L101.769 186.627C102.418 186.921 103.066 187.216 103.714 187.511L103.478 188.1ZM199.709 188.041C199.06 187.805 198.412 187.57 197.823 187.334C197.764 187.334 197.764 187.275 197.705 187.275L198 186.686C198.059 186.686 198.059 186.745 198.118 186.745C198.707 186.98 199.296 187.216 199.944 187.452L199.709 188.041ZM99.5891 186.332C98.9409 186.037 98.2926 185.743 97.6444 185.389L97.9391 184.8C98.5873 185.095 99.2355 185.389 99.8248 185.743L99.5891 186.332ZM195.878 186.037C195.407 185.566 194.935 185.036 194.464 184.329L194.994 183.975C195.407 184.564 195.878 185.095 196.291 185.566L195.878 186.037ZM131.175 185.861L130.644 185.507C131.057 184.918 131.469 184.387 131.882 183.739L132.412 184.093C132 184.741 131.587 185.33 131.175 185.861ZM95.7587 184.446C95.1105 184.152 94.4623 183.798 93.873 183.504L94.1676 182.914C94.7569 183.209 95.4051 183.562 96.0534 183.857L95.7587 184.446ZM91.9873 182.561C91.3391 182.207 90.6908 181.854 90.1016 181.559L90.3962 181.029C90.9855 181.323 91.6337 181.736 92.2819 182.03L91.9873 182.561ZM193.403 182.502C193.109 181.912 192.814 181.264 192.46 180.557L193.05 180.321C193.344 181.029 193.639 181.677 193.934 182.207L193.403 182.502ZM133.591 182.384L133.06 182.03C133.296 181.677 133.591 181.264 133.827 180.911C134.003 180.675 134.121 180.498 134.298 180.321L134.828 180.675C134.652 180.911 134.534 181.087 134.357 181.323C134.121 181.677 133.885 182.03 133.591 182.384ZM88.2158 180.439C87.7444 180.204 87.3319 179.909 86.9194 179.673C86.7426 179.555 86.5659 179.437 86.3891 179.32L86.7426 178.789C86.9194 178.907 87.0962 179.025 87.273 179.143C87.6855 179.379 88.098 179.673 88.5105 179.909L88.2158 180.439ZM136.066 178.907L135.535 178.554C135.948 177.964 136.36 177.375 136.714 176.786L137.244 177.139C136.891 177.729 136.478 178.318 136.066 178.907ZM191.694 178.495C191.459 177.846 191.223 177.198 190.987 176.491L191.577 176.314C191.812 177.021 192.048 177.67 192.284 178.318L191.694 178.495ZM84.7391 177.964C84.2087 177.493 83.7373 176.904 83.2659 176.373L83.7962 176.02C84.2087 176.55 84.6801 177.08 85.1516 177.552L84.7391 177.964ZM138.423 175.371L137.893 175.018C138.246 174.37 138.659 173.78 138.953 173.191L139.484 173.486C139.13 174.075 138.777 174.664 138.423 175.371ZM82.0873 174.487C81.7337 173.898 81.4391 173.191 81.1444 172.543L81.7337 172.307C81.9694 172.955 82.2641 173.604 82.6176 174.193L82.0873 174.487ZM190.398 174.429C190.221 173.839 190.044 173.132 189.809 172.366L190.398 172.189C190.634 172.955 190.81 173.604 190.987 174.252L190.398 174.429ZM140.485 171.6L139.896 171.305C140.25 170.539 140.485 169.95 140.662 169.479C140.662 169.439 140.682 169.4 140.721 169.361L141.31 169.596C141.31 169.655 141.252 169.655 141.252 169.714C141.075 170.245 140.839 170.834 140.485 171.6ZM80.4962 170.48C80.3194 169.773 80.2016 169.125 80.0837 168.359L80.7319 168.241C80.8498 168.948 80.9676 169.655 81.1444 170.304L80.4962 170.48ZM189.278 170.304L189.219 170.068C189.043 169.479 188.866 168.83 188.748 168.241L189.337 168.064C189.514 168.654 189.632 169.243 189.809 169.891L189.868 170.127L189.278 170.304ZM141.959 167.593L141.369 167.357C141.605 166.591 141.9 165.943 142.135 165.354L142.725 165.589C142.489 166.179 142.194 166.827 141.959 167.593ZM188.1 166.237C187.864 165.471 187.687 164.823 187.51 164.234L188.1 164.057C188.277 164.646 188.512 165.354 188.748 166.12L188.1 166.237ZM79.848 166.237C79.7891 165.648 79.7891 165 79.7891 164.411V164.116H80.4373V164.411C80.4373 165 80.4373 165.648 80.4962 166.237H79.848ZM143.609 163.704L143.078 163.409C143.432 162.702 143.844 162.112 144.257 161.582L144.787 161.936C144.316 162.466 143.962 163.055 143.609 163.704ZM186.803 162.23C186.509 161.464 186.214 160.875 185.978 160.345L186.509 160.05C186.803 160.58 187.098 161.287 187.393 162.054L186.803 162.23ZM80.4962 161.995L79.848 161.936C79.9069 160.993 80.0248 160.227 80.0837 159.814L80.7319 159.932C80.673 160.345 80.6141 161.052 80.4962 161.995ZM146.143 160.462L145.73 159.991C145.966 159.755 146.26 159.579 146.555 159.402C146.85 159.225 147.203 159.048 147.557 158.812L147.852 159.402C147.498 159.579 147.144 159.755 146.85 159.932C146.614 160.05 146.378 160.227 146.143 160.462ZM184.741 158.636C184.387 158.282 183.975 158.046 183.621 157.929H183.503L183.091 157.339L183.621 156.986L183.857 157.398C184.328 157.516 184.741 157.811 185.153 158.223L184.741 158.636ZM149.737 158.459L149.502 157.87C150.091 157.634 150.798 157.398 151.505 157.104L151.741 157.693C151.034 157.987 150.327 158.223 149.737 158.459ZM81.6159 158.046L81.0266 157.752C81.3801 157.162 81.7337 156.514 82.0283 155.866L82.5587 156.161C82.2641 156.809 81.9105 157.398 81.6159 158.046ZM153.744 157.045L153.568 156.455C154.216 156.22 154.923 156.043 155.63 155.866L155.807 156.455C155.1 156.632 154.393 156.868 153.744 157.045ZM157.81 155.866L157.634 155.277C158.341 155.1 158.989 154.923 159.696 154.746L159.873 155.336C159.225 155.454 158.518 155.689 157.81 155.866ZM181.912 155.571L180.734 153.804L181.264 153.45L182.443 155.218L181.912 155.571ZM162.053 154.746L161.759 154.216C161.994 154.039 162.702 153.686 163.644 153.214L163.939 153.804C162.937 154.275 162.289 154.629 162.053 154.746ZM83.6784 154.334L83.148 153.98C83.5016 153.332 83.9141 152.743 84.2676 152.154L84.798 152.507C84.4444 153.096 84.0909 153.745 83.6784 154.334ZM165.766 152.802L165.471 152.212C166.178 151.918 166.827 151.623 167.416 151.329L167.652 151.918C167.121 152.212 166.473 152.507 165.766 152.802ZM179.555 152.212C179.202 151.977 178.553 151.623 177.728 151.211L177.964 150.621C178.789 150.975 179.496 151.387 179.85 151.682L179.555 152.212ZM169.714 151.211L169.478 150.621C170.244 150.327 170.952 150.15 171.541 150.032L171.718 150.621C171.128 150.739 170.421 150.916 169.714 151.211ZM86.0355 150.798L85.5051 150.445C85.9766 149.855 86.3891 149.266 86.8016 148.736L87.273 149.148C86.9194 149.679 86.448 150.209 86.0355 150.798ZM175.784 150.562C175.077 150.386 174.428 150.327 173.721 150.327V149.679C174.428 149.679 175.194 149.737 175.902 149.914L175.784 150.562ZM88.7462 147.616L88.2748 147.145C88.8641 146.555 89.3944 146.084 89.9837 145.789L90.3373 146.32C89.8069 146.614 89.2766 147.086 88.7462 147.616ZM92.1641 145.436L91.9284 144.846C92.5766 144.611 93.2248 144.375 93.9909 144.139L94.1676 144.729C93.4605 144.964 92.8123 145.2 92.1641 145.436ZM96.2301 144.257L96.0534 143.668C96.7605 143.491 97.4087 143.373 98.1159 143.196L98.2337 143.786C97.5855 143.904 96.8784 144.08 96.2301 144.257ZM100.414 143.432L100.296 142.784C101.593 142.607 102.418 142.489 102.418 142.489L102.477 143.137C102.477 143.137 101.652 143.255 100.414 143.432Z" fill="#323A50"/>
<path d="M225.52 124.221L245.732 113.32L242.491 107.309L222.279 118.211L219.568 113.261L212.438 126.755L212.496 126.873L227.936 128.7L225.52 124.221Z" fill="#FF4200"/>
<path d="M234.477 167.416L254.689 156.514L251.448 150.504L231.236 161.405L228.525 156.396L221.395 169.95L221.453 170.009L236.893 171.836L234.477 167.416Z" fill="#FF4200"/>
</g>
<defs>
<linearGradient id="paint0_linear_3489_27085" x1="30.8225" y1="384.772" x2="152.402" y2="32.3377" gradientUnits="userSpaceOnUse">
<stop offset="0.37" stop-color="#DBDBDB" stop-opacity="0"/>
<stop offset="0.57" stop-color="#DBDBDB"/>
</linearGradient>
<linearGradient id="paint1_linear_3489_27085" x1="-20.3575" y1="241.296" x2="47.7258" y2="218.707" gradientUnits="userSpaceOnUse">
<stop offset="0.37" stop-color="#DBDBDB" stop-opacity="0"/>
<stop offset="0.94" stop-color="#DBDBDB"/>
</linearGradient>
<linearGradient id="paint2_linear_3489_27085" x1="53.91" y1="306.244" x2="135.367" y2="227.333" gradientUnits="userSpaceOnUse">
<stop offset="0.37" stop-color="#DBDBDB" stop-opacity="0"/>
<stop offset="0.94" stop-color="#DBDBDB"/>
</linearGradient>
<linearGradient id="paint3_linear_3489_27085" x1="97.5757" y1="244.379" x2="101.527" y2="168.634" gradientUnits="userSpaceOnUse">
<stop offset="0.56" stop-color="#DBDBDB" stop-opacity="0"/>
<stop offset="0.94" stop-color="#DBDBDB"/>
</linearGradient>
<clipPath id="clip0_3489_27085">
<rect width="330" height="330" fill="white"/>
</clipPath>
</defs>
</svg>
