<svg width="361" height="185" viewBox="0 0 361 185" fill="none" xmlns="http://www.w3.org/2000/svg">
<g clip-path="url(#clip0_6253_36115)">
<path opacity="0.2" d="M232.951 16.0954C227.751 16.3863 218.651 18.3255 213.151 19.8768C209.851 20.8464 207.351 18.3255 206.451 17.7437C200.651 21.3312 198.051 22.01 196.951 23.1735C195.351 24.7248 194.051 25.4036 192.551 27.0519L191.851 28.0215C191.651 28.2154 191.251 28.7002 191.151 28.8941C190.951 29.282 190.451 29.5728 190.251 29.9607C190.151 30.1546 189.651 30.6394 189.651 30.8333C189.451 31.3181 188.951 31.2212 188.751 31.706C188.051 33.5482 187.151 34.2269 186.051 35.7783C186.151 36.36 185.051 37.6205 184.851 38.1053C184.551 39.2689 182.951 42.0807 182.551 43.2442C180.151 49.7405 179.151 59.8244 178.851 60.0183C178.451 60.6001 177.151 57.3034 179.551 47.5105C179.651 47.2196 179.051 45.2804 178.851 45.0865L177.651 44.9895C177.351 44.9895 176.551 47.8983 176.251 47.8983C176.151 47.8983 176.251 60.0183 176.251 60.0183C176.151 60.0183 174.051 60.891 173.951 60.891C172.851 61.0849 175.551 46.5409 174.451 46.8317C174.251 46.8317 174.651 43.2442 174.451 43.3412C174.351 43.3412 173.251 42.8564 173.151 42.9533C173.151 43.1473 172.651 43.826 171.851 43.4381C171.651 44.6986 170.651 45.2804 169.551 45.8621C169.551 46.0561 169.251 46.153 169.151 46.4439C168.851 47.3165 168.751 48.1892 168.251 48.9649C168.251 49.3527 167.851 49.7405 167.651 50.1284C167.551 50.3223 167.551 50.4193 167.451 50.6132C167.351 51.2919 167.251 51.8737 166.951 52.4554V52.6493C166.951 52.7463 167.151 52.9402 167.151 53.0372C167.251 54.3946 167.151 55.5582 166.651 56.8186C166.651 56.9156 166.551 57.0126 166.551 57.1095C166.551 57.5943 166.451 57.9822 166.251 58.467C166.451 59.4366 166.451 60.3092 166.051 61.1818C166.051 61.4727 166.251 61.9575 166.151 62.2484C166.151 62.3454 166.051 62.8302 166.051 62.9271C166.051 63.7998 165.851 64.1876 165.851 65.0602V65.8359C165.851 66.2238 165.951 66.6116 166.051 66.9995C166.351 69.0356 166.551 71.0718 166.451 73.1079C166.451 73.3988 166.551 73.5927 166.651 73.8836C166.651 73.8836 167.051 74.6593 167.051 74.7563C167.451 75.0471 167.251 74.7563 167.551 75.1441C167.851 73.011 168.351 70.8779 169.051 68.7447C169.851 66.4177 170.951 63.6058 172.951 61.9575C174.351 60.794 175.951 60.4062 177.551 60.6001C179.751 60.3092 181.751 60.891 182.451 62.9271L183.451 63.7028C183.551 63.7998 183.751 63.9937 183.851 64.1876C183.951 64.3815 184.351 64.4785 184.451 64.6724C185.051 65.3511 185.251 66.2238 185.851 66.9025C187.451 68.8417 188.151 69.9082 188.851 72.2353C188.951 72.5262 189.351 74.3684 189.351 74.6593C190.351 76.6955 190.251 78.4407 190.551 80.6708C190.751 81.9313 190.751 83.1918 190.751 84.4523C191.251 86.1006 191.751 87.8459 191.751 89.5912C191.751 91.4334 192.151 93.6635 191.951 95.5057C191.551 99.578 190.251 103.263 188.951 107.141C188.251 109.371 188.151 111.213 186.651 113.056C186.151 113.54 186.151 114.704 185.651 115.189C185.451 115.576 184.751 116.061 184.451 116.449C183.551 117.613 181.451 119.552 180.251 119.843C178.051 121.685 173.451 120.328 172.051 117.807C170.051 114.122 168.551 110.922 168.051 106.85C167.951 106.947 167.451 106.559 167.351 106.656C166.351 107.82 165.651 115.189 166.251 123.624C166.351 124.982 167.151 129.83 169.951 134.775C170.151 135.065 171.551 137.586 173.251 136.908C175.851 135.938 173.351 121.2 173.951 120.231C174.051 120.037 176.551 120.231 176.251 121.879C175.351 126.339 175.751 130.896 176.551 133.708C177.051 135.647 178.551 134.678 178.451 134.29C177.851 128.181 178.251 121.976 178.251 121.297C178.151 121.394 179.751 120.715 180.051 120.618C180.551 148.058 202.351 161.826 207.751 163.378C209.151 162.505 213.551 160.566 216.051 161.342C220.551 162.796 229.651 164.25 234.751 164.25C275.151 164.735 310.051 133.32 310.051 90.2699C310.051 60.697 295.251 36.554 269.651 23.3674C257.951 17.2589 244.251 15.5136 232.951 16.0954Z" fill="url(#paint0_radial_6253_36115)"/>
<path opacity="0.2" d="M158.751 40.7231C158.751 40.7231 131.051 87.9427 158.451 136.811C158.451 136.811 131.251 122.945 127.951 94.3421C127.751 89.785 128.451 85.0339 128.451 85.0339C131.051 62.5392 158.751 40.7231 158.751 40.7231Z" fill="url(#paint1_radial_6253_36115)"/>
<path d="M232.051 179.376C218.651 179.376 205.751 176.661 193.751 171.329C182.151 166.19 171.851 158.821 163.251 149.609C161.851 148.252 160.651 147.185 159.651 146.216C155.151 141.95 154.751 141.562 151.651 138.944C151.251 138.653 150.851 138.265 150.451 137.877C146.651 134.678 139.651 128.763 133.651 120.715C126.351 110.825 122.551 100.451 122.551 89.882V89.5912C122.651 79.0225 126.351 68.6478 133.651 58.7578C139.651 50.7101 146.651 44.7956 150.451 41.5959C150.951 41.208 151.351 40.9172 151.651 40.5293C153.951 38.5901 154.751 37.8144 156.851 35.8752C158.051 34.7117 159.751 33.1604 162.351 30.6394C170.951 21.1373 181.251 13.5744 193.051 8.24161C205.251 2.71488 218.351 0 231.951 0C244.451 0 256.551 2.32704 267.951 7.07809C278.951 11.6352 288.851 18.0346 297.351 26.2762C305.851 34.5178 312.551 44.1169 317.151 54.7825C321.951 65.8359 324.451 77.5681 324.451 89.6881C324.451 91.9182 324.451 97.0571 327.251 99.8689C328.451 101.032 330.251 101.614 332.351 101.614H333.651C340.751 101.614 352.551 101.517 360.151 104.135L359.651 105.396C352.351 102.875 340.651 102.972 333.651 102.972H332.351C329.851 102.972 327.751 102.293 326.251 100.742C323.051 97.6388 323.051 92.0152 323.051 89.6881C323.051 40.9172 282.151 1.35744 231.951 1.35744C205.651 1.35744 180.651 12.3139 163.351 31.512C160.751 33.936 159.051 35.5844 157.851 36.7479C155.751 38.784 154.951 39.5597 152.651 41.4989C152.251 41.7898 151.851 42.1777 151.451 42.5655C144.051 48.8679 124.251 65.4481 124.051 89.5912V89.882C124.251 114.025 144.051 130.605 151.451 136.908C151.951 137.296 152.351 137.586 152.651 137.974C155.751 140.592 156.151 141.077 160.651 145.246C161.651 146.119 162.851 147.282 164.251 148.64C181.551 167.256 206.251 178.019 232.051 178.019C268.151 178.019 301.151 156.785 316.051 123.915C316.351 123.333 316.951 122.848 317.651 122.558C319.351 121.976 321.651 122.461 324.051 123.721C325.751 124.691 327.551 125.757 329.551 126.921C336.451 130.993 344.251 135.647 352.851 137.102L352.651 138.362C343.851 136.908 335.851 132.157 328.851 127.987C326.951 126.824 325.151 125.757 323.451 124.885C320.451 123.236 318.651 123.624 318.151 123.818C317.751 123.915 317.451 124.206 317.351 124.4C310.051 140.495 298.451 154.07 283.651 163.863C268.251 174.043 250.451 179.376 232.051 179.376Z" fill="#383F51"/>
<path d="M231.451 172.395C219.651 172.395 208.351 170.165 197.651 165.608C187.351 161.245 178.151 155.039 170.351 147.186L171.051 146.604C187.051 162.699 208.451 171.62 231.551 171.62C263.851 171.62 292.751 154.07 306.951 125.951C307.251 125.37 307.451 124.788 307.751 124.303C310.251 118.97 311.951 119.164 318.151 119.94L318.951 120.037L318.851 120.909L318.051 120.813C311.951 120.037 310.851 119.94 308.551 124.691C308.251 125.273 308.051 125.854 307.751 126.339C300.851 140.011 290.251 151.549 277.051 159.694C263.451 167.935 247.651 172.395 231.451 172.395Z" fill="#383F51"/>
<path d="M326.85 104.62C320.35 101.905 317.55 97.251 317.45 89.3003C316.85 44.8925 278.25 8.82336 231.45 8.82336C205.95 8.82336 184.75 20.4586 174.35 30.3485C174.05 30.6394 171.95 32.0938 168.55 34.5178C165.85 36.36 162.85 38.5901 162.55 38.881L161.95 38.2023C162.35 37.8144 164.65 36.1661 168.05 33.7421C170.55 31.9968 173.45 29.9607 173.75 29.6698C184.35 19.5859 205.75 7.85376 231.45 7.85376C242.95 7.85376 254.05 9.98688 264.65 14.1562C274.95 18.2285 284.15 24.0461 292.15 31.512C308.75 46.8317 317.95 67.3873 318.25 89.2033C318.35 96.7662 321.05 101.129 327.15 103.747L326.85 104.62Z" fill="#383F51"/>
<path d="M236.251 165.026C234.451 165.026 232.551 164.929 230.651 164.832C225.551 164.444 220.451 163.475 215.651 162.117C215.151 161.924 213.951 161.924 212.851 162.02C211.551 162.117 209.351 162.99 207.851 163.863L207.151 162.796C208.551 161.924 210.951 160.857 212.751 160.76C213.751 160.663 215.251 160.663 216.051 160.857C220.851 162.214 225.751 163.184 230.851 163.572C270.851 166.578 306.051 135.938 309.251 95.215C310.851 75.5321 304.751 56.4309 292.151 41.4021C279.551 26.4702 261.951 17.356 242.651 15.9016C233.551 15.2229 224.551 16.1925 215.851 18.9073C213.951 19.4891 211.951 19.78 210.951 19.683C209.251 19.5861 207.251 18.6165 206.351 17.4529L207.451 16.6773C208.051 17.4529 209.651 18.3256 211.051 18.4225C211.951 18.4225 213.851 18.2286 215.551 17.6469C224.351 14.932 233.551 13.8654 242.851 14.5441C262.551 15.9985 280.451 25.2098 293.351 40.5295C306.151 55.7522 312.351 75.1442 310.651 95.215C309.051 115.286 299.851 133.514 284.751 146.701C271.051 158.724 254.051 165.026 236.251 165.026Z" fill="#383F51"/>
<path d="M358.65 108.402C352.05 105.784 344.05 105.687 337.65 105.687C332.35 105.59 328.15 105.59 325.95 104.232L326.45 103.457C328.45 104.62 332.75 104.717 337.65 104.717C344.15 104.814 352.25 104.911 358.95 107.529L358.65 108.402Z" fill="#383F51"/>
<path d="M353.251 134.775C347.251 134.096 340.951 130.702 334.851 127.406C328.751 124.206 323.051 121.103 317.851 120.618L317.951 119.746C323.351 120.231 329.151 123.333 335.251 126.63C341.251 129.83 347.551 133.126 353.351 133.902L353.251 134.775Z" fill="#383F51"/>
<path d="M158.451 137.683C149.551 124.497 145.751 109.371 146.051 88.9123C146.751 63.5088 152.651 50.3222 158.451 40.7231L159.251 41.2079C153.551 50.71 147.651 63.7997 147.051 88.9123C146.751 109.274 150.551 124.109 159.251 137.198L158.451 137.683Z" fill="#383F51"/>
<path d="M171.751 148.543C165.551 142.338 161.151 139.526 157.251 136.908C155.451 135.744 153.851 134.678 152.151 133.32C145.251 127.987 139.951 122.558 135.951 116.74C130.151 108.402 127.251 99.2873 127.251 89.6882V89.3973C127.251 76.1138 134.851 64.2847 141.251 56.6248C149.151 47.1227 158.051 40.5294 162.051 38.2024L162.551 38.9781C158.651 41.3051 149.851 47.8014 142.051 57.2066C135.751 64.7695 128.251 76.5016 128.251 89.3973V89.6882C128.251 105.784 136.351 119.843 152.851 132.642C154.551 133.902 156.151 135.066 157.951 136.229C161.851 138.75 166.251 141.659 172.551 147.961L171.751 148.543Z" fill="#383F51"/>
<path d="M238.951 169.583C227.251 169.583 212.751 167.644 200.551 160.275C192.851 155.621 186.051 147.379 182.351 138.265C179.651 131.284 179.051 126.727 178.551 119.261H179.451C179.951 126.63 180.551 131.187 183.151 138.071C186.751 146.895 193.551 155.136 200.951 159.693C222.951 173.171 253.051 168.226 258.851 167.062L259.051 167.935C256.451 168.323 248.751 169.583 238.951 169.583Z" fill="#383F51"/>
<path d="M174.451 151.064C166.251 143.889 165.051 139.623 163.451 134.29C163.351 133.902 163.251 133.611 163.151 133.223C161.451 126.921 161.051 117.807 161.951 107.529C162.051 106.268 163.151 105.396 164.451 105.396L167.351 105.59L167.251 106.074C164.551 116.74 166.351 128.569 169.651 133.902C170.451 135.259 171.351 136.035 172.151 136.229C172.351 136.229 172.451 136.229 172.551 136.132C173.351 135.55 173.251 132.351 173.151 130.508V129.83C173.051 126.436 172.351 119.164 172.351 119.067L172.251 118.098L173.051 118.679C174.051 119.358 175.051 119.843 175.851 120.037L176.251 120.134V120.522C176.251 120.522 175.651 125.951 175.951 130.993C176.051 132.739 176.651 133.611 177.051 133.805C177.151 133.902 177.251 133.805 177.251 133.805C177.451 133.611 177.851 132.932 177.651 131.09C176.751 123.721 177.551 120.231 177.651 120.134L178.551 120.328C178.551 120.328 177.751 123.818 178.651 130.993C178.851 132.739 178.651 133.999 177.951 134.484C177.651 134.678 177.151 134.775 176.751 134.581C175.851 134.193 175.251 132.835 175.151 131.09C174.951 126.727 175.251 122.17 175.351 120.812C174.751 120.618 174.051 120.328 173.351 119.94C173.551 121.976 174.051 127.115 174.051 129.83V130.508C174.151 133.417 174.151 135.938 173.051 136.811C172.751 137.005 172.351 137.102 171.951 137.005C170.851 136.811 169.851 135.841 168.851 134.29C165.451 128.957 163.551 117.031 166.151 106.365L164.351 106.268C163.551 106.268 162.851 106.753 162.851 107.529C161.951 117.71 162.351 126.727 164.051 132.932C164.151 133.32 164.251 133.611 164.351 133.999C165.851 139.235 167.051 143.404 175.051 150.385L174.451 151.064Z" fill="#383F51"/>
<path d="M179.35 60.7941H178.45C178.95 53.2312 179.55 48.771 182.25 41.7899C185.95 32.6757 192.85 24.434 200.45 19.78C222.75 6.10858 253.15 11.1505 258.95 12.314L258.75 13.1867C252.95 12.0231 222.95 7.07818 200.85 20.5556C193.45 25.0158 186.65 33.3544 183.05 42.1777C180.45 48.868 179.75 53.3282 179.35 60.7941Z" fill="#383F51"/>
<path d="M164.051 74.7563C162.851 74.7563 161.751 73.8836 161.751 72.6232C160.851 62.3454 161.251 53.1342 162.951 46.9287L163.051 46.4439C164.751 40.8202 165.951 36.651 174.451 29.282L175.051 29.9607C166.751 37.1357 165.651 41.0142 163.951 46.7348L163.851 47.2196C162.251 53.4251 161.751 62.4423 162.651 72.6232C162.751 73.3988 163.351 73.9806 164.151 73.8836L165.951 73.7867C164.251 61.2788 165.751 49.2558 169.651 44.4078C170.651 43.2442 171.651 42.5655 172.851 42.4686C173.351 42.4686 173.751 42.5655 174.051 42.8564C174.851 43.6321 174.751 45.2804 174.551 47.5105C174.551 48.1892 174.451 48.8679 174.451 49.5466C174.351 51.7767 174.051 54.8794 173.851 57.1095C173.651 58.8548 173.551 59.9214 173.451 60.6971C174.051 60.3092 174.651 60.0183 175.351 59.8244C175.351 58.5639 175.151 54.2007 175.251 49.9345C175.351 47.0257 176.051 44.9895 177.251 44.5047C177.751 44.3108 178.251 44.4078 178.651 44.6986C179.451 45.3774 179.651 46.9287 179.151 48.577C177.051 55.1703 178.251 60.1153 178.251 60.2123L177.351 60.4062C177.351 60.2123 176.151 55.1703 178.251 48.2862C178.751 46.8318 178.451 45.6682 178.051 45.2804C177.851 45.0865 177.651 45.1834 177.551 45.1834C176.951 45.3774 176.151 46.8318 176.051 49.8375C175.851 54.9764 176.151 60.0183 176.151 60.0183V60.4062L175.751 60.5031C174.751 60.6971 173.751 61.2788 172.951 61.8606C172.851 61.9575 172.751 61.9575 172.751 62.0545L172.451 62.1515L172.051 61.5697L172.251 61.3758C172.451 60.3092 173.151 53.425 173.351 49.4497C173.351 48.771 173.451 48.0922 173.451 47.4135C173.551 45.6682 173.751 43.923 173.251 43.4382C173.151 43.3412 173.051 43.3412 172.751 43.3412C171.851 43.4382 170.951 44.0199 170.151 44.9895C166.951 48.9649 164.751 60.2123 166.651 74.1745L166.751 74.6593L163.951 74.8532C164.151 74.7563 164.051 74.7563 164.051 74.7563Z" fill="#383F51"/>
<path d="M162.251 106.559C162.251 106.462 160.051 99.4811 160.151 89.0094C160.251 80.3799 161.751 73.1079 161.751 73.1079L162.651 73.3018C162.651 73.3988 161.151 80.4769 161.051 89.1063C160.851 99.3841 163.051 106.365 163.051 106.365L162.251 106.559Z" fill="#383F51"/>
<g opacity="0.5">
<path d="M262.25 24.7249L262.15 25.2097C264.75 25.5005 268.35 32.9665 268.65 34.5178C268.75 35.1966 268.55 35.5844 268.45 35.9722C268.25 36.554 267.95 37.0388 268.65 38.0084C269.65 39.6567 276.15 45.3774 279.25 46.6378C282.45 47.8983 284.15 48.674 285.35 51.5828C285.95 53.1342 285.95 55.5582 286.05 58.0791C286.05 60.4062 286.05 62.8302 286.55 64.6724C287.35 67.4843 288.65 70.1022 289.35 71.3627C288.55 70.684 287.75 70.0052 286.95 69.3265C285.55 68.163 284.35 67.1934 283.85 66.5147C283.25 65.642 282.95 62.7332 282.55 59.5335C282.05 55.2673 281.55 50.4193 280.05 48.9649C278.35 47.3166 272.15 44.8926 267.15 42.9534C264.45 41.8868 262.15 41.0142 261.25 40.5294C260.25 39.9476 259.15 38.3962 258.05 36.651C256.05 33.7421 253.85 30.4455 251.15 30.5425V31.0273C253.55 30.9303 255.75 34.13 257.65 36.9418C258.95 38.7841 259.95 40.3354 261.05 41.0142C262.05 41.5959 264.35 42.4686 267.05 43.4382C272.05 45.3774 278.15 47.7044 279.75 49.3527C280.25 49.9345 280.75 51.0011 281.05 52.4555C280.55 51.5828 279.75 50.4193 278.75 49.6436C276.95 48.1892 272.65 47.0257 270.25 46.4439C269.85 46.347 269.55 46.25 269.25 46.153C268.55 45.9591 268.05 46.153 267.65 46.4439C267.15 46.7348 266.65 47.1226 265.35 46.8318C263.95 46.6378 263.35 45.7652 262.75 44.9895C262.35 44.4078 261.85 43.826 261.15 43.4382C259.35 42.3716 257.55 43.0503 256.65 43.4382H256.55C255.85 43.6321 255.95 44.3108 255.95 44.6986C255.95 45.0865 255.95 45.3774 255.75 45.5713C255.55 45.7652 254.95 45.3774 254.45 44.9895C253.65 44.5047 252.75 43.826 251.95 44.2138L252.15 44.6986C252.75 44.4078 253.45 44.9895 254.15 45.3774C254.85 45.8622 255.55 46.25 256.05 45.9591C256.65 45.6682 256.55 45.0865 256.55 44.6017C256.55 44.1169 256.55 43.923 256.75 43.826H256.85C257.75 43.4382 259.35 42.9534 260.95 43.826C261.55 44.2138 261.95 44.6986 262.35 45.2804C263.05 46.153 263.65 47.0257 265.35 47.3166C266.85 47.5105 267.55 47.1226 268.05 46.8318C268.45 46.6378 268.75 46.4439 269.25 46.6378C269.45 46.7348 269.85 46.8318 270.25 46.9287C272.35 47.5105 276.75 48.674 278.55 50.0315C280.45 51.5828 281.55 54.2007 281.65 54.3947C281.95 56.043 282.15 57.8852 282.35 59.6305C282.75 63.0241 283.05 65.9329 283.75 66.8056C284.25 67.4843 285.55 68.5508 286.95 69.7144C289.75 72.0414 293.55 75.1441 293.35 77.2772C293.25 78.4408 293.05 79.6043 292.75 80.8648C292.25 83.4827 291.55 86.3915 292.15 89.4942C293.45 95.9905 294.75 98.2206 296.35 99.4811C297.85 100.742 299.85 101.42 299.85 101.42L300.05 100.936C300.05 100.936 298.15 100.257 296.65 99.0933C295.15 97.8328 293.95 95.6997 292.65 89.3972C292.05 86.2945 292.65 83.4827 293.25 80.9617C293.55 79.6043 293.75 78.4408 293.85 77.2772C293.95 75.6289 292.35 73.7867 290.35 71.9444L290.55 71.8475C290.55 71.8475 288.45 68.2599 287.45 64.4785C286.95 62.6363 286.95 60.3092 286.95 57.9822C286.95 55.3643 286.95 52.9402 286.25 51.2919C284.95 48.1892 283.15 47.3166 279.85 46.0561C276.85 44.8926 270.45 39.1719 269.45 37.6206C268.95 36.8449 269.15 36.457 269.35 35.9722C269.55 35.5844 269.75 35.0996 269.65 34.3239C268.85 32.6756 265.15 25.1127 262.25 24.7249Z" fill="url(#paint2_linear_6253_36115)"/>
<path d="M274.451 84.743C275.351 85.6157 276.951 85.4218 278.651 85.3248C280.351 85.1309 282.251 85.0339 283.851 85.7126C286.951 87.167 289.351 93.6634 289.351 93.7603L289.851 93.5664C289.751 93.2755 287.351 86.7792 284.051 85.2278C282.351 84.4522 280.351 84.6461 278.551 84.743C276.951 84.937 275.451 85.0339 274.751 84.2582C273.951 83.4826 273.351 80.7677 272.751 78.3437C272.051 75.5318 271.551 73.2048 270.651 72.5261C269.851 71.9443 269.151 71.8473 268.451 71.7504C267.751 71.6534 267.151 71.5564 266.751 70.9747C266.551 70.6838 266.651 69.0355 266.751 67.2902C267.051 62.4422 267.451 54.9763 263.751 52.3584C260.751 50.2252 258.551 51.0009 256.651 51.5827C255.051 52.0675 253.751 52.5523 252.151 51.5827C250.851 50.904 250.451 49.5465 249.951 48.0921C249.051 45.2803 247.851 41.6927 240.251 39.4627C238.451 38.9779 236.651 39.2687 234.951 39.4627C232.651 39.8505 230.451 40.1414 228.351 38.7839L228.051 39.1718C230.251 40.6262 232.651 40.2383 235.051 39.9475C236.851 39.6566 238.551 39.4627 240.151 39.9475C247.451 42.1775 248.551 45.5711 249.451 48.286C249.951 49.8374 250.451 51.1948 251.851 52.0675C253.651 53.134 255.251 52.5523 256.851 52.0675C258.751 51.4857 260.751 50.807 263.551 52.7462C267.051 55.2672 266.651 62.7331 266.351 67.1933C266.251 68.9385 266.151 70.0051 266.251 70.6838C265.551 70.3929 264.551 70.199 263.351 70.0051C261.351 69.7142 259.151 69.3264 257.851 68.1629C257.251 67.5811 256.951 66.8054 256.651 65.7389C255.951 63.2179 254.851 59.8243 247.651 57.1094C245.151 56.6246 243.351 57.2064 242.351 57.7881C241.851 58.079 241.651 58.5638 241.451 59.0486C241.151 59.6304 240.851 60.3091 240.051 60.7939C238.651 61.6665 231.051 62.0544 229.551 61.7635C229.451 61.7635 229.351 61.6665 229.351 61.6665C229.351 61.5696 229.451 61.2787 229.551 61.0848C229.851 60.3091 230.351 59.0486 229.151 57.4003L228.751 57.6912C229.751 59.0486 229.351 60.1152 229.051 60.8908C228.851 61.2787 228.751 61.6665 228.951 61.9574C229.051 62.1513 229.251 62.2483 229.451 62.2483C230.851 62.5392 238.751 62.2483 240.351 61.1817C241.251 60.6 241.551 59.8243 241.851 59.2425C242.051 58.7577 242.251 58.3699 242.551 58.176C243.451 57.6912 245.151 57.1094 247.451 57.5942C254.451 60.2121 255.451 63.5088 256.151 65.8358C256.451 66.9024 256.751 67.872 257.451 68.4537C258.851 69.6173 261.151 70.0051 263.151 70.3929C264.551 70.5869 265.751 70.8777 266.351 71.2656C266.851 71.9443 267.551 72.0413 268.351 72.2352C268.951 72.3321 269.651 72.4291 270.251 72.9139C270.951 73.3987 271.551 76.0166 272.051 78.4406C272.951 81.2525 273.551 83.8704 274.451 84.743Z" fill="url(#paint3_linear_6253_36115)"/>
<path d="M222.651 83.9673C223.351 83.2886 223.851 82.8038 225.451 83.0947C226.551 83.2886 228.051 83.8704 229.651 84.4521C232.451 85.5187 235.451 86.5852 236.751 86.1004C237.451 85.9065 237.851 85.4217 238.351 85.1308C239.251 84.3552 240.251 83.4825 243.251 83.9673C245.651 84.3552 247.451 85.5187 248.951 86.4883C250.251 87.3609 251.351 88.0396 252.451 87.9427C253.251 87.8457 253.851 87.4579 254.451 86.9731C255.451 86.1974 256.551 85.4217 259.051 86.4883C261.051 87.264 261.551 88.4275 261.951 89.3971C262.451 90.3667 262.751 91.2393 264.751 90.9484C266.851 90.6576 268.151 89.3971 269.351 88.1366C270.251 87.264 271.251 86.3913 272.451 85.7126L272.251 85.2278C270.951 85.8096 269.951 86.7792 268.951 87.6518C267.651 88.8153 266.451 89.9789 264.551 90.2697C263.051 90.4637 262.751 89.9788 262.351 89.0092C261.951 88.0396 261.351 86.7792 259.151 85.9065C256.251 84.743 255.051 85.7126 253.951 86.4883C253.351 86.9731 252.951 87.264 252.251 87.3609C251.351 87.4579 250.351 86.7792 249.151 86.0035C247.651 85.0339 245.751 83.7734 243.251 83.3856C240.051 82.9008 238.951 83.8704 237.951 84.646C237.551 85.0339 237.051 85.3248 236.551 85.5187C235.351 86.0035 232.451 84.84 229.851 83.8704C228.251 83.2886 226.751 82.7068 225.651 82.5129C223.851 82.1251 223.151 82.8038 222.351 83.4825C221.851 83.9673 221.351 84.4521 220.351 84.646L220.451 85.1308C221.551 85.0339 222.151 84.4521 222.651 83.9673Z" fill="url(#paint4_linear_6253_36115)"/>
<path d="M293.55 81.4464C292.65 83.1917 292.35 87.458 292.85 90.0759C293.35 92.5968 294.35 97.057 296.35 98.8023C297.45 99.7719 299.65 100.741 299.75 100.741L299.95 100.257C299.95 100.257 297.75 99.384 296.75 98.4144C294.85 96.7661 293.85 91.9181 293.45 89.882C292.95 87.0701 293.45 82.9978 294.15 81.5434C294.95 79.992 296.15 79.4103 296.75 79.3133C298.55 79.1194 300.25 82.0282 300.25 82.0282L300.75 81.8343C300.65 81.7373 298.95 78.5376 296.75 78.8285C295.65 79.0224 294.35 79.7981 293.55 81.4464Z" fill="url(#paint5_linear_6253_36115)"/>
<path d="M261.85 80.186C262.25 79.3133 262.55 78.4407 263.45 77.8589C264.45 77.1802 266.95 75.8228 269.25 77.665C270.15 78.4407 270.85 80.3799 271.55 82.1252C272.25 83.9674 272.85 85.6157 273.75 86.1975C274.65 86.7793 276.25 86.6823 278.05 86.5853C279.65 86.4884 281.35 86.3914 282.65 86.7792C285.35 87.5549 288.55 94.0513 288.65 94.1482L289.15 93.9543C289.05 93.6634 285.85 87.1671 282.85 86.2944C281.45 85.9066 279.65 86.0036 278.05 86.1005C276.35 86.1975 274.85 86.2944 274.05 85.8096C273.35 85.3248 272.65 83.6765 272.05 82.0282C271.35 80.089 270.65 78.1498 269.55 77.3741C267.75 75.9197 265.45 76.0167 263.15 77.568C262.25 78.2468 261.75 79.2164 261.45 80.089C261.05 80.9616 260.75 81.8343 259.85 82.2221C258.15 82.9978 256.25 82.4161 255.55 81.3495C255.35 81.0586 255.25 80.7677 255.05 80.4768C254.45 79.6042 253.95 78.6346 252.65 77.4711C250.95 75.9197 244.05 73.1079 240.65 72.6231C238.65 72.3322 237.85 72.817 236.85 73.3988C236.15 73.8836 235.35 74.2714 233.95 74.3684V74.8532C235.45 74.7562 236.25 74.1744 237.05 73.7866C237.95 73.3018 238.65 72.817 240.45 73.1079C243.75 73.5927 250.45 76.4045 252.15 77.8589C253.35 78.9255 253.95 79.8951 254.45 80.7677C254.65 81.0586 254.75 81.3495 254.95 81.6404C255.75 82.8039 257.95 83.5796 259.85 82.7069C261.05 82.1252 261.45 81.0586 261.85 80.186Z" fill="url(#paint6_linear_6253_36115)"/>
</g>
<g opacity="0.5">
<path d="M291.451 101.808C290.051 102.002 288.951 103.553 287.851 105.105C286.951 106.268 285.951 108.111 285.051 109.759C284.251 111.213 283.551 112.377 283.151 112.862L282.751 113.249C281.451 114.025 278.451 114.607 276.051 114.413C274.651 114.316 273.651 114.413 272.751 114.51C271.851 114.607 271.151 114.704 270.551 114.51C270.051 114.316 270.051 114.025 269.951 113.443C269.851 112.959 269.751 112.28 268.951 111.989C268.251 111.698 267.451 111.795 266.651 111.989C265.851 112.086 265.151 112.183 264.751 111.892C264.351 111.601 264.151 111.213 264.051 110.825C263.851 110.341 263.651 109.856 263.051 109.468C262.451 109.08 261.651 109.565 260.751 110.244C259.351 111.213 257.451 112.474 255.051 111.892C252.451 111.31 252.551 110.535 252.751 109.468C252.851 108.983 252.951 108.304 252.651 107.723C252.251 106.656 249.951 105.783 247.551 104.814C245.751 104.038 243.851 103.263 243.251 102.584C242.651 101.808 242.551 101.129 242.451 100.548C242.351 99.8689 242.251 99.3841 241.651 98.8993C240.951 98.3175 239.951 98.7054 239.051 98.8993C238.551 99.0932 237.951 99.1902 237.751 99.0932L237.551 99.4811C237.951 99.675 238.551 99.4811 239.251 99.2871C239.951 99.0932 240.851 98.8023 241.351 99.1902C241.851 99.578 241.851 99.9659 242.051 100.548C242.151 101.129 242.351 101.905 242.951 102.778C243.551 103.553 245.451 104.329 247.451 105.105C249.551 105.977 251.951 106.85 252.251 107.723C252.451 108.207 252.351 108.692 252.251 109.274C252.051 110.438 251.951 111.504 254.951 112.28C257.551 112.862 259.551 111.504 261.051 110.535C261.851 110.05 262.451 109.565 262.851 109.759C263.351 110.05 263.551 110.438 263.751 110.922C263.951 111.31 264.051 111.795 264.651 112.183C265.251 112.668 266.151 112.474 266.951 112.377C267.651 112.28 268.351 112.183 269.051 112.377C269.651 112.571 269.751 112.959 269.751 113.54C269.851 114.025 269.951 114.607 270.651 114.898C271.351 115.189 272.151 115.092 273.051 114.995C273.851 114.898 274.851 114.801 276.251 114.898C277.751 114.995 279.551 114.801 281.151 114.413C279.351 115.479 276.551 116.934 273.751 117.128C271.451 117.322 270.651 116.934 269.351 116.255C268.151 115.673 266.751 114.995 263.551 114.413C258.951 113.637 254.651 115.576 252.351 116.934C251.951 116.837 248.851 115.867 247.951 113.54L247.551 112.377C246.751 110.147 246.051 108.207 245.451 107.141C244.751 105.783 242.351 104.717 240.951 104.523C240.051 104.426 239.551 104.814 239.151 105.202C238.751 105.493 238.351 105.88 237.651 105.783C237.051 105.783 236.451 104.911 235.851 103.941C234.951 102.584 233.751 100.839 231.851 100.16C229.551 99.3841 228.451 100.16 227.551 100.839C227.051 101.226 226.651 101.517 226.151 101.711L226.251 102.196C226.951 102.002 227.451 101.614 227.851 101.323C228.751 100.645 229.551 99.9659 231.651 100.645C233.451 101.323 234.551 102.875 235.451 104.232C236.251 105.396 236.851 106.268 237.651 106.268C238.551 106.365 239.051 105.88 239.551 105.59C239.951 105.202 240.351 104.911 240.951 105.105C242.451 105.299 244.551 106.462 245.151 107.432C245.651 108.401 246.451 110.438 247.251 112.571L247.651 113.734C248.451 115.867 250.851 116.934 251.951 117.225C251.251 117.613 250.851 117.903 250.851 118C250.851 118 246.551 122.558 243.351 124.594C240.051 126.63 237.351 126.63 236.451 125.466C235.951 124.885 235.851 123.721 235.851 122.364C235.851 121.103 235.751 119.746 235.251 118.485C234.551 116.546 231.751 115.189 230.851 114.898C229.651 114.316 227.951 113.831 227.151 114.122C225.751 114.607 225.251 116.74 225.251 116.837L225.751 116.934C225.751 116.934 226.151 114.995 227.351 114.607C227.851 114.413 229.051 114.704 230.651 115.383C232.251 116.061 234.251 117.419 234.751 118.776C235.251 119.94 235.251 121.297 235.351 122.558C235.451 124.012 235.451 125.176 236.051 125.951C237.151 127.115 239.951 127.406 243.651 125.175C246.851 123.236 250.951 118.873 251.251 118.582C251.551 118.388 257.251 114.025 263.651 115.092C266.851 115.576 268.251 116.352 269.351 116.837C269.651 116.934 269.851 117.128 270.151 117.225C268.551 117.807 267.651 117.71 266.951 117.71C265.851 117.613 265.351 117.71 264.451 119.067C263.251 120.909 263.051 124.4 262.951 126.824C262.851 127.793 262.851 128.569 262.751 128.957C262.351 130.411 261.751 131.187 260.351 131.575C259.251 131.866 258.851 131.575 258.351 131.187C258.151 131.09 258.051 130.896 257.851 130.799C257.551 130.605 257.351 130.217 257.151 129.83C256.651 128.957 255.851 127.696 254.051 127.793C252.451 127.89 251.951 128.86 251.351 129.83C250.951 130.508 250.651 131.187 249.851 131.769C248.051 133.126 242.751 134.678 239.851 134.968C236.651 135.259 230.651 134.678 230.251 134.193C230.151 133.999 230.551 133.126 230.851 132.544C231.451 131.381 232.151 129.83 231.951 128.763C231.951 128.569 231.851 128.472 231.851 128.278C231.551 126.921 231.351 126.824 230.051 126.921C229.051 127.018 228.951 127.696 228.851 128.278C228.751 128.666 228.751 129.054 228.451 129.345C227.751 129.83 225.351 129.636 224.451 129.539L224.351 130.024C224.751 130.024 227.851 130.411 228.751 129.733C229.251 129.345 229.251 128.86 229.351 128.375C229.451 127.793 229.551 127.503 230.051 127.406H230.951C231.051 127.503 231.151 127.793 231.251 128.375C231.251 128.569 231.351 128.666 231.351 128.86C231.551 129.733 230.851 131.187 230.351 132.254C229.851 133.32 229.551 133.902 229.651 134.29C230.051 135.356 237.351 135.647 239.751 135.453C242.751 135.162 248.051 133.611 250.051 132.157C250.851 131.575 251.251 130.799 251.651 130.12C252.151 129.151 252.551 128.375 253.951 128.278C255.451 128.181 256.051 129.151 256.551 130.024C256.851 130.508 257.051 130.896 257.451 131.09C257.651 131.187 257.851 131.381 257.951 131.478C258.551 131.963 259.051 132.351 260.451 131.963C261.951 131.478 262.751 130.605 263.251 128.957C263.351 128.666 263.351 128.181 263.451 127.6C263.751 127.987 263.751 128.375 263.651 128.763C263.651 129.248 263.651 129.733 263.951 130.217C264.551 130.993 265.551 130.508 266.251 130.217C266.551 130.024 266.951 129.927 267.051 129.927C267.251 129.927 267.351 130.023 267.451 130.12C267.651 130.411 267.751 130.896 267.651 131.575C267.551 132.351 266.351 133.417 265.651 133.999C265.351 134.193 265.151 134.484 265.051 134.581C264.851 134.872 264.851 135.259 264.851 135.55C264.851 135.938 264.951 136.326 264.651 136.811C264.451 137.005 264.251 137.199 263.951 137.199C263.351 137.296 262.651 137.005 262.551 136.811C262.451 136.714 262.451 136.52 262.451 136.326C262.451 136.035 262.451 135.647 262.251 135.259C261.851 134.775 261.051 134.581 259.951 134.678C259.351 134.775 259.251 135.259 259.251 135.744C259.251 136.229 259.251 136.811 258.451 137.102C257.951 137.296 257.451 137.005 256.751 136.617C255.751 136.035 254.451 135.356 252.651 136.326C250.451 137.489 250.751 138.75 250.851 139.623C250.951 139.913 250.951 140.204 250.851 140.398C250.751 140.592 250.651 140.689 250.551 140.689C250.351 140.689 250.151 140.592 250.051 140.592L249.751 140.98C249.751 140.98 250.251 141.271 250.651 141.174C250.951 141.077 251.151 140.883 251.251 140.495C251.351 140.204 251.351 139.816 251.251 139.429C251.051 138.556 250.851 137.586 252.751 136.617C254.351 135.841 255.351 136.326 256.351 136.908C257.051 137.296 257.751 137.683 258.451 137.392C259.451 137.005 259.551 136.229 259.551 135.647C259.551 135.162 259.651 135.065 259.751 135.065C260.651 134.968 261.351 135.162 261.651 135.55C261.851 135.744 261.751 136.035 261.751 136.229C261.751 136.52 261.751 136.908 261.951 137.102C262.251 137.296 263.051 137.683 263.751 137.586C264.251 137.586 264.651 137.296 264.851 137.005C265.251 136.423 265.251 135.841 265.151 135.453C265.151 135.162 265.151 134.968 265.251 134.872C265.351 134.775 265.551 134.581 265.851 134.387C266.651 133.708 267.951 132.544 268.051 131.672C268.151 130.896 268.051 130.217 267.751 129.83C267.551 129.636 267.251 129.539 266.951 129.442C266.651 129.442 266.251 129.636 265.851 129.83C265.051 130.217 264.551 130.411 264.251 130.024C263.951 129.636 264.051 129.345 264.051 128.86C264.051 128.278 264.051 127.599 263.351 127.018V126.824C263.451 124.497 263.751 121.006 264.751 119.358C265.551 118.194 265.951 118.194 266.851 118.194C267.651 118.194 268.851 118.291 270.751 117.516C271.551 117.807 272.451 117.903 273.951 117.807C278.551 117.516 283.151 114.025 283.451 113.831C283.651 113.637 283.851 113.54 283.951 113.346C284.351 112.862 285.051 111.601 285.951 110.147C286.851 108.595 287.951 106.753 288.751 105.59C289.751 104.135 290.851 102.681 291.951 102.487C292.451 102.39 293.051 102.584 293.651 103.069C295.951 104.717 304.151 106.85 304.351 106.947L304.451 106.462C303.951 106.365 296.151 104.232 293.951 102.681C292.851 101.905 292.151 101.614 291.451 101.808Z" fill="url(#paint7_linear_6253_36115)"/>
<path d="M293.551 105.105C291.051 105.784 288.451 109.274 287.651 110.438C286.051 112.862 285.751 118.582 286.351 121.2C286.551 122.364 287.051 123.236 287.451 124.012C287.851 124.885 288.251 125.563 288.251 126.533C288.251 128.472 288.551 129.539 289.251 130.508C289.451 130.702 289.551 130.702 289.751 130.799C290.151 130.799 290.551 130.411 290.951 130.024C291.251 129.733 291.651 129.248 291.851 129.345C291.951 129.345 292.051 129.539 292.151 129.636C292.851 130.896 291.851 131.866 291.851 131.963L292.251 132.351C292.251 132.351 293.551 131.09 292.651 129.442C292.451 129.151 292.251 128.957 291.951 128.957C291.451 128.86 291.051 129.345 290.551 129.83C290.351 130.024 289.951 130.508 289.751 130.411L289.651 130.314C288.951 129.442 288.751 128.472 288.751 126.63C288.751 125.563 288.351 124.788 287.951 123.915C287.551 123.236 287.151 122.364 286.951 121.2C286.451 118.776 286.751 113.153 288.151 110.825C289.051 109.468 291.551 106.365 293.751 105.687C294.351 105.493 295.451 105.784 296.251 106.171C300.851 108.014 304.051 108.692 304.051 108.692L304.151 108.208C304.151 108.208 300.951 107.529 296.351 105.687C295.851 105.396 294.451 104.911 293.551 105.105Z" fill="url(#paint8_linear_6253_36115)"/>
<path d="M293.151 104.038C292.251 104.135 291.251 105.105 290.851 105.396L290.751 105.493C288.551 107.238 286.451 109.856 285.851 111.601C285.651 112.086 285.551 112.668 285.451 113.346C284.051 116.061 283.551 118.776 283.051 121.394C282.751 122.751 282.451 124.303 282.051 125.66C280.851 129.539 274.251 136.035 273.951 136.326C273.651 136.52 267.951 140.883 265.951 141.368C265.051 141.562 260.751 142.531 259.551 142.919C258.551 143.307 256.551 148.931 256.251 149.997C256.151 152.712 255.851 156.688 255.651 156.978C255.351 157.463 253.751 157.948 253.051 157.851C252.851 157.851 252.551 157.56 252.351 157.172C252.051 156.688 251.551 156.106 250.751 156.009C250.151 155.912 248.451 156.3 245.651 156.978C242.951 157.657 239.351 158.433 238.751 158.239C238.151 158.045 238.051 157.657 237.951 157.366C237.851 156.978 237.751 156.591 237.151 156.494C236.951 156.494 236.751 156.494 236.751 156.591C236.451 156.784 236.451 157.366 236.551 158.142C236.551 158.918 236.651 159.887 236.251 160.275L236.651 160.566C237.151 159.984 237.051 159.015 237.051 158.045C237.051 157.56 236.951 156.978 237.051 156.881C237.251 156.881 237.351 157.075 237.451 157.366C237.551 157.754 237.751 158.336 238.551 158.627C239.251 158.918 241.851 158.336 245.751 157.366C247.951 156.881 250.251 156.3 250.751 156.397C251.351 156.494 251.651 156.978 251.951 157.366C252.251 157.754 252.551 158.142 252.951 158.239C253.751 158.336 255.551 157.754 255.951 157.172C256.351 156.688 256.551 151.549 256.651 149.9C257.751 146.798 259.151 143.404 259.651 143.113C260.551 142.725 263.451 142.047 265.951 141.562C268.051 141.077 273.951 136.617 274.151 136.423C274.451 136.132 281.151 129.636 282.451 125.563C282.851 124.109 283.151 122.655 283.451 121.2C283.851 119.164 284.251 117.031 285.151 114.801C285.051 115.964 284.951 117.322 284.851 118.582C284.751 119.649 284.651 120.618 284.651 121.394C283.951 127.406 283.051 130.702 281.451 132.932C279.651 135.356 273.051 142.725 272.251 143.307C271.851 143.598 271.351 143.792 270.751 143.889C270.251 143.986 269.751 144.18 269.151 144.374C267.051 145.246 264.751 148.834 263.051 151.355C262.151 152.712 261.451 153.779 261.051 154.07C260.451 154.457 260.051 154.36 259.551 154.07C259.151 153.876 258.751 153.779 258.251 153.779V154.264C258.751 154.264 259.051 154.457 259.351 154.554C259.951 154.748 260.451 155.039 261.351 154.457C261.851 154.167 262.551 153.1 263.451 151.646C265.051 149.125 267.351 145.731 269.351 144.858C269.851 144.664 270.351 144.471 270.851 144.374C271.551 144.18 272.051 144.083 272.551 143.695C273.351 143.113 280.051 135.647 281.851 133.223C283.451 130.993 284.451 127.599 285.151 121.491C285.251 120.715 285.351 119.746 285.351 118.679C285.551 115.964 285.751 112.959 286.351 111.504C286.951 109.856 288.951 107.335 291.051 105.59C291.051 105.59 291.151 105.59 291.151 105.493C291.451 105.202 292.451 104.329 293.151 104.232C293.851 104.135 295.251 104.62 297.151 105.299C298.951 105.977 301.251 106.753 303.951 107.432L304.051 106.947C301.351 106.268 299.051 105.493 297.251 104.814C295.451 104.426 294.051 103.941 293.151 104.038Z" fill="url(#paint9_linear_6253_36115)"/>
<path d="M223.551 154.748C223.951 154.748 224.551 155.233 225.151 155.621C226.351 156.397 227.751 157.269 228.851 156.785C229.451 156.494 229.951 155.718 230.551 154.748C231.651 153.1 233.051 151.064 235.651 150.191C239.751 148.834 247.151 145.44 247.151 145.44C247.251 145.44 252.951 141.271 258.651 142.725L258.751 142.241C253.051 140.786 247.351 144.762 246.851 145.052C246.751 145.052 246.651 145.149 246.351 145.246C246.251 144.665 245.851 143.404 244.651 142.532C243.751 141.853 242.651 141.659 241.351 141.756C239.051 142.047 236.951 143.113 235.051 143.986C233.451 144.762 232.051 145.537 231.051 145.44C230.151 145.343 230.051 144.859 229.851 144.277C229.651 143.501 229.351 142.532 227.651 142.338C225.851 142.144 225.051 143.404 224.451 144.374C223.951 145.149 223.551 145.634 223.051 145.634C221.451 145.537 219.151 143.21 219.151 143.21L218.751 143.501C218.851 143.598 221.151 145.925 222.951 146.022C223.851 146.119 224.351 145.343 224.851 144.568C225.451 143.598 226.151 142.628 227.651 142.822C229.051 143.016 229.251 143.598 229.451 144.374C229.651 145.052 229.851 145.828 231.051 145.925C232.251 146.022 233.651 145.246 235.351 144.471C237.151 143.598 239.251 142.532 241.451 142.241C242.651 142.047 243.651 142.338 244.451 142.919C245.551 143.695 245.851 145.052 245.951 145.44C243.751 146.41 238.651 148.64 235.551 149.707C232.751 150.579 231.251 152.809 230.151 154.458C229.551 155.33 229.051 156.009 228.551 156.3C227.751 156.785 226.451 155.912 225.351 155.233C224.651 154.748 223.951 154.361 223.551 154.264C222.851 154.167 221.751 154.845 220.551 155.621C219.451 156.3 218.151 157.172 217.351 157.269L217.451 157.754C218.451 157.56 219.751 156.785 220.951 156.009C221.951 155.33 223.051 154.652 223.551 154.748Z" fill="url(#paint10_linear_6253_36115)"/>
<path d="M295.25 106.85C293.85 107.432 292.75 109.08 291.95 110.341C291.65 110.825 291.35 111.213 291.15 111.407C290.95 111.601 290.75 111.601 290.55 111.698C289.95 111.795 289.45 111.989 288.95 113.249C288.15 115.092 287.75 119.455 288.75 120.909C289.15 121.491 289.65 121.588 289.95 121.588C290.95 121.491 291.95 120.231 292.35 119.164C292.65 118.388 293.45 118.291 294.25 118.291C294.95 118.291 295.75 118.194 296.15 117.613C296.35 117.225 296.65 117.128 296.85 117.128C297.15 117.225 297.45 117.613 297.55 118.582C297.75 119.94 297.15 122.17 297.15 122.17L297.65 122.267C297.65 122.17 298.25 120.037 298.05 118.485C297.95 117.419 297.55 116.74 296.95 116.546C296.55 116.449 296.05 116.643 295.65 117.225C295.45 117.613 294.75 117.613 294.15 117.71C293.25 117.807 292.15 117.904 291.75 118.97C291.35 120.134 290.45 121.006 289.75 121.103C289.45 121.103 289.25 121.006 289.05 120.715C288.25 119.455 288.55 115.383 289.35 113.443C289.85 112.377 290.15 112.28 290.55 112.183C290.85 112.183 291.15 112.086 291.45 111.795C291.65 111.601 291.95 111.116 292.35 110.632C293.05 109.468 294.25 107.82 295.45 107.335C296.35 106.947 297.25 107.335 298.55 107.917C299.75 108.401 301.25 109.08 303.35 109.371L303.45 108.886C301.45 108.595 299.95 108.014 298.75 107.432C297.45 106.85 296.35 106.365 295.25 106.85Z" fill="url(#paint11_linear_6253_36115)"/>
</g>
<path d="M176.551 118.291C173.751 118.291 171.551 115.48 169.951 110.05C168.551 105.105 167.751 98.2207 167.751 90.27C167.751 82.3193 168.551 75.5321 169.951 70.4901C171.551 65.1573 173.751 62.2485 176.551 62.2485C179.351 62.2485 182.451 65.3513 184.851 70.4901C187.351 76.0169 188.751 82.998 188.751 90.27C188.751 97.542 187.351 104.523 184.851 110.05C182.551 115.189 179.451 118.291 176.551 118.291ZM176.551 62.3455C171.251 62.3455 167.851 73.302 167.851 90.27C167.851 107.238 171.251 118.195 176.551 118.195C182.151 118.195 188.551 105.978 188.551 90.27C188.651 74.5625 182.151 62.3455 176.551 62.3455Z" fill="#383F51"/>
<path d="M176.651 116.934C174.251 116.934 172.351 114.219 170.951 109.177C169.751 104.426 169.051 98.0267 169.051 90.4638C169.051 82.9009 169.751 76.5015 170.951 71.7505C172.251 66.6116 174.251 63.9937 176.651 63.9937C179.051 63.9937 181.751 66.8055 183.751 71.7505C185.951 76.9863 187.151 83.5796 187.151 90.4638C187.151 97.3479 185.951 103.941 183.751 109.177C181.751 114.122 179.151 116.934 176.651 116.934ZM176.651 63.9937C172.151 63.9937 169.251 74.3684 169.251 90.3668C169.251 106.365 172.151 116.74 176.651 116.74C181.451 116.74 187.051 105.202 187.051 90.3668C187.051 75.5319 181.451 63.9937 176.651 63.9937Z" fill="#383F51"/>
<path d="M176.551 115.189C174.651 115.189 173.051 112.668 172.051 107.917C171.051 103.457 170.551 97.445 170.551 90.4638C170.551 83.4827 171.051 77.3742 172.051 73.011C173.151 68.26 174.651 65.739 176.551 65.739C178.551 65.739 180.751 68.4539 182.451 73.011C184.351 77.956 185.351 84.1614 185.351 90.4638C185.351 96.7663 184.351 102.972 182.451 107.917C180.751 112.474 178.551 115.189 176.551 115.189ZM176.551 65.836C172.951 65.836 170.651 75.532 170.651 90.4638C170.651 105.396 172.951 115.092 176.551 115.092C178.451 115.092 180.651 112.377 182.351 107.917C184.251 102.972 185.251 96.7663 185.251 90.4638C185.251 84.1614 184.251 77.956 182.351 73.011C180.651 68.5509 178.451 65.836 176.551 65.836Z" fill="#383F51"/>
<path d="M176.65 113.249C173.15 113.249 171.95 101.032 171.95 90.5607C171.95 80.0891 173.15 67.8721 176.65 67.8721C179.75 67.8721 183.55 77.9559 183.55 90.5607C183.55 103.166 179.75 113.249 176.65 113.249ZM176.65 67.969C173.85 67.969 172.05 76.8894 172.05 90.5607C172.05 104.232 173.85 113.152 176.65 113.152C178.15 113.152 179.85 110.728 181.15 106.559C182.65 102.002 183.45 96.3784 183.45 90.5607C183.45 84.7431 182.65 79.1195 181.15 74.5623C179.85 70.393 178.15 67.969 176.65 67.969Z" fill="#383F51"/>
<path d="M176.951 111.116C174.451 111.116 173.551 100.16 173.551 90.6578C173.551 81.1557 174.451 70.1992 176.951 70.1992C179.251 70.1992 181.951 79.3135 181.951 90.6578C181.951 102.002 179.151 111.116 176.951 111.116ZM176.951 70.3931C174.951 70.3931 173.651 78.3439 173.651 90.7548C173.651 103.166 174.951 111.116 176.951 111.116C179.151 111.116 181.851 101.711 181.851 90.7548C181.851 79.7013 179.151 70.3931 176.951 70.3931Z" fill="#383F51"/>
<path d="M176.75 120.812C173.15 120.812 170.25 117.613 168.35 111.601C166.55 106.171 165.65 98.7053 165.65 90.1728C165.65 81.6404 166.55 74.1744 168.35 68.7447C170.35 62.7331 173.25 59.5334 176.75 59.5334C180.45 59.5334 184.25 62.8301 187.15 68.6477C190.25 74.6592 191.95 82.3191 191.95 90.1728C191.95 98.0266 190.25 105.686 187.15 111.698C184.15 117.419 180.35 120.812 176.75 120.812ZM176.75 60.503C172.95 60.503 170.65 65.0602 169.35 68.9386C167.65 74.1744 166.75 81.7373 166.75 90.0759C166.75 98.4145 167.65 105.977 169.35 111.213C170.55 115.092 172.85 119.649 176.75 119.649C179.95 119.649 183.45 116.449 186.15 111.116C189.15 105.299 190.75 97.7357 190.75 90.0759C190.75 82.416 189.15 74.8531 186.15 69.0355C183.35 63.7027 179.85 60.503 176.75 60.503Z" fill="#383F51"/>
<mask id="mask0_6253_36115" style="mask-type:luminance" maskUnits="userSpaceOnUse" x="-64" y="4" width="237" height="181">
<path d="M-63.8496 88.5246L13.8504 4.46021L172.65 88.0398L-7.84961 185L-63.8496 88.5246Z" fill="white"/>
</mask>
<g mask="url(#mask0_6253_36115)">
<path d="M172.45 190.817C114.15 190.817 66.6504 144.858 66.6504 88.2337C66.6504 31.609 114.15 -14.2532 172.45 -14.2532C230.75 -14.2532 278.25 31.7059 278.25 88.3306C278.25 144.955 230.75 190.817 172.45 190.817ZM172.45 -3.58756C120.25 -3.58756 77.6504 37.6205 77.6504 88.3306C77.6504 139.041 120.15 180.249 172.45 180.249C224.75 180.249 267.25 139.041 267.25 88.3306C267.25 37.6205 224.65 -3.58756 172.45 -3.58756Z" fill="#559AFF"/>
</g>
<mask id="mask1_6253_36115" style="mask-type:luminance" maskUnits="userSpaceOnUse" x="-64" y="4" width="237" height="181">
<path d="M-63.8496 88.5246L13.8504 4.46021L172.65 88.0398L-7.84961 185L-63.8496 88.5246Z" fill="white"/>
</mask>
<g mask="url(#mask1_6253_36115)">
<path d="M173.15 196.15C111.95 196.15 62.1504 147.864 62.1504 88.5247C62.1504 29.1851 111.95 -19.1011 173.15 -19.1011C234.35 -19.1011 284.15 29.1851 284.15 88.5247C284.15 147.864 234.35 196.15 173.15 196.15ZM173.15 -13.2835C115.25 -13.2835 68.1504 32.3848 68.1504 88.5247C68.1504 144.665 115.25 190.333 173.15 190.333C231.05 190.333 278.15 144.665 278.15 88.5247C278.15 32.3848 231.05 -13.2835 173.15 -13.2835Z" fill="#8CE5CE"/>
</g>
<mask id="mask2_6253_36115" style="mask-type:luminance" maskUnits="userSpaceOnUse" x="-64" y="4" width="237" height="181">
<path d="M-63.8496 88.5246L13.8504 4.46021L172.65 88.0398L-7.84961 185L-63.8496 88.5246Z" fill="white"/>
</mask>
<g mask="url(#mask2_6253_36115)">
<path d="M172.051 225.723C93.6506 225.723 29.8506 163.863 29.8506 87.846C29.8506 11.8293 93.6506 -50.0312 172.051 -50.0312C250.451 -50.0312 314.251 11.8293 314.251 87.846C314.251 163.863 250.351 225.723 172.051 225.723ZM172.051 -18.0344C111.851 -18.0344 62.8506 29.476 62.8506 87.846C62.8506 146.216 111.851 193.726 172.051 193.726C232.251 193.726 281.251 146.216 281.251 87.846C281.251 29.476 232.251 -18.0344 172.051 -18.0344Z" fill="#1FCBDD"/>
</g>
<mask id="mask3_6253_36115" style="mask-type:luminance" maskUnits="userSpaceOnUse" x="-64" y="4" width="237" height="181">
<path d="M-63.8496 88.5246L13.8504 4.46021L172.65 88.0398L-7.84961 185L-63.8496 88.5246Z" fill="white"/>
</mask>
<g mask="url(#mask3_6253_36115)">
<path d="M172.15 233.965C88.8504 233.965 21.1504 168.323 21.1504 87.555C21.1504 6.78726 88.8504 -58.8547 172.15 -58.8547C255.45 -58.8547 323.15 6.78726 323.15 87.555C323.15 168.323 255.45 233.965 172.15 233.965ZM172.15 -49.1587C94.4504 -49.1587 31.1504 12.217 31.1504 87.555C31.1504 162.893 94.4504 224.269 172.15 224.269C249.85 224.269 313.15 162.893 313.15 87.555C313.15 12.217 249.95 -49.1587 172.15 -49.1587Z" fill="#589EA3"/>
</g>
<path d="M120.55 87.8459H80.6504V88.3307H120.55V87.8459Z" fill="#383F51"/>
<path d="M127.45 93.6635C126.65 94.0513 124.95 94.5361 124.25 94.827C124.15 94.3422 123.45 87.8459 124.45 82.804C125.75 83.0948 126.45 83.2887 127.85 83.8705C127.05 88.0398 127.35 92.9848 127.45 93.6635Z" fill="#8C8C8C"/>
</g>
<defs>
<radialGradient id="paint0_radial_6253_36115" cx="0" cy="0" r="1" gradientUnits="userSpaceOnUse" gradientTransform="translate(225.663 71.2672) rotate(-90) scale(78.623 81.088)">
<stop offset="0.27" stop-color="#212F3C" stop-opacity="0"/>
<stop offset="1" stop-color="#212F3C"/>
</radialGradient>
<radialGradient id="paint1_radial_6253_36115" cx="0" cy="0" r="1" gradientUnits="userSpaceOnUse" gradientTransform="translate(182.512 82.0621) rotate(-90) scale(52.5451 54.1925)">
<stop offset="0.27" stop-color="#212F3C" stop-opacity="0"/>
<stop offset="1" stop-color="#212F3C"/>
</radialGradient>
<linearGradient id="paint2_linear_6253_36115" x1="159.619" y1="112.792" x2="342.369" y2="21.5773" gradientUnits="userSpaceOnUse">
<stop offset="0.05" stop-color="#8DBCAD" stop-opacity="0.6"/>
<stop offset="0.48" stop-color="#5EA6AE" stop-opacity="0.6"/>
<stop offset="0.59" stop-color="#5CA7AF" stop-opacity="0.6"/>
<stop offset="0.66" stop-color="#5796AC" stop-opacity="0.7"/>
<stop offset="0.81" stop-color="#507DA7" stop-opacity="0.89"/>
<stop offset="0.88" stop-color="#4E74A6" stop-opacity="0.98"/>
</linearGradient>
<linearGradient id="paint3_linear_6253_36115" x1="156.673" y1="106.888" x2="339.423" y2="15.6733" gradientUnits="userSpaceOnUse">
<stop offset="0.05" stop-color="#8DBCAD" stop-opacity="0.6"/>
<stop offset="0.48" stop-color="#5EA6AE" stop-opacity="0.6"/>
<stop offset="0.59" stop-color="#5CA7AF" stop-opacity="0.6"/>
<stop offset="0.66" stop-color="#5796AC" stop-opacity="0.7"/>
<stop offset="0.81" stop-color="#507DA7" stop-opacity="0.89"/>
<stop offset="0.88" stop-color="#4E74A6" stop-opacity="0.98"/>
</linearGradient>
<linearGradient id="paint4_linear_6253_36115" x1="162.302" y1="118.164" x2="345.051" y2="26.9497" gradientUnits="userSpaceOnUse">
<stop offset="0.05" stop-color="#8DBCAD" stop-opacity="0.6"/>
<stop offset="0.48" stop-color="#5EA6AE" stop-opacity="0.6"/>
<stop offset="0.59" stop-color="#5CA7AF" stop-opacity="0.6"/>
<stop offset="0.66" stop-color="#5796AC" stop-opacity="0.7"/>
<stop offset="0.81" stop-color="#507DA7" stop-opacity="0.89"/>
<stop offset="0.88" stop-color="#4E74A6" stop-opacity="0.98"/>
</linearGradient>
<linearGradient id="paint5_linear_6253_36115" x1="173.831" y1="141.265" x2="356.581" y2="50.0503" gradientUnits="userSpaceOnUse">
<stop offset="0.05" stop-color="#8DBCAD" stop-opacity="0.6"/>
<stop offset="0.48" stop-color="#5EA6AE" stop-opacity="0.6"/>
<stop offset="0.59" stop-color="#5CA7AF" stop-opacity="0.6"/>
<stop offset="0.66" stop-color="#5796AC" stop-opacity="0.7"/>
<stop offset="0.81" stop-color="#507DA7" stop-opacity="0.89"/>
<stop offset="0.88" stop-color="#4E74A6" stop-opacity="0.98"/>
</linearGradient>
<linearGradient id="paint6_linear_6253_36115" x1="164.507" y1="122.584" x2="347.257" y2="31.3698" gradientUnits="userSpaceOnUse">
<stop offset="0.05" stop-color="#8DBCAD" stop-opacity="0.6"/>
<stop offset="0.48" stop-color="#5EA6AE" stop-opacity="0.6"/>
<stop offset="0.59" stop-color="#5CA7AF" stop-opacity="0.6"/>
<stop offset="0.66" stop-color="#5796AC" stop-opacity="0.7"/>
<stop offset="0.81" stop-color="#507DA7" stop-opacity="0.89"/>
<stop offset="0.88" stop-color="#4E74A6" stop-opacity="0.98"/>
</linearGradient>
<linearGradient id="paint7_linear_6253_36115" x1="234.933" y1="63.8031" x2="294.432" y2="169.672" gradientUnits="userSpaceOnUse">
<stop offset="0.05" stop-color="#8DBCAD" stop-opacity="0.6"/>
<stop offset="0.48" stop-color="#5EA6AE" stop-opacity="0.6"/>
<stop offset="0.59" stop-color="#5CA7AF" stop-opacity="0.6"/>
<stop offset="0.66" stop-color="#5796AC" stop-opacity="0.7"/>
<stop offset="0.81" stop-color="#507DA7" stop-opacity="0.89"/>
<stop offset="0.88" stop-color="#4E74A6" stop-opacity="0.98"/>
</linearGradient>
<linearGradient id="paint8_linear_6253_36115" x1="258.897" y1="50.336" x2="318.395" y2="156.205" gradientUnits="userSpaceOnUse">
<stop offset="0.05" stop-color="#8DBCAD" stop-opacity="0.6"/>
<stop offset="0.48" stop-color="#5EA6AE" stop-opacity="0.6"/>
<stop offset="0.59" stop-color="#5CA7AF" stop-opacity="0.6"/>
<stop offset="0.66" stop-color="#5796AC" stop-opacity="0.7"/>
<stop offset="0.81" stop-color="#507DA7" stop-opacity="0.89"/>
<stop offset="0.88" stop-color="#4E74A6" stop-opacity="0.98"/>
</linearGradient>
<linearGradient id="paint9_linear_6253_36115" x1="232.329" y1="65.2667" x2="291.828" y2="171.136" gradientUnits="userSpaceOnUse">
<stop offset="0.05" stop-color="#8DBCAD" stop-opacity="0.6"/>
<stop offset="0.48" stop-color="#5EA6AE" stop-opacity="0.6"/>
<stop offset="0.59" stop-color="#5CA7AF" stop-opacity="0.6"/>
<stop offset="0.66" stop-color="#5796AC" stop-opacity="0.7"/>
<stop offset="0.81" stop-color="#507DA7" stop-opacity="0.89"/>
<stop offset="0.88" stop-color="#4E74A6" stop-opacity="0.98"/>
</linearGradient>
<linearGradient id="paint10_linear_6253_36115" x1="200.619" y1="83.0877" x2="260.117" y2="188.957" gradientUnits="userSpaceOnUse">
<stop offset="0.05" stop-color="#8DBCAD" stop-opacity="0.6"/>
<stop offset="0.48" stop-color="#5EA6AE" stop-opacity="0.6"/>
<stop offset="0.59" stop-color="#5CA7AF" stop-opacity="0.6"/>
<stop offset="0.66" stop-color="#5796AC" stop-opacity="0.7"/>
<stop offset="0.81" stop-color="#507DA7" stop-opacity="0.89"/>
<stop offset="0.88" stop-color="#4E74A6" stop-opacity="0.98"/>
</linearGradient>
<linearGradient id="paint11_linear_6253_36115" x1="260.469" y1="49.4516" x2="319.968" y2="155.321" gradientUnits="userSpaceOnUse">
<stop offset="0.05" stop-color="#8DBCAD" stop-opacity="0.6"/>
<stop offset="0.48" stop-color="#5EA6AE" stop-opacity="0.6"/>
<stop offset="0.59" stop-color="#5CA7AF" stop-opacity="0.6"/>
<stop offset="0.66" stop-color="#5796AC" stop-opacity="0.7"/>
<stop offset="0.81" stop-color="#507DA7" stop-opacity="0.89"/>
<stop offset="0.88" stop-color="#4E74A6" stop-opacity="0.98"/>
</linearGradient>
<clipPath id="clip0_6253_36115">
<rect width="360" height="185" fill="white" transform="translate(0.150391)"/>
</clipPath>
</defs>
</svg>
