<svg width="330" height="330" viewBox="0 0 330 330" fill="none" xmlns="http://www.w3.org/2000/svg">
<g clip-path="url(#clip0_3672_17006)">
<path d="M221.335 154.511C215.03 147.97 214.971 148.088 212.084 144.788C206.839 138.777 190.987 118.859 167.003 118.564H166.767C161.523 118.564 156.691 119.566 152.271 121.098C150.739 121.629 145.494 121.629 144.021 120.922C142.489 120.214 142.901 122.984 141.251 122.395C138.305 121.275 138.01 128.641 135.712 130.468C128.817 135.948 123.985 141.782 121.51 144.611C118.564 147.97 118.564 147.911 111.551 155.1C94.6389 170.245 83.9728 192.107 83.855 216.622C83.7371 252.156 106.13 282.563 137.539 294.348C137.539 294.407 137.892 294.525 137.892 294.584C139.955 295.409 146.614 297.707 152.507 298.473C156.867 299.181 161.876 299.534 166.414 299.593C212.142 299.711 249.326 262.704 249.444 217.034C249.562 192.048 238.66 169.714 221.335 154.511Z" fill="white"/>
<path d="M166.709 299.888H166.473C161.759 299.888 156.632 299.475 152.448 298.768C146.555 298.002 139.896 295.763 137.775 294.82L137.539 294.702V294.643C137.48 294.643 137.421 294.584 137.362 294.525C121.687 288.632 108.251 278.202 98.5872 264.472C88.6872 250.388 83.4425 233.77 83.5015 216.445C83.5604 204.423 86.0354 192.814 91.0443 182.03C95.8175 171.6 102.653 162.407 111.316 154.688C112.376 153.627 113.26 152.684 114.026 151.918C118.387 147.439 118.741 147.086 121.275 144.257C121.569 143.904 121.864 143.55 122.276 143.138C124.987 140.073 129.466 134.947 135.594 130.055C136.478 129.407 137.068 127.757 137.598 126.166C138.364 123.927 139.13 121.805 140.78 121.805C141.016 121.805 141.251 121.864 141.487 121.923C141.9 122.1 142.076 121.923 142.43 121.334C142.666 120.863 142.96 120.332 143.668 120.332C143.844 120.332 144.08 120.391 144.316 120.509C144.964 120.863 146.732 121.039 148.735 121.039C150.326 121.039 151.623 120.921 152.271 120.686C157.044 119.036 161.994 118.152 166.885 118.152H167.121C176.903 118.27 186.509 121.629 195.643 128.229C203.126 133.591 208.607 139.955 211.553 143.373C211.907 143.786 212.201 144.139 212.496 144.493C214.382 146.673 215.03 147.321 217.093 149.443C218.153 150.504 219.568 151.977 221.689 154.157C230.528 161.936 237.482 171.246 242.373 181.854C247.441 192.873 249.975 204.659 249.975 216.857C249.975 228.054 247.735 238.955 243.375 249.209C239.191 259.109 233.18 267.948 225.519 275.609C217.918 283.211 209.019 289.222 199.119 293.405C188.748 297.707 177.905 299.888 166.709 299.888ZM138.128 294.171C140.014 294.938 146.673 297.236 152.507 298.002C156.632 298.65 161.7 299.063 166.355 299.063H166.591C211.907 299.063 248.855 262.173 248.973 216.916C249.032 193.168 238.837 170.539 220.982 154.805C218.86 152.566 217.446 151.152 216.385 150.032C214.323 147.911 213.616 147.204 211.73 145.023C211.435 144.67 211.141 144.316 210.728 143.904C204.894 137.127 189.396 119.213 166.885 118.918H166.65C161.818 118.918 156.985 119.802 152.271 121.452C151.564 121.688 150.15 121.864 148.5 121.864C146.791 121.864 144.669 121.688 143.726 121.216C143.609 121.157 143.55 121.157 143.432 121.157C143.255 121.157 143.137 121.393 142.901 121.746C142.666 122.218 142.312 122.807 141.546 122.807C141.369 122.807 141.193 122.748 140.957 122.689C140.78 122.63 140.662 122.63 140.485 122.63C139.425 122.63 138.718 124.575 138.069 126.461C137.48 128.17 136.832 129.938 135.83 130.704C129.76 135.477 125.341 140.604 122.63 143.668C122.276 144.08 121.923 144.434 121.628 144.788C119.094 147.616 118.741 148.029 114.38 152.448C113.614 153.214 112.73 154.157 111.669 155.218C94.2854 170.834 84.2675 193.168 84.2086 216.445C84.1497 250.682 105.6 281.796 137.657 293.818L137.893 293.877V293.936C138.01 294.054 138.069 294.113 138.128 294.171Z" fill="#323A50"/>
<path d="M166.708 300.241H166.473C155.217 300.241 144.316 298.002 134.003 293.641C124.103 289.398 115.205 283.388 107.544 275.727C99.8835 268.066 93.9317 259.109 89.7478 249.15C85.446 238.838 83.2656 227.936 83.2656 216.68C83.3246 204.6 85.8585 192.991 90.8085 182.148C95.6406 171.659 102.476 162.407 111.139 154.688C117.621 147.97 118.033 147.557 120.508 144.788L121.039 144.139C121.392 143.786 121.687 143.373 122.1 142.902C124.633 140.014 128.876 135.123 134.533 130.468C135.653 129.584 136.773 128.7 137.892 127.875C138.482 127.404 138.894 126.107 139.189 124.929C139.66 123.279 140.073 121.747 141.369 121.747C141.605 121.747 141.9 121.806 142.135 121.923C142.253 121.982 142.371 122.041 142.489 122.041C142.489 121.923 142.489 121.806 142.489 121.688C142.489 121.216 142.548 120.097 143.608 120.097C143.903 120.097 144.257 120.214 144.728 120.391C145.2 120.627 146.437 120.745 147.969 120.745C149.501 120.745 150.975 120.627 151.505 120.391C156.573 118.564 161.7 117.622 166.767 117.622H167.003C176.785 117.681 186.391 121.098 195.525 127.698C203.008 133.12 208.312 139.307 211.494 142.961C211.907 143.432 212.26 143.845 212.555 144.198L212.732 144.434C215.383 147.439 215.619 147.734 221.748 154.098C230.587 161.877 237.541 171.247 242.491 181.913C247.558 192.932 250.151 204.777 250.092 216.975C250.092 228.23 247.853 239.132 243.492 249.386C239.308 259.286 233.239 268.184 225.637 275.845C217.976 283.447 209.078 289.457 199.178 293.641C188.807 298.061 177.905 300.241 166.708 300.241ZM141.369 123.043C141.016 123.043 140.603 124.516 140.367 125.341C139.955 126.756 139.542 128.229 138.6 128.936C137.48 129.702 136.36 130.586 135.3 131.47C129.701 136.007 125.517 140.839 123.042 143.727C122.63 144.198 122.276 144.611 121.982 144.964L121.451 145.613C118.976 148.441 118.564 148.854 112.023 155.572H111.964C94.5799 171.129 84.5621 193.345 84.5031 216.68C84.3853 261.997 121.157 299.063 166.473 299.063H166.708C211.907 299.063 248.796 262.35 248.914 217.093C248.973 193.404 238.778 170.834 220.982 155.159H220.923C214.735 148.736 214.558 148.5 211.848 145.436L211.671 145.2C211.317 144.847 210.964 144.434 210.61 143.963C204.246 136.538 189.337 119.213 167.062 119.036H166.826C161.876 119.036 156.926 119.979 151.976 121.747C151.092 122.041 149.325 122.159 148.028 122.159C147.026 122.159 145.141 122.1 144.257 121.688C144.021 121.57 143.844 121.511 143.785 121.511C143.785 121.629 143.785 121.806 143.785 121.923C143.785 122.395 143.726 123.456 142.725 123.456C142.43 123.456 142.135 123.338 141.723 123.161C141.428 123.043 141.369 123.043 141.369 123.043Z" fill="#323A50"/>
<path d="M166.179 292.875C155.866 292.875 145.848 290.813 136.42 286.805C127.345 282.916 119.154 277.377 112.141 270.364C105.129 263.352 99.6483 255.102 95.818 246.027C91.8698 236.598 89.8662 226.58 89.8662 216.268C89.9251 204.129 92.6948 192.461 98.1751 181.736C103.42 171.482 111.08 162.348 120.273 155.395L120.745 156.043C101.711 170.422 90.7502 192.402 90.6912 216.268C90.6323 236.48 98.4698 255.514 112.73 269.834C126.991 284.154 145.966 292.109 166.179 292.109V292.875Z" fill="#323A50"/>
<path d="M166.414 286.393H166.237C147.498 286.393 129.937 279.027 116.737 265.768C103.537 252.509 96.2891 234.889 96.2891 216.15C96.348 197.47 103.655 179.909 116.855 166.709C130.055 153.509 147.675 146.261 166.355 146.261H166.532C185.271 146.261 202.832 153.686 216.032 166.945C229.232 180.204 236.48 197.823 236.421 216.563C236.421 235.243 229.055 252.804 215.855 266.004C202.655 279.145 185.094 286.393 166.414 286.393ZM166.414 146.85C128.228 146.85 97.0551 177.964 96.9373 216.15C96.8194 254.454 127.934 285.804 166.237 285.804H166.414C204.6 285.804 235.773 254.748 235.891 216.504C235.95 197.941 228.76 180.498 215.678 167.298C202.596 154.098 185.153 146.791 166.591 146.791L166.414 146.85Z" fill="#323A50"/>
<g opacity="0.34">
<path d="M234.299 216.739C234.182 254.159 203.657 284.389 166.119 284.271C128.523 284.154 98.1745 253.746 98.2923 216.386C98.4102 178.966 128.935 148.736 166.473 148.854C204.01 148.913 234.417 179.32 234.299 216.739Z" fill="url(#paint0_radial_3672_17006)"/>
<path d="M166.296 284.389H166.119C147.911 284.389 130.762 277.259 117.916 264.413C105.069 251.566 97.9981 234.477 98.057 216.386C98.1159 198.295 105.246 181.323 118.093 168.536C130.998 155.748 148.087 148.736 166.296 148.736H166.473C184.682 148.736 201.83 155.866 214.677 168.713C227.523 181.559 234.594 198.589 234.536 216.739C234.477 234.83 227.346 251.861 214.5 264.589C201.594 277.377 184.505 284.389 166.296 284.389ZM166.296 149.089C128.994 149.089 98.5873 179.261 98.4695 216.327C98.3516 253.57 128.7 283.977 166.119 283.977H166.296C203.598 283.977 234.005 253.806 234.123 216.739C234.182 179.497 203.834 149.089 166.473 149.089H166.296Z" fill="#323A50"/>
</g>
<path opacity="0.83" d="M210.846 155.041C212.909 152.861 213.498 150.798 210.493 147.38C205.366 141.546 190.103 122.041 166.885 121.864H166.65C161.877 121.864 157.457 122.689 153.391 124.104C152.33 124.457 148.618 124.987 147.262 124.457C145.848 123.927 146.673 126.225 145.494 126.107C142.489 125.871 141.193 130.055 138.894 131.705C130.998 137.421 125.577 144.139 122.925 147.145C119.86 150.562 121.452 153.096 122.159 154.57C124.103 158.282 126.991 158.989 127.816 158.518C133.237 155.218 136.007 146.555 142.194 144.552C142.371 144.493 151.269 140.309 166.119 140.191C166.178 140.191 176.196 140.132 185.684 143.137C194.464 145.495 199.944 154.923 205.484 158.282C207.134 159.343 209.255 156.75 210.846 155.041Z" fill="url(#paint1_linear_3672_17006)"/>
<path d="M148.972 149.973C148.972 150.091 148.854 149.325 148.972 148.5C149.03 147.911 149.266 147.203 149.502 146.673C149.797 146.143 150.15 145.612 150.622 145.141C150.622 145.141 150.68 145.141 150.68 145.082C153.45 142.253 159.343 140.368 166.179 140.368C175.666 140.368 183.386 144.139 183.386 148.795C183.386 148.795 183.386 149.384 183.327 149.796C183.268 150.562 182.973 151.27 182.502 151.977L205.484 158.341C205.484 157.87 205.484 158.812 205.484 157.045C205.484 145.553 188.041 136.125 166.473 136.066C144.905 136.007 127.404 145.318 127.345 156.809C127.345 157.457 127.404 158.164 127.522 158.812L150.209 152.153C149.797 151.564 149.089 150.562 148.972 149.973Z" fill="#DBDBDB"/>
<path d="M127.227 159.343L127.168 158.871C127.05 158.164 126.991 157.516 126.991 156.809C126.991 151.093 131.116 145.789 138.6 141.782C146.025 137.834 155.807 135.654 166.297 135.654H166.473C176.963 135.654 186.863 137.893 194.288 141.9C201.772 145.907 205.897 151.27 205.897 157.045C205.897 157.575 205.897 157.87 205.897 158.046C205.897 158.105 205.897 158.164 205.897 158.223C205.897 158.223 205.897 158.282 205.897 158.341V158.871L181.795 152.154L182.148 151.682C182.62 151.034 182.856 150.386 182.914 149.737C182.973 149.266 182.973 148.736 182.973 148.736C182.973 144.375 175.489 140.721 166.179 140.721H166.061C159.638 140.721 153.686 142.548 150.975 145.318L150.916 145.377C150.445 145.848 150.15 146.32 149.855 146.791C149.62 147.262 149.384 147.911 149.325 148.441C149.266 148.971 149.325 149.502 149.325 149.679V149.796C149.443 150.209 149.797 150.857 150.504 151.859L150.857 152.33L127.227 159.343ZM166.297 136.479C145.082 136.479 127.816 145.612 127.757 156.809C127.757 157.28 127.816 157.811 127.875 158.282L149.561 151.918C149.148 151.27 148.736 150.621 148.559 150.091C148.382 149.62 148.5 148.441 148.5 148.441C148.559 147.793 148.795 147.086 149.089 146.496C149.384 145.966 149.797 145.377 150.268 144.905L150.327 144.846C153.273 141.841 159.284 140.014 166.002 140.014H166.12C170.775 140.014 175.136 140.957 178.436 142.548C181.854 144.198 183.681 146.437 183.681 148.854C183.681 148.912 183.68 149.443 183.622 149.914C183.563 150.563 183.386 151.152 183.032 151.8L205.013 157.87C205.013 157.693 205.013 157.457 205.013 157.104C205.013 145.848 187.747 136.596 166.414 136.537L166.297 136.479Z" fill="#323A50"/>
<path opacity="0.52" d="M166.179 142.548C175.018 142.548 182.266 145.848 183.268 150.032C183.327 149.679 183.386 149.384 183.386 149.03C183.386 144.375 175.666 140.545 166.179 140.545C156.633 140.545 148.913 144.316 148.913 148.971C148.913 149.148 148.854 149.443 148.913 149.561C148.913 149.62 148.913 150.327 149.266 151.329C149.443 151.859 150.091 152.095 150.15 151.977C149.09 150.68 149.09 149.679 149.149 149.561C150.504 145.554 157.634 142.489 166.179 142.548Z" fill="url(#paint2_linear_3672_17006)"/>
<path d="M166.178 143.491C174.959 143.491 181.5 147.322 182.56 152.036C183.444 150.68 183.385 149.62 183.385 149.266C183.385 144.611 175.725 140.545 166.237 140.486C156.75 140.427 149.03 143.904 148.912 149.266C148.912 149.62 149.207 151.977 150.15 151.918C150.091 146.614 157.398 143.491 166.178 143.491Z" fill="#DBDBDB"/>
<path d="M182.325 153.096L182.148 152.213C181.087 147.439 174.37 144.022 166.179 144.022H166.061C159.932 144.022 154.805 145.495 152.271 148.088C151.152 149.266 150.562 150.563 150.562 152.036V152.448H150.15C149.973 152.448 149.679 152.389 149.384 152.095C148.677 151.329 148.5 149.561 148.5 149.325C148.559 146.614 150.445 144.257 153.804 142.607C156.986 141.016 161.346 140.191 166.12 140.191H166.237C170.834 140.191 175.254 141.134 178.554 142.843C181.913 144.611 183.798 146.85 183.798 149.325V149.384C183.798 149.797 183.798 150.975 182.914 152.33L182.325 153.096ZM166.061 140.957C156.396 140.957 149.325 144.434 149.266 149.325C149.266 149.561 149.384 150.621 149.737 151.211C149.914 149.855 150.504 148.559 151.623 147.439C154.334 144.729 159.696 143.138 166.002 143.138H166.12C170.421 143.138 174.311 144.021 177.375 145.613C179.968 147.027 181.795 148.854 182.561 150.916C182.855 150.15 182.855 149.502 182.855 149.207V149.148C182.855 147.086 181.088 144.964 178.082 143.432C174.841 141.782 170.598 140.839 166.12 140.839H166.061V140.957Z" fill="#323A50"/>
<path d="M166.414 284.566C166.356 284.566 166.297 284.566 166.238 284.566C148.029 284.566 130.881 277.377 118.034 264.471C105.188 251.507 98.1162 234.418 98.1752 216.15C98.2341 201.123 103.066 186.863 112.141 174.959L112.613 175.312C103.597 187.157 98.8234 201.241 98.7645 216.15C98.7055 234.241 105.718 251.212 118.447 264C131.175 276.787 148.147 283.918 166.238 283.918C166.297 283.918 166.356 283.918 166.414 283.918C184.447 283.918 201.359 276.964 214.147 264.236C226.934 251.507 234.064 234.536 234.064 216.445C234.123 201.418 229.291 187.157 220.216 175.195L220.688 174.841C229.881 186.862 234.713 201.241 234.713 216.445C234.654 234.654 227.523 251.802 214.618 264.648C201.654 277.554 184.564 284.566 166.414 284.566Z" fill="#323A50"/>
<path d="M150.209 151.977V155.159L133.886 161.052C133.296 161.288 133.296 162.113 133.886 162.348L133.944 162.407L135.005 162.879C135.359 162.997 135.3 163.527 134.946 163.586L132.648 164.057H132.53C131.469 164.293 131.352 165.707 132.294 166.179L134.652 167.181C135.064 167.357 135.005 167.947 134.593 168.064C132.53 168.536 128.228 169.597 122.1 171.895C101.593 179.968 91.8105 202.597 91.8105 202.597C91.8105 202.597 93.8141 191.872 97.3498 184.564C99.5891 179.909 103.184 172.543 110.55 164.47C115.441 159.107 122.041 154.216 122.041 154.216C122.041 154.216 124.339 159.343 127.816 158.282C130.586 156.927 145.966 151.506 150.209 151.977Z" fill="white"/>
<path d="M90.6914 206.132L91.3396 202.537C91.3396 202.42 93.4021 191.695 96.8789 184.388C99.0593 179.85 102.713 172.307 110.138 164.175C115.029 158.813 121.629 153.921 121.688 153.863L122.1 153.568L122.277 154.039C122.277 154.098 124.104 157.988 126.756 157.988C126.991 157.988 127.286 157.929 127.581 157.87C130.291 156.573 144.552 151.505 149.502 151.505C149.738 151.505 149.974 151.505 150.209 151.564L150.563 151.623L150.622 155.454L134.063 161.464C133.886 161.523 133.886 161.641 133.886 161.7C133.886 161.759 133.886 161.877 134.063 161.936L135.241 162.407C135.595 162.525 135.772 162.879 135.713 163.232C135.713 163.586 135.418 163.88 135.065 163.939L132.59 164.47C132.236 164.529 132.059 164.823 132.059 165.059C132.059 165.295 132.118 165.648 132.472 165.766L134.829 166.768C135.182 166.945 135.359 167.298 135.359 167.652C135.3 168.064 135.065 168.3 134.711 168.418C132.707 168.889 128.406 169.95 122.218 172.189C111.729 176.314 104.127 184.387 99.5896 190.457C94.6396 196.998 92.2235 202.655 92.1646 202.714L90.6914 206.132ZM121.865 154.864C120.391 155.984 114.911 160.227 110.786 164.764C103.479 172.779 99.8253 180.321 97.7039 184.8C95.4057 189.514 93.7557 195.82 92.8717 199.532C94.1092 197.234 96.1128 193.757 98.9414 190.045C103.538 183.916 111.257 175.725 121.924 171.482C128.17 169.184 132.472 168.123 134.475 167.652C134.475 167.652 134.534 167.652 134.534 167.593C134.534 167.534 134.534 167.534 134.475 167.534L132.118 166.532C131.529 166.296 131.175 165.648 131.234 165C131.293 164.352 131.765 163.821 132.413 163.704L134.77 163.173L133.65 162.702C133.238 162.525 132.943 162.113 133.002 161.641C133.002 161.17 133.297 160.757 133.709 160.639L149.738 154.805V152.271C149.679 152.271 149.62 152.271 149.502 152.271C144.611 152.271 130.527 157.28 127.934 158.577H127.875C127.522 158.695 127.168 158.754 126.815 158.754C124.281 158.871 122.454 155.984 121.865 154.864Z" fill="#323A50"/>
<path d="M166.414 292.934C166.355 292.934 166.296 292.934 166.237 292.934V292.109C166.296 292.109 166.355 292.109 166.414 292.109C186.568 292.109 205.484 284.272 219.803 270.07C234.123 255.809 242.078 236.834 242.078 216.622C242.137 192.755 231.294 170.775 212.319 156.22L212.791 155.572C221.984 162.584 229.527 171.718 234.771 181.972C240.193 192.755 242.962 204.364 242.903 216.563C242.903 226.875 240.841 236.893 236.834 246.322C232.944 255.397 227.405 263.588 220.393 270.6C213.38 277.613 205.13 283.152 196.055 286.982C186.627 290.93 176.668 292.934 166.414 292.934Z" fill="#323A50"/>
<path d="M182.501 152.095L182.442 155.277L199.119 160.875C199.708 161.111 199.708 161.936 199.119 162.172L199.06 162.23L197.941 162.702C197.587 162.82 197.646 163.35 198 163.409L200.298 163.939H200.416C201.476 164.175 201.594 165.589 200.592 166.061L198.235 167.063C197.823 167.239 197.882 167.829 198.294 167.947C200.357 168.418 204.658 169.538 210.787 171.836C231.235 180.027 240.9 202.243 240.9 202.243C240.9 202.243 239.014 191.93 235.537 184.623C233.298 179.968 229.762 172.543 222.455 164.47C217.564 159.048 210.61 154.864 210.61 154.864C210.61 154.864 208.607 159.284 205.13 158.164C202.478 156.75 186.685 151.623 182.501 152.095Z" fill="white"/>
<path d="M242.078 205.661L240.664 202.361C240.664 202.302 238.248 196.763 233.357 190.28C228.878 184.329 221.336 176.373 210.787 172.13C204.659 169.832 200.357 168.713 198.353 168.3C198 168.241 197.705 167.888 197.705 167.534C197.646 167.121 197.882 166.827 198.236 166.65L200.593 165.648C200.946 165.53 201.064 165.177 201.005 164.941C201.005 164.705 200.828 164.411 200.475 164.352L198 163.821C197.646 163.763 197.411 163.468 197.352 163.114C197.352 162.761 197.528 162.466 197.823 162.348L199.002 161.877C199.178 161.818 199.178 161.7 199.178 161.641C199.178 161.582 199.178 161.464 199.002 161.405L182.03 155.748L182.089 151.918L182.443 151.859C182.62 151.859 182.914 151.8 183.15 151.8C188.159 151.8 202.655 156.514 205.425 157.87C205.778 157.988 206.073 157.988 206.368 157.988C208.843 157.988 210.316 154.746 210.375 154.746L210.552 154.334L210.964 154.57C211.023 154.629 218.036 158.871 222.868 164.234C230.234 172.425 233.828 179.968 236.009 184.505C239.486 191.813 241.43 202.125 241.43 202.184L242.078 205.661ZM198.177 162.996L200.534 163.527C201.182 163.645 201.653 164.175 201.712 164.823C201.771 165.471 201.418 166.061 200.828 166.355L198.471 167.357C198.471 167.357 198.412 167.357 198.412 167.416C198.412 167.475 198.412 167.475 198.471 167.475C200.475 167.946 204.836 169.066 211.023 171.364C221.689 175.607 229.35 183.739 233.946 189.809C236.716 193.463 238.661 196.822 239.898 199.12C239.073 195.525 237.482 189.455 235.243 184.8C233.121 180.321 229.527 172.779 222.22 164.705C218.095 160.109 212.378 156.338 210.846 155.395C210.316 156.396 208.784 158.695 206.309 158.695C205.896 158.695 205.484 158.636 205.071 158.518H205.012C202.361 157.221 188.041 152.507 183.091 152.507C183.032 152.507 182.914 152.507 182.855 152.507L182.796 154.982L199.178 160.463C199.65 160.639 199.886 160.993 199.886 161.464C199.886 161.936 199.65 162.348 199.237 162.525L198.177 162.996Z" fill="#323A50"/>
<path d="M191.282 165.53C191.282 159.932 180.263 157.045 166.65 156.986C153.038 156.927 142.018 159.814 141.959 165.413C141.959 171.011 152.979 177.198 166.591 177.257C180.204 177.257 191.282 171.129 191.282 165.53Z" fill="#DBDBDB"/>
<path d="M190.634 165.648C190.634 160.404 179.909 157.634 166.65 157.575C153.391 157.516 142.607 160.227 142.607 165.472C142.607 170.716 153.332 176.55 166.591 176.609C179.85 176.668 190.634 170.893 190.634 165.648Z" fill="#DBDBDB"/>
<path d="M189.397 165.766C189.397 161.229 179.202 158.813 166.591 158.813C153.981 158.754 143.786 161.111 143.786 165.648C143.786 170.186 153.981 175.254 166.533 175.313C179.143 175.313 189.338 170.304 189.397 165.766Z" fill="#DBDBDB"/>
<path d="M188.041 165.825C188.041 161.936 178.377 159.873 166.473 159.814C154.57 159.755 144.906 161.759 144.847 165.707C144.847 169.596 154.511 173.957 166.415 174.016C178.318 174.016 188.041 169.714 188.041 165.825Z" fill="#DBDBDB"/>
<path d="M186.509 165.766C186.509 162.643 177.493 161.052 166.414 160.993C155.277 160.993 146.261 162.525 146.261 165.648C146.261 168.771 155.277 172.602 166.355 172.661C177.493 172.661 186.509 168.889 186.509 165.766Z" fill="#DBDBDB"/>
<path d="M184.8 165.766C184.8 163.35 176.55 162.054 166.355 162.054C156.16 162.054 147.852 163.232 147.852 165.648C147.852 168.064 156.102 171.07 166.296 171.129C176.55 171.188 184.8 168.241 184.8 165.766Z" fill="#DBDBDB"/>
<path d="M182.856 166.002C182.856 164.234 175.431 163.291 166.238 163.291C157.045 163.291 149.62 164.175 149.62 165.943C149.62 167.711 157.045 169.891 166.238 169.95C175.372 169.95 182.856 167.77 182.856 166.002Z" fill="#DBDBDB"/>
<path d="M147.263 104.068L133.061 90.8679L129.879 94.2269L144.022 107.427L141.488 110.079L151.741 111.846L151.8 111.788L149.738 101.416L147.263 104.068Z" fill="#FF5B00"/>
<path opacity="0.42" d="M166.65 165C166.65 164.941 166.709 164.941 166.768 164.882C166.768 164.705 166.827 164.529 166.827 164.352C166.768 164.411 166.65 164.529 166.533 164.587C166.533 164.587 166.533 164.646 166.474 164.646C166.533 164.764 166.591 164.882 166.65 165Z" fill="url(#paint3_radial_3672_17006)"/>
<path opacity="0.42" d="M172.896 157.693C177.316 156.632 180.262 154.629 180.321 152.331C180.321 149.148 174.723 146.497 167.474 146.143C167.828 146.261 168.182 146.32 168.535 146.497C169.066 146.673 169.596 146.968 170.126 147.204C170.303 147.263 170.48 147.381 170.657 147.44C170.657 147.44 170.951 147.498 171.01 147.498C172.366 147.852 173.191 149.089 173.249 150.445C173.308 151.859 172.248 152.92 171.01 153.391C170.067 153.745 169.124 154.04 168.182 154.334C168.358 154.511 168.476 154.688 168.594 154.864C169.183 155.925 169.773 157.045 170.362 158.106C171.305 159.814 170.48 161.523 169.066 162.29C169.066 162.348 169.066 162.407 169.007 162.407C168.948 162.466 168.83 162.525 168.771 162.584C168.771 162.584 168.771 162.584 168.712 162.643C168.417 162.82 168.182 162.997 168.005 163.232C167.887 163.586 167.71 163.881 167.533 164.234C167.298 165.118 167.474 166.12 167.887 167.004C168.064 167.298 168.241 167.593 168.358 167.888C168.476 168.123 168.182 168.3 168.005 168.065C167.828 167.77 167.651 167.475 167.533 167.122C167.357 166.768 167.121 166.415 166.885 166.002C166.767 166.002 166.649 166.002 166.649 165.825C166.649 165.766 166.649 165.707 166.649 165.648C165.824 164.293 164.823 163.056 163.703 161.936C163.408 161.7 163.173 161.464 162.937 161.229C162.171 161.052 161.405 160.581 160.992 159.815C160.285 158.459 159.224 157.281 158.694 155.807C157.928 154.923 157.162 154.039 156.396 153.097C156.219 152.92 156.101 152.684 155.983 152.507C154.805 151.623 153.803 150.445 153.155 149.443C153.155 149.443 153.155 149.384 153.096 149.384C152.153 150.209 151.623 151.152 151.623 152.095C151.623 154.452 154.628 156.515 159.166 157.575C148.912 158.4 141.428 161.17 141.369 165.766C141.369 171.364 152.507 177.611 166.296 177.67C180.085 177.729 191.282 171.541 191.282 165.884C191.164 161.347 183.444 158.518 172.896 157.693Z" fill="url(#paint4_radial_3672_17006)"/>
<path d="M114.322 153.804C114.557 153.391 115.265 152.448 115.559 152.154C115.559 151.918 115.147 152.507 115.324 152.272C115.441 151.859 115.736 151.447 116.266 151.329C116.384 150.857 116.679 150.386 117.268 150.268C117.268 150.091 117.327 149.855 117.445 149.679C116.207 150.739 114.675 152.154 113.909 153.509C110.374 159.814 115.206 179.202 128.229 211.141C131.116 218.154 134.063 225.166 136.832 231.295H137.599C125.4 204.011 109.195 163.468 114.322 153.804Z" fill="#323A50"/>
<path d="M89.9249 153.45C93.6964 148.147 99.766 145.789 107.957 146.379C112.671 146.732 116.737 147.97 118.387 148.559C118.505 148.382 118.682 148.147 118.918 148.029C117.445 147.498 113.084 146.084 107.957 145.672C99.6482 145.082 93.2249 147.616 89.3356 152.979C88.6874 153.627 69.8892 173.014 63.8785 186.038C62.2874 189.455 59.1642 189.279 53.3892 188.925C48.616 188.63 42.0749 188.218 33.3535 189.691L33.4714 190.339C42.1928 188.866 48.6749 189.279 53.3892 189.573C59.2232 189.927 62.7589 190.163 64.4678 186.273C69.3589 175.607 82.8535 160.698 87.8624 155.336C86.0946 159.932 87.1553 167.534 91.0446 177.905C94.7571 187.805 101.004 200.357 109.607 215.207C112.789 220.688 116.089 226.05 119.271 231.177H120.037C116.796 226.109 113.379 220.511 110.137 214.854C90.9857 181.736 83.9731 160.463 89.9249 153.45Z" fill="#323A50"/>
<path d="M243.198 153.45C239.427 148.147 233.357 145.789 225.166 146.379C220.452 146.732 216.386 147.97 214.736 148.559C214.618 148.382 214.441 148.147 214.206 148.029C215.679 147.498 220.04 146.084 225.166 145.672C233.475 145.082 239.898 147.616 243.788 152.979C244.436 153.627 263.234 173.014 269.245 186.038C270.836 189.455 273.959 189.279 279.734 188.925C284.507 188.63 291.048 188.218 299.77 189.691L299.652 190.339C290.931 188.866 284.448 189.279 279.734 189.573C273.9 189.927 270.365 190.163 268.656 186.273C263.765 175.607 250.27 160.698 245.261 155.336C247.029 159.932 245.968 167.534 242.079 177.905C238.366 187.805 232.12 200.357 223.516 215.207C220.334 220.688 217.034 226.05 213.852 231.177H213.086C216.327 226.109 219.745 220.511 222.986 214.854C242.138 181.736 249.15 160.463 243.198 153.45Z" fill="#323A50"/>
<path d="M218.507 153.627C218.272 153.214 216.975 151.211 216.739 150.857C216.739 150.622 218.036 151.682 217.918 151.506C217.8 151.093 217.329 150.739 216.857 150.563C216.739 150.091 216.68 149.856 216.15 149.738C216.15 149.561 215.62 149.679 215.561 149.502C216.798 150.563 218.33 151.977 219.097 153.332C222.632 159.638 217.8 179.025 204.777 210.964C201.889 217.977 198.943 224.989 196.173 231.118H195.407C207.429 203.834 223.634 163.291 218.507 153.627Z" fill="#323A50"/>
<path d="M118.917 148.028C118.092 147.734 116.383 147.145 114.203 146.673L118.623 148.323C118.682 148.205 118.8 148.146 118.917 148.028Z" fill="#323A50"/>
<path d="M117.621 149.384L107.957 145.73C107.485 145.671 107.073 145.671 106.66 145.671L117.385 149.737C117.444 149.62 117.503 149.502 117.621 149.384Z" fill="#323A50"/>
<path d="M116.442 150.739L103.242 145.73C102.948 145.73 102.653 145.789 102.358 145.848L116.266 151.093C116.324 150.975 116.383 150.857 116.442 150.739Z" fill="#323A50"/>
<path d="M115.264 152.271C115.264 152.212 115.264 152.212 115.264 152.154L99.7657 146.32C99.53 146.379 99.2943 146.437 99.0586 146.496L115.028 152.566C115.146 152.448 115.205 152.33 115.264 152.271Z" fill="#323A50"/>
<path d="M114.321 153.745C114.38 153.686 114.439 153.568 114.439 153.509L97.35 147.027C97.1732 147.086 96.9375 147.145 96.7607 147.263L114.204 153.863C114.263 153.804 114.321 153.804 114.321 153.745Z" fill="#323A50"/>
<path d="M113.791 155.1L95.1697 148.029C94.9929 148.087 94.875 148.205 94.6982 148.264L113.673 155.454C113.673 155.336 113.732 155.218 113.791 155.1Z" fill="#323A50"/>
<path d="M113.437 156.809L93.3422 149.207C93.2243 149.325 93.1065 149.384 92.9297 149.502L113.319 157.221C113.378 157.045 113.378 156.927 113.437 156.809Z" fill="#323A50"/>
<path d="M113.26 158.577L91.7511 150.445C91.6332 150.562 91.5153 150.621 91.3975 150.739L113.201 158.989C113.26 158.871 113.26 158.695 113.26 158.577Z" fill="#323A50"/>
<path d="M113.319 160.403L90.5134 151.741C90.3955 151.859 90.3366 151.977 90.2188 152.095L113.319 160.875C113.319 160.698 113.319 160.521 113.319 160.403Z" fill="#323A50"/>
<path d="M113.437 162.289L89.3353 153.155C89.2764 153.214 89.2175 153.332 89.0996 153.509L113.437 162.761C113.496 162.584 113.437 162.466 113.437 162.289Z" fill="#323A50"/>
<path d="M113.673 164.175L88.5108 154.629C88.4518 154.747 88.3929 154.864 88.334 154.982L113.791 164.647C113.732 164.47 113.732 164.352 113.673 164.175Z" fill="#323A50"/>
<path d="M113.968 166.12L87.8034 156.219C87.7445 156.337 87.7445 156.455 87.6855 156.632L114.086 166.65C114.027 166.473 114.027 166.296 113.968 166.12Z" fill="#323A50"/>
<path d="M114.321 167.946L87.4496 157.752C87.4496 157.87 87.3906 157.987 87.3906 158.164L114.439 168.418C114.38 168.241 114.38 168.123 114.321 167.946Z" fill="#323A50"/>
<path d="M114.734 169.95L87.2139 159.52C87.2139 159.637 87.2139 159.814 87.2139 159.932L114.851 170.421C114.851 170.245 114.792 170.127 114.734 169.95Z" fill="#323A50"/>
<path d="M115.205 171.954L87.2139 161.346C87.2139 161.464 87.2139 161.641 87.2139 161.818L115.323 172.484C115.323 172.248 115.264 172.13 115.205 171.954Z" fill="#323A50"/>
<path d="M115.736 173.957L87.332 163.173C87.332 163.291 87.3909 163.468 87.3909 163.645L115.853 174.428C115.853 174.311 115.795 174.134 115.736 173.957Z" fill="#323A50"/>
<path d="M116.266 175.902L87.5674 165.059C87.5674 165.236 87.6263 165.354 87.6263 165.53L116.383 176.432C116.383 176.255 116.325 176.078 116.266 175.902Z" fill="#323A50"/>
<path d="M116.855 177.964L87.9209 167.004C87.9798 167.18 87.9798 167.298 88.0388 167.475L117.032 178.436C116.973 178.259 116.914 178.141 116.855 177.964Z" fill="#323A50"/>
<path d="M117.445 179.968L88.334 168.948C88.3929 169.125 88.3929 169.302 88.4518 169.42L117.621 180.439C117.563 180.321 117.504 180.145 117.445 179.968Z" fill="#323A50"/>
<path d="M118.093 182.089L88.8643 171.011C88.9232 171.188 88.9232 171.364 88.9821 171.482L118.211 182.561C118.211 182.443 118.152 182.266 118.093 182.089Z" fill="#323A50"/>
<path d="M118.741 183.975L89.4531 172.896C89.5121 173.073 89.571 173.25 89.571 173.368L118.858 184.446C118.858 184.329 118.8 184.211 118.741 183.975Z" fill="#323A50"/>
<path d="M119.448 186.096L90.1602 175.018C90.2191 175.195 90.278 175.371 90.3369 175.548L119.624 186.627C119.566 186.45 119.507 186.273 119.448 186.096Z" fill="#323A50"/>
<path d="M120.155 188.218L90.8672 177.139C90.9261 177.316 90.985 177.493 91.044 177.67L120.331 188.748C120.273 188.512 120.214 188.336 120.155 188.218Z" fill="#323A50"/>
<path d="M120.862 190.339L91.6338 179.261C91.6927 179.438 91.7516 179.614 91.8106 179.791L121.039 190.87C120.98 190.634 120.921 190.457 120.862 190.339Z" fill="#323A50"/>
<path d="M121.629 192.402L92.459 181.382C92.5179 181.559 92.5768 181.736 92.6358 181.912L121.746 192.932C121.746 192.755 121.688 192.578 121.629 192.402Z" fill="#323A50"/>
<path d="M122.394 194.523L93.4014 183.504C93.4603 183.68 93.5192 183.857 93.6371 184.034L122.63 194.995C122.512 194.877 122.453 194.7 122.394 194.523Z" fill="#323A50"/>
<path d="M123.16 196.645L94.2852 185.684C94.3441 185.861 94.462 186.037 94.5209 186.214L123.337 197.116C123.278 196.998 123.219 196.821 123.16 196.645Z" fill="#323A50"/>
<path d="M123.985 198.648L95.2871 187.805C95.346 187.982 95.4639 188.159 95.5228 188.336L124.162 199.178C124.103 199.002 124.044 198.825 123.985 198.648Z" fill="#323A50"/>
<path d="M124.692 200.652L96.1709 189.868C96.2298 190.044 96.3477 190.221 96.4066 190.398L124.869 201.182C124.81 200.946 124.751 200.828 124.692 200.652Z" fill="#323A50"/>
<path d="M125.517 202.773L97.2314 192.048C97.2904 192.225 97.4082 192.402 97.4672 192.578L125.694 203.303C125.694 203.127 125.576 202.95 125.517 202.773Z" fill="#323A50"/>
<path d="M126.402 204.894L98.3516 194.287C98.4105 194.464 98.5283 194.641 98.5873 194.818L126.578 205.425C126.519 205.248 126.46 205.071 126.402 204.894Z" fill="#323A50"/>
<path d="M127.226 207.075L99.4707 196.586C99.5296 196.762 99.6475 196.939 99.7064 197.116L127.403 207.605C127.403 207.429 127.285 207.252 127.226 207.075Z" fill="#323A50"/>
<path d="M128.052 209.079L100.591 198.648C100.709 198.825 100.768 199.002 100.885 199.179L128.287 209.55C128.169 209.432 128.11 209.314 128.052 209.079Z" fill="#323A50"/>
<path d="M128.876 211.082L101.651 200.77C101.769 200.946 101.828 201.123 101.946 201.3L129.053 211.553C128.994 211.436 128.935 211.259 128.876 211.082Z" fill="#323A50"/>
<path d="M129.76 213.321L102.889 203.127C103.007 203.303 103.065 203.48 103.183 203.657L129.996 213.793C129.937 213.616 129.819 213.439 129.76 213.321Z" fill="#323A50"/>
<path d="M130.644 215.443L104.126 205.366C104.244 205.543 104.303 205.72 104.421 205.896L130.88 215.914C130.821 215.796 130.703 215.62 130.644 215.443Z" fill="#323A50"/>
<path d="M131.587 217.623L105.423 207.723C105.541 207.9 105.6 208.077 105.717 208.254L131.823 218.153C131.705 217.977 131.646 217.8 131.587 217.623Z" fill="#323A50"/>
<path d="M132.529 219.804L106.719 210.021C106.837 210.198 106.896 210.375 107.013 210.552L132.706 220.275C132.647 220.157 132.588 220.039 132.529 219.804Z" fill="#323A50"/>
<path d="M133.355 221.866L107.897 212.202C108.015 212.378 108.074 212.555 108.251 212.732L133.59 222.337C133.531 222.161 133.472 222.043 133.355 221.866Z" fill="#323A50"/>
<path d="M134.357 224.046L109.312 214.559C109.43 214.736 109.548 214.912 109.666 215.089L134.593 224.518C134.475 224.4 134.416 224.223 134.357 224.046Z" fill="#323A50"/>
<path d="M135.241 226.227L110.608 216.916C110.726 217.093 110.844 217.27 110.962 217.446L135.476 226.757C135.417 226.58 135.358 226.404 135.241 226.227Z" fill="#323A50"/>
<path d="M136.243 228.407L112.082 219.214C112.2 219.391 112.318 219.568 112.436 219.804L136.537 228.938C136.42 228.761 136.302 228.584 136.243 228.407Z" fill="#323A50"/>
<path d="M137.126 230.47L113.319 221.454C113.437 221.63 113.555 221.807 113.673 222.043L137.362 231C137.303 230.823 137.244 230.646 137.126 230.47Z" fill="#323A50"/>
<path d="M136.183 231.766L114.615 223.575C114.733 223.752 114.851 223.987 114.969 224.164L135.063 231.766C135.476 231.766 135.83 231.766 136.183 231.766Z" fill="#323A50"/>
<path d="M131.41 231.825L116.089 226.05C116.207 226.227 116.325 226.463 116.442 226.639L130.232 231.884C130.644 231.825 130.998 231.825 131.41 231.825Z" fill="#323A50"/>
<path d="M126.52 231.766L117.562 228.348C117.68 228.525 117.798 228.761 117.916 228.937L125.341 231.766C125.754 231.766 126.107 231.766 126.52 231.766Z" fill="#323A50"/>
<path d="M121.628 231.766L119.094 230.823C119.212 231 119.329 231.236 119.447 231.413L120.508 231.825C120.862 231.766 121.274 231.766 121.628 231.766Z" fill="#323A50"/>
<path d="M214.205 147.969C214.323 148.028 214.441 148.146 214.618 148.205L218.566 146.673C216.621 147.145 215.148 147.616 214.205 147.969Z" fill="#323A50"/>
<path d="M215.973 149.561L226.109 145.671C225.696 145.671 225.225 145.73 224.812 145.73L215.737 149.207C215.796 149.325 215.855 149.443 215.973 149.561Z" fill="#323A50"/>
<path d="M216.915 150.975L230.41 145.789C230.115 145.73 229.821 145.73 229.526 145.73L216.68 150.68C216.68 150.739 216.739 150.798 216.739 150.798C216.739 150.857 216.798 150.916 216.915 150.975Z" fill="#323A50"/>
<path d="M218.094 152.389L233.592 146.438C233.357 146.379 233.121 146.32 232.885 146.261L217.858 152.036C217.917 152.154 217.976 152.271 218.094 152.389Z" fill="#323A50"/>
<path d="M218.742 153.804L235.949 147.145C235.773 147.086 235.596 147.027 235.36 146.909L218.565 153.391C218.624 153.568 218.683 153.686 218.742 153.804Z" fill="#323A50"/>
<path d="M219.331 155.395L238.071 148.146C237.894 148.087 237.776 147.97 237.599 147.911L219.272 154.982C219.272 155.159 219.331 155.277 219.331 155.395Z" fill="#323A50"/>
<path d="M219.567 156.809C219.567 156.927 219.567 157.045 219.567 157.162L239.839 149.325C239.721 149.207 239.603 149.148 239.426 149.03L219.567 156.691C219.567 156.75 219.567 156.809 219.567 156.809Z" fill="#323A50"/>
<path d="M219.627 158.695C219.627 158.754 219.627 158.871 219.627 158.93L241.313 150.562C241.195 150.445 241.077 150.386 240.959 150.268L219.627 158.518C219.627 158.577 219.627 158.636 219.627 158.695Z" fill="#323A50"/>
<path d="M219.509 160.403L242.255 151.623C242.373 151.741 242.432 151.859 242.55 151.977L219.509 160.816C219.509 160.698 219.509 160.521 219.509 160.403Z" fill="#323A50"/>
<path d="M219.391 162.289L243.434 153.037C243.493 153.096 243.552 153.214 243.67 153.391L219.332 162.761C219.332 162.584 219.391 162.466 219.391 162.289Z" fill="#323A50"/>
<path d="M219.155 164.175L244.259 154.511C244.317 154.629 244.376 154.746 244.435 154.864L219.037 164.646C219.096 164.47 219.155 164.352 219.155 164.175Z" fill="#323A50"/>
<path d="M218.86 166.12L244.965 156.043C245.024 156.161 245.024 156.278 245.083 156.455L218.742 166.591C218.801 166.473 218.801 166.296 218.86 166.12Z" fill="#323A50"/>
<path d="M218.507 167.946L245.319 157.575C245.319 157.693 245.378 157.811 245.378 157.987L218.389 168.418C218.448 168.3 218.507 168.123 218.507 167.946Z" fill="#323A50"/>
<path d="M218.094 169.95L245.555 159.343C245.555 159.461 245.555 159.637 245.555 159.755L217.977 170.421C218.035 170.303 218.094 170.127 218.094 169.95Z" fill="#323A50"/>
<path d="M217.623 171.954L245.555 161.17C245.555 161.288 245.555 161.464 245.555 161.641L217.505 172.484C217.564 172.307 217.623 172.13 217.623 171.954Z" fill="#323A50"/>
<path d="M217.151 174.016L245.496 163.114C245.496 163.232 245.496 163.409 245.437 163.586L217.033 174.546C217.033 174.311 217.092 174.134 217.151 174.016Z" fill="#323A50"/>
<path d="M216.621 175.902L245.26 164.882C245.26 165.059 245.201 165.177 245.201 165.354L216.503 176.432C216.562 176.255 216.562 176.079 216.621 175.902Z" fill="#323A50"/>
<path d="M216.032 178.023L244.907 166.886C244.907 167.063 244.848 167.18 244.789 167.357L215.855 178.495C215.973 178.318 216.032 178.141 216.032 178.023Z" fill="#323A50"/>
<path d="M215.443 180.027L244.495 168.83C244.436 169.007 244.436 169.184 244.377 169.302L215.325 180.498C215.384 180.38 215.384 180.204 215.443 180.027Z" fill="#323A50"/>
<path d="M214.795 182.148L243.964 170.893C243.905 171.07 243.905 171.246 243.846 171.364L214.677 182.62C214.736 182.443 214.795 182.266 214.795 182.148Z" fill="#323A50"/>
<path d="M214.205 184.034L243.433 172.779C243.374 172.955 243.316 173.132 243.316 173.25L214.087 184.505C214.087 184.387 214.146 184.211 214.205 184.034Z" fill="#323A50"/>
<path d="M213.557 186.155L242.785 174.9C242.726 175.077 242.667 175.253 242.608 175.43L213.38 186.686C213.439 186.509 213.498 186.332 213.557 186.155Z" fill="#323A50"/>
<path d="M212.85 188.218L242.078 176.962C242.019 177.139 241.96 177.316 241.901 177.493L212.673 188.748C212.732 188.571 212.791 188.395 212.85 188.218Z" fill="#323A50"/>
<path d="M212.084 190.398L241.254 179.143C241.195 179.32 241.136 179.496 241.077 179.673L211.907 190.929C211.966 190.693 212.025 190.516 212.084 190.398Z" fill="#323A50"/>
<path d="M211.377 192.461L240.429 181.264C240.37 181.441 240.311 181.618 240.252 181.795L211.2 192.991C211.259 192.814 211.318 192.637 211.377 192.461Z" fill="#323A50"/>
<path d="M210.611 194.582L239.545 183.386C239.486 183.563 239.427 183.739 239.309 183.916L210.375 195.054C210.493 194.936 210.552 194.759 210.611 194.582Z" fill="#323A50"/>
<path d="M209.845 196.704L238.661 185.625C238.602 185.802 238.543 185.979 238.425 186.155L209.668 197.234C209.727 197.057 209.786 196.88 209.845 196.704Z" fill="#323A50"/>
<path d="M209.078 198.707L237.717 187.688C237.659 187.864 237.541 188.041 237.482 188.218L208.901 199.237C208.96 199.061 209.019 198.884 209.078 198.707Z" fill="#323A50"/>
<path d="M208.371 200.711L236.834 189.75C236.775 189.927 236.657 190.104 236.598 190.28L208.194 201.241C208.194 201.064 208.312 200.887 208.371 200.711Z" fill="#323A50"/>
<path d="M207.487 202.891L235.714 191.989C235.655 192.166 235.537 192.343 235.478 192.52L207.311 203.362C207.369 203.245 207.428 203.068 207.487 202.891Z" fill="#323A50"/>
<path d="M206.721 205.012L234.712 194.229C234.653 194.405 234.535 194.582 234.476 194.759L206.603 205.543C206.544 205.366 206.662 205.189 206.721 205.012Z" fill="#323A50"/>
<path d="M205.837 207.193L233.533 196.527C233.474 196.704 233.357 196.88 233.298 197.057L205.66 207.723C205.719 207.546 205.778 207.37 205.837 207.193Z" fill="#323A50"/>
<path d="M205.071 209.196L232.472 198.589C232.355 198.766 232.296 198.943 232.178 199.12L204.835 209.668C204.894 209.55 204.953 209.373 205.071 209.196Z" fill="#323A50"/>
<path d="M204.246 211.2L231.412 200.711C231.294 200.887 231.235 201.064 231.118 201.241L204.069 211.671C204.069 211.554 204.187 211.377 204.246 211.2Z" fill="#323A50"/>
<path d="M203.363 213.38L230.175 203.068C230.057 203.245 229.998 203.421 229.881 203.598L203.127 213.911C203.245 213.734 203.304 213.557 203.363 213.38Z" fill="#323A50"/>
<path d="M202.478 215.561L228.937 205.366C228.819 205.543 228.76 205.72 228.642 205.896L202.242 216.091C202.301 215.855 202.419 215.737 202.478 215.561Z" fill="#323A50"/>
<path d="M201.594 217.741L227.699 207.664C227.582 207.841 227.523 208.018 227.405 208.195L201.358 218.213C201.417 218.095 201.476 217.918 201.594 217.741Z" fill="#323A50"/>
<path d="M200.651 219.98L226.403 210.08C226.285 210.257 226.226 210.434 226.109 210.611L200.475 220.511C200.475 220.275 200.592 220.157 200.651 219.98Z" fill="#323A50"/>
<path d="M199.826 221.984L225.224 212.202C225.107 212.378 225.048 212.555 224.93 212.732L199.649 222.514C199.649 222.337 199.708 222.161 199.826 221.984Z" fill="#323A50"/>
<path d="M198.825 224.164L223.81 214.5C223.692 214.677 223.634 214.854 223.457 215.089L198.589 224.695C198.707 224.518 198.766 224.341 198.825 224.164Z" fill="#323A50"/>
<path d="M197.941 226.345L222.514 216.857C222.396 217.034 222.278 217.211 222.16 217.446L197.705 226.875C197.764 226.698 197.823 226.521 197.941 226.345Z" fill="#323A50"/>
<path d="M196.998 228.584L221.1 219.273C220.982 219.45 220.864 219.627 220.746 219.862L196.703 229.114C196.821 228.879 196.88 228.761 196.998 228.584Z" fill="#323A50"/>
<path d="M196.055 230.588L219.803 221.454C219.685 221.63 219.568 221.866 219.45 222.043L195.819 231.177C195.937 230.941 195.996 230.764 196.055 230.588Z" fill="#323A50"/>
<path d="M196.998 231.943L218.507 223.634C218.389 223.811 218.271 224.046 218.153 224.223L198.059 231.943C197.764 231.943 197.352 231.943 196.998 231.943Z" fill="#323A50"/>
<path d="M201.83 231.943L217.093 226.05C216.975 226.227 216.857 226.463 216.739 226.639L203.009 231.943C202.596 231.943 202.184 231.943 201.83 231.943Z" fill="#323A50"/>
<path d="M206.721 231.825L215.678 228.407C215.56 228.584 215.442 228.819 215.324 228.996L207.958 231.825C207.487 231.825 207.074 231.825 206.721 231.825Z" fill="#323A50"/>
<path d="M211.612 231.825L214.146 230.823C214.028 231 213.911 231.236 213.793 231.413L212.732 231.825C212.319 231.825 211.966 231.825 211.612 231.825Z" fill="#323A50"/>
<mask id="mask0_3672_17006" style="mask-type:luminance" maskUnits="userSpaceOnUse" x="64" y="59" width="129" height="119">
<path d="M192.225 165.943C192.225 165.825 192.225 165.707 192.225 165.589L191.636 158.223L189.986 157.87C187.629 156.809 185.39 156.161 182.266 155.218C182.266 153.568 182.325 153.686 182.325 152.036C182.325 147.439 175.784 143.727 167.416 143.314L81.086 59.6357L64.4092 68.7697L143.845 142.902L149.679 145.73L151.034 148.146L150.622 148.441C150.032 149.325 149.561 150.504 149.561 151.505V151.564L149.915 152.095H149.502C149.502 152.271 149.561 152.684 149.561 152.861L149.502 155.395L141.606 158.282L140.781 164.529C140.663 165 140.84 165.53 140.84 166.061C140.84 166.238 140.84 166.414 140.84 166.591V166.65C141.547 172.543 152.625 177.67 166.297 177.729C180.145 177.788 191.577 172.602 192.107 166.65H192.166L192.225 165.943Z" fill="white"/>
</mask>
<g mask="url(#mask0_3672_17006)">
<path d="M166.533 141.841C152.802 141.782 142.195 150.445 141.016 165.471C140.958 166.179 141.075 166.12 141.075 165.53C141.075 159.932 152.213 157.045 165.943 157.104C179.674 157.163 190.458 160.168 190.516 165.589C190.516 166.002 190.634 166.12 190.634 165.707C190.929 152.507 180.263 141.841 166.533 141.841Z" fill="#293C4F"/>
</g>
<mask id="mask1_3672_17006" style="mask-type:luminance" maskUnits="userSpaceOnUse" x="64" y="59" width="129" height="119">
<path d="M192.225 165.943C192.225 165.825 192.225 165.707 192.225 165.589L191.636 158.223L189.986 157.87C187.629 156.809 185.39 156.161 182.266 155.218C182.266 153.568 182.325 153.686 182.325 152.036C182.325 147.439 175.784 143.727 167.416 143.314L81.086 59.6357L64.4092 68.7697L143.845 142.902L149.679 145.73L151.034 148.146L150.622 148.441C150.032 149.325 149.561 150.504 149.561 151.505V151.564L149.915 152.095H149.502C149.502 152.271 149.561 152.684 149.561 152.861L149.502 155.395L141.606 158.282L140.781 164.529C140.663 165 140.84 165.53 140.84 166.061C140.84 166.238 140.84 166.414 140.84 166.591V166.65C141.547 172.543 152.625 177.67 166.297 177.729C180.145 177.788 191.577 172.602 192.107 166.65H192.166L192.225 165.943Z" fill="white"/>
</mask>
<g mask="url(#mask1_3672_17006)">
<path d="M172.308 157.575C176.727 156.514 179.674 154.511 179.733 152.212C179.733 148.795 173.309 146.025 165.354 146.025C157.399 146.025 150.976 148.736 150.917 152.153C150.917 154.511 153.922 156.573 158.46 157.634C148.206 158.459 140.722 161.228 140.663 165.825C140.663 171.423 151.801 177.67 165.59 177.728C179.379 177.787 190.576 171.6 190.576 165.943C190.576 161.17 182.856 158.4 172.308 157.575Z" fill="#A3A3A3"/>
</g>
<mask id="mask2_3672_17006" style="mask-type:luminance" maskUnits="userSpaceOnUse" x="64" y="59" width="129" height="119">
<path d="M192.225 165.943C192.225 165.825 192.225 165.707 192.225 165.589L191.636 158.223L189.986 157.87C187.629 156.809 185.39 156.161 182.266 155.218C182.266 153.568 182.325 153.686 182.325 152.036C182.325 147.439 175.784 143.727 167.416 143.314L81.086 59.6357L64.4092 68.7697L143.845 142.902L149.679 145.73L151.034 148.146L150.622 148.441C150.032 149.325 149.561 150.504 149.561 151.505V151.564L149.915 152.095H149.502C149.502 152.271 149.561 152.684 149.561 152.861L149.502 155.395L141.606 158.282L140.781 164.529C140.663 165 140.84 165.53 140.84 166.061C140.84 166.238 140.84 166.414 140.84 166.591V166.65C141.547 172.543 152.625 177.67 166.297 177.729C180.145 177.788 191.577 172.602 192.107 166.65H192.166L192.225 165.943Z" fill="white"/>
</mask>
<g mask="url(#mask2_3672_17006)">
<path opacity="0.2" d="M165.354 146.555C172.838 146.555 178.966 149.03 179.674 152.154C179.674 152.095 179.674 152.036 179.674 151.977C179.674 148.559 173.25 145.789 165.295 145.789C157.34 145.789 150.916 148.5 150.857 151.918C150.857 152.036 150.857 152.213 150.916 152.33C151.447 149.089 157.752 146.555 165.354 146.555Z" fill="#A3A3A3"/>
</g>
<mask id="mask3_3672_17006" style="mask-type:luminance" maskUnits="userSpaceOnUse" x="64" y="59" width="129" height="119">
<path d="M192.225 165.943C192.225 165.825 192.225 165.707 192.225 165.589L191.636 158.223L189.986 157.87C187.629 156.809 185.39 156.161 182.266 155.218C182.266 153.568 182.325 153.686 182.325 152.036C182.325 147.439 175.784 143.727 167.416 143.314L81.086 59.6357L64.4092 68.7697L143.845 142.902L149.679 145.73L151.034 148.146L150.622 148.441C150.032 149.325 149.561 150.504 149.561 151.505V151.564L149.915 152.095H149.502C149.502 152.271 149.561 152.684 149.561 152.861L149.502 155.395L141.606 158.282L140.781 164.529C140.663 165 140.84 165.53 140.84 166.061C140.84 166.238 140.84 166.414 140.84 166.591V166.65C141.547 172.543 152.625 177.67 166.297 177.729C180.145 177.788 191.577 172.602 192.107 166.65H192.166L192.225 165.943Z" fill="white"/>
</mask>
<g mask="url(#mask3_3672_17006)">
<path d="M166.886 143.845L143.904 141.664L73.7793 73.4249L81.7347 60.8142L167.181 143.373C167.299 143.491 167.122 143.845 166.886 143.845Z" fill="white"/>
</g>
<mask id="mask4_3672_17006" style="mask-type:luminance" maskUnits="userSpaceOnUse" x="64" y="59" width="129" height="119">
<path d="M192.225 165.943C192.225 165.825 192.225 165.707 192.225 165.589L191.636 158.223L189.986 157.87C187.629 156.809 185.39 156.161 182.266 155.218C182.266 153.568 182.325 153.686 182.325 152.036C182.325 147.439 175.784 143.727 167.416 143.314L81.086 59.6357L64.4092 68.7697L143.845 142.902L149.679 145.73L151.034 148.146L150.622 148.441C150.032 149.325 149.561 150.504 149.561 151.505V151.564L149.915 152.095H149.502C149.502 152.271 149.561 152.684 149.561 152.861L149.502 155.395L141.606 158.282L140.781 164.529C140.663 165 140.84 165.53 140.84 166.061C140.84 166.238 140.84 166.414 140.84 166.591V166.65C141.547 172.543 152.625 177.67 166.297 177.729C180.145 177.788 191.577 172.602 192.107 166.65H192.166L192.225 165.943Z" fill="white"/>
</mask>
<g mask="url(#mask4_3672_17006)">
<path d="M166.886 144.198H166.827L143.668 141.959L143.55 141.841L73.1895 73.425L81.6162 60.1072L167.416 142.961C167.593 143.138 167.652 143.491 167.593 143.727C167.475 144.08 167.181 144.198 166.886 144.198ZM144.081 141.252L166.591 143.432L81.7341 61.4625L74.2502 73.3661L144.081 141.252Z" fill="#323A50"/>
</g>
<mask id="mask5_3672_17006" style="mask-type:luminance" maskUnits="userSpaceOnUse" x="65" y="58" width="129" height="119">
<path d="M193.227 165.177C193.227 165.059 193.227 164.941 193.227 164.823L192.638 157.457L190.988 157.104C188.631 156.043 186.391 155.395 183.268 154.452C183.268 152.802 183.327 152.92 183.327 151.27C183.327 146.673 176.786 142.961 168.418 142.548L82.0879 58.8108L65.4111 67.9447L144.847 142.077L150.681 144.905L152.036 147.322L151.624 147.616C151.034 148.5 150.563 149.679 150.563 150.68V150.739L150.916 151.27H150.504C150.504 151.447 150.563 151.859 150.563 152.036L150.504 154.57L142.608 157.457L141.724 163.704C141.606 164.175 141.783 164.705 141.783 165.236C141.783 165.413 141.783 165.589 141.783 165.766V165.825C142.49 171.718 153.568 176.845 167.24 176.904C181.088 176.963 192.52 171.777 193.05 165.825H193.109L193.227 165.177Z" fill="white"/>
</mask>
<g mask="url(#mask5_3672_17006)">
<path d="M128.347 129.171C130.999 127.05 134.24 122.63 135.772 119.566L132.885 113.968L141.429 109.607C141.429 109.607 138.601 94.1089 127.169 96.6428L83.0901 56.8071L70.833 71.6571L105.542 106.366L122.278 121.393L128.347 129.171Z" fill="url(#paint5_linear_3672_17006)"/>
</g>
<mask id="mask6_3672_17006" style="mask-type:luminance" maskUnits="userSpaceOnUse" x="64" y="59" width="129" height="119">
<path d="M192.225 165.943C192.225 165.825 192.225 165.707 192.225 165.589L191.636 158.223L189.986 157.87C187.629 156.809 185.39 156.161 182.266 155.218C182.266 153.568 182.325 153.686 182.325 152.036C182.325 147.439 175.784 143.727 167.416 143.314L81.086 59.6357L64.4092 68.7697L143.845 142.902L149.679 145.73L151.034 148.146L150.622 148.441C150.032 149.325 149.561 150.504 149.561 151.505V151.564L149.915 152.095H149.502C149.502 152.271 149.561 152.684 149.561 152.861L149.502 155.395L141.606 158.282L140.781 164.529C140.663 165 140.84 165.53 140.84 166.061C140.84 166.238 140.84 166.414 140.84 166.591V166.65C141.547 172.543 152.625 177.67 166.297 177.729C180.145 177.788 191.577 172.602 192.107 166.65H192.166L192.225 165.943Z" fill="white"/>
</mask>
<g mask="url(#mask6_3672_17006)">
<path d="M111.488 106.974L132.691 127.517L133.265 126.924L112.062 106.382L111.488 106.974Z" fill="#323A50"/>
</g>
<mask id="mask7_3672_17006" style="mask-type:luminance" maskUnits="userSpaceOnUse" x="64" y="59" width="129" height="119">
<path d="M192.225 165.943C192.225 165.825 192.225 165.707 192.225 165.589L191.636 158.223L189.986 157.87C187.629 156.809 185.39 156.161 182.266 155.218C182.266 153.568 182.325 153.686 182.325 152.036C182.325 147.439 175.784 143.727 167.416 143.314L81.086 59.6357L64.4092 68.7697L143.845 142.902L149.679 145.73L151.034 148.146L150.622 148.441C150.032 149.325 149.561 150.504 149.561 151.505V151.564L149.915 152.095H149.502C149.502 152.271 149.561 152.684 149.561 152.861L149.502 155.395L141.606 158.282L140.781 164.529C140.663 165 140.84 165.53 140.84 166.061C140.84 166.238 140.84 166.414 140.84 166.591V166.65C141.547 172.543 152.625 177.67 166.297 177.729C180.145 177.788 191.577 172.602 192.107 166.65H192.166L192.225 165.943Z" fill="white"/>
</mask>
<g mask="url(#mask7_3672_17006)">
<path d="M135.064 129.393L141.878 135.994L142.452 135.402L135.638 128.8L135.064 129.393Z" fill="#323A50"/>
</g>
<mask id="mask8_3672_17006" style="mask-type:luminance" maskUnits="userSpaceOnUse" x="64" y="59" width="129" height="119">
<path d="M192.225 165.943C192.225 165.825 192.225 165.707 192.225 165.589L191.636 158.223L189.986 157.87C187.629 156.809 185.39 156.161 182.266 155.218C182.266 153.568 182.325 153.686 182.325 152.036C182.325 147.439 175.784 143.727 167.416 143.314L81.086 59.6357L64.4092 68.7697L143.845 142.902L149.679 145.73L151.034 148.146L150.622 148.441C150.032 149.325 149.561 150.504 149.561 151.505V151.564L149.915 152.095H149.502C149.502 152.271 149.561 152.684 149.561 152.861L149.502 155.395L141.606 158.282L140.781 164.529C140.663 165 140.84 165.53 140.84 166.061C140.84 166.238 140.84 166.414 140.84 166.591V166.65C141.547 172.543 152.625 177.67 166.297 177.729C180.145 177.788 191.577 172.602 192.107 166.65H192.166L192.225 165.943Z" fill="white"/>
</mask>
<g mask="url(#mask8_3672_17006)">
<path d="M168.005 145.082C167.77 146.614 162.171 147.027 155.512 146.084C148.795 145.082 143.609 143.078 143.786 141.546C144.021 140.014 149.62 139.602 156.279 140.545C162.996 141.546 168.241 143.609 168.005 145.082Z" fill="white"/>
</g>
<mask id="mask9_3672_17006" style="mask-type:luminance" maskUnits="userSpaceOnUse" x="64" y="59" width="129" height="119">
<path d="M192.225 165.943C192.225 165.825 192.225 165.707 192.225 165.589L191.636 158.223L189.986 157.87C187.629 156.809 185.39 156.161 182.266 155.218C182.266 153.568 182.325 153.686 182.325 152.036C182.325 147.439 175.784 143.727 167.416 143.314L81.086 59.6357L64.4092 68.7697L143.845 142.902L149.679 145.73L151.034 148.146L150.622 148.441C150.032 149.325 149.561 150.504 149.561 151.505V151.564L149.915 152.095H149.502C149.502 152.271 149.561 152.684 149.561 152.861L149.502 155.395L141.606 158.282L140.781 164.529C140.663 165 140.84 165.53 140.84 166.061C140.84 166.238 140.84 166.414 140.84 166.591V166.65C141.547 172.543 152.625 177.67 166.297 177.729C180.145 177.788 191.577 172.602 192.107 166.65H192.166L192.225 165.943Z" fill="white"/>
</mask>
<g mask="url(#mask9_3672_17006)">
<path d="M162.113 147.027C160.109 147.027 157.811 146.85 155.454 146.497C149.679 145.613 144.847 144.022 143.668 142.489C143.432 142.136 143.314 141.841 143.373 141.547C143.609 140.014 146.909 139.72 149.679 139.72C151.682 139.72 153.981 139.897 156.338 140.25C162.113 141.134 166.945 142.725 168.123 144.257C168.359 144.611 168.477 144.905 168.418 145.2C168.182 146.673 164.882 147.027 162.113 147.027ZM149.679 140.486C145.789 140.486 144.257 141.193 144.198 141.664C144.198 141.782 144.257 141.9 144.316 142.018C145.141 143.138 149.384 144.847 155.572 145.73C157.87 146.084 160.168 146.261 162.113 146.261C166.002 146.261 167.534 145.554 167.593 145.082C167.593 144.964 167.534 144.847 167.475 144.729C166.65 143.609 162.407 141.9 156.22 141.016C153.922 140.663 151.682 140.486 149.679 140.486Z" fill="#323A50"/>
</g>
<mask id="mask10_3672_17006" style="mask-type:luminance" maskUnits="userSpaceOnUse" x="64" y="59" width="129" height="119">
<path d="M192.225 165.943C192.225 165.825 192.225 165.707 192.225 165.589L191.636 158.223L189.986 157.87C187.629 156.809 185.39 156.161 182.266 155.218C182.266 153.568 182.325 153.686 182.325 152.036C182.325 147.439 175.784 143.727 167.416 143.314L81.086 59.6357L64.4092 68.7697L143.845 142.902L149.679 145.73L151.034 148.146L150.622 148.441C150.032 149.325 149.561 150.504 149.561 151.505V151.564L149.915 152.095H149.502C149.502 152.271 149.561 152.684 149.561 152.861L149.502 155.395L141.606 158.282L140.781 164.529C140.663 165 140.84 165.53 140.84 166.061C140.84 166.238 140.84 166.414 140.84 166.591V166.65C141.547 172.543 152.625 177.67 166.297 177.729C180.145 177.788 191.577 172.602 192.107 166.65H192.166L192.225 165.943Z" fill="white"/>
</mask>
<g mask="url(#mask10_3672_17006)">
<path d="M186.568 165.236C185.33 161.052 180.145 154.452 167.946 148.205C164.941 146.673 160.404 145.553 159.225 145.377C158.518 145.2 156.279 144.552 154.805 143.727C154.393 143.491 154.039 143.373 153.686 143.137C153.45 142.961 146.084 139.189 145.318 139.012C144.964 138.954 145.023 139.248 145.023 139.248C145.73 141.075 158.636 158.223 160.934 160.875C161.346 161.346 161.936 162.054 162.584 162.879C165.295 166.179 167.416 168.771 168.477 169.302C169.479 169.773 171.246 170.068 173.368 170.068C174.9 170.068 176.55 169.95 178.082 169.655C178.2 169.655 178.318 169.596 178.318 169.596C178.377 169.596 178.436 169.596 178.495 169.655H178.671C178.789 169.655 179.202 169.832 179.555 170.009C179.673 170.068 179.732 170.068 179.85 170.127C177.788 170.362 175.254 170.657 172.425 170.598C170.304 170.598 168.182 170.48 166.179 170.186C153.568 168.477 148.029 164.293 148.029 164.234C147.852 164.057 147.557 163.998 147.263 163.998C146.968 163.998 146.673 164.116 146.438 164.352C146.261 164.529 146.143 164.764 146.143 165.059C145.966 165.471 146.084 166.002 146.496 166.237C146.732 166.414 152.33 170.834 165.53 172.661H165.884C168.005 172.955 170.245 173.073 172.543 173.073C180.204 173.073 185.979 171.482 186.214 171.423C186.627 171.305 186.863 171.011 187.039 170.598C187.511 170.009 187.157 166.945 186.568 165.236Z" fill="#323A50"/>
</g>
<mask id="mask11_3672_17006" style="mask-type:luminance" maskUnits="userSpaceOnUse" x="64" y="59" width="129" height="119">
<path d="M192.225 165.943C192.225 165.825 192.225 165.707 192.225 165.589L191.636 158.223L189.986 157.87C187.629 156.809 185.39 156.161 182.266 155.218C182.266 153.568 182.325 153.686 182.325 152.036C182.325 147.439 175.784 143.727 167.416 143.314L81.086 59.6357L64.4092 68.7697L143.845 142.902L149.679 145.73L151.034 148.146L150.622 148.441C150.032 149.325 149.561 150.504 149.561 151.505V151.564L149.915 152.095H149.502C149.502 152.271 149.561 152.684 149.561 152.861L149.502 155.395L141.606 158.282L140.781 164.529C140.663 165 140.84 165.53 140.84 166.061C140.84 166.238 140.84 166.414 140.84 166.591V166.65C141.547 172.543 152.625 177.67 166.297 177.729C180.145 177.788 191.577 172.602 192.107 166.65H192.166L192.225 165.943Z" fill="white"/>
</mask>
<g mask="url(#mask11_3672_17006)">
<path d="M186.215 165.766C186.686 167.77 187.099 170.303 186.333 170.657C183.504 171.895 180.027 168.712 178.495 168.83C174.842 169.066 169.892 170.775 168.183 167.004C166.415 162.996 170.834 162.761 171.07 160.05C171.306 157.162 165.649 150.209 156.338 145.141C155.69 144.787 157.281 145.612 158.813 145.907C160.935 146.32 164.293 147.027 167.299 148.559C179.026 154.157 185.272 161.7 186.215 165.766Z" fill="white"/>
</g>
<mask id="mask12_3672_17006" style="mask-type:luminance" maskUnits="userSpaceOnUse" x="64" y="59" width="129" height="119">
<path d="M192.225 165.943C192.225 165.825 192.225 165.707 192.225 165.589L191.636 158.223L189.986 157.87C187.629 156.809 185.39 156.161 182.266 155.218C182.266 153.568 182.325 153.686 182.325 152.036C182.325 147.439 175.784 143.727 167.416 143.314L81.086 59.6357L64.4092 68.7697L143.845 142.902L149.679 145.73L151.034 148.146L150.622 148.441C150.032 149.325 149.561 150.504 149.561 151.505V151.564L149.915 152.095H149.502C149.502 152.271 149.561 152.684 149.561 152.861L149.502 155.395L141.606 158.282L140.781 164.529C140.663 165 140.84 165.53 140.84 166.061C140.84 166.238 140.84 166.414 140.84 166.591V166.65C141.547 172.543 152.625 177.67 166.297 177.729C180.145 177.788 191.577 172.602 192.107 166.65H192.166L192.225 165.943Z" fill="white"/>
</mask>
<g mask="url(#mask12_3672_17006)">
<path d="M165.766 171.836C152.743 170.068 147.204 165.707 146.968 165.53C146.732 165.354 146.673 165 146.909 164.764C147.145 164.528 147.498 164.528 147.793 164.764C147.852 164.823 153.391 169.125 166.237 170.834C176.55 172.248 185.684 169.655 185.802 169.655C186.155 169.596 186.745 169.007 186.745 169.302C186.745 170.068 186.568 170.598 186.273 170.716C185.861 170.834 176.786 173.368 166.178 171.953C166.002 171.895 165.884 171.895 165.766 171.836Z" fill="#DBDBDB"/>
</g>
<mask id="mask13_3672_17006" style="mask-type:luminance" maskUnits="userSpaceOnUse" x="64" y="59" width="129" height="119">
<path d="M192.225 165.943C192.225 165.825 192.225 165.707 192.225 165.589L191.636 158.223L189.986 157.87C187.629 156.809 185.39 156.161 182.266 155.218C182.266 153.568 182.325 153.686 182.325 152.036C182.325 147.439 175.784 143.727 167.416 143.314L81.086 59.6357L64.4092 68.7697L143.845 142.902L149.679 145.73L151.034 148.146L150.622 148.441C150.032 149.325 149.561 150.504 149.561 151.505V151.564L149.915 152.095H149.502C149.502 152.271 149.561 152.684 149.561 152.861L149.502 155.395L141.606 158.282L140.781 164.529C140.663 165 140.84 165.53 140.84 166.061C140.84 166.238 140.84 166.414 140.84 166.591V166.65C141.547 172.543 152.625 177.67 166.297 177.729C180.145 177.788 191.577 172.602 192.107 166.65H192.166L192.225 165.943Z" fill="white"/>
</mask>
<g mask="url(#mask13_3672_17006)">
<path d="M157.516 155.336C151.564 147.97 145.554 139.484 145.554 139.484C150.798 141.841 158.106 146.261 162.761 150.209C168.064 154.805 170.598 158.223 170.127 160.345C169.597 161.877 165.059 163.173 167.888 168.005" fill="white"/>
</g>
<mask id="mask14_3672_17006" style="mask-type:luminance" maskUnits="userSpaceOnUse" x="64" y="59" width="129" height="119">
<path d="M192.225 165.943C192.225 165.825 192.225 165.707 192.225 165.589L191.636 158.223L189.986 157.87C187.629 156.809 185.39 156.161 182.266 155.218C182.266 153.568 182.325 153.686 182.325 152.036C182.325 147.439 175.784 143.727 167.416 143.314L81.086 59.6357L64.4092 68.7697L143.845 142.902L149.679 145.73L151.034 148.146L150.622 148.441C150.032 149.325 149.561 150.504 149.561 151.505V151.564L149.915 152.095H149.502C149.502 152.271 149.561 152.684 149.561 152.861L149.502 155.395L141.606 158.282L140.781 164.529C140.663 165 140.84 165.53 140.84 166.061C140.84 166.238 140.84 166.414 140.84 166.591V166.65C141.547 172.543 152.625 177.67 166.297 177.729C180.145 177.788 191.577 172.602 192.107 166.65H192.166L192.225 165.943Z" fill="white"/>
</mask>
<g mask="url(#mask14_3672_17006)">
<path opacity="0.14" d="M179.733 158.577C177.847 156.75 168.183 149.443 164.529 148.088C164.411 148.029 164.352 148.029 164.234 147.97C164.352 148.147 164.352 148.382 164.411 148.618C164.765 148.972 164.942 149.502 164.942 149.973C168.242 151.329 177.022 157.339 180.204 159.755C182.915 161.759 181.677 160.404 179.733 158.577Z" fill="white"/>
</g>
<mask id="mask15_3672_17006" style="mask-type:luminance" maskUnits="userSpaceOnUse" x="64" y="59" width="129" height="119">
<path d="M192.225 165.943C192.225 165.825 192.225 165.707 192.225 165.589L191.636 158.223L189.986 157.87C187.629 156.809 185.39 156.161 182.266 155.218C182.266 153.568 182.325 153.686 182.325 152.036C182.325 147.439 175.784 143.727 167.416 143.314L81.086 59.6357L64.4092 68.7697L143.845 142.902L149.679 145.73L151.034 148.146L150.622 148.441C150.032 149.325 149.561 150.504 149.561 151.505V151.564L149.915 152.095H149.502C149.502 152.271 149.561 152.684 149.561 152.861L149.502 155.395L141.606 158.282L140.781 164.529C140.663 165 140.84 165.53 140.84 166.061C140.84 166.238 140.84 166.414 140.84 166.591V166.65C141.547 172.543 152.625 177.67 166.297 177.729C180.145 177.788 191.577 172.602 192.107 166.65H192.166L192.225 165.943Z" fill="white"/>
</mask>
<g mask="url(#mask15_3672_17006)">
<path d="M144.198 141.605L143.373 141.487C143.668 139.425 150.15 139.248 156.337 140.191L156.219 141.016C149.089 139.955 144.316 140.662 144.198 141.605Z" fill="#323A50"/>
</g>
<mask id="mask16_3672_17006" style="mask-type:luminance" maskUnits="userSpaceOnUse" x="64" y="59" width="129" height="119">
<path d="M192.225 165.943C192.225 165.825 192.225 165.707 192.225 165.589L191.636 158.223L189.986 157.87C187.629 156.809 185.39 156.161 182.266 155.218C182.266 153.568 182.325 153.686 182.325 152.036C182.325 147.439 175.784 143.727 167.416 143.314L81.086 59.6357L64.4092 68.7697L143.845 142.902L149.679 145.73L151.034 148.146L150.622 148.441C150.032 149.325 149.561 150.504 149.561 151.505V151.564L149.915 152.095H149.502C149.502 152.271 149.561 152.684 149.561 152.861L149.502 155.395L141.606 158.282L140.781 164.529C140.663 165 140.84 165.53 140.84 166.061C140.84 166.238 140.84 166.414 140.84 166.591V166.65C141.547 172.543 152.625 177.67 166.297 177.729C180.145 177.788 191.577 172.602 192.107 166.65H192.166L192.225 165.943Z" fill="white"/>
</mask>
<g mask="url(#mask16_3672_17006)">
<path d="M176.668 158.164L181.736 158.871L183.74 159.461L182.502 157.398L179.497 153.155C179.497 153.155 177.788 156.514 172.308 157.339L176.668 158.164Z" fill="#293C4F"/>
</g>
<mask id="mask17_3672_17006" style="mask-type:luminance" maskUnits="userSpaceOnUse" x="64" y="59" width="129" height="119">
<path d="M192.225 165.943C192.225 165.825 192.225 165.707 192.225 165.589L191.636 158.223L189.986 157.87C187.629 156.809 185.39 156.161 182.266 155.218C182.266 153.568 182.325 153.686 182.325 152.036C182.325 147.439 175.784 143.727 167.416 143.314L81.086 59.6357L64.4092 68.7697L143.845 142.902L149.679 145.73L151.034 148.146L150.622 148.441C150.032 149.325 149.561 150.504 149.561 151.505V151.564L149.915 152.095H149.502C149.502 152.271 149.561 152.684 149.561 152.861L149.502 155.395L141.606 158.282L140.781 164.529C140.663 165 140.84 165.53 140.84 166.061C140.84 166.238 140.84 166.414 140.84 166.591V166.65C141.547 172.543 152.625 177.67 166.297 177.729C180.145 177.788 191.577 172.602 192.107 166.65H192.166L192.225 165.943Z" fill="white"/>
</mask>
<g mask="url(#mask17_3672_17006)">
<path d="M172.307 157.28V157.928C182.797 158.871 189.632 161.877 189.809 165.295C189.868 166.945 188.925 168.536 187.04 170.186C187.04 170.716 187.098 170.834 186.215 171.364C185.625 171.659 184.977 171.836 184.918 171.836C180.44 174.723 173.427 176.962 165.531 176.962C152.213 176.904 141.311 170.303 141.488 165.177C141.606 161.818 148.265 158.812 158.518 157.928V157.339C148.206 158.164 140.722 160.934 140.722 165.53C140.722 171.128 151.8 177.375 165.648 177.434C179.438 177.493 190.575 171.305 190.575 165.648C190.575 160.993 182.797 158.164 172.307 157.28Z" fill="#323A50"/>
</g>
<g opacity="0.2">
<path d="M226.993 244.259L226.522 244.2C226.227 246.557 219.333 249.739 217.859 250.034C217.27 250.152 216.917 249.975 216.563 249.857C216.033 249.68 215.561 249.445 214.618 249.975C213.086 250.918 207.783 256.693 206.604 259.58C205.425 262.468 204.718 263.941 202.008 265.061C200.593 265.65 198.354 265.65 195.997 265.65C193.817 265.65 191.636 265.65 189.868 266.121C187.276 266.829 184.801 268.007 183.622 268.596C184.27 267.889 184.859 267.182 185.449 266.475C186.509 265.237 187.452 264.118 188.042 263.705C188.808 263.116 191.577 262.88 194.524 262.527C198.472 262.114 202.951 261.584 204.365 260.287C205.956 258.814 208.136 253.157 209.963 248.679C210.906 246.262 211.731 244.2 212.261 243.375C212.792 242.491 214.265 241.489 215.856 240.429C218.508 238.661 221.572 236.598 221.513 234.182H221.042C221.1 236.362 218.154 238.307 215.561 240.016C213.852 241.136 212.379 242.137 211.79 243.08C211.259 243.964 210.434 246.027 209.492 248.443C207.724 252.921 205.484 258.461 204.011 259.875C203.481 260.346 202.42 260.759 201.124 261.054C201.949 260.582 203.009 259.875 203.717 258.932C205.013 257.282 206.133 253.393 206.663 251.33C206.781 250.977 206.84 250.682 206.899 250.446C207.075 249.798 206.84 249.386 206.604 248.973C206.309 248.502 206.015 248.03 206.192 246.852C206.427 245.555 207.134 245.025 207.959 244.495C208.49 244.082 209.02 243.729 209.433 243.08C210.434 241.489 209.786 239.898 209.492 239.014V238.955C209.256 238.366 208.726 238.425 208.313 238.425C207.901 238.484 207.665 238.484 207.547 238.248C207.429 238.013 207.724 237.541 208.077 237.07C208.549 236.363 209.138 235.596 208.784 234.83L208.372 235.007C208.608 235.538 208.136 236.186 207.724 236.775C207.252 237.423 206.899 238.012 207.193 238.484C207.488 239.014 208.018 238.955 208.431 238.896C208.843 238.837 209.02 238.837 209.138 239.073V239.132C209.492 239.957 209.963 241.43 209.138 242.786C208.784 243.316 208.313 243.729 207.783 244.082C206.958 244.671 206.133 245.261 205.838 246.734C205.602 248.089 205.956 248.679 206.309 249.15C206.545 249.504 206.663 249.739 206.545 250.211C206.486 250.387 206.427 250.741 206.309 251.095C205.779 252.98 204.659 256.987 203.422 258.52C202.008 260.287 199.592 261.171 199.356 261.289C197.824 261.525 196.115 261.702 194.465 261.879C191.342 262.232 188.631 262.527 187.747 263.116C187.099 263.587 186.156 264.707 185.095 266.004C182.974 268.479 180.086 271.896 178.024 271.779C176.963 271.72 175.843 271.484 174.665 271.248C172.249 270.777 169.538 270.187 166.651 270.718C160.581 271.837 158.577 273.016 157.399 274.43C156.22 275.786 155.631 277.554 155.631 277.612L156.043 277.789C156.043 277.789 156.633 276.021 157.752 274.725C158.872 273.37 160.876 272.25 166.768 271.13C169.597 270.6 172.249 271.13 174.606 271.661C175.843 271.896 176.963 272.132 178.024 272.25C179.497 272.368 181.265 270.895 183.033 269.068L183.092 269.245C183.151 269.245 186.451 267.359 189.927 266.416C191.636 265.945 193.817 265.945 195.938 265.945C198.354 265.945 200.593 265.945 202.126 265.355C205.013 264.236 205.779 262.527 206.958 259.639C208.077 256.929 213.322 251.154 214.795 250.27C215.502 249.798 215.856 249.975 216.327 250.152C216.74 250.329 217.152 250.505 217.918 250.387C219.568 250.211 226.64 246.911 226.993 244.259Z" fill="url(#paint6_linear_3672_17006)"/>
<path d="M171.365 255.22C170.599 256.045 170.717 257.459 170.835 259.05C170.952 260.582 171.129 262.291 170.422 263.705C169.067 266.475 163.056 268.655 162.997 268.655L163.115 269.127C163.351 269.068 169.361 266.887 170.835 263.941C171.542 262.409 171.424 260.641 171.306 259.05C171.188 257.577 171.07 256.28 171.719 255.632C172.426 254.925 174.96 254.336 177.199 253.864C179.792 253.275 181.972 252.745 182.561 252.037C183.092 251.33 183.21 250.682 183.269 250.093C183.386 249.445 183.445 248.973 184.035 248.561C184.329 248.384 185.861 248.443 187.511 248.561C192.049 248.796 198.885 249.209 201.36 245.791C203.304 243.08 202.656 241.136 202.067 239.368C201.595 237.953 201.183 236.775 202.067 235.302C202.715 234.123 203.952 233.77 205.308 233.298C207.96 232.473 211.201 231.412 213.322 224.636C213.794 223.045 213.558 221.395 213.322 219.803C212.969 217.741 212.674 215.737 213.911 213.852L213.499 213.616C212.144 215.62 212.497 217.8 212.792 219.862C213.027 221.453 213.263 222.986 212.792 224.459C210.788 231 207.606 232.002 205.072 232.827C203.599 233.298 202.361 233.711 201.595 235.007C200.652 236.657 201.124 238.071 201.595 239.486C202.185 241.195 202.774 242.962 200.947 245.496C198.649 248.678 191.695 248.266 187.511 248.03C185.92 247.971 184.919 247.912 184.329 247.971C184.565 247.323 184.742 246.38 184.919 245.378C185.213 243.611 185.567 241.607 186.627 240.487C187.158 239.957 187.865 239.721 188.867 239.427C191.165 238.778 194.347 237.836 196.881 231.353V231.295C197.352 229.055 196.822 227.464 196.292 226.521C196.056 226.109 195.585 225.873 195.113 225.696C194.583 225.461 193.994 225.166 193.522 224.459C192.697 223.221 192.344 216.327 192.638 215.03C192.638 214.912 192.697 214.853 192.697 214.853C192.756 214.795 193.051 214.912 193.286 214.971C193.994 215.207 195.231 215.678 196.704 214.618L196.469 214.205C195.172 215.148 194.17 214.795 193.463 214.5C193.051 214.382 192.756 214.264 192.52 214.382C192.402 214.441 192.285 214.618 192.226 214.853C191.99 216.15 192.226 223.221 193.169 224.636C193.699 225.402 194.406 225.755 194.936 225.991C195.349 226.168 195.702 226.345 195.879 226.639C196.351 227.464 196.881 228.937 196.41 231.059C193.994 237.305 190.929 238.248 188.69 238.896C187.688 239.191 186.863 239.427 186.274 240.075C185.154 241.312 184.801 243.375 184.447 245.261C184.27 246.498 184.035 247.618 183.681 248.148C183.033 248.62 182.915 249.268 182.797 249.916C182.679 250.505 182.62 251.036 182.149 251.684C181.677 252.332 179.202 252.862 177.081 253.334C174.488 253.864 172.131 254.395 171.365 255.22Z" fill="url(#paint7_linear_3672_17006)"/>
<path d="M172.013 208.666C172.603 209.314 173.074 209.786 172.779 211.2C172.603 212.143 172.072 213.498 171.483 214.912C170.481 217.446 169.479 220.098 169.951 221.336C170.186 221.925 170.54 222.337 170.894 222.75C171.601 223.575 172.367 224.518 172.013 227.111C171.66 229.232 170.599 230.882 169.656 232.179C168.89 233.357 168.183 234.359 168.301 235.302C168.36 236.068 168.772 236.598 169.244 237.07C169.951 238.012 170.717 238.896 169.715 241.254C168.949 243.08 167.888 243.552 167.063 243.905C166.12 244.318 165.354 244.671 165.649 246.38C165.944 248.207 167.122 249.445 168.242 250.564C169.067 251.389 169.892 252.273 170.481 253.393L170.894 253.216C170.304 252.037 169.479 251.153 168.595 250.27C167.476 249.15 166.415 248.03 166.12 246.38C165.885 245.025 166.356 244.789 167.299 244.377C168.183 243.964 169.361 243.434 170.245 241.489C171.365 238.896 170.481 237.777 169.656 236.834C169.244 236.304 168.89 235.891 168.831 235.302C168.772 234.536 169.361 233.593 170.128 232.473C171.07 231.118 172.19 229.409 172.544 227.17C173.015 224.282 172.131 223.28 171.365 222.396C171.011 221.984 170.717 221.63 170.54 221.1C170.128 220.039 171.188 217.387 172.072 215.03C172.661 213.616 173.192 212.202 173.369 211.2C173.722 209.55 173.133 208.902 172.485 208.254C172.072 207.782 171.601 207.311 171.424 206.427L170.953 206.545C171.07 207.605 171.601 208.136 172.013 208.666Z" fill="url(#paint8_linear_3672_17006)"/>
<path d="M174.37 272.368C172.779 271.602 168.772 271.248 166.356 271.72C163.999 272.132 159.815 273.075 158.224 274.843C157.281 275.845 156.456 277.789 156.456 277.848L156.869 278.025C156.869 278.025 157.694 276.08 158.577 275.138C160.169 273.429 164.588 272.486 166.474 272.191C169.067 271.72 172.838 272.191 174.252 272.839C175.726 273.547 176.256 274.607 176.315 275.138C176.492 276.788 173.781 278.261 173.781 278.261L173.958 278.673C174.076 278.614 177.022 277.023 176.727 275.079C176.61 274.313 175.902 273.134 174.37 272.368Z" fill="url(#paint9_linear_3672_17006)"/>
<path d="M175.608 243.846C176.433 244.2 177.258 244.495 177.788 245.261C178.436 246.145 179.733 248.443 177.965 250.446C177.258 251.271 175.49 251.92 173.781 252.509C172.072 253.098 170.54 253.688 170.009 254.454C169.479 255.279 169.538 256.693 169.656 258.343C169.774 259.816 169.833 261.348 169.538 262.527C168.831 264.943 162.761 267.83 162.702 267.889L162.879 268.302C163.115 268.184 169.184 265.296 169.95 262.645C170.304 261.348 170.186 259.757 170.068 258.284C169.95 256.811 169.891 255.396 170.304 254.689C170.716 254.041 172.308 253.452 173.84 252.921C175.608 252.273 177.434 251.625 178.2 250.682C179.556 249.091 179.497 246.97 178.024 244.907C177.434 244.082 176.491 243.67 175.666 243.316C174.841 242.963 174.016 242.668 173.722 241.902C173.015 240.37 173.545 238.661 174.488 238.071C174.724 237.895 175.018 237.777 175.254 237.6C176.079 237.07 176.963 236.598 178.024 235.42C179.438 233.888 182.09 227.641 182.561 224.636C182.856 222.868 182.384 222.102 181.854 221.218C181.441 220.57 181.029 219.921 180.911 218.625L180.44 218.684C180.558 220.039 181.029 220.805 181.441 221.454C181.913 222.22 182.384 222.927 182.09 224.518C181.618 227.464 179.084 233.534 177.67 235.007C176.668 236.127 175.784 236.598 175.018 237.07C174.783 237.246 174.488 237.364 174.252 237.541C173.133 238.248 172.484 240.252 173.309 241.961C173.781 243.139 174.665 243.493 175.608 243.846Z" fill="url(#paint10_linear_3672_17006)"/>
</g>
<g opacity="0.2">
<path d="M155.513 270.6C155.336 269.363 153.922 268.361 152.508 267.418C151.388 266.652 149.679 265.709 148.206 264.884C146.91 264.177 145.731 263.529 145.318 263.175C145.201 263.116 145.083 262.939 144.965 262.763C144.258 261.643 143.727 258.932 143.845 256.752C143.904 255.514 143.786 254.571 143.727 253.805C143.61 252.98 143.551 252.391 143.786 251.861C143.963 251.448 144.258 251.389 144.729 251.33C145.201 251.271 145.849 251.154 146.085 250.388C146.32 249.739 146.202 249.032 146.143 248.325C146.085 247.618 145.967 247.029 146.261 246.557C146.556 246.145 146.851 246.027 147.263 245.909C147.676 245.732 148.147 245.555 148.559 244.966C148.913 244.436 148.442 243.729 147.852 242.904C146.968 241.666 145.79 239.898 146.261 237.777C146.792 235.479 147.499 235.538 148.501 235.714C148.972 235.773 149.561 235.891 150.092 235.655C151.035 235.302 151.918 233.239 152.802 231.118C153.51 229.468 154.217 227.759 154.806 227.288C155.513 226.757 156.102 226.639 156.692 226.522C157.281 226.404 157.811 226.345 158.224 225.755C158.754 225.107 158.46 224.223 158.224 223.457C158.106 222.986 157.929 222.514 158.047 222.279L157.635 222.043C157.458 222.455 157.576 222.986 157.752 223.575C157.929 224.223 158.165 224.989 157.811 225.461C157.458 225.873 157.104 225.932 156.515 226.05C155.926 226.168 155.218 226.286 154.452 226.875C153.745 227.405 153.038 229.114 152.272 230.941C151.506 232.827 150.622 234.948 149.856 235.243C149.385 235.42 148.913 235.361 148.442 235.302C147.381 235.184 146.32 235.007 145.672 237.718C145.142 240.075 146.379 241.902 147.322 243.198C147.793 243.905 148.265 244.495 148.029 244.789C147.735 245.261 147.381 245.379 146.968 245.555C146.556 245.673 146.143 245.85 145.79 246.38C145.377 246.97 145.495 247.736 145.613 248.443C145.731 249.091 145.79 249.739 145.613 250.27C145.436 250.8 145.024 250.859 144.552 250.918C144.081 250.977 143.551 251.036 143.256 251.743C143.02 252.391 143.079 253.039 143.197 253.923C143.315 254.689 143.374 255.573 143.315 256.811C143.197 258.166 143.374 259.816 143.727 261.171C142.726 259.521 141.429 256.988 141.252 254.513C141.076 252.45 141.488 251.684 142.018 250.623C142.549 249.563 143.197 248.266 143.727 245.379C144.435 241.195 142.608 237.364 141.429 235.302C141.547 234.889 142.372 232.12 144.552 231.354L145.672 230.941C147.735 230.234 149.561 229.586 150.504 229.055C151.742 228.407 152.743 226.286 152.92 224.989C153.038 224.223 152.685 223.752 152.331 223.339C152.036 222.927 151.742 222.573 151.742 221.984C151.801 221.454 152.567 220.923 153.451 220.334C154.688 219.509 156.279 218.448 156.927 216.68C157.693 214.618 156.927 213.675 156.279 212.85C155.926 212.438 155.631 212.084 155.513 211.554L155.101 211.671C155.218 212.261 155.631 212.732 155.926 213.145C156.574 213.97 157.163 214.736 156.515 216.563C155.926 218.154 154.452 219.155 153.215 219.98C152.154 220.688 151.388 221.218 151.329 221.925C151.27 222.75 151.683 223.221 151.977 223.634C152.331 224.046 152.567 224.341 152.449 224.93C152.213 226.286 151.211 228.171 150.268 228.643C149.326 229.114 147.44 229.763 145.495 230.47L144.376 230.882C142.372 231.589 141.429 233.829 141.135 234.772C140.722 234.182 140.486 233.829 140.427 233.77C140.368 233.711 136.185 229.88 134.358 226.993C132.472 224.046 132.531 221.63 133.533 220.805C134.063 220.334 135.124 220.275 136.42 220.216C137.599 220.157 138.895 220.098 140.015 219.686C141.783 219.038 143.02 216.504 143.374 215.738C143.904 214.618 144.376 213.145 144.081 212.438C143.61 211.141 141.665 210.729 141.547 210.67L141.488 211.141C141.488 211.141 143.315 211.554 143.668 212.555C143.786 212.968 143.609 214.088 142.961 215.561C142.313 217.034 141.135 218.802 139.838 219.273C138.718 219.686 137.481 219.745 136.361 219.804C135.065 219.863 133.886 219.921 133.238 220.452C132.118 221.395 131.883 223.988 134.004 227.229C135.831 230.116 139.897 233.829 140.133 234.064C140.368 234.359 144.317 239.486 143.315 245.202C142.843 248.03 142.195 249.327 141.665 250.329C141.547 250.564 141.429 250.8 141.311 251.036C140.781 249.621 140.84 248.796 140.899 248.148C140.958 247.205 140.899 246.675 139.602 245.85C137.893 244.789 134.593 244.613 132.413 244.495C131.529 244.436 130.763 244.377 130.468 244.318C129.113 243.964 128.406 243.375 128.052 242.138C127.758 241.136 127.993 240.841 128.465 240.311C128.583 240.193 128.701 240.016 128.877 239.839C129.054 239.604 129.408 239.368 129.761 239.191C130.586 238.72 131.706 238.071 131.588 236.421C131.529 235.007 130.586 234.536 129.643 234.005C128.995 233.652 128.347 233.357 127.876 232.65C126.638 231 125.165 226.227 124.929 223.634C124.635 220.746 125.165 215.325 125.636 214.972C125.813 214.913 126.579 215.266 127.168 215.561C128.288 216.091 129.643 216.739 130.645 216.504C130.822 216.445 130.94 216.445 131.117 216.386C132.354 216.091 132.472 215.973 132.413 214.736C132.354 213.852 131.706 213.734 131.176 213.675C130.763 213.616 130.468 213.557 130.233 213.263C129.761 212.673 129.938 210.434 129.997 209.609L129.526 209.55C129.467 209.904 129.172 212.673 129.82 213.557C130.174 213.97 130.645 214.029 131.058 214.088C131.647 214.205 131.883 214.264 131.942 214.736C132.001 215.207 132.001 215.443 131.883 215.561C131.765 215.679 131.47 215.738 130.999 215.855C130.881 215.914 130.704 215.914 130.527 215.973C129.702 216.15 128.406 215.561 127.345 215.03C126.343 214.559 125.813 214.323 125.46 214.441C124.517 214.795 124.222 221.336 124.399 223.575C124.634 226.286 126.108 231.059 127.463 232.827C127.993 233.534 128.76 233.946 129.349 234.3C130.292 234.771 130.999 235.125 131.058 236.304C131.117 237.659 130.292 238.13 129.408 238.661C128.995 238.896 128.642 239.132 128.406 239.427C128.288 239.604 128.17 239.78 128.052 239.898C127.581 240.429 127.227 240.9 127.581 242.138C127.993 243.493 128.818 244.259 130.351 244.613C130.645 244.671 131.058 244.73 131.647 244.73C131.293 244.966 130.94 244.966 130.527 244.966C130.115 244.966 129.585 244.907 129.172 245.261C128.406 245.791 128.877 246.675 129.231 247.323C129.349 247.618 129.526 247.913 129.526 248.089C129.526 248.207 129.467 248.325 129.349 248.443C129.113 248.62 128.642 248.679 127.993 248.62C127.286 248.502 126.285 247.441 125.695 246.793C125.46 246.557 125.283 246.322 125.165 246.263C124.929 246.086 124.576 246.086 124.281 246.145C123.927 246.204 123.515 246.204 123.161 245.968C122.985 245.85 122.808 245.614 122.808 245.32C122.749 244.789 122.985 244.2 123.161 244.023C123.22 243.964 123.397 243.964 123.633 243.964C123.927 243.964 124.281 243.964 124.576 243.729C125.047 243.316 125.224 242.668 125.165 241.666C125.106 241.077 124.635 241.077 124.222 241.077C123.751 241.077 123.22 241.018 122.985 240.37C122.808 239.898 123.043 239.427 123.397 238.838C123.927 237.954 124.576 236.834 123.633 235.184C122.572 233.239 121.393 233.416 120.568 233.593C120.274 233.652 119.979 233.711 119.802 233.652C119.626 233.593 119.508 233.475 119.508 233.416C119.449 233.239 119.567 233.063 119.626 233.004L119.272 232.768C119.272 232.827 118.977 233.18 119.095 233.593C119.154 233.829 119.331 234.064 119.684 234.182C119.979 234.3 120.333 234.241 120.686 234.182C121.452 234.064 122.395 233.829 123.279 235.538C124.045 236.952 123.515 237.895 123.043 238.72C122.69 239.368 122.336 239.957 122.572 240.605C122.926 241.548 123.692 241.607 124.222 241.607C124.693 241.607 124.752 241.666 124.752 241.784C124.811 242.609 124.693 243.198 124.34 243.493C124.163 243.611 123.927 243.611 123.692 243.611C123.397 243.611 123.102 243.611 122.867 243.847C122.631 244.082 122.336 244.848 122.454 245.496C122.513 245.909 122.69 246.263 122.985 246.498C123.515 246.852 124.045 246.852 124.399 246.793C124.693 246.793 124.87 246.734 124.988 246.852C125.106 246.911 125.224 247.147 125.46 247.382C126.108 248.089 127.168 249.268 127.993 249.386C127.993 249.386 127.993 249.386 128.052 249.386C128.818 249.504 129.408 249.386 129.761 249.091C129.938 248.914 130.056 248.679 130.115 248.384C130.115 248.089 129.938 247.795 129.761 247.382C129.408 246.675 129.172 246.204 129.585 245.909C129.938 245.673 130.233 245.673 130.645 245.673C131.176 245.673 131.824 245.732 132.354 245.025C132.413 245.025 132.472 245.025 132.472 245.025C134.593 245.143 137.834 245.379 139.426 246.321C140.545 247.029 140.545 247.382 140.486 248.207C140.427 248.973 140.368 249.975 141.135 251.743C140.899 252.45 140.781 253.275 140.899 254.63C141.193 258.755 144.376 262.939 144.611 263.175C144.729 263.352 144.906 263.529 145.024 263.647C145.495 264 146.674 264.648 147.97 265.414C149.443 266.239 151.152 267.182 152.213 267.948C153.51 268.891 154.865 269.834 155.042 270.895C155.101 271.366 154.983 271.897 154.511 272.427C152.92 274.489 150.976 281.855 150.917 282.091L151.388 282.15C151.447 281.679 153.392 274.666 154.865 272.722C155.395 271.779 155.631 271.189 155.513 270.6Z" fill="url(#paint11_linear_3672_17006)"/>
<path d="M152.39 272.486C151.741 270.247 148.559 267.831 147.499 267.182C145.2 265.768 139.956 265.473 137.54 266.004C136.42 266.239 135.654 266.593 134.947 266.947C134.181 267.3 133.533 267.654 132.649 267.654C130.822 267.654 129.82 267.889 128.936 268.538C128.759 268.656 128.7 268.832 128.7 268.95C128.7 269.304 129.054 269.657 129.408 270.011C129.702 270.247 130.115 270.659 130.056 270.836C130.056 270.954 129.938 271.013 129.82 271.072C128.641 271.72 127.699 270.836 127.64 270.777L127.286 271.131C127.286 271.131 128.465 272.309 129.938 271.543C130.233 271.366 130.35 271.189 130.409 270.954C130.468 270.482 129.997 270.129 129.643 269.716C129.408 269.481 129.054 269.186 129.054 269.009L129.113 268.95C129.879 268.361 130.822 268.184 132.531 268.184C133.533 268.184 134.24 267.831 135.065 267.418C135.713 267.064 136.479 266.711 137.54 266.475C139.838 266.004 144.965 266.298 147.145 267.595C148.441 268.361 151.329 270.659 151.859 272.604C151.977 273.134 151.742 274.077 151.388 274.843C149.62 278.968 149.031 281.914 149.031 281.914L149.443 281.973C149.443 281.973 150.033 279.027 151.8 274.961C152.095 274.489 152.625 273.252 152.39 272.486Z" fill="url(#paint12_linear_3672_17006)"/>
<path d="M153.391 272.073C153.274 271.248 152.449 270.364 152.154 270.011C152.095 269.952 152.095 269.952 152.095 269.952C150.445 268.007 148.029 266.122 146.438 265.532C145.966 265.355 145.436 265.238 144.788 265.12C142.254 263.882 139.72 263.411 137.363 262.939C136.066 262.704 134.711 262.409 133.356 262.055C129.761 260.995 123.75 255.043 123.515 254.748C123.338 254.513 119.272 249.327 118.859 247.559C118.683 246.793 117.799 242.904 117.386 241.843C116.974 240.9 111.847 239.191 110.786 238.838C108.311 238.72 104.599 238.484 104.245 238.248C103.833 237.954 103.361 236.539 103.479 235.95C103.479 235.714 103.774 235.538 104.068 235.361C104.54 235.066 105.07 234.654 105.188 233.947C105.247 233.416 104.893 231.884 104.245 229.291C103.656 226.875 102.89 223.634 103.066 223.045C103.243 222.514 103.597 222.455 103.891 222.338C104.245 222.279 104.599 222.161 104.716 221.63C104.775 221.454 104.658 221.277 104.599 221.218C104.363 220.982 103.833 220.982 103.125 221.041C102.418 221.1 101.475 221.159 101.122 220.805L100.827 221.159C101.358 221.63 102.3 221.572 103.125 221.513C103.538 221.513 104.127 221.454 104.245 221.572C104.186 221.807 104.127 221.807 103.774 221.925C103.42 222.043 102.89 222.161 102.595 222.927C102.359 223.575 102.89 225.932 103.774 229.468C104.245 231.413 104.775 233.475 104.716 233.947C104.658 234.477 104.186 234.772 103.774 235.066C103.361 235.302 103.008 235.597 102.949 236.009C102.831 236.716 103.361 238.366 103.95 238.779C104.422 239.132 109.195 239.368 110.668 239.427C113.615 240.37 116.738 241.666 116.915 242.138C117.268 242.963 117.916 245.614 118.329 247.795C118.741 249.68 122.925 254.984 123.102 255.161C123.338 255.397 129.408 261.466 133.179 262.586C134.534 262.998 135.89 263.234 137.186 263.47C139.072 263.823 141.075 264.236 143.079 265.002C141.959 264.884 140.722 264.825 139.602 264.707C138.6 264.648 137.716 264.589 136.95 264.472C131.411 263.882 128.288 263.057 126.225 261.584C123.927 259.993 117.091 253.982 116.561 253.275C116.266 252.863 116.149 252.45 115.972 251.92C115.854 251.507 115.736 251.036 115.5 250.505C114.675 248.62 111.375 246.498 109.018 245.025C107.781 244.259 106.72 243.552 106.484 243.198C106.131 242.668 106.249 242.314 106.425 241.843C106.543 241.489 106.72 241.136 106.72 240.664H106.366C106.366 241.077 106.249 241.372 106.131 241.666C105.895 242.197 105.718 242.668 106.19 243.434C106.484 243.847 107.486 244.495 108.841 245.379C111.14 246.852 114.322 248.914 115.147 250.682C115.383 251.154 115.5 251.625 115.618 252.038C115.795 252.627 115.913 253.098 116.266 253.57C116.856 254.277 123.75 260.347 126.049 261.997C128.111 263.47 131.293 264.354 136.95 264.943C137.658 265.002 138.6 265.061 139.602 265.179C142.077 265.355 144.906 265.591 146.261 266.063C147.734 266.593 150.091 268.42 151.741 270.305C151.741 270.305 151.8 270.364 151.8 270.423C152.036 270.718 152.861 271.602 152.92 272.25C153.038 272.898 152.566 274.136 151.918 275.904C151.329 277.554 150.563 279.557 149.915 282.032L150.327 282.15C150.975 279.675 151.683 277.672 152.331 276.08C153.038 274.136 153.509 272.839 153.391 272.073Z" fill="url(#paint13_linear_3672_17006)"/>
<path d="M106.366 209.432C106.307 209.786 105.954 210.316 105.541 210.905C104.834 212.025 103.95 213.263 104.48 214.205C104.775 214.736 105.482 215.207 106.307 215.796C107.839 216.798 109.784 218.095 110.55 220.452C111.787 224.164 114.911 230.764 114.97 230.823V230.882C115.029 230.941 118.859 236.127 117.504 241.195L117.916 241.313C119.271 236.127 115.618 231.059 115.323 230.646C115.323 230.588 115.205 230.411 115.087 230.175C115.618 230.057 116.796 229.704 117.562 228.702C118.152 227.936 118.387 226.934 118.27 225.696C118.034 223.634 117.032 221.689 116.148 220.039C115.382 218.566 114.734 217.329 114.852 216.445C114.911 215.679 115.382 215.502 115.971 215.325C116.679 215.148 117.562 214.854 117.739 213.321C117.916 211.671 116.796 210.964 115.854 210.434C115.146 209.963 114.675 209.668 114.734 209.138C114.852 207.664 116.973 205.602 116.973 205.602L116.679 205.248C116.62 205.307 114.439 207.429 114.321 209.079C114.262 209.904 114.97 210.375 115.677 210.788C116.561 211.318 117.504 211.907 117.327 213.263C117.209 214.5 116.561 214.677 115.912 214.854C115.264 215.03 114.557 215.266 114.498 216.327C114.439 217.388 115.087 218.684 115.854 220.157C116.679 221.807 117.68 223.693 117.916 225.638C118.034 226.698 117.857 227.582 117.327 228.289C116.561 229.291 115.382 229.586 114.97 229.645C114.027 227.7 111.964 223.104 111.021 220.216C110.196 217.741 108.134 216.386 106.602 215.325C105.836 214.795 105.129 214.323 104.893 213.911C104.48 213.204 105.246 212.084 105.895 211.082C106.366 210.434 106.72 209.845 106.779 209.432C106.837 208.784 106.248 207.841 105.482 206.78C104.834 205.779 104.068 204.659 103.95 203.834L103.479 203.893C103.596 204.836 104.362 205.896 105.07 207.016C105.777 207.959 106.425 208.961 106.366 209.432Z" fill="url(#paint14_linear_3672_17006)"/>
<path d="M150.799 273.959C150.268 272.722 148.677 271.72 147.558 271.013C147.086 270.718 146.733 270.482 146.556 270.305C146.379 270.129 146.379 269.952 146.32 269.775C146.202 269.245 146.026 268.773 144.906 268.361C143.197 267.654 139.131 267.3 137.776 268.184C137.245 268.538 137.186 268.95 137.186 269.304C137.304 270.247 138.424 271.072 139.485 271.425C140.192 271.661 140.251 272.427 140.309 273.193C140.368 273.841 140.427 274.489 140.899 274.902C141.252 275.138 141.37 275.373 141.311 275.55C141.252 275.786 140.84 276.08 139.956 276.198C138.66 276.316 136.656 275.786 136.656 275.786L136.538 276.257C136.597 276.257 138.601 276.788 140.015 276.67C141.017 276.552 141.665 276.198 141.783 275.668C141.901 275.255 141.665 274.843 141.193 274.489C140.84 274.254 140.84 273.723 140.781 273.134C140.722 272.368 140.663 271.307 139.661 271.013C138.601 270.659 137.717 269.893 137.658 269.245C137.658 269.009 137.776 268.773 138.011 268.597C139.19 267.889 143.02 268.125 144.729 268.832C145.731 269.245 145.79 269.598 145.908 269.952C145.967 270.188 146.026 270.482 146.32 270.718C146.497 270.895 146.909 271.189 147.381 271.484C148.442 272.132 149.974 273.193 150.445 274.254C150.799 275.02 150.386 275.845 149.856 277.023C149.385 278.143 148.736 279.498 148.501 281.325L148.972 281.384C149.208 279.616 149.797 278.261 150.327 277.2C150.799 275.904 151.211 274.961 150.799 273.959Z" fill="url(#paint15_linear_3672_17006)"/>
</g>
</g>
<defs>
<radialGradient id="paint0_radial_3672_17006" cx="0" cy="0" r="1" gradientUnits="userSpaceOnUse" gradientTransform="translate(167.488 236.918) rotate(0.150832) scale(71.735 71.4022)">
<stop offset="0.4054" stop-color="#032A3D" stop-opacity="0"/>
<stop offset="1" stop-color="#032A3D"/>
</radialGradient>
<linearGradient id="paint1_linear_3672_17006" x1="179.152" y1="199.994" x2="143.866" y2="61.2178" gradientUnits="userSpaceOnUse">
<stop offset="0.2655" stop-color="#032A3D" stop-opacity="0"/>
<stop offset="0.7809" stop-color="#032A3D"/>
</linearGradient>
<linearGradient id="paint2_linear_3672_17006" x1="188.699" y1="172.719" x2="142.146" y2="123.862" gradientUnits="userSpaceOnUse">
<stop offset="0.3301" stop-color="#C4FFFF"/>
<stop offset="0.8279" stop-color="#47B4FF"/>
<stop offset="1" stop-color="#0C37A6"/>
</linearGradient>
<radialGradient id="paint3_radial_3672_17006" cx="0" cy="0" r="1" gradientUnits="userSpaceOnUse" gradientTransform="translate(166.326 160.469) rotate(0.15084) scale(43.9799 43.7537)">
<stop offset="0.2655" stop-color="#032A3D" stop-opacity="0"/>
<stop offset="0.7809" stop-color="#032A3D"/>
</radialGradient>
<radialGradient id="paint4_radial_3672_17006" cx="0" cy="0" r="1" gradientUnits="userSpaceOnUse" gradientTransform="translate(166.325 160.469) rotate(0.150837) scale(43.9817 43.7546)">
<stop offset="0.2655" stop-color="#032A3D" stop-opacity="0"/>
<stop offset="0.7809" stop-color="#032A3D"/>
</radialGradient>
<linearGradient id="paint5_linear_3672_17006" x1="170.214" y1="146.821" x2="74.0275" y2="64.0449" gradientUnits="userSpaceOnUse">
<stop offset="0.6593" stop-color="#FFFEFF" stop-opacity="0"/>
<stop offset="0.9342" stop-color="white"/>
</linearGradient>
<linearGradient id="paint6_linear_3672_17006" x1="74.8506" y1="201.52" x2="209.255" y2="265.81" gradientUnits="userSpaceOnUse">
<stop offset="0.2655" stop-color="#032A3D" stop-opacity="0"/>
<stop offset="0.7809" stop-color="#032A3D"/>
</linearGradient>
<linearGradient id="paint7_linear_3672_17006" x1="80.4757" y1="189.761" x2="214.88" y2="254.051" gradientUnits="userSpaceOnUse">
<stop offset="0.2655" stop-color="#032A3D" stop-opacity="0"/>
<stop offset="0.7809" stop-color="#032A3D"/>
</linearGradient>
<linearGradient id="paint8_linear_3672_17006" x1="81.6482" y1="187.309" x2="216.053" y2="251.6" gradientUnits="userSpaceOnUse">
<stop offset="0.2655" stop-color="#032A3D" stop-opacity="0"/>
<stop offset="0.7809" stop-color="#032A3D"/>
</linearGradient>
<linearGradient id="paint9_linear_3672_17006" x1="63.0659" y1="226.157" x2="197.471" y2="290.447" gradientUnits="userSpaceOnUse">
<stop offset="0.2655" stop-color="#032A3D" stop-opacity="0"/>
<stop offset="0.7809" stop-color="#032A3D"/>
</linearGradient>
<linearGradient id="paint10_linear_3672_17006" x1="76.5474" y1="197.972" x2="210.952" y2="262.262" gradientUnits="userSpaceOnUse">
<stop offset="0.2655" stop-color="#032A3D" stop-opacity="0"/>
<stop offset="0.7809" stop-color="#032A3D"/>
</linearGradient>
<linearGradient id="paint11_linear_3672_17006" x1="71.8472" y1="207.799" x2="206.252" y2="272.089" gradientUnits="userSpaceOnUse">
<stop offset="0.2655" stop-color="#032A3D" stop-opacity="0"/>
<stop offset="0.7809" stop-color="#032A3D"/>
</linearGradient>
<linearGradient id="paint12_linear_3672_17006" x1="60.1176" y1="232.321" x2="194.522" y2="296.611" gradientUnits="userSpaceOnUse">
<stop offset="0.2655" stop-color="#032A3D" stop-opacity="0"/>
<stop offset="0.7809" stop-color="#032A3D"/>
</linearGradient>
<linearGradient id="paint13_linear_3672_17006" x1="65.0936" y1="221.918" x2="199.498" y2="286.208" gradientUnits="userSpaceOnUse">
<stop offset="0.2655" stop-color="#032A3D" stop-opacity="0"/>
<stop offset="0.7809" stop-color="#032A3D"/>
</linearGradient>
<linearGradient id="paint14_linear_3672_17006" x1="74.314" y1="202.641" x2="208.719" y2="266.931" gradientUnits="userSpaceOnUse">
<stop offset="0.2655" stop-color="#032A3D" stop-opacity="0"/>
<stop offset="0.7809" stop-color="#032A3D"/>
</linearGradient>
<linearGradient id="paint15_linear_3672_17006" x1="59.5801" y1="233.445" x2="193.985" y2="297.735" gradientUnits="userSpaceOnUse">
<stop offset="0.2655" stop-color="#032A3D" stop-opacity="0"/>
<stop offset="0.7809" stop-color="#032A3D"/>
</linearGradient>
<clipPath id="clip0_3672_17006">
<rect width="330" height="330" fill="white"/>
</clipPath>
</defs>
</svg>
