<svg width="470" height="295" viewBox="0 0 470 295" fill="none" xmlns="http://www.w3.org/2000/svg">
<path fill-rule="evenodd" clip-rule="evenodd" d="M189.994 46.7215C202.5 43.5972 219.387 41.5923 237.95 41.5923C256.505 41.5923 273.396 43.4957 285.911 46.7224L285.913 46.7228L285.987 46.7384C286.053 46.7523 286.154 46.7733 286.29 46.8007C286.562 46.8555 286.973 46.9363 287.523 47.0387C288.625 47.2437 290.285 47.5355 292.511 47.8807C296.964 48.5709 303.679 49.4744 312.706 50.3222C330.761 52.018 358.067 53.4916 395.023 52.5926L395.037 52.5923H395.05C405.776 52.5923 414.483 61.2993 414.483 72.0248C414.483 76.2352 413.187 80.1665 410.867 83.3231L410.763 83.5312L410.726 83.5126L410.726 83.5128C410.763 83.5315 410.763 83.5315 410.763 83.5316L410.763 83.532L410.763 83.5328L410.762 83.5345L410.76 83.5382L410.756 83.5464L410.745 83.5667L410.73 83.5935L410.715 83.621C410.691 83.6629 410.659 83.7165 410.618 83.778C410.557 83.8696 410.473 83.9845 410.364 84.1065C410.331 84.1577 410.296 84.2057 410.26 84.251C410.211 84.3121 410.163 84.3629 410.131 84.3952L410.124 84.4107L410.072 84.483C408.144 87.1819 401.683 96.9523 401.683 112.525C401.683 121.934 401.558 131.915 401.433 139.543C401.37 143.358 401.308 146.584 401.261 148.858C401.237 149.994 401.218 150.892 401.204 151.507L401.188 152.209L401.184 152.39L401.183 152.425L401.184 152.459L401.188 152.639C401.192 152.798 401.197 153.033 401.204 153.339L401.221 154.088C401.232 154.61 401.246 155.244 401.261 155.978C401.308 158.243 401.37 161.461 401.433 165.269C401.558 172.884 401.683 182.866 401.683 192.325C401.683 207.76 408.031 217.495 410.02 220.293C410.143 220.421 410.311 220.613 410.463 220.918C410.461 220.913 410.46 220.912 410.463 220.917L410.464 220.917L410.464 220.918C410.47 220.925 410.483 220.945 410.508 220.975C410.524 220.994 410.538 221.01 410.548 221.02L410.551 221.024L410.551 221.024L410.552 221.024L410.552 221.025L410.553 221.025L410.554 221.027L410.555 221.028L410.556 221.029L410.619 221.092L410.674 221.169C412.994 224.438 414.483 228.463 414.483 232.825C414.483 243.55 405.776 252.257 395.05 252.257H395.037L395.023 252.257C358.067 251.358 330.761 252.832 312.706 254.527C303.679 255.375 296.964 256.279 292.511 256.969C290.285 257.314 288.625 257.606 287.523 257.811C286.973 257.913 286.562 257.994 286.29 258.049C286.22 258.063 286.159 258.075 286.108 258.086L285.987 258.111L285.913 258.127L285.907 258.128C273.401 261.252 256.514 263.257 237.95 263.257C219.396 263.257 202.505 261.354 189.99 258.127L189.988 258.127L189.914 258.111C189.848 258.097 189.747 258.076 189.611 258.049C189.339 257.994 188.928 257.913 188.378 257.811C187.276 257.606 185.616 257.314 183.389 256.969C178.937 256.279 172.222 255.375 163.195 254.527C152.069 253.482 137.432 252.522 119.188 252.149C119.081 252.162 118.972 252.16 118.865 252.142C107.583 251.916 94.9278 251.915 80.878 252.257L80.8642 252.257H80.8505C70.125 252.257 61.418 243.55 61.418 232.825C61.418 228.614 62.7136 224.683 65.0334 221.527L65.1375 221.318L65.1747 221.337L65.1749 221.337C65.1377 221.318 65.1377 221.318 65.1377 221.318L65.1379 221.318L65.1384 221.317L65.1392 221.315L65.1411 221.311L65.1453 221.303L65.1559 221.283C65.1639 221.268 65.1739 221.25 65.1859 221.229C65.2099 221.187 65.2422 221.133 65.2832 221.072C65.3443 220.98 65.4284 220.865 65.5371 220.743C65.5702 220.692 65.6049 220.644 65.6411 220.599C65.69 220.537 65.7379 220.487 65.7695 220.454L65.7773 220.439L65.8289 220.367C67.7567 217.668 74.218 207.897 74.218 192.325C74.218 182.916 74.3431 172.934 74.4681 165.306C74.5307 161.492 74.5932 158.265 74.6401 155.992C74.6635 154.855 74.6831 153.957 74.6968 153.343C74.7036 153.036 74.709 152.8 74.7127 152.64L74.7168 152.459L74.7177 152.425L74.7168 152.391L74.7127 152.211L74.7069 151.96L74.6968 151.511C74.6831 150.899 74.6635 150.004 74.6401 148.872C74.5932 146.606 74.5307 143.389 74.4681 139.581C74.3431 131.965 74.218 121.984 74.218 112.525C74.218 97.0897 67.8702 87.3548 65.881 84.5562C65.7579 84.429 65.5902 84.2365 65.4375 83.9313L65.4379 83.9319C65.4392 83.9346 65.4399 83.9359 65.4398 83.936C65.4397 83.936 65.4388 83.9348 65.4371 83.9324C65.4318 83.9247 65.418 83.9048 65.393 83.8748C65.3771 83.8558 65.3628 83.8399 65.3534 83.8298L65.3456 83.8215L65.3455 83.8213L65.345 83.8209L65.3448 83.8206L65.018 83.4939V83.2895C62.8129 80.1592 61.418 76.2454 61.418 72.0248C61.418 61.2993 70.125 52.5923 80.8505 52.5923H80.8642L80.878 52.5926C117.834 53.4916 145.14 52.018 163.195 50.3222C172.222 49.4744 178.937 48.5709 183.389 47.8807C185.616 47.5355 187.276 47.2437 188.378 47.0387C188.928 46.9363 189.339 46.8555 189.611 46.8007C189.747 46.7733 189.848 46.7523 189.914 46.7384L189.988 46.7228L189.994 46.7215ZM163.406 252.272C152.296 251.229 137.718 250.271 119.581 249.891C97.746 223.445 84.5814 189.459 84.5814 152.425C84.5814 115.402 97.6803 81.4596 119.613 54.9575C137.735 54.5778 152.303 53.6202 163.406 52.5773C172.479 51.7252 179.239 50.8162 183.736 50.1189C185.985 49.7703 187.668 49.4746 188.792 49.2655C189.354 49.161 189.776 49.078 190.059 49.0209C190.2 48.9924 190.307 48.9703 190.379 48.9552L190.461 48.9379L190.483 48.9333L190.489 48.932L190.49 48.9316C190.491 48.9315 190.491 48.9314 190.25 47.8248L190.491 48.9314L190.508 48.9277L190.525 48.9235C202.817 45.8504 219.522 43.8573 237.95 43.8573C256.385 43.8573 273.085 45.7516 285.367 48.9214L285.389 48.9268L285.41 48.9314L285.65 47.8248C285.41 48.9314 285.41 48.9315 285.411 48.9316L285.412 48.932L285.418 48.9333L285.44 48.9379L285.522 48.9552C285.594 48.9703 285.701 48.9924 285.842 49.0209C286.125 49.078 286.547 49.161 287.109 49.2655C288.233 49.4746 289.916 49.7703 292.164 50.1189C296.662 50.8162 303.422 51.7252 312.495 52.5773C323.525 53.6133 337.973 54.5651 355.929 54.9499C377.817 81.4115 391.018 115.44 391.018 152.525C391.018 189.503 377.95 223.409 356.066 249.897C338.046 250.28 323.553 251.234 312.495 252.272C303.422 253.124 296.662 254.033 292.164 254.731C289.916 255.079 288.233 255.375 287.109 255.584C286.547 255.689 286.125 255.772 285.842 255.829L285.71 255.855C285.632 255.871 285.57 255.884 285.522 255.894L285.44 255.912L285.418 255.916L285.412 255.918L285.411 255.918C285.411 255.918 285.41 255.918 285.416 255.943L285.435 256.031C285.461 256.153 285.516 256.406 285.63 256.931L285.41 255.918L285.393 255.922L285.376 255.926C273.084 258.999 256.378 260.992 237.95 260.992C219.516 260.992 202.816 259.098 190.533 255.928L190.512 255.923L190.491 255.918L190.25 257.025C190.491 255.918 190.491 255.918 190.49 255.918L190.489 255.918L190.483 255.916L190.461 255.912L190.379 255.894C190.307 255.879 190.2 255.857 190.059 255.829C189.776 255.772 189.354 255.689 188.792 255.584C187.668 255.375 185.985 255.079 183.736 254.731C179.239 254.033 172.479 253.124 163.406 252.272ZM80.8369 54.8573C93.9808 55.1768 105.91 55.197 116.641 55.0139C95.1231 81.684 82.3164 115.553 82.3164 152.425C82.3164 189.309 95.1869 223.219 116.612 249.835C105.888 249.653 93.9689 249.673 80.837 249.992C71.3686 249.985 63.683 242.295 63.683 232.825C63.683 228.965 64.9059 225.409 67.0492 222.614L67.283 222.309V222.194L67.3812 222.096L67.4314 221.995C67.463 221.963 67.5109 221.912 67.5598 221.851C67.6144 221.783 67.6654 221.709 67.7126 221.626C69.8307 218.65 76.483 208.448 76.483 192.325C76.483 182.934 76.6079 172.965 76.7328 165.343C76.7953 161.533 76.8578 158.309 76.9046 156.039C76.928 154.904 76.9475 154.006 76.9612 153.393C76.968 153.087 76.9734 152.851 76.9771 152.692L76.9812 152.512L76.9823 152.467L76.9826 152.455L76.9826 152.453L76.9826 152.452C76.9827 152.452 76.9827 152.452 75.8505 152.425L76.9827 152.452L76.9833 152.425L76.9827 152.398L75.8505 152.425C76.9827 152.398 76.9826 152.398 76.9826 152.398L76.9826 152.397L76.9826 152.394L76.9823 152.383L76.9812 152.337L76.9771 152.158C76.9734 152 76.968 151.765 76.9612 151.46C76.9475 150.85 76.928 149.956 76.9046 148.825C76.8578 146.562 76.7953 143.348 76.7328 139.544C76.6079 131.934 76.483 121.966 76.483 112.525C76.483 96.2973 69.7442 86.0676 67.672 83.1665L67.6175 83.0903L67.5513 83.024C67.498 82.9707 67.4904 82.9618 67.4848 82.9548L67.4847 82.9547C67.484 82.9538 67.4771 82.9457 67.4634 82.9183C67.4077 82.8069 67.3435 82.7055 67.283 82.6196V82.554L67.0637 82.2551C64.9952 79.4343 63.683 75.866 63.683 72.0248C63.683 62.5548 71.3686 54.8646 80.8369 54.8573ZM358.901 55.0077C380.378 81.6403 393.283 115.591 393.283 152.525C393.283 189.353 380.507 223.184 359.035 249.839C369.825 249.652 381.829 249.671 395.064 249.992C404.532 249.985 412.218 242.295 412.218 232.825C412.218 229.014 410.926 225.463 408.872 222.544C408.862 222.533 408.852 222.522 408.841 222.509C408.829 222.496 408.816 222.482 408.803 222.466L408.784 222.443L408.768 222.425C408.684 222.325 408.545 222.146 408.438 221.931C408.423 221.903 408.416 221.895 408.416 221.895C408.41 221.888 408.403 221.879 408.35 221.826L408.283 221.759L408.229 221.683C406.157 218.782 399.418 208.552 399.418 192.325C399.418 182.884 399.293 172.915 399.168 165.306C399.106 161.502 399.043 158.288 398.996 156.025C398.973 154.893 398.953 154 398.94 153.389C398.933 153.084 398.928 152.85 398.924 152.691L398.92 152.512L398.919 152.467L398.918 152.455L398.918 152.453V152.452L398.918 152.425L398.918 152.398L400.05 152.425C398.918 152.398 398.918 152.398 398.918 152.398V152.397L398.918 152.394L398.919 152.383L398.92 152.337L398.924 152.157C398.928 151.998 398.933 151.763 398.94 151.456C398.953 150.843 398.973 149.946 398.996 148.811C399.043 146.54 399.106 143.317 399.168 139.506C399.293 131.884 399.418 121.916 399.418 112.525C399.418 96.4018 406.07 86.1997 408.188 83.2235C408.236 83.1411 408.287 83.0668 408.341 82.9986C408.39 82.9375 408.438 82.8866 408.47 82.8543L408.52 82.7539L408.618 82.6557V82.5406L408.852 82.2357C410.995 79.4401 412.218 75.8841 412.218 72.0248C412.218 62.5548 404.532 54.8646 395.064 54.8573C381.774 55.1804 369.725 55.1974 358.901 55.0077ZM81.352 68.7573C80.2102 68.7573 79.2845 69.683 79.2845 70.8248C79.2845 71.9667 80.2102 72.8923 81.352 72.8923C82.4939 72.8923 83.4195 71.9667 83.4195 70.8248C83.4195 69.683 82.4939 68.7573 81.352 68.7573ZM77.0195 70.8248C77.0195 68.432 78.9593 66.4923 81.352 66.4923C83.7448 66.4923 85.6845 68.432 85.6845 70.8248C85.6845 73.2176 83.7448 75.1573 81.352 75.1573C78.9593 75.1573 77.0195 73.2176 77.0195 70.8248ZM393.382 234.325C393.382 233.183 394.308 232.257 395.45 232.257C396.592 232.257 397.517 233.183 397.517 234.325C397.517 235.467 396.592 236.392 395.45 236.392C394.308 236.392 393.382 235.467 393.382 234.325ZM395.45 229.992C393.057 229.992 391.117 231.932 391.117 234.325C391.117 236.718 393.057 238.657 395.45 238.657C397.842 238.657 399.782 236.718 399.782 234.325C399.782 231.932 397.842 229.992 395.45 229.992ZM237.75 69.0572C191.707 69.0572 154.382 106.382 154.382 152.425C154.382 198.467 191.707 235.792 237.75 235.792C283.792 235.792 321.117 198.467 321.117 152.425C321.117 106.382 283.792 69.0572 237.75 69.0572ZM152.117 152.425C152.117 105.131 190.456 66.7922 237.75 66.7922C285.043 66.7922 323.382 105.131 323.382 152.425C323.382 199.718 285.043 238.057 237.75 238.057C190.456 238.057 152.117 199.718 152.117 152.425ZM235.683 152.425C235.683 151.283 236.609 150.357 237.75 150.357C238.892 150.357 239.818 151.283 239.818 152.425C239.818 153.567 238.892 154.492 237.75 154.492C236.609 154.492 235.683 153.567 235.683 152.425ZM237.75 148.092C235.358 148.092 233.418 150.032 233.418 152.425C233.418 154.818 235.358 156.757 237.75 156.757C240.143 156.757 242.083 154.818 242.083 152.425C242.083 150.032 240.143 148.092 237.75 148.092ZM140.95 150.357C139.808 150.357 138.882 151.283 138.882 152.425C138.882 153.567 139.808 154.492 140.95 154.492C142.092 154.492 143.017 153.567 143.017 152.425C143.017 151.283 142.092 150.357 140.95 150.357ZM136.617 152.425C136.617 150.032 138.557 148.092 140.95 148.092C143.342 148.092 145.282 150.032 145.282 152.425C145.282 154.818 143.342 156.757 140.95 156.757C138.557 156.757 136.617 154.818 136.617 152.425ZM332.581 152.425C332.581 151.283 333.507 150.357 334.649 150.357C335.791 150.357 336.716 151.283 336.716 152.425C336.716 153.567 335.791 154.492 334.649 154.492C333.507 154.492 332.581 153.567 332.581 152.425ZM334.649 148.092C332.256 148.092 330.316 150.032 330.316 152.425C330.316 154.818 332.256 156.757 334.649 156.757C337.042 156.757 338.981 154.818 338.981 152.425C338.981 150.032 337.042 148.092 334.649 148.092Z" fill="#08B1C2"/>
<path d="M335.252 54.1247C335.252 54.1247 329.452 61.6247 302.752 61.6247C276.052 61.6247 268.752 53.9247 240.952 53.9247C213.152 53.9247 205.952 61.6247 179.152 61.6247C152.352 61.6247 146.652 54.1247 146.652 54.1247" stroke="#08B1C2" stroke-width="2.265" stroke-miterlimit="10" stroke-linecap="round"/>
<path d="M335.252 251.325C335.252 251.325 329.452 243.825 302.752 243.825C276.052 243.825 268.752 251.525 240.952 251.525C213.152 251.525 205.952 243.825 179.152 243.825C152.352 243.825 146.652 251.325 146.652 251.325" stroke="#08B1C2" stroke-width="2.265" stroke-miterlimit="10" stroke-linecap="round"/>
</svg>
