<svg width="320" height="200" viewBox="0 0 320 200" fill="none" xmlns="http://www.w3.org/2000/svg">
<path opacity="0.2" d="M179.757 23.0037C174.42 23.3046 165.15 25.3111 159.438 26.9162C156.068 27.9194 153.54 25.3111 152.603 24.7091C146.611 28.421 144.083 29.2236 142.865 30.3271C141.18 31.9322 139.869 32.6345 138.277 34.4403L137.528 35.4435C137.341 35.7445 136.967 36.1457 136.779 36.4467C136.592 36.848 136.124 37.1489 135.937 37.5502C135.843 37.7509 135.375 38.2525 135.281 38.4531C135.094 38.9547 134.532 38.8544 134.345 39.4563C133.689 41.3624 132.659 42.0647 131.536 43.7701C131.63 44.3721 130.506 45.6762 130.319 46.2782C130.038 47.482 128.446 50.3913 127.978 51.5952C125.543 58.3167 124.513 68.9507 124.139 69.051C123.671 69.653 122.36 66.242 124.794 55.909C124.888 55.608 124.326 53.6016 124.045 53.401C124.045 53.401 122.828 53.3006 122.734 53.3006C122.36 53.3006 121.611 56.3103 121.236 56.3103C121.143 56.3103 121.236 68.9507 121.236 68.9507C121.143 68.9507 118.989 69.8536 118.802 69.8536C117.678 70.0542 120.394 54.9058 119.364 55.1064C119.176 55.1064 119.551 51.3945 119.364 51.3945C119.27 51.3945 118.053 50.8929 118.053 50.9933C118.053 51.1939 117.585 51.8961 116.648 51.4949C116.461 52.799 115.431 53.401 114.307 54.0029C114.307 54.2035 114.027 54.3038 113.933 54.6048C113.652 55.5077 113.465 56.4106 112.997 57.2131C112.997 57.6144 112.528 58.0157 112.435 58.417C112.341 58.6176 112.341 58.718 112.248 58.9186C112.154 59.6209 111.967 60.2228 111.779 60.925V61.1257C111.779 61.226 112.06 61.4266 111.967 61.527C112.06 62.9315 111.967 64.1353 111.405 65.5398C111.405 65.6401 111.311 65.7404 111.311 65.8408C111.311 66.3424 111.218 66.844 111.03 67.2452C111.218 68.2485 111.218 69.1514 110.843 70.0543C110.843 70.3552 111.03 70.8568 110.937 71.1578C110.937 71.2581 110.843 71.7597 110.843 71.86C110.843 72.7629 110.656 73.1642 110.656 74.0671V74.8697C110.656 75.2709 110.749 75.6722 110.843 76.0735C111.218 78.2806 111.311 80.287 111.311 82.4941C111.311 82.795 111.405 82.9956 111.498 83.2966C111.498 83.2966 111.873 84.0992 111.873 84.1995C112.248 84.5005 112.06 84.1995 112.435 84.6008C112.716 82.2934 113.277 80.0864 114.027 77.9796C114.869 75.5719 115.899 72.5623 117.959 70.8568C119.364 69.653 121.049 69.1514 122.641 69.4523C124.888 69.1514 126.948 69.7533 127.603 71.86L128.633 72.6626C128.727 72.7629 128.914 72.9635 129.008 73.1642C129.101 73.3648 129.476 73.4651 129.57 73.6658C130.131 74.368 130.412 75.2709 130.974 75.9732C132.566 77.9796 133.315 79.0831 134.064 81.5912C134.158 81.8921 134.532 83.7982 134.626 84.1995C135.656 86.3062 135.562 88.2124 135.843 90.5197C136.03 91.8239 136.124 93.1281 136.03 94.4323C136.592 96.1377 137.06 97.9435 137.06 99.8496C137.06 101.756 137.435 104.063 137.247 106.07C136.779 110.283 135.468 114.195 134.158 118.309C133.409 120.616 133.315 122.622 131.817 124.428C131.349 124.93 131.255 126.134 130.787 126.635C130.6 127.037 129.851 127.538 129.476 127.939C128.54 129.143 126.48 131.15 125.169 131.551C122.922 133.557 118.24 132.053 116.836 129.444C114.776 125.532 113.277 122.221 112.716 118.008C112.622 118.108 112.154 117.707 112.06 117.807C111.03 119.011 110.281 126.736 110.937 135.464C111.03 136.868 111.873 141.984 114.682 147.101C114.869 147.402 116.274 150.01 118.053 149.408C120.674 148.405 118.146 132.956 118.708 131.952C118.802 131.651 121.424 131.952 121.143 133.658C120.3 138.373 120.581 143.088 121.424 145.997C121.985 148.004 123.39 147 123.39 146.599C122.734 140.279 123.203 133.758 123.203 132.956C123.109 133.056 124.794 132.354 125.075 132.153C125.637 160.845 147.828 175.291 153.446 176.896C154.85 175.993 159.438 173.987 161.967 174.789C166.555 176.294 175.824 177.799 181.068 177.899C222.453 178.401 258.034 145.596 258.034 100.552C258.034 69.653 242.959 44.4724 216.742 30.6281C205.319 24.2075 191.367 22.4017 179.757 23.0037Z" fill="url(#paint0_radial_6249_32334)"/>
<path d="M278.539 139.075C276.573 137.871 274.701 136.768 272.922 135.765C270.487 134.46 268.146 133.959 266.461 134.561C265.618 134.862 265.056 135.363 264.775 135.965C249.513 170.275 215.805 192.546 178.82 192.546C154.101 192.546 130.225 182.715 112.809 165.359C112.528 165.761 112.247 166.061 111.779 166.061C119.832 174.087 129.195 180.608 139.682 185.323C152.041 190.941 165.244 193.75 178.82 193.75C197.734 193.75 215.899 188.132 231.536 177.699C246.611 167.466 258.596 153.22 265.993 136.467C266.086 136.166 266.367 135.965 266.835 135.865C267.304 135.664 269.176 135.263 272.266 136.968C274.045 137.972 275.824 139.075 277.79 140.279C285 144.693 293.053 149.609 302.135 151.114L302.322 149.81C293.614 148.204 285.562 143.389 278.539 139.075Z" fill="#383F51"/>
<path d="M282.847 112.49H281.536C279.382 112.49 277.603 111.888 276.386 110.584C273.483 107.675 273.483 102.257 273.483 99.9498C273.483 87.3094 270.955 74.9699 266.086 63.433C261.311 52.2974 254.476 42.2652 245.768 33.6376C237.06 25.01 226.948 18.2885 215.712 13.5734C204.008 8.65769 191.648 6.25 178.914 6.25C165.057 6.25 151.667 9.15932 139.12 14.8776C136.873 15.8808 134.719 17.0847 132.566 18.2885C132.753 18.6898 132.847 19.1914 132.94 19.5927C146.798 11.7676 162.622 7.55416 178.914 7.55416C230.319 7.55416 272.173 48.9868 272.173 99.9498C272.173 102.458 272.173 108.276 275.45 111.587C277.041 113.192 279.101 113.894 281.629 113.894H282.94C290.056 113.894 302.041 113.794 309.532 116.402L310 115.098C302.229 112.39 290.056 112.49 282.847 112.49Z" fill="#383F51"/>
<path d="M178.258 186.527C166.273 186.527 154.569 184.119 143.708 179.404C133.127 174.89 123.764 168.369 115.711 160.142L116.367 159.541C132.659 176.394 154.663 185.624 178.258 185.624C211.311 185.624 240.899 167.265 255.412 137.871C255.693 137.269 255.973 136.667 256.254 136.166C258.876 130.648 260.561 130.849 266.835 131.651L267.584 131.752L267.49 132.654L266.741 132.554C260.468 131.752 259.344 131.651 257.097 136.567C256.816 137.169 256.535 137.771 256.254 138.373C249.232 152.618 238.37 164.657 224.794 173.284C210.936 181.812 194.831 186.527 178.258 186.527Z" fill="#383F51"/>
<path d="M267.21 99.6489C266.929 76.7757 257.472 55.4073 240.524 39.356C232.378 31.5309 222.828 25.5117 212.341 21.1979C201.479 16.7837 190.056 14.5767 178.352 14.5767C152.041 14.5767 130.037 26.8158 119.27 37.3495C119.176 37.3495 119.082 37.5502 118.895 37.6505C119.082 37.8511 119.27 38.1521 119.27 38.4531C119.55 38.2524 119.831 38.0518 119.831 37.9515C130.505 27.5181 152.228 15.3792 178.258 15.3792C226.198 15.3792 265.618 53.0999 266.18 99.5486C266.273 107.875 269.176 112.691 275.824 115.6L276.198 114.797C270.019 112.089 267.303 107.574 267.21 99.6489Z" fill="#383F51"/>
<path d="M183.222 178.802C181.349 178.802 179.383 178.702 177.51 178.602C172.267 178.2 167.117 177.197 162.154 175.793C161.686 175.592 160.375 175.592 159.345 175.692C158.034 175.793 155.787 176.696 154.289 177.598L153.54 176.495C155.038 175.492 157.473 174.488 159.252 174.288C160.282 174.188 161.78 174.188 162.622 174.388C167.491 175.893 172.547 176.796 177.697 177.197C218.615 180.307 254.57 148.305 257.941 105.769C259.532 85.1024 253.353 65.1386 240.525 49.4885C227.697 33.8384 209.72 24.4082 189.87 22.8031C180.6 22.1008 171.33 23.104 162.529 26.0133C160.562 26.6153 158.503 26.9162 157.473 26.8159C155.787 26.7156 153.727 25.7124 152.697 24.5085L153.821 23.706C154.476 24.5085 156.068 25.4114 157.566 25.5117C158.503 25.5117 160.375 25.3111 162.154 24.7092C171.143 21.7999 180.6 20.6963 190.057 21.4989C210.282 23.104 228.54 32.6345 241.649 48.5856C254.757 64.5366 261.031 84.8015 259.439 105.769C257.847 126.736 248.39 145.897 232.941 159.541C218.708 172.181 201.386 178.802 183.222 178.802Z" fill="#383F51"/>
<path d="M308.315 119.512C301.573 116.804 293.427 116.703 286.873 116.603C281.442 116.503 277.135 116.503 274.888 115.098L275.356 114.296C277.322 115.5 281.817 115.6 286.873 115.6C293.521 115.7 301.854 115.801 308.689 118.509L308.315 119.512Z" fill="#383F51"/>
<path d="M302.79 147.201C296.704 146.399 290.243 142.887 283.97 139.476C277.79 136.065 271.891 132.855 266.554 132.354L266.648 131.451C272.172 131.952 278.071 135.263 284.438 138.674C290.618 142.085 296.985 145.496 302.884 146.198L302.79 147.201Z" fill="#383F51"/>
<path d="M91.8349 99.1474C92.4904 73.7661 98.1083 60.1225 103.726 50.291C103.258 50.6923 102.696 50.9933 102.135 51.2942C96.7038 61.1257 91.554 74.7694 90.8986 99.1474C90.6177 120.616 94.4566 136.366 103.539 150.211H104.756C95.7675 136.467 91.554 120.415 91.8349 99.1474Z" fill="#383F51"/>
<path d="M185.936 183.517C174.045 183.517 159.157 181.511 146.704 173.786C138.839 168.87 131.91 160.243 128.071 150.712C125.356 143.389 124.701 138.674 124.232 130.849H125.169C125.637 138.573 126.292 143.289 129.008 150.512C132.659 159.741 139.682 168.369 147.266 173.084C169.832 187.129 200.543 181.912 206.442 180.809L206.629 181.712C203.82 182.213 195.955 183.517 185.936 183.517Z" fill="#383F51"/>
<path d="M119.925 164.155C111.498 156.731 110.281 152.217 108.689 146.599C108.596 146.198 108.502 145.796 108.408 145.496C106.723 138.874 106.255 129.344 107.191 118.609C107.285 117.305 108.408 116.302 109.719 116.402L112.716 116.603L112.622 117.105C109.813 128.24 111.686 140.58 115.15 146.198C115.993 147.602 116.929 148.405 117.772 148.605C117.959 148.605 118.053 148.605 118.146 148.505C118.989 147.903 118.802 144.492 118.802 142.687V141.884C118.708 138.373 117.959 130.748 117.959 130.648L117.865 129.645L118.708 130.247C119.738 131.049 120.674 131.451 121.611 131.651L121.985 131.752V132.153C121.985 132.153 121.423 137.871 121.704 143.088C121.798 144.894 122.453 145.796 122.828 145.997C122.921 146.097 123.015 145.997 123.015 145.997C123.296 145.796 123.577 144.994 123.39 143.188C122.453 135.463 123.296 131.852 123.39 131.651L124.326 131.852C124.326 131.852 123.483 135.463 124.42 142.987C124.607 144.793 124.42 146.097 123.671 146.599C123.296 146.9 122.921 146.9 122.453 146.699C121.517 146.298 120.955 144.894 120.862 142.987C120.581 138.473 120.955 133.658 121.142 132.253C120.487 132.053 119.832 131.752 119.083 131.35C119.27 133.557 119.738 138.874 119.832 141.683V142.486C119.925 145.596 119.925 148.204 118.802 149.007C118.521 149.308 118.053 149.308 117.678 149.308C116.554 149.007 115.524 148.104 114.495 146.499C111.03 140.881 109.064 128.441 111.779 117.305L110 117.205C109.157 117.205 108.502 117.707 108.408 118.509C107.472 129.143 107.94 138.674 109.626 145.094C109.719 145.496 109.813 145.897 109.907 146.198C111.498 151.715 112.715 156.029 120.862 163.353L119.925 164.155Z" fill="#383F51"/>
<path d="M124.888 69.7531H123.952C124.42 61.9281 125.075 57.1127 127.791 49.8896C131.63 40.3591 138.558 31.7315 146.424 26.8157C169.27 12.5701 200.262 17.7868 206.255 18.9907L206.068 19.8936C200.169 18.6897 169.457 13.473 146.892 27.6183C139.307 32.3334 132.285 40.961 128.633 50.1905C126.012 57.3133 125.356 62.0284 124.888 69.7531Z" fill="#383F51"/>
<path d="M109.251 84.3C108.034 84.3 106.91 83.3971 106.817 82.0929C105.88 71.2582 106.348 61.7277 108.034 55.2069L108.128 54.7052C109.813 48.7863 111.217 44.3722 119.925 36.6475L120.955 36.9484C112.435 44.4725 110.749 48.8866 109.064 54.9059L108.97 55.4075C107.285 61.8281 106.817 71.2582 107.753 81.9926C107.847 82.7951 108.502 83.3971 109.345 83.2967L111.217 83.1964C109.532 70.0544 111.03 57.5143 114.963 52.4982C115.993 51.194 117.023 50.5921 118.24 50.3915C118.708 50.3915 119.176 50.4918 119.457 50.7927C120.3 51.5953 120.113 53.4011 119.925 55.6081C119.925 56.3104 119.832 57.0126 119.832 57.7149C119.738 60.0223 119.457 63.3328 119.176 65.6402C118.989 67.446 118.895 68.5496 118.802 69.3521C119.363 68.9508 120.113 68.6499 120.768 68.4492C120.768 67.1451 120.581 62.6306 120.674 58.0159C120.768 54.9059 121.517 52.8995 122.734 52.2975C123.202 52.0969 123.764 52.1972 124.232 52.5985C125.075 53.4011 125.262 54.9059 124.701 56.7117C122.547 63.6338 123.764 68.8505 123.764 68.8505L122.828 69.0512C122.828 68.8505 121.517 63.6338 123.764 56.4107C124.232 54.9059 123.951 53.702 123.577 53.3008C123.39 53.1001 123.202 53.2004 123.109 53.2004C122.453 53.5014 121.704 54.9059 121.611 58.0159C121.423 63.3329 121.704 68.6499 121.704 68.6499V69.0512L121.33 69.1515C120.3 69.3521 119.27 69.9541 118.521 70.556C118.427 70.6563 118.333 70.6563 118.24 70.7566L117.959 70.8569L117.491 70.255L117.772 70.0544C118.053 68.9509 118.708 61.7277 118.895 57.6146C118.895 56.9123 118.989 56.1098 118.989 55.5078C119.083 53.7021 119.27 51.8963 118.802 51.3947C118.708 51.2943 118.614 51.2943 118.333 51.2943C117.397 51.3947 116.554 51.9966 115.712 52.9998C112.435 57.113 110.187 68.9508 112.154 83.4974L112.247 83.999L109.345 84.1996C109.345 84.2999 109.251 84.3 109.251 84.3Z" fill="#383F51"/>
<path d="M107.379 117.606C107.379 117.506 105.132 110.182 105.319 99.2475C105.413 90.2186 107.005 82.6946 107.005 82.5942L107.941 82.7949C107.941 82.8952 106.349 90.3189 106.349 99.2475C106.162 109.982 108.409 117.305 108.409 117.305L107.379 117.606Z" fill="#383F51"/>
<g opacity="0.5">
<path d="M209.719 32.0327L209.625 32.5343C212.341 32.8353 215.992 40.56 216.18 42.2655C216.273 42.9677 216.086 43.369 215.992 43.7703C215.805 44.3722 215.524 44.8738 216.18 45.9774C217.21 47.6828 223.858 53.7021 227.041 55.0063C230.318 56.3104 232.004 57.113 233.221 60.2229C233.876 61.8281 233.876 64.3361 233.876 67.0448C233.876 69.4525 233.876 71.9605 234.438 73.9669C235.187 76.8762 236.592 79.6852 237.247 80.9894C236.404 80.2871 235.655 79.5849 234.813 78.8826C233.408 77.6788 232.097 76.6756 231.629 75.9733C230.974 75.0705 230.693 71.9605 230.318 68.6499C229.85 64.2358 229.288 59.1194 227.79 57.5143C226.105 55.7085 219.738 53.2005 214.588 51.194C211.873 50.0905 209.532 49.1876 208.595 48.5857C207.565 47.9838 206.442 46.2783 205.318 44.5728C203.258 41.5632 201.011 38.052 198.202 38.1523V38.6539C200.73 38.5536 202.884 41.8642 204.85 44.7735C206.161 46.6796 207.285 48.3851 208.315 48.987C209.344 49.5889 211.685 50.4918 214.401 51.5953C219.457 53.6017 225.73 56.1098 227.416 57.8152C227.977 58.4172 228.446 59.621 228.726 61.0255C228.165 60.0223 227.416 58.9188 226.292 58.1162C224.419 56.6114 220.019 55.4075 217.678 54.8056C217.303 54.7053 216.929 54.605 216.648 54.5047C215.899 54.304 215.431 54.5046 214.962 54.8056C214.494 55.1066 213.932 55.5078 212.528 55.2069C211.03 54.9059 210.468 54.1033 209.813 53.2005C209.344 52.5985 208.97 51.9966 208.221 51.5953C206.442 50.4918 204.569 51.194 203.539 51.5953H203.446C202.79 51.8963 202.79 52.4982 202.884 52.8995C202.884 53.3008 202.884 53.6017 202.697 53.8024C202.416 54.003 201.854 53.6017 201.386 53.2005C200.543 52.6989 199.7 51.9966 198.858 52.3979L199.045 52.8995C199.607 52.5985 200.356 53.2005 201.105 53.6017C201.854 54.1033 202.509 54.605 203.071 54.2037C203.633 53.9027 203.539 53.3008 203.539 52.7992C203.539 52.2976 203.539 52.0969 203.726 51.9966H203.82C204.756 51.5953 206.442 50.9934 207.94 51.9966C208.595 52.3979 208.97 52.8995 209.438 53.5014C210.094 54.4043 210.843 55.4075 212.528 55.7085C214.026 56.0094 214.775 55.5078 215.337 55.2069C215.712 54.9059 215.992 54.8056 216.554 54.9059C216.741 55.0062 217.116 55.1066 217.584 55.2069C219.738 55.8088 224.232 57.0127 226.011 58.4172C227.977 60.0223 229.101 62.731 229.195 63.0319C229.476 64.7374 229.663 66.7438 229.85 68.5496C230.225 72.0608 230.599 75.0705 231.255 76.0737C231.816 76.7759 233.034 77.8795 234.532 79.0833C237.341 81.491 241.273 84.8016 241.086 87.0087C240.992 88.2125 240.711 89.4164 240.431 90.8208C239.869 93.5295 239.213 96.5391 239.869 99.8497C241.18 106.672 242.491 108.979 244.082 110.283C245.674 111.587 247.64 112.29 247.734 112.29L247.921 111.788C247.921 111.788 245.955 111.086 244.457 109.882C242.959 108.578 241.648 106.371 240.431 99.7494C239.869 96.5391 240.431 93.5295 240.992 90.9212C241.273 89.5167 241.554 88.3128 241.648 87.0087C241.741 85.3032 240.056 83.2968 237.996 81.3907L238.183 81.2903C238.183 81.2903 236.03 77.4782 235 73.5656C234.532 71.6595 234.532 69.1515 234.532 66.8441C234.532 64.1355 234.532 61.6274 233.876 59.8217C232.565 56.6114 230.693 55.7085 227.416 54.4043C224.326 53.1001 217.771 47.2815 216.741 45.5761C216.273 44.7735 216.367 44.3722 216.648 43.8706C216.835 43.4693 217.022 42.8674 216.929 42.0648C216.461 40.3594 212.715 32.434 209.719 32.0327Z" fill="url(#paint1_linear_6249_32334)"/>
<path d="M222.172 94.7332C223.109 95.6361 224.7 95.5358 226.479 95.3352C228.165 95.1345 230.131 95.0342 231.816 95.7365C235 97.2413 237.434 104.063 237.434 104.163L237.902 103.963C237.809 103.662 235.374 96.9403 232.004 95.2348C230.318 94.4323 228.258 94.6329 226.386 94.7332C224.7 94.9339 223.202 95.0342 222.453 94.2316C221.704 93.4291 220.955 90.6201 220.393 88.1121C219.738 85.2028 219.176 82.6947 218.333 82.0928C217.584 81.4909 216.741 81.3905 216.086 81.2902C215.337 81.1899 214.775 81.0896 214.401 80.4877C214.213 80.1867 214.307 78.3809 214.401 76.5752C214.682 71.4588 215.15 63.7341 211.311 61.0254C208.221 58.8183 205.974 59.5206 204.007 60.2228C202.416 60.7244 201.011 61.226 199.326 60.2228C198.015 59.4202 197.547 58.1161 197.079 56.6112C196.142 53.6016 194.925 49.9901 187.247 47.5824C185.468 47.0808 183.595 47.2814 181.816 47.5824C179.476 47.9836 177.135 48.2846 175.075 46.8801L174.794 47.2814C177.041 48.7862 179.569 48.3849 181.91 48.084C183.689 47.783 185.468 47.5824 187.153 48.084C194.644 50.3913 195.768 53.9026 196.704 56.8119C197.266 58.417 197.734 59.9218 199.232 60.7244C201.105 61.8279 202.697 61.226 204.288 60.7244C206.255 60.1225 208.221 59.4203 211.124 61.4267C214.775 64.035 214.307 71.8601 214.026 76.5752C213.932 78.3809 213.839 79.4844 213.932 80.1867C213.183 79.8857 212.153 79.6851 211.03 79.4845C208.97 79.1835 206.723 78.7822 205.412 77.5784C204.756 76.9764 204.569 76.1739 204.195 75.0703C203.446 72.462 202.416 68.8504 195.019 66.0414C192.491 65.5398 190.618 66.1418 189.588 66.7437C189.12 67.0446 188.839 67.5463 188.652 68.0479C188.371 68.6498 188.09 69.352 187.247 69.8536C185.843 70.7565 177.977 71.1578 176.479 70.8568C176.386 70.8568 176.292 70.7565 176.292 70.7565C176.292 70.6562 176.386 70.3552 176.479 70.1546C176.76 69.352 177.322 67.9475 176.105 66.3424L175.637 66.6434C176.667 68.0478 176.292 69.2517 176.011 70.0543C175.824 70.4556 175.73 70.8568 175.918 71.1578C176.011 71.3584 176.198 71.4588 176.479 71.4588C177.977 71.7597 186.03 71.4588 187.622 70.3552C188.558 69.7533 188.933 68.9507 189.213 68.3488C189.401 67.8472 189.588 67.4459 189.962 67.2453C190.899 66.7437 192.584 66.1417 194.925 66.6434C202.041 69.352 203.071 72.8633 203.82 75.271C204.101 76.3745 204.476 77.3777 205.131 77.9796C206.535 79.2838 208.876 79.6851 211.03 79.9861C212.434 80.1867 213.745 80.4877 214.307 80.889C214.869 81.5912 215.618 81.6915 216.273 81.8922C216.929 81.9925 217.584 82.0928 218.24 82.5944C218.989 83.096 219.55 85.905 220.112 88.3127C220.674 91.222 221.329 93.9307 222.172 94.7332Z" fill="url(#paint2_linear_6249_32334)"/>
<path d="M169.269 94.031C170.018 93.3287 170.58 92.8271 172.172 93.1281C173.296 93.3287 174.794 93.9306 176.386 94.5326C179.288 95.6361 182.284 96.8399 183.689 96.238C184.344 95.937 184.812 95.5358 185.281 95.2348C186.217 94.4322 187.247 93.5293 190.243 94.031C192.678 94.4322 194.55 95.6361 196.048 96.6393C197.359 97.5422 198.483 98.3447 199.606 98.2444C200.449 98.1441 201.105 97.7428 201.666 97.2412C202.696 96.4386 203.726 95.5358 206.442 96.7396C208.502 97.5422 209.063 98.8463 209.438 99.7492C209.906 100.752 210.281 101.655 212.247 101.354C214.307 101.053 215.711 99.7492 217.022 98.4451C217.959 97.5422 218.988 96.539 220.206 95.937L220.018 95.4354C218.614 96.0374 217.678 97.0406 216.648 98.0438C215.337 99.348 214.12 100.552 212.153 100.853C210.562 101.154 210.374 100.552 209.906 99.5486C209.438 98.5454 208.876 97.2412 206.629 96.238C203.633 95.0341 202.415 95.937 201.292 96.8399C200.73 97.3415 200.262 97.6425 199.513 97.7428C198.577 97.8431 197.64 97.1409 196.329 96.238C194.738 95.2348 192.865 93.9306 190.337 93.5293C187.06 93.0277 185.936 94.0309 184.906 94.8335C184.438 95.2348 184.063 95.6361 183.408 95.8367C182.191 96.3383 179.194 95.1345 176.573 94.1313C174.981 93.5294 173.389 92.9274 172.266 92.6265C170.393 92.2252 169.644 92.9274 168.895 93.6297C168.427 94.1313 167.865 94.6329 166.835 94.8335L166.929 95.3351C168.146 95.0342 168.708 94.5326 169.269 94.031Z" fill="url(#paint3_linear_6249_32334)"/>
<path d="M241.742 91.3223C240.899 93.128 240.431 97.6425 240.993 100.351C241.461 102.96 242.585 107.675 244.551 109.48C245.674 110.484 247.922 111.487 248.015 111.487L248.203 110.985C248.203 110.985 245.955 109.982 244.925 109.079C242.959 107.273 241.929 102.257 241.555 100.251C240.993 97.3415 241.555 93.0277 242.304 91.5229C243.146 89.8175 244.364 89.3158 244.925 89.2155C246.798 89.0149 248.483 92.0245 248.483 92.0245L248.952 91.8239C248.858 91.7236 247.079 88.413 244.832 88.7139C243.895 88.8142 242.585 89.6168 241.742 91.3223Z" fill="url(#paint4_linear_6249_32334)"/>
<path d="M209.344 90.0181C209.719 89.1152 210.093 88.2124 210.936 87.6104C211.966 86.9082 214.494 85.4034 216.835 87.4098C217.771 88.2123 218.52 90.2188 219.176 92.1249C219.831 94.031 220.58 95.8367 221.423 96.3383C222.359 96.9403 223.951 96.8399 225.824 96.7396C227.509 96.6393 229.194 96.539 230.599 96.9403C233.408 97.7428 236.685 104.565 236.685 104.665L237.153 104.464C237.059 104.163 233.782 97.3416 230.692 96.4387C229.194 96.0374 227.415 96.1377 225.73 96.238C224.045 96.3383 222.453 96.4387 221.704 95.9371C220.955 95.4355 220.299 93.6297 219.644 91.9242C218.895 89.9178 218.146 87.9114 217.116 87.0085C215.337 85.5037 212.902 85.5037 210.561 87.2091C209.625 87.9114 209.157 88.9146 208.782 89.9178C208.408 90.8207 208.033 91.7236 207.191 92.1249C205.505 92.9274 203.539 92.3255 202.79 91.222C202.603 90.921 202.415 90.62 202.228 90.3191C201.666 89.3159 201.104 88.413 199.794 87.2091C198.108 85.604 190.992 82.6947 187.528 82.0928C185.561 81.7918 184.625 82.2934 183.689 82.8953C182.94 83.3969 182.191 83.7982 180.786 83.8985V84.4001C182.378 84.2998 183.221 83.6979 183.97 83.2966C184.906 82.795 185.655 82.2934 187.434 82.494C190.805 82.9957 197.734 85.905 199.325 87.4098C200.543 88.5133 201.104 89.5165 201.666 90.4194C201.854 90.7204 202.041 91.0213 202.228 91.3223C203.071 92.6265 205.318 93.3287 207.284 92.4258C208.501 92.0245 208.876 91.0213 209.344 90.0181Z" fill="url(#paint5_linear_6249_32334)"/>
</g>
<g opacity="0.5">
<path d="M239.681 112.59C238.277 112.791 237.153 114.396 236.03 116.001C235.187 117.305 234.063 119.111 233.127 120.817C232.284 122.321 231.535 123.626 231.161 124.127C231.067 124.228 230.88 124.428 230.693 124.529C229.382 125.331 226.292 125.933 223.857 125.732C222.453 125.632 221.329 125.732 220.487 125.833C219.55 125.933 218.895 126.033 218.239 125.833C217.771 125.632 217.678 125.331 217.584 124.729C217.49 124.228 217.397 123.525 216.554 123.124C215.805 122.823 214.962 122.923 214.213 123.124C213.464 123.224 212.715 123.325 212.247 123.024C211.779 122.723 211.685 122.321 211.498 121.92C211.311 121.419 211.123 120.917 210.468 120.516C209.906 120.114 209.063 120.616 208.127 121.318C206.723 122.321 204.756 123.626 202.322 123.124C199.7 122.522 199.794 121.72 199.981 120.616C200.075 120.114 200.168 119.412 199.887 118.81C199.513 117.707 197.172 116.804 194.738 115.801C192.865 114.998 190.899 114.195 190.337 113.493C189.775 112.691 189.588 111.988 189.494 111.386C189.4 110.684 189.307 110.082 188.651 109.681C187.902 109.079 186.966 109.38 186.03 109.681C185.468 109.882 184.906 109.982 184.719 109.882L184.438 110.283C184.906 110.484 185.468 110.283 186.123 110.082C186.872 109.882 187.715 109.581 188.277 109.982C188.745 110.383 188.839 110.785 188.932 111.386C189.026 111.988 189.213 112.791 189.869 113.694C190.524 114.496 192.397 115.299 194.457 116.102C196.61 117.004 199.045 118.008 199.326 118.81C199.513 119.312 199.419 119.813 199.326 120.415C199.138 121.619 198.951 122.823 202.041 123.525C204.756 124.127 206.816 122.723 208.314 121.72C209.157 121.218 209.812 120.716 210.093 120.917C210.655 121.218 210.749 121.72 210.936 122.121C211.123 122.522 211.311 123.024 211.872 123.425C212.528 123.927 213.37 123.726 214.213 123.626C214.962 123.525 215.711 123.425 216.273 123.626C216.835 123.826 216.929 124.228 217.022 124.829C217.116 125.331 217.209 125.933 217.958 126.334C218.708 126.635 219.457 126.535 220.487 126.435C221.329 126.334 222.359 126.234 223.764 126.334C225.262 126.435 227.134 126.234 228.726 125.833C226.854 126.936 223.951 128.441 221.142 128.642C218.801 128.842 217.958 128.341 216.648 127.739C215.43 127.137 213.932 126.435 210.655 125.833C205.88 125.03 201.573 127.037 199.232 128.441C198.764 128.341 195.674 127.337 194.738 124.93L194.269 123.726C193.427 121.419 192.678 119.312 192.116 118.309C191.367 116.904 188.932 115.801 187.528 115.6C186.685 115.5 186.123 115.901 185.655 116.302C185.187 116.603 184.812 117.004 184.063 116.904C183.502 116.904 182.846 116.001 182.191 114.998C181.254 113.594 180.037 111.788 178.071 111.086C175.73 110.283 174.606 111.085 173.67 111.888C173.202 112.289 172.734 112.59 172.172 112.791L172.266 113.293C172.921 113.092 173.483 112.691 173.951 112.289C174.887 111.587 175.73 110.885 177.79 111.587C179.569 112.289 180.786 113.894 181.629 115.299C182.378 116.503 183.033 117.406 183.876 117.406C184.812 117.506 185.374 117.004 185.842 116.703C186.311 116.302 186.685 116.001 187.341 116.202C188.932 116.503 190.992 117.606 191.554 118.71C192.116 119.713 192.865 121.82 193.614 124.127L194.082 125.331C194.925 127.638 197.359 128.642 198.483 129.043C197.827 129.444 197.359 129.846 197.359 129.846C197.359 129.846 192.958 134.561 189.681 136.667C186.311 138.774 183.595 138.774 182.659 137.57C182.097 136.968 182.097 135.764 182.003 134.36C182.003 133.056 181.91 131.551 181.442 130.247C180.693 128.24 177.884 126.836 176.947 126.435C175.73 125.833 173.951 125.331 173.202 125.632C171.704 126.134 171.236 128.341 171.236 128.441L171.704 128.541C171.704 128.541 172.172 126.535 173.296 126.033C173.764 125.833 175.075 126.134 176.666 126.836C178.352 127.638 180.318 128.943 180.88 130.347C181.348 131.551 181.348 132.955 181.442 134.26C181.535 135.764 181.535 137.069 182.191 137.771C183.314 139.075 186.217 139.276 189.962 136.968C193.239 134.862 197.453 130.347 197.734 130.046C198.015 129.745 203.914 125.331 210.374 126.435C213.651 126.936 215.056 127.739 216.179 128.341C216.46 128.441 216.741 128.642 216.929 128.742C215.337 129.344 214.4 129.244 213.651 129.244C212.528 129.143 211.966 129.244 211.03 130.648C209.812 132.554 209.625 136.266 209.438 138.674C209.344 139.677 209.344 140.48 209.251 140.881C208.876 142.486 208.221 143.188 206.816 143.59C205.693 143.89 205.318 143.59 204.756 143.188C204.569 143.088 204.382 142.887 204.194 142.787C203.914 142.586 203.726 142.185 203.445 141.784C202.884 140.881 202.135 139.577 200.262 139.677C198.67 139.777 198.108 140.781 197.547 141.884C197.172 142.586 196.797 143.289 196.048 143.89C194.176 145.295 188.745 146.9 185.842 147.201C182.565 147.502 176.385 146.9 176.011 146.398C175.917 146.198 176.292 145.295 176.666 144.693C177.228 143.389 178.071 141.884 177.79 140.781C177.79 140.58 177.696 140.48 177.696 140.279C177.415 138.874 177.228 138.774 175.824 138.874C174.794 138.975 174.7 139.677 174.606 140.279C174.513 140.68 174.513 141.081 174.138 141.382C173.483 141.884 170.955 141.683 170.018 141.683L169.925 142.185C170.299 142.185 173.483 142.586 174.419 141.884C174.887 141.483 174.981 140.981 175.075 140.48C175.168 139.878 175.262 139.476 175.824 139.476H176.76C176.854 139.577 176.947 139.878 177.135 140.48C177.135 140.68 177.228 140.781 177.228 140.981C177.415 141.884 176.76 143.389 176.198 144.593C175.636 145.696 175.356 146.298 175.543 146.699C175.917 147.803 183.408 148.104 185.936 147.903C189.026 147.602 194.457 145.997 196.423 144.492C197.266 143.89 197.734 143.088 198.108 142.386C198.67 141.382 199.045 140.58 200.449 140.48C201.947 140.379 202.509 141.382 203.164 142.285C203.445 142.787 203.726 143.188 204.101 143.389C204.288 143.489 204.475 143.69 204.663 143.79C205.318 144.292 205.786 144.693 207.191 144.292C208.782 143.79 209.625 142.887 210 141.182C210.093 140.881 210.093 140.379 210.187 139.677C210.468 140.078 210.468 140.48 210.468 140.981C210.468 141.483 210.468 141.984 210.842 142.486C211.498 143.289 212.434 142.787 213.183 142.486C213.464 142.285 213.839 142.185 214.026 142.185C214.213 142.185 214.307 142.285 214.4 142.386C214.588 142.687 214.681 143.188 214.588 143.89C214.494 144.693 213.277 145.797 212.528 146.499C212.247 146.8 212.06 147 211.872 147.101C211.685 147.402 211.685 147.803 211.685 148.104C211.685 148.505 211.779 148.907 211.498 149.408C211.311 149.609 211.123 149.809 210.749 149.809C210.187 149.91 209.438 149.609 209.251 149.408C209.157 149.308 209.157 149.107 209.157 148.907C209.157 148.606 209.157 148.204 208.876 147.803C208.408 147.301 207.659 147.101 206.535 147.201C205.88 147.301 205.88 147.803 205.88 148.305C205.88 148.806 205.88 149.408 205.131 149.709C204.569 149.91 204.101 149.609 203.445 149.207C202.415 148.606 201.105 147.903 199.326 148.907C197.078 150.11 197.359 151.415 197.547 152.418C197.64 152.719 197.64 153.02 197.547 153.22C197.453 153.421 197.359 153.521 197.266 153.521C197.078 153.521 196.891 153.421 196.797 153.421L196.517 153.822C196.517 153.822 196.985 154.123 197.453 154.023C197.734 153.923 197.921 153.722 198.108 153.321C198.202 153.02 198.202 152.618 198.108 152.217C197.921 151.314 197.734 150.311 199.7 149.308C201.292 148.505 202.322 149.007 203.352 149.609C204.101 150.01 204.756 150.411 205.505 150.11C206.535 149.709 206.629 148.806 206.629 148.305C206.629 147.803 206.723 147.703 206.816 147.703C207.752 147.602 208.408 147.803 208.689 148.204C208.876 148.405 208.782 148.706 208.782 148.907C208.782 149.207 208.782 149.609 209.063 149.809C209.344 150.11 210.187 150.411 210.936 150.311C211.404 150.311 211.779 150.01 212.06 149.709C212.434 149.107 212.434 148.505 212.34 148.104C212.34 147.803 212.34 147.602 212.434 147.502C212.528 147.402 212.715 147.201 212.996 147C213.839 146.198 215.149 145.094 215.243 144.191C215.337 143.389 215.243 142.687 214.962 142.285C214.775 142.085 214.494 141.984 214.213 141.884C213.932 141.884 213.558 142.085 213.09 142.285C212.34 142.687 211.779 142.887 211.404 142.486C211.123 142.085 211.123 141.683 211.123 141.282C211.123 140.68 211.123 139.978 210.374 139.376V139.175C210.468 136.768 210.749 133.156 211.872 131.35C212.621 130.046 213.09 130.147 214.026 130.147C214.869 130.147 216.086 130.247 218.052 129.444C218.801 129.745 219.737 129.846 221.329 129.745C226.011 129.444 230.786 125.833 231.067 125.532C231.254 125.331 231.442 125.231 231.629 125.03C232.003 124.529 232.752 123.224 233.595 121.72C234.531 120.014 235.561 118.108 236.498 116.904C237.528 115.399 238.651 113.895 239.775 113.694C240.337 113.594 240.899 113.794 241.46 114.296C243.801 116.102 252.134 118.309 252.415 118.309L252.509 117.807C252.041 117.707 243.988 115.5 241.741 113.894C241.086 112.691 240.337 112.49 239.681 112.59Z" fill="url(#paint6_linear_6249_32334)"/>
<path d="M241.835 116.101C239.307 116.804 236.592 120.415 235.843 121.619C234.251 124.227 233.97 130.146 234.532 132.855C234.813 134.059 235.187 134.962 235.655 135.764C236.03 136.667 236.404 137.37 236.404 138.373C236.404 140.479 236.685 141.583 237.434 142.486C237.622 142.687 237.809 142.787 237.902 142.787C238.277 142.787 238.652 142.386 239.12 141.984C239.401 141.683 239.869 141.182 240.056 141.182C240.15 141.182 240.243 141.382 240.337 141.483C241.086 142.787 240.056 143.89 239.962 143.89L240.337 144.292C240.337 144.292 241.741 142.988 240.805 141.282C240.618 140.981 240.431 140.78 240.15 140.78C239.682 140.68 239.213 141.182 238.745 141.683C238.464 141.984 238.09 142.386 237.996 142.285L237.902 142.185C237.247 141.282 236.966 140.279 236.966 138.272C236.966 137.169 236.592 136.366 236.123 135.463C235.749 134.661 235.374 133.858 235.094 132.654C234.532 130.046 234.906 124.227 236.404 121.82C237.341 120.315 239.869 117.105 242.116 116.503C242.678 116.302 243.801 116.603 244.644 117.004C249.326 119.011 252.696 119.613 252.696 119.613L252.79 119.111C252.79 119.111 249.513 118.409 244.831 116.503C244.176 116.402 242.678 115.901 241.835 116.101Z" fill="url(#paint7_linear_6249_32334)"/>
<path d="M241.366 114.998C240.43 115.098 239.4 116.102 239.026 116.402L238.932 116.503C236.685 118.309 234.531 121.118 233.969 122.823C233.782 123.325 233.688 123.927 233.501 124.729C232.097 127.638 231.535 130.447 230.973 133.156C230.692 134.661 230.411 136.166 229.943 137.671C228.726 141.683 221.984 148.505 221.703 148.806C221.423 149.007 215.524 153.622 213.557 154.023C212.715 154.224 208.314 155.227 207.097 155.728C206.067 156.13 204.1 161.948 203.726 163.152C203.632 165.961 203.351 170.074 203.071 170.476C202.79 170.977 201.198 171.479 200.449 171.378C200.168 171.378 199.981 171.077 199.793 170.676C199.419 170.175 199.044 169.573 198.202 169.372C197.64 169.272 195.861 169.673 192.958 170.375C190.243 171.077 186.497 171.98 185.842 171.679C185.28 171.479 185.187 171.077 185.093 170.676C184.999 170.275 184.906 169.874 184.25 169.773C184.063 169.773 183.876 169.773 183.782 169.874C183.501 170.175 183.501 170.676 183.595 171.579C183.595 172.382 183.688 173.385 183.314 173.886L183.689 174.187C184.157 173.585 184.157 172.482 184.063 171.579C184.063 171.077 183.969 170.476 184.063 170.275C184.344 170.275 184.344 170.476 184.438 170.776C184.531 171.178 184.718 171.78 185.561 172.081C186.31 172.382 188.932 171.78 192.958 170.776C195.205 170.275 197.546 169.673 198.014 169.773C198.576 169.874 198.951 170.375 199.325 170.776C199.606 171.178 199.887 171.579 200.355 171.679C201.198 171.78 202.977 171.178 203.445 170.576C203.82 170.074 204.1 164.657 204.194 163.052C205.318 159.741 206.722 156.23 207.284 156.029C208.22 155.628 211.217 154.926 213.745 154.424C215.898 153.923 221.891 149.207 222.172 149.107C222.453 148.806 229.381 141.984 230.599 137.771C231.067 136.266 231.348 134.761 231.629 133.256C232.003 131.15 232.471 128.842 233.314 126.635C233.22 127.939 233.127 129.244 233.033 130.548C232.939 131.651 232.846 132.654 232.752 133.557C232.097 139.777 231.16 143.289 229.475 145.596C227.696 148.204 220.861 155.829 220.018 156.531C219.55 156.832 219.082 157.033 218.426 157.133C217.958 157.233 217.396 157.434 216.835 157.634C214.681 158.638 212.247 162.249 210.561 164.958C209.625 166.362 208.876 167.566 208.501 167.767C207.846 168.168 207.471 168.068 206.909 167.767C206.535 167.566 206.16 167.466 205.599 167.466V167.967C206.067 167.967 206.441 168.168 206.722 168.268C207.284 168.569 207.846 168.77 208.782 168.168C209.25 167.867 209.999 166.764 210.936 165.159C212.621 162.55 214.962 158.939 217.022 158.036C217.584 157.735 218.052 157.634 218.614 157.534C219.269 157.333 219.831 157.233 220.393 156.832C221.235 156.23 228.07 148.405 229.943 145.797C231.629 143.489 232.565 139.878 233.314 133.557C233.408 132.755 233.501 131.651 233.595 130.548C233.782 127.739 234.063 124.629 234.625 123.024C235.28 121.318 237.34 118.71 239.494 116.904C239.494 116.904 239.587 116.904 239.587 116.804C239.868 116.503 240.898 115.6 241.647 115.5C242.396 115.399 243.801 115.901 245.767 116.603C247.64 117.305 249.981 118.108 252.79 118.911L252.883 118.409C250.074 117.707 247.827 116.804 245.954 116.202C243.707 115.399 242.303 114.797 241.366 114.998Z" fill="url(#paint8_linear_6249_32334)"/>
<path d="M170.113 167.967C170.487 167.967 171.142 168.469 171.798 168.87C173.015 169.673 174.42 170.676 175.543 170.074C176.105 169.773 176.667 168.971 177.322 167.967C178.446 166.262 179.944 164.055 182.566 163.252C186.779 161.848 194.27 158.337 194.363 158.236C194.457 158.236 200.356 153.822 206.068 155.327L206.161 154.825C200.262 153.321 194.457 157.434 193.989 157.735C193.895 157.735 193.708 157.835 193.427 158.036C193.333 157.434 192.865 156.13 191.742 155.227C190.805 154.524 189.682 154.324 188.371 154.424C186.03 154.725 183.877 155.829 181.91 156.832C180.225 157.634 178.82 158.437 177.79 158.337C176.854 158.236 176.76 157.735 176.573 157.032C176.386 156.23 176.105 155.227 174.326 155.026C172.453 154.825 171.704 156.13 171.049 157.133C170.487 157.935 170.206 158.437 169.551 158.437C167.865 158.337 165.525 155.929 165.525 155.929L165.15 156.23C165.244 156.33 167.584 158.738 169.457 158.838C170.393 158.939 170.955 158.136 171.423 157.333C172.079 156.33 172.734 155.327 174.232 155.427C175.637 155.628 175.824 156.23 176.011 157.032C176.199 157.735 176.48 158.537 177.697 158.638C178.914 158.738 180.319 157.935 182.098 157.133C183.97 156.13 186.124 155.126 188.371 154.825C189.588 154.625 190.618 154.926 191.367 155.528C192.491 156.33 192.865 157.735 192.959 158.136C190.712 159.139 185.468 161.547 182.285 162.55C179.476 163.453 177.884 165.861 176.76 167.466C176.199 168.369 175.637 169.071 175.169 169.372C174.326 169.874 173.109 168.971 171.892 168.268C171.142 167.767 170.487 167.366 170.019 167.265C169.27 167.165 168.24 167.867 166.929 168.67C165.805 169.472 164.495 170.275 163.652 170.375L163.745 170.877C164.775 170.676 166.086 169.874 167.304 169.071C168.521 168.569 169.644 167.867 170.113 167.967Z" fill="url(#paint9_linear_6249_32334)"/>
<path d="M243.521 117.907C242.116 118.509 240.993 120.315 240.15 121.519C239.869 122.02 239.495 122.422 239.308 122.622C239.12 122.823 238.933 122.823 238.652 122.923C238.09 123.024 237.528 123.224 237.06 124.528C236.218 126.435 235.843 131.049 236.873 132.554C237.248 133.156 237.809 133.256 238.09 133.256C239.12 133.156 240.15 131.852 240.525 130.648C240.806 129.845 241.648 129.745 242.491 129.745C243.24 129.745 243.989 129.645 244.364 129.043C244.645 128.642 244.925 128.541 245.113 128.541C245.394 128.642 245.768 129.043 245.862 130.146C246.049 131.651 245.394 133.858 245.394 133.858L245.862 133.959C245.862 133.858 246.517 131.651 246.33 130.046C246.236 128.943 245.768 128.24 245.206 128.04C244.738 127.939 244.27 128.14 243.896 128.742C243.615 129.143 243.053 129.143 242.397 129.244C241.461 129.344 240.337 129.444 239.963 130.548C239.588 131.752 238.652 132.755 237.997 132.755C237.716 132.755 237.435 132.654 237.248 132.353C236.405 131.049 236.686 126.735 237.528 124.729C237.997 123.626 238.371 123.525 238.839 123.425C239.12 123.425 239.401 123.325 239.682 123.024C239.869 122.823 240.15 122.321 240.525 121.82C241.274 120.616 242.397 118.91 243.708 118.309C244.551 117.907 245.487 118.309 246.892 118.91C248.109 119.412 249.701 120.215 251.761 120.516L251.854 120.014C249.794 119.713 248.296 119.011 247.079 118.509C245.768 117.907 244.645 117.406 243.521 117.907Z" fill="url(#paint10_linear_6249_32334)"/>
</g>
<path d="M122.078 129.846C119.269 129.846 116.928 126.836 115.337 121.218C113.838 116.001 113.089 108.878 113.089 100.552C113.089 92.2252 113.838 85.1024 115.337 79.8857C116.928 74.2677 119.269 71.2581 122.078 71.2581C124.887 71.2581 128.164 74.4683 130.505 79.8857C133.127 85.604 134.531 93.0277 134.531 100.552C134.531 108.076 133.127 115.5 130.505 121.218C128.164 126.635 124.981 129.846 122.078 129.846ZM122.078 71.3584C116.647 71.3584 113.183 82.795 113.183 100.552C113.183 118.309 116.647 129.745 122.078 129.745C127.79 129.745 134.438 117.004 134.438 100.552C134.438 84.0992 127.79 71.3584 122.078 71.3584Z" fill="#383F51"/>
<path d="M122.172 128.441C119.738 128.441 117.772 125.632 116.367 120.315C115.056 115.399 114.401 108.577 114.401 100.752C114.401 92.9273 115.056 86.1054 116.367 81.1897C117.772 75.8727 119.738 73.0637 122.172 73.0637C124.607 73.0637 127.322 76.0733 129.476 81.1897C131.723 86.607 132.94 93.6295 132.94 100.752C132.94 107.875 131.723 114.898 129.476 120.315C127.322 125.532 124.7 128.441 122.172 128.441ZM122.172 73.164C117.491 73.164 114.588 83.9987 114.588 100.752C114.588 117.506 117.584 128.341 122.172 128.341C127.041 128.341 132.753 116.302 132.753 100.752C132.753 85.2025 127.041 73.164 122.172 73.164Z" fill="#383F51"/>
<path d="M122.079 126.736C120.113 126.736 118.521 124.127 117.491 119.111C116.461 114.496 115.899 108.176 115.899 100.853C115.899 93.5293 116.461 87.2091 117.491 82.5944C118.615 77.5783 120.207 74.97 122.079 74.97C124.045 74.97 126.386 77.779 128.165 82.5944C130.132 87.8111 131.162 94.2316 131.162 100.853C131.162 107.474 130.132 113.995 128.165 119.111C126.386 123.826 124.139 126.736 122.079 126.736ZM122.079 75.0703C118.428 75.0703 115.993 85.2027 115.993 100.853C115.993 116.503 118.334 126.635 122.079 126.635C124.045 126.635 126.293 123.826 128.072 119.111C129.944 113.995 131.068 107.474 131.068 100.853C131.068 94.2316 130.038 87.8111 128.072 82.5944C126.293 77.8793 124.045 75.0703 122.079 75.0703Z" fill="#383F51"/>
<path d="M122.172 124.629C118.614 124.629 117.397 111.888 117.397 100.853C117.397 89.8174 118.708 77.0767 122.172 77.0767C125.356 77.0767 129.195 87.7107 129.195 100.853C129.195 113.995 125.356 124.629 122.172 124.629ZM122.172 77.177C119.27 77.177 117.491 86.5068 117.491 100.853C117.491 115.199 119.363 124.528 122.172 124.528C123.67 124.528 125.449 121.92 126.76 117.606C128.258 112.891 129.101 106.972 129.101 100.853C129.101 94.7331 128.258 88.8142 126.76 84.0991C125.356 79.7853 123.67 77.177 122.172 77.177Z" fill="#383F51"/>
<path d="M122.454 122.422C119.832 122.422 118.989 110.885 118.989 101.053C118.989 91.2219 119.926 79.6849 122.454 79.6849C124.795 79.6849 127.603 89.2155 127.603 101.053C127.603 112.891 124.795 122.422 122.454 122.422ZM122.454 79.7853C120.394 79.7853 119.083 88.1119 119.083 101.053C119.083 113.995 120.394 122.321 122.454 122.321C124.701 122.321 127.51 112.49 127.51 101.053C127.51 89.5164 124.701 79.7853 122.454 79.7853Z" fill="#383F51"/>
<path d="M122.266 132.454C118.614 132.454 115.618 129.143 113.651 122.823C111.872 117.105 110.936 109.38 110.936 100.351C110.936 91.3223 111.872 83.5975 113.651 77.8792C115.618 71.559 118.614 68.2484 122.266 68.2484C125.917 68.2484 129.944 71.7596 132.94 77.7789C136.123 84.0991 137.809 92.0245 137.809 100.351C137.809 108.678 136.123 116.603 132.94 122.923C129.85 129.043 126.011 132.454 122.266 132.454ZM122.266 69.4523C118.333 69.4523 115.992 74.2677 114.775 78.2805C113.09 83.7982 112.06 91.6232 112.06 100.351C112.06 109.079 112.996 117.004 114.775 122.422C116.086 126.435 118.427 131.25 122.266 131.25C125.543 131.25 129.101 127.939 131.91 122.321C135 116.202 136.685 108.377 136.685 100.251C136.685 92.1248 135 84.4001 131.91 78.1802C129.101 72.7629 125.449 69.4523 122.266 69.4523Z" fill="#383F51"/>
<path d="M268.52 75.0703L112.153 86.7075L112.06 88.8143L202.696 82.2934L111.592 92.9274L111.404 95.1345L210.187 84.2998L111.498 99.4483L111.685 101.655L215.056 85.905L112.06 105.969L112.247 108.277L198.764 91.6233L113.09 112.189L113.651 114.496L269.176 77.2774C269.176 76.9764 269.082 75.3713 268.52 75.0703Z" fill="url(#paint11_linear_6249_32334)"/>
<path opacity="0.2" d="M103.446 149.809C103.446 149.809 76.1989 109.28 102.51 51.7957C102.51 51.7957 69.1765 73.5653 63.2776 97.2411C63.184 101.856 63.0903 99.9497 63.0903 99.9497C64.963 120.315 103.446 149.809 103.446 149.809Z" fill="url(#paint12_radial_6249_32334)"/>
<path d="M120.3 171.98C115.524 168.168 111.124 163.955 107.098 159.039C105.693 157.634 104.569 156.431 103.727 155.528C100.262 151.916 99.7005 151.414 97.0788 148.906C96.517 148.405 95.7679 147.703 94.9252 147C90.3372 142.787 81.8166 134.962 74.326 126.234C65.2436 115.5 60.8429 106.671 60.3747 100.05V99.7491C60.7492 83.6978 85.0938 61.5268 94.3634 53.2002C95.487 52.197 96.3297 51.3944 96.9852 50.7925C99.2324 48.6523 102.634 45.2414 107.191 40.5597L107.847 39.8575C115.244 31.1296 124.139 24.2074 133.783 19.1914C133.596 18.7901 133.502 18.2885 133.315 17.8872C123.296 23.1039 114.307 30.1264 106.817 38.9546L106.255 39.5565C101.698 44.2382 98.296 47.6491 96.0488 49.7893C95.3934 50.3912 94.5507 51.1938 93.4271 52.197C88.7455 56.4105 80.1313 64.2355 72.7343 72.8631C63.6519 83.4971 58.9702 92.6264 58.9702 99.7491V100.05C59.3447 116.402 84.4384 139.376 93.9889 148.104C94.8316 148.906 95.487 149.508 96.0488 150.01C98.6706 152.518 99.2324 153.02 102.603 156.631C103.539 157.534 104.569 158.738 105.974 160.142C110.094 165.158 114.682 169.472 119.644 173.385C119.925 172.783 120.112 172.382 120.3 171.98Z" fill="#323A50"/>
<path d="M63.4645 100.05V99.7492C63.4645 84.5004 86.4982 65.1385 96.236 56.8118L97.1724 56.0093C98.7641 54.7051 100.075 53.7019 101.667 52.498C103.446 51.0935 105.599 48.8865 107.94 46.7797C110.562 44.372 115.618 40.5598 120.861 36.8479C120.581 36.7476 121.049 36.0454 120.861 35.8447C116.742 38.754 112.435 41.4627 107.378 46.0775C105.038 48.1842 102.884 50.3913 101.386 51.5951C99.7941 52.8993 98.2023 54.1032 96.6106 55.4073L95.5806 56.2099C85.7492 64.5365 62.4346 84.0991 62.4346 99.8495V100.151C62.4346 109.079 72.6406 121.519 80.9739 130.347C90.8053 140.781 101.667 149.508 105.787 152.217L106.068 151.515C97.8278 145.897 63.4645 116.001 63.4645 100.05Z" fill="#323A50"/>
<path d="M125.73 168.87C121.61 165.861 117.49 163.052 112.434 158.337C110.093 156.23 108.033 153.922 106.629 152.719C105.505 151.816 104.382 150.813 103.165 149.91C103.445 149.709 103.633 149.508 103.726 149.207C104.756 150.11 105.786 150.913 106.91 151.816C108.689 153.22 110.842 155.528 113.09 157.634C115.711 160.042 120.674 164.055 125.824 167.767C125.543 167.867 126.011 168.67 125.73 168.87Z" fill="#323A50"/>
<path d="M229.569 98.7461L112.247 86.507C111.966 87.3095 111.592 87.9114 111.123 88.714L182.753 96.4387L111.779 92.9275C111.779 93.0278 111.404 93.0278 111.404 93.2284C111.217 93.9307 110.936 94.5326 111.03 95.2349L189.775 99.348L111.217 99.5487C111.28 99.6825 111.311 99.8162 111.311 99.95C111.404 100.552 111.123 101.254 111.217 101.856H190.337L111.592 106.17C111.592 106.27 111.311 106.07 111.311 106.17C111.311 106.872 111.592 107.675 111.779 108.377L183.034 104.765L111.873 112.59C112.06 112.791 111.779 112.59 111.873 112.891C112.06 113.493 112.153 114.196 112.247 114.797L229.663 102.458V100.753C229.569 100.151 229.569 99.2477 229.569 98.7461Z" fill="url(#paint13_linear_6249_32334)"/>
<path d="M112.622 92.8271H10V95.1346H112.622V92.8271Z" fill="url(#paint14_linear_6249_32334)"/>
<path d="M112.622 99.4484H10V101.756H112.622V99.4484Z" fill="url(#paint15_linear_6249_32334)"/>
<path d="M112.622 105.969H10V108.276H112.622V105.969Z" fill="url(#paint16_linear_6249_32334)"/>
<path d="M112.622 86.507H10V88.8143H112.622V86.507Z" fill="url(#paint17_linear_6249_32334)"/>
<path d="M112.622 112.39H10V114.697H112.622V112.39Z" fill="url(#paint18_linear_6249_32334)"/>
<defs>
<radialGradient id="paint0_radial_6249_32334" cx="0" cy="0" r="1" gradientUnits="userSpaceOnUse" gradientTransform="translate(183.815 94.4508) rotate(-90) scale(81.4201 75.992)">
<stop offset="0.27" stop-color="#212F3C" stop-opacity="0"/>
<stop offset="1" stop-color="#212F3C"/>
</radialGradient>
<linearGradient id="paint1_linear_6249_32334" x1="102.485" y1="133.561" x2="298.008" y2="45.2457" gradientUnits="userSpaceOnUse">
<stop offset="0.05" stop-color="#8DBCAD" stop-opacity="0.6"/>
<stop offset="0.48" stop-color="#5EA6AE" stop-opacity="0.6"/>
<stop offset="0.59" stop-color="#5CA7AF" stop-opacity="0.6"/>
<stop offset="0.66" stop-color="#5796AC" stop-opacity="0.7"/>
<stop offset="0.81" stop-color="#507DA7" stop-opacity="0.89"/>
<stop offset="0.88" stop-color="#4E74A6" stop-opacity="0.98"/>
</linearGradient>
<linearGradient id="paint2_linear_6249_32334" x1="98.8862" y1="127.054" x2="297.536" y2="37.3265" gradientUnits="userSpaceOnUse">
<stop offset="0.05" stop-color="#8DBCAD" stop-opacity="0.6"/>
<stop offset="0.48" stop-color="#5EA6AE" stop-opacity="0.6"/>
<stop offset="0.59" stop-color="#5CA7AF" stop-opacity="0.6"/>
<stop offset="0.66" stop-color="#5796AC" stop-opacity="0.7"/>
<stop offset="0.81" stop-color="#507DA7" stop-opacity="0.89"/>
<stop offset="0.88" stop-color="#4E74A6" stop-opacity="0.98"/>
</linearGradient>
<linearGradient id="paint3_linear_6249_32334" x1="106.679" y1="137.051" x2="300.708" y2="49.4095" gradientUnits="userSpaceOnUse">
<stop offset="0.05" stop-color="#8DBCAD" stop-opacity="0.6"/>
<stop offset="0.48" stop-color="#5EA6AE" stop-opacity="0.6"/>
<stop offset="0.59" stop-color="#5CA7AF" stop-opacity="0.6"/>
<stop offset="0.66" stop-color="#5796AC" stop-opacity="0.7"/>
<stop offset="0.81" stop-color="#507DA7" stop-opacity="0.89"/>
<stop offset="0.88" stop-color="#4E74A6" stop-opacity="0.98"/>
</linearGradient>
<linearGradient id="paint4_linear_6249_32334" x1="123.749" y1="160.012" x2="309.622" y2="76.0562" gradientUnits="userSpaceOnUse">
<stop offset="0.05" stop-color="#8DBCAD" stop-opacity="0.6"/>
<stop offset="0.48" stop-color="#5EA6AE" stop-opacity="0.6"/>
<stop offset="0.59" stop-color="#5CA7AF" stop-opacity="0.6"/>
<stop offset="0.66" stop-color="#5796AC" stop-opacity="0.7"/>
<stop offset="0.81" stop-color="#507DA7" stop-opacity="0.89"/>
<stop offset="0.88" stop-color="#4E74A6" stop-opacity="0.98"/>
</linearGradient>
<linearGradient id="paint5_linear_6249_32334" x1="107.433" y1="142.917" x2="304.405" y2="53.9475" gradientUnits="userSpaceOnUse">
<stop offset="0.05" stop-color="#8DBCAD" stop-opacity="0.6"/>
<stop offset="0.48" stop-color="#5EA6AE" stop-opacity="0.6"/>
<stop offset="0.59" stop-color="#5CA7AF" stop-opacity="0.6"/>
<stop offset="0.66" stop-color="#5796AC" stop-opacity="0.7"/>
<stop offset="0.81" stop-color="#507DA7" stop-opacity="0.89"/>
<stop offset="0.88" stop-color="#4E74A6" stop-opacity="0.98"/>
</linearGradient>
<linearGradient id="paint6_linear_6249_32334" x1="181.586" y1="75.3652" x2="248.756" y2="183.527" gradientUnits="userSpaceOnUse">
<stop offset="0.05" stop-color="#8DBCAD" stop-opacity="0.6"/>
<stop offset="0.48" stop-color="#5EA6AE" stop-opacity="0.6"/>
<stop offset="0.59" stop-color="#5CA7AF" stop-opacity="0.6"/>
<stop offset="0.66" stop-color="#5796AC" stop-opacity="0.7"/>
<stop offset="0.81" stop-color="#507DA7" stop-opacity="0.89"/>
<stop offset="0.88" stop-color="#4E74A6" stop-opacity="0.98"/>
</linearGradient>
<linearGradient id="paint7_linear_6249_32334" x1="208.488" y1="62.5556" x2="273.749" y2="167.642" gradientUnits="userSpaceOnUse">
<stop offset="0.05" stop-color="#8DBCAD" stop-opacity="0.6"/>
<stop offset="0.48" stop-color="#5EA6AE" stop-opacity="0.6"/>
<stop offset="0.59" stop-color="#5CA7AF" stop-opacity="0.6"/>
<stop offset="0.66" stop-color="#5796AC" stop-opacity="0.7"/>
<stop offset="0.81" stop-color="#507DA7" stop-opacity="0.89"/>
<stop offset="0.88" stop-color="#4E74A6" stop-opacity="0.98"/>
</linearGradient>
<linearGradient id="paint8_linear_6249_32334" x1="182.923" y1="81.3097" x2="245.454" y2="182.001" gradientUnits="userSpaceOnUse">
<stop offset="0.05" stop-color="#8DBCAD" stop-opacity="0.6"/>
<stop offset="0.48" stop-color="#5EA6AE" stop-opacity="0.6"/>
<stop offset="0.59" stop-color="#5CA7AF" stop-opacity="0.6"/>
<stop offset="0.66" stop-color="#5796AC" stop-opacity="0.7"/>
<stop offset="0.81" stop-color="#507DA7" stop-opacity="0.89"/>
<stop offset="0.88" stop-color="#4E74A6" stop-opacity="0.98"/>
</linearGradient>
<linearGradient id="paint9_linear_6249_32334" x1="146.106" y1="92.1899" x2="216.828" y2="206.072" gradientUnits="userSpaceOnUse">
<stop offset="0.05" stop-color="#8DBCAD" stop-opacity="0.6"/>
<stop offset="0.48" stop-color="#5EA6AE" stop-opacity="0.6"/>
<stop offset="0.59" stop-color="#5CA7AF" stop-opacity="0.6"/>
<stop offset="0.66" stop-color="#5796AC" stop-opacity="0.7"/>
<stop offset="0.81" stop-color="#507DA7" stop-opacity="0.89"/>
<stop offset="0.88" stop-color="#4E74A6" stop-opacity="0.98"/>
</linearGradient>
<linearGradient id="paint10_linear_6249_32334" x1="209.61" y1="61.3899" x2="275.398" y2="167.326" gradientUnits="userSpaceOnUse">
<stop offset="0.05" stop-color="#8DBCAD" stop-opacity="0.6"/>
<stop offset="0.48" stop-color="#5EA6AE" stop-opacity="0.6"/>
<stop offset="0.59" stop-color="#5CA7AF" stop-opacity="0.6"/>
<stop offset="0.66" stop-color="#5796AC" stop-opacity="0.7"/>
<stop offset="0.81" stop-color="#507DA7" stop-opacity="0.89"/>
<stop offset="0.88" stop-color="#4E74A6" stop-opacity="0.98"/>
</linearGradient>
<linearGradient id="paint11_linear_6249_32334" x1="-66.3774" y1="105.567" x2="274.914" y2="84.5509" gradientUnits="userSpaceOnUse">
<stop offset="0.05" stop-color="#8DBCAD"/>
<stop offset="0.39" stop-color="#5EA6AE"/>
<stop offset="0.59" stop-color="#5CA7AF"/>
<stop offset="0.66" stop-color="#5796AC"/>
<stop offset="0.81" stop-color="#507DA7"/>
<stop offset="0.88" stop-color="#4E74A6"/>
</linearGradient>
<radialGradient id="paint12_radial_6249_32334" cx="0" cy="0" r="1" gradientUnits="userSpaceOnUse" gradientTransform="translate(136.826 101.013) rotate(90) scale(58.5072 54.6067)">
<stop offset="0.27" stop-color="#032A3D" stop-opacity="0"/>
<stop offset="1" stop-color="#032A3D"/>
</radialGradient>
<linearGradient id="paint13_linear_6249_32334" x1="-62.5866" y1="103.044" x2="228.166" y2="95.063" gradientUnits="userSpaceOnUse">
<stop offset="0.05" stop-color="#8DBCAD"/>
<stop offset="0.39" stop-color="#5EA6AE"/>
<stop offset="0.59" stop-color="#5CA7AF"/>
<stop offset="0.66" stop-color="#5796AC"/>
<stop offset="0.81" stop-color="#507DA7"/>
<stop offset="0.88" stop-color="#4E74A6"/>
</linearGradient>
<linearGradient id="paint14_linear_6249_32334" x1="-10.6493" y1="90.2554" x2="143.291" y2="91.4527" gradientUnits="userSpaceOnUse">
<stop offset="0.05" stop-color="#8DBCAD"/>
<stop offset="0.39" stop-color="#5EA6AE"/>
<stop offset="0.59" stop-color="#5CA7AF"/>
<stop offset="0.66" stop-color="#5796AC"/>
<stop offset="0.81" stop-color="#507DA7"/>
<stop offset="0.88" stop-color="#4E74A6"/>
</linearGradient>
<linearGradient id="paint15_linear_6249_32334" x1="-10.6498" y1="96.9584" x2="143.291" y2="98.1557" gradientUnits="userSpaceOnUse">
<stop offset="0.05" stop-color="#8DBCAD"/>
<stop offset="0.39" stop-color="#5EA6AE"/>
<stop offset="0.59" stop-color="#5CA7AF"/>
<stop offset="0.66" stop-color="#5796AC"/>
<stop offset="0.81" stop-color="#507DA7"/>
<stop offset="0.88" stop-color="#4E74A6"/>
</linearGradient>
<linearGradient id="paint16_linear_6249_32334" x1="-10.6498" y1="103.56" x2="143.291" y2="104.757" gradientUnits="userSpaceOnUse">
<stop offset="0.05" stop-color="#8DBCAD"/>
<stop offset="0.39" stop-color="#5EA6AE"/>
<stop offset="0.59" stop-color="#5CA7AF"/>
<stop offset="0.66" stop-color="#5796AC"/>
<stop offset="0.81" stop-color="#507DA7"/>
<stop offset="0.88" stop-color="#4E74A6"/>
</linearGradient>
<linearGradient id="paint17_linear_6249_32334" x1="-10.6493" y1="83.857" x2="143.291" y2="85.0543" gradientUnits="userSpaceOnUse">
<stop offset="0.05" stop-color="#8DBCAD"/>
<stop offset="0.39" stop-color="#5EA6AE"/>
<stop offset="0.59" stop-color="#5CA7AF"/>
<stop offset="0.66" stop-color="#5796AC"/>
<stop offset="0.81" stop-color="#507DA7"/>
<stop offset="0.88" stop-color="#4E74A6"/>
</linearGradient>
<linearGradient id="paint18_linear_6249_32334" x1="-10.6498" y1="110.06" x2="143.291" y2="111.258" gradientUnits="userSpaceOnUse">
<stop offset="0.05" stop-color="#8DBCAD"/>
<stop offset="0.39" stop-color="#5EA6AE"/>
<stop offset="0.59" stop-color="#5CA7AF"/>
<stop offset="0.66" stop-color="#5796AC"/>
<stop offset="0.81" stop-color="#507DA7"/>
<stop offset="0.88" stop-color="#4E74A6"/>
</linearGradient>
</defs>
</svg>
