<svg width="320" height="200" viewBox="0 0 320 200" fill="none" xmlns="http://www.w3.org/2000/svg">
<g clip-path="url(#clip0_6248_32232)">
<path opacity="0.2" d="M150.8 23.25C145.1 23.55 135.2 25.55 129.1 27.15C125.5 28.15 122.8 25.55 121.8 24.95C115.4 28.65 112.7 29.45 111.4 30.55C109.6 32.15 108.2 32.85 106.5 34.65L105.7 35.65C105.5 35.95 105.1 36.35 104.9 36.65C104.7 37.05 104.2 37.35 104 37.75C103.9 37.95 103.4 38.45 103.3 38.65C103.1 39.15 102.5 39.05 102.3 39.65C101.6 41.55 100.5 42.25 99.3 43.95C99.4 44.55 98.2 45.85 98 46.45C97.7 47.65 96 50.55 95.5 51.75C92.9 58.45 91.8 69.05 91.4 69.15C90.9 69.75 89.5 66.35 92.1 56.05C92.2 55.75 91.6 53.75 91.3 53.55C91.3 53.55 90 53.45 89.9 53.45C89.5 53.45 88.7 56.45 88.3 56.45C88.2 56.45 88.3 69.05 88.3 69.05C88.2 69.05 85.9 69.95 85.7 69.95C84.5 70.15 87.4 55.05 86.3 55.25C86.1 55.25 86.5 51.55 86.3 51.55C86.2 51.55 84.9 51.05 84.9 51.15C84.9 51.35 84.4 52.05 83.4 51.65C83.2 52.95 82.1 53.55 80.9 54.15C80.9 54.35 80.6 54.45 80.5 54.75C80.2 55.65 80 56.55 79.5 57.35C79.5 57.75 79 58.15 78.9 58.55C78.8 58.75 78.8 58.85 78.7 59.05C78.6 59.75 78.4 60.35 78.2 61.05V61.25C78.2 61.35 78.5 61.55 78.4 61.65C78.5 63.05 78.4 64.25 77.8 65.65C77.8 65.75 77.7 65.85 77.7 65.95C77.7 66.45 77.6 66.95 77.4 67.35C77.6 68.35 77.6 69.25 77.2 70.15C77.2 70.45 77.4 70.95 77.3 71.25C77.3 71.35 77.2 71.85 77.2 71.95C77.2 72.85 77 73.25 77 74.15V74.95C77 75.35 77.1 75.75 77.2 76.15C77.6 78.35 77.7 80.35 77.7 82.55C77.7 82.85 77.8 83.05 77.9 83.35C77.9 83.35 78.3 84.15 78.3 84.25C78.7 84.55 78.5 84.25 78.9 84.65C79.2 82.35 79.8 80.15 80.6 78.05C81.5 75.65 82.6 72.65 84.8 70.95C86.3 69.75 88.1 69.25 89.8 69.55C92.2 69.25 94.4 69.85 95.1 71.95L96.2 72.75C96.3 72.85 96.5 73.05 96.6 73.25C96.7 73.45 97.1 73.55 97.2 73.75C97.8 74.45 98.1 75.35 98.7 76.05C100.4 78.05 101.2 79.15 102 81.65C102.1 81.95 102.5 83.85 102.6 84.25C103.7 86.35 103.6 88.25 103.9 90.55C104.1 91.85 104.2 93.15 104.1 94.45C104.7 96.15 105.2 97.95 105.2 99.85C105.2 101.75 105.6 104.05 105.4 106.05C104.9 110.25 103.5 114.15 102.1 118.25C101.3 120.55 101.2 122.55 99.6 124.35C99.1 124.85 99 126.05 98.5 126.55C98.3 126.95 97.5 127.45 97.1 127.85C96.1 129.05 93.9 131.05 92.5 131.45C90.1 133.45 85.1 131.95 83.6 129.35C81.4 125.45 79.8 122.15 79.2 117.95C79.1 118.05 78.6 117.65 78.5 117.75C77.4 118.95 76.6 126.65 77.3 135.35C77.4 136.75 78.3 141.85 81.3 146.95C81.5 147.25 83 149.85 84.9 149.25C87.7 148.25 85 132.85 85.6 131.85C85.7 131.55 88.5 131.85 88.2 133.55C87.3 138.25 87.6 142.95 88.5 145.85C89.1 147.85 90.6 146.85 90.6 146.45C89.9 140.15 90.4 133.65 90.4 132.85C90.3 132.95 92.1 132.25 92.4 132.05C93 160.65 116.7 175.05 122.7 176.65C124.2 175.75 129.1 173.75 131.8 174.55C136.7 176.05 146.6 177.55 152.2 177.65C196.4 178.15 234.4 145.45 234.4 100.55C234.4 69.75 218.3 44.65 190.3 30.85C178.1 24.45 163.1 22.65 150.8 23.25Z" fill="url(#paint0_radial_6248_32232)"/>
<path d="M57.1 116.65C66.5 121.65 74 116.55 73.9 117.65C72.6 128.25 74.2 147.75 79.2 156.25C79.3 156.45 73.1 151.15 68.9 149.25C68.9 149.25 48.6 137.25 40.9 119.95C40.7 115.35 50.9 113.35 57.1 116.65Z" fill="url(#paint1_linear_6248_32232)"/>
<path d="M149.8 193.45C135.2 193.45 121.1 190.65 108 185.05C95.3 179.65 84.1 172.05 74.7001 162.35C73.1001 160.95 71.8 159.75 70.8 158.85C65.9 154.45 65.4 153.95 62.1 151.25C61.7 150.95 61.3 150.55 60.8 150.15C56.7 146.85 49 140.65 42.5 132.25C34.5 121.95 30.4 111.15 30.3 100.15V99.8501C30.4 88.7501 34.5 77.95 42.5 67.75C49 59.35 56.7 53.15 60.8 49.85C61.3 49.45 61.7 49.05 62.1 48.75C64.6 46.75 65.5001 45.95 67.7001 43.85C69.0001 42.65 70.8001 41.05 73.7001 38.45C83.1 28.55 94.4 20.65 107.3 15.15C120.7 9.45005 134.9 6.55005 149.8 6.55005C163.4 6.55005 176.7 9.05005 189.1 13.85C201.1 18.55 211.9 25.25 221.2 33.85C230.5 42.45 237.8 52.45 242.9 63.55C248.2 75.05 250.8 87.35 250.8 99.9501C250.8 102.25 250.8 107.65 253.9 110.55C255.3 111.85 257.1 112.45 259.4 112.45H260.8C268.5 112.45 281.5 112.35 289.7 115.05L289.2 116.35C281.2 113.75 268.4 113.75 260.8 113.85H259.4C256.7 113.85 254.4 113.05 252.8 111.55C249.3 108.25 249.3 102.45 249.3 99.9501C249.3 49.1501 204.6 7.85005 149.7 7.85005C121 7.85005 93.6 19.35 74.7001 39.35C71.8001 41.95 70.0001 43.55 68.7001 44.75C66.4001 46.85 65.5 47.65 63 49.75C62.6 50.05 62.2 50.45 61.7 50.85C53.6 57.35 31.9 74.7501 31.7 99.8501V100.15C31.9 125.25 53.6 142.65 61.7 149.15C62.2 149.55 62.6 149.95 63 150.25C66.4 152.95 66.9 153.45 71.8 157.85C72.9 158.85 74.2001 159.95 75.7001 161.35C94.6 180.75 121.6 191.95 149.8 191.95C189.3 191.95 225.3 169.85 241.6 135.55C241.9 134.95 242.5 134.45 243.4 134.15C245.2 133.55 247.8 134.05 250.3 135.35C252.2 136.35 254.2 137.45 256.3 138.65C263.8 142.95 272.4 147.75 281.7 149.25L281.5 150.55C271.8 148.95 263.2 144.05 255.5 139.75C253.4 138.55 251.5 137.45 249.6 136.45C246.4 134.75 244.4 135.15 243.8 135.35C243.3 135.45 243 135.75 242.9 135.95C235 152.65 222.2 166.95 206.1 177.05C189.4 187.95 169.9 193.45 149.8 193.45Z" fill="#383F51"/>
<path d="M149.2 186.25C136.4 186.25 123.9 183.85 112.3 179.15C101 174.65 91 168.15 82.4 159.95L83.1 159.35C100.5 176.15 124 185.35 149.2 185.35C184.5 185.35 216.1 167.05 231.6 137.75C231.9 137.15 232.2 136.55 232.5 136.05C235.3 130.55 237.1 130.75 243.8 131.55L244.6 131.65L244.5 132.55L243.7 132.45C237 131.65 235.8 131.55 233.4 136.45C233.1 137.05 232.8 137.65 232.5 138.25C225 152.45 213.4 164.45 198.9 173.05C184.1 181.65 166.9 186.25 149.2 186.25Z" fill="#383F51"/>
<path d="M253.4 115.65C246.3 112.75 243.2 107.95 243.1 99.6501C242.5 53.3501 200.3 15.7501 149.2 15.7501C121.4 15.7501 98.2001 27.8501 86.8001 38.2501C86.5001 38.5501 84.2001 40.0501 80.5001 42.6501C77.6001 44.6501 74.3001 46.8501 73.9001 47.1501L73.2001 46.4501C73.6001 46.0501 76.1001 44.3501 79.9001 41.8501C82.7001 39.9501 85.8001 37.8501 86.1001 37.5501C97.6001 27.0501 121.1 14.8501 149.2 14.8501C161.7 14.8501 173.9 17.0501 185.5 21.4501C196.7 25.6501 206.8 31.7501 215.6 39.5501C233.7 55.5501 243.8 76.9501 244.1 99.6501C244.2 107.55 247.1 112.05 253.8 114.85L253.4 115.65Z" fill="#383F51"/>
<path d="M154.4 178.55C152.4 178.55 150.3 178.45 148.3 178.35C142.7 177.95 137.2 176.95 131.9 175.55C131.4 175.35 130 175.35 128.9 175.45C127.5 175.55 125.1 176.45 123.5 177.35L122.7 176.25C124.3 175.25 126.9 174.25 128.8 174.05C129.9 173.95 131.5 173.95 132.4 174.15C137.6 175.65 143 176.55 148.5 176.95C192.2 180.05 230.6 148.15 234.2 105.75C235.9 85.15 229.3 65.25 215.6 49.65C201.9 34.05 182.7 24.65 161.5 23.05C151.6 22.35 141.7 23.35 132.3 26.25C130.2 26.85 128 27.15 126.9 27.05C125.1 26.95 122.9 25.95 121.8 24.75L123 23.95C123.7 24.75 125.4 25.65 127 25.75C128 25.75 130 25.55 131.9 24.95C141.5 22.05 151.6 20.95 161.7 21.75C183.3 23.35 202.8 32.85 216.8 48.75C230.8 64.65 237.5 84.85 235.8 105.75C234.1 126.65 224 145.75 207.5 159.35C192.4 171.95 173.8 178.55 154.4 178.55Z" fill="#383F51"/>
<path d="M288.1 119.55C280.9 116.85 272.2 116.75 265.2 116.65C259.4 116.55 254.8 116.55 252.4 115.15L252.9 114.35C255 115.55 259.8 115.65 265.2 115.65C272.3 115.75 281.2 115.85 288.5 118.55L288.1 119.55Z" fill="#383F51"/>
<path d="M282.2 147.05C275.7 146.25 268.8 142.75 262.1 139.35C255.5 135.95 249.2 132.75 243.5 132.25L243.6 131.35C249.5 131.85 255.8 135.15 262.6 138.55C269.2 141.95 276 145.35 282.3 146.05L282.2 147.05Z" fill="#383F51"/>
<path d="M69.4001 150.05C59.7001 136.25 55.6001 120.55 55.9001 99.1501C56.6001 72.6501 63.1001 58.9501 69.4001 48.9501L70.3001 49.4501C64.1001 59.3501 57.6001 72.9501 56.9001 99.2501C56.6001 120.45 60.7001 135.95 70.3001 149.65L69.4001 150.05Z" fill="#383F51"/>
<path d="M84 161.35C77.2 154.85 72.4 151.95 68.2 149.25C66.3 148.05 64.5 146.95 62.6 145.55C55 139.95 49.2 134.35 44.9 128.25C38.6 119.55 35.4 110.05 35.4 100.05V99.7501C35.4 85.9501 43.7 73.5501 50.7 65.5501C59.3 55.6501 69 48.8501 73.4 46.3501L73.9 47.1501C69.6 49.6501 60 56.3501 51.4 66.1501C44.5 74.0501 36.3 86.2501 36.3 99.7501V100.05C36.3 116.85 45.1 131.45 63.2 144.85C65 146.15 66.8 147.35 68.7 148.55C72.9 151.25 77.7 154.25 84.6 160.75L84 161.35Z" fill="#383F51"/>
<path d="M157.4 183.35C144.7 183.35 128.8 181.35 115.5 173.65C107.1 168.75 99.7 160.15 95.6 150.65C92.7 143.35 92 138.65 91.5 130.85H92.5C93 138.55 93.7 143.25 96.6 150.45C100.5 159.65 108 168.25 116.1 172.95C140.2 186.95 173 181.75 179.3 180.65L179.5 181.55C176.5 181.95 168 183.35 157.4 183.35Z" fill="#383F51"/>
<path d="M86.8 163.95C77.8 156.55 76.5 152.05 74.8 146.45C74.7 146.05 74.6 145.65 74.5 145.35C72.7 138.75 72.2 129.25 73.2 118.55C73.3 117.25 74.5 116.25 75.9 116.35L79.1 116.55L79 117.05C76 128.15 78 140.45 81.7 146.05C82.6 147.45 83.6 148.25 84.5 148.45C84.7 148.45 84.8 148.45 84.9 148.35C85.8 147.75 85.6 144.35 85.6 142.55V141.75C85.5 138.25 84.7 130.65 84.7 130.55L84.6 129.55L85.5 130.15C86.6 130.95 87.6 131.35 88.6 131.55L89 131.65V132.05C89 132.05 88.4 137.75 88.7 142.95C88.8 144.75 89.5 145.65 89.9 145.85C90 145.95 90.1 145.85 90.1 145.85C90.4 145.65 90.7 144.85 90.5 143.05C89.5 135.35 90.4 131.75 90.5 131.55L91.5 131.75C91.5 131.75 90.6 135.35 91.6 142.85C91.8 144.65 91.6 145.95 90.8 146.45C90.4 146.75 90 146.75 89.5 146.55C88.5 146.15 87.9 144.75 87.8 142.85C87.5 138.35 87.9 133.55 88.1 132.15C87.4 131.95 86.7 131.65 85.9 131.25C86.1 133.45 86.6 138.75 86.7 141.55V142.35C86.8 145.45 86.8 148.05 85.6 148.85C85.3 149.15 84.8 149.15 84.4 149.15C83.2 148.85 82.1 147.95 81 146.35C77.3 140.75 75.2 128.35 78.1 117.25L76.2 117.15C75.3 117.15 74.6 117.65 74.5 118.45C73.5 129.05 74 138.55 75.8 144.95C75.9 145.35 76 145.75 76.1 146.05C77.8 151.55 79.1 155.85 87.8 163.15L86.8 163.95Z" fill="#383F51"/>
<path d="M92.2001 69.85H91.2001C91.7001 62.05 92.4001 57.25 95.3001 50.05C99.4001 40.55 106.8 31.95 115.2 27.05C139.6 12.85 172.7 18.05 179.1 19.25L178.9 20.15C172.6 18.95 139.8 13.75 115.7 27.85C107.6 32.55 100.1 41.15 96.2001 50.35C93.4001 57.45 92.7001 62.15 92.2001 69.85Z" fill="#383F51"/>
<path d="M75.5 84.3501C74.2 84.3501 73 83.4501 72.9 82.1501C71.9 71.3501 72.4 61.8501 74.2 55.3501L74.3 54.8501C76.1 48.9501 77.4 44.6501 86.7 36.9501L87.4 37.6501C78.3 45.1501 77.1 49.1501 75.3 55.1501L75.2 55.6501C73.4 62.0501 72.9 71.4501 73.9 82.1501C74 82.9501 74.7 83.5501 75.6 83.4501L77.6 83.3501C75.8 70.2501 77.4 57.7501 81.6 52.7501C82.7 51.4501 83.8 50.8501 85.1 50.6501C85.6 50.6501 86.1 50.7501 86.4 51.0501C87.3 51.8501 87.1 53.6501 86.9 55.8501C86.9 56.5501 86.8 57.2501 86.8 57.9501C86.7 60.2501 86.4 63.5501 86.1 65.8501C85.9 67.6501 85.8 68.7501 85.7 69.5501C86.3 69.1501 87.1 68.8501 87.8 68.6501C87.8 67.3501 87.6 62.8501 87.7 58.2501C87.8 55.1501 88.6 53.1501 89.9 52.5501C90.4 52.3501 91 52.4501 91.5 52.8501C92.4 53.6501 92.6 55.1501 92 56.9501C89.7 63.8501 91 69.0501 91 69.0501L90 69.2501C90 69.0501 88.6 63.8501 91 56.6501C91.5 55.1501 91.2 53.9501 90.8 53.5501C90.6 53.3501 90.4 53.4501 90.3 53.4501C89.6 53.7501 88.8 55.1501 88.7 58.2501C88.5 63.5501 88.8 68.8501 88.8 68.8501V69.2501L88.4 69.3501C87.3 69.5501 86.2 70.1501 85.4 70.7501C85.3 70.8501 85.2 70.8501 85.1 70.9501L84.8 71.0501L84.3 70.4501L84.6 70.2501C84.9 69.1501 85.6 61.9501 85.8 57.8501C85.8 57.1501 85.9 56.3501 85.9 55.7501C86 53.9501 86.2 52.1501 85.7 51.6501C85.6 51.5501 85.5 51.5501 85.2 51.5501C84.2 51.6501 83.3 52.2501 82.4 53.2501C78.9 57.3501 76.5 69.1501 78.6 83.6501L78.7 84.1501L75.6 84.3501H75.5Z" fill="#383F51"/>
<path d="M73.5 117.65C73.5 117.55 71.1 110.25 71.3 99.35C71.4 90.35 73.1 82.85 73.1 82.75L74.1 82.95C74.1 83.05 72.4 90.45 72.4 99.35C72.2 110.05 74.6 117.35 74.6 117.35L73.5 117.65Z" fill="#383F51"/>
<path d="M182.8 32.3501L182.7 32.8501C185.6 33.1501 189.5 40.8501 189.7 42.5501C189.8 43.2501 189.6 43.6501 189.5 44.0501C189.3 44.6501 189 45.1501 189.7 46.2501C190.8 47.9501 197.9 53.9501 201.3 55.2501C204.8 56.5501 206.6 57.3501 207.9 60.4501C208.6 62.0501 208.6 64.5501 208.6 67.2501C208.6 69.6501 208.6 72.1501 209.2 74.1501C210 77.0501 211.5 79.8501 212.2 81.1501C211.3 80.4501 210.5 79.7501 209.6 79.0501C208.1 77.8501 206.7 76.8501 206.2 76.1501C205.5 75.2501 205.2 72.1501 204.8 68.8501C204.3 64.4501 203.7 59.3501 202.1 57.7501C200.3 55.9501 193.5 53.4501 188 51.4501C185.1 50.3501 182.6 49.4501 181.6 48.8501C180.5 48.2501 179.3 46.5501 178.1 44.8501C175.9 41.8501 173.5 38.3501 170.5 38.4501V38.9501C173.2 38.8501 175.5 42.1501 177.6 45.0501C179 46.9501 180.2 48.6501 181.3 49.2501C182.4 49.8501 184.9 50.7501 187.8 51.8501C193.2 53.8501 199.9 56.3501 201.7 58.0501C202.3 58.6501 202.8 59.8501 203.1 61.2501C202.5 60.2501 201.7 59.1501 200.5 58.3501C198.5 56.8501 193.8 55.6501 191.3 55.0501C190.9 54.9501 190.5 54.8501 190.2 54.7501C189.4 54.5501 188.9 54.7501 188.4 55.0501C187.9 55.3501 187.3 55.7501 185.8 55.4501C184.2 55.1501 183.6 54.3501 182.9 53.4501C182.4 52.8501 182 52.2501 181.2 51.8501C179.3 50.7501 177.3 51.4501 176.2 51.8501H176.1C175.4 52.1501 175.4 52.7501 175.5 53.1501C175.5 53.5501 175.5 53.8501 175.3 54.0501C175 54.2501 174.4 53.8501 173.9 53.4501C173 52.9501 172.1 52.2501 171.2 52.6501L171.4 53.1501C172 52.8501 172.8 53.4501 173.6 53.8501C174.4 54.3501 175.1 54.8501 175.7 54.4501C176.3 54.1501 176.2 53.5501 176.2 53.0501C176.2 52.5501 176.2 52.3501 176.4 52.2501H176.5C177.5 51.8501 179.3 51.2501 180.9 52.2501C181.6 52.6501 182 53.1501 182.5 53.7501C183.2 54.6501 184 55.6501 185.8 55.9501C187.4 56.2501 188.2 55.7501 188.8 55.4501C189.2 55.1501 189.5 55.0501 190.1 55.1501C190.3 55.2501 190.7 55.3501 191.2 55.4501C193.5 56.0501 198.3 57.2501 200.2 58.6501C202.3 60.2501 203.5 62.9501 203.6 63.2501C203.9 64.9501 204.1 66.9501 204.3 68.7501C204.7 72.2501 205.1 75.2501 205.8 76.2501C206.4 76.9501 207.7 78.0501 209.3 79.2501C212.3 81.6501 216.5 84.9501 216.3 87.1501C216.2 88.3501 215.9 89.5501 215.6 90.9501C215 93.6501 214.3 96.6501 215 99.9501C216.4 106.75 217.8 109.05 219.5 110.35C221.2 111.65 223.3 112.35 223.4 112.35L223.6 111.85C223.6 111.85 221.5 111.15 219.9 109.95C218.3 108.65 216.9 106.45 215.6 99.8501C215 96.6501 215.6 93.6501 216.2 91.0501C216.5 89.6501 216.8 88.4501 216.9 87.1501C217 85.4501 215.2 83.4501 213 81.5501L213.2 81.4501C213.2 81.4501 210.9 77.6501 209.8 73.7501C209.3 71.8501 209.3 69.3501 209.3 67.0501C209.3 64.3501 209.3 61.8501 208.6 60.0501C207.2 56.8501 205.2 55.9501 201.7 54.6501C198.4 53.3501 191.4 47.5501 190.3 45.8501C189.8 45.0501 189.9 44.6501 190.2 44.1501C190.4 43.7501 190.6 43.1501 190.5 42.3501C190 40.6501 186 32.7501 182.8 32.3501Z" fill="url(#paint2_linear_6248_32232)"/>
<path d="M196.1 94.8502C197.1 95.7502 198.8 95.6501 200.7 95.4501C202.5 95.2501 204.6 95.1502 206.4 95.8502C209.8 97.3502 212.4 104.15 212.4 104.25L212.9 104.05C212.8 103.75 210.2 97.0502 206.6 95.3502C204.8 94.5502 202.6 94.7502 200.6 94.8502C198.8 95.0502 197.2 95.1502 196.4 94.3502C195.6 93.5502 194.8 90.7501 194.2 88.2501C193.5 85.3501 192.9 82.8501 192 82.2501C191.2 81.6501 190.3 81.5501 189.6 81.4501C188.8 81.3501 188.2 81.2501 187.8 80.6501C187.6 80.3501 187.7 78.5501 187.8 76.7501C188.1 71.6501 188.6 63.9501 184.5 61.2501C181.2 59.0501 178.8 59.7501 176.7 60.4501C175 60.9501 173.5 61.4501 171.7 60.4501C170.3 59.6501 169.8 58.3501 169.3 56.8501C168.3 53.8501 167 50.2501 158.8 47.8501C156.9 47.3501 154.9 47.5501 153 47.8501C150.5 48.2501 148 48.5501 145.8 47.1501L145.5 47.5501C147.9 49.0501 150.6 48.6501 153.1 48.3501C155 48.0501 156.9 47.8501 158.7 48.3501C166.7 50.6501 167.9 54.1501 168.9 57.0501C169.5 58.6501 170 60.1501 171.6 60.9501C173.6 62.0501 175.3 61.4501 177 60.9501C179.1 60.3501 181.2 59.6501 184.3 61.6501C188.2 64.2501 187.7 72.0501 187.4 76.7501C187.3 78.5501 187.2 79.6502 187.3 80.3502C186.5 80.0502 185.4 79.8501 184.2 79.6501C182 79.3501 179.6 78.9501 178.2 77.7501C177.5 77.1501 177.3 76.3501 176.9 75.2501C176.1 72.6501 175 69.0501 167.1 66.2501C164.4 65.7501 162.4 66.3501 161.3 66.9501C160.8 67.2501 160.5 67.7501 160.3 68.2501C160 68.8501 159.7 69.5501 158.8 70.0501C157.3 70.9501 148.9 71.3501 147.3 71.0501C147.2 71.0501 147.1 70.9501 147.1 70.9501C147.1 70.8501 147.2 70.5501 147.3 70.3501C147.6 69.5501 148.2 68.1501 146.9 66.5501L146.4 66.8501C147.5 68.2501 147.1 69.4501 146.8 70.2501C146.6 70.6501 146.5 71.0502 146.7 71.3502C146.8 71.5502 147 71.6501 147.3 71.6501C148.9 71.9501 157.5 71.6501 159.2 70.5501C160.2 69.9501 160.6 69.1501 160.9 68.5501C161.1 68.0501 161.3 67.6501 161.7 67.4501C162.7 66.9501 164.5 66.3501 167 66.8501C174.6 69.5501 175.7 73.0501 176.5 75.4501C176.8 76.5501 177.2 77.5501 177.9 78.1501C179.4 79.4501 181.9 79.8501 184.2 80.1501C185.7 80.3501 187.1 80.6501 187.7 81.0501C188.3 81.7501 189.1 81.8501 189.8 82.0501C190.5 82.1501 191.2 82.2501 191.9 82.7501C192.7 83.2501 193.3 86.0501 193.9 88.4501C194.5 91.2501 195.2 93.9502 196.1 94.8502Z" fill="url(#paint3_linear_6248_32232)"/>
<path d="M139.6 94.0501C140.4 93.3501 141 92.8501 142.7 93.1501C143.9 93.3501 145.5 93.9501 147.2 94.5501C150.3 95.6501 153.5 96.8501 155 96.2501C155.7 95.9501 156.2 95.5501 156.7 95.2501C157.7 94.4501 158.8 93.5501 162 94.0501C164.6 94.4501 166.6 95.6501 168.2 96.6501C169.6 97.5501 170.8 98.3501 172 98.2501C172.9 98.1501 173.6 97.7501 174.2 97.2501C175.3 96.4501 176.4 95.5501 179.3 96.7501C181.5 97.5501 182.1 98.8501 182.5 99.7501C183 100.75 183.4 101.65 185.5 101.35C187.7 101.05 189.2 99.7501 190.6 98.4501C191.6 97.5501 192.7 96.5501 194 95.9501L193.8 95.4501C192.3 96.0501 191.3 97.0501 190.2 98.0501C188.8 99.3501 187.5 100.55 185.4 100.85C183.7 101.15 183.5 100.55 183 99.5501C182.5 98.5501 181.9 97.2501 179.5 96.2501C176.3 95.0501 175 95.9501 173.8 96.8501C173.2 97.3501 172.7 97.6501 171.9 97.7501C170.9 97.8501 169.9 97.1501 168.5 96.2501C166.8 95.2501 164.8 93.9501 162.1 93.5501C158.6 93.0501 157.4 94.0501 156.3 94.8501C155.8 95.2501 155.4 95.6501 154.7 95.8501C153.4 96.3501 150.2 95.1501 147.4 94.1501C145.7 93.5501 144 92.9501 142.8 92.6501C140.8 92.2501 140 92.9501 139.2 93.6501C138.7 94.1501 138.1 94.6501 137 94.8501L137.1 95.3501C138.3 95.1501 139 94.5501 139.6 94.0501Z" fill="url(#paint4_linear_6248_32232)"/>
<path d="M217 91.4501C216.1 93.2501 215.6 97.7501 216.2 100.45C216.7 103.05 217.9 107.75 220 109.55C221.2 110.55 223.6 111.55 223.7 111.55L223.9 111.05C223.9 111.05 221.5 110.05 220.4 109.15C218.3 107.35 217.2 102.35 216.8 100.35C216.2 97.4501 216.8 93.1501 217.6 91.6501C218.5 89.9501 219.8 89.4501 220.4 89.3501C222.4 89.1501 224.2 92.1501 224.2 92.1501L224.7 91.9501C224.6 91.8501 222.7 88.5501 220.3 88.8501C219.3 88.9501 217.9 89.6501 217 91.4501Z" fill="url(#paint5_linear_6248_32232)"/>
<path d="M182.3 90.0501C182.7 89.1501 183.1 88.2501 184 87.6501C185.1 86.9501 187.8 85.4501 190.3 87.4501C191.3 88.2501 192.1 90.2501 192.8 92.1501C193.5 94.0501 194.3 95.8501 195.2 96.3501C196.2 96.9501 197.9 96.8501 199.9 96.7501C201.7 96.6501 203.5 96.5501 205 96.9501C208 97.7501 211.5 104.55 211.5 104.65L212 104.45C211.9 104.15 208.4 97.3501 205.1 96.4501C203.5 96.0501 201.6 96.1501 199.8 96.2501C198 96.3501 196.3 96.4501 195.5 95.9501C194.7 95.4501 194 93.6501 193.3 91.9501C192.5 89.9501 191.7 87.9501 190.6 87.0501C188.7 85.5501 186.1 85.5501 183.6 87.2501C182.6 87.9501 182.1 88.9501 181.7 89.9501C181.3 90.8501 180.9 91.7501 180 92.1501C178.2 92.9501 176.1 92.3501 175.3 91.2501C175.1 90.9501 174.9 90.6501 174.7 90.3501C174.1 89.3501 173.5 88.4501 172.1 87.2501C170.3 85.6501 162.7 82.7501 159 82.1501C156.9 81.8501 155.9 82.3501 154.9 82.9501C154.1 83.4501 153.3 83.8501 151.8 83.9501V84.4501C153.5 84.3501 154.4 83.7501 155.2 83.3501C156.2 82.8501 157 82.3501 158.9 82.5501C162.5 83.0501 169.9 85.9501 171.6 87.4501C172.9 88.5501 173.5 89.5501 174.1 90.4501C174.3 90.7501 174.5 91.0501 174.7 91.3501C175.6 92.6501 178 93.3501 180.1 92.4501C181.4 92.0501 181.9 91.0501 182.3 90.0501Z" fill="url(#paint6_linear_6248_32232)"/>
<path d="M214.8 112.55C213.3 112.75 212.1 114.35 210.9 115.95C210 117.25 208.8 119.05 207.8 120.75C206.9 122.25 206.1 123.55 205.7 124.05C205.6 124.15 205.4 124.35 205.2 124.45C203.8 125.25 200.5 125.85 197.9 125.65C196.4 125.55 195.2 125.65 194.3 125.75C193.3 125.85 192.6 125.95 191.9 125.75C191.4 125.55 191.3 125.25 191.2 124.65C191.1 124.15 191 123.45 190.1 123.05C189.3 122.75 188.4 122.85 187.6 123.05C186.8 123.15 186 123.25 185.5 122.95C185 122.65 184.9 122.25 184.7 121.85C184.5 121.35 184.3 120.85 183.6 120.45C183 120.05 182.1 120.55 181.1 121.25C179.6 122.25 177.5 123.55 174.9 123.05C172.1 122.45 172.2 121.65 172.4 120.55C172.5 120.05 172.6 119.35 172.3 118.75C171.9 117.65 169.4 116.75 166.8 115.75C164.8 114.95 162.7 114.15 162.1 113.45C161.5 112.65 161.3 111.95 161.2 111.35C161.1 110.65 161 110.05 160.3 109.65C159.5 109.05 158.5 109.35 157.5 109.65C156.9 109.85 156.3 109.95 156.1 109.85L155.8 110.25C156.3 110.45 156.9 110.25 157.6 110.05C158.4 109.85 159.3 109.55 159.9 109.95C160.4 110.35 160.5 110.75 160.6 111.35C160.7 111.95 160.9 112.75 161.6 113.65C162.3 114.45 164.3 115.25 166.5 116.05C168.8 116.95 171.4 117.95 171.7 118.75C171.9 119.25 171.8 119.75 171.7 120.35C171.5 121.55 171.3 122.75 174.6 123.45C177.5 124.05 179.7 122.65 181.3 121.65C182.2 121.15 182.9 120.65 183.2 120.85C183.8 121.15 183.9 121.65 184.1 122.05C184.3 122.45 184.5 122.95 185.1 123.35C185.8 123.85 186.7 123.65 187.6 123.55C188.4 123.45 189.2 123.35 189.8 123.55C190.4 123.75 190.5 124.15 190.6 124.75C190.7 125.25 190.8 125.85 191.6 126.25C192.4 126.55 193.2 126.45 194.3 126.35C195.2 126.25 196.3 126.15 197.8 126.25C199.4 126.35 201.4 126.15 203.1 125.75C201.1 126.85 198 128.35 195 128.55C192.5 128.75 191.6 128.25 190.2 127.65C188.9 127.05 187.3 126.35 183.8 125.75C178.7 124.95 174.1 126.95 171.6 128.35C171.1 128.25 167.8 127.25 166.8 124.85L166.3 123.65C165.4 121.35 164.6 119.25 164 118.25C163.2 116.85 160.6 115.75 159.1 115.55C158.2 115.45 157.6 115.85 157.1 116.25C156.6 116.55 156.2 116.95 155.4 116.85C154.8 116.85 154.1 115.95 153.4 114.95C152.4 113.55 151.1 111.75 149 111.05C146.5 110.25 145.3 111.05 144.3 111.85C143.8 112.25 143.3 112.55 142.7 112.75L142.8 113.25C143.5 113.05 144.1 112.65 144.6 112.25C145.6 111.55 146.5 110.85 148.7 111.55C150.6 112.25 151.9 113.85 152.8 115.25C153.6 116.45 154.3 117.35 155.2 117.35C156.2 117.45 156.8 116.95 157.3 116.65C157.8 116.25 158.2 115.95 158.9 116.15C160.6 116.45 162.8 117.55 163.4 118.65C164 119.65 164.8 121.75 165.6 124.05L166.1 125.25C167 127.55 169.6 128.55 170.8 128.95C170.1 129.35 169.6 129.75 169.6 129.75C169.6 129.75 164.9 134.45 161.4 136.55C157.8 138.65 154.9 138.65 153.9 137.45C153.3 136.85 153.3 135.65 153.2 134.25C153.2 132.95 153.1 131.45 152.6 130.15C151.8 128.15 148.8 126.75 147.8 126.35C146.5 125.75 144.6 125.25 143.8 125.55C142.2 126.05 141.7 128.25 141.7 128.35L142.2 128.45C142.2 128.45 142.7 126.45 143.9 125.95C144.4 125.75 145.8 126.05 147.5 126.75C149.3 127.55 151.4 128.85 152 130.25C152.5 131.45 152.5 132.85 152.6 134.15C152.7 135.65 152.7 136.95 153.4 137.65C154.6 138.95 157.7 139.15 161.7 136.85C165.2 134.75 169.7 130.25 170 129.95C170.3 129.65 176.6 125.25 183.5 126.35C187 126.85 188.5 127.65 189.7 128.25C190 128.35 190.3 128.55 190.5 128.65C188.8 129.25 187.8 129.15 187 129.15C185.8 129.05 185.2 129.15 184.2 130.55C182.9 132.45 182.7 136.15 182.5 138.55C182.4 139.55 182.4 140.35 182.3 140.75C181.9 142.35 181.2 143.05 179.7 143.45C178.5 143.75 178.1 143.45 177.5 143.05C177.3 142.95 177.1 142.75 176.9 142.65C176.6 142.45 176.4 142.05 176.1 141.65C175.5 140.75 174.7 139.45 172.7 139.55C171 139.65 170.4 140.65 169.8 141.75C169.4 142.45 169 143.15 168.2 143.75C166.2 145.15 160.4 146.75 157.3 147.05C153.8 147.35 147.2 146.75 146.8 146.25C146.7 146.05 147.1 145.15 147.5 144.55C148.1 143.25 149 141.75 148.7 140.65C148.7 140.45 148.6 140.35 148.6 140.15C148.3 138.75 148.1 138.65 146.6 138.75C145.5 138.85 145.4 139.55 145.3 140.15C145.2 140.55 145.2 140.95 144.8 141.25C144.1 141.75 141.4 141.55 140.4 141.55L140.3 142.05C140.7 142.05 144.1 142.45 145.1 141.75C145.6 141.35 145.7 140.85 145.8 140.35C145.9 139.75 146 139.35 146.6 139.35H147.6C147.7 139.45 147.8 139.75 148 140.35C148 140.55 148.1 140.65 148.1 140.85C148.3 141.75 147.6 143.25 147 144.45C146.4 145.55 146.1 146.15 146.3 146.55C146.7 147.65 154.7 147.95 157.4 147.75C160.7 147.45 166.5 145.85 168.6 144.35C169.5 143.75 170 142.95 170.4 142.25C171 141.25 171.4 140.45 172.9 140.35C174.5 140.25 175.1 141.25 175.8 142.15C176.1 142.65 176.4 143.05 176.8 143.25C177 143.35 177.2 143.55 177.4 143.65C178.1 144.15 178.6 144.55 180.1 144.15C181.8 143.65 182.7 142.75 183.1 141.05C183.2 140.75 183.2 140.25 183.3 139.55C183.6 139.95 183.6 140.35 183.6 140.85C183.6 141.35 183.6 141.85 184 142.35C184.7 143.15 185.7 142.65 186.5 142.35C186.8 142.15 187.2 142.05 187.4 142.05C187.6 142.05 187.7 142.15 187.8 142.25C188 142.55 188.1 143.05 188 143.75C187.9 144.55 186.6 145.65 185.8 146.35C185.5 146.65 185.3 146.85 185.1 146.95C184.9 147.25 184.9 147.65 184.9 147.95C184.9 148.35 185 148.75 184.7 149.25C184.5 149.45 184.3 149.65 183.9 149.65C183.3 149.75 182.5 149.45 182.3 149.25C182.2 149.15 182.2 148.95 182.2 148.75C182.2 148.45 182.2 148.05 181.9 147.65C181.4 147.15 180.6 146.95 179.4 147.05C178.7 147.15 178.7 147.65 178.7 148.15C178.7 148.65 178.7 149.25 177.9 149.55C177.3 149.75 176.8 149.45 176.1 149.05C175 148.45 173.6 147.75 171.7 148.75C169.3 149.95 169.6 151.25 169.8 152.25C169.9 152.55 169.9 152.85 169.8 153.05C169.7 153.25 169.6 153.35 169.5 153.35C169.3 153.35 169.1 153.25 169 153.25L168.7 153.65C168.7 153.65 169.2 153.95 169.7 153.85C170 153.75 170.2 153.55 170.4 153.15C170.5 152.85 170.5 152.45 170.4 152.05C170.2 151.15 170 150.15 172.1 149.15C173.8 148.35 174.9 148.85 176 149.45C176.8 149.85 177.5 150.25 178.3 149.95C179.4 149.55 179.5 148.65 179.5 148.15C179.5 147.65 179.6 147.55 179.7 147.55C180.7 147.45 181.4 147.65 181.7 148.05C181.9 148.25 181.8 148.55 181.8 148.75C181.8 149.05 181.8 149.45 182.1 149.65C182.4 149.95 183.3 150.25 184.1 150.15C184.6 150.15 185 149.85 185.3 149.55C185.7 148.95 185.7 148.35 185.6 147.95C185.6 147.65 185.6 147.45 185.7 147.35C185.8 147.25 186 147.05 186.3 146.85C187.2 146.05 188.6 144.95 188.7 144.05C188.8 143.25 188.7 142.55 188.4 142.15C188.2 141.95 187.9 141.85 187.6 141.75C187.3 141.75 186.9 141.95 186.4 142.15C185.6 142.55 185 142.75 184.6 142.35C184.3 141.95 184.3 141.55 184.3 141.15C184.3 140.55 184.3 139.85 183.5 139.25V139.05C183.6 136.65 183.9 133.05 185.1 131.25C185.9 129.95 186.4 130.05 187.4 130.05C188.3 130.05 189.6 130.15 191.7 129.35C192.5 129.65 193.5 129.75 195.2 129.65C200.2 129.35 205.3 125.75 205.6 125.45C205.8 125.25 206 125.15 206.2 124.95C206.6 124.45 207.4 123.15 208.3 121.65C209.3 119.95 210.4 118.05 211.4 116.85C212.5 115.35 213.7 113.85 214.9 113.65C215.5 113.55 216.1 113.75 216.7 114.25C219.2 116.05 228.1 118.25 228.4 118.25L228.5 117.75C228 117.65 219.4 115.45 217 113.85C216.2 112.75 215.5 112.45 214.8 112.55Z" fill="url(#paint7_linear_6248_32232)"/>
<path d="M217.1 116.15C214.4 116.85 211.5 120.45 210.7 121.65C209 124.25 208.7 130.15 209.3 132.85C209.6 134.05 210 134.95 210.5 135.75C210.9 136.65 211.3 137.35 211.3 138.35C211.3 140.45 211.6 141.55 212.4 142.45C212.6 142.65 212.8 142.75 212.9 142.75C213.3 142.75 213.7 142.35 214.2 141.95C214.5 141.65 215 141.15 215.2 141.15C215.3 141.15 215.4 141.35 215.5 141.45C216.3 142.75 215.2 143.85 215.1 143.85L215.5 144.25C215.5 144.25 217 142.95 216 141.25C215.8 140.95 215.6 140.75 215.3 140.75C214.8 140.65 214.3 141.15 213.8 141.65C213.5 141.95 213.1 142.35 213 142.25L212.9 142.15C212.2 141.25 211.9 140.25 211.9 138.25C211.9 137.15 211.5 136.35 211 135.45C210.6 134.65 210.2 133.85 209.9 132.65C209.3 130.05 209.7 124.25 211.3 121.85C212.3 120.35 215 117.15 217.4 116.55C218 116.35 219.2 116.65 220.1 117.05C225.1 119.05 228.7 119.65 228.7 119.65L228.8 119.15C228.8 119.15 225.3 118.45 220.3 116.55C219.5 116.45 218 115.85 217.1 116.15Z" fill="url(#paint8_linear_6248_32232)"/>
<path d="M216.6 114.95C215.6 115.05 214.5 116.05 214.1 116.35L214 116.45C211.6 118.25 209.3 121.05 208.7 122.75C208.5 123.25 208.4 123.85 208.2 124.65C206.7 127.55 206.1 130.35 205.5 133.05C205.2 134.55 204.9 136.05 204.4 137.55C203.1 141.55 195.9 148.35 195.6 148.65C195.3 148.85 189 153.45 186.9 153.85C186 154.05 181.3 155.05 180 155.55C178.9 155.95 176.8 161.75 176.4 162.95C176.3 165.75 176 169.85 175.7 170.25C175.4 170.75 173.7 171.25 172.9 171.15C172.6 171.15 172.4 170.85 172.2 170.45C171.8 169.95 171.4 169.35 170.5 169.15C169.9 169.05 168 169.45 164.9 170.15C162 170.85 158 171.75 157.3 171.45C156.7 171.25 156.6 170.85 156.5 170.45C156.4 170.05 156.3 169.65 155.6 169.55C155.4 169.55 155.2 169.55 155.1 169.65C154.8 169.95 154.8 170.45 154.9 171.35C154.9 172.15 155 173.15 154.6 173.65L155 173.95C155.5 173.35 155.5 172.25 155.4 171.35C155.4 170.85 155.3 170.25 155.4 170.05C155.7 170.05 155.7 170.25 155.8 170.55C155.9 170.95 156.1 171.55 157 171.85C157.8 172.15 160.6 171.55 164.9 170.55C167.3 170.05 169.8 169.45 170.3 169.55C170.9 169.65 171.3 170.15 171.7 170.55C172 170.95 172.3 171.35 172.8 171.45C173.7 171.55 175.6 170.95 176.1 170.35C176.5 169.85 176.8 164.45 176.9 162.85C178.1 159.55 179.6 156.05 180.2 155.85C181.2 155.45 184.4 154.75 187.1 154.25C189.4 153.75 195.8 149.05 196.1 148.95C196.4 148.65 203.8 141.85 205.1 137.65C205.6 136.15 205.9 134.65 206.2 133.15C206.6 131.05 207.1 128.75 208 126.55C207.9 127.85 207.8 129.15 207.7 130.45C207.6 131.55 207.5 132.55 207.4 133.45C206.7 139.65 205.7 143.15 203.9 145.45C202 148.05 194.7 155.65 193.8 156.35C193.3 156.65 192.8 156.85 192.1 156.95C191.6 157.05 191 157.25 190.4 157.45C188.1 158.45 185.5 162.05 183.7 164.75C182.7 166.15 181.9 167.35 181.5 167.55C180.8 167.95 180.4 167.85 179.8 167.55C179.4 167.35 179 167.25 178.4 167.25V167.75C178.9 167.75 179.3 167.95 179.6 168.05C180.2 168.35 180.8 168.55 181.8 167.95C182.3 167.65 183.1 166.55 184.1 164.95C185.9 162.35 188.4 158.75 190.6 157.85C191.2 157.55 191.7 157.45 192.3 157.35C193 157.15 193.6 157.05 194.2 156.65C195.1 156.05 202.4 148.25 204.4 145.65C206.2 143.35 207.2 139.75 208 133.45C208.1 132.65 208.2 131.55 208.3 130.45C208.5 127.65 208.8 124.55 209.4 122.95C210.1 121.25 212.3 118.65 214.6 116.85C214.6 116.85 214.7 116.85 214.7 116.75C215 116.45 216.1 115.55 216.9 115.45C217.7 115.35 219.2 115.85 221.3 116.55C223.3 117.25 225.8 118.05 228.8 118.85L228.9 118.35C225.9 117.65 223.5 116.75 221.5 116.15C219.1 115.35 217.6 114.85 216.6 114.95Z" fill="url(#paint9_linear_6248_32232)"/>
<path d="M140.5 167.75C140.9 167.75 141.6 168.25 142.3 168.65C143.6 169.45 145.1 170.45 146.3 169.85C146.9 169.55 147.5 168.75 148.2 167.75C149.4 166.05 151 163.85 153.8 163.05C158.3 161.65 166.3 158.15 166.4 158.05C166.5 158.05 172.8 153.65 178.9 155.15L179 154.65C172.7 153.15 166.5 157.25 166 157.55C165.9 157.55 165.7 157.65 165.4 157.85C165.3 157.25 164.8 155.95 163.6 155.05C162.6 154.35 161.4 154.15 160 154.25C157.5 154.55 155.2 155.65 153.1 156.65C151.3 157.45 149.8 158.25 148.7 158.15C147.7 158.05 147.6 157.55 147.4 156.85C147.2 156.05 146.9 155.05 145 154.85C143 154.65 142.2 155.95 141.5 156.95C140.9 157.75 140.6 158.25 139.9 158.25C138.1 158.15 135.6 155.75 135.6 155.75L135.2 156.05C135.3 156.15 137.8 158.55 139.8 158.65C140.8 158.75 141.4 157.95 141.9 157.15C142.6 156.15 143.3 155.15 144.9 155.25C146.4 155.45 146.6 156.05 146.8 156.85C147 157.55 147.3 158.35 148.6 158.45C149.9 158.55 151.4 157.75 153.3 156.95C155.3 155.95 157.6 154.95 160 154.65C161.3 154.45 162.4 154.75 163.2 155.35C164.4 156.15 164.8 157.55 164.9 157.95C162.5 158.95 156.9 161.35 153.5 162.35C150.5 163.25 148.8 165.65 147.6 167.25C147 168.15 146.4 168.85 145.9 169.15C145 169.65 143.7 168.75 142.4 168.05C141.6 167.55 140.9 167.15 140.4 167.05C139.6 166.95 138.5 167.65 137.1 168.45C135.9 169.25 134.5 170.05 133.6 170.15L133.7 170.65C134.8 170.45 136.2 169.65 137.5 168.85C138.8 168.45 140 167.65 140.5 167.75Z" fill="url(#paint10_linear_6248_32232)"/>
<path d="M218.9 117.85C217.4 118.45 216.2 120.25 215.3 121.45C215 121.95 214.6 122.35 214.4 122.55C214.2 122.75 214 122.75 213.7 122.85C213.1 122.95 212.5 123.15 212 124.45C211.1 126.35 210.7 130.95 211.8 132.45C212.2 133.05 212.8 133.15 213.1 133.15C214.2 133.05 215.3 131.75 215.7 130.55C216 129.75 216.9 129.65 217.8 129.65C218.6 129.65 219.4 129.55 219.8 128.95C220.1 128.55 220.4 128.45 220.6 128.45C220.9 128.55 221.3 128.95 221.4 130.05C221.6 131.55 220.9 133.75 220.9 133.75L221.4 133.85C221.4 133.75 222.1 131.55 221.9 129.95C221.8 128.85 221.3 128.15 220.7 127.95C220.2 127.85 219.7 128.05 219.3 128.65C219 129.05 218.4 129.05 217.7 129.15C216.7 129.25 215.5 129.35 215.1 130.45C214.7 131.65 213.7 132.65 213 132.65C212.7 132.65 212.4 132.55 212.2 132.25C211.3 130.95 211.6 126.65 212.5 124.65C213 123.55 213.4 123.45 213.9 123.35C214.2 123.35 214.5 123.25 214.8 122.95C215 122.75 215.3 122.25 215.7 121.75C216.5 120.55 217.7 118.85 219.1 118.25C220 117.85 221 118.25 222.5 118.85C223.8 119.35 225.5 120.15 227.7 120.45L227.8 119.95C225.6 119.65 224 118.95 222.7 118.45C221.2 117.95 220.1 117.45 218.9 117.85Z" fill="url(#paint11_linear_6248_32232)"/>
<path d="M89.2001 129.75C86.2001 129.75 83.7001 126.75 82.0001 121.15C80.4001 115.95 79.6001 108.85 79.6001 100.55C79.6001 92.2501 80.4001 85.1501 82.0001 79.9501C83.7001 74.3501 86.2001 71.3501 89.2001 71.3501C92.2001 71.3501 95.7001 74.5501 98.2001 79.9501C101 85.6501 102.5 93.0501 102.5 100.55C102.5 108.05 101 115.45 98.2001 121.15C95.7001 126.55 92.3001 129.75 89.2001 129.75ZM89.2001 71.5501C83.4001 71.5501 79.7001 82.9501 79.7001 100.65C79.7001 118.35 83.4001 129.75 89.2001 129.75C95.3001 129.75 102.4 117.05 102.4 100.65C102.4 84.2501 95.3001 71.5501 89.2001 71.5501Z" fill="#383F51"/>
<path d="M89.3 128.45C86.7 128.45 84.6 125.65 83.1 120.35C81.7 115.45 81 108.65 81 100.85C81 93.05 81.7 86.25 83.1 81.35C84.6 76.05 86.7 73.25 89.3 73.25C91.9 73.25 94.8 76.25 97.1 81.35C99.5 86.75 100.8 93.75 100.8 100.85C100.8 107.95 99.5 114.95 97.1 120.35C94.8 125.45 92 128.45 89.3 128.45ZM89.3 73.25C84.3 73.25 81.2 84.05 81.2 100.75C81.2 117.45 84.4 128.25 89.3 128.25C94.5 128.25 100.6 116.25 100.6 100.75C100.6 85.25 94.5 73.25 89.3 73.25Z" fill="#383F51"/>
<path d="M89.2001 126.65C87.1001 126.65 85.4001 124.05 84.3001 119.05C83.2001 114.45 82.6001 108.15 82.6001 100.85C82.6001 93.5501 83.2001 87.25 84.3001 82.65C85.5001 77.65 87.2001 75.05 89.2001 75.05C91.3001 75.05 93.8001 77.85 95.7001 82.65C97.8001 87.85 98.9001 94.2501 98.9001 100.85C98.9001 107.45 97.8001 113.95 95.7001 119.05C93.8001 123.85 91.4001 126.65 89.2001 126.65ZM89.2001 75.15C85.3001 75.15 82.7001 85.2501 82.7001 100.85C82.7001 116.45 85.2001 126.55 89.2001 126.55C91.3001 126.55 93.7001 123.75 95.6001 119.05C97.6001 113.95 98.8001 107.45 98.8001 100.85C98.8001 94.2501 97.7001 87.85 95.6001 82.65C93.7001 77.95 91.3001 75.15 89.2001 75.15Z" fill="#383F51"/>
<path d="M89.3001 124.55C85.5001 124.55 84.2001 111.85 84.2001 100.85C84.2001 89.85 85.6001 77.15 89.3001 77.15C92.7001 77.15 96.8001 87.75 96.8001 100.85C96.8001 113.95 92.7001 124.55 89.3001 124.55ZM89.3001 77.35C86.2001 77.35 84.3001 86.65 84.3001 100.95C84.3001 115.25 86.3001 124.55 89.3001 124.55C90.9001 124.55 92.8001 121.95 94.2001 117.65C95.8001 112.95 96.7001 107.05 96.7001 100.95C96.7001 94.85 95.8001 88.95 94.2001 84.25C92.7001 79.85 90.9001 77.35 89.3001 77.35Z" fill="#383F51"/>
<path d="M89.6 122.35C86.8 122.35 85.9 110.85 85.9 101.05C85.9 91.25 86.9 79.75 89.6 79.75C92.1 79.75 95.1 89.25 95.1 101.05C95.1 112.85 92.1 122.35 89.6 122.35ZM89.6 79.85C87.4 79.85 86 88.15 86 101.05C86 113.95 87.4 122.25 89.6 122.25C92 122.25 95 112.45 95 101.05C95 89.65 92 79.85 89.6 79.85Z" fill="#383F51"/>
<path d="M89.4 132.45C85.5 132.45 82.3001 129.15 80.2001 122.85C78.3001 117.15 77.3 109.45 77.3 100.45C77.3 91.4501 78.3001 83.7501 80.2001 78.0501C82.3001 71.7501 85.5 68.4501 89.4 68.4501C93.3 68.4501 97.6 71.9501 100.8 77.9501C104.2 84.2501 106 92.1501 106 100.45C106 108.75 104.2 116.65 100.8 122.95C97.5 128.95 93.3 132.45 89.4 132.45ZM89.4 69.5501C85.2 69.5501 82.7 74.3501 81.4 78.3501C79.6 83.8501 78.5 91.6501 78.5 100.35C78.5 109.05 79.5 116.95 81.4 122.35C82.8 126.35 85.3 131.15 89.4 131.15C92.9 131.15 96.7001 127.85 99.7001 122.25C103 116.15 104.8 108.35 104.8 100.25C104.8 92.1501 103 84.4501 99.7001 78.2501C96.7001 72.8501 92.8 69.5501 89.4 69.5501Z" fill="#383F51"/>
<path d="M58.7001 103.65L70.6001 105.35L68.7001 101.45C68.7001 101.45 68.6001 101.25 68.5001 100.95C71.9001 99.6501 77.8001 97.9501 82.0001 98.9501C82.3001 97.3501 82.5001 95.8501 82.2001 94.3501C76.4001 93.3501 69.7001 95.5501 66.5001 96.8501C66.5001 96.7501 66.4001 96.6501 66.4001 96.6501L64.6001 92.8501L58.7001 103.65Z" fill="#383F51"/>
<path d="M185.6 107.55L195.7 100.65V100.55L185.7 93.75L185.6 107.55Z" fill="#383F51"/>
<path d="M165.948 97.5264L165.877 102.826L186.275 103.1L186.346 97.8006L165.948 97.5264Z" fill="#383F51"/>
<path d="M180.5 73.55L184.8 62.05H184.7H172.7L180.5 73.55Z" fill="#383F51"/>
<path d="M175.559 65.1318L158.722 76.4717L161.682 80.8676L178.52 69.5278L175.559 65.1318Z" fill="#383F51"/>
<path d="M159.8 51.85L159 39.55L148 44.4501L159.8 51.85Z" fill="#383F51"/>
<path d="M151.843 46.094L141.724 62.1752L146.209 64.9979L156.328 48.9167L151.843 46.094Z" fill="#383F51"/>
<path d="M177.5 122.85L181.8 134.35H181.7L169.7 134.25L177.5 122.85Z" fill="#383F51"/>
<path d="M158.652 115.48L155.691 119.876L172.529 131.216L175.489 126.82L158.652 115.48Z" fill="#383F51"/>
<path d="M156.8 144.55L156 156.85L145 151.85L156.8 144.55Z" fill="#383F51"/>
<path d="M143.229 131.396L138.743 134.219L148.862 150.3L153.348 147.477L143.229 131.396Z" fill="#383F51"/>
<path d="M93.6 122.05C93.8 121.95 93.9 121.85 93.9 121.85L97.6 119.85L86.6 114.45L86.5 114.55L85.4 126.55L89.2 124.45C89.2 124.45 89.3 124.35 89.6 124.25C90 124.95 90.8 126.15 90.8 126.15C95 132.95 99.4 137.65 99.8 138.05L103.2 134.95C103.1 134.85 98.9 130.25 94.9 123.85C94.7 123.95 94 122.75 93.6 122.05Z" fill="#383F51"/>
</g>
<defs>
<radialGradient id="paint0_radial_6248_32232" cx="0" cy="0" r="1" gradientUnits="userSpaceOnUse" gradientTransform="translate(158.063 94.4855) rotate(-90) scale(81.1425 81.1425)">
<stop offset="0.27" stop-color="#212F3C" stop-opacity="0"/>
<stop offset="1" stop-color="#212F3C"/>
</radialGradient>
<linearGradient id="paint1_linear_6248_32232" x1="55" y1="104.9" x2="63.38" y2="153.3" gradientUnits="userSpaceOnUse">
<stop offset="0.05" stop-color="#8DBCAD"/>
<stop offset="0.39" stop-color="#5EA6AE"/>
<stop offset="0.59" stop-color="#5CA7AF"/>
<stop offset="0.66" stop-color="#5796AC"/>
<stop offset="0.81" stop-color="#507DA7"/>
<stop offset="0.88" stop-color="#4E74A6"/>
</linearGradient>
<linearGradient id="paint2_linear_6248_32232" x1="67.548" y1="133.555" x2="271.259" y2="34.9681" gradientUnits="userSpaceOnUse">
<stop offset="0.33" stop-color="#5796AC" stop-opacity="0.7"/>
<stop offset="0.81" stop-color="#507DA7" stop-opacity="0.89"/>
<stop offset="0.88" stop-color="#4E74A6" stop-opacity="0.98"/>
</linearGradient>
<linearGradient id="paint3_linear_6248_32232" x1="63.7045" y1="127.069" x2="270.674" y2="26.9056" gradientUnits="userSpaceOnUse">
<stop offset="0.33" stop-color="#5796AC" stop-opacity="0.7"/>
<stop offset="0.81" stop-color="#507DA7" stop-opacity="0.89"/>
<stop offset="0.88" stop-color="#4E74A6" stop-opacity="0.98"/>
</linearGradient>
<linearGradient id="paint4_linear_6248_32232" x1="71.987" y1="136.951" x2="274.143" y2="39.1177" gradientUnits="userSpaceOnUse">
<stop offset="0.33" stop-color="#5796AC" stop-opacity="0.7"/>
<stop offset="0.81" stop-color="#507DA7" stop-opacity="0.89"/>
<stop offset="0.88" stop-color="#4E74A6" stop-opacity="0.98"/>
</linearGradient>
<linearGradient id="paint5_linear_6248_32232" x1="90.2535" y1="159.913" x2="283.91" y2="66.1921" gradientUnits="userSpaceOnUse">
<stop offset="0.33" stop-color="#5796AC" stop-opacity="0.7"/>
<stop offset="0.81" stop-color="#507DA7" stop-opacity="0.89"/>
<stop offset="0.88" stop-color="#4E74A6" stop-opacity="0.98"/>
</linearGradient>
<linearGradient id="paint6_linear_6248_32232" x1="72.7741" y1="142.759" x2="277.995" y2="43.4426" gradientUnits="userSpaceOnUse">
<stop offset="0.33" stop-color="#5796AC" stop-opacity="0.7"/>
<stop offset="0.81" stop-color="#507DA7" stop-opacity="0.89"/>
<stop offset="0.88" stop-color="#4E74A6" stop-opacity="0.98"/>
</linearGradient>
<linearGradient id="paint7_linear_6248_32232" x1="152.026" y1="75.469" x2="216.843" y2="187.296" gradientUnits="userSpaceOnUse">
<stop offset="0.33" stop-color="#5796AC" stop-opacity="0.7"/>
<stop offset="0.81" stop-color="#507DA7" stop-opacity="0.89"/>
<stop offset="0.88" stop-color="#4E74A6" stop-opacity="0.98"/>
</linearGradient>
<linearGradient id="paint8_linear_6248_32232" x1="180.714" y1="62.7265" x2="243.688" y2="171.374" gradientUnits="userSpaceOnUse">
<stop offset="0.33" stop-color="#5796AC" stop-opacity="0.7"/>
<stop offset="0.81" stop-color="#507DA7" stop-opacity="0.89"/>
<stop offset="0.88" stop-color="#4E74A6" stop-opacity="0.98"/>
</linearGradient>
<linearGradient id="paint9_linear_6248_32232" x1="153.455" y1="81.3946" x2="213.795" y2="185.498" gradientUnits="userSpaceOnUse">
<stop offset="0.33" stop-color="#5796AC" stop-opacity="0.7"/>
<stop offset="0.81" stop-color="#507DA7" stop-opacity="0.89"/>
<stop offset="0.88" stop-color="#4E74A6" stop-opacity="0.98"/>
</linearGradient>
<linearGradient id="paint10_linear_6248_32232" x1="114.132" y1="92.2399" x2="182.377" y2="209.981" gradientUnits="userSpaceOnUse">
<stop offset="0.33" stop-color="#5796AC" stop-opacity="0.7"/>
<stop offset="0.81" stop-color="#507DA7" stop-opacity="0.89"/>
<stop offset="0.88" stop-color="#4E74A6" stop-opacity="0.98"/>
</linearGradient>
<linearGradient id="paint11_linear_6248_32232" x1="181.955" y1="61.5384" x2="245.438" y2="171.064" gradientUnits="userSpaceOnUse">
<stop offset="0.33" stop-color="#5796AC" stop-opacity="0.7"/>
<stop offset="0.81" stop-color="#507DA7" stop-opacity="0.89"/>
<stop offset="0.88" stop-color="#4E74A6" stop-opacity="0.98"/>
</linearGradient>
<clipPath id="clip0_6248_32232">
<rect width="259.4" height="186.9" fill="white" transform="translate(30.3 6.55005)"/>
</clipPath>
</defs>
</svg>
