<svg width="330" height="330" viewBox="0 0 330 330" fill="none" xmlns="http://www.w3.org/2000/svg">
<g clip-path="url(#clip0_3618_19418)">
<path d="M165.471 301.774C160.993 301.774 156.514 301.42 152.095 300.713C143.373 299.24 139.425 297.884 136.361 296.588C120.627 290.695 107.132 280.324 97.3499 266.534C87.391 252.45 82.0874 235.833 82.0874 218.508C82.0874 206.486 84.6213 194.877 89.5713 183.975C94.3446 173.486 101.18 164.234 109.784 156.515L111.434 154.806C116.796 149.267 116.973 149.09 119.684 146.025L120.155 145.495C123.514 141.665 130.527 133.65 140.309 127.286C141.311 126.638 142.666 126.049 144.493 125.518L144.728 126.284C143.02 126.815 141.664 127.404 140.78 127.993C131.116 134.299 124.162 142.254 120.803 146.025L120.332 146.556C117.621 149.62 117.386 149.856 112.082 155.395L110.373 157.163C92.9303 172.779 82.9124 195.172 82.9124 218.508C82.9124 252.804 104.48 283.859 136.655 295.822C139.661 297.059 143.609 298.474 152.212 299.888C156.573 300.595 160.993 300.949 165.471 300.949C210.964 300.949 247.971 263.941 247.971 218.449C247.971 194.641 237.659 172.013 219.745 156.338C217.977 154.511 216.739 153.215 215.737 152.213C213.145 149.561 212.555 148.913 210.434 146.556C210.08 146.143 209.668 145.672 209.255 145.2C205.778 141.193 199.355 133.709 190.339 128.229C185.92 125.518 176.609 123.927 164.882 123.868C160.345 123.868 155.748 124.163 151.564 124.811C151.505 124.811 151.328 124.87 151.093 124.87C150.916 124.929 150.739 124.929 150.68 124.929L150.562 124.104C150.621 124.104 150.739 124.045 150.975 124.045C151.211 123.986 151.446 123.986 151.446 123.986C155.689 123.338 160.345 122.984 164.882 122.984C176.727 123.043 186.155 124.693 190.752 127.463C199.886 133.002 206.368 140.604 209.845 144.611C210.316 145.142 210.67 145.613 211.023 145.967C213.086 148.324 213.734 148.913 216.268 151.565C217.27 152.567 218.507 153.863 220.275 155.69C229.114 163.409 236.127 172.779 241.077 183.386C246.203 194.406 248.796 206.191 248.796 218.39C248.796 229.645 246.616 240.547 242.255 250.8C238.071 260.7 232.061 269.599 224.4 277.259C216.739 284.92 207.841 290.931 197.941 295.115C187.628 299.534 176.727 301.774 165.471 301.774Z" fill="#323A50"/>
<path opacity="0.2" d="M207.664 155.336C210.61 153.686 212.201 152.567 209.196 149.149C204.069 143.315 192.048 124.929 168.83 124.752L165.942 124.693H165.117H163.821C140.603 124.87 126.578 143.315 121.451 149.149C118.387 152.626 120.803 154.629 122.159 155.69C128.169 151.859 133.591 148.854 140.662 146.556C140.839 146.497 149.737 142.254 164.646 142.136C164.705 142.136 174.723 142.077 184.269 145.024C195.878 147.97 201.417 151.801 207.664 155.336Z" fill="url(#paint0_linear_3618_19418)"/>
<path opacity="0.2" d="M165.118 286.452C202.74 286.452 233.239 256.111 233.239 218.684C233.239 181.257 202.74 150.916 165.118 150.916C127.495 150.916 96.9961 181.257 96.9961 218.684C96.9961 256.111 127.495 286.452 165.118 286.452Z" fill="url(#paint1_radial_3618_19418)"/>
<path opacity="0.34" d="M236.48 187.04C236.421 186.863 236.362 186.686 236.244 186.568C236.009 187.04 235.596 187.452 235.066 187.806C233.652 188.631 231.471 188.218 230.764 186.686C230.352 185.861 229.939 185.095 229.409 184.329C229.173 183.917 228.878 183.563 228.584 183.151C228.466 182.974 228.466 182.974 228.584 183.151C228.525 183.092 228.466 182.974 228.407 182.915C228.289 182.738 228.112 182.561 227.994 182.385C226.757 180.97 225.284 179.556 224.105 178.731C223.339 178.201 222.573 177.729 221.748 177.317C221.512 177.199 221.276 177.081 221.041 176.963C220.982 176.963 220.982 176.963 220.982 176.904C220.569 176.727 220.157 176.61 219.685 176.492C219.214 176.374 218.743 176.256 218.271 176.138C218.271 176.138 217.564 176.02 217.623 176.02C217.446 176.02 217.328 175.961 217.152 175.961C216.032 175.843 214.971 175.843 213.852 175.843C209.785 175.961 206.309 176.61 202.36 177.081C198.177 177.611 194.052 177.906 189.868 178.201C181.677 178.79 173.544 179.792 165.294 179.91C161.287 179.968 157.221 179.261 153.273 178.554C149.325 177.847 145.671 177.317 141.9 176.904C133.944 175.961 125.93 175.49 117.916 176.256C116.266 176.374 115.028 174.96 114.793 173.486C114.734 173.486 114.675 173.486 114.616 173.545C114.144 173.663 113.673 173.781 113.26 173.958C113.025 174.017 112.789 174.135 112.494 174.193C112.377 174.252 112.318 174.252 112.259 174.311C110.373 175.136 108.546 176.197 106.896 177.493C106.837 177.552 106.484 177.847 106.425 177.847C106.189 178.024 105.953 178.201 105.777 178.436C105.364 178.79 105.01 179.143 104.598 179.497C103.832 180.263 103.066 181.088 102.418 181.913C102.359 181.972 102.359 182.031 102.3 182.031L102.241 182.09C102.064 182.326 101.887 182.502 101.769 182.738C101.534 183.151 101.239 183.504 101.003 183.917C100.768 184.329 100.532 184.683 100.355 185.095C100.296 185.213 100.002 185.979 100.296 185.213C100.237 185.449 100.119 185.626 100.06 185.861C99.4711 187.511 97.939 188.454 96.1712 188.042C95.5819 187.924 95.0515 187.57 94.639 187.099C94.5801 187.217 94.6979 187.335 94.639 187.452C90.6908 196.763 88.3926 206.899 88.3926 217.683C88.3926 260.347 122.984 294.938 165.648 294.938C208.312 294.938 242.903 260.347 242.903 217.683C242.844 206.781 240.546 196.41 236.48 187.04Z" fill="url(#paint2_linear_3618_19418)"/>
<g opacity="0.2">
<path d="M225.991 246.439L225.52 246.38C225.225 248.738 218.33 251.979 216.857 252.214C216.268 252.332 215.914 252.155 215.561 252.038C215.03 251.861 214.559 251.625 213.616 252.156C212.084 253.098 206.78 258.932 205.543 261.761C204.364 264.648 203.657 266.18 200.946 267.241C199.473 267.83 197.234 267.83 194.877 267.83C192.696 267.83 190.457 267.831 188.748 268.302C186.155 269.009 183.68 270.188 182.502 270.777C183.15 270.07 183.739 269.304 184.329 268.656C185.389 267.418 186.332 266.298 186.921 265.886C187.688 265.297 190.457 265.002 193.463 264.707C197.411 264.295 201.948 263.764 203.363 262.468C204.954 260.936 207.193 255.338 208.961 250.8C209.904 248.384 210.729 246.322 211.259 245.497C211.789 244.613 213.263 243.611 214.854 242.55C217.564 240.782 220.629 238.72 220.57 236.304H220.098C220.157 238.484 217.211 240.488 214.618 242.197C212.909 243.316 211.436 244.318 210.846 245.32C210.316 246.204 209.491 248.266 208.548 250.682C206.78 255.161 204.541 260.7 203.068 262.173C202.538 262.645 201.477 263.057 200.18 263.352C201.064 262.881 202.066 262.173 202.773 261.231C204.07 259.581 205.189 255.691 205.72 253.57C205.838 253.216 205.896 252.922 205.955 252.686C206.132 252.038 205.896 251.625 205.661 251.213C205.366 250.741 205.071 250.27 205.248 249.091C205.484 247.795 206.191 247.264 207.016 246.734C207.546 246.322 208.077 245.968 208.489 245.32C209.491 243.729 208.843 242.079 208.548 241.254V241.195C208.313 240.606 207.782 240.664 207.37 240.664C206.957 240.664 206.721 240.723 206.604 240.488C206.486 240.252 206.78 239.78 207.134 239.309C207.605 238.602 208.195 237.777 207.841 237.07L207.429 237.247C207.664 237.777 207.193 238.425 206.78 239.014C206.309 239.663 205.896 240.252 206.25 240.723C206.545 241.254 207.075 241.195 207.488 241.136C207.9 241.077 208.077 241.077 208.195 241.313V241.372C208.548 242.255 209.079 243.67 208.195 245.025C207.841 245.556 207.37 245.968 206.839 246.322C206.014 246.911 205.189 247.5 204.895 249.032C204.659 250.388 205.013 250.977 205.366 251.448C205.602 251.802 205.72 252.038 205.602 252.509C205.543 252.686 205.484 253.039 205.366 253.393C204.836 255.279 203.716 259.286 202.479 260.877C201.064 262.645 198.589 263.588 198.413 263.647C196.88 263.882 195.113 264.059 193.521 264.236C190.398 264.589 187.688 264.884 186.804 265.473C186.155 265.945 185.213 267.064 184.093 268.361C181.971 270.895 179.025 274.313 177.021 274.195C175.961 274.136 174.841 273.9 173.663 273.664C171.246 273.193 168.536 272.604 165.589 273.134C159.52 274.254 157.457 275.432 156.279 276.906C155.1 278.261 154.511 280.029 154.511 280.088L154.923 280.264C154.923 280.264 155.513 278.497 156.632 277.2C157.752 275.845 159.755 274.725 165.648 273.606C168.477 273.075 171.188 273.605 173.545 274.136C174.782 274.372 175.902 274.607 176.963 274.725C178.495 274.843 180.263 273.311 181.971 271.543L182.03 271.72C182.089 271.72 185.389 269.834 188.925 268.891C190.634 268.42 192.814 268.42 194.936 268.42C197.352 268.42 199.65 268.42 201.123 267.83C204.011 266.711 204.836 265.002 206.014 262.114C207.134 259.404 212.379 253.629 213.852 252.745C214.559 252.273 214.913 252.45 215.384 252.627C215.796 252.804 216.268 252.98 216.975 252.863C218.566 252.391 225.579 249.091 225.991 246.439Z" fill="url(#paint3_linear_3618_19418)"/>
<path d="M170.127 257.401C169.361 258.226 169.479 259.64 169.597 261.231C169.714 262.763 169.891 264.472 169.184 265.945C167.829 268.715 161.759 270.895 161.7 270.954L161.818 271.425C162.054 271.367 168.123 269.186 169.538 266.24C170.245 264.708 170.127 262.881 170.009 261.29C169.891 259.817 169.773 258.52 170.422 257.872C171.129 257.165 173.663 256.575 175.902 256.104C178.495 255.515 180.734 254.984 181.264 254.277C181.795 253.57 181.913 252.922 181.972 252.333C182.089 251.684 182.148 251.213 182.738 250.8C183.032 250.624 184.564 250.683 186.214 250.8C190.752 251.036 197.647 251.449 200.063 248.031C202.007 245.32 201.359 243.317 200.77 241.608C200.298 240.193 199.886 238.956 200.77 237.542C201.418 236.363 202.656 236.009 204.011 235.538C206.663 234.654 209.963 233.652 212.084 226.817C212.556 225.225 212.32 223.575 212.084 221.984C211.731 219.863 211.436 217.918 212.673 216.033L212.261 215.797C210.906 217.8 211.259 219.981 211.554 222.102C211.789 223.693 212.025 225.225 211.554 226.699C209.491 233.299 206.368 234.3 203.834 235.125C202.361 235.597 201.123 236.009 200.357 237.306C199.414 238.956 199.886 240.429 200.357 241.784C200.947 243.493 201.536 245.261 199.709 247.795C197.411 250.977 190.398 250.565 186.214 250.388C184.623 250.329 183.563 250.27 182.973 250.329C183.209 249.681 183.386 248.738 183.563 247.736C183.857 245.968 184.211 243.906 185.272 242.786C185.802 242.256 186.509 242.02 187.511 241.725C189.809 241.077 193.05 240.134 195.584 233.593V233.534C196.056 231.295 195.525 229.704 194.995 228.761C194.759 228.349 194.288 228.113 193.816 227.877C193.286 227.642 192.697 227.347 192.225 226.64C191.4 225.402 191.047 218.508 191.341 217.152C191.341 217.034 191.4 216.975 191.4 216.975C191.459 216.917 191.754 217.034 191.989 217.093C192.697 217.329 193.934 217.801 195.407 216.74L195.172 216.327C193.875 217.27 192.873 216.917 192.166 216.622C191.754 216.504 191.459 216.386 191.223 216.504C191.106 216.563 190.988 216.74 190.929 216.975C190.693 218.272 190.929 225.343 191.872 226.817C192.402 227.583 193.109 227.936 193.639 228.231C194.052 228.408 194.406 228.584 194.582 228.879C195.054 229.763 195.584 231.177 195.113 233.299C192.697 239.604 189.632 240.488 187.393 241.136C186.391 241.431 185.566 241.667 184.977 242.315C183.857 243.552 183.504 245.615 183.15 247.5C182.973 248.738 182.738 249.858 182.384 250.388C181.736 250.859 181.618 251.508 181.5 252.156C181.382 252.745 181.323 253.275 180.852 253.924C180.381 254.572 177.906 255.102 175.725 255.574C173.309 256.045 170.893 256.576 170.127 257.401Z" fill="url(#paint4_linear_3618_19418)"/>
<path d="M170.834 210.67C171.423 211.318 171.895 211.79 171.6 213.204C171.423 214.147 170.893 215.502 170.304 216.975C169.302 219.568 168.3 222.161 168.772 223.398C169.007 223.988 169.361 224.4 169.714 224.813C170.422 225.697 171.247 226.581 170.834 229.232C170.481 231.354 169.361 233.004 168.477 234.359C167.711 235.538 167.004 236.54 167.063 237.541C167.122 238.307 167.534 238.838 168.006 239.309C168.713 240.252 169.479 241.136 168.477 243.493C167.711 245.32 166.65 245.791 165.766 246.145C164.823 246.557 164.057 246.911 164.293 248.679C164.588 250.506 165.766 251.743 166.886 252.863C167.711 253.688 168.536 254.572 169.125 255.691L169.538 255.515C168.948 254.336 168.064 253.393 167.239 252.568C166.12 251.448 165.059 250.329 164.764 248.62C164.529 247.206 165 247.029 165.943 246.616C166.827 246.204 168.064 245.673 168.889 243.729C170.009 241.077 169.125 240.016 168.3 239.015C167.888 238.484 167.534 238.072 167.475 237.482C167.416 236.716 168.006 235.773 168.772 234.654C169.714 233.298 170.893 231.59 171.188 229.35C171.659 226.463 170.775 225.461 170.009 224.577C169.656 224.165 169.361 223.811 169.125 223.281C168.713 222.22 169.773 219.568 170.657 217.211C171.247 215.738 171.777 214.382 171.954 213.381C172.307 211.731 171.718 211.082 171.07 210.434C170.657 209.963 170.186 209.491 170.009 208.607L169.538 208.725C169.832 209.668 170.363 210.198 170.834 210.67Z" fill="url(#paint5_linear_3618_19418)"/>
<path d="M173.191 274.607C171.6 273.841 167.593 273.488 165.118 273.959C162.761 274.371 158.577 275.314 156.986 277.082C156.043 278.084 155.218 280.029 155.218 280.146L155.63 280.323C155.63 280.323 156.514 278.379 157.339 277.436C158.93 275.727 163.409 274.784 165.236 274.489C167.887 274.018 171.659 274.489 173.014 275.138C174.487 275.845 175.018 276.905 175.077 277.436C175.253 279.086 172.543 280.559 172.543 280.559L172.72 280.971C172.837 280.913 175.784 279.321 175.489 277.377C175.43 276.552 174.723 275.373 173.191 274.607Z" fill="url(#paint6_linear_3618_19418)"/>
<path d="M174.37 246.027C175.195 246.38 176.02 246.675 176.55 247.441C177.198 248.325 178.495 250.623 176.727 252.627C176.02 253.452 174.252 254.1 172.543 254.748C170.834 255.337 169.243 255.927 168.772 256.752C168.241 257.577 168.3 258.991 168.418 260.641C168.536 262.114 168.595 263.646 168.3 264.825C167.593 267.241 161.523 270.187 161.464 270.187L161.641 270.6C161.877 270.482 168.005 267.595 168.772 264.943C169.125 263.646 169.007 262.055 168.889 260.582C168.771 259.05 168.713 257.695 169.125 256.987C169.538 256.339 171.129 255.75 172.661 255.22C174.429 254.571 176.255 253.923 177.022 252.98C178.377 251.389 178.318 249.268 176.845 247.205C176.255 246.321 175.313 245.968 174.488 245.614C173.663 245.261 172.838 244.966 172.484 244.2C171.777 242.668 172.307 240.959 173.25 240.311C173.486 240.134 173.78 240.016 174.016 239.839C174.9 239.309 175.725 238.837 176.786 237.659C178.2 236.127 180.852 229.88 181.323 226.875C181.618 225.107 181.146 224.282 180.616 223.457C180.204 222.809 179.791 222.161 179.673 220.864L179.202 220.923C179.32 222.279 179.791 223.045 180.204 223.693C180.675 224.459 181.147 225.166 180.852 226.757C180.38 229.704 177.788 235.832 176.432 237.305C175.43 238.425 174.546 238.896 173.721 239.427C173.486 239.604 173.191 239.721 172.955 239.898C171.836 240.605 171.188 242.609 172.013 244.377C172.602 245.261 173.486 245.673 174.37 246.027Z" fill="url(#paint7_linear_3618_19418)"/>
</g>
<g opacity="0.2">
<path d="M154.216 272.84C154.039 271.602 152.625 270.6 151.152 269.599C150.032 268.833 148.323 267.89 146.85 267.006C145.554 266.299 144.375 265.592 143.962 265.297C143.845 265.238 143.727 265.061 143.609 264.884C142.902 263.765 142.371 260.995 142.489 258.815C142.548 257.577 142.43 256.634 142.371 255.868C142.254 255.043 142.195 254.454 142.43 253.924C142.607 253.511 142.902 253.452 143.373 253.393C143.845 253.334 144.493 253.217 144.787 252.45C145.023 251.802 144.905 251.036 144.846 250.388C144.787 249.74 144.67 249.092 144.964 248.62C145.259 248.208 145.554 248.09 145.966 247.972C146.379 247.795 146.85 247.618 147.262 247.029C147.616 246.499 147.145 245.792 146.555 244.908C145.671 243.67 144.493 241.902 144.964 239.781C145.495 237.483 146.202 237.542 147.204 237.718C147.675 237.777 148.264 237.895 148.795 237.659C149.737 237.306 150.621 235.243 151.505 233.122C152.212 231.472 152.92 229.763 153.568 229.292C154.275 228.761 154.864 228.643 155.454 228.525C156.043 228.408 156.573 228.349 156.986 227.759C157.516 227.111 157.221 226.227 156.986 225.461C156.868 224.99 156.691 224.518 156.809 224.283L156.396 224.047C156.22 224.459 156.337 224.99 156.514 225.579C156.691 226.227 156.927 227.052 156.573 227.465C156.22 227.877 155.866 227.936 155.277 228.054C154.687 228.172 153.98 228.29 153.214 228.879C152.507 229.409 151.8 231.118 151.034 232.945C150.268 234.831 149.384 236.952 148.618 237.247C148.146 237.424 147.675 237.365 147.204 237.306C146.143 237.188 145.082 237.011 144.434 239.722C143.904 242.079 145.141 243.906 146.084 245.261C146.555 245.968 147.027 246.558 146.791 246.852C146.496 247.324 146.143 247.442 145.73 247.618C145.318 247.736 144.905 247.913 144.552 248.443C144.139 249.033 144.257 249.799 144.375 250.506C144.493 251.154 144.552 251.802 144.375 252.333C144.198 252.863 143.786 252.922 143.314 252.981C142.843 253.04 142.312 253.099 142.018 253.806C141.782 254.454 141.841 255.102 141.959 255.986C142.077 256.752 142.136 257.636 142.077 258.874C141.959 260.229 142.136 261.879 142.489 263.293C141.487 261.643 140.191 259.109 139.955 256.634C139.779 254.513 140.191 253.806 140.721 252.686C141.252 251.625 141.9 250.329 142.43 247.383C143.137 243.199 141.311 239.309 140.132 237.306C140.25 236.893 141.075 234.124 143.255 233.358L144.375 232.945C146.437 232.238 148.264 231.531 149.207 231.059C150.445 230.411 151.446 228.29 151.623 226.993C151.741 226.227 151.387 225.756 151.034 225.343C150.739 224.931 150.445 224.577 150.445 223.929C150.504 223.399 151.27 222.868 152.154 222.279C153.391 221.395 154.982 220.393 155.63 218.625C156.396 216.504 155.63 215.561 154.982 214.736C154.629 214.324 154.334 213.97 154.216 213.44L153.804 213.558C153.921 214.147 154.334 214.618 154.687 215.031C155.336 215.856 155.925 216.622 155.277 218.449C154.687 220.04 153.155 221.042 151.977 221.867C150.916 222.574 150.15 223.104 150.091 223.87C150.032 224.695 150.445 225.167 150.739 225.579C151.093 225.992 151.329 226.286 151.211 226.875C150.975 228.231 149.973 230.117 149.03 230.647C148.087 231.118 146.202 231.767 144.198 232.474L143.079 232.886C141.075 233.593 140.132 235.833 139.779 236.775C139.366 236.186 139.13 235.833 139.071 235.774C139.012 235.715 134.829 231.884 132.943 228.997C131.057 226.05 131.116 223.634 132.118 222.75C132.648 222.279 133.709 222.22 135.005 222.161C136.184 222.102 137.48 222.043 138.659 221.631C140.427 220.983 141.723 218.449 142.018 217.683C142.548 216.563 143.02 215.031 142.725 214.324C142.254 213.027 140.309 212.615 140.191 212.556L140.132 213.027C140.132 213.027 141.959 213.44 142.312 214.5C142.43 214.913 142.254 216.033 141.605 217.506C140.957 218.979 139.779 220.747 138.482 221.218C137.362 221.631 136.125 221.69 135.005 221.749C133.709 221.808 132.53 221.867 131.882 222.397C130.762 223.399 130.527 225.933 132.648 229.233C134.475 232.12 138.541 235.833 138.836 236.068C139.071 236.363 143.079 241.49 142.077 247.206C141.605 250.034 140.957 251.331 140.427 252.333C140.309 252.568 140.191 252.804 140.073 253.04C139.543 251.625 139.602 250.8 139.661 250.152C139.72 249.209 139.661 248.679 138.364 247.854C136.655 246.793 133.355 246.617 131.175 246.499C130.291 246.44 129.525 246.381 129.171 246.322C127.757 245.968 127.109 245.379 126.755 244.142C126.461 243.14 126.696 242.845 127.168 242.315C127.286 242.197 127.404 242.02 127.58 241.843C127.757 241.608 128.111 241.372 128.464 241.195C129.289 240.724 130.409 240.075 130.291 238.425C130.232 237.011 129.289 236.54 128.346 236.009C127.698 235.656 127.05 235.361 126.579 234.654C125.341 233.004 123.868 228.231 123.632 225.638C123.337 222.75 123.868 217.27 124.339 216.917C124.516 216.858 125.282 217.211 125.871 217.506C126.991 218.036 128.405 218.684 129.348 218.449C129.525 218.39 129.643 218.39 129.82 218.331C131.057 218.036 131.175 217.918 131.116 216.681C131.057 215.797 130.409 215.679 129.879 215.62C129.466 215.561 129.171 215.502 128.936 215.208C128.464 214.618 128.641 212.379 128.7 211.554L128.229 211.495C128.17 211.849 127.875 214.618 128.523 215.502C128.877 215.915 129.348 215.974 129.761 216.033C130.35 216.15 130.645 216.209 130.645 216.681C130.704 217.152 130.704 217.388 130.586 217.506C130.468 217.624 130.173 217.683 129.702 217.8C129.584 217.859 129.407 217.859 129.23 217.918C128.405 218.095 127.109 217.506 126.048 216.975C125.046 216.504 124.516 216.268 124.162 216.386C123.22 216.74 122.925 223.34 123.102 225.579C123.337 228.29 124.811 233.122 126.166 234.831C126.696 235.538 127.462 235.95 128.052 236.304C128.995 236.775 129.702 237.188 129.761 238.367C129.82 239.722 128.995 240.193 128.111 240.724C127.698 240.959 127.345 241.195 127.109 241.49C126.991 241.667 126.873 241.843 126.755 241.961C126.284 242.492 125.93 242.963 126.284 244.2C126.696 245.615 127.521 246.322 129.054 246.675C129.348 246.734 129.761 246.793 130.35 246.793C129.996 247.029 129.643 247.029 129.23 247.029C128.818 247.029 128.287 246.97 127.875 247.324C127.109 247.854 127.58 248.738 127.934 249.386C128.052 249.681 128.229 249.975 128.229 250.152C128.229 250.27 128.17 250.388 128.052 250.506C127.816 250.683 127.345 250.742 126.696 250.683C125.989 250.565 124.987 249.504 124.398 248.856C124.162 248.62 123.986 248.384 123.868 248.325C123.632 248.149 123.279 248.149 122.984 248.208C122.63 248.267 122.218 248.267 121.864 248.031C121.687 247.913 121.511 247.677 121.511 247.383C121.452 246.852 121.687 246.263 121.864 246.086C121.923 246.027 122.1 246.027 122.336 246.027C122.63 246.027 122.984 246.027 123.279 245.792C123.75 245.379 123.927 244.731 123.868 243.729C123.809 243.14 123.337 243.14 122.925 243.14C122.454 243.14 121.923 243.081 121.687 242.433C121.511 241.961 121.746 241.49 122.1 240.9C122.63 240.017 123.279 238.838 122.336 237.247C121.275 235.243 120.096 235.479 119.212 235.656C118.918 235.715 118.623 235.774 118.446 235.715C118.27 235.656 118.152 235.538 118.152 235.479C118.093 235.302 118.211 235.125 118.27 235.067L117.916 234.831C117.916 234.89 117.621 235.243 117.739 235.656C117.798 235.892 117.975 236.127 118.329 236.245C118.623 236.363 118.977 236.304 119.33 236.245C120.096 236.127 121.039 235.892 121.982 237.6C122.748 239.015 122.218 239.958 121.746 240.842C121.393 241.49 121.039 242.079 121.275 242.727C121.629 243.67 122.395 243.729 122.925 243.729C123.396 243.729 123.455 243.788 123.455 243.906C123.514 244.731 123.396 245.32 123.043 245.615C122.866 245.733 122.63 245.733 122.395 245.733C122.1 245.733 121.805 245.733 121.57 245.968C121.334 246.204 121.039 246.97 121.157 247.618C121.216 248.031 121.393 248.384 121.687 248.62C122.218 248.974 122.748 248.974 123.161 248.915C123.455 248.915 123.632 248.856 123.75 248.974C123.868 249.033 123.986 249.268 124.221 249.504C124.87 250.211 125.93 251.39 126.755 251.508C126.755 251.508 126.755 251.508 126.814 251.508C127.58 251.625 128.17 251.508 128.523 251.213C128.7 251.036 128.818 250.8 128.877 250.506C128.877 250.211 128.7 249.917 128.523 249.504C128.17 248.797 127.934 248.325 128.346 248.031C128.7 247.795 128.995 247.795 129.407 247.795C129.937 247.795 130.586 247.854 131.116 247.147C131.175 247.147 131.234 247.147 131.234 247.147C133.355 247.265 136.596 247.5 138.246 248.443C139.366 249.15 139.366 249.504 139.307 250.329C139.248 251.095 139.189 252.097 139.955 253.865C139.72 254.572 139.602 255.397 139.72 256.752C140.014 260.877 143.196 265.061 143.432 265.356C143.55 265.533 143.727 265.709 143.845 265.827C144.316 266.181 145.495 266.829 146.791 267.595C148.264 268.42 149.973 269.363 151.093 270.129C152.389 271.072 153.804 272.015 153.921 273.075C153.98 273.547 153.862 274.077 153.391 274.608C151.8 276.729 149.855 284.036 149.796 284.331L150.268 284.39C150.327 283.918 152.33 276.847 153.745 274.902C154.157 274.077 154.334 273.429 154.216 272.84Z" fill="url(#paint8_linear_3618_19418)"/>
<path d="M151.093 274.725C150.444 272.486 147.203 270.07 146.143 269.421C143.844 268.007 138.6 267.712 136.184 268.243C135.064 268.478 134.298 268.832 133.591 269.186C132.825 269.539 132.177 269.893 131.293 269.893C129.466 269.893 128.464 270.129 127.58 270.777C127.403 270.895 127.344 271.071 127.344 271.189C127.344 271.543 127.698 271.896 128.052 272.25C128.346 272.486 128.759 272.898 128.7 273.134C128.7 273.252 128.582 273.311 128.464 273.37C127.286 274.018 126.343 273.134 126.284 273.075L125.93 273.429C125.93 273.429 127.109 274.607 128.641 273.841C128.936 273.664 129.053 273.487 129.112 273.252C129.171 272.78 128.7 272.368 128.346 272.014C128.111 271.779 127.757 271.484 127.757 271.307L127.816 271.248C128.582 270.659 129.525 270.482 131.234 270.482C132.236 270.482 132.943 270.128 133.768 269.716C134.416 269.362 135.182 269.009 136.243 268.773C138.541 268.302 143.727 268.596 145.907 269.893C147.203 270.659 150.091 272.957 150.68 274.961C150.798 275.491 150.562 276.493 150.209 277.2C148.441 281.325 147.852 284.271 147.852 284.271L148.264 284.33C148.264 284.33 148.853 281.384 150.621 277.318C150.857 276.787 151.328 275.55 151.093 274.725Z" fill="url(#paint9_linear_3618_19418)"/>
<path d="M152.094 274.372C151.977 273.547 151.152 272.663 150.857 272.309C150.798 272.25 150.798 272.25 150.798 272.25C149.148 270.306 146.732 268.42 145.141 267.831C144.669 267.654 144.139 267.536 143.491 267.418C140.898 266.181 138.423 265.709 136.007 265.238C134.71 265.002 133.355 264.707 132 264.354C128.405 263.293 122.335 257.282 122.1 257.047C121.923 256.811 117.798 251.625 117.444 249.799C117.268 249.032 116.384 245.143 115.971 244.082C115.559 243.14 110.432 241.431 109.371 241.077C106.837 240.959 103.184 240.723 102.83 240.488C102.418 240.193 101.946 238.779 102.064 238.19C102.064 237.954 102.359 237.777 102.653 237.6C103.125 237.306 103.655 236.893 103.773 236.186C103.832 235.656 103.478 234.065 102.83 231.531C102.241 229.115 101.416 225.874 101.652 225.284C101.828 224.754 102.182 224.695 102.535 224.577C102.889 224.518 103.243 224.4 103.36 223.87C103.419 223.693 103.302 223.516 103.243 223.457C103.007 223.222 102.477 223.222 101.769 223.281C101.062 223.34 100.119 223.398 99.7658 223.045L99.4712 223.398C100.002 223.87 100.944 223.811 101.769 223.752C102.182 223.752 102.771 223.693 102.889 223.811C102.83 224.047 102.771 224.047 102.418 224.165C102.064 224.282 101.534 224.4 101.239 225.166C101.003 225.815 101.534 228.172 102.418 231.707C102.889 233.711 103.419 235.715 103.36 236.186C103.302 236.716 102.83 237.011 102.418 237.306C102.005 237.541 101.652 237.836 101.593 238.249C101.475 238.956 102.005 240.606 102.594 241.018C103.066 241.372 107.839 241.607 109.312 241.666C112.259 242.609 115.382 243.906 115.618 244.377C115.971 245.202 116.619 247.854 117.091 250.034C117.503 251.92 121.687 257.224 121.864 257.459C122.1 257.695 128.228 263.823 131.941 264.943C133.296 265.356 134.652 265.591 135.948 265.827C137.834 266.181 139.837 266.593 141.9 267.359C140.78 267.241 139.543 267.182 138.423 267.065C137.421 267.006 136.537 266.947 135.771 266.829C130.173 266.24 127.05 265.356 125.046 263.941C122.748 262.35 115.912 256.34 115.323 255.632C115.028 255.22 114.91 254.807 114.734 254.218C114.616 253.806 114.498 253.334 114.262 252.804C113.378 250.918 110.137 248.797 107.78 247.265C106.543 246.498 105.482 245.791 105.246 245.438C104.893 244.907 105.01 244.554 105.187 244.082C105.305 243.729 105.482 243.375 105.482 242.904H105.01C105.01 243.316 104.893 243.611 104.775 243.906C104.539 244.436 104.362 244.907 104.834 245.674C105.128 246.086 106.13 246.734 107.485 247.618C109.784 249.091 113.025 251.154 113.791 252.981C114.027 253.452 114.144 253.923 114.262 254.336C114.439 254.925 114.557 255.397 114.91 255.868C115.5 256.575 122.394 262.645 124.693 264.295C126.814 265.768 129.937 266.652 135.653 267.241C136.36 267.3 137.303 267.359 138.305 267.477C140.78 267.654 143.609 267.89 144.964 268.361C146.496 268.891 148.853 270.718 150.444 272.663C150.444 272.663 150.503 272.722 150.503 272.781C150.739 273.075 151.564 273.959 151.623 274.607C151.741 275.256 151.269 276.493 150.621 278.261C150.032 279.911 149.266 281.973 148.618 284.448L149.03 284.566C149.678 282.091 150.444 280.088 151.034 278.438C151.8 276.375 152.271 275.138 152.094 274.372Z" fill="url(#paint10_linear_3618_19418)"/>
<path d="M104.952 211.436C104.893 211.79 104.539 212.32 104.127 212.909C103.42 214.029 102.536 215.266 103.066 216.209C103.361 216.74 104.068 217.211 104.893 217.8C106.425 218.802 108.37 220.099 109.136 222.456C110.373 226.168 113.555 232.827 113.555 232.886V232.945C113.614 233.004 117.445 238.249 116.148 243.316L116.561 243.434C117.916 238.249 114.263 233.122 113.909 232.709C113.909 232.65 113.791 232.474 113.673 232.238C114.204 232.12 115.382 231.766 116.207 230.706C116.796 229.94 117.032 228.938 116.914 227.7C116.679 225.638 115.677 223.693 114.793 222.043C114.027 220.57 113.379 219.332 113.496 218.39C113.555 217.624 114.027 217.447 114.616 217.27C115.323 217.093 116.207 216.799 116.384 215.266C116.561 213.616 115.441 212.909 114.498 212.379C113.791 211.908 113.32 211.613 113.379 211.082C113.496 209.609 115.618 207.547 115.618 207.547L115.323 207.193C115.264 207.252 113.084 209.374 112.966 211.024C112.907 211.849 113.614 212.32 114.321 212.733C115.205 213.263 116.148 213.852 115.971 215.207C115.854 216.445 115.205 216.622 114.498 216.799C113.85 216.975 113.143 217.211 113.025 218.272C112.966 219.333 113.614 220.629 114.38 222.161C115.264 223.811 116.207 225.697 116.443 227.7C116.561 228.761 116.384 229.704 115.854 230.352C115.088 231.354 113.909 231.649 113.496 231.707C112.554 229.763 110.491 225.107 109.548 222.279C108.723 219.804 106.661 218.39 105.129 217.388C104.363 216.858 103.655 216.386 103.42 215.974C103.007 215.266 103.773 214.147 104.421 213.145C104.893 212.497 105.246 211.908 105.305 211.495C105.364 210.847 104.775 209.904 104.009 208.784C103.361 207.783 102.595 206.663 102.477 205.838L102.005 205.897C102.123 206.84 102.889 207.959 103.596 209.02C104.363 210.022 105.011 211.024 104.952 211.436Z" fill="url(#paint11_linear_3618_19418)"/>
<path d="M149.501 276.258C148.971 275.02 147.38 274.018 146.26 273.311C145.789 273.017 145.435 272.781 145.259 272.604C145.082 272.427 145.082 272.251 145.023 272.074C144.905 271.543 144.728 271.072 143.609 270.601C141.9 269.893 137.775 269.54 136.419 270.424C135.889 270.777 135.83 271.19 135.83 271.543C135.948 272.486 137.068 273.311 138.128 273.665C138.835 273.901 138.894 274.667 138.953 275.433C139.012 276.081 139.071 276.729 139.543 277.142C139.896 277.377 140.014 277.613 139.955 277.79C139.896 278.026 139.484 278.32 138.541 278.438C137.244 278.556 135.241 278.026 135.182 278.026L135.064 278.497C135.123 278.497 137.185 279.027 138.541 278.91C139.543 278.792 140.191 278.438 140.309 277.908C140.426 277.495 140.191 277.083 139.719 276.729C139.366 276.493 139.366 275.963 139.307 275.374C139.248 274.608 139.189 273.547 138.187 273.252C137.126 272.899 136.243 272.133 136.184 271.484C136.184 271.249 136.301 271.013 136.537 270.836C137.716 270.129 141.546 270.365 143.314 271.072C144.316 271.484 144.375 271.838 144.493 272.192C144.551 272.427 144.61 272.722 144.905 272.958C145.082 273.134 145.494 273.429 145.966 273.724C147.026 274.372 148.559 275.433 149.089 276.493C149.443 277.259 149.03 278.084 148.5 279.263C148.028 280.383 147.38 281.738 147.085 283.624L147.557 283.683C147.793 281.915 148.441 280.559 148.912 279.44C149.501 278.202 149.914 277.201 149.501 276.258Z" fill="url(#paint12_linear_3618_19418)"/>
</g>
<path d="M164.528 183.799C186.041 183.799 203.48 174.407 203.48 162.82C203.48 151.234 186.041 141.842 164.528 141.842C143.016 141.842 125.577 151.234 125.577 162.82C125.577 174.407 143.016 183.799 164.528 183.799Z" fill="#2A697F"/>
<path d="M164.175 163.114C173.613 163.114 181.264 159.342 181.264 154.688C181.264 150.034 173.613 146.261 164.175 146.261C154.737 146.261 147.085 150.034 147.085 154.688C147.085 159.342 154.737 163.114 164.175 163.114Z" fill="#293C4F"/>
<path d="M164.175 148.264C172.896 148.264 180.144 151.505 181.146 155.689C181.205 155.336 181.264 155.041 181.264 154.688C181.264 150.032 173.603 146.261 164.175 146.261C154.746 146.261 147.085 150.032 147.085 154.688C147.085 155.041 147.144 155.395 147.203 155.689C148.264 151.505 155.453 148.264 164.175 148.264Z" fill="#DBDBDB"/>
<path d="M181.146 157.398L180.734 155.748C179.732 151.682 172.601 148.618 164.175 148.618C155.748 148.618 148.617 151.682 147.616 155.748L147.203 157.398L146.791 155.748C146.673 155.336 146.673 154.982 146.673 154.629C146.673 152.213 148.5 149.973 151.917 148.264C155.217 146.614 159.578 145.73 164.175 145.73C168.771 145.73 173.132 146.614 176.432 148.264C179.791 149.914 181.676 152.213 181.676 154.629C181.676 154.982 181.617 155.336 181.559 155.748L181.146 157.398ZM164.175 147.852C171.835 147.852 178.435 150.386 180.792 153.922C179.967 149.855 172.837 146.673 164.175 146.673C155.512 146.673 148.382 149.855 147.557 153.922C149.914 150.327 156.514 147.852 164.175 147.852Z" fill="#323A50"/>
<path d="M164.646 141.959C143.137 141.959 125.694 151.152 125.694 162.407C125.694 173.663 143.137 182.855 164.646 182.855C186.155 182.855 203.598 173.663 203.598 162.407C203.598 151.152 186.155 141.959 164.646 141.959ZM181.323 154.805C181.323 154.864 181.382 154.923 181.382 154.923C181.382 154.982 181.382 155.041 181.382 155.1C180.675 159.343 173.309 162.702 164.352 162.702C155.63 162.702 148.382 159.52 147.38 155.454C147.38 155.336 147.321 155.218 147.321 155.1C147.321 155.041 147.321 154.982 147.321 154.923C147.321 154.864 147.321 154.746 147.321 154.746C147.321 154.629 147.321 154.57 147.321 154.334C147.321 154.334 147.321 154.098 147.321 153.98C147.38 153.391 147.557 152.92 147.851 152.389C148.087 151.859 148.5 151.388 148.971 150.916H149.03C151.8 148.146 157.693 146.261 164.469 146.261C173.898 146.261 181.618 149.973 181.618 154.511H181.441C181.264 154.57 181.323 154.688 181.323 154.805Z" fill="#DBDBDB"/>
<path d="M164.646 183.327C154.157 183.327 144.316 181.205 136.95 177.257C129.466 173.309 125.341 168.064 125.341 162.407C125.341 156.75 129.466 151.505 136.95 147.557C144.375 143.668 154.216 141.487 164.646 141.487C175.135 141.487 184.977 143.609 192.343 147.557C199.827 151.505 203.952 156.75 203.952 162.407C203.952 168.064 199.827 173.309 192.343 177.257C184.977 181.146 175.077 183.327 164.646 183.327ZM164.646 142.371C143.373 142.371 126.107 151.387 126.107 162.407C126.107 173.486 143.373 182.443 164.646 182.443C185.919 182.443 203.185 173.427 203.185 162.407C203.185 151.387 185.86 142.371 164.646 142.371ZM164.293 163.114C155.453 163.114 148.028 159.873 146.909 155.512C146.909 155.394 146.85 155.277 146.85 155.159C146.85 155.1 146.85 155.041 146.791 154.982C146.791 154.923 146.791 154.864 146.791 154.864V154.805C146.791 154.687 146.791 154.569 146.791 154.334V153.921C146.85 153.332 147.027 152.802 147.38 152.153C147.616 151.623 148.028 151.152 148.559 150.562L148.618 150.503C151.564 147.557 157.575 145.73 164.293 145.73C168.889 145.73 173.25 146.614 176.55 148.205C179.968 149.855 181.794 152.036 181.794 154.393V154.805H181.677C181.677 154.864 181.677 154.864 181.677 154.923C181.677 154.982 181.677 155.041 181.677 155.1C180.969 159.696 173.485 163.114 164.293 163.114ZM147.616 154.393C147.616 154.569 147.616 154.628 147.616 154.746C147.616 154.746 147.616 154.805 147.616 154.864C147.616 154.923 147.616 154.923 147.616 154.982C147.616 155.041 147.616 155.1 147.616 155.159C147.616 155.277 147.675 155.336 147.675 155.453C148.677 159.402 155.807 162.407 164.234 162.407C172.896 162.407 180.203 159.225 180.852 155.159V155.1C180.852 155.041 180.793 154.982 180.852 154.923V154.864C180.852 154.805 180.852 154.746 180.852 154.628V154.216H181.028C180.852 152.33 179.143 150.503 176.255 149.148C173.073 147.616 168.83 146.791 164.293 146.791C157.869 146.791 151.918 148.559 149.148 151.328L149.089 151.387C148.618 151.859 148.323 152.271 148.087 152.684C147.852 153.214 147.675 153.686 147.616 154.157C147.616 154.157 147.616 154.334 147.616 154.393Z" fill="#323A50"/>
<path opacity="0.2" d="M122.748 119.92C122.748 117.209 120.568 108.075 123.632 101.063C125.636 96.5252 130.586 92.1055 137.068 93.5787C144.198 95.2287 149.03 100.061 150.445 108.016C151.446 113.909 151.859 121.275 150.798 125.106" fill="url(#paint13_linear_3618_19418)"/>
<g opacity="0.3">
<path d="M165.648 295.645C165.589 295.645 165.53 295.645 165.53 295.645C151.859 295.645 138.246 291.814 126.225 284.684H126.166L125.577 284.095C110.55 275.373 99.2356 261.761 92.8713 244.789C90.3374 238.248 88.8052 231.177 88.157 223.28C87.9802 219.568 87.9802 216.15 88.157 212.438C88.3338 208.784 88.8641 205.13 89.807 200.77C90.7499 196.35 92.1641 191.989 94.2266 187.334L94.9927 187.688C92.9892 192.284 91.5748 196.645 90.632 201.005C89.6891 205.307 89.2177 208.961 88.982 212.555C88.8052 216.209 88.8052 219.627 88.982 223.339C89.6302 231.118 91.1624 238.13 93.6374 244.613C99.9427 261.466 111.139 274.902 126.048 283.505H126.107L126.696 284.095C150.975 298.414 180.027 298.532 204.423 284.272C205.602 283.505 206.839 282.622 208.312 281.855C221.218 273.547 230.882 261.702 237.07 246.616C237.364 245.909 237.6 245.143 237.895 244.377C238.13 243.611 238.425 242.845 238.719 242.138C243.434 227.877 243.964 213.263 240.311 198.766V198.707C240.193 198.118 237.777 190.693 236.303 187.334L237.07 186.98C238.425 190.163 240.9 197.529 241.077 198.53C244.73 213.145 244.2 227.877 239.427 242.373V242.432C239.132 243.139 238.896 243.905 238.661 244.613C238.425 245.379 238.13 246.145 237.836 246.911C231.589 262.173 221.807 274.136 208.725 282.563C207.311 283.388 206.073 284.213 204.895 284.979C192.755 291.932 179.261 295.645 165.648 295.645Z" fill="#323A50"/>
</g>
<path d="M165.118 138.07C179.177 138.07 190.575 135.009 190.575 131.234C190.575 127.459 179.177 124.398 165.118 124.398C151.058 124.398 139.661 127.459 139.661 131.234C139.661 135.009 151.058 138.07 165.118 138.07Z" fill="#00FF30"/>
<path d="M122.689 119.566C122.689 116.856 120.509 107.722 123.573 100.709C125.577 96.1717 130.527 91.752 137.009 93.2252C144.139 94.8752 148.971 99.7074 150.385 107.663C151.387 113.556 151.564 118.977 150.857 124.222" fill="white"/>
<path d="M151.152 124.222L150.562 124.163C151.211 118.919 151.093 113.556 150.091 107.722C148.795 100.12 144.257 95.1703 136.95 93.5203C130.762 92.1061 125.812 96.3489 123.809 100.827C121.511 106.131 122.277 112.79 122.689 116.738C122.807 117.976 122.925 118.919 122.925 119.567H122.336C122.336 118.977 122.218 118.035 122.1 116.797C121.628 112.79 120.862 106.072 123.22 100.592C125.282 95.8186 130.468 91.3989 137.009 92.9311C144.552 94.64 149.207 99.7078 150.621 107.604C151.682 113.438 151.859 118.919 151.152 124.222Z" fill="#323A50"/>
<path d="M148.205 136.832C147.262 136.832 146.202 136.42 145.2 136.007C145.082 135.948 144.905 135.889 144.728 135.83L144.964 135.241C145.082 135.3 145.259 135.359 145.435 135.418C147.439 136.184 148.794 136.655 149.384 135.536C149.619 135.064 149.796 133.473 149.03 131.352C148.205 128.936 145.73 124.28 138.364 120.98C133.296 118.682 129.171 118.623 126.637 118.918C123.691 119.33 121.628 120.391 120.98 121.216C120.568 121.747 120.273 122.748 120.568 123.455C120.744 123.868 121.157 124.163 121.687 124.221C121.864 124.221 122.041 124.221 122.159 124.104C122.748 123.573 122.63 121.688 122.571 120.863L123.161 120.804C123.219 122.336 123.219 123.868 122.571 124.516C122.336 124.752 121.982 124.87 121.628 124.811C120.627 124.693 120.214 124.104 120.037 123.691C119.625 122.748 119.978 121.57 120.509 120.863C121.982 118.977 129.23 116.148 138.659 120.391C146.202 123.809 148.794 128.582 149.678 131.116C150.444 133.297 150.327 135.064 149.973 135.83C149.502 136.597 148.912 136.832 148.205 136.832Z" fill="#323A50"/>
<path d="M148.853 135.536L148.323 135.242C148.559 134.829 148.676 133.533 148.028 131.647C147.262 129.408 144.905 125.106 137.893 121.924C131.705 119.154 126.225 119.626 123.101 121.04L122.866 120.509C126.107 119.036 131.823 118.506 138.128 121.393C145.376 124.693 147.851 129.113 148.618 131.47C149.266 133.356 149.207 134.888 148.853 135.536Z" fill="#323A50"/>
<path d="M149.679 126.166L149.089 125.99C150.032 122.277 150.091 114.734 149.148 108.782C147.97 101.063 143.786 96.2896 136.832 94.5806C131.234 93.2253 126.461 97.1146 124.693 101.652C122.63 106.779 123.397 112.907 123.809 116.561C123.927 117.681 124.045 118.623 124.045 119.213H123.455C123.455 118.623 123.338 117.74 123.22 116.62C122.748 112.907 122.041 106.661 124.163 101.357C126.048 96.5842 131.116 92.5181 137.009 93.9324C144.257 95.7003 148.559 100.65 149.797 108.606C150.68 114.734 150.68 122.395 149.679 126.166Z" fill="#323A50"/>
<path d="M123.455 120.569C121.982 121.099 121.451 121.57 121.275 122.513C121.098 123.397 121.393 124.694 122.689 124.517C123.632 124.399 124.28 122.926 123.926 120.51" fill="#DBDBDB"/>
<path d="M122.453 124.811C121.923 124.811 121.569 124.576 121.392 124.34C120.921 123.809 120.862 122.984 120.98 122.395C121.216 121.334 121.805 120.804 123.396 120.215L123.632 120.804C122.1 121.393 121.805 121.806 121.628 122.513C121.51 122.926 121.569 123.574 121.864 123.927C122.041 124.104 122.335 124.222 122.689 124.163C123.396 124.045 123.985 122.749 123.691 120.451L124.28 120.392C124.692 123.22 123.809 124.634 122.807 124.752C122.63 124.811 122.571 124.811 122.453 124.811Z" fill="#323A50"/>
<path d="M165.118 138.718C152.389 138.718 139.248 136.007 139.248 131.47C139.248 129.643 141.428 127.993 145.553 126.638L145.789 127.404C142.136 128.582 140.073 130.056 140.073 131.47C140.073 134.593 150.15 137.952 165.118 137.952C180.086 137.952 190.162 134.593 190.162 131.47C190.162 128.347 180.086 124.988 165.118 124.988C158.282 124.988 151.859 125.695 147.027 127.05L146.791 126.284C151.682 124.929 158.164 124.222 165.059 124.222C177.787 124.222 190.928 126.932 190.928 131.47C190.987 136.007 177.787 138.718 165.118 138.718Z" fill="#323A50"/>
<mask id="mask0_3618_19418" style="mask-type:luminance" maskUnits="userSpaceOnUse" x="139" y="41" width="52" height="98">
<path d="M190.634 130.998V41.8984H139.72V131.116C139.72 131.175 139.779 131.175 139.779 131.234C139.779 135.006 151.211 138.07 165.236 138.07C179.32 138.07 190.693 135.006 190.693 131.234C190.752 131.175 190.634 131.116 190.634 130.998Z" fill="white"/>
</mask>
<g mask="url(#mask0_3618_19418)">
<path d="M206.015 139.543V34.2373H122.925V139.661C122.925 139.719 122.925 139.719 122.925 139.778C122.925 144.257 141.547 147.911 164.529 147.911C187.511 147.911 206.074 144.257 206.074 139.778C206.015 139.661 206.015 139.602 206.015 139.543ZM150.15 134.887C150.091 135.477 149.856 136.007 149.325 136.419C149.149 136.537 148.972 136.596 148.795 136.596C147.675 138.305 145.731 139.484 143.668 139.484C141.193 139.484 139.19 138.011 138.247 135.948C137.481 135.241 136.832 134.357 136.479 133.355C136.066 133.119 135.713 132.766 135.359 132.412C135.065 132.236 134.829 132 134.593 131.764C133.179 130.644 132.354 128.936 132.236 127.05C132.118 123.809 135.124 121.039 138.247 121.039C138.482 121.039 138.659 121.039 138.895 121.098C139.013 121.039 139.19 121.039 139.366 121.039C139.838 121.039 140.25 121.216 140.486 121.511C140.84 121.628 141.193 121.864 141.488 122.041C141.547 122.1 141.665 122.159 141.724 122.159C141.841 122.218 142.018 122.218 142.136 122.336C143.668 123.396 145.259 124.575 146.438 126.048C146.615 126.166 146.791 126.343 146.909 126.519C147.145 126.932 147.498 127.286 147.793 127.757C148.088 127.934 148.324 128.287 148.441 128.641C148.441 128.7 148.5 128.759 148.5 128.818C148.5 128.877 148.559 128.936 148.618 128.936C148.618 128.877 148.559 128.877 148.559 128.818C148.736 129.053 148.854 129.289 148.972 129.584C149.031 129.643 149.09 129.702 149.149 129.819C149.679 130.88 150.091 132.177 150.209 133.355C150.209 133.414 150.209 133.532 150.209 133.65C150.268 133.886 150.327 134.121 150.327 134.357C150.268 134.534 150.209 134.711 150.15 134.887Z" fill="url(#paint14_linear_3618_19418)"/>
</g>
<path d="M191.576 41.3682H138.6V88.8057H191.576V41.3682Z" fill="url(#paint15_linear_3618_19418)"/>
<path d="M262.645 190.163C260.818 183.916 255.809 179.732 247.853 177.611C243.316 176.432 239.014 176.314 237.246 176.314C237.187 176.079 237.07 175.843 236.893 175.666C238.484 175.607 243.08 175.666 248.03 176.963C256.103 179.084 261.348 183.563 263.293 189.927C263.705 190.752 275.314 215.207 276.728 229.468C277.141 233.239 280.146 234.064 285.745 235.597C290.341 236.834 296.646 238.543 304.543 242.786L304.248 243.375C296.47 239.191 290.164 237.482 285.627 236.245C279.97 234.713 276.552 233.77 276.139 229.527C274.961 217.859 266.946 199.355 263.882 192.638C264.059 197.588 260.641 204.423 253.57 213.027C246.852 221.277 236.893 231.118 223.928 242.373C219.155 246.557 214.264 250.564 209.609 254.395L208.843 254.159C213.557 250.388 218.566 246.145 223.457 241.902C252.568 216.622 266.062 198.766 262.645 190.163Z" fill="#323A50"/>
<path d="M239.191 182.443C239.132 181.972 238.543 179.674 238.366 179.261C238.425 179.026 239.309 180.44 239.25 180.263C239.25 179.792 238.955 179.32 238.543 179.026C238.602 178.554 238.602 178.318 238.13 178.024C238.189 177.847 237.659 177.788 237.6 177.611C238.425 179.026 239.427 180.852 239.721 182.385C241.018 189.515 230.234 206.31 207.546 232.415C202.537 238.131 197.47 243.847 192.873 248.738L192.166 248.502C212.555 226.463 240.959 193.227 239.191 182.443Z" fill="#323A50"/>
<path d="M236.952 175.607C237.07 175.725 237.128 175.843 237.246 175.961L241.489 175.784C239.545 175.607 237.953 175.607 236.952 175.607Z" fill="#323A50"/>
<path d="M238.131 177.67L249.032 177.198C248.62 177.08 248.207 176.963 247.736 176.845L238.013 177.257C238.013 177.434 238.072 177.552 238.131 177.67Z" fill="#323A50"/>
<path d="M238.543 179.378L252.98 178.789C252.745 178.671 252.45 178.553 252.156 178.436L238.366 178.966C238.366 179.025 238.366 179.084 238.366 179.143C238.425 179.202 238.484 179.261 238.543 179.378Z" fill="#323A50"/>
<path d="M239.191 181.088L255.809 180.44C255.632 180.322 255.396 180.204 255.22 180.027L239.073 180.676C239.132 180.793 239.191 180.911 239.191 181.088Z" fill="#323A50"/>
<path d="M239.368 182.62L257.813 181.854C257.695 181.736 257.518 181.618 257.341 181.441L239.368 182.149C239.368 182.384 239.368 182.502 239.368 182.62Z" fill="#323A50"/>
<path d="M239.427 184.388L259.462 183.563C259.345 183.445 259.227 183.327 259.109 183.15L239.427 183.916C239.427 184.093 239.427 184.211 239.427 184.388Z" fill="#323A50"/>
<path d="M239.191 185.743C239.132 185.861 239.132 185.978 239.073 186.096L260.759 185.212C260.7 185.094 260.582 184.977 260.464 184.8L239.191 185.684V185.743Z" fill="#323A50"/>
<path d="M238.661 187.57C238.661 187.629 238.602 187.747 238.602 187.806L261.82 186.863C261.761 186.745 261.702 186.627 261.584 186.45L238.72 187.393C238.661 187.452 238.661 187.511 238.661 187.57Z" fill="#323A50"/>
<path d="M237.954 189.161L262.35 188.159C262.409 188.277 262.468 188.395 262.527 188.572L237.777 189.573C237.895 189.397 237.895 189.279 237.954 189.161Z" fill="#323A50"/>
<path d="M237.247 190.87L262.998 189.81C263.057 189.927 263.057 190.045 263.116 190.222L237.07 191.283C237.129 191.165 237.188 191.047 237.247 190.87Z" fill="#323A50"/>
<path d="M236.422 192.579L263.352 191.459C263.352 191.577 263.411 191.695 263.411 191.871L236.186 192.991C236.304 192.873 236.363 192.755 236.422 192.579Z" fill="#323A50"/>
<path d="M235.537 194.347L263.529 193.228C263.529 193.345 263.529 193.463 263.529 193.64L235.302 194.76C235.361 194.642 235.42 194.524 235.537 194.347Z" fill="#323A50"/>
<path d="M234.595 195.997L263.352 194.818C263.352 194.936 263.293 195.054 263.293 195.231L234.359 196.409C234.477 196.292 234.536 196.115 234.595 195.997Z" fill="#323A50"/>
<path d="M233.534 197.765L262.998 196.586C262.939 196.704 262.939 196.822 262.88 196.998L233.298 198.177C233.416 198.059 233.475 197.882 233.534 197.765Z" fill="#323A50"/>
<path d="M232.532 199.474L262.468 198.236C262.409 198.354 262.35 198.531 262.291 198.649L232.238 199.886C232.297 199.768 232.415 199.651 232.532 199.474Z" fill="#323A50"/>
<path d="M231.354 201.241L261.761 200.004C261.702 200.122 261.643 200.299 261.584 200.416L231.118 201.654C231.177 201.536 231.236 201.418 231.354 201.241Z" fill="#323A50"/>
<path d="M230.234 202.95L260.936 201.713C260.877 201.831 260.818 202.008 260.7 202.125L229.939 203.363C230.057 203.186 230.175 203.068 230.234 202.95Z" fill="#323A50"/>
<path d="M229.055 204.718L259.993 203.48C259.934 203.598 259.816 203.775 259.757 203.893L228.761 205.13C228.82 205.013 228.938 204.836 229.055 204.718Z" fill="#323A50"/>
<path d="M227.818 206.427L258.991 205.189C258.932 205.307 258.814 205.484 258.755 205.602L227.582 206.839C227.641 206.722 227.7 206.545 227.818 206.427Z" fill="#323A50"/>
<path d="M226.522 208.195L257.813 206.957C257.695 207.075 257.636 207.252 257.518 207.37L226.227 208.607C226.345 208.489 226.404 208.371 226.522 208.195Z" fill="#323A50"/>
<path d="M225.343 209.845L256.693 208.607C256.575 208.725 256.516 208.902 256.398 209.02L225.048 210.257C225.107 210.14 225.225 210.022 225.343 209.845Z" fill="#323A50"/>
<path d="M223.987 211.612L255.337 210.375C255.219 210.493 255.161 210.67 254.984 210.787L223.634 212.025C223.811 211.907 223.928 211.789 223.987 211.612Z" fill="#323A50"/>
<path d="M222.691 213.381L254.041 212.144C253.923 212.261 253.805 212.438 253.687 212.556L222.337 213.794C222.455 213.617 222.573 213.499 222.691 213.381Z" fill="#323A50"/>
<path d="M221.277 215.149L252.568 213.911C252.45 214.029 252.332 214.206 252.214 214.324L220.923 215.561C221.1 215.443 221.218 215.266 221.277 215.149Z" fill="#323A50"/>
<path d="M219.921 216.916L251.095 215.679C250.977 215.797 250.859 215.973 250.741 216.091L219.568 217.329C219.686 217.211 219.804 217.034 219.921 216.916Z" fill="#323A50"/>
<path d="M218.507 218.684L249.562 217.446C249.445 217.564 249.327 217.741 249.209 217.859L218.212 219.096C218.271 218.978 218.389 218.861 218.507 218.684Z" fill="#323A50"/>
<path d="M217.093 220.452L247.971 219.215C247.854 219.333 247.736 219.509 247.559 219.627L216.739 220.865C216.857 220.688 216.975 220.57 217.093 220.452Z" fill="#323A50"/>
<path d="M215.737 222.102L246.439 220.864C246.321 220.982 246.203 221.159 246.027 221.277L215.384 222.514C215.502 222.396 215.619 222.279 215.737 222.102Z" fill="#323A50"/>
<path d="M214.441 223.752L244.907 222.515C244.789 222.633 244.671 222.809 244.495 222.927L214.087 224.165C214.146 224.047 214.264 223.87 214.441 223.752Z" fill="#323A50"/>
<path d="M212.909 225.52L243.14 224.282C243.022 224.4 242.904 224.577 242.727 224.695L212.556 225.932C212.674 225.814 212.791 225.696 212.909 225.52Z" fill="#323A50"/>
<path d="M211.436 227.287L241.43 226.05C241.312 226.168 241.136 226.344 241.018 226.462L211.082 227.641C211.2 227.582 211.318 227.405 211.436 227.287Z" fill="#323A50"/>
<path d="M209.962 229.056L239.662 227.877C239.545 227.995 239.368 228.172 239.25 228.289L209.609 229.468C209.727 229.35 209.845 229.232 209.962 229.056Z" fill="#323A50"/>
<path d="M208.548 230.706L237.954 229.527C237.836 229.645 237.659 229.822 237.482 229.94L208.195 231.118C208.313 231.001 208.431 230.883 208.548 230.706Z" fill="#323A50"/>
<path d="M207.134 232.355L236.245 231.177C236.127 231.295 235.95 231.471 235.773 231.589L206.78 232.768C206.898 232.65 207.016 232.532 207.134 232.355Z" fill="#323A50"/>
<path d="M205.602 234.182L234.359 233.004C234.241 233.122 234.065 233.299 233.888 233.416L205.249 234.595C205.366 234.418 205.484 234.3 205.602 234.182Z" fill="#323A50"/>
<path d="M204.07 235.891L232.473 234.771C232.297 234.889 232.179 235.066 232.002 235.184L203.716 236.304C203.834 236.186 203.952 236.068 204.07 235.891Z" fill="#323A50"/>
<path d="M202.479 237.718L230.47 236.599C230.293 236.716 230.175 236.893 229.999 237.011L202.066 238.131C202.243 238.013 202.361 237.836 202.479 237.718Z" fill="#323A50"/>
<path d="M200.888 239.486L228.466 238.366C228.289 238.484 228.172 238.661 227.995 238.779L200.475 239.898C200.652 239.78 200.77 239.663 200.888 239.486Z" fill="#323A50"/>
<path d="M199.415 241.136L226.64 240.017C226.463 240.134 226.286 240.311 226.168 240.429L199.061 241.549C199.179 241.431 199.297 241.313 199.415 241.136Z" fill="#323A50"/>
<path d="M197.882 242.963L224.636 241.902C224.459 242.02 224.282 242.197 224.165 242.315L197.529 243.376C197.588 243.199 197.706 243.081 197.882 242.963Z" fill="#323A50"/>
<path d="M196.291 244.672L222.632 243.611C222.455 243.729 222.279 243.906 222.161 244.024L195.938 245.085C195.996 244.967 196.114 244.849 196.291 244.672Z" fill="#323A50"/>
<path d="M194.641 246.498L220.511 245.438C220.334 245.555 220.157 245.732 220.039 245.85L194.229 246.911C194.405 246.793 194.523 246.616 194.641 246.498Z" fill="#323A50"/>
<path d="M193.168 248.149L218.625 247.088C218.448 247.206 218.272 247.383 218.154 247.5L192.814 248.502C192.873 248.443 193.05 248.266 193.168 248.149Z" fill="#323A50"/>
<path d="M193.639 249.68L216.68 248.737C216.503 248.855 216.327 249.032 216.15 249.15L194.641 250.034C194.287 249.916 193.934 249.798 193.639 249.68Z" fill="#323A50"/>
<path d="M198.177 251.271L214.559 250.623C214.382 250.741 214.205 250.918 214.029 251.036L199.296 251.625C198.884 251.507 198.53 251.389 198.177 251.271Z" fill="#323A50"/>
<path d="M202.832 252.745L212.378 252.332C212.202 252.45 212.025 252.627 211.848 252.745L203.952 253.098C203.598 252.98 203.186 252.862 202.832 252.745Z" fill="#323A50"/>
<path d="M207.488 254.277L210.199 254.159C210.022 254.277 209.845 254.454 209.668 254.572L208.549 254.631C208.136 254.513 207.841 254.395 207.488 254.277Z" fill="#323A50"/>
<path d="M68.6516 190.163C70.4784 183.916 75.4874 179.732 83.4427 177.611C87.9802 176.432 92.282 176.314 94.0499 176.314C94.1088 176.079 94.2266 175.843 94.4034 175.666C92.8124 175.607 88.2159 175.666 83.2659 176.963C75.1927 179.084 69.9481 183.563 68.0034 189.927C67.5909 190.752 55.982 215.207 54.5677 229.468C54.1552 233.239 51.1498 234.064 45.5516 235.597C40.9552 236.834 34.6498 238.543 26.7534 242.786L27.0481 243.375C34.8266 239.191 41.132 237.482 45.6695 236.245C51.3266 234.713 54.7445 233.77 55.157 229.527C56.3356 217.859 64.3498 199.355 67.4141 192.638C67.2373 197.588 70.6552 204.423 77.7266 213.027C84.4445 221.277 94.4034 231.118 107.368 242.373C112.141 246.557 117.032 250.564 121.687 254.395L122.453 254.159C117.739 250.388 112.73 246.145 107.839 241.902C78.7874 216.622 65.2338 198.766 68.6516 190.163Z" fill="#323A50"/>
<path d="M92.1054 182.443C92.1644 181.972 92.7537 179.674 92.9304 179.261C92.8715 179.026 91.9876 180.44 92.0465 180.263C92.0465 179.792 92.3411 179.32 92.7536 179.026C92.6947 178.554 92.6947 178.318 93.1662 178.024C93.1072 177.847 93.6376 177.788 93.6965 177.611C92.8715 179.026 91.8697 180.852 91.5751 182.385C90.2786 189.515 101.063 206.31 123.75 232.415C128.759 238.131 133.827 243.847 138.423 248.738L139.13 248.502C118.8 226.463 90.3376 193.227 92.1054 182.443Z" fill="#323A50"/>
<path d="M94.3446 175.607C94.2268 175.725 94.1679 175.843 94.05 175.961L89.8071 175.784C91.7518 175.607 93.3429 175.607 94.3446 175.607Z" fill="#323A50"/>
<path d="M93.225 177.67L82.3232 177.198C82.7357 177.08 83.1482 176.963 83.6197 176.845L93.3429 177.257C93.2839 177.434 93.225 177.552 93.225 177.67Z" fill="#323A50"/>
<path d="M92.7534 179.378L78.3159 178.789C78.5516 178.671 78.8463 178.553 79.1409 178.436L92.9302 178.966C92.9302 179.025 92.9302 179.084 92.9302 179.143C92.8713 179.202 92.8713 179.261 92.7534 179.378Z" fill="#323A50"/>
<path d="M92.1052 181.088L75.4873 180.44C75.6641 180.322 75.8998 180.204 76.0766 180.027L92.223 180.676C92.1641 180.793 92.1641 180.911 92.1052 181.088Z" fill="#323A50"/>
<path d="M91.9285 182.62L73.4839 181.854C73.6017 181.736 73.7785 181.618 73.9553 181.441L91.9285 182.149C91.9285 182.384 91.9285 182.502 91.9285 182.62Z" fill="#323A50"/>
<path d="M91.8697 184.388L71.834 183.563C71.9518 183.445 72.0697 183.327 72.1876 183.15L91.8697 183.916C91.8697 184.093 91.8697 184.211 91.8697 184.388Z" fill="#323A50"/>
<path d="M92.1054 185.743C92.1644 185.861 92.1644 185.978 92.2233 186.096L70.5376 185.212C70.5965 185.094 70.7144 184.977 70.8322 184.8L92.1054 185.684V185.743Z" fill="#323A50"/>
<path d="M92.6355 187.57C92.6355 187.629 92.6944 187.747 92.6944 187.806L69.4766 186.863C69.5355 186.745 69.5944 186.627 69.7123 186.45L92.5766 187.393C92.6355 187.452 92.6355 187.511 92.6355 187.57Z" fill="#323A50"/>
<path d="M93.3427 189.161L68.9463 188.159C68.8874 188.277 68.8285 188.395 68.7695 188.572L93.5195 189.573C93.4606 189.397 93.4017 189.279 93.3427 189.161Z" fill="#323A50"/>
<path d="M94.0498 190.87L68.298 189.81C68.2391 189.927 68.2391 190.045 68.1802 190.222L94.2266 191.283C94.1677 191.165 94.1087 191.047 94.0498 190.87Z" fill="#323A50"/>
<path d="M94.875 192.579L67.9447 191.459C67.9447 191.577 67.8857 191.695 67.8857 191.871L95.1107 192.991C94.9929 192.873 94.934 192.755 94.875 192.579Z" fill="#323A50"/>
<path d="M95.8177 194.347L67.8267 193.228C67.8267 193.345 67.8267 193.463 67.8267 193.64L96.0534 194.76C95.9356 194.642 95.8767 194.524 95.8177 194.347Z" fill="#323A50"/>
<path d="M96.7015 195.997L67.9443 194.818C67.9443 194.936 68.0033 195.054 68.0033 195.231L96.9372 196.409C96.8783 196.292 96.8193 196.115 96.7015 195.997Z" fill="#323A50"/>
<path d="M97.7621 197.765L68.2979 196.586C68.3568 196.704 68.3568 196.822 68.4157 196.998L97.9978 198.177C97.9389 198.059 97.8211 197.882 97.7621 197.765Z" fill="#323A50"/>
<path d="M98.8233 199.474L68.8286 198.236C68.8875 198.354 68.9465 198.531 69.0054 198.649L99.059 199.886C99.0001 199.768 98.9411 199.651 98.8233 199.474Z" fill="#323A50"/>
<path d="M99.9428 201.241L69.5356 200.004C69.5946 200.122 69.6535 200.299 69.7124 200.416L100.179 201.654C100.12 201.536 100.061 201.418 99.9428 201.241Z" fill="#323A50"/>
<path d="M101.062 202.95L70.3604 201.713C70.4193 201.831 70.4782 202.008 70.5961 202.125L101.357 203.363C101.239 203.186 101.18 203.068 101.062 202.95Z" fill="#323A50"/>
<path d="M102.3 204.718L71.3623 203.48C71.4212 203.598 71.5391 203.775 71.598 203.893L102.594 205.13C102.477 205.013 102.359 204.836 102.3 204.718Z" fill="#323A50"/>
<path d="M103.478 206.427L72.3052 205.189C72.3641 205.307 72.482 205.484 72.5409 205.602L103.714 206.839C103.714 206.722 103.596 206.545 103.478 206.427Z" fill="#323A50"/>
<path d="M104.775 208.195L73.4839 206.957C73.6017 207.075 73.6607 207.252 73.7785 207.37L105.07 208.607C105.011 208.489 104.893 208.371 104.775 208.195Z" fill="#323A50"/>
<path d="M105.954 209.845L74.6035 208.607C74.7214 208.725 74.7803 208.902 74.8982 209.02L106.248 210.257C106.189 210.14 106.071 210.022 105.954 209.845Z" fill="#323A50"/>
<path d="M107.309 211.612L75.959 210.375C76.0768 210.493 76.1358 210.67 76.3126 210.787L107.663 212.025C107.545 211.907 107.427 211.789 107.309 211.612Z" fill="#323A50"/>
<path d="M108.605 213.38L77.2554 212.084C77.3732 212.202 77.4911 212.379 77.6089 212.496L108.959 213.734C108.841 213.616 108.723 213.498 108.605 213.38Z" fill="#323A50"/>
<path d="M110.02 215.149L78.7285 213.911C78.8464 214.029 78.9642 214.206 79.0821 214.324L110.373 215.561C110.255 215.443 110.137 215.266 110.02 215.149Z" fill="#323A50"/>
<path d="M111.375 216.916L80.2017 215.679C80.3195 215.797 80.4374 215.973 80.5552 216.091L111.728 217.329C111.611 217.211 111.493 217.034 111.375 216.916Z" fill="#323A50"/>
<path d="M112.789 218.684L81.7339 217.446C81.8517 217.564 81.9696 217.741 82.0874 217.859L113.084 219.096C113.025 218.978 112.907 218.861 112.789 218.684Z" fill="#323A50"/>
<path d="M114.203 220.452L83.3247 219.215C83.4426 219.333 83.5604 219.509 83.7372 219.627L114.557 220.865C114.439 220.688 114.321 220.57 114.203 220.452Z" fill="#323A50"/>
<path d="M115.559 222.102L84.8569 220.864C84.9748 220.982 85.0927 221.159 85.2694 221.277L115.912 222.514C115.794 222.396 115.677 222.279 115.559 222.102Z" fill="#323A50"/>
<path d="M116.914 223.752L86.4482 222.515C86.5661 222.633 86.6839 222.809 86.8607 222.927L117.268 224.165C117.15 224.047 117.032 223.87 116.914 223.752Z" fill="#323A50"/>
<path d="M118.388 225.52L88.1572 224.282C88.2751 224.4 88.3929 224.577 88.5697 224.695L118.741 225.932C118.623 225.814 118.505 225.696 118.388 225.52Z" fill="#323A50"/>
<path d="M119.86 227.287L89.8657 226.05C89.9836 226.168 90.1604 226.344 90.2782 226.462L120.214 227.641C120.096 227.582 119.978 227.405 119.86 227.287Z" fill="#323A50"/>
<path d="M121.334 229.056L91.6338 227.877C91.7516 227.995 91.9284 228.172 92.0463 228.289L121.687 229.468C121.628 229.35 121.511 229.232 121.334 229.056Z" fill="#323A50"/>
<path d="M122.748 230.706L93.3428 229.527C93.4606 229.645 93.6374 229.822 93.8142 229.94L123.102 231.118C122.984 231.001 122.866 230.883 122.748 230.706Z" fill="#323A50"/>
<path d="M124.162 232.355L95.0518 231.177C95.1696 231.295 95.3464 231.471 95.5232 231.589L124.516 232.768C124.398 232.65 124.28 232.532 124.162 232.355Z" fill="#323A50"/>
<path d="M125.695 234.182L96.9375 233.004C97.0554 233.122 97.2321 233.299 97.4089 233.416L126.048 234.595C125.989 234.418 125.871 234.3 125.695 234.182Z" fill="#323A50"/>
<path d="M127.227 235.891L98.8232 234.771C99 234.889 99.1179 235.066 99.2947 235.184L127.58 236.304C127.521 236.186 127.345 236.068 127.227 235.891Z" fill="#323A50"/>
<path d="M128.818 237.718L100.827 236.599C101.003 236.716 101.121 236.893 101.298 237.011L129.23 238.131C129.053 238.013 128.936 237.836 128.818 237.718Z" fill="#323A50"/>
<path d="M130.409 239.486L102.83 238.366C103.007 238.484 103.125 238.661 103.301 238.779L130.821 239.898C130.644 239.78 130.527 239.663 130.409 239.486Z" fill="#323A50"/>
<path d="M131.882 241.136L104.657 240.017C104.834 240.134 105.011 240.311 105.129 240.429L132.236 241.549C132.118 241.431 132 241.313 131.882 241.136Z" fill="#323A50"/>
<path d="M133.473 242.963L106.72 241.902C106.897 242.02 107.073 242.197 107.191 242.315L133.827 243.376C133.709 243.199 133.591 243.081 133.473 242.963Z" fill="#323A50"/>
<path d="M135.064 244.672L108.723 243.611C108.9 243.729 109.077 243.906 109.195 244.024L135.418 245.085C135.3 244.967 135.182 244.849 135.064 244.672Z" fill="#323A50"/>
<path d="M136.655 246.498L110.786 245.438C110.962 245.555 111.139 245.732 111.257 245.85L137.068 246.911C136.95 246.793 136.773 246.616 136.655 246.498Z" fill="#323A50"/>
<path d="M138.187 248.149L112.73 247.088C112.907 247.206 113.084 247.383 113.201 247.5L138.541 248.502C138.423 248.443 138.305 248.266 138.187 248.149Z" fill="#323A50"/>
<path d="M137.716 249.68L114.675 248.737C114.852 248.855 115.028 249.032 115.205 249.15L136.714 250.034C137.009 249.916 137.362 249.798 137.716 249.68Z" fill="#323A50"/>
<path d="M133.179 251.271L116.796 250.623C116.973 250.741 117.15 250.918 117.327 251.036L132.059 251.625C132.412 251.507 132.766 251.389 133.179 251.271Z" fill="#323A50"/>
<path d="M128.464 252.745L118.917 252.332C119.094 252.45 119.271 252.627 119.448 252.745L127.344 253.098C127.757 252.98 128.11 252.862 128.464 252.745Z" fill="#323A50"/>
<path d="M123.809 254.277L121.098 254.159C121.275 254.277 121.452 254.454 121.628 254.572L122.748 254.631C123.161 254.513 123.455 254.395 123.809 254.277Z" fill="#323A50"/>
</g>
<defs>
<linearGradient id="paint0_linear_3618_19418" x1="270.039" y1="226.393" x2="68.6122" y2="79.0673" gradientUnits="userSpaceOnUse">
<stop offset="0.2655" stop-color="#032A3D" stop-opacity="0"/>
<stop offset="0.7809" stop-color="#032A3D"/>
</linearGradient>
<radialGradient id="paint1_radial_3618_19418" cx="0" cy="0" r="1" gradientUnits="userSpaceOnUse" gradientTransform="translate(165.114 218.711) scale(68.109 67.7944)">
<stop offset="0.2655" stop-color="#032A3D" stop-opacity="0"/>
<stop offset="1" stop-color="#032A3D"/>
</radialGradient>
<linearGradient id="paint2_linear_3618_19418" x1="138.367" y1="111.115" x2="188.398" y2="307.514" gradientUnits="userSpaceOnUse">
<stop offset="0.4054" stop-color="#032A3D" stop-opacity="0"/>
<stop offset="1" stop-color="#032A3D"/>
</linearGradient>
<linearGradient id="paint3_linear_3618_19418" x1="102.285" y1="178.282" x2="233.881" y2="301.731" gradientUnits="userSpaceOnUse">
<stop offset="0.2655" stop-color="#032A3D" stop-opacity="0"/>
<stop offset="0.7809" stop-color="#032A3D"/>
</linearGradient>
<linearGradient id="paint4_linear_3618_19418" x1="109.489" y1="170.602" x2="241.086" y2="294.051" gradientUnits="userSpaceOnUse">
<stop offset="0.2655" stop-color="#032A3D" stop-opacity="0"/>
<stop offset="0.7809" stop-color="#032A3D"/>
</linearGradient>
<linearGradient id="paint5_linear_3618_19418" x1="106.952" y1="173.307" x2="238.549" y2="296.755" gradientUnits="userSpaceOnUse">
<stop offset="0.2655" stop-color="#032A3D" stop-opacity="0"/>
<stop offset="0.7809" stop-color="#032A3D"/>
</linearGradient>
<linearGradient id="paint6_linear_3618_19418" x1="81.8841" y1="200.029" x2="213.481" y2="323.477" gradientUnits="userSpaceOnUse">
<stop offset="0.2655" stop-color="#032A3D" stop-opacity="0"/>
<stop offset="0.7809" stop-color="#032A3D"/>
</linearGradient>
<linearGradient id="paint7_linear_3618_19418" x1="100.641" y1="180.034" x2="232.237" y2="303.483" gradientUnits="userSpaceOnUse">
<stop offset="0.2655" stop-color="#032A3D" stop-opacity="0"/>
<stop offset="0.7809" stop-color="#032A3D"/>
</linearGradient>
<linearGradient id="paint8_linear_3618_19418" x1="90.3025" y1="191.055" x2="221.899" y2="314.504" gradientUnits="userSpaceOnUse">
<stop offset="0.2655" stop-color="#032A3D" stop-opacity="0"/>
<stop offset="0.7809" stop-color="#032A3D"/>
</linearGradient>
<linearGradient id="paint9_linear_3618_19418" x1="71.7313" y1="210.852" x2="203.328" y2="334.3" gradientUnits="userSpaceOnUse">
<stop offset="0.2655" stop-color="#032A3D" stop-opacity="0"/>
<stop offset="0.7809" stop-color="#032A3D"/>
</linearGradient>
<linearGradient id="paint10_linear_3618_19418" x1="74.8122" y1="207.568" x2="206.409" y2="331.016" gradientUnits="userSpaceOnUse">
<stop offset="0.2655" stop-color="#032A3D" stop-opacity="0"/>
<stop offset="0.7809" stop-color="#032A3D"/>
</linearGradient>
<linearGradient id="paint11_linear_3618_19418" x1="85.1643" y1="196.533" x2="216.761" y2="319.981" gradientUnits="userSpaceOnUse">
<stop offset="0.2655" stop-color="#032A3D" stop-opacity="0"/>
<stop offset="0.7809" stop-color="#032A3D"/>
</linearGradient>
<linearGradient id="paint12_linear_3618_19418" x1="71.7027" y1="210.883" x2="203.3" y2="334.331" gradientUnits="userSpaceOnUse">
<stop offset="0.2655" stop-color="#032A3D" stop-opacity="0"/>
<stop offset="0.7809" stop-color="#032A3D"/>
</linearGradient>
<linearGradient id="paint13_linear_3618_19418" x1="140.642" y1="123.343" x2="106.973" y2="38.4997" gradientUnits="userSpaceOnUse">
<stop offset="0.1682" stop-color="#032A3D" stop-opacity="0"/>
<stop offset="0.3294" stop-color="#032A3D"/>
</linearGradient>
<linearGradient id="paint14_linear_3618_19418" x1="122.913" y1="91.0605" x2="206.047" y2="91.0605" gradientUnits="userSpaceOnUse">
<stop offset="0.1028" stop-color="white" stop-opacity="0"/>
<stop offset="0.5167" stop-color="#00FF30"/>
<stop offset="0.856" stop-color="white" stop-opacity="0"/>
</linearGradient>
<linearGradient id="paint15_linear_3618_19418" x1="166" y1="120.973" x2="164.471" y2="28.1177" gradientUnits="userSpaceOnUse">
<stop offset="0.4437" stop-color="white" stop-opacity="0"/>
<stop offset="0.8357" stop-color="white"/>
</linearGradient>
<clipPath id="clip0_3618_19418">
<rect width="330" height="330" fill="white"/>
</clipPath>
</defs>
</svg>
