<svg width="330" height="330" viewBox="0 0 330 330" fill="none" xmlns="http://www.w3.org/2000/svg">
<path d="M60.645 107.955V219.613H75.5014V216.186H105.547V110.719H75.5014V107.955H60.645Z" fill="white"/>
<path d="M105.769 110.829V216.296C105.769 216.517 105.602 217.015 105.381 217.015H76.1113V219.391C76.1113 219.613 75.7787 219.889 75.4461 219.889H60.3125C60.0908 219.889 59.8136 219.668 59.8136 219.391V107.788C59.8136 107.567 60.0353 107.567 60.3125 107.567H75.4461C75.6678 107.567 76.1113 107.567 76.1113 107.788V110.552H105.381C105.547 110.552 105.769 110.608 105.769 110.829ZM104.937 216.02V111.547H75.3906C75.1689 111.547 75.058 111.16 75.058 110.829V108.12H60.8114V219.005H75.058V216.296C75.058 216.075 75.1689 216.02 75.3906 216.02H104.937Z" fill="#323A50"/>
<path d="M105.103 114.256H60.257V212.427H105.103V114.256Z" fill="white"/>
<path d="M105.602 114.256V212.427C105.602 212.648 105.436 212.814 105.214 212.814H60.3125C60.0907 212.814 59.9244 212.648 59.9244 212.427V114.256C59.9244 114.035 60.0907 113.869 60.3125 113.869H105.159C105.381 113.814 105.602 113.98 105.602 114.256ZM104.715 211.985V114.698H60.7005V211.985H104.715Z" fill="#323A50"/>
<path d="M142.3 124.759L142.577 201.98L88.1959 208.337L88.2513 118.347L142.3 124.759Z" fill="white"/>
<path d="M143.076 201.98C143.076 202.201 142.909 202.367 142.743 202.367L88.3068 208.779C88.1959 208.779 88.085 208.779 87.9741 208.668C87.8633 208.613 87.8633 208.502 87.8633 208.392L87.9187 118.291C87.9187 118.181 87.9742 118.07 88.0296 118.015C88.1405 117.96 88.2513 117.904 88.3622 117.904L142.411 124.372C142.632 124.372 142.743 124.593 142.743 124.759L143.076 201.98ZM88.6394 207.894L142.189 201.537L141.912 125.09L88.7502 118.733L88.6394 207.894Z" fill="#323A50"/>
<path d="M134.428 135.372V190.925L110.48 203.086V123.156L134.428 135.372Z" fill="white"/>
<path d="M134.872 135.371V190.814C134.872 190.979 134.761 191.09 134.65 191.201L110.647 203.361C110.536 203.417 110.37 203.417 110.259 203.361C110.148 203.306 110.092 203.14 110.092 203.03V123.155C110.092 122.99 110.148 122.879 110.259 122.824C110.37 122.768 110.536 122.768 110.647 122.824L134.594 135.04C134.761 135.095 134.872 135.261 134.872 135.371ZM133.985 190.593V135.648L110.924 123.874V202.311L133.985 190.593Z" fill="#323A50"/>
<path d="M141.025 199.714C141.025 199.935 140.858 200.101 140.692 200.101L88.3622 206.347C88.1404 206.347 87.8633 206.236 87.8633 206.015C87.8633 205.794 87.9742 205.518 88.1959 205.518L140.526 199.271C140.692 199.271 140.969 199.437 141.025 199.714Z" fill="#323A50"/>
<path d="M140.914 126.748C140.914 127.025 140.692 127.246 140.415 127.135L88.3621 120.944C88.1404 120.944 87.9741 120.723 88.0295 120.447C88.0295 120.226 88.2513 120.06 88.5284 120.115L140.581 126.306C140.692 126.361 140.914 126.527 140.914 126.748Z" fill="#323A50"/>
<path d="M95.7349 121.442C101.722 166.05 95.7349 205.02 95.7349 205.02L92.9078 205.352C88.9165 162.513 93.0186 121.166 93.0186 121.166L95.7349 121.442Z" fill="white"/>
<path d="M98.8947 163.01C98.8947 187.498 96.2338 204.91 96.2338 205.131C96.2338 205.297 96.0675 205.462 95.9012 205.462L93.0741 205.794C92.9632 205.794 92.8524 205.794 92.7969 205.683C92.686 205.628 92.6306 205.518 92.6306 205.407C91.4665 192.97 90.8567 179.372 90.8567 165.166C90.8567 140.126 92.6861 121.332 92.7415 121.111C92.7415 121 92.7969 120.889 92.9078 120.834C93.0187 120.779 93.0741 120.724 93.185 120.724L95.9012 121C96.0675 121 96.2338 121.166 96.2338 121.332C98.0077 134.543 98.8947 148.528 98.8947 163.01ZM95.4023 204.578C95.7349 202.035 98.0077 185.563 98.0077 162.9C98.0077 148.693 97.1208 134.819 95.3469 121.774L93.4067 121.553C93.1295 124.538 91.5774 142.171 91.5774 165.055C91.5774 179.095 92.1871 192.472 93.2958 204.799L95.4023 204.578Z" fill="#323A50"/>
<path d="M94.6263 172.794C94.6263 172.904 94.5708 173.015 94.5154 173.07C94.3491 173.236 94.1274 173.236 93.8502 173.07L91.023 170.306C90.8567 170.14 90.8567 169.919 91.023 169.643C91.1893 169.477 91.4111 169.477 91.6883 169.643L94.5154 172.407C94.5708 172.573 94.6263 172.683 94.6263 172.794Z" fill="#323A50"/>
<path d="M97.398 173.678C97.398 173.789 97.3425 173.899 97.2871 173.954C97.1208 174.12 96.8991 174.12 96.6219 173.954L91.023 168.482C90.8567 168.316 90.8567 168.095 91.023 167.819C91.1893 167.653 91.4111 167.653 91.6883 167.819L97.2871 173.291C97.3425 173.457 97.398 173.567 97.398 173.678Z" fill="#323A50"/>
<path d="M96.7327 157.151C96.7327 157.261 96.6773 157.372 96.6219 157.427C96.4556 157.593 96.2338 157.593 95.9567 157.427L91.1893 152.784C91.023 152.618 91.023 152.397 91.1893 152.12C91.3556 151.955 91.5773 151.955 91.8545 152.12L96.6219 156.764C96.7327 156.874 96.7327 156.93 96.7327 157.151Z" fill="#323A50"/>
<path d="M94.9034 157.261C94.9034 157.372 94.848 157.483 94.7926 157.538C94.6263 157.704 94.4045 157.704 94.1273 157.538L91.0785 154.498C90.9122 154.332 90.9122 154.111 91.0785 153.834C91.2448 153.669 91.4665 153.669 91.7437 153.834L94.7926 156.875C94.9034 156.985 94.9034 157.151 94.9034 157.261Z" fill="#323A50"/>
<path d="M158.875 109.613C152.389 115.859 152.5 115.915 149.34 118.734C143.464 123.985 123.785 139.573 123.563 163.176V163.452C123.729 187.055 143.408 202.699 149.34 207.895C152.666 210.824 152.555 210.769 159.706 217.623C174.673 234.261 196.348 244.709 220.517 244.709C255.663 244.709 285.486 222.598 297.128 191.643C297.183 191.643 297.294 191.312 297.349 191.312C298.181 189.322 300.398 182.744 301.174 176.94C301.895 172.628 302.227 167.709 302.227 163.231C302.227 118.236 265.641 81.7539 220.517 81.7539C195.794 81.7539 173.842 92.5328 158.875 109.613Z" fill="white"/>
<path d="M302.505 163.232C302.505 167.875 302.172 172.85 301.451 176.995C300.675 182.799 298.513 189.322 297.626 191.422L297.516 191.644H297.46C297.46 191.699 297.405 191.754 297.349 191.809C291.584 207.287 281.329 220.498 267.747 230.061C253.833 239.9 237.48 245.041 220.406 245.041C208.544 245.041 197.069 242.553 186.425 237.689C176.115 232.99 166.968 226.302 159.373 217.845C158.32 216.794 157.378 215.965 156.602 215.191C152.167 210.88 151.834 210.603 149.063 208.116C148.785 207.84 148.342 207.508 147.954 207.176C144.572 204.302 138.364 198.829 133.042 191.478C126.556 182.468 123.286 173.015 123.119 163.397V163.176C123.175 153.558 126.556 144.106 133.042 135.096C138.364 127.744 144.572 122.272 147.954 119.397C148.342 119.066 148.73 118.734 149.063 118.458C151.169 116.578 151.89 115.915 153.885 113.925C154.939 112.93 156.38 111.438 158.542 109.392C166.136 100.714 175.338 93.8044 185.816 88.94C196.681 83.9652 208.266 81.3672 220.351 81.3672C231.438 81.3672 242.192 83.523 252.281 87.7793C262.038 91.8697 270.852 97.8395 278.391 105.357C285.93 112.875 291.861 121.608 296.019 131.392C300.343 141.453 302.505 152.176 302.505 163.232ZM296.906 191.091C297.682 189.211 299.899 182.634 300.675 176.94C301.34 172.905 301.728 167.875 301.728 163.287C301.728 118.568 265.253 82.1963 220.406 82.1963C196.958 82.1963 174.618 92.3119 159.207 109.945C157.045 112.046 155.548 113.483 154.551 114.478C152.5 116.468 151.779 117.186 149.672 119.066C149.395 119.342 148.952 119.674 148.564 120.005C141.912 125.754 124.228 141.066 124.062 163.176V163.397C124.228 185.563 141.912 200.819 148.564 206.568C148.952 206.9 149.34 207.231 149.672 207.508C152.5 209.995 152.832 210.327 157.267 214.639C158.043 215.412 158.985 216.297 160.039 217.347C175.394 234.427 197.457 244.267 220.517 244.267C254.277 244.267 284.932 223.041 296.684 191.478L296.739 191.257H296.795C296.795 191.201 296.85 191.146 296.906 191.091Z" fill="#323A50"/>
<path d="M302.893 163.231C302.893 174.286 300.731 185.065 296.407 195.181C292.305 204.91 286.318 213.754 278.779 221.271C271.24 228.789 262.37 234.703 252.614 238.849C242.469 243.161 231.715 245.317 220.573 245.317C208.654 245.317 197.18 242.829 186.481 237.965C176.115 233.266 166.968 226.578 159.318 218.065C152.61 211.543 152.222 211.322 149.34 208.779L148.841 208.392C148.508 208.116 148.065 207.729 147.677 207.397C144.018 204.301 138.031 199.05 132.654 191.643C126.168 182.633 122.787 173.181 122.731 163.508V163.286C122.787 153.668 126.168 144.105 132.654 135.151C137.976 127.799 144.018 122.492 147.677 119.397C148.065 119.065 148.508 118.678 148.841 118.402C152.001 115.583 152.167 115.528 158.486 109.337C166.136 100.658 175.338 93.7487 185.871 88.8844C196.792 83.9095 208.377 81.3115 220.462 81.3115C231.549 81.3115 242.358 83.4673 252.503 87.7789C262.259 91.8693 271.129 97.8392 278.668 105.357C286.207 112.874 292.138 121.719 296.296 131.447C300.675 141.397 302.893 152.121 302.893 163.231ZM124.006 163.176V163.397C124.173 185.397 141.856 200.598 148.508 206.347C148.896 206.678 149.34 207.065 149.672 207.397L150.171 207.784C152.998 210.327 153.331 210.603 160.205 217.126V217.181C175.56 234.206 197.623 244.045 220.628 244.045C265.364 244.045 301.784 207.784 301.784 163.121C301.784 118.457 265.419 82.1959 220.628 82.1959C197.235 82.1959 174.95 92.2563 159.54 109.889L159.484 109.945C152.998 116.191 152.943 116.246 149.728 119.065C149.395 119.342 148.952 119.729 148.564 120.116C141.856 125.975 124.173 141.176 124.006 163.176Z" fill="#323A50"/>
<path opacity="0.83" d="M159.429 119.894C157.322 117.904 155.271 117.296 151.89 120.226C146.18 125.256 127 140.402 126.778 163.231V163.452C126.944 186.337 146.125 201.427 151.834 206.457C155.271 209.442 157.71 207.894 159.152 207.231C162.81 205.296 163.531 202.477 162.977 201.703C159.651 196.342 151.114 193.633 149.118 187.608C149.063 187.442 144.85 178.653 144.739 164.06C144.739 164.005 144.683 154.11 147.566 144.769C149.95 136.146 159.096 130.673 162.478 125.256C163.642 123.598 161.092 121.442 159.429 119.894Z" fill="url(#paint0_linear_3632_75466)"/>
<path d="M295.187 163.452C295.187 204.799 261.594 238.296 220.129 238.296C195.738 238.296 174.064 226.688 160.316 208.668" fill="white"/>
<path d="M295.575 163.508C295.575 173.734 293.58 183.518 289.699 192.805C285.93 201.815 280.442 209.774 273.568 216.739C266.639 223.649 258.601 229.066 249.565 232.825C240.252 236.749 230.329 238.684 220.185 238.684C208.156 238.684 196.736 235.975 186.093 230.558C175.948 225.473 166.968 217.9 160.039 208.89L160.704 208.392C174.95 227.076 196.625 237.855 220.24 237.855C261.428 237.855 294.966 204.413 294.966 163.397L295.575 163.508Z" fill="#323A50"/>
<path d="M220.074 232.161C258.129 232.161 288.979 201.399 288.979 163.453C288.979 125.506 258.129 94.7441 220.074 94.7441C182.019 94.7441 151.169 125.506 151.169 163.453C151.169 201.399 182.019 232.161 220.074 232.161Z" fill="white"/>
<path d="M289.256 163.453C289.256 181.915 282.049 199.161 268.967 212.206C255.884 225.252 238.478 232.438 220.074 232.438C201.559 232.438 184.263 225.252 171.181 212.206C158.098 199.161 150.892 181.804 150.892 163.453C150.892 145.046 158.098 127.744 171.181 114.699C184.263 101.654 201.67 94.4678 220.074 94.4678C238.589 94.4678 255.884 101.654 268.967 114.699C282.105 127.744 289.256 145.101 289.256 163.453ZM151.502 163.453C151.502 201.151 182.268 231.83 220.074 231.83C257.88 231.83 288.646 201.151 288.646 163.453C288.646 125.754 257.935 95.0758 220.074 95.0758C182.268 95.1311 151.502 125.809 151.502 163.453Z" fill="#323A50"/>
<g opacity="0.1">
<path d="M247.569 103.754L247.514 104.251C249.898 104.528 253.002 111.327 253.224 112.764C253.334 113.372 253.168 113.704 253.057 114.035C252.891 114.588 252.669 115.03 253.168 115.915C254.111 117.462 259.82 122.658 262.647 123.875C265.475 124.98 267.027 125.754 268.08 128.407C268.69 129.844 268.69 132.055 268.69 134.322C268.69 136.422 268.69 138.689 269.189 140.347C269.909 142.89 271.018 145.322 271.683 146.538C270.963 145.875 270.242 145.322 269.577 144.714C268.357 143.663 267.193 142.779 266.805 142.116C266.195 141.342 265.973 138.578 265.641 135.704C265.253 131.834 264.754 127.357 263.479 126.03C261.982 124.483 256.494 122.271 252.004 120.503C249.62 119.563 247.569 118.734 246.738 118.292C245.851 117.739 244.908 116.302 243.855 114.754C242.081 112.101 240.086 109.116 237.647 109.171V109.668C239.809 109.613 241.693 112.488 243.412 115.086C244.52 116.799 245.463 118.181 246.461 118.789C247.348 119.342 249.343 120.06 251.782 121C256.217 122.769 261.705 124.925 263.091 126.417C263.59 126.97 263.978 127.965 264.2 129.236C263.701 128.407 263.035 127.412 262.148 126.638C260.541 125.367 256.661 124.261 254.609 123.709C254.277 123.598 253.944 123.543 253.723 123.488C253.057 123.322 252.669 123.543 252.226 123.764C251.838 124.04 251.283 124.372 250.175 124.096C248.955 123.875 248.401 123.156 247.791 122.382C247.458 121.829 247.015 121.332 246.461 120.89C244.853 119.95 243.301 120.558 242.469 120.834H242.414C241.804 121.055 241.86 121.608 241.86 121.94C241.915 122.271 241.915 122.603 241.693 122.714C241.472 122.824 240.973 122.548 240.529 122.161C239.809 121.663 239.032 121.111 238.312 121.442L238.478 121.829C239.032 121.608 239.642 122.05 240.252 122.493C240.917 122.88 241.416 123.322 241.97 123.045C242.525 122.769 242.358 122.216 242.358 121.885C242.303 121.498 242.303 121.277 242.525 121.166H242.58C243.412 120.89 244.798 120.337 246.183 121.166C246.738 121.498 247.07 121.995 247.403 122.437C248.013 123.266 248.567 124.096 250.064 124.317C251.339 124.538 252.004 124.206 252.503 123.93C252.836 123.709 253.113 123.598 253.556 123.709C253.722 123.764 254.111 123.819 254.443 123.93C256.328 124.483 260.264 125.533 261.816 126.749C263.534 128.076 264.477 130.563 264.532 130.729C264.754 132.277 264.92 133.935 265.142 135.538C265.475 138.578 265.807 141.231 266.362 142.116C266.86 142.779 267.969 143.719 269.189 144.769C271.683 146.869 275.009 149.689 274.898 151.679C274.843 152.673 274.621 153.779 274.344 155.05C273.845 157.427 273.291 160.081 273.79 163.01C274.898 168.925 276.062 171.025 277.504 172.186C278.834 173.292 280.553 173.955 280.608 173.955L280.774 173.568C280.774 173.568 279.056 172.96 277.781 171.854C276.506 170.749 275.342 168.814 274.233 162.955C273.679 160.136 274.233 157.538 274.788 155.216C275.009 154.055 275.286 152.839 275.397 151.789C275.508 150.297 274.067 148.583 272.293 146.869L272.459 146.814C272.459 146.759 270.575 143.442 269.688 140.07C269.3 138.412 269.3 136.256 269.3 134.211C269.3 131.834 269.3 129.623 268.69 128.076C267.581 125.256 265.918 124.427 263.035 123.322C260.375 122.216 254.665 117.02 253.778 115.638C253.39 114.92 253.501 114.588 253.667 114.091C253.833 113.759 254 113.261 253.889 112.543C253.445 111.05 250.119 104.141 247.569 103.754Z" fill="#323A50"/>
<path d="M258.379 158.643C259.21 159.417 260.541 159.307 262.149 159.196C263.701 159.085 265.308 158.92 266.75 159.528C269.521 160.799 271.628 166.824 271.628 166.879L272.016 166.769C271.96 166.548 269.854 160.578 266.916 159.196C265.364 158.477 263.59 158.588 262.093 158.809C260.596 158.92 259.321 159.03 258.656 158.422C257.936 157.704 257.437 155.271 256.882 153.005C256.272 150.462 255.829 148.307 255.053 147.699C254.332 147.146 253.723 147.035 253.113 146.98C252.448 146.869 252.004 146.814 251.561 146.206C251.394 145.93 251.45 144.382 251.561 142.779C251.782 138.302 252.226 131.558 248.844 129.126C246.183 127.191 244.243 127.854 242.469 128.407C241.139 128.905 239.864 129.291 238.478 128.407C237.369 127.744 236.926 126.583 236.538 125.256C235.706 122.658 234.653 119.452 227.946 117.297C226.338 116.799 224.786 117.075 223.178 117.297C221.127 117.573 219.187 117.96 217.358 116.688L217.136 117.02C219.132 118.347 221.238 118.015 223.345 117.739C224.952 117.518 226.393 117.241 227.89 117.739C234.376 119.729 235.374 122.824 236.205 125.312C236.704 126.804 237.092 128.02 238.367 128.794C240.03 129.734 241.416 129.291 242.802 128.794C244.52 128.186 246.294 127.688 248.678 129.457C251.782 131.724 251.45 138.633 251.228 142.668C251.173 144.271 251.117 145.266 251.173 145.819C250.507 145.598 249.62 145.432 248.623 145.211C246.849 144.935 244.853 144.548 243.8 143.553C243.245 143 243.024 142.337 242.747 141.397C242.081 139.131 241.139 135.98 234.709 133.437H234.653C232.436 132.94 230.884 133.492 229.941 134.045C229.553 134.266 229.276 134.764 229.11 135.151C228.888 135.704 228.555 136.256 227.946 136.754C226.781 137.583 219.908 137.859 218.633 137.638C218.522 137.638 218.466 137.583 218.466 137.583C218.411 137.528 218.522 137.251 218.577 136.975C218.799 136.256 219.298 135.096 218.245 133.603L217.912 133.824C218.854 135.04 218.522 136.035 218.189 136.754C218.078 137.085 217.967 137.472 218.078 137.694C218.134 137.804 218.3 137.915 218.577 137.97C219.852 138.191 226.837 137.97 228.223 137.03C228.999 136.477 229.331 135.814 229.553 135.261C229.719 134.874 229.886 134.487 230.218 134.322C231.05 133.824 232.491 133.382 234.598 133.769C240.806 136.201 241.693 139.186 242.303 141.342C242.58 142.337 242.857 143.166 243.467 143.774C244.631 144.879 246.793 145.266 248.567 145.543C249.731 145.709 250.951 145.93 251.394 146.317C251.893 146.98 252.503 147.09 253.168 147.201C253.778 147.312 254.277 147.367 254.887 147.864C255.552 148.362 256.051 150.739 256.55 152.839C257.104 155.548 257.603 157.869 258.379 158.643Z" fill="#323A50"/>
<path d="M212.313 157.924C212.978 157.316 213.422 156.874 214.863 157.151C215.805 157.316 217.136 157.869 218.577 158.367C221.127 159.362 223.677 160.357 224.897 159.914C225.506 159.693 225.895 159.306 226.227 158.975C227.059 158.256 227.946 157.482 230.606 157.924C232.713 158.201 234.321 159.362 235.596 160.301C236.704 161.075 237.702 161.794 238.7 161.628C239.476 161.573 239.919 161.13 240.474 160.744C241.361 160.025 242.303 159.251 244.576 160.246C246.35 161.02 246.793 162.07 247.181 162.899C247.569 163.784 247.957 164.613 249.676 164.336C251.505 164.06 252.669 162.844 253.778 161.794C254.609 160.965 255.496 160.135 256.55 159.638L256.383 159.251C255.219 159.859 254.332 160.688 253.445 161.462C252.337 162.568 251.283 163.618 249.565 163.894C248.235 164.115 247.957 163.673 247.625 162.789C247.292 161.904 246.738 160.744 244.798 159.914C242.192 158.864 241.139 159.693 240.197 160.522C239.642 160.909 239.254 161.296 238.644 161.352C237.868 161.407 236.981 160.799 235.873 160.08C234.542 159.14 232.879 158.035 230.606 157.648C227.779 157.261 226.781 158.035 225.895 158.809C225.562 159.14 225.118 159.472 224.675 159.638C223.677 160.025 221.016 158.975 218.744 158.09C217.302 157.482 215.972 157.04 214.974 156.819C213.311 156.487 212.757 157.04 212.036 157.703C211.648 158.09 211.149 158.588 210.262 158.754L210.373 159.14C211.315 158.975 211.814 158.422 212.313 157.924Z" fill="#323A50"/>
<path d="M275.342 155.659C274.566 157.262 274.233 161.186 274.677 163.618C275.065 165.995 276.007 170.03 277.726 171.633C278.723 172.518 280.608 173.402 280.719 173.402L280.885 173.015C280.885 173.015 278.945 172.186 278.003 171.302C276.284 169.754 275.397 165.387 275.065 163.563C274.566 160.965 275.065 157.262 275.73 155.935C276.451 154.442 277.504 154 278.003 153.945C279.666 153.779 281.052 156.432 281.052 156.488L281.44 156.322C281.384 156.211 279.832 153.337 277.892 153.558C277.227 153.503 276.063 154.111 275.342 155.659Z" fill="#323A50"/>
<path d="M247.126 154.498C247.403 153.669 247.791 152.839 248.567 152.397C249.454 151.734 251.671 150.518 253.667 152.231C254.499 152.95 255.164 154.719 255.718 156.322C256.328 157.98 256.882 159.528 257.658 160.025C258.49 160.578 259.82 160.412 261.483 160.302C262.98 160.191 264.421 160.136 265.585 160.412C268.025 161.131 270.852 167.101 270.907 167.156L271.295 166.99C271.184 166.769 268.357 160.744 265.696 160.025C264.477 159.694 262.814 159.804 261.372 159.915C259.876 160.025 258.49 160.081 257.825 159.694C257.159 159.307 256.661 157.704 256.051 156.156C255.386 154.387 254.776 152.618 253.889 151.844C252.281 150.518 250.23 150.573 248.179 152.01C247.348 152.618 246.96 153.558 246.627 154.387C246.294 155.216 245.962 155.99 245.296 156.322C243.744 157.04 242.137 156.488 241.472 155.548C241.305 155.327 241.194 154.995 240.973 154.774C240.418 153.945 239.975 153.061 238.866 152.01C237.314 150.573 231.216 148.03 228.278 147.533C226.504 147.257 225.728 147.699 224.897 148.252C224.231 148.638 223.622 149.081 222.347 149.191L222.402 149.689C223.733 149.578 224.453 149.081 225.174 148.694C225.95 148.196 226.671 147.809 228.167 148.03C231.05 148.528 237.148 151.015 238.534 152.397C239.587 153.392 240.141 154.221 240.585 155.051C240.751 155.272 240.862 155.603 241.083 155.824C241.804 156.93 243.744 157.593 245.518 156.764C246.405 156.267 246.793 155.382 247.126 154.498Z" fill="#323A50"/>
</g>
<g opacity="0.1">
<path d="M273.623 174.287C272.404 174.453 271.461 175.89 270.464 177.272C269.688 178.377 268.745 180.036 267.914 181.528C267.193 182.799 266.583 183.96 266.195 184.402C266.14 184.513 265.974 184.623 265.863 184.734C264.754 185.453 262.038 185.95 259.931 185.784C258.712 185.729 257.769 185.84 256.993 185.895C256.162 186.005 255.552 186.061 255.053 185.84C254.665 185.674 254.554 185.342 254.499 184.9C254.443 184.402 254.332 183.85 253.556 183.573C252.891 183.352 252.226 183.463 251.505 183.518C250.785 183.629 250.23 183.684 249.787 183.407C249.454 183.131 249.232 182.799 249.122 182.468C248.955 182.081 248.789 181.583 248.179 181.252C247.625 180.92 247.015 181.362 246.128 181.97C244.909 182.855 243.19 184.015 241.084 183.518C238.811 182.965 238.922 182.302 239.032 181.307C239.088 180.809 239.199 180.312 238.977 179.704C238.644 178.764 236.593 177.935 234.487 177.051C232.824 176.332 231.105 175.724 230.717 175.061C230.163 174.342 230.052 173.789 229.941 173.181C229.83 172.573 229.775 172.076 229.165 171.634C228.5 171.081 227.613 171.412 226.892 171.634C226.393 171.744 225.95 171.91 225.728 171.799L225.507 172.131C225.839 172.297 226.393 172.186 227.059 172.02C227.724 171.855 228.5 171.634 228.943 171.965C229.331 172.242 229.442 172.684 229.553 173.181C229.664 173.789 229.775 174.397 230.385 175.227C230.939 175.945 232.547 176.664 234.376 177.327C236.261 178.101 238.312 178.985 238.644 179.759C238.811 180.257 238.755 180.699 238.7 181.086C238.589 182.081 238.423 183.131 241.139 183.794C243.523 184.347 245.241 183.076 246.572 182.191C247.292 181.694 247.847 181.307 248.179 181.473C248.678 181.749 248.789 182.136 248.955 182.523C249.066 182.855 249.232 183.352 249.787 183.684C250.396 184.071 251.062 183.96 251.838 183.85C252.503 183.739 253.113 183.684 253.667 183.85C254.221 184.015 254.277 184.458 254.332 184.845C254.388 185.232 254.443 185.84 255.164 186.116C255.829 186.337 256.439 186.282 257.326 186.171C258.102 186.061 258.989 186.005 260.153 186.061C261.428 186.171 263.091 186.005 264.532 185.674C262.925 186.669 260.43 187.94 257.936 188.161C255.884 188.327 255.164 187.94 254.055 187.387C253.057 186.835 251.671 186.227 248.844 185.674C244.742 184.955 240.862 186.724 238.866 187.94C238.534 187.83 235.762 187 234.986 184.9L234.653 183.85C233.933 181.804 233.323 180.036 232.824 179.096C232.159 177.88 230.108 176.94 228.833 176.664C228.056 176.553 227.613 176.885 227.17 177.272C226.837 177.548 226.393 177.88 225.839 177.88C225.285 177.825 224.841 177.051 224.232 176.166C223.4 174.95 222.347 173.347 220.628 172.739C218.577 171.965 217.635 172.739 216.803 173.402C216.415 173.679 216.027 174.066 215.584 174.176L215.695 174.563C216.304 174.453 216.692 174.01 217.191 173.734C218.023 173.071 218.744 172.518 220.573 173.126C222.18 173.734 223.178 175.171 223.954 176.443C224.675 177.438 225.118 178.267 225.895 178.322C226.726 178.377 227.114 178.046 227.613 177.659C227.946 177.382 228.334 177.051 228.888 177.161C230.218 177.382 232.048 178.322 232.602 179.317C233.101 180.257 233.711 182.081 234.431 184.015L234.764 185.066C235.485 187.056 237.647 187.94 238.589 188.272C237.979 188.603 237.647 188.935 237.647 188.99C237.591 189.046 233.822 193.136 230.939 194.96C228.056 196.84 225.617 196.784 224.786 195.789C224.287 195.237 224.232 194.186 224.176 192.97C224.121 191.865 224.065 190.538 223.622 189.377C222.957 187.608 220.517 186.392 219.741 186.005C218.688 185.453 217.136 185.01 216.415 185.287C215.14 185.784 214.697 187.719 214.697 187.774L215.085 187.83C215.085 187.83 215.417 186.061 216.526 185.674C216.914 185.563 218.078 185.729 219.464 186.392C220.961 187.056 222.624 188.216 223.123 189.433C223.511 190.483 223.511 191.809 223.677 192.86C223.733 194.131 223.788 195.292 224.342 195.9C225.285 197.005 227.835 197.227 231.05 195.126C233.877 193.302 237.591 189.322 237.813 189.101C238.09 188.88 243.19 185.01 248.844 185.95C251.671 186.448 252.891 187.056 253.889 187.608C254.111 187.719 254.388 187.83 254.609 187.94C253.279 188.493 252.392 188.438 251.727 188.327C250.785 188.272 250.23 188.327 249.51 189.543C248.512 191.201 248.29 194.463 248.179 196.618C248.124 197.503 248.068 198.221 248.013 198.553C247.736 199.88 247.07 200.598 245.906 200.985C244.909 201.262 244.631 201.041 244.077 200.654C243.966 200.543 243.8 200.433 243.578 200.322C243.356 200.156 243.19 199.769 242.913 199.438C242.414 198.608 241.804 197.503 240.197 197.613C238.755 197.669 238.312 198.553 237.813 199.493C237.536 200.156 237.148 200.709 236.538 201.262C234.875 202.478 230.163 203.915 227.613 204.191C224.73 204.468 219.353 203.97 219.076 203.473C219.021 203.307 219.353 202.533 219.686 201.925C220.24 200.819 220.85 199.438 220.628 198.498C220.573 198.332 220.573 198.221 220.517 198.111C220.24 196.95 220.129 196.784 218.91 196.895C218.023 196.95 217.912 197.613 217.857 198.111C217.801 198.443 217.746 198.83 217.524 199.051C216.914 199.548 214.752 199.327 213.921 199.272L213.865 199.659C214.142 199.714 216.914 199.99 217.801 199.382C218.189 199.106 218.3 198.553 218.356 198.221C218.466 197.613 218.522 197.392 219.021 197.337C219.52 197.282 219.741 197.282 219.852 197.392C219.963 197.503 220.019 197.724 220.129 198.277C220.185 198.387 220.185 198.553 220.24 198.664C220.407 199.493 219.852 200.764 219.353 201.759C218.854 202.699 218.633 203.307 218.744 203.639C219.076 204.578 225.562 204.855 227.779 204.634C230.44 204.412 235.208 202.92 236.926 201.649C237.647 201.096 238.035 200.433 238.423 199.769C238.922 198.885 239.254 198.166 240.418 198.111C241.693 198.056 242.248 198.885 242.802 199.714C243.024 200.101 243.301 200.488 243.578 200.709C243.744 200.819 243.855 200.93 244.077 201.041C244.631 201.428 245.075 201.87 246.294 201.538C247.625 201.151 248.345 200.322 248.789 198.83C248.844 198.553 248.9 198.111 248.9 197.558C249.122 197.89 249.122 198.277 249.122 198.664C249.122 199.051 249.066 199.548 249.399 199.99C249.953 200.764 250.84 200.267 251.394 199.935C251.671 199.824 252.004 199.659 252.17 199.659C252.281 199.659 252.392 199.714 252.503 199.825C252.669 200.046 252.725 200.543 252.669 201.151C252.558 201.87 251.505 202.809 250.84 203.362C250.618 203.583 250.452 203.749 250.286 203.915C250.119 204.136 250.119 204.523 250.175 204.799C250.23 205.131 250.23 205.573 250.008 205.905C249.898 206.071 249.676 206.181 249.343 206.237C248.789 206.292 248.235 206.071 248.124 205.96C248.068 205.905 248.068 205.739 248.068 205.463C248.068 205.186 248.068 204.799 247.847 204.523C247.514 204.026 246.793 203.86 245.795 203.915C245.186 203.97 245.186 204.468 245.186 204.855C245.186 205.352 245.13 205.85 244.465 206.071C243.966 206.237 243.523 206.015 242.913 205.684C242.026 205.131 240.917 204.578 239.31 205.463C237.369 206.513 237.591 207.618 237.702 208.503C237.757 208.779 237.813 209.111 237.757 209.277C237.702 209.443 237.591 209.553 237.536 209.553C237.369 209.608 237.203 209.498 237.148 209.443L236.926 209.774C236.981 209.774 237.314 210.051 237.757 209.94C237.979 209.885 238.146 209.719 238.367 209.332C238.478 209.056 238.423 208.669 238.367 208.337C238.256 207.563 238.09 206.623 239.698 205.739C241.139 204.965 241.97 205.518 242.857 205.96C243.523 206.292 244.077 206.679 244.742 206.347C245.685 206.015 245.685 205.242 245.685 204.689C245.685 204.191 245.74 204.136 245.851 204.136C246.682 204.081 247.181 204.191 247.514 204.523C247.625 204.689 247.625 204.91 247.625 205.186C247.625 205.463 247.625 205.794 247.847 206.015C248.068 206.237 248.789 206.568 249.51 206.402C249.898 206.347 250.286 206.181 250.507 205.85C250.84 205.297 250.785 204.855 250.785 204.412C250.785 204.136 250.729 203.915 250.84 203.804C250.895 203.694 251.117 203.583 251.394 203.307C252.115 202.644 253.224 201.649 253.335 200.764C253.335 200.764 253.335 200.764 253.335 200.709C253.445 199.935 253.335 199.438 253.057 199.051C252.891 198.885 252.669 198.774 252.337 198.774C252.06 198.774 251.727 198.94 251.394 199.106C250.674 199.438 250.23 199.714 249.898 199.272C249.676 198.995 249.676 198.608 249.676 198.221C249.676 197.669 249.731 197.061 249.011 196.508C249.011 196.453 249.011 196.397 249.011 196.397C249.122 194.297 249.288 191.091 250.286 189.543C251.006 188.438 251.339 188.493 252.115 188.493C252.891 188.548 253.889 188.603 255.607 187.83C256.328 188.051 257.159 188.161 258.434 188.051C262.481 187.774 266.639 184.568 266.916 184.402C267.082 184.292 267.248 184.126 267.415 184.015C267.747 183.518 268.413 182.412 269.189 181.086C270.02 179.593 270.963 177.99 271.739 176.83C272.626 175.558 273.568 174.176 274.621 174.01C275.12 173.955 275.564 174.066 276.173 174.563C278.224 176.111 285.486 178.101 285.708 178.101L285.764 177.714C285.375 177.659 278.335 175.724 276.451 174.232C274.788 174.342 274.178 174.176 273.623 174.287Z" fill="#323A50"/>
<path d="M275.508 177.327C273.291 177.99 270.907 181.141 270.242 182.136C268.912 184.347 268.579 189.543 269.078 191.975C269.3 193.025 269.688 193.854 270.02 194.518C270.353 195.292 270.741 195.955 270.741 196.784C270.741 198.608 270.963 199.548 271.628 200.432C271.739 200.598 271.905 200.653 272.016 200.653C272.348 200.653 272.736 200.377 273.069 199.935C273.291 199.658 273.734 199.216 273.901 199.272C274.011 199.272 274.067 199.382 274.122 199.493C274.788 200.653 273.901 201.538 273.845 201.593L274.122 201.87C274.122 201.87 275.286 200.709 274.455 199.216C274.289 198.94 274.122 198.829 273.845 198.719C273.457 198.664 273.014 199.05 272.626 199.493C272.404 199.714 272.071 200.101 271.905 200.101L271.85 200.045C271.24 199.272 271.073 198.332 271.073 196.618C271.073 195.623 270.741 194.96 270.297 194.131C270.02 193.467 269.577 192.694 269.41 191.643C268.912 189.432 269.244 184.292 270.519 182.191C271.295 180.92 273.513 178.101 275.453 177.548C276.007 177.437 276.949 177.658 277.67 177.935C281.717 179.648 284.599 180.312 284.655 180.312L284.71 179.925C284.71 179.925 281.828 179.317 277.836 177.658C277.504 177.658 276.229 177.161 275.508 177.327Z" fill="#323A50"/>
<path d="M275.065 176.332C274.233 176.442 273.346 177.271 273.014 177.548C272.958 177.603 272.958 177.603 272.958 177.603C271.018 179.261 269.189 181.583 268.579 183.186C268.413 183.573 268.302 184.181 268.246 184.844C267.027 187.387 266.528 189.819 266.084 192.196C265.863 193.467 265.53 194.849 265.197 196.121C264.2 199.658 258.268 205.573 257.991 205.849C257.769 206.015 252.614 210.105 250.84 210.437C250.064 210.603 246.239 211.432 245.186 211.93C244.243 212.261 242.525 217.402 242.248 218.397C242.137 220.884 241.915 224.533 241.638 224.809C241.361 225.196 239.975 225.693 239.365 225.583C239.143 225.583 238.977 225.306 238.755 224.975C238.478 224.588 238.035 223.98 237.314 223.869C236.76 223.814 235.263 224.146 232.713 224.809C230.329 225.417 227.114 226.136 226.504 225.97C225.95 225.804 225.895 225.417 225.784 225.141C225.728 224.864 225.617 224.422 225.063 224.312C224.897 224.256 224.786 224.367 224.73 224.422C224.509 224.643 224.509 225.196 224.564 225.914C224.62 226.633 224.675 227.518 224.342 227.904L224.675 228.181C225.063 227.628 225.008 226.688 225.008 225.914C225.008 225.528 224.952 224.92 225.063 224.809C225.285 224.864 225.285 224.92 225.396 225.306C225.507 225.693 225.617 226.191 226.338 226.412C227.003 226.633 229.276 226.136 232.768 225.306C234.709 224.809 236.704 224.367 237.203 224.422C237.757 224.477 238.035 224.975 238.312 225.362C238.534 225.693 238.866 226.136 239.254 226.191C239.975 226.301 241.527 225.804 241.97 225.251C242.303 224.754 242.58 220.055 242.636 218.618C243.578 215.744 244.798 212.648 245.352 212.427C246.183 212.151 248.789 211.487 250.951 210.99C252.836 210.603 258.046 206.457 258.268 206.291C258.49 206.07 264.532 200.045 265.641 196.342C265.974 195.07 266.306 193.688 266.528 192.417C266.86 190.538 267.304 188.603 268.08 186.613C267.969 187.719 267.914 188.879 267.803 190.095C267.747 191.035 267.692 191.975 267.581 192.693C266.971 198.166 266.14 201.206 264.754 203.196C263.146 205.407 257.27 212.206 256.55 212.703C256.217 212.98 255.718 213.09 255.219 213.311C254.831 213.422 254.332 213.533 253.778 213.809C251.893 214.638 249.842 217.844 248.345 220.221C247.569 221.382 246.849 222.432 246.572 222.708C246.017 223.04 245.685 222.93 245.241 222.764C244.964 222.653 244.52 222.487 244.077 222.487V222.874C244.465 222.874 244.798 222.985 245.075 223.095C245.629 223.317 246.073 223.482 246.849 223.04C247.237 222.764 247.902 221.824 248.733 220.442C250.23 218.176 252.226 215.025 254 214.196C254.499 213.975 254.942 213.864 255.33 213.809C255.94 213.643 256.383 213.533 256.882 213.146C257.603 212.538 263.59 205.794 265.197 203.528C266.694 201.482 267.47 198.332 268.08 192.749C268.135 192.03 268.191 191.09 268.302 190.151C268.468 187.663 268.634 184.899 269.189 183.573C269.743 182.08 271.572 179.759 273.457 178.156C273.457 178.156 273.513 178.1 273.568 178.1C273.845 177.879 274.677 177.105 275.397 176.995C276.063 176.884 277.282 177.327 279.001 177.99C280.608 178.598 282.659 179.317 285.043 179.98L285.154 179.593C282.715 178.93 280.719 178.266 279.167 177.658C277.06 176.719 275.841 176.221 275.065 176.332Z" fill="#323A50"/>
<path d="M213.089 222.764C213.422 222.819 213.976 223.151 214.586 223.593C215.639 224.312 216.859 225.141 217.912 224.588C218.466 224.312 218.91 223.648 219.464 222.764C220.462 221.216 221.682 219.337 224.065 218.618C227.724 217.402 234.265 214.251 234.321 214.251H234.376C234.431 214.196 239.587 210.437 244.576 211.708L244.687 211.322C239.587 209.995 234.542 213.588 234.154 213.92C234.099 213.92 233.933 214.03 233.655 214.141C233.544 213.588 233.156 212.427 232.159 211.653C231.383 211.045 230.385 210.824 229.221 210.935C227.225 211.156 225.285 212.151 223.622 212.98C222.125 213.754 220.905 214.306 220.019 214.251C219.242 214.196 219.132 213.698 218.965 213.146C218.799 212.427 218.577 211.543 217.025 211.377C215.417 211.211 214.752 212.317 214.142 213.201C213.644 213.92 213.366 214.362 212.868 214.306C211.371 214.196 209.375 212.151 209.375 212.151L209.098 212.427C209.153 212.482 211.204 214.583 212.868 214.804C213.699 214.859 214.087 214.141 214.586 213.477C215.14 212.593 215.695 211.708 217.081 211.819C218.3 211.93 218.522 212.593 218.688 213.256C218.854 213.92 219.021 214.528 220.185 214.693C221.183 214.749 222.458 214.085 224.01 213.367C225.673 212.538 227.502 211.598 229.442 211.377C230.496 211.266 231.383 211.432 232.103 211.985C233.046 212.759 233.323 213.92 233.434 214.362C231.493 215.246 226.948 217.291 224.121 218.231C221.626 219.06 220.296 221.105 219.298 222.598C218.744 223.372 218.356 224.09 217.857 224.312C217.136 224.698 216.027 223.98 215.029 223.317C214.364 222.93 213.865 222.487 213.366 222.432C212.701 222.377 211.759 222.985 210.706 223.648C209.708 224.311 208.599 225.085 207.823 225.196L207.878 225.583C208.765 225.472 209.874 224.698 210.927 223.98C211.648 223.261 212.646 222.653 213.089 222.764Z" fill="#323A50"/>
<path d="M276.95 178.93C275.785 179.482 274.788 180.975 274.012 182.08C273.734 182.467 273.457 182.909 273.291 183.075C273.125 183.241 272.958 183.241 272.737 183.296C272.182 183.407 271.794 183.573 271.295 184.734C270.575 186.447 270.242 190.427 271.129 191.809C271.462 192.362 271.905 192.417 272.182 192.417C273.125 192.306 273.956 191.201 274.289 190.206C274.51 189.487 275.231 189.432 276.007 189.377C276.672 189.322 277.282 189.266 277.67 188.769C277.892 188.492 278.169 188.271 278.335 188.382C278.557 188.437 278.89 188.879 279.001 189.708C279.111 190.98 278.668 193.025 278.668 193.025L279.056 193.136C279.056 193.08 279.61 191.09 279.389 189.653C279.278 188.658 278.89 187.995 278.446 187.884C278.114 187.774 277.615 187.995 277.338 188.492C277.116 188.769 276.561 188.824 276.063 188.879C275.287 188.935 274.289 188.99 273.956 189.985C273.623 190.98 272.847 191.864 272.182 191.92C271.96 191.92 271.683 191.809 271.517 191.588C270.796 190.482 271.018 186.668 271.739 184.955C272.127 183.96 272.515 183.904 272.847 183.849C273.069 183.794 273.402 183.739 273.623 183.518C273.79 183.352 274.012 182.909 274.4 182.467C275.065 181.472 276.063 179.869 277.171 179.427C277.947 179.095 278.779 179.482 279.888 180.035C280.941 180.533 282.327 181.141 284.211 181.362L284.267 180.975C282.493 180.754 281.218 180.146 280.165 179.703C278.834 178.93 277.892 178.487 276.95 178.93Z" fill="#323A50"/>
</g>
<g opacity="0.34">
<path d="M220.185 230.613C257.076 230.613 286.983 200.643 286.983 163.673C286.983 126.703 257.076 96.7334 220.185 96.7334C183.293 96.7334 153.386 126.703 153.386 163.673C153.386 200.643 183.293 230.613 220.185 230.613Z" fill="url(#paint1_radial_3632_75466)"/>
<path d="M287.26 163.674C287.26 181.583 280.331 198.442 267.636 211.156C254.942 223.869 238.09 230.834 220.24 230.834C202.39 230.834 185.538 223.869 172.844 211.156C160.15 198.442 153.22 181.583 153.22 163.674C153.22 145.764 160.15 128.905 172.844 116.191C185.538 103.478 202.39 96.5127 220.24 96.5127C238.09 96.5127 254.942 103.478 267.636 116.191C280.276 128.794 287.26 145.653 287.26 163.674ZM153.608 163.674C153.608 200.432 183.487 230.447 220.24 230.447C256.993 230.447 286.928 200.488 286.928 163.674C286.928 126.915 257.049 96.8996 220.296 96.8996C183.543 96.8996 153.608 126.804 153.608 163.674Z" fill="#323A50"/>
</g>
<path d="M146.069 163.01C146.069 176.332 154.551 186.668 169.352 187.829C170.072 187.884 169.961 187.774 169.407 187.774C163.919 187.774 161.092 176.94 161.092 163.563C161.092 150.186 163.919 139.352 169.407 139.352C169.74 139.352 169.795 139.352 169.462 139.296C156.491 139.075 146.069 149.578 146.069 163.01Z" fill="#293C4F"/>
<path d="M154.551 180.81C154.662 180.81 153.885 180.92 153.054 180.865C152.444 180.81 151.834 180.644 151.28 180.312C150.726 179.98 150.282 179.649 149.728 179.207C149.728 179.207 149.728 179.151 149.672 179.151C146.901 176.443 144.961 170.639 144.961 163.95C144.961 154.664 148.619 147.036 153.22 147.036C153.22 147.036 153.83 147.036 154.218 147.091C154.994 147.146 155.715 147.423 156.325 147.92L162.589 125.257C162.201 125.257 162.977 125.257 161.314 125.257C149.95 125.257 140.748 142.448 140.748 163.674C140.748 184.9 149.95 202.091 161.314 202.091C161.979 202.091 162.589 202.036 163.309 201.925L156.657 179.594C156.158 179.98 155.16 180.699 154.551 180.81Z" fill="#DBDBDB"/>
<path d="M163.864 202.201L163.476 202.257C162.755 202.367 162.145 202.422 161.424 202.422C155.77 202.422 150.448 198.387 146.513 190.98C142.632 183.684 140.47 173.955 140.47 163.618C140.47 153.282 142.577 143.608 146.513 136.257C150.448 128.85 155.77 124.814 161.424 124.814C161.979 124.814 162.256 124.814 162.422 124.814C162.478 124.814 162.533 124.814 162.589 124.814V124.87C162.589 124.87 162.644 124.925 162.699 124.925H163.254L156.713 148.583L156.214 148.252C155.548 147.865 154.994 147.533 154.329 147.478C153.941 147.422 153.331 147.422 153.331 147.422C149.007 147.422 145.515 154.83 145.515 163.95C145.515 170.307 147.344 176.166 150.116 178.875L150.171 178.93C150.559 179.317 151.114 179.704 151.502 179.925C152.001 180.146 152.61 180.312 153.165 180.478C153.719 180.533 154.163 180.478 154.384 180.478H154.495C154.828 180.367 155.548 179.98 156.491 179.317L156.99 179.041L163.864 202.201ZM141.191 163.674C141.191 184.623 150.282 201.704 161.424 201.704C161.923 201.704 162.367 201.649 162.921 201.593L156.546 180.257C155.881 180.644 155.271 181.086 154.717 181.196C154.218 181.362 153.054 181.252 153.054 181.252C152.389 181.196 151.723 180.975 151.114 180.644C150.559 180.367 150.06 179.925 149.506 179.483L149.451 179.428C146.513 176.498 144.628 170.528 144.628 163.895C144.628 159.307 145.515 154.995 147.122 151.789C148.785 148.417 150.947 146.538 153.331 146.538C153.387 146.538 153.941 146.538 154.384 146.593C155.05 146.649 155.604 146.814 156.214 147.201L162.145 125.588C161.979 125.588 161.757 125.588 161.369 125.588C150.282 125.644 141.191 142.669 141.191 163.674Z" fill="#323A50"/>
<path opacity="0.52" d="M147.178 163.949C147.178 155.271 150.338 148.14 154.495 147.09C154.218 147.035 153.83 146.979 153.497 146.979C148.896 146.979 145.182 154.552 145.182 163.949C145.182 173.291 148.896 180.919 153.497 180.919C153.664 180.919 153.885 180.974 154.107 180.919C154.163 180.919 154.883 180.919 155.881 180.588C156.435 180.422 156.657 179.758 156.546 179.703C155.271 180.753 154.329 180.698 154.107 180.698C150.227 179.316 147.178 172.351 147.178 163.949Z" fill="url(#paint2_linear_3632_75466)"/>
<path d="M148.12 163.949C148.12 155.326 151.834 148.914 156.546 147.864C155.271 146.98 154.107 147.035 153.775 147.035C149.174 147.035 145.182 154.608 145.182 163.894C145.182 173.236 148.619 180.809 153.83 180.864C154.163 180.864 156.491 180.588 156.491 179.648C151.28 179.758 148.12 172.573 148.12 163.949Z" fill="#DBDBDB"/>
<path d="M157.655 148.03L156.713 148.196C152.001 149.246 148.619 155.824 148.619 163.894C148.619 169.919 150.171 175.06 152.666 177.603C153.775 178.708 155.16 179.316 156.546 179.316H156.934V179.703C156.934 179.869 156.879 180.201 156.602 180.477C155.826 181.196 154.107 181.362 153.885 181.362C151.225 181.306 148.896 179.482 147.233 176.055C145.681 172.904 144.794 168.593 144.794 163.894C144.794 159.362 145.737 154.995 147.4 151.789C149.118 148.417 151.335 146.593 153.775 146.593H153.83C154.218 146.593 155.438 146.593 156.713 147.477L157.655 148.03ZM145.626 163.894C145.626 173.457 149.118 180.477 153.941 180.532C154.163 180.532 155.216 180.367 155.826 180.035C154.495 179.869 153.165 179.261 152.112 178.156C149.395 175.502 147.788 170.141 147.788 163.95C147.788 159.693 148.675 155.879 150.282 152.839C151.613 150.241 153.442 148.472 155.604 147.754C154.828 147.477 154.273 147.477 153.941 147.477H153.885C149.395 147.422 145.626 154.94 145.626 163.894Z" fill="#323A50"/>
<path d="M287.427 163.452C287.427 181.362 280.442 198.277 267.692 210.935C254.942 223.648 238.035 230.613 220.074 230.613C205.218 230.613 191.137 225.915 179.33 216.96L179.662 216.462C191.304 225.362 205.273 229.95 220.018 229.95C256.827 229.95 286.761 200.101 286.761 163.397C286.761 126.694 256.827 96.8444 220.018 96.8444C205.162 96.8444 191.082 101.598 179.385 110.608L179.053 110.111C190.916 100.99 205.107 96.2363 220.074 96.2363C238.035 96.2363 254.997 103.201 267.692 115.915C280.442 128.684 287.427 145.543 287.427 163.452Z" fill="#323A50"/>
<path d="M156.546 179.648L159.651 179.593L165.527 195.568C165.748 196.176 166.524 196.176 166.746 195.568L166.802 195.512L167.19 194.462C167.301 194.13 167.855 194.186 167.91 194.517L168.409 196.784V196.894C168.631 197.945 170.072 198.055 170.46 197.06L171.458 194.794C171.624 194.407 172.234 194.462 172.345 194.849C172.844 196.894 173.897 201.095 176.115 207.12C184.153 227.352 206.548 236.859 206.548 236.859C206.548 236.859 195.96 234.924 188.754 231.442C184.153 229.286 176.835 225.749 168.908 218.507C163.586 213.698 158.764 207.231 158.764 207.231C158.764 207.231 163.808 204.965 162.699 201.538C161.535 198.884 156.103 183.739 156.546 179.648Z" fill="white"/>
<path d="M210.151 237.964L206.603 237.301C206.493 237.301 195.905 235.311 188.698 231.884C184.208 229.784 176.78 226.191 168.742 218.894C163.42 214.14 158.597 207.618 158.542 207.562L158.265 207.176L158.653 207.01C158.708 207.01 162.533 205.186 162.533 202.588C162.533 202.366 162.478 202.035 162.422 201.758C161.147 199.05 156.047 185.065 156.047 180.201C156.047 179.98 156.047 179.703 156.103 179.537L156.158 179.206L159.928 179.15L165.859 195.402C165.915 195.567 166.026 195.567 166.081 195.567C166.136 195.567 166.247 195.567 166.303 195.402L166.802 194.241C166.912 193.964 167.19 193.688 167.578 193.743C167.91 193.799 168.243 194.02 168.298 194.407L168.853 196.839C168.908 197.17 169.185 197.392 169.462 197.392C169.74 197.392 170.017 197.336 170.183 197.005L171.181 194.738C171.347 194.407 171.68 194.186 172.068 194.186C172.4 194.241 172.788 194.462 172.844 194.849C173.232 196.784 174.396 201.04 176.613 207.065C180.716 217.346 188.698 224.809 194.685 229.286C201.171 234.095 206.77 236.527 206.825 236.583L210.151 237.964ZM159.54 207.507C160.648 209 164.861 214.306 169.296 218.397C177.279 225.583 184.651 229.176 189.086 231.276C193.798 233.487 200.007 235.145 203.665 235.975C201.393 234.814 198.011 232.824 194.297 230.06C188.255 225.527 180.161 217.954 175.893 207.452C173.675 201.316 172.511 197.115 172.123 195.125C172.123 195.125 172.123 195.07 172.068 195.07C172.012 195.07 172.012 195.07 172.012 195.125L171.015 197.392C170.793 198 170.128 198.331 169.462 198.276C168.797 198.221 168.298 197.723 168.187 197.115L167.633 194.738L167.245 195.844C167.079 196.231 166.635 196.562 166.247 196.507C165.859 196.507 165.416 196.231 165.249 195.789L159.484 180.035H156.99C156.99 180.09 156.99 180.145 156.99 180.256C156.99 185.01 161.979 198.939 163.254 201.537V201.593C163.365 201.924 163.42 202.311 163.42 202.643C163.42 205.13 160.648 206.899 159.54 207.507Z" fill="#323A50"/>
<path d="M295.575 163.508H294.744C294.744 122.493 261.206 88.9952 220.018 88.9952C196.459 88.9952 174.784 99.7741 160.482 118.457L159.817 117.96C166.691 108.895 175.727 101.432 185.871 96.2917C196.459 90.9298 207.989 88.166 219.963 88.166C230.163 88.166 240.03 90.156 249.343 94.0253C258.379 97.7841 266.362 103.256 273.346 110.111C280.275 117.02 285.708 125.091 289.478 134.101C293.58 143.498 295.575 153.282 295.575 163.508Z" fill="#323A50"/>
<path d="M156.546 147.865L159.651 147.92L165.139 131.503C165.36 130.895 166.136 130.895 166.358 131.503L166.414 131.558L166.802 132.608C166.912 132.94 167.467 132.885 167.522 132.553L168.021 130.287V130.176C168.243 129.126 169.684 129.015 170.072 130.01L171.07 132.277C171.236 132.664 171.846 132.608 171.957 132.221C172.456 130.176 173.509 125.975 175.726 119.95C183.82 99.7189 205.661 90.2666 205.661 90.2666C205.661 90.2666 195.517 92.146 188.255 95.6284C183.654 97.7842 176.336 101.322 168.409 108.563C163.087 113.372 158.985 120.282 158.985 120.282C158.985 120.282 163.365 122.216 162.311 125.643C161.092 128.131 156.103 143.664 156.546 147.865Z" fill="white"/>
<path d="M209.264 89.0498L205.938 90.487C205.883 90.487 200.395 92.9192 194.02 97.7282C188.199 102.206 180.272 109.613 176.17 119.949C173.953 125.974 172.844 130.231 172.4 132.165C172.345 132.497 172.068 132.829 171.624 132.829C171.292 132.884 170.904 132.663 170.737 132.276L169.74 130.01C169.629 129.678 169.241 129.623 169.019 129.623C168.797 129.623 168.465 129.788 168.409 130.175L167.855 132.608C167.799 132.939 167.522 133.216 167.134 133.271C166.802 133.326 166.469 133.105 166.358 132.773L165.859 131.613C165.804 131.447 165.693 131.447 165.637 131.447C165.582 131.447 165.471 131.447 165.416 131.613L159.872 148.306L156.103 148.251L156.047 147.919C156.047 147.753 155.992 147.532 155.992 147.201C155.992 142.281 160.593 127.964 161.868 125.311C161.979 125.035 161.979 124.648 161.979 124.371C161.979 121.884 158.819 120.502 158.819 120.447L158.431 120.281L158.653 119.949C158.708 119.894 162.921 112.984 168.132 108.175C176.225 100.879 183.654 97.3413 188.088 95.1855C195.295 91.7031 205.439 89.8237 205.55 89.7684L209.264 89.0498ZM167.301 132.386L167.855 130.01C167.966 129.346 168.52 128.904 169.13 128.849C169.795 128.794 170.349 129.125 170.682 129.733L171.68 132C171.68 132 171.68 132.055 171.735 132.055C171.791 132.055 171.791 132.055 171.791 132C172.179 130.01 173.343 125.753 175.56 119.673C179.718 109.17 187.7 101.598 193.687 97.1202C197.29 94.4116 200.561 92.4217 202.889 91.2609C199.342 92.09 193.41 93.693 188.754 95.9041C184.319 98.0046 176.891 101.542 168.964 108.783C164.418 112.819 160.759 118.512 159.817 120.005C160.759 120.557 163.143 122.05 163.143 124.482C163.143 124.814 163.088 125.256 162.977 125.643V125.698C161.757 128.296 157.156 142.392 157.156 147.256C157.156 147.366 157.156 147.422 157.156 147.477H159.651L165.028 131.392C165.194 131.005 165.582 130.673 166.026 130.673C166.414 130.673 166.857 130.894 167.023 131.336L167.301 132.386Z" fill="#323A50"/>
<path d="M169.85 139.131C164.363 139.131 161.48 150.02 161.48 163.397C161.48 176.774 164.307 187.664 169.85 187.664C175.338 187.664 181.381 176.774 181.381 163.397C181.381 150.02 175.283 139.131 169.85 139.131Z" fill="#DBDBDB"/>
<path d="M181.824 163.397C181.824 169.754 180.494 175.89 178.055 180.754C175.671 185.397 172.678 188.106 169.795 188.106C167.023 188.106 164.751 185.508 163.198 180.699C161.868 176.332 161.092 170.362 161.092 163.397C161.092 156.432 161.868 150.462 163.198 146.096C164.751 141.286 167.023 138.688 169.795 138.688C172.678 138.688 175.671 141.342 178.055 146.04C180.494 150.905 181.824 157.04 181.824 163.397ZM161.868 163.397C161.868 170.141 162.644 176.221 163.919 180.422C164.917 183.518 166.746 187.221 169.74 187.221C172.29 187.221 175.117 184.623 177.223 180.367C179.607 175.668 180.937 169.588 180.937 163.397C180.937 157.206 179.662 151.181 177.223 146.427C175.061 142.06 172.29 139.573 169.74 139.573C166.691 139.573 164.861 143.276 163.919 146.372C162.589 150.628 161.868 156.653 161.868 163.397Z" fill="#323A50"/>
<path d="M169.961 139.794C164.751 139.794 162.09 150.352 162.09 163.452C162.09 176.497 164.806 187.055 169.961 187.055C175.117 187.055 180.937 176.497 180.937 163.397C180.937 150.296 175.117 139.794 169.961 139.794Z" fill="#DBDBDB"/>
<path d="M180.937 163.397C180.937 169.588 179.718 175.503 177.39 180.146C175.228 184.623 172.511 187.111 169.85 187.111C167.301 187.111 165.249 184.679 163.919 180.146C162.644 175.89 161.923 170.086 161.923 163.397C161.923 156.709 162.644 150.905 163.919 146.648C165.36 142.06 167.411 139.684 169.85 139.684C172.456 139.684 175.228 142.226 177.334 146.648C179.718 151.292 180.937 157.317 180.937 163.397ZM162.145 163.397C162.145 177.658 165.194 186.945 169.906 186.945C174.895 186.945 180.771 176.663 180.771 163.397C180.771 150.131 174.95 139.849 169.906 139.849C165.249 139.905 162.145 149.136 162.145 163.397Z" fill="#323A50"/>
<path d="M170.072 141.011C165.582 141.011 163.309 151.071 163.309 163.453C163.309 175.835 165.693 185.895 170.072 185.895C174.451 185.895 179.496 175.835 179.496 163.453C179.496 151.071 174.562 141.011 170.072 141.011Z" fill="#DBDBDB"/>
<path d="M179.607 163.453C179.607 169.257 178.554 174.895 176.558 179.317C174.673 183.573 172.29 185.95 170.072 185.95C167.91 185.95 166.136 183.684 164.861 179.317C163.753 175.337 163.143 169.809 163.143 163.453C163.143 157.04 163.753 151.568 164.861 147.588C166.081 143.221 167.855 140.955 170.072 140.955C172.29 140.955 174.729 143.387 176.558 147.588C178.554 151.955 179.607 157.593 179.607 163.453ZM163.365 163.453C163.365 177.051 166.025 185.784 170.072 185.784C174.396 185.784 179.441 176.056 179.441 163.453C179.441 150.85 174.451 141.121 170.072 141.121C165.97 141.066 163.365 149.91 163.365 163.453Z" fill="#323A50"/>
<path d="M170.128 142.393C166.303 142.393 164.307 151.9 164.307 163.674C164.307 175.448 166.303 184.955 170.128 184.955C173.953 184.955 178.276 175.448 178.276 163.674C178.276 151.9 173.953 142.393 170.128 142.393Z" fill="#DBDBDB"/>
<path d="M178.387 163.563C178.387 169.091 177.445 174.453 175.726 178.598C174.119 182.578 172.068 184.9 170.128 184.9C168.243 184.9 166.691 182.744 165.637 178.598C164.695 174.784 164.141 169.588 164.141 163.563C164.141 157.538 164.695 152.342 165.637 148.528C166.691 144.438 168.243 142.227 170.128 142.227C172.068 142.227 174.119 144.493 175.726 148.528C177.445 152.729 178.387 158.091 178.387 163.563ZM164.362 163.563C164.362 176.387 166.58 184.734 170.128 184.734C173.842 184.734 178.166 175.503 178.166 163.563C178.166 151.624 173.842 142.392 170.128 142.392C166.635 142.448 164.362 150.739 164.362 163.563Z" fill="#323A50"/>
<path d="M170.072 143.773C167.023 143.773 165.416 152.673 165.416 163.562C165.416 174.507 167.023 183.351 170.072 183.351C173.121 183.351 176.891 174.452 176.891 163.562C176.891 152.673 173.121 143.773 170.072 143.773Z" fill="#DBDBDB"/>
<path d="M177.002 163.673C177.002 174.728 173.177 183.573 170.072 183.573C166.524 183.573 165.305 172.794 165.305 163.673C165.305 154.497 166.524 143.774 170.072 143.774C173.177 143.718 177.002 152.618 177.002 163.673ZM165.527 163.673C165.527 175.668 167.301 183.407 170.072 183.407C173.066 183.407 176.835 174.286 176.835 163.673C176.835 153.06 173.121 143.94 170.072 143.94C167.301 143.884 165.527 151.678 165.527 163.673Z" fill="#323A50"/>
<path d="M170.128 145.487C167.689 145.487 166.469 153.668 166.469 163.728C166.469 173.789 167.689 181.97 170.128 181.97C172.567 181.97 175.505 173.789 175.505 163.728C175.505 153.668 172.456 145.487 170.128 145.487Z" fill="#DBDBDB"/>
<path d="M175.56 163.728C175.56 173.844 172.622 182.025 170.128 182.025C167.356 182.025 166.414 172.573 166.414 163.728C166.414 154.829 167.411 145.432 170.128 145.432C172.511 145.377 175.56 153.558 175.56 163.728ZM166.58 163.728C166.58 174.563 168.021 181.804 170.128 181.804C172.511 181.804 175.394 173.457 175.394 163.728C175.394 154 172.511 145.653 170.128 145.653C168.021 145.598 166.58 152.839 166.58 163.728Z" fill="#323A50"/>
<path d="M170.294 147.422C168.52 147.422 167.633 154.774 167.633 163.784C167.633 172.794 168.52 180.145 170.294 180.145C172.068 180.145 174.174 172.794 174.174 163.784C174.174 154.774 172.068 147.422 170.294 147.422Z" fill="#DBDBDB"/>
<path d="M174.285 163.839C174.285 172.959 172.123 180.311 170.294 180.311C168.298 180.311 167.578 171.799 167.578 163.839C167.578 155.879 168.298 147.367 170.294 147.367C172.123 147.311 174.285 154.663 174.285 163.839ZM167.744 163.839C167.744 173.568 168.742 180.09 170.294 180.09C171.846 180.09 174.064 173.291 174.064 163.839C174.064 154.442 171.846 147.588 170.294 147.588C168.797 147.532 167.744 154.055 167.744 163.839Z" fill="#323A50"/>
<path d="M321.186 178.875C321.186 178.488 321.241 177.99 321.241 177.603C318.47 177.493 315.753 177.493 313.203 177.493C308.159 177.493 303.336 177.493 301.784 176.387C301.507 176.166 301.063 176.277 300.842 176.553C300.62 176.829 300.731 177.272 301.008 177.493C302.893 178.819 307.438 178.819 313.203 178.819C315.753 178.764 318.525 178.764 321.186 178.875Z" fill="#323A50"/>
<path d="M322.295 203.638C322.295 203.141 322.295 202.699 322.295 202.201C317.971 200.543 313.37 198.276 309.434 196.231C303.946 193.412 299.567 191.201 297.405 191.477C297.072 191.533 296.795 191.809 296.795 192.251C296.795 192.638 297.128 192.859 297.571 192.859C299.345 192.638 303.946 194.96 308.824 197.503C312.926 199.548 317.749 201.98 322.295 203.638Z" fill="#323A50"/>
<path opacity="0.19" d="M322.184 202.809C322.184 202.587 322.184 202.256 322.184 202.035C322.128 198.608 322.073 195.236 321.851 191.809C321.463 187.276 321.02 182.743 321.241 178.211C312.483 177.879 303.502 178.819 301.34 176.773C300.287 182.633 299.289 187.11 297.46 191.974C300.564 191.201 312.15 198.884 322.184 202.809Z" fill="url(#paint3_linear_3632_75466)"/>
<path opacity="0.16" d="M321.851 191.809C321.518 187.774 321.13 183.628 321.186 179.593C320.964 179.593 320.632 179.538 320.41 179.538C315.31 179.151 306.274 180.035 301.451 178.543C299.955 185.121 299.677 186.226 298.125 190.593C304.944 192.417 312.483 197.392 319.578 200.156C320.521 200.488 321.408 200.875 322.184 201.151C322.128 198 322.073 194.905 321.851 191.809Z" fill="url(#paint4_linear_3632_75466)"/>
<path d="M321.907 193.136C321.907 192.859 321.851 192.528 321.851 192.251C321.186 191.975 320.576 191.698 319.911 191.367C318.47 190.648 317.195 190.151 316.031 189.598C317.25 189.653 318.636 189.985 320.188 190.759C320.687 190.98 321.131 191.256 321.685 191.477C321.74 191.533 321.796 191.533 321.851 191.588C321.851 191.256 321.796 190.869 321.74 190.538C320.742 189.819 319.745 189.045 318.858 188.327C316.197 185.95 313.924 186.558 311.928 187.111C311.152 187.276 310.376 187.497 309.656 187.497C309.157 187.387 308.713 187.276 308.214 187.166C307.66 187.055 307.272 186.945 306.884 186.779C306.163 186.392 305.831 185.839 305.332 185.231C304.445 184.126 303.558 182.965 300.454 182.688C300.398 182.965 300.343 183.241 300.287 183.518C303.17 183.683 303.946 184.623 304.777 185.673L304.833 185.729C304.5 185.563 304.057 185.342 303.78 185.121C302.56 184.402 301.618 183.849 300.232 183.905C300.176 184.181 300.121 184.513 300.01 184.734C301.23 184.623 302.117 185.121 303.392 185.839C304.223 186.392 305.276 186.889 306.551 187.442C307.05 187.719 307.549 187.995 308.325 188.161C308.713 188.271 309.157 188.271 309.545 188.271C310.265 188.437 310.875 188.603 311.596 188.879C310.931 188.879 310.321 188.824 309.6 188.658C307.66 188.106 305.942 187.387 304.5 186.668C302.782 185.839 301.34 185.121 299.955 185.065C299.899 185.342 299.788 185.673 299.733 185.895C301.008 185.895 302.505 186.613 304.168 187.442C305.72 188.161 307.494 188.99 309.489 189.487C310.764 189.819 312.039 189.764 313.314 189.653C313.481 189.653 313.647 189.653 313.869 189.653C315.643 190.317 317.583 191.146 319.689 192.141C320.41 192.472 321.131 192.859 321.907 193.136ZM313.869 188.824C313.037 188.548 312.261 188.216 311.43 187.995C311.651 187.94 311.928 187.884 312.15 187.829C314.146 187.332 316.031 186.834 318.414 188.935C318.581 189.101 318.802 189.266 319.024 189.487C316.973 188.824 315.31 188.714 313.869 188.824Z" fill="#323A50"/>
<path d="M240.917 129.955C240.862 130.066 240.862 130.176 240.917 130.287L243.079 134.046L227.059 143.222C227.003 143.277 226.948 143.332 226.892 143.388C226.837 143.443 226.892 143.553 226.948 143.609L229.941 148.805C230.052 148.97 230.218 149.026 230.44 148.915L246.461 139.739L248.678 143.609C248.733 143.719 248.844 143.774 248.955 143.774C249.066 143.774 249.177 143.719 249.232 143.609L255.108 131.558C255.108 131.503 255.164 131.448 255.164 131.448V131.393V131.337C255.108 131.227 254.997 131.116 254.887 131.116L241.25 129.9C241.139 129.79 241.028 129.845 240.917 129.955Z" fill="white"/>
<path d="M255.496 131.447C255.496 131.558 255.496 131.613 255.441 131.724L249.565 143.774C249.454 143.995 249.288 144.106 249.011 144.106C248.733 144.106 248.512 143.995 248.401 143.829L246.35 140.236L230.606 149.302C230.329 149.467 229.886 149.357 229.719 149.081L226.726 143.885C226.671 143.774 226.615 143.608 226.671 143.387C226.726 143.221 226.781 143.111 226.948 143.055L242.747 133.99L240.751 130.452C240.64 130.287 240.64 129.955 240.751 129.789C240.862 129.623 241.083 129.513 241.361 129.513L254.997 130.729C255.219 130.729 255.496 130.895 255.607 131.226V131.282C255.441 131.392 255.496 131.447 255.496 131.447ZM227.225 143.553L230.218 148.804C230.218 148.804 230.218 148.804 230.274 148.804L246.571 139.462L249.011 143.553L254.887 131.503V131.447L241.25 130.231L243.633 134.211L227.225 143.553Z" fill="#293C4F"/>
<path d="M229.276 108.066L216.859 113.759C216.748 113.814 216.692 113.925 216.692 114.035C216.692 114.146 216.748 114.257 216.859 114.312L220.628 116.468L211.204 132.719C211.149 132.774 211.149 132.885 211.149 132.94C211.149 132.995 211.204 133.106 211.315 133.106L216.526 136.091C216.692 136.201 216.859 136.146 217.025 135.98L226.449 119.784L230.329 121.995C230.44 122.051 230.551 122.051 230.662 121.995C230.773 121.94 230.828 121.829 230.828 121.719L229.886 108.397C229.886 108.342 229.83 108.231 229.775 108.176L229.72 108.121C229.498 108.01 229.387 108.01 229.276 108.066Z" fill="white"/>
<path d="M230.994 121.774C230.994 121.995 230.884 122.161 230.717 122.326C230.551 122.437 230.329 122.437 230.052 122.326L226.449 120.281L217.191 136.201C217.025 136.477 216.582 136.588 216.304 136.422L211.094 133.437C210.983 133.382 210.872 133.216 210.816 133.105C210.761 132.94 210.816 132.774 210.872 132.608L220.129 116.688L216.582 114.698C216.415 114.588 216.304 114.422 216.304 114.146C216.304 113.924 216.471 113.759 216.637 113.593L229.054 107.899C229.276 107.789 229.609 107.844 229.775 108.01L229.83 108.065C229.941 108.176 229.997 108.286 229.997 108.452L230.994 121.774ZM211.426 132.884L216.692 135.869H216.748L226.283 119.397L230.385 121.829C230.385 121.829 230.385 121.829 230.44 121.829L229.498 108.507L229.442 108.452C229.442 108.452 229.442 108.452 229.387 108.452L216.97 114.09L220.961 116.467L211.426 132.884Z" fill="#293C4F"/>
<path d="M229.941 178.598L226.948 183.794C226.892 183.85 226.892 183.96 226.892 184.015C226.892 184.071 226.948 184.181 227.059 184.181L243.079 193.357L240.917 197.116C240.862 197.226 240.862 197.337 240.917 197.447C240.973 197.558 241.084 197.613 241.194 197.613L254.831 196.397C254.942 196.397 255.053 196.287 255.108 196.176V196.121V196.066C255.108 196.01 255.108 195.955 255.053 195.955L249.177 183.905C249.121 183.794 249.011 183.739 248.9 183.739C248.789 183.739 248.678 183.794 248.623 183.905L246.405 187.774L230.274 178.598C230.218 178.322 230.052 178.377 229.941 178.598Z" fill="white"/>
<path d="M283.823 193.743L276.672 169.809L328.06 176V207.231L283.823 193.743Z" fill="url(#paint5_linear_3632_75466)"/>
<path d="M149.562 201.98C150.113 201.98 150.559 201.535 150.559 200.985C150.559 200.436 150.113 199.99 149.562 199.99C149.01 199.99 148.564 200.436 148.564 200.985C148.564 201.535 149.01 201.98 149.562 201.98Z" fill="#00FF30"/>
<path d="M114.527 125.588L119.516 128.075L125.115 131.281H6.20865V125.643L114.527 125.588Z" fill="#00FF30"/>
<path d="M114.527 125.644L125.392 131.116L140.637 181.141L139.417 181.528L114.527 125.644Z" fill="#00FF30"/>
<path d="M149.95 198.995C150.501 198.995 150.947 198.549 150.947 198C150.947 197.45 150.501 197.005 149.95 197.005C149.399 197.005 148.952 197.45 148.952 198C148.952 198.549 149.399 198.995 149.95 198.995Z" fill="#00FF30"/>
<path d="M146.79 198.774C147.341 198.774 147.788 198.329 147.788 197.779C147.788 197.23 147.341 196.784 146.79 196.784C146.239 196.784 145.792 197.23 145.792 197.779C145.792 198.329 146.239 198.774 146.79 198.774Z" fill="#00FF30"/>
<path d="M147.621 195.789C148.172 195.789 148.619 195.343 148.619 194.794C148.619 194.244 148.172 193.799 147.621 193.799C147.07 193.799 146.624 194.244 146.624 194.794C146.624 195.343 147.07 195.789 147.621 195.789Z" fill="#00FF30"/>
<path d="M144.572 195.126C145.093 195.126 145.515 194.705 145.515 194.186C145.515 193.667 145.093 193.246 144.572 193.246C144.052 193.246 143.63 193.667 143.63 194.186C143.63 194.705 144.052 195.126 144.572 195.126Z" fill="#00FF30"/>
<path d="M145.349 192.417C145.869 192.417 146.291 191.997 146.291 191.478C146.291 190.959 145.869 190.538 145.349 190.538C144.828 190.538 144.406 190.959 144.406 191.478C144.406 191.997 144.828 192.417 145.349 192.417Z" fill="#00FF30"/>
<path d="M142.854 191.754C143.313 191.754 143.686 191.383 143.686 190.925C143.686 190.467 143.313 190.096 142.854 190.096C142.395 190.096 142.023 190.467 142.023 190.925C142.023 191.383 142.395 191.754 142.854 191.754Z" fill="#00FF30"/>
<path d="M143.741 189.432C144.2 189.432 144.572 189.061 144.572 188.603C144.572 188.145 144.2 187.773 143.741 187.773C143.282 187.773 142.909 188.145 142.909 188.603C142.909 189.061 143.282 189.432 143.741 189.432Z" fill="#00FF30"/>
<path d="M141.524 188.382C141.952 188.382 142.3 188.035 142.3 187.608C142.3 187.18 141.952 186.834 141.524 186.834C141.095 186.834 140.748 187.18 140.748 187.608C140.748 188.035 141.095 188.382 141.524 188.382Z" fill="#00FF30"/>
<path d="M142.577 186.447C143.005 186.447 143.353 186.101 143.353 185.673C143.353 185.246 143.005 184.899 142.577 184.899C142.148 184.899 141.801 185.246 141.801 185.673C141.801 186.101 142.148 186.447 142.577 186.447Z" fill="#00FF30"/>
<path d="M140.637 185.397C141.035 185.397 141.357 185.075 141.357 184.679C141.357 184.282 141.035 183.96 140.637 183.96C140.239 183.96 139.916 184.282 139.916 184.679C139.916 185.075 140.239 185.397 140.637 185.397Z" fill="#00FF30"/>
<path d="M141.912 183.683C142.279 183.683 142.577 183.386 142.577 183.02C142.577 182.653 142.279 182.356 141.912 182.356C141.544 182.356 141.246 182.653 141.246 183.02C141.246 183.386 141.544 183.683 141.912 183.683Z" fill="#00FF30"/>
<path d="M152.777 201.427C153.358 201.427 153.83 200.956 153.83 200.376C153.83 199.796 153.358 199.326 152.777 199.326C152.195 199.326 151.724 199.796 151.724 200.376C151.724 200.956 152.195 201.427 152.777 201.427Z" fill="#00FF30"/>
<path d="M152.5 204.965C153.142 204.965 153.664 204.445 153.664 203.804C153.664 203.163 153.142 202.644 152.5 202.644C151.857 202.644 151.335 203.163 151.335 203.804C151.335 204.445 151.857 204.965 152.5 204.965Z" fill="#00FF30"/>
<path d="M155.992 203.472C156.665 203.472 157.212 202.928 157.212 202.256C157.212 201.585 156.665 201.04 155.992 201.04C155.318 201.04 154.772 201.585 154.772 202.256C154.772 202.928 155.318 203.472 155.992 203.472Z" fill="#00FF30"/>
<path d="M155.659 207.287C156.364 207.287 156.934 206.718 156.934 206.015C156.934 205.313 156.364 204.744 155.659 204.744C154.955 204.744 154.384 205.313 154.384 206.015C154.384 206.718 154.955 207.287 155.659 207.287Z" fill="#00FF30"/>
<path d="M159.761 202.532C160.704 202.532 161.702 203.472 161.535 204.08C161.424 204.467 159.373 206.125 159.152 206.07C158.376 205.849 157.932 205.13 157.932 204.356C157.932 203.361 158.764 202.532 159.761 202.532Z" fill="#00FF30"/>
<path d="M140.082 182.633C140.419 182.633 140.692 182.361 140.692 182.025C140.692 181.689 140.419 181.417 140.082 181.417C139.746 181.417 139.473 181.689 139.473 182.025C139.473 182.361 139.746 182.633 140.082 182.633Z" fill="#00FF30"/>
<path d="M141.191 180.975C141.497 180.975 141.745 180.727 141.745 180.422C141.745 180.117 141.497 179.869 141.191 179.869C140.885 179.869 140.637 180.117 140.637 180.422C140.637 180.727 140.885 180.975 141.191 180.975Z" fill="#00FF30"/>
<path d="M100.946 124.482H5.87604V131.834H100.946V124.482Z" fill="url(#paint6_linear_3632_75466)"/>
<path d="M248.678 185.176C248.567 185.176 248.456 185.231 248.401 185.342L246.017 188.99L230.44 178.985C230.385 178.985 230.274 178.93 230.218 178.93C230.163 178.93 230.052 178.985 230.052 179.096L226.837 184.126C226.726 184.292 226.781 184.457 226.948 184.623L242.525 194.628L240.086 198.387C240.03 198.498 240.03 198.608 240.086 198.719C240.141 198.829 240.252 198.884 240.363 198.884L253.778 198.608C253.833 198.608 253.889 198.608 253.889 198.608H253.944H254C254.055 198.498 254.111 198.332 254.055 198.276L248.844 185.618C248.9 185.286 248.789 185.176 248.678 185.176Z" fill="white"/>
<path d="M254.111 198.719C254 198.774 253.944 198.774 253.833 198.774L240.418 199.05C240.197 199.05 239.919 198.94 239.864 198.774C239.753 198.553 239.753 198.276 239.864 198.111L242.081 194.628L226.726 184.844C226.449 184.679 226.393 184.236 226.56 183.96L229.775 178.93C229.83 178.819 229.997 178.709 230.163 178.653C230.329 178.653 230.44 178.598 230.662 178.764L245.962 188.603L248.179 185.176C248.29 185.01 248.512 184.9 248.789 184.9C249.011 184.9 249.177 185.065 249.343 185.287L254.554 197.945C254.665 198.166 254.609 198.442 254.388 198.719H254.332C254.111 198.663 254.111 198.719 254.111 198.719ZM230.274 179.261L226.948 184.292C226.948 184.292 226.948 184.292 226.948 184.347L242.802 194.518L240.252 198.553L253.667 198.276H253.722L248.512 185.618L246.017 189.543L230.274 179.261Z" fill="#293C4F"/>
<path d="M262.481 165.608L251.671 157.206C251.561 157.15 251.45 157.15 251.339 157.206C251.228 157.261 251.173 157.371 251.173 157.482L251.006 161.849L232.214 160.964C232.159 160.964 232.048 160.964 231.992 161.02C231.937 161.02 231.881 161.13 231.937 161.241L231.66 167.211C231.66 167.432 231.771 167.542 231.937 167.542L250.729 168.427L250.563 172.904C250.563 173.015 250.618 173.125 250.729 173.18C250.84 173.236 250.951 173.236 251.062 173.18L262.481 166.216C262.537 166.216 262.592 166.105 262.647 165.994V165.939C262.592 165.773 262.592 165.663 262.481 165.608Z" fill="white"/>
<path d="M251.006 173.402C250.784 173.512 250.618 173.457 250.396 173.402C250.23 173.346 250.119 173.125 250.119 172.794L250.286 168.703L231.826 167.819C231.493 167.819 231.161 167.487 231.216 167.156L231.493 161.186C231.493 161.075 231.604 160.909 231.66 160.799C231.771 160.688 231.937 160.633 232.159 160.633L250.618 161.517L250.784 157.482C250.784 157.261 250.895 157.095 251.117 156.929C251.339 156.819 251.616 156.874 251.782 156.985L262.592 165.387C262.814 165.553 262.869 165.884 262.814 166.105V166.161C262.758 166.326 262.703 166.437 262.537 166.492L251.006 173.402ZM232.159 161.186L231.937 167.156V167.211L250.951 168.095L250.729 172.849C250.729 172.849 250.729 172.849 250.729 172.904L262.148 165.939V165.884C262.148 165.884 262.148 165.884 262.148 165.829L251.45 157.427L251.228 162.07L232.159 161.186Z" fill="#293C4F"/>
<path d="M229.72 218.121C229.83 218.011 229.886 217.9 229.886 217.845L230.828 204.523C230.828 204.413 230.773 204.302 230.662 204.247C230.551 204.191 230.44 204.191 230.329 204.247L226.449 206.458L217.025 190.262C216.914 190.096 216.748 190.041 216.526 190.151L211.315 193.136C211.204 193.136 211.149 193.247 211.149 193.302C211.149 193.357 211.149 193.468 211.204 193.523L220.628 209.719L216.859 211.875C216.748 211.93 216.692 212.041 216.692 212.151C216.692 212.262 216.748 212.372 216.859 212.428L229.276 218.121C229.387 218.232 229.498 218.232 229.72 218.121Z" fill="white"/>
<path d="M230.052 217.789C230.052 217.955 229.997 218.065 229.886 218.176L229.83 218.231C229.664 218.397 229.331 218.452 229.11 218.342L216.692 212.648C216.526 212.538 216.36 212.372 216.36 212.095C216.36 211.874 216.471 211.709 216.637 211.543L220.185 209.553L210.927 193.633C210.872 193.523 210.816 193.357 210.872 193.136C210.927 193.025 211.038 192.859 211.149 192.804L216.36 189.819C216.637 189.653 217.08 189.764 217.247 190.04L226.504 205.96L230.108 203.915C230.329 203.804 230.606 203.804 230.773 203.915C230.939 204.025 231.05 204.191 231.05 204.467L230.052 217.789ZM211.426 193.357L220.961 209.829L216.97 212.206L229.387 217.844C229.442 217.844 229.442 217.844 229.442 217.844L229.498 217.789L230.44 204.467C230.385 204.467 230.385 204.467 230.385 204.467L226.283 206.9L216.748 190.372H216.692L211.426 193.357Z" fill="#293C4F"/>
<defs>
<linearGradient id="paint0_linear_3632_75466" x1="202.988" y1="151.219" x2="69.7802" y2="185.562" gradientUnits="userSpaceOnUse">
<stop offset="0.2655" stop-color="#032A3D" stop-opacity="0"/>
<stop offset="0.7809" stop-color="#032A3D"/>
</linearGradient>
<radialGradient id="paint1_radial_3632_75466" cx="0" cy="0" r="1" gradientUnits="userSpaceOnUse" gradientTransform="translate(240.25 162.254) rotate(-90) scale(70.6188 70.4575)">
<stop offset="0.4054" stop-color="#032A3D" stop-opacity="0"/>
<stop offset="1" stop-color="#032A3D"/>
</radialGradient>
<linearGradient id="paint2_linear_3632_75466" x1="176.926" y1="141.722" x2="128.961" y2="187.798" gradientUnits="userSpaceOnUse">
<stop offset="0.3301" stop-color="#C4FFFF"/>
<stop offset="0.8279" stop-color="#47B4FF"/>
<stop offset="1" stop-color="#0C37A6"/>
</linearGradient>
<linearGradient id="paint3_linear_3632_75466" x1="280.113" y1="139.138" x2="330.244" y2="218.141" gradientUnits="userSpaceOnUse">
<stop offset="0.4054" stop-color="#032A3D" stop-opacity="0"/>
<stop offset="1" stop-color="#032A3D"/>
</linearGradient>
<linearGradient id="paint4_linear_3632_75466" x1="308.547" y1="202.937" x2="314.428" y2="177.867" gradientUnits="userSpaceOnUse">
<stop offset="0.2069" stop-color="#032A3D"/>
<stop offset="0.5151" stop-color="#032A3D" stop-opacity="0.2"/>
<stop offset="0.9216" stop-color="#032A3D"/>
</linearGradient>
<linearGradient id="paint5_linear_3632_75466" x1="288.332" y1="182.056" x2="329.832" y2="191.95" gradientUnits="userSpaceOnUse">
<stop offset="0.3715" stop-color="white" stop-opacity="0"/>
<stop offset="0.7103" stop-color="#FFFCFF"/>
</linearGradient>
<linearGradient id="paint6_linear_3632_75466" x1="77.5276" y1="132.302" x2="9.55182" y2="120.468" gradientUnits="userSpaceOnUse">
<stop offset="0.3715" stop-color="white" stop-opacity="0"/>
<stop offset="0.7103" stop-color="#FFFCFF"/>
</linearGradient>
</defs>
</svg>
