<svg width="330" height="330" viewBox="0 0 330 330" fill="none" xmlns="http://www.w3.org/2000/svg">
<g clip-path="url(#clip0_3748_13372)">
<path d="M56.1426 107.333V220.653H71.1574V217.17H101.514V110.163H71.1574V107.333H56.1426Z" fill="white"/>
<path d="M101.785 110.272V217.279C101.785 217.496 101.622 217.986 101.405 217.986H71.8101V220.381C71.8101 220.599 71.4837 220.871 71.1573 220.871H55.8705C55.6529 220.871 55.3809 220.653 55.3809 220.381V107.17C55.3809 106.952 55.5985 106.952 55.8705 106.952H71.1573C71.3749 106.952 71.8101 106.952 71.8101 107.17V110H101.405C101.513 110 101.785 110.054 101.785 110.272ZM100.915 217.006V110.98H71.0485C70.8309 110.98 70.7221 110.599 70.7221 110.272V107.551H56.3057V220.054H70.7221V217.333C70.7221 217.115 70.8309 217.061 71.0485 217.061L100.915 217.006Z" fill="#323A50"/>
<path d="M101.133 113.756H55.7617V213.36H101.133V113.756Z" fill="white"/>
<path d="M101.568 113.756V213.36C101.568 213.577 101.405 213.741 101.187 213.741H55.7617C55.5441 213.741 55.3809 213.577 55.3809 213.36V113.756C55.3809 113.538 55.5441 113.375 55.7617 113.375H101.133C101.35 113.32 101.568 113.483 101.568 113.756ZM100.697 212.924V114.191H56.1969V212.924H100.697Z" fill="#323A50"/>
<path d="M138.724 124.424L138.996 202.746L83.9961 209.223L84.0505 117.892L138.724 124.424Z" fill="white"/>
<path d="M139.486 202.746C139.486 202.964 139.323 203.127 139.16 203.127L84.1051 209.659C83.9963 209.659 83.8875 209.659 83.7787 209.55C83.6699 209.495 83.6699 209.386 83.6699 209.278L83.7243 117.838C83.7243 117.729 83.7787 117.62 83.8331 117.566C83.9419 117.511 84.0507 117.457 84.1595 117.457L138.833 124.043C139.051 124.043 139.16 124.26 139.16 124.424L139.486 202.746ZM84.4315 208.733L138.561 202.256L138.289 124.696L84.5403 118.219L84.4315 208.733Z" fill="#323A50"/>
<path d="M130.726 135.2V191.534L106.518 203.889V122.791L130.726 135.2Z" fill="white"/>
<path d="M131.216 135.2V191.425C131.216 191.588 131.107 191.697 130.999 191.806L106.735 204.161C106.627 204.216 106.463 204.216 106.355 204.161C106.246 204.107 106.191 203.944 106.191 203.835V122.791C106.191 122.627 106.246 122.519 106.355 122.464C106.463 122.41 106.627 122.41 106.735 122.464L130.944 134.874C131.053 134.874 131.216 135.037 131.216 135.2ZM130.291 191.207V135.473L106.953 123.553V203.073L130.291 191.207Z" fill="#323A50"/>
<path d="M137.419 200.46C137.419 200.678 137.255 200.841 137.092 200.841L84.1595 207.155C83.9419 207.155 83.6699 207.046 83.6699 206.828C83.6699 206.611 83.7787 206.338 83.9963 206.338L136.929 200.025C137.092 200.025 137.364 200.188 137.419 200.46Z" fill="#323A50"/>
<path d="M137.31 126.437C137.31 126.71 137.092 126.927 136.82 126.818L84.1592 120.559C83.9416 120.559 83.7784 120.341 83.8328 120.069C83.8328 119.852 84.0504 119.688 84.3224 119.743L136.983 126.002C137.092 126.056 137.31 126.22 137.31 126.437Z" fill="#323A50"/>
<path d="M91.6115 121.049C97.6501 166.334 91.6115 205.849 91.6115 205.849L88.7282 206.175C84.7025 162.687 88.837 120.777 88.837 120.777L91.6115 121.049Z" fill="white"/>
<path d="M94.8226 163.231C94.8226 188.05 92.157 205.74 92.157 205.957C92.157 206.121 91.9938 206.284 91.8306 206.284L88.9473 206.611C88.8385 206.611 88.7297 206.611 88.6753 206.502C88.5665 206.447 88.5121 206.338 88.5121 206.23C87.3152 193.602 86.7168 179.832 86.7168 165.408C86.7168 139.99 88.5665 120.94 88.6209 120.722C88.6209 120.614 88.6753 120.505 88.7841 120.45C88.8929 120.396 88.9473 120.341 89.0561 120.341L91.7761 120.614C91.9394 120.614 92.1026 120.777 92.1026 120.94C93.8978 134.33 94.8226 148.535 94.8226 163.231ZM91.2865 205.413C91.6129 202.855 93.8978 186.145 93.8978 163.122C93.8978 148.699 93.0274 134.656 91.2321 121.376L89.2737 121.158C89.0017 124.206 87.424 142.058 87.424 165.299C87.424 179.56 88.0224 193.112 89.1649 205.631L91.2865 205.413Z" fill="#323A50"/>
<path d="M90.4704 173.137C90.4704 173.246 90.416 173.355 90.3616 173.409C90.1984 173.573 89.9808 173.573 89.7088 173.409L86.8255 170.579C86.6623 170.416 86.6623 170.198 86.8255 169.926C86.9887 169.763 87.2063 169.763 87.4783 169.926L90.3616 172.756C90.416 172.919 90.4704 173.028 90.4704 173.137Z" fill="#323A50"/>
<path d="M93.2996 174.062C93.2996 174.171 93.2452 174.28 93.1908 174.335C93.0276 174.498 92.81 174.498 92.538 174.335L86.8802 168.783C86.717 168.62 86.717 168.402 86.8802 168.13C87.0434 167.966 87.261 167.966 87.533 168.13L93.1908 173.681C93.2452 173.845 93.2996 173.954 93.2996 174.062Z" fill="#323A50"/>
<path d="M92.6457 157.298C92.6457 157.407 92.5913 157.516 92.5369 157.57C92.3737 157.734 92.1561 157.734 91.8841 157.57L87.0423 152.835C86.8791 152.672 86.8791 152.454 87.0423 152.182C87.2055 152.019 87.4231 152.019 87.6951 152.182L92.5369 156.917C92.6457 156.972 92.6457 157.026 92.6457 157.298Z" fill="#323A50"/>
<path d="M90.7955 157.407C90.7955 157.516 90.7411 157.625 90.6867 157.679C90.5235 157.843 90.3058 157.843 90.0338 157.679L86.933 154.577C86.7697 154.414 86.7697 154.196 86.933 153.924C87.0962 153.76 87.3138 153.76 87.5858 153.924L90.6867 157.026C90.7955 157.081 90.7955 157.298 90.7955 157.407Z" fill="#323A50"/>
<path d="M155.48 109.02C148.898 115.334 149.007 115.388 145.851 118.273C139.922 123.607 120.011 139.391 119.793 163.34V163.612C119.956 187.561 139.867 203.454 145.851 208.679C149.224 211.672 149.115 211.618 156.351 218.53C171.474 235.403 193.398 246.017 217.825 246.017C253.349 246.017 283.542 223.592 295.292 192.187C295.347 192.187 295.456 191.861 295.51 191.861C296.326 189.847 298.611 183.152 299.373 177.274C300.08 172.919 300.461 167.912 300.461 163.34C300.461 117.674 263.468 80.6631 217.825 80.6631C192.8 80.7719 170.604 91.7121 155.48 109.02Z" fill="white"/>
<path d="M300.732 163.449C300.732 168.184 300.406 173.191 299.644 177.437C298.882 183.315 296.652 189.955 295.781 192.078L295.673 192.296H295.618C295.618 192.35 295.564 192.405 295.509 192.459C289.689 208.189 279.298 221.578 265.589 231.267C251.499 241.227 234.961 246.452 217.715 246.452C205.692 246.452 194.105 243.949 183.333 238.996C172.888 234.206 163.64 227.457 155.969 218.857C154.881 217.768 153.957 216.952 153.141 216.19C148.68 211.836 148.299 211.509 145.524 209.005C145.252 208.733 144.817 208.407 144.382 208.026C140.955 205.087 134.698 199.535 129.313 192.078C122.73 182.934 119.466 173.355 119.303 163.612V163.394C119.357 153.652 122.784 144.018 129.313 134.928C134.698 127.472 140.955 121.92 144.382 118.981C144.763 118.654 145.143 118.328 145.524 118.001C147.646 116.096 148.408 115.443 150.42 113.429C151.508 112.395 152.923 110.925 155.153 108.857C162.824 100.04 172.127 93.0183 182.735 88.1197C193.724 83.0579 205.42 80.4453 217.661 80.4453C228.868 80.4453 239.748 82.6225 249.975 86.9767C259.822 91.1133 268.744 97.2093 276.36 104.829C283.976 112.449 289.961 121.321 294.204 131.227C298.502 141.351 300.732 152.236 300.732 163.449ZM295.074 191.697C295.836 189.792 298.121 183.097 298.882 177.328C299.535 173.246 299.97 168.13 299.97 163.449C299.97 118.055 263.086 81.1529 217.715 81.1529C193.996 81.1529 171.419 91.4399 155.806 109.292C153.63 111.415 152.107 112.885 151.073 113.864C149.006 115.878 148.244 116.586 146.123 118.545C145.851 118.817 145.415 119.144 144.98 119.525C138.234 125.349 120.391 140.915 120.228 163.34V163.612C120.391 186.091 138.289 201.603 144.98 207.427C145.361 207.754 145.742 208.08 146.123 208.407C149.006 210.91 149.332 211.291 153.793 215.646C154.555 216.408 155.534 217.333 156.622 218.367C172.127 235.675 194.486 245.69 217.77 245.69C251.934 245.69 282.888 224.137 294.802 192.133L294.857 191.915H294.911C294.911 191.806 295.02 191.752 295.074 191.697Z" fill="#323A50"/>
<path d="M301.113 163.449C301.113 174.661 298.937 185.601 294.53 195.888C290.396 205.74 284.303 214.72 276.686 222.34C269.07 229.96 260.094 235.948 250.247 240.193C239.965 244.547 229.139 246.779 217.824 246.779C205.747 246.779 194.159 244.275 183.333 239.322C172.834 234.532 163.586 227.783 155.861 219.129C149.06 212.489 148.68 212.271 145.796 209.713L145.307 209.332C144.98 209.06 144.545 208.679 144.11 208.298C140.41 205.141 134.372 199.807 128.932 192.296C122.349 183.152 118.976 173.572 118.922 163.775V163.558C118.976 153.815 122.404 144.072 128.932 135.037C134.318 127.58 140.41 122.192 144.11 119.035C144.491 118.709 144.926 118.328 145.307 118.001C148.516 115.116 148.68 115.062 155.045 108.803C162.77 99.9851 172.072 92.9639 182.735 88.0653C193.778 83.0034 205.475 80.3909 217.715 80.3909C228.922 80.3909 239.857 82.568 250.138 86.9767C259.985 91.1133 268.961 97.2093 276.578 104.829C284.194 112.449 290.178 121.43 294.421 131.282C298.882 141.296 301.113 152.182 301.113 163.449ZM120.228 163.394V163.612C120.391 185.928 138.289 201.331 144.98 207.209C145.361 207.536 145.796 207.917 146.177 208.298L146.667 208.679C149.55 211.237 149.876 211.564 156.84 218.149V218.204C172.344 235.458 194.703 245.473 217.933 245.473C263.195 245.473 300.025 208.679 300.025 163.34C300.025 118.001 263.249 81.2073 217.933 81.2073C194.268 81.2073 171.746 91.4399 156.133 109.292L156.078 109.347C149.496 115.661 149.441 115.715 146.231 118.6C145.905 118.872 145.47 119.253 145.035 119.688C138.234 125.621 120.391 141.079 120.228 163.394Z" fill="#323A50"/>
<path opacity="0.83" d="M156.024 119.471C153.902 117.457 151.835 116.858 148.407 119.797C142.641 124.913 123.22 140.262 123.002 163.449V163.666C123.165 186.907 142.587 202.202 148.353 207.318C151.835 210.366 154.283 208.788 155.752 208.08C159.451 206.121 160.158 203.236 159.614 202.474C156.241 197.031 147.591 194.31 145.579 188.159C145.524 187.996 141.281 179.07 141.172 164.265C141.172 164.211 141.118 154.196 144.055 144.671C146.449 135.908 155.697 130.356 159.125 124.859C160.267 123.226 157.71 121.049 156.024 119.471Z" fill="url(#paint0_linear_3748_13372)"/>
<path d="M293.334 163.667C293.334 205.631 259.387 239.594 217.444 239.594C192.8 239.594 170.876 227.838 156.949 209.55" fill="white"/>
<path d="M293.713 163.721C293.713 174.117 291.701 184.023 287.784 193.439C283.975 202.583 278.427 210.638 271.463 217.714C264.445 224.735 256.339 230.233 247.2 234.043C237.789 238.016 227.724 239.975 217.497 239.975C205.311 239.975 193.778 237.254 183.006 231.757C172.724 226.586 163.639 218.911 156.676 209.767L157.329 209.278C171.745 228.219 193.669 239.159 217.551 239.159C259.223 239.159 293.115 205.25 293.115 163.612L293.713 163.721Z" fill="#323A50"/>
<path d="M217.335 233.389C255.823 233.389 287.023 202.173 287.023 163.667C287.023 125.16 255.823 93.9436 217.335 93.9436C178.847 93.9436 147.646 125.16 147.646 163.667C147.646 202.173 178.847 233.389 217.335 233.389Z" fill="white"/>
<path d="M287.294 163.667C287.294 182.39 280.004 199.916 266.785 213.142C253.565 226.368 235.939 233.662 217.333 233.662C198.619 233.662 181.102 226.368 167.882 213.142C154.663 199.916 147.373 182.281 147.373 163.667C147.373 144.998 154.663 127.417 167.882 114.191C181.102 100.965 198.728 93.6715 217.333 93.6715C236.048 93.6715 253.565 100.965 266.785 114.191C280.059 127.417 287.294 145.052 287.294 163.667ZM148.026 163.667C148.026 201.93 179.144 233.063 217.388 233.063C255.632 233.063 286.75 201.93 286.75 163.667C286.75 125.403 255.687 94.2702 217.388 94.2702C179.144 94.3246 148.026 125.458 148.026 163.667Z" fill="#323A50"/>
<g opacity="0.1">
<path d="M245.132 103.088L245.078 103.577C247.472 103.85 250.627 110.762 250.845 112.232C250.953 112.83 250.79 113.211 250.681 113.538C250.518 114.082 250.301 114.572 250.79 115.443C251.769 117.021 257.536 122.301 260.365 123.498C263.248 124.641 264.771 125.403 265.859 128.07C266.458 129.54 266.458 131.771 266.458 134.057C266.458 136.18 266.458 138.466 266.947 140.153C267.655 142.711 268.797 145.215 269.45 146.413C268.743 145.759 267.981 145.161 267.328 144.562C266.077 143.473 264.935 142.603 264.499 141.949C263.901 141.187 263.683 138.357 263.302 135.418C262.922 131.499 262.432 126.927 261.126 125.621C259.603 124.043 254.054 121.811 249.539 120.015C247.145 119.035 245.078 118.219 244.208 117.783C243.337 117.239 242.358 115.769 241.27 114.191C239.475 111.524 237.462 108.476 235.014 108.53V109.02C237.19 108.966 239.094 111.905 240.835 114.518C241.977 116.259 242.902 117.674 243.936 118.273C244.806 118.817 246.873 119.579 249.321 120.505C253.782 122.301 259.331 124.478 260.746 126.002C261.235 126.546 261.616 127.58 261.888 128.887C261.398 128.07 260.691 127.036 259.821 126.274C258.189 124.968 254.272 123.879 252.205 123.281C251.878 123.172 251.552 123.117 251.334 123.063C250.681 122.9 250.246 123.117 249.811 123.335C249.43 123.607 248.832 123.934 247.744 123.661C246.492 123.444 245.948 122.682 245.35 121.92C245.024 121.376 244.588 120.831 243.99 120.396C242.358 119.416 240.78 120.069 239.964 120.341H239.91C239.311 120.559 239.366 121.103 239.366 121.484C239.42 121.811 239.42 122.138 239.203 122.246C238.985 122.355 238.495 122.083 238.006 121.702C237.299 121.212 236.483 120.614 235.775 120.995L235.939 121.376C236.483 121.158 237.135 121.593 237.734 122.029C238.387 122.41 238.931 122.845 239.475 122.573C240.019 122.301 239.855 121.757 239.855 121.376C239.801 120.995 239.801 120.777 240.019 120.668H240.073C240.889 120.396 242.303 119.852 243.718 120.668C244.262 120.995 244.588 121.484 244.969 121.974C245.568 122.791 246.166 123.662 247.635 123.879C248.94 124.097 249.593 123.77 250.083 123.498C250.409 123.28 250.681 123.172 251.171 123.281C251.334 123.335 251.715 123.389 252.041 123.498C253.945 124.042 257.917 125.131 259.494 126.383C261.235 127.744 262.16 130.247 262.214 130.411C262.432 131.989 262.595 133.676 262.813 135.309C263.139 138.412 263.466 141.079 264.064 142.004C264.554 142.657 265.696 143.637 266.947 144.671C269.45 146.794 272.823 149.678 272.714 151.692C272.66 152.726 272.442 153.815 272.17 155.121C271.68 157.516 271.082 160.237 271.626 163.177C272.768 169.164 273.911 171.286 275.38 172.484C276.74 173.627 278.481 174.28 278.535 174.28L278.698 173.899C278.698 173.899 276.957 173.3 275.652 172.157C274.346 171.014 273.204 169.055 272.061 163.122C271.517 160.237 272.061 157.625 272.605 155.284C272.823 154.087 273.095 152.89 273.204 151.801C273.312 150.277 271.844 148.535 270.048 146.794L270.212 146.739C270.212 146.685 268.307 143.31 267.383 139.881C267.002 138.194 267.002 136.017 267.002 133.948C267.002 131.554 267.002 129.268 266.403 127.744C265.261 124.859 263.575 124.043 260.691 122.9C258.026 121.757 252.205 116.531 251.334 115.116C250.953 114.409 251.062 114.028 251.225 113.538C251.389 113.211 251.552 112.721 251.443 111.959C251.117 110.49 247.744 103.469 245.132 103.088Z" fill="#323A50"/>
<path d="M256.068 158.768C256.884 159.53 258.244 159.421 259.876 159.312C261.454 159.203 263.086 159.04 264.554 159.639C267.383 160.945 269.505 167.041 269.505 167.095L269.886 166.987C269.831 166.769 267.71 160.727 264.718 159.312C263.14 158.605 261.345 158.714 259.822 158.931C258.298 159.04 256.993 159.149 256.34 158.55C255.633 157.843 255.089 155.339 254.545 153.053C253.946 150.495 253.457 148.263 252.695 147.665C251.988 147.12 251.335 147.011 250.736 146.957C250.084 146.848 249.594 146.794 249.159 146.195C248.996 145.923 249.05 144.344 249.159 142.712C249.376 138.194 249.812 131.336 246.439 128.832C243.773 126.873 241.76 127.526 239.965 128.125C238.605 128.615 237.354 128.996 235.939 128.125C234.797 127.472 234.362 126.274 233.981 124.913C233.165 122.301 232.077 119.035 225.277 116.858C223.644 116.368 222.067 116.64 220.435 116.858C218.368 117.13 216.409 117.511 214.559 116.259L214.342 116.586C216.355 117.947 218.476 117.62 220.598 117.293C222.23 117.076 223.699 116.804 225.168 117.293C231.75 119.307 232.73 122.464 233.6 124.968C234.09 126.492 234.47 127.689 235.776 128.506C237.462 129.485 238.877 128.996 240.237 128.506C241.978 127.907 243.773 127.363 246.167 129.159C249.322 131.445 248.996 138.466 248.724 142.548C248.669 144.181 248.615 145.161 248.669 145.76C248.016 145.542 247.092 145.379 246.112 145.161C244.317 144.889 242.304 144.508 241.216 143.474C240.672 142.929 240.455 142.222 240.128 141.296C239.475 139.01 238.496 135.799 232.022 133.241H231.968C229.737 132.751 228.16 133.295 227.181 133.84C226.8 134.057 226.528 134.547 226.365 134.983C226.147 135.527 225.821 136.126 225.168 136.616C223.971 137.432 217.062 137.759 215.756 137.486C215.647 137.486 215.593 137.432 215.593 137.432C215.539 137.378 215.647 137.105 215.702 136.833C215.919 136.126 216.409 134.928 215.375 133.404L215.049 133.622C216.028 134.874 215.647 135.854 215.321 136.616C215.212 136.942 215.103 137.323 215.212 137.595C215.267 137.704 215.43 137.813 215.702 137.867C217.007 138.085 224.08 137.867 225.44 136.888C226.201 136.343 226.582 135.636 226.8 135.092C226.963 134.711 227.126 134.33 227.453 134.112C228.269 133.622 229.737 133.132 231.859 133.568C238.115 136.017 239.04 139.065 239.639 141.242C239.911 142.276 240.183 143.093 240.835 143.691C242.032 144.834 244.208 145.215 246.004 145.487C247.2 145.651 248.397 145.868 248.887 146.249C249.376 146.903 250.029 147.011 250.682 147.12C251.28 147.229 251.824 147.284 252.423 147.773C253.076 148.263 253.62 150.713 254.109 152.835C254.817 155.666 255.306 158.006 256.068 158.768Z" fill="#323A50"/>
<path d="M209.5 158.06C210.153 157.462 210.642 156.972 212.057 157.298C213.036 157.462 214.341 158.006 215.81 158.55C218.367 159.584 220.978 160.564 222.175 160.129C222.774 159.911 223.209 159.53 223.535 159.149C224.351 158.441 225.276 157.625 227.942 158.06C230.064 158.332 231.696 159.53 233.001 160.455C234.144 161.217 235.123 161.979 236.156 161.816C236.918 161.761 237.408 161.326 237.952 160.945C238.822 160.237 239.801 159.421 242.086 160.455C243.882 161.217 244.317 162.306 244.698 163.122C245.078 163.993 245.459 164.864 247.2 164.592C249.05 164.32 250.246 163.068 251.335 162.034C252.151 161.217 253.075 160.346 254.163 159.856L254 159.475C252.803 160.074 251.933 160.945 251.008 161.707C249.866 162.85 248.832 163.884 247.091 164.156C245.731 164.374 245.459 163.939 245.133 163.013C244.806 162.142 244.262 160.945 242.249 160.074C239.638 158.986 238.55 159.856 237.571 160.673C237.027 161.054 236.592 161.435 235.993 161.489C235.232 161.544 234.307 160.945 233.164 160.183C231.804 159.203 230.118 158.115 227.833 157.734C224.95 157.353 223.971 158.115 223.046 158.931C222.719 159.258 222.284 159.584 221.794 159.748C220.761 160.129 218.095 159.094 215.81 158.169C214.341 157.57 212.981 157.081 212.002 156.863C210.316 156.536 209.772 157.081 209.01 157.734C208.629 158.115 208.14 158.605 207.215 158.822L207.324 159.203C208.52 159.149 209.01 158.55 209.5 158.06Z" fill="#323A50"/>
<path d="M273.259 155.774C272.497 157.407 272.116 161.38 272.606 163.83C272.987 166.225 273.966 170.361 275.707 171.94C276.74 172.81 278.644 173.736 278.753 173.736L278.916 173.355C278.916 173.355 276.958 172.538 275.979 171.613C274.238 170.035 273.367 165.626 272.987 163.775C272.497 161.163 272.987 157.407 273.639 156.046C274.347 154.522 275.435 154.087 275.924 154.033C277.611 153.869 279.025 156.536 279.025 156.591L279.406 156.427C279.351 156.319 277.774 153.379 275.815 153.597C275.163 153.597 273.966 154.196 273.259 155.774Z" fill="#323A50"/>
<path d="M244.697 154.577C244.969 153.761 245.349 152.89 246.165 152.454C247.036 151.801 249.321 150.549 251.334 152.291C252.15 152.999 252.857 154.795 253.401 156.428C253.999 158.115 254.598 159.693 255.359 160.183C256.175 160.727 257.535 160.564 259.222 160.455C260.745 160.346 262.214 160.292 263.356 160.564C265.804 161.272 268.688 167.368 268.742 167.422L269.123 167.259C269.014 167.041 266.131 160.945 263.465 160.183C262.214 159.857 260.527 159.965 259.113 160.074C257.59 160.183 256.175 160.238 255.523 159.857C254.87 159.476 254.326 157.843 253.727 156.264C253.074 154.468 252.422 152.672 251.551 151.91C249.919 150.549 247.852 150.604 245.785 152.073C244.969 152.672 244.533 153.652 244.207 154.468C243.881 155.285 243.554 156.101 242.847 156.428C241.269 157.135 239.637 156.591 238.984 155.666C238.821 155.448 238.712 155.121 238.495 154.904C237.951 154.087 237.461 153.162 236.373 152.073C234.796 150.604 228.648 148.046 225.656 147.556C223.861 147.284 223.099 147.719 222.229 148.263C221.576 148.644 220.923 149.08 219.672 149.243L219.726 149.733C221.086 149.624 221.794 149.134 222.555 148.699C223.317 148.209 224.078 147.828 225.602 148.046C228.539 148.535 234.687 151.094 236.101 152.454C237.189 153.488 237.733 154.305 238.168 155.121C238.332 155.339 238.44 155.666 238.658 155.883C239.365 157.026 241.324 157.679 243.119 156.863C243.989 156.373 244.37 155.502 244.697 154.577Z" fill="#323A50"/>
</g>
<g opacity="0.1">
<path d="M271.52 174.661C270.269 174.824 269.344 176.294 268.31 177.709C267.549 178.852 266.569 180.539 265.753 182.009C265.046 183.315 264.393 184.458 264.013 184.948C263.958 185.057 263.795 185.166 263.686 185.275C262.544 185.982 259.824 186.527 257.702 186.363C256.451 186.309 255.526 186.418 254.71 186.472C253.894 186.581 253.241 186.635 252.751 186.418C252.371 186.254 252.262 185.928 252.207 185.438C252.153 184.948 252.044 184.349 251.228 184.077C250.575 183.86 249.868 183.968 249.161 184.023C248.454 184.132 247.855 184.186 247.42 183.914C247.094 183.642 246.876 183.315 246.767 182.934C246.604 182.553 246.441 182.063 245.788 181.682C245.244 181.356 244.591 181.791 243.721 182.39C242.47 183.261 240.729 184.458 238.607 183.968C236.322 183.424 236.431 182.717 236.54 181.737C236.594 181.247 236.703 180.703 236.485 180.104C236.159 179.124 234.092 178.308 231.97 177.437C230.284 176.729 228.543 176.076 228.162 175.423C227.618 174.716 227.509 174.117 227.4 173.518C227.291 172.919 227.237 172.375 226.639 171.94C225.986 171.395 225.061 171.722 224.354 171.94C223.864 172.049 223.375 172.212 223.157 172.103L222.939 172.43C223.266 172.593 223.81 172.484 224.517 172.321C225.17 172.157 225.986 171.94 226.421 172.266C226.802 172.538 226.911 172.974 227.019 173.518C227.128 174.117 227.237 174.77 227.835 175.586C228.379 176.294 230.012 177.056 231.861 177.709C233.765 178.471 235.833 179.396 236.159 180.158C236.322 180.648 236.268 181.138 236.213 181.519C236.105 182.553 235.941 183.587 238.661 184.241C241.055 184.785 242.796 183.533 244.156 182.608C244.863 182.118 245.462 181.737 245.788 181.9C246.278 182.172 246.386 182.553 246.55 182.989C246.658 183.315 246.822 183.805 247.366 184.186C247.964 184.567 248.671 184.458 249.433 184.349C250.086 184.241 250.739 184.186 251.283 184.349C251.827 184.513 251.881 184.948 251.935 185.384C251.99 185.765 252.044 186.418 252.751 186.69C253.404 186.908 254.057 186.853 254.927 186.744C255.689 186.635 256.614 186.581 257.811 186.635C259.116 186.744 260.803 186.581 262.217 186.254C260.585 187.289 258.083 188.54 255.526 188.758C253.459 188.921 252.697 188.54 251.609 187.996C250.575 187.452 249.215 186.799 246.332 186.254C242.197 185.547 238.281 187.343 236.268 188.54C235.941 188.432 233.112 187.561 232.351 185.438L232.024 184.349C231.317 182.281 230.664 180.485 230.175 179.505C229.522 178.253 227.455 177.328 226.149 177.056C225.387 176.947 224.898 177.274 224.463 177.655C224.136 177.927 223.701 178.253 223.103 178.253C222.559 178.199 222.069 177.437 221.471 176.512C220.654 175.26 219.566 173.627 217.826 173.028C215.758 172.266 214.779 173.028 213.963 173.681C213.582 173.954 213.201 174.335 212.712 174.443L212.821 174.824C213.419 174.716 213.854 174.28 214.344 174.008C215.16 173.355 215.922 172.756 217.771 173.409C219.403 174.008 220.382 175.478 221.198 176.784C221.906 177.818 222.395 178.634 223.157 178.689C223.973 178.743 224.408 178.417 224.898 178.036C225.224 177.764 225.605 177.437 226.203 177.546C227.563 177.764 229.413 178.743 229.957 179.723C230.447 180.703 231.1 182.553 231.807 184.513L232.133 185.601C232.84 187.615 235.071 188.54 235.996 188.867C235.397 189.194 235.016 189.52 235.016 189.575C234.962 189.629 231.154 193.766 228.216 195.616C225.279 197.521 222.831 197.467 222.015 196.433C221.525 195.888 221.47 194.8 221.416 193.548C221.362 192.405 221.307 191.099 220.872 189.901C220.219 188.105 217.717 186.853 216.955 186.472C215.867 185.928 214.344 185.438 213.582 185.765C212.277 186.254 211.841 188.214 211.841 188.268L212.222 188.323C212.222 188.323 212.549 186.527 213.691 186.146C214.072 186.037 215.269 186.2 216.683 186.853C218.206 187.506 219.893 188.704 220.382 189.956C220.763 191.044 220.763 192.35 220.926 193.439C220.981 194.745 221.035 195.888 221.579 196.541C222.559 197.684 225.115 197.902 228.379 195.779C231.263 193.929 235.016 189.901 235.234 189.683C235.506 189.466 240.674 185.547 246.386 186.472C249.27 186.962 250.467 187.615 251.5 188.159C251.718 188.268 251.99 188.377 252.207 188.486C250.847 189.03 249.977 188.976 249.27 188.867C248.29 188.813 247.746 188.867 247.039 190.119C246.006 191.806 245.788 195.126 245.679 197.303C245.625 198.174 245.57 198.936 245.516 199.263C245.244 200.624 244.537 201.331 243.394 201.712C242.361 201.984 242.089 201.767 241.545 201.386C241.436 201.277 241.273 201.168 241.055 201.059C240.837 200.896 240.674 200.515 240.402 200.188C239.913 199.372 239.26 198.229 237.682 198.338C236.213 198.392 235.778 199.317 235.288 200.243C235.016 200.896 234.636 201.494 233.983 202.039C232.296 203.291 227.509 204.706 224.952 205.032C222.015 205.304 216.574 204.815 216.302 204.325C216.248 204.161 216.574 203.345 216.901 202.746C217.445 201.603 218.098 200.243 217.88 199.263C217.826 199.1 217.826 198.991 217.771 198.882C217.499 197.684 217.39 197.521 216.139 197.63C215.269 197.684 215.106 198.338 215.051 198.882C214.997 199.208 214.942 199.589 214.725 199.862C214.126 200.351 211.896 200.134 211.08 200.079L211.025 200.46C211.297 200.515 214.126 200.787 214.997 200.188C215.378 199.916 215.486 199.372 215.541 198.991C215.65 198.392 215.704 198.174 216.194 198.12C216.683 198.065 216.901 198.065 217.01 198.174C217.118 198.283 217.173 198.501 217.282 199.045C217.336 199.154 217.336 199.317 217.39 199.426C217.554 200.243 217.01 201.549 216.52 202.583C216.03 203.563 215.813 204.161 215.922 204.488C216.248 205.468 222.831 205.74 225.061 205.522C227.727 205.304 232.568 203.78 234.309 202.474C235.016 201.93 235.452 201.222 235.833 200.569C236.322 199.698 236.649 198.936 237.845 198.882C239.151 198.827 239.695 199.644 240.239 200.515C240.457 200.896 240.729 201.277 241.001 201.549C241.164 201.658 241.273 201.767 241.49 201.875C242.034 202.256 242.524 202.692 243.721 202.365C245.081 201.984 245.788 201.113 246.223 199.644C246.278 199.372 246.332 198.936 246.332 198.338C246.55 198.664 246.55 199.045 246.55 199.481C246.55 199.916 246.495 200.351 246.822 200.841C247.366 201.603 248.29 201.113 248.834 200.787C249.106 200.678 249.433 200.515 249.596 200.515C249.705 200.515 249.814 200.569 249.923 200.678C250.086 200.896 250.14 201.386 250.086 202.039C249.977 202.746 248.889 203.726 248.236 204.27C248.018 204.488 247.855 204.651 247.692 204.815C247.529 205.032 247.529 205.413 247.583 205.685C247.638 206.012 247.638 206.447 247.42 206.828C247.311 206.992 247.094 207.101 246.767 207.155C246.223 207.209 245.625 206.992 245.516 206.883C245.462 206.828 245.462 206.665 245.462 206.393C245.462 206.121 245.462 205.74 245.244 205.413C244.918 204.923 244.156 204.76 243.177 204.815C242.578 204.869 242.578 205.359 242.578 205.794C242.578 206.284 242.524 206.828 241.871 207.046C241.381 207.209 240.892 206.992 240.293 206.665C239.423 206.121 238.281 205.522 236.649 206.447C234.69 207.536 234.908 208.625 235.016 209.55C235.071 209.822 235.125 210.149 235.071 210.312C235.016 210.475 234.908 210.584 234.853 210.584C234.69 210.638 234.527 210.53 234.472 210.475L234.255 210.802C234.309 210.802 234.636 211.074 235.071 210.965C235.289 210.911 235.452 210.747 235.669 210.366C235.778 210.094 235.724 209.713 235.669 209.332C235.561 208.57 235.397 207.59 237.029 206.72C238.498 205.958 239.314 206.502 240.239 206.937C240.892 207.264 241.49 207.645 242.143 207.318C243.122 206.992 243.122 206.175 243.122 205.631C243.122 205.141 243.177 205.087 243.286 205.087C244.102 205.032 244.646 205.141 244.972 205.468C245.081 205.631 245.081 205.849 245.081 206.121C245.081 206.393 245.081 206.72 245.298 206.937C245.516 207.155 246.278 207.482 246.985 207.318C247.366 207.264 247.746 207.101 248.018 206.774C248.345 206.23 248.29 205.74 248.29 205.304C248.29 205.032 248.236 204.815 248.345 204.706C248.399 204.597 248.617 204.488 248.889 204.216C249.596 203.563 250.739 202.529 250.847 201.658C250.847 201.658 250.847 201.658 250.847 201.603C250.956 200.841 250.847 200.297 250.575 199.916C250.412 199.753 250.195 199.644 249.868 199.644C249.596 199.644 249.27 199.807 248.889 199.97C248.182 200.297 247.692 200.569 247.366 200.134C247.148 199.862 247.148 199.481 247.148 199.045C247.148 198.501 247.202 197.848 246.495 197.303C246.495 197.249 246.495 197.195 246.495 197.195C246.604 195.072 246.767 191.806 247.801 190.228C248.508 189.085 248.889 189.139 249.651 189.139C250.412 189.194 251.446 189.248 253.187 188.486C253.894 188.704 254.764 188.813 256.07 188.704C260.15 188.432 264.393 185.166 264.665 185.003C264.829 184.894 264.992 184.73 265.155 184.622C265.481 184.132 266.189 182.989 266.95 181.628C267.766 180.104 268.745 178.471 269.507 177.328C270.378 176.022 271.357 174.661 272.445 174.443C272.934 174.389 273.424 174.498 274.022 174.988C276.09 176.566 283.434 178.58 283.652 178.58L283.706 178.199C283.325 178.145 276.198 176.185 274.294 174.661C272.662 174.716 272.064 174.552 271.52 174.661Z" fill="#323A50"/>
<path d="M273.423 177.764C271.192 178.417 268.744 181.628 268.091 182.662C266.731 184.894 266.405 190.173 266.894 192.623C267.112 193.711 267.493 194.528 267.874 195.181C268.2 195.943 268.581 196.65 268.581 197.467C268.581 199.317 268.799 200.297 269.451 201.168C269.56 201.331 269.723 201.386 269.832 201.386C270.159 201.386 270.539 201.113 270.92 200.678C271.138 200.406 271.573 199.97 271.736 200.025C271.845 200.025 271.899 200.134 271.954 200.243C272.607 201.44 271.736 202.311 271.682 202.365L271.954 202.637C271.954 202.637 273.151 201.44 272.28 199.97C272.117 199.698 271.954 199.589 271.682 199.481C271.301 199.426 270.866 199.807 270.431 200.243C270.213 200.46 269.887 200.841 269.723 200.841L269.669 200.787C269.071 200.025 268.907 199.045 268.907 197.303C268.907 196.269 268.581 195.616 268.146 194.8C267.874 194.147 267.438 193.33 267.275 192.296C266.786 190.064 267.112 184.839 268.418 182.717C269.179 181.41 271.464 178.58 273.423 177.981C273.967 177.872 274.946 178.09 275.653 178.362C279.733 180.104 282.671 180.757 282.725 180.757L282.78 180.376C282.78 180.376 279.842 179.777 275.816 178.09C275.436 178.09 274.13 177.6 273.423 177.764Z" fill="#323A50"/>
<path d="M272.987 176.729C272.171 176.838 271.246 177.709 270.92 177.981C270.865 178.036 270.865 178.036 270.865 178.036C268.907 179.723 267.057 182.063 266.459 183.696C266.296 184.077 266.187 184.73 266.133 185.384C264.881 187.942 264.392 190.445 263.956 192.84C263.739 194.147 263.412 195.507 263.086 196.814C262.052 200.406 256.068 206.393 255.796 206.665C255.579 206.828 250.356 210.965 248.561 211.346C247.799 211.509 243.882 212.38 242.849 212.87C241.869 213.196 240.183 218.422 239.857 219.456C239.748 221.959 239.53 225.661 239.258 225.987C238.986 226.368 237.572 226.858 236.973 226.749C236.756 226.749 236.592 226.477 236.375 226.15C236.103 225.769 235.668 225.116 234.906 225.007C234.362 224.953 232.839 225.28 230.227 225.987C227.834 226.586 224.57 227.348 223.971 227.185C223.427 227.021 223.373 226.64 223.264 226.368C223.21 226.096 223.101 225.661 222.557 225.552C222.394 225.497 222.285 225.606 222.23 225.661C222.013 225.878 222.013 226.423 222.067 227.185C222.122 227.892 222.176 228.817 221.85 229.198L222.176 229.471C222.557 228.926 222.502 227.947 222.502 227.185C222.502 226.804 222.448 226.15 222.557 226.042C222.774 226.096 222.774 226.15 222.883 226.531C222.992 226.912 223.101 227.402 223.862 227.674C224.515 227.892 226.855 227.402 230.391 226.531C232.349 226.042 234.362 225.552 234.852 225.661C235.396 225.715 235.668 226.205 235.994 226.64C236.212 226.967 236.538 227.402 236.973 227.457C237.68 227.566 239.258 227.076 239.693 226.477C240.02 225.987 240.292 221.197 240.346 219.728C241.325 216.789 242.522 213.686 243.066 213.469C243.882 213.196 246.548 212.489 248.724 211.999C250.628 211.618 255.905 207.427 256.123 207.209C256.34 206.992 262.433 200.896 263.576 197.14C263.902 195.834 264.228 194.473 264.446 193.167C264.772 191.262 265.208 189.302 266.024 187.289C265.915 188.432 265.861 189.575 265.752 190.826C265.697 191.806 265.643 192.731 265.534 193.439C264.936 198.991 264.065 202.093 262.651 204.107C261.019 206.339 255.089 213.251 254.327 213.741C254.001 214.013 253.511 214.122 252.967 214.339C252.587 214.448 252.097 214.557 251.498 214.829C249.594 215.646 247.527 218.911 246.004 221.361C245.242 222.558 244.481 223.592 244.209 223.864C243.665 224.191 243.338 224.082 242.849 223.919C242.577 223.81 242.141 223.647 241.652 223.647V224.028C242.033 224.028 242.359 224.137 242.685 224.245C243.229 224.463 243.719 224.626 244.481 224.191C244.861 223.919 245.569 222.939 246.385 221.578C247.908 219.292 249.921 216.081 251.716 215.265C252.206 215.047 252.695 214.938 253.076 214.884C253.675 214.72 254.164 214.612 254.654 214.231C255.361 213.632 261.454 206.774 263.086 204.488C264.609 202.42 265.371 199.208 266.024 193.548C266.078 192.84 266.133 191.861 266.241 190.935C266.405 188.432 266.568 185.601 267.112 184.241C267.656 182.717 269.505 180.376 271.409 178.743C271.409 178.743 271.464 178.689 271.518 178.689C271.79 178.471 272.661 177.655 273.368 177.546C274.021 177.437 275.272 177.872 277.013 178.58C278.645 179.179 280.712 179.941 283.106 180.594L283.215 180.213C280.767 179.56 278.754 178.852 277.176 178.253C275 177.11 273.749 176.621 272.987 176.729Z" fill="#323A50"/>
<path d="M210.317 223.865C210.644 223.919 211.188 224.246 211.841 224.681C212.929 225.389 214.126 226.259 215.214 225.715C215.758 225.443 216.247 224.735 216.791 223.865C217.825 222.286 219.022 220.381 221.47 219.674C225.169 218.422 231.806 215.265 231.86 215.265H231.915C231.969 215.21 237.192 211.4 242.251 212.707L242.36 212.326C237.192 210.965 232.078 214.612 231.697 214.938C231.643 214.938 231.48 215.047 231.208 215.156C231.099 214.612 230.718 213.414 229.684 212.652C228.923 212.054 227.889 211.836 226.692 211.945C224.679 212.162 222.721 213.197 221.034 214.013C219.511 214.775 218.314 215.374 217.39 215.319C216.628 215.265 216.519 214.775 216.302 214.176C216.138 213.469 215.921 212.543 214.343 212.38C212.711 212.217 212.058 213.36 211.405 214.231C210.916 214.938 210.644 215.428 210.1 215.374C208.577 215.265 206.564 213.197 206.564 213.197L206.292 213.469C206.346 213.523 208.413 215.646 210.1 215.864C210.916 215.918 211.351 215.21 211.841 214.503C212.385 213.632 212.983 212.707 214.343 212.816C215.594 212.924 215.812 213.578 215.975 214.285C216.138 214.938 216.302 215.591 217.498 215.755C218.532 215.809 219.783 215.156 221.361 214.394C223.047 213.578 224.897 212.598 226.855 212.38C227.944 212.271 228.814 212.435 229.521 212.979C230.5 213.741 230.772 214.938 230.881 215.374C228.923 216.245 224.299 218.367 221.47 219.293C218.967 220.109 217.607 222.232 216.574 223.701C216.03 224.463 215.594 225.225 215.105 225.443C214.398 225.824 213.255 225.116 212.221 224.409C211.569 224.028 211.025 223.592 210.535 223.538C209.882 223.484 208.903 224.082 207.869 224.79C206.836 225.443 205.748 226.259 204.932 226.368L204.986 226.749C205.856 226.64 206.999 225.878 208.087 225.116C208.849 224.354 209.828 223.756 210.317 223.865Z" fill="#323A50"/>
<path d="M274.893 179.396C273.696 179.941 272.717 181.465 271.901 182.608C271.629 182.989 271.357 183.424 271.194 183.642C271.03 183.805 270.867 183.805 270.65 183.859C270.106 183.968 269.67 184.132 269.181 185.329C268.474 187.071 268.093 191.099 269.018 192.514C269.344 193.058 269.779 193.112 270.106 193.112C271.085 193.003 271.901 191.861 272.227 190.881C272.445 190.173 273.207 190.119 273.968 190.064C274.621 190.01 275.274 189.955 275.655 189.466C275.872 189.194 276.144 188.976 276.307 189.085C276.525 189.139 276.851 189.574 276.96 190.445C277.069 191.752 276.634 193.82 276.634 193.82L277.015 193.929C277.015 193.874 277.559 191.86 277.341 190.391C277.232 189.357 276.851 188.704 276.362 188.595C276.035 188.486 275.546 188.704 275.219 189.194C275.002 189.466 274.458 189.52 273.914 189.574C273.152 189.629 272.118 189.683 271.792 190.717C271.466 191.752 270.65 192.622 269.997 192.677C269.779 192.677 269.507 192.568 269.344 192.35C268.637 191.207 268.854 187.343 269.562 185.601C269.942 184.567 270.323 184.513 270.704 184.458C270.922 184.404 271.248 184.349 271.466 184.132C271.629 183.968 271.846 183.533 272.227 183.043C272.88 182.009 273.914 180.431 275.056 179.941C275.818 179.614 276.688 179.995 277.776 180.539C278.864 181.029 280.224 181.682 282.128 181.9L282.183 181.519C280.388 181.301 279.082 180.703 278.048 180.213C276.797 179.396 275.818 178.907 274.893 179.396Z" fill="#323A50"/>
</g>
<g opacity="0.45">
<path d="M217.444 231.811C254.76 231.811 285.01 201.399 285.01 163.884C285.01 126.369 254.76 95.9575 217.444 95.9575C180.128 95.9575 149.877 126.369 149.877 163.884C149.877 201.399 180.128 231.811 217.444 231.811Z" fill="url(#paint1_radial_3748_13372)"/>
<path d="M285.282 163.884C285.282 182.063 278.264 199.154 265.425 212.053C252.586 224.953 235.559 232.029 217.497 232.029C199.436 232.029 182.408 224.953 169.569 212.053C156.731 199.154 149.713 182.063 149.713 163.884C149.713 145.705 156.731 128.615 169.569 115.715C182.408 102.815 199.436 95.7397 217.497 95.7397C235.559 95.7397 252.586 102.815 265.425 115.715C278.209 128.506 285.282 145.596 285.282 163.884ZM150.148 163.884C150.148 201.168 180.341 231.648 217.497 231.648C254.654 231.648 284.955 201.222 284.955 163.884C284.955 126.601 254.762 96.1208 217.552 96.1208C180.341 96.1208 150.148 126.492 150.148 163.884Z" fill="#323A50"/>
</g>
<path d="M142.531 163.231C142.531 176.729 151.127 187.234 166.087 188.432C166.794 188.486 166.686 188.377 166.142 188.377C160.593 188.377 157.873 177.328 157.873 163.721C157.873 150.168 160.593 139.228 166.142 139.228C166.468 139.228 166.522 139.228 166.196 139.174C153.031 138.956 142.531 149.57 142.531 163.231Z" fill="#293C4F"/>
<path d="M151.073 181.301C151.182 181.301 150.42 181.41 149.55 181.356C148.951 181.301 148.299 181.138 147.755 180.812C147.21 180.485 146.721 180.158 146.177 179.669C146.177 179.669 146.177 179.614 146.122 179.614C143.294 176.893 141.335 170.96 141.335 164.211C141.335 154.795 145.034 147.066 149.713 147.066C149.713 147.066 150.311 147.066 150.747 147.12C151.508 147.175 152.27 147.447 152.868 147.937L159.179 124.968C158.798 124.968 159.56 124.968 157.873 124.968C146.394 124.968 137.092 142.385 137.092 163.939C137.092 185.492 146.394 202.91 157.873 202.91C158.526 202.91 159.179 202.855 159.886 202.746L153.14 180.104C152.705 180.431 151.726 181.193 151.073 181.301Z" fill="#DBDBDB"/>
<path d="M160.485 202.964L160.104 203.018C159.397 203.127 158.744 203.182 158.037 203.182C152.325 203.182 146.939 199.1 142.968 191.588C139.051 184.186 136.875 174.335 136.875 163.83C136.875 153.325 138.997 143.528 142.968 136.071C146.939 128.56 152.325 124.478 158.037 124.478C158.581 124.478 158.853 124.478 159.071 124.478C159.125 124.478 159.18 124.478 159.234 124.478V124.532C159.234 124.532 159.288 124.587 159.343 124.587H159.887L153.25 148.59L152.76 148.263C152.107 147.882 151.509 147.556 150.856 147.501C150.475 147.447 149.823 147.447 149.823 147.447C145.47 147.447 141.934 154.958 141.934 164.211C141.934 170.688 143.784 176.621 146.613 179.342L146.667 179.396C147.048 179.777 147.647 180.158 148.027 180.431C148.517 180.648 149.17 180.812 149.714 180.975C150.258 181.029 150.747 180.975 150.965 180.975H151.074C151.4 180.866 152.162 180.485 153.087 179.777L153.576 179.505L160.485 202.964ZM137.582 163.884C137.582 185.166 146.776 202.474 158.037 202.474C158.527 202.474 159.016 202.42 159.56 202.365L153.087 180.703C152.434 181.084 151.781 181.519 151.237 181.682C150.747 181.846 149.551 181.737 149.551 181.737C148.898 181.682 148.191 181.465 147.592 181.138C147.048 180.866 146.504 180.431 145.96 179.941L145.906 179.886C142.914 176.893 141.01 170.851 141.01 164.102C141.01 159.421 141.88 155.067 143.512 151.801C145.198 148.372 147.374 146.467 149.768 146.467C149.823 146.467 150.367 146.467 150.856 146.522C151.509 146.576 152.107 146.739 152.706 147.12L158.69 125.186C158.527 125.186 158.309 125.186 157.928 125.186C146.776 125.294 137.582 142.603 137.582 163.884Z" fill="#323A50"/>
<path opacity="0.52" d="M143.62 164.156C143.62 155.339 146.83 148.1 151.019 147.066C150.747 147.011 150.366 146.957 149.985 146.957C145.306 146.957 141.553 154.631 141.553 164.156C141.553 173.627 145.306 181.356 149.985 181.356C150.148 181.356 150.366 181.41 150.583 181.356C150.638 181.356 151.345 181.356 152.379 181.029C152.923 180.866 153.14 180.213 153.031 180.158C151.726 181.247 150.801 181.192 150.583 181.192C146.721 179.777 143.62 172.702 143.62 164.156Z" fill="url(#paint2_linear_3748_13372)"/>
<path d="M285.446 163.666C285.446 181.846 278.373 198.991 265.48 211.836C252.587 224.735 235.505 231.811 217.335 231.811C202.32 231.811 188.067 227.021 176.153 217.932L176.479 217.442C188.23 226.477 202.374 231.103 217.28 231.103C254.491 231.103 284.793 200.841 284.793 163.558C284.793 126.274 254.546 96.0662 217.28 96.0662C202.266 96.0662 188.012 100.91 176.207 110.054L175.881 109.565C187.904 100.312 202.211 95.4675 217.389 95.4675C235.559 95.4675 252.696 102.543 265.535 115.443C278.428 128.397 285.446 145.487 285.446 163.666Z" fill="#323A50"/>
<path d="M155.262 189.629L159.342 188.649L162.171 196.215C162.388 196.813 163.204 196.813 163.422 196.215L163.476 196.16L163.857 195.072C163.966 194.745 164.51 194.8 164.564 195.126L165.054 197.412V197.521C165.272 198.61 166.741 198.718 167.121 197.684L168.155 195.398C168.318 195.017 168.917 195.072 169.025 195.453C169.515 197.521 170.603 201.766 172.833 207.917C180.939 228.436 203.625 238.07 203.625 238.07C203.625 238.07 192.908 236.111 185.618 232.573C180.939 230.396 173.541 226.804 165.544 219.456C160.158 214.557 155.262 208.026 155.262 208.026C155.262 208.026 160.376 205.74 159.233 202.256C158.145 199.644 154.827 193.82 155.262 189.629Z" fill="white"/>
<path d="M207.325 239.268L203.735 238.615C203.626 238.615 192.909 236.601 185.619 233.117C181.104 230.995 173.542 227.348 165.436 219.946C160.05 215.101 155.154 208.516 155.1 208.461L154.828 208.08L155.209 207.917C155.263 207.917 159.126 206.066 159.126 203.454C159.126 203.236 159.071 202.909 159.017 202.637C157.711 199.916 152.543 185.71 152.543 180.757C152.543 180.539 152.543 180.267 152.597 180.104L152.652 179.777L156.46 179.723L162.444 196.215C162.498 196.378 162.607 196.378 162.662 196.378C162.716 196.378 162.825 196.378 162.879 196.215L163.369 195.017C163.478 194.745 163.75 194.473 164.131 194.527C164.457 194.582 164.783 194.8 164.838 195.181L165.382 197.63C165.436 197.956 165.708 198.174 165.98 198.174C166.252 198.174 166.524 198.12 166.687 197.793L167.721 195.507C167.884 195.181 168.211 194.963 168.591 194.963C168.918 195.017 169.299 195.235 169.353 195.616C169.734 197.575 170.931 201.875 173.161 208.026C177.296 218.476 185.402 226.042 191.44 230.559C198.023 235.458 203.68 237.907 203.735 237.961L207.325 239.268ZM156.133 208.352C157.276 209.876 161.519 215.265 165.98 219.401C174.032 226.695 181.485 230.341 186 232.464C190.787 234.696 197.043 236.383 200.743 237.254C198.458 236.056 195.031 234.043 191.277 231.267C185.184 226.695 176.969 218.966 172.672 208.352C170.441 202.147 169.244 197.848 168.863 195.834C168.863 195.834 168.863 195.779 168.809 195.779C168.755 195.779 168.755 195.779 168.755 195.834L167.721 198.12C167.503 198.718 166.851 199.099 166.143 198.991C165.491 198.936 164.947 198.446 164.838 197.793L164.294 195.398L163.913 196.541C163.75 196.922 163.314 197.249 162.879 197.194C162.498 197.194 162.063 196.922 161.846 196.487L156.025 180.485H153.522C153.522 180.539 153.522 180.594 153.522 180.703C153.522 185.547 158.582 199.644 159.833 202.311V202.365C159.942 202.692 159.996 203.073 159.996 203.454C160.05 205.957 157.276 207.754 156.133 208.352Z" fill="#323A50"/>
<path d="M293.715 163.721H292.899C292.899 122.083 259.007 88.1198 217.335 88.1198C193.507 88.1198 171.583 99.0599 157.112 118.001L156.568 117.62C163.532 108.422 172.562 100.693 182.79 95.4676C193.507 90.0247 205.149 87.2489 217.281 87.2489C227.617 87.2489 237.572 89.2628 246.984 93.1816C256.123 96.9916 264.175 102.543 271.247 109.51C278.265 116.531 283.759 124.696 287.567 133.84C291.702 143.419 293.715 153.325 293.715 163.721Z" fill="#323A50"/>
<path d="M152.923 147.828L156.078 147.882L161.627 131.227C161.845 130.628 162.661 130.628 162.878 131.227L162.933 131.282L163.314 132.37C163.422 132.697 163.966 132.642 164.021 132.316L164.51 130.03V129.921C164.728 128.832 166.197 128.723 166.578 129.758L167.611 132.044C167.775 132.425 168.373 132.37 168.482 131.989C168.971 129.921 170.059 125.675 172.29 119.525C180.45 99.0054 202.537 89.426 202.537 89.426C202.537 89.426 192.255 91.331 184.911 94.8689C180.233 97.046 172.834 100.638 164.837 107.986C159.451 112.885 155.317 119.852 155.317 119.852C155.317 119.852 159.723 121.811 158.69 125.294C157.547 127.798 152.488 143.528 152.923 147.828Z" fill="white"/>
<path d="M206.399 88.1742L203.026 89.6438C202.972 89.6438 197.423 92.093 190.949 96.9916C185.074 101.509 177.022 109.075 172.888 119.525C170.657 125.621 169.515 129.975 169.08 131.935C169.025 132.261 168.753 132.588 168.318 132.588C167.992 132.642 167.611 132.425 167.448 132.044L166.414 129.758C166.305 129.431 165.924 129.377 165.707 129.377C165.489 129.377 165.163 129.54 165.108 129.921L164.564 132.37C164.51 132.697 164.238 132.969 163.857 133.023C163.531 133.078 163.204 132.86 163.095 132.533L162.606 131.336C162.551 131.173 162.443 131.173 162.388 131.173C162.334 131.173 162.225 131.173 162.171 131.336L156.567 148.263L152.759 148.209L152.705 147.882C152.705 147.719 152.65 147.501 152.65 147.175C152.65 142.167 157.329 127.635 158.58 124.968C158.689 124.696 158.689 124.315 158.689 123.988C158.689 121.484 155.479 120.069 155.479 120.015L155.098 119.852L155.316 119.525C155.37 119.471 159.614 112.449 164.891 107.605C173.051 100.203 180.613 96.6106 185.074 94.4335C192.364 90.8956 202.645 88.9906 202.754 88.9362L206.399 88.1742ZM163.694 132.152L164.238 129.758C164.347 129.104 165.163 128.615 165.816 128.56C166.468 128.506 167.067 128.832 167.393 129.431L168.427 131.717C168.427 131.717 168.427 131.771 168.481 131.771C168.536 131.771 168.536 131.771 168.536 131.717C168.916 129.703 170.113 125.403 172.344 119.198C176.533 108.53 184.639 100.856 190.677 96.3385C194.322 93.617 197.641 91.5488 199.98 90.4058C196.389 91.2222 190.405 92.855 185.672 95.141C181.211 97.2638 173.649 100.856 165.652 108.204C161.083 112.286 157.329 118.055 156.404 119.579C157.383 120.124 159.559 121.648 159.559 124.097C159.559 124.424 159.451 124.968 159.342 125.349V125.403C158.091 128.016 153.738 142.331 153.738 147.284C153.738 147.392 153.738 147.447 153.738 147.501H156.241L161.409 131.064C161.572 130.683 162.007 130.356 162.443 130.356C162.823 130.356 163.259 130.574 163.422 131.064L163.694 132.152Z" fill="#323A50"/>
<path d="M166.578 139.01C161.029 139.01 158.092 150.059 158.092 163.612C158.092 177.165 160.975 188.214 166.578 188.214C172.127 188.214 178.22 177.165 178.22 163.612C178.22 150.059 172.073 139.01 166.578 139.01Z" fill="#DBDBDB"/>
<path d="M178.655 163.612C178.655 170.089 177.295 176.294 174.847 181.247C172.453 185.982 169.407 188.704 166.469 188.704C163.64 188.704 161.356 186.091 159.778 181.192C158.418 176.784 157.656 170.688 157.656 163.612C157.656 156.536 158.418 150.495 159.778 146.032C161.356 141.133 163.64 138.521 166.469 138.521C169.407 138.521 172.399 141.188 174.847 145.977C177.35 150.93 178.655 157.135 178.655 163.612ZM158.472 163.612C158.472 170.47 159.234 176.62 160.54 180.866C161.573 184.023 163.423 187.778 166.415 187.778C168.972 187.778 171.855 185.166 173.977 180.811C176.37 176.022 177.73 169.871 177.73 163.612C177.73 157.353 176.425 151.202 173.977 146.413C171.801 142.004 168.972 139.446 166.415 139.446C163.314 139.446 161.464 143.201 160.54 146.358C159.234 150.658 158.472 156.754 158.472 163.612Z" fill="#323A50"/>
<path d="M166.689 139.664C161.412 139.664 158.746 150.386 158.746 163.667C158.746 176.893 161.466 187.615 166.689 187.615C171.911 187.615 177.787 176.893 177.787 163.612C177.787 150.332 171.911 139.664 166.689 139.664Z" fill="#DBDBDB"/>
<path d="M177.786 163.612C177.786 169.871 176.535 175.913 174.195 180.594C172.019 185.111 169.245 187.669 166.579 187.669C164.022 187.669 161.901 185.22 160.595 180.594C159.289 176.294 158.582 170.361 158.582 163.612C158.582 156.809 159.289 150.93 160.595 146.63C162.064 141.95 164.131 139.555 166.579 139.555C169.19 139.555 172.019 142.113 174.141 146.63C176.535 151.311 177.786 157.462 177.786 163.612ZM158.8 163.612C158.8 178.09 161.901 187.506 166.633 187.506C171.693 187.506 177.623 177.056 177.623 163.612C177.623 150.168 171.747 139.718 166.633 139.718C161.901 139.772 158.8 149.134 158.8 163.612Z" fill="#323A50"/>
<path d="M166.794 140.915C162.279 140.915 159.939 151.148 159.939 163.667C159.939 176.24 162.333 186.418 166.794 186.418C171.201 186.418 176.314 176.185 176.314 163.667C176.314 151.148 171.309 140.915 166.794 140.915Z" fill="#DBDBDB"/>
<path d="M176.424 163.666C176.424 169.545 175.336 175.26 173.323 179.777C171.419 184.077 169.025 186.526 166.74 186.526C164.564 186.526 162.769 184.24 161.463 179.777C160.321 175.75 159.723 170.143 159.723 163.666C159.723 157.135 160.321 151.583 161.463 147.556C162.715 143.147 164.51 140.807 166.74 140.807C168.971 140.807 171.473 143.256 173.323 147.556C175.39 152.019 176.424 157.734 176.424 163.666ZM159.995 163.666C159.995 177.437 162.66 186.309 166.795 186.309C171.147 186.309 176.261 176.457 176.261 163.666C176.261 150.876 171.201 141.024 166.795 141.024C162.66 140.97 159.995 149.951 159.995 163.666Z" fill="#323A50"/>
<path d="M166.852 142.276C162.989 142.276 160.977 151.91 160.977 163.884C160.977 175.859 162.989 185.492 166.852 185.492C170.714 185.492 175.067 175.859 175.067 163.884C175.067 151.91 170.714 142.276 166.852 142.276Z" fill="#DBDBDB"/>
<path d="M175.175 163.775C175.175 169.381 174.195 174.824 172.509 179.015C170.877 183.043 168.81 185.383 166.851 185.383C164.947 185.383 163.369 183.206 162.336 179.015C161.357 175.151 160.812 169.871 160.812 163.775C160.812 157.679 161.357 152.4 162.336 148.535C163.424 144.399 164.947 142.167 166.851 142.167C168.81 142.167 170.877 144.453 172.509 148.535C174.25 152.781 175.175 158.224 175.175 163.775ZM161.03 163.775C161.03 176.784 163.261 185.275 166.851 185.275C170.605 185.275 174.957 175.913 174.957 163.775C174.957 151.638 170.605 142.276 166.851 142.276C163.315 142.331 161.03 150.767 161.03 163.775Z" fill="#323A50"/>
<path d="M166.795 143.691C163.695 143.691 162.062 152.727 162.062 163.776C162.062 174.879 163.695 183.86 166.795 183.86C169.896 183.86 173.704 174.825 173.704 163.776C173.704 152.727 169.896 143.691 166.795 143.691Z" fill="#DBDBDB"/>
<path d="M173.813 163.884C173.813 175.096 169.95 184.077 166.795 184.077C163.204 184.077 161.953 173.137 161.953 163.884C161.953 154.577 163.204 143.691 166.795 143.691C169.95 143.637 173.813 152.672 173.813 163.884ZM162.171 163.884C162.171 176.076 163.966 183.914 166.74 183.914C169.787 183.914 173.595 174.661 173.595 163.884C173.595 153.107 169.841 143.854 166.74 143.854C163.966 143.8 162.171 151.747 162.171 163.884Z" fill="#323A50"/>
<path d="M166.85 145.433C164.402 145.433 163.15 153.761 163.15 163.939C163.15 174.171 164.402 182.444 166.85 182.444C169.298 182.444 172.29 174.117 172.29 163.939C172.29 153.761 169.189 145.433 166.85 145.433Z" fill="#DBDBDB"/>
<path d="M172.344 163.939C172.344 174.226 169.352 182.499 166.849 182.499C164.021 182.499 163.096 172.919 163.096 163.939C163.096 154.904 164.129 145.379 166.849 145.379C169.243 145.324 172.344 153.652 172.344 163.939ZM163.259 163.939C163.259 174.933 164.728 182.281 166.849 182.281C169.243 182.281 172.181 173.79 172.181 163.939C172.181 154.087 169.243 145.596 166.849 145.596C164.728 145.542 163.259 152.89 163.259 163.939Z" fill="#323A50"/>
<path d="M167.013 147.392C165.218 147.392 164.348 154.849 164.348 163.993C164.348 173.137 165.218 180.594 167.013 180.594C168.809 180.594 170.93 173.137 170.93 163.993C170.93 154.849 168.809 147.392 167.013 147.392Z" fill="#DBDBDB"/>
<path d="M171.039 164.047C171.039 173.3 168.863 180.757 167.013 180.757C165 180.757 164.293 172.103 164.293 164.047C164.293 155.992 165 147.338 167.013 147.338C168.863 147.284 171.039 154.74 171.039 164.047ZM164.456 164.047C164.456 173.899 165.49 180.539 167.013 180.539C168.536 180.539 170.821 173.627 170.821 164.047C170.821 154.522 168.591 147.556 167.013 147.556C165.49 147.501 164.456 154.141 164.456 164.047Z" fill="#323A50"/>
<path d="M141.117 164.211C141.117 148.753 146.829 136.18 153.847 136.18C155.806 136.18 154.174 134.819 155.806 136.561C156.132 136.942 158.58 136.67 159.94 136.833C161.463 137.051 162.116 137.051 163.966 137.432C165.816 137.759 167.665 138.575 167.012 138.575C163.041 138.521 161.681 141.677 161.627 141.95C161.463 142.657 155.534 154.686 155.534 163.721C155.534 173.3 160.049 187.071 165.271 188.431C165.598 188.54 166.632 188.812 168.372 188.268C167.121 188.976 160.811 191.044 160.484 191.098C157.873 191.479 157.166 191.044 155.697 191.534C155.044 191.752 154.5 192.187 153.847 192.187C146.775 192.241 141.117 179.668 141.117 164.211Z" fill="#293C4F"/>
<path d="M144.165 163.939C144.165 150.005 148.517 138.466 154.121 136.833C153.631 136.724 153.25 136.67 152.761 136.67C146.504 136.67 141.391 148.916 141.391 163.939C141.391 179.015 146.45 191.207 152.761 191.207C153.25 191.207 153.685 191.098 154.121 191.044C148.517 189.411 144.165 177.927 144.165 163.939Z" fill="#DBDBDB"/>
<path d="M155.208 136.996L154.283 137.541C148.843 139.119 144.763 150.549 144.763 163.993C144.763 177.437 148.843 188.921 154.283 190.445L155.045 190.5L154.283 191.806C153.739 191.969 153.249 191.969 152.76 191.969C149.55 191.969 146.503 189.03 144.219 183.587C141.988 178.308 140.846 171.341 140.846 163.993C140.846 156.536 142.043 149.624 144.219 144.399C146.449 139.01 149.496 136.017 152.76 136.017C153.249 136.017 154.446 135.799 155.045 135.908L155.208 136.996ZM141.988 163.939C141.988 177.763 146.231 189.139 151.672 190.445C146.939 186.799 143.566 176.131 143.566 163.939C143.566 151.692 146.939 141.079 151.672 137.432C146.286 138.684 141.988 150.059 141.988 163.939Z" fill="#323A50"/>
<path d="M113.917 127.091L118.922 130.411L124.525 134.602H5.60352V127.199L113.917 127.091Z" fill="#00FF30"/>
<path d="M107.605 132.642L114.134 127.199L256.013 202.801L254.816 203.182L107.605 132.642Z" fill="#00FF30"/>
<path d="M246.385 216.843C247.166 216.843 247.8 216.21 247.8 215.428C247.8 214.647 247.166 214.013 246.385 214.013C245.604 214.013 244.971 214.647 244.971 215.428C244.971 216.21 245.604 216.843 246.385 216.843Z" fill="#00FF30"/>
<path d="M242.25 215.374C243.032 215.374 243.665 214.74 243.665 213.958C243.665 213.177 243.032 212.543 242.25 212.543C241.469 212.543 240.836 213.177 240.836 213.958C240.836 214.74 241.469 215.374 242.25 215.374Z" fill="#00FF30"/>
<path d="M240.998 219.891C241.78 219.891 242.413 219.258 242.413 218.476C242.413 217.694 241.78 217.061 240.998 217.061C240.217 217.061 239.584 217.694 239.584 218.476C239.584 219.258 240.217 219.891 240.998 219.891Z" fill="#00FF30"/>
<path d="M236.973 217.768C237.754 217.768 238.387 217.135 238.387 216.353C238.387 215.572 237.754 214.938 236.973 214.938C236.192 214.938 235.559 215.572 235.559 216.353C235.559 217.135 236.192 217.768 236.973 217.768Z" fill="#00FF30"/>
<path d="M235.233 221.905C235.984 221.905 236.593 221.296 236.593 220.544C236.593 219.793 235.984 219.184 235.233 219.184C234.482 219.184 233.873 219.793 233.873 220.544C233.873 221.296 234.482 221.905 235.233 221.905Z" fill="#00FF30"/>
<path d="M231.589 220C232.34 220 232.949 219.391 232.949 218.639C232.949 217.888 232.34 217.279 231.589 217.279C230.837 217.279 230.229 217.888 230.229 218.639C230.229 219.391 230.837 220 231.589 220Z" fill="#00FF30"/>
<path d="M230.064 223.266C230.725 223.266 231.261 222.73 231.261 222.068C231.261 221.407 230.725 220.871 230.064 220.871C229.403 220.871 228.867 221.407 228.867 222.068C228.867 222.73 229.403 223.266 230.064 223.266Z" fill="#00FF30"/>
<path d="M227.019 221.361C227.68 221.361 228.216 220.825 228.216 220.163C228.216 219.502 227.68 218.966 227.019 218.966C226.358 218.966 225.822 219.502 225.822 220.163C225.822 220.825 226.358 221.361 227.019 221.361Z" fill="#00FF30"/>
<path d="M224.897 224.028C225.498 224.028 225.985 223.54 225.985 222.939C225.985 222.338 225.498 221.851 224.897 221.851C224.296 221.851 223.809 222.338 223.809 222.939C223.809 223.54 224.296 224.028 224.897 224.028Z" fill="#00FF30"/>
<path d="M222.502 222.014C223.103 222.014 223.59 221.526 223.59 220.925C223.59 220.324 223.103 219.837 222.502 219.837C221.901 219.837 221.414 220.324 221.414 220.925C221.414 221.526 221.901 222.014 222.502 222.014Z" fill="#00FF30"/>
<path d="M220.436 224.463C221.007 224.463 221.47 224 221.47 223.429C221.47 222.858 221.007 222.395 220.436 222.395C219.865 222.395 219.402 222.858 219.402 223.429C219.402 224 219.865 224.463 220.436 224.463Z" fill="#00FF30"/>
<path d="M218.478 222.014C218.988 222.014 219.402 221.6 219.402 221.089C219.402 220.578 218.988 220.163 218.478 220.163C217.967 220.163 217.553 220.578 217.553 221.089C217.553 221.6 217.967 222.014 218.478 222.014Z" fill="#00FF30"/>
<path d="M246.439 212.217C247.281 212.217 247.962 211.534 247.962 210.693C247.962 209.851 247.281 209.169 246.439 209.169C245.598 209.169 244.916 209.851 244.916 210.693C244.916 211.534 245.598 212.217 246.439 212.217Z" fill="#00FF30"/>
<path d="M251.282 213.795C252.214 213.795 252.969 213.04 252.969 212.108C252.969 211.176 252.214 210.421 251.282 210.421C250.351 210.421 249.596 211.176 249.596 212.108C249.596 213.04 250.351 213.795 251.282 213.795Z" fill="#00FF30"/>
<path d="M250.03 208.352C250.991 208.352 251.771 207.573 251.771 206.611C251.771 205.649 250.991 204.869 250.03 204.869C249.068 204.869 248.289 205.649 248.289 206.611C248.289 207.573 249.068 208.352 250.03 208.352Z" fill="#00FF30"/>
<path d="M255.362 210.04C256.353 210.04 257.157 209.235 257.157 208.243C257.157 207.251 256.353 206.447 255.362 206.447C254.37 206.447 253.566 207.251 253.566 208.243C253.566 209.235 254.37 210.04 255.362 210.04Z" fill="#00FF30"/>
<path d="M216.464 224.3C216.945 224.3 217.335 223.91 217.335 223.429C217.335 222.948 216.945 222.558 216.464 222.558C215.983 222.558 215.594 222.948 215.594 223.429C215.594 223.91 215.983 224.3 216.464 224.3Z" fill="#00FF30"/>
<path d="M214.56 222.123C215.011 222.123 215.376 221.757 215.376 221.306C215.376 220.855 215.011 220.49 214.56 220.49C214.109 220.49 213.744 220.855 213.744 221.306C213.744 221.757 214.109 222.123 214.56 222.123Z" fill="#00FF30"/>
<path d="M100.371 125.948H5.27734V135.962H100.371V125.948Z" fill="url(#paint3_linear_3748_13372)"/>
<path d="M263.903 202.039C264.684 202.039 265.317 201.405 265.317 200.624C265.317 199.842 264.684 199.208 263.903 199.208C263.122 199.208 262.488 199.842 262.488 200.624C262.488 201.405 263.122 202.039 263.903 202.039Z" fill="#00FF30"/>
<path d="M263.141 197.739C263.922 197.739 264.555 197.105 264.555 196.324C264.555 195.542 263.922 194.908 263.141 194.908C262.36 194.908 261.727 195.542 261.727 196.324C261.727 197.105 262.36 197.739 263.141 197.739Z" fill="#00FF30"/>
<path d="M267.819 197.249C268.6 197.249 269.233 196.615 269.233 195.834C269.233 195.052 268.6 194.419 267.819 194.419C267.038 194.419 266.404 195.052 266.404 195.834C266.404 196.615 267.038 197.249 267.819 197.249Z" fill="#00FF30"/>
<path d="M266.405 192.949C267.186 192.949 267.819 192.315 267.819 191.534C267.819 190.752 267.186 190.119 266.405 190.119C265.624 190.119 264.99 190.752 264.99 191.534C264.99 192.315 265.624 192.949 266.405 192.949Z" fill="#00FF30"/>
<path d="M270.811 191.86C271.562 191.86 272.171 191.251 272.171 190.5C272.171 189.748 271.562 189.139 270.811 189.139C270.06 189.139 269.451 189.748 269.451 190.5C269.451 191.251 270.06 191.86 270.811 191.86Z" fill="#00FF30"/>
<path d="M269.561 187.942C270.312 187.942 270.921 187.332 270.921 186.581C270.921 185.829 270.312 185.22 269.561 185.22C268.81 185.22 268.201 185.829 268.201 186.581C268.201 187.332 268.81 187.942 269.561 187.942Z" fill="#00FF30"/>
<path d="M273.205 186.907C273.866 186.907 274.401 186.371 274.401 185.71C274.401 185.049 273.866 184.513 273.205 184.513C272.544 184.513 272.008 185.049 272.008 185.71C272.008 186.371 272.544 186.907 273.205 186.907Z" fill="#00FF30"/>
<path d="M271.845 183.533C272.506 183.533 273.042 182.997 273.042 182.335C273.042 181.674 272.506 181.138 271.845 181.138C271.184 181.138 270.648 181.674 270.648 182.335C270.648 182.997 271.184 183.533 271.845 183.533Z" fill="#00FF30"/>
<path d="M274.945 181.846C275.546 181.846 276.033 181.358 276.033 180.757C276.033 180.156 275.546 179.668 274.945 179.668C274.345 179.668 273.857 180.156 273.857 180.757C273.857 181.358 274.345 181.846 274.945 181.846Z" fill="#00FF30"/>
<path d="M273.369 179.124C273.97 179.124 274.457 178.637 274.457 178.036C274.457 177.434 273.97 176.947 273.369 176.947C272.768 176.947 272.281 177.434 272.281 178.036C272.281 178.637 272.768 179.124 273.369 179.124Z" fill="#00FF30"/>
<path d="M276.143 177.437C276.714 177.437 277.177 176.974 277.177 176.403C277.177 175.832 276.714 175.369 276.143 175.369C275.572 175.369 275.109 175.832 275.109 176.403C275.109 176.974 275.572 177.437 276.143 177.437Z" fill="#00FF30"/>
<path d="M274.185 175.042C274.695 175.042 275.109 174.628 275.109 174.117C275.109 173.606 274.695 173.192 274.185 173.192C273.674 173.192 273.26 173.606 273.26 174.117C273.26 174.628 273.674 175.042 274.185 175.042Z" fill="#00FF30"/>
<path d="M259.224 201.44C260.066 201.44 260.748 200.758 260.748 199.916C260.748 199.074 260.066 198.392 259.224 198.392C258.383 198.392 257.701 199.074 257.701 199.916C257.701 200.758 258.383 201.44 259.224 201.44Z" fill="#00FF30"/>
<path d="M259.768 206.556C260.7 206.556 261.455 205.801 261.455 204.869C261.455 203.937 260.7 203.182 259.768 203.182C258.837 203.182 258.082 203.937 258.082 204.869C258.082 205.801 258.837 206.556 259.768 206.556Z" fill="#00FF30"/>
<path d="M254.546 204.488C255.507 204.488 256.286 203.708 256.286 202.746C256.286 201.784 255.507 201.004 254.546 201.004C253.584 201.004 252.805 201.784 252.805 202.746C252.805 203.708 253.584 204.488 254.546 204.488Z" fill="#00FF30"/>
<path d="M255.252 210.094C256.244 210.094 257.048 209.29 257.048 208.298C257.048 207.306 256.244 206.502 255.252 206.502C254.261 206.502 253.457 207.306 253.457 208.298C253.457 209.29 254.261 210.094 255.252 210.094Z" fill="#00FF30"/>
<path d="M276.796 173.409C277.277 173.409 277.667 173.019 277.667 172.538C277.667 172.057 277.277 171.667 276.796 171.667C276.315 171.667 275.926 172.057 275.926 172.538C275.926 173.019 276.315 173.409 276.796 173.409Z" fill="#00FF30"/>
<path d="M275.109 171.069C275.56 171.069 275.925 170.703 275.925 170.252C275.925 169.801 275.56 169.436 275.109 169.436C274.658 169.436 274.293 169.801 274.293 170.252C274.293 170.703 274.658 171.069 275.109 171.069Z" fill="#00FF30"/>
</g>
<defs>
<linearGradient id="paint0_linear_3748_13372" x1="200.095" y1="151.243" x2="65.3226" y2="185.873" gradientUnits="userSpaceOnUse">
<stop offset="0.2655" stop-color="#032A3D" stop-opacity="0"/>
<stop offset="0.7809" stop-color="#032A3D"/>
</linearGradient>
<radialGradient id="paint1_radial_3748_13372" cx="0" cy="0" r="1" gradientUnits="userSpaceOnUse" gradientTransform="translate(217.448 163.899) rotate(-90) scale(67.9344 67.5592)">
<stop offset="0.4054" stop-color="#032A3D" stop-opacity="0"/>
<stop offset="1" stop-color="#032A3D"/>
</radialGradient>
<linearGradient id="paint2_linear_3748_13372" x1="173.712" y1="141.577" x2="125.048" y2="188.168" gradientUnits="userSpaceOnUse">
<stop offset="0.3301" stop-color="#C4FFFF"/>
<stop offset="0.8279" stop-color="#47B4FF"/>
<stop offset="1" stop-color="#0C37A6"/>
</linearGradient>
<linearGradient id="paint3_linear_3748_13372" x1="77.0702" y1="135.183" x2="8.76321" y2="123.331" gradientUnits="userSpaceOnUse">
<stop offset="0.3715" stop-color="white" stop-opacity="0"/>
<stop offset="0.7103" stop-color="#FFFCFF"/>
</linearGradient>
<clipPath id="clip0_3748_13372">
<rect width="330" height="330" fill="white"/>
</clipPath>
</defs>
</svg>
