<svg width="330" height="330" viewBox="0 0 330 330" fill="none" xmlns="http://www.w3.org/2000/svg">
<g clip-path="url(#clip0_3562_7992)">
<path d="M220.462 146.956C214.142 140.415 214.087 140.526 211.204 137.255C205.938 131.268 190.029 111.367 166.136 111.146H165.859C141.856 111.367 126.057 131.213 120.791 137.255C117.798 140.637 117.853 140.526 110.868 147.732C94.0165 162.866 83.4285 184.762 83.4285 209.209C83.4285 244.687 105.824 275.009 137.255 286.706C137.255 286.761 137.588 286.872 137.588 286.927C139.639 287.759 146.346 290.032 152.167 290.808C156.491 291.473 161.535 291.861 166.081 291.861C211.759 291.861 248.733 254.886 248.733 209.209C248.678 184.374 237.757 162.09 220.462 146.956Z" fill="#DBDBDB"/>
<path d="M166.026 292.305C161.314 292.305 156.214 291.917 152.056 291.252C146.18 290.476 139.473 288.258 137.366 287.371L137.144 287.26V287.205C137.089 287.205 137.033 287.15 136.978 287.094C121.29 281.218 107.93 270.852 98.174 257.215C88.1959 243.135 82.985 226.615 82.985 209.32C82.985 197.291 85.4796 185.705 90.4687 174.951C95.236 164.474 102.054 155.271 110.647 147.622C111.7 146.568 112.587 145.626 113.363 144.85C117.687 140.415 118.019 140.027 120.514 137.2C120.791 136.867 121.124 136.535 121.512 136.091C124.45 132.71 129.993 126.335 137.477 120.958C146.624 114.416 156.214 111.035 165.97 110.979H166.247C176.059 111.035 185.649 114.416 194.74 120.958C202.224 126.335 207.712 132.654 210.706 136.091C211.038 136.479 211.371 136.867 211.703 137.2C213.588 139.362 214.309 140.027 216.304 142.134C217.358 143.187 218.799 144.628 220.905 146.845C229.775 154.551 236.704 163.864 241.638 174.452C246.738 185.428 249.343 197.18 249.343 209.375C249.343 220.573 247.126 231.494 242.802 241.693C238.589 251.616 232.602 260.486 224.952 268.136C217.302 275.785 208.433 281.772 198.51 285.985C188.088 290.143 177.223 292.305 166.026 292.305ZM137.754 286.651C139.639 287.427 146.346 289.699 152.167 290.476C156.269 291.141 161.369 291.529 166.026 291.529C211.371 291.529 248.29 254.61 248.29 209.264C248.29 185.539 238.035 162.977 220.185 147.344C218.023 145.127 216.582 143.686 215.584 142.632C213.533 140.526 212.812 139.805 210.927 137.643C210.65 137.311 210.317 136.923 209.929 136.535C204.109 129.772 188.532 111.866 166.136 111.7H165.859C143.353 111.866 127.887 129.772 122.066 136.535C121.734 136.923 121.401 137.311 121.068 137.643C118.574 140.526 118.186 140.859 113.862 145.349C113.086 146.125 112.199 147.067 111.146 148.176C93.7947 163.697 83.8166 186.037 83.8166 209.32C83.8166 243.467 105.38 274.51 137.366 286.429L137.588 286.484V286.54C137.588 286.54 137.643 286.595 137.754 286.651Z" fill="#323A50"/>
<path d="M166.026 292.693C154.772 292.693 143.852 290.476 133.652 286.152C123.729 281.939 114.804 275.952 107.154 268.302C99.5044 260.652 93.4621 251.727 89.3045 241.804C84.9252 231.549 82.7633 220.629 82.7633 209.431C82.7633 197.346 85.2578 185.76 90.2469 174.951C95.0697 164.474 101.833 155.216 110.48 147.511C117.077 140.692 117.354 140.36 119.96 137.422L120.403 136.978C120.736 136.646 121.068 136.202 121.456 135.759C124.616 132.1 129.938 125.947 137.421 120.57C146.568 113.973 156.158 110.592 165.915 110.536H166.192C176.004 110.592 185.594 113.973 194.685 120.57C202.169 125.947 207.49 132.1 210.65 135.759C211.038 136.202 211.371 136.59 211.703 136.978C214.586 140.193 214.586 140.304 220.905 146.79C229.775 154.551 236.76 163.864 241.693 174.452C246.793 185.483 249.399 197.291 249.399 209.431C249.399 220.684 247.181 231.605 242.857 241.804C238.644 251.727 232.657 260.652 225.008 268.302C217.358 275.952 208.433 281.994 198.51 286.152C188.144 290.476 177.279 292.693 166.026 292.693ZM166.081 111.7H165.804C143.519 111.867 128.053 129.772 122.232 136.535C121.844 136.978 121.512 137.366 121.179 137.754L120.736 138.198C118.186 141.08 117.853 141.468 111.201 148.342H111.146C93.8502 163.919 83.9274 186.148 83.9274 209.431C83.9274 254.665 120.736 291.473 165.97 291.473C211.204 291.473 248.013 254.665 248.013 209.431C248.013 185.76 237.757 163.254 219.963 147.622L219.908 147.566C213.588 141.025 213.477 140.97 210.65 137.699C210.317 137.311 209.985 136.923 209.597 136.479C203.832 129.772 188.31 111.867 166.081 111.7Z" fill="#323A50"/>
<path opacity="0.83" d="M209.985 147.566C212.036 145.404 212.646 143.353 209.597 139.916C204.497 134.096 189.142 114.694 165.97 114.527H165.748C142.521 114.749 127.277 134.096 122.122 139.916C119.073 143.353 120.68 145.848 121.346 147.344C123.286 151.059 126.168 151.724 127 151.225C132.432 147.899 135.149 139.251 141.302 137.2C141.524 137.145 150.393 132.932 165.249 132.821C165.305 132.821 175.338 132.765 184.818 135.703C193.632 138.087 199.12 147.455 204.608 150.781C206.271 151.835 208.377 149.285 209.985 147.566Z" fill="url(#paint0_linear_3562_7992)"/>
<path d="M165.748 284.876C123.785 284.876 89.748 250.895 89.748 208.876C89.748 184.152 101.556 162.256 119.793 148.342" fill="#DBDBDB"/>
<path d="M165.693 285.32C155.327 285.32 145.404 283.324 135.98 279.333C126.889 275.508 118.74 269.964 111.7 262.924C104.66 255.884 99.1719 247.735 95.2915 238.644C91.3002 229.22 89.3046 219.187 89.3046 208.931C89.3046 196.791 92.0763 185.15 97.5643 174.451C102.775 164.196 110.37 155.049 119.572 148.064L120.071 148.73C101.057 163.143 90.1915 185.095 90.1915 208.931C90.1915 250.562 124.062 284.544 165.748 284.544L165.693 285.32Z" fill="#323A50"/>
<path d="M165.748 278.557C204.232 278.557 235.429 247.36 235.429 208.876C235.429 170.392 204.232 139.195 165.748 139.195C127.265 139.195 96.0675 170.392 96.0675 208.876C96.0675 247.36 127.265 278.557 165.748 278.557Z" fill="#DBDBDB"/>
<path d="M165.748 278.889C147.067 278.889 129.494 271.627 116.246 258.379C102.997 245.13 95.7349 227.613 95.7349 208.876C95.7349 190.139 102.997 172.622 116.246 159.373C129.494 146.124 147.012 138.862 165.748 138.862C184.485 138.862 202.002 146.124 215.251 159.373C228.5 172.622 235.762 190.139 235.762 208.876C235.762 227.613 228.5 245.13 215.251 258.379C202.002 271.627 184.485 278.889 165.748 278.889ZM165.748 139.583C127.499 139.583 96.3446 170.682 96.3446 208.987C96.3446 247.292 127.443 278.39 165.748 278.39C204.053 278.39 235.152 247.236 235.152 208.931C235.152 170.626 203.998 139.583 165.748 139.583Z" fill="#323A50"/>
<g opacity="0.1">
<path d="M226.338 236.705L225.895 236.65C225.562 239.033 218.744 242.248 217.247 242.47C216.637 242.581 216.304 242.415 215.916 242.248C215.417 242.027 214.919 241.805 213.976 242.415C212.424 243.357 207.102 249.178 205.938 252.005C204.774 254.887 204.053 256.384 201.337 257.493C199.896 258.047 197.679 258.047 195.295 258.103C193.133 258.103 190.916 258.103 189.197 258.546C186.592 259.211 184.097 260.431 182.933 261.041C183.598 260.32 184.208 259.599 184.762 258.879C185.816 257.604 186.758 256.495 187.368 256.107C188.144 255.553 190.916 255.275 193.854 254.943C197.845 254.499 202.335 254.001 203.721 252.726C205.273 251.229 207.546 245.63 209.32 241.084C210.262 238.701 211.094 236.594 211.593 235.763C212.091 234.876 213.588 233.878 215.196 232.825C217.857 231.051 220.961 229 220.905 226.561H220.462C220.517 228.778 217.579 230.718 214.974 232.437C213.256 233.601 211.759 234.543 211.204 235.541C210.706 236.428 209.874 238.479 208.932 240.918C207.158 245.408 204.94 250.952 203.444 252.393C202.889 252.892 201.892 253.28 200.561 253.557C201.393 253.058 202.446 252.393 203.167 251.451C204.497 249.843 205.55 245.907 206.16 243.801C206.271 243.413 206.326 243.135 206.382 242.914C206.603 242.248 206.326 241.86 206.105 241.472C205.827 241.029 205.495 240.53 205.717 239.366C205.938 238.091 206.659 237.537 207.49 236.982C208.045 236.594 208.544 236.206 208.932 235.596C209.93 233.989 209.32 232.381 208.987 231.494V231.439C208.765 230.829 208.211 230.884 207.823 230.94C207.435 230.995 207.213 230.995 207.047 230.718C206.881 230.496 207.269 229.997 207.601 229.554C208.1 228.833 208.655 228.057 208.266 227.281L207.823 227.503C208.045 228.002 207.601 228.667 207.158 229.277C206.714 229.887 206.326 230.496 206.603 230.995C206.936 231.494 207.435 231.439 207.823 231.383C208.266 231.328 208.433 231.328 208.488 231.605V231.661C208.821 232.492 209.32 233.933 208.488 235.319C208.156 235.873 207.657 236.262 207.158 236.594C206.326 237.204 205.495 237.814 205.218 239.255C204.996 240.585 205.384 241.195 205.661 241.694C205.883 242.082 206.049 242.304 205.883 242.747C205.827 242.969 205.717 243.246 205.661 243.634C205.107 245.519 204.053 249.51 202.778 251.118C201.393 252.892 198.898 253.779 198.676 253.89C197.124 254.111 195.406 254.333 193.798 254.499C190.694 254.832 187.978 255.109 187.091 255.774C186.425 256.218 185.483 257.382 184.43 258.657C182.268 261.152 179.385 264.588 177.39 264.478C176.336 264.422 175.228 264.145 174.008 263.923C171.624 263.424 168.908 262.87 165.97 263.424C159.928 264.588 157.877 265.753 156.657 267.138C155.493 268.524 154.883 270.243 154.883 270.354L155.327 270.52C155.327 270.52 155.937 268.746 157.045 267.471C158.209 266.141 160.15 265.032 166.081 263.868C168.908 263.313 171.569 263.868 173.953 264.367C175.172 264.588 176.336 264.866 177.39 264.921C178.886 265.032 180.66 263.535 182.379 261.706L182.434 261.872C182.49 261.872 185.816 259.987 189.308 259.045C190.971 258.602 193.188 258.602 195.295 258.602C197.679 258.602 199.951 258.602 201.503 257.992C204.386 256.828 205.162 255.165 206.382 252.282C207.49 249.566 212.757 243.801 214.198 242.914C214.919 242.47 215.251 242.581 215.75 242.803C216.138 242.969 216.582 243.135 217.302 243.025C218.91 242.692 226.005 239.366 226.338 236.705Z" fill="#323A50"/>
<path d="M170.627 247.68C169.851 248.512 169.961 249.898 170.072 251.505C170.239 253.057 170.35 254.776 169.684 256.162C168.354 258.933 162.256 261.095 162.201 261.151L162.367 261.594C162.644 261.539 168.631 259.377 170.072 256.383C170.793 254.831 170.627 253.057 170.516 251.45C170.35 249.953 170.294 248.678 170.904 248.013C171.569 247.348 174.119 246.738 176.392 246.239C178.997 245.629 181.215 245.13 181.769 244.41C182.323 243.744 182.379 243.024 182.49 242.469C182.6 241.86 182.656 241.305 183.266 240.917C183.598 240.696 185.095 240.806 186.703 240.917C191.248 241.194 198.122 241.582 200.561 238.146C202.501 235.429 201.836 233.489 201.282 231.715C200.838 230.329 200.395 229.11 201.282 227.613C201.947 226.449 203.167 226.061 204.552 225.617C207.213 224.786 210.484 223.733 212.59 216.914C213.089 215.307 212.812 213.699 212.59 212.091C212.258 209.985 211.981 207.989 213.2 206.16L212.812 205.883C211.426 207.878 211.814 210.096 212.147 212.147C212.369 213.754 212.646 215.251 212.147 216.748C210.096 223.289 206.936 224.342 204.442 225.174C203 225.617 201.725 226.061 200.949 227.391C200.007 229.054 200.45 230.496 200.949 231.881C201.504 233.6 202.113 235.374 200.284 237.868C197.956 241.084 190.971 240.64 186.813 240.418C185.206 240.363 184.208 240.252 183.598 240.363C183.875 239.753 184.042 238.811 184.208 237.757C184.541 235.984 184.873 233.933 185.871 232.824C186.37 232.269 187.146 232.048 188.088 231.771C190.417 231.105 193.576 230.163 196.126 223.677V223.622C196.57 221.349 196.071 219.797 195.517 218.854C195.295 218.411 194.851 218.189 194.353 218.023C193.798 217.801 193.188 217.469 192.745 216.803C191.913 215.584 191.581 208.655 191.858 207.324C191.858 207.213 191.913 207.158 191.913 207.158C191.969 207.102 192.246 207.213 192.468 207.324C193.188 207.601 194.408 208.045 195.905 206.936L195.628 206.548C194.353 207.49 193.355 207.102 192.634 206.881C192.246 206.714 191.969 206.659 191.692 206.77C191.525 206.825 191.47 206.992 191.359 207.213C191.082 208.488 191.359 215.584 192.301 217.025C192.856 217.801 193.521 218.134 194.075 218.411C194.519 218.633 194.851 218.799 195.018 219.076C195.517 219.908 196.016 221.404 195.572 223.511C193.133 229.775 190.084 230.662 187.867 231.327C186.869 231.604 186.037 231.881 185.428 232.491C184.319 233.711 183.931 235.817 183.598 237.647C183.377 238.866 183.21 240.03 182.822 240.529C182.157 241.028 182.046 241.638 181.935 242.303C181.824 242.857 181.769 243.467 181.27 244.077C180.827 244.687 178.332 245.241 176.17 245.74C173.842 246.35 171.403 246.904 170.627 247.68Z" fill="#323A50"/>
<path d="M171.347 201.116C171.957 201.726 172.401 202.224 172.123 203.666C171.902 204.608 171.403 205.994 170.848 207.38C169.851 209.93 168.853 212.591 169.296 213.81C169.518 214.42 169.906 214.808 170.239 215.196C170.959 216.028 171.735 216.97 171.347 219.575C171.015 221.737 169.906 223.345 168.964 224.675C168.188 225.839 167.467 226.837 167.578 227.835C167.633 228.611 168.077 229.11 168.52 229.609C169.241 230.551 170.017 231.438 169.019 233.822C168.243 235.651 167.19 236.095 166.358 236.483C165.416 236.871 164.64 237.259 164.917 238.977C165.194 240.807 166.358 242.026 167.522 243.19C168.354 244.022 169.185 244.909 169.74 246.018L170.128 245.796C169.573 244.576 168.686 243.689 167.855 242.802C166.746 241.638 165.638 240.585 165.416 238.867C165.194 237.481 165.693 237.259 166.58 236.871C167.467 236.483 168.686 235.929 169.518 233.988C170.627 231.383 169.74 230.274 168.964 229.332C168.576 228.833 168.188 228.389 168.132 227.78C168.077 227.004 168.686 226.117 169.407 224.953C170.349 223.567 171.514 221.904 171.846 219.631C172.29 216.748 171.403 215.75 170.627 214.863C170.294 214.475 169.961 214.087 169.795 213.589C169.407 212.535 170.405 209.874 171.347 207.546C171.902 206.105 172.456 204.719 172.622 203.721C172.955 202.058 172.401 201.448 171.735 200.728C171.292 200.284 170.848 199.785 170.682 198.898L170.239 199.009C170.349 200.063 170.904 200.617 171.347 201.116Z" fill="#323A50"/>
<path d="M173.676 264.865C172.068 264.089 168.077 263.756 165.638 264.2C163.254 264.588 159.096 265.585 157.489 267.304C156.546 268.302 155.715 270.242 155.715 270.353L156.158 270.519C156.158 270.519 156.99 268.579 157.877 267.637C159.429 265.918 163.919 264.976 165.748 264.643C168.354 264.2 172.123 264.643 173.509 265.308C175.006 266.029 175.505 267.082 175.56 267.637C175.782 269.3 173.066 270.741 173.01 270.741L173.232 271.184C173.343 271.129 176.281 269.577 176.004 267.581C175.893 266.75 175.228 265.585 173.676 264.865Z" fill="#323A50"/>
<path d="M174.895 236.317C175.727 236.649 176.558 236.982 177.057 237.758C177.667 238.645 178.997 240.918 177.279 242.969C176.558 243.8 174.784 244.466 173.066 245.075C171.403 245.685 169.795 246.295 169.296 247.071C168.742 247.902 168.853 249.288 168.964 250.951C169.074 252.393 169.185 253.945 168.797 255.164C168.132 257.603 161.979 260.486 161.923 260.541L162.145 260.985C162.422 260.874 168.465 257.992 169.241 255.331C169.629 254.056 169.463 252.448 169.407 250.951C169.296 249.455 169.185 248.069 169.629 247.348C170.072 246.683 171.624 246.129 173.177 245.574C174.95 244.909 176.78 244.299 177.556 243.357C178.942 241.749 178.831 239.643 177.39 237.592C176.78 236.76 175.837 236.372 175.006 236.04C174.174 235.707 173.398 235.374 173.01 234.654C172.29 233.102 172.844 231.439 173.786 230.773C174.008 230.607 174.285 230.441 174.562 230.33C175.394 229.831 176.281 229.332 177.334 228.168C178.775 226.616 181.381 220.407 181.88 217.414C182.157 215.64 181.658 214.864 181.159 214.032C180.771 213.367 180.328 212.702 180.217 211.427L179.773 211.482C179.884 212.868 180.383 213.589 180.771 214.254C181.27 215.03 181.713 215.695 181.436 217.303C180.937 220.241 178.387 226.339 177.002 227.835C176.004 228.944 175.117 229.443 174.341 229.942C174.064 230.108 173.786 230.274 173.565 230.441C172.456 231.161 171.791 233.157 172.622 234.875C173.066 235.596 174.008 235.984 174.895 236.317Z" fill="#323A50"/>
</g>
<g opacity="0.1">
<path d="M154.772 263.036C154.551 261.816 153.165 260.818 151.723 259.82C150.615 259.044 148.896 258.102 147.4 257.27C146.069 256.55 144.96 255.885 144.517 255.552C144.406 255.497 144.295 255.33 144.184 255.164C143.464 254 142.909 251.284 143.076 249.122C143.131 247.902 143.02 246.904 142.965 246.128C142.854 245.297 142.799 244.687 143.02 244.188C143.187 243.8 143.464 243.744 143.963 243.634C144.462 243.578 145.071 243.467 145.349 242.691C145.57 242.026 145.515 241.305 145.404 240.64C145.293 239.975 145.182 239.31 145.515 238.866C145.792 238.478 146.125 238.367 146.513 238.201C146.956 238.035 147.4 237.868 147.788 237.259C148.12 236.704 147.677 236.039 147.067 235.152C146.18 233.877 145.016 232.159 145.515 229.997C146.069 227.669 146.79 227.779 147.788 227.946C148.287 228.001 148.841 228.112 149.395 227.89C150.338 227.502 151.225 225.507 152.111 223.345C152.777 221.682 153.497 219.963 154.163 219.52C154.828 218.965 155.493 218.854 156.047 218.744C156.657 218.633 157.156 218.522 157.599 217.968C158.098 217.358 157.821 216.415 157.599 215.639C157.433 215.196 157.322 214.697 157.433 214.475L157.045 214.253C156.823 214.641 156.99 215.196 157.211 215.806C157.433 216.471 157.655 217.247 157.267 217.69C156.934 218.078 156.546 218.189 155.992 218.3C155.438 218.411 154.717 218.522 153.941 219.132C153.22 219.686 152.5 221.349 151.779 223.178C151.003 225.063 150.116 227.225 149.34 227.502C148.896 227.669 148.397 227.613 147.954 227.558C146.901 227.391 145.847 227.225 145.182 229.997C144.628 232.38 145.903 234.21 146.79 235.485C147.289 236.205 147.732 236.76 147.51 237.092C147.178 237.591 146.845 237.702 146.457 237.868C146.069 238.035 145.626 238.201 145.293 238.7C144.905 239.254 145.016 240.03 145.127 240.751C145.238 241.361 145.293 242.026 145.127 242.58C144.905 243.135 144.572 243.19 144.074 243.246C143.63 243.301 143.076 243.412 142.799 244.077C142.521 244.742 142.632 245.408 142.743 246.294C142.854 247.071 142.965 247.957 142.854 249.177C142.743 250.507 142.909 252.17 143.297 253.556C142.3 251.949 140.969 249.343 140.803 246.904C140.637 244.798 141.025 244.077 141.579 242.968C142.133 241.915 142.799 240.585 143.297 237.702C144.018 233.545 142.189 229.664 140.969 227.613C141.08 227.225 141.912 224.453 144.074 223.677L145.182 223.289C147.233 222.569 149.063 221.903 150.005 221.404C151.28 220.795 152.222 218.633 152.444 217.358C152.555 216.582 152.167 216.138 151.834 215.695C151.502 215.307 151.225 214.919 151.28 214.309C151.335 213.81 152.111 213.256 152.998 212.701C154.273 211.87 155.826 210.817 156.491 209.043C157.267 206.936 156.491 205.994 155.826 205.162C155.493 204.774 155.216 204.386 155.05 203.887L154.606 203.998C154.772 204.608 155.105 205.051 155.438 205.439C156.103 206.271 156.713 206.992 156.047 208.876C155.438 210.484 153.941 211.482 152.721 212.313C151.668 212.978 150.892 213.533 150.837 214.309C150.781 215.14 151.169 215.584 151.502 216.027C151.834 216.415 152.112 216.748 152.001 217.302C151.779 218.688 150.781 220.518 149.783 221.016C148.841 221.46 146.956 222.181 144.96 222.846L143.852 223.234C141.856 223.954 140.914 226.172 140.581 227.114C140.193 226.504 139.916 226.172 139.916 226.116C139.861 226.061 135.703 222.236 133.818 219.298C131.933 216.36 131.989 213.921 132.987 213.089C133.541 212.646 134.594 212.59 135.869 212.535C137.033 212.48 138.308 212.424 139.472 211.981C141.246 211.315 142.521 208.821 142.854 208.045C143.353 206.936 143.852 205.439 143.575 204.719C143.131 203.444 141.136 203 141.08 202.945L141.025 203.388C141.025 203.388 142.854 203.776 143.242 204.83C143.408 205.218 143.187 206.382 142.521 207.823C141.856 209.32 140.692 211.038 139.417 211.537C138.308 211.925 137.033 211.981 135.925 212.036C134.594 212.091 133.486 212.147 132.82 212.701C131.712 213.644 131.435 216.194 133.596 219.52C135.426 222.402 139.472 226.116 139.75 226.394C139.971 226.671 143.963 231.826 142.965 237.536C142.466 240.363 141.801 241.638 141.302 242.691C141.191 242.913 141.08 243.135 140.969 243.356C140.47 241.971 140.526 241.084 140.526 240.474C140.581 239.531 140.526 238.977 139.251 238.201C137.588 237.148 134.262 236.981 132.1 236.815C131.213 236.76 130.492 236.704 130.104 236.649C128.718 236.316 128.053 235.706 127.665 234.487C127.332 233.489 127.61 233.157 128.053 232.658C128.164 232.491 128.275 232.325 128.441 232.159C128.607 231.937 128.94 231.715 129.328 231.493C130.16 230.995 131.268 230.329 131.157 228.722C131.102 227.28 130.16 226.837 129.217 226.338C128.607 226.006 127.942 225.673 127.443 225.008C126.168 223.345 124.727 218.577 124.45 215.972C124.173 213.089 124.672 207.657 125.17 207.269C125.392 207.213 126.113 207.546 126.723 207.823C127.831 208.377 129.217 209.043 130.215 208.765C130.381 208.71 130.548 208.71 130.658 208.655C131.878 208.377 132.044 208.267 131.933 207.047C131.878 206.16 131.213 206.049 130.658 205.994C130.27 205.938 129.938 205.883 129.716 205.606C129.273 204.996 129.383 202.779 129.494 201.947L129.051 201.892C128.995 202.224 128.718 204.996 129.383 205.883C129.716 206.271 130.215 206.382 130.603 206.437C131.157 206.548 131.435 206.604 131.49 207.102C131.545 207.601 131.545 207.823 131.435 207.934C131.324 208.045 131.046 208.1 130.548 208.267C130.381 208.322 130.27 208.322 130.104 208.377C129.273 208.599 127.942 207.934 126.889 207.435C125.891 206.992 125.337 206.714 125.004 206.825C124.062 207.158 123.729 213.755 123.951 215.972C124.228 218.688 125.669 223.456 127 225.229C127.554 225.95 128.275 226.338 128.885 226.671C129.827 227.17 130.492 227.502 130.548 228.722C130.603 230.052 129.772 230.551 128.94 231.105C128.552 231.327 128.164 231.549 127.942 231.882C127.831 232.048 127.72 232.214 127.554 232.325C127.111 232.879 126.723 233.323 127.111 234.598C127.499 235.984 128.33 236.704 129.882 237.092C130.16 237.148 130.603 237.203 131.157 237.259C130.825 237.48 130.437 237.48 130.049 237.48C129.605 237.48 129.106 237.425 128.663 237.813C127.887 238.367 128.386 239.254 128.718 239.864C128.885 240.141 129.051 240.474 129.051 240.64C129.051 240.806 128.995 240.862 128.885 240.973C128.663 241.194 128.164 241.194 127.499 241.139C126.833 241.028 125.836 239.975 125.226 239.31C125.004 239.088 124.838 238.866 124.672 238.755C124.394 238.534 124.062 238.589 123.785 238.589C123.397 238.645 123.009 238.644 122.62 238.367C122.399 238.201 122.288 237.979 122.232 237.702C122.177 237.148 122.399 236.538 122.565 236.427C122.62 236.372 122.842 236.372 123.009 236.372C123.286 236.372 123.674 236.372 123.951 236.15C124.394 235.762 124.616 235.097 124.505 234.099C124.45 233.545 123.951 233.489 123.563 233.489C123.064 233.489 122.565 233.434 122.343 232.824C122.177 232.38 122.399 231.882 122.787 231.272C123.286 230.385 123.951 229.221 123.064 227.613C122.011 225.617 120.847 225.839 119.96 226.005C119.627 226.061 119.405 226.116 119.184 226.061C119.017 226.006 118.906 225.895 118.851 225.784C118.796 225.617 118.906 225.451 118.962 225.396L118.629 225.119C118.629 225.174 118.352 225.507 118.463 225.95C118.518 226.172 118.74 226.394 119.073 226.504C119.405 226.615 119.682 226.56 120.071 226.504C120.847 226.338 121.789 226.172 122.676 227.89C123.452 229.332 122.898 230.219 122.399 231.105C122.011 231.715 121.678 232.325 121.955 232.99C122.288 233.933 123.064 233.988 123.618 233.988C124.062 233.988 124.173 234.043 124.173 234.154C124.228 234.986 124.117 235.54 123.785 235.817C123.618 235.984 123.397 235.928 123.119 235.928C122.842 235.928 122.51 235.928 122.288 236.15C122.066 236.427 121.789 237.148 121.844 237.813C121.9 238.256 122.066 238.589 122.399 238.811C122.953 239.199 123.452 239.143 123.84 239.088C124.117 239.088 124.284 239.033 124.394 239.143C124.505 239.199 124.672 239.421 124.893 239.642C125.559 240.363 126.556 241.527 127.443 241.638C127.443 241.638 127.443 241.638 127.499 241.638C128.275 241.749 128.829 241.638 129.162 241.361C129.383 241.194 129.494 240.917 129.494 240.696C129.494 240.418 129.328 240.086 129.162 239.698C128.774 239.033 128.607 238.534 128.995 238.256C129.328 238.035 129.661 238.035 130.049 238.035C130.603 238.035 131.213 238.09 131.767 237.425C131.823 237.425 131.878 237.425 131.933 237.425C134.095 237.536 137.311 237.758 138.918 238.7C140.027 239.365 140.027 239.753 139.971 240.585C139.916 241.361 139.861 242.359 140.581 244.132C140.359 244.798 140.249 245.685 140.304 247.015C140.637 251.117 143.796 255.33 144.018 255.607C144.184 255.829 144.295 255.995 144.462 256.106C144.905 256.494 146.069 257.104 147.455 257.88C148.952 258.712 150.615 259.654 151.723 260.43C153.054 261.373 154.384 262.315 154.551 263.368C154.606 263.867 154.495 264.366 154.052 264.92C152.5 267.027 150.504 274.344 150.448 274.621L150.892 274.677C150.947 274.233 152.943 267.193 154.384 265.198C154.717 264.255 154.883 263.645 154.772 263.036Z" fill="#323A50"/>
<path d="M151.668 264.92C151.003 262.648 147.788 260.264 146.734 259.599C144.462 258.213 139.195 257.936 136.756 258.435C135.648 258.656 134.871 259.044 134.151 259.377C133.375 259.765 132.71 260.042 131.823 260.042C129.993 260.042 128.995 260.264 128.109 260.929C127.942 261.095 127.887 261.262 127.887 261.317C127.887 261.705 128.219 261.982 128.607 262.37C128.885 262.648 129.273 263.036 129.273 263.202C129.273 263.313 129.106 263.368 129.051 263.424C127.831 264.089 126.944 263.147 126.889 263.091L126.556 263.424C126.556 263.424 127.776 264.643 129.217 263.812C129.494 263.645 129.661 263.479 129.661 263.202C129.716 262.758 129.273 262.37 128.885 261.927C128.663 261.705 128.275 261.373 128.33 261.262L128.386 261.206C129.162 260.597 130.104 260.43 131.823 260.43C132.82 260.43 133.486 260.098 134.317 259.654C134.982 259.322 135.758 258.989 136.812 258.712C139.085 258.213 144.295 258.49 146.457 259.82C147.732 260.597 150.615 262.869 151.169 264.865C151.335 265.419 151.058 266.362 150.726 267.138C148.952 271.24 148.342 274.178 148.342 274.233L148.785 274.289C148.785 274.289 149.395 271.351 151.114 267.304C151.391 266.971 151.89 265.696 151.668 264.92Z" fill="#323A50"/>
<path d="M152.721 264.532C152.61 263.701 151.779 262.814 151.446 262.481C151.391 262.426 151.391 262.426 151.391 262.426C149.728 260.486 147.344 258.601 145.737 257.991C145.293 257.825 144.739 257.714 144.074 257.603C141.524 256.383 139.029 255.885 136.59 255.386C135.315 255.164 133.929 254.887 132.599 254.499C128.995 253.445 122.953 247.459 122.731 247.181C122.51 246.904 118.463 241.749 118.075 239.975C117.909 239.199 117.022 235.318 116.578 234.265C116.19 233.323 111.035 231.604 109.982 231.272C107.487 231.161 103.773 230.939 103.44 230.717C103.052 230.44 102.553 229.054 102.664 228.389C102.664 228.167 102.997 228.001 103.274 227.779C103.717 227.447 104.272 227.114 104.383 226.338C104.438 225.839 104.05 224.232 103.44 221.682C102.831 219.298 102.054 216.027 102.276 215.418C102.442 214.919 102.775 214.808 103.108 214.752C103.44 214.697 103.828 214.531 103.939 214.032C103.995 213.81 103.884 213.699 103.828 213.644C103.607 213.366 103.052 213.422 102.332 213.422C101.611 213.477 100.724 213.533 100.336 213.2L100.059 213.533C100.613 213.976 101.556 213.921 102.387 213.865C102.775 213.865 103.385 213.81 103.496 213.921C103.44 214.143 103.329 214.198 102.997 214.309C102.609 214.42 102.11 214.531 101.833 215.307C101.611 215.972 102.165 218.3 102.997 221.848C103.496 223.844 103.995 225.895 103.939 226.338C103.884 226.892 103.44 227.17 102.997 227.447C102.609 227.724 102.221 227.946 102.165 228.389C102.054 229.11 102.553 230.717 103.163 231.161C103.662 231.493 108.374 231.715 109.871 231.826C112.809 232.768 115.968 234.043 116.135 234.542C116.467 235.374 117.133 237.979 117.576 240.197C118.02 242.081 122.177 247.348 122.343 247.625C122.621 247.902 128.663 253.944 132.432 255.053C133.763 255.441 135.149 255.718 136.479 255.94C138.364 256.328 140.359 256.716 142.411 257.492C141.302 257.381 140.082 257.27 138.918 257.215C137.92 257.16 137.033 257.049 136.257 256.993C130.659 256.383 127.554 255.552 125.559 254.111C123.286 252.503 116.412 246.516 115.858 245.796C115.525 245.407 115.414 244.964 115.303 244.41C115.192 243.966 115.081 243.523 114.86 242.968C114.028 241.084 110.758 238.977 108.374 237.48C107.154 236.704 106.101 236.039 105.879 235.651C105.491 235.097 105.658 234.764 105.824 234.265C105.99 233.933 106.101 233.6 106.157 233.101H105.713C105.713 233.489 105.547 233.822 105.436 234.099C105.214 234.598 104.992 235.097 105.491 235.873C105.769 236.316 106.766 236.926 108.152 237.813C110.48 239.31 113.64 241.305 114.472 243.135C114.693 243.634 114.804 244.077 114.915 244.521C115.081 245.13 115.192 245.574 115.58 246.073C116.135 246.793 123.064 252.891 125.337 254.499C127.443 255.995 130.603 256.827 136.257 257.437C136.978 257.492 137.92 257.603 138.918 257.658C141.413 257.825 144.184 258.046 145.57 258.545C147.067 259.1 149.451 260.929 151.058 262.814C151.058 262.814 151.114 262.869 151.114 262.925C151.391 263.202 152.167 264.089 152.278 264.754C152.389 265.419 151.89 266.639 151.28 268.413C150.67 270.02 149.894 272.071 149.284 274.566L149.728 274.677C150.338 272.238 151.114 270.187 151.724 268.579C152.333 266.583 152.777 265.308 152.721 264.532Z" fill="#323A50"/>
<path d="M105.658 201.891C105.602 202.224 105.27 202.778 104.826 203.388C104.106 204.497 103.274 205.716 103.773 206.714C104.05 207.268 104.771 207.712 105.602 208.266C107.154 209.264 109.039 210.539 109.815 212.923C111.035 216.637 114.195 223.233 114.25 223.289V223.344C114.305 223.4 118.13 228.611 116.8 233.655L117.243 233.766C118.629 228.611 114.915 223.455 114.638 223.067C114.638 223.012 114.527 222.845 114.416 222.568C114.971 222.457 116.135 222.069 116.911 221.072C117.521 220.295 117.742 219.298 117.576 218.078C117.299 216.027 116.356 214.087 115.47 212.424C114.693 210.983 114.084 209.708 114.139 208.821C114.195 208.044 114.638 207.878 115.248 207.712C115.968 207.49 116.855 207.268 117.022 205.716C117.188 204.109 116.079 203.388 115.137 202.834C114.416 202.39 113.917 202.058 113.973 201.559C114.139 200.062 116.19 198.066 116.19 198.011L115.858 197.678C115.802 197.734 113.64 199.84 113.474 201.503C113.418 202.335 114.139 202.778 114.86 203.222C115.747 203.776 116.689 204.386 116.523 205.716C116.356 206.936 115.747 207.158 115.081 207.324C114.472 207.49 113.751 207.712 113.64 208.821C113.585 209.874 114.25 211.149 115.026 212.701C115.858 214.364 116.855 216.249 117.077 218.189C117.243 219.242 117.022 220.185 116.467 220.85C115.691 221.848 114.527 222.125 114.084 222.236C113.141 220.295 111.09 215.694 110.092 212.812C109.261 210.317 107.21 208.931 105.658 207.934C104.882 207.379 104.216 206.936 103.939 206.492C103.551 205.772 104.272 204.663 104.937 203.665C105.38 203 105.769 202.446 105.824 202.002C105.879 201.392 105.27 200.395 104.549 199.341C103.884 198.344 103.108 197.179 102.997 196.403L102.553 196.459C102.72 197.401 103.44 198.51 104.161 199.563C105.048 200.45 105.713 201.448 105.658 201.891Z" fill="#323A50"/>
<path d="M150.06 266.472C149.506 265.253 147.954 264.255 146.79 263.479C146.346 263.202 145.958 262.925 145.792 262.758C145.626 262.592 145.57 262.426 145.57 262.204C145.459 261.65 145.293 261.206 144.129 260.763C142.411 260.042 138.308 259.709 136.978 260.541C136.424 260.874 136.368 261.317 136.368 261.65C136.479 262.592 137.643 263.424 138.641 263.812C139.362 264.033 139.417 264.809 139.473 265.586C139.528 266.251 139.583 266.916 140.082 267.249C140.415 267.47 140.526 267.692 140.47 267.914C140.415 268.136 140.027 268.468 139.084 268.579C137.809 268.745 135.758 268.191 135.758 268.191L135.648 268.634C135.703 268.634 137.754 269.189 139.14 269.022C140.138 268.912 140.803 268.579 140.914 268.025C141.025 267.637 140.803 267.193 140.304 266.861C139.971 266.639 139.916 266.084 139.916 265.53C139.861 264.754 139.75 263.701 138.752 263.368C137.699 263.036 136.812 262.204 136.756 261.594C136.756 261.317 136.867 261.095 137.144 260.929C138.308 260.208 142.133 260.486 143.907 261.151C144.905 261.539 144.961 261.927 145.071 262.259C145.127 262.481 145.182 262.758 145.459 263.036C145.681 263.257 146.069 263.479 146.513 263.812C147.566 264.477 149.118 265.475 149.617 266.583C149.95 267.359 149.562 268.191 149.063 269.355C148.564 270.464 147.954 271.794 147.677 273.679L148.12 273.734C148.342 271.96 148.952 270.63 149.451 269.521C150.06 268.357 150.504 267.415 150.06 266.472Z" fill="#323A50"/>
</g>
<g opacity="0.34">
<path d="M165.637 276.673C203.141 276.673 233.544 246.394 233.544 209.043C233.544 171.692 203.141 141.413 165.637 141.413C128.134 141.413 97.7306 171.692 97.7306 209.043C97.7306 246.394 128.134 276.673 165.637 276.673Z" fill="url(#paint1_radial_3562_7992)"/>
<path d="M165.637 276.839C147.4 276.839 130.326 269.799 117.465 256.938C104.604 244.133 97.5088 227.114 97.5088 208.987C97.5088 190.86 104.604 173.842 117.465 161.037C130.326 148.231 147.4 141.136 165.637 141.136C183.82 141.136 200.949 148.176 213.81 161.037C226.671 173.842 233.766 190.86 233.766 208.987C233.766 227.114 226.671 244.133 213.81 256.938C200.894 269.799 183.875 276.839 165.637 276.839ZM165.637 141.69C128.33 141.69 97.8969 171.902 97.8969 209.098C97.8969 246.294 128.219 276.506 165.637 276.506C202.945 276.506 233.378 246.294 233.378 209.098C233.378 171.902 202.945 141.69 165.637 141.69Z" fill="#323A50"/>
</g>
<path d="M166.247 134.04C152.666 134.04 142.244 142.688 141.08 157.6C141.025 158.32 141.136 158.209 141.136 157.655C141.136 152.112 152.112 149.229 165.693 149.229C179.274 149.229 190.25 152.112 190.25 157.655C190.25 158.043 190.25 158.098 190.306 157.71C190.472 144.628 179.829 134.04 166.247 134.04Z" fill="#293C4F"/>
<path d="M148.12 142.633C148.12 142.743 148.009 141.967 148.065 141.136C148.12 140.581 148.342 139.861 148.619 139.306C148.896 138.752 149.284 138.253 149.728 137.754C149.728 137.754 149.783 137.754 149.783 137.699C152.555 134.872 158.431 132.932 165.25 132.932C174.729 132.932 182.434 136.646 182.434 141.302C182.434 141.302 182.434 141.856 182.379 142.3C182.323 143.076 182.046 143.741 181.547 144.462L204.552 150.781C204.552 150.338 204.552 151.225 204.552 149.506C204.552 137.976 187.091 128.663 165.582 128.663C144.074 128.663 126.612 137.976 126.612 149.506C126.612 150.172 126.667 150.837 126.778 151.502L149.451 144.794C149.007 144.296 148.287 143.242 148.12 142.633Z" fill="#DBDBDB"/>
<path d="M126.501 152.056L126.445 151.612C126.335 150.947 126.279 150.227 126.279 149.561C126.279 143.852 130.381 138.475 137.92 134.483C145.349 130.492 155.216 128.33 165.637 128.33C176.115 128.33 185.982 130.492 193.355 134.483C200.838 138.475 204.996 143.852 204.996 149.561C204.996 150.116 204.996 150.393 204.996 150.559C204.996 150.615 204.996 150.67 204.996 150.726H204.94C204.94 150.726 204.885 150.781 204.885 150.836V151.391L180.826 144.794L181.215 144.351C181.658 143.741 181.935 143.076 181.991 142.41C182.046 141.967 182.046 141.413 182.046 141.413C182.046 137.033 174.507 133.485 165.249 133.485C158.819 133.485 152.832 135.315 150.06 138.142L150.005 138.197C149.562 138.641 149.229 139.14 148.952 139.583C148.675 140.082 148.508 140.747 148.453 141.246C148.397 141.801 148.453 142.3 148.453 142.466V142.577C148.564 142.965 148.952 143.63 149.672 144.628L150.005 145.071L126.501 152.056ZM165.582 129.106C144.295 129.106 127 138.253 127 149.561C127 150.06 127.055 150.559 127.111 151.058L148.785 144.628C148.342 144.018 147.954 143.297 147.788 142.798C147.621 142.355 147.732 141.135 147.732 141.135C147.788 140.526 148.009 139.75 148.342 139.14C148.619 138.585 149.007 138.031 149.562 137.532L149.617 137.477C152.61 134.483 158.597 132.599 165.36 132.599C170.017 132.599 174.396 133.485 177.667 135.093C181.048 136.756 182.933 138.973 182.933 141.357C182.933 141.413 182.933 141.967 182.878 142.41C182.822 143.02 182.656 143.685 182.268 144.295L204.275 150.337C204.275 150.171 204.275 149.949 204.275 149.561C204.164 138.253 186.869 129.106 165.582 129.106Z" fill="#323A50"/>
<path opacity="0.52" d="M165.305 135.149C174.119 135.149 181.381 138.364 182.434 142.577C182.49 142.245 182.545 141.912 182.545 141.579C182.545 136.923 174.84 133.153 165.305 133.153C155.77 133.153 148.065 136.923 148.065 141.579C148.065 141.746 148.009 142.023 148.065 142.189C148.065 142.245 148.065 142.965 148.398 143.963C148.619 144.517 149.229 144.739 149.34 144.628C148.287 143.353 148.287 142.355 148.342 142.189C149.673 138.198 156.768 135.149 165.305 135.149Z" fill="url(#paint2_linear_3562_7992)"/>
<path d="M165.305 136.146C174.063 136.146 180.605 139.915 181.658 144.683C182.545 143.352 182.489 142.244 182.489 141.856C182.489 137.199 174.784 133.152 165.305 133.152C155.826 133.152 148.12 136.589 148.009 141.966C148.009 142.299 148.342 144.627 149.284 144.627C149.284 139.306 156.546 136.146 165.305 136.146Z" fill="#DBDBDB"/>
<path d="M181.492 145.736L181.27 144.794C180.217 140.027 173.509 136.59 165.305 136.59C159.152 136.59 153.996 138.142 151.391 140.692C150.227 141.856 149.672 143.186 149.672 144.683V145.071H149.284C149.063 145.071 148.785 145.016 148.508 144.738C147.788 143.962 147.621 142.244 147.621 141.967C147.677 139.25 149.562 136.867 152.943 135.204C156.158 133.652 160.538 132.765 165.305 132.765C169.906 132.765 174.285 133.707 177.611 135.425C180.993 137.144 182.878 139.472 182.878 141.911V141.967C182.878 142.41 182.878 143.574 181.991 144.905L181.492 145.736ZM165.36 133.596C155.659 133.596 148.564 137.144 148.508 142.022C148.508 142.244 148.675 143.353 149.007 143.907C149.173 142.521 149.783 141.246 150.892 140.137C153.608 137.421 158.985 135.758 165.36 135.758C169.629 135.758 173.565 136.645 176.613 138.253C179.219 139.638 181.048 141.523 181.824 143.574C182.157 142.798 182.157 142.188 182.157 141.911V141.856C182.101 137.366 174.396 133.596 165.36 133.596Z" fill="#323A50"/>
<path d="M165.748 277.06C147.51 277.06 130.437 269.964 117.576 257.048C104.66 244.132 97.5642 227.114 97.5642 208.876C97.5642 193.853 102.387 179.606 111.423 167.688L111.922 168.076C102.941 179.884 98.174 194.019 98.174 208.876C98.174 246.072 128.441 276.45 165.748 276.45C203.056 276.45 233.323 246.183 233.323 208.876C233.323 193.853 228.5 179.662 219.353 167.744L219.852 167.355C229.11 179.329 233.988 193.742 233.988 208.82C233.988 227.058 226.892 244.132 213.976 256.993C201.06 269.964 183.986 277.06 165.748 277.06Z" fill="#323A50"/>
<path d="M149.395 144.683L149.451 147.843L133.208 153.775C132.599 153.996 132.599 154.828 133.208 155.05L133.264 155.105L134.373 155.548C134.705 155.715 134.705 156.214 134.317 156.269L131.989 156.768H131.823C130.769 156.99 130.603 158.431 131.601 158.874L133.929 159.872C134.317 160.039 134.262 160.648 133.874 160.759C131.823 161.203 127.554 162.311 121.346 164.584C100.835 172.733 91.2448 195.295 91.2448 195.295C91.2448 195.295 93.2404 184.541 96.7327 177.279C98.9501 172.622 102.553 165.249 109.871 157.156C114.749 151.779 121.346 146.901 121.346 146.901C121.346 146.901 123.674 152.001 127.166 150.947C129.827 149.672 145.182 144.184 149.395 144.683Z" fill="#DBDBDB"/>
<path d="M90.1361 198.898L90.8013 195.295C90.8013 195.184 92.7969 184.43 96.2893 177.168C98.4512 172.678 102.11 165.083 109.483 156.934C114.361 151.613 120.958 146.679 121.013 146.623L121.401 146.291L121.623 146.734C121.623 146.79 123.452 150.67 126.113 150.67C126.39 150.67 126.667 150.615 126.944 150.559C129.661 149.229 143.907 144.129 148.841 144.129C149.063 144.129 149.284 144.129 149.506 144.184L149.839 144.24L149.894 148.065L133.375 154.107C133.208 154.162 133.208 154.329 133.208 154.384C133.208 154.44 133.208 154.606 133.375 154.661L134.539 155.16C134.871 155.327 135.093 155.604 135.038 155.936C134.982 156.269 134.761 156.546 134.428 156.657L131.989 157.211C131.601 157.267 131.435 157.599 131.435 157.821C131.435 158.043 131.49 158.375 131.823 158.542L134.151 159.54C134.483 159.706 134.705 160.039 134.65 160.427C134.594 160.815 134.317 161.092 133.985 161.203C131.989 161.646 127.72 162.755 121.512 165.028C111.035 169.185 103.44 177.279 98.9501 183.321C94.0719 189.862 91.6328 195.516 91.5774 195.627L90.1361 198.898ZM121.124 147.621C119.627 148.73 114.195 152.998 110.092 157.544C102.775 165.582 99.1719 173.121 97.0099 177.556C94.7371 182.323 93.0741 188.587 92.2426 192.301C93.4621 189.973 95.4578 186.536 98.2849 182.822C102.886 176.669 110.591 168.465 121.235 164.252C127.443 161.979 131.767 160.87 133.818 160.427C133.818 160.427 133.874 160.427 133.874 160.371C133.874 160.316 133.874 160.316 133.818 160.316L131.49 159.262C130.88 158.985 130.492 158.375 130.603 157.71C130.659 157.045 131.157 156.546 131.767 156.38L134.151 155.881L133.042 155.437C132.599 155.271 132.377 154.883 132.377 154.384C132.377 153.941 132.654 153.553 133.098 153.386L149.118 147.51V145.016C149.063 145.016 148.952 145.016 148.896 145.016C144.018 145.016 129.938 150.06 127.332 151.335H127.277C126.889 151.446 126.556 151.502 126.224 151.502C123.507 151.613 121.734 148.785 121.124 147.621Z" fill="#323A50"/>
<path d="M165.693 285.32V284.489C207.324 284.489 241.305 250.619 241.305 208.877C241.305 185.04 230.385 163.143 211.482 148.675L211.98 148.01C221.183 154.994 228.777 164.141 233.988 174.396C239.42 185.151 242.248 196.792 242.248 208.877C242.248 219.187 240.252 229.221 236.261 238.589C232.436 247.681 226.892 255.885 219.852 262.87C212.812 269.91 204.663 275.398 195.516 279.278C186.037 283.269 176.059 285.32 165.693 285.32Z" fill="#323A50"/>
<path d="M181.658 144.684L181.603 147.843L198.288 153.387C198.898 153.609 198.898 154.44 198.288 154.662L198.233 154.717L197.124 155.161C196.792 155.327 196.792 155.826 197.18 155.881L199.508 156.38H199.674C200.727 156.602 200.894 158.043 199.896 158.487L197.568 159.485C197.18 159.651 197.235 160.261 197.623 160.372C199.674 160.815 203.943 161.924 210.151 164.196C230.662 172.345 240.252 194.464 240.252 194.464C240.252 194.464 238.312 184.208 234.819 176.891C232.602 172.234 228.999 164.862 221.681 156.768C216.803 151.391 209.819 147.234 209.819 147.234C209.819 147.234 207.823 151.668 204.386 150.56C201.559 149.285 185.816 144.185 181.658 144.684Z" fill="#DBDBDB"/>
<path d="M241.25 198.012L239.809 194.685C239.809 194.63 237.369 189.087 232.436 182.601C227.946 176.669 220.351 168.687 209.874 164.529C203.721 162.256 199.452 161.148 197.401 160.704C197.013 160.649 196.792 160.316 196.736 159.928C196.681 159.54 196.902 159.208 197.235 159.041L199.563 158.043C199.896 157.877 200.007 157.6 199.951 157.323C199.951 157.101 199.785 156.768 199.397 156.713L196.958 156.159C196.625 156.103 196.348 155.826 196.348 155.438C196.293 155.105 196.514 154.773 196.847 154.662L198.011 154.163C198.177 154.108 198.177 153.941 198.177 153.886C198.177 153.83 198.177 153.664 198.011 153.609L181.048 147.954L181.104 144.129L181.436 144.074C181.658 144.074 181.88 144.019 182.157 144.019C187.201 144.019 201.67 148.675 204.386 150.005C204.719 150.116 204.996 150.172 205.328 150.172C207.823 150.172 209.32 146.957 209.32 146.901L209.486 146.458L209.874 146.679C209.929 146.735 216.97 150.948 221.792 156.325C229.165 164.474 232.768 172.068 234.986 176.558C238.478 183.82 240.418 194.131 240.474 194.242L241.25 198.012ZM197.29 155.493L199.674 155.992C200.339 156.159 200.783 156.658 200.838 157.323C200.894 157.988 200.561 158.598 199.951 158.875L197.623 159.873C197.623 159.873 197.568 159.873 197.568 159.928C197.568 159.984 197.568 159.984 197.623 159.984C199.619 160.427 203.943 161.536 210.151 163.809C220.85 168.077 228.5 176.115 233.101 182.157C235.873 185.816 237.868 189.197 239.088 191.47C238.256 187.867 236.649 181.825 234.376 177.113C232.214 172.623 228.611 165.139 221.293 157.101C217.136 152.5 211.426 148.786 209.929 147.844C209.375 148.841 207.878 151.17 205.439 151.17C205.051 151.17 204.663 151.114 204.22 151.003H204.164C201.559 149.728 187.201 145.072 182.268 145.072C182.157 145.072 182.101 145.072 181.991 145.072V147.566L198.399 152.999C198.843 153.165 199.12 153.553 199.12 153.997C199.12 154.44 198.843 154.828 198.455 155.05L197.29 155.493Z" fill="#323A50"/>
<path d="M190.417 158.043C190.417 152.444 179.385 149.562 165.748 149.562C152.112 149.562 141.08 152.444 141.08 158.043C141.08 163.642 152.112 169.795 165.748 169.795C179.385 169.795 190.417 163.642 190.417 158.043Z" fill="#DBDBDB"/>
<path d="M165.804 170.183C159.373 170.183 153.109 168.798 148.176 166.358C143.464 163.975 140.748 160.926 140.748 158.043C140.748 155.216 143.353 152.888 148.231 151.336C152.666 149.95 158.764 149.174 165.804 149.174C172.844 149.174 178.942 149.95 183.376 151.336C188.255 152.888 190.86 155.216 190.86 158.043C190.86 160.981 188.144 163.975 183.432 166.358C178.498 168.853 172.29 170.183 165.804 170.183ZM165.804 150.005C158.93 150.005 152.777 150.781 148.508 152.112C145.349 153.11 141.579 154.939 141.579 158.043C141.579 160.593 144.184 163.476 148.564 165.638C153.387 168.021 159.484 169.352 165.804 169.352C172.123 169.352 178.277 168.021 183.044 165.638C187.423 163.42 190.029 160.593 190.029 158.043C190.029 154.939 186.259 153.11 183.099 152.112C178.831 150.781 172.678 150.005 165.804 150.005Z" fill="#323A50"/>
<path d="M189.751 158.154C189.751 152.888 178.997 150.172 165.748 150.172C152.5 150.172 141.745 152.888 141.745 158.154C141.745 163.421 152.5 169.241 165.748 169.241C178.997 169.241 189.751 163.421 189.751 158.154Z" fill="#DBDBDB"/>
<path d="M165.804 169.352C159.54 169.352 153.497 168.077 148.786 165.749C144.295 163.531 141.69 160.76 141.69 158.154C141.69 155.604 144.129 153.498 148.786 152.112C153.054 150.781 158.985 150.116 165.804 150.116C172.622 150.116 178.498 150.781 182.822 152.112C187.479 153.553 189.918 155.604 189.918 158.154C189.918 160.815 187.312 163.587 182.822 165.749C178.11 168.077 172.068 169.352 165.804 169.352ZM165.804 150.338C151.28 150.338 141.912 153.442 141.912 158.21C141.912 163.31 152.389 169.186 165.804 169.186C179.219 169.186 189.696 163.31 189.696 158.21C189.696 153.442 180.328 150.338 165.804 150.338Z" fill="#323A50"/>
<path d="M188.532 158.264C188.532 153.719 178.332 151.391 165.748 151.391C153.165 151.391 142.965 153.774 142.965 158.264C142.965 162.81 153.165 167.855 165.748 167.855C178.332 167.855 188.532 162.865 188.532 158.264Z" fill="#DBDBDB"/>
<path d="M165.804 167.966C159.872 167.966 154.163 166.857 149.673 164.861C145.404 162.977 142.965 160.593 142.965 158.265C142.965 156.047 145.293 154.218 149.728 152.998C153.83 151.834 159.374 151.225 165.859 151.225C172.345 151.225 177.944 151.834 181.991 152.998C186.425 154.218 188.754 156.047 188.754 158.265C188.754 160.538 186.315 162.977 182.046 164.861C177.445 166.857 171.735 167.966 165.804 167.966ZM165.804 151.557C152.001 151.557 143.131 154.218 143.131 158.376C143.131 162.755 153.054 167.855 165.804 167.855C178.554 167.855 188.476 162.755 188.476 158.376C188.421 154.163 179.552 151.557 165.804 151.557Z" fill="#323A50"/>
<path d="M187.146 158.377C187.146 154.496 177.5 152.445 165.582 152.445C153.664 152.445 144.018 154.441 144.018 158.377C144.018 162.313 153.664 166.636 165.582 166.636C177.5 166.636 187.146 162.257 187.146 158.377Z" fill="#DBDBDB"/>
<path d="M165.638 166.691C160.039 166.691 154.606 165.749 150.338 164.031C146.291 162.423 143.963 160.316 143.963 158.376C143.963 156.492 146.18 154.939 150.338 153.831C154.218 152.833 159.484 152.334 165.582 152.334C171.68 152.334 177.002 152.888 180.827 153.831C185.04 154.884 187.201 156.492 187.201 158.376C187.201 160.372 184.873 162.423 180.827 164.031C176.669 165.749 171.236 166.691 165.638 166.691ZM165.638 152.556C152.61 152.556 144.185 154.829 144.185 158.376C144.185 162.146 153.553 166.525 165.638 166.525C177.722 166.525 187.091 162.146 187.091 158.376C187.091 154.829 178.72 152.556 165.638 152.556Z" fill="#323A50"/>
<path d="M185.705 158.266C185.705 155.161 176.669 153.554 165.582 153.554C154.495 153.554 145.459 155.161 145.459 158.266C145.459 161.37 154.495 165.195 165.582 165.195C176.724 165.25 185.705 161.37 185.705 158.266Z" fill="#DBDBDB"/>
<path d="M165.582 165.305C154.384 165.305 145.349 161.425 145.349 158.265C145.349 154.717 156.269 153.442 165.582 153.442C174.895 153.442 185.816 154.717 185.816 158.265C185.76 161.48 176.835 165.305 165.582 165.305ZM165.582 153.72C153.442 153.72 145.57 155.549 145.57 158.321C145.57 161.369 154.828 165.194 165.582 165.194C176.336 165.194 185.594 161.425 185.594 158.321C185.594 155.493 177.778 153.72 165.582 153.72Z" fill="#323A50"/>
<path d="M184.042 158.321C184.042 155.882 175.782 154.662 165.582 154.662C155.382 154.662 147.122 155.937 147.122 158.321C147.122 160.76 155.382 163.753 165.582 163.753C175.782 163.753 184.042 160.76 184.042 158.321Z" fill="#DBDBDB"/>
<path d="M165.582 163.864C155.271 163.864 147.012 160.871 147.012 158.376C147.012 155.604 156.602 154.606 165.582 154.606C174.562 154.606 184.153 155.604 184.153 158.376C184.153 160.815 175.837 163.864 165.582 163.864ZM165.582 154.773C154.606 154.773 147.233 156.214 147.233 158.376C147.233 160.76 155.715 163.698 165.582 163.698C175.505 163.698 183.931 160.76 183.931 158.376C183.931 156.214 176.558 154.773 165.582 154.773Z" fill="#323A50"/>
<path d="M182.046 158.543C182.046 156.769 174.618 155.882 165.416 155.882C156.214 155.882 148.785 156.824 148.785 158.543C148.785 160.261 156.214 162.479 165.416 162.479C174.618 162.479 182.046 160.317 182.046 158.543Z" fill="#DBDBDB"/>
<path d="M165.471 162.589C156.214 162.589 148.73 160.372 148.73 158.542C148.73 156.491 157.378 155.771 165.471 155.771C173.565 155.771 182.212 156.491 182.212 158.542C182.157 160.372 174.673 162.589 165.471 162.589ZM165.471 155.992C155.604 155.992 148.952 157.045 148.952 158.542C148.952 160.094 155.881 162.367 165.471 162.367C175.061 162.367 181.991 160.094 181.991 158.542C181.935 156.99 175.339 155.992 165.471 155.992Z" fill="#323A50"/>
<path d="M199.563 229.997C199.452 229.941 199.341 229.941 199.231 229.997L195.406 232.214L186.093 215.972C186.037 215.917 185.982 215.861 185.871 215.806C185.76 215.806 185.705 215.806 185.594 215.861L180.327 218.91C180.161 219.021 180.106 219.187 180.217 219.353L189.53 235.596L185.594 237.868C185.483 237.924 185.427 238.035 185.427 238.146C185.427 238.257 185.483 238.367 185.594 238.423L197.845 244.41C197.9 244.41 197.956 244.465 198.011 244.465C198.066 244.465 198.066 244.465 198.122 244.465H198.177C198.288 244.41 198.399 244.299 198.399 244.188L199.674 230.385C199.729 230.163 199.674 230.052 199.563 229.997Z" fill="#DBDBDB"/>
<path d="M198.011 244.742C197.9 244.742 197.789 244.742 197.734 244.687L185.483 238.7C185.261 238.589 185.15 238.368 185.15 238.146C185.15 237.924 185.261 237.702 185.483 237.591L189.142 235.485L179.939 219.52C179.773 219.187 179.884 218.799 180.161 218.633L185.427 215.584C185.594 215.473 185.76 215.473 185.926 215.529C186.093 215.584 186.259 215.695 186.314 215.806L195.516 231.771L199.064 229.72C199.286 229.609 199.508 229.609 199.729 229.72C199.951 229.831 200.062 230.052 200.007 230.33L198.732 244.133C198.732 244.41 198.51 244.632 198.288 244.687H198.233C198.122 244.742 198.066 244.742 198.011 244.742ZM185.594 215.806L185.76 216.083L180.494 219.132V219.187L189.973 235.707L185.815 238.146C185.815 238.146 185.815 238.146 185.815 238.201C185.815 238.201 185.815 238.201 185.815 238.257L198.066 244.244H198.177L199.452 230.44C199.452 230.44 199.452 230.44 199.452 230.385L195.35 232.769L185.871 216.249L185.594 215.806Z" fill="#293C4F"/>
<path d="M150.227 218.854L144.961 215.805C144.905 215.75 144.794 215.75 144.683 215.75C144.572 215.75 144.517 215.805 144.462 215.916L135.149 232.159L131.324 229.941C131.213 229.886 131.102 229.886 130.991 229.941C130.88 229.997 130.825 230.107 130.825 230.274L132.1 244.077C132.1 244.243 132.211 244.354 132.322 244.354H132.377C132.432 244.354 132.432 244.354 132.488 244.354C132.543 244.354 132.599 244.354 132.654 244.299L144.905 238.312C145.016 238.256 145.071 238.145 145.071 238.035C145.071 237.924 145.016 237.813 144.905 237.757L140.969 235.485L150.282 219.242C150.449 219.187 150.393 218.965 150.227 218.854Z" fill="#DBDBDB"/>
<path d="M132.543 244.742C132.488 244.742 132.432 244.742 132.377 244.742H132.322C132.044 244.686 131.878 244.465 131.878 244.188L130.603 230.384C130.603 230.163 130.714 229.941 130.88 229.775C131.102 229.664 131.324 229.664 131.545 229.775L135.093 231.826L144.295 215.861C144.406 215.694 144.517 215.584 144.683 215.584C144.85 215.528 145.016 215.583 145.182 215.639L150.449 218.688C150.781 218.854 150.837 219.242 150.67 219.575L141.468 235.54L145.127 237.646C145.349 237.757 145.459 237.979 145.459 238.201C145.459 238.422 145.293 238.644 145.127 238.755L132.876 244.742C132.765 244.742 132.654 244.742 132.543 244.742ZM131.268 230.274C131.213 230.274 131.213 230.274 131.268 230.274L132.488 244.132H132.599L144.85 238.145C144.85 238.145 144.85 238.145 144.85 238.09L140.692 235.651L150.171 219.131V219.076L144.905 216.027L144.794 215.75L144.85 216.027L135.37 232.546L131.268 230.274Z" fill="#293C4F"/>
<path d="M120.791 215.251L137.2 205.716C137.366 205.605 137.421 205.439 137.311 205.272L134.262 200.006C134.206 199.951 134.151 199.895 134.04 199.84C133.929 199.84 133.874 199.84 133.763 199.895L117.354 209.43L115.137 205.605C115.081 205.494 114.971 205.439 114.804 205.439C114.693 205.439 114.583 205.494 114.527 205.66L108.707 218.244C108.651 218.355 108.651 218.521 108.762 218.632L108.817 218.687C108.873 218.743 108.928 218.798 109.039 218.798L122.621 219.741C122.731 219.741 122.842 219.685 122.898 219.574C122.953 219.464 122.953 219.353 122.898 219.242L120.791 215.251Z" fill="#DBDBDB"/>
<path d="M122.787 219.963L109.15 219.02C108.984 219.02 108.873 218.965 108.762 218.854L108.707 218.798C108.54 218.632 108.485 218.3 108.596 218.078L114.416 205.494C114.527 205.273 114.749 205.106 114.971 205.106H115.026C115.248 205.106 115.469 205.217 115.58 205.439L117.631 208.987L133.818 199.618C133.985 199.507 134.151 199.507 134.317 199.563C134.483 199.618 134.594 199.729 134.705 199.84L137.754 205.106C137.92 205.439 137.809 205.827 137.532 205.993L121.346 215.362L123.452 219.02C123.563 219.242 123.563 219.464 123.452 219.685C123.175 219.852 123.009 219.963 122.787 219.963ZM114.915 205.771L109.095 218.355C109.095 218.355 109.095 218.355 109.095 218.41L109.15 218.466V218.521L122.731 219.519V219.464V219.408L120.348 215.195L137.033 205.494V205.439L133.985 200.173L117.299 209.874L114.915 205.771C114.971 205.771 114.971 205.771 114.915 205.771Z" fill="#293C4F"/>
<path d="M141.967 140.027C136.424 138.42 138.198 135.094 134.206 134.317C131.545 133.763 134.373 131.657 131.601 130.104C126.446 134.595 125.004 136.978 122.288 140.138C119.295 143.52 120.569 146.07 121.235 147.511C123.175 151.17 125.281 151.779 127.055 151.28C133.818 149.34 138.641 147.345 145.016 145.404C145.127 145.404 144.905 140.249 141.967 140.027Z" fill="#8BB4D1"/>
<path d="M126.057 151.779C124.117 151.779 122.399 150.394 121.013 147.677L120.958 147.566C120.292 146.125 119.017 143.409 122.066 139.916C122.787 139.085 123.452 138.309 124.062 137.533C125.836 135.426 127.61 133.209 131.435 129.883C131.545 129.772 131.712 129.772 131.823 129.827C133.43 130.714 133.375 131.823 133.319 132.655C133.264 133.431 133.264 133.763 134.317 133.985C136.313 134.373 136.978 135.371 137.699 136.48C138.475 137.644 139.306 138.863 142.078 139.695C144.184 139.916 145.182 142.411 145.404 144.684C145.459 145.46 145.459 145.682 145.182 145.792C142.244 146.679 139.583 147.566 137.033 148.453C133.985 149.507 130.88 150.56 127.222 151.613C126.834 151.724 126.446 151.779 126.057 151.779ZM131.656 130.493C127.998 133.708 126.224 135.814 124.561 137.921C123.951 138.697 123.286 139.473 122.565 140.305C119.793 143.464 120.902 145.793 121.567 147.234L121.623 147.345C122.898 149.839 124.45 151.059 126.113 151.059C126.446 151.059 126.778 151.003 127.055 150.892C130.714 149.839 133.818 148.786 136.867 147.733C139.362 146.846 141.967 145.959 144.794 145.127C144.794 144.462 144.517 142.411 143.575 141.191C143.131 140.637 142.632 140.36 142.023 140.305H141.967C138.918 139.418 137.976 138.032 137.2 136.812C136.535 135.759 135.98 134.983 134.262 134.65C132.654 134.318 132.71 133.375 132.71 132.599C132.599 131.878 132.654 131.158 131.656 130.493Z" fill="#323A50"/>
<g opacity="0.83">
<path opacity="0.57" d="M132.876 133.097C132.876 132.986 132.876 132.876 132.876 132.765C131.213 132.986 129.55 133.208 127.887 133.43C127.72 133.596 127.554 133.762 127.388 133.929C129.328 133.652 131.102 133.374 132.876 133.097Z" fill="url(#paint3_linear_3562_7992)"/>
<path opacity="0.57" d="M134.151 134.206C133.43 134.04 133.153 133.818 132.987 133.485C130.991 133.818 128.995 134.095 127 134.372C126.445 134.982 125.947 135.536 125.503 136.091C128.718 135.592 131.933 135.093 135.149 134.428C134.816 134.372 134.539 134.261 134.151 134.206Z" fill="url(#paint4_linear_3562_7992)"/>
<path opacity="0.57" d="M137.809 137.2C137.699 137.089 137.643 136.922 137.532 136.812C136.701 136.978 135.925 137.144 135.093 137.31C135.98 137.255 136.867 137.2 137.809 137.2Z" fill="url(#paint5_linear_3562_7992)"/>
<path opacity="0.57" d="M129.051 138.475C128.441 138.53 127.831 138.585 127.222 138.641C125.947 138.863 124.672 139.029 123.397 139.251C123.175 139.306 123.009 139.361 122.787 139.417C122.62 139.639 122.454 139.805 122.288 140.027C122.011 140.304 121.789 140.636 121.567 140.914C127.222 139.971 132.876 138.918 138.53 138.031C138.419 137.92 138.364 137.865 138.308 137.754C135.149 137.976 132.1 138.197 129.051 138.475Z" fill="url(#paint6_linear_3562_7992)"/>
<path opacity="0.57" d="M128.053 144.073C125.559 144.572 123.119 145.182 120.625 145.736C120.68 146.013 120.791 146.235 120.847 146.457C127.72 145.126 134.539 143.796 141.413 142.354C136.867 142.798 132.377 143.241 128.053 144.073Z" fill="url(#paint7_linear_3562_7992)"/>
<path opacity="0.57" d="M120.736 145.292C123.23 144.738 125.725 144.073 128.275 143.629C133.541 142.631 138.918 142.188 144.24 141.745C143.907 141.079 143.464 140.47 142.854 140.192C135.315 141.19 127.887 142.687 120.403 143.906C120.348 144.461 120.403 144.96 120.514 145.403C120.569 145.348 120.68 145.348 120.736 145.292Z" fill="url(#paint8_linear_3562_7992)"/>
<path opacity="0.57" d="M123.286 150.115C130.492 148.12 137.699 146.069 145.071 144.794C145.071 144.683 145.071 144.572 145.071 144.461C137.477 146.013 129.938 147.565 122.343 149.007C122.62 149.45 122.953 149.838 123.286 150.115Z" fill="url(#paint9_linear_3562_7992)"/>
</g>
<path d="M216.471 156.325L218.466 156.823L249.454 27.3291H247.403L216.471 156.325Z" fill="#F7113E"/>
<path d="M216.526 169.573C223.108 169.573 228.445 164.237 228.445 157.655C228.445 151.072 223.108 145.736 216.526 145.736C209.944 145.736 204.608 151.072 204.608 157.655C204.608 164.237 209.944 169.573 216.526 169.573Z" fill="url(#paint10_radial_3562_7992)"/>
<path d="M219.852 123.784C219.797 122.121 219.353 120.736 218.854 119.294C218.134 117.077 217.413 114.804 218.078 111.589L218.854 111.755C218.245 114.749 218.91 116.855 219.63 119.072C220.074 120.514 220.573 122.011 220.628 123.784H219.852Z" fill="#323A50"/>
<path d="M234.431 123.84L233.655 123.674C233.988 122.177 234.709 121.29 235.485 120.293C236.316 119.295 237.259 118.131 237.868 115.969L238.644 116.191C237.979 118.519 236.981 119.738 236.094 120.847C235.374 121.734 234.709 122.565 234.431 123.84Z" fill="#323A50"/>
<path d="M226.227 122.067C225.839 122.067 225.229 121.956 224.73 121.512L224.62 121.401L224.675 118.796L225.285 119.129C226.061 119.517 226.781 119.683 227.779 119.683H228.555L227.059 122.067L226.892 122.122C226.837 121.956 226.56 122.067 226.227 122.067ZM225.451 120.958C225.673 121.124 225.95 121.18 226.283 121.18C226.393 121.18 226.449 121.18 226.504 121.18L227.059 120.348C226.504 120.293 226.005 120.182 225.506 120.015L225.451 120.958Z" fill="#323A50"/>
<path d="M233.267 160.149L232.491 159.872C234.099 155.105 233.489 150.781 232.768 145.736C231.937 139.749 230.994 132.931 233.6 123.729C232.99 123.674 231.604 123.784 229.719 125.392C228.389 126.501 227.558 129.383 227.558 129.439L227.114 130.88L226.781 129.383C226.393 127.72 224.897 123.452 222.679 123.341C221.46 123.286 220.905 123.563 220.739 123.729C220.85 125.392 221.515 136.701 217.912 143.907L217.191 143.519C220.905 136.091 219.908 123.674 219.908 123.563V123.396L219.963 123.286C220.018 123.175 220.628 122.399 222.679 122.454C225.063 122.565 226.56 126.002 227.169 127.887C227.558 126.833 228.278 125.447 229.165 124.671C232.159 122.177 234.154 122.953 234.265 122.953L234.598 123.064L234.487 123.396C231.771 132.709 232.713 139.528 233.544 145.515C234.265 150.781 234.875 155.16 233.267 160.149Z" fill="#323A50"/>
<path d="M225.611 88.2467L224.801 88.0596L219.572 110.69L220.382 110.877L225.611 88.2467Z" fill="#323A50"/>
<path d="M227.736 79.4557L226.926 79.2686L225.204 86.7219L226.014 86.909L227.736 79.4557Z" fill="#323A50"/>
<path d="M174.063 242.192C174.008 242.081 173.897 242.025 173.786 242.025H169.407L169.462 223.289C169.462 223.178 169.407 223.122 169.352 223.067C169.296 223.011 169.185 222.956 169.13 222.956H163.032C162.866 222.956 162.699 223.122 162.699 223.289L162.644 242.025H158.098C157.988 242.025 157.877 242.081 157.821 242.192C157.766 242.303 157.766 242.413 157.821 242.524L165.416 253.833C165.471 253.888 165.471 253.888 165.527 253.944C165.527 253.944 165.582 253.944 165.637 253.999H165.693C165.804 254.055 165.97 253.999 166.026 253.888L174.008 242.58C174.119 242.413 174.119 242.303 174.063 242.192Z" fill="#DBDBDB"/>
<path d="M165.36 254.166C165.249 254.11 165.194 254.055 165.139 253.944L157.544 242.636C157.433 242.414 157.378 242.192 157.489 241.97C157.6 241.749 157.821 241.638 158.043 241.638H162.256L162.311 223.234C162.311 222.901 162.589 222.568 162.977 222.568H169.074C169.241 222.568 169.407 222.624 169.518 222.735C169.629 222.846 169.684 223.012 169.684 223.178L169.629 241.582H173.731C173.953 241.582 174.174 241.693 174.285 241.915C174.396 242.137 174.396 242.358 174.23 242.58L166.192 253.889C166.026 254.11 165.748 254.221 165.527 254.166H165.471C165.471 254.221 165.416 254.221 165.36 254.166ZM169.019 222.901V223.178H162.977C162.977 223.178 162.977 223.178 162.977 223.234L162.921 242.248H158.098C158.098 242.248 158.098 242.248 158.098 242.303L165.693 253.612H165.804C165.804 253.612 165.804 253.612 165.859 253.612L173.897 242.303L173.565 242.248H169.019L169.13 223.234L169.019 222.901Z" fill="#293C4F"/>
<path d="M217.413 208.211C217.302 208.211 217.136 208.267 217.08 208.322L214.42 211.814L197.845 199.342C197.789 199.286 197.678 199.286 197.568 199.286C197.457 199.286 197.401 199.342 197.346 199.397L193.687 204.22C193.576 204.386 193.576 204.552 193.743 204.719L210.317 217.191L207.601 220.795C207.546 220.906 207.49 221.016 207.546 221.127C207.601 221.238 207.712 221.294 207.823 221.349L221.404 222.125C221.46 222.125 221.515 222.125 221.571 222.125C221.571 222.125 221.626 222.125 221.626 222.07L221.682 222.014C221.792 221.903 221.848 221.792 221.792 221.626L217.635 208.433C217.635 208.322 217.524 208.211 217.413 208.211Z" fill="#DBDBDB"/>
<path d="M221.737 222.402C221.626 222.458 221.571 222.458 221.46 222.458L207.878 221.682C207.657 221.682 207.435 221.515 207.324 221.294C207.213 221.072 207.269 220.85 207.379 220.628L209.929 217.247L193.576 204.996C193.299 204.774 193.244 204.386 193.465 204.109L197.124 199.286C197.235 199.175 197.401 199.064 197.568 199.064C197.734 199.064 197.9 199.064 198.067 199.175L214.42 211.482L216.914 208.211C217.08 208.045 217.302 207.934 217.524 207.989C217.746 208.045 217.967 208.211 218.023 208.433L222.18 221.626C222.236 221.903 222.18 222.181 221.959 222.347L221.903 222.402C221.792 222.347 221.737 222.347 221.737 222.402ZM197.346 199.452L197.568 199.619L193.909 204.442V204.497L210.761 217.191L207.823 221.016C207.823 221.016 207.823 221.016 207.823 221.072C207.823 221.072 207.823 221.072 207.878 221.072L221.46 221.848L221.515 221.792C221.515 221.792 221.515 221.792 221.515 221.737L217.358 208.544L217.08 208.377L217.302 208.544L214.475 212.313L197.623 199.619L197.346 199.452Z" fill="#293C4F"/>
<path d="M237.924 115.747C237.314 115.858 235.54 116.079 233.323 116.079C232.38 116.079 231.272 116.024 230.163 115.913L251.117 27.3291H250.286L229.331 115.802C228.056 115.636 226.781 115.359 225.506 114.971L246.294 27.3291H245.463L224.73 114.749C222.679 114.028 220.684 112.975 218.965 111.478L238.312 27.3291H237.48L218.134 111.755L218.3 111.922C220.185 113.64 222.347 114.804 224.564 115.58L223.843 118.74L223.788 118.962L223.954 119.128C225.063 120.237 226.56 120.459 227.613 120.459C228.389 120.459 228.943 120.348 228.943 120.348L229.165 120.292L229.997 116.745C231.161 116.855 232.269 116.911 233.323 116.911C236.261 116.911 238.256 116.523 238.367 116.523L238.644 116.467L259.1 27.3845H258.213L237.924 115.747ZM228.5 119.516C228.278 119.572 227.946 119.572 227.558 119.572C226.726 119.572 225.562 119.405 224.62 118.629L225.285 115.747C226.56 116.135 227.89 116.412 229.11 116.578L228.5 119.516Z" fill="#323A50"/>
<path d="M138.198 287.15L137.976 287.039C137.089 286.706 136.257 286.374 135.37 286.041C134.982 286.207 134.65 286.318 134.262 286.485C135.315 286.928 136.368 287.371 137.421 287.759C137.477 289.811 135.204 294.245 132.599 299.401C129.273 305.942 125.115 314.146 124.394 320.355L125.226 320.466C126.002 314.368 130.104 306.275 133.375 299.789C136.257 294.079 138.53 289.589 138.253 287.427L138.198 287.15Z" fill="#323A50"/>
<path opacity="0.2" d="M137.754 287.814C138.807 291.917 126.113 309.766 124.672 321.13C129.106 326.286 142.521 327.783 149.672 325.787C153.996 315.088 150.227 295.354 153.331 291.917C147.289 290.752 142.688 289.755 137.754 287.814Z" fill="url(#paint11_linear_3562_7992)"/>
<path d="M142.244 326.064C135.537 326.064 127.72 324.346 124.339 320.355C124.228 320.188 124.173 320.022 124.173 319.856C124.949 313.647 129.051 305.664 132.322 299.234C134.872 294.3 137.255 289.644 136.978 287.87C136.923 287.482 137.2 287.149 137.532 287.094C137.92 287.039 138.253 287.316 138.308 287.648C138.586 289.866 136.368 294.245 133.486 299.788C130.27 305.997 126.335 313.702 125.503 319.634C129.716 324.18 141.912 325.787 149.063 323.902C151.225 318.304 151.225 310.21 151.225 303.724C151.225 297.904 151.225 293.358 152.555 291.418C152.777 291.141 153.165 291.03 153.497 291.252C153.775 291.473 153.885 291.861 153.664 292.194C152.555 293.802 152.555 298.624 152.555 303.724C152.555 310.487 152.555 318.858 150.171 324.734C150.116 324.9 149.95 325.066 149.728 325.122C147.732 325.787 145.071 326.064 142.244 326.064Z" fill="#323A50"/>
<path opacity="0.19" d="M137.81 287.759C138.863 291.805 126.279 309.156 124.838 320.243C129.217 325.288 142.521 326.729 149.562 324.789C153.885 314.367 150.116 295.132 153.22 291.75C147.233 290.641 142.743 289.588 137.81 287.759Z" fill="url(#paint12_linear_3562_7992)"/>
<path opacity="0.16" d="M139.417 288.147C137.532 295.132 132.432 302.838 129.605 310.044C125.891 319.523 125.891 320.244 126.113 321.242C126.501 322.905 136.701 327.007 147.898 325.288C149.34 325.067 150.116 318.304 150.726 310.875C151.169 305.665 150.227 296.407 151.723 291.529C145.016 290.032 143.852 289.7 139.417 288.147Z" fill="url(#paint13_linear_3562_7992)"/>
<path d="M144.351 294.744C144.295 294.744 144.295 294.799 144.24 294.799C144.462 294.411 144.683 294.023 144.85 293.691C145.57 292.416 146.18 291.418 146.125 290.032C145.847 289.977 145.515 289.866 145.293 289.81C145.404 291.085 144.905 292.028 144.129 293.303C143.63 294.19 143.02 295.243 142.466 296.629C142.189 297.128 141.912 297.682 141.745 298.458C141.634 298.902 141.579 299.345 141.579 299.733C141.413 300.454 141.191 301.119 140.969 301.84C140.969 301.174 141.025 300.454 141.191 299.789C141.69 297.793 142.521 296.019 143.298 294.467C144.129 292.748 144.85 291.196 144.961 289.755C144.628 289.644 144.351 289.589 144.129 289.533C144.129 290.864 143.408 292.36 142.577 294.134C141.801 295.742 140.969 297.516 140.415 299.622C140.082 301.008 140.138 302.228 140.193 303.558C140.193 303.724 140.193 303.946 140.249 304.112C139.583 305.942 138.752 307.937 137.699 310.155C136.313 312.982 135.26 315.975 134.539 318.414C132.987 321.297 131.989 323.459 131.989 323.459L132.765 323.792C132.765 323.792 133.042 323.126 133.541 322.129C133.264 323.293 133.153 323.958 133.153 324.013L133.985 324.18C133.985 324.124 134.428 321.851 135.37 318.747C135.814 317.971 136.257 317.195 136.756 316.363C135.149 320.854 134.317 324.568 134.317 324.623L135.149 324.789C135.149 324.734 136.479 318.747 139.14 312.76C139.971 311.596 140.803 310.487 141.69 309.49C144.129 306.718 143.519 304.39 142.965 302.283C142.743 301.452 142.577 300.675 142.521 299.899C142.632 299.4 142.799 298.957 142.909 298.458C143.02 297.959 143.187 297.46 143.353 297.072C143.796 296.352 144.351 295.964 144.905 295.52C146.069 294.633 147.289 293.691 147.511 290.476C147.233 290.42 146.956 290.365 146.679 290.254C146.457 293.136 145.515 293.912 144.351 294.744ZM139.029 310.765C138.807 311.263 138.53 311.762 138.308 312.261C137.699 313.148 137.144 314.035 136.59 314.867C137.144 313.425 137.754 311.929 138.419 310.487C139.14 309.046 139.694 307.716 140.249 306.441C140.138 307.716 139.805 309.101 139.029 310.765ZM141.025 308.824C140.858 309.046 140.637 309.212 140.47 309.434C141.191 307.383 141.191 305.665 141.136 304.168C141.413 303.336 141.69 302.505 141.967 301.673C142.023 301.895 142.078 302.117 142.133 302.394C142.632 304.445 143.131 306.441 141.025 308.824Z" fill="#323A50"/>
</g>
<defs>
<linearGradient id="paint0_linear_3562_7992" x1="178.254" y1="191.742" x2="143.587" y2="56.8923" gradientUnits="userSpaceOnUse">
<stop offset="0.2655" stop-color="#032A3D" stop-opacity="0"/>
<stop offset="0.7809" stop-color="#032A3D"/>
</linearGradient>
<radialGradient id="paint1_radial_3562_7992" cx="0" cy="0" r="1" gradientUnits="userSpaceOnUse" gradientTransform="translate(166.843 229.386) scale(71.6218 71.2943)">
<stop offset="0.4054" stop-color="#032A3D" stop-opacity="0"/>
<stop offset="1" stop-color="#032A3D"/>
</radialGradient>
<linearGradient id="paint2_linear_3562_7992" x1="187.935" y1="165.341" x2="141.314" y2="116.668" gradientUnits="userSpaceOnUse">
<stop offset="0.3301" stop-color="#C4FFFF"/>
<stop offset="0.8279" stop-color="#47B4FF"/>
<stop offset="1" stop-color="#0C37A6"/>
</linearGradient>
<linearGradient id="paint3_linear_3562_7992" x1="136.48" y1="122.672" x2="118.98" y2="152.571" gradientUnits="userSpaceOnUse">
<stop offset="0.2655" stop-color="#032A3D" stop-opacity="0"/>
<stop offset="0.7809" stop-color="#032A3D"/>
</linearGradient>
<linearGradient id="paint4_linear_3562_7992" x1="137.386" y1="123.202" x2="119.886" y2="153.101" gradientUnits="userSpaceOnUse">
<stop offset="0.2655" stop-color="#032A3D" stop-opacity="0"/>
<stop offset="0.7809" stop-color="#032A3D"/>
</linearGradient>
<linearGradient id="paint5_linear_3562_7992" x1="142.819" y1="126.382" x2="125.319" y2="156.281" gradientUnits="userSpaceOnUse">
<stop offset="0.2655" stop-color="#032A3D" stop-opacity="0"/>
<stop offset="0.7809" stop-color="#032A3D"/>
</linearGradient>
<linearGradient id="paint6_linear_3562_7992" x1="139.016" y1="124.156" x2="121.517" y2="154.056" gradientUnits="userSpaceOnUse">
<stop offset="0.2655" stop-color="#032A3D" stop-opacity="0"/>
<stop offset="0.7809" stop-color="#032A3D"/>
</linearGradient>
<linearGradient id="paint7_linear_3562_7992" x1="141.733" y1="125.746" x2="124.233" y2="155.645" gradientUnits="userSpaceOnUse">
<stop offset="0.2655" stop-color="#032A3D" stop-opacity="0"/>
<stop offset="0.7809" stop-color="#032A3D"/>
</linearGradient>
<linearGradient id="paint8_linear_3562_7992" x1="142.171" y1="126.002" x2="124.671" y2="155.902" gradientUnits="userSpaceOnUse">
<stop offset="0.2655" stop-color="#032A3D" stop-opacity="0"/>
<stop offset="0.7809" stop-color="#032A3D"/>
</linearGradient>
<linearGradient id="paint9_linear_3562_7992" x1="144.98" y1="127.646" x2="127.48" y2="157.545" gradientUnits="userSpaceOnUse">
<stop offset="0.2655" stop-color="#032A3D" stop-opacity="0"/>
<stop offset="0.7809" stop-color="#032A3D"/>
</linearGradient>
<radialGradient id="paint10_radial_3562_7992" cx="0" cy="0" r="1" gradientUnits="userSpaceOnUse" gradientTransform="translate(216.526 157.66) scale(11.9183)">
<stop stop-color="#FF0000"/>
<stop offset="0.1284" stop-color="#FD0304" stop-opacity="0.8616"/>
<stop offset="0.2508" stop-color="#F60D0F" stop-opacity="0.7298"/>
<stop offset="0.3707" stop-color="#EA1D23" stop-opacity="0.6006"/>
<stop offset="0.4891" stop-color="#DA333E" stop-opacity="0.4729"/>
<stop offset="0.6065" stop-color="#C65060" stop-opacity="0.3465"/>
<stop offset="0.7232" stop-color="#AC738B" stop-opacity="0.2208"/>
<stop offset="0.8369" stop-color="#8F9CBD" stop-opacity="0.0981525"/>
<stop offset="0.928" stop-color="#74C2EA" stop-opacity="0"/>
</radialGradient>
<linearGradient id="paint11_linear_3562_7992" x1="139.525" y1="355.751" x2="138.302" y2="240.821" gradientUnits="userSpaceOnUse">
<stop offset="0.2655" stop-color="#032A3D" stop-opacity="0"/>
<stop offset="0.7809" stop-color="#032A3D"/>
</linearGradient>
<linearGradient id="paint12_linear_3562_7992" x1="193.901" y1="274.311" x2="114.006" y2="325.153" gradientUnits="userSpaceOnUse">
<stop offset="0.4054" stop-color="#032A3D" stop-opacity="0"/>
<stop offset="1" stop-color="#032A3D"/>
</linearGradient>
<linearGradient id="paint13_linear_3562_7992" x1="125.421" y1="303.803" x2="151.084" y2="309.84" gradientUnits="userSpaceOnUse">
<stop offset="0.2069" stop-color="#032A3D"/>
<stop offset="0.5151" stop-color="#032A3D" stop-opacity="0.2"/>
<stop offset="0.9216" stop-color="#032A3D"/>
</linearGradient>
<clipPath id="clip0_3562_7992">
<rect width="330" height="330" fill="white"/>
</clipPath>
</defs>
</svg>
