<svg width="330" height="330" viewBox="0 0 330 330" fill="none" xmlns="http://www.w3.org/2000/svg">
<g clip-path="url(#clip0_3618_7296)">
<path d="M165.295 140.31C179.224 140.31 190.516 137.223 190.516 133.415C190.516 129.607 179.224 126.521 165.295 126.521C151.365 126.521 140.073 129.607 140.073 133.415C140.073 137.223 151.365 140.31 165.295 140.31Z" fill="#DBDBDB"/>
<path d="M165.295 141.252C158.459 141.252 152.095 140.545 147.204 139.19C141.959 137.775 139.13 135.772 139.13 133.415C139.13 131.116 141.9 129.113 147.204 127.64C152.036 126.343 158.459 125.577 165.295 125.577C172.13 125.577 178.495 126.284 183.386 127.64C188.63 129.054 191.459 131.058 191.459 133.415C191.459 135.713 188.689 137.716 183.386 139.19C178.554 140.486 172.13 141.252 165.295 141.252ZM165.295 127.463C150.268 127.463 141.016 130.94 141.016 133.415C141.016 135.89 150.268 139.366 165.295 139.366C180.321 139.366 189.573 135.89 189.573 133.415C189.573 130.94 180.38 127.463 165.295 127.463Z" fill="#FF00FF"/>
<g opacity="0.7">
<mask id="mask0_3618_7296" style="mask-type:luminance" maskUnits="userSpaceOnUse" x="139" y="43" width="53" height="98">
<path d="M191.223 133.237V43.9014H139.956V133.355C139.956 133.414 140.014 133.414 140.014 133.473C140.014 137.244 151.506 140.367 165.589 140.367C179.673 140.367 191.164 137.303 191.164 133.473C191.164 133.355 191.223 133.296 191.223 133.237Z" fill="white"/>
</mask>
<g mask="url(#mask0_3618_7296)">
<path d="M206.132 157.752V52.2695H122.925V157.87C122.925 157.928 122.925 157.928 122.925 157.987C122.925 162.466 141.547 166.12 164.588 166.12C187.629 166.12 206.25 162.466 206.25 157.987C206.191 157.928 206.132 157.869 206.132 157.752ZM150.209 153.155C150.15 153.745 149.915 154.275 149.384 154.687C149.207 154.805 149.031 154.864 148.854 154.923C147.734 156.632 145.79 157.811 143.727 157.811C141.252 157.811 139.249 156.337 138.306 154.275C137.54 153.568 136.891 152.684 136.538 151.682C136.125 151.387 135.713 151.093 135.418 150.739C135.123 150.562 134.888 150.327 134.652 150.091C133.238 148.971 132.354 147.262 132.295 145.377C132.177 142.136 135.182 139.366 138.306 139.366C138.541 139.366 138.718 139.366 138.954 139.425C139.131 139.366 139.249 139.366 139.425 139.366C139.897 139.366 140.309 139.543 140.545 139.837C140.899 140.014 141.252 140.191 141.547 140.368C141.606 140.427 141.724 140.486 141.782 140.545C141.959 140.603 142.077 140.662 142.195 140.721C143.727 141.782 145.318 142.961 146.497 144.434C146.674 144.552 146.85 144.728 146.968 144.905C147.263 145.318 147.557 145.671 147.852 146.143C148.147 146.32 148.382 146.673 148.5 146.968C148.5 147.027 148.559 147.086 148.559 147.145C148.618 147.203 148.618 147.262 148.677 147.321C148.677 147.262 148.618 147.262 148.618 147.203C148.795 147.439 148.913 147.675 149.031 147.97C149.09 148.028 149.149 148.146 149.207 148.205C149.738 149.266 150.15 150.562 150.268 151.741C150.268 151.859 150.268 151.918 150.268 152.036C150.327 152.271 150.386 152.507 150.386 152.743C150.327 152.802 150.268 152.978 150.209 153.155Z" fill="url(#paint0_linear_3618_7296)"/>
</g>
</g>
<path d="M165.825 302.009C161.347 302.009 156.809 301.655 152.448 300.948C148.088 300.359 141.311 298.827 136.714 296.823C120.922 290.93 107.427 280.559 97.6448 266.711C87.6859 252.568 82.3823 235.95 82.3823 218.566C82.3823 206.486 84.9163 194.877 89.8663 183.975C94.6395 173.486 101.475 164.234 110.079 156.455C111.139 155.395 112.023 154.452 112.789 153.627C117.15 149.148 117.504 148.795 119.979 145.907C120.273 145.554 120.568 145.2 120.922 144.788C124.398 140.78 130.881 133.296 140.014 127.521L140.427 128.229C131.411 133.945 124.988 141.311 121.511 145.318C121.157 145.73 120.804 146.084 120.509 146.438C117.975 149.325 117.622 149.679 113.261 154.157C112.495 154.982 111.611 155.866 110.55 156.986C93.1073 172.661 83.0895 195.054 83.0895 218.448C83.0895 252.804 104.716 283.918 136.891 295.88C141.429 297.825 148.147 299.357 152.448 299.946C156.809 300.654 161.288 301.007 165.707 301.007C211.259 301.007 248.325 263.941 248.325 218.389C248.325 194.582 238.013 171.895 220.098 156.161C217.977 153.921 216.504 152.448 215.443 151.388C213.381 149.266 212.673 148.559 210.788 146.438C210.493 146.084 210.198 145.73 209.786 145.318C206.663 141.723 200.829 135.005 192.873 129.525L193.345 128.877C201.418 134.416 207.311 141.193 210.434 144.788C210.788 145.2 211.141 145.554 211.377 145.907C213.263 148.088 213.97 148.736 216.032 150.857C217.093 151.918 218.507 153.391 220.688 155.63C229.586 163.409 236.539 172.72 241.489 183.386C246.616 194.405 249.209 206.191 249.209 218.448C249.209 229.704 247.029 240.664 242.668 250.918C238.484 260.877 232.473 269.775 224.754 277.436C217.093 285.096 208.136 291.107 198.236 295.35C187.982 299.77 177.081 302.009 165.825 302.009Z" fill="#323A50"/>
<path opacity="0.2" d="M207.841 155.69C210.788 154.04 212.379 152.979 209.373 149.502C204.247 143.668 188.866 124.045 165.589 124.045H165.295C142.018 124.045 126.638 143.668 121.511 149.502C118.447 152.979 120.863 154.982 122.277 155.984C128.288 152.154 133.709 149.09 140.78 146.791C141.016 146.732 149.855 142.49 164.823 142.372C164.882 142.372 174.959 142.313 184.447 145.259C196.055 148.382 201.654 152.154 207.841 155.69Z" fill="url(#paint1_linear_3618_7296)"/>
<path opacity="0.2" d="M165 287.276C202.688 287.276 233.239 256.883 233.239 219.391C233.239 181.898 202.688 151.505 165 151.505C127.313 151.505 96.7607 181.898 96.7607 219.391C96.7607 256.883 127.313 287.276 165 287.276Z" fill="url(#paint2_radial_3618_7296)"/>
<path opacity="0.34" d="M236.539 187.688C236.48 187.511 236.422 187.334 236.304 187.216C236.068 187.688 235.655 188.1 235.125 188.454C233.711 189.279 231.53 188.866 230.823 187.334C230.411 186.509 229.998 185.743 229.468 184.977C229.232 184.564 228.938 184.211 228.643 183.798C228.525 183.622 228.525 183.622 228.643 183.798C228.584 183.739 228.525 183.622 228.407 183.563C228.289 183.386 228.113 183.209 227.995 183.032C226.757 181.618 225.284 180.204 224.047 179.379C223.28 178.848 222.514 178.377 221.689 177.964C221.454 177.847 221.218 177.729 220.982 177.611C220.923 177.611 220.923 177.611 220.923 177.552C220.511 177.375 220.098 177.257 219.627 177.139C219.155 177.022 218.684 176.904 218.213 176.845L217.505 176.727C217.329 176.727 217.211 176.668 217.034 176.668C215.914 176.55 214.795 176.55 213.734 176.55C209.668 176.668 206.191 177.316 202.184 177.847C198 178.377 193.875 178.672 189.691 178.966C181.5 179.556 173.309 180.557 165.118 180.675C161.052 180.734 157.045 180.027 153.097 179.32C149.148 178.613 145.495 178.082 141.664 177.67C133.709 176.727 125.636 176.314 117.622 177.022C115.972 177.198 114.734 175.725 114.498 174.252C114.439 174.252 114.38 174.252 114.263 174.311C113.791 174.429 113.379 174.547 112.907 174.723C112.672 174.782 112.436 174.9 112.141 175.018C112.023 175.077 111.964 175.077 111.905 175.136C110.02 175.961 108.193 177.081 106.543 178.318C106.484 178.377 106.13 178.672 106.13 178.672C105.895 178.848 105.659 179.025 105.482 179.261C105.07 179.614 104.657 179.968 104.304 180.322C103.538 181.088 102.772 181.913 102.064 182.738C102.005 182.797 102.005 182.856 101.947 182.856C101.947 182.856 101.888 182.914 101.888 182.973C101.711 183.209 101.593 183.386 101.416 183.622C101.122 184.034 100.886 184.388 100.65 184.8C100.414 185.213 100.179 185.566 100.002 185.979C99.943 186.097 99.7073 186.863 99.943 186.097C99.884 186.332 99.7662 186.509 99.7072 186.745C99.118 188.395 97.5858 189.338 95.818 188.925C95.2287 188.807 94.6983 188.454 94.2858 187.982C94.2269 188.1 94.3448 188.218 94.2858 188.336C90.3376 197.647 87.9805 207.841 87.9805 218.566C87.9805 261.289 122.63 295.939 165.354 295.939C208.077 295.939 242.727 261.289 242.727 218.566C242.904 207.488 240.605 197.116 236.539 187.688Z" fill="url(#paint3_linear_3618_7296)"/>
<g opacity="0.2">
<path d="M225.991 247.147L225.52 247.088C225.225 249.445 218.33 252.686 216.857 252.922C216.268 253.04 215.914 252.863 215.561 252.745C215.03 252.509 214.559 252.333 213.616 252.863C212.084 253.806 206.721 259.64 205.543 262.468C204.364 265.356 203.657 266.888 200.946 267.949C199.473 268.538 197.234 268.538 194.877 268.538C192.696 268.538 190.457 268.538 188.748 269.009C186.155 269.716 183.621 270.895 182.443 271.484C183.091 270.777 183.739 270.011 184.328 269.363C185.389 268.125 186.332 267.006 186.921 266.593C187.746 266.004 190.516 265.709 193.462 265.415C197.47 265.002 201.948 264.531 203.362 263.175C204.953 261.702 207.193 256.045 209.02 251.508C209.962 249.091 210.787 247.029 211.318 246.204C211.848 245.32 213.321 244.318 214.912 243.258C217.623 241.49 220.687 239.427 220.628 236.952H220.157C220.216 239.133 217.27 241.077 214.677 242.845C212.968 243.965 211.495 244.966 210.905 245.968C210.375 246.852 209.55 248.915 208.607 251.39C206.839 255.868 204.6 261.466 203.068 262.881C202.537 263.352 201.477 263.765 200.18 264.059C201.064 263.588 202.066 262.881 202.773 261.938C204.07 260.288 205.189 256.399 205.778 254.277C205.896 253.924 205.955 253.57 206.014 253.393C206.25 252.745 205.955 252.333 205.72 251.92C205.425 251.449 205.13 250.977 205.307 249.799C205.543 248.502 206.25 247.972 207.075 247.441C207.605 247.029 208.136 246.675 208.548 246.027C209.55 244.436 208.902 242.786 208.607 241.902V241.843C208.371 241.254 207.841 241.313 207.428 241.313C207.016 241.372 206.78 241.372 206.662 241.136C206.545 240.9 206.839 240.429 207.193 239.957C207.664 239.25 208.253 238.425 207.9 237.659L207.487 237.836C207.723 238.366 207.252 239.015 206.839 239.604C206.427 240.252 206.014 240.841 206.309 241.313C206.603 241.843 207.134 241.784 207.546 241.725C207.959 241.666 208.136 241.666 208.253 241.961V242.02C208.548 242.904 209.137 244.318 208.253 245.674C207.9 246.204 207.428 246.558 206.898 246.97C206.073 247.559 205.189 248.207 204.953 249.681C204.718 251.036 205.071 251.625 205.425 252.156C205.661 252.509 205.778 252.745 205.661 253.216C205.602 253.393 205.484 253.747 205.425 254.1C204.895 256.045 203.775 259.993 202.537 261.584C201.123 263.352 198.648 264.295 198.412 264.354C196.88 264.59 195.112 264.766 193.521 264.943C190.398 265.297 187.687 265.591 186.803 266.181C186.155 266.652 185.212 267.772 184.093 269.068C181.971 271.602 179.025 275.02 177.021 274.902C175.961 274.843 174.841 274.608 173.603 274.372C171.187 273.9 168.477 273.311 165.53 273.841C159.461 275.02 157.398 276.199 156.22 277.613C155.041 278.968 154.452 280.736 154.452 280.795L154.864 280.972C154.864 280.972 155.453 279.204 156.573 277.908C157.693 276.552 159.696 275.433 165.648 274.313C168.477 273.783 171.187 274.313 173.545 274.843C174.782 275.079 175.902 275.315 177.021 275.433C178.553 275.55 180.321 274.018 182.03 272.25L182.148 272.427C182.207 272.427 185.507 270.541 189.043 269.599C190.752 269.127 192.932 269.127 195.053 269.127C197.47 269.127 199.768 269.127 201.3 268.538C204.187 267.418 205.012 265.709 206.191 262.763C207.311 260.052 212.555 254.277 214.028 253.334C214.736 252.863 215.089 253.04 215.561 253.216C215.914 253.393 216.386 253.57 217.152 253.452C218.566 253.158 225.637 249.858 225.991 247.147Z" fill="url(#paint4_linear_3618_7296)"/>
<path d="M170.068 258.166C169.243 258.991 169.42 260.406 169.538 261.997C169.655 263.529 169.832 265.297 169.125 266.711C167.77 269.54 161.7 271.661 161.641 271.72L161.818 272.191C162.054 272.074 168.123 269.952 169.538 266.947C170.304 265.415 170.127 263.588 169.95 261.997C169.832 260.524 169.714 259.227 170.363 258.52C171.07 257.813 173.604 257.224 175.843 256.752C178.436 256.163 180.675 255.633 181.205 254.925C181.736 254.218 181.854 253.57 181.913 252.981C182.03 252.333 182.089 251.861 182.679 251.449C182.973 251.272 184.505 251.331 186.155 251.449C190.693 251.684 197.588 252.097 200.063 248.679C202.007 245.968 201.359 243.965 200.77 242.256C200.298 240.841 199.886 239.604 200.77 238.131C201.477 236.952 202.655 236.599 204.011 236.127C206.663 235.302 209.963 234.241 212.084 227.406C212.555 225.815 212.32 224.165 212.084 222.574C211.73 220.452 211.436 218.449 212.732 216.622L212.379 216.327C211.023 218.331 211.377 220.511 211.671 222.633C211.907 224.224 212.143 225.756 211.73 227.229C209.668 233.829 206.545 234.831 203.952 235.656C202.479 236.127 201.182 236.54 200.416 237.836C199.473 239.486 199.945 240.959 200.416 242.315C201.005 244.024 201.595 245.791 199.768 248.325C197.47 251.508 190.457 251.095 186.273 250.859C184.682 250.741 183.621 250.741 183.032 250.8C183.327 250.152 183.445 249.268 183.621 248.207C183.916 246.44 184.27 244.377 185.33 243.258C185.861 242.727 186.627 242.491 187.57 242.197C189.927 241.49 193.109 240.606 195.643 234.065V234.006C196.114 231.766 195.584 230.175 195.054 229.233C194.818 228.82 194.346 228.584 193.875 228.349C193.345 228.113 192.755 227.818 192.284 227.111C191.459 225.874 191.105 218.92 191.4 217.624C191.4 217.506 191.459 217.447 191.459 217.447C191.518 217.388 191.813 217.506 192.048 217.565C192.755 217.8 193.993 218.272 195.466 217.211L195.171 216.799C193.875 217.741 192.873 217.388 192.166 217.093C191.754 216.975 191.459 216.857 191.223 216.975C191.046 217.034 190.988 217.211 190.929 217.447C190.634 218.743 190.929 225.874 191.871 227.288C192.402 228.113 193.109 228.408 193.698 228.702C194.111 228.879 194.464 229.056 194.641 229.35C195.113 230.234 195.643 231.649 195.171 233.77C192.755 240.075 189.691 240.959 187.452 241.608C186.45 241.902 185.566 242.138 184.977 242.786C183.857 244.024 183.504 246.086 183.15 247.972C182.914 249.209 182.738 250.329 182.325 250.859C181.677 251.331 181.559 251.979 181.441 252.627C181.323 253.216 181.264 253.806 180.793 254.395C180.321 255.043 177.846 255.574 175.666 256.045C173.25 256.811 170.834 257.4 170.068 258.166Z" fill="url(#paint5_linear_3618_7296)"/>
<path d="M170.775 211.377C171.364 212.025 171.836 212.497 171.541 213.911C171.364 214.854 170.834 216.209 170.245 217.682C169.243 220.275 168.241 222.927 168.712 224.106C168.948 224.695 169.302 225.107 169.655 225.52C170.421 226.404 171.187 227.288 170.775 229.939C170.421 232.061 169.302 233.711 168.418 235.066C167.593 236.245 166.945 237.247 167.004 238.248C167.062 239.015 167.475 239.545 167.887 240.075C168.595 240.959 169.361 241.902 168.359 244.259C167.593 246.086 166.532 246.557 165.648 246.911C164.705 247.323 163.939 247.677 164.234 249.445C164.529 251.331 165.707 252.509 166.827 253.629C167.652 254.454 168.477 255.338 169.066 256.457L169.479 256.222C168.889 255.043 168.005 254.1 167.18 253.275C166.061 252.097 165 251.036 164.705 249.327C164.47 247.913 165 247.736 165.884 247.323C166.768 246.911 168.005 246.381 168.83 244.436C169.95 241.784 169.066 240.723 168.241 239.722C167.829 239.191 167.475 238.779 167.416 238.189C167.357 237.364 167.946 236.481 168.712 235.361C169.655 234.006 170.834 232.297 171.187 230.057C171.6 227.17 170.775 226.168 169.95 225.284C169.596 224.872 169.302 224.518 169.066 223.988C168.654 222.927 169.714 220.275 170.598 217.918C171.187 216.445 171.718 215.09 171.895 214.088C172.248 212.438 171.659 211.79 171.011 211.141C170.598 210.67 170.127 210.198 169.95 209.314L169.479 209.432C169.773 210.375 170.304 210.906 170.775 211.377Z" fill="url(#paint6_linear_3618_7296)"/>
<path d="M173.132 275.432C171.541 274.666 167.534 274.312 165.059 274.725C162.702 275.137 158.518 276.08 156.868 277.848C155.925 278.85 155.1 280.795 155.041 280.912L155.454 281.089C155.454 281.089 156.279 279.145 157.162 278.202C158.754 276.493 163.232 275.55 165.059 275.255C167.711 274.784 171.482 275.255 172.837 275.904C174.311 276.611 174.841 277.73 174.9 278.261C175.136 279.911 172.366 281.384 172.366 281.384L172.602 281.796C172.72 281.737 175.666 280.146 175.43 278.202C175.312 277.377 174.664 276.198 173.132 275.432Z" fill="url(#paint7_linear_3618_7296)"/>
<path d="M174.311 246.793C175.136 247.146 175.961 247.441 176.491 248.207C177.139 249.091 178.436 251.389 176.727 253.393C176.02 254.218 174.252 254.866 172.543 255.514C170.834 256.103 169.243 256.693 168.771 257.459C168.241 258.284 168.359 259.698 168.477 261.348C168.595 262.821 168.713 264.353 168.359 265.532C167.652 268.007 161.523 270.894 161.464 270.894L161.641 271.307C161.877 271.189 168.005 268.302 168.771 265.65C169.125 264.353 169.007 262.703 168.948 261.289C168.83 259.816 168.772 258.343 169.184 257.695C169.597 257.046 171.188 256.457 172.779 255.927C174.547 255.278 176.373 254.63 177.139 253.687C178.495 252.096 178.436 249.975 176.963 247.912C176.373 247.028 175.43 246.675 174.547 246.321C173.722 245.968 172.896 245.673 172.543 244.907C171.836 243.375 172.366 241.666 173.368 241.018C173.604 240.841 173.898 240.723 174.134 240.546C174.959 240.016 175.843 239.545 176.963 238.366C178.377 236.834 181.029 230.587 181.5 227.582C181.795 225.814 181.264 225.048 180.793 224.164C180.38 223.516 179.968 222.809 179.85 221.571L179.379 221.63C179.496 222.986 179.968 223.752 180.38 224.4C180.852 225.166 181.323 225.873 181.029 227.464C180.557 230.411 177.964 236.539 176.609 238.012C175.607 239.132 174.723 239.603 173.898 240.134C173.663 240.311 173.368 240.428 173.132 240.605C172.013 241.371 171.364 243.316 172.189 245.084C172.484 246.027 173.427 246.38 174.311 246.793Z" fill="url(#paint8_linear_3618_7296)"/>
</g>
<g opacity="0.2">
<path d="M154.157 273.605C153.981 272.368 152.566 271.366 151.093 270.364C149.973 269.598 148.264 268.655 146.791 267.771C145.495 267.005 144.316 266.416 143.845 266.062C143.727 265.944 143.609 265.827 143.491 265.65C142.784 264.53 142.254 261.76 142.372 259.58C142.431 258.343 142.313 257.4 142.254 256.634C142.136 255.809 142.077 255.219 142.313 254.689C142.489 254.276 142.784 254.218 143.256 254.159C143.727 254.1 144.375 253.982 144.67 253.216C144.906 252.568 144.788 251.86 144.729 251.153C144.611 250.446 144.552 249.798 144.847 249.385C145.141 248.973 145.436 248.855 145.848 248.737C146.261 248.56 146.732 248.384 147.145 247.794C147.498 247.264 147.027 246.557 146.379 245.673C145.495 244.435 144.316 242.668 144.788 240.487C145.318 238.13 146.084 238.248 147.086 238.425C147.557 238.484 148.147 238.602 148.677 238.366C149.62 238.012 150.504 235.95 151.388 233.769C152.095 232.119 152.802 230.351 153.45 229.88C154.157 229.35 154.806 229.232 155.336 229.114C155.925 228.996 156.456 228.878 156.868 228.348C157.398 227.7 157.104 226.816 156.868 226.05C156.75 225.578 156.573 225.107 156.691 224.871L156.279 224.635C156.043 224.989 156.22 225.578 156.397 226.168C156.573 226.875 156.809 227.641 156.456 228.053C156.161 228.466 155.748 228.525 155.159 228.643C154.57 228.76 153.863 228.878 153.097 229.468C152.389 229.998 151.682 231.707 150.916 233.534C150.15 235.419 149.266 237.541 148.441 237.835C147.97 238.012 147.498 237.953 147.027 237.894C145.966 237.718 144.906 237.6 144.257 240.31C143.727 242.668 144.964 244.494 145.907 245.85C146.379 246.557 146.791 247.146 146.614 247.441C146.32 247.912 145.966 248.03 145.554 248.207C145.141 248.325 144.729 248.501 144.375 249.032C143.963 249.621 144.081 250.387 144.198 251.094C144.316 251.743 144.375 252.391 144.198 252.921C144.022 253.451 143.609 253.51 143.138 253.569C142.666 253.628 142.136 253.687 141.841 254.394C141.547 255.043 141.664 255.75 141.782 256.575C141.9 257.341 142.018 258.284 141.9 259.462C141.782 260.818 141.959 262.468 142.313 263.882C141.311 262.232 140.014 259.698 139.838 257.164C139.661 255.043 140.073 254.335 140.604 253.216C141.134 252.155 141.782 250.859 142.313 247.912C143.02 243.728 141.193 239.839 139.956 237.835C140.073 237.423 140.898 234.653 143.079 233.887L144.198 233.475C146.261 232.709 148.088 232.06 149.031 231.589C150.327 230.941 151.27 228.819 151.506 227.523C151.623 226.757 151.27 226.285 150.916 225.873C150.622 225.46 150.327 225.107 150.327 224.518C150.386 223.987 151.152 223.457 152.036 222.868C153.332 222.043 154.923 220.982 155.513 219.214C156.279 217.093 155.513 216.15 154.864 215.325C154.511 214.912 154.216 214.559 154.098 214.028L153.686 214.146C153.863 214.735 154.216 215.207 154.57 215.619C155.218 216.444 155.866 217.21 155.159 219.037C154.57 220.628 153.038 221.63 151.859 222.455C150.798 223.162 149.973 223.693 149.914 224.4C149.856 225.225 150.209 225.696 150.563 226.109C150.857 226.521 151.152 226.816 151.034 227.405C150.798 228.76 149.797 230.646 148.795 231.177C147.852 231.648 145.966 232.296 143.963 233.003L142.843 233.416C140.839 234.123 139.897 236.362 139.543 237.305C139.131 236.716 138.836 236.362 138.836 236.303C138.777 236.244 134.593 232.414 132.707 229.527C130.822 226.58 130.881 224.164 131.882 223.28C132.413 222.809 133.532 222.75 134.77 222.691C135.948 222.632 137.245 222.573 138.423 222.16C140.191 221.512 141.488 218.978 141.841 218.212C142.372 217.093 142.843 215.56 142.548 214.853C142.077 213.557 140.073 213.144 140.014 213.085L139.956 213.557C139.956 213.557 141.782 213.91 142.136 215.03C142.254 215.443 142.077 216.562 141.429 218.035C140.722 219.509 139.543 221.277 138.306 221.748C137.186 222.16 135.948 222.219 134.829 222.278C133.473 222.337 132.354 222.396 131.706 222.927C130.586 223.869 130.35 226.462 132.472 229.762C134.298 232.65 138.364 236.421 138.659 236.657C138.895 236.951 142.902 242.078 141.9 247.853C141.429 250.741 140.781 251.978 140.25 253.039C140.132 253.275 140.014 253.51 139.897 253.746C139.366 252.332 139.425 251.507 139.484 250.859C139.543 249.916 139.484 249.385 138.188 248.56C136.479 247.5 133.179 247.323 130.998 247.205C130.114 247.146 129.348 247.087 128.995 247.028C127.639 246.734 126.932 246.085 126.579 244.848C126.284 243.846 126.52 243.552 126.932 243.021C127.05 242.903 127.168 242.726 127.345 242.55C127.522 242.314 127.875 242.137 128.229 241.902C129.054 241.43 130.173 240.782 130.114 239.132C130.056 237.718 129.113 237.246 128.17 236.716C127.522 236.362 126.873 236.009 126.402 235.36C125.164 233.71 123.691 228.937 123.397 226.285C123.102 223.339 123.632 217.918 124.104 217.564C124.281 217.505 125.047 217.859 125.636 218.153C126.756 218.684 128.17 219.332 129.113 219.096C129.289 219.037 129.407 219.037 129.584 218.978C130.822 218.684 130.939 218.566 130.881 217.328C130.822 216.444 130.173 216.327 129.584 216.268C129.231 216.209 128.818 216.15 128.641 215.855C128.17 215.266 128.347 213.026 128.406 212.201L127.934 212.143C127.875 212.437 127.581 215.266 128.229 216.15C128.523 216.562 129.054 216.621 129.466 216.68C130.056 216.798 130.35 216.857 130.35 217.328C130.409 217.8 130.409 218.094 130.291 218.153C130.173 218.271 129.879 218.33 129.407 218.448C129.289 218.507 129.113 218.507 128.936 218.566C128.111 218.802 126.814 218.153 125.754 217.623C124.752 217.152 124.222 216.916 123.868 217.034C122.925 217.387 122.631 223.987 122.807 226.227C123.102 228.937 124.575 233.769 125.872 235.478C126.402 236.244 127.168 236.598 127.816 236.951C128.7 237.423 129.466 237.835 129.525 239.014C129.584 240.369 128.7 240.9 127.875 241.371C127.463 241.607 127.05 241.843 126.873 242.137C126.756 242.314 126.638 242.432 126.52 242.609C126.048 243.139 125.695 243.61 126.048 244.848C126.461 246.203 127.286 246.969 128.818 247.323C129.113 247.382 129.525 247.441 130.114 247.441C129.761 247.677 129.407 247.677 128.995 247.677C128.582 247.677 128.052 247.618 127.639 247.971C126.873 248.502 127.345 249.385 127.698 250.034C127.875 250.328 127.993 250.623 127.993 250.8C127.993 250.918 127.934 251.035 127.816 251.153C127.581 251.33 127.109 251.389 126.461 251.33C125.754 251.212 124.752 250.152 124.163 249.503C123.927 249.268 123.75 249.032 123.632 248.973C123.397 248.737 123.043 248.796 122.748 248.796C122.395 248.855 121.982 248.855 121.629 248.56C121.393 248.443 121.275 248.207 121.275 247.853C121.216 247.323 121.452 246.734 121.57 246.557C121.629 246.498 121.864 246.498 122.041 246.498C122.336 246.498 122.689 246.498 122.984 246.262C123.456 245.85 123.632 245.202 123.573 244.2C123.514 243.61 123.043 243.61 122.631 243.61C122.159 243.61 121.629 243.551 121.393 242.903C121.216 242.432 121.452 241.96 121.806 241.371C122.336 240.487 122.984 239.309 122.1 237.718C121.039 235.714 119.861 235.95 118.977 236.126C118.682 236.185 118.388 236.244 118.211 236.185C118.034 236.127 117.916 236.009 117.916 235.95C117.857 235.773 117.975 235.596 118.034 235.537L117.681 235.243C117.622 235.301 117.386 235.655 117.504 236.068C117.563 236.303 117.798 236.539 118.093 236.657C118.388 236.775 118.741 236.716 119.095 236.657C119.92 236.48 120.804 236.303 121.747 238.012C122.513 239.427 121.982 240.369 121.452 241.253C121.098 241.902 120.745 242.491 120.981 243.198C121.334 244.141 122.1 244.141 122.631 244.2C123.102 244.2 123.161 244.259 123.161 244.376C123.22 245.201 123.102 245.791 122.748 246.085C122.572 246.203 122.336 246.203 122.1 246.203C121.806 246.203 121.511 246.203 121.275 246.439C121.039 246.675 120.745 247.441 120.863 248.089C120.922 248.502 121.098 248.855 121.393 249.091C121.923 249.444 122.454 249.444 122.807 249.385C123.102 249.385 123.279 249.327 123.397 249.444C123.514 249.503 123.691 249.739 123.868 249.975C124.516 250.741 125.577 251.86 126.402 251.978C126.402 251.978 126.402 251.978 126.461 251.978C127.227 252.096 127.816 251.978 128.17 251.684C128.347 251.507 128.464 251.271 128.523 250.977C128.523 250.682 128.347 250.387 128.17 249.975C127.816 249.268 127.581 248.796 127.993 248.501C128.347 248.266 128.7 248.266 129.054 248.266C129.584 248.266 130.232 248.325 130.822 247.618C130.881 247.618 130.939 247.618 130.998 247.618C133.12 247.735 136.42 247.971 138.011 248.914C139.131 249.621 139.131 249.975 139.072 250.8C139.013 251.566 138.954 252.568 139.72 254.335C139.484 255.043 139.366 255.868 139.484 257.223C139.779 261.348 142.961 265.532 143.197 265.826C143.314 266.003 143.491 266.18 143.609 266.298C144.081 266.652 145.259 267.3 146.614 268.066C148.088 268.891 149.797 269.834 150.916 270.6C152.213 271.543 153.627 272.485 153.804 273.546C153.863 274.018 153.745 274.548 153.273 275.078C151.682 277.2 149.679 284.566 149.679 284.802L150.091 284.86C150.15 284.389 152.154 277.318 153.627 275.373C154.039 274.843 154.216 274.253 154.157 273.605Z" fill="url(#paint9_linear_3618_7296)"/>
<path d="M150.975 275.549C150.327 273.31 147.086 270.894 146.025 270.246C143.727 268.831 138.424 268.537 136.007 269.067C134.888 269.303 134.122 269.656 133.415 270.01C132.649 270.363 132 270.717 131.057 270.717C129.231 270.717 128.229 270.953 127.345 271.601C127.168 271.719 127.109 271.896 127.109 272.013C127.109 272.367 127.404 272.721 127.816 273.074C128.111 273.369 128.524 273.722 128.465 273.958C128.465 274.076 128.347 274.135 128.229 274.194C127.05 274.842 126.107 273.899 126.049 273.899L125.754 274.194C125.754 274.194 126.932 275.431 128.465 274.606C128.759 274.43 128.877 274.253 128.936 274.017C128.995 273.546 128.582 273.133 128.111 272.78C127.875 272.544 127.522 272.249 127.522 272.072L127.581 272.013C128.347 271.424 129.29 271.188 130.999 271.188C132 271.188 132.707 270.835 133.532 270.422C134.181 270.069 134.947 269.715 136.007 269.48C138.306 269.008 143.491 269.244 145.672 270.599C146.968 271.424 149.856 273.663 150.445 275.667C150.622 276.197 150.327 277.199 149.974 277.906C148.206 282.031 147.616 284.978 147.616 285.037L148.029 285.155C148.029 285.155 148.618 282.208 150.386 278.142C150.74 277.612 151.211 276.315 150.975 275.549Z" fill="url(#paint10_linear_3618_7296)"/>
<path d="M152.036 275.137C151.918 274.312 151.093 273.37 150.798 273.075C150.739 273.016 150.739 273.016 150.739 272.957C149.089 271.012 146.673 269.127 145.082 268.537C144.67 268.361 144.08 268.243 143.432 268.125C140.839 266.887 138.364 266.416 135.948 265.945C134.652 265.709 133.297 265.414 131.941 265.061C128.347 264 122.277 257.989 122.041 257.753C121.864 257.518 117.739 252.332 117.386 250.505C117.209 249.739 116.325 245.85 115.913 244.73C115.5 243.787 110.314 242.078 109.313 241.725H109.254C106.72 241.607 103.066 241.371 102.713 241.136C102.3 240.841 101.829 239.427 101.888 238.837C101.888 238.602 102.182 238.425 102.477 238.248C102.948 237.953 103.479 237.541 103.597 236.834C103.655 236.303 103.302 234.712 102.654 232.178C102.064 229.762 101.239 226.462 101.475 225.873C101.652 225.343 102.005 225.284 102.3 225.166C102.595 225.107 103.007 224.989 103.125 224.459C103.184 224.282 103.066 224.164 103.007 224.046C102.772 223.752 102.241 223.811 101.534 223.87C100.827 223.928 99.8841 223.987 99.5305 223.634L99.2358 223.987C99.7662 224.459 100.709 224.4 101.534 224.341C101.947 224.341 102.536 224.282 102.654 224.4C102.595 224.636 102.477 224.695 102.182 224.753C101.829 224.871 101.298 224.989 101.004 225.755C100.768 226.403 101.298 228.761 102.182 232.296C102.654 234.3 103.184 236.303 103.125 236.775C103.066 237.305 102.595 237.6 102.182 237.894C101.77 238.13 101.416 238.425 101.357 238.837C101.239 239.603 101.77 241.195 102.359 241.607C102.83 241.961 107.604 242.196 109.136 242.255C112.082 243.198 115.264 244.494 115.441 244.966C115.795 245.791 116.384 248.443 116.914 250.623C117.327 252.568 121.511 257.812 121.688 258.048C121.923 258.284 128.052 264.412 131.823 265.532C133.179 265.944 134.534 266.18 135.83 266.416C137.775 266.769 139.72 267.182 141.782 267.948C140.663 267.83 139.425 267.712 138.247 267.653C137.245 267.594 136.361 267.536 135.595 267.418C129.997 266.828 126.873 266.003 124.87 264.53C122.572 262.939 115.736 256.869 115.147 256.162C114.852 255.809 114.734 255.337 114.557 254.807C114.439 254.395 114.322 253.923 114.086 253.393C113.202 251.448 109.961 249.386 107.604 247.853C106.366 247.087 105.305 246.38 105.07 246.027C104.716 245.496 104.834 245.143 105.011 244.671C105.129 244.377 105.305 243.964 105.305 243.493H104.834C104.834 243.905 104.716 244.2 104.598 244.495C104.363 245.025 104.186 245.496 104.657 246.262C104.952 246.675 105.954 247.323 107.309 248.207C109.666 249.68 112.848 251.743 113.673 253.57C113.909 254.041 114.027 254.512 114.145 254.925C114.322 255.514 114.439 255.986 114.793 256.457C115.382 257.164 122.277 263.293 124.575 264.884C126.697 266.357 129.82 267.241 135.536 267.83C136.302 267.889 137.186 268.007 138.188 268.066C140.663 268.243 143.491 268.42 144.905 268.95C146.438 269.48 148.795 271.366 150.386 273.252C150.386 273.252 150.445 273.311 150.504 273.37C150.739 273.664 151.564 274.548 151.682 275.196C151.8 275.845 151.329 277.141 150.68 278.85C150.091 280.5 149.325 282.562 148.677 285.037L149.089 285.155C149.738 282.68 150.504 280.677 151.093 279.027C151.682 277.2 152.154 275.962 152.036 275.137Z" fill="url(#paint11_linear_3618_7296)"/>
<path d="M104.775 212.142C104.716 212.496 104.362 213.026 103.95 213.616C103.184 214.735 102.359 215.973 102.889 216.975C103.184 217.505 103.891 217.976 104.716 218.566C106.248 219.567 108.193 220.864 108.959 223.221C110.196 226.934 113.378 233.592 113.378 233.651V233.71C113.437 233.769 117.268 239.014 115.971 244.082L116.384 244.2C117.739 239.014 114.027 233.887 113.732 233.475C113.732 233.416 113.614 233.239 113.496 233.003C114.027 232.885 115.205 232.532 116.03 231.471C116.62 230.705 116.855 229.644 116.737 228.466C116.502 226.403 115.5 224.459 114.616 222.75C113.85 221.276 113.202 220.039 113.261 219.096C113.32 218.271 113.791 218.153 114.38 217.976C115.087 217.8 115.971 217.505 116.148 215.973C116.325 214.323 115.205 213.616 114.262 213.026C113.496 212.555 113.084 212.26 113.143 211.73C113.261 210.257 115.382 208.194 115.382 208.194L115.087 207.841C114.97 207.959 112.848 210.021 112.73 211.671C112.671 212.496 113.378 212.967 114.086 213.38C114.97 213.91 115.912 214.5 115.736 215.855C115.618 217.093 114.97 217.269 114.262 217.446C113.614 217.623 112.907 217.8 112.789 218.919C112.73 219.98 113.378 221.276 114.145 222.809C114.97 224.459 115.971 226.344 116.207 228.348C116.325 229.409 116.148 230.292 115.618 231C114.852 232.001 113.673 232.296 113.261 232.355C112.318 230.41 110.255 225.755 109.253 222.926C108.428 220.451 106.366 219.037 104.834 218.035C104.068 217.505 103.361 217.034 103.125 216.621C102.712 215.855 103.478 214.735 104.127 213.793C104.539 213.144 104.952 212.555 105.011 212.142C105.07 211.494 104.48 210.551 103.714 209.432C103.066 208.43 102.3 207.31 102.182 206.485L101.77 206.544C101.887 207.487 102.653 208.607 103.361 209.668C104.186 210.728 104.834 211.671 104.775 212.142Z" fill="url(#paint12_linear_3618_7296)"/>
<path d="M149.384 277.081C148.854 275.844 147.263 274.842 146.143 274.076C145.672 273.781 145.318 273.546 145.141 273.369C144.965 273.192 144.906 273.015 144.906 272.839C144.788 272.308 144.611 271.837 143.491 271.365C141.782 270.658 137.657 270.305 136.302 271.13C135.772 271.483 135.654 271.896 135.713 272.249C135.831 273.192 137.009 274.076 138.011 274.43C138.718 274.665 138.777 275.431 138.836 276.197C138.895 276.846 138.954 277.553 139.425 277.906C139.72 278.142 139.897 278.378 139.838 278.614C139.779 278.849 139.366 279.144 138.424 279.262C137.127 279.38 135.124 278.908 135.065 278.849L134.947 279.262C135.006 279.262 137.068 279.792 138.424 279.674C139.425 279.556 140.074 279.203 140.191 278.672C140.309 278.26 140.074 277.847 139.602 277.494C139.307 277.258 139.249 276.728 139.19 276.139C139.131 275.314 139.072 274.312 138.07 274.017C137.009 273.664 136.125 272.897 136.066 272.249C136.007 272.014 136.184 271.778 136.42 271.601C137.599 270.894 141.429 271.13 143.197 271.837C144.199 272.249 144.257 272.603 144.375 272.956C144.434 273.192 144.493 273.487 144.729 273.722C144.906 273.899 145.318 274.194 145.79 274.489C146.85 275.137 148.382 276.197 148.913 277.258C149.266 278.024 148.854 278.849 148.324 280.028C147.852 281.147 147.204 282.503 146.968 284.389L147.381 284.447C147.616 282.621 148.265 281.324 148.736 280.205C149.384 278.967 149.856 278.024 149.384 277.081Z" fill="url(#paint13_linear_3618_7296)"/>
</g>
<path d="M164.47 184.446C186.015 184.446 203.48 175.054 203.48 163.468C203.48 151.882 186.015 142.489 164.47 142.489C142.925 142.489 125.459 151.882 125.459 163.468C125.459 175.054 142.925 184.446 164.47 184.446Z" fill="#2A697F"/>
<path d="M164.116 163.762C173.554 163.762 181.205 159.963 181.205 155.277C181.205 150.59 173.554 146.791 164.116 146.791C154.678 146.791 147.027 150.59 147.027 155.277C147.027 159.963 154.678 163.762 164.116 163.762Z" fill="#293C4F"/>
<path d="M164.116 148.854C172.896 148.854 180.086 152.095 181.088 156.279C181.146 155.925 181.205 155.63 181.205 155.277C181.205 150.621 173.545 146.791 164.116 146.791C154.688 146.791 147.027 150.562 147.027 155.277C147.027 155.63 147.086 155.984 147.145 156.279C148.147 152.095 155.336 148.854 164.116 148.854Z" fill="#DBDBDB"/>
<path d="M181.088 157.987L180.675 156.337C179.673 152.271 172.543 149.207 164.057 149.207C155.572 149.207 148.441 152.271 147.439 156.337L147.027 157.987L146.614 156.337C146.497 155.984 146.497 155.571 146.497 155.218C146.497 152.801 148.382 150.562 151.741 148.853C155.041 147.203 159.402 146.319 163.998 146.319C168.595 146.319 173.014 147.203 176.256 148.853C179.614 150.503 181.5 152.801 181.5 155.218C181.5 155.571 181.441 155.925 181.382 156.337L181.088 157.987ZM164.116 148.441C171.777 148.441 178.436 150.975 180.734 154.51C179.909 150.444 172.779 147.203 164.116 147.203C155.454 147.203 148.323 150.385 147.498 154.51C149.797 150.916 156.456 148.441 164.116 148.441Z" fill="#323A50"/>
<path d="M164.587 142.548C143.02 142.548 125.577 151.741 125.577 163.055C125.577 174.369 143.02 183.562 164.587 183.562C186.155 183.562 203.598 174.369 203.598 163.055C203.539 151.741 186.096 142.548 164.587 142.548ZM181.264 155.394C181.264 155.453 181.323 155.512 181.323 155.512C181.323 155.571 181.323 155.63 181.323 155.689C180.616 159.932 173.25 163.291 164.293 163.291C155.512 163.291 148.323 160.109 147.321 156.043C147.321 155.925 147.262 155.807 147.262 155.748C147.262 155.689 147.262 155.63 147.262 155.571C147.262 155.512 147.262 155.571 147.262 155.512C147.262 155.394 147.262 155.276 147.262 155.276C147.262 155.276 147.262 154.864 147.262 154.746C147.321 154.157 147.498 153.567 147.793 153.037C148.087 152.507 148.441 151.976 148.912 151.505L148.971 151.446C151.741 148.676 157.634 146.732 164.411 146.732C173.839 146.732 181.559 150.444 181.559 154.982H181.382C181.205 155.159 181.264 155.276 181.264 155.394Z" fill="#DBDBDB"/>
<path d="M164.587 183.975C154.098 183.975 144.257 181.854 136.832 177.905C129.348 173.957 125.164 168.654 125.164 163.055C125.164 157.398 129.289 152.154 136.832 148.205C144.257 144.316 154.098 142.136 164.587 142.136C175.077 142.136 184.918 144.257 192.343 148.205C199.827 152.154 204.01 157.457 204.01 163.055C204.01 168.712 199.885 173.957 192.343 177.905C184.918 181.854 175.018 183.975 164.587 183.975ZM164.587 142.961C143.314 142.961 125.989 151.977 125.989 163.055C125.989 174.134 143.314 183.15 164.587 183.15C185.86 183.15 203.185 174.134 203.185 163.055C203.185 151.977 185.86 142.961 164.587 142.961ZM164.175 163.763C155.335 163.763 147.852 160.521 146.791 156.161C146.791 156.043 146.732 155.925 146.732 155.807C146.732 155.748 146.732 155.689 146.673 155.63C146.673 155.571 146.673 155.513 146.673 155.454V155.395C146.673 155.277 146.673 155.218 146.673 155.041V154.629V154.57C146.732 153.98 146.909 153.391 147.262 152.802C147.557 152.271 147.969 151.741 148.441 151.211L148.5 151.152C151.446 148.205 157.457 146.379 164.234 146.379C168.889 146.379 173.25 147.263 176.55 148.854C179.968 150.504 181.794 152.684 181.794 155.1V155.513H181.677C181.677 155.571 181.677 155.571 181.677 155.63C181.677 155.689 181.677 155.748 181.618 155.807C180.91 160.345 173.427 163.763 164.175 163.763ZM147.498 155.1C147.498 155.218 147.498 155.277 147.498 155.336V155.395C147.498 155.454 147.498 155.454 147.498 155.513C147.498 155.571 147.498 155.63 147.498 155.689C147.498 155.807 147.557 155.866 147.557 155.984C148.559 159.932 155.689 162.938 164.175 162.938C172.837 162.938 180.144 159.755 180.852 155.689V155.63C180.852 155.571 180.793 155.513 180.852 155.454C180.852 155.454 180.852 155.395 180.852 155.336C180.852 155.277 180.852 155.218 180.852 155.1V154.688H181.028C180.793 152.802 179.143 150.975 176.255 149.62C173.073 148.088 168.83 147.263 164.293 147.263C157.869 147.263 151.918 149.03 149.148 151.8L149.089 151.859C148.618 152.33 148.323 152.802 148.028 153.214C147.793 153.686 147.616 154.216 147.557 154.688C147.498 154.805 147.498 155.041 147.498 155.1Z" fill="#323A50"/>
<g opacity="0.3">
<path d="M165.53 296.47C165.471 296.47 165.412 296.47 165.412 296.47C151.682 296.47 138.07 292.64 126.048 285.509H125.989L125.4 284.92C110.314 276.199 99 262.586 92.6357 245.556C90.1018 238.956 88.5696 231.943 87.9214 224.047C87.6857 220.334 87.6857 216.857 87.9214 213.204C88.0982 209.55 88.6286 205.838 89.5714 201.536C90.5143 197.116 91.9875 192.697 93.9911 188.041L94.7571 188.395C92.7536 192.991 91.2803 197.352 90.3964 201.713C89.4536 206.015 88.9821 209.668 88.7464 213.263C88.5696 216.916 88.5696 220.334 88.7464 224.047C89.3946 231.884 90.9268 238.838 93.4018 245.32C99.7071 262.174 110.962 275.668 125.871 284.272H125.93L126.52 284.861C150.857 299.24 179.968 299.299 204.423 285.038C205.602 284.213 206.898 283.388 208.312 282.563C221.277 274.254 230.941 262.35 237.129 247.265C237.423 246.557 237.659 245.791 237.954 245.025C238.189 244.259 238.484 243.493 238.779 242.786C243.493 228.466 244.023 213.852 240.37 199.356V199.297C240.252 198.707 237.836 191.282 236.363 187.924L237.129 187.629C238.484 190.811 240.959 198.236 241.195 199.238C244.848 213.911 244.318 228.643 239.545 243.14V243.199C239.25 243.906 239.014 244.672 238.72 245.438C238.484 246.204 238.189 246.97 237.895 247.736C231.648 262.999 221.866 275.02 208.784 283.447C207.37 284.272 206.132 285.097 204.954 285.863C192.755 292.757 179.202 296.47 165.53 296.47Z" fill="#323A50"/>
</g>
<path d="M137.598 130.232C137.48 130.232 137.362 130.173 137.244 130.055C137.127 129.879 137.185 129.643 137.362 129.466C137.775 129.171 138.187 128.936 138.541 128.641C138.718 128.523 138.953 128.582 139.13 128.759C139.248 128.936 139.189 129.171 139.012 129.348C138.6 129.584 138.246 129.879 137.834 130.173C137.775 130.232 137.716 130.232 137.598 130.232ZM193.698 130.114C193.639 130.114 193.521 130.114 193.462 130.055C192.814 129.584 192.107 129.112 191.459 128.7C191.282 128.582 191.223 128.346 191.341 128.111C191.459 127.934 191.694 127.875 191.93 127.993C192.637 128.405 193.286 128.877 193.993 129.348C194.169 129.466 194.228 129.761 194.11 129.937C193.993 130.055 193.875 130.114 193.698 130.114ZM140.839 128.111C140.721 128.111 140.544 128.052 140.485 127.934C140.368 127.757 140.427 127.462 140.603 127.345C141.31 126.932 142.018 126.52 142.725 126.107C142.902 125.989 143.196 126.048 143.255 126.284C143.373 126.461 143.314 126.755 143.078 126.814C142.371 127.227 141.664 127.639 140.957 128.052C141.016 128.111 140.957 128.111 140.839 128.111ZM189.573 127.462C189.514 127.462 189.455 127.462 189.396 127.404C188.689 126.991 187.982 126.579 187.275 126.225C187.098 126.107 186.98 125.871 187.098 125.695C187.216 125.518 187.452 125.4 187.628 125.518C188.335 125.871 189.102 126.284 189.809 126.696C189.986 126.814 190.044 127.05 189.927 127.227C189.868 127.404 189.75 127.462 189.573 127.462ZM145.141 125.754C144.964 125.754 144.846 125.695 144.787 125.518C144.669 125.341 144.787 125.046 144.964 124.987C145.73 124.634 146.437 124.28 147.203 123.927C147.439 123.809 147.675 123.927 147.734 124.162C147.852 124.339 147.734 124.634 147.498 124.693C146.791 124.987 146.025 125.341 145.318 125.754C145.259 125.695 145.2 125.754 145.141 125.754ZM185.271 125.164C185.212 125.164 185.153 125.164 185.094 125.105C184.387 124.752 183.621 124.457 182.855 124.104C182.619 124.045 182.56 123.75 182.619 123.573C182.678 123.337 182.914 123.279 183.15 123.337C183.916 123.632 184.682 123.986 185.389 124.339C185.566 124.457 185.684 124.693 185.566 124.87C185.566 125.105 185.448 125.164 185.271 125.164ZM149.619 123.75C149.443 123.75 149.325 123.632 149.266 123.514C149.207 123.279 149.266 123.043 149.502 122.984C150.268 122.689 151.034 122.395 151.8 122.159C152.035 122.1 152.271 122.218 152.33 122.395C152.389 122.63 152.271 122.866 152.094 122.925C151.328 123.161 150.562 123.455 149.796 123.75C149.737 123.75 149.678 123.75 149.619 123.75ZM180.734 123.337C180.675 123.337 180.616 123.337 180.616 123.337C179.85 123.043 179.084 122.807 178.318 122.571C178.082 122.512 177.964 122.277 178.023 122.041C178.082 121.805 178.318 121.687 178.553 121.746C179.319 121.982 180.144 122.218 180.91 122.512C181.146 122.571 181.205 122.807 181.146 123.043C181.087 123.22 180.911 123.337 180.734 123.337ZM154.275 122.218C154.098 122.218 153.921 122.1 153.862 121.923C153.803 121.687 153.921 121.511 154.157 121.393C154.923 121.157 155.748 120.98 156.573 120.804C156.809 120.745 156.985 120.921 157.044 121.098C157.103 121.334 156.927 121.511 156.75 121.57C155.984 121.746 155.159 121.923 154.393 122.159C154.334 122.218 154.334 122.218 154.275 122.218ZM176.078 121.923C176.019 121.923 176.019 121.923 175.96 121.923C175.194 121.746 174.369 121.57 173.603 121.393C173.368 121.334 173.25 121.157 173.25 120.921C173.309 120.686 173.485 120.568 173.721 120.568C174.546 120.745 175.312 120.921 176.137 121.098C176.373 121.157 176.491 121.393 176.432 121.57C176.432 121.805 176.255 121.923 176.078 121.923ZM159.048 121.157C158.871 121.157 158.694 121.039 158.636 120.804C158.577 120.568 158.753 120.391 158.989 120.332C159.814 120.214 160.639 120.096 161.464 119.979C161.7 119.979 161.877 120.096 161.935 120.332C161.994 120.568 161.818 120.745 161.582 120.804C160.757 120.862 159.991 120.98 159.166 121.157C159.107 121.157 159.107 121.157 159.048 121.157ZM171.246 120.98C170.421 120.862 169.596 120.804 168.771 120.686C168.535 120.686 168.359 120.45 168.418 120.273C168.418 120.037 168.653 119.861 168.83 119.92C169.655 119.979 170.48 120.096 171.305 120.214C171.541 120.273 171.659 120.45 171.659 120.686C171.6 120.862 171.423 120.98 171.246 120.98ZM163.939 120.627C163.703 120.627 163.527 120.45 163.527 120.214C163.527 119.979 163.703 119.861 163.939 119.861C164.528 119.802 165.059 119.861 165.648 119.861H165.943C166.119 119.861 166.296 119.802 166.473 119.802C166.709 119.802 166.886 119.92 166.886 120.155C166.886 120.391 166.709 120.45 166.473 120.45C166.296 120.45 166.119 120.45 166.002 120.45H165.766C165.059 120.509 164.528 120.568 163.939 120.627Z" fill="#323A50"/>
<path d="M262.821 190.103C260.936 183.857 255.986 179.614 247.971 177.551C243.375 176.373 239.132 176.255 237.305 176.255C237.247 176.019 237.129 175.783 236.952 175.607C238.543 175.548 243.139 175.607 248.089 176.903C256.163 179.024 261.466 183.503 263.352 189.867C263.764 190.692 275.373 215.148 276.846 229.467C277.2 233.239 280.264 234.064 285.863 235.596C290.459 236.833 296.823 238.601 304.661 242.785L304.366 243.374C296.588 239.191 290.282 237.482 285.686 236.244C280.029 234.712 276.611 233.769 276.198 229.526C275.02 217.858 267.005 199.296 263.941 192.578C264.118 197.528 260.641 204.364 253.629 213.026C246.911 221.276 236.952 231.176 223.988 242.432C219.155 246.616 214.323 250.682 209.668 254.453L208.902 254.217C213.616 250.446 218.625 246.203 223.575 241.96C252.686 216.621 266.239 198.707 262.821 190.103Z" fill="#323A50"/>
<path d="M239.309 182.325C239.25 181.853 238.602 179.555 238.484 179.143C238.543 178.907 239.427 180.321 239.368 180.085C239.368 179.614 239.073 179.143 238.661 178.848C238.72 178.376 238.72 178.141 238.248 177.846C238.307 177.61 237.777 177.61 237.718 177.434C238.543 178.848 239.545 180.675 239.839 182.207C241.195 189.337 230.352 206.191 207.605 232.296C202.597 238.071 197.529 243.728 192.932 248.619L192.225 248.384C212.614 226.462 241.077 193.168 239.309 182.325Z" fill="#323A50"/>
<path d="M237.07 175.548C237.188 175.666 237.247 175.784 237.364 175.901L241.607 175.725C239.663 175.548 238.072 175.548 237.07 175.548Z" fill="#323A50"/>
<path d="M238.248 177.611L249.15 177.198C248.737 177.08 248.325 176.963 247.853 176.845L238.071 177.257C238.13 177.316 238.189 177.493 238.248 177.611Z" fill="#323A50"/>
<path d="M238.661 179.26L253.157 178.671C252.863 178.553 252.627 178.435 252.332 178.317L238.543 178.848C238.543 178.907 238.543 178.966 238.543 179.025C238.543 179.142 238.602 179.201 238.661 179.26Z" fill="#323A50"/>
<path d="M239.309 180.969L255.986 180.321C255.809 180.203 255.573 180.085 255.396 179.908L239.25 180.556C239.25 180.733 239.309 180.851 239.309 180.969Z" fill="#323A50"/>
<path d="M239.486 182.56L257.989 181.794C257.813 181.676 257.695 181.559 257.518 181.382L239.486 182.089C239.486 182.266 239.486 182.443 239.486 182.56Z" fill="#323A50"/>
<path d="M239.545 184.27L259.64 183.445C259.522 183.327 259.404 183.209 259.286 183.032L239.545 183.857C239.604 184.034 239.545 184.152 239.545 184.27Z" fill="#323A50"/>
<path d="M239.309 185.683C239.25 185.801 239.25 185.919 239.191 185.978L260.936 185.094C260.818 184.976 260.759 184.799 260.641 184.682L239.309 185.566C239.309 185.624 239.309 185.624 239.309 185.683Z" fill="#323A50"/>
<path d="M238.779 187.51C238.779 187.569 238.72 187.687 238.72 187.746L261.997 186.803C261.938 186.685 261.879 186.508 261.761 186.391L238.838 187.333C238.779 187.392 238.779 187.451 238.779 187.51Z" fill="#323A50"/>
<path d="M238.131 189.043L262.586 188.041C262.645 188.159 262.704 188.336 262.763 188.454L238.013 189.455C238.013 189.337 238.072 189.22 238.131 189.043Z" fill="#323A50"/>
<path d="M237.364 190.811L263.175 189.75C263.234 189.868 263.234 189.986 263.293 190.162L237.188 191.223C237.246 191.105 237.305 190.988 237.364 190.811Z" fill="#323A50"/>
<path d="M236.539 192.519L263.529 191.399C263.529 191.517 263.588 191.635 263.588 191.812L236.304 192.932C236.422 192.814 236.48 192.696 236.539 192.519Z" fill="#323A50"/>
<path d="M235.656 194.288L263.706 193.168C263.706 193.286 263.706 193.463 263.706 193.58L235.42 194.7C235.479 194.582 235.538 194.464 235.656 194.288Z" fill="#323A50"/>
<path d="M234.713 195.937L263.529 194.759C263.529 194.877 263.47 195.053 263.47 195.171L234.477 196.35C234.536 196.232 234.654 196.055 234.713 195.937Z" fill="#323A50"/>
<path d="M233.652 197.705L263.116 196.526C263.057 196.644 263.057 196.821 262.998 196.939L233.357 198.117C233.534 198 233.593 197.823 233.652 197.705Z" fill="#323A50"/>
<path d="M232.591 199.473L262.586 198.235C262.527 198.353 262.468 198.53 262.409 198.648L232.296 199.885C232.414 199.709 232.532 199.591 232.591 199.473Z" fill="#323A50"/>
<path d="M231.471 201.24L261.879 200.003C261.82 200.121 261.761 200.298 261.702 200.415L231.177 201.653C231.295 201.476 231.354 201.358 231.471 201.24Z" fill="#323A50"/>
<path d="M230.352 202.891L261.112 201.653C261.054 201.771 260.995 201.948 260.877 202.066L230.057 203.303C230.175 203.185 230.293 203.009 230.352 202.891Z" fill="#323A50"/>
<path d="M229.114 204.658L260.111 203.421C260.052 203.539 259.934 203.716 259.875 203.833L228.82 205.071C228.938 204.953 229.056 204.776 229.114 204.658Z" fill="#323A50"/>
<path d="M227.936 206.426L259.109 205.188C259.05 205.306 258.932 205.483 258.873 205.601L227.641 206.839C227.7 206.662 227.818 206.544 227.936 206.426Z" fill="#323A50"/>
<path d="M226.639 208.194L257.989 206.897C257.872 207.015 257.813 207.192 257.695 207.31L226.345 208.606C226.404 208.489 226.522 208.312 226.639 208.194Z" fill="#323A50"/>
<path d="M225.461 209.844L256.87 208.548C256.752 208.666 256.693 208.842 256.575 208.96L225.166 210.257C225.225 210.08 225.343 209.962 225.461 209.844Z" fill="#323A50"/>
<path d="M224.106 211.612L255.515 210.315C255.397 210.433 255.279 210.61 255.22 210.728L223.811 212.024C223.87 211.907 223.988 211.73 224.106 211.612Z" fill="#323A50"/>
<path d="M222.75 213.321L254.159 212.024C254.041 212.142 253.923 212.319 253.805 212.437L222.396 213.733C222.573 213.615 222.691 213.498 222.75 213.321Z" fill="#323A50"/>
<path d="M221.395 215.148L252.745 213.852C252.627 213.969 252.509 214.146 252.391 214.264L221.1 215.561C221.159 215.443 221.277 215.266 221.395 215.148Z" fill="#323A50"/>
<path d="M220.04 216.915L251.272 215.678C251.154 215.796 251.036 215.972 250.918 216.09L219.686 217.328C219.804 217.151 219.922 217.033 220.04 216.915Z" fill="#323A50"/>
<path d="M218.625 218.684L249.739 217.446C249.622 217.564 249.504 217.741 249.386 217.859L218.331 219.096C218.389 218.978 218.507 218.802 218.625 218.684Z" fill="#323A50"/>
<path d="M217.211 220.451L248.148 219.214C248.031 219.332 247.913 219.508 247.736 219.626L216.857 220.864C216.975 220.687 217.093 220.569 217.211 220.451Z" fill="#323A50"/>
<path d="M215.856 222.102L246.616 220.864C246.498 220.982 246.381 221.159 246.204 221.277L215.502 222.514C215.62 222.396 215.738 222.279 215.856 222.102Z" fill="#323A50"/>
<path d="M214.5 223.751L245.025 222.514C244.907 222.632 244.73 222.808 244.613 222.926L214.146 224.164C214.264 224.046 214.382 223.869 214.5 223.751Z" fill="#323A50"/>
<path d="M213.027 225.52L243.316 224.282C243.198 224.4 243.022 224.577 242.904 224.695L212.673 225.932C212.791 225.814 212.909 225.696 213.027 225.52Z" fill="#323A50"/>
<path d="M211.554 227.287L241.607 226.05C241.489 226.168 241.313 226.344 241.195 226.462L211.2 227.7C211.318 227.582 211.436 227.405 211.554 227.287Z" fill="#323A50"/>
<path d="M210.022 229.055L239.781 227.876C239.663 227.994 239.486 228.171 239.368 228.289L209.727 229.467C209.786 229.349 209.904 229.231 210.022 229.055Z" fill="#323A50"/>
<path d="M208.607 230.764L238.071 229.585C237.954 229.703 237.777 229.88 237.659 229.998L208.312 231.176C208.371 230.999 208.489 230.881 208.607 230.764Z" fill="#323A50"/>
<path d="M207.193 232.355L236.363 231.177C236.186 231.295 236.068 231.471 235.891 231.589L206.839 232.768C206.957 232.65 207.075 232.532 207.193 232.355Z" fill="#323A50"/>
<path d="M205.661 234.182L234.477 233.003C234.3 233.121 234.182 233.298 234.005 233.415L205.307 234.594C205.425 234.476 205.543 234.299 205.661 234.182Z" fill="#323A50"/>
<path d="M204.129 235.95L232.532 234.771C232.356 234.889 232.238 235.066 232.061 235.184L203.716 236.304C203.893 236.186 204.011 236.068 204.129 235.95Z" fill="#323A50"/>
<path d="M202.538 237.717L230.588 236.598C230.411 236.716 230.293 236.892 230.116 237.01L202.184 238.13C202.302 238.012 202.42 237.894 202.538 237.717Z" fill="#323A50"/>
<path d="M200.946 239.544L228.584 238.425C228.407 238.543 228.289 238.719 228.112 238.837L200.593 239.957C200.711 239.839 200.828 239.662 200.946 239.544Z" fill="#323A50"/>
<path d="M199.532 241.194L226.816 240.074C226.639 240.192 226.522 240.369 226.345 240.487L199.179 241.606C199.238 241.43 199.356 241.312 199.532 241.194Z" fill="#323A50"/>
<path d="M197.882 242.962L224.695 241.901C224.518 242.019 224.4 242.196 224.223 242.314L197.529 243.375C197.647 243.257 197.765 243.139 197.882 242.962Z" fill="#323A50"/>
<path d="M196.291 244.73L222.691 243.669C222.514 243.787 222.338 243.964 222.22 244.081L195.938 245.142C196.055 245.024 196.173 244.848 196.291 244.73Z" fill="#323A50"/>
<path d="M194.7 246.498L220.629 245.438C220.452 245.555 220.275 245.732 220.157 245.85L194.347 246.911C194.465 246.793 194.582 246.675 194.7 246.498Z" fill="#323A50"/>
<path d="M193.168 248.148L218.684 247.087C218.507 247.205 218.331 247.382 218.213 247.499L192.814 248.501C192.932 248.442 193.05 248.324 193.168 248.148Z" fill="#323A50"/>
<path d="M193.639 249.739L216.739 248.796C216.562 248.914 216.386 249.091 216.209 249.208L194.641 250.092C194.346 249.975 193.993 249.857 193.639 249.739Z" fill="#323A50"/>
<path d="M198.236 251.271L214.618 250.623C214.441 250.741 214.264 250.918 214.088 251.036L199.297 251.625C198.943 251.507 198.589 251.389 198.236 251.271Z" fill="#323A50"/>
<path d="M202.891 252.803L212.496 252.391C212.32 252.508 212.143 252.685 211.966 252.803L204.011 253.098C203.657 253.039 203.245 252.921 202.891 252.803Z" fill="#323A50"/>
<path d="M207.546 254.336L210.257 254.218C210.08 254.336 209.904 254.512 209.727 254.63L208.607 254.689C208.254 254.571 207.9 254.453 207.546 254.336Z" fill="#323A50"/>
<path d="M68.475 190.103C70.3607 183.857 75.3107 179.614 83.325 177.551C87.9215 176.373 92.1643 176.255 93.9911 176.255C94.05 176.019 94.1679 175.783 94.3447 175.607C92.7536 175.548 88.1572 175.607 83.2072 176.903C75.134 179.024 69.8304 183.503 67.9447 189.867C67.5322 190.692 55.9232 215.148 54.45 229.467C54.0965 233.239 51.0322 234.064 45.434 235.596C40.8375 236.833 34.4732 238.601 26.6357 242.785L26.9304 243.374C34.709 239.191 41.0143 237.482 45.6107 236.244C51.2679 234.712 54.6857 233.769 55.0982 229.526C56.2768 217.858 64.2911 199.296 67.3554 192.578C67.1786 197.528 70.6554 204.364 77.6679 213.026C84.3857 221.276 94.3447 231.176 107.309 242.432C112.141 246.616 116.973 250.682 121.629 254.453L122.395 254.217C117.68 250.446 112.671 246.203 107.721 241.96C78.6107 216.621 65.0572 198.707 68.475 190.103Z" fill="#323A50"/>
<path d="M91.9876 182.325C92.0465 181.853 92.6947 179.555 92.8126 179.143C92.7537 178.907 91.8697 180.321 91.9287 180.085C91.9287 179.614 92.2233 179.143 92.6358 178.848C92.5769 178.376 92.5769 178.141 93.0483 177.846C92.9894 177.61 93.5197 177.61 93.5787 177.434C92.7537 178.848 91.7519 180.675 91.4572 182.207C90.1019 189.337 100.945 206.191 123.691 232.296C128.7 238.071 133.768 243.728 138.364 248.619L139.072 248.384C118.682 226.462 90.2197 193.168 91.9876 182.325Z" fill="#323A50"/>
<path d="M94.227 175.548C94.1091 175.666 94.0502 175.784 93.9323 175.901L89.6895 175.725C91.6341 175.548 93.2252 175.548 94.227 175.548Z" fill="#323A50"/>
<path d="M93.1074 177.611L82.2056 177.198C82.6181 177.08 83.0306 176.963 83.502 176.845L93.2841 177.257C93.1663 177.316 93.1074 177.493 93.1074 177.611Z" fill="#323A50"/>
<path d="M92.6947 179.26L78.1982 178.671C78.4929 178.553 78.7286 178.435 79.0232 178.317L92.8125 178.848C92.8125 178.907 92.8125 178.966 92.8125 179.025C92.7536 179.142 92.6947 179.201 92.6947 179.26Z" fill="#323A50"/>
<path d="M91.9878 180.969L75.311 180.321C75.4878 180.203 75.7235 180.085 75.9003 179.908L92.0467 180.556C92.0467 180.733 92.0467 180.851 91.9878 180.969Z" fill="#323A50"/>
<path d="M91.8109 182.56L73.3662 181.794C73.543 181.676 73.6609 181.559 73.8376 181.382L91.8698 182.089C91.8109 182.266 91.8109 182.443 91.8109 182.56Z" fill="#323A50"/>
<path d="M91.7519 184.27L71.6572 183.445C71.7751 183.327 71.8929 183.209 72.0108 183.032L91.7519 183.857C91.7519 184.034 91.7519 184.152 91.7519 184.27Z" fill="#323A50"/>
<path d="M91.9876 185.683C92.0466 185.801 92.0466 185.919 92.1055 185.978L70.3608 185.094C70.4787 184.976 70.5376 184.799 70.6555 184.682L91.9876 185.566C91.9876 185.624 91.9876 185.624 91.9876 185.683Z" fill="#323A50"/>
<path d="M92.5181 187.51C92.5181 187.569 92.5771 187.687 92.5771 187.746L69.3003 186.803C69.3592 186.685 69.4181 186.508 69.536 186.391L92.4592 187.333C92.5181 187.392 92.5181 187.451 92.5181 187.51Z" fill="#323A50"/>
<path d="M93.2254 189.043L68.77 188.041C68.7111 188.159 68.6522 188.336 68.5933 188.454L93.3433 189.455C93.3433 189.337 93.2843 189.22 93.2254 189.043Z" fill="#323A50"/>
<path d="M93.9325 190.811L68.1218 189.75C68.0628 189.868 68.0628 189.986 68.0039 190.162L94.1093 191.223C94.0503 191.105 93.9914 190.988 93.9325 190.811Z" fill="#323A50"/>
<path d="M94.7572 192.519L67.7679 191.399C67.7679 191.517 67.709 191.635 67.709 191.812L94.9929 192.932C94.8751 192.814 94.8161 192.696 94.7572 192.519Z" fill="#323A50"/>
<path d="M95.7004 194.288L67.6504 193.168C67.6504 193.286 67.6504 193.463 67.6504 193.58L95.9361 194.7C95.8182 194.582 95.7593 194.464 95.7004 194.288Z" fill="#323A50"/>
<path d="M96.5841 195.937L67.7681 194.759C67.7681 194.877 67.827 195.053 67.827 195.171L96.8199 196.35C96.7609 196.232 96.6431 196.055 96.5841 195.937Z" fill="#323A50"/>
<path d="M97.645 197.705L68.1807 196.526C68.2396 196.644 68.2396 196.821 68.2985 196.939L97.9396 198.117C97.8217 198 97.7039 197.823 97.645 197.705Z" fill="#323A50"/>
<path d="M98.7056 199.473L68.7109 198.235C68.7699 198.353 68.8288 198.53 68.8877 198.648L99.0002 199.885C98.8824 199.709 98.8234 199.591 98.7056 199.473Z" fill="#323A50"/>
<path d="M99.8251 201.24L69.418 200.003C69.4769 200.121 69.5358 200.298 69.5948 200.415L100.12 201.653C100.061 201.476 99.943 201.358 99.8251 201.24Z" fill="#323A50"/>
<path d="M100.945 202.891L70.1841 201.653C70.243 201.771 70.3019 201.948 70.4198 202.066L101.239 203.303C101.122 203.185 101.063 203.009 100.945 202.891Z" fill="#323A50"/>
<path d="M102.182 204.658L71.186 203.421C71.245 203.539 71.3628 203.716 71.4217 203.833L102.477 205.071C102.359 204.953 102.241 204.776 102.182 204.658Z" fill="#323A50"/>
<path d="M103.42 206.426L72.2466 205.188C72.3055 205.306 72.4234 205.483 72.4823 205.601L103.714 206.839C103.597 206.662 103.479 206.544 103.42 206.426Z" fill="#323A50"/>
<path d="M104.658 208.194L73.3076 206.897C73.4255 207.015 73.4844 207.192 73.6023 207.31L104.952 208.606C104.893 208.489 104.775 208.312 104.658 208.194Z" fill="#323A50"/>
<path d="M105.895 209.844L74.4858 208.548C74.6037 208.666 74.6626 208.842 74.7805 208.96L106.189 210.257C106.072 210.08 105.954 209.962 105.895 209.844Z" fill="#323A50"/>
<path d="M107.191 211.612L75.7822 210.315C75.9001 210.433 76.0179 210.61 76.0769 210.728L107.486 212.024C107.427 211.907 107.309 211.73 107.191 211.612Z" fill="#323A50"/>
<path d="M108.547 213.321L77.1377 212.024C77.2556 212.142 77.3734 212.319 77.4913 212.437L108.9 213.733C108.723 213.615 108.664 213.498 108.547 213.321Z" fill="#323A50"/>
<path d="M109.902 215.148L78.5522 213.852C78.6701 213.969 78.788 214.146 78.9058 214.264L110.197 215.561C110.138 215.443 110.02 215.266 109.902 215.148Z" fill="#323A50"/>
<path d="M111.316 216.915L80.084 215.678C80.2018 215.796 80.3197 215.972 80.4376 216.09L111.67 217.328C111.493 217.151 111.375 217.033 111.316 216.915Z" fill="#323A50"/>
<path d="M112.73 218.684L81.6162 217.446C81.7341 217.564 81.8519 217.741 81.9698 217.859L113.025 219.096C112.907 218.978 112.848 218.802 112.73 218.684Z" fill="#323A50"/>
<path d="M114.086 220.451L83.1484 219.214C83.2663 219.332 83.3841 219.508 83.5609 219.626L114.44 220.864C114.322 220.687 114.204 220.569 114.086 220.451Z" fill="#323A50"/>
<path d="M115.5 222.102L84.7397 220.864C84.8576 220.982 84.9755 221.159 85.1522 221.277L115.854 222.514C115.736 222.396 115.618 222.279 115.5 222.102Z" fill="#323A50"/>
<path d="M116.796 223.751L86.2715 222.514C86.3893 222.632 86.5661 222.808 86.684 222.926L117.15 224.164C117.032 224.046 116.914 223.869 116.796 223.751Z" fill="#323A50"/>
<path d="M118.329 225.52L88.0396 224.282C88.1574 224.4 88.3342 224.577 88.4521 224.695L118.682 225.932C118.565 225.814 118.447 225.696 118.329 225.52Z" fill="#323A50"/>
<path d="M119.802 227.287L89.7485 226.05C89.8664 226.168 90.0432 226.344 90.161 226.462L120.156 227.7C120.038 227.582 119.92 227.405 119.802 227.287Z" fill="#323A50"/>
<path d="M121.275 229.055L91.5161 227.876C91.634 227.994 91.8108 228.171 91.9286 228.289L121.57 229.467C121.511 229.349 121.393 229.231 121.275 229.055Z" fill="#323A50"/>
<path d="M122.689 230.764L93.2251 229.585C93.343 229.703 93.5197 229.88 93.6376 229.998L122.984 231.176C122.925 230.999 122.807 230.881 122.689 230.764Z" fill="#323A50"/>
<path d="M124.104 232.355L94.9341 231.177C95.1109 231.295 95.2287 231.471 95.4055 231.589L124.457 232.768C124.339 232.65 124.222 232.532 124.104 232.355Z" fill="#323A50"/>
<path d="M125.636 234.182L96.8198 233.003C96.9966 233.121 97.1145 233.298 97.2913 233.415L125.989 234.594C125.931 234.476 125.754 234.299 125.636 234.182Z" fill="#323A50"/>
<path d="M127.168 235.95L98.7646 234.771C98.9414 234.889 99.0593 235.066 99.2361 235.184L127.581 236.304C127.404 236.186 127.286 236.068 127.168 235.95Z" fill="#323A50"/>
<path d="M128.759 237.717L100.709 236.598C100.886 236.716 101.004 236.892 101.18 237.01L129.113 238.13C128.995 238.012 128.877 237.894 128.759 237.717Z" fill="#323A50"/>
<path d="M130.35 239.544L102.713 238.425C102.89 238.543 103.008 238.719 103.184 238.837L130.704 239.957C130.586 239.839 130.468 239.662 130.35 239.544Z" fill="#323A50"/>
<path d="M131.823 241.194L104.54 240.074C104.716 240.192 104.834 240.369 105.011 240.487L132.177 241.606C132.059 241.43 131.941 241.312 131.823 241.194Z" fill="#323A50"/>
<path d="M133.415 242.962L106.602 241.901C106.779 242.019 106.897 242.196 107.073 242.314L133.768 243.375C133.65 243.257 133.532 243.139 133.415 242.962Z" fill="#323A50"/>
<path d="M135.005 244.73L108.605 243.669C108.782 243.787 108.959 243.964 109.077 244.081L135.359 245.142C135.241 245.024 135.123 244.848 135.005 244.73Z" fill="#323A50"/>
<path d="M136.597 246.498L110.668 245.438C110.845 245.555 111.022 245.732 111.139 245.85L136.95 246.911C136.891 246.793 136.773 246.675 136.597 246.498Z" fill="#323A50"/>
<path d="M138.129 248.148L112.613 247.087C112.79 247.205 112.966 247.382 113.084 247.499L138.482 248.501C138.365 248.442 138.247 248.324 138.129 248.148Z" fill="#323A50"/>
<path d="M137.658 249.739L114.558 248.796C114.734 248.914 114.911 249.091 115.088 249.208L136.656 250.092C136.95 249.975 137.304 249.857 137.658 249.739Z" fill="#323A50"/>
<path d="M133.12 251.271L116.738 250.623C116.915 250.741 117.091 250.918 117.268 251.036L132.059 251.625C132.354 251.507 132.707 251.389 133.12 251.271Z" fill="#323A50"/>
<path d="M128.406 252.803L118.8 252.391C118.977 252.508 119.154 252.685 119.331 252.803L127.286 253.098C127.64 253.039 128.052 252.921 128.406 252.803Z" fill="#323A50"/>
<path d="M123.75 254.336L121.04 254.218C121.216 254.336 121.393 254.512 121.57 254.63L122.69 254.689C123.043 254.571 123.397 254.453 123.75 254.336Z" fill="#323A50"/>
<path d="M191.518 48.793H139.484V138.188H191.518V48.793Z" fill="url(#paint14_linear_3618_7296)"/>
</g>
<defs>
<linearGradient id="paint0_linear_3618_7296" x1="122.895" y1="109.227" x2="206.171" y2="109.227" gradientUnits="userSpaceOnUse">
<stop offset="0.1362" stop-color="white" stop-opacity="0.1"/>
<stop offset="0.5167" stop-color="#AC00FF"/>
<stop offset="0.9409" stop-color="white" stop-opacity="0"/>
</linearGradient>
<linearGradient id="paint1_linear_3618_7296" x1="270.13" y1="227.116" x2="68.466" y2="79.6165" gradientUnits="userSpaceOnUse">
<stop offset="0.2655" stop-color="#032A3D" stop-opacity="0"/>
<stop offset="0.7809" stop-color="#032A3D"/>
</linearGradient>
<radialGradient id="paint2_radial_3618_7296" cx="0" cy="0" r="1" gradientUnits="userSpaceOnUse" gradientTransform="translate(165.023 219.422) scale(68.2257 67.9119)">
<stop offset="0.2655" stop-color="#032A3D" stop-opacity="0"/>
<stop offset="1" stop-color="#032A3D"/>
</radialGradient>
<linearGradient id="paint3_linear_3618_7296" x1="138.279" y1="111.622" x2="188.393" y2="308.35" gradientUnits="userSpaceOnUse">
<stop offset="0.4054" stop-color="#032A3D" stop-opacity="0"/>
<stop offset="1" stop-color="#032A3D"/>
</linearGradient>
<linearGradient id="paint4_linear_3618_7296" x1="102.129" y1="178.877" x2="233.946" y2="302.532" gradientUnits="userSpaceOnUse">
<stop offset="0.2655" stop-color="#032A3D" stop-opacity="0"/>
<stop offset="0.7809" stop-color="#032A3D"/>
</linearGradient>
<linearGradient id="paint5_linear_3618_7296" x1="109.32" y1="171.212" x2="241.137" y2="294.866" gradientUnits="userSpaceOnUse">
<stop offset="0.2655" stop-color="#032A3D" stop-opacity="0"/>
<stop offset="0.7809" stop-color="#032A3D"/>
</linearGradient>
<linearGradient id="paint6_linear_3618_7296" x1="106.754" y1="173.947" x2="238.57" y2="297.602" gradientUnits="userSpaceOnUse">
<stop offset="0.2655" stop-color="#032A3D" stop-opacity="0"/>
<stop offset="0.7809" stop-color="#032A3D"/>
</linearGradient>
<linearGradient id="paint7_linear_3618_7296" x1="81.6651" y1="200.692" x2="213.482" y2="324.347" gradientUnits="userSpaceOnUse">
<stop offset="0.2655" stop-color="#032A3D" stop-opacity="0"/>
<stop offset="0.7809" stop-color="#032A3D"/>
</linearGradient>
<linearGradient id="paint8_linear_3618_7296" x1="100.465" y1="180.651" x2="232.282" y2="304.306" gradientUnits="userSpaceOnUse">
<stop offset="0.2655" stop-color="#032A3D" stop-opacity="0"/>
<stop offset="0.7809" stop-color="#032A3D"/>
</linearGradient>
<linearGradient id="paint9_linear_3618_7296" x1="90.1539" y1="191.643" x2="221.97" y2="315.297" gradientUnits="userSpaceOnUse">
<stop offset="0.2655" stop-color="#032A3D" stop-opacity="0"/>
<stop offset="0.7809" stop-color="#032A3D"/>
</linearGradient>
<linearGradient id="paint10_linear_3618_7296" x1="71.4999" y1="211.528" x2="203.317" y2="335.182" gradientUnits="userSpaceOnUse">
<stop offset="0.2655" stop-color="#032A3D" stop-opacity="0"/>
<stop offset="0.7809" stop-color="#032A3D"/>
</linearGradient>
<linearGradient id="paint11_linear_3618_7296" x1="74.6377" y1="208.183" x2="206.454" y2="331.838" gradientUnits="userSpaceOnUse">
<stop offset="0.2655" stop-color="#032A3D" stop-opacity="0"/>
<stop offset="0.7809" stop-color="#032A3D"/>
</linearGradient>
<linearGradient id="paint12_linear_3618_7296" x1="84.9527" y1="197.187" x2="216.769" y2="320.841" gradientUnits="userSpaceOnUse">
<stop offset="0.2655" stop-color="#032A3D" stop-opacity="0"/>
<stop offset="0.7809" stop-color="#032A3D"/>
</linearGradient>
<linearGradient id="paint13_linear_3618_7296" x1="71.4618" y1="211.569" x2="203.278" y2="335.223" gradientUnits="userSpaceOnUse">
<stop offset="0.2655" stop-color="#032A3D" stop-opacity="0"/>
<stop offset="0.7809" stop-color="#032A3D"/>
</linearGradient>
<linearGradient id="paint14_linear_3618_7296" x1="169.442" y1="198.923" x2="162.899" y2="23.6978" gradientUnits="userSpaceOnUse">
<stop offset="0.4437" stop-color="#DBDBDB" stop-opacity="0"/>
<stop offset="0.5607" stop-color="#EBEBEB" stop-opacity="0.2967"/>
<stop offset="0.7119" stop-color="#FAFAFA" stop-opacity="0.6797"/>
<stop offset="0.8383" stop-color="white"/>
</linearGradient>
<clipPath id="clip0_3618_7296">
<rect width="330" height="330" fill="white"/>
</clipPath>
</defs>
</svg>
