<svg width="330" height="330" viewBox="0 0 330 330" fill="none" xmlns="http://www.w3.org/2000/svg">
<g clip-path="url(#clip0_3618_19667)">
<path d="M166.002 301.89C161.523 301.89 157.044 301.537 152.625 300.83C148.264 300.24 141.546 298.708 136.95 296.705C121.216 290.812 107.721 280.44 97.998 266.651C88.0391 252.567 82.7944 235.949 82.7944 218.624C82.7944 206.603 85.3284 194.994 90.2784 184.151C95.0516 173.662 101.887 164.41 110.491 156.69L112.612 154.51C117.503 149.501 117.798 149.148 120.391 146.201C120.685 145.847 121.039 145.494 121.393 145.081C124.339 141.664 129.878 135.299 137.362 129.937C146.496 123.396 156.102 119.978 165.943 119.919H166.178C176.019 119.978 185.625 123.396 194.759 129.937C202.243 135.299 207.782 141.664 210.728 145.081C211.082 145.494 211.436 145.847 211.73 146.201C213.734 148.44 214.382 149.089 216.68 151.505C217.682 152.506 219.037 153.921 220.982 155.924C229.821 163.644 236.834 173.014 241.725 183.621C246.852 194.64 249.444 206.426 249.444 218.624C249.444 229.88 247.264 240.781 242.903 251.035C238.719 260.935 232.709 269.833 225.048 277.494C217.387 285.155 208.489 291.165 198.589 295.349C188.159 299.71 177.257 301.89 166.002 301.89ZM166.061 120.744H165.825C143.314 120.921 127.757 138.894 121.923 145.612C121.569 146.024 121.216 146.378 120.921 146.731C118.269 149.737 117.975 150.031 113.084 155.099L110.962 157.28C93.5784 172.896 83.5605 195.289 83.5605 218.624C83.5605 252.921 105.128 283.976 137.244 295.88C141.782 297.824 148.441 299.356 152.743 299.946C157.103 300.653 161.582 301.006 166.002 301.006C211.494 301.006 248.502 263.999 248.502 218.506C248.502 194.699 238.189 172.071 220.275 156.396C218.389 154.392 216.975 153.037 215.973 151.976C213.616 149.56 212.968 148.912 210.964 146.614C210.669 146.26 210.316 145.906 209.962 145.494C204.128 138.894 188.571 120.921 166.061 120.744Z" fill="#323A50"/>
<path opacity="0.2" d="M207.959 155.924C210.905 154.274 212.496 153.155 209.491 149.678C204.364 143.903 188.984 124.397 165.766 124.221H165.53C142.312 124.397 126.932 143.903 121.805 149.678C118.8 153.155 121.157 155.158 122.512 156.219C128.523 152.389 133.944 149.383 141.016 147.026C141.193 146.967 150.091 142.724 165 142.606C165.059 142.606 175.077 142.548 184.623 145.494C196.173 148.617 201.771 152.389 207.959 155.924Z" fill="url(#paint0_linear_3618_19667)"/>
<path opacity="0.2" d="M165.236 287.217C202.826 287.217 233.298 256.877 233.298 219.45C233.298 182.022 202.826 151.682 165.236 151.682C127.646 151.682 97.1733 182.022 97.1733 219.45C97.1733 256.877 127.646 287.217 165.236 287.217Z" fill="url(#paint1_radial_3618_19667)"/>
<path opacity="0.34" d="M236.598 187.805C236.539 187.628 236.48 187.451 236.362 187.333C236.127 187.805 235.714 188.217 235.184 188.571C233.828 189.396 231.589 188.983 230.882 187.451C230.469 186.626 230.057 185.86 229.527 185.094C229.291 184.681 228.996 184.328 228.702 183.915C228.584 183.738 228.584 183.738 228.702 183.915C228.643 183.856 228.584 183.738 228.525 183.68C228.407 183.503 228.23 183.326 228.112 183.149C226.875 181.735 225.402 180.321 224.223 179.496C223.457 178.965 222.691 178.494 221.866 178.081C221.63 177.963 221.394 177.846 221.159 177.728C221.1 177.728 221.1 177.728 221.1 177.669C220.687 177.492 220.275 177.374 219.803 177.256C219.332 177.139 218.861 177.021 218.389 176.903C218.389 176.903 217.682 176.785 217.741 176.785C217.564 176.785 217.446 176.726 217.269 176.726C216.15 176.608 215.089 176.608 213.969 176.608C209.903 176.726 206.427 177.374 202.478 177.846C198.353 178.376 194.169 178.671 190.044 178.965C181.853 179.555 173.721 180.556 165.53 180.674C161.523 180.733 157.457 180.026 153.509 179.319C149.561 178.612 145.907 178.081 142.136 177.669C134.18 176.726 126.166 176.314 118.152 177.021C116.502 177.139 115.264 175.724 115.028 174.251C114.969 174.251 114.911 174.251 114.852 174.31C114.38 174.428 113.909 174.546 113.496 174.722C113.261 174.781 113.025 174.899 112.73 174.958C112.612 175.017 112.553 175.017 112.494 175.076C110.609 175.901 108.782 176.962 107.132 178.258C107.073 178.317 106.719 178.612 106.661 178.612C106.425 178.788 106.189 178.965 106.012 179.201C105.6 179.555 105.246 179.908 104.834 180.262C104.068 181.028 103.302 181.853 102.653 182.678C102.594 182.737 102.594 182.796 102.536 182.796L102.477 182.855C102.3 183.09 102.123 183.267 102.005 183.503C101.769 183.915 101.475 184.269 101.239 184.681C101.003 185.094 100.768 185.447 100.591 185.86C100.532 185.978 100.237 186.744 100.532 185.978C100.473 186.213 100.355 186.39 100.296 186.626C99.707 188.276 98.1749 189.219 96.407 188.806C95.8177 188.689 95.2873 188.335 94.8748 187.864C94.8159 187.981 94.9338 188.099 94.8748 188.217C90.9266 197.528 88.6284 207.663 88.6284 218.388C88.6284 261.053 123.219 295.644 165.884 295.644C208.548 295.644 243.139 261.053 243.139 218.388C242.962 207.605 240.664 197.233 236.598 187.805Z" fill="url(#paint2_linear_3618_19667)"/>
<g opacity="0.2">
<path d="M226.109 247.205L225.638 247.146C225.343 249.503 218.448 252.744 216.975 252.98C216.386 253.098 216.032 252.921 215.679 252.803C215.148 252.626 214.677 252.391 213.734 252.921C212.202 253.864 206.898 259.698 205.72 262.526C204.541 265.414 203.834 266.946 201.123 268.007C199.65 268.596 197.411 268.596 195.054 268.596C192.873 268.596 190.634 268.596 188.925 269.068C186.332 269.775 183.857 270.953 182.679 271.543C183.327 270.835 183.916 270.069 184.505 269.421C185.566 268.184 186.509 267.064 187.098 266.651C187.864 266.062 190.634 265.768 193.639 265.473C197.587 265.06 202.125 264.53 203.539 263.234C205.13 261.701 207.37 256.103 209.138 251.566C210.08 249.15 210.905 247.087 211.436 246.262C211.966 245.378 213.439 244.376 215.03 243.316C217.741 241.548 220.805 239.485 220.746 237.069H220.275C220.334 239.25 217.387 241.194 214.795 242.962C213.086 244.082 211.612 245.084 211.023 246.085C210.493 246.969 209.668 249.032 208.725 251.448C206.957 255.926 204.718 261.466 203.245 262.939C202.714 263.41 201.654 263.823 200.357 264.117C201.241 263.646 202.243 262.939 202.95 261.996C204.246 260.346 205.366 256.457 205.896 254.335C206.014 253.982 206.073 253.687 206.132 253.451C206.309 252.803 206.073 252.391 205.837 251.978C205.543 251.507 205.248 251.035 205.425 249.857C205.661 248.56 206.368 248.03 207.193 247.5C207.723 247.087 208.254 246.734 208.666 246.085C209.668 244.494 209.02 242.844 208.725 242.019V241.96C208.489 241.371 207.959 241.43 207.546 241.43C207.134 241.489 206.898 241.489 206.78 241.253C206.663 241.018 206.957 240.546 207.311 240.075C207.782 239.368 208.371 238.543 208.018 237.835L207.605 238.012C207.841 238.543 207.37 239.191 206.957 239.78C206.486 240.428 206.073 241.018 206.427 241.489C206.721 242.019 207.252 241.96 207.664 241.901C208.077 241.843 208.254 241.843 208.371 242.078V242.137C208.725 243.021 209.255 244.435 208.371 245.791C208.018 246.321 207.546 246.734 207.016 247.087C206.191 247.676 205.366 248.266 205.071 249.798C204.836 251.153 205.189 251.743 205.543 252.214C205.779 252.568 205.896 252.803 205.779 253.275C205.72 253.451 205.661 253.805 205.543 254.159C205.012 256.044 203.893 260.051 202.655 261.643C201.241 263.41 198.766 264.353 198.589 264.412C197.057 264.648 195.289 264.825 193.698 265.001C190.575 265.355 187.864 265.65 186.98 266.239C186.332 266.71 185.389 267.83 184.27 269.126C182.148 271.66 179.202 275.078 177.198 274.901C176.138 274.843 175.018 274.607 173.839 274.371C171.423 273.9 168.712 273.31 165.766 273.841C159.696 274.96 157.634 276.139 156.455 277.612C155.277 278.968 154.688 280.735 154.688 280.794L155.1 280.971C155.1 280.971 155.689 279.203 156.809 277.907C157.929 276.551 159.932 275.432 165.825 274.312C168.654 273.782 171.364 274.312 173.721 274.843C174.959 275.078 176.079 275.314 177.139 275.432C178.671 275.55 180.439 274.076 182.148 272.25L182.207 272.426C182.266 272.426 185.566 270.541 189.102 269.598C190.811 269.126 192.991 269.126 195.112 269.126C197.529 269.126 199.768 269.126 201.3 268.537C204.187 267.417 205.013 265.709 206.191 262.821C207.311 260.11 212.555 254.335 214.029 253.451C214.736 252.98 215.089 253.157 215.561 253.334C215.973 253.51 216.445 253.687 217.152 253.569C218.684 253.157 225.696 249.857 226.109 247.205Z" fill="url(#paint3_linear_3618_19667)"/>
<path d="M170.245 258.166C169.479 258.991 169.596 260.406 169.714 261.997C169.832 263.529 170.009 265.238 169.302 266.652C167.946 269.422 161.877 271.602 161.818 271.661L161.936 272.132C162.171 272.074 168.241 269.893 169.655 266.947C170.363 265.415 170.245 263.588 170.127 261.997C170.009 260.524 169.891 259.227 170.539 258.579C171.246 257.872 173.78 257.282 176.02 256.811C178.613 256.222 180.852 255.691 181.382 254.984C181.913 254.277 182.03 253.629 182.089 253.04C182.207 252.391 182.266 251.92 182.855 251.507C183.15 251.331 184.682 251.39 186.332 251.507C190.87 251.743 197.764 252.156 200.18 248.738C202.125 246.027 201.477 244.082 200.888 242.315C200.416 240.9 200.004 239.663 200.888 238.249C201.536 237.07 202.773 236.716 204.129 236.245C206.78 235.361 210.08 234.359 212.143 227.524C212.614 225.932 212.379 224.282 212.143 222.691C211.789 220.57 211.495 218.625 212.732 216.74L212.32 216.504C210.964 218.507 211.318 220.688 211.613 222.809C211.848 224.4 212.084 225.932 211.613 227.406C209.55 234.006 206.427 235.007 203.893 235.832C202.42 236.304 201.182 236.716 200.416 238.013C199.473 239.663 199.945 241.136 200.416 242.491C201.005 244.2 201.595 245.968 199.768 248.502C197.47 251.684 190.457 251.272 186.273 251.095C184.682 251.036 183.621 250.977 183.032 251.036C183.268 250.388 183.445 249.445 183.621 248.443C183.916 246.675 184.27 244.613 185.33 243.493C185.861 242.963 186.568 242.727 187.57 242.432C189.868 241.784 193.109 240.841 195.584 234.3V234.241C196.055 232.002 195.525 230.411 194.995 229.468C194.759 229.056 194.288 228.82 193.816 228.584C193.286 228.349 192.696 228.054 192.225 227.347C191.4 226.109 191.046 219.215 191.341 217.859C191.341 217.741 191.4 217.682 191.4 217.682C191.459 217.624 191.754 217.741 191.989 217.8C192.696 218.036 193.934 218.507 195.407 217.447L195.171 217.034C193.875 217.977 192.873 217.624 192.166 217.329C191.754 217.211 191.459 217.093 191.223 217.211C191.105 217.27 190.988 217.447 190.929 217.682C190.693 218.979 190.929 226.05 191.871 227.524C192.402 228.29 193.109 228.643 193.639 228.879C194.052 229.056 194.405 229.232 194.582 229.527C195.054 230.411 195.584 231.825 195.113 233.947C192.696 240.252 189.632 241.136 187.393 241.784C186.391 242.079 185.566 242.315 184.977 242.963C183.857 244.2 183.504 246.263 183.15 248.149C182.973 249.386 182.738 250.506 182.384 251.036C181.736 251.507 181.618 252.156 181.5 252.804C181.382 253.393 181.323 253.924 180.852 254.572C180.38 255.22 177.905 255.75 175.725 256.222C173.427 256.87 171.011 257.4 170.245 258.166Z" fill="url(#paint4_linear_3618_19667)"/>
<path d="M170.952 211.495C171.541 212.143 172.013 212.614 171.718 214.029C171.541 214.972 171.011 216.327 170.422 217.8C169.42 220.393 168.418 222.986 168.889 224.223C169.125 224.813 169.479 225.225 169.832 225.638C170.539 226.522 171.364 227.406 170.952 230.057C170.598 232.179 169.479 233.829 168.595 235.184C167.829 236.363 167.122 237.364 167.239 238.366C167.298 239.132 167.711 239.663 168.182 240.134C168.889 241.077 169.656 241.961 168.654 244.318C167.888 246.145 166.827 246.616 165.943 246.97C165 247.382 164.234 247.736 164.47 249.504C164.764 251.331 165.943 252.568 167.063 253.688C167.888 254.513 168.713 255.397 169.302 256.516L169.714 256.339C169.125 255.161 168.241 254.218 167.416 253.393C166.297 252.273 165.236 251.154 164.941 249.445C164.706 248.089 165.177 247.854 166.12 247.441C167.004 247.029 168.241 246.498 169.066 244.554C170.186 241.902 169.302 240.841 168.477 239.898C168.064 239.368 167.711 238.955 167.652 238.366C167.593 237.6 168.182 236.657 168.948 235.538C169.891 234.182 171.07 232.473 171.364 230.234C171.836 227.347 170.952 226.345 170.186 225.461C169.832 225.048 169.538 224.695 169.302 224.164C168.889 223.104 169.95 220.452 170.834 218.095C171.423 216.622 171.954 215.266 172.131 214.264C172.484 212.614 171.895 211.966 171.247 211.318C170.834 210.847 170.363 210.375 170.186 209.491L169.714 209.609C169.95 210.434 170.481 211.023 170.952 211.495Z" fill="url(#paint5_linear_3618_19667)"/>
<path d="M173.309 275.432C171.718 274.666 167.711 274.313 165.236 274.784C162.879 275.197 158.695 276.139 157.104 277.907C156.161 278.909 155.336 280.854 155.336 280.913L155.748 281.089C155.748 281.089 156.632 279.145 157.457 278.202C159.048 276.493 163.527 275.55 165.354 275.256C168.006 274.784 171.777 275.256 173.132 275.904C174.606 276.611 175.136 277.672 175.195 278.202C175.372 279.852 172.661 281.325 172.661 281.325L172.838 281.738C172.956 281.679 175.902 280.088 175.607 278.143C175.548 277.318 174.841 276.14 173.309 275.432Z" fill="url(#paint6_linear_3618_19667)"/>
<path d="M174.487 246.793C175.312 247.147 176.137 247.442 176.668 248.208C177.316 249.092 178.612 251.39 176.845 253.393C176.137 254.218 174.37 254.867 172.661 255.515C170.952 256.104 169.361 256.693 168.889 257.518C168.359 258.343 168.418 259.758 168.536 261.408C168.653 262.881 168.712 264.413 168.418 265.592C167.711 268.008 161.641 270.954 161.582 270.954L161.759 271.367C161.995 271.249 168.123 268.361 168.889 265.709C169.243 264.413 169.125 262.822 169.007 261.349C168.889 259.817 168.83 258.461 169.243 257.754C169.655 257.106 171.246 256.517 172.778 255.986C174.546 255.338 176.373 254.69 177.139 253.747C178.495 252.156 178.436 250.034 176.962 247.972C176.373 247.088 175.43 246.734 174.605 246.381C173.78 246.027 172.955 245.733 172.602 244.967C171.895 243.434 172.425 241.726 173.368 241.077C173.603 240.901 173.898 240.783 174.134 240.606C175.018 240.076 175.843 239.604 176.903 238.426C178.318 236.893 180.97 230.647 181.441 227.642C181.736 225.874 181.264 225.049 180.734 224.224C180.321 223.576 179.909 222.927 179.791 221.631L179.32 221.69C179.437 223.045 179.909 223.811 180.321 224.459C180.793 225.226 181.264 225.933 180.97 227.524C180.498 230.47 177.964 236.599 176.55 238.072C175.548 239.192 174.664 239.663 173.839 240.193C173.603 240.37 173.309 240.488 173.073 240.665C171.953 241.372 171.305 243.376 172.13 245.143C172.72 246.086 173.603 246.44 174.487 246.793Z" fill="url(#paint7_linear_3618_19667)"/>
</g>
<g opacity="0.2">
<path d="M154.393 273.605C154.216 272.368 152.802 271.366 151.388 270.364C150.268 269.598 148.559 268.655 147.086 267.771C145.79 267.064 144.611 266.416 144.199 266.062C144.081 266.003 143.963 265.826 143.845 265.65C143.138 264.53 142.608 261.76 142.725 259.58C142.784 258.343 142.666 257.4 142.608 256.634C142.49 255.809 142.431 255.219 142.666 254.689C142.843 254.276 143.138 254.218 143.609 254.159C144.081 254.1 144.729 253.982 144.965 253.216C145.2 252.567 145.083 251.86 145.024 251.153C144.906 250.446 144.847 249.857 145.141 249.385C145.436 248.973 145.731 248.855 146.143 248.737C146.556 248.56 147.027 248.384 147.44 247.794C147.793 247.264 147.322 246.557 146.733 245.673C145.849 244.435 144.67 242.667 145.141 240.546C145.672 238.248 146.379 238.307 147.381 238.484C147.852 238.542 148.441 238.66 148.972 238.425C149.915 238.071 150.799 236.009 151.683 233.887C152.39 232.237 153.097 230.528 153.745 230.057C154.452 229.526 155.042 229.409 155.631 229.291C156.22 229.173 156.75 229.114 157.163 228.525C157.693 227.876 157.399 226.993 157.163 226.226C157.045 225.755 156.868 225.284 156.986 225.048L156.574 224.812C156.397 225.225 156.515 225.755 156.691 226.344C156.868 226.993 157.104 227.818 156.75 228.23C156.397 228.643 156.043 228.701 155.454 228.819C154.865 228.937 154.158 229.055 153.391 229.644C152.684 230.175 151.977 231.884 151.211 233.71C150.445 235.596 149.561 237.718 148.795 238.012C148.324 238.189 147.852 238.13 147.381 238.071C146.32 237.953 145.259 237.776 144.611 240.487C144.081 242.844 145.318 244.671 146.261 246.026C146.733 246.734 147.204 247.323 146.968 247.617C146.674 248.089 146.32 248.207 145.908 248.384C145.495 248.501 145.083 248.678 144.729 249.209C144.316 249.798 144.434 250.564 144.552 251.271C144.67 251.919 144.729 252.568 144.552 253.098C144.375 253.628 143.963 253.687 143.491 253.746C143.02 253.805 142.49 253.864 142.195 254.571C141.959 255.219 142.018 255.867 142.136 256.751C142.254 257.517 142.313 258.401 142.254 259.639C142.136 260.994 142.313 262.644 142.666 264.059C141.665 262.409 140.368 259.875 140.133 257.4C139.956 255.278 140.368 254.571 140.899 253.451C141.429 252.391 142.077 251.094 142.608 248.148C143.315 243.964 141.488 240.134 140.309 238.071C140.427 237.659 141.252 234.889 143.433 234.123L144.552 233.71C146.615 233.003 148.441 232.355 149.384 231.825C150.622 231.176 151.624 229.055 151.8 227.759C151.918 226.993 151.565 226.521 151.211 226.109C150.916 225.696 150.622 225.343 150.622 224.753C150.681 224.223 151.447 223.693 152.331 223.103C153.568 222.219 155.159 221.218 155.808 219.45C156.574 217.328 155.808 216.444 155.159 215.56C154.806 215.148 154.511 214.794 154.393 214.264L153.981 214.382C154.099 214.971 154.511 215.443 154.865 215.855C155.513 216.68 156.102 217.446 155.454 219.273C154.865 220.864 153.333 221.866 152.154 222.691C151.093 223.398 150.327 223.928 150.268 224.694C150.209 225.519 150.622 225.991 150.916 226.403C151.27 226.816 151.506 227.11 151.388 227.7C151.152 229.055 150.15 230.941 149.208 231.471C148.265 231.943 146.379 232.591 144.375 233.298L143.256 233.71C141.252 234.418 140.309 236.657 139.956 237.6C139.543 237.01 139.308 236.657 139.249 236.598C139.19 236.539 135.006 232.709 133.12 229.821C131.234 226.875 131.293 224.459 132.295 223.575C132.825 223.103 133.886 223.044 135.183 222.985C136.361 222.926 137.658 222.868 138.836 222.455C140.604 221.807 141.841 219.273 142.195 218.507C142.725 217.387 143.197 215.855 142.902 215.148C142.431 213.851 140.486 213.439 140.368 213.38L140.309 213.851C140.309 213.851 142.136 214.264 142.49 215.325C142.608 215.737 142.431 216.857 141.783 218.33C141.134 219.803 139.956 221.571 138.659 222.043C137.54 222.455 136.302 222.514 135.183 222.573C133.886 222.632 132.708 222.691 132.059 223.221C130.94 224.223 130.704 226.757 132.825 230.057C134.652 232.944 138.718 236.657 139.013 236.893C139.249 237.187 143.256 242.314 142.254 248.03C141.783 250.859 141.134 252.155 140.604 253.157C140.486 253.393 140.368 253.628 140.25 253.864C139.72 252.45 139.779 251.625 139.838 250.976C139.897 250.034 139.838 249.503 138.541 248.678C136.833 247.618 133.533 247.441 131.352 247.323C130.468 247.264 129.702 247.205 129.349 247.146C127.993 246.793 127.286 246.203 126.933 244.966C126.638 243.964 126.874 243.669 127.345 243.139C127.463 243.021 127.581 242.844 127.758 242.668C127.934 242.432 128.288 242.196 128.641 242.019C129.466 241.548 130.586 240.9 130.468 239.25C130.409 237.835 129.466 237.364 128.524 236.834C127.875 236.48 127.227 236.185 126.756 235.478C125.518 233.828 124.045 229.055 123.809 226.462C123.515 223.575 124.045 218.094 124.516 217.741C124.693 217.682 125.459 218.035 126.049 218.33C127.168 218.86 128.583 219.509 129.525 219.273C129.702 219.214 129.82 219.214 129.997 219.155C131.234 218.86 131.352 218.743 131.293 217.505C131.234 216.621 130.586 216.503 130.056 216.444C129.643 216.385 129.349 216.326 129.113 216.032C128.641 215.443 128.818 213.203 128.877 212.378L128.406 212.319C128.347 212.673 128.052 215.443 128.7 216.326C129.054 216.739 129.525 216.798 129.938 216.857C130.527 216.975 130.822 217.034 130.822 217.505C130.881 217.976 130.881 218.212 130.763 218.33C130.645 218.448 130.35 218.507 129.879 218.625C129.761 218.684 129.584 218.684 129.408 218.742C128.583 218.919 127.286 218.33 126.225 217.8C125.224 217.328 124.693 217.093 124.34 217.21C123.397 217.564 123.102 224.105 123.279 226.403C123.515 229.114 124.988 233.946 126.343 235.655C126.874 236.362 127.64 236.775 128.229 237.128C129.172 237.6 129.879 238.012 129.938 239.191C129.997 240.546 129.172 241.018 128.288 241.548C127.875 241.784 127.522 242.019 127.286 242.314C127.168 242.491 127.05 242.668 126.933 242.785C126.461 243.316 126.108 243.787 126.461 245.025C126.874 246.38 127.699 247.146 129.231 247.5C129.525 247.559 129.938 247.617 130.527 247.617C130.174 247.853 129.82 247.853 129.408 247.853C128.995 247.853 128.465 247.794 128.052 248.148C127.286 248.678 127.758 249.562 128.111 250.21C128.229 250.505 128.406 250.8 128.406 250.976C128.406 251.094 128.347 251.212 128.229 251.33C127.993 251.507 127.522 251.566 126.874 251.507C126.166 251.389 125.165 250.328 124.575 249.68C124.34 249.444 124.163 249.209 124.045 249.15C123.809 248.973 123.456 248.973 123.161 249.032C122.808 249.091 122.395 249.091 122.041 248.855C121.865 248.737 121.688 248.501 121.688 248.207C121.629 247.676 121.865 247.087 122.041 246.91C122.1 246.851 122.277 246.851 122.513 246.851C122.808 246.851 123.161 246.851 123.456 246.616C123.927 246.203 124.104 245.555 124.045 244.553C123.986 243.964 123.515 243.964 123.102 243.964C122.631 243.964 122.1 243.905 121.865 243.257C121.688 242.785 121.924 242.314 122.277 241.725C122.808 240.841 123.456 239.662 122.513 238.071C121.452 236.068 120.274 236.303 119.39 236.48C119.095 236.539 118.8 236.598 118.624 236.539C118.447 236.48 118.329 236.362 118.329 236.303C118.27 236.126 118.388 235.95 118.447 235.891L118.093 235.655C118.093 235.714 117.799 236.068 117.916 236.48C117.975 236.716 118.152 236.951 118.506 237.069C118.8 237.187 119.154 237.128 119.508 237.069C120.274 236.951 121.216 236.716 122.159 238.425C122.925 239.839 122.395 240.782 121.924 241.666C121.57 242.314 121.216 242.903 121.452 243.551C121.806 244.494 122.572 244.553 123.102 244.553C123.574 244.553 123.633 244.612 123.633 244.73C123.691 245.555 123.574 246.144 123.22 246.439C123.043 246.557 122.808 246.557 122.572 246.557C122.277 246.557 121.983 246.557 121.747 246.793C121.511 247.028 121.216 247.794 121.334 248.443C121.393 248.855 121.57 249.209 121.865 249.444C122.395 249.798 122.925 249.798 123.338 249.739C123.633 249.739 123.809 249.68 123.927 249.798C124.045 249.857 124.163 250.093 124.399 250.328C125.047 251.035 126.108 252.214 126.933 252.332C126.933 252.332 126.933 252.332 126.991 252.332C127.758 252.45 128.347 252.332 128.7 252.037C128.877 251.86 128.995 251.625 129.054 251.33C129.054 251.035 128.877 250.741 128.7 250.328C128.347 249.621 128.111 249.15 128.524 248.855C128.877 248.619 129.172 248.619 129.584 248.619C130.115 248.619 130.763 248.678 131.293 247.971C131.352 247.971 131.411 247.971 131.411 247.971C133.533 248.089 136.774 248.325 138.424 249.268C139.543 249.975 139.543 250.328 139.484 251.153C139.425 251.919 139.366 252.921 140.133 254.689C139.897 255.396 139.779 256.221 139.897 257.576C140.191 261.701 143.374 265.885 143.609 266.18C143.727 266.357 143.904 266.534 144.022 266.651C144.493 267.005 145.672 267.653 146.968 268.419C148.441 269.244 150.15 270.187 151.27 270.953C152.567 271.896 153.981 272.839 154.099 273.9C154.158 274.371 154.04 274.901 153.568 275.432C151.977 277.553 150.033 284.86 149.974 285.096L150.445 285.155C150.504 284.684 152.508 277.612 153.922 275.668C154.275 274.843 154.452 274.194 154.393 273.605Z" fill="url(#paint8_linear_3618_19667)"/>
<path d="M151.211 275.491C150.563 273.251 147.322 270.835 146.261 270.187C143.963 268.773 138.718 268.478 136.302 269.008C135.182 269.244 134.416 269.598 133.709 269.951C132.943 270.305 132.295 270.658 131.411 270.658C129.584 270.658 128.582 270.894 127.698 271.542C127.522 271.66 127.463 271.837 127.463 271.955C127.463 272.308 127.816 272.662 128.17 273.016C128.464 273.251 128.877 273.664 128.818 273.899C128.818 274.017 128.7 274.076 128.582 274.135C127.404 274.783 126.461 273.899 126.402 273.841L126.048 274.194C126.048 274.194 127.227 275.373 128.759 274.607C129.054 274.43 129.172 274.253 129.23 274.017C129.289 273.546 128.818 273.133 128.464 272.78C128.229 272.544 127.875 272.249 127.875 272.073L127.934 272.014C128.7 271.424 129.643 271.248 131.352 271.248C132.354 271.248 133.061 270.894 133.886 270.482C134.534 270.128 135.3 269.774 136.361 269.539C138.659 269.067 143.845 269.362 146.025 270.658C147.322 271.424 150.209 273.723 150.798 275.726C150.916 276.257 150.68 277.258 150.327 277.966C148.559 282.091 147.97 285.037 147.97 285.037L148.382 285.096C148.382 285.096 148.972 282.149 150.739 278.083C150.975 277.553 151.447 276.316 151.211 275.491Z" fill="url(#paint9_linear_3618_19667)"/>
<path d="M152.272 275.137C152.154 274.312 151.329 273.428 151.034 273.075C150.975 273.016 150.975 273.016 150.975 273.016C149.325 271.071 146.909 269.186 145.318 268.596C144.847 268.419 144.316 268.302 143.668 268.184C141.075 266.946 138.6 266.475 136.184 266.003C134.888 265.768 133.532 265.473 132.177 265.119C128.582 264.059 122.572 258.048 122.277 257.812C122.1 257.577 117.975 252.391 117.622 250.564C117.445 249.798 116.561 245.909 116.148 244.848C115.736 243.905 110.609 242.196 109.548 241.843C107.015 241.725 103.361 241.489 103.007 241.253C102.595 240.959 102.123 239.544 102.241 238.955C102.241 238.719 102.536 238.543 102.831 238.366C103.302 238.071 103.832 237.659 103.95 236.952C104.009 236.421 103.656 234.83 103.007 232.296C102.418 229.88 101.652 226.639 101.829 226.05C102.006 225.519 102.359 225.461 102.713 225.343C103.066 225.284 103.42 225.166 103.538 224.635C103.597 224.459 103.479 224.282 103.42 224.223C103.184 223.987 102.654 223.987 101.947 224.046C101.24 224.105 100.297 224.164 99.9431 223.811L99.6484 224.164C100.179 224.636 101.122 224.577 101.947 224.518C102.359 224.518 102.948 224.459 103.066 224.577C103.007 224.812 102.948 224.812 102.595 224.93C102.241 225.048 101.711 225.166 101.416 225.932C101.181 226.58 101.711 228.937 102.595 232.473C103.066 234.477 103.597 236.48 103.538 236.952C103.479 237.482 103.007 237.777 102.595 238.071C102.182 238.307 101.829 238.602 101.77 239.014C101.652 239.721 102.182 241.371 102.772 241.784C103.243 242.137 108.016 242.373 109.489 242.432C112.436 243.375 115.559 244.671 115.795 245.143C116.148 245.968 116.797 248.619 117.268 250.8C117.681 252.686 121.865 257.989 122.041 258.225C122.277 258.46 128.347 264.589 132.118 265.65C133.473 266.062 134.829 266.298 136.125 266.534C138.011 266.887 140.015 267.3 142.077 268.066C140.957 267.948 139.72 267.889 138.6 267.771C137.598 267.712 136.715 267.653 135.948 267.536C130.35 266.946 127.227 266.062 125.223 264.648C122.925 263.057 116.09 257.046 115.559 256.339C115.265 255.927 115.147 255.514 114.97 254.984C114.852 254.571 114.734 254.1 114.498 253.569C113.614 251.684 110.373 249.562 108.016 248.03C106.779 247.264 105.718 246.557 105.482 246.203C105.129 245.673 105.247 245.319 105.423 244.848C105.541 244.494 105.718 244.141 105.718 243.669H105.247C105.247 244.082 105.129 244.377 105.011 244.671C104.775 245.202 104.598 245.673 105.07 246.439C105.364 246.852 106.366 247.5 107.722 248.384C110.02 249.857 113.261 251.919 114.027 253.746C114.263 254.218 114.381 254.689 114.498 255.102C114.675 255.691 114.793 256.162 115.147 256.634C115.736 257.341 122.631 263.411 124.929 265.061C127.05 266.534 130.173 267.418 135.89 268.007C136.597 268.066 137.54 268.125 138.541 268.243C141.016 268.419 143.845 268.655 145.2 269.127C146.732 269.657 149.09 271.484 150.681 273.428C150.681 273.428 150.739 273.487 150.739 273.546C150.975 273.841 151.8 274.725 151.859 275.373C151.977 276.021 151.506 277.259 150.857 279.027C150.268 280.677 149.502 282.739 148.854 285.214L149.266 285.332C149.914 282.857 150.622 280.853 151.27 279.203C151.918 277.141 152.389 275.903 152.272 275.137Z" fill="url(#paint10_linear_3618_19667)"/>
<path d="M105.07 212.26C105.011 212.614 104.657 213.144 104.245 213.734C103.538 214.853 102.654 216.091 103.184 217.034C103.479 217.564 104.186 218.035 105.011 218.625C106.543 219.626 108.488 220.923 109.254 223.28C110.491 226.993 113.674 233.651 113.674 233.71V233.769C113.732 233.828 117.563 239.073 116.266 244.141L116.679 244.259C118.034 239.073 114.381 233.946 114.027 233.534C114.027 233.475 113.909 233.298 113.791 233.062C114.322 232.944 115.5 232.591 116.325 231.53C116.915 230.764 117.15 229.762 117.032 228.525C116.797 226.462 115.795 224.517 114.911 222.867C114.145 221.394 113.497 220.157 113.615 219.214C113.674 218.448 114.145 218.271 114.734 218.094C115.441 217.917 116.325 217.623 116.502 216.091C116.679 214.441 115.559 213.734 114.616 213.203C113.909 212.732 113.438 212.437 113.497 211.907C113.615 210.434 115.736 208.371 115.736 208.371L115.441 208.017C115.382 208.076 113.202 210.198 113.084 211.848C113.025 212.673 113.732 213.144 114.44 213.557C115.324 214.087 116.266 214.676 116.09 216.032C115.972 217.269 115.324 217.446 114.616 217.623C113.968 217.8 113.261 218.035 113.143 219.096C113.084 220.157 113.732 221.453 114.499 222.985C115.382 224.635 116.325 226.521 116.561 228.525C116.679 229.585 116.502 230.528 115.972 231.176C115.206 232.178 114.027 232.473 113.615 232.532C112.672 230.587 110.609 225.932 109.666 223.103C108.841 220.628 106.779 219.214 105.247 218.212C104.481 217.682 103.774 217.21 103.538 216.798C103.125 216.091 103.891 214.971 104.54 213.969C105.011 213.321 105.365 212.732 105.424 212.319C105.482 211.671 104.893 210.728 104.127 209.609C103.479 208.607 102.713 207.487 102.595 206.662L102.124 206.721C102.241 207.664 103.007 208.784 103.715 209.844C104.481 210.846 105.188 211.789 105.07 212.26Z" fill="url(#paint11_linear_3618_19667)"/>
<path d="M149.679 277.023C149.149 275.786 147.557 274.784 146.438 274.077C145.966 273.782 145.613 273.547 145.436 273.37C145.259 273.193 145.259 273.016 145.2 272.839C145.082 272.309 144.906 271.838 143.786 271.366C142.077 270.659 138.011 270.305 136.597 271.189C136.066 271.543 136.007 271.955 136.007 272.309C136.125 273.252 137.245 274.077 138.306 274.43C139.013 274.666 139.072 275.432 139.131 276.198C139.19 276.847 139.249 277.495 139.72 277.907C140.074 278.143 140.191 278.379 140.132 278.555C140.073 278.791 139.661 279.086 138.777 279.204C137.481 279.322 135.477 278.791 135.418 278.791L135.3 279.263C135.359 279.263 137.422 279.793 138.777 279.675C139.779 279.557 140.427 279.204 140.545 278.673C140.663 278.261 140.427 277.848 139.956 277.495C139.602 277.259 139.602 276.729 139.543 276.139C139.484 275.373 139.425 274.313 138.424 274.018C137.363 273.664 136.479 272.898 136.42 272.25C136.42 272.014 136.538 271.779 136.774 271.602C137.952 270.895 141.782 271.131 143.55 271.838C144.552 272.25 144.611 272.604 144.729 272.957C144.788 273.193 144.847 273.488 145.141 273.723C145.318 273.9 145.731 274.195 146.202 274.489C147.263 275.138 148.795 276.198 149.325 277.259C149.679 278.025 149.266 278.85 148.736 280.029C148.265 281.148 147.616 282.504 147.381 284.389L147.852 284.448C148.088 282.68 148.736 281.325 149.207 280.205C149.62 278.968 150.091 278.025 149.679 277.023Z" fill="url(#paint12_linear_3618_19667)"/>
</g>
<path d="M164.705 184.623C186.185 184.623 203.598 175.231 203.598 163.645C203.598 152.058 186.185 142.666 164.705 142.666C143.225 142.666 125.812 152.058 125.812 163.645C125.812 175.231 143.225 184.623 164.705 184.623Z" fill="#2A697F"/>
<path d="M164.293 163.939C173.731 163.939 181.382 160.166 181.382 155.512C181.382 150.858 173.731 147.085 164.293 147.085C154.855 147.085 147.204 150.858 147.204 155.512C147.204 160.166 154.855 163.939 164.293 163.939Z" fill="#293C4F"/>
<path d="M164.293 149.09C173.014 149.09 180.263 152.331 181.264 156.515C181.323 156.161 181.382 155.866 181.382 155.513C181.382 150.857 173.721 147.086 164.293 147.086C154.864 147.086 147.204 150.857 147.204 155.513C147.204 155.866 147.263 156.22 147.321 156.515C148.382 152.331 155.571 149.09 164.293 149.09Z" fill="#DBDBDB"/>
<path d="M181.264 158.223L180.852 156.573C179.85 152.507 172.72 149.443 164.293 149.443C155.866 149.443 148.736 152.507 147.734 156.573L147.321 158.223L146.909 156.573C146.791 156.161 146.791 155.807 146.791 155.454C146.791 153.038 148.618 150.798 152.036 149.148C155.336 147.498 159.696 146.614 164.293 146.614C168.889 146.614 173.25 147.498 176.55 149.148C179.909 150.798 181.795 153.096 181.795 155.454C181.795 155.807 181.736 156.161 181.677 156.573L181.264 158.223ZM164.293 147.439C155.63 147.439 148.5 150.621 147.675 154.687C149.973 151.152 156.632 148.618 164.293 148.618C171.954 148.618 178.554 151.152 180.911 154.687C180.145 150.621 172.955 147.439 164.293 147.439Z" fill="#323A50"/>
<path d="M164.764 142.784C143.255 142.784 125.872 151.977 125.872 163.232C125.872 174.547 143.314 183.681 164.764 183.681C186.273 183.681 203.657 174.488 203.657 163.232C203.716 151.977 186.273 142.784 164.764 142.784ZM181.441 155.631C181.441 155.69 181.5 155.749 181.5 155.749C181.5 155.807 181.5 155.866 181.5 155.925C180.793 160.168 173.486 163.527 164.47 163.527C155.748 163.527 148.5 160.345 147.498 156.279C147.498 156.161 147.439 156.043 147.439 155.925C147.439 155.866 147.439 155.807 147.439 155.749C147.439 155.69 147.439 155.572 147.439 155.572C147.439 155.454 147.439 155.395 147.439 155.159C147.439 155.159 147.439 154.923 147.439 154.806C147.498 154.216 147.675 153.745 147.97 153.215C148.206 152.684 148.618 152.213 149.089 151.741H149.148C151.918 148.972 157.811 147.086 164.588 147.086C174.016 147.086 181.736 150.798 181.736 155.336H181.559C181.382 155.395 181.441 155.513 181.441 155.631Z" fill="#DBDBDB"/>
<path d="M164.764 184.152C154.275 184.152 144.434 182.03 137.068 178.082C129.584 174.134 125.459 168.889 125.459 163.232C125.459 157.634 129.584 152.33 137.068 148.382C144.493 144.493 154.334 142.312 164.764 142.312C175.254 142.312 185.095 144.434 192.461 148.382C199.945 152.33 204.07 157.575 204.07 163.232C204.07 168.83 199.945 174.134 192.461 178.082C185.095 181.971 175.254 184.152 164.764 184.152ZM164.764 143.196C143.55 143.196 126.284 152.212 126.284 163.232C126.284 174.311 143.55 183.268 164.764 183.268C185.979 183.268 203.245 174.252 203.245 163.232C203.304 152.212 185.979 143.196 164.764 143.196ZM164.411 163.939C155.571 163.939 148.146 160.698 147.086 156.338C147.086 156.22 147.027 156.102 147.027 155.984C147.027 155.925 147.027 155.866 146.968 155.807C146.968 155.748 146.968 155.689 146.968 155.689V155.63C146.968 155.512 146.968 155.395 146.968 155.159V154.746C147.027 154.157 147.204 153.627 147.557 152.979C147.793 152.448 148.205 151.977 148.736 151.388L148.795 151.329C151.741 148.382 157.752 146.555 164.47 146.555C169.066 146.555 173.427 147.439 176.727 149.03C180.145 150.68 181.971 152.861 181.971 155.218V155.63H181.854C181.854 155.689 181.854 155.689 181.854 155.748C181.854 155.807 181.854 155.866 181.854 155.925C181.088 160.521 173.604 163.939 164.411 163.939ZM147.734 155.159C147.734 155.336 147.734 155.395 147.734 155.513C147.734 155.513 147.734 155.571 147.734 155.63C147.734 155.689 147.734 155.689 147.734 155.748C147.734 155.807 147.734 155.866 147.734 155.925C147.734 156.043 147.793 156.102 147.793 156.22C148.795 160.168 155.925 163.173 164.352 163.173C173.014 163.173 180.321 159.991 180.97 155.925V155.866C180.97 155.807 180.911 155.748 180.97 155.689V155.63C180.97 155.571 180.97 155.512 180.97 155.395V154.982H181.147C180.97 153.096 179.261 151.27 176.373 149.914C173.191 148.382 168.948 147.557 164.411 147.557C157.988 147.557 152.036 149.325 149.266 152.095L149.207 152.154C148.736 152.625 148.441 153.038 148.205 153.45C147.97 153.98 147.793 154.452 147.734 154.923C147.734 154.982 147.734 155.159 147.734 155.159Z" fill="#323A50"/>
<g opacity="0.3">
<path d="M165.766 296.41C165.707 296.41 165.648 296.41 165.648 296.41C151.977 296.41 138.364 292.58 126.343 285.45H126.284L125.695 284.86C110.668 276.139 99.3537 262.585 92.9895 245.555C90.4555 239.014 88.9234 231.943 88.2752 224.046C88.0984 220.334 88.0984 216.916 88.2752 213.203C88.452 209.55 88.9823 205.896 89.9252 201.535C90.868 197.116 92.2823 192.755 94.3448 188.1L95.1109 188.453C93.1073 193.05 91.693 197.41 90.7502 201.771C89.8073 206.073 89.3359 209.726 89.1002 213.321C88.9234 216.975 88.9234 220.393 89.1002 224.046C89.7484 231.825 91.2805 238.837 93.7555 245.319C100.061 262.114 111.257 275.609 126.166 284.212H126.225L126.814 284.801C151.093 299.121 180.145 299.239 204.541 284.978C205.72 284.212 206.957 283.328 208.431 282.562C221.336 274.253 231 262.409 237.188 247.323C237.482 246.616 237.718 245.85 238.013 245.084C238.248 244.318 238.543 243.551 238.838 242.844C243.493 228.584 244.082 213.969 240.429 199.532V199.473C240.311 198.884 237.895 191.459 236.422 188.1L237.188 187.746C238.543 190.928 241.018 198.294 241.195 199.296C244.848 213.91 244.318 228.643 239.545 243.08V243.139C239.25 243.846 239.014 244.612 238.779 245.319C238.543 246.085 238.248 246.851 237.954 247.618C231.707 262.88 221.925 274.843 208.902 283.21C207.488 284.035 206.25 284.86 205.072 285.626C192.932 292.698 179.379 296.41 165.766 296.41Z" fill="#323A50"/>
</g>
<path d="M170.304 100.178V85.0928H163.822V100.178H158.518L166.591 112.318H166.709L175.313 100.178H170.304Z" fill="#FF4200"/>
<path d="M166.886 79.0229C151.093 79.0229 138.718 75.6051 138.718 71.2443C138.718 70.0068 139.72 68.8283 141.664 67.7086C149.973 62.4051 158.105 59.8711 166.591 59.8711H166.827C176.078 59.8711 184.211 62.464 192.578 68.0033C192.637 68.0622 192.755 68.0622 192.814 68.1211C192.932 68.18 193.05 68.239 193.227 68.3568C193.227 68.3568 193.227 68.3568 193.286 68.3568L193.698 68.6515C194.641 69.4175 195.053 70.3015 195.053 71.1265C195.053 75.5461 182.678 79.0229 166.886 79.0229ZM166.65 60.4604C158.282 60.4604 150.268 62.9943 142.018 68.18C140.25 69.1818 139.366 70.1836 139.366 71.1854C139.366 75.0747 151.977 78.3747 166.945 78.3747C181.853 78.3747 194.523 75.0747 194.523 71.1854C194.523 70.4193 193.993 69.6533 192.991 68.8872L192.932 68.8282C192.873 68.7693 192.755 68.7104 192.637 68.6515C192.52 68.5925 192.461 68.5336 192.343 68.4747C184.093 62.9943 176.078 60.4015 166.945 60.4015L166.65 60.4604Z" fill="#323A50"/>
<path d="M166.886 77.5492C153.921 77.5492 140.544 75.1332 140.544 71.0671C140.544 67.001 153.921 64.585 166.886 64.585C179.85 64.585 193.227 67.001 193.227 71.0671C193.227 75.0742 179.85 77.5492 166.886 77.5492ZM166.886 65.2332C151.505 65.2332 141.134 68.2386 141.134 71.1261C141.134 74.0136 151.505 77.0189 166.886 77.0189C182.266 77.0189 192.637 74.0136 192.637 71.1261C192.637 68.2386 182.266 65.2332 166.886 65.2332Z" fill="#323A50"/>
<path d="M165.295 140.721V140.132C165.943 140.132 166.65 140.132 167.357 140.073V140.662C166.65 140.721 165.943 140.721 165.295 140.721ZM163.232 140.721C162.525 140.721 161.877 140.721 161.17 140.662V140.073C161.818 140.073 162.525 140.132 163.232 140.132V140.721ZM169.361 140.603L169.302 140.014C169.95 139.955 170.657 139.955 171.305 139.896L171.364 140.485C170.716 140.544 170.068 140.603 169.361 140.603ZM159.166 140.603C158.459 140.544 157.811 140.544 157.104 140.485L157.163 139.896C157.811 139.955 158.518 140.014 159.166 140.014V140.603ZM173.427 140.308L173.368 139.719C174.016 139.66 174.723 139.601 175.372 139.483L175.43 140.073C174.782 140.132 174.134 140.191 173.427 140.308ZM155.1 140.308C154.393 140.25 153.745 140.132 153.038 140.073L153.097 139.483C153.745 139.542 154.393 139.66 155.1 139.719V140.308ZM177.493 139.778L177.375 139.189C178.023 139.071 178.731 138.953 179.379 138.835L179.497 139.425C178.848 139.542 178.2 139.66 177.493 139.778ZM151.034 139.719C150.327 139.601 149.679 139.483 149.03 139.366L149.148 138.776C149.797 138.894 150.445 139.012 151.152 139.13L151.034 139.719ZM181.5 138.953L181.382 138.364C182.089 138.187 182.738 138.01 183.327 137.834L183.504 138.423C182.856 138.6 182.207 138.776 181.5 138.953ZM147.027 138.894C146.32 138.717 145.672 138.541 145.023 138.305L145.2 137.716C145.789 137.892 146.438 138.128 147.145 138.246L147.027 138.894ZM185.448 137.716L185.213 137.126C185.861 136.891 186.509 136.596 187.039 136.242L187.334 136.773C186.745 137.126 186.155 137.421 185.448 137.716ZM143.079 137.657C142.902 137.598 142.725 137.539 142.548 137.421L142.784 136.891C142.961 136.95 143.138 137.008 143.255 137.067L143.079 137.657ZM188.984 135.594L188.513 135.182C188.984 134.651 189.22 134.18 189.22 133.65V133.591H189.809V133.65C189.927 134.298 189.632 134.946 188.984 135.594ZM188.454 132.058C188.041 131.646 187.511 131.292 186.863 130.939L187.157 130.408C187.864 130.821 188.454 131.175 188.866 131.646L188.454 132.058ZM185.095 130.055C184.505 129.819 183.857 129.583 183.209 129.407L183.386 128.817C184.093 128.994 184.741 129.289 185.33 129.466L185.095 130.055ZM181.205 128.876C180.557 128.7 179.909 128.582 179.202 128.464L179.32 127.875C180.027 127.992 180.675 128.169 181.323 128.346L181.205 128.876ZM150.975 128.169L150.857 127.58C151.505 127.462 152.154 127.344 152.861 127.285L152.92 127.875C152.33 127.933 151.623 128.051 150.975 128.169ZM177.257 128.11C176.609 127.992 175.961 127.934 175.254 127.816L175.313 127.226C176.02 127.285 176.668 127.403 177.316 127.521L177.257 128.11ZM154.982 127.639L154.923 127.05C155.572 126.991 156.279 126.932 156.986 126.873L157.045 127.462C156.338 127.521 155.63 127.58 154.982 127.639ZM173.191 127.58C172.543 127.521 171.836 127.462 171.188 127.403L171.247 126.814C171.954 126.873 172.602 126.932 173.309 126.991L173.191 127.58ZM159.048 127.285L158.989 126.696C159.638 126.637 160.345 126.637 161.052 126.578V127.167C160.404 127.226 159.697 127.226 159.048 127.285ZM169.184 127.285C168.536 127.226 167.829 127.226 167.122 127.226V126.637C167.829 126.637 168.477 126.696 169.184 126.696V127.285ZM163.114 127.167V126.578C163.763 126.578 164.47 126.578 165.177 126.578V127.167C164.411 127.167 163.763 127.167 163.114 127.167Z" fill="#323A50"/>
<path d="M262.881 190.162C261.054 183.915 256.045 179.731 248.089 177.61C243.552 176.431 239.25 176.313 237.482 176.313C237.423 176.078 237.306 175.842 237.129 175.665C238.72 175.606 243.316 175.665 248.266 176.962C256.339 179.083 261.584 183.562 263.529 189.867C263.941 190.692 275.55 215.147 276.964 229.408C277.377 233.18 280.382 234.004 285.981 235.537C290.577 236.774 296.882 238.483 304.779 242.726L304.484 243.315C296.706 239.131 290.459 237.422 285.863 236.185C280.206 234.653 276.788 233.71 276.375 229.467C275.197 217.799 267.182 199.296 264.118 192.637C264.295 197.587 260.877 204.422 253.806 213.026C247.088 221.276 237.129 231.117 224.223 242.372C219.45 246.556 214.559 250.563 209.904 254.394L209.138 254.158C213.852 250.387 218.861 246.203 223.752 241.901C252.745 216.621 266.298 198.765 262.881 190.162Z" fill="#323A50"/>
<path d="M239.427 182.383C239.368 181.911 238.779 179.613 238.602 179.201C238.661 178.965 239.545 180.379 239.486 180.203C239.486 179.731 239.191 179.26 238.779 178.965C238.838 178.494 238.838 178.258 238.366 177.963C238.425 177.786 237.895 177.728 237.836 177.551C238.661 178.906 239.663 180.792 239.957 182.324C241.254 189.454 230.47 206.249 207.782 232.295C202.773 238.011 197.705 243.728 193.109 248.619L192.402 248.383C212.791 226.403 241.195 193.226 239.427 182.383Z" fill="#323A50"/>
<path d="M237.188 175.606C237.305 175.724 237.364 175.842 237.482 175.96L241.725 175.783C239.78 175.606 238.13 175.606 237.188 175.606Z" fill="#323A50"/>
<path d="M238.307 177.669L249.209 177.197C248.797 177.079 248.384 176.962 247.913 176.844L238.189 177.256C238.189 177.433 238.307 177.551 238.307 177.669Z" fill="#323A50"/>
<path d="M238.72 179.377L253.157 178.788C252.922 178.67 252.627 178.552 252.332 178.435L238.543 178.965C238.543 179.024 238.543 179.083 238.543 179.142C238.661 179.201 238.661 179.26 238.72 179.377Z" fill="#323A50"/>
<path d="M239.427 181.087L256.045 180.439C255.868 180.321 255.632 180.203 255.456 180.026L239.309 180.675C239.309 180.792 239.368 180.91 239.427 181.087Z" fill="#323A50"/>
<path d="M239.604 182.619L258.048 181.853C257.93 181.735 257.754 181.617 257.577 181.44L239.604 182.148C239.604 182.383 239.604 182.501 239.604 182.619Z" fill="#323A50"/>
<path d="M239.663 184.387L259.698 183.562C259.58 183.444 259.463 183.326 259.345 183.149L239.663 183.915C239.663 184.092 239.663 184.21 239.663 184.387Z" fill="#323A50"/>
<path d="M239.427 185.742C239.368 185.86 239.368 185.977 239.309 186.095L260.995 185.211C260.936 185.094 260.818 184.976 260.7 184.799L239.427 185.683C239.427 185.683 239.427 185.683 239.427 185.742Z" fill="#323A50"/>
<path d="M238.896 187.569C238.896 187.628 238.837 187.746 238.837 187.805L262.055 186.862C261.996 186.744 261.937 186.626 261.82 186.449L238.955 187.392C238.896 187.451 238.896 187.51 238.896 187.569Z" fill="#323A50"/>
<path d="M238.189 189.16L262.586 188.158C262.645 188.276 262.704 188.394 262.763 188.571L238.013 189.572C238.072 189.396 238.131 189.278 238.189 189.16Z" fill="#323A50"/>
<path d="M237.482 190.869L263.234 189.809C263.293 189.926 263.293 190.044 263.352 190.221L237.306 191.282C237.365 191.164 237.424 191.046 237.482 190.869Z" fill="#323A50"/>
<path d="M236.657 192.578L263.587 191.458C263.587 191.576 263.646 191.694 263.646 191.87L236.421 192.99C236.48 192.872 236.539 192.754 236.657 192.578Z" fill="#323A50"/>
<path d="M235.714 194.346L263.705 193.227C263.705 193.344 263.705 193.462 263.705 193.639L235.479 194.759C235.596 194.641 235.655 194.523 235.714 194.346Z" fill="#323A50"/>
<path d="M234.83 195.996L263.588 194.817C263.588 194.935 263.529 195.053 263.529 195.23L234.595 196.408C234.654 196.232 234.713 196.114 234.83 195.996Z" fill="#323A50"/>
<path d="M233.77 197.764L263.175 196.585C263.116 196.703 263.116 196.821 263.057 196.998L233.475 198.176C233.593 198.058 233.711 197.881 233.77 197.764Z" fill="#323A50"/>
<path d="M232.709 199.473L262.645 198.235C262.586 198.353 262.527 198.53 262.468 198.648L232.415 199.885C232.532 199.767 232.591 199.65 232.709 199.473Z" fill="#323A50"/>
<path d="M231.589 201.24L261.996 200.003C261.937 200.121 261.879 200.298 261.82 200.415L231.354 201.653C231.412 201.535 231.471 201.417 231.589 201.24Z" fill="#323A50"/>
<path d="M230.47 202.891L261.172 201.653C261.113 201.771 261.054 201.948 260.936 202.066L230.175 203.303C230.293 203.185 230.352 203.068 230.47 202.891Z" fill="#323A50"/>
<path d="M229.232 204.717L260.17 203.479C260.111 203.597 259.993 203.774 259.934 203.892L228.938 205.129C229.055 204.953 229.173 204.835 229.232 204.717Z" fill="#323A50"/>
<path d="M228.053 206.426L259.168 205.188C259.109 205.306 258.991 205.483 258.932 205.601L227.759 206.839C227.818 206.721 227.936 206.544 228.053 206.426Z" fill="#323A50"/>
<path d="M226.757 208.194L257.99 206.956C257.872 207.074 257.813 207.251 257.695 207.369L226.404 208.606C226.522 208.488 226.64 208.37 226.757 208.194Z" fill="#323A50"/>
<path d="M225.579 209.844L256.87 208.606C256.752 208.724 256.693 208.901 256.575 209.019L225.225 210.256C225.343 210.08 225.461 209.962 225.579 209.844Z" fill="#323A50"/>
<path d="M224.223 211.612L255.573 210.374C255.455 210.492 255.396 210.669 255.22 210.786L223.87 212.024C223.987 211.906 224.105 211.729 224.223 211.612Z" fill="#323A50"/>
<path d="M222.927 213.38L254.277 212.143C254.159 212.26 254.041 212.437 253.923 212.555L222.632 213.793C222.691 213.616 222.809 213.498 222.927 213.38Z" fill="#323A50"/>
<path d="M221.512 215.148L252.803 213.91C252.686 214.028 252.568 214.205 252.45 214.323L221.218 215.56C221.277 215.442 221.395 215.265 221.512 215.148Z" fill="#323A50"/>
<path d="M220.157 216.915L251.331 215.678C251.213 215.796 251.095 215.972 250.977 216.09L219.863 217.328C219.922 217.151 220.04 217.033 220.157 216.915Z" fill="#323A50"/>
<path d="M218.743 218.683L249.798 217.445C249.68 217.563 249.563 217.74 249.445 217.858L218.448 219.095C218.507 218.977 218.625 218.801 218.743 218.683Z" fill="#323A50"/>
<path d="M217.329 220.451L248.207 219.214C248.089 219.332 247.972 219.508 247.795 219.626L216.975 220.864C217.093 220.687 217.211 220.569 217.329 220.451Z" fill="#323A50"/>
<path d="M215.973 222.101L246.675 220.863C246.557 220.981 246.439 221.158 246.262 221.276L215.62 222.513C215.737 222.395 215.855 222.219 215.973 222.101Z" fill="#323A50"/>
<path d="M214.618 223.751L245.084 222.514C244.966 222.632 244.848 222.808 244.671 222.926L214.264 224.164C214.382 223.987 214.5 223.869 214.618 223.751Z" fill="#323A50"/>
<path d="M213.145 225.519L243.375 224.281C243.257 224.399 243.139 224.576 242.962 224.694L212.791 225.931C212.909 225.813 213.027 225.637 213.145 225.519Z" fill="#323A50"/>
<path d="M211.671 227.286L241.666 226.049C241.548 226.167 241.371 226.344 241.254 226.461L211.318 227.64C211.436 227.581 211.554 227.404 211.671 227.286Z" fill="#323A50"/>
<path d="M210.198 229.055L239.898 227.876C239.781 227.994 239.604 228.171 239.486 228.289L209.904 229.467C209.904 229.349 210.081 229.231 210.198 229.055Z" fill="#323A50"/>
<path d="M208.784 230.705L238.19 229.526C238.072 229.644 237.895 229.821 237.718 229.939L208.431 231.117C208.549 231 208.666 230.882 208.784 230.705Z" fill="#323A50"/>
<path d="M207.37 232.354L236.421 231.176C236.303 231.294 236.127 231.47 235.95 231.588L206.957 232.767C207.134 232.649 207.252 232.531 207.37 232.354Z" fill="#323A50"/>
<path d="M205.837 234.123L234.595 232.944C234.477 233.062 234.3 233.239 234.123 233.357L205.484 234.535C205.602 234.418 205.72 234.3 205.837 234.123Z" fill="#323A50"/>
<path d="M204.306 235.89L232.65 234.771C232.473 234.888 232.356 235.065 232.179 235.183L203.893 236.303C204.07 236.185 204.188 236.008 204.306 235.89Z" fill="#323A50"/>
<path d="M202.714 237.659L230.705 236.539C230.529 236.657 230.411 236.834 230.234 236.952L202.361 238.071C202.479 237.953 202.597 237.836 202.714 237.659Z" fill="#323A50"/>
<path d="M201.123 239.485L228.702 238.365C228.525 238.483 228.407 238.66 228.231 238.778L200.711 239.897C200.888 239.78 201.006 239.662 201.123 239.485Z" fill="#323A50"/>
<path d="M199.65 241.135L226.875 240.016C226.698 240.133 226.521 240.31 226.404 240.428L199.296 241.548C199.414 241.43 199.532 241.253 199.65 241.135Z" fill="#323A50"/>
<path d="M198.059 242.902L224.813 241.842C224.636 241.96 224.459 242.136 224.341 242.254L197.706 243.315C197.823 243.197 197.941 243.079 198.059 242.902Z" fill="#323A50"/>
<path d="M196.468 244.671L222.809 243.61C222.632 243.728 222.455 243.905 222.337 244.023L196.114 245.084C196.232 244.966 196.35 244.789 196.468 244.671Z" fill="#323A50"/>
<path d="M194.877 246.439L220.747 245.378C220.57 245.496 220.393 245.673 220.275 245.79L194.523 246.851C194.641 246.733 194.759 246.615 194.877 246.439Z" fill="#323A50"/>
<path d="M193.404 248.089L218.861 247.028C218.684 247.146 218.507 247.323 218.39 247.441L193.05 248.443C193.109 248.384 193.227 248.266 193.404 248.089Z" fill="#323A50"/>
<path d="M193.816 249.679L216.857 248.736C216.68 248.854 216.503 249.031 216.327 249.149L194.818 250.033C194.523 249.915 194.169 249.797 193.816 249.679Z" fill="#323A50"/>
<path d="M198.413 251.212L214.795 250.563C214.618 250.681 214.441 250.858 214.264 250.976L199.532 251.565C199.12 251.447 198.766 251.33 198.413 251.212Z" fill="#323A50"/>
<path d="M203.068 252.685L212.614 252.272C212.438 252.39 212.261 252.567 212.084 252.685L204.188 253.097C203.775 252.98 203.421 252.803 203.068 252.685Z" fill="#323A50"/>
<path d="M207.723 254.276L210.434 254.158C210.257 254.276 210.08 254.453 209.904 254.571L208.784 254.63C208.371 254.512 208.077 254.394 207.723 254.276Z" fill="#323A50"/>
<path d="M68.8875 190.162C70.7143 183.915 75.7232 179.731 83.6786 177.61C88.2161 176.431 92.5178 176.313 94.2857 176.313C94.3446 176.078 94.4625 175.842 94.6393 175.665C93.0482 175.606 88.4518 175.665 83.5018 176.962C75.4286 179.083 70.1839 183.562 68.2393 189.867C67.8268 190.692 56.2178 215.147 54.8036 229.408C54.3911 233.18 51.3857 234.004 45.7875 235.537C41.1911 236.774 34.8857 238.483 26.9893 242.726L27.2839 243.315C35.0625 239.131 41.3089 237.422 45.9053 236.185C51.5625 234.653 54.9803 233.71 55.3928 229.467C56.5714 217.799 64.5857 199.296 67.65 192.637C67.4732 197.587 70.891 204.422 77.9625 213.026C84.6803 221.276 94.6393 231.117 107.545 242.372C112.318 246.556 117.209 250.563 121.864 254.394L122.63 254.158C117.916 250.387 112.907 246.203 108.016 241.901C79.0232 216.621 65.5285 198.765 68.8875 190.162Z" fill="#323A50"/>
<path d="M92.3999 182.383C92.4588 181.911 93.0481 179.613 93.2249 179.201C93.166 178.965 92.282 180.379 92.341 180.203C92.341 179.731 92.6356 179.26 93.0481 178.965C92.9892 178.494 92.9892 178.258 93.4606 177.963C93.4017 177.786 93.932 177.728 93.9909 177.551C93.1659 178.906 92.1642 180.792 91.8695 182.324C90.5731 189.454 101.357 206.249 124.045 232.295C129.053 238.011 134.121 243.728 138.718 248.619L139.425 248.383C119.036 226.403 90.632 193.226 92.3999 182.383Z" fill="#323A50"/>
<path d="M94.6391 175.606C94.5212 175.724 94.4623 175.842 94.3444 175.96L90.1016 175.783C92.0462 175.606 93.6373 175.606 94.6391 175.606Z" fill="#323A50"/>
<path d="M93.4609 177.669L82.5591 177.197C82.9716 177.079 83.3841 176.962 83.8555 176.844L93.5787 177.256C93.5787 177.433 93.5198 177.551 93.4609 177.669Z" fill="#323A50"/>
<path d="M93.0483 179.377L78.6108 178.788C78.8466 178.67 79.1412 178.552 79.4358 178.435L93.2251 178.965C93.2251 179.024 93.2251 179.083 93.2251 179.142C93.1662 179.201 93.1073 179.26 93.0483 179.377Z" fill="#323A50"/>
<path d="M92.4001 181.087L75.7822 180.439C75.959 180.321 76.1947 180.203 76.3715 180.026L92.5179 180.675C92.459 180.792 92.4001 180.91 92.4001 181.087Z" fill="#323A50"/>
<path d="M92.2234 182.619L73.7788 181.853C73.8967 181.735 74.0734 181.617 74.2502 181.44L92.2234 182.148C92.2234 182.383 92.2234 182.501 92.2234 182.619Z" fill="#323A50"/>
<path d="M92.1641 184.387L72.1284 183.562C72.2463 183.444 72.3641 183.326 72.482 183.149L92.1641 183.915C92.1052 184.092 92.1052 184.21 92.1641 184.387Z" fill="#323A50"/>
<path d="M92.3999 185.742C92.4588 185.86 92.4588 185.977 92.5177 186.095L70.832 185.211C70.891 185.094 71.0088 184.976 71.1267 184.799L92.3999 185.683C92.3999 185.683 92.3999 185.683 92.3999 185.742Z" fill="#323A50"/>
<path d="M92.9304 187.569C92.9304 187.628 92.9893 187.746 92.9893 187.805L69.7715 186.862C69.8304 186.744 69.8893 186.626 70.0072 186.449L92.8715 187.392C92.8715 187.451 92.9304 187.51 92.9304 187.569Z" fill="#323A50"/>
<path d="M93.5786 189.16L69.1821 188.158C69.1232 188.276 69.0643 188.394 69.0054 188.571L93.7554 189.572C93.6964 189.396 93.6375 189.278 93.5786 189.16Z" fill="#323A50"/>
<path d="M94.3447 190.869L68.5929 189.809C68.534 189.926 68.534 190.044 68.4751 190.221L94.5215 191.282C94.4626 191.164 94.4037 191.046 94.3447 190.869Z" fill="#323A50"/>
<path d="M95.1695 192.578L68.2391 191.458C68.2391 191.576 68.1802 191.694 68.1802 191.87L95.4052 192.99C95.2873 192.872 95.2284 192.754 95.1695 192.578Z" fill="#323A50"/>
<path d="M96.0536 194.346L68.0625 193.227C68.0625 193.344 68.0625 193.462 68.0625 193.639L96.2893 194.759C96.2304 194.641 96.1125 194.523 96.0536 194.346Z" fill="#323A50"/>
<path d="M96.9964 195.996L68.2393 194.817C68.2393 194.935 68.2982 195.053 68.2982 195.23L97.2321 196.408C97.1143 196.232 97.0553 196.114 96.9964 195.996Z" fill="#323A50"/>
<path d="M97.9981 197.764L68.5928 196.585C68.6517 196.703 68.6517 196.821 68.7106 196.998L98.2928 198.176C98.1749 198.058 98.116 197.881 97.9981 197.764Z" fill="#323A50"/>
<path d="M99.0588 199.473L69.123 198.235C69.182 198.353 69.2409 198.53 69.2998 198.648L99.3534 199.885C99.2356 199.767 99.1766 199.65 99.0588 199.473Z" fill="#323A50"/>
<path d="M100.238 201.24L69.8306 200.003C69.8895 200.121 69.9484 200.298 70.0073 200.415L100.473 201.653C100.414 201.535 100.297 201.417 100.238 201.24Z" fill="#323A50"/>
<path d="M101.357 202.891L70.6553 201.653C70.7142 201.771 70.7731 201.948 70.891 202.066L101.652 203.303C101.534 203.185 101.416 203.068 101.357 202.891Z" fill="#323A50"/>
<path d="M102.536 204.717L71.5981 203.479C71.6571 203.597 71.7749 203.774 71.8339 203.892L102.83 205.129C102.712 204.953 102.654 204.835 102.536 204.717Z" fill="#323A50"/>
<path d="M103.773 206.426L72.6587 205.188C72.7176 205.306 72.8355 205.483 72.8944 205.601L104.068 206.839C103.95 206.721 103.832 206.544 103.773 206.426Z" fill="#323A50"/>
<path d="M105.011 208.194L73.7788 206.956C73.8967 207.074 73.9556 207.251 74.0735 207.369L105.365 208.606C105.247 208.488 105.129 208.37 105.011 208.194Z" fill="#323A50"/>
<path d="M106.248 209.844L74.957 208.606C75.0749 208.724 75.1338 208.901 75.2517 209.019L106.602 210.256C106.425 210.08 106.366 209.962 106.248 209.844Z" fill="#323A50"/>
<path d="M107.545 211.612L76.1948 210.374C76.3127 210.492 76.3716 210.669 76.5484 210.786L107.898 212.024C107.781 211.906 107.663 211.729 107.545 211.612Z" fill="#323A50"/>
<path d="M108.9 213.379L77.6089 212.083C77.7267 212.201 77.8446 212.378 77.9624 212.495L109.254 213.733C109.136 213.615 108.959 213.497 108.9 213.379Z" fill="#323A50"/>
<path d="M110.255 215.148L78.9644 213.91C79.0822 214.028 79.2001 214.205 79.3179 214.323L110.55 215.56C110.491 215.442 110.373 215.265 110.255 215.148Z" fill="#323A50"/>
<path d="M111.611 216.915L80.4375 215.678C80.5554 215.796 80.6732 215.972 80.7911 216.09L111.905 217.328C111.846 217.151 111.729 217.033 111.611 216.915Z" fill="#323A50"/>
<path d="M113.084 218.683L82.0288 217.445C82.1467 217.563 82.2645 217.74 82.3824 217.858L113.379 219.095C113.261 218.977 113.143 218.801 113.084 218.683Z" fill="#323A50"/>
<path d="M114.439 220.451L83.5605 219.214C83.6784 219.332 83.7963 219.508 83.9731 219.626L114.793 220.864C114.675 220.687 114.557 220.569 114.439 220.451Z" fill="#323A50"/>
<path d="M115.854 222.101L85.1519 220.863C85.2697 220.981 85.3876 221.158 85.5644 221.276L116.207 222.513C116.03 222.395 115.913 222.219 115.854 222.101Z" fill="#323A50"/>
<path d="M117.15 223.751L86.6841 222.514C86.8019 222.632 86.9198 222.808 87.0966 222.926L117.504 224.164C117.386 223.987 117.268 223.869 117.15 223.751Z" fill="#323A50"/>
<path d="M118.623 225.519L88.3931 224.281C88.5109 224.399 88.6288 224.576 88.8056 224.694L118.977 225.931C118.859 225.813 118.741 225.637 118.623 225.519Z" fill="#323A50"/>
<path d="M120.096 227.286L90.1016 226.049C90.2194 226.167 90.3962 226.344 90.5141 226.461L120.45 227.64C120.332 227.581 120.214 227.404 120.096 227.286Z" fill="#323A50"/>
<path d="M121.629 229.055L91.9287 227.876C92.0466 227.994 92.2234 228.171 92.3412 228.289L121.923 229.467C121.864 229.349 121.747 229.231 121.629 229.055Z" fill="#323A50"/>
<path d="M123.043 230.705L93.6377 229.526C93.7556 229.644 93.9323 229.821 94.1091 229.939L123.397 231.117C123.279 231 123.161 230.882 123.043 230.705Z" fill="#323A50"/>
<path d="M124.398 232.354L95.3462 231.176C95.464 231.294 95.6408 231.47 95.8176 231.588L124.81 232.767C124.693 232.649 124.575 232.531 124.398 232.354Z" fill="#323A50"/>
<path d="M125.989 234.123L97.2319 232.944C97.3498 233.062 97.5266 233.239 97.7034 233.357L126.343 234.535C126.225 234.418 126.107 234.3 125.989 234.123Z" fill="#323A50"/>
<path d="M127.521 235.89L99.1768 234.771C99.3535 234.888 99.4714 235.065 99.6482 235.183L127.934 236.303C127.757 236.185 127.639 236.008 127.521 235.89Z" fill="#323A50"/>
<path d="M129.054 237.659L101.062 236.539C101.239 236.657 101.357 236.834 101.534 236.952L129.407 238.071C129.289 237.953 129.171 237.836 129.054 237.659Z" fill="#323A50"/>
<path d="M130.645 239.485L103.066 238.365C103.243 238.483 103.361 238.66 103.537 238.778L131.057 239.897C130.939 239.78 130.762 239.662 130.645 239.485Z" fill="#323A50"/>
<path d="M132.118 241.135L104.893 240.016C105.07 240.133 105.247 240.31 105.364 240.428L132.472 241.548C132.354 241.43 132.236 241.253 132.118 241.135Z" fill="#323A50"/>
<path d="M133.709 242.902L106.956 241.842C107.132 241.96 107.309 242.136 107.427 242.254L134.063 243.315C134.004 243.197 133.827 243.079 133.709 242.902Z" fill="#323A50"/>
<path d="M135.3 244.671L108.959 243.61C109.136 243.728 109.313 243.905 109.43 244.023L135.654 245.084C135.536 244.966 135.418 244.789 135.3 244.671Z" fill="#323A50"/>
<path d="M136.891 246.439L111.021 245.378C111.198 245.496 111.375 245.673 111.493 245.79L137.245 246.851C137.186 246.733 137.068 246.615 136.891 246.439Z" fill="#323A50"/>
<path d="M138.423 248.089L112.966 247.028C113.143 247.146 113.32 247.323 113.438 247.441L138.777 248.443C138.659 248.384 138.541 248.266 138.423 248.089Z" fill="#323A50"/>
<path d="M137.952 249.679L114.911 248.736C115.087 248.854 115.264 249.031 115.441 249.149L136.95 250.033C137.245 249.915 137.598 249.797 137.952 249.679Z" fill="#323A50"/>
<path d="M133.414 251.212L117.032 250.563C117.209 250.681 117.386 250.858 117.563 250.976L132.295 251.565C132.648 251.447 133.061 251.33 133.414 251.212Z" fill="#323A50"/>
<path d="M128.759 252.685L119.212 252.272C119.389 252.39 119.566 252.567 119.743 252.685L127.639 253.039C127.993 252.98 128.346 252.803 128.759 252.685Z" fill="#323A50"/>
<path d="M124.104 254.276L121.393 254.158C121.57 254.276 121.747 254.453 121.923 254.571L123.043 254.63C123.397 254.512 123.75 254.394 124.104 254.276Z" fill="#323A50"/>
</g>
<defs>
<linearGradient id="paint0_linear_3618_19667" x1="270.155" y1="227.204" x2="68.8343" y2="79.9554" gradientUnits="userSpaceOnUse">
<stop offset="0.2655" stop-color="#032A3D" stop-opacity="0"/>
<stop offset="0.7809" stop-color="#032A3D"/>
</linearGradient>
<radialGradient id="paint1_radial_3618_19667" cx="0" cy="0" r="1" gradientUnits="userSpaceOnUse" gradientTransform="translate(165.251 219.512) scale(68.0863 67.7719)">
<stop offset="0.2655" stop-color="#032A3D" stop-opacity="0"/>
<stop offset="1" stop-color="#032A3D"/>
</radialGradient>
<linearGradient id="paint2_linear_3618_19667" x1="138.512" y1="111.95" x2="188.527" y2="308.284" gradientUnits="userSpaceOnUse">
<stop offset="0.4054" stop-color="#032A3D" stop-opacity="0"/>
<stop offset="1" stop-color="#032A3D"/>
</linearGradient>
<linearGradient id="paint3_linear_3618_19667" x1="102.442" y1="179.096" x2="233.995" y2="302.504" gradientUnits="userSpaceOnUse">
<stop offset="0.2655" stop-color="#032A3D" stop-opacity="0"/>
<stop offset="0.7809" stop-color="#032A3D"/>
</linearGradient>
<linearGradient id="paint4_linear_3618_19667" x1="109.644" y1="171.419" x2="241.197" y2="294.827" gradientUnits="userSpaceOnUse">
<stop offset="0.2655" stop-color="#032A3D" stop-opacity="0"/>
<stop offset="0.7809" stop-color="#032A3D"/>
</linearGradient>
<linearGradient id="paint5_linear_3618_19667" x1="107.107" y1="174.123" x2="238.661" y2="297.531" gradientUnits="userSpaceOnUse">
<stop offset="0.2655" stop-color="#032A3D" stop-opacity="0"/>
<stop offset="0.7809" stop-color="#032A3D"/>
</linearGradient>
<linearGradient id="paint6_linear_3618_19667" x1="82.0483" y1="200.837" x2="213.601" y2="324.245" gradientUnits="userSpaceOnUse">
<stop offset="0.2655" stop-color="#032A3D" stop-opacity="0"/>
<stop offset="0.7809" stop-color="#032A3D"/>
</linearGradient>
<linearGradient id="paint7_linear_3618_19667" x1="100.798" y1="180.849" x2="232.351" y2="304.256" gradientUnits="userSpaceOnUse">
<stop offset="0.2655" stop-color="#032A3D" stop-opacity="0"/>
<stop offset="0.7809" stop-color="#032A3D"/>
</linearGradient>
<linearGradient id="paint8_linear_3618_19667" x1="90.464" y1="191.865" x2="222.017" y2="315.273" gradientUnits="userSpaceOnUse">
<stop offset="0.2655" stop-color="#032A3D" stop-opacity="0"/>
<stop offset="0.7809" stop-color="#032A3D"/>
</linearGradient>
<linearGradient id="paint9_linear_3618_19667" x1="71.8988" y1="211.655" x2="203.452" y2="335.062" gradientUnits="userSpaceOnUse">
<stop offset="0.2655" stop-color="#032A3D" stop-opacity="0"/>
<stop offset="0.7809" stop-color="#032A3D"/>
</linearGradient>
<linearGradient id="paint10_linear_3618_19667" x1="74.9788" y1="208.372" x2="206.532" y2="331.78" gradientUnits="userSpaceOnUse">
<stop offset="0.2655" stop-color="#032A3D" stop-opacity="0"/>
<stop offset="0.7809" stop-color="#032A3D"/>
</linearGradient>
<linearGradient id="paint11_linear_3618_19667" x1="85.3273" y1="197.341" x2="216.88" y2="320.748" gradientUnits="userSpaceOnUse">
<stop offset="0.2655" stop-color="#032A3D" stop-opacity="0"/>
<stop offset="0.7809" stop-color="#032A3D"/>
</linearGradient>
<linearGradient id="paint12_linear_3618_19667" x1="71.8706" y1="211.686" x2="203.424" y2="335.093" gradientUnits="userSpaceOnUse">
<stop offset="0.2655" stop-color="#032A3D" stop-opacity="0"/>
<stop offset="0.7809" stop-color="#032A3D"/>
</linearGradient>
<clipPath id="clip0_3618_19667">
<rect width="330" height="330" fill="white"/>
</clipPath>
</defs>
</svg>
