<svg width="330" height="330" viewBox="0 0 330 330" fill="none" xmlns="http://www.w3.org/2000/svg">
<g clip-path="url(#clip0_3748_13977)">
<path d="M56.1426 107.528V221.054H71.1574V217.564H101.514V110.364H71.1574V107.528H56.1426Z" fill="white"/>
<path d="M101.785 110.473V217.673C101.785 217.892 101.622 218.382 101.405 218.382H71.8101V220.782C71.8101 221 71.4837 221.272 71.1573 221.272H55.8705C55.6529 221.272 55.3809 221.054 55.3809 220.782V107.364C55.3809 107.146 55.5985 107.146 55.8705 107.146H71.1573C71.3749 107.146 71.8101 107.146 71.8101 107.364V110.2H101.405C101.513 110.2 101.785 110.254 101.785 110.473ZM100.915 217.401V111.181H71.0485C70.8309 111.181 70.7221 110.8 70.7221 110.473V107.746H56.3057V220.454H70.7221V217.728C70.7221 217.51 70.8309 217.455 71.0485 217.455L100.915 217.401Z" fill="#323A50"/>
<path d="M101.133 113.962H55.7617V213.747H101.133V113.962Z" fill="white"/>
<path d="M101.568 113.962V213.748C101.568 213.966 101.405 214.129 101.187 214.129H55.7617C55.5441 214.129 55.3809 213.966 55.3809 213.748V113.962C55.3809 113.744 55.5441 113.581 55.7617 113.581H101.133C101.35 113.526 101.568 113.69 101.568 113.962ZM100.697 213.311V114.399H56.1969V213.311H100.697Z" fill="#323A50"/>
<path d="M138.724 124.65L138.996 203.115L83.9961 209.603L84.0505 118.106L138.724 124.65Z" fill="white"/>
<path d="M139.486 203.115C139.486 203.333 139.323 203.496 139.16 203.496L84.1051 210.04C83.9963 210.04 83.8875 210.04 83.7787 209.931C83.6699 209.876 83.6699 209.767 83.6699 209.658L83.7243 118.052C83.7243 117.943 83.7787 117.834 83.8331 117.779C83.9419 117.725 84.0507 117.67 84.1595 117.67L138.833 124.268C139.051 124.268 139.16 124.486 139.16 124.65L139.486 203.115ZM84.4315 209.113L138.561 202.624L138.289 124.922L84.5403 118.434L84.4315 209.113Z" fill="#323A50"/>
<path d="M130.726 135.446V191.882L106.518 204.26V123.014L130.726 135.446Z" fill="white"/>
<path d="M131.216 135.446V191.773C131.216 191.937 131.107 192.046 130.999 192.155L106.735 204.532C106.627 204.587 106.463 204.587 106.355 204.532C106.246 204.478 106.191 204.314 106.191 204.205V123.014C106.191 122.85 106.246 122.741 106.355 122.687C106.463 122.632 106.627 122.632 106.735 122.687L130.944 135.119C131.053 135.119 131.216 135.283 131.216 135.446ZM130.291 191.555V135.719L106.953 123.777V203.442L130.291 191.555Z" fill="#323A50"/>
<path d="M137.419 200.825C137.419 201.043 137.255 201.206 137.092 201.206L84.1595 207.531C83.9419 207.531 83.6699 207.422 83.6699 207.204C83.6699 206.986 83.7787 206.713 83.9963 206.713L136.929 200.388C137.092 200.388 137.364 200.552 137.419 200.825Z" fill="#323A50"/>
<path d="M137.31 126.667C137.31 126.94 137.092 127.158 136.82 127.049L84.1592 120.778C83.9416 120.778 83.7784 120.56 83.8328 120.288C83.8328 120.069 84.0504 119.906 84.3224 119.96L136.983 126.231C137.092 126.286 137.31 126.449 137.31 126.667Z" fill="#323A50"/>
<path d="M91.6115 121.269C97.6501 166.636 91.6115 206.223 91.6115 206.223L88.7282 206.55C84.7025 162.982 88.837 120.996 88.837 120.996L91.6115 121.269Z" fill="white"/>
<path d="M94.8226 163.528C94.8226 188.392 92.157 206.114 92.157 206.332C92.157 206.495 91.9938 206.659 91.8306 206.659L88.9473 206.986C88.8385 206.986 88.7297 206.986 88.6753 206.877C88.5665 206.823 88.5121 206.714 88.5121 206.604C87.3152 193.954 86.7168 180.159 86.7168 165.709C86.7168 140.245 88.5665 121.16 88.6209 120.942C88.6209 120.833 88.6753 120.724 88.7841 120.669C88.8929 120.615 88.9473 120.56 89.0561 120.56L91.7761 120.833C91.9394 120.833 92.1026 120.996 92.1026 121.16C93.8978 134.574 94.8226 148.805 94.8226 163.528ZM91.2865 205.787C91.6129 203.224 93.8978 186.484 93.8978 163.419C93.8978 148.969 93.0274 134.901 91.2321 121.596L89.2737 121.378C89.0017 124.432 87.424 142.317 87.424 165.6C87.424 179.886 88.0224 193.463 89.1649 206.005L91.2865 205.787Z" fill="#323A50"/>
<path d="M90.4704 173.452C90.4704 173.561 90.416 173.67 90.3616 173.724C90.1984 173.888 89.9808 173.888 89.7088 173.724L86.8255 170.889C86.6623 170.725 86.6623 170.507 86.8255 170.235C86.9887 170.071 87.2063 170.071 87.4783 170.235L90.3616 173.07C90.416 173.234 90.4704 173.343 90.4704 173.452Z" fill="#323A50"/>
<path d="M93.2996 174.379C93.2996 174.488 93.2452 174.597 93.1908 174.651C93.0276 174.815 92.81 174.815 92.538 174.651L86.8802 169.09C86.717 168.926 86.717 168.708 86.8802 168.435C87.0434 168.272 87.261 168.272 87.533 168.435L93.1908 173.997C93.2452 174.161 93.2996 174.27 93.2996 174.379Z" fill="#323A50"/>
<path d="M92.6457 157.584C92.6457 157.693 92.5913 157.802 92.5369 157.857C92.3737 158.02 92.1561 158.02 91.8841 157.857L87.0423 153.113C86.8791 152.949 86.8791 152.731 87.0423 152.459C87.2055 152.295 87.4231 152.295 87.6951 152.459L92.5369 157.203C92.6457 157.257 92.6457 157.312 92.6457 157.584Z" fill="#323A50"/>
<path d="M90.7955 157.693C90.7955 157.802 90.7411 157.911 90.6867 157.966C90.5235 158.129 90.3058 158.129 90.0338 157.966L86.933 154.858C86.7697 154.694 86.7697 154.476 86.933 154.203C87.0962 154.04 87.3138 154.04 87.5858 154.203L90.6867 157.312C90.7955 157.366 90.7955 157.584 90.7955 157.693Z" fill="#323A50"/>
<path d="M155.48 109.218C148.898 115.544 149.007 115.598 145.851 118.488C139.922 123.832 120.011 139.645 119.793 163.637V163.909C119.956 187.902 139.867 203.824 145.851 209.058C149.224 212.057 149.115 212.003 156.351 218.928C171.474 235.831 193.398 246.464 217.825 246.464C253.349 246.464 283.542 223.999 295.292 192.536C295.347 192.536 295.456 192.209 295.51 192.209C296.326 190.192 298.611 183.485 299.373 177.596C300.08 173.234 300.461 168.217 300.461 163.637C300.461 117.888 263.468 80.8097 217.825 80.8097C192.8 80.9187 170.604 91.8788 155.48 109.218Z" fill="white"/>
<path d="M300.732 163.746C300.732 168.49 300.406 173.506 299.644 177.759C298.882 183.648 296.652 190.301 295.781 192.427L295.673 192.645H295.618C295.618 192.7 295.564 192.754 295.509 192.809C289.689 208.567 279.298 221.981 265.589 231.687C251.499 241.666 234.961 246.9 217.715 246.9C205.692 246.9 194.105 244.392 183.333 239.43C172.888 234.632 163.64 227.87 155.969 219.255C154.881 218.164 153.957 217.346 153.141 216.583C148.68 212.221 148.299 211.894 145.524 209.385C145.252 209.113 144.817 208.786 144.382 208.404C140.955 205.459 134.698 199.898 129.313 192.427C122.73 183.267 119.466 173.67 119.303 163.909V163.691C119.357 153.931 122.784 144.28 129.313 135.174C134.698 127.703 140.955 122.141 144.382 119.197C144.763 118.87 145.143 118.543 145.524 118.215C147.646 116.307 148.408 115.653 150.42 113.635C151.508 112.599 152.923 111.127 155.153 109.055C162.824 100.221 172.127 93.1874 182.735 88.2799C193.724 83.2089 205.42 80.5916 217.661 80.5916C228.868 80.5916 239.748 82.7726 249.975 87.1348C259.822 91.2789 268.744 97.386 276.36 105.02C283.976 112.654 289.961 121.542 294.204 131.466C298.502 141.608 300.732 152.513 300.732 163.746ZM295.074 192.046C295.836 190.137 298.121 183.43 298.882 177.65C299.535 173.561 299.97 168.435 299.97 163.746C299.97 118.27 263.086 81.3004 217.715 81.3004C193.996 81.3004 171.419 91.6061 155.806 109.491C153.63 111.618 152.107 113.09 151.073 114.071C149.006 116.089 148.244 116.798 146.123 118.761C145.851 119.033 145.415 119.361 144.98 119.742C138.234 125.577 120.391 141.172 120.228 163.637V163.909C120.391 186.429 138.289 201.97 144.98 207.804C145.361 208.131 145.742 208.458 146.123 208.786C149.006 211.294 149.332 211.675 153.793 216.038C154.555 216.801 155.534 217.728 156.622 218.764C172.127 236.104 194.486 246.137 217.77 246.137C251.934 246.137 282.888 224.544 294.802 192.482L294.857 192.264H294.911C294.911 192.155 295.02 192.1 295.074 192.046Z" fill="#323A50"/>
<path d="M301.113 163.746C301.113 174.978 298.937 185.938 294.53 196.244C290.396 206.114 284.303 215.111 276.686 222.745C269.07 230.378 260.094 236.376 250.247 240.63C239.965 244.992 229.139 247.227 217.824 247.227C205.747 247.227 194.159 244.719 183.333 239.757C172.834 234.959 163.586 228.197 155.861 219.527C149.06 212.875 148.68 212.657 145.796 210.094L145.307 209.712C144.98 209.44 144.545 209.058 144.11 208.676C140.41 205.514 134.372 200.17 128.932 192.645C122.349 183.485 118.976 173.888 118.922 164.073V163.855C118.976 154.094 122.404 144.334 128.932 135.283C134.318 127.812 140.41 122.414 144.11 119.251C144.491 118.924 144.926 118.543 145.307 118.215C148.516 115.325 148.68 115.271 155.045 109C162.77 100.167 172.072 93.1328 182.735 88.2254C193.778 83.1543 205.475 80.537 217.715 80.537C228.922 80.537 239.857 82.7181 250.138 87.1348C259.985 91.2789 268.961 97.386 276.578 105.02C284.194 112.654 290.178 121.651 294.421 131.52C298.882 141.553 301.113 152.459 301.113 163.746ZM120.228 163.691V163.909C120.391 186.266 138.289 201.697 144.98 207.586C145.361 207.913 145.796 208.295 146.177 208.676L146.667 209.058C149.55 211.621 149.876 211.948 156.84 218.546V218.6C172.344 235.886 194.703 245.919 217.933 245.919C263.195 245.919 300.025 209.058 300.025 163.637C300.025 118.215 263.249 81.3549 217.933 81.3549C194.268 81.3549 171.746 91.6061 156.133 109.491L156.078 109.546C149.496 115.871 149.441 115.925 146.231 118.815C145.905 119.088 145.47 119.47 145.035 119.906C138.234 125.849 120.391 141.335 120.228 163.691Z" fill="#323A50"/>
<path opacity="0.83" d="M156.024 119.688C153.902 117.67 151.835 117.07 148.407 120.015C142.641 125.14 123.22 140.517 123.002 163.746V163.964C123.165 187.247 142.587 202.569 148.353 207.695C151.835 210.748 154.283 209.167 155.752 208.458C159.451 206.495 160.158 203.605 159.614 202.842C156.241 197.389 147.591 194.663 145.579 188.501C145.524 188.338 141.281 179.395 141.172 164.564C141.172 164.509 141.118 154.476 144.055 144.934C146.449 136.155 155.697 130.593 159.125 125.086C160.267 123.45 157.71 121.269 156.024 119.688Z" fill="url(#paint0_linear_3748_13977)"/>
<path d="M293.334 163.964C293.334 206.005 259.387 240.03 217.444 240.03C192.8 240.03 170.876 228.252 156.949 209.931" fill="white"/>
<path d="M293.713 164.018C293.713 174.433 291.701 184.357 287.784 193.79C283.975 202.951 278.427 211.021 271.463 218.11C264.445 225.144 256.339 230.651 247.2 234.468C237.789 238.448 227.724 240.411 217.497 240.411C205.311 240.411 193.778 237.685 183.006 232.178C172.724 226.998 163.639 219.309 156.676 210.149L157.329 209.658C171.745 228.633 193.669 239.593 217.551 239.593C259.223 239.593 293.115 205.623 293.115 163.909L293.713 164.018Z" fill="#323A50"/>
<path d="M217.335 233.814C255.823 233.814 287.023 202.541 287.023 163.964C287.023 125.387 255.823 94.1144 217.335 94.1144C178.847 94.1144 147.646 125.387 147.646 163.964C147.646 202.541 178.847 233.814 217.335 233.814Z" fill="white"/>
<path d="M287.294 163.964C287.294 182.721 280.004 200.279 266.785 213.529C253.565 226.78 235.939 234.086 217.333 234.086C198.619 234.086 181.102 226.78 167.882 213.529C154.663 200.279 147.373 182.612 147.373 163.964C147.373 145.261 154.663 127.649 167.882 114.399C181.102 101.148 198.728 93.8417 217.333 93.8417C236.048 93.8417 253.565 101.148 266.785 114.399C280.059 127.649 287.294 145.316 287.294 163.964ZM148.026 163.964C148.026 202.297 179.144 233.486 217.388 233.486C255.632 233.486 286.75 202.297 286.75 163.964C286.75 125.631 255.687 94.4415 217.388 94.4415C179.144 94.496 148.026 125.686 148.026 163.964Z" fill="#323A50"/>
<g opacity="0.1">
<path d="M245.132 103.275L245.078 103.766C247.472 104.038 250.627 110.963 250.845 112.436C250.953 113.035 250.79 113.417 250.681 113.744C250.518 114.289 250.301 114.78 250.79 115.653C251.769 117.234 257.536 122.523 260.365 123.723C263.248 124.868 264.771 125.631 265.859 128.303C266.458 129.775 266.458 132.011 266.458 134.301C266.458 136.428 266.458 138.718 266.947 140.408C267.655 142.971 268.797 145.479 269.45 146.679C268.743 146.024 267.981 145.425 267.328 144.825C266.077 143.734 264.935 142.862 264.499 142.207C263.901 141.444 263.683 138.609 263.302 135.664C262.922 131.738 262.432 127.158 261.126 125.849C259.603 124.268 254.054 122.032 249.539 120.233C247.145 119.251 245.078 118.434 244.208 117.997C243.337 117.452 242.358 115.98 241.27 114.399C239.475 111.727 237.462 108.673 235.014 108.728V109.218C237.19 109.164 239.094 112.108 240.835 114.726C241.977 116.471 242.902 117.888 243.936 118.488C244.806 119.033 246.873 119.797 249.321 120.724C253.782 122.523 259.331 124.704 260.746 126.231C261.235 126.776 261.616 127.812 261.888 129.121C261.398 128.303 260.691 127.267 259.821 126.504C258.189 125.195 254.272 124.104 252.205 123.505C251.878 123.396 251.552 123.341 251.334 123.286C250.681 123.123 250.246 123.341 249.811 123.559C249.43 123.832 248.832 124.159 247.744 123.886C246.492 123.668 245.948 122.905 245.35 122.141C245.024 121.596 244.588 121.051 243.99 120.615C242.358 119.633 240.78 120.287 239.964 120.56H239.91C239.311 120.778 239.366 121.323 239.366 121.705C239.42 122.032 239.42 122.36 239.203 122.469C238.985 122.578 238.495 122.305 238.006 121.923C237.299 121.433 236.483 120.833 235.775 121.214L235.939 121.596C236.483 121.378 237.135 121.814 237.734 122.25C238.387 122.632 238.931 123.068 239.475 122.796C240.019 122.523 239.855 121.978 239.855 121.596C239.801 121.214 239.801 120.996 240.019 120.887H240.073C240.889 120.615 242.303 120.069 243.718 120.887C244.262 121.214 244.588 121.705 244.969 122.196C245.568 123.014 246.166 123.886 247.635 124.104C248.94 124.322 249.593 123.995 250.083 123.723C250.409 123.505 250.681 123.396 251.171 123.505C251.334 123.559 251.715 123.614 252.041 123.723C253.945 124.268 257.917 125.359 259.494 126.613C261.235 127.976 262.16 130.484 262.214 130.648C262.432 132.229 262.595 133.919 262.813 135.555C263.139 138.663 263.466 141.335 264.064 142.262C264.554 142.916 265.696 143.898 266.947 144.934C269.45 147.06 272.823 149.95 272.714 151.968C272.66 153.004 272.442 154.094 272.17 155.403C271.68 157.802 271.082 160.529 271.626 163.473C272.768 169.471 273.911 171.598 275.38 172.797C276.74 173.942 278.481 174.597 278.535 174.597L278.698 174.215C278.698 174.215 276.957 173.615 275.652 172.47C274.346 171.325 273.204 169.362 272.061 163.419C271.517 160.529 272.061 157.911 272.605 155.567C272.823 154.367 273.095 153.167 273.204 152.077C273.312 150.55 271.844 148.805 270.048 147.06L270.212 147.006C270.212 146.951 268.307 143.571 267.383 140.135C267.002 138.445 267.002 136.264 267.002 134.192C267.002 131.793 267.002 129.503 266.403 127.976C265.261 125.086 263.575 124.268 260.691 123.123C258.026 121.978 252.205 116.743 251.334 115.325C250.953 114.617 251.062 114.235 251.225 113.744C251.389 113.417 251.552 112.926 251.443 112.163C251.117 110.691 247.744 103.657 245.132 103.275Z" fill="#323A50"/>
<path d="M256.068 159.057C256.884 159.82 258.244 159.711 259.876 159.602C261.454 159.493 263.086 159.329 264.554 159.929C267.383 161.238 269.505 167.345 269.505 167.399L269.886 167.29C269.831 167.072 267.71 161.019 264.718 159.602C263.14 158.893 261.345 159.002 259.822 159.22C258.298 159.329 256.993 159.438 256.34 158.838C255.633 158.13 255.089 155.621 254.545 153.331C253.946 150.768 253.457 148.533 252.695 147.933C251.988 147.388 251.335 147.279 250.736 147.224C250.084 147.115 249.594 147.06 249.159 146.461C248.996 146.188 249.05 144.607 249.159 142.971C249.376 138.445 249.812 131.575 246.439 129.066C243.773 127.103 241.76 127.758 239.965 128.358C238.605 128.848 237.354 129.23 235.939 128.358C234.797 127.703 234.362 126.504 233.981 125.14C233.165 122.523 232.077 119.251 225.277 117.07C223.644 116.58 222.067 116.852 220.435 117.07C218.368 117.343 216.409 117.725 214.559 116.471L214.342 116.798C216.355 118.161 218.476 117.834 220.598 117.507C222.23 117.288 223.699 117.016 225.168 117.507C231.75 119.524 232.73 122.687 233.6 125.195C234.09 126.722 234.47 127.921 235.776 128.739C237.462 129.721 238.877 129.23 240.237 128.739C241.978 128.139 243.773 127.594 246.167 129.394C249.322 131.684 248.996 138.718 248.724 142.807C248.669 144.443 248.615 145.425 248.669 146.024C248.016 145.806 247.092 145.643 246.112 145.425C244.317 145.152 242.304 144.77 241.216 143.734C240.672 143.189 240.455 142.48 240.128 141.553C239.475 139.263 238.496 136.046 232.022 133.483H231.968C229.737 132.992 228.16 133.538 227.181 134.083C226.8 134.301 226.528 134.792 226.365 135.228C226.147 135.773 225.821 136.373 225.168 136.864C223.971 137.682 217.062 138.009 215.756 137.736C215.647 137.736 215.593 137.682 215.593 137.682C215.539 137.627 215.647 137.355 215.702 137.082C215.919 136.373 216.409 135.173 215.375 133.647L215.049 133.865C216.028 135.119 215.647 136.1 215.321 136.864C215.212 137.191 215.103 137.573 215.212 137.845C215.267 137.954 215.43 138.063 215.702 138.118C217.007 138.336 224.08 138.118 225.44 137.136C226.201 136.591 226.582 135.882 226.8 135.337C226.963 134.955 227.126 134.574 227.453 134.356C228.269 133.865 229.737 133.374 231.859 133.81C238.115 136.264 239.04 139.318 239.639 141.499C239.911 142.535 240.183 143.353 240.835 143.952C242.032 145.097 244.208 145.479 246.004 145.752C247.2 145.915 248.397 146.134 248.887 146.515C249.376 147.17 250.029 147.279 250.682 147.388C251.28 147.497 251.824 147.551 252.423 148.042C253.076 148.533 253.62 150.986 254.109 153.113C254.817 155.948 255.306 158.293 256.068 159.057Z" fill="#323A50"/>
<path d="M209.5 158.348C210.153 157.748 210.642 157.257 212.057 157.584C213.036 157.748 214.341 158.293 215.81 158.838C218.367 159.874 220.978 160.856 222.175 160.42C222.774 160.202 223.209 159.82 223.535 159.438C224.351 158.729 225.276 157.911 227.942 158.348C230.064 158.62 231.696 159.82 233.001 160.747C234.144 161.51 235.123 162.274 236.156 162.11C236.918 162.055 237.408 161.619 237.952 161.238C238.822 160.529 239.801 159.711 242.086 160.747C243.882 161.51 244.317 162.601 244.698 163.419C245.078 164.291 245.459 165.163 247.2 164.891C249.05 164.618 250.246 163.364 251.335 162.328C252.151 161.51 253.075 160.638 254.163 160.147L254 159.765C252.803 160.365 251.933 161.238 251.008 162.001C249.866 163.146 248.832 164.182 247.091 164.455C245.731 164.673 245.459 164.237 245.133 163.31C244.806 162.437 244.262 161.238 242.249 160.365C239.638 159.275 238.55 160.147 237.571 160.965C237.027 161.347 236.592 161.728 235.993 161.783C235.232 161.837 234.307 161.238 233.164 160.474C231.804 159.493 230.118 158.402 227.833 158.02C224.95 157.639 223.971 158.402 223.046 159.22C222.719 159.547 222.284 159.874 221.794 160.038C220.761 160.42 218.095 159.384 215.81 158.457C214.341 157.857 212.981 157.366 212.002 157.148C210.316 156.821 209.772 157.366 209.01 158.02C208.629 158.402 208.14 158.893 207.215 159.111L207.324 159.493C208.52 159.438 209.01 158.838 209.5 158.348Z" fill="#323A50"/>
<path d="M273.259 156.058C272.497 157.693 272.116 161.674 272.606 164.128C272.987 166.527 273.966 170.671 275.707 172.252C276.74 173.125 278.644 174.052 278.753 174.052L278.916 173.67C278.916 173.67 276.958 172.852 275.979 171.925C274.238 170.344 273.367 165.927 272.987 164.073C272.497 161.456 272.987 157.693 273.639 156.33C274.347 154.803 275.435 154.367 275.924 154.313C277.611 154.149 279.025 156.821 279.025 156.875L279.406 156.712C279.351 156.603 277.774 153.658 275.815 153.876C275.163 153.876 273.966 154.476 273.259 156.058Z" fill="#323A50"/>
<path d="M244.697 154.858C244.969 154.04 245.349 153.167 246.165 152.731C247.036 152.077 249.321 150.823 251.334 152.568C252.15 153.277 252.857 155.076 253.401 156.712C253.999 158.402 254.598 159.983 255.359 160.474C256.175 161.019 257.535 160.856 259.222 160.747C260.745 160.638 262.214 160.583 263.356 160.856C265.804 161.565 268.688 167.672 268.742 167.726L269.123 167.563C269.014 167.345 266.131 161.238 263.465 160.474C262.214 160.147 260.527 160.256 259.113 160.365C257.59 160.474 256.175 160.529 255.523 160.147C254.87 159.765 254.326 158.129 253.727 156.548C253.074 154.749 252.422 152.949 251.551 152.186C249.919 150.823 247.852 150.877 245.785 152.35C244.969 152.949 244.533 153.931 244.207 154.749C243.881 155.567 243.554 156.385 242.847 156.712C241.269 157.421 239.637 156.875 238.984 155.948C238.821 155.73 238.712 155.403 238.495 155.185C237.951 154.367 237.461 153.44 236.373 152.35C234.796 150.877 228.648 148.315 225.656 147.824C223.861 147.551 223.099 147.987 222.229 148.533C221.576 148.914 220.923 149.351 219.672 149.514L219.726 150.005C221.086 149.896 221.794 149.405 222.555 148.969C223.317 148.478 224.078 148.096 225.602 148.315C228.539 148.805 234.687 151.368 236.101 152.731C237.189 153.767 237.733 154.585 238.168 155.403C238.332 155.621 238.44 155.948 238.658 156.166C239.365 157.312 241.324 157.966 243.119 157.148C243.989 156.657 244.37 155.785 244.697 154.858Z" fill="#323A50"/>
</g>
<g opacity="0.1">
<path d="M271.52 174.979C270.269 175.142 269.344 176.614 268.31 178.032C267.549 179.177 266.569 180.867 265.753 182.34C265.046 183.648 264.393 184.793 264.013 185.284C263.958 185.393 263.795 185.502 263.686 185.611C262.544 186.32 259.824 186.865 257.702 186.702C256.451 186.647 255.526 186.756 254.71 186.811C253.894 186.92 253.241 186.975 252.751 186.756C252.371 186.593 252.262 186.266 252.207 185.775C252.153 185.284 252.044 184.684 251.228 184.412C250.575 184.194 249.868 184.303 249.161 184.357C248.454 184.466 247.855 184.521 247.42 184.248C247.094 183.976 246.876 183.648 246.767 183.267C246.604 182.885 246.441 182.394 245.788 182.013C245.244 181.685 244.591 182.122 243.721 182.721C242.47 183.594 240.729 184.793 238.607 184.303C236.322 183.757 236.431 183.049 236.54 182.067C236.594 181.576 236.703 181.031 236.485 180.431C236.159 179.45 234.092 178.632 231.97 177.759C230.284 177.051 228.543 176.396 228.162 175.742C227.618 175.033 227.509 174.433 227.4 173.833C227.291 173.234 227.237 172.688 226.639 172.252C225.986 171.707 225.061 172.034 224.354 172.252C223.864 172.361 223.375 172.525 223.157 172.416L222.939 172.743C223.266 172.906 223.81 172.797 224.517 172.634C225.17 172.47 225.986 172.252 226.421 172.579C226.802 172.852 226.911 173.288 227.019 173.833C227.128 174.433 227.237 175.088 227.835 175.905C228.379 176.614 230.012 177.378 231.861 178.032C233.765 178.795 235.833 179.722 236.159 180.486C236.322 180.977 236.268 181.467 236.213 181.849C236.105 182.885 235.941 183.921 238.661 184.575C241.055 185.121 242.796 183.866 244.156 182.94C244.863 182.449 245.462 182.067 245.788 182.231C246.278 182.503 246.386 182.885 246.55 183.321C246.658 183.648 246.822 184.139 247.366 184.521C247.964 184.903 248.671 184.793 249.433 184.684C250.086 184.575 250.739 184.521 251.283 184.684C251.827 184.848 251.881 185.284 251.935 185.72C251.99 186.102 252.044 186.756 252.751 187.029C253.404 187.247 254.057 187.193 254.927 187.084C255.689 186.975 256.614 186.92 257.811 186.975C259.116 187.084 260.803 186.92 262.217 186.593C260.585 187.629 258.083 188.883 255.526 189.101C253.459 189.265 252.697 188.883 251.609 188.338C250.575 187.792 249.215 187.138 246.332 186.593C242.197 185.884 238.281 187.683 236.268 188.883C235.941 188.774 233.112 187.902 232.351 185.775L232.024 184.684C231.317 182.612 230.664 180.813 230.175 179.831C229.522 178.577 227.455 177.65 226.149 177.378C225.387 177.269 224.898 177.596 224.463 177.978C224.136 178.25 223.701 178.577 223.103 178.577C222.559 178.523 222.069 177.759 221.471 176.832C220.654 175.578 219.566 173.942 217.826 173.343C215.758 172.579 214.779 173.343 213.963 173.997C213.582 174.27 213.201 174.651 212.712 174.76L212.821 175.142C213.419 175.033 213.854 174.597 214.344 174.324C215.16 173.67 215.922 173.07 217.771 173.724C219.403 174.324 220.382 175.796 221.198 177.105C221.906 178.141 222.395 178.959 223.157 179.014C223.973 179.068 224.408 178.741 224.898 178.359C225.224 178.087 225.605 177.759 226.203 177.868C227.563 178.087 229.413 179.068 229.957 180.05C230.447 181.031 231.1 182.885 231.807 184.848L232.133 185.939C232.84 187.956 235.071 188.883 235.996 189.21C235.397 189.537 235.016 189.864 235.016 189.919C234.962 189.974 231.154 194.118 228.216 195.972C225.279 197.88 222.831 197.826 222.015 196.789C221.525 196.244 221.47 195.154 221.416 193.9C221.362 192.754 221.307 191.446 220.872 190.246C220.219 188.447 217.717 187.193 216.955 186.811C215.867 186.266 214.344 185.775 213.582 186.102C212.277 186.593 211.841 188.556 211.841 188.61L212.222 188.665C212.222 188.665 212.549 186.865 213.691 186.484C214.072 186.375 215.269 186.538 216.683 187.193C218.206 187.847 219.893 189.047 220.382 190.301C220.763 191.391 220.763 192.7 220.926 193.79C220.981 195.099 221.035 196.244 221.579 196.899C222.559 198.044 225.115 198.262 228.379 196.135C231.263 194.281 235.016 190.246 235.234 190.028C235.506 189.81 240.674 185.884 246.386 186.811C249.27 187.302 250.467 187.956 251.5 188.501C251.718 188.61 251.99 188.719 252.207 188.828C250.847 189.374 249.977 189.319 249.27 189.21C248.29 189.156 247.746 189.21 247.039 190.464C246.006 192.155 245.788 195.481 245.679 197.662C245.625 198.534 245.57 199.298 245.516 199.625C245.244 200.988 244.537 201.697 243.394 202.079C242.361 202.351 242.089 202.133 241.545 201.751C241.436 201.642 241.273 201.533 241.055 201.424C240.837 201.261 240.674 200.879 240.402 200.552C239.913 199.734 239.26 198.589 237.682 198.698C236.213 198.752 235.778 199.679 235.288 200.606C235.016 201.261 234.636 201.861 233.983 202.406C232.296 203.66 227.509 205.078 224.952 205.405C222.015 205.677 216.574 205.187 216.302 204.696C216.248 204.532 216.574 203.714 216.901 203.115C217.445 201.97 218.098 200.606 217.88 199.625C217.826 199.461 217.826 199.352 217.771 199.243C217.499 198.044 217.39 197.88 216.139 197.989C215.269 198.044 215.106 198.698 215.051 199.243C214.997 199.57 214.942 199.952 214.725 200.225C214.126 200.715 211.896 200.497 211.08 200.443L211.025 200.825C211.297 200.879 214.126 201.152 214.997 200.552C215.378 200.279 215.486 199.734 215.541 199.352C215.65 198.752 215.704 198.534 216.194 198.48C216.683 198.425 216.901 198.425 217.01 198.534C217.118 198.643 217.173 198.862 217.282 199.407C217.336 199.516 217.336 199.679 217.39 199.788C217.554 200.606 217.01 201.915 216.52 202.951C216.03 203.933 215.813 204.532 215.922 204.86C216.248 205.841 222.831 206.114 225.061 205.896C227.727 205.677 232.568 204.151 234.309 202.842C235.016 202.297 235.452 201.588 235.833 200.934C236.322 200.061 236.649 199.298 237.845 199.243C239.151 199.189 239.695 200.007 240.239 200.879C240.457 201.261 240.729 201.642 241.001 201.915C241.164 202.024 241.273 202.133 241.49 202.242C242.034 202.624 242.524 203.06 243.721 202.733C245.081 202.351 245.788 201.479 246.223 200.007C246.278 199.734 246.332 199.298 246.332 198.698C246.55 199.025 246.55 199.407 246.55 199.843C246.55 200.279 246.495 200.715 246.822 201.206C247.366 201.97 248.29 201.479 248.834 201.152C249.106 201.043 249.433 200.879 249.596 200.879C249.705 200.879 249.814 200.934 249.923 201.043C250.086 201.261 250.14 201.751 250.086 202.406C249.977 203.115 248.889 204.096 248.236 204.641C248.018 204.86 247.855 205.023 247.692 205.187C247.529 205.405 247.529 205.787 247.583 206.059C247.638 206.386 247.638 206.823 247.42 207.204C247.311 207.368 247.094 207.477 246.767 207.531C246.223 207.586 245.625 207.368 245.516 207.259C245.462 207.204 245.462 207.041 245.462 206.768C245.462 206.495 245.462 206.114 245.244 205.787C244.918 205.296 244.156 205.132 243.177 205.187C242.578 205.241 242.578 205.732 242.578 206.168C242.578 206.659 242.524 207.204 241.871 207.422C241.381 207.586 240.892 207.368 240.293 207.041C239.423 206.495 238.281 205.896 236.649 206.823C234.69 207.913 234.908 209.004 235.016 209.931C235.071 210.203 235.125 210.53 235.071 210.694C235.016 210.858 234.908 210.967 234.853 210.967C234.69 211.021 234.527 210.912 234.472 210.858L234.255 211.185C234.309 211.185 234.636 211.457 235.071 211.348C235.289 211.294 235.452 211.13 235.669 210.749C235.778 210.476 235.724 210.094 235.669 209.712C235.561 208.949 235.397 207.968 237.029 207.095C238.498 206.332 239.314 206.877 240.239 207.313C240.892 207.64 241.49 208.022 242.143 207.695C243.122 207.368 243.122 206.55 243.122 206.005C243.122 205.514 243.177 205.459 243.286 205.459C244.102 205.405 244.646 205.514 244.972 205.841C245.081 206.005 245.081 206.223 245.081 206.495C245.081 206.768 245.081 207.095 245.298 207.313C245.516 207.531 246.278 207.859 246.985 207.695C247.366 207.64 247.746 207.477 248.018 207.15C248.345 206.604 248.29 206.114 248.29 205.677C248.29 205.405 248.236 205.187 248.345 205.078C248.399 204.969 248.617 204.86 248.889 204.587C249.596 203.933 250.739 202.897 250.847 202.024C250.847 202.024 250.847 202.024 250.847 201.97C250.956 201.206 250.847 200.661 250.575 200.279C250.412 200.116 250.195 200.007 249.868 200.007C249.596 200.007 249.27 200.17 248.889 200.334C248.182 200.661 247.692 200.934 247.366 200.497C247.148 200.225 247.148 199.843 247.148 199.407C247.148 198.862 247.202 198.207 246.495 197.662C246.495 197.607 246.495 197.553 246.495 197.553C246.604 195.426 246.767 192.155 247.801 190.573C248.508 189.428 248.889 189.483 249.651 189.483C250.412 189.537 251.446 189.592 253.187 188.828C253.894 189.047 254.764 189.156 256.07 189.047C260.15 188.774 264.393 185.502 264.665 185.339C264.829 185.23 264.992 185.066 265.155 184.957C265.481 184.466 266.189 183.321 266.95 181.958C267.766 180.431 268.745 178.795 269.507 177.65C270.378 176.342 271.357 174.979 272.445 174.76C272.934 174.706 273.424 174.815 274.022 175.306C276.09 176.887 283.434 178.904 283.652 178.904L283.706 178.523C283.325 178.468 276.198 176.505 274.294 174.979C272.662 175.033 272.064 174.869 271.52 174.979Z" fill="#323A50"/>
<path d="M273.423 178.087C271.192 178.741 268.744 181.958 268.091 182.994C266.731 185.23 266.405 190.519 266.894 192.973C267.112 194.063 267.493 194.881 267.874 195.535C268.2 196.299 268.581 197.008 268.581 197.826C268.581 199.679 268.799 200.661 269.451 201.533C269.56 201.697 269.723 201.752 269.832 201.752C270.159 201.752 270.539 201.479 270.92 201.043C271.138 200.77 271.573 200.334 271.736 200.388C271.845 200.388 271.899 200.497 271.954 200.606C272.607 201.806 271.736 202.678 271.682 202.733L271.954 203.006C271.954 203.006 273.151 201.806 272.28 200.334C272.117 200.061 271.954 199.952 271.682 199.843C271.301 199.789 270.866 200.17 270.431 200.606C270.213 200.825 269.887 201.206 269.723 201.206L269.669 201.152C269.071 200.388 268.907 199.407 268.907 197.662C268.907 196.626 268.581 195.972 268.146 195.154C267.874 194.499 267.438 193.681 267.275 192.645C266.786 190.41 267.112 185.175 268.418 183.049C269.179 181.74 271.464 178.905 273.423 178.305C273.967 178.196 274.946 178.414 275.653 178.686C279.733 180.431 282.671 181.086 282.725 181.086L282.78 180.704C282.78 180.704 279.842 180.104 275.816 178.414C275.436 178.414 274.13 177.923 273.423 178.087Z" fill="#323A50"/>
<path d="M272.987 177.051C272.171 177.16 271.246 178.032 270.92 178.305C270.865 178.359 270.865 178.359 270.865 178.359C268.907 180.05 267.057 182.394 266.459 184.03C266.296 184.412 266.187 185.066 266.133 185.72C264.881 188.283 264.392 190.791 263.956 193.191C263.739 194.499 263.412 195.863 263.086 197.171C262.052 200.77 256.068 206.768 255.796 207.041C255.579 207.204 250.356 211.348 248.561 211.73C247.799 211.894 243.882 212.766 242.849 213.257C241.869 213.584 240.183 218.819 239.857 219.855C239.748 222.363 239.53 226.071 239.258 226.398C238.986 226.78 237.572 227.27 236.973 227.161C236.756 227.161 236.592 226.889 236.375 226.561C236.103 226.18 235.668 225.525 234.906 225.416C234.362 225.362 232.839 225.689 230.227 226.398C227.834 226.998 224.57 227.761 223.971 227.598C223.427 227.434 223.373 227.052 223.264 226.78C223.21 226.507 223.101 226.071 222.557 225.962C222.394 225.907 222.285 226.016 222.23 226.071C222.013 226.289 222.013 226.834 222.067 227.598C222.122 228.306 222.176 229.233 221.85 229.615L222.176 229.888C222.557 229.342 222.502 228.361 222.502 227.598C222.502 227.216 222.448 226.561 222.557 226.452C222.774 226.507 222.774 226.562 222.883 226.943C222.992 227.325 223.101 227.816 223.862 228.088C224.515 228.306 226.855 227.816 230.391 226.943C232.349 226.452 234.362 225.962 234.852 226.071C235.396 226.125 235.668 226.616 235.994 227.052C236.212 227.379 236.538 227.816 236.973 227.87C237.68 227.979 239.258 227.488 239.693 226.889C240.02 226.398 240.292 221.6 240.346 220.127C241.325 217.183 242.522 214.075 243.066 213.857C243.882 213.584 246.548 212.875 248.724 212.384C250.628 212.003 255.905 207.804 256.123 207.586C256.34 207.368 262.433 201.261 263.576 197.498C263.902 196.19 264.228 194.827 264.446 193.518C264.772 191.609 265.208 189.646 266.024 187.629C265.915 188.774 265.861 189.919 265.752 191.173C265.697 192.155 265.643 193.082 265.534 193.791C264.936 199.352 264.065 202.46 262.651 204.478C261.019 206.714 255.089 213.639 254.327 214.129C254.001 214.402 253.511 214.511 252.967 214.729C252.587 214.838 252.097 214.947 251.498 215.22C249.594 216.038 247.527 219.309 246.004 221.763C245.242 222.963 244.481 223.999 244.209 224.271C243.665 224.598 243.338 224.489 242.849 224.326C242.577 224.217 242.141 224.053 241.652 224.053V224.435C242.033 224.435 242.359 224.544 242.685 224.653C243.229 224.871 243.719 225.035 244.481 224.599C244.861 224.326 245.569 223.344 246.385 221.981C247.908 219.691 249.921 216.474 251.716 215.656C252.206 215.438 252.695 215.329 253.076 215.274C253.675 215.111 254.164 215.002 254.654 214.62C255.361 214.02 261.454 207.15 263.086 204.86C264.609 202.788 265.371 199.57 266.024 193.9C266.078 193.191 266.133 192.209 266.241 191.282C266.405 188.774 266.568 185.939 267.112 184.575C267.656 183.049 269.505 180.704 271.409 179.068C271.409 179.068 271.464 179.014 271.518 179.014C271.79 178.795 272.661 177.978 273.368 177.869C274.021 177.759 275.272 178.196 277.013 178.905C278.645 179.504 280.712 180.268 283.106 180.922L283.215 180.54C280.767 179.886 278.754 179.177 277.176 178.577C275 177.432 273.749 176.942 272.987 177.051Z" fill="#323A50"/>
<path d="M210.317 224.271C210.644 224.326 211.188 224.653 211.841 225.089C212.929 225.798 214.126 226.67 215.214 226.125C215.758 225.853 216.247 225.144 216.791 224.271C217.825 222.69 219.022 220.782 221.47 220.073C225.169 218.819 231.806 215.656 231.86 215.656H231.915C231.969 215.601 237.192 211.784 242.251 213.093L242.36 212.711C237.192 211.348 232.078 215.002 231.697 215.329C231.643 215.329 231.48 215.438 231.208 215.547C231.099 215.002 230.718 213.802 229.684 213.039C228.923 212.439 227.889 212.221 226.692 212.33C224.679 212.548 222.721 213.584 221.034 214.402C219.511 215.165 218.314 215.765 217.39 215.71C216.628 215.656 216.519 215.165 216.302 214.565C216.138 213.857 215.921 212.93 214.343 212.766C212.711 212.602 212.058 213.747 211.405 214.62C210.916 215.329 210.644 215.82 210.1 215.765C208.577 215.656 206.564 213.584 206.564 213.584L206.292 213.857C206.346 213.911 208.413 216.038 210.1 216.256C210.916 216.31 211.351 215.601 211.841 214.893C212.385 214.02 212.983 213.093 214.343 213.202C215.594 213.311 215.812 213.966 215.975 214.674C216.138 215.329 216.302 215.983 217.498 216.147C218.532 216.201 219.783 215.547 221.361 214.783C223.047 213.966 224.897 212.984 226.855 212.766C227.944 212.657 228.814 212.82 229.521 213.366C230.5 214.129 230.772 215.329 230.881 215.765C228.923 216.637 224.299 218.764 221.47 219.691C218.967 220.509 217.607 222.635 216.574 224.108C216.03 224.871 215.594 225.634 215.105 225.853C214.398 226.234 213.255 225.525 212.221 224.817C211.569 224.435 211.025 223.999 210.535 223.944C209.882 223.89 208.903 224.489 207.869 225.198C206.836 225.853 205.748 226.67 204.932 226.78L204.986 227.161C205.856 227.052 206.999 226.289 208.087 225.525C208.849 224.762 209.828 224.162 210.317 224.271Z" fill="#323A50"/>
<path d="M274.893 179.722C273.696 180.268 272.717 181.794 271.901 182.94C271.629 183.321 271.357 183.757 271.194 183.976C271.03 184.139 270.867 184.139 270.65 184.194C270.106 184.303 269.67 184.466 269.181 185.666C268.474 187.411 268.093 191.446 269.018 192.864C269.344 193.409 269.779 193.463 270.106 193.463C271.085 193.354 271.901 192.209 272.227 191.228C272.445 190.519 273.207 190.464 273.968 190.41C274.621 190.355 275.274 190.301 275.655 189.81C275.872 189.537 276.144 189.319 276.307 189.428C276.525 189.483 276.851 189.919 276.96 190.791C277.069 192.1 276.634 194.172 276.634 194.172L277.015 194.281C277.015 194.227 277.559 192.209 277.341 190.737C277.232 189.701 276.851 189.047 276.362 188.938C276.035 188.828 275.546 189.047 275.219 189.537C275.002 189.81 274.458 189.865 273.914 189.919C273.152 189.974 272.118 190.028 271.792 191.064C271.466 192.1 270.65 192.973 269.997 193.027C269.779 193.027 269.507 192.918 269.344 192.7C268.637 191.555 268.854 187.683 269.562 185.939C269.942 184.903 270.323 184.848 270.704 184.793C270.922 184.739 271.248 184.684 271.466 184.466C271.629 184.303 271.846 183.866 272.227 183.376C272.88 182.34 273.914 180.758 275.056 180.268C275.818 179.941 276.688 180.322 277.776 180.867C278.864 181.358 280.224 182.013 282.128 182.231L282.183 181.849C280.388 181.631 279.082 181.031 278.048 180.54C276.797 179.722 275.818 179.232 274.893 179.722Z" fill="#323A50"/>
</g>
<g opacity="0.45">
<path d="M217.444 232.232C254.76 232.232 285.01 201.765 285.01 164.182C285.01 126.599 254.76 96.1318 217.444 96.1318C180.128 96.1318 149.877 126.599 149.877 164.182C149.877 201.765 180.128 232.232 217.444 232.232Z" fill="url(#paint1_radial_3748_13977)"/>
<path d="M285.282 164.182C285.282 182.394 278.264 199.516 265.425 212.439C252.586 225.362 235.559 232.45 217.497 232.45C199.436 232.45 182.408 225.362 169.569 212.439C156.731 199.516 149.713 182.394 149.713 164.182C149.713 145.97 156.731 128.848 169.569 115.925C182.408 103.002 199.436 95.9137 217.497 95.9137C235.559 95.9137 252.586 103.002 265.425 115.925C278.209 128.739 285.282 145.861 285.282 164.182ZM150.148 164.182C150.148 201.533 180.341 232.069 217.497 232.069C254.654 232.069 284.955 201.588 284.955 164.182C284.955 126.831 254.762 96.2954 217.552 96.2954C180.341 96.2954 150.148 126.722 150.148 164.182Z" fill="#323A50"/>
</g>
<path d="M142.531 163.528C142.531 177.051 151.127 187.574 166.087 188.774C166.794 188.828 166.686 188.719 166.142 188.719C160.593 188.719 157.873 177.65 157.873 164.019C157.873 150.441 160.593 139.481 166.142 139.481C166.468 139.481 166.522 139.481 166.196 139.427C153.031 139.209 142.531 149.841 142.531 163.528Z" fill="#293C4F"/>
<path d="M151.073 181.631C151.182 181.631 150.42 181.74 149.55 181.685C148.951 181.631 148.299 181.467 147.755 181.14C147.21 180.813 146.721 180.486 146.177 179.995C146.177 179.995 146.177 179.94 146.122 179.94C143.294 177.214 141.335 171.271 141.335 164.509C141.335 155.076 145.034 147.333 149.713 147.333C149.713 147.333 150.311 147.333 150.747 147.388C151.508 147.442 152.27 147.715 152.868 148.206L159.179 125.195C158.798 125.195 159.56 125.195 157.873 125.195C146.394 125.195 137.092 142.644 137.092 164.237C137.092 185.829 146.394 203.278 157.873 203.278C158.526 203.278 159.179 203.224 159.886 203.115L153.14 180.431C152.705 180.758 151.726 181.522 151.073 181.631Z" fill="#DBDBDB"/>
<path d="M160.485 203.333L160.104 203.387C159.397 203.496 158.744 203.551 158.037 203.551C152.325 203.551 146.939 199.461 142.968 191.937C139.051 184.521 136.875 174.651 136.875 164.128C136.875 153.604 138.997 143.789 142.968 136.319C146.939 128.794 152.325 124.704 158.037 124.704C158.581 124.704 158.853 124.704 159.071 124.704C159.125 124.704 159.18 124.704 159.234 124.704V124.759C159.234 124.759 159.288 124.813 159.343 124.813H159.887L153.25 148.86L152.76 148.533C152.107 148.151 151.509 147.824 150.856 147.769C150.475 147.715 149.823 147.715 149.823 147.715C145.47 147.715 141.934 155.24 141.934 164.509C141.934 170.998 143.784 176.941 146.613 179.668L146.667 179.722C147.048 180.104 147.647 180.486 148.027 180.758C148.517 180.977 149.17 181.14 149.714 181.304C150.258 181.358 150.747 181.304 150.965 181.304H151.074C151.4 181.195 152.162 180.813 153.087 180.104L153.576 179.831L160.485 203.333ZM137.582 164.182C137.582 185.502 146.776 202.842 158.037 202.842C158.527 202.842 159.016 202.787 159.56 202.733L153.087 181.031C152.434 181.413 151.781 181.849 151.237 182.013C150.747 182.176 149.551 182.067 149.551 182.067C148.898 182.013 148.191 181.794 147.592 181.467C147.048 181.195 146.504 180.758 145.96 180.268L145.906 180.213C142.914 177.214 141.01 171.162 141.01 164.4C141.01 159.711 141.88 155.349 143.512 152.077C145.198 148.642 147.374 146.733 149.768 146.733C149.823 146.733 150.367 146.733 150.856 146.788C151.509 146.842 152.107 147.006 152.706 147.388L158.69 125.413C158.527 125.413 158.309 125.413 157.928 125.413C146.776 125.522 137.582 142.862 137.582 164.182Z" fill="#323A50"/>
<path opacity="0.52" d="M143.62 164.455C143.62 155.621 146.83 148.369 151.019 147.333C150.747 147.279 150.366 147.224 149.985 147.224C145.306 147.224 141.553 154.912 141.553 164.455C141.553 173.943 145.306 181.685 149.985 181.685C150.148 181.685 150.366 181.74 150.583 181.685C150.638 181.685 151.345 181.685 152.379 181.358C152.923 181.195 153.14 180.54 153.031 180.486C151.726 181.576 150.801 181.522 150.583 181.522C146.721 180.104 143.62 173.016 143.62 164.455Z" fill="url(#paint2_linear_3748_13977)"/>
<path d="M285.446 163.964C285.446 182.176 278.373 199.352 265.48 212.221C252.587 225.144 235.505 232.232 217.335 232.232C202.32 232.232 188.067 227.434 176.153 218.328L176.479 217.837C188.23 226.889 202.374 231.523 217.28 231.523C254.491 231.523 284.793 201.206 284.793 163.855C284.793 126.504 254.546 96.2409 217.28 96.2409C202.266 96.2409 188.012 101.094 176.207 110.254L175.881 109.764C187.904 100.494 202.211 95.6411 217.389 95.6411C235.559 95.6411 252.696 102.73 265.535 115.653C278.428 128.63 285.446 145.752 285.446 163.964Z" fill="#323A50"/>
<path d="M155.262 189.974L159.342 188.992L162.171 196.571C162.388 197.171 163.204 197.171 163.422 196.571L163.476 196.517L163.857 195.426C163.966 195.099 164.51 195.154 164.564 195.481L165.054 197.771V197.88C165.272 198.971 166.741 199.08 167.121 198.044L168.155 195.753C168.318 195.372 168.917 195.426 169.025 195.808C169.515 197.88 170.603 202.133 172.833 208.295C180.939 228.852 203.625 238.503 203.625 238.503C203.625 238.503 192.908 236.54 185.618 232.996C180.939 230.815 173.541 227.216 165.544 219.855C160.158 214.947 155.262 208.404 155.262 208.404C155.262 208.404 160.376 206.114 159.233 202.624C158.145 200.007 154.827 194.172 155.262 189.974Z" fill="white"/>
<path d="M207.325 239.703L203.735 239.048C203.626 239.048 192.909 237.031 185.619 233.541C181.104 231.414 173.542 227.761 165.436 220.345C160.05 215.492 155.154 208.895 155.1 208.84L154.828 208.458L155.209 208.295C155.263 208.295 159.126 206.441 159.126 203.824C159.126 203.605 159.071 203.278 159.017 203.006C157.711 200.279 152.543 186.048 152.543 181.086C152.543 180.867 152.543 180.595 152.597 180.431L152.652 180.104L156.46 180.05L162.444 196.571C162.498 196.735 162.607 196.735 162.662 196.735C162.716 196.735 162.825 196.735 162.879 196.571L163.369 195.372C163.478 195.099 163.75 194.826 164.131 194.881C164.457 194.936 164.783 195.154 164.838 195.535L165.382 197.989C165.436 198.316 165.708 198.534 165.98 198.534C166.252 198.534 166.524 198.48 166.687 198.153L167.721 195.863C167.884 195.535 168.211 195.317 168.591 195.317C168.918 195.372 169.299 195.59 169.353 195.972C169.734 197.935 170.931 202.242 173.161 208.404C177.296 218.873 185.402 226.452 191.44 230.978C198.023 235.886 203.68 238.339 203.735 238.394L207.325 239.703ZM156.133 208.731C157.276 210.258 161.519 215.656 165.98 219.8C174.032 227.107 181.485 230.76 186 232.887C190.787 235.122 197.043 236.813 200.743 237.685C198.458 236.485 195.031 234.468 191.277 231.687C185.184 227.107 176.969 219.364 172.672 208.731C170.441 202.515 169.244 198.207 168.863 196.19C168.863 196.19 168.863 196.135 168.809 196.135C168.755 196.135 168.755 196.135 168.755 196.19L167.721 198.48C167.503 199.08 166.851 199.461 166.143 199.352C165.491 199.298 164.947 198.807 164.838 198.153L164.294 195.753L163.913 196.899C163.75 197.28 163.314 197.607 162.879 197.553C162.498 197.553 162.063 197.28 161.846 196.844L156.025 180.813H153.522C153.522 180.867 153.522 180.922 153.522 181.031C153.522 185.884 158.582 200.007 159.833 202.678V202.733C159.942 203.06 159.996 203.442 159.996 203.824C160.05 206.332 157.276 208.131 156.133 208.731Z" fill="#323A50"/>
<path d="M293.715 164.019H292.899C292.899 122.305 259.007 88.2799 217.335 88.2799C193.507 88.2799 171.583 99.2399 157.112 118.215L156.568 117.834C163.532 108.619 172.562 100.876 182.79 95.6411C193.507 90.1884 205.149 87.4075 217.281 87.4075C227.617 87.4075 237.572 89.425 246.984 93.351C256.123 97.1679 264.175 102.73 271.247 109.709C278.265 116.743 283.759 124.922 287.567 134.083C291.702 143.68 293.715 153.604 293.715 164.019Z" fill="#323A50"/>
<path d="M152.923 148.097L156.078 148.151L161.627 131.466C161.845 130.866 162.661 130.866 162.878 131.466L162.933 131.52L163.314 132.611C163.422 132.938 163.966 132.883 164.021 132.556L164.51 130.266V130.157C164.728 129.066 166.197 128.957 166.578 129.993L167.611 132.284C167.775 132.665 168.373 132.611 168.482 132.229C168.971 130.157 170.059 125.904 172.29 119.742C180.45 99.1855 202.537 89.5886 202.537 89.5886C202.537 89.5886 192.255 91.4971 184.911 95.0414C180.233 97.2225 172.834 100.821 164.837 108.182C159.451 113.09 155.317 120.069 155.317 120.069C155.317 120.069 159.723 122.032 158.69 125.522C157.547 128.03 152.488 143.789 152.923 148.097Z" fill="white"/>
<path d="M206.399 88.3345L203.026 89.8067C202.972 89.8067 197.423 92.2604 190.949 97.1679C185.074 101.694 177.022 109.273 172.888 119.742C170.657 125.849 169.515 130.212 169.08 132.175C169.025 132.502 168.753 132.829 168.318 132.829C167.992 132.883 167.611 132.665 167.448 132.284L166.414 129.993C166.305 129.666 165.924 129.612 165.707 129.612C165.489 129.612 165.163 129.775 165.108 130.157L164.564 132.611C164.51 132.938 164.238 133.211 163.857 133.265C163.531 133.32 163.204 133.101 163.095 132.774L162.606 131.575C162.551 131.411 162.443 131.411 162.388 131.411C162.334 131.411 162.225 131.411 162.171 131.575L156.567 148.533L152.759 148.478L152.705 148.151C152.705 147.987 152.65 147.769 152.65 147.442C152.65 142.426 157.329 127.867 158.58 125.195C158.689 124.922 158.689 124.541 158.689 124.214C158.689 121.705 155.479 120.288 155.479 120.233L155.098 120.069L155.316 119.742C155.37 119.688 159.614 112.654 164.891 107.801C173.051 100.385 180.613 96.7862 185.074 94.6051C192.364 91.0608 202.645 89.1524 202.754 89.0979L206.399 88.3345ZM163.694 132.393L164.238 129.993C164.347 129.339 165.163 128.848 165.816 128.794C166.468 128.739 167.067 129.066 167.393 129.666L168.427 131.956C168.427 131.956 168.427 132.011 168.481 132.011C168.536 132.011 168.536 132.011 168.536 131.956C168.916 129.939 170.113 125.631 172.344 119.415C176.533 108.728 184.639 101.039 190.677 96.5136C194.322 93.7872 197.641 91.7152 199.98 90.5701C196.389 91.388 190.405 93.0238 185.672 95.314C181.211 97.4406 173.649 101.039 165.652 108.401C161.083 112.49 157.329 118.27 156.404 119.797C157.383 120.342 159.559 121.869 159.559 124.323C159.559 124.65 159.451 125.195 159.342 125.577V125.631C158.091 128.249 153.738 142.589 153.738 147.551C153.738 147.66 153.738 147.715 153.738 147.769H156.241L161.409 131.302C161.572 130.92 162.007 130.593 162.443 130.593C162.823 130.593 163.259 130.811 163.422 131.302L163.694 132.393Z" fill="#323A50"/>
<path d="M166.578 139.263C161.029 139.263 158.092 150.332 158.092 163.909C158.092 177.487 160.975 188.556 166.578 188.556C172.127 188.556 178.22 177.487 178.22 163.909C178.22 150.332 172.073 139.263 166.578 139.263Z" fill="#DBDBDB"/>
<path d="M178.655 163.909C178.655 170.398 177.295 176.614 174.847 181.576C172.453 186.32 169.407 189.047 166.469 189.047C163.64 189.047 161.356 186.429 159.778 181.522C158.418 177.105 157.656 170.998 157.656 163.909C157.656 156.821 158.418 150.768 159.778 146.297C161.356 141.39 163.64 138.772 166.469 138.772C169.407 138.772 172.399 141.444 174.847 146.243C177.35 151.205 178.655 157.421 178.655 163.909ZM158.472 163.909C158.472 170.78 159.234 176.942 160.54 181.195C161.573 184.357 163.423 188.12 166.415 188.12C168.972 188.12 171.855 185.502 173.977 181.14C176.37 176.342 177.73 170.18 177.73 163.909C177.73 157.639 176.425 151.477 173.977 146.679C171.801 142.262 168.972 139.699 166.415 139.699C163.314 139.699 161.464 143.462 160.54 146.624C159.234 150.932 158.472 157.039 158.472 163.909Z" fill="#323A50"/>
<path d="M166.689 139.917C161.412 139.917 158.746 150.659 158.746 163.964C158.746 177.214 161.466 187.956 166.689 187.956C171.911 187.956 177.787 177.214 177.787 163.909C177.787 150.605 171.911 139.917 166.689 139.917Z" fill="#DBDBDB"/>
<path d="M177.786 163.909C177.786 170.18 176.535 176.233 174.195 180.922C172.019 185.448 169.245 188.011 166.579 188.011C164.022 188.011 161.901 185.557 160.595 180.922C159.289 176.614 158.582 170.671 158.582 163.909C158.582 157.094 159.289 151.205 160.595 146.897C162.064 142.208 164.131 139.808 166.579 139.808C169.19 139.808 172.019 142.371 174.141 146.897C176.535 151.586 177.786 157.748 177.786 163.909ZM158.8 163.909C158.8 178.414 161.901 187.847 166.633 187.847C171.693 187.847 177.623 177.378 177.623 163.909C177.623 150.441 171.747 139.972 166.633 139.972C161.901 140.026 158.8 149.405 158.8 163.909Z" fill="#323A50"/>
<path d="M166.794 141.172C162.279 141.172 159.939 151.423 159.939 163.964C159.939 176.56 162.333 186.756 166.794 186.756C171.201 186.756 176.314 176.505 176.314 163.964C176.314 151.423 171.309 141.172 166.794 141.172Z" fill="#DBDBDB"/>
<path d="M176.424 163.964C176.424 169.853 175.336 175.578 173.323 180.104C171.419 184.412 169.025 186.866 166.74 186.866C164.564 186.866 162.769 184.575 161.463 180.104C160.321 176.069 159.723 170.453 159.723 163.964C159.723 157.421 160.321 151.859 161.463 147.824C162.715 143.407 164.51 141.062 166.74 141.062C168.971 141.062 171.473 143.516 173.323 147.824C175.39 152.295 176.424 158.021 176.424 163.964ZM159.995 163.964C159.995 177.759 162.66 186.647 166.795 186.647C171.147 186.647 176.261 176.778 176.261 163.964C176.261 151.15 171.201 141.281 166.795 141.281C162.66 141.226 159.995 150.223 159.995 163.964Z" fill="#323A50"/>
<path d="M166.852 142.535C162.989 142.535 160.977 152.186 160.977 164.182C160.977 176.178 162.989 185.829 166.852 185.829C170.714 185.829 175.067 176.178 175.067 164.182C175.067 152.186 170.714 142.535 166.852 142.535Z" fill="#DBDBDB"/>
<path d="M175.175 164.073C175.175 169.689 174.195 175.142 172.509 179.341C170.877 183.376 168.81 185.72 166.851 185.72C164.947 185.72 163.369 183.539 162.336 179.341C161.357 175.469 160.812 170.18 160.812 164.073C160.812 157.966 161.357 152.677 162.336 148.805C163.424 144.661 164.947 142.426 166.851 142.426C168.81 142.426 170.877 144.716 172.509 148.805C174.25 153.058 175.175 158.511 175.175 164.073ZM161.03 164.073C161.03 177.105 163.261 185.611 166.851 185.611C170.605 185.611 174.957 176.233 174.957 164.073C174.957 151.913 170.605 142.535 166.851 142.535C163.315 142.589 161.03 151.041 161.03 164.073Z" fill="#323A50"/>
<path d="M166.795 143.953C163.695 143.953 162.062 153.004 162.062 164.073C162.062 175.197 163.695 184.194 166.795 184.194C169.896 184.194 173.704 175.142 173.704 164.073C173.704 153.004 169.896 143.953 166.795 143.953Z" fill="#DBDBDB"/>
<path d="M173.813 164.182C173.813 175.415 169.95 184.412 166.795 184.412C163.204 184.412 161.953 173.452 161.953 164.182C161.953 154.858 163.204 143.952 166.795 143.952C169.95 143.898 173.813 152.949 173.813 164.182ZM162.171 164.182C162.171 176.396 163.966 184.248 166.74 184.248C169.787 184.248 173.595 174.979 173.595 164.182C173.595 153.386 169.841 144.116 166.74 144.116C163.966 144.061 162.171 152.022 162.171 164.182Z" fill="#323A50"/>
<path d="M166.85 145.697C164.402 145.697 163.15 154.04 163.15 164.237C163.15 174.488 164.402 182.776 166.85 182.776C169.298 182.776 172.29 174.433 172.29 164.237C172.29 154.04 169.189 145.697 166.85 145.697Z" fill="#DBDBDB"/>
<path d="M172.344 164.237C172.344 174.542 169.352 182.831 166.849 182.831C164.021 182.831 163.096 173.234 163.096 164.237C163.096 155.185 164.129 145.643 166.849 145.643C169.243 145.588 172.344 153.931 172.344 164.237ZM163.259 164.237C163.259 175.251 164.728 182.612 166.849 182.612C169.243 182.612 172.181 174.106 172.181 164.237C172.181 154.367 169.243 145.861 166.849 145.861C164.728 145.806 163.259 153.168 163.259 164.237Z" fill="#323A50"/>
<path d="M167.013 147.66C165.218 147.66 164.348 155.131 164.348 164.291C164.348 173.452 165.218 180.922 167.013 180.922C168.809 180.922 170.93 173.452 170.93 164.291C170.93 155.131 168.809 147.66 167.013 147.66Z" fill="#DBDBDB"/>
<path d="M171.039 164.346C171.039 173.615 168.863 181.086 167.013 181.086C165 181.086 164.293 172.416 164.293 164.346C164.293 156.276 165 147.606 167.013 147.606C168.863 147.551 171.039 155.021 171.039 164.346ZM164.456 164.346C164.456 174.215 165.49 180.867 167.013 180.867C168.536 180.867 170.821 173.943 170.821 164.346C170.821 154.803 168.591 147.824 167.013 147.824C165.49 147.769 164.456 154.422 164.456 164.346Z" fill="#323A50"/>
<path d="M141.117 164.509C141.117 149.023 146.829 136.428 153.847 136.428C155.806 136.428 154.174 135.064 155.806 136.809C156.132 137.191 158.58 136.918 159.94 137.082C161.463 137.3 162.116 137.3 163.966 137.682C165.816 138.009 167.665 138.827 167.012 138.827C163.041 138.772 161.681 141.935 161.627 142.208C161.463 142.916 155.534 154.967 155.534 164.018C155.534 173.615 160.049 187.411 165.271 188.774C165.598 188.883 166.632 189.156 168.372 188.61C167.121 189.319 160.811 191.391 160.484 191.446C157.873 191.827 157.166 191.391 155.697 191.882C155.044 192.1 154.5 192.536 153.847 192.536C146.775 192.591 141.117 179.995 141.117 164.509Z" fill="#293C4F"/>
<path d="M144.165 164.237C144.165 150.278 148.517 138.718 154.121 137.082C153.631 136.973 153.25 136.918 152.761 136.918C146.504 136.918 141.391 149.187 141.391 164.237C141.391 179.341 146.45 191.555 152.761 191.555C153.25 191.555 153.685 191.446 154.121 191.391C148.517 189.756 144.165 178.25 144.165 164.237Z" fill="#DBDBDB"/>
<path d="M155.208 137.246L154.283 137.791C148.843 139.372 144.763 150.823 144.763 164.291C144.763 177.759 148.843 189.265 154.283 190.792L155.045 190.846L154.283 192.155C153.739 192.318 153.249 192.318 152.76 192.318C149.55 192.318 146.503 189.374 144.219 183.921C141.988 178.632 140.846 171.652 140.846 164.291C140.846 156.821 142.043 149.896 144.219 144.661C146.449 139.263 149.496 136.264 152.76 136.264C153.249 136.264 154.446 136.046 155.045 136.155L155.208 137.246ZM141.988 164.237C141.988 178.087 146.231 189.483 151.672 190.792C146.939 187.138 143.566 176.451 143.566 164.237C143.566 151.968 146.939 141.335 151.672 137.682C146.286 138.936 141.988 150.332 141.988 164.237Z" fill="#323A50"/>
<path d="M30.6817 161.292H15.4492V167.999H30.6817V173.234L42.922 164.945V164.891L30.6817 156.167V161.292Z" fill="#FF4200"/>
</g>
<defs>
<linearGradient id="paint0_linear_3748_13977" x1="200.095" y1="151.518" x2="65.2923" y2="186.093" gradientUnits="userSpaceOnUse">
<stop offset="0.2655" stop-color="#032A3D" stop-opacity="0"/>
<stop offset="0.7809" stop-color="#032A3D"/>
</linearGradient>
<radialGradient id="paint1_radial_3748_13977" cx="0" cy="0" r="1" gradientUnits="userSpaceOnUse" gradientTransform="translate(217.448 164.197) rotate(-90) scale(68.0578 67.5592)">
<stop offset="0.4054" stop-color="#032A3D" stop-opacity="0"/>
<stop offset="1" stop-color="#032A3D"/>
</radialGradient>
<linearGradient id="paint2_linear_3748_13977" x1="173.712" y1="141.835" x2="124.963" y2="188.422" gradientUnits="userSpaceOnUse">
<stop offset="0.3301" stop-color="#C4FFFF"/>
<stop offset="0.8279" stop-color="#47B4FF"/>
<stop offset="1" stop-color="#0C37A6"/>
</linearGradient>
<clipPath id="clip0_3748_13977">
<rect width="330" height="330" fill="white"/>
</clipPath>
</defs>
</svg>
