<svg width="330" height="330" viewBox="0 0 330 330" fill="none" xmlns="http://www.w3.org/2000/svg">
<g clip-path="url(#clip0_3748_13736)">
<path d="M300.46 163.449C300.46 167.912 300.134 172.43 299.426 176.838C298.828 181.138 297.305 187.942 295.292 192.514C289.471 208.243 279.08 221.687 265.317 231.43C251.227 241.39 234.688 246.616 217.334 246.616C205.312 246.616 193.724 244.057 182.898 239.104C172.453 234.315 163.205 227.566 155.48 218.966L152.868 216.517C148.19 212.053 147.864 211.672 144.98 209.114C144.654 208.842 144.273 208.516 143.838 208.135C140.41 205.195 134.209 199.698 128.823 192.241C122.295 183.098 118.922 173.518 118.922 163.721V163.503C118.922 153.706 122.295 144.127 128.823 134.983C134.209 127.472 140.465 122.029 143.838 119.09C144.273 118.763 144.599 118.382 144.871 118.11C147.047 116.15 147.7 115.497 149.931 113.375C150.964 112.395 152.379 110.98 154.501 108.911C162.226 100.094 171.528 93.1272 182.137 88.1742C193.071 83.0579 204.876 80.4998 217.062 80.4998C228.323 80.4998 239.149 82.6769 249.431 87.0312C259.332 91.2222 268.254 97.2093 275.87 104.829C283.541 112.504 289.471 121.376 293.66 131.282C298.284 141.351 300.46 152.237 300.46 163.449ZM119.629 163.394V163.612C119.629 186.091 137.745 201.658 144.436 207.481C144.871 207.808 145.198 208.189 145.579 208.461C148.462 211.074 148.897 211.4 153.521 215.863L156.133 218.422C171.746 235.839 194.105 245.799 217.334 245.799C251.553 245.799 282.562 224.245 294.53 192.133C296.489 187.615 298.012 180.92 298.61 176.62C299.318 172.266 299.644 167.858 299.644 163.34C299.644 117.892 262.705 80.9896 217.334 80.9896C193.561 80.9896 170.93 91.2222 155.317 109.184C153.195 111.252 151.726 112.667 150.747 113.647C148.516 115.824 147.864 116.477 145.687 118.436C145.361 118.709 144.98 119.09 144.545 119.416C137.745 125.349 119.629 140.915 119.629 163.394Z" fill="#323A50"/>
<path opacity="0.2" d="M154.773 121.593C153.141 118.654 152.053 117.076 148.572 120.069C142.805 125.186 123.764 140.534 123.166 163.775V163.993C123.764 187.234 142.751 202.528 148.572 207.699C151.999 210.747 154.066 208.352 155.045 206.937C151.237 200.95 148.191 195.507 145.906 188.486C145.851 188.268 141.608 179.396 141.499 164.537C141.499 164.483 141.445 154.468 144.383 144.943C147.429 133.295 151.237 127.744 154.773 121.593Z" fill="url(#paint0_linear_3748_13736)"/>
<path opacity="0.2" d="M218.15 232.301C255.526 232.301 285.826 201.84 285.826 164.265C285.826 126.69 255.526 96.2296 218.15 96.2296C180.774 96.2296 150.475 126.69 150.475 164.265C150.475 201.84 180.774 232.301 218.15 232.301Z" fill="url(#paint1_radial_3748_13736)"/>
<path opacity="0.34" d="M186.597 92.9095C186.434 92.9639 186.271 93.0183 186.108 93.1272C186.597 93.3449 186.978 93.7803 187.359 94.3246C188.175 95.7398 187.794 97.9169 186.217 98.6245C185.401 99.0599 184.639 99.4409 183.877 99.9852C183.442 100.203 183.116 100.529 182.68 100.802C182.517 100.91 182.517 100.91 182.68 100.802C182.626 100.856 182.517 100.91 182.463 101.019C182.3 101.128 182.136 101.291 181.919 101.455C180.504 102.707 179.09 104.176 178.274 105.319C177.73 106.081 177.295 106.843 176.859 107.66C176.751 107.877 176.642 108.149 176.533 108.367C176.533 108.422 176.533 108.422 176.479 108.422C176.315 108.857 176.207 109.238 176.043 109.728C175.935 110.218 175.826 110.653 175.771 111.143C175.771 111.143 175.663 111.851 175.663 111.796C175.663 111.959 175.608 112.068 175.608 112.286C175.499 113.429 175.499 114.463 175.499 115.606C175.608 119.688 176.261 123.117 176.751 127.091C177.24 131.227 177.567 135.418 177.893 139.555C178.492 147.773 179.416 155.883 179.58 164.102C179.634 168.13 178.927 172.157 178.22 176.131C177.512 180.104 176.968 183.696 176.587 187.506C175.663 195.453 175.227 203.508 175.935 211.455C176.043 213.033 174.629 214.339 173.16 214.557C173.16 214.612 173.16 214.666 173.215 214.775C173.323 215.265 173.432 215.646 173.65 216.136C173.704 216.353 173.813 216.625 173.922 216.898C173.976 217.006 173.976 217.061 174.031 217.115C174.847 219.02 175.989 220.762 177.186 222.395C177.24 222.449 177.512 222.83 177.512 222.83C177.675 223.048 177.839 223.32 178.111 223.483C178.437 223.919 178.818 224.245 179.144 224.681C179.906 225.443 180.668 226.205 181.538 226.858C181.592 226.912 181.647 226.912 181.647 226.967C181.647 226.967 181.701 227.021 181.756 227.021C181.973 227.185 182.191 227.293 182.408 227.511C182.844 227.783 183.17 228.055 183.605 228.273C184.04 228.491 184.367 228.763 184.802 228.926C184.911 228.981 185.673 229.198 184.911 228.981C185.129 229.035 185.346 229.144 185.564 229.198C187.196 229.797 188.175 231.321 187.74 233.063C187.631 233.662 187.25 234.206 186.815 234.532C186.924 234.587 187.033 234.478 187.141 234.532C196.39 238.506 206.563 240.792 217.334 240.792C259.931 240.792 294.476 206.23 294.476 163.612C294.476 120.995 259.931 86.4325 217.334 86.4325C206.291 86.5958 195.954 88.9362 186.597 92.9095Z" fill="url(#paint2_linear_3748_13736)"/>
<g opacity="0.2">
<path d="M245.842 103.469L245.788 103.958C248.127 104.231 251.391 111.143 251.608 112.613C251.717 113.211 251.554 113.538 251.445 113.919C251.228 114.409 251.01 114.899 251.554 115.878C252.479 117.402 258.354 122.736 261.183 123.879C264.066 125.077 265.59 125.784 266.678 128.451C267.276 129.921 267.276 132.098 267.276 134.438C267.276 136.616 267.276 138.793 267.766 140.589C268.473 143.201 269.67 145.651 270.214 146.848C269.507 146.195 268.799 145.596 268.092 144.998C266.841 143.963 265.753 142.984 265.318 142.385C264.719 141.569 264.447 138.793 264.121 135.908C263.686 131.935 263.25 127.417 261.89 126.056C260.422 124.478 254.764 122.246 250.303 120.45C247.909 119.525 245.842 118.709 245.026 118.164C244.155 117.62 243.122 116.15 242.088 114.572C240.347 111.851 238.28 108.857 235.832 108.911V109.401C238.008 109.347 239.967 112.286 241.653 114.899C242.795 116.586 243.775 118.055 244.699 118.654C245.57 119.198 247.637 120.015 250.085 120.94C254.546 122.682 260.095 124.968 261.51 126.437C261.999 126.982 262.38 127.961 262.706 129.322C262.217 128.506 261.51 127.417 260.585 126.71C258.953 125.403 255.036 124.315 252.969 123.77C252.642 123.662 252.316 123.607 252.098 123.553C251.445 123.389 251.064 123.607 250.629 123.825C250.14 124.097 249.704 124.424 248.508 124.26C247.202 124.043 246.658 123.335 246.168 122.519C245.842 121.974 245.407 121.484 244.754 121.049C243.176 120.069 241.599 120.722 240.674 120.995H240.619C240.021 121.212 240.075 121.757 240.075 122.192C240.13 122.627 240.13 122.845 239.912 122.954C239.695 123.063 239.205 122.791 238.715 122.41C238.008 121.92 237.192 121.376 236.485 121.702L236.648 122.138C237.192 121.92 237.845 122.355 238.389 122.791C239.042 123.226 239.64 123.607 240.075 123.335C240.565 123.063 240.565 122.519 240.511 122.083C240.456 121.648 240.456 121.484 240.728 121.376H240.783C241.599 121.103 243.067 120.505 244.427 121.376C244.971 121.702 245.298 122.192 245.733 122.736C246.332 123.553 246.984 124.369 248.453 124.696C249.813 124.913 250.412 124.587 250.847 124.206C251.173 123.988 251.445 123.879 251.88 123.988C252.044 124.043 252.425 124.151 252.751 124.206C254.655 124.75 258.626 125.839 260.15 127.091C261.89 128.506 262.815 130.901 262.924 131.173C263.142 132.697 263.359 134.438 263.522 136.071C263.849 139.174 264.175 141.895 264.774 142.766C265.263 143.419 266.351 144.344 267.657 145.487C270.105 147.61 273.587 150.495 273.424 152.563C273.369 153.597 273.152 154.74 272.88 155.938C272.39 158.333 271.846 161.054 272.335 163.993C273.478 170.089 274.62 172.049 276.035 173.3C277.395 174.498 279.136 175.042 279.19 175.042L279.353 174.607C279.353 174.607 277.612 174.008 276.307 172.919C274.947 171.776 273.859 169.817 272.716 163.884C272.172 161.054 272.716 158.333 273.26 155.992C273.478 154.74 273.75 153.652 273.859 152.563C273.968 151.094 272.499 149.243 270.703 147.556L270.867 147.447C270.867 147.392 268.963 144.072 268.038 140.534C267.548 138.902 267.548 136.67 267.548 134.547C267.548 132.152 267.548 129.866 266.95 128.342C265.807 125.458 264.121 124.696 261.238 123.444C258.517 122.301 252.751 117.076 251.88 115.606C251.445 114.899 251.608 114.572 251.772 114.082C251.935 113.756 252.098 113.266 251.989 112.504C251.826 110.925 248.508 103.85 245.842 103.469Z" fill="url(#paint3_linear_3748_13736)"/>
<path d="M256.831 159.258C257.648 160.074 259.008 159.911 260.64 159.802C262.163 159.693 263.904 159.53 265.318 160.238C268.093 161.598 270.269 167.585 270.269 167.749L270.758 167.585C270.65 167.368 268.528 161.272 265.59 159.857C264.067 159.095 262.217 159.258 260.64 159.421C259.171 159.53 257.865 159.639 257.212 158.986C256.505 158.278 255.907 155.72 255.471 153.488C254.873 150.876 254.438 148.699 253.622 148.1C252.915 147.556 252.262 147.447 251.663 147.392C251.011 147.284 250.521 147.229 250.14 146.63C249.977 146.358 250.031 144.78 250.14 143.147C250.358 138.629 250.793 131.772 247.366 129.268C244.646 127.308 242.687 127.962 240.946 128.56C239.532 129.05 238.335 129.431 236.866 128.56C235.669 127.853 235.343 126.655 234.853 125.295C234.037 122.628 232.949 119.362 226.149 117.294C224.571 116.804 222.885 117.076 221.307 117.294C219.186 117.62 217.227 117.947 215.377 116.64L215.105 116.967C217.118 118.328 219.294 117.947 221.416 117.675C222.994 117.457 224.517 117.185 225.986 117.62C232.514 119.634 233.602 122.791 234.418 125.349C234.908 126.819 235.288 128.07 236.594 128.832C238.226 129.758 239.641 129.322 241.055 128.832C242.741 128.234 244.537 127.635 247.039 129.486C250.194 131.771 249.814 138.793 249.596 142.929C249.487 144.508 249.487 145.542 249.542 146.195C248.889 145.923 248.018 145.76 246.93 145.596C245.19 145.324 243.177 144.943 242.034 143.909C241.49 143.365 241.273 142.603 241.001 141.677C240.293 139.391 239.423 136.18 232.895 133.677H232.84C230.61 133.187 229.032 133.731 228.053 134.275C227.618 134.493 227.4 134.983 227.183 135.473C226.965 136.017 226.639 136.616 225.931 137.051C224.68 137.867 217.826 138.248 216.52 137.922C216.411 137.922 216.357 137.867 216.357 137.867C216.302 137.813 216.411 137.541 216.466 137.269C216.683 136.561 217.173 135.309 216.139 133.84L215.704 134.112C216.629 135.418 216.302 136.398 215.976 137.105C215.867 137.541 215.758 137.813 215.867 138.031C215.921 138.194 216.085 138.248 216.357 138.303C217.662 138.575 224.735 138.303 226.203 137.378C227.019 136.833 227.346 136.126 227.563 135.636C227.727 135.2 227.89 134.874 228.216 134.711C229.087 134.221 230.501 133.731 232.623 134.166C238.933 136.561 239.804 139.664 240.457 141.895C240.729 142.875 241.001 143.746 241.653 144.29C242.905 145.433 244.972 145.76 246.822 146.141C248.073 146.358 249.161 146.576 249.705 146.957C250.194 147.61 250.847 147.719 251.446 147.828C252.044 147.937 252.588 147.991 253.187 148.481C253.785 148.971 254.383 151.42 254.819 153.597C255.526 156.047 256.07 158.496 256.831 159.258Z" fill="url(#paint4_linear_3748_13736)"/>
<path d="M210.209 158.55C210.862 157.952 211.351 157.516 212.766 157.788C213.69 157.952 215.05 158.496 216.519 159.095C219.076 160.074 221.687 161.108 222.939 160.619C223.537 160.401 223.918 160.02 224.353 159.693C225.224 158.931 226.094 158.169 228.76 158.55C230.881 158.877 232.513 160.02 233.873 160.891C235.07 161.653 236.049 162.36 236.974 162.306C237.736 162.251 238.28 161.816 238.715 161.435C239.586 160.727 240.565 159.965 242.904 160.945C244.754 161.707 245.189 162.796 245.57 163.612C246.005 164.537 246.331 165.299 248.018 165.027C249.867 164.755 251.064 163.558 252.207 162.415C253.023 161.598 253.893 160.782 255.036 160.238L254.818 159.802C253.621 160.401 252.696 161.272 251.88 162.088C250.738 163.231 249.65 164.265 247.909 164.537C246.549 164.755 246.331 164.265 245.896 163.34C245.461 162.469 244.971 161.217 243.013 160.401C240.402 159.258 239.314 160.183 238.334 161C237.845 161.435 237.409 161.762 236.811 161.816C235.995 161.87 235.125 161.272 233.982 160.51C232.622 159.584 230.936 158.387 228.705 158.115C225.822 157.679 224.843 158.55 223.918 159.367C223.483 159.693 223.156 160.02 222.612 160.238C221.633 160.673 218.913 159.584 216.519 158.714C215.05 158.115 213.69 157.571 212.711 157.407C211.079 157.081 210.426 157.625 209.773 158.278C209.284 158.714 208.849 159.149 207.924 159.312L208.033 159.802C209.175 159.53 209.719 158.986 210.209 158.55Z" fill="url(#paint5_linear_3748_13736)"/>
<path d="M274.021 156.155C273.26 157.734 272.879 161.762 273.314 164.211C273.749 166.551 274.674 170.742 276.415 172.321C277.394 173.246 279.353 174.062 279.407 174.062L279.57 173.627C279.57 173.627 277.612 172.811 276.687 171.94C275.001 170.361 274.021 165.953 273.749 164.048C273.26 161.435 273.749 157.679 274.402 156.264C275.109 154.795 276.252 154.25 276.687 154.196C278.319 153.978 279.788 156.754 279.788 156.754L280.223 156.536C280.169 156.428 278.591 153.488 276.633 153.761C275.98 153.924 274.783 154.631 274.021 156.155Z" fill="url(#paint6_linear_3748_13736)"/>
<path d="M245.46 155.012C245.787 154.196 246.113 153.38 246.875 152.835C247.745 152.182 250.03 150.876 252.043 152.618C252.859 153.325 253.512 155.067 254.165 156.809C254.763 158.496 255.361 160.129 256.123 160.564C256.939 161.108 258.353 161 259.985 160.836C261.454 160.727 262.978 160.619 264.174 160.945C266.568 161.653 269.451 167.749 269.56 167.803L269.995 167.64C269.887 167.422 267.003 161.272 264.338 160.51C263.032 160.183 261.454 160.292 259.985 160.346C258.517 160.455 257.102 160.51 256.395 160.129C255.742 159.693 255.144 158.115 254.654 156.591C254.001 154.849 253.348 152.999 252.424 152.237C250.846 150.876 248.724 150.93 246.657 152.4C245.787 152.999 245.406 153.924 245.079 154.74C244.753 155.557 244.427 156.373 243.665 156.754C242.142 157.462 240.401 156.917 239.857 155.938C239.694 155.72 239.585 155.448 239.367 155.176C238.823 154.359 238.388 153.488 237.191 152.4C235.668 150.985 229.412 148.318 226.42 147.882C224.679 147.61 223.863 148.1 223.047 148.59C222.394 149.025 221.741 149.406 220.436 149.515L220.49 150.005C221.85 149.896 222.612 149.406 223.264 149.025C224.026 148.535 224.733 148.1 226.311 148.372C229.249 148.862 235.342 151.42 236.865 152.781C238.007 153.761 238.442 154.686 238.932 155.502C239.095 155.72 239.204 156.047 239.422 156.264C240.183 157.407 242.142 158.006 243.883 157.19C244.753 156.754 245.079 155.883 245.46 155.012Z" fill="url(#paint7_linear_3748_13736)"/>
</g>
<g opacity="0.2">
<path d="M272.171 175.097C270.92 175.26 269.995 176.675 268.907 178.145C268.145 179.288 267.221 180.975 266.35 182.444C265.589 183.751 264.99 184.894 264.664 185.329C264.555 185.438 264.446 185.547 264.228 185.656C263.086 186.363 260.366 186.908 258.244 186.799C256.993 186.744 256.068 186.853 255.307 186.907C254.491 187.016 253.892 187.071 253.348 186.853C252.913 186.69 252.859 186.363 252.804 185.928C252.75 185.438 252.641 184.785 251.879 184.513C251.226 184.295 250.519 184.404 249.812 184.458C249.105 184.567 248.452 184.622 248.071 184.349C247.69 184.077 247.527 183.751 247.418 183.37C247.255 182.934 247.092 182.499 246.494 182.063C245.95 181.737 245.242 182.172 244.372 182.771C243.121 183.642 241.38 184.839 239.258 184.295C236.919 183.751 237.028 183.043 237.191 182.063C237.245 181.574 237.354 181.029 237.136 180.485C236.81 179.56 234.743 178.634 232.621 177.764C230.989 177.056 229.248 176.348 228.813 175.75C228.269 175.042 228.16 174.389 228.051 173.845C227.943 173.246 227.834 172.702 227.29 172.321C226.637 171.831 225.767 172.103 225.005 172.321C224.515 172.43 224.08 172.593 223.808 172.484L223.59 172.919C223.917 173.137 224.461 172.974 225.114 172.811C225.821 172.647 226.583 172.375 227.018 172.756C227.453 173.028 227.507 173.464 227.616 174.062C227.725 174.661 227.834 175.369 228.432 176.131C228.976 176.838 230.663 177.546 232.512 178.308C234.416 179.07 236.538 179.941 236.81 180.757C236.973 181.247 236.919 181.682 236.864 182.172C236.701 183.206 236.592 184.295 239.258 184.948C241.597 185.492 243.447 184.24 244.807 183.315C245.514 182.825 246.113 182.444 246.385 182.608C246.874 182.88 246.983 183.261 247.146 183.642C247.255 184.077 247.418 184.458 247.962 184.839C248.561 185.275 249.322 185.111 250.03 185.003C250.682 184.894 251.335 184.839 251.879 185.003C252.423 185.166 252.478 185.601 252.532 186.037C252.587 186.526 252.641 187.016 253.348 187.343C254.001 187.615 254.708 187.506 255.524 187.397C256.286 187.288 257.156 187.18 258.408 187.289C259.768 187.397 261.4 187.234 262.814 186.853C261.182 187.833 258.625 189.139 256.177 189.302C254.055 189.466 253.348 189.085 252.206 188.54C251.172 187.996 249.866 187.343 246.983 186.853C242.794 186.145 238.986 187.996 236.919 189.139C236.484 189.03 233.764 188.214 232.948 186.037L232.512 184.894C231.751 182.825 231.152 181.029 230.608 180.05C229.955 178.798 227.834 177.818 226.528 177.6C225.767 177.491 225.277 177.818 224.896 178.199C224.461 178.471 224.135 178.798 223.536 178.798C222.992 178.743 222.557 177.981 221.904 177.11C221.088 175.804 220 174.28 218.259 173.627C216.137 172.865 215.213 173.627 214.397 174.28C213.961 174.607 213.635 174.933 213.091 175.042L213.2 175.478C213.798 175.314 214.233 174.933 214.669 174.661C215.485 174.008 216.246 173.355 218.096 174.062C219.674 174.661 220.707 176.185 221.523 177.383C222.23 178.417 222.774 179.233 223.482 179.288C224.298 179.342 224.787 179.015 225.168 178.634C225.603 178.362 225.875 178.036 226.474 178.145C227.834 178.362 229.738 179.396 230.173 180.322C230.663 181.247 231.316 183.152 232.023 185.111L232.458 186.254C233.165 188.268 235.396 189.194 236.32 189.52C235.722 189.956 235.396 190.173 235.341 190.228C235.287 190.282 231.479 194.473 228.541 196.324C225.603 198.229 223.155 198.174 222.285 197.14C221.795 196.596 221.741 195.562 221.686 194.255C221.632 193.058 221.578 191.806 221.142 190.663C220.49 188.921 217.987 187.615 217.171 187.289C216.029 186.799 214.56 186.309 213.798 186.581C212.493 187.071 212.112 188.976 212.057 189.139L212.547 189.194C212.547 189.194 212.873 187.343 214.016 187.016C214.451 186.908 215.539 187.071 217.008 187.724C218.477 188.431 220.272 189.629 220.707 190.826C221.142 191.861 221.197 193.167 221.197 194.31C221.251 195.616 221.306 196.759 221.85 197.412C222.774 198.555 225.386 198.773 228.704 196.65C231.588 194.8 235.287 190.772 235.559 190.5C235.831 190.282 240.999 186.309 246.711 187.234C249.54 187.724 250.846 188.377 251.825 188.867C252.043 188.976 252.315 189.085 252.532 189.194C251.118 189.738 250.302 189.683 249.649 189.629C248.724 189.574 248.18 189.629 247.364 190.935C246.33 192.622 246.113 195.943 246.004 198.12C245.95 198.991 245.895 199.753 245.841 200.134C245.569 201.494 244.916 202.202 243.665 202.528C242.685 202.801 242.359 202.583 241.815 202.202C241.706 202.093 241.543 201.984 241.325 201.875C241.108 201.712 240.89 201.331 240.673 201.004C240.183 200.188 239.53 199.045 237.898 199.154C236.484 199.208 235.994 200.134 235.504 201.113C235.178 201.766 234.797 202.42 234.144 202.855C232.512 204.107 227.725 205.576 225.114 205.794C222.23 206.066 216.79 205.576 216.464 205.087C216.409 204.923 216.736 204.161 217.062 203.563C217.606 202.42 218.259 201.004 217.987 200.079C217.933 199.916 217.933 199.807 217.878 199.589C217.606 198.337 217.443 198.229 216.246 198.283C215.376 198.337 215.267 198.991 215.213 199.589C215.158 199.916 215.104 200.351 214.777 200.515C214.179 201.004 211.949 200.787 211.133 200.732L211.078 201.168C211.35 201.222 214.179 201.494 215.104 200.896C215.539 200.623 215.593 200.079 215.648 199.644C215.757 199.045 215.811 198.773 216.301 198.773C216.79 198.718 217.008 198.718 217.117 198.827C217.226 198.936 217.28 199.263 217.389 199.698C217.443 199.807 217.443 199.97 217.498 200.188C217.715 201.004 217.062 202.311 216.573 203.345C216.083 204.27 215.865 204.869 215.974 205.25C216.301 206.175 222.883 206.502 225.114 206.23C227.834 205.957 232.621 204.542 234.362 203.182C235.069 202.637 235.504 201.875 235.831 201.222C236.32 200.351 236.701 199.589 237.844 199.535C239.204 199.48 239.748 200.297 240.183 201.168C240.401 201.603 240.673 201.984 240.945 202.147C241.108 202.256 241.217 202.365 241.434 202.474C241.978 202.964 242.413 203.29 243.665 202.964C245.025 202.528 245.786 201.712 246.113 200.188C246.167 199.916 246.222 199.48 246.222 198.882C246.439 199.208 246.439 199.589 246.439 200.025C246.439 200.46 246.385 200.896 246.711 201.385C247.255 202.147 248.126 201.658 248.778 201.331C249.05 201.168 249.377 201.059 249.54 201.059C249.649 201.059 249.758 201.113 249.866 201.222C250.03 201.44 250.084 201.93 250.03 202.583C249.921 203.29 248.833 204.27 248.18 204.869C247.962 205.087 247.69 205.304 247.636 205.413C247.418 205.631 247.473 206.012 247.473 206.284C247.527 206.611 247.527 207.046 247.255 207.427C247.146 207.645 246.929 207.754 246.602 207.754C246.058 207.808 245.46 207.59 245.297 207.481C245.242 207.427 245.242 207.209 245.242 206.992C245.242 206.719 245.242 206.338 245.025 206.066C244.589 205.576 243.991 205.413 242.957 205.468C242.359 205.522 242.359 206.012 242.359 206.393C242.359 206.883 242.305 207.373 241.652 207.645C241.162 207.808 240.727 207.59 240.129 207.209C239.258 206.665 238.116 206.012 236.484 206.937C234.525 207.971 234.743 209.169 234.906 209.985C234.96 210.257 235.015 210.584 234.96 210.747C234.906 210.91 234.797 211.019 234.743 211.019C234.58 211.074 234.416 210.965 234.308 210.91L234.036 211.237C234.09 211.291 234.471 211.509 234.852 211.4C235.069 211.346 235.287 211.128 235.45 210.802C235.559 210.529 235.504 210.148 235.45 209.822C235.287 209.005 235.178 208.135 236.81 207.209C238.225 206.447 239.149 206.992 240.074 207.481C240.727 207.808 241.325 208.189 242.033 207.971C242.957 207.645 242.957 206.828 243.012 206.338C243.012 205.849 243.066 205.794 243.175 205.794C243.991 205.74 244.59 205.849 244.862 206.23C244.97 206.393 244.97 206.665 244.97 206.883C244.97 207.155 244.97 207.481 245.188 207.699C245.406 207.917 246.113 208.243 246.82 208.135C247.255 208.08 247.582 207.917 247.799 207.59C248.126 207.046 248.126 206.556 248.071 206.175C248.071 205.903 248.017 205.685 248.126 205.576C248.18 205.468 248.398 205.304 248.67 205.087C249.377 204.433 250.574 203.399 250.682 202.528C250.682 202.528 250.682 202.528 250.682 202.474C250.791 201.712 250.682 201.113 250.41 200.787C250.247 200.623 249.975 200.515 249.703 200.46C249.431 200.46 249.105 200.623 248.724 200.787C248.017 201.113 247.527 201.385 247.255 200.95C247.038 200.678 247.038 200.297 247.038 199.916C247.038 199.372 247.092 198.718 246.385 198.229C246.385 198.174 246.385 198.12 246.385 198.065C246.494 195.943 246.711 192.677 247.69 191.099C248.398 189.956 248.724 189.956 249.594 190.064C250.356 190.119 251.335 190.173 253.131 189.411C253.838 189.629 254.654 189.738 256.014 189.629C260.148 189.357 264.337 186.146 264.609 185.928C264.772 185.819 264.936 185.656 265.099 185.492C265.425 185.002 266.078 183.86 266.84 182.553C267.656 181.084 268.581 179.396 269.397 178.253C270.321 176.947 271.301 175.532 272.334 175.423C272.824 175.369 273.314 175.478 273.858 175.913C275.925 177.437 283.269 179.451 283.541 179.505L283.595 179.07C283.106 179.015 276.088 177.002 274.13 175.586C273.422 175.151 272.824 174.988 272.171 175.097Z" fill="url(#paint8_linear_3748_13736)"/>
<path d="M274.13 178.253C271.9 178.906 269.452 182.063 268.853 183.206C267.439 185.492 267.167 190.772 267.656 193.167C267.874 194.31 268.255 195.072 268.581 195.779C268.908 196.541 269.288 197.194 269.288 198.065C269.288 199.916 269.506 200.896 270.159 201.766C270.268 201.93 270.431 201.984 270.594 201.984C270.92 201.984 271.301 201.712 271.628 201.277C271.9 201.004 272.281 200.569 272.498 200.623C272.607 200.623 272.661 200.732 272.716 200.841C273.369 202.039 272.498 202.964 272.444 203.018L272.716 203.29C272.716 203.29 273.913 202.093 273.151 200.569C272.988 200.297 272.825 200.134 272.553 200.079C272.063 200.025 271.682 200.406 271.301 200.896C271.084 201.113 270.757 201.494 270.594 201.494L270.54 201.44C269.941 200.678 269.724 199.753 269.724 198.011C269.724 197.031 269.397 196.324 268.962 195.453C268.636 194.8 268.255 194.038 268.037 193.003C267.548 190.717 267.82 185.492 269.18 183.315C269.996 182.009 272.226 179.124 274.185 178.58C274.729 178.417 275.708 178.689 276.415 179.07C280.55 180.811 283.487 181.41 283.487 181.41L283.596 180.975C283.596 180.975 280.658 180.376 276.578 178.634C276.143 178.471 274.892 177.981 274.13 178.253Z" fill="url(#paint9_linear_3748_13736)"/>
<path d="M273.75 177.219C272.934 177.328 272.063 178.144 271.683 178.471C271.628 178.525 271.628 178.525 271.574 178.525C269.615 180.158 267.766 182.608 267.167 184.186C267.004 184.621 266.895 185.166 266.732 185.819C265.481 188.431 265.046 190.881 264.556 193.33C264.338 194.636 264.012 195.997 263.686 197.358C262.652 200.95 256.613 206.992 256.396 207.264C256.178 207.427 250.956 211.564 249.215 211.945C248.453 212.108 244.536 212.924 243.503 213.414C242.578 213.85 240.837 218.966 240.511 220V220.054C240.402 222.504 240.184 226.259 239.912 226.586C239.64 227.021 238.226 227.457 237.627 227.348C237.41 227.348 237.192 227.076 237.029 226.749C236.757 226.259 236.322 225.769 235.614 225.606C235.07 225.552 233.493 225.878 230.936 226.531C228.542 227.13 225.278 227.947 224.68 227.729C224.136 227.566 224.081 227.185 223.972 226.912C223.918 226.64 223.809 226.205 223.265 226.096C223.102 226.042 222.993 226.15 222.83 226.205C222.558 226.423 222.612 226.967 222.667 227.674C222.721 228.382 222.776 229.253 222.449 229.688L222.776 229.96C223.265 229.416 223.211 228.491 223.102 227.674C223.102 227.239 223.048 226.695 223.156 226.531C223.374 226.586 223.428 226.695 223.483 227.021C223.592 227.348 223.7 227.892 224.462 228.219C225.115 228.436 227.454 227.947 230.99 227.021C233.003 226.531 235.016 226.042 235.451 226.096C235.995 226.15 236.267 226.64 236.594 227.021C236.811 227.457 237.138 227.783 237.518 227.838C238.28 227.947 239.858 227.402 240.293 226.858C240.619 226.368 240.891 221.633 240.946 220.163C241.871 217.224 243.176 214.067 243.666 213.85C244.482 213.523 247.148 212.924 249.324 212.38C251.282 211.945 256.505 207.808 256.722 207.59C256.94 207.373 263.087 201.277 264.121 197.521C264.556 196.16 264.774 194.8 264.991 193.493C265.318 191.534 265.753 189.629 266.515 187.615C266.406 188.758 266.297 189.955 266.242 191.098C266.188 192.078 266.134 193.003 266.025 193.765C265.426 199.372 264.61 202.42 263.142 204.488C261.564 206.774 255.525 213.632 254.818 214.176C254.492 214.448 254.002 214.612 253.458 214.775C253.023 214.884 252.588 214.993 252.044 215.265C250.085 216.136 248.018 219.401 246.495 221.742C245.733 222.994 245.026 224.028 244.645 224.3C244.101 224.626 243.775 224.518 243.285 224.354C243.013 224.245 242.578 224.082 242.088 224.082V224.572C242.523 224.572 242.795 224.681 243.067 224.79C243.611 225.007 244.047 225.225 244.808 224.735C245.243 224.463 245.842 223.429 246.767 222.068C248.236 219.782 250.303 216.571 252.044 215.755C252.533 215.537 252.969 215.428 253.404 215.265C254.002 215.101 254.437 214.993 254.927 214.612C255.634 214.013 261.727 207.1 263.359 204.814C264.828 202.692 265.698 199.589 266.297 193.929C266.351 193.221 266.406 192.296 266.515 191.262C266.678 188.812 266.841 185.982 267.385 184.621C267.929 183.097 269.724 180.811 271.683 179.124C271.683 179.124 271.737 179.07 271.791 179.015C272.063 178.798 272.988 177.981 273.641 177.872C274.294 177.763 275.6 178.199 277.286 178.852C278.918 179.451 280.931 180.213 283.433 180.866L283.542 180.43C281.094 179.777 279.081 179.015 277.395 178.417C275.817 177.546 274.566 177.11 273.75 177.219Z" fill="url(#paint10_linear_3748_13736)"/>
<path d="M210.97 224.354C211.297 224.409 211.841 224.79 212.439 225.171C213.582 225.933 214.778 226.749 215.758 226.205C216.302 225.933 216.737 225.225 217.335 224.354C218.314 222.83 219.62 220.871 222.014 220.109C225.713 218.857 232.35 215.7 232.405 215.7H232.459C232.513 215.646 237.681 211.836 242.795 213.142L242.904 212.707C237.736 211.346 232.568 214.993 232.187 215.374C232.132 215.374 231.969 215.482 231.697 215.591C231.588 215.047 231.208 213.904 230.174 213.033C229.412 212.434 228.324 212.217 227.182 212.326C225.115 212.543 223.156 213.577 221.524 214.448C220.055 215.21 218.804 215.863 217.934 215.755C217.118 215.7 217.009 215.21 216.791 214.612C216.628 213.904 216.302 213.033 214.778 212.87C213.146 212.707 212.439 213.795 211.895 214.775C211.405 215.537 211.133 215.972 210.589 215.918C209.121 215.809 207.053 213.741 207.053 213.686L206.727 213.958C206.781 214.067 208.903 216.19 210.535 216.299C211.351 216.353 211.841 215.646 212.222 214.938C212.766 214.067 213.364 213.088 214.67 213.305C215.921 213.414 216.084 214.067 216.247 214.775C216.41 215.428 216.574 216.136 217.716 216.19C218.75 216.244 220.055 215.591 221.579 214.829C223.211 214.013 225.115 212.979 227.128 212.761C228.161 212.652 229.086 212.815 229.793 213.36C230.772 214.122 231.099 215.319 231.153 215.7C229.195 216.571 224.625 218.694 221.742 219.673C219.294 220.49 217.879 222.558 216.846 224.082C216.302 224.844 215.866 225.552 215.431 225.769C214.724 226.205 213.527 225.443 212.602 224.79C211.949 224.354 211.351 223.973 210.97 223.919C210.317 223.864 209.393 224.463 208.25 225.225C207.271 225.878 206.129 226.64 205.312 226.749L205.367 227.185C206.292 227.076 207.434 226.314 208.468 225.606C209.556 224.953 210.481 224.3 210.97 224.354Z" fill="url(#paint11_linear_3748_13736)"/>
<path d="M275.654 179.832C274.403 180.376 273.424 181.955 272.717 183.098C272.445 183.587 272.173 183.914 272.009 184.077C271.846 184.241 271.683 184.295 271.465 184.295C270.921 184.404 270.486 184.567 269.997 185.71C269.289 187.397 268.963 191.479 269.779 192.84C270.105 193.384 270.541 193.493 270.921 193.439C271.846 193.33 272.662 192.187 273.043 191.153C273.261 190.445 273.968 190.391 274.784 190.337C275.437 190.282 276.09 190.228 276.47 189.738C276.688 189.466 276.96 189.248 277.178 189.302C277.395 189.357 277.722 189.792 277.83 190.717C277.939 192.024 277.504 194.038 277.395 194.092L277.83 194.201C277.83 194.146 278.374 192.078 278.266 190.717C278.157 189.738 277.776 189.085 277.286 188.976C276.851 188.867 276.47 189.085 276.09 189.574C275.872 189.847 275.328 189.901 274.729 190.01C273.913 190.064 272.88 190.119 272.608 191.153C272.281 192.133 271.465 193.112 270.867 193.167C270.649 193.221 270.377 193.058 270.214 192.84C269.507 191.643 269.725 187.833 270.432 186.037C270.867 185.057 271.193 185.003 271.574 184.839C271.792 184.785 272.118 184.73 272.336 184.513C272.499 184.349 272.825 183.914 273.097 183.479C273.75 182.444 274.784 180.866 275.872 180.431C276.634 180.104 277.45 180.485 278.646 181.029C279.789 181.519 281.094 182.172 282.944 182.39L282.999 181.955C281.258 181.737 279.898 181.138 278.81 180.594C277.558 179.832 276.634 179.396 275.654 179.832Z" fill="url(#paint12_linear_3748_13736)"/>
</g>
<path d="M162.388 203.671C173.955 203.671 183.333 186.272 183.333 164.809C183.333 143.347 173.955 125.948 162.388 125.948C150.821 125.948 141.443 143.347 141.443 164.809C141.443 186.272 150.821 203.671 162.388 203.671Z" fill="#2A697F"/>
<path d="M154.284 182.172C158.941 182.172 162.716 174.545 162.716 165.136C162.716 155.727 158.941 148.1 154.284 148.1C149.627 148.1 145.852 155.727 145.852 165.136C145.852 174.545 149.627 182.172 154.284 182.172Z" fill="#293C4F"/>
<path d="M147.864 165.136C147.864 156.428 151.129 149.243 155.263 148.209C154.937 148.154 154.61 148.1 154.284 148.1C149.605 148.1 145.852 155.774 145.852 165.136C145.852 174.552 149.605 182.172 154.284 182.172C154.61 182.172 154.991 182.118 155.263 182.063C151.074 181.084 147.864 173.845 147.864 165.136Z" fill="#DBDBDB"/>
<path d="M157.058 148.209L155.426 148.644C151.346 149.624 148.299 156.7 148.299 165.191C148.299 173.627 151.346 180.757 155.426 181.737L157.058 182.172L155.426 182.608C155.1 182.717 154.664 182.717 154.283 182.717C151.89 182.717 149.605 180.866 147.973 177.491C146.341 174.171 145.416 169.871 145.416 165.245C145.416 160.673 146.286 156.264 147.973 152.999C149.605 149.624 151.835 147.773 154.283 147.773C154.61 147.773 154.991 147.828 155.426 147.882L157.058 148.209ZM146.286 165.136C146.286 173.79 149.442 180.92 153.522 181.682C149.986 179.396 147.429 172.702 147.429 165.136C147.429 157.462 149.877 150.876 153.522 148.59C149.442 149.406 146.286 156.536 146.286 165.136Z" fill="#323A50"/>
<path d="M141.607 164.755C141.607 186.2 150.747 203.617 162.062 203.617C173.378 203.617 182.517 186.2 182.517 164.755C182.517 143.31 173.378 125.893 162.062 125.893C150.747 125.893 141.607 143.201 141.607 164.755ZM154.446 148.046C154.501 148.046 154.555 147.991 154.555 147.991C154.609 147.991 154.664 147.991 154.718 147.991C158.962 148.699 162.334 155.992 162.334 164.973C162.334 173.681 159.179 180.866 155.099 181.9C154.99 181.9 154.881 181.955 154.827 181.955C154.773 181.955 154.718 181.955 154.664 181.955C154.609 181.955 154.446 181.955 154.392 181.955C154.283 181.955 154.501 181.955 153.902 181.955C153.902 181.955 153.793 181.955 153.63 181.955C153.032 181.9 152.597 181.737 152.053 181.41C151.509 181.138 151.073 180.757 150.584 180.267V180.213C147.809 177.437 145.905 171.613 145.905 164.81C145.905 155.393 149.604 147.719 154.174 147.719V147.882C154.229 148.1 154.337 148.046 154.446 148.046Z" fill="#DBDBDB"/>
<path d="M182.898 164.755C182.898 175.205 180.777 185.057 176.914 192.459C172.889 199.862 167.666 203.998 162.063 203.998C156.459 203.998 151.182 199.862 147.265 192.405C143.403 185.003 141.281 175.205 141.281 164.701C141.281 154.25 143.403 144.399 147.265 136.997C151.237 129.485 156.459 125.403 162.063 125.403C167.666 125.403 172.943 129.54 176.86 136.997C180.722 144.453 182.898 154.25 182.898 164.755ZM142.043 164.755C142.043 185.982 151.019 203.236 162.063 203.236C173.106 203.236 182.082 185.982 182.082 164.755C182.082 143.528 173.106 126.274 162.063 126.274C151.019 126.274 142.043 143.528 142.043 164.755ZM162.77 165.082C162.77 173.845 159.506 181.356 155.208 182.39C155.099 182.39 154.99 182.444 154.882 182.444C154.827 182.444 154.773 182.444 154.718 182.499C154.664 182.499 154.61 182.499 154.61 182.499H154.501C154.392 182.499 154.283 182.499 154.066 182.499H153.63C153.032 182.444 152.434 182.281 151.89 181.9C151.346 181.628 150.856 181.247 150.312 180.703L150.258 180.648C147.32 177.709 145.47 171.668 145.47 164.973C145.47 160.401 146.341 155.992 147.918 152.726C149.55 149.352 151.726 147.501 154.12 147.501H154.555V147.61C154.61 147.61 154.61 147.61 154.664 147.61C154.718 147.61 154.773 147.61 154.827 147.61C159.343 148.372 162.77 155.883 162.77 165.082ZM154.066 181.737C154.229 181.737 154.283 181.737 154.392 181.737H154.446C154.501 181.737 154.501 181.737 154.555 181.737C154.61 181.737 154.664 181.737 154.718 181.737C154.827 181.737 154.882 181.682 154.99 181.682C158.962 180.703 161.954 173.627 161.954 165.136C161.954 156.482 158.799 149.243 154.718 148.535H154.664C154.61 148.535 154.555 148.59 154.501 148.535C154.501 148.535 154.446 148.535 154.392 148.535C154.338 148.535 154.283 148.535 154.174 148.535H153.739V148.372C151.835 148.59 150.094 150.277 148.68 153.162C147.157 156.319 146.341 160.564 146.341 165.082C146.341 171.504 148.081 177.437 150.856 180.158L150.91 180.213C151.4 180.703 151.781 180.975 152.27 181.193C152.814 181.465 153.25 181.628 153.739 181.682C153.794 181.737 153.957 181.737 154.066 181.737Z" fill="#323A50"/>
<g opacity="0.3">
<path d="M295.02 163.721C295.02 163.775 295.02 163.83 295.02 163.83C295.02 177.491 291.267 191.044 284.14 203.073V203.127L283.542 203.726C274.837 218.748 261.291 230.015 244.318 236.383C237.79 238.941 230.772 240.465 222.884 241.118C219.184 241.282 215.757 241.282 212.058 241.118C208.467 240.955 204.768 240.411 200.416 239.485C196.064 238.56 191.657 237.145 186.979 235.077L187.305 234.315C191.875 236.329 196.281 237.744 200.579 238.669C204.877 239.594 208.522 240.084 212.112 240.247C215.757 240.411 219.184 240.411 222.829 240.247C230.609 239.594 237.572 238.07 244.046 235.567C260.856 229.253 274.293 218.041 282.889 203.182V203.127L283.487 202.528C297.795 178.308 297.849 149.243 283.65 124.859C282.834 123.662 282.018 122.464 281.257 120.995C272.988 108.095 261.183 98.4067 246.059 92.2563C245.352 91.9842 244.59 91.712 243.828 91.4399C243.067 91.2222 242.305 90.8956 241.598 90.6235C227.345 85.9426 212.765 85.3983 198.349 89.045H198.294C197.696 89.1539 190.352 91.6032 186.924 93.0727L186.652 92.3107C189.753 90.95 197.206 88.5007 198.185 88.283C212.819 84.6363 227.508 85.1806 241.924 89.9159H241.979C242.686 90.188 243.448 90.4602 244.155 90.7323C244.916 90.95 245.678 91.2766 246.385 91.5487C261.563 97.808 273.532 107.551 281.91 120.614C282.726 122.029 283.542 123.281 284.303 124.424C291.267 136.616 295.02 150.168 295.02 163.721Z" fill="#323A50"/>
</g>
<path d="M153.25 87.0312C147.973 90.7868 145.579 96.8828 146.177 105.047C146.504 109.782 147.755 113.81 148.354 115.497C148.136 115.606 147.918 115.769 147.809 116.042C147.265 114.572 145.797 110.218 145.47 105.101C144.872 96.7739 147.429 90.3514 152.76 86.5414C153.413 85.8882 172.78 67.1104 185.836 61.1233C189.263 59.5448 189.1 56.388 188.719 50.6186C188.447 45.8288 188.012 39.3519 189.481 30.5889L190.134 30.6977C188.665 39.4063 189.1 45.8833 189.372 50.6186C189.699 56.4424 189.971 59.9803 186.054 61.7764C175.391 66.6205 160.485 80.1732 155.099 85.1807C159.669 83.4389 167.285 84.4731 177.676 88.3375C187.631 92.0386 200.144 98.2979 214.995 106.898C220.49 110.054 225.821 113.375 230.881 116.586V117.348C225.821 114.082 220.218 110.762 214.615 107.442C181.538 88.0654 160.322 81.0441 153.25 87.0312Z" fill="#323A50"/>
<path d="M153.522 111.742C153.087 111.96 151.128 113.266 150.802 113.484C150.584 113.484 151.618 112.177 151.455 112.286C151.019 112.395 150.639 112.885 150.53 113.32C150.04 113.429 149.823 113.484 149.714 114.028C149.496 114.028 149.659 114.572 149.496 114.627C150.53 113.375 151.944 111.851 153.304 111.089C159.615 107.551 178.927 112.395 210.861 125.403C217.879 128.288 224.897 131.227 230.99 134.003V134.765C203.68 122.791 163.151 106.571 153.522 111.742Z" fill="#323A50"/>
<path d="M147.81 116.042C147.864 115.933 147.973 115.769 148.027 115.606L146.504 111.633C146.994 113.538 147.483 115.062 147.81 116.042Z" fill="#323A50"/>
<path d="M149.388 114.245L145.525 104.122C145.525 104.557 145.58 104.993 145.58 105.428L149.061 114.518C149.17 114.463 149.279 114.354 149.388 114.245Z" fill="#323A50"/>
<path d="M150.855 113.32L145.687 99.8219C145.633 100.094 145.633 100.421 145.633 100.693L150.583 113.538C150.638 113.538 150.692 113.483 150.692 113.483C150.747 113.483 150.801 113.429 150.855 113.32Z" fill="#323A50"/>
<path d="M152.216 112.123L146.286 96.6106C146.232 96.8283 146.177 97.1005 146.123 97.3182L151.944 112.34C151.998 112.34 152.107 112.232 152.216 112.123Z" fill="#323A50"/>
<path d="M153.685 111.47L147.048 94.2701C146.993 94.4334 146.884 94.5967 146.83 94.8689L153.304 111.633C153.413 111.633 153.521 111.524 153.685 111.47Z" fill="#323A50"/>
<path d="M155.262 110.925L148.081 92.2563C148.026 92.4196 147.918 92.5285 147.863 92.7462L154.935 111.089C154.99 110.98 155.153 110.925 155.262 110.925Z" fill="#323A50"/>
<path d="M156.621 110.653C156.73 110.653 156.839 110.653 156.948 110.653L149.168 90.4058C149.06 90.5146 149.005 90.6235 148.896 90.8412L156.567 110.708C156.567 110.653 156.621 110.653 156.621 110.653Z" fill="#323A50"/>
<path d="M158.581 110.599C158.635 110.599 158.744 110.599 158.798 110.599L150.42 88.9362C150.312 89.045 150.257 89.1539 150.148 89.2627L158.417 110.599C158.472 110.599 158.526 110.599 158.581 110.599Z" fill="#323A50"/>
<path d="M160.214 110.708L151.455 87.9565C151.564 87.8476 151.673 87.7932 151.781 87.6843L160.703 110.762C160.54 110.708 160.431 110.708 160.214 110.708Z" fill="#323A50"/>
<path d="M162.117 110.817L152.869 86.8135C152.924 86.7591 153.032 86.7047 153.196 86.5958L162.553 110.871C162.444 110.925 162.281 110.817 162.117 110.817Z" fill="#323A50"/>
<path d="M164.076 111.089L154.393 85.997C154.501 85.9426 154.61 85.8882 154.719 85.8337L164.511 111.197C164.348 111.143 164.185 111.089 164.076 111.089Z" fill="#323A50"/>
<path d="M165.98 111.361L155.916 85.2351C156.025 85.1807 156.134 85.1806 156.351 85.1262L166.47 111.415C166.307 111.415 166.144 111.361 165.98 111.361Z" fill="#323A50"/>
<path d="M167.828 111.742L157.492 84.9084C157.601 84.9084 157.764 84.854 157.927 84.854L168.373 111.851C168.1 111.796 167.937 111.742 167.828 111.742Z" fill="#323A50"/>
<path d="M169.843 112.123L159.234 84.6364C159.343 84.6364 159.506 84.6364 159.67 84.6364L170.278 112.232C170.115 112.177 169.951 112.123 169.843 112.123Z" fill="#323A50"/>
<path d="M171.801 112.558L161.029 84.6364C161.138 84.6364 161.301 84.6364 161.465 84.6364L172.236 112.721C172.127 112.667 171.964 112.613 171.801 112.558Z" fill="#323A50"/>
<path d="M173.869 113.102L162.988 84.7452C163.151 84.7452 163.26 84.7997 163.478 84.7997L174.358 113.211C174.195 113.211 174.032 113.157 173.869 113.102Z" fill="#323A50"/>
<path d="M175.772 113.592L164.729 84.9629C164.892 84.9629 165.001 85.0173 165.218 85.0173L176.316 113.756C176.098 113.647 175.881 113.647 175.772 113.592Z" fill="#323A50"/>
<path d="M177.84 114.191L166.688 85.2894C166.851 85.3439 166.96 85.3439 167.177 85.3983L178.329 114.3C178.166 114.245 178.003 114.191 177.84 114.191Z" fill="#323A50"/>
<path d="M179.851 114.79L168.645 85.7249C168.808 85.7793 168.917 85.7793 169.134 85.8337L180.341 114.899C180.232 114.844 180.014 114.844 179.851 114.79Z" fill="#323A50"/>
<path d="M181.974 115.443L170.713 86.2692C170.876 86.3236 171.039 86.378 171.203 86.378L182.464 115.552C182.246 115.497 182.137 115.443 181.974 115.443Z" fill="#323A50"/>
<path d="M183.878 116.042L172.617 86.8135C172.78 86.8679 172.944 86.9223 173.107 86.9768L184.368 116.205C184.205 116.15 184.042 116.096 183.878 116.042Z" fill="#323A50"/>
<path d="M185.999 116.695L174.738 87.4667C174.901 87.5211 175.065 87.5755 175.228 87.63L186.489 116.858C186.326 116.804 186.163 116.749 185.999 116.695Z" fill="#323A50"/>
<path d="M188.066 117.402L176.805 88.1198C176.968 88.1742 177.131 88.2286 177.349 88.283L188.61 117.511C188.392 117.511 188.229 117.457 188.066 117.402Z" fill="#323A50"/>
<path d="M190.244 118.164L178.982 88.9906C179.146 89.045 179.309 89.0995 179.526 89.1539L190.788 118.273C190.516 118.273 190.352 118.219 190.244 118.164Z" fill="#323A50"/>
<path d="M192.31 118.872L181.104 89.807C181.267 89.8614 181.43 89.9159 181.648 89.9703L192.854 119.035C192.637 118.981 192.473 118.926 192.31 118.872Z" fill="#323A50"/>
<path d="M194.432 119.634L183.279 90.6779C183.443 90.7323 183.606 90.7867 183.823 90.8956L194.976 119.797C194.758 119.743 194.595 119.688 194.432 119.634Z" fill="#323A50"/>
<path d="M196.553 120.396L185.455 91.6031C185.618 91.6576 185.781 91.7664 185.999 91.8209L197.097 120.614C196.879 120.505 196.716 120.45 196.553 120.396Z" fill="#323A50"/>
<path d="M198.565 121.158L187.576 92.5284C187.739 92.5829 187.903 92.6917 188.12 92.7462L199.164 121.321C198.892 121.267 198.729 121.212 198.565 121.158Z" fill="#323A50"/>
<path d="M200.525 121.865L189.59 93.4537C189.753 93.5082 189.916 93.617 190.134 93.6715L201.069 122.029C200.905 122.029 200.688 121.92 200.525 121.865Z" fill="#323A50"/>
<path d="M202.701 122.682L191.82 94.4879C191.984 94.5423 192.147 94.6512 192.364 94.7056L203.19 122.845C203.081 122.845 202.918 122.736 202.701 122.682Z" fill="#323A50"/>
<path d="M204.822 123.498L194.051 95.5764C194.214 95.6308 194.377 95.7397 194.595 95.7941L205.366 123.662C205.203 123.716 205.04 123.553 204.822 123.498Z" fill="#323A50"/>
<path d="M206.999 124.424L196.336 96.7195C196.499 96.8283 196.662 96.8828 196.88 96.9916L207.543 124.587C207.379 124.532 207.216 124.478 206.999 124.424Z" fill="#323A50"/>
<path d="M209.011 125.186L198.457 97.7537C198.62 97.8625 198.783 97.9169 199.001 98.0258L209.555 125.403C209.392 125.349 209.174 125.294 209.011 125.186Z" fill="#323A50"/>
<path d="M211.023 126.002L200.578 98.8966C200.741 99.0055 200.905 99.0599 201.122 99.1687L211.567 126.165C211.404 126.111 211.186 126.056 211.023 126.002Z" fill="#323A50"/>
<path d="M213.2 126.873L202.863 100.04C203.026 100.148 203.19 100.203 203.407 100.312L213.744 127.036C213.58 126.982 213.363 126.927 213.2 126.873Z" fill="#323A50"/>
<path d="M215.376 127.744L205.203 101.292C205.366 101.4 205.53 101.455 205.747 101.564L215.92 127.961C215.703 127.907 215.485 127.798 215.376 127.744Z" fill="#323A50"/>
<path d="M217.553 128.669L207.488 102.543C207.651 102.652 207.815 102.707 208.032 102.815L218.042 128.832C217.933 128.832 217.77 128.778 217.553 128.669Z" fill="#323A50"/>
<path d="M219.729 129.594L209.828 103.904C209.991 104.013 210.155 104.122 210.372 104.176L220.273 129.812C220.11 129.703 219.947 129.649 219.729 129.594Z" fill="#323A50"/>
<path d="M221.796 130.411L212.004 105.047C212.167 105.156 212.33 105.265 212.548 105.319L222.286 130.628C222.123 130.574 222.014 130.52 221.796 130.411Z" fill="#323A50"/>
<path d="M223.971 131.336L214.342 106.353C214.505 106.462 214.668 106.571 214.886 106.625L224.515 131.554C224.352 131.554 224.188 131.499 223.971 131.336Z" fill="#323A50"/>
<path d="M226.148 132.316L216.682 107.714C216.845 107.823 217.008 107.932 217.28 107.986L226.692 132.479C226.528 132.479 226.365 132.37 226.148 132.316Z" fill="#323A50"/>
<path d="M228.379 133.241L219.076 109.129C219.239 109.238 219.403 109.347 219.675 109.456L228.923 133.513C228.705 133.404 228.542 133.35 228.379 133.241Z" fill="#323A50"/>
<path d="M230.391 134.112L221.252 110.327C221.415 110.435 221.578 110.544 221.85 110.653L230.99 134.275C230.772 134.33 230.609 134.275 230.391 134.112Z" fill="#323A50"/>
<path d="M231.696 133.187L223.373 111.687C223.536 111.796 223.699 111.905 223.971 112.014L231.696 132.044C231.751 132.479 231.751 132.86 231.696 133.187Z" fill="#323A50"/>
<path d="M231.696 128.397L225.82 113.102C225.984 113.211 226.147 113.32 226.419 113.429L231.696 127.145C231.696 127.635 231.696 128.016 231.696 128.397Z" fill="#323A50"/>
<path d="M231.642 123.498L228.215 114.572C228.378 114.681 228.541 114.79 228.813 114.899L231.642 122.246C231.642 122.736 231.642 123.117 231.642 123.498Z" fill="#323A50"/>
<path d="M231.587 118.6L230.662 116.042C230.825 116.15 231.097 116.259 231.261 116.368L231.696 117.402C231.641 117.892 231.587 118.273 231.587 118.6Z" fill="#323A50"/>
<path d="M153.25 239.812C147.973 236.056 145.579 229.96 146.177 221.796C146.504 217.061 147.755 213.033 148.354 211.346C148.136 211.237 147.918 211.074 147.809 210.802C147.265 212.271 145.797 216.625 145.47 221.742C144.872 230.069 147.429 236.492 152.76 240.302C153.413 240.955 172.78 259.733 185.836 265.72C189.263 267.298 189.1 270.455 188.719 276.225C188.447 281.014 188.012 287.491 189.481 296.254L190.134 296.145C188.665 287.437 189.1 280.96 189.372 276.225C189.699 270.401 189.971 266.863 186.054 265.067C175.391 260.223 160.485 246.67 155.099 241.662C159.669 243.404 167.285 242.37 177.676 238.506C187.631 234.805 200.144 228.545 214.995 219.946C220.49 216.789 225.821 213.469 230.881 210.257V209.495C225.821 212.761 220.218 216.081 214.615 219.401C181.538 238.723 160.322 245.799 153.25 239.812Z" fill="#323A50"/>
<path d="M153.522 215.101C153.087 214.884 151.128 213.577 150.802 213.36C150.584 213.36 151.618 214.666 151.455 214.557C151.019 214.448 150.639 213.958 150.53 213.523C150.04 213.414 149.823 213.36 149.714 212.815C149.496 212.815 149.659 212.271 149.496 212.217C150.53 213.469 151.944 214.993 153.304 215.755C159.615 219.292 178.927 214.448 210.861 201.44C217.879 198.555 224.897 195.616 230.99 192.84V192.078C203.68 204.052 163.151 220.218 153.522 215.101Z" fill="#323A50"/>
<path d="M147.81 210.856C147.864 210.965 147.973 211.128 148.027 211.291L146.504 215.265C146.994 213.251 147.483 211.727 147.81 210.856Z" fill="#323A50"/>
<path d="M149.388 212.543L145.525 222.667C145.525 222.232 145.58 221.796 145.58 221.361L149.061 212.271C149.17 212.38 149.279 212.489 149.388 212.543Z" fill="#323A50"/>
<path d="M150.855 213.469L145.687 226.967C145.633 226.695 145.633 226.368 145.633 226.096L150.583 213.251C150.638 213.251 150.692 213.305 150.692 213.305C150.747 213.305 150.801 213.414 150.855 213.469Z" fill="#323A50"/>
<path d="M152.216 214.666L146.286 230.178C146.232 229.96 146.177 229.688 146.123 229.471L151.944 214.448C151.998 214.503 152.107 214.612 152.216 214.666Z" fill="#323A50"/>
<path d="M153.685 215.319L147.048 232.518C146.993 232.355 146.884 232.192 146.83 231.92L153.304 215.156C153.413 215.265 153.521 215.319 153.685 215.319Z" fill="#323A50"/>
<path d="M155.262 215.972L148.081 234.641C148.026 234.478 147.918 234.369 147.863 234.151L154.935 215.809C154.99 215.918 155.153 215.918 155.262 215.972Z" fill="#323A50"/>
<path d="M156.621 216.135C156.73 216.135 156.839 216.135 156.948 216.135L149.168 236.437C149.06 236.328 149.005 236.22 148.896 236.002L156.567 216.135H156.621Z" fill="#323A50"/>
<path d="M158.581 216.244C158.635 216.244 158.744 216.244 158.798 216.244L150.42 237.907C150.312 237.798 150.257 237.689 150.148 237.58L158.417 216.244C158.472 216.244 158.526 216.244 158.581 216.244Z" fill="#323A50"/>
<path d="M160.214 216.081L151.455 238.832C151.564 238.941 151.673 238.995 151.781 239.104L160.703 216.027C160.54 216.081 160.431 216.081 160.214 216.081Z" fill="#323A50"/>
<path d="M162.117 215.972L152.869 239.975C152.924 240.03 153.032 240.084 153.196 240.193L162.553 215.918C162.444 215.972 162.281 215.972 162.117 215.972Z" fill="#323A50"/>
<path d="M164.076 215.809L154.393 240.9C154.501 240.955 154.61 241.009 154.719 241.064L164.511 215.7C164.348 215.755 164.185 215.755 164.076 215.809Z" fill="#323A50"/>
<path d="M165.98 215.428L155.916 241.554C156.025 241.608 156.134 241.608 156.351 241.662L166.47 215.374C166.307 215.374 166.144 215.428 165.98 215.428Z" fill="#323A50"/>
<path d="M167.828 215.156L157.492 241.989C157.601 241.989 157.764 242.044 157.927 242.044L168.373 215.047C168.1 215.101 167.937 215.101 167.828 215.156Z" fill="#323A50"/>
<path d="M169.843 214.72L159.234 242.207C159.343 242.207 159.506 242.207 159.67 242.207L170.278 214.612C170.115 214.612 169.951 214.666 169.843 214.72Z" fill="#323A50"/>
<path d="M171.801 214.231L160.975 242.207C161.083 242.207 161.247 242.207 161.41 242.207L172.181 214.122C172.127 214.176 171.964 214.176 171.801 214.231Z" fill="#323A50"/>
<path d="M173.869 213.741L162.988 242.098C163.151 242.098 163.26 242.044 163.478 242.044L174.413 213.632C174.195 213.686 174.032 213.741 173.869 213.741Z" fill="#323A50"/>
<path d="M175.772 213.251L164.729 241.88C164.892 241.88 165.001 241.826 165.218 241.826L176.316 213.088C176.098 213.142 175.881 213.196 175.772 213.251Z" fill="#323A50"/>
<path d="M177.84 212.652L166.688 241.554C166.851 241.499 166.96 241.499 167.177 241.445L178.329 212.543C178.166 212.543 178.003 212.598 177.84 212.652Z" fill="#323A50"/>
<path d="M179.851 212.053L168.645 241.118C168.808 241.064 168.917 241.064 169.134 241.009L180.341 211.945C180.232 211.945 180.014 211.999 179.851 212.053Z" fill="#323A50"/>
<path d="M181.974 211.4L170.713 240.574C170.876 240.519 171.039 240.465 171.203 240.465L182.464 211.291C182.246 211.291 182.137 211.346 181.974 211.4Z" fill="#323A50"/>
<path d="M183.878 210.856L172.617 240.084C172.78 240.03 172.944 239.975 173.107 239.921L184.368 210.693C184.205 210.693 184.042 210.801 183.878 210.856Z" fill="#323A50"/>
<path d="M185.999 210.148L174.738 239.377C174.901 239.322 175.065 239.268 175.228 239.213L186.489 209.985C186.326 209.985 186.163 210.094 185.999 210.148Z" fill="#323A50"/>
<path d="M188.066 209.441L176.805 238.669C176.968 238.615 177.131 238.56 177.349 238.506L188.61 209.278C188.392 209.278 188.229 209.386 188.066 209.441Z" fill="#323A50"/>
<path d="M190.244 208.733L178.982 237.907C179.146 237.852 179.309 237.798 179.526 237.744L190.788 208.624C190.516 208.57 190.352 208.679 190.244 208.733Z" fill="#323A50"/>
<path d="M192.31 207.971L181.104 237.036C181.267 236.982 181.43 236.927 181.648 236.873L192.854 207.808C192.637 207.808 192.473 207.862 192.31 207.971Z" fill="#323A50"/>
<path d="M194.432 207.155L183.279 236.111C183.443 236.056 183.606 236.002 183.823 235.893L194.976 206.992C194.758 207.046 194.595 207.1 194.432 207.155Z" fill="#323A50"/>
<path d="M196.553 206.393L185.455 235.24C185.618 235.185 185.781 235.077 185.999 235.022L197.097 206.229C196.879 206.284 196.716 206.338 196.553 206.393Z" fill="#323A50"/>
<path d="M198.567 205.685L187.523 234.315C187.687 234.26 187.85 234.151 188.067 234.097L199.111 205.522C198.893 205.576 198.73 205.631 198.567 205.685Z" fill="#323A50"/>
<path d="M200.525 204.923L189.59 233.335C189.753 233.281 189.916 233.172 190.134 233.117L201.069 204.76C200.905 204.814 200.688 204.869 200.525 204.923Z" fill="#323A50"/>
<path d="M202.701 204.107L191.82 232.301C191.984 232.246 192.147 232.137 192.364 232.083L203.19 203.943C203.081 203.998 202.918 204.052 202.701 204.107Z" fill="#323A50"/>
<path d="M204.822 203.29L194.051 231.212C194.214 231.158 194.377 231.049 194.595 230.994L205.366 203.127C205.203 203.182 205.04 203.236 204.822 203.29Z" fill="#323A50"/>
<path d="M206.999 202.474L196.336 230.178C196.499 230.069 196.662 230.015 196.88 229.906L207.543 202.311C207.379 202.311 207.216 202.42 206.999 202.474Z" fill="#323A50"/>
<path d="M209.011 201.658L198.457 229.089C198.62 228.981 198.783 228.926 199.001 228.817L209.555 201.44C209.392 201.494 209.174 201.603 209.011 201.658Z" fill="#323A50"/>
<path d="M211.023 200.787L200.578 227.892C200.741 227.783 200.905 227.729 201.122 227.62L211.567 200.569C211.404 200.678 211.186 200.732 211.023 200.787Z" fill="#323A50"/>
<path d="M213.2 199.916L202.863 226.749C203.026 226.64 203.19 226.586 203.407 226.477L213.744 199.753C213.58 199.807 213.363 199.861 213.2 199.916Z" fill="#323A50"/>
<path d="M215.376 199.099L205.203 225.552C205.366 225.443 205.53 225.388 205.747 225.28L215.92 198.882C215.703 198.936 215.485 198.991 215.376 199.099Z" fill="#323A50"/>
<path d="M217.553 198.174L207.488 224.3C207.651 224.191 207.815 224.137 208.032 224.028L218.042 198.011C217.933 198.065 217.77 198.12 217.553 198.174Z" fill="#323A50"/>
<path d="M219.729 197.194L209.828 222.885C209.991 222.776 210.155 222.667 210.372 222.613L220.273 196.977C220.11 197.086 219.947 197.14 219.729 197.194Z" fill="#323A50"/>
<path d="M221.796 196.378L212.004 221.742C212.167 221.633 212.33 221.524 212.548 221.47L222.286 196.16C222.123 196.269 222.014 196.324 221.796 196.378Z" fill="#323A50"/>
<path d="M223.971 195.453L214.396 220.435C214.56 220.327 214.723 220.218 214.941 220.163L224.57 195.289C224.352 195.344 224.189 195.398 223.971 195.453Z" fill="#323A50"/>
<path d="M226.148 194.527L216.682 219.129C216.845 219.02 217.008 218.911 217.28 218.857L226.692 194.364C226.528 194.364 226.365 194.419 226.148 194.527Z" fill="#323A50"/>
<path d="M228.379 193.548L219.076 217.659C219.239 217.551 219.403 217.442 219.675 217.333L228.923 193.276C228.705 193.439 228.542 193.493 228.379 193.548Z" fill="#323A50"/>
<path d="M230.391 192.677L221.252 216.462C221.415 216.353 221.578 216.244 221.85 216.136L230.99 192.514C230.772 192.514 230.609 192.622 230.391 192.677Z" fill="#323A50"/>
<path d="M231.696 193.602L223.373 215.101C223.536 214.993 223.699 214.884 223.971 214.775L231.696 194.745C231.751 194.364 231.751 193.983 231.696 193.602Z" fill="#323A50"/>
<path d="M231.696 198.392L225.82 213.686C225.984 213.577 226.147 213.469 226.419 213.36L231.696 199.644C231.696 199.208 231.696 198.827 231.696 198.392Z" fill="#323A50"/>
<path d="M231.642 203.29L228.215 212.217C228.378 212.108 228.541 211.999 228.813 211.89L231.642 204.542C231.642 204.107 231.642 203.726 231.642 203.29Z" fill="#323A50"/>
<path d="M231.587 208.189L230.662 210.747C230.825 210.638 231.097 210.529 231.261 210.421L231.696 209.386C231.641 208.951 231.587 208.57 231.587 208.189Z" fill="#323A50"/>
<path d="M112.721 165.027C112.721 170.524 108.26 174.988 102.765 174.988C97.3793 174.988 82.2557 165.735 81.6029 165.299L81.1133 165.027L81.6029 164.755C82.2557 164.32 97.4338 155.067 102.765 155.067C108.26 155.067 112.721 159.53 112.721 165.027ZM82.4189 165.027C85.139 166.66 98.0866 174.28 102.765 174.28C107.879 174.28 112.013 170.143 112.013 165.027C112.013 159.911 107.879 155.774 102.765 155.774C98.1954 155.774 85.1934 163.449 82.4189 165.027Z" fill="#323A50"/>
<path d="M99.7176 171.123L99.5544 171.831C95.6919 170.851 88.6741 167.095 88.3477 166.932L88.6741 166.279C88.7285 166.333 95.8551 170.143 99.7176 171.123Z" fill="#323A50"/>
<path d="M108.095 169.545C105.484 172.811 101.132 172.157 100.969 172.103L101.078 171.395C101.132 171.395 105.212 171.994 107.551 169.109L108.095 169.545Z" fill="#323A50"/>
<path d="M28.8874 162.142H14.1445V168.021H28.8874V173.083L41.0189 164.973V164.918L28.8874 156.319V162.142Z" fill="#FF4200"/>
<path d="M76.7597 150.821C76.7597 156.319 72.2987 160.782 66.8042 160.782C61.4184 160.782 46.2948 151.529 45.642 151.094L45.1523 150.821L45.642 150.549C46.2948 150.114 61.4728 140.861 66.8042 140.861C72.2987 140.861 76.7597 145.324 76.7597 150.821ZM46.5124 150.821C49.2325 152.454 62.18 160.074 66.8586 160.074C71.9723 160.074 76.1068 155.938 76.1068 150.821C76.1068 145.705 71.9723 141.569 66.8586 141.569C62.18 141.569 49.1781 149.189 46.5124 150.821Z" fill="#323A50"/>
<path d="M63.7039 156.808L63.5407 157.516C59.6782 156.536 52.6604 152.781 52.334 152.617L52.6604 151.964C52.7148 152.073 59.9502 155.883 63.7039 156.808Z" fill="#323A50"/>
<path d="M72.0817 155.339C69.4704 158.605 65.1183 157.952 64.9551 157.897L65.0639 157.19C65.1183 157.19 69.1984 157.788 71.5377 154.904L72.0817 155.339Z" fill="#323A50"/>
</g>
<defs>
<linearGradient id="paint0_linear_3748_13736" x1="225.98" y1="59.5426" x2="78.9076" y2="260.523" gradientUnits="userSpaceOnUse">
<stop offset="0.2655" stop-color="#032A3D" stop-opacity="0"/>
<stop offset="0.7809" stop-color="#032A3D"/>
</linearGradient>
<radialGradient id="paint1_radial_3748_13736" cx="0" cy="0" r="1" gradientUnits="userSpaceOnUse" gradientTransform="translate(218.136 164.274) rotate(-90) scale(68.0156 67.6741)">
<stop offset="0.2655" stop-color="#032A3D" stop-opacity="0"/>
<stop offset="1" stop-color="#032A3D"/>
</radialGradient>
<linearGradient id="paint2_linear_3748_13736" x1="110.8" y1="190.885" x2="306.839" y2="140.971" gradientUnits="userSpaceOnUse">
<stop offset="0.4054" stop-color="#032A3D" stop-opacity="0"/>
<stop offset="1" stop-color="#032A3D"/>
</linearGradient>
<linearGradient id="paint3_linear_3748_13736" x1="177.875" y1="227.011" x2="301.154" y2="95.659" gradientUnits="userSpaceOnUse">
<stop offset="0.2655" stop-color="#032A3D" stop-opacity="0"/>
<stop offset="0.7809" stop-color="#032A3D"/>
</linearGradient>
<linearGradient id="paint4_linear_3748_13736" x1="170.193" y1="219.801" x2="293.472" y2="88.4489" gradientUnits="userSpaceOnUse">
<stop offset="0.2655" stop-color="#032A3D" stop-opacity="0"/>
<stop offset="0.7809" stop-color="#032A3D"/>
</linearGradient>
<linearGradient id="paint5_linear_3748_13736" x1="172.946" y1="222.385" x2="296.226" y2="91.0337" gradientUnits="userSpaceOnUse">
<stop offset="0.2655" stop-color="#032A3D" stop-opacity="0"/>
<stop offset="0.7809" stop-color="#032A3D"/>
</linearGradient>
<linearGradient id="paint6_linear_3748_13736" x1="199.548" y1="247.353" x2="322.828" y2="116.001" gradientUnits="userSpaceOnUse">
<stop offset="0.2655" stop-color="#032A3D" stop-opacity="0"/>
<stop offset="0.7809" stop-color="#032A3D"/>
</linearGradient>
<linearGradient id="paint7_linear_3748_13736" x1="179.524" y1="228.559" x2="302.803" y2="97.2073" gradientUnits="userSpaceOnUse">
<stop offset="0.2655" stop-color="#032A3D" stop-opacity="0"/>
<stop offset="0.7809" stop-color="#032A3D"/>
</linearGradient>
<linearGradient id="paint8_linear_3748_13736" x1="190.535" y1="238.894" x2="313.814" y2="107.542" gradientUnits="userSpaceOnUse">
<stop offset="0.2655" stop-color="#032A3D" stop-opacity="0"/>
<stop offset="0.7809" stop-color="#032A3D"/>
</linearGradient>
<linearGradient id="paint9_linear_3748_13736" x1="210.378" y1="257.517" x2="333.658" y2="126.166" gradientUnits="userSpaceOnUse">
<stop offset="0.2655" stop-color="#032A3D" stop-opacity="0"/>
<stop offset="0.7809" stop-color="#032A3D"/>
</linearGradient>
<linearGradient id="paint10_linear_3748_13736" x1="207.101" y1="254.441" x2="330.38" y2="123.089" gradientUnits="userSpaceOnUse">
<stop offset="0.2655" stop-color="#032A3D" stop-opacity="0"/>
<stop offset="0.7809" stop-color="#032A3D"/>
</linearGradient>
<linearGradient id="paint11_linear_3748_13736" x1="196.111" y1="244.126" x2="319.39" y2="112.774" gradientUnits="userSpaceOnUse">
<stop offset="0.2655" stop-color="#032A3D" stop-opacity="0"/>
<stop offset="0.7809" stop-color="#032A3D"/>
</linearGradient>
<linearGradient id="paint12_linear_3748_13736" x1="210.424" y1="257.559" x2="333.703" y2="126.207" gradientUnits="userSpaceOnUse">
<stop offset="0.2655" stop-color="#032A3D" stop-opacity="0"/>
<stop offset="0.7809" stop-color="#032A3D"/>
</linearGradient>
<clipPath id="clip0_3748_13736">
<rect width="330" height="330" fill="white"/>
</clipPath>
</defs>
</svg>
