<svg width="303" height="185" viewBox="0 0 303 185" fill="none" xmlns="http://www.w3.org/2000/svg">
<path opacity="0.2" d="M175.6 16.5998C170.4 16.8998 161.3 18.8998 155.8 20.4998C152.5 21.4998 150 18.8998 149.1 18.2998C143.3 21.9998 140.7 22.6998 139.6 23.8998C138 25.4998 136.7 26.1998 135.2 27.8998L134.5 28.8998C134.3 29.0998 133.9 29.5998 133.8 29.7998C133.6 30.1998 133.1 30.4998 132.9 30.8998C132.8 31.0998 132.3 31.5998 132.3 31.7998C132.1 32.2998 131.6 32.1998 131.4 32.6998C130.7 34.5998 129.8 35.2998 128.7 36.8998C128.8 37.4998 127.7 38.7998 127.5 39.2998C127.2 40.4998 125.6 43.3998 125.2 44.5998C122.8 51.2999 121.8 61.6998 121.5 61.8998C121.1 62.4998 119.8 59.0998 122.2 48.9998C122.3 48.6998 121.7 46.6998 121.5 46.4998L120.3 46.3998C120 46.3998 119.2 49.3998 118.9 49.3998C118.8 49.3998 118.9 61.8998 118.9 61.8998C118.8 61.8998 116.7 62.7998 116.6 62.7998C115.5 62.9998 118.2 47.9998 117.1 48.2998C116.9 48.2998 117.3 44.5998 117.1 44.6998C117 44.6998 115.9 44.1998 115.8 44.2998C115.8 44.4998 115.3 45.1998 114.5 44.7998C114.3 46.0998 113.3 46.6998 112.2 47.2998C112.2 47.4998 111.9 47.5998 111.8 47.8998C111.5 48.7998 111.4 49.6998 110.9 50.4998C110.9 50.8998 110.5 51.2998 110.3 51.6998C110.2 51.8998 110.2 51.9998 110.1 52.1998C110 52.8998 109.9 53.4999 109.6 54.0998C109.6 54.0998 109.6 54.1998 109.6 54.2998C109.6 54.3998 109.8 54.5998 109.8 54.6998C109.9 56.0998 109.8 57.2999 109.3 58.5998C109.3 58.6998 109.2 58.7998 109.2 58.8998C109.2 59.3998 109.1 59.7998 108.9 60.2998C109.1 61.2998 109.1 62.1998 108.7 63.0998C108.7 63.3998 108.9 63.8998 108.8 64.1998C108.8 64.2998 108.7 64.7998 108.7 64.8998C108.7 65.7998 108.5 66.1998 108.5 67.0998C108.5 67.3998 108.5 67.5998 108.5 67.8998C108.5 68.2998 108.6 68.6998 108.7 69.0998C109 71.1998 109.2 73.2998 109.1 75.3998C109.1 75.6998 109.2 75.8998 109.3 76.1998C109.3 76.1998 109.7 76.9999 109.7 77.0998C110.1 77.3998 109.9 77.0998 110.2 77.4998C110.5 75.2998 111 73.0998 111.7 70.8998C112.5 68.4998 113.6 65.5998 115.6 63.8998C117 62.6998 118.6 62.2998 120.2 62.4998C122.4 62.1998 124.4 62.7998 125.1 64.8998L126.1 65.6998C126.2 65.7998 126.4 65.9998 126.5 66.1998C126.6 66.3998 127 66.4998 127.1 66.6998C127.7 67.3998 127.9 68.2998 128.5 68.9998C130.1 70.9998 130.8 72.0998 131.5 74.4998C131.6 74.7998 132 76.6998 132 76.9998C133 79.0998 132.9 80.8998 133.2 83.1998C133.4 84.4998 133.4 85.7999 133.4 87.0999C133.9 88.7999 134.4 90.5998 134.4 92.3998C134.4 94.2998 134.8 96.5998 134.6 98.4998C134.2 102.7 132.9 106.5 131.6 110.5C130.9 112.8 130.8 114.7 129.3 116.6C128.8 117.1 128.8 118.3 128.3 118.8C128.1 119.2 127.4 119.7 127.1 120.1C126.2 121.3 124.1 123.3 122.9 123.6C120.7 125.5 116.1 124.1 114.7 121.5C112.7 117.7 111.2 114.4 110.7 110.2C110.6 110.3 110.1 109.9 110 110C109 111.2 108.3 118.8 108.9 127.5C109 128.9 109.8 133.9 112.6 139C112.8 139.3 114.2 141.9 115.9 141.2C118.5 140.2 116 125 116.6 124C116.7 123.8 119.2 124 118.9 125.7C118 130.3 118.4 135 119.2 137.9C119.7 139.9 121.2 138.9 121.1 138.5C120.5 132.2 120.9 125.8 120.9 125.1C120.8 125.2 122.4 124.5 122.7 124.4C123.2 152.7 145 166.9 150.4 168.5C151.8 167.6 156.2 165.6 158.7 166.4C163.2 167.9 172.3 169.4 177.4 169.4C217.8 169.9 252.7 137.5 252.7 93.0999C252.7 62.5999 237.9 37.6999 212.3 24.0998C200.6 17.6998 186.9 15.9998 175.6 16.5998Z" fill="url(#paint0_radial_2536_1598)"/>
<path opacity="0.2" d="M101.4 42C101.4 42 73.7004 90.7 101.1 141.1C101.1 141.1 73.9004 126.8 70.6004 97.3C70.4004 92.6 71.1004 87.7 71.1004 87.7C73.7004 64.4 101.4 42 101.4 42Z" fill="url(#paint1_radial_2536_1598)"/>
<path d="M174.7 185C161.3 185 148.4 182.2 136.4 176.7C124.8 171.4 114.5 163.8 105.9 154.3C104.5 152.9 103.3 151.8 102.3 150.8C97.8003 146.4 97.4003 146 94.3003 143.3C93.9003 143 93.5002 142.6 93.1002 142.2C89.3002 138.9 82.3003 132.8 76.3003 124.5C69.0003 114.3 65.2002 103.6 65.2002 92.7V92.4C65.3002 81.5 69.0003 70.8 76.3003 60.6C82.3003 52.3 89.3002 46.2 93.1002 42.9C93.6002 42.5 94.0003 42.2 94.3003 41.8C96.6003 39.8 97.4002 39 99.5002 37C100.7 35.8 102.4 34.2 105 31.6C113.6 21.8 123.9 14 135.7 8.5C147.9 2.8 161 0 174.6 0C187.1 0 199.2 2.39999 210.6 7.29999C221.6 12 231.5 18.6 240 27.1C248.5 35.6 255.2 45.5 259.8 56.5C264.6 67.9 267.1 80 267.1 92.5C267.1 94.8 267.1 100.1 269.9 103C271.1 104.2 272.9 104.8 275 104.8H276.3C283.4 104.8 295.2 104.7 302.8 107.4L302.3 108.7C295 106.1 283.3 106.2 276.3 106.2H275C272.5 106.2 270.4 105.5 268.9 103.9C265.7 100.7 265.7 94.9 265.7 92.5C265.7 42.2 224.8 1.39999 174.6 1.39999C148.3 1.39999 123.3 12.7 106 32.5C103.4 35 101.7 36.7 100.5 37.9C98.4002 40 97.6003 40.8 95.3003 42.8C94.9003 43.1 94.5002 43.5 94.1002 43.9C86.7002 50.4 66.9002 67.5 66.7002 92.4V92.7C66.9002 117.6 86.7002 134.7 94.1002 141.2C94.6002 141.6 95.0003 141.9 95.3003 142.3C98.4003 145 98.8003 145.5 103.3 149.8C104.3 150.7 105.5 151.9 106.9 153.3C124.2 172.5 148.9 183.6 174.7 183.6C210.8 183.6 243.8 161.7 258.7 127.8C259 127.2 259.6 126.7 260.3 126.4C262 125.8 264.3 126.3 266.7 127.6C268.4 128.6 270.2 129.7 272.2 130.9C279.1 135.1 286.9 139.9 295.5 141.4L295.3 142.7C286.5 141.2 278.5 136.3 271.5 132C269.6 130.8 267.8 129.7 266.1 128.8C263.1 127.1 261.3 127.5 260.8 127.7C260.4 127.8 260.1 128.1 260 128.3C252.7 144.9 241.1 158.9 226.3 169C210.9 179.4 193.1 185 174.7 185Z" fill="#383F51"/>
<path d="M174.2 177.8C162.4 177.8 151.1 175.5 140.4 170.8C130.1 166.3 120.9 159.9 113.1 151.8L113.8 151.2C129.8 167.8 151.2 177 174.3 177C206.6 177 235.5 158.9 249.7 129.9C250 129.3 250.2 128.7 250.5 128.2C253 122.7 254.7 122.9 260.9 123.7L261.7 123.8L261.6 124.7L260.8 124.6C254.7 123.8 253.6 123.7 251.3 128.6C251 129.2 250.8 129.8 250.5 130.3C243.6 144.4 233 156.3 219.8 164.7C206.1 173.2 190.3 177.8 174.2 177.8Z" fill="#383F51"/>
<path d="M269.5 107.9C263 105.1 260.2 100.3 260.1 92.0996C259.5 46.2996 220.9 9.09961 174.1 9.09961C148.6 9.09961 127.4 21.0996 117 31.2996C116.7 31.5996 114.6 33.0996 111.2 35.5996C108.5 37.4996 105.5 39.7996 105.2 40.0996L104.6 39.3996C105 38.9996 107.3 37.2996 110.7 34.7996C113.2 32.9996 116.1 30.8996 116.4 30.5996C127 20.1996 148.4 8.09961 174.1 8.09961C185.6 8.09961 196.7 10.2996 207.3 14.5996C217.6 18.7996 226.8 24.7996 234.8 32.4996C251.4 48.2996 260.6 69.4996 260.9 91.9996C261 99.7996 263.7 104.3 269.8 107L269.5 107.9Z" fill="#383F51"/>
<path d="M178.9 170.2C177.1 170.2 175.2 170.1 173.3 170C168.2 169.6 163.1 168.6 158.3 167.2C157.8 167 156.6 167 155.5 167.1C154.2 167.2 152 168.1 150.5 169L149.8 167.9C151.2 167 153.6 165.9 155.4 165.8C156.4 165.7 157.9 165.7 158.7 165.9C163.5 167.3 168.4 168.3 173.5 168.7C213.5 171.8 248.7 140.2 251.9 98.1998C253.5 77.8998 247.4 58.1998 234.8 42.6998C222.2 27.2998 204.6 17.8998 185.3 16.3998C176.2 15.6998 167.2 16.6998 158.5 19.4998C156.6 20.0998 154.6 20.3998 153.6 20.2998C151.9 20.1998 149.9 19.1998 149 17.9998L150.1 17.1998C150.7 17.9998 152.3 18.8998 153.7 18.9998C154.6 18.9998 156.5 18.7998 158.2 18.1998C167 15.3998 176.2 14.2998 185.5 14.9998C205.2 16.4998 223.1 25.9998 236 41.7998C248.8 57.4998 255 77.5998 253.3 98.1998C251.7 118.9 242.5 137.7 227.4 151.3C213.7 163.6 196.7 170.2 178.9 170.2Z" fill="#383F51"/>
<path d="M301.3 111.8C294.7 109.1 286.7 109 280.3 109C275 108.9 270.8 108.9 268.6 107.5L269.1 106.7C271.1 107.9 275.4 108 280.3 108C286.8 108.1 294.9 108.2 301.6 110.9L301.3 111.8Z" fill="#383F51"/>
<path d="M295.9 139C289.9 138.3 283.6 134.8 277.5 131.4C271.4 128.1 265.7 124.9 260.5 124.4L260.6 123.5C266 124 271.8 127.2 277.9 130.6C283.9 133.9 290.2 137.3 296 138.1L295.9 139Z" fill="#383F51"/>
<path d="M101.1 141.9C92.2 128.3 88.4 112.7 88.7 91.6004C89.4 65.4004 95.3 51.8004 101.1 41.9004L101.9 42.4004C96.2001 52.2004 90.3 65.7004 89.7 91.6004C89.4 112.6 93.2001 127.9 101.9 141.4L101.1 141.9Z" fill="#383F51"/>
<path d="M114.5 153.2C108.3 146.8 103.9 143.9 100 141.2C98.2 140 96.6 138.9 94.9 137.5C88 132 82.7 126.4 78.7 120.4C72.9 111.8 70 102.4 70 92.5004V92.2004C70 78.5004 77.6 66.3004 84 58.4004C91.9 48.6004 100.8 41.8004 104.8 39.4004L105.3 40.2004C101.4 42.6004 92.6 49.3004 84.8 59.0004C78.5 66.8004 71 78.9004 71 92.2004V92.5004C71 109.1 79.1 123.6 95.6 136.8C97.3 138.1 98.9 139.3 100.7 140.5C104.6 143.1 109 146.1 115.3 152.6L114.5 153.2Z" fill="#383F51"/>
<path d="M181.6 174.9C169.9 174.9 155.4 172.9 143.2 165.3C135.5 160.5 128.7 152 125 142.6C122.3 135.4 121.7 130.7 121.2 123H122.1C122.6 130.6 123.2 135.3 125.8 142.4C129.4 151.5 136.2 160 143.6 164.7C165.6 178.6 195.7 173.5 201.5 172.3L201.7 173.2C199.1 173.5 191.4 174.9 181.6 174.9Z" fill="#383F51"/>
<path d="M117.1 155.7C108.9 148.3 107.7 143.9 106.1 138.4C106 138 105.9 137.7 105.8 137.3C104.1 130.8 103.7 121.4 104.6 110.8C104.7 109.5 105.8 108.6 107.1 108.6L110 108.8L109.9 109.3C107.2 120.3 109 132.5 112.3 138C113.1 139.4 114 140.2 114.8 140.4C115 140.4 115.1 140.4 115.2 140.3C116 139.7 115.9 136.4 115.8 134.5C115.8 134.2 115.8 134 115.8 133.8C115.7 130.3 115 122.8 115 122.7L114.9 121.7L115.7 122.3C116.7 123 117.7 123.5 118.5 123.7L118.9 123.8V124.2C118.9 124.2 118.3 129.8 118.6 135C118.7 136.8 119.3 137.7 119.7 137.9C119.8 138 119.9 137.9 119.9 137.9C120.1 137.7 120.5 137 120.3 135.1C119.4 127.5 120.2 123.9 120.3 123.8L121.2 124C121.2 124 120.4 127.6 121.3 135C121.5 136.8 121.3 138.1 120.6 138.6C120.3 138.8 119.8 138.9 119.4 138.7C118.5 138.3 117.9 136.9 117.8 135.1C117.6 130.6 117.9 125.9 118 124.5C117.4 124.3 116.7 124 116 123.6C116.2 125.7 116.7 131 116.7 133.8C116.7 134 116.7 134.3 116.7 134.5C116.8 137.5 116.8 140.1 115.7 141C115.4 141.2 115 141.3 114.6 141.2C113.5 141 112.5 140 111.5 138.4C108.1 132.9 106.2 120.6 108.8 109.6L107 109.5C106.2 109.5 105.5 110 105.5 110.8C104.6 121.3 105 130.6 106.7 137C106.8 137.4 106.9 137.7 107 138.1C108.5 143.5 109.7 147.8 117.7 155L117.1 155.7Z" fill="#383F51"/>
<path d="M122 62.7H121.1C121.6 54.9 122.2 50.3 124.9 43.1C128.6 33.7 135.5 25.2 143.1 20.4C165.4 6.30002 195.8 11.5 201.6 12.7L201.4 13.6C195.6 12.4 165.6 7.30001 143.5 21.2C136.1 25.8 129.3 34.4 125.7 43.5C123.1 50.4 122.4 55 122 62.7Z" fill="#383F51"/>
<path d="M106.7 76.9996C105.5 76.9996 104.4 76.0996 104.4 74.7996C103.5 64.1996 103.9 54.6996 105.6 48.2996L105.7 47.7996C107.4 41.9996 108.6 37.6996 117.1 30.0996L117.7 30.7996C109.4 38.1996 108.3 42.1996 106.6 48.0996L106.5 48.5996C104.9 54.9996 104.4 64.2996 105.3 74.7996C105.4 75.5996 106 76.1996 106.8 76.0996L108.6 75.9996C106.9 63.0996 108.4 50.6996 112.3 45.6996C113.3 44.4996 114.3 43.7996 115.5 43.6996C116 43.6996 116.4 43.7996 116.7 44.0996C117.5 44.8996 117.4 46.5996 117.2 48.8996C117.2 49.5996 117.1 50.2996 117.1 50.9996C117 53.2996 116.7 56.4996 116.5 58.7996C116.3 60.5996 116.2 61.6996 116.1 62.4996C116.7 62.0996 117.3 61.7996 118 61.5996C118 60.2996 117.8 55.7996 117.9 51.3996C118 48.3996 118.7 46.2996 119.9 45.7996C120.4 45.5996 120.9 45.6996 121.3 45.9996C122.1 46.6996 122.3 48.2996 121.8 49.9996C119.7 56.7996 120.9 61.8996 120.9 61.9996L120 62.1996C120 61.9996 118.8 56.7996 120.9 49.6996C121.4 48.1996 121.1 46.9996 120.7 46.5996C120.5 46.3996 120.3 46.4996 120.2 46.4996C119.6 46.6996 118.8 48.1996 118.7 51.2996C118.5 56.5996 118.8 61.7996 118.8 61.7996V62.1996L118.4 62.2996C117.4 62.4996 116.4 63.0996 115.6 63.6996C115.5 63.7996 115.4 63.7996 115.4 63.8996L115.1 63.9996L114.7 63.3996L114.9 63.1996C115.1 62.0996 115.8 54.9996 116 50.8996C116 50.1996 116.1 49.4996 116.1 48.7996C116.2 46.9996 116.4 45.1996 115.9 44.6996C115.8 44.5996 115.7 44.5996 115.4 44.5996C114.5 44.6996 113.6 45.2996 112.8 46.2996C109.6 50.3996 107.4 61.9996 109.3 76.3996L109.4 76.8996L106.6 77.0996C106.8 76.9996 106.7 76.9996 106.7 76.9996Z" fill="#383F51"/>
<path d="M104.9 109.9C104.9 109.8 102.7 102.6 102.8 91.8004C102.9 82.9004 104.4 75.4004 104.4 75.4004L105.3 75.6004C105.3 75.7004 103.8 83.0004 103.7 91.9004C103.5 102.5 105.7 109.7 105.7 109.7L104.9 109.9Z" fill="#383F51"/>
<path d="M109.6 84.9004H0V87.2004H109.6V84.9004Z" fill="url(#paint2_linear_2536_1598)"/>
<path d="M109.6 91.4004H0V93.7004H109.6V91.4004Z" fill="url(#paint3_linear_2536_1598)"/>
<path d="M109.6 97.9004H0V100.2H109.6V97.9004Z" fill="url(#paint4_linear_2536_1598)"/>
<path d="M109.6 78.5H0V80.8H109.6V78.5Z" fill="url(#paint5_linear_2536_1598)"/>
<path d="M109.6 104.3H0V106.6H109.6V104.3Z" fill="url(#paint6_linear_2536_1598)"/>
<g opacity="0.5">
<path d="M204.9 25.5L204.8 26C207.4 26.3 211 34 211.3 35.6C211.4 36.3 211.2 36.7 211.1 37.1C210.9 37.7 210.6 38.2 211.3 39.2C212.3 40.9 218.8 46.8 221.9 48.1C225.1 49.4 226.8 50.2 228 53.2C228.6 54.8 228.6 57.3 228.7 59.9C228.7 62.3 228.7 64.8 229.2 66.7C230 69.6 231.3 72.3 232 73.6C231.2 72.9 230.4 72.2 229.6 71.5C228.2 70.3 227 69.3 226.5 68.6C225.9 67.7 225.6 64.7 225.2 61.4C224.7 57 224.2 52 222.7 50.5C221 48.8 214.8 46.3 209.8 44.3C207.1 43.2 204.8 42.3 203.9 41.8C202.9 41.2 201.8 39.6 200.7 37.8C198.7 34.8 196.5 31.4 193.8 31.5V32C196.2 31.9 198.4 35.2 200.3 38.1C201.6 40 202.6 41.6 203.7 42.3C204.7 42.9 207 43.8 209.7 44.8C214.7 46.8 220.8 49.2 222.4 50.9C222.9 51.5 223.4 52.6 223.7 54.1C223.2 53.2 222.4 52 221.4 51.2C219.6 49.7 215.3 48.5 212.9 47.9C212.5 47.8 212.2 47.7 211.9 47.6C211.2 47.4 210.7 47.6 210.3 47.9C209.8 48.2 209.3 48.6 208 48.3C206.6 48.1 206 47.2 205.4 46.4C205 45.8 204.5 45.2 203.8 44.8C202 43.7 200.2 44.4 199.3 44.8H199.2C198.5 45 198.6 45.7 198.6 46.1C198.6 46.5 198.6 46.8 198.4 47C198.2 47.2 197.6 46.8 197.1 46.4C196.3 45.9 195.4 45.2 194.6 45.6L194.8 46.1C195.4 45.8 196.1 46.4 196.8 46.8C197.5 47.3 198.2 47.7 198.7 47.4C199.3 47.1 199.2 46.5 199.2 46C199.2 45.5 199.2 45.3 199.4 45.2H199.5C200.4 44.8 202 44.3 203.6 45.2C204.2 45.6 204.6 46.1 205 46.7C205.7 47.6 206.3 48.5 208 48.8C209.5 49 210.2 48.6 210.7 48.3C211.1 48.1 211.4 47.9 211.9 48.1C212.1 48.2 212.5 48.3 212.9 48.4C215 49 219.4 50.2 221.2 51.6C223.1 53.2 224.2 55.9 224.3 56.1C224.6 57.8 224.8 59.7 225 61.5C225.4 65 225.7 68 226.4 68.9C226.9 69.6 228.2 70.7 229.6 71.9C232.4 74.3 236.2 77.5 236 79.7C235.9 80.9 235.7 82.1 235.4 83.4C234.9 86.1 234.2 89.1 234.8 92.3C236.1 99 237.4 101.3 239 102.6C240.5 103.9 242.5 104.6 242.5 104.6L242.7 104.1C242.7 104.1 240.8 103.4 239.3 102.2C237.8 100.9 236.6 98.7 235.3 92.2C234.7 89 235.3 86.1 235.9 83.5C236.2 82.1 236.4 80.9 236.5 79.7C236.6 78 235 76.1 233 74.2L233.2 74.1C233.2 74.1 231.1 70.4 230.1 66.5C229.6 64.6 229.6 62.2 229.6 59.8C229.6 57.1 229.6 54.6 228.9 52.9C227.6 49.7 225.8 48.8 222.5 47.5C219.5 46.3 213.1 40.4 212.1 38.8C211.6 38 211.8 37.6 212 37.1C212.2 36.7 212.4 36.2 212.3 35.4C211.5 33.7 207.9 25.9 204.9 25.5Z" fill="url(#paint7_linear_2536_1598)"/>
<path d="M217.1 87.3004C218 88.2004 219.6 88.0004 221.3 87.9004C223 87.7004 224.9 87.6004 226.5 88.3004C229.6 89.8004 232 96.5004 232 96.6004L232.5 96.4004C232.4 96.1004 230 89.4004 226.7 87.8004C225 87.0004 223 87.2004 221.2 87.3004C219.6 87.5004 218.1 87.6004 217.4 86.8004C216.6 86.0004 216 83.2004 215.4 80.7004C214.7 77.8004 214.2 75.4004 213.3 74.7004C212.5 74.1004 211.8 74.0004 211.1 73.9004C210.4 73.8004 209.8 73.7004 209.4 73.1004C209.2 72.8004 209.3 71.1004 209.4 69.3004C209.7 64.3004 210.1 56.6004 206.4 53.9004C203.4 51.7004 201.2 52.5004 199.3 53.1004C197.7 53.6004 196.4 54.1004 194.8 53.1004C193.5 52.4004 193.1 51.0004 192.6 49.5004C191.7 46.6004 190.5 42.9004 182.9 40.6004C181.1 40.1004 179.3 40.4004 177.6 40.6004C175.3 41.0004 173.1 41.3004 171 39.9004L170.7 40.3004C172.9 41.8004 175.3 41.4004 177.7 41.1004C179.5 40.8004 181.2 40.6004 182.8 41.1004C190.1 43.4004 191.2 46.9004 192.1 49.7004C192.6 51.3004 193.1 52.7004 194.5 53.6004C196.3 54.7004 197.9 54.1004 199.5 53.6004C201.4 53.0004 203.4 52.3004 206.2 54.3004C209.7 56.9004 209.3 64.6004 209 69.2004C208.9 71.0004 208.8 72.1004 208.9 72.8004C208.2 72.5004 207.2 72.3004 206 72.1004C204 71.8004 201.8 71.4004 200.5 70.2004C199.9 69.6004 199.6 68.8004 199.3 67.7004C198.6 65.1004 197.5 61.6004 190.3 58.8004C187.8 58.3004 186 58.9004 185 59.5004C184.5 59.8004 184.3 60.3004 184.1 60.8004C183.8 61.4004 183.5 62.1004 182.7 62.6004C181.3 63.5004 173.7 63.9004 172.2 63.6004C172.1 63.6004 172 63.5004 172 63.5004C172 63.4004 172.1 63.1004 172.2 62.9004C172.5 62.1004 173 60.8004 171.8 59.1004L171.4 59.4004C172.4 60.8004 172 61.9004 171.7 62.7004C171.5 63.1004 171.4 63.5004 171.6 63.8004C171.7 64.0004 171.9 64.1004 172.1 64.1004C173.5 64.4004 181.4 64.1004 183 63.0004C183.9 62.4004 184.2 61.6004 184.5 61.0004C184.7 60.5004 184.9 60.1004 185.2 59.9004C186.1 59.4004 187.8 58.8004 190.1 59.3004C197.1 62.0004 198.1 65.4004 198.8 67.8004C199.1 68.9004 199.4 69.9004 200.1 70.5004C201.5 71.7004 203.8 72.1004 205.8 72.5004C207.2 72.7004 208.4 73.0004 209 73.4004C209.5 74.1004 210.2 74.2004 211 74.4004C211.6 74.5004 212.3 74.6004 212.9 75.1004C213.6 75.6004 214.2 78.3004 214.7 80.8004C215.6 83.8004 216.2 86.5004 217.1 87.3004Z" fill="url(#paint8_linear_2536_1598)"/>
<path d="M165.3 86.6002C166 85.9002 166.5 85.4002 168.1 85.7002C169.2 85.9002 170.7 86.5002 172.3 87.1002C175.1 88.2002 178.1 89.3002 179.4 88.8002C180.1 88.6002 180.5 88.1002 181 87.8002C181.9 87.0002 182.9 86.1002 185.9 86.6002C188.3 87.0002 190.1 88.2002 191.6 89.2002C192.9 90.1002 194 90.8002 195.1 90.7002C195.9 90.6002 196.5 90.2002 197.1 89.7002C198.1 88.9002 199.2 88.1002 201.7 89.2002C203.7 90.0002 204.2 91.2002 204.6 92.2002C205.1 93.2002 205.4 94.1002 207.4 93.8002C209.5 93.5002 210.8 92.2002 212 90.9002C212.9 90.0002 213.9 89.1002 215.1 88.4002L214.9 87.9002C213.6 88.5002 212.6 89.5002 211.6 90.4002C210.3 91.6002 209.1 92.8002 207.2 93.1002C205.7 93.3002 205.4 92.8002 205 91.8002C204.6 90.8002 204 89.5002 201.8 88.6002C198.9 87.4002 197.7 88.4002 196.6 89.2002C196 89.7002 195.6 90.0002 194.9 90.1002C194 90.2002 193 89.5002 191.8 88.7002C190.3 87.7002 188.4 86.4002 185.9 86.0002C182.7 85.5002 181.6 86.5002 180.6 87.3002C180.2 87.7002 179.7 88.0002 179.2 88.2002C178 88.7002 175.1 87.5002 172.5 86.5002C170.9 85.9002 169.4 85.3002 168.3 85.1002C166.5 84.7002 165.8 85.4002 165 86.1002C164.5 86.6002 164 87.1002 163 87.3002L163.1 87.8002C164.2 87.6002 164.8 87.1002 165.3 86.6002Z" fill="url(#paint9_linear_2536_1598)"/>
<path d="M236.201 83.9996C235.301 85.7996 235.001 90.1996 235.501 92.8996C236.001 95.4996 237.001 100.1 239.001 101.9C240.101 102.9 242.301 103.9 242.401 103.9L242.601 103.4C242.601 103.4 240.401 102.5 239.401 101.5C237.501 99.7996 236.501 94.7995 236.101 92.6995C235.601 89.7995 236.101 85.5996 236.801 84.0996C237.601 82.4996 238.801 81.8995 239.401 81.7995C241.201 81.5995 242.901 84.5996 242.901 84.5996L243.401 84.3996C243.301 84.2996 241.601 80.9995 239.401 81.2995C238.301 81.4995 237.001 82.1996 236.201 83.9996Z" fill="url(#paint10_linear_2536_1598)"/>
<path d="M204.5 82.5996C204.9 81.6996 205.2 80.7996 206.1 80.1996C207.1 79.4996 209.6 78.0996 211.9 79.9996C212.8 80.7996 213.5 82.7997 214.2 84.5997C214.9 86.4997 215.5 88.1996 216.4 88.7996C217.3 89.3996 218.9 89.2996 220.7 89.1996C222.3 89.0996 224 88.9996 225.3 89.3996C228 90.1996 231.2 96.8996 231.3 96.9996L231.8 96.7996C231.7 96.4996 228.5 89.7996 225.5 88.8996C224.1 88.4996 222.3 88.5996 220.7 88.6996C219 88.7996 217.5 88.8996 216.7 88.3996C216 87.8996 215.3 86.1996 214.7 84.4996C214 82.4996 213.3 80.4996 212.2 79.6996C210.4 78.1996 208.1 78.2996 205.8 79.8996C204.9 80.5996 204.4 81.5996 204.1 82.4996C203.7 83.3996 203.4 84.2996 202.5 84.6996C200.8 85.4996 198.9 84.8996 198.2 83.7996C198 83.4996 197.9 83.1996 197.7 82.8996C197.1 81.9996 196.6 80.9996 195.3 79.7996C193.6 78.1996 186.7 75.2996 183.3 74.7996C181.3 74.4996 180.5 74.9997 179.5 75.5997C178.8 76.0997 178 76.4997 176.6 76.5997V77.0997C178.1 76.9997 178.9 76.3996 179.7 75.9996C180.6 75.4996 181.3 74.9996 183.1 75.2996C186.4 75.7996 193.1 78.6996 194.8 80.1996C196 81.2996 196.6 82.2996 197.1 83.1996C197.3 83.4996 197.4 83.7997 197.6 84.0997C198.4 85.2997 200.6 86.0996 202.5 85.1996C203.7 84.5996 204.1 83.5996 204.5 82.5996Z" fill="url(#paint11_linear_2536_1598)"/>
</g>
<g opacity="0.5">
<path d="M234.2 104.9C232.8 105.1 231.7 106.7 230.6 108.3C229.7 109.5 228.7 111.4 227.8 113.1C227 114.6 226.3 115.8 225.9 116.3C225.8 116.4 225.7 116.5 225.5 116.7C224.2 117.5 221.2 118.1 218.8 117.9C217.4 117.8 216.4 117.9 215.5 118C214.6 118.1 213.9 118.2 213.3 118C212.8 117.8 212.8 117.5 212.7 116.9C212.6 116.4 212.5 115.7 211.7 115.4C211 115.1 210.2 115.2 209.4 115.4C208.6 115.5 207.9 115.6 207.5 115.3C207.1 115 206.9 114.6 206.8 114.2C206.6 113.7 206.4 113.2 205.8 112.8C205.2 112.4 204.4 112.9 203.5 113.6C202.1 114.6 200.2 115.9 197.8 115.3C195.2 114.7 195.3 113.9 195.5 112.8C195.6 112.3 195.7 111.6 195.4 111C195 109.9 192.7 109 190.3 108C188.5 107.2 186.6 106.4 186 105.7C185.4 104.9 185.3 104.2 185.2 103.6C185.1 102.9 185 102.4 184.4 101.9C183.7 101.3 182.7 101.7 181.8 101.9C181.3 102.1 180.7 102.2 180.5 102.1L180.3 102.5C180.7 102.7 181.3 102.5 182 102.3C182.7 102.1 183.6 101.8 184.1 102.2C184.6 102.6 184.6 103 184.8 103.6C184.9 104.2 185.1 105 185.7 105.9C186.3 106.7 188.2 107.5 190.2 108.3C192.3 109.2 194.7 110.1 195 111C195.2 111.5 195.1 112 195 112.6C194.8 113.8 194.7 114.9 197.7 115.7C200.3 116.3 202.3 114.9 203.8 113.9C204.6 113.4 205.2 112.9 205.6 113.1C206.1 113.4 206.3 113.8 206.5 114.3C206.7 114.7 206.8 115.2 207.4 115.6C208 116.1 208.9 115.9 209.7 115.8C210.4 115.7 211.1 115.6 211.8 115.8C212.4 116 212.5 116.4 212.5 117C212.6 117.5 212.7 118.1 213.4 118.4C214.1 118.7 214.9 118.6 215.8 118.5C216.6 118.4 217.6 118.3 219 118.4C220.5 118.5 222.3 118.3 223.9 117.9C222.1 119 219.3 120.5 216.5 120.7C214.2 120.9 213.4 120.5 212.1 119.8C210.9 119.2 209.5 118.5 206.3 117.9C201.7 117.1 197.4 119.1 195.1 120.5C194.7 120.4 191.6 119.4 190.7 117L190.3 115.8C189.5 113.5 188.8 111.5 188.2 110.4C187.5 109 185.1 107.9 183.7 107.7C182.8 107.6 182.3 108 181.9 108.4C181.5 108.7 181.1 109.1 180.4 109C179.8 109 179.2 108.1 178.6 107.1C177.7 105.7 176.5 103.9 174.6 103.2C172.3 102.4 171.2 103.2 170.3 103.9C169.8 104.3 169.4 104.6 168.9 104.8L169 105.3C169.7 105.1 170.2 104.7 170.6 104.4C171.5 103.7 172.3 103 174.4 103.7C176.2 104.4 177.3 106 178.2 107.4C179 108.6 179.6 109.5 180.4 109.5C181.3 109.6 181.8 109.1 182.3 108.8C182.7 108.4 183.1 108.1 183.7 108.3C185.2 108.5 187.3 109.7 187.9 110.7C188.4 111.7 189.2 113.8 190 116L190.4 117.2C191.2 119.4 193.6 120.5 194.7 120.8C194 121.2 193.6 121.5 193.6 121.6C193.6 121.6 189.3 126.3 186.1 128.4C182.8 130.5 180.1 130.5 179.2 129.3C178.7 128.7 178.6 127.5 178.6 126.1C178.6 124.8 178.5 123.4 178 122.1C177.3 120.1 174.5 118.7 173.6 118.4C172.4 117.8 170.7 117.3 169.9 117.6C168.5 118.1 168 120.3 168 120.4L168.5 120.5C168.5 120.5 168.9 118.5 170.1 118.1C170.6 117.9 171.8 118.2 173.4 118.9C175 119.6 177 121 177.5 122.4C178 123.6 178 125 178.1 126.3C178.2 127.8 178.2 129 178.8 129.8C179.9 131 182.7 131.3 186.4 129C189.6 127 193.7 122.5 194 122.2C194.3 122 200 117.5 206.4 118.6C209.6 119.1 211 119.9 212.1 120.4C212.4 120.5 212.6 120.7 212.9 120.8C211.3 121.4 210.4 121.3 209.7 121.3C208.6 121.2 208.1 121.3 207.2 122.7C206 124.6 205.8 128.2 205.7 130.7C205.6 131.7 205.6 132.5 205.5 132.9C205.1 134.4 204.5 135.2 203.1 135.6C202 135.9 201.6 135.6 201.1 135.2C200.9 135.1 200.8 134.9 200.6 134.8C200.3 134.6 200.1 134.2 199.9 133.8C199.4 132.9 198.6 131.6 196.8 131.7C195.2 131.8 194.7 132.8 194.1 133.8C193.7 134.5 193.4 135.2 192.6 135.8C190.8 137.2 185.5 138.8 182.6 139.1C179.4 139.4 173.4 138.8 173 138.3C172.9 138.1 173.3 137.2 173.6 136.6C174.2 135.4 174.9 133.8 174.7 132.7C174.7 132.5 174.6 132.4 174.6 132.2C174.3 130.8 174.1 130.7 172.8 130.8C171.8 130.9 171.7 131.6 171.6 132.2C171.5 132.6 171.5 133 171.2 133.3C170.5 133.8 168.1 133.6 167.2 133.5L167.1 134C167.5 134 170.6 134.4 171.5 133.7C172 133.3 172 132.8 172.1 132.3C172.2 131.7 172.3 131.4 172.8 131.3C173.3 131.3 173.6 131.3 173.7 131.3C173.8 131.4 173.9 131.7 174 132.3C174 132.5 174.1 132.6 174.1 132.8C174.3 133.7 173.6 135.2 173.1 136.3C172.6 137.4 172.3 138 172.4 138.4C172.8 139.5 180.1 139.8 182.5 139.6C185.5 139.3 190.8 137.7 192.8 136.2C193.6 135.6 194 134.8 194.4 134.1C194.9 133.1 195.3 132.3 196.7 132.2C198.2 132.1 198.8 133.1 199.3 134C199.6 134.5 199.8 134.9 200.2 135.1C200.4 135.2 200.6 135.4 200.7 135.5C201.3 136 201.8 136.4 203.2 136C204.7 135.5 205.5 134.6 206 132.9C206.1 132.6 206.1 132.1 206.2 131.5C206.5 131.9 206.5 132.3 206.4 132.7C206.4 133.2 206.4 133.7 206.7 134.2C207.3 135 208.3 134.5 209 134.2C209.3 134 209.7 133.9 209.8 133.9C210 133.9 210.1 134 210.2 134.1C210.4 134.4 210.5 134.9 210.4 135.6C210.3 136.4 209.1 137.5 208.4 138.1C208.1 138.3 207.9 138.6 207.8 138.7C207.6 139 207.6 139.4 207.6 139.7C207.6 140.1 207.7 140.5 207.4 141C207.2 141.2 207 141.4 206.7 141.4C206.1 141.5 205.4 141.2 205.3 141C205.2 140.9 205.2 140.7 205.2 140.5C205.2 140.2 205.2 139.8 205 139.4C204.6 138.9 203.8 138.7 202.7 138.8C202.1 138.9 202 139.4 202 139.9C202 140.4 202 141 201.2 141.3C200.7 141.5 200.2 141.2 199.5 140.8C198.5 140.2 197.2 139.5 195.4 140.5C193.2 141.7 193.5 143 193.6 143.9C193.7 144.2 193.7 144.5 193.6 144.7C193.5 144.9 193.4 145 193.3 145C193.1 145 192.9 144.9 192.8 144.9L192.5 145.3C192.5 145.3 193 145.6 193.4 145.5C193.7 145.4 193.9 145.2 194 144.8C194.1 144.5 194.1 144.1 194 143.7C193.8 142.8 193.6 141.8 195.5 140.8C197.1 140 198.1 140.5 199.1 141.1C199.8 141.5 200.5 141.9 201.2 141.6C202.2 141.2 202.3 140.4 202.3 139.8C202.3 139.3 202.4 139.2 202.5 139.2C203.4 139.1 204.1 139.3 204.4 139.7C204.6 139.9 204.5 140.2 204.5 140.4C204.5 140.7 204.5 141.1 204.7 141.3C205 141.5 205.8 141.9 206.5 141.8C207 141.8 207.4 141.5 207.6 141.2C208 140.6 208 140 207.9 139.6C207.9 139.3 207.9 139.1 208 139C208.1 138.9 208.3 138.7 208.6 138.5C209.4 137.8 210.7 136.6 210.8 135.7C210.9 134.9 210.8 134.2 210.5 133.8C210.3 133.6 210 133.5 209.7 133.4C209.4 133.4 209 133.6 208.6 133.8C207.8 134.2 207.3 134.4 207 134C206.7 133.6 206.8 133.3 206.8 132.8C206.8 132.2 206.8 131.5 206.1 130.9C206.1 130.8 206.1 130.8 206.1 130.7C206.2 128.3 206.5 124.7 207.5 123C208.3 121.8 208.7 121.8 209.6 121.8C210.4 121.8 211.6 121.9 213.5 121.1C214.3 121.4 215.2 121.5 216.7 121.4C221.3 121.1 225.9 117.5 226.2 117.3C226.4 117.1 226.6 117 226.7 116.8C227.1 116.3 227.8 115 228.7 113.5C229.6 111.9 230.7 110 231.5 108.8C232.5 107.3 233.6 105.8 234.7 105.6C235.2 105.5 235.8 105.7 236.4 106.2C238.7 107.9 246.9 110.1 247.1 110.2L247.2 109.7C246.7 109.6 238.9 107.4 236.7 105.8C235.5 105 234.8 104.8 234.2 104.9Z" fill="url(#paint12_linear_2536_1598)"/>
<path d="M236.3 108.399C233.8 109.099 231.2 112.699 230.4 113.899C228.8 116.399 228.5 122.299 229.1 124.999C229.3 126.199 229.8 127.099 230.2 127.899C230.6 128.799 231 129.499 231 130.499C231 132.499 231.3 133.599 232 134.599C232.2 134.799 232.3 134.799 232.5 134.899C232.9 134.899 233.3 134.499 233.7 134.099C234 133.799 234.4 133.299 234.6 133.399C234.7 133.399 234.8 133.599 234.9 133.699C235.6 134.999 234.6 135.999 234.6 136.099L235 136.499C235 136.499 236.3 135.199 235.4 133.499C235.2 133.199 235 132.999 234.7 132.999C234.2 132.899 233.8 133.399 233.3 133.899C233.1 134.099 232.7 134.599 232.5 134.499C232.5 134.499 232.5 134.499 232.4 134.399C231.7 133.499 231.5 132.499 231.5 130.599C231.5 129.499 231.1 128.699 230.7 127.799C230.3 127.099 229.9 126.199 229.7 124.999C229.2 122.499 229.5 116.699 230.9 114.299C231.8 112.899 234.3 109.699 236.5 108.999C237.1 108.799 238.2 109.099 239 109.499C243.6 111.399 246.8 112.099 246.8 112.099L246.9 111.599C246.9 111.599 243.7 110.899 239.1 108.999C238.5 108.699 237.1 108.199 236.3 108.399Z" fill="url(#paint13_linear_2536_1598)"/>
<path d="M235.8 107.299C234.9 107.399 233.9 108.399 233.5 108.699L233.4 108.799C231.2 110.599 229.1 113.3 228.5 115.1C228.3 115.6 228.2 116.199 228.1 116.899C226.7 119.699 226.2 122.499 225.7 125.199C225.4 126.599 225.1 128.2 224.7 129.6C223.5 133.6 216.9 140.3 216.6 140.6C216.3 140.8 210.6 145.299 208.6 145.799C207.7 145.999 203.4 146.999 202.2 147.399C201.2 147.799 199.2 153.6 198.9 154.7C198.8 157.5 198.5 161.599 198.3 161.899C198 162.399 196.4 162.899 195.7 162.799C195.5 162.799 195.2 162.499 195 162.099C194.7 161.599 194.2 160.999 193.4 160.899C192.8 160.799 191.1 161.199 188.3 161.899C185.6 162.599 182 163.4 181.4 163.2C180.8 163 180.7 162.599 180.6 162.299C180.5 161.899 180.4 161.499 179.8 161.399C179.6 161.399 179.4 161.4 179.4 161.5C179.1 161.7 179.1 162.299 179.2 163.099C179.2 163.899 179.3 164.899 178.9 165.299L179.3 165.599C179.8 164.999 179.7 164 179.7 163C179.7 162.5 179.6 161.899 179.7 161.799C179.9 161.799 180 161.999 180.1 162.299C180.2 162.699 180.4 163.299 181.2 163.599C181.9 163.899 184.5 163.299 188.4 162.299C190.6 161.799 192.9 161.199 193.4 161.299C194 161.399 194.3 161.899 194.6 162.299C194.9 162.699 195.2 163.1 195.6 163.2C196.4 163.299 198.2 162.699 198.6 162.099C199 161.599 199.2 156.299 199.3 154.599C200.4 151.399 201.8 147.9 202.3 147.6C203.2 147.2 206.1 146.5 208.6 146C210.7 145.5 216.6 140.899 216.8 140.699C217.1 140.399 223.8 133.7 225.1 129.5C225.5 128 225.8 126.5 226.1 125C226.5 122.9 226.9 120.699 227.8 118.399C227.7 119.599 227.6 120.999 227.5 122.299C227.4 123.399 227.3 124.399 227.3 125.199C226.6 131.399 225.7 134.8 224.1 137.1C222.3 139.6 215.7 147.199 214.9 147.799C214.5 148.099 214 148.299 213.4 148.399C212.9 148.499 212.4 148.699 211.8 148.899C209.7 149.799 207.4 153.499 205.7 156.099C204.8 157.499 204.1 158.599 203.7 158.899C203.1 159.299 202.7 159.199 202.2 158.899C201.8 158.699 201.4 158.599 200.9 158.599V159.099C201.4 159.099 201.7 159.299 202 159.399C202.6 159.599 203.1 159.899 204 159.299C204.5 158.999 205.2 157.899 206.1 156.399C207.7 153.799 210 150.299 212 149.399C212.5 149.199 213 148.999 213.5 148.899C214.2 148.699 214.7 148.599 215.2 148.199C216 147.599 222.7 139.899 224.5 137.399C226.1 135.099 227.1 131.599 227.8 125.299C227.9 124.499 228 123.499 228 122.399C228.2 119.599 228.4 116.5 229 115C229.6 113.3 231.6 110.699 233.7 108.899C233.7 108.899 233.8 108.899 233.8 108.799C234.1 108.499 235.1 107.6 235.8 107.5C236.5 107.4 237.9 107.9 239.8 108.6C241.6 109.3 243.9 110.099 246.6 110.799L246.7 110.299C244 109.599 241.7 108.8 239.9 108.1C238.1 107.7 236.7 107.099 235.8 107.299Z" fill="url(#paint14_linear_2536_1598)"/>
<path d="M166.2 159.5C166.6 159.5 167.2 160 167.8 160.4C169 161.2 170.4 162.1 171.5 161.6C172.1 161.3 172.6 160.5 173.2 159.5C174.3 157.8 175.7 155.7 178.3 154.8C182.4 153.4 189.8 149.9 189.8 149.9C189.9 149.9 195.6 145.6 201.3 147.1L201.4 146.6C195.7 145.1 190 149.2 189.5 149.5C189.4 149.5 189.3 149.6 189 149.7C188.9 149.1 188.5 147.8 187.3 146.9C186.4 146.2 185.3 146 184 146.1C181.7 146.4 179.6 147.5 177.7 148.4C176.1 149.2 174.7 150 173.7 149.9C172.8 149.8 172.7 149.3 172.5 148.7C172.3 147.9 172 146.9 170.3 146.7C168.5 146.5 167.7 147.8 167.1 148.8C166.6 149.6 166.2 150.1 165.7 150.1C164.1 150 161.8 147.6 161.8 147.6L161.4 147.9C161.5 148 163.8 150.4 165.6 150.5C166.5 150.6 167 149.8 167.5 149C168.1 148 168.8 147 170.3 147.2C171.7 147.4 171.9 148 172.1 148.8C172.3 149.5 172.5 150.3 173.7 150.4C174.9 150.5 176.3 149.7 178 148.9C179.8 148 181.9 146.9 184.1 146.6C185.3 146.4 186.3 146.7 187.1 147.3C188.2 148.1 188.5 149.5 188.6 149.9C186.4 150.9 181.3 153.2 178.2 154.3C175.4 155.2 173.9 157.5 172.8 159.2C172.2 160.1 171.7 160.8 171.2 161.1C170.4 161.6 169.1 160.7 168 160C167.3 159.5 166.6 159.1 166.2 159C165.5 158.9 164.4 159.6 163.2 160.4C162.1 161.1 160.8 162 160 162.1L160.1 162.6C161.1 162.4 162.4 161.6 163.6 160.8C164.6 160.2 165.7 159.4 166.2 159.5Z" fill="url(#paint15_linear_2536_1598)"/>
<path d="M237.9 110.2C236.5 110.8 235.4 112.5 234.6 113.8C234.3 114.3 234 114.7 233.8 114.9C233.6 115.1 233.4 115.1 233.2 115.2C232.6 115.3 232.1 115.5 231.6 116.8C230.8 118.7 230.4 123.2 231.4 124.7C231.8 125.3 232.3 125.4 232.6 125.4C233.6 125.3 234.6 124 235 122.9C235.3 122.1 236.1 122 236.9 122C237.6 122 238.4 121.9 238.8 121.3C239 120.9 239.3 120.8 239.5 120.8C239.8 120.9 240.1 121.3 240.2 122.3C240.4 123.7 239.8 126 239.8 126L240.3 126.1C240.3 126 240.9 123.8 240.7 122.2C240.6 121.1 240.2 120.4 239.6 120.2C239.2 120.1 238.7 120.3 238.3 120.9C238.1 121.3 237.4 121.3 236.8 121.4C235.9 121.5 234.8 121.6 234.4 122.7C234 123.9 233.1 124.8 232.4 124.9C232.1 124.9 231.9 124.8 231.7 124.5C230.9 123.2 231.2 119 232 117C232.5 115.9 232.8 115.8 233.2 115.7C233.5 115.7 233.8 115.6 234.1 115.3C234.3 115.1 234.6 114.6 235 114.1C235.7 112.9 236.9 111.2 238.1 110.7C239 110.3 239.9 110.7 241.2 111.3C242.4 111.8 243.9 112.5 246 112.8L246.1 112.3C244.1 112 242.6 111.4 241.4 110.8C240.1 110.2 239 109.7 237.9 110.2Z" fill="url(#paint16_linear_2536_1598)"/>
</g>
<path d="M119.3 121.9C116.5 121.9 114.3 119 112.7 113.4C111.3 108.3 110.5 101.2 110.5 92.9996C110.5 84.7996 111.3 77.7996 112.7 72.5996C114.3 67.0996 116.5 64.0996 119.3 64.0996C122.1 64.0996 125.2 67.2996 127.6 72.5996C130.1 78.2996 131.5 85.4996 131.5 92.9996C131.5 100.5 130.1 107.7 127.6 113.4C125.2 118.8 122.1 121.9 119.3 121.9ZM119.3 64.2996C114 64.2996 110.6 75.5996 110.6 93.0996C110.6 110.6 114 121.9 119.3 121.9C124.9 121.9 131.3 109.3 131.3 93.0996C131.3 76.8996 124.8 64.2996 119.3 64.2996Z" fill="#383F51"/>
<path d="M119.299 120.6C116.899 120.6 114.999 117.8 113.599 112.6C112.399 107.7 111.699 101.1 111.699 93.3C111.699 85.5 112.399 78.9 113.599 74C114.899 68.7 116.899 66 119.299 66C121.799 66 124.399 68.9 126.399 74C128.599 79.4 129.799 86.2 129.799 93.3C129.799 100.4 128.599 107.2 126.399 112.6C124.399 117.6 121.799 120.6 119.299 120.6ZM119.299 66C114.799 66 111.899 76.7 111.899 93.2C111.899 109.7 114.799 120.4 119.299 120.4C124.099 120.4 129.699 108.5 129.699 93.2C129.699 77.9 124.099 66 119.299 66Z" fill="#383F51"/>
<path d="M119.199 118.8C117.299 118.8 115.699 116.2 114.699 111.3C113.699 106.7 113.199 100.5 113.199 93.2998C113.199 86.0998 113.699 79.7998 114.699 75.2998C115.799 70.3998 117.299 67.7998 119.199 67.7998C121.199 67.7998 123.399 70.5998 125.099 75.2998C126.999 80.3998 127.999 86.7998 127.999 93.2998C127.999 99.7998 126.999 106.2 125.099 111.3C123.399 116 121.199 118.8 119.199 118.8ZM119.199 67.8998C115.599 67.8998 113.299 77.8998 113.299 93.2998C113.299 108.7 115.599 118.7 119.199 118.7C121.099 118.7 123.299 115.9 124.999 111.3C126.899 106.2 127.899 99.7998 127.899 93.2998C127.899 86.7998 126.899 80.3998 124.999 75.2998C123.299 70.6998 121.199 67.8998 119.199 67.8998Z" fill="#383F51"/>
<path d="M119.3 116.8C115.8 116.8 114.6 104.2 114.6 93.4C114.6 82.6 115.8 70 119.3 70C122.4 70 126.2 80.4 126.2 93.4C126.2 106.4 122.4 116.8 119.3 116.8ZM119.3 70C116.5 70 114.7 79.2 114.7 93.3C114.7 107.5 116.5 116.6 119.3 116.6C120.8 116.6 122.5 114.1 123.8 109.8C125.3 105.1 126.1 99.3 126.1 93.3C126.1 87.3 125.3 81.5 123.8 76.8C122.5 72.6 120.8 70 119.3 70Z" fill="#383F51"/>
<path d="M119.599 114.599C117.099 114.599 116.199 103.299 116.199 93.4994C116.199 83.6994 117.099 72.3994 119.599 72.3994C121.899 72.3994 124.599 81.7994 124.599 93.4994C124.599 105.199 121.899 114.599 119.599 114.599ZM119.599 72.4994C117.599 72.4994 116.299 80.6994 116.299 93.4994C116.299 106.199 117.599 114.499 119.599 114.499C121.799 114.499 124.499 104.799 124.499 93.4994C124.499 82.1994 121.799 72.4994 119.599 72.4994Z" fill="#383F51"/>
<path d="M252.1 92.6C252.1 92.2 252.1 91.4 252.1 90.9L110.1 78.5L109.9 80.8L202 88.9L109.3 84.9L109.2 87.1L209.4 91.4H109.1V93.7H210.1L109.5 98.1L109.6 100.4L202.3 96.4L109.7 104.5L109.9 106.8L252.1 94.3C252.1 94.1 252.1 93.1 252.1 92.6Z" fill="url(#paint17_linear_2536_1598)"/>
<path d="M119.4 124.5C115.8 124.5 112.9 121.2 111 115C109.2 109.4 108.3 101.7 108.3 92.8998C108.3 83.9998 109.2 76.3998 111 70.7998C113 64.5998 115.9 61.2998 119.4 61.2998C123.1 61.2998 126.9 64.6998 129.8 70.6998C132.9 76.8998 134.6 84.7998 134.6 92.8998C134.6 101 132.9 108.9 129.8 115.1C126.8 121.1 123 124.5 119.4 124.5ZM119.4 62.3998C115.6 62.3998 113.3 67.0998 112 71.0998C110.3 76.4998 109.4 84.2998 109.4 92.8998C109.4 101.5 110.3 109.3 112 114.7C113.2 118.7 115.5 123.4 119.4 123.4C122.6 123.4 126.1 120.1 128.8 114.6C131.8 108.6 133.4 100.8 133.4 92.8998C133.4 84.8998 131.8 77.1998 128.8 71.1998C126 65.6998 122.5 62.3998 119.4 62.3998Z" fill="#383F51"/>
<defs>
<radialGradient id="paint0_radial_2536_1598" cx="0" cy="0" r="1" gradientUnits="userSpaceOnUse" gradientTransform="translate(172.45 92.7549) rotate(-90) scale(78.3668 78.0064)">
<stop offset="0.2655" stop-color="#212F3C" stop-opacity="0"/>
<stop offset="1" stop-color="#212F3C"/>
</radialGradient>
<radialGradient id="paint1_radial_2536_1598" cx="0" cy="0" r="1" gradientUnits="userSpaceOnUse" gradientTransform="translate(126.878 91.5622) rotate(-90) scale(53.5622 53.5622)">
<stop offset="0.2655" stop-color="#212F3C" stop-opacity="0"/>
<stop offset="1" stop-color="#212F3C"/>
</radialGradient>
<linearGradient id="paint2_linear_2536_1598" x1="-17.5314" y1="85.3775" x2="144.866" y2="86.7308" gradientUnits="userSpaceOnUse">
<stop offset="0.0541237" stop-color="#8DBCAD"/>
<stop offset="0.3943" stop-color="#5EA6AE"/>
<stop offset="0.5851" stop-color="#5CA7AF"/>
<stop offset="0.6633" stop-color="#5796AC"/>
<stop offset="0.8104" stop-color="#507DA7"/>
<stop offset="0.8814" stop-color="#4E74A6"/>
</linearGradient>
<linearGradient id="paint3_linear_2536_1598" x1="-17.5314" y1="91.9185" x2="144.866" y2="93.2718" gradientUnits="userSpaceOnUse">
<stop offset="0.0541237" stop-color="#8DBCAD"/>
<stop offset="0.3943" stop-color="#5EA6AE"/>
<stop offset="0.5851" stop-color="#5CA7AF"/>
<stop offset="0.6633" stop-color="#5796AC"/>
<stop offset="0.8104" stop-color="#507DA7"/>
<stop offset="0.8814" stop-color="#4E74A6"/>
</linearGradient>
<linearGradient id="paint4_linear_2536_1598" x1="-17.5314" y1="98.4595" x2="144.866" y2="99.8129" gradientUnits="userSpaceOnUse">
<stop offset="0.0541237" stop-color="#8DBCAD"/>
<stop offset="0.3943" stop-color="#5EA6AE"/>
<stop offset="0.5851" stop-color="#5CA7AF"/>
<stop offset="0.6633" stop-color="#5796AC"/>
<stop offset="0.8104" stop-color="#507DA7"/>
<stop offset="0.8814" stop-color="#4E74A6"/>
</linearGradient>
<linearGradient id="paint5_linear_2536_1598" x1="-17.5314" y1="79.0616" x2="144.866" y2="80.415" gradientUnits="userSpaceOnUse">
<stop offset="0.0541237" stop-color="#8DBCAD"/>
<stop offset="0.3943" stop-color="#5EA6AE"/>
<stop offset="0.5851" stop-color="#5CA7AF"/>
<stop offset="0.6633" stop-color="#5796AC"/>
<stop offset="0.8104" stop-color="#507DA7"/>
<stop offset="0.8814" stop-color="#4E74A6"/>
</linearGradient>
<linearGradient id="paint6_linear_2536_1598" x1="-17.5314" y1="104.819" x2="144.866" y2="106.173" gradientUnits="userSpaceOnUse">
<stop offset="0.0541237" stop-color="#8DBCAD"/>
<stop offset="0.3943" stop-color="#5EA6AE"/>
<stop offset="0.5851" stop-color="#5CA7AF"/>
<stop offset="0.6633" stop-color="#5796AC"/>
<stop offset="0.8104" stop-color="#507DA7"/>
<stop offset="0.8814" stop-color="#4E74A6"/>
</linearGradient>
<linearGradient id="paint7_linear_2536_1598" x1="104.287" y1="122.876" x2="286.984" y2="34.4603" gradientUnits="userSpaceOnUse">
<stop offset="0.0541237" stop-color="#8DBCAD" stop-opacity="0.6"/>
<stop offset="0.4794" stop-color="#5EA6AE" stop-opacity="0.6"/>
<stop offset="0.5851" stop-color="#5CA7AF" stop-opacity="0.6"/>
<stop offset="0.6633" stop-color="#5796AC" stop-opacity="0.701"/>
<stop offset="0.8104" stop-color="#507DA7" stop-opacity="0.8907"/>
<stop offset="0.8814" stop-color="#4E74A6" stop-opacity="0.9824"/>
</linearGradient>
<linearGradient id="paint8_linear_2536_1598" x1="101.395" y1="116.9" x2="284.092" y2="28.4832" gradientUnits="userSpaceOnUse">
<stop offset="0.0541237" stop-color="#8DBCAD" stop-opacity="0.6"/>
<stop offset="0.4794" stop-color="#5EA6AE" stop-opacity="0.6"/>
<stop offset="0.5851" stop-color="#5CA7AF" stop-opacity="0.6"/>
<stop offset="0.6633" stop-color="#5796AC" stop-opacity="0.701"/>
<stop offset="0.8104" stop-color="#507DA7" stop-opacity="0.8907"/>
<stop offset="0.8814" stop-color="#4E74A6" stop-opacity="0.9824"/>
</linearGradient>
<linearGradient id="paint9_linear_2536_1598" x1="106.919" y1="128.315" x2="289.616" y2="39.8983" gradientUnits="userSpaceOnUse">
<stop offset="0.0541237" stop-color="#8DBCAD" stop-opacity="0.6"/>
<stop offset="0.4794" stop-color="#5EA6AE" stop-opacity="0.6"/>
<stop offset="0.5851" stop-color="#5CA7AF" stop-opacity="0.6"/>
<stop offset="0.6633" stop-color="#5796AC" stop-opacity="0.701"/>
<stop offset="0.8104" stop-color="#507DA7" stop-opacity="0.8907"/>
<stop offset="0.8814" stop-color="#4E74A6" stop-opacity="0.9824"/>
</linearGradient>
<linearGradient id="paint10_linear_2536_1598" x1="118.292" y1="151.815" x2="300.99" y2="63.3976" gradientUnits="userSpaceOnUse">
<stop offset="0.0541237" stop-color="#8DBCAD" stop-opacity="0.6"/>
<stop offset="0.4794" stop-color="#5EA6AE" stop-opacity="0.6"/>
<stop offset="0.5851" stop-color="#5CA7AF" stop-opacity="0.6"/>
<stop offset="0.6633" stop-color="#5796AC" stop-opacity="0.701"/>
<stop offset="0.8104" stop-color="#507DA7" stop-opacity="0.8907"/>
<stop offset="0.8814" stop-color="#4E74A6" stop-opacity="0.9824"/>
</linearGradient>
<linearGradient id="paint11_linear_2536_1598" x1="109.058" y1="132.735" x2="291.755" y2="44.3189" gradientUnits="userSpaceOnUse">
<stop offset="0.0541237" stop-color="#8DBCAD" stop-opacity="0.6"/>
<stop offset="0.4794" stop-color="#5EA6AE" stop-opacity="0.6"/>
<stop offset="0.5851" stop-color="#5CA7AF" stop-opacity="0.6"/>
<stop offset="0.6633" stop-color="#5796AC" stop-opacity="0.701"/>
<stop offset="0.8104" stop-color="#507DA7" stop-opacity="0.8907"/>
<stop offset="0.8814" stop-color="#4E74A6" stop-opacity="0.9824"/>
</linearGradient>
<linearGradient id="paint12_linear_2536_1598" x1="178.46" y1="73.0379" x2="240.032" y2="179.268" gradientUnits="userSpaceOnUse">
<stop offset="0.0541237" stop-color="#8DBCAD" stop-opacity="0.6"/>
<stop offset="0.4794" stop-color="#5EA6AE" stop-opacity="0.6"/>
<stop offset="0.5851" stop-color="#5CA7AF" stop-opacity="0.6"/>
<stop offset="0.6633" stop-color="#5796AC" stop-opacity="0.701"/>
<stop offset="0.8104" stop-color="#507DA7" stop-opacity="0.8907"/>
<stop offset="0.8814" stop-color="#4E74A6" stop-opacity="0.9824"/>
</linearGradient>
<linearGradient id="paint13_linear_2536_1598" x1="202.341" y1="59.1956" x2="263.914" y2="165.425" gradientUnits="userSpaceOnUse">
<stop offset="0.0541237" stop-color="#8DBCAD" stop-opacity="0.6"/>
<stop offset="0.4794" stop-color="#5EA6AE" stop-opacity="0.6"/>
<stop offset="0.5851" stop-color="#5CA7AF" stop-opacity="0.6"/>
<stop offset="0.6633" stop-color="#5796AC" stop-opacity="0.701"/>
<stop offset="0.8104" stop-color="#507DA7" stop-opacity="0.8907"/>
<stop offset="0.8814" stop-color="#4E74A6" stop-opacity="0.9824"/>
</linearGradient>
<linearGradient id="paint14_linear_2536_1598" x1="176.06" y1="74.4288" x2="237.633" y2="180.658" gradientUnits="userSpaceOnUse">
<stop offset="0.0541237" stop-color="#8DBCAD" stop-opacity="0.6"/>
<stop offset="0.4794" stop-color="#5EA6AE" stop-opacity="0.6"/>
<stop offset="0.5851" stop-color="#5CA7AF" stop-opacity="0.6"/>
<stop offset="0.6633" stop-color="#5796AC" stop-opacity="0.701"/>
<stop offset="0.8104" stop-color="#507DA7" stop-opacity="0.8907"/>
<stop offset="0.8814" stop-color="#4E74A6" stop-opacity="0.9824"/>
</linearGradient>
<linearGradient id="paint15_linear_2536_1598" x1="144.832" y1="92.5299" x2="206.404" y2="198.76" gradientUnits="userSpaceOnUse">
<stop offset="0.0541237" stop-color="#8DBCAD" stop-opacity="0.6"/>
<stop offset="0.4794" stop-color="#5EA6AE" stop-opacity="0.6"/>
<stop offset="0.5851" stop-color="#5CA7AF" stop-opacity="0.6"/>
<stop offset="0.6633" stop-color="#5796AC" stop-opacity="0.701"/>
<stop offset="0.8104" stop-color="#507DA7" stop-opacity="0.8907"/>
<stop offset="0.8814" stop-color="#4E74A6" stop-opacity="0.9824"/>
</linearGradient>
<linearGradient id="paint16_linear_2536_1598" x1="203.909" y1="58.2871" x2="265.482" y2="164.517" gradientUnits="userSpaceOnUse">
<stop offset="0.0541237" stop-color="#8DBCAD" stop-opacity="0.6"/>
<stop offset="0.4794" stop-color="#5EA6AE" stop-opacity="0.6"/>
<stop offset="0.5851" stop-color="#5CA7AF" stop-opacity="0.6"/>
<stop offset="0.6633" stop-color="#5796AC" stop-opacity="0.701"/>
<stop offset="0.8104" stop-color="#507DA7" stop-opacity="0.8907"/>
<stop offset="0.8814" stop-color="#4E74A6" stop-opacity="0.9824"/>
</linearGradient>
<linearGradient id="paint17_linear_2536_1598" x1="-54.798" y1="97.4133" x2="251.953" y2="88.3912" gradientUnits="userSpaceOnUse">
<stop offset="0.0541237" stop-color="#8DBCAD"/>
<stop offset="0.3943" stop-color="#5EA6AE"/>
<stop offset="0.5851" stop-color="#5CA7AF"/>
<stop offset="0.6633" stop-color="#5796AC"/>
<stop offset="0.8104" stop-color="#507DA7"/>
<stop offset="0.8814" stop-color="#4E74A6"/>
</linearGradient>
</defs>
</svg>
