<svg width="330" height="330" viewBox="0 0 330 330" fill="none" xmlns="http://www.w3.org/2000/svg">
<g clip-path="url(#clip0_3670_7730)">
<path d="M220.747 154.982C214.441 148.441 214.382 148.559 211.495 145.318C206.25 139.307 190.398 119.507 166.473 119.271H166.238C142.313 119.448 126.461 139.307 121.216 145.318C118.27 148.677 118.27 148.559 111.316 155.807C94.4626 170.893 83.8555 192.814 83.8555 217.211C83.8555 252.686 106.189 282.857 137.598 294.584C137.598 294.643 137.952 294.761 137.952 294.82C139.955 295.645 146.673 297.884 152.507 298.65C156.809 299.357 161.877 299.711 166.414 299.711C212.025 299.711 248.973 262.763 248.973 217.152C248.973 192.343 238.072 170.127 220.747 154.982Z" fill="#DBDBDB"/>
<path d="M166.414 300.123C161.7 300.123 156.632 299.711 152.448 299.062C146.556 298.296 139.897 296.057 137.775 295.173L137.539 295.055V294.996C137.481 294.996 137.422 294.937 137.363 294.879C121.688 289.045 108.311 278.673 98.6466 265.002C88.6877 250.977 83.502 234.418 83.502 217.152C83.502 205.189 85.9769 193.58 90.9269 182.796C95.7002 172.366 102.477 163.173 111.022 155.454C112.082 154.393 112.966 153.45 113.732 152.684C118.034 148.264 118.388 147.852 120.863 145.023C121.157 144.67 121.452 144.316 121.864 143.904C124.811 140.545 130.291 134.18 137.775 128.818C146.909 122.277 156.456 118.918 166.238 118.859H166.473C176.256 118.918 185.802 122.336 194.936 128.818C202.42 134.18 207.9 140.486 210.847 143.904C211.2 144.316 211.495 144.67 211.848 145.023C213.734 147.145 214.441 147.852 216.445 149.914C217.506 150.975 218.92 152.448 221.041 154.629C229.881 162.348 236.834 171.6 241.725 182.207C246.793 193.168 249.386 204.895 249.386 217.093C249.386 228.289 247.206 239.132 242.904 249.386C238.72 259.286 232.768 268.125 225.107 275.727C217.506 283.329 208.607 289.339 198.766 293.523C188.513 297.943 177.611 300.123 166.414 300.123ZM138.188 294.466C140.073 295.232 146.732 297.471 152.566 298.237C156.691 298.886 161.759 299.298 166.414 299.298C211.672 299.298 248.561 262.468 248.561 217.152C248.561 193.462 238.307 170.893 220.452 155.336C218.331 153.096 216.857 151.682 215.856 150.621C213.793 148.559 213.145 147.852 211.2 145.671C210.906 145.318 210.611 144.964 210.198 144.552C204.364 137.834 188.866 119.979 166.473 119.743H166.238C143.786 119.92 128.288 137.775 122.513 144.493C122.159 144.905 121.864 145.259 121.511 145.612C118.977 148.5 118.623 148.854 114.322 153.273C113.556 154.039 112.672 154.982 111.611 156.043C94.2859 171.6 84.3269 193.875 84.3269 217.152C84.3269 251.271 105.836 282.209 137.834 294.112L138.07 294.171V294.23C138.07 294.348 138.129 294.407 138.188 294.466Z" fill="#323A50"/>
<path d="M166.414 300.536C155.217 300.536 144.316 298.355 134.062 293.995C124.162 289.811 115.264 283.8 107.662 276.139C100.001 268.479 94.0496 259.639 89.8067 249.739C85.446 239.486 83.2656 228.584 83.2656 217.387C83.2656 205.366 85.7996 193.757 90.7496 182.914C95.5228 172.425 102.3 163.232 110.903 155.512C117.503 148.677 117.798 148.382 120.332 145.495L120.744 145.023C121.039 144.67 121.392 144.257 121.805 143.845C124.987 140.191 130.291 134.062 137.775 128.7C146.908 122.1 156.455 118.741 166.296 118.682H166.532C176.314 118.741 185.919 122.159 195.053 128.7C202.537 134.062 207.841 140.191 211.023 143.845C211.435 144.316 211.73 144.67 212.084 145.023C214.971 148.264 214.971 148.323 221.276 154.805C230.116 162.525 237.069 171.836 242.019 182.443C247.087 193.462 249.68 205.189 249.68 217.387C249.68 228.584 247.5 239.486 243.139 249.739C238.955 259.639 232.944 268.537 225.283 276.139C217.623 283.8 208.783 289.752 198.883 293.995C188.571 298.296 177.669 300.536 166.414 300.536ZM166.473 119.802H166.237C144.021 119.979 128.523 137.834 122.689 144.611C122.276 145.082 121.982 145.436 121.628 145.789L121.216 146.261C118.682 149.148 118.328 149.502 111.728 156.337H111.669C94.4031 171.895 84.4442 194.111 84.4442 217.329C84.4442 262.527 121.216 299.239 166.355 299.239C211.494 299.239 248.266 262.468 248.266 217.329C248.266 193.698 238.071 171.187 220.275 155.63L220.216 155.571C213.91 149.03 213.851 148.971 210.964 145.73C210.669 145.377 210.316 144.964 209.903 144.552C204.187 137.834 188.748 119.979 166.473 119.802Z" fill="#323A50"/>
<path opacity="0.83" d="M210.315 155.63C212.319 153.509 212.967 151.388 209.903 147.97C204.776 142.195 189.513 122.866 166.354 122.63H166.119C142.96 122.807 127.697 142.136 122.57 147.97C119.565 151.446 121.156 153.921 121.804 155.395C123.749 159.107 126.637 159.755 127.403 159.284C132.824 155.984 135.535 147.321 141.663 145.318C141.84 145.259 150.679 141.075 165.529 140.957C165.588 140.957 175.606 140.898 185.035 143.845C193.815 146.202 199.295 155.571 204.776 158.871C206.603 159.873 208.724 157.28 210.315 155.63Z" fill="url(#paint0_linear_3670_7730)"/>
<path d="M166.177 292.698C124.279 292.698 90.3359 258.755 90.3359 216.857C90.3359 192.225 102.122 170.304 120.331 156.455" fill="#DBDBDB"/>
<path d="M166.118 293.111C155.747 293.111 145.847 291.107 136.477 287.1C127.402 283.27 119.27 277.789 112.258 270.777C105.245 263.764 99.7649 255.632 95.9345 246.557C91.9863 237.129 89.9238 227.17 89.9238 216.857C89.9238 204.718 92.6935 193.168 98.1149 182.443C103.301 172.189 110.902 163.114 120.036 156.161L120.508 156.809C101.592 171.187 90.6899 193.109 90.6899 216.916C90.6899 258.52 124.515 292.345 166.118 292.345V293.111Z" fill="#323A50"/>
<path d="M166.178 286.393C204.582 286.393 235.714 255.261 235.714 216.857C235.714 178.453 204.582 147.321 166.178 147.321C127.775 147.321 96.6426 178.453 96.6426 216.857C96.6426 255.261 127.775 286.393 166.178 286.393Z" fill="#DBDBDB"/>
<path d="M166.178 286.746C147.498 286.746 129.996 279.498 116.796 266.298C103.596 253.098 96.3477 235.537 96.3477 216.916C96.3477 198.295 103.596 180.734 116.796 167.534C129.996 154.334 147.557 147.086 166.178 147.086C184.858 147.086 202.36 154.334 215.56 167.534C228.76 180.734 236.008 198.295 236.008 216.916C236.008 235.537 228.76 253.098 215.56 266.298C202.36 279.439 184.799 286.746 166.178 286.746ZM166.178 147.616C127.992 147.616 96.9369 178.671 96.9369 216.857C96.9369 255.043 127.992 286.098 166.178 286.098C204.364 286.098 235.419 255.043 235.419 216.857C235.419 178.671 204.364 147.616 166.178 147.616Z" fill="#323A50"/>
<g opacity="0.1">
<path d="M226.64 244.613L226.168 244.554C225.873 246.911 219.038 250.093 217.506 250.329C216.916 250.446 216.563 250.27 216.209 250.152C215.679 249.975 215.207 249.739 214.265 250.27C212.732 251.213 207.429 256.988 206.25 259.875C205.072 262.763 204.365 264.236 201.654 265.355C200.24 265.945 198 265.945 195.643 265.945C193.522 265.945 191.282 265.945 189.515 266.416C186.922 267.123 184.447 268.302 183.268 268.891C183.916 268.184 184.506 267.477 185.095 266.77C186.156 265.532 187.098 264.413 187.688 264C188.454 263.411 191.223 263.175 194.17 262.821C198.118 262.409 202.597 261.938 204.011 260.582C205.602 259.109 207.782 253.511 209.609 248.973C210.552 246.557 211.377 244.495 211.907 243.67C212.438 242.786 213.911 241.784 215.502 240.723C218.154 238.955 221.218 236.893 221.159 234.477H220.688C220.747 236.657 217.8 238.602 215.207 240.311C213.498 241.43 212.025 242.432 211.436 243.375C210.906 244.259 210.081 246.321 209.138 248.738C207.37 253.216 205.131 258.755 203.657 260.17C203.127 260.641 202.066 261.054 200.77 261.348C201.595 260.877 202.656 260.17 203.363 259.227C204.659 257.577 205.779 253.688 206.309 251.625C206.427 251.271 206.486 250.977 206.545 250.741C206.722 250.093 206.486 249.68 206.25 249.268C205.956 248.796 205.661 248.325 205.838 247.146C206.073 245.85 206.781 245.32 207.606 244.789C208.136 244.377 208.666 244.023 209.079 243.375C210.081 241.784 209.432 240.193 209.138 239.309V239.25C208.902 238.661 208.372 238.72 207.959 238.72C207.547 238.779 207.311 238.779 207.193 238.543C207.075 238.307 207.37 237.836 207.723 237.364C208.195 236.657 208.784 235.891 208.431 235.125L208.018 235.302C208.254 235.832 207.782 236.48 207.37 237.07C206.898 237.718 206.545 238.307 206.84 238.779C207.134 239.309 207.665 239.25 208.077 239.191C208.49 239.132 208.666 239.132 208.784 239.368V239.427C209.138 240.252 209.609 241.725 208.784 243.08C208.431 243.611 207.959 243.964 207.429 244.377C206.604 244.966 205.779 245.555 205.484 247.029C205.248 248.384 205.602 248.973 205.956 249.445C206.191 249.798 206.309 250.034 206.191 250.505C206.132 250.682 206.073 251.036 205.956 251.389C205.425 253.275 204.306 257.282 203.068 258.814C201.654 260.582 199.238 261.466 199.002 261.584C197.47 261.82 195.761 261.996 194.111 262.173C190.988 262.527 188.336 262.821 187.393 263.411C186.745 263.882 185.802 265.002 184.741 266.298C182.62 268.773 179.732 272.191 177.729 272.073C176.668 272.014 175.548 271.779 174.37 271.543C171.954 271.071 169.243 270.482 166.356 271.013C160.286 272.132 158.282 273.311 157.104 274.725C155.925 276.08 155.336 277.848 155.336 277.907L155.748 278.084C155.748 278.084 156.338 276.316 157.457 275.02C158.577 273.664 160.581 272.545 166.473 271.425C169.302 270.895 171.954 271.425 174.311 271.955C175.548 272.191 176.668 272.427 177.729 272.545C179.202 272.663 180.97 271.189 182.738 269.363L182.797 269.539C182.856 269.539 186.156 267.654 189.632 266.711C191.341 266.239 193.522 266.239 195.643 266.239C198.059 266.239 200.298 266.239 201.831 265.65C204.718 264.53 205.484 262.821 206.663 259.934C207.782 257.223 213.027 251.448 214.5 250.564C215.207 250.093 215.561 250.27 216.032 250.446C216.445 250.623 216.857 250.8 217.565 250.682C219.273 250.564 226.286 247.264 226.64 244.613Z" fill="#323A50"/>
<path d="M171.069 255.573C170.303 256.398 170.421 257.812 170.539 259.403C170.657 260.936 170.833 262.645 170.126 264.059C168.771 266.828 162.76 269.009 162.701 269.009L162.819 269.48C163.055 269.421 169.065 267.241 170.539 264.295C171.246 262.762 171.128 260.995 171.01 259.403C170.892 257.93 170.774 256.634 171.423 255.986C172.13 255.278 174.664 254.689 176.903 254.218C179.496 253.628 181.676 253.098 182.265 252.391C182.796 251.684 182.914 251.036 182.973 250.446C183.09 249.798 183.149 249.327 183.739 248.914C184.033 248.737 185.565 248.796 187.215 248.914C191.753 249.15 198.589 249.562 201.005 246.203C202.949 243.493 202.301 241.548 201.712 239.78C201.24 238.366 200.828 237.187 201.712 235.714C202.36 234.536 203.598 234.182 204.953 233.711C207.605 232.886 210.846 231.825 212.967 225.048C213.439 223.457 213.203 221.807 212.967 220.216C212.614 218.153 212.319 216.15 213.557 214.323L213.144 214.087C211.789 216.091 212.142 218.271 212.437 220.334C212.673 221.925 212.908 223.457 212.437 224.93C210.433 231.471 207.251 232.473 204.717 233.298C203.244 233.77 202.007 234.182 201.24 235.478C200.298 237.128 200.769 238.543 201.24 239.957C201.83 241.666 202.419 243.434 200.592 245.968C198.294 249.15 191.34 248.737 187.157 248.502C185.565 248.443 184.564 248.384 183.974 248.443C184.21 247.795 184.387 246.911 184.564 245.85C184.858 244.082 185.212 242.078 186.273 240.959C186.803 240.428 187.51 240.193 188.512 239.898C190.81 239.25 193.992 238.307 196.526 231.825V231.766C196.998 229.527 196.467 227.936 195.937 226.993C195.701 226.58 195.23 226.345 194.758 226.168C194.228 225.932 193.639 225.637 193.167 224.93C192.342 223.693 191.989 216.798 192.283 215.502C192.283 215.384 192.342 215.325 192.342 215.325C192.401 215.266 192.696 215.384 192.932 215.443C193.639 215.678 194.876 216.15 196.349 215.089L196.114 214.677C194.817 215.62 193.815 215.266 193.108 214.971C192.696 214.853 192.401 214.736 192.165 214.853C192.048 214.912 191.93 215.089 191.871 215.325C191.635 216.621 191.871 223.693 192.814 225.107C193.344 225.873 194.051 226.227 194.582 226.462C194.994 226.639 195.348 226.816 195.524 227.111C195.996 227.936 196.526 229.409 196.055 231.53C193.639 237.777 190.574 238.661 188.394 239.368C187.392 239.662 186.567 239.898 185.978 240.546C184.858 241.784 184.505 243.846 184.151 245.673C183.974 246.911 183.739 248.03 183.385 248.561C182.737 249.032 182.619 249.68 182.501 250.328C182.383 250.918 182.324 251.448 181.853 252.096C181.382 252.745 178.907 253.275 176.785 253.746C174.192 254.218 171.835 254.748 171.069 255.573Z" fill="#323A50"/>
<path d="M171.718 209.02C172.308 209.668 172.779 210.139 172.484 211.554C172.308 212.496 171.777 213.852 171.188 215.266C170.186 217.8 169.185 220.452 169.656 221.63C169.892 222.22 170.245 222.632 170.599 223.045C171.306 223.87 172.072 224.813 171.718 227.405C171.365 229.527 170.304 231.177 169.361 232.473C168.595 233.652 167.888 234.654 168.006 235.596C168.065 236.363 168.477 236.893 168.89 237.364C169.597 238.248 170.363 239.191 169.361 241.548C168.595 243.375 167.535 243.846 166.71 244.2C165.826 244.613 165.001 244.966 165.295 246.675C165.59 248.502 166.768 249.739 167.888 250.859C168.713 251.684 169.538 252.568 170.127 253.688L170.54 253.511C169.951 252.332 169.126 251.448 168.242 250.564C167.122 249.445 166.061 248.325 165.767 246.675C165.531 245.32 166.002 245.084 166.945 244.671C167.829 244.259 169.008 243.788 169.892 241.784C171.011 239.191 170.127 238.071 169.302 237.129C168.89 236.598 168.536 236.186 168.477 235.596C168.418 234.83 169.008 233.888 169.774 232.768C170.717 231.413 171.836 229.704 172.19 227.464C172.661 224.577 171.777 223.575 171.011 222.691C170.658 222.279 170.363 221.925 170.186 221.395C169.774 220.334 170.835 217.682 171.718 215.325C172.308 213.911 172.838 212.496 173.015 211.495C173.368 209.845 172.779 209.196 172.131 208.548C171.718 208.077 171.247 207.664 171.07 206.721L170.599 206.839C170.776 208.018 171.306 208.548 171.718 209.02Z" fill="#323A50"/>
<path d="M174.074 272.721C172.483 271.955 168.476 271.602 166.06 272.073C163.703 272.486 159.578 273.429 157.928 275.196C157.044 276.198 156.16 278.143 156.16 278.202L156.573 278.379C156.573 278.379 157.398 276.434 158.282 275.491C159.873 273.782 164.292 272.839 166.178 272.545C168.771 272.073 172.542 272.545 173.898 273.193C175.371 273.9 175.901 274.961 175.96 275.491C176.137 277.141 173.426 278.614 173.426 278.614L173.603 279.027C173.721 278.968 176.667 277.377 176.373 275.432C176.314 274.607 175.607 273.429 174.074 272.721Z" fill="#323A50"/>
<path d="M175.314 244.2C176.139 244.553 176.964 244.848 177.494 245.614C178.142 246.498 179.439 248.796 177.671 250.8C176.964 251.625 175.196 252.273 173.487 252.862C171.778 253.452 170.246 254.041 169.715 254.807C169.185 255.632 169.244 257.046 169.362 258.696C169.48 260.17 169.539 261.702 169.244 262.88C168.537 265.296 162.467 268.184 162.408 268.243L162.585 268.655C162.821 268.537 168.89 265.65 169.656 262.998C170.01 261.702 169.892 260.111 169.774 258.637C169.656 257.164 169.598 255.75 170.01 255.043C170.423 254.395 172.014 253.805 173.546 253.275C175.314 252.627 177.14 251.978 177.906 251.036C179.262 249.445 179.203 247.323 177.73 245.261C177.14 244.436 176.197 244.023 175.372 243.728C174.547 243.375 173.722 243.08 173.428 242.314C172.721 240.782 173.251 239.073 174.194 238.484C174.43 238.307 174.724 238.189 174.96 238.012C175.785 237.482 176.669 237.011 177.73 235.832C179.144 234.3 181.737 228.112 182.267 225.107C182.562 223.339 182.09 222.573 181.56 221.748C181.147 221.1 180.735 220.452 180.617 219.155L180.146 219.214C180.264 220.57 180.735 221.336 181.148 221.984C181.619 222.75 182.031 223.457 181.796 225.048C181.324 227.995 178.79 234.064 177.376 235.537C176.374 236.657 175.49 237.128 174.724 237.6C174.489 237.777 174.194 237.895 173.958 238.071C172.839 238.778 172.19 240.782 173.015 242.491C173.487 243.493 174.371 243.846 175.314 244.2Z" fill="#323A50"/>
</g>
<g opacity="0.1">
<path d="M155.218 270.895C155.042 269.657 153.627 268.656 152.213 267.713C151.093 266.947 149.443 266.004 147.911 265.179C146.615 264.472 145.436 263.823 145.024 263.47C144.906 263.411 144.788 263.234 144.67 263.057C143.963 261.938 143.433 259.227 143.551 257.047C143.61 255.809 143.492 254.866 143.433 254.1C143.315 253.275 143.256 252.686 143.492 252.156C143.668 251.743 143.963 251.684 144.435 251.625C144.906 251.566 145.554 251.448 145.79 250.682C146.026 250.034 145.908 249.327 145.849 248.62C145.79 247.913 145.672 247.323 145.967 246.852C146.261 246.439 146.556 246.322 146.968 246.204C147.381 246.027 147.852 245.85 148.265 245.261C148.618 244.731 148.147 244.023 147.558 243.198C146.674 241.961 145.495 240.193 146.026 238.072C146.556 235.773 147.263 235.832 148.265 236.009C148.736 236.068 149.326 236.186 149.856 235.95C150.799 235.597 151.683 233.534 152.567 231.413C153.274 229.763 153.981 228.054 154.57 227.582C155.277 227.052 155.867 226.934 156.456 226.816C157.045 226.698 157.576 226.639 157.988 226.05C158.518 225.402 158.224 224.518 157.988 223.752C157.87 223.281 157.693 222.809 157.811 222.573L157.399 222.338C157.222 222.75 157.34 223.222 157.517 223.87C157.693 224.518 157.929 225.284 157.576 225.756C157.222 226.168 156.868 226.227 156.279 226.345C155.69 226.463 154.983 226.581 154.217 227.17C153.51 227.7 152.802 229.409 152.036 231.177C151.27 233.063 150.386 235.184 149.62 235.479C149.149 235.656 148.677 235.597 148.206 235.538C147.145 235.42 146.085 235.243 145.436 237.954C144.906 240.311 146.143 242.138 147.086 243.434C147.558 244.141 147.97 244.731 147.793 245.025C147.499 245.497 147.145 245.614 146.733 245.791C146.32 245.909 145.908 246.086 145.554 246.616C145.142 247.206 145.26 247.972 145.377 248.679C145.495 249.327 145.554 249.975 145.377 250.506C145.201 251.036 144.788 251.095 144.317 251.154C143.845 251.213 143.315 251.272 143.02 251.979C142.785 252.627 142.843 253.275 142.961 254.159C143.079 254.925 143.138 255.809 143.079 257.047C142.961 258.402 143.138 260.052 143.492 261.407C142.49 259.757 141.193 257.223 141.017 254.748C140.84 252.686 141.252 251.92 141.783 250.859C142.313 249.798 142.961 248.502 143.492 245.614C144.199 241.431 142.372 237.6 141.193 235.597C141.311 235.184 142.136 232.414 144.317 231.648L145.436 231.236C147.499 230.529 149.326 229.881 150.268 229.35C151.506 228.702 152.508 226.581 152.685 225.284C152.802 224.518 152.449 224.047 152.095 223.634C151.801 223.222 151.506 222.868 151.506 222.279C151.565 221.748 152.331 221.218 153.215 220.629C154.452 219.804 156.043 218.743 156.692 216.975C157.458 214.913 156.692 213.97 156.043 213.145C155.69 212.732 155.395 212.379 155.277 211.848L154.865 211.966C154.983 212.556 155.395 213.027 155.69 213.439C156.338 214.264 156.927 215.031 156.279 216.857C155.69 218.448 154.217 219.45 152.979 220.275C151.918 220.982 151.152 221.513 151.093 222.22C151.035 223.045 151.447 223.516 151.742 223.929C152.095 224.341 152.331 224.636 152.213 225.225C151.977 226.581 150.976 228.466 150.033 228.938C149.09 229.409 147.263 230.057 145.26 230.764L144.14 231.177C142.136 231.884 141.193 234.123 140.899 235.066C140.486 234.477 140.251 234.123 140.192 234.064C140.133 234.006 135.949 230.175 134.122 227.288C132.236 224.341 132.295 221.925 133.297 221.1C133.827 220.629 134.888 220.57 136.185 220.511C137.363 220.452 138.66 220.393 139.779 219.981C141.547 219.332 142.785 216.798 143.138 216.032C143.668 214.913 144.14 213.439 143.845 212.732C143.374 211.436 141.429 211.023 141.311 210.964L141.252 211.436C141.252 211.436 143.079 211.848 143.433 212.85C143.551 213.263 143.374 214.382 142.726 215.856C142.077 217.329 140.899 219.097 139.602 219.568C138.483 219.981 137.245 220.039 136.126 220.098C134.829 220.157 133.651 220.216 133.002 220.747C131.883 221.689 131.647 224.282 133.768 227.523C135.595 230.411 139.661 234.123 139.897 234.359C140.133 234.654 144.081 239.781 143.079 245.497C142.608 248.325 141.96 249.622 141.429 250.623C141.311 250.859 141.193 251.095 141.076 251.331C140.545 249.916 140.604 249.091 140.663 248.443C140.722 247.5 140.663 246.97 139.367 246.145C137.658 245.084 134.358 244.907 132.236 244.789C131.352 244.731 130.586 244.672 130.292 244.613C128.936 244.259 128.229 243.67 127.876 242.491C127.581 241.489 127.817 241.195 128.288 240.664C128.406 240.547 128.524 240.37 128.701 240.193C128.877 239.957 129.231 239.722 129.585 239.545C130.41 239.073 131.529 238.425 131.411 236.775C131.352 235.361 130.41 234.889 129.467 234.359C128.818 234.006 128.17 233.711 127.699 233.004C126.461 231.354 124.988 226.581 124.752 224.047C124.458 221.159 124.988 215.738 125.46 215.384C125.636 215.325 126.402 215.679 126.992 215.973C128.111 216.504 129.467 217.152 130.468 216.916C130.645 216.857 130.763 216.857 130.94 216.798C132.177 216.504 132.295 216.386 132.236 215.148C132.177 214.264 131.529 214.147 130.999 214.088C130.586 214.029 130.292 213.97 130.056 213.675C129.585 213.086 129.761 210.847 129.82 210.022L129.349 209.963C129.29 210.316 128.995 213.086 129.643 213.911C129.997 214.323 130.468 214.382 130.881 214.441C131.47 214.559 131.706 214.618 131.765 215.089C131.824 215.561 131.824 215.797 131.706 215.914C131.588 216.032 131.293 216.091 130.822 216.209C130.704 216.268 130.527 216.268 130.351 216.327C129.526 216.504 128.229 215.914 127.168 215.443C126.167 214.972 125.636 214.736 125.283 214.854C124.34 215.207 124.045 221.748 124.222 223.988C124.458 226.698 125.931 231.472 127.286 233.239C127.817 233.947 128.583 234.359 129.172 234.713C130.056 235.184 130.822 235.538 130.881 236.716C130.94 238.072 130.115 238.543 129.231 239.073C128.818 239.309 128.465 239.545 128.229 239.839C128.111 240.016 127.993 240.193 127.876 240.311C127.404 240.841 127.051 241.313 127.404 242.55C127.817 243.906 128.642 244.672 130.174 245.025C130.468 245.084 130.881 245.143 131.47 245.143C131.117 245.379 130.763 245.379 130.351 245.379C129.938 245.379 129.467 245.32 128.995 245.673C128.229 246.204 128.701 247.088 129.054 247.736C129.172 248.031 129.349 248.325 129.349 248.502C129.349 248.62 129.29 248.738 129.172 248.856C128.936 249.032 128.465 249.091 127.817 249.032C127.11 248.914 126.108 247.854 125.518 247.206C125.283 246.97 125.106 246.734 124.988 246.675C124.752 246.498 124.399 246.498 124.104 246.557C123.751 246.616 123.338 246.616 122.985 246.381C122.808 246.263 122.631 246.027 122.631 245.732C122.572 245.202 122.808 244.613 122.985 244.436C123.043 244.377 123.22 244.377 123.456 244.377C123.751 244.377 124.104 244.377 124.399 244.141C124.87 243.729 125.047 243.081 124.988 242.079C124.929 241.489 124.458 241.489 124.045 241.489C123.574 241.489 123.043 241.431 122.808 240.782C122.631 240.311 122.867 239.839 123.22 239.25C123.751 238.366 124.399 237.247 123.456 235.597C122.395 233.652 121.217 233.829 120.392 234.006C120.097 234.064 119.802 234.123 119.626 234.064C119.449 234.006 119.331 233.888 119.331 233.829C119.272 233.652 119.39 233.475 119.449 233.416L119.095 233.181C119.095 233.239 118.801 233.593 118.918 234.006C118.977 234.241 119.154 234.477 119.508 234.595C119.802 234.713 120.156 234.654 120.51 234.595C121.276 234.477 122.218 234.241 123.102 235.95C123.868 237.364 123.338 238.307 122.867 239.132C122.513 239.781 122.16 240.37 122.395 241.018C122.749 241.961 123.515 242.02 124.045 242.02C124.517 242.02 124.576 242.079 124.576 242.197C124.635 243.022 124.517 243.611 124.163 243.906C123.986 244.023 123.751 244.023 123.515 244.023C123.22 244.023 122.926 244.023 122.69 244.259C122.454 244.495 122.16 245.261 122.277 245.909C122.336 246.322 122.513 246.675 122.808 246.911C123.338 247.264 123.868 247.264 124.222 247.206C124.517 247.206 124.693 247.147 124.811 247.264C124.929 247.323 125.047 247.559 125.283 247.795C125.931 248.502 126.992 249.681 127.817 249.798C127.817 249.798 127.817 249.798 127.876 249.798C128.642 249.916 129.231 249.798 129.585 249.504C129.761 249.327 129.879 249.091 129.938 248.797C129.938 248.502 129.761 248.207 129.585 247.795C129.231 247.088 128.995 246.616 129.408 246.322C129.761 246.086 130.056 246.086 130.468 246.086C130.999 246.086 131.647 246.145 132.177 245.438C132.236 245.438 132.295 245.438 132.295 245.438C134.417 245.556 137.658 245.791 139.249 246.734C140.368 247.441 140.368 247.795 140.31 248.62C140.251 249.386 140.192 250.388 140.958 252.156C140.722 252.863 140.604 253.688 140.722 255.043C141.017 259.168 144.199 263.293 144.435 263.588C144.552 263.764 144.729 263.941 144.847 264.059C145.318 264.413 146.497 265.061 147.793 265.827C149.267 266.652 150.976 267.595 152.036 268.361C153.333 269.245 154.688 270.247 154.865 271.307C154.924 271.779 154.806 272.309 154.335 272.839C152.802 274.902 150.799 282.268 150.74 282.504L151.211 282.563C151.27 282.091 153.215 275.079 154.688 273.134C155.16 272.132 155.336 271.543 155.218 270.895Z" fill="#323A50"/>
<path d="M152.095 272.78C151.447 270.541 148.265 268.184 147.204 267.477C144.906 266.062 139.662 265.768 137.245 266.298C136.126 266.534 135.36 266.887 134.653 267.241C133.887 267.595 133.238 267.948 132.354 267.948C130.528 267.948 129.526 268.184 128.642 268.832C128.465 268.95 128.406 269.127 128.406 269.245C128.406 269.598 128.76 269.952 129.113 270.305C129.408 270.541 129.82 270.954 129.762 271.13C129.762 271.248 129.644 271.307 129.526 271.366C128.347 272.014 127.404 271.13 127.404 271.071L127.051 271.425C127.051 271.425 128.229 272.604 129.703 271.837C129.997 271.661 130.115 271.484 130.174 271.248C130.233 270.777 129.761 270.423 129.408 270.011C129.172 269.775 128.819 269.48 128.819 269.304L128.878 269.245C129.644 268.655 130.587 268.479 132.295 268.479C133.297 268.479 134.004 268.125 134.829 267.712C135.478 267.359 136.244 267.005 137.304 266.829C139.603 266.357 144.729 266.652 146.91 267.948C148.206 268.714 151.094 271.012 151.624 272.957C151.742 273.487 151.506 274.43 151.153 275.196C149.385 279.321 148.795 282.209 148.795 282.268L149.208 282.327C149.208 282.327 149.797 279.38 151.565 275.373C151.86 274.843 152.331 273.605 152.095 272.78Z" fill="#323A50"/>
<path d="M153.155 272.427C153.038 271.602 152.213 270.718 151.918 270.364C151.859 270.306 151.859 270.306 151.859 270.306C150.209 268.361 147.793 266.475 146.202 265.886C145.73 265.709 145.2 265.591 144.552 265.473C142.018 264.236 139.484 263.764 137.127 263.293C135.83 263.057 134.475 262.763 133.179 262.409C129.584 261.348 123.573 255.397 123.338 255.102C123.161 254.866 119.095 249.681 118.682 247.913C118.505 247.147 117.621 243.257 117.209 242.197C116.796 241.254 111.67 239.545 110.609 239.191C108.134 239.073 104.421 238.838 104.127 238.602C103.714 238.307 103.243 236.893 103.361 236.304C103.361 236.068 103.655 235.891 103.95 235.714C104.421 235.42 104.952 235.007 105.07 234.3C105.129 233.77 104.775 232.238 104.127 229.704C103.538 227.288 102.771 224.047 102.948 223.457C103.125 222.927 103.479 222.868 103.773 222.75C104.127 222.691 104.48 222.573 104.598 222.043C104.657 221.866 104.539 221.689 104.48 221.631C104.245 221.395 103.714 221.395 103.007 221.454C102.3 221.513 101.357 221.572 101.004 221.218L100.709 221.572C101.239 222.043 102.182 221.984 103.007 221.925C103.42 221.925 104.009 221.866 104.127 221.984C104.068 222.22 104.009 222.22 103.655 222.338C103.302 222.456 102.771 222.573 102.477 223.339C102.241 223.988 102.771 226.345 103.655 229.822C104.127 231.766 104.657 233.829 104.539 234.3C104.48 234.831 104.009 235.125 103.596 235.42C103.184 235.656 102.83 235.95 102.771 236.363C102.654 237.07 103.184 238.72 103.773 239.073C104.245 239.427 108.959 239.663 110.491 239.722C113.438 240.664 116.561 241.961 116.738 242.432C117.091 243.257 117.739 245.909 118.152 248.089C118.564 249.975 122.748 255.22 122.925 255.456C123.161 255.691 129.23 261.761 132.943 262.881C134.298 263.293 135.654 263.529 136.95 263.764C138.836 264.118 140.839 264.531 142.843 265.297C141.723 265.179 140.486 265.12 139.366 265.002C138.364 264.943 137.48 264.884 136.714 264.766C131.175 264.177 128.052 263.352 126.048 261.879C123.75 260.288 116.914 254.277 116.384 253.57C116.089 253.157 115.971 252.745 115.795 252.214C115.677 251.802 115.559 251.331 115.323 250.8C114.498 248.914 111.198 246.793 108.841 245.32C107.604 244.554 106.543 243.847 106.307 243.493C105.954 242.963 106.071 242.609 106.248 242.138C106.366 241.784 106.543 241.431 106.543 240.959H106.071C106.071 241.372 105.954 241.666 105.836 241.961C105.6 242.491 105.423 242.963 105.895 243.729C106.189 244.141 107.191 244.789 108.546 245.673C110.845 247.147 114.027 249.209 114.852 250.977C115.088 251.448 115.205 251.92 115.323 252.332C115.5 252.922 115.618 253.393 115.971 253.864C116.561 254.572 123.455 260.641 125.754 262.232C127.816 263.706 130.998 264.589 136.655 265.179C137.363 265.238 138.305 265.297 139.307 265.414C141.782 265.591 144.552 265.827 145.966 266.298C147.439 266.829 149.796 268.656 151.446 270.541C151.446 270.541 151.505 270.6 151.505 270.659C151.741 270.954 152.566 271.838 152.625 272.486C152.743 273.134 152.271 274.372 151.623 276.139C151.034 277.789 150.268 279.793 149.62 282.268L150.032 282.386C150.68 279.911 151.388 277.907 152.036 276.316C152.802 274.431 153.214 273.193 153.155 272.427Z" fill="#323A50"/>
<path d="M106.13 209.786C106.071 210.139 105.717 210.67 105.305 211.259C104.598 212.379 103.773 213.616 104.244 214.559C104.539 215.089 105.246 215.561 106.071 216.091C107.603 217.093 109.548 218.389 110.314 220.688C111.551 224.4 114.674 231 114.733 231.059V231.118C114.792 231.177 118.623 236.363 117.267 241.43L117.68 241.548C119.035 236.422 115.381 231.295 115.087 230.882C115.087 230.823 114.969 230.647 114.851 230.411C115.381 230.293 116.56 229.939 117.326 228.938C117.915 228.172 118.151 227.17 118.033 225.932C117.798 223.87 116.796 221.984 115.912 220.275C115.146 218.802 114.498 217.564 114.615 216.68C114.674 215.914 115.146 215.797 115.735 215.561C116.442 215.384 117.326 215.089 117.503 213.557C117.68 211.907 116.56 211.2 115.617 210.67C114.91 210.198 114.439 209.904 114.498 209.373C114.615 207.9 116.737 205.838 116.737 205.838L116.442 205.484C116.383 205.543 114.203 207.664 114.085 209.314C114.026 210.139 114.733 210.611 115.44 211.023C116.324 211.554 117.267 212.143 117.09 213.498C116.973 214.736 116.324 214.913 115.676 215.089C115.028 215.266 114.321 215.502 114.262 216.563C114.203 217.623 114.851 218.92 115.617 220.393C116.442 222.043 117.444 223.929 117.68 225.873C117.798 226.934 117.621 227.818 117.09 228.525C116.324 229.527 115.146 229.822 114.733 229.88C113.849 227.936 111.728 223.339 110.785 220.511C109.96 218.036 107.898 216.68 106.365 215.62C105.599 215.089 104.892 214.618 104.656 214.205C104.244 213.498 105.01 212.379 105.658 211.377C106.13 210.729 106.483 210.139 106.542 209.727C106.601 209.079 106.012 208.136 105.246 207.075C104.598 206.073 103.831 204.954 103.714 204.129L103.242 204.188C103.36 205.072 104.126 206.191 104.833 207.311C105.54 208.372 106.189 209.373 106.13 209.786Z" fill="#323A50"/>
<path d="M150.503 274.313C149.973 273.075 148.381 272.073 147.262 271.366C146.79 271.071 146.437 270.836 146.26 270.659C146.083 270.482 146.083 270.305 146.024 270.129C145.906 269.598 145.73 269.127 144.61 268.714C142.901 268.007 138.835 267.654 137.48 268.538C136.949 268.891 136.89 269.304 136.89 269.657C137.008 270.6 138.128 271.425 139.189 271.779C139.896 272.014 139.955 272.78 140.014 273.546C140.073 274.195 140.131 274.843 140.603 275.255C140.956 275.491 141.074 275.727 141.015 275.904C140.956 276.139 140.544 276.434 139.66 276.552C138.364 276.67 136.36 276.139 136.36 276.139L136.242 276.611C136.301 276.611 138.305 277.141 139.719 277.023C140.721 276.905 141.369 276.552 141.487 276.021C141.605 275.609 141.369 275.196 140.898 274.843C140.544 274.607 140.544 274.077 140.485 273.488C140.426 272.721 140.367 271.661 139.365 271.366C138.305 271.013 137.421 270.246 137.362 269.598C137.362 269.363 137.48 269.127 137.715 268.95C138.894 268.243 142.724 268.479 144.433 269.186C145.435 269.598 145.494 269.952 145.612 270.305C145.671 270.541 145.73 270.836 146.024 271.071C146.201 271.248 146.614 271.543 147.085 271.838C148.146 272.486 149.678 273.546 150.149 274.607C150.503 275.373 150.09 276.198 149.56 277.377C149.089 278.496 148.44 279.852 148.205 281.679L148.676 281.738C148.912 279.97 149.501 278.614 150.031 277.554C150.503 276.198 150.974 275.255 150.503 274.313Z" fill="#323A50"/>
</g>
<g opacity="0.34">
<path d="M166.296 284.095C203.755 284.095 234.122 253.886 234.122 216.621C234.122 179.357 203.755 149.148 166.296 149.148C128.836 149.148 98.4688 179.357 98.4688 216.621C98.4688 253.886 128.836 284.095 166.296 284.095Z" fill="url(#paint1_radial_3670_7730)"/>
<path d="M166.06 284.684C147.91 284.684 130.821 277.671 117.974 264.825C105.128 252.038 98.0566 235.007 98.0566 216.975C98.0566 198.943 105.128 181.913 117.974 169.125C130.821 156.338 147.91 149.266 166.06 149.266C184.21 149.266 201.299 156.279 214.146 169.125C226.992 181.913 234.064 198.943 234.064 216.975C234.064 235.007 226.992 252.038 214.146 264.825C201.299 277.671 184.21 284.684 166.06 284.684ZM166.06 149.738C128.758 149.738 98.4691 179.909 98.4691 217.034C98.4691 254.159 128.817 284.33 166.06 284.33C203.362 284.33 233.651 254.159 233.651 217.034C233.651 179.909 203.303 149.738 166.06 149.738Z" fill="#323A50"/>
</g>
<path d="M166.649 142.136C153.096 142.136 142.724 150.739 141.546 165.648C141.487 166.355 141.605 166.238 141.605 165.707C141.605 160.168 152.565 157.28 166.119 157.28C179.673 157.28 190.633 160.168 190.633 165.707C190.633 166.12 190.633 166.179 190.692 165.766C190.869 152.625 180.203 142.136 166.649 142.136Z" fill="#293C4F"/>
<path d="M148.617 150.68C148.617 150.798 148.499 150.032 148.558 149.207C148.617 148.618 148.793 147.911 149.088 147.38C149.383 146.85 149.736 146.32 150.208 145.848C150.208 145.848 150.267 145.848 150.267 145.789C153.036 142.961 158.929 141.016 165.706 141.016C175.135 141.016 182.854 144.728 182.854 149.325C182.854 149.325 182.854 149.914 182.795 150.327C182.736 151.093 182.442 151.8 181.97 152.448L204.952 158.753C204.952 158.282 204.952 159.225 204.952 157.457C204.952 145.966 187.51 136.655 166.001 136.655C144.492 136.655 127.049 145.966 127.049 157.457C127.049 158.105 127.108 158.812 127.226 159.461L149.795 152.743C149.442 152.33 148.735 151.27 148.617 150.68Z" fill="#DBDBDB"/>
<path d="M126.931 160.05L126.872 159.578C126.754 158.871 126.695 158.223 126.695 157.516C126.695 151.8 130.82 146.437 138.304 142.489C145.729 138.541 155.57 136.361 166.001 136.361C176.431 136.361 186.272 138.541 193.697 142.489C201.181 146.496 205.306 151.859 205.306 157.516C205.306 158.046 205.306 158.341 205.306 158.518C205.306 158.577 205.306 158.636 205.306 158.695H205.247C205.247 158.695 205.188 158.753 205.188 158.812V159.343L181.204 152.743L181.558 152.271C182.029 151.623 182.265 150.975 182.324 150.327C182.383 149.855 182.383 149.325 182.383 149.325C182.383 144.964 174.899 141.428 165.647 141.428C159.224 141.428 153.272 143.255 150.502 146.025L150.444 146.084C149.972 146.555 149.677 147.027 149.383 147.498C149.147 147.97 148.911 148.618 148.852 149.148C148.794 149.678 148.852 150.209 148.852 150.386V150.503C148.97 150.916 149.324 151.564 150.031 152.566L150.385 153.037L126.931 160.05ZM166.001 137.186C144.786 137.186 127.461 146.32 127.461 157.575C127.461 158.046 127.52 158.577 127.579 159.048L149.206 152.625C148.794 151.977 148.381 151.328 148.204 150.798C148.027 150.327 148.145 149.148 148.145 149.148C148.204 148.5 148.44 147.793 148.735 147.203C149.029 146.673 149.442 146.084 149.913 145.612L149.972 145.553C152.919 142.548 158.929 140.662 165.647 140.662C170.302 140.662 174.663 141.546 177.963 143.137C181.322 144.787 183.208 147.027 183.208 149.384C183.208 149.443 183.208 149.973 183.149 150.445C183.09 151.093 182.913 151.682 182.56 152.33L204.481 158.341C204.481 158.164 204.481 157.928 204.481 157.575C204.54 146.32 187.274 137.186 166.001 137.186Z" fill="#323A50"/>
<path opacity="0.52" d="M165.706 143.196C174.486 143.196 181.735 146.438 182.795 150.621C182.854 150.268 182.913 149.973 182.913 149.62C182.913 144.964 175.193 141.193 165.706 141.193C156.218 141.193 148.499 144.964 148.499 149.62C148.499 149.796 148.44 150.091 148.499 150.209C148.499 150.268 148.499 150.975 148.852 151.977C149.029 152.507 149.677 152.743 149.736 152.625C148.676 151.329 148.676 150.327 148.735 150.209C150.149 146.261 157.22 143.196 165.706 143.196Z" fill="url(#paint2_linear_3670_7730)"/>
<path d="M165.707 144.198C174.429 144.198 180.97 147.97 182.03 152.684C182.914 151.329 182.855 150.209 182.855 149.914C182.855 145.259 175.195 141.252 165.766 141.252C156.337 141.252 148.618 144.729 148.5 150.032C148.5 150.386 148.795 152.684 149.737 152.684C149.737 147.381 156.986 144.198 165.707 144.198Z" fill="#DBDBDB"/>
<path d="M181.854 153.745L181.677 152.802C180.616 148.029 173.957 144.611 165.766 144.611C159.638 144.611 154.452 146.143 151.918 148.736C150.739 149.914 150.209 151.211 150.209 152.684V153.096H149.796C149.62 153.096 149.325 153.038 149.03 152.743C148.323 151.977 148.146 150.268 148.146 150.032C148.205 147.322 150.091 144.964 153.509 143.255C156.691 141.723 161.052 140.839 165.825 140.839C170.421 140.839 174.782 141.782 178.141 143.491C181.5 145.2 183.386 147.498 183.386 149.914V149.973C183.386 150.386 183.386 151.564 182.502 152.92L181.854 153.745ZM165.766 141.664C156.043 141.664 148.971 145.2 148.913 150.032C148.913 150.268 149.089 151.329 149.384 151.918C149.561 150.563 150.15 149.266 151.27 148.146C153.98 145.436 159.343 143.786 165.707 143.786C170.009 143.786 173.898 144.67 176.963 146.32C179.555 147.675 181.382 149.561 182.148 151.682C182.443 150.916 182.443 150.327 182.443 150.032V149.973C182.443 145.436 174.782 141.664 165.766 141.664Z" fill="#323A50"/>
<path d="M166.177 284.92C148.027 284.92 130.938 277.848 118.092 265.002C105.245 252.155 98.1738 235.066 98.1738 216.916C98.1738 201.889 102.947 187.688 112.022 175.784L112.493 176.138C103.536 187.923 98.7631 202.007 98.7631 216.916C98.7631 254.1 128.993 284.33 166.177 284.33C203.361 284.33 233.592 254.041 233.592 216.857C233.592 201.83 228.76 187.629 219.626 175.784L220.097 175.43C229.29 187.393 234.181 201.713 234.181 216.857C234.181 235.007 227.11 252.096 214.263 264.943C201.417 277.848 184.327 284.92 166.177 284.92Z" fill="#323A50"/>
<path d="M149.856 152.684L149.915 155.866L133.71 161.818C133.121 162.054 133.121 162.879 133.71 163.114L133.769 163.173L134.889 163.645C135.242 163.763 135.183 164.293 134.83 164.352L132.531 164.823H132.414C131.353 165.059 131.235 166.473 132.237 166.886L134.594 167.888C135.006 168.064 134.948 168.654 134.535 168.771C132.473 169.243 128.23 170.304 122.042 172.602C101.594 180.734 91.9297 203.304 91.9297 203.304C91.9297 203.304 93.8743 192.579 97.41 185.33C99.6493 180.675 103.185 173.309 110.492 165.236C115.383 159.873 121.924 154.982 121.924 154.982C121.924 154.982 124.281 160.109 127.699 158.989C130.292 157.693 145.614 152.213 149.856 152.684Z" fill="#DBDBDB"/>
<path d="M90.6914 206.839L91.3396 203.245C91.3396 203.127 93.3432 192.402 96.82 185.154C99.0003 180.675 102.595 173.132 109.961 165C114.793 159.638 121.393 154.746 121.452 154.688L121.865 154.393L122.041 154.864C122.041 154.923 123.868 158.813 126.52 158.813C126.756 158.813 127.05 158.754 127.345 158.695C130.056 157.398 144.257 152.271 149.207 152.271C149.443 152.271 149.679 152.271 149.856 152.33L150.209 152.389L150.268 156.22L133.768 162.289C133.591 162.348 133.591 162.466 133.591 162.525C133.591 162.584 133.591 162.702 133.768 162.761L134.947 163.232C135.3 163.35 135.477 163.704 135.418 163.998C135.359 164.352 135.124 164.646 134.77 164.705L132.295 165.236C131.941 165.295 131.765 165.589 131.765 165.825C131.765 166.061 131.824 166.355 132.177 166.532L134.534 167.534C134.888 167.711 135.065 168.005 135.065 168.418C135.006 168.83 134.77 169.125 134.416 169.184C132.413 169.655 128.17 170.716 121.982 173.014C111.552 177.198 103.95 185.213 99.4717 191.282C94.5807 197.823 92.1646 203.48 92.1057 203.539L90.6914 206.839ZM121.629 155.63C120.156 156.75 114.734 160.993 110.609 165.53C103.302 173.545 99.7664 181.029 97.586 185.507C95.2878 190.28 93.6967 196.527 92.8128 200.239C94.0503 197.941 96.0539 194.523 98.8235 190.752C103.361 184.623 111.081 176.432 121.747 172.189C127.934 169.891 132.236 168.83 134.299 168.359C134.299 168.359 134.357 168.359 134.357 168.3C134.357 168.241 134.357 168.241 134.299 168.241L131.941 167.239C131.352 167.004 130.94 166.355 131.057 165.707C131.116 165.059 131.588 164.529 132.236 164.411L134.593 163.88L133.474 163.409C133.061 163.232 132.766 162.82 132.825 162.348C132.825 161.877 133.12 161.523 133.532 161.346L149.502 155.513V152.979C149.443 152.979 149.384 152.979 149.266 152.979C144.434 152.979 130.35 158.046 127.757 159.284H127.699C127.345 159.402 126.991 159.461 126.638 159.461C123.986 159.579 122.218 156.809 121.629 155.63Z" fill="#323A50"/>
<path d="M166.119 293.111V292.286C207.723 292.286 241.607 258.461 241.607 216.857C241.607 193.05 230.764 171.188 211.789 156.75L212.26 156.102C221.453 163.055 228.996 172.189 234.182 182.384C239.603 193.109 242.373 204.718 242.373 216.798C242.373 227.111 240.369 237.07 236.362 246.498C232.532 255.573 227.051 263.764 220.039 270.718C213.026 277.73 204.894 283.211 195.76 287.041C186.391 291.107 176.432 293.111 166.119 293.111Z" fill="#323A50"/>
<path d="M182.03 152.743L181.971 155.925L198.589 161.464C199.178 161.7 199.178 162.525 198.589 162.761L198.53 162.82L197.41 163.291C197.056 163.409 197.115 163.939 197.469 163.998L199.767 164.47H199.885C200.946 164.705 201.064 166.12 200.062 166.532L197.705 167.534C197.292 167.711 197.351 168.3 197.764 168.418C199.826 168.889 204.069 169.95 210.256 172.248C230.705 180.38 240.31 202.479 240.31 202.479C240.31 202.479 238.365 192.225 234.889 184.918C232.649 180.262 229.114 172.896 221.806 164.823C216.915 159.461 209.962 155.277 209.962 155.277C209.962 155.277 208.017 159.696 204.54 158.577C201.947 157.28 186.214 152.212 182.03 152.743Z" fill="#DBDBDB"/>
<path d="M241.548 205.955L240.134 202.655C240.134 202.596 237.659 197.057 232.768 190.634C228.289 184.741 220.746 176.786 210.257 172.602C204.128 170.303 199.826 169.243 197.823 168.83C197.469 168.771 197.175 168.418 197.175 168.064C197.175 167.711 197.351 167.357 197.705 167.18L200.062 166.178C200.416 166.061 200.534 165.707 200.475 165.471C200.475 165.236 200.298 164.941 199.944 164.882L197.469 164.352C197.116 164.293 196.88 163.998 196.821 163.645C196.762 163.291 196.998 162.996 197.293 162.878L198.471 162.407C198.648 162.348 198.648 162.23 198.648 162.171C198.648 162.112 198.648 161.995 198.471 161.936L181.559 156.337L181.618 152.507L181.971 152.448C182.148 152.448 182.443 152.389 182.678 152.389C187.687 152.389 202.125 157.045 204.894 158.4C205.189 158.518 205.543 158.518 205.837 158.518C208.312 158.518 209.785 155.277 209.785 155.277L209.962 154.864L210.375 155.1C210.434 155.159 217.446 159.343 222.278 164.705C229.644 172.837 233.239 180.38 235.419 184.859C238.896 192.107 240.841 202.361 240.9 202.478L241.548 205.955ZM197.705 163.527L200.062 164.057C200.71 164.175 201.182 164.705 201.241 165.353C201.3 166.002 200.946 166.591 200.357 166.886L198 167.887C198 167.887 197.941 167.887 197.941 167.946C197.941 168.005 197.941 168.005 198 168.005C200.003 168.477 204.305 169.537 210.493 171.836C221.159 176.078 228.819 184.152 233.357 190.162C236.126 193.816 238.13 197.175 239.309 199.414C238.484 195.82 236.834 189.809 234.594 185.095C232.473 180.616 228.878 173.132 221.571 165.118C217.446 160.58 211.73 156.809 210.198 155.866C209.668 156.868 208.135 159.166 205.719 159.166C205.307 159.166 204.953 159.107 204.541 158.989H204.482C201.889 157.693 187.569 153.096 182.619 153.096C182.501 153.096 182.443 153.096 182.384 153.096V155.571L198.707 160.993C199.178 161.17 199.414 161.523 199.414 161.995C199.414 162.466 199.178 162.82 198.766 163.055L197.705 163.527Z" fill="#323A50"/>
<path d="M190.81 166.061C190.81 160.522 179.791 157.634 166.237 157.634C152.684 157.634 141.664 160.522 141.664 166.061C141.664 171.6 152.684 177.788 166.237 177.788C179.791 177.788 190.81 171.659 190.81 166.061Z" fill="#DBDBDB"/>
<path d="M166.238 178.2C159.814 178.2 153.568 176.845 148.677 174.37C143.963 172.013 141.252 168.948 141.252 166.061C141.252 163.232 143.845 160.934 148.736 159.343C153.156 157.929 159.225 157.221 166.238 157.221C173.25 157.221 179.32 157.988 183.739 159.343C188.631 160.875 191.223 163.232 191.223 166.061C191.223 169.007 188.513 172.013 183.798 174.37C178.907 176.845 172.661 178.2 166.238 178.2ZM166.238 158.046C159.402 158.046 153.273 158.813 148.972 160.168C145.789 161.17 142.077 162.996 142.077 166.061C142.077 168.595 144.67 171.482 149.031 173.663C153.804 176.079 159.932 177.375 166.238 177.375C172.543 177.375 178.672 176.079 183.445 173.663C187.806 171.482 190.398 168.654 190.398 166.061C190.398 162.996 186.627 161.111 183.504 160.168C179.202 158.813 173.073 158.046 166.238 158.046Z" fill="#323A50"/>
<path d="M190.163 166.179C190.163 160.934 179.437 158.223 166.237 158.223C153.037 158.223 142.312 160.934 142.312 166.179C142.312 171.423 153.037 177.257 166.237 177.257C179.437 177.257 190.163 171.423 190.163 166.179Z" fill="#DBDBDB"/>
<path d="M166.238 177.375C159.992 177.375 153.981 176.138 149.267 173.78C144.788 171.6 142.195 168.83 142.195 166.179C142.195 163.645 144.67 161.582 149.267 160.109C153.569 158.813 159.402 158.105 166.238 158.105C173.074 158.105 178.908 158.813 183.21 160.109C187.865 161.523 190.281 163.645 190.281 166.179C190.281 168.83 187.688 171.6 183.21 173.78C178.495 176.079 172.426 177.375 166.238 177.375ZM166.238 158.341C151.742 158.341 142.372 161.405 142.372 166.238C142.372 171.305 152.802 177.198 166.238 177.198C179.674 177.198 190.104 171.305 190.104 166.238C190.045 161.405 180.735 158.341 166.238 158.341Z" fill="#323A50"/>
<path d="M188.926 166.355C188.926 161.818 178.731 159.461 166.238 159.461C153.745 159.461 143.551 161.818 143.551 166.355C143.551 170.893 153.745 175.902 166.238 175.902C178.731 175.902 188.926 170.893 188.926 166.355Z" fill="#DBDBDB"/>
<path d="M166.178 176.02C160.286 176.02 154.569 174.9 150.091 172.955C145.848 171.07 143.373 168.653 143.373 166.355C143.373 164.175 145.73 162.348 150.091 161.111C154.157 159.991 159.696 159.343 166.178 159.343C172.661 159.343 178.2 159.932 182.266 161.111C186.686 162.348 188.984 164.175 188.984 166.355C188.984 168.653 186.509 171.011 182.266 172.955C177.846 174.9 172.13 176.02 166.178 176.02ZM166.178 159.578C152.448 159.578 143.55 162.23 143.55 166.355C143.55 170.716 153.45 175.784 166.178 175.784C178.907 175.784 188.807 170.716 188.807 166.355C188.807 162.23 179.968 159.578 166.178 159.578Z" fill="#323A50"/>
<path d="M187.569 166.414C187.569 162.525 177.963 160.521 166.06 160.521C154.156 160.521 144.551 162.525 144.551 166.414C144.551 170.304 154.156 174.605 166.06 174.605C177.963 174.605 187.569 170.304 187.569 166.414Z" fill="#DBDBDB"/>
<path d="M166.06 174.723C160.462 174.723 155.041 173.78 150.798 172.071C146.791 170.421 144.434 168.359 144.434 166.414C144.434 164.529 146.673 162.937 150.798 161.877C154.628 160.875 159.932 160.404 166.001 160.404C172.071 160.404 177.375 160.934 181.205 161.877C185.389 162.937 187.569 164.529 187.569 166.414C187.569 168.359 185.271 170.421 181.205 172.071C177.08 173.78 171.659 174.723 166.06 174.723ZM166.06 160.58C153.037 160.58 144.669 162.879 144.669 166.414C144.669 170.186 154.039 174.546 166.06 174.546C178.082 174.546 187.451 170.186 187.451 166.414C187.451 162.879 179.084 160.58 166.06 160.58Z" fill="#323A50"/>
<path d="M186.096 166.355C186.096 163.232 177.138 161.641 166.001 161.641C154.863 161.641 145.906 163.232 145.906 166.355C145.906 169.479 154.863 173.309 166.001 173.309C177.138 173.25 186.096 169.42 186.096 166.355Z" fill="#DBDBDB"/>
<path d="M166.001 173.368C154.805 173.368 145.848 169.537 145.848 166.355C145.848 162.82 156.691 161.523 166.001 161.523C175.312 161.523 186.155 162.761 186.155 166.355C186.214 169.479 177.198 173.368 166.001 173.368ZM166.001 161.759C153.862 161.759 146.024 163.586 146.024 166.355C146.024 169.42 155.276 173.191 166.001 173.191C176.726 173.191 185.978 169.42 185.978 166.355C185.978 163.527 178.141 161.759 166.001 161.759Z" fill="#323A50"/>
<path d="M184.387 166.355C184.387 163.939 176.137 162.702 166.001 162.702C155.865 162.702 147.615 163.939 147.615 166.355C147.615 168.771 155.865 171.777 166.001 171.777C176.137 171.777 184.387 168.771 184.387 166.355Z" fill="#DBDBDB"/>
<path d="M166.002 171.895C155.748 171.895 147.498 168.889 147.498 166.414C147.498 163.645 157.044 162.643 166.002 162.643C174.959 162.643 184.505 163.645 184.505 166.414C184.505 168.83 176.255 171.895 166.002 171.895ZM166.002 162.82C155.041 162.82 147.675 164.234 147.675 166.414C147.675 168.83 156.161 171.718 166.002 171.718C175.902 171.718 184.328 168.771 184.328 166.414C184.269 164.234 176.903 162.82 166.002 162.82Z" fill="#323A50"/>
<path d="M182.442 166.591C182.442 164.823 175.017 163.939 165.883 163.939C156.749 163.939 149.324 164.823 149.324 166.591C149.324 168.359 156.749 170.539 165.883 170.539C175.017 170.539 182.442 168.359 182.442 166.591Z" fill="#DBDBDB"/>
<path d="M165.884 170.598C156.632 170.598 149.207 168.359 149.207 166.591C149.207 164.529 157.811 163.822 165.884 163.822C173.957 163.822 182.561 164.529 182.561 166.591C182.502 168.418 175.077 170.598 165.884 170.598ZM165.884 163.998C156.043 163.998 149.443 165.059 149.443 166.532C149.443 168.064 156.337 170.363 165.884 170.363C175.43 170.363 182.325 168.064 182.325 166.532C182.325 165.059 175.725 163.998 165.884 163.998Z" fill="#323A50"/>
<path opacity="0.63" d="M204.893 226.168C206.308 232.355 201.24 235.243 200.12 241.961C198.706 250.8 188.688 252.155 185.034 252.98C175.193 255.161 176.784 261.761 168.711 263.116C158.988 264.766 159.283 260.7 151.033 260.7C144.668 260.7 140.366 260.7 138.716 253.747C135.829 241.666 119.683 243.788 127.402 232.061C129.818 228.407 130.231 222.397 130.761 219.804C131.881 213.852 138.186 213.145 136.536 207.37C134.886 201.713 135.299 198.943 140.249 194.405C142.841 192.048 150.149 194.582 153.39 191.341C157.161 187.57 163.702 191.282 166.472 191.518C171.245 191.93 173.661 189.161 178.493 188.689C184.563 188.1 185.27 194.229 189.218 196.173C199.943 201.418 190.397 210.022 192.636 212.732C198.411 219.804 202.949 217.564 204.893 226.168Z" fill="url(#paint3_linear_3670_7730)"/>
</g>
<defs>
<linearGradient id="paint0_linear_3670_7730" x1="178.651" y1="199.672" x2="144.043" y2="65.0509" gradientUnits="userSpaceOnUse">
<stop offset="0.2655" stop-color="#032A3D" stop-opacity="0"/>
<stop offset="0.7809" stop-color="#032A3D"/>
</linearGradient>
<radialGradient id="paint1_radial_3670_7730" cx="0" cy="0" r="1" gradientUnits="userSpaceOnUse" gradientTransform="translate(167.523 236.88) scale(71.5018 71.1752)">
<stop offset="0.4054" stop-color="#032A3D" stop-opacity="0"/>
<stop offset="1" stop-color="#032A3D"/>
</radialGradient>
<linearGradient id="paint2_linear_3670_7730" x1="188.321" y1="173.306" x2="141.779" y2="124.716" gradientUnits="userSpaceOnUse">
<stop offset="0.3301" stop-color="#C4FFFF"/>
<stop offset="0.8279" stop-color="#47B4FF"/>
<stop offset="1" stop-color="#0C37A6"/>
</linearGradient>
<linearGradient id="paint3_linear_3670_7730" x1="257.598" y1="159.082" x2="12.5128" y2="330.275" gradientUnits="userSpaceOnUse">
<stop stop-color="#E9F0F0"/>
<stop offset="0.4806" stop-color="#898B8D"/>
<stop offset="0.9748" stop-color="#6F6A81"/>
</linearGradient>
<clipPath id="clip0_3670_7730">
<rect width="330" height="330" fill="white"/>
</clipPath>
</defs>
</svg>
