<svg width="330" height="330" viewBox="0 0 330 330" fill="none" xmlns="http://www.w3.org/2000/svg">
<g clip-path="url(#clip0_3670_7815)">
<path d="M221.101 155.336C214.795 148.795 214.736 148.912 211.908 145.671C206.663 139.72 190.87 119.861 166.945 119.684H166.71C142.785 119.861 126.992 139.72 121.747 145.671C118.801 149.03 118.86 148.912 111.847 156.102C95.0525 171.187 84.4453 193.05 84.4453 217.387C84.4453 252.803 106.779 282.975 138.129 294.643C138.129 294.702 138.483 294.82 138.483 294.878C140.486 295.703 147.204 297.943 153.038 298.709C157.34 299.416 162.408 299.77 166.886 299.77C212.438 299.77 249.327 262.88 249.327 217.328C249.269 192.637 238.367 170.48 221.101 155.336Z" fill="#DBDBDB"/>
<path d="M166.827 300.241C162.113 300.241 157.045 299.829 152.92 299.18C147.028 298.414 140.428 296.175 138.306 295.291L138.07 295.173V295.114C138.011 295.114 137.952 295.055 137.894 294.996C122.278 289.162 108.901 278.85 99.2364 265.179C89.3364 251.154 84.0918 234.654 84.0918 217.446C84.0918 205.484 86.5668 193.934 91.5168 183.15C96.29 172.72 103.067 163.527 111.611 155.866C112.672 154.805 113.556 153.862 114.322 153.096C118.624 148.677 118.977 148.323 121.452 145.436C121.747 145.141 122.042 144.729 122.395 144.316C125.342 140.957 130.822 134.593 138.247 129.289C147.322 122.748 156.927 119.389 166.651 119.33H166.886C176.669 119.389 186.215 122.748 195.349 129.289C202.774 134.652 208.313 140.957 211.201 144.316C211.554 144.729 211.849 145.082 212.144 145.436C214.029 147.557 214.736 148.264 216.74 150.327C217.801 151.387 219.215 152.861 221.336 155.041C230.176 162.761 237.07 172.012 242.02 182.561C247.088 193.521 249.681 205.248 249.681 217.387C249.681 228.584 247.501 239.427 243.199 249.621C239.015 259.462 233.063 268.361 225.461 275.962C217.86 283.564 209.02 289.575 199.12 293.7C188.867 298.061 178.024 300.241 166.827 300.241ZM138.66 294.643C140.545 295.409 147.204 297.648 153.038 298.414C157.163 299.062 162.172 299.475 166.827 299.475C212.026 299.475 248.856 262.645 248.856 217.446C248.856 193.816 238.602 171.246 220.806 155.689C218.685 153.509 217.27 152.036 216.21 150.975C214.147 148.912 213.499 148.205 211.554 146.025C211.26 145.73 210.965 145.318 210.611 144.905C204.778 138.187 189.338 120.332 166.945 120.155H166.71C144.317 120.332 128.819 138.187 123.044 144.905C122.69 145.318 122.395 145.671 122.101 146.025C119.567 148.854 119.272 149.266 114.911 153.686C114.145 154.452 113.261 155.395 112.201 156.455C94.8757 172.012 84.9757 194.229 84.9757 217.446C84.9757 251.507 106.426 282.445 138.365 294.289L138.601 294.348V294.407C138.542 294.525 138.601 294.525 138.66 294.643Z" fill="#323A50"/>
<path d="M166.828 300.653C155.631 300.653 144.729 298.473 134.476 294.112C124.576 289.928 115.678 283.918 108.076 276.316C100.415 268.655 94.4633 259.816 90.2794 249.916C85.9187 239.662 83.7383 228.82 83.7383 217.564C83.7383 205.543 86.2722 193.993 91.1633 183.15C95.9365 172.72 102.713 163.468 111.317 155.748C117.917 148.971 118.212 148.618 120.745 145.73L121.158 145.259C121.453 144.905 121.806 144.493 122.219 144.08C125.401 140.427 130.704 134.298 138.129 128.936C147.263 122.395 156.81 119.036 166.592 118.918H166.828C176.61 118.977 186.156 122.336 195.29 128.936C202.715 134.298 208.078 140.427 211.201 144.08C211.613 144.552 211.908 144.905 212.262 145.259C215.09 148.5 215.149 148.559 221.454 155.041C230.294 162.761 237.247 172.071 242.138 182.62C247.206 193.58 249.799 205.366 249.799 217.505C249.799 228.702 247.619 239.603 243.258 249.857C239.074 259.757 233.063 268.655 225.462 276.257C217.801 283.918 208.962 289.87 199.062 294.053C188.926 298.473 178.024 300.653 166.828 300.653ZM166.887 120.214H166.651C144.435 120.391 128.995 138.246 123.162 144.964C122.749 145.436 122.454 145.789 122.101 146.143L121.688 146.614C119.154 149.502 118.86 149.855 112.201 156.691H112.142C94.9347 172.248 84.9758 194.405 84.9758 217.623C84.9758 262.762 121.688 299.475 166.828 299.475C211.967 299.475 248.679 262.762 248.679 217.623C248.679 194.052 238.485 171.541 220.688 155.984L220.629 155.925C214.324 149.384 214.265 149.325 211.378 146.084C211.083 145.73 210.729 145.318 210.317 144.905C204.542 138.187 189.103 120.391 166.887 120.214Z" fill="#323A50"/>
<path opacity="0.83" d="M210.67 155.984C212.674 153.862 213.322 151.8 210.257 148.323C205.131 142.548 189.868 123.22 166.768 123.043H166.532C143.432 123.22 128.17 142.548 123.043 148.323C120.038 151.741 121.629 154.275 122.277 155.689C124.222 159.402 127.109 160.05 127.875 159.578C133.238 156.278 136.007 147.616 142.136 145.612C142.313 145.553 151.152 141.37 166.002 141.252C166.061 141.252 176.02 141.193 185.507 144.139C194.288 146.496 199.768 155.807 205.248 159.166C206.957 160.168 209.079 157.634 210.67 155.984Z" fill="url(#paint0_linear_3670_7815)"/>
<path d="M166.59 292.875C124.751 292.875 90.8672 258.991 90.8672 217.152C90.8672 192.52 102.594 170.657 120.803 156.809" fill="#DBDBDB"/>
<path d="M166.532 293.287C156.22 293.287 146.32 291.284 136.891 287.336C127.816 283.505 119.684 278.025 112.671 271.012C105.659 264 100.179 255.868 96.3483 246.793C92.4 237.423 90.3965 227.405 90.3965 217.152C90.3965 205.012 93.1661 193.462 98.5875 182.737C103.773 172.484 111.375 163.409 120.509 156.455L120.98 157.104C102.064 171.482 91.1625 193.345 91.1625 217.093C91.1625 258.637 124.988 292.462 166.473 292.462V293.287H166.532Z" fill="#323A50"/>
<path d="M166.592 286.569C204.963 286.569 236.069 255.463 236.069 217.093C236.069 178.722 204.963 147.616 166.592 147.616C128.221 147.616 97.1152 178.722 97.1152 217.093C97.1152 255.463 128.221 286.569 166.592 286.569Z" fill="#DBDBDB"/>
<path d="M166.592 286.923C147.97 286.923 130.41 279.675 117.269 266.475C104.069 253.275 96.8203 235.773 96.8203 217.152C96.8203 198.53 104.069 180.969 117.269 167.828C130.469 154.628 147.97 147.38 166.592 147.38C185.213 147.38 202.774 154.628 215.915 167.828C229.115 181.028 236.363 198.53 236.363 217.152C236.363 235.773 229.115 253.334 215.915 266.475C202.715 279.675 185.213 286.923 166.592 286.923ZM166.592 147.969C128.465 147.969 97.4096 179.025 97.4096 217.152C97.4096 255.278 128.465 286.334 166.592 286.334C204.719 286.334 235.715 255.278 235.715 217.093C235.715 178.907 204.719 147.969 166.592 147.969Z" fill="#323A50"/>
<g opacity="0.1">
<path d="M226.935 244.848L226.464 244.789C226.169 247.146 219.333 250.329 217.86 250.564C217.271 250.682 216.917 250.505 216.564 250.387C216.033 250.211 215.562 249.975 214.619 250.505C213.087 251.448 207.783 257.223 206.605 260.052C205.426 262.88 204.719 264.412 202.008 265.473C200.594 266.062 198.355 266.062 195.998 266.062C193.876 266.062 191.637 266.062 189.928 266.534C187.335 267.241 184.86 268.42 183.681 269.009C184.33 268.302 184.919 267.595 185.508 266.887C186.569 265.65 187.512 264.53 188.101 264.118C188.867 263.529 191.637 263.293 194.583 262.939C198.531 262.527 203.01 262.055 204.424 260.7C205.956 259.227 208.196 253.629 210.023 249.091C210.965 246.675 211.79 244.612 212.262 243.787C212.792 242.904 214.265 241.902 215.856 240.9C218.508 239.132 221.573 237.07 221.514 234.654H221.042C221.101 236.834 218.155 238.779 215.621 240.487C213.912 241.607 212.439 242.609 211.849 243.552C211.319 244.436 210.494 246.498 209.551 248.914C207.783 253.393 205.544 258.873 204.071 260.346C203.54 260.818 202.539 261.23 201.242 261.525C202.067 261.054 203.128 260.346 203.835 259.404C205.131 257.812 206.251 253.923 206.781 251.802C206.899 251.448 206.958 251.154 207.017 250.918C207.194 250.27 206.958 249.857 206.723 249.445C206.428 248.973 206.133 248.502 206.31 247.323C206.546 246.027 207.253 245.496 208.078 244.966C208.608 244.554 209.139 244.2 209.551 243.552C210.494 241.961 209.905 240.37 209.61 239.486V239.427C209.374 238.837 208.844 238.896 208.431 238.896C208.019 238.955 207.783 238.955 207.665 238.72C207.548 238.484 207.842 238.012 208.196 237.541C208.667 236.834 209.256 236.068 208.903 235.302L208.49 235.479C208.726 236.009 208.255 236.657 207.842 237.246C207.371 237.895 207.017 238.484 207.312 238.955C207.606 239.486 208.137 239.427 208.549 239.368C208.962 239.309 209.139 239.309 209.256 239.545V239.604C209.551 240.429 210.081 241.843 209.256 243.257C208.903 243.787 208.431 244.141 207.901 244.554C207.076 245.143 206.251 245.732 205.956 247.205C205.721 248.561 206.074 249.15 206.428 249.621C206.664 249.975 206.781 250.211 206.664 250.682C206.605 250.859 206.546 251.212 206.428 251.566C205.898 253.452 204.837 257.459 203.54 258.991C202.126 260.759 199.71 261.643 199.474 261.761C197.942 261.996 196.233 262.173 194.583 262.35C191.46 262.704 188.808 262.998 187.924 263.587C187.276 264.059 186.333 265.179 185.273 266.416C183.151 268.891 180.264 272.309 178.26 272.191C177.199 272.132 176.08 271.896 174.901 271.661C172.485 271.189 169.774 270.6 166.887 271.13C160.876 272.25 158.814 273.429 157.635 274.843C156.456 276.198 155.867 277.966 155.867 278.025L156.28 278.202C156.28 278.202 156.869 276.434 157.989 275.137C159.108 273.782 161.112 272.662 167.005 271.602C169.833 271.071 172.485 271.602 174.842 272.132C176.08 272.368 177.199 272.604 178.26 272.721C179.733 272.839 181.501 271.366 183.269 269.539L183.328 269.716C183.387 269.716 186.687 267.83 190.164 266.887C191.873 266.416 194.053 266.416 196.115 266.416C198.531 266.416 200.771 266.416 202.303 265.827C205.131 264.707 205.956 262.998 207.135 260.111C208.255 257.4 213.499 251.684 214.914 250.8C215.621 250.329 215.974 250.505 216.446 250.682C216.858 250.859 217.271 251.036 217.978 250.918C219.569 250.741 226.64 247.5 226.935 244.848Z" fill="#323A50"/>
<path d="M171.425 255.75C170.658 256.575 170.776 257.93 170.894 259.58C171.012 261.113 171.189 262.821 170.482 264.236C169.126 267.005 163.116 269.186 163.057 269.186L163.175 269.657C163.41 269.598 169.421 267.418 170.894 264.471C171.601 262.939 171.483 261.171 171.366 259.58C171.248 258.107 171.13 256.811 171.778 256.163C172.485 255.455 175.019 254.866 177.199 254.395C179.792 253.805 181.973 253.275 182.562 252.568C183.092 251.861 183.21 251.213 183.269 250.623C183.387 249.975 183.446 249.504 184.035 249.091C184.33 248.914 185.862 248.973 187.453 249.091C191.991 249.327 198.826 249.739 201.242 246.38C203.187 243.67 202.539 241.725 201.949 239.957C201.478 238.543 201.066 237.364 201.949 235.891C202.598 234.713 203.835 234.359 205.191 233.888C207.842 233.063 211.083 232.002 213.205 225.225C213.676 223.634 213.441 221.984 213.205 220.452C212.91 218.389 212.557 216.386 213.794 214.559L213.382 214.323C212.026 216.327 212.38 218.507 212.674 220.57C212.91 222.161 213.146 223.693 212.674 225.166C210.671 231.707 207.489 232.709 204.955 233.534C203.482 234.005 202.244 234.418 201.478 235.714C200.535 237.364 201.007 238.779 201.478 240.193C202.067 241.902 202.657 243.67 200.83 246.145C198.532 249.327 191.578 248.914 187.394 248.679C185.803 248.62 184.801 248.561 184.212 248.62C184.448 247.971 184.624 247.088 184.801 246.027C185.096 244.259 185.449 242.255 186.51 241.136C187.041 240.605 187.748 240.37 188.749 240.075C191.048 239.427 194.23 238.484 196.764 232.002V231.943C197.235 229.704 196.705 228.113 196.175 227.229C195.939 226.816 195.467 226.58 194.996 226.404C194.466 226.168 193.876 225.873 193.405 225.166C192.58 223.929 192.226 217.093 192.521 215.738C192.521 215.62 192.58 215.561 192.58 215.561C192.639 215.502 192.933 215.62 193.169 215.679C193.876 215.914 195.114 216.386 196.587 215.325L196.351 214.913C195.055 215.855 194.112 215.502 193.346 215.207C192.933 215.089 192.639 214.971 192.403 215.089C192.285 215.148 192.167 215.325 192.108 215.561C191.873 216.857 192.108 223.929 193.051 225.343C193.582 226.109 194.289 226.463 194.819 226.698C195.232 226.875 195.585 227.052 195.762 227.346C196.233 228.171 196.705 229.645 196.292 231.766C193.876 238.013 190.812 238.896 188.632 239.545C187.63 239.839 186.805 240.075 186.216 240.723C185.096 241.961 184.742 244.023 184.389 245.85C184.212 247.088 183.976 248.207 183.623 248.679C182.974 249.15 182.857 249.798 182.739 250.446C182.621 251.036 182.562 251.566 182.091 252.214C181.619 252.863 179.203 253.393 177.023 253.864C174.607 254.454 172.191 254.984 171.425 255.75Z" fill="#323A50"/>
<path d="M172.131 209.314C172.72 209.962 173.191 210.434 172.897 211.848C172.72 212.791 172.189 214.146 171.6 215.561C170.598 218.095 169.597 220.746 170.068 221.925C170.304 222.514 170.657 222.927 171.011 223.339C171.718 224.164 172.484 225.107 172.131 227.7C171.836 229.821 170.716 231.471 169.773 232.768C169.007 233.946 168.3 234.948 168.418 235.891C168.477 236.657 168.889 237.187 169.302 237.659C170.009 238.543 170.775 239.486 169.773 241.843C169.007 243.67 167.947 244.082 167.122 244.495C166.238 244.907 165.413 245.261 165.707 246.97C166.002 248.796 167.181 250.034 168.3 251.154C169.125 251.979 169.95 252.862 170.481 253.982L170.893 253.805C170.304 252.627 169.479 251.743 168.595 250.859C167.475 249.739 166.414 248.62 166.12 246.97C165.884 245.614 166.356 245.379 167.298 244.966C168.182 244.554 169.361 244.082 170.186 242.079C171.306 239.486 170.422 238.366 169.597 237.423C169.184 236.893 168.831 236.48 168.772 235.891C168.713 235.125 169.302 234.182 170.068 233.062C171.011 231.707 172.131 229.998 172.484 227.759C172.956 224.93 172.072 223.87 171.306 222.986C170.952 222.573 170.657 222.22 170.481 221.689C170.068 220.629 171.129 217.977 172.013 215.679C172.602 214.264 173.132 212.85 173.309 211.848C173.663 210.198 173.073 209.55 172.425 208.902C172.013 208.43 171.541 208.018 171.364 207.075L170.893 207.193C171.188 208.312 171.718 208.843 172.131 209.314Z" fill="#323A50"/>
<path d="M174.488 272.898C172.897 272.132 168.89 271.779 166.474 272.25C164.117 272.662 159.992 273.605 158.401 275.373C157.517 276.375 156.633 278.32 156.633 278.379L157.045 278.555C157.045 278.555 157.87 276.611 158.754 275.668C160.286 273.959 164.765 273.016 166.592 272.721C169.185 272.25 172.956 272.721 174.311 273.37C175.785 274.077 176.315 275.137 176.374 275.668C176.551 277.318 173.84 278.791 173.84 278.791L174.017 279.204C174.135 279.145 177.081 277.612 176.786 275.609C176.669 274.784 176.02 273.605 174.488 272.898Z" fill="#323A50"/>
<path d="M175.667 244.436C176.492 244.73 177.317 245.084 177.847 245.85C178.495 246.734 179.792 249.032 178.024 251.036C177.317 251.861 175.549 252.509 173.84 253.098C172.131 253.687 170.599 254.277 170.069 255.043C169.538 255.868 169.597 257.282 169.774 258.932C169.892 260.405 169.951 261.937 169.656 263.116C168.949 265.532 162.879 268.42 162.82 268.479L162.997 268.891C163.233 268.773 169.302 265.886 170.069 263.234C170.422 261.937 170.304 260.346 170.186 258.873C170.069 257.4 170.01 255.986 170.422 255.337C170.835 254.689 172.426 254.1 173.958 253.57C175.726 252.921 177.494 252.273 178.319 251.33C179.674 249.739 179.615 247.618 178.142 245.555C177.552 244.73 176.61 244.318 175.785 244.023C174.96 243.67 174.194 243.375 173.84 242.609C173.133 241.077 173.663 239.368 174.606 238.779C174.842 238.602 175.136 238.484 175.372 238.307C176.197 237.777 177.081 237.305 178.142 236.127C179.556 234.595 182.149 228.407 182.679 225.402C182.974 223.634 182.502 222.868 181.972 222.043C181.56 221.395 181.147 220.746 181.029 219.45L180.558 219.509C180.676 220.864 181.147 221.63 181.56 222.279C182.031 223.045 182.444 223.752 182.208 225.343C181.736 228.289 179.202 234.359 177.788 235.832C176.786 236.952 175.902 237.423 175.136 237.895C174.901 238.071 174.606 238.189 174.37 238.366C173.251 239.073 172.602 241.077 173.427 242.786C173.899 243.729 174.783 244.082 175.667 244.436Z" fill="#323A50"/>
</g>
<g opacity="0.1">
<path d="M155.631 271.071C155.454 269.834 154.04 268.891 152.626 267.889C151.506 267.123 149.856 266.18 148.324 265.355C147.028 264.648 145.849 264 145.437 263.646C145.319 263.587 145.201 263.411 145.083 263.234C144.376 262.114 143.846 259.404 143.963 257.223C144.022 255.986 143.904 255.043 143.846 254.277C143.728 253.452 143.669 252.862 143.904 252.332C144.081 251.92 144.376 251.861 144.847 251.802C145.319 251.743 145.967 251.625 146.203 250.859C146.438 250.211 146.321 249.504 146.262 248.796C146.144 248.089 146.085 247.5 146.379 247.029C146.674 246.616 146.969 246.498 147.322 246.38C147.735 246.204 148.206 246.027 148.619 245.437C148.972 244.907 148.501 244.2 147.912 243.375C147.028 242.137 145.849 240.37 146.379 238.248C146.91 235.95 147.617 236.068 148.619 236.186C149.09 236.245 149.679 236.362 150.21 236.127C151.153 235.773 152.037 233.711 152.921 231.589C153.628 229.939 154.335 228.23 154.924 227.759C155.631 227.229 156.221 227.111 156.81 226.993C157.399 226.875 157.929 226.816 158.342 226.227C158.872 225.579 158.578 224.695 158.342 223.929C158.224 223.457 158.047 222.986 158.165 222.75L157.753 222.514C157.576 222.927 157.694 223.398 157.871 224.046C158.047 224.695 158.283 225.461 157.929 225.932C157.635 226.345 157.222 226.404 156.633 226.521C156.044 226.639 155.337 226.757 154.571 227.346C153.863 227.877 153.156 229.586 152.39 231.354C151.624 233.239 150.74 235.361 149.974 235.655C149.503 235.832 149.031 235.773 148.56 235.714C147.499 235.596 146.438 235.42 145.79 238.13C145.26 240.487 146.497 242.314 147.381 243.611C147.853 244.318 148.265 244.907 148.088 245.202C147.794 245.673 147.44 245.791 147.028 245.968C146.615 246.086 146.203 246.262 145.849 246.793C145.437 247.382 145.554 248.148 145.672 248.855C145.79 249.504 145.849 250.152 145.672 250.682C145.496 251.212 145.083 251.271 144.612 251.33C144.14 251.389 143.61 251.448 143.315 252.155C143.079 252.804 143.138 253.452 143.256 254.336C143.374 255.102 143.433 255.986 143.374 257.164C143.256 258.52 143.433 260.17 143.787 261.525C142.785 259.934 141.488 257.341 141.312 254.866C141.135 252.804 141.547 252.037 142.078 250.977C142.608 249.916 143.256 248.62 143.787 245.732C144.494 241.607 142.667 237.718 141.488 235.714C141.606 235.302 142.431 232.532 144.612 231.766L145.731 231.354C147.794 230.646 149.621 229.998 150.563 229.468C151.801 228.82 152.803 226.698 152.979 225.402C153.097 224.636 152.744 224.164 152.39 223.752C152.096 223.339 151.801 222.986 151.801 222.396C151.86 221.866 152.626 221.336 153.51 220.805C154.747 219.98 156.338 218.92 156.987 217.152C157.753 215.089 156.987 214.146 156.338 213.321C156.044 212.909 155.69 212.555 155.572 212.025L155.16 212.143C155.278 212.732 155.69 213.204 155.985 213.616C156.633 214.441 157.222 215.148 156.574 217.034C155.985 218.625 154.512 219.627 153.274 220.452C152.213 221.159 151.447 221.689 151.388 222.396C151.329 223.221 151.683 223.693 152.037 224.105C152.331 224.518 152.626 224.812 152.508 225.402C152.272 226.757 151.271 228.643 150.328 229.114C149.385 229.586 147.558 230.234 145.554 230.941L144.435 231.354C142.431 232.061 141.488 234.241 141.194 235.243C140.781 234.654 140.546 234.3 140.487 234.3C140.428 234.241 136.303 230.411 134.417 227.523C132.531 224.577 132.59 222.161 133.592 221.336C134.122 220.864 135.183 220.805 136.421 220.746C137.599 220.687 138.896 220.629 140.015 220.216C141.783 219.568 143.021 217.034 143.374 216.268C143.904 215.148 144.376 213.675 144.081 212.968C143.61 211.671 141.665 211.259 141.547 211.2L141.488 211.671C141.488 211.671 143.315 212.084 143.669 213.086C143.787 213.498 143.61 214.618 142.962 216.091C142.313 217.564 141.135 219.332 139.838 219.804C138.719 220.216 137.481 220.275 136.362 220.334C135.065 220.393 133.887 220.452 133.238 220.982C132.119 221.925 131.883 224.459 134.004 227.759C135.831 230.587 139.897 234.359 140.133 234.595C140.369 234.889 144.317 240.016 143.315 245.673C142.844 248.502 142.196 249.798 141.665 250.8C141.547 251.036 141.429 251.271 141.312 251.507C140.781 250.093 140.84 249.268 140.899 248.62C140.958 247.677 140.899 247.146 139.603 246.38C137.894 245.32 134.594 245.143 132.472 245.025C131.588 244.966 130.881 244.907 130.528 244.848C129.172 244.554 128.465 243.905 128.112 242.727C127.817 241.725 128.053 241.43 128.524 240.9C128.642 240.782 128.76 240.605 128.937 240.429C129.113 240.193 129.467 239.957 129.821 239.78C130.646 239.309 131.765 238.661 131.647 237.011C131.588 235.596 130.704 235.125 129.703 234.595C129.054 234.3 128.406 233.946 127.935 233.239C126.697 231.589 125.224 226.816 124.988 224.282C124.694 221.395 125.224 215.973 125.696 215.62C125.872 215.561 126.638 215.914 127.228 216.209C128.347 216.739 129.703 217.387 130.704 217.152C130.881 217.093 130.999 217.093 131.176 217.034C132.413 216.739 132.531 216.621 132.472 215.443C132.413 214.559 131.765 214.441 131.235 214.382C130.822 214.323 130.528 214.264 130.292 213.97C129.821 213.38 129.997 211.141 130.056 210.316L129.585 210.257C129.526 210.552 129.231 213.38 129.879 214.205C130.174 214.618 130.704 214.677 131.117 214.736C131.706 214.854 131.942 214.912 132.001 215.384C132.06 215.855 132.06 216.091 131.942 216.209C131.824 216.327 131.529 216.386 131.058 216.504C130.94 216.562 130.763 216.562 130.587 216.621C129.762 216.798 128.465 216.209 127.404 215.737C126.462 215.266 125.872 215.03 125.519 215.148C124.576 215.502 124.281 222.043 124.458 224.282C124.694 226.993 126.167 231.766 127.522 233.475C128.053 234.182 128.819 234.595 129.408 234.948C130.292 235.42 130.999 235.773 131.117 236.952C131.176 238.307 130.351 238.779 129.526 239.309C129.113 239.545 128.76 239.78 128.524 240.075C128.406 240.252 128.288 240.37 128.171 240.546C127.699 241.077 127.346 241.548 127.699 242.786C128.112 244.141 128.937 244.907 130.469 245.261C130.763 245.32 131.176 245.379 131.765 245.379C131.412 245.614 131.058 245.614 130.646 245.614C130.233 245.614 129.762 245.555 129.29 245.909C128.524 246.439 128.996 247.323 129.349 247.971C129.467 248.266 129.644 248.561 129.644 248.737C129.644 248.855 129.585 248.973 129.467 249.091C129.231 249.268 128.76 249.327 128.112 249.268C127.404 249.15 126.403 248.089 125.872 247.441C125.637 247.205 125.46 246.97 125.342 246.911C125.106 246.734 124.753 246.734 124.458 246.793C124.104 246.852 123.692 246.852 123.338 246.616C123.162 246.498 123.044 246.262 122.985 245.968C122.926 245.437 123.162 244.848 123.279 244.671C123.338 244.612 123.515 244.612 123.751 244.612C124.046 244.612 124.399 244.612 124.694 244.377C125.165 243.964 125.342 243.316 125.283 242.314C125.224 241.725 124.753 241.725 124.34 241.725C123.869 241.725 123.338 241.666 123.103 241.018C122.926 240.546 123.162 240.075 123.515 239.486C124.046 238.602 124.694 237.482 123.751 235.832C122.69 233.887 121.512 234.064 120.687 234.241C120.392 234.3 120.097 234.359 119.921 234.3C119.744 234.241 119.626 234.123 119.626 234.064C119.567 233.887 119.685 233.711 119.744 233.652L119.39 233.416C119.39 233.475 119.096 233.829 119.213 234.241C119.272 234.477 119.449 234.712 119.803 234.83C120.097 234.948 120.451 234.889 120.804 234.83C121.571 234.712 122.513 234.536 123.397 236.186C124.163 237.6 123.633 238.543 123.162 239.368C122.808 240.016 122.454 240.605 122.69 241.254C123.044 242.196 123.81 242.196 124.34 242.196C124.812 242.196 124.871 242.255 124.871 242.373C124.929 243.198 124.812 243.787 124.458 244.082C124.281 244.2 124.046 244.2 123.81 244.2C123.515 244.2 123.221 244.2 122.985 244.436C122.749 244.671 122.454 245.379 122.572 246.086C122.631 246.498 122.808 246.852 123.103 247.087C123.633 247.441 124.163 247.382 124.517 247.382C124.812 247.382 124.988 247.323 125.106 247.441C125.224 247.5 125.342 247.736 125.578 247.971C126.226 248.679 127.287 249.857 128.112 249.975C128.112 249.975 128.112 249.975 128.171 249.975C128.937 250.093 129.526 249.975 129.879 249.68C130.056 249.504 130.174 249.268 130.174 248.973C130.174 248.679 129.997 248.384 129.821 248.03C129.467 247.323 129.231 246.852 129.644 246.557C129.938 246.321 130.292 246.321 130.704 246.321C131.235 246.321 131.883 246.38 132.413 245.673C132.472 245.673 132.531 245.673 132.531 245.673C134.653 245.791 137.894 245.968 139.485 246.97C140.604 247.677 140.604 248.03 140.546 248.855C140.487 249.621 140.428 250.623 141.194 252.391C140.958 253.098 140.84 253.923 140.958 255.279C141.253 259.345 144.435 263.529 144.671 263.823C144.788 264 144.965 264.177 145.083 264.295C145.554 264.648 146.674 265.296 148.029 266.062C149.503 266.887 151.212 267.83 152.272 268.596C153.569 269.48 154.924 270.482 155.101 271.484C155.16 271.955 155.042 272.427 154.571 273.016C153.038 275.079 151.035 282.386 150.976 282.68L151.447 282.739C151.506 282.268 153.451 275.255 154.924 273.311C155.572 272.309 155.749 271.72 155.631 271.071Z" fill="#323A50"/>
<path d="M152.509 272.957C151.861 270.718 148.678 268.361 147.618 267.654C145.32 266.239 140.075 265.945 137.718 266.475C136.598 266.711 135.832 267.064 135.125 267.418C134.359 267.771 133.711 268.125 132.827 268.125C131 268.125 129.998 268.361 129.114 269.009C128.937 269.127 128.878 269.304 128.878 269.421C128.878 269.775 129.173 270.129 129.586 270.482C129.88 270.718 130.293 271.13 130.234 271.307C130.234 271.425 130.116 271.484 129.998 271.543C128.82 272.191 127.877 271.307 127.877 271.248L127.582 271.543C127.582 271.543 128.761 272.721 130.234 271.955C130.528 271.779 130.646 271.602 130.705 271.366C130.764 270.895 130.293 270.541 129.939 270.129C129.703 269.893 129.35 269.598 129.35 269.421L129.409 269.362C130.175 268.773 131.118 268.596 132.827 268.596C133.828 268.596 134.536 268.243 135.361 267.83C136.009 267.536 136.775 267.123 137.836 266.946C140.134 266.475 145.261 266.77 147.441 268.066C148.737 268.832 151.566 271.13 152.155 273.075C152.273 273.605 152.037 274.548 151.684 275.314C149.916 279.38 149.327 282.327 149.327 282.386L149.739 282.445C149.739 282.445 150.328 279.557 152.096 275.491C152.273 275.02 152.745 273.782 152.509 272.957Z" fill="#323A50"/>
<path d="M153.569 272.603C153.451 271.778 152.626 270.894 152.332 270.541C152.273 270.482 152.273 270.482 152.273 270.482C150.623 268.537 148.207 266.652 146.616 266.062C146.144 265.886 145.614 265.768 144.966 265.65C142.432 264.412 139.898 263.941 137.541 263.469C136.244 263.234 134.889 262.939 133.592 262.586C130.057 261.525 123.987 255.573 123.751 255.337C123.574 255.102 119.508 249.916 119.096 248.148C118.919 247.382 118.035 243.493 117.623 242.432C117.21 241.489 112.083 239.78 111.082 239.427C108.607 239.309 104.953 239.073 104.599 238.837C104.187 238.543 103.716 237.128 103.833 236.539C103.833 236.303 104.128 236.127 104.423 235.95C104.894 235.655 105.424 235.243 105.542 234.536C105.601 234.005 105.248 232.473 104.599 229.939C104.01 227.523 103.244 224.282 103.421 223.693C103.598 223.162 103.951 223.103 104.246 222.986C104.541 222.927 104.953 222.809 105.071 222.278C105.13 222.102 105.012 221.984 104.953 221.866C104.717 221.63 104.187 221.63 103.48 221.689C102.773 221.748 101.889 221.807 101.476 221.453L101.182 221.807C101.712 222.278 102.655 222.219 103.48 222.161C103.892 222.161 104.482 222.102 104.599 222.219C104.541 222.455 104.482 222.455 104.128 222.573C103.774 222.691 103.244 222.809 102.949 223.516C102.714 224.164 103.244 226.521 104.128 229.998C104.599 231.943 105.071 234.005 105.012 234.477C104.953 235.007 104.482 235.302 104.069 235.596C103.657 235.832 103.303 236.127 103.244 236.539C103.126 237.246 103.657 238.896 104.187 239.25C104.658 239.603 109.373 239.839 110.905 239.898C113.792 240.841 116.974 242.137 117.151 242.609C117.446 243.434 118.094 246.027 118.566 248.266C118.978 250.152 123.162 255.396 123.28 255.632C123.516 255.868 129.585 261.937 133.298 263.057C134.653 263.469 136.008 263.705 137.305 263.941C139.191 264.294 141.194 264.707 143.198 265.473C142.078 265.355 140.841 265.296 139.721 265.178C138.778 265.119 137.835 265.061 137.069 264.943C131.53 264.353 128.407 263.528 126.403 262.114C124.164 260.523 117.328 254.512 116.739 253.805C116.444 253.393 116.326 252.98 116.149 252.45C116.032 252.037 115.914 251.566 115.678 251.036C114.853 249.15 111.612 247.028 109.196 245.555C107.958 244.789 106.898 244.082 106.662 243.728C106.308 243.198 106.426 242.844 106.603 242.373C106.721 242.078 106.898 241.666 106.898 241.194H106.662C106.662 241.607 106.544 241.902 106.426 242.196C106.191 242.727 106.014 243.198 106.485 243.964C106.78 244.377 107.782 245.025 109.137 245.909C111.435 247.382 114.617 249.386 115.442 251.212C115.678 251.684 115.796 252.155 115.914 252.568C116.091 253.157 116.208 253.628 116.562 254.1C117.151 254.807 123.987 260.877 126.285 262.468C128.348 263.941 131.53 264.825 137.187 265.414C137.894 265.473 138.837 265.532 139.839 265.65C142.314 265.827 145.083 266.062 146.498 266.534C147.971 267.064 150.328 268.891 151.919 270.777C151.919 270.777 151.978 270.836 151.978 270.894C152.214 271.189 153.039 272.073 153.098 272.721C153.216 273.369 152.744 274.607 152.096 276.375C151.507 277.966 150.741 280.028 150.092 282.503L150.505 282.621C151.153 280.146 151.86 278.143 152.508 276.552C153.216 274.607 153.687 273.369 153.569 272.603Z" fill="#323A50"/>
<path d="M106.661 210.08C106.602 210.434 106.249 210.964 105.836 211.553C105.129 212.673 104.304 213.911 104.776 214.853C105.07 215.384 105.718 215.855 106.602 216.386C108.135 217.387 110.02 218.684 110.786 220.982C112.024 224.694 115.147 231.294 115.206 231.353V231.412C115.265 231.471 119.095 236.657 117.74 241.725L118.152 241.843C119.508 236.716 115.854 231.589 115.559 231.177C115.559 231.118 115.442 230.941 115.324 230.705C115.854 230.587 117.033 230.234 117.799 229.232C118.388 228.466 118.624 227.464 118.506 226.227C118.27 224.164 117.268 222.278 116.384 220.569C115.618 219.096 114.97 217.859 115.088 216.975C115.147 216.209 115.618 216.091 116.208 215.855C116.915 215.678 117.799 215.384 117.976 213.852C118.152 212.261 117.033 211.494 116.09 210.964C115.383 210.493 114.911 210.198 114.97 209.668C115.088 208.194 117.151 206.191 117.21 206.132L116.915 205.837C116.856 205.896 114.735 208.018 114.558 209.668C114.499 210.493 115.206 210.964 115.913 211.377C116.797 211.907 117.74 212.496 117.563 213.852C117.445 215.089 116.797 215.266 116.149 215.443C115.501 215.619 114.793 215.855 114.734 216.916C114.676 217.977 115.324 219.273 116.09 220.746C116.915 222.396 117.917 224.282 118.152 226.227C118.27 227.287 118.093 228.171 117.563 228.878C116.797 229.821 115.618 230.175 115.206 230.234C114.322 228.289 112.201 223.693 111.258 220.864C110.433 218.389 108.37 217.034 106.838 216.032C106.072 215.502 105.365 215.089 105.129 214.618C104.717 213.911 105.483 212.791 106.131 211.789C106.602 211.141 106.956 210.552 107.015 210.139C107.074 209.491 106.485 208.548 105.718 207.487C105.07 206.486 104.304 205.366 104.186 204.6L103.715 204.659C103.833 205.543 104.599 206.662 105.306 207.782C106.072 208.666 106.72 209.609 106.661 210.08Z" fill="#323A50"/>
<path d="M150.976 274.489C150.445 273.252 148.854 272.25 147.734 271.543C147.263 271.248 146.909 271.012 146.733 270.835C146.556 270.659 146.556 270.482 146.497 270.305C146.379 269.775 146.202 269.362 145.083 268.891C143.374 268.184 139.308 267.83 137.952 268.714C137.422 269.068 137.363 269.48 137.363 269.834C137.481 270.777 138.601 271.602 139.661 271.955C140.368 272.191 140.427 272.898 140.486 273.723C140.545 274.371 140.604 275.019 141.076 275.432C141.37 275.668 141.547 275.903 141.488 276.08C141.429 276.316 141.017 276.61 140.133 276.728C138.836 276.846 136.833 276.316 136.833 276.316L136.715 276.787C136.774 276.787 138.777 277.318 140.192 277.2C141.193 277.082 141.842 276.728 141.96 276.257C142.077 275.844 141.842 275.432 141.37 275.078C141.076 274.843 141.017 274.312 140.958 273.723C140.899 272.957 140.84 271.896 139.838 271.602C138.777 271.248 137.893 270.482 137.835 269.834C137.835 269.598 137.952 269.362 138.188 269.185C139.367 268.478 143.197 268.714 144.906 269.421C145.908 269.834 145.967 270.187 146.085 270.541C146.143 270.777 146.202 271.071 146.497 271.307C146.674 271.484 147.086 271.778 147.558 272.073C148.618 272.721 150.151 273.782 150.622 274.843C150.976 275.609 150.563 276.434 150.033 277.612C149.561 278.732 148.913 280.087 148.677 281.914L149.149 281.973C149.384 280.205 149.974 278.85 150.504 277.789C150.917 276.434 151.388 275.432 150.976 274.489Z" fill="#323A50"/>
</g>
<g opacity="0.34">
<path d="M166.711 284.271C204.105 284.271 234.42 254.089 234.42 216.857C234.42 179.625 204.105 149.443 166.711 149.443C129.316 149.443 99.002 179.625 99.002 216.857C99.002 254.089 129.316 284.271 166.711 284.271Z" fill="url(#paint1_radial_3670_7815)"/>
<path d="M166.415 284.86C148.265 284.86 131.235 277.848 118.389 265.06C105.542 252.273 98.4707 235.301 98.4707 217.269C98.4707 199.237 105.542 182.207 118.389 169.478C131.235 156.75 148.265 149.678 166.415 149.678C184.565 149.678 201.596 156.691 214.442 169.478C227.289 182.266 234.36 199.237 234.36 217.269C234.36 235.301 227.289 252.332 214.442 265.06C201.655 277.848 184.565 284.86 166.415 284.86ZM166.415 150.032C129.173 150.032 98.8832 180.144 98.8832 217.21C98.8832 254.276 129.173 284.389 166.415 284.389C203.658 284.389 233.948 254.276 233.948 217.21C233.948 180.144 203.658 150.032 166.415 150.032Z" fill="#323A50"/>
</g>
<path d="M167.063 142.489C153.569 142.489 143.138 151.093 141.96 165.943C141.901 166.65 142.019 166.532 142.019 166.002C142.019 160.462 152.979 157.575 166.474 157.575C179.969 157.575 190.929 160.404 190.929 166.002C190.929 166.414 190.929 166.473 190.988 166.061C191.283 152.979 180.558 142.489 167.063 142.489Z" fill="#293C4F"/>
<path d="M149.03 151.034C149.03 151.152 148.913 150.386 148.971 149.561C149.03 148.971 149.207 148.264 149.502 147.734C149.796 147.203 150.15 146.673 150.621 146.202C150.621 146.202 150.68 146.202 150.68 146.143C153.45 143.314 159.284 141.428 166.12 141.428C175.548 141.428 183.268 145.141 183.268 149.737C183.268 149.737 183.268 150.327 183.209 150.739C183.15 151.505 182.855 152.212 182.384 152.861L205.307 159.166C205.307 158.695 205.307 159.637 205.307 157.87C205.307 146.378 187.923 137.127 166.414 137.127C144.964 137.127 127.521 146.437 127.521 157.87C127.521 158.518 127.58 159.225 127.698 159.873L150.268 153.214C149.855 152.625 149.148 151.623 149.03 151.034Z" fill="#DBDBDB"/>
<path d="M127.404 160.403L127.345 159.932C127.227 159.225 127.168 158.577 127.168 157.869C127.168 152.153 131.293 146.85 138.777 142.843C146.143 138.894 155.984 136.714 166.473 136.714C176.963 136.714 186.745 138.894 194.17 142.843C201.654 146.85 205.779 152.153 205.779 157.869C205.779 158.4 205.779 158.694 205.779 158.871C205.779 158.93 205.779 158.989 205.779 159.048H205.661C205.661 159.048 205.602 159.107 205.602 159.166V159.696L181.618 153.096L181.972 152.625C182.443 151.977 182.679 151.328 182.738 150.68C182.797 150.209 182.797 149.678 182.797 149.678C182.797 145.318 175.313 141.782 166.061 141.782C159.638 141.782 153.686 143.609 150.975 146.378L150.916 146.437C150.445 146.909 150.15 147.38 149.855 147.852C149.62 148.323 149.384 148.971 149.325 149.502C149.266 150.032 149.325 150.562 149.325 150.739V150.857C149.443 151.269 149.797 151.918 150.504 152.919L150.798 153.391L127.404 160.403ZM166.414 137.539C145.2 137.539 127.934 146.673 127.934 157.869C127.934 158.341 127.993 158.812 128.052 159.343L149.62 152.919C149.207 152.271 148.795 151.623 148.677 151.093C148.5 150.621 148.618 149.443 148.618 149.443C148.677 148.794 148.913 148.087 149.207 147.498C149.502 146.968 149.914 146.378 150.386 145.907L150.445 145.848C153.391 142.843 159.402 141.016 166.12 141.016C170.775 141.016 175.136 141.9 178.377 143.491C181.736 145.141 183.622 147.38 183.622 149.737C183.622 149.796 183.622 150.327 183.563 150.798C183.504 151.446 183.327 152.036 182.973 152.684L204.895 158.694C204.895 158.518 204.895 158.282 204.895 157.928C204.895 146.673 187.629 137.539 166.414 137.539Z" fill="#323A50"/>
<path opacity="0.52" d="M166.12 143.609C174.9 143.609 182.148 146.85 183.15 150.975C183.209 150.68 183.268 150.327 183.268 149.973C183.268 145.318 175.548 141.546 166.12 141.546C156.691 141.546 148.972 145.318 148.972 149.973C148.972 150.15 148.913 150.445 148.972 150.562C148.972 150.621 148.972 151.329 149.325 152.33C149.502 152.861 150.15 153.096 150.209 152.979C149.148 151.682 149.148 150.68 149.207 150.562C150.563 146.614 157.634 143.609 166.12 143.609Z" fill="url(#paint2_linear_3670_7815)"/>
<path d="M166.121 144.552C174.842 144.552 181.383 148.323 182.444 153.037C183.328 151.682 183.269 150.562 183.269 150.268C183.269 145.612 175.608 141.605 166.18 141.605C156.751 141.605 149.032 145.023 148.973 150.386C148.973 150.739 149.267 153.037 150.21 153.037C150.151 147.734 157.399 144.552 166.121 144.552Z" fill="#DBDBDB"/>
<path d="M182.268 154.098L182.091 153.155C181.03 148.441 174.371 144.964 166.18 144.964C160.052 144.964 154.925 146.496 152.332 149.089C151.153 150.268 150.623 151.564 150.623 153.037V153.45H150.211C150.034 153.45 149.739 153.391 149.444 153.096C148.737 152.33 148.561 150.621 148.561 150.386C148.619 147.675 150.505 145.318 153.864 143.668C157.046 142.136 161.407 141.252 166.18 141.252C170.777 141.252 175.137 142.195 178.437 143.903C181.796 145.612 183.682 147.911 183.682 150.327V150.386C183.682 150.798 183.682 151.977 182.798 153.332L182.268 154.098ZM166.18 142.018C156.516 142.018 149.444 145.553 149.386 150.386C149.386 150.621 149.562 151.682 149.857 152.271C150.034 150.916 150.623 149.62 151.743 148.5C154.453 145.789 159.816 144.139 166.121 144.139C170.423 144.139 174.312 145.023 177.318 146.673C179.911 148.028 181.737 149.914 182.503 151.977C182.798 151.211 182.798 150.621 182.798 150.327V150.268C182.857 145.789 175.196 142.018 166.18 142.018Z" fill="#323A50"/>
<path d="M166.591 285.096C148.441 285.096 131.352 278.025 118.564 265.178C105.718 252.332 98.6465 235.302 98.6465 217.152C98.6465 202.184 103.42 187.982 112.436 176.078L112.907 176.432C103.95 188.218 99.2358 202.302 99.2358 217.152C99.2358 254.277 129.466 284.507 166.591 284.507C203.716 284.507 233.946 254.277 233.946 217.152C233.946 202.184 229.114 187.982 220.039 176.137L220.511 175.784C229.704 187.746 234.595 202.066 234.595 217.152C234.595 235.302 227.523 252.391 214.677 265.178C201.771 278.025 184.741 285.096 166.591 285.096Z" fill="#323A50"/>
<path d="M150.27 153.037L150.329 156.219L134.123 162.171C133.534 162.407 133.534 163.232 134.123 163.468L134.182 163.526L135.302 163.998C135.656 164.116 135.597 164.646 135.243 164.705L132.945 165.176H132.827C131.766 165.412 131.648 166.826 132.65 167.239L135.007 168.241C135.42 168.418 135.361 169.007 134.948 169.125C132.886 169.596 128.643 170.657 122.515 172.955C102.125 181.028 92.4609 203.598 92.4609 203.598C92.4609 203.598 94.4056 192.932 97.8823 185.625C100.122 180.969 103.657 173.662 110.964 165.589C115.797 160.226 122.397 155.335 122.397 155.335C122.397 155.335 124.754 160.462 128.172 159.343C130.764 158.046 146.086 152.566 150.27 153.037Z" fill="#DBDBDB"/>
<path d="M91.2227 207.134L91.8709 203.598C91.8709 203.48 93.8745 192.755 97.3512 185.507C99.5316 181.028 103.126 173.485 110.492 165.353C115.324 160.05 121.924 155.1 121.983 155.041L122.396 154.746L122.573 155.218C122.573 155.277 124.399 159.166 127.051 159.166C127.287 159.166 127.582 159.107 127.876 159.048C130.587 157.752 144.789 152.625 149.68 152.625C149.916 152.625 150.151 152.625 150.328 152.684L150.682 152.743L150.741 156.573L134.299 162.584C134.123 162.643 134.123 162.76 134.123 162.819C134.123 162.878 134.123 162.996 134.299 163.055L135.478 163.527C135.773 163.644 136.008 163.998 135.949 164.293C135.891 164.646 135.655 164.941 135.301 165L132.826 165.53C132.473 165.589 132.296 165.884 132.296 166.119C132.296 166.355 132.355 166.65 132.708 166.827L135.066 167.828C135.419 168.005 135.596 168.3 135.596 168.712C135.596 169.125 135.301 169.419 134.948 169.478C132.944 169.95 128.701 171.01 122.573 173.309C112.142 177.434 104.599 185.507 100.062 191.518C95.1709 198.059 92.7548 203.716 92.6959 203.775L91.2227 207.134ZM122.042 155.984C120.569 157.103 115.148 161.346 111.023 165.884C103.774 173.898 100.18 181.382 97.9994 185.86C95.7602 190.575 94.1102 196.88 93.2262 200.593C94.4637 198.294 96.4673 194.877 99.237 191.105C103.774 184.977 111.494 176.844 122.101 172.602C128.289 170.303 132.591 169.243 134.594 168.771C134.594 168.771 134.653 168.771 134.653 168.712C134.653 168.653 134.653 168.653 134.594 168.653L132.237 167.652C131.648 167.416 131.294 166.768 131.353 166.119C131.412 165.471 131.883 164.941 132.532 164.823L134.889 164.293L133.769 163.821C133.357 163.644 133.062 163.232 133.121 162.76C133.121 162.289 133.416 161.935 133.828 161.759L149.739 155.925V153.391C149.68 153.391 149.621 153.391 149.503 153.391C144.671 153.391 130.646 158.459 127.994 159.696H127.935C127.582 159.814 127.228 159.873 126.874 159.873C124.458 159.932 122.691 157.103 122.042 155.984Z" fill="#323A50"/>
<path d="M166.533 293.287V292.462C208.078 292.462 241.903 258.637 241.903 217.093C241.903 193.345 231.06 171.482 212.144 157.104L212.615 156.455C221.749 163.409 229.351 172.484 234.537 182.737C239.958 193.462 242.728 205.012 242.728 217.152C242.728 227.464 240.724 237.423 236.776 246.793C232.946 255.868 227.465 264 220.453 271.012C213.44 278.025 205.308 283.505 196.233 287.336C186.805 291.225 176.846 293.287 166.533 293.287Z" fill="#323A50"/>
<path d="M182.385 153.096L182.326 156.279L198.944 161.818C199.533 162.054 199.533 162.878 198.944 163.114L198.885 163.173L197.765 163.645C197.412 163.762 197.471 164.293 197.824 164.352L200.123 164.823H200.24C201.301 165.059 201.419 166.473 200.417 166.886L198.06 167.887C197.648 168.064 197.707 168.653 198.119 168.771C200.182 169.243 204.424 170.303 210.553 172.602C230.942 180.675 240.607 202.832 240.607 202.832C240.607 202.832 238.662 192.578 235.185 185.33C232.946 180.675 229.41 173.368 222.103 165.295C217.271 159.932 210.317 155.748 210.317 155.748C210.317 155.748 208.373 160.168 204.896 159.048C202.303 157.634 186.569 152.566 182.385 153.096Z" fill="#DBDBDB"/>
<path d="M241.844 206.25L240.429 202.95C240.429 202.891 237.954 197.352 233.122 190.928C228.644 185.036 221.101 177.08 210.612 172.896C204.483 170.657 200.24 169.537 198.237 169.125C197.883 169.066 197.588 168.712 197.588 168.359C197.529 167.946 197.765 167.652 198.119 167.475L200.476 166.473C200.829 166.355 200.947 166.002 200.888 165.766C200.888 165.53 200.712 165.236 200.358 165.177L197.883 164.646C197.529 164.587 197.294 164.293 197.235 163.939C197.176 163.586 197.412 163.291 197.706 163.173L198.885 162.702C199.062 162.643 199.062 162.525 199.062 162.466C199.062 162.407 199.062 162.289 198.885 162.23L182.031 156.632L182.09 152.802L182.444 152.743C182.621 152.743 182.915 152.684 183.151 152.684C188.16 152.684 202.597 157.339 205.308 158.636C205.603 158.753 205.956 158.753 206.251 158.753C208.726 158.753 210.199 155.512 210.199 155.512L210.376 155.1L210.788 155.336C210.847 155.395 217.86 159.578 222.692 164.941C230.058 173.073 233.653 180.616 235.833 185.095C239.31 192.343 241.254 202.596 241.254 202.714L241.844 206.25ZM198.06 163.88L200.417 164.411C201.065 164.528 201.537 165.059 201.596 165.707C201.654 166.355 201.301 166.945 200.712 167.239L198.354 168.241C198.354 168.241 198.296 168.241 198.296 168.3C198.296 168.359 198.296 168.359 198.354 168.359C200.358 168.83 204.66 169.891 210.847 172.189C221.454 176.432 229.115 184.446 233.712 190.457C236.481 194.111 238.426 197.47 239.663 199.709C238.838 196.114 237.188 190.103 234.949 185.448C232.828 180.97 229.233 173.545 221.926 165.471C217.801 160.934 212.085 157.162 210.612 156.278C210.081 157.221 208.549 159.578 206.133 159.578C205.721 159.578 205.367 159.52 204.954 159.402H204.896C202.303 158.105 187.983 153.509 183.033 153.509C182.915 153.509 182.856 153.509 182.797 153.509V155.984L199.121 161.405C199.592 161.582 199.828 161.936 199.828 162.407C199.828 162.878 199.592 163.232 199.179 163.468L198.06 163.88Z" fill="#323A50"/>
<path d="M191.225 166.414C191.225 160.875 180.205 157.988 166.651 157.988C153.098 157.988 142.078 160.875 142.078 166.414C142.078 171.954 153.098 178.082 166.651 178.082C180.205 178.082 191.225 171.954 191.225 166.414Z" fill="#DBDBDB"/>
<path d="M166.652 178.495C160.228 178.495 154.041 177.139 149.091 174.664C144.377 172.307 141.666 169.302 141.666 166.355C141.666 163.527 144.259 161.229 149.15 159.696C153.57 158.282 159.639 157.575 166.652 157.575C173.664 157.575 179.734 158.341 184.153 159.696C189.045 161.229 191.637 163.586 191.637 166.355C191.637 169.243 188.927 172.307 184.212 174.664C179.262 177.139 173.075 178.495 166.652 178.495ZM166.652 158.4C159.816 158.4 153.687 159.166 149.445 160.521C146.262 161.523 142.55 163.35 142.55 166.414C142.55 168.948 145.143 171.777 149.504 174.016C154.277 176.432 160.405 177.729 166.652 177.729C172.898 177.729 179.027 176.432 183.8 174.016C188.161 171.836 190.754 169.007 190.754 166.414C190.754 163.35 186.982 161.464 183.859 160.521C179.616 159.107 173.487 158.4 166.652 158.4Z" fill="#323A50"/>
<path d="M190.577 166.532C190.577 161.287 179.852 158.577 166.652 158.577C153.452 158.577 142.727 161.287 142.727 166.532C142.727 171.777 153.452 177.552 166.652 177.552C179.852 177.552 190.577 171.777 190.577 166.532Z" fill="#DBDBDB"/>
<path d="M166.652 177.67C160.406 177.67 154.395 176.432 149.681 174.134C145.202 171.954 142.609 169.184 142.609 166.532C142.609 163.998 145.084 161.936 149.681 160.521C153.983 159.225 159.817 158.518 166.652 158.518C173.429 158.518 179.322 159.225 183.624 160.521C188.279 161.936 190.695 163.998 190.695 166.532C190.695 169.184 188.102 171.895 183.624 174.134C178.85 176.373 172.84 177.67 166.652 177.67ZM166.652 158.695C152.156 158.695 142.845 161.759 142.845 166.532C142.845 171.6 153.275 177.493 166.652 177.493C180.088 177.493 190.459 171.6 190.459 166.532C190.459 161.759 181.09 158.695 166.652 158.695Z" fill="#323A50"/>
<path d="M189.34 166.65C189.34 162.112 179.145 159.755 166.652 159.755C154.159 159.755 143.965 162.112 143.965 166.65C143.965 171.187 154.159 176.196 166.652 176.196C179.145 176.196 189.34 171.187 189.34 166.65Z" fill="#DBDBDB"/>
<path d="M166.592 176.314C160.7 176.314 154.984 175.195 150.505 173.25C146.262 171.364 143.787 168.948 143.787 166.709C143.787 164.528 146.144 162.702 150.505 161.464C154.571 160.345 160.11 159.696 166.592 159.696C173.075 159.696 178.614 160.286 182.68 161.464C187.1 162.702 189.398 164.528 189.398 166.709C189.398 169.007 186.923 171.364 182.68 173.25C178.201 175.195 172.485 176.314 166.592 176.314ZM166.592 159.932C152.862 159.932 144.023 162.584 144.023 166.709C144.023 171.069 153.864 176.137 166.592 176.137C179.321 176.137 189.162 171.069 189.162 166.709C189.221 162.584 180.323 159.932 166.592 159.932Z" fill="#323A50"/>
<path d="M187.983 166.709C187.983 162.82 178.377 160.816 166.474 160.816C154.629 160.816 144.965 162.82 144.965 166.709C144.965 170.598 154.57 174.9 166.474 174.9C178.318 174.959 187.983 170.598 187.983 166.709Z" fill="#DBDBDB"/>
<path d="M166.474 175.018C160.876 175.018 155.513 174.075 151.271 172.366C147.263 170.775 144.906 168.654 144.906 166.709C144.906 164.823 147.087 163.291 151.271 162.171C155.101 161.229 160.404 160.698 166.474 160.698C172.544 160.698 177.847 161.229 181.678 162.171C185.862 163.232 188.042 164.823 188.042 166.709C188.042 168.654 185.744 170.716 181.678 172.366C177.435 174.075 172.072 175.018 166.474 175.018ZM166.474 160.934C153.51 160.934 145.083 163.232 145.083 166.768C145.083 170.539 154.394 174.841 166.474 174.841C178.554 174.841 187.865 170.48 187.865 166.768C187.865 163.232 179.438 160.934 166.474 160.934Z" fill="#323A50"/>
<path d="M186.45 166.65C186.45 163.527 177.493 161.936 166.415 161.936C155.336 161.936 146.379 163.527 146.379 166.65C146.379 169.773 155.336 173.603 166.415 173.603C177.493 173.603 186.45 169.773 186.45 166.65Z" fill="#DBDBDB"/>
<path d="M166.415 173.662C155.278 173.662 146.262 169.832 146.262 166.65C146.262 163.114 157.105 161.877 166.415 161.877C175.726 161.877 186.569 163.114 186.569 166.65C186.569 169.832 177.612 173.662 166.415 173.662ZM166.415 162.053C154.276 162.053 146.438 163.88 146.438 166.65C146.438 169.714 155.631 173.486 166.415 173.486C177.199 173.486 186.392 169.714 186.392 166.65C186.392 163.88 178.555 162.053 166.415 162.053Z" fill="#323A50"/>
<path d="M184.803 166.709C184.803 164.293 176.553 163.055 166.417 163.055C156.281 163.055 148.031 164.293 148.031 166.709C148.031 169.125 156.281 172.071 166.417 172.071C176.553 172.071 184.803 169.125 184.803 166.709Z" fill="#DBDBDB"/>
<path d="M166.357 172.189C156.103 172.189 147.854 169.184 147.854 166.709C147.854 163.939 157.4 162.938 166.357 162.938C175.314 162.938 184.861 163.939 184.861 166.709C184.861 169.184 176.611 172.189 166.357 172.189ZM166.357 163.173C155.396 163.173 148.089 164.587 148.089 166.709C148.089 169.125 156.516 172.012 166.357 172.012C176.198 172.012 184.625 169.125 184.625 166.709C184.684 164.587 177.318 163.173 166.357 163.173Z" fill="#323A50"/>
<path d="M182.798 166.886C182.798 165.118 175.373 164.234 166.239 164.234C157.105 164.234 149.68 165.118 149.68 166.886C149.68 168.654 157.105 170.834 166.239 170.834C175.373 170.834 182.798 168.654 182.798 166.886Z" fill="#DBDBDB"/>
<path d="M166.239 170.952C157.046 170.952 149.562 168.771 149.562 166.945C149.562 164.882 158.166 164.175 166.239 164.175C174.312 164.175 182.916 164.882 182.916 166.945C182.916 168.713 175.491 170.952 166.239 170.952ZM166.239 164.352C156.398 164.352 149.798 165.413 149.798 166.886C149.798 168.418 156.693 170.716 166.239 170.716C175.786 170.716 182.68 168.418 182.68 166.886C182.68 165.413 176.08 164.352 166.239 164.352Z" fill="#323A50"/>
<path d="M236.715 134.389C235.883 135.39 237.055 137.736 239.333 139.629C241.612 141.521 244.133 142.243 244.964 141.242C245.796 140.241 244.624 137.895 242.346 136.002C240.068 134.11 237.547 133.387 236.715 134.389Z" fill="white"/>
<path d="M243.789 142.018C242.492 142.018 240.725 141.193 239.134 139.896C238.014 138.954 237.071 137.893 236.6 136.832C236.069 135.712 236.01 134.77 236.482 134.18C236.776 133.827 237.307 133.591 237.896 133.591C239.192 133.591 240.96 134.416 242.551 135.712C244.967 137.716 246.146 140.25 245.203 141.37C244.909 141.782 244.437 142.018 243.789 142.018ZM237.955 134.239C237.484 134.239 237.189 134.357 237.012 134.593C236.717 135.005 236.776 135.712 237.189 136.537C237.66 137.48 238.485 138.482 239.546 139.366C241.019 140.604 242.61 141.37 243.789 141.37C244.26 141.37 244.555 141.252 244.732 141.016C245.38 140.25 244.496 138.129 242.198 136.184C240.725 135.005 239.134 134.239 237.955 134.239Z" fill="#293C4F"/>
<path d="M256.988 126.578C256.929 126.578 256.87 126.578 256.811 126.519C256.693 126.402 256.693 126.225 256.752 126.107C257.4 125.341 256.575 123.278 254.336 121.393C254.218 121.275 254.218 121.098 254.277 120.98C254.395 120.862 254.572 120.862 254.69 120.921C257.047 122.866 258.166 125.341 257.165 126.461C257.165 126.519 257.106 126.578 256.988 126.578Z" fill="#293C4F"/>
<path d="M262.94 119.212C262.882 119.212 262.823 119.212 262.764 119.153C262.646 119.036 262.646 118.859 262.705 118.741C263.353 117.975 262.528 115.912 260.348 114.086C260.23 113.968 260.23 113.791 260.289 113.673C260.407 113.555 260.583 113.555 260.701 113.614C263.058 115.559 264.119 117.975 263.117 119.153C263.117 119.212 262.999 119.212 262.94 119.212Z" fill="#293C4F"/>
<path d="M250.859 134.121C250.8 134.121 250.741 134.121 250.682 134.062C250.565 133.944 250.564 133.768 250.623 133.65C251.272 132.884 250.447 130.762 248.148 128.877C248.031 128.759 248.031 128.582 248.089 128.464C248.207 128.346 248.384 128.346 248.502 128.405C250.859 130.409 251.979 132.825 251.036 134.003C251.036 134.121 250.977 134.121 250.859 134.121Z" fill="#293C4F"/>
<path d="M240.782 137.834C240.075 137.245 239.191 137.068 238.838 137.539C238.779 137.598 238.779 137.657 238.72 137.716L236.48 140.663L238.897 142.902L241.372 139.779L241.43 139.72C241.843 139.248 241.548 138.423 240.782 137.834Z" fill="white"/>
<path d="M238.956 143.314L236.127 140.662L238.543 137.539C238.602 137.48 238.602 137.421 238.661 137.362C238.838 137.127 239.132 137.009 239.486 137.009C239.957 137.009 240.547 137.245 241.018 137.657C241.431 137.952 241.725 138.364 241.843 138.777C242.02 139.248 241.961 139.661 241.725 139.896C241.725 139.955 241.666 139.955 241.666 140.014L238.956 143.314ZM236.952 140.545L238.897 142.371L241.195 139.484C241.195 139.484 241.195 139.484 241.254 139.425C241.372 139.307 241.372 139.13 241.254 138.895C241.136 138.6 240.9 138.305 240.606 138.07C240.252 137.775 239.781 137.598 239.486 137.598C239.368 137.598 239.191 137.598 239.132 137.716L239.073 137.775V137.834L236.952 140.545Z" fill="#293C4F"/>
<path d="M235.143 139.675C234.459 140.503 235.064 142.132 236.494 143.314C237.924 144.496 239.637 144.783 240.322 143.955C241.006 143.127 240.401 141.498 238.971 140.316C237.542 139.134 235.828 138.847 235.143 139.675Z" fill="white"/>
<path d="M239.133 144.728C238.249 144.728 237.188 144.257 236.304 143.55C234.713 142.253 234.124 140.427 234.89 139.484C235.184 139.13 235.715 138.895 236.304 138.895C237.188 138.895 238.249 139.307 239.133 140.073C240.724 141.37 241.313 143.196 240.547 144.139C240.252 144.552 239.722 144.728 239.133 144.728ZM236.304 139.484C236.01 139.484 235.597 139.543 235.361 139.837C234.772 140.545 235.42 142.018 236.658 143.078C237.424 143.727 238.367 144.139 239.133 144.139C239.427 144.139 239.84 144.08 240.076 143.786C240.665 143.078 240.017 141.605 238.779 140.545C237.954 139.837 237.07 139.484 236.304 139.484Z" fill="#293C4F"/>
<path d="M238.072 141.311C237.247 140.604 236.245 140.486 235.833 140.957C235.774 141.016 235.774 141.075 235.715 141.134L234.359 142.902L237.129 145.495L238.72 143.491C238.779 143.491 238.779 143.432 238.779 143.432C239.25 142.961 238.897 142.018 238.072 141.311Z" fill="white"/>
<path d="M237.188 145.966L234.006 142.961L235.538 141.016C235.597 140.957 235.597 140.839 235.656 140.78C235.892 140.544 236.186 140.368 236.599 140.368C237.129 140.368 237.777 140.603 238.308 141.075C239.251 141.9 239.663 142.961 239.133 143.609C239.074 143.668 239.074 143.668 239.015 143.727L237.188 145.966ZM234.831 142.902L237.129 145.082L238.602 143.314C238.602 143.314 238.661 143.314 238.661 143.255C238.897 142.961 238.661 142.194 237.895 141.605C237.483 141.252 236.952 141.016 236.54 141.016C236.422 141.016 236.186 141.016 236.068 141.193C236.068 141.193 236.009 141.252 236.009 141.311V141.369L234.831 142.902Z" fill="#293C4F"/>
<path d="M234.33 142.993C233.936 143.47 234.288 144.411 235.115 145.095C235.943 145.779 236.934 145.948 237.328 145.471C237.722 144.994 237.37 144.053 236.542 143.369C235.714 142.685 234.724 142.516 234.33 142.993Z" fill="white"/>
<path d="M236.658 146.025C236.128 146.025 235.48 145.789 234.95 145.318C234.007 144.493 233.594 143.432 234.125 142.784C234.36 142.548 234.655 142.371 235.067 142.371C235.598 142.371 236.246 142.607 236.776 143.078C237.189 143.432 237.542 143.903 237.719 144.316C237.896 144.846 237.837 145.259 237.601 145.612C237.366 145.907 237.012 146.025 236.658 146.025ZM235.008 143.02C234.891 143.02 234.655 143.02 234.537 143.196C234.301 143.491 234.537 144.257 235.303 144.846C235.716 145.2 236.246 145.436 236.658 145.436C236.776 145.436 237.012 145.436 237.13 145.259C237.248 145.141 237.248 144.846 237.13 144.611C237.012 144.257 236.717 143.903 236.364 143.609C235.892 143.196 235.421 143.02 235.008 143.02Z" fill="#117999"/>
<path d="M237.248 142.666C235.951 141.605 234.36 141.311 233.771 142.077C233.712 142.136 233.653 142.254 233.594 142.371L231.119 145.612L235.48 149.679L238.367 146.084C238.426 146.025 238.485 146.025 238.485 145.966C239.074 145.259 238.544 143.786 237.248 142.666Z" fill="white"/>
<path d="M235.48 150.15L230.707 145.671L233.359 142.253C233.418 142.136 233.477 142.018 233.536 141.959C233.83 141.605 234.302 141.428 234.832 141.428C235.657 141.428 236.6 141.841 237.425 142.489C238.073 143.02 238.603 143.727 238.839 144.375C239.134 145.082 239.075 145.73 238.662 146.202C238.603 146.261 238.545 146.32 238.486 146.378L235.48 150.15ZM231.473 145.612L235.362 149.266L238.073 145.907C238.132 145.848 238.132 145.848 238.191 145.789C238.427 145.495 238.427 145.082 238.25 144.552C238.014 143.962 237.602 143.373 237.012 142.902C236.305 142.312 235.48 141.959 234.773 141.959C234.537 141.959 234.125 142.018 233.948 142.253C233.889 142.312 233.889 142.371 233.83 142.43V142.489L231.473 145.612Z" fill="#293C4F"/>
<path d="M229.94 151.8C230.058 151.859 231.885 150.386 233.004 149.973C234.065 149.62 235.067 150.327 235.656 149.62C236.304 148.853 235.715 147.38 234.419 146.32C233.122 145.259 231.531 144.964 230.942 145.73C230.411 146.378 231.06 147.027 231.177 148.441C231.295 149.443 229.763 151.682 229.94 151.8Z" fill="white"/>
<path d="M229.94 152.036H229.822H229.704C229.468 151.859 229.586 151.623 229.999 150.857C230.352 150.15 230.942 149.03 230.883 148.5C230.824 147.97 230.706 147.616 230.588 147.262C230.411 146.673 230.234 146.143 230.706 145.554C231.001 145.2 231.472 145.023 232.002 145.023C232.827 145.023 233.77 145.436 234.595 146.084C235.243 146.614 235.774 147.321 236.009 147.97C236.304 148.677 236.245 149.325 235.833 149.796C235.538 150.209 235.126 150.209 234.831 150.209C234.654 150.209 234.477 150.209 234.301 150.15C234.124 150.15 233.947 150.091 233.711 150.091C233.476 150.091 233.24 150.15 233.063 150.209C232.415 150.445 231.413 151.093 230.824 151.505C230.234 151.977 230.117 152.036 229.94 152.036ZM232.002 145.612C231.767 145.612 231.354 145.671 231.177 145.907C230.942 146.202 231.001 146.437 231.177 147.027C231.295 147.38 231.413 147.852 231.472 148.382C231.531 149.089 231.001 150.209 230.529 151.034C231.236 150.562 232.12 149.914 232.886 149.679C233.122 149.561 233.417 149.561 233.711 149.561C233.947 149.561 234.124 149.561 234.359 149.62C234.536 149.62 234.713 149.679 234.831 149.679C235.067 149.679 235.243 149.62 235.361 149.443C235.597 149.148 235.597 148.736 235.42 148.205C235.184 147.616 234.772 147.027 234.183 146.555C233.534 145.966 232.709 145.612 232.002 145.612Z" fill="#293C4F"/>
<path d="M231.06 149.737L224.342 157.929L225.108 158.695L231.826 150.386C231.885 150.327 231.708 150.15 231.531 149.973C231.354 149.796 231.119 149.679 231.06 149.737Z" fill="white"/>
<path d="M225.167 159.166L223.988 157.928L230.883 149.502C230.942 149.443 231.06 149.384 231.178 149.384C231.354 149.384 231.649 149.561 231.826 149.678C231.944 149.796 232.062 149.914 232.12 149.973C232.356 150.268 232.238 150.444 232.179 150.503L225.167 159.166ZM224.754 157.87L225.108 158.223L231.531 150.327C231.472 150.268 231.413 150.209 231.354 150.209C231.295 150.15 231.237 150.091 231.178 150.091L224.754 157.87Z" fill="#293C4F"/>
<path d="M211.671 173.486L204.188 182.619L205.484 182.678L212.791 174.016C212.85 173.898 211.73 173.427 211.671 173.486Z" fill="white"/>
<path d="M205.662 182.973L203.658 182.855L211.496 173.309C211.555 173.25 211.614 173.191 211.731 173.191C211.908 173.191 212.969 173.603 213.087 173.839L213.146 174.016L213.028 174.193L205.662 182.973ZM204.837 182.325L205.367 182.384L212.321 174.075C212.144 174.016 211.908 173.898 211.79 173.839L204.837 182.325Z" fill="#293C4F"/>
<path opacity="0.63" d="M202.596 233.121C203.009 236.362 207.723 235.832 207.488 241.843C207.37 245.025 203.952 248.03 201.418 249.445C197.882 251.389 193.227 250.152 187.688 254.748C185.802 256.28 180.911 260.405 174.252 259.698C169.538 259.227 167.829 256.28 164.941 254.454C162.348 252.862 158.518 258.343 154.923 253.687C152.33 250.27 148.795 250.8 148.559 247.5C148.264 243.434 151.505 242.255 149.03 240.311C144.257 236.598 143.491 234.712 144.493 231.589C145.789 227.641 138.423 233.711 139.248 227.7C140.073 221.689 147.027 224.223 147.439 221.866C147.852 219.686 140.721 220.157 142.195 216.032C143.138 213.557 147.027 211.789 149.62 210.67C153.98 208.784 144.729 207.487 151.505 201.771C154.864 198.884 158.105 201.477 159.814 202.243C162.82 203.598 162.525 199.12 163.468 198C169.125 191.164 176.079 198.766 182.855 196.645C190.634 194.229 175.43 191.989 182.325 187.452C185.684 185.212 186.921 187.275 191.93 186.627C194.877 186.273 195.82 185.389 197.941 184.034C201.713 181.618 204.07 182.502 204.305 182.737C205.307 183.68 208.254 187.157 206.663 190.929C204.6 195.937 201.83 192.284 200.416 194.877C198.825 197.705 205.189 196.939 203.775 200.652C201.418 206.662 206.898 205.896 207.311 211.671C207.664 217.152 201.123 215.089 202.596 218.861C203.304 220.746 205.602 220.57 206.486 224.282C208.077 231.412 201.713 226.345 202.596 233.121Z" fill="url(#paint3_linear_3670_7815)"/>
<path d="M236.658 134.239C236.717 134.121 236.776 134.062 236.894 134.003C237.129 133.886 237.365 133.827 237.542 133.827L281.974 78.9053H281.208L236.717 133.886C236.599 134.003 236.599 134.121 236.658 134.239Z" fill="#293C4F"/>
<path d="M294.88 78.9642L287.986 87.4499C287.927 87.0963 287.868 86.7428 287.691 86.3303C287.278 85.3874 286.453 84.3267 285.393 83.5017C285.275 83.3838 285.098 83.3839 284.98 83.5606C284.862 83.6785 284.862 83.8553 285.039 83.9731C285.982 84.7981 286.748 85.6821 287.161 86.566C287.514 87.391 287.514 88.0392 287.22 88.4517L281.916 94.9928C281.798 93.8142 280.855 92.2821 279.264 90.9856C279.146 90.8678 278.97 90.8678 278.852 91.0446C278.734 91.1624 278.734 91.3392 278.911 91.4571C280.855 93.0481 281.857 95.1106 281.091 95.9946C281.091 95.9946 281.091 96.0535 281.032 96.0535L275.787 102.595C275.728 102.241 275.611 101.828 275.434 101.416C274.962 100.414 274.137 99.4124 273.077 98.5285C272.959 98.4106 272.782 98.4106 272.664 98.5874C272.546 98.7053 272.546 98.8821 272.723 98.9999C273.725 99.8249 274.491 100.768 274.903 101.652C275.257 102.477 275.316 103.184 274.962 103.537L269.659 110.137C269.541 108.9 268.539 107.368 266.948 106.012C266.83 105.895 266.653 105.895 266.536 106.071C266.418 106.189 266.418 106.366 266.595 106.484C268.775 108.311 269.541 110.314 268.893 111.08C268.893 111.08 268.893 111.139 268.834 111.139L245.262 140.25V140.191C245.262 140.486 245.321 140.839 245.145 141.134C245.262 141.134 245.321 141.075 245.38 141.016L275.375 103.95L295.587 78.9053H294.88V78.9642Z" fill="#293C4F"/>
</g>
<defs>
<linearGradient id="paint0_linear_3670_7815" x1="179.041" y1="199.958" x2="144.479" y2="65.5126" gradientUnits="userSpaceOnUse">
<stop offset="0.2655" stop-color="#032A3D" stop-opacity="0"/>
<stop offset="0.7809" stop-color="#032A3D"/>
</linearGradient>
<radialGradient id="paint1_radial_3670_7815" cx="0" cy="0" r="1" gradientUnits="userSpaceOnUse" gradientTransform="translate(167.93 237.117) scale(71.4086 71.0824)">
<stop offset="0.4054" stop-color="#032A3D" stop-opacity="0"/>
<stop offset="1" stop-color="#032A3D"/>
</radialGradient>
<linearGradient id="paint2_linear_3670_7815" x1="188.699" y1="173.627" x2="142.218" y2="125.1" gradientUnits="userSpaceOnUse">
<stop offset="0.3301" stop-color="#C4FFFF"/>
<stop offset="0.8279" stop-color="#47B4FF"/>
<stop offset="1" stop-color="#0C37A6"/>
</linearGradient>
<linearGradient id="paint3_linear_3670_7815" x1="226.677" y1="180.549" x2="-15.1868" y2="399.499" gradientUnits="userSpaceOnUse">
<stop stop-color="#E9F0F0"/>
<stop offset="0.4806" stop-color="#898B8D"/>
<stop offset="0.9748" stop-color="#6F6A81"/>
</linearGradient>
<clipPath id="clip0_3670_7815">
<rect width="330" height="330" fill="white"/>
</clipPath>
</defs>
</svg>
