<svg width="321" height="193" viewBox="0 0 321 193" fill="none" xmlns="http://www.w3.org/2000/svg">
<g clip-path="url(#clip0_2536_1596)">
<path d="M109.286 91.8564H0V94.1427H109.286V91.8564Z" fill="url(#paint0_linear_2536_1596)"/>
<path d="M181.56 186C166.988 186 152.908 183.224 139.892 177.672C127.203 172.283 116.07 164.771 106.656 155.054C105.1 153.666 103.79 152.442 102.726 151.543C97.8144 147.134 97.3232 146.644 94.0487 143.95C93.6394 143.623 93.2301 143.215 92.7389 142.889C88.6458 139.622 80.9508 133.417 74.4836 125.089C66.543 114.882 62.4499 104.104 62.2861 93.1633V92.8367C62.368 81.8139 66.4611 71.036 74.4836 60.9113C80.9508 52.583 88.6458 46.3775 92.7389 43.1115C93.2301 42.7032 93.6394 42.295 94.0487 42.05C96.5046 40.0904 97.4051 39.2739 99.6154 37.151C100.925 35.9263 102.726 34.3749 105.591 31.7621C115.006 21.8823 126.221 14.0439 139.073 8.57331C152.417 2.93942 166.579 0 181.478 0C195.067 0 208.329 2.44951 220.69 7.2669C232.642 11.921 243.448 18.6163 252.698 27.1896C261.948 35.7629 269.234 45.7243 274.31 56.7471C279.631 68.1782 282.168 80.4258 282.168 92.9183C282.168 95.2046 282.168 100.594 285.279 103.451C286.671 104.758 288.472 105.329 290.764 105.329H292.156C299.851 105.329 312.785 105.248 320.971 107.942L320.48 109.248C312.539 106.636 299.769 106.636 292.156 106.799H290.764C288.063 106.799 285.77 105.982 284.215 104.513C280.695 101.247 280.695 95.4495 280.695 93C280.695 42.4583 236.08 1.38807 181.396 1.38807C152.744 1.38807 125.484 12.8191 106.574 32.7419C103.708 35.3547 101.908 36.9061 100.598 38.1308C98.3056 40.2537 97.4051 40.9886 94.9492 43.1115C94.5399 43.4381 94.1306 43.8464 93.6394 44.173C85.535 50.6234 63.9234 67.9333 63.7597 92.9183V93.245C63.9234 118.23 85.6169 135.54 93.6394 141.99C94.1306 142.399 94.5399 142.807 94.9492 143.052C98.3056 145.746 98.8786 146.236 103.708 150.645C104.773 151.625 106.083 152.768 107.638 154.156C126.466 173.426 153.399 184.612 181.56 184.612C220.935 184.612 256.873 162.648 273.082 128.518C273.409 127.946 273.982 127.457 274.883 127.13C276.684 126.558 279.303 127.048 281.759 128.355C283.642 129.335 285.689 130.478 287.735 131.621C295.185 135.867 303.78 140.684 313.031 142.154L312.867 143.46C303.207 141.909 294.612 137.01 286.917 132.682C284.788 131.457 282.905 130.396 281.022 129.416C277.83 127.701 275.865 128.11 275.21 128.355C274.719 128.436 274.392 128.763 274.31 128.926C266.451 145.501 253.68 159.79 237.635 169.833C221.099 180.529 201.616 186 181.56 186Z" fill="#383F51"/>
<path d="M109.286 190H0V192.286H109.286V190Z" fill="url(#paint1_linear_2536_1596)"/>
<path d="M171.572 190H62.2861V192.286H171.572V190Z" fill="url(#paint2_linear_2536_1596)"/>
<path d="M233.859 190H124.572V192.286H233.859V190Z" fill="url(#paint3_linear_2536_1596)"/>
<path d="M296.145 190H186.858V192.286H296.145V190Z" fill="url(#paint4_linear_2536_1596)"/>
<path opacity="0.2" d="M181.571 16.1406C175.922 16.4571 166.017 18.3561 159.959 19.9385C156.357 20.888 153.656 18.4352 152.673 17.8022C146.288 21.3627 143.587 22.1539 142.277 23.1825C140.476 24.6858 139.084 25.3979 137.365 27.1386L136.547 28.0881C136.383 28.4046 135.974 28.8002 135.728 29.0375C135.564 29.4331 134.991 29.7496 134.827 30.0661C134.746 30.2244 134.254 30.7782 134.091 30.9365C133.927 31.4112 133.272 31.3321 133.108 31.8859C132.372 33.7057 131.307 34.4178 130.079 36.0003C130.161 36.5541 129.015 37.8201 128.77 38.3739C128.442 39.5608 126.805 42.33 126.314 43.5169C123.694 50.0049 122.63 60.2116 122.221 60.2908C121.73 60.8446 120.338 57.6006 122.957 47.6312C123.039 47.3147 122.466 45.4158 122.139 45.2576C122.139 45.2576 120.829 45.1784 120.747 45.1784C120.338 45.1784 119.519 48.1059 119.192 48.1059C119.11 48.1059 119.192 60.2116 119.192 60.2116C119.11 60.2116 116.818 61.082 116.572 61.082C115.344 61.2402 118.291 46.6817 117.145 46.9191C116.981 46.9191 117.309 43.3586 117.145 43.3586C117.063 43.3586 115.754 42.8839 115.754 42.963C115.754 43.1213 115.262 43.8334 114.28 43.4377C114.116 44.7037 112.97 45.2576 111.824 45.8114C111.824 45.9696 111.497 46.1279 111.415 46.3653C111.087 47.2356 110.924 48.1059 110.432 48.8972C110.432 49.2928 109.941 49.6884 109.859 50.084C109.778 50.2422 109.778 50.4005 109.696 50.5587C109.614 51.2708 109.368 51.8247 109.205 52.4577C109.205 52.4577 109.205 52.5368 109.205 52.6159C109.205 52.695 109.532 52.9324 109.368 53.0115C109.45 54.3566 109.368 55.5434 108.795 56.8885C108.795 56.9676 108.713 57.0467 108.713 57.205C108.713 57.6797 108.632 58.1545 108.386 58.5501C108.55 59.4995 108.55 60.3699 108.222 61.2402C108.222 61.5567 108.386 62.0314 108.304 62.2688C108.304 62.3479 108.222 62.8227 108.222 62.9809C108.222 63.8512 108.058 64.2468 108.058 65.1172C108.058 65.4337 108.058 65.5919 108.058 65.9084C108.058 66.304 108.14 66.6996 108.222 67.0952C108.632 69.2315 108.713 71.1305 108.713 73.2668C108.713 73.5833 108.795 73.7415 108.877 74.058C108.877 74.058 109.286 74.8492 109.286 74.9283C109.696 75.2448 109.45 74.9283 109.859 75.324C110.187 73.1085 110.76 70.9722 111.579 68.9942C112.479 66.6996 113.543 63.7721 115.754 62.1897C117.227 61.0029 119.028 60.5281 120.747 60.8446C123.121 60.5281 125.331 61.1611 126.068 63.1391L127.132 63.9304C127.214 64.0095 127.46 64.2468 127.542 64.4051C127.624 64.5633 128.033 64.7216 128.115 64.8798C128.688 65.5919 129.015 66.3831 129.588 67.0952C131.307 68.9942 132.044 70.1019 132.863 72.4756C132.945 72.792 133.354 74.6118 133.436 75.0074C134.5 77.0646 134.418 78.8844 134.746 81.0999C134.909 82.3658 135.073 83.6318 134.909 84.8977C135.482 86.5593 135.974 88.3 135.974 90.1198C135.974 91.9396 136.383 94.155 136.137 96.133C135.646 100.168 134.254 103.966 132.863 107.922C132.044 110.138 131.962 112.037 130.407 113.777C129.916 114.252 129.834 115.439 129.343 115.914C129.179 116.309 128.36 116.784 127.951 117.18C126.969 118.366 124.758 120.265 123.367 120.661C120.993 122.56 115.999 121.136 114.526 118.604C112.315 114.806 110.76 111.641 110.105 107.606C110.023 107.685 109.532 107.289 109.368 107.448C108.304 108.634 107.485 115.993 108.14 124.38C108.222 125.725 109.123 130.63 112.152 135.536C112.315 135.852 113.871 138.305 115.754 137.751C118.537 136.802 115.835 121.927 116.49 120.977C116.572 120.661 119.355 120.977 119.11 122.639C118.209 127.149 118.537 131.738 119.437 134.507C120.01 136.406 121.566 135.457 121.566 135.061C120.829 128.969 121.402 122.718 121.402 121.927C121.32 122.006 123.121 121.373 123.367 121.136C123.94 148.67 147.598 162.596 153.574 164.099C155.047 163.229 159.959 161.33 162.661 162.042C167.572 163.466 177.396 164.969 183.044 165.048C227.086 165.523 264.989 134.033 264.989 90.7528C264.989 61.082 248.944 36.8706 221.029 23.5781C208.831 17.3274 193.85 15.5868 181.571 16.1406Z" fill="url(#paint5_radial_2536_1596)"/>
<path opacity="0.2" d="M100.69 41.0645C100.69 41.0645 70.4831 88.4586 100.281 137.673C100.281 137.673 70.6468 123.826 67.0448 95.1048C66.8811 90.5949 67.536 85.7684 67.536 85.7684C70.6468 62.823 100.69 41.0645 100.69 41.0645Z" fill="url(#paint6_radial_2536_1596)"/>
<path d="M180.015 173.277C167.244 173.277 154.801 170.983 143.177 166.473C131.88 162.121 121.974 155.87 113.379 147.958L114.116 147.404C131.47 163.624 154.883 172.486 180.015 172.486C215.216 172.486 246.733 154.842 262.205 126.595C262.532 126.041 262.778 125.408 263.105 124.934C265.888 119.633 267.689 119.791 274.402 120.582L275.221 120.661L275.139 121.531L274.32 121.452C267.608 120.661 266.462 120.582 264.088 125.329C263.76 125.883 263.514 126.516 263.187 127.07C255.738 140.758 244.113 152.31 229.705 160.618C214.806 168.846 197.697 173.277 180.015 173.277Z" fill="#383F51"/>
<path d="M283.899 105.232C276.859 102.463 273.748 97.7948 273.666 89.8034C273.093 45.1786 231.016 8.94064 180.015 8.94064C152.264 8.94064 129.179 20.5716 117.8 30.6201C117.473 30.9366 115.18 32.3608 111.497 34.8927C108.631 36.7916 105.275 38.9279 104.948 39.2444L104.211 38.5323C104.62 38.1367 107.076 36.4751 110.924 34.1015C113.707 32.2817 116.818 30.2245 117.145 29.9871C128.606 19.8595 152.019 8.07031 180.097 8.07031C192.54 8.07031 204.738 10.2066 216.28 14.4001C227.414 18.4353 237.483 24.2903 246.324 31.8069C264.334 47.2357 274.485 67.8866 274.73 89.7243C274.812 97.32 277.759 101.672 284.39 104.362L283.899 105.232Z" fill="#383F51"/>
<path d="M185.173 165.839C183.208 165.839 181.08 165.76 179.115 165.681C173.548 165.286 168.064 164.336 162.743 162.991C162.251 162.833 160.86 162.833 159.714 162.912C158.322 162.991 155.948 163.861 154.311 164.732L153.492 163.703C155.047 162.754 157.667 161.804 159.55 161.567C160.614 161.488 162.251 161.488 163.152 161.646C168.309 163.07 173.712 163.94 179.197 164.336C222.748 167.343 261.059 136.564 264.661 95.7372C266.38 75.8776 259.749 56.7301 246.078 41.6969C232.407 26.6637 213.252 17.5646 192.131 16.0613C182.226 15.3492 172.402 16.3778 162.988 19.1471C160.86 19.7009 158.731 20.0174 157.585 19.9383C155.784 19.8592 153.574 18.9097 152.51 17.7228L153.738 16.9316C154.474 17.7228 156.112 18.5932 157.749 18.6723C158.731 18.6723 160.778 18.5141 162.661 17.8811C172.239 15.1118 182.308 14.0041 192.377 14.7953C213.907 16.2987 233.39 25.4768 247.306 40.8265C261.305 56.1762 267.936 75.6402 266.217 95.7372C264.497 115.834 254.428 134.27 237.974 147.404C223.075 159.51 204.574 165.839 185.173 165.839Z" fill="#383F51"/>
<path d="M318.526 109.031C311.322 106.42 302.645 106.34 295.687 106.261C289.874 106.182 285.29 106.182 282.916 104.837L283.407 104.046C285.536 105.233 290.284 105.312 295.687 105.312C302.727 105.391 311.65 105.47 318.935 108.081L318.526 109.031Z" fill="#383F51"/>
<path d="M312.632 135.536C306.165 134.745 299.289 131.422 292.576 128.099C286.027 124.855 279.724 121.769 273.993 121.294L274.075 120.424C279.969 120.899 286.273 124.063 292.985 127.387C299.534 130.631 306.329 133.954 312.632 134.587V135.536Z" fill="#383F51"/>
<path d="M100.445 138.385C90.7848 125.092 86.6917 109.98 87.0191 89.329C87.7559 63.7725 94.223 50.5591 100.445 40.9062L101.345 41.381C95.1235 50.9547 88.6563 64.0099 88.0014 89.4081C87.674 109.822 91.7671 124.776 101.345 137.989L100.445 138.385Z" fill="#383F51"/>
<path d="M115.016 149.303C108.222 143.053 103.474 140.204 99.2987 137.672C97.4158 136.485 95.6148 135.457 93.732 134.112C86.1188 128.731 80.3884 123.351 76.0497 117.417C69.7463 109.03 66.5537 99.8519 66.5537 90.199V89.8825C66.5537 76.59 74.8218 64.6425 81.7801 56.8886C90.3756 47.3148 100.035 40.8268 104.456 38.374L104.947 39.1652C100.69 41.5389 91.1124 48.0269 82.5169 57.4424C75.6404 65.0382 67.4542 76.8274 67.4542 89.8034V90.1199C67.4542 106.34 76.2135 120.424 94.305 133.321C96.106 134.586 97.907 135.694 99.7898 136.881C103.965 139.492 108.795 142.34 115.671 148.67L115.016 149.303Z" fill="#383F51"/>
<path d="M188.201 170.508C175.513 170.508 159.713 168.609 146.452 161.172C138.102 156.425 130.734 148.196 126.641 139.018C123.776 131.976 123.039 127.466 122.548 119.949H123.53C124.021 127.387 124.758 131.897 127.623 138.859C131.553 147.721 139.002 156.029 147.107 160.539C171.174 174.069 203.837 169.005 210.141 167.976L210.304 168.847C207.275 169.163 198.762 170.508 188.201 170.508Z" fill="#383F51"/>
<path d="M117.799 151.756C108.795 144.635 107.567 140.283 105.848 134.903C105.766 134.507 105.684 134.112 105.52 133.874C103.719 127.544 103.228 118.366 104.21 108.08C104.292 106.814 105.52 105.865 106.912 105.944L110.104 106.102L110.023 106.577C106.994 117.259 109.04 129.127 112.724 134.507C113.624 135.852 114.607 136.643 115.507 136.802C115.671 136.802 115.835 136.802 115.917 136.723C116.817 136.169 116.653 132.846 116.653 131.105C116.653 130.788 116.653 130.63 116.653 130.314C116.572 126.911 115.753 119.632 115.753 119.553L115.671 118.604L116.572 119.157C117.636 119.949 118.7 120.344 119.682 120.503L120.092 120.582V120.977C120.092 120.977 119.519 126.437 119.764 131.501C119.846 133.241 120.583 134.112 120.992 134.27C121.074 134.349 121.156 134.27 121.156 134.27C121.483 134.112 121.729 133.32 121.565 131.58C120.583 124.142 121.483 120.661 121.565 120.503L122.547 120.661C122.547 120.661 121.647 124.142 122.629 131.342C122.793 133.083 122.629 134.349 121.811 134.824C121.401 135.14 120.992 135.14 120.501 134.903C119.519 134.507 118.946 133.162 118.782 131.342C118.454 126.991 118.864 122.401 119.109 121.056C118.372 120.898 117.718 120.582 116.899 120.186C117.063 122.322 117.636 127.386 117.718 130.076C117.718 130.235 117.718 130.551 117.718 130.868C117.799 133.874 117.799 136.327 116.653 137.118C116.326 137.435 115.835 137.435 115.425 137.435C114.198 137.118 113.133 136.248 112.069 134.744C108.385 129.364 106.257 117.417 109.204 106.735L107.321 106.656C106.421 106.656 105.766 107.131 105.602 107.922C104.62 118.129 105.111 127.307 106.912 133.479C106.994 133.874 107.075 134.27 107.239 134.507C108.958 139.808 110.268 143.923 118.946 150.965L117.799 151.756Z" fill="#383F51"/>
<path d="M123.203 61.0818H122.221C122.712 53.5652 123.449 48.9761 126.314 42.0134C130.407 32.8352 137.775 24.6065 146.124 19.8592C170.438 6.17108 203.428 11.1558 209.813 12.3426L209.65 13.213C203.346 12.0261 170.683 7.04142 146.616 20.6504C138.511 25.1604 131.062 33.4682 127.132 42.3299C124.349 49.1344 123.694 53.6443 123.203 61.0818Z" fill="#383F51"/>
<path d="M106.503 75.087C105.193 75.087 104.047 74.2167 103.883 72.9507C102.901 62.5066 103.392 53.4076 105.193 47.1569L105.275 46.6822C107.076 40.9854 108.386 36.8711 117.636 29.4336L118.373 30.1457C109.286 37.3458 108.14 41.2228 106.339 46.9987L106.257 47.4734C104.456 53.6449 103.965 62.6649 104.947 73.0298C105.029 73.8211 105.766 74.3749 106.666 74.2958L108.631 74.2167C106.83 61.5571 108.467 49.5306 112.642 44.7041C113.707 43.4382 114.853 42.8843 116.163 42.647C116.654 42.647 117.145 42.7261 117.472 43.0426C118.373 43.8338 118.209 45.5745 117.963 47.6317C117.963 48.3438 117.882 48.9767 117.882 49.6888C117.8 51.9042 117.472 55.0691 117.145 57.2846C116.981 59.0252 116.817 60.0538 116.736 60.845C117.309 60.4494 118.127 60.1329 118.864 59.9747C118.864 58.7087 118.7 54.357 118.782 49.9262C118.864 46.9196 119.683 45.0206 120.992 44.4668C121.484 44.3085 122.057 44.3877 122.548 44.7833C123.448 45.5745 123.612 46.9987 123.039 48.7394C120.747 55.3856 122.057 60.3703 122.057 60.3703L121.074 60.5286C121.074 60.3703 119.683 55.3065 122.057 48.4229C122.548 46.9987 122.22 45.8119 121.893 45.4162C121.729 45.258 121.484 45.3371 121.402 45.3371C120.665 45.6536 119.928 46.9987 119.846 49.9262C119.683 55.0691 119.928 60.133 119.928 60.133V60.5286L119.519 60.6077C118.455 60.7659 117.309 61.3989 116.49 61.9528C116.408 62.0319 116.326 62.0319 116.163 62.111L115.835 62.1901L115.344 61.6363L115.671 61.478C115.999 60.4495 116.654 53.4867 116.899 49.5306C116.899 48.8185 116.981 48.1064 116.981 47.4734C117.063 45.7327 117.309 43.992 116.817 43.5173C116.736 43.4382 116.654 43.4382 116.326 43.4382C115.344 43.5173 114.443 44.1503 113.543 45.0998C110.023 49.0559 107.649 60.4494 109.777 74.3749L109.859 74.8497L106.748 75.0079C106.585 75.087 106.503 75.087 106.503 75.087Z" fill="#383F51"/>
<path d="M104.539 107.131C104.539 107.052 102.165 100.01 102.328 89.4866C102.41 80.7831 104.129 73.583 104.129 73.5039L105.112 73.6622C105.112 73.7413 103.393 80.8623 103.393 89.4866C103.229 99.7724 105.603 106.814 105.603 106.814L104.539 107.131Z" fill="#383F51"/>
<g opacity="0.5">
<path d="M213.497 24.9238L213.415 25.3986C216.28 25.7151 220.21 33.0734 220.373 34.735C220.455 35.4471 220.292 35.7636 220.21 36.1592C220.046 36.713 219.718 37.1877 220.373 38.2955C221.438 39.957 228.56 45.7329 231.916 46.9989C235.436 48.2648 237.237 49.0561 238.465 51.9836C239.202 53.4869 239.202 55.9397 239.202 58.5507C239.202 60.8453 239.202 63.298 239.775 65.197C240.593 67.9662 242.067 70.6564 242.804 71.9223C241.903 71.2102 241.085 70.5773 240.184 69.8652C238.711 68.6783 237.319 67.7289 236.828 67.0959C236.091 66.2255 235.845 63.2189 235.436 60.054C234.945 55.7814 234.372 50.8759 232.735 49.3725C230.934 47.6319 224.139 45.2582 218.654 43.2802C215.789 42.2516 213.251 41.3812 212.269 40.7482C211.205 40.1944 209.977 38.5328 208.749 36.8713C206.539 33.9438 204.165 30.6206 201.136 30.6997V31.1745C203.837 31.0953 206.129 34.2602 208.176 37.0295C209.568 38.8493 210.796 40.5109 211.86 41.0647C212.924 41.6186 215.462 42.4889 218.327 43.5966C223.73 45.4956 230.361 47.9484 232.162 49.6099C232.735 50.1638 233.226 51.3506 233.553 52.6957C232.98 51.7462 232.162 50.6385 230.934 49.9264C228.969 48.5022 224.221 47.3154 221.765 46.7615C221.356 46.6824 220.946 46.6033 220.701 46.445C219.882 46.2868 219.391 46.445 218.9 46.7615C218.409 47.078 217.836 47.4736 216.28 47.1571C214.725 46.8407 214.07 46.1286 213.415 45.2582C212.924 44.7044 212.515 44.0714 211.696 43.7549C209.813 42.7263 207.767 43.3593 206.702 43.7549H206.621C205.884 44.0714 205.884 44.6252 206.047 45.0208C206.047 45.4164 206.047 45.7329 205.884 45.8912C205.556 46.0494 204.983 45.7329 204.492 45.3373C203.592 44.8626 202.691 44.1505 201.791 44.5461L201.954 45.0208C202.527 44.7043 203.346 45.3373 204.165 45.7329C204.983 46.2077 205.638 46.6824 206.293 46.2868C206.866 45.9703 206.784 45.4164 206.784 44.9417C206.784 44.467 206.784 44.2296 206.948 44.1505H207.03C208.012 43.7549 209.813 43.201 211.45 44.1505C212.187 44.5461 212.515 45.0208 213.006 45.5747C213.743 46.445 214.479 47.3945 216.28 47.711C217.836 48.0275 218.654 47.5528 219.309 47.2363C219.718 46.9198 220.046 46.8406 220.619 46.9198C220.783 46.9989 221.192 47.078 221.683 47.2363C223.975 47.7901 228.723 48.9769 230.688 50.322C232.816 51.8253 233.963 54.4364 234.044 54.7529C234.372 56.4144 234.536 58.3133 234.781 60.054C235.19 63.4563 235.6 66.3047 236.255 67.2541C236.828 67.9662 238.138 68.9948 239.775 70.1817C242.804 72.4762 246.979 75.6411 246.733 77.7774C246.651 78.9642 246.324 80.0719 245.996 81.417C245.423 84.028 244.687 86.8764 245.423 90.1204C246.815 96.6876 248.207 98.903 249.926 100.169C251.645 101.435 253.691 102.068 253.855 102.068L254.019 101.593C254.019 101.593 251.89 100.881 250.335 99.7733C248.78 98.5074 247.306 96.3711 246.078 90.0413C245.505 86.9555 246.078 84.028 246.651 81.5752C246.979 80.2302 247.224 79.0433 247.388 77.7774C247.47 76.1158 245.669 74.2169 243.459 72.3971L243.622 72.318C243.622 72.318 241.33 68.6783 240.266 64.8805C239.775 63.0607 239.775 60.6079 239.775 58.3925C239.775 55.7814 239.775 53.4078 239.038 51.6671C237.646 48.5813 235.682 47.711 232.162 46.445C228.887 45.1791 221.929 39.6405 220.783 37.979C220.292 37.1878 220.373 36.7921 220.701 36.3174C220.865 35.9218 221.11 35.368 221.028 34.5767C220.701 32.9152 216.69 25.3194 213.497 24.9238Z" fill="url(#paint7_linear_2536_1596)"/>
<path d="M226.759 85.2151C227.741 86.0855 229.46 86.0063 231.343 85.769C233.144 85.6107 235.273 85.4525 236.992 86.1646C240.348 87.5888 242.968 94.1559 242.968 94.235L243.459 94.0768C243.377 93.7603 240.757 87.3514 237.155 85.6898C235.354 84.8986 233.144 85.136 231.179 85.2151C229.378 85.3734 227.823 85.5316 227.005 84.7404C226.186 83.9492 225.449 81.259 224.794 78.8853C224.057 76.1161 223.484 73.6633 222.584 73.1094C221.765 72.5556 220.865 72.3973 220.21 72.3182C219.391 72.2391 218.818 72.16 218.409 71.527C218.245 71.2105 218.327 69.4698 218.409 67.7291C218.736 62.8236 219.228 55.3861 215.134 52.7751C211.86 50.6388 209.486 51.3509 207.358 51.9838C205.638 52.4586 204.165 52.9333 202.364 51.9838C200.972 51.1926 200.481 49.9266 199.99 48.5024C199.008 45.5749 197.698 42.1727 189.512 39.799C187.629 39.3243 185.582 39.4825 183.699 39.799C181.243 40.1946 178.706 40.5111 176.495 39.0869L176.168 39.4825C178.542 40.9067 181.243 40.5111 183.781 40.2737C185.664 39.9573 187.547 39.799 189.348 40.2737C197.288 42.4892 198.516 45.8914 199.499 48.6607C200.072 50.164 200.563 51.6673 202.2 52.4585C204.165 53.4871 205.884 52.9333 207.603 52.4585C209.732 51.9047 211.778 51.1926 214.889 53.1707C218.818 55.7026 218.245 63.2192 218 67.7291C217.918 69.4698 217.836 70.4984 217.918 71.2105C217.099 70.894 216.035 70.7358 214.807 70.4984C212.597 70.1819 210.223 69.7863 208.831 68.6786C208.094 68.1247 207.931 67.3335 207.521 66.3049C206.703 63.773 205.638 60.2916 197.78 57.6015C195.078 57.1267 193.113 57.6806 191.967 58.3136C191.476 58.6301 191.149 59.1048 190.985 59.5795C190.658 60.1334 190.412 60.8455 189.512 61.3202C188.038 62.1906 179.606 62.5862 178.051 62.2697C177.969 62.2697 177.887 62.1906 177.887 62.1906C177.887 62.1115 177.969 61.795 178.051 61.6367C178.378 60.8455 178.951 59.5004 177.641 57.9971L177.15 58.3136C178.215 59.6587 177.887 60.8455 177.56 61.5576C177.396 61.9532 177.232 62.3488 177.478 62.5862C177.56 62.7444 177.805 62.9027 178.051 62.9027C179.606 63.2192 188.202 62.9027 189.921 61.8741C190.903 61.3202 191.313 60.529 191.64 59.9751C191.804 59.5004 192.049 59.1048 192.459 58.9466C193.441 58.4718 195.242 57.918 197.78 58.3927C205.393 61.0037 206.457 64.406 207.276 66.7005C207.603 67.7291 208.012 68.7577 208.667 69.3116C210.141 70.5775 212.679 70.9731 214.971 71.2105C216.444 71.3687 217.836 71.6852 218.491 72.0808C219.064 72.7929 219.882 72.872 220.619 73.0303C221.356 73.1094 222.011 73.1886 222.748 73.7424C223.566 74.2171 224.139 76.9073 224.712 79.2018C225.204 81.7337 225.858 84.3448 226.759 85.2151Z" fill="url(#paint8_linear_2536_1596)"/>
<path d="M170.437 84.4238C171.256 83.7117 171.829 83.237 173.548 83.5535C174.776 83.7117 176.332 84.3447 178.051 84.8986C181.161 85.9271 184.354 87.114 185.828 86.5601C186.564 86.2436 187.056 85.848 187.547 85.6107C188.529 84.8195 189.675 83.9491 192.868 84.4238C195.487 84.8195 197.452 85.9271 199.089 86.9557C200.481 87.8261 201.709 88.6173 202.855 88.459C203.755 88.3799 204.41 87.9843 205.065 87.5096C206.129 86.7184 207.276 85.848 210.141 87.0349C212.351 87.8261 212.924 89.092 213.333 89.9624C213.825 90.9119 214.234 91.7822 216.362 91.4657C218.573 91.1492 220.046 89.9624 221.438 88.6964C222.42 87.8261 223.566 86.8766 224.794 86.3228L224.63 85.848C223.157 86.4019 222.174 87.3514 221.028 88.3799C219.637 89.6459 218.327 90.7536 216.28 91.0701C214.561 91.3866 214.398 90.7536 213.906 89.8041C213.415 88.8547 212.842 87.5887 210.386 86.6393C207.194 85.4524 205.884 86.3228 204.738 87.1931C204.165 87.6678 203.674 87.9843 202.855 88.0634C201.873 88.1426 200.89 87.5096 199.499 86.6393C197.78 85.6898 195.815 84.4238 193.113 84.0282C189.593 83.5535 188.447 84.5029 187.301 85.2942C186.81 85.6898 186.401 86.0854 185.746 86.2436C184.436 86.7184 181.243 85.5315 178.46 84.5821C176.741 84.0282 175.104 83.3952 173.876 83.1579C171.911 82.7623 171.092 83.4744 170.274 84.1073C169.783 84.5821 169.21 85.0568 168.063 85.2942L168.145 85.7689C169.128 85.4524 169.864 84.8986 170.437 84.4238Z" fill="url(#paint9_linear_2536_1596)"/>
<path d="M247.633 81.8913C246.733 83.632 246.241 87.9837 246.814 90.5947C247.306 93.1266 248.534 97.6366 250.58 99.3773C251.808 100.327 254.182 101.276 254.264 101.276L254.428 100.801C254.428 100.801 252.054 99.852 250.908 98.9817C248.779 97.241 247.715 92.4145 247.306 90.5156C246.733 87.7463 247.306 83.5528 248.124 82.1286C249.025 80.4671 250.335 79.9924 250.908 79.9132C252.872 79.755 254.673 82.6034 254.673 82.6034L255.164 82.4451C255.083 82.366 253.2 79.2011 250.744 79.4385C249.925 79.5176 248.534 80.1506 247.633 81.8913Z" fill="url(#paint10_linear_2536_1596)"/>
<path d="M213.005 80.547C213.415 79.6767 213.824 78.8063 214.724 78.2525C215.789 77.5404 218.49 76.1162 221.028 78.0943C222.01 78.8855 222.829 80.7844 223.484 82.6042C224.221 84.424 224.957 86.1647 225.858 86.6394C226.84 87.1933 228.559 87.1142 230.524 87.035C232.325 86.9559 234.126 86.8768 235.599 87.1933C238.628 87.9845 242.067 94.5516 242.067 94.6308L242.558 94.4725C242.476 94.156 238.956 87.668 235.681 86.7977C234.126 86.4021 232.161 86.4812 230.36 86.6394C228.559 86.7186 226.84 86.7977 226.103 86.323C225.285 85.8482 224.63 84.1075 223.893 82.446C223.074 80.547 222.338 78.569 221.192 77.6986C219.309 76.2745 216.689 76.2744 214.233 77.8569C213.251 78.569 212.76 79.5185 212.35 80.4679C211.941 81.3383 211.532 82.2086 210.631 82.6042C208.83 83.3954 206.702 82.7624 205.965 81.7339C205.801 81.4174 205.556 81.18 205.392 80.8635C204.819 79.9141 204.164 79.0437 202.773 77.8569C200.972 76.3536 193.358 73.5052 189.675 72.9513C187.546 72.6348 186.564 73.1096 185.581 73.7425C184.763 74.2173 184.026 74.6129 182.471 74.692V75.1667C184.19 75.0876 185.09 74.4546 185.827 74.1382C186.809 73.6634 187.628 73.1887 189.511 73.3469C193.113 73.8217 200.48 76.5909 202.2 78.0943C203.509 79.1228 204.082 80.1514 204.655 81.0218C204.819 81.3383 205.065 81.5756 205.228 81.8921C206.129 83.1581 208.503 83.791 210.631 82.9207C212.105 82.5251 212.596 81.4965 213.005 80.547Z" fill="url(#paint11_linear_2536_1596)"/>
</g>
<g opacity="0.5">
<path d="M245.423 102.226C243.95 102.384 242.722 103.966 241.494 105.47C240.593 106.735 239.366 108.476 238.383 110.059C237.483 111.483 236.664 112.749 236.255 113.223C236.173 113.303 235.927 113.54 235.764 113.619C234.372 114.41 231.097 114.964 228.478 114.806C227.004 114.727 225.776 114.806 224.876 114.885C223.894 114.964 223.157 115.043 222.502 114.885C222.011 114.727 221.929 114.41 221.765 113.856C221.683 113.382 221.601 112.67 220.701 112.353C219.882 112.037 218.982 112.195 218.245 112.353C217.426 112.432 216.69 112.511 216.117 112.274C215.625 111.958 215.544 111.562 215.298 111.245C215.134 110.771 214.889 110.296 214.234 109.9C213.661 109.505 212.76 109.979 211.778 110.692C210.304 111.641 208.176 112.907 205.556 112.432C202.773 111.878 202.855 111.087 203.1 110.059C203.182 109.584 203.264 108.872 203.019 108.318C202.609 107.289 200.153 106.419 197.534 105.39C195.569 104.599 193.441 103.887 192.868 103.175C192.295 102.384 192.049 101.751 191.967 101.118C191.885 100.406 191.803 99.8519 191.067 99.4563C190.248 98.9024 189.266 99.1398 188.283 99.4563C187.71 99.6145 187.055 99.7727 186.892 99.6145L186.564 100.01C187.055 100.168 187.628 100.01 188.365 99.8519C189.184 99.6936 190.084 99.3771 190.657 99.7727C191.149 100.168 191.23 100.564 191.394 101.118C191.476 101.672 191.722 102.463 192.377 103.333C193.113 104.124 195.078 104.837 197.288 105.628C199.58 106.498 202.2 107.448 202.446 108.239C202.609 108.714 202.527 109.188 202.446 109.742C202.282 110.929 202.036 112.037 205.311 112.749C208.176 113.303 210.386 111.958 212.023 111.008C212.924 110.533 213.579 110.059 213.906 110.217C214.479 110.533 214.643 111.008 214.807 111.404C214.971 111.799 215.216 112.274 215.789 112.67C216.526 113.144 217.345 112.986 218.245 112.828C219.064 112.749 219.8 112.67 220.455 112.828C221.028 112.986 221.192 113.382 221.274 114.015C221.356 114.489 221.438 115.043 222.256 115.439C223.075 115.755 223.812 115.597 224.958 115.518C225.858 115.439 226.922 115.36 228.478 115.439C230.033 115.518 232.08 115.36 233.799 114.964C231.834 115.993 228.723 117.496 225.694 117.654C223.239 117.813 222.338 117.338 220.946 116.784C219.637 116.23 218.081 115.518 214.561 114.964C209.486 114.173 204.901 116.151 202.364 117.496C201.873 117.417 198.598 116.468 197.616 114.094L197.125 112.907C196.224 110.692 195.405 108.634 194.832 107.685C194.014 106.34 191.476 105.311 189.921 105.074C189.02 104.995 188.447 105.39 187.956 105.786C187.465 106.103 187.055 106.498 186.237 106.34C185.664 106.34 184.927 105.47 184.272 104.52C183.29 103.175 181.98 101.434 179.852 100.722C177.396 99.931 176.168 100.722 175.185 101.513C174.694 101.909 174.203 102.226 173.63 102.384L173.712 102.859C174.449 102.7 175.022 102.305 175.513 101.909C176.495 101.197 177.396 100.564 179.606 101.197C181.489 101.909 182.799 103.412 183.699 104.757C184.518 105.944 185.173 106.815 186.073 106.815C187.055 106.894 187.628 106.419 188.202 106.103C188.693 105.707 189.102 105.39 189.757 105.628C191.476 105.944 193.686 106.973 194.259 108.001C194.832 108.951 195.651 111.008 196.47 113.223L196.961 114.41C197.861 116.626 200.481 117.575 201.627 117.971C200.89 118.366 200.399 118.762 200.399 118.762C200.399 118.762 195.733 123.272 192.213 125.329C188.611 127.386 185.746 127.386 184.763 126.2C184.19 125.646 184.19 124.459 184.027 123.114C184.027 121.848 183.945 120.424 183.454 119.158C182.635 117.259 179.688 115.914 178.706 115.518C177.396 114.964 175.513 114.489 174.694 114.727C173.139 115.202 172.566 117.338 172.566 117.417L173.057 117.496C173.057 117.496 173.548 115.597 174.776 115.122C175.267 114.964 176.659 115.202 178.378 115.914C180.179 116.705 182.307 117.971 182.88 119.316C183.372 120.503 183.372 121.848 183.454 123.114C183.535 124.538 183.535 125.804 184.272 126.516C185.5 127.782 188.529 127.94 192.54 125.725C196.06 123.668 200.481 119.395 200.808 119.079C201.136 118.762 207.357 114.569 214.234 115.597C217.754 116.072 219.227 116.863 220.455 117.417C220.783 117.496 221.028 117.733 221.274 117.813C219.555 118.366 218.572 118.287 217.754 118.287C216.526 118.208 215.953 118.287 214.971 119.632C213.661 121.452 213.497 125.013 213.251 127.307C213.17 128.257 213.17 129.048 213.088 129.444C212.678 130.947 212.023 131.659 210.468 132.055C209.24 132.371 208.913 132.055 208.258 131.659C208.094 131.58 207.848 131.342 207.685 131.263C207.357 131.105 207.194 130.709 206.866 130.314C206.293 129.444 205.474 128.178 203.51 128.257C201.791 128.336 201.218 129.285 200.645 130.393C200.235 131.105 199.826 131.738 199.089 132.292C197.125 133.637 191.312 135.219 188.202 135.457C184.681 135.773 178.132 135.14 177.723 134.666C177.641 134.507 178.051 133.637 178.46 133.004C179.033 131.738 179.933 130.314 179.688 129.206C179.688 129.048 179.606 128.89 179.606 128.731C179.279 127.386 179.115 127.307 177.641 127.386C176.577 127.465 176.413 128.178 176.331 128.731C176.25 129.127 176.25 129.523 175.84 129.76C175.104 130.235 172.484 130.076 171.42 130.076L171.338 130.551C171.747 130.551 175.104 130.947 176.086 130.235C176.577 129.839 176.659 129.364 176.823 128.89C176.905 128.336 176.986 127.94 177.641 127.94C178.214 127.94 178.542 127.94 178.624 127.94C178.705 128.019 178.787 128.336 179.033 128.89C179.033 129.048 179.115 129.206 179.115 129.364C179.279 130.235 178.624 131.659 178.051 132.846C177.478 133.874 177.15 134.507 177.314 134.903C177.723 135.932 185.664 136.248 188.365 136.09C191.64 135.773 197.452 134.27 199.499 132.846C200.399 132.292 200.89 131.501 201.299 130.789C201.873 129.839 202.282 129.048 203.755 128.969C205.311 128.89 205.966 129.839 206.621 130.709C206.948 131.184 207.194 131.58 207.603 131.738C207.767 131.817 208.012 132.055 208.176 132.134C208.913 132.608 209.404 133.004 210.877 132.608C212.597 132.134 213.497 131.263 213.906 129.602C213.988 129.285 213.988 128.811 214.07 128.178C214.397 128.573 214.397 128.969 214.397 129.444C214.397 129.918 214.397 130.393 214.807 130.868C215.544 131.659 216.526 131.184 217.263 130.868C217.59 130.709 217.999 130.551 218.163 130.551C218.327 130.551 218.491 130.63 218.572 130.709C218.736 131.026 218.9 131.501 218.736 132.134C218.654 132.925 217.345 133.953 216.526 134.666C216.198 134.982 216.035 135.14 215.789 135.219C215.625 135.536 215.625 135.932 215.625 136.169C215.625 136.565 215.707 136.96 215.462 137.435C215.298 137.593 215.052 137.83 214.643 137.83C214.07 137.91 213.251 137.672 213.088 137.435C213.006 137.356 213.006 137.118 213.006 136.96C213.006 136.644 213.006 136.248 212.678 135.932C212.187 135.457 211.369 135.219 210.223 135.378C209.486 135.457 209.486 135.932 209.486 136.406C209.486 136.881 209.486 137.435 208.667 137.751C208.094 137.91 207.603 137.672 206.866 137.277C205.802 136.723 204.41 136.011 202.446 136.96C200.072 138.147 200.317 139.334 200.563 140.362C200.645 140.679 200.645 140.916 200.563 141.154C200.481 141.312 200.399 141.47 200.235 141.47C200.072 141.47 199.826 141.391 199.744 141.391L199.417 141.787C199.417 141.787 199.908 142.103 200.399 141.945C200.726 141.866 200.89 141.628 201.136 141.233C201.218 140.916 201.218 140.521 201.136 140.204C200.972 139.334 200.726 138.384 202.855 137.435C204.574 136.644 205.638 137.118 206.784 137.751C207.603 138.147 208.258 138.543 209.076 138.226C210.141 137.83 210.304 136.96 210.304 136.485C210.304 136.011 210.386 135.932 210.468 135.932C211.45 135.852 212.187 136.011 212.433 136.406C212.597 136.564 212.515 136.881 212.515 137.118C212.515 137.435 212.515 137.83 212.842 137.989C213.17 138.305 214.07 138.543 214.807 138.463C215.298 138.463 215.707 138.147 216.035 137.91C216.444 137.356 216.444 136.723 216.362 136.406C216.362 136.09 216.362 135.932 216.444 135.852C216.526 135.773 216.771 135.536 217.017 135.378C217.918 134.586 219.309 133.558 219.391 132.688C219.473 131.896 219.391 131.263 219.064 130.868C218.9 130.709 218.572 130.551 218.245 130.472C217.918 130.472 217.508 130.63 217.017 130.868C216.198 131.263 215.625 131.422 215.216 131.026C214.889 130.63 214.889 130.235 214.889 129.839C214.889 129.285 214.889 128.573 214.07 128.019C214.07 127.94 214.07 127.94 214.07 127.861C214.152 125.567 214.479 122.085 215.625 120.344C216.444 119.079 216.935 119.158 217.918 119.158C218.818 119.158 220.128 119.237 222.174 118.446C222.993 118.762 223.975 118.841 225.694 118.762C230.688 118.446 235.764 114.964 236.091 114.727C236.255 114.569 236.5 114.41 236.664 114.252C237.073 113.777 237.892 112.511 238.792 111.087C239.775 109.426 240.921 107.606 241.903 106.498C242.967 105.074 244.195 103.571 245.423 103.412C245.996 103.333 246.651 103.491 247.224 103.966C249.68 105.707 258.603 107.843 258.931 107.843L259.012 107.368C258.521 107.289 249.926 105.153 247.552 103.571C246.815 102.463 246.16 102.146 245.423 102.226Z" fill="url(#paint12_linear_2536_1596)"/>
<path d="M247.716 105.706C245.015 106.419 242.15 109.821 241.331 111.008C239.612 113.54 239.366 119.236 239.94 121.768C240.267 122.955 240.676 123.825 241.167 124.537C241.577 125.408 241.986 126.041 241.986 127.069C241.986 129.127 242.314 130.155 243.05 131.026C243.214 131.184 243.46 131.342 243.541 131.342C243.951 131.342 244.36 130.946 244.851 130.551C245.179 130.234 245.67 129.76 245.834 129.76C245.915 129.76 245.997 129.918 246.161 130.076C246.98 131.342 245.834 132.371 245.752 132.371L246.161 132.766C246.161 132.766 247.635 131.5 246.652 129.839C246.489 129.522 246.243 129.364 245.915 129.364C245.424 129.285 244.933 129.76 244.442 130.234C244.114 130.551 243.705 130.946 243.623 130.788C243.623 130.788 243.623 130.788 243.541 130.709C242.805 129.839 242.559 128.889 242.559 126.911C242.559 125.883 242.15 125.091 241.659 124.221C241.249 123.43 240.84 122.718 240.594 121.531C240.021 118.999 240.431 113.46 241.986 111.087C242.968 109.663 245.67 106.577 248.044 105.944C248.617 105.786 249.845 106.023 250.745 106.419C255.739 108.317 259.341 108.95 259.341 108.95L259.423 108.476C259.423 108.476 255.903 107.764 250.909 105.944C250.09 106.023 248.617 105.39 247.716 105.706Z" fill="url(#paint13_linear_2536_1596)"/>
<path d="M247.225 104.6C246.243 104.679 245.096 105.628 244.769 105.945L244.687 106.024C242.313 107.765 240.021 110.455 239.366 112.116C239.202 112.591 239.039 113.145 238.875 113.936C237.401 116.705 236.746 119.395 236.173 122.007C235.846 123.431 235.6 124.934 235.109 126.358C233.799 130.235 226.596 136.802 226.35 137.04C226.023 137.198 219.801 141.629 217.673 142.024C216.772 142.183 212.106 143.211 210.796 143.686C209.732 144.082 207.603 149.699 207.194 150.807C207.112 153.497 206.785 157.453 206.457 157.849C206.13 158.324 204.493 158.798 203.674 158.719C203.347 158.719 203.183 158.403 202.937 158.007C202.528 157.532 202.119 156.978 201.218 156.741C200.645 156.662 198.762 157.058 195.652 157.691C192.786 158.403 188.775 159.194 188.038 158.957C187.465 158.798 187.302 158.403 187.22 158.007C187.138 157.611 187.056 157.216 186.319 157.137C186.156 157.137 185.91 157.137 185.828 157.216C185.501 157.532 185.501 158.007 185.664 158.877C185.664 159.669 185.746 160.618 185.337 161.093L185.746 161.409C186.237 160.855 186.237 159.748 186.156 158.877C186.156 158.403 186.074 157.849 186.156 157.611C186.483 157.611 186.483 157.77 186.565 158.086C186.647 158.482 186.892 159.036 187.793 159.352C188.611 159.669 191.395 159.036 195.652 158.086C198.026 157.611 200.563 157.058 201.055 157.137C201.628 157.216 202.037 157.691 202.446 158.086C202.774 158.482 203.019 158.877 203.51 158.957C204.411 159.036 206.294 158.482 206.785 157.928C207.194 157.453 207.522 152.231 207.603 150.728C208.831 147.563 210.305 144.161 210.878 144.002C211.86 143.607 215.053 142.974 217.754 142.499C220.047 142.024 226.432 137.514 226.759 137.356C227.087 137.04 234.454 130.552 235.764 126.437C236.255 125.013 236.583 123.51 236.828 122.086C237.238 120.028 237.729 117.813 238.629 115.756C238.547 117.022 238.466 118.288 238.302 119.554C238.22 120.582 238.138 121.611 237.974 122.481C237.238 128.495 236.255 131.818 234.454 134.033C232.572 136.565 225.286 143.844 224.385 144.556C223.894 144.873 223.403 145.031 222.666 145.11C222.175 145.189 221.602 145.427 220.947 145.585C218.655 146.534 216.035 150.016 214.234 152.627C213.252 153.972 212.433 155.159 212.024 155.317C211.287 155.713 210.96 155.633 210.305 155.317C209.896 155.159 209.486 155 208.913 155V155.475C209.404 155.475 209.814 155.633 210.141 155.792C210.714 156.108 211.369 156.266 212.352 155.713C212.843 155.396 213.661 154.367 214.644 152.785C216.445 150.253 218.901 146.772 221.111 145.98C221.684 145.664 222.175 145.585 222.83 145.506C223.567 145.348 224.14 145.189 224.713 144.794C225.613 144.24 232.899 136.723 234.864 134.191C236.665 131.976 237.647 128.495 238.466 122.402C238.547 121.611 238.629 120.582 238.793 119.475C238.957 116.784 239.284 113.778 239.857 112.274C240.594 110.613 242.722 108.16 245.015 106.419C245.015 106.419 245.096 106.419 245.096 106.34C245.424 106.024 246.488 105.153 247.307 105.074C248.125 104.995 249.599 105.47 251.727 106.103C253.692 106.815 256.23 107.527 259.177 108.318L259.259 107.844C256.23 107.132 253.856 106.34 251.891 105.707C249.681 104.916 248.207 104.441 247.225 104.6Z" fill="url(#paint14_linear_2536_1596)"/>
<path d="M171.338 155.475C171.748 155.475 172.403 155.95 173.139 156.345C174.449 157.137 175.923 158.086 177.151 157.532C177.724 157.216 178.379 156.504 179.033 155.475C180.261 153.813 181.817 151.677 184.6 150.965C189.102 149.62 197.043 146.218 197.125 146.139C197.207 146.139 203.51 141.866 209.568 143.369L209.65 142.895C203.347 141.47 197.207 145.427 196.716 145.664C196.634 145.664 196.388 145.743 196.143 145.98C196.061 145.426 195.57 144.161 194.342 143.29C193.359 142.578 192.131 142.42 190.74 142.499C188.284 142.815 185.992 143.844 183.863 144.794C182.062 145.585 180.589 146.297 179.443 146.218C178.46 146.139 178.379 145.664 178.133 144.952C177.969 144.161 177.642 143.211 175.759 143.053C173.794 142.895 172.976 144.081 172.239 145.11C171.666 145.901 171.338 146.376 170.683 146.376C168.882 146.297 166.427 144.002 166.427 144.002L166.017 144.319C166.099 144.398 168.637 146.692 170.602 146.851C171.584 146.93 172.157 146.139 172.73 145.426C173.467 144.477 174.122 143.528 175.759 143.607C177.232 143.765 177.478 144.398 177.642 145.11C177.805 145.822 178.133 146.534 179.443 146.613C180.753 146.692 182.226 145.901 184.109 145.189C186.074 144.24 188.366 143.29 190.822 142.974C192.131 142.815 193.196 143.053 194.014 143.686C195.242 144.477 195.57 145.822 195.733 146.218C193.359 147.167 187.793 149.462 184.354 150.49C181.326 151.361 179.688 153.655 178.46 155.238C177.887 156.108 177.232 156.741 176.741 157.057C175.841 157.532 174.531 156.662 173.221 156.029C172.403 155.554 171.748 155.159 171.257 155.079C170.438 155 169.374 155.633 167.982 156.424C166.754 157.216 165.362 157.928 164.462 158.086L164.544 158.561C165.608 158.403 167 157.611 168.309 156.82C169.619 156.108 170.847 155.317 171.338 155.475Z" fill="url(#paint15_linear_2536_1596)"/>
<path d="M249.517 107.369C248.043 107.923 246.815 109.663 245.915 110.85C245.587 111.325 245.178 111.72 245.014 111.879C244.851 112.037 244.605 112.037 244.277 112.195C243.704 112.274 243.05 112.512 242.558 113.699C241.658 115.518 241.249 119.949 242.395 121.373C242.804 121.927 243.377 122.085 243.704 122.085C244.769 122.006 245.915 120.74 246.324 119.554C246.651 118.762 247.552 118.683 248.452 118.683C249.271 118.683 250.008 118.604 250.417 117.971C250.745 117.575 250.99 117.496 251.236 117.496C251.563 117.575 251.973 117.971 252.054 119C252.218 120.424 251.563 122.56 251.563 122.56L252.054 122.639C252.054 122.56 252.791 120.424 252.546 118.841C252.464 117.813 251.973 117.101 251.318 116.943C250.826 116.863 250.335 117.022 249.926 117.655C249.599 118.05 249.025 118.05 248.371 118.129C247.388 118.208 246.16 118.288 245.751 119.395C245.342 120.582 244.359 121.532 243.623 121.532C243.295 121.532 243.05 121.452 242.804 121.136C241.903 119.87 242.231 115.756 243.131 113.778C243.623 112.749 244.032 112.591 244.523 112.512C244.851 112.512 245.096 112.433 245.424 112.116C245.587 111.958 245.915 111.404 246.324 110.929C247.143 109.742 248.289 108.16 249.68 107.527C250.581 107.131 251.563 107.527 253.037 108.081C254.347 108.556 256.066 109.347 258.194 109.584L258.276 109.109C256.066 108.793 254.51 108.16 253.2 107.685C251.809 107.448 250.745 106.973 249.517 107.369Z" fill="url(#paint16_linear_2536_1596)"/>
</g>
<path d="M120.174 118.842C117.145 118.842 114.689 115.914 112.97 110.534C111.414 105.549 110.596 98.6656 110.596 90.6743C110.596 82.683 111.414 75.7993 112.97 70.8147C114.689 65.4344 117.145 62.5068 120.174 62.5068C123.284 62.5068 126.641 65.5926 129.178 70.8147C131.962 76.2741 133.435 83.4742 133.435 90.6743C133.435 97.8744 131.962 105.075 129.178 110.534C126.641 115.756 123.284 118.842 120.174 118.842ZM120.174 62.7442C114.361 62.7442 110.678 73.7422 110.678 90.7534C110.678 107.844 114.361 118.763 120.174 118.763C126.231 118.763 133.353 106.499 133.353 90.7534C133.353 75.0081 126.231 62.7442 120.174 62.7442Z" fill="#383F51"/>
<path d="M120.256 117.575C117.637 117.575 115.59 114.885 114.035 109.742C112.643 104.995 111.906 98.4278 111.906 90.9112C111.906 83.3946 112.643 76.8275 114.035 72.0802C115.508 66.9372 117.637 64.2471 120.256 64.2471C122.958 64.2471 125.741 67.1746 128.033 72.0802C130.407 77.3022 131.717 84.0276 131.717 90.9112C131.717 97.7157 130.407 104.52 128.033 109.742C125.741 114.648 122.958 117.575 120.256 117.575ZM120.256 64.4053C115.263 64.4053 112.152 74.8494 112.152 90.9112C112.152 106.973 115.344 117.417 120.256 117.417C125.414 117.417 131.553 105.865 131.553 90.9112C131.553 75.9571 125.495 64.4053 120.256 64.4053Z" fill="#383F51"/>
<path d="M120.174 115.835C118.045 115.835 116.408 113.303 115.262 108.477C114.198 104.046 113.543 97.9536 113.543 90.9117C113.543 83.8699 114.116 77.7775 115.262 73.3467C116.49 68.5202 118.127 65.9883 120.174 65.9883C122.302 65.9883 124.758 68.6784 126.641 73.3467C128.769 78.3313 129.834 84.5028 129.834 90.9117C129.834 97.2415 128.769 103.571 126.641 108.477C124.758 113.145 122.384 115.835 120.174 115.835ZM120.174 66.2257C116.244 66.2257 113.707 75.9577 113.707 90.9909C113.707 106.024 116.163 115.756 120.174 115.756C122.302 115.756 124.676 113.066 126.559 108.556C128.524 103.65 129.752 97.3998 129.752 90.9909C129.752 84.582 128.687 78.4896 126.559 73.4258C124.676 68.9158 122.302 66.2257 120.174 66.2257Z" fill="#383F51"/>
<path d="M120.256 113.777C116.49 113.777 115.181 101.514 115.181 90.9112C115.181 80.388 116.572 68.0449 120.256 68.0449C123.612 68.0449 127.706 78.2517 127.706 90.9112C127.787 103.571 123.694 113.777 120.256 113.777ZM120.256 68.2823C117.145 68.2823 115.263 77.2231 115.263 90.9903C115.263 104.758 117.227 113.698 120.256 113.698C121.811 113.698 123.776 111.166 125.168 107.052C126.723 102.542 127.624 96.8454 127.624 90.9903C127.624 85.2144 126.723 79.4385 125.168 74.9286C123.694 70.7351 121.893 68.2823 120.256 68.2823Z" fill="#383F51"/>
<path d="M120.583 111.721C117.8 111.721 116.899 100.643 116.899 91.228C116.899 81.8124 117.882 70.7354 120.583 70.7354C123.039 70.7354 126.068 79.9135 126.068 91.228C126.068 102.542 123.039 111.721 120.583 111.721ZM120.583 70.7354C118.373 70.7354 116.981 78.7267 116.981 91.1489C116.981 103.571 118.373 111.562 120.583 111.562C122.957 111.562 125.986 102.147 125.986 91.1489C125.986 80.1509 122.957 70.7354 120.583 70.7354Z" fill="#383F51"/>
<path d="M241.003 91.0699C241.003 90.6743 241.003 89.8831 241.003 89.4084L109.777 77.4609L109.614 79.6764L194.75 87.5095L109.041 83.6325L108.959 85.7688L201.545 89.8831H108.795V92.0985H202.118L109.122 96.3711L109.204 98.5865L194.914 94.7096L109.368 102.543L109.532 104.758L240.921 92.7315C241.003 92.5733 241.003 91.5447 241.003 91.0699Z" fill="url(#paint17_linear_2536_1596)"/>
<path d="M120.337 121.453C116.408 121.453 113.297 118.288 111.169 112.195C109.286 106.736 108.304 99.2983 108.304 90.5949C108.304 81.8915 109.286 74.5331 111.169 68.9946C113.297 62.9022 116.49 59.7373 120.337 59.7373C124.349 59.7373 128.524 63.1396 131.716 68.9155C135.073 75.0079 136.874 82.6036 136.874 90.5949C136.874 98.5863 135.073 106.182 131.716 112.274C128.442 118.05 124.267 121.453 120.337 121.453ZM120.337 60.7659C116.162 60.7659 113.625 65.355 112.397 69.232C110.596 74.5331 109.532 82.0497 109.532 90.4367C109.532 98.8236 110.514 106.419 112.397 111.641C113.788 115.518 116.326 120.107 120.337 120.107C123.858 120.107 127.623 116.943 130.57 111.562C133.845 105.707 135.646 98.1906 135.646 90.3576C135.646 82.6827 133.845 75.1661 130.57 69.1528C127.623 64.0099 123.776 60.7659 120.337 60.7659Z" fill="#383F51"/>
</g>
<defs>
<linearGradient id="paint0_linear_2536_1596" x1="-17.4558" y1="92.3882" x2="144.493" y2="93.7414" gradientUnits="userSpaceOnUse">
<stop offset="0.0541237" stop-color="#8DBCAD"/>
<stop offset="0.3943" stop-color="#5EA6AE"/>
<stop offset="0.5851" stop-color="#5CA7AF"/>
<stop offset="0.6633" stop-color="#5796AC"/>
<stop offset="0.8104" stop-color="#507DA7"/>
<stop offset="0.8814" stop-color="#4E74A6"/>
</linearGradient>
<linearGradient id="paint1_linear_2536_1596" x1="-17.4557" y1="190.511" x2="144.493" y2="191.864" gradientUnits="userSpaceOnUse">
<stop offset="0.0541237" stop-color="#8DBCAD"/>
<stop offset="0.3943" stop-color="#5EA6AE"/>
<stop offset="0.5851" stop-color="#5CA7AF"/>
<stop offset="0.6633" stop-color="#5796AC"/>
<stop offset="0.8104" stop-color="#507DA7"/>
<stop offset="0.8814" stop-color="#4E74A6"/>
</linearGradient>
<linearGradient id="paint2_linear_2536_1596" x1="44.8308" y1="190.526" x2="206.779" y2="191.879" gradientUnits="userSpaceOnUse">
<stop offset="0.0541237" stop-color="#8DBCAD"/>
<stop offset="0.3943" stop-color="#5EA6AE"/>
<stop offset="0.5851" stop-color="#5CA7AF"/>
<stop offset="0.6633" stop-color="#5796AC"/>
<stop offset="0.8104" stop-color="#507DA7"/>
<stop offset="0.8814" stop-color="#4E74A6"/>
</linearGradient>
<linearGradient id="paint3_linear_2536_1596" x1="107.116" y1="190.559" x2="269.065" y2="191.912" gradientUnits="userSpaceOnUse">
<stop offset="0.0541237" stop-color="#8DBCAD"/>
<stop offset="0.3943" stop-color="#5EA6AE"/>
<stop offset="0.5851" stop-color="#5CA7AF"/>
<stop offset="0.6633" stop-color="#5796AC"/>
<stop offset="0.8104" stop-color="#507DA7"/>
<stop offset="0.8814" stop-color="#4E74A6"/>
</linearGradient>
<linearGradient id="paint4_linear_2536_1596" x1="169.403" y1="190.538" x2="331.351" y2="191.891" gradientUnits="userSpaceOnUse">
<stop offset="0.0541237" stop-color="#8DBCAD"/>
<stop offset="0.3943" stop-color="#5EA6AE"/>
<stop offset="0.5851" stop-color="#5CA7AF"/>
<stop offset="0.6633" stop-color="#5796AC"/>
<stop offset="0.8104" stop-color="#507DA7"/>
<stop offset="0.8814" stop-color="#4E74A6"/>
</linearGradient>
<radialGradient id="paint5_radial_2536_1596" cx="0" cy="0" r="1" gradientUnits="userSpaceOnUse" gradientTransform="translate(178.165 90.5342) rotate(-90) scale(76.4022 85.05)">
<stop offset="0.2655" stop-color="#212F3C" stop-opacity="0"/>
<stop offset="1" stop-color="#212F3C"/>
</radialGradient>
<radialGradient id="paint6_radial_2536_1596" cx="0" cy="0" r="1" gradientUnits="userSpaceOnUse" gradientTransform="translate(128.509 89.3311) rotate(-90) scale(52.2386 58.4201)">
<stop offset="0.2655" stop-color="#212F3C" stop-opacity="0"/>
<stop offset="1" stop-color="#212F3C"/>
</radialGradient>
<linearGradient id="paint7_linear_2536_1596" x1="102.336" y1="124.975" x2="300.353" y2="25.8252" gradientUnits="userSpaceOnUse">
<stop offset="0.0541237" stop-color="#8DBCAD" stop-opacity="0.6"/>
<stop offset="0.4794" stop-color="#5EA6AE" stop-opacity="0.6"/>
<stop offset="0.5851" stop-color="#5CA7AF" stop-opacity="0.6"/>
<stop offset="0.6633" stop-color="#5796AC" stop-opacity="0.701"/>
<stop offset="0.8104" stop-color="#507DA7" stop-opacity="0.8907"/>
<stop offset="0.8814" stop-color="#4E74A6" stop-opacity="0.9824"/>
</linearGradient>
<linearGradient id="paint8_linear_2536_1596" x1="98.5503" y1="118.8" x2="299.734" y2="18.0649" gradientUnits="userSpaceOnUse">
<stop offset="0.0541237" stop-color="#8DBCAD" stop-opacity="0.6"/>
<stop offset="0.4794" stop-color="#5EA6AE" stop-opacity="0.6"/>
<stop offset="0.5851" stop-color="#5CA7AF" stop-opacity="0.6"/>
<stop offset="0.6633" stop-color="#5796AC" stop-opacity="0.701"/>
<stop offset="0.8104" stop-color="#507DA7" stop-opacity="0.8907"/>
<stop offset="0.8814" stop-color="#4E74A6" stop-opacity="0.9824"/>
</linearGradient>
<linearGradient id="paint9_linear_2536_1596" x1="106.709" y1="128.209" x2="303.214" y2="29.8166" gradientUnits="userSpaceOnUse">
<stop offset="0.0541237" stop-color="#8DBCAD" stop-opacity="0.6"/>
<stop offset="0.4794" stop-color="#5EA6AE" stop-opacity="0.6"/>
<stop offset="0.5851" stop-color="#5CA7AF" stop-opacity="0.6"/>
<stop offset="0.6633" stop-color="#5796AC" stop-opacity="0.701"/>
<stop offset="0.8104" stop-color="#507DA7" stop-opacity="0.8907"/>
<stop offset="0.8814" stop-color="#4E74A6" stop-opacity="0.9824"/>
</linearGradient>
<linearGradient id="paint10_linear_2536_1596" x1="124.701" y1="150.069" x2="312.945" y2="55.813" gradientUnits="userSpaceOnUse">
<stop offset="0.0541237" stop-color="#8DBCAD" stop-opacity="0.6"/>
<stop offset="0.4794" stop-color="#5EA6AE" stop-opacity="0.6"/>
<stop offset="0.5851" stop-color="#5CA7AF" stop-opacity="0.6"/>
<stop offset="0.6633" stop-color="#5796AC" stop-opacity="0.701"/>
<stop offset="0.8104" stop-color="#507DA7" stop-opacity="0.8907"/>
<stop offset="0.8814" stop-color="#4E74A6" stop-opacity="0.9824"/>
</linearGradient>
<linearGradient id="paint11_linear_2536_1596" x1="107.483" y1="133.738" x2="306.968" y2="33.8543" gradientUnits="userSpaceOnUse">
<stop offset="0.0541237" stop-color="#8DBCAD" stop-opacity="0.6"/>
<stop offset="0.4794" stop-color="#5EA6AE" stop-opacity="0.6"/>
<stop offset="0.5851" stop-color="#5CA7AF" stop-opacity="0.6"/>
<stop offset="0.6633" stop-color="#5796AC" stop-opacity="0.701"/>
<stop offset="0.8104" stop-color="#507DA7" stop-opacity="0.8907"/>
<stop offset="0.8814" stop-color="#4E74A6" stop-opacity="0.9824"/>
</linearGradient>
<linearGradient id="paint12_linear_2536_1596" x1="185.551" y1="69.6728" x2="246.199" y2="177.932" gradientUnits="userSpaceOnUse">
<stop offset="0.0541237" stop-color="#8DBCAD" stop-opacity="0.6"/>
<stop offset="0.4794" stop-color="#5EA6AE" stop-opacity="0.6"/>
<stop offset="0.5851" stop-color="#5CA7AF" stop-opacity="0.6"/>
<stop offset="0.6633" stop-color="#5796AC" stop-opacity="0.701"/>
<stop offset="0.8104" stop-color="#507DA7" stop-opacity="0.8907"/>
<stop offset="0.8814" stop-color="#4E74A6" stop-opacity="0.9824"/>
</linearGradient>
<linearGradient id="paint13_linear_2536_1596" x1="213.81" y1="57.5402" x2="272.734" y2="162.722" gradientUnits="userSpaceOnUse">
<stop offset="0.0541237" stop-color="#8DBCAD" stop-opacity="0.6"/>
<stop offset="0.4794" stop-color="#5EA6AE" stop-opacity="0.6"/>
<stop offset="0.5851" stop-color="#5CA7AF" stop-opacity="0.6"/>
<stop offset="0.6633" stop-color="#5796AC" stop-opacity="0.701"/>
<stop offset="0.8104" stop-color="#507DA7" stop-opacity="0.8907"/>
<stop offset="0.8814" stop-color="#4E74A6" stop-opacity="0.9824"/>
</linearGradient>
<linearGradient id="paint14_linear_2536_1596" x1="186.958" y1="75.3148" x2="243.418" y2="176.097" gradientUnits="userSpaceOnUse">
<stop offset="0.0541237" stop-color="#8DBCAD" stop-opacity="0.6"/>
<stop offset="0.4794" stop-color="#5EA6AE" stop-opacity="0.6"/>
<stop offset="0.5851" stop-color="#5CA7AF" stop-opacity="0.6"/>
<stop offset="0.6633" stop-color="#5796AC" stop-opacity="0.701"/>
<stop offset="0.8104" stop-color="#507DA7" stop-opacity="0.8907"/>
<stop offset="0.8814" stop-color="#4E74A6" stop-opacity="0.9824"/>
</linearGradient>
<linearGradient id="paint15_linear_2536_1596" x1="148.224" y1="85.6401" x2="212.08" y2="199.625" gradientUnits="userSpaceOnUse">
<stop offset="0.0541237" stop-color="#8DBCAD" stop-opacity="0.6"/>
<stop offset="0.4794" stop-color="#5EA6AE" stop-opacity="0.6"/>
<stop offset="0.5851" stop-color="#5CA7AF" stop-opacity="0.6"/>
<stop offset="0.6633" stop-color="#5796AC" stop-opacity="0.701"/>
<stop offset="0.8104" stop-color="#507DA7" stop-opacity="0.8907"/>
<stop offset="0.8814" stop-color="#4E74A6" stop-opacity="0.9824"/>
</linearGradient>
<linearGradient id="paint16_linear_2536_1596" x1="215.032" y1="56.4101" x2="274.432" y2="162.442" gradientUnits="userSpaceOnUse">
<stop offset="0.0541237" stop-color="#8DBCAD" stop-opacity="0.6"/>
<stop offset="0.4794" stop-color="#5EA6AE" stop-opacity="0.6"/>
<stop offset="0.5851" stop-color="#5CA7AF" stop-opacity="0.6"/>
<stop offset="0.6633" stop-color="#5796AC" stop-opacity="0.701"/>
<stop offset="0.8104" stop-color="#507DA7" stop-opacity="0.8907"/>
<stop offset="0.8814" stop-color="#4E74A6" stop-opacity="0.9824"/>
</linearGradient>
<linearGradient id="paint17_linear_2536_1596" x1="-42.6729" y1="95.4797" x2="240.836" y2="86.8525" gradientUnits="userSpaceOnUse">
<stop offset="0.0541237" stop-color="#8DBCAD"/>
<stop offset="0.3943" stop-color="#5EA6AE"/>
<stop offset="0.5851" stop-color="#5CA7AF"/>
<stop offset="0.6633" stop-color="#5796AC"/>
<stop offset="0.8104" stop-color="#507DA7"/>
<stop offset="0.8814" stop-color="#4E74A6"/>
</linearGradient>
<clipPath id="clip0_2536_1596">
<rect width="320.971" height="192.286" fill="white"/>
</clipPath>
</defs>
</svg>
