<svg width="90" height="90" viewBox="0 0 90 90" fill="none" xmlns="http://www.w3.org/2000/svg">
<path d="M21.1621 87.4917C20.6931 87.4917 20.3906 87.0934 20.3906 86.4885L20.557 60.8753C20.557 60.2704 20.8595 59.8721 21.3284 59.8721C21.7973 59.8721 22.0999 60.2704 22.0999 60.8753L21.9335 86.4885C21.9335 87.0934 21.631 87.4917 21.1621 87.4917Z" fill="#46433E"/>
<path d="M30.417 87.8018H11.8574C11.3885 87.8018 11.0859 87.5067 11.0859 87.0493C11.0859 86.592 11.3885 86.2969 11.8574 86.2969H30.4322C30.9011 86.2969 31.2036 86.592 31.2036 87.0493C31.2036 87.492 30.8859 87.8018 30.417 87.8018Z" fill="#46433E"/>
<path d="M20.6933 61.5544L1.67985 36.9003C1.52859 36.7527 1.52859 36.4429 1.67985 36.1478C1.67985 35.838 1.9975 35.6904 2.30002 35.6904H41.1437C41.4462 35.6904 41.7488 35.8527 41.9151 36.1478C41.9151 36.2953 41.9151 36.6052 41.7488 36.9003L22.1 60.9494C22.1 61.2445 21.9336 61.5396 21.6311 61.7019C21.495 61.7019 21.495 61.7019 21.3286 61.7019C21.0109 61.7019 20.6933 61.7019 20.6933 61.5544ZM3.84288 37.1953L21.1622 59.5626L39.4193 37.1953H3.84288Z" fill="#46433E"/>
<path d="M26.651 44.2037C26.3182 43.8939 26.1821 43.4365 26.4846 43.1414L40.3703 25.1857C40.5215 25.0382 40.6879 24.8906 40.9905 24.8906H49.5669C50.0358 24.8906 50.3384 25.1857 50.3384 25.6431C50.3384 26.1005 50.0358 26.3955 49.5669 26.3955H41.293L27.7249 44.0562C27.5736 44.189 27.4073 44.3513 27.1047 44.3513C26.9384 44.3513 26.7871 44.3513 26.651 44.2037Z" fill="#46433E"/>
<path d="M9.1525 45.9884C8.84998 45.8409 8.68359 45.6786 8.68359 45.3835C8.68359 45.0884 8.81973 44.7786 8.98611 44.631C9.30376 44.4688 15.3844 40.2196 23.3407 43.7163C24.2786 43.2589 25.3828 42.9638 26.6231 42.9638C31.297 42.8163 33.1727 46.1655 33.1727 46.313C33.3391 46.7704 33.1727 47.213 32.8701 47.3753C32.4012 47.5376 31.9475 47.3753 31.7811 47.0802C31.6147 46.9327 30.208 44.3507 26.6231 44.4983C24.4449 44.6606 22.7206 45.5753 21.1626 46.3278C19.7559 47.095 18.3491 47.8474 16.7912 47.8474C16.655 47.8474 16.655 47.8474 16.4886 47.8474C13.2214 47.8474 9.1525 46.0179 9.1525 45.9884ZM11.013 45.1179C12.5861 45.7228 14.9307 46.3278 16.6399 46.3278C17.8954 46.1655 18.9844 45.7081 20.3912 44.9556C20.6937 44.9556 20.8601 44.8081 21.1626 44.6606C16.6399 43.1261 12.9038 44.2032 11.013 45.1179Z" fill="#46433E"/>
<path d="M75.7046 87.669H63.3769C60.2609 87.669 57.75 85.2346 57.75 82.1805V56.7739C57.75 56.3166 58.0525 56.0215 58.5214 56.0215H80.3634C80.8324 56.0215 81.1349 56.3166 81.1349 56.7739V82.1805C81.1651 85.2346 78.6693 87.669 75.7046 87.669ZM59.3231 57.5412V82.1952C59.3231 84.3198 61.0324 86.1494 63.3769 86.1494H75.7046C77.8828 86.1494 79.7584 84.4821 79.7584 82.1952V57.5412H59.3231Z" fill="#46433E"/>
<path d="M72.695 37.6375C63.6496 37.6375 56.2832 30.4522 56.2832 21.6293C56.2832 12.8063 63.6496 5.62109 72.695 5.62109C81.7403 5.62109 89.1067 12.8063 89.1067 21.6293C89.1067 30.4522 81.7403 37.6375 72.695 37.6375ZM72.695 7.0965C64.4815 7.0965 57.7958 13.6178 57.7958 21.6293C57.7958 29.6408 64.4815 36.1621 72.695 36.1621C80.9084 36.1621 87.5941 29.6408 87.5941 21.6293C87.5941 13.6178 80.9084 7.0965 72.695 7.0965Z" fill="#C65049"/>
<path d="M64.2254 30.585C64.0288 30.585 63.8321 30.5112 63.696 30.3637C63.4086 30.0686 63.4086 29.6112 63.696 29.3161L80.5918 12.8948C80.8943 12.6145 81.3632 12.6145 81.6658 12.8948C81.9532 13.1899 81.9532 13.6473 81.6658 13.9424L64.77 30.3637C64.6187 30.5112 64.4221 30.585 64.2254 30.585Z" fill="#C65049"/>
<path d="M81.09 30.6147C80.8934 30.6147 80.6967 30.5409 80.5606 30.3934L63.7253 13.9131C63.4379 13.618 63.4379 13.1606 63.7253 12.8655C64.0278 12.5852 64.4967 12.5852 64.7993 12.8655L81.6346 29.3606C81.922 29.6557 81.922 30.1131 81.6346 30.4081C81.4833 30.5409 81.2867 30.6147 81.09 30.6147Z" fill="#C65049"/>
<path d="M42.293 75.8208L33.5199 73.947C32.6577 73.7552 31.8863 73.2388 31.4174 72.5011C30.9334 71.7634 30.767 70.8782 30.9636 70.0224C31.3418 68.2962 33.1872 67.1454 34.9569 67.5142L43.73 69.388C45.5451 69.7569 46.6947 71.5274 46.3014 73.2831C45.9687 74.7733 44.5771 75.8651 43.004 75.8651C42.7468 75.8798 42.5199 75.8503 42.293 75.8208ZM32.4006 70.3175C32.3098 70.7897 32.3855 71.2913 32.6729 71.6897C32.9451 72.088 33.3687 72.3831 33.8376 72.4864L42.6107 74.3602C43.609 74.5815 44.6073 73.9323 44.8342 72.9733C45.0611 71.9847 44.4258 71.0257 43.4124 70.8044L34.6393 68.9306C34.5031 68.9011 34.3821 68.8864 34.246 68.8864C33.3535 68.9011 32.5821 69.5061 32.4006 70.3175Z" fill="#45423D"/>
<path d="M37.7094 74.8181C37.3161 74.7001 37.1044 74.2869 37.2254 73.9033L38.8136 69.182C38.9346 68.7984 39.3581 68.5919 39.7514 68.7099C40.1447 68.8279 40.3565 69.241 40.2355 69.6247L38.6472 74.346C38.5413 74.641 38.254 74.8476 37.9363 74.8476C37.8455 74.8476 37.7699 74.8476 37.7094 74.8181Z" fill="#45423D"/>
<path d="M40.0527 61.3767C39.8409 59.9898 40.1888 58.6176 41.0359 57.4963C41.8678 56.375 43.1233 55.6373 44.5451 55.4308C47.525 54.9881 50.2174 56.9799 50.6561 59.798C50.8678 61.1849 50.5199 62.557 49.6729 63.6783C48.8409 64.7996 47.5855 65.5373 46.1636 65.7439C45.8914 65.7881 45.604 65.8029 45.3317 65.8029C42.6695 65.8176 40.446 63.9586 40.0527 61.3767ZM44.7267 56.8767C43.7132 57.0242 42.8056 57.5701 42.2006 58.3668C41.5956 59.1783 41.3384 60.1668 41.4897 61.1701C41.8224 63.1767 43.7737 64.6226 45.9065 64.3127C46.9199 64.1652 47.8275 63.6193 48.4325 62.8226C49.0376 62.0111 49.2947 61.0226 49.1435 60.0193C48.8712 58.2045 47.2225 56.8324 45.3317 56.8324C45.1502 56.8324 44.9535 56.8324 44.7267 56.8767Z" fill="#45423D"/>
<path d="M47.36 63.6789L41.7331 58.1757C41.4457 57.8806 41.4457 57.4232 41.7331 57.1429C42.0356 56.8625 42.5046 56.8625 42.7919 57.1429L48.4037 62.6461C48.6911 62.9412 48.6911 63.3986 48.4037 63.6789C48.2676 63.8265 48.0709 63.9002 47.8743 63.9002C47.6928 63.9002 47.5113 63.8265 47.36 63.6789Z" fill="#45423D"/>
<path d="M80.5607 60.2402H58.5977V61.9812H80.5607V60.2402Z" fill="#45423D"/>
<path d="M80.5607 79.4219H58.5977V81.1629H80.5607V79.4219Z" fill="#45423D"/>
<path d="M80.2599 67.0283H58.2969V68.7693H80.2599V67.0283Z" fill="#45423D"/>
</svg>
