<svg width="385" height="100" viewBox="0 0 385 100" fill="none" xmlns="http://www.w3.org/2000/svg">
<g clip-path="url(#clip0_4034_68847)">
<path d="M108.713 48.2814C108.713 53.174 107.714 57.8627 105.716 62.0622C104.309 64.855 89.4464 68.9525 83.8398 72.3569C79.7419 74.4567 66.5716 76.8418 60.3737 76.8418C53.7886 76.8418 52.5857 72.8462 50.9955 69.5437C46.1024 63.8561 43.1055 56.3542 43.1055 48.2814C43.1055 38.904 47.1014 30.4032 53.4012 24.4098C56.0924 23.5128 64.8794 22.9216 73.5849 22.9216C85.165 22.9216 99.8441 27.4065 103.555 30.607C106.817 35.6831 108.713 41.6765 108.713 48.2814Z" fill="url(#paint0_linear_4034_68847)"/>
<path d="M353.894 44.7751C353.894 56.7619 347.492 67.1382 337.91 72.9277C334.505 73.2335 328.226 72.8258 322.028 72.8258C312.038 72.8258 299.663 67.5255 296.054 66.0374C291.161 60.3498 288.164 52.8478 288.164 44.7751C288.164 35.3977 292.16 26.8968 298.46 20.9034C301.151 20.0065 309.938 19.4153 318.643 19.4153C330.224 19.4153 344.903 23.9001 348.613 27.1007C351.998 32.1971 353.894 38.1905 353.894 44.7751Z" fill="url(#paint1_linear_4034_68847)"/>
<path d="M327.247 78.33C319.765 78.33 311.977 77.535 305.575 75.1295C302.578 74.0286 298.48 71.827 294.199 69.6457C286.798 65.854 278.419 61.5526 273.016 60.6556C264.331 59.3509 252.241 58.9636 252.139 58.9636L252.241 56.9658C252.343 56.9658 264.535 57.3735 273.322 58.7597C279.112 59.6567 287.613 64.06 295.096 67.9537C299.397 70.1553 303.393 72.2551 306.288 73.3559C321.477 79.1454 345.535 75.3537 351.141 73.9471C362.517 71.2562 377.4 61.8584 379.704 60.1664C382.11 58.4743 382.191 53.7652 380.907 51.7878C380.01 50.2997 375.504 47.8942 372.915 46.6914L372.711 46.5895L372.507 46.3856C372.405 46.1818 360.519 30.8109 344.841 22.3101C335.647 17.3156 319.377 16.1129 301.192 18.9057C283.618 21.5966 273.22 27.2842 269.836 29.0985C267.042 30.5867 261.252 34.5823 255.646 38.3944C251.548 41.1873 247.654 43.8782 244.759 45.6925C237.97 49.9939 234.667 51.7878 234.565 51.7878L233.668 49.9939C233.668 49.9939 237.073 48.1999 243.76 44.0005C246.553 42.2066 250.651 39.4137 254.545 36.7024C260.131 32.8087 265.921 28.9151 268.837 27.325C272.323 25.4291 282.924 19.7415 300.886 16.9487C319.459 14.0539 336.238 15.3586 345.82 20.5366C360.907 28.6297 372.487 43.0016 373.975 44.8975C375.382 45.4887 381.172 48.3019 382.558 50.687C384.149 53.3779 384.149 59.3713 380.764 61.7768C378.461 63.4688 363.292 73.0705 351.508 75.8633C348.205 76.638 338.114 78.33 327.247 78.33Z" fill="#383F51"/>
<path d="M244.432 32.6864L243.637 32.0952C243.739 31.9933 251.527 22.7993 270.895 12.0153C285.472 3.92215 305.941 -0.868486 321.823 0.130414C357.175 2.33207 383.944 21.4946 384.25 21.6985L383.659 22.4935C383.353 22.2897 356.788 3.31058 321.742 1.12931C305.962 0.130414 285.696 4.92105 271.303 12.9122C252.24 23.5128 244.534 32.5844 244.432 32.6864Z" fill="#383F51"/>
<path d="M241.353 57.557C240.252 57.557 238.866 56.1504 238.356 54.5603C237.867 53.0721 238.254 51.6655 239.559 50.8705C242.25 48.9746 252.648 42.39 254.85 42.0842H254.952C256.644 42.0842 257.358 47.4864 257.358 47.7718C257.561 49.3619 257.847 54.4583 255.054 55.1718C251.343 55.9669 242.842 57.557 241.353 57.557ZM254.829 43.0831C253.137 43.3889 243.147 49.4842 240.048 51.6655C238.948 52.4605 239.049 53.5614 239.253 54.2545C239.661 55.5592 240.742 56.5581 241.251 56.5581C242.658 56.5581 251.037 54.968 254.626 54.1526C255.625 53.9487 256.032 52.4605 256.216 51.2578C256.725 47.6699 255.421 43.3889 254.829 43.0831Z" fill="#383F51"/>
<path d="M259.234 53.7652L258.337 53.3575C259.54 50.952 258.928 47.466 258.439 44.5713C258.133 42.5735 257.848 40.7795 258.133 39.6787C258.827 37.3751 263.923 34.3784 269.51 31.0963L270.509 30.5051C277.991 26.1018 287.288 22.8197 298.868 20.3123C315.851 16.6225 337.217 19.2115 348.41 26.2038C355.892 30.8925 362.09 38.1906 366.188 42.9812C367.982 45.1828 369.592 46.9768 370.285 47.2826C372.385 48.1795 377.972 47.9757 378.073 47.9757V48.9746C377.87 48.9746 372.181 49.1784 369.878 48.1795C369.083 47.8738 367.88 46.4875 365.474 43.5928C361.478 38.8021 355.382 31.606 348.002 27.0192C336.911 20.1288 315.952 17.7233 299.174 21.3316C287.695 23.8186 278.501 27.1211 271.1 31.4225L270.101 32.0137C266.207 34.2153 259.805 37.9052 259.112 40.0049C258.806 40.9019 259.112 42.5939 259.418 44.4082C259.927 47.3641 260.621 51.1762 259.234 53.7652Z" fill="#383F51"/>
<path d="M331.325 73.6413C320.54 73.6413 308.45 72.2347 300.173 68.443C297.767 67.3421 295.076 66.0374 292.486 64.8551C286.696 62.0622 280.702 59.2694 278.297 58.6578C269.102 56.3542 255.83 58.5559 255.626 58.5559L255.422 57.557C256.013 57.4551 269.102 55.3553 278.501 57.6589C280.988 58.2501 286.798 61.0633 292.874 63.9581C295.463 65.1609 298.175 66.4452 300.56 67.546C315.239 74.2325 342.314 73.4375 351.386 70.4408C360.479 67.4441 373.568 61.4507 377.849 57.7608C381.845 54.2749 381.437 51.6655 381.336 51.6655L382.335 51.4617C382.335 51.5636 382.926 54.5603 378.441 58.5559C374.037 62.4496 360.968 68.341 351.672 71.4397C347.614 72.7443 339.928 73.6413 331.325 73.6413Z" fill="#383F51"/>
<path d="M337.214 96.2082C334.115 96.2082 313.442 95.8005 296.663 86.1173C274.094 73.1316 264.512 71.9288 264.41 71.9288L264.512 70.9299C264.92 70.9299 274.298 72.0308 297.173 85.2203C315.053 95.5151 337.418 95.1074 337.622 95.1074V96.1063C337.52 96.2082 337.418 96.2082 337.214 96.2082Z" fill="#383F51"/>
<path d="M322.25 61.5525C332.012 61.5525 339.926 53.6394 339.926 43.8781C339.926 34.1168 332.012 26.2037 322.25 26.2037C312.488 26.2037 304.574 34.1168 304.574 43.8781C304.574 53.6394 312.488 61.5525 322.25 61.5525Z" fill="url(#paint2_linear_4034_68847)"/>
<path d="M330.325 44.9586C335.009 44.9586 338.806 41.1618 338.806 36.4781C338.806 31.7945 335.009 27.9977 330.325 27.9977C325.641 27.9977 321.844 31.7945 321.844 36.4781C321.844 41.1618 325.641 44.9586 330.325 44.9586Z" fill="url(#paint3_linear_4034_68847)"/>
<path d="M315.26 56.7619C317.242 56.7619 318.848 55.1556 318.848 53.1741C318.848 51.1925 317.242 49.5862 315.26 49.5862C313.278 49.5862 311.672 51.1925 311.672 53.1741C311.672 55.1556 313.278 56.7619 315.26 56.7619Z" fill="url(#paint4_linear_4034_68847)"/>
<path opacity="0.14" d="M332.833 49.4638C332.833 60.3498 325.351 69.5437 315.259 72.0308C313.465 72.52 309.062 70.033 307.165 70.033C298.868 68.0352 293.791 64.7327 290.692 63.1426C287.899 59.2489 286.207 54.5602 286.207 49.4638C286.207 36.5801 296.686 26.1018 309.571 26.1018C322.334 26.1018 332.833 36.5801 332.833 49.4638Z" fill="url(#paint5_linear_4034_68847)"/>
<path d="M299.069 22.0043L301.475 20.5161C301.169 20.72 297.479 21.4131 296.99 21.4131H296.888C290.588 27.7123 287 36.2946 287 45.2847C287 52.4809 289.202 59.2693 293.402 65.0589C293.993 65.0589 296.99 65.9558 297.398 66.4655L295.991 65.0589C291.506 59.3713 289.1 52.5828 289.1 45.2847C288.978 36.4781 292.586 27.9977 299.069 22.0043Z" fill="#383F51"/>
<path d="M348.917 26.6114C348.611 26.6114 345.023 24.7156 344.717 24.5117L346.919 27.1007C350.609 32.401 352.505 38.6798 352.505 45.1828C352.505 55.8649 347.102 65.8539 338.213 71.7454L334.625 73.152C334.829 73.0501 339.416 72.8462 339.62 72.8462H339.926C349.019 66.547 354.401 56.1707 354.401 45.0809C354.503 38.5779 352.607 32.1971 348.917 26.6114Z" fill="#383F51"/>
<path opacity="0.2" d="M258.314 43.98C259.721 48.0776 256.52 57.3531 260.72 57.0677C263.717 56.8638 268.406 56.4765 279.497 59.1674C288.59 61.369 300.863 70.7465 316.358 72.4589C333.34 74.3547 346.918 73.5597 357.602 68.7691C370.181 63.0814 381.475 58.3927 381.17 52.5828C381.068 50.3812 379.477 49.5861 377.867 49.0969C376.256 48.6076 372.77 49.5861 370.079 47.996C366.389 45.7944 361.292 38.8021 357.785 34.9084C349.406 25.7145 333.809 19.3337 316.235 19.3337C295.562 19.3337 280.373 25.4291 268.895 32.1156C264.614 34.5007 256.52 38.3944 258.314 43.98Z" fill="url(#paint6_radial_4034_68847)"/>
<path d="M144.166 61.3487C142.678 61.3487 134.176 59.7586 130.486 58.9432C127.693 58.352 127.999 53.1537 128.183 51.5432C128.183 51.3393 128.876 45.8556 130.588 45.8556H130.69C132.892 46.1614 143.269 52.644 145.981 54.6418C147.184 55.5388 147.571 56.8435 147.184 58.3316C146.674 59.9625 145.267 61.3487 144.166 61.3487ZM130.588 46.8749C130.099 47.1807 128.794 51.4617 129.181 55.0699C129.283 56.2727 129.671 57.7608 130.772 57.9647C134.36 58.7597 142.862 60.3702 144.146 60.3702C144.635 60.3702 145.736 59.3713 146.144 58.0666C146.348 57.2716 146.45 56.2727 145.349 55.4776C142.372 53.2556 132.382 47.1807 130.588 46.8749Z" fill="#383F51"/>
<path d="M126.184 57.6589C124.879 54.9679 125.491 51.2577 125.98 48.2814C126.286 46.4875 126.571 44.6936 126.286 43.8781C125.593 41.7784 119.191 38.0886 115.297 35.8869L114.298 35.2957C106.897 30.9944 97.7227 27.7123 86.2241 25.2048C69.4452 21.6169 48.4663 24.0021 37.3959 30.8924C29.9952 35.4792 23.9197 42.6754 19.9237 47.466C17.518 50.3608 16.3355 51.6655 15.52 52.0528C13.2162 53.0517 7.52809 52.8478 7.32422 52.8478V51.8489C7.42616 51.8489 13.0124 52.0528 15.1123 51.1558C15.7035 50.85 17.3141 49.0561 19.2102 46.8544C23.3081 42.0638 29.404 34.7657 36.9881 30.077C48.2829 23.0847 69.5471 20.5977 86.53 24.1855C98.1101 26.6726 107.407 29.9751 114.889 34.3784L115.888 34.9696C121.474 38.1701 126.571 41.2688 127.264 43.552C127.672 44.6528 127.366 46.4467 126.959 48.4445C126.469 51.3393 125.858 54.8456 127.06 57.2308L126.184 57.6589Z" fill="#383F51"/>
<path d="M54.1769 77.4331C45.5938 77.4331 37.9076 76.5361 33.8097 75.1295C24.4315 72.0308 11.4446 66.1394 7.04086 62.2457C2.55559 58.352 3.14683 55.3553 3.14683 55.1515L4.14582 55.3553C4.14582 55.3553 3.73807 57.9443 7.6321 61.4507C11.9339 65.2424 25.0023 71.1339 34.0952 74.1306C43.188 77.1273 70.2423 77.9223 84.9214 71.2358C87.3271 70.135 90.0183 68.8303 92.6075 67.6479C98.7034 64.7531 104.392 62.0622 106.981 61.3487C116.359 58.9432 129.448 61.1449 130.059 61.2468L129.856 62.2457C129.754 62.2457 116.379 60.0441 107.185 62.3476C104.697 62.9388 98.8053 65.8336 92.9949 68.5449C90.4057 69.7476 87.6941 71.0319 85.3088 72.1328C77.0518 76.0264 64.9823 77.4331 54.1769 77.4331Z" fill="#383F51"/>
<path d="M48.2828 100H47.875V99.0012C48.0789 99.0012 70.444 99.4089 88.3239 89.1141C111.199 75.9246 120.577 74.8237 120.985 74.8237L121.087 75.8226C120.985 75.8226 111.403 77.0254 88.8336 90.0111C72.0547 99.5924 51.3817 100 48.2828 100Z" fill="#383F51"/>
<path d="M140.17 33.2979C140.068 33.196 132.382 24.104 113.197 13.4219C98.8239 5.43069 78.5383 0.640057 62.7583 1.63896C27.7121 3.84061 1.14705 22.8197 0.84124 23.0032L0.25 22.2081C0.555814 22.0043 27.3247 2.84171 62.6768 0.640057C78.6606 -0.358842 99.1298 4.4318 113.605 12.5249C132.973 23.309 140.761 32.5029 140.863 32.6048L140.17 33.2979Z" fill="#383F51"/>
<path opacity="0.2" d="M126.694 47.3641C125.287 51.4616 128.488 60.7371 124.288 60.4517C121.291 60.2478 116.602 59.8605 105.511 62.5514C96.4181 64.7531 84.1448 74.1305 68.6502 75.8429C51.6674 77.7388 38.0892 76.9437 27.4061 72.1531C14.827 66.4655 3.53229 61.7768 3.8381 55.9668C3.94004 53.7652 5.53027 52.9701 7.14089 52.4809C8.73112 51.9916 12.2378 52.9701 14.9289 51.3801C18.6191 49.1784 23.716 42.1861 27.2227 38.2924C35.6019 29.0985 51.1984 22.7178 68.7725 22.7178C89.4455 22.7178 104.634 28.8131 116.112 35.4996C120.496 37.8847 128.59 41.7784 126.694 47.3641Z" fill="url(#paint7_radial_4034_68847)"/>
<path d="M77.051 65.0385C86.8132 65.0385 94.7271 57.1254 94.7271 47.3641C94.7271 37.6028 86.8132 29.6897 77.051 29.6897C67.2888 29.6897 59.375 37.6028 59.375 47.3641C59.375 57.1254 67.2888 65.0385 77.051 65.0385Z" fill="url(#paint8_linear_4034_68847)"/>
<path d="M85.1453 48.4649C89.8293 48.4649 93.6265 44.6681 93.6265 39.9845C93.6265 35.3009 89.8293 31.504 85.1453 31.504C80.4612 31.504 76.6641 35.3009 76.6641 39.9845C76.6641 44.6681 80.4612 48.4649 85.1453 48.4649Z" fill="url(#paint9_linear_4034_68847)"/>
<path d="M70.057 60.2479C72.0387 60.2479 73.6452 58.6416 73.6452 56.66C73.6452 54.6785 72.0387 53.0721 70.057 53.0721C68.0752 53.0721 66.4688 54.6785 66.4688 56.66C66.4688 58.6416 68.0752 60.2479 70.057 60.2479Z" fill="url(#paint10_linear_4034_68847)"/>
<path opacity="0.14" d="M87.6498 52.9702C87.6498 63.8562 80.1676 73.0501 70.0757 75.5372C68.2816 76.0264 63.8779 73.5394 61.9819 73.5394C53.6841 71.5416 48.6076 68.2391 45.5087 66.649C42.7156 62.7553 41.0234 58.0666 41.0234 52.9702C41.0234 40.0864 51.5027 29.6082 64.3876 29.6082C77.1502 29.5878 87.6498 40.0864 87.6498 52.9702Z" fill="url(#paint11_linear_4034_68847)"/>
<path d="M53.8898 25.5106L56.2955 24.0225C55.9897 24.2263 52.2995 24.9194 51.8102 24.9194H51.7083C45.4085 31.2186 41.8203 39.801 41.8203 48.7911C41.8203 55.9872 44.0222 62.7757 48.222 68.5652C48.324 68.5652 54.114 76.3525 56.6013 77.0457C57.1925 77.2495 59.5983 76.9437 60.2915 77.1476C55.9897 75.3536 50.7093 68.5652 50.7093 68.5652C46.224 62.8776 43.8183 56.0892 43.8183 48.7911C43.7979 39.9845 47.3861 31.504 53.8898 25.5106Z" fill="#383F51"/>
<path d="M107.327 48.7707C107.327 53.9691 106.022 58.9636 103.739 63.3465C104.228 62.8572 104.738 62.5514 105.431 62.1437C105.839 61.9399 106.328 61.6545 106.736 61.6545C108.428 57.6589 109.325 53.2759 109.325 48.6688C109.325 41.9823 107.327 35.5812 103.739 29.9955C103.433 29.9955 99.8449 28.0996 99.5391 27.8958L101.741 30.4847C105.431 35.9889 107.327 42.2881 107.327 48.7707Z" fill="#383F51"/>
<path d="M58.2711 82.2237C47.3842 82.2237 37.2923 80.5317 33.908 79.7366C22.2259 76.9438 7.03717 67.3625 4.65182 65.6501C1.2471 63.2446 1.2471 57.2716 2.85772 54.5603C4.26446 52.1548 10.1565 49.3619 11.4409 48.7707C12.9292 46.8749 24.5297 32.503 39.5961 24.4098C49.0764 19.2115 65.8553 17.9272 84.5303 20.8219C102.512 23.6148 113.093 29.4043 116.58 31.1983C119.475 32.7884 125.265 36.7839 130.871 40.5757C134.765 43.2666 138.863 46.0594 141.656 47.8738C148.343 52.1752 151.748 53.8672 151.748 53.8672L150.851 55.6611C150.749 55.5592 147.446 53.8672 140.657 49.5658C137.762 47.7718 133.97 45.0809 129.77 42.2677C124.184 38.476 118.476 34.4804 115.581 32.9718C112.176 31.1779 101.799 25.4903 84.2245 22.779C66.0388 19.9861 49.7695 21.1889 40.5747 26.1834C24.8967 34.6638 13.0107 50.055 12.9088 50.2589L12.7049 50.4628L12.501 50.5647C9.91182 51.7674 5.40616 54.1526 4.50911 55.6611C3.30624 57.6589 3.30624 62.3476 5.71198 64.0396C8.01577 65.6297 22.8987 75.0275 34.275 77.8204C39.8612 79.125 63.9389 83.0187 79.1276 77.2292C82.0227 76.1283 86.0186 74.0286 90.3204 71.827C97.8027 67.9333 106.406 63.53 112.094 62.633C120.881 61.3283 133.073 60.8391 133.175 60.8391L133.277 62.8369C133.175 62.8369 121.085 63.2446 112.4 64.5289C106.997 65.3239 98.6182 69.6253 91.2175 73.519C86.9157 75.7206 82.8382 77.8204 79.8412 79.0027C73.5618 81.4286 65.6718 82.2237 58.2711 82.2237Z" fill="#383F51"/>
</g>
<defs>
<linearGradient id="paint0_linear_4034_68847" x1="38.6528" y1="87.7112" x2="111.891" y2="5.94464" gradientUnits="userSpaceOnUse">
<stop offset="0.05" stop-color="#CD8F48"/>
<stop offset="0.39" stop-color="#CC7446"/>
<stop offset="0.81" stop-color="#4D2D27"/>
<stop offset="0.88" stop-color="#4D2A00"/>
</linearGradient>
<linearGradient id="paint1_linear_4034_68847" x1="285.923" y1="82.8766" x2="357.194" y2="3.30771" gradientUnits="userSpaceOnUse">
<stop offset="0.05" stop-color="#CD8F48"/>
<stop offset="0.39" stop-color="#CC7446"/>
<stop offset="0.81" stop-color="#4D2D27"/>
<stop offset="0.88" stop-color="#4D2A00"/>
</linearGradient>
<linearGradient id="paint2_linear_4034_68847" x1="303.204" y1="64.0673" x2="342.44" y2="20.262" gradientUnits="userSpaceOnUse">
<stop offset="0.05" stop-color="#392339"/>
<stop offset="0.88" stop-color="#263146"/>
</linearGradient>
<linearGradient id="paint3_linear_4034_68847" x1="321.367" y1="45.4079" x2="340.286" y2="24.2794" gradientUnits="userSpaceOnUse">
<stop stop-color="#5CA7AF"/>
<stop offset="0.81" stop-color="white"/>
</linearGradient>
<linearGradient id="paint4_linear_4034_68847" x1="311.608" y1="56.1861" x2="319.699" y2="47.1453" gradientUnits="userSpaceOnUse">
<stop stop-color="#5CA7AF"/>
<stop offset="0.81" stop-color="white"/>
</linearGradient>
<linearGradient id="paint5_linear_4034_68847" x1="284.724" y1="76.0741" x2="336.007" y2="18.8125" gradientUnits="userSpaceOnUse">
<stop stop-color="#5CA7AF"/>
<stop offset="0.81" stop-color="white"/>
</linearGradient>
<radialGradient id="paint6_radial_4034_68847" cx="0" cy="0" r="1" gradientUnits="userSpaceOnUse" gradientTransform="translate(319.224 44.9284) rotate(-180) scale(47.552 47.5476)">
<stop offset="0.27" stop-color="#212F3C" stop-opacity="0"/>
<stop offset="1" stop-color="#212F3C"/>
</radialGradient>
<radialGradient id="paint7_radial_4034_68847" cx="0" cy="0" r="1" gradientUnits="userSpaceOnUse" gradientTransform="translate(65.6647 48.3147) scale(47.562 47.5576)">
<stop offset="0.27" stop-color="#212F3C" stop-opacity="0"/>
<stop offset="1" stop-color="#212F3C"/>
</radialGradient>
<linearGradient id="paint8_linear_4034_68847" x1="57.9436" y1="67.5535" x2="97.1799" y2="23.7482" gradientUnits="userSpaceOnUse">
<stop offset="0.05" stop-color="#392339"/>
<stop offset="0.88" stop-color="#263146"/>
</linearGradient>
<linearGradient id="paint9_linear_4034_68847" x1="76.1256" y1="48.914" x2="95.0446" y2="27.7856" gradientUnits="userSpaceOnUse">
<stop stop-color="#5CA7AF"/>
<stop offset="0.81" stop-color="white"/>
</linearGradient>
<linearGradient id="paint10_linear_4034_68847" x1="66.334" y1="59.6722" x2="74.435" y2="50.6314" gradientUnits="userSpaceOnUse">
<stop stop-color="#5CA7AF"/>
<stop offset="0.81" stop-color="white"/>
</linearGradient>
<linearGradient id="paint11_linear_4034_68847" x1="39.4695" y1="79.5803" x2="90.7624" y2="22.3187" gradientUnits="userSpaceOnUse">
<stop stop-color="#5CA7AF"/>
<stop offset="0.81" stop-color="white"/>
</linearGradient>
<clipPath id="clip0_4034_68847">
<rect width="384" height="100" fill="white" transform="translate(0.25)"/>
</clipPath>
</defs>
</svg>
