<svg width="320" height="200" viewBox="0 0 320 200" fill="none" xmlns="http://www.w3.org/2000/svg">
<path opacity="0.2" d="M183.976 23.0742C178.824 23.3782 169.808 25.4053 164.359 27.0269C161.09 28.0404 158.613 25.4053 157.721 24.7972C151.975 28.5472 149.399 29.2566 148.309 30.4728C146.724 32.0945 145.436 32.8039 143.95 34.5269L143.256 35.5404C143.058 35.7431 142.662 36.2499 142.563 36.4526C142.364 36.858 141.869 37.162 141.671 37.5674C141.572 37.7701 141.076 38.2769 141.076 38.4796C140.878 38.9864 140.383 38.885 140.185 39.3918C139.491 41.3174 138.6 42.0269 137.51 43.6485C137.609 44.2566 136.519 45.5742 136.321 46.081C136.024 47.2972 134.438 50.2364 134.042 51.4526C131.664 58.2431 130.674 68.7837 130.376 68.9864C129.98 69.5945 128.692 66.1485 131.07 55.912C131.169 55.608 130.575 53.581 130.376 53.3782L129.187 53.2769C128.89 53.2769 128.098 56.3174 127.8 56.3174C127.701 56.3174 127.8 68.9864 127.8 68.9864C127.701 68.9864 125.621 69.8985 125.522 69.8985C124.432 70.1012 127.107 54.8985 126.017 55.2026C125.819 55.2026 126.215 51.4526 126.017 51.5539C125.918 51.5539 124.828 51.0472 124.729 51.1485C124.729 51.3512 124.234 52.0607 123.441 51.6553C123.243 52.9728 122.252 53.581 121.162 54.1891C121.162 54.3918 120.865 54.4931 120.766 54.7972C120.469 55.7093 120.37 56.6215 119.874 57.4323C119.874 57.8377 119.478 58.2431 119.28 58.6485C119.181 58.8512 119.181 58.9526 119.082 59.1553C118.983 59.8647 118.884 60.4728 118.586 61.081V61.2837C118.586 61.385 118.785 61.5877 118.785 61.6891C118.884 63.108 118.785 64.3242 118.289 65.6418C118.289 65.7431 118.19 65.8445 118.19 65.9458C118.19 66.4526 118.091 66.858 117.893 67.3647C118.091 68.3783 118.091 69.2904 117.695 70.2026C117.695 70.5066 117.893 71.0134 117.794 71.3174C117.794 71.4188 117.695 71.9256 117.695 72.0269C117.695 72.9391 117.497 73.3445 117.497 74.2566V75.0674C117.497 75.4728 117.596 75.8783 117.695 76.2837C117.992 78.412 118.19 80.5404 118.091 82.6688C118.091 82.9728 118.19 83.1755 118.289 83.4796C118.289 83.4796 118.685 84.2904 118.685 84.3918C119.082 84.6958 118.884 84.3918 119.181 84.7972C119.478 82.5674 119.973 80.3377 120.667 78.108C121.46 75.6756 122.549 72.7364 124.531 71.0134C125.918 69.7972 127.503 69.3918 129.088 69.5945C131.268 69.2904 133.25 69.8985 133.943 72.0269L134.934 72.8377C135.033 72.9391 135.231 73.1418 135.33 73.3445C135.429 73.5472 135.826 73.6485 135.925 73.8512C136.519 74.5607 136.717 75.4728 137.312 76.1823C138.897 78.2093 139.59 79.3242 140.284 81.7566C140.383 82.0607 140.779 83.9864 140.779 84.2904C141.77 86.4188 141.671 88.2431 141.968 90.5742C142.166 91.8918 142.166 93.2093 142.166 94.5269C142.662 96.2499 143.157 98.0742 143.157 99.8985C143.157 101.824 143.553 104.155 143.355 106.081C142.959 110.338 141.671 114.189 140.383 118.243C139.689 120.574 139.59 122.5 138.104 124.426C137.609 124.932 137.609 126.149 137.113 126.655C136.915 127.061 136.222 127.567 135.925 127.973C135.033 129.189 132.952 131.216 131.763 131.52C129.584 133.446 125.026 132.027 123.639 129.392C121.658 125.54 120.172 122.196 119.676 117.939C119.577 118.04 119.082 117.635 118.983 117.736C117.992 118.953 117.298 126.655 117.893 135.473C117.992 136.892 118.785 141.959 121.559 147.128C121.757 147.432 123.144 150.067 124.828 149.358C127.404 148.344 124.927 132.939 125.522 131.926C125.621 131.723 128.098 131.926 127.8 133.649C126.909 138.311 127.305 143.074 128.098 146.013C128.593 148.04 130.079 147.027 129.98 146.621C129.386 140.236 129.782 133.75 129.782 133.04C129.683 133.142 131.268 132.432 131.565 132.331C132.061 161.013 153.659 175.405 159.009 177.027C160.396 176.115 164.755 174.088 167.232 174.899C171.691 176.419 180.707 177.939 185.759 177.939C225.786 178.446 260.363 145.608 260.363 100.608C260.363 69.6958 245.7 44.4593 220.337 30.6755C208.745 24.2904 195.172 22.5674 183.976 23.0742Z" fill="url(#paint0_radial_6249_32388)"/>
<path opacity="0.2" d="M110.462 48.9188C110.462 48.9188 83.0186 98.2769 110.165 149.358C110.165 149.358 83.2167 134.865 79.9472 104.966C79.7491 100.203 80.4426 95.2364 80.4426 95.2364C83.0186 71.6215 110.462 48.9188 110.462 48.9188Z" fill="url(#paint1_radial_6249_32388)"/>
<path d="M183.085 193.75C169.808 193.75 157.028 190.912 145.139 185.338C133.646 179.966 123.441 172.264 114.921 162.635C113.534 161.216 112.345 160.101 111.354 159.088C106.896 154.628 106.499 154.223 103.428 151.486C103.032 151.182 102.635 150.777 102.239 150.372C98.4743 147.027 91.539 140.845 85.5945 132.432C78.362 122.095 74.5972 111.25 74.5972 100.203V99.8987C74.6962 88.8514 78.362 78.0068 85.5945 67.6689C91.539 59.2568 98.4743 53.0743 102.239 49.7297C102.735 49.3243 103.131 49.0203 103.428 48.6149C105.707 46.5878 106.499 45.777 108.58 43.75C109.769 42.5338 111.453 40.9122 114.029 38.277C122.55 28.3446 132.754 20.4392 144.445 14.8649C156.532 9.08784 169.511 6.25 182.985 6.25C195.37 6.25 207.358 8.68243 218.653 13.6486C229.551 18.4122 239.359 25.1014 247.781 33.7162C256.202 42.3311 262.84 52.3649 267.398 63.5135C272.153 75.0676 274.63 87.3311 274.63 100C274.63 102.331 274.63 107.703 277.404 110.642C278.593 111.858 280.376 112.466 282.457 112.466H283.745C290.779 112.466 302.47 112.365 310 115.101L309.505 116.419C302.272 113.784 290.68 113.885 283.745 113.885H282.457C279.98 113.885 277.9 113.176 276.413 111.554C273.243 108.311 273.243 102.432 273.243 100C273.243 49.0203 232.721 7.66892 182.985 7.66892C156.929 7.66892 132.16 19.1216 115.02 39.1892C112.444 41.723 110.76 43.4459 109.571 44.6622C107.49 46.7905 106.698 47.6014 104.419 49.6284C104.023 49.9324 103.626 50.3378 103.23 50.7432C95.8983 57.3311 76.2814 74.6622 76.0833 99.8987V100.203C76.2814 125.439 95.8983 142.77 103.23 149.358C103.725 149.764 104.122 150.068 104.419 150.473C107.49 153.209 107.886 153.716 112.345 158.074C113.336 158.986 114.524 160.203 115.912 161.622C133.052 181.081 157.523 192.331 183.085 192.331C218.851 192.331 251.546 170.135 266.308 135.777C266.605 135.169 267.199 134.662 267.893 134.358C269.577 133.75 271.856 134.257 274.234 135.574C275.918 136.588 277.701 137.703 279.683 138.919C286.519 143.176 294.247 148.041 302.767 149.561L302.569 150.878C293.851 149.358 285.925 144.392 278.989 140.034C277.107 138.818 275.324 137.703 273.639 136.791C270.667 135.068 268.884 135.473 268.388 135.676C267.992 135.777 267.695 136.081 267.596 136.284C260.363 153.108 248.871 167.297 234.207 177.534C219.049 188.176 201.413 193.75 183.085 193.75Z" fill="#383F51"/>
<path d="M182.589 186.554C170.898 186.554 159.703 184.223 149.102 179.46C138.897 174.899 129.782 168.412 122.054 160.203L122.748 159.595C138.6 176.419 159.802 185.743 182.688 185.743C214.69 185.743 243.322 167.399 257.391 138.007C257.688 137.399 257.886 136.791 258.184 136.284C260.66 130.71 262.345 130.912 268.487 131.723L269.28 131.824L269.181 132.737L268.388 132.635C262.345 131.824 261.255 131.723 258.976 136.689C258.679 137.297 258.481 137.906 258.184 138.412C251.347 152.703 240.845 164.764 227.767 173.277C214.194 181.892 198.639 186.554 182.589 186.554Z" fill="#383F51"/>
<path d="M277.107 115.709C270.667 112.872 267.893 108.007 267.794 99.6959C267.2 53.277 228.956 15.5743 182.589 15.5743C157.325 15.5743 136.321 27.7365 126.017 38.0743C125.72 38.3784 123.639 39.8986 120.271 42.4324C117.596 44.3581 114.624 46.6892 114.326 46.9932L113.732 46.2838C114.128 45.8784 116.407 44.1554 119.776 41.6216C122.252 39.7973 125.126 37.6689 125.423 37.3648C135.925 26.8243 157.127 14.5608 182.589 14.5608C193.983 14.5608 204.98 16.7905 215.482 21.1486C225.687 25.4054 234.802 31.4865 242.728 39.2905C259.174 55.304 268.289 76.7905 268.587 99.5946C268.686 107.5 271.361 112.061 277.404 114.797L277.107 115.709Z" fill="#383F51"/>
<path d="M187.345 178.851C185.561 178.851 183.679 178.75 181.796 178.649C176.744 178.243 171.691 177.23 166.935 175.811C166.44 175.608 165.251 175.608 164.161 175.71C162.873 175.811 160.693 176.723 159.207 177.635L158.514 176.52C159.901 175.608 162.279 174.493 164.062 174.392C165.053 174.291 166.539 174.291 167.331 174.493C172.087 175.912 176.942 176.926 181.995 177.331C221.625 180.473 256.499 148.446 259.67 105.878C261.255 85.3041 255.211 65.3379 242.728 49.6284C230.244 34.0203 212.807 24.4933 193.685 22.973C184.67 22.2636 175.753 23.2771 167.133 26.1149C165.251 26.723 163.269 27.0271 162.279 26.9257C160.594 26.8244 158.613 25.8109 157.721 24.5947L158.811 23.7838C159.405 24.5947 160.991 25.5068 162.378 25.6082C163.269 25.6082 165.152 25.4055 166.836 24.7974C175.555 21.9595 184.67 20.8447 193.884 21.5541C213.401 23.0744 231.136 32.7028 243.917 48.7163C256.598 64.6284 262.741 85.0001 261.057 105.878C259.471 126.858 250.357 145.912 235.396 159.696C221.724 172.162 204.881 178.851 187.345 178.851Z" fill="#383F51"/>
<path d="M308.514 119.561C301.975 116.824 294.049 116.723 287.708 116.723C282.457 116.622 278.296 116.622 276.116 115.203L276.612 114.392C278.593 115.608 282.853 115.709 287.708 115.709C294.148 115.811 302.173 115.912 308.811 118.649L308.514 119.561Z" fill="#383F51"/>
<path d="M303.163 147.23C297.219 146.52 290.977 142.973 284.934 139.527C278.89 136.182 273.243 132.939 268.091 132.432L268.19 131.52C273.54 132.027 279.286 135.27 285.33 138.716C291.274 142.061 297.516 145.507 303.263 146.318L303.163 147.23Z" fill="#383F51"/>
<path d="M110.264 150.169C101.446 136.385 97.6814 120.574 97.9787 99.1891C98.6722 72.6351 104.518 58.8513 110.264 48.8175L111.057 49.3243C105.409 59.2567 99.5639 72.9391 98.9694 99.1891C98.6722 120.473 102.437 135.98 111.057 149.662L110.264 150.169Z" fill="#383F51"/>
<path d="M123.441 161.52C117.298 155.034 112.939 152.095 109.075 149.358C107.292 148.142 105.707 147.027 104.022 145.608C97.1861 140.034 91.9351 134.358 87.9721 128.277C82.2257 119.561 79.3525 110.034 79.3525 100V99.696C79.3525 85.8109 86.8823 73.446 93.2231 65.4393C101.05 55.5068 109.868 48.6149 113.831 46.1825L114.326 46.9933C110.462 49.4257 101.744 56.2163 94.0157 66.0474C87.7739 73.9528 80.3433 86.2163 80.3433 99.696V100C80.3433 116.824 88.3684 131.52 104.716 144.899C106.4 146.216 107.985 147.432 109.769 148.649C113.633 151.284 117.992 154.324 124.234 160.912L123.441 161.52Z" fill="#383F51"/>
<path d="M190.02 183.615C178.428 183.615 164.062 181.588 151.975 173.885C144.346 169.02 137.609 160.405 133.943 150.878C131.268 143.581 130.674 138.817 130.178 131.013H131.07C131.565 138.716 132.16 143.48 134.736 150.676C138.302 159.899 145.04 168.513 152.371 173.277C174.168 187.365 203.989 182.196 209.736 180.98L209.934 181.892C207.358 182.196 199.63 183.615 190.02 183.615Z" fill="#383F51"/>
<path d="M126.017 164.155C117.893 156.655 116.704 152.196 115.119 146.622C115.02 146.216 114.921 145.912 114.822 145.507C113.138 138.919 112.741 129.392 113.633 118.649C113.732 117.331 114.822 116.419 116.11 116.419L118.983 116.622L118.884 117.128C116.209 128.277 117.992 140.642 121.262 146.216C122.054 147.635 122.946 148.446 123.739 148.649C123.937 148.649 124.036 148.649 124.135 148.547C124.927 147.939 124.828 144.595 124.729 142.669V141.959C124.63 138.412 123.937 130.811 123.937 130.709L123.838 129.696L124.63 130.304C125.621 131.013 126.612 131.52 127.404 131.723L127.801 131.824V132.23C127.801 132.23 127.206 137.905 127.503 143.176C127.603 145 128.197 145.912 128.593 146.115C128.692 146.216 128.791 146.115 128.791 146.115C128.99 145.912 129.386 145.203 129.188 143.277C128.296 135.574 129.089 131.926 129.188 131.824L130.079 132.027C130.079 132.027 129.287 135.676 130.178 143.176C130.377 145 130.178 146.317 129.485 146.824C129.188 147.027 128.692 147.128 128.296 146.926C127.404 146.52 126.81 145.101 126.711 143.277C126.513 138.716 126.81 133.953 126.909 132.534C126.315 132.331 125.621 132.027 124.927 131.622C125.126 133.75 125.621 139.122 125.621 141.959V142.669C125.72 145.709 125.72 148.345 124.63 149.257C124.333 149.459 123.937 149.561 123.54 149.459C122.451 149.257 121.46 148.243 120.469 146.622C117.101 141.047 115.218 128.581 117.794 117.432L116.011 117.331C115.218 117.331 114.525 117.838 114.525 118.649C113.633 129.29 114.029 138.716 115.713 145.203C115.813 145.608 115.912 145.912 116.011 146.317C117.497 151.79 118.686 156.149 126.612 163.446L126.017 164.155Z" fill="#383F51"/>
<path d="M130.872 69.7973H129.98C130.476 61.8918 131.07 57.2297 133.745 49.9324C137.411 40.4054 144.247 31.7905 151.777 26.9256C173.871 12.6351 203.99 17.9054 209.736 19.1216L209.538 20.0337C203.792 18.8175 174.069 13.6486 152.173 27.7364C144.842 32.3986 138.105 41.1148 134.538 50.3378C131.962 57.4324 131.368 62.0945 130.872 69.7973Z" fill="#383F51"/>
<path d="M115.713 84.3918C114.524 84.3918 113.435 83.4797 113.435 82.1621C112.543 71.4188 112.939 61.7905 114.624 55.304L114.723 54.7972C116.407 48.9188 117.596 44.5607 126.017 36.858L126.612 37.5675C118.388 45.0675 117.299 49.1215 115.614 55.1013L115.515 55.608C113.93 62.0945 113.435 71.5202 114.326 82.1621C114.425 82.9729 115.02 83.581 115.812 83.4797L117.596 83.3783C115.912 70.304 117.398 57.7364 121.262 52.6688C122.252 51.4526 123.243 50.7432 124.432 50.6418C124.927 50.6418 125.324 50.7432 125.621 51.0472C126.414 51.858 126.314 53.581 126.116 55.9121C126.116 56.6215 126.017 57.331 126.017 58.0405C125.918 60.3715 125.621 63.6148 125.423 65.9459C125.225 67.7702 125.126 68.8851 125.026 69.6959C125.621 69.2905 126.215 68.9864 126.909 68.7837C126.909 67.4661 126.711 62.9053 126.81 58.4459C126.909 55.4053 127.602 53.277 128.791 52.7702C129.287 52.5675 129.782 52.6688 130.178 52.9729C130.971 53.6824 131.169 55.304 130.674 57.0269C128.593 63.9188 129.782 69.0878 129.782 69.1891L128.89 69.3918C128.89 69.1891 127.702 63.9188 129.782 56.7229C130.277 55.2026 129.98 53.9864 129.584 53.581C129.386 53.3783 129.188 53.4797 129.089 53.4797C128.494 53.6824 127.701 55.2026 127.602 58.3445C127.404 63.7161 127.702 68.9864 127.702 68.9864V69.3918L127.305 69.4932C126.314 69.6959 125.324 70.304 124.531 70.9121C124.432 71.0134 124.333 71.0134 124.333 71.1148L124.036 71.2161L123.639 70.608L123.838 70.4053C124.036 69.2905 124.729 62.0945 124.927 57.9391C124.927 57.2297 125.026 56.5202 125.026 55.8107C125.126 53.9864 125.324 52.1621 124.828 51.6553C124.729 51.554 124.63 51.554 124.333 51.554C123.441 51.6553 122.55 52.2634 121.757 53.277C118.587 57.4324 116.407 69.1891 118.289 83.7837L118.388 84.2905L115.614 84.4932C115.812 84.3918 115.713 84.3918 115.713 84.3918Z" fill="#383F51"/>
<path d="M113.931 117.736C113.931 117.635 111.751 110.338 111.85 99.3919C111.949 90.3716 113.435 82.7703 113.435 82.7703L114.327 82.973C114.327 83.0743 112.841 90.473 112.742 99.4932C112.543 110.236 114.723 117.534 114.723 117.534L113.931 117.736Z" fill="#383F51"/>
<path d="M118.586 92.2974H10V94.6284H118.586V92.2974Z" fill="url(#paint2_linear_6249_32388)"/>
<path d="M118.586 98.9866H10V101.318H118.586V98.9866Z" fill="url(#paint3_linear_6249_32388)"/>
<path d="M118.586 105.574H10V107.905H118.586V105.574Z" fill="url(#paint4_linear_6249_32388)"/>
<path d="M118.586 85.9121H10V88.2432H118.586V85.9121Z" fill="url(#paint5_linear_6249_32388)"/>
<path d="M118.586 112.061H10V114.392H118.586V112.061Z" fill="url(#paint6_linear_6249_32388)"/>
<g opacity="0.5">
<path d="M213.005 32.1959L212.906 32.7027C215.482 33.0067 219.049 40.8108 219.346 42.4324C219.445 43.1419 219.247 43.5473 219.148 43.9527C218.95 44.5608 218.652 45.0675 219.346 46.0811C220.337 47.804 226.777 53.7838 229.848 55.1013C233.018 56.4189 234.703 57.2297 235.892 60.2702C236.486 61.8919 236.486 64.4257 236.585 67.0608C236.585 69.4932 236.585 72.027 237.08 73.9527C237.873 76.8919 239.161 79.6284 239.855 80.9459C239.062 80.2365 238.269 79.527 237.477 78.8175C236.09 77.6013 234.901 76.5878 234.405 75.8784C233.811 74.9662 233.514 71.9257 233.117 68.5811C232.622 64.1216 232.127 59.054 230.641 57.5338C228.956 55.8108 222.814 53.277 217.86 51.25C215.185 50.1351 212.906 49.2229 212.014 48.7162C211.024 48.1081 209.934 46.4865 208.844 44.6621C206.862 41.6216 204.683 38.1757 202.008 38.277V38.7838C204.386 38.6824 206.565 42.027 208.448 44.9662C209.736 46.8919 210.726 48.5135 211.816 49.2229C212.807 49.8311 215.086 50.7432 217.761 51.7567C222.715 53.7838 228.758 56.2162 230.343 57.9392C230.839 58.5473 231.334 59.6621 231.631 61.1824C231.136 60.2702 230.343 59.054 229.353 58.2432C227.569 56.7229 223.309 55.5067 220.931 54.8986C220.535 54.7973 220.238 54.6959 219.94 54.5946C219.247 54.3919 218.752 54.5946 218.355 54.8986C217.86 55.2027 217.364 55.6081 216.076 55.304C214.689 55.1013 214.095 54.1892 213.501 53.3784C213.104 52.7702 212.609 52.1621 211.915 51.7567C210.132 50.6419 208.349 51.3513 207.457 51.7567H207.358C206.664 51.9594 206.763 52.6689 206.763 53.0743C206.763 53.4797 206.763 53.7838 206.565 53.9865C206.367 54.1892 205.773 53.7838 205.277 53.3784C204.485 52.8716 203.593 52.1621 202.8 52.5675L202.999 53.0743C203.593 52.7702 204.287 53.3784 204.98 53.7838C205.674 54.2905 206.367 54.6959 206.862 54.3919C207.457 54.0878 207.358 53.4797 207.358 52.9729C207.358 52.4662 207.358 52.2635 207.556 52.1621H207.655C208.547 51.7567 210.132 51.25 211.717 52.1621C212.312 52.5675 212.708 53.0743 213.104 53.6824C213.798 54.5946 214.392 55.5067 216.076 55.8108C217.563 56.0135 218.256 55.6081 218.752 55.304C219.148 55.1013 219.445 54.8986 219.94 55.1013C220.139 55.2027 220.535 55.304 220.931 55.4054C223.012 56.0135 227.371 57.2297 229.154 58.6486C231.037 60.2702 232.127 63.0067 232.226 63.2094C232.523 64.9324 232.721 66.8581 232.919 68.6824C233.316 72.2297 233.613 75.2702 234.306 76.1824C234.802 76.8919 236.09 78.0067 237.477 79.2229C240.251 81.6554 244.016 84.8986 243.818 87.1284C243.718 88.3446 243.52 89.5608 243.223 90.8784C242.728 93.6148 242.034 96.6554 242.629 99.8986C243.917 106.689 245.205 109.02 246.79 110.338C248.276 111.655 250.257 112.365 250.257 112.365L250.456 111.858C250.456 111.858 248.573 111.149 247.087 109.932C245.601 108.615 244.412 106.385 243.124 99.7973C242.53 96.554 243.124 93.6148 243.718 90.9797C244.016 89.5608 244.214 88.3446 244.313 87.1284C244.412 85.4054 242.827 83.4797 240.845 81.554L241.043 81.4527C241.043 81.4527 238.963 77.7027 237.972 73.75C237.477 71.8243 237.477 69.3919 237.477 66.9594C237.477 64.223 237.477 61.6892 236.783 59.9662C235.495 56.7229 233.712 55.8108 230.442 54.4932C227.47 53.277 221.129 47.2973 220.139 45.6757C219.643 44.8648 219.841 44.4594 220.04 43.9527C220.238 43.5473 220.436 43.0405 220.337 42.2297C219.544 40.5067 215.977 32.6013 213.005 32.1959Z" fill="url(#paint7_linear_6249_32388)"/>
<path d="M225.093 94.8311C225.984 95.7432 227.569 95.5405 229.254 95.4392C230.938 95.2365 232.82 95.1351 234.406 95.8446C237.477 97.3649 239.855 104.155 239.855 104.257L240.35 104.054C240.251 103.75 237.873 96.9595 234.604 95.3378C232.919 94.527 230.938 94.7297 229.155 94.8311C227.569 95.0338 226.083 95.1351 225.39 94.3243C224.597 93.5135 224.003 90.6757 223.408 88.1419C222.715 85.2027 222.219 82.7703 221.328 82.0608C220.535 81.4527 219.842 81.3513 219.148 81.25C218.454 81.1486 217.86 81.0473 217.464 80.4392C217.266 80.1351 217.365 78.4122 217.464 76.5878C217.761 71.5203 218.157 63.7162 214.491 60.9797C211.519 58.75 209.34 59.5608 207.457 60.1689C205.872 60.6757 204.584 61.1824 202.999 60.1689C201.711 59.4594 201.314 58.0405 200.819 56.5203C199.927 53.5811 198.738 49.8311 191.209 47.5C189.425 46.9932 187.642 47.2973 185.958 47.5C183.679 47.9054 181.499 48.2094 179.419 46.7905L179.122 47.1959C181.301 48.7162 183.679 48.3108 186.057 48.0067C187.84 47.7027 189.524 47.5 191.11 48.0067C198.342 50.3378 199.432 53.8851 200.324 56.723C200.819 58.3446 201.314 59.7635 202.701 60.6757C204.485 61.7905 206.07 61.1824 207.655 60.6757C209.538 60.0676 211.519 59.3581 214.293 61.3851C217.761 64.0203 217.365 71.8243 217.067 76.4865C216.968 78.3108 216.869 79.4257 216.968 80.1351C216.275 79.8311 215.284 79.6284 214.095 79.4257C212.114 79.1216 209.934 78.7162 208.646 77.5C208.052 76.8919 207.754 76.0811 207.457 74.9662C206.764 72.3311 205.674 68.7838 198.54 65.9459C196.063 65.4392 194.28 66.0473 193.289 66.6554C192.794 66.9594 192.596 67.4662 192.398 67.973C192.1 68.5811 191.803 69.2905 191.011 69.7973C189.624 70.7094 182.094 71.1149 180.608 70.8108C180.509 70.8108 180.41 70.7094 180.41 70.7094C180.41 70.6081 180.509 70.304 180.608 70.1013C180.905 69.2905 181.4 67.973 180.211 66.25L179.815 66.554C180.806 67.973 180.41 69.0878 180.112 69.8986C179.914 70.304 179.815 70.7094 180.013 71.0135C180.112 71.2162 180.31 71.3176 180.509 71.3176C181.896 71.6216 189.723 71.3176 191.308 70.2027C192.2 69.5946 192.497 68.7838 192.794 68.1757C192.992 67.6689 193.19 67.2635 193.487 67.0608C194.379 66.554 196.063 65.9459 198.342 66.4527C205.277 69.1892 206.268 72.6351 206.962 75.0676C207.259 76.1824 207.556 77.1959 208.25 77.804C209.637 79.0203 211.915 79.4257 213.897 79.8311C215.284 80.0338 216.473 80.3378 217.067 80.7432C217.563 81.4527 218.256 81.554 219.049 81.7567C219.643 81.8581 220.337 81.9594 220.931 82.4662C221.625 82.973 222.219 85.7094 222.715 88.2432C223.606 91.2838 224.201 93.9189 225.093 94.8311Z" fill="url(#paint8_linear_6249_32388)"/>
<path d="M173.871 94.0203C174.564 93.3108 175.059 92.804 176.645 93.1081C177.734 93.3108 179.221 93.9189 180.806 94.527C183.58 95.6419 186.552 96.7567 187.84 96.25C188.534 96.0473 188.93 95.5405 189.425 95.2365C190.317 94.4257 191.308 93.5135 194.28 94.0203C196.658 94.4257 198.441 95.6419 199.927 96.6554C201.215 97.5675 202.305 98.277 203.395 98.1757C204.188 98.0743 204.782 97.6689 205.376 97.1621C206.367 96.3513 207.457 95.5405 209.934 96.6554C211.915 97.4662 212.411 98.6824 212.807 99.6959C213.302 100.709 213.6 101.622 215.581 101.318C217.662 101.014 218.95 99.6959 220.139 98.3784C221.03 97.4662 222.021 96.554 223.21 95.8446L223.012 95.3378C221.724 95.9459 220.733 96.9594 219.742 97.8716C218.454 99.0878 217.265 100.304 215.383 100.608C213.897 100.811 213.6 100.304 213.203 99.2905C212.807 98.277 212.213 96.9594 210.033 96.0473C207.16 94.8311 205.971 95.8446 204.881 96.6554C204.287 97.1621 203.89 97.4662 203.197 97.5676C202.305 97.6689 201.314 96.9594 200.125 96.1486C198.639 95.1351 196.757 93.8176 194.28 93.4121C191.11 92.9054 190.02 93.9189 189.029 94.7297C188.633 95.1351 188.137 95.4392 187.642 95.6419C186.453 96.1486 183.58 94.9324 181.004 93.9189C179.419 93.3108 177.933 92.7027 176.843 92.5C175.059 92.0946 174.366 92.804 173.573 93.5135C173.078 94.0203 172.583 94.527 171.592 94.7297L171.691 95.2365C172.682 95.1351 173.276 94.6284 173.871 94.0203Z" fill="url(#paint9_linear_6249_32388)"/>
<path d="M244.016 91.3852C243.124 93.2095 242.827 97.669 243.322 100.405C243.818 103.041 244.808 107.703 246.79 109.527C247.88 110.541 250.059 111.554 250.158 111.554L250.356 111.047C250.356 111.047 248.177 110.135 247.186 109.122C245.304 107.399 244.313 102.331 243.917 100.203C243.421 97.2635 243.917 93.0068 244.61 91.4865C245.403 89.8649 246.592 89.2568 247.186 89.1554C248.969 88.9527 250.654 91.9933 250.654 91.9933L251.149 91.7906C251.05 91.6892 249.366 88.3446 247.186 88.6487C246.096 88.9527 244.808 89.6622 244.016 91.3852Z" fill="url(#paint10_linear_6249_32388)"/>
<path d="M212.609 90.0676C213.005 89.1554 213.302 88.2433 214.194 87.6351C215.185 86.9257 217.662 85.5068 219.94 87.4324C220.832 88.2433 221.526 90.2703 222.219 92.0946C222.913 94.0203 223.507 95.7433 224.399 96.3514C225.29 96.9595 226.876 96.8581 228.659 96.7568C230.244 96.6554 231.928 96.5541 233.216 96.9595C235.891 97.7703 239.062 104.561 239.161 104.662L239.656 104.459C239.557 104.155 236.387 97.3649 233.415 96.4527C232.028 96.0473 230.244 96.1487 228.659 96.25C226.975 96.3514 225.489 96.4527 224.696 95.946C224.002 95.4392 223.309 93.7162 222.714 91.9933C222.021 89.9662 221.327 87.9392 220.238 87.1284C218.454 85.6081 216.175 85.7095 213.897 87.3311C213.005 88.0406 212.51 89.0541 212.212 89.9662C211.816 90.8784 211.519 91.7906 210.627 92.196C208.943 93.0068 207.061 92.3987 206.367 91.2838C206.169 90.9797 206.07 90.6757 205.872 90.3716C205.277 89.4595 204.782 88.446 203.494 87.2297C201.81 85.6081 194.973 82.6689 191.605 82.1622C189.623 81.8581 188.831 82.3649 187.84 82.973C187.146 83.4797 186.354 83.8851 184.967 83.9865V84.4933C186.453 84.3919 187.246 83.7838 188.038 83.3784C188.93 82.8716 189.623 82.3649 191.407 82.6689C194.676 83.1757 201.314 86.1149 202.998 87.6351C204.187 88.75 204.782 89.7635 205.277 90.6757C205.475 90.9797 205.574 91.2838 205.773 91.5878C206.565 92.8041 208.745 93.6149 210.627 92.7027C211.816 92.0946 212.212 91.0811 212.609 90.0676Z" fill="url(#paint11_linear_6249_32388)"/>
</g>
<g opacity="0.5">
<path d="M242.034 112.669C240.647 112.872 239.557 114.493 238.467 116.115C237.576 117.331 236.585 119.257 235.693 120.98C234.901 122.5 234.207 123.716 233.811 124.223L233.415 124.628C232.127 125.439 229.154 126.047 226.777 125.845C225.39 125.743 224.399 125.845 223.507 125.946C222.615 126.047 221.922 126.149 221.327 125.946C220.832 125.743 220.832 125.439 220.733 124.831C220.634 124.324 220.535 123.615 219.742 123.311C219.049 123.007 218.256 123.108 217.464 123.311C216.671 123.514 215.977 123.514 215.581 123.21C215.185 122.905 214.987 122.5 214.888 122.095C214.689 121.588 214.491 121.081 213.897 120.676C213.302 120.27 212.51 120.777 211.618 121.487C210.231 122.5 208.349 123.818 205.971 123.21C203.395 122.601 203.494 121.791 203.692 120.676C203.791 120.169 203.89 119.46 203.593 118.851C203.197 117.737 200.918 116.824 198.54 115.811C196.757 115 194.874 114.189 194.28 113.48C193.685 112.669 193.586 111.96 193.487 111.351C193.388 110.642 193.289 110.135 192.695 109.628C192.001 109.02 191.01 109.426 190.119 109.628C189.623 109.831 189.029 109.932 188.831 109.831L188.633 110.237C189.029 110.439 189.623 110.237 190.317 110.034C191.01 109.831 191.902 109.527 192.397 109.932C192.893 110.338 192.893 110.743 193.091 111.351C193.19 111.96 193.388 112.77 193.983 113.682C194.577 114.493 196.46 115.304 198.441 116.115C200.522 117.027 202.899 117.939 203.197 118.851C203.395 119.358 203.296 119.865 203.197 120.473C202.999 121.689 202.899 122.804 205.872 123.615C208.448 124.223 210.429 122.804 211.915 121.791C212.708 121.284 213.302 120.777 213.699 120.98C214.194 121.284 214.392 121.689 214.59 122.196C214.788 122.601 214.888 123.108 215.482 123.514C216.076 124.02 216.968 123.818 217.761 123.716C218.454 123.615 219.148 123.514 219.841 123.716C220.436 123.919 220.535 124.324 220.535 124.932C220.634 125.439 220.733 126.047 221.427 126.351C222.12 126.655 222.913 126.554 223.804 126.453C224.597 126.351 225.588 126.25 226.975 126.351C228.461 126.453 230.244 126.25 231.829 125.845C230.046 126.96 227.272 128.48 224.498 128.682C222.219 128.885 221.427 128.48 220.139 127.77C218.95 127.162 217.563 126.453 214.392 125.845C209.835 125.034 205.574 127.061 203.296 128.48C202.899 128.378 199.828 127.365 198.936 124.932L198.54 123.716C197.748 121.385 197.054 119.358 196.46 118.243C195.766 116.824 193.388 115.71 192.001 115.507C191.109 115.405 190.614 115.811 190.218 116.216C189.822 116.52 189.425 116.926 188.732 116.824C188.137 116.824 187.543 115.912 186.948 114.899C186.057 113.48 184.868 111.655 182.985 110.946C180.707 110.135 179.617 110.946 178.725 111.655C178.23 112.061 177.833 112.365 177.338 112.568L177.437 113.074C178.131 112.872 178.626 112.466 179.022 112.162C179.914 111.453 180.707 110.743 182.787 111.453C184.571 112.162 185.66 113.784 186.552 115.203C187.345 116.419 187.939 117.331 188.732 117.331C189.623 117.432 190.119 116.926 190.614 116.622C191.01 116.216 191.407 115.912 192.001 116.115C193.487 116.318 195.568 117.534 196.162 118.547C196.658 119.561 197.45 121.689 198.243 123.919L198.639 125.135C199.432 127.365 201.81 128.48 202.899 128.784C202.206 129.189 201.81 129.493 201.81 129.595C201.81 129.595 197.549 134.358 194.379 136.487C191.11 138.615 188.434 138.615 187.543 137.399C187.047 136.791 186.948 135.574 186.948 134.155C186.948 132.838 186.849 131.419 186.354 130.101C185.66 128.074 182.886 126.655 181.995 126.351C180.806 125.743 179.121 125.237 178.329 125.541C176.942 126.047 176.446 128.277 176.446 128.378L176.942 128.48C176.942 128.48 177.338 126.453 178.527 126.047C179.022 125.845 180.211 126.149 181.796 126.858C183.382 127.568 185.363 128.987 185.859 130.405C186.354 131.622 186.354 133.041 186.453 134.358C186.552 135.878 186.552 137.095 187.146 137.905C188.236 139.122 191.01 139.426 194.676 137.095C197.847 135.068 201.909 130.507 202.206 130.203C202.503 130 208.15 125.439 214.491 126.554C217.662 127.061 219.049 127.872 220.139 128.378C220.436 128.48 220.634 128.682 220.931 128.784C219.346 129.392 218.454 129.291 217.761 129.291C216.671 129.189 216.176 129.291 215.284 130.71C214.095 132.635 213.897 136.284 213.798 138.818C213.699 139.831 213.699 140.642 213.6 141.047C213.203 142.568 212.609 143.378 211.222 143.784C210.132 144.088 209.736 143.784 209.24 143.378C209.042 143.277 208.943 143.074 208.745 142.973C208.448 142.77 208.25 142.365 208.051 141.959C207.556 141.047 206.763 139.73 204.98 139.831C203.395 139.932 202.899 140.946 202.305 141.959C201.909 142.669 201.611 143.378 200.819 143.987C199.036 145.405 193.785 147.027 190.911 147.331C187.741 147.635 181.796 147.027 181.4 146.52C181.301 146.318 181.697 145.405 181.995 144.797C182.589 143.581 183.283 141.96 183.084 140.845C183.084 140.642 182.985 140.541 182.985 140.338C182.688 138.919 182.49 138.818 181.202 138.919C180.211 139.02 180.112 139.73 180.013 140.338C179.914 140.743 179.914 141.149 179.617 141.453C178.923 141.959 176.545 141.757 175.654 141.655L175.555 142.162C175.951 142.162 179.022 142.568 179.914 141.858C180.409 141.453 180.409 140.946 180.508 140.439C180.608 139.831 180.707 139.527 181.202 139.426H182.094C182.193 139.527 182.292 139.831 182.391 140.439C182.391 140.642 182.49 140.743 182.49 140.946C182.688 141.858 181.995 143.378 181.499 144.493C181.004 145.608 180.707 146.216 180.806 146.622C181.202 147.737 188.434 148.041 190.812 147.838C193.785 147.534 199.036 145.912 201.017 144.392C201.81 143.784 202.206 142.973 202.602 142.264C203.098 141.25 203.494 140.439 204.881 140.338C206.367 140.237 206.962 141.25 207.457 142.162C207.754 142.669 207.952 143.074 208.349 143.277C208.547 143.378 208.745 143.581 208.844 143.682C209.438 144.189 209.934 144.595 211.321 144.189C212.807 143.682 213.6 142.77 214.095 141.047C214.194 140.743 214.194 140.237 214.293 139.628C214.59 140.034 214.59 140.439 214.491 140.845C214.491 141.351 214.491 141.858 214.788 142.365C215.383 143.176 216.374 142.669 217.067 142.365C217.364 142.162 217.761 142.061 217.86 142.061C218.058 142.061 218.157 142.162 218.256 142.264C218.454 142.568 218.553 143.074 218.454 143.784C218.355 144.595 217.166 145.709 216.473 146.318C216.176 146.52 215.977 146.824 215.878 146.926C215.68 147.23 215.68 147.635 215.68 147.939C215.68 148.345 215.779 148.75 215.482 149.257C215.284 149.46 215.086 149.662 214.788 149.662C214.194 149.764 213.501 149.46 213.401 149.257C213.302 149.155 213.302 148.953 213.302 148.75C213.302 148.446 213.302 148.041 213.104 147.635C212.708 147.128 211.915 146.926 210.825 147.027C210.231 147.128 210.132 147.635 210.132 148.142C210.132 148.649 210.132 149.257 209.339 149.561C208.844 149.764 208.349 149.459 207.655 149.054C206.664 148.446 205.376 147.737 203.593 148.75C201.413 149.966 201.711 151.284 201.81 152.196C201.909 152.5 201.909 152.804 201.81 153.007C201.711 153.21 201.611 153.311 201.512 153.311C201.314 153.311 201.116 153.21 201.017 153.21L200.72 153.615C200.72 153.615 201.215 153.919 201.611 153.818C201.909 153.716 202.107 153.514 202.206 153.108C202.305 152.804 202.305 152.399 202.206 151.993C202.008 151.081 201.81 150.068 203.692 149.054C205.277 148.243 206.268 148.75 207.259 149.358C207.952 149.764 208.646 150.169 209.339 149.865C210.33 149.459 210.429 148.649 210.429 148.041C210.429 147.534 210.528 147.432 210.627 147.432C211.519 147.331 212.213 147.534 212.51 147.939C212.708 148.142 212.609 148.446 212.609 148.649C212.609 148.953 212.609 149.358 212.807 149.561C213.104 149.764 213.897 150.169 214.59 150.068C215.086 150.068 215.482 149.764 215.68 149.46C216.076 148.851 216.076 148.243 215.977 147.838C215.977 147.534 215.977 147.331 216.076 147.23C216.176 147.128 216.374 146.926 216.671 146.723C217.464 146.014 218.751 144.797 218.851 143.885C218.95 143.074 218.851 142.365 218.553 141.959C218.355 141.757 218.058 141.655 217.761 141.554C217.464 141.554 217.067 141.757 216.671 141.959C215.878 142.365 215.383 142.568 215.086 142.162C214.788 141.757 214.888 141.453 214.888 140.946C214.888 140.338 214.888 139.628 214.194 139.02V138.818C214.293 136.385 214.59 132.737 215.581 131.014C216.374 129.797 216.77 129.797 217.662 129.797C218.454 129.797 219.643 129.899 221.526 129.088C222.318 129.392 223.21 129.493 224.696 129.392C229.253 129.088 233.811 125.439 234.108 125.237C234.306 125.034 234.504 124.932 234.604 124.73C235 124.223 235.693 122.905 236.585 121.385C237.477 119.764 238.567 117.838 239.359 116.622C240.35 115.101 241.44 113.581 242.53 113.378C243.025 113.277 243.619 113.48 244.214 113.987C246.493 115.71 254.617 117.939 254.815 118.041L254.914 117.534C254.419 117.432 246.691 115.203 244.511 113.581C243.322 112.77 242.728 112.568 242.034 112.669Z" fill="url(#paint12_linear_6249_32388)"/>
<path d="M244.115 116.216C241.638 116.926 239.062 120.574 238.269 121.79C236.684 124.324 236.387 130.304 236.981 133.04C237.179 134.257 237.675 135.169 238.071 135.98C238.467 136.892 238.864 137.601 238.864 138.615C238.864 140.642 239.161 141.757 239.854 142.77C240.053 142.973 240.152 142.973 240.35 143.074C240.746 143.074 241.142 142.669 241.539 142.263C241.836 141.959 242.232 141.453 242.43 141.554C242.529 141.554 242.629 141.757 242.728 141.858C243.421 143.176 242.43 144.189 242.43 144.29L242.827 144.696C242.827 144.696 244.115 143.378 243.223 141.655C243.025 141.351 242.827 141.149 242.529 141.149C242.034 141.047 241.638 141.554 241.142 142.061C240.944 142.263 240.548 142.77 240.35 142.669L240.251 142.568C239.557 141.655 239.359 140.642 239.359 138.716C239.359 137.601 238.963 136.79 238.566 135.878C238.17 135.169 237.774 134.257 237.576 133.04C237.08 130.507 237.378 124.628 238.765 122.196C239.656 120.777 242.133 117.534 244.313 116.824C244.907 116.622 245.997 116.926 246.79 117.331C251.347 119.257 254.518 119.966 254.518 119.966L254.617 119.459C254.617 119.459 251.446 118.75 246.889 116.824C246.393 116.52 245.006 115.912 244.115 116.216Z" fill="url(#paint13_linear_6249_32388)"/>
<path d="M243.719 115C242.827 115.101 241.836 116.115 241.44 116.419L241.341 116.52C239.161 118.345 237.081 121.081 236.486 122.905C236.288 123.412 236.189 124.02 236.09 124.73C234.703 127.568 234.207 130.405 233.712 133.142C233.415 134.561 233.117 136.182 232.721 137.601C231.532 141.655 224.993 148.446 224.696 148.75C224.399 148.953 218.752 153.514 216.77 154.02C215.878 154.223 211.618 155.237 210.429 155.642C209.439 156.047 207.457 161.926 207.16 163.041C207.061 165.878 206.763 170.034 206.565 170.338C206.268 170.845 204.683 171.351 203.989 171.25C203.791 171.25 203.494 170.946 203.296 170.541C202.999 170.034 202.503 169.426 201.711 169.324C201.116 169.223 199.432 169.628 196.658 170.338C193.983 171.047 190.416 171.858 189.822 171.655C189.227 171.453 189.128 171.047 189.029 170.743C188.93 170.338 188.831 169.932 188.236 169.831C188.038 169.831 187.84 169.831 187.84 169.932C187.543 170.135 187.543 170.743 187.642 171.554C187.642 172.365 187.741 173.378 187.345 173.784L187.741 174.088C188.236 173.48 188.137 172.466 188.137 171.453C188.137 170.946 188.038 170.338 188.137 170.237C188.335 170.237 188.435 170.439 188.534 170.743C188.633 171.149 188.831 171.757 189.623 172.061C190.317 172.365 192.893 171.757 196.757 170.743C198.937 170.237 201.215 169.628 201.711 169.73C202.305 169.831 202.602 170.338 202.9 170.743C203.197 171.149 203.494 171.554 203.89 171.655C204.683 171.757 206.466 171.149 206.863 170.541C207.259 170.034 207.457 164.662 207.556 162.939C208.646 159.696 210.033 156.149 210.528 155.845C211.42 155.439 214.293 154.73 216.77 154.223C218.851 153.716 224.696 149.054 224.894 148.851C225.191 148.547 231.83 141.757 233.117 137.5C233.514 135.98 233.811 134.46 234.108 132.939C234.505 130.811 234.901 128.581 235.793 126.25C235.693 127.466 235.594 128.885 235.495 130.203C235.396 131.318 235.297 132.331 235.297 133.142C234.604 139.426 233.712 142.872 232.127 145.203C230.343 147.737 223.804 155.439 223.012 156.047C222.616 156.351 222.12 156.554 221.526 156.655C221.03 156.757 220.535 156.96 219.94 157.162C217.86 158.074 215.581 161.824 213.897 164.46C213.005 165.878 212.312 166.993 211.915 167.297C211.321 167.703 210.925 167.601 210.429 167.297C210.033 167.095 209.637 166.993 209.141 166.993V167.5C209.637 167.5 209.934 167.703 210.231 167.804C210.826 168.007 211.321 168.311 212.213 167.703C212.708 167.399 213.402 166.284 214.293 164.764C215.878 162.128 218.157 158.581 220.139 157.669C220.634 157.466 221.129 157.264 221.625 157.162C222.318 156.96 222.814 156.858 223.309 156.453C224.102 155.845 230.74 148.041 232.523 145.507C234.108 143.176 235.099 139.628 235.793 133.243C235.892 132.432 235.991 131.419 235.991 130.304C236.189 127.466 236.387 124.324 236.981 122.804C237.576 121.081 239.557 118.446 241.638 116.622C241.638 116.622 241.737 116.622 241.737 116.52C242.034 116.216 243.025 115.304 243.719 115.203C244.412 115.101 245.799 115.608 247.682 116.318C249.465 117.027 251.744 117.838 254.419 118.547L254.518 118.041C251.843 117.331 249.564 116.52 247.781 115.811C245.898 115.405 244.61 114.899 243.719 115Z" fill="url(#paint14_linear_6249_32388)"/>
<path d="M174.663 168.007C175.059 168.007 175.654 168.514 176.248 168.919C177.437 169.73 178.824 170.642 179.914 170.135C180.509 169.831 181.004 169.02 181.598 168.007C182.688 166.284 184.075 164.155 186.651 163.243C190.713 161.824 198.045 158.277 198.045 158.277C198.144 158.277 203.791 153.919 209.439 155.439L209.538 154.932C203.89 153.412 198.243 157.568 197.748 157.872C197.649 157.872 197.55 157.973 197.252 158.074C197.153 157.466 196.757 156.149 195.568 155.237C194.676 154.527 193.587 154.324 192.299 154.426C190.02 154.73 187.939 155.845 186.057 156.757C184.472 157.568 183.085 158.378 182.094 158.277C181.202 158.176 181.103 157.669 180.905 157.061C180.707 156.25 180.41 155.237 178.725 155.034C176.942 154.831 176.149 156.149 175.555 157.162C175.059 157.973 174.663 158.48 174.168 158.48C172.583 158.378 170.304 155.946 170.304 155.946L169.908 156.25C170.007 156.351 172.285 158.784 174.069 158.885C174.96 158.987 175.456 158.176 175.951 157.365C176.546 156.351 177.239 155.338 178.725 155.541C180.112 155.743 180.31 156.351 180.509 157.162C180.707 157.872 180.905 158.682 182.094 158.784C183.283 158.885 184.67 158.074 186.354 157.264C188.137 156.351 190.218 155.237 192.398 154.932C193.587 154.73 194.577 155.034 195.37 155.642C196.46 156.453 196.757 157.872 196.856 158.277C194.676 159.291 189.624 161.622 186.552 162.737C183.778 163.649 182.292 165.98 181.202 167.703C180.608 168.615 180.112 169.324 179.617 169.628C178.824 170.135 177.536 169.223 176.447 168.514C175.753 168.007 175.059 167.601 174.663 167.5C173.97 167.399 172.88 168.108 171.691 168.919C170.601 169.628 169.313 170.541 168.521 170.642L168.62 171.149C169.61 170.946 170.898 170.135 172.087 169.324C173.078 168.615 174.168 167.905 174.663 168.007Z" fill="url(#paint15_linear_6249_32388)"/>
<path d="M245.799 117.939C244.412 118.547 243.322 120.27 242.53 121.588C242.232 122.095 241.935 122.5 241.737 122.703C241.539 122.905 241.341 122.905 241.143 123.007C240.548 123.108 240.053 123.311 239.557 124.628C238.765 126.554 238.368 131.115 239.359 132.635C239.756 133.243 240.251 133.345 240.548 133.345C241.539 133.243 242.53 131.926 242.926 130.811C243.223 130 244.016 129.899 244.808 129.899C245.502 129.899 246.294 129.797 246.691 129.189C246.889 128.784 247.186 128.682 247.384 128.682C247.682 128.784 247.979 129.189 248.078 130.203C248.276 131.622 247.682 133.953 247.682 133.953L248.177 134.054C248.177 133.953 248.771 131.723 248.573 130.101C248.474 128.986 248.078 128.277 247.483 128.074C247.087 127.973 246.592 128.176 246.195 128.784C245.997 129.189 245.304 129.189 244.709 129.291C243.818 129.392 242.728 129.493 242.331 130.608C241.935 131.824 241.043 132.736 240.35 132.838C240.053 132.838 239.855 132.736 239.656 132.432C238.864 131.115 239.161 126.858 239.954 124.831C240.449 123.716 240.746 123.615 241.143 123.514C241.44 123.514 241.737 123.412 242.034 123.108C242.232 122.905 242.53 122.399 242.926 121.892C243.619 120.676 244.808 118.953 245.997 118.446C246.889 118.041 247.781 118.446 249.069 119.054C250.257 119.561 251.744 120.27 253.824 120.574L253.923 120.068C251.942 119.764 250.456 119.155 249.267 118.547C247.88 117.939 246.79 117.534 245.799 117.939Z" fill="url(#paint16_linear_6249_32388)"/>
</g>
<path d="M128.197 129.899C125.423 129.899 123.243 126.96 121.658 121.284C120.271 116.115 119.479 108.919 119.479 100.608C119.479 92.2974 120.271 85.2028 121.658 79.9325C123.243 74.3582 125.423 71.3176 128.197 71.3176C130.971 71.3176 134.043 74.5609 136.42 79.9325C138.897 85.7095 140.284 93.0068 140.284 100.608C140.284 108.21 138.897 115.507 136.42 121.284C134.043 126.655 130.971 129.899 128.197 129.899ZM128.197 71.5203C122.946 71.5203 119.578 82.973 119.578 100.71C119.578 118.446 122.946 129.899 128.197 129.899C133.745 129.899 140.086 117.128 140.086 100.71C140.086 84.2906 133.745 71.5203 128.197 71.5203Z" fill="#383F51"/>
<path d="M128.296 128.48C125.918 128.48 124.036 125.642 122.649 120.372C121.46 115.405 120.766 108.716 120.766 100.811C120.766 92.9054 121.46 86.2162 122.649 81.25C123.937 75.8783 125.918 73.1418 128.296 73.1418C130.674 73.1418 133.349 76.081 135.33 81.25C137.51 86.7229 138.699 93.6148 138.699 100.811C138.699 108.007 137.51 114.899 135.33 120.372C133.25 125.54 130.674 128.48 128.296 128.48ZM128.296 73.2432C123.837 73.2432 120.964 84.0878 120.964 100.811C120.964 117.534 123.837 128.378 128.296 128.378C133.051 128.378 138.6 116.318 138.6 100.811C138.501 85.304 132.952 73.2432 128.296 73.2432Z" fill="#383F51"/>
<path d="M128.196 126.757C126.314 126.757 124.729 124.122 123.738 119.155C122.747 114.493 122.252 108.209 122.252 100.912C122.252 93.6148 122.747 87.2297 123.738 82.6689C124.828 77.7026 126.314 75.0675 128.196 75.0675C130.178 75.0675 132.358 77.9053 134.042 82.6689C135.924 87.8378 136.915 94.3243 136.915 100.912C136.915 107.5 135.924 113.986 134.042 119.155C132.259 123.919 130.079 126.757 128.196 126.757ZM128.196 75.1689C124.63 75.1689 122.351 85.304 122.351 100.912C122.351 116.52 124.63 126.655 128.196 126.655C130.079 126.655 132.259 123.818 133.943 119.155C135.825 113.986 136.816 107.5 136.816 100.912C136.816 94.3243 135.825 87.8378 133.943 82.6689C132.159 77.9053 130.079 75.1689 128.196 75.1689Z" fill="#383F51"/>
<path d="M128.197 124.628C124.729 124.628 123.54 111.858 123.54 100.912C123.54 89.9662 124.729 77.1959 128.197 77.1959C131.268 77.1959 135.033 87.7365 135.033 100.912C135.033 114.088 131.268 124.628 128.197 124.628ZM128.197 77.2973C125.422 77.2973 123.639 86.6216 123.639 100.912C123.639 115.203 125.422 124.527 128.197 124.527C129.683 124.527 131.367 121.993 132.655 117.635C134.141 112.872 134.934 106.993 134.934 100.912C134.934 94.8311 134.141 88.9527 132.655 84.1892C131.367 79.8311 129.683 77.2973 128.197 77.2973Z" fill="#383F51"/>
<path d="M128.494 122.399C126.017 122.399 125.125 110.946 125.125 101.014C125.125 91.0811 126.017 79.6284 128.494 79.6284C130.773 79.6284 133.448 89.1554 133.448 101.014C133.448 112.872 130.773 122.399 128.494 122.399ZM128.494 79.8311C126.513 79.8311 125.225 88.1419 125.225 101.115C125.225 114.088 126.513 122.399 128.494 122.399C130.674 122.399 133.349 112.568 133.349 101.115C133.349 89.6622 130.674 79.8311 128.494 79.8311Z" fill="#383F51"/>
<path d="M259.768 100.203V98.4797L119.082 85.9121L118.883 88.2432L210.132 96.4527L118.289 92.3986L118.19 94.6283L217.463 98.9864H118.091V101.318H218.157L118.487 105.574L118.586 107.905L210.429 103.851L118.685 112.061L118.883 114.392L259.768 101.723C259.768 101.723 259.768 100.709 259.768 100.203Z" fill="url(#paint17_linear_6249_32388)"/>
<path d="M128.296 132.534C124.729 132.534 121.856 129.189 119.973 122.905C118.19 117.23 117.298 109.426 117.298 100.507C117.298 91.5878 118.19 83.7838 119.973 78.1081C121.955 71.8243 124.828 68.4797 128.296 68.4797C131.961 68.4797 135.726 71.9257 138.6 78.0068C141.671 84.2905 143.355 92.2973 143.355 100.507C143.355 108.716 141.671 116.723 138.6 123.007C135.627 129.088 131.961 132.534 128.296 132.534ZM128.296 69.4932C124.531 69.4932 122.252 74.2568 120.964 78.3108C119.28 83.7838 118.388 91.6892 118.388 100.405C118.388 109.122 119.28 117.027 120.964 122.5C122.153 126.554 124.432 131.318 128.296 131.318C131.466 131.318 134.934 127.973 137.609 122.399C140.581 116.318 142.166 108.412 142.166 100.405C142.166 92.3987 140.581 84.4932 137.609 78.4122C134.934 72.8378 131.466 69.4932 128.296 69.4932Z" fill="#383F51"/>
<defs>
<radialGradient id="paint0_radial_6249_32388" cx="0" cy="0" r="1" gradientUnits="userSpaceOnUse" gradientTransform="translate(173.601 82.7458) rotate(-90) scale(82.2557 80.4085)">
<stop offset="0.27" stop-color="#212F3C" stop-opacity="0"/>
<stop offset="1" stop-color="#212F3C"/>
</radialGradient>
<radialGradient id="paint1_radial_6249_32388" cx="0" cy="0" r="1" gradientUnits="userSpaceOnUse" gradientTransform="translate(133.041 92.7837) rotate(-90) scale(54.977 53.7424)">
<stop offset="0.27" stop-color="#212F3C" stop-opacity="0"/>
<stop offset="1" stop-color="#212F3C"/>
</radialGradient>
<linearGradient id="paint2_linear_6249_32388" x1="-11.803" y1="86.42" x2="151.084" y2="87.7469" gradientUnits="userSpaceOnUse">
<stop offset="0.05" stop-color="#8DBCAD"/>
<stop offset="0.39" stop-color="#5EA6AE"/>
<stop offset="0.59" stop-color="#5CA7AF"/>
<stop offset="0.66" stop-color="#5796AC"/>
<stop offset="0.81" stop-color="#507DA7"/>
<stop offset="0.88" stop-color="#4E74A6"/>
</linearGradient>
<linearGradient id="paint3_linear_6249_32388" x1="-11.8035" y1="93.1918" x2="151.084" y2="94.5187" gradientUnits="userSpaceOnUse">
<stop offset="0.05" stop-color="#8DBCAD"/>
<stop offset="0.39" stop-color="#5EA6AE"/>
<stop offset="0.59" stop-color="#5CA7AF"/>
<stop offset="0.66" stop-color="#5796AC"/>
<stop offset="0.81" stop-color="#507DA7"/>
<stop offset="0.88" stop-color="#4E74A6"/>
</linearGradient>
<linearGradient id="paint4_linear_6249_32388" x1="-11.8035" y1="99.8612" x2="151.084" y2="101.188" gradientUnits="userSpaceOnUse">
<stop offset="0.05" stop-color="#8DBCAD"/>
<stop offset="0.39" stop-color="#5EA6AE"/>
<stop offset="0.59" stop-color="#5CA7AF"/>
<stop offset="0.66" stop-color="#5796AC"/>
<stop offset="0.81" stop-color="#507DA7"/>
<stop offset="0.88" stop-color="#4E74A6"/>
</linearGradient>
<linearGradient id="paint5_linear_6249_32388" x1="-11.8035" y1="79.9557" x2="151.084" y2="81.2825" gradientUnits="userSpaceOnUse">
<stop offset="0.05" stop-color="#8DBCAD"/>
<stop offset="0.39" stop-color="#5EA6AE"/>
<stop offset="0.59" stop-color="#5CA7AF"/>
<stop offset="0.66" stop-color="#5796AC"/>
<stop offset="0.81" stop-color="#507DA7"/>
<stop offset="0.88" stop-color="#4E74A6"/>
</linearGradient>
<linearGradient id="paint6_linear_6249_32388" x1="-11.8035" y1="106.428" x2="151.084" y2="107.755" gradientUnits="userSpaceOnUse">
<stop offset="0.05" stop-color="#8DBCAD"/>
<stop offset="0.39" stop-color="#5EA6AE"/>
<stop offset="0.59" stop-color="#5CA7AF"/>
<stop offset="0.66" stop-color="#5796AC"/>
<stop offset="0.81" stop-color="#507DA7"/>
<stop offset="0.88" stop-color="#4E74A6"/>
</linearGradient>
<linearGradient id="paint7_linear_6249_32388" x1="110.376" y1="124.878" x2="295.181" y2="37.4502" gradientUnits="userSpaceOnUse">
<stop offset="0.05" stop-color="#8DBCAD" stop-opacity="0.6"/>
<stop offset="0.48" stop-color="#5EA6AE" stop-opacity="0.6"/>
<stop offset="0.59" stop-color="#5CA7AF" stop-opacity="0.6"/>
<stop offset="0.66" stop-color="#5796AC" stop-opacity="0.7"/>
<stop offset="0.81" stop-color="#507DA7" stop-opacity="0.89"/>
<stop offset="0.88" stop-color="#4E74A6" stop-opacity="0.98"/>
</linearGradient>
<linearGradient id="paint8_linear_6249_32388" x1="107.418" y1="118.624" x2="292.223" y2="31.1964" gradientUnits="userSpaceOnUse">
<stop offset="0.05" stop-color="#8DBCAD" stop-opacity="0.6"/>
<stop offset="0.48" stop-color="#5EA6AE" stop-opacity="0.6"/>
<stop offset="0.59" stop-color="#5CA7AF" stop-opacity="0.6"/>
<stop offset="0.66" stop-color="#5796AC" stop-opacity="0.7"/>
<stop offset="0.81" stop-color="#507DA7" stop-opacity="0.89"/>
<stop offset="0.88" stop-color="#4E74A6" stop-opacity="0.98"/>
</linearGradient>
<linearGradient id="paint9_linear_6249_32388" x1="113.013" y1="130.452" x2="297.818" y2="43.0236" gradientUnits="userSpaceOnUse">
<stop offset="0.05" stop-color="#8DBCAD" stop-opacity="0.6"/>
<stop offset="0.48" stop-color="#5EA6AE" stop-opacity="0.6"/>
<stop offset="0.59" stop-color="#5CA7AF" stop-opacity="0.6"/>
<stop offset="0.66" stop-color="#5796AC" stop-opacity="0.7"/>
<stop offset="0.81" stop-color="#507DA7" stop-opacity="0.89"/>
<stop offset="0.88" stop-color="#4E74A6" stop-opacity="0.98"/>
</linearGradient>
<linearGradient id="paint10_linear_6249_32388" x1="124.425" y1="154.576" x2="309.23" y2="67.1479" gradientUnits="userSpaceOnUse">
<stop offset="0.05" stop-color="#8DBCAD" stop-opacity="0.6"/>
<stop offset="0.48" stop-color="#5EA6AE" stop-opacity="0.6"/>
<stop offset="0.59" stop-color="#5CA7AF" stop-opacity="0.6"/>
<stop offset="0.66" stop-color="#5796AC" stop-opacity="0.7"/>
<stop offset="0.81" stop-color="#507DA7" stop-opacity="0.89"/>
<stop offset="0.88" stop-color="#4E74A6" stop-opacity="0.98"/>
</linearGradient>
<linearGradient id="paint11_linear_6249_32388" x1="115.179" y1="135.032" x2="299.984" y2="47.6036" gradientUnits="userSpaceOnUse">
<stop offset="0.05" stop-color="#8DBCAD" stop-opacity="0.6"/>
<stop offset="0.48" stop-color="#5EA6AE" stop-opacity="0.6"/>
<stop offset="0.59" stop-color="#5CA7AF" stop-opacity="0.6"/>
<stop offset="0.66" stop-color="#5796AC" stop-opacity="0.7"/>
<stop offset="0.81" stop-color="#507DA7" stop-opacity="0.89"/>
<stop offset="0.88" stop-color="#4E74A6" stop-opacity="0.98"/>
</linearGradient>
<linearGradient id="paint12_linear_6249_32388" x1="185.042" y1="73.5985" x2="248.923" y2="181.337" gradientUnits="userSpaceOnUse">
<stop offset="0.05" stop-color="#8DBCAD" stop-opacity="0.6"/>
<stop offset="0.48" stop-color="#5EA6AE" stop-opacity="0.6"/>
<stop offset="0.59" stop-color="#5CA7AF" stop-opacity="0.6"/>
<stop offset="0.66" stop-color="#5796AC" stop-opacity="0.7"/>
<stop offset="0.81" stop-color="#507DA7" stop-opacity="0.89"/>
<stop offset="0.88" stop-color="#4E74A6" stop-opacity="0.98"/>
</linearGradient>
<linearGradient id="paint13_linear_6249_32388" x1="208.739" y1="59.5476" x2="272.621" y2="167.286" gradientUnits="userSpaceOnUse">
<stop offset="0.05" stop-color="#8DBCAD" stop-opacity="0.6"/>
<stop offset="0.48" stop-color="#5EA6AE" stop-opacity="0.6"/>
<stop offset="0.59" stop-color="#5CA7AF" stop-opacity="0.6"/>
<stop offset="0.66" stop-color="#5796AC" stop-opacity="0.7"/>
<stop offset="0.81" stop-color="#507DA7" stop-opacity="0.89"/>
<stop offset="0.88" stop-color="#4E74A6" stop-opacity="0.98"/>
</linearGradient>
<linearGradient id="paint14_linear_6249_32388" x1="182.461" y1="75.1289" x2="246.343" y2="182.867" gradientUnits="userSpaceOnUse">
<stop offset="0.05" stop-color="#8DBCAD" stop-opacity="0.6"/>
<stop offset="0.48" stop-color="#5EA6AE" stop-opacity="0.6"/>
<stop offset="0.59" stop-color="#5CA7AF" stop-opacity="0.6"/>
<stop offset="0.66" stop-color="#5796AC" stop-opacity="0.7"/>
<stop offset="0.81" stop-color="#507DA7" stop-opacity="0.89"/>
<stop offset="0.88" stop-color="#4E74A6" stop-opacity="0.98"/>
</linearGradient>
<linearGradient id="paint15_linear_6249_32388" x1="150.969" y1="93.8014" x2="214.851" y2="201.54" gradientUnits="userSpaceOnUse">
<stop offset="0.05" stop-color="#8DBCAD" stop-opacity="0.6"/>
<stop offset="0.48" stop-color="#5EA6AE" stop-opacity="0.6"/>
<stop offset="0.59" stop-color="#5CA7AF" stop-opacity="0.6"/>
<stop offset="0.66" stop-color="#5796AC" stop-opacity="0.7"/>
<stop offset="0.81" stop-color="#507DA7" stop-opacity="0.89"/>
<stop offset="0.88" stop-color="#4E74A6" stop-opacity="0.98"/>
</linearGradient>
<linearGradient id="paint16_linear_6249_32388" x1="210.342" y1="58.5975" x2="274.223" y2="166.336" gradientUnits="userSpaceOnUse">
<stop offset="0.05" stop-color="#8DBCAD" stop-opacity="0.6"/>
<stop offset="0.48" stop-color="#5EA6AE" stop-opacity="0.6"/>
<stop offset="0.59" stop-color="#5CA7AF" stop-opacity="0.6"/>
<stop offset="0.66" stop-color="#5796AC" stop-opacity="0.7"/>
<stop offset="0.81" stop-color="#507DA7" stop-opacity="0.89"/>
<stop offset="0.88" stop-color="#4E74A6" stop-opacity="0.98"/>
</linearGradient>
<linearGradient id="paint17_linear_6249_32388" x1="-49.1814" y1="98.7822" x2="258.506" y2="89.936" gradientUnits="userSpaceOnUse">
<stop offset="0.05" stop-color="#8DBCAD"/>
<stop offset="0.39" stop-color="#5EA6AE"/>
<stop offset="0.59" stop-color="#5CA7AF"/>
<stop offset="0.66" stop-color="#5796AC"/>
<stop offset="0.81" stop-color="#507DA7"/>
<stop offset="0.88" stop-color="#4E74A6"/>
</linearGradient>
</defs>
</svg>
