<svg width="320" height="200" viewBox="0 0 320 200" fill="none" xmlns="http://www.w3.org/2000/svg">
<g clip-path="url(#clip0_6248_32286)">
<path opacity="0.2" d="M151.6 24.1C146.4 24.4 137.3 26.4 131.8 28C128.5 29 126 26.4 125.1 25.8C119.3 29.5 116.7 30.2 115.6 31.4C114 33 112.7 33.7 111.2 35.4L110.5 36.4C110.3 36.6 109.9 37.1 109.8 37.3C109.6 37.7 109.1 38 108.9 38.4C108.8 38.6 108.3 39.1 108.3 39.3C108.1 39.8 107.6 39.7 107.4 40.2C106.7 42.1 105.8 42.8 104.7 44.4C104.8 45 103.7 46.3 103.5 46.8C103.2 48 101.6 50.9 101.2 52.1C98.8 58.8 97.8 69.2 97.5 69.4C97.1 70 95.8 66.6 98.2 56.5C98.3 56.2 97.7 54.2 97.5 54L96.3 53.9C96 53.9 95.2 56.9 94.9 56.9C94.8 56.9 94.9 69.4 94.9 69.4C94.8 69.4 92.7 70.3 92.6 70.3C91.5 70.5 94.2 55.5 93.1 55.8C92.9 55.8 93.3 52.1 93.1 52.2C93 52.2 91.9 51.7 91.8 51.8C91.8 52 91.3 52.7 90.5 52.3C90.3 53.6 89.3 54.2 88.2 54.8C88.2 55 87.9 55.1 87.8 55.4C87.5 56.3 87.4 57.2 86.9 58C86.9 58.4 86.5 58.8 86.3 59.2C86.2 59.4 86.2 59.5 86.1 59.7C86 60.4 85.9 61 85.6 61.6V61.8C85.6 61.9 85.8 62.1 85.8 62.2C85.9 63.6 85.8 64.8 85.3 66.1C85.3 66.2 85.2 66.3 85.2 66.4C85.2 66.9 85.1 67.3 84.9 67.8C85.1 68.8 85.1 69.7 84.7 70.6C84.7 70.9 84.9 71.4 84.8 71.7C84.8 71.8 84.7 72.3 84.7 72.4C84.7 73.3 84.5 73.7 84.5 74.6V75.4C84.5 75.8 84.6 76.2 84.7 76.6C85 78.7 85.2 80.8 85.1 82.9C85.1 83.2 85.2 83.4 85.3 83.7C85.3 83.7 85.7 84.5 85.7 84.6C86.1 84.9 85.9 84.6 86.2 85C86.5 82.8 87 80.6 87.7 78.4C88.5 76 89.6 73.1 91.6 71.4C93 70.2 94.6 69.8 96.2 70C98.4 69.7 100.4 70.3 101.1 72.4L102.1 73.2C102.2 73.3 102.4 73.5 102.5 73.7C102.6 73.9 103 74 103.1 74.2C103.7 74.9 103.9 75.8 104.5 76.5C106.1 78.5 106.8 79.6 107.5 82C107.6 82.3 108 84.2 108 84.5C109 86.6 108.9 88.4 109.2 90.7C109.4 92 109.4 93.3 109.4 94.6C109.9 96.3 110.4 98.1 110.4 99.9C110.4 101.8 110.8 104.1 110.6 106C110.2 110.2 108.9 114 107.6 118C106.9 120.3 106.8 122.2 105.3 124.1C104.8 124.6 104.8 125.8 104.3 126.3C104.1 126.7 103.4 127.2 103.1 127.6C102.2 128.8 100.1 130.8 98.9 131.1C96.7 133 92.1 131.6 90.7 129C88.7 125.2 87.2 121.9 86.7 117.7C86.6 117.8 86.1 117.4 86 117.5C85 118.7 84.3 126.3 84.9 135C85 136.4 85.8 141.4 88.6 146.5C88.8 146.8 90.2 149.4 91.9 148.7C94.5 147.7 92 132.5 92.6 131.5C92.7 131.3 95.2 131.5 94.9 133.2C94 137.8 94.4 142.5 95.2 145.4C95.7 147.4 97.2 146.4 97.1 146C96.5 139.7 96.9 133.3 96.9 132.6C96.8 132.7 98.4 132 98.7 131.9C99.2 160.2 121 174.4 126.4 176C127.8 175.1 132.2 173.1 134.7 173.9C139.2 175.4 148.3 176.9 153.4 176.9C193.8 177.4 228.7 145 228.7 100.6C228.7 70.1 213.9 45.2 188.3 31.6C176.6 25.2 162.9 23.5 151.6 24.1Z" fill="url(#paint0_radial_6248_32286)"/>
<path opacity="0.2" d="M77.4 49.5C77.4 49.5 49.7 98.2 77.1 148.6C77.1 148.6 49.9 134.3 46.6 104.8C46.4 100.1 47.1 95.2 47.1 95.2C49.7 71.9 77.4 49.5 77.4 49.5Z" fill="url(#paint1_radial_6248_32286)"/>
<path d="M150.7 192.5C137.3 192.5 124.4 189.7 112.4 184.2C100.8 178.9 90.5 171.3 81.9 161.8C80.5 160.4 79.3 159.3 78.3 158.3C73.8 153.9 73.4 153.5 70.3 150.8C69.9 150.5 69.5 150.1 69.1 149.7C65.3 146.4 58.3 140.3 52.3 132C45 121.8 41.2 111.1 41.2 100.2V99.9C41.3 89 45 78.3 52.3 68.1C58.3 59.8 65.3 53.7 69.1 50.4C69.6 50 70 49.7 70.3 49.3C72.6 47.3 73.4 46.5 75.5 44.5C76.7 43.3 78.4 41.7 81 39.1C89.6 29.3 99.9 21.5 111.7 16C123.9 10.3 137 7.5 150.6 7.5C163.1 7.5 175.2 9.9 186.6 14.8C197.6 19.5 207.5 26.1 216 34.6C224.5 43.1 231.2 53 235.8 64C240.6 75.4 243.1 87.5 243.1 100C243.1 102.3 243.1 107.6 245.9 110.5C247.1 111.7 248.9 112.3 251 112.3H252.3C259.4 112.3 271.2 112.2 278.8 114.9L278.3 116.2C271 113.6 259.3 113.7 252.3 113.7H251C248.5 113.7 246.4 113 244.9 111.4C241.7 108.2 241.7 102.4 241.7 100C241.7 49.7 200.8 8.9 150.6 8.9C124.3 8.9 99.3 20.2 82 40C79.4 42.5 77.7 44.2 76.5 45.4C74.4 47.5 73.6 48.3 71.3 50.3C70.9 50.6 70.5 51 70.1 51.4C62.7 57.9 42.9 75 42.7 99.9V100.2C42.9 125.1 62.7 142.2 70.1 148.7C70.6 149.1 71 149.4 71.3 149.8C74.4 152.5 74.8 153 79.3 157.3C80.3 158.2 81.5 159.4 82.9 160.8C100.2 180 124.9 191.1 150.7 191.1C186.8 191.1 219.8 169.2 234.7 135.3C235 134.7 235.6 134.2 236.3 133.9C238 133.3 240.3 133.8 242.7 135.1C244.4 136.1 246.2 137.2 248.2 138.4C255.1 142.6 262.9 147.4 271.5 148.9L271.3 150.2C262.5 148.7 254.5 143.8 247.5 139.5C245.6 138.3 243.8 137.2 242.1 136.3C239.1 134.6 237.3 135 236.8 135.2C236.4 135.3 236.1 135.6 236 135.8C228.7 152.4 217.1 166.4 202.3 176.5C187 186.9 169.1 192.5 150.7 192.5Z" fill="#383F51"/>
<path d="M150.2 185.3C138.4 185.3 127.1 183 116.4 178.3C106.1 173.8 96.9 167.4 89.1 159.3L89.8 158.7C105.8 175.3 127.2 184.5 150.3 184.5C182.6 184.5 211.5 166.4 225.7 137.4C226 136.8 226.2 136.2 226.5 135.7C229 130.2 230.7 130.4 236.9 131.2L237.7 131.3L237.6 132.2L236.8 132.1C230.7 131.3 229.6 131.2 227.3 136.1C227 136.7 226.8 137.3 226.5 137.8C219.6 151.9 209 163.8 195.8 172.2C182.1 180.7 166.3 185.3 150.2 185.3Z" fill="#383F51"/>
<path d="M245.6 115.4C239.1 112.6 236.3 107.8 236.2 99.6C235.6 53.8 197 16.6 150.2 16.6C124.7 16.6 103.5 28.6 93.1 38.8C92.8 39.1 90.7 40.6 87.3 43.1C84.6 45 81.6 47.3 81.3 47.6L80.7 46.9C81.1 46.5 83.4 44.8 86.8 42.3C89.3 40.5 92.2 38.4 92.5 38.1C103.1 27.7 124.5 15.6 150.2 15.6C161.7 15.6 172.8 17.8 183.4 22.1C193.7 26.3 202.9 32.3 210.9 40C227.5 55.8 236.7 77 237 99.5C237.1 107.3 239.8 111.8 245.9 114.5L245.6 115.4Z" fill="#383F51"/>
<path d="M155 177.7C153.2 177.7 151.3 177.6 149.4 177.5C144.3 177.1 139.2 176.1 134.4 174.7C133.9 174.5 132.7 174.5 131.6 174.6C130.3 174.7 128.1 175.6 126.6 176.5L125.9 175.4C127.3 174.5 129.7 173.4 131.5 173.3C132.5 173.2 134 173.2 134.8 173.4C139.6 174.8 144.5 175.8 149.6 176.2C189.6 179.3 224.8 147.7 228 105.7C229.6 85.4 223.5 65.7 210.9 50.2C198.3 34.8 180.7 25.4 161.4 23.9C152.3 23.2 143.3 24.2 134.6 27C132.7 27.6 130.7 27.9 129.7 27.8C128 27.7 126 26.7 125.1 25.5L126.2 24.7C126.8 25.5 128.4 26.4 129.8 26.5C130.7 26.5 132.6 26.3 134.3 25.7C143.1 22.9 152.3 21.8 161.6 22.5C181.3 24 199.2 33.5 212.1 49.3C224.9 65 231.1 85.1 229.4 105.7C227.8 126.4 218.6 145.2 203.5 158.8C189.7 171.1 172.7 177.7 155 177.7Z" fill="#383F51"/>
<path d="M277.3 119.3C270.7 116.6 262.7 116.5 256.3 116.5C251 116.4 246.8 116.4 244.6 115L245.1 114.2C247.1 115.4 251.4 115.5 256.3 115.5C262.8 115.6 270.9 115.7 277.6 118.4L277.3 119.3Z" fill="#383F51"/>
<path d="M271.9 146.5C265.9 145.8 259.6 142.3 253.5 138.9C247.4 135.6 241.7 132.4 236.5 131.9L236.6 131C242 131.5 247.8 134.7 253.9 138.1C259.9 141.4 266.2 144.8 272 145.6L271.9 146.5Z" fill="#383F51"/>
<path d="M77.1 149.4C68.2 135.8 64.4 120.2 64.7 99.1C65.4 72.9 71.3 59.3 77.1 49.4L77.9 49.9C72.2 59.7 66.3 73.2 65.7 99.1C65.4 120.1 69.2 135.4 77.9 148.9L77.1 149.4Z" fill="#383F51"/>
<path d="M90.5 160.7C84.3 154.3 79.9 151.4 76 148.7C74.2 147.5 72.6 146.4 70.9 145C64 139.5 58.7 133.9 54.7 127.9C48.9 119.3 46 109.9 46 100V99.7C46 86 53.6 73.8 60 65.9C67.9 56.1 76.8 49.3 80.8 46.9L81.3 47.7C77.4 50.1 68.6 56.8 60.8 66.5C54.5 74.3 47 86.4 47 99.7V100C47 116.6 55.1 131.1 71.6 144.3C73.3 145.6 74.9 146.8 76.7 148C80.6 150.6 85 153.6 91.3 160.1L90.5 160.7Z" fill="#383F51"/>
<path d="M157.7 182.4C146 182.4 131.5 180.4 119.3 172.8C111.6 168 104.8 159.5 101.1 150.1C98.4 142.9 97.8 138.2 97.3 130.5H98.2C98.7 138.1 99.3 142.8 101.9 149.9C105.5 159 112.3 167.5 119.7 172.2C141.7 186.1 171.8 181 177.6 179.8L177.8 180.7C175.1 181 167.4 182.4 157.7 182.4Z" fill="#383F51"/>
<path d="M93.1 163.2C84.9 155.8 83.7 151.4 82.1 145.9C82 145.5 81.9 145.2 81.8 144.8C80.1 138.3 79.7 128.9 80.6 118.3C80.7 117 81.8 116.1 83.1 116.1L86 116.3L85.9 116.8C83.2 127.8 85 140 88.3 145.5C89.1 146.9 90 147.7 90.8 147.9C91 147.9 91.1 147.9 91.2 147.8C92 147.2 91.9 143.9 91.8 142V141.3C91.7 137.8 91 130.3 91 130.2L90.9 129.2L91.7 129.8C92.7 130.5 93.7 131 94.5 131.2L94.9 131.3V131.7C94.9 131.7 94.3 137.3 94.6 142.5C94.7 144.3 95.3 145.2 95.7 145.4C95.8 145.5 95.9 145.4 95.9 145.4C96.1 145.2 96.5 144.5 96.3 142.6C95.4 135 96.2 131.4 96.3 131.3L97.2 131.5C97.2 131.5 96.4 135.1 97.3 142.5C97.5 144.3 97.3 145.6 96.6 146.1C96.3 146.3 95.8 146.4 95.4 146.2C94.5 145.8 93.9 144.4 93.8 142.6C93.6 138.1 93.9 133.4 94 132C93.4 131.8 92.7 131.5 92 131.1C92.2 133.2 92.7 138.5 92.7 141.3V142C92.8 145 92.8 147.6 91.7 148.5C91.4 148.7 91 148.8 90.6 148.7C89.5 148.5 88.5 147.5 87.5 145.9C84.1 140.4 82.2 128.1 84.8 117.1L83 117C82.2 117 81.5 117.5 81.5 118.3C80.6 128.8 81 138.1 82.7 144.5C82.8 144.9 82.9 145.2 83 145.6C84.5 151 85.7 155.3 93.7 162.5L93.1 163.2Z" fill="#383F51"/>
<path d="M98 70.2H97.1C97.6 62.4 98.2 57.8 100.9 50.6C104.6 41.2 111.5 32.7 119.1 27.9C141.4 13.8 171.8 19 177.6 20.2L177.4 21.1C171.6 19.9 141.6 14.8 119.5 28.7C112.1 33.3 105.3 41.9 101.7 51C99.1 57.9 98.5 62.5 98 70.2Z" fill="#383F51"/>
<path d="M82.7 84.5C81.5 84.5 80.4 83.6 80.4 82.3C79.5 71.7 79.9 62.2 81.6 55.8L81.7 55.3C83.4 49.5 84.6 45.2 93.1 37.6L93.7 38.3C85.4 45.7 84.3 49.7 82.6 55.6L82.5 56.1C80.9 62.5 80.4 71.8 81.3 82.3C81.4 83.1 82 83.7 82.8 83.6L84.6 83.5C82.9 70.6 84.4 58.2 88.3 53.2C89.3 52 90.3 51.3 91.5 51.2C92 51.2 92.4 51.3 92.7 51.6C93.5 52.4 93.4 54.1 93.2 56.4C93.2 57.1 93.1 57.8 93.1 58.5C93 60.8 92.7 64 92.5 66.3C92.3 68.1 92.2 69.2 92.1 70C92.7 69.6 93.3 69.3 94 69.1C94 67.8 93.8 63.3 93.9 58.9C94 55.9 94.7 53.8 95.9 53.3C96.4 53.1 96.9 53.2 97.3 53.5C98.1 54.2 98.3 55.8 97.8 57.5C95.7 64.3 96.9 69.4 96.9 69.5L96 69.7C96 69.5 94.8 64.3 96.9 57.2C97.4 55.7 97.1 54.5 96.7 54.1C96.5 53.9 96.3 54 96.2 54C95.6 54.2 94.8 55.7 94.7 58.8C94.5 64.1 94.8 69.3 94.8 69.3V69.7L94.4 69.8C93.4 70 92.4 70.6 91.6 71.2C91.5 71.3 91.4 71.3 91.4 71.4L91.1 71.5L90.7 70.9L90.9 70.7C91.1 69.6 91.8 62.5 92 58.4C92 57.7 92.1 57 92.1 56.3C92.2 54.5 92.4 52.7 91.9 52.2C91.8 52.1 91.7 52.1 91.4 52.1C90.5 52.2 89.6 52.8 88.8 53.8C85.6 57.9 83.4 69.5 85.3 83.9L85.4 84.4L82.6 84.6C82.8 84.5 82.7 84.5 82.7 84.5Z" fill="#383F51"/>
<path d="M80.9 117.4C80.9 117.3 78.7 110.1 78.8 99.3C78.9 90.4 80.4 82.9 80.4 82.9L81.3 83.1C81.3 83.2 79.8 90.5 79.7 99.4C79.5 110 81.7 117.2 81.7 117.2L80.9 117.4Z" fill="#383F51"/>
<g opacity="0.5">
<path d="M180.9 33L180.8 33.5C183.4 33.8 187 41.5 187.3 43.1C187.4 43.8 187.2 44.2 187.1 44.6C186.9 45.2 186.6 45.7 187.3 46.7C188.3 48.4 194.8 54.3 197.9 55.6C201.1 56.9 202.8 57.7 204 60.7C204.6 62.3 204.6 64.8 204.7 67.4C204.7 69.8 204.7 72.3 205.2 74.2C206 77.1 207.3 79.8 208 81.1C207.2 80.4 206.4 79.7 205.6 79C204.2 77.8 203 76.8 202.5 76.1C201.9 75.2 201.6 72.2 201.2 68.9C200.7 64.5 200.2 59.5 198.7 58C197 56.3 190.8 53.8 185.8 51.8C183.1 50.7 180.8 49.8 179.9 49.3C178.9 48.7 177.8 47.1 176.7 45.3C174.7 42.3 172.5 38.9 169.8 39V39.5C172.2 39.4 174.4 42.7 176.3 45.6C177.6 47.5 178.6 49.1 179.7 49.8C180.7 50.4 183 51.3 185.7 52.3C190.7 54.3 196.8 56.7 198.4 58.4C198.9 59 199.4 60.1 199.7 61.6C199.2 60.7 198.4 59.5 197.4 58.7C195.6 57.2 191.3 56 188.9 55.4C188.5 55.3 188.2 55.2 187.9 55.1C187.2 54.9 186.7 55.1 186.3 55.4C185.8 55.7 185.3 56.1 184 55.8C182.6 55.6 182 54.7 181.4 53.9C181 53.3 180.5 52.7 179.8 52.3C178 51.2 176.2 51.9 175.3 52.3H175.2C174.5 52.5 174.6 53.2 174.6 53.6C174.6 54 174.6 54.3 174.4 54.5C174.2 54.7 173.6 54.3 173.1 53.9C172.3 53.4 171.4 52.7 170.6 53.1L170.8 53.6C171.4 53.3 172.1 53.9 172.8 54.3C173.5 54.8 174.2 55.2 174.7 54.9C175.3 54.6 175.2 54 175.2 53.5C175.2 53 175.2 52.8 175.4 52.7H175.5C176.4 52.3 178 51.8 179.6 52.7C180.2 53.1 180.6 53.6 181 54.2C181.7 55.1 182.3 56 184 56.3C185.5 56.5 186.2 56.1 186.7 55.8C187.1 55.6 187.4 55.4 187.9 55.6C188.1 55.7 188.5 55.8 188.9 55.9C191 56.5 195.4 57.7 197.2 59.1C199.1 60.7 200.2 63.4 200.3 63.6C200.6 65.3 200.8 67.2 201 69C201.4 72.5 201.7 75.5 202.4 76.4C202.9 77.1 204.2 78.2 205.6 79.4C208.4 81.8 212.2 85 212 87.2C211.9 88.4 211.7 89.6 211.4 90.9C210.9 93.6 210.2 96.6 210.8 99.8C212.1 106.5 213.4 108.8 215 110.1C216.5 111.4 218.5 112.1 218.5 112.1L218.7 111.6C218.7 111.6 216.8 110.9 215.3 109.7C213.8 108.4 212.6 106.2 211.3 99.7C210.7 96.5 211.3 93.6 211.9 91C212.2 89.6 212.4 88.4 212.5 87.2C212.6 85.5 211 83.6 209 81.7L209.2 81.6C209.2 81.6 207.1 77.9 206.1 74C205.6 72.1 205.6 69.7 205.6 67.3C205.6 64.6 205.6 62.1 204.9 60.4C203.6 57.2 201.8 56.3 198.5 55C195.5 53.8 189.1 47.9 188.1 46.3C187.6 45.5 187.8 45.1 188 44.6C188.2 44.2 188.4 43.7 188.3 42.9C187.5 41.2 183.9 33.4 180.9 33Z" fill="url(#paint2_linear_6248_32286)"/>
<path d="M193.1 94.8C194 95.7 195.6 95.5 197.3 95.4C199 95.2 200.9 95.1 202.5 95.8C205.6 97.3 208 104 208 104.1L208.5 103.9C208.4 103.6 206 96.9 202.7 95.3C201 94.5 199 94.7 197.2 94.8C195.6 95 194.1 95.1 193.4 94.3C192.6 93.5 192 90.7 191.4 88.2C190.7 85.3 190.2 82.9 189.3 82.2C188.5 81.6 187.8 81.5 187.1 81.4C186.4 81.3 185.8 81.2 185.4 80.6C185.2 80.3 185.3 78.6 185.4 76.8C185.7 71.8 186.1 64.1 182.4 61.4C179.4 59.2 177.2 60 175.3 60.6C173.7 61.1 172.4 61.6 170.8 60.6C169.5 59.9 169.1 58.5 168.6 57C167.7 54.1 166.5 50.4 158.9 48.1C157.1 47.6 155.3 47.9 153.6 48.1C151.3 48.5 149.1 48.8 147 47.4L146.7 47.8C148.9 49.3 151.3 48.9 153.7 48.6C155.5 48.3 157.2 48.1 158.8 48.6C166.1 50.9 167.2 54.4 168.1 57.2C168.6 58.8 169.1 60.2 170.5 61.1C172.3 62.2 173.9 61.6 175.5 61.1C177.4 60.5 179.4 59.8 182.2 61.8C185.7 64.4 185.3 72.1 185 76.7C184.9 78.5 184.8 79.6 184.9 80.3C184.2 80 183.2 79.8 182 79.6C180 79.3 177.8 78.9 176.5 77.7C175.9 77.1 175.6 76.3 175.3 75.2C174.6 72.6 173.5 69.1 166.3 66.3C163.8 65.8 162 66.4 161 67C160.5 67.3 160.3 67.8 160.1 68.3C159.8 68.9 159.5 69.6 158.7 70.1C157.3 71 149.7 71.4 148.2 71.1C148.1 71.1 148 71 148 71C148 70.9 148.1 70.6 148.2 70.4C148.5 69.6 149 68.3 147.8 66.6L147.4 66.9C148.4 68.3 148 69.4 147.7 70.2C147.5 70.6 147.4 71 147.6 71.3C147.7 71.5 147.9 71.6 148.1 71.6C149.5 71.9 157.4 71.6 159 70.5C159.9 69.9 160.2 69.1 160.5 68.5C160.7 68 160.9 67.6 161.2 67.4C162.1 66.9 163.8 66.3 166.1 66.8C173.1 69.5 174.1 72.9 174.8 75.3C175.1 76.4 175.4 77.4 176.1 78C177.5 79.2 179.8 79.6 181.8 80C183.2 80.2 184.4 80.5 185 80.9C185.5 81.6 186.2 81.7 187 81.9C187.6 82 188.3 82.1 188.9 82.6C189.6 83.1 190.2 85.8 190.7 88.3C191.6 91.3 192.2 94 193.1 94.8Z" fill="url(#paint3_linear_6248_32286)"/>
<path d="M141.4 94.1C142.1 93.4 142.6 92.9 144.2 93.2C145.3 93.4 146.8 94 148.4 94.6C151.2 95.7 154.2 96.8 155.5 96.3C156.2 96.1 156.6 95.6 157.1 95.3C158 94.5 159 93.6 162 94.1C164.4 94.5 166.2 95.7 167.7 96.7C169 97.6 170.1 98.3 171.2 98.2C172 98.1 172.6 97.7 173.2 97.2C174.2 96.4 175.3 95.6 177.8 96.7C179.8 97.5 180.3 98.7 180.7 99.7C181.2 100.7 181.5 101.6 183.5 101.3C185.6 101 186.9 99.7 188.1 98.4C189 97.5 190 96.6 191.2 95.9L191 95.4C189.7 96 188.7 97 187.7 97.9C186.4 99.1 185.2 100.3 183.3 100.6C181.8 100.8 181.5 100.3 181.1 99.3C180.7 98.3 180.1 97 177.9 96.1C175 94.9 173.8 95.9 172.7 96.7C172.1 97.2 171.7 97.5 171 97.6C170.1 97.7 169.1 97 167.9 96.2C166.4 95.2 164.5 93.9 162 93.5C158.8 93 157.7 94 156.7 94.8C156.3 95.2 155.8 95.5 155.3 95.7C154.1 96.2 151.2 95 148.6 94C147 93.4 145.5 92.8 144.4 92.6C142.6 92.2 141.9 92.9 141.1 93.6C140.6 94.1 140.1 94.6 139.1 94.8L139.2 95.3C140.2 95.1 140.8 94.6 141.4 94.1Z" fill="url(#paint4_linear_6248_32286)"/>
<path d="M212.2 91.5C211.3 93.3 211 97.7 211.5 100.4C212 103 213 107.6 215 109.4C216.1 110.4 218.3 111.4 218.4 111.4L218.6 110.9C218.6 110.9 216.4 110 215.4 109C213.5 107.3 212.5 102.3 212.1 100.2C211.6 97.3 212.1 93.1 212.8 91.6C213.6 90 214.8 89.4 215.4 89.3C217.2 89.1 218.9 92.1 218.9 92.1L219.4 91.9C219.3 91.8 217.6 88.5 215.4 88.8C214.3 89 213 89.7 212.2 91.5Z" fill="url(#paint5_linear_6248_32286)"/>
<path d="M180.5 90.1C180.9 89.2 181.2 88.3 182.1 87.7C183.1 87 185.6 85.6 187.9 87.5C188.8 88.3 189.5 90.3 190.2 92.1C190.9 94 191.5 95.7 192.4 96.3C193.3 96.9 194.9 96.8 196.7 96.7C198.3 96.6 200 96.5 201.3 96.9C204 97.7 207.2 104.4 207.3 104.5L207.8 104.3C207.7 104 204.5 97.3 201.5 96.4C200.1 96 198.3 96.1 196.7 96.2C195 96.3 193.5 96.4 192.7 95.9C192 95.4 191.3 93.7 190.7 92C190 90 189.3 88 188.2 87.2C186.4 85.7 184.1 85.8 181.8 87.4C180.9 88.1 180.4 89.1 180.1 90C179.7 90.9 179.4 91.8 178.5 92.2C176.8 93 174.9 92.4 174.2 91.3C174 91 173.9 90.7 173.7 90.4C173.1 89.5 172.6 88.5 171.3 87.3C169.6 85.7 162.7 82.8 159.3 82.3C157.3 82 156.5 82.5 155.5 83.1C154.8 83.6 154 84 152.6 84.1V84.6C154.1 84.5 154.9 83.9 155.7 83.5C156.6 83 157.3 82.5 159.1 82.8C162.4 83.3 169.1 86.2 170.8 87.7C172 88.8 172.6 89.8 173.1 90.7C173.3 91 173.4 91.3 173.6 91.6C174.4 92.8 176.6 93.6 178.5 92.7C179.7 92.1 180.1 91.1 180.5 90.1Z" fill="url(#paint6_linear_6248_32286)"/>
</g>
<g opacity="0.5">
<path d="M210.2 112.4C208.8 112.6 207.7 114.2 206.6 115.8C205.7 117 204.7 118.9 203.8 120.6C203 122.1 202.3 123.3 201.9 123.8L201.5 124.2C200.2 125 197.2 125.6 194.8 125.4C193.4 125.3 192.4 125.4 191.5 125.5C190.6 125.6 189.9 125.7 189.3 125.5C188.8 125.3 188.8 125 188.7 124.4C188.6 123.9 188.5 123.2 187.7 122.9C187 122.6 186.2 122.7 185.4 122.9C184.6 123 183.9 123.1 183.5 122.8C183.1 122.5 182.9 122.1 182.8 121.7C182.6 121.2 182.4 120.7 181.8 120.3C181.2 119.9 180.4 120.4 179.5 121.1C178.1 122.1 176.2 123.4 173.8 122.8C171.2 122.2 171.3 121.4 171.5 120.3C171.6 119.8 171.7 119.1 171.4 118.5C171 117.4 168.7 116.5 166.3 115.5C164.5 114.7 162.6 113.9 162 113.2C161.4 112.4 161.3 111.7 161.2 111.1C161.1 110.4 161 109.9 160.4 109.4C159.7 108.8 158.7 109.2 157.8 109.4C157.3 109.6 156.7 109.7 156.5 109.6L156.3 110C156.7 110.2 157.3 110 158 109.8C158.7 109.6 159.6 109.3 160.1 109.7C160.6 110.1 160.6 110.5 160.8 111.1C160.9 111.7 161.1 112.5 161.7 113.4C162.3 114.2 164.2 115 166.2 115.8C168.3 116.7 170.7 117.6 171 118.5C171.2 119 171.1 119.5 171 120.1C170.8 121.3 170.7 122.4 173.7 123.2C176.3 123.8 178.3 122.4 179.8 121.4C180.6 120.9 181.2 120.4 181.6 120.6C182.1 120.9 182.3 121.3 182.5 121.8C182.7 122.2 182.8 122.7 183.4 123.1C184 123.6 184.9 123.4 185.7 123.3C186.4 123.2 187.1 123.1 187.8 123.3C188.4 123.5 188.5 123.9 188.5 124.5C188.6 125 188.7 125.6 189.4 125.9C190.1 126.2 190.9 126.1 191.8 126C192.6 125.9 193.6 125.8 195 125.9C196.5 126 198.3 125.8 199.9 125.4C198.1 126.5 195.3 128 192.5 128.2C190.2 128.4 189.4 128 188.1 127.3C186.9 126.7 185.5 126 182.3 125.4C177.7 124.6 173.4 126.6 171.1 128C170.7 127.9 167.6 126.9 166.7 124.5L166.3 123.3C165.5 121 164.8 119 164.2 117.9C163.5 116.5 161.1 115.4 159.7 115.2C158.8 115.1 158.3 115.5 157.9 115.9C157.5 116.2 157.1 116.6 156.4 116.5C155.8 116.5 155.2 115.6 154.6 114.6C153.7 113.2 152.5 111.4 150.6 110.7C148.3 109.9 147.2 110.7 146.3 111.4C145.8 111.8 145.4 112.1 144.9 112.3L145 112.8C145.7 112.6 146.2 112.2 146.6 111.9C147.5 111.2 148.3 110.5 150.4 111.2C152.2 111.9 153.3 113.5 154.2 114.9C155 116.1 155.6 117 156.4 117C157.3 117.1 157.8 116.6 158.3 116.3C158.7 115.9 159.1 115.6 159.7 115.8C161.2 116 163.3 117.2 163.9 118.2C164.4 119.2 165.2 121.3 166 123.5L166.4 124.7C167.2 126.9 169.6 128 170.7 128.3C170 128.7 169.6 129 169.6 129.1C169.6 129.1 165.3 133.8 162.1 135.9C158.8 138 156.1 138 155.2 136.8C154.7 136.2 154.6 135 154.6 133.6C154.6 132.3 154.5 130.9 154 129.6C153.3 127.6 150.5 126.2 149.6 125.9C148.4 125.3 146.7 124.8 145.9 125.1C144.5 125.6 144 127.8 144 127.9L144.5 128C144.5 128 144.9 126 146.1 125.6C146.6 125.4 147.8 125.7 149.4 126.4C151 127.1 153 128.5 153.5 129.9C154 131.1 154 132.5 154.1 133.8C154.2 135.3 154.2 136.5 154.8 137.3C155.9 138.5 158.7 138.8 162.4 136.5C165.6 134.5 169.7 130 170 129.7C170.3 129.5 176 125 182.4 126.1C185.6 126.6 187 127.4 188.1 127.9C188.4 128 188.6 128.2 188.9 128.3C187.3 128.9 186.4 128.8 185.7 128.8C184.6 128.7 184.1 128.8 183.2 130.2C182 132.1 181.8 135.7 181.7 138.2C181.6 139.2 181.6 140 181.5 140.4C181.1 141.9 180.5 142.7 179.1 143.1C178 143.4 177.6 143.1 177.1 142.7C176.9 142.6 176.8 142.4 176.6 142.3C176.3 142.1 176.1 141.7 175.9 141.3C175.4 140.4 174.6 139.1 172.8 139.2C171.2 139.3 170.7 140.3 170.1 141.3C169.7 142 169.4 142.7 168.6 143.3C166.8 144.7 161.5 146.3 158.6 146.6C155.4 146.9 149.4 146.3 149 145.8C148.9 145.6 149.3 144.7 149.6 144.1C150.2 142.9 150.9 141.3 150.7 140.2C150.7 140 150.6 139.9 150.6 139.7C150.3 138.3 150.1 138.2 148.8 138.3C147.8 138.4 147.7 139.1 147.6 139.7C147.5 140.1 147.5 140.5 147.2 140.8C146.5 141.3 144.1 141.1 143.2 141L143.1 141.5C143.5 141.5 146.6 141.9 147.5 141.2C148 140.8 148 140.3 148.1 139.8C148.2 139.2 148.3 138.9 148.8 138.8H149.7C149.8 138.9 149.9 139.2 150 139.8C150 140 150.1 140.1 150.1 140.3C150.3 141.2 149.6 142.7 149.1 143.8C148.6 144.9 148.3 145.5 148.4 145.9C148.8 147 156.1 147.3 158.5 147.1C161.5 146.8 166.8 145.2 168.8 143.7C169.6 143.1 170 142.3 170.4 141.6C170.9 140.6 171.3 139.8 172.7 139.7C174.2 139.6 174.8 140.6 175.3 141.5C175.6 142 175.8 142.4 176.2 142.6C176.4 142.7 176.6 142.9 176.7 143C177.3 143.5 177.8 143.9 179.2 143.5C180.7 143 181.5 142.1 182 140.4C182.1 140.1 182.1 139.6 182.2 139C182.5 139.4 182.5 139.8 182.4 140.2C182.4 140.7 182.4 141.2 182.7 141.7C183.3 142.5 184.3 142 185 141.7C185.3 141.5 185.7 141.4 185.8 141.4C186 141.4 186.1 141.5 186.2 141.6C186.4 141.9 186.5 142.4 186.4 143.1C186.3 143.9 185.1 145 184.4 145.6C184.1 145.8 183.9 146.1 183.8 146.2C183.6 146.5 183.6 146.9 183.6 147.2C183.6 147.6 183.7 148 183.4 148.5C183.2 148.7 183 148.9 182.7 148.9C182.1 149 181.4 148.7 181.3 148.5C181.2 148.4 181.2 148.2 181.2 148C181.2 147.7 181.2 147.3 181 146.9C180.6 146.4 179.8 146.2 178.7 146.3C178.1 146.4 178 146.9 178 147.4C178 147.9 178 148.5 177.2 148.8C176.7 149 176.2 148.7 175.5 148.3C174.5 147.7 173.2 147 171.4 148C169.2 149.2 169.5 150.5 169.6 151.4C169.7 151.7 169.7 152 169.6 152.2C169.5 152.4 169.4 152.5 169.3 152.5C169.1 152.5 168.9 152.4 168.8 152.4L168.5 152.8C168.5 152.8 169 153.1 169.4 153C169.7 152.9 169.9 152.7 170 152.3C170.1 152 170.1 151.6 170 151.2C169.8 150.3 169.6 149.3 171.5 148.3C173.1 147.5 174.1 148 175.1 148.6C175.8 149 176.5 149.4 177.2 149.1C178.2 148.7 178.3 147.9 178.3 147.3C178.3 146.8 178.4 146.7 178.5 146.7C179.4 146.6 180.1 146.8 180.4 147.2C180.6 147.4 180.5 147.7 180.5 147.9C180.5 148.2 180.5 148.6 180.7 148.8C181 149 181.8 149.4 182.5 149.3C183 149.3 183.4 149 183.6 148.7C184 148.1 184 147.5 183.9 147.1C183.9 146.8 183.9 146.6 184 146.5C184.1 146.4 184.3 146.2 184.6 146C185.4 145.3 186.7 144.1 186.8 143.2C186.9 142.4 186.8 141.7 186.5 141.3C186.3 141.1 186 141 185.7 140.9C185.4 140.9 185 141.1 184.6 141.3C183.8 141.7 183.3 141.9 183 141.5C182.7 141.1 182.8 140.8 182.8 140.3C182.8 139.7 182.8 139 182.1 138.4V138.2C182.2 135.8 182.5 132.2 183.5 130.5C184.3 129.3 184.7 129.3 185.6 129.3C186.4 129.3 187.6 129.4 189.5 128.6C190.3 128.9 191.2 129 192.7 128.9C197.3 128.6 201.9 125 202.2 124.8C202.4 124.6 202.6 124.5 202.7 124.3C203.1 123.8 203.8 122.5 204.7 121C205.6 119.4 206.7 117.5 207.5 116.3C208.5 114.8 209.6 113.3 210.7 113.1C211.2 113 211.8 113.2 212.4 113.7C214.7 115.4 222.9 117.6 223.1 117.7L223.2 117.2C222.7 117.1 214.9 114.9 212.7 113.3C211.5 112.5 210.8 112.3 210.2 112.4Z" fill="url(#paint7_linear_6248_32286)"/>
<path d="M212.3 115.9C209.8 116.6 207.2 120.2 206.4 121.4C204.8 123.9 204.5 129.8 205.1 132.5C205.3 133.7 205.8 134.6 206.2 135.4C206.6 136.3 207 137 207 138C207 140 207.3 141.1 208 142.1C208.2 142.3 208.3 142.3 208.5 142.4C208.9 142.4 209.3 142 209.7 141.6C210 141.3 210.4 140.8 210.6 140.9C210.7 140.9 210.8 141.1 210.9 141.2C211.6 142.5 210.6 143.5 210.6 143.6L211 144C211 144 212.3 142.7 211.4 141C211.2 140.7 211 140.5 210.7 140.5C210.2 140.4 209.8 140.9 209.3 141.4C209.1 141.6 208.7 142.1 208.5 142L208.4 141.9C207.7 141 207.5 140 207.5 138.1C207.5 137 207.1 136.2 206.7 135.3C206.3 134.6 205.9 133.7 205.7 132.5C205.2 130 205.5 124.2 206.9 121.8C207.8 120.4 210.3 117.2 212.5 116.5C213.1 116.3 214.2 116.6 215 117C219.6 118.9 222.8 119.6 222.8 119.6L222.9 119.1C222.9 119.1 219.7 118.4 215.1 116.5C214.5 116.2 213.1 115.7 212.3 115.9Z" fill="url(#paint8_linear_6248_32286)"/>
<path d="M211.9 114.8C211 114.9 210 115.9 209.6 116.2L209.5 116.3C207.3 118.1 205.2 120.8 204.6 122.6C204.4 123.1 204.3 123.7 204.2 124.4C202.8 127.2 202.3 130 201.8 132.7C201.5 134.1 201.2 135.7 200.8 137.1C199.6 141.1 193 147.8 192.7 148.1C192.4 148.3 186.7 152.8 184.7 153.3C183.8 153.5 179.5 154.5 178.3 154.9C177.3 155.3 175.3 161.1 175 162.2C174.9 165 174.6 169.1 174.4 169.4C174.1 169.9 172.5 170.4 171.8 170.3C171.6 170.3 171.3 170 171.1 169.6C170.8 169.1 170.3 168.5 169.5 168.4C168.9 168.3 167.2 168.7 164.4 169.4C161.7 170.1 158.1 170.9 157.5 170.7C156.9 170.5 156.8 170.1 156.7 169.8C156.6 169.4 156.5 169 155.9 168.9C155.7 168.9 155.5 168.9 155.5 169C155.2 169.2 155.2 169.8 155.3 170.6C155.3 171.4 155.4 172.4 155 172.8L155.4 173.1C155.9 172.5 155.8 171.5 155.8 170.5C155.8 170 155.7 169.4 155.8 169.3C156 169.3 156.1 169.5 156.2 169.8C156.3 170.2 156.5 170.8 157.3 171.1C158 171.4 160.6 170.8 164.5 169.8C166.7 169.3 169 168.7 169.5 168.8C170.1 168.9 170.4 169.4 170.7 169.8C171 170.2 171.3 170.6 171.7 170.7C172.5 170.8 174.3 170.2 174.7 169.6C175.1 169.1 175.3 163.8 175.4 162.1C176.5 158.9 177.9 155.4 178.4 155.1C179.3 154.7 182.2 154 184.7 153.5C186.8 153 192.7 148.4 192.9 148.2C193.2 147.9 199.9 141.2 201.2 137C201.6 135.5 201.9 134 202.2 132.5C202.6 130.4 203 128.2 203.9 125.9C203.8 127.1 203.7 128.5 203.6 129.8C203.5 130.9 203.4 131.9 203.4 132.7C202.7 138.9 201.8 142.3 200.2 144.6C198.4 147.1 191.8 154.7 191 155.3C190.6 155.6 190.1 155.8 189.5 155.9C189 156 188.5 156.2 187.9 156.4C185.8 157.3 183.5 161 181.8 163.6C180.9 165 180.2 166.1 179.8 166.4C179.2 166.8 178.8 166.7 178.3 166.4C177.9 166.2 177.5 166.1 177 166.1V166.6C177.5 166.6 177.8 166.8 178.1 166.9C178.7 167.1 179.2 167.4 180.1 166.8C180.6 166.5 181.3 165.4 182.2 163.9C183.8 161.3 186.1 157.8 188.1 156.9C188.6 156.7 189.1 156.5 189.6 156.4C190.3 156.2 190.8 156.1 191.3 155.7C192.1 155.1 198.8 147.4 200.6 144.9C202.2 142.6 203.2 139.1 203.9 132.8C204 132 204.1 131 204.1 129.9C204.3 127.1 204.5 124 205.1 122.5C205.7 120.8 207.7 118.2 209.8 116.4C209.8 116.4 209.9 116.4 209.9 116.3C210.2 116 211.2 115.1 211.9 115C212.6 114.9 214 115.4 215.9 116.1C217.7 116.8 220 117.6 222.7 118.3L222.8 117.8C220.1 117.1 217.8 116.3 216 115.6C214.1 115.2 212.7 114.6 211.9 114.8Z" fill="url(#paint9_linear_6248_32286)"/>
<path d="M142.2 167C142.6 167 143.2 167.5 143.8 167.9C145 168.7 146.4 169.6 147.5 169.1C148.1 168.8 148.6 168 149.2 167C150.3 165.3 151.7 163.2 154.3 162.3C158.4 160.9 165.8 157.4 165.8 157.4C165.9 157.4 171.6 153.1 177.3 154.6L177.4 154.1C171.7 152.6 166 156.7 165.5 157C165.4 157 165.3 157.1 165 157.2C164.9 156.6 164.5 155.3 163.3 154.4C162.4 153.7 161.3 153.5 160 153.6C157.7 153.9 155.6 155 153.7 155.9C152.1 156.7 150.7 157.5 149.7 157.4C148.8 157.3 148.7 156.8 148.5 156.2C148.3 155.4 148 154.4 146.3 154.2C144.5 154 143.7 155.3 143.1 156.3C142.6 157.1 142.2 157.6 141.7 157.6C140.1 157.5 137.8 155.1 137.8 155.1L137.4 155.4C137.5 155.5 139.8 157.9 141.6 158C142.5 158.1 143 157.3 143.5 156.5C144.1 155.5 144.8 154.5 146.3 154.7C147.7 154.9 147.9 155.5 148.1 156.3C148.3 157 148.5 157.8 149.7 157.9C150.9 158 152.3 157.2 154 156.4C155.8 155.5 157.9 154.4 160.1 154.1C161.3 153.9 162.3 154.2 163.1 154.8C164.2 155.6 164.5 157 164.6 157.4C162.4 158.4 157.3 160.7 154.2 161.8C151.4 162.7 149.9 165 148.8 166.7C148.2 167.6 147.7 168.3 147.2 168.6C146.4 169.1 145.1 168.2 144 167.5C143.3 167 142.6 166.6 142.2 166.5C141.5 166.4 140.4 167.1 139.2 167.9C138.1 168.6 136.8 169.5 136 169.6L136.1 170.1C137.1 169.9 138.4 169.1 139.6 168.3C140.6 167.7 141.7 166.9 142.2 167Z" fill="url(#paint10_linear_6248_32286)"/>
<path d="M214 117.7C212.6 118.3 211.5 120 210.7 121.3C210.4 121.8 210.1 122.2 209.9 122.4C209.7 122.6 209.5 122.6 209.3 122.7C208.7 122.8 208.2 123 207.7 124.3C206.9 126.2 206.5 130.7 207.5 132.2C207.9 132.8 208.4 132.9 208.7 132.9C209.7 132.8 210.7 131.5 211.1 130.4C211.4 129.6 212.2 129.5 213 129.5C213.7 129.5 214.5 129.4 214.9 128.8C215.1 128.4 215.4 128.3 215.6 128.3C215.9 128.4 216.2 128.8 216.3 129.8C216.5 131.2 215.9 133.5 215.9 133.5L216.4 133.6C216.4 133.5 217 131.3 216.8 129.7C216.7 128.6 216.3 127.9 215.7 127.7C215.3 127.6 214.8 127.8 214.4 128.4C214.2 128.8 213.5 128.8 212.9 128.9C212 129 210.9 129.1 210.5 130.2C210.1 131.4 209.2 132.3 208.5 132.4C208.2 132.4 208 132.3 207.8 132C207 130.7 207.3 126.5 208.1 124.5C208.6 123.4 208.9 123.3 209.3 123.2C209.6 123.2 209.9 123.1 210.2 122.8C210.4 122.6 210.7 122.1 211.1 121.6C211.8 120.4 213 118.7 214.2 118.2C215.1 117.8 216 118.2 217.3 118.8C218.5 119.3 220 120 222.1 120.3L222.2 119.8C220.2 119.5 218.7 118.9 217.5 118.3C216.1 117.7 215 117.2 214 117.7Z" fill="url(#paint11_linear_6248_32286)"/>
</g>
<path d="M95.3 129.4C92.5 129.4 90.3 126.5 88.7 120.9C87.3 115.8 86.5 108.7 86.5 100.5C86.5 92.3 87.3 85.3 88.7 80.1C90.3 74.6 92.5 71.6 95.3 71.6C98.1 71.6 101.2 74.8 103.6 80.1C106.1 85.8 107.5 93 107.5 100.5C107.5 108 106.1 115.2 103.6 120.9C101.2 126.3 98.1 129.4 95.3 129.4ZM95.3 71.8C90 71.8 86.6 83.1 86.6 100.6C86.6 118.1 90 129.4 95.3 129.4C100.9 129.4 107.3 116.8 107.3 100.6C107.3 84.4 100.8 71.8 95.3 71.8Z" fill="#383F51"/>
<path d="M95.3 128.1C92.9 128.1 91 125.3 89.6 120.1C88.4 115.2 87.7 108.6 87.7 100.8C87.7 93 88.4 86.4 89.6 81.5C90.9 76.2 92.9 73.5 95.3 73.5C97.7 73.5 100.4 76.4 102.4 81.5C104.6 86.9 105.8 93.7 105.8 100.8C105.8 107.9 104.6 114.7 102.4 120.1C100.4 125.1 97.8 128.1 95.3 128.1ZM95.3 73.5C90.8 73.5 87.9 84.2 87.9 100.7C87.9 117.2 90.8 127.9 95.3 127.9C100.1 127.9 105.7 116 105.7 100.7C105.7 85.4 100.1 73.5 95.3 73.5Z" fill="#383F51"/>
<path d="M95.2 126.3C93.3 126.3 91.7 123.7 90.7 118.8C89.7 114.2 89.2 108 89.2 100.8C89.2 93.6 89.7 87.3 90.7 82.8C91.8 77.9 93.3 75.3 95.2 75.3C97.2 75.3 99.4 78.1 101.1 82.8C103 87.9 104 94.3 104 100.8C104 107.3 103 113.7 101.1 118.8C99.4 123.5 97.2 126.3 95.2 126.3ZM95.2 75.4C91.6 75.4 89.3 85.4 89.3 100.8C89.3 116.2 91.6 126.2 95.2 126.2C97.1 126.2 99.3 123.4 101 118.8C102.9 113.7 103.9 107.3 103.9 100.8C103.9 94.3 102.9 87.9 101 82.8C99.3 78.2 97.2 75.4 95.2 75.4Z" fill="#383F51"/>
<path d="M95.3 124.3C91.8 124.3 90.6 111.7 90.6 100.9C90.6 90.1 91.8 77.5 95.3 77.5C98.4 77.5 102.2 87.9 102.2 100.9C102.2 113.9 98.4 124.3 95.3 124.3ZM95.3 77.5C92.5 77.5 90.7 86.7 90.7 100.8C90.7 114.9 92.5 124.1 95.3 124.1C96.8 124.1 98.5 121.6 99.8 117.3C101.3 112.6 102.1 106.8 102.1 100.8C102.1 94.8 101.3 89 99.8 84.3C98.5 80.1 96.8 77.5 95.3 77.5Z" fill="#383F51"/>
<path d="M95.6 122.1C93.1 122.1 92.2 110.8 92.2 101C92.2 91.2 93.1 79.9 95.6 79.9C97.9 79.9 100.6 89.3 100.6 101C100.6 112.7 97.9 122.1 95.6 122.1ZM95.6 80C93.6 80 92.3 88.2 92.3 101C92.3 113.8 93.6 122 95.6 122C97.8 122 100.5 112.3 100.5 101C100.5 89.7 97.8 80 95.6 80Z" fill="#383F51"/>
<path d="M95.4 132C91.8 132 88.9 128.7 87 122.5C85.2 116.9 84.3 109.2 84.3 100.4C84.3 91.6001 85.2 83.9001 87 78.3001C89 72.1001 91.9 68.8 95.4 68.8C99.1 68.8 102.9 72.2 105.8 78.2C108.9 84.4 110.6 92.3001 110.6 100.4C110.6 108.5 108.9 116.4 105.8 122.6C102.8 128.6 99 132 95.4 132ZM95.4 69.9001C91.6 69.9001 89.3 74.6 88 78.6C86.3 84 85.4 91.8001 85.4 100.4C85.4 109 86.3 116.8 88 122.2C89.2 126.2 91.5 130.9 95.4 130.9C98.6 130.9 102.1 127.6 104.8 122.1C107.8 116.1 109.4 108.3 109.4 100.4C109.4 92.5001 107.8 84.7 104.8 78.7C102.1 73.2 98.5 69.9001 95.4 69.9001Z" fill="#383F51"/>
<path d="M100.4 120.3C100.6 120.2 100.7 120.1 100.7 120.1L104.4 118.1L93.4 112.7L93.3 112.8L92.2 124.8L96 122.7C96 122.7 96.1 122.6 96.4 122.5C96.8 123.2 97.6 124.4 97.6 124.4C101.8 131.2 106.2 135.9 106.6 136.3L110 133.2C109.9 133.1 105.7 128.5 101.7 122.1C101.5 122.2 100.8 121.1 100.4 120.3Z" fill="#383F51"/>
<path d="M63.3 89.6C61.9 88.9 60.4 88.3 58.9 88.2C56.4 93.5 56.8 100.6 57.2 104H57L52.9 104.8L61.7 113.4H61.8L66.6 102.4L62.4 103.2C62.4 103.2 62.2 103.2 61.8 103.3C61.3 99.4 61.2 93.4 63.3 89.6Z" fill="#383F51"/>
<path d="M67.6 88.9L74.9 98.5L76.3 94.4C76.3 94.4 76.4 94.2 76.5 93.8C79.9 95.3 85.2 98.2 87.5 101.8C88.8 100.9 90 99.9 90.9 98.6C87.5 93.8 81.1 90.7 77.9 89.4C77.9 89.3 78 89.2 78 89.2L79.4 85.2L67.6 88.9Z" fill="#383F51"/>
<path d="M69.8 128.5L64.4 116.6L60.4 118.4L65.7 130.2L61.8 131.8L72.1 138.5H72.2L74.7 126.7L70.7 128.3C70.8 128.1 70.3 128.3 69.8 128.5Z" fill="#383F51"/>
</g>
<defs>
<radialGradient id="paint0_radial_6248_32286" cx="0" cy="0" r="1" gradientUnits="userSpaceOnUse" gradientTransform="translate(139.134 82.9625) rotate(-90) scale(81.088 81.088)">
<stop offset="0.27" stop-color="#212F3C" stop-opacity="0"/>
<stop offset="1" stop-color="#212F3C"/>
</radialGradient>
<radialGradient id="paint1_radial_6248_32286" cx="0" cy="0" r="1" gradientUnits="userSpaceOnUse" gradientTransform="translate(99.5465 92.853) rotate(-90) scale(54.2145 54.2145)">
<stop offset="0.27" stop-color="#212F3C" stop-opacity="0"/>
<stop offset="1" stop-color="#212F3C"/>
</radialGradient>
<linearGradient id="paint2_linear_6248_32286" x1="76.6606" y1="124.532" x2="261.619" y2="35.022" gradientUnits="userSpaceOnUse">
<stop offset="0.05" stop-color="#8DBCAD" stop-opacity="0.6"/>
<stop offset="0.48" stop-color="#5EA6AE" stop-opacity="0.6"/>
<stop offset="0.59" stop-color="#5CA7AF" stop-opacity="0.6"/>
<stop offset="0.66" stop-color="#5796AC" stop-opacity="0.7"/>
<stop offset="0.81" stop-color="#507DA7" stop-opacity="0.89"/>
<stop offset="0.88" stop-color="#4E74A6" stop-opacity="0.98"/>
</linearGradient>
<linearGradient id="paint3_linear_6248_32286" x1="73.674" y1="118.362" x2="258.632" y2="28.8515" gradientUnits="userSpaceOnUse">
<stop offset="0.05" stop-color="#8DBCAD" stop-opacity="0.6"/>
<stop offset="0.48" stop-color="#5EA6AE" stop-opacity="0.6"/>
<stop offset="0.59" stop-color="#5CA7AF" stop-opacity="0.6"/>
<stop offset="0.66" stop-color="#5796AC" stop-opacity="0.7"/>
<stop offset="0.81" stop-color="#507DA7" stop-opacity="0.89"/>
<stop offset="0.88" stop-color="#4E74A6" stop-opacity="0.98"/>
</linearGradient>
<linearGradient id="paint4_linear_6248_32286" x1="79.3615" y1="130.113" x2="264.32" y2="40.603" gradientUnits="userSpaceOnUse">
<stop offset="0.05" stop-color="#8DBCAD" stop-opacity="0.6"/>
<stop offset="0.48" stop-color="#5EA6AE" stop-opacity="0.6"/>
<stop offset="0.59" stop-color="#5CA7AF" stop-opacity="0.6"/>
<stop offset="0.66" stop-color="#5796AC" stop-opacity="0.7"/>
<stop offset="0.81" stop-color="#507DA7" stop-opacity="0.89"/>
<stop offset="0.88" stop-color="#4E74A6" stop-opacity="0.98"/>
</linearGradient>
<linearGradient id="paint5_linear_6248_32286" x1="90.8686" y1="153.891" x2="275.827" y2="64.3806" gradientUnits="userSpaceOnUse">
<stop offset="0.05" stop-color="#8DBCAD" stop-opacity="0.6"/>
<stop offset="0.48" stop-color="#5EA6AE" stop-opacity="0.6"/>
<stop offset="0.59" stop-color="#5CA7AF" stop-opacity="0.6"/>
<stop offset="0.66" stop-color="#5796AC" stop-opacity="0.7"/>
<stop offset="0.81" stop-color="#507DA7" stop-opacity="0.89"/>
<stop offset="0.88" stop-color="#4E74A6" stop-opacity="0.98"/>
</linearGradient>
<linearGradient id="paint6_linear_6248_32286" x1="81.5085" y1="134.55" x2="266.467" y2="45.04" gradientUnits="userSpaceOnUse">
<stop offset="0.05" stop-color="#8DBCAD" stop-opacity="0.6"/>
<stop offset="0.48" stop-color="#5EA6AE" stop-opacity="0.6"/>
<stop offset="0.59" stop-color="#5CA7AF" stop-opacity="0.6"/>
<stop offset="0.66" stop-color="#5796AC" stop-opacity="0.7"/>
<stop offset="0.81" stop-color="#507DA7" stop-opacity="0.89"/>
<stop offset="0.88" stop-color="#4E74A6" stop-opacity="0.98"/>
</linearGradient>
<linearGradient id="paint7_linear_6248_32286" x1="152.06" y1="73.9425" x2="214.394" y2="181.487" gradientUnits="userSpaceOnUse">
<stop offset="0.05" stop-color="#8DBCAD" stop-opacity="0.6"/>
<stop offset="0.48" stop-color="#5EA6AE" stop-opacity="0.6"/>
<stop offset="0.59" stop-color="#5CA7AF" stop-opacity="0.6"/>
<stop offset="0.66" stop-color="#5796AC" stop-opacity="0.7"/>
<stop offset="0.81" stop-color="#507DA7" stop-opacity="0.89"/>
<stop offset="0.88" stop-color="#4E74A6" stop-opacity="0.98"/>
</linearGradient>
<linearGradient id="paint8_linear_6248_32286" x1="175.979" y1="60.0791" x2="238.313" y2="167.623" gradientUnits="userSpaceOnUse">
<stop offset="0.05" stop-color="#8DBCAD" stop-opacity="0.6"/>
<stop offset="0.48" stop-color="#5EA6AE" stop-opacity="0.6"/>
<stop offset="0.59" stop-color="#5CA7AF" stop-opacity="0.6"/>
<stop offset="0.66" stop-color="#5796AC" stop-opacity="0.7"/>
<stop offset="0.81" stop-color="#507DA7" stop-opacity="0.89"/>
<stop offset="0.88" stop-color="#4E74A6" stop-opacity="0.98"/>
</linearGradient>
<linearGradient id="paint9_linear_6248_32286" x1="149.412" y1="75.4775" x2="211.747" y2="183.022" gradientUnits="userSpaceOnUse">
<stop offset="0.05" stop-color="#8DBCAD" stop-opacity="0.6"/>
<stop offset="0.48" stop-color="#5EA6AE" stop-opacity="0.6"/>
<stop offset="0.59" stop-color="#5CA7AF" stop-opacity="0.6"/>
<stop offset="0.66" stop-color="#5796AC" stop-opacity="0.7"/>
<stop offset="0.81" stop-color="#507DA7" stop-opacity="0.89"/>
<stop offset="0.88" stop-color="#4E74A6" stop-opacity="0.98"/>
</linearGradient>
<linearGradient id="paint10_linear_6248_32286" x1="117.67" y1="93.8761" x2="180.004" y2="201.421" gradientUnits="userSpaceOnUse">
<stop offset="0.05" stop-color="#8DBCAD" stop-opacity="0.6"/>
<stop offset="0.48" stop-color="#5EA6AE" stop-opacity="0.6"/>
<stop offset="0.59" stop-color="#5CA7AF" stop-opacity="0.6"/>
<stop offset="0.66" stop-color="#5796AC" stop-opacity="0.7"/>
<stop offset="0.81" stop-color="#507DA7" stop-opacity="0.89"/>
<stop offset="0.88" stop-color="#4E74A6" stop-opacity="0.98"/>
</linearGradient>
<linearGradient id="paint11_linear_6248_32286" x1="177.552" y1="59.167" x2="239.887" y2="166.712" gradientUnits="userSpaceOnUse">
<stop offset="0.05" stop-color="#8DBCAD" stop-opacity="0.6"/>
<stop offset="0.48" stop-color="#5EA6AE" stop-opacity="0.6"/>
<stop offset="0.59" stop-color="#5CA7AF" stop-opacity="0.6"/>
<stop offset="0.66" stop-color="#5796AC" stop-opacity="0.7"/>
<stop offset="0.81" stop-color="#507DA7" stop-opacity="0.89"/>
<stop offset="0.88" stop-color="#4E74A6" stop-opacity="0.98"/>
</linearGradient>
<clipPath id="clip0_6248_32286">
<rect width="237.6" height="185" fill="white" transform="translate(41.2 7.5)"/>
</clipPath>
</defs>
</svg>
