<svg width="330" height="330" viewBox="0 0 330 330" fill="none" xmlns="http://www.w3.org/2000/svg">
<g clip-path="url(#clip0_3618_7766)">
<path d="M81.8515 134.652L77.9033 131.411C88.1569 118.977 101.887 110.668 102.418 110.314L105.069 114.675C104.893 114.793 91.5158 122.866 81.8515 134.652Z" fill="#E95A24"/>
<path d="M76.5478 127.403L75.7817 137.952V138.01L86.1532 134.946L76.5478 127.403Z" fill="#FF5B00"/>
<path d="M250.211 134.652C240.487 122.925 227.111 114.793 226.993 114.734L229.644 110.373C230.234 110.727 243.905 119.036 254.159 131.469L250.211 134.652Z" fill="#E95A24"/>
<path d="M255.514 127.403L256.28 137.952V138.01L245.909 134.946L255.514 127.403Z" fill="#FF5B00"/>
<path d="M166.296 301.184C161.818 301.184 157.28 300.831 152.861 300.124C148.5 299.534 141.723 298.002 137.127 295.999C121.334 290.106 107.839 279.734 98.0569 265.886C88.0391 251.743 82.7944 235.125 82.7944 217.742C82.7944 205.661 85.3284 194.052 90.2784 183.15C95.0516 172.661 101.887 163.409 110.55 155.631C111.728 154.393 112.671 153.392 113.555 152.567C117.621 148.383 118.034 147.911 120.509 145.142C120.803 144.788 121.098 144.434 121.452 144.022C124.398 140.604 129.937 134.24 137.48 128.877C146.673 122.277 156.278 118.918 166.119 118.859H166.414C176.255 118.918 185.919 122.336 195.053 128.877C202.537 134.24 208.077 140.604 211.082 144.022C211.436 144.434 211.73 144.788 212.025 145.142C213.911 147.263 214.559 147.911 216.503 149.915C217.564 150.975 219.037 152.508 221.277 154.806C230.175 162.584 237.187 171.895 242.078 182.561C247.205 193.581 249.798 205.425 249.798 217.683C249.798 228.938 247.618 239.899 243.257 250.211C239.073 260.17 233.003 269.068 225.343 276.729C217.682 284.39 208.725 290.4 198.825 294.643C188.512 298.945 177.611 301.184 166.296 301.184ZM166.414 119.625H166.119C143.55 119.802 127.934 137.775 122.041 144.552C121.687 144.965 121.393 145.318 121.098 145.672C118.623 148.5 118.211 148.913 114.144 153.097C113.319 153.981 112.318 154.983 111.139 156.161C93.6962 171.836 83.6784 194.229 83.6784 217.624C83.6784 251.979 105.305 283.093 137.539 295.115C142.077 297.059 148.794 298.591 153.096 299.181C157.457 299.888 161.936 300.242 166.414 300.242C212.025 300.242 249.091 263.175 249.091 217.565C249.091 193.699 238.778 171.011 220.805 155.336C218.566 153.038 217.093 151.506 216.032 150.445C214.028 148.442 213.38 147.734 211.494 145.613C211.2 145.259 210.905 144.906 210.552 144.493C204.541 137.775 188.984 119.802 166.414 119.625Z" fill="#323A50"/>
<path opacity="0.2" d="M208.371 154.805C211.317 153.155 212.967 152.035 209.903 148.618C204.776 142.784 189.337 123.337 166.06 123.102H165.825C142.548 123.278 127.167 142.784 121.982 148.618C118.917 152.094 121.333 154.098 122.689 155.159C128.7 151.328 134.121 148.323 141.251 145.966C141.428 145.907 150.385 141.664 165.294 141.546C165.353 141.546 175.43 141.487 184.976 144.434C196.585 147.498 202.125 151.269 208.371 154.805Z" fill="url(#paint0_linear_3618_7766)"/>
<path opacity="0.2" d="M165.53 286.452C203.218 286.452 233.77 256.032 233.77 218.507C233.77 180.982 203.218 150.562 165.53 150.562C127.843 150.562 97.291 180.982 97.291 218.507C97.291 256.032 127.843 286.452 165.53 286.452Z" fill="url(#paint1_radial_3618_7766)"/>
<path opacity="0.34" d="M237.069 186.804C237.011 186.627 236.952 186.45 236.834 186.332C236.598 186.804 236.186 187.216 235.655 187.57C234.241 188.395 232.061 187.982 231.353 186.45C230.941 185.625 230.528 184.859 229.998 184.093C229.703 183.681 229.468 183.268 229.173 182.915C229.055 182.738 229.055 182.738 229.173 182.915C229.114 182.856 229.055 182.738 228.996 182.62C228.878 182.443 228.702 182.266 228.584 182.09C227.346 180.675 225.873 179.261 224.636 178.436C223.87 177.906 223.103 177.434 222.278 177.022C222.043 176.904 221.807 176.786 221.571 176.668C221.512 176.668 221.512 176.668 221.512 176.609C221.1 176.432 220.687 176.315 220.216 176.197C219.745 176.079 219.273 175.961 218.802 175.843C218.802 175.843 218.094 175.725 218.153 175.725C217.977 175.725 217.859 175.666 217.682 175.666C216.562 175.549 215.502 175.549 214.382 175.549C210.316 175.666 206.839 176.315 202.832 176.786C198.648 177.316 194.523 177.611 190.339 177.906C182.148 178.495 174.016 179.497 165.766 179.615C161.7 179.674 157.693 178.966 153.686 178.259C149.737 177.552 146.084 177.022 142.253 176.609C134.298 175.666 126.225 175.195 118.211 175.961C116.561 176.079 115.323 174.665 115.087 173.191C115.028 173.191 114.969 173.191 114.911 173.25C114.439 173.368 113.968 173.486 113.555 173.663C113.319 173.722 113.084 173.84 112.789 173.957C112.671 174.016 112.612 174.016 112.553 174.075C110.668 174.9 108.841 176.02 107.191 177.257C107.132 177.316 106.778 177.611 106.719 177.611C106.484 177.788 106.248 177.965 106.071 178.2C105.659 178.554 105.246 178.907 104.893 179.261C104.127 180.027 103.361 180.852 102.712 181.677C102.653 181.736 102.653 181.795 102.594 181.795L102.536 181.854C102.359 182.09 102.182 182.266 102.064 182.502C101.769 182.915 101.534 183.327 101.298 183.681C101.062 184.093 100.827 184.506 100.65 184.859C100.591 184.977 100.296 185.743 100.591 184.977C100.532 185.213 100.414 185.39 100.355 185.625C99.7659 187.275 98.2338 188.218 96.4659 187.806C95.8766 187.688 95.3463 187.334 94.9338 186.863C94.8749 186.981 94.9927 187.099 94.9338 187.216C90.9856 196.527 88.6284 206.722 88.6284 217.506C88.6284 260.288 123.278 294.938 166.061 294.938C208.843 294.938 243.493 260.288 243.493 217.506C243.434 206.604 241.136 196.232 237.069 186.804Z" fill="url(#paint2_linear_3618_7766)"/>
<g opacity="0.2">
<path d="M226.521 246.321L226.05 246.262C225.755 248.619 218.86 251.861 217.328 252.096C216.739 252.214 216.385 252.037 215.973 251.919C215.443 251.743 214.971 251.507 214.028 252.037C212.496 252.98 207.134 258.814 205.955 261.702C204.776 264.589 204.01 266.121 201.3 267.182C199.826 267.771 197.587 267.771 195.23 267.771C193.05 267.771 190.81 267.771 189.101 268.243C186.509 268.95 183.975 270.128 182.796 270.718C183.444 270.011 184.034 269.244 184.682 268.596C185.743 267.359 186.685 266.239 187.275 265.827C188.1 265.237 190.869 264.943 193.816 264.648C197.823 264.236 202.301 263.705 203.716 262.409C205.307 260.877 207.546 255.278 209.373 250.741C210.316 248.325 211.141 246.262 211.671 245.437C212.201 244.553 213.675 243.552 215.266 242.491C217.976 240.723 221.041 238.661 220.982 236.186H220.51C220.569 238.366 217.623 240.369 215.03 242.078C213.321 243.198 211.848 244.2 211.259 245.202C210.728 246.086 209.903 248.148 208.96 250.564C207.193 255.043 204.953 260.641 203.421 262.055C202.891 262.527 201.83 262.939 200.534 263.234C201.418 262.762 202.419 262.055 203.126 261.112C204.482 259.462 205.543 255.573 206.132 253.452C206.25 253.098 206.309 252.803 206.368 252.568C206.544 251.919 206.309 251.507 206.073 251.094C205.778 250.623 205.484 250.152 205.66 248.973C205.896 247.677 206.603 247.146 207.428 246.557C207.959 246.144 208.489 245.791 208.901 245.143C209.903 243.552 209.255 241.902 208.96 241.018V240.959C208.725 240.369 208.194 240.428 207.782 240.428C207.369 240.487 207.134 240.487 206.957 240.252C206.839 240.016 207.134 239.544 207.487 239.073C207.959 238.366 208.548 237.541 208.194 236.834L207.782 237.01C208.018 237.541 207.546 238.189 207.134 238.778C206.662 239.427 206.25 240.016 206.603 240.487C206.898 241.018 207.428 240.959 207.841 240.9C208.253 240.841 208.43 240.841 208.548 241.077V241.135C208.901 242.019 209.432 243.434 208.548 244.789C208.194 245.319 207.723 245.732 207.193 246.086C206.368 246.675 205.543 247.264 205.248 248.796C205.012 250.152 205.366 250.741 205.719 251.271C205.955 251.625 206.073 251.86 205.955 252.332C205.896 252.509 205.837 252.862 205.719 253.216C205.189 255.16 204.069 259.109 202.832 260.7C201.418 262.468 198.943 263.411 198.707 263.469C197.175 263.705 195.407 263.882 193.816 264.059C190.693 264.412 187.982 264.707 187.098 265.296C186.45 265.768 185.507 266.887 184.387 268.184C182.266 270.718 179.319 274.136 177.316 274.018C176.255 273.959 175.135 273.723 173.898 273.487C171.482 273.016 168.771 272.427 165.825 272.957C159.755 274.077 157.693 275.255 156.514 276.728C155.335 278.084 154.746 279.852 154.746 279.911L155.159 280.087C155.159 280.087 155.748 278.319 156.868 277.023C157.987 275.668 159.991 274.548 165.943 273.428C168.771 272.898 171.482 273.428 173.839 273.959C175.076 274.194 176.196 274.43 177.316 274.548C178.848 274.666 180.616 273.134 182.325 271.366L182.384 271.543C182.443 271.543 185.801 269.657 189.278 268.714C190.987 268.243 193.168 268.243 195.289 268.243C197.705 268.243 200.003 268.243 201.535 267.653C204.423 266.534 205.248 264.825 206.426 261.878C207.546 259.168 212.791 253.393 214.264 252.45C214.971 251.978 215.325 252.155 215.796 252.332C216.209 252.509 216.68 252.686 217.387 252.568C219.096 252.273 226.168 248.973 226.521 246.321Z" fill="url(#paint3_linear_3618_7766)"/>
<path d="M170.539 257.341C169.714 258.166 169.891 259.58 170.009 261.171C170.127 262.703 170.303 264.412 169.596 265.885C168.241 268.655 162.171 270.835 162.112 270.894L162.23 271.366C162.525 271.307 168.536 269.126 170.009 266.121C170.716 264.589 170.598 262.762 170.48 261.171C170.362 259.698 170.244 258.401 170.893 257.694C171.6 256.987 174.134 256.398 176.373 255.926C178.966 255.337 181.205 254.807 181.736 254.041C182.266 253.333 182.384 252.685 182.443 252.096C182.561 251.448 182.619 250.976 183.209 250.564C183.503 250.387 185.036 250.446 186.686 250.564C191.223 250.858 198.118 251.212 200.593 247.794C202.537 245.083 201.889 243.08 201.3 241.371C200.828 239.957 200.416 238.719 201.3 237.246C201.948 236.067 203.186 235.714 204.541 235.242C207.193 234.358 210.493 233.298 212.614 226.521C213.086 224.93 212.85 223.28 212.614 221.689C212.261 219.567 211.966 217.564 213.203 215.737L212.791 215.442C211.436 217.446 211.789 219.626 212.084 221.748C212.319 223.339 212.555 224.871 212.084 226.344C210.021 232.944 206.898 233.946 204.305 234.771C202.832 235.242 201.594 235.655 200.769 236.951C199.827 238.601 200.298 240.075 200.769 241.43C201.359 243.139 201.948 244.966 200.121 247.441C197.823 250.623 190.811 250.21 186.627 250.033C185.036 249.975 183.975 249.916 183.386 249.975C183.68 249.326 183.798 248.383 183.975 247.382C184.269 245.614 184.623 243.551 185.684 242.432C186.214 241.901 186.921 241.666 187.923 241.371C190.221 240.723 193.462 239.78 195.996 233.239V233.18C196.468 230.941 195.937 229.35 195.407 228.407C195.171 227.994 194.7 227.758 194.228 227.523C193.698 227.287 193.109 226.992 192.637 226.285C191.812 225.048 191.459 218.094 191.753 216.798C191.753 216.68 191.812 216.621 191.812 216.621C191.871 216.562 192.166 216.68 192.402 216.739C193.109 217.033 194.346 217.446 195.819 216.385L195.525 215.973C194.228 216.916 193.227 216.562 192.519 216.267C192.107 216.15 191.812 216.032 191.577 216.15C191.459 216.208 191.341 216.385 191.282 216.621C190.987 217.917 191.282 225.048 192.225 226.462C192.755 227.287 193.462 227.582 193.993 227.876C194.405 228.053 194.759 228.23 194.936 228.525C195.407 229.408 195.937 230.823 195.466 232.944C192.991 239.25 189.927 240.133 187.746 240.782C186.744 241.076 185.861 241.312 185.271 241.96C184.152 243.198 183.798 245.26 183.444 247.146C183.268 248.383 183.032 249.562 182.619 250.033C181.971 250.505 181.853 251.153 181.736 251.801C181.618 252.391 181.559 252.921 181.087 253.569C180.616 254.217 178.141 254.748 175.961 255.219C173.721 255.985 171.364 256.516 170.539 257.341Z" fill="url(#paint4_linear_3618_7766)"/>
<path d="M171.246 210.493C171.836 211.141 172.307 211.612 172.012 213.027C171.836 213.97 171.305 215.325 170.716 216.798C169.714 219.391 168.712 222.043 169.184 223.221C169.419 223.811 169.773 224.223 170.127 224.636C170.834 225.52 171.659 226.404 171.246 229.055C170.893 231.177 169.773 232.827 168.889 234.182C168.064 235.361 167.416 236.363 167.475 237.364C167.534 238.13 167.946 238.661 168.418 239.132C169.125 240.075 169.891 241.018 168.889 243.316C168.123 245.143 167.062 245.614 166.178 245.968C165.236 246.38 164.469 246.734 164.705 248.502C165 250.387 166.178 251.566 167.298 252.686C168.123 253.511 168.948 254.395 169.537 255.514L169.95 255.338C169.361 254.159 168.477 253.216 167.652 252.332C166.532 251.212 165.471 250.093 165.177 248.384C164.941 246.97 165.471 246.793 166.355 246.38C167.239 245.968 168.477 245.437 169.302 243.493C170.421 240.841 169.537 239.78 168.712 238.779C168.3 238.248 167.946 237.836 167.887 237.246C167.828 236.421 168.418 235.538 169.184 234.418C170.127 233.063 171.305 231.354 171.659 229.114C172.13 226.227 171.246 225.225 170.48 224.341C170.127 223.929 169.832 223.575 169.596 223.045C169.184 221.984 170.244 219.332 171.128 216.975C171.718 215.502 172.248 214.146 172.425 213.145C172.778 211.495 172.189 210.846 171.541 210.139C171.128 209.668 170.657 209.196 170.48 208.312L170.009 208.43C170.303 209.491 170.775 210.021 171.246 210.493Z" fill="url(#paint5_linear_3618_7766)"/>
<path d="M173.603 274.607C172.012 273.841 168.005 273.488 165.53 273.959C163.173 274.371 158.989 275.314 157.339 277.082C156.396 278.084 155.571 280.029 155.571 280.146L155.984 280.323C155.984 280.323 156.868 278.379 157.693 277.377C159.284 275.668 163.762 274.725 165.589 274.371C168.241 273.9 172.012 274.371 173.368 275.02C174.841 275.727 175.371 276.788 175.43 277.318C175.607 278.968 172.896 280.441 172.896 280.441L173.073 280.854C173.191 280.795 176.137 279.204 175.843 277.259C175.843 276.552 175.195 275.314 173.603 274.607Z" fill="url(#paint6_linear_3618_7766)"/>
<path d="M174.841 245.909C175.666 246.263 176.491 246.557 177.021 247.323C177.669 248.207 178.966 250.505 177.198 252.509C176.491 253.334 174.723 253.982 173.014 254.63C171.305 255.22 169.714 255.809 169.243 256.634C168.712 257.459 168.771 258.873 168.889 260.523C169.007 261.996 169.066 263.529 168.771 264.707C168.064 267.182 161.935 270.07 161.876 270.07L162.053 270.482C162.348 270.364 168.418 267.477 169.184 264.825C169.537 263.529 169.419 261.879 169.301 260.464C169.184 258.932 169.125 257.518 169.537 256.87C169.95 256.221 171.541 255.632 173.132 255.102C174.9 254.454 176.726 253.805 177.493 252.862C178.848 251.271 178.789 249.15 177.316 247.088C176.726 246.204 175.784 245.85 174.9 245.496C174.075 245.143 173.25 244.848 172.896 244.082C172.189 242.55 172.719 240.841 173.721 240.193C173.957 240.016 174.251 239.898 174.487 239.721C175.371 239.191 176.196 238.72 177.257 237.541C178.671 236.009 181.323 229.762 181.794 226.698C182.089 224.93 181.618 224.105 181.087 223.28C180.675 222.632 180.262 221.925 180.144 220.688L179.673 220.746C179.791 222.102 180.262 222.868 180.675 223.516C181.146 224.341 181.618 224.989 181.323 226.58C180.851 229.527 178.259 235.655 176.903 237.129C175.901 238.248 175.018 238.72 174.193 239.25C173.898 239.427 173.662 239.545 173.426 239.721C172.307 240.429 171.659 242.432 172.484 244.2C173.014 245.202 173.957 245.555 174.841 245.909Z" fill="url(#paint7_linear_3618_7766)"/>
</g>
<g opacity="0.2">
<path d="M154.628 272.781C154.452 271.543 153.037 270.541 151.564 269.539C150.444 268.773 148.735 267.831 147.262 266.947C145.907 266.239 144.787 265.532 144.316 265.238C144.198 265.179 144.08 265.002 143.962 264.825C143.255 263.706 142.725 260.936 142.843 258.756C142.902 257.518 142.784 256.575 142.725 255.75C142.607 254.925 142.548 254.336 142.784 253.806C142.96 253.393 143.255 253.334 143.727 253.275C144.198 253.216 144.846 253.098 145.141 252.332C145.377 251.684 145.259 250.918 145.2 250.27C145.082 249.563 145.023 248.914 145.318 248.502C145.612 248.089 145.907 247.972 146.319 247.854C146.732 247.677 147.203 247.5 147.616 246.911C147.969 246.381 147.498 245.673 146.909 244.789C146.025 243.552 144.846 241.784 145.318 239.604C145.848 237.306 146.555 237.364 147.557 237.541C148.028 237.6 148.618 237.718 149.148 237.482C150.091 237.129 150.975 235.066 151.859 232.886C152.566 231.236 153.273 229.468 153.921 229.056C154.628 228.525 155.277 228.407 155.807 228.289C156.396 228.172 156.927 228.113 157.339 227.523C157.869 226.875 157.575 225.991 157.339 225.225C157.221 224.754 157.044 224.282 157.162 224.047L156.75 223.811C156.573 224.223 156.691 224.754 156.868 225.343C157.044 225.991 157.28 226.816 156.927 227.229C156.573 227.641 156.219 227.7 155.63 227.818C155.041 227.936 154.334 228.054 153.568 228.643C152.86 229.173 152.153 230.882 151.387 232.709C150.621 234.595 149.737 236.775 148.912 237.011C148.441 237.188 147.969 237.129 147.498 237.07C146.437 236.952 145.377 236.775 144.728 239.486C144.198 241.843 145.435 243.67 146.378 245.025C146.85 245.732 147.321 246.322 147.085 246.616C146.791 247.088 146.437 247.206 146.025 247.382C145.612 247.5 145.2 247.677 144.846 248.207C144.434 248.797 144.552 249.563 144.669 250.27C144.787 250.918 144.846 251.566 144.669 252.156C144.493 252.686 144.08 252.745 143.609 252.804C143.137 252.863 142.607 252.922 142.312 253.629C142.018 254.277 142.135 254.984 142.253 255.809C142.371 256.575 142.43 257.459 142.371 258.697C142.253 260.052 142.43 261.702 142.784 263.116C141.782 261.466 140.485 258.932 140.25 256.398C140.073 254.277 140.485 253.57 141.075 252.45C141.605 251.389 142.253 250.093 142.784 247.147C143.491 242.963 141.664 239.073 140.485 237.07C140.603 236.657 141.428 233.888 143.609 233.122L144.728 232.709C146.791 232.002 148.618 231.295 149.56 230.823C150.798 230.175 151.8 228.054 152.035 226.757C152.153 225.991 151.741 225.52 151.446 225.107C151.152 224.695 150.857 224.341 150.857 223.693C150.916 223.163 151.682 222.632 152.566 222.043C153.803 221.159 155.394 220.157 156.043 218.389C156.809 216.268 156.043 215.325 155.394 214.5C155.041 214.088 154.746 213.675 154.628 213.204L154.216 213.322C154.334 213.911 154.746 214.382 155.1 214.795C155.748 215.62 156.337 216.386 155.689 218.213C155.1 219.804 153.568 220.806 152.389 221.631C151.328 222.338 150.503 222.868 150.444 223.634C150.385 224.459 150.798 224.931 151.093 225.343C151.446 225.756 151.682 226.05 151.564 226.639C151.328 227.995 150.327 229.881 149.384 230.411C148.441 230.882 146.555 231.531 144.552 232.297L143.432 232.709C141.428 233.416 140.485 235.656 140.132 236.598C139.719 236.009 139.484 235.656 139.425 235.597C139.366 235.538 135.182 231.707 133.296 228.761C131.41 225.814 131.41 223.398 132.471 222.514C133.002 222.043 134.062 221.984 135.359 221.925C136.537 221.866 137.834 221.807 139.012 221.395C140.78 220.747 142.077 218.213 142.43 217.447C142.96 216.327 143.432 214.795 143.137 214.088C142.666 212.791 140.662 212.379 140.603 212.32L140.544 212.791C140.544 212.791 142.371 213.204 142.725 214.264C142.843 214.677 142.666 215.797 142.018 217.27C141.369 218.743 140.132 220.511 138.894 220.982C137.775 221.395 136.537 221.454 135.418 221.513C134.062 221.572 132.943 221.631 132.294 222.161C131.175 223.163 130.939 225.697 133.06 228.997C134.887 231.884 138.953 235.656 139.248 235.891C139.484 236.186 143.491 241.313 142.489 247.088C142.018 249.916 141.369 251.213 140.839 252.273C140.721 252.509 140.603 252.745 140.485 252.981C139.955 251.566 140.014 250.741 140.073 250.034C140.132 249.091 140.073 248.561 138.777 247.736C137.068 246.675 133.768 246.498 131.587 246.381C130.703 246.322 129.937 246.263 129.584 246.204C128.169 245.85 127.521 245.261 127.109 244.023C126.814 243.022 127.05 242.668 127.521 242.197C127.639 242.079 127.757 241.902 127.934 241.725C128.11 241.489 128.464 241.254 128.818 241.077C129.643 240.606 130.762 239.957 130.703 238.307C130.644 236.893 129.702 236.422 128.759 235.891C128.11 235.538 127.462 235.243 126.991 234.536C125.753 232.886 124.28 228.113 123.985 225.52C123.691 222.573 124.221 217.152 124.693 216.798C124.869 216.739 125.635 217.093 126.225 217.388C127.344 217.918 128.759 218.566 129.702 218.331C129.878 218.272 129.996 218.272 130.173 218.213C131.41 217.918 131.528 217.8 131.469 216.563C131.41 215.679 130.762 215.561 130.232 215.502C129.819 215.443 129.525 215.384 129.289 215.089C128.818 214.5 128.994 212.261 129.053 211.436L128.582 211.377C128.523 211.731 128.228 214.5 128.877 215.384C129.23 215.797 129.702 215.856 130.114 215.914C130.703 216.032 130.998 216.091 130.998 216.563C131.057 217.034 131.057 217.27 130.939 217.388C130.821 217.506 130.527 217.564 130.055 217.682C129.937 217.741 129.76 217.741 129.584 217.8C128.759 217.977 127.462 217.388 126.402 216.857C125.4 216.386 124.869 216.15 124.516 216.268C123.573 216.622 123.278 223.222 123.455 225.461C123.75 228.172 125.164 233.004 126.519 234.772C127.05 235.479 127.816 235.891 128.464 236.245C129.407 236.716 130.114 237.129 130.173 238.307C130.232 239.663 129.348 240.193 128.523 240.664C128.11 240.9 127.698 241.136 127.521 241.49C127.403 241.666 127.285 241.843 127.168 241.961C126.696 242.491 126.343 242.963 126.696 244.2C127.109 245.614 127.934 246.322 129.466 246.675C129.76 246.734 130.173 246.793 130.762 246.793C130.409 247.029 130.055 247.029 129.643 247.029C129.23 247.029 128.7 246.97 128.287 247.323C127.521 247.854 127.993 248.738 128.346 249.386C128.464 249.681 128.641 249.975 128.641 250.152C128.641 250.27 128.582 250.388 128.464 250.506C128.228 250.682 127.757 250.741 127.109 250.682C126.402 250.564 125.4 249.504 124.81 248.856C124.575 248.62 124.398 248.384 124.28 248.325C123.985 248.148 123.691 248.148 123.396 248.207C123.043 248.266 122.63 248.266 122.277 248.031C122.1 247.913 121.923 247.677 121.923 247.382C121.864 246.852 122.1 246.263 122.277 246.086C122.335 246.027 122.571 246.027 122.748 246.027C123.043 246.027 123.396 246.027 123.691 245.791C124.162 245.379 124.339 244.731 124.28 243.729C124.221 243.139 123.75 243.139 123.337 243.139C122.866 243.139 122.335 243.081 122.1 242.432C121.923 241.961 122.159 241.49 122.512 240.9C123.043 240.016 123.691 238.838 122.807 237.247C121.746 235.243 120.568 235.479 119.684 235.656C119.389 235.714 119.094 235.773 118.918 235.714C118.741 235.656 118.623 235.538 118.623 235.42C118.564 235.243 118.682 235.066 118.741 235.007L118.387 234.713C118.387 234.772 118.093 235.125 118.21 235.538C118.269 235.773 118.505 236.009 118.8 236.127C119.094 236.245 119.448 236.186 119.802 236.127C120.627 236.009 121.51 235.773 122.453 237.482C123.219 238.897 122.689 239.839 122.159 240.723C121.805 241.372 121.452 241.961 121.687 242.668C122.041 243.611 122.807 243.67 123.337 243.67C123.809 243.67 123.868 243.729 123.868 243.847C123.927 244.672 123.809 245.261 123.455 245.556C123.278 245.673 123.043 245.673 122.807 245.673C122.512 245.673 122.218 245.673 121.982 245.909C121.746 246.204 121.452 246.911 121.569 247.559C121.628 247.972 121.805 248.325 122.1 248.561C122.63 248.915 123.16 248.915 123.573 248.856C123.868 248.856 124.044 248.797 124.162 248.914C124.28 248.973 124.457 249.209 124.634 249.445C125.282 250.152 126.343 251.331 127.168 251.448C127.168 251.448 127.168 251.448 127.227 251.448C127.993 251.566 128.582 251.448 128.935 251.154C129.112 250.977 129.23 250.741 129.289 250.447C129.289 250.152 129.112 249.857 128.935 249.445C128.582 248.738 128.346 248.266 128.759 247.972C129.112 247.736 129.407 247.736 129.819 247.736C130.35 247.736 130.998 247.795 131.528 247.088C131.587 247.088 131.646 247.088 131.646 247.088C133.768 247.206 137.009 247.441 138.659 248.384C139.778 249.091 139.778 249.445 139.719 250.27C139.66 251.036 139.602 252.038 140.368 253.806C140.132 254.513 140.014 255.338 140.073 256.693C140.368 260.818 143.609 265.002 143.785 265.297C143.903 265.473 144.08 265.65 144.198 265.768C144.669 266.122 145.848 266.77 147.203 267.536C148.677 268.361 150.385 269.304 151.505 270.07C152.86 271.013 154.216 271.956 154.334 273.016C154.393 273.488 154.275 274.018 153.803 274.548C152.212 276.67 150.209 284.036 150.209 284.272L150.68 284.331C150.739 283.859 152.743 276.788 154.216 274.843C154.569 274.018 154.746 273.429 154.628 272.781Z" fill="url(#paint8_linear_3618_7766)"/>
<path d="M151.505 274.666C150.857 272.427 147.616 270.011 146.555 269.363C144.257 267.948 138.953 267.654 136.537 268.184C135.418 268.42 134.652 268.773 133.944 269.127C133.178 269.481 132.53 269.834 131.646 269.834C129.819 269.834 128.818 270.07 127.934 270.718C127.757 270.836 127.698 271.013 127.698 271.131C127.698 271.484 128.052 271.838 128.405 272.191C128.7 272.486 129.112 272.84 129.053 273.075C129.053 273.193 128.935 273.252 128.818 273.311C127.639 273.959 126.696 273.016 126.637 273.016L126.284 273.37C126.284 273.37 127.462 274.548 128.994 273.782C129.289 273.606 129.407 273.429 129.466 273.193C129.525 272.722 129.053 272.309 128.641 271.956C128.405 271.72 128.052 271.425 128.052 271.249L128.11 271.19C128.935 270.6 129.819 270.365 131.587 270.365C132.589 270.365 133.296 270.011 134.121 269.598C134.769 269.245 135.535 268.891 136.596 268.656C138.894 268.184 144.08 268.479 146.26 269.775C147.557 270.6 150.444 272.84 151.034 274.843C151.152 275.373 150.916 276.375 150.562 277.082C148.794 281.207 148.205 284.154 148.205 284.213L148.618 284.272C148.618 284.272 149.207 281.325 150.975 277.259C151.21 276.729 151.682 275.491 151.505 274.666Z" fill="url(#paint9_linear_3618_7766)"/>
<path d="M152.507 274.313C152.389 273.488 151.564 272.604 151.269 272.25C151.21 272.191 151.21 272.191 151.21 272.191C149.56 270.247 147.144 268.361 145.553 267.772C145.082 267.595 144.552 267.477 143.903 267.359C141.31 266.122 138.835 265.65 136.419 265.179C135.123 264.943 133.768 264.649 132.412 264.295C128.818 263.234 122.748 257.224 122.512 256.988C122.335 256.693 118.21 251.566 117.857 249.74C117.68 248.974 116.796 245.084 116.384 243.965C115.971 243.022 110.785 241.313 109.784 240.959C107.25 240.841 103.596 240.606 103.243 240.37C102.83 240.075 102.359 238.661 102.418 238.072C102.418 237.836 102.712 237.659 103.007 237.482C103.478 237.188 104.009 236.775 104.126 236.068C104.185 235.538 103.832 233.947 103.184 231.413C102.594 228.997 101.769 225.697 102.005 225.107C102.182 224.577 102.535 224.518 102.889 224.4C103.243 224.341 103.596 224.224 103.714 223.693C103.773 223.516 103.655 223.34 103.596 223.281C103.36 222.986 102.83 223.045 102.123 223.104C101.416 223.163 100.473 223.222 100.119 222.868L99.8247 223.222C100.355 223.693 101.298 223.634 102.123 223.575C102.535 223.575 103.125 223.516 103.243 223.634C103.184 223.87 103.125 223.929 102.771 223.988C102.418 224.106 101.887 224.224 101.593 224.99C101.357 225.638 101.887 227.995 102.771 231.531C103.243 233.534 103.773 235.597 103.714 236.009C103.655 236.54 103.184 236.834 102.771 237.129C102.359 237.424 102.005 237.659 101.946 238.072C101.828 238.779 102.359 240.429 102.948 240.841C103.419 241.195 108.193 241.431 109.725 241.49C112.671 242.433 115.853 243.729 116.03 244.2C116.384 245.025 117.032 247.677 117.503 249.916C117.916 251.861 122.1 257.106 122.276 257.341C122.571 257.636 128.641 263.706 132.353 264.825C133.709 265.238 135.064 265.474 136.419 265.709C138.364 266.063 140.368 266.475 142.371 267.241C141.252 267.124 140.014 267.065 138.835 266.947C137.834 266.888 136.891 266.829 136.184 266.711C130.585 266.122 127.462 265.238 125.4 263.824C123.101 262.232 116.207 256.163 115.676 255.456C115.382 255.043 115.264 254.631 115.087 254.041C114.969 253.629 114.851 253.157 114.616 252.627C113.732 250.682 110.491 248.62 108.075 247.088C106.837 246.263 105.777 245.615 105.541 245.261C105.187 244.731 105.305 244.377 105.482 243.906C105.6 243.552 105.776 243.199 105.776 242.727H105.305C105.305 243.14 105.187 243.434 105.01 243.729C104.775 244.259 104.598 244.731 105.069 245.497C105.364 245.909 106.366 246.557 107.721 247.441C110.019 248.915 113.26 250.977 114.026 252.804C114.262 253.275 114.38 253.747 114.498 254.159C114.675 254.749 114.793 255.22 115.146 255.691C115.735 256.399 122.63 262.527 124.987 264.118C127.109 265.591 130.232 266.475 135.948 267.065C136.655 267.124 137.598 267.182 138.6 267.3C141.075 267.477 143.903 267.713 145.318 268.184C146.85 268.715 149.207 270.6 150.798 272.486C150.798 272.486 150.857 272.545 150.857 272.604C151.151 272.899 151.918 273.782 151.976 274.431C152.094 275.079 151.623 276.375 150.975 278.084C150.385 279.734 149.619 281.797 148.971 284.272L149.384 284.39C150.032 281.915 150.798 279.911 151.387 278.261C152.153 276.316 152.625 275.079 152.507 274.313Z" fill="url(#paint10_linear_3618_7766)"/>
<path d="M105.246 211.259C105.187 211.613 104.834 212.143 104.421 212.732C103.714 213.852 102.83 215.089 103.361 216.032C103.655 216.563 104.362 217.034 105.246 217.623C106.778 218.625 108.723 219.921 109.489 222.279C110.727 225.991 113.909 232.65 113.968 232.709V232.768C114.027 232.827 117.916 238.071 116.561 243.139L116.973 243.257C118.328 238.072 114.675 232.945 114.321 232.532C114.321 232.473 114.203 232.297 114.086 232.061C114.616 231.943 115.794 231.589 116.619 230.529C117.209 229.704 117.444 228.761 117.327 227.523C117.032 225.461 116.089 223.516 115.205 221.807C114.439 220.334 113.791 219.096 113.85 218.154C113.909 217.329 114.38 217.211 114.969 217.034C115.677 216.857 116.561 216.563 116.737 215.03C116.914 213.38 115.794 212.673 114.852 212.084C114.144 211.613 113.673 211.318 113.732 210.788C113.85 209.314 115.971 207.252 115.971 207.252L115.677 206.898C115.618 206.957 113.437 209.079 113.319 210.729C113.261 211.554 113.968 212.025 114.675 212.438C115.559 212.968 116.502 213.557 116.325 214.913C116.207 216.15 115.559 216.327 114.852 216.504C114.203 216.68 113.496 216.916 113.378 217.977C113.319 219.038 113.968 220.334 114.734 221.866C115.618 223.516 116.561 225.402 116.796 227.405C116.914 228.466 116.737 229.409 116.207 230.057C115.441 231.059 114.262 231.354 113.85 231.413C112.907 229.468 110.844 224.813 109.843 221.984C109.018 219.509 106.896 218.095 105.423 217.093C104.598 216.563 103.95 216.091 103.714 215.679C103.302 214.972 104.068 213.793 104.716 212.85C105.187 212.202 105.541 211.613 105.6 211.2C105.659 210.552 105.069 209.609 104.303 208.489C103.655 207.488 102.889 206.368 102.771 205.543L102.3 205.602C102.418 206.545 103.184 207.664 103.891 208.725C104.657 209.845 105.305 210.847 105.246 211.259Z" fill="url(#paint11_linear_3618_7766)"/>
<path d="M149.914 276.198C149.384 274.961 147.793 273.959 146.673 273.193C146.202 272.898 145.848 272.663 145.671 272.486C145.494 272.309 145.494 272.132 145.435 271.956C145.318 271.425 145.141 270.954 144.021 270.482C142.312 269.775 138.187 269.422 136.832 270.306C136.302 270.659 136.243 271.131 136.243 271.425C136.361 272.368 137.48 273.193 138.541 273.547C139.248 273.782 139.307 274.548 139.366 275.315C139.425 275.963 139.484 276.67 139.955 277.023C140.309 277.259 140.427 277.495 140.368 277.672C140.309 277.907 139.896 278.202 138.953 278.32C137.657 278.438 135.653 277.907 135.594 277.907L135.477 278.379C135.535 278.379 137.598 278.909 139.012 278.791C140.014 278.673 140.662 278.32 140.78 277.79C140.898 277.377 140.662 276.965 140.191 276.611C139.837 276.375 139.837 275.845 139.778 275.256C139.719 274.431 139.66 273.429 138.659 273.134C137.598 272.781 136.714 272.015 136.655 271.366C136.655 271.072 136.773 270.895 137.009 270.718C138.187 270.011 142.018 270.247 143.785 270.954C144.787 271.366 144.846 271.72 144.964 272.073C145.023 272.309 145.082 272.604 145.377 272.84C145.553 273.016 145.966 273.311 146.437 273.606C147.498 274.254 149.03 275.315 149.56 276.375C149.914 277.141 149.502 277.966 148.971 279.145C148.5 280.265 147.852 281.62 147.557 283.506L148.028 283.565C148.264 281.797 148.912 280.441 149.384 279.322C149.914 278.143 150.327 277.2 149.914 276.198Z" fill="url(#paint12_linear_3618_7766)"/>
</g>
<path d="M165 183.504C186.545 183.504 204.011 174.112 204.011 162.525C204.011 150.939 186.545 141.547 165 141.547C143.455 141.547 125.989 150.939 125.989 162.525C125.989 174.112 143.455 183.504 165 183.504Z" fill="#2A697F"/>
<path d="M164.587 162.879C174.058 162.879 181.735 159.079 181.735 154.393C181.735 149.706 174.058 145.907 164.587 145.907C155.116 145.907 147.439 149.706 147.439 154.393C147.439 159.079 155.116 162.879 164.587 162.879Z" fill="#293C4F"/>
<path d="M164.587 147.91C173.367 147.91 180.557 151.151 181.558 155.335C181.617 154.982 181.676 154.687 181.676 154.333C181.676 149.678 174.016 145.848 164.528 145.848C155.041 145.848 147.38 149.619 147.38 154.333C147.38 154.687 147.439 155.04 147.498 155.335C148.617 151.21 155.866 147.91 164.587 147.91Z" fill="#DBDBDB"/>
<path d="M181.617 157.103L181.205 155.453C180.203 151.387 173.073 148.323 164.587 148.323C156.101 148.323 148.971 151.387 147.969 155.453L147.557 157.103L147.144 155.453C147.026 155.041 147.026 154.687 147.026 154.334C147.026 151.918 148.912 149.678 152.271 147.969C155.571 146.319 159.932 145.436 164.587 145.436C169.242 145.436 173.603 146.319 176.903 147.969C180.321 149.619 182.148 151.918 182.148 154.334C182.148 154.687 182.089 155.041 182.03 155.453L181.617 157.103ZM164.587 146.319C155.925 146.319 148.794 149.502 147.969 153.627C150.267 150.091 156.926 147.557 164.587 147.557C172.248 147.557 178.907 150.091 181.205 153.627C180.439 149.502 173.309 146.319 164.587 146.319Z" fill="#323A50"/>
<path d="M165.059 141.664C143.491 141.664 126.048 150.857 126.048 162.171C126.048 173.485 143.55 182.678 165.059 182.678C186.626 182.678 204.069 173.485 204.069 162.171C204.069 150.857 186.626 141.664 165.059 141.664ZM181.735 154.51C181.735 154.569 181.794 154.628 181.794 154.628C181.794 154.687 181.794 154.746 181.794 154.805C181.087 159.048 173.721 162.407 164.705 162.407C155.925 162.407 148.735 159.225 147.734 155.1C147.734 154.982 147.675 154.864 147.675 154.746C147.675 154.687 147.675 154.628 147.675 154.569C147.675 154.51 147.675 154.452 147.675 154.393C147.675 154.275 147.675 154.216 147.675 154.039C147.675 154.039 147.675 153.744 147.675 153.627C147.734 153.037 147.91 152.507 148.205 151.977C148.5 151.446 148.853 150.975 149.325 150.503H149.384C152.153 147.734 158.046 145.789 164.823 145.789C174.251 145.789 181.971 149.502 181.971 154.039H181.794C181.735 154.275 181.794 154.393 181.735 154.51Z" fill="#DBDBDB"/>
<path d="M165.059 183.091C154.569 183.091 144.728 180.97 137.303 177.022C129.819 173.073 125.694 167.77 125.694 162.172C125.694 156.573 129.819 151.27 137.303 147.322C144.728 143.432 154.569 141.252 165.059 141.252C175.548 141.252 185.389 143.373 192.814 147.322C200.298 151.27 204.423 156.573 204.423 162.172C204.423 167.77 200.298 173.073 192.814 177.022C185.389 180.97 175.548 183.091 165.059 183.091ZM165.059 142.077C143.785 142.077 126.46 151.093 126.46 162.172C126.46 173.25 143.785 182.266 165.059 182.266C186.332 182.266 203.657 173.25 203.657 162.172C203.657 151.093 186.332 142.077 165.059 142.077ZM164.705 162.879C155.866 162.879 148.382 159.638 147.321 155.277C147.321 155.159 147.262 155.041 147.262 154.923C147.262 154.864 147.262 154.806 147.203 154.747C147.203 154.688 147.203 154.688 147.203 154.629V154.57C147.203 154.452 147.203 154.393 147.203 154.216V153.804C147.203 153.804 147.203 153.804 147.203 153.745C147.262 153.156 147.439 152.566 147.793 151.977C148.087 151.447 148.441 150.916 148.971 150.386L149.03 150.327C151.976 147.381 157.987 145.554 164.764 145.554C169.419 145.554 173.78 146.438 177.08 148.029C180.498 149.679 182.325 151.859 182.325 154.275V154.688H182.207C182.207 154.747 182.207 154.747 182.207 154.806C182.207 154.864 182.207 154.923 182.207 154.982C181.441 159.402 173.898 162.879 164.705 162.879ZM147.969 154.157C147.969 154.275 147.969 154.334 147.969 154.452V154.57C147.969 154.629 147.969 154.629 147.969 154.688C147.969 154.747 147.969 154.806 147.969 154.864C147.969 154.982 148.028 155.041 148.028 155.159C149.03 159.166 156.16 162.113 164.646 162.113C173.309 162.113 180.616 158.931 181.323 154.864V154.806C181.323 154.747 181.264 154.688 181.323 154.629V154.57C181.323 154.511 181.323 154.452 181.323 154.334V153.922H181.5C181.323 152.036 179.614 150.209 176.726 148.854C173.544 147.322 169.301 146.438 164.764 146.438C158.341 146.438 152.33 148.206 149.619 151.034L149.56 151.093C149.089 151.564 148.735 152.036 148.559 152.448C148.264 152.979 148.146 153.45 148.087 153.922C148.028 153.863 147.969 154.098 147.969 154.157Z" fill="#323A50"/>
<g opacity="0.3">
<path d="M166.061 295.644C166.002 295.644 165.943 295.644 165.943 295.644C152.212 295.644 138.6 291.814 126.52 284.684H126.461L125.871 284.094C110.786 275.373 99.4714 261.761 93.1071 244.73C90.5732 238.13 89.0411 231.118 88.3928 223.221C88.2161 219.509 88.2161 216.032 88.3928 212.319C88.5696 208.666 89.1 204.953 90.0428 200.593C90.9857 196.173 92.4589 191.753 94.4625 187.098L95.2286 187.452C93.225 192.048 91.7518 196.409 90.8678 200.769C89.925 205.071 89.4536 208.725 89.2178 212.319C89.0411 215.973 89.0411 219.45 89.2178 223.103C89.8661 230.941 91.3982 237.894 93.8732 244.436C100.179 261.289 111.434 274.784 126.343 283.446H126.402L126.991 284.036C151.329 298.414 180.439 298.473 204.895 284.212C206.073 283.387 207.37 282.562 208.784 281.737C221.748 273.428 231.413 261.525 237.6 246.439C237.895 245.732 238.13 244.966 238.425 244.2C238.661 243.434 238.955 242.668 239.25 241.961C243.964 227.641 244.495 213.027 240.841 198.53V198.471C240.723 197.882 238.307 190.457 236.834 187.039L237.6 186.686C238.955 189.868 241.43 197.293 241.666 198.294C245.32 212.968 244.789 227.759 240.016 242.196V242.255C239.721 242.962 239.486 243.728 239.191 244.436C238.955 245.202 238.661 245.968 238.366 246.734C232.12 261.996 222.337 274.018 209.196 282.444C207.782 283.269 206.545 284.094 205.366 284.861C193.227 291.932 179.673 295.644 166.061 295.644Z" fill="#323A50"/>
</g>
<g opacity="0.35">
<path d="M243.021 153.391C239.25 148.087 233.121 145.671 224.93 146.26C220.216 146.614 216.091 147.852 214.441 148.441C214.323 148.264 214.146 148.028 213.91 147.91C215.384 147.38 219.803 145.907 224.93 145.553C233.298 144.964 239.721 147.498 243.61 152.919C244.259 153.568 263.175 173.014 269.126 186.096C270.718 189.573 273.841 189.337 279.616 188.984C284.389 188.689 290.93 188.277 299.769 189.75L299.651 190.398C290.93 188.925 284.448 189.337 279.675 189.632C273.841 189.985 270.305 190.221 268.537 186.332C263.646 175.607 250.092 160.639 245.025 155.277C246.792 159.932 245.732 167.534 241.842 177.964C238.13 187.923 231.884 200.534 223.221 215.384C220.039 220.923 216.68 226.285 213.498 231.412H212.673C215.914 226.285 219.332 220.687 222.573 215.089C241.96 181.735 249.032 160.462 243.021 153.391Z" fill="#323A50"/>
<path d="M218.212 153.567C217.976 153.155 216.68 151.151 216.444 150.798C216.444 150.562 217.741 151.623 217.623 151.446C217.505 151.033 217.034 150.621 216.562 150.503C216.444 150.032 216.385 149.796 215.855 149.678C215.855 149.501 215.325 149.619 215.266 149.442C216.503 150.503 218.035 151.976 218.86 153.273C222.396 159.578 217.564 179.025 204.482 211.082C201.594 218.153 198.589 225.166 195.819 231.294H195.053C207.134 203.951 223.398 163.291 218.212 153.567Z" fill="#323A50"/>
<path d="M213.911 147.851C214.029 147.91 214.205 148.028 214.323 148.145L218.271 146.613C216.386 147.085 214.854 147.556 213.911 147.851Z" fill="#323A50"/>
<path d="M215.678 149.442L225.873 145.494C225.461 145.494 224.989 145.553 224.518 145.553L215.384 149.089C215.502 149.266 215.561 149.324 215.678 149.442Z" fill="#323A50"/>
<path d="M216.621 150.915L230.116 145.67C229.821 145.611 229.527 145.611 229.232 145.611L216.327 150.62C216.327 150.679 216.386 150.738 216.386 150.738C216.445 150.797 216.562 150.856 216.621 150.915Z" fill="#323A50"/>
<path d="M217.8 152.33L233.357 146.319C233.121 146.26 232.885 146.202 232.65 146.143L217.564 151.977C217.623 152.094 217.741 152.212 217.8 152.33Z" fill="#323A50"/>
<path d="M218.448 153.744L235.714 147.085C235.537 147.026 235.36 146.967 235.125 146.85L218.271 153.332C218.389 153.509 218.448 153.626 218.448 153.744Z" fill="#323A50"/>
<path d="M219.096 155.394L237.894 148.146C237.717 148.087 237.6 147.969 237.423 147.852L219.037 154.982C219.037 155.1 219.037 155.218 219.096 155.394Z" fill="#323A50"/>
<path d="M219.273 156.749C219.273 156.867 219.273 156.985 219.273 157.103L239.603 149.265C239.485 149.147 239.309 149.089 239.191 148.971L219.273 156.631C219.273 156.69 219.273 156.749 219.273 156.749Z" fill="#323A50"/>
<path d="M219.391 158.694C219.391 158.753 219.391 158.871 219.391 158.93L241.136 150.562C241.018 150.444 240.9 150.385 240.782 150.268L219.391 158.518C219.332 158.577 219.391 158.635 219.391 158.694Z" fill="#323A50"/>
<path d="M219.214 160.344L242.078 151.563C242.196 151.681 242.255 151.799 242.373 151.917L219.214 160.815C219.214 160.638 219.214 160.521 219.214 160.344Z" fill="#323A50"/>
<path d="M219.096 162.288L243.198 152.978C243.257 153.036 243.316 153.154 243.434 153.331L219.037 162.76C219.096 162.583 219.096 162.406 219.096 162.288Z" fill="#323A50"/>
<path d="M218.919 164.174L244.141 154.451C244.2 154.569 244.259 154.687 244.318 154.805L218.86 164.646C218.86 164.469 218.86 164.292 218.919 164.174Z" fill="#323A50"/>
<path d="M218.566 166.119L244.789 156.042C244.848 156.16 244.848 156.337 244.907 156.454L218.507 166.649C218.566 166.472 218.566 166.296 218.566 166.119Z" fill="#323A50"/>
<path d="M218.271 167.946L245.202 157.574C245.202 157.692 245.261 157.869 245.261 157.987L218.212 168.417C218.212 168.24 218.212 168.122 218.271 167.946Z" fill="#323A50"/>
<path d="M217.8 169.949L245.32 159.342C245.32 159.46 245.32 159.636 245.32 159.754L217.682 170.42C217.741 170.302 217.8 170.126 217.8 169.949Z" fill="#323A50"/>
<path d="M217.388 171.953L245.438 161.169C245.438 161.287 245.438 161.464 245.438 161.64L217.329 172.483C217.27 172.306 217.329 172.13 217.388 171.953Z" fill="#323A50"/>
<path d="M216.857 174.015L245.32 163.055C245.32 163.173 245.32 163.349 245.261 163.526L216.739 174.546C216.798 174.31 216.857 174.192 216.857 174.015Z" fill="#323A50"/>
<path d="M216.385 175.96L245.084 164.882C245.084 165.059 245.025 165.176 245.025 165.353L216.268 176.432C216.268 176.255 216.327 176.137 216.385 175.96Z" fill="#323A50"/>
<path d="M215.796 178.022L244.789 166.885C244.789 167.062 244.73 167.179 244.671 167.356L215.678 178.553C215.678 178.376 215.737 178.199 215.796 178.022Z" fill="#323A50"/>
<path d="M215.148 180.085L244.318 168.83C244.259 169.007 244.259 169.184 244.2 169.302L215.03 180.557C215.089 180.38 215.148 180.203 215.148 180.085Z" fill="#323A50"/>
<path d="M214.559 182.147L243.787 170.833C243.728 171.01 243.728 171.187 243.669 171.304L214.382 182.619C214.441 182.501 214.5 182.324 214.559 182.147Z" fill="#323A50"/>
<path d="M213.911 184.093L243.198 172.778C243.139 172.955 243.08 173.132 243.08 173.25L213.734 184.564C213.852 184.446 213.852 184.269 213.911 184.093Z" fill="#323A50"/>
<path d="M213.262 186.214L242.609 174.899C242.55 175.076 242.491 175.253 242.432 175.43L213.085 186.744C213.144 186.567 213.203 186.39 213.262 186.214Z" fill="#323A50"/>
<path d="M212.555 188.276L241.902 176.962C241.843 177.139 241.784 177.315 241.725 177.492L212.438 188.807C212.438 188.63 212.496 188.453 212.555 188.276Z" fill="#323A50"/>
<path d="M211.789 190.457L241.077 179.143C241.018 179.319 240.959 179.496 240.9 179.673L211.671 190.987C211.73 190.751 211.73 190.575 211.789 190.457Z" fill="#323A50"/>
<path d="M211.082 192.519L240.252 181.264C240.193 181.44 240.134 181.617 240.075 181.794L210.905 193.049C210.964 192.873 211.023 192.696 211.082 192.519Z" fill="#323A50"/>
<path d="M210.316 194.699L239.368 183.503C239.309 183.68 239.25 183.857 239.132 184.033L210.08 195.23C210.198 195.053 210.257 194.876 210.316 194.699Z" fill="#323A50"/>
<path d="M209.55 196.762L238.484 185.624C238.425 185.801 238.366 185.978 238.248 186.154L209.373 197.292C209.432 197.115 209.491 196.997 209.55 196.762Z" fill="#323A50"/>
<path d="M208.784 198.825L237.482 187.746C237.423 187.923 237.305 188.1 237.246 188.276L208.607 199.355C208.666 199.178 208.725 199.001 208.784 198.825Z" fill="#323A50"/>
<path d="M208.077 200.828L236.598 189.809C236.539 189.985 236.421 190.162 236.362 190.339L207.9 201.3C207.9 201.182 207.959 201.005 208.077 200.828Z" fill="#323A50"/>
<path d="M207.192 203.008L235.478 192.106C235.419 192.283 235.301 192.46 235.242 192.637L207.016 203.539C207.075 203.362 207.133 203.185 207.192 203.008Z" fill="#323A50"/>
<path d="M206.368 205.13L234.418 194.287C234.359 194.464 234.241 194.641 234.123 194.817L206.132 205.601C206.25 205.484 206.309 205.307 206.368 205.13Z" fill="#323A50"/>
<path d="M205.543 207.31L233.298 196.585C233.239 196.762 233.121 196.939 233.004 197.115L205.307 207.781C205.425 207.664 205.484 207.487 205.543 207.31Z" fill="#323A50"/>
<path d="M204.718 209.313L232.237 198.706C232.119 198.883 232.061 199.06 231.943 199.236L204.482 209.785C204.6 209.667 204.659 209.49 204.718 209.313Z" fill="#323A50"/>
<path d="M203.952 211.317L231.177 200.828C231.059 201.005 231 201.182 230.882 201.358L203.716 211.848C203.775 211.671 203.834 211.494 203.952 211.317Z" fill="#323A50"/>
<path d="M203.009 213.557L229.939 203.186C229.821 203.362 229.762 203.539 229.645 203.716L202.832 214.087C202.891 213.911 202.95 213.734 203.009 213.557Z" fill="#323A50"/>
<path d="M202.125 215.677L228.702 205.424C228.584 205.601 228.525 205.777 228.407 205.954L201.948 216.149C202.007 216.031 202.066 215.854 202.125 215.677Z" fill="#323A50"/>
<path d="M201.241 217.918L227.405 207.841C227.288 208.018 227.229 208.194 227.111 208.371L201.005 218.448C201.064 218.271 201.182 218.094 201.241 217.918Z" fill="#323A50"/>
<path d="M200.298 220.098L226.109 210.139C225.991 210.315 225.932 210.492 225.814 210.669L200.121 220.569C200.18 220.451 200.239 220.333 200.298 220.098Z" fill="#323A50"/>
<path d="M199.473 222.16L224.93 212.319C224.812 212.496 224.753 212.673 224.636 212.85L199.237 222.632C199.296 222.514 199.355 222.337 199.473 222.16Z" fill="#323A50"/>
<path d="M198.53 224.34L223.575 214.676C223.457 214.853 223.398 215.029 223.221 215.265L198.235 224.929C198.353 224.694 198.412 224.517 198.53 224.34Z" fill="#323A50"/>
<path d="M197.587 226.521L222.219 217.033C222.101 217.21 221.984 217.387 221.866 217.622L197.292 227.11C197.41 226.874 197.528 226.697 197.587 226.521Z" fill="#323A50"/>
<path d="M196.644 228.76L220.864 219.391C220.746 219.567 220.628 219.744 220.51 219.98L196.409 229.291C196.468 229.114 196.527 228.937 196.644 228.76Z" fill="#323A50"/>
<path d="M195.76 230.823L219.568 221.63C219.45 221.807 219.332 222.042 219.214 222.219L195.466 231.353C195.584 231.176 195.643 231 195.76 230.823Z" fill="#323A50"/>
<path d="M196.703 232.119L218.271 223.811C218.153 223.987 218.035 224.223 217.917 224.4L197.764 232.178C197.41 232.119 197.057 232.119 196.703 232.119Z" fill="#323A50"/>
<path d="M201.477 232.119L216.798 226.227C216.68 226.403 216.562 226.639 216.444 226.816L202.655 232.119C202.302 232.119 201.889 232.119 201.477 232.119Z" fill="#323A50"/>
<path d="M206.368 232.06L215.325 228.583C215.207 228.76 215.089 228.996 214.971 229.172L207.546 232.001C207.193 232.06 206.78 232.06 206.368 232.06Z" fill="#323A50"/>
<path d="M211.318 232.001L213.852 230.999C213.734 231.176 213.616 231.412 213.498 231.588L212.438 232.001C212.025 232.001 211.671 232.001 211.318 232.001Z" fill="#323A50"/>
</g>
<path d="M263.587 189.632C261.702 183.386 256.752 179.143 248.737 177.081C244.141 175.902 239.898 175.784 238.071 175.784C238.012 175.548 237.894 175.313 237.718 175.136C239.309 175.077 243.905 175.136 248.855 176.432C256.928 178.554 262.232 183.032 264.118 189.397C264.53 190.222 276.139 214.736 277.612 229.056C278.025 232.827 281.089 233.652 286.628 235.184C291.225 236.422 297.589 238.19 305.427 242.373L305.132 242.963C297.353 238.779 291.048 237.07 286.452 235.832C280.794 234.3 277.377 233.357 276.964 229.115C275.786 217.388 267.712 198.884 264.707 192.166C264.884 197.116 261.466 203.952 254.394 212.615C247.677 220.865 237.718 230.765 224.694 242.079C219.921 246.263 215.03 250.329 210.316 254.1L209.55 253.865C214.264 250.093 219.273 245.85 224.223 241.548C253.452 216.15 267.005 198.236 263.587 189.632Z" fill="#323A50"/>
<path d="M240.075 181.854C240.016 181.382 239.426 179.084 239.25 178.671C239.309 178.436 240.193 179.85 240.134 179.673C240.134 179.202 239.839 178.73 239.426 178.436C239.485 177.964 239.485 177.729 239.014 177.434C239.073 177.257 238.543 177.198 238.484 177.021C239.309 178.436 240.31 180.263 240.605 181.795C241.96 188.925 231.118 205.779 208.371 231.884C203.362 237.659 198.294 243.316 193.698 248.207L192.991 247.971C213.38 225.991 241.843 192.696 240.075 181.854Z" fill="#323A50"/>
<path d="M237.835 175.077C237.953 175.195 238.012 175.313 238.13 175.431L242.373 175.254C240.428 175.077 238.837 175.077 237.835 175.077Z" fill="#323A50"/>
<path d="M238.955 177.139L249.857 176.668C249.444 176.55 249.032 176.432 248.56 176.314L238.778 176.727C238.896 176.845 238.896 176.963 238.955 177.139Z" fill="#323A50"/>
<path d="M239.368 178.79L253.864 178.2C253.569 178.082 253.334 177.965 253.039 177.847L239.191 178.377C239.191 178.436 239.191 178.495 239.191 178.554C239.309 178.613 239.368 178.731 239.368 178.79Z" fill="#323A50"/>
<path d="M240.075 180.498L256.752 179.85C256.575 179.732 256.339 179.555 256.162 179.438L239.957 180.086C240.016 180.204 240.016 180.38 240.075 180.498Z" fill="#323A50"/>
<path d="M240.251 182.09L258.755 181.324C258.637 181.206 258.46 181.029 258.284 180.911L240.251 181.618C240.251 181.854 240.251 181.972 240.251 182.09Z" fill="#323A50"/>
<path d="M240.311 183.799L260.405 182.974C260.287 182.856 260.169 182.679 260.052 182.562L240.311 183.386C240.311 183.563 240.311 183.681 240.311 183.799Z" fill="#323A50"/>
<path d="M240.075 185.212C240.016 185.33 240.016 185.448 239.957 185.566L261.702 184.682C261.643 184.564 261.525 184.387 261.407 184.27L240.075 185.153C240.075 185.153 240.075 185.154 240.075 185.212Z" fill="#323A50"/>
<path d="M239.485 187.04C239.485 187.099 239.426 187.216 239.426 187.275L262.703 186.332C262.644 186.215 262.585 186.038 262.467 185.92L239.544 186.863C239.544 186.922 239.544 186.981 239.485 187.04Z" fill="#323A50"/>
<path d="M238.837 188.631L263.292 187.629C263.351 187.747 263.41 187.924 263.469 188.041L238.66 189.043C238.719 188.866 238.778 188.749 238.837 188.631Z" fill="#323A50"/>
<path d="M238.071 190.34L263.882 189.279C263.941 189.397 263.941 189.515 264 189.692L237.895 190.753C237.953 190.635 238.012 190.517 238.071 190.34Z" fill="#323A50"/>
<path d="M237.305 192.048L264.294 190.929C264.294 191.047 264.353 191.223 264.353 191.341L237.069 192.461C237.128 192.343 237.246 192.225 237.305 192.048Z" fill="#323A50"/>
<path d="M236.362 193.876L264.412 192.756C264.412 192.874 264.412 193.051 264.412 193.168L236.126 194.288C236.244 194.111 236.303 193.993 236.362 193.876Z" fill="#323A50"/>
<path d="M235.478 195.467L264.294 194.288C264.294 194.406 264.236 194.583 264.236 194.701L235.243 195.879C235.302 195.761 235.361 195.585 235.478 195.467Z" fill="#323A50"/>
<path d="M234.417 197.234L263.941 196.056C263.882 196.174 263.882 196.35 263.823 196.468L234.182 197.647C234.241 197.529 234.358 197.352 234.417 197.234Z" fill="#323A50"/>
<path d="M233.357 199.002L263.41 197.765C263.351 197.883 263.293 198.059 263.234 198.177L233.121 199.415C233.18 199.238 233.239 199.12 233.357 199.002Z" fill="#323A50"/>
<path d="M232.178 200.77L262.644 199.532C262.585 199.65 262.526 199.827 262.467 199.945L231.942 201.182C232.001 201.064 232.119 200.888 232.178 200.77Z" fill="#323A50"/>
<path d="M231.117 202.42L261.878 201.183C261.819 201.3 261.76 201.477 261.642 201.595L230.823 202.833C230.941 202.715 231 202.538 231.117 202.42Z" fill="#323A50"/>
<path d="M229.88 204.188L260.936 202.95C260.877 203.068 260.759 203.245 260.7 203.363L229.645 204.6C229.703 204.482 229.762 204.364 229.88 204.188Z" fill="#323A50"/>
<path d="M228.642 205.955L259.874 204.718C259.816 204.836 259.698 205.012 259.58 205.13L228.348 206.368C228.466 206.191 228.524 206.073 228.642 205.955Z" fill="#323A50"/>
<path d="M227.346 207.724L258.696 206.486C258.578 206.604 258.519 206.781 258.401 206.899L227.051 208.136C227.169 208.018 227.287 207.901 227.346 207.724Z" fill="#323A50"/>
<path d="M226.168 209.373L257.577 208.136C257.459 208.254 257.4 208.43 257.282 208.548L225.873 209.786C225.991 209.609 226.05 209.491 226.168 209.373Z" fill="#323A50"/>
<path d="M224.812 211.142L256.221 209.904C256.103 210.022 256.044 210.199 255.867 210.317L224.458 211.554C224.635 211.436 224.753 211.26 224.812 211.142Z" fill="#323A50"/>
<path d="M223.516 212.909L254.925 211.672C254.807 211.79 254.689 211.967 254.571 212.084L223.162 213.322C223.28 213.145 223.398 213.027 223.516 212.909Z" fill="#323A50"/>
<path d="M222.16 214.677L253.51 213.439C253.392 213.557 253.275 213.734 253.157 213.852L221.807 215.089C221.924 214.972 222.042 214.795 222.16 214.677Z" fill="#323A50"/>
<path d="M220.746 216.445L251.978 215.207C251.86 215.325 251.743 215.502 251.625 215.62L220.393 216.857C220.569 216.739 220.628 216.562 220.746 216.445Z" fill="#323A50"/>
<path d="M219.332 218.213L250.446 216.976C250.328 217.093 250.21 217.27 250.092 217.388L219.037 218.626C219.096 218.508 219.214 218.39 219.332 218.213Z" fill="#323A50"/>
<path d="M217.918 219.981L248.855 218.743C248.737 218.861 248.56 219.038 248.443 219.156L217.564 220.393C217.682 220.216 217.8 220.099 217.918 219.981Z" fill="#323A50"/>
<path d="M216.562 221.631L247.323 220.394C247.205 220.511 247.028 220.688 246.91 220.806L216.208 222.044C216.326 221.926 216.444 221.808 216.562 221.631Z" fill="#323A50"/>
<path d="M215.207 223.28L245.791 222.043C245.673 222.161 245.496 222.338 245.378 222.455L214.853 223.693C214.971 223.575 215.089 223.457 215.207 223.28Z" fill="#323A50"/>
<path d="M213.733 225.108L244.023 223.87C243.905 223.988 243.728 224.165 243.61 224.283L213.38 225.52C213.498 225.343 213.616 225.225 213.733 225.108Z" fill="#323A50"/>
<path d="M212.26 226.817L242.314 225.579C242.196 225.697 242.019 225.874 241.901 225.992L211.907 227.17C212.025 227.111 212.142 226.993 212.26 226.817Z" fill="#323A50"/>
<path d="M210.728 228.643L240.487 227.465C240.369 227.583 240.192 227.759 240.075 227.877L210.375 229.056C210.492 228.938 210.669 228.761 210.728 228.643Z" fill="#323A50"/>
<path d="M209.314 230.293L238.778 229.114C238.66 229.232 238.484 229.409 238.307 229.527L208.901 230.705C209.078 230.587 209.196 230.411 209.314 230.293Z" fill="#323A50"/>
<path d="M207.899 231.943L237.069 230.765C236.951 230.883 236.774 231.059 236.598 231.177L207.546 232.356C207.664 232.179 207.782 232.061 207.899 231.943Z" fill="#323A50"/>
<path d="M206.368 233.711L235.184 232.532C235.066 232.65 234.889 232.827 234.712 232.945L206.014 234.123C206.132 234.005 206.25 233.888 206.368 233.711Z" fill="#323A50"/>
<path d="M204.836 235.479L233.298 234.359C233.121 234.477 233.003 234.654 232.827 234.772L204.482 235.892C204.6 235.774 204.718 235.597 204.836 235.479Z" fill="#323A50"/>
<path d="M203.245 237.247L231.295 236.127C231.118 236.245 231 236.422 230.823 236.539L202.832 237.659C203.009 237.541 203.127 237.423 203.245 237.247Z" fill="#323A50"/>
<path d="M201.653 239.074L229.291 237.954C229.114 238.072 228.996 238.249 228.819 238.367L201.241 239.486C201.418 239.368 201.535 239.25 201.653 239.074Z" fill="#323A50"/>
<path d="M200.239 240.723L227.523 239.604C227.346 239.721 227.169 239.898 227.051 240.016L199.885 241.136C199.944 241.018 200.121 240.841 200.239 240.723Z" fill="#323A50"/>
<path d="M198.648 242.491L225.461 241.431C225.284 241.549 225.107 241.725 224.989 241.843L198.294 242.904C198.353 242.786 198.471 242.668 198.648 242.491Z" fill="#323A50"/>
<path d="M197.057 244.259L223.457 243.198C223.28 243.316 223.103 243.493 222.985 243.611L196.703 244.671C196.762 244.554 196.88 244.436 197.057 244.259Z" fill="#323A50"/>
<path d="M195.407 246.086L221.335 245.025C221.158 245.143 220.982 245.32 220.864 245.438L194.994 246.499C195.171 246.381 195.289 246.204 195.407 246.086Z" fill="#323A50"/>
<path d="M193.934 247.737L219.45 246.676C219.273 246.794 219.096 246.97 218.978 247.088L193.58 248.09C193.639 248.031 193.757 247.854 193.934 247.737Z" fill="#323A50"/>
<path d="M194.346 249.268L217.446 248.325C217.269 248.443 217.093 248.62 216.916 248.738L195.348 249.622C195.053 249.563 194.7 249.445 194.346 249.268Z" fill="#323A50"/>
<path d="M198.942 250.859L215.383 250.211C215.207 250.329 215.03 250.506 214.853 250.623L200.062 251.213C199.708 251.095 199.296 250.977 198.942 250.859Z" fill="#323A50"/>
<path d="M203.598 252.332L213.203 251.92C213.026 252.038 212.849 252.215 212.673 252.332L204.717 252.686C204.364 252.568 204.01 252.45 203.598 252.332Z" fill="#323A50"/>
<path d="M208.253 253.865L210.964 253.747C210.787 253.865 210.611 254.042 210.434 254.16L209.314 254.219C208.961 254.16 208.607 253.983 208.253 253.865Z" fill="#323A50"/>
<g opacity="0.35">
<path d="M89.7482 153.391C93.5196 148.087 99.6482 145.671 107.839 146.26C112.554 146.614 116.679 147.852 118.329 148.441C118.446 148.264 118.623 148.028 118.859 147.91C117.386 147.38 112.966 145.907 107.839 145.553C99.4714 144.964 93.0482 147.498 89.1589 152.919C88.5107 153.568 69.5946 173.014 63.6429 186.096C62.0518 189.573 58.9286 189.337 53.1536 188.984C48.3804 188.689 41.8393 188.277 33 189.75L33.1179 190.398C41.8393 188.925 48.3214 189.337 53.0946 189.632C58.9286 189.985 62.4643 190.221 64.2321 186.332C69.1232 175.607 82.6768 160.639 87.7446 155.277C85.9768 159.932 87.0375 167.534 90.9268 177.964C94.6393 187.923 100.886 200.534 109.548 215.384C112.73 220.923 116.089 226.285 119.271 231.412H120.096C116.855 226.285 113.437 220.687 110.196 215.089C90.8089 181.735 83.6786 160.462 89.7482 153.391Z" fill="#323A50"/>
<path d="M114.498 153.567C114.734 153.155 116.03 151.151 116.266 150.798C116.266 150.562 114.97 151.623 115.088 151.446C115.205 151.033 115.677 150.621 116.148 150.503C116.266 150.032 116.325 149.796 116.855 149.678C116.855 149.501 117.386 149.619 117.445 149.442C116.207 150.503 114.675 151.976 113.85 153.273C110.314 159.578 115.147 179.025 128.229 211.082C131.116 218.153 134.122 225.166 136.891 231.294H137.657C125.577 203.951 109.372 163.291 114.498 153.567Z" fill="#323A50"/>
<path d="M118.8 147.851C118.682 147.91 118.506 148.028 118.388 148.145L114.439 146.613C116.325 147.085 117.857 147.556 118.8 147.851Z" fill="#323A50"/>
<path d="M117.091 149.442L106.896 145.494C107.309 145.494 107.78 145.553 108.252 145.553L117.386 149.089C117.209 149.266 117.15 149.324 117.091 149.442Z" fill="#323A50"/>
<path d="M116.148 150.916L102.595 145.73C102.889 145.671 103.184 145.671 103.479 145.671L116.384 150.68C116.384 150.739 116.325 150.798 116.325 150.798C116.266 150.798 116.207 150.857 116.148 150.916Z" fill="#323A50"/>
<path d="M114.97 152.33L99.4126 146.319C99.6483 146.26 99.884 146.202 100.12 146.143L115.205 151.977C115.088 152.094 115.029 152.212 114.97 152.33Z" fill="#323A50"/>
<path d="M114.263 153.744L96.9966 147.085C97.1734 147.026 97.3502 146.967 97.5859 146.85L114.439 153.332C114.322 153.509 114.322 153.626 114.263 153.744Z" fill="#323A50"/>
<path d="M113.673 155.394L94.875 148.146C95.0518 148.087 95.1696 147.969 95.3464 147.852L113.732 154.982C113.732 155.1 113.673 155.218 113.673 155.394Z" fill="#323A50"/>
<path d="M113.438 156.749C113.438 156.867 113.438 156.985 113.438 157.103L93.1074 149.265C93.2253 149.147 93.4021 149.089 93.5199 148.971L113.438 156.631C113.438 156.69 113.438 156.749 113.438 156.749Z" fill="#323A50"/>
<path d="M113.32 158.694C113.32 158.753 113.32 158.871 113.32 158.93L91.6343 150.562C91.7521 150.444 91.87 150.385 91.9879 150.268L113.379 158.518C113.379 158.577 113.379 158.635 113.32 158.694Z" fill="#323A50"/>
<path d="M113.497 160.344L90.6325 151.563C90.5147 151.681 90.4557 151.799 90.3379 151.917L113.497 160.815C113.497 160.638 113.497 160.521 113.497 160.344Z" fill="#323A50"/>
<path d="M113.614 162.288L89.5126 152.978C89.4536 153.036 89.3947 153.154 89.2769 153.331L113.673 162.76C113.673 162.583 113.614 162.406 113.614 162.288Z" fill="#323A50"/>
<path d="M113.85 164.174L88.6289 154.451C88.57 154.569 88.5111 154.687 88.4521 154.805L113.909 164.646C113.85 164.469 113.85 164.292 113.85 164.174Z" fill="#323A50"/>
<path d="M114.145 166.119L87.9216 156.042C87.8626 156.16 87.8626 156.337 87.8037 156.454L114.204 166.649C114.204 166.472 114.145 166.296 114.145 166.119Z" fill="#323A50"/>
<path d="M114.499 167.946L87.5682 157.574C87.5682 157.692 87.5093 157.869 87.5093 157.987L114.557 168.417C114.557 168.24 114.499 168.122 114.499 167.946Z" fill="#323A50"/>
<path d="M114.911 169.949L87.3911 159.342C87.3911 159.46 87.3911 159.636 87.3911 159.754L115.029 170.42C114.97 170.302 114.911 170.126 114.911 169.949Z" fill="#323A50"/>
<path d="M115.323 171.953L87.2734 161.11C87.2734 161.228 87.2734 161.405 87.2734 161.582L115.382 172.425C115.441 172.307 115.382 172.13 115.323 171.953Z" fill="#323A50"/>
<path d="M115.854 174.015L87.3911 163.055C87.3911 163.173 87.3911 163.349 87.45 163.526L115.971 174.546C115.913 174.31 115.913 174.192 115.854 174.015Z" fill="#323A50"/>
<path d="M116.384 175.96L87.686 164.882C87.686 165.059 87.745 165.176 87.745 165.353L116.502 176.432C116.443 176.255 116.384 176.137 116.384 175.96Z" fill="#323A50"/>
<path d="M116.973 178.022L87.9805 166.885C87.9805 167.062 88.0394 167.179 88.0983 167.356L117.091 178.553C117.032 178.376 117.032 178.199 116.973 178.022Z" fill="#323A50"/>
<path d="M117.563 180.085L88.3931 168.83C88.452 169.007 88.452 169.184 88.5109 169.302L117.681 180.557C117.681 180.38 117.622 180.203 117.563 180.085Z" fill="#323A50"/>
<path d="M118.211 182.147L88.9824 170.833C89.0414 171.01 89.0413 171.187 89.1003 171.304L118.388 182.619C118.27 182.501 118.27 182.324 118.211 182.147Z" fill="#323A50"/>
<path d="M118.8 184.093L89.5127 172.778C89.5716 172.955 89.6306 173.132 89.6306 173.25L118.977 184.564C118.918 184.446 118.859 184.269 118.8 184.093Z" fill="#323A50"/>
<path d="M119.508 186.214L90.1611 174.899C90.2201 175.076 90.279 175.253 90.3379 175.43L119.684 186.744C119.566 186.567 119.566 186.39 119.508 186.214Z" fill="#323A50"/>
<path d="M120.215 188.276L90.8682 176.962C90.9271 177.139 90.986 177.315 91.045 177.492L120.332 188.807C120.332 188.63 120.274 188.453 120.215 188.276Z" fill="#323A50"/>
<path d="M120.922 190.457L91.6343 179.143C91.6932 179.319 91.7521 179.496 91.8111 179.673L121.04 190.987C121.04 190.751 120.981 190.575 120.922 190.457Z" fill="#323A50"/>
<path d="M121.629 192.519L92.459 181.264C92.5179 181.44 92.5768 181.617 92.6358 181.794L121.805 193.049C121.805 192.873 121.746 192.696 121.629 192.519Z" fill="#323A50"/>
<path d="M122.395 194.699L93.3433 183.503C93.4022 183.68 93.4611 183.857 93.579 184.033L122.631 195.23C122.513 195.053 122.454 194.876 122.395 194.699Z" fill="#323A50"/>
<path d="M123.161 196.762L94.2271 185.624C94.286 185.801 94.3449 185.978 94.4628 186.154L123.338 197.292C123.338 197.115 123.279 196.997 123.161 196.762Z" fill="#323A50"/>
<path d="M123.927 198.825L95.229 187.746C95.2879 187.923 95.4058 188.1 95.4647 188.276L124.163 199.355C124.045 199.178 123.986 199.001 123.927 198.825Z" fill="#323A50"/>
<path d="M124.693 200.828L96.1719 189.809C96.2308 189.985 96.3487 190.162 96.4076 190.339L124.87 201.3C124.811 201.182 124.752 201.005 124.693 200.828Z" fill="#323A50"/>
<path d="M125.518 203.008L97.2324 192.106C97.2914 192.283 97.4092 192.46 97.4681 192.637L125.754 203.539C125.636 203.362 125.577 203.185 125.518 203.008Z" fill="#323A50"/>
<path d="M126.343 205.13L98.293 194.287C98.3519 194.464 98.4698 194.641 98.5876 194.817L126.579 205.601C126.461 205.484 126.402 205.307 126.343 205.13Z" fill="#323A50"/>
<path d="M127.168 207.31L99.4126 196.585C99.4715 196.762 99.5894 196.939 99.7072 197.115L127.404 207.84C127.345 207.664 127.286 207.487 127.168 207.31Z" fill="#323A50"/>
<path d="M127.993 209.313L100.474 198.706C100.591 198.883 100.65 199.06 100.768 199.236L128.229 209.785C128.17 209.667 128.052 209.49 127.993 209.313Z" fill="#323A50"/>
<path d="M128.818 211.317L101.593 200.828C101.711 201.005 101.77 201.182 101.888 201.358L129.054 211.848C128.936 211.671 128.877 211.494 128.818 211.317Z" fill="#323A50"/>
<path d="M129.702 213.557L102.771 203.186C102.889 203.362 102.948 203.539 103.066 203.716L129.879 214.087C129.82 213.911 129.761 213.734 129.702 213.557Z" fill="#323A50"/>
<path d="M130.586 215.677L104.009 205.424C104.127 205.601 104.186 205.777 104.304 205.954L130.763 216.149C130.704 216.031 130.645 215.854 130.586 215.677Z" fill="#323A50"/>
<path d="M131.47 217.918L105.306 207.841C105.424 208.018 105.482 208.194 105.6 208.371L131.706 218.448C131.647 218.271 131.588 218.094 131.47 217.918Z" fill="#323A50"/>
<path d="M132.413 220.098L106.602 210.139C106.72 210.315 106.779 210.492 106.897 210.669L132.59 220.569C132.531 220.451 132.472 220.333 132.413 220.098Z" fill="#323A50"/>
<path d="M133.297 222.16L107.839 212.319C107.957 212.496 108.016 212.673 108.134 212.85L133.532 222.632C133.414 222.514 133.355 222.337 133.297 222.16Z" fill="#323A50"/>
<path d="M134.239 224.34L109.195 214.676C109.313 214.853 109.372 215.029 109.548 215.265L134.534 224.929C134.357 224.694 134.298 224.517 134.239 224.34Z" fill="#323A50"/>
<path d="M135.123 226.521L110.491 217.033C110.609 217.21 110.727 217.387 110.845 217.622L135.418 227.11C135.3 226.874 135.241 226.697 135.123 226.521Z" fill="#323A50"/>
<path d="M136.125 228.76L111.906 219.391C112.024 219.567 112.141 219.744 112.259 219.98L136.361 229.291C136.243 229.114 136.184 228.937 136.125 228.76Z" fill="#323A50"/>
<path d="M137.009 230.823L113.202 221.63C113.32 221.807 113.438 222.042 113.556 222.219L137.304 231.353C137.127 231.176 137.068 231 137.009 230.823Z" fill="#323A50"/>
<path d="M136.066 232.119L114.499 223.811C114.616 223.987 114.734 224.223 114.852 224.4L135.006 232.178C135.3 232.119 135.654 232.119 136.066 232.119Z" fill="#323A50"/>
<path d="M131.234 232.119L115.913 226.227C116.03 226.403 116.148 226.639 116.266 226.816L130.055 232.119C130.468 232.119 130.822 232.119 131.234 232.119Z" fill="#323A50"/>
<path d="M126.343 232.06L117.386 228.583C117.504 228.76 117.621 228.996 117.739 229.172L125.164 232.001C125.518 232.06 125.93 232.06 126.343 232.06Z" fill="#323A50"/>
<path d="M121.393 232.001L118.859 230.999C118.977 231.176 119.095 231.412 119.213 231.588L120.274 232.001C120.686 232.001 121.04 232.001 121.393 232.001Z" fill="#323A50"/>
</g>
<path d="M69.123 189.632C71.0087 183.386 75.9587 179.143 83.973 177.081C88.5694 175.902 92.8123 175.784 94.6391 175.784C94.698 175.548 94.8158 175.313 94.9926 175.136C93.4016 175.077 88.8051 175.136 83.8551 176.432C75.7819 178.554 70.4783 183.032 68.5926 189.397C68.1801 190.222 56.5712 214.736 55.098 229.056C54.6855 232.827 51.6212 233.652 46.0819 235.184C41.4855 236.422 35.1212 238.19 27.2837 242.373L27.5783 242.963C35.3569 238.779 41.6623 237.07 46.2587 235.832C51.9158 234.3 55.3337 233.357 55.7462 229.115C56.9248 217.388 64.998 198.884 68.0033 192.166C67.8265 197.116 71.2444 203.952 78.3158 212.615C85.0337 220.865 94.9926 230.765 108.016 242.079C112.789 246.263 117.68 250.329 122.394 254.1L123.16 253.865C118.446 250.093 113.437 245.85 108.487 241.548C79.3176 216.15 65.7051 198.236 69.123 189.632Z" fill="#323A50"/>
<path d="M92.6946 181.854C92.7536 181.382 93.3428 179.084 93.5196 178.671C93.4607 178.436 92.5768 179.85 92.6357 179.673C92.6357 179.202 92.9303 178.73 93.3428 178.436C93.2839 177.964 93.2839 177.729 93.7553 177.434C93.6964 177.257 94.2268 177.198 94.2857 177.021C93.4607 178.436 92.4589 180.263 92.1643 181.795C90.8089 188.925 101.652 205.779 124.398 231.884C129.407 237.659 134.475 243.316 139.071 248.207L139.779 247.971C119.389 225.991 90.9268 192.696 92.6946 181.854Z" fill="#323A50"/>
<path d="M94.8744 175.077C94.7566 175.195 94.6976 175.313 94.5798 175.431L90.3369 175.254C92.3405 175.077 93.9316 175.077 94.8744 175.077Z" fill="#323A50"/>
<path d="M93.7548 177.139L82.853 176.668C83.2655 176.55 83.678 176.432 84.1495 176.314L93.9316 176.727C93.8727 176.845 93.8137 176.963 93.7548 177.139Z" fill="#323A50"/>
<path d="M93.3426 178.79L78.8462 178.2C79.1408 178.082 79.3765 177.965 79.6712 177.847L93.5194 178.377C93.5194 178.436 93.5194 178.495 93.5194 178.554C93.4605 178.613 93.4015 178.731 93.3426 178.79Z" fill="#323A50"/>
<path d="M92.6944 180.498L76.0176 179.85C76.1944 179.732 76.4301 179.555 76.6069 179.438L92.8122 180.086C92.7533 180.204 92.6944 180.38 92.6944 180.498Z" fill="#323A50"/>
<path d="M92.4586 182.09L73.9551 181.324C74.0729 181.206 74.2497 181.029 74.4265 180.911L92.4586 181.618C92.4586 181.854 92.4586 181.972 92.4586 182.09Z" fill="#323A50"/>
<path d="M92.3998 183.799L72.3052 182.974C72.423 182.856 72.5409 182.679 72.6588 182.562L92.3998 183.386C92.3998 183.563 92.3998 183.681 92.3998 183.799Z" fill="#323A50"/>
<path d="M92.6942 185.212C92.7531 185.33 92.7531 185.448 92.812 185.566L71.0674 184.682C71.1263 184.564 71.2442 184.387 71.362 184.27L92.6942 185.095C92.6942 185.153 92.6942 185.154 92.6942 185.212Z" fill="#323A50"/>
<path d="M93.2247 187.04C93.2247 187.099 93.2836 187.216 93.2836 187.275L70.0068 186.332C70.0658 186.215 70.1247 186.038 70.2425 185.92L93.1658 186.863C93.1658 186.922 93.2247 186.981 93.2247 187.04Z" fill="#323A50"/>
<path d="M93.8729 188.631L69.4175 187.629C69.3586 187.747 69.2997 187.924 69.2407 188.041L94.0497 189.043C93.9907 188.866 93.9318 188.749 93.8729 188.631Z" fill="#323A50"/>
<path d="M94.639 190.34L68.8283 189.279C68.7694 189.397 68.7694 189.515 68.7104 189.692L94.8158 190.753C94.7569 190.635 94.698 190.517 94.639 190.34Z" fill="#323A50"/>
<path d="M95.4637 192.048L68.4745 190.929C68.4745 191.047 68.4155 191.223 68.4155 191.341L95.6994 192.461C95.5816 192.343 95.5227 192.225 95.4637 192.048Z" fill="#323A50"/>
<path d="M96.3479 193.876L68.2979 192.756C68.2979 192.874 68.2979 193.051 68.2979 193.168L96.5836 194.288C96.5246 194.111 96.4657 193.993 96.3479 193.876Z" fill="#323A50"/>
<path d="M97.2907 195.467L68.4746 194.288C68.4746 194.406 68.5335 194.583 68.5335 194.701L97.5264 195.879C97.4085 195.761 97.3496 195.585 97.2907 195.467Z" fill="#323A50"/>
<path d="M98.2923 197.234L68.769 196.056C68.828 196.174 68.828 196.35 68.8869 196.468L98.528 197.647C98.469 197.529 98.4101 197.352 98.2923 197.234Z" fill="#323A50"/>
<path d="M99.412 199.002L69.3584 197.765C69.4173 197.883 69.4763 198.059 69.5352 198.177L99.6477 199.415C99.5888 199.238 99.4709 199.12 99.412 199.002Z" fill="#323A50"/>
<path d="M100.532 200.77L70.0659 199.532C70.1248 199.65 70.1838 199.827 70.2427 199.945L100.768 201.182C100.709 201.064 100.591 200.888 100.532 200.77Z" fill="#323A50"/>
<path d="M101.651 202.42L70.8906 201.183C70.9496 201.3 71.0085 201.477 71.1263 201.595L101.946 202.833C101.828 202.715 101.71 202.538 101.651 202.42Z" fill="#323A50"/>
<path d="M102.83 204.188L71.7744 202.95C71.8333 203.068 71.9512 203.245 72.0101 203.363L103.065 204.6C103.065 204.482 102.948 204.364 102.83 204.188Z" fill="#323A50"/>
<path d="M104.068 205.955L72.8354 204.718C72.8944 204.836 73.0122 205.012 73.1301 205.13L104.362 206.368C104.303 206.191 104.185 206.073 104.068 205.955Z" fill="#323A50"/>
<path d="M105.364 207.724L74.0142 206.486C74.132 206.604 74.1909 206.781 74.3088 206.899L105.659 208.136C105.6 208.018 105.482 207.901 105.364 207.724Z" fill="#323A50"/>
<path d="M106.543 209.373L75.1338 208.136C75.2516 208.254 75.3106 208.43 75.4284 208.548L106.837 209.786C106.778 209.609 106.661 209.491 106.543 209.373Z" fill="#323A50"/>
<path d="M107.898 211.142L76.4888 209.904C76.6066 210.022 76.6655 210.199 76.8423 210.317L108.251 211.554C108.074 211.436 108.016 211.26 107.898 211.142Z" fill="#323A50"/>
<path d="M109.253 212.909L77.8442 211.672C77.9621 211.79 78.0799 211.967 78.1978 212.084L109.607 213.322C109.43 213.145 109.312 213.027 109.253 212.909Z" fill="#323A50"/>
<path d="M110.609 214.677L79.2588 213.439C79.3766 213.557 79.4945 213.734 79.6124 213.852L110.962 215.089C110.845 214.972 110.727 214.795 110.609 214.677Z" fill="#323A50"/>
<path d="M111.964 216.445L80.7319 215.207C80.8498 215.325 80.9677 215.502 81.0855 215.62L112.318 216.857C112.2 216.739 112.082 216.562 111.964 216.445Z" fill="#323A50"/>
<path d="M113.378 218.213L82.2642 216.976C82.382 217.093 82.4999 217.27 82.6177 217.388L113.673 218.626C113.614 218.508 113.496 218.39 113.378 218.213Z" fill="#323A50"/>
<path d="M114.792 219.981L83.855 218.743C83.9728 218.861 84.1496 219.038 84.2675 219.156L115.146 220.393C115.028 220.216 114.91 220.099 114.792 219.981Z" fill="#323A50"/>
<path d="M116.148 221.631L85.3872 220.394C85.5051 220.511 85.6819 220.688 85.7997 220.806L116.501 222.044C116.384 221.926 116.266 221.808 116.148 221.631Z" fill="#323A50"/>
<path d="M117.503 223.28L86.9194 222.043C87.0373 222.161 87.2141 222.338 87.3319 222.455L117.857 223.693C117.739 223.575 117.621 223.457 117.503 223.28Z" fill="#323A50"/>
<path d="M118.976 225.108L88.687 223.87C88.8049 223.988 88.9817 224.165 89.0995 224.283L119.33 225.52C119.212 225.343 119.094 225.225 118.976 225.108Z" fill="#323A50"/>
<path d="M120.45 226.817L90.396 225.579C90.5139 225.697 90.6906 225.874 90.8085 225.992L120.803 227.17C120.685 227.111 120.567 226.993 120.45 226.817Z" fill="#323A50"/>
<path d="M121.982 228.643L92.2227 227.465C92.3405 227.583 92.5173 227.759 92.6352 227.877L122.335 229.056C122.217 228.938 122.099 228.761 121.982 228.643Z" fill="#323A50"/>
<path d="M123.396 230.293L93.9316 229.114C94.0495 229.232 94.2263 229.409 94.4031 229.527L123.808 230.705C123.632 230.587 123.514 230.411 123.396 230.293Z" fill="#323A50"/>
<path d="M124.81 231.943L95.6406 230.765C95.7585 230.883 95.9353 231.059 96.1121 231.177L125.164 232.356C125.046 232.179 124.928 232.061 124.81 231.943Z" fill="#323A50"/>
<path d="M126.342 233.711L97.5264 232.532C97.6442 232.65 97.821 232.827 97.9978 232.945L126.696 234.123C126.578 234.005 126.46 233.888 126.342 233.711Z" fill="#323A50"/>
<path d="M127.875 235.479L99.4121 234.359C99.5889 234.477 99.7068 234.654 99.8835 234.772L128.228 235.892C128.11 235.774 127.992 235.597 127.875 235.479Z" fill="#323A50"/>
<path d="M129.466 237.247L101.416 236.127C101.592 236.245 101.71 236.422 101.887 236.539L129.878 237.659C129.701 237.541 129.583 237.423 129.466 237.247Z" fill="#323A50"/>
<path d="M131.057 239.074L103.419 237.954C103.596 238.072 103.714 238.249 103.891 238.367L131.469 239.486C131.293 239.368 131.175 239.25 131.057 239.074Z" fill="#323A50"/>
<path d="M132.471 240.723L105.187 239.604C105.364 239.721 105.541 239.898 105.658 240.016L132.825 241.136C132.766 241.018 132.648 240.841 132.471 240.723Z" fill="#323A50"/>
<path d="M134.121 242.491L107.309 241.431C107.485 241.549 107.662 241.725 107.78 241.843L134.475 242.904C134.357 242.786 134.239 242.668 134.121 242.491Z" fill="#323A50"/>
<path d="M135.653 244.259L109.253 243.198C109.43 243.316 109.607 243.493 109.725 243.611L136.007 244.671C135.948 244.554 135.83 244.436 135.653 244.259Z" fill="#323A50"/>
<path d="M137.303 246.086L111.375 245.025C111.551 245.143 111.728 245.32 111.846 245.438L137.716 246.499C137.598 246.381 137.421 246.204 137.303 246.086Z" fill="#323A50"/>
<path d="M138.835 247.737L113.319 246.676C113.496 246.794 113.673 246.97 113.791 247.088L139.189 248.09C139.071 248.031 138.953 247.854 138.835 247.737Z" fill="#323A50"/>
<path d="M138.364 249.268L115.264 248.325C115.441 248.443 115.618 248.62 115.795 248.738L137.362 249.622C137.657 249.563 138.011 249.445 138.364 249.268Z" fill="#323A50"/>
<path d="M133.826 250.859L117.385 250.211C117.562 250.329 117.739 250.506 117.916 250.623L132.707 251.213C133.06 251.095 133.414 250.977 133.826 250.859Z" fill="#323A50"/>
<path d="M129.112 252.332L119.507 251.92C119.684 252.038 119.86 252.215 120.037 252.332L127.993 252.686C128.346 252.568 128.759 252.45 129.112 252.332Z" fill="#323A50"/>
<path d="M124.457 253.865L121.746 253.747C121.923 253.865 122.1 254.042 122.276 254.16L123.396 254.219C123.75 254.16 124.103 253.983 124.457 253.865Z" fill="#323A50"/>
</g>
<defs>
<linearGradient id="paint0_linear_3618_7766" x1="270.665" y1="226.297" x2="68.8919" y2="78.717" gradientUnits="userSpaceOnUse">
<stop offset="0.2655" stop-color="#032A3D" stop-opacity="0"/>
<stop offset="0.7809" stop-color="#032A3D"/>
</linearGradient>
<radialGradient id="paint1_radial_3618_7766" cx="0" cy="0" r="1" gradientUnits="userSpaceOnUse" gradientTransform="translate(165.534 218.567) scale(68.255 67.9397)">
<stop offset="0.2655" stop-color="#032A3D" stop-opacity="0"/>
<stop offset="1" stop-color="#032A3D"/>
</radialGradient>
<linearGradient id="paint2_linear_3618_7766" x1="138.737" y1="110.727" x2="188.875" y2="307.547" gradientUnits="userSpaceOnUse">
<stop offset="0.4054" stop-color="#032A3D" stop-opacity="0"/>
<stop offset="1" stop-color="#032A3D"/>
</linearGradient>
<linearGradient id="paint3_linear_3618_7766" x1="102.569" y1="178.042" x2="234.448" y2="301.755" gradientUnits="userSpaceOnUse">
<stop offset="0.2655" stop-color="#032A3D" stop-opacity="0"/>
<stop offset="0.7809" stop-color="#032A3D"/>
</linearGradient>
<linearGradient id="paint4_linear_3618_7766" x1="109.779" y1="170.356" x2="241.658" y2="294.069" gradientUnits="userSpaceOnUse">
<stop offset="0.2655" stop-color="#032A3D" stop-opacity="0"/>
<stop offset="0.7809" stop-color="#032A3D"/>
</linearGradient>
<linearGradient id="paint5_linear_3618_7766" x1="107.236" y1="173.067" x2="239.115" y2="296.78" gradientUnits="userSpaceOnUse">
<stop offset="0.2655" stop-color="#032A3D" stop-opacity="0"/>
<stop offset="0.7809" stop-color="#032A3D"/>
</linearGradient>
<linearGradient id="paint6_linear_3618_7766" x1="82.1259" y1="199.835" x2="214.004" y2="323.548" gradientUnits="userSpaceOnUse">
<stop offset="0.2655" stop-color="#032A3D" stop-opacity="0"/>
<stop offset="0.7809" stop-color="#032A3D"/>
</linearGradient>
<linearGradient id="paint7_linear_3618_7766" x1="100.921" y1="179.799" x2="232.8" y2="303.512" gradientUnits="userSpaceOnUse">
<stop offset="0.2655" stop-color="#032A3D" stop-opacity="0"/>
<stop offset="0.7809" stop-color="#032A3D"/>
</linearGradient>
<linearGradient id="paint8_linear_3618_7766" x1="90.561" y1="190.843" x2="222.44" y2="314.556" gradientUnits="userSpaceOnUse">
<stop offset="0.2655" stop-color="#032A3D" stop-opacity="0"/>
<stop offset="0.7809" stop-color="#032A3D"/>
</linearGradient>
<linearGradient id="paint9_linear_3618_7766" x1="71.9604" y1="210.671" x2="203.84" y2="334.385" gradientUnits="userSpaceOnUse">
<stop offset="0.2655" stop-color="#032A3D" stop-opacity="0"/>
<stop offset="0.7809" stop-color="#032A3D"/>
</linearGradient>
<linearGradient id="paint10_linear_3618_7766" x1="75.0377" y1="207.391" x2="206.917" y2="331.104" gradientUnits="userSpaceOnUse">
<stop offset="0.2655" stop-color="#032A3D" stop-opacity="0"/>
<stop offset="0.7809" stop-color="#032A3D"/>
</linearGradient>
<linearGradient id="paint11_linear_3618_7766" x1="85.4124" y1="196.332" x2="217.291" y2="320.045" gradientUnits="userSpaceOnUse">
<stop offset="0.2655" stop-color="#032A3D" stop-opacity="0"/>
<stop offset="0.7809" stop-color="#032A3D"/>
</linearGradient>
<linearGradient id="paint12_linear_3618_7766" x1="71.9223" y1="210.712" x2="203.801" y2="334.425" gradientUnits="userSpaceOnUse">
<stop offset="0.2655" stop-color="#032A3D" stop-opacity="0"/>
<stop offset="0.7809" stop-color="#032A3D"/>
</linearGradient>
<clipPath id="clip0_3618_7766">
<rect width="330" height="330" fill="white"/>
</clipPath>
</defs>
</svg>
