<svg width="330" height="330" viewBox="0 0 330 330" fill="none" xmlns="http://www.w3.org/2000/svg">
<g clip-path="url(#clip0_3671_13017)">
<path d="M166.767 300.712C162.288 300.712 157.81 300.359 153.449 299.652C149.147 299.062 142.371 297.53 137.774 295.527C122.04 289.693 108.605 279.321 98.8813 265.591C88.9224 251.507 83.6777 234.948 83.6777 217.682C83.6777 205.661 86.2116 194.111 91.1027 183.268C95.8759 172.837 102.653 163.586 111.256 155.866L113.731 153.273C118.21 148.677 118.563 148.264 121.156 145.377C121.451 145.023 121.746 144.67 122.099 144.257C125.046 140.839 130.526 134.475 138.01 129.112C147.144 122.571 156.749 119.036 166.531 119.036H166.767C176.549 119.036 186.155 122.571 195.288 129.112C202.772 134.475 208.253 140.839 211.199 144.257C211.553 144.67 211.906 145.082 212.142 145.377C214.087 147.557 214.735 148.264 216.856 150.445C217.858 151.505 219.272 152.92 221.335 155.041C230.174 162.761 237.128 172.071 242.078 182.678C247.146 193.639 249.738 205.425 249.738 217.623C249.738 228.82 247.558 239.721 243.197 249.975C239.013 259.875 233.003 268.773 225.401 276.375C217.799 283.977 208.901 289.987 199.001 294.171C188.865 298.473 177.963 300.712 166.767 300.712ZM166.826 119.625H166.59C144.138 120.214 128.581 137.893 122.747 144.611C122.394 145.023 122.04 145.495 121.746 145.848C119.212 148.736 118.799 149.207 114.321 153.803L111.787 156.396C94.4027 172.012 84.4438 194.287 84.4438 217.623C84.4438 251.802 105.953 282.798 138.01 294.761C142.547 296.705 149.206 298.237 153.508 298.827C157.869 299.534 162.288 299.887 166.708 299.887C212.083 299.887 248.972 262.998 248.972 217.623C248.972 193.875 238.719 171.305 220.863 155.689C218.801 153.568 217.387 152.153 216.385 151.093C214.205 148.853 213.556 148.205 211.612 146.025C211.317 145.671 211.022 145.141 210.61 144.729C204.776 137.893 189.278 120.214 166.826 119.625Z" fill="#323A50"/>
<path opacity="0.2" d="M208.606 155.041C211.553 153.391 213.144 152.154 210.139 148.677C205.012 142.902 189.69 123.75 166.531 123.161H166.296C143.137 123.75 127.815 142.902 122.689 148.677C119.624 152.095 122.04 154.216 123.455 155.218C129.465 151.387 134.828 148.441 141.899 146.143C142.135 146.084 150.974 141.9 165.824 141.782C165.883 141.782 175.901 141.723 185.389 144.67C196.821 147.734 202.419 151.505 208.606 155.041Z" fill="url(#paint0_linear_3671_13017)"/>
<path opacity="0.2" d="M165.943 286.039C203.467 286.039 233.887 255.778 233.887 218.448C233.887 181.119 203.467 150.857 165.943 150.857C128.418 150.857 97.998 181.119 97.998 218.448C97.998 255.778 128.418 286.039 165.943 286.039Z" fill="url(#paint1_radial_3671_13017)"/>
<path opacity="0.34" d="M237.187 186.863C237.128 186.686 237.07 186.509 236.952 186.391C236.716 186.863 236.303 187.275 235.773 187.629C234.359 188.454 232.178 188.041 231.471 186.509C231.059 185.684 230.646 184.918 230.116 184.152C229.88 183.739 229.586 183.386 229.291 182.973C229.173 182.796 229.173 182.796 229.291 182.973C229.232 182.914 229.173 182.796 229.055 182.738C228.937 182.561 228.761 182.384 228.643 182.207C227.405 180.793 225.932 179.379 224.753 178.554C223.987 178.023 223.221 177.552 222.396 177.139C222.161 177.021 221.925 176.904 221.689 176.786C221.63 176.786 221.63 176.786 221.63 176.727C221.218 176.55 220.805 176.432 220.334 176.314C219.862 176.196 219.391 176.079 218.92 176.02C218.92 176.02 218.212 175.902 218.271 175.902C218.095 175.902 217.977 175.843 217.8 175.843C216.68 175.725 215.62 175.725 214.5 175.725C210.434 175.843 207.016 176.491 203.009 176.963C198.884 177.434 194.759 177.788 190.575 178.082C182.384 178.671 174.311 179.614 166.12 179.791C162.112 179.85 158.105 179.143 154.098 178.436C150.15 177.729 146.555 177.198 142.725 176.786C134.77 175.843 126.755 175.43 118.8 176.138C117.209 176.255 115.912 174.841 115.677 173.368C115.618 173.368 115.559 173.368 115.441 173.427C114.97 173.545 114.557 173.663 114.086 173.839C113.85 173.898 113.614 174.016 113.32 174.134C113.202 174.193 113.143 174.193 113.084 174.252C111.198 175.077 109.43 176.138 107.78 177.434C107.721 177.493 107.368 177.788 107.368 177.788C107.132 177.964 106.896 178.141 106.72 178.377C106.307 178.73 105.953 179.084 105.541 179.438C104.775 180.204 104.068 180.97 103.361 181.854C103.302 181.913 103.302 181.971 103.243 181.971C103.243 181.971 103.184 182.03 103.184 182.089C103.007 182.325 102.889 182.502 102.712 182.738C102.418 183.15 102.182 183.504 101.946 183.916C101.711 184.329 101.475 184.682 101.298 185.095C101.239 185.213 101.003 185.979 101.239 185.213C101.18 185.448 101.062 185.625 101.003 185.861C100.414 187.511 98.882 188.454 97.1142 188.041C96.5249 187.923 95.9945 187.57 95.6409 187.098C95.582 187.216 95.6999 187.334 95.6409 187.452C91.6927 196.704 89.3945 206.898 89.3945 217.564C89.3945 260.111 123.927 294.643 166.473 294.643C209.02 294.643 243.493 260.052 243.493 217.446C243.493 206.604 241.195 196.232 237.187 186.863Z" fill="url(#paint2_linear_3671_13017)"/>
<g opacity="0.2">
<path d="M226.639 246.086L226.168 246.027C225.873 248.384 218.979 251.625 217.505 251.861C216.916 251.979 216.562 251.802 216.209 251.684C215.737 251.448 215.207 251.272 214.264 251.802C212.732 252.745 207.429 258.52 206.25 261.407C205.071 264.236 204.364 265.827 201.654 266.888C200.239 267.477 198 267.477 195.643 267.477C193.462 267.477 191.282 267.477 189.514 267.948C186.921 268.655 184.446 269.834 183.268 270.423C183.916 269.716 184.505 269.009 185.095 268.302C186.155 267.064 187.098 265.945 187.687 265.532C188.512 264.943 191.223 264.648 194.17 264.354C198.118 263.941 202.655 263.47 204.011 262.114C205.602 260.641 207.841 254.984 209.609 250.505C210.552 248.089 211.377 246.027 211.848 245.202C212.379 244.318 213.852 243.316 215.443 242.255C218.154 240.488 221.159 238.425 221.1 236.009H220.629C220.687 238.189 217.741 240.134 215.148 241.843C213.439 242.963 211.966 243.964 211.377 244.907C210.846 245.791 210.021 247.854 209.079 250.27C207.311 254.748 205.071 260.288 203.598 261.702C203.068 262.173 202.066 262.586 200.711 262.88C201.536 262.409 202.596 261.702 203.304 260.759C204.6 259.109 205.72 255.22 206.25 253.157C206.368 252.804 206.427 252.509 206.486 252.273C206.662 251.625 206.427 251.213 206.191 250.8C205.896 250.388 205.602 249.857 205.779 248.679C206.014 247.382 206.721 246.852 207.546 246.322C208.077 245.968 208.607 245.555 209.02 244.907C210.021 243.316 209.373 241.725 209.079 240.841V240.782C208.843 240.193 208.312 240.252 207.9 240.252C207.487 240.311 207.252 240.311 207.134 240.075C207.016 239.839 207.311 239.368 207.664 238.897C208.136 238.189 208.725 237.364 208.371 236.657L207.959 236.834C208.195 237.364 207.723 238.013 207.311 238.602C206.898 239.25 206.486 239.839 206.78 240.311C207.075 240.782 207.605 240.782 208.018 240.723C208.43 240.664 208.607 240.664 208.725 240.959V241.018C209.02 241.843 209.609 243.316 208.725 244.672C208.371 245.202 207.9 245.555 207.37 245.968C206.545 246.557 205.72 247.147 205.425 248.62C205.189 249.975 205.543 250.564 205.896 251.036C206.132 251.389 206.25 251.625 206.132 252.097C206.073 252.273 206.014 252.627 205.896 252.98C205.366 254.866 204.246 258.873 203.009 260.405C201.595 262.173 199.179 263.057 198.943 263.175C197.411 263.411 195.702 263.588 194.052 263.764C190.929 264.118 188.218 264.413 187.334 265.002C186.686 265.473 185.743 266.593 184.623 267.83C182.502 270.305 179.614 273.723 177.552 273.605C176.491 273.547 175.371 273.311 174.193 273.075C171.777 272.604 169.066 272.014 166.12 272.545C160.05 273.664 158.046 274.843 156.809 276.257C155.63 277.613 155.041 279.38 155.041 279.439L155.454 279.616C155.454 279.616 156.043 277.848 157.162 276.552C158.282 275.197 160.286 274.077 166.179 272.957C169.007 272.427 171.718 272.957 174.075 273.488C175.312 273.723 176.432 273.959 177.493 274.077C178.966 274.195 180.793 272.722 182.502 270.895L182.62 271.072C182.679 271.072 185.979 269.186 189.514 268.243C191.164 267.772 193.404 267.772 195.525 267.772C197.941 267.772 200.18 267.772 201.712 267.182C204.6 266.063 205.366 264.354 206.604 261.466C207.723 258.755 212.968 252.98 214.441 252.097C215.148 251.684 215.502 251.802 215.973 251.979C216.327 252.155 216.798 252.332 217.564 252.214C219.273 252.038 226.286 248.797 226.639 246.086Z" fill="url(#paint3_linear_3671_13017)"/>
<path d="M170.952 257.105C170.127 257.93 170.304 259.286 170.421 260.936C170.539 262.468 170.716 264.177 170.009 265.591C168.654 268.361 162.643 270.541 162.584 270.541L162.761 271.012C162.996 270.895 169.066 268.773 170.48 265.827C171.246 264.295 171.07 262.468 170.893 260.877C170.775 259.404 170.657 258.107 171.305 257.459C172.013 256.752 174.546 256.162 176.786 255.691C179.379 255.102 181.559 254.63 182.148 253.864C182.679 253.157 182.796 252.509 182.855 251.92C182.973 251.271 183.032 250.8 183.621 250.387C183.916 250.211 185.448 250.27 187.098 250.387C191.636 250.623 198.471 251.036 200.946 247.618C202.891 244.907 202.243 242.962 201.654 241.195C201.182 239.78 200.77 238.602 201.654 237.129C202.361 235.95 203.539 235.596 204.895 235.125C207.546 234.3 210.788 233.239 212.909 226.404C213.38 224.812 213.145 223.162 212.909 221.571C212.555 219.45 212.261 217.505 213.557 215.62L213.204 215.325C211.848 217.329 212.202 219.509 212.496 221.571C212.732 223.162 212.968 224.695 212.555 226.168C210.552 232.709 207.37 233.77 204.836 234.536C203.363 235.007 202.125 235.42 201.359 236.716C200.416 238.366 200.888 239.78 201.359 241.195C201.948 242.904 202.538 244.671 200.711 247.205C198.413 250.387 191.459 249.975 187.275 249.739C185.684 249.621 184.682 249.621 184.093 249.68C184.388 249.032 184.505 248.148 184.682 247.087C184.977 245.32 185.33 243.316 186.391 242.196C186.921 241.666 187.688 241.43 188.63 241.136C190.929 240.429 194.111 239.545 196.645 233.004V232.945C197.116 230.705 196.586 229.114 196.055 228.171C195.82 227.759 195.348 227.523 194.877 227.287C194.346 227.052 193.757 226.757 193.286 226.05C192.461 224.812 192.107 217.918 192.402 216.621C192.402 216.504 192.461 216.445 192.461 216.445C192.52 216.386 192.814 216.504 193.05 216.562C193.757 216.798 194.995 217.27 196.468 216.209L196.173 215.796C194.877 216.739 193.934 216.386 193.168 216.091C192.755 215.973 192.461 215.855 192.225 215.973C192.048 216.032 191.989 216.209 191.93 216.445C191.636 217.741 191.93 224.812 192.873 226.227C193.404 227.052 194.111 227.346 194.641 227.582C195.054 227.759 195.407 227.936 195.584 228.23C196.055 229.114 196.586 230.529 196.114 232.65C193.698 238.896 190.634 239.839 188.395 240.487C187.393 240.782 186.568 241.018 185.979 241.666C184.859 242.904 184.505 244.966 184.152 246.793C183.916 248.03 183.739 249.15 183.386 249.68C182.738 250.152 182.62 250.8 182.502 251.448C182.384 252.037 182.325 252.568 181.854 253.216C181.382 253.864 178.907 254.395 176.786 254.866C174.134 255.75 171.718 256.28 170.952 257.105Z" fill="url(#paint4_linear_3671_13017)"/>
<path d="M171.659 210.493C172.249 211.141 172.72 211.612 172.425 213.027C172.249 213.97 171.718 215.325 171.129 216.798C170.127 219.332 169.125 221.984 169.597 223.221C169.833 223.811 170.186 224.223 170.54 224.636C171.306 225.52 172.072 226.404 171.659 229.055C171.306 231.177 170.186 232.827 169.302 234.182C168.536 235.361 167.829 236.363 167.888 237.305C167.947 238.071 168.359 238.602 168.772 239.073C169.479 239.957 170.245 240.9 169.243 243.257C168.477 245.084 167.417 245.555 166.592 245.909C165.649 246.321 164.883 246.675 165.177 248.384C165.472 250.211 166.65 251.448 167.77 252.568C168.595 253.393 169.42 254.277 169.951 255.396L170.363 255.161C169.774 253.982 168.89 253.039 168.065 252.214C166.945 251.095 165.884 249.975 165.59 248.266C165.354 246.911 165.884 246.675 166.768 246.262C167.652 245.85 168.89 245.32 169.715 243.375C170.834 240.782 169.95 239.663 169.125 238.72C168.713 238.248 168.359 237.777 168.3 237.187C168.242 236.362 168.831 235.479 169.597 234.359C170.54 233.004 171.718 231.295 172.013 229.055C172.426 226.168 171.601 225.166 170.834 224.282C170.481 223.87 170.186 223.516 169.951 222.986C169.538 221.984 170.599 219.273 171.483 216.916C172.072 215.443 172.602 214.088 172.779 213.086C173.133 211.436 172.543 210.788 171.895 210.139C171.483 209.668 171.011 209.196 170.834 208.312L170.363 208.43C170.658 209.432 171.188 210.021 171.659 210.493Z" fill="url(#paint5_linear_3671_13017)"/>
<path d="M174.016 274.254C172.425 273.488 168.418 273.134 166.002 273.547C163.644 273.959 159.46 274.902 157.869 276.67C156.927 277.672 156.102 279.616 156.102 279.675L156.514 279.852C156.514 279.852 157.339 277.907 158.223 276.964C159.814 275.255 164.234 274.313 166.119 274.018C168.712 273.547 172.484 274.018 173.898 274.666C175.371 275.373 175.902 276.434 175.96 276.964C176.196 278.614 173.427 280.088 173.427 280.088L173.662 280.5C173.78 280.441 176.727 278.85 176.432 276.905C176.196 276.198 175.548 275.02 174.016 274.254Z" fill="url(#paint6_linear_3671_13017)"/>
<path d="M175.194 245.732C176.019 246.086 176.844 246.38 177.374 247.147C178.022 248.03 179.319 250.329 177.61 252.332C176.903 253.157 175.135 253.805 173.426 254.454C171.717 255.043 170.126 255.632 169.654 256.398C169.124 257.223 169.242 258.638 169.36 260.288C169.478 261.761 169.596 263.293 169.242 264.472C168.535 266.888 162.465 269.775 162.406 269.834L162.583 270.247C162.819 270.129 168.947 267.241 169.654 264.589C170.008 263.293 169.89 261.702 169.831 260.229C169.713 258.755 169.654 257.341 170.067 256.634C170.479 255.986 172.071 255.397 173.603 254.866C175.371 254.218 177.197 253.57 177.963 252.627C179.319 251.036 179.26 248.914 177.787 246.852C177.197 245.968 176.254 245.614 175.429 245.261C174.604 244.907 173.779 244.613 173.426 243.847C172.719 242.314 173.249 240.605 174.251 240.016C174.487 239.839 174.722 239.722 175.017 239.545C175.842 239.014 176.726 238.543 177.787 237.364C179.201 235.832 181.853 229.586 182.324 226.58C182.619 224.813 182.088 224.047 181.617 223.222C181.204 222.573 180.792 221.925 180.674 220.629L180.203 220.688C180.321 222.043 180.792 222.809 181.204 223.457C181.676 224.223 182.147 224.93 181.853 226.522C181.381 229.468 178.788 235.538 177.433 237.011C176.431 238.13 175.547 238.602 174.722 239.073C174.487 239.25 174.192 239.368 173.956 239.545C172.837 240.311 172.188 242.255 173.013 244.023C173.426 244.966 174.31 245.379 175.194 245.732Z" fill="url(#paint7_linear_3671_13017)"/>
</g>
<g opacity="0.2">
<path d="M155.1 272.486C154.924 271.248 153.509 270.305 152.036 269.245C150.917 268.479 149.208 267.536 147.734 266.711C146.438 265.945 145.259 265.355 144.847 265.002C144.729 264.884 144.611 264.766 144.493 264.589C143.786 263.47 143.256 260.7 143.374 258.579C143.433 257.341 143.315 256.398 143.256 255.632C143.138 254.807 143.079 254.218 143.315 253.688C143.492 253.275 143.786 253.216 144.258 253.157C144.729 253.098 145.377 252.98 145.613 252.214C145.849 251.566 145.731 250.859 145.672 250.152C145.554 249.445 145.495 248.796 145.79 248.384C146.084 247.971 146.379 247.854 146.792 247.736C147.204 247.559 147.675 247.382 148.088 246.793C148.442 246.263 147.97 245.555 147.381 244.671C146.497 243.434 145.318 241.666 145.849 239.545C146.379 237.246 147.086 237.305 148.088 237.482C148.559 237.541 149.149 237.659 149.679 237.423C150.622 237.07 151.506 235.007 152.39 232.886C153.097 231.236 153.804 229.527 154.393 229.055C155.1 228.525 155.749 228.407 156.279 228.289C156.868 228.171 157.399 228.054 157.811 227.523C158.283 226.875 158.047 225.991 157.811 225.225C157.693 224.754 157.517 224.282 157.634 224.046L157.222 223.811C157.045 224.164 157.163 224.695 157.34 225.343C157.517 226.05 157.752 226.816 157.399 227.229C157.104 227.641 156.692 227.7 156.102 227.818C155.513 227.936 154.806 228.054 154.04 228.643C153.333 229.173 152.625 230.882 151.859 232.65C151.093 234.536 150.209 236.657 149.443 236.952C148.972 237.129 148.5 237.07 148.029 237.011C146.968 236.834 145.908 236.716 145.259 239.427C144.729 241.784 145.967 243.611 146.909 244.907C147.381 245.614 147.793 246.204 147.617 246.498C147.322 246.97 146.968 247.088 146.556 247.264C146.143 247.382 145.731 247.559 145.377 248.089C144.965 248.679 145.083 249.445 145.2 250.152C145.318 250.8 145.377 251.448 145.2 251.979C145.024 252.509 144.611 252.568 144.199 252.627C143.727 252.686 143.197 252.745 142.902 253.452C142.608 254.1 142.725 254.807 142.843 255.632C142.961 256.398 143.079 257.282 142.961 258.52C142.843 259.875 143.02 261.525 143.374 262.88C142.372 261.23 141.075 258.696 140.899 256.221C140.722 254.159 141.134 253.393 141.665 252.273C142.195 251.213 142.843 249.916 143.374 247.029C144.081 242.845 142.254 239.014 141.075 236.952C141.193 236.539 142.018 233.77 144.199 233.004L145.318 232.591C147.381 231.825 149.208 231.236 150.15 230.705C151.388 230.057 152.39 227.936 152.567 226.639C152.684 225.873 152.331 225.402 151.977 224.989C151.683 224.577 151.388 224.223 151.447 223.634C151.506 223.104 152.272 222.632 153.156 221.984C154.452 221.159 155.984 220.098 156.633 218.33C157.399 216.209 156.633 215.325 155.984 214.441C155.631 214.029 155.336 213.675 155.218 213.145L154.806 213.263C154.983 213.852 155.336 214.323 155.631 214.736C156.279 215.561 156.927 216.327 156.22 218.154C155.631 219.745 154.099 220.746 152.92 221.571C151.859 222.279 151.093 222.809 151.034 223.516C150.975 224.341 151.329 224.813 151.683 225.225C151.977 225.638 152.272 225.932 152.154 226.521C151.918 227.877 150.917 229.763 149.974 230.234C149.031 230.705 147.145 231.354 145.2 232.061L144.081 232.473C142.077 233.18 141.134 235.42 140.84 236.363C140.427 235.773 140.192 235.42 140.133 235.42C140.074 235.361 135.89 231.53 134.063 228.643C132.177 225.696 132.236 223.28 133.238 222.396C133.768 221.925 134.829 221.866 136.067 221.807C137.245 221.748 138.542 221.689 139.661 221.277C141.429 220.629 142.667 218.095 143.02 217.329C143.492 216.268 144.022 214.736 143.727 213.97C143.256 212.673 141.311 212.261 141.193 212.202L141.134 212.673C141.134 212.673 142.961 213.027 143.315 214.146C143.433 214.559 143.256 215.679 142.608 217.152C141.9 218.625 140.722 220.393 139.484 220.864C138.424 221.277 137.127 221.336 136.008 221.336C134.711 221.395 133.533 221.454 132.884 221.984C131.765 222.927 131.529 225.52 133.65 228.82C135.477 231.707 139.543 235.42 139.779 235.655C140.015 235.95 143.963 241.077 142.961 246.793C142.49 249.621 141.842 250.918 141.311 251.92C141.193 252.155 141.075 252.391 140.958 252.627C140.427 251.213 140.486 250.388 140.545 249.739C140.604 248.796 140.545 248.266 139.249 247.441C137.54 246.38 134.24 246.204 132.059 246.086C131.175 246.027 130.409 245.968 130.056 245.909C128.7 245.614 127.993 244.966 127.64 243.729C127.345 242.727 127.581 242.432 127.993 241.902C128.111 241.784 128.229 241.607 128.347 241.43C128.524 241.195 128.877 241.018 129.231 240.782C130.056 240.311 131.175 239.663 131.058 238.013C130.999 236.598 130.056 236.127 129.113 235.596C128.465 235.243 127.817 234.889 127.345 234.241C126.108 232.591 124.634 227.818 124.399 225.225C124.104 222.338 124.634 216.916 125.106 216.563C125.283 216.504 126.049 216.857 126.638 217.152C127.758 217.682 129.113 218.33 130.115 218.095C130.292 218.036 130.409 218.036 130.586 217.977C131.824 217.682 131.942 217.564 131.883 216.327C131.824 215.443 131.175 215.325 130.645 215.266C130.292 215.207 129.879 215.148 129.702 214.854C129.231 214.264 129.408 212.025 129.467 211.2L129.054 211.141C128.995 211.436 128.7 214.264 129.349 215.148C129.643 215.561 130.174 215.62 130.586 215.679C131.175 215.796 131.47 215.855 131.47 216.327C131.529 216.798 131.529 217.034 131.411 217.152C131.293 217.27 130.999 217.329 130.527 217.446C130.409 217.505 130.233 217.505 130.056 217.564C129.231 217.8 127.934 217.152 126.874 216.621C125.931 216.15 125.342 215.914 124.988 216.032C124.045 216.386 123.75 222.927 123.986 225.166C124.281 227.877 125.695 232.65 127.05 234.418C127.581 235.125 128.347 235.538 128.995 235.891C129.879 236.363 130.645 236.775 130.704 237.895C130.763 239.25 129.938 239.721 129.054 240.252C128.642 240.488 128.229 240.723 128.052 241.018C127.934 241.195 127.817 241.313 127.699 241.489C127.227 242.02 126.874 242.491 127.227 243.729C127.64 245.084 128.465 245.85 129.997 246.204C130.292 246.263 130.704 246.321 131.293 246.321C130.94 246.557 130.586 246.557 130.174 246.557C129.761 246.557 129.29 246.498 128.818 246.852C128.052 247.382 128.524 248.266 128.877 248.914C129.054 249.209 129.172 249.504 129.172 249.68C129.172 249.798 129.113 249.916 128.995 250.034C128.759 250.211 128.288 250.27 127.64 250.211C126.933 250.093 125.931 249.032 125.342 248.384C125.106 248.148 124.929 247.913 124.811 247.854C124.575 247.618 124.222 247.677 123.927 247.677C123.574 247.736 123.161 247.736 122.808 247.441C122.572 247.323 122.454 247.088 122.454 246.793C122.395 246.263 122.631 245.673 122.749 245.496C122.808 245.438 123.043 245.438 123.22 245.438C123.515 245.438 123.868 245.438 124.163 245.202C124.634 244.789 124.811 244.141 124.752 243.139C124.693 242.55 124.222 242.55 123.809 242.55C123.338 242.55 122.808 242.491 122.572 241.843C122.395 241.371 122.631 240.9 122.984 240.311C123.515 239.427 124.163 238.307 123.279 236.657C122.218 234.713 121.04 234.889 120.215 235.066C119.92 235.125 119.625 235.184 119.449 235.125C119.272 235.066 119.154 234.948 119.154 234.889C119.095 234.713 119.213 234.536 119.272 234.477L118.918 234.182C118.859 234.241 118.624 234.595 118.742 235.007C118.8 235.243 119.036 235.42 119.331 235.596C119.625 235.714 119.979 235.655 120.333 235.596C121.158 235.42 122.042 235.302 122.925 236.952C123.692 238.366 123.161 239.309 122.631 240.193C122.277 240.841 121.924 241.43 122.159 242.138C122.513 243.08 123.279 243.08 123.809 243.139C124.281 243.139 124.34 243.198 124.34 243.316C124.399 244.141 124.281 244.73 123.927 244.966C123.75 245.084 123.515 245.084 123.279 245.084C122.984 245.084 122.69 245.084 122.454 245.32C122.218 245.555 121.924 246.263 122.042 246.97C122.1 247.382 122.277 247.736 122.572 247.971C123.102 248.325 123.574 248.325 123.986 248.266C124.281 248.266 124.458 248.207 124.575 248.325C124.693 248.384 124.87 248.62 125.047 248.855C125.695 249.563 126.756 250.741 127.581 250.859C127.581 250.859 127.581 250.859 127.64 250.859C128.406 250.977 128.995 250.859 129.29 250.564C129.467 250.388 129.584 250.152 129.643 249.857C129.643 249.563 129.467 249.268 129.29 248.855C128.936 248.148 128.7 247.677 129.113 247.382C129.408 247.146 129.761 247.146 130.174 247.146C130.704 247.146 131.352 247.205 131.883 246.498C131.942 246.498 132 246.498 132.059 246.498C134.181 246.616 137.422 246.852 139.013 247.795C140.133 248.502 140.133 248.855 140.074 249.68C140.015 250.446 139.956 251.448 140.722 253.216C140.486 253.923 140.368 254.748 140.486 256.104C140.781 260.17 143.963 264.413 144.199 264.707C144.317 264.884 144.493 265.061 144.611 265.179C145.083 265.532 146.261 266.18 147.558 266.946C149.031 267.771 150.74 268.714 151.8 269.48C153.097 270.423 154.452 271.366 154.629 272.368C154.688 272.839 154.57 273.37 154.158 273.9C152.625 275.963 150.622 283.329 150.563 283.564L150.975 283.623C151.034 283.152 153.038 276.139 154.452 274.195C155.042 273.664 155.218 273.075 155.1 272.486Z" fill="url(#paint8_linear_3671_13017)"/>
<path d="M151.977 274.371C151.328 272.132 148.146 269.716 147.027 269.068C144.728 267.654 139.484 267.359 137.068 267.889C135.948 268.125 135.182 268.479 134.475 268.832C133.709 269.186 133.061 269.539 132.177 269.539C130.35 269.539 129.348 269.775 128.464 270.423C128.287 270.541 128.228 270.718 128.228 270.836C128.228 271.189 128.523 271.543 128.936 271.896C129.23 272.191 129.643 272.545 129.584 272.78C129.584 272.898 129.466 272.957 129.348 273.016C128.169 273.664 127.227 272.78 127.168 272.721L126.873 273.016C126.873 273.016 128.052 274.195 129.525 273.429C129.819 273.252 129.937 273.075 129.996 272.839C130.055 272.368 129.643 271.955 129.171 271.602C128.936 271.366 128.582 271.071 128.582 270.895L128.641 270.836C129.407 270.246 130.35 270.011 132.059 270.011C133.061 270.011 133.768 269.657 134.593 269.245C135.241 268.891 136.007 268.537 137.068 268.302C139.366 267.83 144.552 268.066 146.732 269.421C148.028 270.246 150.916 272.486 151.446 274.43C151.623 274.961 151.328 275.962 150.975 276.67C149.207 280.795 148.618 283.682 148.618 283.741L149.03 283.859C149.03 283.859 149.619 280.971 151.328 276.905C151.741 276.375 152.212 275.137 151.977 274.371Z" fill="url(#paint9_linear_3671_13017)"/>
<path d="M153.037 273.959C152.919 273.134 152.094 272.25 151.8 271.897C151.741 271.838 151.741 271.838 151.741 271.779C150.091 269.834 147.675 267.948 146.084 267.359C145.671 267.182 145.082 267.064 144.434 266.947C141.841 265.709 139.366 265.238 137.009 264.766C135.712 264.531 134.357 264.236 133.002 263.882C129.407 262.881 123.396 256.87 123.16 256.575C122.984 256.339 118.859 251.154 118.505 249.386C118.328 248.62 117.503 244.731 117.032 243.67C116.619 242.727 111.493 241.018 110.432 240.664H110.373C107.898 240.547 104.185 240.311 103.832 240.075C103.419 239.781 102.948 238.366 103.066 237.777C103.066 237.541 103.36 237.364 103.655 237.188C104.127 236.893 104.657 236.481 104.775 235.773C104.834 235.243 104.48 233.652 103.832 231.118C103.243 228.702 102.418 225.461 102.653 224.872C102.83 224.341 103.184 224.282 103.478 224.164C103.773 224.106 104.185 223.988 104.303 223.457C104.362 223.281 104.244 223.163 104.185 223.045C103.95 222.75 103.419 222.809 102.712 222.868C102.005 222.927 101.121 222.986 100.709 222.632L100.414 222.986C100.944 223.457 101.887 223.398 102.712 223.339C103.125 223.339 103.714 223.281 103.832 223.398C103.773 223.634 103.655 223.693 103.36 223.752C103.007 223.87 102.477 223.988 102.241 224.754C102.005 225.402 102.535 227.759 103.419 231.295C103.891 233.239 104.421 235.302 104.362 235.773C104.303 236.304 103.832 236.598 103.419 236.893C103.007 237.129 102.653 237.423 102.594 237.836C102.477 238.602 103.007 240.193 103.596 240.606C104.068 240.959 108.841 241.195 110.314 241.254C113.26 242.197 116.384 243.493 116.56 243.964C116.914 244.789 117.503 247.441 118.034 249.622C118.446 251.566 122.63 256.811 122.807 257.047C123.043 257.282 129.112 263.411 132.884 264.472C134.239 264.884 135.594 265.12 136.891 265.356C138.835 265.709 140.78 266.122 142.784 266.888C141.664 266.77 140.427 266.652 139.307 266.593C138.305 266.534 137.421 266.475 136.655 266.357C131.057 265.768 127.993 264.943 125.93 263.47C123.632 261.879 116.796 255.868 116.266 255.161C115.971 254.807 115.853 254.336 115.677 253.806C115.559 253.393 115.441 252.922 115.205 252.391C114.321 250.447 111.08 248.384 108.723 246.852C107.485 246.086 106.425 245.379 106.189 245.025C105.835 244.495 105.953 244.141 106.13 243.67C106.248 243.375 106.425 242.963 106.425 242.491H105.953C105.953 242.904 105.835 243.198 105.718 243.493C105.482 244.023 105.305 244.495 105.777 245.261C106.071 245.673 107.073 246.322 108.428 247.206C110.727 248.679 113.909 250.741 114.734 252.509C114.969 252.981 115.087 253.452 115.205 253.864C115.382 254.454 115.5 254.925 115.853 255.397C116.443 256.104 123.337 262.173 125.635 263.823C127.698 265.297 130.88 266.181 136.537 266.77C137.244 266.829 138.187 266.888 139.189 267.006C141.664 267.182 144.493 267.359 145.848 267.889C147.38 268.42 149.678 270.247 151.328 272.132C151.328 272.132 151.387 272.191 151.446 272.25C151.682 272.545 152.507 273.429 152.566 274.077C152.684 274.725 152.212 276.022 151.564 277.731C150.975 279.381 150.209 281.384 149.56 283.859L149.973 283.977C150.621 281.502 151.387 279.498 151.977 277.848C152.684 276.022 153.155 274.784 153.037 273.959Z" fill="url(#paint10_linear_3671_13017)"/>
<path d="M105.954 211.259C105.895 211.613 105.541 212.143 105.129 212.732C104.363 213.852 103.537 215.089 104.068 216.032C104.362 216.563 105.07 217.034 105.895 217.623C107.427 218.625 109.313 219.922 110.138 222.279C111.375 225.991 114.498 232.591 114.557 232.65V232.709C114.616 232.768 118.446 237.954 117.091 243.022L117.504 243.139C118.859 237.954 115.205 232.827 114.911 232.473C114.911 232.414 114.793 232.238 114.675 232.002C115.205 231.884 116.384 231.53 117.209 230.47C117.798 229.704 118.034 228.702 117.916 227.464C117.68 225.402 116.679 223.516 115.795 221.807C115.029 220.334 114.38 219.097 114.498 218.213C114.557 217.388 115.029 217.27 115.618 217.093C116.325 216.916 117.209 216.622 117.386 215.089C117.563 213.439 116.443 212.732 115.5 212.202C114.734 211.73 114.321 211.436 114.38 210.905C114.498 209.432 116.561 207.37 116.62 207.37L116.325 207.016C116.207 207.075 114.086 209.197 113.968 210.847C113.909 211.672 114.616 212.143 115.323 212.555C116.207 213.086 117.15 213.675 116.973 215.03C116.855 216.268 116.207 216.445 115.5 216.622C114.852 216.798 114.145 216.975 114.086 218.095C114.027 219.097 114.675 220.452 115.441 221.984C116.266 223.634 117.268 225.52 117.504 227.523C117.621 228.584 117.445 229.468 116.914 230.175C116.148 231.177 114.97 231.472 114.557 231.53C113.673 229.586 111.552 224.989 110.609 222.102C109.784 219.627 107.721 218.213 106.189 217.211C105.423 216.68 104.716 216.209 104.48 215.797C104.068 215.089 104.834 213.97 105.482 212.968C105.895 212.32 106.307 211.73 106.366 211.318C106.425 210.67 105.836 209.727 105.07 208.666C104.421 207.664 103.655 206.545 103.538 205.72L103.125 205.779C103.243 206.663 104.009 207.841 104.716 208.902C105.364 209.845 106.012 210.788 105.954 211.259Z" fill="url(#paint11_linear_3671_13017)"/>
<path d="M150.386 275.904C149.856 274.666 148.265 273.664 147.145 272.957C146.674 272.662 146.32 272.427 146.144 272.25C145.967 272.073 145.908 271.896 145.908 271.72C145.79 271.189 145.613 270.718 144.494 270.246C142.785 269.539 138.719 269.186 137.363 270.011C136.833 270.364 136.715 270.777 136.774 271.13C136.892 272.073 138.011 272.898 139.072 273.252C139.779 273.487 139.838 274.195 139.897 275.02C139.956 275.668 140.015 276.316 140.486 276.729C140.781 276.964 140.958 277.2 140.899 277.436C140.84 277.671 140.427 277.966 139.485 278.084C138.188 278.202 136.185 277.73 136.126 277.671L136.008 278.084C136.067 278.084 138.129 278.614 139.485 278.496C140.486 278.379 141.135 278.025 141.252 277.495C141.37 277.082 141.135 276.67 140.663 276.316C140.369 276.08 140.31 275.55 140.251 274.961C140.192 274.136 140.133 273.134 139.131 272.839C138.129 272.486 137.186 271.72 137.127 271.071C137.069 270.836 137.245 270.6 137.481 270.423C138.66 269.716 142.49 269.952 144.258 270.659C145.26 271.071 145.319 271.425 145.436 271.779C145.495 272.014 145.554 272.309 145.79 272.545C145.967 272.721 146.379 273.016 146.851 273.311C147.911 273.959 149.444 275.02 149.915 276.08C150.269 276.846 149.856 277.671 149.326 278.85C148.854 279.97 148.206 281.325 147.97 283.152L148.383 283.211C148.619 281.443 149.208 280.087 149.738 279.027C150.386 277.789 150.799 276.846 150.386 275.904Z" fill="url(#paint12_linear_3671_13017)"/>
</g>
<path d="M165.412 183.68C186.859 183.68 204.246 174.314 204.246 162.761C204.246 151.207 186.859 141.841 165.412 141.841C143.965 141.841 126.578 151.207 126.578 162.761C126.578 174.314 143.965 183.68 165.412 183.68Z" fill="#2A697F"/>
<path d="M165.06 163.055C174.465 163.055 182.09 159.282 182.09 154.628C182.09 149.974 174.465 146.202 165.06 146.202C155.654 146.202 148.029 149.974 148.029 154.628C148.029 159.282 155.654 163.055 165.06 163.055Z" fill="#293C4F"/>
<path d="M165.058 148.205C173.779 148.205 180.968 151.447 181.97 155.63C182.029 155.277 182.088 154.982 182.088 154.629C182.088 149.973 174.486 146.202 165.058 146.202C155.629 146.202 148.027 149.973 148.027 154.629C148.027 154.982 148.086 155.336 148.145 155.63C149.147 151.447 156.336 148.205 165.058 148.205Z" fill="#DBDBDB"/>
<path d="M181.971 157.339L181.558 155.689C180.556 151.623 173.485 148.559 165.058 148.559C156.631 148.559 149.501 151.623 148.558 155.689L148.146 157.339L147.733 155.689C147.615 155.336 147.615 154.923 147.615 154.57C147.615 152.154 149.442 149.914 152.86 148.264C156.16 146.673 160.462 145.73 165.117 145.73C169.713 145.73 174.074 146.614 177.374 148.264C180.733 149.914 182.619 152.154 182.619 154.57C182.619 154.923 182.56 155.277 182.501 155.689L181.971 157.339ZM165.058 147.793C172.719 147.793 179.319 150.268 181.617 153.804C180.792 149.738 173.721 146.555 165.058 146.555C156.396 146.555 149.324 149.738 148.499 153.804C150.797 150.327 157.397 147.793 165.058 147.793Z" fill="#323A50"/>
<path d="M165.471 141.959C144.021 141.959 126.637 151.093 126.637 162.407C126.637 173.721 144.021 182.855 165.471 182.855C186.921 182.855 204.305 173.721 204.305 162.407C204.305 151.093 186.921 141.959 165.471 141.959ZM182.088 154.746C182.088 154.805 182.147 154.864 182.147 154.864C182.147 154.923 182.147 154.982 182.147 155.041C181.44 159.284 174.133 162.643 165.176 162.643C156.455 162.643 149.265 159.461 148.263 155.395C148.263 155.277 148.205 155.159 148.205 155.1C148.205 155.041 148.205 154.982 148.205 154.923C148.205 154.864 148.205 154.511 148.205 154.452C148.205 154.334 148.205 153.804 148.205 153.804C148.205 153.804 148.205 153.804 148.205 153.686C148.263 153.096 148.44 152.743 148.735 152.213C149.03 151.682 149.383 151.27 149.855 150.798H149.914C152.683 148.029 158.517 146.143 165.294 146.143C174.722 146.143 182.383 149.855 182.383 154.393H182.206C182.088 154.511 182.147 154.629 182.088 154.746Z" fill="#DBDBDB"/>
<path d="M165.471 183.209C155.041 183.209 145.2 181.088 137.834 177.198C130.35 173.25 126.225 168.005 126.225 162.407C126.225 156.809 130.35 151.564 137.834 147.616C145.2 143.727 155.041 141.605 165.471 141.605C175.901 141.605 185.742 143.727 193.109 147.616C200.592 151.564 204.717 156.809 204.717 162.407C204.717 168.005 200.592 173.25 193.109 177.198C185.742 181.029 175.901 183.209 165.471 183.209ZM165.471 142.372C144.257 142.372 127.05 151.329 127.05 162.407C127.05 173.427 144.257 182.443 165.471 182.443C186.685 182.443 203.892 173.486 203.892 162.407C203.892 151.329 186.685 142.372 165.471 142.372ZM165.117 163.055C156.337 163.055 148.853 159.814 147.792 155.513C147.792 155.395 147.734 155.277 147.734 155.159C147.734 155.1 147.734 155.041 147.675 154.982C147.675 154.923 147.675 154.864 147.675 154.864V154.805C147.675 154.688 147.675 154.57 147.675 154.393V153.98C147.734 153.391 147.91 152.802 148.264 152.213C148.559 151.682 148.912 151.152 149.442 150.622L149.501 150.563C152.448 147.616 158.459 145.789 165.117 145.789C169.714 145.789 174.075 146.673 177.375 148.264C180.734 149.914 182.619 152.095 182.619 154.452V154.864H182.501C182.501 154.923 182.501 154.923 182.501 154.982C182.501 155.041 182.501 155.1 182.442 155.159C181.794 159.638 174.31 163.055 165.117 163.055ZM148.5 154.334C148.5 154.511 148.5 154.57 148.5 154.688V154.747C148.5 154.805 148.5 154.805 148.5 154.864C148.5 154.923 148.5 154.982 148.5 155.041C148.5 155.159 148.559 155.218 148.559 155.336C149.56 159.284 156.632 162.289 165.059 162.289C173.662 162.289 180.969 159.107 181.617 155.041V154.982C181.617 154.923 181.559 154.864 181.617 154.805C181.617 154.805 181.617 154.747 181.617 154.688C181.617 154.629 181.617 154.57 181.617 154.452V154.039H181.794C181.559 152.154 179.909 150.386 177.021 148.972C173.839 147.439 169.596 146.614 165.117 146.614C158.694 146.614 152.742 148.382 150.032 151.152L149.973 151.211C149.501 151.682 149.207 152.095 148.971 152.566C148.676 153.097 148.559 153.568 148.5 154.039C148.5 154.098 148.5 154.334 148.5 154.334Z" fill="#323A50"/>
<g opacity="0.3">
<path d="M166.472 295.232C166.413 295.232 166.354 295.232 166.354 295.232C152.683 295.232 139.129 291.461 127.167 284.33H127.108L126.519 283.741C111.492 275.02 100.237 261.466 93.8723 244.554C91.3973 238.012 89.8062 231 89.158 223.104C88.9812 219.391 88.9812 215.973 89.158 212.261C89.3348 208.666 89.8651 204.954 90.808 200.593C91.7508 196.232 93.1651 191.812 95.2276 187.157L95.9937 187.511C93.9901 192.107 92.5758 196.468 91.633 200.77C90.6901 205.071 90.2187 208.725 90.0419 212.261C89.8651 215.914 89.8651 219.332 90.0419 222.986C90.6901 230.764 92.2223 237.718 94.6973 244.2C101.003 260.995 112.199 274.371 127.049 282.975H127.108L127.697 283.564C151.917 297.884 180.91 297.943 205.247 283.741C206.426 282.916 207.663 282.091 209.137 281.325C222.042 273.075 231.647 261.23 237.835 246.145C238.129 245.438 238.365 244.671 238.66 243.964C238.895 243.198 239.19 242.432 239.485 241.725C244.14 227.464 244.729 212.909 241.076 198.471V198.412C240.958 197.823 238.542 190.457 237.128 187.039L237.894 186.745C239.249 189.868 241.665 197.293 241.901 198.295C245.554 212.909 245.024 227.582 240.251 242.02V242.079C239.956 242.786 239.72 243.552 239.426 244.259C239.19 245.025 238.896 245.791 238.601 246.498C232.413 261.702 222.631 273.664 209.608 282.032C208.194 282.857 206.956 283.682 205.778 284.448C193.579 291.52 180.026 295.232 166.472 295.232Z" fill="#323A50"/>
</g>
<path d="M243.08 153.627C239.309 148.323 233.239 145.966 225.048 146.555C220.334 146.909 216.268 148.146 214.618 148.736C214.5 148.5 214.323 148.323 214.087 148.205C215.561 147.675 219.921 146.202 225.048 145.848C233.357 145.259 239.78 147.793 243.611 153.155C244.259 153.804 263.057 173.132 269.009 186.214C270.6 189.632 273.723 189.455 279.439 189.102C284.212 188.807 290.695 188.395 299.475 189.868L299.357 190.516C290.636 189.043 284.212 189.455 279.439 189.75C273.605 190.104 270.07 190.339 268.361 186.45C263.529 175.784 249.975 160.875 244.966 155.571C246.734 160.168 245.673 167.711 241.784 178.141C238.071 188.041 231.884 200.593 223.221 215.384C220.039 220.864 216.739 226.227 213.557 231.295H212.791C216.032 226.227 219.391 220.629 222.691 215.03C242.02 181.854 249.032 160.639 243.08 153.627Z" fill="#323A50"/>
<path d="M218.389 153.804C218.153 153.391 216.857 151.388 216.621 151.093C216.621 150.857 217.918 151.918 217.8 151.741C217.682 151.329 217.21 150.916 216.739 150.798C216.621 150.327 216.562 150.091 216.032 149.973C216.032 149.738 215.502 149.914 215.443 149.738C216.68 150.798 218.212 152.213 218.978 153.568C222.514 159.873 217.682 179.202 204.659 211.141C201.771 218.154 198.825 225.166 196.055 231.236H195.289C207.369 203.952 223.516 163.468 218.389 153.804Z" fill="#323A50"/>
<path d="M214.146 148.147C214.264 148.205 214.441 148.323 214.559 148.382L218.507 146.85C216.563 147.322 215.03 147.793 214.146 148.147Z" fill="#323A50"/>
<path d="M215.855 149.738L225.991 145.848C225.578 145.848 225.107 145.907 224.694 145.907L215.619 149.384C215.678 149.502 215.796 149.62 215.855 149.738Z" fill="#323A50"/>
<path d="M216.797 151.152L230.232 145.966C229.938 145.907 229.643 145.907 229.348 145.907L216.502 150.857C216.502 150.916 216.561 150.975 216.561 150.975C216.62 151.034 216.738 151.093 216.797 151.152Z" fill="#323A50"/>
<path d="M217.976 152.566L233.474 146.615C233.238 146.556 233.003 146.497 232.767 146.438L217.74 152.213C217.799 152.331 217.917 152.448 217.976 152.566Z" fill="#323A50"/>
<path d="M218.624 153.98L235.772 147.38C235.595 147.322 235.419 147.204 235.183 147.145L218.447 153.627C218.565 153.745 218.624 153.863 218.624 153.98Z" fill="#323A50"/>
<path d="M219.272 155.631L237.952 148.441C237.776 148.382 237.658 148.264 237.481 148.206L219.154 155.277C219.154 155.336 219.213 155.454 219.272 155.631Z" fill="#323A50"/>
<path d="M219.449 156.986C219.449 157.104 219.449 157.222 219.449 157.34L239.662 149.561C239.544 149.443 239.426 149.384 239.249 149.266L219.449 156.927V156.986Z" fill="#323A50"/>
<path d="M219.567 158.872C219.567 158.931 219.567 159.048 219.567 159.107L241.194 150.739C241.076 150.622 240.958 150.563 240.84 150.445L219.508 158.636C219.508 158.754 219.567 158.813 219.567 158.872Z" fill="#323A50"/>
<path d="M219.391 160.581L242.137 151.8C242.255 151.918 242.314 152.036 242.432 152.154L219.391 161.052C219.391 160.875 219.391 160.699 219.391 160.581Z" fill="#323A50"/>
<path d="M219.272 162.466L243.256 153.214C243.315 153.273 243.374 153.391 243.491 153.568L219.213 162.938C219.272 162.761 219.272 162.643 219.272 162.466Z" fill="#323A50"/>
<path d="M219.037 164.352L244.141 154.688C244.2 154.806 244.259 154.923 244.318 155.041L218.979 164.823C219.037 164.647 219.037 164.529 219.037 164.352Z" fill="#323A50"/>
<path d="M218.743 166.297L244.848 156.22C244.907 156.338 244.907 156.455 244.966 156.632L218.684 166.768C218.684 166.65 218.743 166.473 218.743 166.297Z" fill="#323A50"/>
<path d="M218.448 168.123L245.26 157.811C245.26 157.929 245.319 158.105 245.319 158.223L218.389 168.595C218.389 168.418 218.389 168.3 218.448 168.123Z" fill="#323A50"/>
<path d="M218.034 170.127L245.436 159.579C245.436 159.697 245.436 159.874 245.436 159.991L217.916 170.599C217.916 170.481 217.975 170.304 218.034 170.127Z" fill="#323A50"/>
<path d="M217.563 172.131L245.436 161.347C245.436 161.465 245.436 161.641 245.436 161.759L217.445 172.602C217.504 172.425 217.504 172.307 217.563 172.131Z" fill="#323A50"/>
<path d="M217.032 174.134L245.318 163.232C245.318 163.409 245.259 163.527 245.259 163.704L216.855 174.665C216.973 174.488 217.032 174.311 217.032 174.134Z" fill="#323A50"/>
<path d="M216.561 176.079L245.142 165.059C245.142 165.236 245.083 165.354 245.083 165.531L216.443 176.609C216.443 176.432 216.502 176.255 216.561 176.079Z" fill="#323A50"/>
<path d="M215.972 178.141L244.788 167.004C244.729 167.18 244.729 167.298 244.67 167.475L215.795 178.613C215.854 178.495 215.913 178.318 215.972 178.141Z" fill="#323A50"/>
<path d="M215.384 180.204L244.377 169.007C244.318 169.184 244.318 169.302 244.259 169.479L215.207 180.675C215.266 180.498 215.325 180.322 215.384 180.204Z" fill="#323A50"/>
<path d="M214.735 182.266L243.846 171.011C243.787 171.188 243.787 171.306 243.728 171.482L214.559 182.738C214.618 182.62 214.676 182.443 214.735 182.266Z" fill="#323A50"/>
<path d="M214.146 184.211L243.315 172.956C243.256 173.132 243.197 173.309 243.138 173.427L213.969 184.682C214.028 184.506 214.087 184.388 214.146 184.211Z" fill="#323A50"/>
<path d="M213.438 186.332L242.667 175.077C242.608 175.254 242.549 175.43 242.49 175.548L213.262 186.804C213.321 186.627 213.38 186.45 213.438 186.332Z" fill="#323A50"/>
<path d="M212.731 188.395L241.901 177.139C241.842 177.316 241.783 177.493 241.724 177.67L212.555 188.925C212.614 188.689 212.673 188.513 212.731 188.395Z" fill="#323A50"/>
<path d="M212.024 190.516L241.135 179.261C241.076 179.438 241.017 179.615 240.958 179.791L211.848 191.047C211.907 190.811 211.966 190.693 212.024 190.516Z" fill="#323A50"/>
<path d="M211.258 192.579L240.31 181.382C240.251 181.559 240.192 181.736 240.133 181.913L211.141 193.109C211.141 192.932 211.2 192.756 211.258 192.579Z" fill="#323A50"/>
<path d="M210.491 194.759L239.425 183.622C239.366 183.798 239.307 183.975 239.189 184.152L210.314 195.289C210.373 195.054 210.432 194.877 210.491 194.759Z" fill="#323A50"/>
<path d="M209.726 196.821L238.483 185.743C238.424 185.92 238.306 186.096 238.247 186.273L209.549 197.352C209.608 197.175 209.667 196.998 209.726 196.821Z" fill="#323A50"/>
<path d="M209.019 198.884L237.599 187.865C237.54 188.041 237.422 188.218 237.363 188.395L208.842 199.415C208.901 199.179 208.96 199.002 209.019 198.884Z" fill="#323A50"/>
<path d="M208.253 200.829L236.657 189.868C236.598 190.045 236.48 190.221 236.421 190.398L208.076 201.359C208.135 201.182 208.194 201.005 208.253 200.829Z" fill="#323A50"/>
<path d="M207.427 203.009L235.595 192.166C235.536 192.343 235.418 192.52 235.359 192.697L207.25 203.539C207.309 203.363 207.368 203.186 207.427 203.009Z" fill="#323A50"/>
<path d="M206.603 205.131L234.535 194.347C234.476 194.523 234.358 194.7 234.299 194.877L206.426 205.602C206.485 205.484 206.544 205.307 206.603 205.131Z" fill="#323A50"/>
<path d="M205.777 207.311L233.414 196.645C233.296 196.822 233.237 196.998 233.12 197.175L205.541 207.841C205.6 207.605 205.718 207.488 205.777 207.311Z" fill="#323A50"/>
<path d="M204.952 209.315L232.354 198.766C232.236 198.943 232.177 199.12 232.059 199.297L204.775 209.845C204.834 209.668 204.893 209.491 204.952 209.315Z" fill="#323A50"/>
<path d="M204.187 211.318L231.294 200.888C231.176 201.064 231.117 201.241 230.999 201.418L203.951 211.848C204.01 211.672 204.069 211.495 204.187 211.318Z" fill="#323A50"/>
<path d="M203.302 213.498L230.056 203.186C229.938 203.363 229.879 203.539 229.761 203.716L203.066 214.029C203.125 213.852 203.184 213.675 203.302 213.498Z" fill="#323A50"/>
<path d="M202.419 215.62L228.878 205.425C228.76 205.602 228.701 205.779 228.583 205.956L202.242 216.091C202.242 215.974 202.301 215.797 202.419 215.62Z" fill="#323A50"/>
<path d="M201.476 217.859L227.522 207.782C227.405 207.959 227.346 208.136 227.228 208.313L201.24 218.33C201.358 218.154 201.417 218.036 201.476 217.859Z" fill="#323A50"/>
<path d="M200.591 220.039L226.284 210.139C226.166 210.316 226.048 210.493 225.989 210.67L200.355 220.57C200.414 220.393 200.473 220.216 200.591 220.039Z" fill="#323A50"/>
<path d="M199.708 222.043L225.047 212.261C224.929 212.438 224.812 212.615 224.753 212.791L199.531 222.515C199.59 222.397 199.649 222.22 199.708 222.043Z" fill="#323A50"/>
<path d="M198.765 224.282L223.692 214.677C223.574 214.854 223.456 215.031 223.397 215.207L198.529 224.813C198.647 224.636 198.706 224.459 198.765 224.282Z" fill="#323A50"/>
<path d="M197.882 226.404L222.396 216.916C222.279 217.093 222.161 217.27 222.102 217.506L197.646 226.934C197.705 226.757 197.764 226.581 197.882 226.404Z" fill="#323A50"/>
<path d="M196.88 228.643L220.982 219.332C220.864 219.509 220.746 219.686 220.628 219.922L196.645 229.173C196.762 228.997 196.821 228.82 196.88 228.643Z" fill="#323A50"/>
<path d="M195.996 230.705L219.685 221.572C219.567 221.748 219.449 221.925 219.332 222.161L195.701 231.295C195.878 231 195.937 230.882 195.996 230.705Z" fill="#323A50"/>
<path d="M196.938 232.002L218.446 223.693C218.329 223.87 218.211 224.047 218.093 224.282L198.057 232.002C197.704 232.002 197.291 232.002 196.938 232.002Z" fill="#323A50"/>
<path d="M201.711 232.002L216.973 226.109C216.856 226.286 216.738 226.463 216.62 226.698L202.89 232.002C202.536 232.002 202.123 232.002 201.711 232.002Z" fill="#323A50"/>
<path d="M206.604 231.943L215.502 228.525C215.384 228.702 215.266 228.879 215.148 229.114L207.782 231.943C207.429 231.884 207.016 231.943 206.604 231.943Z" fill="#323A50"/>
<path d="M211.494 231.884L214.028 230.941C213.91 231.118 213.792 231.354 213.674 231.53L212.614 231.943C212.26 231.884 211.907 231.884 211.494 231.884Z" fill="#323A50"/>
<g opacity="0.3">
<path d="M263.529 189.691C261.643 183.445 256.693 179.261 248.738 177.198C244.2 176.02 239.899 175.902 238.131 175.902C238.072 175.666 237.954 175.43 237.777 175.254C239.309 175.195 243.965 175.254 248.915 176.55C256.988 178.671 262.233 183.091 264.118 189.455C264.531 190.28 276.081 214.618 277.554 228.937C277.908 232.709 280.972 233.534 286.511 235.007C291.108 236.245 297.413 237.954 305.25 242.196L304.956 242.786C297.177 238.602 290.931 236.893 286.393 235.655C280.736 234.123 277.377 233.18 276.965 228.996C275.786 217.387 267.772 198.884 264.766 192.225C264.943 197.175 261.525 203.952 254.513 212.555C247.854 220.746 237.895 230.587 224.99 241.843C220.216 246.027 215.384 250.034 210.729 253.805L209.963 253.57C214.677 249.798 219.686 245.614 224.577 241.371C253.452 216.091 266.947 198.295 263.529 189.691Z" fill="#323A50"/>
<path d="M240.133 181.971C240.074 181.5 239.485 179.202 239.308 178.789C239.367 178.554 240.251 179.968 240.192 179.732C240.192 179.261 239.898 178.789 239.485 178.495C239.544 178.023 239.544 177.787 239.073 177.493C239.132 177.257 238.601 177.257 238.542 177.08C239.367 178.436 240.369 180.321 240.664 181.854C241.96 188.925 231.176 205.72 208.607 231.707C203.598 237.423 198.589 243.08 193.992 247.971L193.285 247.736C213.557 225.873 241.901 192.755 240.133 181.971Z" fill="#323A50"/>
<path d="M237.895 175.195C238.012 175.312 238.071 175.43 238.189 175.548L242.432 175.371C240.487 175.195 238.896 175.195 237.895 175.195Z" fill="#323A50"/>
<path d="M239.015 177.257L249.858 176.845C249.445 176.727 249.033 176.609 248.561 176.491L238.838 176.903C238.956 177.021 239.015 177.139 239.015 177.257Z" fill="#323A50"/>
<path d="M239.485 178.907L253.923 178.318C253.628 178.2 253.392 178.082 253.098 177.964L239.367 178.494C239.367 178.553 239.367 178.612 239.367 178.671C239.367 178.789 239.426 178.848 239.485 178.907Z" fill="#323A50"/>
<path d="M240.133 180.616L256.751 179.968C256.574 179.85 256.338 179.732 256.162 179.614L240.074 180.262C240.074 180.38 240.074 180.498 240.133 180.616Z" fill="#323A50"/>
<path d="M240.311 182.207L258.696 181.441C258.519 181.323 258.402 181.205 258.225 181.029L240.311 181.736C240.311 181.912 240.311 182.089 240.311 182.207Z" fill="#323A50"/>
<path d="M240.369 183.916L260.405 183.091C260.287 182.973 260.169 182.855 260.051 182.678L240.428 183.445C240.369 183.621 240.369 183.798 240.369 183.916Z" fill="#323A50"/>
<path d="M240.133 185.271C240.075 185.389 240.075 185.507 240.016 185.566L261.642 184.682C261.525 184.564 261.466 184.387 261.348 184.27L240.133 185.153C240.133 185.212 240.133 185.271 240.133 185.271Z" fill="#323A50"/>
<path d="M239.604 187.098C239.604 187.157 239.545 187.275 239.545 187.334L262.704 186.391C262.645 186.273 262.586 186.096 262.468 185.979L239.663 186.921C239.604 186.98 239.604 187.039 239.604 187.098Z" fill="#323A50"/>
<path d="M238.896 188.689L263.233 187.688C263.292 187.805 263.351 187.982 263.41 188.1L238.719 189.102C238.837 188.925 238.837 188.807 238.896 188.689Z" fill="#323A50"/>
<path d="M238.188 190.398L263.881 189.337C263.94 189.455 263.94 189.573 263.999 189.75L238.012 190.811C238.071 190.693 238.13 190.575 238.188 190.398Z" fill="#323A50"/>
<path d="M237.365 192.166L264.236 191.105C264.236 191.223 264.295 191.341 264.295 191.518L237.129 192.637C237.247 192.402 237.306 192.284 237.365 192.166Z" fill="#323A50"/>
<path d="M236.48 193.875L264.412 192.755C264.412 192.873 264.412 193.05 264.412 193.168L236.244 194.288C236.303 194.17 236.362 194.052 236.48 193.875Z" fill="#323A50"/>
<path d="M235.537 195.525L264.235 194.346C264.235 194.464 264.176 194.641 264.176 194.759L235.301 195.938C235.419 195.761 235.478 195.643 235.537 195.525Z" fill="#323A50"/>
<path d="M234.535 197.293L263.881 196.114C263.822 196.232 263.822 196.409 263.763 196.527L234.299 197.705C234.358 197.529 234.417 197.411 234.535 197.293Z" fill="#323A50"/>
<path d="M233.474 199.002L263.351 197.764C263.292 197.882 263.233 198.059 263.174 198.177L233.18 199.414C233.298 199.296 233.356 199.12 233.474 199.002Z" fill="#323A50"/>
<path d="M232.297 200.769L262.586 199.532C262.527 199.65 262.468 199.827 262.409 199.944L232.002 201.182C232.12 201.064 232.238 200.887 232.297 200.769Z" fill="#323A50"/>
<path d="M231.236 202.42L261.879 201.182C261.82 201.3 261.761 201.477 261.643 201.595L230.941 202.832C231 202.714 231.118 202.596 231.236 202.42Z" fill="#323A50"/>
<path d="M229.998 204.187L260.876 202.95C260.817 203.068 260.7 203.245 260.641 203.362L229.703 204.6C229.821 204.482 229.88 204.364 229.998 204.187Z" fill="#323A50"/>
<path d="M228.759 205.955L259.815 204.718C259.756 204.836 259.638 205.012 259.579 205.13L228.465 206.368C228.583 206.191 228.701 206.073 228.759 205.955Z" fill="#323A50"/>
<path d="M227.523 207.723L258.697 206.486C258.579 206.603 258.52 206.78 258.402 206.898L227.17 208.136C227.288 208.018 227.406 207.841 227.523 207.723Z" fill="#323A50"/>
<path d="M226.285 209.314L257.517 208.077C257.399 208.195 257.341 208.371 257.223 208.489L225.932 209.727C226.108 209.609 226.226 209.491 226.285 209.314Z" fill="#323A50"/>
<path d="M224.988 211.082L256.279 209.844C256.161 209.962 256.043 210.139 255.984 210.257L224.693 211.494C224.752 211.377 224.87 211.259 224.988 211.082Z" fill="#323A50"/>
<path d="M223.633 212.85L254.865 211.613C254.747 211.73 254.629 211.907 254.511 212.025L223.279 213.263C223.456 213.145 223.574 212.968 223.633 212.85Z" fill="#323A50"/>
<path d="M222.277 214.618L253.451 213.38C253.333 213.498 253.215 213.675 253.097 213.793L221.924 215.03C222.042 214.913 222.16 214.795 222.277 214.618Z" fill="#323A50"/>
<path d="M220.924 216.386L252.038 215.148C251.92 215.266 251.802 215.443 251.684 215.561L220.629 216.798C220.688 216.68 220.806 216.504 220.924 216.386Z" fill="#323A50"/>
<path d="M219.508 218.154L250.445 216.916C250.327 217.034 250.21 217.211 250.092 217.329L219.154 218.566C219.272 218.448 219.39 218.271 219.508 218.154Z" fill="#323A50"/>
<path d="M218.094 219.921L248.913 218.684C248.796 218.802 248.678 218.978 248.501 219.096L217.74 220.334C217.858 220.157 217.976 220.039 218.094 219.921Z" fill="#323A50"/>
<path d="M216.738 221.571L247.381 220.334C247.263 220.452 247.145 220.629 246.969 220.746L216.385 221.984C216.503 221.866 216.62 221.689 216.738 221.571Z" fill="#323A50"/>
<path d="M215.383 223.221L245.79 221.984C245.672 222.102 245.495 222.279 245.378 222.396L215.029 223.634C215.147 223.457 215.265 223.339 215.383 223.221Z" fill="#323A50"/>
<path d="M213.91 224.989L244.082 223.752C243.964 223.87 243.787 224.046 243.669 224.164L213.557 225.402C213.674 225.284 213.792 225.107 213.91 224.989Z" fill="#323A50"/>
<path d="M212.496 226.757L242.373 225.52C242.255 225.637 242.078 225.814 241.96 225.932L212.143 227.17C212.26 226.993 212.378 226.875 212.496 226.757Z" fill="#323A50"/>
<path d="M210.965 228.525L240.606 227.346C240.488 227.464 240.311 227.641 240.193 227.759L210.67 228.938C210.729 228.82 210.847 228.643 210.965 228.525Z" fill="#323A50"/>
<path d="M209.549 230.175L238.895 228.996C238.777 229.114 238.6 229.291 238.483 229.409L209.254 230.587C209.313 230.47 209.431 230.293 209.549 230.175Z" fill="#323A50"/>
<path d="M208.135 231.825L237.128 230.646C236.951 230.764 236.833 230.941 236.657 231.059L207.723 232.238C207.899 232.061 208.017 231.943 208.135 231.825Z" fill="#323A50"/>
<path d="M206.604 233.593L235.243 232.414C235.066 232.532 234.949 232.709 234.772 232.827L206.191 234.005C206.368 233.888 206.486 233.711 206.604 233.593Z" fill="#323A50"/>
<path d="M205.071 235.361L233.356 234.241C233.18 234.359 233.062 234.536 232.885 234.653L204.658 235.773C204.835 235.596 204.953 235.478 205.071 235.361Z" fill="#323A50"/>
<path d="M203.539 237.128L231.471 236.009C231.294 236.127 231.177 236.303 231 236.421L203.186 237.541C203.303 237.423 203.421 237.246 203.539 237.128Z" fill="#323A50"/>
<path d="M201.947 238.896L229.467 237.777C229.29 237.894 229.172 238.071 228.996 238.189L201.594 239.309C201.712 239.191 201.829 239.073 201.947 238.896Z" fill="#323A50"/>
<path d="M200.475 240.546L227.582 239.427C227.405 239.545 227.288 239.721 227.111 239.839L200.062 240.959C200.239 240.841 200.357 240.664 200.475 240.546Z" fill="#323A50"/>
<path d="M198.883 242.314L225.577 241.253C225.401 241.371 225.283 241.548 225.106 241.666L198.529 242.727C198.647 242.609 198.765 242.491 198.883 242.314Z" fill="#323A50"/>
<path d="M197.293 244.082L223.575 243.021C223.398 243.139 223.222 243.316 223.104 243.434L196.939 244.495C197.057 244.377 197.175 244.259 197.293 244.082Z" fill="#323A50"/>
<path d="M195.701 245.85L221.512 244.789C221.335 244.907 221.158 245.084 221.041 245.202L195.348 246.263C195.466 246.145 195.583 246.027 195.701 245.85Z" fill="#323A50"/>
<path d="M194.229 247.5L219.627 246.498C219.45 246.616 219.273 246.793 219.155 246.911L193.875 247.912C193.934 247.794 194.052 247.677 194.229 247.5Z" fill="#323A50"/>
<path d="M194.641 249.091L217.623 248.148C217.446 248.266 217.269 248.443 217.092 248.561L195.642 249.445C195.348 249.327 194.994 249.209 194.641 249.091Z" fill="#323A50"/>
<path d="M199.178 250.623L215.501 249.975C215.324 250.093 215.147 250.269 214.971 250.387L200.238 250.977C199.944 250.859 199.59 250.741 199.178 250.623Z" fill="#323A50"/>
<path d="M203.834 252.096L213.38 251.684C213.204 251.802 213.027 251.978 212.85 252.096L204.954 252.391C204.6 252.332 204.246 252.214 203.834 252.096Z" fill="#323A50"/>
<path d="M208.488 253.629L211.199 253.511C211.022 253.629 210.845 253.805 210.669 253.923L209.549 253.982C209.195 253.864 208.842 253.746 208.488 253.629Z" fill="#323A50"/>
</g>
<path d="M90.5138 153.627C94.2852 148.323 100.355 145.966 108.546 146.555C113.26 146.909 117.326 148.146 118.976 148.736C119.094 148.5 119.271 148.323 119.507 148.205C118.033 147.675 113.673 146.202 108.546 145.848C100.237 145.259 93.8138 147.793 89.9834 153.155C89.3352 153.804 70.537 173.132 64.5852 186.214C62.9941 189.632 59.8709 189.455 54.1549 189.102C49.3816 188.807 42.8995 188.395 34.1191 189.868L34.237 190.516C42.9584 189.043 49.3816 189.455 54.1549 189.75C59.9888 190.104 63.5245 190.339 65.2334 186.45C70.0656 175.784 83.6192 160.875 88.6281 155.571C86.8602 160.168 87.9209 167.711 91.8102 178.141C95.5227 188.041 101.71 200.593 110.373 215.384C113.555 220.864 116.855 226.227 120.037 231.295H120.803C117.562 226.227 114.203 220.629 110.903 215.03C91.5745 181.854 84.562 160.639 90.5138 153.627Z" fill="#323A50"/>
<path d="M115.145 153.804C115.381 153.391 116.677 151.388 116.913 151.093C116.913 150.857 115.616 151.918 115.734 151.741C115.852 151.329 116.324 150.916 116.795 150.798C116.913 150.327 116.972 150.091 117.502 149.973C117.502 149.738 118.033 149.914 118.091 149.738C116.854 150.798 115.322 152.213 114.556 153.568C111.02 159.873 115.852 179.202 128.875 211.141C131.763 218.154 134.709 225.166 137.479 231.236H138.245C126.224 203.952 110.018 163.468 115.145 153.804Z" fill="#323A50"/>
<path d="M119.447 148.147C119.329 148.205 119.152 148.323 119.034 148.382L115.086 146.85C117.031 147.322 118.504 147.793 119.447 148.147Z" fill="#323A50"/>
<path d="M117.739 149.738L107.604 145.848C108.016 145.848 108.487 145.907 108.9 145.907L117.975 149.384C117.916 149.502 117.798 149.62 117.739 149.738Z" fill="#323A50"/>
<path d="M116.795 151.152L103.359 145.966C103.654 145.907 103.949 145.907 104.243 145.907L117.09 150.857C117.09 150.916 117.031 150.975 117.031 150.975C116.913 151.034 116.854 151.093 116.795 151.152Z" fill="#323A50"/>
<path d="M115.617 152.566L100.119 146.615C100.355 146.556 100.591 146.497 100.826 146.438L115.853 152.213C115.735 152.331 115.676 152.448 115.617 152.566Z" fill="#323A50"/>
<path d="M114.91 153.98L97.7617 147.38C97.9385 147.322 98.1153 147.204 98.351 147.145L115.087 153.627C115.028 153.745 114.969 153.863 114.91 153.98Z" fill="#323A50"/>
<path d="M114.321 155.631L95.6406 148.441C95.8174 148.382 95.9353 148.264 96.112 148.206L114.439 155.277C114.38 155.336 114.38 155.454 114.321 155.631Z" fill="#323A50"/>
<path d="M114.086 156.986C114.086 157.104 114.086 157.222 114.086 157.34L93.873 149.561C93.9909 149.443 94.1088 149.384 94.2856 149.266L114.086 156.927C114.144 156.927 114.086 156.986 114.086 156.986Z" fill="#323A50"/>
<path d="M114.025 158.872C114.025 158.931 114.025 159.048 114.025 159.107L92.3984 150.739C92.5163 150.622 92.6342 150.563 92.752 150.445L114.084 158.636C114.025 158.754 114.025 158.813 114.025 158.872Z" fill="#323A50"/>
<path d="M114.145 160.581L91.3982 151.8C91.2803 151.918 91.2214 152.036 91.1035 152.154L114.145 161.052C114.204 160.875 114.145 160.699 114.145 160.581Z" fill="#323A50"/>
<path d="M114.32 162.466L90.2767 153.214C90.2178 153.273 90.1589 153.391 90.041 153.568L114.32 162.938C114.32 162.761 114.32 162.643 114.32 162.466Z" fill="#323A50"/>
<path d="M114.497 164.352L89.3936 154.688C89.3346 154.806 89.2757 154.923 89.2168 155.041L114.556 164.823C114.556 164.647 114.556 164.529 114.497 164.352Z" fill="#323A50"/>
<path d="M114.792 166.297L88.6862 156.22C88.6273 156.338 88.6273 156.455 88.5684 156.632L114.909 166.768C114.851 166.65 114.851 166.473 114.792 166.297Z" fill="#323A50"/>
<path d="M115.145 168.123L88.3324 157.811C88.3324 157.929 88.2734 158.105 88.2734 158.223L115.204 168.595C115.204 168.418 115.204 168.3 115.145 168.123Z" fill="#323A50"/>
<path d="M115.558 170.127L88.1562 159.579C88.1562 159.697 88.1562 159.874 88.1562 159.991L115.676 170.599C115.617 170.481 115.617 170.304 115.558 170.127Z" fill="#323A50"/>
<path d="M116.029 172.131L88.1562 161.347C88.1562 161.465 88.1562 161.641 88.1562 161.759L116.147 172.543C116.088 172.425 116.029 172.307 116.029 172.131Z" fill="#323A50"/>
<path d="M116.501 174.134L88.2148 163.232C88.2148 163.409 88.2738 163.527 88.2738 163.704L116.677 174.665C116.618 174.488 116.559 174.311 116.501 174.134Z" fill="#323A50"/>
<path d="M117.032 176.079L88.4512 165.059C88.4512 165.236 88.5101 165.354 88.5101 165.531L117.149 176.609C117.149 176.432 117.09 176.255 117.032 176.079Z" fill="#323A50"/>
<path d="M117.621 178.141L88.8047 167.004C88.8636 167.18 88.8636 167.298 88.9226 167.475L117.798 178.613C117.739 178.495 117.68 178.318 117.621 178.141Z" fill="#323A50"/>
<path d="M118.21 180.204L89.2168 169.007C89.2757 169.184 89.2757 169.302 89.3346 169.479L118.386 180.675C118.328 180.498 118.269 180.322 118.21 180.204Z" fill="#323A50"/>
<path d="M118.859 182.266L89.748 171.011C89.807 171.188 89.807 171.306 89.8659 171.482L119.036 182.738C118.977 182.62 118.918 182.443 118.859 182.266Z" fill="#323A50"/>
<path d="M119.447 184.211L90.2773 172.956C90.3363 173.132 90.3952 173.309 90.4541 173.427L119.624 184.682C119.565 184.506 119.506 184.388 119.447 184.211Z" fill="#323A50"/>
<path d="M120.154 186.332L90.9258 175.018C90.9847 175.195 91.0436 175.372 91.1026 175.489L120.331 186.745C120.272 186.627 120.213 186.45 120.154 186.332Z" fill="#323A50"/>
<path d="M120.802 188.395L91.6328 177.139C91.6917 177.316 91.7507 177.493 91.8096 177.67L120.979 188.925C120.92 188.689 120.861 188.513 120.802 188.395Z" fill="#323A50"/>
<path d="M121.57 190.516L92.459 179.261C92.5179 179.438 92.5768 179.615 92.6358 179.791L121.746 191.047C121.688 190.811 121.629 190.693 121.57 190.516Z" fill="#323A50"/>
<path d="M122.276 192.579L93.2246 181.382C93.2835 181.559 93.3425 181.736 93.4014 181.913L122.394 193.109C122.394 192.932 122.335 192.756 122.276 192.579Z" fill="#323A50"/>
<path d="M123.041 194.759L94.1074 183.622C94.1664 183.798 94.2253 183.975 94.3431 184.152L123.218 195.289C123.159 195.054 123.1 194.877 123.041 194.759Z" fill="#323A50"/>
<path d="M123.808 196.821L95.0508 185.743C95.1097 185.92 95.2276 186.096 95.2865 186.273L123.985 197.352C123.926 197.175 123.867 196.998 123.808 196.821Z" fill="#323A50"/>
<path d="M124.574 198.884L95.9941 187.865C96.0531 188.041 96.1709 188.218 96.2298 188.395L124.751 199.415C124.692 199.179 124.633 199.002 124.574 198.884Z" fill="#323A50"/>
<path d="M125.341 200.829L96.9375 189.868C96.9964 190.045 97.1143 190.221 97.1732 190.398L125.518 201.359C125.459 201.182 125.4 201.005 125.341 200.829Z" fill="#323A50"/>
<path d="M126.164 203.009L97.9375 192.107C97.9964 192.284 98.1143 192.461 98.1732 192.638L126.282 203.481C126.282 203.363 126.223 203.186 126.164 203.009Z" fill="#323A50"/>
<path d="M126.932 205.131L99 194.347C99.0589 194.523 99.1768 194.7 99.2357 194.877L127.109 205.602C127.109 205.484 127.05 205.307 126.932 205.131Z" fill="#323A50"/>
<path d="M127.815 207.311L100.178 196.645C100.296 196.822 100.355 196.998 100.472 197.175L128.051 207.841C127.933 207.605 127.874 207.488 127.815 207.311Z" fill="#323A50"/>
<path d="M128.64 209.315L101.238 198.766C101.356 198.943 101.415 199.12 101.533 199.297L128.817 209.845C128.758 209.668 128.699 209.491 128.64 209.315Z" fill="#323A50"/>
<path d="M129.406 211.318L102.299 200.888C102.417 201.064 102.476 201.241 102.593 201.418L129.642 211.848C129.524 211.672 129.465 211.495 129.406 211.318Z" fill="#323A50"/>
<path d="M130.291 213.498L103.537 203.186C103.655 203.363 103.714 203.539 103.832 203.716L130.526 214.029C130.409 213.852 130.35 213.675 130.291 213.498Z" fill="#323A50"/>
<path d="M131.174 215.62L104.715 205.425C104.833 205.602 104.892 205.779 105.009 205.956L131.351 216.091C131.292 215.974 131.233 215.797 131.174 215.62Z" fill="#323A50"/>
<path d="M132.058 217.859L106.012 207.782C106.13 207.959 106.189 208.136 106.306 208.313L132.294 218.33C132.235 218.154 132.176 218.036 132.058 217.859Z" fill="#323A50"/>
<path d="M133.001 220.039L107.309 210.139C107.426 210.316 107.544 210.493 107.603 210.67L133.178 220.57C133.178 220.393 133.06 220.216 133.001 220.039Z" fill="#323A50"/>
<path d="M133.826 222.043L108.486 212.261C108.604 212.438 108.722 212.615 108.781 212.791L134.002 222.515C134.002 222.397 133.943 222.22 133.826 222.043Z" fill="#323A50"/>
<path d="M134.769 224.282L109.842 214.677C109.96 214.854 110.078 215.031 110.136 215.207L135.004 224.813C134.945 224.636 134.886 224.459 134.769 224.282Z" fill="#323A50"/>
<path d="M135.712 226.404L111.197 216.916C111.315 217.093 111.433 217.27 111.492 217.506L135.947 226.934C135.888 226.757 135.77 226.581 135.712 226.404Z" fill="#323A50"/>
<path d="M136.655 228.643L112.553 219.332C112.671 219.509 112.788 219.686 112.906 219.922L136.89 229.173C136.831 228.997 136.772 228.82 136.655 228.643Z" fill="#323A50"/>
<path d="M137.539 230.705L113.85 221.572C113.967 221.748 114.085 221.925 114.203 222.161L137.834 231.295C137.716 231 137.657 230.882 137.539 230.705Z" fill="#323A50"/>
<path d="M136.595 232.002L115.086 223.693C115.204 223.87 115.322 224.047 115.44 224.282L135.475 232.002C135.888 232.002 136.241 232.002 136.595 232.002Z" fill="#323A50"/>
<path d="M131.823 232.002L116.561 226.109C116.678 226.286 116.796 226.463 116.914 226.698L130.644 232.002C131.057 232.002 131.469 232.002 131.823 232.002Z" fill="#323A50"/>
<path d="M126.931 231.943L118.033 228.525C118.151 228.702 118.269 228.879 118.387 229.114L125.753 231.943C126.165 231.884 126.519 231.943 126.931 231.943Z" fill="#323A50"/>
<path d="M122.04 231.884L119.506 230.941C119.624 231.118 119.742 231.354 119.859 231.53L120.92 231.943C121.333 231.884 121.686 231.884 122.04 231.884Z" fill="#323A50"/>
<g opacity="0.3">
<path d="M70.0066 189.691C71.8923 183.445 76.8423 179.261 84.7977 177.198C89.3352 176.02 93.637 175.902 95.4048 175.902C95.4637 175.666 95.5816 175.43 95.7584 175.254C94.2262 175.195 89.5709 175.254 84.6209 176.55C76.5476 178.671 71.303 183.091 69.4173 189.455C69.0048 190.28 57.4548 214.618 55.9816 228.937C55.628 232.709 52.5637 233.534 47.0244 235.007C42.428 236.245 36.1227 237.954 28.2852 242.196L28.5798 242.786C36.3584 238.602 42.6048 236.893 47.1423 235.655C52.7994 234.123 56.1584 233.18 56.5709 228.996C57.7494 217.387 65.7637 198.884 68.7691 192.225C68.5923 197.175 72.0101 203.952 79.0226 212.555C85.6816 220.746 95.6405 230.587 108.546 241.843C113.319 246.027 118.151 250.034 122.807 253.805L123.573 253.57C118.858 249.798 113.849 245.614 108.958 241.371C80.1423 216.091 66.6477 198.295 70.0066 189.691Z" fill="#323A50"/>
<path d="M93.4609 181.971C93.5198 181.5 94.1091 179.202 94.2859 178.789C94.227 178.554 93.3431 179.968 93.402 179.732C93.402 179.261 93.6966 178.789 94.1091 178.495C94.0502 178.023 94.0502 177.787 94.5216 177.493C94.4627 177.257 94.993 177.257 95.052 177.08C94.227 178.436 93.2252 180.321 92.9306 181.854C91.6341 188.925 102.418 205.72 124.988 231.707C129.997 237.423 135.006 243.08 139.602 247.971L140.309 247.736C120.038 225.873 91.693 192.755 93.4609 181.971Z" fill="#323A50"/>
<path d="M95.641 175.195C95.5232 175.312 95.4642 175.43 95.3464 175.548L91.1035 175.371C93.1071 175.195 94.6982 175.195 95.641 175.195Z" fill="#323A50"/>
<path d="M94.5206 177.257L83.6777 176.845C84.0902 176.727 84.5027 176.609 84.9742 176.491L94.6974 176.903C94.6385 177.021 94.5795 177.139 94.5206 177.257Z" fill="#323A50"/>
<path d="M94.1094 178.907L79.6719 178.318C79.9665 178.2 80.2022 178.082 80.4969 177.964L94.2862 178.553C94.2862 178.612 94.2862 178.671 94.2862 178.73C94.2272 178.789 94.1683 178.848 94.1094 178.907Z" fill="#323A50"/>
<path d="M93.4596 180.616L76.8418 179.968C77.0186 179.85 77.2543 179.732 77.4311 179.614L93.5186 180.262C93.5186 180.38 93.4596 180.498 93.4596 180.616Z" fill="#323A50"/>
<path d="M93.2842 182.207L74.8984 181.441C75.0752 181.323 75.1931 181.205 75.3699 181.029L93.2842 181.736C93.2842 181.912 93.2842 182.089 93.2842 182.207Z" fill="#323A50"/>
<path d="M93.2252 183.916L73.1895 183.091C73.3073 182.973 73.4252 182.855 73.543 182.678L93.1662 183.445C93.1662 183.621 93.2252 183.798 93.2252 183.916Z" fill="#323A50"/>
<path d="M93.4601 185.271C93.519 185.389 93.519 185.507 93.578 185.566L71.9512 184.682C72.069 184.564 72.128 184.387 72.2458 184.27L93.4601 185.153C93.4601 185.212 93.4601 185.271 93.4601 185.271Z" fill="#323A50"/>
<path d="M93.9906 187.098C93.9906 187.157 94.0495 187.275 94.0495 187.334L70.8906 186.391C70.9496 186.273 71.0085 186.096 71.1264 185.979L93.9317 186.921C93.9906 186.98 93.9906 187.039 93.9906 187.098Z" fill="#323A50"/>
<path d="M94.6393 188.689L70.3018 187.688C70.2428 187.805 70.1839 187.982 70.125 188.1L94.8161 189.102C94.7572 188.925 94.6982 188.807 94.6393 188.689Z" fill="#323A50"/>
<path d="M95.4045 190.398L69.7116 189.337C69.6527 189.455 69.6527 189.573 69.5938 189.75L95.5813 190.811C95.5223 190.693 95.4634 190.575 95.4045 190.398Z" fill="#323A50"/>
<path d="M96.2311 192.166L69.3597 191.105C69.3597 191.223 69.3008 191.341 69.3008 191.518L96.4669 192.637C96.349 192.402 96.2901 192.284 96.2311 192.166Z" fill="#323A50"/>
<path d="M97.1138 193.875L69.1816 192.755C69.1816 192.873 69.1816 193.05 69.1816 193.168L97.3495 194.288C97.2906 194.17 97.1727 194.052 97.1138 193.875Z" fill="#323A50"/>
<path d="M97.999 195.525L69.3008 194.346C69.3008 194.464 69.3597 194.641 69.3597 194.759L98.2347 195.938C98.1758 195.761 98.1169 195.643 97.999 195.525Z" fill="#323A50"/>
<path d="M99.0593 197.293L69.7129 196.114C69.7718 196.232 69.7718 196.409 69.8308 196.527L99.295 197.705C99.2361 197.529 99.1182 197.411 99.0593 197.293Z" fill="#323A50"/>
<path d="M100.119 199.002L70.2422 197.764C70.3011 197.882 70.36 198.059 70.419 198.177L100.414 199.414C100.296 199.296 100.237 199.12 100.119 199.002Z" fill="#323A50"/>
<path d="M101.238 200.769L70.9492 199.532C71.0081 199.65 71.0671 199.827 71.126 199.944L101.533 201.182C101.474 201.064 101.356 200.887 101.238 200.769Z" fill="#323A50"/>
<path d="M102.36 202.42L71.7168 201.182C71.7757 201.3 71.8346 201.477 71.9525 201.595L102.654 202.832C102.536 202.714 102.478 202.596 102.36 202.42Z" fill="#323A50"/>
<path d="M103.595 204.187L72.7168 202.95C72.7757 203.068 72.8936 203.245 72.9525 203.362L103.89 204.6C103.772 204.482 103.654 204.364 103.595 204.187Z" fill="#323A50"/>
<path d="M104.774 205.955L73.7188 204.718C73.7777 204.836 73.8956 205.012 73.9545 205.13L105.069 206.368C105.01 206.191 104.892 206.073 104.774 205.955Z" fill="#323A50"/>
<path d="M106.072 207.723L74.8984 206.486C75.0163 206.603 75.0752 206.78 75.1931 206.898L106.425 208.136C106.307 208.018 106.19 207.841 106.072 207.723Z" fill="#323A50"/>
<path d="M107.25 209.314L76.0176 208.077C76.1354 208.195 76.1944 208.371 76.3122 208.489L107.603 209.727C107.485 209.609 107.368 209.491 107.25 209.314Z" fill="#323A50"/>
<path d="M108.606 211.082L77.3145 209.844C77.4323 209.962 77.5502 210.139 77.6091 210.257L108.9 211.494C108.782 211.377 108.723 211.259 108.606 211.082Z" fill="#323A50"/>
<path d="M109.902 212.85L78.6699 211.613C78.7878 211.73 78.9056 211.907 79.0235 212.025L110.256 213.263C110.138 213.145 110.02 212.968 109.902 212.85Z" fill="#323A50"/>
<path d="M111.316 214.618L80.1426 213.38C80.2604 213.498 80.3783 213.675 80.4961 213.793L111.669 215.03C111.493 214.913 111.375 214.795 111.316 214.618Z" fill="#323A50"/>
<path d="M112.671 216.386L81.5566 215.148C81.6745 215.266 81.7923 215.443 81.9102 215.561L112.966 216.798C112.907 216.68 112.789 216.504 112.671 216.386Z" fill="#323A50"/>
<path d="M114.086 218.154L83.1484 216.916C83.2663 217.034 83.3842 217.211 83.502 217.329L114.44 218.566C114.322 218.448 114.204 218.271 114.086 218.154Z" fill="#323A50"/>
<path d="M115.499 219.921L84.6797 218.684C84.7975 218.802 84.9154 218.978 85.0922 219.096L115.853 220.334C115.676 220.157 115.558 220.039 115.499 219.921Z" fill="#323A50"/>
<path d="M116.856 221.571L86.2129 220.334C86.3307 220.452 86.4486 220.629 86.6254 220.746L117.209 221.984C117.033 221.866 116.974 221.689 116.856 221.571Z" fill="#323A50"/>
<path d="M118.151 223.221L87.7441 221.984C87.862 222.102 88.0388 222.279 88.1566 222.396L118.505 223.634C118.387 223.457 118.269 223.339 118.151 223.221Z" fill="#323A50"/>
<path d="M119.625 224.989L89.4531 223.752C89.571 223.87 89.7478 224.046 89.8656 224.164L119.978 225.402C119.86 225.284 119.742 225.107 119.625 224.989Z" fill="#323A50"/>
<path d="M121.097 226.757L91.2207 225.52C91.3386 225.637 91.5154 225.814 91.6332 225.932L121.451 227.17C121.333 226.993 121.215 226.875 121.097 226.757Z" fill="#323A50"/>
<path d="M122.629 228.525L92.9883 227.346C93.1061 227.464 93.2829 227.641 93.4008 227.759L122.924 228.938C122.865 228.82 122.747 228.643 122.629 228.525Z" fill="#323A50"/>
<path d="M124.044 230.175L94.6973 228.996C94.8151 229.114 94.9919 229.291 95.1098 229.409L124.338 230.587C124.279 230.47 124.162 230.293 124.044 230.175Z" fill="#323A50"/>
<path d="M125.399 231.825L96.4062 230.646C96.583 230.764 96.7009 230.941 96.8777 231.059L125.812 232.238C125.635 232.061 125.517 231.943 125.399 231.825Z" fill="#323A50"/>
<path d="M126.991 233.593L98.3516 232.414C98.5283 232.532 98.6462 232.709 98.823 232.827L127.403 234.005C127.227 233.888 127.109 233.711 126.991 233.593Z" fill="#323A50"/>
<path d="M128.463 235.361L100.178 234.241C100.355 234.359 100.472 234.536 100.649 234.653L128.876 235.773C128.758 235.596 128.581 235.478 128.463 235.361Z" fill="#323A50"/>
<path d="M130.055 237.128L102.123 236.009C102.3 236.127 102.418 236.303 102.594 236.421L130.409 237.541C130.291 237.423 130.173 237.246 130.055 237.128Z" fill="#323A50"/>
<path d="M131.647 238.896L104.127 237.777C104.304 237.894 104.422 238.071 104.598 238.189L132 239.309C131.882 239.191 131.764 239.073 131.647 238.896Z" fill="#323A50"/>
<path d="M133.06 240.546L105.953 239.427C106.13 239.545 106.248 239.721 106.425 239.839L133.473 240.959C133.355 240.841 133.237 240.664 133.06 240.546Z" fill="#323A50"/>
<path d="M134.71 242.314L108.016 241.253C108.192 241.371 108.31 241.548 108.487 241.666L135.064 242.727C134.946 242.609 134.828 242.491 134.71 242.314Z" fill="#323A50"/>
<path d="M136.243 244.082L109.961 243.021C110.138 243.139 110.315 243.316 110.432 243.434L136.597 244.495C136.538 244.377 136.361 244.259 136.243 244.082Z" fill="#323A50"/>
<path d="M137.893 245.85L112.082 244.789C112.259 244.907 112.436 245.084 112.553 245.202L138.246 246.263C138.128 246.145 138.011 246.027 137.893 245.85Z" fill="#323A50"/>
<path d="M139.365 247.5L113.967 246.498C114.144 246.616 114.32 246.793 114.438 246.911L139.719 247.912C139.601 247.794 139.483 247.677 139.365 247.5Z" fill="#323A50"/>
<path d="M138.894 249.091L115.912 248.148C116.089 248.266 116.266 248.443 116.442 248.561L137.892 249.445C138.187 249.327 138.541 249.209 138.894 249.091Z" fill="#323A50"/>
<path d="M134.356 250.623L118.033 249.975C118.21 250.093 118.387 250.269 118.564 250.387L133.296 250.977C133.649 250.859 134.003 250.741 134.356 250.623Z" fill="#323A50"/>
<path d="M129.701 252.096L120.154 251.684C120.331 251.802 120.508 251.978 120.685 252.096L128.581 252.391C128.935 252.332 129.347 252.214 129.701 252.096Z" fill="#323A50"/>
<path d="M125.105 253.629L122.395 253.511C122.571 253.629 122.748 253.805 122.925 253.923L124.045 253.982C124.398 253.864 124.752 253.746 125.105 253.629Z" fill="#323A50"/>
</g>
<path d="M79.5537 147.263L75.6055 144.08C76.018 143.55 85.9769 131.116 99.5894 122.63L102.3 126.932C89.3358 135.005 79.6126 147.145 79.5537 147.263Z" fill="#EA5A24"/>
<path d="M95.8184 120.803L106.367 121.393V121.452L102.006 131.234L95.8184 120.803Z" fill="#FF5B00"/>
<path d="M253.098 147.263C252.98 147.145 243.257 134.946 230.41 126.932L233.121 122.63C246.733 131.116 256.692 143.609 257.105 144.08L253.098 147.263Z" fill="#EA5A24"/>
<path d="M236.833 120.803L226.285 121.393V121.452L230.646 131.234L236.833 120.803Z" fill="#FF5B00"/>
</g>
<defs>
<linearGradient id="paint0_linear_3671_13017" x1="270.67" y1="226.128" x2="69.7028" y2="79.1387" gradientUnits="userSpaceOnUse">
<stop offset="0.2655" stop-color="#032A3D" stop-opacity="0"/>
<stop offset="0.7809" stop-color="#032A3D"/>
</linearGradient>
<radialGradient id="paint1_radial_3671_13017" cx="0" cy="0" r="1" gradientUnits="userSpaceOnUse" gradientTransform="translate(165.958 218.468) scale(67.928 67.6155)">
<stop offset="0.2655" stop-color="#032A3D" stop-opacity="0"/>
<stop offset="1" stop-color="#032A3D"/>
</radialGradient>
<linearGradient id="paint2_linear_3671_13017" x1="139.326" y1="111.161" x2="189.222" y2="307.029" gradientUnits="userSpaceOnUse">
<stop offset="0.4054" stop-color="#032A3D" stop-opacity="0"/>
<stop offset="1" stop-color="#032A3D"/>
</linearGradient>
<linearGradient id="paint3_linear_3671_13017" x1="103.335" y1="178.122" x2="234.576" y2="301.237" gradientUnits="userSpaceOnUse">
<stop offset="0.2655" stop-color="#032A3D" stop-opacity="0"/>
<stop offset="0.7809" stop-color="#032A3D"/>
</linearGradient>
<linearGradient id="paint4_linear_3671_13017" x1="110.494" y1="170.49" x2="241.735" y2="293.605" gradientUnits="userSpaceOnUse">
<stop offset="0.2655" stop-color="#032A3D" stop-opacity="0"/>
<stop offset="0.7809" stop-color="#032A3D"/>
</linearGradient>
<linearGradient id="paint5_linear_3671_13017" x1="107.939" y1="173.214" x2="239.181" y2="296.329" gradientUnits="userSpaceOnUse">
<stop offset="0.2655" stop-color="#032A3D" stop-opacity="0"/>
<stop offset="0.7809" stop-color="#032A3D"/>
</linearGradient>
<linearGradient id="paint6_linear_3671_13017" x1="82.9596" y1="199.842" x2="214.201" y2="322.957" gradientUnits="userSpaceOnUse">
<stop offset="0.2655" stop-color="#032A3D" stop-opacity="0"/>
<stop offset="0.7809" stop-color="#032A3D"/>
</linearGradient>
<linearGradient id="paint7_linear_3671_13017" x1="101.676" y1="179.889" x2="232.918" y2="303.004" gradientUnits="userSpaceOnUse">
<stop offset="0.2655" stop-color="#032A3D" stop-opacity="0"/>
<stop offset="0.7809" stop-color="#032A3D"/>
</linearGradient>
<linearGradient id="paint8_linear_3671_13017" x1="91.4118" y1="190.832" x2="222.653" y2="313.947" gradientUnits="userSpaceOnUse">
<stop offset="0.2655" stop-color="#032A3D" stop-opacity="0"/>
<stop offset="0.7809" stop-color="#032A3D"/>
</linearGradient>
<linearGradient id="paint9_linear_3671_13017" x1="72.8385" y1="210.631" x2="204.08" y2="333.746" gradientUnits="userSpaceOnUse">
<stop offset="0.2655" stop-color="#032A3D" stop-opacity="0"/>
<stop offset="0.7809" stop-color="#032A3D"/>
</linearGradient>
<linearGradient id="paint10_linear_3671_13017" x1="75.9627" y1="207.301" x2="207.204" y2="330.416" gradientUnits="userSpaceOnUse">
<stop offset="0.2655" stop-color="#032A3D" stop-opacity="0"/>
<stop offset="0.7809" stop-color="#032A3D"/>
</linearGradient>
<linearGradient id="paint11_linear_3671_13017" x1="86.2332" y1="196.352" x2="217.475" y2="319.467" gradientUnits="userSpaceOnUse">
<stop offset="0.2655" stop-color="#032A3D" stop-opacity="0"/>
<stop offset="0.7809" stop-color="#032A3D"/>
</linearGradient>
<linearGradient id="paint12_linear_3671_13017" x1="72.8012" y1="210.671" x2="204.043" y2="333.787" gradientUnits="userSpaceOnUse">
<stop offset="0.2655" stop-color="#032A3D" stop-opacity="0"/>
<stop offset="0.7809" stop-color="#032A3D"/>
</linearGradient>
<clipPath id="clip0_3671_13017">
<rect width="330" height="330" fill="white"/>
</clipPath>
</defs>
</svg>
