<svg width="331" height="330" viewBox="0 0 331 330" fill="none" xmlns="http://www.w3.org/2000/svg">
<g clip-path="url(#clip0_6392_36371)">
<path d="M221.752 154.47C215.472 147.96 215.395 148.037 212.485 144.743C207.277 138.693 191.424 118.782 167.377 118.552H167.224C162.016 118.552 157.115 119.547 152.75 121.079C151.218 121.615 146.01 121.615 144.479 120.926C142.947 120.237 143.33 122.994 141.721 122.381C138.811 121.232 138.505 128.661 136.207 130.422C129.315 135.936 124.49 141.757 122.039 144.59C119.129 147.96 119.129 147.883 112.084 155.082C95.1585 170.246 84.5133 192.072 84.3602 216.579C84.207 252.114 106.646 282.518 138.045 294.312C138.045 294.388 138.428 294.465 138.428 294.542C140.496 295.384 147.159 297.681 153.056 298.447C157.421 299.137 162.399 299.52 166.994 299.596C212.715 299.749 249.935 262.683 250.011 217.039C250.011 191.996 239.06 169.71 221.752 154.47Z" fill="white"/>
<path d="M242.734 181.81C237.832 171.165 230.863 161.898 222.056 154.087C219.912 151.943 218.533 150.411 217.461 149.415C215.393 147.271 214.78 146.658 212.866 144.437C212.559 144.054 212.253 143.748 211.947 143.289C209.037 139.842 203.523 133.486 196.017 128.125C186.904 121.539 177.254 118.169 167.528 118.016H167.298C164.005 118.016 160.712 118.399 157.419 119.165C157.419 119.394 157.419 119.701 157.419 119.93C160.636 119.165 163.852 118.782 167.069 118.782H167.298C189.814 119.088 205.284 137.009 211.104 143.748C211.487 144.131 211.794 144.514 212.1 144.897C214.015 147.118 214.704 147.807 216.772 149.875C217.844 151.024 219.222 152.402 221.367 154.623C239.211 170.323 249.396 192.992 249.32 216.733C249.167 261.994 212.253 298.907 166.915 298.907H166.686C162.014 298.907 156.96 298.524 152.824 297.835C147.004 297.069 140.341 294.771 138.426 294.006C138.35 293.929 138.273 293.852 138.197 293.776V293.699L137.967 293.623C105.878 281.599 84.4346 250.506 84.5112 216.273C84.5878 192.991 94.6203 170.629 111.928 155.082C113 154.01 113.843 153.091 114.609 152.325C118.974 147.884 119.28 147.501 121.884 144.667C122.19 144.284 122.573 143.978 122.88 143.518C125.56 140.455 130.002 135.324 136.052 130.576C137.048 129.81 137.737 128.048 138.273 126.364C138.962 124.449 139.652 122.534 140.724 122.534C140.877 122.534 141.03 122.534 141.183 122.611C141.413 122.687 141.566 122.764 141.796 122.764C142.562 122.764 142.945 122.151 143.174 121.692C143.404 121.309 143.557 121.079 143.711 121.079C143.864 121.079 143.864 121.079 144.017 121.156C144.936 121.615 147.08 121.845 148.765 121.845C148.842 121.845 148.918 121.845 148.995 121.845C148.842 121.539 148.765 121.309 148.612 121.003C146.774 121.003 145.166 120.773 144.553 120.467C144.323 120.313 144.093 120.313 143.864 120.313C143.174 120.313 142.868 120.849 142.638 121.309C142.255 121.922 142.102 122.075 141.719 121.922C141.49 121.845 141.26 121.768 141.03 121.768C139.345 121.768 138.656 123.913 137.814 126.134C137.278 127.742 136.665 129.35 135.822 130.04C129.696 134.941 125.177 140.072 122.497 143.135C122.114 143.518 121.808 143.901 121.501 144.284C118.974 147.118 118.591 147.501 114.226 151.943C113.46 152.708 112.541 153.627 111.545 154.7C102.891 162.435 96.0754 171.625 91.2506 182.04C86.2726 192.838 83.7454 204.403 83.6688 216.426C83.5922 233.734 88.8765 250.353 98.7558 264.444C108.405 278.153 121.884 288.568 137.507 294.465C137.584 294.542 137.66 294.618 137.66 294.618V294.695L137.89 294.848C140.035 295.767 146.697 298.065 152.594 298.83C156.806 299.52 161.938 299.979 166.609 299.979H166.839C178.02 299.979 188.895 297.758 199.234 293.47C209.113 289.257 217.997 283.284 225.655 275.702C233.314 268.044 239.287 259.237 243.499 249.281C247.865 239.018 250.086 228.144 250.086 216.962C250.392 204.632 247.788 192.838 242.734 181.81Z" fill="#323A50"/>
<path d="M167.148 300.209H166.919C155.661 300.209 144.786 297.988 134.447 293.623C124.568 289.411 115.684 283.36 107.949 275.702C100.291 268.044 94.317 259.083 90.1815 249.127C85.8928 238.789 83.6719 227.914 83.6719 216.656C83.7485 204.556 86.2757 192.991 91.2537 182.116C96.0785 171.624 102.894 162.358 111.548 154.699C118.058 147.96 118.441 147.577 120.892 144.82L121.428 144.131C121.811 143.748 122.117 143.365 122.5 142.906C125.027 139.995 129.239 135.094 134.907 130.499C136.055 129.58 137.127 128.737 138.276 127.895C138.889 127.436 139.272 126.134 139.578 124.985C140.038 123.3 140.497 121.768 141.799 121.768C142.029 121.768 142.335 121.845 142.565 121.922C142.718 121.998 142.795 122.075 142.948 122.075C142.948 121.922 142.948 121.845 142.948 121.692C142.948 121.232 143.024 120.084 144.097 120.084C144.403 120.084 144.786 120.237 145.245 120.39C145.705 120.62 146.93 120.773 148.462 120.773C149.994 120.773 147.926 117.633 148.462 117.403C152.214 119.547 155.354 119.318 157.039 118.935C160.409 118.092 163.855 117.709 167.225 117.709H167.455C177.257 117.786 186.83 121.156 195.944 127.818C203.449 133.256 208.733 139.383 211.95 143.059C212.333 143.518 212.716 143.978 213.022 144.284L213.175 144.514C215.856 147.501 216.085 147.807 222.212 154.163C231.019 161.975 237.988 171.318 242.966 181.963C248.021 192.991 250.625 204.862 250.548 217.039C250.548 228.297 248.327 239.171 243.962 249.434C239.75 259.313 233.7 268.197 226.118 275.932C218.46 283.514 209.576 289.564 199.62 293.699C189.204 298.064 178.33 300.209 167.148 300.209ZM141.799 122.994C141.416 122.994 141.033 124.449 140.803 125.291C140.421 126.67 139.961 128.201 139.042 128.891C137.893 129.656 136.821 130.576 135.749 131.418C130.158 135.936 125.946 140.761 123.496 143.671C123.113 144.131 122.73 144.59 122.423 144.897L121.887 145.586C119.437 148.42 118.977 148.802 112.467 155.542H112.391C95.0063 171.088 84.9738 193.298 84.9738 216.656C84.8206 261.993 121.657 299.06 166.919 299.06H167.148C212.333 299.06 249.246 262.376 249.323 217.115C249.399 193.451 239.214 170.859 221.37 155.159H221.293C215.09 148.726 214.937 148.496 212.18 145.433L212.026 145.203C211.644 144.82 211.337 144.437 210.954 143.978C204.598 136.549 189.664 119.241 167.378 119.011H167.225C163.855 119.011 160.562 119.471 157.192 120.237C155.584 120.62 152.904 120.696 150.913 120.007C149.994 120.313 149.764 122.075 148.462 122.075C147.466 122.075 145.552 121.998 144.709 121.615C144.479 121.462 144.326 121.462 144.25 121.462C144.25 121.615 144.25 121.768 144.25 121.845C144.25 122.304 144.173 123.377 143.178 123.377C142.871 123.377 142.565 123.223 142.182 123.07C141.876 122.994 141.799 122.994 141.799 122.994Z" fill="#323A50"/>
<path d="M166.612 292.857C156.273 292.857 146.317 290.789 136.821 286.807C127.707 282.901 119.589 277.387 112.544 270.341C105.498 263.296 100.061 255.101 96.2314 245.988C92.249 236.568 90.2578 226.535 90.2578 216.196C90.3344 204.096 93.0914 192.379 98.5289 181.657C103.737 171.395 111.472 162.281 120.585 155.312L121.045 156.002C101.975 170.399 91.0237 192.379 91.0237 216.196C90.9471 236.415 98.8352 255.407 113.08 269.729C127.324 284.05 146.317 292.014 166.535 292.014L166.612 292.857Z" fill="#323A50"/>
<path d="M166.84 286.347H166.687C147.924 286.347 130.386 278.995 117.214 265.746C104.041 252.497 96.7656 234.883 96.7656 216.12C96.8422 197.433 104.118 179.896 117.29 166.647C130.463 153.474 148.077 146.199 166.763 146.199H166.916C185.68 146.199 203.217 153.627 216.39 166.876C229.562 180.125 236.838 197.74 236.761 216.503C236.761 235.189 229.409 252.727 216.237 265.976C203.064 279.148 185.526 286.347 166.84 286.347ZM166.84 146.811C128.625 146.811 97.4549 177.904 97.3783 216.12C97.2251 254.412 128.395 285.735 166.687 285.735H166.84C205.055 285.735 236.225 254.718 236.301 216.426C236.378 197.893 229.179 180.432 216.083 167.183C202.988 153.934 185.526 146.658 166.993 146.658L166.84 146.811Z" fill="#323A50"/>
<g opacity="0.34">
<path d="M234.693 216.732C234.54 254.182 204.059 284.356 166.533 284.279C128.93 284.126 98.6032 253.722 98.6798 216.426C98.833 178.977 129.313 148.802 166.84 148.879C204.442 148.879 234.846 179.283 234.693 216.732Z" fill="url(#paint0_radial_6392_36371)"/>
<path d="M166.688 284.356H166.534C148.307 284.356 131.153 277.234 118.363 264.368C105.497 251.502 98.4514 234.423 98.528 216.35C98.6045 198.276 105.727 181.274 118.593 168.485C131.536 155.695 148.614 148.649 166.764 148.649H166.917C185.144 148.649 202.299 155.772 215.089 168.638C227.955 181.504 235 198.506 234.924 216.656C234.847 234.73 227.725 251.808 214.859 264.521C201.993 277.31 184.915 284.356 166.688 284.356ZM166.688 149.109C129.391 149.109 98.9875 179.283 98.8343 216.35C98.6811 253.569 129.085 283.973 166.458 283.973H166.611C203.907 283.973 234.311 253.799 234.464 216.732C234.541 179.513 204.137 149.109 166.841 149.109H166.688Z" fill="#323A50"/>
</g>
<path opacity="0.83" d="M211.259 155.006C213.327 152.785 213.939 150.794 210.876 147.347C205.745 141.527 190.505 121.998 167.3 121.845H167.07C164.543 121.845 162.092 122.075 159.795 122.534C157.727 122.917 154.434 123.606 151.906 122.687C150.834 123.07 148.996 124.985 147.618 124.449C146.239 123.913 147.005 126.21 145.856 126.134C142.87 125.904 141.568 130.116 139.27 131.724C131.382 137.468 125.944 144.131 123.264 147.194C120.201 150.641 121.809 153.168 122.498 154.623C124.413 158.375 127.323 159.065 128.165 158.605C133.603 155.312 136.36 146.658 142.563 144.667C142.716 144.59 151.677 140.455 166.457 140.302C166.534 140.302 176.566 140.225 186.063 143.212C194.87 145.586 200.307 155.006 205.898 158.375C207.506 159.294 209.651 156.691 211.259 155.006Z" fill="url(#paint1_linear_6392_36371)"/>
<path d="M149.378 149.951C149.378 150.104 149.225 149.262 149.378 148.496C149.454 147.883 149.684 147.194 149.914 146.658C150.22 146.122 150.603 145.586 151.063 145.126C151.063 145.126 151.139 145.126 151.139 145.05C153.896 142.216 159.793 140.378 166.609 140.378C176.106 140.378 183.841 144.131 183.841 148.803C183.841 148.803 183.841 149.415 183.764 149.798C183.688 150.564 183.381 151.253 182.922 152.019L205.897 158.375C205.897 157.916 205.897 158.835 205.897 157.074C205.897 145.586 188.436 136.166 166.916 136.09C145.319 136.013 127.858 145.356 127.781 156.844C127.781 157.533 127.858 158.222 127.934 158.835L150.603 152.172C150.22 151.56 149.531 150.564 149.378 149.951Z" fill="#DBDBDB"/>
<path d="M127.628 159.295L127.552 158.835C127.398 158.146 127.398 157.457 127.398 156.767C127.398 151.023 131.534 145.739 138.963 141.757C146.391 137.774 156.194 135.63 166.686 135.63H166.839C177.331 135.63 187.21 137.851 194.639 141.91C202.144 145.892 206.203 151.253 206.203 157.074C206.203 157.61 206.203 157.916 206.203 158.069C206.203 158.146 206.203 158.222 206.203 158.222C206.203 158.222 206.203 158.299 206.203 158.376V158.912L182.079 152.172L182.462 151.713C182.922 151.023 183.152 150.411 183.228 149.798C183.305 149.339 183.305 148.803 183.305 148.803C183.305 144.437 175.799 140.761 166.533 140.761H166.456C160.023 140.761 154.05 142.599 151.369 145.356L151.293 145.433C150.833 145.892 150.527 146.352 150.22 146.811C149.991 147.271 149.761 147.96 149.684 148.496C149.608 149.032 149.684 149.568 149.684 149.722V149.875C149.838 150.258 150.144 150.947 150.833 151.942L151.216 152.402L127.628 159.295ZM166.686 136.473C145.472 136.473 128.241 145.586 128.164 156.767C128.164 157.227 128.241 157.763 128.317 158.222L149.991 151.866C149.608 151.177 149.148 150.564 148.995 150.028C148.842 149.568 148.919 148.343 148.919 148.343C148.995 147.654 149.225 146.965 149.531 146.428C149.838 145.892 150.22 145.28 150.68 144.82L150.757 144.744C153.667 141.757 159.717 139.919 166.456 139.919H166.609C171.281 139.919 175.646 140.838 178.939 142.446C182.386 144.131 184.147 146.352 184.147 148.726C184.147 148.803 184.147 149.339 184.071 149.798C183.994 150.487 183.841 151.023 183.458 151.713L205.437 157.763C205.437 157.61 205.437 157.38 205.437 156.997C205.437 145.739 188.206 136.473 166.839 136.473H166.686Z" fill="#323A50"/>
<path opacity="0.52" d="M166.609 142.523C175.416 142.523 182.692 145.816 183.687 150.028C183.764 149.645 183.841 149.339 183.841 149.032C183.841 144.361 176.106 140.531 166.609 140.531C157.036 140.531 149.378 144.284 149.378 148.956C149.378 149.109 149.301 149.415 149.378 149.568C149.378 149.645 149.378 150.334 149.761 151.33C149.914 151.866 150.603 152.096 150.68 152.019C149.608 150.717 149.608 149.722 149.684 149.568C150.909 145.509 158.032 142.446 166.609 142.523Z" fill="url(#paint2_linear_6392_36371)"/>
<path d="M166.61 143.442C175.417 143.442 181.927 147.271 182.999 152.019C183.918 150.641 183.842 149.568 183.842 149.262C183.842 144.59 176.183 140.531 166.687 140.455C157.19 140.378 149.455 143.901 149.379 149.262C149.379 149.645 149.685 151.942 150.604 151.942C150.528 146.582 157.803 143.442 166.61 143.442Z" fill="#DBDBDB"/>
<path d="M182.768 153.091L182.615 152.172C181.543 147.424 174.803 143.978 166.609 143.978H166.456C160.329 143.978 155.198 145.433 152.671 148.037C151.522 149.186 150.986 150.487 150.986 152.019V152.402H150.603C150.45 152.402 150.143 152.325 149.837 152.019C149.148 151.253 148.918 149.492 148.918 149.262C148.995 146.582 150.833 144.208 154.202 142.523C157.419 140.914 161.784 140.072 166.532 140.072H166.685C171.28 140.072 175.722 140.991 179.015 142.752C182.385 144.514 184.223 146.735 184.223 149.262V149.339C184.223 149.722 184.223 150.947 183.304 152.249L182.768 153.091ZM166.456 140.914C156.806 140.914 149.76 144.361 149.684 149.262C149.684 149.492 149.837 150.564 150.143 151.177C150.296 149.798 150.909 148.496 152.058 147.424C154.738 144.744 160.099 143.135 166.456 143.135H166.609C170.898 143.135 174.803 144.054 177.867 145.586C180.471 146.965 182.309 148.803 183.074 150.87C183.381 150.105 183.381 149.492 183.381 149.186V149.109C183.381 147.041 181.619 144.897 178.633 143.365C175.416 141.68 171.127 140.761 166.685 140.761H166.456V140.914Z" fill="#323A50"/>
<path d="M166.84 284.509C166.763 284.509 166.687 284.509 166.687 284.509C148.46 284.509 131.305 277.31 118.516 264.444C105.649 251.501 98.6037 234.423 98.6803 216.12C98.7569 201.109 103.582 186.865 112.619 174.918L113.078 175.3C104.041 187.171 99.293 201.262 99.2164 216.12C99.1398 234.194 106.186 251.195 118.898 263.985C131.611 276.774 148.613 283.896 166.687 283.896C166.763 283.896 166.84 283.896 166.84 283.896C184.914 283.896 201.762 276.927 214.552 264.214C227.341 251.501 234.464 234.5 234.464 216.426C234.54 201.416 229.715 187.171 220.602 175.147L221.061 174.764C230.251 186.788 235.076 201.186 235.076 216.349C235 234.576 227.877 251.731 215.011 264.521C202.069 277.54 184.99 284.509 166.84 284.509Z" fill="#323A50"/>
<path d="M150.605 151.943V155.159L134.293 161.056C133.68 161.286 133.68 162.128 134.293 162.358L134.37 162.435L135.442 162.894C135.825 163.047 135.748 163.583 135.365 163.583L133.068 164.043H132.915C131.842 164.273 131.766 165.728 132.685 166.187L135.059 167.183C135.442 167.336 135.442 167.949 134.982 168.102C132.915 168.561 128.626 169.633 122.499 171.931C101.975 179.972 92.1719 202.641 92.1719 202.641C92.1719 202.641 94.1631 191.919 97.6859 184.567C99.9069 179.896 103.506 172.544 110.858 164.502C115.76 159.141 122.346 154.24 122.346 154.24C122.346 154.24 124.643 159.371 128.09 158.299C131 156.92 146.393 151.483 150.605 151.943Z" fill="white"/>
<path d="M91.1758 206.087L91.865 202.488C91.865 202.335 93.9328 191.613 97.3791 184.337C99.6 179.819 103.199 172.237 110.628 164.119C115.529 158.758 122.116 153.857 122.192 153.78L122.575 153.474L122.728 153.934C122.728 154.01 124.566 157.916 127.17 157.916C127.4 157.916 127.706 157.839 128.013 157.763C130.693 156.461 145.014 151.406 149.916 151.406C150.145 151.406 150.375 151.406 150.605 151.483L150.988 151.559L151.064 155.389L134.522 161.439C134.369 161.515 134.369 161.592 134.369 161.668C134.369 161.745 134.369 161.822 134.522 161.898L135.671 162.358C136.054 162.511 136.207 162.817 136.131 163.2C136.131 163.583 135.824 163.889 135.441 163.889L132.991 164.426C132.608 164.502 132.455 164.808 132.455 165.038C132.455 165.268 132.531 165.651 132.837 165.727L135.212 166.723C135.594 166.876 135.748 167.259 135.748 167.642C135.671 168.025 135.441 168.331 135.058 168.408C133.067 168.867 128.778 169.94 122.575 172.16C112.083 176.296 104.501 184.337 99.9829 190.464C95.005 196.974 92.6309 202.641 92.5543 202.717L91.1758 206.087ZM122.269 154.853C120.814 156.001 115.3 160.213 111.164 164.732C103.889 172.773 100.213 180.278 98.0683 184.797C95.7708 189.468 94.086 195.825 93.2435 199.501C94.4689 197.203 96.4601 193.757 99.2937 190.005C103.889 183.878 111.624 175.683 122.269 171.471C128.549 169.174 132.837 168.102 134.829 167.642C134.829 167.642 134.905 167.642 134.905 167.565C134.905 167.489 134.905 167.489 134.829 167.489L132.455 166.493C131.842 166.264 131.535 165.574 131.535 164.962C131.612 164.272 132.072 163.813 132.684 163.66L135.058 163.124L133.91 162.664C133.527 162.511 133.22 162.051 133.22 161.592C133.22 161.132 133.527 160.673 133.91 160.596L149.916 154.776V152.249C149.839 152.249 149.762 152.249 149.686 152.249C144.785 152.249 130.693 157.227 128.089 158.529H128.013C127.63 158.682 127.323 158.682 126.94 158.682C124.72 158.835 122.882 156.001 122.269 154.853Z" fill="#323A50"/>
<path d="M166.841 292.933C166.764 292.933 166.688 292.933 166.688 292.933V292.091C166.764 292.091 166.841 292.091 166.841 292.091C186.982 292.091 205.898 284.279 220.22 270.035C234.541 255.79 242.506 236.797 242.506 216.579C242.582 192.685 231.707 170.706 212.714 156.155L213.174 155.465C222.364 162.511 229.869 171.625 235.153 181.887C240.591 192.685 243.348 204.249 243.271 216.503C243.271 226.842 241.204 236.797 237.221 246.294C233.315 255.407 227.801 263.525 220.756 270.571C213.71 277.617 205.516 283.131 196.402 286.96C187.059 290.866 177.103 292.933 166.841 292.933Z" fill="#323A50"/>
<path d="M182.924 152.096L182.848 155.312L199.543 160.903C200.156 161.133 200.156 161.975 199.543 162.205L199.466 162.281L198.318 162.741C197.935 162.894 198.011 163.43 198.394 163.43L200.692 163.966H200.845C201.917 164.196 201.994 165.651 200.998 166.111L198.624 167.106C198.241 167.259 198.241 167.872 198.701 168.025C200.768 168.485 205.057 169.633 211.184 171.931C231.632 180.125 241.281 202.335 241.281 202.335C241.281 202.335 239.367 191.996 235.92 184.72C233.699 180.049 230.176 172.62 222.824 164.579C217.923 159.141 210.954 155.006 210.954 155.006C210.954 155.006 208.963 159.448 205.44 158.299C202.913 156.691 187.136 151.56 182.924 152.096Z" fill="white"/>
<path d="M242.504 205.628L241.126 202.335C241.126 202.258 238.675 196.744 233.85 190.234C229.409 184.261 221.827 176.296 211.258 172.084C205.131 169.786 200.843 168.638 198.852 168.255C198.469 168.178 198.162 167.872 198.162 167.489C198.086 167.106 198.315 166.8 198.698 166.57L201.072 165.574C201.455 165.421 201.532 165.115 201.455 164.885C201.455 164.655 201.302 164.349 200.919 164.272L198.469 163.736C198.086 163.66 197.856 163.353 197.779 163.047C197.779 162.664 197.933 162.358 198.239 162.281L199.388 161.822C199.541 161.745 199.541 161.669 199.541 161.592C199.541 161.515 199.541 161.439 199.388 161.362L182.156 155.542L182.463 151.866L182.846 151.789C182.999 151.789 183.305 151.713 183.535 151.713C188.513 151.713 203.064 156.384 205.821 157.763C206.204 157.916 206.51 157.916 206.74 157.916C209.19 157.916 210.722 154.699 210.722 154.699L210.875 154.316L211.258 154.546C211.335 154.623 218.304 158.835 223.129 164.196C230.481 172.39 234.08 179.896 236.301 184.491C239.747 191.766 241.739 202.105 241.739 202.181L242.504 205.628ZM198.545 162.97L200.919 163.507C201.609 163.66 202.068 164.196 202.068 164.808C202.145 165.498 201.762 166.034 201.149 166.34L198.775 167.336C198.775 167.336 198.698 167.336 198.698 167.412C198.698 167.489 198.698 167.489 198.775 167.489C200.766 167.948 205.131 169.097 211.335 171.395C221.98 175.607 229.638 183.801 234.233 189.851C236.99 193.527 238.905 196.897 240.207 199.195C239.364 195.595 237.756 189.545 235.535 184.873C233.391 180.432 229.791 172.85 222.516 164.808C218.38 160.213 212.713 156.461 211.182 155.465C210.645 156.461 209.114 158.758 206.663 158.758C206.28 158.758 205.821 158.682 205.438 158.605H205.361C202.681 157.303 188.36 152.555 183.458 152.555C183.382 152.555 183.305 152.555 183.228 152.555L183.152 155.006L199.541 160.52C200 160.673 200.23 161.056 200.23 161.515C200.23 161.975 200 162.434 199.541 162.588L198.545 162.97Z" fill="#323A50"/>
<path opacity="0.42" d="M167.071 164.962C167.071 164.885 167.148 164.885 167.224 164.809C167.224 164.655 167.301 164.426 167.301 164.272C167.224 164.349 167.148 164.426 166.995 164.502C166.995 164.502 166.995 164.579 166.918 164.579C166.918 164.732 166.995 164.885 167.071 164.962Z" fill="url(#paint3_radial_6392_36371)"/>
<g opacity="0.2">
<path d="M227.418 244.226L226.959 244.149C226.653 246.523 219.76 249.663 218.305 249.97C217.692 250.123 217.386 249.893 217.003 249.817C216.467 249.663 216.007 249.434 215.088 249.97C213.557 250.889 208.272 256.709 207.047 259.543C205.898 262.453 205.133 263.908 202.452 265.057C201.074 265.669 198.776 265.669 196.402 265.669C194.181 265.669 192.037 265.669 190.275 266.129C187.671 266.818 185.221 268.044 183.995 268.58C184.685 267.89 185.221 267.201 185.833 266.435C186.906 265.21 187.825 264.061 188.437 263.678C189.203 263.066 191.96 262.836 194.947 262.529C198.929 262.147 203.371 261.61 204.75 260.309C206.358 258.853 208.502 253.186 210.34 248.744C211.259 246.294 212.102 244.303 212.638 243.46C213.174 242.541 214.629 241.545 216.237 240.55C218.918 238.788 221.981 236.721 221.904 234.27H221.445C221.521 236.491 218.535 238.406 215.931 240.09C214.246 241.239 212.714 242.235 212.178 243.154C211.642 244.073 210.8 246.064 209.881 248.515C208.119 252.956 205.898 258.547 204.367 259.926C203.831 260.385 202.758 260.845 201.456 261.074C202.299 260.615 203.371 259.926 204.06 258.93C205.362 257.245 206.511 253.416 206.971 251.348C207.124 250.965 207.124 250.659 207.2 250.429C207.353 249.74 207.124 249.357 206.894 248.974C206.588 248.515 206.281 248.055 206.511 246.83C206.741 245.528 207.43 244.992 208.272 244.456C208.809 244.073 209.345 243.69 209.728 243.077C210.723 241.469 210.11 239.861 209.804 239.018V238.942C209.574 238.329 209.038 238.406 208.655 238.406C208.272 238.482 207.966 238.482 207.89 238.252C207.736 238.023 208.043 237.563 208.426 237.104C208.885 236.414 209.498 235.649 209.115 234.883L208.732 235.036C208.962 235.572 208.502 236.185 208.043 236.797C207.583 237.487 207.2 238.023 207.507 238.482C207.813 239.018 208.349 238.942 208.732 238.865C209.115 238.788 209.345 238.788 209.421 239.018V239.095C209.804 239.937 210.264 241.392 209.421 242.771C209.038 243.307 208.579 243.69 208.043 244.073C207.2 244.685 206.358 245.222 206.128 246.753C205.898 248.132 206.281 248.668 206.588 249.204C206.817 249.587 206.971 249.817 206.817 250.276C206.741 250.429 206.664 250.812 206.588 251.195C206.052 253.11 204.903 257.092 203.677 258.624C202.299 260.385 199.848 261.304 199.618 261.381C198.087 261.61 196.402 261.764 194.717 261.993C191.577 262.376 188.897 262.683 187.978 263.219C187.288 263.678 186.369 264.827 185.297 266.129C183.153 268.58 180.319 272.026 178.252 271.873C177.179 271.796 176.031 271.566 174.882 271.337C172.431 270.877 169.751 270.264 166.841 270.801C160.79 271.949 158.799 273.098 157.574 274.553C156.425 275.932 155.812 277.693 155.812 277.77L156.195 277.923C156.195 277.923 156.808 276.161 157.88 274.859C159.029 273.481 161.02 272.409 166.917 271.26C169.751 270.724 172.431 271.26 174.729 271.796C175.954 272.026 177.103 272.256 178.175 272.409C179.63 272.562 181.392 271.03 183.153 269.192L183.23 269.345C183.306 269.345 186.599 267.431 190.045 266.512C191.73 266.052 193.951 266.052 196.096 266.052C198.546 266.052 200.767 266.052 202.299 265.44C205.209 264.291 205.975 262.606 207.124 259.696C208.272 257.015 213.48 251.195 214.935 250.353C215.625 249.893 216.007 250.046 216.467 250.199C216.85 250.353 217.309 250.582 218.075 250.429C219.99 250.199 227.036 246.906 227.418 244.226Z" fill="url(#paint4_linear_6392_36371)"/>
<path d="M171.82 255.177C171.054 256.02 171.131 257.398 171.284 259.007C171.437 260.538 171.591 262.223 170.901 263.678C169.523 266.435 163.549 268.656 163.473 268.656L163.626 269.116C163.856 269.039 169.906 266.895 171.361 263.908C172.05 262.376 171.973 260.615 171.82 259.007C171.667 257.551 171.591 256.25 172.203 255.56C172.892 254.871 175.42 254.258 177.717 253.799C180.321 253.186 182.465 252.65 183.078 251.961C183.614 251.272 183.767 250.582 183.767 250.046C183.921 249.357 183.921 248.897 184.533 248.515C184.84 248.361 186.371 248.361 187.98 248.515C192.498 248.744 199.314 249.204 201.841 245.758C203.756 243.077 203.143 241.086 202.53 239.324C202.071 237.946 201.611 236.721 202.53 235.266C203.22 234.117 204.445 233.734 205.747 233.274C208.427 232.432 211.644 231.36 213.788 224.62C214.248 223.012 214.018 221.404 213.788 219.796C213.405 217.728 213.099 215.737 214.401 213.822L214.018 213.592C212.64 215.583 213.022 217.804 213.329 219.872C213.559 221.48 213.788 223.012 213.329 224.467C211.338 230.977 208.121 232.049 205.594 232.815C204.139 233.274 202.913 233.734 202.148 235.036C201.229 236.721 201.688 238.099 202.148 239.478C202.76 241.163 203.296 242.924 201.458 245.528C199.161 248.744 192.192 248.285 188.056 248.055C186.448 247.978 185.452 247.902 184.84 247.978C185.069 247.289 185.222 246.37 185.452 245.375C185.759 243.613 186.141 241.622 187.137 240.473C187.673 239.937 188.362 239.707 189.358 239.401C191.656 238.712 194.872 237.793 197.399 231.36V231.283C197.859 229.062 197.323 227.454 196.787 226.535C196.557 226.152 196.097 225.846 195.638 225.693C195.102 225.463 194.489 225.156 194.03 224.467C193.187 223.242 192.881 216.349 193.111 215.047C193.111 214.894 193.187 214.894 193.187 214.894C193.264 214.818 193.57 214.971 193.8 215.047C194.489 215.277 195.714 215.737 197.246 214.664L197.016 214.282C195.714 215.201 194.719 214.894 194.03 214.588C193.647 214.435 193.34 214.358 193.111 214.435C192.957 214.511 192.881 214.664 192.804 214.894C192.575 216.196 192.804 223.242 193.723 224.697C194.259 225.463 194.949 225.846 195.485 226.075C195.868 226.229 196.251 226.458 196.404 226.765C196.863 227.607 197.399 229.062 196.94 231.207C194.489 237.486 191.426 238.405 189.205 239.018C188.209 239.324 187.367 239.554 186.754 240.167C185.605 241.392 185.299 243.46 184.916 245.375C184.763 246.6 184.533 247.749 184.15 248.285C183.461 248.744 183.384 249.434 183.231 250.046C183.078 250.659 183.078 251.195 182.542 251.808C182.083 252.42 179.632 252.956 177.488 253.492C174.884 253.875 172.51 254.335 171.82 255.177Z" fill="url(#paint5_linear_6392_36371)"/>
<path d="M172.431 208.614C173.044 209.304 173.504 209.763 173.197 211.142C173.044 212.061 172.508 213.439 171.895 214.894C170.9 217.422 169.904 220.102 170.364 221.327C170.593 221.94 170.976 222.323 171.283 222.706C171.972 223.548 172.738 224.467 172.431 227.071C172.048 229.215 171.053 230.824 170.057 232.126C169.291 233.274 168.602 234.347 168.679 235.266C168.755 236.031 169.138 236.568 169.598 237.027C170.287 237.946 171.053 238.865 170.057 241.239C169.291 243.077 168.219 243.537 167.377 243.92C166.458 244.302 165.692 244.685 165.998 246.37C166.305 248.208 167.453 249.434 168.602 250.582C169.445 251.425 170.287 252.267 170.823 253.416L171.206 253.263C170.593 252.114 169.827 251.195 168.908 250.353C167.76 249.204 166.688 248.132 166.458 246.447C166.228 245.068 166.688 244.839 167.607 244.456C168.526 244.073 169.674 243.537 170.517 241.545C171.665 238.942 170.746 237.793 169.904 236.874C169.521 236.338 169.138 235.955 169.062 235.342C168.985 234.576 169.598 233.657 170.364 232.509C171.283 231.13 172.431 229.445 172.814 227.224C173.274 224.314 172.431 223.318 171.665 222.476C171.283 222.093 170.976 221.71 170.823 221.174C170.44 220.102 171.512 217.422 172.355 215.124C172.967 213.746 173.504 212.29 173.657 211.295C174.04 209.61 173.427 208.997 172.738 208.385C172.355 207.925 171.819 207.466 171.665 206.547L171.206 206.7C171.512 207.542 172.048 208.078 172.431 208.614Z" fill="url(#paint6_linear_6392_36371)"/>
<path d="M174.803 272.332C173.195 271.566 169.213 271.183 166.762 271.643C164.388 272.026 160.253 273.021 158.644 274.783C157.725 275.778 156.883 277.693 156.883 277.77L157.266 277.923C157.266 277.923 158.108 276.008 158.951 275.013C160.559 273.328 165.001 272.332 166.839 272.102C169.443 271.643 173.195 272.102 174.65 272.792C176.105 273.481 176.641 274.553 176.718 275.089C176.871 276.774 174.191 278.229 174.191 278.229L174.344 278.612C174.497 278.535 177.407 276.927 177.101 275.013C177.024 274.247 176.335 273.098 174.803 272.332Z" fill="url(#paint7_linear_6392_36371)"/>
<path d="M176.033 243.843C176.875 244.226 177.717 244.532 178.253 245.222C178.943 246.141 180.168 248.438 178.407 250.429C177.717 251.272 175.956 251.884 174.195 252.497C172.51 253.11 170.978 253.646 170.442 254.412C169.906 255.254 169.982 256.633 170.059 258.317C170.212 259.772 170.212 261.304 169.906 262.529C169.217 264.98 163.166 267.814 163.09 267.89L163.243 268.273C163.473 268.12 169.523 265.286 170.289 262.606C170.672 261.304 170.518 259.696 170.442 258.241C170.289 256.786 170.289 255.331 170.672 254.641C171.055 253.952 172.663 253.416 174.195 252.88C175.956 252.191 177.794 251.578 178.56 250.659C179.938 249.051 179.862 246.906 178.407 244.915C177.794 244.073 176.875 243.69 176.033 243.307C175.19 242.924 174.348 242.618 174.118 241.928C173.429 240.397 173.965 238.712 174.884 238.099C175.114 237.946 175.42 237.793 175.65 237.64C176.492 237.104 177.334 236.644 178.407 235.419C179.785 233.887 182.466 227.607 182.925 224.62C183.231 222.859 182.772 222.093 182.236 221.174C181.853 220.485 181.393 219.872 181.317 218.57L180.857 218.647C181.01 220.025 181.47 220.791 181.853 221.404C182.312 222.17 182.772 222.859 182.542 224.467C182.083 227.377 179.555 233.504 178.1 234.959C177.105 236.108 176.186 236.568 175.42 237.027C175.19 237.18 174.884 237.333 174.654 237.487C173.505 238.176 172.893 240.167 173.735 241.928C174.195 243.154 175.114 243.46 176.033 243.843Z" fill="url(#paint8_linear_6392_36371)"/>
</g>
<g opacity="0.2">
<path d="M155.966 270.571C155.812 269.345 154.357 268.35 152.979 267.354C151.83 266.588 150.145 265.669 148.69 264.827C147.388 264.138 146.239 263.448 145.78 263.142C145.627 263.066 145.55 262.912 145.397 262.759C144.708 261.61 144.172 258.93 144.248 256.709C144.325 255.484 144.172 254.488 144.095 253.799C143.942 252.956 143.942 252.42 144.172 251.884C144.325 251.501 144.631 251.425 145.091 251.348C145.55 251.272 146.239 251.195 146.469 250.429C146.699 249.74 146.622 249.051 146.546 248.361C146.469 247.672 146.393 247.059 146.699 246.6C147.005 246.217 147.312 246.064 147.695 245.911C148.077 245.758 148.614 245.528 148.996 244.992C149.379 244.456 148.843 243.766 148.307 242.924C147.388 241.699 146.239 239.937 146.699 237.793C147.235 235.495 147.924 235.572 148.92 235.725C149.379 235.802 149.992 235.878 150.528 235.648C151.447 235.266 152.366 233.198 153.209 231.13C153.898 229.445 154.587 227.76 155.2 227.301C155.889 226.765 156.502 226.612 157.114 226.535C157.727 226.458 158.263 226.382 158.646 225.769C159.182 225.08 158.876 224.237 158.646 223.472C158.493 223.012 158.34 222.553 158.493 222.323L158.11 222.093C157.957 222.476 158.033 223.012 158.263 223.625C158.416 224.314 158.646 225.003 158.34 225.539C157.957 225.922 157.65 225.999 157.038 226.152C156.425 226.305 155.736 226.382 154.97 226.994C154.281 227.531 153.591 229.215 152.749 231.053C151.983 232.968 151.064 235.036 150.298 235.342C149.839 235.495 149.379 235.495 148.92 235.419C147.848 235.266 146.776 235.112 146.163 237.869C145.627 240.244 146.852 242.082 147.848 243.383C148.307 244.073 148.767 244.685 148.537 244.992C148.231 245.451 147.848 245.604 147.465 245.758C147.082 245.911 146.622 246.064 146.316 246.6C145.933 247.213 146.01 247.978 146.163 248.668C146.316 249.357 146.316 249.97 146.163 250.506C146.01 251.042 145.55 251.118 145.091 251.195C144.631 251.272 144.095 251.348 143.789 252.037C143.559 252.727 143.636 253.339 143.712 254.258C143.865 255.024 143.865 255.943 143.865 257.169C143.712 258.547 143.942 260.155 144.248 261.534C143.253 259.849 141.951 257.322 141.798 254.871C141.644 252.803 142.027 252.037 142.563 250.965C143.099 249.893 143.712 248.591 144.248 245.758C144.937 241.545 143.099 237.716 141.951 235.648C142.104 235.266 142.87 232.432 145.091 231.666L146.239 231.283C148.307 230.594 150.145 229.905 151.064 229.369C152.29 228.679 153.285 226.612 153.515 225.31C153.668 224.544 153.285 224.084 152.902 223.625C152.596 223.242 152.29 222.859 152.29 222.246C152.366 221.71 153.132 221.174 153.974 220.561C155.2 219.719 156.808 218.647 157.421 216.885C158.187 214.818 157.421 213.899 156.731 213.056C156.348 212.673 156.042 212.29 155.966 211.754L155.583 211.907C155.736 212.52 156.119 212.98 156.425 213.363C157.114 214.205 157.65 214.971 157.038 216.809C156.425 218.417 154.97 219.413 153.745 220.255C152.672 220.944 151.907 221.48 151.83 222.17C151.753 223.012 152.213 223.472 152.519 223.855C152.902 224.237 153.132 224.544 152.979 225.156C152.749 226.535 151.753 228.373 150.758 228.909C149.762 229.445 147.924 230.058 146.01 230.747L144.861 231.13C142.87 231.819 141.951 234.04 141.644 235.036C141.261 234.423 140.955 234.117 140.955 234.04C140.879 233.964 136.743 230.134 134.905 227.301C132.99 224.391 133.067 221.94 134.063 221.098C134.599 220.638 135.671 220.561 136.973 220.485C138.122 220.408 139.423 220.332 140.572 219.949C142.334 219.26 143.559 216.732 143.942 215.966C144.478 214.818 144.937 213.363 144.631 212.673C144.172 211.371 142.18 210.988 142.104 210.912L142.027 211.371C142.027 211.371 143.865 211.754 144.248 212.75C144.401 213.133 144.172 214.282 143.559 215.737C142.946 217.192 141.721 218.953 140.419 219.489C139.27 219.872 138.045 219.949 136.973 220.025C135.671 220.102 134.522 220.179 133.833 220.715C132.684 221.634 132.454 224.237 134.599 227.454C136.437 230.364 140.496 234.04 140.725 234.27C140.955 234.576 144.937 239.707 143.942 245.375C143.482 248.208 142.793 249.51 142.257 250.506C142.104 250.736 142.027 250.965 141.874 251.195C141.338 249.816 141.415 248.974 141.491 248.285C141.568 247.366 141.491 246.83 140.189 245.987C138.504 244.915 135.211 244.762 132.99 244.609C132.071 244.532 131.306 244.456 131.076 244.456C129.697 244.073 129.008 243.537 128.625 242.235C128.319 241.239 128.549 240.933 129.008 240.397C129.161 240.244 129.238 240.09 129.391 239.937C129.544 239.707 129.927 239.478 130.31 239.248C131.152 238.788 132.225 238.099 132.148 236.491C132.071 235.112 131.152 234.576 130.233 234.04C129.544 233.657 128.931 233.351 128.472 232.662C127.247 230.977 125.792 226.229 125.562 223.625C125.255 220.715 125.792 215.354 126.251 214.971C126.404 214.894 127.17 215.277 127.783 215.583C128.931 216.12 130.233 216.732 131.229 216.503C131.382 216.426 131.535 216.426 131.688 216.349C132.914 216.043 133.067 215.966 132.99 214.664C132.914 213.745 132.301 213.669 131.765 213.592C131.382 213.516 131.076 213.439 130.846 213.209C130.387 212.597 130.54 210.376 130.616 209.533L130.157 209.457C130.08 209.84 129.774 212.597 130.463 213.439C130.846 213.822 131.306 213.899 131.688 213.975C132.301 214.128 132.531 214.128 132.607 214.664C132.684 215.124 132.684 215.354 132.531 215.507C132.378 215.66 132.148 215.66 131.612 215.813C131.459 215.89 131.306 215.89 131.152 215.966C130.31 216.12 129.008 215.583 127.936 215.047C126.94 214.588 126.404 214.358 126.021 214.435C125.102 214.818 124.796 221.327 124.949 223.548C125.179 226.229 126.634 231.053 128.012 232.815C128.549 233.504 129.314 233.964 129.927 234.27C130.846 234.729 131.612 235.112 131.612 236.261C131.688 237.64 130.846 238.099 129.927 238.635C129.544 238.865 129.161 239.095 128.931 239.401C128.778 239.554 128.702 239.784 128.549 239.861C128.089 240.397 127.706 240.856 128.089 242.082C128.472 243.46 129.314 244.226 130.846 244.532C131.152 244.609 131.535 244.685 132.148 244.685C131.765 244.915 131.459 244.915 130.999 244.915C130.54 244.915 130.08 244.839 129.621 245.221C128.855 245.758 129.314 246.6 129.697 247.289C129.85 247.596 130.004 247.902 130.004 248.055C130.004 248.208 129.927 248.285 129.85 248.438C129.621 248.591 129.161 248.668 128.472 248.591C127.783 248.438 126.787 247.442 126.174 246.753C125.945 246.523 125.792 246.294 125.638 246.217C125.409 246.064 125.026 246.064 124.719 246.064C124.336 246.14 123.954 246.14 123.571 245.911C123.417 245.758 123.188 245.528 123.188 245.221C123.111 244.685 123.341 244.073 123.571 243.92C123.647 243.843 123.8 243.843 124.03 243.843C124.336 243.843 124.719 243.843 124.949 243.613C125.409 243.23 125.638 242.541 125.562 241.545C125.485 240.933 125.026 240.933 124.643 240.933C124.183 240.933 123.647 240.856 123.417 240.244C123.264 239.784 123.494 239.325 123.8 238.712C124.336 237.793 124.949 236.721 124.03 235.036C122.958 233.121 121.809 233.274 120.967 233.428C120.66 233.504 120.354 233.581 120.201 233.504C120.048 233.428 119.895 233.351 119.895 233.274C119.818 233.121 119.971 232.891 120.048 232.891L119.665 232.662C119.665 232.738 119.358 233.045 119.512 233.504C119.588 233.734 119.741 233.964 120.124 234.117C120.431 234.27 120.814 234.193 121.12 234.117C121.886 233.964 122.805 233.734 123.724 235.495C124.49 236.874 123.954 237.869 123.494 238.712C123.111 239.401 122.805 239.937 123.034 240.626C123.417 241.545 124.183 241.622 124.719 241.622C125.179 241.622 125.255 241.699 125.255 241.775C125.332 242.618 125.179 243.154 124.873 243.46C124.719 243.613 124.49 243.613 124.183 243.613C123.877 243.613 123.571 243.613 123.341 243.843C123.111 244.073 122.805 244.839 122.958 245.528C123.034 245.911 123.188 246.294 123.494 246.523C124.03 246.906 124.566 246.906 124.873 246.83C125.179 246.83 125.332 246.753 125.485 246.906C125.638 246.983 125.715 247.213 125.945 247.442C126.634 248.132 127.63 249.357 128.472 249.434C128.472 249.434 128.472 249.434 128.549 249.434C129.314 249.587 129.927 249.434 130.233 249.127C130.387 248.974 130.54 248.744 130.616 248.438C130.616 248.132 130.463 247.825 130.233 247.442C129.85 246.753 129.621 246.294 130.08 245.987C130.463 245.758 130.769 245.758 131.152 245.758C131.688 245.758 132.301 245.834 132.837 245.068C132.914 245.068 132.99 245.068 132.99 245.068C135.135 245.221 138.351 245.451 139.96 246.37C141.108 247.059 141.108 247.442 141.032 248.285C140.955 249.051 140.879 250.046 141.721 251.808C141.491 252.497 141.338 253.339 141.491 254.718C141.798 258.853 144.937 262.989 145.244 263.295C145.397 263.448 145.55 263.678 145.627 263.755C146.086 264.138 147.312 264.75 148.537 265.516C149.992 266.359 151.753 267.278 152.749 268.043C154.051 268.962 155.429 269.958 155.583 270.954C155.659 271.413 155.506 271.949 155.047 272.485C153.438 274.553 151.524 281.905 151.447 282.135L151.907 282.211C151.983 281.752 153.898 274.706 155.353 272.792C155.812 271.72 156.042 271.183 155.966 270.571Z" fill="url(#paint9_linear_6392_36371)"/>
<path d="M152.825 272.485C152.136 270.264 148.996 267.814 147.924 267.201C145.626 265.823 140.342 265.516 137.968 266.052C136.819 266.282 136.053 266.665 135.364 266.971C134.598 267.354 133.985 267.661 133.066 267.661C131.228 267.661 130.233 267.89 129.314 268.58C129.161 268.733 129.084 268.886 129.084 268.963C129.084 269.345 129.467 269.652 129.773 270.035C130.08 270.264 130.463 270.724 130.463 270.877C130.463 271.03 130.309 271.03 130.233 271.107C129.084 271.796 128.088 270.877 128.012 270.801L127.629 271.183C127.629 271.183 128.778 272.332 130.309 271.566C130.616 271.413 130.692 271.183 130.769 270.954C130.845 270.494 130.386 270.111 130.003 269.728C129.773 269.499 129.39 269.192 129.39 269.039L129.467 268.963C130.233 268.35 131.152 268.197 132.913 268.197C133.909 268.197 134.598 267.814 135.44 267.431C136.13 267.048 136.819 266.742 137.891 266.512C140.189 266.052 145.32 266.359 147.464 267.661C148.766 268.426 151.676 270.724 152.136 272.639C152.289 273.175 151.983 274.094 151.676 274.86C149.915 278.995 149.302 281.905 149.302 281.905L149.685 281.982C149.685 281.982 150.298 279.072 152.059 274.936C152.519 274.477 153.055 273.251 152.825 272.485Z" fill="url(#paint10_linear_6392_36371)"/>
<path d="M153.821 272.026C153.668 271.183 152.902 270.341 152.596 269.958C152.519 269.881 152.519 269.881 152.519 269.881C150.834 267.967 148.46 266.052 146.852 265.44C146.392 265.286 145.856 265.133 145.167 265.057C142.64 263.831 140.112 263.372 137.738 262.836C136.436 262.606 135.058 262.3 133.756 261.917C130.156 260.845 124.183 254.871 123.953 254.641C123.8 254.412 119.741 249.204 119.282 247.442C119.128 246.677 118.209 242.771 117.826 241.699C117.444 240.78 112.312 239.018 111.24 238.712C108.79 238.559 105.037 238.329 104.731 238.099C104.348 237.793 103.812 236.414 103.965 235.802C103.965 235.572 104.271 235.419 104.577 235.189C105.037 234.883 105.573 234.5 105.726 233.81C105.803 233.274 105.42 231.743 104.807 229.139C104.195 226.688 103.429 223.472 103.658 222.859C103.812 222.323 104.195 222.246 104.501 222.17C104.884 222.093 105.19 222.017 105.343 221.48C105.42 221.327 105.267 221.098 105.19 221.098C104.96 220.868 104.424 220.868 103.735 220.944C103.046 221.021 102.05 221.098 101.744 220.715L101.438 221.098C101.974 221.557 102.893 221.48 103.735 221.48C104.118 221.48 104.731 221.404 104.884 221.557C104.807 221.787 104.731 221.787 104.424 221.94C104.041 222.093 103.505 222.17 103.276 222.936C103.046 223.625 103.582 225.922 104.424 229.445C104.884 231.36 105.42 233.428 105.343 233.887C105.267 234.423 104.807 234.729 104.424 235.036C104.041 235.266 103.658 235.572 103.582 235.955C103.429 236.644 103.965 238.329 104.577 238.712C105.037 239.095 109.785 239.324 111.317 239.401C114.227 240.32 117.367 241.622 117.597 242.082C117.98 242.924 118.592 245.528 118.975 247.749C119.358 249.663 123.57 254.948 123.723 255.101C123.953 255.331 130.003 261.381 133.832 262.529C135.211 262.912 136.513 263.219 137.815 263.448C139.729 263.831 141.721 264.214 143.712 264.98C142.563 264.827 141.338 264.827 140.266 264.674C139.27 264.597 138.351 264.521 137.585 264.444C132.071 263.831 128.931 263.065 126.863 261.534C124.566 259.926 117.75 253.952 117.214 253.263C116.907 252.88 116.831 252.42 116.601 251.884C116.448 251.501 116.371 250.965 116.142 250.506C115.299 248.591 112.006 246.523 109.632 244.992C108.407 244.226 107.334 243.537 107.105 243.154C106.722 242.618 106.875 242.235 107.028 241.775C107.181 241.392 107.334 241.086 107.334 240.626H106.952C106.952 241.009 106.798 241.316 106.722 241.622C106.492 242.158 106.339 242.618 106.798 243.383C107.105 243.766 108.1 244.456 109.479 245.298C111.776 246.753 114.993 248.821 115.759 250.582C115.988 251.042 116.142 251.501 116.218 251.961C116.371 252.573 116.525 253.033 116.907 253.493C117.52 254.182 124.413 260.232 126.71 261.917C128.778 263.372 131.918 264.291 137.585 264.827C138.274 264.903 139.27 264.98 140.266 265.057C142.716 265.21 145.55 265.44 146.928 265.976C148.383 266.512 150.758 268.35 152.442 270.188C152.442 270.188 152.519 270.264 152.519 270.341C152.749 270.647 153.591 271.49 153.668 272.179C153.821 272.868 153.285 274.094 152.672 275.855C152.059 277.54 151.294 279.531 150.681 281.982L151.064 282.135C151.753 279.684 152.442 277.693 153.055 276.085C153.438 274.094 153.897 272.792 153.821 272.026Z" fill="url(#paint11_linear_6392_36371)"/>
<path d="M106.799 209.38C106.723 209.763 106.416 210.299 105.957 210.835C105.268 211.984 104.349 213.209 104.885 214.128C105.191 214.665 105.88 215.124 106.723 215.737C108.254 216.732 110.169 218.034 110.935 220.408C112.16 224.161 115.3 230.747 115.377 230.747V230.824C115.453 230.9 119.282 236.031 117.904 241.163L118.287 241.316C119.665 236.108 115.989 231.053 115.683 230.671C115.683 230.594 115.53 230.441 115.453 230.211C115.989 230.058 117.138 229.752 117.904 228.756C118.517 227.99 118.746 226.995 118.593 225.769C118.363 223.701 117.368 221.787 116.449 220.102C115.683 218.647 115.07 217.422 115.147 216.503C115.224 215.737 115.683 215.584 116.296 215.354C116.985 215.201 117.904 214.894 118.057 213.363C118.21 211.678 117.138 210.988 116.143 210.452C115.453 209.993 114.994 209.687 114.994 209.15C115.147 207.695 117.215 205.628 117.215 205.628L116.908 205.245C116.832 205.321 114.687 207.466 114.534 209.074C114.458 209.916 115.224 210.376 115.913 210.759C116.832 211.295 117.751 211.908 117.598 213.209C117.444 214.435 116.832 214.588 116.219 214.818C115.53 214.971 114.841 215.201 114.841 216.273C114.764 217.345 115.453 218.647 116.219 220.102C117.062 221.787 118.057 223.625 118.287 225.616C118.44 226.688 118.21 227.531 117.674 228.296C116.908 229.292 115.76 229.598 115.3 229.675C114.381 227.76 112.313 223.165 111.318 220.255C110.475 217.804 108.408 216.426 106.876 215.354C106.11 214.818 105.421 214.358 105.191 213.975C104.808 213.286 105.574 212.137 106.187 211.142C106.646 210.452 107.029 209.916 107.106 209.457C107.182 208.768 106.57 207.849 105.804 206.776C105.114 205.781 104.425 204.632 104.272 203.866L103.812 203.943C103.966 204.862 104.732 205.934 105.421 207.083C106.187 207.925 106.876 208.921 106.799 209.38Z" fill="url(#paint12_linear_6392_36371)"/>
<path d="M151.217 273.94C150.681 272.715 149.073 271.719 148.001 271.03C147.541 270.724 147.158 270.494 147.005 270.341C146.852 270.188 146.852 269.958 146.775 269.805C146.622 269.269 146.469 268.809 145.397 268.426C143.712 267.737 139.653 267.354 138.275 268.273C137.738 268.656 137.662 269.039 137.662 269.422C137.815 270.341 138.887 271.183 139.959 271.566C140.649 271.796 140.725 272.562 140.802 273.328C140.878 274.017 140.955 274.63 141.415 275.013C141.797 275.242 141.874 275.472 141.797 275.702C141.721 275.932 141.338 276.238 140.419 276.391C139.117 276.544 137.126 276.008 137.126 276.008L136.973 276.468C137.049 276.468 139.04 277.004 140.419 276.851C141.415 276.697 142.104 276.391 142.18 275.855C142.334 275.472 142.027 275.013 141.568 274.706C141.185 274.477 141.185 273.94 141.185 273.328C141.108 272.562 141.032 271.49 140.036 271.183C138.964 270.8 138.121 270.035 138.045 269.422C138.045 269.192 138.198 268.962 138.428 268.733C139.577 268.043 143.406 268.273 145.167 268.962C146.163 269.345 146.239 269.728 146.316 270.111C146.392 270.341 146.469 270.647 146.699 270.877C146.852 271.03 147.311 271.337 147.771 271.643C148.843 272.332 150.375 273.328 150.834 274.4C151.217 275.166 150.758 276.008 150.222 277.157C149.762 278.306 149.073 279.608 148.843 281.446L149.303 281.522C149.532 279.761 150.145 278.382 150.681 277.31C151.217 275.855 151.6 274.936 151.217 273.94Z" fill="url(#paint13_linear_6392_36371)"/>
</g>
<path d="M167.761 140.378C154.129 140.378 143.713 149.032 142.564 163.966C142.488 164.655 142.641 164.579 142.641 164.043C142.641 158.529 153.669 155.618 167.224 155.618C180.856 155.618 191.808 158.529 191.808 164.043C191.808 164.426 191.808 164.502 191.884 164.119C192.038 150.947 181.316 140.378 167.761 140.378Z" fill="#293C4F"/>
<path d="M149.609 148.956C149.609 149.109 149.456 148.343 149.533 147.5C149.609 146.888 149.762 146.199 150.069 145.662C150.375 145.126 150.681 144.59 151.217 144.131C151.217 144.131 151.294 144.131 151.294 144.054C154.051 141.221 159.948 139.306 166.764 139.306C176.26 139.306 183.995 142.982 183.995 147.654C183.995 147.654 183.995 148.266 183.919 148.649C183.842 149.415 183.536 150.104 183.076 150.794L206.128 157.073C206.128 156.614 206.128 157.533 206.128 155.771C206.128 144.207 188.59 134.941 166.994 134.941C145.397 134.941 127.859 144.284 127.859 155.771C127.859 156.384 127.936 157.15 128.013 157.763L150.681 151.023C150.452 150.64 149.686 149.568 149.609 148.956Z" fill="#DBDBDB"/>
<path d="M127.859 158.375L127.782 157.916C127.629 157.227 127.629 156.537 127.629 155.848C127.629 150.104 131.764 144.744 139.27 140.761C146.698 136.779 156.578 134.558 167.07 134.558C177.562 134.558 187.441 136.702 194.87 140.761C202.375 144.744 206.51 150.104 206.51 155.848C206.51 156.384 206.51 156.767 206.51 156.844C206.51 156.92 206.51 156.997 206.51 156.997H206.434C206.434 156.997 206.357 157.074 206.357 157.15V157.686L182.233 151.1L182.616 150.64C183.076 150.028 183.305 149.339 183.382 148.726C183.459 148.266 183.459 147.73 183.459 147.73C183.459 143.365 175.953 139.766 166.687 139.766C160.177 139.766 154.28 141.604 151.447 144.437L151.37 144.514C150.91 144.973 150.604 145.433 150.298 145.892C150.068 146.352 149.838 147.041 149.762 147.577C149.685 148.113 149.762 148.649 149.762 148.802V148.956C149.915 149.339 150.221 150.028 150.91 151.023L151.293 151.483L127.859 158.375ZM167.07 135.4C145.703 135.4 128.318 144.59 128.318 155.848C128.318 156.308 128.395 156.844 128.471 157.303L150.145 150.87C149.762 150.258 149.226 149.568 149.149 149.032C148.996 148.573 149.072 147.347 149.072 147.347C149.149 146.735 149.379 145.969 149.685 145.356C149.991 144.82 150.374 144.207 150.834 143.748L150.91 143.671C153.821 140.685 159.947 138.77 166.61 138.77C171.282 138.77 175.647 139.689 178.94 141.221C182.386 142.906 184.224 145.126 184.224 147.501C184.224 147.577 184.224 148.113 184.148 148.573C184.071 149.185 183.918 149.798 183.535 150.487L205.591 156.461C205.591 156.308 205.591 156.078 205.591 155.695C205.744 144.59 188.36 135.4 167.07 135.4Z" fill="#323A50"/>
<path opacity="0.52" d="M166.763 141.45C175.57 141.45 182.846 144.667 183.918 148.879C183.994 148.496 184.071 148.266 184.071 147.883C184.071 143.212 176.336 139.459 166.84 139.459C157.267 139.459 149.608 143.212 149.608 147.883C149.608 148.037 149.532 148.343 149.608 148.496C149.608 148.573 149.608 149.262 149.991 150.258C150.144 150.794 150.91 151.023 150.91 150.87C149.838 149.568 149.838 148.573 149.915 148.42C151.14 144.514 158.262 141.45 166.763 141.45Z" fill="url(#paint14_linear_6392_36371)"/>
<path d="M166.761 142.446C175.568 142.446 182.078 146.199 183.15 151.023C184.069 149.645 183.992 148.573 183.992 148.19C183.992 143.518 176.257 139.459 166.761 139.459C157.265 139.459 149.53 142.906 149.453 148.266C149.453 148.649 149.759 150.947 150.678 150.947C150.678 145.586 157.954 142.446 166.761 142.446Z" fill="#DBDBDB"/>
<path d="M182.999 152.019L182.845 151.1C181.773 146.352 175.034 142.906 166.839 142.906C160.713 142.906 155.505 144.437 152.901 147.041C151.752 148.19 151.216 149.568 151.216 151.023V151.406H150.833C150.68 151.406 150.374 151.33 150.067 151.023C149.378 150.258 149.148 148.496 149.148 148.266C149.225 145.586 151.063 143.135 154.509 141.527C157.726 139.919 162.091 139.076 166.916 139.076C171.511 139.076 175.953 139.995 179.246 141.757C182.616 143.442 184.454 145.739 184.454 148.266V148.343C184.454 148.726 184.454 149.951 183.535 151.253L182.999 152.019ZM166.763 139.919C157.037 139.919 149.914 143.442 149.838 148.343C149.838 148.573 149.991 149.645 150.297 150.258C150.45 148.879 151.063 147.577 152.212 146.505C154.892 143.825 160.33 142.14 166.686 142.14C170.975 142.14 174.881 143.059 177.944 144.667C180.548 146.046 182.386 147.884 183.152 150.028C183.458 149.262 183.458 148.649 183.458 148.343V148.266C183.611 143.748 175.876 139.919 166.763 139.919Z" fill="#323A50"/>
<path d="M191.961 164.426C191.961 158.835 180.856 155.925 167.301 155.925C153.745 155.925 142.641 158.835 142.641 164.426C142.641 170.016 153.745 176.143 167.301 176.143C180.856 176.143 191.961 170.016 191.961 164.426Z" fill="#DBDBDB"/>
<path d="M167.301 176.603C160.791 176.603 154.588 175.224 149.686 172.773C144.938 170.399 142.258 167.336 142.258 164.426C142.258 161.592 144.862 159.295 149.763 157.686C154.205 156.308 160.332 155.542 167.301 155.542C174.346 155.542 180.473 156.308 184.838 157.686C189.74 159.295 192.344 161.592 192.344 164.426C192.344 167.336 189.663 170.399 184.915 172.773C180.014 175.224 173.734 176.603 167.301 176.603ZM167.301 156.308C160.485 156.308 154.281 157.074 149.993 158.452C146.776 159.448 143.024 161.286 143.024 164.426C143.024 167.03 145.704 169.863 150.069 172.008C154.894 174.458 161.021 175.76 167.301 175.76C173.581 175.76 179.784 174.458 184.532 172.008C188.897 169.863 191.578 166.953 191.578 164.426C191.578 161.286 187.825 159.448 184.609 158.452C180.32 157.074 174.193 156.308 167.301 156.308Z" fill="#323A50"/>
<path d="M191.349 164.502C191.349 159.218 180.55 156.461 167.301 156.461C154.052 156.461 143.254 159.141 143.254 164.502C143.254 169.787 154.052 175.607 167.301 175.607C180.55 175.607 191.349 169.787 191.349 164.502Z" fill="#DBDBDB"/>
<path d="M167.3 175.683C161.02 175.683 154.97 174.458 150.298 172.084C145.78 169.94 143.176 167.106 143.176 164.502C143.176 161.975 145.626 159.831 150.298 158.452C154.587 157.15 160.484 156.461 167.3 156.461C174.116 156.461 180.013 157.15 184.301 158.452C188.973 159.831 191.424 161.975 191.424 164.502C191.424 167.183 188.82 169.94 184.301 172.084C179.553 174.458 173.503 175.683 167.3 175.683ZM167.3 156.691C152.749 156.691 143.406 159.831 143.406 164.579C143.406 169.633 153.898 175.607 167.3 175.607C180.778 175.607 191.194 169.71 191.194 164.579C191.27 159.754 181.851 156.691 167.3 156.691Z" fill="#323A50"/>
<path d="M190.046 164.655C190.046 160.137 179.861 157.763 167.224 157.763C154.588 157.763 144.402 160.137 144.402 164.655C144.402 169.174 154.588 174.228 167.224 174.228C179.861 174.228 190.046 169.251 190.046 164.655Z" fill="#DBDBDB"/>
<path d="M167.301 174.382C161.327 174.382 155.66 173.233 151.142 171.242C146.853 169.327 144.402 166.953 144.402 164.655C144.402 162.511 146.776 160.673 151.142 159.448C155.201 158.299 160.791 157.686 167.301 157.686C173.811 157.686 179.401 158.299 183.46 159.448C187.902 160.673 190.2 162.511 190.2 164.655C190.2 166.953 187.749 169.404 183.46 171.242C178.942 173.309 173.198 174.382 167.301 174.382ZM167.301 157.839C153.516 157.839 144.632 160.52 144.632 164.579C144.632 168.944 154.511 174.075 167.301 174.075C180.09 174.075 189.97 169.021 189.97 164.579C189.97 160.596 181.086 157.839 167.301 157.839Z" fill="#323A50"/>
<path d="M188.744 164.732C188.744 160.826 179.095 158.759 167.147 158.759C155.2 158.759 145.551 160.75 145.551 164.732C145.551 168.714 155.2 173.003 167.147 173.003C179.095 173.003 188.744 168.638 188.744 164.732Z" fill="#DBDBDB"/>
<path d="M167.07 173.156C161.48 173.156 156.042 172.237 151.753 170.476C147.694 168.791 145.32 166.8 145.32 164.809C145.32 162.894 147.541 161.362 151.753 160.29C155.659 159.295 160.943 158.759 167.07 158.759C173.197 158.759 178.481 159.295 182.387 160.29C186.599 161.362 188.82 162.971 188.82 164.809C188.82 166.8 186.522 168.868 182.387 170.476C178.175 172.084 172.737 173.156 167.07 173.156ZM167.07 158.912C153.974 158.912 145.55 161.209 145.55 164.732C145.55 168.485 154.893 172.85 167.07 172.85C179.17 172.85 188.59 168.485 188.59 164.732C188.59 161.209 180.166 158.912 167.07 158.912Z" fill="#323A50"/>
<path d="M187.213 164.655C187.213 161.515 178.176 159.907 167.071 159.907C155.967 159.907 146.93 161.515 146.93 164.655C146.93 167.795 155.967 171.625 167.071 171.625C178.176 171.625 187.213 167.719 187.213 164.655Z" fill="#DBDBDB"/>
<path d="M167.072 171.701C155.891 171.701 146.777 167.795 146.777 164.655C146.777 161.132 157.652 159.831 167.072 159.831C176.492 159.831 187.367 161.056 187.367 164.655C187.29 167.872 178.33 171.701 167.072 171.701ZM167.072 160.06C154.895 160.06 147.007 161.898 147.007 164.655C147.007 167.719 156.274 171.471 167.072 171.471C177.87 171.471 187.137 167.719 187.137 164.655C187.137 161.898 179.249 160.06 167.072 160.06Z" fill="#323A50"/>
<path d="M185.528 164.732C185.528 162.281 177.256 161.056 166.994 161.056C156.809 161.056 148.461 162.281 148.461 164.732C148.461 167.183 156.732 170.17 166.994 170.17C177.256 170.093 185.528 167.183 185.528 164.732Z" fill="#DBDBDB"/>
<path d="M167.071 170.246C156.732 170.246 148.461 167.259 148.461 164.732C148.461 161.975 158.034 160.979 167.071 160.979C176.031 160.979 185.681 161.975 185.681 164.732C185.604 167.259 177.333 170.246 167.071 170.246ZM167.071 161.133C156.043 161.133 148.691 162.588 148.691 164.732C148.691 167.183 157.192 170.016 167.071 170.016C176.95 170.016 185.451 167.106 185.451 164.732C185.451 162.588 178.022 161.133 167.071 161.133Z" fill="#323A50"/>
<path d="M183.534 164.962C183.534 163.201 176.106 162.281 166.916 162.281C157.726 162.281 150.297 163.201 150.297 164.962C150.297 166.723 157.726 168.944 166.916 168.944C176.106 168.868 183.534 166.723 183.534 164.962Z" fill="#DBDBDB"/>
<path d="M166.916 169.021C157.65 169.021 150.145 166.8 150.145 164.962C150.145 162.894 158.799 162.205 166.916 162.205C174.958 162.205 183.688 162.894 183.688 164.962C183.688 166.723 176.183 169.021 166.916 169.021ZM166.916 162.358C157.037 162.358 150.374 163.43 150.374 164.962C150.374 166.494 157.343 168.791 166.916 168.791C176.489 168.791 183.459 166.494 183.459 164.962C183.382 163.43 176.796 162.358 166.916 162.358Z" fill="#323A50"/>
<path d="M139.806 89.067L125.638 75.8945L122.422 79.2642L136.59 92.4367L134.063 95.1171L144.325 96.8785L144.401 96.8019L142.334 86.4631L139.806 89.067Z" fill="#FF5B00"/>
<path opacity="0.42" d="M159.181 150.028C159.181 149.951 159.257 149.951 159.334 149.875C159.334 149.722 159.41 149.492 159.41 149.339C159.334 149.415 159.257 149.492 159.104 149.568C159.104 149.568 159.104 149.645 159.027 149.645C159.104 149.798 159.181 149.875 159.181 150.028Z" fill="url(#paint15_radial_6392_36371)"/>
<path d="M159.489 128.278L135.901 125.981L63.8359 55.9063L71.9538 42.9636L159.719 127.742C159.949 127.972 159.796 128.355 159.489 128.278Z" fill="white"/>
<path d="M159.564 128.737L135.747 126.44L63.375 55.9828L71.9524 42.3508L160.024 127.512C160.254 127.742 160.33 128.048 160.177 128.278C160.1 128.584 159.794 128.737 159.564 128.737ZM136.053 125.674L159.181 127.895L72.029 43.6528L64.3706 55.9062L136.053 125.674Z" fill="#323A50"/>
<path d="M118.899 114.11C121.656 111.966 124.949 107.371 126.558 104.231L123.571 98.4869L132.301 94.0451C132.301 94.0451 131.306 85.4677 119.588 88.0715L70.6513 40.9724L60.3125 52.8429L105.42 96.9552L112.619 106.069L118.899 114.11Z" fill="url(#paint16_linear_6392_36371)"/>
<path d="M102.61 90.4655L124.391 111.567L124.977 110.962L103.196 89.8604L102.61 90.4655Z" fill="#323A50"/>
<path d="M126.765 113.505L133.75 120.273L134.336 119.668L127.351 112.9L126.765 113.505Z" fill="#323A50"/>
<path d="M160.713 129.657C160.484 131.188 154.74 131.648 147.847 130.652C140.955 129.657 135.594 127.589 135.824 125.98C136.053 124.449 141.797 123.989 148.69 124.985C155.506 125.98 160.866 128.048 160.713 129.657Z" fill="#DBDBDB"/>
<path d="M154.586 131.571C152.518 131.571 150.144 131.418 147.77 131.035C141.796 130.193 136.818 128.508 135.67 126.899C135.44 126.593 135.363 126.21 135.363 125.904C135.593 124.372 139.039 123.989 141.873 123.989C143.941 123.989 146.315 124.142 148.689 124.525C154.662 125.368 159.64 127.053 160.789 128.661C161.019 128.967 161.095 129.35 161.095 129.656C160.866 131.265 157.419 131.571 154.586 131.571ZM141.873 124.908C137.891 124.908 136.282 125.598 136.206 126.057C136.206 126.21 136.282 126.287 136.359 126.44C137.201 127.589 141.567 129.35 147.846 130.269C150.221 130.652 152.518 130.805 154.586 130.805C158.568 130.805 160.176 130.116 160.253 129.656C160.253 129.503 160.176 129.427 160.1 129.274C159.257 128.125 154.892 126.363 148.612 125.444C146.238 125.061 143.864 124.908 141.873 124.908Z" fill="#323A50"/>
<path d="M136.206 126.057L135.363 125.904C135.67 123.76 142.332 123.606 148.689 124.525L148.536 125.368C141.26 124.372 136.359 125.061 136.206 126.057Z" fill="#323A50"/>
<path d="M169.52 143.059L174.728 143.748L176.795 144.361L175.494 142.293L172.43 137.927C172.43 137.927 170.669 141.374 165.078 142.293L169.52 143.059Z" fill="#293C4F"/>
<path d="M157.725 159.524C150.22 148.113 152.747 148.496 148.842 142.829C144.936 137.162 136.512 125.674 136.512 125.598C142.562 122.917 155.811 126.67 156.653 127.359C157.496 128.048 163.469 132.797 165.231 133.869C166.992 134.941 169.902 136.319 171.817 137.545C173.731 138.77 179.475 144.284 180.471 145.816C181.466 147.347 182.232 149.032 180.93 149.262C179.782 149.492 178.097 149.109 177.867 149.415C175.646 151.789 170.668 154.546 164.465 156.538C163.776 156.767 165.231 159.601 163.852 159.984C160.789 160.903 158.491 160.75 157.725 159.524Z" fill="#8AADAD"/>
<path d="M160.405 160.29C160.023 160.29 159.64 160.29 159.41 160.213C158.721 159.984 158.567 158.988 158.338 157.763C158.185 156.92 158.031 156.001 157.725 155.542C157.572 155.312 157.419 155.082 157.266 154.853C155.887 152.861 153.513 149.645 153.36 146.964C153.283 145.969 153.283 144.667 153.283 143.059C153.283 139.995 153.207 136.243 152.671 134.251C151.139 128.814 146.467 124.832 146.391 124.755L147.08 124.678C147.233 124.832 151.598 128.431 153.207 134.098C153.819 136.166 153.819 139.842 153.896 143.059C153.896 144.514 153.896 145.969 153.972 146.888C154.202 149.415 156.423 152.555 157.802 154.47C157.955 154.699 158.185 154.929 158.261 155.159C158.644 155.772 158.797 156.691 158.95 157.61C159.104 158.375 159.257 159.448 159.563 159.524C160.482 159.754 163.545 159.371 163.928 159.141C163.928 158.988 163.928 158.682 163.928 158.452C163.852 157.686 163.775 156.691 164.464 156.154C164.771 155.925 165.46 155.772 166.379 155.465C168.983 154.699 173.884 153.168 177.407 149.338C177.867 148.802 178.632 148.879 179.398 149.032C179.934 149.109 180.47 149.185 180.777 148.956C181.16 147.654 179.322 145.969 179.245 145.969C179.169 145.892 173.808 140.455 171.204 138.693C169.825 137.774 166.762 136.932 163.775 136.166C161.018 135.4 158.338 134.711 156.959 133.945C154.126 132.337 148.382 125.215 148.152 124.985L148.688 124.908C148.765 124.985 154.585 131.877 157.266 133.486C158.567 134.251 161.248 134.941 163.928 135.63C166.992 136.396 170.055 137.238 171.587 138.234C174.267 139.995 179.398 145.28 179.781 145.586C180.011 145.739 182.079 147.577 181.466 149.338V149.415L181.389 149.492C180.93 149.951 180.164 149.875 179.475 149.798C178.862 149.721 178.25 149.645 178.02 149.951C174.42 153.934 169.366 155.389 166.685 156.231C165.843 156.461 165.154 156.691 164.924 156.844C164.541 157.15 164.618 157.916 164.694 158.529C164.771 159.141 164.771 159.524 164.541 159.754C164.005 159.984 161.861 160.29 160.405 160.29Z" fill="#323A50"/>
<path d="M159.563 155.159C158.95 155.159 158.338 155.159 157.648 155.082V154.699C165.46 155.159 170.744 152.632 173.808 150.334C177.101 147.883 178.632 145.356 178.632 145.28L179.015 145.509C178.939 145.586 177.484 148.19 174.037 150.64C171.204 152.785 166.456 155.159 159.563 155.159Z" fill="#323A50"/>
<path d="M156.96 145.433C155.888 145.433 154.739 145.356 153.438 145.127L153.514 144.744C160.253 145.739 164.236 143.748 166.38 141.91C168.754 139.919 169.52 137.621 169.52 137.621L169.903 137.775C169.826 137.851 169.061 140.149 166.61 142.293C164.925 143.748 161.785 145.433 156.96 145.433Z" fill="#323A50"/>
<path d="M156.885 144.131C155.89 144.131 155.124 144.131 153.898 143.901V142.599C160.791 143.671 164.084 141.144 165.386 139.689C165.846 139.23 166.611 139.076 167.147 139.383C167.071 139.613 164.39 144.131 156.885 144.131Z" fill="white"/>
<g opacity="0.31">
<path d="M160.942 157.456C161.325 155.236 157.956 149.262 158.338 145.203C158.721 141.987 158.032 141.68 157.496 139.612C155.888 133.945 147.693 124.602 147.54 124.525L146.621 124.908C146.698 124.985 151.369 128.814 152.901 134.175C153.437 136.09 153.514 139.919 153.514 142.906C153.514 144.437 153.514 145.816 153.59 146.811C153.82 149.492 156.117 152.785 157.573 154.776C157.726 155.006 157.956 155.236 158.032 155.465C158.338 155.925 158.492 156.844 158.645 157.61C158.875 158.835 159.028 159.907 159.794 160.137C160.023 160.213 160.406 160.213 160.789 160.213C161.172 160.213 161.555 160.213 161.938 160.137C161.861 159.984 160.866 158.146 160.942 157.456Z" fill="#293C4F"/>
</g>
<path d="M164.542 159.448C164.159 159.524 162.704 160.443 160.712 160.443C159.41 160.443 158.568 160.137 158.185 159.524C153.896 153.015 152.058 149.032 151.216 146.888C150.603 145.28 150.067 143.901 148.382 141.45C145.242 136.932 138.809 128.125 136.665 125.215C136.359 125.138 136.435 125.827 136.129 125.674C137.661 127.742 144.4 136.779 147.846 141.757C149.531 144.131 149.991 145.433 150.603 147.041C151.446 149.185 153.284 153.244 157.572 159.831C158.108 160.596 159.104 161.056 160.636 161.056C161.095 161.056 162.167 160.826 162.857 160.596C163.776 160.29 164.695 159.601 164.542 159.448Z" fill="#323A50"/>
<path d="M151.676 140.761C151.676 140.685 150.987 135.63 150.298 133.639C149.608 131.648 147.694 128.355 147.617 128.508L147.924 128.278C148 128.431 150.298 131.341 151.063 133.333C152.519 137.085 151.982 141.144 151.982 141.374L151.676 140.761Z" fill="white"/>
<path d="M181.24 147.73C181.316 147.96 180.78 147.347 180.78 147.577C180.857 147.577 181.316 149.415 181.393 149.492C181.393 149.339 181.852 148.037 181.776 147.883C181.163 146.275 173.888 137.928 169.676 135.936C167.531 134.711 159.566 130.116 157.422 127.206C157.116 127.129 156.963 127.359 156.656 127.282C158.188 129.35 164.391 133.715 169.293 136.319C172.739 137.851 180.627 146.122 181.24 147.73Z" fill="#323A50"/>
<path d="M198.852 135.247C200.383 133.792 200.766 136.166 202.374 135.86C204.519 135.553 205.055 136.549 205.055 136.549" fill="#DBDBDB"/>
<path d="M202.376 136.319C201.534 136.472 200.998 135.936 200.461 135.63C199.925 135.171 199.619 135.017 199.083 135.553L198.547 134.941C199.696 133.869 200.461 134.481 200.998 134.941C201.38 135.324 201.763 135.553 202.299 135.477C204.75 135.094 205.363 136.396 205.363 136.396L204.674 136.779C204.674 136.779 204.214 136.013 202.376 136.319Z" fill="#323A50"/>
<path d="M264.64 188.473C262.725 182.193 257.824 177.981 249.783 175.913C245.188 174.764 240.976 174.611 239.138 174.611C239.061 174.382 238.984 174.152 238.755 173.999C240.363 173.922 244.958 173.999 249.936 175.301C257.977 177.445 263.338 181.887 265.176 188.243C265.559 189.086 277.2 213.516 278.655 227.837C279.038 231.59 282.101 232.432 287.692 233.964C292.287 235.189 298.643 236.951 306.455 241.163L306.149 241.775C298.337 237.563 292.057 235.878 287.462 234.653C281.795 233.121 278.425 232.202 277.966 227.914C276.817 216.273 268.776 197.663 265.712 191C265.865 195.978 262.419 202.794 255.373 211.448C248.634 219.719 238.678 229.599 225.735 240.856C220.911 245.068 216.086 249.127 211.414 252.88L210.648 252.65C215.397 248.898 220.375 244.609 225.353 240.397C254.531 214.971 268.086 197.127 264.64 188.473Z" fill="#323A50"/>
<path d="M241.128 180.738C241.051 180.279 240.439 177.981 240.286 177.522C240.362 177.292 241.205 178.67 241.205 178.441C241.205 177.981 240.898 177.522 240.515 177.215C240.592 176.756 240.592 176.526 240.132 176.22C240.209 175.99 239.673 175.99 239.596 175.837C240.439 177.215 241.434 179.053 241.741 180.585C243.119 187.707 232.244 204.556 209.499 230.671C204.521 236.415 199.39 242.082 194.795 246.983L194.105 246.753C214.4 224.85 242.813 191.536 241.128 180.738Z" fill="#323A50"/>
<path d="M238.906 173.922C239.059 174.075 239.059 174.152 239.213 174.305L243.425 174.152C241.51 173.922 239.825 173.922 238.906 173.922Z" fill="#323A50"/>
<path d="M239.98 175.99L250.855 175.607C250.472 175.454 250.012 175.377 249.553 175.224L239.75 175.607C239.903 175.76 239.98 175.913 239.98 175.99Z" fill="#323A50"/>
<path d="M240.438 177.675L254.913 177.062C254.606 176.909 254.377 176.832 254.07 176.679L240.285 177.215C240.285 177.292 240.285 177.368 240.285 177.368C240.285 177.522 240.362 177.598 240.438 177.675Z" fill="#323A50"/>
<path d="M241.13 179.436L257.825 178.824C257.672 178.67 257.442 178.594 257.212 178.441L240.977 179.053C241.053 179.13 241.053 179.207 241.13 179.436Z" fill="#323A50"/>
<path d="M241.281 180.968L259.815 180.202C259.661 180.049 259.508 179.972 259.355 179.819L241.358 180.508C241.281 180.738 241.281 180.815 241.281 180.968Z" fill="#323A50"/>
<path d="M241.358 182.729L261.423 181.887C261.27 181.734 261.193 181.657 261.04 181.504L241.281 182.346C241.358 182.423 241.358 182.5 241.358 182.729Z" fill="#323A50"/>
<path d="M241.052 184.031C240.975 184.184 240.975 184.261 240.898 184.338L262.648 183.419C262.495 183.265 262.495 183.112 262.342 183.036L241.052 184.031C241.128 184.031 241.128 184.031 241.052 184.031Z" fill="#323A50"/>
<path d="M240.514 185.869C240.514 185.946 240.438 186.022 240.438 186.099L263.719 185.18C263.642 185.027 263.566 184.874 263.489 184.797L240.591 185.716C240.591 185.793 240.514 185.869 240.514 185.869Z" fill="#323A50"/>
<path d="M239.903 187.478L264.333 186.482C264.41 186.635 264.487 186.788 264.487 186.865L239.75 187.86C239.75 187.707 239.827 187.631 239.903 187.478Z" fill="#323A50"/>
<path d="M239.138 189.162L264.946 188.09C265.023 188.243 265.023 188.32 265.099 188.473L238.984 189.545C238.984 189.469 239.061 189.392 239.138 189.162Z" fill="#323A50"/>
<path d="M238.37 191L265.328 189.852C265.328 190.005 265.404 190.081 265.404 190.234L238.141 191.383C238.217 191.23 238.217 191.077 238.37 191Z" fill="#323A50"/>
<path d="M237.452 192.762L265.482 191.613C265.482 191.766 265.482 191.919 265.482 191.996L237.223 193.145C237.223 192.992 237.376 192.838 237.452 192.762Z" fill="#323A50"/>
<path d="M236.533 194.294L265.328 193.145C265.328 193.298 265.252 193.451 265.252 193.528L236.227 194.676C236.38 194.6 236.456 194.523 236.533 194.294Z" fill="#323A50"/>
<path d="M235.463 196.055L264.947 194.906C264.871 195.059 264.871 195.212 264.794 195.289L235.156 196.438C235.309 196.361 235.386 196.285 235.463 196.055Z" fill="#323A50"/>
<path d="M234.39 197.893L264.411 196.667C264.334 196.821 264.258 196.974 264.258 197.05L234.16 198.276C234.237 198.123 234.313 197.969 234.39 197.893Z" fill="#323A50"/>
<path d="M233.24 199.654L263.644 198.429C263.567 198.582 263.491 198.735 263.491 198.812L232.934 200.037C233.087 199.884 233.163 199.731 233.24 199.654Z" fill="#323A50"/>
<path d="M232.093 201.263L262.88 200.037C262.803 200.191 262.727 200.344 262.65 200.42L231.863 201.646C231.94 201.569 232.093 201.416 232.093 201.263Z" fill="#323A50"/>
<path d="M230.941 203.024L261.957 201.799C261.881 201.952 261.804 202.105 261.727 202.182L230.711 203.407C230.711 203.33 230.788 203.254 230.941 203.024Z" fill="#323A50"/>
<path d="M229.716 204.785L260.886 203.56C260.81 203.713 260.733 203.866 260.656 203.943L229.41 205.168C229.563 205.092 229.563 204.939 229.716 204.785Z" fill="#323A50"/>
<path d="M228.416 206.547L259.739 205.245C259.585 205.398 259.585 205.551 259.432 205.628L228.109 206.93C228.263 206.853 228.339 206.777 228.416 206.547Z" fill="#323A50"/>
<path d="M227.267 208.232L258.667 206.93C258.513 207.083 258.514 207.236 258.36 207.313L226.961 208.615C226.961 208.538 227.114 208.308 227.267 208.232Z" fill="#323A50"/>
<path d="M225.888 209.993L257.288 208.691C257.135 208.844 257.058 208.997 256.981 209.074L225.582 210.376C225.735 210.299 225.812 210.146 225.888 209.993Z" fill="#323A50"/>
<path d="M224.586 211.755L255.985 210.453C255.832 210.606 255.756 210.759 255.603 210.836L224.203 212.137C224.356 212.061 224.433 211.908 224.586 211.755Z" fill="#323A50"/>
<path d="M223.129 213.516L254.452 212.214C254.299 212.367 254.222 212.52 254.069 212.597L222.746 213.899C222.976 213.822 223.129 213.669 223.129 213.516Z" fill="#323A50"/>
<path d="M221.828 215.277L253.074 214.052C252.921 214.205 252.845 214.358 252.692 214.435L221.445 215.66C221.598 215.584 221.675 215.431 221.828 215.277Z" fill="#323A50"/>
<path d="M220.373 217.039L251.466 215.813C251.313 215.967 251.236 216.12 251.083 216.196L220.066 217.422C220.143 217.345 220.296 217.269 220.373 217.039Z" fill="#323A50"/>
<path d="M218.994 218.8L249.934 217.575C249.781 217.728 249.704 217.881 249.551 217.958L218.688 219.183C218.764 219.107 218.841 218.953 218.994 218.8Z" fill="#323A50"/>
<path d="M217.615 220.485L248.402 219.26C248.248 219.413 248.172 219.566 248.019 219.643L217.309 220.868C217.385 220.791 217.538 220.638 217.615 220.485Z" fill="#323A50"/>
<path d="M216.238 222.17L246.795 220.945C246.642 221.098 246.489 221.251 246.412 221.327L215.855 222.553C216.009 222.4 216.162 222.323 216.238 222.17Z" fill="#323A50"/>
<path d="M214.781 223.931L245.032 222.706C244.879 222.859 244.726 223.012 244.649 223.089L214.398 224.314C214.552 224.161 214.705 224.085 214.781 223.931Z" fill="#323A50"/>
<path d="M213.328 225.693L243.349 224.468C243.196 224.621 243.043 224.774 242.966 224.85L212.945 226.076C213.098 225.999 213.175 225.846 213.328 225.693Z" fill="#323A50"/>
<path d="M211.795 227.531L241.586 226.382C241.433 226.535 241.279 226.688 241.203 226.765L211.488 227.914C211.565 227.761 211.641 227.607 211.795 227.531Z" fill="#323A50"/>
<path d="M210.343 229.139L239.828 227.99C239.675 228.143 239.521 228.297 239.445 228.373L210.113 229.522C210.113 229.445 210.266 229.292 210.343 229.139Z" fill="#323A50"/>
<path d="M209.041 230.824L238.219 229.675C238.066 229.828 237.913 229.982 237.76 230.058L208.734 231.207C208.734 231.054 208.811 230.901 209.041 230.824Z" fill="#323A50"/>
<path d="M207.43 232.585L236.225 231.437C236.072 231.59 235.919 231.743 235.766 231.819L207.047 232.968C207.2 232.892 207.277 232.738 207.43 232.585Z" fill="#323A50"/>
<path d="M205.899 234.347L234.311 233.198C234.158 233.351 234.005 233.504 233.852 233.581L205.516 234.73C205.669 234.653 205.745 234.423 205.899 234.347Z" fill="#323A50"/>
<path d="M204.367 236.108L232.397 234.959C232.244 235.113 232.091 235.266 231.937 235.342L203.984 236.491C204.061 236.415 204.214 236.261 204.367 236.108Z" fill="#323A50"/>
<path d="M202.759 237.946L230.406 236.798C230.253 236.951 230.1 237.104 229.947 237.181L202.453 238.329C202.453 238.253 202.606 238.1 202.759 237.946Z" fill="#323A50"/>
<path d="M201.305 239.555L228.569 238.406C228.415 238.559 228.262 238.712 228.109 238.789L200.922 239.937C201.075 239.861 201.152 239.708 201.305 239.555Z" fill="#323A50"/>
<path d="M199.695 241.316L226.5 240.244C226.347 240.397 226.193 240.55 226.04 240.627L199.312 241.699C199.389 241.622 199.542 241.546 199.695 241.316Z" fill="#323A50"/>
<path d="M198.088 243.077L224.509 242.005C224.356 242.158 224.126 242.311 224.05 242.388L197.781 243.46C197.858 243.384 198.011 243.307 198.088 243.077Z" fill="#323A50"/>
<path d="M196.478 244.915L222.44 243.843C222.287 243.996 222.057 244.15 221.981 244.226L196.172 245.298C196.248 245.222 196.325 245.069 196.478 244.915Z" fill="#323A50"/>
<path d="M195.024 246.6L220.526 245.528C220.373 245.681 220.143 245.834 220.066 245.911L194.641 246.907C194.717 246.907 194.87 246.677 195.024 246.6Z" fill="#323A50"/>
<path d="M195.484 248.132L218.613 247.213C218.46 247.366 218.23 247.519 218.077 247.596L196.48 248.515C196.097 248.362 195.791 248.208 195.484 248.132Z" fill="#323A50"/>
<path d="M200.004 249.664L216.393 249.051C216.24 249.204 216.01 249.357 215.857 249.434L201.076 250.047C200.77 249.97 200.387 249.817 200.004 249.664Z" fill="#323A50"/>
<path d="M204.676 251.195L214.249 250.812C214.096 250.965 213.866 251.119 213.713 251.195L205.748 251.502C205.442 251.425 205.059 251.272 204.676 251.195Z" fill="#323A50"/>
<path d="M209.344 252.727L212.024 252.574C211.871 252.727 211.641 252.88 211.488 252.957L210.339 253.033C210.033 252.957 209.65 252.803 209.344 252.727Z" fill="#323A50"/>
<path d="M70.3461 188.473C72.2607 182.193 77.162 177.981 85.2033 175.913C89.7984 174.764 94.0105 174.611 95.8485 174.611C95.9251 174.382 96.0017 174.152 96.2314 173.999C94.6232 173.922 90.0281 173.999 85.0502 175.301C77.0089 177.445 71.648 181.887 69.81 188.243C69.427 189.086 57.7863 213.516 56.3312 227.837C55.9483 231.59 52.8849 232.432 47.2943 233.964C42.6993 235.189 36.3428 236.951 28.5312 241.163L28.8376 241.775C36.6491 237.563 42.929 235.878 47.5241 234.653C53.1913 233.121 56.561 232.202 57.0205 227.914C58.1692 216.273 66.2105 197.663 69.2739 191C69.1207 195.978 72.567 202.794 79.6127 211.448C86.3521 219.719 96.308 229.599 109.251 240.856C114.075 245.068 118.9 249.127 123.572 252.88L124.338 252.65C119.59 248.898 114.612 244.609 109.634 240.397C80.4551 214.971 66.8998 197.127 70.3461 188.473Z" fill="#323A50"/>
<path d="M93.858 180.738C93.9345 180.279 94.5472 177.981 94.7004 177.522C94.6238 177.292 93.7814 178.67 93.7814 178.441C93.7814 177.981 94.0877 177.522 94.4706 177.215C94.394 176.756 94.394 176.526 94.8535 176.22C94.777 175.99 95.3131 175.99 95.3896 175.837C94.5472 177.215 93.5516 179.053 93.2453 180.585C91.8668 187.707 102.742 204.556 125.487 230.671C130.465 236.415 135.596 242.082 140.191 246.983L140.88 246.753C120.433 224.85 92.0965 191.536 93.858 180.738Z" fill="#323A50"/>
<path d="M96.077 173.922C95.9239 174.075 95.9239 174.152 95.7707 174.305L91.5586 174.152C93.4732 173.922 95.158 173.922 96.077 173.922Z" fill="#323A50"/>
<path d="M94.9296 175.99L84.0547 175.607C84.4376 175.454 84.8971 175.377 85.3566 175.224L95.1594 175.607C95.0828 175.76 95.0062 175.913 94.9296 175.99Z" fill="#323A50"/>
<path d="M94.5447 177.675L80.0703 177.062C80.3766 176.909 80.6064 176.832 80.9127 176.679L94.6978 177.215C94.6978 177.292 94.6978 177.368 94.6978 177.368C94.6213 177.522 94.6213 177.598 94.5447 177.675Z" fill="#323A50"/>
<path d="M93.8554 179.436L77.1602 178.824C77.3133 178.67 77.5431 178.594 77.7728 178.441L94.0086 179.053C93.932 179.13 93.932 179.207 93.8554 179.436Z" fill="#323A50"/>
<path d="M93.6271 180.968L75.0938 180.202C75.2469 180.049 75.4001 179.972 75.5533 179.819L93.5505 180.508C93.6271 180.738 93.6271 180.815 93.6271 180.968Z" fill="#323A50"/>
<path d="M93.6275 182.729L73.5625 181.887C73.7157 181.734 73.7923 181.657 73.9454 181.504L93.7041 182.346C93.6275 182.423 93.6275 182.5 93.6275 182.729Z" fill="#323A50"/>
<path d="M93.8545 184.031C93.9311 184.184 93.9311 184.261 94.0076 184.338L72.2578 183.419C72.411 183.265 72.411 183.112 72.5641 183.036L93.8545 184.031Z" fill="#323A50"/>
<path d="M94.3924 185.869C94.3924 185.946 94.469 186.022 94.469 186.099L71.1875 185.18C71.2641 185.027 71.3407 184.874 71.4172 184.797L94.3158 185.716C94.3924 185.793 94.3924 185.869 94.3924 185.869Z" fill="#323A50"/>
<path d="M95.0795 187.478L70.6493 186.482C70.5727 186.635 70.4961 186.788 70.4961 186.865L95.2327 187.86C95.1561 187.707 95.1561 187.631 95.0795 187.478Z" fill="#323A50"/>
<path d="M95.7705 189.162L69.9618 188.09C69.8852 188.243 69.8852 188.32 69.8086 188.473L95.9237 189.545C95.9237 189.469 95.9237 189.392 95.7705 189.162Z" fill="#323A50"/>
<path d="M96.6122 191L69.6547 189.852C69.6547 190.005 69.5781 190.081 69.5781 190.234L96.842 191.383C96.7654 191.23 96.6888 191.077 96.6122 191Z" fill="#323A50"/>
<path d="M97.5336 192.762L69.5039 191.613C69.5039 191.766 69.5039 191.919 69.5039 191.996L97.7634 193.145C97.7634 192.992 97.6102 192.838 97.5336 192.762Z" fill="#323A50"/>
<path d="M98.4518 194.294L69.6562 193.145C69.6562 193.298 69.7328 193.451 69.7328 193.528L98.7581 194.676C98.605 194.6 98.5284 194.523 98.4518 194.294Z" fill="#323A50"/>
<path d="M99.5239 196.055L70.0391 194.906C70.1156 195.059 70.1156 195.212 70.1922 195.289L99.8302 196.438C99.677 196.361 99.5239 196.285 99.5239 196.055Z" fill="#323A50"/>
<path d="M100.595 197.893L70.5742 196.667C70.6508 196.821 70.7274 196.974 70.7274 197.05L100.825 198.276C100.748 198.123 100.672 197.969 100.595 197.893Z" fill="#323A50"/>
<path d="M101.744 199.654L71.3398 198.429C71.4164 198.582 71.493 198.735 71.493 198.812L102.05 200.037C101.897 199.884 101.82 199.731 101.744 199.654Z" fill="#323A50"/>
<path d="M102.818 201.263L72.0312 200.037C72.1078 200.191 72.1844 200.344 72.261 200.42L103.048 201.646C103.048 201.569 102.895 201.416 102.818 201.263Z" fill="#323A50"/>
<path d="M104.04 203.024L73.0234 201.799C73.1 201.952 73.1766 202.105 73.2532 202.182L104.27 203.407C104.193 203.33 104.117 203.254 104.04 203.024Z" fill="#323A50"/>
<path d="M105.189 204.785L74.0195 203.56C74.0961 203.713 74.1727 203.866 74.2493 203.943L105.496 205.168C105.342 205.092 105.342 204.939 105.189 204.785Z" fill="#323A50"/>
<path d="M106.491 206.547L75.168 205.245C75.3211 205.398 75.3211 205.551 75.4743 205.628L106.797 206.93C106.644 206.853 106.567 206.777 106.491 206.547Z" fill="#323A50"/>
<path d="M107.642 208.232L76.2422 206.93C76.3954 207.083 76.3954 207.236 76.5485 207.313L107.948 208.615C107.871 208.538 107.795 208.308 107.642 208.232Z" fill="#323A50"/>
<path d="M109.02 209.993L77.6211 208.691C77.7743 208.844 77.8508 208.997 77.9274 209.074L109.327 210.376C109.174 210.299 109.097 210.146 109.02 209.993Z" fill="#323A50"/>
<path d="M110.321 211.755L78.9219 210.453C79.075 210.606 79.1516 210.759 79.3048 210.836L110.704 212.137C110.551 212.061 110.474 211.908 110.321 211.755Z" fill="#323A50"/>
<path d="M111.702 213.516L80.3789 212.214C80.5321 212.367 80.6087 212.52 80.7618 212.597L112.085 213.899C111.931 213.822 111.778 213.669 111.702 213.516Z" fill="#323A50"/>
<path d="M113.078 215.277L81.832 214.052C81.9852 214.205 82.0618 214.358 82.215 214.435L113.461 215.66C113.308 215.584 113.231 215.431 113.078 215.277Z" fill="#323A50"/>
<path d="M114.534 217.039L83.4414 215.813C83.5946 215.967 83.6712 216.12 83.8243 216.196L114.841 217.422C114.764 217.345 114.611 217.269 114.534 217.039Z" fill="#323A50"/>
<path d="M115.913 218.8L84.9727 217.575C85.1258 217.728 85.2024 217.881 85.3556 217.958L116.219 219.183C116.142 219.107 116.066 218.953 115.913 218.8Z" fill="#323A50"/>
<path d="M117.291 220.485L86.5039 219.26C86.6571 219.413 86.7337 219.566 86.8868 219.643L117.597 220.868C117.52 220.791 117.367 220.638 117.291 220.485Z" fill="#323A50"/>
<path d="M118.592 222.17L88.0352 220.945C88.1883 221.098 88.3415 221.251 88.4181 221.327L118.975 222.553C118.898 222.4 118.745 222.323 118.592 222.17Z" fill="#323A50"/>
<path d="M120.126 223.931L89.875 222.706C90.0282 222.859 90.1813 223.012 90.2579 223.089L120.509 224.314C120.355 224.161 120.202 224.085 120.126 223.931Z" fill="#323A50"/>
<path d="M121.579 225.693L91.5586 224.468C91.7118 224.621 91.8649 224.774 91.9415 224.85L121.962 226.076C121.809 225.999 121.656 225.846 121.579 225.693Z" fill="#323A50"/>
<path d="M123.033 227.531L93.2422 226.382C93.3954 226.535 93.5485 226.688 93.6251 226.765L123.34 227.914C123.34 227.761 123.186 227.607 123.033 227.531Z" fill="#323A50"/>
<path d="M124.489 229.139L95.0039 227.99C95.1571 228.143 95.3102 228.297 95.3868 228.373L124.718 229.522C124.795 229.445 124.642 229.292 124.489 229.139Z" fill="#323A50"/>
<path d="M125.87 230.824L96.6914 229.675C96.8446 229.828 96.9977 229.982 97.1509 230.058L126.176 231.207C126.1 231.054 126.023 230.901 125.87 230.824Z" fill="#323A50"/>
<path d="M127.475 232.585L98.6797 231.437C98.8329 231.59 98.986 231.743 99.1392 231.819L127.858 232.968C127.705 232.892 127.552 232.738 127.475 232.585Z" fill="#323A50"/>
<path d="M129.006 234.347L100.594 233.198C100.747 233.351 100.9 233.504 101.053 233.581L129.389 234.73C129.236 234.653 129.083 234.423 129.006 234.347Z" fill="#323A50"/>
<path d="M130.541 236.108L102.512 234.959C102.665 235.113 102.818 235.266 102.971 235.342L130.924 236.491C130.771 236.415 130.618 236.261 130.541 236.108Z" fill="#323A50"/>
<path d="M132.147 237.946L104.5 236.798C104.653 236.951 104.806 237.104 104.959 237.181L132.453 238.329C132.453 238.253 132.223 238.1 132.147 237.946Z" fill="#323A50"/>
<path d="M133.604 239.555L106.34 238.406C106.493 238.559 106.646 238.712 106.799 238.789L133.987 239.937C133.833 239.861 133.68 239.708 133.604 239.555Z" fill="#323A50"/>
<path d="M135.211 241.316L108.406 240.244C108.559 240.397 108.713 240.55 108.866 240.627L135.594 241.699C135.517 241.622 135.287 241.546 135.211 241.316Z" fill="#323A50"/>
<path d="M136.742 243.077L110.32 242.005C110.473 242.158 110.703 242.311 110.78 242.388L137.048 243.46C137.048 243.384 136.895 243.307 136.742 243.077Z" fill="#323A50"/>
<path d="M138.427 244.915L112.465 243.843C112.618 243.996 112.848 244.15 112.924 244.226L138.733 245.298C138.657 245.222 138.58 245.069 138.427 244.915Z" fill="#323A50"/>
<path d="M139.881 246.6L114.379 245.528C114.532 245.681 114.762 245.834 114.838 245.911L140.264 246.907C140.188 246.907 140.035 246.677 139.881 246.6Z" fill="#323A50"/>
<path d="M139.425 248.132L116.297 247.213C116.45 247.366 116.68 247.519 116.833 247.596L138.43 248.515C138.736 248.362 139.042 248.208 139.425 248.132Z" fill="#323A50"/>
<path d="M134.905 249.664L118.516 249.051C118.669 249.204 118.899 249.357 119.052 249.434L133.832 250.047C134.139 249.97 134.522 249.817 134.905 249.664Z" fill="#323A50"/>
<path d="M130.233 251.195L120.66 250.812C120.813 250.965 121.043 251.119 121.196 251.195L129.161 251.502C129.467 251.425 129.85 251.272 130.233 251.195Z" fill="#323A50"/>
<path d="M125.563 252.727L122.883 252.574C123.036 252.727 123.266 252.88 123.419 252.957L124.568 253.033C124.874 252.957 125.257 252.803 125.563 252.727Z" fill="#323A50"/>
</g>
<defs>
<radialGradient id="paint0_radial_6392_36371" cx="0" cy="0" r="1" gradientUnits="userSpaceOnUse" gradientTransform="translate(167.89 236.798) rotate(0.150828) scale(71.7228 71.3932)">
<stop offset="0.4054" stop-color="#032A3D" stop-opacity="0"/>
<stop offset="1" stop-color="#032A3D"/>
</radialGradient>
<linearGradient id="paint1_linear_6392_36371" x1="179.493" y1="200.308" x2="143.871" y2="60.2139" gradientUnits="userSpaceOnUse">
<stop offset="0.2655" stop-color="#032A3D" stop-opacity="0"/>
<stop offset="0.7809" stop-color="#032A3D"/>
</linearGradient>
<linearGradient id="paint2_linear_6392_36371" x1="188.932" y1="172.653" x2="142.377" y2="123.793" gradientUnits="userSpaceOnUse">
<stop offset="0.3301" stop-color="#C4FFFF"/>
<stop offset="0.8279" stop-color="#47B4FF"/>
<stop offset="1" stop-color="#0C37A6"/>
</linearGradient>
<radialGradient id="paint3_radial_6392_36371" cx="0" cy="0" r="1" gradientUnits="userSpaceOnUse" gradientTransform="translate(166.594 160.511) rotate(0.150816) scale(43.9787 43.7571)">
<stop offset="0.2655" stop-color="#032A3D" stop-opacity="0"/>
<stop offset="0.7809" stop-color="#032A3D"/>
</radialGradient>
<linearGradient id="paint4_linear_6392_36371" x1="75.5559" y1="202.075" x2="209.914" y2="266.343" gradientUnits="userSpaceOnUse">
<stop offset="0.2655" stop-color="#032A3D" stop-opacity="0"/>
<stop offset="0.7809" stop-color="#032A3D"/>
</linearGradient>
<linearGradient id="paint5_linear_6392_36371" x1="81.2589" y1="190.156" x2="215.617" y2="254.424" gradientUnits="userSpaceOnUse">
<stop offset="0.2655" stop-color="#032A3D" stop-opacity="0"/>
<stop offset="0.7809" stop-color="#032A3D"/>
</linearGradient>
<linearGradient id="paint6_linear_6392_36371" x1="82.4112" y1="187.743" x2="216.77" y2="252.012" gradientUnits="userSpaceOnUse">
<stop offset="0.2655" stop-color="#032A3D" stop-opacity="0"/>
<stop offset="0.7809" stop-color="#032A3D"/>
</linearGradient>
<linearGradient id="paint7_linear_6392_36371" x1="63.8623" y1="226.518" x2="198.22" y2="290.786" gradientUnits="userSpaceOnUse">
<stop offset="0.2655" stop-color="#032A3D" stop-opacity="0"/>
<stop offset="0.7809" stop-color="#032A3D"/>
</linearGradient>
<linearGradient id="paint8_linear_6392_36371" x1="77.3743" y1="198.278" x2="211.733" y2="262.546" gradientUnits="userSpaceOnUse">
<stop offset="0.2655" stop-color="#032A3D" stop-opacity="0"/>
<stop offset="0.7809" stop-color="#032A3D"/>
</linearGradient>
<linearGradient id="paint9_linear_6392_36371" x1="72.5436" y1="208.372" x2="206.902" y2="272.64" gradientUnits="userSpaceOnUse">
<stop offset="0.2655" stop-color="#032A3D" stop-opacity="0"/>
<stop offset="0.7809" stop-color="#032A3D"/>
</linearGradient>
<linearGradient id="paint10_linear_6392_36371" x1="60.8536" y1="232.81" x2="195.212" y2="297.078" gradientUnits="userSpaceOnUse">
<stop offset="0.2655" stop-color="#032A3D" stop-opacity="0"/>
<stop offset="0.7809" stop-color="#032A3D"/>
</linearGradient>
<linearGradient id="paint11_linear_6392_36371" x1="65.9627" y1="222.129" x2="200.321" y2="286.398" gradientUnits="userSpaceOnUse">
<stop offset="0.2655" stop-color="#032A3D" stop-opacity="0"/>
<stop offset="0.7809" stop-color="#032A3D"/>
</linearGradient>
<linearGradient id="paint12_linear_6392_36371" x1="75.0262" y1="203.183" x2="209.384" y2="267.452" gradientUnits="userSpaceOnUse">
<stop offset="0.2655" stop-color="#032A3D" stop-opacity="0"/>
<stop offset="0.7809" stop-color="#032A3D"/>
</linearGradient>
<linearGradient id="paint13_linear_6392_36371" x1="60.2912" y1="233.987" x2="194.65" y2="298.255" gradientUnits="userSpaceOnUse">
<stop offset="0.2655" stop-color="#032A3D" stop-opacity="0"/>
<stop offset="0.7809" stop-color="#032A3D"/>
</linearGradient>
<linearGradient id="paint14_linear_6392_36371" x1="189.593" y1="171.772" x2="142.856" y2="122.979" gradientUnits="userSpaceOnUse">
<stop offset="0.3301" stop-color="#C4FFFF"/>
<stop offset="0.8279" stop-color="#47B4FF"/>
<stop offset="1" stop-color="#0C37A6"/>
</linearGradient>
<radialGradient id="paint15_radial_6392_36371" cx="0" cy="0" r="1" gradientUnits="userSpaceOnUse" gradientTransform="translate(158.748 145.545) rotate(0.150816) scale(43.9787 43.7571)">
<stop offset="0.2655" stop-color="#032A3D" stop-opacity="0"/>
<stop offset="0.7809" stop-color="#032A3D"/>
</radialGradient>
<linearGradient id="paint16_linear_6392_36371" x1="160.92" y1="133.304" x2="61.415" y2="47.6724" gradientUnits="userSpaceOnUse">
<stop offset="0.6593" stop-color="white" stop-opacity="0"/>
<stop offset="0.9342" stop-color="white"/>
</linearGradient>
<clipPath id="clip0_6392_36371">
<rect width="330" height="330" fill="white" transform="translate(0.5)"/>
</clipPath>
</defs>
</svg>
