<svg width="330" height="330" viewBox="0 0 330 330" fill="none" xmlns="http://www.w3.org/2000/svg">
<g clip-path="url(#clip0_3618_18519)">
<path d="M165.825 301.243C161.346 301.243 156.809 300.889 152.448 300.182C143.727 298.709 139.778 297.354 136.714 296.057C120.98 290.164 107.486 279.793 97.7034 266.004C87.7445 251.92 82.4409 235.302 82.4409 217.977C82.4409 205.955 84.9749 194.346 89.9249 183.445C94.6981 172.955 101.534 163.704 110.137 155.984L111.787 154.275C117.15 148.736 117.327 148.559 120.037 145.495L120.509 144.964C123.868 141.134 130.88 133.12 140.662 126.755C141.664 126.107 143.019 125.518 144.846 124.988L145.082 125.754C143.373 126.284 142.018 126.873 141.134 127.463C131.469 133.768 124.516 141.723 121.157 145.495L120.686 146.025C117.975 149.089 117.739 149.325 112.436 154.864L110.727 156.632C93.2838 172.248 83.2659 194.641 83.2659 218.036C83.2659 252.332 104.893 283.388 137.009 295.409C140.014 296.646 143.962 298.061 152.566 299.534C156.927 300.241 161.346 300.595 165.825 300.595C211.318 300.595 248.384 263.588 248.384 218.036C248.384 194.229 238.071 171.6 220.157 155.925C218.389 154.098 217.152 152.802 216.15 151.8C213.557 149.148 212.968 148.5 210.846 146.143C210.493 145.73 210.08 145.259 209.668 144.788C206.191 140.78 199.768 133.296 190.752 127.816C186.332 125.105 177.021 123.514 165.294 123.455C160.639 123.455 155.807 123.809 151.564 124.457L151.623 123.632C155.925 122.925 160.698 122.571 165.353 122.63C177.198 122.689 186.627 124.339 191.223 127.109C200.357 132.648 206.839 140.25 210.316 144.316C210.787 144.846 211.141 145.318 211.494 145.671C213.557 148.029 214.205 148.618 216.739 151.27C217.741 152.271 218.978 153.568 220.746 155.395C229.586 163.114 236.598 172.484 241.548 183.091C246.675 194.111 249.268 205.896 249.268 218.095C249.268 229.35 247.087 240.252 242.727 250.564C238.543 260.464 232.532 269.421 224.871 277.082C217.211 284.743 208.312 290.754 198.353 294.938C187.982 299.063 177.08 301.243 165.825 301.243Z" fill="#323A50"/>
<path opacity="0.2" d="M207.959 154.805C210.905 153.155 212.496 152.036 209.491 148.618C204.364 142.784 192.343 124.398 169.125 124.162L166.237 124.104H165.412H164.116C140.839 124.28 126.873 142.725 121.746 148.559C118.682 152.036 121.098 154.039 122.453 155.1C128.464 151.27 133.886 148.264 140.957 145.966C141.134 145.907 150.032 141.664 164.941 141.546C165 141.546 175.077 141.487 184.564 144.434C196.173 147.439 201.771 151.211 207.959 154.805Z" fill="url(#paint0_linear_3618_18519)"/>
<path opacity="0.2" d="M165.412 285.981C203.035 285.981 233.534 255.614 233.534 218.154C233.534 180.694 203.035 150.327 165.412 150.327C127.79 150.327 97.291 180.694 97.291 218.154C97.291 255.614 127.79 285.981 165.412 285.981Z" fill="url(#paint1_radial_3618_18519)"/>
<path opacity="0.34" d="M236.834 186.509C236.775 186.332 236.716 186.155 236.598 186.037C236.363 186.509 235.95 186.921 235.42 187.275C234.005 188.1 231.825 187.687 231.118 186.155C230.705 185.33 230.293 184.564 229.763 183.798C229.527 183.385 229.232 183.032 228.938 182.619C228.82 182.443 228.82 182.443 228.938 182.619C228.879 182.56 228.82 182.443 228.761 182.384C228.643 182.207 228.466 182.03 228.348 181.853C227.111 180.439 225.638 179.025 224.459 178.2C223.693 177.669 222.927 177.198 222.102 176.785C221.866 176.668 221.63 176.55 221.395 176.432C221.336 176.432 221.336 176.432 221.336 176.373C220.923 176.196 220.511 176.078 220.039 175.96C219.568 175.843 219.096 175.725 218.625 175.607C218.625 175.607 217.918 175.489 217.977 175.489C217.8 175.489 217.682 175.43 217.505 175.43C216.386 175.312 215.325 175.312 214.205 175.312C210.139 175.43 206.663 176.078 202.714 176.55C198.53 177.08 194.405 177.375 190.221 177.669C182.03 178.259 173.898 179.26 165.648 179.378C161.641 179.437 157.575 178.73 153.627 178.023C149.679 177.316 146.025 176.785 142.254 176.373C134.298 175.43 126.284 174.959 118.27 175.725C116.62 175.843 115.382 174.428 115.146 172.955C115.087 172.955 115.029 172.955 114.97 173.014C114.498 173.132 114.027 173.25 113.614 173.427C113.379 173.485 113.143 173.603 112.848 173.662C112.73 173.721 112.671 173.721 112.613 173.78C110.727 174.605 108.9 175.725 107.25 176.962C107.191 177.021 106.838 177.316 106.779 177.316C106.543 177.493 106.307 177.669 106.13 177.905C105.718 178.259 105.364 178.612 104.952 178.966C104.186 179.732 103.42 180.557 102.771 181.382C102.712 181.441 102.713 181.5 102.654 181.5L102.595 181.559C102.418 181.794 102.241 181.971 102.123 182.207C101.887 182.619 101.593 182.973 101.357 183.385C101.121 183.798 100.886 184.151 100.709 184.564C100.65 184.682 100.355 185.448 100.65 184.682C100.591 184.918 100.473 185.094 100.414 185.33C99.825 186.98 98.2929 187.923 96.525 187.51C95.9357 187.393 95.4054 187.039 94.9929 186.568C94.9339 186.685 95.0518 186.803 94.9929 186.921C91.0447 196.232 88.6875 206.427 88.6875 217.152C88.6875 259.816 123.279 294.466 166.002 294.466C208.725 294.466 243.08 259.875 243.08 217.21C243.198 206.309 240.9 195.878 236.834 186.509Z" fill="url(#paint2_linear_3618_18519)"/>
<path opacity="0.2" d="M226.286 245.909L225.814 245.85C225.52 248.207 218.625 251.448 217.152 251.683C216.562 251.801 216.209 251.625 215.855 251.507C215.325 251.33 214.854 251.094 213.911 251.625C212.379 252.567 207.016 258.401 205.837 261.23C204.659 264.117 203.893 265.65 201.241 266.71C199.768 267.3 197.529 267.3 195.171 267.3C192.991 267.3 190.752 267.3 189.043 267.771C186.45 268.478 183.975 269.657 182.737 270.246C183.386 269.539 183.975 268.773 184.564 268.125C185.625 266.887 186.568 265.767 187.157 265.355C187.923 264.766 190.752 264.471 193.698 264.176C197.646 263.764 202.184 263.234 203.598 261.937C205.189 260.405 207.429 254.807 209.196 250.269C210.139 247.853 210.964 245.791 211.495 244.966C212.025 244.082 213.498 243.08 215.089 242.019C217.8 240.251 220.864 238.189 220.805 235.714H220.334C220.393 237.894 217.446 239.898 214.854 241.607C213.145 242.726 211.671 243.728 211.082 244.73C210.552 245.614 209.727 247.676 208.784 250.092C207.016 254.571 204.777 260.11 203.304 261.584C202.773 262.055 201.712 262.467 200.416 262.762C201.3 262.291 202.302 261.584 203.009 260.641C204.305 258.991 205.425 255.101 205.955 252.98C206.073 252.626 206.132 252.332 206.191 252.096C206.368 251.448 206.132 251.035 205.896 250.623C205.602 250.151 205.307 249.68 205.484 248.501C205.72 247.205 206.427 246.675 207.252 246.144C207.782 245.732 208.313 245.378 208.725 244.73C209.727 243.139 209.079 241.489 208.784 240.605V240.546C208.548 239.957 208.018 240.016 207.605 240.016C207.193 240.075 206.957 240.075 206.839 239.839C206.721 239.603 207.016 239.132 207.37 238.66C207.841 237.953 208.43 237.128 208.077 236.421L207.664 236.598C207.9 237.128 207.429 237.776 207.016 238.366C206.545 239.014 206.132 239.603 206.486 240.075C206.78 240.605 207.311 240.546 207.723 240.487C208.136 240.428 208.313 240.428 208.43 240.664V240.723C208.784 241.607 209.314 243.021 208.43 244.376C208.077 244.907 207.605 245.319 207.075 245.673C206.25 246.262 205.425 246.851 205.13 248.384C204.895 249.739 205.248 250.328 205.602 250.8C205.838 251.153 205.955 251.389 205.837 251.86C205.779 252.037 205.72 252.391 205.602 252.744C205.071 254.689 203.952 258.637 202.714 260.228C201.3 261.996 198.825 262.939 198.589 262.998C197.057 263.234 195.289 263.41 193.698 263.587C190.575 263.941 187.864 264.235 186.98 264.825C186.332 265.296 185.389 266.416 184.27 267.712C182.148 270.246 179.202 273.664 177.198 273.546C176.138 273.487 175.018 273.251 173.839 273.016C171.423 272.544 168.712 271.955 165.766 272.485C159.696 273.605 157.634 274.784 156.455 276.257C155.277 277.612 154.688 279.38 154.688 279.439L155.1 279.616C155.1 279.616 155.689 277.848 156.809 276.551C157.929 275.196 159.932 274.076 165.884 272.957C168.713 272.426 171.423 272.957 173.78 273.487C175.018 273.723 176.138 273.958 177.198 274.076C178.73 274.194 180.498 272.662 182.207 270.894L182.266 271.071C182.325 271.071 185.625 269.185 189.161 268.242C190.87 267.771 193.05 267.771 195.171 267.771C197.588 267.771 199.886 267.771 201.359 267.182C204.246 266.062 205.071 264.353 206.25 261.407C207.37 258.696 212.614 252.921 214.087 252.037C214.795 251.566 215.148 251.742 215.62 251.919C216.032 252.096 216.504 252.273 217.211 252.155C218.861 251.86 225.932 248.56 226.286 245.909Z" fill="url(#paint3_linear_3618_18519)"/>
<path opacity="0.2" d="M170.421 256.928C169.655 257.753 169.773 259.168 169.891 260.759C170.009 262.291 170.186 264 169.479 265.473C168.123 268.243 162.054 270.423 161.995 270.482L162.112 270.954C162.348 270.895 168.418 268.714 169.832 265.709C170.539 264.177 170.421 262.35 170.304 260.759C170.186 259.286 170.068 257.989 170.716 257.341C171.423 256.634 173.957 256.045 176.196 255.573C178.789 254.984 181.029 254.453 181.559 253.746C182.089 253.039 182.207 252.391 182.266 251.802C182.384 251.154 182.443 250.682 183.032 250.27C183.327 250.093 184.859 250.152 186.509 250.27C191.046 250.505 197.941 250.918 200.357 247.5C202.302 244.789 201.654 242.786 201.064 241.077C200.593 239.662 200.18 238.425 201.064 236.952C201.712 235.773 202.95 235.42 204.305 234.948C206.957 234.064 210.257 233.004 212.379 226.227C212.85 224.636 212.614 222.986 212.379 221.395C212.025 219.273 211.73 217.27 212.968 215.443L212.555 215.207C211.2 217.211 211.554 219.391 211.848 221.512C212.084 223.104 212.32 224.636 211.848 226.109C209.786 232.709 206.662 233.711 204.129 234.536C202.655 235.007 201.418 235.42 200.652 236.716C199.709 238.366 200.18 239.839 200.652 241.195C201.241 242.904 201.83 244.671 200.004 247.205C197.705 250.387 190.693 249.975 186.509 249.798C184.918 249.739 183.857 249.68 183.268 249.739C183.504 249.091 183.68 248.148 183.857 247.146C184.152 245.379 184.505 243.316 185.566 242.196C186.096 241.666 186.804 241.43 187.805 241.136C190.104 240.487 193.345 239.545 195.879 233.004V232.945C196.35 230.705 195.82 229.114 195.289 228.171C195.054 227.759 194.582 227.523 194.111 227.287C193.58 227.052 192.991 226.757 192.52 226.05C191.695 224.812 191.341 217.918 191.636 216.562C191.636 216.445 191.695 216.386 191.695 216.386C191.754 216.327 192.048 216.445 192.284 216.504C192.991 216.739 194.229 217.211 195.702 216.15L195.466 215.737C194.17 216.68 193.168 216.327 192.461 216.032C192.048 215.914 191.754 215.796 191.518 215.914C191.4 215.973 191.282 216.15 191.223 216.386C190.987 217.682 191.223 224.754 192.166 226.227C192.696 226.993 193.404 227.346 193.934 227.641C194.346 227.818 194.7 227.995 194.877 228.289C195.348 229.173 195.879 230.587 195.407 232.709C192.991 239.014 189.927 239.898 187.687 240.546C186.686 240.841 185.861 241.077 185.271 241.725C184.152 242.962 183.798 245.025 183.445 246.911C183.268 248.148 183.032 249.268 182.679 249.798C182.03 250.27 181.912 250.918 181.795 251.566C181.677 252.155 181.618 252.686 181.146 253.334C180.675 253.982 178.2 254.512 176.02 254.984C173.604 255.573 171.246 256.103 170.421 256.928Z" fill="url(#paint4_linear_3618_18519)"/>
<path opacity="0.2" d="M171.129 210.14C171.718 210.788 172.189 211.259 171.895 212.674C171.718 213.616 171.187 214.972 170.598 216.445C169.596 219.038 168.595 221.69 169.066 222.868C169.302 223.457 169.655 223.87 170.009 224.283C170.716 225.166 171.541 226.05 171.129 228.702C170.775 230.824 169.655 232.474 168.771 233.829C168.005 235.008 167.298 236.009 167.357 237.011C167.416 237.777 167.829 238.307 168.3 238.779C169.007 239.722 169.773 240.606 168.771 242.963C168.005 244.79 166.945 245.261 166.061 245.615C165.118 246.027 164.352 246.381 164.587 248.149C164.882 249.975 166.061 251.213 167.18 252.332C168.005 253.157 168.83 254.041 169.42 255.161L169.832 254.984C169.243 253.806 168.359 252.863 167.534 252.038C166.414 250.918 165.354 249.799 165.059 248.09C164.823 246.675 165.295 246.499 166.237 246.086C167.121 245.674 168.359 245.143 169.184 243.199C170.304 240.547 169.42 239.486 168.595 238.484C168.182 237.954 167.829 237.541 167.77 236.952C167.711 236.186 168.3 235.243 169.066 234.124C170.009 232.768 171.187 231.059 171.482 228.82C171.954 225.933 171.07 224.931 170.304 224.047C169.95 223.634 169.655 223.281 169.42 222.75C169.007 221.69 170.068 219.038 170.952 216.681C171.541 215.207 172.071 213.852 172.248 212.85C172.602 211.2 172.012 210.552 171.364 209.904C170.952 209.432 170.48 208.961 170.304 208.077L169.832 208.195C170.186 209.138 170.657 209.668 171.129 210.14Z" fill="url(#paint5_linear_3618_18519)"/>
<path opacity="0.2" d="M173.486 274.135C171.895 273.369 167.888 273.016 165.413 273.487C163.056 273.9 158.872 274.843 157.281 276.611C156.338 277.612 155.513 279.557 155.513 279.675L155.925 279.852C155.925 279.852 156.809 277.907 157.634 276.964C159.225 275.255 163.704 274.312 165.531 274.018C168.182 273.546 171.954 274.018 173.309 274.666C174.782 275.373 175.313 276.434 175.372 276.964C175.548 278.614 172.838 280.087 172.838 280.087L173.014 280.5C173.132 280.441 176.079 278.85 175.784 276.905C175.725 276.08 175.077 274.902 173.486 274.135Z" fill="url(#paint6_linear_3618_18519)"/>
<path opacity="0.2" d="M174.664 245.496C175.489 245.85 176.314 246.145 176.845 246.911C177.493 247.795 178.789 250.093 177.022 252.097C176.314 252.922 174.547 253.57 172.838 254.218C171.129 254.807 169.538 255.396 169.066 256.222C168.536 257.047 168.595 258.461 168.713 260.111C168.831 261.584 168.889 263.116 168.595 264.295C167.888 266.711 161.759 269.657 161.7 269.657L161.877 270.07C162.113 269.952 168.241 267.064 169.007 264.413C169.361 263.116 169.243 261.525 169.125 260.052C169.007 258.52 168.948 257.164 169.361 256.457C169.773 255.809 171.364 255.22 172.956 254.689C174.723 254.041 176.55 253.393 177.316 252.45C178.672 250.859 178.613 248.738 177.139 246.675C176.55 245.791 175.607 245.438 174.782 245.084C173.957 244.73 173.132 244.436 172.779 243.67C172.072 242.138 172.602 240.429 173.545 239.78C173.781 239.604 174.075 239.486 174.311 239.309C175.195 238.779 176.02 238.307 177.081 237.129C178.495 235.596 181.147 229.35 181.618 226.345C181.913 224.577 181.441 223.752 180.911 222.927C180.498 222.279 180.086 221.63 179.968 220.334L179.497 220.393C179.614 221.748 180.086 222.514 180.498 223.163C180.97 223.929 181.441 224.636 181.147 226.227C180.675 229.173 178.082 235.302 176.727 236.775C175.725 237.895 174.841 238.366 174.016 238.896C173.781 239.073 173.486 239.191 173.25 239.368C172.131 240.075 171.482 242.079 172.307 243.846C172.897 244.789 173.839 245.143 174.664 245.496Z" fill="url(#paint7_linear_3618_18519)"/>
<path opacity="0.2" d="M154.57 272.309C154.393 271.072 152.978 270.07 151.505 269.068C150.386 268.302 148.677 267.359 147.203 266.475C145.907 265.768 144.728 265.061 144.316 264.766C144.198 264.707 144.08 264.531 143.962 264.354C143.255 263.234 142.725 260.465 142.843 258.284C142.902 257.047 142.784 256.104 142.725 255.338C142.607 254.513 142.548 253.923 142.784 253.393C142.961 252.981 143.255 252.922 143.727 252.863C144.198 252.804 144.846 252.686 145.141 251.92C145.377 251.272 145.259 250.506 145.2 249.857C145.082 249.15 145.023 248.561 145.318 248.09C145.612 247.677 145.907 247.559 146.32 247.441C146.732 247.265 147.203 247.088 147.616 246.498C147.97 245.968 147.498 245.261 146.909 244.377C146.025 243.139 144.846 241.372 145.318 239.25C145.848 236.952 146.555 237.011 147.557 237.188C148.028 237.247 148.618 237.365 149.148 237.129C150.091 236.775 150.975 234.713 151.859 232.591C152.566 230.941 153.273 229.232 153.921 228.761C154.628 228.231 155.218 228.113 155.807 227.995C156.396 227.877 156.927 227.818 157.339 227.229C157.87 226.581 157.575 225.697 157.339 224.931C157.221 224.459 157.045 223.988 157.162 223.752L156.75 223.516C156.573 223.929 156.691 224.459 156.868 225.048C157.045 225.697 157.28 226.522 156.927 226.934C156.573 227.347 156.22 227.406 155.63 227.523C155.041 227.641 154.334 227.759 153.568 228.348C152.861 228.879 152.153 230.588 151.387 232.415C150.621 234.3 149.737 236.422 148.971 236.716C148.5 236.893 148.028 236.834 147.557 236.775C146.496 236.657 145.436 236.481 144.787 239.191C144.257 241.548 145.495 243.375 146.437 244.731C146.909 245.438 147.38 246.027 147.145 246.322C146.85 246.793 146.496 246.911 146.084 247.088C145.671 247.206 145.259 247.382 144.905 247.913C144.493 248.502 144.611 249.268 144.728 249.975C144.846 250.623 144.905 251.272 144.728 251.802C144.552 252.332 144.139 252.391 143.668 252.45C143.196 252.509 142.666 252.568 142.371 253.275C142.136 253.923 142.195 254.572 142.312 255.456C142.43 256.222 142.489 257.106 142.43 258.343C142.312 259.698 142.489 261.348 142.843 262.763C141.841 261.113 140.545 258.579 140.309 256.104C140.132 253.982 140.545 253.275 141.075 252.156C141.605 251.095 142.253 249.798 142.784 246.852C143.491 242.668 141.664 238.779 140.486 236.775C140.603 236.363 141.428 233.593 143.609 232.827L144.728 232.415C146.791 231.707 148.618 231 149.561 230.529C150.798 229.881 151.8 227.759 151.977 226.463C152.095 225.697 151.741 225.225 151.387 224.813C151.093 224.4 150.798 224.047 150.798 223.398C150.857 222.868 151.623 222.338 152.507 221.748C153.745 220.865 155.336 219.863 155.984 218.095C156.75 215.973 155.984 215.031 155.336 214.206C154.982 213.793 154.687 213.44 154.57 212.909L154.157 213.027C154.275 213.616 154.687 214.088 155.041 214.5C155.689 215.325 156.278 216.091 155.63 217.918C155.041 219.509 153.509 220.511 152.33 221.336C151.27 222.043 150.503 222.573 150.386 223.34C150.327 224.165 150.739 224.636 151.034 225.048C151.387 225.461 151.623 225.756 151.505 226.345C151.27 227.7 150.268 229.586 149.325 230.116C148.382 230.588 146.496 231.236 144.493 231.943L143.373 232.356C141.37 233.063 140.427 235.302 140.073 236.245C139.661 235.656 139.425 235.302 139.366 235.243C139.307 235.184 135.123 231.354 133.237 228.407C131.352 225.461 131.411 223.045 132.412 222.161C132.943 221.69 134.003 221.631 135.3 221.572C136.478 221.513 137.775 221.454 138.953 221.041C140.721 220.393 142.018 217.859 142.312 217.093C142.843 215.973 143.314 214.441 143.02 213.734C142.548 212.438 140.603 212.025 140.486 211.966L140.427 212.438C140.427 212.438 142.253 212.85 142.607 213.911C142.725 214.323 142.548 215.443 141.9 216.916C141.252 218.39 140.073 220.157 138.777 220.629C137.657 221.041 136.42 221.1 135.3 221.159C134.003 221.218 132.825 221.277 132.177 221.807C131.057 222.809 130.821 225.343 132.943 228.643C134.77 231.531 138.836 235.243 139.13 235.538C139.366 235.832 143.373 240.959 142.371 246.734C141.9 249.563 141.252 250.859 140.721 251.861C140.603 252.097 140.486 252.332 140.368 252.568C139.837 251.154 139.896 250.329 139.955 249.681C140.014 248.738 139.955 248.207 138.659 247.382C136.95 246.322 133.65 246.145 131.47 246.027C130.586 245.968 129.82 245.909 129.466 245.85C128.052 245.497 127.403 244.907 127.05 243.67C126.755 242.668 126.991 242.373 127.462 241.843C127.58 241.725 127.698 241.548 127.875 241.372C128.052 241.136 128.405 240.9 128.759 240.723C129.584 240.252 130.703 239.604 130.586 237.954C130.527 236.54 129.584 236.068 128.641 235.538C127.993 235.184 127.345 234.89 126.873 234.182C125.636 232.532 124.162 227.759 123.927 225.166C123.632 222.279 124.162 216.798 124.634 216.445C124.811 216.386 125.577 216.74 126.166 217.034C127.286 217.565 128.7 218.213 129.643 217.977C129.82 217.918 129.937 217.918 130.114 217.859C131.352 217.564 131.47 217.447 131.411 216.209C131.352 215.325 130.703 215.207 130.173 215.148C129.761 215.09 129.466 215.031 129.23 214.736C128.759 214.147 128.936 211.907 128.995 211.082L128.523 211.023C128.464 211.377 128.17 214.147 128.818 215.031C129.171 215.443 129.643 215.502 130.055 215.561C130.645 215.679 130.939 215.738 130.939 216.209C130.998 216.681 130.998 216.916 130.88 217.034C130.762 217.152 130.468 217.211 129.996 217.329C129.878 217.388 129.702 217.388 129.525 217.447C128.7 217.623 127.403 217.034 126.343 216.504C125.341 216.032 124.811 215.797 124.457 215.915C123.514 216.268 123.22 222.868 123.396 225.107C123.632 227.818 125.105 232.65 126.461 234.359C126.991 235.066 127.757 235.479 128.405 235.832C129.348 236.304 130.055 236.716 130.114 237.895C130.173 239.25 129.348 239.722 128.464 240.252C128.052 240.488 127.698 240.723 127.462 241.018C127.345 241.195 127.227 241.372 127.109 241.49C126.637 242.02 126.284 242.491 126.637 243.729C127.05 245.143 127.875 245.85 129.407 246.204C129.702 246.263 130.114 246.322 130.703 246.322C130.35 246.557 129.996 246.557 129.584 246.557C129.171 246.557 128.641 246.498 128.228 246.852C127.462 247.382 127.934 248.266 128.287 248.915C128.405 249.209 128.582 249.504 128.582 249.681C128.582 249.798 128.523 249.916 128.405 250.034C128.17 250.211 127.698 250.27 127.05 250.211C126.343 250.093 125.341 249.032 124.752 248.384C124.516 248.148 124.339 247.913 124.221 247.854C123.986 247.677 123.632 247.677 123.337 247.736C122.984 247.795 122.571 247.795 122.218 247.559C122.041 247.441 121.864 247.206 121.864 246.911C121.805 246.381 122.041 245.791 122.218 245.615C122.277 245.556 122.453 245.556 122.689 245.556C122.984 245.556 123.337 245.556 123.632 245.32C124.103 244.907 124.28 244.259 124.221 243.257C124.162 242.668 123.691 242.668 123.278 242.668C122.807 242.668 122.277 242.609 122.041 241.961C121.864 241.49 122.1 241.018 122.453 240.429C122.984 239.545 123.632 238.366 122.689 236.775C121.628 234.772 120.45 235.007 119.566 235.184C119.271 235.243 118.977 235.302 118.8 235.243C118.623 235.184 118.505 235.066 118.505 235.007C118.446 234.831 118.564 234.654 118.623 234.595L118.27 234.359C118.27 234.418 117.975 234.772 118.093 235.184C118.152 235.42 118.328 235.656 118.682 235.773C118.977 235.891 119.33 235.832 119.684 235.773C120.45 235.656 121.393 235.42 122.336 237.129C123.102 238.543 122.571 239.486 122.1 240.37C121.746 241.018 121.393 241.607 121.628 242.314C121.982 243.257 122.748 243.316 123.278 243.316C123.75 243.316 123.809 243.375 123.809 243.493C123.868 244.318 123.75 244.907 123.396 245.202C123.22 245.32 122.984 245.32 122.748 245.32C122.453 245.32 122.159 245.32 121.923 245.556C121.687 245.791 121.393 246.557 121.511 247.206C121.57 247.618 121.746 247.972 122.041 248.207C122.571 248.561 123.102 248.561 123.514 248.502C123.809 248.502 123.986 248.443 124.103 248.561C124.221 248.62 124.339 248.856 124.575 249.091C125.223 249.798 126.284 250.977 127.109 251.095C127.109 251.095 127.109 251.095 127.168 251.095C127.934 251.213 128.523 251.095 128.877 250.8C129.053 250.623 129.171 250.388 129.23 250.093C129.23 249.798 129.053 249.504 128.877 249.091C128.523 248.384 128.287 247.913 128.7 247.618C129.053 247.382 129.348 247.382 129.761 247.382C130.291 247.382 130.939 247.441 131.47 246.734C131.528 246.734 131.587 246.734 131.587 246.734C133.709 246.852 136.95 247.088 138.6 248.031C139.72 248.738 139.72 249.091 139.661 249.916C139.602 250.682 139.543 251.684 140.309 253.452C140.073 254.159 139.955 254.984 140.073 256.34C140.368 260.465 143.55 264.648 143.786 264.943C143.903 265.12 144.08 265.297 144.198 265.415C144.67 265.768 145.848 266.416 147.145 267.182C148.618 268.007 150.327 268.95 151.446 269.716C152.743 270.659 154.157 271.602 154.275 272.663C154.334 273.134 154.216 273.665 153.745 274.195C152.153 276.316 150.15 283.623 150.15 283.918L150.621 283.977C150.68 283.506 152.684 276.434 154.098 274.49C154.452 273.547 154.628 272.957 154.57 272.309Z" fill="url(#paint8_linear_3618_18519)"/>
<path opacity="0.2" d="M151.388 274.253C150.739 272.014 147.498 269.598 146.438 268.95C144.139 267.535 138.895 267.241 136.479 267.771C135.359 268.007 134.593 268.36 133.886 268.714C133.12 269.068 132.472 269.421 131.588 269.421C129.761 269.421 128.759 269.657 127.875 270.305C127.698 270.423 127.639 270.6 127.639 270.718C127.639 271.071 127.993 271.425 128.347 271.778C128.641 272.014 129.054 272.426 128.995 272.662C128.995 272.78 128.877 272.839 128.759 272.898C127.58 273.546 126.638 272.662 126.579 272.603L126.225 272.957C126.225 272.957 127.404 274.135 128.936 273.369C129.23 273.193 129.348 273.016 129.407 272.78C129.466 272.309 128.995 271.896 128.641 271.543C128.405 271.307 128.052 271.012 128.052 270.835L128.111 270.776C128.877 270.187 129.82 270.01 131.529 270.01C132.53 270.01 133.238 269.657 134.063 269.244C134.711 268.891 135.477 268.537 136.538 268.301C138.836 267.83 144.022 268.125 146.202 269.421C147.498 270.187 150.386 272.485 150.975 274.489C151.093 275.019 150.857 276.021 150.504 276.728C148.736 280.853 148.147 283.8 148.147 283.8L148.559 283.859C148.559 283.859 149.148 280.912 150.916 276.846C151.152 276.257 151.623 275.019 151.388 274.253Z" fill="url(#paint9_linear_3618_18519)"/>
<path opacity="0.2" d="M152.448 273.841C152.331 273.016 151.506 272.132 151.211 271.779C151.152 271.72 151.152 271.72 151.152 271.72C149.502 269.775 147.086 267.889 145.495 267.3C145.023 267.123 144.493 267.005 143.845 266.888C141.252 265.65 138.777 265.179 136.361 264.707C135.064 264.471 133.709 264.177 132.354 263.823C128.759 262.763 122.689 256.752 122.454 256.516C122.277 256.28 118.152 251.095 117.798 249.268C117.622 248.502 116.738 244.613 116.325 243.493C115.913 242.55 110.786 240.841 109.725 240.488C107.191 240.37 103.538 240.134 103.184 239.898C102.772 239.604 102.3 238.189 102.418 237.6C102.418 237.364 102.713 237.188 103.007 237.011C103.479 236.716 104.009 236.304 104.127 235.596C104.186 235.066 103.832 233.475 103.184 230.941C102.595 228.525 101.77 225.284 102.006 224.636C102.182 224.105 102.536 224.046 102.889 223.929C103.243 223.87 103.597 223.752 103.714 223.221C103.773 223.045 103.656 222.868 103.597 222.809C103.361 222.573 102.831 222.573 102.123 222.632C101.416 222.691 100.473 222.75 100.12 222.396L99.8252 222.75C100.356 223.221 101.298 223.163 102.123 223.104C102.536 223.104 103.125 223.045 103.243 223.163C103.184 223.398 103.125 223.398 102.772 223.516C102.418 223.634 101.888 223.752 101.593 224.518C101.357 225.166 101.888 227.523 102.772 231.059C103.243 233.063 103.773 235.066 103.714 235.538C103.656 236.068 103.184 236.363 102.772 236.657C102.359 236.893 102.006 237.188 101.947 237.6C101.829 238.307 102.359 239.957 102.948 240.37C103.42 240.723 108.193 240.959 109.666 241.018C112.613 241.961 115.736 243.257 115.972 243.729C116.325 244.554 116.973 247.205 117.445 249.386C117.857 251.33 122.041 256.575 122.218 256.811C122.454 257.047 128.582 263.175 132.295 264.295C133.65 264.707 135.006 264.943 136.302 265.179C138.247 265.532 140.191 265.945 142.254 266.711C141.134 266.593 139.897 266.534 138.777 266.416C137.775 266.357 136.832 266.298 136.125 266.18C130.527 265.591 127.404 264.707 125.4 263.293C123.102 261.702 116.266 255.691 115.677 254.984C115.382 254.571 115.264 254.159 115.088 253.57C114.97 253.157 114.852 252.686 114.616 252.155C113.732 250.211 110.491 248.148 108.134 246.616C106.897 245.85 105.836 245.143 105.6 244.789C105.247 244.259 105.364 243.905 105.541 243.434C105.659 243.08 105.836 242.727 105.836 242.255H105.364C105.364 242.668 105.247 242.963 105.129 243.257C104.893 243.788 104.716 244.259 105.188 245.025C105.482 245.438 106.484 246.086 107.839 246.97C110.138 248.443 113.379 250.505 114.145 252.332C114.381 252.804 114.498 253.275 114.616 253.688C114.793 254.277 114.911 254.748 115.264 255.22C115.854 255.927 122.748 261.996 125.047 263.646C127.168 265.12 130.291 266.004 136.007 266.593C136.714 266.652 137.657 266.711 138.659 266.829C141.134 267.005 143.963 267.241 145.318 267.713C146.85 268.243 149.207 270.07 150.798 272.014C150.798 272.014 150.857 272.073 150.857 272.132C151.093 272.427 151.918 273.311 151.977 273.959C152.095 274.607 151.623 275.904 150.975 277.613C150.386 279.263 149.62 281.325 148.972 283.8L149.384 283.918C150.032 281.443 150.798 279.439 151.388 277.789C152.095 275.845 152.566 274.666 152.448 273.841Z" fill="url(#paint10_linear_3618_18519)"/>
<path d="M105.246 210.964C105.187 211.318 104.834 211.848 104.421 212.438C103.714 213.557 102.83 214.795 103.361 215.738C103.655 216.268 104.362 216.739 105.187 217.329C106.719 218.331 108.664 219.627 109.43 221.984C110.668 225.697 113.85 232.356 113.85 232.414V232.473C113.909 232.532 117.739 237.777 116.443 242.845L116.855 242.963C118.211 237.777 114.557 232.65 114.203 232.238C114.203 232.179 114.086 232.002 113.968 231.766C114.498 231.648 115.677 231.295 116.502 230.234C117.091 229.468 117.327 228.466 117.209 227.229C116.973 225.166 115.971 223.222 115.087 221.572C114.321 220.098 113.673 218.861 113.791 217.918C113.85 217.152 114.321 216.975 114.911 216.798C115.618 216.622 116.502 216.327 116.678 214.795C116.855 213.145 115.736 212.438 114.793 211.907C114.086 211.436 113.614 211.141 113.673 210.611C113.791 209.138 115.912 207.075 115.912 207.075L115.618 206.722C115.559 206.781 113.378 208.902 113.261 210.552C113.202 211.377 113.909 211.848 114.616 212.261C115.5 212.791 116.443 213.381 116.266 214.736C116.148 215.973 115.5 216.15 114.793 216.327C114.144 216.504 113.437 216.739 113.319 217.8C113.261 218.861 113.909 220.157 114.675 221.689C115.559 223.339 116.502 225.225 116.737 227.229C116.855 228.289 116.678 229.232 116.148 229.88C115.382 230.882 114.203 231.177 113.791 231.236C112.848 229.291 110.786 224.636 109.843 221.807C109.018 219.332 106.955 217.918 105.423 216.916C104.657 216.386 103.95 215.914 103.714 215.502C103.302 214.795 104.068 213.675 104.716 212.673C105.187 212.025 105.541 211.436 105.6 211.023C105.659 210.375 105.069 209.432 104.303 208.313C103.655 207.311 102.889 206.191 102.771 205.366L102.3 205.425C102.418 206.368 103.184 207.488 103.891 208.548C104.657 209.491 105.305 210.493 105.246 210.964Z" fill="url(#paint11_linear_3618_18519)"/>
<path opacity="0.2" d="M149.855 275.786C149.325 274.549 147.734 273.547 146.614 272.84C146.143 272.545 145.789 272.309 145.613 272.132C145.436 271.956 145.436 271.779 145.377 271.602C145.259 271.072 145.082 270.6 143.963 270.129C142.254 269.422 138.129 269.068 136.773 269.952C136.243 270.306 136.184 270.718 136.184 271.072C136.302 272.015 137.422 272.84 138.482 273.193C139.189 273.429 139.248 274.195 139.307 274.961C139.366 275.609 139.425 276.257 139.897 276.67C140.25 276.906 140.368 277.141 140.309 277.318C140.25 277.554 139.838 277.848 138.895 277.966C137.598 278.084 135.595 277.554 135.536 277.554L135.418 278.025C135.477 278.025 137.539 278.556 138.895 278.438C139.897 278.32 140.545 277.966 140.663 277.436C140.78 277.024 140.545 276.611 140.073 276.257C139.72 276.022 139.72 275.491 139.661 274.902C139.602 274.136 139.543 273.075 138.541 272.781C137.48 272.427 136.597 271.661 136.538 271.013C136.538 270.777 136.655 270.541 136.891 270.365C138.07 269.657 141.9 269.893 143.668 270.6C144.67 271.013 144.729 271.366 144.847 271.72C144.905 271.956 144.964 272.25 145.259 272.486C145.436 272.663 145.848 272.957 146.32 273.252C147.38 273.9 148.913 274.961 149.443 276.022C149.797 276.788 149.384 277.613 148.854 278.791C148.382 279.911 147.734 281.266 147.439 283.152L147.911 283.211C148.147 281.443 148.795 280.088 149.266 278.968C149.797 277.672 150.268 276.729 149.855 275.786Z" fill="url(#paint12_linear_3618_18519)"/>
<path d="M164.882 183.268C186.394 183.268 203.834 173.875 203.834 162.289C203.834 150.703 186.394 141.311 164.882 141.311C143.369 141.311 125.93 150.703 125.93 162.289C125.93 173.875 143.369 183.268 164.882 183.268Z" fill="#2A697F"/>
<path d="M164.529 162.643C173.967 162.643 181.618 158.844 181.618 154.158C181.618 149.471 173.967 145.672 164.529 145.672C155.091 145.672 147.439 149.471 147.439 154.158C147.439 158.844 155.091 162.643 164.529 162.643Z" fill="#293C4F"/>
<path d="M164.529 147.734C173.25 147.734 180.498 150.975 181.5 155.159C181.559 154.806 181.618 154.511 181.618 154.158C181.618 149.502 173.957 145.672 164.529 145.672C155.1 145.672 147.439 149.443 147.439 154.158C147.439 154.511 147.498 154.865 147.557 155.159C148.559 150.975 155.748 147.734 164.529 147.734Z" fill="#DBDBDB"/>
<path d="M181.5 156.868L181.088 155.218C180.086 151.152 172.955 148.088 164.529 148.088C156.102 148.088 148.913 151.152 147.97 155.218L147.557 156.868L147.145 155.218C147.027 154.806 147.027 154.452 147.027 154.098C147.027 151.682 148.854 149.443 152.271 147.734C155.571 146.084 159.932 145.2 164.529 145.2C169.125 145.2 173.545 146.084 176.786 147.734C180.145 149.384 182.03 151.682 182.03 154.098C182.03 154.452 181.972 154.806 181.913 155.218L181.5 156.868ZM164.529 147.322C172.189 147.322 178.789 149.856 181.147 153.391C180.322 149.325 173.191 146.143 164.529 146.143C155.866 146.143 148.736 149.325 147.911 153.391C150.209 149.797 156.868 147.322 164.529 147.322Z" fill="#323A50"/>
<path d="M164.941 141.429C143.432 141.429 125.989 150.622 125.989 161.936C125.989 173.25 143.432 182.443 164.941 182.443C186.45 182.443 203.893 173.25 203.893 161.936C203.893 150.622 186.45 141.429 164.941 141.429ZM181.618 154.275C181.618 154.334 181.677 154.393 181.677 154.393C181.677 154.452 181.677 154.511 181.677 154.57C180.97 158.813 173.604 162.172 164.646 162.172C155.925 162.172 148.677 158.989 147.675 154.923C147.675 154.806 147.616 154.688 147.616 154.57C147.616 154.511 147.616 154.452 147.616 154.393C147.616 154.334 147.616 154.216 147.616 154.216C147.616 154.098 147.616 154.039 147.616 153.804C147.616 153.804 147.616 153.568 147.616 153.45C147.675 152.861 147.852 152.389 148.146 151.859C148.382 151.329 148.795 150.857 149.266 150.386H149.325C152.095 147.616 157.987 145.73 164.764 145.73C174.193 145.73 181.912 149.443 181.912 153.98H181.736C181.618 154.039 181.618 154.157 181.618 154.275Z" fill="#DBDBDB"/>
<path d="M164.941 182.796C154.452 182.796 144.611 180.675 137.186 176.727C129.702 172.778 125.577 167.534 125.577 161.877C125.577 156.219 129.702 150.975 137.186 147.027C144.611 143.137 154.452 140.957 164.941 140.957C175.43 140.957 185.271 143.078 192.696 147.027C200.18 150.975 204.305 156.219 204.305 161.877C204.305 167.534 200.18 172.778 192.696 176.727C185.271 180.616 175.43 182.796 164.941 182.796ZM164.941 141.841C143.668 141.841 126.402 150.857 126.402 161.936C126.402 173.014 143.668 182.03 164.941 182.03C186.214 182.03 203.48 173.014 203.48 161.936C203.48 150.857 186.214 141.841 164.941 141.841ZM164.587 162.584C155.748 162.584 148.323 159.343 147.203 154.982C147.203 154.864 147.145 154.746 147.145 154.628C147.145 154.57 147.145 154.511 147.086 154.452C147.086 154.393 147.086 154.334 147.086 154.334V154.275C147.086 154.157 147.086 154.039 147.086 153.803V153.391C147.145 152.802 147.321 152.271 147.675 151.623C147.911 151.093 148.323 150.621 148.853 150.032L148.912 149.973C151.859 147.027 157.87 145.2 164.587 145.2C169.184 145.2 173.603 146.084 176.903 147.675C180.321 149.325 182.148 151.505 182.148 153.862V154.275H182.03C182.03 154.334 182.03 154.334 182.03 154.393C182.03 154.452 182.03 154.511 182.03 154.57C181.264 159.166 173.78 162.584 164.587 162.584ZM147.911 153.803C147.911 153.98 147.911 154.039 147.911 154.157C147.911 154.157 147.911 154.216 147.911 154.275C147.911 154.334 147.911 154.334 147.911 154.393C147.911 154.452 147.911 154.511 147.911 154.57C147.911 154.687 147.97 154.746 147.97 154.864C148.971 158.812 156.102 161.818 164.528 161.818C173.191 161.818 180.498 158.636 181.146 154.57V154.511C181.146 154.452 181.087 154.393 181.146 154.334V154.275C181.146 154.216 181.146 154.157 181.146 154.039V153.627H181.323C181.146 151.741 179.437 149.914 176.55 148.559C173.368 147.027 169.125 146.202 164.587 146.202C158.164 146.202 152.212 147.97 149.443 150.739L149.384 150.798C148.912 151.27 148.618 151.682 148.382 152.095C148.146 152.625 147.97 153.096 147.911 153.568C147.911 153.627 147.911 153.803 147.911 153.803Z" fill="#323A50"/>
<path d="M165.413 137.775C179.472 137.775 190.87 134.688 190.87 130.88C190.87 127.072 179.472 123.985 165.413 123.985C151.353 123.985 139.956 127.072 139.956 130.88C139.956 134.688 151.353 137.775 165.413 137.775Z" fill="white"/>
<path d="M165.413 138.188C152.684 138.188 139.543 135.477 139.543 130.94C139.543 126.402 152.684 123.691 165.413 123.691C178.141 123.691 191.282 126.402 191.282 130.94C191.282 135.477 178.141 138.188 165.413 138.188ZM165.413 124.457C150.386 124.457 140.368 127.816 140.368 130.94C140.368 134.063 150.445 137.422 165.413 137.422C180.439 137.422 190.457 134.063 190.457 130.94C190.457 127.816 180.439 124.457 165.413 124.457Z" fill="#323A50"/>
<path d="M127.581 108.252C128.818 105.836 130.822 96.6431 136.597 91.6931C140.368 88.452 146.791 86.6842 151.977 90.8092C157.693 95.4056 159.932 101.829 157.634 109.666C155.984 115.382 152.802 122.454 150.15 125.459" fill="white"/>
<path d="M150.445 125.636L149.914 125.341C152.684 122.218 155.866 114.852 157.398 109.548C159.579 102.123 157.634 95.6999 151.8 91.0445C146.85 87.0374 140.545 88.6874 136.773 91.9285C132.354 95.6999 130.173 101.946 128.818 105.718C128.405 106.896 128.111 107.78 127.816 108.37L127.286 108.134C127.521 107.603 127.875 106.661 128.287 105.541C129.643 101.711 131.882 95.3463 136.42 91.457C140.368 88.0981 146.968 86.3892 152.212 90.5731C158.223 95.4053 160.227 102.064 157.987 109.725C156.455 115.087 153.273 122.453 150.445 125.636Z" fill="#323A50"/>
<path d="M143.845 135.241C143.727 135.241 143.668 135.241 143.55 135.241C142.548 135.064 141.606 134.003 140.604 132.412L140.663 132.294C141.488 133.532 142.784 134.475 143.668 134.651C144.022 134.71 144.316 134.651 144.611 134.416C145.082 134.062 145.848 132.766 146.143 130.526C146.497 127.934 146.261 122.748 141.075 116.501C137.481 112.2 133.827 110.314 131.411 109.489C128.582 108.546 126.284 108.605 125.341 109.076C124.752 109.371 124.045 110.137 124.045 110.903C124.045 111.375 124.222 111.787 124.693 112.082C124.87 112.2 124.988 112.2 125.164 112.141C125.931 111.905 126.638 110.137 126.932 109.43L127.522 109.666C126.932 111.08 126.225 112.435 125.341 112.73C124.988 112.848 124.693 112.789 124.339 112.553C123.514 112.023 123.338 111.316 123.397 110.844C123.456 109.842 124.281 108.9 125.047 108.546C127.168 107.485 134.947 108.134 141.547 116.089C146.85 122.453 147.086 127.933 146.732 130.585C146.438 132.883 145.613 134.475 144.964 134.946C144.611 135.123 144.198 135.241 143.845 135.241Z" fill="#323A50"/>
<path d="M144.139 134.062L143.786 133.591C144.198 133.296 144.846 132.176 145.082 130.232C145.377 127.875 145.141 122.984 140.191 117.032C135.889 111.846 130.704 109.901 127.286 109.784V109.194C130.821 109.312 136.184 111.316 140.662 116.678C145.73 122.807 146.025 127.875 145.671 130.35C145.495 132.353 144.729 133.65 144.139 134.062Z" fill="#323A50"/>
<path d="M148.971 126.049L148.5 125.636C150.975 122.749 154.334 115.913 156.102 110.138C158.4 102.654 156.75 96.5843 151.211 91.9878C146.791 88.3343 140.78 89.7486 137.186 92.9896C133.061 96.7021 131.057 102.536 129.878 106.013C129.525 107.074 129.23 107.957 128.936 108.547L128.405 108.311C128.641 107.781 128.936 106.897 129.348 105.895C130.586 102.359 132.648 96.4664 136.832 92.6361C140.662 89.2182 146.968 87.745 151.682 91.6343C157.457 96.4075 159.166 102.713 156.75 110.491C154.923 116.207 151.505 123.102 148.971 126.049Z" fill="#323A50"/>
<path d="M127.875 109.548C126.284 109.43 125.636 109.607 125.047 110.314C124.457 111.022 124.163 112.377 125.459 112.73C126.402 113.025 127.58 112.023 128.347 109.666" fill="#DBDBDB"/>
<path d="M125.754 113.084C125.636 113.084 125.518 113.084 125.341 113.025C124.693 112.848 124.398 112.377 124.339 112.023C124.163 111.316 124.457 110.55 124.811 110.079C125.459 109.254 126.225 109.018 127.934 109.195L127.875 109.784C126.284 109.666 125.754 109.843 125.282 110.432C124.988 110.786 124.752 111.375 124.929 111.847C124.988 112.141 125.223 112.318 125.577 112.436C126.284 112.672 127.345 111.729 128.052 109.548L128.641 109.725C127.816 112.082 126.697 113.084 125.754 113.084Z" fill="#323A50"/>
<path opacity="0.2" d="M126.579 110.078C127.816 107.427 129.879 97.4677 135.83 92.0463C139.72 88.5106 146.496 86.2124 151.859 90.7499C157.693 95.7588 159.991 101.828 157.634 110.314C155.925 116.561 151.388 124.045 148.618 127.286" fill="url(#paint13_linear_3618_18519)"/>
<path d="M169.891 87.7451L171.305 83.7969L159.991 86.5665L159.932 86.6254L166.65 96.4665L168.064 92.6362L169.891 87.7451Z" fill="#FF4200"/>
<path d="M180.204 109.784L174.959 108.959C174.959 108.959 175.489 105.482 174.723 101.652C173.78 96.9377 171.423 93.8734 167.652 92.4002L169.596 87.4502C175.136 89.5716 178.73 94.227 180.027 100.827C180.911 105.541 180.263 109.666 180.204 109.784Z" fill="#FF4200"/>
<path opacity="0.3" d="M165.943 295.173C165.884 295.173 165.825 295.173 165.825 295.173C152.154 295.173 138.541 291.343 126.52 284.213H126.461L125.872 283.623C110.845 274.902 99.5305 261.289 93.1662 244.318C90.6323 237.777 89.1001 230.706 88.4519 222.809C88.2751 219.097 88.2751 215.679 88.4519 211.966C88.6287 208.313 89.1591 204.659 90.1019 200.298C91.0448 195.879 92.4591 191.518 94.5216 186.804L95.2876 187.157C93.2841 191.754 91.8698 196.114 90.9269 200.475C89.9841 204.777 89.5126 208.431 89.2769 212.025C89.1001 215.679 89.1001 219.097 89.2769 222.809C89.9251 230.588 91.4573 237.6 93.9323 244.082C100.238 260.936 111.434 274.372 126.343 282.975H126.402L126.991 283.564C151.27 297.884 180.381 298.002 204.777 283.741C205.955 282.975 207.193 282.091 208.666 281.325C221.572 273.016 231.295 261.172 237.423 246.086C237.718 245.379 237.954 244.613 238.248 243.847C238.484 243.081 238.779 242.314 239.073 241.607C243.788 227.347 244.318 212.732 240.664 198.236V198.177C240.547 197.588 238.13 190.163 236.657 186.804L237.423 186.45C238.779 189.632 241.254 196.998 241.431 198C245.084 212.614 244.554 227.406 239.781 241.843V241.902C239.486 242.609 239.25 243.375 239.014 244.082C238.779 244.848 238.484 245.614 238.189 246.381C231.943 261.643 222.161 273.606 209.079 282.032C207.664 282.857 206.427 283.682 205.248 284.448C193.109 291.461 179.555 295.173 165.943 295.173Z" fill="#323A50"/>
<path d="M262.821 189.809C260.994 183.563 255.985 179.379 248.03 177.257C243.493 176.079 239.191 175.961 237.364 175.961C237.305 175.725 237.187 175.489 237.01 175.313C238.602 175.254 243.198 175.313 248.148 176.609C256.221 178.73 261.525 183.209 263.41 189.573C263.823 190.398 275.432 214.854 276.846 229.173C277.259 232.945 280.264 233.77 285.862 235.302C290.459 236.539 296.764 238.248 304.66 242.491L304.366 243.081C296.587 238.897 290.282 237.188 285.744 235.95C280.087 234.418 276.669 233.475 276.257 229.232C275.078 217.564 267.064 199.061 264 192.343C264.177 197.293 260.759 204.129 253.687 212.732C246.969 220.982 237.01 230.823 224.046 242.138C219.273 246.322 214.382 250.329 209.727 254.159L208.96 253.923C213.675 250.152 218.684 245.909 223.575 241.666C252.685 216.327 266.239 198.472 262.821 189.809Z" fill="#323A50"/>
<path d="M239.368 182.09C239.309 181.618 238.72 179.32 238.543 178.908C238.602 178.672 239.486 180.086 239.427 179.91C239.427 179.438 239.132 178.967 238.72 178.672C238.778 178.201 238.778 177.965 238.307 177.67C238.366 177.493 237.836 177.435 237.777 177.258C238.602 178.672 239.603 180.499 239.898 182.031C241.195 189.161 230.411 205.956 207.723 232.061C202.714 237.836 197.646 243.493 193.05 248.385L192.343 248.149C212.673 226.11 241.077 192.933 239.368 182.09Z" fill="#323A50"/>
<path d="M237.128 175.312C237.246 175.43 237.305 175.548 237.423 175.666L241.666 175.489C239.721 175.313 238.071 175.312 237.128 175.312Z" fill="#323A50"/>
<path d="M238.248 177.375L249.15 176.903C248.738 176.786 248.325 176.668 247.854 176.55L238.13 176.962C238.13 177.08 238.189 177.198 238.248 177.375Z" fill="#323A50"/>
<path d="M238.661 179.025L253.098 178.436C252.862 178.318 252.568 178.2 252.273 178.082L238.484 178.612C238.484 178.671 238.484 178.73 238.484 178.789C238.602 178.848 238.602 178.966 238.661 179.025Z" fill="#323A50"/>
<path d="M239.368 180.734L256.044 180.085C255.868 179.967 255.632 179.85 255.455 179.673L239.309 180.321C239.25 180.439 239.309 180.616 239.368 180.734Z" fill="#323A50"/>
<path d="M239.486 182.325L257.93 181.559C257.813 181.441 257.636 181.323 257.459 181.146L239.486 181.854C239.486 182.03 239.486 182.148 239.486 182.325Z" fill="#323A50"/>
<path d="M239.544 184.034L259.639 183.209C259.521 183.092 259.403 182.974 259.286 182.797L239.603 183.563C239.603 183.74 239.603 183.917 239.544 184.034Z" fill="#323A50"/>
<path d="M239.309 185.448C239.25 185.566 239.25 185.683 239.191 185.801L260.877 184.917C260.818 184.8 260.7 184.682 260.582 184.505L239.309 185.389C239.368 185.389 239.368 185.389 239.309 185.448Z" fill="#323A50"/>
<path d="M238.779 187.275C238.779 187.334 238.72 187.452 238.72 187.511L261.938 186.568C261.879 186.45 261.82 186.332 261.702 186.155L238.838 187.098C238.838 187.157 238.779 187.216 238.779 187.275Z" fill="#323A50"/>
<path d="M238.13 188.807L262.527 187.806C262.586 187.924 262.645 188.041 262.704 188.218L237.954 189.22C238.013 189.102 238.071 188.925 238.13 188.807Z" fill="#323A50"/>
<path d="M237.364 190.575L263.116 189.515C263.175 189.633 263.175 189.75 263.234 189.927L237.128 190.988C237.246 190.811 237.305 190.693 237.364 190.575Z" fill="#323A50"/>
<path d="M236.598 192.284L263.587 191.164C263.587 191.282 263.646 191.4 263.646 191.577L236.421 192.696C236.421 192.578 236.48 192.402 236.598 192.284Z" fill="#323A50"/>
<path d="M235.655 194.052L263.646 192.933C263.646 193.05 263.646 193.168 263.646 193.345L235.419 194.465C235.478 194.347 235.596 194.17 235.655 194.052Z" fill="#323A50"/>
<path d="M234.771 195.642L263.529 194.464C263.529 194.582 263.47 194.7 263.47 194.876L234.536 196.055C234.595 195.937 234.654 195.819 234.771 195.642Z" fill="#323A50"/>
<path d="M233.711 197.411L263.175 196.232C263.116 196.35 263.116 196.468 263.057 196.645L233.475 197.823C233.534 197.706 233.652 197.588 233.711 197.411Z" fill="#323A50"/>
<path d="M232.65 199.179L262.644 197.941C262.585 198.059 262.527 198.236 262.468 198.354L232.414 199.591C232.473 199.474 232.532 199.297 232.65 199.179Z" fill="#323A50"/>
<path d="M231.53 200.946L261.937 199.709C261.878 199.827 261.819 200.004 261.761 200.121L231.294 201.359C231.294 201.241 231.412 201.064 231.53 200.946Z" fill="#323A50"/>
<path d="M230.411 202.597L261.113 201.359C261.054 201.477 260.995 201.654 260.877 201.772L230.116 203.009C230.175 202.892 230.293 202.774 230.411 202.597Z" fill="#323A50"/>
<path d="M229.173 204.365L260.17 203.127C260.111 203.245 259.993 203.422 259.934 203.539L228.938 204.777C228.996 204.659 229.055 204.541 229.173 204.365Z" fill="#323A50"/>
<path d="M227.935 206.132L259.109 204.895C259.05 205.012 258.932 205.189 258.873 205.307L227.7 206.545C227.759 206.427 227.876 206.25 227.935 206.132Z" fill="#323A50"/>
<path d="M226.698 207.9L257.989 206.662C257.871 206.78 257.812 206.957 257.694 207.075L226.403 208.312C226.462 208.194 226.58 208.076 226.698 207.9Z" fill="#323A50"/>
<path d="M225.461 209.55L256.811 208.312C256.693 208.43 256.634 208.607 256.516 208.725L225.166 209.963C225.284 209.786 225.343 209.668 225.461 209.55Z" fill="#323A50"/>
<path d="M224.164 211.318L255.573 210.08C255.455 210.198 255.396 210.375 255.219 210.493L223.811 211.73C223.928 211.612 224.046 211.435 224.164 211.318Z" fill="#323A50"/>
<path d="M222.809 213.086L254.159 211.849C254.041 211.966 253.923 212.143 253.805 212.261L222.455 213.499C222.573 213.322 222.691 213.204 222.809 213.086Z" fill="#323A50"/>
<path d="M221.454 214.854L252.745 213.616C252.627 213.734 252.509 213.911 252.391 214.029L221.1 215.266C221.218 215.148 221.336 214.972 221.454 214.854Z" fill="#323A50"/>
<path d="M220.098 216.563L251.271 215.325C251.154 215.443 251.036 215.62 250.918 215.738L219.745 216.975C219.862 216.857 219.921 216.739 220.098 216.563Z" fill="#323A50"/>
<path d="M218.625 218.389L249.68 217.151C249.562 217.269 249.444 217.446 249.326 217.564L218.33 218.801C218.448 218.684 218.566 218.507 218.625 218.389Z" fill="#323A50"/>
<path d="M217.211 220.157L248.089 218.92C247.972 219.038 247.854 219.215 247.677 219.332L216.798 220.57C217.034 220.393 217.152 220.275 217.211 220.157Z" fill="#323A50"/>
<path d="M215.855 221.807L246.557 220.569C246.439 220.687 246.321 220.864 246.144 220.982L215.501 222.219C215.619 222.101 215.796 221.925 215.855 221.807Z" fill="#323A50"/>
<path d="M214.559 223.457L245.084 222.22C244.966 222.338 244.848 222.514 244.671 222.632L214.205 223.87C214.323 223.752 214.441 223.575 214.559 223.457Z" fill="#323A50"/>
<path d="M213.086 225.225L243.375 223.987C243.257 224.105 243.139 224.282 242.962 224.4L212.791 225.637C212.791 225.519 212.968 225.402 213.086 225.225Z" fill="#323A50"/>
<path d="M211.612 226.992L241.607 225.755C241.489 225.873 241.312 226.05 241.194 226.167L211.259 227.346C211.377 227.287 211.494 227.11 211.612 226.992Z" fill="#323A50"/>
<path d="M210.08 228.761L239.78 227.582C239.662 227.7 239.485 227.877 239.368 227.995L209.727 229.173C209.844 229.055 209.962 228.937 210.08 228.761Z" fill="#323A50"/>
<path d="M208.666 230.411L238.071 229.232C237.953 229.35 237.777 229.527 237.6 229.645L208.253 230.823C208.43 230.706 208.548 230.588 208.666 230.411Z" fill="#323A50"/>
<path d="M207.252 232.06L236.362 230.882C236.244 231 236.068 231.176 235.891 231.294L206.898 232.473C207.016 232.355 207.134 232.237 207.252 232.06Z" fill="#323A50"/>
<path d="M205.72 233.829L234.477 232.65C234.359 232.768 234.182 232.945 234.005 233.063L205.307 234.241C205.484 234.124 205.602 234.006 205.72 233.829Z" fill="#323A50"/>
<path d="M204.188 235.596L232.591 234.477C232.414 234.594 232.296 234.771 232.12 234.889L203.834 236.009C203.952 235.891 204.07 235.773 204.188 235.596Z" fill="#323A50"/>
<path d="M202.655 237.423L230.646 236.304C230.469 236.422 230.352 236.598 230.175 236.716L202.243 237.836C202.361 237.659 202.478 237.541 202.655 237.423Z" fill="#323A50"/>
<path d="M201.064 239.191L228.643 238.071C228.466 238.189 228.348 238.366 228.172 238.484L200.652 239.603C200.77 239.486 200.888 239.368 201.064 239.191Z" fill="#323A50"/>
<path d="M199.591 240.841L226.816 239.722C226.639 239.84 226.462 240.016 226.344 240.134L199.237 241.254C199.355 241.136 199.473 240.959 199.591 240.841Z" fill="#323A50"/>
<path d="M198 242.609L224.753 241.548C224.577 241.666 224.4 241.842 224.282 241.96L197.587 243.021C197.705 242.903 197.823 242.785 198 242.609Z" fill="#323A50"/>
<path d="M196.409 244.377L222.75 243.316C222.573 243.434 222.396 243.611 222.278 243.729L196.055 244.79C196.173 244.672 196.291 244.554 196.409 244.377Z" fill="#323A50"/>
<path d="M194.759 246.203L220.687 245.143C220.511 245.26 220.334 245.437 220.216 245.555L194.405 246.616C194.523 246.439 194.641 246.321 194.759 246.203Z" fill="#323A50"/>
<path d="M193.286 247.854L218.743 246.793C218.566 246.911 218.389 247.088 218.271 247.205L192.873 248.207C192.991 248.089 193.168 247.971 193.286 247.854Z" fill="#323A50"/>
<path d="M193.757 249.385L216.798 248.442C216.621 248.56 216.444 248.737 216.268 248.855L194.759 249.739C194.464 249.621 194.11 249.503 193.757 249.385Z" fill="#323A50"/>
<path d="M198.294 250.976L214.677 250.328C214.5 250.446 214.323 250.623 214.146 250.741L199.414 251.33C199.061 251.212 198.648 251.094 198.294 250.976Z" fill="#323A50"/>
<path d="M202.95 252.45L212.555 252.037C212.378 252.155 212.201 252.332 212.025 252.45L204.069 252.803C203.716 252.685 203.362 252.568 202.95 252.45Z" fill="#323A50"/>
<path d="M207.605 253.982L210.316 253.864C210.139 253.982 209.963 254.159 209.786 254.277L208.666 254.336C208.313 254.218 207.959 254.1 207.605 253.982Z" fill="#323A50"/>
<path d="M68.7109 189.809C70.5377 183.563 75.5466 179.379 83.5019 177.257C88.0394 176.079 92.3412 175.961 94.168 175.961C94.2269 175.725 94.3448 175.489 94.5216 175.313C92.9305 175.254 88.3341 175.313 83.3841 176.609C75.3109 178.73 70.0073 183.209 68.1216 189.573C67.7091 190.398 56.1001 214.854 54.6859 229.173C54.2734 232.945 51.268 233.77 45.6698 235.302C41.0734 236.539 34.768 238.248 26.8716 242.491L27.1662 243.081C34.9448 238.897 41.2502 237.188 45.7877 235.95C51.4448 234.418 54.8626 233.475 55.2751 229.232C56.4537 217.564 64.468 199.061 67.5323 192.343C67.3555 197.293 70.7734 204.129 77.8448 212.732C84.5627 220.982 94.5216 230.823 107.486 242.138C112.259 246.322 117.15 250.329 121.806 254.159L122.572 253.923C117.857 250.152 112.848 245.909 107.957 241.666C78.8466 216.327 65.293 198.472 68.7109 189.809Z" fill="#323A50"/>
<path d="M92.2236 182.09C92.2825 181.618 92.8718 179.32 93.0486 178.908C92.9897 178.672 92.1057 180.086 92.1647 179.91C92.1647 179.438 92.4593 178.967 92.8718 178.672C92.8129 178.201 92.8129 177.965 93.2843 177.67C93.2254 177.493 93.7557 177.435 93.8147 177.258C92.9897 178.672 91.9879 180.499 91.6932 182.031C90.3968 189.161 101.181 205.956 123.868 232.061C128.877 237.836 133.945 243.493 138.541 248.385L139.249 248.149C118.859 226.11 90.4557 192.933 92.2236 182.09Z" fill="#323A50"/>
<path d="M94.4623 175.312C94.3444 175.43 94.2855 175.548 94.1677 175.666L89.9248 175.489C91.8694 175.313 93.4605 175.312 94.4623 175.312Z" fill="#323A50"/>
<path d="M93.2841 177.375L82.3823 176.903C82.7948 176.786 83.2073 176.668 83.6788 176.55L93.402 176.962C93.402 177.08 93.343 177.198 93.2841 177.375Z" fill="#323A50"/>
<path d="M92.8716 179.025L78.4341 178.436C78.6698 178.318 78.9644 178.2 79.2591 178.082L93.0484 178.612C93.0484 178.671 93.0484 178.73 93.0484 178.789C92.9894 178.848 92.9305 178.966 92.8716 179.025Z" fill="#323A50"/>
<path d="M92.2232 180.734L75.5464 180.085C75.7232 179.967 75.9589 179.85 76.1357 179.673L92.2821 180.321C92.2821 180.439 92.2232 180.616 92.2232 180.734Z" fill="#323A50"/>
<path d="M92.0462 182.325L73.6016 181.559C73.7194 181.441 73.8962 181.323 74.073 181.146L92.0462 181.854C92.0462 182.03 92.0462 182.148 92.0462 182.325Z" fill="#323A50"/>
<path d="M91.9877 184.034L71.8931 183.209C72.0109 183.092 72.1288 182.974 72.2466 182.797L91.9288 183.563C91.9288 183.74 91.9288 183.917 91.9877 184.034Z" fill="#323A50"/>
<path d="M92.2231 185.448C92.2821 185.566 92.2821 185.683 92.341 185.801L70.6553 184.917C70.7142 184.8 70.8321 184.682 70.9499 184.505L92.2231 185.389C92.2231 185.389 92.2231 185.389 92.2231 185.448Z" fill="#323A50"/>
<path d="M92.7536 187.275C92.7536 187.334 92.8126 187.452 92.8126 187.511L69.5947 186.568C69.6537 186.45 69.7126 186.332 69.8304 186.155L92.6947 187.098C92.7536 187.157 92.7536 187.216 92.7536 187.275Z" fill="#323A50"/>
<path d="M93.4018 188.807L69.0054 187.806C68.9465 187.924 68.8875 188.041 68.8286 188.218L93.5786 189.22C93.5197 189.102 93.4608 188.925 93.4018 188.807Z" fill="#323A50"/>
<path d="M94.168 190.575L68.4162 189.515C68.3573 189.633 68.3573 189.75 68.2983 189.927L94.4037 190.988C94.2859 190.811 94.2269 190.693 94.168 190.575Z" fill="#323A50"/>
<path d="M94.9931 192.284L68.0038 191.164C68.0038 191.282 67.9448 191.4 67.9448 191.577L95.1698 192.696C95.1109 192.578 95.052 192.402 94.9931 192.284Z" fill="#323A50"/>
<path d="M95.8768 194.052L67.8857 192.933C67.8857 193.05 67.8857 193.168 67.8857 193.345L96.1125 194.465C96.0536 194.347 95.9947 194.17 95.8768 194.052Z" fill="#323A50"/>
<path d="M96.8195 195.642L68.0034 194.464C68.0034 194.582 68.0624 194.7 68.0624 194.876L96.9963 196.055C96.9374 195.937 96.8784 195.819 96.8195 195.642Z" fill="#323A50"/>
<path d="M97.8212 197.411L68.3569 196.232C68.4159 196.35 68.4159 196.468 68.4748 196.645L98.0569 197.823C97.998 197.706 97.9391 197.588 97.8212 197.411Z" fill="#323A50"/>
<path d="M98.8823 199.179L68.8877 197.941C68.9466 198.059 69.0056 198.236 69.0645 198.354L99.1181 199.591C99.0591 199.474 99.0002 199.297 98.8823 199.179Z" fill="#323A50"/>
<path d="M100.061 200.946L69.6538 199.709C69.7127 199.827 69.7717 200.004 69.8306 200.121L100.297 201.359C100.238 201.241 100.12 201.064 100.061 200.946Z" fill="#323A50"/>
<path d="M101.18 202.597L70.4785 201.359C70.5374 201.477 70.5964 201.654 70.7142 201.772L101.475 203.009C101.357 202.892 101.239 202.774 101.18 202.597Z" fill="#323A50"/>
<path d="M102.359 204.365L71.3623 203.127C71.4212 203.245 71.5391 203.422 71.598 203.539L102.594 204.777C102.594 204.659 102.477 204.541 102.359 204.365Z" fill="#323A50"/>
<path d="M103.597 206.132L72.4233 204.895C72.4823 205.012 72.6001 205.189 72.6591 205.307L103.832 206.545C103.773 206.427 103.714 206.25 103.597 206.132Z" fill="#323A50"/>
<path d="M104.893 207.9L73.6016 206.662C73.7194 206.78 73.7783 206.957 73.8962 207.075L105.187 208.312C105.069 208.194 104.952 208.076 104.893 207.9Z" fill="#323A50"/>
<path d="M106.072 209.55L74.7217 208.312C74.8395 208.43 74.8985 208.607 75.0163 208.725L106.366 209.963C106.307 209.786 106.19 209.668 106.072 209.55Z" fill="#323A50"/>
<path d="M107.427 211.318L76.0181 210.08C76.1359 210.198 76.1949 210.375 76.3716 210.493L107.781 211.73C107.604 211.612 107.486 211.435 107.427 211.318Z" fill="#323A50"/>
<path d="M108.723 213.085L77.373 211.789C77.4909 211.907 77.6088 212.084 77.7266 212.202L109.077 213.439C108.959 213.321 108.841 213.203 108.723 213.085Z" fill="#323A50"/>
<path d="M110.138 214.854L78.8467 213.616C78.9645 213.734 79.0824 213.911 79.2003 214.029L110.491 215.266C110.315 215.148 110.197 214.972 110.138 214.854Z" fill="#323A50"/>
<path d="M111.493 216.563L80.3198 215.325C80.4377 215.443 80.5555 215.62 80.6734 215.738L111.847 216.975C111.729 216.857 111.611 216.739 111.493 216.563Z" fill="#323A50"/>
<path d="M112.907 218.389L81.8516 217.151C81.9694 217.269 82.0873 217.446 82.2051 217.564L113.202 218.801C113.143 218.684 113.025 218.507 112.907 218.389Z" fill="#323A50"/>
<path d="M114.321 220.157L83.4429 218.92C83.5607 219.038 83.6786 219.215 83.8554 219.332L114.734 220.57C114.557 220.393 114.439 220.275 114.321 220.157Z" fill="#323A50"/>
<path d="M115.677 221.807L84.9751 220.569C85.093 220.687 85.2108 220.864 85.3876 220.982L116.03 222.219C115.913 222.101 115.795 221.925 115.677 221.807Z" fill="#323A50"/>
<path d="M116.973 223.457L86.4482 222.22C86.5661 222.338 86.6839 222.514 86.8607 222.632L117.327 223.87C117.268 223.752 117.15 223.575 116.973 223.457Z" fill="#323A50"/>
<path d="M118.506 225.225L88.2163 223.987C88.3342 224.105 88.452 224.282 88.6288 224.4L118.8 225.637C118.741 225.519 118.623 225.402 118.506 225.225Z" fill="#323A50"/>
<path d="M119.979 226.992L89.9839 225.755C90.1017 225.873 90.2785 226.05 90.3964 226.167L120.332 227.346C120.214 227.287 120.096 227.11 119.979 226.992Z" fill="#323A50"/>
<path d="M121.452 228.761L91.752 227.582C91.8698 227.7 92.0466 227.877 92.1644 227.995L121.806 229.173C121.688 229.055 121.57 228.937 121.452 228.761Z" fill="#323A50"/>
<path d="M122.866 230.411L93.4609 229.232C93.5788 229.35 93.7556 229.527 93.9324 229.645L123.279 230.823C123.102 230.706 122.984 230.588 122.866 230.411Z" fill="#323A50"/>
<path d="M124.28 232.06L95.1694 230.882C95.2873 231 95.4641 231.176 95.6409 231.294L124.634 232.473C124.516 232.355 124.398 232.237 124.28 232.06Z" fill="#323A50"/>
<path d="M125.812 233.829L97.0552 232.65C97.173 232.768 97.3498 232.945 97.5266 233.063L126.225 234.241C126.048 234.124 125.93 234.006 125.812 233.829Z" fill="#323A50"/>
<path d="M127.344 235.596L98.9409 234.477C99.1177 234.594 99.2356 234.771 99.4124 234.889L127.698 236.009C127.58 235.891 127.462 235.773 127.344 235.596Z" fill="#323A50"/>
<path d="M128.936 237.423L100.945 236.304C101.122 236.422 101.239 236.598 101.416 236.716L129.348 237.836C129.172 237.659 129.054 237.541 128.936 237.423Z" fill="#323A50"/>
<path d="M130.527 239.191L102.948 238.071C103.125 238.189 103.243 238.366 103.42 238.484L130.939 239.603C130.763 239.486 130.645 239.368 130.527 239.191Z" fill="#323A50"/>
<path d="M132 240.841L104.775 239.722C104.952 239.84 105.128 240.016 105.246 240.134L132.353 241.254C132.236 241.136 132.118 240.959 132 240.841Z" fill="#323A50"/>
<path d="M133.591 242.609L106.837 241.548C107.014 241.666 107.191 241.842 107.309 241.96L134.003 243.021C133.827 242.903 133.709 242.785 133.591 242.609Z" fill="#323A50"/>
<path d="M135.182 244.377L108.841 243.316C109.018 243.434 109.195 243.611 109.313 243.729L135.536 244.79C135.418 244.672 135.3 244.554 135.182 244.377Z" fill="#323A50"/>
<path d="M136.773 246.203L110.845 245.143C111.022 245.26 111.198 245.437 111.316 245.555L137.127 246.616C137.009 246.439 136.891 246.321 136.773 246.203Z" fill="#323A50"/>
<path d="M138.246 247.854L112.789 246.793C112.966 246.911 113.143 247.088 113.261 247.205L138.659 248.207C138.541 248.089 138.423 247.971 138.246 247.854Z" fill="#323A50"/>
<path d="M137.834 249.385L114.793 248.442C114.97 248.56 115.147 248.737 115.323 248.855L136.832 249.739C137.127 249.621 137.48 249.503 137.834 249.385Z" fill="#323A50"/>
<path d="M133.238 250.976L116.855 250.328C117.032 250.446 117.209 250.623 117.386 250.741L132.118 251.33C132.53 251.212 132.884 251.094 133.238 250.976Z" fill="#323A50"/>
<path d="M128.582 252.45L118.977 252.037C119.153 252.155 119.33 252.332 119.507 252.45L127.462 252.803C127.816 252.685 128.228 252.568 128.582 252.45Z" fill="#323A50"/>
<path d="M123.927 253.982L121.216 253.864C121.393 253.982 121.57 254.159 121.747 254.277L122.866 254.336C123.279 254.218 123.573 254.1 123.927 253.982Z" fill="#323A50"/>
</g>
<defs>
<linearGradient id="paint0_linear_3618_18519" x1="270.398" y1="225.882" x2="68.8976" y2="78.5027" gradientUnits="userSpaceOnUse">
<stop offset="0.2655" stop-color="#032A3D" stop-opacity="0"/>
<stop offset="0.7809" stop-color="#032A3D"/>
</linearGradient>
<radialGradient id="paint1_radial_3618_18519" cx="0" cy="0" r="1" gradientUnits="userSpaceOnUse" gradientTransform="translate(165.435 218.198) scale(68.1337 67.8191)">
<stop offset="0.2655" stop-color="#032A3D" stop-opacity="0"/>
<stop offset="1" stop-color="#032A3D"/>
</radialGradient>
<linearGradient id="paint2_linear_3618_18519" x1="138.678" y1="110.561" x2="188.727" y2="307.032" gradientUnits="userSpaceOnUse">
<stop offset="0.4054" stop-color="#032A3D" stop-opacity="0"/>
<stop offset="1" stop-color="#032A3D"/>
</linearGradient>
<linearGradient id="paint3_linear_3618_18519" x1="102.582" y1="177.753" x2="234.227" y2="301.247" gradientUnits="userSpaceOnUse">
<stop offset="0.2655" stop-color="#032A3D" stop-opacity="0"/>
<stop offset="0.7809" stop-color="#032A3D"/>
</linearGradient>
<linearGradient id="paint4_linear_3618_18519" x1="109.789" y1="170.071" x2="241.434" y2="293.564" gradientUnits="userSpaceOnUse">
<stop offset="0.2655" stop-color="#032A3D" stop-opacity="0"/>
<stop offset="0.7809" stop-color="#032A3D"/>
</linearGradient>
<linearGradient id="paint5_linear_3618_18519" x1="107.251" y1="172.777" x2="238.896" y2="296.27" gradientUnits="userSpaceOnUse">
<stop offset="0.2655" stop-color="#032A3D" stop-opacity="0"/>
<stop offset="0.7809" stop-color="#032A3D"/>
</linearGradient>
<linearGradient id="paint6_linear_3618_18519" x1="82.1745" y1="199.508" x2="213.819" y2="323.001" gradientUnits="userSpaceOnUse">
<stop offset="0.2655" stop-color="#032A3D" stop-opacity="0"/>
<stop offset="0.7809" stop-color="#032A3D"/>
</linearGradient>
<linearGradient id="paint7_linear_3618_18519" x1="100.938" y1="179.507" x2="232.582" y2="303" gradientUnits="userSpaceOnUse">
<stop offset="0.2655" stop-color="#032A3D" stop-opacity="0"/>
<stop offset="0.7809" stop-color="#032A3D"/>
</linearGradient>
<linearGradient id="paint8_linear_3618_18519" x1="90.5956" y1="190.532" x2="222.24" y2="314.025" gradientUnits="userSpaceOnUse">
<stop offset="0.2655" stop-color="#032A3D" stop-opacity="0"/>
<stop offset="0.7809" stop-color="#032A3D"/>
</linearGradient>
<linearGradient id="paint9_linear_3618_18519" x1="72.018" y1="210.335" x2="203.662" y2="333.828" gradientUnits="userSpaceOnUse">
<stop offset="0.2655" stop-color="#032A3D" stop-opacity="0"/>
<stop offset="0.7809" stop-color="#032A3D"/>
</linearGradient>
<linearGradient id="paint10_linear_3618_18519" x1="75.1001" y1="207.05" x2="206.745" y2="330.543" gradientUnits="userSpaceOnUse">
<stop offset="0.2655" stop-color="#032A3D" stop-opacity="0"/>
<stop offset="0.7809" stop-color="#032A3D"/>
</linearGradient>
<linearGradient id="paint11_linear_3618_18519" x1="85.4554" y1="196.011" x2="217.1" y2="319.504" gradientUnits="userSpaceOnUse">
<stop offset="0.2655" stop-color="#032A3D" stop-opacity="0"/>
<stop offset="0.7809" stop-color="#032A3D"/>
</linearGradient>
<linearGradient id="paint12_linear_3618_18519" x1="71.9896" y1="210.366" x2="203.634" y2="333.859" gradientUnits="userSpaceOnUse">
<stop offset="0.2655" stop-color="#032A3D" stop-opacity="0"/>
<stop offset="0.7809" stop-color="#032A3D"/>
</linearGradient>
<linearGradient id="paint13_linear_3618_18519" x1="141.573" y1="121.009" x2="148.904" y2="23.9858" gradientUnits="userSpaceOnUse">
<stop offset="0.1682" stop-color="#032A3D" stop-opacity="0"/>
<stop offset="0.3294" stop-color="#032A3D"/>
</linearGradient>
<clipPath id="clip0_3618_18519">
<rect width="330" height="330" fill="white"/>
</clipPath>
</defs>
</svg>
