<svg width="330" height="330" viewBox="0 0 330 330" fill="none" xmlns="http://www.w3.org/2000/svg">
<g clip-path="url(#clip0_3618_8436)">
<path d="M165.707 301.537C161.229 301.537 156.691 301.184 152.33 300.477C143.609 299.004 139.602 297.648 136.596 296.352C120.863 290.459 107.309 280.088 97.5857 266.298C87.6268 252.214 82.3232 235.538 82.3232 218.213C82.3232 206.132 84.8572 194.523 89.8072 183.68C94.5804 173.191 101.416 163.939 110.02 156.161L111.67 154.452C117.032 148.912 117.209 148.736 119.92 145.671L120.391 145.141C123.75 141.311 130.821 133.296 140.545 126.932C141.429 126.343 142.548 125.754 144.139 125.282C144.257 125.223 149.384 123.986 151.152 123.632C155.866 122.925 160.345 122.571 165.059 122.63C176.963 122.689 186.45 124.339 190.988 127.109C200.121 132.707 206.663 140.25 210.139 144.316C210.552 144.846 210.964 145.259 211.318 145.671C213.38 148.029 214.029 148.677 216.563 151.27C217.564 152.271 218.802 153.568 220.57 155.395C229.409 163.173 236.421 172.484 241.371 183.15C246.498 194.17 249.091 205.955 249.091 218.213C249.091 229.468 246.911 240.37 242.55 250.682C238.366 260.641 232.355 269.539 224.695 277.2C217.034 284.861 208.136 290.871 198.177 295.055C187.923 299.357 176.963 301.537 165.707 301.537ZM151.741 124.398C149.384 124.693 144.846 125.93 144.611 125.989C143.079 126.461 141.841 126.991 141.016 127.58C131.352 133.886 124.398 141.841 121.039 145.671L120.568 146.202C117.857 149.266 117.621 149.502 112.259 155.041L110.55 156.809C93.1072 172.484 83.0893 194.877 83.0893 218.271C83.0893 252.568 104.716 283.682 136.832 295.645C139.838 296.941 143.786 298.296 152.389 299.711C156.75 300.418 161.229 300.771 165.648 300.771C211.2 300.771 248.207 263.705 248.207 218.154C248.207 194.346 237.895 171.659 219.98 155.984C218.213 154.157 216.975 152.861 215.973 151.859C213.38 149.207 212.791 148.559 210.67 146.202C210.316 145.789 209.904 145.318 209.491 144.846C206.014 140.839 199.591 133.355 190.575 127.816C186.096 125.105 176.904 123.514 165.177 123.455C160.639 123.396 155.866 123.75 151.741 124.398Z" fill="#323A50"/>
<path opacity="0.2" d="M207.959 154.982C210.905 153.332 212.496 152.213 209.491 148.736C204.364 142.902 192.343 124.398 169.066 124.222L166.179 124.045H165.354H164.057C140.78 124.045 126.814 142.784 121.688 148.618C118.623 152.095 121.039 154.157 122.454 155.218C128.464 151.388 133.886 148.382 140.957 146.084C141.193 146.025 150.032 141.841 164.941 141.665C165 141.665 175.077 141.606 184.564 144.552C196.114 147.616 201.713 151.447 207.959 154.982Z" fill="url(#paint0_linear_3618_8436)"/>
<path opacity="0.2" d="M165.354 286.275C203.009 286.275 233.534 255.882 233.534 218.39C233.534 180.897 203.009 150.504 165.354 150.504C127.699 150.504 97.1733 180.897 97.1733 218.39C97.1733 255.882 127.699 286.275 165.354 286.275Z" fill="url(#paint1_radial_3618_8436)"/>
<path opacity="0.34" d="M236.834 186.745C236.775 186.568 236.716 186.391 236.598 186.273C236.363 186.745 235.95 187.157 235.42 187.511C234.005 188.336 231.825 187.923 231.118 186.391C230.705 185.566 230.293 184.8 229.763 184.034C229.527 183.621 229.232 183.268 228.938 182.855C228.82 182.679 228.82 182.679 228.938 182.855C228.879 182.796 228.82 182.679 228.702 182.62C228.584 182.443 228.407 182.266 228.289 182.089C227.052 180.675 225.579 179.261 224.341 178.436C223.575 177.905 222.809 177.434 221.984 177.021C221.748 176.904 221.513 176.786 221.277 176.668C221.218 176.668 221.218 176.668 221.218 176.609C220.805 176.432 220.393 176.314 219.921 176.196C219.45 176.079 218.979 175.961 218.507 175.902L217.8 175.784C217.623 175.784 217.505 175.725 217.329 175.725C216.209 175.607 215.089 175.607 214.029 175.607C209.963 175.725 206.486 176.373 202.479 176.845C198.354 177.316 194.17 177.67 189.986 177.964C181.795 178.554 173.663 179.555 165.413 179.673C161.346 179.732 157.339 179.025 153.391 178.318C149.443 177.611 145.789 177.08 141.959 176.668C134.004 175.725 125.93 175.312 117.975 176.02C116.325 176.196 115.088 174.723 114.852 173.25C114.793 173.25 114.734 173.25 114.616 173.309C114.145 173.427 113.732 173.545 113.261 173.721C113.025 173.78 112.789 173.898 112.495 174.016C112.377 174.075 112.318 174.075 112.259 174.134C110.373 174.959 108.546 176.079 106.896 177.316C106.838 177.375 106.484 177.67 106.484 177.67C106.248 177.846 106.013 178.023 105.836 178.259C105.423 178.613 105.07 178.966 104.657 179.32C103.891 180.086 103.125 180.911 102.418 181.736C102.359 181.795 102.359 181.854 102.3 181.854C102.3 181.854 102.241 181.913 102.241 181.971C102.064 182.207 101.946 182.384 101.77 182.62C101.475 183.032 101.239 183.386 101.004 183.798C100.768 184.211 100.532 184.564 100.355 184.977C100.296 185.095 100.061 185.861 100.296 185.095C100.238 185.33 100.12 185.507 100.061 185.743C99.4715 187.393 97.9393 188.336 96.1715 187.923C95.5822 187.805 95.0518 187.452 94.6393 186.98C94.5804 187.098 94.6983 187.216 94.6393 187.334C90.6911 196.645 88.334 206.839 88.334 217.564C88.334 260.287 122.984 294.938 165.707 294.938C208.43 294.938 243.08 260.287 243.08 217.564C243.139 206.486 240.9 196.114 236.834 186.745Z" fill="url(#paint2_linear_3618_8436)"/>
<g opacity="0.2">
<path d="M226.286 246.145L225.814 246.086C225.52 248.443 218.625 251.684 217.152 251.92C216.563 252.038 216.209 251.861 215.856 251.743C215.325 251.507 214.854 251.331 213.911 251.861C212.379 252.804 207.016 258.638 205.838 261.466C204.659 264.354 203.952 265.886 201.241 266.947C199.768 267.536 197.529 267.536 195.172 267.536C192.991 267.536 190.752 267.536 189.043 268.007C186.45 268.714 183.916 269.893 182.738 270.482C183.386 269.775 184.034 269.009 184.623 268.361C185.684 267.123 186.627 266.004 187.216 265.591C188.041 265.002 190.811 264.707 193.757 264.413C197.764 264 202.243 263.529 203.657 262.173C205.248 260.7 207.488 255.043 209.256 250.506C210.198 248.089 211.023 246.027 211.554 245.202C212.084 244.318 213.557 243.316 215.148 242.256C217.859 240.488 220.923 238.425 220.864 235.95H220.393C220.452 238.131 217.506 240.075 214.913 241.843C213.204 242.963 211.731 243.964 211.141 244.966C210.611 245.85 209.786 247.913 208.843 250.329C207.075 254.807 204.836 260.406 203.304 261.82C202.773 262.291 201.772 262.704 200.416 262.998C201.3 262.527 202.302 261.82 203.009 260.877C204.306 259.227 205.425 255.338 206.014 253.216C206.132 252.863 206.191 252.509 206.25 252.332C206.427 251.684 206.191 251.272 205.956 250.859C205.661 250.388 205.366 249.916 205.543 248.738C205.779 247.441 206.486 246.911 207.311 246.381C207.841 246.027 208.372 245.614 208.784 244.966C209.786 243.375 209.138 241.725 208.843 240.841V240.782C208.607 240.193 208.077 240.252 207.664 240.252C207.252 240.311 207.016 240.311 206.898 240.075C206.781 239.839 207.075 239.368 207.429 238.897C207.9 238.189 208.489 237.364 208.136 236.598L207.723 236.775C207.959 237.306 207.488 237.954 207.075 238.543C206.663 239.191 206.25 239.781 206.545 240.252C206.839 240.782 207.37 240.723 207.782 240.664C208.195 240.606 208.372 240.606 208.489 240.9V240.959C208.784 241.843 209.373 243.257 208.489 244.613C208.136 245.143 207.664 245.497 207.134 245.909C206.309 246.498 205.425 247.147 205.189 248.62C204.954 249.975 205.307 250.564 205.661 251.095C205.897 251.448 206.014 251.684 205.897 252.156C205.838 252.332 205.72 252.686 205.661 253.039C205.131 254.984 204.011 258.932 202.773 260.523C201.359 262.291 198.884 263.234 198.648 263.293C197.116 263.529 195.348 263.706 193.757 263.882C190.634 264.236 187.923 264.531 187.039 265.12C186.391 265.591 185.448 266.711 184.329 268.007C182.207 270.541 179.261 273.959 177.257 273.841C176.197 273.782 175.077 273.547 173.898 273.311C171.482 272.839 168.772 272.25 165.825 272.781C159.756 273.9 157.693 275.079 156.514 276.552C155.336 277.907 154.747 279.675 154.747 279.734L155.159 279.911C155.159 279.911 155.748 278.143 156.868 276.847C157.988 275.491 159.991 274.372 165.943 273.252C168.772 272.722 171.482 273.252 173.839 273.782C175.077 274.018 176.197 274.254 177.316 274.372C178.848 274.489 180.616 272.957 182.325 271.189L182.443 271.366C182.502 271.366 185.802 269.481 189.338 268.538C191.047 268.066 193.227 268.066 195.348 268.066C197.764 268.066 200.063 268.066 201.536 267.477C204.423 266.357 205.248 264.648 206.427 261.702C207.547 258.991 212.791 253.216 214.264 252.273C214.972 251.802 215.325 251.979 215.797 252.156C216.15 252.332 216.622 252.509 217.388 252.391C218.861 252.156 225.932 248.856 226.286 246.145Z" fill="url(#paint3_linear_3618_8436)"/>
<path d="M170.363 257.164C169.538 257.989 169.715 259.403 169.832 260.995C169.95 262.527 170.127 264.236 169.42 265.709C168.065 268.537 161.995 270.659 161.936 270.718L162.113 271.189C162.349 271.071 168.418 268.95 169.832 265.945C170.599 264.412 170.422 262.586 170.245 260.995C170.127 259.521 170.009 258.225 170.657 257.518C171.365 256.811 173.899 256.221 176.138 255.75C178.731 255.161 180.97 254.63 181.5 253.923C182.031 253.216 182.149 252.568 182.207 251.978C182.325 251.33 182.384 250.859 182.974 250.446C183.268 250.27 184.8 250.328 186.45 250.446C190.988 250.682 197.882 251.095 200.357 247.677C202.302 244.966 201.654 242.962 201.065 241.253C200.593 239.839 200.181 238.602 201.065 237.187C201.772 236.009 202.95 235.655 204.306 235.184C206.957 234.359 210.257 233.298 212.379 226.462C212.85 224.871 212.615 223.221 212.379 221.63C212.025 219.509 211.731 217.505 213.027 215.678L212.674 215.384C211.318 217.387 211.672 219.568 211.966 221.689C212.202 223.28 212.438 224.812 212.025 226.286C209.963 232.886 206.84 233.887 204.306 234.712C202.832 235.184 201.536 235.596 200.77 236.893C199.827 238.543 200.299 240.016 200.77 241.371C201.359 243.08 201.949 244.848 200.122 247.382C197.824 250.564 190.811 250.152 186.627 249.916C185.036 249.798 183.975 249.798 183.386 249.857C183.681 249.209 183.799 248.325 183.975 247.264C184.27 245.496 184.624 243.434 185.684 242.314C186.215 241.784 186.981 241.548 187.924 241.253C190.281 240.546 193.463 239.662 195.997 233.121V233.062C196.468 230.823 195.938 229.232 195.407 228.289C195.172 227.877 194.7 227.641 194.229 227.405C193.699 227.17 193.109 226.875 192.638 226.168C191.813 224.93 191.459 218.036 191.754 216.68C191.754 216.562 191.813 216.503 191.813 216.503C191.872 216.445 192.166 216.562 192.402 216.621C193.109 216.857 194.347 217.328 195.82 216.268L195.525 215.855C194.229 216.798 193.227 216.445 192.52 216.15C192.107 216.032 191.813 215.914 191.577 216.032C191.4 216.091 191.341 216.268 191.282 216.503C190.988 217.8 191.282 224.93 192.225 226.344C192.756 227.169 193.463 227.464 194.052 227.759C194.465 227.936 194.818 228.112 194.995 228.407C195.466 229.291 195.997 230.705 195.525 232.827C193.109 239.132 190.045 240.016 187.806 240.664C186.804 240.959 185.979 241.195 185.331 241.843C184.211 243.08 183.857 245.143 183.504 247.028C183.268 248.266 183.091 249.386 182.679 249.916C182.031 250.387 181.913 251.036 181.795 251.684C181.677 252.273 181.618 252.862 181.147 253.452C180.675 254.1 178.2 254.63 176.02 255.102C173.545 255.809 171.129 256.398 170.363 257.164Z" fill="url(#paint4_linear_3618_8436)"/>
<path d="M171.07 210.375C171.659 211.024 172.131 211.495 171.836 212.909C171.659 213.852 171.129 215.207 170.54 216.681C169.538 219.274 168.536 221.866 169.007 223.104C169.243 223.693 169.597 224.106 169.95 224.518C170.716 225.402 171.482 226.286 171.07 228.938C170.716 231.059 169.597 232.709 168.713 234.065C167.888 235.243 167.24 236.245 167.298 237.188C167.357 237.954 167.77 238.484 168.182 239.015C168.89 239.899 169.656 240.841 168.654 243.199C167.888 245.025 166.827 245.497 165.943 245.85C165 246.263 164.234 246.616 164.529 248.384C164.823 250.27 166.002 251.449 167.122 252.568C167.947 253.393 168.772 254.277 169.361 255.397L169.773 255.161C169.184 253.982 168.3 253.04 167.475 252.215C166.356 251.036 165.295 249.975 165 248.266C164.765 246.852 165.295 246.675 166.179 246.263C167.063 245.85 168.3 245.32 169.125 243.375C170.245 240.724 169.361 239.663 168.536 238.661C168.123 238.131 167.77 237.718 167.711 237.129C167.652 236.304 168.241 235.42 169.007 234.3C169.95 232.945 171.129 231.236 171.423 228.997C171.836 226.109 171.011 225.107 170.186 224.224C169.832 223.811 169.538 223.457 169.302 222.927C168.89 221.866 169.95 219.215 170.834 216.857C171.423 215.384 171.954 214.029 172.131 213.027C172.484 211.377 171.895 210.729 171.247 210.081C170.834 209.609 170.363 209.138 170.186 208.254L169.715 208.372C170.068 209.374 170.598 209.904 171.07 210.375Z" fill="url(#paint5_linear_3618_8436)"/>
<path d="M173.427 274.43C171.836 273.664 167.829 273.311 165.354 273.723C162.997 274.136 158.813 275.078 157.163 276.846C156.22 277.848 155.395 279.793 155.336 279.911L155.748 280.087C155.748 280.087 156.573 278.143 157.457 277.2C159.048 275.491 163.527 274.548 165.354 274.253C168.006 273.782 171.777 274.253 173.132 274.902C174.606 275.609 175.136 276.728 175.195 277.259C175.431 278.909 172.661 280.382 172.661 280.382L172.897 280.794C173.015 280.736 175.961 279.145 175.666 277.2C175.666 276.375 174.959 275.196 173.427 274.43Z" fill="url(#paint6_linear_3618_8436)"/>
<path d="M174.606 245.792C175.431 246.145 176.256 246.44 176.786 247.206C177.434 248.09 178.731 250.388 177.022 252.392C176.315 253.217 174.547 253.865 172.838 254.513C171.129 255.102 169.538 255.692 169.066 256.458C168.536 257.283 168.654 258.697 168.772 260.347C168.89 261.82 169.007 263.352 168.654 264.531C167.947 267.006 161.818 269.894 161.759 269.894L161.936 270.306C162.172 270.188 168.3 267.301 169.066 264.649C169.42 263.352 169.302 261.702 169.243 260.288C169.125 258.815 169.066 257.401 169.479 256.693C169.891 256.045 171.482 255.456 173.074 254.926C174.841 254.277 176.668 253.629 177.434 252.686C178.79 251.095 178.731 248.974 177.257 246.911C176.668 246.027 175.725 245.674 174.841 245.32C174.016 244.967 173.191 244.672 172.838 243.906C172.131 242.374 172.661 240.665 173.663 240.017C173.899 239.84 174.193 239.722 174.429 239.545C175.254 239.015 176.138 238.544 177.199 237.365C178.613 235.833 181.265 229.586 181.736 226.581C182.031 224.813 181.5 224.047 181.029 223.163C180.616 222.515 180.204 221.867 180.086 220.57L179.615 220.629C179.732 221.985 180.204 222.751 180.616 223.399C181.088 224.165 181.559 224.872 181.265 226.463C180.793 229.41 178.2 235.538 176.845 237.011C175.843 238.131 174.959 238.602 174.134 239.133C173.899 239.31 173.604 239.427 173.368 239.604C172.249 240.37 171.6 242.315 172.425 244.083C172.838 245.026 173.722 245.438 174.606 245.792Z" fill="url(#paint7_linear_3618_8436)"/>
</g>
<g opacity="0.2">
<path d="M154.452 272.604C154.275 271.366 152.861 270.364 151.387 269.363C150.268 268.597 148.559 267.654 147.086 266.77C145.789 266.004 144.611 265.414 144.139 265.061C144.021 264.943 143.904 264.825 143.786 264.648C143.079 263.529 142.548 260.759 142.666 258.579C142.725 257.341 142.607 256.398 142.548 255.632C142.43 254.807 142.371 254.218 142.607 253.688C142.784 253.275 143.079 253.216 143.55 253.157C144.021 253.098 144.67 252.981 144.964 252.214C145.2 251.566 145.082 250.859 145.023 250.152C144.905 249.445 144.846 248.797 145.141 248.384C145.436 247.972 145.73 247.854 146.143 247.736C146.555 247.559 147.027 247.382 147.439 246.793C147.793 246.263 147.321 245.556 146.673 244.672C145.789 243.434 144.611 241.666 145.082 239.486C145.612 237.129 146.379 237.247 147.38 237.423C147.852 237.482 148.441 237.6 148.971 237.364C149.914 237.011 150.798 234.948 151.682 232.768C152.389 231.118 153.096 229.409 153.686 228.879C154.393 228.348 155.041 228.231 155.571 228.113C156.161 227.995 156.691 227.877 157.104 227.347C157.634 226.698 157.339 225.814 157.104 225.048C156.986 224.577 156.809 224.106 156.927 223.87L156.514 223.634C156.279 223.988 156.455 224.577 156.632 225.166C156.809 225.873 157.045 226.639 156.691 227.052C156.396 227.464 155.984 227.523 155.395 227.641C154.805 227.759 154.098 227.877 153.332 228.466C152.625 228.997 151.918 230.706 151.152 232.532C150.386 234.418 149.502 236.539 148.677 236.834C148.205 237.011 147.734 236.952 147.262 236.893C146.202 236.716 145.141 236.598 144.493 239.309C143.962 241.666 145.2 243.493 146.143 244.848C146.614 245.556 147.027 246.145 146.85 246.439C146.555 246.911 146.202 247.029 145.789 247.206C145.377 247.323 144.964 247.5 144.611 248.031C144.198 248.62 144.316 249.386 144.434 250.093C144.552 250.741 144.611 251.389 144.434 251.92C144.257 252.45 143.845 252.509 143.373 252.568C142.902 252.627 142.371 252.686 142.077 253.393C141.782 254.041 141.9 254.748 142.018 255.573C142.136 256.339 142.254 257.282 142.136 258.461C142.018 259.816 142.195 261.466 142.548 262.881C141.546 261.231 140.25 258.697 140.073 256.222C139.896 254.1 140.309 253.393 140.839 252.273C141.37 251.213 142.018 249.916 142.548 246.97C143.255 242.786 141.429 238.897 140.25 236.893C140.368 236.481 141.193 233.711 143.373 232.945L144.493 232.532C146.555 231.766 148.382 231.118 149.325 230.647C150.621 229.998 151.564 227.877 151.8 226.581C151.918 225.814 151.564 225.343 151.211 224.931C150.916 224.518 150.621 224.164 150.621 223.575C150.68 223.045 151.446 222.514 152.33 221.925C153.627 221.1 155.218 220.039 155.807 218.272C156.573 216.15 155.807 215.207 155.159 214.382C154.805 213.97 154.511 213.616 154.393 213.086L153.98 213.204C154.157 213.793 154.511 214.264 154.864 214.677C155.512 215.502 156.161 216.268 155.454 218.095C154.864 219.686 153.332 220.688 152.154 221.513C151.093 222.22 150.268 222.75 150.209 223.457C150.15 224.282 150.504 224.754 150.857 225.166C151.152 225.579 151.446 225.873 151.329 226.463C151.093 227.818 150.091 229.704 149.089 230.234C148.146 230.706 146.261 231.354 144.257 232.061L143.137 232.473C141.134 233.181 140.191 235.42 139.837 236.363C139.425 235.773 139.189 235.42 139.13 235.361C139.071 235.302 134.887 231.472 133.002 228.584C131.116 225.638 131.175 223.222 132.177 222.338C132.707 221.866 133.768 221.807 135.064 221.748C136.243 221.689 137.539 221.631 138.718 221.218C140.486 220.57 141.782 218.036 142.136 217.27C142.607 216.15 143.137 214.618 142.843 213.911C142.371 212.614 140.368 212.202 140.309 212.143L140.25 212.614C140.25 212.614 142.077 212.968 142.43 214.088C142.548 214.5 142.371 215.62 141.723 217.093C141.016 218.566 139.837 220.334 138.6 220.806C137.48 221.218 136.243 221.277 135.123 221.336C133.768 221.395 132.648 221.454 132 221.984C130.88 222.927 130.645 225.52 132.766 228.82C134.593 231.707 138.659 235.479 138.954 235.714C139.189 236.009 143.196 241.136 142.195 246.911C141.723 249.798 141.075 251.036 140.545 252.038C140.427 252.273 140.309 252.509 140.191 252.745C139.661 251.331 139.72 250.506 139.779 249.857C139.837 248.914 139.779 248.384 138.482 247.559C136.773 246.498 133.473 246.322 131.293 246.204C130.409 246.145 129.643 246.086 129.289 246.027C127.934 245.732 127.227 245.084 126.873 243.847C126.579 242.845 126.814 242.55 127.227 242.02C127.345 241.902 127.462 241.725 127.639 241.548C127.816 241.313 128.17 241.136 128.523 240.9C129.348 240.429 130.468 239.781 130.409 238.131C130.35 236.716 129.407 236.245 128.464 235.714C127.816 235.361 127.168 235.007 126.696 234.359C125.459 232.709 123.986 227.936 123.691 225.343C123.396 222.397 123.927 216.975 124.398 216.622C124.575 216.563 125.341 216.916 125.93 217.211C127.05 217.741 128.464 218.389 129.407 218.154C129.584 218.095 129.702 218.095 129.879 218.036C131.116 217.741 131.234 217.623 131.175 216.386C131.116 215.502 130.468 215.384 129.879 215.325C129.525 215.266 129.112 215.207 128.936 214.913C128.464 214.323 128.641 212.084 128.7 211.259L128.229 211.2C128.17 211.495 127.875 214.323 128.523 215.207C128.818 215.62 129.348 215.679 129.761 215.738C130.35 215.856 130.645 215.914 130.645 216.386C130.704 216.857 130.704 217.152 130.586 217.211C130.468 217.329 130.173 217.388 129.702 217.506C129.584 217.564 129.407 217.564 129.23 217.623C128.405 217.859 127.109 217.211 126.048 216.681C125.046 216.209 124.516 215.973 124.162 216.091C123.22 216.445 122.925 223.045 123.102 225.284C123.396 227.995 124.87 232.827 126.166 234.536C126.696 235.302 127.462 235.656 128.111 236.009C128.995 236.481 129.761 236.893 129.82 238.013C129.879 239.368 128.995 239.898 128.17 240.37C127.757 240.606 127.345 240.841 127.168 241.136C127.05 241.313 126.932 241.431 126.814 241.607C126.343 242.138 125.989 242.609 126.343 243.847C126.755 245.202 127.58 245.968 129.112 246.322C129.407 246.381 129.82 246.439 130.409 246.439C130.055 246.675 129.702 246.675 129.289 246.675C128.877 246.675 128.346 246.616 127.934 246.97C127.168 247.5 127.639 248.384 127.993 249.032C128.17 249.327 128.287 249.622 128.287 249.798C128.287 249.916 128.229 250.034 128.111 250.152C127.875 250.329 127.404 250.388 126.755 250.329C126.048 250.211 125.046 249.15 124.457 248.502C124.221 248.266 124.045 248.031 123.927 247.972C123.691 247.736 123.337 247.795 123.043 247.795C122.689 247.854 122.277 247.854 121.923 247.559C121.687 247.441 121.57 247.206 121.57 246.911C121.511 246.381 121.746 245.791 121.864 245.614C121.923 245.556 122.159 245.556 122.336 245.556C122.63 245.556 122.984 245.556 123.279 245.32C123.75 244.907 123.927 244.259 123.868 243.257C123.809 242.668 123.337 242.668 122.925 242.668C122.454 242.668 121.923 242.609 121.687 241.961C121.511 241.489 121.746 241.018 122.1 240.429C122.63 239.545 123.279 238.366 122.395 236.775C121.334 234.772 120.155 235.007 119.271 235.184C118.977 235.243 118.682 235.302 118.505 235.243C118.329 235.184 118.211 235.066 118.211 235.007C118.152 234.831 118.27 234.654 118.329 234.595L117.975 234.3C117.916 234.359 117.68 234.713 117.798 235.125C117.857 235.361 118.093 235.597 118.387 235.714C118.682 235.832 119.036 235.773 119.389 235.714C120.214 235.538 121.098 235.361 122.041 237.07C122.807 238.484 122.277 239.427 121.746 240.311C121.393 240.959 121.039 241.548 121.275 242.256C121.629 243.198 122.395 243.198 122.925 243.257C123.396 243.257 123.455 243.316 123.455 243.434C123.514 244.259 123.396 244.848 123.043 245.143C122.866 245.261 122.63 245.261 122.395 245.261C122.1 245.261 121.805 245.261 121.57 245.497C121.334 245.732 121.039 246.498 121.157 247.147C121.216 247.559 121.393 247.913 121.687 248.148C122.218 248.502 122.748 248.502 123.102 248.443C123.396 248.443 123.573 248.384 123.691 248.502C123.809 248.561 123.986 248.797 124.162 249.032C124.811 249.739 125.871 250.918 126.696 251.036C126.696 251.036 126.696 251.036 126.755 251.036C127.521 251.154 128.111 251.036 128.464 250.741C128.641 250.564 128.759 250.329 128.818 250.034C128.818 249.739 128.641 249.445 128.464 249.032C128.111 248.325 127.875 247.854 128.287 247.559C128.641 247.323 128.936 247.323 129.348 247.323C129.879 247.323 130.527 247.382 131.116 246.675C131.175 246.675 131.234 246.675 131.293 246.675C133.414 246.793 136.714 247.029 138.305 247.972C139.425 248.679 139.425 249.032 139.366 249.857C139.307 250.623 139.248 251.625 140.014 253.393C139.779 254.1 139.661 254.925 139.779 256.281C140.073 260.406 143.255 264.589 143.491 264.884C143.609 265.061 143.786 265.238 143.904 265.356C144.375 265.709 145.554 266.357 146.909 267.123C148.382 267.948 150.091 268.891 151.211 269.657C152.507 270.6 153.921 271.543 154.098 272.604C154.157 273.075 154.039 273.606 153.568 274.136C151.977 276.257 149.973 283.564 149.973 283.859L150.386 283.918C150.445 283.447 152.448 276.375 153.921 274.431C154.393 273.841 154.57 273.252 154.452 272.604Z" fill="url(#paint8_linear_3618_8436)"/>
<path d="M151.329 274.49C150.68 272.25 147.439 269.834 146.379 269.186C144.08 267.772 138.836 267.477 136.361 268.007C135.241 268.243 134.475 268.597 133.768 268.95C133.002 269.304 132.354 269.657 131.47 269.657C129.643 269.657 128.641 269.893 127.757 270.541C127.58 270.659 127.521 270.836 127.521 270.954C127.521 271.307 127.816 271.661 128.229 272.015C128.523 272.309 128.936 272.663 128.877 272.898C128.877 273.016 128.759 273.075 128.641 273.134C127.462 273.782 126.52 272.84 126.461 272.84L126.166 273.134C126.166 273.134 127.345 274.372 128.877 273.547C129.171 273.37 129.289 273.193 129.348 272.957C129.407 272.486 128.995 272.073 128.523 271.72C128.287 271.484 127.934 271.19 127.934 271.013L127.993 270.954C128.759 270.365 129.702 270.129 131.411 270.129C132.412 270.129 133.12 269.775 133.945 269.363C134.593 269.009 135.359 268.656 136.42 268.42C138.718 267.948 143.904 268.184 146.084 269.54C147.38 270.365 150.268 272.604 150.857 274.607C151.034 275.138 150.739 276.14 150.386 276.847C148.618 280.972 148.029 283.918 148.029 283.918L148.441 284.036C148.441 284.036 149.03 281.09 150.798 277.023C151.093 276.552 151.564 275.315 151.329 274.49Z" fill="url(#paint9_linear_3618_8436)"/>
<path d="M152.389 274.135C152.271 273.31 151.446 272.367 151.152 272.073C151.093 272.014 151.093 272.014 151.093 271.955C149.443 270.01 147.027 268.125 145.436 267.535C145.023 267.359 144.434 267.241 143.786 267.123C141.193 265.885 138.718 265.414 136.302 264.943C135.005 264.707 133.65 264.412 132.295 264.059C128.7 262.998 122.63 256.987 122.395 256.751C122.218 256.516 118.093 251.33 117.739 249.503C117.563 248.737 116.679 244.848 116.266 243.728C115.854 242.785 110.727 241.076 109.666 240.723H109.607C107.073 240.605 103.42 240.369 103.066 240.134C102.654 239.839 102.182 238.425 102.241 237.835C102.241 237.6 102.536 237.423 102.83 237.246C103.302 236.951 103.832 236.539 103.95 235.832C104.009 235.301 103.655 233.71 103.007 231.176C102.418 228.76 101.593 225.46 101.829 224.871C102.005 224.341 102.359 224.282 102.654 224.164C102.948 224.105 103.361 223.987 103.479 223.457C103.538 223.28 103.42 223.162 103.361 223.044C103.125 222.75 102.595 222.809 101.888 222.867C101.18 222.926 100.238 222.985 99.884 222.632L99.5894 222.985C100.12 223.457 101.063 223.398 101.888 223.339C102.3 223.339 102.889 223.28 103.007 223.398C102.948 223.634 102.83 223.692 102.536 223.751C102.182 223.869 101.652 223.987 101.357 224.753C101.121 225.401 101.652 227.759 102.536 231.294C103.007 233.298 103.538 235.301 103.479 235.773C103.42 236.303 102.948 236.598 102.536 236.893C102.123 237.128 101.77 237.423 101.711 237.835C101.593 238.601 102.123 240.193 102.713 240.605C103.184 240.959 107.957 241.194 109.489 241.253C112.436 242.196 115.559 243.493 115.795 243.964C116.148 244.789 116.738 247.441 117.268 249.621C117.68 251.566 121.864 256.81 122.041 257.046C122.277 257.282 128.347 263.41 132.118 264.471C133.473 264.884 134.829 265.119 136.125 265.355C138.07 265.709 140.014 266.121 142.077 266.887C140.957 266.769 139.72 266.651 138.541 266.593C137.539 266.534 136.655 266.475 135.889 266.357C130.291 265.768 127.168 264.943 125.164 263.469C122.866 261.878 116.03 255.809 115.441 255.101C115.146 254.748 115.029 254.276 114.852 253.746C114.734 253.334 114.616 252.862 114.38 252.332C113.497 250.387 110.255 248.325 107.898 246.793C106.661 246.026 105.6 245.319 105.364 244.966C105.011 244.435 105.129 244.082 105.305 243.61C105.423 243.316 105.6 242.903 105.6 242.432H105.129C105.129 242.844 105.011 243.139 104.893 243.434C104.657 243.964 104.48 244.435 104.952 245.201C105.247 245.614 106.248 246.262 107.604 247.146C109.961 248.619 113.143 250.682 113.909 252.509C114.145 252.98 114.263 253.451 114.38 253.864C114.557 254.453 114.675 254.925 115.029 255.396C115.618 256.103 122.513 262.232 124.811 263.823C126.932 265.296 130.055 266.18 135.771 266.769C136.479 266.828 137.421 266.887 138.423 267.005C140.898 267.182 143.727 267.359 145.141 267.889C146.673 268.419 149.03 270.305 150.621 272.191C150.621 272.191 150.68 272.25 150.739 272.309C150.975 272.603 151.8 273.487 151.918 274.135C152.036 274.784 151.564 276.08 150.916 277.789C150.327 279.439 149.561 281.443 148.913 283.976L149.325 284.094C149.973 281.619 150.739 279.616 151.329 277.966C152.036 276.139 152.448 274.901 152.389 274.135Z" fill="url(#paint10_linear_3618_8436)"/>
<path d="M105.129 211.2C105.07 211.554 104.716 212.084 104.304 212.673C103.538 213.793 102.713 215.03 103.243 216.032C103.538 216.563 104.245 217.034 105.07 217.623C106.602 218.625 108.547 219.921 109.313 222.279C110.55 225.991 113.732 232.65 113.732 232.709V232.768C113.791 232.827 117.622 238.071 116.325 243.139L116.738 243.257C118.093 238.072 114.381 232.945 114.086 232.532C114.086 232.473 113.968 232.297 113.85 232.061C114.38 231.943 115.559 231.589 116.384 230.529C116.973 229.763 117.209 228.702 117.091 227.523C116.855 225.461 115.854 223.516 114.97 221.807C114.204 220.334 113.555 219.096 113.673 218.154C113.732 217.329 114.204 217.211 114.793 217.034C115.5 216.857 116.384 216.563 116.561 215.03C116.738 213.38 115.618 212.673 114.675 212.084C113.909 211.613 113.497 211.318 113.555 210.788C113.673 209.314 115.795 207.252 115.795 207.252L115.5 206.898C115.382 207.016 113.261 209.079 113.143 210.729C113.084 211.554 113.791 212.025 114.498 212.438C115.382 212.968 116.325 213.557 116.148 214.913C116.031 216.15 115.382 216.327 114.675 216.504C114.027 216.68 113.32 216.857 113.261 217.977C113.202 219.038 113.85 220.334 114.616 221.866C115.441 223.516 116.443 225.402 116.679 227.405C116.797 228.466 116.62 229.35 116.089 230.057C115.323 231.059 114.145 231.354 113.732 231.413C112.848 229.468 110.727 224.813 109.725 221.984C108.9 219.509 106.838 218.095 105.305 217.093C104.539 216.563 103.832 216.091 103.597 215.679C103.184 214.913 103.95 213.793 104.598 212.85C105.011 212.202 105.423 211.613 105.482 211.2C105.541 210.552 104.952 209.609 104.186 208.489C103.538 207.488 102.772 206.368 102.654 205.543L102.241 205.602C102.359 206.545 103.125 207.664 103.832 208.725C104.539 209.727 105.188 210.729 105.129 211.2Z" fill="url(#paint11_linear_3618_8436)"/>
<path d="M149.738 276.022C149.207 274.784 147.616 273.783 146.497 273.016C146.025 272.722 145.672 272.486 145.495 272.309C145.318 272.133 145.259 271.956 145.259 271.779C145.141 271.249 144.965 270.777 143.845 270.306C142.136 269.599 138.011 269.245 136.656 270.07C136.125 270.424 136.007 270.836 136.066 271.19C136.184 272.132 137.363 273.016 138.365 273.37C139.072 273.606 139.131 274.372 139.19 275.138C139.249 275.786 139.307 276.493 139.779 276.847C140.074 277.083 140.25 277.318 140.191 277.554C140.132 277.79 139.72 278.084 138.777 278.202C137.481 278.32 135.477 277.849 135.418 277.79L135.3 278.202C135.359 278.202 137.422 278.733 138.777 278.615C139.779 278.497 140.427 278.143 140.545 277.613C140.663 277.2 140.427 276.788 139.956 276.434C139.661 276.199 139.602 275.668 139.543 275.079C139.484 274.254 139.425 273.252 138.424 272.957C137.363 272.604 136.479 271.838 136.42 271.19C136.361 270.954 136.538 270.718 136.774 270.541C137.952 269.834 141.782 270.07 143.55 270.777C144.552 271.19 144.611 271.543 144.729 271.897C144.788 272.133 144.847 272.427 145.082 272.663C145.259 272.84 145.672 273.134 146.143 273.429C147.204 274.077 148.736 275.138 149.266 276.199C149.62 276.965 149.207 277.79 148.677 278.968C148.206 280.088 147.557 281.443 147.322 283.329L147.734 283.388C147.97 281.561 148.618 280.265 149.09 279.204C149.738 277.966 150.15 277.024 149.738 276.022Z" fill="url(#paint12_linear_3618_8436)"/>
</g>
<path d="M164.764 183.504C186.277 183.504 203.716 174.112 203.716 162.525C203.716 150.939 186.277 141.547 164.764 141.547C143.252 141.547 125.812 150.939 125.812 162.525C125.812 174.112 143.252 183.504 164.764 183.504Z" fill="#2A697F"/>
<path d="M164.411 162.82C173.849 162.82 181.5 159.021 181.5 154.334C181.5 149.648 173.849 145.849 164.411 145.849C154.973 145.849 147.322 149.648 147.322 154.334C147.322 159.021 154.973 162.82 164.411 162.82Z" fill="#293C4F"/>
<path d="M164.411 147.911C173.132 147.911 180.381 151.152 181.382 155.336C181.441 154.983 181.5 154.688 181.5 154.334C181.5 149.679 173.84 145.849 164.411 145.849C154.982 145.849 147.322 149.62 147.322 154.334C147.322 154.688 147.381 155.041 147.44 155.336C148.5 151.152 155.69 147.911 164.411 147.911Z" fill="#DBDBDB"/>
<path d="M181.382 157.045L180.97 155.395C179.968 151.329 172.838 148.264 164.411 148.264C155.925 148.264 148.795 151.329 147.852 155.395L147.44 157.045L147.027 155.395C146.909 155.041 146.909 154.629 146.909 154.275C146.909 151.859 148.795 149.62 152.154 147.911C155.454 146.261 159.815 145.377 164.411 145.377C169.007 145.377 173.427 146.261 176.668 147.911C180.027 149.561 181.913 151.859 181.913 154.275C181.913 154.629 181.854 154.982 181.795 155.395L181.382 157.045ZM164.411 147.498C172.072 147.498 178.731 150.032 181.029 153.568C180.204 149.502 173.073 146.261 164.411 146.261C155.748 146.261 148.618 149.443 147.793 153.568C150.15 149.973 156.75 147.498 164.411 147.498Z" fill="#323A50"/>
<path d="M164.882 141.605C143.374 141.605 125.931 150.798 125.931 162.113C125.931 173.427 143.374 182.62 164.882 182.62C186.391 182.62 203.834 173.427 203.834 162.113C203.834 150.798 186.391 141.605 164.882 141.605ZM181.559 154.452C181.559 154.511 181.618 154.57 181.618 154.57C181.618 154.629 181.618 154.688 181.618 154.747C180.911 158.989 173.545 162.348 164.588 162.348C155.866 162.348 148.618 159.166 147.616 155.1C147.616 154.982 147.557 154.864 147.557 154.805C147.557 154.747 147.557 154.688 147.557 154.629C147.557 154.57 147.557 154.511 147.557 154.452C147.557 154.334 147.557 154.098 147.557 154.098C147.557 154.098 147.557 153.804 147.557 153.686C147.616 153.097 147.793 152.566 148.088 152.036C148.382 151.505 148.736 151.034 149.207 150.563C149.207 150.563 149.266 150.563 149.266 150.504C152.036 147.734 157.929 145.848 164.706 145.848C174.134 145.848 181.854 149.561 181.854 154.098H181.677C181.559 154.275 181.559 154.334 181.559 154.452Z" fill="#DBDBDB"/>
<path d="M164.882 183.033C154.393 183.033 144.552 180.911 137.127 176.963C129.643 173.015 125.518 167.77 125.518 162.113C125.518 156.456 129.643 151.211 137.127 147.263C144.552 143.374 154.393 141.193 164.882 141.193C175.372 141.193 185.213 143.315 192.638 147.263C200.122 151.211 204.247 156.456 204.247 162.113C204.247 167.77 200.122 173.015 192.638 176.963C185.213 180.852 175.372 183.033 164.882 183.033ZM164.882 142.018C143.609 142.018 126.343 151.034 126.343 162.113C126.343 173.192 143.668 182.208 164.882 182.208C186.097 182.208 203.422 173.192 203.422 162.113C203.481 151.034 186.156 142.018 164.882 142.018ZM164.529 162.82C155.69 162.82 148.206 159.579 147.145 155.218C147.145 155.101 147.086 154.983 147.086 154.865C147.086 154.806 147.086 154.747 147.027 154.688C147.027 154.629 147.027 154.57 147.027 154.511V154.452C147.027 154.334 147.027 154.276 147.027 154.099V153.686V153.627C147.086 153.038 147.263 152.449 147.616 151.859C147.911 151.329 148.323 150.799 148.795 150.268L148.854 150.209C151.8 147.263 157.811 145.436 164.588 145.436C169.243 145.436 173.604 146.32 176.904 147.911C180.322 149.561 182.148 151.742 182.148 154.099V154.511H182.031C182.031 154.57 182.031 154.57 182.031 154.629C182.031 154.688 182.031 154.747 181.972 154.806C181.206 159.402 173.722 162.82 164.529 162.82ZM147.852 154.158C147.852 154.276 147.852 154.334 147.852 154.393V154.452C147.852 154.511 147.852 154.511 147.852 154.57C147.852 154.629 147.852 154.688 147.852 154.747C147.852 154.865 147.911 154.924 147.911 155.042C148.913 158.99 156.043 161.995 164.47 161.995C173.132 161.995 180.439 158.813 181.088 154.747V154.688C181.088 154.629 181.029 154.57 181.088 154.511C181.088 154.511 181.088 154.452 181.088 154.393C181.088 154.334 181.088 154.276 181.088 154.158V153.745H181.264C181.029 151.859 179.379 150.033 176.491 148.677C173.309 147.145 169.066 146.32 164.529 146.32C158.106 146.32 152.154 148.088 149.384 150.858L149.325 150.917C148.913 151.388 148.559 151.801 148.264 152.272C148.029 152.743 147.852 153.274 147.793 153.745C147.852 153.863 147.852 154.099 147.852 154.158Z" fill="#323A50"/>
<path d="M165.354 137.952C179.446 137.952 190.87 134.866 190.87 131.058C190.87 127.25 179.446 124.163 165.354 124.163C151.262 124.163 139.838 127.25 139.838 131.058C139.838 134.866 151.262 137.952 165.354 137.952Z" fill="white"/>
<path d="M165.354 138.364C152.625 138.364 139.425 135.654 139.425 131.057C139.425 126.52 152.625 123.75 165.354 123.75C178.082 123.75 191.282 126.461 191.282 131.057C191.224 135.654 178.082 138.364 165.354 138.364ZM165.354 124.634C150.327 124.634 140.25 127.993 140.25 131.116C140.25 134.239 150.327 137.598 165.354 137.598C180.381 137.598 190.457 134.239 190.457 131.116C190.399 127.934 180.322 124.634 165.354 124.634Z" fill="#323A50"/>
<g opacity="0.3">
<path d="M165.884 295.468C165.825 295.468 165.766 295.468 165.766 295.468C152.095 295.468 138.482 291.638 126.402 284.507H126.343L125.754 283.918C110.727 275.197 99.3538 261.584 92.9895 244.554C90.6324 238.425 89.1591 231.884 88.3931 224.577L89.2181 224.518C89.9252 231.707 91.3984 238.189 93.7556 244.259C100.061 261.113 111.316 274.548 126.225 283.211H126.284L126.873 283.8C151.211 298.179 180.263 298.238 204.718 283.977C205.897 283.152 207.193 282.327 208.607 281.502C221.513 273.193 231.236 261.348 237.423 246.204C237.718 245.497 237.954 244.73 238.248 243.964C238.484 243.198 238.779 242.432 239.073 241.725C240.959 235.891 242.197 229.998 242.727 224.105L243.552 224.164C243.022 230.116 241.784 236.127 239.839 242.02V242.079C239.545 242.786 239.309 243.552 239.014 244.318C238.779 245.084 238.484 245.85 238.189 246.616C231.943 261.879 222.161 273.9 209.079 282.268C207.664 283.093 206.427 283.918 205.248 284.684C193.05 291.755 179.497 295.468 165.884 295.468Z" fill="#323A50"/>
</g>
<path d="M262.88 189.927C260.995 183.681 256.045 179.438 248.03 177.375C243.434 176.197 239.191 176.079 237.364 176.079C237.305 175.843 237.188 175.608 237.011 175.431C238.543 175.372 243.198 175.431 248.148 176.727C256.221 178.849 261.525 183.327 263.411 189.692C263.823 190.517 275.432 214.972 276.846 229.292C277.2 233.063 280.264 233.888 285.863 235.42C290.459 236.658 296.823 238.425 304.661 242.609L304.366 243.199C296.588 239.015 290.282 237.306 285.686 236.068C280.029 234.536 276.611 233.593 276.198 229.35C275.02 217.683 267.005 199.12 263.941 192.461C264.118 197.411 260.641 204.247 253.629 212.85C246.911 221.1 236.952 230.942 223.988 242.256C219.214 246.44 214.323 250.447 209.668 254.277L208.902 254.042C213.616 250.27 218.625 246.027 223.516 241.784C252.745 216.445 266.298 198.59 262.88 189.927Z" fill="#323A50"/>
<path d="M239.427 182.207C239.368 181.736 238.72 179.438 238.602 179.025C238.661 178.79 239.545 180.204 239.486 179.968C239.486 179.497 239.191 179.025 238.779 178.731C238.838 178.259 238.838 178.024 238.366 177.729C238.425 177.493 237.895 177.493 237.836 177.316C238.661 178.731 239.663 180.557 239.957 182.09C241.313 189.22 230.47 206.015 207.782 232.179C202.773 237.954 197.705 243.611 193.109 248.502L192.402 248.266C212.732 226.286 241.136 192.991 239.427 182.207Z" fill="#323A50"/>
<path d="M237.188 175.372C237.305 175.49 237.364 175.608 237.482 175.726L241.725 175.549C239.721 175.431 238.13 175.372 237.188 175.372Z" fill="#323A50"/>
<path d="M238.307 177.494L249.209 177.081C248.797 176.963 248.384 176.845 247.913 176.728L238.189 177.14C238.189 177.199 238.248 177.317 238.307 177.494Z" fill="#323A50"/>
<path d="M238.719 179.143L253.216 178.554C252.921 178.436 252.685 178.318 252.391 178.2L238.602 178.731C238.602 178.789 238.602 178.848 238.602 178.907C238.602 178.966 238.66 179.084 238.719 179.143Z" fill="#323A50"/>
<path d="M239.368 180.853L256.045 180.205C255.868 180.087 255.632 179.969 255.456 179.792L239.309 180.44C239.309 180.558 239.368 180.735 239.368 180.853Z" fill="#323A50"/>
<path d="M239.545 182.443L257.989 181.677C257.813 181.559 257.695 181.441 257.518 181.265L239.486 181.972C239.545 182.149 239.545 182.266 239.545 182.443Z" fill="#323A50"/>
<path d="M239.604 184.153L259.698 183.328C259.58 183.21 259.462 183.092 259.345 182.915L239.662 183.74C239.662 183.858 239.662 184.035 239.604 184.153Z" fill="#323A50"/>
<path d="M239.368 185.508C239.309 185.626 239.309 185.743 239.25 185.802L260.995 184.918C260.877 184.801 260.818 184.624 260.7 184.506L239.368 185.39C239.427 185.449 239.368 185.508 239.368 185.508Z" fill="#323A50"/>
<path d="M238.837 187.393C238.837 187.452 238.778 187.57 238.778 187.629L262.055 186.686C261.996 186.568 261.937 186.391 261.819 186.273L238.896 187.216C238.896 187.275 238.837 187.334 238.837 187.393Z" fill="#323A50"/>
<path d="M238.189 188.926L262.645 187.924C262.703 188.042 262.762 188.218 262.821 188.336L238.071 189.338C238.071 189.22 238.13 189.043 238.189 188.926Z" fill="#323A50"/>
<path d="M237.423 190.693L263.234 189.633C263.293 189.751 263.293 189.868 263.352 190.045L237.247 191.106C237.306 190.929 237.364 190.811 237.423 190.693Z" fill="#323A50"/>
<path d="M236.598 192.403L263.587 191.283C263.587 191.401 263.646 191.519 263.646 191.696L236.421 192.815C236.48 192.697 236.539 192.521 236.598 192.403Z" fill="#323A50"/>
<path d="M235.714 194.17L263.764 193.051C263.764 193.169 263.764 193.345 263.764 193.463L235.538 194.583C235.538 194.465 235.655 194.288 235.714 194.17Z" fill="#323A50"/>
<path d="M234.771 195.762L263.587 194.583C263.587 194.701 263.529 194.878 263.529 194.996L234.536 196.174C234.654 196.056 234.712 195.938 234.771 195.762Z" fill="#323A50"/>
<path d="M233.769 197.529L263.234 196.351C263.175 196.468 263.175 196.645 263.116 196.763L233.534 197.942C233.593 197.824 233.652 197.706 233.769 197.529Z" fill="#323A50"/>
<path d="M232.709 199.297L262.703 198.06C262.644 198.177 262.585 198.354 262.527 198.472L232.414 199.71C232.532 199.592 232.591 199.415 232.709 199.297Z" fill="#323A50"/>
<path d="M231.53 201.065L261.938 199.827C261.879 199.945 261.82 200.122 261.761 200.24L231.236 201.477C231.354 201.359 231.472 201.182 231.53 201.065Z" fill="#323A50"/>
<path d="M230.411 202.715L261.112 201.478C261.054 201.595 260.995 201.772 260.877 201.89L230.057 203.127C230.234 203.01 230.352 202.892 230.411 202.715Z" fill="#323A50"/>
<path d="M229.232 204.483L260.229 203.245C260.17 203.363 260.052 203.54 259.993 203.658L228.938 204.895C228.996 204.777 229.114 204.659 229.232 204.483Z" fill="#323A50"/>
<path d="M227.994 206.25L259.168 205.013C259.109 205.131 258.991 205.307 258.932 205.425L227.7 206.663C227.818 206.545 227.876 206.368 227.994 206.25Z" fill="#323A50"/>
<path d="M226.698 208.018L257.989 206.722C257.872 206.84 257.813 207.016 257.695 207.134L226.345 208.431C226.522 208.313 226.639 208.195 226.698 208.018Z" fill="#323A50"/>
<path d="M225.52 209.669L256.87 208.372C256.752 208.49 256.693 208.667 256.575 208.785L225.166 210.081C225.284 209.963 225.402 209.786 225.52 209.669Z" fill="#323A50"/>
<path d="M224.164 211.436L255.573 210.14C255.455 210.258 255.337 210.434 255.279 210.552L223.87 211.849C223.987 211.731 224.105 211.554 224.164 211.436Z" fill="#323A50"/>
<path d="M222.868 213.205L254.218 211.908C254.1 212.026 253.982 212.203 253.864 212.321L222.514 213.617C222.632 213.499 222.75 213.323 222.868 213.205Z" fill="#323A50"/>
<path d="M221.454 214.972L252.745 213.676C252.627 213.794 252.509 213.97 252.391 214.088L221.1 215.385C221.277 215.267 221.395 215.09 221.454 214.972Z" fill="#323A50"/>
<path d="M220.098 216.74L251.33 215.502C251.213 215.62 251.095 215.797 250.977 215.914L219.804 217.152C219.863 217.034 219.98 216.857 220.098 216.74Z" fill="#323A50"/>
<path d="M218.684 218.508L249.739 217.271C249.621 217.388 249.503 217.565 249.385 217.683L218.33 218.921C218.448 218.803 218.566 218.626 218.684 218.508Z" fill="#323A50"/>
<path d="M217.27 220.276L248.207 219.038C248.089 219.156 247.971 219.333 247.795 219.451L216.916 220.688C217.034 220.57 217.152 220.394 217.27 220.276Z" fill="#323A50"/>
<path d="M215.914 221.926L246.675 220.688C246.557 220.806 246.439 220.983 246.262 221.101L215.561 222.339C215.678 222.221 215.796 222.103 215.914 221.926Z" fill="#323A50"/>
<path d="M214.559 223.575L245.084 222.338C244.966 222.456 244.789 222.633 244.671 222.75L214.205 223.988C214.323 223.87 214.441 223.693 214.559 223.575Z" fill="#323A50"/>
<path d="M213.086 225.344L243.375 224.106C243.257 224.224 243.08 224.401 242.962 224.519L212.732 225.756C212.85 225.639 212.968 225.521 213.086 225.344Z" fill="#323A50"/>
<path d="M211.612 227.112L241.607 225.874C241.489 225.992 241.312 226.169 241.194 226.286L211.259 227.524C211.377 227.406 211.495 227.288 211.612 227.112Z" fill="#323A50"/>
<path d="M210.139 228.938L239.839 227.76C239.721 227.878 239.545 228.054 239.427 228.172L209.786 229.351C209.904 229.174 210.021 229.056 210.139 228.938Z" fill="#323A50"/>
<path d="M208.725 230.588L238.131 229.409C238.013 229.527 237.836 229.704 237.718 229.822L208.372 231C208.489 230.882 208.607 230.706 208.725 230.588Z" fill="#323A50"/>
<path d="M207.31 232.238L236.421 231.06C236.244 231.177 236.127 231.354 235.95 231.472L206.898 232.651C207.075 232.474 207.193 232.356 207.31 232.238Z" fill="#323A50"/>
<path d="M205.72 234.006L234.477 232.827C234.3 232.945 234.182 233.122 234.005 233.24L205.307 234.418C205.484 234.3 205.602 234.124 205.72 234.006Z" fill="#323A50"/>
<path d="M204.246 235.774L232.65 234.596C232.473 234.714 232.355 234.89 232.179 235.008L203.834 236.128C203.952 236.069 204.129 235.892 204.246 235.774Z" fill="#323A50"/>
<path d="M202.655 237.542L230.705 236.422C230.529 236.54 230.411 236.717 230.234 236.834L202.302 237.954C202.42 237.836 202.537 237.718 202.655 237.542Z" fill="#323A50"/>
<path d="M201.064 239.369L228.702 238.249C228.525 238.367 228.407 238.544 228.23 238.661L200.71 239.781C200.828 239.663 200.946 239.486 201.064 239.369Z" fill="#323A50"/>
<path d="M199.591 241.018L226.816 239.898C226.639 240.016 226.522 240.193 226.345 240.311L199.179 241.431C199.355 241.254 199.473 241.136 199.591 241.018Z" fill="#323A50"/>
<path d="M198 242.786L224.813 241.726C224.636 241.843 224.518 242.02 224.341 242.138L197.646 243.199C197.764 243.081 197.882 242.904 198 242.786Z" fill="#323A50"/>
<path d="M196.409 244.554L222.809 243.493C222.632 243.611 222.455 243.788 222.337 243.906L196.055 244.966C196.173 244.849 196.291 244.672 196.409 244.554Z" fill="#323A50"/>
<path d="M194.818 246.322L220.747 245.262C220.57 245.38 220.393 245.556 220.275 245.674L194.464 246.735C194.523 246.617 194.641 246.499 194.818 246.322Z" fill="#323A50"/>
<path d="M193.286 247.972L218.802 246.911C218.625 247.029 218.448 247.206 218.33 247.324L192.932 248.325C193.05 248.267 193.168 248.149 193.286 247.972Z" fill="#323A50"/>
<path d="M193.757 249.563L216.857 248.62C216.68 248.738 216.503 248.915 216.326 249.033L194.759 249.917C194.464 249.799 194.11 249.681 193.757 249.563Z" fill="#323A50"/>
<path d="M198.294 251.095L214.677 250.447C214.5 250.565 214.323 250.742 214.146 250.86L199.355 251.449C199.06 251.331 198.707 251.213 198.294 251.095Z" fill="#323A50"/>
<path d="M203.009 252.627L212.614 252.215C212.437 252.333 212.261 252.509 212.084 252.627L204.128 252.922C203.716 252.863 203.362 252.745 203.009 252.627Z" fill="#323A50"/>
<path d="M207.664 254.16L210.375 254.042C210.198 254.16 210.021 254.337 209.844 254.455L208.725 254.513C208.312 254.396 208.018 254.278 207.664 254.16Z" fill="#323A50"/>
<path d="M68.6519 189.927C70.5377 183.681 75.4876 179.438 83.5019 177.375C88.0984 176.197 92.3412 176.079 94.168 176.079C94.2269 175.843 94.3448 175.608 94.5216 175.431C92.9894 175.372 88.3341 175.431 83.3841 176.727C75.3109 178.849 70.0073 183.327 68.1216 189.692C67.7091 190.517 56.1002 214.972 54.6859 229.292C54.3323 233.063 51.268 233.888 45.6698 235.42C41.0734 236.658 34.7091 238.425 26.8716 242.609L27.1662 243.199C34.9448 239.015 41.2502 237.306 45.8466 236.068C51.5037 234.536 54.9216 233.593 55.3341 229.35C56.5126 217.683 64.5269 199.12 67.5912 192.461C67.4144 197.411 70.8912 204.247 77.9037 212.85C84.6216 221.1 94.5805 230.942 107.545 242.256C112.318 246.44 117.209 250.447 121.864 254.277L122.631 254.042C117.916 250.27 112.907 246.027 108.016 241.784C78.7877 216.445 65.2341 198.59 68.6519 189.927Z" fill="#323A50"/>
<path d="M92.1644 182.207C92.2233 181.736 92.8715 179.438 92.9894 179.025C92.9304 178.79 92.0465 180.204 92.1054 179.968C92.1054 179.497 92.4001 179.025 92.8126 178.731C92.7536 178.259 92.7536 178.024 93.2251 177.729C93.1661 177.493 93.6965 177.493 93.7554 177.316C92.9304 178.731 91.9286 180.557 91.634 182.09C90.2786 189.22 101.122 206.015 123.809 232.179C128.818 237.954 133.886 243.611 138.482 248.502L139.189 248.266C118.859 226.286 90.3965 192.991 92.1644 182.207Z" fill="#323A50"/>
<path d="M94.4037 175.372C94.2859 175.49 94.2269 175.608 94.1091 175.726L89.8662 175.549C91.8109 175.431 93.4019 175.372 94.4037 175.372Z" fill="#323A50"/>
<path d="M93.2841 177.494L82.3823 177.081C82.7948 176.963 83.2073 176.845 83.6788 176.728L93.402 177.14C93.343 177.199 93.2841 177.317 93.2841 177.494Z" fill="#323A50"/>
<path d="M92.8128 179.143L78.3164 178.554C78.611 178.436 78.8468 178.318 79.1414 178.2L92.9307 178.731C92.9307 178.789 92.9307 178.848 92.9307 178.907C92.9307 178.966 92.8718 179.084 92.8128 179.143Z" fill="#323A50"/>
<path d="M92.1646 180.853L75.4878 180.205C75.6646 180.087 75.9003 179.969 76.0771 179.792L92.2235 180.44C92.2235 180.558 92.1646 180.735 92.1646 180.853Z" fill="#323A50"/>
<path d="M91.9876 182.443L73.543 181.677C73.7198 181.559 73.8376 181.441 74.0144 181.265L92.0465 181.972C91.9876 182.149 91.9876 182.266 91.9876 182.443Z" fill="#323A50"/>
<path d="M91.9286 184.153L71.834 183.328C71.9518 183.21 72.0697 183.092 72.1876 182.915L91.8697 183.74C91.9286 183.858 91.9286 184.035 91.9286 184.153Z" fill="#323A50"/>
<path d="M92.1644 185.508C92.2233 185.626 92.2233 185.743 92.2822 185.802L70.5376 184.918C70.6555 184.801 70.7144 184.624 70.8322 184.506L92.1644 185.39C92.1644 185.449 92.1644 185.508 92.1644 185.508Z" fill="#323A50"/>
<path d="M92.6949 187.393C92.6949 187.452 92.7538 187.57 92.7538 187.629L69.4771 186.686C69.536 186.568 69.5949 186.391 69.7128 186.273L92.636 187.216C92.6949 187.275 92.6949 187.334 92.6949 187.393Z" fill="#323A50"/>
<path d="M93.4022 188.926L68.9468 187.924C68.8879 188.042 68.8289 188.218 68.77 188.336L93.52 189.338C93.4611 189.22 93.4022 189.043 93.4022 188.926Z" fill="#323A50"/>
<path d="M94.1092 190.693L68.2985 189.633C68.2396 189.751 68.2396 189.868 68.1807 190.045L94.286 191.106C94.2271 190.929 94.1682 190.811 94.1092 190.693Z" fill="#323A50"/>
<path d="M94.934 192.403L67.9447 191.283C67.9447 191.401 67.8857 191.519 67.8857 191.696L95.1107 192.815C95.0518 192.697 94.9929 192.521 94.934 192.403Z" fill="#323A50"/>
<path d="M95.8771 194.17L67.8271 193.051C67.8271 193.169 67.8271 193.345 67.8271 193.463L96.0539 194.583C95.995 194.465 95.9361 194.288 95.8771 194.17Z" fill="#323A50"/>
<path d="M96.7609 195.762L67.9448 194.583C67.9448 194.701 68.0037 194.878 68.0037 194.996L96.9966 196.174C96.9377 196.056 96.8198 195.938 96.7609 195.762Z" fill="#323A50"/>
<path d="M97.8217 197.529L68.3574 196.351C68.4164 196.468 68.4163 196.645 68.4753 196.763L98.0574 197.942C97.9396 197.824 97.8806 197.706 97.8217 197.529Z" fill="#323A50"/>
<path d="M98.8823 199.297L68.8877 198.06C68.9466 198.177 69.0056 198.354 69.0645 198.472L99.177 199.71C99.0591 199.592 98.9413 199.415 98.8823 199.297Z" fill="#323A50"/>
<path d="M100.002 201.065L69.5947 199.827C69.6537 199.945 69.7126 200.122 69.7715 200.24L100.297 201.477C100.179 201.359 100.12 201.182 100.002 201.065Z" fill="#323A50"/>
<path d="M101.122 202.715L70.4199 201.478C70.4789 201.595 70.5378 201.772 70.6556 201.89L101.475 203.127C101.298 203.01 101.181 202.892 101.122 202.715Z" fill="#323A50"/>
<path d="M102.359 204.483L71.3628 203.245C71.4217 203.363 71.5396 203.54 71.5985 203.658L102.654 204.895C102.536 204.777 102.418 204.659 102.359 204.483Z" fill="#323A50"/>
<path d="M103.537 206.25L72.3643 205.013C72.4232 205.131 72.541 205.307 72.6 205.425L103.832 206.663C103.773 206.545 103.655 206.368 103.537 206.25Z" fill="#323A50"/>
<path d="M104.834 208.018L73.543 206.722C73.6608 206.84 73.7198 207.016 73.8376 207.134L105.188 208.431C105.07 208.313 104.952 208.195 104.834 208.018Z" fill="#323A50"/>
<path d="M106.013 209.669L74.6626 208.372C74.7805 208.49 74.8394 208.667 74.9572 208.785L106.366 210.081C106.248 209.963 106.13 209.786 106.013 209.669Z" fill="#323A50"/>
<path d="M107.368 211.436L75.959 210.14C76.0768 210.258 76.1947 210.434 76.2536 210.552L107.663 211.849C107.604 211.731 107.486 211.554 107.368 211.436Z" fill="#323A50"/>
<path d="M108.664 213.205L77.3145 211.908C77.4323 212.026 77.5502 212.203 77.668 212.321L109.018 213.617C108.9 213.499 108.782 213.323 108.664 213.205Z" fill="#323A50"/>
<path d="M110.079 214.972L78.7876 213.676C78.9055 213.794 79.0233 213.97 79.1412 214.088L110.432 215.385C110.314 215.267 110.197 215.09 110.079 214.972Z" fill="#323A50"/>
<path d="M111.434 216.74L80.2021 215.502C80.32 215.62 80.4379 215.797 80.5557 215.914L111.729 217.152C111.67 217.034 111.552 216.857 111.434 216.74Z" fill="#323A50"/>
<path d="M112.848 218.508L81.793 217.271C81.9108 217.388 82.0287 217.565 82.1465 217.683L113.202 218.921C113.084 218.803 112.966 218.626 112.848 218.508Z" fill="#323A50"/>
<path d="M114.263 220.276L83.3252 219.038C83.4431 219.156 83.5609 219.333 83.7377 219.451L114.616 220.688C114.498 220.57 114.381 220.394 114.263 220.276Z" fill="#323A50"/>
<path d="M115.618 221.926L84.8574 220.688C84.9753 220.806 85.0931 220.983 85.2699 221.101L115.972 222.339C115.854 222.221 115.736 222.103 115.618 221.926Z" fill="#323A50"/>
<path d="M116.973 223.575L86.4482 222.338C86.5661 222.456 86.7429 222.633 86.8607 222.75L117.327 223.988C117.209 223.87 117.091 223.693 116.973 223.575Z" fill="#323A50"/>
<path d="M118.447 225.344L88.1572 224.106C88.2751 224.224 88.4519 224.401 88.5697 224.519L118.8 225.756C118.682 225.639 118.564 225.521 118.447 225.344Z" fill="#323A50"/>
<path d="M119.92 227.112L89.9253 225.874C90.0432 225.992 90.2199 226.169 90.3378 226.286L120.274 227.524C120.156 227.406 120.038 227.288 119.92 227.112Z" fill="#323A50"/>
<path d="M121.452 228.938L91.752 227.76C91.8698 227.878 92.0466 228.054 92.1645 228.172L121.806 229.351C121.688 229.174 121.57 229.056 121.452 228.938Z" fill="#323A50"/>
<path d="M122.866 230.588L93.4609 229.409C93.5788 229.527 93.7556 229.704 93.8734 229.822L123.22 231C123.102 230.882 122.984 230.706 122.866 230.588Z" fill="#323A50"/>
<path d="M124.281 232.238L95.1699 231.06C95.3467 231.177 95.4646 231.354 95.6414 231.472L124.693 232.651C124.516 232.474 124.398 232.356 124.281 232.238Z" fill="#323A50"/>
<path d="M125.813 234.006L97.0557 232.827C97.2324 232.945 97.3503 233.122 97.5271 233.24L126.225 234.418C126.049 234.3 125.931 234.124 125.813 234.006Z" fill="#323A50"/>
<path d="M127.345 235.774L98.9414 234.596C99.1182 234.714 99.2361 234.89 99.4128 235.008L127.757 236.128C127.581 236.069 127.463 235.892 127.345 235.774Z" fill="#323A50"/>
<path d="M128.877 237.542L100.827 236.422C101.004 236.54 101.122 236.717 101.299 236.834L129.231 237.954C129.172 237.836 129.054 237.718 128.877 237.542Z" fill="#323A50"/>
<path d="M130.468 239.369L102.831 238.249C103.007 238.367 103.125 238.544 103.302 238.661L130.822 239.781C130.763 239.663 130.645 239.486 130.468 239.369Z" fill="#323A50"/>
<path d="M131.941 241.018L104.716 239.898C104.893 240.016 105.011 240.193 105.188 240.311L132.354 241.431C132.177 241.254 132.059 241.136 131.941 241.018Z" fill="#323A50"/>
<path d="M133.532 242.786L106.72 241.726C106.897 241.843 107.014 242.02 107.191 242.138L133.886 243.199C133.827 243.081 133.709 242.904 133.532 242.786Z" fill="#323A50"/>
<path d="M135.124 244.554L108.724 243.493C108.9 243.611 109.077 243.788 109.195 243.906L135.477 244.966C135.359 244.849 135.241 244.672 135.124 244.554Z" fill="#323A50"/>
<path d="M136.773 246.322L110.845 245.262C111.022 245.38 111.198 245.556 111.316 245.674L137.127 246.735C137.009 246.617 136.891 246.499 136.773 246.322Z" fill="#323A50"/>
<path d="M138.247 247.972L112.73 246.911C112.907 247.029 113.084 247.206 113.202 247.324L138.6 248.325C138.541 248.267 138.364 248.149 138.247 247.972Z" fill="#323A50"/>
<path d="M137.775 249.563L114.675 248.62C114.852 248.738 115.029 248.915 115.206 249.033L136.774 249.917C137.068 249.799 137.422 249.681 137.775 249.563Z" fill="#323A50"/>
<path d="M133.238 251.095L116.855 250.447C117.032 250.565 117.209 250.742 117.386 250.86L132.177 251.449C132.472 251.331 132.884 251.213 133.238 251.095Z" fill="#323A50"/>
<path d="M128.582 252.627L118.977 252.215C119.154 252.333 119.331 252.509 119.507 252.627L127.463 252.922C127.816 252.863 128.17 252.745 128.582 252.627Z" fill="#323A50"/>
<path d="M123.927 254.16L121.216 254.042C121.393 254.16 121.57 254.337 121.747 254.455L122.866 254.513C123.22 254.396 123.573 254.278 123.927 254.16Z" fill="#323A50"/>
<path d="M169.42 102.241V87.5088H162.348V102.241H157.575L165.707 114.498L165.825 114.439L174.37 102.241H169.42Z" fill="#FF4200"/>
<path d="M166.002 81.2038C150.209 81.2038 137.775 77.786 137.775 73.4253C137.775 72.1878 138.777 71.0092 140.722 69.9485C148.972 64.7039 157.163 62.1699 165.708 62.1699H165.943C175.254 62.1699 183.445 64.7628 191.695 70.2431C191.754 70.3021 191.813 70.3021 191.931 70.361C192.049 70.4199 192.166 70.4789 192.343 70.5378L192.815 70.8913H192.756C193.64 71.6574 194.052 72.4824 194.052 73.3074C194.17 77.786 181.795 81.2038 166.002 81.2038ZM165.708 62.7592C157.281 62.7592 149.208 65.2931 141.075 70.4788C139.249 71.4806 138.424 72.4235 138.424 73.4253C138.424 77.3146 151.034 80.6146 166.002 80.6146C180.97 80.6146 193.581 77.3146 193.581 73.3664C193.581 72.6003 193.05 71.7753 192.049 71.0681H191.99C191.931 71.0092 191.872 71.0092 191.754 70.9503C191.636 70.8914 191.518 70.8324 191.4 70.7735C183.209 65.2931 175.136 62.7592 165.943 62.7592H165.708Z" fill="#323A50"/>
<path d="M166.002 79.7309C153.038 79.7309 139.602 77.3148 139.602 73.2487C139.602 69.1827 153.038 66.7666 166.002 66.7666C178.966 66.7666 192.402 69.1827 192.402 73.2487C192.402 77.3148 178.966 79.7309 166.002 79.7309ZM166.002 67.4148C150.563 67.4148 140.25 70.4202 140.25 73.2487C140.25 76.0773 150.622 79.0827 166.002 79.0827C181.441 79.0827 191.754 76.0773 191.754 73.2487C191.754 70.4202 181.382 67.4148 166.002 67.4148Z" fill="#323A50"/>
</g>
<defs>
<linearGradient id="paint0_linear_3618_8436" x1="270.479" y1="226.105" x2="68.6989" y2="78.5208" gradientUnits="userSpaceOnUse">
<stop offset="0.2655" stop-color="#032A3D" stop-opacity="0"/>
<stop offset="0.7809" stop-color="#032A3D"/>
</linearGradient>
<radialGradient id="paint1_radial_3618_8436" cx="0" cy="0" r="1" gradientUnits="userSpaceOnUse" gradientTransform="translate(165.346 218.443) scale(68.1826 67.869)">
<stop offset="0.2655" stop-color="#032A3D" stop-opacity="0"/>
<stop offset="1" stop-color="#032A3D"/>
</radialGradient>
<linearGradient id="paint2_linear_3618_8436" x1="138.618" y1="110.71" x2="188.702" y2="307.313" gradientUnits="userSpaceOnUse">
<stop offset="0.4054" stop-color="#032A3D" stop-opacity="0"/>
<stop offset="1" stop-color="#032A3D"/>
</linearGradient>
<linearGradient id="paint3_linear_3618_8436" x1="102.492" y1="177.923" x2="234.226" y2="301.499" gradientUnits="userSpaceOnUse">
<stop offset="0.2655" stop-color="#032A3D" stop-opacity="0"/>
<stop offset="0.7809" stop-color="#032A3D"/>
</linearGradient>
<linearGradient id="paint4_linear_3618_8436" x1="109.679" y1="170.262" x2="241.412" y2="293.838" gradientUnits="userSpaceOnUse">
<stop offset="0.2655" stop-color="#032A3D" stop-opacity="0"/>
<stop offset="0.7809" stop-color="#032A3D"/>
</linearGradient>
<linearGradient id="paint5_linear_3618_8436" x1="107.114" y1="172.996" x2="238.847" y2="296.573" gradientUnits="userSpaceOnUse">
<stop offset="0.2655" stop-color="#032A3D" stop-opacity="0"/>
<stop offset="0.7809" stop-color="#032A3D"/>
</linearGradient>
<linearGradient id="paint6_linear_3618_8436" x1="82.0412" y1="199.723" x2="213.774" y2="323.3" gradientUnits="userSpaceOnUse">
<stop offset="0.2655" stop-color="#032A3D" stop-opacity="0"/>
<stop offset="0.7809" stop-color="#032A3D"/>
</linearGradient>
<linearGradient id="paint7_linear_3618_8436" x1="100.829" y1="179.697" x2="232.562" y2="303.273" gradientUnits="userSpaceOnUse">
<stop offset="0.2655" stop-color="#032A3D" stop-opacity="0"/>
<stop offset="0.7809" stop-color="#032A3D"/>
</linearGradient>
<linearGradient id="paint8_linear_3618_8436" x1="90.524" y1="190.681" x2="222.257" y2="314.257" gradientUnits="userSpaceOnUse">
<stop offset="0.2655" stop-color="#032A3D" stop-opacity="0"/>
<stop offset="0.7809" stop-color="#032A3D"/>
</linearGradient>
<linearGradient id="paint9_linear_3618_8436" x1="71.8817" y1="210.554" x2="203.615" y2="334.13" gradientUnits="userSpaceOnUse">
<stop offset="0.2655" stop-color="#032A3D" stop-opacity="0"/>
<stop offset="0.7809" stop-color="#032A3D"/>
</linearGradient>
<linearGradient id="paint10_linear_3618_8436" x1="75.0178" y1="207.21" x2="206.751" y2="330.787" gradientUnits="userSpaceOnUse">
<stop offset="0.2655" stop-color="#032A3D" stop-opacity="0"/>
<stop offset="0.7809" stop-color="#032A3D"/>
</linearGradient>
<linearGradient id="paint11_linear_3618_8436" x1="85.3267" y1="196.221" x2="217.06" y2="319.798" gradientUnits="userSpaceOnUse">
<stop offset="0.2655" stop-color="#032A3D" stop-opacity="0"/>
<stop offset="0.7809" stop-color="#032A3D"/>
</linearGradient>
<linearGradient id="paint12_linear_3618_8436" x1="71.8438" y1="210.594" x2="203.577" y2="334.171" gradientUnits="userSpaceOnUse">
<stop offset="0.2655" stop-color="#032A3D" stop-opacity="0"/>
<stop offset="0.7809" stop-color="#032A3D"/>
</linearGradient>
<clipPath id="clip0_3618_8436">
<rect width="330" height="330" fill="white"/>
</clipPath>
</defs>
</svg>
