<svg width="330" height="330" viewBox="0 0 330 330" fill="none" xmlns="http://www.w3.org/2000/svg">
<g clip-path="url(#clip0_3632_75603)">
<path d="M301.895 164.778C301.895 169.208 301.562 173.582 300.842 177.956C300.232 182.275 298.735 188.919 296.795 193.459C291.03 209.018 280.774 222.251 267.193 231.83C253.279 241.686 236.926 246.835 219.797 246.835C207.934 246.835 196.459 244.343 185.816 239.471C175.505 234.765 166.358 228.065 158.764 219.593C157.544 218.431 156.546 217.489 155.715 216.659C151.668 212.728 151.169 212.285 148.453 209.904C148.176 209.627 147.732 209.295 147.4 208.963C144.018 206.083 137.809 200.657 132.488 193.238C126.002 184.213 122.731 174.744 122.565 165.055V164.833C122.62 155.199 126.002 145.62 132.488 136.651C137.809 129.286 144.018 123.805 147.4 120.926C147.788 120.593 148.176 120.261 148.453 119.984C150.504 118.157 151.169 117.493 153.109 115.555C154.163 114.503 155.659 113.063 157.932 110.849C165.582 102.156 174.784 95.2344 185.261 90.3619C196.126 85.3234 207.712 82.7764 219.797 82.7764C230.884 82.7764 241.638 84.9358 251.782 89.1992C261.539 93.2965 270.353 99.2764 277.892 106.807C285.431 114.337 291.362 123.085 295.52 132.885C299.733 142.963 301.895 153.704 301.895 164.778ZM123.286 164.723V164.944C123.452 187.147 141.136 202.429 147.788 208.243C148.176 208.575 148.564 208.907 148.841 209.184C151.613 211.62 152.001 212.008 156.158 215.994C156.99 216.825 158.043 217.822 159.207 218.984C174.562 236.093 196.681 246.005 219.686 246.005C253.501 246.005 284.156 224.743 295.963 193.072C297.904 188.587 299.4 181.998 299.955 177.79C300.675 173.471 301.008 169.097 301.008 164.723C301.008 119.929 264.532 83.4408 219.63 83.4408C196.182 83.4408 173.842 93.5733 158.431 111.236C156.158 113.451 154.661 114.89 153.608 115.942C151.668 117.825 150.947 118.545 148.896 120.372C148.619 120.649 148.176 120.981 147.843 121.313C141.136 127.238 123.452 142.52 123.286 164.723Z" fill="#323A50"/>
<path opacity="0.2" d="M157.877 123.473C156.269 120.594 155.16 118.988 151.724 121.978C146.014 127.017 126.834 142.188 126.612 165.055V165.277C126.778 188.2 146.014 203.315 151.724 208.354C155.16 211.344 157.101 209.018 158.098 207.634C154.329 201.71 151.335 196.394 149.063 189.362C149.007 189.196 144.794 180.392 144.683 165.775C144.683 165.72 144.628 155.809 147.511 146.451C150.67 135.045 154.384 129.564 157.877 123.473Z" fill="url(#paint0_linear_3632_75603)"/>
<path opacity="0.2" d="M220.573 232.661C257.464 232.661 287.371 202.616 287.371 165.554C287.371 128.491 257.464 98.4463 220.573 98.4463C183.681 98.4463 153.775 128.491 153.775 165.554C153.775 202.616 183.681 232.661 220.573 232.661Z" fill="url(#paint1_radial_3632_75603)"/>
<path opacity="0.34" d="M189.363 95.2349C189.197 95.2903 189.086 95.3457 188.864 95.4564C189.363 95.6779 189.751 96.1208 190.029 96.5638C190.86 97.8926 190.417 100.107 188.92 100.827C188.088 101.159 187.312 101.658 186.536 102.101C186.148 102.322 185.76 102.654 185.372 102.931C185.206 103.042 185.206 103.042 185.372 102.931C185.317 102.987 185.206 103.042 185.15 103.097C184.984 103.208 184.818 103.374 184.596 103.485C183.155 104.648 181.824 106.198 180.993 107.305C180.438 108.081 179.995 108.856 179.551 109.576C179.441 109.797 179.33 110.074 179.219 110.295C179.219 110.351 179.219 110.351 179.163 110.351C178.997 110.738 178.886 111.181 178.775 111.569C178.665 112.067 178.554 112.51 178.498 113.008C178.498 113.008 178.387 113.728 178.387 113.673C178.387 113.839 178.332 113.95 178.332 114.171C178.221 115.223 178.221 116.331 178.221 117.493C178.332 121.48 178.997 124.913 179.441 128.844C179.995 132.941 180.272 137.039 180.549 141.136C181.159 149.22 182.101 157.193 182.212 165.332C182.268 169.263 181.547 173.305 180.937 177.181C180.217 181.057 179.718 184.656 179.274 188.421C178.387 196.228 177.944 204.201 178.609 212.064C178.72 213.67 177.334 214.888 175.893 215.109C175.893 215.164 175.893 215.22 175.948 215.275C176.059 215.663 176.17 216.161 176.281 216.604C176.336 216.826 176.447 217.102 176.503 217.379C176.558 217.49 176.558 217.545 176.613 217.601C177.445 219.483 178.498 221.255 179.718 222.861C179.773 222.916 180.05 223.248 180.05 223.248C180.217 223.47 180.383 223.636 180.66 223.913C180.993 224.3 181.381 224.688 181.713 225.076C182.489 225.851 183.266 226.57 184.097 227.235C184.153 227.29 184.208 227.29 184.208 227.346L184.263 227.401C184.485 227.567 184.651 227.678 184.929 227.899C185.261 228.121 185.705 228.453 186.093 228.675C186.425 228.896 186.869 229.062 187.257 229.339C187.368 229.394 188.144 229.616 187.368 229.394C187.589 229.45 187.756 229.56 188.033 229.616C189.696 230.225 190.638 231.664 190.195 233.436C190.084 234.045 189.696 234.488 189.252 234.931C189.363 234.987 189.474 234.876 189.585 234.931C198.732 238.807 208.821 241.133 219.409 241.133C261.483 241.133 295.575 207.081 295.575 165.055C295.575 123.03 261.594 88.9229 219.52 88.9229C208.876 89.0336 198.676 91.193 189.363 95.2349Z" fill="url(#paint2_linear_3632_75603)"/>
<g opacity="0.2">
<path d="M247.902 105.645L247.846 106.143C250.23 106.42 253.334 113.23 253.556 114.67C253.667 115.279 253.501 115.611 253.39 115.943C253.224 116.497 253.002 116.94 253.501 117.826C254.443 119.376 260.153 124.581 262.98 125.799C265.807 126.906 267.359 127.681 268.413 130.339C269.022 131.779 269.022 133.994 269.022 136.264C269.022 138.368 269.022 140.638 269.521 142.299C270.242 144.846 271.351 147.282 272.016 148.5C271.295 147.836 270.575 147.282 269.909 146.673C268.69 145.621 267.526 144.735 267.138 144.071C266.528 143.296 266.306 140.527 265.973 137.648C265.585 133.772 265.087 129.287 263.812 127.958C262.315 126.408 256.827 124.193 252.337 122.421C249.953 121.48 247.902 120.65 247.07 120.207C246.183 119.653 245.241 118.213 244.188 116.663C242.414 114.005 240.418 111.015 237.979 111.071V111.569C240.141 111.514 242.081 114.393 243.744 116.995C244.853 118.712 245.795 120.151 246.793 120.705C247.68 121.259 249.676 121.978 252.115 122.975C256.55 124.747 262.038 126.906 263.424 128.401C263.922 128.955 264.31 129.952 264.532 131.225C264.033 130.395 263.368 129.398 262.481 128.623C260.874 127.349 256.993 126.242 254.942 125.688C254.609 125.577 254.277 125.522 254.055 125.467C253.39 125.301 253.002 125.522 252.558 125.744C252.17 126.02 251.616 126.353 250.507 126.076C249.288 125.854 248.733 125.134 248.124 124.359C247.791 123.806 247.348 123.307 246.682 122.864C245.075 121.923 243.523 122.532 242.636 122.809H242.58C241.97 123.03 242.026 123.584 242.026 123.916C242.081 124.249 242.081 124.581 241.86 124.692C241.638 124.802 241.139 124.525 240.695 124.138C239.975 123.639 239.199 123.086 238.478 123.418L238.644 123.806C239.199 123.584 239.809 124.027 240.418 124.47C241.084 124.858 241.582 125.301 242.137 125.024C242.691 124.747 242.525 124.193 242.525 123.861C242.469 123.473 242.469 123.252 242.691 123.141H242.747C243.578 122.864 244.964 122.311 246.35 123.141C246.904 123.473 247.237 123.972 247.569 124.415C248.179 125.245 248.733 126.076 250.23 126.297C251.505 126.519 252.17 126.186 252.669 125.91C253.002 125.688 253.279 125.577 253.723 125.688C253.889 125.744 254.277 125.799 254.609 125.91C256.494 126.463 260.43 127.515 261.982 128.733C263.701 130.173 264.643 132.554 264.698 132.775C264.92 134.326 265.087 135.987 265.308 137.593C265.641 140.638 265.973 143.296 266.528 144.181C267.027 144.846 268.135 145.787 269.355 146.839C271.85 148.943 275.176 151.822 275.065 153.76C275.009 154.757 274.788 155.864 274.51 157.138C274.011 159.519 273.457 162.176 273.956 165.111C275.065 171.091 276.229 173.139 277.67 174.302C279.001 175.41 280.719 176.074 280.83 176.074L280.996 175.686C280.996 175.686 279.278 175.077 278.003 173.97C276.728 172.863 275.564 170.925 274.455 165.056C273.901 162.232 274.455 159.629 275.009 157.304C275.231 156.141 275.508 154.923 275.619 153.871C275.73 152.376 274.289 150.66 272.459 148.943L272.626 148.888C272.626 148.832 270.741 145.51 269.854 142.133C269.466 140.472 269.466 138.312 269.466 136.208C269.466 133.827 269.466 131.613 268.856 130.062C267.747 127.238 266.084 126.408 263.202 125.301C260.541 124.193 254.831 118.988 253.944 117.604C253.556 116.884 253.667 116.552 253.833 116.054C254 115.722 254.166 115.223 254.055 114.504C253.833 112.953 250.563 105.977 247.902 105.645Z" fill="url(#paint3_linear_3632_75603)"/>
<path d="M258.767 160.626C259.599 161.401 260.929 161.291 262.537 161.18C264.089 161.069 265.752 160.903 267.138 161.512C269.909 162.786 272.016 168.821 272.071 168.876L272.459 168.765C272.404 168.544 270.297 162.564 267.359 161.124C265.807 160.405 264.033 160.515 262.537 160.737C261.04 160.848 259.765 160.958 259.1 160.349C258.379 159.629 257.88 157.193 257.326 154.923C256.716 152.376 256.272 150.217 255.496 149.608C254.776 149.054 254.166 148.943 253.556 148.888C252.891 148.777 252.448 148.722 252.004 148.113C251.838 147.836 251.893 146.286 252.004 144.68C252.226 140.195 252.669 133.44 249.288 131.004C246.627 129.066 244.687 129.73 242.913 130.284C241.472 130.782 240.307 131.17 238.866 130.284C237.757 129.619 237.314 128.457 236.926 127.072C236.094 124.47 235.041 121.259 228.334 119.099C226.726 118.601 225.174 118.878 223.566 119.099C221.515 119.376 219.52 119.764 217.69 118.49L217.469 118.822C219.464 120.151 221.571 119.819 223.677 119.542C225.285 119.321 226.726 119.044 228.223 119.542C234.709 121.536 235.706 124.636 236.538 127.183C237.037 128.678 237.425 129.896 238.7 130.671C240.363 131.613 241.749 131.17 243.135 130.671C244.853 130.062 246.627 129.564 249.066 131.336C252.226 133.606 251.838 140.527 251.616 144.624C251.561 146.23 251.505 147.227 251.561 147.78C250.895 147.559 250.008 147.393 249.011 147.171C247.237 146.895 245.241 146.507 244.188 145.51C243.633 144.957 243.412 144.292 243.135 143.351C242.469 141.081 241.527 137.925 235.097 135.378H235.041C232.824 134.879 231.272 135.433 230.329 135.987C229.941 136.208 229.664 136.707 229.498 137.094C229.276 137.648 228.943 138.202 228.334 138.7C227.17 139.531 220.296 139.807 218.965 139.586C218.854 139.586 218.799 139.531 218.799 139.531C218.744 139.475 218.854 139.198 218.91 138.921C219.132 138.202 219.63 137.039 218.577 135.544L218.245 135.765C219.187 136.984 218.854 137.98 218.522 138.7C218.411 139.032 218.3 139.42 218.411 139.641C218.466 139.752 218.633 139.863 218.91 139.918C220.185 140.14 227.17 139.918 228.611 138.977C229.387 138.423 229.719 137.759 229.941 137.205C230.108 136.817 230.274 136.43 230.606 136.264C231.438 135.765 232.879 135.322 234.986 135.71C241.194 138.146 242.081 141.136 242.691 143.296C242.968 144.292 243.245 145.123 243.855 145.732C245.019 146.839 247.181 147.227 248.955 147.504C250.119 147.67 251.339 147.891 251.782 148.279C252.281 148.943 252.891 149.054 253.556 149.165C254.166 149.275 254.665 149.331 255.275 149.829C255.94 150.327 256.439 152.708 256.938 154.868C257.492 157.47 257.991 159.851 258.767 160.626Z" fill="url(#paint4_linear_3632_75603)"/>
<path d="M212.701 159.962C213.366 159.353 213.81 158.91 215.251 159.187C216.194 159.353 217.524 159.906 218.965 160.405C221.515 161.401 224.065 162.398 225.285 161.955C225.895 161.734 226.283 161.346 226.726 161.014C227.558 160.294 228.444 159.519 231.105 159.962C233.212 160.239 234.819 161.401 236.15 162.343C237.259 163.118 238.256 163.838 239.254 163.672C240.03 163.616 240.474 163.173 241.028 162.786C241.915 162.066 242.857 161.291 245.13 162.287C246.904 163.063 247.348 164.115 247.736 164.945C248.124 165.831 248.512 166.662 250.23 166.385C252.059 166.108 253.224 164.89 254.332 163.838C255.164 163.007 256.051 162.177 257.104 161.678L256.938 161.291C255.774 161.9 254.887 162.73 254 163.561C252.891 164.668 251.838 165.72 250.119 165.997C248.789 166.219 248.512 165.776 248.179 164.89C247.846 164.004 247.292 162.841 245.352 162.011C242.747 160.958 241.693 161.789 240.751 162.62C240.197 163.007 239.809 163.395 239.199 163.45C238.423 163.505 237.536 162.896 236.427 162.177C235.097 161.235 233.434 160.128 231.161 159.74C228.334 159.353 227.336 160.128 226.449 160.903C226.116 161.235 225.673 161.568 225.229 161.734C224.231 162.121 221.571 161.069 219.242 160.183C217.801 159.574 216.471 159.131 215.473 158.91C213.81 158.578 213.2 159.131 212.535 159.796C212.147 160.183 211.648 160.682 210.761 160.848L210.872 161.235C211.703 160.903 212.202 160.349 212.701 159.962Z" fill="url(#paint5_linear_3632_75603)"/>
<path d="M275.73 157.581C274.954 159.187 274.621 163.118 275.065 165.554C275.453 167.935 276.395 171.977 278.114 173.583C279.111 174.469 280.996 175.354 281.107 175.354L281.273 174.967C281.273 174.967 279.333 174.136 278.391 173.25C276.672 171.7 275.785 167.326 275.453 165.499C274.954 162.896 275.453 159.187 276.118 157.858C276.839 156.363 277.892 155.92 278.391 155.865C280.054 155.698 281.44 158.356 281.44 158.412L281.828 158.245C281.772 158.135 280.22 155.256 278.28 155.477C277.615 155.422 276.506 156.086 275.73 157.581Z" fill="url(#paint6_linear_3632_75603)"/>
<path d="M247.569 156.418C247.846 155.587 248.235 154.757 249.011 154.314C249.898 153.649 252.115 152.431 254.111 154.148C254.942 154.867 255.607 156.639 256.162 158.245C256.771 159.906 257.326 161.456 258.102 161.955C258.933 162.508 260.264 162.342 261.927 162.232C263.423 162.121 264.865 162.065 266.029 162.342C268.468 163.062 271.295 169.042 271.351 169.097L271.739 168.931C271.628 168.71 268.801 162.675 266.14 161.955C264.92 161.623 263.257 161.733 261.816 161.844C260.319 161.955 258.933 162.01 258.268 161.622C257.603 161.235 257.104 159.629 256.494 158.079C255.829 156.307 255.219 154.535 254.332 153.76C252.725 152.431 250.674 152.487 248.623 153.926C247.791 154.535 247.403 155.477 247.07 156.307C246.738 157.138 246.405 157.913 245.629 158.245C244.077 158.965 242.469 158.411 241.804 157.47C241.638 157.248 241.527 156.916 241.305 156.695C240.751 155.864 240.307 154.978 239.199 153.926C237.647 152.487 231.549 149.94 228.555 149.441C226.781 149.164 226.005 149.607 225.174 150.161C224.509 150.549 223.899 150.992 222.624 151.102L222.679 151.601C224.01 151.49 224.73 150.992 225.451 150.604C226.227 150.106 226.948 149.718 228.444 149.94C231.327 150.438 237.425 152.93 238.811 154.314C239.864 155.31 240.418 156.141 240.862 156.971C241.028 157.193 241.139 157.525 241.361 157.747C242.081 158.854 244.022 159.518 245.795 158.688C246.793 158.19 247.181 157.304 247.569 156.418Z" fill="url(#paint7_linear_3632_75603)"/>
</g>
<g opacity="0.2">
<path d="M273.956 176.24C272.736 176.406 271.794 177.846 270.796 179.23C270.02 180.337 269.078 181.998 268.246 183.493C267.526 184.767 266.916 185.93 266.528 186.373C266.472 186.483 266.306 186.594 266.195 186.705C265.087 187.425 262.37 187.923 260.264 187.757C259.044 187.701 258.102 187.812 257.326 187.868C256.494 187.978 255.884 188.034 255.386 187.812C254.997 187.646 254.887 187.314 254.831 186.871C254.776 186.373 254.665 185.819 253.889 185.542C253.224 185.321 252.558 185.431 251.838 185.487C251.117 185.597 250.563 185.653 250.119 185.376C249.787 185.099 249.565 184.767 249.454 184.435C249.288 184.047 249.121 183.549 248.512 183.217C247.957 182.884 247.348 183.327 246.461 183.936C245.241 184.822 243.523 185.985 241.416 185.487C239.143 184.933 239.254 184.269 239.365 183.272C239.42 182.774 239.531 182.275 239.31 181.666C238.977 180.725 236.926 179.894 234.819 179.008C233.156 178.289 231.438 177.569 231.05 177.015C230.496 176.295 230.385 175.742 230.274 175.133C230.163 174.524 230.108 174.025 229.498 173.582C228.833 173.029 227.946 173.361 227.225 173.582C226.726 173.693 226.283 173.859 226.061 173.748L225.839 174.081C226.172 174.247 226.726 174.136 227.391 173.97C228.056 173.804 228.833 173.582 229.276 173.915C229.664 174.191 229.775 174.634 229.886 175.133C229.997 175.742 230.108 176.351 230.717 177.181C231.272 177.901 232.879 178.621 234.709 179.285C236.593 180.06 238.644 180.946 238.977 181.722C239.143 182.22 239.088 182.663 239.032 183.161C238.922 184.158 238.755 185.21 241.472 185.874C243.855 186.428 245.574 185.154 246.904 184.269C247.625 183.77 248.179 183.383 248.512 183.549C249.011 183.826 249.121 184.213 249.288 184.601C249.399 184.933 249.565 185.431 250.119 185.764C250.729 186.151 251.394 186.04 252.17 185.93C252.836 185.819 253.445 185.764 254 185.93C254.554 186.096 254.609 186.539 254.665 186.926C254.72 187.314 254.776 187.923 255.496 188.2C256.162 188.421 256.771 188.366 257.658 188.255C258.434 188.144 259.321 188.089 260.485 188.144C261.76 188.255 263.423 188.089 264.865 187.757C263.257 188.753 260.763 190.027 258.268 190.248C256.217 190.415 255.496 190.027 254.388 189.473C253.39 188.92 252.004 188.31 249.177 187.757C245.075 187.037 241.194 188.809 239.199 190.027C238.866 189.916 236.094 189.086 235.318 186.982L234.986 185.93C234.265 183.881 233.655 182.109 233.156 181.168C232.491 179.95 230.44 179.008 229.165 178.732C228.389 178.621 227.946 178.953 227.502 179.341C227.17 179.618 226.726 179.95 226.172 179.95C225.617 179.894 225.174 179.119 224.564 178.233C223.733 177.015 222.679 175.409 220.961 174.8C218.91 174.025 217.967 174.8 217.136 175.465C216.748 175.742 216.36 176.129 215.916 176.24L216.027 176.628C216.637 176.517 217.025 176.074 217.524 175.797C218.355 175.133 219.076 174.579 220.905 175.188C222.513 175.797 223.511 177.237 224.287 178.51C225.008 179.507 225.451 180.337 226.227 180.393C227.059 180.448 227.447 180.116 227.946 179.728C228.278 179.451 228.666 179.119 229.221 179.23C230.551 179.451 232.38 180.393 232.935 181.389C233.434 182.331 234.043 184.158 234.764 186.096L235.097 187.148C235.817 189.141 237.979 190.027 238.922 190.359C238.312 190.691 237.979 191.024 237.979 191.079C237.924 191.134 234.154 195.232 231.272 197.059C228.389 198.941 225.95 198.886 225.118 197.889C224.62 197.336 224.564 196.284 224.509 195.066C224.453 193.958 224.398 192.629 223.954 191.467C223.289 189.695 220.85 188.477 220.074 188.089C219.021 187.535 217.469 187.092 216.748 187.369C215.473 187.868 215.029 189.805 215.029 189.861L215.417 189.916C215.417 189.916 215.75 188.144 216.859 187.757C217.247 187.646 218.411 187.812 219.797 188.477C221.293 189.141 222.957 190.304 223.455 191.522C223.843 192.574 223.843 193.903 224.01 194.955C224.065 196.228 224.121 197.391 224.675 198C225.617 199.107 228.167 199.329 231.383 197.225C234.21 195.398 237.924 191.411 238.145 191.19C238.423 190.968 243.523 187.037 249.177 188.034C252.004 188.532 253.224 189.141 254.221 189.695C254.443 189.805 254.72 189.916 254.942 190.027C253.501 190.581 252.725 190.525 252.059 190.415C251.117 190.359 250.563 190.415 249.842 191.633C248.844 193.294 248.623 196.56 248.512 198.72C248.456 199.606 248.401 200.326 248.345 200.658C248.068 201.987 247.403 202.706 246.239 203.094C245.241 203.371 244.964 203.149 244.41 202.762C244.299 202.651 244.132 202.54 243.911 202.43C243.689 202.264 243.523 201.876 243.245 201.544C242.747 200.713 242.137 199.606 240.529 199.717C239.088 199.772 238.644 200.658 238.145 201.599C237.868 202.264 237.48 202.817 236.87 203.371C235.207 204.589 230.496 206.029 227.946 206.305C225.063 206.582 219.686 206.084 219.353 205.586C219.298 205.42 219.63 204.644 219.963 204.035C220.517 202.928 221.127 201.544 220.905 200.602C220.85 200.436 220.85 200.326 220.795 200.215C220.517 199.052 220.407 198.886 219.187 198.997C218.3 199.052 218.189 199.717 218.134 200.215C218.078 200.547 218.023 200.935 217.801 201.156C217.191 201.654 215.029 201.433 214.198 201.378L214.142 201.765C214.42 201.821 217.191 202.097 218.078 201.488C218.466 201.211 218.577 200.658 218.633 200.326C218.744 199.717 218.799 199.495 219.298 199.44C219.797 199.384 220.018 199.384 220.129 199.495C220.24 199.606 220.296 199.827 220.407 200.381C220.462 200.492 220.462 200.658 220.517 200.769C220.684 201.599 220.129 202.873 219.63 203.925C219.132 204.866 218.91 205.475 219.021 205.807C219.353 206.748 225.839 207.025 228.056 206.804C230.717 206.582 235.485 205.087 237.203 203.814C237.924 203.26 238.312 202.596 238.7 201.931C239.199 201.045 239.531 200.326 240.695 200.27C241.97 200.215 242.525 201.045 243.079 201.876C243.301 202.264 243.578 202.651 243.855 202.873C244.022 202.983 244.132 203.094 244.354 203.205C244.908 203.592 245.352 204.035 246.571 203.703C247.902 203.316 248.623 202.485 249.066 200.99C249.121 200.713 249.177 200.27 249.177 199.717C249.399 200.049 249.399 200.436 249.399 200.824C249.399 201.211 249.343 201.71 249.676 202.153C250.23 202.928 251.117 202.43 251.671 202.097C251.949 201.987 252.281 201.821 252.448 201.821C252.558 201.821 252.669 201.876 252.78 201.987C252.946 202.208 253.002 202.706 252.946 203.316C252.836 204.035 251.782 204.977 251.117 205.53C250.895 205.752 250.618 205.918 250.563 206.084C250.396 206.305 250.396 206.693 250.452 206.97C250.507 207.302 250.507 207.745 250.286 208.077C250.175 208.243 249.953 208.354 249.62 208.409C249.066 208.465 248.512 208.243 248.401 208.133C248.345 208.077 248.345 207.911 248.345 207.634C248.345 207.357 248.345 206.97 248.124 206.693C247.791 206.195 247.07 206.029 246.073 206.084C245.463 206.139 245.463 206.638 245.463 207.025C245.463 207.524 245.407 208.022 244.742 208.243C244.243 208.409 243.8 208.188 243.19 207.856C242.303 207.302 241.194 206.748 239.587 207.634C237.647 208.686 237.868 209.794 237.979 210.68C238.035 210.956 238.09 211.289 238.035 211.455C237.979 211.621 237.868 211.732 237.813 211.732C237.647 211.787 237.48 211.676 237.425 211.621L237.203 211.953C237.259 211.953 237.591 212.23 238.035 212.119C238.256 212.064 238.423 211.898 238.644 211.51C238.755 211.233 238.7 210.846 238.644 210.513C238.534 209.738 238.367 208.797 239.975 207.911C241.416 207.136 242.248 207.69 243.135 208.133C243.8 208.465 244.354 208.852 245.019 208.52C245.962 208.188 245.962 207.413 245.962 206.859C245.962 206.361 246.017 206.305 246.128 206.305C246.96 206.25 247.569 206.361 247.791 206.693C247.902 206.859 247.902 207.081 247.902 207.357C247.902 207.634 247.902 207.967 248.124 208.188C248.345 208.409 249.066 208.742 249.787 208.576C250.175 208.52 250.563 208.354 250.784 208.022C251.117 207.468 251.062 207.025 251.062 206.582C251.062 206.305 251.006 206.084 251.117 205.973C251.173 205.863 251.394 205.752 251.671 205.475C252.392 204.81 253.501 203.814 253.612 202.928C253.612 202.928 253.612 202.928 253.612 202.873C253.723 202.097 253.612 201.599 253.334 201.211C253.168 201.045 252.946 200.935 252.614 200.935C252.337 200.935 252.004 201.101 251.671 201.267C250.951 201.599 250.507 201.876 250.175 201.433C249.953 201.156 249.953 200.769 249.953 200.381C249.953 199.827 250.008 199.218 249.288 198.665C249.288 198.609 249.288 198.554 249.288 198.554C249.399 196.45 249.565 193.238 250.563 191.688C251.283 190.581 251.616 190.636 252.392 190.636C253.168 190.691 254.166 190.747 255.884 189.972C256.605 190.193 257.437 190.304 258.712 190.193C262.758 189.916 266.916 186.705 267.193 186.539C267.359 186.428 267.526 186.262 267.692 186.151C268.025 185.653 268.69 184.545 269.466 183.217C270.297 181.722 271.24 180.116 272.016 178.953C272.903 177.68 273.845 176.295 274.898 176.129C275.397 176.074 275.841 176.185 276.451 176.683C278.502 178.233 285.764 180.227 285.985 180.227L286.041 179.839C285.653 179.784 278.612 177.846 276.672 176.351C275.231 176.295 274.566 176.129 273.956 176.24Z" fill="url(#paint8_linear_3632_75603)"/>
<path d="M275.841 179.341C273.623 180.005 271.24 183.161 270.575 184.158C269.133 186.428 268.911 191.577 269.41 194.014C269.632 195.066 270.02 195.896 270.353 196.561C270.685 197.336 271.073 198 271.073 198.831C271.073 200.658 271.295 201.599 271.96 202.485C272.071 202.651 272.238 202.707 272.348 202.707C272.681 202.707 273.069 202.43 273.402 201.987C273.623 201.71 274.067 201.267 274.233 201.322C274.344 201.322 274.399 201.433 274.455 201.544C275.12 202.707 274.233 203.593 274.178 203.648L274.455 203.925C274.455 203.925 275.619 202.762 274.788 201.267C274.621 200.99 274.455 200.88 274.178 200.769C273.79 200.713 273.346 201.101 272.958 201.544C272.736 201.765 272.404 202.153 272.238 202.153L272.182 202.098C271.572 201.322 271.406 200.381 271.406 198.665C271.406 197.668 271.073 197.004 270.63 196.173C270.353 195.509 269.909 194.734 269.743 193.682C269.244 191.411 269.577 186.317 270.852 184.158C271.628 182.885 273.845 180.061 275.841 179.507C276.395 179.396 277.337 179.618 278.058 179.895C282.105 181.611 284.987 182.275 285.043 182.275L285.098 181.888C285.098 181.888 282.216 181.279 278.224 179.618C277.836 179.618 276.617 179.119 275.841 179.341Z" fill="url(#paint9_linear_3632_75603)"/>
<path d="M275.508 178.344C274.677 178.455 273.79 179.285 273.457 179.562C273.402 179.617 273.402 179.617 273.402 179.617C271.461 181.278 269.632 183.604 269.022 185.21C268.856 185.597 268.745 186.206 268.69 186.871C267.47 189.418 266.971 191.854 266.528 194.235C266.306 195.508 265.973 196.893 265.641 198.166C264.643 201.71 258.712 207.634 258.434 207.911C258.213 208.077 253.057 212.174 251.283 212.507C250.507 212.673 246.682 213.503 245.629 214.002C244.687 214.334 242.968 219.483 242.691 220.48C242.58 222.971 242.358 226.626 242.081 226.903C241.804 227.29 240.418 227.788 239.809 227.678C239.587 227.678 239.42 227.401 239.199 227.069C238.922 226.681 238.478 226.072 237.757 225.961C237.203 225.906 235.706 226.238 233.156 226.903C230.773 227.512 227.558 228.231 226.948 228.065C226.393 227.899 226.338 227.512 226.227 227.235C226.172 226.958 226.061 226.515 225.506 226.404C225.34 226.349 225.229 226.46 225.174 226.515C224.952 226.736 224.952 227.29 225.008 228.01C225.063 228.73 225.118 229.616 224.786 230.003L225.118 230.28C225.506 229.726 225.451 228.785 225.451 228.01C225.451 227.622 225.396 227.013 225.506 226.903C225.728 226.958 225.728 227.013 225.839 227.401C225.95 227.733 226.061 228.287 226.781 228.508C227.447 228.73 229.719 228.231 233.212 227.401C235.152 226.903 237.148 226.46 237.647 226.515C238.201 226.57 238.478 227.069 238.755 227.456C238.977 227.789 239.31 228.231 239.698 228.287C240.418 228.398 241.97 227.899 242.414 227.346C242.747 226.847 243.024 222.141 243.079 220.701C244.022 217.822 245.241 214.721 245.795 214.5C246.627 214.223 249.232 213.559 251.394 213.06C253.279 212.673 258.49 208.52 258.712 208.354C258.933 208.132 264.976 202.097 266.084 198.387C266.417 197.114 266.75 195.73 266.971 194.456C267.304 192.574 267.747 190.636 268.523 188.643C268.413 189.75 268.357 190.913 268.246 192.131C268.191 193.072 268.135 194.013 268.025 194.733C267.415 200.215 266.583 203.315 265.197 205.309C263.59 207.523 257.714 214.334 256.993 214.832C256.661 215.109 256.162 215.22 255.663 215.441C255.275 215.552 254.776 215.663 254.221 215.94C252.337 216.77 250.286 219.981 248.789 222.362C248.013 223.525 247.292 224.632 247.015 224.854C246.461 225.186 246.128 225.075 245.685 224.909C245.407 224.799 244.964 224.632 244.52 224.632V225.02C244.908 225.02 245.241 225.131 245.518 225.242C246.073 225.463 246.516 225.629 247.292 225.186C247.68 224.909 248.345 223.968 249.177 222.584C250.674 220.314 252.669 217.158 254.443 216.327C254.942 216.106 255.386 215.995 255.774 215.94C256.383 215.773 256.827 215.663 257.326 215.275C258.046 214.666 264.033 207.911 265.641 205.641C267.138 203.592 267.914 200.436 268.523 194.844C268.579 194.124 268.634 193.183 268.745 192.242C268.911 189.75 269.078 186.981 269.632 185.653C270.186 184.158 272.016 181.832 273.901 180.226C273.901 180.226 273.956 180.171 274.011 180.171C274.289 179.95 275.12 179.174 275.841 179.064C276.506 178.953 277.726 179.396 279.444 180.06C281.052 180.669 283.103 181.389 285.486 182.054L285.597 181.666C283.158 181.002 281.162 180.337 279.61 179.728C277.448 178.676 276.284 178.178 275.508 178.344Z" fill="url(#paint10_linear_3632_75603)"/>
<path d="M213.477 224.798C213.81 224.854 214.364 225.186 214.974 225.629C216.027 226.349 217.247 227.179 218.3 226.625C218.854 226.349 219.298 225.684 219.852 224.798C220.85 223.248 222.125 221.365 224.453 220.646C228.112 219.428 234.653 216.271 234.709 216.271H234.764C234.819 216.216 239.975 212.451 244.964 213.724L245.075 213.337C239.975 212.008 234.93 215.607 234.542 215.939C234.487 215.939 234.321 216.05 234.043 216.161C233.932 215.607 233.544 214.444 232.547 213.669C231.771 213.06 230.773 212.839 229.609 212.949C227.613 213.171 225.673 214.167 224.01 214.998C222.513 215.773 221.293 216.438 220.407 216.271C219.63 216.216 219.52 215.718 219.353 215.164C219.187 214.444 218.965 213.558 217.413 213.392C215.805 213.226 215.14 214.334 214.53 215.219C214.032 215.939 213.754 216.382 213.256 216.327C211.759 216.216 209.763 214.167 209.763 214.167L209.486 214.444C209.541 214.5 211.592 216.604 213.256 216.825C214.087 216.881 214.475 216.161 214.974 215.496C215.528 214.61 216.083 213.724 217.469 213.835C218.688 213.946 218.91 214.61 219.076 215.275C219.242 215.939 219.409 216.548 220.573 216.714C221.571 216.77 222.846 216.105 224.398 215.386C226.061 214.555 227.89 213.614 229.83 213.392C230.884 213.282 231.771 213.448 232.491 214.001C233.434 214.777 233.711 215.939 233.822 216.382C231.881 217.268 227.336 219.317 224.509 220.258C222.014 221.089 220.684 223.137 219.686 224.632C219.132 225.407 218.744 226.127 218.245 226.349C217.524 226.736 216.415 226.016 215.417 225.352C214.752 224.964 214.253 224.521 213.754 224.466C213.089 224.411 212.147 225.02 211.094 225.684C210.096 226.349 208.987 227.124 208.211 227.235L208.266 227.622C209.153 227.511 210.262 226.736 211.315 226.016C212.036 225.407 213.034 224.743 213.477 224.798Z" fill="url(#paint11_linear_3632_75603)"/>
<path d="M277.337 180.891C276.173 181.445 275.175 182.94 274.399 184.103C274.122 184.49 273.845 184.933 273.679 185.099C273.512 185.265 273.346 185.265 273.124 185.321C272.57 185.432 272.182 185.598 271.683 186.76C270.962 188.477 270.63 192.463 271.517 193.848C271.849 194.401 272.293 194.457 272.57 194.457C273.512 194.346 274.344 193.239 274.677 192.187C274.898 191.467 275.619 191.411 276.395 191.356C277.06 191.301 277.67 191.245 278.058 190.747C278.28 190.47 278.557 190.249 278.723 190.359C278.945 190.415 279.278 190.858 279.388 191.688C279.499 192.962 279.056 195.01 279.056 195.01L279.444 195.121C279.444 195.066 279.998 193.073 279.777 191.633C279.666 190.636 279.278 189.972 278.834 189.861C278.502 189.75 278.003 189.972 277.725 190.47C277.504 190.747 276.949 190.802 276.45 190.858C275.674 190.913 274.677 190.968 274.344 191.965C274.011 192.962 273.235 193.848 272.57 193.903C272.348 193.903 272.071 193.792 271.905 193.571C271.184 192.463 271.406 188.643 272.127 186.927C272.515 185.93 272.903 185.875 273.235 185.819C273.457 185.764 273.79 185.708 274.011 185.487C274.178 185.321 274.399 184.878 274.787 184.435C275.453 183.438 276.45 181.833 277.559 181.39C278.335 181.057 279.167 181.445 280.275 181.999C281.329 182.497 282.715 183.106 284.599 183.328L284.655 182.94C282.881 182.718 281.606 182.109 280.497 181.666C279.222 180.891 278.28 180.504 277.337 180.891Z" fill="url(#paint12_linear_3632_75603)"/>
</g>
<path d="M165.471 204.479C176.891 204.479 186.148 187.324 186.148 166.163C186.148 145.002 176.891 127.848 165.471 127.848C154.052 127.848 144.794 145.002 144.794 166.163C144.794 187.324 154.052 204.479 165.471 204.479Z" fill="#2A697F"/>
<path d="M157.489 183.272C162.081 183.272 165.804 175.736 165.804 166.44C165.804 157.143 162.081 149.607 157.489 149.607C152.896 149.607 149.174 157.143 149.174 166.44C149.174 175.736 152.896 183.272 157.489 183.272Z" fill="#293C4F"/>
<path d="M151.114 166.44C151.114 157.857 154.273 150.715 158.431 149.718C158.154 149.663 157.766 149.607 157.433 149.607C152.832 149.607 149.118 157.138 149.118 166.44C149.118 175.742 152.832 183.272 157.433 183.272C157.766 183.272 158.154 183.217 158.431 183.161C154.329 182.164 151.114 175.077 151.114 166.44Z" fill="#DBDBDB"/>
<path d="M160.205 149.774L158.597 150.106C154.606 151.047 151.613 158.134 151.613 166.384C151.613 174.634 154.606 181.722 158.597 182.663L160.205 182.995L158.597 183.327C158.265 183.438 157.821 183.438 157.489 183.438C155.05 183.438 152.888 181.611 151.225 178.233C149.617 175.022 148.73 170.703 148.73 166.163C148.73 161.623 149.617 157.359 151.225 154.092C152.888 150.715 155.105 148.888 157.489 148.888C157.821 148.888 158.209 148.943 158.597 148.998L160.205 149.774ZM150.726 166.44C150.726 158.91 153.22 152.376 156.657 150.05C152.666 150.881 149.451 157.858 149.451 166.44C149.451 175.022 152.61 181.998 156.657 182.829C153.165 180.503 150.726 173.97 150.726 166.44Z" fill="#323A50"/>
<path d="M144.905 165.997C144.905 187.203 153.941 204.313 165.139 204.313C176.336 204.313 185.372 187.148 185.372 165.997C185.372 144.791 176.336 127.682 165.139 127.682C153.941 127.682 144.905 144.846 144.905 165.997ZM157.6 149.608C157.655 149.608 157.71 149.552 157.71 149.552C157.766 149.552 157.821 149.552 157.877 149.552C162.034 150.272 165.36 157.526 165.36 166.329C165.36 174.911 162.256 182.054 158.154 183.051C158.043 183.051 157.932 183.106 157.877 183.106C157.821 183.106 157.766 183.106 157.71 183.106C157.655 183.106 157.6 183.106 157.544 183.106C157.433 183.106 157.378 183.106 157.211 183.106C157.211 183.106 156.99 183.106 156.823 183.106C156.214 183.051 155.77 182.885 155.216 182.552C154.662 182.331 154.218 181.888 153.719 181.445V181.39C151.003 178.677 149.118 172.863 149.118 166.219C149.118 156.917 152.777 149.331 157.267 149.331V149.497C157.378 149.663 157.489 149.608 157.6 149.608Z" fill="#DBDBDB"/>
<path d="M185.705 165.997C185.705 176.296 183.598 185.985 179.773 193.294C175.893 200.658 170.682 204.7 165.139 204.7C159.595 204.7 154.44 200.658 150.504 193.294C146.679 185.985 144.573 176.296 144.573 165.997C144.573 155.698 146.679 146.009 150.504 138.7C154.384 131.336 159.595 127.294 165.139 127.294C170.682 127.294 175.837 131.336 179.773 138.7C183.654 146.009 185.705 155.698 185.705 165.997ZM145.349 165.997C145.349 186.927 154.274 203.98 165.139 203.98C176.004 203.98 184.929 186.982 184.929 165.997C184.929 145.067 176.004 128.014 165.139 128.014C154.274 128.014 145.349 145.067 145.349 165.997ZM165.859 166.385C165.859 175.078 162.644 182.386 158.376 183.438C158.265 183.438 158.154 183.494 158.043 183.494C157.988 183.494 157.932 183.494 157.877 183.549C157.821 183.549 157.821 183.549 157.766 183.549H157.655C157.544 183.549 157.489 183.549 157.322 183.549H156.934H156.879C156.269 183.494 155.715 183.328 155.105 182.94C154.551 182.663 154.052 182.276 153.553 181.777L153.497 181.722C150.615 178.843 148.786 172.918 148.786 166.274C148.786 161.734 149.672 157.47 151.225 154.148C152.832 150.77 154.994 148.943 157.378 148.943H157.766V149.054C157.821 149.054 157.821 149.054 157.877 149.054C157.932 149.054 157.988 149.054 158.043 149.054C162.422 149.94 165.859 157.304 165.859 166.385ZM157.212 182.774C157.322 182.774 157.378 182.774 157.433 182.774H157.489C157.544 182.774 157.544 182.774 157.6 182.774C157.655 182.774 157.71 182.774 157.766 182.774C157.877 182.774 157.932 182.718 158.043 182.718C161.923 181.777 164.861 174.69 164.861 166.44C164.861 157.913 161.757 150.715 157.71 150.051H157.655C157.6 150.051 157.544 150.106 157.489 150.051H157.433C157.378 150.051 157.322 150.051 157.212 150.051H156.879V149.885C154.994 150.051 153.22 151.767 151.89 154.591C150.338 157.692 149.506 161.9 149.506 166.385C149.506 172.752 151.28 178.566 153.996 181.279L154.052 181.334C154.44 181.722 154.939 182.109 155.382 182.331C155.937 182.552 156.325 182.718 156.879 182.829C156.99 182.774 157.156 182.774 157.212 182.774Z" fill="#323A50"/>
<g opacity="0.3">
<path d="M296.462 165C296.462 165.056 296.462 165.111 296.462 165.111C296.462 178.566 292.693 191.965 285.653 203.814V203.869L285.043 204.478C276.451 219.317 263.091 230.447 246.294 236.648C239.808 239.139 232.879 240.634 225.063 241.299C221.404 241.465 217.967 241.465 214.364 241.299C210.761 241.133 207.102 240.579 202.889 239.693C198.51 238.752 194.242 237.312 189.641 235.319L189.918 234.544C194.463 236.537 198.732 237.977 203.056 238.863C207.324 239.749 210.872 240.302 214.42 240.468C218.023 240.634 221.404 240.634 225.008 240.468C232.713 239.804 239.587 238.364 245.962 235.873C262.592 229.616 275.841 218.653 284.322 203.98V203.925L284.932 203.316C299.068 179.396 299.123 150.77 285.098 126.74C284.322 125.577 283.491 124.304 282.659 122.92C274.455 110.185 262.814 100.661 247.902 94.626C247.181 94.3492 246.405 94.0724 245.74 93.7955C244.964 93.574 244.188 93.2418 243.523 92.965C229.442 88.3693 215.085 87.7603 200.783 91.3593H200.727C200.118 91.47 192.856 93.8509 189.474 95.2905L189.197 94.5153C192.301 93.1865 199.619 90.7502 200.616 90.5841C215.029 86.9851 229.609 87.5388 243.8 92.1898H243.855C244.576 92.4667 245.352 92.7435 246.017 92.965C246.793 93.1864 247.569 93.5187 248.234 93.7955C263.257 99.9415 275.12 109.576 283.38 122.477C284.211 123.916 284.987 125.079 285.819 126.242C292.804 138.312 296.462 151.656 296.462 165Z" fill="#323A50"/>
</g>
<path d="M156.491 89.3658C151.225 93.0755 148.896 99.0554 149.506 107.139C149.839 111.79 151.114 115.777 151.668 117.438C151.502 117.549 151.335 117.715 151.114 117.992C150.559 116.497 149.174 112.233 148.841 107.139C148.231 98.9446 150.726 92.5772 156.103 88.7567C156.768 88.0923 175.837 69.5436 188.754 63.6745C192.19 62.1242 191.913 59.0235 191.581 53.3205C191.304 48.6141 190.86 42.1913 192.357 33.5537L193.022 33.6645C191.581 42.2467 191.969 48.6141 192.246 53.3205C192.579 59.0789 192.856 62.5671 189.031 64.2836C178.498 69.0453 163.753 82.3893 158.486 87.3725C163.032 85.6561 170.516 86.6527 180.771 90.4732C190.527 94.1275 203 100.329 217.579 108.8C223.012 111.956 228.278 115.223 233.323 118.324V119.099C228.334 115.888 222.79 112.565 217.247 109.354C184.374 90.4178 163.42 83.4967 156.491 89.3658Z" fill="#323A50"/>
<path d="M156.713 113.728C156.325 113.95 154.273 115.279 153.996 115.5C153.775 115.5 154.828 114.282 154.662 114.393C154.273 114.503 153.885 115.002 153.719 115.445C153.22 115.555 152.998 115.611 152.888 116.164C152.721 116.164 152.832 116.718 152.666 116.773C153.664 115.555 155.16 114.005 156.435 113.23C162.7 109.742 181.769 114.448 213.366 127.349C220.296 130.173 227.225 133.107 233.212 135.876V136.651C206.271 124.636 166.247 108.69 156.713 113.728Z" fill="#323A50"/>
<path d="M151.058 117.992C151.114 117.881 151.225 117.771 151.28 117.66L149.728 113.784C150.282 115.556 150.726 117.051 151.058 117.992Z" fill="#323A50"/>
<path d="M152.666 116.276L148.841 106.254C148.841 106.641 148.896 107.14 148.896 107.527L152.389 116.497C152.389 116.442 152.5 116.331 152.666 116.276Z" fill="#323A50"/>
<path d="M154.052 115.334L148.952 102.046C148.896 102.323 148.896 102.655 148.896 102.932L153.775 115.611C153.83 115.611 153.886 115.556 153.886 115.556C153.941 115.445 153.996 115.39 154.052 115.334Z" fill="#323A50"/>
<path d="M155.382 114.172L149.506 98.8896C149.451 99.1111 149.395 99.2772 149.34 99.6094L155.05 114.448C155.216 114.338 155.327 114.282 155.382 114.172Z" fill="#323A50"/>
<path d="M156.879 113.507L150.338 96.5645C150.282 96.7306 150.227 96.8967 150.116 97.1735L156.491 113.729C156.602 113.618 156.713 113.563 156.879 113.507Z" fill="#323A50"/>
<path d="M158.431 112.953L151.28 94.46C151.225 94.6261 151.114 94.7368 151.058 94.9583L158.043 113.009C158.154 113.009 158.32 113.009 158.431 112.953Z" fill="#323A50"/>
<path d="M159.817 112.677C159.928 112.677 160.039 112.677 160.15 112.677L152.444 92.7441C152.333 92.8549 152.278 92.9656 152.167 93.0764L159.706 112.677C159.761 112.677 159.761 112.677 159.817 112.677Z" fill="#323A50"/>
<path d="M161.702 112.621C161.757 112.621 161.868 112.621 161.923 112.621L153.664 91.249C153.553 91.3598 153.497 91.4705 153.387 91.5259L161.535 112.621C161.591 112.621 161.646 112.621 161.702 112.621Z" fill="#323A50"/>
<path d="M163.365 112.732L154.717 90.3071C154.828 90.1964 154.939 90.141 154.994 90.0303L163.753 112.787C163.642 112.732 163.476 112.732 163.365 112.732Z" fill="#323A50"/>
<path d="M165.249 112.953L156.103 89.2C156.158 89.1446 156.269 89.0893 156.435 88.9785L165.693 112.953C165.527 112.953 165.36 112.953 165.249 112.953Z" fill="#323A50"/>
<path d="M167.079 113.12L157.544 88.3145C157.655 88.2592 157.766 88.2038 157.877 88.1484L167.522 113.175C167.356 113.175 167.245 113.12 167.079 113.12Z" fill="#323A50"/>
<path d="M169.019 113.396L159.041 87.5941C159.152 87.5388 159.263 87.5388 159.374 87.4834L169.407 113.452C169.352 113.452 169.185 113.452 169.019 113.396Z" fill="#323A50"/>
<path d="M170.848 113.729L160.593 87.2624C160.704 87.2624 160.815 87.207 160.981 87.207L171.292 113.784C171.126 113.84 170.959 113.729 170.848 113.729Z" fill="#323A50"/>
<path d="M172.789 114.171L162.367 87.0957C162.478 87.0957 162.644 87.0957 162.755 87.0957L173.232 114.282C173.121 114.227 172.955 114.171 172.789 114.171Z" fill="#323A50"/>
<path d="M174.784 114.559L164.141 87.041C164.252 87.041 164.418 87.041 164.529 87.041L175.172 114.726C175.117 114.67 174.895 114.615 174.784 114.559Z" fill="#323A50"/>
<path d="M176.78 115.113L165.97 87.1514C166.081 87.1514 166.247 87.1514 166.358 87.2067L177.223 115.224C177.112 115.168 176.891 115.168 176.78 115.113Z" fill="#323A50"/>
<path d="M178.665 115.611L167.744 87.373C167.91 87.373 168.021 87.4284 168.243 87.4284L179.163 115.722C178.997 115.722 178.886 115.611 178.665 115.611Z" fill="#323A50"/>
<path d="M180.771 116.165L169.795 87.7051C169.961 87.7051 170.072 87.7605 170.294 87.8158L181.325 116.276C181.048 116.276 180.937 116.22 180.771 116.165Z" fill="#323A50"/>
<path d="M182.767 116.774L171.68 88.0928C171.846 88.1481 171.957 88.1481 172.179 88.2035L183.266 116.885C183.044 116.885 182.933 116.829 182.767 116.774Z" fill="#323A50"/>
<path d="M184.818 117.383L173.675 88.6465C173.842 88.7019 173.953 88.7019 174.174 88.7572L185.261 117.494C185.095 117.494 184.984 117.438 184.818 117.383Z" fill="#323A50"/>
<path d="M186.703 117.992L175.56 89.2002C175.727 89.2556 175.837 89.3109 176.059 89.3109L187.201 118.158C187.035 118.103 186.869 118.048 186.703 117.992Z" fill="#323A50"/>
<path d="M188.754 118.657L177.611 89.8096C177.778 89.8649 177.888 89.9203 178.166 89.9757L189.308 118.878C189.086 118.768 188.92 118.712 188.754 118.657Z" fill="#323A50"/>
<path d="M190.805 119.321L179.662 90.4736C179.829 90.529 179.995 90.5844 180.217 90.6398L191.359 119.432C191.193 119.487 191.026 119.376 190.805 119.321Z" fill="#323A50"/>
<path d="M192.967 120.041L181.88 91.249C182.046 91.3044 182.212 91.3598 182.434 91.4151L193.521 120.152C193.299 120.152 193.133 120.096 192.967 120.041Z" fill="#323A50"/>
<path d="M195.018 120.76L183.931 92.0791C184.097 92.1345 184.263 92.1898 184.485 92.2452L195.572 120.926C195.35 120.926 195.184 120.871 195.018 120.76Z" fill="#323A50"/>
<path d="M197.124 121.535L186.093 92.9648C186.259 93.0202 186.425 93.0756 186.647 93.1863L197.679 121.757C197.457 121.646 197.29 121.591 197.124 121.535Z" fill="#323A50"/>
<path d="M199.175 122.311L188.199 93.9062C188.366 93.9616 188.532 94.017 188.754 94.1277L199.73 122.477C199.563 122.421 199.342 122.366 199.175 122.311Z" fill="#323A50"/>
<path d="M201.171 123.03L190.25 94.792C190.417 94.8474 190.583 94.9581 190.805 95.0135L201.725 123.196C201.559 123.196 201.393 123.086 201.171 123.03Z" fill="#323A50"/>
<path d="M203.111 123.751L192.246 95.6787C192.412 95.7341 192.579 95.8448 192.8 95.9002L203.61 123.917C203.499 123.862 203.333 123.806 203.111 123.751Z" fill="#323A50"/>
<path d="M205.328 124.581L194.574 96.7305C194.741 96.7858 194.907 96.8966 195.129 96.9519L205.827 124.747C205.606 124.692 205.439 124.637 205.328 124.581Z" fill="#323A50"/>
<path d="M207.38 125.411L196.736 97.7822C196.902 97.8376 197.069 97.9483 197.29 98.0037L207.878 125.467C207.712 125.522 207.546 125.467 207.38 125.411Z" fill="#323A50"/>
<path d="M209.541 126.242L199.009 98.9453C199.175 99.0007 199.342 99.1114 199.563 99.1668L210.096 126.408C209.874 126.408 209.763 126.298 209.541 126.242Z" fill="#323A50"/>
<path d="M211.593 127.017L201.171 99.9971C201.337 100.108 201.504 100.163 201.725 100.274L212.147 127.239C211.87 127.183 211.703 127.128 211.593 127.017Z" fill="#323A50"/>
<path d="M213.533 127.793L203.222 100.994C203.388 101.105 203.555 101.16 203.776 101.271L214.087 127.959C213.865 128.014 213.699 127.904 213.533 127.793Z" fill="#323A50"/>
<path d="M215.695 128.679L205.495 102.268C205.661 102.378 205.827 102.434 206.049 102.544L216.249 128.9C216.027 128.845 215.861 128.789 215.695 128.679Z" fill="#323A50"/>
<path d="M217.801 129.564L207.712 103.485C207.878 103.596 208.045 103.651 208.266 103.762L218.3 129.786C218.189 129.73 217.967 129.62 217.801 129.564Z" fill="#323A50"/>
<path d="M220.018 130.45L210.04 104.703C210.207 104.814 210.373 104.869 210.595 104.98L220.517 130.616C220.296 130.561 220.185 130.505 220.018 130.45Z" fill="#323A50"/>
<path d="M222.18 131.336L212.424 105.977C212.59 106.087 212.757 106.143 212.978 106.253L222.735 131.502C222.458 131.502 222.347 131.391 222.18 131.336Z" fill="#323A50"/>
<path d="M224.121 132.167L214.475 107.14C214.641 107.25 214.808 107.306 215.029 107.416L224.675 132.388C224.453 132.333 224.287 132.277 224.121 132.167Z" fill="#323A50"/>
<path d="M226.338 133.108L216.859 108.524C217.025 108.635 217.191 108.691 217.469 108.801L226.948 133.33C226.671 133.274 226.449 133.164 226.338 133.108Z" fill="#323A50"/>
<path d="M228.5 134.05L219.132 109.798C219.298 109.909 219.464 110.019 219.741 110.075L229.054 134.216C228.833 134.216 228.666 134.105 228.5 134.05Z" fill="#323A50"/>
<path d="M230.662 134.99L221.46 111.126C221.626 111.237 221.792 111.347 222.069 111.403L231.161 135.156C230.994 135.156 230.828 135.045 230.662 134.99Z" fill="#323A50"/>
<path d="M232.658 135.876L223.622 112.455C223.788 112.566 223.954 112.677 224.232 112.732L233.267 136.042C232.99 135.987 232.824 135.932 232.658 135.876Z" fill="#323A50"/>
<path d="M233.933 134.935L225.728 113.729C225.895 113.839 226.061 113.95 226.338 114.061L233.988 133.828C233.933 134.215 233.933 134.603 233.933 134.935Z" fill="#323A50"/>
<path d="M233.932 130.228L228.112 115.168C228.278 115.279 228.444 115.389 228.722 115.5L233.932 129.066C233.932 129.453 233.932 129.841 233.932 130.228Z" fill="#323A50"/>
<path d="M233.877 125.411L230.44 116.607C230.606 116.718 230.773 116.829 231.05 116.94L233.877 124.248C233.877 124.581 233.877 124.968 233.877 125.411Z" fill="#323A50"/>
<path d="M233.822 120.594L232.879 118.103C233.045 118.213 233.212 118.324 233.489 118.435L233.877 119.487C233.822 119.819 233.822 120.207 233.822 120.594Z" fill="#323A50"/>
<path d="M156.491 240.08C151.225 236.37 148.896 230.39 149.506 222.306C149.839 217.655 151.114 213.669 151.668 212.008C151.502 211.897 151.335 211.731 151.114 211.454C150.559 212.949 149.174 217.212 148.841 222.306C148.231 230.501 150.726 236.868 156.103 240.689C156.768 241.353 175.837 259.902 188.754 265.771C192.19 267.322 191.913 270.422 191.581 276.125C191.304 280.832 190.86 287.254 192.357 295.892L193.022 295.781C191.581 287.199 191.969 280.832 192.246 276.125C192.579 270.367 192.856 266.879 189.031 265.162C178.498 260.4 163.753 247.056 158.486 242.073C163.032 243.79 170.516 242.793 180.771 238.973C190.527 235.318 203 229.117 217.579 220.645C223.012 217.489 228.278 214.223 233.323 211.122V210.347C228.334 213.558 222.79 216.88 217.247 220.092C184.374 239.028 163.42 245.949 156.491 240.08Z" fill="#323A50"/>
<path d="M156.713 215.718C156.325 215.496 154.273 214.167 153.996 213.946C153.775 213.946 154.828 215.164 154.662 215.053C154.273 214.943 153.885 214.444 153.719 214.001C153.22 213.891 152.998 213.835 152.888 213.281C152.721 213.281 152.832 212.728 152.666 212.672C153.664 213.891 155.16 215.441 156.435 216.216C162.7 219.704 181.769 214.998 213.366 202.097C220.296 199.273 227.225 196.339 233.212 193.57V192.795C206.271 204.81 166.247 220.756 156.713 215.718Z" fill="#323A50"/>
<path d="M151.058 211.454C151.114 211.565 151.225 211.676 151.28 211.786L149.728 215.662C150.282 213.89 150.726 212.395 151.058 211.454Z" fill="#323A50"/>
<path d="M152.666 213.226L148.841 223.248C148.841 222.861 148.896 222.362 148.896 221.975L152.389 213.005C152.389 213.005 152.5 213.116 152.666 213.226Z" fill="#323A50"/>
<path d="M154.052 214.112L148.952 227.4C148.896 227.124 148.896 226.791 148.896 226.515L153.775 213.835C153.83 213.835 153.885 213.89 153.885 213.89C153.941 214.001 153.996 214.056 154.052 214.112Z" fill="#323A50"/>
<path d="M155.382 215.275L149.506 230.557C149.451 230.335 149.395 230.169 149.34 229.837L155.05 214.998C155.216 215.164 155.327 215.22 155.382 215.275Z" fill="#323A50"/>
<path d="M156.879 215.939L150.338 232.882C150.282 232.716 150.227 232.55 150.116 232.273L156.491 215.718C156.602 215.884 156.713 215.939 156.879 215.939Z" fill="#323A50"/>
<path d="M158.431 216.493L151.28 234.986C151.225 234.82 151.114 234.709 151.058 234.488L158.043 216.438C158.154 216.438 158.32 216.493 158.431 216.493Z" fill="#323A50"/>
<path d="M159.817 216.77C159.928 216.77 160.039 216.77 160.149 216.77L152.444 236.702C152.333 236.592 152.278 236.481 152.167 236.37L159.706 216.77C159.761 216.77 159.761 216.77 159.817 216.77Z" fill="#323A50"/>
<path d="M161.702 216.825C161.757 216.825 161.868 216.825 161.923 216.825L153.664 238.198C153.553 238.087 153.497 237.976 153.387 237.921L161.535 216.825C161.591 216.825 161.646 216.825 161.702 216.825Z" fill="#323A50"/>
<path d="M163.365 216.715L154.717 239.139C154.828 239.25 154.939 239.305 154.994 239.416L163.753 216.659C163.642 216.715 163.476 216.715 163.365 216.715Z" fill="#323A50"/>
<path d="M165.249 216.548L156.103 240.191C156.158 240.246 156.269 240.302 156.435 240.412L165.693 216.438C165.527 216.493 165.36 216.548 165.249 216.548Z" fill="#323A50"/>
<path d="M167.079 216.327L157.544 241.132C157.655 241.188 157.766 241.243 157.877 241.298L167.522 216.271C167.356 216.271 167.245 216.327 167.079 216.327Z" fill="#323A50"/>
<path d="M169.019 216.049L159.041 241.852C159.152 241.907 159.263 241.907 159.373 241.962L169.407 215.994C169.352 215.994 169.185 216.049 169.019 216.049Z" fill="#323A50"/>
<path d="M170.848 215.717L160.593 242.184C160.704 242.184 160.815 242.239 160.981 242.239L171.292 215.662C171.125 215.607 170.959 215.717 170.848 215.717Z" fill="#323A50"/>
<path d="M172.789 215.33L162.367 242.406C162.478 242.406 162.644 242.406 162.755 242.406L173.232 215.22C173.121 215.22 172.955 215.275 172.789 215.33Z" fill="#323A50"/>
<path d="M174.784 214.887L164.141 242.405C164.252 242.405 164.418 242.405 164.529 242.405L175.172 214.721C175.117 214.831 174.895 214.831 174.784 214.887Z" fill="#323A50"/>
<path d="M176.78 214.333L165.97 242.295C166.081 242.295 166.247 242.295 166.358 242.239L177.223 214.223C177.112 214.278 176.891 214.333 176.78 214.333Z" fill="#323A50"/>
<path d="M178.664 213.89L167.744 242.129C167.91 242.129 168.021 242.073 168.243 242.073L179.163 213.78C178.997 213.724 178.886 213.835 178.664 213.89Z" fill="#323A50"/>
<path d="M180.771 213.282L169.795 241.741C169.961 241.741 170.072 241.686 170.294 241.631L181.325 213.171C181.048 213.226 180.937 213.282 180.771 213.282Z" fill="#323A50"/>
<path d="M182.767 212.672L171.68 241.353C171.846 241.298 171.957 241.298 172.179 241.243L183.266 212.562C183.044 212.617 182.933 212.617 182.767 212.672Z" fill="#323A50"/>
<path d="M184.818 212.063L173.675 240.799C173.842 240.744 173.953 240.744 174.174 240.689L185.261 211.952C185.095 212.008 184.984 212.063 184.818 212.063Z" fill="#323A50"/>
<path d="M186.702 211.454L175.56 240.246C175.726 240.191 175.837 240.135 176.059 240.135L187.201 211.288C187.035 211.343 186.869 211.454 186.702 211.454Z" fill="#323A50"/>
<path d="M188.754 210.79L177.611 239.637C177.778 239.582 177.888 239.527 178.166 239.471L189.308 210.624C189.086 210.679 188.92 210.735 188.754 210.79Z" fill="#323A50"/>
<path d="M190.805 210.126L179.662 238.973C179.829 238.918 179.995 238.862 180.217 238.807L191.359 210.015C191.193 209.96 191.026 210.07 190.805 210.126Z" fill="#323A50"/>
<path d="M192.967 209.406L181.88 238.198C182.046 238.142 182.212 238.087 182.434 238.031L193.521 209.295C193.299 209.295 193.133 209.35 192.967 209.406Z" fill="#323A50"/>
<path d="M195.018 208.686L183.931 237.367C184.097 237.311 184.263 237.256 184.485 237.201L195.572 208.52C195.35 208.575 195.184 208.63 195.018 208.686Z" fill="#323A50"/>
<path d="M197.124 207.911L186.093 236.481C186.259 236.426 186.425 236.371 186.647 236.26L197.678 207.689C197.457 207.8 197.29 207.856 197.124 207.911Z" fill="#323A50"/>
<path d="M199.175 207.136L188.199 235.54C188.365 235.485 188.532 235.429 188.754 235.319L199.729 206.97C199.563 207.025 199.341 207.08 199.175 207.136Z" fill="#323A50"/>
<path d="M201.171 206.416L190.25 234.654C190.417 234.599 190.583 234.488 190.805 234.433L201.725 206.25C201.559 206.25 201.393 206.361 201.171 206.416Z" fill="#323A50"/>
<path d="M203.111 205.695L192.246 233.768C192.412 233.712 192.579 233.601 192.8 233.546L203.61 205.529C203.499 205.585 203.333 205.64 203.111 205.695Z" fill="#323A50"/>
<path d="M205.328 204.865L194.574 232.716C194.74 232.661 194.907 232.55 195.129 232.495L205.827 204.699C205.606 204.755 205.439 204.81 205.328 204.865Z" fill="#323A50"/>
<path d="M207.379 204.034L196.736 231.664C196.902 231.608 197.069 231.497 197.29 231.442L207.878 203.979C207.712 203.924 207.546 203.979 207.379 204.034Z" fill="#323A50"/>
<path d="M209.541 203.204L199.009 230.501C199.175 230.446 199.342 230.335 199.563 230.28L210.096 203.038C209.874 203.093 209.763 203.149 209.541 203.204Z" fill="#323A50"/>
<path d="M211.592 202.429L201.171 229.45C201.337 229.339 201.503 229.284 201.725 229.173L212.147 202.208C211.87 202.263 211.703 202.319 211.592 202.429Z" fill="#323A50"/>
<path d="M213.533 201.599L203.166 228.397C203.333 228.287 203.499 228.231 203.721 228.121L214.032 201.433C213.865 201.488 213.699 201.543 213.533 201.599Z" fill="#323A50"/>
<path d="M215.695 200.823L205.495 227.234C205.661 227.123 205.827 227.068 206.049 226.957L216.249 200.602C216.027 200.602 215.861 200.657 215.695 200.823Z" fill="#323A50"/>
<path d="M217.801 199.937L207.712 226.016C207.878 225.905 208.045 225.85 208.266 225.739L218.3 199.716C218.189 199.716 217.967 199.882 217.801 199.937Z" fill="#323A50"/>
<path d="M220.018 199.052L210.04 224.799C210.207 224.688 210.373 224.632 210.595 224.522L220.517 198.886C220.296 198.886 220.185 198.941 220.018 199.052Z" fill="#323A50"/>
<path d="M222.18 198.11L212.424 223.469C212.59 223.359 212.757 223.303 212.978 223.193L222.735 197.944C222.458 197.944 222.347 198.055 222.18 198.11Z" fill="#323A50"/>
<path d="M224.121 197.28L214.475 222.307C214.641 222.196 214.808 222.141 215.029 222.03L224.62 197.059C224.453 197.114 224.287 197.225 224.121 197.28Z" fill="#323A50"/>
<path d="M226.338 196.338L216.803 220.977C216.969 220.866 217.136 220.811 217.413 220.7L226.892 196.172C226.67 196.172 226.449 196.283 226.338 196.338Z" fill="#323A50"/>
<path d="M228.5 195.452L219.132 219.704C219.298 219.593 219.464 219.482 219.741 219.427L229.054 195.286C228.833 195.286 228.666 195.342 228.5 195.452Z" fill="#323A50"/>
<path d="M230.662 194.456L221.46 218.209C221.626 218.098 221.792 217.988 222.069 217.932L231.216 194.234C230.994 194.345 230.828 194.4 230.662 194.456Z" fill="#323A50"/>
<path d="M232.658 193.57L223.622 216.992C223.788 216.881 223.954 216.77 224.232 216.715L233.267 193.404C232.99 193.46 232.824 193.515 232.658 193.57Z" fill="#323A50"/>
<path d="M233.932 194.512L225.728 215.773C225.895 215.663 226.061 215.552 226.338 215.441L233.988 195.674C233.932 195.232 233.932 194.844 233.932 194.512Z" fill="#323A50"/>
<path d="M233.932 199.273L228.112 214.334C228.278 214.223 228.444 214.112 228.722 214.002L233.988 200.492C233.932 200.049 233.932 199.606 233.932 199.273Z" fill="#323A50"/>
<path d="M233.877 204.09L230.44 212.894C230.606 212.783 230.773 212.672 231.05 212.561L233.877 205.253C233.877 204.865 233.877 204.477 233.877 204.09Z" fill="#323A50"/>
<path d="M233.822 208.907L232.879 211.399C233.046 211.288 233.212 211.177 233.489 211.067L233.877 210.015C233.822 209.627 233.822 209.295 233.822 208.907Z" fill="#323A50"/>
<path d="M115.303 165.72C115.303 171.146 110.868 175.576 105.436 175.576C100.114 175.576 85.147 166.44 84.5372 166.052L84.0383 165.775L84.5372 165.499C85.2024 165.166 100.225 155.975 105.436 155.975C110.868 155.92 115.303 160.294 115.303 165.72ZM85.4242 165.72C88.1405 167.326 100.946 174.856 105.491 174.856C110.536 174.856 114.638 170.759 114.638 165.72C114.638 160.682 110.536 156.584 105.491 156.584C100.89 156.584 88.0296 164.114 85.4242 165.72Z" fill="#323A50"/>
<path d="M102.387 171.699L102.221 172.419C98.3958 171.478 91.4111 167.768 91.1339 167.602L91.4111 166.938C91.5774 166.993 98.673 170.758 102.387 171.699Z" fill="#323A50"/>
<path d="M110.702 170.26C108.152 173.416 103.828 172.807 103.607 172.807L103.717 172.088C103.773 172.088 107.82 172.697 110.092 169.817L110.702 170.26Z" fill="#323A50"/>
<path d="M22.1737 162.176H7.31732V168.599H22.1737V173.748L34.1475 165.665V165.609L22.1737 157.138V162.176Z" fill="#FF4200"/>
<path d="M85.0361 151.711C85.0361 157.138 80.6014 161.567 75.1688 161.567C69.8471 161.567 54.8799 152.431 54.2701 152.044L53.7712 151.767L54.2701 151.49C54.9353 151.158 69.958 141.966 75.1688 141.966C80.6568 141.911 85.0361 146.285 85.0361 151.711ZM55.1571 151.711C57.8733 153.317 70.6787 160.847 75.2243 160.847C80.2688 160.847 84.3709 156.75 84.3709 151.711C84.3709 146.673 80.2688 142.575 75.2243 142.575C70.6787 142.575 57.8179 150.05 55.1571 151.711Z" fill="#323A50"/>
<path d="M72.1199 157.636L71.9536 158.356C68.1287 157.414 61.144 153.705 60.8668 153.538L61.144 152.874C61.3657 152.929 68.4058 156.694 72.1199 157.636Z" fill="#323A50"/>
<path d="M80.4351 156.196C77.8851 159.352 73.5612 158.743 73.3395 158.743L73.4503 158.023C73.5058 158.023 77.5525 158.632 79.8253 155.753L80.4351 156.196Z" fill="#323A50"/>
<path d="M70.5678 177.569C70.5678 182.995 66.133 187.425 60.7005 187.425C55.3788 187.425 40.4115 178.289 39.8018 177.901L39.3029 177.625L39.8018 177.348C40.467 177.016 55.4897 167.824 60.7005 167.824C66.133 167.714 70.5678 172.143 70.5678 177.569ZM40.6333 177.569C43.3496 179.175 56.1549 186.705 60.7005 186.705C65.745 186.705 69.8471 182.608 69.8471 177.569C69.8471 172.531 65.745 168.433 60.7005 168.433C56.0994 168.433 43.3496 175.964 40.6333 177.569Z" fill="#323A50"/>
<path d="M57.6516 183.549L57.4853 184.269C53.6603 183.327 46.6756 179.618 46.3984 179.452L46.6756 178.787C46.7865 178.842 53.8821 182.608 57.6516 183.549Z" fill="#323A50"/>
<path d="M65.9113 182.109C63.3613 185.265 59.0375 184.656 58.8157 184.656L58.9266 183.936C58.982 183.936 63.0287 184.545 65.3015 181.666L65.9113 182.109Z" fill="#323A50"/>
</g>
<defs>
<linearGradient id="paint0_linear_3632_75603" x1="228.321" y1="62.1202" x2="83.307" y2="260.619" gradientUnits="userSpaceOnUse">
<stop offset="0.2655" stop-color="#032A3D" stop-opacity="0"/>
<stop offset="0.7809" stop-color="#032A3D"/>
</linearGradient>
<radialGradient id="paint1_radial_3632_75603" cx="0" cy="0" r="1" gradientUnits="userSpaceOnUse" gradientTransform="translate(220.496 165.588) rotate(-90) scale(67.0685 66.8354)">
<stop offset="0.2655" stop-color="#032A3D" stop-opacity="0"/>
<stop offset="1" stop-color="#032A3D"/>
</radialGradient>
<linearGradient id="paint2_linear_3632_75603" x1="114.595" y1="191.733" x2="308.265" y2="142.339" gradientUnits="userSpaceOnUse">
<stop offset="0.4054" stop-color="#032A3D" stop-opacity="0"/>
<stop offset="1" stop-color="#032A3D"/>
</linearGradient>
<linearGradient id="paint3_linear_3632_75603" x1="180.779" y1="227.298" x2="302.377" y2="97.5214" gradientUnits="userSpaceOnUse">
<stop offset="0.2655" stop-color="#032A3D" stop-opacity="0"/>
<stop offset="0.7809" stop-color="#032A3D"/>
</linearGradient>
<linearGradient id="paint4_linear_3632_75603" x1="173.206" y1="220.203" x2="294.805" y2="90.4262" gradientUnits="userSpaceOnUse">
<stop offset="0.2655" stop-color="#032A3D" stop-opacity="0"/>
<stop offset="0.7809" stop-color="#032A3D"/>
</linearGradient>
<linearGradient id="paint5_linear_3632_75603" x1="176.027" y1="222.847" x2="297.626" y2="93.0695" gradientUnits="userSpaceOnUse">
<stop offset="0.2655" stop-color="#032A3D" stop-opacity="0"/>
<stop offset="0.7809" stop-color="#032A3D"/>
</linearGradient>
<linearGradient id="paint6_linear_3632_75603" x1="202.276" y1="247.441" x2="323.874" y2="117.664" gradientUnits="userSpaceOnUse">
<stop offset="0.2655" stop-color="#032A3D" stop-opacity="0"/>
<stop offset="0.7809" stop-color="#032A3D"/>
</linearGradient>
<linearGradient id="paint7_linear_3632_75603" x1="182.571" y1="228.977" x2="304.169" y2="99.2002" gradientUnits="userSpaceOnUse">
<stop offset="0.2655" stop-color="#032A3D" stop-opacity="0"/>
<stop offset="0.7809" stop-color="#032A3D"/>
</linearGradient>
<linearGradient id="paint8_linear_3632_75603" x1="193.624" y1="239.334" x2="315.222" y2="109.557" gradientUnits="userSpaceOnUse">
<stop offset="0.2655" stop-color="#032A3D" stop-opacity="0"/>
<stop offset="0.7809" stop-color="#032A3D"/>
</linearGradient>
<linearGradient id="paint9_linear_3632_75603" x1="212.919" y1="257.414" x2="334.518" y2="127.637" gradientUnits="userSpaceOnUse">
<stop offset="0.2655" stop-color="#032A3D" stop-opacity="0"/>
<stop offset="0.7809" stop-color="#032A3D"/>
</linearGradient>
<linearGradient id="paint10_linear_3632_75603" x1="209.775" y1="254.467" x2="331.374" y2="124.69" gradientUnits="userSpaceOnUse">
<stop offset="0.2655" stop-color="#032A3D" stop-opacity="0"/>
<stop offset="0.7809" stop-color="#032A3D"/>
</linearGradient>
<linearGradient id="paint11_linear_3632_75603" x1="198.875" y1="244.254" x2="320.473" y2="114.476" gradientUnits="userSpaceOnUse">
<stop offset="0.2655" stop-color="#032A3D" stop-opacity="0"/>
<stop offset="0.7809" stop-color="#032A3D"/>
</linearGradient>
<linearGradient id="paint12_linear_3632_75603" x1="212.982" y1="257.472" x2="334.58" y2="127.695" gradientUnits="userSpaceOnUse">
<stop offset="0.2655" stop-color="#032A3D" stop-opacity="0"/>
<stop offset="0.7809" stop-color="#032A3D"/>
</linearGradient>
<clipPath id="clip0_3632_75603">
<rect width="330" height="330" fill="white"/>
</clipPath>
</defs>
</svg>
