<svg width="320" height="200" viewBox="0 0 320 200" fill="none" xmlns="http://www.w3.org/2000/svg">
<g clip-path="url(#clip0_6246_29523)">
<path opacity="0.2" d="M151.401 24.0999C146.201 24.3999 137.101 26.3999 131.601 27.9999C128.301 28.9999 125.801 26.3999 124.901 25.7999C119.101 29.4999 116.501 30.1999 115.401 31.3999C113.801 32.9999 112.501 33.6999 111.001 35.3999L110.301 36.3999C110.101 36.5999 109.701 37.0999 109.601 37.2999C109.401 37.6999 108.901 37.9999 108.701 38.3999C108.601 38.5999 108.101 39.0999 108.101 39.2999C107.901 39.7999 107.401 39.6999 107.201 40.1999C106.501 42.0999 105.601 42.7999 104.501 44.3999C104.601 44.9999 103.501 46.2999 103.301 46.7999C103.001 47.9999 101.401 50.8999 101.001 52.0999C98.6008 58.7999 97.6008 69.1999 97.3008 69.3999C96.9008 69.9999 95.6008 66.5999 98.0008 56.4999C98.1008 56.1999 97.5008 54.1999 97.3008 53.9999L96.1008 53.8999C95.8008 53.8999 95.0008 56.8999 94.7008 56.8999C94.6008 56.8999 94.7008 69.3999 94.7008 69.3999C94.6008 69.3999 92.5008 70.2999 92.4008 70.2999C91.3008 70.4999 94.0008 55.4999 92.9008 55.7999C92.7008 55.7999 93.1008 52.0999 92.9008 52.1999C92.8008 52.1999 91.7008 51.6999 91.6008 51.7999C91.6008 51.9999 91.1008 52.6999 90.3008 52.2999C90.1008 53.5999 89.1008 54.1999 88.0008 54.7999C88.0008 54.9999 87.7008 55.0999 87.6008 55.3999C87.3008 56.2999 87.2008 57.1999 86.7008 57.9999C86.7008 58.3999 86.3008 58.7999 86.1008 59.1999C86.0008 59.3999 86.0008 59.4999 85.9008 59.6999C85.8008 60.3999 85.7008 60.9999 85.4008 61.5999V61.7999C85.4008 61.8999 85.6008 62.0999 85.6008 62.1999C85.7008 63.5999 85.6008 64.7999 85.1008 66.0999C85.1008 66.1999 85.0008 66.2999 85.0008 66.3999C85.0008 66.8999 84.9008 67.2999 84.7008 67.7999C84.9008 68.7999 84.9008 69.6999 84.5008 70.5999C84.5008 70.8999 84.7008 71.3999 84.6008 71.6999C84.6008 71.7999 84.5008 72.2999 84.5008 72.3999C84.5008 73.2999 84.3008 73.6999 84.3008 74.5999V75.3999C84.3008 75.7999 84.4008 76.1999 84.5008 76.5999C84.8008 78.6999 85.0008 80.7999 84.9008 82.8999C84.9008 83.1999 85.0008 83.3999 85.1008 83.6999C85.1008 83.6999 85.5008 84.4999 85.5008 84.5999C85.9008 84.8999 85.7008 84.5999 86.0008 84.9999C86.3008 82.7999 86.8008 80.5999 87.5008 78.3999C88.3008 75.9999 89.4008 73.0999 91.4008 71.3999C92.8008 70.1999 94.4008 69.7999 96.0008 69.9999C98.2008 69.6999 100.201 70.2999 100.901 72.3999L101.901 73.1999C102.001 73.2999 102.201 73.4999 102.301 73.6999C102.401 73.8999 102.801 73.9999 102.901 74.1999C103.501 74.8999 103.701 75.7999 104.301 76.4999C105.901 78.4999 106.601 79.5999 107.301 81.9999C107.401 82.2999 107.801 84.1999 107.801 84.4999C108.801 86.5999 108.701 88.3999 109.001 90.6999C109.201 91.9999 109.201 93.2999 109.201 94.5999C109.701 96.2999 110.201 98.0999 110.201 99.8999C110.201 101.8 110.601 104.1 110.401 106C110.001 110.2 108.701 114 107.401 118C106.701 120.3 106.601 122.2 105.101 124.1C104.601 124.6 104.601 125.8 104.101 126.3C103.901 126.7 103.201 127.2 102.901 127.6C102.001 128.8 99.9008 130.8 98.7008 131.1C96.5008 133 91.9008 131.6 90.5008 129C88.5008 125.2 87.0008 121.9 86.5008 117.7C86.4008 117.8 85.9008 117.4 85.8008 117.5C84.8008 118.7 84.1008 126.3 84.7008 135C84.8008 136.4 85.6008 141.4 88.4008 146.5C88.6008 146.8 90.0008 149.4 91.7008 148.7C94.3008 147.7 91.8008 132.5 92.4008 131.5C92.5008 131.3 95.0008 131.5 94.7008 133.2C93.8008 137.8 94.2008 142.5 95.0008 145.4C95.5008 147.4 97.0008 146.4 96.9008 146C96.3008 139.7 96.7008 133.3 96.7008 132.6C96.6008 132.7 98.2008 132 98.5008 131.9C99.0008 160.2 120.801 174.4 126.201 176C127.601 175.1 132.001 173.1 134.501 173.9C139.001 175.4 148.101 176.9 153.201 176.9C193.601 177.4 228.501 145 228.501 100.6C228.501 70.0999 213.701 45.1999 188.101 31.5999C176.501 25.2999 162.701 23.5999 151.401 24.0999Z" fill="url(#paint0_radial_6246_29523)"/>
<path opacity="0.2" d="M77.1992 49.6C77.1992 49.6 49.4992 98.3 76.8992 148.7C76.8992 148.7 49.6992 134.4 46.3992 104.9C46.1992 100.2 46.8992 95.3 46.8992 95.3C49.5992 72 77.1992 49.6 77.1992 49.6Z" fill="url(#paint1_radial_6246_29523)"/>
<path d="M150.5 192.5C137.1 192.5 124.2 189.7 112.2 184.2C100.6 178.9 90.3 171.3 81.7 161.8C80.3 160.4 79.1 159.3 78.1 158.3C73.6 153.9 73.2 153.5 70.1 150.8C69.7 150.5 69.3 150.1 68.9 149.7C65.1 146.4 58.1 140.3 52.1 132C44.8 121.8 41 111.1 41 100.2V99.9C41.1 89 44.8 78.3 52.1 68.1C58.1 59.8 65.1 53.7 68.9 50.4C69.4 50 69.8 49.7 70.1 49.3C72.4 47.3 73.2 46.5 75.3 44.5C76.5 43.3 78.2 41.7 80.8 39.1C89.4 29.3 99.7 21.5 111.5 16C123.7 10.3 136.8 7.5 150.4 7.5C162.9 7.5 175 9.9 186.4 14.8C197.4 19.5 207.3 26.1 215.8 34.6C224.3 43.1 231 53 235.6 64C240.4 75.4 242.9 87.5 242.9 100C242.9 102.3 242.9 107.6 245.7 110.5C246.9 111.7 248.7 112.3 250.8 112.3H252.1C259.2 112.3 271 112.2 278.6 114.9L278.1 116.2C270.8 113.6 259.1 113.7 252.1 113.7H250.8C248.3 113.7 246.2 113 244.7 111.4C241.5 108.2 241.5 102.4 241.5 100C241.5 49.7 200.6 8.9 150.4 8.9C124.1 8.9 99.1 20.2 81.8 40C79.2 42.5 77.5 44.2 76.3 45.4C74.2 47.5 73.4 48.3 71.1 50.3C70.7 50.6 70.3 51 69.9 51.4C62.5 57.9 42.7 75 42.5 99.9V100.2C42.7 125.1 62.5 142.2 69.9 148.7C70.4 149.1 70.8 149.4 71.1 149.8C74.2 152.5 74.6 153 79.1 157.3C80.1 158.2 81.3 159.4 82.7 160.8C100 180 124.7 191.1 150.5 191.1C186.6 191.1 219.6 169.2 234.5 135.3C234.8 134.7 235.4 134.2 236.1 133.9C237.8 133.3 240.1 133.8 242.5 135.1C244.2 136.1 246 137.2 248 138.4C254.9 142.6 262.7 147.4 271.3 148.9L271.1 150.2C262.3 148.7 254.3 143.8 247.3 139.5C245.4 138.3 243.6 137.2 241.9 136.3C238.9 134.6 237.1 135 236.6 135.2C236.2 135.3 235.9 135.6 235.8 135.8C228.5 152.4 216.9 166.4 202.1 176.5C186.8 187 169 192.5 150.5 192.5Z" fill="#383F51"/>
<path d="M150 185.4C138.2 185.4 126.9 183.1 116.2 178.4C105.9 173.9 96.7004 167.5 88.9004 159.4L89.6004 158.8C105.6 175.4 127 184.6 150.1 184.6C182.4 184.6 211.3 166.5 225.5 137.5C225.8 136.9 226 136.3 226.3 135.8C228.8 130.3 230.5 130.5 236.7 131.3L237.5 131.4L237.4 132.3L236.6 132.2C230.5 131.4 229.4 131.3 227.1 136.2C226.8 136.8 226.6 137.4 226.3 137.9C219.4 152 208.8 163.9 195.6 172.3C181.9 180.8 166.2 185.4 150 185.4Z" fill="#383F51"/>
<path d="M245.4 115.5C238.9 112.7 236.1 107.9 236 99.7C235.4 53.9 196.8 16.7 150 16.7C124.5 16.7 103.3 28.7 92.9 38.9C92.6 39.2 90.5 40.7 87.1 43.2C84.4 45.1 81.4 47.4 81.1 47.7L80.5 47C80.9 46.6 83.2 44.9 86.6 42.4C89.1 40.6 92 38.5 92.3 38.2C102.9 27.8 124.3 15.7 150 15.7C161.5 15.7 172.6 17.9 183.2 22.2C193.5 26.4 202.7 32.3999 210.7 40.0999C227.3 55.8999 236.5 77.1 236.8 99.6C236.9 107.4 239.6 111.9 245.7 114.6L245.4 115.5Z" fill="#383F51"/>
<path d="M277.1 119.3C270.5 116.6 262.5 116.5 256.1 116.5C250.8 116.4 246.6 116.4 244.4 115L244.9 114.2C246.9 115.4 251.2 115.5 256.1 115.5C262.6 115.6 270.7 115.7 277.4 118.4L277.1 119.3Z" fill="#383F51"/>
<path d="M271.701 146.6C265.701 145.9 259.401 142.4 253.301 139C247.201 135.7 241.501 132.5 236.301 132L236.401 131.1C241.801 131.6 247.601 134.8 253.701 138.2C259.701 141.5 266.001 144.9 271.801 145.7L271.701 146.6Z" fill="#383F51"/>
<path d="M77.0004 149.5C68.1004 135.9 64.3004 120.3 64.6004 99.2C65.3004 73 71.2004 59.4 77.0004 49.5L77.8004 50C72.1004 59.8 66.2004 73.3 65.6004 99.2C65.3004 120.2 69.1004 135.5 77.8004 149L77.0004 149.5Z" fill="#383F51"/>
<path d="M90.3008 160.7C84.1008 154.3 79.7008 151.4 75.8008 148.7C74.0008 147.5 72.4008 146.4 70.7008 145C63.8008 139.5 58.5008 133.9 54.5008 127.9C48.7008 119.3 45.8008 109.9 45.8008 100V99.7C45.8008 86 53.4008 73.8 59.8008 65.9C67.7008 56.1 76.6008 49.3 80.6008 46.9L81.1008 47.7C77.2008 50.1 68.4008 56.8 60.6008 66.5C54.3008 74.3 46.8008 86.4 46.8008 99.7V100C46.8008 116.6 54.9008 131.1 71.4008 144.3C73.1008 145.6 74.7008 146.8 76.5008 148C80.4008 150.6 84.8008 153.6 91.1008 160.1L90.3008 160.7Z" fill="#383F51"/>
<path d="M157.5 182.5C145.8 182.5 131.3 180.5 119.1 172.9C111.4 168.1 104.6 159.6 100.9 150.2C98.1996 143 97.5996 138.3 97.0996 130.6H97.9996C98.4996 138.2 99.0996 142.9 101.7 150C105.3 159.1 112.1 167.6 119.5 172.3C141.5 186.2 171.6 181.1 177.4 179.9L177.6 180.8C175 181.1 167.2 182.5 157.5 182.5Z" fill="#383F51"/>
<path d="M92.9009 163.3C84.7009 155.9 83.5009 151.5 81.9009 146C81.8009 145.6 81.7009 145.3 81.6009 144.9C79.9009 138.4 79.5009 129 80.4009 118.4C80.5009 117.1 81.6009 116.2 82.9009 116.2L85.8009 116.4L85.7009 116.9C83.0009 127.9 84.8009 140.1 88.1009 145.6C88.9009 147 89.8009 147.8 90.6009 148C90.8009 148 90.9009 148 91.0009 147.9C91.8009 147.3 91.7009 144 91.6009 142.1V141.4C91.5009 137.9 90.8009 130.4 90.8009 130.3L90.7009 129.3L91.5009 129.9C92.5009 130.6 93.5009 131.1 94.3009 131.3L94.7009 131.4V131.8C94.7009 131.8 94.1009 137.4 94.4009 142.6C94.5009 144.4 95.1009 145.3 95.5009 145.5C95.6009 145.6 95.7009 145.5 95.7009 145.5C95.9009 145.3 96.3009 144.6 96.1009 142.7C95.2009 135.1 96.0009 131.5 96.1009 131.4L97.0009 131.6C97.0009 131.6 96.2009 135.2 97.1009 142.6C97.3009 144.4 97.1009 145.7 96.4009 146.2C96.1009 146.4 95.6009 146.5 95.2009 146.3C94.3009 145.9 93.7009 144.5 93.6009 142.7C93.4009 138.2 93.7009 133.5 93.8009 132.1C93.2009 131.9 92.5009 131.6 91.8009 131.2C92.0009 133.3 92.5009 138.6 92.5009 141.4V142.1C92.6009 145.1 92.6009 147.7 91.5009 148.6C91.2009 148.8 90.8009 148.9 90.4009 148.8C89.3009 148.6 88.3009 147.6 87.3009 146C83.9009 140.5 82.0009 128.2 84.6009 117.2L82.8009 117.1C82.0009 117.1 81.3009 117.6 81.3009 118.4C80.4009 128.9 80.8009 138.2 82.5009 144.6C82.6009 145 82.7009 145.3 82.8009 145.7C84.3009 151.1 85.5009 155.4 93.5009 162.6L92.9009 163.3Z" fill="#383F51"/>
<path d="M97.8004 70.2H96.9004C97.4004 62.4 98.0004 57.8 100.7 50.6C104.4 41.2 111.3 32.7 118.9 27.9C141.2 13.8 171.6 19 177.4 20.2L177.2 21.1C171.4 19.9 141.4 14.8 119.3 28.7C111.9 33.3 105.1 41.9 101.5 51C98.9004 58 98.3004 62.6 97.8004 70.2Z" fill="#383F51"/>
<path d="M82.4997 84.5999C81.2997 84.5999 80.1997 83.7 80.1997 82.4C79.2997 71.8 79.6997 62.3 81.3997 55.9L81.4997 55.4C83.1997 49.6 84.3997 45.3 92.8997 37.7L93.4997 38.4C85.1997 45.8 84.0997 49.8 82.3997 55.7L82.2997 56.2C80.6997 62.6 80.1997 71.9 81.0997 82.4C81.1997 83.2 81.7997 83.7999 82.5997 83.6999L84.3997 83.5999C82.6997 70.6999 84.1997 58.2999 88.0997 53.2999C89.0997 52.0999 90.0997 51.3999 91.2997 51.2999C91.7997 51.2999 92.1997 51.4 92.4997 51.7C93.2997 52.5 93.1997 54.2 92.9997 56.5C92.9997 57.2 92.8997 57.8999 92.8997 58.5999C92.7997 60.8999 92.4997 64.1 92.2997 66.4C92.0997 68.2 91.9997 69.2999 91.8997 70.0999C92.4997 69.6999 93.0997 69.4 93.7997 69.2C93.7997 67.9 93.5997 63.4 93.6997 59C93.7997 56 94.4997 53.9 95.6997 53.4C96.1997 53.2 96.6997 53.2999 97.0997 53.5999C97.8997 54.2999 98.0997 55.8999 97.5997 57.5999C95.4997 64.3999 96.6997 69.4999 96.6997 69.5999L95.7997 69.7999C95.7997 69.5999 94.5997 64.3999 96.6997 57.2999C97.1997 55.7999 96.8997 54.6 96.4997 54.2C96.2997 54 96.0997 54.0999 95.9997 54.0999C95.3997 54.2999 94.5997 55.8 94.4997 58.9C94.2997 64.2 94.5997 69.4 94.5997 69.4V69.7999L94.1997 69.9C93.1997 70.1 92.1997 70.6999 91.3997 71.2999C91.2997 71.3999 91.1997 71.4 91.1997 71.5L90.8997 71.5999L90.4997 71L90.6997 70.7999C90.8997 69.6999 91.5997 62.6 91.7997 58.5C91.7997 57.8 91.8997 57.1 91.8997 56.4C91.9997 54.6 92.1997 52.7999 91.6997 52.2999C91.5997 52.1999 91.4997 52.2 91.1997 52.2C90.2997 52.3 89.3997 52.9 88.5997 53.9C85.3997 58 83.1997 69.6 85.0997 84L85.1997 84.5L82.3997 84.6999C82.5331 84.6333 82.5664 84.5999 82.4997 84.5999Z" fill="#383F51"/>
<path d="M80.701 117.5C80.701 117.4 78.501 110.2 78.601 99.4C78.701 90.5 80.201 83 80.201 83L81.101 83.2C81.101 83.3 79.601 90.6 79.501 99.5C79.301 110.1 81.501 117.3 81.501 117.3L80.701 117.5Z" fill="#383F51"/>
<g opacity="0.5">
<path d="M180.7 33.1L180.6 33.6C183.2 33.9 186.8 41.6 187.1 43.2C187.2 43.9 187 44.3 186.9 44.7C186.7 45.3 186.4 45.8 187.1 46.8C188.1 48.5 194.6 54.4 197.7 55.7C200.9 57 202.6 57.8 203.8 60.8C204.4 62.4 204.4 64.9 204.5 67.5C204.5 69.9 204.5 72.4 205 74.3C205.8 77.2 207.1 79.9 207.8 81.2C207 80.5 206.2 79.8 205.4 79.1C204 77.9 202.8 76.9 202.3 76.2C201.7 75.3 201.4 72.3 201 69C200.5 64.6 200 59.6 198.5 58.1C196.8 56.4 190.6 53.9 185.6 51.9C182.9 50.8 180.6 49.9 179.7 49.4C178.7 48.8 177.6 47.2 176.5 45.4C174.5 42.4 172.3 39 169.6 39.1V39.6C172 39.5 174.2 42.8 176.1 45.7C177.4 47.6 178.4 49.2 179.5 49.9C180.5 50.5 182.8 51.4 185.5 52.4C190.5 54.4 196.6 56.8 198.2 58.5C198.7 59.1 199.2 60.2 199.5 61.7C199 60.8 198.2 59.6 197.2 58.8C195.4 57.3 191.1 56.1 188.7 55.5C188.3 55.4 188 55.3 187.7 55.2C187 55 186.5 55.2 186.1 55.5C185.6 55.8 185.1 56.2 183.8 55.9C182.4 55.7 181.8 54.8 181.2 54C180.8 53.4 180.3 52.8 179.6 52.4C177.8 51.3 176 52 175.1 52.4H175C174.3 52.6 174.4 53.3 174.4 53.7C174.4 54.1 174.4 54.4 174.2 54.6C174 54.8 173.4 54.4 172.9 54C172.1 53.5 171.2 52.8 170.4 53.2L170.6 53.7C171.2 53.4 171.9 54 172.6 54.4C173.3 54.9 174 55.3 174.5 55C175.1 54.7 175 54.1 175 53.6C175 53.1 175 52.9 175.2 52.8H175.3C176.2 52.4 177.8 51.9 179.4 52.8C180 53.2 180.4 53.7 180.8 54.3C181.5 55.2 182.1 56.1 183.8 56.4C185.3 56.6 186 56.2 186.5 55.9C186.9 55.7 187.2 55.5 187.7 55.7C187.9 55.8 188.3 55.9 188.7 56C190.8 56.6 195.2 57.8 197 59.2C198.9 60.8 200 63.5 200.1 63.7C200.4 65.4 200.6 67.3 200.8 69.1C201.2 72.6 201.5 75.6 202.2 76.5C202.7 77.2 204 78.3 205.4 79.5C208.2 81.9 212 85.1 211.8 87.3C211.7 88.5 211.5 89.7 211.2 91C210.7 93.7 210 96.7 210.6 99.9C211.9 106.6 213.2 108.9 214.8 110.2C216.3 111.5 218.3 112.2 218.3 112.2L218.5 111.7C218.5 111.7 216.6 111 215.1 109.8C213.6 108.5 212.4 106.3 211.1 99.8C210.5 96.6 211.1 93.7 211.7 91.1C212 89.7 212.2 88.5 212.3 87.3C212.4 85.6 210.8 83.7 208.8 81.8L209 81.7C209 81.7 206.9 78 205.9 74.1C205.4 72.2 205.4 69.8 205.4 67.4C205.4 64.7 205.4 62.2 204.7 60.5C203.4 57.3 201.6 56.4 198.3 55.1C195.3 53.9 188.9 48 187.9 46.4C187.4 45.6 187.6 45.2 187.8 44.7C188 44.3 188.2 43.8 188.1 43C187.3 41.3 183.7 33.5 180.7 33.1Z" fill="url(#paint2_linear_6246_29523)"/>
<path d="M192.9 94.9C193.8 95.8 195.4 95.6 197.1 95.5C198.8 95.3 200.7 95.2 202.3 95.9C205.4 97.4 207.8 104.1 207.8 104.2L208.3 104C208.2 103.7 205.8 97 202.5 95.4C200.8 94.6 198.8 94.8 197 94.9C195.4 95.1 193.9 95.2 193.2 94.4C192.4 93.6 191.8 90.8 191.2 88.3C190.5 85.4 190 83 189.1 82.3C188.3 81.7 187.6 81.6 186.9 81.5C186.2 81.4 185.6 81.3 185.2 80.7C185 80.4 185.1 78.7 185.2 76.9C185.5 71.9 185.9 64.2 182.2 61.5C179.2 59.3 177 60.1 175.1 60.7C173.5 61.2 172.2 61.7 170.6 60.7C169.3 60 168.9 58.6 168.4 57.1C167.5 54.2 166.3 50.5 158.7 48.2C156.9 47.7 155.1 48 153.4 48.2C151.1 48.6 148.9 48.9 146.8 47.5L146.5 47.9C148.7 49.4 151.1 49 153.5 48.7C155.3 48.4 157 48.2 158.6 48.7C165.9 51 167 54.5 167.9 57.3C168.4 58.9 168.9 60.3 170.3 61.2C172.1 62.3 173.7 61.7 175.3 61.2C177.2 60.6 179.2 59.9 182 61.9C185.5 64.5 185.1 72.2 184.8 76.8C184.7 78.6 184.6 79.7 184.7 80.4C184 80.1 183 79.9 181.8 79.7C179.8 79.4 177.6 79 176.3 77.8C175.7 77.2 175.4 76.4 175.1 75.3C174.4 72.7 173.3 69.2 166.1 66.4C163.6 65.9 161.8 66.5 160.8 67.1C160.3 67.4 160.1 67.9 159.9 68.4C159.6 69 159.3 69.7 158.5 70.2C157.1 71.1 149.5 71.5 148 71.2C147.9 71.2 147.8 71.1 147.8 71.1C147.8 71 147.9 70.7 148 70.5C148.3 69.7 148.8 68.4 147.6 66.7L147.2 67C148.2 68.4 147.8 69.5 147.5 70.3C147.3 70.7 147.2 71.1 147.4 71.4C147.5 71.6 147.7 71.7 147.9 71.7C149.3 72 157.2 71.7 158.8 70.6C159.7 70 160 69.2 160.3 68.6C160.5 68.1 160.7 67.7 161 67.5C161.9 67 163.6 66.4 165.9 66.9C172.9 69.6 173.9 73 174.6 75.4C174.9 76.5 175.2 77.5 175.9 78.1C177.3 79.3 179.6 79.7 181.6 80.1C183 80.3 184.2 80.6 184.8 81C185.3 81.7 186 81.8 186.8 82C187.4 82.1 188.1 82.2 188.7 82.7C189.4 83.2 190 85.9 190.5 88.4C191.4 91.4 192 94 192.9 94.9Z" fill="url(#paint3_linear_6246_29523)"/>
<path d="M141.2 94.1C141.9 93.4 142.4 92.9 144 93.2C145.1 93.4 146.6 94 148.2 94.6C151 95.7 154 96.8 155.3 96.3C156 96.1 156.4 95.6 156.9 95.3C157.8 94.5 158.8 93.6 161.8 94.1C164.2 94.5 166 95.7 167.5 96.7C168.8 97.6 169.9 98.3 171 98.2C171.8 98.1 172.4 97.7 173 97.2C174 96.4 175.1 95.6 177.6 96.7C179.6 97.5 180.1 98.7 180.5 99.7C181 100.7 181.3 101.6 183.3 101.3C185.4 101 186.7 99.7 187.9 98.4C188.8 97.5 189.8 96.6 191 95.9L190.8 95.4C189.5 96 188.5 97 187.5 97.9C186.2 99.1 185 100.3 183.1 100.6C181.6 100.8 181.3 100.3 180.9 99.3C180.5 98.3 179.9 97 177.7 96.1C174.8 94.9 173.6 95.9 172.5 96.7C171.9 97.2 171.5 97.5 170.8 97.6C169.9 97.7 168.9 97 167.7 96.2C166.2 95.2 164.3 93.9 161.8 93.5C158.6 93 157.5 94 156.5 94.8C156.1 95.2 155.6 95.5 155.1 95.7C153.9 96.2 151 95 148.4 94C146.8 93.4 145.3 92.8 144.2 92.6C142.4 92.2 141.7 92.9 140.9 93.6C140.4 94.1 139.9 94.6 138.9 94.8L139 95.3C140.1 95.2 140.7 94.7 141.2 94.1Z" fill="url(#paint4_linear_6246_29523)"/>
<path d="M211.999 91.5C211.099 93.3 210.799 97.7 211.299 100.4C211.799 103 212.799 107.6 214.799 109.4C215.899 110.4 218.099 111.4 218.199 111.4L218.399 110.9C218.399 110.9 216.199 110 215.199 109C213.299 107.3 212.299 102.3 211.899 100.2C211.399 97.3 211.899 93.1 212.599 91.6C213.399 90 214.599 89.4 215.199 89.3C216.999 89.1 218.699 92.1 218.699 92.1L219.199 91.9C219.099 91.8 217.399 88.5 215.199 88.8C214.099 89.1 212.799 89.8 211.999 91.5Z" fill="url(#paint5_linear_6246_29523)"/>
<path d="M180.3 90.2C180.7 89.3 181 88.4 181.9 87.8C182.9 87.1 185.4 85.7 187.7 87.6C188.6 88.4 189.3 90.4 190 92.2C190.7 94.1 191.3 95.8 192.2 96.4C193.1 97 194.7 96.9 196.5 96.8C198.1 96.7 199.8 96.6 201.1 97C203.8 97.8 207 104.5 207.1 104.6L207.6 104.4C207.5 104.1 204.3 97.4 201.3 96.5C199.9 96.1 198.1 96.2 196.5 96.3C194.8 96.4 193.3 96.5 192.5 96C191.8 95.5 191.1 93.8 190.5 92.1C189.8 90.1 189.1 88.1 188 87.3C186.2 85.8 183.9 85.9 181.6 87.5C180.7 88.2 180.2 89.2 179.9 90.1C179.5 91 179.2 91.9 178.3 92.3C176.6 93.1 174.7 92.5 174 91.4C173.8 91.1 173.7 90.8 173.5 90.5C172.9 89.6 172.4 88.6 171.1 87.4C169.4 85.8 162.5 82.9 159.1 82.4C157.1 82.1 156.3 82.6 155.3 83.2C154.6 83.7 153.8 84.1 152.4 84.2V84.7C153.9 84.6 154.7 84 155.5 83.6C156.4 83.1 157.1 82.6 158.9 82.9C162.2 83.4 168.9 86.3 170.6 87.8C171.8 88.9 172.4 89.9 172.9 90.8C173.1 91.1 173.2 91.4 173.4 91.7C174.2 92.9 176.4 93.7 178.3 92.8C179.5 92.2 179.9 91.2 180.3 90.2Z" fill="url(#paint6_linear_6246_29523)"/>
</g>
<g opacity="0.5">
<path d="M210 112.5C208.6 112.7 207.5 114.3 206.4 115.9C205.5 117.1 204.5 119 203.6 120.7C202.8 122.2 202.1 123.4 201.7 123.9C201.6 124 201.5 124.1 201.3 124.3C200 125.1 197 125.7 194.6 125.5C193.2 125.4 192.2 125.5 191.3 125.6C190.4 125.7 189.7 125.8 189.1 125.6C188.6 125.4 188.6 125.1 188.5 124.5C188.4 124 188.3 123.3 187.5 123C186.8 122.7 186 122.8 185.2 123C184.4 123.1 183.7 123.2 183.3 122.9C182.9 122.6 182.7 122.2 182.6 121.8C182.4 121.3 182.2 120.8 181.6 120.4C181 120 180.2 120.5 179.3 121.2C177.9 122.2 176 123.5 173.6 122.9C171 122.3 171.1 121.5 171.3 120.4C171.4 119.9 171.5 119.2 171.2 118.6C170.8 117.5 168.5 116.6 166.1 115.6C164.3 114.8 162.4 114 161.8 113.3C161.2 112.5 161.1 111.8 161 111.2C160.9 110.5 160.8 110 160.2 109.5C159.5 108.9 158.5 109.3 157.6 109.5C157.1 109.7 156.5 109.8 156.3 109.7L156.1 110.1C156.5 110.3 157.1 110.1 157.8 109.9C158.5 109.7 159.4 109.4 159.9 109.8C160.4 110.2 160.4 110.6 160.6 111.2C160.7 111.8 160.9 112.6 161.5 113.5C162.1 114.3 164 115.1 166 115.9C168.1 116.8 170.5 117.7 170.8 118.6C171 119.1 170.9 119.6 170.8 120.2C170.6 121.4 170.5 122.5 173.5 123.3C176.1 123.9 178.1 122.5 179.6 121.5C180.4 121 181 120.5 181.4 120.7C181.9 121 182.1 121.4 182.3 121.9C182.5 122.3 182.6 122.8 183.2 123.2C183.8 123.7 184.7 123.5 185.5 123.4C186.2 123.3 186.9 123.2 187.6 123.4C188.2 123.6 188.3 124 188.3 124.6C188.4 125.1 188.5 125.7 189.2 126C189.9 126.3 190.7 126.2 191.6 126.1C192.4 126 193.4 125.9 194.8 126C196.3 126.1 198.1 125.9 199.7 125.5C197.9 126.6 195.1 128.1 192.3 128.3C190 128.5 189.2 128.1 187.9 127.4C186.7 126.8 185.3 126.1 182.1 125.5C177.5 124.7 173.2 126.7 170.9 128.1C170.5 128 167.4 127 166.5 124.6L166.1 123.4C165.3 121.1 164.6 119.1 164 118C163.3 116.6 160.9 115.5 159.5 115.3C158.6 115.2 158.1 115.6 157.7 116C157.3 116.3 156.9 116.7 156.2 116.6C155.6 116.6 155 115.7 154.4 114.7C153.5 113.3 152.3 111.5 150.4 110.8C148.1 110 147 110.8 146.1 111.5C145.6 111.9 145.2 112.2 144.7 112.4L144.8 112.9C145.5 112.7 146 112.3 146.4 112C147.3 111.3 148.1 110.6 150.2 111.3C152 112 153.1 113.6 154 115C154.8 116.2 155.4 117.1 156.2 117.1C157.1 117.2 157.6 116.7 158.1 116.4C158.5 116 158.9 115.7 159.5 115.9C161 116.1 163.1 117.3 163.7 118.3C164.2 119.3 165 121.4 165.8 123.6L166.2 124.8C167 127 169.4 128.1 170.5 128.4C169.8 128.8 169.4 129.1 169.4 129.2C169.4 129.2 165.1 133.9 161.9 136C158.6 138.1 155.9 138.1 155 136.9C154.5 136.3 154.4 135.1 154.4 133.7C154.4 132.4 154.3 131 153.8 129.7C153.1 127.7 150.3 126.3 149.4 126C148.2 125.4 146.5 124.9 145.7 125.2C144.3 125.7 143.8 127.9 143.8 128L144.3 128.1C144.3 128.1 144.7 126.1 145.9 125.7C146.4 125.5 147.6 125.8 149.2 126.5C150.8 127.2 152.8 128.6 153.3 130C153.8 131.2 153.8 132.6 153.9 133.9C154 135.4 154 136.6 154.6 137.4C155.7 138.6 158.5 138.9 162.2 136.6C165.4 134.6 169.5 130.1 169.8 129.8C170.1 129.6 175.8 125.1 182.2 126.2C185.4 126.7 186.8 127.5 187.9 128C188.2 128.1 188.4 128.3 188.7 128.4C187.1 129 186.2 128.9 185.5 128.9C184.4 128.8 183.9 128.9 183 130.3C181.8 132.2 181.6 135.8 181.5 138.3C181.4 139.3 181.4 140.1 181.3 140.5C180.9 142 180.3 142.8 178.9 143.2C177.8 143.5 177.4 143.2 176.9 142.8C176.7 142.7 176.6 142.5 176.4 142.4C176.1 142.2 175.9 141.8 175.7 141.4C175.2 140.5 174.4 139.2 172.6 139.3C171 139.4 170.5 140.4 169.9 141.4C169.5 142.1 169.2 142.8 168.4 143.4C166.6 144.8 161.3 146.4 158.4 146.7C155.2 147 149.2 146.4 148.8 145.9C148.7 145.7 149.1 144.8 149.4 144.2C150 143 150.7 141.4 150.5 140.3C150.5 140.1 150.4 140 150.4 139.8C150.1 138.4 149.9 138.3 148.6 138.4C147.6 138.5 147.5 139.2 147.4 139.8C147.3 140.2 147.3 140.6 147 140.9C146.3 141.4 143.9 141.2 143 141.1L142.9 141.6C143.3 141.6 146.4 142 147.3 141.3C147.8 140.9 147.8 140.4 147.9 139.9C148 139.3 148.1 139 148.6 138.9C149.1 138.8 149.4 138.9 149.5 138.9C149.6 139 149.7 139.3 149.8 139.9C149.8 140.1 149.9 140.2 149.9 140.4C150.1 141.3 149.4 142.8 148.9 143.9C148.4 145 148.1 145.6 148.2 146C148.6 147.1 155.9 147.4 158.3 147.2C161.3 146.9 166.6 145.3 168.6 143.8C169.4 143.2 169.8 142.4 170.2 141.7C170.7 140.7 171.1 139.9 172.5 139.8C174 139.7 174.6 140.7 175.1 141.6C175.4 142.1 175.6 142.5 176 142.7C176.2 142.8 176.4 143 176.5 143.1C177.1 143.6 177.6 144 179 143.6C180.5 143.1 181.3 142.2 181.8 140.5C181.9 140.2 181.9 139.7 182 139.1C182.3 139.5 182.3 139.9 182.2 140.3C182.2 140.8 182.2 141.3 182.5 141.8C183.1 142.6 184.1 142.1 184.8 141.8C185.1 141.6 185.5 141.5 185.6 141.5C185.8 141.5 185.9 141.6 186 141.7C186.2 142 186.3 142.5 186.2 143.2C186.1 144 184.9 145.1 184.2 145.7C183.9 145.9 183.7 146.2 183.6 146.3C183.4 146.6 183.4 147 183.4 147.3C183.4 147.7 183.5 148.1 183.2 148.6C183 148.8 182.8 149 182.5 149C181.9 149.1 181.2 148.8 181.1 148.6C181 148.5 181 148.3 181 148.1C181 147.8 181 147.4 180.8 147C180.4 146.5 179.6 146.3 178.5 146.4C177.9 146.5 177.8 147 177.8 147.5C177.8 148 177.8 148.6 177 148.9C176.5 149.1 176 148.8 175.3 148.4C174.3 147.8 173 147.1 171.2 148.1C169 149.3 169.3 150.6 169.4 151.5C169.5 151.8 169.5 152.1 169.4 152.3C169.3 152.5 169.2 152.6 169.1 152.6C168.9 152.6 168.7 152.5 168.6 152.5L168.3 152.9C168.3 152.9 168.8 153.2 169.2 153.1C169.5 153 169.7 152.8 169.8 152.4C169.9 152.1 169.9 151.7 169.8 151.3C169.6 150.4 169.4 149.4 171.3 148.4C172.9 147.6 173.9 148.1 174.9 148.7C175.6 149.1 176.3 149.5 177 149.2C178 148.8 178.1 148 178.1 147.4C178.1 146.9 178.2 146.8 178.3 146.8C179.2 146.7 179.9 146.9 180.2 147.3C180.4 147.5 180.3 147.8 180.3 148C180.3 148.3 180.3 148.7 180.5 148.9C180.8 149.1 181.6 149.5 182.3 149.4C182.8 149.4 183.2 149.1 183.4 148.8C183.8 148.2 183.8 147.6 183.7 147.2C183.7 146.9 183.7 146.7 183.8 146.6C183.9 146.5 184.1 146.3 184.4 146.1C185.2 145.4 186.5 144.2 186.6 143.3C186.7 142.5 186.6 141.8 186.3 141.4C186.1 141.2 185.8 141.1 185.5 141C185.2 141 184.8 141.2 184.4 141.4C183.6 141.8 183.1 142 182.8 141.6C182.5 141.2 182.6 140.9 182.6 140.4C182.6 139.8 182.6 139.1 181.9 138.5V138.3C182 135.9 182.3 132.3 183.3 130.6C184.1 129.4 184.5 129.4 185.4 129.4C186.2 129.4 187.4 129.5 189.3 128.7C190.1 129 191 129.1 192.5 129C197.1 128.7 201.7 125.1 202 124.9C202.2 124.7 202.4 124.6 202.5 124.4C202.9 123.9 203.6 122.6 204.5 121.1C205.4 119.5 206.5 117.6 207.3 116.4C208.3 114.9 209.4 113.4 210.5 113.2C211 113.1 211.6 113.3 212.2 113.8C214.5 115.5 222.7 117.7 222.9 117.8L223 117.3C222.5 117.2 214.7 115 212.5 113.4C211.3 112.6 210.7 112.4 210 112.5Z" fill="url(#paint7_linear_6246_29523)"/>
<path d="M212.1 116C209.6 116.7 207 120.3 206.2 121.5C204.6 124 204.3 129.9 204.9 132.6C205.1 133.8 205.6 134.7 206 135.5C206.4 136.4 206.8 137.1 206.8 138.1C206.8 140.1 207.1 141.2 207.8 142.2C208 142.4 208.1 142.4 208.3 142.5C208.7 142.5 209.1 142.1 209.5 141.7C209.8 141.4 210.2 140.9 210.4 141C210.5 141 210.6 141.2 210.7 141.3C211.4 142.6 210.4 143.6 210.4 143.7L210.8 144.1C210.8 144.1 212.1 142.8 211.2 141.1C211 140.8 210.8 140.6 210.5 140.6C210 140.5 209.6 141 209.1 141.5C208.9 141.7 208.5 142.2 208.3 142.1L208.2 142C207.5 141.1 207.3 140.1 207.3 138.2C207.3 137.1 206.9 136.3 206.5 135.4C206.1 134.7 205.7 133.8 205.5 132.6C205 130.1 205.3 124.3 206.7 121.9C207.6 120.5 210.1 117.3 212.3 116.6C212.9 116.4 214 116.7 214.8 117.1C219.4 119 222.6 119.7 222.6 119.7L222.7 119.2C222.7 119.2 219.5 118.5 214.9 116.6C214.4 116.3 213 115.7 212.1 116Z" fill="url(#paint8_linear_6246_29523)"/>
<path d="M211.701 114.8C210.801 114.9 209.801 115.9 209.401 116.2L209.301 116.3C207.101 118.1 205.001 120.8 204.401 122.6C204.201 123.1 204.101 123.7 204.001 124.4C202.601 127.2 202.101 130 201.601 132.7C201.301 134.1 201.001 135.7 200.601 137.1C199.401 141.1 192.801 147.8 192.501 148.1C192.201 148.3 186.501 152.8 184.501 153.3C183.601 153.5 179.301 154.5 178.101 154.9C177.101 155.3 175.101 161.1 174.801 162.2C174.701 165 174.401 169.1 174.201 169.4C173.901 169.9 172.301 170.4 171.601 170.3C171.401 170.3 171.101 170 170.901 169.6C170.601 169.1 170.101 168.5 169.301 168.4C168.701 168.3 167.001 168.7 164.201 169.4C161.501 170.1 157.901 170.9 157.301 170.7C156.701 170.5 156.601 170.1 156.501 169.8C156.401 169.4 156.301 169 155.701 168.9C155.501 168.9 155.301 168.9 155.301 169C155.001 169.2 155.001 169.8 155.101 170.6C155.101 171.4 155.201 172.4 154.801 172.8L155.201 173.1C155.701 172.5 155.601 171.5 155.601 170.5C155.601 170 155.501 169.4 155.601 169.3C155.801 169.3 155.901 169.5 156.001 169.8C156.101 170.2 156.301 170.8 157.101 171.1C157.801 171.4 160.401 170.8 164.301 169.8C166.501 169.3 168.801 168.7 169.301 168.8C169.901 168.9 170.201 169.4 170.501 169.8C170.801 170.2 171.101 170.6 171.501 170.7C172.301 170.8 174.101 170.2 174.501 169.6C174.901 169.1 175.101 163.8 175.201 162.1C176.301 158.9 177.701 155.4 178.201 155.1C179.101 154.7 182.001 154 184.501 153.5C186.601 153 192.501 148.4 192.701 148.2C193.001 147.9 199.701 141.2 201.001 137C201.401 135.5 201.701 134 202.001 132.5C202.401 130.4 202.801 128.2 203.701 125.9C203.601 127.1 203.501 128.5 203.401 129.8C203.301 130.9 203.201 131.9 203.201 132.7C202.501 138.9 201.601 142.3 200.001 144.6C198.201 147.1 191.601 154.7 190.801 155.3C190.401 155.6 189.901 155.8 189.301 155.9C188.801 156 188.301 156.2 187.701 156.4C185.601 157.3 183.301 161 181.601 163.6C180.701 165 180.001 166.1 179.601 166.4C179.001 166.8 178.601 166.7 178.101 166.4C177.701 166.2 177.301 166.1 176.801 166.1V166.6C177.301 166.6 177.601 166.8 177.901 166.9C178.501 167.1 179.001 167.4 179.901 166.8C180.401 166.5 181.101 165.4 182.001 163.9C183.601 161.3 185.901 157.8 187.901 156.9C188.401 156.7 188.901 156.5 189.401 156.4C190.101 156.2 190.601 156.1 191.101 155.7C191.901 155.1 198.601 147.4 200.401 144.9C202.001 142.6 203.001 139.1 203.701 132.8C203.801 132 203.901 131 203.901 129.9C204.101 127.1 204.301 124 204.901 122.5C205.501 120.8 207.501 118.2 209.601 116.4C209.601 116.4 209.701 116.4 209.701 116.3C210.001 116 211.001 115.1 211.701 115C212.401 114.9 213.801 115.4 215.701 116.1C217.501 116.8 219.801 117.6 222.501 118.3L222.601 117.8C219.901 117.1 217.601 116.3 215.801 115.6C213.901 115.2 212.601 114.7 211.701 114.8Z" fill="url(#paint9_linear_6246_29523)"/>
<path d="M142.001 167.1C142.401 167.1 143.001 167.6 143.601 168C144.801 168.8 146.201 169.7 147.301 169.2C147.901 168.9 148.401 168.1 149.001 167.1C150.101 165.4 151.501 163.3 154.101 162.4C158.201 161 165.601 157.5 165.601 157.5C165.701 157.5 171.401 153.2 177.101 154.7L177.201 154.2C171.501 152.7 165.801 156.8 165.301 157.1C165.201 157.1 165.101 157.2 164.801 157.3C164.701 156.7 164.301 155.4 163.101 154.5C162.201 153.8 161.101 153.6 159.801 153.7C157.501 154 155.401 155.1 153.501 156C151.901 156.8 150.501 157.6 149.501 157.5C148.601 157.4 148.501 156.9 148.301 156.3C148.101 155.5 147.801 154.5 146.101 154.3C144.301 154.1 143.501 155.4 142.901 156.4C142.401 157.2 142.001 157.7 141.501 157.7C139.901 157.6 137.601 155.2 137.601 155.2L137.201 155.5C137.301 155.6 139.601 158 141.401 158.1C142.301 158.2 142.801 157.4 143.301 156.6C143.901 155.6 144.601 154.6 146.101 154.8C147.501 155 147.701 155.6 147.901 156.4C148.101 157.1 148.301 157.9 149.501 158C150.701 158.1 152.101 157.3 153.801 156.5C155.601 155.6 157.701 154.5 159.901 154.2C161.101 154 162.101 154.3 162.901 154.9C164.001 155.7 164.301 157.1 164.401 157.5C162.201 158.5 157.101 160.8 154.001 161.9C151.201 162.8 149.701 165.1 148.601 166.8C148.001 167.7 147.501 168.4 147.001 168.7C146.201 169.2 144.901 168.3 143.801 167.6C143.101 167.1 142.401 166.7 142.001 166.6C141.301 166.5 140.201 167.2 139.001 168C137.901 168.7 136.601 169.6 135.801 169.7L135.901 170.2C136.901 170 138.201 169.2 139.401 168.4C140.501 167.7 141.501 167 142.001 167.1Z" fill="url(#paint10_linear_6246_29523)"/>
<path d="M213.8 117.7C212.4 118.3 211.3 120 210.5 121.3C210.2 121.8 209.9 122.2 209.7 122.4C209.5 122.6 209.3 122.6 209.1 122.7C208.5 122.8 208 123 207.5 124.3C206.7 126.2 206.3 130.7 207.3 132.2C207.7 132.8 208.2 132.9 208.5 132.9C209.5 132.8 210.5 131.5 210.9 130.4C211.2 129.6 212 129.5 212.8 129.5C213.5 129.5 214.3 129.4 214.7 128.8C214.9 128.4 215.2 128.3 215.4 128.3C215.7 128.4 216 128.8 216.1 129.8C216.3 131.2 215.7 133.5 215.7 133.5L216.2 133.6C216.2 133.5 216.8 131.3 216.6 129.7C216.5 128.6 216.1 127.9 215.5 127.7C215.1 127.6 214.6 127.8 214.2 128.4C214 128.8 213.3 128.8 212.7 128.9C211.8 129 210.7 129.1 210.3 130.2C209.9 131.4 209 132.3 208.3 132.4C208 132.4 207.8 132.3 207.6 132C206.8 130.7 207.1 126.5 207.9 124.5C208.4 123.4 208.7 123.3 209.1 123.2C209.4 123.2 209.7 123.1 210 122.8C210.2 122.6 210.5 122.1 210.9 121.6C211.6 120.4 212.8 118.7 214 118.2C214.9 117.8 215.8 118.2 217.1 118.8C218.3 119.3 219.8 120 221.9 120.3L222 119.8C220 119.5 218.5 118.9 217.3 118.3C215.9 117.7 214.8 117.3 213.8 117.7Z" fill="url(#paint11_linear_6246_29523)"/>
</g>
<path d="M95.1008 129.5C92.3008 129.5 90.1008 126.6 88.5008 121C87.1008 115.9 86.3008 108.8 86.3008 100.6C86.3008 92.4 87.1008 85.4 88.5008 80.2C90.1008 74.7 92.3008 71.7 95.1008 71.7C97.9008 71.7 101.001 74.9 103.401 80.2C105.901 85.9 107.301 93.1 107.301 100.6C107.301 108.1 105.901 115.3 103.401 121C101.001 126.3 97.9008 129.5 95.1008 129.5ZM95.1008 71.9C89.8008 71.9 86.4008 83.2 86.4008 100.7C86.4008 118.2 89.8008 129.5 95.1008 129.5C100.701 129.5 107.101 116.9 107.101 100.7C107.101 84.5 100.701 71.9 95.1008 71.9Z" fill="#383F51"/>
<path d="M95.1996 128.1C92.7996 128.1 90.8996 125.3 89.4996 120.1C88.2996 115.2 87.5996 108.6 87.5996 100.8C87.5996 93 88.2996 86.4 89.4996 81.5C90.7996 76.2 92.7996 73.5 95.1996 73.5C97.5996 73.5 100.3 76.4 102.3 81.5C104.5 86.9 105.7 93.7 105.7 100.8C105.7 107.9 104.5 114.7 102.3 120.1C100.2 125.2 97.5996 128.1 95.1996 128.1ZM95.1996 73.6C90.6996 73.6 87.7996 84.3 87.7996 100.8C87.7996 117.3 90.6996 128 95.1996 128C99.9996 128 105.6 116.1 105.6 100.8C105.5 85.5 99.8996 73.6 95.1996 73.6Z" fill="#383F51"/>
<path d="M95.0996 126.4C93.1996 126.4 91.5996 123.8 90.5996 118.9C89.5996 114.3 89.0996 108.1 89.0996 100.9C89.0996 93.7 89.5996 87.4 90.5996 82.9C91.6996 78 93.1996 75.4 95.0996 75.4C97.0996 75.4 99.2996 78.2 101 82.9C102.9 88 103.9 94.4 103.9 100.9C103.9 107.4 102.9 113.8 101 118.9C99.1996 123.6 96.9996 126.4 95.0996 126.4ZM95.0996 75.5C91.4996 75.5 89.1996 85.5 89.1996 100.9C89.1996 116.3 91.4996 126.3 95.0996 126.3C96.9996 126.3 99.1996 123.5 100.9 118.9C102.8 113.8 103.8 107.4 103.8 100.9C103.8 94.4 102.8 88 100.9 82.9C99.1996 78.2 96.9996 75.5 95.0996 75.5Z" fill="#383F51"/>
<path d="M95.1004 124.3C91.6004 124.3 90.4004 111.7 90.4004 100.9C90.4004 90.1 91.6004 77.5 95.1004 77.5C98.2004 77.5 102 87.9 102 100.9C102 113.9 98.3004 124.3 95.1004 124.3ZM95.1004 77.6C92.3004 77.6 90.5004 86.8 90.5004 100.9C90.5004 115 92.3004 124.2 95.1004 124.2C96.6004 124.2 98.3004 121.7 99.6004 117.4C101.1 112.7 101.9 106.9 101.9 100.9C101.9 94.9 101.1 89.1 99.6004 84.4C98.3004 80.1 96.6004 77.6 95.1004 77.6Z" fill="#383F51"/>
<path d="M95.4 122.1C92.9 122.1 92 110.8 92 101C92 91.2 92.9 79.9 95.4 79.9C97.7 79.9 100.4 89.3 100.4 101C100.4 112.7 97.7 122.1 95.4 122.1ZM95.4 80.1C93.4 80.1 92.1 88.3 92.1 101.1C92.1 113.9 93.4 122.1 95.4 122.1C97.6 122.1 100.3 112.4 100.3 101.1C100.3 89.8 97.6 80.1 95.4 80.1Z" fill="#383F51"/>
<path d="M95.1996 132.1C91.5996 132.1 88.6996 128.8 86.7996 122.6C84.9996 117 84.0996 109.3 84.0996 100.5C84.0996 91.7 84.9996 84 86.7996 78.4C88.7996 72.2 91.6996 68.9 95.1996 68.9C98.8996 68.9 102.7 72.3 105.6 78.3C108.7 84.5 110.4 92.4 110.4 100.5C110.4 108.6 108.7 116.5 105.6 122.7C102.7 128.7 98.8996 132.1 95.1996 132.1ZM95.1996 69.9C91.3996 69.9 89.0996 74.6 87.7996 78.6C86.0996 84 85.1996 91.8 85.1996 100.4C85.1996 109 86.0996 116.8 87.7996 122.2C88.9996 126.2 91.2996 130.9 95.1996 130.9C98.3996 130.9 101.9 127.6 104.6 122.1C107.6 116.1 109.2 108.3 109.2 100.4C109.2 92.5 107.6 84.7 104.6 78.7C101.9 73.2 98.3996 69.9 95.1996 69.9Z" fill="#383F51"/>
<path d="M84.9005 83.9C84.5005 83.9 84.2005 83.6 84.2005 83.3C80.9005 64.4 89.3005 43.8 91.9005 43.1C92.4005 42.9 92.9005 43.2 93.1005 43.7C93.9005 45.5 97.0005 49.3 99.2005 49.7C99.7005 49.8 100 49.7 100.3 49.4C100.9 48.8 101.9 47.1 103.1 45.3C105 42.3 107.3 38.6 110 35.6C115.1 29.8 122.8 25.8 123.1 25.6L125.6 24.2C126 24 126.4 24.1 126.6 24.5C126.8 24.9 126.7 25.3 126.3 25.5L123.8 26.9C123.7 27 116.1 31 111.1 36.6C108.5 39.6 106.2 43.2 104.4 46.1C103.1 48.1 102.1 49.7 101.4 50.5C100.8 51.2 99.9005 51.4 99.0005 51.2C96.4005 50.7 93.3005 47.1 92.1005 44.9C89.7005 47.8 82.8005 66.1 85.8005 83.1C85.9005 83.5 85.6005 83.9 85.2005 84C85.0005 83.9 84.9005 83.9 84.9005 83.9Z" fill="#1AD3C1"/>
<path d="M212.3 48.9C199.4 33 181.3 23.4 161.3 21.9C152 21.2 142.6 22.3 133.7 25.1C132.2 25.6 130.5 25.8 129.7 25.8H129.5C128.3 25.7 126.9 24.8 126.4 24.2C126.3 24 126.1 23.9 125.9 23.9C125.7 23.9 125.5 24 125.3 24.1L124.2 25.1C123.9 25.4 123.9 25.8 124.1 26.1C125.2 27.5 127.4 28.6 129.3 28.7C130.3 28.8 132.4 28.5 134.5 27.8C143 25.1 152 24 161 24.7C180.2 26.2 197.5 35.4 210 50.7C222.5 66 228.4 85.5 226.9 105.7C226.7 108.6 226.3 111.5 225.7 114.3C225.6 114.9 226.4 116.6 226.2 117.2C225.9 118.4 224.7 118.5 224.4 119.7C224 121.2 223.6 122.6 223.1 124C213.2 154 185.9 175.6 154.5 175.6C152.7 175.6 150.9 175.5 149.1 175.4C144.1 175 139.2 174.1 134.5 172.7C133.9 172.5 133 172.5 132.3 172.5C131.8 172.5 131.3 172.5 130.9 172.6C128.9 172.8 126.5 173.9 125 174.9C124.8 175 124.7 175.2 124.7 175.4C124.7 175.6 124.7 175.8 124.8 176L125.5 177.1C125.7 177.4 126.2 177.5 126.5 177.3C127.9 176.4 130 175.6 131.1 175.5H132.3C133 175.5 133.4 175.6 133.6 175.6C138.5 177.1 143.6 178 148.8 178.4C150.6 178.6 152.5 178.6 154.5 178.6C172.4 178.6 189.8 171.8 203.4 159.5C215.1 149 223.3 135.4 227.2 120.2C227.4 119.3 228.2 118.9 228.4 118C228.5 117.5 228.1 116.5 228.2 116C228.9 112.7 229.3 109.4 229.6 106C231.4 85 225.2 64.8 212.3 48.9Z" fill="#1AD3C1"/>
<path d="M126.001 177.2C125.901 177.2 125.701 177.2 125.601 177.1L123.101 175.7C122.801 175.5 115.201 171.5 110.001 165.7C107.301 162.7 105.001 158.9 103.101 156C101.901 154.1 100.901 152.5 100.301 151.9C100.001 151.6 99.7006 151.5 99.2006 151.6C97.0006 152 93.9006 155.8 93.1006 157.6C92.9006 158.1 92.4006 158.4 91.8006 158.2C88.9006 157.3 80.0006 136.5 84.2006 117.9C84.3006 117.5 84.7006 117.2 85.1006 117.3C85.5006 117.4 85.8006 117.8 85.7006 118.2C81.9006 135.3 89.7006 153.7 92.0006 156.4C93.2006 154.2 96.4006 150.6 98.9006 150.1C99.9006 149.9 100.701 150.2 101.301 150.8C102.001 151.6 103.001 153.2 104.301 155.2C106.101 158.1 108.401 161.8 111.001 164.7C115.901 170.3 123.601 174.3 123.701 174.4L126.201 175.9C126.601 176.1 126.701 176.6 126.501 176.9C126.501 177 126.301 177.2 126.001 177.2Z" fill="#1AD3C1"/>
</g>
<defs>
<radialGradient id="paint0_radial_6246_29523" cx="0" cy="0" r="1" gradientUnits="userSpaceOnUse" gradientTransform="translate(140.761 87.0499) rotate(-90) scale(81.1595 81.1595)">
<stop offset="0.27" stop-color="#212F3C" stop-opacity="0"/>
<stop offset="1" stop-color="#212F3C"/>
</radialGradient>
<radialGradient id="paint1_radial_6246_29523" cx="0" cy="0" r="1" gradientUnits="userSpaceOnUse" gradientTransform="translate(99.9352 94.3295) rotate(-90) scale(54.2445 54.2445)">
<stop offset="0.27" stop-color="#212F3C" stop-opacity="0"/>
<stop offset="1" stop-color="#212F3C"/>
</radialGradient>
<linearGradient id="paint2_linear_6246_29523" x1="77.0576" y1="125.992" x2="262.016" y2="36.481" gradientUnits="userSpaceOnUse">
<stop offset="0.05" stop-color="#8DBCAD" stop-opacity="0.6"/>
<stop offset="0.48" stop-color="#5EA6AE" stop-opacity="0.6"/>
<stop offset="0.59" stop-color="#5CA7AF" stop-opacity="0.6"/>
<stop offset="0.66" stop-color="#5796AC" stop-opacity="0.7"/>
<stop offset="0.81" stop-color="#507DA7" stop-opacity="0.89"/>
<stop offset="0.88" stop-color="#4E74A6" stop-opacity="0.98"/>
</linearGradient>
<linearGradient id="paint3_linear_6246_29523" x1="74.072" y1="119.821" x2="259.03" y2="30.3105" gradientUnits="userSpaceOnUse">
<stop offset="0.05" stop-color="#8DBCAD" stop-opacity="0.6"/>
<stop offset="0.48" stop-color="#5EA6AE" stop-opacity="0.6"/>
<stop offset="0.59" stop-color="#5CA7AF" stop-opacity="0.6"/>
<stop offset="0.66" stop-color="#5796AC" stop-opacity="0.7"/>
<stop offset="0.81" stop-color="#507DA7" stop-opacity="0.89"/>
<stop offset="0.88" stop-color="#4E74A6" stop-opacity="0.98"/>
</linearGradient>
<linearGradient id="paint4_linear_6246_29523" x1="79.7199" y1="131.491" x2="264.678" y2="41.98" gradientUnits="userSpaceOnUse">
<stop offset="0.05" stop-color="#8DBCAD" stop-opacity="0.6"/>
<stop offset="0.48" stop-color="#5EA6AE" stop-opacity="0.6"/>
<stop offset="0.59" stop-color="#5CA7AF" stop-opacity="0.6"/>
<stop offset="0.66" stop-color="#5796AC" stop-opacity="0.7"/>
<stop offset="0.81" stop-color="#507DA7" stop-opacity="0.89"/>
<stop offset="0.88" stop-color="#4E74A6" stop-opacity="0.98"/>
</linearGradient>
<linearGradient id="paint5_linear_6246_29523" x1="91.2385" y1="155.294" x2="276.196" y2="65.7831" gradientUnits="userSpaceOnUse">
<stop offset="0.05" stop-color="#8DBCAD" stop-opacity="0.6"/>
<stop offset="0.48" stop-color="#5EA6AE" stop-opacity="0.6"/>
<stop offset="0.59" stop-color="#5CA7AF" stop-opacity="0.6"/>
<stop offset="0.66" stop-color="#5796AC" stop-opacity="0.7"/>
<stop offset="0.81" stop-color="#507DA7" stop-opacity="0.89"/>
<stop offset="0.88" stop-color="#4E74A6" stop-opacity="0.98"/>
</linearGradient>
<linearGradient id="paint6_linear_6246_29523" x1="81.9069" y1="136.009" x2="266.865" y2="46.4989" gradientUnits="userSpaceOnUse">
<stop offset="0.05" stop-color="#8DBCAD" stop-opacity="0.6"/>
<stop offset="0.48" stop-color="#5EA6AE" stop-opacity="0.6"/>
<stop offset="0.59" stop-color="#5CA7AF" stop-opacity="0.6"/>
<stop offset="0.66" stop-color="#5796AC" stop-opacity="0.7"/>
<stop offset="0.81" stop-color="#507DA7" stop-opacity="0.89"/>
<stop offset="0.88" stop-color="#4E74A6" stop-opacity="0.98"/>
</linearGradient>
<linearGradient id="paint7_linear_6246_29523" x1="152.414" y1="75.404" x2="214.749" y2="182.948" gradientUnits="userSpaceOnUse">
<stop offset="0.05" stop-color="#8DBCAD" stop-opacity="0.6"/>
<stop offset="0.48" stop-color="#5EA6AE" stop-opacity="0.6"/>
<stop offset="0.59" stop-color="#5CA7AF" stop-opacity="0.6"/>
<stop offset="0.66" stop-color="#5796AC" stop-opacity="0.7"/>
<stop offset="0.81" stop-color="#507DA7" stop-opacity="0.89"/>
<stop offset="0.88" stop-color="#4E74A6" stop-opacity="0.98"/>
</linearGradient>
<linearGradient id="paint8_linear_6246_29523" x1="176.333" y1="61.5405" x2="238.667" y2="169.084" gradientUnits="userSpaceOnUse">
<stop offset="0.05" stop-color="#8DBCAD" stop-opacity="0.6"/>
<stop offset="0.48" stop-color="#5EA6AE" stop-opacity="0.6"/>
<stop offset="0.59" stop-color="#5CA7AF" stop-opacity="0.6"/>
<stop offset="0.66" stop-color="#5796AC" stop-opacity="0.7"/>
<stop offset="0.81" stop-color="#507DA7" stop-opacity="0.89"/>
<stop offset="0.88" stop-color="#4E74A6" stop-opacity="0.98"/>
</linearGradient>
<linearGradient id="paint9_linear_6246_29523" x1="149.81" y1="76.914" x2="212.145" y2="184.458" gradientUnits="userSpaceOnUse">
<stop offset="0.05" stop-color="#8DBCAD" stop-opacity="0.6"/>
<stop offset="0.48" stop-color="#5EA6AE" stop-opacity="0.6"/>
<stop offset="0.59" stop-color="#5CA7AF" stop-opacity="0.6"/>
<stop offset="0.66" stop-color="#5796AC" stop-opacity="0.7"/>
<stop offset="0.81" stop-color="#507DA7" stop-opacity="0.89"/>
<stop offset="0.88" stop-color="#4E74A6" stop-opacity="0.98"/>
</linearGradient>
<linearGradient id="paint10_linear_6246_29523" x1="118.024" y1="95.3375" x2="180.359" y2="202.882" gradientUnits="userSpaceOnUse">
<stop offset="0.05" stop-color="#8DBCAD" stop-opacity="0.6"/>
<stop offset="0.48" stop-color="#5EA6AE" stop-opacity="0.6"/>
<stop offset="0.59" stop-color="#5CA7AF" stop-opacity="0.6"/>
<stop offset="0.66" stop-color="#5796AC" stop-opacity="0.7"/>
<stop offset="0.81" stop-color="#507DA7" stop-opacity="0.89"/>
<stop offset="0.88" stop-color="#4E74A6" stop-opacity="0.98"/>
</linearGradient>
<linearGradient id="paint11_linear_6246_29523" x1="177.95" y1="60.6029" x2="240.285" y2="168.147" gradientUnits="userSpaceOnUse">
<stop offset="0.05" stop-color="#8DBCAD" stop-opacity="0.6"/>
<stop offset="0.48" stop-color="#5EA6AE" stop-opacity="0.6"/>
<stop offset="0.59" stop-color="#5CA7AF" stop-opacity="0.6"/>
<stop offset="0.66" stop-color="#5796AC" stop-opacity="0.7"/>
<stop offset="0.81" stop-color="#507DA7" stop-opacity="0.89"/>
<stop offset="0.88" stop-color="#4E74A6" stop-opacity="0.98"/>
</linearGradient>
<clipPath id="clip0_6246_29523">
<rect width="238" height="185" fill="white" transform="translate(41 7.5)"/>
</clipPath>
</defs>
</svg>
