<svg width="330" height="330" viewBox="0 0 330 330" fill="none" xmlns="http://www.w3.org/2000/svg">
<g clip-path="url(#clip0_3671_11923)">
<path d="M220.688 154.747C214.383 148.206 214.324 148.323 211.436 145.082C206.191 139.072 190.34 119.272 166.415 119.036H166.179C142.254 119.213 126.402 139.072 121.158 145.082C118.211 148.441 118.211 148.323 111.258 155.572C94.404 170.657 83.7969 192.579 83.7969 216.975C83.7969 252.45 106.131 282.681 137.54 294.348C137.54 294.407 137.893 294.525 137.893 294.584C139.897 295.409 146.615 297.648 152.449 298.414C156.75 299.122 161.818 299.475 166.356 299.475C211.966 299.475 248.915 262.527 248.915 216.916C248.915 192.107 238.013 169.891 220.688 154.747Z" fill="#DBDBDB"/>
<path d="M166.356 299.888C161.642 299.888 156.574 299.475 152.39 298.827C146.497 298.061 139.838 295.822 137.717 294.938L137.481 294.82V294.761C137.422 294.761 137.363 294.702 137.304 294.643C121.629 288.809 108.252 278.438 98.588 264.766C88.6291 250.741 83.4434 234.182 83.4434 216.916C83.4434 204.954 85.9184 193.345 90.8684 182.561C95.6416 172.13 102.418 162.938 110.963 155.218C112.024 154.157 112.908 153.214 113.674 152.448C117.976 148.029 118.329 147.616 120.863 144.788C121.158 144.434 121.452 144.08 121.865 143.668C124.811 140.309 130.292 133.945 137.776 128.582C146.909 122.041 156.456 118.682 166.238 118.623H166.474C176.256 118.682 185.802 122.1 194.936 128.582C202.42 133.945 207.901 140.25 210.847 143.668C211.201 144.08 211.495 144.434 211.849 144.788C213.734 146.909 214.442 147.616 216.445 149.679C217.506 150.739 218.92 152.213 221.042 154.393C229.881 162.113 236.834 171.364 241.726 181.971C246.793 192.932 249.386 204.659 249.386 216.857C249.386 228.054 247.206 238.955 242.904 249.15C238.72 259.05 232.768 267.889 225.108 275.491C217.506 283.093 208.608 289.104 198.767 293.288C188.454 297.707 177.552 299.888 166.356 299.888ZM138.129 294.23C140.015 294.996 146.674 297.236 152.508 298.002C156.633 298.65 161.701 299.063 166.356 299.063C211.672 299.063 248.502 262.232 248.502 216.916C248.502 193.227 238.249 170.657 220.393 155.041C218.272 152.802 216.799 151.388 215.797 150.327C213.734 148.264 213.086 147.498 211.142 145.377C210.847 145.023 210.552 144.67 210.14 144.257C204.306 137.539 188.808 119.684 166.415 119.448H166.179C143.727 119.625 128.229 137.48 122.454 144.198C122.101 144.611 121.806 144.964 121.452 145.318C118.918 148.205 118.565 148.559 114.263 152.979C113.497 153.745 112.613 154.688 111.552 155.807C94.2273 171.364 84.2684 193.639 84.2684 216.916C84.2684 251.036 105.777 281.973 137.776 293.877L138.011 293.936V293.995C138.011 294.113 138.07 294.171 138.129 294.23Z" fill="#323A50"/>
<path d="M166.356 300.3C155.159 300.3 144.257 298.12 134.004 293.759C124.104 289.575 115.206 283.564 107.545 275.904C99.8842 268.243 93.9324 259.345 89.6895 249.445C85.3288 239.191 83.1484 228.289 83.1484 217.093C83.1484 205.071 85.6824 193.462 90.6324 182.62C95.4056 172.13 102.182 162.937 110.786 155.218C117.386 148.382 117.681 148.087 120.215 145.2L120.627 144.729C120.922 144.375 121.275 143.962 121.688 143.55C124.87 139.896 130.173 133.768 137.657 128.405C146.791 121.805 156.338 118.446 166.179 118.387H166.415C176.197 118.446 185.802 121.864 194.936 128.405C202.42 133.768 207.723 139.896 210.906 143.55C211.318 144.021 211.613 144.375 211.966 144.729C214.854 147.97 214.854 148.029 221.159 154.511C229.998 162.23 236.952 171.541 241.902 182.148C246.97 193.168 249.563 204.895 249.563 217.093C249.563 228.289 247.382 239.191 243.022 249.445C238.838 259.345 232.827 268.243 225.166 275.904C217.506 283.564 208.607 289.516 198.707 293.759C188.513 298.061 177.611 300.3 166.356 300.3ZM166.415 119.566H166.179C143.963 119.743 128.465 137.598 122.631 144.375C122.218 144.846 121.923 145.2 121.57 145.554L121.157 146.025C118.623 148.912 118.27 149.266 111.67 156.102H111.611C94.3449 171.659 84.386 193.875 84.386 217.093C84.386 262.291 121.157 299.062 166.356 299.062C211.554 299.062 248.325 262.291 248.325 217.093C248.325 193.462 238.131 170.952 220.334 155.395L220.275 155.336C213.97 148.795 213.911 148.736 211.023 145.495C210.729 145.141 210.375 144.729 209.963 144.316C204.129 137.598 188.69 119.743 166.415 119.566Z" fill="#323A50"/>
<path opacity="0.83" d="M210.257 155.395C212.26 153.273 212.908 151.152 209.844 147.734C204.717 141.959 189.455 122.63 166.296 122.395H166.06C142.901 122.571 127.639 141.9 122.512 147.734C119.507 151.211 121.098 153.686 121.746 155.159C123.69 158.871 126.578 159.52 127.344 159.048C132.765 155.748 135.476 147.086 141.605 145.082C141.782 145.023 150.68 140.839 165.471 140.721C165.53 140.721 175.548 140.662 184.976 143.609C193.757 145.966 199.237 155.336 204.717 158.636C206.544 159.578 208.665 157.045 210.257 155.395Z" fill="url(#paint0_linear_3671_11923)"/>
<path d="M166.118 292.463C124.22 292.463 90.2773 258.52 90.2773 216.622C90.2773 191.93 102.063 170.068 120.272 156.22" fill="#DBDBDB"/>
<path d="M166.06 292.875C155.689 292.875 145.789 290.871 136.36 286.864C127.285 283.034 119.153 277.554 112.141 270.541C105.128 263.529 99.6477 255.396 95.8173 246.321C91.8691 236.893 89.8066 226.934 89.8066 216.621C89.8066 204.482 92.5763 192.932 97.9977 182.207C103.183 171.954 110.785 162.879 119.919 155.925L120.391 156.573C101.474 170.952 90.5727 192.873 90.5727 216.68C90.5727 258.284 124.398 292.109 166.001 292.109V292.875H166.06Z" fill="#323A50"/>
<path d="M166.12 286.216C204.556 286.216 235.715 255.058 235.715 216.622C235.715 178.185 204.556 147.027 166.12 147.027C127.684 147.027 96.5254 178.185 96.5254 216.622C96.5254 255.058 127.684 286.216 166.12 286.216Z" fill="#DBDBDB"/>
<path d="M166.12 286.511C147.439 286.511 129.938 279.263 116.679 266.063C103.479 252.863 96.2305 235.302 96.2305 216.621C96.2305 197.941 103.479 180.439 116.679 167.18C129.879 153.98 147.439 146.732 166.12 146.732C184.8 146.732 202.302 153.98 215.561 167.18C228.761 180.38 236.009 197.941 236.009 216.621C236.009 235.302 228.761 252.804 215.561 266.063C202.302 279.263 184.741 286.511 166.12 286.511ZM166.12 147.38C127.934 147.38 96.8787 178.436 96.8787 216.621C96.8787 254.807 127.875 285.921 166.12 285.921C204.364 285.921 235.361 254.866 235.361 216.68C235.361 178.495 204.305 147.38 166.12 147.38Z" fill="#323A50"/>
<g opacity="0.1">
<path d="M226.581 244.377L226.109 244.318C225.815 246.675 218.92 249.857 217.447 250.093C216.857 250.211 216.504 250.034 216.15 249.916C215.62 249.739 215.148 249.504 214.206 250.034C212.673 250.977 207.37 256.752 206.191 259.58C205.013 262.468 204.306 263.941 201.595 265.061C200.181 265.65 197.941 265.65 195.584 265.65C193.463 265.65 191.223 265.65 189.456 266.121C186.863 266.829 184.388 268.007 183.209 268.596C183.857 267.889 184.447 267.182 185.036 266.475C186.097 265.237 187.04 264.118 187.629 263.705C188.395 263.116 191.165 262.88 194.111 262.527C198.059 262.114 202.538 261.643 203.952 260.287C205.543 258.814 207.723 253.216 209.55 248.679C210.493 246.262 211.318 244.2 211.848 243.375C212.379 242.491 213.852 241.489 215.443 240.429C218.095 238.661 221.159 236.598 221.1 234.182H220.629C220.688 236.362 217.741 238.307 215.148 240.016C213.44 241.136 211.966 242.137 211.377 243.08C210.847 243.964 210.022 246.027 209.079 248.443C207.311 252.921 205.072 258.461 203.598 259.875C203.068 260.346 202.007 260.759 200.711 261.054C201.536 260.582 202.597 259.875 203.304 258.932C204.6 257.282 205.72 253.393 206.25 251.33C206.368 250.977 206.427 250.682 206.486 250.446C206.663 249.798 206.427 249.386 206.191 248.973C205.897 248.502 205.602 248.03 205.779 246.852C206.015 245.555 206.722 245.025 207.547 244.495C208.077 244.082 208.607 243.729 209.02 243.08C210.022 241.489 209.373 239.898 209.079 239.014V238.955C208.843 238.366 208.313 238.425 207.9 238.425C207.488 238.484 207.252 238.484 207.134 238.248C207.016 238.012 207.311 237.541 207.665 237.07C208.136 236.362 208.725 235.596 208.372 234.83L208.018 235.125C208.254 235.655 207.782 236.304 207.37 236.893C206.898 237.541 206.545 238.13 206.84 238.602C207.134 239.132 207.665 239.073 208.077 239.014C208.49 238.955 208.666 238.955 208.784 239.191V239.25C209.138 240.075 209.609 241.548 208.784 242.904C208.431 243.434 207.959 243.787 207.429 244.2C206.604 244.789 205.779 245.379 205.484 246.852C205.248 248.207 205.602 248.796 205.956 249.268C206.191 249.621 206.309 249.857 206.191 250.329C206.132 250.505 206.073 250.859 205.956 251.212C205.425 253.098 204.306 257.105 203.068 258.637C201.654 260.405 199.238 261.289 199.002 261.407C197.47 261.643 195.761 261.82 194.111 261.996C190.988 262.35 188.336 262.645 187.393 263.234C186.745 263.705 185.802 264.825 184.741 266.121C182.62 268.596 179.732 272.014 177.729 271.896C176.668 271.837 175.548 271.602 174.37 271.366C171.954 270.895 169.243 270.305 166.356 270.836C160.286 271.955 158.282 273.134 157.104 274.548C155.925 275.904 155.336 277.671 155.336 277.73L155.748 277.907C155.748 277.907 156.338 276.139 157.457 274.843C158.577 273.487 160.581 272.368 166.473 271.248C169.302 270.718 171.954 271.248 174.311 271.779C175.548 272.014 176.668 272.25 177.729 272.368C179.202 272.486 180.97 271.012 182.738 269.186L182.797 269.362C182.856 269.362 186.156 267.477 189.632 266.534C191.341 266.062 193.522 266.062 195.643 266.062C198.059 266.062 200.298 266.062 201.831 265.473C204.718 264.354 205.484 262.645 206.663 259.757C207.782 257.046 213.027 251.271 214.5 250.387C215.207 249.916 215.561 250.093 216.032 250.27C216.445 250.446 216.857 250.623 217.623 250.505C219.215 250.329 226.227 247.029 226.581 244.377Z" fill="#323A50"/>
<path d="M171.01 255.337C170.244 256.162 170.362 257.577 170.48 259.168C170.598 260.7 170.775 262.409 170.068 263.823C168.712 266.593 162.702 268.773 162.643 268.773L162.76 269.245C162.996 269.186 169.007 267.005 170.48 264.059C171.187 262.527 171.069 260.759 170.951 259.168C170.834 257.695 170.716 256.398 171.364 255.75C172.071 255.043 174.605 254.453 176.844 253.982C179.437 253.393 181.618 252.862 182.207 252.155C182.737 251.448 182.855 250.8 182.914 250.211C183.032 249.562 183.091 249.091 183.68 248.678C183.975 248.502 185.507 248.561 187.157 248.678C191.694 248.914 198.53 249.327 200.946 245.968C202.891 243.257 202.243 241.312 201.653 239.545C201.182 238.13 200.769 236.952 201.653 235.478C202.302 234.3 203.539 233.946 204.894 233.475C207.546 232.65 210.787 231.589 212.909 224.812C213.38 223.221 213.144 221.571 212.909 219.98C212.555 217.918 212.26 215.914 213.498 214.028L213.085 213.793C211.73 215.796 212.084 217.977 212.378 220.039C212.614 221.63 212.85 223.162 212.378 224.636C210.375 231.177 207.193 232.178 204.659 233.003C203.185 233.475 201.948 233.887 201.182 235.184C200.239 236.834 200.71 238.248 201.182 239.662C201.771 241.371 202.36 243.139 200.534 245.673C198.235 248.855 191.282 248.443 187.098 248.207C185.507 248.148 184.505 248.089 183.916 248.148C184.151 247.5 184.328 246.557 184.505 245.555C184.8 243.787 185.153 241.784 186.214 240.664C186.744 240.134 187.451 239.898 188.453 239.603C190.752 238.955 193.934 238.012 196.468 231.53V231.471C196.939 229.232 196.409 227.641 195.878 226.698C195.643 226.286 195.171 226.05 194.7 225.873C194.169 225.637 193.58 225.343 193.109 224.636C192.284 223.398 191.93 216.503 192.225 215.207C192.225 215.089 192.284 215.03 192.284 215.03C192.343 214.971 192.637 215.089 192.873 215.148C193.58 215.384 194.818 215.855 196.291 214.795L196.055 214.382C194.759 215.325 193.757 214.971 193.05 214.677C192.637 214.559 192.343 214.441 192.107 214.559C191.989 214.618 191.871 214.795 191.812 215.03C191.577 216.327 191.812 223.398 192.755 224.812C193.285 225.578 193.993 225.932 194.523 226.168C194.935 226.345 195.289 226.521 195.466 226.816C195.937 227.641 196.468 229.114 195.996 231.236C193.58 237.482 190.516 238.425 188.335 239.073C187.334 239.368 186.509 239.603 185.919 240.252C184.8 241.489 184.446 243.552 184.093 245.378C183.916 246.616 183.68 247.736 183.326 248.266C182.678 248.737 182.56 249.386 182.443 250.034C182.325 250.623 182.266 251.153 181.794 251.802C181.323 252.45 178.848 252.98 176.727 253.452C174.134 253.982 171.777 254.512 171.01 255.337Z" fill="#323A50"/>
<path d="M171.66 208.784C172.249 209.432 172.721 209.903 172.426 211.318C172.249 212.261 171.719 213.616 171.129 215.03C170.128 217.564 169.126 220.216 169.597 221.395C169.833 221.984 170.187 222.396 170.54 222.809C171.247 223.634 172.013 224.577 171.66 227.17C171.306 229.291 170.246 230.941 169.303 232.237C168.537 233.416 167.829 234.418 167.947 235.361C168.006 236.127 168.419 236.657 168.831 237.128C169.538 238.012 170.304 238.955 169.303 241.312C168.537 243.139 167.476 243.611 166.651 243.964C165.767 244.377 164.942 244.73 165.237 246.439C165.531 248.266 166.71 249.503 167.829 250.623C168.654 251.448 169.479 252.332 170.069 253.452L170.481 253.275C169.892 252.096 169.067 251.212 168.183 250.328C167.063 249.209 166.003 248.089 165.708 246.439C165.472 245.084 165.944 244.848 166.887 244.436C167.771 244.023 168.949 243.552 169.833 241.548C170.953 238.955 170.069 237.836 169.244 236.893C168.831 236.362 168.478 235.95 168.419 235.361C168.36 234.595 168.949 233.652 169.715 232.532C170.658 231.177 171.778 229.468 172.131 227.228C172.603 224.341 171.719 223.339 170.953 222.455C170.599 222.043 170.304 221.689 170.128 221.159C169.715 220.098 170.776 217.446 171.66 215.089C172.249 213.675 172.779 212.261 172.956 211.259C173.31 209.609 172.721 208.961 172.072 208.312C171.66 207.841 171.188 207.428 171.012 206.486L170.54 206.603C170.717 207.782 171.247 208.312 171.66 208.784Z" fill="#323A50"/>
<path d="M174.016 272.486C172.425 271.72 168.418 271.366 166.002 271.837C163.644 272.25 159.519 273.193 157.869 274.961C156.985 275.962 156.102 277.907 156.102 277.966L156.514 278.143C156.514 278.143 157.339 276.198 158.223 275.255C159.814 273.546 164.234 272.603 166.119 272.309C168.712 271.837 172.484 272.309 173.839 272.957C175.312 273.664 175.843 274.725 175.902 275.255C176.078 276.905 173.368 278.378 173.368 278.378L173.544 278.791C173.662 278.732 176.609 277.141 176.314 275.196C176.255 274.371 175.548 273.193 174.016 272.486Z" fill="#323A50"/>
<path d="M175.253 243.964C176.078 244.318 176.903 244.612 177.433 245.378C178.082 246.262 179.378 248.561 177.61 250.564C176.903 251.389 175.135 252.037 173.426 252.627C171.717 253.216 170.185 253.805 169.655 254.571C169.124 255.396 169.183 256.811 169.301 258.461C169.419 259.934 169.478 261.466 169.183 262.645C168.476 265.061 162.407 267.948 162.348 268.007L162.524 268.42C162.76 268.302 168.83 265.414 169.596 262.762C169.949 261.466 169.832 259.875 169.714 258.402C169.596 256.928 169.537 255.514 169.949 254.807C170.362 254.159 171.953 253.57 173.485 253.039C175.253 252.391 177.08 251.743 177.846 250.8C179.201 249.209 179.142 247.087 177.669 245.025C177.08 244.2 176.137 243.787 175.312 243.434C174.487 243.08 173.662 242.786 173.367 242.02C172.66 240.487 173.191 238.778 174.133 238.189C174.369 238.012 174.664 237.895 174.899 237.718C175.724 237.187 176.608 236.716 177.669 235.537C179.083 234.005 181.676 227.818 182.207 224.812C182.501 223.045 182.03 222.278 181.499 221.453C181.087 220.805 180.674 220.157 180.557 218.861L180.085 218.92C180.203 220.275 180.674 221.041 181.087 221.689C181.558 222.455 181.971 223.162 181.735 224.753C181.264 227.7 178.73 233.77 177.316 235.243C176.314 236.362 175.43 236.834 174.664 237.305C174.428 237.482 174.133 237.6 173.898 237.777C172.778 238.484 172.13 240.487 172.955 242.196C173.426 243.257 174.31 243.611 175.253 243.964Z" fill="#323A50"/>
</g>
<g opacity="0.1">
<path d="M155.159 270.659C154.982 269.421 153.568 268.419 152.153 267.477C151.034 266.71 149.325 265.768 147.851 264.943C146.555 264.236 145.376 263.587 144.964 263.234C144.846 263.175 144.728 262.998 144.61 262.821C143.903 261.702 143.373 258.991 143.491 256.81C143.55 255.573 143.432 254.63 143.373 253.864C143.255 253.039 143.196 252.45 143.432 251.919C143.609 251.507 143.903 251.448 144.375 251.389C144.846 251.33 145.494 251.212 145.73 250.446C145.966 249.798 145.848 249.091 145.789 248.384C145.671 247.677 145.612 247.087 145.907 246.616C146.201 246.203 146.496 246.085 146.909 245.968C147.321 245.791 147.793 245.614 148.205 245.025C148.559 244.494 148.087 243.787 147.498 242.962C146.614 241.725 145.435 239.957 145.907 237.835C146.437 235.537 147.144 235.596 148.146 235.773C148.618 235.832 149.207 235.95 149.737 235.714C150.68 235.36 151.564 233.298 152.448 231.177C153.155 229.527 153.862 227.818 154.451 227.346C155.159 226.816 155.748 226.698 156.337 226.58C156.926 226.462 157.457 226.403 157.869 225.814C158.4 225.166 158.105 224.282 157.869 223.516C157.751 223.044 157.575 222.573 157.692 222.337L157.28 222.102C157.103 222.514 157.221 222.985 157.398 223.634C157.575 224.282 157.81 225.048 157.457 225.519C157.103 225.932 156.75 225.991 156.16 226.109C155.571 226.227 154.864 226.344 154.098 226.934C153.391 227.464 152.684 229.173 151.917 230.941C151.151 232.827 150.268 234.948 149.501 235.243C149.03 235.419 148.559 235.36 148.087 235.302C147.026 235.184 145.966 235.007 145.317 237.718C144.787 240.075 146.025 241.902 146.968 243.198C147.439 243.905 147.851 244.494 147.675 244.789C147.38 245.26 147.026 245.378 146.614 245.555C146.201 245.673 145.789 245.85 145.435 246.38C145.023 246.969 145.141 247.736 145.259 248.443C145.376 249.091 145.435 249.739 145.259 250.269C145.082 250.8 144.669 250.859 144.198 250.918C143.726 250.977 143.196 251.036 142.901 251.743C142.666 252.391 142.725 253.039 142.843 253.923C142.96 254.689 143.019 255.573 142.96 256.81C142.842 258.166 143.019 259.816 143.373 261.171C142.371 259.521 141.075 256.987 140.898 254.512C140.721 252.45 141.134 251.684 141.664 250.623C142.194 249.562 142.842 248.266 143.373 245.378C144.08 241.194 142.253 237.364 141.075 235.36C141.193 234.948 142.018 232.178 144.198 231.412L145.317 231C147.38 230.293 149.207 229.644 150.15 229.114C151.387 228.466 152.389 226.344 152.566 225.048C152.684 224.282 152.33 223.81 151.976 223.398C151.682 222.985 151.387 222.632 151.387 222.043C151.446 221.512 152.212 220.982 153.096 220.393C154.334 219.568 155.925 218.507 156.573 216.739C157.339 214.677 156.573 213.734 155.925 212.909C155.571 212.496 155.276 212.143 155.159 211.612L154.746 211.73C154.864 212.319 155.276 212.791 155.571 213.203C156.219 214.028 156.809 214.794 156.16 216.621C155.571 218.212 154.098 219.214 152.86 220.039C151.8 220.746 151.034 221.277 150.975 221.984C150.916 222.809 151.328 223.28 151.623 223.693C151.976 224.105 152.212 224.4 152.094 224.989C151.859 226.344 150.857 228.23 149.914 228.702C148.971 229.173 147.085 229.821 145.141 230.528L144.021 230.941C142.018 231.648 141.075 233.887 140.78 234.83C140.368 234.241 140.132 233.887 140.073 233.828C140.014 233.769 135.83 229.939 134.003 227.052C132.118 224.105 132.176 221.689 133.178 220.864C133.709 220.393 134.769 220.334 136.066 220.275C137.244 220.216 138.541 220.157 139.66 219.744C141.428 219.096 142.666 216.562 143.019 215.796C143.55 214.677 144.021 213.203 143.726 212.496C143.255 211.2 141.31 210.787 141.192 210.728L141.134 211.2C141.134 211.2 142.96 211.612 143.314 212.614C143.432 213.027 143.255 214.146 142.607 215.619C141.959 217.093 140.78 218.861 139.484 219.332C138.364 219.744 137.126 219.803 136.007 219.862C134.71 219.921 133.532 219.98 132.884 220.511C131.764 221.453 131.528 224.046 133.65 227.287C135.476 230.175 139.543 233.887 139.778 234.123C140.014 234.418 143.962 239.544 142.96 245.261C142.489 248.089 141.841 249.385 141.31 250.387C141.192 250.623 141.075 250.859 140.957 251.094C140.426 249.68 140.485 248.855 140.544 248.207C140.603 247.264 140.544 246.734 139.248 245.909C137.539 244.848 134.239 244.671 132.059 244.553C131.175 244.494 130.409 244.436 130.114 244.377C128.759 244.023 128.051 243.434 127.698 242.255C127.403 241.253 127.639 240.959 128.11 240.428C128.228 240.31 128.346 240.134 128.523 239.957C128.7 239.721 129.053 239.485 129.407 239.309C130.232 238.837 131.351 238.189 131.234 236.539C131.175 235.125 130.232 234.653 129.289 234.123C128.641 233.769 127.993 233.475 127.521 232.768C126.284 231.118 124.81 226.344 124.575 223.81C124.28 220.923 124.81 215.502 125.282 215.148C125.459 215.089 126.225 215.443 126.814 215.737C127.934 216.268 129.289 216.916 130.291 216.68C130.467 216.621 130.585 216.621 130.762 216.562C132 216.268 132.117 216.15 132.059 214.912C132 214.028 131.351 213.91 130.821 213.852C130.409 213.793 130.114 213.734 129.878 213.439C129.407 212.85 129.584 210.61 129.643 209.785L129.171 209.727C129.112 210.08 128.818 212.85 129.466 213.675C129.819 214.087 130.291 214.146 130.703 214.205C131.292 214.323 131.528 214.382 131.587 214.853C131.646 215.325 131.646 215.56 131.528 215.678C131.41 215.796 131.116 215.855 130.644 215.973C130.526 216.032 130.35 216.032 130.173 216.091C129.348 216.268 128.051 215.678 126.991 215.207C125.989 214.736 125.459 214.5 125.105 214.618C124.162 214.971 123.868 221.512 124.044 223.752C124.28 226.462 125.753 231.235 127.109 233.003C127.639 233.71 128.405 234.123 128.994 234.477C129.878 234.948 130.644 235.302 130.703 236.48C130.762 237.835 129.937 238.307 129.053 238.837C128.641 239.073 128.287 239.309 128.051 239.603C127.934 239.78 127.816 239.957 127.698 240.075C127.226 240.605 126.873 241.077 127.226 242.314C127.639 243.669 128.464 244.435 129.996 244.789C130.291 244.848 130.703 244.907 131.292 244.907C130.939 245.143 130.585 245.143 130.173 245.143C129.76 245.143 129.289 245.084 128.817 245.437C128.051 245.968 128.523 246.852 128.876 247.5C128.994 247.794 129.171 248.089 129.171 248.266C129.171 248.384 129.112 248.502 128.994 248.619C128.759 248.796 128.287 248.855 127.639 248.796C126.932 248.678 125.93 247.618 125.341 246.969C125.105 246.734 124.928 246.498 124.81 246.439C124.575 246.262 124.221 246.262 123.926 246.321C123.573 246.38 123.16 246.38 122.807 246.144C122.63 246.027 122.453 245.791 122.453 245.496C122.394 244.966 122.63 244.377 122.807 244.2C122.866 244.141 123.043 244.141 123.278 244.141C123.573 244.141 123.926 244.141 124.221 243.905C124.692 243.493 124.869 242.844 124.81 241.843C124.751 241.253 124.28 241.253 123.868 241.253C123.396 241.253 122.866 241.194 122.63 240.546C122.453 240.075 122.689 239.603 123.042 239.014C123.573 238.13 124.221 237.01 123.278 235.36C122.218 233.416 121.039 233.593 120.214 233.769C119.919 233.828 119.625 233.887 119.448 233.828C119.271 233.769 119.153 233.652 119.153 233.593C119.094 233.416 119.212 233.239 119.271 233.18L118.917 232.944C118.917 233.003 118.623 233.357 118.741 233.769C118.8 234.005 118.976 234.241 119.33 234.359C119.625 234.477 119.978 234.418 120.332 234.359C121.098 234.241 122.041 234.005 122.925 235.714C123.691 237.128 123.16 238.071 122.689 238.896C122.335 239.544 121.982 240.134 122.218 240.782C122.571 241.725 123.337 241.784 123.868 241.784C124.339 241.784 124.398 241.843 124.398 241.96C124.457 242.785 124.339 243.375 123.985 243.669C123.809 243.787 123.573 243.787 123.337 243.787C123.042 243.787 122.748 243.787 122.512 244.023C122.276 244.259 121.982 245.025 122.1 245.673C122.159 246.085 122.335 246.439 122.63 246.675C123.16 247.028 123.691 247.028 124.044 246.969C124.339 246.969 124.516 246.911 124.634 247.028C124.751 247.087 124.869 247.323 125.105 247.559C125.753 248.266 126.814 249.444 127.639 249.562C127.639 249.562 127.639 249.562 127.698 249.562C128.464 249.68 129.053 249.562 129.407 249.268C129.584 249.091 129.701 248.855 129.76 248.56C129.76 248.266 129.584 247.971 129.407 247.559C129.053 246.852 128.817 246.38 129.23 246.085C129.584 245.85 129.878 245.85 130.291 245.85C130.821 245.85 131.469 245.909 132 245.202C132.059 245.202 132.118 245.202 132.118 245.202C134.239 245.319 137.48 245.555 139.071 246.498C140.191 247.205 140.191 247.559 140.132 248.384C140.073 249.15 140.014 250.152 140.78 251.919C140.544 252.627 140.426 253.452 140.544 254.807C140.839 258.932 144.021 263.057 144.257 263.352C144.375 263.528 144.551 263.705 144.669 263.823C145.141 264.177 146.319 264.825 147.616 265.591C149.089 266.416 150.798 267.359 151.859 268.125C153.155 269.009 154.51 270.01 154.687 271.071C154.746 271.543 154.628 272.073 154.157 272.603C152.566 274.666 150.621 282.032 150.562 282.268L151.034 282.327C151.092 281.855 153.037 274.843 154.51 272.898C155.1 271.896 155.276 271.307 155.159 270.659Z" fill="#323A50"/>
<path d="M152.037 272.544C151.389 270.305 148.206 267.948 147.146 267.241C144.848 265.827 139.603 265.532 137.187 266.062C136.067 266.298 135.301 266.652 134.594 267.005C133.828 267.359 133.18 267.712 132.296 267.712C130.469 267.712 129.467 267.948 128.583 268.596C128.406 268.714 128.348 268.891 128.348 269.009C128.348 269.362 128.701 269.716 129.055 270.069C129.349 270.305 129.762 270.718 129.703 270.895C129.703 271.012 129.585 271.071 129.467 271.13C128.289 271.778 127.346 270.895 127.346 270.836L126.992 271.189C126.992 271.189 128.171 272.368 129.644 271.602C129.939 271.425 130.056 271.248 130.115 271.012C130.174 270.541 129.703 270.187 129.349 269.775C129.114 269.539 128.76 269.245 128.76 269.068L128.819 269.009C129.585 268.419 130.528 268.243 132.237 268.243C133.239 268.243 133.946 267.889 134.771 267.477C135.419 267.123 136.185 266.769 137.246 266.593C139.544 266.121 144.671 266.416 146.851 267.712C148.148 268.478 151.035 270.777 151.565 272.721C151.683 273.252 151.448 274.195 151.094 274.961C149.326 279.086 148.737 281.973 148.737 282.032L149.149 282.091C149.149 282.091 149.739 279.144 151.506 275.137C151.801 274.607 152.273 273.369 152.037 272.544Z" fill="#323A50"/>
<path d="M153.097 272.191C152.979 271.366 152.154 270.482 151.859 270.128C151.8 270.069 151.8 270.069 151.8 270.069C150.15 268.125 147.734 266.239 146.143 265.65C145.672 265.473 145.141 265.355 144.493 265.237C141.959 264 139.425 263.528 137.068 263.057C135.772 262.821 134.416 262.527 133.12 262.173C129.525 261.112 123.515 255.161 123.279 254.866C123.102 254.63 119.036 249.444 118.624 247.677C118.447 246.91 117.563 243.021 117.15 241.961C116.738 241.018 111.611 239.309 110.55 238.955C108.075 238.837 104.363 238.602 104.068 238.366C103.656 238.071 103.184 236.657 103.302 236.068C103.302 235.832 103.597 235.655 103.891 235.478C104.363 235.184 104.893 234.771 105.011 234.064C105.07 233.534 104.716 232.002 104.068 229.468C103.479 227.052 102.713 223.81 102.89 223.221C103.066 222.691 103.42 222.632 103.715 222.514C104.068 222.455 104.422 222.337 104.54 221.807C104.599 221.63 104.481 221.453 104.422 221.394C104.186 221.159 103.656 221.159 102.949 221.218C102.241 221.277 101.299 221.336 100.945 220.982L100.65 221.336C101.181 221.807 102.124 221.748 102.949 221.689C103.361 221.689 103.95 221.63 104.068 221.748C104.009 221.984 103.95 221.984 103.597 222.102C103.243 222.219 102.713 222.337 102.418 223.103C102.183 223.752 102.713 226.109 103.597 229.586C104.068 231.53 104.599 233.593 104.481 234.064C104.422 234.594 103.95 234.889 103.538 235.184C103.125 235.419 102.772 235.714 102.713 236.127C102.595 236.834 103.125 238.484 103.715 238.837C104.186 239.191 108.9 239.427 110.433 239.486C113.379 240.428 116.502 241.725 116.679 242.196C117.033 243.021 117.681 245.673 118.093 247.853C118.506 249.739 122.69 255.043 122.866 255.219C123.102 255.455 129.172 261.525 132.884 262.644C134.24 263.057 135.595 263.293 136.891 263.528C138.777 263.882 140.781 264.294 142.784 265.06C141.665 264.943 140.427 264.884 139.308 264.766C138.306 264.707 137.422 264.648 136.656 264.53C131.116 263.941 127.993 263.116 125.99 261.643C123.691 260.052 116.856 254.041 116.325 253.334C116.031 252.921 115.913 252.509 115.736 251.978C115.618 251.566 115.5 251.094 115.265 250.564C114.44 248.678 111.14 246.557 108.783 245.084C107.545 244.318 106.484 243.61 106.249 243.257C105.895 242.727 106.013 242.373 106.19 241.902C106.308 241.548 106.484 241.194 106.484 240.723H106.072C106.072 241.136 105.954 241.43 105.836 241.725C105.6 242.255 105.424 242.727 105.895 243.493C106.19 243.905 107.191 244.553 108.547 245.437C110.845 246.911 114.027 248.973 114.852 250.741C115.088 251.212 115.206 251.684 115.324 252.096C115.5 252.685 115.618 253.157 115.972 253.628C116.561 254.336 123.456 260.405 125.754 262.055C127.816 263.528 130.999 264.412 136.656 265.002C137.363 265.061 138.306 265.119 139.308 265.237C141.783 265.414 144.552 265.65 145.966 266.121C147.44 266.652 149.797 268.478 151.447 270.364C151.447 270.364 151.506 270.423 151.506 270.482C151.741 270.777 152.566 271.661 152.625 272.309C152.743 272.957 152.272 274.194 151.624 275.962C151.034 277.612 150.268 279.616 149.62 282.091L150.033 282.209C150.681 279.734 151.388 277.73 152.036 276.139C152.743 274.194 153.156 272.957 153.097 272.191Z" fill="#323A50"/>
<path d="M106.071 209.55C106.012 209.903 105.659 210.434 105.246 211.023C104.539 212.143 103.655 213.38 104.185 214.323C104.48 214.853 105.187 215.325 106.012 215.914C107.544 216.916 109.489 218.212 110.255 220.511C111.493 224.223 114.616 230.823 114.675 230.882V230.941C114.734 231 118.564 236.186 117.209 241.253L117.621 241.371C118.976 236.245 115.323 231.118 115.028 230.705C115.028 230.646 114.91 230.47 114.793 230.234C115.323 230.116 116.501 229.762 117.268 228.761C117.857 227.995 118.093 226.993 117.975 225.755C117.739 223.693 116.737 221.807 115.853 220.098C115.087 218.625 114.439 217.387 114.557 216.503C114.616 215.737 115.087 215.62 115.676 215.384C116.384 215.207 117.268 214.912 117.444 213.38C117.621 211.73 116.501 211.023 115.559 210.493C114.851 210.021 114.38 209.727 114.439 209.196C114.557 207.723 116.678 205.661 116.678 205.661L116.384 205.307C116.325 205.366 114.144 207.487 114.026 209.137C113.968 209.962 114.675 210.434 115.382 210.846C116.266 211.377 117.209 211.966 117.032 213.321C116.914 214.559 116.266 214.736 115.618 214.912C114.969 215.089 114.262 215.325 114.203 216.386C114.144 217.446 114.793 218.743 115.559 220.216C116.384 221.866 117.385 223.752 117.621 225.696C117.739 226.757 117.562 227.641 117.032 228.348C116.266 229.35 115.087 229.645 114.675 229.703C113.791 227.759 111.669 223.162 110.726 220.334C109.901 217.859 107.839 216.503 106.307 215.443C105.541 214.912 104.834 214.441 104.598 214.028C104.185 213.321 104.951 212.202 105.6 211.2C106.071 210.552 106.425 209.962 106.484 209.55C106.543 208.902 105.953 207.959 105.187 206.898C104.539 205.896 103.773 204.777 103.655 203.952L103.184 204.011C103.301 204.895 104.068 206.014 104.775 207.134C105.482 208.136 106.13 209.137 106.071 209.55Z" fill="#323A50"/>
<path d="M150.444 274.077C149.914 272.839 148.323 271.837 147.203 271.13C146.732 270.836 146.378 270.6 146.201 270.423C146.025 270.246 146.025 270.07 145.966 269.893C145.848 269.362 145.671 268.891 144.551 268.478C142.843 267.771 138.776 267.418 137.421 268.302C136.891 268.655 136.832 269.068 136.832 269.421C136.95 270.364 138.069 271.189 139.13 271.543C139.837 271.778 139.896 272.545 139.955 273.311C140.014 273.959 140.073 274.607 140.544 275.02C140.898 275.255 141.016 275.491 140.957 275.668C140.898 275.903 140.485 276.198 139.601 276.316C138.305 276.434 136.301 275.903 136.301 275.903L136.184 276.375C136.243 276.375 138.246 276.905 139.66 276.787C140.662 276.67 141.31 276.316 141.428 275.786C141.546 275.373 141.31 274.961 140.839 274.607C140.485 274.371 140.485 273.841 140.426 273.252C140.368 272.486 140.309 271.425 139.307 271.13C138.246 270.777 137.362 270.011 137.303 269.362C137.303 269.127 137.421 268.891 137.657 268.714C138.835 268.007 142.666 268.243 144.375 268.95C145.376 269.362 145.435 269.716 145.553 270.07C145.612 270.305 145.671 270.6 145.966 270.836C146.143 271.012 146.555 271.307 147.026 271.602C148.087 272.25 149.619 273.311 150.091 274.371C150.444 275.137 150.032 275.962 149.501 277.141C149.03 278.261 148.382 279.616 148.146 281.443L148.618 281.502C148.853 279.734 149.443 278.378 149.973 277.318C150.444 276.021 150.857 275.02 150.444 274.077Z" fill="#323A50"/>
</g>
<g opacity="0.34">
<path d="M166.237 283.918C203.697 283.918 234.064 253.683 234.064 216.386C234.064 179.089 203.697 148.854 166.237 148.854C128.777 148.854 98.4102 179.089 98.4102 216.386C98.4102 253.683 128.777 283.918 166.237 283.918Z" fill="url(#paint1_radial_3671_11923)"/>
<path d="M166.002 284.448C147.852 284.448 130.762 277.436 117.916 264.589C105.069 251.802 97.998 234.771 97.998 216.739C97.998 198.707 105.069 181.677 117.916 168.889C130.762 156.102 147.852 149.03 166.002 149.03C184.152 149.03 201.241 156.043 214.087 168.889C226.934 181.677 234.005 198.707 234.005 216.739C234.005 234.83 226.934 251.802 214.087 264.589C201.241 277.436 184.152 284.448 166.002 284.448ZM166.002 149.443C128.7 149.443 98.3516 179.614 98.3516 216.739C98.3516 253.864 128.7 284.036 166.002 284.036C203.303 284.036 233.593 253.864 233.593 216.739C233.593 179.614 203.244 149.443 166.002 149.443Z" fill="#323A50"/>
</g>
<path d="M166.591 141.9C153.037 141.9 142.607 150.503 141.487 165.412C141.428 166.12 141.546 166.002 141.546 165.471C141.546 159.932 152.507 157.045 166.06 157.045C179.614 157.045 190.575 159.932 190.575 165.471C190.575 165.884 190.575 165.943 190.634 165.53C190.81 152.389 180.144 141.9 166.591 141.9Z" fill="#293C4F"/>
<path d="M148.56 150.445C148.56 150.563 148.442 149.796 148.501 148.971C148.56 148.382 148.737 147.675 149.031 147.145C149.326 146.614 149.68 146.084 150.151 145.613C150.151 145.613 150.21 145.613 150.21 145.554C152.98 142.725 158.873 140.78 165.649 140.78C175.078 140.78 182.798 144.493 182.798 149.089C182.798 149.089 182.798 149.679 182.739 150.091C182.68 150.857 182.385 151.564 181.914 152.213L204.896 158.518C204.896 158.046 204.896 158.989 204.896 157.221C204.896 145.73 187.453 136.42 165.944 136.42C144.435 136.42 126.992 145.73 126.992 157.221C126.992 157.87 127.051 158.577 127.169 159.225L149.739 152.507C149.385 152.036 148.678 151.034 148.56 150.445Z" fill="#DBDBDB"/>
<path d="M126.874 159.814L126.815 159.343C126.698 158.636 126.639 157.987 126.639 157.28C126.639 151.564 130.764 146.202 138.248 142.254C145.673 138.305 155.514 136.125 166.003 136.125C176.492 136.125 186.333 138.305 193.758 142.254C201.242 146.261 205.367 151.623 205.367 157.28C205.367 157.811 205.367 158.105 205.367 158.282C205.367 158.341 205.367 158.4 205.367 158.459H205.308C205.308 158.459 205.249 158.518 205.249 158.577V159.107L181.265 152.507L181.619 152.036C182.09 151.388 182.326 150.739 182.385 150.091C182.444 149.62 182.444 149.089 182.444 149.089C182.444 144.729 174.96 141.193 165.708 141.193C159.285 141.193 153.333 143.02 150.564 145.789L150.505 145.848C150.033 146.32 149.739 146.791 149.444 147.262C149.208 147.734 148.973 148.382 148.914 148.912C148.855 149.443 148.914 149.973 148.914 150.15V150.268C149.032 150.68 149.385 151.329 150.092 152.33L150.446 152.802L126.874 159.814ZM165.944 136.95C144.73 136.95 127.405 146.084 127.405 157.339C127.405 157.811 127.464 158.341 127.523 158.812L149.149 152.389C148.737 151.741 148.324 151.093 148.148 150.562C147.971 150.091 148.089 148.912 148.089 148.912C148.148 148.264 148.383 147.557 148.678 146.968C148.973 146.437 149.385 145.848 149.857 145.377L149.915 145.318C152.862 142.313 158.873 140.427 165.59 140.427C170.246 140.427 174.607 141.311 177.907 142.902C181.265 144.552 183.151 146.791 183.151 149.148C183.151 149.207 183.151 149.737 183.092 150.209C183.033 150.857 182.857 151.446 182.503 152.095L204.424 158.105C204.424 157.929 204.424 157.693 204.424 157.339C204.483 146.084 187.217 136.95 165.944 136.95Z" fill="#323A50"/>
<path opacity="0.52" d="M165.649 142.961C174.43 142.961 181.678 146.202 182.739 150.386C182.798 150.032 182.856 149.737 182.856 149.384C182.856 144.728 175.137 140.957 165.649 140.957C156.162 140.957 148.442 144.728 148.442 149.384C148.442 149.561 148.383 149.855 148.442 149.973C148.442 150.032 148.442 150.739 148.796 151.741C148.973 152.271 149.621 152.507 149.68 152.389C148.619 151.093 148.619 150.091 148.678 149.973C150.092 146.025 157.164 142.961 165.649 142.961Z" fill="url(#paint2_linear_3671_11923)"/>
<path d="M165.649 143.962C174.37 143.962 180.911 147.734 181.972 152.448C182.856 151.093 182.797 149.973 182.797 149.62C182.797 144.964 175.136 140.957 165.649 140.957C156.22 140.957 148.501 144.434 148.383 149.737C148.383 150.091 148.677 152.389 149.62 152.389C149.62 147.086 156.927 143.962 165.649 143.962Z" fill="#DBDBDB"/>
<path d="M181.795 153.509L181.618 152.566C180.558 147.793 173.899 144.375 165.708 144.375C159.579 144.375 154.393 145.907 151.859 148.5C150.681 149.679 150.15 150.975 150.15 152.448V152.861H149.738C149.561 152.861 149.266 152.802 148.972 152.507C148.265 151.741 148.088 150.032 148.088 149.796C148.147 147.086 150.033 144.729 153.45 143.02C156.633 141.429 160.993 140.604 165.766 140.604C170.363 140.604 174.724 141.546 178.083 143.255C181.441 144.964 183.327 147.262 183.327 149.679V149.737C183.327 150.15 183.327 151.329 182.443 152.684L181.795 153.509ZM165.708 141.37C155.984 141.37 148.913 144.905 148.854 149.796C148.854 150.032 149.031 151.093 149.325 151.682C149.502 150.327 150.091 149.03 151.211 147.911C153.922 145.2 159.284 143.55 165.649 143.55C169.95 143.55 173.84 144.434 176.904 146.084C179.497 147.439 181.324 149.325 182.09 151.446C182.384 150.68 182.384 150.091 182.384 149.796V149.679C182.384 145.2 174.724 141.37 165.708 141.37Z" fill="#323A50"/>
<path d="M166.121 284.684C147.971 284.684 130.823 277.612 118.035 264.766C105.189 251.919 98.1172 234.83 98.1172 216.68C98.1172 201.653 102.89 187.452 111.965 175.548L112.437 175.902C103.48 187.687 98.7065 201.83 98.7065 216.68C98.7065 253.864 128.996 284.153 166.18 284.153C203.364 284.153 233.653 253.864 233.653 216.68C233.653 201.653 228.821 187.452 219.687 175.607L220.158 175.253C229.351 187.216 234.242 201.536 234.242 216.68C234.242 234.83 227.171 251.978 214.324 264.766C201.36 277.612 184.271 284.684 166.121 284.684Z" fill="#323A50"/>
<path d="M149.798 152.448L149.857 155.63L133.651 161.582C133.062 161.818 133.062 162.643 133.651 162.878L133.71 162.937L134.83 163.409C135.184 163.527 135.125 164.057 134.771 164.116L132.473 164.587H132.355C131.294 164.823 131.176 166.237 132.178 166.65L134.535 167.652C134.948 167.828 134.889 168.418 134.476 168.536C132.414 169.007 128.171 170.127 121.984 172.366C101.535 180.498 91.8711 203.068 91.8711 203.068C91.8711 203.068 93.8157 192.343 97.3514 185.095C99.5907 180.439 103.126 173.073 110.434 165C115.325 159.637 121.866 154.746 121.866 154.746C121.866 154.746 124.223 159.873 127.641 158.753C130.234 157.457 145.555 151.977 149.798 152.448Z" fill="#DBDBDB"/>
<path d="M90.6328 206.604L91.281 203.009C91.281 202.891 93.2846 192.166 96.7614 184.918C98.9418 180.439 102.536 172.896 109.902 164.764C114.735 159.402 121.335 154.511 121.452 154.452L121.865 154.157L122.042 154.628C122.042 154.687 123.869 158.577 126.52 158.577C126.756 158.577 127.051 158.518 127.345 158.459C130.056 157.162 144.258 152.036 149.208 152.036C149.444 152.036 149.679 152.036 149.856 152.095L150.21 152.154L150.269 155.984L133.769 162.054C133.592 162.112 133.592 162.23 133.592 162.289C133.592 162.348 133.592 162.466 133.769 162.525L134.947 162.996C135.301 163.114 135.477 163.468 135.419 163.762C135.36 164.116 135.124 164.411 134.77 164.47L132.295 165C131.942 165.059 131.765 165.354 131.765 165.589C131.765 165.825 131.824 166.12 132.177 166.296L134.535 167.298C134.888 167.475 135.065 167.77 135.065 168.182C135.006 168.595 134.77 168.889 134.417 168.948C132.413 169.42 128.17 170.48 121.983 172.779C111.552 176.962 103.951 184.977 99.4721 191.046C94.581 197.587 92.165 203.245 92.106 203.304L90.6328 206.604ZM121.511 155.395C120.038 156.514 114.617 160.757 110.492 165.295C103.185 173.309 99.6489 180.793 97.4685 185.271C95.1703 190.045 93.5792 196.291 92.6953 200.003C93.9328 197.705 95.9364 194.287 98.706 190.516C103.244 184.387 110.963 176.196 121.629 171.953C127.817 169.655 132.119 168.595 134.181 168.123C134.181 168.123 134.24 168.123 134.24 168.064C134.24 168.005 134.24 168.005 134.181 168.005L131.824 167.003C131.235 166.768 130.822 166.12 130.94 165.471C130.999 164.823 131.47 164.293 132.119 164.175L134.476 163.645L133.356 163.173C132.944 162.996 132.649 162.584 132.708 162.112C132.708 161.641 133.002 161.287 133.415 161.111L149.385 155.277V152.743C149.326 152.743 149.267 152.743 149.149 152.743C144.317 152.743 130.233 157.811 127.64 159.048H127.581C127.227 159.166 126.874 159.225 126.52 159.225C123.927 159.343 122.16 156.514 121.511 155.395Z" fill="#323A50"/>
<path d="M166.061 292.875V292.05C207.664 292.05 241.548 258.225 241.548 216.621C241.548 192.814 230.705 170.893 211.73 156.514L212.202 155.866C221.394 162.82 228.937 171.953 234.123 182.148C239.544 192.873 242.314 204.482 242.314 216.562C242.314 226.875 240.311 236.834 236.303 246.262C232.473 255.337 226.993 263.528 219.98 270.482C212.968 277.495 204.836 282.975 195.702 286.805C186.391 290.871 176.432 292.875 166.061 292.875Z" fill="#323A50"/>
<path d="M181.971 152.507L181.912 155.689L198.53 161.228C199.119 161.464 199.119 162.289 198.53 162.525L198.471 162.584L197.351 163.055C196.998 163.173 197.057 163.703 197.41 163.762L199.709 164.234H199.826C200.887 164.47 201.005 165.884 200.003 166.296L197.646 167.298C197.234 167.475 197.292 168.064 197.705 168.182C199.767 168.653 204.01 169.773 210.198 172.012C230.646 180.145 240.251 202.302 240.251 202.302C240.251 202.302 238.307 192.048 234.83 184.741C232.591 180.086 229.055 172.719 221.748 164.646C216.857 159.284 209.903 155.1 209.903 155.1C209.903 155.1 207.959 159.519 204.482 158.4C201.889 157.044 186.155 151.977 181.971 152.507Z" fill="#DBDBDB"/>
<path d="M241.489 205.72L240.075 202.42C240.075 202.361 237.6 196.821 232.709 190.398C228.23 184.446 220.688 176.55 210.198 172.366C204.07 170.068 199.768 169.007 197.764 168.595C197.411 168.536 197.116 168.182 197.116 167.829C197.116 167.475 197.293 167.121 197.646 166.945L200.004 165.943C200.357 165.825 200.475 165.471 200.416 165.236C200.416 165 200.239 164.705 199.886 164.646L197.411 164.116C197.057 164.057 196.821 163.762 196.763 163.409C196.704 163.055 196.939 162.761 197.234 162.643L198.413 162.171C198.589 162.112 198.589 161.995 198.589 161.936C198.589 161.877 198.589 161.759 198.413 161.7L181.5 156.102L181.559 152.271L181.913 152.212C182.089 152.212 182.384 152.154 182.62 152.154C187.629 152.154 202.066 156.809 204.836 158.164C205.13 158.282 205.484 158.282 205.779 158.282C208.254 158.282 209.727 155.041 209.727 155.041L209.904 154.629L210.316 154.864C210.375 154.923 217.387 159.107 222.22 164.47C229.586 172.602 233.18 180.145 235.361 184.623C238.838 191.871 240.782 202.125 240.841 202.243L241.489 205.72ZM197.646 163.291L200.004 163.821C200.652 163.939 201.123 164.47 201.182 165.118C201.241 165.766 200.888 166.355 200.298 166.65L197.941 167.652C197.941 167.652 197.882 167.652 197.882 167.711C197.882 167.77 197.882 167.77 197.941 167.77C199.945 168.241 204.246 169.302 210.434 171.6C221.1 175.843 228.761 183.916 233.298 189.927C236.068 193.58 238.071 196.939 239.25 199.179C238.425 195.584 236.775 189.573 234.536 184.859C232.414 180.38 228.82 172.896 221.513 164.882C217.388 160.345 211.671 156.573 210.139 155.63C209.609 156.632 208.077 158.93 205.661 158.93C205.248 158.93 204.895 158.871 204.482 158.754H204.423C201.83 157.457 187.511 152.802 182.561 152.802C182.443 152.802 182.384 152.802 182.325 152.802V155.277L198.648 160.698C199.12 160.875 199.355 161.229 199.355 161.7C199.355 162.171 199.12 162.525 198.707 162.761L197.646 163.291Z" fill="#323A50"/>
<path d="M190.752 165.825C190.752 160.286 179.732 157.398 166.179 157.398C152.625 157.398 141.605 160.286 141.605 165.825C141.605 171.364 152.625 177.552 166.179 177.552C179.732 177.552 190.752 171.423 190.752 165.825Z" fill="#DBDBDB"/>
<path d="M166.179 177.964C159.756 177.964 153.509 176.609 148.618 174.134C143.904 171.777 141.193 168.712 141.193 165.825C141.193 162.996 143.786 160.698 148.677 159.107C153.097 157.693 159.167 156.986 166.179 156.986C173.192 156.986 179.261 157.752 183.681 159.107C188.572 160.698 191.165 162.996 191.165 165.825C191.165 168.771 188.454 171.777 183.74 174.134C178.849 176.609 172.602 177.964 166.179 177.964ZM166.179 157.811C159.343 157.811 153.215 158.577 148.913 159.932C145.731 160.934 142.018 162.761 142.018 165.884C142.018 168.418 144.611 171.305 148.972 173.486C153.745 175.902 159.874 177.198 166.179 177.198C172.484 177.198 178.613 175.902 183.386 173.486C187.747 171.305 190.34 168.477 190.34 165.884C190.34 162.82 186.568 160.934 183.445 159.932C179.143 158.577 173.015 157.811 166.179 157.811Z" fill="#323A50"/>
<path d="M190.105 165.943C190.105 160.698 179.38 157.988 166.121 157.988C152.921 157.988 142.137 160.698 142.137 165.943C142.137 171.188 152.862 177.021 166.121 177.021C179.38 177.021 190.105 171.188 190.105 165.943Z" fill="#DBDBDB"/>
<path d="M166.18 177.139C159.933 177.139 153.922 175.902 149.208 173.545C144.73 171.364 142.137 168.595 142.137 165.943C142.137 163.409 144.612 161.346 149.208 159.873C153.51 158.577 159.344 157.87 166.18 157.87C173.015 157.87 178.849 158.577 183.151 159.873C187.806 161.287 190.222 163.409 190.222 165.943C190.222 168.595 187.63 171.364 183.151 173.545C178.437 175.843 172.367 177.139 166.18 177.139ZM166.18 158.105C151.683 158.105 142.313 161.17 142.313 166.002C142.313 171.07 152.744 176.962 166.18 176.962C179.615 176.962 190.046 171.07 190.046 166.002C189.987 161.17 180.676 158.105 166.18 158.105Z" fill="#323A50"/>
<path d="M188.866 166.119C188.866 161.582 178.671 159.225 166.119 159.225C153.568 159.225 143.373 161.582 143.373 166.119C143.373 170.657 153.568 175.666 166.119 175.666C178.671 175.666 188.866 170.657 188.866 166.119Z" fill="#DBDBDB"/>
<path d="M166.12 175.725C160.227 175.725 154.511 174.605 150.032 172.661C145.789 170.775 143.314 168.359 143.314 166.061C143.314 163.88 145.672 162.053 150.032 160.816C154.098 159.696 159.697 159.048 166.12 159.048C172.543 159.048 178.141 159.637 182.207 160.816C186.627 162.053 188.925 163.88 188.925 166.061C188.925 168.359 186.45 170.775 182.207 172.661C177.788 174.664 172.013 175.725 166.12 175.725ZM166.12 159.343C152.389 159.343 143.491 161.995 143.491 166.12C143.491 170.48 153.391 175.548 166.12 175.548C178.848 175.548 188.748 170.48 188.748 166.12C188.748 161.995 179.909 159.343 166.12 159.343Z" fill="#323A50"/>
<path d="M187.51 166.178C187.51 162.289 177.846 160.227 166.001 160.227C154.098 160.227 144.492 162.23 144.492 166.178C144.492 170.127 154.156 174.369 166.001 174.369C177.905 174.369 187.51 170.068 187.51 166.178Z" fill="#DBDBDB"/>
<path d="M166.002 174.487C160.404 174.487 154.982 173.545 150.739 171.836C146.732 170.186 144.375 168.123 144.375 166.178C144.375 164.293 146.614 162.702 150.739 161.641C154.57 160.639 159.873 160.168 166.002 160.168C172.13 160.168 177.375 160.698 181.264 161.641C185.448 162.702 187.629 164.293 187.629 166.178C187.629 168.123 185.33 170.186 181.264 171.836C177.021 173.545 171.6 174.487 166.002 174.487ZM166.002 160.345C152.979 160.345 144.611 162.643 144.611 166.178C144.611 169.95 153.98 174.311 166.002 174.311C178.023 174.311 187.393 169.891 187.393 166.178C187.393 162.643 179.025 160.345 166.002 160.345Z" fill="#323A50"/>
<path d="M186.037 166.12C186.037 162.996 177.08 161.405 165.942 161.405C154.805 161.405 145.848 162.996 145.848 166.12C145.848 169.243 154.805 173.073 165.942 173.073C177.08 173.014 186.037 169.184 186.037 166.12Z" fill="#DBDBDB"/>
<path d="M165.943 173.132C154.746 173.132 145.789 169.302 145.789 166.119C145.789 162.584 156.632 161.287 165.943 161.287C175.253 161.287 186.096 162.525 186.096 166.119C186.155 169.243 177.139 173.132 165.943 173.132ZM165.943 161.464C153.803 161.464 145.966 163.291 145.966 166.061C145.966 169.125 155.218 172.896 165.943 172.896C176.668 172.896 185.919 169.125 185.919 166.061C185.919 163.291 178.082 161.464 165.943 161.464Z" fill="#323A50"/>
<path d="M184.329 166.119C184.329 163.703 176.079 162.466 165.884 162.466C155.689 162.466 147.439 163.703 147.439 166.119C147.439 168.535 155.689 171.541 165.884 171.541C176.079 171.541 184.329 168.535 184.329 166.119Z" fill="#DBDBDB"/>
<path d="M165.943 171.659C155.689 171.659 147.439 168.653 147.439 166.178C147.439 163.409 156.986 162.407 165.943 162.407C174.9 162.407 184.447 163.409 184.447 166.178C184.447 168.594 176.197 171.659 165.943 171.659ZM165.943 162.584C154.982 162.584 147.616 163.998 147.616 166.178C147.616 168.594 156.102 171.482 165.943 171.482C175.843 171.482 184.27 168.536 184.27 166.178C184.211 163.998 176.845 162.584 165.943 162.584Z" fill="#323A50"/>
<path d="M182.385 166.355C182.385 164.588 174.96 163.704 165.827 163.704C156.693 163.704 149.268 164.588 149.268 166.355C149.268 168.123 156.693 170.304 165.827 170.304C174.96 170.304 182.385 168.123 182.385 166.355Z" fill="#DBDBDB"/>
<path d="M165.767 170.362C156.515 170.362 149.09 168.123 149.09 166.355C149.09 164.293 157.693 163.586 165.767 163.586C173.84 163.586 182.443 164.293 182.443 166.355C182.443 168.182 175.018 170.362 165.767 170.362ZM165.767 163.762C155.926 163.762 149.267 164.823 149.267 166.296C149.267 167.829 156.161 170.127 165.767 170.127C175.313 170.127 182.267 167.829 182.267 166.296C182.267 164.823 175.667 163.762 165.767 163.762Z" fill="#323A50"/>
<path opacity="0.63" d="M228.761 217.859C228.761 252.45 200.594 280.441 165.885 280.441C131.176 280.441 103.008 252.391 103.008 217.859C103.008 207.841 105.365 198.354 109.608 189.927C110.904 187.334 112.79 184.447 115.206 182.62C130.351 171.305 140.251 185.566 164.765 185.566C193.522 185.566 202.597 170.893 216.269 181.854C218.685 183.798 220.511 186.686 221.631 188.748C226.169 197.47 228.761 207.37 228.761 217.859Z" fill="url(#paint3_linear_3671_11923)"/>
</g>
<defs>
<linearGradient id="paint0_linear_3671_11923" x1="178.593" y1="199.434" x2="143.979" y2="64.7905" gradientUnits="userSpaceOnUse">
<stop offset="0.2655" stop-color="#032A3D" stop-opacity="0"/>
<stop offset="0.7809" stop-color="#032A3D"/>
</linearGradient>
<radialGradient id="paint1_radial_3671_11923" cx="0" cy="0" r="1" gradientUnits="userSpaceOnUse" gradientTransform="translate(167.463 236.648) scale(71.5138 71.1871)">
<stop offset="0.4054" stop-color="#032A3D" stop-opacity="0"/>
<stop offset="1" stop-color="#032A3D"/>
</radialGradient>
<linearGradient id="paint2_linear_3671_11923" x1="188.267" y1="173.064" x2="141.717" y2="124.466" gradientUnits="userSpaceOnUse">
<stop offset="0.3301" stop-color="#C4FFFF"/>
<stop offset="0.8279" stop-color="#47B4FF"/>
<stop offset="1" stop-color="#0C37A6"/>
</linearGradient>
<linearGradient id="paint3_linear_3671_11923" x1="122.016" y1="139.441" x2="232.908" y2="337.768" gradientUnits="userSpaceOnUse">
<stop stop-color="#E9F0F0"/>
<stop offset="0.4806" stop-color="#898B8D"/>
<stop offset="0.9748" stop-color="#6F6A81"/>
</linearGradient>
<clipPath id="clip0_3671_11923">
<rect width="330" height="330" fill="white"/>
</clipPath>
</defs>
</svg>
