<svg width="330" height="330" viewBox="0 0 330 330" fill="none" xmlns="http://www.w3.org/2000/svg">
<g clip-path="url(#clip0_3614_9543)">
<path d="M165.589 301.774C161.111 301.774 156.573 301.42 152.213 300.713C147.852 300.124 141.075 298.592 136.479 296.588C120.686 290.695 107.191 280.324 97.409 266.476C87.3911 252.333 82.1465 235.715 82.1465 218.331C82.1465 206.251 84.6804 194.642 89.6304 183.74C94.4036 173.251 101.239 163.999 109.843 156.22C110.904 155.16 111.788 154.217 112.554 153.392C116.914 148.913 117.268 148.56 119.743 145.672C120.332 145.024 121.039 144.14 121.982 143.02C124.516 140.015 128.346 135.419 132.884 130.763C133.061 130.587 133.296 130.587 133.473 130.763C133.65 130.94 133.65 131.176 133.473 131.353C128.936 136.008 125.164 140.545 122.63 143.551C121.688 144.67 120.98 145.554 120.391 146.203C117.857 149.09 117.504 149.444 113.143 153.922C112.377 154.747 111.493 155.631 110.432 156.751C92.9893 172.426 82.9715 194.819 82.9715 218.213C82.9715 252.569 104.598 283.683 136.773 295.645C141.311 297.59 148.029 299.122 152.33 299.711C156.691 300.419 161.17 300.772 165.589 300.772C211.141 300.772 248.207 263.706 248.207 218.154C248.207 194.288 237.895 171.66 219.921 155.926C217.8 153.686 216.327 152.213 215.266 151.153C213.204 149.031 212.496 148.324 210.611 146.203C210.139 145.672 209.55 144.965 208.902 144.199C206.191 141.017 201.595 135.654 196.173 130.351C195.996 130.174 195.996 129.938 196.173 129.761C196.35 129.585 196.586 129.585 196.763 129.761C202.243 135.124 206.78 140.486 209.55 143.669C210.257 144.494 210.846 145.142 211.259 145.672C213.145 147.853 213.852 148.501 215.914 150.622C216.975 151.683 218.389 153.156 220.57 155.395C229.468 163.174 236.421 172.485 241.371 183.151C246.498 194.17 249.091 205.956 249.091 218.213C249.091 229.469 246.911 240.429 242.55 250.683C238.366 260.642 232.355 269.54 224.636 277.201C216.975 284.861 208.018 290.872 198.118 295.115C187.805 299.535 176.845 301.774 165.589 301.774Z" fill="#323A50"/>
<path opacity="0.2" d="M207.605 155.454C210.551 153.804 212.142 152.685 209.137 149.208C204.01 143.374 181.971 115.619 167.003 115.265L165.412 115.206C146.437 115.972 126.401 143.433 121.274 149.267C118.21 152.744 120.626 154.747 122.041 155.749C128.051 151.919 133.473 148.913 140.544 146.556C140.78 146.497 149.619 142.254 164.587 142.136C164.646 142.136 174.723 142.077 184.21 145.024C195.819 148.147 201.417 151.919 207.605 155.454Z" fill="url(#paint0_linear_3614_9543)"/>
<path opacity="0.2" d="M165.412 286.452C203.1 286.452 233.651 256.059 233.651 218.566C233.651 181.074 203.1 150.681 165.412 150.681C127.725 150.681 97.1729 181.074 97.1729 218.566C97.1729 256.059 127.725 286.452 165.412 286.452Z" fill="url(#paint1_radial_3614_9543)"/>
<path opacity="0.34" d="M236.952 186.804C236.893 186.627 236.834 186.45 236.716 186.332C236.48 186.804 236.068 187.216 235.538 187.57C234.123 188.395 231.943 187.982 231.236 186.45C230.823 185.625 230.411 184.859 229.88 184.093C229.645 183.681 229.35 183.327 229.055 182.915C228.938 182.738 228.938 182.738 229.055 182.915C228.997 182.856 228.938 182.738 228.82 182.679C228.702 182.502 228.525 182.325 228.407 182.149C227.17 180.734 225.696 179.32 224.459 178.495C223.693 177.965 222.927 177.493 222.102 177.081C221.866 176.963 221.63 176.845 221.395 176.727C221.336 176.727 221.336 176.727 221.336 176.668C220.923 176.491 220.511 176.374 220.039 176.256C219.568 176.138 219.096 176.02 218.625 175.961L217.918 175.843C217.741 175.843 217.623 175.784 217.446 175.784C216.327 175.666 215.207 175.666 214.146 175.666C210.08 175.784 206.604 176.433 202.596 176.963C198.413 177.493 194.288 177.788 190.104 178.082C181.913 178.672 173.721 179.674 165.53 179.791C161.464 179.85 157.457 179.143 153.45 178.436C149.502 177.729 145.848 177.199 142.018 176.786C134.063 175.843 125.989 175.431 117.975 176.138C116.325 176.315 115.088 174.841 114.852 173.368C114.793 173.368 114.734 173.368 114.616 173.427C114.145 173.545 113.732 173.663 113.261 173.84C113.025 173.899 112.789 174.016 112.495 174.134C112.377 174.193 112.318 174.193 112.259 174.252C110.373 175.077 108.546 176.197 106.896 177.434C106.838 177.493 106.484 177.788 106.484 177.788C106.248 177.965 106.013 178.141 105.836 178.377C105.423 178.731 105.011 179.084 104.657 179.438C103.891 180.204 103.125 181.029 102.418 181.854C102.359 181.913 102.359 181.972 102.3 181.972C102.3 181.972 102.241 182.031 102.241 182.09C102.064 182.325 101.946 182.502 101.77 182.738C101.475 183.15 101.239 183.504 101.004 183.916C100.768 184.329 100.532 184.682 100.355 185.095C100.296 185.213 100.061 185.979 100.296 185.213C100.238 185.449 100.12 185.625 100.061 185.861C99.4715 187.511 97.9393 188.454 96.1715 188.041C95.5822 187.924 95.0518 187.57 94.6393 187.099C94.5804 187.216 94.6983 187.334 94.6393 187.452C90.6911 196.763 88.334 206.957 88.334 217.682C88.334 260.406 122.984 295.115 165.766 295.115C208.548 295.115 243.198 260.465 243.198 217.682C243.257 206.604 241.018 196.232 236.952 186.804Z" fill="url(#paint2_linear_3614_9543)"/>
<path d="M226.404 246.322L225.932 246.263C225.637 248.62 218.743 251.861 217.27 252.097C216.68 252.215 216.327 252.038 215.973 251.92C215.443 251.684 214.971 251.507 214.029 252.038C212.496 252.981 207.134 258.814 205.955 261.643C204.777 264.531 204.07 266.063 201.359 267.123C199.886 267.713 197.646 267.713 195.289 267.713C193.109 267.713 190.87 267.713 189.161 268.184C186.568 268.891 184.034 270.07 182.855 270.659C183.504 269.952 184.152 269.186 184.741 268.538C185.802 267.3 186.745 266.181 187.334 265.768C188.159 265.179 190.929 264.884 193.875 264.589C197.882 264.177 202.361 263.706 203.775 262.35C205.366 260.877 207.605 255.22 209.432 250.682C210.375 248.266 211.2 246.204 211.73 245.379C212.261 244.495 213.734 243.493 215.325 242.432C218.036 240.664 221.1 238.602 221.041 236.127H220.57C220.629 238.307 217.682 240.252 215.089 242.02C213.38 243.139 211.907 244.141 211.318 245.143C210.787 246.027 209.962 248.089 209.02 250.564C207.252 255.043 205.012 260.641 203.48 262.056C202.95 262.527 201.889 262.939 200.593 263.234C201.477 262.763 202.479 262.056 203.186 261.113C204.482 259.463 205.602 255.573 206.191 253.452C206.309 253.098 206.368 252.745 206.427 252.568C206.662 251.92 206.368 251.507 206.132 251.095C205.837 250.623 205.543 250.152 205.72 248.973C205.955 247.677 206.662 247.147 207.487 246.557C208.018 246.145 208.548 245.791 208.961 245.143C209.962 243.552 209.314 241.902 209.02 241.018V240.959C208.784 240.37 208.254 240.429 207.841 240.429C207.429 240.488 207.193 240.488 207.075 240.252C206.957 240.016 207.252 239.545 207.605 239.073C208.077 238.366 208.666 237.541 208.312 236.775L207.9 236.952C208.136 237.482 207.664 238.131 207.252 238.72C206.839 239.368 206.427 239.957 206.721 240.429C207.016 240.959 207.546 240.9 207.959 240.841C208.371 240.782 208.548 240.782 208.666 241.077V241.136C208.961 242.02 209.55 243.434 208.666 244.789C208.312 245.32 207.841 245.673 207.311 246.086C206.486 246.675 205.602 247.323 205.366 248.797C205.13 250.152 205.484 250.741 205.837 251.272C206.073 251.625 206.191 251.861 206.073 252.332C206.014 252.509 205.896 252.863 205.837 253.216C205.307 255.161 204.187 259.109 202.95 260.7C201.536 262.468 199.061 263.411 198.825 263.47C197.293 263.706 195.525 263.882 193.934 264.059C190.811 264.413 188.1 264.707 187.216 265.297C186.568 265.768 185.625 266.888 184.505 268.184C182.384 270.718 179.437 274.136 177.434 274.018C176.373 273.959 175.254 273.723 174.016 273.488C171.6 273.016 168.889 272.427 165.943 272.957C159.873 274.136 157.811 275.314 156.632 276.729C155.454 278.084 154.864 279.852 154.864 279.911L155.277 280.088C155.277 280.088 155.866 278.32 156.986 277.023C158.105 275.668 160.109 274.548 166.061 273.429C168.889 272.898 171.6 273.429 173.957 273.959C175.195 274.195 176.314 274.431 177.434 274.548C178.966 274.666 180.734 273.134 182.443 271.366L182.561 271.543C182.62 271.543 185.92 269.657 189.455 268.714C191.164 268.243 193.345 268.243 195.466 268.243C197.882 268.243 200.18 268.243 201.712 267.654C204.6 266.534 205.425 264.825 206.604 261.879C207.723 259.168 212.968 253.393 214.441 252.45C215.148 251.979 215.502 252.156 215.973 252.332C216.327 252.509 216.798 252.686 217.564 252.568C218.979 252.273 226.05 248.973 226.404 246.322Z" fill="url(#paint3_linear_3614_9543)"/>
<path d="M170.421 257.341C169.596 258.166 169.773 259.581 169.891 261.172C170.008 262.704 170.185 264.472 169.478 265.886C168.123 268.714 162.053 270.836 161.994 270.895L162.171 271.366C162.407 271.248 168.476 269.127 169.891 266.122C170.657 264.589 170.48 262.763 170.303 261.172C170.185 259.698 170.067 258.402 170.716 257.695C171.423 256.988 173.957 256.398 176.196 255.927C178.789 255.338 181.028 254.807 181.558 254.1C182.089 253.393 182.207 252.745 182.266 252.156C182.383 251.507 182.442 251.036 183.032 250.623C183.326 250.447 184.858 250.506 186.508 250.623C191.046 250.859 197.941 251.272 200.416 247.854C202.36 245.143 201.712 243.139 201.123 241.431C200.651 240.016 200.239 238.779 201.123 237.306C201.83 236.127 203.008 235.773 204.364 235.302C207.016 234.477 210.316 233.416 212.437 226.581C212.908 224.989 212.673 223.34 212.437 221.748C212.083 219.627 211.789 217.623 213.085 215.797L212.732 215.502C211.376 217.506 211.73 219.686 212.024 221.807C212.26 223.398 212.496 224.931 212.083 226.404C210.021 233.004 206.898 234.006 204.305 234.831C202.832 235.302 201.535 235.714 200.769 237.011C199.826 238.661 200.298 240.134 200.769 241.49C201.358 243.198 201.948 244.966 200.121 247.5C197.823 250.682 190.81 250.27 186.626 250.034C185.035 249.916 183.975 249.916 183.385 249.975C183.68 249.327 183.798 248.443 183.975 247.382C184.269 245.615 184.623 243.552 185.683 242.432C186.214 241.902 186.98 241.666 187.923 241.372C190.28 240.664 193.462 239.781 195.996 233.24V233.181C196.467 230.941 195.937 229.35 195.407 228.407C195.171 227.995 194.7 227.759 194.228 227.523C193.698 227.288 193.108 226.993 192.637 226.286C191.812 225.048 191.458 218.095 191.753 216.798C191.753 216.681 191.812 216.622 191.812 216.622C191.871 216.563 192.166 216.681 192.401 216.74C193.108 216.975 194.346 217.447 195.819 216.386L195.524 215.973C194.228 216.916 193.226 216.563 192.519 216.268C192.107 216.15 191.812 216.032 191.576 216.15C191.4 216.209 191.341 216.386 191.282 216.622C190.987 217.918 191.282 225.048 192.225 226.463C192.755 227.288 193.462 227.582 194.051 227.877C194.464 228.054 194.817 228.231 194.994 228.525C195.466 229.409 195.996 230.823 195.524 232.945C193.108 239.25 190.044 240.134 187.805 240.782C186.803 241.077 185.919 241.313 185.33 241.961C184.21 243.198 183.857 245.261 183.503 247.147C183.267 248.384 183.091 249.504 182.678 250.034C182.03 250.506 181.912 251.154 181.794 251.802C181.676 252.391 181.617 252.981 181.146 253.57C180.674 254.218 178.2 254.748 176.019 255.22C173.603 255.986 171.246 256.516 170.421 257.341Z" fill="url(#paint4_linear_3614_9543)"/>
<path d="M171.128 210.552C171.718 211.2 172.189 211.671 171.895 213.086C171.718 214.029 171.187 215.384 170.598 216.857C169.596 219.45 168.595 222.102 169.066 223.28C169.302 223.87 169.655 224.282 170.009 224.695C170.775 225.579 171.541 226.462 171.128 229.114C170.775 231.236 169.655 232.886 168.771 234.241C167.946 235.42 167.298 236.421 167.357 237.423C167.416 238.189 167.829 238.72 168.241 239.25C168.948 240.134 169.714 241.077 168.712 243.434C167.946 245.261 166.886 245.732 166.002 246.086C165.059 246.498 164.293 246.852 164.587 248.62C164.882 250.505 166.061 251.684 167.18 252.804C168.005 253.629 168.83 254.512 169.42 255.632L169.832 255.396C169.243 254.218 168.359 253.275 167.534 252.45C166.414 251.271 165.354 250.211 165.059 248.502C164.823 247.087 165.354 246.911 166.237 246.498C167.121 246.086 168.359 245.555 169.184 243.611C170.304 240.959 169.42 239.898 168.595 238.896C168.182 238.366 167.829 237.954 167.77 237.364C167.711 236.539 168.3 235.655 169.066 234.536C170.009 233.18 171.187 231.471 171.541 229.232C171.954 226.345 171.129 225.343 170.304 224.459C169.95 224.046 169.655 223.693 169.42 223.162C169.007 222.102 170.068 219.45 170.952 217.093C171.541 215.62 172.071 214.264 172.248 213.262C172.602 211.612 172.012 210.964 171.364 210.316C170.952 209.845 170.48 209.373 170.304 208.489L169.832 208.607C170.186 209.491 170.657 210.021 171.128 210.552Z" fill="url(#paint5_linear_3614_9543)"/>
<path d="M173.486 274.608C171.895 273.842 167.887 273.488 165.412 273.901C163.055 274.313 158.871 275.256 157.221 277.024C156.278 278.026 155.453 279.97 155.395 280.088L155.807 280.265C155.807 280.265 156.632 278.32 157.516 277.378C159.107 275.669 163.586 274.726 165.412 274.431C168.064 273.96 171.836 274.431 173.191 275.079C174.664 275.787 175.195 276.906 175.253 277.437C175.489 279.087 172.72 280.56 172.72 280.56L172.955 280.972C173.073 280.913 176.02 279.322 175.784 277.378C175.725 276.494 175.077 275.374 173.486 274.608Z" fill="url(#paint6_linear_3614_9543)"/>
<path d="M174.723 245.909C175.548 246.263 176.373 246.557 176.904 247.323C177.552 248.207 178.848 250.505 177.139 252.509C176.432 253.334 174.664 253.982 172.956 254.63C171.247 255.22 169.656 255.809 169.184 256.575C168.654 257.4 168.772 258.814 168.889 260.464C169.007 261.938 169.125 263.47 168.772 264.648C168.064 267.123 161.936 270.011 161.877 270.011L162.054 270.423C162.289 270.305 168.418 267.418 169.184 264.766C169.538 263.47 169.42 261.82 169.361 260.405C169.243 258.932 169.184 257.459 169.597 256.811C170.009 256.163 171.6 255.573 173.191 255.043C174.959 254.395 176.786 253.746 177.552 252.804C178.907 251.213 178.848 249.091 177.375 247.029C176.786 246.145 175.843 245.791 174.959 245.438C174.134 245.084 173.309 244.789 172.956 244.023C172.248 242.491 172.779 240.782 173.781 240.134C174.016 239.957 174.311 239.839 174.547 239.662C175.372 239.132 176.256 238.661 177.375 237.482C178.789 235.95 181.441 229.704 181.913 226.698C182.207 224.93 181.677 224.164 181.206 223.28C180.793 222.632 180.381 221.925 180.263 220.688L179.791 220.746C179.909 222.102 180.381 222.868 180.793 223.516C181.264 224.282 181.736 224.989 181.441 226.58C180.97 229.527 178.377 235.655 177.022 237.129C176.02 238.248 175.136 238.72 174.311 239.25C174.075 239.427 173.781 239.545 173.545 239.721C172.425 240.488 171.777 242.432 172.602 244.2C172.897 245.202 173.839 245.555 174.723 245.909Z" fill="url(#paint7_linear_3614_9543)"/>
<path d="M154.511 272.781C154.334 271.543 152.92 270.542 151.447 269.54C150.327 268.774 148.618 267.831 147.145 266.947C145.848 266.181 144.67 265.592 144.198 265.238C144.081 265.12 143.963 265.002 143.845 264.826C143.138 263.706 142.607 260.936 142.725 258.756C142.784 257.518 142.666 256.576 142.607 255.809C142.49 254.984 142.431 254.395 142.666 253.865C142.843 253.452 143.138 253.393 143.609 253.334C144.081 253.276 144.729 253.158 145.023 252.392C145.259 251.743 145.141 251.036 145.082 250.329C144.965 249.622 144.906 248.974 145.2 248.561C145.495 248.149 145.79 248.031 146.202 247.913C146.615 247.736 147.086 247.559 147.498 246.97C147.852 246.44 147.381 245.733 146.732 244.849C145.848 243.611 144.67 241.843 145.141 239.663C145.672 237.306 146.438 237.424 147.44 237.6C147.911 237.659 148.5 237.777 149.031 237.542C149.973 237.188 150.857 235.126 151.741 232.945C152.448 231.295 153.156 229.527 153.804 229.056C154.511 228.525 155.159 228.408 155.69 228.29C156.279 228.172 156.809 228.054 157.222 227.524C157.752 226.876 157.457 225.992 157.222 225.225C157.104 224.754 156.927 224.283 157.045 224.047L156.632 223.811C156.397 224.165 156.573 224.754 156.75 225.343C156.927 226.051 157.163 226.817 156.809 227.229C156.515 227.642 156.102 227.701 155.513 227.818C154.923 227.936 154.216 228.054 153.45 228.643C152.743 229.174 152.036 230.883 151.27 232.709C150.504 234.595 149.62 236.717 148.795 237.011C148.323 237.188 147.852 237.129 147.381 237.07C146.32 236.893 145.259 236.776 144.611 239.486C144.081 241.843 145.318 243.67 146.261 245.026C146.732 245.733 147.145 246.322 146.968 246.617C146.673 247.088 146.32 247.206 145.907 247.383C145.495 247.501 145.082 247.677 144.729 248.208C144.316 248.797 144.434 249.563 144.552 250.27C144.67 250.918 144.729 251.567 144.552 252.097C144.375 252.627 143.963 252.686 143.491 252.745C143.02 252.804 142.49 252.863 142.195 253.57C141.9 254.218 142.018 254.926 142.136 255.751C142.254 256.517 142.372 257.459 142.254 258.638C142.136 259.993 142.313 261.643 142.666 263.058C141.665 261.408 140.368 258.874 140.191 256.34C140.015 254.218 140.427 253.511 140.957 252.392C141.488 251.331 142.136 250.034 142.666 247.088C143.373 242.904 141.547 239.015 140.309 237.011C140.427 236.599 141.252 233.829 143.432 233.063L144.552 232.651C146.615 231.884 148.441 231.236 149.384 230.765C150.681 230.117 151.623 227.995 151.859 226.699C151.977 225.933 151.623 225.461 151.27 225.049C150.975 224.636 150.681 224.283 150.681 223.693C150.74 223.163 151.506 222.633 152.39 222.043C153.686 221.218 155.277 220.158 155.866 218.39C156.632 216.268 155.866 215.326 155.218 214.501C154.865 214.088 154.57 213.734 154.452 213.204L154.04 213.322C154.216 213.911 154.57 214.383 154.923 214.795C155.572 215.62 156.22 216.386 155.513 218.213C154.923 219.804 153.391 220.806 152.213 221.631C151.152 222.338 150.327 222.868 150.268 223.576C150.209 224.401 150.563 224.872 150.916 225.284C151.211 225.697 151.506 225.992 151.388 226.581C151.152 227.936 150.15 229.822 149.148 230.352C148.206 230.824 146.32 231.472 144.316 232.179L143.197 232.592C141.193 233.299 140.25 235.538 139.897 236.481C139.484 235.892 139.19 235.538 139.19 235.479C139.131 235.42 134.947 231.59 133.061 228.702C131.175 225.756 131.234 223.34 132.236 222.456C132.766 221.984 133.886 221.926 135.123 221.867C136.302 221.808 137.598 221.749 138.777 221.336C140.545 220.688 141.841 218.154 142.195 217.388C142.725 216.268 143.197 214.736 142.902 214.029C142.431 212.733 140.427 212.32 140.368 212.261L140.309 212.733C140.309 212.733 142.136 213.086 142.49 214.206C142.607 214.618 142.431 215.738 141.782 217.211C141.075 218.684 139.897 220.452 138.659 220.924C137.54 221.336 136.302 221.395 135.182 221.454C133.827 221.513 132.707 221.572 132.059 222.102C130.94 223.045 130.704 225.638 132.825 228.938C134.652 231.826 138.718 235.597 139.013 235.833C139.248 236.127 143.256 241.254 142.254 247.029C141.782 249.917 141.134 251.154 140.604 252.215C140.486 252.451 140.368 252.686 140.25 252.922C139.72 251.508 139.779 250.683 139.838 250.034C139.897 249.092 139.838 248.561 138.541 247.736C136.832 246.676 133.532 246.499 131.352 246.381C130.468 246.322 129.702 246.263 129.348 246.204C127.993 245.909 127.286 245.261 126.932 244.024C126.638 243.022 126.873 242.727 127.286 242.197C127.404 242.079 127.522 241.902 127.698 241.725C127.875 241.49 128.229 241.313 128.582 241.077C129.407 240.606 130.527 239.958 130.468 238.308C130.409 236.893 129.466 236.422 128.523 235.892C127.875 235.538 127.227 235.184 126.756 234.536C125.518 232.886 124.045 228.054 123.75 225.461C123.456 222.515 123.986 217.093 124.516 216.74C124.693 216.681 125.459 217.034 126.048 217.329C127.168 217.859 128.582 218.508 129.525 218.272C129.702 218.213 129.82 218.213 129.997 218.154C131.234 217.859 131.352 217.742 131.293 216.504C131.234 215.62 130.586 215.502 129.997 215.443C129.643 215.384 129.231 215.326 129.054 215.031C128.582 214.442 128.759 212.202 128.818 211.377L128.347 211.318C128.288 211.613 127.993 214.442 128.641 215.326C128.936 215.738 129.466 215.797 129.879 215.856C130.468 215.974 130.763 216.033 130.763 216.504C130.822 216.976 130.822 217.27 130.704 217.329C130.586 217.447 130.291 217.506 129.82 217.624C129.702 217.683 129.525 217.683 129.348 217.742C128.523 217.977 127.227 217.329 126.166 216.799C125.165 216.327 124.634 216.092 124.281 216.209C123.338 216.563 123.043 223.163 123.22 225.402C123.515 228.113 124.988 232.945 126.284 234.654C126.815 235.42 127.581 235.774 128.229 236.127C129.113 236.599 129.879 237.011 129.938 238.19C129.997 239.545 129.113 240.075 128.288 240.547C127.875 240.783 127.463 241.018 127.286 241.313C127.168 241.49 127.05 241.608 126.932 241.784C126.461 242.315 126.107 242.786 126.461 244.024C126.873 245.379 127.698 246.145 129.231 246.499C129.525 246.558 129.938 246.617 130.527 246.617C130.173 246.852 129.82 246.852 129.407 246.852C128.995 246.852 128.465 246.793 128.052 247.147C127.286 247.677 127.757 248.561 128.111 249.209C128.288 249.504 128.406 249.799 128.406 249.975C128.406 250.093 128.347 250.211 128.229 250.329C127.993 250.506 127.522 250.565 126.873 250.506C126.166 250.388 125.165 249.327 124.575 248.679C124.34 248.443 124.163 248.208 124.045 248.149C123.809 247.913 123.456 247.972 123.161 247.972C122.807 248.031 122.395 248.031 122.041 247.736C121.806 247.618 121.688 247.383 121.688 247.029C121.629 246.499 121.865 245.909 121.982 245.733C122.041 245.674 122.277 245.674 122.454 245.674C122.748 245.674 123.102 245.674 123.397 245.438C123.868 245.026 124.045 244.377 123.986 243.376C123.927 242.786 123.456 242.786 123.043 242.786C122.572 242.786 122.041 242.727 121.806 242.079C121.629 241.608 121.865 241.136 122.218 240.547C122.748 239.663 123.397 238.484 122.513 236.893C121.452 234.89 120.273 235.126 119.39 235.302C119.095 235.361 118.8 235.42 118.623 235.361C118.447 235.302 118.329 235.184 118.329 235.126C118.27 234.949 118.388 234.772 118.447 234.713L118.093 234.418C118.034 234.477 117.798 234.831 117.916 235.243C117.975 235.479 118.211 235.715 118.506 235.833C118.8 235.95 119.154 235.892 119.507 235.833C120.332 235.656 121.216 235.479 122.159 237.188C122.925 238.602 122.395 239.545 121.865 240.429C121.511 241.077 121.157 241.667 121.393 242.374C121.747 243.317 122.513 243.317 123.043 243.376C123.515 243.376 123.573 243.434 123.573 243.552C123.632 244.377 123.515 244.967 123.161 245.261C122.984 245.379 122.748 245.379 122.513 245.379C122.218 245.379 121.923 245.379 121.688 245.615C121.452 245.851 121.157 246.617 121.275 247.265C121.334 247.677 121.511 248.031 121.806 248.267C122.336 248.62 122.866 248.62 123.22 248.561C123.515 248.561 123.691 248.502 123.809 248.62C123.927 248.679 124.104 248.915 124.281 249.151C124.929 249.917 125.99 251.036 126.815 251.154C126.815 251.154 126.815 251.154 126.873 251.154C127.64 251.272 128.229 251.154 128.582 250.859C128.759 250.683 128.877 250.447 128.936 250.152C128.936 249.858 128.759 249.563 128.582 249.151C128.229 248.443 127.993 247.972 128.406 247.677C128.759 247.442 129.113 247.442 129.466 247.442C129.997 247.442 130.645 247.501 131.234 246.793C131.293 246.793 131.352 246.793 131.411 246.793C133.532 246.911 136.832 247.147 138.423 248.09C139.543 248.797 139.543 249.15 139.484 249.975C139.425 250.742 139.366 251.743 140.132 253.511C139.897 254.218 139.779 255.043 139.897 256.399C140.191 260.524 143.373 264.708 143.609 265.002C143.727 265.179 143.904 265.356 144.022 265.474C144.493 265.827 145.672 266.476 147.027 267.242C148.5 268.067 150.209 269.009 151.329 269.776C152.625 270.718 154.04 271.661 154.216 272.722C154.275 273.193 154.157 273.724 153.686 274.254C152.095 276.376 150.091 283.742 150.091 283.977L150.504 284.036C150.563 283.565 152.566 276.493 154.04 274.549C154.452 274.018 154.629 273.37 154.511 272.781Z" fill="url(#paint8_linear_3614_9543)"/>
<path d="M151.387 274.666C150.739 272.427 147.498 270.011 146.437 269.363C144.139 267.948 138.836 267.654 136.42 268.184C135.3 268.42 134.534 268.773 133.827 269.127C133.061 269.481 132.412 269.834 131.47 269.834C129.643 269.834 128.641 270.07 127.757 270.718C127.58 270.836 127.521 271.013 127.521 271.131C127.521 271.484 127.816 271.838 128.229 272.191C128.523 272.486 128.936 272.84 128.877 273.075C128.877 273.193 128.759 273.252 128.641 273.311C127.462 273.959 126.52 273.016 126.461 273.016L126.166 273.311C126.166 273.311 127.345 274.548 128.877 273.723C129.171 273.547 129.289 273.37 129.348 273.134C129.407 272.663 128.995 272.25 128.523 271.897C128.287 271.661 127.934 271.366 127.934 271.19L127.993 271.131C128.759 270.541 129.702 270.306 131.411 270.306C132.412 270.306 133.12 269.952 133.945 269.54C134.593 269.186 135.359 268.832 136.42 268.597C138.718 268.125 143.904 268.361 146.084 269.716C147.38 270.541 150.268 272.781 150.857 274.784C151.034 275.315 150.739 276.316 150.386 277.023C148.618 281.148 148.029 284.095 148.029 284.154L148.441 284.272C148.441 284.272 149.03 281.325 150.798 277.259C151.152 276.729 151.623 275.491 151.387 274.666Z" fill="url(#paint9_linear_3614_9543)"/>
<path d="M152.448 274.313C152.331 273.488 151.506 272.545 151.211 272.251C151.152 272.192 151.152 272.192 151.152 272.133C149.502 270.188 147.086 268.302 145.495 267.713C145.082 267.536 144.493 267.418 143.845 267.301C141.252 266.063 138.777 265.592 136.361 265.12C135.065 264.885 133.709 264.59 132.354 264.236C128.759 263.176 122.69 257.165 122.454 256.929C122.277 256.694 118.152 251.508 117.798 249.681C117.622 248.915 116.738 245.026 116.325 243.906C115.913 242.963 110.727 241.254 109.725 240.901H109.666C107.132 240.783 103.479 240.547 103.125 240.311C102.713 240.017 102.241 238.602 102.3 238.013C102.3 237.777 102.595 237.601 102.89 237.424C103.361 237.129 103.891 236.717 104.009 236.01C104.068 235.479 103.715 233.888 103.066 231.354C102.477 228.938 101.652 225.638 101.888 225.049C102.065 224.519 102.418 224.46 102.713 224.342C103.007 224.283 103.42 224.165 103.538 223.635C103.597 223.458 103.479 223.34 103.42 223.222C103.184 222.927 102.654 222.986 101.947 223.045C101.24 223.104 100.297 223.163 99.9431 222.81L99.6484 223.163C100.179 223.635 101.122 223.576 101.947 223.517C102.359 223.517 102.948 223.458 103.066 223.576C103.007 223.811 102.89 223.87 102.595 223.929C102.241 224.047 101.711 224.165 101.416 224.931C101.181 225.579 101.711 227.936 102.595 231.472C103.066 233.476 103.597 235.479 103.538 235.951C103.479 236.481 103.007 236.776 102.595 237.07C102.182 237.306 101.829 237.601 101.77 238.013C101.652 238.779 102.182 240.37 102.772 240.783C103.243 241.136 108.016 241.372 109.548 241.431C112.495 242.374 115.677 243.67 115.854 244.142C116.207 244.967 116.797 247.619 117.327 249.858C117.74 251.802 121.923 257.047 122.1 257.283C122.336 257.519 128.465 263.647 132.236 264.767C133.591 265.179 134.947 265.415 136.302 265.651C138.247 266.004 140.191 266.417 142.254 267.183C141.134 267.065 139.897 266.947 138.718 266.888C137.716 266.829 136.773 266.77 136.066 266.652C130.468 266.063 127.345 265.238 125.341 263.765C123.043 262.174 116.207 256.104 115.618 255.397C115.323 255.044 115.206 254.572 115.029 254.042C114.911 253.629 114.793 253.158 114.557 252.627C113.673 250.683 110.432 248.62 108.075 247.088C106.838 246.322 105.777 245.615 105.541 245.261C105.188 244.731 105.306 244.377 105.482 243.906C105.6 243.611 105.777 243.199 105.777 242.727H105.306C105.306 243.14 105.188 243.435 105.07 243.729C104.834 244.26 104.657 244.731 105.129 245.497C105.423 245.91 106.425 246.558 107.781 247.442C110.138 248.915 113.32 250.977 114.145 252.804C114.381 253.276 114.498 253.747 114.616 254.16C114.793 254.749 114.911 255.22 115.265 255.692C115.854 256.399 122.748 262.527 125.106 264.118C127.227 265.592 130.409 266.476 136.066 267.065C136.832 267.124 137.716 267.242 138.718 267.301C141.193 267.477 144.022 267.654 145.436 268.185C146.968 268.715 149.325 270.601 150.916 272.486C150.916 272.486 150.975 272.545 151.034 272.604C151.27 272.899 152.095 273.783 152.213 274.431C152.331 275.079 151.859 276.376 151.211 278.085C150.622 279.735 149.856 281.797 149.207 284.272L149.62 284.39C150.268 281.915 151.034 279.911 151.623 278.261C152.095 276.317 152.507 275.079 152.448 274.313Z" fill="url(#paint10_linear_3614_9543)"/>
<path d="M105.128 211.318C105.069 211.672 104.716 212.202 104.303 212.791C103.537 213.911 102.712 215.149 103.243 216.15C103.537 216.681 104.244 217.152 105.069 217.741C106.602 218.743 108.546 220.04 109.312 222.397C110.55 226.109 113.732 232.768 113.732 232.827V232.886C113.791 232.945 117.621 238.19 116.325 243.258L116.737 243.375C118.093 238.19 114.38 233.063 114.086 232.65C114.086 232.592 113.968 232.415 113.85 232.179C114.38 232.061 115.559 231.708 116.384 230.647C116.973 229.881 117.209 228.82 117.091 227.642C116.855 225.579 115.853 223.634 114.969 221.925C114.203 220.452 113.555 219.215 113.614 218.272C113.673 217.447 114.144 217.329 114.734 217.152C115.441 216.975 116.325 216.681 116.502 215.149C116.678 213.499 115.559 212.791 114.616 212.202C113.85 211.731 113.437 211.436 113.496 210.906C113.614 209.433 115.736 207.37 115.736 207.37L115.441 207.017C115.323 207.134 113.202 209.197 113.084 210.847C113.025 211.672 113.732 212.143 114.439 212.556C115.323 213.086 116.266 213.675 116.089 215.031C115.971 216.268 115.323 216.445 114.616 216.622C113.968 216.799 113.261 216.975 113.143 218.095C113.084 219.156 113.732 220.452 114.498 221.984C115.323 223.634 116.325 225.52 116.561 227.524C116.678 228.584 116.502 229.468 115.971 230.175C115.205 231.177 114.027 231.472 113.614 231.531C112.671 229.586 110.609 224.931 109.607 222.102C108.782 219.627 106.719 218.213 105.187 217.211C104.421 216.681 103.714 216.209 103.478 215.797C103.066 215.031 103.832 213.911 104.48 212.968C104.893 212.32 105.305 211.731 105.364 211.318C105.423 210.67 104.834 209.727 104.068 208.608C103.419 207.606 102.653 206.486 102.536 205.661L102.123 205.72C102.241 206.663 103.007 207.783 103.714 208.843C104.539 209.845 105.187 210.847 105.128 211.318Z" fill="url(#paint11_linear_3614_9543)"/>
<path d="M149.796 276.199C149.266 274.961 147.674 273.959 146.555 273.193C146.083 272.899 145.73 272.663 145.553 272.486C145.376 272.309 145.317 272.133 145.317 271.956C145.199 271.425 145.023 270.954 143.903 270.483C142.194 269.775 138.069 269.422 136.714 270.247C136.183 270.6 136.066 271.013 136.124 271.366C136.242 272.309 137.421 273.193 138.423 273.547C139.13 273.782 139.189 274.549 139.248 275.315C139.307 275.963 139.366 276.67 139.837 277.024C140.132 277.259 140.308 277.495 140.249 277.731C140.191 277.966 139.778 278.261 138.835 278.379C137.539 278.497 135.535 278.025 135.476 277.966L135.358 278.379C135.417 278.379 137.48 278.909 138.835 278.791C139.837 278.674 140.485 278.32 140.603 277.79C140.721 277.377 140.485 276.965 140.014 276.611C139.719 276.375 139.66 275.845 139.601 275.256C139.542 274.431 139.483 273.429 138.482 273.134C137.421 272.781 136.537 272.015 136.478 271.366C136.419 271.131 136.596 270.895 136.832 270.718C138.01 270.011 141.841 270.247 143.608 270.954C144.61 271.366 144.669 271.72 144.787 272.074C144.846 272.309 144.905 272.604 145.141 272.84C145.317 273.016 145.73 273.311 146.201 273.606C147.262 274.254 148.794 275.315 149.324 276.375C149.678 277.141 149.266 277.966 148.735 279.145C148.264 280.265 147.616 281.62 147.38 283.506L147.792 283.565C148.028 281.738 148.676 280.441 149.148 279.322C149.796 278.143 150.208 277.2 149.796 276.199Z" fill="url(#paint12_linear_3614_9543)"/>
<path d="M164.882 183.563C186.427 183.563 203.893 174.17 203.893 162.584C203.893 150.998 186.427 141.605 164.882 141.605C143.337 141.605 125.871 150.998 125.871 162.584C125.871 174.17 143.337 183.563 164.882 183.563Z" fill="#2A697F"/>
<path d="M164.529 162.879C173.967 162.879 181.618 159.079 181.618 154.393C181.618 149.706 173.967 145.907 164.529 145.907C155.091 145.907 147.439 149.706 147.439 154.393C147.439 159.079 155.091 162.879 164.529 162.879Z" fill="#293C4F"/>
<path d="M164.529 147.97C173.309 147.97 180.498 151.211 181.5 155.395C181.559 155.041 181.618 154.747 181.618 154.393C181.618 149.738 173.957 145.907 164.529 145.907C155.1 145.907 147.439 149.679 147.439 154.393C147.439 154.747 147.498 155.1 147.557 155.395C148.559 151.211 155.748 147.97 164.529 147.97Z" fill="#DBDBDB"/>
<path d="M181.5 157.163L181.088 155.513C180.086 151.447 172.956 148.383 164.47 148.383C155.984 148.383 148.854 151.447 147.852 155.513L147.44 157.163L147.027 155.513C146.909 155.159 146.909 154.747 146.909 154.393C146.909 151.977 148.795 149.738 152.154 148.029C155.454 146.379 159.815 145.495 164.411 145.495C169.066 145.495 173.427 146.379 176.668 148.029C180.027 149.679 181.913 151.977 181.913 154.393C181.913 154.747 181.854 155.1 181.795 155.513L181.5 157.163ZM164.529 147.558C172.19 147.558 178.848 150.092 181.147 153.627C180.322 149.561 173.191 146.32 164.529 146.32C155.866 146.32 148.677 149.502 147.911 153.627C150.209 150.092 156.809 147.558 164.529 147.558Z" fill="#323A50"/>
<path d="M164.94 141.724C143.373 141.724 125.93 150.917 125.93 162.231C125.93 173.545 143.373 182.738 164.94 182.738C186.508 182.738 203.951 173.545 203.951 162.231C203.951 150.858 186.508 141.724 164.94 141.724ZM181.617 154.57C181.617 154.629 181.676 154.688 181.676 154.688C181.676 154.747 181.676 154.806 181.676 154.865C180.969 159.108 173.603 162.466 164.646 162.466C155.865 162.466 148.676 159.284 147.674 155.218C147.674 155.1 147.615 154.983 147.615 154.924C147.615 154.865 147.615 154.806 147.615 154.747C147.615 154.688 147.615 154.57 147.615 154.57C147.615 154.452 147.615 154.158 147.615 154.158C147.615 154.158 147.615 153.922 147.615 153.804C147.674 153.215 147.851 152.743 148.146 152.213C148.44 151.683 148.794 151.211 149.265 150.74H149.324C152.094 147.97 157.987 146.084 164.764 146.084C174.192 146.084 181.912 149.797 181.912 154.334H181.735C181.617 154.334 181.676 154.452 181.617 154.57Z" fill="#DBDBDB"/>
<path d="M164.941 183.151C154.452 183.151 144.61 181.029 137.185 177.081C129.701 173.133 125.518 167.829 125.518 162.231C125.518 156.574 129.643 151.329 137.185 147.381C144.61 143.492 154.452 141.312 164.941 141.312C175.43 141.312 185.271 143.433 192.696 147.381C200.18 151.329 204.364 156.633 204.364 162.231C204.364 167.888 200.239 173.133 192.696 177.081C185.271 180.97 175.43 183.151 164.941 183.151ZM164.941 142.078C143.668 142.078 126.343 151.094 126.343 162.172C126.343 173.251 143.668 182.267 164.941 182.267C186.214 182.267 203.539 173.251 203.539 162.172C203.539 151.094 186.214 142.078 164.941 142.078ZM164.587 162.879C155.748 162.879 148.264 159.638 147.203 155.278C147.203 155.16 147.144 155.042 147.144 154.924C147.144 154.865 147.144 154.806 147.085 154.747C147.085 154.688 147.085 154.629 147.085 154.57V154.512C147.085 154.394 147.085 154.335 147.085 154.158V153.745V153.687C147.144 153.097 147.321 152.508 147.675 151.919C147.969 151.388 148.382 150.858 148.853 150.328L148.912 150.269C151.859 147.322 157.869 145.495 164.646 145.495C169.302 145.495 173.662 146.379 176.962 147.97C180.38 149.62 182.207 151.801 182.207 154.217V154.629H182.089C182.089 154.688 182.089 154.688 182.089 154.747C182.089 154.806 182.089 154.865 182.03 154.924C181.323 159.462 173.78 162.879 164.587 162.879ZM147.91 154.276C147.91 154.394 147.91 154.453 147.91 154.512V154.57C147.91 154.629 147.91 154.629 147.91 154.688C147.91 154.747 147.91 154.806 147.91 154.865C147.91 154.983 147.969 155.042 147.969 155.16C148.971 159.108 156.102 162.113 164.587 162.113C173.25 162.113 180.557 158.931 181.264 154.865V154.806C181.264 154.747 181.205 154.688 181.264 154.629C181.264 154.629 181.264 154.57 181.264 154.512C181.264 154.453 181.264 154.394 181.264 154.276V153.863H181.441C181.205 151.978 179.555 150.151 176.668 148.795C173.485 147.263 169.243 146.438 164.705 146.438C158.282 146.438 152.33 148.206 149.56 150.976L149.502 151.035C149.03 151.506 148.735 151.978 148.441 152.39C148.205 152.862 148.028 153.392 147.969 153.863C147.91 153.922 147.91 154.158 147.91 154.276Z" fill="#323A50"/>
<g opacity="0.3">
<path d="M165.943 295.645C165.884 295.645 165.825 295.645 165.825 295.645C152.095 295.645 138.482 291.815 126.461 284.685H126.402L125.813 284.095C110.727 275.374 99.4126 261.762 93.0483 244.731C90.5144 238.131 88.9822 231.119 88.334 223.222C88.0983 219.51 88.0983 216.033 88.334 212.379C88.5108 208.726 89.0412 205.013 89.984 200.711C90.9269 196.292 92.4001 191.872 94.4037 187.217L95.1697 187.57C93.1662 192.167 91.6929 196.528 90.809 200.888C89.8662 205.19 89.3947 208.844 89.159 212.438C88.9822 216.092 88.9822 219.51 89.159 223.222C89.8072 231.06 91.3394 238.013 93.8144 244.554C100.12 261.408 111.375 274.903 126.284 283.506H126.343L126.932 284.095C151.27 298.474 180.38 298.533 204.836 284.272C206.014 283.447 207.311 282.622 208.725 281.797C221.689 273.488 231.354 261.585 237.541 246.499C237.836 245.792 238.072 245.026 238.366 244.26C238.602 243.494 238.897 242.728 239.191 242.02C243.905 227.701 244.436 213.087 240.782 198.59V198.531C240.664 197.942 238.248 190.517 236.775 187.158L237.541 186.863C238.897 190.045 241.372 197.47 241.607 198.472C245.261 213.145 244.73 227.878 239.957 242.374V242.433C239.663 243.14 239.427 243.906 239.132 244.672C238.896 245.438 238.602 246.204 238.307 246.97C232.061 262.233 222.279 274.254 209.197 282.681C207.782 283.506 206.545 284.331 205.366 285.097C193.109 291.933 179.555 295.645 165.943 295.645Z" fill="#323A50"/>
</g>
<path d="M263.469 189.632C261.583 183.386 256.633 179.143 248.619 177.081C244.023 175.902 239.78 175.784 237.953 175.784C237.894 175.548 237.776 175.313 237.599 175.136C239.191 175.077 243.787 175.136 248.796 176.432C256.869 178.554 262.173 183.032 264.058 189.397C264.471 190.222 276.08 214.677 277.553 228.997C277.907 232.768 280.971 233.593 286.569 235.125C291.166 236.363 297.53 238.131 305.367 242.314L305.073 242.904C297.294 238.72 290.989 237.011 286.392 235.773C280.735 234.241 277.317 233.298 276.905 229.056C275.726 217.388 267.712 198.825 264.648 192.107C264.824 197.057 261.348 203.893 254.335 212.556C247.617 220.806 237.658 230.706 224.694 241.961C219.862 246.145 215.03 250.211 210.374 253.982L209.608 253.747C214.323 249.975 219.332 245.732 224.282 241.49C253.274 216.209 266.828 198.295 263.469 189.632Z" fill="#323A50"/>
<path d="M239.898 181.913C239.839 181.441 239.191 179.143 239.073 178.73C239.132 178.495 240.016 179.909 239.957 179.673C239.957 179.202 239.663 178.73 239.25 178.436C239.309 177.964 239.309 177.729 238.838 177.434C238.897 177.198 238.366 177.198 238.307 177.021C239.132 178.436 240.134 180.263 240.429 181.795C241.784 188.925 230.941 205.779 208.195 231.884C203.186 237.659 198.118 243.316 193.522 248.207L192.814 247.971C213.204 225.991 241.666 192.696 239.898 181.913Z" fill="#323A50"/>
<path d="M237.659 175.077C237.777 175.195 237.836 175.313 237.954 175.431L242.197 175.254C240.252 175.136 238.661 175.077 237.659 175.077Z" fill="#323A50"/>
<path d="M238.837 177.14L249.739 176.728C249.326 176.61 248.914 176.492 248.442 176.374L238.66 176.786C238.719 176.904 238.778 177.022 238.837 177.14Z" fill="#323A50"/>
<path d="M239.25 178.848L253.746 178.259C253.451 178.141 253.216 178.023 252.921 177.905L239.132 178.436C239.132 178.495 239.132 178.553 239.132 178.612C239.132 178.671 239.191 178.73 239.25 178.848Z" fill="#323A50"/>
<path d="M239.898 180.558L256.575 179.91C256.398 179.792 256.162 179.674 255.986 179.497L239.78 180.145C239.839 180.263 239.898 180.381 239.898 180.558Z" fill="#323A50"/>
<path d="M240.075 182.148L258.579 181.382C258.402 181.264 258.284 181.147 258.107 180.97L240.075 181.677C240.075 181.854 240.075 181.972 240.075 182.148Z" fill="#323A50"/>
<path d="M240.134 183.858L260.228 183.033C260.111 182.915 259.993 182.797 259.875 182.62L240.134 183.445C240.193 183.563 240.193 183.74 240.134 183.858Z" fill="#323A50"/>
<path d="M239.898 185.213C239.839 185.331 239.839 185.448 239.78 185.507L261.525 184.623C261.407 184.506 261.348 184.329 261.23 184.211L239.898 185.095C239.957 185.154 239.898 185.213 239.898 185.213Z" fill="#323A50"/>
<path d="M239.368 187.04C239.368 187.099 239.309 187.216 239.309 187.275L262.585 186.332C262.526 186.215 262.468 186.038 262.35 185.92L239.426 186.863C239.426 186.981 239.368 187.04 239.368 187.04Z" fill="#323A50"/>
<path d="M238.719 188.631L263.175 187.629C263.234 187.747 263.293 187.924 263.352 188.041L238.602 189.043C238.602 188.925 238.66 188.749 238.719 188.631Z" fill="#323A50"/>
<path d="M237.953 190.399L263.764 189.338C263.823 189.456 263.823 189.574 263.882 189.75L237.776 190.811C237.835 190.634 237.894 190.516 237.953 190.399Z" fill="#323A50"/>
<path d="M237.128 192.108L264.118 190.988C264.118 191.106 264.177 191.224 264.177 191.401L236.893 192.52C237.01 192.403 237.069 192.226 237.128 192.108Z" fill="#323A50"/>
<path d="M236.244 193.876L264.295 192.756C264.295 192.874 264.295 193.051 264.295 193.168L236.009 194.288C236.068 194.17 236.127 193.993 236.244 193.876Z" fill="#323A50"/>
<path d="M235.301 195.467L264.117 194.288C264.117 194.406 264.058 194.583 264.058 194.701L235.065 195.879C235.183 195.761 235.242 195.643 235.301 195.467Z" fill="#323A50"/>
<path d="M234.3 197.293L263.764 196.114C263.705 196.232 263.705 196.409 263.646 196.527L234.005 197.705C234.123 197.529 234.182 197.411 234.3 197.293Z" fill="#323A50"/>
<path d="M233.18 199.002L263.175 197.765C263.116 197.883 263.057 198.059 262.998 198.177L232.886 199.415C233.004 199.297 233.121 199.12 233.18 199.002Z" fill="#323A50"/>
<path d="M232.06 200.77L262.467 199.532C262.408 199.65 262.35 199.827 262.291 199.945L231.766 201.182C231.883 201.064 231.942 200.946 232.06 200.77Z" fill="#323A50"/>
<path d="M230.941 202.42L261.702 201.183C261.643 201.3 261.584 201.477 261.466 201.595L230.646 202.833C230.764 202.715 230.882 202.597 230.941 202.42Z" fill="#323A50"/>
<path d="M229.762 204.247L260.759 203.01C260.7 203.128 260.582 203.304 260.523 203.422L229.468 204.66C229.527 204.483 229.645 204.365 229.762 204.247Z" fill="#323A50"/>
<path d="M228.525 205.955L259.698 204.718C259.639 204.836 259.522 205.012 259.463 205.13L228.23 206.368C228.289 206.25 228.407 206.132 228.525 205.955Z" fill="#323A50"/>
<path d="M227.228 207.723L258.578 206.427C258.46 206.545 258.401 206.721 258.284 206.839L226.934 208.136C227.051 208.018 227.11 207.9 227.228 207.723Z" fill="#323A50"/>
<path d="M226.05 209.374L257.458 208.077C257.341 208.195 257.282 208.372 257.164 208.49L225.755 209.786C225.814 209.668 225.932 209.491 226.05 209.374Z" fill="#323A50"/>
<path d="M224.694 211.141L256.103 209.845C255.985 209.963 255.867 210.139 255.808 210.257L224.399 211.554C224.517 211.436 224.576 211.318 224.694 211.141Z" fill="#323A50"/>
<path d="M223.398 212.91L254.807 211.613C254.69 211.731 254.572 211.908 254.454 212.026L223.045 213.322C223.163 213.204 223.281 213.028 223.398 212.91Z" fill="#323A50"/>
<path d="M221.984 214.677L253.334 213.381C253.216 213.499 253.098 213.676 252.981 213.793L221.689 215.09C221.748 214.972 221.866 214.854 221.984 214.677Z" fill="#323A50"/>
<path d="M220.628 216.445L251.86 215.207C251.742 215.325 251.624 215.502 251.507 215.62L220.274 216.857C220.392 216.739 220.51 216.562 220.628 216.445Z" fill="#323A50"/>
<path d="M219.215 218.213L250.329 216.976C250.211 217.093 250.093 217.27 249.975 217.388L218.92 218.626C218.979 218.508 219.097 218.39 219.215 218.213Z" fill="#323A50"/>
<path d="M217.8 219.981L248.737 218.743C248.62 218.861 248.502 219.038 248.325 219.156L217.446 220.393C217.564 220.275 217.682 220.099 217.8 219.981Z" fill="#323A50"/>
<path d="M216.444 221.69L247.205 220.452C247.087 220.57 246.969 220.747 246.793 220.865L216.091 222.102C216.209 221.925 216.327 221.807 216.444 221.69Z" fill="#323A50"/>
<path d="M215.089 223.28L245.614 222.043C245.496 222.161 245.32 222.338 245.202 222.455L214.677 223.693C214.854 223.575 214.971 223.457 215.089 223.28Z" fill="#323A50"/>
<path d="M213.616 225.108L243.906 223.87C243.788 223.988 243.611 224.165 243.493 224.283L213.263 225.52C213.381 225.402 213.498 225.225 213.616 225.108Z" fill="#323A50"/>
<path d="M212.143 226.875L242.196 225.638C242.078 225.756 241.902 225.932 241.784 226.05L211.789 227.288C211.907 227.111 212.025 226.993 212.143 226.875Z" fill="#323A50"/>
<path d="M210.61 228.643L240.369 227.465C240.251 227.583 240.075 227.759 239.957 227.877L210.257 229.056C210.375 228.938 210.493 228.761 210.61 228.643Z" fill="#323A50"/>
<path d="M209.196 230.293L238.66 229.114C238.542 229.232 238.366 229.409 238.248 229.527L208.901 230.705C208.96 230.587 209.078 230.47 209.196 230.293Z" fill="#323A50"/>
<path d="M207.782 231.943L236.952 230.765C236.775 230.883 236.657 231.059 236.48 231.177L207.429 232.356C207.547 232.238 207.664 232.061 207.782 231.943Z" fill="#323A50"/>
<path d="M206.25 233.711L235.066 232.532C234.889 232.65 234.771 232.827 234.595 232.945L205.896 234.123C206.014 234.005 206.132 233.888 206.25 233.711Z" fill="#323A50"/>
<path d="M204.718 235.479L233.122 234.301C232.945 234.419 232.827 234.595 232.65 234.713L204.306 235.833C204.482 235.774 204.6 235.656 204.718 235.479Z" fill="#323A50"/>
<path d="M203.127 237.306L231.177 236.187C231 236.304 230.882 236.481 230.706 236.599L202.773 237.719C202.891 237.542 203.009 237.424 203.127 237.306Z" fill="#323A50"/>
<path d="M201.535 239.074L229.173 237.954C228.996 238.072 228.878 238.249 228.701 238.367L201.182 239.486C201.299 239.368 201.417 239.25 201.535 239.074Z" fill="#323A50"/>
<path d="M200.121 240.723L227.405 239.604C227.228 239.721 227.11 239.898 226.934 240.016L199.768 241.136C199.827 241.018 200.003 240.9 200.121 240.723Z" fill="#323A50"/>
<path d="M198.472 242.55L225.284 241.489C225.107 241.607 224.99 241.784 224.813 241.902L198.118 242.962C198.236 242.786 198.354 242.668 198.472 242.55Z" fill="#323A50"/>
<path d="M196.94 244.259L223.34 243.198C223.163 243.316 222.986 243.493 222.868 243.611L196.586 244.671C196.645 244.554 196.763 244.436 196.94 244.259Z" fill="#323A50"/>
<path d="M195.289 246.086L221.218 245.025C221.041 245.143 220.864 245.32 220.746 245.438L194.936 246.499C195.053 246.381 195.171 246.204 195.289 246.086Z" fill="#323A50"/>
<path d="M193.815 247.737L219.332 246.676C219.155 246.794 218.978 246.97 218.86 247.088L193.462 248.09C193.521 248.031 193.639 247.854 193.815 247.737Z" fill="#323A50"/>
<path d="M194.229 249.268L217.329 248.325C217.152 248.443 216.975 248.62 216.798 248.738L195.23 249.622C194.936 249.563 194.582 249.445 194.229 249.268Z" fill="#323A50"/>
<path d="M198.825 250.859L215.207 250.211C215.031 250.329 214.854 250.506 214.677 250.623L199.886 251.213C199.532 251.095 199.179 250.977 198.825 250.859Z" fill="#323A50"/>
<path d="M203.48 252.332L213.086 251.92C212.909 252.038 212.732 252.215 212.555 252.332L204.6 252.627C204.247 252.568 203.893 252.45 203.48 252.332Z" fill="#323A50"/>
<path d="M208.136 253.865L210.846 253.747C210.67 253.865 210.493 254.042 210.316 254.16L209.196 254.219C208.843 254.16 208.489 253.983 208.136 253.865Z" fill="#323A50"/>
<path d="M69.0642 189.632C70.9499 183.386 75.8999 179.143 83.9142 177.081C88.5107 175.902 92.7535 175.784 94.5803 175.784C94.6392 175.548 94.7571 175.313 94.9339 175.136C93.3428 175.077 88.7464 175.136 83.7374 176.432C75.6642 178.554 70.3607 183.032 68.4749 189.397C68.0624 190.222 56.4535 214.677 54.9803 228.997C54.6267 232.768 51.5624 233.593 45.9642 235.125C41.3678 236.363 35.0035 238.131 27.166 242.314L27.4607 242.904C35.2392 238.72 41.5446 237.011 46.141 235.773C51.7982 234.241 55.216 233.298 55.6285 229.056C56.8071 217.388 64.8214 198.825 67.8857 192.107C67.7089 197.057 71.1857 203.893 78.1982 212.556C84.916 220.806 94.8749 230.706 107.839 241.961C112.671 246.145 117.504 250.211 122.159 253.982L122.925 253.747C118.211 249.975 113.202 245.732 108.252 241.49C79.1999 216.209 65.6464 198.295 69.0642 189.632Z" fill="#323A50"/>
<path d="M92.577 181.913C92.6359 181.441 93.2841 179.143 93.4019 178.73C93.343 178.495 92.4591 179.909 92.518 179.673C92.518 179.202 92.8127 178.73 93.2252 178.436C93.1662 177.964 93.1662 177.729 93.6377 177.434C93.5787 177.198 94.1091 177.198 94.168 177.021C93.343 178.436 92.3412 180.263 92.0466 181.795C90.6912 188.925 101.534 205.779 124.281 231.884C129.289 237.659 134.357 243.316 138.954 248.207L139.661 247.971C119.272 225.991 90.8091 192.696 92.577 181.913Z" fill="#323A50"/>
<path d="M94.8168 175.077C94.6989 175.195 94.64 175.313 94.5222 175.431L90.2793 175.254C92.2239 175.136 93.815 175.077 94.8168 175.077Z" fill="#323A50"/>
<path d="M93.6967 177.14L82.7949 176.728C83.2074 176.61 83.6199 176.492 84.0913 176.374L93.8735 176.786C93.7556 176.904 93.6967 177.022 93.6967 177.14Z" fill="#323A50"/>
<path d="M93.2845 178.848L78.7881 178.259C79.0827 178.141 79.3184 178.023 79.6131 177.905L93.4024 178.436C93.4024 178.495 93.4024 178.553 93.4024 178.612C93.3434 178.671 93.2845 178.73 93.2845 178.848Z" fill="#323A50"/>
<path d="M92.5772 180.558L75.9004 179.91C76.0772 179.792 76.3129 179.674 76.4897 179.497L92.695 180.145C92.6361 180.263 92.6361 180.381 92.5772 180.558Z" fill="#323A50"/>
<path d="M92.4001 182.148L73.8965 181.382C74.0733 181.264 74.1911 181.147 74.3679 180.97L92.4001 181.677C92.4001 181.854 92.4001 181.972 92.4001 182.148Z" fill="#323A50"/>
<path d="M92.3417 183.858L72.2471 183.033C72.3649 182.915 72.4828 182.797 72.6006 182.62L92.3417 183.445C92.3417 183.563 92.3417 183.74 92.3417 183.858Z" fill="#323A50"/>
<path d="M92.577 185.213C92.6359 185.331 92.6359 185.448 92.6948 185.507L70.9502 184.623C71.0681 184.506 71.127 184.329 71.2448 184.211L92.577 185.095C92.577 185.154 92.577 185.213 92.577 185.213Z" fill="#323A50"/>
<path d="M93.1661 187.04C93.1661 187.099 93.225 187.216 93.225 187.275L69.9482 186.332C70.0072 186.215 70.0661 186.038 70.184 185.92L93.1072 186.863C93.1072 186.981 93.1072 187.04 93.1661 187.04Z" fill="#323A50"/>
<path d="M93.8148 188.631L69.3594 187.629C69.3005 187.747 69.2415 187.924 69.1826 188.041L93.9326 189.043C93.9326 188.925 93.8737 188.749 93.8148 188.631Z" fill="#323A50"/>
<path d="M94.5213 190.399L68.7106 189.338C68.6517 189.456 68.6517 189.574 68.5928 189.75L94.6981 190.811C94.6392 190.634 94.5803 190.516 94.5213 190.399Z" fill="#323A50"/>
<path d="M95.347 192.108L68.3578 190.988C68.3578 191.106 68.2988 191.224 68.2988 191.401L95.5828 192.52C95.5238 192.403 95.406 192.226 95.347 192.108Z" fill="#323A50"/>
<path d="M96.2893 193.876L68.2393 192.756C68.2393 192.874 68.2393 193.051 68.2393 193.168L96.525 194.288C96.4071 194.17 96.3482 193.993 96.2893 193.876Z" fill="#323A50"/>
<path d="M97.1735 195.467L68.3574 194.288C68.3574 194.406 68.4164 194.583 68.4164 194.701L97.4092 195.879C97.3503 195.761 97.2324 195.643 97.1735 195.467Z" fill="#323A50"/>
<path d="M98.2338 197.293L68.7695 196.114C68.8285 196.232 68.8285 196.409 68.8874 196.527L98.5285 197.705C98.4106 197.529 98.2927 197.411 98.2338 197.293Z" fill="#323A50"/>
<path d="M99.2954 199.002L69.3008 197.765C69.3597 197.883 69.4186 198.059 69.4776 198.177L99.5901 199.415C99.4722 199.297 99.4133 199.12 99.2954 199.002Z" fill="#323A50"/>
<path d="M100.415 200.77L70.0078 199.532C70.0667 199.65 70.1257 199.827 70.1846 199.945L100.71 201.182C100.651 201.064 100.533 200.946 100.415 200.77Z" fill="#323A50"/>
<path d="M101.534 202.42L70.7734 201.183C70.8324 201.3 70.8913 201.477 71.0091 201.595L101.829 202.833C101.711 202.715 101.652 202.597 101.534 202.42Z" fill="#323A50"/>
<path d="M102.772 204.247L71.7754 203.01C71.8343 203.128 71.9522 203.304 72.0111 203.422L103.066 204.66C102.949 204.483 102.89 204.365 102.772 204.247Z" fill="#323A50"/>
<path d="M104.009 205.955L72.8359 204.718C72.8949 204.836 73.0127 205.012 73.0716 205.13L104.304 206.368C104.186 206.25 104.068 206.132 104.009 205.955Z" fill="#323A50"/>
<path d="M105.246 207.723L73.8965 206.427C74.0143 206.545 74.0733 206.721 74.1911 206.839L105.541 208.136C105.482 208.018 105.364 207.9 105.246 207.723Z" fill="#323A50"/>
<path d="M106.484 209.374L75.0752 208.077C75.1931 208.195 75.252 208.372 75.3698 208.49L106.779 209.786C106.661 209.668 106.602 209.491 106.484 209.374Z" fill="#323A50"/>
<path d="M107.781 211.141L76.3721 209.845C76.4899 209.963 76.6078 210.139 76.6667 210.257L108.076 211.554C108.017 211.436 107.899 211.318 107.781 211.141Z" fill="#323A50"/>
<path d="M109.136 212.91L77.7275 211.613C77.8454 211.731 77.9633 211.908 78.0811 212.026L109.49 213.322C109.372 213.204 109.254 213.028 109.136 212.91Z" fill="#323A50"/>
<path d="M110.492 214.677L79.1416 213.381C79.2595 213.499 79.3773 213.676 79.4952 213.793L110.786 215.09C110.727 214.972 110.609 214.854 110.492 214.677Z" fill="#323A50"/>
<path d="M111.906 216.445L80.6738 215.207C80.7917 215.325 80.9095 215.502 81.0274 215.62L112.26 216.857C112.083 216.739 112.024 216.562 111.906 216.445Z" fill="#323A50"/>
<path d="M113.32 218.213L82.2061 216.976C82.3239 217.093 82.4418 217.27 82.5596 217.388L113.615 218.626C113.556 218.508 113.438 218.39 113.32 218.213Z" fill="#323A50"/>
<path d="M114.734 219.981L83.7969 218.743C83.9147 218.861 84.0326 219.038 84.2094 219.156L115.088 220.393C114.911 220.275 114.793 220.099 114.734 219.981Z" fill="#323A50"/>
<path d="M116.09 221.69L85.3291 220.452C85.447 220.57 85.5648 220.747 85.7416 220.865L116.443 222.102C116.326 221.925 116.208 221.807 116.09 221.69Z" fill="#323A50"/>
<path d="M117.445 223.28L86.9199 222.043C87.0378 222.161 87.2146 222.338 87.3324 222.455L117.857 223.693C117.681 223.575 117.563 223.457 117.445 223.28Z" fill="#323A50"/>
<path d="M118.918 225.108L88.6289 223.87C88.7468 223.988 88.9236 224.165 89.0414 224.283L119.272 225.52C119.154 225.402 119.036 225.225 118.918 225.108Z" fill="#323A50"/>
<path d="M120.391 226.875L90.3379 225.638C90.4557 225.756 90.6325 225.932 90.7504 226.05L120.745 227.288C120.627 227.111 120.509 226.993 120.391 226.875Z" fill="#323A50"/>
<path d="M121.864 228.643L92.1055 227.465C92.2233 227.583 92.4001 227.759 92.518 227.877L122.218 229.056C122.1 228.938 121.982 228.761 121.864 228.643Z" fill="#323A50"/>
<path d="M123.279 230.293L93.8145 229.114C93.9323 229.232 94.1091 229.409 94.227 229.527L123.573 230.705C123.514 230.587 123.397 230.47 123.279 230.293Z" fill="#323A50"/>
<path d="M124.693 231.943L95.5234 230.765C95.7002 230.883 95.8181 231.059 95.9949 231.177L125.047 232.356C124.929 232.238 124.811 232.061 124.693 231.943Z" fill="#323A50"/>
<path d="M126.225 233.711L97.4092 232.532C97.586 232.65 97.7038 232.827 97.8806 232.945L126.579 234.123C126.52 234.005 126.402 233.888 126.225 233.711Z" fill="#323A50"/>
<path d="M127.757 235.479L99.3535 234.301C99.5303 234.419 99.6482 234.595 99.8249 234.713L128.17 235.833C128.052 235.774 127.875 235.656 127.757 235.479Z" fill="#323A50"/>
<path d="M129.349 237.306L101.299 236.187C101.476 236.304 101.593 236.481 101.77 236.599L129.702 237.719C129.585 237.542 129.467 237.424 129.349 237.306Z" fill="#323A50"/>
<path d="M130.939 239.074L103.302 237.954C103.479 238.072 103.596 238.249 103.773 238.367L131.293 239.486C131.175 239.368 131.057 239.25 130.939 239.074Z" fill="#323A50"/>
<path d="M132.413 240.723L105.129 239.604C105.306 239.721 105.424 239.898 105.6 240.016L132.766 241.136C132.649 241.018 132.531 240.9 132.413 240.723Z" fill="#323A50"/>
<path d="M134.004 242.55L107.191 241.489C107.368 241.607 107.486 241.784 107.663 241.902L134.357 242.962C134.24 242.786 134.122 242.668 134.004 242.55Z" fill="#323A50"/>
<path d="M135.595 244.259L109.195 243.198C109.372 243.316 109.549 243.493 109.667 243.611L135.949 244.671C135.831 244.554 135.713 244.436 135.595 244.259Z" fill="#323A50"/>
<path d="M137.186 246.086L111.258 245.025C111.435 245.143 111.611 245.32 111.729 245.438L137.54 246.499C137.481 246.381 137.363 246.204 137.186 246.086Z" fill="#323A50"/>
<path d="M138.718 247.737L113.202 246.676C113.379 246.794 113.556 246.97 113.674 247.088L139.072 248.09C138.954 248.031 138.836 247.854 138.718 247.737Z" fill="#323A50"/>
<path d="M138.246 249.268L115.146 248.325C115.323 248.443 115.5 248.62 115.677 248.738L137.245 249.622C137.539 249.563 137.893 249.445 138.246 249.268Z" fill="#323A50"/>
<path d="M133.709 250.859L117.327 250.211C117.504 250.329 117.681 250.506 117.858 250.623L132.649 251.213C132.943 251.095 133.297 250.977 133.709 250.859Z" fill="#323A50"/>
<path d="M128.995 252.332L119.39 251.92C119.566 252.038 119.743 252.215 119.92 252.332L127.875 252.627C128.288 252.568 128.641 252.45 128.995 252.332Z" fill="#323A50"/>
<path d="M124.34 253.865L121.629 253.747C121.806 253.865 121.982 254.042 122.159 254.16L123.279 254.219C123.691 254.16 123.986 253.983 124.34 253.865Z" fill="#323A50"/>
<path d="M165.413 138.777C164.588 138.777 163.763 138.719 162.997 138.719C162.761 138.719 162.584 138.66 162.584 138.483C162.584 138.247 162.643 137.952 162.879 137.952C163.645 137.952 164.588 138.07 165.413 138.07C165.649 138.07 165.825 138.247 165.825 138.424C165.825 138.601 165.649 138.777 165.413 138.777ZM167.888 138.777C167.652 138.777 167.475 138.542 167.475 138.306C167.475 138.07 167.652 137.835 167.888 137.835C168.713 137.835 169.42 137.717 170.245 137.717H170.304C170.54 137.717 170.716 137.835 170.716 138.07C170.716 138.306 170.54 138.601 170.304 138.601C169.538 138.66 168.713 138.777 167.888 138.777ZM160.581 138.777C159.756 138.777 158.931 138.601 158.106 138.601C157.87 138.601 157.693 138.365 157.693 138.129C157.693 137.894 157.929 137.717 158.106 137.717C158.872 137.776 159.638 137.835 160.463 137.894C160.698 137.894 160.934 138.07 160.934 138.306C160.993 138.483 160.757 138.777 160.581 138.777ZM172.779 138.777C172.543 138.777 172.366 138.483 172.366 138.247C172.366 138.011 172.543 137.776 172.779 137.776C173.604 137.717 174.429 137.658 175.195 137.599C175.431 137.599 175.607 137.717 175.607 137.952C175.607 138.188 175.431 138.483 175.195 138.542C174.429 138.542 173.604 138.777 172.779 138.777ZM155.69 138.365C154.865 138.306 154.04 138.247 153.215 138.188C152.979 138.188 152.802 137.952 152.861 137.776C152.92 137.599 153.097 137.363 153.273 137.422C154.04 137.481 154.865 137.54 155.69 137.599C155.925 137.599 156.102 137.835 156.102 138.011C156.102 138.188 155.925 138.365 155.69 138.365ZM177.611 138.188C177.375 138.188 177.199 138.011 177.199 137.835C177.199 137.599 177.375 137.422 177.552 137.422C178.377 137.363 179.202 137.304 179.968 137.186C180.204 137.186 180.381 137.304 180.44 137.54C180.44 137.776 180.322 137.952 180.086 138.011C179.32 138.07 178.495 138.129 177.611 138.188ZM150.857 138.011C150.798 138.011 150.798 138.011 150.857 138.011C149.973 137.952 149.148 137.835 148.382 137.776C148.147 137.776 147.97 137.54 148.029 137.304C148.029 137.069 148.265 136.892 148.5 136.951C149.266 137.069 150.091 137.127 150.916 137.186C151.152 137.186 151.329 137.422 151.27 137.658C151.211 137.835 151.034 138.011 150.857 138.011ZM182.502 137.717C182.325 137.717 182.148 137.54 182.09 137.363C182.09 137.127 182.207 136.951 182.443 136.892C183.268 136.774 184.093 136.715 184.859 136.597C185.095 136.538 185.272 136.715 185.331 136.951C185.39 137.186 185.213 137.363 184.977 137.422C184.152 137.54 183.327 137.658 182.502 137.717ZM145.966 137.422C145.082 137.304 144.257 137.186 143.491 137.069C143.256 137.01 143.138 136.833 143.138 136.597C143.197 136.361 143.374 136.244 143.609 136.244C144.375 136.361 145.2 136.479 146.025 136.597C146.261 136.656 146.379 136.833 146.379 137.069C146.379 137.304 146.202 137.422 145.966 137.422ZM187.275 137.069C187.098 137.069 186.922 136.951 186.863 136.715C186.804 136.479 186.981 136.302 187.216 136.244C188.041 136.126 188.866 135.949 189.574 135.772C189.809 135.713 189.986 135.89 190.045 136.067C190.104 136.302 189.927 136.479 189.75 136.538C188.984 136.715 188.159 136.833 187.334 137.01C187.334 137.069 187.334 137.069 187.275 137.069ZM141.193 136.597H141.134C140.309 136.42 139.484 136.244 138.718 136.008C138.482 135.949 138.365 135.713 138.423 135.536C138.482 135.301 138.718 135.183 138.895 135.242C139.602 135.419 140.427 135.595 141.252 135.772C141.488 135.831 141.606 136.008 141.547 136.244C141.547 136.479 141.37 136.597 141.193 136.597ZM192.048 136.008C191.872 136.008 191.695 135.89 191.636 135.713C191.577 135.477 191.695 135.301 191.931 135.242C192.756 135.006 193.522 134.77 194.229 134.535C194.465 134.476 194.7 134.594 194.759 134.77C194.818 135.006 194.7 135.242 194.523 135.301C193.816 135.536 193.05 135.772 192.166 136.008C192.166 136.008 192.107 136.008 192.048 136.008ZM136.479 135.301C136.42 135.301 136.361 135.301 136.361 135.301C135.418 134.947 134.652 134.594 134.063 134.24C133.886 134.122 133.827 133.886 133.945 133.651C134.063 133.474 134.298 133.415 134.534 133.533C135.065 133.886 135.831 134.181 136.656 134.535C136.891 134.594 136.95 134.829 136.891 135.065C136.832 135.183 136.656 135.301 136.479 135.301ZM196.586 134.299C196.468 134.299 196.291 134.24 196.232 134.122C196.115 133.945 196.232 133.651 196.409 133.533C196.998 133.179 197.706 132.649 197.706 132.06C197.706 131.824 197.824 131.647 198.059 131.647C198.295 131.647 198.472 131.824 198.472 132.06V132.119C198.472 132.885 197.941 133.592 196.822 134.299C196.763 134.24 196.704 134.299 196.586 134.299ZM132.825 132.295C132.59 132.295 132.295 132.295 132.295 132.06C132.295 131.294 132.884 130.586 133.945 129.938C134.122 129.82 134.416 129.879 134.534 130.056C134.652 130.233 134.593 130.527 134.416 130.645C133.886 130.999 133.179 131.411 133.179 132.001C133.238 132.177 133.061 132.295 132.825 132.295ZM196.586 130.645C196.527 130.645 196.468 130.645 196.35 130.586C195.82 130.233 195.054 129.938 194.229 129.585C193.993 129.526 193.934 129.29 193.993 129.054C194.052 128.819 194.288 128.76 194.523 128.819C195.466 129.172 196.232 129.526 196.822 129.879C196.998 129.997 197.057 130.233 196.94 130.469C196.822 130.527 196.704 130.645 196.586 130.645ZM136.42 129.644C136.243 129.644 136.125 129.526 136.007 129.349C135.948 129.113 136.066 128.877 136.243 128.819C136.95 128.583 137.716 128.288 138.6 128.111C138.836 128.052 139.013 128.17 139.072 128.406C139.131 128.642 139.013 128.819 138.777 128.877C137.952 129.113 137.186 129.349 136.479 129.585C136.538 129.644 136.479 129.644 136.42 129.644ZM192.048 128.877C191.99 128.877 191.99 128.877 191.931 128.877C191.224 128.701 190.399 128.524 189.574 128.347C189.338 128.288 189.22 128.111 189.279 127.876C189.338 127.64 189.515 127.522 189.75 127.581C190.575 127.758 191.4 127.935 192.166 128.17C192.402 128.229 192.52 128.465 192.461 128.642C192.402 128.76 192.225 128.877 192.048 128.877ZM141.134 128.347C140.957 128.347 140.781 128.229 140.722 128.052C140.663 127.817 140.84 127.64 141.016 127.581C141.782 127.404 142.607 127.286 143.432 127.11C143.668 127.051 143.845 127.227 143.904 127.463C143.963 127.699 143.786 127.876 143.55 127.935C142.725 128.052 141.9 128.229 141.193 128.406C141.193 128.347 141.193 128.347 141.134 128.347ZM187.275 127.876H187.216C186.45 127.758 185.625 127.64 184.8 127.522C184.565 127.463 184.447 127.286 184.447 127.051C184.506 126.815 184.682 126.697 184.918 126.697C185.743 126.815 186.568 126.933 187.334 127.051C187.57 127.11 187.688 127.286 187.688 127.522C187.629 127.758 187.452 127.876 187.275 127.876ZM145.966 127.522C145.79 127.522 145.613 127.404 145.554 127.169C145.495 126.933 145.672 126.756 145.907 126.697C146.673 126.579 147.499 126.461 148.324 126.402C148.559 126.402 148.736 126.52 148.795 126.756C148.795 126.992 148.677 127.169 148.441 127.227C147.557 127.286 146.791 127.404 145.966 127.522ZM182.443 127.227C181.618 127.11 180.793 127.051 179.968 126.992C179.732 126.992 179.556 126.756 179.615 126.52C179.615 126.285 179.85 126.108 180.086 126.167C180.911 126.226 181.736 126.344 182.502 126.402C182.738 126.402 182.915 126.638 182.856 126.874C182.797 127.051 182.62 127.227 182.443 127.227ZM150.798 126.933C150.563 126.933 150.386 126.756 150.386 126.579C150.386 126.344 150.504 126.167 150.74 126.108C151.565 126.049 152.331 125.99 153.156 125.872C153.391 125.872 153.568 126.049 153.568 126.226C153.568 126.461 153.391 126.638 153.215 126.638C152.448 126.815 151.623 126.874 150.798 126.933ZM177.552 126.756C176.727 126.697 175.902 126.638 175.077 126.579C174.841 126.579 174.665 126.402 174.665 126.167C174.665 125.931 174.9 125.754 175.077 125.754C175.902 125.813 176.727 125.872 177.493 125.931C177.729 125.931 177.906 126.167 177.847 126.344C177.965 126.579 177.788 126.756 177.552 126.756ZM155.631 126.579C155.395 126.579 155.218 126.402 155.218 126.167C155.218 125.931 155.395 125.754 155.631 125.754C156.456 125.695 157.281 125.636 158.047 125.636C158.282 125.636 158.459 125.813 158.459 126.049C158.459 126.285 158.282 126.461 158.047 126.461C157.281 126.461 156.456 126.52 155.631 126.579ZM172.72 126.402C171.895 126.402 171.07 126.344 170.245 126.344C170.009 126.344 169.832 126.167 169.832 125.931C169.832 125.695 170.009 125.519 170.245 125.519C171.07 125.519 171.895 125.577 172.661 125.636C172.897 125.636 173.074 125.813 173.074 126.049C173.132 126.226 172.897 126.402 172.72 126.402ZM160.522 126.402C160.286 126.402 160.109 126.226 160.109 125.99C160.109 125.754 160.286 125.577 160.522 125.577C161.347 125.577 162.113 125.519 162.938 125.519C163.173 125.519 163.35 125.695 163.35 125.931C163.35 126.167 163.173 126.344 162.938 126.344C162.172 126.344 161.347 126.402 160.522 126.402Z" fill="#323A50"/>
<path d="M133.001 131.823C132.884 131.823 132.825 131.765 132.707 131.706C132.53 131.529 132.53 131.293 132.707 131.116C133.296 130.527 133.885 129.938 134.416 129.348C134.593 129.172 134.828 129.172 135.005 129.348C135.182 129.525 135.182 129.761 135.005 129.938C134.416 130.527 133.885 131.116 133.296 131.706C133.237 131.765 133.119 131.823 133.001 131.823ZM196.939 130.998C196.821 130.998 196.703 130.94 196.644 130.881C196.055 130.291 195.466 129.702 194.876 129.172C194.7 128.995 194.7 128.759 194.876 128.582C195.053 128.406 195.289 128.406 195.466 128.582C196.055 129.113 196.644 129.702 197.234 130.291C197.41 130.468 197.41 130.704 197.234 130.881C197.175 130.998 197.057 130.998 196.939 130.998ZM136.478 128.347C136.36 128.347 136.243 128.288 136.184 128.229C136.007 128.052 136.007 127.816 136.184 127.64C136.773 127.05 137.362 126.52 137.951 125.931C138.128 125.754 138.364 125.813 138.541 125.931C138.718 126.107 138.659 126.343 138.541 126.52C137.951 127.05 137.362 127.64 136.773 128.17C136.714 128.288 136.596 128.347 136.478 128.347ZM193.403 127.64C193.285 127.64 193.226 127.581 193.109 127.522C192.519 126.991 191.871 126.402 191.282 125.872C191.105 125.695 191.105 125.459 191.223 125.282C191.4 125.106 191.635 125.106 191.812 125.223C192.401 125.754 193.05 126.284 193.639 126.873C193.816 127.05 193.816 127.286 193.639 127.463C193.639 127.581 193.521 127.64 193.403 127.64ZM140.132 125.047C140.014 125.047 139.896 124.988 139.837 124.929C139.66 124.752 139.719 124.516 139.896 124.34C140.544 123.809 141.134 123.279 141.782 122.748C141.959 122.631 142.194 122.631 142.371 122.807C142.489 122.984 142.489 123.22 142.312 123.397C141.723 123.927 141.075 124.457 140.426 124.988C140.309 124.988 140.191 125.047 140.132 125.047ZM189.75 124.398C189.632 124.398 189.573 124.34 189.514 124.281C188.866 123.75 188.276 123.22 187.628 122.748C187.451 122.631 187.451 122.336 187.569 122.159C187.687 121.982 187.982 121.982 188.159 122.1C188.807 122.631 189.396 123.161 190.044 123.691C190.221 123.809 190.221 124.104 190.103 124.281C189.985 124.34 189.868 124.398 189.75 124.398ZM143.903 121.923C143.785 121.923 143.668 121.865 143.609 121.747C143.491 121.57 143.491 121.334 143.668 121.157C144.316 120.627 144.964 120.156 145.612 119.684C145.789 119.566 146.025 119.566 146.201 119.802C146.319 119.979 146.319 120.215 146.084 120.391C145.435 120.863 144.787 121.334 144.139 121.865C144.08 121.865 143.962 121.923 143.903 121.923ZM185.919 121.275C185.86 121.275 185.743 121.275 185.684 121.216C185.035 120.745 184.387 120.215 183.739 119.802C183.562 119.684 183.503 119.39 183.621 119.213C183.739 119.036 184.034 118.977 184.21 119.095C184.859 119.566 185.507 120.038 186.214 120.568C186.391 120.686 186.45 120.981 186.273 121.157C186.155 121.216 186.037 121.275 185.919 121.275ZM147.851 119.036C147.734 119.036 147.616 118.977 147.498 118.859C147.38 118.682 147.439 118.447 147.616 118.27C148.323 117.798 149.03 117.386 149.678 116.915C149.855 116.797 150.15 116.856 150.268 117.032C150.385 117.209 150.326 117.504 150.15 117.622C149.501 118.034 148.794 118.447 148.087 118.918C148.028 119.036 147.969 119.036 147.851 119.036ZM181.912 118.447C181.853 118.447 181.735 118.447 181.676 118.388C180.969 117.916 180.262 117.504 179.614 117.091C179.437 116.973 179.378 116.738 179.496 116.561C179.614 116.384 179.85 116.325 180.026 116.443C180.734 116.856 181.441 117.268 182.148 117.74C182.325 117.857 182.384 118.093 182.266 118.329C182.148 118.388 182.03 118.447 181.912 118.447ZM152.035 116.502C151.918 116.502 151.741 116.443 151.682 116.266C151.564 116.09 151.623 115.795 151.859 115.736C152.625 115.323 153.332 114.97 154.039 114.616C154.216 114.498 154.51 114.616 154.569 114.793C154.687 114.97 154.569 115.265 154.393 115.323C153.685 115.677 152.978 116.031 152.212 116.443C152.212 116.502 152.094 116.502 152.035 116.502ZM177.669 115.972C177.61 115.972 177.551 115.972 177.493 115.913C176.785 115.5 176.019 115.147 175.312 114.852C175.135 114.734 175.018 114.498 175.076 114.322C175.194 114.145 175.43 114.027 175.607 114.086C176.314 114.44 177.08 114.793 177.846 115.147C178.023 115.265 178.141 115.5 178.023 115.677C177.964 115.913 177.846 115.972 177.669 115.972ZM156.514 114.44C156.337 114.44 156.219 114.322 156.16 114.204C156.101 113.968 156.16 113.732 156.396 113.673C157.162 113.379 157.987 113.084 158.753 112.848C158.989 112.79 159.225 112.907 159.284 113.143C159.343 113.379 159.225 113.615 158.989 113.673C158.223 113.909 157.457 114.145 156.691 114.44C156.573 114.44 156.514 114.44 156.514 114.44ZM173.191 114.027C173.132 114.027 173.073 114.027 173.073 114.027C172.307 113.732 171.541 113.497 170.775 113.32C170.539 113.261 170.421 113.025 170.48 112.848C170.539 112.613 170.775 112.495 170.951 112.554C171.718 112.731 172.543 113.025 173.309 113.261C173.544 113.32 173.603 113.556 173.544 113.791C173.544 113.909 173.368 114.027 173.191 114.027ZM161.169 113.025C160.993 113.025 160.816 112.907 160.757 112.672C160.698 112.436 160.875 112.259 161.051 112.2C161.876 112.023 162.701 111.906 163.526 111.847C163.762 111.847 163.939 111.965 163.998 112.2C163.998 112.436 163.88 112.613 163.644 112.672C162.878 112.731 162.053 112.848 161.287 113.025C161.228 113.025 161.228 113.025 161.169 113.025ZM168.476 112.79H168.418C167.593 112.672 166.826 112.613 166.06 112.613C165.825 112.613 165.589 112.436 165.589 112.259C165.589 112.023 165.884 111.906 166.06 111.906C166.06 111.906 167.71 111.965 168.535 112.082C168.771 112.141 168.948 112.377 168.889 112.613C168.83 112.79 168.653 112.79 168.476 112.79Z" fill="#323A50"/>
<path d="M171.187 33.2951V17.9736H164.116V33.2951H159.343L167.534 45.3165L167.593 45.4343L176.196 33.2951H171.187Z" fill="#FF4200"/>
<path d="M170.893 97.1143C166.179 97.1143 162.349 93.2839 162.349 88.5697C162.349 83.9732 170.304 70.8911 170.658 70.3607L170.893 69.9482L171.129 70.3607C171.483 70.8911 179.438 83.9732 179.438 88.5697C179.438 93.225 175.608 97.1143 170.893 97.1143ZM170.893 71.0679C169.479 73.425 162.938 84.5625 162.938 88.5107C162.938 92.8715 166.533 96.4661 170.893 96.4661C175.254 96.4661 178.849 92.8715 178.849 88.5107C178.849 84.5625 172.249 73.425 170.893 71.0679Z" fill="#323A50"/>
<path d="M165.648 85.8593L165.059 85.6825C165.884 82.3825 169.125 76.3129 169.243 76.0771L169.773 76.3718C169.773 76.4307 166.473 82.6182 165.648 85.8593Z" fill="#323A50"/>
<path d="M166.944 93.0485C164.175 90.8092 164.705 87.0967 164.764 86.9199L165.353 87.0378C165.353 87.0967 164.823 90.5735 167.357 92.5771L166.944 93.0485Z" fill="#323A50"/>
<path d="M154.982 70.3614C151.682 70.3614 149.03 67.7096 149.03 64.4096C149.03 61.2275 154.511 52.2703 154.746 51.8578L154.982 51.4453L155.218 51.8578C155.453 52.2114 160.934 61.2275 160.934 64.4096C160.993 67.7096 158.282 70.3614 154.982 70.3614ZM154.982 52.6239C153.862 54.5096 149.62 61.7578 149.62 64.4096C149.62 67.356 152.036 69.7721 154.982 69.7721C157.928 69.7721 160.345 67.356 160.345 64.4096C160.345 61.7578 156.102 54.4507 154.982 52.6239Z" fill="#323A50"/>
<path d="M152.271 67.5918C150.326 66.0597 150.739 63.4079 150.739 63.29L151.328 63.4079C151.328 63.4079 150.974 65.824 152.624 67.1204L152.271 67.5918Z" fill="#323A50"/>
<path d="M165.236 126.402C165 126.402 164.823 126.225 164.823 125.99C164.823 125.754 165 125.577 165.236 125.577C166.061 125.577 166.827 125.577 167.652 125.577C167.888 125.577 168.064 125.754 168.064 125.99C168.064 126.225 167.888 126.402 167.652 126.402C166.827 126.343 166.002 126.402 165.236 126.402Z" fill="#323A50"/>
</g>
<defs>
<linearGradient id="paint0_linear_3614_9543" x1="270.792" y1="225.691" x2="69.0883" y2="78.163" gradientUnits="userSpaceOnUse">
<stop offset="0.2655" stop-color="#032A3D" stop-opacity="0"/>
<stop offset="0.7809" stop-color="#032A3D"/>
</linearGradient>
<radialGradient id="paint1_radial_3614_9543" cx="0" cy="0" r="1" gradientUnits="userSpaceOnUse" gradientTransform="translate(165.415 218.574) scale(68.229 67.9151)">
<stop offset="0.2655" stop-color="#032A3D" stop-opacity="0"/>
<stop offset="1" stop-color="#032A3D"/>
</radialGradient>
<linearGradient id="paint2_linear_3614_9543" x1="138.669" y1="110.768" x2="188.786" y2="307.505" gradientUnits="userSpaceOnUse">
<stop offset="0.4054" stop-color="#032A3D" stop-opacity="0"/>
<stop offset="1" stop-color="#032A3D"/>
</linearGradient>
<linearGradient id="paint3_linear_3614_9543" x1="102.518" y1="178.026" x2="234.341" y2="301.686" gradientUnits="userSpaceOnUse">
<stop offset="0.2655" stop-color="#032A3D" stop-opacity="0"/>
<stop offset="0.7809" stop-color="#032A3D"/>
</linearGradient>
<linearGradient id="paint4_linear_3614_9543" x1="109.709" y1="170.36" x2="241.532" y2="294.021" gradientUnits="userSpaceOnUse">
<stop offset="0.2655" stop-color="#032A3D" stop-opacity="0"/>
<stop offset="0.7809" stop-color="#032A3D"/>
</linearGradient>
<linearGradient id="paint5_linear_3614_9543" x1="107.143" y1="173.096" x2="238.966" y2="296.757" gradientUnits="userSpaceOnUse">
<stop offset="0.2655" stop-color="#032A3D" stop-opacity="0"/>
<stop offset="0.7809" stop-color="#032A3D"/>
</linearGradient>
<linearGradient id="paint6_linear_3614_9543" x1="82.0531" y1="199.843" x2="213.876" y2="323.503" gradientUnits="userSpaceOnUse">
<stop offset="0.2655" stop-color="#032A3D" stop-opacity="0"/>
<stop offset="0.7809" stop-color="#032A3D"/>
</linearGradient>
<linearGradient id="paint7_linear_3614_9543" x1="100.854" y1="179.8" x2="232.677" y2="303.461" gradientUnits="userSpaceOnUse">
<stop offset="0.2655" stop-color="#032A3D" stop-opacity="0"/>
<stop offset="0.7809" stop-color="#032A3D"/>
</linearGradient>
<linearGradient id="paint8_linear_3614_9543" x1="90.5424" y1="190.793" x2="222.365" y2="314.454" gradientUnits="userSpaceOnUse">
<stop offset="0.2655" stop-color="#032A3D" stop-opacity="0"/>
<stop offset="0.7809" stop-color="#032A3D"/>
</linearGradient>
<linearGradient id="paint9_linear_3614_9543" x1="71.887" y1="210.679" x2="203.71" y2="334.34" gradientUnits="userSpaceOnUse">
<stop offset="0.2655" stop-color="#032A3D" stop-opacity="0"/>
<stop offset="0.7809" stop-color="#032A3D"/>
</linearGradient>
<linearGradient id="paint10_linear_3614_9543" x1="75.0254" y1="207.334" x2="206.848" y2="330.995" gradientUnits="userSpaceOnUse">
<stop offset="0.2655" stop-color="#032A3D" stop-opacity="0"/>
<stop offset="0.7809" stop-color="#032A3D"/>
</linearGradient>
<linearGradient id="paint11_linear_3614_9543" x1="85.3408" y1="196.338" x2="217.164" y2="319.998" gradientUnits="userSpaceOnUse">
<stop offset="0.2655" stop-color="#032A3D" stop-opacity="0"/>
<stop offset="0.7809" stop-color="#032A3D"/>
</linearGradient>
<linearGradient id="paint12_linear_3614_9543" x1="71.8483" y1="210.72" x2="203.671" y2="334.381" gradientUnits="userSpaceOnUse">
<stop offset="0.2655" stop-color="#032A3D" stop-opacity="0"/>
<stop offset="0.7809" stop-color="#032A3D"/>
</linearGradient>
<clipPath id="clip0_3614_9543">
<rect width="330" height="330" fill="white"/>
</clipPath>
</defs>
</svg>
