<svg width="330" height="330" viewBox="0 0 330 330" fill="none" xmlns="http://www.w3.org/2000/svg">
<g clip-path="url(#clip0_3489_27117)">
<path opacity="0.3" d="M9.31016 207.664C7.30658 230.646 27.2834 254.689 41.3084 264.354C41.7798 268.773 42.1334 272.427 42.4869 275.373C42.4869 275.373 50.9137 289.988 67.3548 297.707C91.0441 308.904 118.033 303.129 144.492 303.129C144.492 303.129 145.848 286.629 150.916 274.902C155.866 263.411 163.467 251.154 163.467 251.154C163.467 251.154 174.84 251.566 181.382 250.505C188.865 249.268 189.337 247.441 191.046 242.668C197.41 225.225 205.837 195.761 205.837 175.548C205.837 155.336 198.471 151.682 197.882 146.202C197.469 142.313 199.473 130.173 199.767 126.638C200.18 121.039 194.464 105.364 192.814 102.889C191.282 100.65 194.582 101.239 193.874 98.6464C192.932 95.2875 192.755 91.8697 191.576 88.8643C178.612 55.1572 152.566 43.0179 118.741 46.9072C116.266 47.2018 107.191 45.6697 104.657 45.7286C47.2012 47.5554 -15.322 109.018 16.4405 184.152C16.3816 184.27 9.31016 193.757 9.31016 207.664Z" fill="url(#paint0_linear_3489_27117)"/>
<path d="M42.251 252.568C46.3171 233.298 50.56 226.521 52.9171 219.214C53.3296 217.918 52.7993 216.621 53.2118 215.502C50.8546 215.737 48.4975 215.62 46.376 214.854C44.1957 214.087 39.835 200.77 38.4207 199.237C35.8868 196.468 35.71 193.05 34.4135 189.514C30.8189 179.32 33.4707 169.007 33.3528 169.007C33.6475 169.773 23.0993 173.839 16.4993 183.857C16.4993 183.857 9.42783 193.345 9.42783 207.252C7.42425 230.234 27.401 254.277 41.426 263.941C41.8975 268.361 42.251 272.014 42.6046 274.961C42.6635 274.961 39.7171 264.766 42.251 252.568Z" fill="url(#paint1_linear_3489_27117)"/>
<path d="M156.808 250.329C145.2 250.093 136.832 249.68 128.405 249.562C125.105 250.034 102.3 249.68 99.1174 248.737C73.3067 240.664 67.296 216.386 66.2353 213.734C66.1763 213.675 66.6478 212.968 66.5888 212.909C66.471 212.85 66.3531 212.791 66.2942 212.732C65.9996 212.555 65.7049 212.379 65.4692 212.202C64.6442 212.85 63.6424 213.38 62.6406 213.734C63.2888 214.441 63.7603 215.207 63.9371 216.15C65.5871 225.402 66.5888 234.83 69.0049 243.964C70.0656 248.03 71.4799 252.037 73.0121 255.986C73.7192 257.871 74.4263 259.757 75.1924 261.584C75.3692 261.996 75.546 262.409 75.6638 262.762C75.7228 262.939 75.8406 263.116 75.8996 263.293C76.2531 264.118 76.6656 265.002 77.0192 265.827C80.2013 273.016 83.8549 279.97 87.7442 286.805C91.1031 292.698 94.6978 298.414 98.4692 304.071C113.555 304.661 129.23 302.716 144.728 302.716C144.728 302.716 146.083 286.216 151.151 274.489C155.807 263.764 162.76 252.273 163.644 250.859C161.287 250.623 159.107 250.387 156.808 250.329Z" fill="url(#paint2_linear_3489_27117)"/>
<path d="M172.248 251.212C161.7 251.212 144.729 250.564 138.777 250.152C134.77 249.857 128.641 249.975 122.1 250.093C115.795 250.211 109.313 250.329 104.009 250.093C92.9304 249.621 80.2019 240.782 72.3054 227.995C67.6501 220.511 66.3537 215.796 65.8233 213.734C65.7644 213.439 65.6465 213.145 65.5876 212.909C65.3519 212.968 64.9983 213.145 64.6447 213.321C62.8769 214.087 59.5769 215.561 55.2162 215.855C48.7929 216.386 45.9054 215.207 45.8465 215.148C45.7287 215.089 45.5519 214.971 43.9608 212.143C43.3126 210.964 41.9572 208.43 40.3662 205.13C37.8912 200.062 34.709 192.755 33.059 186.391C30.8197 177.611 32.1751 169.42 34.1787 168.241C36.0644 167.121 40.0715 165.943 44.5501 166.002C47.2019 166.061 50.5608 166.768 54.0965 167.475C60.5197 168.83 67.7679 170.304 71.6572 167.829C78.7287 163.291 75.1929 141.37 75.134 141.193L75.959 141.016C76.1358 141.959 79.6126 163.704 72.0697 168.536C67.8858 171.187 60.7554 169.714 53.8608 168.3C50.3251 167.593 47.0251 166.886 44.4322 166.827C39.8358 166.768 36.0054 168.064 34.4733 168.889C33.1179 169.714 31.4679 177.021 33.7662 186.096C36.7126 197.705 45.3162 213.145 46.1412 214.264C46.6126 214.441 49.4412 215.266 55.0394 214.854C59.2233 214.5 62.4644 213.145 64.1733 212.379C65.1751 211.966 65.5287 211.789 65.8233 211.907C66.1769 212.025 66.2358 212.379 66.5304 213.321C67.0608 215.325 68.3572 219.921 72.8947 227.346C80.6144 239.898 93.1072 248.62 103.891 249.091C109.136 249.327 115.618 249.209 121.923 249.091C128.464 248.973 134.652 248.855 138.659 249.15C146.32 249.68 172.366 250.564 179.202 249.975C185.92 249.386 187.864 247.205 189.455 244.612C191.164 241.902 199.061 216.268 201.005 207.075C206.663 183.386 205.013 168.889 204.305 165.059C203.363 159.225 200.18 152.507 198.472 148.854C197.705 147.204 197.352 146.379 197.234 146.025C197.116 145.377 197.47 142.077 198.059 136.773C198.53 132.648 199.002 128.405 198.943 127.227C198.707 120.745 195.289 109.312 193.639 105.777C192.225 102.771 191.636 102.418 191.636 102.418C191.636 102.418 191.695 102.418 191.754 102.477L191.93 101.652C192.579 101.77 193.698 103.773 194.464 105.482C196.173 109.018 199.591 120.627 199.886 127.227C199.945 128.464 199.473 132.53 199.002 136.891C198.53 140.839 198.059 145.318 198.177 145.907C198.236 146.202 198.766 147.262 199.297 148.559C201.005 152.212 204.188 159.048 205.189 165C205.838 168.889 207.547 183.504 201.83 207.37C199.768 216.916 191.93 242.314 190.163 245.143C188.395 247.912 186.391 250.27 179.261 250.859C177.964 251.212 175.43 251.212 172.248 251.212Z" fill="#323A50"/>
<path d="M145.023 303.423L144.198 303.364C144.198 303.188 145.318 288.102 149.03 278.143C153.332 266.475 163.35 250.682 163.468 250.505L164.175 250.977C164.057 251.154 154.157 266.829 149.855 278.438C146.143 288.279 145.023 303.305 145.023 303.423Z" fill="#323A50"/>
<path d="M45.9051 215.266C38.9515 212.379 32.1158 207.016 26.2229 199.768C20.0944 192.284 15.1444 183.091 11.9033 173.132C7.01222 157.987 1.88544 127.404 22.7462 93.225C27.9908 84.6804 34.6497 76.9607 42.5462 70.3607C49.3229 64.7036 57.0426 59.8714 65.4104 55.8643C80.2604 48.9107 94.639 45.9643 103.184 45.6107C111.728 45.2571 119.507 46.6714 126.284 49.9125C132 52.6821 137.068 56.6893 141.31 61.875C151.328 74.1911 153.568 88.9821 152.86 91.7518C152.566 92.8714 152.035 93.6375 151.269 94.05C149.678 94.8161 147.498 93.8732 144.964 92.7536L144.787 92.6946C136.596 89.1 118.741 85.5054 91.1033 101.416C82.7355 106.248 79.0819 113.614 77.4908 118.859C75.7819 124.575 76.0176 129.23 76.0176 129.289L75.1926 129.348C75.1926 129.171 74.8979 124.516 76.7247 118.623C78.3747 113.202 82.1462 105.659 90.7497 100.65C103.714 93.1661 116.03 89.1589 127.285 88.8054C133.885 88.5696 140.132 89.6303 145.259 91.8696L145.435 91.9286C147.675 92.9304 149.796 93.8143 150.975 93.225C151.505 92.9893 151.918 92.4 152.094 91.5161C152.86 88.5107 150.091 73.8964 140.721 62.3464C131.528 51.0321 118.918 45.6696 103.302 46.3768C94.8158 46.7304 80.5551 49.6179 65.8819 56.5714C47.4962 65.2339 33.2944 77.6679 23.5712 93.5786C2.88722 127.462 7.95508 157.752 12.8462 172.779C19.2104 192.461 32.0569 208.43 46.3765 214.382L45.9051 215.266Z" fill="#323A50"/>
<path d="M188.865 103.42C185.094 103.42 180.203 100.532 174.546 97.2321C167.533 93.1071 159.578 88.4517 152.389 88.8053L152.33 87.9803C159.755 87.6857 167.828 92.4 174.958 96.525C180.439 99.766 185.683 102.771 189.219 102.595C190.81 102.477 191.989 102.064 192.696 101.239C193.403 100.473 193.639 99.2946 193.462 97.7624C193.462 97.7035 192.931 92.341 189.042 84.2678C184.681 75.1928 178.081 66.9428 169.537 59.7535C155.158 47.7321 137.715 46.6125 128.581 46.966C104.833 48.0267 83.4421 54.1553 64.8207 65.2339L64.4082 64.5267C83.0886 53.3303 104.656 47.1428 128.581 46.141C134.946 45.8464 141.074 46.4357 146.967 47.7321C155.806 49.7946 163.585 53.566 170.126 59.0464C178.789 66.2946 185.389 74.6625 189.808 83.8553C193.756 92.1053 194.287 97.5857 194.287 97.6446C194.464 99.4714 194.11 100.827 193.285 101.77C192.46 102.771 191.046 103.302 189.219 103.42C189.16 103.42 188.983 103.42 188.865 103.42Z" fill="#323A50"/>
<path d="M159.047 173.839C155.865 173.839 152.978 173.191 151.858 169.95C150.562 166.12 153.626 160.345 153.744 160.109L154.51 160.521C154.51 160.58 151.505 166.238 152.683 169.714C153.862 173.073 157.162 173.191 161.051 172.955C165.235 172.72 175.724 171.07 179.79 167.534C183.562 164.234 184.858 160.639 183.267 157.87C181.676 155.159 177.669 149.62 177.61 149.502C177.374 149.148 171.599 140.309 170.303 136.95C170.244 136.714 170.126 136.479 170.067 136.243C168.83 133.061 167.474 129.466 168.064 125.164C168.594 120.863 169.596 117.621 172.719 114.557C175.135 112.2 179.142 109.077 186.214 109.43C192.814 109.725 199.885 112.259 200.71 113.438C201.299 114.263 201.417 116.738 200.474 118.329C199.885 119.33 198.942 119.802 197.764 119.625C195.819 119.389 194.169 118.859 192.814 118.505C191.989 118.27 191.222 118.034 190.692 117.975L190.81 117.15C191.399 117.209 192.165 117.445 193.108 117.739C194.405 118.093 196.055 118.623 197.94 118.859C198.765 118.977 199.355 118.682 199.826 117.975C200.651 116.62 200.415 114.498 200.121 114.027C199.59 113.261 193.049 110.668 186.272 110.373C179.555 110.079 175.724 113.025 173.426 115.264C170.421 118.152 169.537 121.275 169.006 125.341C168.476 129.407 169.773 132.766 171.01 136.007C171.069 136.243 171.187 136.479 171.246 136.714C172.483 140.014 178.376 149.03 178.435 149.089C178.435 149.148 182.501 154.746 184.092 157.457C185.919 160.58 184.564 164.646 180.439 168.182C176.255 171.836 165.412 173.604 161.169 173.839C160.403 173.78 159.696 173.839 159.047 173.839Z" fill="#323A50"/>
<path d="M176.314 175.902C176.314 175.843 176.196 174.134 177.021 172.248C177.139 172.013 177.316 171.777 177.493 171.482C177.198 171.364 176.962 171.188 176.726 171.07C176.432 170.834 176.078 170.598 175.666 170.304C173.721 168.83 170.539 166.355 166.885 166.12C164.234 165.943 162.584 166.827 161.7 167.534C163.88 167.298 167.887 167.121 168.948 168.477C169.184 168.771 169.36 169.302 169.007 170.009C168.948 170.186 168.712 170.716 166.296 171.188C163.114 171.836 156.632 172.248 154.982 170.716C152.919 168.83 153.509 166.296 153.509 166.179L154.334 166.414C154.334 166.473 153.862 168.595 155.571 170.186C156.396 170.952 160.05 171.246 163.998 170.775C166.885 170.421 168.123 169.95 168.3 169.714C168.476 169.302 168.359 169.125 168.3 169.066C167.534 168.064 163.173 168.241 160.639 168.595L159.696 168.713L160.226 167.946C160.285 167.829 162.289 165.059 167.003 165.354C170.893 165.648 174.251 168.182 176.255 169.714C176.668 170.009 177.021 170.245 177.257 170.48C177.493 170.657 177.787 170.834 178.082 170.952C179.437 169.42 181.735 167.829 182.737 167.829C183.209 167.829 183.385 168.064 183.444 168.182C184.034 169.243 183.621 170.952 182.56 171.777C181.735 172.484 179.909 172.484 178.259 171.954C178.023 172.248 177.846 172.484 177.728 172.72C176.962 174.37 177.08 175.961 177.08 175.961H176.314V175.902ZM178.966 171.188C180.262 171.541 181.618 171.482 182.089 171.07C182.796 170.48 183.15 169.243 182.796 168.595C182.207 168.595 180.321 169.891 178.966 171.188Z" fill="#323A50"/>
<path d="M142.548 202.655L142.371 201.83L142.607 201.771C143.609 201.536 144.551 201.005 145.259 200.239C148.146 197.175 155.159 189.75 157.575 188.1C160.757 185.92 165.353 183.091 169.007 183.504C170.657 183.68 173.78 185.095 175.018 185.684C175.725 185.979 176.491 186.037 177.257 185.802C178.73 185.33 180.793 184.741 182.678 184.741C185.978 184.8 188.689 188.395 190.044 191.459C192.048 196.114 191.518 202.243 191.459 202.538L190.634 202.479C190.634 202.42 191.164 196.291 189.278 191.813C187.982 188.748 185.389 185.625 182.678 185.566C180.91 185.507 178.907 186.096 177.551 186.568C176.609 186.863 175.607 186.862 174.723 186.391C173.78 185.92 170.539 184.446 169.007 184.27C165.707 183.916 161.228 186.627 158.164 188.689C155.807 190.339 148.853 197.646 145.966 200.711C145.141 201.595 144.08 202.243 142.843 202.479L142.548 202.655Z" fill="#323A50"/>
<path d="M42.3689 276.198C42.31 276.021 41.2493 272.545 41.0725 266.18C40.8957 260.346 41.426 250.859 45.0796 239.014C46.0814 235.714 47.4957 232.061 48.9689 228.171C52.6225 218.684 56.7475 207.959 54.8618 201.654C53.5064 199.296 51.0903 200.534 50.9725 200.593L50.56 199.827C51.6796 199.237 54.2135 198.766 55.6278 201.3L55.6868 201.359C57.7493 207.959 53.6832 218.389 49.7939 228.525C48.3207 232.355 46.9064 236.009 45.9046 239.309C39.01 261.761 43.1939 275.845 43.2528 275.962L42.3689 276.198Z" fill="#323A50"/>
<path d="M38.716 262.88C38.5982 262.821 28.7571 255.927 20.5071 244.2C15.675 237.305 12.2571 230.057 10.4892 222.691C8.24996 213.498 8.48567 204.07 11.1964 194.759C14.2017 184.446 20.4482 177.729 25.2214 173.898C30.3482 169.773 34.7089 168.123 34.8857 168.005L35.1803 168.771C35.1214 168.771 30.7607 170.48 25.7517 174.488C21.1553 178.2 14.9678 184.8 12.0803 194.877C6.01067 215.679 13.7303 232.827 21.2732 243.552C29.4642 255.161 39.1875 261.996 39.2464 262.055L38.716 262.88Z" fill="#323A50"/>
<path d="M151.564 202.125L151.093 201.418C151.152 201.359 159.225 196.291 169.596 196.173C170.539 196.173 171.836 196.586 173.368 197.116C175.43 197.823 177.728 198.589 179.378 198.236C180.321 198.059 181.264 197.882 182.207 197.646C185.212 196.939 188.041 196.291 189.868 197.47C190.752 198.059 191.282 199.002 191.518 200.357L190.693 200.534C190.516 199.414 190.103 198.648 189.396 198.236C187.864 197.234 185.095 197.882 182.443 198.53C181.5 198.766 180.498 199.002 179.555 199.12C177.67 199.473 175.253 198.648 173.132 197.941C171.777 197.47 170.48 197.057 169.655 197.057C159.52 197.175 151.623 202.066 151.564 202.125Z" fill="#323A50"/>
<path d="M173.653 208.222L173.645 209.047L183.662 209.154L183.671 208.329L173.653 208.222Z" fill="#323A50"/>
<path d="M150.562 140.25C149.796 140.25 148.971 140.073 148.381 139.543C147.733 138.954 147.556 137.952 147.851 136.655C148.381 134.239 148.146 132.354 147.085 130.998C145.671 129.112 142.724 127.993 138.305 127.698L138.364 126.873C143.137 127.227 146.201 128.405 147.792 130.468C148.971 132.059 149.265 134.121 148.676 136.832C148.44 137.834 148.558 138.541 148.971 138.895C149.737 139.602 151.328 139.366 151.858 139.189L152.094 140.014C152.035 140.073 151.387 140.25 150.562 140.25Z" fill="#323A50"/>
<path d="M94.1673 139.189H93.9316C93.2834 139.189 92.812 138.777 92.6941 138.129C92.0459 134.416 102.182 120.155 128.876 110.079C137.303 106.896 148.676 106.307 153.155 110.786C157.633 115.323 154.923 121.629 154.923 121.746L154.687 122.277L154.216 121.864C154.157 121.864 150.798 118.623 143.903 117.091C137.598 115.677 126.932 115.382 112.199 122.277L111.846 121.511C126.814 114.498 137.657 114.793 144.139 116.266C149.796 117.563 153.096 119.861 154.274 120.863C154.805 119.33 155.807 114.793 152.507 111.434C148.323 107.191 137.303 107.839 129.171 110.904C114.733 116.325 105.953 122.748 101.121 127.109C95.1691 132.589 93.2834 136.655 93.5191 138.011C93.578 138.305 93.6959 138.364 93.9316 138.364C96.4655 138.423 100.119 137.48 101.887 136.596L102.241 137.363C100.473 138.188 96.7602 139.189 94.1673 139.189Z" fill="#323A50"/>
<path d="M126.166 146.968C125.4 146.968 124.634 146.968 123.927 146.909C117.15 146.437 114.38 143.491 112.318 141.37C111.552 140.604 110.904 139.896 110.196 139.484C110.02 139.366 109.843 139.248 109.607 139.189L109.371 139.13L109.312 138.836C109.312 138.6 109.489 138.246 109.843 138.011C110.845 137.421 112.612 137.952 115.146 139.602C115.618 139.955 116.089 140.25 116.502 140.604C119.036 142.43 121.039 143.904 129.466 143.609L131.234 143.55C137.362 143.314 142.666 143.079 145.495 142.312L145.73 143.137C145.495 143.196 145.259 143.255 144.964 143.314C144.198 143.491 143.079 143.786 141.664 144.198C137.893 145.318 132.413 146.968 126.166 146.968ZM110.491 138.659C110.55 138.659 110.609 138.718 110.668 138.718C111.493 139.189 112.141 139.896 112.966 140.721C115.029 142.843 117.562 145.554 123.986 146.025C129.937 146.437 135.359 145.082 139.425 143.904C137.068 144.08 134.298 144.198 131.234 144.316L129.466 144.375C120.745 144.729 118.505 143.079 115.971 141.252C115.559 140.957 115.146 140.604 114.616 140.309C112.023 138.541 110.904 138.541 110.491 138.659Z" fill="#323A50"/>
<path d="M156.868 136.479C156.868 133.238 153.037 128.523 149.148 126.284C144.257 123.396 136.361 121.923 128.17 121.923C113.496 121.923 103.655 129.23 103.655 136.538C103.655 143.845 112.2 151.27 130.232 149.679C138.07 148.971 145.141 147.145 150.032 144.434C154.275 142.077 156.868 139.838 156.868 136.479Z" fill="#293C4F"/>
<path d="M123.322 134.531L110.336 137.74L110.534 138.541L123.52 135.332L123.322 134.531Z" fill="#E8E8E8"/>
<path d="M133.355 140.957C129.289 140.957 126.461 140.191 124.811 138.541C123.22 137.009 123.043 135.064 123.043 133.709C123.043 128.17 127.227 125.518 135.536 125.93C139.189 126.107 143.314 127.227 145.672 128.582C147.439 129.643 149.325 131.882 149.325 133.532C149.325 135.418 147.734 136.538 146.025 137.48C145.141 137.952 140.368 140.486 136.007 140.78C135.064 140.957 134.18 140.957 133.355 140.957ZM133.827 126.755C127.109 126.755 123.868 129.054 123.868 133.709C123.868 136.714 124.929 140.073 133.355 140.073C134.18 140.073 135.064 140.014 135.948 139.955C139.189 139.72 143.197 138.07 145.613 136.714C147.675 135.595 148.441 134.711 148.441 133.532C148.441 132.295 146.909 130.291 145.2 129.289C142.961 127.993 138.954 126.932 135.418 126.755C134.888 126.755 134.298 126.755 133.827 126.755Z" fill="#E8E8E8"/>
<path d="M169.891 135.418C169.242 132.53 167.416 130.409 169.419 129.054C173.485 126.343 183.032 124.104 189.867 124.104C202.183 124.104 206.544 134.298 204.187 140.604C201.83 146.791 199.532 150.975 186.567 149.796C178.848 149.207 170.775 139.248 169.891 135.418Z" fill="#293C4F"/>
<path d="M151.682 136.184L149.679 134.357C152.625 131.057 160.05 123.514 166.179 124.575C168.772 125.046 170.775 126.932 172.072 130.232L169.538 131.234C168.595 128.877 167.357 127.58 165.707 127.227C161.818 126.579 155.925 131.411 151.682 136.184Z" fill="#293C4F"/>
<path d="M193.874 140.486C192.814 140.486 191.576 140.427 190.28 140.25C186.567 139.779 182.678 137.363 181.912 136.891C180.498 135.948 179.201 134.888 179.319 133.238C179.378 131.764 181.146 129.879 182.737 129.054C184.74 127.993 188.335 127.227 191.399 127.227H191.576C195.76 127.286 198.706 128.17 200.298 129.879C201.417 131.057 201.889 132.648 201.771 134.652C201.535 138.541 198.942 140.486 193.874 140.486ZM191.34 128.052C188.394 128.052 185.035 128.759 183.09 129.761C181.617 130.527 180.203 132.236 180.144 133.238C180.085 134.239 180.733 135.005 182.383 136.125C184.387 137.421 187.628 139.013 190.398 139.366C191.694 139.543 192.873 139.602 193.874 139.602C199.826 139.602 200.769 136.891 200.887 134.534C201.005 132.766 200.592 131.411 199.59 130.409C198.117 128.877 195.406 128.052 191.458 128.052H191.34Z" fill="#E8E8E8"/>
<path d="M181.812 135.86L174.051 137.859L174.257 138.658L182.017 136.658L181.812 135.86Z" fill="#E8E8E8"/>
<path d="M130.291 195.702C86.2713 186.686 83.7963 158.812 82.7356 156.043C82.6766 155.984 66.7659 193.404 69.2409 202.891C70.3606 207.134 94.1677 247.205 122.63 238.189C120.391 206.486 133.65 196.409 130.291 195.702Z" fill="url(#paint3_linear_3489_27117)"/>
<path d="M128.464 202.537V201.889C129.053 201.889 129.761 201.712 130.409 201.418L130.645 202.007C129.937 202.302 129.171 202.479 128.464 202.537ZM126.284 202.243C125.695 202.066 124.987 201.889 124.221 201.654L124.398 201.064C125.164 201.3 125.871 201.536 126.461 201.654L126.284 202.243ZM132.589 201.005L132.236 200.475C132.766 200.121 133.355 199.709 133.945 199.237L134.357 199.709C133.768 200.239 133.178 200.652 132.589 201.005ZM122.218 200.946C121.57 200.711 120.921 200.475 120.214 200.239L120.45 199.65C121.157 199.886 121.805 200.121 122.453 200.357L122.218 200.946ZM118.152 199.532C117.503 199.296 116.855 199.061 116.148 198.766L116.384 198.177C117.091 198.412 117.739 198.707 118.387 198.943L118.152 199.532ZM135.889 198.295L135.418 197.823C135.889 197.352 136.361 196.821 136.891 196.291L137.362 196.704C136.891 197.293 136.361 197.823 135.889 198.295ZM114.203 198C113.555 197.764 112.907 197.47 112.2 197.175L112.436 196.586C113.084 196.88 113.732 197.116 114.439 197.352L114.203 198ZM110.255 196.35C109.607 196.055 108.959 195.82 108.311 195.525L108.546 194.936C109.195 195.23 109.843 195.525 110.491 195.761L110.255 196.35ZM138.777 195.112L138.305 194.7C138.718 194.17 139.189 193.639 139.602 193.05L140.132 193.404C139.661 194.052 139.189 194.582 138.777 195.112ZM106.307 194.641C105.659 194.346 105.011 194.052 104.362 193.757L104.657 193.168C105.305 193.462 105.953 193.757 106.602 194.052L106.307 194.641ZM102.477 192.873C101.828 192.579 101.18 192.225 100.591 191.93L100.886 191.341C101.475 191.636 102.123 191.989 102.771 192.284L102.477 192.873ZM141.428 191.754L140.898 191.4C141.311 190.87 141.723 190.28 142.136 189.691L142.666 190.045C142.253 190.634 141.841 191.223 141.428 191.754ZM98.6463 190.929C97.9981 190.575 97.3499 190.221 96.7606 189.927L97.0552 189.396C97.6445 189.691 98.2927 190.045 98.941 190.398L98.6463 190.929ZM204.423 189.279C204.423 189.279 203.657 189.22 202.478 189.043L202.596 188.395C203.716 188.571 204.482 188.63 204.482 188.63L204.423 189.279ZM94.8749 188.866C94.2267 188.512 93.6374 188.1 93.0481 187.746L93.4017 187.216C93.991 187.57 94.5803 187.923 95.2285 188.277L94.8749 188.866ZM200.357 188.571C199.65 188.395 198.943 188.159 198.295 187.923L198.53 187.334C199.178 187.57 199.827 187.805 200.534 187.923L200.357 188.571ZM143.845 188.159L143.255 187.864C143.55 187.275 143.786 186.627 144.08 185.92L144.67 186.155C144.375 186.921 144.08 187.57 143.845 188.159ZM196.291 187.039C195.702 186.686 195.171 186.155 194.641 185.566L195.112 185.154C195.584 185.684 196.114 186.155 196.586 186.509L196.291 187.039ZM91.2802 186.627C90.691 186.214 90.0427 185.802 89.5124 185.389L89.866 184.859C90.3963 185.271 90.9856 185.684 91.6338 186.096L91.2802 186.627ZM145.318 184.093L144.728 183.916C144.905 183.268 145.082 182.62 145.259 181.854L145.848 182.03C145.612 182.796 145.495 183.445 145.318 184.093ZM87.8035 184.093C87.2731 183.621 86.7427 183.209 86.3302 182.796L86.2124 182.679L86.6838 182.207L86.8017 182.325C87.2731 182.737 87.7445 183.15 88.2749 183.621L87.8035 184.093ZM193.403 183.798C193.05 183.209 192.696 182.561 192.402 181.912L192.991 181.618C193.286 182.325 193.639 182.914 193.993 183.445L193.403 183.798ZM84.6802 181.087C84.2088 180.557 83.7963 179.968 83.3838 179.32L83.9142 178.966C84.2677 179.555 84.6802 180.086 85.1517 180.675L84.6802 181.087ZM146.261 179.909L145.671 179.791C145.789 179.143 145.907 178.436 146.025 177.729L146.673 177.846C146.496 178.612 146.378 179.261 146.261 179.909ZM191.577 179.909C191.341 179.32 191.105 178.612 190.87 177.905L191.459 177.67C191.695 178.377 191.93 179.025 192.166 179.673L191.577 179.909ZM82.3231 177.493C82.0285 176.904 81.7338 176.196 81.4392 175.548L82.0285 175.312C82.3231 175.961 82.5588 176.609 82.9124 177.198L82.3231 177.493ZM190.162 175.843C189.986 175.195 189.809 174.546 189.573 173.78L190.162 173.604C190.398 174.37 190.575 175.018 190.752 175.666L190.162 175.843ZM146.968 175.725L146.32 175.607C146.437 174.9 146.555 174.252 146.614 173.545L146.909 173.604L147.203 173.662C147.145 174.311 147.086 175.018 146.968 175.725ZM80.732 173.486C80.4963 172.837 80.3195 172.13 80.1427 171.423L80.732 171.246C80.9088 171.954 81.0856 172.602 81.2624 173.25L80.732 173.486ZM188.984 171.718C188.866 171.246 188.689 170.716 188.571 170.245L188.395 169.655L188.984 169.479L189.161 170.068C189.278 170.539 189.455 171.07 189.573 171.541L188.984 171.718ZM147.616 171.482L146.968 171.364C147.086 170.657 147.203 169.95 147.321 169.243L147.97 169.361C147.852 170.068 147.734 170.775 147.616 171.482ZM79.7302 169.302C79.6124 168.595 79.4945 167.887 79.4356 167.18L80.0838 167.121C80.1427 167.829 80.2606 168.536 80.3785 169.184L79.7302 169.302ZM187.864 167.593C187.628 166.827 187.452 166.12 187.275 165.53L187.864 165.354C188.041 165.943 188.218 166.65 188.453 167.416L187.864 167.593ZM148.382 167.357L147.793 167.239C147.97 166.473 148.087 165.766 148.264 165.177L148.853 165.354C148.677 165.884 148.5 166.591 148.382 167.357ZM79.1999 165.059C79.141 164.352 79.141 163.645 79.082 162.937H79.7302C79.7302 163.645 79.7892 164.352 79.7892 165.059H79.1999ZM186.627 163.527C186.391 162.761 186.096 162.171 185.861 161.582L186.45 161.346C186.686 161.936 186.98 162.584 187.216 163.35L186.627 163.527ZM149.384 163.232L148.795 163.055C149.03 162.289 149.266 161.582 149.561 161.052L150.15 161.287C149.855 161.818 149.62 162.466 149.384 163.232ZM79.7302 160.757H79.082C79.082 160.05 79.141 159.343 79.141 158.636L79.7892 158.695C79.7892 159.402 79.7302 160.109 79.7302 160.757ZM184.918 159.755C184.446 159.048 184.034 158.636 183.562 158.341L183.857 157.811C184.387 158.105 184.918 158.636 185.448 159.402L184.918 159.755ZM151.152 159.52L150.68 159.107C151.034 158.636 151.446 158.282 151.859 158.046C152.036 157.929 152.212 157.811 152.389 157.752L152.684 158.282C152.507 158.4 152.33 158.459 152.153 158.577C151.8 158.812 151.446 159.107 151.152 159.52ZM154.57 157.339L154.334 156.75C154.923 156.455 155.63 156.22 156.337 155.925L156.573 156.514C155.807 156.75 155.159 157.045 154.57 157.339ZM182.03 156.75L180.852 154.982L181.382 154.629L182.561 156.396L182.03 156.75ZM79.966 156.573L79.3178 156.514C79.3767 155.807 79.4945 155.1 79.5535 154.393L80.2017 154.452C80.1428 155.159 80.0249 155.866 79.966 156.573ZM158.518 155.807L158.341 155.218C159.225 154.923 159.932 154.746 160.403 154.629L160.58 155.218C160.05 155.336 159.343 155.512 158.518 155.807ZM162.525 154.334L162.23 153.745C162.878 153.391 163.527 153.096 164.116 152.743L164.411 153.332C163.762 153.686 163.173 153.98 162.525 154.334ZM179.673 153.214L179.202 152.566C179.084 152.507 178.73 152.212 178.2 151.918L178.495 151.387C179.202 151.741 179.555 152.095 179.614 152.095L179.673 152.154L180.145 152.92L179.673 153.214ZM166.355 152.448L166.12 151.859C166.827 151.564 167.475 151.27 168.123 151.034L168.359 151.623C167.711 151.859 167.003 152.154 166.355 152.448ZM80.4963 152.33L79.8481 152.271L79.907 151.918C79.966 151.329 80.0249 150.739 80.1427 150.15L80.791 150.209C80.732 150.798 80.6142 151.387 80.5552 151.977L80.4963 152.33ZM176.373 151.093C175.725 150.857 175.018 150.68 174.37 150.621L174.428 149.973C175.136 150.091 175.843 150.268 176.55 150.504L176.373 151.093ZM170.303 150.975L170.127 150.386C170.952 150.15 171.659 150.032 172.248 149.914L172.307 150.562C171.718 150.621 171.07 150.739 170.303 150.975ZM81.0267 148.146L80.3785 148.029C80.4963 147.262 80.6142 146.555 80.732 145.907L81.3213 146.025C81.2624 146.673 81.1445 147.38 81.0267 148.146ZM81.9106 144.021L81.3213 143.845C81.557 143.137 81.7927 142.43 82.0285 141.782L82.6177 142.018C82.3231 142.666 82.0874 143.314 81.9106 144.021ZM83.5606 140.25L83.0302 139.896C83.4427 139.248 83.9142 138.659 84.3856 138.187L84.857 138.659C84.3856 139.071 83.9731 139.602 83.5606 140.25ZM86.4481 137.304L86.0945 136.773C86.1535 136.714 86.2713 136.655 86.3302 136.596C86.8606 136.302 87.391 136.007 87.9213 135.654L88.216 136.184C87.6856 136.479 87.1552 136.773 86.6249 137.127C86.6249 137.245 86.507 137.304 86.4481 137.304ZM90.1606 135.241L89.866 134.711C90.4552 134.357 91.1035 134.004 91.7517 133.709L92.0463 134.298C91.3392 134.593 90.7499 134.887 90.1606 135.241ZM93.8731 133.237L93.5785 132.648C94.757 132.059 95.4642 131.705 95.4642 131.705L95.7588 132.295C95.8177 132.295 95.0517 132.648 93.8731 133.237Z" fill="#323A50"/>
<path opacity="0.6" d="M104.127 177.552L90.9269 180.793C90.9269 180.793 86.0948 165.766 85.918 142.077L98.1751 140.721C99.5305 165.884 104.127 177.552 104.127 177.552Z" fill="#293C4F"/>
<path opacity="0.6" d="M142.901 150.327L144.728 161.818C144.728 161.818 125.989 168.005 107.309 161.405L107.898 149.502C126.637 156.455 142.901 150.327 142.901 150.327Z" fill="#293C4F"/>
</g>
<defs>
<linearGradient id="paint0_linear_3489_27117" x1="30.8299" y1="384.777" x2="152.43" y2="32.2729" gradientUnits="userSpaceOnUse">
<stop offset="0.37" stop-color="#DBDBDB" stop-opacity="0"/>
<stop offset="0.57" stop-color="#DBDBDB"/>
</linearGradient>
<linearGradient id="paint1_linear_3489_27117" x1="-20.3481" y1="241.291" x2="47.7481" y2="218.699" gradientUnits="userSpaceOnUse">
<stop offset="0.37" stop-color="#DBDBDB" stop-opacity="0"/>
<stop offset="0.94" stop-color="#DBDBDB"/>
</linearGradient>
<linearGradient id="paint2_linear_3489_27117" x1="53.9376" y1="306.244" x2="135.41" y2="227.318" gradientUnits="userSpaceOnUse">
<stop offset="0.37" stop-color="#DBDBDB" stop-opacity="0"/>
<stop offset="0.94" stop-color="#DBDBDB"/>
</linearGradient>
<linearGradient id="paint3_linear_3489_27117" x1="97.5731" y1="244.358" x2="101.527" y2="168.597" gradientUnits="userSpaceOnUse">
<stop offset="0.56" stop-color="#DBDBDB" stop-opacity="0"/>
<stop offset="0.94" stop-color="#DBDBDB"/>
</linearGradient>
<clipPath id="clip0_3489_27117">
<rect width="330" height="330" fill="white"/>
</clipPath>
</defs>
</svg>
