<svg width="330" height="330" viewBox="0 0 330 330" fill="none" xmlns="http://www.w3.org/2000/svg">
<g clip-path="url(#clip0_3632_75848)">
<path d="M250.391 192.609C250.391 192.222 250.447 191.724 250.447 191.336C247.675 191.225 244.959 191.225 242.409 191.225C237.364 191.225 232.541 191.225 230.989 190.118C230.712 189.896 230.268 190.007 230.047 190.284C229.825 190.561 229.936 191.004 230.213 191.225C232.098 192.554 236.643 192.554 242.409 192.554C244.959 192.499 247.675 192.499 250.391 192.609Z" fill="#323A50"/>
<path d="M251.5 217.47C251.5 216.972 251.5 216.529 251.5 216.031C247.176 214.37 242.575 212.099 238.639 210.051C233.151 207.227 228.772 205.012 226.61 205.289C226.277 205.344 226 205.621 226 206.064C226 206.507 226.333 206.673 226.776 206.673C228.55 206.452 233.151 208.777 238.029 211.324C242.131 213.373 246.954 215.754 251.5 217.47Z" fill="#323A50"/>
<path opacity="0.19" d="M251.389 216.585C251.389 216.363 251.389 216.031 251.389 215.81C251.333 212.377 251.278 208.999 251.056 205.566C250.668 201.026 250.225 196.486 250.446 191.945C241.688 191.613 232.707 192.555 230.545 190.506C229.492 196.375 228.494 200.86 226.665 205.732C229.769 205.013 241.355 212.709 251.389 216.585Z" fill="url(#paint0_linear_3632_75848)"/>
<path opacity="0.16" d="M251.056 205.566C250.723 201.524 250.335 197.371 250.391 193.329C250.169 193.329 249.836 193.274 249.615 193.274C244.515 192.886 235.479 193.772 230.656 192.277C229.159 198.866 228.882 199.974 227.33 204.348C234.148 206.175 241.688 211.158 248.783 213.927C249.725 214.259 250.612 214.646 251.389 214.923C251.333 211.823 251.278 208.722 251.056 205.566Z" fill="url(#paint1_linear_3632_75848)"/>
<path d="M251.111 206.949C251.111 206.672 251.056 206.34 251.056 206.063C250.391 205.786 249.781 205.51 249.116 205.177C247.674 204.458 246.399 203.959 245.235 203.406C246.455 203.461 247.841 203.793 249.393 204.568C249.892 204.79 250.335 205.067 250.889 205.288C250.945 205.343 251 205.343 251.056 205.399C251.056 205.067 251 204.679 250.945 204.347C249.947 203.627 248.949 202.852 248.062 202.132C245.401 199.751 243.129 200.36 241.133 200.914C240.357 201.08 239.581 201.301 238.86 201.301C238.361 201.191 237.918 201.08 237.419 200.969C236.865 200.859 236.477 200.748 236.089 200.582C235.368 200.194 235.035 199.64 234.536 199.031C233.649 197.924 232.762 196.761 229.658 196.484C229.603 196.761 229.547 197.038 229.492 197.315C232.374 197.481 233.151 198.422 233.982 199.474L234.037 199.53C233.705 199.364 233.261 199.142 232.984 198.921C231.765 198.201 230.822 197.647 229.436 197.703C229.381 197.979 229.326 198.312 229.215 198.533C230.434 198.422 231.321 198.921 232.596 199.64C233.428 200.194 234.481 200.692 235.756 201.246C236.255 201.523 236.754 201.8 237.53 201.966C237.918 202.077 238.361 202.077 238.749 202.077C239.47 202.243 240.08 202.409 240.8 202.686C240.135 202.686 239.525 202.63 238.805 202.464C236.865 201.911 235.146 201.191 233.705 200.471C231.986 199.64 230.545 198.921 229.159 198.865C229.104 199.142 228.993 199.474 228.938 199.696C230.212 199.696 231.709 200.416 233.372 201.246C234.924 201.966 236.698 202.796 238.694 203.295C239.969 203.627 241.244 203.572 242.519 203.461C242.685 203.461 242.851 203.461 243.073 203.461C244.847 204.125 246.787 204.956 248.894 205.953C249.614 206.285 250.335 206.617 251.111 206.949ZM243.073 202.575C242.242 202.298 241.466 201.966 240.634 201.744C240.856 201.689 241.133 201.634 241.355 201.578C243.35 201.08 245.235 200.582 247.619 202.686C247.785 202.852 248.007 203.018 248.229 203.239C246.178 202.575 244.515 202.52 243.073 202.575Z" fill="#323A50"/>
<path d="M222.87 195.233L215.719 171.313L267.106 177.459V208.798L222.87 195.233Z" fill="url(#paint2_linear_3632_75848)"/>
<path d="M98.0877 111.238C91.6019 117.495 91.7127 117.55 88.553 120.374C82.677 125.579 62.9978 141.193 62.7761 164.891V165.112C62.9424 188.755 82.6215 204.424 88.553 209.629C91.8791 212.564 91.7682 212.508 98.9192 219.374C113.886 236.04 135.506 246.56 159.675 246.56C194.82 246.56 224.644 224.468 236.23 193.406C236.285 193.406 236.396 193.074 236.452 193.074C237.283 191.08 239.5 184.491 240.277 178.678C240.997 174.414 241.33 169.431 241.33 164.946C241.33 119.876 204.743 83.332 159.62 83.332C135.118 83.3874 113.055 94.129 98.0877 111.238Z" fill="white"/>
<path d="M241.773 165.002C241.773 169.653 241.441 174.636 240.72 178.844C239.944 184.658 237.782 191.247 236.895 193.296L236.784 193.517H236.729C236.729 193.572 236.673 193.628 236.618 193.683C230.853 209.187 220.597 222.42 207.016 231.999C193.102 241.854 176.804 247.004 159.675 247.004C147.812 247.004 136.393 244.512 125.694 239.64C115.383 234.933 106.237 228.234 98.642 219.762C97.5888 218.71 96.6464 217.879 95.8703 217.104C91.4356 212.841 91.103 212.509 88.3313 210.017C88.0541 209.74 87.6106 209.408 87.2226 209.076C83.8411 206.197 77.6325 200.715 72.3108 193.351C65.825 184.326 62.5543 174.858 62.4435 165.223V165.002C62.4989 155.368 65.8804 145.9 72.3108 136.874C77.6325 129.51 83.8411 124.029 87.2226 121.15C87.6106 120.817 87.9987 120.485 88.3313 120.208C90.4378 118.326 91.1584 117.661 93.1541 115.668C94.2073 114.671 95.6486 113.176 97.8105 111.128C105.405 102.435 114.663 95.5137 125.084 90.6412C135.949 85.658 147.535 83.0557 159.62 83.0557C170.707 83.0557 181.461 85.2151 191.605 89.4785C201.362 93.5758 210.176 99.5557 217.715 107.086C225.254 114.616 231.185 123.364 235.343 133.165C239.556 143.187 241.773 153.873 241.773 165.002ZM236.174 192.853C236.95 190.97 239.168 184.381 239.944 178.623C240.609 174.581 240.997 169.542 240.997 164.947C240.997 120.153 204.521 83.7201 159.675 83.7201C136.226 83.7201 113.886 93.8526 98.4757 111.515C96.3138 113.619 94.8171 115.059 93.8193 116.056C91.7682 118.049 91.0476 118.769 88.941 120.651C88.6639 120.928 88.2204 121.26 87.8324 121.593C81.1803 127.351 63.4967 142.688 63.3304 164.836V165.057C63.4967 187.26 81.1803 202.542 87.8324 208.301C88.2204 208.633 88.6084 208.965 88.941 209.242C91.7682 211.789 92.1008 212.121 96.5355 216.44C97.3116 217.215 98.254 218.101 99.3073 219.153C114.663 236.262 136.725 246.118 159.786 246.118C193.545 246.118 224.201 224.856 235.953 193.185L236.008 192.963H236.064C236.064 193.019 236.119 192.908 236.174 192.853Z" fill="#323A50"/>
<path d="M242.106 165.002C242.106 176.131 239.944 186.817 235.62 197.005C231.518 206.75 225.531 215.609 217.937 223.139C210.397 230.669 201.528 236.594 191.772 240.802C181.627 245.121 170.873 247.28 159.731 247.28C147.812 247.28 136.337 244.789 125.639 239.916C115.272 235.21 106.126 228.51 98.5312 219.983C91.8236 213.45 91.5464 213.228 88.6084 210.681L88.1095 210.294C87.7769 210.017 87.3334 209.629 86.9454 209.297C83.2867 206.196 77.2999 200.936 71.9227 193.517C65.4369 184.492 62.0554 175.023 62 165.334V165.112C62.0554 155.478 65.4369 146.01 71.9227 136.93C77.2444 129.565 83.2867 124.25 86.9454 121.149C87.3334 120.817 87.7769 120.43 88.1095 120.153C91.2693 117.329 91.3247 117.273 97.7551 111.072C105.405 102.379 114.607 95.4581 125.084 90.5856C136.005 85.6024 147.59 83 159.675 83C170.817 83 181.516 85.1594 191.716 89.4782C201.473 93.5755 210.342 99.5554 217.881 107.141C225.42 114.671 231.352 123.53 235.565 133.275C239.944 143.131 242.106 153.873 242.106 165.002ZM63.2196 164.946V165.168C63.3859 187.094 81.0694 202.431 87.7215 208.19C88.1095 208.522 88.553 208.909 88.8856 209.242L89.3845 209.629C92.2117 212.176 92.5443 212.453 99.3627 218.987V219.042C114.718 236.096 136.781 245.951 159.786 245.951C204.521 245.951 240.886 209.629 240.886 164.946C240.886 120.263 204.521 83.9413 159.786 83.9413C136.393 83.9413 114.108 94.0185 98.7529 111.626L98.6975 111.681C92.2117 117.938 92.1562 117.993 88.9965 120.817C88.6639 121.094 88.2204 121.482 87.8324 121.869C81.1248 127.628 63.3859 142.909 63.2196 164.946Z" fill="#323A50"/>
<path opacity="0.83" d="M98.6975 121.592C96.591 119.599 94.5399 118.99 91.1584 121.925C85.4487 126.963 66.2684 142.134 66.1021 164.946V165.168C66.2684 188.091 85.4487 203.207 91.1584 208.19C94.5953 211.18 97.0344 209.629 98.4757 208.965C102.134 207.027 102.855 204.203 102.301 203.428C98.9746 198.057 90.4378 195.344 88.4421 189.309C88.3867 189.143 84.2846 180.339 84.0628 165.722C84.0628 165.666 84.0074 155.755 86.89 146.398C89.1628 137.76 98.4757 132.279 101.802 126.853C102.855 125.247 100.305 123.143 98.6975 121.592Z" fill="url(#paint3_linear_3632_75848)"/>
<path d="M234.4 165.224C234.4 206.64 200.807 240.193 159.342 240.193C134.951 240.193 113.277 228.566 99.5289 210.516" fill="white"/>
<path d="M234.789 165.279C234.789 175.522 232.793 185.267 228.913 194.569C225.143 203.539 219.655 211.568 212.726 218.544C205.796 225.465 197.703 230.891 188.723 234.712C179.41 238.643 169.487 240.636 159.343 240.636C147.313 240.636 135.894 237.923 125.251 232.497C115.106 227.403 106.126 219.818 99.1964 210.792L99.8616 210.294C114.108 229.009 135.783 239.806 159.343 239.806C200.53 239.806 234.012 206.308 234.012 165.224L234.789 165.279Z" fill="#323A50"/>
<path d="M159.287 233.992C197.311 233.992 228.136 203.203 228.136 165.224C228.136 127.244 197.311 96.4551 159.287 96.4551C121.263 96.4551 90.4377 127.244 90.4377 165.224C90.4377 203.203 121.263 233.992 159.287 233.992Z" fill="white"/>
<path d="M228.469 165.223C228.469 183.661 221.263 200.991 208.18 214.058C195.098 227.125 177.747 234.323 159.287 234.323C140.828 234.323 123.477 227.125 110.394 214.058C97.3117 200.991 90.1052 183.661 90.1052 165.223C90.1052 146.729 97.3117 129.454 110.394 116.387C123.477 103.32 140.828 96.1221 159.287 96.1221C177.747 96.1221 195.098 103.32 208.18 116.387C221.318 129.454 228.469 146.84 228.469 165.223ZM90.7704 165.223C90.7704 202.984 121.536 233.659 159.287 233.659C197.093 233.659 227.804 202.929 227.804 165.223C227.804 127.516 197.038 96.7865 159.287 96.7865C121.536 96.7865 90.7704 127.461 90.7704 165.223Z" fill="#323A50"/>
<g opacity="0.1">
<path d="M186.782 105.425L186.727 105.923C189 106.2 192.215 113.01 192.437 114.45C192.548 115.059 192.381 115.391 192.27 115.723C192.104 116.277 191.882 116.72 192.381 117.606C193.324 119.156 199.033 124.361 201.861 125.468C204.688 126.576 206.24 127.351 207.293 130.009C207.903 131.448 207.903 133.663 207.903 135.933C207.903 138.037 207.903 140.307 208.402 141.913C209.122 144.46 210.231 146.896 210.896 148.114C210.176 147.45 209.455 146.896 208.79 146.287C207.57 145.235 206.517 144.349 206.018 143.685C205.408 142.91 205.187 140.141 204.854 137.262C204.466 133.386 203.967 128.901 202.692 127.572C201.195 126.022 195.707 123.807 191.217 122.036C188.834 121.094 186.782 120.264 185.951 119.821C185.064 119.267 184.122 117.827 183.068 116.277C181.294 113.619 179.299 110.63 176.86 110.685V111.183C179.022 111.128 180.906 114.007 182.625 116.609C183.734 118.326 184.676 119.71 185.674 120.319C186.561 120.873 188.556 121.593 190.995 122.534C195.43 124.306 200.918 126.465 202.304 127.96C202.803 128.514 203.191 129.51 203.413 130.784C202.914 129.953 202.249 128.957 201.362 128.182C199.754 126.908 195.874 125.801 193.823 125.247C193.49 125.136 193.157 125.081 192.936 125.025C192.27 124.859 191.882 125.081 191.439 125.302C191.051 125.579 190.497 125.911 189.388 125.635C188.168 125.413 187.614 124.693 187.004 123.918C186.672 123.364 186.228 122.866 185.674 122.423C184.066 121.482 182.514 122.091 181.682 122.368H181.516C180.906 122.589 180.962 123.143 180.962 123.475C180.962 123.807 181.017 124.14 180.796 124.25C180.574 124.361 180.075 124.084 179.631 123.697C178.911 123.198 178.135 122.645 177.414 122.977L177.58 123.364C178.135 123.143 178.744 123.586 179.354 124.029C180.019 124.416 180.518 124.859 181.073 124.583C181.627 124.306 181.461 123.752 181.461 123.42C181.405 123.032 181.405 122.811 181.627 122.7H181.682C182.514 122.423 183.9 121.869 185.286 122.7C185.84 123.032 186.173 123.531 186.505 123.973C187.115 124.804 187.669 125.635 189.166 125.856C190.441 126.078 191.106 125.745 191.605 125.468C191.938 125.247 192.215 125.136 192.658 125.247C192.825 125.302 193.213 125.358 193.545 125.468C195.43 126.022 199.366 127.074 200.918 128.292C202.637 129.621 203.579 132.113 203.634 132.279C203.856 133.829 204.022 135.49 204.244 137.096C204.577 140.141 204.909 142.799 205.464 143.685C205.963 144.349 207.071 145.291 208.291 146.343C210.785 148.447 214.112 151.27 214.001 153.264C213.945 154.26 213.723 155.368 213.446 156.586C212.947 158.967 212.393 161.624 212.892 164.559C214.001 170.484 215.165 172.532 216.606 173.75C217.936 174.858 219.655 175.522 219.71 175.522L219.877 175.135C219.877 175.135 218.158 174.525 216.883 173.418C215.608 172.311 214.444 170.373 213.335 164.504C212.781 161.68 213.335 159.077 213.89 156.752C214.112 155.589 214.389 154.482 214.5 153.319C214.61 151.824 213.169 150.108 211.395 148.391L211.562 148.336C211.562 148.281 209.677 145.014 208.79 141.581C208.402 139.92 208.402 137.76 208.402 135.712C208.402 133.331 208.402 131.116 207.792 129.566C206.683 126.742 205.02 125.911 202.138 124.804C199.477 123.697 193.767 118.492 192.88 117.108C192.492 116.388 192.603 116.056 192.769 115.557C192.936 115.225 193.102 114.727 192.991 114.007C192.658 112.734 189.443 105.812 186.782 105.425Z" fill="#323A50"/>
<path d="M197.592 160.407C198.424 161.182 199.754 161.071 201.362 160.96C202.914 160.85 204.521 160.683 205.963 161.293C208.734 162.566 210.841 168.601 210.841 168.657L211.229 168.546C211.174 168.324 209.067 162.345 206.129 160.96C204.577 160.24 202.803 160.351 201.306 160.573C199.81 160.683 198.535 160.794 197.869 160.185C197.149 159.465 196.65 157.029 196.095 154.759C195.486 152.212 195.042 150.053 194.266 149.444C193.545 148.89 192.936 148.779 192.326 148.724C191.661 148.613 191.217 148.558 190.774 147.949C190.607 147.672 190.663 146.121 190.774 144.516C190.996 140.031 191.439 133.276 188.057 130.84C185.397 128.902 183.456 129.566 181.683 130.12C180.352 130.618 179.077 131.006 177.691 130.12C176.583 129.455 176.139 128.293 175.751 126.964C174.92 124.361 173.866 121.15 167.159 119.101C165.551 118.603 163.999 118.88 162.391 119.101C160.34 119.378 158.4 119.766 156.571 118.492L156.349 118.824C158.345 120.153 160.451 119.821 162.558 119.544C164.165 119.323 165.607 119.046 167.103 119.544C173.589 121.537 174.587 124.638 175.418 127.13C175.917 128.625 176.305 129.843 177.58 130.618C179.243 131.559 180.629 131.116 182.015 130.618C183.734 130.009 185.508 129.511 187.891 131.282C190.996 133.553 190.663 140.474 190.441 144.571C190.386 146.177 190.33 147.173 190.386 147.727C189.721 147.506 188.834 147.34 187.836 147.118C186.062 146.841 184.066 146.454 183.013 145.457C182.459 144.903 182.237 144.239 181.96 143.298C181.295 141.027 180.352 137.871 173.922 135.435H173.866C171.649 134.937 170.097 135.491 169.154 136.044C168.766 136.266 168.489 136.764 168.323 137.152C168.101 137.705 167.769 138.259 167.159 138.757C165.995 139.588 159.121 139.865 157.846 139.643C157.735 139.643 157.68 139.588 157.68 139.588C157.624 139.532 157.735 139.256 157.79 138.979C158.012 138.259 158.511 137.096 157.458 135.601L157.125 135.823C158.068 137.041 157.735 138.037 157.402 138.757C157.291 139.09 157.181 139.477 157.291 139.699C157.347 139.809 157.513 139.92 157.79 139.975C159.065 140.197 166.05 139.975 167.436 139.034C168.212 138.48 168.545 137.816 168.766 137.262C168.933 136.875 169.099 136.487 169.432 136.321C170.263 135.823 171.704 135.38 173.811 135.767C180.02 138.204 180.906 141.194 181.516 143.353C181.793 144.35 182.071 145.18 182.68 145.789C183.845 146.897 185.896 147.284 187.725 147.561C188.889 147.727 190.109 147.949 190.552 148.336C191.051 149.001 191.661 149.111 192.326 149.222C192.936 149.333 193.435 149.388 194.044 149.886C194.71 150.385 195.209 152.766 195.707 154.87C196.317 157.306 196.872 159.631 197.592 160.407Z" fill="#323A50"/>
<path d="M151.582 159.687C152.247 159.078 152.69 158.635 154.132 158.911C155.074 159.078 156.404 159.631 157.846 160.13C160.396 161.126 162.946 162.123 164.165 161.68C164.775 161.458 165.163 161.071 165.496 160.739C166.327 160.019 167.214 159.244 169.875 159.687C171.982 159.963 173.589 161.126 174.864 161.957C175.973 162.732 176.971 163.452 177.968 163.286C178.744 163.23 179.188 162.787 179.742 162.4C180.629 161.68 181.572 160.905 183.844 161.901C185.618 162.677 186.062 163.729 186.45 164.559C186.838 165.445 187.226 166.276 188.944 165.999C190.774 165.722 191.938 164.504 193.047 163.452C193.878 162.621 194.765 161.791 195.818 161.292L195.652 160.905C194.488 161.514 193.601 162.344 192.714 163.119C191.605 164.227 190.552 165.279 188.834 165.556C187.503 165.777 187.226 165.334 186.893 164.448C186.561 163.562 186.006 162.4 184.066 161.569C181.461 160.517 180.408 161.348 179.465 162.178C178.911 162.566 178.523 162.953 177.913 163.009C177.137 163.064 176.25 162.455 175.141 161.735C173.811 160.794 172.148 159.687 169.875 159.299C167.048 158.911 166.05 159.687 165.163 160.462C164.83 160.794 164.387 161.126 163.944 161.292C162.946 161.68 160.285 160.628 158.012 159.742C156.571 159.133 155.24 158.69 154.243 158.468C152.58 158.136 152.025 158.69 151.305 159.354C150.917 159.742 150.418 160.24 149.531 160.406L149.642 160.794C150.528 160.683 151.083 160.185 151.582 159.687Z" fill="#323A50"/>
<path d="M214.61 157.416C213.834 159.022 213.502 162.953 213.945 165.389C214.333 167.659 215.276 171.812 216.994 173.418C217.992 174.304 219.877 175.189 219.988 175.189L220.154 174.802C220.154 174.802 218.214 173.971 217.271 173.085C215.553 171.535 214.666 167.161 214.333 165.334C213.834 162.731 214.333 159.022 214.998 157.693C215.719 156.198 216.772 155.755 217.271 155.7C218.934 155.533 220.32 158.191 220.32 158.247L220.708 158.08C220.653 157.97 219.101 155.09 217.16 155.312C216.495 155.257 215.331 155.866 214.61 157.416Z" fill="#323A50"/>
<path d="M186.339 156.254C186.616 155.423 187.004 154.593 187.78 154.15C188.667 153.485 190.885 152.267 192.88 153.984C193.712 154.703 194.377 156.475 194.931 158.081C195.541 159.742 196.095 161.292 196.871 161.791C197.703 162.344 199.033 162.178 200.696 162.067C202.193 161.957 203.634 161.901 204.799 162.178C207.238 162.898 210.065 168.878 210.12 168.933L210.508 168.767C210.397 168.546 207.57 162.51 204.909 161.791C203.69 161.458 202.027 161.569 200.586 161.68C199.089 161.791 197.703 161.846 197.038 161.458C196.373 161.071 195.874 159.465 195.264 157.915C194.599 156.143 193.989 154.371 193.102 153.596C191.494 152.267 189.443 152.322 187.392 153.762C186.561 154.371 186.173 155.312 185.84 156.143C185.507 156.974 185.175 157.749 184.51 158.081C182.957 158.801 181.35 158.247 180.685 157.306C180.518 157.084 180.408 156.752 180.186 156.531C179.631 155.7 179.188 154.814 178.079 153.762C176.527 152.322 170.429 149.776 167.436 149.277C165.662 149 164.886 149.443 164.054 149.997C163.389 150.385 162.779 150.828 161.504 150.938L161.56 151.437C162.89 151.326 163.611 150.828 164.332 150.44C165.108 149.942 165.828 149.554 167.325 149.776C170.208 150.274 176.25 152.765 177.691 154.15C178.744 155.146 179.299 155.977 179.742 156.807C179.909 157.029 180.019 157.361 180.241 157.583C180.962 158.69 182.902 159.354 184.676 158.524C185.674 157.97 186.006 157.14 186.339 156.254Z" fill="#323A50"/>
</g>
<g opacity="0.1">
<path d="M212.837 176.076C211.617 176.242 210.675 177.682 209.677 179.066C208.901 180.173 207.958 181.834 207.127 183.329C206.406 184.603 205.796 185.766 205.408 186.209C205.353 186.319 205.187 186.43 205.076 186.541C203.967 187.261 201.251 187.759 199.144 187.593C197.925 187.537 196.982 187.648 196.206 187.704C195.375 187.814 194.765 187.87 194.266 187.648C193.878 187.482 193.767 187.15 193.712 186.707C193.656 186.209 193.545 185.655 192.769 185.378C192.104 185.157 191.439 185.267 190.718 185.323C189.998 185.433 189.443 185.489 189 185.212C188.667 184.935 188.446 184.603 188.335 184.271C188.168 183.883 188.002 183.385 187.392 183.052C186.838 182.72 186.228 183.163 185.341 183.772C184.122 184.658 182.403 185.821 180.297 185.323C178.024 184.769 178.135 184.104 178.246 183.108C178.301 182.61 178.412 182.111 178.19 181.502C177.858 180.561 175.807 179.73 173.7 178.844C172.037 178.125 170.374 177.516 169.93 176.851C169.376 176.131 169.265 175.578 169.154 174.969C169.044 174.36 168.988 173.861 168.378 173.418C167.713 172.865 166.826 173.197 166.106 173.418C165.607 173.529 165.163 173.695 164.941 173.584L164.72 173.917C165.052 174.083 165.607 173.972 166.272 173.806C166.937 173.64 167.713 173.418 168.157 173.75C168.545 174.027 168.655 174.47 168.766 174.969C168.877 175.578 168.988 176.187 169.598 177.017C170.152 177.737 171.76 178.457 173.589 179.121C175.474 179.896 177.525 180.782 177.858 181.558C178.024 182.056 177.968 182.499 177.913 182.886C177.802 183.883 177.636 184.935 180.352 185.599C182.625 186.153 184.454 184.88 185.785 183.994C186.505 183.495 187.06 183.108 187.392 183.274C187.891 183.551 188.002 183.938 188.168 184.326C188.279 184.658 188.446 185.157 189 185.489C189.61 185.876 190.275 185.766 191.051 185.655C191.716 185.544 192.326 185.489 192.88 185.655C193.435 185.821 193.49 186.264 193.545 186.651C193.601 187.039 193.656 187.648 194.377 187.925C195.042 188.146 195.652 188.091 196.539 187.98C197.315 187.87 198.202 187.814 199.366 187.87C200.641 187.98 202.304 187.814 203.745 187.482C202.138 188.479 199.643 189.752 197.149 189.974C195.098 190.14 194.377 189.752 193.268 189.198C192.27 188.645 190.995 188.036 188.057 187.482C183.955 186.762 180.186 188.534 178.135 189.752C177.802 189.641 175.03 188.811 174.254 186.707L173.922 185.655C173.201 183.606 172.591 181.834 172.092 180.893C171.427 179.675 169.376 178.734 168.101 178.457C167.325 178.346 166.882 178.678 166.438 179.066C166.106 179.343 165.662 179.675 165.108 179.675C164.553 179.62 164.11 178.844 163.5 177.959C162.669 176.74 161.615 175.135 159.897 174.526C157.846 173.75 156.903 174.526 156.072 175.19C155.684 175.467 155.296 175.855 154.852 175.965L154.963 176.353C155.573 176.242 155.961 175.799 156.46 175.522C157.291 174.858 158.012 174.304 159.841 174.913C161.449 175.522 162.447 176.962 163.223 178.125C163.944 179.121 164.387 179.952 165.163 180.007C165.995 180.063 166.383 179.73 166.882 179.343C167.214 179.066 167.602 178.734 168.157 178.844C169.487 179.066 171.316 180.007 171.871 181.004C172.37 181.945 172.979 183.772 173.7 185.71L174.033 186.762C174.753 188.756 176.915 189.641 177.858 189.974C177.248 190.306 176.915 190.638 176.915 190.693C176.86 190.749 173.09 194.846 170.208 196.673C167.325 198.556 164.886 198.5 164.054 197.504C163.556 196.95 163.5 195.898 163.445 194.68C163.389 193.573 163.334 192.244 162.89 191.081C162.225 189.309 159.786 188.091 159.01 187.759C157.957 187.205 156.405 186.762 155.684 187.039C154.409 187.537 153.965 189.475 153.965 189.531L154.353 189.586C154.353 189.586 154.686 187.814 155.795 187.427C156.183 187.316 157.347 187.482 158.733 188.146C160.229 188.811 161.893 189.974 162.391 191.192C162.779 192.244 162.779 193.462 162.946 194.625C163.001 195.898 163.057 197.061 163.611 197.67C164.553 198.777 167.103 198.999 170.319 196.895C173.146 195.068 176.86 191.081 177.081 190.86C177.359 190.638 182.459 186.762 188.113 187.704C190.94 188.202 192.16 188.811 193.157 189.365C193.379 189.475 193.656 189.586 193.878 189.697C192.548 190.25 191.661 190.195 190.995 190.084C190.053 190.029 189.499 190.084 188.778 191.302C187.78 192.964 187.559 196.23 187.448 198.39C187.392 199.276 187.337 199.995 187.281 200.328C187.004 201.657 186.339 202.376 185.175 202.764C184.177 203.041 183.9 202.819 183.346 202.432C183.235 202.321 183.068 202.21 182.847 202.099C182.625 201.933 182.459 201.546 182.181 201.214C181.683 200.383 181.073 199.276 179.465 199.386C178.024 199.442 177.58 200.328 177.081 201.269C176.804 201.933 176.416 202.487 175.807 203.041C174.143 204.259 169.432 205.698 166.882 205.975C163.999 206.252 158.622 205.754 158.345 205.255C158.289 205.089 158.622 204.314 158.954 203.705C159.509 202.598 160.119 201.214 159.897 200.272C159.841 200.106 159.841 199.995 159.786 199.885C159.509 198.722 159.398 198.556 158.178 198.667C157.291 198.722 157.181 199.386 157.125 199.885C157.07 200.217 157.014 200.604 156.793 200.826C156.183 201.324 154.021 201.103 153.189 201.047L153.134 201.435C153.411 201.49 156.183 201.767 157.07 201.158C157.458 200.881 157.569 200.328 157.624 199.995C157.735 199.386 157.79 199.165 158.289 199.11C158.788 199.054 159.01 199.054 159.121 199.165C159.232 199.276 159.287 199.497 159.398 200.051C159.453 200.162 159.453 200.328 159.509 200.438C159.675 201.269 159.121 202.542 158.622 203.539C158.123 204.48 157.901 205.089 158.012 205.422C158.345 206.363 164.831 206.64 167.048 206.418C169.709 206.197 174.476 204.702 176.195 203.428C176.915 202.875 177.303 202.21 177.691 201.546C178.19 200.66 178.523 199.94 179.687 199.885C180.962 199.829 181.516 200.66 181.96 201.49C182.181 201.878 182.459 202.266 182.736 202.487C182.902 202.598 183.013 202.709 183.235 202.819C183.789 203.207 184.233 203.65 185.452 203.318C186.782 202.93 187.503 202.099 187.947 200.605C188.002 200.328 188.057 199.885 188.057 199.331C188.279 199.663 188.279 200.051 188.279 200.438C188.279 200.826 188.224 201.324 188.556 201.767C189.111 202.542 189.998 202.044 190.552 201.712C190.829 201.601 191.162 201.435 191.328 201.435C191.439 201.435 191.55 201.49 191.661 201.601C191.827 201.823 191.882 202.321 191.827 202.93C191.716 203.65 190.663 204.591 189.998 205.145C189.776 205.366 189.61 205.532 189.443 205.698C189.277 205.92 189.277 206.308 189.332 206.584C189.388 206.917 189.388 207.36 189.166 207.692C189.055 207.858 188.834 207.969 188.501 208.024C187.947 208.079 187.392 207.858 187.281 207.747C187.226 207.692 187.226 207.526 187.226 207.249C187.226 206.972 187.226 206.584 187.004 206.308C186.672 205.809 185.951 205.643 184.953 205.698C184.343 205.754 184.343 206.252 184.343 206.64C184.343 207.138 184.288 207.636 183.623 207.858C183.124 208.024 182.68 207.802 182.071 207.47C181.184 206.917 180.075 206.363 178.467 207.249C176.527 208.301 176.749 209.408 176.86 210.294C176.915 210.571 176.971 210.903 176.915 211.069C176.86 211.235 176.749 211.346 176.693 211.346C176.527 211.401 176.361 211.291 176.305 211.235L176.084 211.568C176.139 211.568 176.472 211.844 176.915 211.734C177.137 211.678 177.303 211.512 177.525 211.125C177.636 210.848 177.58 210.46 177.525 210.128C177.414 209.353 177.248 208.412 178.855 207.526C180.297 206.75 181.128 207.304 182.015 207.747C182.68 208.079 183.235 208.467 183.9 208.135C184.842 207.802 184.842 207.027 184.842 206.474C184.842 205.975 184.898 205.92 185.009 205.92C185.84 205.865 186.339 205.975 186.672 206.308C186.782 206.474 186.782 206.695 186.782 206.972C186.782 207.249 186.782 207.581 187.004 207.802C187.226 208.024 187.947 208.356 188.667 208.19C189.055 208.135 189.443 207.969 189.665 207.636C189.998 207.083 189.942 206.64 189.942 206.197C189.942 205.92 189.887 205.698 189.998 205.588C190.053 205.477 190.275 205.366 190.552 205.089C191.273 204.425 192.381 203.428 192.492 202.542C192.492 202.542 192.492 202.542 192.492 202.487C192.603 201.712 192.492 201.214 192.215 200.826C192.049 200.66 191.827 200.549 191.494 200.549C191.162 200.549 190.885 200.715 190.552 200.881C189.831 201.214 189.388 201.49 189.055 201.047C188.834 200.771 188.834 200.383 188.834 199.995C188.834 199.442 188.889 198.833 188.168 198.279C188.168 198.224 188.168 198.168 188.168 198.168C188.279 196.064 188.446 192.853 189.443 191.302C190.164 190.195 190.497 190.25 191.273 190.25C192.049 190.306 193.047 190.361 194.765 189.586C195.486 189.808 196.317 189.918 197.592 189.808C201.639 189.531 205.796 186.319 206.074 186.153C206.24 186.042 206.406 185.876 206.573 185.766C206.905 185.267 207.57 184.16 208.346 182.831C209.178 181.336 210.12 179.73 210.896 178.678C211.783 177.405 212.726 176.021 213.779 175.854C214.278 175.799 214.721 175.91 215.331 176.408C217.382 177.959 224.644 179.952 224.866 179.952L224.921 179.564C224.533 179.509 217.493 177.571 215.608 176.076C214.001 176.131 213.391 175.965 212.837 176.076Z" fill="#323A50"/>
<path d="M214.721 179.121C212.504 179.786 210.12 182.942 209.455 183.939C208.125 186.153 207.792 191.358 208.291 193.794C208.513 194.846 208.901 195.677 209.233 196.341C209.566 197.116 209.954 197.781 209.954 198.611C209.954 200.439 210.176 201.38 210.841 202.266C210.952 202.432 211.118 202.487 211.229 202.487C211.562 202.487 211.95 202.21 212.282 201.767C212.504 201.491 212.947 201.048 213.114 201.103C213.225 201.103 213.28 201.214 213.335 201.324C214.001 202.487 213.114 203.373 213.058 203.429L213.335 203.705C213.335 203.705 214.5 202.543 213.668 201.048C213.502 200.771 213.335 200.66 213.058 200.549C212.67 200.494 212.227 200.882 211.839 201.324C211.617 201.546 211.284 201.934 211.118 201.934L211.063 201.878C210.453 201.103 210.287 200.162 210.287 198.445C210.287 197.449 209.954 196.784 209.511 195.954C209.233 195.289 208.79 194.514 208.624 193.462C208.125 191.247 208.457 186.098 209.732 183.994C210.508 182.72 212.726 179.897 214.666 179.343C215.22 179.232 216.163 179.454 216.883 179.731C220.93 181.447 223.813 182.001 223.813 182.001L223.868 181.613C223.868 181.613 220.985 181.004 216.994 179.343C216.717 179.398 215.497 178.955 214.721 179.121Z" fill="#323A50"/>
<path d="M214.333 178.125C213.502 178.236 212.615 179.066 212.282 179.343C212.227 179.398 212.227 179.398 212.227 179.398C210.287 181.06 208.457 183.385 207.847 184.991C207.681 185.378 207.57 185.987 207.515 186.652C206.295 189.199 205.796 191.635 205.353 194.016C205.131 195.289 204.799 196.674 204.466 197.947C203.468 201.491 197.537 207.415 197.26 207.637C197.038 207.803 191.882 211.789 190.109 212.232C189.332 212.398 185.507 213.229 184.454 213.727C183.512 214.06 181.793 219.209 181.516 220.205C181.405 222.697 181.184 226.241 180.906 226.628C180.629 227.016 179.243 227.514 178.634 227.403C178.412 227.403 178.246 227.127 178.024 226.794C177.747 226.407 177.303 225.798 176.583 225.687C176.028 225.632 174.531 225.964 171.982 226.628C169.598 227.237 166.383 227.957 165.773 227.791C165.219 227.625 165.163 227.237 165.052 226.961C164.997 226.684 164.886 226.241 164.332 226.13C164.165 226.075 164.054 226.185 163.999 226.241C163.777 226.462 163.777 227.016 163.833 227.736C163.888 228.456 163.944 229.341 163.611 229.729L163.944 230.006C164.332 229.452 164.276 228.511 164.276 227.736C164.276 227.348 164.221 226.739 164.332 226.628C164.553 226.684 164.553 226.739 164.664 227.127C164.775 227.459 164.886 228.013 165.607 228.234C166.272 228.455 168.545 227.957 172.037 227.127C173.977 226.628 175.973 226.185 176.472 226.241C177.026 226.296 177.303 226.794 177.58 227.182C177.802 227.514 178.135 227.957 178.523 228.013C179.243 228.123 180.796 227.625 181.239 227.071C181.572 226.573 181.849 221.977 181.904 220.427C182.847 217.548 184.066 214.447 184.621 214.226C185.452 213.949 188.057 213.284 190.219 212.786C192.104 212.398 197.315 208.246 197.537 208.08C197.758 207.858 203.801 201.823 204.909 198.169C205.242 196.895 205.575 195.511 205.796 194.237C206.129 192.355 206.572 190.417 207.349 188.424C207.238 189.531 207.182 190.694 207.071 191.912C207.016 192.853 206.961 193.794 206.85 194.514C206.24 199.996 205.408 203.041 204.023 205.09C202.415 207.304 196.539 214.115 195.818 214.613C195.486 214.89 194.987 215.001 194.488 215.222C194.1 215.333 193.601 215.444 193.047 215.721C191.162 216.551 189.111 219.763 187.614 222.143C186.838 223.306 186.117 224.358 185.84 224.635C185.286 224.967 184.953 224.857 184.51 224.69C184.232 224.58 183.789 224.414 183.346 224.414V224.801C183.734 224.801 184.066 224.912 184.343 225.023C184.898 225.244 185.341 225.41 186.117 224.967C186.505 224.69 187.171 223.749 188.002 222.365C189.499 220.095 191.494 216.939 193.268 216.108C193.767 215.887 194.211 215.776 194.599 215.721C195.208 215.554 195.652 215.444 196.151 215.056C196.871 214.447 202.858 207.692 204.466 205.422C205.963 203.373 206.739 200.217 207.349 194.625C207.404 193.905 207.459 192.964 207.57 192.023C207.737 189.531 207.903 186.818 208.457 185.434C209.012 183.939 210.841 181.613 212.615 180.008C212.615 180.008 212.67 179.952 212.726 179.952C213.003 179.731 213.834 178.956 214.555 178.845C215.276 178.734 216.44 179.177 218.158 179.841C219.766 180.45 221.817 181.17 224.201 181.835L224.311 181.447C221.872 180.783 219.877 180.118 218.325 179.509C216.273 178.457 215.109 178.014 214.333 178.125Z" fill="#323A50"/>
<path d="M152.358 224.58C152.69 224.635 153.245 224.967 153.855 225.41C154.908 226.13 156.127 226.96 157.07 226.407C157.624 226.13 158.068 225.465 158.622 224.58C159.62 223.029 160.839 221.147 163.223 220.427C166.882 219.209 173.423 216.053 173.478 216.053H173.534C173.589 215.997 178.745 212.232 183.734 213.506L183.844 213.118C178.8 211.789 173.7 215.388 173.312 215.721C173.257 215.721 173.09 215.831 172.813 215.942C172.702 215.388 172.314 214.226 171.316 213.45C170.54 212.841 169.542 212.62 168.378 212.731C166.383 212.952 164.442 213.949 162.779 214.779C161.283 215.554 160.063 216.108 159.176 216.053C158.4 215.997 158.289 215.499 158.123 214.945C157.957 214.226 157.735 213.34 156.183 213.174C154.575 213.007 153.91 214.115 153.3 215.001C152.801 215.721 152.524 216.163 152.025 216.108C150.528 215.997 148.533 213.949 148.533 213.949L148.256 214.226C148.311 214.281 150.362 216.385 152.025 216.496C152.857 216.551 153.245 215.831 153.744 215.167C154.298 214.281 154.852 213.395 156.238 213.506C157.458 213.616 157.68 214.281 157.846 214.945C158.012 215.61 158.178 216.219 159.343 216.385C160.34 216.44 161.615 215.776 163.167 215.056C164.831 214.226 166.66 213.284 168.6 213.063C169.653 212.952 170.54 213.118 171.261 213.672C172.203 214.447 172.48 215.61 172.591 215.942C170.651 216.828 166.106 218.877 163.278 219.818C160.784 220.648 159.453 222.697 158.456 224.192C157.901 224.967 157.513 225.687 157.014 225.908C156.294 226.296 155.185 225.576 154.187 224.912C153.522 224.524 153.023 224.081 152.524 224.026C151.859 223.971 150.917 224.58 149.863 225.244C148.865 225.908 147.757 226.684 146.981 226.794L147.036 227.182C147.923 227.071 149.032 226.296 150.085 225.576C150.861 225.133 151.914 224.524 152.358 224.58Z" fill="#323A50"/>
<path d="M216.163 180.727C214.999 181.28 214.001 182.775 213.225 183.883C212.947 184.27 212.67 184.713 212.504 184.879C212.338 185.046 212.171 185.046 211.95 185.101C211.395 185.212 211.007 185.378 210.508 186.541C209.788 188.257 209.455 192.244 210.342 193.628C210.675 194.181 211.118 194.237 211.395 194.237C212.338 194.126 213.169 193.019 213.502 192.022C213.724 191.302 214.444 191.247 215.22 191.192C215.885 191.136 216.495 191.081 216.883 190.582C217.105 190.306 217.382 190.084 217.548 190.195C217.77 190.25 218.103 190.693 218.214 191.524C218.325 192.797 217.881 194.735 217.881 194.846L218.269 194.957C218.269 194.901 218.823 192.908 218.602 191.468C218.491 190.472 218.103 189.807 217.659 189.697C217.327 189.586 216.828 189.807 216.551 190.306C216.329 190.582 215.775 190.638 215.276 190.693C214.5 190.749 213.502 190.804 213.169 191.801C212.837 192.797 212.06 193.683 211.395 193.738C211.174 193.738 210.896 193.628 210.73 193.406C210.009 192.299 210.231 188.478 210.952 186.762C211.34 185.765 211.728 185.71 212.06 185.655C212.282 185.599 212.615 185.544 212.837 185.322C213.003 185.156 213.225 184.713 213.613 184.27C214.278 183.274 215.276 181.668 216.384 181.225C217.16 180.893 217.992 181.28 219.101 181.834C220.154 182.332 221.54 182.942 223.369 183.163L223.425 182.775C221.651 182.554 220.376 181.945 219.322 181.502C218.047 180.727 217.105 180.284 216.163 180.727Z" fill="#323A50"/>
</g>
<g opacity="0.34">
<path d="M159.065 232.165C195.957 232.165 225.864 202.144 225.864 165.113C225.864 128.081 195.957 98.0605 159.065 98.0605C122.174 98.0605 92.2671 128.081 92.2671 165.113C92.2671 202.144 122.174 232.165 159.065 232.165Z" fill="url(#paint4_radial_3632_75848)"/>
<path d="M226.418 165.334C226.418 183.274 219.489 200.161 206.794 212.896C194.1 225.631 177.303 232.608 159.398 232.608C141.493 232.608 124.696 225.631 112.002 212.896C99.4181 200.161 92.378 183.274 92.378 165.334C92.378 147.394 99.3073 130.507 112.002 117.772C124.696 105.037 141.437 98.0605 159.398 98.0605C177.359 98.0605 194.1 105.037 206.794 117.772C219.489 130.507 226.418 147.394 226.418 165.334ZM92.8214 165.334C92.8214 202.155 122.701 232.22 159.398 232.22C196.095 232.22 226.03 202.265 226.03 165.334C226.03 128.514 196.151 98.5035 159.453 98.5035C122.756 98.5035 92.8214 128.514 92.8214 165.334Z" fill="#323A50"/>
</g>
<path d="M85.2824 164.78C85.2824 178.124 93.7638 188.423 108.509 189.641C109.23 189.696 109.119 189.586 108.565 189.586C103.077 189.586 100.25 178.733 100.25 165.389C100.25 152.045 103.077 141.193 108.565 141.193C108.897 141.193 108.953 141.193 108.62 141.138C95.7595 140.805 85.2824 151.325 85.2824 164.78Z" fill="#293C4F"/>
<path d="M93.7638 182.61C93.8747 182.61 93.0986 182.721 92.2671 182.665C91.6573 182.61 91.0475 182.444 90.4932 182.112C89.9388 181.835 89.4954 181.447 88.941 181.004C88.941 181.004 88.941 180.949 88.8856 180.949C86.1139 178.236 84.1737 172.422 84.1737 165.722C84.1737 156.42 87.8323 148.779 92.4334 148.779C92.4334 148.779 93.0432 148.779 93.4312 148.835C94.2073 148.89 94.9279 149.167 95.5377 149.665L101.802 126.964C101.414 126.964 102.19 126.964 100.527 126.964C89.1628 126.964 79.9607 144.184 79.9607 165.445C79.9607 186.707 89.1628 203.927 100.527 203.927C101.192 203.927 101.802 203.872 102.522 203.761L95.8703 181.447C95.4268 181.779 94.3736 182.499 93.7638 182.61Z" fill="#DBDBDB"/>
<path d="M103.077 204.037L102.689 204.093C101.968 204.203 101.358 204.259 100.638 204.259C94.9833 204.259 89.6616 200.217 85.7258 192.797C81.8454 185.489 79.6835 175.744 79.6835 165.39C79.6835 155.036 81.79 145.346 85.7258 137.982C89.6616 130.562 94.9833 126.521 100.638 126.521C101.192 126.521 101.469 126.521 101.635 126.521C101.691 126.521 101.746 126.521 101.802 126.521V126.576C101.802 126.576 101.857 126.631 101.913 126.631H102.467L95.9257 150.329L95.4268 149.997C94.7616 149.609 94.2072 149.277 93.542 149.222C93.154 149.166 92.5442 149.166 92.5442 149.166C88.2203 149.166 84.728 156.586 84.728 165.722C84.728 172.089 86.5573 177.958 89.329 180.672L89.3845 180.727C89.7725 181.114 90.3268 181.502 90.7149 181.724C91.2138 181.945 91.8236 182.111 92.3779 182.277C92.9323 182.333 93.3757 182.277 93.5975 182.277H93.7083C94.0409 182.166 94.7616 181.779 95.704 181.114L96.2029 180.838L103.077 204.037ZM80.4041 165.334C80.4041 186.319 89.4399 203.428 100.582 203.428C101.081 203.428 101.525 203.373 102.079 203.317L95.6485 181.945C94.9833 182.333 94.3735 182.776 93.8192 182.886C93.3203 183.052 92.1562 182.942 92.1562 182.942C91.491 182.886 90.8257 182.665 90.216 182.333C89.6616 182.056 89.1627 181.613 88.6084 181.17L88.5529 181.114C85.6149 178.18 83.7302 172.311 83.7302 165.556C83.7302 160.96 84.6171 156.641 86.2247 153.375C87.8877 149.997 90.0497 148.17 92.4333 148.17C92.4888 148.17 93.0431 148.17 93.4866 148.225C94.1518 148.281 94.7061 148.447 95.3159 148.834L101.247 127.185C101.081 127.185 100.859 127.185 100.471 127.185C89.4953 127.296 80.4041 144.405 80.4041 165.334Z" fill="#323A50"/>
<path opacity="0.52" d="M86.4465 165.666C86.4465 156.973 89.6063 149.775 93.7638 148.779C93.4867 148.723 93.0986 148.668 92.766 148.668C88.165 148.668 84.4509 156.254 84.4509 165.666C84.4509 175.024 88.165 182.665 92.766 182.665C92.9323 182.665 93.154 182.72 93.3758 182.665C93.4312 182.665 94.1519 182.665 95.1497 182.332C95.704 182.166 95.9258 181.502 95.8149 181.446C94.5399 182.498 93.5975 182.443 93.3758 182.443C89.44 181.059 86.4465 174.082 86.4465 165.666Z" fill="url(#paint5_linear_3632_75848)"/>
<path d="M87.3889 165.666C87.3889 157.029 91.103 150.551 95.8149 149.554C94.5399 148.668 93.3758 148.723 93.0432 148.723C88.4421 148.723 84.4509 156.309 84.4509 165.666C84.4509 175.024 87.8878 182.609 93.0986 182.72C93.4312 182.72 95.7594 182.443 95.7594 181.502C90.5486 181.502 87.3889 174.304 87.3889 165.666Z" fill="#DBDBDB"/>
<path d="M96.8681 149.72L95.9258 149.886C91.2139 150.938 87.8324 157.527 87.8324 165.666C87.8324 171.701 89.3845 176.851 91.8791 179.398C92.9877 180.505 94.3736 181.114 95.7594 181.114H96.1475V181.502C96.1475 181.668 96.0921 182 95.8149 182.277C95.0388 182.997 93.3203 183.163 93.0986 183.163C90.4378 183.107 88.1095 181.28 86.4465 177.847C84.8943 174.691 84.0074 170.373 84.0074 165.666C84.0074 161.126 84.9498 156.862 86.6128 153.485C88.3313 150.163 90.5486 148.28 92.9877 148.28H93.0432C93.4312 148.28 94.6508 148.28 95.9258 149.166L96.8681 149.72ZM84.8389 165.666C84.8389 175.245 88.3313 182.277 93.154 182.332C93.3758 182.332 94.429 182.166 95.0388 181.834C93.7084 181.668 92.378 181.059 91.3247 179.951C88.6084 177.294 87.0008 171.923 87.0008 165.722C87.0008 161.458 87.8878 157.638 89.4954 154.592C90.8258 151.99 92.6551 150.218 94.8171 149.498C94.041 149.222 93.4867 149.222 93.154 149.222H93.0986C88.6084 149.111 84.8389 156.696 84.8389 165.666Z" fill="#323A50"/>
<path d="M226.64 165.223C226.64 183.163 219.655 200.106 206.905 212.785C194.155 225.52 177.248 232.497 159.287 232.497C144.431 232.497 130.35 227.79 118.543 218.821L118.876 218.322C130.517 227.126 144.486 231.832 159.232 231.832C196.04 231.832 225.974 201.933 225.974 165.168C225.974 128.403 196.04 98.5036 159.232 98.5036C144.375 98.5036 130.35 103.265 118.598 112.346L118.266 111.848C130.129 102.712 144.32 97.8945 159.287 97.8945C177.248 97.8945 194.211 104.871 206.905 117.606C219.655 130.341 226.64 147.284 226.64 165.223Z" fill="#323A50"/>
<path d="M95.8149 181.391L98.9192 181.336L104.795 197.338C105.017 197.947 105.793 197.947 106.015 197.338L106.07 197.282L106.458 196.23C106.569 195.898 107.123 195.953 107.179 196.286L107.678 198.556V198.666C107.9 199.718 109.341 199.829 109.729 198.833L110.727 196.562C110.893 196.175 111.503 196.23 111.614 196.618C112.113 198.666 113.166 202.875 115.383 208.965C123.421 229.175 145.817 238.698 145.817 238.698C145.817 238.698 135.229 236.76 128.022 233.272C123.421 231.113 116.104 227.569 108.177 220.316C102.855 215.499 98.0322 208.965 98.0322 208.965C98.0322 208.965 103.077 206.695 101.968 203.262C100.749 200.66 95.316 185.544 95.8149 181.391Z" fill="white"/>
<path d="M149.42 239.861L145.872 239.196C145.761 239.196 135.173 237.203 127.967 233.77C123.477 231.666 115.993 228.067 108.01 220.758C102.689 215.997 97.866 209.408 97.8105 209.352L97.5333 208.965L97.9214 208.799C97.9768 208.799 101.802 206.971 101.802 204.369C101.802 204.148 101.746 203.815 101.691 203.539C100.416 200.825 95.316 186.817 95.316 181.945C95.316 181.723 95.316 181.446 95.3714 181.28L95.4269 180.948L99.1964 180.893L105.128 197.282C105.183 197.448 105.294 197.448 105.35 197.448C105.405 197.448 105.516 197.448 105.571 197.282L106.07 196.119C106.181 195.842 106.458 195.565 106.846 195.621C107.179 195.676 107.512 195.898 107.567 196.285L108.121 198.721C108.177 199.054 108.454 199.275 108.731 199.275C108.953 199.275 109.285 199.22 109.452 198.888L110.45 196.617C110.616 196.285 110.948 196.064 111.336 196.064C111.669 196.119 112.057 196.341 112.113 196.728C112.501 198.666 113.665 202.93 115.882 209.02C119.984 219.374 127.967 226.849 133.954 231.278C140.439 236.096 146.038 238.532 146.094 238.587L149.42 239.861ZM98.7529 209.242C99.8616 210.737 104.075 216.052 108.509 220.149C116.492 227.347 123.865 230.836 128.299 233.05C133.011 235.265 139.22 236.926 142.879 237.757C140.606 236.594 137.224 234.601 133.51 231.832C127.468 227.292 119.374 219.706 115.161 209.186C112.944 203.04 111.78 198.777 111.392 196.784C111.392 196.784 111.392 196.728 111.336 196.728C111.281 196.728 111.281 196.728 111.281 196.784L110.283 199.054C110.061 199.663 109.396 199.995 108.731 199.94C108.066 199.884 107.567 199.386 107.456 198.777L106.902 196.396L106.514 197.503C106.347 197.891 105.904 198.223 105.516 198.168C105.128 198.168 104.684 197.891 104.518 197.448L98.7529 181.668H96.2584C96.2584 181.723 96.2584 181.779 96.2584 181.889C96.2584 186.651 101.247 200.604 102.522 203.151V203.206C102.633 203.539 102.689 203.926 102.689 204.258C102.633 206.916 99.8616 208.688 98.7529 209.242Z" fill="#323A50"/>
<path d="M234.789 165.279H233.957C233.957 124.195 200.419 90.6411 159.287 90.6411C135.728 90.6411 114.108 101.438 99.8062 120.153L99.1409 119.655C106.015 110.574 115.051 103.099 125.195 97.9498C135.783 92.579 147.313 89.8105 159.287 89.8105C169.487 89.8105 179.354 91.8038 188.667 95.6797C197.648 99.4448 205.741 104.926 212.67 111.847C219.544 118.769 225.032 126.852 228.857 135.822C232.793 145.235 234.789 155.035 234.789 165.279Z" fill="#323A50"/>
<path d="M95.8703 149.554L98.9746 149.609L104.463 133.22C104.684 132.611 105.46 132.611 105.682 133.22L105.738 133.275L106.126 134.328C106.237 134.66 106.791 134.604 106.846 134.272L107.345 132.002V131.891C107.567 130.839 109.008 130.729 109.396 131.725L110.394 133.995C110.56 134.383 111.17 134.327 111.281 133.94C111.78 131.891 112.833 127.683 115.051 121.593C123.089 101.383 144.985 91.8594 144.985 91.8594C144.985 91.8594 134.841 93.7419 127.579 97.2302C122.978 99.3896 115.66 102.933 107.733 110.187C102.412 115.004 98.3094 121.925 98.3094 121.925C98.3094 121.925 102.689 123.863 101.635 127.296C100.305 129.843 95.316 145.401 95.8703 149.554Z" fill="white"/>
<path d="M148.533 90.6406L145.318 92.0802C145.262 92.0802 139.774 94.5165 133.399 99.3336C127.579 103.818 119.652 111.293 115.55 121.592C113.332 127.627 112.223 131.891 111.78 133.884C111.725 134.216 111.447 134.548 111.004 134.548C110.671 134.604 110.283 134.382 110.117 133.995L109.119 131.725C109.008 131.392 108.62 131.337 108.399 131.337C108.177 131.337 107.844 131.503 107.789 131.891L107.234 134.327C107.179 134.659 106.902 134.936 106.514 134.991C106.181 135.047 105.849 134.825 105.738 134.493L105.239 133.33C105.183 133.164 105.072 133.164 105.017 133.164C104.962 133.164 104.851 133.164 104.795 133.33L99.2519 150.052L95.4823 149.996L95.4269 149.664C95.4269 149.498 95.3715 149.277 95.3715 148.944C95.3715 144.016 99.9725 129.676 101.247 127.018C101.358 126.741 101.358 126.354 101.358 126.077C101.358 123.585 98.1986 122.201 98.1986 122.146L97.8106 121.98L98.0323 121.647C98.0877 121.592 102.19 114.726 107.512 109.854C115.55 102.545 123.033 99.0014 127.468 96.842C134.674 93.3537 144.819 91.4712 144.93 91.4158L148.533 90.6406ZM106.514 134.05L107.068 131.669C107.179 131.005 107.733 130.562 108.343 130.506C109.008 130.451 109.563 130.783 109.895 131.392L110.893 133.662C110.893 133.662 110.893 133.718 110.948 133.718C111.004 133.718 111.004 133.718 111.004 133.662C111.392 131.669 112.556 127.406 114.773 121.315C118.931 110.795 126.969 103.209 132.9 98.7245C136.504 96.0114 139.774 94.0181 142.103 92.8554C138.555 93.6859 132.623 95.2916 127.967 97.5064C123.532 99.6104 116.104 103.154 108.177 110.407C103.687 114.449 99.9725 120.152 99.0301 121.647C99.9725 122.201 102.356 123.696 102.356 126.132C102.356 126.464 102.301 126.907 102.19 127.295V127.35C100.97 129.953 96.3693 144.072 96.3693 148.944C96.3693 149.055 96.3693 149.11 96.3693 149.166H98.8638L104.241 132.998C104.407 132.61 104.795 132.278 105.239 132.278C105.627 132.278 106.07 132.5 106.237 132.943L106.514 134.05Z" fill="#323A50"/>
<path d="M109.064 140.861C103.576 140.861 100.693 151.769 100.693 165.168C100.693 178.568 103.52 189.475 109.064 189.475C114.607 189.475 120.649 178.568 120.649 165.168C120.649 151.769 114.607 140.861 109.064 140.861Z" fill="#DBDBDB"/>
<path d="M121.093 165.168C121.093 171.535 119.762 177.681 117.323 182.554C114.94 187.205 111.946 189.918 109.064 189.918C106.292 189.918 104.019 187.316 102.467 182.499C101.137 178.124 100.361 172.144 100.361 165.168C100.361 158.191 101.137 152.212 102.467 147.837C104.019 143.02 106.292 140.418 109.064 140.418C111.946 140.418 114.94 143.076 117.323 147.782C119.707 152.655 121.093 158.801 121.093 165.168ZM101.081 165.168C101.081 171.923 101.857 178.014 103.132 182.222C104.13 185.322 105.959 189.032 108.953 189.032C111.503 189.032 114.33 186.43 116.436 182.166C118.82 177.46 120.151 171.369 120.151 165.168C120.151 158.967 118.876 152.876 116.436 148.17C114.274 143.851 111.503 141.304 108.953 141.304C105.904 141.304 104.075 145.014 103.132 148.114C101.857 152.322 101.081 158.413 101.081 165.168Z" fill="#323A50"/>
<path d="M109.175 141.525C103.964 141.525 101.303 152.101 101.303 165.168C101.303 178.235 104.019 188.811 109.175 188.811C114.385 188.811 120.151 178.235 120.151 165.168C120.151 152.101 114.33 141.525 109.175 141.525Z" fill="#DBDBDB"/>
<path d="M120.206 165.168C120.206 171.314 118.986 177.294 116.658 181.945C114.496 186.43 111.78 188.922 109.175 188.922C106.625 188.922 104.574 186.486 103.243 181.945C101.968 177.682 101.247 171.868 101.247 165.168C101.247 158.469 101.968 152.655 103.243 148.392C104.684 143.796 106.735 141.415 109.175 141.415C111.78 141.415 114.552 143.962 116.658 148.392C118.931 153.043 120.206 159.078 120.206 165.168ZM101.414 165.168C101.414 179.509 104.463 188.756 109.175 188.756C114.164 188.756 120.04 178.457 120.04 165.168C120.04 151.935 114.219 141.581 109.175 141.581C104.463 141.581 101.414 150.828 101.414 165.168Z" fill="#323A50"/>
<path d="M109.285 142.688C104.795 142.688 102.522 152.765 102.522 165.167C102.522 177.57 104.795 187.647 109.285 187.647C113.776 187.647 118.709 177.57 118.709 165.167C118.709 152.765 113.831 142.688 109.285 142.688Z" fill="#DBDBDB"/>
<path d="M118.82 165.168C118.82 170.982 117.767 176.629 115.771 181.114C113.886 185.267 111.503 187.758 109.285 187.758C107.123 187.758 105.35 185.488 104.075 181.114C102.966 177.127 102.356 171.591 102.356 165.168C102.356 158.745 102.966 153.263 104.075 149.221C105.294 144.847 107.068 142.577 109.285 142.577C111.503 142.577 113.942 145.013 115.771 149.221C117.767 153.706 118.82 159.354 118.82 165.168ZM102.578 165.168C102.578 178.789 105.239 187.537 109.285 187.537C113.609 187.537 118.654 177.792 118.654 165.168C118.654 152.599 113.665 142.799 109.285 142.799C105.239 142.799 102.578 151.602 102.578 165.168Z" fill="#323A50"/>
<path d="M109.341 144.072C105.516 144.072 103.52 153.596 103.52 165.334C103.52 177.128 105.516 186.596 109.341 186.596C113.221 186.596 117.49 177.072 117.49 165.334C117.49 153.596 113.221 144.072 109.341 144.072Z" fill="#DBDBDB"/>
<path d="M117.601 165.334C117.601 170.871 116.658 176.242 114.94 180.395C113.332 184.381 111.281 186.707 109.341 186.707C107.456 186.707 105.904 184.547 104.851 180.395C103.908 176.574 103.354 171.37 103.354 165.334C103.354 159.355 103.908 154.039 104.851 150.274C105.904 146.177 107.456 143.962 109.341 143.962C111.281 143.962 113.332 146.232 114.94 150.274C116.658 154.482 117.601 159.797 117.601 165.334ZM103.576 165.334C103.576 178.235 105.793 186.541 109.341 186.541C113.055 186.541 117.379 177.294 117.379 165.334C117.379 153.375 113.055 144.128 109.341 144.128C105.848 144.183 103.576 152.489 103.576 165.334Z" fill="#323A50"/>
<path d="M109.285 145.512C106.237 145.512 104.629 154.426 104.629 165.334C104.629 176.352 106.237 185.156 109.285 185.156C112.334 185.156 116.104 176.297 116.104 165.334C116.159 154.426 112.334 145.512 109.285 145.512Z" fill="#DBDBDB"/>
<path d="M116.215 165.334C116.215 176.408 112.39 185.267 109.285 185.267C105.738 185.267 104.518 174.47 104.518 165.334C104.518 156.143 105.738 145.401 109.285 145.401C112.445 145.401 116.215 154.371 116.215 165.334ZM104.74 165.334C104.74 177.349 106.514 185.101 109.285 185.101C112.279 185.101 116.048 175.965 116.048 165.334C116.048 154.703 112.334 145.567 109.285 145.567C106.514 145.623 104.74 153.43 104.74 165.334Z" fill="#323A50"/>
<path d="M109.341 147.229C106.902 147.229 105.682 155.423 105.682 165.39C105.682 175.356 106.902 183.551 109.341 183.551C111.78 183.551 114.718 175.356 114.718 165.39C114.718 155.423 111.78 147.229 109.341 147.229Z" fill="#DBDBDB"/>
<path d="M114.773 165.39C114.773 175.522 111.835 183.717 109.341 183.717C106.569 183.717 105.627 174.249 105.627 165.39C105.627 156.531 106.625 147.062 109.341 147.062C111.835 147.118 114.773 155.312 114.773 165.39ZM105.793 165.39C105.793 176.242 107.234 183.495 109.341 183.495C111.725 183.495 114.607 175.135 114.607 165.39C114.607 155.645 111.725 147.284 109.341 147.284C107.234 147.284 105.793 154.593 105.793 165.39Z" fill="#323A50"/>
<path d="M109.507 149.166C107.733 149.166 106.846 156.53 106.846 165.555C106.846 174.636 107.733 181.945 109.507 181.945C111.226 181.945 113.388 174.58 113.388 165.555C113.443 156.53 111.281 149.166 109.507 149.166Z" fill="#DBDBDB"/>
<path d="M113.554 165.556C113.554 174.692 111.392 182.056 109.563 182.056C107.567 182.056 106.846 173.529 106.846 165.556C106.846 157.583 107.567 149.056 109.563 149.056C111.336 149.056 113.554 156.42 113.554 165.556ZM107.013 165.556C107.013 175.245 108.01 181.834 109.563 181.834C111.115 181.834 113.332 175.024 113.332 165.556C113.332 156.143 111.115 149.277 109.563 149.277C108.066 149.222 107.013 155.755 107.013 165.556Z" fill="#323A50"/>
<path d="M87.8324 203.815C88.4447 203.815 88.941 203.32 88.941 202.708C88.941 202.096 88.4447 201.601 87.8324 201.601C87.2201 201.601 86.7237 202.096 86.7237 202.708C86.7237 203.32 87.2201 203.815 87.8324 203.815Z" fill="#032A3D"/>
<path d="M88.8302 200.493C89.4425 200.493 89.9389 199.997 89.9389 199.386C89.9389 198.774 89.4425 198.278 88.8302 198.278C88.2179 198.278 87.7215 198.774 87.7215 199.386C87.7215 199.997 88.2179 200.493 88.8302 200.493Z" fill="#032A3D"/>
<path d="M85.3933 199.995C86.0056 199.995 86.5019 199.499 86.5019 198.888C86.5019 198.276 86.0056 197.78 85.3933 197.78C84.7809 197.78 84.2846 198.276 84.2846 198.888C84.2846 199.499 84.7809 199.995 85.3933 199.995Z" fill="#032A3D"/>
<path d="M85.7259 196.673C86.3382 196.673 86.8345 196.177 86.8345 195.565C86.8345 194.954 86.3382 194.458 85.7259 194.458C85.1136 194.458 84.6172 194.954 84.6172 195.565C84.6172 196.177 85.1136 196.673 85.7259 196.673Z" fill="#032A3D"/>
<path d="M82.5107 195.897C83.123 195.897 83.6194 195.402 83.6194 194.79C83.6194 194.178 83.123 193.683 82.5107 193.683C81.8984 193.683 81.402 194.178 81.402 194.79C81.402 195.402 81.8984 195.897 82.5107 195.897Z" fill="#032A3D"/>
<path d="M83.1204 192.797C83.6715 192.797 84.1183 192.351 84.1183 191.8C84.1183 191.25 83.6715 190.804 83.1204 190.804C82.5694 190.804 82.1226 191.25 82.1226 191.8C82.1226 192.351 82.5694 192.797 83.1204 192.797Z" fill="#032A3D"/>
<path d="M80.2379 192.022C80.7889 192.022 81.2357 191.575 81.2357 191.025C81.2357 190.475 80.7889 190.028 80.2379 190.028C79.6868 190.028 79.24 190.475 79.24 191.025C79.24 191.575 79.6868 192.022 80.2379 192.022Z" fill="#032A3D"/>
<path d="M81.5129 189.475C82.0333 189.475 82.4552 189.054 82.4552 188.534C82.4552 188.014 82.0333 187.593 81.5129 187.593C80.9924 187.593 80.5705 188.014 80.5705 188.534C80.5705 189.054 80.9924 189.475 81.5129 189.475Z" fill="#032A3D"/>
<path d="M79.0737 188.257C79.533 188.257 79.9053 187.885 79.9053 187.426C79.9053 186.968 79.533 186.596 79.0737 186.596C78.6145 186.596 78.2422 186.968 78.2422 187.426C78.2422 187.885 78.6145 188.257 79.0737 188.257Z" fill="#032A3D"/>
<path d="M80.515 186.098C80.9743 186.098 81.3466 185.726 81.3466 185.267C81.3466 184.808 80.9743 184.437 80.515 184.437C80.0558 184.437 79.6835 184.808 79.6835 185.267C79.6835 185.726 80.0558 186.098 80.515 186.098Z" fill="#032A3D"/>
<path d="M78.1314 185.156C78.5906 185.156 78.9629 184.784 78.9629 184.326C78.9629 183.867 78.5906 183.495 78.1314 183.495C77.6721 183.495 77.2999 183.867 77.2999 184.326C77.2999 184.784 77.6721 185.156 78.1314 185.156Z" fill="#032A3D"/>
<path d="M79.4618 183.218C79.8904 183.218 80.2379 182.871 80.2379 182.443C80.2379 182.015 79.8904 181.668 79.4618 181.668C79.0332 181.668 78.6857 182.015 78.6857 182.443C78.6857 182.871 79.0332 183.218 79.4618 183.218Z" fill="#032A3D"/>
<path d="M91.7682 203.262C92.4111 203.262 92.9323 202.741 92.9323 202.099C92.9323 201.457 92.4111 200.937 91.7682 200.937C91.1253 200.937 90.6041 201.457 90.6041 202.099C90.6041 202.741 91.1253 203.262 91.7682 203.262Z" fill="#032A3D"/>
<path d="M91.2139 207.193C91.918 207.193 92.4889 206.623 92.4889 205.92C92.4889 205.217 91.918 204.646 91.2139 204.646C90.5097 204.646 89.9389 205.217 89.9389 205.92C89.9389 206.623 90.5097 207.193 91.2139 207.193Z" fill="#032A3D"/>
<path d="M95.1497 205.643C95.9457 205.643 96.591 204.998 96.591 204.203C96.591 203.408 95.9457 202.764 95.1497 202.764C94.3537 202.764 93.7084 203.408 93.7084 204.203C93.7084 204.998 94.3537 205.643 95.1497 205.643Z" fill="#032A3D"/>
<path d="M94.7062 209.685C95.441 209.685 96.0366 209.09 96.0366 208.356C96.0366 207.622 95.441 207.027 94.7062 207.027C93.9714 207.027 93.3758 207.622 93.3758 208.356C93.3758 209.09 93.9714 209.685 94.7062 209.685Z" fill="#032A3D"/>
<path d="M99.3626 204.535C100.36 204.535 101.525 205.532 101.358 206.252C101.247 206.75 98.8637 208.632 98.6974 208.466C97.8659 208.245 97.2561 207.414 97.2561 206.528C97.3116 205.421 98.254 204.535 99.3626 204.535Z" fill="#032A3D"/>
<path d="M170.485 139.643L171.261 145.623L189.942 143.131L190.607 147.893L200.641 138.923V138.868L188.556 132.556L189.111 137.151L170.485 139.643Z" fill="white"/>
<path d="M200.974 138.701L200.918 139.089L190.386 148.446L189.665 143.463L170.984 145.954L170.097 139.421L188.778 136.929L188.113 132.057L200.974 138.701ZM190.829 147.228L200.198 138.922L188.944 133.053L189.554 137.427L170.873 139.919L171.594 145.29L190.275 142.798L190.829 147.228Z" fill="#293C4F"/>
<path d="M87.8324 182.222C87.8878 182.222 87.9432 182.166 87.9987 182.111L92.1562 175.743C92.2117 175.688 92.2117 175.633 92.2117 175.577C92.2117 175.522 92.2117 175.467 92.1562 175.411C92.1008 175.3 91.9899 175.245 91.8791 175.245H89.1628C89.1628 175.245 89.1628 175.245 89.1073 175.245C89.2182 173.639 89.7726 169.708 91.5465 167.549C91.6019 167.493 91.6019 167.383 91.6019 167.327C91.6019 167.272 91.5465 167.161 91.491 167.106C90.4932 166.386 89.6617 165.943 88.7748 165.666C88.6639 165.611 88.4976 165.666 88.4421 165.777C86.3911 168.712 85.7259 172.92 85.615 175.3H83.1205C83.0096 175.3 82.8987 175.356 82.8433 175.467C82.7878 175.577 82.7878 175.688 82.8433 175.799L87.3889 182.111C87.4443 182.222 87.6106 182.277 87.7215 182.222H87.8324Z" fill="white"/>
<path d="M92.5998 175.577C92.5998 175.687 92.5443 175.798 92.4889 175.909L88.3313 182.276C88.2759 182.387 88.1096 182.498 87.9987 182.498H87.9433C87.7215 182.553 87.3889 182.442 87.2226 182.276L82.677 175.964C82.5662 175.798 82.5107 175.577 82.6216 175.3C82.7325 175.078 82.8988 174.968 83.2314 174.968H85.3933C85.5596 172.587 86.2248 168.489 88.2759 165.555C88.4422 165.333 88.6639 165.278 88.9965 165.333C89.8835 165.555 90.7704 166.053 91.8237 166.828C91.9345 166.939 92.0454 167.05 92.0454 167.216C92.0454 167.382 92.0454 167.548 91.9345 167.714C90.3269 169.708 89.828 173.251 89.6617 174.968H92.1008C92.3226 174.968 92.4889 175.078 92.7106 175.3C92.5997 175.355 92.5998 175.466 92.5998 175.577ZM82.9542 175.854L83.1759 175.687L87.7215 182C87.7215 182 87.7215 182 87.777 182H87.8324L91.99 175.632H89.2737H88.9411V175.3C89.052 173.639 89.6063 169.652 91.4356 167.437C90.4932 166.718 89.6617 166.33 88.8302 166.109C88.8302 166.109 88.8302 166.109 88.7748 166.109C86.7237 169.043 86.1139 173.251 85.9476 175.466V175.743H83.1759L82.9542 175.854Z" fill="#293C4F"/>
<path d="M100.804 180.671C100.859 180.726 100.97 180.726 101.026 180.726C102.245 180.56 103.188 180.338 103.964 179.896C104.075 179.84 104.13 179.729 104.13 179.619V179.563C103.576 175.964 101.192 172.587 99.5844 170.649L101.358 168.932C101.414 168.877 101.469 168.711 101.414 168.6C101.358 168.49 101.303 168.434 101.192 168.379L93.5975 166.884C93.4866 166.884 93.3203 166.939 93.2649 167.05V167.105C93.2095 167.161 93.2095 167.271 93.2095 167.327L94.4845 174.857C94.4845 174.968 94.5953 175.078 94.7062 175.078C94.8171 175.134 94.9279 175.078 95.0388 175.023L96.979 173.14C97.9768 174.359 100.36 177.625 100.582 180.449C100.693 180.56 100.749 180.615 100.804 180.671Z" fill="white"/>
<path d="M104.518 179.62C104.518 179.841 104.407 180.118 104.185 180.229C103.354 180.616 102.412 180.948 101.137 181.114C100.97 181.114 100.804 181.114 100.638 181.004C100.527 180.893 100.416 180.782 100.416 180.616C100.194 178.069 98.1986 175.135 97.0899 173.806L95.3715 175.467C95.2052 175.633 94.9834 175.688 94.7062 175.578C94.4845 175.522 94.3736 175.356 94.3182 175.024L93.0432 167.494C93.0432 167.328 93.0432 167.217 93.0987 167.106V167.051C93.2095 166.829 93.4867 166.719 93.7639 166.774L101.358 168.269C101.58 168.324 101.746 168.49 101.857 168.656C101.968 168.823 101.857 169.155 101.691 169.321L100.083 170.871C101.58 172.698 103.964 176.187 104.518 179.675C104.463 179.564 104.518 179.62 104.518 179.62ZM93.2649 167.383L93.5421 167.328L94.8171 174.858C94.8171 174.858 94.8171 174.858 94.8726 174.858L96.8682 172.975L97.0899 172.754L97.2562 172.975C98.254 174.193 100.693 177.516 100.915 180.395C102.079 180.284 102.966 180.007 103.742 179.564C103.132 176.021 100.749 172.588 99.3073 170.871L99.141 170.65L101.137 168.767C101.137 168.767 101.137 168.767 101.137 168.712L93.5421 167.217C93.5421 167.217 93.5421 167.217 93.4867 167.217V167.272L93.2649 167.383Z" fill="#293C4F"/>
<path d="M91.3802 199.774C91.4356 199.718 91.5465 199.663 91.5465 199.608L94.7616 192.52C94.7616 192.465 94.8171 192.243 94.8171 192.243C94.8171 192.077 94.6508 192.133 94.4845 192.133C94.429 192.133 94.1519 192.133 94.0964 192.133L91.4356 192.686C91.4356 192.686 91.2693 192.686 91.103 192.742L89.1073 185.045C89.0519 184.879 88.8856 184.769 88.7193 184.824L86.0585 185.544C86.003 185.544 85.8922 185.599 85.8922 185.71C85.8367 185.765 85.8367 185.876 85.8367 185.931L87.7769 193.517L85.5041 194.015C85.3933 194.015 85.2824 194.126 85.2824 194.237C85.227 194.347 85.2824 194.458 85.3933 194.569L91.0475 199.884C91.1584 199.995 91.2693 199.995 91.3802 199.94V199.774Z" fill="white"/>
<path d="M95.1497 192.133C95.1497 192.41 94.9834 192.797 94.9834 192.797L91.8236 199.718C91.7682 199.884 91.6019 199.995 91.5465 199.995H91.491C91.2693 200.106 90.9367 200.051 90.7704 199.884L85.1161 194.569C84.9498 194.403 84.8943 194.181 84.9498 193.905C85.0052 193.683 85.1715 193.517 85.4487 193.517L87.3889 193.129L85.5041 185.821C85.4487 185.655 85.5041 185.488 85.5595 185.322C85.615 185.212 85.7813 185.101 85.8922 185.045L88.553 184.326C88.7193 184.27 88.8856 184.326 89.0519 184.381C89.1628 184.436 89.2736 184.603 89.3291 184.713L91.2693 192.188C91.3247 192.188 91.3801 192.188 91.3801 192.188L94.041 191.634C94.041 191.579 94.429 191.579 94.429 191.579C94.6508 191.69 95.1497 191.579 95.1497 192.133ZM91.2693 199.497L94.429 192.41C94.429 192.41 94.429 192.41 94.429 192.354H94.3736C94.3182 192.354 94.1518 192.354 94.0964 192.354L91.3801 192.908C91.3801 192.908 91.2138 192.908 91.0475 192.963L90.7704 193.019L88.7193 184.99H88.6639L86.003 185.71L87.9986 193.572L85.3932 194.126C85.3932 194.126 85.3932 194.126 85.3932 194.181L91.0475 199.497H91.103H91.2693Z" fill="#293C4F"/>
<path d="M173.146 109.798L160.728 115.501C160.618 115.557 160.562 115.667 160.562 115.778C160.562 115.889 160.618 116 160.728 116.055L164.498 118.214L155.074 134.382C155.019 134.438 155.019 134.548 155.019 134.604C155.019 134.659 155.074 134.77 155.185 134.77L160.396 137.76C160.562 137.871 160.728 137.815 160.895 137.649L170.319 121.481L174.199 123.696C174.31 123.751 174.421 123.751 174.532 123.696C174.642 123.641 174.698 123.53 174.698 123.419L173.755 110.075C173.755 110.02 173.7 109.909 173.645 109.854L173.589 109.798C173.478 109.743 173.257 109.743 173.146 109.798Z" fill="white"/>
<path d="M174.864 123.53C174.864 123.752 174.753 123.918 174.587 124.084C174.421 124.195 174.199 124.195 173.922 124.084L170.318 122.035L161.061 137.982C160.895 138.259 160.451 138.369 160.174 138.203L154.963 135.213C154.852 135.158 154.741 134.992 154.686 134.881C154.631 134.715 154.686 134.549 154.741 134.383L163.999 118.436L160.451 116.443C160.285 116.332 160.174 116.166 160.174 115.89C160.174 115.668 160.34 115.502 160.507 115.336L172.924 109.633C173.146 109.522 173.478 109.577 173.645 109.744L173.7 109.799C173.811 109.91 173.866 110.02 173.866 110.186L174.864 123.53ZM155.296 134.604L160.507 137.594H160.562L170.097 121.094L174.199 123.53C174.199 123.53 174.199 123.53 174.254 123.53L173.312 110.186L173.257 110.131C173.257 110.131 173.257 110.131 173.201 110.131L160.784 115.834L164.775 118.104L155.296 134.604Z" fill="#293C4F"/>
<path d="M203.912 179.841V180.117H203.634L203.579 180.284H203.524L203.579 180.117H203.357L203.246 179.619L203.912 179.841Z" fill="#293C4F"/>
<path d="M194.266 173.03L191.273 176.242L203.69 180.007L201.916 166.165L198.313 169.21C198.313 169.21 193.324 160.24 184.399 155.811L181.461 161.624C188.445 165.113 194.266 173.03 194.266 173.03Z" fill="white"/>
<path d="M203.967 180.505L190.663 176.463L193.823 173.031C192.88 171.812 187.503 165.057 181.294 161.957L181.073 161.846L184.232 155.479L184.454 155.589C192.326 159.576 197.315 167.161 198.313 168.822L202.082 165.666L203.967 180.505ZM191.716 176.131L203.246 179.619L201.583 166.829L198.146 169.764L197.98 169.487C197.925 169.432 193.047 160.739 184.51 156.309L181.849 161.68C188.667 165.223 194.432 172.92 194.432 172.975L194.543 173.141L191.716 176.131Z" fill="#293C4F"/>
<path d="M180.906 206.64L180.796 206.695L180.906 206.64Z" fill="#DBDBDB"/>
<path d="M181.239 206.695L181.017 206.861L180.74 206.639L180.574 206.75L180.74 206.639L180.574 206.418L180.962 206.03L181.239 206.695Z" fill="#293C4F"/>
<path d="M178.578 179.01C180.629 186.817 179.687 196.23 179.687 196.23L175.308 196.008L180.796 206.639L189.332 196.894L185.064 196.673C185.064 196.673 186.893 187.149 183.456 176.629L178.578 179.01Z" fill="white"/>
<path d="M189.998 196.562L180.74 207.082L174.809 195.62L179.41 195.897C179.465 195.178 179.576 193.35 179.576 190.969C179.576 187.869 179.354 183.273 178.301 179.065L178.246 178.844L183.734 176.075L183.845 176.407C185.175 180.726 185.896 185.322 185.896 190.139C185.896 193.184 185.618 195.51 185.508 196.34L189.998 196.562ZM180.962 206.085L188.778 197.115L184.842 196.894L184.898 196.562C184.898 196.562 185.397 193.959 185.397 190.139C185.397 185.488 184.731 181.058 183.456 176.961L179.022 179.176C180.075 183.273 180.241 187.869 180.241 190.969C180.241 194.015 180.02 196.285 180.02 196.285V196.562L175.917 196.34L180.962 206.085Z" fill="#293C4F"/>
<path d="M166.992 200.659C161.338 204.092 151.859 205.587 151.859 205.587L150.806 201.711L143.156 209.463L154.187 214.169L153.189 210.404C153.189 210.404 163.777 209.131 169.432 205.31L166.992 200.659Z" fill="white"/>
<path d="M169.82 205.477L169.598 205.588C164.498 209.076 155.462 210.46 153.577 210.682L154.631 214.724L142.768 209.685L142.879 209.353L150.972 201.158L152.081 205.255C153.688 204.979 161.782 203.428 166.826 200.383L167.103 200.217L169.82 205.477ZM152.746 210.239L153.078 210.183C153.189 210.183 163.389 208.91 168.988 205.255L166.882 201.103C161.172 204.425 152.025 205.92 151.914 205.92L151.693 205.975L150.695 202.321L143.766 209.408L153.855 213.727L152.746 210.239Z" fill="#293C4F"/>
<path d="M142.601 201.434L142.989 196.728C133.399 196.617 128.632 194.624 128.632 194.624L129.353 190.914L119.707 194.956V195.011L127.135 202.763L127.856 199.164C127.69 199.219 135.838 201.877 142.601 201.434Z" fill="white"/>
<path d="M143.267 196.452L142.768 201.767H142.546C136.67 202.155 129.463 200.106 127.856 199.663L127.08 203.483L119.097 195.178L119.264 194.846L129.574 190.472L128.798 194.458C129.852 194.79 134.563 196.396 142.823 196.452H143.267ZM142.269 201.158L142.601 197.061C133.288 196.95 128.632 195.012 128.466 194.901L128.244 194.79L128.909 191.413L120.095 195.123L126.803 202.099L127.468 198.722L127.745 198.832C127.856 198.943 135.783 201.49 142.269 201.158Z" fill="#293C4F"/>
</g>
<defs>
<linearGradient id="paint0_linear_3632_75848" x1="209.355" y1="152.862" x2="259.606" y2="231.921" gradientUnits="userSpaceOnUse">
<stop offset="0.4054" stop-color="#032A3D" stop-opacity="0"/>
<stop offset="1" stop-color="#032A3D"/>
</linearGradient>
<linearGradient id="paint1_linear_3632_75848" x1="237.787" y1="216.776" x2="243.686" y2="191.669" gradientUnits="userSpaceOnUse">
<stop offset="0.2069" stop-color="#032A3D"/>
<stop offset="0.5151" stop-color="#032A3D" stop-opacity="0.2"/>
<stop offset="0.9216" stop-color="#032A3D"/>
</linearGradient>
<linearGradient id="paint2_linear_3632_75848" x1="227.353" y1="183.59" x2="268.86" y2="193.469" gradientUnits="userSpaceOnUse">
<stop offset="0.3715" stop-color="white" stop-opacity="0"/>
<stop offset="0.7103" stop-color="#FFFCFF"/>
</linearGradient>
<linearGradient id="paint3_linear_3632_75848" x1="142.227" y1="152.899" x2="8.99546" y2="187.19" gradientUnits="userSpaceOnUse">
<stop offset="0.2655" stop-color="#032A3D" stop-opacity="0"/>
<stop offset="0.7809" stop-color="#032A3D"/>
</linearGradient>
<radialGradient id="paint4_radial_3632_75848" cx="0" cy="0" r="1" gradientUnits="userSpaceOnUse" gradientTransform="translate(179.086 163.782) rotate(-90) scale(70.7251 70.4453)">
<stop offset="0.4054" stop-color="#032A3D" stop-opacity="0"/>
<stop offset="1" stop-color="#032A3D"/>
</radialGradient>
<linearGradient id="paint5_linear_3632_75848" x1="116.149" y1="143.385" x2="68.1145" y2="189.45" gradientUnits="userSpaceOnUse">
<stop offset="0.3301" stop-color="#C4FFFF"/>
<stop offset="0.8279" stop-color="#47B4FF"/>
<stop offset="1" stop-color="#0C37A6"/>
</linearGradient>
<clipPath id="clip0_3632_75848">
<rect width="330" height="330" fill="white"/>
</clipPath>
</defs>
</svg>
