<svg width="385" height="100" viewBox="0 0 385 100" fill="none" xmlns="http://www.w3.org/2000/svg">
<g clip-path="url(#clip0_4034_68937)">
<path d="M354.235 48.3034C354.235 60.3516 347.832 70.7811 338.247 76.6003C334.842 76.9076 328.561 76.4978 322.361 76.4978C312.368 76.4978 299.99 71.1704 296.38 69.6746C291.486 63.9579 288.488 56.4175 288.488 48.3034C288.488 38.878 292.485 30.3336 298.787 24.3095C301.479 23.4079 310.268 22.8137 318.976 22.8137C330.559 22.8137 345.242 27.3215 348.954 30.5385C352.339 35.661 354.235 41.7876 354.235 48.3034Z" fill="url(#paint0_linear_4034_68937)"/>
<path d="M327.662 82.1326C320.178 82.1326 312.368 81.3335 305.985 78.9157C302.987 77.8092 298.888 75.5963 294.605 73.4039C287.203 69.5927 278.821 65.2693 273.417 64.3677C264.73 63.0563 252.637 62.667 252.535 62.667L252.637 60.659C252.739 60.659 264.934 61.0688 273.723 62.4621C279.515 63.3637 288.018 67.7896 295.503 71.7032C299.806 73.9161 303.803 76.0266 306.698 77.1331C321.891 82.9522 345.955 79.1411 351.563 77.7273C362.942 75.0226 377.829 65.5766 380.134 63.8759C382.54 62.1753 382.622 57.442 381.337 55.4545C380.439 53.9587 375.933 51.5409 373.343 50.332L373.139 50.2295L372.935 50.0246C372.833 49.8197 360.944 34.3702 345.262 25.8258C336.064 20.8057 319.791 19.5968 301.6 22.4039C284.021 25.1086 273.621 30.8254 270.236 32.649C267.442 34.1448 261.65 38.1608 256.042 41.9925C251.943 44.7996 248.048 47.5043 245.152 49.328C238.361 53.6514 235.058 55.4545 234.956 55.4545L234.059 53.6514C234.059 53.6514 237.464 51.8482 244.153 47.6273C246.947 45.8241 251.046 43.017 254.941 40.2918C260.529 36.3782 266.32 32.4646 269.236 30.8664C272.724 28.9608 283.328 23.244 301.294 20.4369C319.872 17.5273 336.656 18.8386 346.24 24.0431C361.331 32.1777 372.914 46.6233 374.403 48.5288C375.81 49.1231 381.602 51.9507 382.989 54.348C384.579 57.0527 384.579 63.0768 381.194 65.4947C378.89 67.1953 363.615 76.8462 351.93 79.6533C348.647 80.432 338.552 82.1326 327.662 82.1326Z" fill="#383F51"/>
<path d="M244.842 36.1733L244.047 35.5791C244.149 35.4766 251.939 26.2356 271.312 15.3963C285.893 7.2617 306.368 2.44653 322.254 3.45054C357.615 5.66348 384.391 24.9242 384.697 25.1291L384.106 25.9282C383.8 25.7233 357.228 6.647 322.172 4.45456C306.388 3.45054 286.118 8.26572 271.72 16.2978C252.632 27.0347 244.842 36.1733 244.842 36.1733Z" fill="#383F51"/>
<path d="M241.745 61.1506C240.644 61.1506 239.257 59.7368 238.747 58.1386C238.258 56.6428 238.645 55.229 239.95 54.4299C242.642 52.5243 253.042 45.906 255.224 45.5986H255.326C257.019 45.5986 257.733 51.0285 257.733 51.3154C257.937 52.9136 258.222 58.0361 255.428 58.7533C251.635 59.5524 243.233 61.1506 241.745 61.1506ZM255.224 46.6027C253.532 46.91 243.539 53.0366 240.44 55.229C239.338 56.0281 239.44 57.1346 239.644 57.8312C240.052 59.1426 241.133 60.1466 241.643 60.1466C243.05 60.1466 251.431 58.5484 255.021 57.7288C256.02 57.5239 256.428 56.0281 256.611 54.8192C257.121 51.3154 255.836 46.91 255.224 46.6027Z" fill="#383F51"/>
<path d="M259.629 57.442L258.732 57.0322C259.935 54.6144 259.323 51.1106 258.834 48.201C258.528 46.1929 258.242 44.3898 258.528 43.2833C259.221 40.968 264.32 37.9559 269.907 34.657L270.906 34.0628C278.391 29.6369 287.69 26.338 299.273 23.8177C316.26 20.109 337.632 22.7113 348.828 29.7394C356.312 34.4521 362.512 41.7876 366.611 46.6027C368.405 48.8157 370.016 50.6188 370.71 50.9262C372.81 51.8277 378.398 51.6228 378.5 51.6228V52.6268C378.296 52.6268 372.606 52.8317 370.302 51.8277C369.507 51.5204 368.303 50.127 365.897 47.2174C361.9 42.4023 355.802 35.1692 348.42 30.559C337.326 23.6333 316.362 21.2155 299.579 24.8422C288.098 27.342 278.901 30.6614 271.498 34.9848L270.499 35.579C266.705 37.792 260.2 41.5007 259.507 43.6112C259.201 44.5127 259.507 46.2134 259.813 48.037C260.322 51.0286 260.914 54.7373 259.629 57.442Z" fill="#383F51"/>
<path d="M331.657 77.3174C320.87 77.3174 308.777 75.9036 300.497 72.0924C298.091 70.986 295.399 69.6746 292.809 68.4862C287.017 65.679 281.022 62.8719 278.615 62.2572C269.418 59.9418 256.142 62.1547 255.938 62.1547L255.734 61.1507C256.326 61.0483 269.418 58.9378 278.819 61.2532C281.307 61.8474 287.119 64.675 293.196 67.5846C295.786 68.7935 298.498 70.0844 300.884 71.1909C315.567 77.9116 342.649 77.1125 351.724 74.1005C360.819 71.0884 373.912 65.0643 378.194 61.3556C382.191 57.7494 381.783 55.2291 381.681 55.2291L382.681 55.0242C382.681 55.1266 383.272 58.1387 378.786 62.1547C374.381 66.0683 361.309 71.99 352.01 75.1045C348.033 76.4159 340.243 77.3174 331.657 77.3174Z" fill="#383F51"/>
<path d="M337.55 100C334.45 100 313.772 99.5902 296.988 89.8574C274.311 76.7028 264.829 75.5963 264.727 75.5963L264.829 74.5923C265.236 74.5923 274.617 75.6988 297.498 88.9559C315.383 99.3034 337.754 98.8936 337.958 98.8936V99.8976C337.937 100 337.835 100 337.55 100Z" fill="#383F51"/>
<path d="M322.665 65.2693C332.43 65.2693 340.346 57.3156 340.346 47.5043C340.346 37.693 332.43 29.7394 322.665 29.7394C312.9 29.7394 304.984 37.693 304.984 47.5043C304.984 57.3156 312.9 65.2693 322.665 65.2693Z" fill="url(#paint1_linear_4034_68937)"/>
<path d="M330.761 48.5084C335.446 48.5084 339.244 44.6921 339.244 39.9845C339.244 35.2768 335.446 31.4606 330.761 31.4606C326.076 31.4606 322.277 35.2768 322.277 39.9845C322.277 44.6921 326.076 48.5084 330.761 48.5084Z" fill="url(#paint2_linear_4034_68937)"/>
<path d="M315.671 60.3516C317.653 60.3516 319.26 58.737 319.26 56.7453C319.26 54.7536 317.653 53.139 315.671 53.139C313.689 53.139 312.082 54.7536 312.082 56.7453C312.082 58.737 313.689 60.3516 315.671 60.3516Z" fill="url(#paint3_linear_4034_68937)"/>
<path opacity="0.14" d="M333.248 53.0366C333.248 63.9784 325.764 73.2194 315.669 75.7192C313.875 76.211 309.47 73.7112 307.573 73.7112C299.273 71.7031 294.196 68.3837 291.096 66.7855C288.302 62.8719 286.609 58.1592 286.609 53.0366C286.609 40.0869 297.091 29.555 309.98 29.555C322.766 29.5345 333.248 40.0869 333.248 53.0366Z" fill="url(#paint4_linear_4034_68937)"/>
<path d="M299.377 25.4159L301.784 23.9202C301.478 24.1251 297.787 24.8217 297.297 24.8217H297.195C290.894 31.1532 287.305 39.7795 287.305 48.8157C287.305 56.0487 289.507 62.8719 293.708 68.6911C294.299 68.6911 297.297 69.5927 297.705 70.1049L296.298 68.6911C291.812 62.9743 289.405 56.1511 289.405 48.8157C289.303 39.9844 292.994 31.44 299.377 25.4159Z" fill="#383F51"/>
<path d="M349.338 30.0468C349.033 30.0468 345.443 28.1412 345.137 27.9363L347.34 30.5385C350.929 35.9684 352.928 42.2794 352.928 48.8157C352.928 59.5525 347.523 69.5927 338.632 75.5143L335.043 76.9282C335.247 76.8257 339.835 76.6208 340.039 76.6208H340.345C349.542 70.2894 354.926 59.9623 354.926 48.8157C354.926 42.095 352.928 35.6611 349.338 30.0468Z" fill="#383F51"/>
<path d="M126.462 52.6269C126.462 64.6751 116.164 58.1387 106.681 61.663C103.276 61.9704 98.7891 65.7815 93.0995 67.9945C83.5148 71.6007 81.4143 75.4324 77.8047 74.0186C69.5048 66.3962 65.3242 55.557 65.3242 47.4224C65.3242 37.9969 69.3212 29.4526 75.6227 23.4285C78.3146 22.5269 87.5118 24.33 97.6063 26.9323C108.802 29.8419 122.588 38.2838 126.177 41.4803C129.562 46.5003 126.462 46.0086 126.462 52.6269Z" fill="url(#paint5_linear_4034_68937)"/>
<path d="M58.7393 82.1326C47.8494 82.1326 37.7549 80.4319 34.3696 79.6328C22.6845 76.8257 7.49168 67.1953 5.1057 65.4742C1.70007 63.0563 1.70007 57.0527 3.31112 54.3275C4.71824 51.9097 10.6118 49.1026 11.8966 48.5083C13.3853 46.6028 24.9889 32.1572 40.0593 24.0226C49.542 18.7977 66.3255 17.5068 85.0054 20.4164C102.992 23.2235 113.576 29.0427 117.063 30.8458C119.959 32.4441 125.751 36.4601 131.359 40.2713C135.254 42.976 139.353 45.7831 142.147 47.6068C148.835 51.9302 152.241 53.6309 152.241 53.6309L151.344 55.434C151.242 55.3315 147.938 53.6309 141.147 49.3075C138.252 47.5043 134.458 44.7996 130.257 41.972C124.67 38.1608 118.96 34.1448 116.064 32.6285C112.658 30.8254 102.278 25.1086 84.6995 22.3834C66.509 19.5763 50.2354 20.7852 41.0382 25.8053C25.3559 34.3292 13.4668 49.7992 13.3649 50.0041L13.1609 50.209L12.957 50.3115C10.3671 51.5204 5.86024 53.9177 4.96295 55.434C3.75977 57.442 3.75977 62.1548 6.16614 63.8554C8.47055 65.4537 23.3574 74.8996 34.7367 77.7068C40.3244 79.0181 64.4085 82.9317 79.6013 77.1125C82.4971 76.0061 86.4941 73.8956 90.7971 71.6827C98.2813 67.7691 106.887 63.3432 112.577 62.4416C121.366 61.1302 133.561 60.6385 133.663 60.6385L133.765 62.6465C133.663 62.6465 121.57 63.0563 112.883 64.3472C107.479 65.1463 99.097 69.4697 91.6943 73.3833C87.3914 75.5963 83.3128 77.7068 80.3151 78.8952C74.0136 81.3335 66.2235 82.1326 58.7393 82.1326Z" fill="#383F51"/>
<path d="M144.635 61.1507C143.147 61.1507 134.643 59.5525 130.952 58.7329C128.158 58.1387 128.464 52.9137 128.647 51.295C128.647 51.0901 129.341 45.5782 131.054 45.5782H131.156C133.358 45.8856 143.738 52.4015 146.45 54.4095C147.654 55.3111 148.041 56.6224 147.654 58.1182C147.144 59.7574 145.737 61.1507 144.635 61.1507ZM131.054 46.6028C130.564 46.9101 129.259 51.213 129.647 54.8398C129.749 56.0487 130.136 57.5445 131.237 57.7494C134.826 58.5485 143.33 60.1672 144.615 60.1672C145.105 60.1672 146.206 59.1632 146.614 57.8518C146.818 57.0527 146.919 56.0487 145.818 55.2496C142.841 53.0367 132.848 46.9101 131.054 46.6028Z" fill="#383F51"/>
<path d="M126.77 57.4421C125.465 54.7374 126.077 51.0082 126.566 48.0166C126.872 46.2135 127.158 44.4104 126.872 43.5908C126.179 41.4803 119.775 37.7716 115.88 35.5586L114.881 34.9644C107.478 30.641 98.3014 27.3421 86.7998 24.8218C70.0163 21.2155 49.032 23.6129 37.9586 30.5385C30.5559 35.1488 24.4788 42.3818 20.4818 47.197C18.0754 50.1066 16.8926 51.418 16.0769 51.8073C13.7725 52.8113 8.08284 52.6064 7.87891 52.6064V51.6024C7.98087 51.6024 13.5686 51.8073 15.669 50.9057C16.2604 50.5984 17.8715 48.7952 19.768 46.5823C23.867 41.7671 29.9645 34.4317 37.5507 29.7189C48.8484 22.6908 70.1183 20.191 87.1057 23.7973C98.6889 26.2971 107.988 29.6165 115.472 34.0424L116.472 34.6366C122.059 37.8535 127.158 40.968 127.851 43.2629C128.259 44.3694 127.953 46.1725 127.545 48.1805C127.056 51.0901 126.444 54.6144 127.647 57.0118L126.77 57.4421Z" fill="#383F51"/>
<path d="M54.6397 77.3175C46.0543 77.3175 38.3661 76.4159 34.2671 75.0021C24.8863 71.8876 11.896 65.9659 7.49112 62.0523C3.00466 58.1387 3.59605 55.1267 3.59605 54.9218L4.59531 55.1267C4.59531 55.1267 4.18745 57.7289 8.08251 61.2532C12.3854 65.0644 25.4573 70.986 34.5526 73.9981C43.6479 77.0101 70.7094 77.8092 85.3923 71.0885C87.7987 69.982 90.4906 68.6706 93.0805 67.4822C99.178 64.5726 104.868 61.8679 107.458 61.1507C116.838 58.7329 129.931 60.9458 130.542 61.0483L130.338 62.0523C130.237 62.0523 116.859 59.8394 107.661 62.1548C105.174 62.749 99.28 65.6586 93.468 68.3838C90.8781 69.5927 88.1658 70.8836 85.7798 71.99C77.6022 75.9036 65.4276 77.3175 54.6397 77.3175Z" fill="#383F51"/>
<path d="M48.8493 100H48.4414V98.996C48.6453 98.996 71.0164 99.4058 88.9011 89.0583C111.782 75.8012 121.163 74.6947 121.571 74.6947L121.673 75.6987C121.571 75.6987 111.986 76.9076 89.4109 89.9598C72.5255 99.6107 51.9286 100 48.8493 100Z" fill="#383F51"/>
<path d="M81.0078 47.8117C81.0078 57.6469 88.8999 65.5766 98.6885 65.5766C100.789 65.5766 102.094 63.5686 103.889 62.9744C105.989 62.2777 108.987 62.3801 110.292 61.2737C113.983 58.0567 116.39 53.2415 116.39 47.9141C116.39 38.0789 108.498 30.1492 98.7089 30.1492C89.0019 30.0467 81.0078 37.9764 81.0078 47.8117Z" fill="url(#paint6_linear_4034_68937)"/>
<path d="M83.0072 46.2954C85.6539 46.2954 87.7996 44.1396 87.7996 41.4802C87.7996 38.8209 85.6539 36.665 83.0072 36.665C80.3605 36.665 78.2148 38.8209 78.2148 41.4802C78.2148 44.1396 80.3605 46.2954 83.0072 46.2954Z" fill="url(#paint7_linear_4034_68937)"/>
<path d="M71.8103 52.3195C73.4659 52.3195 74.808 50.971 74.808 49.3075C74.808 47.6439 73.4659 46.2954 71.8103 46.2954C70.1546 46.2954 68.8125 47.6439 68.8125 49.3075C68.8125 50.971 70.1546 52.3195 71.8103 52.3195Z" fill="url(#paint8_linear_4034_68937)"/>
<path d="M78.4986 74.5102C69.4033 68.0763 64.2031 57.8517 64.2031 46.8076C64.2031 37.3821 67.7923 28.7353 74.3996 22.7112L76.704 23.0185C70.2191 29.0426 66.222 37.8739 66.222 46.8076C66.222 57.237 71.4222 67.1748 80.2116 73.3013L78.4986 74.5102Z" fill="#383F51"/>
<path opacity="0.14" d="M78.1086 35.866C65.2203 35.866 54.7383 46.3979 54.7383 59.3477C54.7383 64.4702 56.4309 72.5023 59.2247 76.3135C60.7134 77.1126 62.7119 75.0021 65.2203 76.3135C66.5254 76.0061 67.8102 76.1086 69.3193 76.1086C71.2158 76.0061 73.2143 75.9037 75.1109 75.6988C75.3148 75.207 75.7023 74.6948 76.3141 74.4899C77.4153 73.9981 79.4138 74.1825 81.0044 74.0801C81.1064 74.0801 81.1064 73.9776 81.2084 73.9776C82.0037 73.4858 82.901 73.1785 83.7983 72.8711C84.0022 72.8711 84.1042 72.7687 84.2062 72.7687C84.614 72.4613 84.8995 72.1745 85.3074 71.9696C86.2047 71.3754 87.102 71.1704 88.2032 71.068C88.5091 70.8631 88.7946 70.5762 89.2024 70.2689C89.7938 69.7771 90.4056 69.6747 90.997 69.7771C93.9948 67.8715 96.9926 66.0684 100.48 65.0644H100.684C101.092 63.2613 101.377 61.3557 101.377 59.4501C101.479 46.2954 90.997 35.866 78.1086 35.866Z" fill="url(#paint9_linear_4034_68937)"/>
<path d="M140.636 32.9561C140.534 32.8537 132.846 23.7151 113.656 12.9783C99.2789 4.94614 78.9879 0.130962 63.2037 1.13498C28.1686 3.34791 1.57612 22.4037 1.29062 22.6086L0.699219 21.8095C1.00511 21.6046 27.7811 2.3439 63.1426 0.130962C79.1307 -0.873054 99.6052 3.94212 114.084 12.0767C133.458 22.916 141.248 32.157 141.35 32.2595L140.636 32.9561Z" fill="#383F51"/>
<path opacity="0.2" d="M127.258 47.115C125.85 51.2335 129.052 60.5565 124.851 60.2696C121.853 60.0647 117.163 59.6754 106.069 62.3801C96.9739 64.593 84.6973 74.0185 69.1987 75.7397C52.2113 77.6453 38.6296 76.8461 27.9437 72.031C15.3612 66.3142 4.06346 61.6015 4.36935 55.7618C4.47132 53.5489 6.06197 52.7498 7.67302 52.258C9.26367 51.7662 12.7713 52.7498 15.4631 51.1515C19.1543 48.9386 24.2525 41.9105 27.7601 37.9969C36.1416 28.7558 51.7423 22.3424 69.321 22.3424C89.9995 22.3424 105.192 28.469 116.674 35.1897C120.956 37.5666 129.052 41.5826 127.258 47.115Z" fill="url(#paint10_radial_4034_68937)"/>
<path opacity="0.2" d="M258.734 47.5042C260.141 51.6228 256.939 60.9458 261.14 60.6589C264.138 60.454 268.828 60.0647 279.922 62.7694C289.017 64.9823 301.294 74.4078 316.793 76.129C333.78 78.0345 347.362 77.2354 358.048 72.4202C370.63 66.7035 381.928 61.9908 381.622 56.1511C381.52 53.9381 379.929 53.139 378.318 52.6473C376.728 52.1555 373.22 53.139 370.528 51.5408C366.837 49.3279 361.739 42.2998 358.231 38.3861C349.85 29.1451 334.249 22.7317 316.67 22.7317C295.992 22.7317 280.799 28.8582 269.318 35.579C265.015 37.9763 256.837 41.89 258.734 47.5042Z" fill="url(#paint11_radial_4034_68937)"/>
</g>
<defs>
<linearGradient id="paint0_linear_4034_68937" x1="286.254" y1="86.3196" x2="357.927" y2="6.68821" gradientUnits="userSpaceOnUse">
<stop offset="0.05" stop-color="#CD8F48"/>
<stop offset="0.39" stop-color="#CC7446"/>
<stop offset="0.81" stop-color="#4D2D27"/>
<stop offset="0.88" stop-color="#4D2A00"/>
</linearGradient>
<linearGradient id="paint1_linear_4034_68937" x1="303.63" y1="67.5043" x2="343.088" y2="23.6646" gradientUnits="userSpaceOnUse">
<stop offset="0.05" stop-color="#392339"/>
<stop offset="0.88" stop-color="#263146"/>
</linearGradient>
<linearGradient id="paint2_linear_4034_68937" x1="321.766" y1="48.7192" x2="340.802" y2="27.5742" gradientUnits="userSpaceOnUse">
<stop stop-color="#5CA7AF"/>
<stop offset="0.81" stop-color="white"/>
</linearGradient>
<linearGradient id="paint3_linear_4034_68937" x1="311.984" y1="59.5324" x2="320.131" y2="50.4845" gradientUnits="userSpaceOnUse">
<stop stop-color="#5CA7AF"/>
<stop offset="0.81" stop-color="white"/>
</linearGradient>
<linearGradient id="paint4_linear_4034_68937" x1="285.103" y1="79.5324" x2="336.685" y2="22.2259" gradientUnits="userSpaceOnUse">
<stop stop-color="#5CA7AF"/>
<stop offset="0.81" stop-color="white"/>
</linearGradient>
<linearGradient id="paint5_linear_4034_68937" x1="62.138" y1="82.2734" x2="125.212" y2="12.1999" gradientUnits="userSpaceOnUse">
<stop offset="0.05" stop-color="#CD8F48"/>
<stop offset="0.39" stop-color="#CC7446"/>
<stop offset="0.81" stop-color="#4D2D27"/>
<stop offset="0.88" stop-color="#4D2A00"/>
</linearGradient>
<linearGradient id="paint6_linear_4034_68937" x1="117.53" y1="67.8356" x2="78.0717" y2="23.9859" gradientUnits="userSpaceOnUse">
<stop offset="0.05" stop-color="#392339"/>
<stop offset="0.88" stop-color="#263146"/>
</linearGradient>
<linearGradient id="paint7_linear_4034_68937" x1="87.7427" y1="45.6469" x2="77.0946" y2="33.8096" gradientUnits="userSpaceOnUse">
<stop stop-color="#5CA7AF"/>
<stop offset="0.81" stop-color="white"/>
</linearGradient>
<linearGradient id="paint8_linear_4034_68937" x1="74.5813" y1="51.2694" x2="67.9715" y2="43.9311" gradientUnits="userSpaceOnUse">
<stop stop-color="#5CA7AF"/>
<stop offset="0.81" stop-color="white"/>
</linearGradient>
<linearGradient id="paint9_linear_4034_68937" x1="50.1346" y1="87.2433" x2="104.379" y2="26.9674" gradientUnits="userSpaceOnUse">
<stop stop-color="#5CA7AF"/>
<stop offset="0.81" stop-color="white"/>
</linearGradient>
<radialGradient id="paint10_radial_4034_68937" cx="0" cy="0" r="1" gradientUnits="userSpaceOnUse" gradientTransform="translate(66.2044 47.7954) scale(47.5646 47.7912)">
<stop offset="0.27" stop-color="#212F3C" stop-opacity="0"/>
<stop offset="1" stop-color="#212F3C"/>
</radialGradient>
<radialGradient id="paint11_radial_4034_68937" cx="0" cy="0" r="1" gradientUnits="userSpaceOnUse" gradientTransform="translate(319.646 48.187) rotate(-180) scale(47.5746 47.8012)">
<stop offset="0.27" stop-color="#212F3C" stop-opacity="0"/>
<stop offset="1" stop-color="#212F3C"/>
</radialGradient>
<clipPath id="clip0_4034_68937">
<rect width="384" height="100" fill="white" transform="translate(0.699219)"/>
</clipPath>
</defs>
</svg>
