<svg width="330" height="330" viewBox="0 0 330 330" fill="none" xmlns="http://www.w3.org/2000/svg">
<g clip-path="url(#clip0_3671_12241)">
<path d="M220.804 155.512C214.499 148.971 214.44 149.148 211.612 145.907C206.367 139.955 190.574 120.155 166.708 119.979H166.472C142.606 120.155 126.813 139.955 121.569 145.907C118.622 149.266 118.681 149.148 111.728 156.337C94.933 171.423 84.3848 193.227 84.3848 217.564C84.3848 252.921 106.66 283.034 137.951 294.702C137.951 294.761 138.304 294.879 138.304 294.937C140.308 295.762 147.026 298.002 152.801 298.768C157.103 299.475 162.17 299.829 166.649 299.829C212.142 299.829 248.972 262.998 248.972 217.505C248.913 192.755 238.07 170.598 220.804 155.512Z" fill="#DBDBDB"/>
<path d="M166.65 300.241C161.935 300.241 156.868 299.829 152.743 299.18C146.85 298.414 140.25 296.234 138.128 295.291L137.893 295.173V295.114C137.834 295.114 137.775 295.055 137.716 294.996C122.1 289.162 108.782 278.85 99.0587 265.179C89.1587 251.212 83.9141 234.712 83.9141 217.505C83.9141 205.543 86.389 194.052 91.339 183.268C96.1123 172.896 102.83 163.704 111.375 155.984C112.435 154.923 113.319 153.98 114.085 153.214C118.387 148.795 118.741 148.441 121.216 145.612C121.51 145.318 121.805 144.905 122.159 144.493C125.105 141.134 130.585 134.829 138.01 129.466C147.085 122.925 156.632 119.625 166.414 119.507H166.65C176.373 119.566 185.919 122.925 195.053 129.466C202.478 134.829 207.959 141.134 210.905 144.493C211.259 144.905 211.553 145.259 211.848 145.612C213.734 147.734 214.441 148.441 216.444 150.504C217.505 151.564 218.919 153.037 221.041 155.218C229.821 162.879 236.775 172.189 241.666 182.737C246.734 193.639 249.327 205.366 249.327 217.505C249.327 228.643 247.146 239.486 242.844 249.68C238.66 259.521 232.709 268.361 225.107 275.962C217.505 283.564 208.666 289.516 198.825 293.7C188.63 298.061 177.787 300.241 166.65 300.241ZM138.482 294.584C140.368 295.35 147.027 297.589 152.802 298.355C156.927 299.004 161.935 299.416 166.591 299.416C211.73 299.416 248.502 262.645 248.502 217.505C248.502 193.875 238.307 171.423 220.51 155.866C218.389 153.686 216.975 152.212 215.914 151.152C213.852 149.089 213.203 148.382 211.259 146.202C210.964 145.907 210.669 145.495 210.316 145.082C204.541 138.364 189.043 120.568 166.709 120.391H166.473C144.08 120.568 128.641 138.364 122.866 145.082C122.512 145.495 122.218 145.848 121.923 146.202C119.389 149.03 119.094 149.443 114.734 153.862C113.968 154.629 113.084 155.571 112.023 156.632C94.7569 172.13 84.798 194.346 84.798 217.564C84.798 251.625 106.248 282.445 138.128 294.289L138.364 294.348V294.407C138.364 294.466 138.423 294.525 138.482 294.584Z" fill="#323A50"/>
<path d="M166.649 300.654C155.453 300.654 144.61 298.473 134.356 294.113C124.515 289.929 115.617 283.977 108.015 276.316C100.413 268.714 94.4027 259.816 90.2188 249.975C85.917 239.78 83.6777 228.879 83.6777 217.682C83.6777 205.661 86.2116 194.17 91.1027 183.327C95.8759 172.896 102.653 163.704 111.197 155.984C117.797 149.207 118.033 148.912 120.626 145.966L121.038 145.495C121.333 145.141 121.687 144.729 122.099 144.316C125.281 140.662 130.526 134.534 138.01 129.171C147.085 122.63 156.631 119.271 166.413 119.154H166.649C176.372 119.212 185.978 122.571 195.053 129.171C202.478 134.534 207.781 140.662 210.963 144.316C211.376 144.787 211.671 145.141 212.024 145.495C214.853 148.736 214.912 148.795 221.158 155.277C229.997 162.996 236.892 172.248 241.842 182.855C246.91 193.816 249.503 205.543 249.503 217.682C249.503 228.879 247.322 239.721 242.962 249.975C238.778 259.816 232.826 268.714 225.165 276.316C217.563 283.918 208.665 289.929 198.824 294.113C188.688 298.414 177.846 300.654 166.649 300.654ZM166.708 120.391H166.472C144.315 120.568 128.876 138.364 123.042 145.082C122.63 145.554 122.335 145.907 121.981 146.261L121.569 146.732C119.035 149.62 118.74 149.973 112.081 156.809H112.022C94.8152 172.307 84.9152 194.464 84.9152 217.623C84.9152 262.704 121.569 299.357 166.649 299.357C211.73 299.357 248.383 262.704 248.383 217.623C248.383 194.052 238.188 171.659 220.451 156.102L220.392 156.043C214.087 149.502 214.028 149.443 211.199 146.202C210.905 145.848 210.551 145.436 210.138 145.023C204.305 138.423 188.865 120.627 166.708 120.391Z" fill="#323A50"/>
<path opacity="0.83" d="M210.374 156.102C212.378 153.98 213.026 151.918 209.962 148.5C204.894 142.725 189.631 123.455 166.531 123.22H166.296C143.196 123.397 127.992 142.666 122.865 148.441C119.86 151.859 121.451 154.393 122.099 155.807C124.044 159.52 126.931 160.168 127.698 159.697C133.06 156.397 135.83 147.793 141.958 145.789C142.135 145.73 150.974 141.547 165.765 141.429C165.824 141.429 175.783 141.37 185.212 144.316C193.992 146.673 199.473 155.984 204.894 159.343C206.662 160.345 208.783 157.811 210.374 156.102Z" fill="url(#paint0_linear_3671_12241)"/>
<path d="M166.355 292.875C124.575 292.875 90.75 258.991 90.75 217.211C90.75 192.637 102.477 170.775 120.686 156.986" fill="#DBDBDB"/>
<path d="M166.295 293.229C155.983 293.229 146.083 291.225 136.713 287.277C127.638 283.446 119.565 277.966 112.552 270.953C105.54 263.941 100.118 255.868 96.2291 246.793C92.2809 237.423 90.2773 227.464 90.2773 217.211C90.2773 205.13 93.047 193.58 98.4684 182.855C103.654 172.661 111.197 163.586 120.331 156.632L120.802 157.28C101.886 171.659 91.0434 193.462 91.0434 217.211C91.0434 258.696 124.809 292.462 166.236 292.462V293.229H166.295Z" fill="#323A50"/>
<path d="M166.355 286.57C204.661 286.57 235.714 255.517 235.714 217.211C235.714 178.905 204.661 147.852 166.355 147.852C128.049 147.852 96.9961 178.905 96.9961 217.211C96.9961 255.517 128.049 286.57 166.355 286.57Z" fill="#DBDBDB"/>
<path d="M166.355 286.864C147.733 286.864 130.232 279.616 117.09 266.475C103.949 253.334 96.7012 235.832 96.7012 217.211C96.7012 198.589 103.949 181.087 117.09 167.946C130.232 154.805 147.733 147.557 166.355 147.557C184.976 147.557 202.478 154.805 215.619 167.946C228.76 181.087 236.008 198.589 236.008 217.211C236.008 235.832 228.76 253.334 215.619 266.475C202.478 279.616 184.976 286.864 166.355 286.864ZM166.355 148.146C128.287 148.146 97.2905 179.143 97.2905 217.211C97.2905 255.279 128.287 286.275 166.355 286.275C204.423 286.275 235.419 255.279 235.419 217.211C235.419 179.143 204.423 148.146 166.355 148.146Z" fill="#323A50"/>
<g opacity="0.1">
<path d="M226.638 244.848L226.167 244.789C225.872 247.147 219.036 250.329 217.563 250.564C216.974 250.682 216.62 250.506 216.267 250.388C215.736 250.211 215.265 249.975 214.322 250.506C212.79 251.448 207.486 257.223 206.308 260.052C205.129 262.881 204.422 264.413 201.711 265.473C200.297 266.063 198.058 266.063 195.701 266.063C193.579 266.063 191.34 266.063 189.631 266.534C187.038 267.241 184.563 268.42 183.385 269.009C184.033 268.302 184.622 267.595 185.211 266.888C186.272 265.65 187.215 264.531 187.804 264.118C188.57 263.529 191.34 263.293 194.286 262.939C198.235 262.527 202.713 262.056 204.069 260.7C205.601 259.227 207.84 253.629 209.667 249.15C210.61 246.793 211.435 244.672 211.906 243.847C212.436 242.963 213.91 241.961 215.501 240.959C218.152 239.191 221.217 237.129 221.158 234.713H220.686C220.745 236.893 217.799 238.838 215.265 240.547C213.556 241.666 212.083 242.668 211.552 243.611C211.022 244.495 210.197 246.557 209.254 248.973C207.486 253.452 205.247 258.932 203.774 260.347C203.244 260.818 202.242 261.231 200.945 261.525C201.77 261.054 202.831 260.347 203.538 259.404C204.835 257.813 205.895 253.923 206.485 251.802C206.602 251.448 206.661 251.154 206.72 250.918C206.897 250.27 206.661 249.857 206.426 249.445C206.131 248.973 205.836 248.502 206.013 247.323C206.249 246.027 206.956 245.497 207.781 244.966C208.311 244.554 208.842 244.2 209.254 243.552C210.197 241.961 209.608 240.37 209.313 239.486V239.427C209.077 238.838 208.547 238.897 208.135 238.897C207.722 238.956 207.486 238.956 207.369 238.72C207.251 238.484 207.545 238.013 207.899 237.541C208.37 236.834 208.96 236.068 208.606 235.302L208.194 235.479C208.429 236.009 207.958 236.657 207.545 237.247C207.074 237.895 206.72 238.484 207.015 238.956C207.31 239.486 207.84 239.427 208.252 239.368C208.665 239.309 208.842 239.309 208.96 239.545V239.604C209.254 240.429 209.785 241.843 208.96 243.257C208.606 243.788 208.135 244.141 207.604 244.554C206.779 245.143 205.954 245.732 205.66 247.206C205.424 248.561 205.777 249.15 206.131 249.622C206.367 249.975 206.485 250.211 206.367 250.682C206.308 250.859 206.249 251.213 206.131 251.566C205.601 253.452 204.54 257.459 203.244 258.991C201.829 260.759 199.413 261.643 199.177 261.761C197.645 261.997 195.936 262.173 194.286 262.35C191.163 262.704 188.511 262.998 187.627 263.588C186.979 264.059 186.036 265.179 184.976 266.416C182.854 268.891 179.967 272.309 177.963 272.191C176.902 272.132 175.783 271.897 174.604 271.661C172.247 271.189 169.536 270.6 166.59 271.131C160.579 272.25 158.517 273.429 157.338 274.843C156.16 276.198 155.57 277.966 155.57 278.025L155.983 278.202C155.983 278.202 156.572 276.434 157.692 275.197C158.811 273.841 160.815 272.722 166.649 271.661C169.477 271.131 172.129 271.661 174.486 272.191C175.724 272.427 176.844 272.663 177.904 272.781C179.377 272.898 181.145 271.425 182.854 269.598L182.913 269.775C182.972 269.775 186.272 267.889 189.749 266.947C191.399 266.475 193.638 266.475 195.701 266.475C198.058 266.475 200.356 266.475 201.888 265.886C204.717 264.766 205.542 263.057 206.72 260.17C207.84 257.459 213.026 251.743 214.499 250.859C215.206 250.388 215.56 250.564 216.031 250.741C216.444 250.918 216.856 251.095 217.563 250.977C219.331 250.8 226.344 247.5 226.638 244.848Z" fill="#323A50"/>
<path d="M171.245 255.809C170.479 256.634 170.597 257.989 170.714 259.639C170.832 261.172 171.009 262.88 170.302 264.295C168.947 267.064 162.936 269.186 162.877 269.245L162.995 269.716C163.23 269.657 169.241 267.477 170.655 264.53C171.363 262.998 171.245 261.23 171.127 259.639C171.009 258.166 170.891 256.87 171.539 256.222C172.247 255.514 174.781 254.925 176.961 254.454C179.554 253.864 181.734 253.334 182.323 252.627C182.854 251.92 182.972 251.272 183.03 250.682C183.148 250.034 183.207 249.563 183.797 249.15C184.091 248.973 185.623 249.032 187.214 249.15C191.752 249.386 198.588 249.798 201.004 246.439C202.948 243.729 202.3 241.784 201.711 240.075C201.239 238.661 200.827 237.482 201.711 236.009C202.359 234.83 203.597 234.477 204.952 234.005C207.604 233.18 210.845 232.12 212.966 225.343C213.438 223.752 213.202 222.102 212.966 220.57C212.672 218.507 212.318 216.504 213.556 214.677L213.143 214.441C211.788 216.445 212.141 218.625 212.436 220.688C212.672 222.279 212.907 223.811 212.436 225.284C210.432 231.825 207.25 232.827 204.775 233.652C203.302 234.123 202.064 234.536 201.298 235.832C200.355 237.482 200.827 238.897 201.298 240.311C201.888 242.02 202.477 243.788 200.65 246.263C198.352 249.445 191.398 249.032 187.273 248.797C185.682 248.738 184.681 248.679 184.091 248.738C184.327 248.089 184.504 247.205 184.681 246.145C184.975 244.377 185.329 242.373 186.331 241.254C186.861 240.723 187.568 240.488 188.57 240.193C190.868 239.545 194.05 238.602 196.584 232.12V232.061C197.055 229.822 196.525 228.23 195.995 227.347C195.759 226.934 195.288 226.698 194.816 226.522C194.286 226.286 193.697 225.991 193.225 225.284C192.4 224.047 192.047 217.211 192.341 215.855C192.341 215.738 192.4 215.679 192.4 215.679C192.459 215.62 192.754 215.738 192.989 215.797C193.697 216.032 194.934 216.504 196.407 215.443L196.172 215.03C194.875 215.973 193.932 215.62 193.225 215.325C192.813 215.207 192.518 215.089 192.282 215.207C192.164 215.266 192.047 215.443 191.988 215.679C191.752 216.975 191.988 223.988 192.931 225.461C193.461 226.227 194.168 226.58 194.698 226.816C195.111 226.993 195.464 227.17 195.641 227.464C196.113 228.289 196.584 229.763 196.172 231.825C193.756 238.072 190.691 238.955 188.511 239.604C187.509 239.898 186.684 240.134 186.095 240.782C184.975 242.02 184.622 244.082 184.268 245.909C184.091 247.147 183.856 248.266 183.502 248.738C182.854 249.209 182.736 249.857 182.618 250.505C182.5 251.095 182.441 251.625 181.97 252.273C181.498 252.922 179.082 253.452 176.902 253.923C174.368 254.454 172.011 254.984 171.245 255.809Z" fill="#323A50"/>
<path d="M171.894 209.373C172.483 210.022 172.955 210.493 172.66 211.907C172.483 212.85 171.953 214.205 171.364 215.62C170.362 218.154 169.36 220.805 169.832 221.984C170.067 222.573 170.421 222.986 170.775 223.398C171.482 224.223 172.248 225.166 171.894 227.759C171.6 229.88 170.48 231.53 169.537 232.827C168.771 234.005 168.064 235.007 168.182 235.95C168.241 236.716 168.653 237.247 169.066 237.718C169.773 238.602 170.539 239.545 169.537 241.902C168.771 243.729 167.71 244.141 166.885 244.554C166.001 244.966 165.176 245.32 165.471 247.029C165.766 248.855 166.944 250.034 168.064 251.213C168.889 252.038 169.714 252.922 170.244 254.041L170.657 253.864C170.067 252.686 169.242 251.802 168.358 250.918C167.239 249.798 166.178 248.679 165.883 247.029C165.648 245.673 166.119 245.438 167.062 245.025C167.946 244.613 169.125 244.141 169.95 242.138C171.069 239.545 170.185 238.425 169.36 237.482C168.948 236.952 168.594 236.539 168.535 235.95C168.476 235.184 169.066 234.3 169.832 233.122C170.775 231.766 171.894 230.057 172.248 227.818C172.719 224.989 171.835 223.929 171.069 223.045C170.716 222.632 170.421 222.279 170.244 221.748C169.832 220.688 170.892 218.095 171.776 215.738C172.366 214.323 172.896 212.909 173.073 211.907C173.426 210.257 172.837 209.609 172.189 208.961C171.776 208.489 171.305 208.077 171.128 207.134L170.657 207.252C170.951 208.372 171.482 208.902 171.894 209.373Z" fill="#323A50"/>
<path d="M174.25 272.898C172.659 272.132 168.711 271.779 166.236 272.25C163.878 272.663 159.753 273.606 158.162 275.373C157.278 276.375 156.395 278.32 156.395 278.379L156.807 278.556C156.807 278.556 157.632 276.611 158.516 275.668C160.048 273.959 164.527 273.016 166.353 272.722C168.946 272.25 172.718 272.722 174.073 273.37C175.546 274.077 176.077 275.138 176.136 275.668C176.312 277.318 173.602 278.791 173.602 278.791L173.778 279.204C173.896 279.145 176.784 277.613 176.548 275.609C176.489 274.784 175.782 273.606 174.25 272.898Z" fill="#323A50"/>
<path d="M175.489 244.495C176.314 244.789 177.139 245.143 177.669 245.909C178.318 246.793 179.614 249.091 177.846 251.095C177.139 251.92 175.371 252.568 173.662 253.157C172.012 253.747 170.421 254.336 169.891 255.102C169.36 255.927 169.419 257.341 169.596 258.991C169.714 260.464 169.773 261.938 169.478 263.175C168.771 265.591 162.702 268.479 162.643 268.538L162.819 268.95C163.055 268.832 169.125 265.945 169.891 263.352C170.244 262.055 170.127 260.464 170.009 259.05C169.891 257.577 169.832 256.163 170.244 255.514C170.657 254.866 172.248 254.277 173.78 253.747C175.548 253.098 177.316 252.45 178.141 251.507C179.496 249.916 179.437 247.854 177.964 245.791C177.375 244.966 176.432 244.554 175.607 244.259C174.782 243.905 174.016 243.611 173.662 242.845C172.955 241.313 173.485 239.604 174.428 239.014C174.664 238.838 174.959 238.72 175.194 238.543C176.019 238.013 176.903 237.541 177.964 236.363C179.378 234.83 181.971 228.643 182.502 225.638C182.796 223.87 182.325 223.104 181.794 222.279C181.382 221.63 180.969 220.982 180.852 219.686L180.38 219.745C180.498 221.1 180.969 221.866 181.382 222.514C181.853 223.28 182.266 223.988 182.03 225.52C181.559 228.466 179.025 234.536 177.669 235.95C176.668 237.07 175.784 237.541 175.018 238.013C174.782 238.189 174.487 238.307 174.252 238.484C173.132 239.191 172.484 241.195 173.309 242.904C173.662 243.788 174.546 244.141 175.489 244.495Z" fill="#323A50"/>
</g>
<g opacity="0.1">
<path d="M155.454 271.13C155.277 269.893 153.863 268.95 152.449 267.948C151.329 267.182 149.679 266.239 148.147 265.414C146.851 264.707 145.672 264.059 145.26 263.705C145.142 263.646 145.024 263.47 144.906 263.293C144.199 262.173 143.668 259.463 143.786 257.282C143.845 256.045 143.727 255.102 143.668 254.336C143.551 253.511 143.492 252.921 143.727 252.391C143.904 251.979 144.199 251.92 144.67 251.861C145.142 251.802 145.79 251.684 146.026 250.918C146.261 250.27 146.143 249.562 146.085 248.855C145.967 248.148 145.908 247.559 146.202 247.087C146.497 246.675 146.792 246.557 147.145 246.439C147.558 246.263 148.029 246.086 148.442 245.496C148.795 244.966 148.324 244.259 147.735 243.434C146.851 242.196 145.672 240.487 146.202 238.307C146.733 236.009 147.44 236.127 148.442 236.245C148.913 236.304 149.502 236.421 150.033 236.186C150.976 235.832 151.86 233.829 152.743 231.648C153.451 229.998 154.158 228.289 154.747 227.818C155.454 227.288 156.043 227.17 156.633 227.052C157.222 226.934 157.752 226.875 158.165 226.286C158.695 225.638 158.401 224.754 158.165 223.988C158.047 223.516 157.87 223.045 157.988 222.809L157.576 222.573C157.399 222.986 157.517 223.457 157.693 224.105C157.87 224.754 158.106 225.52 157.752 225.991C157.458 226.404 157.045 226.462 156.456 226.58C155.867 226.698 155.16 226.816 154.393 227.405C153.686 227.936 152.979 229.645 152.213 231.413C151.447 233.298 150.563 235.42 149.797 235.714C149.326 235.891 148.854 235.832 148.383 235.773C147.322 235.655 146.261 235.479 145.613 238.189C145.083 240.546 146.32 242.373 147.204 243.67C147.676 244.377 148.088 244.966 147.911 245.261C147.617 245.732 147.263 245.85 146.851 246.027C146.438 246.145 146.026 246.321 145.672 246.852C145.26 247.441 145.377 248.207 145.495 248.914C145.613 249.562 145.672 250.211 145.495 250.741C145.318 251.271 144.906 251.33 144.435 251.389C143.963 251.448 143.433 251.507 143.138 252.214C142.902 252.863 142.961 253.511 143.079 254.395C143.197 255.161 143.256 256.045 143.197 257.223C143.079 258.579 143.256 260.229 143.61 261.584C142.608 259.993 141.311 257.4 141.135 254.925C140.958 252.863 141.37 252.096 141.901 251.036C142.431 249.975 143.079 248.679 143.61 245.791C144.317 241.666 142.49 237.777 141.311 235.773C141.429 235.361 142.254 232.591 144.435 231.825L145.554 231.413C147.617 230.705 149.443 230.057 150.386 229.527C151.624 228.879 152.626 226.757 152.802 225.461C152.92 224.695 152.567 224.223 152.213 223.811C151.918 223.398 151.624 223.045 151.624 222.455C151.683 221.925 152.449 221.395 153.333 220.864C154.57 220.039 156.161 218.979 156.81 217.27C157.576 215.207 156.81 214.264 156.161 213.439C155.867 213.027 155.513 212.673 155.395 212.143L154.983 212.261C155.101 212.85 155.513 213.321 155.808 213.734C156.456 214.559 157.045 215.266 156.397 217.152C155.808 218.743 154.335 219.745 153.097 220.57C152.036 221.277 151.27 221.807 151.211 222.514C151.152 223.339 151.506 223.811 151.86 224.223C152.154 224.636 152.449 224.93 152.331 225.52C152.095 226.875 151.093 228.761 150.151 229.232C149.208 229.704 147.381 230.352 145.377 231.059L144.258 231.471C142.254 232.179 141.311 234.359 141.017 235.361C140.604 234.771 140.368 234.418 140.31 234.418C140.251 234.359 136.126 230.529 134.24 227.641C132.354 224.695 132.413 222.279 133.415 221.454C133.945 220.982 135.006 220.923 136.243 220.864C137.422 220.805 138.718 220.746 139.838 220.334C141.606 219.686 142.843 217.152 143.197 216.386C143.727 215.266 144.199 213.793 143.904 213.086C143.433 211.789 141.488 211.377 141.37 211.318L141.311 211.789C141.311 211.789 143.138 212.202 143.492 213.204C143.61 213.616 143.433 214.736 142.785 216.15C142.136 217.623 140.958 219.391 139.661 219.804C138.542 220.216 137.304 220.275 136.185 220.334C134.888 220.393 133.71 220.452 133.061 220.982C131.942 221.925 131.706 224.459 133.827 227.759C135.654 230.588 139.72 234.359 139.956 234.595C140.192 234.889 144.14 240.016 143.138 245.673C142.667 248.502 142.018 249.798 141.488 250.8C141.37 251.036 141.252 251.271 141.135 251.507C140.604 250.093 140.663 249.268 140.722 248.62C140.781 247.677 140.722 247.146 139.426 246.38C137.776 245.32 134.476 245.143 132.295 245.025C131.411 244.966 130.704 244.907 130.351 244.848C128.995 244.554 128.288 243.905 127.935 242.727C127.64 241.725 127.876 241.43 128.347 240.9C128.465 240.782 128.583 240.605 128.76 240.429C128.936 240.193 129.29 239.957 129.643 239.78C130.468 239.309 131.588 238.661 131.47 237.011C131.411 235.596 130.527 235.125 129.526 234.654C128.877 234.359 128.229 234.005 127.758 233.298C126.52 231.648 125.047 226.934 124.811 224.341C124.517 221.454 125.047 216.032 125.518 215.679C125.695 215.62 126.461 215.973 127.051 216.268C128.17 216.798 129.526 217.446 130.527 217.211C130.704 217.152 130.822 217.152 130.999 217.093C132.236 216.798 132.354 216.68 132.295 215.502C132.236 214.618 131.588 214.5 131.058 214.441C130.645 214.382 130.351 214.323 130.115 214.029C129.643 213.439 129.82 211.2 129.879 210.434L129.408 210.375C129.349 210.67 129.054 213.498 129.702 214.323C129.997 214.736 130.527 214.795 130.94 214.854C131.529 214.971 131.765 215.03 131.824 215.502C131.883 215.973 131.883 216.209 131.765 216.327C131.647 216.445 131.352 216.504 130.881 216.621C130.763 216.68 130.586 216.68 130.41 216.739C129.585 216.916 128.288 216.327 127.227 215.855C126.285 215.384 125.695 215.148 125.342 215.266C124.399 215.62 124.104 222.161 124.281 224.341C124.517 227.052 125.99 231.825 127.286 233.534C127.817 234.241 128.583 234.654 129.172 235.007C130.056 235.479 130.763 235.832 130.822 237.011C130.881 238.366 130.056 238.838 129.231 239.368C128.818 239.604 128.465 239.839 128.229 240.134C128.111 240.311 127.993 240.429 127.876 240.605C127.404 241.136 127.051 241.607 127.404 242.845C127.817 244.2 128.642 244.966 130.174 245.32C130.468 245.379 130.881 245.438 131.47 245.438C131.117 245.673 130.763 245.673 130.351 245.673C129.938 245.673 129.467 245.614 128.995 245.968C128.229 246.498 128.701 247.382 129.054 248.03C129.172 248.325 129.349 248.62 129.349 248.796C129.349 248.914 129.29 249.032 129.172 249.15C128.936 249.327 128.465 249.386 127.817 249.327C127.11 249.209 126.167 248.148 125.577 247.5C125.342 247.264 125.165 247.029 125.047 246.97C124.811 246.793 124.458 246.793 124.163 246.852C123.81 246.911 123.397 246.911 123.043 246.675C122.867 246.557 122.749 246.321 122.69 246.027C122.631 245.496 122.867 244.907 122.985 244.73C123.043 244.671 123.22 244.671 123.456 244.671C123.751 244.671 124.104 244.671 124.399 244.436C124.87 244.023 125.047 243.375 124.988 242.373C124.929 241.784 124.458 241.784 124.045 241.784C123.574 241.784 123.043 241.725 122.808 241.077C122.631 240.605 122.867 240.134 123.22 239.545C123.751 238.661 124.399 237.541 123.456 235.891C122.395 233.946 121.217 234.123 120.392 234.3C120.097 234.359 119.802 234.418 119.626 234.359C119.449 234.3 119.331 234.182 119.331 234.123C119.272 233.946 119.39 233.77 119.449 233.711L119.095 233.475C119.095 233.534 118.801 233.888 118.918 234.3C118.977 234.536 119.154 234.771 119.508 234.889C119.802 235.007 120.156 234.948 120.51 234.889C121.276 234.771 122.218 234.595 123.102 236.245C123.868 237.659 123.338 238.543 122.867 239.427C122.513 240.075 122.16 240.664 122.395 241.312C122.749 242.255 123.515 242.255 124.045 242.255C124.517 242.255 124.576 242.314 124.576 242.432C124.635 243.257 124.517 243.846 124.163 244.082C123.986 244.2 123.751 244.2 123.515 244.2C123.22 244.2 122.926 244.2 122.69 244.436C122.454 244.671 122.16 245.379 122.277 246.086C122.336 246.498 122.513 246.852 122.808 247.087C123.338 247.441 123.868 247.382 124.222 247.382C124.517 247.382 124.693 247.323 124.811 247.441C124.929 247.5 125.047 247.736 125.283 247.971C125.931 248.679 126.933 249.857 127.817 249.975C127.817 249.975 127.817 249.975 127.876 249.975C128.642 250.093 129.231 249.975 129.526 249.68C129.702 249.504 129.82 249.268 129.82 248.973C129.82 248.679 129.643 248.384 129.467 248.03C129.113 247.323 128.877 246.852 129.29 246.557C129.585 246.321 129.938 246.321 130.351 246.321C130.881 246.321 131.529 246.38 132.06 245.673C132.118 245.673 132.177 245.673 132.177 245.673C134.299 245.791 137.54 245.968 139.131 246.97C140.251 247.677 140.251 248.03 140.192 248.855C140.133 249.621 140.074 250.623 140.84 252.391C140.604 253.098 140.486 253.923 140.604 255.279C140.899 259.345 144.081 263.529 144.317 263.823C144.435 264 144.611 264.177 144.729 264.295C145.201 264.648 146.32 265.296 147.676 266.062C149.149 266.888 150.858 267.83 151.918 268.596C153.215 269.48 154.57 270.482 154.747 271.484C154.806 271.955 154.688 272.427 154.217 273.016C152.685 275.079 150.681 282.386 150.622 282.621L151.093 282.68C151.152 282.209 153.097 275.196 154.57 273.252C155.395 272.309 155.572 271.72 155.454 271.13Z" fill="#323A50"/>
<path d="M152.331 272.957C151.683 270.718 148.5 268.361 147.44 267.654C145.141 266.239 139.956 266.004 137.54 266.475C136.42 266.711 135.654 267.064 134.947 267.418C134.181 267.771 133.533 268.125 132.649 268.125C130.822 268.125 129.82 268.361 128.995 269.009C128.818 269.127 128.759 269.304 128.759 269.421C128.759 269.775 129.054 270.129 129.466 270.482C129.761 270.718 130.174 271.13 130.115 271.307C130.115 271.425 129.997 271.484 129.879 271.543C128.7 272.191 127.758 271.307 127.758 271.248L127.463 271.543C127.463 271.543 128.641 272.721 130.115 271.955C130.409 271.779 130.527 271.602 130.586 271.366C130.645 270.895 130.174 270.541 129.82 270.129C129.584 269.893 129.231 269.598 129.231 269.421L129.29 269.363C130.056 268.773 130.999 268.596 132.708 268.596C133.709 268.596 134.358 268.243 135.241 267.83C135.89 267.536 136.656 267.123 137.716 266.946C140.015 266.475 145.141 266.77 147.322 268.066C148.618 268.832 151.447 271.13 152.036 273.075C152.154 273.605 151.918 274.548 151.565 275.314C149.797 279.38 149.208 282.327 149.208 282.327L149.62 282.386C149.62 282.386 150.209 279.498 151.918 275.432C152.095 275.02 152.566 273.782 152.331 272.957Z" fill="#323A50"/>
<path d="M153.391 272.604C153.273 271.779 152.448 270.895 152.154 270.541C152.095 270.482 152.095 270.482 152.095 270.482C150.445 268.538 148.029 266.652 146.496 266.122C146.025 265.945 145.495 265.827 144.846 265.709C142.312 264.472 139.838 264 137.421 263.529C136.125 263.293 134.77 262.998 133.473 262.645C129.938 261.584 123.927 255.632 123.632 255.397C123.455 255.161 119.389 249.975 118.977 248.207C118.8 247.441 117.916 243.552 117.504 242.491C117.091 241.548 111.964 239.839 110.962 239.545C108.487 239.427 104.834 239.191 104.48 238.955C104.068 238.661 103.596 237.305 103.714 236.657C103.714 236.422 104.009 236.245 104.304 236.068C104.775 235.773 105.305 235.361 105.423 234.654C105.482 234.123 105.129 232.591 104.48 230.057C103.891 227.7 103.125 224.4 103.302 223.811C103.479 223.28 103.832 223.222 104.127 223.104C104.421 223.045 104.834 222.927 104.952 222.397C105.011 222.22 104.893 222.102 104.834 221.984C104.598 221.748 104.068 221.748 103.361 221.807C102.654 221.866 101.77 221.925 101.357 221.572L101.062 221.925C101.593 222.397 102.536 222.338 103.361 222.279C103.773 222.279 104.362 222.22 104.48 222.338C104.421 222.573 104.363 222.573 104.009 222.691C103.655 222.809 103.125 222.927 102.83 223.634C102.595 224.282 103.125 226.639 104.009 230.116C104.48 232.061 104.952 234.123 104.893 234.595C104.834 235.125 104.363 235.42 103.95 235.714C103.538 235.95 103.184 236.245 103.125 236.657C103.007 237.364 103.537 238.955 104.068 239.368C104.539 239.722 109.254 239.957 110.786 240.016C113.673 240.959 116.855 242.255 117.032 242.727C117.327 243.552 117.975 246.145 118.446 248.384C118.859 250.27 123.043 255.514 123.161 255.75C123.396 255.986 129.466 262.055 133.179 263.175C134.534 263.588 135.889 263.823 137.186 264.059C139.071 264.413 141.075 264.825 143.079 265.591C141.959 265.473 140.78 265.414 139.602 265.297C138.659 265.238 137.716 265.179 136.95 265.061C131.411 264.472 128.287 263.647 126.284 262.232C124.045 260.641 117.209 254.689 116.679 253.982C116.384 253.57 116.266 253.157 116.089 252.627C115.971 252.214 115.854 251.743 115.618 251.213C114.793 249.327 111.552 247.205 109.195 245.732C107.957 244.966 106.896 244.259 106.661 243.905C106.307 243.375 106.425 243.022 106.602 242.55C106.72 242.255 106.896 241.843 106.896 241.372H106.425C106.425 241.784 106.307 242.079 106.189 242.373C105.954 242.904 105.777 243.375 106.248 244.141C106.543 244.554 107.545 245.202 108.9 246.086C111.198 247.559 114.38 249.563 115.146 251.389C115.382 251.861 115.5 252.332 115.618 252.745C115.795 253.334 115.912 253.805 116.266 254.277C116.855 254.984 123.691 261.054 125.989 262.645C128.052 264.118 131.234 264.943 136.832 265.591C137.539 265.65 138.482 265.709 139.484 265.827C141.959 266.004 144.729 266.239 146.143 266.711C147.616 267.241 149.973 269.068 151.564 270.954C151.564 270.954 151.623 271.013 151.623 271.072C151.859 271.366 152.684 272.25 152.743 272.898C152.861 273.547 152.389 274.784 151.741 276.493C151.152 278.084 150.386 280.147 149.737 282.622L150.15 282.739C150.798 280.264 151.505 278.261 152.154 276.67C153.038 274.607 153.45 273.37 153.391 272.604Z" fill="#323A50"/>
<path d="M106.544 210.198C106.485 210.552 106.131 211.082 105.719 211.671C105.012 212.791 104.187 213.97 104.658 214.971C104.953 215.502 105.601 215.973 106.485 216.504C108.017 217.505 109.903 218.802 110.669 221.1C111.906 224.754 115.029 231.354 115.088 231.413V231.471C115.147 231.53 118.978 236.716 117.622 241.725L118.035 241.843C119.39 236.716 115.737 231.589 115.442 231.177C115.442 231.118 115.324 230.941 115.206 230.705C115.737 230.588 116.915 230.234 117.681 229.232C118.271 228.466 118.506 227.464 118.388 226.286C118.153 224.223 117.151 222.338 116.267 220.629C115.501 219.155 114.853 217.918 114.971 217.034C115.029 216.268 115.501 216.15 116.09 215.914C116.797 215.738 117.681 215.443 117.858 213.911C118.035 212.32 116.915 211.613 115.972 211.023C115.265 210.552 114.794 210.257 114.853 209.727C114.971 208.254 117.033 206.25 117.092 206.191L116.797 205.896C116.738 205.955 114.617 208.077 114.44 209.727C114.381 210.552 115.088 211.023 115.796 211.436C116.679 211.966 117.622 212.555 117.446 213.911C117.328 215.148 116.679 215.325 116.031 215.502C115.383 215.679 114.676 215.914 114.617 216.975C114.558 218.036 115.206 219.273 115.972 220.805C116.797 222.455 117.799 224.341 118.035 226.286C118.153 227.346 117.976 228.23 117.446 228.938C116.679 229.88 115.501 230.234 115.088 230.293C114.204 228.348 112.083 223.752 111.14 220.923C110.315 218.448 108.253 217.093 106.779 216.091C106.013 215.561 105.306 215.148 105.071 214.677C104.658 213.97 105.424 212.85 106.072 211.848C106.544 211.2 106.897 210.611 106.956 210.198C107.015 209.55 106.426 208.607 105.66 207.546C105.012 206.545 104.246 205.425 104.128 204.659L103.656 204.718C103.774 205.602 104.54 206.721 105.247 207.841C105.954 208.725 106.603 209.727 106.544 210.198Z" fill="#323A50"/>
<path d="M150.739 274.489C150.209 273.252 148.618 272.25 147.498 271.543C147.027 271.248 146.673 271.013 146.496 270.836C146.32 270.659 146.32 270.482 146.261 270.305C146.143 269.775 145.966 269.363 144.846 268.891C143.137 268.184 139.071 267.83 137.716 268.714C137.186 269.068 137.127 269.48 137.127 269.834C137.245 270.777 138.364 271.602 139.425 271.955C140.132 272.191 140.191 272.898 140.25 273.723C140.309 274.371 140.368 275.02 140.839 275.373C141.134 275.609 141.311 275.845 141.252 276.021C141.193 276.257 140.78 276.552 139.896 276.67C138.6 276.788 136.596 276.257 136.596 276.257L136.479 276.729C136.537 276.729 138.541 277.259 139.955 277.141C140.957 277.023 141.605 276.67 141.723 276.198C141.841 275.786 141.605 275.373 141.134 275.02C140.839 274.784 140.78 274.254 140.721 273.664C140.662 272.898 140.604 271.838 139.602 271.543C138.541 271.189 137.657 270.423 137.598 269.775C137.598 269.539 137.716 269.304 137.952 269.127C139.13 268.42 142.902 268.655 144.67 269.363C145.671 269.775 145.73 270.129 145.848 270.482C145.907 270.718 145.966 271.013 146.261 271.248C146.437 271.425 146.85 271.72 147.321 272.014C148.382 272.663 149.914 273.664 150.386 274.784C150.739 275.55 150.327 276.375 149.796 277.554C149.325 278.673 148.677 280.029 148.441 281.855L148.912 281.914C149.148 280.146 149.737 278.791 150.268 277.73C150.739 276.375 151.211 275.432 150.739 274.489Z" fill="#323A50"/>
</g>
<g opacity="0.34">
<path d="M166.532 284.212C203.862 284.212 234.124 254.083 234.124 216.916C234.124 179.749 203.862 149.62 166.532 149.62C129.203 149.62 98.9414 179.749 98.9414 216.916C98.9414 254.083 129.203 284.212 166.532 284.212Z" fill="url(#paint1_radial_3671_12241)"/>
<path d="M166.237 284.861C148.087 284.861 131.116 277.848 118.269 265.061C105.482 252.332 98.4102 235.361 98.4102 217.329C98.4102 199.296 105.482 182.325 118.269 169.596C131.057 156.868 148.146 149.796 166.237 149.796C184.328 149.796 201.358 156.809 214.205 169.596C226.992 182.325 234.064 199.296 234.064 217.329C234.064 235.361 226.992 252.332 214.205 265.061C201.358 277.848 184.387 284.861 166.237 284.861ZM166.237 150.268C129.053 150.268 98.8227 180.321 98.8227 217.329C98.8227 254.336 129.053 284.448 166.237 284.448C203.421 284.448 233.651 254.336 233.651 217.329C233.651 180.321 203.421 150.268 166.237 150.268Z" fill="#323A50"/>
</g>
<path d="M166.885 142.666C153.391 142.666 143.019 151.27 141.841 166.061C141.782 166.768 141.9 166.65 141.9 166.12C141.9 160.58 152.86 157.752 166.355 157.752C179.85 157.752 190.81 160.58 190.81 166.12C190.81 166.532 190.81 166.591 190.869 166.179C190.987 153.155 180.38 142.666 166.885 142.666Z" fill="#293C4F"/>
<path d="M148.853 151.211C148.853 151.329 148.735 150.562 148.794 149.737C148.853 149.148 149.03 148.441 149.324 147.911C149.619 147.38 149.973 146.85 150.444 146.379C150.444 146.379 150.503 146.379 150.503 146.32C153.273 143.491 159.107 141.605 165.883 141.605C175.312 141.605 182.973 145.259 182.973 149.914C182.973 149.914 182.973 150.504 182.914 150.916C182.855 151.682 182.56 152.389 182.089 153.037L204.953 159.284C204.953 158.812 204.953 159.755 204.953 157.987C204.953 146.555 187.569 137.245 166.119 137.245C144.669 137.245 127.285 146.555 127.285 157.987C127.285 158.636 127.344 159.343 127.462 159.991L149.973 153.273C149.678 152.861 148.971 151.8 148.853 151.211Z" fill="#DBDBDB"/>
<path d="M127.226 160.58L127.167 160.109C127.049 159.402 126.99 158.754 126.99 158.046C126.99 152.33 131.115 147.027 138.599 143.02C145.965 139.071 155.806 136.891 166.237 136.891C176.667 136.891 186.508 139.071 193.874 143.02C201.358 147.027 205.483 152.33 205.483 158.046C205.483 158.577 205.483 158.871 205.483 159.048C205.483 159.107 205.483 159.166 205.483 159.225H205.424C205.424 159.225 205.365 159.284 205.365 159.343V159.873L181.44 153.273L181.794 152.802C182.265 152.154 182.501 151.505 182.56 150.857C182.619 150.386 182.619 149.855 182.619 149.855C182.619 145.495 175.135 141.959 165.942 141.959C159.519 141.959 153.626 143.786 150.856 146.555L150.797 146.614C150.326 147.086 150.031 147.557 149.737 148.029C149.501 148.5 149.265 149.148 149.206 149.679C149.147 150.209 149.206 150.739 149.206 150.916V151.034C149.324 151.446 149.678 152.095 150.385 153.096L150.68 153.568L127.226 160.58ZM166.237 137.775C145.081 137.775 127.815 146.909 127.815 158.105C127.815 158.577 127.874 159.048 127.933 159.579L149.501 153.214C149.088 152.566 148.676 151.918 148.558 151.388C148.381 150.916 148.499 149.738 148.499 149.738C148.558 149.089 148.794 148.382 149.088 147.793C149.383 147.263 149.796 146.673 150.267 146.202L150.326 146.143C153.272 143.138 159.283 141.311 166.001 141.311C170.656 141.311 174.958 142.195 178.258 143.786C181.617 145.436 183.503 147.675 183.503 150.032C183.503 150.091 183.503 150.621 183.444 151.093C183.385 151.741 183.208 152.33 182.855 152.979L204.717 158.989C204.717 158.813 204.717 158.577 204.717 158.223C204.599 146.85 187.392 137.775 166.237 137.775Z" fill="#323A50"/>
<path opacity="0.52" d="M165.942 143.786C174.722 143.786 181.912 147.027 182.972 151.152C183.031 150.857 183.09 150.504 183.09 150.15C183.09 145.495 175.429 141.782 165.942 141.782C156.454 141.782 148.794 145.554 148.794 150.15C148.794 150.327 148.735 150.622 148.794 150.739C148.794 150.798 148.794 151.505 149.147 152.507C149.324 153.038 149.972 153.273 150.031 153.155C148.971 151.859 148.971 150.857 149.029 150.739C150.385 146.791 157.456 143.786 165.942 143.786Z" fill="url(#paint2_linear_3671_12241)"/>
<path d="M165.941 144.787C174.663 144.787 181.145 148.5 182.206 153.273C183.09 151.918 183.031 150.798 183.031 150.504C183.031 145.848 175.37 141.841 165.941 141.841C156.513 141.841 148.852 145.259 148.734 150.621C148.734 150.975 149.029 153.273 149.972 153.273C149.972 147.911 157.22 144.787 165.941 144.787Z" fill="#DBDBDB"/>
<path d="M182.029 154.275L181.852 153.332C180.791 148.618 174.132 145.2 166 145.2C159.872 145.2 154.745 146.732 152.211 149.325C151.032 150.504 150.502 151.8 150.502 153.273V153.686H150.089C149.913 153.686 149.618 153.627 149.323 153.332C148.616 152.566 148.439 150.857 148.439 150.621C148.498 147.911 150.384 145.554 153.743 143.904C156.925 142.371 161.286 141.488 166 141.488C170.597 141.488 174.957 142.43 178.257 144.139C181.616 145.848 183.502 148.146 183.502 150.563V150.621C183.502 151.034 183.502 152.213 182.618 153.568L182.029 154.275ZM165.941 142.195C156.277 142.195 149.205 145.73 149.147 150.563C149.147 150.798 149.323 151.859 149.618 152.448C149.795 151.093 150.384 149.796 151.504 148.677C154.214 145.966 159.577 144.316 165.882 144.316C170.125 144.316 174.014 145.2 177.079 146.85C179.672 148.205 181.439 150.091 182.264 152.154C182.559 151.388 182.559 150.798 182.559 150.504V150.445C182.618 145.966 174.957 142.195 165.941 142.195Z" fill="#323A50"/>
<path d="M163.938 284.389C127.992 283.093 99.1166 253.452 99.1166 217.211C99.1166 202.361 103.831 188.336 112.788 176.55L112.317 176.197C103.301 188.041 98.5273 202.243 98.5273 217.211C98.5273 235.361 105.599 252.332 118.386 265.179C130.408 277.2 146.083 284.154 162.936 284.979C163.29 284.743 163.643 284.566 163.938 284.389Z" fill="#323A50"/>
<path d="M228.761 190.575C226.521 185.389 223.693 180.498 220.157 175.902L219.686 176.255C223.221 180.852 226.109 185.861 228.348 191.105C228.466 190.87 228.643 190.752 228.761 190.575Z" fill="#323A50"/>
<path d="M150.09 153.214L150.149 156.396L133.944 162.348C133.354 162.584 133.354 163.409 133.944 163.645L134.003 163.703L135.122 164.175C135.476 164.293 135.417 164.823 135.063 164.882L132.765 165.353H132.647C131.587 165.589 131.469 167.003 132.471 167.416L134.769 168.418C135.181 168.595 135.122 169.184 134.71 169.302C132.647 169.773 128.404 170.834 122.276 173.132C101.887 181.205 92.2812 203.775 92.2812 203.775C92.2812 203.775 94.2259 193.109 97.7027 185.861C99.942 181.205 103.478 173.898 110.726 165.825C115.558 160.462 122.158 155.63 122.158 155.63C122.158 155.63 124.456 160.698 127.933 159.637C130.585 158.223 145.906 152.743 150.09 153.214Z" fill="#DBDBDB"/>
<path d="M91.1035 207.193L91.7518 203.657C91.7518 203.539 93.7553 192.873 97.2321 185.625C99.4125 181.146 103.007 173.604 110.314 165.53C115.146 160.227 121.746 155.336 121.805 155.277L122.218 154.982L122.395 155.454C122.395 155.513 124.221 159.402 126.873 159.402C127.109 159.402 127.404 159.343 127.698 159.284C130.409 157.988 144.552 152.92 149.502 152.92C149.737 152.92 149.973 152.92 150.15 152.979L150.504 153.038L150.562 156.868L134.121 162.879C133.945 162.938 133.945 163.055 133.945 163.114C133.945 163.173 133.945 163.291 134.121 163.35L135.3 163.821C135.595 163.939 135.83 164.293 135.771 164.588C135.712 164.941 135.477 165.236 135.123 165.295L132.648 165.825C132.295 165.884 132.118 166.179 132.118 166.414C132.118 166.65 132.177 166.945 132.53 167.121L134.829 168.123C135.182 168.3 135.359 168.595 135.359 169.007C135.3 169.42 135.064 169.714 134.711 169.773C132.707 170.245 128.464 171.305 122.336 173.604C111.905 177.729 104.362 185.802 99.8839 191.813C94.9928 198.354 92.5767 203.952 92.5178 204.011L91.1035 207.193ZM121.923 156.161C120.45 157.28 115.029 161.523 110.962 166.002C103.714 174.016 100.12 181.5 97.9982 185.92C95.7589 190.634 94.1089 196.88 93.225 200.593C94.4625 198.295 96.466 194.877 99.2357 191.164C103.773 185.036 111.434 176.904 122.041 172.661C128.229 170.363 132.53 169.302 134.534 168.83C134.534 168.83 134.593 168.83 134.593 168.771C134.593 168.713 134.593 168.713 134.534 168.713L132.236 167.711C131.646 167.475 131.293 166.827 131.352 166.179C131.411 165.53 131.882 165 132.53 164.882L134.887 164.352L133.768 163.88C133.355 163.704 133.061 163.291 133.12 162.82C133.12 162.348 133.414 161.995 133.827 161.818L149.737 155.984V153.45C149.679 153.45 149.62 153.45 149.502 153.45C144.67 153.45 130.645 158.459 128.052 159.755H127.993C127.639 159.873 127.286 159.932 126.932 159.932C124.339 160.109 122.512 157.28 121.923 156.161Z" fill="#323A50"/>
<path d="M166.295 293.229V292.404C207.781 292.404 241.547 258.638 241.547 217.152C241.547 193.404 230.704 171.6 211.847 157.221L212.318 156.573C221.452 163.527 228.995 172.602 234.181 182.796C239.602 193.521 242.372 205.071 242.372 217.152C242.372 227.405 240.368 237.364 236.42 246.734C232.59 255.809 227.109 263.941 220.097 270.895C213.084 277.848 204.952 283.329 195.936 287.218C186.566 291.225 176.607 293.229 166.295 293.229Z" fill="#323A50"/>
<path d="M182.147 153.273L182.088 156.455L198.647 161.995C199.236 162.23 199.236 163.055 198.647 163.291L198.588 163.35L197.468 163.821C197.115 163.939 197.174 164.47 197.527 164.528L199.825 165H199.943C201.004 165.236 201.122 166.65 200.12 167.062L197.822 168.064C197.409 168.241 197.468 168.83 197.881 168.948C199.943 169.42 204.186 170.48 210.315 172.778C230.704 180.852 240.309 202.95 240.309 202.95C240.309 202.95 238.365 192.755 234.888 185.448C232.649 180.793 229.113 173.486 221.865 165.412C217.033 160.05 210.079 155.925 210.079 155.925C210.079 155.925 208.134 160.286 204.658 159.225C202.065 157.811 186.331 152.743 182.147 153.273Z" fill="#DBDBDB"/>
<path d="M241.547 206.309L240.133 203.009C240.133 202.95 237.658 197.47 232.825 190.987C228.347 185.095 220.804 177.139 210.374 173.014C204.245 170.775 200.002 169.655 197.999 169.243C197.645 169.184 197.35 168.83 197.35 168.477C197.292 168.064 197.527 167.77 197.881 167.593L200.179 166.591C200.533 166.473 200.65 166.12 200.592 165.884C200.592 165.648 200.415 165.354 200.061 165.295L197.586 164.764C197.233 164.705 196.997 164.411 196.938 164.057C196.879 163.704 197.115 163.409 197.409 163.291L198.588 162.82C198.765 162.761 198.765 162.643 198.765 162.584C198.765 162.525 198.765 162.407 198.588 162.348L181.734 156.75L181.793 152.92L182.147 152.861C182.324 152.861 182.618 152.802 182.854 152.802C187.863 152.802 202.241 157.457 204.952 158.754C205.247 158.871 205.6 158.871 205.895 158.871C208.37 158.871 209.843 155.63 209.843 155.63L210.02 155.218L210.433 155.454C210.491 155.512 217.445 159.696 222.277 165.059C229.643 173.191 233.238 180.675 235.359 185.154C238.836 192.402 240.781 202.655 240.781 202.773L241.547 206.309ZM197.822 164.057L200.179 164.587C200.827 164.705 201.299 165.236 201.358 165.884C201.417 166.532 201.063 167.121 200.474 167.416L198.175 168.418C198.175 168.418 198.117 168.418 198.117 168.477C198.117 168.536 198.116 168.536 198.175 168.536C200.179 169.007 204.481 170.068 210.668 172.366C221.275 176.609 228.936 184.623 233.474 190.634C236.243 194.287 238.188 197.587 239.425 199.886C238.6 196.291 236.95 190.339 234.711 185.625C232.59 181.146 228.995 173.721 221.747 165.707C217.622 161.17 211.906 157.457 210.433 156.514C209.902 157.457 208.37 159.814 205.954 159.814C205.542 159.814 205.188 159.755 204.775 159.637H204.717C202.124 158.341 187.863 153.745 182.913 153.745C182.795 153.745 182.736 153.745 182.677 153.745V156.22L199 161.641C199.472 161.818 199.708 162.171 199.708 162.643C199.708 163.114 199.472 163.468 199.059 163.704L197.822 164.057Z" fill="#323A50"/>
<path d="M190.927 166.591C190.927 161.052 179.966 158.164 166.413 158.164C152.859 158.164 141.898 161.052 141.898 166.591C141.898 172.13 152.859 178.259 166.413 178.259C179.966 178.259 190.927 172.13 190.927 166.591Z" fill="#DBDBDB"/>
<path d="M166.413 178.671C159.99 178.671 153.802 177.316 148.911 174.841C144.197 172.484 141.486 169.478 141.486 166.532C141.486 163.703 144.079 161.405 148.97 159.873C153.39 158.459 159.401 157.752 166.413 157.752C173.426 157.752 179.436 158.518 183.856 159.873C188.747 161.405 191.34 163.762 191.34 166.532C191.34 169.42 188.629 172.484 183.915 174.841C179.083 177.316 172.836 178.671 166.413 178.671ZM166.413 158.577C159.577 158.577 153.449 159.343 149.206 160.698C146.024 161.7 142.311 163.527 142.311 166.591C142.311 169.125 144.904 171.953 149.265 174.134C154.038 176.491 160.108 177.846 166.413 177.846C172.718 177.846 178.788 176.55 183.561 174.134C187.922 171.953 190.515 169.125 190.515 166.591C190.515 163.527 186.802 161.7 183.62 160.698C179.377 159.284 173.249 158.577 166.413 158.577Z" fill="#323A50"/>
<path d="M190.279 166.709C190.279 161.464 179.554 158.753 166.413 158.753C153.272 158.753 142.547 161.464 142.547 166.709C142.547 171.953 153.272 177.728 166.413 177.728C179.554 177.728 190.279 171.953 190.279 166.709Z" fill="#DBDBDB"/>
<path d="M166.414 177.787C160.226 177.787 154.215 176.55 149.501 174.252C145.023 172.071 142.43 169.302 142.43 166.709C142.43 164.175 144.905 162.112 149.501 160.698C153.744 159.402 159.637 158.695 166.414 158.695C173.19 158.695 179.024 159.402 183.326 160.698C187.981 162.112 190.398 164.175 190.398 166.709C190.398 169.361 187.805 172.071 183.326 174.252C178.612 176.55 172.601 177.787 166.414 177.787ZM166.414 158.871C151.976 158.871 142.606 161.936 142.606 166.709C142.606 171.777 152.978 177.611 166.414 177.611C179.849 177.611 190.221 171.718 190.221 166.709C190.221 161.936 180.851 158.871 166.414 158.871Z" fill="#323A50"/>
<path d="M189.04 166.827C189.04 162.289 178.905 159.991 166.412 159.991C153.919 159.991 143.783 162.348 143.783 166.827C143.783 171.364 153.919 176.373 166.412 176.373C178.905 176.373 189.04 171.364 189.04 166.827Z" fill="#DBDBDB"/>
<path d="M166.412 176.432C160.52 176.432 154.804 175.312 150.384 173.368C146.141 171.482 143.666 169.125 143.666 166.827C143.666 164.646 145.964 162.82 150.384 161.582C154.45 160.462 159.989 159.814 166.412 159.814C172.836 159.814 178.434 160.403 182.441 161.582C186.802 162.82 189.159 164.587 189.159 166.827C189.159 169.125 186.684 171.482 182.441 173.368C177.962 175.371 172.305 176.432 166.412 176.432ZM166.412 160.05C152.682 160.05 143.843 162.702 143.843 166.827C143.843 171.187 153.684 176.255 166.412 176.255C179.141 176.255 188.982 171.187 188.982 166.827C188.982 162.702 180.084 160.05 166.412 160.05Z" fill="#323A50"/>
<path d="M187.685 166.886C187.685 162.996 178.08 160.993 166.235 160.993C154.39 160.993 144.785 162.996 144.785 166.886C144.785 170.775 154.39 175.077 166.235 175.077C178.08 175.077 187.685 170.775 187.685 166.886Z" fill="#DBDBDB"/>
<path d="M166.236 175.195C160.697 175.195 155.275 174.252 151.032 172.543C147.025 170.952 144.668 168.889 144.668 166.886C144.668 165 146.848 163.468 151.032 162.348C154.863 161.405 160.107 160.875 166.236 160.875C172.364 160.875 177.609 161.405 181.439 162.348C185.623 163.409 187.804 165 187.804 166.886C187.804 168.83 185.505 170.893 181.439 172.543C177.255 174.252 171.834 175.195 166.236 175.195ZM166.236 161.111C153.272 161.111 144.904 163.409 144.904 166.886C144.904 170.598 154.214 174.959 166.236 174.959C178.257 174.959 187.568 170.598 187.568 166.886C187.627 163.35 179.259 161.111 166.236 161.111Z" fill="#323A50"/>
<path d="M186.214 166.827C186.214 163.703 177.257 162.112 166.178 162.112C155.1 162.112 146.143 163.703 146.143 166.827C146.143 169.95 155.1 173.721 166.178 173.721C177.257 173.721 186.214 169.891 186.214 166.827Z" fill="#DBDBDB"/>
<path d="M166.237 173.839C155.1 173.839 146.143 170.009 146.143 166.827C146.143 163.291 156.985 162.053 166.237 162.053C175.489 162.053 186.332 163.291 186.332 166.827C186.332 170.009 177.375 173.839 166.237 173.839ZM166.237 162.23C154.157 162.23 146.319 164.057 146.319 166.827C146.319 169.891 155.512 173.662 166.237 173.662C176.962 173.662 186.155 169.891 186.155 166.827C186.155 164.057 178.318 162.23 166.237 162.23Z" fill="#323A50"/>
<path d="M184.562 166.886C184.562 164.47 176.312 163.232 166.177 163.232C156.041 163.232 147.791 164.47 147.791 166.886C147.791 169.302 156.041 172.248 166.177 172.248C176.312 172.248 184.562 169.302 184.562 166.886Z" fill="#DBDBDB"/>
<path d="M166.177 172.366C155.923 172.366 147.732 169.361 147.732 166.886C147.732 164.116 157.279 163.114 166.177 163.114C175.075 163.114 184.622 164.116 184.622 166.886C184.622 169.361 176.431 172.366 166.177 172.366ZM166.177 163.291C155.275 163.291 147.909 164.705 147.909 166.827C147.909 169.184 156.336 172.13 166.177 172.13C176.018 172.13 184.445 169.243 184.445 166.827C184.445 164.764 177.079 163.291 166.177 163.291Z" fill="#323A50"/>
<path d="M182.559 167.062C182.559 165.295 175.134 164.411 166.059 164.411C156.925 164.411 149.559 165.295 149.559 167.062C149.559 168.83 156.984 171.011 166.059 171.011C175.193 171.011 182.559 168.83 182.559 167.062Z" fill="#DBDBDB"/>
<path d="M166.059 171.07C156.866 171.07 149.441 168.889 149.441 167.062C149.441 165 158.045 164.293 166.059 164.293C174.074 164.293 182.677 165 182.677 167.062C182.677 168.889 175.252 171.07 166.059 171.07ZM166.059 164.528C156.218 164.528 149.618 165.589 149.618 167.062C149.618 168.595 156.513 170.893 166.059 170.893C175.606 170.893 182.5 168.595 182.5 167.062C182.5 165.53 175.9 164.528 166.059 164.528Z" fill="#323A50"/>
<path opacity="0.76" d="M215.265 184.741C204.599 175.725 194.051 183.268 169.006 182.443C141.545 181.5 130.29 175.548 118.504 185.389C101.945 199.179 118.387 215.325 123.985 222.279C131.881 232.002 144.61 238.543 135.181 255.455C131.469 262.114 135.888 274.195 139.365 278.379C141.781 281.325 156.985 285.038 162.229 284.566C174.899 283.329 186.744 272.722 195.76 256.104C201.181 246.086 194.581 230.705 200.592 220.157C209.726 204.07 232.001 198.884 215.265 184.741Z" fill="url(#paint3_linear_3671_12241)"/>
<path opacity="0.93" d="M236.598 216.327C236.598 255.337 205.189 286.923 166.473 286.923C164.588 286.923 162.702 286.864 160.875 286.687C172.189 285.037 181.5 279.262 190.634 267.536C199.886 255.75 200.004 250.152 199.768 245.261C198.825 222.161 199.002 219.686 219.155 203.48C227.052 197.116 228.584 196.291 230.941 191.046C232.414 193.757 236.598 208.312 236.598 216.327Z" fill="url(#paint4_radial_3671_12241)"/>
<path d="M163.643 286.275C159.518 286.216 156.689 285.568 156.689 285.568L163.289 285.391L163.231 284.802C175.193 283.27 186.743 273.252 195.759 256.634C198.293 251.979 198.116 246.086 197.881 239.839C197.645 233.239 197.409 226.404 200.65 220.805C204.657 213.734 209.018 210.139 213.261 206.663C214.204 205.896 215.206 205.071 216.207 204.188C217.681 202.891 219.331 201.536 220.981 200.239C222.454 199.002 223.868 197.882 224.87 196.998C227.993 194.229 229.466 191.93 228.7 190.28L229.761 190.045C231.882 193.05 227.698 196.645 225.931 198.236C224.929 199.12 223.456 200.298 221.982 201.536C220.391 202.832 218.741 204.188 217.268 205.484C216.266 206.368 215.264 207.193 214.322 207.959C210.02 211.495 205.777 214.736 202.064 221.689C199.354 226.757 199.766 233.416 200.002 239.78C200.238 245.968 200.473 252.391 197.232 257.459C192.106 265.473 187.273 272.427 181.675 277.613C175.723 283.034 166.295 286.334 163.643 286.275Z" fill="#DBDBDB"/>
<path d="M162.819 284.979L162.76 284.389C174.84 282.798 186.567 272.721 195.642 255.986C198.235 251.212 198.058 245.202 197.822 238.955C197.587 232.414 197.351 225.696 200.533 220.216C204.54 213.204 208.665 209.786 213.026 206.191C213.969 205.366 214.97 204.6 215.972 203.716C217.445 202.42 219.095 201.064 220.745 199.768C222.219 198.53 223.633 197.411 224.694 196.527C227.169 194.346 229.231 192.048 227.876 190.104L228.347 189.75C229.997 192.107 227.758 194.582 225.047 196.998C224.045 197.882 222.631 199.061 221.099 200.298C219.508 201.595 217.799 202.95 216.385 204.246C215.383 205.13 214.381 205.955 213.438 206.721C209.137 210.316 205.012 213.675 201.063 220.57C197.999 225.932 198.235 232.591 198.47 239.014C198.706 245.379 198.883 251.448 196.172 256.398C191.635 264.707 186.449 271.425 180.733 276.375C175.017 281.207 168.947 284.154 162.819 284.979Z" fill="#323A50"/>
<path d="M213.144 200.475L230.115 188.041C230.115 188.041 228.524 184.682 227.581 184.623L210.846 197.352L213.144 200.475Z" fill="white"/>
<path d="M213.083 200.888L210.432 197.293L227.521 184.329H227.639C228.7 184.329 230.055 187.098 230.408 187.923L230.526 188.159L213.083 200.888ZM211.257 197.411L213.201 200.063L229.701 187.923C228.994 186.509 228.11 185.095 227.639 184.918L211.257 197.411Z" fill="#323A50"/>
<path d="M212.89 200.682C213.373 200.35 213.27 199.363 212.661 198.479C212.051 197.594 211.166 197.147 210.684 197.479C210.202 197.811 210.304 198.798 210.914 199.682C211.523 200.567 212.408 201.014 212.89 200.682Z" fill="white"/>
<path d="M212.554 201.064C211.965 201.064 211.199 200.593 210.728 199.827C210.02 198.766 209.903 197.646 210.551 197.234C210.728 197.116 210.904 197.057 211.081 197.057C211.671 197.057 212.437 197.529 212.908 198.295C213.615 199.355 213.733 200.475 213.085 200.887C212.908 201.005 212.731 201.064 212.554 201.064ZM211.022 197.646C210.963 197.646 210.904 197.646 210.845 197.705C210.551 197.882 210.669 198.707 211.199 199.473C211.671 200.18 212.26 200.475 212.554 200.475C212.613 200.475 212.672 200.475 212.731 200.416C213.026 200.239 212.908 199.414 212.378 198.648C211.906 197.941 211.376 197.646 211.022 197.646Z" fill="#323A50"/>
<path d="M100.648 164.528C99.8824 164.528 99.1752 164.234 98.5859 163.762L98.0556 163.291C96.8181 162.171 96.7002 160.227 97.8199 158.989L100.766 155.748C101.356 155.1 102.181 154.746 103.006 154.746C103.772 154.746 104.479 155.041 105.068 155.512L105.598 155.984C106.836 157.103 106.954 159.048 105.834 160.286L102.888 163.527C102.357 164.175 101.532 164.528 100.648 164.528ZM103.065 155.277C102.357 155.277 101.709 155.571 101.238 156.102L98.2913 159.343C97.4074 160.345 97.4663 161.877 98.4681 162.82L98.9984 163.291C99.4699 163.703 100.059 163.939 100.648 163.939C101.356 163.939 102.004 163.645 102.475 163.114L105.422 159.873C106.306 158.871 106.247 157.339 105.245 156.396L104.715 155.925C104.302 155.512 103.713 155.277 103.065 155.277Z" fill="#293C4F"/>
<path d="M105.589 160.193L102.418 163.601L103.324 164.444L106.495 161.036L105.589 160.193Z" fill="white"/>
<path d="M103.3 164.764C103.241 164.764 103.123 164.764 103.064 164.705L102.18 163.88C102.121 163.821 102.063 163.762 102.063 163.645C102.063 163.586 102.062 163.468 102.121 163.409L105.304 159.991C105.421 159.873 105.598 159.873 105.716 159.991L106.6 160.816C106.659 160.875 106.718 160.934 106.718 161.052C106.718 161.111 106.718 161.228 106.659 161.287L103.477 164.705C103.477 164.705 103.418 164.764 103.3 164.764ZM102.887 163.586L103.3 163.998L106.07 160.993L105.657 160.58L102.887 163.586Z" fill="#293C4F"/>
<path d="M126.991 180.852L126.166 185.153L116.619 176.373C118.682 175.018 120.214 174.605 120.214 174.605L126.991 180.852Z" fill="white"/>
<path d="M126.164 185.448L116.146 176.314L116.441 176.079C118.504 174.723 120.036 174.311 120.095 174.252L120.271 174.193L127.166 180.616L126.164 185.448ZM117.148 176.432L125.988 184.564L126.695 180.97L120.154 174.959C119.741 175.077 118.563 175.489 117.148 176.432Z" fill="#293C4F"/>
<path d="M126.814 185.449C127.498 185.432 128.026 184.39 127.994 183.121C127.963 181.852 127.383 180.837 126.7 180.854C126.017 180.871 125.489 181.914 125.52 183.183C125.552 184.451 126.131 185.466 126.814 185.449Z" fill="white"/>
<path d="M126.814 185.036C125.989 185.036 125.281 184.211 125.222 182.738C125.164 181.264 125.812 180.322 126.696 180.322C127.521 180.322 128.228 181.147 128.287 182.62C128.287 184.093 127.697 185.036 126.814 185.036ZM126.696 181.147C126.283 181.147 125.458 182.03 125.458 183.209C125.458 184.388 124.869 185.213 126.047 185.213V185.507L126.401 185.213C126.814 185.213 127.462 184.329 127.462 183.15C127.462 181.972 127.167 181.147 126.696 181.147Z" fill="#293C4F"/>
<path d="M99.1167 160.403C99.0578 160.403 98.9989 160.403 98.94 160.345C98.8221 160.227 98.8221 160.05 98.94 159.932L100.767 157.928C100.885 157.811 101.061 157.811 101.179 157.928C101.297 158.046 101.297 158.223 101.179 158.341L99.3524 160.345C99.2935 160.345 99.2346 160.403 99.1167 160.403Z" fill="#293C4F"/>
<path d="M101.65 157.634C101.591 157.634 101.532 157.634 101.473 157.575C101.355 157.457 101.355 157.28 101.473 157.163L102.003 156.573C102.121 156.455 102.298 156.455 102.416 156.573C102.534 156.691 102.534 156.868 102.416 156.986L101.886 157.575C101.827 157.634 101.709 157.634 101.65 157.634Z" fill="#293C4F"/>
<path d="M128.286 209.786C128.168 209.668 128.05 209.491 128.05 209.314V209.196C127.991 208.784 127.696 208.371 127.284 208.195L125.752 207.429L125.104 206.839L127.343 204.364L127.873 204.836L129.17 206.662C129.346 206.957 129.641 207.134 129.995 207.193L130.407 207.311C130.584 207.37 130.702 207.429 130.82 207.546C130.82 207.546 133.707 211.141 133.118 211.848C133.118 211.848 133.118 211.907 133.059 211.907C132.352 212.555 128.286 209.786 128.286 209.786Z" fill="white"/>
<path d="M132.706 212.261C131.527 212.261 128.463 210.257 128.109 210.021L128.05 209.962C127.874 209.786 127.756 209.55 127.756 209.314V209.196C127.697 208.843 127.461 208.548 127.166 208.43L125.575 207.664L124.691 206.839L127.343 203.893L128.109 204.6L129.406 206.427C129.582 206.662 129.759 206.78 130.054 206.839L130.466 206.957C130.702 207.016 130.879 207.134 131.056 207.311C132.175 208.725 134.002 211.259 133.295 212.025L133.236 212.084C133.059 212.202 132.882 212.261 132.706 212.261ZM128.463 209.55C129.406 210.139 131.822 211.671 132.706 211.671C132.765 211.671 132.824 211.671 132.824 211.671L132.882 211.612C133.059 211.318 131.999 209.432 130.584 207.723C130.525 207.664 130.407 207.605 130.29 207.546L129.877 207.429C129.465 207.311 129.111 207.075 128.875 206.78L127.579 205.012L127.284 204.777L125.458 206.78L125.87 207.134L127.402 207.9C127.874 208.136 128.227 208.607 128.345 209.137V209.255C128.345 209.373 128.404 209.432 128.463 209.55Z" fill="#293C4F"/>
<path d="M125.694 207.429L89.8066 175.136C89.8066 175.136 90.4548 173.545 91.3388 171.836C92.1638 172.602 127.874 204.895 127.874 204.895C128.228 205.189 127.992 206.014 127.403 206.721C127.403 206.721 127.403 206.78 127.344 206.78C126.755 207.487 125.989 207.723 125.694 207.429Z" fill="white"/>
<path d="M128.345 208.43C128.227 208.43 128.109 208.371 128.05 208.254C127.992 208.077 128.05 207.9 128.168 207.841C128.227 207.841 128.934 207.429 128.758 206.78C128.699 206.604 128.817 206.427 128.934 206.427C129.111 206.368 129.288 206.486 129.288 206.604C129.583 207.488 128.875 208.136 128.404 208.371C128.463 208.43 128.404 208.43 128.345 208.43Z" fill="#293C4F"/>
<path d="M106.66 121.216C98.1743 124.87 91.5154 135.123 92.694 142.725C93.7547 149.384 99.1172 155.041 100.296 156.22C100.001 156.573 99.7654 156.809 99.5886 156.986C99.8243 157.221 99.9422 157.339 99.9422 157.339L99.5297 157.811C99.5297 157.811 99.4118 157.693 99.1761 157.516C98.9404 157.752 98.7047 158.046 98.2922 158.459C97.0547 157.221 91.1029 150.916 89.8654 143.196C88.569 134.946 94.7565 124.516 103.36 119.743H102.181C93.8136 124.87 87.9797 135.123 89.2761 143.314C90.6315 152.036 97.9975 159.048 98.0565 159.166L98.2922 159.343L98.5279 159.107C99.1761 158.4 99.5297 158.046 99.8243 157.693C100.119 157.398 100.414 157.045 100.944 156.455L101.18 156.22L100.944 155.984C100.649 155.748 94.4029 149.738 93.2832 142.607C92.1047 135.241 98.6458 125.341 106.896 121.746C108.428 121.098 109.901 120.391 111.256 119.625H109.96C108.899 120.214 107.839 120.745 106.66 121.216Z" fill="#293C4F"/>
<path d="M95.0508 130.114C97.8204 125.695 101.945 122.1 106.306 120.214C106.719 120.037 107.072 119.861 107.485 119.684H106.012C101.533 121.628 97.4669 125.223 94.5794 129.761C91.7508 134.239 90.5133 139.012 91.1026 142.961C92.2222 149.973 97.7615 155.984 99.1758 157.457C99.2347 157.398 99.2936 157.28 99.3526 157.221C99.4115 157.162 99.4704 157.045 99.5294 156.986C98.1151 155.571 92.6936 149.678 91.6329 142.843C91.1026 139.071 92.3401 134.416 95.0508 130.114Z" fill="#293C4F"/>
<path d="M241.134 181.029C240.663 180.262 240.251 179.437 239.897 178.966C239.838 178.848 239.779 178.73 239.72 178.612L278.908 149.207H277.906L238.954 178.436L238.777 178.554L238.836 178.789C238.895 178.907 238.954 179.025 239.249 179.437C239.661 179.968 240.251 180.852 240.722 181.677L240.899 181.912L241.134 181.736C241.488 181.5 268.301 161.346 284.447 149.148H283.445C268.301 160.639 243.904 179.025 241.134 181.029Z" fill="#323A50"/>
<path d="M128.11 204.718C127.403 204.07 69.7705 151.977 48.8509 133.002H47.967C68.0616 151.211 124.869 202.537 127.756 205.13C127.815 205.189 127.815 205.366 127.756 205.602C127.697 205.896 127.462 206.25 127.226 206.545L127.167 206.604C126.754 207.075 126.283 207.252 126.047 207.252C125.988 207.252 125.929 207.252 125.871 207.193L43.6652 133.061H42.7812L125.458 207.664C125.576 207.782 125.812 207.841 126.047 207.841C126.519 207.841 127.108 207.546 127.579 207.016L127.638 206.957C127.992 206.604 128.228 206.191 128.346 205.779C128.463 205.366 128.346 204.953 128.11 204.718Z" fill="#293C4F"/>
<path opacity="0.39" d="M144.669 270.777L120.803 237.128L210.905 197.764L212.908 200.416L144.669 270.777Z" fill="url(#paint5_linear_3671_12241)"/>
<path opacity="0.39" d="M162.229 283.564L109.135 225.637L210.963 197.764L212.849 200.416L162.229 283.564Z" fill="url(#paint6_linear_3671_12241)"/>
</g>
<defs>
<linearGradient id="paint0_linear_3671_12241" x1="178.817" y1="200.069" x2="144.306" y2="65.8234" gradientUnits="userSpaceOnUse">
<stop offset="0.2655" stop-color="#032A3D" stop-opacity="0"/>
<stop offset="0.7809" stop-color="#032A3D"/>
</linearGradient>
<radialGradient id="paint1_radial_3671_12241" cx="0" cy="0" r="1" gradientUnits="userSpaceOnUse" gradientTransform="translate(167.721 237.173) scale(71.3026 70.9769)">
<stop offset="0.4054" stop-color="#032A3D" stop-opacity="0"/>
<stop offset="1" stop-color="#032A3D"/>
</radialGradient>
<linearGradient id="paint2_linear_3671_12241" x1="188.461" y1="173.777" x2="142.048" y2="125.323" gradientUnits="userSpaceOnUse">
<stop offset="0.3301" stop-color="#C4FFFF"/>
<stop offset="0.8279" stop-color="#47B4FF"/>
<stop offset="1" stop-color="#0C37A6"/>
</linearGradient>
<linearGradient id="paint3_linear_3671_12241" x1="140.877" y1="123.547" x2="204.037" y2="307.209" gradientUnits="userSpaceOnUse">
<stop offset="0.3043" stop-color="#032A3D" stop-opacity="0.2"/>
<stop offset="1" stop-color="#032A3D"/>
</linearGradient>
<radialGradient id="paint4_radial_3671_12241" cx="0" cy="0" r="1" gradientUnits="userSpaceOnUse" gradientTransform="translate(159.939 214.791) scale(75.2291 75.7632)">
<stop offset="0.33" stop-color="#032A3D" stop-opacity="0.7"/>
<stop offset="0.4716" stop-color="#07253A" stop-opacity="0.7593"/>
<stop offset="1" stop-color="#131831" stop-opacity="0.9805"/>
</radialGradient>
<linearGradient id="paint5_linear_3671_12241" x1="251.591" y1="208.219" x2="83.6052" y2="229.754" gradientUnits="userSpaceOnUse">
<stop offset="0.2329" stop-color="white"/>
<stop offset="0.7209" stop-color="#AAF1FF" stop-opacity="0"/>
</linearGradient>
<linearGradient id="paint6_linear_3671_12241" x1="238.763" y1="185.813" x2="142.453" y2="247.715" gradientUnits="userSpaceOnUse">
<stop offset="0.0206186" stop-color="white"/>
<stop offset="0.7861" stop-color="#AAF1FF" stop-opacity="0"/>
</linearGradient>
<clipPath id="clip0_3671_12241">
<rect width="330" height="330" fill="white"/>
</clipPath>
</defs>
</svg>
