<svg width="330" height="330" viewBox="0 0 330 330" fill="none" xmlns="http://www.w3.org/2000/svg">
<g clip-path="url(#clip0_3672_18005)">
<path d="M166.768 299.947C162.054 299.947 156.927 299.534 152.743 298.886C146.85 298.12 140.191 295.88 138.011 294.996L137.775 294.879V294.82C137.716 294.82 137.657 294.761 137.598 294.702C121.864 288.868 108.429 278.438 98.7055 264.707C88.7466 250.623 83.502 234.064 83.502 216.739C83.502 204.718 85.977 193.109 90.9859 182.266C95.7591 171.777 102.595 162.584 111.198 154.805C112.259 153.745 113.143 152.802 113.909 152.036C118.27 147.557 118.564 147.204 121.098 144.375C121.393 144.021 121.688 143.668 122.1 143.255C124.811 140.191 129.289 135.005 135.359 130.173C136.243 129.525 136.773 127.875 137.363 126.284C138.129 124.045 138.895 121.923 140.545 121.923C140.781 121.923 141.016 121.982 141.252 122.041C142.313 122.454 144.198 122.866 145.789 122.866C146.497 122.866 147.086 122.748 147.439 122.63C153.686 119.743 160.109 118.211 166.591 118.152H166.827C176.609 118.211 186.214 121.629 195.407 128.17C202.891 133.532 208.431 139.897 211.377 143.314C211.731 143.727 212.025 144.08 212.379 144.434C214.264 146.555 214.972 147.263 216.975 149.384C218.036 150.445 219.45 151.918 221.572 154.098C230.411 161.818 237.423 171.129 242.314 181.795C247.441 192.755 250.034 204.541 250.034 216.798C250.034 228.054 247.854 238.955 243.493 249.209C239.309 259.109 233.298 268.007 225.638 275.668C217.977 283.329 209.079 289.339 199.179 293.523C188.925 297.766 178.023 299.947 166.768 299.947ZM138.482 294.289C140.368 295.055 147.086 297.295 152.92 298.12C157.045 298.768 162.113 299.18 166.827 299.18C212.261 299.18 249.268 262.173 249.268 216.739C249.268 192.991 239.014 170.363 221.1 154.688C218.979 152.448 217.506 150.975 216.504 149.973C214.441 147.852 213.734 147.145 211.848 145.023C211.554 144.67 211.259 144.316 210.847 143.904C205.013 137.127 189.456 119.213 166.945 119.036H166.709C160.345 119.095 154.039 120.568 147.911 123.397C147.381 123.632 146.732 123.75 145.907 123.75C144.257 123.75 142.254 123.279 141.075 122.866C140.898 122.807 140.781 122.807 140.604 122.807C139.543 122.807 138.836 124.752 138.188 126.638C137.598 128.347 136.95 130.114 135.948 130.939C129.879 135.772 125.459 140.898 122.807 143.904C122.454 144.316 122.159 144.67 121.806 145.023C119.272 147.911 118.918 148.264 114.557 152.743C113.791 153.509 112.907 154.452 111.847 155.571C94.4627 171.188 84.4448 193.521 84.4448 216.857C84.4448 251.095 106.013 282.15 138.129 294.113L138.364 294.171V294.23C138.364 294.172 138.423 294.23 138.482 294.289Z" fill="#323A50"/>
<path d="M166.768 300.359C155.513 300.359 144.611 298.179 134.298 293.818C124.339 289.634 115.441 283.623 107.781 275.904C100.12 268.243 94.1091 259.345 89.8663 249.386C85.5055 239.132 83.3252 228.171 83.3252 216.916C83.3252 204.836 85.8591 193.227 90.8091 182.325C95.6412 171.836 102.418 162.584 111.022 154.805C117.563 148.087 117.916 147.616 120.391 144.846L120.922 144.257C121.216 143.904 121.57 143.491 121.982 143.02C124.516 140.132 128.759 135.241 134.357 130.586C135.418 129.702 136.538 128.818 137.716 127.993C138.306 127.521 138.718 126.225 139.013 125.046C139.484 123.396 139.897 121.864 141.193 121.864C141.429 121.864 141.723 121.923 141.959 122.041C142.666 122.395 143.55 122.571 144.611 122.571C146.143 122.571 147.439 122.159 147.557 122.1C153.804 119.212 160.168 117.739 166.591 117.739H166.827C176.609 117.798 186.273 121.216 195.407 127.816C202.891 133.237 208.254 139.366 211.377 143.02C211.789 143.491 212.084 143.904 212.438 144.198C215.266 147.439 215.325 147.498 221.631 154.039C230.529 161.818 237.482 171.129 242.432 181.795C247.559 192.814 250.152 204.6 250.152 216.857C250.152 228.112 247.972 239.014 243.611 249.327C239.427 259.286 233.416 268.184 225.697 275.845C218.036 283.505 209.138 289.516 199.179 293.759C188.984 298.12 178.082 300.359 166.768 300.359ZM141.252 123.102C140.898 123.102 140.486 124.575 140.25 125.4C139.838 126.814 139.484 128.287 138.482 128.995C137.363 129.82 136.243 130.645 135.182 131.529C129.643 136.125 125.459 140.957 122.925 143.845C122.513 144.316 122.159 144.729 121.864 145.082L121.334 145.671C118.859 148.5 118.506 148.912 111.906 155.689H111.847C94.4627 171.305 84.5038 193.58 84.5038 216.857C84.5038 262.173 121.393 299.062 166.709 299.062C212.025 299.062 248.914 262.173 248.914 216.857C248.914 193.168 238.661 170.598 220.806 154.923L220.747 154.864C214.382 148.323 214.323 148.205 211.495 144.964C211.2 144.611 210.847 144.198 210.434 143.786C204.6 137.009 189.102 119.095 166.768 118.918H166.532C160.345 118.918 154.157 120.391 148.029 123.22C147.793 123.337 146.261 123.75 144.552 123.75C143.314 123.75 142.254 123.514 141.37 123.102C141.311 123.102 141.252 123.102 141.252 123.102Z" fill="#323A50"/>
<path d="M166.473 292.934C156.101 292.934 146.142 290.93 136.714 286.923C127.58 283.093 119.448 277.554 112.376 270.541C105.364 263.529 99.8245 255.338 95.9941 246.204C91.987 236.775 89.9834 226.757 89.9834 216.386C89.9834 204.187 92.753 192.579 98.2334 181.854C103.419 171.6 111.08 162.466 120.273 155.454L120.744 156.102C101.71 170.598 90.8084 192.579 90.8084 216.386C90.8084 258.107 124.751 292.109 166.473 292.109V292.934Z" fill="#323A50"/>
<path d="M166.532 286.511C147.793 286.511 130.232 279.204 116.973 266.004C103.714 252.745 96.4658 235.125 96.4658 216.445C96.4658 197.705 103.773 180.145 116.973 166.886C130.232 153.627 147.852 146.379 166.532 146.379C185.212 146.379 202.832 153.686 216.091 166.886C229.35 180.145 236.598 197.764 236.598 216.445C236.598 235.184 229.291 252.745 216.091 266.004C202.832 279.204 185.271 286.511 166.532 286.511ZM166.532 146.909C128.228 146.909 97.0551 178.082 97.0551 216.386C97.0551 254.689 128.228 285.863 166.532 285.863C204.835 285.863 236.009 254.689 236.009 216.386C236.009 178.082 204.835 146.909 166.532 146.909Z" fill="#323A50"/>
<g opacity="0.34">
<path d="M166.414 284.272C204.004 284.272 234.477 253.957 234.477 216.563C234.477 179.168 204.004 148.854 166.414 148.854C128.824 148.854 98.3516 179.168 98.3516 216.563C98.3516 253.957 128.824 284.272 166.414 284.272Z" fill="url(#paint0_radial_3672_18005)"/>
<path d="M166.414 284.448C148.205 284.448 131.057 277.377 118.152 264.531C105.246 251.684 98.1748 234.654 98.1748 216.504C98.1748 198.354 105.305 181.323 118.152 168.477C131.057 155.631 148.205 148.559 166.414 148.559C184.623 148.559 201.771 155.631 214.677 168.477C227.582 181.323 234.653 198.354 234.653 216.504C234.653 234.654 227.523 251.684 214.677 264.531C201.771 277.436 184.623 284.448 166.414 284.448ZM166.414 149.031C128.994 149.031 98.5873 179.32 98.5873 216.563C98.5873 253.806 128.994 284.036 166.414 284.036C203.834 284.036 234.241 253.747 234.241 216.504C234.241 179.32 203.834 149.031 166.414 149.031Z" fill="#323A50"/>
</g>
<path opacity="0.83" d="M210.846 154.923C212.909 152.743 213.498 150.68 210.434 147.262C205.307 141.487 189.985 122.041 166.768 121.864H166.532C160.58 121.864 155.1 123.22 150.209 125.223C148.853 125.812 146.555 126.225 145.318 126.166C142.312 125.93 141.016 130.114 138.718 131.764C130.88 137.539 125.459 144.198 122.807 147.204C119.801 150.68 121.393 153.155 122.041 154.629C123.985 158.341 126.873 159.048 127.698 158.518C133.119 155.159 135.889 146.496 142.018 144.493C142.194 144.434 151.093 140.191 165.943 140.073C166.001 140.073 176.019 140.014 185.566 142.961C194.405 145.318 199.885 154.687 205.366 158.046C207.075 159.225 209.196 156.632 210.846 154.923Z" fill="url(#paint1_linear_3672_18005)"/>
<path d="M167.004 141.429C153.45 141.429 142.961 150.032 141.782 165C141.723 165.707 141.841 165.589 141.841 165.059C141.841 159.52 152.861 156.632 166.414 156.632C179.968 156.632 190.987 159.52 190.987 165.059C190.987 165.472 190.987 165.53 191.046 165.118C191.341 151.977 180.616 141.429 167.004 141.429Z" fill="#293C4F"/>
<path d="M148.912 149.973C148.912 150.091 148.794 149.325 148.853 148.5C148.912 147.911 149.089 147.204 149.383 146.673C149.678 146.143 150.032 145.612 150.503 145.141C150.503 145.141 150.562 145.141 150.562 145.082C153.332 142.254 159.224 140.309 166.06 140.309C175.548 140.309 183.267 144.021 183.267 148.677C183.267 148.677 183.267 149.266 183.208 149.679C183.149 150.445 182.855 151.152 182.383 151.859L205.424 158.164C205.424 157.693 205.424 158.636 205.424 156.868C205.424 145.377 187.923 136.007 166.355 136.007C144.787 136.007 127.285 145.377 127.285 156.868C127.285 157.516 127.344 158.223 127.462 158.871L150.149 152.154C149.737 151.623 149.03 150.621 148.912 149.973Z" fill="#DBDBDB"/>
<path d="M127.167 159.461L127.108 158.989C126.991 158.282 126.932 157.575 126.932 156.927C126.932 151.211 131.057 145.848 138.599 141.841C146.024 137.893 155.924 135.654 166.414 135.654C176.903 135.654 186.803 137.834 194.228 141.841C201.712 145.848 205.896 151.211 205.896 156.927C205.896 157.457 205.896 157.811 205.896 157.929C205.896 157.987 205.896 158.046 205.896 158.105H205.837C205.837 158.105 205.778 158.164 205.778 158.223V158.754L181.676 152.154L182.03 151.682C182.501 151.034 182.737 150.386 182.796 149.737C182.855 149.266 182.855 148.736 182.855 148.736C182.855 144.375 175.312 140.78 166.06 140.78C159.637 140.78 153.626 142.607 150.857 145.436L150.798 145.495C150.326 145.966 150.032 146.437 149.737 146.909C149.501 147.38 149.266 148.029 149.207 148.559C149.148 149.089 149.207 149.62 149.207 149.796V149.914C149.324 150.327 149.678 150.975 150.385 151.977L150.739 152.448L127.167 159.461ZM166.355 136.479C145.023 136.479 127.698 145.671 127.698 156.927C127.698 157.398 127.757 157.929 127.816 158.4L149.501 151.977C149.089 151.329 148.617 150.68 148.499 150.15C148.323 149.679 148.441 148.5 148.441 148.5C148.499 147.852 148.735 147.145 149.03 146.555C149.324 146.025 149.737 145.436 150.208 144.964L150.267 144.905C153.214 141.9 159.283 140.014 166.001 140.014C170.657 140.014 175.017 140.898 178.317 142.489C181.735 144.139 183.621 146.379 183.621 148.795C183.621 148.854 183.621 149.384 183.562 149.855C183.503 150.504 183.326 151.093 182.973 151.741L204.953 157.752C204.953 157.575 204.953 157.339 204.953 156.986C205.012 145.613 187.687 136.479 166.355 136.479Z" fill="#323A50"/>
<path opacity="0.52" d="M166.119 142.548C174.959 142.548 182.207 145.789 183.268 149.973C183.327 149.62 183.386 149.325 183.386 148.971C183.386 144.316 175.666 140.545 166.119 140.545C156.573 140.545 148.853 144.316 148.853 148.971C148.853 149.148 148.794 149.443 148.853 149.561C148.853 149.62 148.853 150.327 149.207 151.329C149.384 151.859 150.091 152.095 150.15 151.977C149.089 150.68 149.089 149.679 149.148 149.561C150.444 145.554 157.575 142.548 166.119 142.548Z" fill="url(#paint2_linear_3672_18005)"/>
<path d="M166.12 143.491C174.9 143.491 181.441 147.263 182.502 152.036C183.386 150.68 183.327 149.561 183.327 149.207C183.327 144.552 175.607 140.486 166.179 140.486C156.691 140.486 148.971 143.963 148.854 149.325C148.854 149.679 149.148 152.036 150.091 151.977C150.032 146.673 157.28 143.491 166.12 143.491Z" fill="#DBDBDB"/>
<path d="M182.266 153.038L182.09 152.095C181.029 147.321 174.311 143.904 166.12 143.904C159.991 143.904 154.806 145.436 152.213 148.029C151.034 149.207 150.504 150.504 150.504 151.977V152.389H150.091C149.915 152.389 149.62 152.33 149.325 152.036C148.618 151.27 148.441 149.561 148.441 149.266C148.5 146.555 150.386 144.139 153.804 142.489C157.045 140.898 161.406 140.073 166.179 140.073C170.775 140.073 175.195 141.016 178.495 142.725C181.854 144.434 183.74 146.732 183.74 149.207V149.266C183.74 149.679 183.74 150.857 182.856 152.213L182.266 153.038ZM166.12 140.957C156.397 140.957 149.266 144.493 149.207 149.384C149.207 149.62 149.384 150.68 149.679 151.27C149.856 149.914 150.445 148.618 151.565 147.498C154.275 144.788 159.697 143.138 166.061 143.138C170.363 143.138 174.252 144.021 177.316 145.671C179.909 147.027 181.736 148.913 182.502 151.034C182.797 150.268 182.797 149.679 182.797 149.384V149.325C182.856 144.729 175.195 140.957 166.12 140.957Z" fill="#323A50"/>
<path d="M166.532 284.684C148.323 284.684 131.116 277.554 118.27 264.707C105.364 251.802 98.293 234.654 98.293 216.445C98.293 201.359 103.125 187.098 112.2 175.195L112.672 175.548C103.655 187.393 98.9412 201.536 98.9412 216.445C98.9412 253.747 129.289 284.095 166.591 284.095C203.893 284.095 234.241 253.747 234.241 216.445C234.241 201.359 229.409 187.157 220.216 175.254L220.688 174.9C229.939 186.922 234.83 201.3 234.83 216.504C234.83 234.713 227.7 251.92 214.854 264.766C201.889 277.554 184.741 284.684 166.532 284.684Z" fill="#323A50"/>
<path d="M150.15 152.036L150.209 155.218L133.945 161.17C133.355 161.405 133.355 162.23 133.945 162.466L134.004 162.525L135.123 162.996C135.477 163.114 135.418 163.645 135.064 163.704L132.766 164.175H132.648C131.588 164.411 131.47 165.825 132.472 166.296L134.829 167.298C135.241 167.475 135.182 168.064 134.77 168.182C132.707 168.654 128.405 169.773 122.277 172.013C101.77 180.145 92.1055 202.832 92.1055 202.832C92.1055 202.832 94.0501 192.107 97.5858 184.8C99.8251 180.145 103.361 172.779 110.727 164.646C115.618 159.225 122.218 154.393 122.218 154.393C122.218 154.393 124.575 159.52 127.993 158.4C130.527 157.045 145.907 151.564 150.15 152.036Z" fill="white"/>
<path d="M90.8086 206.368L91.4568 202.773C91.4568 202.655 93.4604 191.93 96.9961 184.623C99.1765 180.086 102.771 172.543 110.196 164.352C115.087 158.989 121.687 154.098 121.746 154.039L122.159 153.745L122.335 154.216C122.335 154.275 124.162 158.164 126.814 158.164C127.05 158.164 127.344 158.105 127.639 158.046C130.35 156.75 144.61 151.623 149.56 151.623C149.796 151.623 150.032 151.623 150.209 151.682L150.562 151.741L150.621 155.572L134.062 161.641C133.885 161.7 133.885 161.818 133.885 161.877C133.885 161.936 133.885 162.054 134.062 162.113L135.241 162.584C135.594 162.702 135.771 163.055 135.712 163.35C135.653 163.704 135.418 163.998 135.064 164.057L132.589 164.588C132.235 164.647 132.059 164.941 132.059 165.177C132.059 165.413 132.118 165.766 132.471 165.884L134.828 166.886C135.182 167.063 135.359 167.357 135.359 167.77C135.3 168.182 135.064 168.477 134.71 168.536C132.707 169.007 128.405 170.068 122.276 172.366C111.787 176.55 104.185 184.623 99.7068 190.693C94.8158 197.293 92.3408 202.95 92.3408 203.009L90.8086 206.368ZM121.805 154.982C120.332 156.102 114.91 160.345 110.726 164.941C103.419 173.014 99.8247 180.498 97.6443 184.977C95.3461 189.75 93.6961 196.055 92.8711 199.768C94.1086 197.47 96.1122 193.993 98.8818 190.28C103.478 184.152 111.198 175.961 121.864 171.659C128.11 169.361 132.412 168.241 134.416 167.829C134.416 167.829 134.475 167.829 134.475 167.77C134.475 167.711 134.475 167.711 134.416 167.711L132.059 166.709C131.469 166.473 131.057 165.825 131.175 165.177C131.293 164.529 131.705 163.998 132.353 163.88L134.71 163.35L133.591 162.879C133.178 162.702 132.884 162.289 132.943 161.818C132.943 161.346 133.237 160.934 133.65 160.816L149.678 154.982V152.448C149.619 152.448 149.56 152.448 149.443 152.448C144.551 152.448 130.468 157.516 127.875 158.813H127.816C127.462 158.93 127.109 158.989 126.755 158.989C124.221 158.989 122.394 156.102 121.805 154.982Z" fill="#323A50"/>
<path d="M166.474 292.934V292.109C208.195 292.109 242.197 258.166 242.197 216.386C242.197 192.52 231.295 170.539 212.261 156.102L212.733 155.454C221.925 162.407 229.527 171.6 234.772 181.854C240.252 192.638 243.022 204.246 243.022 216.386C243.022 226.698 241.018 236.716 237.011 246.204C233.181 255.338 227.641 263.529 220.629 270.541C213.617 277.554 205.425 283.093 196.291 286.923C186.863 290.93 176.845 292.934 166.474 292.934Z" fill="#323A50"/>
<path d="M182.443 152.036L182.384 155.218L199.061 160.757C199.65 160.993 199.65 161.818 199.061 162.054L199.002 162.112L197.882 162.584C197.528 162.702 197.587 163.232 197.941 163.291L200.239 163.763H200.357C201.418 163.998 201.536 165.413 200.534 165.884L198.177 166.886C197.764 167.062 197.823 167.652 198.236 167.77C200.298 168.241 204.6 169.361 210.728 171.6C231.236 179.732 240.9 201.948 240.9 201.948C240.9 201.948 238.955 191.695 235.42 184.329C233.18 179.673 229.645 172.307 222.278 164.175C217.387 158.754 210.434 154.629 210.434 154.629C210.434 154.629 208.489 159.048 205.012 157.987C202.42 156.632 186.627 151.564 182.443 152.036Z" fill="white"/>
<path d="M242.196 205.425L240.723 202.125C240.723 202.066 238.248 196.527 233.357 190.045C228.82 184.093 221.277 176.138 210.787 171.954C204.6 169.655 200.357 168.595 198.353 168.123C198 168.064 197.705 167.711 197.705 167.357C197.646 166.945 197.882 166.65 198.236 166.473L200.593 165.472C200.946 165.354 201.064 165 201.005 164.764C201.005 164.529 200.828 164.234 200.475 164.175L198 163.645C197.646 163.586 197.411 163.291 197.352 162.938C197.293 162.584 197.528 162.289 197.823 162.171L199.002 161.7C199.178 161.641 199.178 161.523 199.178 161.464C199.178 161.405 199.178 161.288 199.002 161.229L182.03 155.572L182.089 151.741L182.443 151.682C182.62 151.682 182.914 151.623 183.15 151.623C188.159 151.623 202.655 156.279 205.425 157.634C205.72 157.752 206.073 157.752 206.368 157.752C208.843 157.752 210.316 154.511 210.375 154.511L210.552 154.098L210.964 154.334C211.023 154.393 218.036 158.636 222.927 163.998C230.293 172.13 233.946 179.732 236.127 184.27C239.603 191.518 241.607 201.83 241.607 201.948L242.196 205.425ZM198.177 162.879L200.534 163.409C201.182 163.527 201.653 164.057 201.712 164.705C201.771 165.354 201.418 165.943 200.828 166.238L198.471 167.239C198.471 167.239 198.412 167.239 198.412 167.298C198.412 167.357 198.412 167.357 198.471 167.357C200.475 167.829 204.836 168.889 211.023 171.188C221.689 175.43 229.409 183.504 234.005 189.573C236.775 193.227 238.778 196.586 240.016 198.884C239.132 195.289 237.541 189.279 235.302 184.564C233.121 180.086 229.527 172.602 222.22 164.529C218.095 159.932 212.32 156.22 210.846 155.277C210.316 156.279 208.784 158.636 206.309 158.636C205.896 158.636 205.543 158.577 205.13 158.459H205.071C202.42 157.163 188.1 152.507 183.15 152.507C183.032 152.507 182.973 152.507 182.914 152.507V154.982L199.296 160.463C199.768 160.639 200.003 160.993 200.003 161.464C200.003 161.936 199.768 162.348 199.355 162.525L198.177 162.879Z" fill="#323A50"/>
<path d="M191.282 165.413C191.282 159.814 180.203 156.927 166.59 156.927C152.978 156.927 141.899 159.814 141.899 165.413C141.899 171.011 152.978 177.139 166.59 177.139C180.203 177.139 191.282 171.011 191.282 165.413Z" fill="#DBDBDB"/>
<path d="M166.591 177.611C160.167 177.611 153.921 176.256 148.971 173.781C144.257 171.423 141.546 168.359 141.546 165.413C141.546 162.584 144.139 160.286 149.03 158.695C153.449 157.281 159.578 156.514 166.591 156.514C173.603 156.514 179.732 157.281 184.151 158.695C189.042 160.286 191.635 162.584 191.635 165.413C191.635 168.359 188.924 171.364 184.21 173.781C179.319 176.256 173.073 177.611 166.591 177.611ZM166.591 157.398C159.755 157.398 153.567 158.164 149.266 159.52C146.083 160.522 142.312 162.348 142.312 165.472C142.312 168.064 144.964 170.893 149.324 173.073C154.157 175.489 160.226 176.845 166.591 176.845C172.955 176.845 179.024 175.548 183.857 173.073C188.217 170.893 190.869 168.006 190.869 165.472C190.869 162.407 187.098 160.522 183.916 159.52C179.614 158.105 173.485 157.398 166.591 157.398Z" fill="#323A50"/>
<path d="M190.634 165.589C190.634 160.345 179.85 157.575 166.591 157.575C153.332 157.575 142.548 160.286 142.548 165.589C142.548 170.834 153.332 176.668 166.591 176.668C179.85 176.668 190.634 170.834 190.634 165.589Z" fill="#DBDBDB"/>
<path d="M166.59 176.727C160.344 176.727 154.274 175.489 149.56 173.132C145.023 170.952 142.43 168.182 142.43 165.531C142.43 162.997 144.905 160.875 149.56 159.461C153.862 158.164 159.755 157.457 166.59 157.457C181.264 157.457 190.751 160.639 190.751 165.531C190.751 168.182 188.158 170.952 183.621 173.132C178.848 175.489 172.837 176.727 166.59 176.727ZM166.59 157.693C152.035 157.693 142.665 160.757 142.665 165.589C142.665 170.657 153.155 176.55 166.59 176.55C180.026 176.55 190.515 170.657 190.515 165.589C190.515 160.757 181.146 157.693 166.59 157.693Z" fill="#323A50"/>
<path d="M189.396 165.707C189.396 161.17 179.201 158.813 166.591 158.813C153.98 158.813 143.785 161.17 143.785 165.707C143.785 170.245 153.98 175.313 166.591 175.313C179.201 175.313 189.396 170.245 189.396 165.707Z" fill="#DBDBDB"/>
<path d="M166.591 175.372C160.698 175.372 154.923 174.252 150.444 172.307C146.143 170.422 143.727 168.005 143.727 165.707C143.727 163.527 146.084 161.7 150.503 160.463C154.569 159.343 160.168 158.695 166.65 158.695C173.132 158.695 178.73 159.284 182.796 160.463C187.216 161.7 189.573 163.527 189.573 165.707C189.573 168.005 187.098 170.422 182.855 172.307C178.2 174.311 172.484 175.372 166.591 175.372ZM166.591 158.93C152.802 158.93 143.903 161.582 143.903 165.707C143.903 170.068 153.803 175.195 166.591 175.195C179.378 175.195 189.278 170.127 189.278 165.707C189.278 161.582 180.38 158.93 166.591 158.93Z" fill="#323A50"/>
<path d="M188.04 165.766C188.04 161.877 178.376 159.814 166.472 159.814C154.569 159.814 144.904 161.818 144.904 165.766C144.904 169.714 154.569 174.016 166.472 174.016C178.376 174.016 188.04 169.714 188.04 165.766Z" fill="#DBDBDB"/>
<path d="M166.413 174.134C160.815 174.134 155.394 173.191 151.092 171.482C147.026 169.832 144.728 167.77 144.728 165.825C144.728 163.939 146.967 162.348 151.092 161.287C154.981 160.286 160.226 159.755 166.354 159.755C172.483 159.755 177.786 160.286 181.617 161.287C185.801 162.348 187.981 163.939 187.981 165.825C187.981 167.77 185.683 169.891 181.617 171.482C177.492 173.191 172.011 174.134 166.413 174.134ZM166.413 159.932C153.39 159.932 144.904 162.23 144.904 165.766C144.904 169.538 154.274 173.898 166.413 173.898C178.553 173.898 187.922 169.538 187.922 165.766C187.922 162.23 179.495 159.932 166.413 159.932Z" fill="#323A50"/>
<path d="M186.508 165.707C186.508 162.584 177.492 160.993 166.355 160.993C155.217 160.993 146.201 162.584 146.201 165.707C146.201 168.83 155.217 172.661 166.355 172.661C177.492 172.661 186.508 168.83 186.508 165.707Z" fill="#DBDBDB"/>
<path d="M166.354 172.72C155.158 172.72 146.083 168.83 146.083 165.648C146.083 162.113 156.985 160.816 166.354 160.816C175.724 160.816 186.626 162.054 186.626 165.648C186.626 168.889 177.61 172.72 166.354 172.72ZM166.354 161.111C154.156 161.111 146.319 162.938 146.319 165.707C146.319 168.771 155.57 172.543 166.354 172.543C177.138 172.543 186.39 168.771 186.39 165.707C186.449 162.879 178.553 161.111 166.354 161.111Z" fill="#323A50"/>
<path d="M184.799 165.766C184.799 163.35 176.49 162.054 166.296 162.054C156.101 162.054 147.792 163.291 147.792 165.766C147.792 168.241 156.101 171.188 166.296 171.188C176.49 171.188 184.799 168.182 184.799 165.766Z" fill="#DBDBDB"/>
<path d="M166.354 171.246C156.042 171.246 147.792 168.241 147.792 165.707C147.792 162.938 157.397 161.936 166.354 161.936C175.312 161.936 184.917 162.938 184.917 165.707C184.917 168.241 176.608 171.246 166.354 171.246ZM166.354 162.171C155.394 162.171 147.969 163.645 147.969 165.766C147.969 168.182 156.454 171.07 166.354 171.07C176.254 171.07 184.74 168.123 184.74 165.766C184.74 163.586 177.315 162.171 166.354 162.171Z" fill="#323A50"/>
<path d="M182.855 165.943C182.855 164.175 175.43 163.291 166.237 163.291C157.044 163.291 149.619 164.175 149.619 165.943C149.619 167.711 157.044 169.891 166.237 169.891C175.43 169.891 182.855 167.711 182.855 165.943Z" fill="#DBDBDB"/>
<path d="M166.237 170.009C156.985 170.009 149.501 167.77 149.501 165.943C149.501 163.88 158.163 163.173 166.237 163.173C174.31 163.173 182.972 163.88 182.972 165.943C182.972 167.829 175.488 170.009 166.237 170.009ZM166.237 163.409C156.337 163.409 149.737 164.47 149.737 166.002C149.737 167.534 156.69 169.832 166.237 169.832C175.842 169.832 182.737 167.534 182.737 166.002C182.737 164.411 176.137 163.409 166.237 163.409Z" fill="#323A50"/>
<path d="M173.25 157.045C177.493 156.043 180.322 154.216 180.322 152.095C180.322 149.384 175.666 147.145 169.42 146.555C169.361 146.614 169.302 146.614 169.243 146.673C168.241 147.204 167.357 147.852 166.591 148.736C165.766 149.738 165.53 150.857 165.236 152.095C165 153.214 164.529 154.275 163.704 155.1C163.35 155.513 162.879 155.807 162.584 156.279C162.466 156.455 162.466 156.691 162.407 156.868C162.407 156.986 162.407 157.104 162.407 157.222C162.407 157.339 162.407 157.457 162.407 157.634C162.407 157.634 162.407 157.634 162.466 157.634C162.82 159.225 164.47 160.757 166.061 160.286C166.591 160.109 167.298 160.463 167.416 161.052C167.593 161.877 167.829 162.348 168.713 162.525C169.479 162.702 170.304 162.584 171.07 162.584C171.836 162.584 172.248 163.291 172.13 163.998C172.013 164.647 171.6 165.295 172.13 165.825C172.366 166.12 172.897 166.238 173.25 166.296C173.78 166.355 175.313 166.414 175.607 165.884C176.255 164.882 177.552 165.354 177.67 166.473C177.729 166.945 178.023 167.652 178.318 168.123C178.613 168.595 178.73 168.83 178.966 168.418C179.791 167.239 180.498 166.002 182.207 166.355C182.679 166.473 183.091 166.709 183.563 166.768C184.093 166.827 184.682 166.65 185.213 166.473C186.214 166.179 187.157 165.825 188.1 165.472C189.161 165.118 190.045 164.823 190.87 164.234C189.986 160.227 182.797 157.811 173.25 157.045Z" fill="#A3A3A3"/>
<path d="M178.966 168.713C178.79 168.713 178.731 168.536 178.554 168.3C178.554 168.241 178.495 168.182 178.436 168.123C178.083 167.593 177.847 166.886 177.788 166.414C177.729 165.766 177.199 165.413 176.727 165.413C176.374 165.413 176.079 165.589 175.902 165.884C175.608 166.356 174.665 166.414 174.134 166.414C173.899 166.414 173.604 166.414 173.427 166.356C173.133 166.297 172.543 166.179 172.249 165.884C171.836 165.472 171.954 164.941 172.131 164.47C172.19 164.293 172.19 164.116 172.249 163.998C172.308 163.645 172.19 163.291 172.013 162.997C171.836 162.82 171.6 162.643 171.306 162.643C171.129 162.643 170.952 162.643 170.775 162.643C170.599 162.643 170.363 162.643 170.127 162.643C169.597 162.643 169.243 162.584 168.89 162.525C167.947 162.348 167.652 161.818 167.534 160.993C167.475 160.522 166.945 160.286 166.533 160.286C166.474 160.286 166.356 160.286 166.297 160.345C166.061 160.404 165.825 160.463 165.649 160.463C164.175 160.463 162.938 159.048 162.584 157.693H162.525V157.634C162.525 157.516 162.525 157.398 162.525 157.222C162.525 157.104 162.525 156.986 162.525 156.868V156.75C162.525 156.573 162.584 156.338 162.702 156.22C162.879 155.866 163.174 155.63 163.409 155.395C163.527 155.277 163.645 155.159 163.822 155.041C164.529 154.275 165 153.332 165.295 152.095V152.036C165.531 150.857 165.825 149.679 166.65 148.677C167.416 147.734 168.418 147.086 169.302 146.614C169.361 146.556 169.42 146.556 169.479 146.497H169.538H169.597C176.079 147.086 180.558 149.443 180.558 152.154C180.558 154.157 178.141 155.984 174.016 157.045C184.034 157.929 190.34 160.522 191.283 164.234V164.293L191.224 164.352C190.458 164.941 189.456 165.295 188.454 165.589C188.1 165.707 187.806 165.825 187.452 165.943C186.804 166.179 186.156 166.414 185.508 166.591L185.39 166.65C184.977 166.768 184.506 166.886 184.034 166.886C183.975 166.886 183.916 166.886 183.858 166.886C183.563 166.886 183.327 166.768 183.091 166.65C182.915 166.591 182.738 166.532 182.561 166.473C182.384 166.414 182.149 166.414 181.972 166.414C180.852 166.414 180.263 167.298 179.615 168.182C179.556 168.3 179.497 168.359 179.438 168.477C179.202 168.595 179.084 168.713 178.966 168.713ZM176.727 165.236C177.375 165.236 177.906 165.766 178.024 166.414C178.083 166.886 178.318 167.534 178.613 168.006C178.672 168.064 178.672 168.123 178.731 168.182C178.79 168.3 178.908 168.477 178.966 168.477C178.966 168.477 179.025 168.477 179.143 168.3C179.202 168.182 179.261 168.123 179.32 168.006C179.968 167.004 180.616 166.12 181.854 166.12C182.031 166.12 182.266 166.12 182.502 166.179C182.679 166.238 182.915 166.297 183.091 166.356C183.327 166.473 183.563 166.532 183.858 166.532C184.329 166.591 184.859 166.414 185.331 166.297L185.449 166.238C186.097 166.061 186.745 165.825 187.334 165.589C187.688 165.472 187.983 165.354 188.336 165.236C189.338 164.882 190.222 164.588 190.988 164.057C189.986 160.345 183.504 157.811 173.309 157.045L172.661 156.986L173.309 156.868C177.611 155.866 180.322 153.981 180.322 152.036C180.322 149.443 175.784 147.204 169.538 146.556C169.479 146.614 169.42 146.614 169.361 146.673C168.477 147.145 167.534 147.793 166.768 148.677C165.943 149.679 165.708 150.739 165.472 151.918V151.977C165.177 153.273 164.706 154.216 163.94 155.041C163.822 155.159 163.704 155.277 163.527 155.454C163.291 155.689 162.997 155.925 162.82 156.22C162.761 156.338 162.702 156.573 162.643 156.75V156.809C162.643 156.868 162.643 156.986 162.643 157.045C162.643 157.163 162.643 157.222 162.643 157.339V157.398C162.938 158.695 164.116 160.05 165.531 160.05C165.708 160.05 165.943 159.991 166.12 159.932C166.238 159.932 166.297 159.873 166.415 159.873C166.886 159.873 167.534 160.227 167.593 160.757C167.711 161.523 168.006 161.995 168.831 162.113C169.184 162.172 169.538 162.231 170.009 162.231C170.186 162.231 170.422 162.231 170.599 162.231C170.775 162.231 170.952 162.231 171.129 162.231C171.483 162.231 171.777 162.348 172.013 162.643C172.249 162.938 172.366 163.35 172.308 163.763C172.308 163.939 172.249 164.116 172.19 164.293C172.072 164.764 171.954 165.177 172.308 165.531C172.543 165.825 173.074 165.943 173.368 165.943C173.545 165.943 173.781 166.002 174.075 166.002C174.9 166.002 175.49 165.825 175.666 165.589C175.961 165.413 176.315 165.236 176.727 165.236Z" fill="#323A50"/>
<path d="M166.591 160.404L166.532 160.227C167.004 160.05 167.475 159.932 167.947 159.873H168.005C168.123 159.873 168.182 159.873 168.241 159.814C168.359 159.755 168.477 159.638 168.536 159.579C168.654 159.402 168.713 159.166 168.772 158.93C168.83 158.695 168.889 158.459 169.007 158.223C169.243 157.87 169.655 157.575 170.245 157.398C170.422 157.339 170.657 157.281 170.893 157.222C171.129 157.163 171.423 157.104 171.659 157.045C172.955 156.573 173.839 155.336 174.723 153.98L174.9 154.098C174.016 155.454 173.132 156.75 171.718 157.28C171.482 157.339 171.188 157.398 170.952 157.457C170.775 157.516 170.539 157.575 170.363 157.634C169.832 157.811 169.479 158.047 169.243 158.4C169.125 158.577 169.066 158.813 169.007 159.048C168.948 159.284 168.889 159.579 168.713 159.755C168.595 159.932 168.477 160.05 168.3 160.109C168.182 160.168 168.064 160.168 167.947 160.168C167.475 160.109 167.004 160.227 166.591 160.404Z" fill="#323A50"/>
<path d="M172.248 163.232H172.071C172.13 162.879 172.071 162.525 171.953 162.231C171.894 162.113 171.836 161.995 171.836 161.877C171.777 161.7 171.659 161.524 171.659 161.347C171.482 160.581 171.777 159.873 172.189 159.107L172.366 159.225C172.012 159.932 171.659 160.64 171.836 161.347C171.894 161.524 171.953 161.7 172.012 161.877C172.071 161.995 172.13 162.113 172.13 162.231C172.248 162.466 172.307 162.879 172.248 163.232Z" fill="#323A50"/>
<path d="M176.197 165.766L176.079 165.648C176.551 165.177 176.904 164.529 177.081 163.822C177.199 163.173 177.199 162.466 177.081 161.7V161.641C177.022 161.288 176.963 160.875 177.14 160.522L177.317 160.64C177.14 160.934 177.199 161.288 177.258 161.641V161.7C177.376 162.525 177.376 163.291 177.258 163.94C177.022 164.588 176.668 165.295 176.197 165.766Z" fill="#323A50"/>
<path d="M178.79 168.83C178.731 167.593 178.849 166.297 179.261 165.059C179.32 164.941 179.32 164.882 179.379 164.764C179.497 164.352 179.674 163.881 179.674 163.409C179.674 163.056 179.615 162.761 179.556 162.466C179.497 162.054 179.379 161.7 179.438 161.288H179.615C179.556 161.641 179.674 161.995 179.732 162.407C179.791 162.761 179.85 163.056 179.85 163.409C179.85 163.881 179.674 164.352 179.497 164.823C179.438 164.941 179.438 165 179.379 165.118C178.966 166.297 178.849 167.534 178.907 168.772H178.79V168.83Z" fill="#323A50"/>
<path d="M183.504 166.945C182.915 166.297 182.384 165.589 181.913 164.764C181.677 164.352 181.441 163.881 181.441 163.35C181.441 162.997 181.559 162.643 181.618 162.29C181.736 161.936 181.795 161.641 181.795 161.288V161.229H181.854C181.913 161.17 182.031 161.17 182.09 161.229L181.972 161.406C181.972 161.759 181.854 162.054 181.795 162.407C181.677 162.761 181.618 163.056 181.618 163.409C181.618 163.881 181.854 164.352 182.09 164.706C182.502 165.472 183.032 166.179 183.622 166.827L183.504 166.945Z" fill="#323A50"/>
<path d="M166.001 146.791C173.367 146.791 179.496 149.207 180.203 152.271C180.203 152.213 180.203 152.154 180.203 152.095C180.203 148.677 173.839 145.966 165.942 145.966C158.046 145.966 151.682 148.736 151.682 152.095C151.682 152.212 151.682 152.389 151.741 152.507C152.212 149.325 158.458 146.791 166.001 146.791Z" fill="#DBDBDB"/>
<path opacity="0.2" d="M166.001 157.634C173.812 157.634 180.144 155.154 180.144 152.095C180.144 149.035 173.812 146.555 166.001 146.555C158.19 146.555 151.858 149.035 151.858 152.095C151.858 155.154 158.19 157.634 166.001 157.634Z" fill="#A3A3A3"/>
<path d="M130.055 96.7017L143.02 108.723L145.966 105.659L132.943 93.5785L135.3 91.1035L125.871 89.5125L125.812 89.5714L127.757 99.1178L130.055 96.7017Z" fill="#FF5B00"/>
<path d="M165.354 148.5L163.881 155.395L146.732 138.836L150.975 134.475L165.354 148.5Z" fill="white"/>
<path d="M164.116 156.22L146.143 138.895L150.916 133.945L165.766 148.382L164.116 156.22ZM147.321 138.836L163.644 154.57L164.941 148.559L150.975 135.005L147.321 138.836Z" fill="#323A50"/>
<path d="M164.882 155.925C165.956 155.925 166.827 154.263 166.827 152.212C166.827 150.162 165.956 148.5 164.882 148.5C163.808 148.5 162.938 150.162 162.938 152.212C162.938 154.263 163.808 155.925 164.882 155.925Z" fill="white"/>
<path d="M164.883 156.338C163.586 156.338 162.525 154.511 162.525 152.213C162.525 149.914 163.586 148.088 164.883 148.088C166.179 148.088 167.24 149.914 167.24 152.213C167.24 154.511 166.179 156.338 164.883 156.338ZM164.883 148.854C164.175 148.854 163.35 150.209 163.35 152.154C163.35 154.098 164.175 155.454 164.883 155.454C165.59 155.454 166.415 154.098 166.415 152.154C166.415 150.209 165.59 148.854 164.883 148.854Z" fill="#323A50"/>
<path d="M156.632 139.955C152.684 141.193 152.39 144.257 152.39 144.257L147.498 143.079L138.836 132.766L148.382 129.054L154.923 135.3L156.632 139.955Z" fill="white"/>
<path d="M152.743 144.788L152.272 144.67L147.263 143.432L138.129 132.589L148.441 128.582L155.218 135.123L157.104 140.309L156.691 140.427C153.038 141.547 152.743 144.257 152.743 144.375V144.788ZM147.734 142.725L152.095 143.786C152.331 142.843 153.215 140.839 156.102 139.779L154.57 135.595L148.265 129.584L139.484 132.943L147.734 142.725Z" fill="#323A50"/>
<path d="M154.51 135.418C149.442 137.775 147.969 141.311 147.616 142.548C147.557 142.725 147.321 142.784 147.144 142.666L70.8906 69.5357L78.2567 61.7571L154.628 135.005C154.746 135.123 154.746 135.359 154.51 135.418Z" fill="white"/>
<path d="M147.38 143.197C147.204 143.197 147.027 143.138 146.909 143.02L70.3018 69.5358L78.2571 61.168L154.923 134.711C155.1 134.888 155.159 135.123 155.1 135.3C155.041 135.477 154.923 135.713 154.687 135.83C149.796 138.07 148.382 141.429 147.97 142.725C147.97 143.02 147.675 143.197 147.38 143.197ZM71.4803 69.4769L147.321 142.254C147.793 140.722 149.443 137.422 154.216 135.123L78.2571 62.3465L71.4803 69.4769Z" fill="#323A50"/>
<path d="M147.97 134.004C146.968 135.064 145.318 135.064 144.258 134.063L139.897 129.879C138.836 128.877 138.836 127.227 139.838 126.166C140.84 125.105 142.49 125.105 143.55 126.107L147.911 130.291C148.972 131.352 148.972 133.002 147.97 134.004Z" fill="white"/>
<path d="M146.084 135.241C145.318 135.241 144.552 134.946 144.022 134.416L139.661 130.232C138.482 129.054 138.424 127.168 139.602 125.989C140.191 125.4 140.957 125.046 141.782 125.046C142.548 125.046 143.315 125.341 143.845 125.871L148.206 130.055C149.384 131.234 149.443 133.12 148.265 134.298C147.734 134.887 146.968 135.241 146.084 135.241ZM141.782 125.871C141.193 125.871 140.604 126.107 140.191 126.52C139.366 127.404 139.366 128.759 140.25 129.643L144.611 133.827C145.024 134.239 145.554 134.416 146.143 134.416C146.732 134.416 147.322 134.18 147.734 133.768C148.559 132.884 148.559 131.529 147.675 130.645L143.315 126.461C142.902 126.048 142.372 125.871 141.782 125.871Z" fill="#323A50"/>
<path d="M145.495 132.766C144.847 133.414 143.786 133.473 143.138 132.825L140.015 129.879C139.366 129.23 139.308 128.17 139.956 127.522C140.604 126.873 141.665 126.814 142.313 127.463L145.436 130.409C146.143 130.998 146.143 132.118 145.495 132.766Z" fill="white"/>
<path d="M144.316 133.709C143.786 133.709 143.256 133.532 142.843 133.12L139.72 130.173C138.895 129.407 138.836 128.052 139.602 127.227C140.015 126.814 140.545 126.579 141.134 126.579C141.665 126.579 142.195 126.755 142.607 127.168L145.731 130.114C146.143 130.527 146.379 130.998 146.379 131.588C146.379 132.177 146.202 132.707 145.79 133.12C145.436 133.473 144.847 133.709 144.316 133.709ZM141.193 127.404C140.84 127.404 140.486 127.521 140.25 127.816C139.779 128.346 139.779 129.113 140.309 129.643L143.432 132.589C143.668 132.825 143.963 132.943 144.316 132.943C144.67 132.943 145.023 132.825 145.259 132.53C145.495 132.295 145.613 131.941 145.613 131.588C145.613 131.234 145.436 130.939 145.2 130.704L142.077 127.757C141.841 127.521 141.488 127.404 141.193 127.404Z" fill="#323A50"/>
<path d="M132.707 129.113C135.477 126.873 137.657 123.514 139.248 120.332L136.184 114.498L132.413 111.846L123.632 101.652L77.2556 58.5161L66.2949 68.0625L107.427 106.543L125.047 122.336L132.707 129.113Z" fill="url(#paint3_linear_3672_18005)"/>
<path d="M114.322 153.803C114.557 153.391 115.265 152.448 115.559 152.153C115.559 151.918 115.147 152.507 115.324 152.271C115.441 151.859 115.736 151.446 116.266 151.328C116.384 150.857 116.679 150.386 117.268 150.268C117.268 150.091 117.327 149.855 117.445 149.678C116.207 150.739 114.675 152.153 113.909 153.509C110.374 159.814 115.206 179.202 128.229 211.141C131.116 218.153 134.063 225.166 136.832 231.295H137.599C125.4 204.011 109.195 163.468 114.322 153.803Z" fill="#323A50"/>
<path d="M89.9249 153.45C93.6964 148.146 99.766 145.789 107.957 146.32C112.671 146.673 116.737 147.911 118.446 148.5C118.564 148.323 118.741 148.087 118.977 147.97C117.504 147.439 113.143 146.025 108.016 145.612C99.7071 145.023 93.2839 147.557 89.3946 152.92C88.7464 153.568 69.9482 172.955 63.9374 186.037C62.3464 189.455 59.2232 189.279 53.4482 188.925C48.6749 188.63 42.1339 188.218 33.3535 189.691L33.4714 190.339C42.1928 188.866 48.6749 189.279 53.3892 189.573C59.2232 189.927 62.7589 190.162 64.5267 186.273C69.4178 175.607 82.9124 160.698 87.9214 155.336C86.1535 159.932 87.2142 167.534 91.1035 177.905C94.816 187.864 101.062 200.416 109.666 215.207C112.848 220.687 116.148 226.05 119.33 231.177H120.096C116.855 226.109 113.437 220.511 110.196 214.854C90.9857 181.736 83.9731 160.462 89.9249 153.45Z" fill="#323A50"/>
<path d="M243.257 153.45C239.486 148.146 233.416 145.789 225.225 146.32C220.511 146.673 216.445 147.911 214.736 148.5C214.618 148.323 214.441 148.087 214.206 147.97C215.679 147.439 220.04 146.025 225.166 145.612C233.475 145.023 239.898 147.557 243.788 152.92C244.436 153.568 263.234 172.955 269.245 186.037C270.836 189.455 273.959 189.279 279.734 188.925C284.507 188.63 291.048 188.218 299.829 189.691L299.711 190.339C290.99 188.866 284.507 189.279 279.793 189.573C273.959 189.927 270.423 190.162 268.656 186.273C263.765 175.607 250.27 160.698 245.261 155.336C247.029 159.932 245.968 167.534 242.079 177.905C238.366 187.864 232.12 200.416 223.516 215.207C220.334 220.687 217.034 226.05 213.852 231.177H213.086C216.327 226.109 219.745 220.511 222.986 214.854C242.197 181.736 249.209 160.462 243.257 153.45Z" fill="#323A50"/>
<path d="M218.566 153.627C218.33 153.214 217.034 151.211 216.798 150.857C216.798 150.621 218.094 151.682 217.977 151.505C217.859 151.093 217.387 150.739 216.916 150.562C216.798 150.091 216.739 149.855 216.209 149.737C216.209 149.561 215.678 149.678 215.619 149.502C216.857 150.562 218.389 151.977 219.155 153.332C222.691 159.637 217.859 179.025 204.835 210.964C201.948 217.977 199.002 224.989 196.232 231.118H195.466C207.487 203.834 223.693 163.291 218.566 153.627Z" fill="#323A50"/>
<path d="M118.917 148.028C118.033 147.734 116.383 147.145 114.203 146.673L118.623 148.323C118.682 148.205 118.8 148.146 118.917 148.028Z" fill="#323A50"/>
<path d="M117.621 149.384L107.957 145.73C107.485 145.671 107.073 145.671 106.66 145.671L117.385 149.737C117.444 149.561 117.503 149.502 117.621 149.384Z" fill="#323A50"/>
<path d="M116.442 150.739L103.242 145.73C102.948 145.73 102.653 145.789 102.358 145.848L116.266 151.093C116.324 150.975 116.383 150.857 116.442 150.739Z" fill="#323A50"/>
<path d="M115.264 152.271C115.264 152.212 115.264 152.212 115.264 152.154L99.7657 146.32C99.53 146.379 99.2943 146.437 99.0586 146.496L115.028 152.566C115.205 152.448 115.264 152.33 115.264 152.271Z" fill="#323A50"/>
<path d="M114.321 153.745C114.38 153.686 114.439 153.568 114.439 153.509L97.35 147.027C97.1732 147.086 96.9375 147.145 96.7607 147.263L114.204 153.863C114.263 153.863 114.321 153.804 114.321 153.745Z" fill="#323A50"/>
<path d="M113.791 155.1L95.1697 148.029C94.9929 148.087 94.875 148.205 94.6982 148.264L113.673 155.454C113.673 155.395 113.732 155.218 113.791 155.1Z" fill="#323A50"/>
<path d="M113.437 156.75L93.3422 149.148C93.2243 149.266 93.1065 149.325 92.9297 149.443L113.378 157.162C113.378 157.045 113.378 156.927 113.437 156.75Z" fill="#323A50"/>
<path d="M113.26 158.577L91.7511 150.445C91.6332 150.562 91.5153 150.621 91.3975 150.739L113.26 158.989C113.26 158.871 113.26 158.695 113.26 158.577Z" fill="#323A50"/>
<path d="M113.319 160.403L90.5134 151.741C90.3955 151.859 90.3366 151.977 90.2188 152.095L113.319 160.875C113.319 160.698 113.319 160.521 113.319 160.403Z" fill="#323A50"/>
<path d="M113.437 162.289L89.3353 153.155C89.2764 153.214 89.2175 153.332 89.0996 153.509L113.437 162.761C113.496 162.584 113.496 162.407 113.437 162.289Z" fill="#323A50"/>
<path d="M113.673 164.175L88.4512 154.629C88.3923 154.747 88.3333 154.864 88.2744 154.982L113.732 164.647C113.732 164.47 113.732 164.293 113.673 164.175Z" fill="#323A50"/>
<path d="M114.026 166.12L87.862 156.161C87.803 156.279 87.8031 156.396 87.7441 156.573L114.144 166.591C114.085 166.414 114.026 166.296 114.026 166.12Z" fill="#323A50"/>
<path d="M114.321 167.946L87.3909 157.752C87.3909 157.87 87.332 157.987 87.332 158.164L114.38 168.418C114.38 168.241 114.38 168.123 114.321 167.946Z" fill="#323A50"/>
<path d="M114.792 169.95L87.2725 159.52C87.2725 159.637 87.2725 159.814 87.2725 159.932L114.91 170.421C114.851 170.303 114.792 170.127 114.792 169.95Z" fill="#323A50"/>
<path d="M115.264 171.954L87.2725 161.346C87.2725 161.464 87.2725 161.641 87.2725 161.818L115.381 172.484C115.322 172.248 115.264 172.071 115.264 171.954Z" fill="#323A50"/>
<path d="M115.736 174.016L87.332 163.232C87.332 163.35 87.3909 163.527 87.3909 163.704L115.853 174.488C115.853 174.311 115.795 174.134 115.736 174.016Z" fill="#323A50"/>
<path d="M116.266 175.902L87.5674 165.059C87.5674 165.236 87.6263 165.354 87.6263 165.53L116.383 176.432C116.383 176.196 116.325 176.078 116.266 175.902Z" fill="#323A50"/>
<path d="M116.855 177.964L87.9209 167.004C87.9798 167.18 87.9798 167.298 88.0388 167.475L117.032 178.436C116.973 178.318 116.914 178.141 116.855 177.964Z" fill="#323A50"/>
<path d="M117.503 180.027L88.3926 169.007C88.4515 169.184 88.4515 169.361 88.5104 169.478L117.68 180.498C117.562 180.321 117.562 180.145 117.503 180.027Z" fill="#323A50"/>
<path d="M118.151 182.089L88.9229 171.011C88.9818 171.188 88.9818 171.364 89.0407 171.482L118.328 182.561C118.21 182.443 118.21 182.266 118.151 182.089Z" fill="#323A50"/>
<path d="M118.741 184.034L89.4531 172.896C89.5121 173.073 89.571 173.25 89.571 173.368L118.858 184.505C118.858 184.329 118.8 184.211 118.741 184.034Z" fill="#323A50"/>
<path d="M119.448 186.096L90.1016 174.959C90.1605 175.136 90.2194 175.313 90.2783 175.489L119.625 186.627C119.566 186.45 119.507 186.273 119.448 186.096Z" fill="#323A50"/>
<path d="M120.155 188.218L90.8672 177.08C90.9261 177.257 90.985 177.434 91.044 177.611L120.331 188.689C120.273 188.512 120.214 188.336 120.155 188.218Z" fill="#323A50"/>
<path d="M120.921 190.339L91.6924 179.261C91.7513 179.438 91.8103 179.614 91.8692 179.791L121.098 190.87C121.039 190.634 120.98 190.516 120.921 190.339Z" fill="#323A50"/>
<path d="M121.629 192.402L92.459 181.323C92.5179 181.5 92.5768 181.677 92.6358 181.854L121.746 192.873C121.746 192.755 121.688 192.579 121.629 192.402Z" fill="#323A50"/>
<path d="M122.394 194.582L93.4014 183.562C93.4603 183.739 93.5192 183.916 93.6371 184.093L122.63 195.054C122.571 194.877 122.512 194.7 122.394 194.582Z" fill="#323A50"/>
<path d="M123.219 196.645L94.3438 185.684C94.4027 185.861 94.5206 186.037 94.5795 186.214L123.396 197.116C123.337 196.998 123.278 196.821 123.219 196.645Z" fill="#323A50"/>
<path d="M123.985 198.648L95.2871 187.805C95.346 187.982 95.4639 188.159 95.5228 188.336L124.162 199.178C124.103 199.002 124.044 198.884 123.985 198.648Z" fill="#323A50"/>
<path d="M124.692 200.652L96.1709 189.868C96.2298 190.044 96.3477 190.221 96.4066 190.398L124.869 201.182C124.869 201.005 124.81 200.828 124.692 200.652Z" fill="#323A50"/>
<path d="M125.577 202.832L97.291 192.107C97.3499 192.284 97.4678 192.461 97.5267 192.638L125.754 203.363C125.695 203.127 125.636 203.009 125.577 202.832Z" fill="#323A50"/>
<path d="M126.402 204.954L98.3516 194.346C98.4105 194.523 98.5283 194.7 98.5873 194.877L126.578 205.484C126.519 205.248 126.46 205.13 126.402 204.954Z" fill="#323A50"/>
<path d="M127.226 207.075L99.4707 196.527C99.5296 196.704 99.6475 196.88 99.7064 197.057L127.403 207.546C127.403 207.429 127.344 207.252 127.226 207.075Z" fill="#323A50"/>
<path d="M128.051 209.137L100.531 198.707C100.649 198.884 100.708 199.061 100.826 199.237L128.228 209.609C128.228 209.432 128.169 209.314 128.051 209.137Z" fill="#323A50"/>
<path d="M128.876 211.141L101.651 200.829C101.769 201.005 101.828 201.182 101.946 201.359L129.053 211.612C128.994 211.436 128.935 211.318 128.876 211.141Z" fill="#323A50"/>
<path d="M129.76 213.321L102.889 203.127C103.007 203.303 103.065 203.48 103.183 203.657L129.996 213.793C129.937 213.675 129.878 213.439 129.76 213.321Z" fill="#323A50"/>
<path d="M130.644 215.443L104.126 205.366C104.244 205.543 104.303 205.72 104.421 205.896L130.88 215.914C130.821 215.796 130.762 215.62 130.644 215.443Z" fill="#323A50"/>
<path d="M131.587 217.623L105.423 207.723C105.541 207.9 105.6 208.077 105.717 208.254L131.823 218.153C131.764 217.977 131.646 217.8 131.587 217.623Z" fill="#323A50"/>
<path d="M132.529 219.862L106.719 210.08C106.837 210.257 106.896 210.434 107.013 210.611L132.706 220.334C132.706 220.216 132.588 220.039 132.529 219.862Z" fill="#323A50"/>
<path d="M133.414 221.866L107.957 212.202C108.075 212.378 108.134 212.555 108.311 212.732L133.65 222.337C133.532 222.22 133.473 222.043 133.414 221.866Z" fill="#323A50"/>
<path d="M134.357 224.046L109.312 214.559C109.43 214.736 109.548 214.912 109.666 215.089L134.593 224.518C134.475 224.4 134.416 224.223 134.357 224.046Z" fill="#323A50"/>
<path d="M135.299 226.227L110.667 216.857C110.785 217.034 110.903 217.211 111.021 217.388L135.535 226.698C135.417 226.58 135.358 226.404 135.299 226.227Z" fill="#323A50"/>
<path d="M136.242 228.466L112.022 219.273C112.14 219.45 112.258 219.627 112.376 219.862L136.478 228.996C136.419 228.82 136.36 228.584 136.242 228.466Z" fill="#323A50"/>
<path d="M137.185 230.47L113.378 221.454C113.496 221.63 113.614 221.807 113.731 222.043L137.421 231C137.303 230.823 137.244 230.646 137.185 230.47Z" fill="#323A50"/>
<path d="M136.243 231.825L114.675 223.634C114.793 223.811 114.911 224.046 115.028 224.223L135.182 231.884C135.477 231.825 135.83 231.825 136.243 231.825Z" fill="#323A50"/>
<path d="M131.41 231.825L116.089 226.05C116.207 226.227 116.325 226.463 116.442 226.639L130.232 231.884C130.644 231.825 131.057 231.825 131.41 231.825Z" fill="#323A50"/>
<path d="M126.52 231.766L117.562 228.348C117.68 228.525 117.798 228.761 117.916 228.937L125.341 231.766C125.754 231.766 126.107 231.766 126.52 231.766Z" fill="#323A50"/>
<path d="M121.628 231.766L119.094 230.823C119.212 231 119.329 231.236 119.447 231.413L120.508 231.825C120.921 231.766 121.274 231.766 121.628 231.766Z" fill="#323A50"/>
<path d="M214.265 147.91C214.383 147.969 214.5 148.087 214.677 148.146L218.625 146.614C216.681 147.144 215.208 147.616 214.265 147.91Z" fill="#323A50"/>
<path d="M215.974 149.502L226.11 145.612C225.697 145.612 225.226 145.671 224.813 145.671L215.738 149.148C215.797 149.325 215.915 149.443 215.974 149.502Z" fill="#323A50"/>
<path d="M216.916 150.975L230.411 145.789C230.116 145.73 229.822 145.73 229.527 145.73L216.681 150.68C216.681 150.739 216.74 150.798 216.74 150.798C216.799 150.857 216.857 150.916 216.916 150.975Z" fill="#323A50"/>
<path d="M218.095 152.389L233.652 146.378C233.417 146.32 233.181 146.261 232.945 146.202L217.859 151.977C217.977 152.153 218.036 152.271 218.095 152.389Z" fill="#323A50"/>
<path d="M218.802 153.803L236.009 147.144C235.832 147.085 235.655 147.027 235.42 146.909L218.625 153.391C218.684 153.568 218.743 153.685 218.802 153.803Z" fill="#323A50"/>
<path d="M219.391 155.395L238.131 148.146C237.954 148.087 237.836 147.97 237.659 147.911L219.273 154.982C219.332 155.159 219.332 155.277 219.391 155.395Z" fill="#323A50"/>
<path d="M219.627 156.809C219.627 156.927 219.627 157.045 219.627 157.162L239.898 149.325C239.781 149.207 239.663 149.148 239.486 149.03L219.627 156.691C219.627 156.75 219.627 156.75 219.627 156.809Z" fill="#323A50"/>
<path d="M219.687 158.694C219.687 158.753 219.687 158.871 219.687 158.93L241.372 150.562C241.254 150.444 241.137 150.385 241.019 150.268L219.687 158.518C219.687 158.577 219.687 158.635 219.687 158.694Z" fill="#323A50"/>
<path d="M219.569 160.403L242.315 151.623C242.433 151.741 242.492 151.859 242.61 151.977L219.51 160.875C219.51 160.698 219.51 160.521 219.569 160.403Z" fill="#323A50"/>
<path d="M219.392 162.289L243.435 153.037C243.494 153.096 243.553 153.214 243.67 153.391L219.333 162.761C219.392 162.584 219.392 162.407 219.392 162.289Z" fill="#323A50"/>
<path d="M219.215 164.175L244.378 154.51C244.437 154.628 244.496 154.746 244.554 154.864L219.156 164.646C219.156 164.469 219.215 164.352 219.215 164.175Z" fill="#323A50"/>
<path d="M218.92 166.178L245.025 156.102C245.084 156.219 245.084 156.337 245.143 156.514L218.802 166.65C218.861 166.473 218.861 166.296 218.92 166.178Z" fill="#323A50"/>
<path d="M218.567 167.946L245.438 157.575C245.438 157.693 245.497 157.811 245.497 157.987L218.508 168.418C218.508 168.241 218.567 168.123 218.567 167.946Z" fill="#323A50"/>
<path d="M218.154 169.95L245.615 159.343C245.615 159.461 245.615 159.637 245.615 159.755L218.036 170.362C218.095 170.303 218.095 170.127 218.154 169.95Z" fill="#323A50"/>
<path d="M217.682 171.953L245.614 161.169C245.614 161.287 245.614 161.464 245.614 161.641L217.564 172.484C217.623 172.248 217.682 172.13 217.682 171.953Z" fill="#323A50"/>
<path d="M217.152 174.016L245.497 163.114C245.497 163.232 245.497 163.409 245.438 163.586L217.034 174.546C217.093 174.311 217.152 174.193 217.152 174.016Z" fill="#323A50"/>
<path d="M216.68 175.902L245.32 164.823C245.32 165 245.261 165.118 245.261 165.294L216.562 176.373C216.562 176.255 216.621 176.078 216.68 175.902Z" fill="#323A50"/>
<path d="M216.092 178.023L244.967 166.885C244.967 167.062 244.908 167.18 244.849 167.357L215.915 178.494C215.974 178.318 216.033 178.141 216.092 178.023Z" fill="#323A50"/>
<path d="M215.502 180.027L244.554 168.83C244.495 169.007 244.495 169.184 244.436 169.302L215.325 180.498C215.384 180.38 215.443 180.203 215.502 180.027Z" fill="#323A50"/>
<path d="M214.854 182.148L244.024 170.893C243.965 171.069 243.965 171.246 243.906 171.364L214.736 182.619C214.736 182.443 214.795 182.266 214.854 182.148Z" fill="#323A50"/>
<path d="M214.264 184.034L243.493 172.778C243.434 172.955 243.375 173.132 243.375 173.25L214.146 184.505C214.146 184.387 214.205 184.211 214.264 184.034Z" fill="#323A50"/>
<path d="M213.558 186.155L242.845 174.9C242.786 175.077 242.727 175.253 242.668 175.43L213.381 186.686C213.44 186.509 213.499 186.332 213.558 186.155Z" fill="#323A50"/>
<path d="M212.909 188.218L242.138 176.962C242.079 177.139 242.02 177.316 241.961 177.493L212.732 188.748C212.732 188.571 212.85 188.395 212.909 188.218Z" fill="#323A50"/>
<path d="M212.144 190.398L241.313 179.143C241.254 179.319 241.195 179.496 241.136 179.673L211.967 190.928C212.026 190.693 212.085 190.516 212.144 190.398Z" fill="#323A50"/>
<path d="M211.436 192.461L240.547 181.264C240.488 181.441 240.429 181.618 240.37 181.795L211.318 192.991C211.318 192.814 211.377 192.637 211.436 192.461Z" fill="#323A50"/>
<path d="M210.67 194.641L239.604 183.445C239.545 183.621 239.486 183.798 239.369 183.975L210.435 195.112C210.493 194.936 210.611 194.759 210.67 194.641Z" fill="#323A50"/>
<path d="M209.845 196.703L238.661 185.625C238.602 185.802 238.543 185.978 238.425 186.155L209.668 197.234C209.727 197.057 209.786 196.88 209.845 196.703Z" fill="#323A50"/>
<path d="M209.138 198.766L237.777 187.687C237.718 187.864 237.6 188.041 237.541 188.218L208.961 199.237C209.02 199.06 209.079 198.943 209.138 198.766Z" fill="#323A50"/>
<path d="M208.372 200.71L236.835 189.75C236.776 189.927 236.658 190.103 236.599 190.28L208.195 201.241C208.254 201.064 208.313 200.887 208.372 200.71Z" fill="#323A50"/>
<path d="M207.547 202.891L235.774 191.989C235.715 192.166 235.597 192.343 235.538 192.52L207.37 203.362C207.429 203.245 207.488 203.068 207.547 202.891Z" fill="#323A50"/>
<path d="M206.721 205.012L234.712 194.228C234.654 194.405 234.536 194.582 234.477 194.759L206.604 205.543C206.604 205.366 206.662 205.189 206.721 205.012Z" fill="#323A50"/>
<path d="M205.897 207.193L233.593 196.527C233.534 196.703 233.416 196.88 233.357 197.057L205.72 207.723C205.72 207.546 205.838 207.369 205.897 207.193Z" fill="#323A50"/>
<path d="M205.072 209.196L232.533 198.589C232.415 198.766 232.356 198.943 232.238 199.119L204.896 209.668C204.954 209.55 205.013 209.373 205.072 209.196Z" fill="#323A50"/>
<path d="M204.247 211.2L231.413 200.71C231.295 200.887 231.236 201.064 231.119 201.241L204.07 211.671C204.129 211.553 204.188 211.377 204.247 211.2Z" fill="#323A50"/>
<path d="M203.422 213.38L230.235 203.068C230.117 203.244 230.058 203.421 229.94 203.598L203.187 213.91C203.245 213.734 203.304 213.557 203.422 213.38Z" fill="#323A50"/>
<path d="M202.479 215.561L228.938 205.366C228.82 205.543 228.761 205.72 228.643 205.896L202.243 216.091C202.361 215.914 202.42 215.737 202.479 215.561Z" fill="#323A50"/>
<path d="M201.595 217.741L227.7 207.664C227.583 207.841 227.524 208.018 227.406 208.194L201.359 218.212C201.477 218.094 201.536 217.918 201.595 217.741Z" fill="#323A50"/>
<path d="M200.652 219.98L226.404 210.021C226.286 210.198 226.227 210.375 226.11 210.552L200.476 220.452C200.535 220.334 200.593 220.157 200.652 219.98Z" fill="#323A50"/>
<path d="M199.827 221.984L225.225 212.202C225.108 212.378 225.049 212.555 224.931 212.732L199.65 222.455C199.65 222.337 199.768 222.161 199.827 221.984Z" fill="#323A50"/>
<path d="M198.884 224.164L223.87 214.559C223.752 214.736 223.693 214.912 223.516 215.148L198.648 224.754C198.766 224.518 198.825 224.4 198.884 224.164Z" fill="#323A50"/>
<path d="M197.942 226.344L222.515 216.857C222.397 217.034 222.279 217.211 222.161 217.446L197.706 226.875C197.824 226.698 197.883 226.521 197.942 226.344Z" fill="#323A50"/>
<path d="M196.998 228.584L221.159 219.273C221.041 219.45 220.923 219.627 220.806 219.862L196.763 229.114C196.822 228.937 196.939 228.76 196.998 228.584Z" fill="#323A50"/>
<path d="M196.115 230.646L219.863 221.512C219.745 221.689 219.627 221.925 219.509 222.102L195.879 231.236C195.997 230.941 196.056 230.764 196.115 230.646Z" fill="#323A50"/>
<path d="M197.058 231.943L218.567 223.634C218.449 223.811 218.331 224.046 218.213 224.223L198.118 231.943C197.765 231.943 197.411 231.943 197.058 231.943Z" fill="#323A50"/>
<path d="M201.831 231.943L217.094 226.05C216.976 226.227 216.858 226.462 216.74 226.639L203.01 231.943C202.597 231.943 202.244 231.943 201.831 231.943Z" fill="#323A50"/>
<path d="M206.781 231.884L215.738 228.466C215.621 228.643 215.503 228.878 215.385 229.055L208.019 231.884C207.547 231.825 207.135 231.884 206.781 231.884Z" fill="#323A50"/>
<path d="M211.613 231.825L214.147 230.823C214.029 231 213.912 231.235 213.794 231.412L212.733 231.825C212.379 231.825 212.026 231.825 211.613 231.825Z" fill="#323A50"/>
<g opacity="0.2">
<path d="M227.052 244.2L226.581 244.141C226.286 246.498 219.391 249.68 217.918 249.975C217.329 250.093 216.975 249.916 216.622 249.798C216.091 249.621 215.62 249.386 214.677 249.916C213.145 250.859 207.841 256.634 206.663 259.521C205.484 262.409 204.777 263.882 202.066 265.002C200.652 265.591 198.413 265.591 196.056 265.591C193.875 265.591 191.695 265.591 189.927 266.063C187.334 266.77 184.859 267.948 183.681 268.538C184.329 267.83 184.918 267.123 185.507 266.416C186.568 265.179 187.511 264.059 188.1 263.646C188.866 263.057 191.636 262.821 194.582 262.468C198.531 262.055 203.009 261.525 204.423 260.229C206.014 258.696 208.195 253.098 210.022 248.62C210.964 246.204 211.789 244.141 212.32 243.316C212.85 242.432 214.323 241.43 215.914 240.37C218.566 238.602 221.689 236.539 221.572 234.123H221.1C221.159 236.304 218.213 238.248 215.62 239.957C213.911 241.077 212.438 242.079 211.848 243.021C211.318 243.905 210.493 245.968 209.55 248.384C207.782 252.863 205.543 258.402 204.07 259.816C203.539 260.288 202.479 260.7 201.182 260.995C202.007 260.523 203.068 259.816 203.775 258.873C205.072 257.223 206.191 253.334 206.722 251.271C206.839 250.918 206.898 250.623 206.957 250.388C207.134 249.739 206.898 249.327 206.663 248.914C206.368 248.443 206.073 247.972 206.25 246.793C206.486 245.497 207.193 244.966 208.018 244.436C208.548 244.023 209.079 243.67 209.491 243.021C210.493 241.43 209.845 239.839 209.55 238.955V238.896C209.314 238.307 208.784 238.366 208.372 238.366C207.959 238.366 207.723 238.425 207.606 238.189C207.488 237.954 207.782 237.482 208.136 237.011C208.607 236.304 209.197 235.479 208.843 234.771L208.431 234.948C208.666 235.479 208.195 236.127 207.782 236.716C207.311 237.364 206.957 237.954 207.252 238.425C207.547 238.955 208.077 238.897 208.489 238.838C208.902 238.779 209.079 238.779 209.197 239.014V239.073C209.55 239.898 210.022 241.371 209.197 242.727C208.843 243.257 208.372 243.67 207.841 244.023C207.016 244.613 206.191 245.202 205.897 246.675C205.661 248.03 206.014 248.62 206.368 249.091C206.604 249.445 206.722 249.68 206.604 250.152C206.545 250.329 206.486 250.682 206.368 251.036C205.838 252.921 204.718 256.929 203.481 258.461C202.066 260.229 199.65 261.113 199.414 261.23C197.882 261.466 196.173 261.643 194.523 261.82C191.4 262.173 188.689 262.468 187.806 263.057C187.157 263.529 186.214 264.648 185.154 265.945C183.032 268.42 180.145 271.838 178.082 271.72C177.022 271.661 175.902 271.425 174.723 271.189C172.307 270.718 169.597 270.129 166.709 270.659C160.639 271.779 158.636 272.957 157.457 274.371C156.279 275.727 155.689 277.495 155.689 277.554L156.102 277.73C156.102 277.73 156.691 275.963 157.811 274.666C158.931 273.311 160.934 272.191 166.827 271.071C169.656 270.541 172.307 271.071 174.664 271.602C175.902 271.838 177.022 272.073 178.082 272.191C179.614 272.309 181.323 270.836 183.091 269.009L183.15 269.186C183.209 269.186 186.509 267.3 189.986 266.357C191.695 265.886 193.875 265.886 195.997 265.886C198.413 265.886 200.652 265.886 202.184 265.296C205.072 264.177 205.838 262.468 207.016 259.58C208.136 256.87 213.381 251.095 214.854 250.211C215.561 249.739 215.914 249.916 216.386 250.093C216.798 250.27 217.211 250.447 217.977 250.329C219.627 250.152 226.698 246.911 227.052 244.2Z" fill="url(#paint4_linear_3672_18005)"/>
<path d="M171.364 255.22C170.598 256.045 170.716 257.459 170.834 259.05C170.951 260.582 171.128 262.291 170.421 263.705C169.066 266.475 163.055 268.655 162.996 268.655L163.114 269.127C163.35 269.068 169.36 266.887 170.834 263.941C171.541 262.409 171.423 260.582 171.305 259.05C171.187 257.577 171.069 256.28 171.718 255.632C172.425 254.925 174.959 254.336 177.198 253.864C179.791 253.275 181.971 252.745 182.56 252.037C183.091 251.33 183.209 250.682 183.268 250.093C183.385 249.445 183.444 248.973 184.034 248.561C184.328 248.384 185.86 248.443 187.51 248.561C192.048 248.796 198.884 249.209 201.359 245.791C203.303 243.08 202.655 241.136 202.066 239.368C201.594 237.954 201.182 236.775 202.066 235.302C202.714 234.123 203.951 233.77 205.307 233.298C207.959 232.473 211.2 231.412 213.321 224.577C213.793 222.986 213.557 221.336 213.321 219.745C212.968 217.682 212.673 215.679 213.91 213.793L213.498 213.557C212.143 215.561 212.496 217.741 212.791 219.804C213.026 221.395 213.262 222.927 212.791 224.4C210.787 230.941 207.605 232.002 205.071 232.768C203.598 233.239 202.36 233.652 201.594 234.948C200.651 236.598 201.123 238.013 201.594 239.427C202.184 241.136 202.773 242.904 200.946 245.437C198.648 248.62 191.694 248.207 187.51 247.971C185.919 247.913 184.918 247.854 184.328 247.912C184.564 247.264 184.741 246.321 184.918 245.32C185.212 243.552 185.566 241.548 186.626 240.429C187.157 239.898 187.864 239.662 188.866 239.368C191.164 238.72 194.346 237.777 196.88 231.236V231.177C197.351 228.938 196.821 227.346 196.291 226.404C196.055 225.991 195.584 225.755 195.112 225.579C194.582 225.343 193.993 225.048 193.521 224.341C192.696 223.104 192.343 216.209 192.637 214.912C192.637 214.795 192.696 214.736 192.696 214.736C192.755 214.677 193.05 214.795 193.285 214.854C193.993 215.089 195.23 215.561 196.703 214.5L196.468 214.088C195.171 215.03 194.169 214.677 193.462 214.382C193.05 214.264 192.755 214.146 192.519 214.264C192.401 214.323 192.284 214.5 192.225 214.736C191.989 216.032 192.225 223.104 193.168 224.518C193.698 225.284 194.405 225.638 194.935 225.873C195.348 226.05 195.701 226.227 195.878 226.521C196.35 227.346 196.88 228.82 196.409 230.941C193.993 237.187 190.928 238.13 188.689 238.779C187.687 239.073 186.862 239.309 186.273 239.957C185.153 241.195 184.8 243.257 184.446 245.143C184.269 246.38 184.034 247.5 183.68 248.03C183.032 248.502 182.914 249.15 182.796 249.798C182.678 250.387 182.619 250.918 182.148 251.566C181.676 252.214 179.201 252.745 177.021 253.216C174.546 253.864 172.13 254.395 171.364 255.22Z" fill="url(#paint5_linear_3672_18005)"/>
<path d="M172.072 208.607C172.661 209.255 173.133 209.727 172.838 211.141C172.661 212.084 172.131 213.439 171.541 214.854C170.54 217.388 169.538 220.039 170.009 221.277C170.245 221.866 170.599 222.279 170.952 222.691C171.659 223.516 172.484 224.459 172.072 227.052C171.718 229.173 170.658 230.823 169.715 232.179C168.949 233.357 168.241 234.359 168.359 235.302C168.418 236.068 168.831 236.598 169.302 237.07C170.009 238.013 170.775 238.897 169.774 241.254C169.008 243.08 167.947 243.552 167.122 243.905C166.179 244.318 165.413 244.672 165.708 246.38C166.002 248.207 167.181 249.445 168.3 250.564C169.125 251.389 169.95 252.273 170.54 253.393L170.952 253.216C170.363 252.038 169.538 251.154 168.654 250.27C167.534 249.15 166.474 248.03 166.179 246.322C165.943 244.966 166.415 244.73 167.358 244.318C168.241 243.905 169.42 243.375 170.304 241.43C171.424 238.838 170.54 237.718 169.715 236.775C169.302 236.245 168.949 235.832 168.89 235.243C168.831 234.477 169.42 233.534 170.186 232.414C171.129 231.059 172.249 229.35 172.602 227.111C173.074 224.223 172.19 223.222 171.424 222.338C171.07 221.925 170.775 221.572 170.599 221.041C170.186 219.98 171.247 217.329 172.131 214.972C172.72 213.557 173.25 212.143 173.427 211.141C173.781 209.491 173.191 208.843 172.543 208.195C172.131 207.723 171.659 207.252 171.483 206.368L171.011 206.486C171.07 207.605 171.6 208.136 172.072 208.607Z" fill="url(#paint6_linear_3672_18005)"/>
<path d="M174.429 272.368C172.838 271.602 168.831 271.248 166.415 271.72C164.058 272.132 159.874 273.075 158.283 274.843C157.34 275.845 156.515 277.789 156.515 277.848L156.927 278.025C156.927 278.025 157.752 276.08 158.636 275.138C160.227 273.429 164.647 272.486 166.533 272.191C169.125 271.72 172.897 272.191 174.311 272.839C175.784 273.547 176.315 274.607 176.374 275.138C176.55 276.788 173.84 278.261 173.84 278.261L174.016 278.673C174.134 278.614 177.081 277.023 176.786 275.079C176.609 274.313 175.961 273.134 174.429 272.368Z" fill="url(#paint7_linear_3672_18005)"/>
<path d="M175.608 243.846C176.433 244.2 177.258 244.495 177.788 245.261C178.436 246.145 179.733 248.443 177.965 250.446C177.258 251.271 175.49 251.92 173.781 252.509C172.072 253.098 170.54 253.688 170.009 254.454C169.479 255.279 169.538 256.693 169.656 258.343C169.774 259.816 169.833 261.348 169.538 262.527C168.831 264.943 162.761 267.83 162.702 267.889L162.879 268.302C163.115 268.184 169.243 265.296 169.95 262.645C170.304 261.348 170.186 259.757 170.068 258.284C169.95 256.752 169.891 255.396 170.304 254.689C170.716 254.041 172.308 253.452 173.84 252.921C175.608 252.273 177.434 251.625 178.2 250.682C179.556 249.091 179.497 246.97 178.024 244.907C177.434 244.082 176.491 243.67 175.666 243.316C174.841 242.963 174.016 242.668 173.722 241.902C173.015 240.37 173.545 238.661 174.488 238.071C174.724 237.895 175.018 237.777 175.254 237.6C176.079 237.07 176.963 236.598 178.024 235.42C179.438 233.888 182.09 227.641 182.561 224.636C182.856 222.868 182.384 222.102 181.854 221.218C181.441 220.57 181.029 219.921 180.911 218.625L180.44 218.684C180.558 220.039 181.029 220.805 181.441 221.454C181.913 222.22 182.384 222.927 182.09 224.518C181.618 227.464 179.084 233.534 177.67 235.007C176.668 236.127 175.784 236.598 175.018 237.07C174.783 237.246 174.488 237.364 174.252 237.541C173.133 238.248 172.484 240.252 173.309 241.961C173.781 243.08 174.724 243.493 175.608 243.846Z" fill="url(#paint8_linear_3672_18005)"/>
</g>
<g opacity="0.2">
<path d="M155.512 270.541C155.335 269.304 153.921 268.302 152.507 267.359C151.387 266.593 149.678 265.65 148.205 264.825C146.909 264.118 145.73 263.47 145.317 263.116C145.2 263.057 145.082 262.88 144.964 262.704C144.257 261.584 143.726 258.873 143.844 256.693C143.903 255.455 143.785 254.513 143.726 253.746C143.609 252.921 143.55 252.332 143.785 251.802C143.962 251.389 144.257 251.33 144.728 251.271C145.2 251.213 145.848 251.095 146.084 250.329C146.319 249.68 146.201 248.973 146.142 248.266C146.025 247.559 145.966 246.97 146.26 246.498C146.555 246.086 146.85 245.968 147.262 245.85C147.675 245.673 148.146 245.496 148.559 244.907C148.912 244.377 148.441 243.67 147.851 242.845C146.967 241.607 145.789 239.839 146.26 237.718C146.791 235.42 147.498 235.479 148.5 235.655C148.971 235.714 149.56 235.832 150.091 235.597C151.034 235.243 151.917 233.18 152.801 231.059C153.509 229.409 154.216 227.7 154.805 227.229C155.512 226.698 156.101 226.58 156.691 226.463C157.28 226.345 157.81 226.286 158.223 225.696C158.753 225.048 158.459 224.164 158.223 223.398C158.105 222.927 157.928 222.455 158.046 222.22L157.634 221.984C157.457 222.396 157.575 222.927 157.751 223.516C157.928 224.164 158.164 224.93 157.81 225.402C157.457 225.814 157.103 225.873 156.514 225.991C155.925 226.109 155.217 226.227 154.451 226.816C153.744 227.346 153.037 229.055 152.271 230.882C151.505 232.768 150.621 234.889 149.855 235.184C149.384 235.361 148.912 235.302 148.441 235.243C147.38 235.125 146.319 234.948 145.671 237.659C145.141 240.016 146.378 241.843 147.321 243.139C147.792 243.846 148.264 244.436 148.028 244.73C147.734 245.202 147.38 245.32 146.967 245.496C146.555 245.614 146.142 245.791 145.789 246.321C145.376 246.911 145.494 247.677 145.612 248.384C145.73 249.032 145.789 249.68 145.612 250.211C145.435 250.741 145.023 250.8 144.551 250.859C144.08 250.918 143.55 250.977 143.255 251.684C143.019 252.332 143.078 252.98 143.196 253.864C143.314 254.63 143.373 255.514 143.314 256.752C143.196 258.107 143.373 259.757 143.726 261.113C142.725 259.463 141.428 256.929 141.251 254.454C141.075 252.391 141.487 251.625 142.017 250.505C142.548 249.445 143.196 248.148 143.726 245.261C144.434 241.077 142.607 237.246 141.428 235.184C141.546 234.771 142.371 232.002 144.551 231.236L145.671 230.823C147.734 230.116 149.56 229.468 150.503 228.938C151.741 228.289 152.742 226.168 152.919 224.871C153.037 224.105 152.684 223.634 152.33 223.222C152.035 222.809 151.741 222.455 151.741 221.866C151.8 221.336 152.566 220.805 153.45 220.216C154.687 219.391 156.278 218.33 156.926 216.563C157.692 214.5 156.926 213.557 156.278 212.732C155.925 212.32 155.63 211.966 155.512 211.436L155.1 211.554C155.217 212.143 155.63 212.614 155.925 213.027C156.573 213.852 157.162 214.618 156.514 216.445C155.925 218.036 154.451 219.038 153.214 219.863C152.153 220.57 151.387 221.1 151.328 221.807C151.269 222.632 151.682 223.104 151.976 223.516C152.33 223.929 152.566 224.223 152.448 224.813C152.212 226.168 151.21 228.054 150.267 228.525C149.325 228.997 147.439 229.645 145.494 230.352L144.375 230.764C142.371 231.471 141.428 233.711 141.134 234.654C140.721 234.064 140.485 233.711 140.426 233.652C140.367 233.593 136.184 229.763 134.357 226.875C132.471 223.929 132.53 221.513 133.532 220.688C134.062 220.216 135.123 220.157 136.419 220.098C137.598 220.039 138.894 219.98 140.014 219.568C141.782 218.92 143.019 216.386 143.373 215.62C143.903 214.5 144.375 213.027 144.08 212.261C143.609 210.964 141.664 210.552 141.546 210.493L141.487 210.964C141.487 210.964 143.314 211.377 143.667 212.379C143.785 212.791 143.609 213.911 142.96 215.384C142.312 216.857 141.134 218.625 139.837 219.097C138.717 219.509 137.48 219.568 136.36 219.627C135.064 219.686 133.885 219.745 133.237 220.275C132.117 221.218 131.882 223.811 134.003 227.052C135.83 229.939 139.896 233.652 140.132 233.888C140.367 234.182 144.316 239.309 143.314 245.025C142.842 247.854 142.194 249.15 141.664 250.152C141.546 250.388 141.428 250.623 141.31 250.859C140.78 249.445 140.839 248.62 140.898 247.972C140.957 247.029 140.898 246.498 139.601 245.673C137.892 244.613 134.592 244.436 132.412 244.318C131.528 244.259 130.762 244.2 130.467 244.141C129.112 243.788 128.405 243.198 128.051 241.961C127.757 240.959 127.992 240.664 128.464 240.134C128.582 240.016 128.7 239.839 128.876 239.663C129.053 239.427 129.407 239.191 129.76 239.014C130.585 238.543 131.705 237.895 131.587 236.245C131.528 234.83 130.585 234.359 129.642 233.829C128.994 233.475 128.346 233.18 127.875 232.473C126.637 230.823 125.164 226.05 124.928 223.457C124.634 220.57 125.164 215.148 125.635 214.795C125.812 214.736 126.578 215.089 127.167 215.384C128.287 215.914 129.642 216.563 130.644 216.327C130.821 216.268 130.939 216.268 131.116 216.209C132.353 215.914 132.471 215.796 132.412 214.559C132.353 213.675 131.705 213.557 131.175 213.498C130.762 213.439 130.467 213.38 130.232 213.086C129.76 212.496 129.937 210.257 129.996 209.432L129.525 209.373C129.466 209.727 129.171 212.496 129.819 213.38C130.173 213.793 130.644 213.852 131.057 213.911C131.646 214.029 131.882 214.088 131.941 214.559C132 215.03 132 215.266 131.882 215.384C131.764 215.502 131.469 215.561 130.998 215.679C130.88 215.738 130.703 215.738 130.526 215.796C129.701 215.973 128.405 215.384 127.344 214.854C126.342 214.382 125.812 214.146 125.459 214.264C124.516 214.618 124.221 221.159 124.398 223.398C124.634 226.109 126.107 230.882 127.462 232.65C127.992 233.357 128.759 233.77 129.348 234.123C130.291 234.595 130.998 234.948 131.057 236.127C131.116 237.482 130.291 237.954 129.407 238.484C128.994 238.72 128.641 238.955 128.405 239.25C128.287 239.427 128.169 239.604 128.051 239.722C127.58 240.252 127.226 240.723 127.58 241.961C127.992 243.316 128.817 244.082 130.35 244.436C130.644 244.495 131.057 244.554 131.646 244.554C131.292 244.789 130.939 244.789 130.526 244.789C130.114 244.789 129.584 244.73 129.171 245.084C128.405 245.614 128.876 246.498 129.23 247.146C129.348 247.441 129.525 247.736 129.525 247.913C129.525 248.03 129.466 248.148 129.348 248.266C129.112 248.443 128.641 248.502 127.992 248.443C127.285 248.325 126.284 247.264 125.694 246.616C125.459 246.38 125.282 246.145 125.164 246.086C124.928 245.909 124.575 245.909 124.28 245.968C123.926 246.027 123.514 246.027 123.16 245.791C122.984 245.673 122.807 245.438 122.807 245.143C122.748 244.613 122.984 244.023 123.16 243.847C123.219 243.788 123.396 243.788 123.632 243.788C123.926 243.788 124.28 243.788 124.575 243.552C125.046 243.139 125.223 242.491 125.164 241.489C125.105 240.9 124.634 240.9 124.221 240.9C123.75 240.9 123.219 240.841 122.984 240.193C122.807 239.721 123.042 239.25 123.396 238.661C123.926 237.777 124.575 236.657 123.632 235.007C122.571 233.063 121.392 233.239 120.567 233.416C120.273 233.475 119.978 233.534 119.801 233.475C119.625 233.416 119.507 233.298 119.507 233.239C119.448 233.063 119.566 232.886 119.625 232.827L119.271 232.591C119.271 232.65 118.976 233.004 119.094 233.416C119.153 233.652 119.33 233.888 119.684 234.005C119.978 234.123 120.332 234.064 120.685 234.005C121.451 233.888 122.394 233.652 123.278 235.361C124.044 236.775 123.514 237.718 123.042 238.543C122.689 239.191 122.335 239.78 122.571 240.429C122.925 241.371 123.691 241.43 124.221 241.43C124.692 241.43 124.751 241.489 124.751 241.607C124.81 242.432 124.692 243.021 124.339 243.316C124.162 243.434 123.926 243.434 123.691 243.434C123.396 243.434 123.101 243.434 122.866 243.67C122.63 243.905 122.335 244.672 122.453 245.32C122.512 245.732 122.689 246.086 122.984 246.321C123.514 246.675 124.044 246.675 124.398 246.616C124.692 246.616 124.869 246.557 124.987 246.675C125.105 246.734 125.223 246.97 125.459 247.205C126.107 247.913 127.167 249.091 127.992 249.209C127.992 249.209 127.992 249.209 128.051 249.209C128.817 249.327 129.407 249.209 129.76 248.914C129.937 248.738 130.055 248.502 130.114 248.207C130.114 247.913 129.937 247.618 129.76 247.205C129.407 246.498 129.171 246.027 129.584 245.732C129.937 245.496 130.232 245.496 130.644 245.496C131.175 245.496 131.823 245.555 132.353 244.848C132.412 244.848 132.471 244.848 132.471 244.848C134.592 244.966 137.834 245.202 139.425 246.145C140.544 246.852 140.544 247.205 140.485 248.03C140.426 248.796 140.367 249.798 141.134 251.566C140.898 252.273 140.78 253.098 140.898 254.454C141.192 258.579 144.375 262.763 144.61 262.998C144.728 263.175 144.905 263.352 145.023 263.47C145.494 263.823 146.673 264.471 147.969 265.238C149.442 266.063 151.151 267.005 152.212 267.771C153.509 268.714 154.864 269.657 155.041 270.718C155.1 271.189 154.982 271.72 154.51 272.25C152.919 274.313 150.975 281.679 150.916 281.914L151.387 281.973C151.446 281.502 153.391 274.489 154.864 272.545C155.453 271.779 155.63 271.189 155.512 270.541Z" fill="url(#paint9_linear_3672_18005)"/>
<path d="M152.39 272.427C151.741 270.188 148.559 267.771 147.499 267.123C145.2 265.709 139.956 265.414 137.54 265.945C136.42 266.18 135.654 266.534 134.947 266.888C134.181 267.241 133.533 267.595 132.649 267.595C130.822 267.595 129.82 267.83 128.936 268.479C128.759 268.596 128.7 268.773 128.7 268.891C128.7 269.245 129.054 269.598 129.408 269.952C129.702 270.187 130.115 270.6 130.056 270.777C130.056 270.895 129.938 270.954 129.82 271.013C128.641 271.661 127.699 270.777 127.64 270.718L127.286 271.071C127.286 271.071 128.465 272.25 129.938 271.484C130.233 271.307 130.35 271.13 130.409 270.895C130.468 270.423 129.997 270.07 129.643 269.657C129.408 269.421 129.054 269.127 129.054 268.95L129.113 268.891C129.879 268.302 130.822 268.125 132.531 268.125C133.533 268.125 134.24 267.771 135.065 267.359C135.713 267.005 136.479 266.652 137.54 266.416C139.838 265.945 144.965 266.239 147.145 267.536C148.441 268.302 151.329 270.6 151.859 272.545C151.977 273.075 151.742 274.077 151.388 274.784C149.62 278.909 149.031 281.855 149.031 281.855L149.443 281.914C149.443 281.914 150.033 278.968 151.8 274.902C152.154 274.489 152.625 273.252 152.39 272.427Z" fill="url(#paint10_linear_3672_18005)"/>
<path d="M153.45 272.073C153.332 271.248 152.507 270.364 152.213 270.011C152.154 269.952 152.154 269.952 152.154 269.952C150.504 268.007 148.088 266.122 146.496 265.532C146.025 265.355 145.495 265.238 144.846 265.12C142.313 263.882 139.779 263.411 137.421 262.939C136.125 262.704 134.77 262.409 133.414 262.055C129.82 260.995 123.809 255.043 123.573 254.748C123.396 254.513 119.33 249.327 118.918 247.559C118.741 246.793 117.857 242.904 117.445 241.843C117.032 240.9 111.905 239.191 110.845 238.838C108.37 238.72 104.657 238.484 104.304 238.248C103.891 237.954 103.42 236.539 103.538 235.95C103.538 235.714 103.832 235.538 104.127 235.361C104.598 235.066 105.129 234.654 105.246 233.947C105.305 233.416 104.952 231.884 104.304 229.291C103.714 226.875 102.948 223.634 103.125 223.045C103.302 222.514 103.655 222.455 103.95 222.338C104.304 222.279 104.657 222.161 104.775 221.63C104.834 221.454 104.716 221.277 104.657 221.218C104.421 220.982 103.891 220.982 103.184 221.041C102.477 221.1 101.534 221.159 101.18 220.805L100.886 221.159C101.416 221.63 102.359 221.572 103.184 221.513C103.596 221.513 104.186 221.454 104.304 221.572C104.245 221.807 104.186 221.807 103.832 221.925C103.479 222.043 102.948 222.161 102.654 222.927C102.418 223.575 102.948 225.932 103.832 229.468C104.304 231.413 104.834 233.475 104.775 233.947C104.716 234.477 104.245 234.772 103.832 235.066C103.42 235.302 103.066 235.597 103.007 236.009C102.889 236.716 103.42 238.366 104.009 238.779C104.48 239.132 109.254 239.368 110.727 239.427C113.673 240.37 116.796 241.666 116.973 242.138C117.327 242.963 117.975 245.614 118.388 247.795C118.8 249.68 122.984 254.984 123.161 255.161C123.396 255.397 129.466 261.525 133.238 262.586C134.593 262.998 135.948 263.234 137.245 263.47C139.13 263.823 141.134 264.236 143.138 265.002C142.018 264.884 140.78 264.825 139.661 264.707C138.659 264.648 137.775 264.589 137.009 264.472C131.47 263.882 128.346 263.057 126.284 261.584C123.986 259.993 117.15 253.982 116.62 253.275C116.325 252.863 116.207 252.45 116.03 251.92C115.913 251.507 115.795 251.036 115.559 250.505C114.734 248.62 111.434 246.498 109.077 245.025C107.839 244.259 106.779 243.552 106.543 243.198C106.189 242.668 106.307 242.314 106.484 241.843C106.602 241.489 106.779 241.136 106.779 240.664H106.307C106.307 241.077 106.189 241.372 106.071 241.666C105.836 242.197 105.659 242.668 106.13 243.434C106.425 243.847 107.427 244.495 108.782 245.379C111.08 246.852 114.263 248.914 115.088 250.682C115.323 251.154 115.441 251.625 115.559 252.038C115.736 252.627 115.854 253.098 116.207 253.57C116.796 254.277 123.691 260.347 125.989 261.997C128.052 263.47 131.234 264.354 136.891 264.943C137.598 265.002 138.541 265.061 139.543 265.179C142.018 265.355 144.846 265.591 146.202 266.063C147.734 266.593 150.032 268.42 151.682 270.305C151.682 270.305 151.741 270.364 151.741 270.423C151.977 270.718 152.802 271.602 152.861 272.25C152.979 272.898 152.507 274.136 151.859 275.904C151.27 277.554 150.504 279.557 149.855 282.032L150.268 282.15C150.916 279.675 151.623 277.672 152.271 276.08C153.096 274.077 153.509 272.839 153.45 272.073Z" fill="url(#paint11_linear_3672_18005)"/>
<path d="M106.366 209.373C106.307 209.727 105.954 210.257 105.541 210.846C104.834 211.966 103.95 213.204 104.48 214.146C104.775 214.677 105.482 215.148 106.307 215.738C107.839 216.739 109.784 218.036 110.55 220.393C111.787 224.105 114.911 230.705 114.97 230.764V230.823C115.029 230.882 118.859 236.068 117.504 241.136L117.916 241.254C119.271 236.068 115.618 231 115.323 230.588C115.323 230.529 115.205 230.352 115.087 230.116C115.618 229.998 116.796 229.645 117.562 228.584C118.152 227.818 118.387 226.816 118.27 225.579C118.034 223.516 117.032 221.571 116.148 219.921C115.382 218.448 114.734 217.211 114.852 216.327C114.911 215.561 115.382 215.384 115.971 215.207C116.679 215.03 117.562 214.736 117.739 213.204C117.916 211.554 116.796 210.846 115.854 210.316C115.146 209.845 114.675 209.55 114.734 209.02C114.852 207.546 116.973 205.484 116.973 205.484L116.679 205.13C116.62 205.189 114.439 207.311 114.321 208.961C114.262 209.786 114.97 210.257 115.677 210.67C116.561 211.2 117.504 211.789 117.327 213.145C117.209 214.382 116.561 214.559 115.912 214.736C115.264 214.913 114.557 215.148 114.498 216.209C114.439 217.27 115.087 218.566 115.854 220.039C116.679 221.689 117.68 223.575 117.916 225.52C118.034 226.58 117.857 227.464 117.327 228.171C116.561 229.173 115.382 229.468 114.97 229.527C114.027 227.582 111.964 222.986 111.021 220.098C110.196 217.623 108.134 216.268 106.602 215.207C105.836 214.677 105.129 214.205 104.893 213.793C104.48 213.086 105.246 211.966 105.895 210.964C106.366 210.316 106.72 209.727 106.779 209.314C106.837 208.666 106.248 207.723 105.482 206.662C104.834 205.661 104.068 204.541 103.95 203.716L103.479 203.775C103.596 204.718 104.362 205.779 105.07 206.898C105.777 207.959 106.425 208.902 106.366 209.373Z" fill="url(#paint12_linear_3672_18005)"/>
<path d="M150.798 273.959C150.268 272.722 148.677 271.72 147.557 271.013C147.086 270.718 146.732 270.482 146.555 270.305C146.379 270.129 146.379 269.952 146.32 269.775C146.202 269.245 146.025 268.773 144.905 268.361C143.196 267.654 139.13 267.3 137.775 268.184C137.245 268.538 137.186 268.95 137.186 269.304C137.304 270.247 138.423 271.072 139.484 271.425C140.191 271.661 140.25 272.427 140.309 273.193C140.368 273.841 140.427 274.489 140.898 274.902C141.252 275.138 141.37 275.373 141.311 275.55C141.252 275.786 140.839 276.08 139.955 276.198C138.659 276.316 136.655 275.786 136.596 275.786L136.479 276.257C136.537 276.257 138.541 276.788 139.955 276.67C140.957 276.552 141.605 276.198 141.723 275.668C141.841 275.255 141.605 274.843 141.134 274.489C140.78 274.254 140.78 273.723 140.721 273.134C140.662 272.368 140.604 271.307 139.602 271.013C138.541 270.659 137.657 269.893 137.598 269.245C137.598 269.009 137.716 268.773 137.952 268.597C139.13 267.889 142.961 268.125 144.67 268.832C145.671 269.245 145.73 269.598 145.848 269.952C145.907 270.188 145.966 270.482 146.261 270.718C146.437 270.895 146.85 271.189 147.321 271.484C148.382 272.132 149.914 273.193 150.386 274.254C150.739 275.02 150.327 275.845 149.796 277.023C149.325 278.143 148.677 279.498 148.441 281.325L148.912 281.384C149.148 279.616 149.737 278.261 150.268 277.2C150.798 275.904 151.211 274.961 150.798 273.959Z" fill="url(#paint13_linear_3672_18005)"/>
</g>
</g>
<defs>
<radialGradient id="paint0_radial_3672_18005" cx="0" cy="0" r="1" gradientUnits="userSpaceOnUse" gradientTransform="translate(167.663 236.94) scale(71.7593 71.4264)">
<stop offset="0.4054" stop-color="#032A3D" stop-opacity="0"/>
<stop offset="1" stop-color="#032A3D"/>
</radialGradient>
<linearGradient id="paint1_linear_3672_18005" x1="179.029" y1="199.15" x2="144.264" y2="63.9145" gradientUnits="userSpaceOnUse">
<stop offset="0.2655" stop-color="#032A3D" stop-opacity="0"/>
<stop offset="0.7809" stop-color="#032A3D"/>
</linearGradient>
<linearGradient id="paint2_linear_3672_18005" x1="188.705" y1="172.667" x2="142.008" y2="123.916" gradientUnits="userSpaceOnUse">
<stop offset="0.3301" stop-color="#C4FFFF"/>
<stop offset="0.8279" stop-color="#47B4FF"/>
<stop offset="1" stop-color="#0C37A6"/>
</linearGradient>
<linearGradient id="paint3_linear_3672_18005" x1="174.663" y1="153.472" x2="68.109" y2="62.2615" gradientUnits="userSpaceOnUse">
<stop offset="0.6593" stop-color="white" stop-opacity="0"/>
<stop offset="0.9342" stop-color="white"/>
</linearGradient>
<linearGradient id="paint4_linear_3672_18005" x1="74.8363" y1="201.485" x2="209.294" y2="265.801" gradientUnits="userSpaceOnUse">
<stop offset="0.2655" stop-color="#032A3D" stop-opacity="0"/>
<stop offset="0.7809" stop-color="#032A3D"/>
</linearGradient>
<linearGradient id="paint5_linear_3672_18005" x1="80.463" y1="189.721" x2="214.921" y2="254.037" gradientUnits="userSpaceOnUse">
<stop offset="0.2655" stop-color="#032A3D" stop-opacity="0"/>
<stop offset="0.7809" stop-color="#032A3D"/>
</linearGradient>
<linearGradient id="paint6_linear_3672_18005" x1="81.637" y1="187.268" x2="216.095" y2="251.584" gradientUnits="userSpaceOnUse">
<stop offset="0.2655" stop-color="#032A3D" stop-opacity="0"/>
<stop offset="0.7809" stop-color="#032A3D"/>
</linearGradient>
<linearGradient id="paint7_linear_3672_18005" x1="63.0469" y1="226.132" x2="197.505" y2="290.448" gradientUnits="userSpaceOnUse">
<stop offset="0.2655" stop-color="#032A3D" stop-opacity="0"/>
<stop offset="0.7809" stop-color="#032A3D"/>
</linearGradient>
<linearGradient id="paint8_linear_3672_18005" x1="76.5341" y1="197.936" x2="210.992" y2="262.252" gradientUnits="userSpaceOnUse">
<stop offset="0.2655" stop-color="#032A3D" stop-opacity="0"/>
<stop offset="0.7809" stop-color="#032A3D"/>
</linearGradient>
<linearGradient id="paint9_linear_3672_18005" x1="71.8311" y1="207.766" x2="206.289" y2="272.082" gradientUnits="userSpaceOnUse">
<stop offset="0.2655" stop-color="#032A3D" stop-opacity="0"/>
<stop offset="0.7809" stop-color="#032A3D"/>
</linearGradient>
<linearGradient id="paint10_linear_3672_18005" x1="60.0978" y1="232.298" x2="194.556" y2="296.614" gradientUnits="userSpaceOnUse">
<stop offset="0.2655" stop-color="#032A3D" stop-opacity="0"/>
<stop offset="0.7809" stop-color="#032A3D"/>
</linearGradient>
<linearGradient id="paint11_linear_3672_18005" x1="65.0754" y1="221.891" x2="199.534" y2="286.207" gradientUnits="userSpaceOnUse">
<stop offset="0.2655" stop-color="#032A3D" stop-opacity="0"/>
<stop offset="0.7809" stop-color="#032A3D"/>
</linearGradient>
<linearGradient id="paint12_linear_3672_18005" x1="74.2999" y1="202.606" x2="208.758" y2="266.922" gradientUnits="userSpaceOnUse">
<stop offset="0.2655" stop-color="#032A3D" stop-opacity="0"/>
<stop offset="0.7809" stop-color="#032A3D"/>
</linearGradient>
<linearGradient id="paint13_linear_3672_18005" x1="59.5593" y1="233.422" x2="194.018" y2="297.738" gradientUnits="userSpaceOnUse">
<stop offset="0.2655" stop-color="#032A3D" stop-opacity="0"/>
<stop offset="0.7809" stop-color="#032A3D"/>
</linearGradient>
<clipPath id="clip0_3672_18005">
<rect width="330" height="330" fill="white"/>
</clipPath>
</defs>
</svg>
