<svg width="330" height="330" viewBox="0 0 330 330" fill="none" xmlns="http://www.w3.org/2000/svg">
<g clip-path="url(#clip0_3671_12003)">
<path d="M220.806 155.041C214.5 148.5 214.441 148.618 211.613 145.377C206.368 139.425 190.516 119.566 166.65 119.389H166.415C142.49 119.566 126.697 139.425 121.452 145.377C118.506 148.736 118.506 148.618 111.552 155.807C94.7575 170.893 84.1504 192.755 84.1504 217.152C84.1504 252.568 106.484 282.739 137.834 294.407C137.834 294.466 138.188 294.584 138.188 294.643C140.191 295.468 146.909 297.707 152.743 298.473C157.045 299.18 162.113 299.534 166.65 299.534C212.202 299.534 249.15 262.586 249.15 217.034C248.974 192.402 238.072 170.186 220.806 155.041Z" fill="#DBDBDB"/>
<path d="M166.473 300.064C161.759 300.064 156.691 299.652 152.507 299.004C146.614 298.238 139.955 295.998 137.834 295.114L137.598 294.996V294.938C137.539 294.938 137.48 294.879 137.421 294.82C121.805 288.986 108.428 278.673 98.7052 264.943C88.8052 250.918 83.5605 234.418 83.5605 217.152C83.5605 205.189 86.0356 193.639 90.9856 182.855C95.7588 172.425 102.536 163.232 111.08 155.513C112.141 154.452 113.025 153.509 113.791 152.743C118.093 148.323 118.446 147.97 120.921 145.082C121.216 144.729 121.511 144.375 121.923 143.963C124.869 140.604 130.35 134.239 137.834 128.936C146.909 122.395 156.514 119.036 166.237 118.977H166.473C176.255 119.036 185.802 122.395 194.936 128.936C202.419 134.298 207.9 140.604 210.846 143.963C211.2 144.375 211.494 144.729 211.848 145.082C213.734 147.204 214.441 147.911 216.444 149.973C217.505 151.034 218.919 152.507 221.041 154.688C229.88 162.407 236.834 171.659 241.725 182.266C246.793 193.227 249.386 204.954 249.386 217.093C249.386 228.289 247.205 239.132 242.903 249.327C238.719 259.168 232.768 268.066 225.107 275.668C217.505 283.27 208.607 289.28 198.766 293.464C188.571 297.884 177.669 300.064 166.473 300.064ZM138.305 294.407C140.191 295.173 146.85 297.413 152.684 298.179C156.809 298.827 161.818 299.239 166.532 299.239C211.789 299.239 248.62 262.409 248.62 217.152C248.62 193.463 238.366 170.952 220.569 155.395C218.448 153.214 216.975 151.741 215.973 150.68C213.911 148.618 213.262 147.911 211.318 145.73C211.023 145.377 210.728 145.023 210.316 144.611C204.482 137.893 189.043 120.038 166.591 119.861H166.355C143.962 120.038 128.464 137.893 122.63 144.611C122.277 145.023 121.982 145.377 121.628 145.73C119.094 148.559 118.8 148.971 114.439 153.391C113.673 154.157 112.789 155.1 111.728 156.161C94.4034 171.718 84.5034 193.934 84.5034 217.211C84.5034 251.33 105.953 282.209 137.952 294.113L138.187 294.171V294.23C138.187 294.289 138.246 294.348 138.305 294.407Z" fill="#323A50"/>
<path d="M166.472 300.477C155.276 300.477 144.374 298.297 134.12 293.936C124.22 289.752 115.322 283.741 107.72 276.139C100.06 268.479 94.1078 259.639 89.9239 249.739C85.5632 239.486 83.3828 228.643 83.3828 217.388C83.3828 205.366 85.9167 193.816 90.8667 182.973C95.64 172.543 102.417 163.291 111.02 155.572C117.62 148.736 117.915 148.441 120.449 145.554L120.861 145.082C121.156 144.729 121.51 144.316 121.922 143.904C125.104 140.25 130.408 134.122 137.833 128.759C146.967 122.218 156.513 118.859 166.295 118.741H166.531C176.313 118.8 185.86 122.159 194.994 128.759C202.477 134.122 207.781 140.25 210.904 143.904C211.317 144.375 211.611 144.729 211.965 145.082C214.794 148.323 214.852 148.382 221.158 154.864C229.997 162.584 236.951 171.895 241.842 182.502C246.91 193.463 249.502 205.248 249.502 217.388C249.502 228.584 247.322 239.486 242.961 249.739C238.777 259.639 232.767 268.538 225.165 276.139C217.504 283.8 208.665 289.752 198.765 293.936C188.629 298.238 177.727 300.477 166.472 300.477ZM166.531 119.861H166.295C144.079 120.038 128.64 137.893 122.806 144.611C122.394 145.082 122.099 145.436 121.745 145.789L121.333 146.261C118.799 149.148 118.504 149.502 111.845 156.338H111.786C94.5203 171.895 84.6203 194.111 84.6203 217.27C84.6203 262.409 121.333 299.122 166.472 299.122C211.611 299.122 248.324 262.409 248.324 217.27C248.324 193.639 238.129 171.188 220.333 155.631L220.274 155.572C213.969 149.03 213.91 148.972 211.022 145.73C210.727 145.377 210.374 144.964 209.961 144.552C204.245 137.893 188.806 120.097 166.531 119.861Z" fill="#323A50"/>
<path opacity="0.83" d="M210.375 155.689C212.379 153.568 213.027 151.447 209.963 148.029C204.836 142.254 189.573 122.925 166.473 122.748H166.237C143.137 122.925 127.816 142.254 122.748 148.029C119.743 151.447 121.334 153.98 121.982 155.454C123.927 159.166 126.814 159.814 127.58 159.343C132.943 156.043 135.713 147.38 141.841 145.377C142.018 145.318 150.857 141.134 165.707 141.016C165.766 141.016 175.784 140.957 185.213 143.904C193.993 146.261 199.473 155.572 204.954 158.93C206.663 159.932 208.725 157.339 210.375 155.689Z" fill="url(#paint0_linear_3671_12003)"/>
<path d="M166.237 292.639C124.398 292.639 90.4551 258.697 90.4551 216.857C90.4551 192.225 102.182 170.363 120.45 156.514" fill="#DBDBDB"/>
<path d="M166.179 293.052C155.866 293.052 145.907 291.048 136.538 287.1C127.463 283.27 119.33 277.789 112.318 270.777C105.305 263.764 99.8251 255.632 95.9948 246.557C92.0466 237.129 90.043 227.17 90.043 216.916C90.043 204.777 92.8126 193.227 98.2341 182.502C103.42 172.248 111.022 163.173 120.155 156.22L120.627 156.868C101.711 171.247 90.809 193.168 90.809 216.916C90.809 258.461 124.634 292.286 166.179 292.286V293.052Z" fill="#323A50"/>
<path d="M166.237 286.334C204.608 286.334 235.713 255.228 235.713 216.857C235.713 178.486 204.608 147.38 166.237 147.38C127.866 147.38 96.7598 178.486 96.7598 216.857C96.7598 255.228 127.866 286.334 166.237 286.334Z" fill="#DBDBDB"/>
<path d="M166.237 286.688C147.615 286.688 130.054 279.439 116.854 266.239C103.654 253.039 96.4062 235.538 96.4062 216.857C96.4062 198.177 103.654 180.675 116.854 167.475C130.054 154.275 147.556 147.027 166.237 147.027C184.917 147.027 202.419 154.275 215.619 167.475C228.819 180.675 236.067 198.177 236.067 216.857C236.067 235.538 228.819 253.039 215.619 266.239C202.419 279.439 184.858 286.688 166.237 286.688ZM166.237 147.675C128.11 147.675 97.0545 178.73 97.0545 216.857C97.0545 254.984 128.11 286.039 166.237 286.039C204.363 286.039 235.419 255.043 235.419 216.857C235.419 178.671 204.363 147.675 166.237 147.675Z" fill="#323A50"/>
<g opacity="0.1">
<path d="M226.638 244.613L226.167 244.554C225.872 246.911 219.036 250.093 217.563 250.329C216.974 250.447 216.62 250.27 216.267 250.152C215.736 249.975 215.265 249.739 214.322 250.27C212.79 251.213 207.486 256.988 206.308 259.816C205.129 262.645 204.422 264.177 201.711 265.238C200.297 265.827 198.058 265.827 195.701 265.827C193.579 265.827 191.34 265.827 189.572 266.298C186.979 267.006 184.504 268.184 183.326 268.773C183.974 268.066 184.563 267.359 185.152 266.652C186.213 265.414 187.156 264.295 187.745 263.882C188.511 263.293 191.281 263.057 194.227 262.704C198.176 262.291 202.654 261.82 204.069 260.464C205.601 258.991 207.84 253.393 209.667 248.856C210.61 246.439 211.435 244.377 211.965 243.552C212.495 242.668 213.969 241.666 215.56 240.606C218.211 238.838 221.276 236.775 221.217 234.359H220.745C220.804 236.539 217.858 238.484 215.324 240.193C213.615 241.313 212.142 242.314 211.552 243.257C211.022 244.141 210.197 246.204 209.254 248.62C207.486 253.098 205.247 258.638 203.774 260.052C203.244 260.523 202.242 260.936 200.945 261.231C201.77 260.759 202.831 260.052 203.538 259.109C204.835 257.459 205.954 253.57 206.485 251.507C206.602 251.154 206.661 250.859 206.72 250.623C206.897 249.975 206.661 249.563 206.426 249.15C206.131 248.679 205.836 248.207 206.013 247.029C206.249 245.732 206.956 245.202 207.781 244.672C208.311 244.259 208.842 243.906 209.254 243.257C210.256 241.666 209.608 240.075 209.313 239.191V239.132C209.077 238.543 208.547 238.602 208.135 238.602C207.722 238.602 207.486 238.661 207.369 238.425C207.251 238.189 207.545 237.718 207.899 237.247C208.37 236.539 208.96 235.773 208.606 235.007L208.194 235.184C208.429 235.714 207.958 236.363 207.545 236.952C207.074 237.6 206.72 238.189 207.015 238.661C207.31 239.191 207.84 239.132 208.252 239.073C208.665 239.014 208.842 239.014 208.96 239.25V239.309C209.313 240.134 209.785 241.607 208.96 242.963C208.606 243.493 208.135 243.847 207.604 244.259C206.779 244.848 205.954 245.438 205.66 246.911C205.424 248.266 205.777 248.856 206.131 249.327C206.367 249.681 206.485 249.916 206.367 250.388C206.308 250.564 206.249 250.918 206.131 251.272C205.601 253.157 204.481 257.164 203.244 258.697C201.829 260.464 199.413 261.348 199.177 261.466C197.645 261.702 195.936 261.879 194.286 262.056C191.163 262.409 188.511 262.704 187.627 263.293C186.979 263.764 186.036 264.884 184.976 266.122C182.854 268.597 179.967 272.014 177.963 271.897C176.902 271.838 175.783 271.602 174.604 271.366C172.188 270.895 169.477 270.306 166.59 270.836C160.579 271.956 158.517 273.134 157.338 274.548C156.16 275.904 155.57 277.672 155.57 277.731L155.983 277.907C155.983 277.907 156.572 276.139 157.692 274.843C158.811 273.488 160.815 272.368 166.708 271.248C169.536 270.718 172.188 271.248 174.545 271.779C175.783 272.014 176.902 272.25 177.963 272.368C179.436 272.486 181.204 271.013 182.972 269.186L183.031 269.363C183.09 269.363 186.39 267.477 189.867 266.534C191.576 266.063 193.756 266.063 195.819 266.063C198.235 266.063 200.474 266.063 202.006 265.473C204.835 264.354 205.66 262.645 206.838 259.757C207.958 257.047 213.202 251.331 214.617 250.388C215.324 249.916 215.677 250.093 216.149 250.27C216.561 250.447 216.974 250.623 217.681 250.506C219.272 250.506 226.285 247.264 226.638 244.613Z" fill="#323A50"/>
<path d="M171.128 255.514C170.362 256.339 170.479 257.695 170.597 259.345C170.715 260.877 170.892 262.586 170.185 264C168.829 266.77 162.819 268.95 162.76 268.95L162.878 269.422C163.113 269.363 169.124 267.182 170.597 264.236C171.304 262.704 171.187 260.936 171.069 259.345C170.951 257.872 170.833 256.575 171.481 255.927C172.188 255.22 174.722 254.631 176.903 254.159C179.495 253.57 181.676 253.039 182.265 252.332C182.795 251.625 182.913 250.977 182.972 250.388C183.09 249.739 183.149 249.268 183.738 248.856C184.033 248.679 185.565 248.738 187.156 248.856C191.694 249.091 198.529 249.504 200.945 246.145C202.89 243.434 202.242 241.489 201.653 239.722C201.181 238.307 200.769 237.129 201.653 235.656C202.301 234.477 203.538 234.123 204.894 233.652C207.545 232.827 210.787 231.766 212.908 224.989C213.379 223.398 213.144 221.748 212.908 220.216C212.554 218.154 212.26 216.15 213.497 214.323L213.085 214.088C211.729 216.091 212.083 218.272 212.378 220.334C212.613 221.925 212.849 223.457 212.378 224.931C210.374 231.472 207.192 232.473 204.658 233.298C203.185 233.77 201.947 234.182 201.181 235.479C200.238 237.129 200.71 238.543 201.181 239.957C201.77 241.666 202.36 243.434 200.533 245.909C198.235 249.091 191.281 248.679 187.097 248.443C185.506 248.384 184.504 248.325 183.915 248.384C184.151 247.736 184.328 246.852 184.504 245.791C184.799 244.023 185.153 242.02 186.213 240.9C186.744 240.37 187.451 240.134 188.453 239.839C190.751 239.191 193.933 238.248 196.467 231.766V231.707C196.938 229.468 196.408 227.877 195.878 226.993C195.642 226.581 195.17 226.345 194.699 226.168C194.169 225.932 193.579 225.638 193.108 224.931C192.283 223.693 191.929 216.798 192.224 215.502C192.224 215.384 192.283 215.325 192.283 215.325C192.342 215.266 192.637 215.384 192.872 215.443C193.579 215.679 194.817 216.15 196.29 215.089L196.054 214.677C194.758 215.62 193.756 215.266 193.049 214.972C192.637 214.854 192.342 214.736 192.106 214.854C191.988 214.913 191.87 215.089 191.812 215.325C191.576 216.622 191.812 223.693 192.754 225.107C193.285 225.873 193.992 226.227 194.522 226.463C194.935 226.639 195.288 226.816 195.465 227.111C195.937 227.936 196.467 229.409 195.995 231.531C193.579 237.777 190.515 238.661 188.335 239.309C187.333 239.604 186.508 239.839 185.919 240.488C184.799 241.725 184.445 243.788 184.092 245.614C183.915 246.852 183.679 247.972 183.326 248.443C182.678 248.914 182.56 249.563 182.442 250.211C182.324 250.8 182.265 251.331 181.794 251.979C181.322 252.627 178.847 253.157 176.726 253.629C174.251 254.218 171.894 254.748 171.128 255.514Z" fill="#323A50"/>
<path d="M171.834 209.02C172.423 209.668 172.894 210.139 172.6 211.554C172.423 212.497 171.893 213.852 171.303 215.266C170.302 217.8 169.3 220.452 169.771 221.631C170.007 222.22 170.36 222.632 170.714 223.045C171.421 223.87 172.187 224.813 171.834 227.406C171.48 229.527 170.419 231.177 169.476 232.473C168.71 233.652 168.003 234.654 168.121 235.597C168.18 236.363 168.593 236.893 169.005 237.364C169.712 238.248 170.478 239.191 169.476 241.548C168.71 243.375 167.65 243.847 166.825 244.2C165.941 244.613 165.116 244.966 165.41 246.675C165.705 248.502 166.884 249.739 168.003 250.859C168.828 251.684 169.653 252.568 170.184 253.688L170.596 253.511C170.007 252.332 169.182 251.448 168.298 250.564C167.178 249.445 166.118 248.325 165.823 246.675C165.587 245.32 166.059 245.084 167.002 244.672C167.885 244.259 169.064 243.788 169.948 241.784C171.068 239.191 170.184 238.072 169.359 237.129C168.946 236.598 168.593 236.186 168.534 235.597C168.475 234.831 169.064 233.888 169.83 232.768C170.773 231.413 171.893 229.704 172.246 227.464C172.718 224.636 171.834 223.575 171.068 222.691C170.714 222.279 170.419 221.925 170.243 221.395C169.83 220.334 170.891 217.682 171.775 215.384C172.364 213.97 172.894 212.556 173.071 211.554C173.425 209.904 172.835 209.256 172.187 208.607C171.775 208.136 171.303 207.723 171.127 206.781L170.655 206.898C170.832 208.018 171.362 208.548 171.834 209.02Z" fill="#323A50"/>
<path d="M174.133 272.663C172.542 271.897 168.535 271.543 166.119 272.014C163.762 272.427 159.637 273.37 157.987 275.138C157.103 276.139 156.219 278.084 156.219 278.143L156.631 278.32C156.631 278.32 157.456 276.375 158.34 275.432C159.872 273.723 164.351 272.78 166.178 272.486C168.771 272.014 172.542 272.486 173.897 273.134C175.371 273.841 175.901 274.902 175.96 275.432C176.137 277.082 173.426 278.555 173.426 278.555L173.603 278.968C173.721 278.909 176.667 277.318 176.372 275.373C176.372 274.548 175.724 273.429 174.133 272.663Z" fill="#323A50"/>
<path d="M175.37 244.2C176.195 244.554 177.02 244.848 177.551 245.614C178.199 246.498 179.495 248.797 177.727 250.8C177.02 251.625 175.252 252.273 173.543 252.863C171.834 253.452 170.302 254.041 169.772 254.807C169.242 255.632 169.301 257.047 169.418 258.697C169.536 260.17 169.595 261.702 169.301 262.881C168.593 265.297 162.524 268.184 162.465 268.243L162.642 268.656C162.877 268.538 168.947 265.65 169.713 262.998C170.067 261.702 169.949 260.111 169.831 258.638C169.713 257.164 169.654 255.75 170.067 255.043C170.479 254.395 172.07 253.806 173.602 253.275C175.37 252.627 177.197 251.979 177.963 251.036C179.318 249.445 179.259 247.323 177.786 245.261C177.197 244.436 176.254 244.023 175.429 243.729C174.604 243.375 173.779 243.081 173.484 242.314C172.777 240.782 173.308 239.073 174.251 238.484C174.486 238.307 174.781 238.189 175.017 238.013C175.842 237.482 176.726 237.011 177.786 235.832C179.201 234.3 181.793 228.113 182.324 225.107C182.618 223.339 182.147 222.573 181.617 221.748C181.204 221.1 180.792 220.452 180.674 219.156L180.202 219.214C180.32 220.57 180.792 221.336 181.204 221.984C181.676 222.75 182.088 223.457 181.852 225.048C181.381 227.995 178.847 234.064 177.433 235.538C176.431 236.657 175.547 237.129 174.781 237.6C174.545 237.777 174.251 237.895 174.015 238.072C172.895 238.779 172.247 240.782 173.072 242.491C173.543 243.493 174.486 243.847 175.37 244.2Z" fill="#323A50"/>
</g>
<g opacity="0.1">
<path d="M155.336 270.895C155.159 269.657 153.745 268.714 152.331 267.713C151.211 266.947 149.561 266.004 148.029 265.179C146.732 264.472 145.554 263.823 145.141 263.47C145.023 263.411 144.906 263.234 144.788 263.057C144.081 261.938 143.55 259.227 143.668 257.047C143.727 255.809 143.609 254.866 143.55 254.1C143.432 253.275 143.373 252.686 143.609 252.155C143.786 251.743 144.081 251.684 144.552 251.625C145.023 251.566 145.672 251.448 145.907 250.682C146.143 250.034 146.025 249.327 145.966 248.62C145.907 247.913 145.79 247.323 146.084 246.852C146.379 246.439 146.673 246.322 147.086 246.204C147.498 246.027 147.97 245.85 148.382 245.261C148.736 244.73 148.265 244.023 147.675 243.198C146.791 241.961 145.613 240.193 146.143 238.072C146.673 235.773 147.381 235.891 148.382 236.009C148.854 236.068 149.443 236.186 149.973 235.95C150.916 235.597 151.8 233.534 152.684 231.413C153.391 229.763 154.098 228.054 154.688 227.582C155.395 227.052 155.984 226.934 156.573 226.816C157.163 226.698 157.693 226.639 158.106 226.05C158.636 225.402 158.341 224.518 158.106 223.752C157.988 223.28 157.811 222.809 157.929 222.573L157.516 222.338C157.34 222.75 157.457 223.222 157.634 223.87C157.811 224.518 158.047 225.284 157.693 225.755C157.34 226.168 156.986 226.227 156.397 226.345C155.807 226.463 155.1 226.58 154.334 227.17C153.627 227.7 152.92 229.409 152.154 231.177C151.388 233.063 150.504 235.184 149.738 235.479C149.266 235.655 148.795 235.597 148.323 235.538C147.263 235.42 146.202 235.243 145.554 237.954C145.023 240.311 146.261 242.138 147.204 243.434C147.675 244.141 148.088 244.73 147.911 245.025C147.616 245.497 147.263 245.614 146.85 245.791C146.438 245.909 146.025 246.086 145.672 246.616C145.259 247.205 145.377 247.972 145.495 248.679C145.613 249.327 145.672 249.975 145.495 250.505C145.318 251.036 144.906 251.095 144.434 251.154C143.963 251.213 143.432 251.272 143.138 251.979C142.902 252.627 142.961 253.275 143.079 254.159C143.197 254.925 143.256 255.809 143.197 256.988C143.079 258.343 143.256 259.993 143.609 261.348C142.607 259.698 141.311 257.164 141.134 254.689C140.957 252.627 141.37 251.861 141.9 250.8C142.431 249.739 143.079 248.443 143.609 245.555C144.316 241.43 142.49 237.541 141.311 235.538C141.429 235.125 142.254 232.355 144.434 231.589L145.554 231.177C147.616 230.47 149.443 229.822 150.386 229.291C151.623 228.643 152.625 226.522 152.802 225.225C152.92 224.459 152.566 223.988 152.213 223.575C151.918 223.163 151.623 222.809 151.623 222.22C151.682 221.689 152.448 221.159 153.332 220.57C154.57 219.745 156.161 218.684 156.809 216.916C157.575 214.854 156.809 213.911 156.161 213.086C155.807 212.673 155.513 212.32 155.395 211.789L154.982 211.907C155.1 212.497 155.513 212.968 155.807 213.38C156.456 214.205 157.045 214.913 156.397 216.798C155.807 218.389 154.334 219.391 153.097 220.216C152.036 220.923 151.27 221.454 151.211 222.161C151.152 222.986 151.565 223.457 151.859 223.87C152.213 224.282 152.448 224.577 152.331 225.166C152.095 226.522 151.093 228.407 150.15 228.879C149.207 229.35 147.381 229.998 145.377 230.705L144.257 231.118C142.254 231.825 141.311 234.064 141.016 235.007C140.604 234.418 140.368 234.064 140.309 234.005C140.25 233.947 136.066 230.116 134.24 227.229C132.354 224.282 132.413 221.866 133.415 221.041C133.945 220.57 135.006 220.511 136.243 220.452C137.422 220.393 138.718 220.334 139.838 219.922C141.606 219.273 142.843 216.739 143.197 215.973C143.727 214.854 144.198 213.38 143.904 212.673C143.432 211.377 141.488 210.964 141.37 210.905L141.311 211.377C141.311 211.377 143.138 211.789 143.491 212.791C143.609 213.204 143.432 214.323 142.784 215.797C142.136 217.27 140.957 219.038 139.661 219.509C138.541 219.922 137.304 219.98 136.184 220.039C134.888 220.098 133.709 220.157 133.061 220.688C131.941 221.63 131.706 224.164 133.827 227.464C135.654 230.293 139.72 234.064 139.956 234.3C140.191 234.595 144.14 239.722 143.138 245.379C142.666 248.207 142.018 249.504 141.488 250.505C141.37 250.741 141.252 250.977 141.134 251.213C140.604 249.798 140.663 248.973 140.722 248.325C140.781 247.382 140.722 246.852 139.425 246.027C137.716 244.966 134.416 244.789 132.295 244.672C131.411 244.613 130.645 244.554 130.35 244.495C128.995 244.141 128.288 243.552 127.934 242.373C127.64 241.372 127.875 241.077 128.347 240.547C128.465 240.429 128.582 240.252 128.759 240.075C128.936 239.839 129.29 239.604 129.643 239.427C130.468 238.955 131.588 238.307 131.47 236.657C131.411 235.243 130.468 234.772 129.525 234.241C128.877 233.888 128.229 233.593 127.757 232.886C126.52 231.236 125.047 226.463 124.811 223.929C124.516 221.041 125.047 215.62 125.518 215.266C125.695 215.207 126.461 215.561 127.05 215.855C128.17 216.386 129.525 217.034 130.527 216.798C130.704 216.739 130.822 216.739 130.998 216.68C132.236 216.386 132.354 216.268 132.295 215.03C132.236 214.147 131.588 214.029 131.057 213.97C130.645 213.911 130.35 213.852 130.115 213.557C129.643 212.968 129.82 210.729 129.879 209.904L129.407 209.845C129.348 210.198 129.054 212.968 129.702 213.793C130.056 214.205 130.527 214.264 130.94 214.323C131.529 214.441 131.765 214.5 131.823 214.972C131.882 215.443 131.882 215.679 131.765 215.797C131.647 215.914 131.352 215.973 130.881 216.091C130.763 216.15 130.586 216.15 130.409 216.209C129.584 216.386 128.288 215.797 127.227 215.325C126.225 214.854 125.695 214.618 125.341 214.736C124.398 215.089 124.104 221.63 124.281 223.87C124.516 226.58 125.99 231.354 127.345 233.063C127.875 233.77 128.641 234.182 129.231 234.536C130.115 235.007 130.881 235.361 130.94 236.539C130.998 237.895 130.173 238.366 129.29 238.897C128.877 239.132 128.523 239.368 128.288 239.663C128.17 239.839 128.052 240.016 127.934 240.134C127.463 240.664 127.109 241.136 127.463 242.373C127.875 243.729 128.7 244.495 130.232 244.848C130.527 244.907 130.94 244.966 131.529 244.966C131.175 245.202 130.822 245.202 130.409 245.202C129.997 245.202 129.525 245.143 129.054 245.497C128.288 246.027 128.759 246.911 129.113 247.559C129.231 247.854 129.407 248.148 129.407 248.325C129.407 248.443 129.348 248.561 129.231 248.679C128.995 248.855 128.523 248.914 127.875 248.855C127.168 248.738 126.166 247.677 125.577 247.029C125.341 246.793 125.165 246.557 125.047 246.498C124.811 246.322 124.457 246.322 124.163 246.38C123.809 246.439 123.397 246.439 123.043 246.204C122.866 246.086 122.69 245.85 122.69 245.555C122.631 245.025 122.866 244.436 123.043 244.259C123.102 244.2 123.279 244.2 123.515 244.2C123.809 244.2 124.163 244.2 124.457 243.964C124.929 243.552 125.106 242.904 125.047 241.902C124.988 241.313 124.516 241.313 124.104 241.313C123.632 241.313 123.102 241.254 122.866 240.605C122.69 240.134 122.925 239.663 123.279 239.073C123.809 238.189 124.457 237.07 123.515 235.42C122.454 233.475 121.275 233.652 120.45 233.829C120.156 233.888 119.861 233.947 119.684 233.888C119.507 233.829 119.39 233.711 119.39 233.652C119.331 233.475 119.448 233.298 119.507 233.239L119.154 233.004C119.154 233.063 118.859 233.416 118.977 233.829C119.036 234.064 119.213 234.3 119.566 234.418C119.861 234.536 120.215 234.477 120.568 234.418C121.334 234.3 122.277 234.064 123.161 235.773C123.927 237.188 123.397 238.13 122.925 238.955C122.572 239.604 122.218 240.193 122.454 240.841C122.807 241.784 123.573 241.843 124.104 241.843C124.575 241.843 124.634 241.902 124.634 242.02C124.693 242.845 124.575 243.434 124.222 243.729C124.045 243.847 123.809 243.847 123.573 243.847C123.279 243.847 122.984 243.847 122.748 244.082C122.513 244.318 122.218 245.084 122.336 245.732C122.395 246.145 122.572 246.498 122.866 246.734C123.397 247.088 123.927 247.088 124.281 247.029C124.575 247.029 124.752 246.97 124.87 247.088C124.988 247.147 125.106 247.382 125.341 247.618C125.99 248.325 127.05 249.504 127.875 249.622C127.875 249.622 127.875 249.622 127.934 249.622C128.7 249.739 129.29 249.622 129.643 249.327C129.82 249.15 129.938 248.914 129.997 248.62C129.997 248.325 129.82 248.03 129.643 247.618C129.29 246.911 129.054 246.439 129.466 246.145C129.82 245.909 130.115 245.909 130.527 245.909C131.057 245.909 131.706 245.968 132.236 245.261C132.295 245.261 132.354 245.261 132.354 245.261C134.475 245.379 137.716 245.614 139.307 246.557C140.427 247.264 140.427 247.618 140.368 248.443C140.309 249.209 140.25 250.211 141.016 251.979C140.781 252.686 140.663 253.511 140.781 254.866C141.075 258.932 144.257 263.116 144.493 263.411C144.611 263.588 144.788 263.764 144.906 263.882C145.377 264.236 146.556 264.884 147.852 265.65C149.325 266.475 151.034 267.418 152.095 268.184C153.391 269.068 154.747 270.07 154.923 271.13C154.982 271.602 154.865 272.132 154.393 272.663C152.861 274.725 150.857 282.091 150.798 282.327L151.27 282.386C151.329 281.914 153.273 274.902 154.747 272.957C155.218 272.073 155.395 271.484 155.336 270.895Z" fill="#323A50"/>
<path d="M152.212 272.78C151.564 270.541 148.382 268.184 147.321 267.477C145.023 266.062 139.778 265.768 137.421 266.298C136.302 266.534 135.535 266.887 134.828 267.241C134.062 267.595 133.414 267.948 132.53 267.948C130.703 267.948 129.702 268.184 128.818 268.832C128.641 268.95 128.582 269.127 128.582 269.245C128.582 269.598 128.935 269.952 129.289 270.305C129.584 270.541 129.996 270.954 129.937 271.13C129.937 271.248 129.819 271.307 129.702 271.366C128.523 272.014 127.58 271.13 127.58 271.071L127.227 271.425C127.227 271.425 128.405 272.604 129.878 271.837C130.173 271.661 130.291 271.484 130.35 271.248C130.409 270.777 129.937 270.423 129.584 270.011C129.348 269.775 128.994 269.48 128.994 269.304L129.053 269.245C129.819 268.655 130.762 268.479 132.471 268.479C133.473 268.479 134.18 268.125 135.005 267.712C135.653 267.359 136.419 267.005 137.48 266.829C139.778 266.357 144.905 266.652 147.085 267.948C148.382 268.714 151.21 271.012 151.8 272.957C151.918 273.487 151.682 274.43 151.328 275.196C149.56 279.262 148.971 282.209 148.971 282.268L149.384 282.327C149.384 282.327 149.973 279.38 151.741 275.373C151.918 274.784 152.389 273.546 152.212 272.78Z" fill="#323A50"/>
<path d="M153.214 272.368C153.096 271.543 152.271 270.659 151.976 270.306C151.917 270.247 151.917 270.247 151.917 270.247C150.267 268.302 147.851 266.416 146.26 265.827C145.789 265.65 145.258 265.532 144.61 265.414C142.076 264.177 139.542 263.706 137.185 263.234C135.889 262.998 134.533 262.704 133.237 262.35C129.642 261.289 123.632 255.338 123.396 255.102C123.219 254.866 119.153 249.681 118.74 247.913C118.564 247.147 117.68 243.257 117.267 242.197C116.855 241.254 111.728 239.545 110.726 239.191C108.251 239.073 104.539 238.838 104.244 238.602C103.832 238.307 103.36 236.893 103.478 236.304C103.478 236.068 103.773 235.891 104.067 235.714C104.539 235.42 105.069 235.007 105.187 234.3C105.246 233.77 104.892 232.238 104.244 229.704C103.655 227.288 102.889 224.047 103.065 223.457C103.242 222.927 103.596 222.868 103.89 222.75C104.244 222.691 104.598 222.573 104.715 222.043C104.774 221.866 104.657 221.689 104.598 221.631C104.362 221.395 103.832 221.395 103.124 221.454C102.417 221.513 101.474 221.572 101.121 221.218L100.826 221.572C101.357 222.043 102.299 221.984 103.124 221.925C103.537 221.925 104.126 221.866 104.244 221.984C104.185 222.22 104.126 222.22 103.773 222.338C103.419 222.456 102.889 222.573 102.594 223.339C102.358 223.988 102.889 226.345 103.773 229.822C104.244 231.766 104.774 233.829 104.657 234.3C104.598 234.831 104.126 235.125 103.714 235.42C103.301 235.656 102.948 235.95 102.889 236.363C102.771 237.07 103.301 238.72 103.89 239.073C104.362 239.427 109.076 239.663 110.608 239.722C113.555 240.664 116.678 241.961 116.855 242.432C117.208 243.257 117.857 245.85 118.269 248.089C118.682 249.975 122.865 255.22 122.983 255.456C123.219 255.691 129.289 261.761 133.001 262.881C134.357 263.293 135.712 263.529 137.008 263.764C138.894 264.118 140.898 264.531 142.901 265.297C141.782 265.179 140.544 265.12 139.424 265.002C138.423 264.943 137.539 264.884 136.773 264.766C131.233 264.177 128.11 263.352 126.107 261.938C123.808 260.347 117.032 254.336 116.442 253.629C116.148 253.216 116.03 252.804 115.853 252.273C115.735 251.861 115.617 251.389 115.382 250.859C114.557 248.973 111.315 246.852 108.899 245.379C107.662 244.613 106.601 243.906 106.365 243.552C106.012 243.022 106.13 242.668 106.307 242.197C106.424 241.843 106.601 241.489 106.601 241.018H106.13C106.13 241.431 106.012 241.725 105.894 242.02C105.658 242.55 105.482 243.022 105.953 243.788C106.248 244.2 107.249 244.848 108.605 245.732C110.903 247.206 114.085 249.209 114.91 251.036C115.146 251.507 115.264 251.979 115.382 252.391C115.558 252.981 115.676 253.452 116.03 253.923C116.619 254.631 123.514 260.7 125.753 262.291C127.815 263.764 130.998 264.648 136.655 265.238C137.362 265.297 138.305 265.356 139.307 265.473C141.782 265.65 144.551 265.886 145.965 266.357C147.439 266.888 149.796 268.714 151.387 270.6C151.387 270.6 151.446 270.659 151.446 270.718C151.682 271.013 152.507 271.897 152.565 272.545C152.683 273.193 152.212 274.431 151.564 276.198C150.974 277.848 150.208 279.852 149.56 282.327L149.973 282.445C150.621 279.97 151.328 277.966 151.976 276.375C152.86 274.372 153.332 273.134 153.214 272.368Z" fill="#323A50"/>
<path d="M106.247 209.786C106.188 210.139 105.834 210.67 105.422 211.259C104.715 212.379 103.89 213.616 104.361 214.559C104.656 215.089 105.363 215.561 106.188 216.091C107.72 217.093 109.606 218.389 110.431 220.688C111.668 224.4 114.792 231 114.85 231.059V231.118C114.909 231.177 118.74 236.363 117.384 241.43L117.797 241.548C119.152 236.422 115.499 231.295 115.204 230.882C115.204 230.823 115.086 230.647 114.968 230.411C115.499 230.293 116.677 229.939 117.443 228.938C118.033 228.172 118.268 227.17 118.15 225.932C117.915 223.87 116.913 221.984 116.029 220.275C115.263 218.802 114.615 217.564 114.733 216.68C114.792 215.914 115.263 215.797 115.852 215.561C116.559 215.384 117.443 215.089 117.62 213.557C117.797 211.907 116.677 211.2 115.734 210.67C115.027 210.198 114.556 209.904 114.615 209.373C114.733 207.9 116.795 205.897 116.854 205.838L116.559 205.484C116.5 205.543 114.379 207.664 114.202 209.314C114.143 210.139 114.85 210.611 115.558 211.023C116.441 211.554 117.384 212.143 117.208 213.498C117.09 214.736 116.442 214.913 115.793 215.089C115.145 215.266 114.438 215.502 114.379 216.563C114.32 217.623 114.968 218.92 115.734 220.393C116.559 222.043 117.561 223.929 117.797 225.873C117.915 226.934 117.738 227.818 117.208 228.525C116.442 229.527 115.263 229.822 114.85 229.88C113.967 227.936 111.845 223.339 110.902 220.511C110.077 218.036 108.015 216.68 106.483 215.62C105.717 215.089 105.009 214.618 104.774 214.205C104.361 213.498 105.127 212.379 105.775 211.377C106.247 210.729 106.6 210.139 106.659 209.727C106.718 209.079 106.129 208.136 105.363 207.075C104.715 206.073 103.949 204.954 103.831 204.129L103.359 204.188C103.477 205.072 104.243 206.191 104.95 207.311C105.716 208.372 106.365 209.373 106.247 209.786Z" fill="#323A50"/>
<path d="M150.62 274.254C150.09 273.016 148.499 272.014 147.379 271.307C146.908 271.013 146.554 270.777 146.377 270.6C146.2 270.423 146.2 270.247 146.142 270.07C146.024 269.539 145.847 269.068 144.727 268.655C143.018 267.948 138.952 267.595 137.597 268.479C137.067 268.832 137.008 269.245 137.008 269.598C137.125 270.541 138.245 271.366 139.306 271.72C140.013 271.955 140.072 272.722 140.131 273.488C140.19 274.136 140.249 274.784 140.72 275.197C141.074 275.432 141.192 275.668 141.133 275.845C141.074 276.08 140.661 276.375 139.777 276.493C138.481 276.611 136.477 276.08 136.477 276.08L136.359 276.552C136.418 276.552 138.422 277.082 139.836 276.964C140.838 276.847 141.486 276.493 141.604 275.963C141.722 275.55 141.486 275.138 141.015 274.784C140.661 274.548 140.661 274.018 140.602 273.429C140.543 272.663 140.484 271.602 139.483 271.307C138.422 270.954 137.538 270.188 137.479 269.539C137.479 269.304 137.597 269.068 137.833 268.891C139.011 268.184 142.841 268.42 144.55 269.127C145.552 269.539 145.611 269.893 145.729 270.247C145.788 270.482 145.847 270.777 146.142 271.013C146.318 271.189 146.731 271.484 147.202 271.779C148.263 272.427 149.795 273.488 150.267 274.548C150.62 275.314 150.208 276.139 149.677 277.318C149.206 278.438 148.558 279.793 148.322 281.62L148.793 281.679C149.029 279.911 149.618 278.555 150.149 277.495C150.561 276.198 151.033 275.197 150.62 274.254Z" fill="#323A50"/>
</g>
<g opacity="0.34">
<path d="M166.354 284.036C203.781 284.036 234.122 253.853 234.122 216.622C234.122 179.39 203.781 149.207 166.354 149.207C128.927 149.207 98.5859 179.39 98.5859 216.622C98.5859 253.853 128.927 284.036 166.354 284.036Z" fill="url(#paint1_radial_3671_12003)"/>
<path d="M166.118 284.625C147.969 284.625 130.879 277.613 118.092 264.825C105.245 252.038 98.1738 235.066 98.1738 216.975C98.1738 198.884 105.245 181.913 118.092 169.125C130.938 156.338 148.027 149.325 166.118 149.325C184.269 149.325 201.358 156.338 214.145 169.125C226.992 181.913 234.063 198.884 234.063 216.975C234.063 235.066 226.992 252.038 214.145 264.825C201.358 277.613 184.269 284.625 166.118 284.625ZM166.118 149.797C128.876 149.797 98.5863 179.968 98.5863 217.034C98.5863 254.1 128.876 284.272 166.118 284.272C203.361 284.272 233.651 254.1 233.651 217.034C233.651 179.968 203.361 149.797 166.118 149.797Z" fill="#323A50"/>
</g>
<path d="M166.768 142.195C153.274 142.195 142.844 150.798 141.665 165.648C141.606 166.356 141.724 166.238 141.724 165.707C141.724 160.168 152.685 157.281 166.179 157.281C179.674 157.281 190.635 160.109 190.635 165.707C190.635 166.12 190.635 166.179 190.693 165.766C190.929 152.743 180.263 142.195 166.768 142.195Z" fill="#293C4F"/>
<path d="M148.677 150.739C148.677 150.857 148.559 150.091 148.618 149.266C148.677 148.677 148.854 147.97 149.148 147.439C149.443 146.909 149.797 146.379 150.268 145.907C150.268 145.907 150.327 145.907 150.327 145.848C153.097 143.02 158.93 141.134 165.766 141.134C175.195 141.134 182.914 144.847 182.914 149.443C182.914 149.443 182.914 150.032 182.855 150.445C182.797 151.211 182.502 151.918 182.03 152.566L204.954 158.872C204.954 158.4 204.954 159.343 204.954 157.575C204.954 146.084 187.57 136.832 166.061 136.832C144.611 136.832 127.168 146.143 127.168 157.575C127.168 158.223 127.227 158.93 127.345 159.579L149.914 152.861C149.561 152.389 148.854 151.329 148.677 150.739Z" fill="#DBDBDB"/>
<path d="M127.05 160.109L126.991 159.638C126.873 158.93 126.814 158.282 126.814 157.575C126.814 151.859 130.939 146.555 138.423 142.548C145.848 138.6 155.689 136.42 166.12 136.42C176.55 136.42 186.391 138.6 193.816 142.548C201.3 146.555 205.425 151.918 205.425 157.575C205.425 158.105 205.425 158.4 205.425 158.577C205.425 158.636 205.425 158.695 205.425 158.754H205.366C205.366 158.754 205.307 158.813 205.307 158.871V159.402L181.323 152.802L181.677 152.33C182.148 151.682 182.384 151.034 182.443 150.386C182.502 149.914 182.502 149.384 182.502 149.384C182.502 145.023 175.018 141.488 165.766 141.488C159.343 141.488 153.391 143.314 150.622 146.084L150.563 146.143C150.091 146.614 149.797 147.086 149.502 147.557C149.266 148.029 149.031 148.677 148.972 149.207C148.913 149.738 148.972 150.268 148.972 150.445V150.563C149.089 150.975 149.443 151.623 150.15 152.625L150.504 153.096L127.05 160.109ZM166.12 137.245C144.906 137.245 127.639 146.379 127.639 157.634C127.639 158.105 127.698 158.636 127.757 159.107L149.325 152.684C148.913 152.036 148.5 151.388 148.323 150.857C148.147 150.386 148.264 149.207 148.264 149.207C148.323 148.559 148.559 147.852 148.854 147.263C149.148 146.732 149.561 146.143 150.032 145.671L150.091 145.613C153.038 142.607 159.048 140.721 165.766 140.721C170.422 140.721 174.782 141.605 178.023 143.196C181.382 144.846 183.268 147.086 183.268 149.443C183.268 149.502 183.268 150.032 183.209 150.504C183.15 151.152 182.973 151.741 182.62 152.389L204.541 158.4C204.541 158.223 204.541 157.988 204.541 157.634C204.6 146.379 187.334 137.245 166.12 137.245Z" fill="#323A50"/>
<path opacity="0.52" d="M165.825 143.314C174.605 143.314 181.854 146.555 182.914 150.739C182.973 150.386 183.032 150.091 183.032 149.738C183.032 145.082 175.313 141.311 165.825 141.311C156.338 141.311 148.618 145.082 148.618 149.738C148.618 149.914 148.559 150.209 148.618 150.327C148.618 150.386 148.618 151.093 148.972 152.095C149.148 152.625 149.797 152.861 149.855 152.743C148.795 151.447 148.795 150.445 148.854 150.327C150.209 146.32 157.28 143.314 165.825 143.314Z" fill="url(#paint2_linear_3671_12003)"/>
<path d="M165.824 144.257C174.545 144.257 181.086 148.029 182.147 152.743C183.031 151.388 182.972 150.268 182.972 149.974C182.972 145.318 175.312 141.311 165.883 141.311C156.454 141.311 148.735 144.729 148.676 150.091C148.676 150.445 148.97 152.743 149.913 152.743C149.795 147.44 157.044 144.257 165.824 144.257Z" fill="#DBDBDB"/>
<path d="M181.912 153.804L181.735 152.861C180.675 148.147 174.016 144.67 165.825 144.67C159.696 144.67 154.51 146.202 151.977 148.795C150.798 149.973 150.268 151.27 150.268 152.743V153.156H149.855C149.678 153.156 149.384 153.097 149.089 152.802C148.382 152.036 148.205 150.327 148.205 150.091C148.264 147.381 150.15 145.023 153.509 143.315C156.691 141.782 161.052 140.898 165.825 140.898C170.421 140.898 174.782 141.841 178.082 143.55C181.441 145.259 183.326 147.557 183.326 149.973V150.032C183.326 150.445 183.326 151.623 182.443 152.979L181.912 153.804ZM165.825 141.723C156.16 141.723 149.089 145.259 149.03 150.091C149.03 150.327 149.207 151.388 149.502 151.977C149.678 150.622 150.268 149.325 151.387 148.206C154.098 145.495 159.46 143.845 165.766 143.845C170.068 143.845 173.957 144.729 176.962 146.379C179.555 147.734 181.382 149.62 182.148 151.682C182.443 150.916 182.443 150.327 182.443 150.032V149.973C182.501 145.495 174.841 141.723 165.825 141.723Z" fill="#323A50"/>
<path d="M152.272 282.798C121.806 276.316 98.8826 249.209 98.8826 216.916C98.8826 202.066 103.597 187.982 112.554 176.197L112.083 175.843C103.067 187.747 98.2344 201.948 98.2344 216.916C98.2344 235.066 105.306 252.156 118.152 265.002C127.581 274.431 139.308 280.736 152.036 283.447C152.095 283.152 152.154 282.975 152.272 282.798Z" fill="#323A50"/>
<path d="M228.466 189.632L228.525 189.573C226.344 184.623 223.575 179.909 220.157 175.49L219.686 175.843C223.103 180.263 225.873 185.036 228.053 189.986C228.171 189.868 228.348 189.75 228.466 189.632Z" fill="#323A50"/>
<path d="M149.914 152.802L149.973 155.984L133.768 161.877C133.179 162.113 133.179 162.938 133.768 163.173L133.827 163.232L134.947 163.704C135.3 163.822 135.241 164.352 134.888 164.411L132.589 164.882H132.472C131.411 165.118 131.293 166.532 132.295 166.945L134.652 167.947C135.064 168.123 135.005 168.713 134.593 168.83C132.53 169.302 128.288 170.363 122.159 172.661C101.711 180.793 92.1055 203.363 92.1055 203.363C92.1055 203.363 94.0501 192.638 97.5269 185.389C99.7662 180.734 103.302 173.368 110.609 165.354C115.5 159.991 122.041 155.1 122.041 155.1C122.041 155.1 124.398 160.227 127.816 159.107C130.409 157.752 145.73 152.272 149.914 152.802Z" fill="#DBDBDB"/>
<path d="M90.8086 206.839L91.4568 203.245C91.4568 203.127 93.4604 192.402 96.9372 185.154C99.1175 180.675 102.712 173.132 110.078 165C114.91 159.696 121.51 154.746 121.569 154.688L121.982 154.393L122.159 154.864C122.159 154.923 123.985 158.813 126.637 158.813C126.873 158.813 127.168 158.754 127.462 158.695C130.173 157.398 144.375 152.271 149.266 152.271C149.501 152.271 149.737 152.271 149.914 152.33L150.268 152.389L150.326 156.22L133.826 162.23C133.65 162.289 133.65 162.407 133.65 162.466C133.65 162.525 133.65 162.643 133.826 162.702L135.005 163.173C135.359 163.291 135.535 163.645 135.476 163.939C135.418 164.293 135.182 164.588 134.828 164.646L132.353 165.177C132 165.236 131.823 165.53 131.823 165.766C131.823 166.002 131.882 166.296 132.235 166.473L134.593 167.475C134.946 167.652 135.123 167.946 135.123 168.359C135.123 168.771 134.828 169.066 134.475 169.125C132.471 169.596 128.228 170.657 122.1 172.955C111.669 177.08 104.126 185.154 99.589 191.164C94.6979 197.705 92.2818 203.363 92.2229 203.421L90.8086 206.839ZM121.687 155.689C120.214 156.809 114.793 161.052 110.668 165.589C103.419 173.604 99.8247 181.088 97.6443 185.566C95.3461 190.28 93.755 196.586 92.8711 200.298C94.1086 198 96.1122 194.582 98.8818 190.811C103.419 184.682 111.139 176.55 121.746 172.307C127.934 170.009 132.235 168.948 134.298 168.477C134.298 168.477 134.357 168.477 134.357 168.418C134.357 168.359 134.357 168.359 134.298 168.359L131.941 167.357C131.351 167.121 130.939 166.473 131.057 165.825C131.116 165.177 131.587 164.646 132.235 164.529L134.593 163.998L133.473 163.527C133.06 163.35 132.766 162.938 132.825 162.466C132.825 161.995 133.119 161.641 133.532 161.464L149.501 155.63V153.096C149.443 153.096 149.384 153.096 149.266 153.096C144.434 153.096 130.409 158.164 127.757 159.402H127.698C127.344 159.52 126.991 159.579 126.637 159.579C124.103 159.638 122.335 156.868 121.687 155.689Z" fill="#323A50"/>
<path d="M166.178 293.052V292.227C207.722 292.227 241.547 258.402 241.547 216.857C241.547 193.109 230.705 171.188 211.788 156.809L212.26 156.161C221.394 163.114 228.996 172.189 234.181 182.443C239.603 193.168 242.372 204.777 242.372 216.857C242.372 227.17 240.369 237.129 236.421 246.498C232.59 255.573 227.11 263.706 220.097 270.718C213.085 277.731 204.953 283.211 195.878 287.041C186.449 291.048 176.549 293.052 166.178 293.052Z" fill="#323A50"/>
<path d="M182.09 152.802L182.031 155.984L198.649 161.523C199.238 161.759 199.238 162.584 198.649 162.82L198.59 162.879L197.471 163.35C197.117 163.468 197.176 163.998 197.529 164.057L199.828 164.529H199.946C201.006 164.764 201.124 166.179 200.122 166.591L197.765 167.593C197.353 167.77 197.412 168.359 197.824 168.477C199.887 168.948 204.129 170.009 210.258 172.307C230.706 180.439 240.312 202.538 240.312 202.538C240.312 202.538 238.367 192.284 234.89 185.036C232.651 180.38 229.115 173.014 221.808 165C216.917 159.638 210.022 155.454 210.022 155.454C210.022 155.454 208.078 159.873 204.601 158.754C202.008 157.339 186.274 152.272 182.09 152.802Z" fill="#DBDBDB"/>
<path d="M241.549 205.955L240.135 202.655C240.135 202.597 237.66 197.057 232.827 190.634C228.349 184.741 220.806 176.786 210.317 172.602C204.188 170.304 199.945 169.243 197.942 168.83C197.588 168.772 197.293 168.418 197.293 168.064C197.235 167.652 197.47 167.357 197.824 167.18L200.181 166.179C200.535 166.061 200.652 165.707 200.593 165.472C200.593 165.236 200.417 164.941 200.063 164.882L197.588 164.352C197.235 164.293 196.999 163.998 196.94 163.645C196.881 163.291 197.117 162.997 197.411 162.879L198.59 162.407C198.767 162.348 198.767 162.23 198.767 162.172C198.767 162.113 198.767 161.995 198.59 161.936L181.736 156.338L181.795 152.507L182.149 152.448C182.326 152.448 182.62 152.389 182.856 152.389C187.865 152.389 202.302 157.045 205.013 158.341C205.308 158.459 205.661 158.459 205.956 158.459C208.431 158.459 209.904 155.218 209.904 155.218L210.081 154.805L210.493 155.041C210.552 155.1 217.565 159.284 222.397 164.647C229.763 172.779 233.358 180.322 235.538 184.8C239.015 192.048 240.96 202.302 240.96 202.42L241.549 205.955ZM197.765 163.586L200.122 164.116C200.77 164.234 201.242 164.764 201.301 165.413C201.36 166.061 201.006 166.65 200.417 166.945L198.06 167.947C198.06 167.947 198.001 167.947 198.001 168.005C198.001 168.064 198.001 168.064 198.06 168.064C200.063 168.536 204.365 169.597 210.552 171.895C221.218 176.138 228.879 184.152 233.417 190.222C236.186 193.875 238.131 197.234 239.368 199.473C238.543 195.879 236.893 189.868 234.654 185.213C232.533 180.734 228.938 173.25 221.631 165.236C217.506 160.698 211.79 156.927 210.258 156.043C209.727 157.045 208.195 159.343 205.779 159.343C205.367 159.343 205.013 159.284 204.601 159.166H204.542C201.949 157.87 187.629 153.273 182.679 153.273C182.561 153.273 182.502 153.273 182.443 153.273V155.748L198.767 161.17C199.238 161.347 199.474 161.7 199.474 162.172C199.474 162.643 199.238 162.997 198.826 163.232L197.765 163.586Z" fill="#323A50"/>
<path d="M190.869 166.12C190.869 160.58 179.849 157.693 166.296 157.693C152.742 157.693 141.723 160.58 141.723 166.12C141.723 171.659 152.742 177.788 166.296 177.788C179.849 177.788 190.869 171.718 190.869 166.12Z" fill="#DBDBDB"/>
<path d="M166.296 178.259C159.873 178.259 153.627 176.904 148.736 174.429C144.021 172.071 141.311 169.066 141.311 166.12C141.311 163.291 143.903 160.993 148.794 159.461C153.214 158.047 159.284 157.339 166.296 157.339C173.309 157.339 179.378 158.105 183.798 159.461C188.689 160.993 191.282 163.35 191.282 166.12C191.282 169.066 188.571 172.071 183.857 174.429C178.966 176.904 172.719 178.259 166.296 178.259ZM166.296 158.105C159.461 158.105 153.332 158.871 149.03 160.227C145.848 161.229 142.136 163.055 142.136 166.12C142.136 168.654 144.728 171.482 149.089 173.721C153.862 176.138 159.991 177.434 166.296 177.434C172.602 177.434 178.671 176.138 183.503 173.721C187.864 171.541 190.457 168.713 190.457 166.12C190.457 163.055 186.686 161.17 183.562 160.227C179.261 158.871 173.132 158.105 166.296 158.105Z" fill="#323A50"/>
<path d="M190.221 166.238C190.221 160.993 179.496 158.282 166.296 158.282C153.096 158.282 142.371 160.993 142.371 166.238C142.371 171.482 153.096 177.257 166.296 177.257C179.496 177.257 190.221 171.482 190.221 166.238Z" fill="#DBDBDB"/>
<path d="M166.297 177.375C160.05 177.375 154.04 176.138 149.325 173.78C144.847 171.6 142.254 168.83 142.254 166.179C142.254 163.645 144.729 161.582 149.325 160.168C153.627 158.871 159.461 158.164 166.297 158.164C173.132 158.164 178.966 158.871 183.268 160.168C187.924 161.582 190.34 163.645 190.34 166.179C190.34 168.83 187.747 171.541 183.268 173.78C178.554 176.138 172.543 177.375 166.297 177.375ZM166.297 158.4C151.8 158.4 142.49 161.464 142.49 166.238C142.49 171.305 152.92 177.198 166.297 177.198C179.674 177.198 190.104 171.305 190.104 166.238C190.104 161.464 180.793 158.4 166.297 158.4Z" fill="#323A50"/>
<path d="M188.982 166.414C188.982 161.877 178.788 159.52 166.295 159.52C153.743 159.52 143.607 161.877 143.607 166.414C143.607 170.952 153.802 175.961 166.295 175.961C178.788 175.961 188.982 170.952 188.982 166.414Z" fill="#DBDBDB"/>
<path d="M166.296 176.02C160.403 176.02 154.687 174.9 150.208 172.955C145.965 171.07 143.49 168.654 143.49 166.414C143.49 164.234 145.847 162.407 150.208 161.17C154.274 160.05 159.813 159.402 166.296 159.402C172.778 159.402 178.317 159.991 182.383 161.17C186.803 162.407 189.101 164.234 189.101 166.414C189.101 168.713 186.626 171.07 182.383 172.955C177.905 174.959 172.188 176.02 166.296 176.02ZM166.296 159.638C152.565 159.638 143.726 162.289 143.726 166.414C143.726 170.775 153.567 175.843 166.296 175.843C179.024 175.843 188.865 170.775 188.865 166.414C188.865 162.289 180.026 159.638 166.296 159.638Z" fill="#323A50"/>
<path d="M187.627 166.473C187.627 162.584 178.022 160.581 166.118 160.581C154.215 160.581 144.609 162.584 144.609 166.473C144.609 170.363 154.215 174.664 166.118 174.664C178.022 174.664 187.627 170.363 187.627 166.473Z" fill="#DBDBDB"/>
<path d="M166.119 174.782C160.521 174.782 155.158 173.839 150.856 172.131C146.849 170.481 144.492 168.418 144.492 166.473C144.492 164.588 146.673 163.056 150.856 161.936C154.687 160.934 159.99 160.463 166.06 160.463C172.13 160.463 177.433 160.993 181.264 161.936C185.448 162.997 187.628 164.588 187.628 166.473C187.628 168.418 185.33 170.481 181.264 172.131C177.139 173.781 171.717 174.782 166.119 174.782ZM166.119 160.639C153.155 160.639 144.728 162.938 144.728 166.473C144.728 170.245 154.098 174.606 166.119 174.606C178.14 174.606 187.51 170.245 187.51 166.473C187.51 162.938 179.142 160.639 166.119 160.639Z" fill="#323A50"/>
<path d="M186.155 166.414C186.155 163.291 177.198 161.7 166.12 161.7C155.041 161.7 146.084 163.291 146.084 166.414C146.084 169.537 155.041 173.368 166.12 173.368C177.198 173.309 186.155 169.479 186.155 166.414Z" fill="#DBDBDB"/>
<path d="M166.12 173.427C154.983 173.427 145.967 169.596 145.967 166.414C145.967 162.879 156.81 161.641 166.12 161.641C175.431 161.641 186.274 162.879 186.274 166.414C186.274 169.538 177.258 173.427 166.12 173.427ZM166.12 161.818C153.981 161.818 146.144 163.645 146.144 166.414C146.144 169.479 155.336 173.25 166.12 173.25C176.845 173.25 186.097 169.479 186.097 166.414C186.038 163.586 178.201 161.818 166.12 161.818Z" fill="#323A50"/>
<path d="M184.445 166.414C184.445 163.998 176.195 162.761 166.06 162.761C155.924 162.761 147.674 163.998 147.674 166.414C147.674 168.83 155.924 171.777 166.06 171.777C176.195 171.836 184.445 168.83 184.445 166.414Z" fill="#DBDBDB"/>
<path d="M166.06 171.895C155.807 171.895 147.557 168.889 147.557 166.414C147.557 163.645 157.103 162.643 166.06 162.643C175.017 162.643 184.564 163.645 184.564 166.414C184.564 168.889 176.314 171.895 166.06 171.895ZM166.06 162.879C155.099 162.879 147.733 164.293 147.733 166.473C147.733 168.889 156.16 171.777 166.06 171.777C175.901 171.777 184.387 168.83 184.387 166.473C184.328 164.293 177.021 162.879 166.06 162.879Z" fill="#323A50"/>
<path d="M182.501 166.65C182.501 164.882 175.076 163.998 165.942 163.998C156.808 163.998 149.383 164.882 149.383 166.65C149.383 168.418 156.808 170.598 165.942 170.598C175.076 170.598 182.501 168.418 182.501 166.65Z" fill="#DBDBDB"/>
<path d="M165.942 170.657C156.75 170.657 149.266 168.477 149.266 166.65C149.266 164.588 157.869 163.88 165.942 163.88C174.016 163.88 182.619 164.588 182.619 166.65C182.56 168.477 175.135 170.657 165.942 170.657ZM165.942 164.057C156.101 164.057 149.501 165.118 149.501 166.591C149.501 168.123 156.396 170.421 165.942 170.421C175.489 170.421 182.383 168.123 182.383 166.591C182.383 165.118 175.783 164.057 165.942 164.057Z" fill="#323A50"/>
<path d="M213.086 200.122L230.057 187.629C230.057 187.629 228.466 184.211 227.523 184.211L210.729 196.998L213.086 200.122Z" fill="white"/>
<path d="M213.027 200.534L210.375 196.939L227.464 183.916H227.582C228.643 183.916 229.998 186.686 230.352 187.511L230.47 187.747L213.027 200.534ZM211.2 197.057L213.145 199.709L229.704 187.57C228.996 186.156 228.112 184.741 227.641 184.564L211.2 197.057Z" fill="#323A50"/>
<path d="M212.849 200.336C213.332 200.004 213.229 199.018 212.62 198.133C212.01 197.249 211.125 196.801 210.643 197.134C210.161 197.466 210.263 198.452 210.873 199.337C211.482 200.221 212.367 200.669 212.849 200.336Z" fill="white"/>
<path d="M212.496 200.711C211.907 200.711 211.141 200.239 210.61 199.473C209.903 198.413 209.785 197.293 210.434 196.822C210.61 196.704 210.787 196.645 210.964 196.645C211.553 196.645 212.319 197.116 212.85 197.882C213.557 198.943 213.675 200.063 213.027 200.534C212.909 200.652 212.732 200.711 212.496 200.711ZM210.964 197.293C210.905 197.293 210.846 197.293 210.787 197.352C210.493 197.529 210.61 198.354 211.141 199.12C211.612 199.827 212.202 200.122 212.496 200.122C212.555 200.122 212.614 200.122 212.673 200.063C212.968 199.886 212.85 199.061 212.319 198.295C211.848 197.588 211.318 197.293 210.964 197.293Z" fill="#323A50"/>
<path d="M100.414 164.116C99.648 164.116 98.9409 163.821 98.3516 163.35L97.8212 162.879C96.5837 161.759 96.4658 159.814 97.5855 158.577L100.532 155.336C101.121 154.688 101.946 154.334 102.83 154.334C103.596 154.334 104.303 154.629 104.893 155.1L105.423 155.571C106.661 156.691 106.778 158.636 105.659 159.873L102.712 163.114C102.123 163.704 101.298 164.116 100.414 164.116ZM102.83 154.805C102.123 154.805 101.475 155.1 101.003 155.63L98.0569 158.871C97.173 159.873 97.2319 161.405 98.2337 162.348L98.7641 162.82C99.2355 163.232 99.8248 163.468 100.414 163.468C101.121 163.468 101.769 163.173 102.241 162.643L105.187 159.402C106.071 158.4 106.012 156.868 105.011 155.925L104.48 155.454C104.068 155.041 103.478 154.805 102.83 154.805Z" fill="#293C4F"/>
<path d="M105.375 159.68L102.164 163.131L103.07 163.974L106.281 160.523L105.375 159.68Z" fill="white"/>
<path d="M103.066 164.293C103.007 164.293 102.889 164.293 102.83 164.234L101.946 163.409C101.887 163.35 101.828 163.291 101.828 163.173C101.828 163.114 101.828 162.997 101.887 162.938L105.069 159.52C105.187 159.402 105.364 159.402 105.482 159.52L106.366 160.345C106.425 160.404 106.483 160.463 106.483 160.58C106.483 160.698 106.483 160.757 106.425 160.816L103.242 164.234C103.242 164.293 103.184 164.293 103.066 164.293ZM102.653 163.173L103.125 163.586L105.894 160.58L105.423 160.168L102.653 163.173Z" fill="#293C4F"/>
<path d="M126.815 180.439L125.99 184.741L116.443 175.961C118.506 174.605 120.038 174.193 120.038 174.193L126.815 180.439Z" fill="white"/>
<path d="M125.93 185.095L115.912 175.961L116.207 175.725C118.269 174.37 119.801 173.957 119.86 173.898L120.037 173.839L127.109 180.557L125.93 185.095ZM116.914 176.02L125.753 184.152L126.46 180.557L119.919 174.547C119.507 174.664 118.387 175.077 116.914 176.02Z" fill="#293C4F"/>
<path d="M126.639 185.036C127.322 185.019 127.85 183.977 127.819 182.708C127.787 181.439 127.207 180.424 126.524 180.441C125.841 180.458 125.313 181.501 125.344 182.769C125.376 184.038 125.955 185.053 126.639 185.036Z" fill="white"/>
<path d="M126.697 185.331C125.754 185.213 125.165 184.447 125.106 182.973C125.047 181.5 125.636 180.263 126.461 180.263C127.345 180.263 127.993 181.441 127.993 182.914C128.111 184.447 127.286 185.331 126.697 185.331ZM126.52 180.97C126.107 180.97 125.695 181.618 125.695 182.797C125.695 183.975 126.107 184.8 126.697 184.8V185.095L126.638 184.8C127.05 184.8 127.522 183.916 127.463 182.738C127.463 181.559 126.932 180.97 126.52 180.97Z" fill="#293C4F"/>
<path d="M98.8824 159.932C98.8234 159.932 98.7645 159.932 98.7056 159.873C98.5877 159.755 98.5877 159.579 98.7056 159.461L100.532 157.457C100.65 157.339 100.827 157.339 100.945 157.457C101.063 157.575 101.063 157.752 100.945 157.87L99.1181 159.873C99.0592 159.932 98.9413 159.932 98.8824 159.932Z" fill="#293C4F"/>
<path d="M101.357 157.222C101.298 157.222 101.239 157.222 101.18 157.163C101.062 157.045 101.062 156.868 101.18 156.75L101.711 156.161C101.828 156.043 102.005 156.043 102.123 156.161C102.241 156.279 102.241 156.456 102.123 156.573L101.593 157.163C101.534 157.163 101.475 157.222 101.357 157.222Z" fill="#293C4F"/>
<path d="M128.051 210.846C127.933 210.729 127.816 210.552 127.816 210.375V210.257C127.757 209.845 127.462 209.432 127.049 209.255L125.517 208.489L124.869 207.9L127.108 205.425L127.639 205.896L128.935 207.723C129.112 208.018 129.407 208.195 129.76 208.254L130.173 208.371C130.349 208.43 130.467 208.489 130.585 208.607C130.585 208.607 133.473 212.202 132.883 212.909C132.883 212.909 132.883 212.968 132.824 212.968C132.176 213.616 128.051 210.846 128.051 210.846Z" fill="white"/>
<path d="M132.471 213.321C131.293 213.321 128.228 211.259 127.875 211.082L127.816 211.023C127.639 210.846 127.521 210.611 127.521 210.375V210.257C127.462 209.904 127.227 209.609 126.932 209.491L125.341 208.725L124.457 207.9L127.109 204.954L127.934 205.661L129.23 207.488C129.407 207.723 129.584 207.841 129.878 207.9L130.291 208.018C130.527 208.077 130.703 208.195 130.88 208.371C132 209.786 133.827 212.32 133.12 213.086L133.061 213.145C132.884 213.263 132.707 213.321 132.471 213.321ZM128.287 210.611C129.23 211.2 131.646 212.732 132.53 212.732C132.589 212.732 132.648 212.732 132.648 212.732L132.707 212.673C132.884 212.379 131.823 210.493 130.409 208.784C130.35 208.725 130.232 208.666 130.114 208.607L129.702 208.489C129.289 208.371 128.936 208.136 128.7 207.841L127.403 206.073L127.109 205.838L125.282 207.841L125.695 208.195L127.227 208.961C127.698 209.196 128.052 209.668 128.17 210.198V210.316C128.17 210.434 128.17 210.493 128.287 210.611Z" fill="#293C4F"/>
<path d="M125.458 208.489L88.8047 175.548C88.8047 175.548 89.4529 173.957 90.3368 172.248C91.1618 173.014 127.698 205.955 127.698 205.955C128.051 206.25 127.815 207.075 127.226 207.782C127.226 207.782 127.226 207.841 127.167 207.841C126.578 208.548 125.812 208.784 125.458 208.489Z" fill="white"/>
<path d="M128.169 209.491C128.051 209.491 127.934 209.432 127.875 209.314C127.816 209.138 127.875 208.961 127.993 208.902C128.051 208.902 128.759 208.489 128.582 207.841C128.523 207.664 128.641 207.488 128.759 207.488C128.935 207.429 129.112 207.547 129.112 207.664C129.407 208.548 128.641 209.197 128.228 209.432C128.287 209.491 128.228 209.491 128.169 209.491Z" fill="#293C4F"/>
<path opacity="0.93" d="M236.656 217.447C236.243 256.222 203.361 286.923 164.586 286.511C162.701 286.511 155.688 285.332 153.861 285.155C158.222 285.804 176.902 280.736 182.383 272.604C185.388 268.125 185.506 266.829 191.635 262.468C196.82 258.755 200.002 256.988 214.97 248.973C218.447 247.088 219.92 244.436 221.511 237.777C222.808 232.297 222.218 226.698 219.154 221.866C211.67 209.904 230.115 194.877 230.41 191.105C231.824 193.698 236.715 209.491 236.656 217.447Z" fill="url(#paint3_radial_3671_12003)"/>
<path opacity="0.58" d="M199.767 207.37C186.331 207.9 188.689 201.889 177.139 199.709C167.121 197.823 160.285 203.481 155.453 207.311C140.662 218.92 133.414 210.493 132.471 212.614C131.528 214.618 136.537 221.513 131.115 234.064C127.049 243.434 135.417 251.802 138.599 256.693C144.492 265.709 138.481 267.3 141.723 275.138C144.551 281.973 151.033 285.273 164.174 281.148C169.949 279.322 178.376 276.552 182.619 268.538C187.333 259.698 214.264 249.681 216.503 245.673C219.508 240.37 222.514 229.763 215.796 224.164C208.135 217.623 208.548 207.016 199.767 207.37Z" fill="url(#paint4_linear_3671_12003)"/>
<path d="M155.513 285.156C154.04 285.156 152.802 284.389 151.506 284.036L151.859 283.034C155.101 283.977 158.99 282.857 165.236 280.854C171.424 278.909 179.084 275.727 183.033 268.243C185.979 262.704 196.94 256.87 205.779 252.214C210.906 249.504 216.209 246.675 216.976 245.32C219.627 240.606 223.222 231.413 217.8 222.691C215.443 218.92 215.325 214.382 217.506 209.256C219.097 205.425 221.926 201.241 226.109 196.527C229.292 192.932 229.056 191.164 228.526 190.104L229.704 189.161C231.531 192.225 230.47 194.347 227.465 197.706C223.399 202.243 220.688 206.25 219.156 209.904C217.211 214.559 217.27 218.389 219.333 221.689C225.284 231.177 221.395 241.136 218.567 246.204C217.565 247.972 213.617 250.093 206.663 253.806C198.059 258.343 187.393 264 184.683 269.068C180.381 277.141 172.484 280.736 165.943 282.798C161.583 284.095 158.224 285.156 155.513 285.156Z" fill="#DBDBDB"/>
<path d="M154.335 283.564C152.92 283.564 151.624 283.388 150.445 283.034L150.622 282.445C153.981 283.447 157.811 283.034 164.176 281.03C170.481 279.027 178.26 275.786 182.326 268.125C185.154 262.763 196.056 256.988 204.836 252.391C210.494 249.386 215.385 246.793 216.269 245.261C218.979 240.429 222.692 231 217.094 221.984C214.854 218.389 214.736 214.029 216.858 209.079C218.449 205.307 221.219 201.182 225.344 196.527C228.761 192.638 228.408 190.634 227.877 189.455L228.408 189.22C229.41 191.341 228.585 193.816 225.815 196.939C221.749 201.536 218.979 205.602 217.388 209.314C215.385 214.088 215.444 218.213 217.624 221.63C223.399 230.882 219.627 240.547 216.858 245.497C215.915 247.205 211.201 249.68 205.19 252.863C196.527 257.459 185.744 263.175 182.974 268.361C178.79 276.257 170.894 279.557 164.47 281.561C160.11 282.916 156.986 283.564 154.335 283.564Z" fill="#323A50"/>
<path d="M106.424 120.745C97.8794 124.398 91.2205 134.652 92.399 142.254C93.4598 148.972 98.8812 154.629 100.001 155.807C99.7062 156.161 99.4705 156.397 99.2937 156.573C99.5294 156.809 99.6472 156.927 99.6472 156.927L99.2348 157.398C99.2348 157.398 99.1169 157.28 98.8812 157.045C98.6455 157.28 98.4098 157.575 97.9973 157.988C96.7598 156.75 90.808 150.386 89.5705 142.666C88.1562 133.768 95.5222 122.277 105.245 118.093C105.835 117.857 106.424 117.563 106.954 117.327H105.481C105.304 117.386 105.187 117.445 105.01 117.563C95.0508 121.864 87.508 133.65 88.9812 142.784C90.3365 151.505 97.7026 158.577 97.8205 158.636L98.0562 158.872L98.2919 158.636C98.9401 157.929 99.2937 157.575 99.5883 157.222C99.883 156.927 100.178 156.573 100.708 155.984L100.944 155.748L100.708 155.513C100.413 155.277 94.1669 149.266 93.0473 142.136C91.8687 134.77 98.4097 124.811 106.719 121.275C109.488 120.097 111.963 118.8 114.144 117.327H113.024C111.02 118.564 108.84 119.684 106.424 120.745Z" fill="#293C4F"/>
<path d="M94.8164 129.584C97.645 125.164 101.711 121.57 106.131 119.684C107.84 118.918 109.431 118.152 110.845 117.327H109.607C108.429 117.916 107.191 118.505 105.895 119.095C101.357 121.039 97.2324 124.634 94.3449 129.23C91.5164 133.709 90.2789 138.541 90.8682 142.489C91.9878 149.502 97.5271 155.572 98.9414 156.986C99.0003 156.927 99.0593 156.809 99.1182 156.75C99.1771 156.691 99.236 156.573 99.295 156.514C97.8807 155.1 92.4592 149.207 91.3985 142.372C90.8092 138.6 92.0468 133.945 94.8164 129.584Z" fill="#293C4F"/>
<path d="M241.136 180.616C240.665 179.85 240.252 179.025 239.899 178.554C239.84 178.436 239.781 178.318 239.722 178.2L281.443 146.909H280.441L239.015 178.023L238.838 178.141L238.897 178.377C238.956 178.495 239.015 178.612 239.309 179.025C239.722 179.555 240.311 180.439 240.783 181.264L240.959 181.5L241.195 181.323C241.608 181.088 271.249 158.754 287.041 146.909H286.04C271.131 158.105 244.083 178.495 241.136 180.616Z" fill="#293C4F"/>
<path d="M127.934 205.779C127.168 205.071 61.7569 145.966 44.9033 130.704H44.0194C59.7533 144.964 124.398 203.421 127.521 206.25C127.58 206.309 127.58 206.486 127.521 206.721C127.462 207.016 127.227 207.37 126.991 207.664L126.932 207.723C126.519 208.195 126.048 208.371 125.812 208.371C125.753 208.371 125.694 208.371 125.635 208.313L39.7176 130.704H38.8926V130.763L125.282 208.725C125.4 208.843 125.635 208.902 125.871 208.902C126.343 208.902 126.932 208.607 127.403 208.077L127.462 208.018C127.816 207.664 128.052 207.252 128.169 206.839C128.228 206.368 128.169 206.014 127.934 205.779Z" fill="#293C4F"/>
<path opacity="0.39" d="M144.611 270.246L120.686 236.539L210.964 197.116L212.968 199.768L144.611 270.246Z" fill="url(#paint5_linear_3671_12003)"/>
<path opacity="0.39" d="M162.23 283.034L109.018 224.989L211.023 197.057L212.968 199.768L162.23 283.034Z" fill="url(#paint6_linear_3671_12003)"/>
</g>
<defs>
<linearGradient id="paint0_linear_3671_12003" x1="178.716" y1="199.694" x2="144.139" y2="65.1901" gradientUnits="userSpaceOnUse">
<stop offset="0.2655" stop-color="#032A3D" stop-opacity="0"/>
<stop offset="0.7809" stop-color="#032A3D"/>
</linearGradient>
<radialGradient id="paint1_radial_3671_12003" cx="0" cy="0" r="1" gradientUnits="userSpaceOnUse" gradientTransform="translate(167.596 236.87) scale(71.4399 71.1136)">
<stop offset="0.4054" stop-color="#032A3D" stop-opacity="0"/>
<stop offset="1" stop-color="#032A3D"/>
</radialGradient>
<linearGradient id="paint2_linear_3671_12003" x1="188.379" y1="173.352" x2="141.877" y2="124.804" gradientUnits="userSpaceOnUse">
<stop offset="0.3301" stop-color="#C4FFFF"/>
<stop offset="0.8279" stop-color="#47B4FF"/>
<stop offset="1" stop-color="#0C37A6"/>
</linearGradient>
<radialGradient id="paint3_radial_3671_12003" cx="0" cy="0" r="1" gradientUnits="userSpaceOnUse" gradientTransform="translate(153.606 213.966) rotate(0.641613) scale(78.9995 78.9995)">
<stop offset="0.33" stop-color="#032A3D" stop-opacity="0.7"/>
<stop offset="0.4716" stop-color="#07253A" stop-opacity="0.7593"/>
<stop offset="1" stop-color="#131831" stop-opacity="0.9805"/>
</radialGradient>
<linearGradient id="paint4_linear_3671_12003" x1="118.344" y1="90.7651" x2="199.73" y2="302.126" gradientUnits="userSpaceOnUse">
<stop offset="0.3043" stop-color="#032A3D" stop-opacity="0.2"/>
<stop offset="1" stop-color="#032A3D"/>
</linearGradient>
<linearGradient id="paint5_linear_3671_12003" x1="251.758" y1="207.568" x2="83.4488" y2="229.145" gradientUnits="userSpaceOnUse">
<stop offset="0.2329" stop-color="white"/>
<stop offset="0.7209" stop-color="#AAF1FF" stop-opacity="0"/>
</linearGradient>
<linearGradient id="paint6_linear_3671_12003" x1="238.905" y1="185.119" x2="142.41" y2="247.14" gradientUnits="userSpaceOnUse">
<stop offset="0.0206186" stop-color="white"/>
<stop offset="0.7861" stop-color="#AAF1FF" stop-opacity="0"/>
</linearGradient>
<clipPath id="clip0_3671_12003">
<rect width="330" height="330" fill="white"/>
</clipPath>
</defs>
</svg>
