<svg width="330" height="330" viewBox="0 0 330 330" fill="none" xmlns="http://www.w3.org/2000/svg">
<g clip-path="url(#clip0_3614_10446)">
<g opacity="0.5">
<mask id="mask0_3614_10446" style="mask-type:luminance" maskUnits="userSpaceOnUse" x="129" y="26" width="72" height="115">
<path d="M200.062 133.355V26.8125H129.819V133.473V133.532C129.819 137.952 146.732 139.72 165.176 140.132C182.737 140.486 200.062 138.07 200.062 133.532C200.062 133.473 200.062 133.473 200.062 133.355Z" fill="white"/>
</mask>
<g mask="url(#mask0_3614_10446)">
<path d="M220.805 160.699V36.5361H106.307V160.875V160.934C106.307 166.179 131.999 170.481 163.644 170.481C195.289 170.481 220.982 166.238 220.982 160.934C220.805 160.993 220.805 160.816 220.805 160.699ZM143.726 155.336C143.608 156.102 143.314 156.691 142.607 157.163C142.43 157.222 142.076 157.399 141.899 157.399C140.367 159.402 137.657 160.817 134.769 160.817C131.351 160.817 128.582 159.166 127.344 156.75C126.225 155.925 125.399 154.806 124.869 153.686C124.28 153.333 123.749 152.92 123.337 152.508C122.924 152.272 122.63 151.977 122.276 151.741C120.332 150.504 119.153 148.324 119.094 146.143C118.917 142.313 123.042 139.013 127.344 139.013C127.639 139.013 127.992 139.013 128.287 139.013C128.523 138.954 128.699 138.954 128.994 138.954C129.701 138.954 130.232 139.19 130.526 139.484C131.057 139.72 131.469 139.897 131.941 140.133C132.058 140.133 132.117 140.191 132.235 140.368C132.412 140.368 132.648 140.427 132.883 140.604C134.946 141.841 137.244 143.256 138.894 144.965C139.071 145.024 139.424 145.318 139.542 145.495C139.955 145.908 140.367 146.438 140.78 147.027C141.192 147.263 141.487 147.675 141.605 147.97C141.605 148.029 141.605 148.029 141.723 148.206C141.723 148.265 141.841 148.265 141.841 148.442L141.723 148.383C141.899 148.736 142.135 148.913 142.253 149.208C142.371 149.266 142.43 149.443 142.43 149.561C143.137 150.799 143.785 152.331 143.844 153.627C143.844 153.686 143.844 153.863 143.844 153.981C143.962 154.334 144.021 154.511 143.962 154.806C143.962 154.865 143.844 155.1 143.726 155.336Z" fill="url(#paint0_linear_3614_10446)"/>
</g>
</g>
<path opacity="0.67" d="M199.886 132.295C199.886 132.295 181.441 110.845 165.118 110.609H164.823C148.5 111.67 134.711 127.934 130.056 132.767C129.525 143.256 202.42 144.199 199.886 132.295Z" fill="#7878FF"/>
<path d="M165.412 301.95C160.875 301.95 156.337 301.537 151.917 300.889C147.616 300.241 140.662 298.708 136.066 296.764C120.214 290.871 106.601 280.382 96.7602 266.416C86.6245 252.155 81.3799 235.478 81.3799 217.917C81.3799 205.719 83.9727 194.11 88.9227 183.032C93.7549 172.542 100.591 163.114 109.371 155.276C110.491 154.039 111.551 153.037 112.376 152.153C116.501 147.91 116.914 147.498 119.389 144.61C120.037 144.021 120.744 143.078 121.628 141.958C125.576 137.303 132.058 129.466 139.778 122.748C149.266 114.498 157.81 110.255 165.235 110.255H165.53C165.648 110.255 165.648 110.255 165.707 110.255C182.089 110.255 202.125 133.65 209.608 142.548C210.316 143.373 210.964 144.08 211.376 144.61C213.203 146.791 213.969 147.38 215.914 149.442C216.975 150.562 218.507 152.035 220.687 154.392C229.644 162.23 236.657 171.6 241.607 182.325C246.792 193.462 249.326 205.307 249.326 217.564C249.326 228.937 247.087 239.957 242.726 250.269C238.483 260.287 232.414 269.244 224.694 276.964C216.975 284.683 208.017 290.989 198 295.232C187.687 299.71 176.726 301.95 165.412 301.95ZM165.648 111.492C165.53 111.492 165.53 111.492 165.412 111.492H165.117C157.869 111.492 149.56 115.617 140.132 123.75C132.412 130.467 125.93 138.187 121.982 142.842C121.039 143.962 120.332 144.905 119.742 145.553C117.267 148.323 116.855 148.853 112.73 153.096C111.905 153.921 110.844 154.923 109.725 156.219C92.1638 172.012 82.087 194.582 82.087 218.094C82.087 252.626 103.832 283.976 136.242 296.057C140.78 298.001 147.616 299.533 151.917 300.182C156.337 300.889 160.816 301.242 165.353 301.242C211.258 301.242 248.56 263.941 248.56 218.035C248.56 193.992 238.13 171.187 220.098 155.453C217.858 153.096 216.385 151.623 215.325 150.503C213.262 148.441 212.673 147.792 210.787 145.671C210.257 145.141 209.726 144.433 209.019 143.608C201.476 134.71 181.676 111.492 165.648 111.492Z" fill="#323A50"/>
<path opacity="0.2" d="M207.664 154.687C210.67 153.037 212.32 151.917 209.196 148.382C204.011 142.489 181.854 114.557 166.827 114.144L165.177 114.026C146.084 114.851 125.871 142.489 120.745 148.382C117.621 151.917 120.096 153.98 121.452 154.982C127.521 151.151 133.002 148.087 140.132 145.671C140.309 145.553 149.325 141.31 164.352 141.251C164.352 141.251 174.546 141.133 184.152 144.139C195.82 147.38 201.418 151.21 207.664 154.687Z" fill="url(#paint1_linear_3614_10446)"/>
<path opacity="0.2" d="M165.177 286.57C203.092 286.57 233.829 255.965 233.829 218.213C233.829 180.46 203.092 149.855 165.177 149.855C127.262 149.855 96.5254 180.46 96.5254 218.213C96.5254 255.965 127.262 286.57 165.177 286.57Z" fill="url(#paint2_radial_3614_10446)"/>
<path opacity="0.34" d="M237.188 186.332C237.07 186.156 237.07 186.038 236.952 185.802C236.775 186.333 236.363 186.745 235.833 187.04C234.359 187.865 232.238 187.452 231.472 185.92C231.059 185.095 230.647 184.27 230.117 183.563C229.822 183.15 229.586 182.738 229.292 182.325C229.174 182.09 229.174 182.09 229.292 182.325C229.174 182.208 229.174 182.09 229.115 182.031C228.997 181.854 228.82 181.736 228.702 181.5C227.465 180.027 225.933 178.731 224.813 177.788C224.106 177.257 223.281 176.727 222.456 176.374C222.22 176.256 221.925 176.197 221.749 176.079H221.631C221.218 175.902 220.806 175.784 220.275 175.666C219.745 175.549 219.333 175.431 218.861 175.372L218.154 175.254C217.918 175.254 217.859 175.254 217.624 175.254C216.504 175.136 215.325 175.136 214.324 175.136C210.199 175.254 206.722 175.961 202.656 176.374C198.413 176.904 194.288 177.199 190.104 177.493C181.854 178.141 173.604 179.025 165.354 179.261C161.347 179.379 157.222 178.672 153.156 177.906C149.208 177.199 145.554 176.668 141.724 176.256C133.709 175.313 125.636 174.841 117.504 175.608C115.854 175.725 114.617 174.252 114.381 172.838C114.263 172.838 114.263 172.838 114.204 172.838C113.792 172.956 113.261 173.015 112.849 173.25C112.672 173.368 112.318 173.427 112.142 173.545C112.024 173.545 111.965 173.663 111.965 173.663C110.02 174.488 108.252 175.607 106.602 176.845L106.19 177.14C106.013 177.375 105.777 177.552 105.483 177.788C105.07 178.082 104.658 178.495 104.245 178.907C103.42 179.615 102.713 180.44 102.006 181.383C102.006 181.5 101.888 181.5 101.888 181.5C101.888 181.5 101.888 181.618 101.77 181.618C101.593 181.854 101.475 182.031 101.24 182.266C100.945 182.679 100.709 183.091 100.415 183.504C100.238 183.916 100.002 184.329 99.8255 184.741C99.7076 184.859 99.5308 185.684 99.7076 184.859C99.5898 185.036 99.5308 185.272 99.5308 185.508C98.9415 187.158 97.3505 188.218 95.5826 187.747C94.9933 187.629 94.463 187.216 94.0505 186.804C94.0505 186.922 94.0505 186.981 94.0505 187.099C90.0433 196.468 87.7451 206.722 87.7451 217.506C87.7451 260.524 122.631 295.468 165.708 295.468C208.725 295.468 243.67 260.582 243.67 217.506C243.611 206.25 241.313 195.82 237.188 186.332Z" fill="url(#paint3_linear_3614_10446)"/>
<g opacity="0.2">
<path d="M226.58 246.262L226.05 246.144C225.755 248.502 218.802 251.802 217.27 252.037C216.622 252.155 216.327 251.92 215.914 251.861C215.384 251.684 214.854 251.448 213.97 251.978C212.438 252.921 207.075 258.814 205.838 261.643C204.718 264.53 203.893 266.062 201.182 267.241C199.768 267.83 197.47 267.83 195.113 267.83C192.932 267.83 190.693 267.83 188.925 268.361C186.332 269.068 183.739 270.246 182.62 270.836C183.268 270.128 183.857 269.362 184.447 268.655C185.566 267.418 186.509 266.298 187.157 265.886C187.982 265.237 190.752 265.061 193.757 264.648C197.764 264.236 202.302 263.705 203.775 262.409C205.307 260.877 207.605 255.161 209.432 250.682C210.375 248.207 211.259 246.145 211.672 245.32C212.202 244.377 213.734 243.434 215.266 242.314C217.977 240.428 221.041 238.484 221.041 236.009H220.511C220.629 238.248 217.623 240.252 214.972 241.902C213.204 243.021 211.789 244.082 211.141 245.025C210.611 245.968 209.786 248.03 208.784 250.505C206.957 255.043 204.777 260.582 203.245 262.055C202.714 262.586 201.713 262.998 200.357 263.175C201.182 262.644 202.243 261.937 203.068 260.995C204.423 259.345 205.543 255.396 206.073 253.275C206.191 252.862 206.309 252.568 206.309 252.332C206.545 251.625 206.309 251.212 206.014 250.918C205.72 250.505 205.366 249.975 205.602 248.737C205.838 247.382 206.545 246.911 207.37 246.38C207.9 245.968 208.489 245.555 208.784 244.907C209.845 243.257 209.197 241.725 208.784 240.782V240.664C208.607 240.016 207.959 240.134 207.664 240.134C207.252 240.134 207.075 240.134 206.839 239.898C206.722 239.721 207.075 239.191 207.37 238.661C207.9 237.953 208.43 237.128 208.077 236.421L207.664 236.598C207.9 237.128 207.488 237.836 207.075 238.484C206.663 239.132 206.25 239.721 206.545 240.252C206.839 240.782 207.37 240.664 207.782 240.664C208.195 240.664 208.43 240.664 208.489 240.841V240.959C208.784 241.784 209.314 243.257 208.489 244.671C208.195 245.202 207.664 245.614 207.134 246.027C206.309 246.675 205.484 247.264 205.189 248.737C205.013 250.093 205.307 250.682 205.602 251.212C205.838 251.625 206.014 251.861 205.838 252.273C205.72 252.45 205.72 252.803 205.602 253.216C205.072 255.161 203.952 259.227 202.714 260.759C201.3 262.527 198.825 263.469 198.589 263.528C197.057 263.705 195.289 263.941 193.639 264.177C190.457 264.471 187.747 264.825 186.804 265.414C186.155 265.945 185.154 267.064 184.093 268.302C181.913 270.895 179.025 274.312 176.963 274.195C175.902 274.077 174.782 273.9 173.545 273.664C171.07 273.134 168.359 272.603 165.413 273.134C159.343 274.253 157.28 275.491 156.043 276.964C154.923 278.319 154.275 280.146 154.157 280.146L154.57 280.382C154.57 280.382 155.218 278.614 156.338 277.259C157.457 275.903 159.461 274.784 165.413 273.664C168.3 273.134 170.952 273.664 173.368 274.195C174.605 274.371 175.725 274.725 176.845 274.843C178.377 274.961 180.145 273.369 181.913 271.661L182.03 271.837C182.03 271.837 185.448 269.893 188.925 268.95C190.693 268.537 192.873 268.537 194.995 268.537C197.47 268.537 199.768 268.537 201.3 267.948C204.188 266.828 205.013 265.061 206.25 262.173C207.37 259.462 212.673 253.628 214.205 252.686C214.913 252.273 215.266 252.391 215.738 252.568C216.15 252.744 216.563 252.862 217.27 252.745C219.155 252.273 226.227 248.914 226.58 246.262Z" fill="url(#paint4_linear_3614_10446)"/>
<path d="M170.245 257.282C169.419 258.107 169.537 259.521 169.714 261.112C169.832 262.644 170.009 264.412 169.302 265.885C167.946 268.655 161.759 270.835 161.759 270.953L161.877 271.366C162.171 271.248 168.241 269.126 169.714 266.121C170.421 264.589 170.362 262.703 170.127 261.171C170.009 259.639 169.891 258.401 170.539 257.635C171.246 256.928 173.839 256.28 176.078 255.808C178.671 255.16 180.911 254.689 181.559 253.923C182.089 253.216 182.207 252.567 182.266 251.978C182.384 251.389 182.443 250.859 182.973 250.446C183.268 250.269 184.859 250.328 186.45 250.446C190.987 250.741 198 251.094 200.475 247.676C202.42 245.025 201.83 242.962 201.182 241.194C200.652 239.78 200.239 238.542 201.182 237.069C201.889 235.95 203.009 235.537 204.482 235.007C207.193 234.182 210.493 233.062 212.614 226.226C213.144 224.576 212.85 222.926 212.614 221.394C212.319 219.214 212.025 217.269 213.262 215.384L212.85 215.089C211.495 217.151 211.789 219.332 212.143 221.453C212.378 223.103 212.673 224.635 212.143 226.108C210.08 232.708 206.898 233.71 204.305 234.535C202.832 235.066 201.536 235.478 200.77 236.775C199.827 238.425 200.239 239.898 200.77 241.312C201.418 243.08 201.889 244.848 200.121 247.382C197.764 250.564 190.752 250.151 186.509 249.975C184.859 249.857 183.798 249.857 183.327 249.857C183.621 249.209 183.739 248.325 183.975 247.264C184.27 245.378 184.623 243.433 185.743 242.314C186.273 241.783 186.98 241.489 187.982 241.253C190.339 240.546 193.521 239.603 196.114 233.121C196.645 230.882 195.996 229.173 195.466 228.289C195.23 227.876 194.759 227.641 194.346 227.464C193.816 227.287 193.227 226.934 192.696 226.226C191.871 224.989 191.577 217.976 191.753 216.621C191.753 216.503 191.871 216.444 191.871 216.444C191.989 216.444 192.166 216.562 192.52 216.562C193.227 216.857 194.464 217.269 195.937 216.15L195.643 215.737C194.287 216.68 193.403 216.326 192.637 216.032C192.225 215.914 191.93 215.796 191.695 215.914C191.577 216.032 191.518 216.091 191.4 216.444C191.105 217.8 191.4 224.871 192.343 226.344C192.873 227.169 193.58 227.464 194.17 227.759C194.582 227.935 194.995 228.171 195.112 228.466C195.643 229.291 196.173 230.823 195.643 232.885C193.168 239.25 190.103 240.133 187.805 240.841C186.745 241.135 185.92 241.371 185.33 242.078C184.211 243.316 183.798 245.378 183.445 247.323C183.268 248.56 183.032 249.68 182.62 250.21C181.971 250.741 181.912 251.33 181.677 251.978C181.559 252.626 181.5 253.098 181.028 253.746C180.498 254.394 178.023 254.984 175.843 255.396C173.427 255.926 171.069 256.457 170.245 257.282Z" fill="url(#paint5_linear_3614_10446)"/>
<path d="M171.011 210.198C171.659 210.846 172.071 211.318 171.836 212.791C171.6 213.734 171.129 215.148 170.48 216.621C169.42 219.214 168.418 221.866 168.948 223.104C169.125 223.752 169.596 224.164 169.891 224.518C170.598 225.343 171.423 226.286 171.011 228.938C170.716 231.118 169.596 232.768 168.654 234.123C167.829 235.243 167.121 236.304 167.239 237.305C167.357 238.012 167.77 238.661 168.182 239.191C168.889 240.134 169.714 241.018 168.712 243.434C168.005 245.32 166.827 245.673 166.002 246.145C165.059 246.557 164.234 246.852 164.587 248.737C164.941 250.623 166.002 251.861 167.18 252.98C168.005 253.805 168.83 254.748 169.42 255.868L169.832 255.691C169.184 254.454 168.418 253.511 167.475 252.686C166.355 251.566 165.236 250.446 165 248.737C164.823 247.323 165.295 247.087 166.12 246.675C167.062 246.262 168.3 245.732 169.125 243.787C170.245 241.136 169.361 240.075 168.477 239.073C168.064 238.543 167.77 238.13 167.652 237.541C167.534 236.716 168.182 235.773 169.007 234.654C169.95 233.298 171.187 231.53 171.482 229.291C171.895 226.404 171.07 225.343 170.245 224.459C169.95 224.046 169.596 223.634 169.42 223.104C169.007 222.043 170.068 219.391 170.952 217.034C171.6 215.62 172.071 214.146 172.307 213.204C172.602 211.554 172.13 210.846 171.364 210.198C170.952 209.786 170.421 209.255 170.245 208.312L169.832 208.43C169.95 209.137 170.48 209.668 171.011 210.198Z" fill="url(#paint6_linear_3614_10446)"/>
<path d="M173.367 274.607C171.717 273.782 167.71 273.487 165.235 273.9C162.878 274.312 158.635 275.255 156.985 277.023C156.042 278.084 155.217 280.029 155.1 280.146L155.512 280.382C155.512 280.382 156.337 278.437 157.28 277.495C158.812 275.727 163.35 274.784 165.235 274.489C167.946 273.959 171.717 274.489 173.073 275.079C174.605 275.786 175.135 276.964 175.135 277.436C175.312 279.086 172.542 280.559 172.542 280.618L172.719 281.03C172.837 280.912 175.842 279.38 175.489 277.436C175.607 276.493 174.9 275.373 173.367 274.607Z" fill="url(#paint7_linear_3614_10446)"/>
<path d="M174.606 245.85C175.431 246.145 176.256 246.557 176.786 247.324C177.434 248.266 178.731 250.506 177.022 252.568C176.315 253.393 174.547 254.1 172.779 254.749C171.011 255.397 169.479 255.986 168.949 256.693C168.418 257.518 168.536 258.933 168.654 260.641C168.772 262.056 168.831 263.647 168.536 264.884C167.829 267.359 161.642 270.247 161.642 270.365L161.818 270.777C162.113 270.659 168.242 267.772 169.067 265.12C169.479 263.765 169.302 262.233 169.184 260.7C169.067 259.168 169.008 257.813 169.361 257.106C169.774 256.458 171.424 255.868 172.956 255.22C174.724 254.572 176.551 253.865 177.376 252.981C178.731 251.331 178.731 249.268 177.199 247.088C176.551 246.263 175.667 245.85 174.842 245.556C174.017 245.261 173.192 244.849 172.897 244.082C172.19 242.55 172.661 240.783 173.722 240.134C173.958 239.958 174.252 239.84 174.547 239.604C175.372 239.074 176.315 238.543 177.317 237.424C178.731 235.891 181.442 229.586 181.854 226.463C182.149 224.695 181.677 223.87 181.147 223.045C180.734 222.397 180.322 221.69 180.204 220.452H179.674C179.792 221.808 180.322 222.633 180.734 223.222C181.265 224.047 181.677 224.695 181.442 226.345C180.911 229.35 178.318 235.538 177.022 236.952C175.961 238.072 175.136 238.602 174.311 239.133C174.017 239.309 173.781 239.427 173.486 239.663C172.367 240.37 171.718 242.374 172.543 244.2C172.72 245.143 173.663 245.438 174.606 245.85Z" fill="url(#paint8_linear_3614_10446)"/>
</g>
<g opacity="0.2">
<path d="M154.275 272.898C154.039 271.661 152.625 270.6 151.152 269.716C150.032 268.891 148.382 267.949 146.791 267.124C145.436 266.416 144.316 265.709 143.903 265.356C143.786 265.238 143.668 265.12 143.609 264.943C142.902 263.823 142.371 260.995 142.489 258.874C142.607 257.636 142.489 256.634 142.371 255.868C142.253 255.043 142.136 254.395 142.371 253.924C142.548 253.511 142.902 253.393 143.314 253.393C143.844 253.275 144.434 253.216 144.728 252.45C144.905 251.802 144.846 251.036 144.728 250.388C144.611 249.681 144.552 249.032 144.846 248.62C145.141 248.207 145.494 248.09 145.907 247.972C146.319 247.795 146.85 247.677 147.262 247.029C147.557 246.498 147.144 245.791 146.555 244.848C145.612 243.611 144.493 241.843 145.023 239.663C145.553 237.306 146.261 237.423 147.262 237.6C147.793 237.718 148.323 237.777 148.912 237.482C149.855 237.07 150.798 235.007 151.623 232.827C152.33 231.177 153.037 229.409 153.686 228.879C154.393 228.349 155.041 228.231 155.63 228.172C156.278 228.054 156.75 227.936 157.162 227.465C157.693 226.875 157.398 225.932 157.162 225.107C157.044 224.577 156.868 224.165 156.986 223.87L156.573 223.693C156.396 224.106 156.573 224.636 156.691 225.225C156.927 225.932 157.103 226.698 156.809 227.17C156.514 227.582 156.102 227.7 155.453 227.759C154.805 227.877 154.098 227.936 153.391 228.584C152.684 229.115 151.977 230.824 151.211 232.709C150.386 234.654 149.561 236.716 148.736 237.011C148.205 237.188 147.793 237.129 147.321 237.011C146.261 236.893 145.141 236.716 144.552 239.486C144.021 241.843 145.259 243.729 146.202 245.025C146.732 245.732 147.144 246.381 146.909 246.675C146.614 247.206 146.202 247.265 145.789 247.5C145.377 247.618 144.964 247.795 144.552 248.325C144.139 248.974 144.257 249.681 144.375 250.388C144.493 251.036 144.552 251.743 144.375 252.273C144.198 252.804 143.727 252.922 143.314 252.922C142.902 253.04 142.253 253.04 141.959 253.747C141.664 254.336 141.782 255.102 141.841 255.986C141.959 256.693 142.018 257.636 141.959 258.874C141.841 260.229 142.077 261.879 142.371 263.293C141.311 261.643 140.014 259.05 139.778 256.575C139.543 254.395 139.955 253.688 140.603 252.686C141.134 251.625 141.841 250.329 142.371 247.323C143.078 243.081 141.252 239.191 140.014 237.129C140.132 236.716 140.957 233.947 143.137 233.122L144.257 232.709C146.319 232.002 148.205 231.236 149.089 230.823C150.327 230.175 151.328 228.054 151.564 226.698C151.682 225.873 151.269 225.461 150.916 225.049C150.621 224.636 150.268 224.341 150.268 223.634C150.268 223.104 151.093 222.573 152.036 221.984C153.273 221.159 154.923 220.04 155.512 218.272C156.219 216.091 155.512 215.148 154.805 214.323C154.511 213.911 154.157 213.499 153.98 212.968L153.568 213.086C153.686 213.734 154.098 214.147 154.393 214.559C155.041 215.384 155.63 216.091 155.041 217.977C154.393 219.627 152.861 220.688 151.741 221.395C150.68 222.102 149.855 222.632 149.796 223.34C149.678 224.165 150.091 224.695 150.444 225.107C150.739 225.52 151.093 225.815 150.975 226.463C150.798 227.818 149.737 229.763 148.736 230.293C147.793 230.824 145.966 231.413 143.903 232.179L142.784 232.591C140.721 233.298 139.778 235.597 139.484 236.54C139.071 235.891 138.777 235.597 138.777 235.479C138.777 235.479 134.534 231.531 132.589 228.584C130.644 225.579 130.703 223.104 131.764 222.279C132.294 221.748 133.414 221.748 134.652 221.631C135.771 221.631 137.127 221.513 138.246 221.1C140.014 220.511 141.369 217.918 141.664 217.093C142.194 215.974 142.725 214.382 142.371 213.675C141.841 212.32 139.896 211.907 139.778 211.907L139.661 212.32C139.661 212.32 141.546 212.732 141.959 213.793C142.077 214.206 141.841 215.325 141.252 216.799C140.544 218.331 139.425 220.098 138.069 220.511C136.95 220.923 135.712 220.923 134.593 221.041C133.237 221.159 132.118 221.159 131.411 221.749C130.291 222.809 130.055 225.225 132.118 228.643C133.944 231.531 138.069 235.361 138.305 235.538C138.482 235.832 142.548 241.018 141.487 246.793C140.957 249.681 140.368 250.918 139.837 251.979C139.719 252.156 139.661 252.509 139.543 252.686C139.012 251.272 139.012 250.447 139.13 249.799C139.248 248.856 139.13 248.266 137.775 247.5C136.007 246.44 132.707 246.263 130.527 246.145C129.584 246.027 128.877 246.027 128.582 245.909C127.109 245.615 126.519 244.966 126.107 243.729C125.812 242.668 126.107 242.374 126.519 241.843C126.637 241.725 126.696 241.548 126.932 241.313C127.109 241.136 127.462 240.9 127.875 240.665C128.7 240.134 129.819 239.545 129.761 237.895C129.643 236.481 128.7 235.95 127.816 235.42C127.168 235.125 126.461 234.713 126.048 234.065C124.811 232.415 123.337 227.582 123.043 224.99C122.748 222.102 123.219 216.563 123.75 216.209C123.927 216.091 124.693 216.504 125.282 216.857C126.402 217.388 127.875 218.095 128.818 217.8C128.994 217.8 129.112 217.682 129.23 217.682C130.468 217.388 130.586 217.27 130.586 216.032C130.468 215.09 129.878 214.972 129.348 214.913C128.936 214.795 128.641 214.795 128.405 214.5C127.875 213.852 128.111 211.613 128.228 210.788L127.816 210.67C127.816 210.965 127.521 213.852 128.111 214.677C128.405 215.09 128.936 215.207 129.348 215.207C129.937 215.325 130.173 215.384 130.291 215.797C130.409 216.209 130.291 216.504 130.291 216.622C130.173 216.74 129.878 216.798 129.348 216.916C129.23 216.916 129.053 217.034 128.936 217.034C128.111 217.211 126.755 216.622 125.753 216.091C124.693 215.561 124.221 215.384 123.809 215.502C122.866 215.797 122.571 222.515 122.748 224.813C123.043 227.465 124.516 232.415 125.871 234.182C126.402 234.89 127.227 235.302 127.816 235.656C128.759 236.186 129.466 236.481 129.584 237.718C129.702 239.074 128.759 239.604 127.934 240.075C127.521 240.252 127.109 240.606 126.873 240.9C126.755 241.136 126.696 241.195 126.461 241.431C126.048 241.961 125.636 242.491 125.93 243.729C126.343 245.143 127.168 245.909 128.7 246.204C128.994 246.322 129.407 246.322 130.055 246.322C129.761 246.498 129.348 246.499 128.936 246.499C128.523 246.499 127.993 246.499 127.58 246.793C126.873 247.324 127.286 248.207 127.58 248.856C127.698 249.15 127.875 249.445 127.875 249.563C127.875 249.681 127.757 249.74 127.698 249.857C127.521 250.034 126.991 250.034 126.343 250.034C125.636 249.916 124.575 248.797 124.103 248.148C123.927 247.972 123.691 247.736 123.573 247.618C123.278 247.441 122.984 247.441 122.63 247.5C122.218 247.5 121.923 247.618 121.511 247.323C121.334 247.206 121.216 246.911 121.098 246.616C120.98 246.086 121.275 245.497 121.393 245.261C121.511 245.143 121.687 245.143 121.923 245.143C122.218 245.143 122.512 245.143 122.866 244.966C123.396 244.554 123.455 243.847 123.455 242.904C123.337 242.256 122.925 242.256 122.512 242.256C121.982 242.256 121.452 242.256 121.275 241.549C121.098 241.018 121.393 240.606 121.687 240.016C122.218 239.074 122.807 237.954 121.982 236.304C120.921 234.359 119.743 234.536 118.859 234.654C118.564 234.772 118.211 234.772 118.152 234.654C118.093 234.536 117.857 234.477 117.857 234.359C117.857 234.182 117.975 234.065 117.975 233.947L117.68 233.652C117.68 233.652 117.386 234.065 117.503 234.477C117.621 234.654 117.798 234.89 118.093 235.066C118.387 235.184 118.741 235.184 119.153 235.066C119.978 234.949 120.921 234.772 121.864 236.422C122.571 237.895 122.041 238.779 121.569 239.604C121.157 240.252 120.862 240.841 121.157 241.549C121.452 242.491 122.277 242.609 122.807 242.609C123.337 242.609 123.337 242.727 123.337 242.786C123.455 243.611 123.219 244.259 122.925 244.554C122.748 244.672 122.512 244.672 122.277 244.672C121.982 244.672 121.687 244.672 121.452 244.848C121.275 245.143 120.921 245.909 121.039 246.499C121.039 246.911 121.216 247.323 121.569 247.559C122.1 247.972 122.63 247.854 123.043 247.854C123.337 247.854 123.573 247.854 123.632 247.972C123.75 248.09 123.927 248.266 124.162 248.502C124.869 249.209 125.93 250.388 126.755 250.565C127.462 250.682 128.111 250.565 128.523 250.27C128.759 250.093 128.818 249.857 128.818 249.563C128.818 249.268 128.641 248.915 128.523 248.502C128.111 247.795 127.934 247.265 128.346 247.029C128.641 246.852 129.053 246.852 129.466 246.852C129.996 246.852 130.703 246.852 131.234 246.263C131.352 246.263 131.352 246.263 131.352 246.263C133.532 246.381 136.832 246.557 138.364 247.618C139.484 248.325 139.484 248.679 139.425 249.504C139.425 250.211 139.307 251.39 140.073 253.098C139.896 253.806 139.778 254.631 139.778 255.986C140.073 260.111 143.255 264.354 143.491 264.648C143.609 264.825 143.786 265.061 143.903 265.179C144.434 265.591 145.553 266.24 146.909 266.947C148.441 267.772 150.091 268.715 151.211 269.54C152.566 270.482 153.921 271.425 154.098 272.545C154.216 273.075 153.98 273.606 153.568 274.077C152.036 276.257 149.973 283.565 149.973 283.859L150.386 283.977C150.503 283.565 152.448 276.375 153.862 274.372C154.157 274.018 154.393 273.37 154.275 272.898Z" fill="url(#paint9_linear_3614_10446)"/>
<path d="M151.093 274.607C150.445 272.308 147.145 269.951 146.143 269.244C143.786 267.83 138.541 267.476 136.007 268.007C134.888 268.183 134.063 268.655 133.415 268.949C132.59 269.362 132 269.657 131.057 269.657C129.172 269.657 128.17 269.833 127.345 270.599C127.168 270.717 127.168 270.894 127.168 271.012C127.168 271.424 127.463 271.719 127.875 272.073C128.17 272.367 128.582 272.721 128.582 272.898C128.582 273.015 128.465 273.074 128.406 273.074C127.168 273.723 126.225 272.78 126.225 272.78L125.931 273.074C125.931 273.074 127.168 274.312 128.582 273.487C128.877 273.31 128.995 273.192 129.113 272.898C129.231 272.485 128.7 272.073 128.288 271.66C128.052 271.483 127.64 271.13 127.64 270.953C127.64 270.953 127.64 270.953 127.757 270.835C128.582 270.246 129.525 270.01 131.234 270.01C132.295 270.01 133.002 269.715 133.827 269.303C134.534 269.008 135.241 268.596 136.302 268.36C138.659 267.83 143.845 268.183 145.966 269.48C147.322 270.305 150.209 272.603 150.74 274.548C150.857 275.078 150.622 276.08 150.327 276.787C148.559 280.912 147.97 283.917 147.97 283.917L148.382 284.035C148.382 284.035 149.031 281.03 150.74 276.905C150.74 276.787 151.27 275.432 151.093 274.607Z" fill="url(#paint10_linear_3614_10446)"/>
<path d="M152.095 274.313C151.977 273.488 151.152 272.545 150.857 272.25L150.739 272.132C149.089 270.188 146.614 268.243 145.082 267.713C144.67 267.477 144.021 267.418 143.432 267.3C140.839 266.063 138.246 265.532 135.889 265.061C134.534 264.884 133.179 264.53 131.882 264.118C128.288 263.057 122.159 256.988 121.864 256.693C121.688 256.398 117.563 251.213 117.15 249.386C116.973 248.561 116.089 244.613 115.618 243.611C115.205 242.668 110.02 240.9 108.9 240.605C106.307 240.488 102.595 240.311 102.3 239.957C101.888 239.663 101.357 238.189 101.475 237.6C101.475 237.423 101.77 237.188 102.064 237.011C102.477 236.716 103.125 236.304 103.184 235.538C103.302 235.007 102.889 233.357 102.241 230.882C101.652 228.407 100.768 225.107 101.004 224.577C101.18 224.046 101.534 223.929 101.829 223.87C102.123 223.752 102.536 223.693 102.654 223.163C102.654 222.986 102.654 222.868 102.536 222.75C102.359 222.455 101.829 222.573 101.004 222.573C100.296 222.573 99.3536 222.691 98.9411 222.396L98.6465 222.691C99.1768 223.104 100.179 223.104 101.004 222.986C101.416 222.986 102.064 222.868 102.123 222.986C102.123 223.221 102.005 223.28 101.593 223.398C101.18 223.516 100.65 223.575 100.473 224.459C100.296 225.166 100.768 227.464 101.593 231.059C102.123 233.004 102.654 235.066 102.536 235.596C102.418 236.127 102.005 236.421 101.593 236.716C101.18 237.011 100.886 237.246 100.768 237.659C100.65 238.366 101.18 240.016 101.829 240.429C102.359 240.723 107.073 241.077 108.605 241.077C111.611 242.02 114.793 243.316 114.97 243.846C115.264 244.671 116.03 247.382 116.384 249.621C116.796 251.566 121.039 256.87 121.216 257.164C121.511 257.459 127.58 263.529 131.411 264.707C132.766 265.12 134.121 265.297 135.418 265.65C137.363 266.063 139.366 266.357 141.429 267.182C140.309 267.064 139.071 267.005 137.952 266.888C136.891 266.77 136.007 266.77 135.241 266.711C129.584 266.063 126.461 265.296 124.398 263.823C122.159 262.173 115.205 256.104 114.616 255.455C114.321 255.043 114.204 254.63 114.027 254.041C113.909 253.629 113.85 253.098 113.496 252.627C112.671 250.682 109.371 248.62 106.896 247.088C105.659 246.263 104.539 245.614 104.304 245.202C103.891 244.671 104.127 244.259 104.304 243.846C104.421 243.552 104.598 243.139 104.598 242.609H104.304C104.304 243.021 104.186 243.316 104.009 243.67C103.832 244.2 103.596 244.73 104.127 245.555C104.421 245.968 105.482 246.616 106.779 247.5C109.136 249.032 112.377 250.977 113.143 252.863C113.32 253.393 113.438 253.805 113.555 254.218C113.732 254.866 113.85 255.338 114.204 255.75C114.793 256.457 121.746 262.645 124.104 264.177C126.284 265.709 129.348 266.534 135.123 267.182C135.83 267.3 136.773 267.3 137.834 267.418C140.309 267.595 143.196 267.83 144.552 268.361C146.084 268.891 148.5 270.718 150.091 272.663C150.091 272.663 150.091 272.78 150.209 272.78C150.504 273.075 151.27 273.9 151.329 274.666C151.446 275.373 150.916 276.611 150.268 278.379C149.62 280.029 148.913 282.091 148.205 284.566L148.618 284.684C149.266 282.209 150.032 280.146 150.68 278.496C151.8 276.375 152.213 275.02 152.095 274.313Z" fill="url(#paint11_linear_3614_10446)"/>
<path d="M104.48 211.023C104.48 211.318 104.067 211.966 103.655 212.555C102.948 213.675 102.123 214.912 102.594 215.855C102.889 216.386 103.655 216.916 104.48 217.387C106.012 218.448 107.957 219.744 108.723 222.043C109.96 225.755 113.142 232.473 113.142 232.532C113.142 232.65 117.091 237.894 115.735 242.962L116.148 243.08C117.503 237.836 113.791 232.65 113.496 232.237C113.496 232.119 113.378 232.06 113.319 231.707C113.85 231.589 115.087 231.177 115.912 230.175C116.501 229.35 116.737 228.348 116.619 227.169C116.325 225.107 115.382 223.162 114.439 221.394C113.732 219.98 113.025 218.625 113.084 217.8C113.201 216.975 113.614 216.857 114.203 216.68C114.91 216.503 115.853 216.268 115.971 214.618C116.148 212.968 115.028 212.261 114.085 211.73C113.378 211.2 112.848 210.905 112.966 210.375C113.084 208.843 115.205 206.898 115.205 206.78L114.91 206.486C114.792 206.603 112.671 208.666 112.553 210.316C112.435 211.141 113.142 211.671 113.909 212.084C114.851 212.614 115.794 213.203 115.559 214.559C115.441 215.796 114.851 215.973 114.144 216.209C113.496 216.444 112.789 216.621 112.671 217.741C112.553 218.802 113.26 220.098 114.026 221.689C114.851 223.339 115.912 225.284 116.089 227.287C116.207 228.407 115.971 229.232 115.5 229.939C114.792 231 113.555 231.294 113.142 231.294C112.2 229.35 110.137 224.694 109.135 221.807C108.31 219.332 106.248 217.859 104.716 216.857C103.891 216.327 103.242 215.796 102.948 215.443C102.535 214.736 103.242 213.557 104.009 212.555C104.421 211.907 104.834 211.318 104.951 210.905C105.069 210.316 104.421 209.255 103.596 208.253C102.889 207.193 102.123 206.073 102.064 205.248L101.651 205.366C101.769 206.309 102.594 207.428 103.301 208.548C103.95 209.55 104.598 210.493 104.48 211.023Z" fill="url(#paint12_linear_3614_10446)"/>
<path d="M149.443 276.198C148.913 274.961 147.263 273.9 146.143 273.193C145.731 272.898 145.318 272.663 145.082 272.486C144.847 272.309 144.906 272.191 144.906 271.955C144.788 271.425 144.611 270.895 143.491 270.541C141.723 269.834 137.598 269.48 136.243 270.305C135.713 270.6 135.595 271.13 135.595 271.425C135.713 272.368 136.832 273.311 137.952 273.605C138.659 273.782 138.777 274.666 138.777 275.373C138.777 276.022 138.895 276.729 139.425 277.141C139.72 277.377 139.956 277.671 139.838 277.848C139.72 278.025 139.307 278.379 138.423 278.438C137.068 278.555 135.123 278.025 135.006 278.025L134.888 278.438C135.006 278.438 137.068 278.968 138.364 278.85C139.425 278.732 140.014 278.32 140.132 277.789C140.25 277.377 140.014 276.964 139.484 276.67C139.189 276.493 139.072 275.845 139.072 275.314C138.954 274.489 138.954 273.488 137.952 273.134C136.95 272.78 136.007 272.014 135.889 271.366C135.889 271.071 136.007 270.836 136.302 270.777C137.422 270.07 141.37 270.247 143.138 270.954C144.198 271.366 144.257 271.661 144.257 272.073C144.257 272.25 144.375 272.604 144.67 272.898C144.847 273.134 145.318 273.311 145.789 273.723C146.85 274.43 148.5 275.491 148.913 276.493C149.207 277.318 148.913 278.143 148.264 279.263C147.734 280.382 147.145 281.738 146.85 283.564L147.263 283.682C147.439 281.796 148.088 280.5 148.618 279.439C149.443 278.143 149.914 277.2 149.443 276.198Z" fill="url(#paint13_linear_3614_10446)"/>
</g>
<path d="M164.588 183.091C186.295 183.091 203.893 173.619 203.893 161.936C203.893 150.252 186.295 140.78 164.588 140.78C142.88 140.78 125.282 150.252 125.282 161.936C125.282 173.619 142.88 183.091 164.588 183.091Z" fill="#2A697F"/>
<path d="M164.293 162.23C173.796 162.23 181.5 158.404 181.5 153.685C181.5 148.966 173.796 145.141 164.293 145.141C154.79 145.141 147.086 148.966 147.086 153.685C147.086 158.404 154.79 162.23 164.293 162.23Z" fill="#293C4F"/>
<path d="M164.293 147.145C173.073 147.145 180.38 150.445 181.441 154.687C181.559 154.393 181.559 153.98 181.559 153.627C181.559 148.853 173.839 145.082 164.352 145.082C154.864 145.082 147.145 148.912 147.145 153.627C147.145 153.921 147.145 154.334 147.262 154.687C148.205 150.445 155.512 147.145 164.293 147.145Z" fill="#DBDBDB"/>
<path d="M181.382 156.455L180.969 154.805C179.909 150.68 172.837 147.557 164.292 147.557C155.748 147.557 148.617 150.68 147.616 154.805L147.203 156.455L146.791 154.805C146.673 154.393 146.673 154.098 146.673 153.686C146.673 151.211 148.559 148.912 151.918 147.321C155.217 145.671 159.637 144.729 164.292 144.729C168.948 144.729 173.368 145.671 176.668 147.321C180.085 148.971 181.912 151.211 181.912 153.686C181.912 154.098 181.912 154.393 181.794 154.805L181.382 156.455ZM164.292 145.495C155.512 145.495 148.441 148.677 147.616 152.802C149.973 149.207 156.573 146.732 164.292 146.732C172.012 146.732 178.73 149.325 180.969 152.802C180.144 148.795 173.073 145.495 164.292 145.495Z" fill="#323A50"/>
<path d="M164.705 140.897C143.019 140.897 125.399 150.208 125.399 161.522C125.399 172.955 143.019 182.147 164.705 182.147C186.39 182.147 204.01 172.837 204.01 161.522C203.951 150.149 186.449 140.897 164.705 140.897ZM181.499 153.862C181.499 154.039 181.499 154.039 181.499 154.156C180.792 158.458 173.367 161.758 164.292 161.758C155.512 161.758 148.205 158.576 147.144 154.451C147.144 154.333 147.144 154.215 147.026 154.156C147.026 154.039 147.026 154.039 147.026 153.98C147.026 153.98 147.026 153.862 147.026 153.744C147.026 153.626 147.026 153.567 147.026 153.331C147.026 153.331 147.026 153.037 147.026 152.919C147.144 152.271 147.203 151.799 147.557 151.269C147.851 150.739 148.205 150.208 148.676 149.737C151.446 146.967 157.339 144.964 164.233 144.964C173.721 144.964 181.558 148.676 181.558 153.331H181.323C181.499 153.567 181.499 153.744 181.499 153.862Z" fill="#DBDBDB"/>
<path d="M164.705 182.56C154.216 182.56 144.198 180.38 136.773 176.491C129.23 172.542 124.987 167.18 124.987 161.523C124.987 155.866 129.112 150.503 136.773 146.555C144.316 142.607 154.216 140.485 164.705 140.485C175.194 140.485 185.212 142.666 192.637 146.555C200.18 150.503 204.364 155.866 204.364 161.523C204.364 167.18 200.239 172.542 192.637 176.491C185.212 180.498 175.312 182.56 164.705 182.56ZM164.705 141.31C143.255 141.31 125.812 150.385 125.812 161.523C125.812 172.66 143.255 181.735 164.705 181.735C186.155 181.735 203.598 172.66 203.598 161.523C203.598 150.385 186.155 141.31 164.705 141.31ZM164.352 162.23C155.453 162.23 147.969 158.93 146.791 154.628C146.791 154.51 146.673 154.392 146.673 154.334C146.673 154.216 146.673 154.216 146.673 154.157V154.039V153.921C146.673 153.803 146.673 153.744 146.673 153.509V153.096C146.791 152.448 146.85 151.859 147.321 151.328C147.616 150.798 148.028 150.267 148.559 149.796C148.559 149.796 148.677 149.796 148.677 149.678C151.682 146.673 157.752 144.846 164.469 144.846C169.125 144.846 173.544 145.789 176.844 147.321C180.262 148.971 182.089 151.151 182.089 153.626V154.039H181.971V154.157C181.971 154.275 181.971 154.275 181.971 154.334C181.205 158.812 173.662 162.23 164.352 162.23ZM147.557 153.45C147.557 153.567 147.557 153.626 147.557 153.744V153.862V153.98C147.557 154.098 147.557 154.098 147.557 154.157C147.557 154.275 147.557 154.334 147.675 154.451C148.736 158.459 155.807 161.464 164.352 161.464C173.132 161.464 180.439 158.282 181.146 154.157V154.039C181.146 153.921 181.146 153.921 181.146 153.803V153.685C181.146 153.568 181.146 153.567 181.146 153.509V153.096H181.323C181.146 151.151 179.378 149.384 176.491 147.91C173.309 146.378 168.948 145.553 164.411 145.553C157.928 145.553 151.918 147.439 149.148 150.209C149.148 150.209 149.148 150.209 149.03 150.326C148.618 150.739 148.205 151.269 147.969 151.682C147.675 152.212 147.557 152.742 147.439 153.214C147.557 153.155 147.557 153.332 147.557 153.45Z" fill="#323A50"/>
<g opacity="0.3">
<path d="M165.707 295.762C151.8 295.762 138.07 291.932 125.931 284.742L125.282 284.153C110.138 275.373 98.6467 261.642 92.2824 244.553C89.6896 237.953 88.1574 230.823 87.5681 222.867C87.3914 219.155 87.3914 215.619 87.5681 211.966C87.7449 208.371 88.2753 204.541 89.2181 200.18C90.161 195.76 91.5753 191.341 93.6378 186.567L94.3449 186.862C92.2824 191.517 90.8092 195.937 89.9253 200.298C88.9824 204.6 88.511 208.371 88.2753 211.966C88.0985 215.678 88.0985 219.096 88.2753 222.808C88.8646 230.646 90.4556 237.658 92.9896 244.258C99.3539 261.289 110.609 274.783 125.695 283.564L126.343 284.212C150.798 298.65 180.204 298.767 204.718 284.389C205.956 283.564 207.193 282.739 208.607 281.914C221.631 273.546 231.413 261.583 237.6 246.321C237.895 245.614 238.131 244.907 238.425 244.082C238.602 243.374 238.956 242.55 239.25 241.842C244.023 227.405 244.495 212.791 240.9 198.117C240.782 197.469 238.307 190.044 236.893 186.685L237.6 186.391C238.956 189.573 241.431 196.998 241.607 198.058C245.32 212.791 244.731 227.641 239.957 242.314C239.663 243.021 239.427 243.728 239.132 244.553C238.956 245.26 238.602 246.085 238.307 246.792C232.002 262.173 222.102 274.253 208.902 282.68C207.488 283.505 206.191 284.33 204.954 285.155C193.168 292.05 179.438 295.762 165.707 295.762Z" fill="#323A50"/>
</g>
<path d="M263.882 189.102C262.055 182.797 256.988 178.613 248.914 176.432C244.259 175.195 240.016 175.077 238.189 175.077C238.189 174.841 237.954 174.547 237.895 174.429C239.427 174.429 244.2 174.429 249.15 175.784C257.282 177.964 262.645 182.384 264.53 188.866C264.943 189.691 276.67 214.323 278.025 228.761C278.438 232.591 281.502 233.416 287.1 234.948C291.756 236.186 298.12 237.954 306.075 242.197L305.78 242.845C297.943 238.602 291.638 236.834 286.982 235.597C281.325 234.064 277.789 233.122 277.377 228.761C276.257 217.034 268.066 198.354 265.002 191.518C265.238 196.468 261.702 203.363 254.572 212.025C247.736 220.275 237.777 230.293 224.636 241.607C219.804 245.85 214.972 249.857 210.198 253.688L209.491 253.511C214.205 249.68 219.273 245.438 224.223 241.136C253.688 215.855 267.3 197.882 263.882 189.102Z" fill="#323A50"/>
<path d="M240.192 181.382C240.075 180.852 239.485 178.612 239.367 178.2C239.367 177.964 240.31 179.437 240.31 179.261C240.31 178.848 240.016 178.318 239.603 178.023C239.721 177.493 239.721 177.316 239.191 176.962C239.191 176.786 238.66 176.786 238.66 176.55C239.485 177.964 240.546 179.85 240.841 181.382C242.196 188.63 231.235 205.543 208.371 231.825C203.303 237.6 198.235 243.375 193.639 248.325L192.932 248.089C213.38 225.755 242.019 192.225 240.192 181.382Z" fill="#323A50"/>
<path d="M237.895 174.487C238.012 174.605 238.071 174.664 238.189 174.9L242.432 174.723C240.605 174.487 238.955 174.487 237.895 174.487Z" fill="#323A50"/>
<path d="M239.132 176.55L250.093 176.137C249.68 176.02 249.268 175.961 248.737 175.843L238.955 176.255C239.014 176.373 239.014 176.432 239.132 176.55Z" fill="#323A50"/>
<path d="M239.545 178.317L254.1 177.728C253.806 177.61 253.57 177.492 253.275 177.315L239.368 177.846C239.368 177.964 239.368 177.964 239.368 178.023C239.486 178.081 239.486 178.199 239.545 178.317Z" fill="#323A50"/>
<path d="M240.192 179.967L256.987 179.26C256.751 179.142 256.575 178.966 256.339 178.848L240.016 179.437C240.192 179.732 240.192 179.849 240.192 179.967Z" fill="#323A50"/>
<path d="M240.37 181.618L258.932 180.911C258.814 180.793 258.638 180.616 258.402 180.498L240.252 181.205C240.37 181.323 240.37 181.382 240.37 181.618Z" fill="#323A50"/>
<path d="M240.487 183.386L260.7 182.561C260.582 182.443 260.523 182.266 260.287 182.148L240.487 182.973C240.487 183.032 240.487 183.15 240.487 183.386Z" fill="#323A50"/>
<path d="M240.193 184.682C240.193 184.8 240.075 184.859 240.075 184.976L261.938 184.034C261.82 183.916 261.702 183.739 261.643 183.621L240.193 184.682Z" fill="#323A50"/>
<path d="M239.663 186.567C239.663 186.685 239.663 186.744 239.545 186.744L262.94 185.801C262.822 185.683 262.822 185.507 262.704 185.389L239.604 186.332C239.663 186.449 239.663 186.567 239.663 186.567Z" fill="#323A50"/>
<path d="M238.955 188.1L263.587 187.039C263.705 187.157 263.705 187.334 263.764 187.452L238.837 188.512C238.837 188.394 238.955 188.218 238.955 188.1Z" fill="#323A50"/>
<path d="M238.248 189.867L264.236 188.807C264.236 188.924 264.353 188.983 264.353 189.219L238.071 190.28C238.13 190.162 238.248 190.044 238.248 189.867Z" fill="#323A50"/>
<path d="M237.424 191.635L264.649 190.516C264.649 190.633 264.649 190.81 264.766 190.928L237.306 192.048C237.306 191.93 237.306 191.812 237.424 191.635Z" fill="#323A50"/>
<path d="M236.48 193.344L264.766 192.225C264.766 192.342 264.766 192.519 264.766 192.637L236.304 193.757C236.363 193.698 236.48 193.58 236.48 193.344Z" fill="#323A50"/>
<path d="M235.538 194.995L264.531 193.875C264.531 193.993 264.531 194.17 264.413 194.287L235.243 195.525C235.42 195.289 235.538 195.23 235.538 194.995Z" fill="#323A50"/>
<path d="M234.477 196.88L264.177 195.643C264.177 195.76 264.059 195.937 264.059 196.055L234.241 197.293C234.418 197.057 234.418 196.998 234.477 196.88Z" fill="#323A50"/>
<path d="M233.475 198.53L263.706 197.293C263.706 197.411 263.588 197.588 263.47 197.705L233.181 198.943C233.299 198.825 233.357 198.707 233.475 198.53Z" fill="#323A50"/>
<path d="M232.355 200.357L262.998 199.119C262.88 199.237 262.88 199.414 262.762 199.532L232.061 200.769C232.119 200.71 232.237 200.474 232.355 200.357Z" fill="#323A50"/>
<path d="M231.235 202.007L262.173 200.77C262.055 200.887 262.055 201.064 261.937 201.182L230.882 202.42C231 202.302 231.118 202.243 231.235 202.007Z" fill="#323A50"/>
<path d="M229.998 203.775L261.23 202.537C261.112 202.655 261.053 202.832 261.053 202.95L229.821 204.187C229.762 204.069 229.88 204.01 229.998 203.775Z" fill="#323A50"/>
<path d="M228.702 205.542L260.17 204.305C260.052 204.423 259.993 204.599 259.875 204.717L228.407 205.955C228.525 205.837 228.643 205.719 228.702 205.542Z" fill="#323A50"/>
<path d="M227.406 207.369L258.991 206.132C258.873 206.25 258.756 206.426 258.697 206.544L227.17 207.782C227.17 207.664 227.288 207.487 227.406 207.369Z" fill="#323A50"/>
<path d="M226.227 209.02L257.812 207.782C257.694 207.9 257.577 208.077 257.518 208.195L225.873 209.432C226.05 209.255 226.168 209.138 226.227 209.02Z" fill="#323A50"/>
<path d="M224.93 210.787L256.575 209.55C256.457 209.668 256.398 209.844 256.28 209.962L224.636 211.2C224.695 211.082 224.813 211.023 224.93 210.787Z" fill="#323A50"/>
<path d="M223.575 212.555L255.219 211.317C255.101 211.435 254.984 211.612 254.925 211.73L223.339 212.967C223.398 212.85 223.457 212.732 223.575 212.555Z" fill="#323A50"/>
<path d="M222.101 214.382L253.687 213.145C253.569 213.262 253.451 213.439 253.392 213.557L221.807 214.795C221.924 214.618 222.042 214.5 222.101 214.382Z" fill="#323A50"/>
<path d="M220.805 216.15L252.273 214.912C252.155 215.03 252.037 215.207 251.86 215.325L220.393 216.562C220.569 216.444 220.687 216.268 220.805 216.15Z" fill="#323A50"/>
<path d="M219.332 217.917L250.682 216.68C250.564 216.798 250.446 216.974 250.269 217.092L219.037 218.33C219.155 218.212 219.273 218.094 219.332 217.917Z" fill="#323A50"/>
<path d="M217.917 219.686L249.091 218.448C248.973 218.566 248.796 218.743 248.678 218.861L217.505 220.098C217.682 219.98 217.8 219.863 217.917 219.686Z" fill="#323A50"/>
<path d="M216.562 221.395L247.499 220.157C247.382 220.275 247.205 220.452 247.087 220.57L216.149 221.807C216.326 221.748 216.444 221.513 216.562 221.395Z" fill="#323A50"/>
<path d="M215.207 223.044L245.909 221.807C245.791 221.924 245.614 222.101 245.496 222.219L214.735 223.457C215.03 223.398 215.148 223.162 215.207 223.044Z" fill="#323A50"/>
<path d="M213.675 224.813L244.2 223.575C244.082 223.693 243.905 223.87 243.787 223.988L213.38 225.225C213.498 225.107 213.557 224.989 213.675 224.813Z" fill="#323A50"/>
<path d="M212.202 226.58L242.432 225.343C242.314 225.461 242.137 225.637 242.019 225.755L211.789 226.993C212.025 226.875 212.143 226.757 212.202 226.58Z" fill="#323A50"/>
<path d="M210.669 228.407L240.605 227.17C240.487 227.288 240.31 227.465 240.193 227.582L210.257 228.82C210.493 228.761 210.61 228.525 210.669 228.407Z" fill="#323A50"/>
<path d="M209.373 230.057L239.073 228.819C238.955 228.937 238.779 229.114 238.661 229.232L209.078 230.469C209.02 230.351 209.137 230.293 209.373 230.057Z" fill="#323A50"/>
<path d="M207.9 231.707L237.305 230.47C237.188 230.588 237.011 230.764 236.893 230.882L207.605 232.12C207.605 232.061 207.782 231.943 207.9 231.707Z" fill="#323A50"/>
<path d="M206.367 233.592L235.36 232.473C235.242 232.591 235.065 232.767 234.948 232.885L206.073 234.005C206.014 233.769 206.132 233.71 206.367 233.592Z" fill="#323A50"/>
<path d="M204.836 235.301L233.475 234.182C233.298 234.299 233.18 234.476 232.945 234.594L204.364 235.714C204.482 235.655 204.6 235.419 204.836 235.301Z" fill="#323A50"/>
<path d="M203.185 237.07L231.412 235.95C231.235 236.068 231.117 236.245 230.882 236.363L202.714 237.482C202.95 237.364 203.067 237.306 203.185 237.07Z" fill="#323A50"/>
<path d="M201.594 238.956L229.467 237.836C229.232 237.954 229.173 238.131 228.937 238.248L201.182 239.368C201.299 239.25 201.476 239.073 201.594 238.956Z" fill="#323A50"/>
<path d="M200.062 240.605L227.523 239.485C227.287 239.603 227.228 239.78 226.992 239.898L199.649 241.017C199.885 240.9 199.944 240.664 200.062 240.605Z" fill="#323A50"/>
<path d="M198.531 242.373L225.579 241.253C225.343 241.371 225.284 241.548 225.049 241.665L198.118 242.785C198.177 242.667 198.413 242.549 198.531 242.373Z" fill="#323A50"/>
<path d="M196.88 244.199L223.516 243.139C223.28 243.257 223.221 243.433 222.986 243.551L196.468 244.612C196.645 244.435 196.762 244.317 196.88 244.199Z" fill="#323A50"/>
<path d="M195.289 245.968L221.395 244.907C221.159 245.025 221.1 245.202 220.864 245.32L194.877 246.38C194.995 246.263 195.113 246.145 195.289 245.968Z" fill="#323A50"/>
<path d="M193.757 247.617L219.45 246.557C219.273 246.674 219.155 246.851 218.92 246.969L193.345 248.03C193.463 247.912 193.698 247.794 193.757 247.617Z" fill="#323A50"/>
<path d="M194.17 249.268L217.506 248.325C217.329 248.443 217.211 248.62 216.975 248.738L195.29 249.681C194.936 249.445 194.582 249.386 194.17 249.268Z" fill="#323A50"/>
<path d="M198.825 250.8L215.325 250.093C215.148 250.211 215.031 250.387 214.795 250.505L199.945 251.153C199.532 250.977 199.12 250.918 198.825 250.8Z" fill="#323A50"/>
<path d="M203.539 252.273L213.203 251.86C213.027 251.978 212.909 252.155 212.673 252.273L204.659 252.567C204.305 252.567 203.893 252.332 203.539 252.273Z" fill="#323A50"/>
<path d="M208.194 253.805L210.905 253.688C210.669 253.805 210.61 253.982 210.375 254.1H209.255C208.96 254.1 208.607 253.982 208.194 253.805Z" fill="#323A50"/>
<path d="M68.2397 189.102C70.1254 182.797 75.1344 178.613 83.2076 176.432C87.8629 175.195 92.0469 175.077 93.9326 175.077C93.9326 174.841 94.1094 174.547 94.2272 174.429C92.6951 174.429 87.9219 174.429 82.9719 175.784C74.8397 177.964 69.4772 182.384 67.5915 188.866C67.179 189.691 55.4522 214.323 54.0969 228.761C53.6844 232.591 50.5612 233.416 45.0219 234.948C40.3665 236.186 34.0022 237.954 26.0469 242.197L26.3415 242.845C34.179 238.602 40.4844 236.834 45.1397 235.597C50.7969 234.064 54.3326 233.122 54.7451 228.761C55.8647 217.034 63.9969 198.354 67.1201 191.518C66.9433 196.468 70.4201 203.363 77.5504 212.025C84.3272 220.275 94.3451 230.293 107.486 241.607C112.318 245.85 117.209 249.857 121.924 253.688L122.631 253.511C117.917 249.68 112.849 245.438 107.899 241.136C78.4933 215.855 64.8808 197.882 68.2397 189.102Z" fill="#323A50"/>
<path d="M91.9877 181.382C92.1055 180.852 92.6948 178.612 92.8127 178.2C92.8127 177.964 91.8698 179.437 91.8698 179.261C91.8698 178.848 92.1645 178.318 92.577 178.023C92.4591 177.493 92.4591 177.316 92.9895 176.962C92.9895 176.786 93.5198 176.786 93.5198 176.55C92.6948 177.964 91.6341 179.85 91.3395 181.382C89.9841 188.63 100.945 205.543 123.809 231.825C128.877 237.6 133.886 243.375 138.541 248.325L139.248 248.089C118.682 225.755 90.2198 192.225 91.9877 181.382Z" fill="#323A50"/>
<path d="M94.2865 174.487C94.1687 174.605 94.1097 174.664 93.9919 174.9L89.749 174.723C91.5758 174.487 93.2258 174.487 94.2865 174.487Z" fill="#323A50"/>
<path d="M92.9897 176.55L82.0879 176.137C82.5004 176.02 82.9129 175.961 83.4432 175.843L93.2254 176.255C93.1075 176.373 93.1075 176.432 92.9897 176.55Z" fill="#323A50"/>
<path d="M92.6364 178.317L78.0811 177.728C78.3757 177.61 78.6114 177.492 78.9061 177.315L92.8132 177.846C92.8132 177.964 92.8132 177.964 92.8132 178.023C92.6953 178.081 92.6953 178.199 92.6364 178.317Z" fill="#323A50"/>
<path d="M91.988 179.967L75.1934 179.26C75.3701 179.142 75.6059 178.966 75.7826 178.848L92.1059 179.437C91.988 179.732 91.988 179.849 91.988 179.967Z" fill="#323A50"/>
<path d="M91.8115 181.618L73.249 180.911C73.3669 180.793 73.5437 180.616 73.7794 180.498L91.9294 181.205C91.8115 181.323 91.8115 181.382 91.8115 181.618Z" fill="#323A50"/>
<path d="M91.6939 183.386L71.4814 182.561C71.5993 182.443 71.6582 182.266 71.8939 182.148L91.6939 182.973C91.6939 183.032 91.6939 183.15 91.6939 183.386Z" fill="#323A50"/>
<path d="M91.9878 184.682C91.9878 184.8 92.1057 184.859 92.1057 184.976L70.2432 184.034C70.361 183.916 70.4199 183.739 70.5378 183.621L91.9878 184.682Z" fill="#323A50"/>
<path d="M92.519 186.567C92.519 186.685 92.519 186.744 92.6368 186.744L69.2422 185.801C69.36 185.683 69.36 185.507 69.419 185.389L92.519 186.332C92.519 186.449 92.519 186.567 92.519 186.567Z" fill="#323A50"/>
<path d="M93.2259 188.1L68.5938 187.039C68.4759 187.157 68.4759 187.334 68.417 187.452L93.3438 188.512C93.3438 188.394 93.2259 188.218 93.2259 188.1Z" fill="#323A50"/>
<path d="M93.9325 189.867L67.945 188.807C67.945 188.924 67.8271 188.983 67.8271 189.219L94.1093 190.28C94.0504 190.162 93.9325 190.044 93.9325 189.867Z" fill="#323A50"/>
<path d="M94.7579 191.635L67.5329 190.516C67.5329 190.633 67.5329 190.81 67.415 190.928L94.8168 192.048C94.8758 191.93 94.8758 191.812 94.7579 191.635Z" fill="#323A50"/>
<path d="M95.7008 193.344L67.415 192.225C67.415 192.342 67.415 192.519 67.415 192.637L95.8775 193.757C95.8186 193.698 95.8186 193.58 95.7008 193.344Z" fill="#323A50"/>
<path d="M96.6436 194.995L67.5918 193.875C67.5918 193.993 67.5918 194.17 67.7097 194.287L96.8793 195.525C96.7614 195.289 96.6436 195.23 96.6436 194.995Z" fill="#323A50"/>
<path d="M97.6453 196.88L67.9453 195.643C67.9453 195.76 68.0632 195.937 68.0632 196.055L97.881 197.293C97.7632 197.057 97.7632 196.998 97.6453 196.88Z" fill="#323A50"/>
<path d="M98.7059 198.53L68.4756 197.293C68.4756 197.411 68.5934 197.588 68.6524 197.705L99.0006 198.943C98.8827 198.825 98.8238 198.707 98.7059 198.53Z" fill="#323A50"/>
<path d="M99.8255 200.357L69.1826 199.119C69.3005 199.237 69.3005 199.414 69.3594 199.532L100.12 200.769C100.061 200.71 99.9433 200.474 99.8255 200.357Z" fill="#323A50"/>
<path d="M100.945 202.007L70.0078 200.77C70.1257 200.887 70.1257 201.064 70.1846 201.182L101.24 202.42C101.181 202.302 101.063 202.243 100.945 202.007Z" fill="#323A50"/>
<path d="M102.183 203.775L70.9512 202.537C71.069 202.655 71.128 202.832 71.128 202.95L102.36 204.187C102.301 204.069 102.183 204.01 102.183 203.775Z" fill="#323A50"/>
<path d="M103.303 205.542L71.835 204.305C71.9528 204.423 72.0117 204.599 72.1296 204.717L103.597 205.955C103.539 205.837 103.421 205.719 103.303 205.542Z" fill="#323A50"/>
<path d="M104.658 207.369L73.1904 206.132C73.3083 206.25 73.3672 206.426 73.4851 206.544L105.012 207.782C104.894 207.664 104.776 207.487 104.658 207.369Z" fill="#323A50"/>
<path d="M105.778 209.02L74.251 207.782C74.3688 207.9 74.4278 208.077 74.5456 208.195L106.19 209.432C106.013 209.255 105.896 209.138 105.778 209.02Z" fill="#323A50"/>
<path d="M107.133 210.787L75.4883 209.55C75.6061 209.668 75.6651 209.844 75.7829 209.962L107.428 211.2C107.369 211.082 107.251 211.023 107.133 210.787Z" fill="#323A50"/>
<path d="M108.488 212.555L76.8438 211.317C76.9616 211.435 77.0205 211.612 77.1384 211.73L108.665 212.967C108.724 212.85 108.606 212.732 108.488 212.555Z" fill="#323A50"/>
<path d="M109.903 214.382L78.376 213.145C78.4938 213.262 78.5528 213.439 78.6706 213.557L110.197 214.795C110.138 214.618 110.021 214.5 109.903 214.382Z" fill="#323A50"/>
<path d="M111.258 216.15L79.79 214.912C79.9079 215.03 79.9668 215.207 80.2025 215.325L111.67 216.562C111.494 216.444 111.376 216.268 111.258 216.15Z" fill="#323A50"/>
<path d="M112.731 217.917L81.499 216.68C81.6169 216.798 81.6758 216.974 81.9115 217.092L113.144 218.33C112.908 218.212 112.849 218.094 112.731 217.917Z" fill="#323A50"/>
<path d="M114.146 219.686L83.0312 218.448C83.1491 218.566 83.3259 218.743 83.4437 218.861L114.617 220.098C114.381 219.98 114.263 219.863 114.146 219.686Z" fill="#323A50"/>
<path d="M115.501 221.395L84.5635 220.157C84.6813 220.275 84.8581 220.452 84.976 220.57L115.913 221.807C115.678 221.748 115.619 221.513 115.501 221.395Z" fill="#323A50"/>
<path d="M116.856 223.044L86.0957 221.807C86.2136 221.924 86.3903 222.101 86.5082 222.219L117.21 223.457C117.151 223.398 116.974 223.162 116.856 223.044Z" fill="#323A50"/>
<path d="M118.388 224.813L87.8633 223.575C87.9811 223.693 88.1579 223.87 88.2758 223.988L118.683 225.225C118.624 225.107 118.506 224.989 118.388 224.813Z" fill="#323A50"/>
<path d="M119.803 226.58L89.6904 225.343C89.8083 225.461 89.9851 225.637 90.1029 225.755L120.333 226.993C120.039 226.875 119.921 226.757 119.803 226.58Z" fill="#323A50"/>
<path d="M121.394 228.407L91.458 227.17C91.5759 227.288 91.7527 227.465 91.8705 227.582L121.806 228.82C121.571 228.761 121.512 228.525 121.394 228.407Z" fill="#323A50"/>
<path d="M122.807 230.057L93.1074 228.819C93.2253 228.937 93.4021 229.114 93.5199 229.232L123.102 230.469C123.043 230.351 122.925 230.293 122.807 230.057Z" fill="#323A50"/>
<path d="M124.163 231.707L94.876 230.47C94.9938 230.588 95.1706 230.764 95.2885 230.882L124.576 232.12C124.458 232.061 124.281 231.943 124.163 231.707Z" fill="#323A50"/>
<path d="M125.695 233.592L96.7021 232.473C96.82 232.591 96.9968 232.767 97.1147 232.885L125.99 234.005C125.99 233.769 125.931 233.71 125.695 233.592Z" fill="#323A50"/>
<path d="M127.227 235.301L98.5879 234.182C98.7647 234.299 98.8825 234.476 99.1182 234.594L127.699 235.714C127.581 235.655 127.463 235.419 127.227 235.301Z" fill="#323A50"/>
<path d="M128.936 237.07L100.65 235.95C100.827 236.068 100.945 236.245 101.181 236.363L129.349 237.482C129.113 237.364 128.995 237.306 128.936 237.07Z" fill="#323A50"/>
<path d="M130.469 238.956L102.596 237.836C102.772 237.954 102.89 238.131 103.126 238.248L130.881 239.368C130.764 239.25 130.587 239.073 130.469 238.956Z" fill="#323A50"/>
<path d="M132 240.605L104.599 239.485C104.775 239.603 104.893 239.78 105.129 239.898L132.472 241.017C132.177 240.9 132.118 240.664 132 240.605Z" fill="#323A50"/>
<path d="M133.533 242.373L106.544 241.253C106.721 241.371 106.839 241.548 107.074 241.665L134.005 242.785C133.887 242.667 133.769 242.549 133.533 242.373Z" fill="#323A50"/>
<path d="M135.183 244.199L108.547 243.139C108.724 243.257 108.842 243.433 109.077 243.551L135.595 244.612C135.418 244.435 135.3 244.317 135.183 244.199Z" fill="#323A50"/>
<path d="M136.833 245.968L110.728 244.907C110.904 245.025 111.022 245.202 111.258 245.32L137.245 246.38C137.069 246.263 136.951 246.145 136.833 245.968Z" fill="#323A50"/>
<path d="M138.306 247.617L112.613 246.557C112.79 246.674 112.908 246.851 113.144 246.969L138.719 248.03C138.601 247.912 138.365 247.794 138.306 247.617Z" fill="#323A50"/>
<path d="M137.894 249.268L114.617 248.325C114.794 248.443 114.912 248.62 115.148 248.738L136.833 249.681C137.187 249.445 137.481 249.386 137.894 249.268Z" fill="#323A50"/>
<path d="M133.238 250.8L116.738 250.093C116.915 250.211 117.033 250.387 117.269 250.505L132.119 251.153C132.531 250.977 132.944 250.918 133.238 250.8Z" fill="#323A50"/>
<path d="M128.583 252.273L118.919 251.86C119.096 251.978 119.214 252.155 119.449 252.273L127.523 252.567C127.758 252.567 128.171 252.332 128.583 252.273Z" fill="#323A50"/>
<path d="M123.869 253.805L121.217 253.688C121.394 253.805 121.511 253.982 121.747 254.1H122.867C123.161 254.1 123.456 253.982 123.869 253.805Z" fill="#323A50"/>
<path d="M219.98 154.982C219.862 154.982 219.803 154.982 219.685 154.865C219.155 154.334 218.625 153.804 218.271 153.45C218.035 153.273 218.035 153.038 218.271 152.802C218.448 152.625 218.684 152.625 218.919 152.802C219.332 153.215 219.862 153.745 220.334 154.216C220.51 154.452 220.451 154.629 220.334 154.865C220.157 154.982 220.039 154.982 219.98 154.982ZM217.093 152.095C216.975 152.095 216.857 152.095 216.798 151.977C216.268 151.447 215.737 150.916 215.325 150.563C215.148 150.386 215.148 150.15 215.325 149.915C215.56 149.738 215.737 149.738 215.973 149.915C216.385 150.327 216.916 150.857 217.387 151.388C217.623 151.565 217.623 151.8 217.387 151.977C217.269 151.977 217.21 152.095 217.093 152.095ZM214.264 149.148C214.146 149.148 214.087 149.148 213.969 149.031C213.321 148.382 212.909 147.97 212.555 147.616C212.319 147.44 212.437 147.204 212.555 146.968C212.732 146.85 212.968 146.85 213.203 146.968C213.616 147.381 214.028 147.793 214.618 148.382C214.794 148.559 214.794 148.795 214.618 149.031C214.5 149.148 214.382 149.148 214.264 149.148ZM211.435 146.143C211.318 146.143 211.2 146.143 211.141 146.025C210.905 145.731 210.61 145.436 210.316 145.082C210.139 144.906 210.021 144.67 209.785 144.434C209.668 144.257 209.668 144.022 209.785 143.845C210.021 143.727 210.198 143.727 210.434 143.845C210.669 144.022 210.846 144.257 210.964 144.434C211.259 144.729 211.494 145.082 211.789 145.377C211.907 145.554 211.907 145.789 211.789 145.966C211.612 146.143 211.494 146.143 211.435 146.143ZM120.45 144.67C120.332 144.67 120.273 144.67 120.155 144.552C119.978 144.434 119.978 144.139 120.155 143.904L120.332 143.727C120.626 143.315 121.039 142.902 121.451 142.372C121.569 142.195 121.864 142.195 122.041 142.372C122.218 142.607 122.218 142.784 122.041 143.02C121.628 143.55 121.216 143.963 120.921 144.375L120.744 144.552C120.685 144.67 120.568 144.67 120.45 144.67ZM208.725 143.138C208.607 143.138 208.548 143.138 208.43 143.02C208.018 142.489 207.487 141.959 207.075 141.488C206.957 141.311 206.957 141.075 207.075 140.84C207.31 140.722 207.487 140.722 207.723 140.84C208.253 141.37 208.666 141.9 209.078 142.372C209.196 142.607 209.196 142.784 209.078 143.02C208.96 143.02 208.843 143.138 208.725 143.138ZM123.16 141.606C123.043 141.606 122.984 141.606 122.866 141.488C122.689 141.37 122.689 141.075 122.866 140.84C123.396 140.309 123.809 139.779 124.221 139.307C124.339 139.131 124.634 139.131 124.81 139.307C124.987 139.425 124.987 139.72 124.81 139.956C124.398 140.486 123.868 141.016 123.455 141.488C123.337 141.606 123.219 141.606 123.16 141.606ZM205.955 140.073C205.837 140.073 205.719 140.073 205.66 139.956C205.13 139.425 204.718 138.895 204.246 138.541C204.01 138.364 204.128 138.129 204.246 137.893C204.482 137.716 204.659 137.775 204.894 137.893C205.425 138.423 205.837 138.954 206.309 139.425C206.544 139.602 206.426 139.838 206.309 140.073C206.132 139.956 206.014 140.073 205.955 140.073ZM125.93 138.6C125.812 138.6 125.694 138.6 125.635 138.482C125.459 138.247 125.459 138.07 125.635 137.834C126.166 137.304 126.578 136.773 127.05 136.42C127.226 136.184 127.462 136.184 127.698 136.42C127.875 136.597 127.875 136.832 127.698 137.009C127.168 137.54 126.755 137.952 126.225 138.482C126.107 138.482 125.989 138.6 125.93 138.6ZM203.185 137.068C203.068 137.068 202.95 137.068 202.891 136.95C202.36 136.42 201.83 136.007 201.418 135.477C201.241 135.3 201.241 135.065 201.418 134.888C201.653 134.652 201.83 134.652 202.066 134.888C202.596 135.418 203.126 135.831 203.48 136.302C203.716 136.479 203.716 136.715 203.48 136.95C203.362 137.068 203.244 137.068 203.185 137.068ZM128.818 135.595C128.7 135.595 128.641 135.595 128.523 135.477C128.287 135.3 128.405 135.065 128.523 134.888C129.053 134.357 129.584 133.945 130.055 133.415C130.232 133.297 130.468 133.297 130.644 133.415C130.762 133.591 130.762 133.827 130.644 134.063C130.114 134.475 129.584 135.006 129.112 135.477C128.994 135.595 128.935 135.595 128.818 135.595ZM200.18 134.24C200.062 134.24 199.944 134.239 199.885 134.122C199.355 133.709 198.825 133.179 198.353 132.766C198.176 132.648 198.176 132.354 198.353 132.118C198.53 131.882 198.766 131.941 199.001 132.118C199.532 132.531 200.062 133.061 200.534 133.473C200.769 133.591 200.769 133.886 200.534 134.063C200.357 134.181 200.239 134.24 200.18 134.24ZM131.823 132.825C131.705 132.825 131.646 132.825 131.528 132.707C131.41 132.531 131.41 132.295 131.528 132.059C132.059 131.647 132.589 131.116 133.06 130.704C133.237 130.586 133.473 130.586 133.709 130.822C133.885 130.998 133.826 131.234 133.591 131.47C133.06 131.882 132.53 132.413 132.059 132.825C132 132.825 131.882 132.825 131.823 132.825ZM197.057 131.588C196.939 131.588 196.821 131.588 196.762 131.47C196.232 131.057 195.701 130.645 195.112 130.232C194.935 130.115 194.935 129.82 194.994 129.584C195.112 129.407 195.407 129.407 195.643 129.466C196.173 129.879 196.762 130.291 197.293 130.704C197.469 130.822 197.469 131.116 197.41 131.293C197.293 131.47 197.175 131.588 197.057 131.588ZM135.005 130.232C134.887 130.232 134.828 130.114 134.71 130.056C134.593 129.879 134.593 129.643 134.828 129.407C135.359 128.995 135.948 128.582 136.478 128.17C136.655 128.052 136.891 128.052 137.126 128.288C137.244 128.464 137.244 128.7 137.009 128.877C136.478 129.289 135.889 129.702 135.359 130.115C135.182 130.232 135.123 130.232 135.005 130.232ZM193.757 128.995C193.639 128.995 193.58 128.995 193.58 128.877C193.05 128.464 192.46 128.052 191.93 127.757C191.694 127.64 191.694 127.345 191.812 127.168C191.93 126.991 192.225 126.991 192.46 127.05C193.109 127.463 193.58 127.875 194.228 128.288C194.405 128.406 194.405 128.7 194.346 128.936C193.993 128.995 193.875 128.995 193.757 128.995ZM138.305 127.757C138.187 127.757 138.01 127.64 138.01 127.581C137.893 127.404 137.893 127.168 138.128 126.991C138.776 126.579 139.248 126.166 139.896 125.872C140.073 125.754 140.309 125.754 140.544 125.99C140.662 126.166 140.662 126.402 140.426 126.579C139.778 126.991 139.307 127.286 138.659 127.698C138.482 127.757 138.364 127.757 138.305 127.757ZM190.398 126.756C190.28 126.756 190.28 126.756 190.162 126.638C189.514 126.225 189.043 125.931 188.394 125.577C188.218 125.459 188.1 125.164 188.276 125.047C188.394 124.87 188.689 124.752 188.807 124.929C189.455 125.223 190.044 125.636 190.575 125.99C190.751 126.107 190.751 126.402 190.693 126.638C190.693 126.638 190.457 126.756 190.398 126.756ZM141.782 125.636C141.664 125.636 141.487 125.518 141.487 125.459C141.369 125.282 141.487 125.047 141.605 124.929C142.253 124.634 142.843 124.222 143.491 123.868C143.668 123.75 143.903 123.868 144.021 124.045C144.139 124.222 144.021 124.457 143.785 124.575C143.137 124.87 142.548 125.164 142.018 125.636C141.9 125.636 141.782 125.636 141.782 125.636ZM186.862 124.693C186.744 124.693 186.744 124.693 186.685 124.693C186.037 124.398 185.448 124.104 184.8 123.75C184.623 123.632 184.505 123.456 184.623 123.22C184.741 122.984 184.918 122.925 185.153 123.043C185.801 123.338 186.391 123.632 187.039 123.986C187.216 124.104 187.334 124.281 187.216 124.516C187.039 124.575 186.98 124.693 186.862 124.693ZM145.435 123.632C145.318 123.632 145.141 123.515 145.023 123.456C144.905 123.279 145.023 123.043 145.2 122.925C145.848 122.631 146.437 122.336 147.085 121.982C147.262 121.865 147.498 121.982 147.616 122.159C147.734 122.336 147.616 122.572 147.38 122.689C146.732 123.043 146.143 123.22 145.435 123.632ZM183.15 122.925C183.032 122.925 183.032 122.925 182.914 122.925C182.266 122.631 181.676 122.395 181.087 122.1C180.851 121.982 180.793 121.806 180.851 121.57C180.969 121.393 181.146 121.275 181.382 121.393C182.03 121.57 182.619 121.923 183.326 122.218C183.503 122.336 183.621 122.513 183.503 122.748C183.444 122.807 183.268 122.925 183.15 122.925ZM149.148 121.982C148.912 121.982 148.853 121.865 148.735 121.688C148.618 121.511 148.735 121.275 148.912 121.157C149.56 120.981 150.268 120.627 150.857 120.45C151.034 120.332 151.269 120.45 151.387 120.627C151.505 120.804 151.387 121.039 151.21 121.157C150.562 121.334 149.973 121.57 149.266 121.865C149.207 121.982 149.207 121.982 149.148 121.982ZM179.319 121.393C178.612 121.216 177.905 120.981 177.257 120.804C177.08 120.686 176.962 120.509 176.962 120.273C177.08 120.038 177.257 119.979 177.493 119.979C178.141 120.156 178.848 120.391 179.437 120.568C179.673 120.686 179.732 120.863 179.673 121.098C179.614 121.275 179.437 121.393 179.319 121.393ZM153.037 120.686C152.86 120.686 152.743 120.568 152.625 120.391C152.507 120.215 152.743 119.979 152.919 119.861C153.568 119.684 154.275 119.448 154.864 119.331C155.041 119.213 155.276 119.448 155.394 119.625C155.394 119.802 155.276 120.038 155.1 120.156C154.51 120.332 153.744 120.45 153.037 120.686ZM175.312 120.273C174.605 120.038 173.898 119.979 173.25 119.743C173.073 119.743 172.837 119.448 172.955 119.213C172.955 118.977 173.25 118.8 173.485 118.918C174.193 119.036 174.841 119.213 175.548 119.331C175.725 119.448 175.843 119.625 175.843 119.861C175.843 120.097 175.489 120.273 175.312 120.273ZM157.044 119.743C156.868 119.743 156.632 119.625 156.632 119.448C156.632 119.272 156.75 119.036 156.926 118.918C157.634 118.8 158.282 118.741 158.989 118.623C159.166 118.623 159.401 118.741 159.519 118.918C159.519 119.095 159.401 119.331 159.225 119.448C158.4 119.448 157.81 119.507 157.044 119.743ZM171.305 119.448C170.598 119.331 169.891 119.272 169.243 119.154C169.007 119.154 168.83 118.977 168.83 118.741C168.83 118.506 169.007 118.329 169.243 118.329C169.95 118.447 170.598 118.506 171.305 118.623C171.482 118.623 171.718 118.8 171.6 119.154C171.718 119.331 171.482 119.448 171.305 119.448ZM161.051 119.095C160.875 119.095 160.639 118.918 160.639 118.682C160.639 118.447 160.757 118.27 161.051 118.27C161.759 118.152 162.407 118.152 163.114 118.152C163.291 118.152 163.526 118.329 163.526 118.564C163.526 118.8 163.291 118.977 163.114 118.977C162.525 118.977 161.818 118.977 161.051 119.095ZM167.239 118.977C166.532 118.977 165.884 118.859 165.176 118.859C165 118.859 164.764 118.682 164.764 118.447C164.764 118.27 164.941 118.034 165.176 118.034C165.884 118.034 166.532 118.034 167.239 118.152C167.416 118.152 167.651 118.329 167.651 118.564C167.71 118.8 167.475 118.977 167.239 118.977Z" fill="#323A50"/>
<g opacity="0.79">
<path d="M165.118 140.957C155.807 140.957 147.204 140.25 140.545 138.777C135.771 137.716 130.114 136.007 130.114 133.237C130.114 130.468 135.771 128.7 140.545 127.698C147.145 126.343 155.807 125.518 165.118 125.518C174.429 125.518 183.032 126.225 189.632 127.698C194.405 128.759 200.062 130.468 200.062 133.237C200.062 136.007 194.405 137.775 189.632 138.777C183.032 140.25 174.311 140.957 165.118 140.957ZM165.118 126.46C144.67 126.46 130.998 129.937 130.998 133.355C130.998 136.655 144.729 140.25 165.118 140.25C185.507 140.25 199.237 136.773 199.237 133.355C199.12 129.937 185.448 126.46 165.118 126.46Z" fill="#4653F2"/>
</g>
<path d="M200.298 15.2031H129.643V215.03H200.298V15.2031Z" fill="url(#paint14_linear_3614_10446)"/>
</g>
<defs>
<linearGradient id="paint0_linear_3614_10446" x1="106.32" y1="103.495" x2="220.996" y2="103.495" gradientUnits="userSpaceOnUse">
<stop stop-color="#C5FFFF" stop-opacity="0.1"/>
<stop offset="0.5193" stop-color="#241FFF"/>
<stop offset="1" stop-color="#C5FFFF" stop-opacity="0.1"/>
</linearGradient>
<linearGradient id="paint1_linear_3614_10446" x1="271.289" y1="225.357" x2="68.3219" y2="76.9054" gradientUnits="userSpaceOnUse">
<stop offset="0.2655" stop-color="#032A3D" stop-opacity="0"/>
<stop offset="0.7809" stop-color="#032A3D"/>
</linearGradient>
<radialGradient id="paint2_radial_3614_10446" cx="0" cy="0" r="1" gradientUnits="userSpaceOnUse" gradientTransform="translate(165.207 218.212) scale(68.6847 68.3681)">
<stop offset="0.2655" stop-color="#032A3D" stop-opacity="0"/>
<stop offset="1" stop-color="#032A3D"/>
</radialGradient>
<linearGradient id="paint3_linear_3614_10446" x1="138.221" y1="109.828" x2="188.652" y2="307.797" gradientUnits="userSpaceOnUse">
<stop offset="0.4054" stop-color="#032A3D" stop-opacity="0"/>
<stop offset="1" stop-color="#032A3D"/>
</linearGradient>
<linearGradient id="paint4_linear_3614_10446" x1="101.876" y1="177.507" x2="234.525" y2="301.942" gradientUnits="userSpaceOnUse">
<stop offset="0.2655" stop-color="#032A3D" stop-opacity="0"/>
<stop offset="0.7809" stop-color="#032A3D"/>
</linearGradient>
<linearGradient id="paint5_linear_3614_10446" x1="109.183" y1="169.718" x2="241.832" y2="294.153" gradientUnits="userSpaceOnUse">
<stop offset="0.2655" stop-color="#032A3D" stop-opacity="0"/>
<stop offset="0.7809" stop-color="#032A3D"/>
</linearGradient>
<linearGradient id="paint6_linear_3614_10446" x1="106.469" y1="172.613" x2="239.118" y2="297.048" gradientUnits="userSpaceOnUse">
<stop offset="0.2655" stop-color="#032A3D" stop-opacity="0"/>
<stop offset="0.7809" stop-color="#032A3D"/>
</linearGradient>
<linearGradient id="paint7_linear_3614_10446" x1="81.3329" y1="199.406" x2="213.982" y2="323.841" gradientUnits="userSpaceOnUse">
<stop offset="0.2655" stop-color="#032A3D" stop-opacity="0"/>
<stop offset="0.7809" stop-color="#032A3D"/>
</linearGradient>
<linearGradient id="paint8_linear_3614_10446" x1="100.256" y1="179.235" x2="232.905" y2="303.671" gradientUnits="userSpaceOnUse">
<stop offset="0.2655" stop-color="#032A3D" stop-opacity="0"/>
<stop offset="0.7809" stop-color="#032A3D"/>
</linearGradient>
<linearGradient id="paint9_linear_3614_10446" x1="89.7607" y1="190.423" x2="222.409" y2="314.859" gradientUnits="userSpaceOnUse">
<stop offset="0.2655" stop-color="#032A3D" stop-opacity="0"/>
<stop offset="0.7809" stop-color="#032A3D"/>
</linearGradient>
<linearGradient id="paint10_linear_3614_10446" x1="71.2215" y1="210.186" x2="203.87" y2="334.62" gradientUnits="userSpaceOnUse">
<stop offset="0.2655" stop-color="#032A3D" stop-opacity="0"/>
<stop offset="0.7809" stop-color="#032A3D"/>
</linearGradient>
<linearGradient id="paint11_linear_3614_10446" x1="74.2142" y1="206.996" x2="206.863" y2="331.431" gradientUnits="userSpaceOnUse">
<stop offset="0.2655" stop-color="#032A3D" stop-opacity="0"/>
<stop offset="0.7809" stop-color="#032A3D"/>
</linearGradient>
<linearGradient id="paint12_linear_3614_10446" x1="84.6091" y1="195.914" x2="217.258" y2="320.35" gradientUnits="userSpaceOnUse">
<stop offset="0.2655" stop-color="#032A3D" stop-opacity="0"/>
<stop offset="0.7809" stop-color="#032A3D"/>
</linearGradient>
<linearGradient id="paint13_linear_3614_10446" x1="71.0485" y1="210.37" x2="203.697" y2="334.806" gradientUnits="userSpaceOnUse">
<stop offset="0.2655" stop-color="#032A3D" stop-opacity="0"/>
<stop offset="0.7809" stop-color="#032A3D"/>
</linearGradient>
<linearGradient id="paint14_linear_3614_10446" x1="169.74" y1="406.222" x2="163.386" y2="20.1749" gradientUnits="userSpaceOnUse">
<stop offset="0.6969" stop-color="#DBDBDB" stop-opacity="0"/>
<stop offset="0.946" stop-color="white"/>
</linearGradient>
<clipPath id="clip0_3614_10446">
<rect width="330" height="330" fill="white"/>
</clipPath>
</defs>
</svg>
