<svg width="330" height="330" viewBox="0 0 330 330" fill="none" xmlns="http://www.w3.org/2000/svg">
<path d="M216.916 146.732C210.611 140.191 210.552 140.309 207.664 137.068C202.361 131.057 186.568 111.257 162.643 111.021H162.407C138.482 111.198 122.63 131.057 117.386 137.068C114.439 140.427 114.439 140.309 107.486 147.557C90.6322 162.643 80.025 184.564 80.025 208.961C80.025 244.436 102.359 274.666 133.768 286.334C133.768 286.393 134.121 286.511 134.121 286.57C136.125 287.395 142.843 289.634 148.677 290.4C152.979 291.107 158.046 291.461 162.584 291.461C208.195 291.461 245.143 254.513 245.143 208.902C245.143 184.093 234.241 161.877 216.916 146.732Z" fill="#DBDBDB"/>
<path d="M162.584 291.873C157.87 291.873 152.802 291.461 148.618 290.813C142.725 290.047 136.066 287.807 133.945 286.923L133.709 286.805V286.747C133.65 286.747 133.591 286.688 133.532 286.629C117.857 280.795 104.48 270.423 94.7571 256.752C84.7982 242.786 79.5536 226.227 79.5536 208.961C79.5536 196.998 82.0286 185.389 86.9786 174.605C91.7518 164.175 98.5286 154.982 107.132 147.263C108.193 146.202 109.077 145.259 109.843 144.493C114.145 140.073 114.498 139.661 117.032 136.832C117.327 136.479 117.621 136.125 118.034 135.713C120.98 132.354 126.461 125.989 133.945 120.627C143.079 114.086 152.625 110.727 162.407 110.668H162.643C172.425 110.727 181.971 114.145 191.105 120.627C198.589 125.989 204.07 132.295 207.016 135.713C207.37 136.125 207.664 136.479 208.018 136.832C209.904 138.954 210.611 139.661 212.614 141.723C213.675 142.784 215.089 144.257 217.211 146.438C226.05 154.157 233.004 163.409 237.895 174.016C242.963 184.977 245.555 196.704 245.555 208.902C245.555 220.098 243.375 231 239.014 241.195C234.83 251.095 228.879 259.934 221.218 267.595C213.616 275.197 204.718 281.207 194.818 285.391C184.623 289.693 173.78 291.873 162.584 291.873ZM134.357 286.216C136.243 286.982 142.902 289.222 148.736 289.988C152.861 290.636 157.929 291.048 162.584 291.048C207.9 291.048 244.73 254.159 244.73 208.902C244.73 185.213 234.477 162.643 216.621 147.027C214.5 144.788 213.027 143.373 212.025 142.313C209.962 140.25 209.314 139.484 207.37 137.363C207.075 137.009 206.78 136.655 206.368 136.243C200.534 129.525 185.036 111.67 162.584 111.434H162.348C139.896 111.611 124.398 129.466 118.564 136.184C118.211 136.597 117.916 136.95 117.563 137.304C115.029 140.191 114.675 140.545 110.373 144.964C109.607 145.73 108.723 146.673 107.663 147.793C90.3375 163.35 80.3786 185.625 80.3786 208.902C80.3786 243.022 101.888 273.959 133.886 285.922L134.121 285.98V286.039C134.18 286.098 134.298 286.157 134.357 286.216Z" fill="#323A50"/>
<path d="M162.584 292.286C151.388 292.286 140.486 290.106 130.232 285.745C120.332 281.561 111.434 275.55 103.773 267.889C96.1125 260.229 90.1607 251.331 85.9179 241.431C81.5571 231.177 79.3768 220.275 79.3768 209.079C79.3768 197.057 81.9107 185.448 86.8607 174.606C91.6339 164.116 98.4107 154.923 107.014 147.204C113.614 140.368 113.909 140.073 116.443 137.186L116.855 136.714C117.15 136.361 117.504 135.948 117.916 135.536C121.098 131.882 126.402 125.754 133.886 120.332C143.02 113.732 152.566 110.373 162.407 110.314H162.643C172.425 110.373 182.03 113.791 191.164 120.332C198.648 125.695 203.952 131.823 207.134 135.536C207.546 136.007 207.841 136.361 208.195 136.714C211.082 139.956 211.082 140.014 217.388 146.497C226.227 154.216 233.18 163.527 238.13 174.134C243.198 185.154 245.791 196.881 245.791 209.079C245.791 220.275 243.611 231.177 239.25 241.431C235.066 251.331 229.055 260.229 221.395 267.889C213.734 275.55 204.836 281.502 194.936 285.745C184.682 290.047 173.78 292.286 162.584 292.286ZM162.643 111.493H162.407C140.191 111.67 124.693 129.525 118.859 136.302C118.446 136.773 118.152 137.127 117.798 137.481L117.386 137.952C114.852 140.839 114.498 141.193 107.898 148.029H107.839C90.5732 163.586 80.6143 185.802 80.6143 209.079C80.6143 254.277 117.386 291.048 162.584 291.048C207.782 291.048 244.554 254.277 244.554 209.079C244.554 185.448 234.359 162.938 216.563 147.381L216.504 147.322C210.198 140.781 210.139 140.722 207.252 137.481C206.957 137.127 206.604 136.714 206.191 136.302C200.357 129.584 184.859 111.67 162.643 111.493Z" fill="#323A50"/>
<path opacity="0.31" d="M206.486 147.321C208.489 145.2 209.138 143.078 206.073 139.661C200.946 133.886 185.684 114.498 162.525 114.321H162.289C139.13 114.498 123.868 133.886 118.741 139.661C115.736 143.137 117.327 145.612 117.975 147.086C119.92 150.798 122.807 151.446 123.573 150.975C128.995 147.675 131.705 139.012 137.834 137.009C138.011 136.95 146.909 132.766 161.7 132.648C161.759 132.648 171.777 132.589 181.264 135.536C190.045 137.893 195.525 147.262 201.005 150.562C202.773 151.564 204.836 148.971 206.486 147.321Z" fill="url(#paint0_linear_3569_14922)"/>
<path d="M162.289 284.449C120.391 284.449 86.3893 250.506 86.3893 208.549C86.3893 183.858 98.175 161.995 116.384 148.088" fill="#DBDBDB"/>
<path d="M162.23 284.861C151.859 284.861 141.959 282.857 132.53 278.85C123.455 275.02 115.323 269.539 108.311 262.527C101.298 255.514 95.8178 247.382 91.9875 238.307C88.0393 228.879 85.9768 218.92 85.9768 208.607C85.9768 196.468 88.7464 184.918 94.1678 174.134C99.3536 163.88 106.955 154.805 116.148 147.793L116.62 148.441C97.6447 162.82 86.8018 184.741 86.8018 208.548C86.8018 250.152 120.686 284.036 162.23 284.036V284.861Z" fill="#323A50"/>
<path d="M162.289 278.202C200.725 278.202 231.884 247.043 231.884 208.607C231.884 170.171 200.725 139.013 162.289 139.013C123.853 139.013 92.6947 170.171 92.6947 208.607C92.6947 247.043 123.853 278.202 162.289 278.202Z" fill="#DBDBDB"/>
<path d="M162.289 278.496C143.609 278.496 126.048 271.248 112.848 258.048C99.6482 244.848 92.4 227.287 92.4 208.607C92.4 189.927 99.6482 172.366 112.848 159.166C126.048 145.966 143.609 138.718 162.289 138.718C180.97 138.718 198.53 145.966 211.73 159.166C224.93 172.366 232.179 189.927 232.179 208.607C232.179 227.287 224.93 244.848 211.73 258.048C198.53 271.248 180.97 278.496 162.289 278.496ZM162.289 139.307C124.104 139.307 92.9893 170.362 92.9893 208.607C92.9893 246.852 124.045 277.907 162.289 277.907C200.534 277.907 231.589 246.793 231.589 208.607C231.589 170.421 200.475 139.307 162.289 139.307Z" fill="#323A50"/>
<g opacity="0.1">
<path d="M222.809 236.363L222.338 236.304C222.043 238.661 215.148 241.843 213.675 242.079C213.086 242.197 212.732 242.02 212.379 241.902C211.848 241.725 211.377 241.489 210.434 242.02C208.902 242.963 203.598 248.738 202.42 251.566C201.241 254.454 200.534 255.927 197.823 257.047C196.409 257.636 194.17 257.636 191.813 257.636C189.691 257.636 187.452 257.636 185.684 258.107C183.091 258.814 180.616 259.993 179.438 260.582C180.086 259.875 180.675 259.168 181.264 258.461C182.325 257.223 183.268 256.104 183.857 255.691C184.623 255.102 187.393 254.866 190.339 254.513C194.288 254.1 198.766 253.629 200.18 252.273C201.771 250.8 203.952 245.202 205.779 240.664C206.721 238.248 207.546 236.186 208.077 235.361C208.607 234.477 210.08 233.475 211.671 232.414C214.323 230.647 217.388 228.584 217.329 226.168H216.857C216.916 228.348 213.97 230.293 211.377 232.002C209.668 233.122 208.195 234.123 207.605 235.066C207.075 235.95 206.25 238.013 205.307 240.429C203.539 244.907 201.3 250.447 199.827 251.861C199.296 252.332 198.236 252.745 196.939 253.039C197.764 252.568 198.825 251.861 199.532 250.918C200.829 249.268 201.948 245.379 202.479 243.316C202.596 242.963 202.655 242.668 202.714 242.432C202.891 241.784 202.655 241.372 202.42 240.959C202.125 240.488 201.83 240.016 202.007 238.838C202.243 237.541 202.95 237.011 203.775 236.48C204.305 236.068 204.836 235.714 205.248 235.066C206.25 233.475 205.602 231.884 205.307 231V230.941C205.071 230.352 204.541 230.411 204.129 230.411C203.716 230.47 203.48 230.47 203.363 230.234C203.245 229.998 203.539 229.527 203.893 229.055C204.364 228.348 204.954 227.582 204.6 226.816L204.188 226.993C204.423 227.523 203.952 228.172 203.539 228.761C203.068 229.409 202.714 229.998 203.009 230.47C203.304 231 203.834 230.941 204.246 230.882C204.659 230.823 204.836 230.823 204.954 231.059V231.118C205.307 231.943 205.779 233.416 204.954 234.772C204.6 235.302 204.129 235.655 203.598 236.068C202.773 236.657 201.948 237.247 201.654 238.72C201.418 240.075 201.771 240.664 202.125 241.136C202.361 241.489 202.479 241.725 202.361 242.197C202.302 242.373 202.243 242.727 202.125 243.08C201.595 244.966 200.475 248.973 199.238 250.505C197.823 252.273 195.407 253.157 195.171 253.275C193.639 253.511 191.93 253.688 190.28 253.864C187.157 254.218 184.505 254.513 183.563 255.102C182.914 255.573 181.971 256.693 180.911 257.989C178.789 260.464 175.902 263.882 173.898 263.764C172.838 263.705 171.718 263.47 170.539 263.234C168.123 262.763 165.413 262.173 162.525 262.704C156.455 263.823 154.452 265.002 153.273 266.416C152.095 267.772 151.505 269.539 151.505 269.598L151.918 269.775C151.918 269.775 152.507 268.007 153.627 266.711C154.746 265.355 156.75 264.236 162.643 263.116C165.471 262.586 168.123 263.116 170.48 263.647C171.718 263.882 172.838 264.118 173.898 264.236C175.371 264.354 177.139 262.88 178.907 261.054L178.966 261.23C179.025 261.23 182.325 259.345 185.802 258.402C187.511 257.93 189.691 257.93 191.813 257.93C194.229 257.93 196.468 257.93 198 257.341C200.888 256.222 201.654 254.513 202.832 251.625C203.952 248.914 209.196 243.139 210.67 242.255C211.377 241.784 211.73 241.961 212.202 242.138C212.614 242.314 213.027 242.491 213.793 242.373C215.384 242.314 222.455 239.014 222.809 236.363Z" fill="#323A50"/>
<path d="M167.18 247.324C166.414 248.149 166.532 249.563 166.65 251.154C166.768 252.686 166.945 254.395 166.237 255.81C164.882 258.579 158.871 260.76 158.812 260.76L158.93 261.231C159.166 261.172 165.177 258.992 166.65 256.045C167.357 254.513 167.239 252.745 167.121 251.154C167.004 249.681 166.886 248.385 167.534 247.736C168.241 247.029 170.775 246.44 173.014 245.969C175.607 245.379 177.788 244.849 178.377 244.142C178.907 243.435 179.025 242.786 179.084 242.197C179.202 241.549 179.261 241.078 179.85 240.665C180.145 240.488 181.677 240.547 183.327 240.665C187.864 240.901 194.7 241.313 197.116 237.954C199.061 235.244 198.413 233.299 197.823 231.531C197.352 230.117 196.939 228.938 197.823 227.465C198.471 226.286 199.709 225.933 201.064 225.461C203.716 224.636 206.957 223.576 209.079 216.799C209.55 215.208 209.314 213.558 209.079 211.967C208.725 209.904 208.43 207.901 209.668 206.015L209.255 205.779C207.9 207.783 208.254 209.963 208.548 212.026C208.784 213.617 209.02 215.149 208.548 216.622C206.545 223.163 203.362 224.165 200.829 224.99C199.355 225.461 198.118 225.874 197.352 227.17C196.409 228.82 196.88 230.235 197.352 231.649C197.941 233.358 198.53 235.126 196.704 237.66C194.405 240.842 187.452 240.429 183.268 240.194C181.677 240.135 180.675 240.076 180.086 240.135C180.321 239.486 180.498 238.544 180.675 237.542C180.97 235.774 181.323 233.77 182.384 232.651C182.914 232.12 183.621 231.885 184.623 231.59C186.921 230.942 190.104 229.999 192.638 223.517V223.458C193.109 221.219 192.579 219.628 192.048 218.685C191.813 218.272 191.341 218.036 190.87 217.86C190.339 217.624 189.75 217.329 189.279 216.622C188.454 215.385 188.1 208.49 188.395 207.194C188.395 207.076 188.454 207.017 188.454 207.017C188.512 206.958 188.807 207.076 189.043 207.135C189.75 207.37 190.987 207.842 192.461 206.781L192.225 206.369C190.929 207.311 189.927 206.958 189.22 206.663C188.807 206.545 188.513 206.428 188.277 206.545C188.159 206.604 188.041 206.781 187.982 207.017C187.746 208.313 187.982 215.385 188.925 216.799C189.455 217.565 190.162 217.919 190.693 218.154C191.105 218.331 191.459 218.508 191.636 218.802C192.107 219.627 192.637 221.101 192.166 223.222C189.75 229.469 186.686 230.411 184.505 231.06C183.504 231.354 182.679 231.59 182.089 232.238C180.97 233.476 180.616 235.538 180.263 237.365C180.086 238.602 179.85 239.722 179.496 240.253C178.848 240.724 178.73 241.372 178.612 242.02C178.495 242.61 178.436 243.14 177.964 243.788C177.493 244.436 175.018 244.967 172.896 245.438C170.363 245.969 167.946 246.499 167.18 247.324Z" fill="#323A50"/>
<path d="M167.888 200.77C168.477 201.418 168.948 201.89 168.654 203.304C168.477 204.247 167.946 205.602 167.357 207.016C166.355 209.55 165.354 212.202 165.825 213.381C166.061 213.97 166.414 214.382 166.768 214.795C167.475 215.62 168.241 216.563 167.888 219.156C167.534 221.277 166.473 222.927 165.53 224.223C164.764 225.402 164.057 226.404 164.175 227.347C164.234 228.113 164.646 228.643 165.059 229.115C165.766 229.998 166.532 230.941 165.53 233.298C164.764 235.125 163.704 235.597 162.879 235.95C161.995 236.363 161.17 236.716 161.464 238.425C161.759 240.252 162.938 241.49 164.057 242.609C164.882 243.434 165.707 244.318 166.296 245.438L166.709 245.261C166.12 244.082 165.295 243.198 164.411 242.315C163.291 241.195 162.23 240.075 161.936 238.425C161.7 237.07 162.171 236.834 163.114 236.422C163.998 236.009 165.177 235.538 166.061 233.534C167.18 230.941 166.296 229.822 165.471 228.879C165.059 228.348 164.705 227.936 164.646 227.347C164.588 226.581 165.177 225.638 165.943 224.518C166.886 223.163 168.005 221.454 168.359 219.215C168.83 216.327 167.946 215.325 167.18 214.441C166.827 214.029 166.532 213.675 166.355 213.145C165.943 212.084 167.004 209.432 167.888 207.075C168.477 205.661 169.007 204.247 169.184 203.245C169.538 201.595 168.948 200.947 168.3 200.298C167.888 199.827 167.416 199.415 167.239 198.472L166.768 198.59C166.886 199.768 167.416 200.298 167.888 200.77Z" fill="#323A50"/>
<path d="M170.245 264.471C168.654 263.705 164.647 263.352 162.23 263.823C159.873 264.236 155.689 265.179 154.098 266.946C153.214 267.948 152.33 269.893 152.33 269.952L152.743 270.129C152.743 270.129 153.568 268.184 154.452 267.241C156.043 265.532 160.463 264.589 162.348 264.295C164.941 263.823 168.713 264.295 170.127 264.943C171.6 265.65 172.13 266.711 172.189 267.241C172.366 268.891 169.655 270.364 169.655 270.364L169.832 270.777C169.95 270.718 172.897 269.127 172.602 267.182C172.425 266.357 171.777 265.179 170.245 264.471Z" fill="#323A50"/>
<path d="M171.423 235.95C172.248 236.304 173.073 236.598 173.604 237.365C174.252 238.248 175.548 240.547 173.78 242.55C173.073 243.375 171.305 244.023 169.596 244.613C167.888 245.202 166.355 245.791 165.825 246.557C165.295 247.382 165.354 248.797 165.471 250.447C165.589 251.92 165.648 253.452 165.354 254.631C164.646 257.047 158.577 259.934 158.518 259.993L158.695 260.406C158.93 260.288 165 257.4 165.766 254.748C166.12 253.452 166.002 251.861 165.884 250.388C165.766 248.915 165.707 247.5 166.12 246.793C166.532 246.145 168.123 245.556 169.655 245.025C171.423 244.377 173.25 243.729 174.016 242.786C175.371 241.195 175.313 239.073 173.839 237.011C173.25 236.186 172.307 235.773 171.482 235.42C170.657 235.066 169.832 234.772 169.538 234.006C168.83 232.473 169.361 230.765 170.304 230.175C170.539 229.998 170.834 229.881 171.07 229.704C171.895 229.173 172.779 228.702 173.839 227.523C175.254 225.991 177.905 219.745 178.377 216.798C178.671 215.031 178.2 214.265 177.67 213.44C177.257 212.791 176.845 212.143 176.727 210.847L176.255 210.906C176.373 212.261 176.845 213.027 177.257 213.675C177.729 214.441 178.141 215.148 177.905 216.74C177.434 219.686 174.9 225.756 173.486 227.229C172.484 228.348 171.6 228.82 170.834 229.291C170.598 229.468 170.304 229.586 170.068 229.763C168.948 230.47 168.3 232.473 169.125 234.182C169.596 235.243 170.539 235.597 171.423 235.95Z" fill="#323A50"/>
</g>
<g opacity="0.1">
<path d="M151.387 262.645C151.211 261.408 149.796 260.406 148.382 259.463C147.262 258.697 145.554 257.754 144.08 256.929C142.784 256.222 141.605 255.574 141.193 255.22C141.075 255.161 140.957 254.984 140.839 254.808C140.132 253.688 139.602 250.977 139.72 248.797C139.778 247.559 139.661 246.616 139.602 245.85C139.484 245.025 139.425 244.436 139.661 243.906C139.837 243.493 140.132 243.434 140.603 243.375C141.075 243.316 141.723 243.199 141.959 242.433C142.195 241.784 142.077 241.077 142.018 240.37C141.959 239.663 141.841 239.074 142.136 238.602C142.43 238.19 142.725 238.072 143.137 237.954C143.55 237.777 144.021 237.6 144.434 237.011C144.787 236.481 144.316 235.774 143.727 234.949C142.843 233.711 141.664 231.943 142.136 229.822C142.666 227.524 143.373 227.583 144.375 227.759C144.846 227.818 145.436 227.936 145.966 227.7C146.909 227.347 147.793 225.284 148.677 223.163C149.384 221.513 150.091 219.804 150.68 219.333C151.387 218.802 151.977 218.684 152.566 218.566C153.155 218.449 153.686 218.39 154.098 217.8C154.629 217.152 154.334 216.268 154.098 215.502C153.98 215.031 153.804 214.559 153.921 214.324L153.509 214.088C153.332 214.5 153.45 214.972 153.627 215.62C153.804 216.268 154.039 217.034 153.686 217.506C153.332 217.918 152.978 217.977 152.389 218.095C151.8 218.213 151.093 218.331 150.327 218.92C149.62 219.45 148.912 221.159 148.146 222.986C147.38 224.872 146.496 226.993 145.73 227.288C145.259 227.465 144.787 227.406 144.316 227.347C143.255 227.229 142.195 227.052 141.546 229.763C141.016 232.12 142.254 233.947 143.196 235.243C143.668 235.95 144.08 236.54 143.904 236.834C143.609 237.306 143.255 237.424 142.843 237.6C142.43 237.718 142.018 237.895 141.664 238.425C141.252 239.015 141.37 239.781 141.487 240.488C141.605 241.136 141.664 241.784 141.487 242.315C141.311 242.845 140.898 242.904 140.427 242.963C139.955 243.022 139.425 243.081 139.13 243.788C138.895 244.436 138.954 245.084 139.071 245.968C139.189 246.734 139.248 247.618 139.189 248.856C139.071 250.211 139.248 251.861 139.602 253.216C138.6 251.566 137.304 249.033 137.127 246.558C136.95 244.495 137.362 243.729 137.893 242.668C138.423 241.608 139.071 240.311 139.602 237.424C140.309 233.24 138.482 229.409 137.304 227.406C137.421 226.993 138.246 224.224 140.427 223.458L141.546 223.045C143.609 222.338 145.436 221.69 146.379 221.159C147.616 220.511 148.618 218.39 148.795 217.093C148.912 216.327 148.559 215.856 148.205 215.443C147.911 215.031 147.616 214.677 147.616 214.088C147.675 213.558 148.441 213.027 149.325 212.438C150.562 211.613 152.154 210.552 152.802 208.784C153.568 206.722 152.802 205.779 152.154 204.954C151.8 204.541 151.505 204.188 151.387 203.658L150.975 203.775C151.093 204.365 151.505 204.836 151.8 205.249C152.448 206.074 153.037 206.84 152.389 208.666C151.8 210.258 150.327 211.259 149.089 212.084C148.029 212.791 147.262 213.322 147.204 214.029C147.145 214.854 147.557 215.325 147.852 215.738C148.205 216.15 148.441 216.445 148.323 217.034C148.087 218.39 147.086 220.275 146.143 220.747C145.2 221.218 143.314 221.866 141.37 222.574L140.25 222.986C138.246 223.693 137.304 225.933 137.009 226.875C136.596 226.286 136.361 225.933 136.302 225.874C136.243 225.815 132.059 221.984 130.232 219.097C128.346 216.15 128.405 213.734 129.407 212.909C129.937 212.438 130.998 212.379 132.295 212.32C133.473 212.261 134.77 212.202 135.889 211.79C137.657 211.141 138.895 208.608 139.248 207.841C139.779 206.722 140.25 205.249 139.955 204.541C139.484 203.245 137.539 202.833 137.421 202.774L137.362 203.245C137.362 203.245 139.189 203.658 139.543 204.659C139.661 205.072 139.484 206.191 138.836 207.665C138.187 209.138 137.009 210.906 135.712 211.377C134.593 211.79 133.355 211.849 132.236 211.908C130.939 211.966 129.761 212.025 129.112 212.556C127.993 213.499 127.757 216.091 129.879 219.333C131.705 222.22 135.771 225.933 136.007 226.168C136.243 226.463 140.191 231.59 139.189 237.306C138.718 240.134 138.07 241.431 137.539 242.433C137.421 242.668 137.304 242.904 137.186 243.14C136.655 241.725 136.714 240.9 136.773 240.252C136.832 239.309 136.773 238.779 135.477 237.954C133.768 236.893 130.468 236.716 128.287 236.599C127.404 236.54 126.637 236.481 126.343 236.422C124.987 236.068 124.28 235.479 123.927 234.3C123.632 233.299 123.868 233.004 124.339 232.474C124.457 232.356 124.575 232.179 124.752 232.002C124.929 231.766 125.282 231.531 125.636 231.354C126.461 230.883 127.58 230.234 127.462 228.584C127.404 227.17 126.461 226.699 125.518 226.168C124.87 225.815 124.221 225.52 123.75 224.813C122.512 223.163 121.039 218.39 120.804 215.797C120.509 212.909 121.039 207.488 121.511 207.134C121.687 207.075 122.454 207.429 123.043 207.724C124.162 208.254 125.518 208.902 126.52 208.666C126.696 208.608 126.814 208.608 126.991 208.549C128.229 208.254 128.346 208.136 128.287 206.899C128.229 206.015 127.58 205.897 127.05 205.838C126.637 205.779 126.343 205.72 126.107 205.425C125.636 204.836 125.812 202.597 125.871 201.772L125.4 201.713C125.341 202.066 125.046 204.836 125.695 205.661C126.048 206.074 126.52 206.133 126.932 206.191C127.521 206.309 127.757 206.368 127.816 206.84C127.875 207.311 127.875 207.547 127.757 207.665C127.639 207.783 127.345 207.841 126.873 207.959C126.755 208.018 126.579 208.018 126.402 208.077C125.577 208.254 124.28 207.665 123.22 207.193C122.218 206.722 121.687 206.486 121.334 206.604C120.391 206.958 120.096 213.499 120.273 215.738C120.509 218.449 121.982 223.222 123.337 224.99C123.868 225.697 124.634 226.109 125.223 226.463C126.107 226.934 126.873 227.288 126.932 228.466C126.991 229.822 126.166 230.293 125.282 230.824C124.87 231.059 124.516 231.295 124.28 231.59C124.162 231.766 124.045 231.943 123.927 232.061C123.455 232.591 123.102 233.063 123.455 234.3C123.868 235.656 124.693 236.422 126.225 236.775C126.52 236.834 126.932 236.893 127.521 236.893C127.168 237.129 126.814 237.129 126.402 237.129C125.989 237.129 125.518 237.07 125.046 237.424C124.28 237.954 124.752 238.838 125.105 239.486C125.223 239.781 125.4 240.075 125.4 240.252C125.4 240.37 125.341 240.488 125.223 240.606C124.987 240.783 124.516 240.841 123.868 240.783C123.161 240.665 122.159 239.604 121.57 238.956C121.334 238.72 121.157 238.484 121.039 238.425C120.804 238.249 120.45 238.249 120.155 238.308C119.802 238.366 119.389 238.366 119.036 238.131C118.859 238.013 118.682 237.777 118.682 237.483C118.623 236.952 118.859 236.363 119.036 236.186C119.095 236.127 119.271 236.127 119.507 236.127C119.802 236.127 120.155 236.127 120.45 235.891C120.921 235.479 121.098 234.831 121.039 233.829C120.98 233.24 120.509 233.24 120.096 233.24C119.625 233.24 119.095 233.181 118.859 232.533C118.682 232.061 118.918 231.59 119.271 231C119.802 230.116 120.45 228.997 119.507 227.347C118.446 225.402 117.268 225.579 116.443 225.756C116.148 225.815 115.854 225.874 115.677 225.815C115.5 225.756 115.382 225.638 115.382 225.579C115.323 225.402 115.441 225.225 115.5 225.166L115.146 224.931C115.146 224.99 114.852 225.343 114.97 225.756C115.028 225.991 115.205 226.227 115.559 226.345C115.853 226.463 116.207 226.404 116.561 226.345C117.327 226.227 118.27 225.991 119.154 227.7C119.92 229.115 119.389 230.058 118.918 230.883C118.564 231.531 118.211 232.12 118.446 232.768C118.8 233.711 119.566 233.77 120.096 233.77C120.568 233.77 120.627 233.829 120.627 233.947C120.686 234.772 120.568 235.361 120.214 235.656C120.037 235.774 119.802 235.774 119.566 235.774C119.271 235.774 118.977 235.774 118.741 236.009C118.505 236.245 118.211 237.011 118.329 237.659C118.387 238.072 118.564 238.425 118.859 238.661C119.389 239.015 119.92 239.015 120.273 238.956C120.568 238.956 120.745 238.897 120.862 239.015C120.98 239.074 121.098 239.309 121.334 239.545C121.982 240.252 123.043 241.431 123.868 241.549C123.868 241.549 123.868 241.549 123.927 241.549C124.693 241.666 125.282 241.549 125.636 241.254C125.812 241.077 125.93 240.841 125.989 240.547C125.989 240.252 125.812 239.958 125.636 239.545C125.282 238.838 125.046 238.366 125.459 238.072C125.812 237.836 126.107 237.836 126.52 237.836C127.05 237.836 127.698 237.895 128.228 237.188C128.287 237.188 128.346 237.188 128.346 237.188C130.468 237.306 133.709 237.541 135.3 238.484C136.42 239.191 136.42 239.545 136.361 240.37C136.302 241.136 136.243 242.138 137.009 243.906C136.773 244.613 136.655 245.438 136.773 246.793C137.068 250.918 140.25 255.043 140.486 255.338C140.604 255.515 140.78 255.691 140.898 255.809C141.37 256.163 142.548 256.811 143.845 257.577C145.318 258.402 147.027 259.345 148.087 260.111C149.384 260.995 150.739 261.997 150.916 263.058C150.975 263.529 150.857 264.059 150.386 264.59C148.795 266.652 146.85 274.018 146.791 274.254L147.262 274.313C147.321 273.841 149.266 266.829 150.739 264.884C151.27 263.883 151.446 263.293 151.387 262.645Z" fill="#323A50"/>
<path d="M148.264 264.531C147.616 262.291 144.434 259.934 143.373 259.227C141.075 257.813 135.83 257.518 133.414 258.048C132.295 258.284 131.529 258.638 130.821 258.991C130.055 259.345 129.407 259.698 128.523 259.698C126.696 259.698 125.695 259.934 124.811 260.582C124.634 260.7 124.575 260.877 124.575 260.995C124.575 261.348 124.929 261.702 125.282 262.056C125.577 262.291 125.989 262.704 125.93 262.881C125.93 262.998 125.812 263.057 125.695 263.116C124.516 263.765 123.573 262.881 123.573 262.822L123.22 263.175C123.22 263.175 124.398 264.354 125.871 263.588C126.166 263.411 126.284 263.234 126.343 262.998C126.402 262.527 125.93 262.173 125.577 261.761C125.341 261.525 124.987 261.231 124.987 261.054L125.046 260.995C125.813 260.406 126.755 260.229 128.464 260.229C129.466 260.229 130.173 259.875 130.998 259.463C131.646 259.109 132.413 258.756 133.473 258.579C135.771 258.107 140.898 258.402 143.079 259.698C144.375 260.465 147.263 262.763 147.793 264.707C147.911 265.238 147.675 266.181 147.321 266.947C145.554 271.072 144.964 273.959 144.964 274.018L145.377 274.077C145.377 274.077 145.966 271.131 147.734 267.123C147.97 266.593 148.441 265.356 148.264 264.531Z" fill="#323A50"/>
<path d="M149.266 264.177C149.148 263.352 148.323 262.468 148.029 262.114C147.97 262.055 147.97 262.055 147.97 262.055C146.32 260.111 143.904 258.225 142.312 257.636C141.841 257.459 141.311 257.341 140.663 257.223C138.129 255.986 135.595 255.514 133.237 255.043C131.941 254.807 130.586 254.512 129.289 254.159C125.695 253.098 119.684 247.146 119.448 246.852C119.271 246.616 115.205 241.43 114.793 239.662C114.616 238.896 113.732 235.007 113.32 233.946C112.907 233.003 107.78 231.295 106.72 230.941C104.245 230.823 100.532 230.587 100.179 230.352C99.7661 230.057 99.2946 228.643 99.4125 228.053C99.4125 227.818 99.7071 227.641 100.002 227.464C100.473 227.17 101.004 226.757 101.121 226.05C101.18 225.52 100.827 223.987 100.179 221.453C99.5893 219.037 98.8232 215.796 99 215.207C99.1768 214.677 99.5304 214.618 99.825 214.5C100.179 214.441 100.532 214.323 100.65 213.793C100.709 213.616 100.591 213.439 100.532 213.38C100.296 213.145 99.7661 213.145 99.0589 213.203C98.3518 213.262 97.4089 213.321 97.0554 212.968L96.7607 213.321C97.2911 213.793 98.2339 213.734 99.0589 213.675C99.4714 213.675 100.061 213.616 100.179 213.734C100.12 213.97 100.061 213.97 99.7071 214.087C99.3536 214.205 98.8232 214.323 98.5286 215.089C98.2929 215.737 98.8232 218.095 99.7071 221.63C100.179 223.575 100.709 225.637 100.591 226.109C100.532 226.639 100.061 226.934 99.6482 227.228C99.2357 227.464 98.8821 227.759 98.8232 228.171C98.7054 228.878 99.2357 230.528 99.825 230.882C100.296 231.236 105.011 231.471 106.543 231.53C109.489 232.473 112.613 233.77 112.789 234.241C113.143 235.066 113.791 237.718 114.204 239.898C114.616 241.784 118.8 247.087 118.977 247.264C119.213 247.5 125.282 253.57 128.995 254.689C130.35 255.102 131.705 255.337 133.002 255.573C134.888 255.927 136.891 256.339 138.895 257.105C137.775 256.987 136.537 256.928 135.418 256.811C134.416 256.752 133.532 256.693 132.766 256.575C127.227 255.986 124.104 255.161 122.1 253.687C119.802 252.096 112.966 246.086 112.436 245.378C112.141 244.966 112.023 244.553 111.846 244.023C111.729 243.611 111.611 243.139 111.375 242.609C110.55 240.723 107.25 238.602 104.893 237.128C103.655 236.362 102.595 235.655 102.359 235.302C102.005 234.771 102.123 234.418 102.3 233.946C102.418 233.593 102.595 233.239 102.595 232.768H102.123C102.123 233.18 102.005 233.475 101.888 233.77C101.652 234.3 101.475 234.771 101.946 235.537C102.241 235.95 103.243 236.598 104.598 237.482C106.896 238.955 110.079 241.018 110.904 242.786C111.139 243.257 111.257 243.728 111.375 244.141C111.552 244.73 111.67 245.202 112.023 245.673C112.612 246.38 119.507 252.45 121.805 254.1C123.868 255.573 127.05 256.457 132.707 257.046C133.414 257.105 134.357 257.164 135.359 257.282C137.834 257.459 140.662 257.695 142.018 258.166C143.491 258.696 145.848 260.523 147.498 262.409C147.498 262.409 147.557 262.468 147.557 262.527C147.793 262.821 148.618 263.705 148.677 264.353C148.795 265.002 148.323 266.239 147.675 268.007C147.086 269.657 146.32 271.661 145.671 274.136L146.084 274.253C146.732 271.778 147.439 269.775 148.087 268.184C148.912 266.18 149.384 264.943 149.266 264.177Z" fill="#323A50"/>
<path d="M102.241 201.536C102.182 201.889 101.829 202.42 101.416 203.009C100.709 204.129 99.825 205.366 100.355 206.309C100.65 206.839 101.357 207.311 102.182 207.9C103.714 208.902 105.659 210.198 106.425 212.496C107.662 216.209 110.786 222.809 110.845 222.868V222.927C110.904 222.986 114.734 228.171 113.379 233.239L113.791 233.357C115.146 228.23 111.493 223.104 111.198 222.691C111.198 222.632 111.08 222.455 110.962 222.22C111.493 222.102 112.671 221.748 113.437 220.746C114.027 219.98 114.263 218.979 114.145 217.741C113.909 215.679 112.907 213.793 112.023 212.084C111.257 210.611 110.609 209.373 110.727 208.489C110.786 207.723 111.257 207.605 111.846 207.37C112.554 207.193 113.437 206.898 113.614 205.366C113.791 203.716 112.671 203.009 111.729 202.479C111.021 202.007 110.55 201.712 110.609 201.182C110.727 199.709 112.848 197.646 112.848 197.646L112.554 197.293C112.495 197.352 110.314 199.473 110.196 201.123C110.137 201.948 110.845 202.42 111.552 202.832C112.436 203.363 113.379 203.952 113.202 205.307C113.084 206.545 112.436 206.721 111.788 206.898C111.139 207.075 110.432 207.311 110.373 208.371C110.314 209.432 110.962 210.729 111.729 212.202C112.554 213.852 113.555 215.737 113.791 217.682C113.909 218.743 113.732 219.627 113.202 220.334C112.436 221.336 111.257 221.63 110.845 221.689C109.961 219.745 107.839 215.148 106.896 212.32C106.071 209.845 104.009 208.489 102.477 207.429C101.711 206.898 101.004 206.427 100.768 206.014C100.355 205.307 101.121 204.187 101.77 203.186C102.241 202.537 102.595 201.948 102.654 201.536C102.713 200.888 102.123 199.945 101.357 198.884C100.709 197.882 99.9429 196.762 99.825 195.938L99.3536 195.996C99.4714 196.88 100.237 198 100.945 199.12C101.652 200.121 102.3 201.064 102.241 201.536Z" fill="#323A50"/>
<path d="M146.673 266.062C146.143 264.825 144.552 263.823 143.432 263.116C142.961 262.821 142.607 262.585 142.43 262.408C142.254 262.232 142.254 262.055 142.195 261.878C142.077 261.348 141.9 260.876 140.78 260.464C139.071 259.757 135.005 259.403 133.65 260.287C133.12 260.641 133.061 261.053 133.061 261.407C133.179 262.35 134.298 263.175 135.359 263.528C136.066 263.764 136.125 264.53 136.184 265.296C136.243 265.944 136.302 266.592 136.773 267.005C137.127 267.241 137.245 267.476 137.186 267.653C137.127 267.889 136.714 268.183 135.83 268.301C134.534 268.419 132.53 267.889 132.53 267.889L132.412 268.36C132.471 268.36 134.475 268.891 135.889 268.773C136.891 268.655 137.539 268.301 137.657 267.771C137.775 267.358 137.539 266.946 137.068 266.592C136.714 266.357 136.714 265.826 136.655 265.237C136.596 264.471 136.537 263.41 135.536 263.116C134.475 262.762 133.591 261.996 133.532 261.348C133.532 261.112 133.65 260.876 133.886 260.7C135.064 259.992 138.895 260.228 140.603 260.935C141.605 261.348 141.664 261.701 141.782 262.055C141.841 262.291 141.9 262.585 142.195 262.821C142.371 262.998 142.784 263.292 143.255 263.587C144.316 264.235 145.848 265.296 146.32 266.357C146.673 267.123 146.261 267.948 145.73 269.126C145.259 270.246 144.611 271.601 144.375 273.428L144.846 273.487C145.082 271.719 145.671 270.364 146.202 269.303C146.614 268.007 147.086 267.005 146.673 266.062Z" fill="#323A50"/>
</g>
<g opacity="0.34">
<path d="M162.171 276.257C199.631 276.257 229.998 246.021 229.998 208.725C229.998 171.428 199.631 141.192 162.171 141.192C124.712 141.192 94.3446 171.428 94.3446 208.725C94.3446 246.021 124.712 276.257 162.171 276.257Z" fill="url(#paint1_radial_3569_14922)"/>
<path d="M162.171 276.433C144.021 276.433 126.932 269.421 114.086 256.575C101.239 243.787 94.1678 226.757 94.1678 208.725C94.1678 190.692 101.239 173.603 114.086 160.875C126.932 148.087 144.021 141.016 162.171 141.016C180.321 141.016 197.411 148.028 210.257 160.875C223.104 173.662 230.175 190.692 230.175 208.725C230.175 226.757 223.104 243.846 210.257 256.575C197.411 269.421 180.321 276.433 162.171 276.433ZM162.171 141.428C124.87 141.428 94.5214 171.6 94.5214 208.725C94.5214 245.85 124.87 276.021 162.171 276.021C199.473 276.021 229.763 245.85 229.763 208.725C229.763 171.6 199.473 141.428 162.171 141.428Z" fill="#323A50"/>
</g>
<path d="M162.82 133.827C155.748 133.827 155.513 134.711 150.975 139.131C149.089 140.958 141.487 144.611 140.309 147.204C138.895 150.15 138.011 153.568 137.716 157.34C137.657 158.047 137.775 157.929 137.775 157.399C137.775 151.859 148.736 148.972 162.289 148.972C175.843 148.972 186.804 151.859 186.804 157.399C186.804 157.811 186.804 157.87 186.862 157.458C186.921 152.625 185.507 148.147 183.032 144.375C182.325 143.315 172.602 139.661 171.718 138.718C167.298 134.063 169.891 133.827 162.82 133.827Z" fill="#293C4F"/>
<path d="M144.728 142.371C144.728 142.489 144.611 141.722 144.67 140.897C144.729 140.308 144.905 139.601 145.2 139.071C145.495 138.54 145.848 138.01 146.32 137.539C146.32 137.539 146.379 137.539 146.379 137.48C149.148 134.651 155.041 132.706 161.818 132.706C171.246 132.706 178.966 136.419 178.966 141.015C178.966 141.015 178.966 141.605 178.907 142.017C178.848 142.783 178.554 143.49 178.082 144.139L201.064 150.444C201.064 149.972 201.064 150.915 201.064 149.147C201.064 137.656 183.621 128.346 162.112 128.346C140.603 128.346 123.161 137.656 123.161 149.147C123.161 149.796 123.22 150.503 123.337 151.151L145.966 144.433C145.554 144.021 144.846 142.96 144.728 142.371Z" fill="#DBDBDB"/>
<path d="M161.17 132.648C159.52 132.589 157.752 133.119 156.22 133.65C157.987 133.355 159.932 133.178 161.877 133.178C162.937 133.178 163.998 133.237 165.059 133.296C163.762 133.061 162.466 132.707 161.17 132.648Z" fill="#323A50"/>
<path d="M189.868 134.239C182.443 130.291 172.602 128.11 162.112 128.11C151.623 128.11 141.782 130.291 134.357 134.239C126.873 138.246 122.748 143.55 122.748 149.266C122.748 149.973 122.807 150.621 122.925 151.328L122.984 151.8L146.555 144.787L146.202 144.316C145.495 143.314 145.082 142.666 145.023 142.253V142.135C145.023 142.076 145.023 141.959 145.023 141.841C144.905 141.841 144.787 141.782 144.729 141.723C144.552 141.605 144.375 141.487 144.198 141.31C144.198 141.723 144.198 142.194 144.257 142.489C144.375 143.019 144.787 143.667 145.259 144.316L123.632 150.739C123.573 150.209 123.514 149.737 123.514 149.266C123.514 138.01 140.839 128.876 162.054 128.876C183.268 128.876 200.593 138.01 200.593 149.266V150.032L178.671 144.021C179.025 143.432 179.202 142.784 179.261 142.135C179.261 142.017 179.261 141.9 179.261 141.782C178.966 141.782 178.671 141.723 178.495 141.546C178.495 141.723 178.495 141.959 178.436 142.135C178.377 142.784 178.082 143.432 177.67 144.08L177.316 144.551L201.3 151.151V150.621C201.3 150.562 201.359 150.503 201.359 150.503H201.418C201.418 150.444 201.418 150.385 201.418 150.326V149.325C201.536 143.55 197.352 138.246 189.868 134.239Z" fill="#323A50"/>
<path d="M162.289 276.67C144.139 276.67 126.991 269.599 114.145 256.752C101.298 243.906 94.2268 226.816 94.2268 208.607C94.2268 193.581 99 179.379 108.075 167.475L108.546 167.829C99.5893 179.615 94.8161 193.757 94.8161 208.607C94.8161 245.791 125.105 276.081 162.289 276.081C199.473 276.081 229.763 245.791 229.763 208.607C229.763 193.581 224.93 179.379 215.796 167.534L216.268 167.181C225.461 179.143 230.352 193.522 230.352 208.607C230.352 226.757 223.28 243.906 210.434 256.752C197.587 269.599 180.498 276.67 162.289 276.67Z" fill="#323A50"/>
<path d="M151.152 139.189L151.211 142.371L129.82 153.568C129.23 153.803 129.23 154.628 129.82 154.864L129.879 154.923L130.998 155.394C131.352 155.512 131.293 156.043 130.939 156.101L128.641 156.573H128.523C127.463 156.809 127.345 158.223 128.346 158.635L130.704 159.637C131.116 159.814 131.057 160.403 130.645 160.521C128.582 160.993 124.339 162.112 118.152 164.351C97.7036 172.484 88.0393 195.053 88.0393 195.053C88.0393 195.053 89.984 184.328 93.5197 177.08C95.759 172.425 99.2947 165.059 106.602 156.985C111.493 151.623 118.093 146.732 118.093 146.732C118.093 146.732 120.45 151.859 123.868 150.739C126.402 149.384 146.968 138.659 151.152 139.189Z" fill="#DBDBDB"/>
<path d="M86.8018 198.589L87.45 194.995C87.45 194.877 89.4536 184.152 92.9304 176.903C95.1107 172.425 98.7054 164.882 106.071 156.691C110.904 151.328 117.562 146.437 117.621 146.378L118.034 146.084L118.211 146.555C118.211 146.614 120.038 150.503 122.689 150.503C122.925 150.503 123.22 150.445 123.514 150.386C126.225 149.089 145.612 138.718 150.562 138.718C150.798 138.718 151.034 138.718 151.211 138.777L151.564 138.836L151.623 142.666L129.938 153.98C129.761 154.039 129.761 154.157 129.761 154.216C129.761 154.275 129.761 154.393 129.938 154.452L131.116 154.923C131.47 155.041 131.646 155.395 131.587 155.689C131.529 155.984 131.293 156.337 130.939 156.396L128.464 156.927C128.111 156.986 127.934 157.28 127.934 157.516C127.934 157.752 127.993 158.046 128.346 158.223L130.704 159.225C131.057 159.402 131.234 159.696 131.234 160.109C131.234 160.521 130.939 160.816 130.586 160.875C128.582 161.346 124.339 162.407 118.152 164.705C107.721 168.889 100.12 176.903 95.6411 182.973C90.75 189.514 88.3339 195.171 88.275 195.23L86.8018 198.589ZM117.739 147.38C116.266 148.5 110.845 152.743 106.72 157.28C99.4125 165.295 95.8179 172.778 93.6964 177.257C91.3982 182.03 89.8072 188.277 88.9232 191.989C90.1607 189.691 92.1643 186.273 94.9339 182.502C99.4714 176.373 107.191 168.182 117.857 163.939C124.045 161.641 128.346 160.58 130.409 160.109C130.409 160.109 130.468 160.109 130.468 160.05C130.468 159.991 130.468 159.991 130.409 159.991L128.052 158.989C127.462 158.753 127.05 158.105 127.168 157.457C127.227 156.809 127.698 156.278 128.346 156.161L130.704 155.63L129.584 155.159C129.171 154.982 128.877 154.57 128.936 154.098C128.936 153.627 129.23 153.273 129.643 153.096L150.798 142.018V139.484C150.739 139.484 150.68 139.484 150.562 139.484C145.73 139.484 126.461 149.796 123.868 151.093H123.809C123.455 151.211 123.102 151.27 122.748 151.27C120.096 151.328 118.329 148.5 117.739 147.38Z" fill="#323A50"/>
<path d="M162.23 284.861V284.036C203.834 284.036 237.718 250.152 237.718 208.548C237.718 184.741 226.816 162.82 207.9 148.441L208.371 147.793C217.564 154.747 225.107 163.88 230.352 174.134C235.773 184.859 238.543 196.468 238.543 208.607C238.543 218.92 236.539 228.879 232.532 238.307C228.702 247.382 223.221 255.573 216.209 262.527C209.196 269.48 201.005 275.02 191.93 278.85C182.561 282.857 172.602 284.861 162.23 284.861Z" fill="#323A50"/>
<path d="M171.482 138.894V142.017L194.759 153.155C195.348 153.391 195.348 154.216 194.759 154.451L194.7 154.51L193.58 154.982C193.227 155.1 193.286 155.63 193.639 155.689L195.937 156.16H196.055C197.116 156.396 197.234 157.81 196.232 158.223L193.875 159.225C193.462 159.401 193.521 159.991 193.934 160.109C195.996 160.58 200.239 161.7 206.427 163.939C226.875 172.071 236.539 194.228 236.539 194.228C236.539 194.228 234.595 183.975 231.118 176.667C228.879 172.012 225.343 164.646 218.036 156.573C213.145 151.21 206.191 147.026 206.191 147.026C206.191 147.026 204.246 151.446 200.77 150.326C198.118 148.971 175.725 138.364 171.482 138.894Z" fill="#DBDBDB"/>
<path d="M237.718 197.705L236.304 194.405C236.304 194.346 233.829 188.807 228.938 182.384C224.459 176.432 216.916 168.536 206.427 164.352C200.298 162.054 195.996 160.993 193.993 160.58C193.639 160.521 193.345 160.168 193.345 159.814C193.345 159.461 193.521 159.107 193.875 158.93L196.232 157.929C196.586 157.811 196.704 157.457 196.645 157.221C196.645 156.986 196.468 156.691 196.114 156.632L193.639 156.102C193.286 156.043 193.05 155.748 192.991 155.395C192.932 155.041 193.168 154.746 193.462 154.629L194.641 154.157C194.818 154.098 194.818 153.98 194.818 153.921C194.818 153.862 194.818 153.745 194.641 153.686L171.07 142.489L171.129 138.659L171.482 138.6C171.659 138.6 171.954 138.541 172.189 138.541C177.198 138.541 198.295 148.795 201.064 150.091C201.359 150.209 201.712 150.209 202.007 150.209C204.482 150.209 205.955 146.968 205.955 146.968L206.132 146.555L206.545 146.791C206.604 146.85 213.616 151.034 218.448 156.396C225.814 164.529 229.409 172.071 231.589 176.609C235.066 183.857 237.011 194.111 237.07 194.287L237.718 197.705ZM193.816 155.277L196.173 155.807C196.821 155.925 197.293 156.455 197.352 157.104C197.411 157.752 197.057 158.341 196.468 158.636L194.111 159.637C194.111 159.637 194.052 159.637 194.052 159.696C194.052 159.755 194.052 159.755 194.111 159.755C196.114 160.227 200.416 161.287 206.604 163.586C217.27 167.829 224.93 175.902 229.468 181.912C232.238 185.566 234.241 188.925 235.42 191.164C234.595 187.57 232.945 181.559 230.705 176.845C228.584 172.366 224.989 164.882 217.682 156.868C213.557 152.33 207.841 148.559 206.309 147.616C205.779 148.618 204.246 150.916 201.83 150.916C201.418 150.916 201.064 150.857 200.652 150.739H200.593C198 149.443 177.021 139.248 172.071 139.248C171.954 139.248 171.895 139.248 171.836 139.248V141.723L194.818 152.743C195.289 152.92 195.525 153.273 195.525 153.745C195.525 154.216 195.289 154.57 194.877 154.805L193.816 155.277Z" fill="#323A50"/>
<path d="M186.98 157.811C186.98 152.271 175.961 149.384 162.407 149.384C148.854 149.384 137.834 152.271 137.834 157.811C137.834 163.35 148.854 169.537 162.407 169.537C175.961 169.478 186.98 163.35 186.98 157.811Z" fill="#DBDBDB"/>
<path d="M162.348 169.95C155.925 169.95 149.679 168.595 144.788 166.12C140.073 163.763 137.363 160.698 137.363 157.811C137.363 154.982 139.955 152.684 144.846 151.093C149.266 149.679 155.336 148.972 162.348 148.972C169.361 148.972 175.43 149.738 179.85 151.093C184.741 152.684 187.334 154.982 187.334 157.811C187.334 160.757 184.623 163.763 179.909 166.12C175.018 168.595 168.83 169.95 162.348 169.95ZM162.348 149.738C155.513 149.738 149.384 150.504 145.082 151.859C141.9 152.861 138.188 154.688 138.188 157.811C138.188 160.345 140.78 163.232 145.141 165.413C149.914 167.829 156.043 169.125 162.348 169.125C168.654 169.125 174.782 167.829 179.555 165.413C183.916 163.232 186.509 160.404 186.509 157.811C186.509 154.747 182.738 152.861 179.614 151.859C175.313 150.504 169.184 149.738 162.348 149.738Z" fill="#323A50"/>
<path d="M186.332 157.929C186.332 152.684 175.607 149.974 162.348 149.974C149.089 149.974 138.364 152.684 138.364 157.929C138.364 163.174 149.089 169.008 162.348 169.008C175.607 169.008 186.332 163.174 186.332 157.929Z" fill="#DBDBDB"/>
<path d="M162.348 169.067C156.102 169.067 150.091 167.829 145.377 165.472C140.898 163.292 138.305 160.522 138.305 157.87C138.305 155.336 140.78 153.274 145.377 151.8C149.679 150.504 155.513 149.797 162.348 149.797C169.184 149.797 175.018 150.504 179.32 151.8C183.975 153.215 186.391 155.336 186.391 157.87C186.391 160.522 183.798 163.292 179.32 165.472C174.605 167.829 168.595 169.067 162.348 169.067ZM162.348 150.092C147.852 150.092 138.482 153.156 138.482 157.988C138.482 163.056 148.913 168.949 162.348 168.949C175.784 168.949 186.214 163.056 186.214 157.988C186.214 153.156 176.845 150.092 162.348 150.092Z" fill="#323A50"/>
<path d="M185.095 158.047C185.095 153.509 174.9 151.152 162.348 151.152C149.796 151.152 139.602 153.509 139.602 158.047C139.602 162.584 149.796 167.593 162.348 167.593C174.9 167.593 185.095 162.584 185.095 158.047Z" fill="#DBDBDB"/>
<path d="M162.348 167.711C156.455 167.711 150.739 166.591 146.261 164.647C142.018 162.761 139.543 160.345 139.543 158.047C139.543 155.866 141.9 154.04 146.261 152.802C150.327 151.682 155.925 151.034 162.348 151.034C168.771 151.034 174.37 151.623 178.436 152.802C182.855 154.04 185.154 155.866 185.154 158.047C185.154 160.345 182.679 162.761 178.436 164.647C173.957 166.65 168.241 167.711 162.348 167.711ZM162.348 151.27C148.618 151.27 139.72 153.922 139.72 158.047C139.72 162.407 149.62 167.475 162.348 167.475C175.077 167.475 184.977 162.407 184.977 158.047C184.977 153.922 176.079 151.27 162.348 151.27Z" fill="#323A50"/>
<path d="M183.739 158.105C183.739 154.216 174.075 152.153 162.23 152.153C150.327 152.153 140.721 154.157 140.721 158.105C140.721 161.994 150.386 166.296 162.23 166.296C174.075 166.355 183.739 161.994 183.739 158.105Z" fill="#DBDBDB"/>
<path d="M162.172 166.414C156.573 166.414 151.152 165.472 146.909 163.763C142.843 162.113 140.545 160.05 140.545 158.105C140.545 156.22 142.784 154.629 146.909 153.568C150.739 152.566 156.043 152.095 162.172 152.095C168.3 152.095 173.545 152.625 177.434 153.568C181.618 154.629 183.798 156.22 183.798 158.105C183.798 160.05 181.5 162.172 177.434 163.763C173.191 165.472 167.77 166.414 162.172 166.414ZM162.172 152.272C149.148 152.272 140.721 154.57 140.721 158.105C140.721 161.877 150.091 166.238 162.172 166.238C174.252 166.238 183.621 161.877 183.621 158.105C183.621 154.57 175.195 152.272 162.172 152.272Z" fill="#323A50"/>
<path d="M182.266 158.047C182.266 154.924 173.25 153.333 162.171 153.333C151.093 153.333 142.077 154.924 142.077 158.047C142.077 161.171 151.093 165.001 162.171 165.001C173.25 165.001 182.266 161.171 182.266 158.047Z" fill="#DBDBDB"/>
<path d="M162.171 165.059C150.975 165.059 141.959 161.229 141.959 158.047C141.959 154.511 152.861 153.215 162.171 153.215C171.482 153.215 182.384 154.452 182.384 158.047C182.325 161.229 173.309 165.059 162.171 165.059ZM162.171 153.451C150.032 153.451 142.195 155.277 142.195 158.047C142.195 161.111 151.446 164.883 162.171 164.883C172.896 164.883 182.148 161.111 182.148 158.047C182.148 155.277 174.311 153.451 162.171 153.451Z" fill="#323A50"/>
<path d="M180.557 158.106C180.557 155.69 172.307 154.452 162.113 154.452C151.918 154.452 143.668 155.69 143.668 158.106C143.668 160.522 151.918 163.527 162.113 163.527C172.307 163.527 180.557 160.522 180.557 158.106Z" fill="#DBDBDB"/>
<path d="M162.113 163.586C151.859 163.586 143.609 160.58 143.609 158.105C143.609 155.336 153.155 154.334 162.113 154.334C171.07 154.334 180.616 155.336 180.616 158.105C180.616 160.58 172.366 163.586 162.113 163.586ZM162.113 154.511C151.152 154.511 143.786 155.925 143.786 158.105C143.786 160.521 152.271 163.409 162.113 163.409C172.013 163.409 180.439 160.463 180.439 158.105C180.439 155.984 173.073 154.511 162.113 154.511Z" fill="#323A50"/>
<path d="M178.554 158.283C178.554 156.515 171.129 155.631 161.995 155.631C152.861 155.631 145.436 156.515 145.436 158.283C145.436 160.051 152.861 162.231 161.995 162.231C171.129 162.231 178.554 160.051 178.554 158.283Z" fill="#DBDBDB"/>
<path d="M161.995 162.348C152.743 162.348 145.318 160.109 145.318 158.282C145.318 156.22 153.922 155.513 161.995 155.513C170.068 155.513 178.671 156.22 178.671 158.282C178.671 160.109 171.247 162.348 161.995 162.348ZM161.995 155.748C152.154 155.748 145.495 156.809 145.495 158.282C145.495 159.814 152.389 162.113 161.995 162.113C171.541 162.113 178.495 159.814 178.495 158.282C178.436 156.809 171.836 155.748 161.995 155.748Z" fill="#323A50"/>
<path d="M161.346 143.609C167.205 143.609 171.954 141.235 171.954 138.306C171.954 135.376 167.205 133.002 161.346 133.002C155.488 133.002 150.739 135.376 150.739 138.306C150.739 141.235 155.488 143.609 161.346 143.609Z" fill="#293C4F"/>
<path d="M161.346 134.828C166.591 134.828 169.891 136.478 171.482 138.717C171.541 138.54 171.541 138.305 171.541 138.128C171.541 135.299 166.945 133.001 161.346 133.001C155.748 133.001 151.152 135.299 151.152 138.128C151.152 138.363 151.152 138.54 151.211 138.717C151.918 136.831 156.161 134.828 161.346 134.828Z" fill="#DBDBDB"/>
<path d="M171.482 139.13C171.364 139.13 171.246 139.071 171.129 138.953C170.127 137.539 167.534 135.241 161.346 135.241C156.337 135.241 152.212 137.126 151.623 138.835C151.564 139.012 151.387 139.13 151.211 139.13C151.034 139.13 150.857 139.012 150.857 138.835C150.798 138.6 150.798 138.364 150.798 138.128C150.798 135.005 155.454 132.589 161.405 132.589C167.357 132.589 172.013 135.005 172.013 138.128C172.013 138.364 171.954 138.6 171.954 138.835C171.895 139.012 171.777 139.13 171.659 139.13C171.541 139.13 171.541 139.13 171.482 139.13ZM161.346 134.416C165.648 134.416 169.066 135.535 171.129 137.657C170.657 135.3 166.355 133.414 161.346 133.414C156.514 133.414 152.389 135.182 151.682 137.421C153.332 135.83 156.868 134.416 161.346 134.416Z" fill="#323A50"/>
<path d="M204.364 144.021L203.421 142.607C203.245 142.371 203.304 142.017 203.598 141.841C203.834 141.664 204.188 141.723 204.364 142.017L205.307 143.432C205.484 143.667 205.425 144.021 205.13 144.198C204.895 144.316 204.541 144.257 204.364 144.021Z" fill="#FF4200"/>
<path d="M201.713 140.309L200.534 139.012C200.357 138.776 200.357 138.423 200.593 138.246C200.829 138.069 201.182 138.069 201.359 138.305L202.538 139.601C202.714 139.837 202.714 140.191 202.479 140.368C202.243 140.544 201.889 140.544 201.713 140.309Z" fill="#FF4200"/>
<path d="M200.77 138.187L196.173 137.893L196.409 136.655L200.77 138.128V138.187Z" fill="#DBDBDB"/>
<path d="M201.241 138.6L195.702 138.305L196.055 136.125L201.064 137.834L201.241 138.6ZM196.645 137.539L198 137.598L196.704 137.127L196.645 137.539Z" fill="#323A50"/>
<path d="M196.409 135.889L190.987 134.18L182.089 132.648C169.95 130.467 157.575 129.407 145.259 129.466L119.33 129.583C110.373 129.642 102.182 125.164 97.291 117.68L59.5178 59.2227C58.3393 59.8709 57.1607 60.578 55.9821 61.2852L93.8143 119.86C98.9411 127.816 107.368 132.824 116.737 133.532C117.562 133.591 118.446 133.649 119.271 133.649L145.2 133.532C157.28 133.473 169.42 134.533 181.323 136.655L190.339 138.187L195.761 138.541C195.82 138.541 196.88 137.774 196.409 135.889Z" fill="#DBDBDB"/>
<path d="M196.821 135.771L196.763 135.536L191.105 133.709L182.148 132.177C170.009 129.996 157.575 128.936 145.259 128.994L119.33 129.112H119.213C110.491 129.112 102.418 124.752 97.6447 117.386L59.8714 58.9873C59.6357 59.1052 59.4 59.223 59.1643 59.3998L96.9375 117.857C101.829 125.459 110.138 129.937 119.154 129.937L145.2 129.819C157.516 129.761 169.891 130.821 181.971 133.002L190.811 134.534L195.996 136.184C196.232 137.303 195.82 137.893 195.584 138.128L190.339 137.775L181.382 136.243C169.479 134.121 157.28 133.061 145.2 133.119L119.271 133.237H119.095C118.329 133.237 117.504 133.178 116.737 133.119C107.427 132.412 99.1768 127.462 94.1089 119.625L56.2768 61.0498C56.0411 61.1677 55.8054 61.3445 55.5696 61.4623L93.4607 120.037C98.6464 128.111 107.132 133.178 116.679 133.886C117.504 133.944 118.329 134.003 119.095 134.003L145.141 133.886C157.221 133.827 169.302 134.887 181.146 137.009L190.163 138.541L195.82 138.894L195.938 138.777C196.114 138.836 197.352 137.893 196.821 135.771Z" fill="#323A50"/>
<path opacity="0.38" d="M137.363 133.474C137.009 133.356 136.655 133.415 136.184 133.415C136.066 133.415 135.948 133.415 135.889 133.356C135.123 133.356 134.357 133.297 133.591 133.297C132.589 133.297 131.646 133.533 130.645 133.533C129.643 133.533 128.7 133.768 127.698 133.886C126.696 134.004 125.695 133.827 124.752 133.945C124.398 134.004 124.045 134.004 123.691 133.945C121.57 136.243 119.861 138.247 118.741 139.543C115.736 143.02 117.327 145.495 117.975 146.968C119.92 150.681 122.807 151.329 123.573 150.858C122.807 150.386 122.866 142.195 128.995 138.424C129.172 138.424 132.118 135.949 137.363 133.474Z" fill="url(#paint2_linear_3569_14922)"/>
<path opacity="0.38" d="M194.052 137.244C194.052 137.126 194.052 137.067 194.111 136.95C193.875 136.832 193.639 136.773 193.404 136.714C193.639 136.891 193.875 137.067 194.052 137.244Z" fill="url(#paint3_linear_3569_14922)"/>
<path opacity="0.38" d="M206.132 139.602C201.005 133.827 185.743 114.439 162.584 114.263H162.348C147.616 114.381 136.066 122.277 128.288 129.466C128.759 129.466 129.23 129.466 129.643 129.466C131.411 129.525 133.179 129.584 134.946 129.466C137.068 129.348 139.189 129.466 141.311 129.761C141.429 129.643 141.605 129.525 141.841 129.466C143.845 129.054 145.907 129.643 147.97 129.702C148.146 129.702 148.264 129.702 148.441 129.702C148.5 129.702 148.618 129.702 148.677 129.761C152.507 128.936 156.868 128.464 161.7 128.582C161.759 128.582 174.605 128.936 184.093 131.882C186.038 132.413 187.982 133.179 189.809 134.239C189.927 134.181 189.986 134.181 190.104 134.122C190.457 134.004 190.752 134.122 190.987 134.357C191.105 134.416 191.164 134.534 191.223 134.652C193.227 134.77 195.525 134.652 196.35 136.479C196.468 136.773 196.468 137.068 196.35 137.304C196.35 137.775 196.055 138.247 195.466 138.247C195.407 138.247 195.407 138.247 195.348 138.247C199.179 141.782 201.712 146.143 201.123 150.386C202.832 151.447 204.954 148.854 206.545 147.204C208.548 145.082 209.137 143.02 206.132 139.602Z" fill="url(#paint4_linear_3569_14922)"/>
<path d="M195.702 128.465C198 126.874 197.47 129.761 199.532 128.111L195.702 128.465Z" fill="#DBDBDB"/>
<path d="M198.413 129.053C198.059 129.053 197.764 128.877 197.47 128.641C197.116 128.346 196.821 128.169 195.938 128.759L195.466 128.111C196.763 127.227 197.411 127.58 197.941 127.993C198.295 128.287 198.471 128.405 199.237 127.757L199.768 128.405C199.179 128.877 198.766 129.053 198.413 129.053Z" fill="#323A50"/>
<path d="M171.246 246.321L166.296 246.793L166.473 225.637C166.473 225.461 166.296 225.166 166.12 225.166H160.05C159.873 225.166 159.814 225.52 159.814 225.696L159.579 246.852L155.571 246.321C155.454 246.321 155.336 246.321 155.277 246.439C155.218 246.557 155.218 246.616 155.277 246.734L162.879 257.871L162.937 258.284C162.996 258.343 163.114 258.696 163.232 258.696C163.35 258.696 163.409 258.402 163.527 258.284L171.482 246.97C171.541 246.852 171.541 246.616 171.482 246.498C171.482 246.439 171.364 246.321 171.246 246.321Z" fill="#DBDBDB"/>
<path d="M163.291 258.697H163.055C162.937 258.697 162.643 258.166 162.643 258.166L155.041 247.029C154.923 246.852 154.864 246.675 154.982 246.44C155.041 246.322 155.1 246.263 155.395 246.263C155.454 246.263 159.048 246.263 159.048 246.263L159.107 225.461C159.107 225.402 159.166 225.107 159.579 225.107H166.002C166.002 225.107 166.768 225.048 166.768 225.461V246.263C166.768 246.263 171.187 246.204 171.246 246.204C171.482 246.204 171.777 246.204 171.836 246.322C171.954 246.557 171.954 246.793 171.777 246.97L163.821 258.107C163.645 258.284 163.35 258.697 163.291 258.697ZM163.232 257.99L171.07 246.911H166.179V225.697H160.58C160.521 225.697 160.227 225.697 160.109 225.697C160.05 225.697 159.755 225.697 159.755 225.697L159.696 246.911H155.748L163.173 257.99H163.232Z" fill="#293C4F"/>
<path d="M198.059 231.53C197.941 231.471 197.823 231.471 197.705 231.53L193.875 233.71L184.564 217.505C184.505 217.446 184.446 217.387 184.388 217.328C184.329 217.328 184.211 217.328 184.152 217.387L178.907 220.392C178.73 220.51 178.671 220.687 178.789 220.864L188.1 237.069L184.211 239.308C184.093 239.367 184.034 239.485 184.034 239.603C184.034 239.721 184.093 239.839 184.211 239.898L196.409 245.85C196.468 245.85 196.527 245.908 196.586 245.908C196.645 245.908 196.645 245.908 196.704 245.908H196.763C196.88 245.85 196.998 245.732 196.998 245.614L198.295 231.825C198.236 231.707 198.177 231.589 198.059 231.53Z" fill="#DBDBDB"/>
<path d="M196.527 246.262C196.409 246.262 196.35 246.262 196.232 246.203L184.034 240.251C183.798 240.134 183.68 239.957 183.68 239.721C183.68 239.485 183.798 239.25 183.975 239.132L187.629 237.01L178.495 221.1C178.318 220.805 178.436 220.392 178.73 220.216L183.975 217.21C184.093 217.151 184.27 217.092 184.446 217.151C184.623 217.21 184.741 217.328 184.859 217.446L193.993 233.357L197.529 231.294C197.705 231.176 198 231.176 198.177 231.294C198.354 231.412 198.471 231.648 198.471 231.884L197.175 245.673C197.175 245.909 196.939 246.144 196.704 246.203H196.645C196.645 246.203 196.586 246.262 196.527 246.262ZM184.329 217.682L179.025 220.746C179.025 220.746 179.025 220.746 179.025 220.805L188.513 237.246L184.329 239.662L196.527 245.614H196.586L197.882 231.825C197.882 231.825 197.882 231.825 197.882 231.766L193.816 234.123L184.329 217.682Z" fill="#293C4F"/>
<path d="M220.216 219.744L214.441 207.193C214.382 207.075 214.264 207.016 214.146 207.016C214.029 207.016 213.911 207.075 213.852 207.193L211.671 211.023L195.289 201.535C195.23 201.477 195.113 201.477 195.054 201.477C194.995 201.477 194.877 201.536 194.877 201.653L191.871 206.898C191.754 207.075 191.812 207.252 191.989 207.369L208.371 216.857L206.132 220.746C206.073 220.864 206.073 220.982 206.132 221.1C206.191 221.218 206.309 221.277 206.427 221.277L219.98 220.334C220.039 220.334 220.157 220.275 220.216 220.216L220.275 220.157C220.275 220.039 220.275 219.862 220.216 219.744Z" fill="#DBDBDB"/>
<path d="M206.309 221.512C206.073 221.512 205.896 221.394 205.779 221.218C205.661 221.041 205.661 220.746 205.779 220.569L207.9 216.916L191.754 207.546C191.459 207.369 191.341 206.957 191.518 206.662L194.523 201.418C194.582 201.241 194.759 201.182 194.936 201.123C195.113 201.064 195.289 201.123 195.407 201.182L211.554 210.552L213.616 207.016C213.734 206.839 213.97 206.721 214.146 206.721C214.382 206.721 214.618 206.898 214.677 207.075L220.452 219.627C220.57 219.862 220.511 220.157 220.334 220.334L220.275 220.393C220.157 220.511 220.039 220.569 219.863 220.569L206.309 221.512ZM195.113 201.653V201.712L192.107 207.016V207.075L208.784 216.739L206.368 220.923C206.368 220.923 206.368 220.923 206.368 220.982L219.921 220.039L219.98 219.98C219.98 219.98 219.98 219.98 219.98 219.921L214.205 207.369L211.848 211.318L195.113 201.536V201.653Z" fill="#293C4F"/>
<path d="M148.854 220.452L143.609 217.447C143.55 217.388 143.432 217.388 143.373 217.388C143.314 217.388 143.196 217.447 143.196 217.564L133.886 233.77L130.055 231.589C129.937 231.531 129.82 231.531 129.702 231.589C129.584 231.648 129.525 231.766 129.525 231.884L130.821 245.673C130.821 245.791 130.939 245.909 131.057 245.968H131.116C131.116 245.968 131.175 245.968 131.234 245.968C131.293 245.968 131.352 245.968 131.411 245.909L143.609 239.957C143.727 239.898 143.786 239.781 143.786 239.663C143.786 239.545 143.727 239.427 143.609 239.368L139.72 237.129L149.03 220.923C149.03 220.747 148.971 220.511 148.854 220.452Z" fill="#DBDBDB"/>
<path d="M131.175 246.263C131.116 246.263 131.057 246.263 130.998 246.263H130.939C130.704 246.204 130.468 245.968 130.468 245.732L129.171 231.943C129.171 231.707 129.289 231.472 129.466 231.354C129.643 231.236 129.937 231.236 130.114 231.354L133.65 233.416L142.784 217.506C142.843 217.388 143.02 217.27 143.196 217.211C143.373 217.152 143.55 217.211 143.668 217.27L148.912 220.275C149.207 220.452 149.325 220.864 149.148 221.159L140.014 237.07L143.668 239.191C143.845 239.309 144.021 239.545 143.962 239.781C143.962 240.016 143.845 240.252 143.609 240.311L131.411 246.263C131.352 246.204 131.293 246.263 131.175 246.263ZM129.82 231.766L131.057 245.556H131.175L143.373 239.604L139.189 237.188L148.677 220.747V220.688L143.432 217.682L143.314 217.388L143.373 217.682L133.886 234.123L129.82 231.766Z" fill="#293C4F"/>
<path d="M119.389 216.798L135.771 207.311C135.948 207.193 136.007 207.016 135.889 206.839L132.884 201.595C132.825 201.536 132.766 201.477 132.707 201.418C132.648 201.418 132.53 201.418 132.471 201.477L116.03 210.964L113.85 207.134C113.791 207.016 113.673 206.957 113.555 206.957C113.438 206.957 113.32 207.016 113.261 207.134L107.486 219.686C107.427 219.804 107.427 219.98 107.545 220.039L107.604 220.098C107.662 220.157 107.721 220.216 107.839 220.216L121.393 221.159C121.511 221.159 121.629 221.1 121.688 220.982C121.746 220.864 121.746 220.747 121.688 220.629L119.389 216.798Z" fill="#DBDBDB"/>
<path d="M121.393 221.512L107.78 220.569C107.604 220.569 107.486 220.511 107.368 220.393L107.309 220.334C107.132 220.157 107.073 219.862 107.191 219.627L112.966 207.075C113.084 206.839 113.261 206.721 113.496 206.721C113.732 206.721 113.909 206.839 114.027 207.016L116.089 210.552L132.236 201.182C132.354 201.123 132.589 201.064 132.707 201.123C132.884 201.182 133.002 201.3 133.12 201.418L136.125 206.662C136.302 206.957 136.184 207.369 135.889 207.546L119.743 216.916L121.864 220.569C121.982 220.746 121.982 221.041 121.864 221.218C121.805 221.394 121.57 221.512 121.393 221.512ZM113.555 207.311L107.721 219.862C107.721 219.862 107.721 219.862 107.721 219.921L107.78 219.98L121.275 220.923L121.393 220.805L118.977 216.68L135.654 207.075L132.648 201.83L115.971 211.494L113.555 207.311Z" fill="#293C4F"/>
<defs>
<linearGradient id="paint0_linear_3569_14922" x1="174.791" y1="191.405" x2="140.172" y2="56.7394" gradientUnits="userSpaceOnUse">
<stop offset="0.2655" stop-color="#032A3D" stop-opacity="0"/>
<stop offset="0.493" stop-color="#55FFEE"/>
<stop offset="0.6925" stop-color="#00293F"/>
</linearGradient>
<radialGradient id="paint1_radial_3569_14922" cx="0" cy="0" r="1" gradientUnits="userSpaceOnUse" gradientTransform="translate(163.39 229.031) scale(71.5257 71.199)">
<stop offset="0.4054" stop-color="#032A3D" stop-opacity="0"/>
<stop offset="1" stop-color="#032A3D"/>
</radialGradient>
<linearGradient id="paint2_linear_3569_14922" x1="142.798" y1="199.539" x2="108.179" y2="64.8729" gradientUnits="userSpaceOnUse">
<stop offset="0.2655" stop-color="#032A3D" stop-opacity="0"/>
<stop offset="0.7809" stop-color="#032A3D"/>
</linearGradient>
<linearGradient id="paint3_linear_3569_14922" x1="205.751" y1="183.354" x2="171.133" y2="48.6886" gradientUnits="userSpaceOnUse">
<stop offset="0.2655" stop-color="#032A3D" stop-opacity="0"/>
<stop offset="0.7809" stop-color="#032A3D"/>
</linearGradient>
<linearGradient id="paint4_linear_3569_14922" x1="181.884" y1="189.49" x2="147.265" y2="54.8244" gradientUnits="userSpaceOnUse">
<stop offset="0.2655" stop-color="#032A3D" stop-opacity="0"/>
<stop offset="0.7809" stop-color="#032A3D"/>
</linearGradient>
</defs>
</svg>
