<svg width="147" height="40" viewBox="0 0 147 40" fill="none" xmlns="http://www.w3.org/2000/svg">
<g clip-path="url(#clip0_6001_29660)">
<path d="M145.627 17.9294C145.238 16.5408 144.702 15.3228 143.849 14.2266C142.996 13.106 141.876 12.229 140.609 11.62C139.294 10.9379 137.686 10.6212 135.834 10.6212C134.032 10.6212 132.253 11.1084 130.694 12.0097C129.915 12.3995 129.306 12.9354 128.77 13.5445C128.526 13.7881 128.38 14.0073 128.234 14.2266V11.3764H118.709V39.1474H128.477V24.0682C128.477 23.3861 128.551 22.6797 128.794 21.9976C129.111 20.8039 129.89 19.7808 130.938 19.1474C131.474 18.8307 132.083 18.7576 132.789 18.7576C133.471 18.7576 134.105 18.9038 134.568 19.1474C135.03 19.3666 135.347 19.7564 135.639 20.2192C135.859 20.6821 136.102 21.218 136.175 21.9001C136.322 22.5822 136.322 23.2887 136.322 23.9708V39.123H146.163V22.0706C146.188 20.6821 146.017 19.2935 145.627 17.9294ZM106.09 25.2375C106.09 28.5018 103.435 31.1571 100.171 31.1571C96.9062 31.1571 94.2509 28.5018 94.2509 25.2375C94.2509 21.9732 96.9062 19.3179 100.171 19.3179C103.435 19.2935 106.09 21.9488 106.09 25.2375ZM100.171 10.4507C96.2485 10.4507 92.4969 12.0097 89.7198 14.7868C86.9427 17.5639 85.408 21.3155 85.408 25.2375C85.408 29.1596 86.9671 32.9111 89.7442 35.6882C92.5213 38.4653 96.2728 40 100.195 40C108.356 40 114.957 33.3739 114.957 25.2132C114.957 17.0767 108.331 10.4507 100.171 10.4507ZM73.3983 31.084C71.3276 31.084 69.4032 29.9878 68.3313 28.2095C67.2594 26.4312 67.2107 24.2144 68.1851 22.3873C69.1596 20.5603 71.0353 19.3666 73.106 19.2692C75.1766 19.1717 77.1742 20.1462 78.3191 21.8758L84.2387 15.1035C81.4373 12.0828 77.5152 10.3776 73.3983 10.402C65.2375 10.402 58.6358 17.0037 58.6358 25.1644C58.6358 33.3252 65.2619 39.9269 73.3983 39.9269C77.637 39.9269 81.486 38.1486 84.1656 35.3228L78.3922 28.3069C77.3203 30.0365 75.4446 31.0597 73.3983 31.084ZM16.4677 0L0 39.0743H11.084L13.9342 31.62H28.0877L31.084 39.0743H42.3143L26.0171 0H16.4677ZM25.1644 23.313H16.8575L21.0231 12.0097L25.1644 23.313ZM45.0183 0H54.933V39.0743H45.0183V0Z" fill="#11337F"/>
</g>
<defs>
<clipPath id="clip0_6001_29660">
<rect width="146.165" height="40" fill="white"/>
</clipPath>
</defs>
</svg>
