<?xml version="1.0" encoding="UTF-8"?>
<svg version="1.1" xmlns="http://www.w3.org/2000/svg" width="631" height="248">
<path d="M0 0 C18.6556041 17.46482086 30.95249022 38.67227019 36.75 63.5625 C36.93618896 64.34375244 37.12237793 65.12500488 37.31420898 65.92993164 C38.93794724 73.61110161 39.08902533 81.22569116 39.06567383 89.03979492 C39.06252941 91.22951873 39.08600254 93.41786539 39.11132812 95.60742188 C39.25672317 127.92050586 25.95063975 156.54325259 3.75 179.5625 C3.08226562 180.29339844 2.41453125 181.02429688 1.7265625 181.77734375 C-16.59965528 201.30211164 -46.5965063 213.49214985 -73.03393555 214.68847656 C-109.07938931 215.59963274 -141.06583145 207.13185429 -168.02734375 182.08984375 C-180.87413319 169.84502183 -189.99077299 156.7202699 -197.25 140.5625 C-197.73339844 139.49515625 -198.21679688 138.4278125 -198.71484375 137.328125 C-210.74773399 108.50770704 -209.78728922 74.7097428 -198.4609375 45.859375 C-185.51941371 14.66117598 -161.55694912 -10.29337903 -130.25976562 -23.26220703 C-85.96296659 -40.27101333 -35.5872246 -30.9526093 0 0 Z M-163.89306641 18.01025391 C-175.75368829 31.57805418 -189.46723475 51.35907093 -188.42578125 69.8671875 C-188.36777344 70.42664063 -188.30976563 70.98609375 -188.25 71.5625 C-184.31140537 69.11418442 -180.84120069 66.38756238 -177.3125 63.375 C-160.57034493 49.62975829 -140.27640832 41.25423046 -119.25 36.5625 C-118.52925293 36.39878906 -117.80850586 36.23507813 -117.06591797 36.06640625 C-74.95256835 26.99728001 -29.00607667 35.29343966 7.09423828 58.4765625 C11.05143195 61.07190273 14.93120489 63.76804052 18.75 66.5625 C21.45981939 58.43304183 14.65406781 45.6462071 11 38.25 C-1.7243579 13.51789499 -23.58432531 -3.24993045 -49.68359375 -11.97265625 C-53.83539764 -13.28205359 -58.02210376 -14.40320304 -62.25 -15.4375 C-63.71566406 -15.80681641 -63.71566406 -15.80681641 -65.2109375 -16.18359375 C-101.74325223 -23.77268492 -139.13499683 -8.86012875 -163.89306641 18.01025391 Z M-119.25 61.5625 C-127.85694699 72.76929401 -131.32681581 84.69681814 -130.046875 98.80078125 C-128.2567918 110.68926861 -121.92730852 122.36874853 -112.25 129.5625 C-99.57047014 137.28305682 -86.47219273 140.62448014 -71.625 137.875 C-60.0690893 134.83506674 -50.28153336 127.8123982 -43.875 117.6875 C-42.96640691 115.99679412 -42.0904674 114.28808463 -41.25 112.5625 C-40.8375 111.76714844 -40.425 110.97179687 -40 110.15234375 C-35.43308401 99.89264011 -35.62936161 86.66558059 -38.8125 76 C-41.10289655 70.22561996 -44.33751704 65.36114363 -48.25 60.5625 C-48.75015625 59.92570312 -49.2503125 59.28890625 -49.765625 58.6328125 C-56.88046701 50.54776477 -68.66223633 45.53983203 -79.25 44.5625 C-80.33474609 44.45808594 -80.33474609 44.45808594 -81.44140625 44.3515625 C-96.55548187 43.64858224 -109.19032578 50.82109579 -119.25 61.5625 Z M-189.25 88.5625 C-189.91 89.2225 -190.57 89.8825 -191.25 90.5625 C-191.16362179 93.63224858 -190.09980145 94.72716602 -188.01953125 97.0078125 C-173.11590294 110.51361041 -150.47884801 129.5625 -129.25 129.5625 C-130.52471529 126.11895633 -132.03351485 123.23900801 -134.0625 120.1875 C-141.75116306 107.36046752 -144.7443332 93.23031664 -141.83398438 78.44970703 C-139.61969011 69.6587878 -135.55132012 61.49998764 -131.25 53.5625 C-152.73116258 53.5625 -174.74665746 74.754359 -189.25 88.5625 Z M-36.25 53.5625 C-35.87488281 54.20574219 -35.49976563 54.84898438 -35.11328125 55.51171875 C-26.07589574 71.46941962 -21.04117596 87.56187589 -25.8125 105.75 C-27.77572922 111.90804273 -30.55013826 117.34068443 -33.76171875 122.91796875 C-35.34855187 125.54200093 -35.34855187 125.54200093 -36.25 128.5625 C-13.80332808 125.91854105 5.45171446 110.57415304 21.265625 95.60546875 C22.97625865 93.70416047 22.97625865 93.70416047 22.6328125 91.5 C19.12550836 83.80255376 11.20620105 78.60853082 4.75 73.5625 C3.8321875 72.81742188 2.914375 72.07234375 1.96875 71.3046875 C-8.34090141 63.17592388 -22.63342287 52.91409157 -36.25 53.5625 Z M4.1965332 124.22583008 C-24.67682463 147.63581214 -68.02631493 153.50225359 -103.9453125 150.1015625 C-131.64787512 146.85167056 -158.63801322 136.80816574 -180.55859375 119.48046875 C-183.08509509 117.68001569 -185.32901836 116.56443381 -188.25 115.5625 C-184.92379654 135.83650206 -175.68622321 152.13752173 -162.25 167.5625 C-161.72148437 168.17609375 -161.19296875 168.7896875 -160.6484375 169.421875 C-142.80470786 188.63819922 -115.24008933 199.90971894 -89.3125 200.8984375 C-58.76500985 201.35485411 -32.08590285 193.62191513 -9.85546875 172.1015625 C-8.56576172 170.84472656 -8.56576172 170.84472656 -7.25 169.5625 C-6.60675781 168.99273437 -5.96351563 168.42296875 -5.30078125 167.8359375 C8.67670549 155.12913137 20.0541986 132.21631542 21.75 113.5625 C15.70542873 113.5625 8.6599412 120.57937564 4.1965332 124.22583008 Z " fill="currentColor" transform="translate(592.25,33.4375)"/>
<path d="M0 0 C2.5419668 1.79685298 2.5419668 1.79685298 5.4453125 3.203125 C8.75737426 5.15793628 10.49014629 6.44529664 12.55078125 9.7265625 C13.77096843 16.63862165 13.16358824 23.77261735 12.55078125 30.7265625 C9.68876725 29.35564501 7.84591428 28.16377851 5.73828125 25.7890625 C-13.38612656 6.25775239 -41.05928441 -4.710656 -68.15869141 -5.28466797 C-97.74096673 -5.1396259 -124.59568157 5.7923009 -145.69921875 26.4765625 C-167.57261432 48.70309555 -178.91636049 76.62693525 -178.81274414 107.73388672 C-178.37464009 135.30912927 -166.3740353 159.00024003 -146.96826172 178.25830078 C-126.07210415 198.45590471 -98.8148565 210.10638887 -69.69921875 211.0390625 C-41.05831595 210.38638777 -14.56632152 199.16760824 6.61328125 180.1015625 C7.58265625 179.3178125 8.55203125 178.5340625 9.55078125 177.7265625 C10.54078125 178.0565625 11.53078125 178.3865625 12.55078125 178.7265625 C14.48561069 192.52273767 14.48561069 192.52273767 11.140625 197.90625 C-4.05625309 215.30611533 -34.08583679 224.94836613 -56.44921875 226.7265625 C-93.84251581 228.9249818 -127.12381324 218.41318047 -155.32421875 193.59375 C-176.98831305 173.99734942 -193.83483496 145.7936933 -195.67041016 116.1550293 C-195.78942823 112.17754647 -195.83682549 108.20539003 -195.82421875 104.2265625 C-195.82301025 103.52035767 -195.82180176 102.81415283 -195.82055664 102.08654785 C-195.68143065 72.06757142 -185.24617163 45.33134174 -165.44921875 22.7265625 C-164.80339844 21.94796875 -164.15757812 21.169375 -163.4921875 20.3671875 C-123.74074831 -26.58970604 -49.81179188 -34.31646967 0 0 Z " fill="currentColor" transform="translate(195.44921875,21.2734375)"/>
<path d="M0 0 C6.73913396 5.28523667 11.37570131 10.98340451 15.87890625 18.2578125 C14.49702172 21.46825132 12.95468722 23.30717615 10.25390625 25.5078125 C9.62226563 26.02859375 8.990625 26.549375 8.33984375 27.0859375 C7.85773438 27.47265625 7.375625 27.859375 6.87890625 28.2578125 C2.99742586 27.344523 1.33985944 25.78249442 -0.87109375 22.6328125 C-9.22906454 10.92316814 -20.98694373 4.52469236 -34.9609375 1.7265625 C-48.9424338 -0.34733065 -61.24008753 3.23459731 -72.68359375 11.3203125 C-81.25372857 18.23266649 -85.40724798 27.77921278 -87.80859375 38.2578125 C-88.92763604 49.00061845 -87.6492479 59.11847396 -81.01953125 68.00927734 C-73.75247379 76.61647889 -63.57720517 81.55915085 -53.74609375 86.6328125 C-52.26460908 87.40864609 -50.78349684 88.18519123 -49.30273438 88.96240234 C-41.3323413 93.12878768 -33.30757659 97.17729655 -25.23828125 101.1484375 C-24.43000885 101.54741241 -23.62173645 101.94638733 -22.78897095 102.35745239 C-18.89329053 104.27903108 -14.99197343 106.18660848 -11.07666016 108.06787109 C-2.95877927 112.01423897 4.11860301 116.16607381 10.87890625 122.2578125 C11.53987305 122.83450684 12.20083984 123.41120117 12.88183594 124.00537109 C21.50582018 131.69696515 27.25246792 143.09303894 28.03857422 154.59375 C29.00171842 175.88683018 24.40617553 193.0969547 9.87890625 209.2578125 C9.36070312 209.86882812 8.8425 210.47984375 8.30859375 211.109375 C-4.36195154 225.05334192 -24.09663866 232.58457238 -42.55078125 233.54296875 C-65.92195257 234.25012222 -85.45042615 226.95707766 -102.421875 211.109375 C-110.32084344 202.8576371 -116.09369263 192.23214158 -119.12109375 181.2578125 C-113.96399752 177.05070768 -111.83902178 176.13340643 -105.12109375 176.2578125 C-104.63640625 177.15242187 -104.15171875 178.04703125 -103.65234375 178.96875 C-94.63595008 195.34504768 -83.76631026 209.19025033 -65.16601562 214.85302734 C-48.51614665 219.17256882 -31.59111755 217.79873954 -16.39501953 209.29150391 C-2.89504213 201.17483679 4.98019097 189.6690024 10.0546875 174.81640625 C12.37728746 164.78849836 11.95148466 154.30919461 6.87890625 145.2578125 C6.46640625 144.49082031 6.05390625 143.72382813 5.62890625 142.93359375 C-0.72231405 132.30612569 -11.28304815 126.73986386 -22.05859375 121.3828125 C-23.26349357 120.77281941 -24.46774977 120.16155348 -25.67138672 119.54907227 C-28.0595072 118.33473598 -30.45000878 117.12562059 -32.84228516 115.91943359 C-37.16962788 113.7264407 -41.46124377 111.46991614 -45.74609375 109.1953125 C-50.98353381 106.41662868 -56.2399238 103.68263386 -61.52734375 101 C-62.64028809 100.431604 -63.75323242 99.86320801 -64.89990234 99.27758789 C-67.06554872 98.1726437 -69.23493068 97.07497802 -71.40869141 95.98608398 C-86.54955585 88.23525827 -97.84788206 78.3123956 -104.12109375 62.2578125 C-108.60376028 47.33403791 -105.31116851 29.92179423 -98.62109375 16.17578125 C-92.7149723 5.30687719 -85.06271123 -2.06230326 -74.12109375 -7.7421875 C-73.06148438 -8.31066406 -73.06148438 -8.31066406 -71.98046875 -8.890625 C-48.67338547 -20.37152158 -20.28232567 -15.07310163 0 0 Z " fill="currentColor" transform="translate(347.12109375,14.7421875)"/>
</svg>
