<svg width="223" height="40" viewBox="0 0 223 40" fill="none" xmlns="http://www.w3.org/2000/svg">
<g clip-path="url(#clip0_6001_29688)">
<path d="M40.9694 0.333646H79.6719V13.9759H62.9898C63.0269 13.7535 63.064 13.5311 63.064 13.3086C63.064 11.7887 61.8406 10.5653 60.3207 10.5653C58.8008 10.5653 57.5774 11.7887 57.5774 13.3086C57.5774 14.8286 58.8008 16.0519 60.3207 16.0519H79.6719V39.7405H40.9694V26.0983H57.6886C57.6515 26.3207 57.6145 26.5431 57.6145 26.7655C57.6145 28.2855 58.8378 29.5088 60.3578 29.5088C61.8777 29.5088 63.101 28.2855 63.101 26.7655C63.101 25.2456 61.8777 24.0223 60.3578 24.0223H41.0065L40.9694 0.333646ZM0.190918 0.333646H18.4671V16.0148H20.6543V0.333646H38.9305V39.7034H20.6543V24.0223H18.4671V39.7034H0.190918V0.333646ZM91.2382 17.9425V0.333646H94.1298V7.26599H99.8758V0.333646H102.767V17.9425H99.8758V10.2317H94.1298V17.9425H91.2382ZM118.337 17.9425H115.186L113.926 13.9388H108.143L106.956 17.9425H103.842L109.477 0.333646H112.554L118.337 17.9425ZM112.999 10.9731L110.997 4.44857L109.032 10.9731H112.999ZM133.203 17.9425H130.052L128.792 13.9388H123.008L121.822 17.9425H118.708L124.343 0.333646H127.42L133.203 17.9425ZM127.865 10.9731L125.863 4.44857L123.898 10.9731H127.865ZM140.172 11.4921V8.52642H146.475V15.5329C145.844 16.2743 144.955 16.9045 143.768 17.4606C142.619 18.0167 141.433 18.2762 140.284 18.2762C138.875 18.2762 137.615 17.9425 136.502 17.2382C135.39 16.5338 134.538 15.4958 133.907 14.0871C133.277 12.6784 132.944 11.0473 132.944 9.15663C132.944 7.22892 133.277 5.56071 133.907 4.18907C134.538 2.81743 135.39 1.77943 136.428 1.11214C137.466 0.444856 138.69 0.0741416 140.135 0.0741416C141.841 0.0741416 143.249 0.519 144.287 1.40871C145.325 2.29843 145.993 3.55885 146.289 5.26413L143.398 5.93142C143.175 5.04171 142.767 4.33735 142.211 3.85543C141.618 3.3735 140.951 3.15107 140.135 3.15107C138.912 3.15107 137.874 3.633 137.133 4.59685C136.354 5.56071 135.983 7.04356 135.983 9.00834C135.983 11.1214 136.391 12.7526 137.244 13.8647C137.948 14.8286 138.912 15.3105 140.135 15.3105C140.691 15.3105 141.285 15.1622 141.915 14.9027C142.545 14.6432 143.064 14.2725 143.546 13.7906V11.5663C143.509 11.4921 140.172 11.4921 140.172 11.4921ZM148.402 13.2716V9.89806H153.852V13.2716H148.402ZM155.149 12.1965L158.004 11.8628C158.337 14.1242 159.375 15.2363 161.155 15.2363C162.045 15.2363 162.712 15.0139 163.231 14.532C163.75 14.0871 163.972 13.494 163.972 12.8267C163.972 12.4189 163.898 12.0853 163.713 11.7887C163.527 11.4921 163.268 11.2697 162.897 11.0843C162.526 10.899 161.674 10.6024 160.265 10.1946C159.042 9.82391 158.115 9.41613 157.522 8.97127C156.929 8.52641 156.484 7.97035 156.15 7.22892C155.817 6.52456 155.631 5.74606 155.631 4.93049C155.631 3.96664 155.854 3.114 156.298 2.3355C156.743 1.557 157.336 1.00093 158.115 0.593144C158.893 0.185359 159.82 0 160.969 0C162.675 0 164.009 0.444855 164.936 1.37164C165.9 2.29842 166.382 3.59593 166.456 5.33828L163.527 5.48656C163.416 4.52271 163.12 3.89249 162.712 3.52178C162.267 3.15107 161.674 2.96571 160.895 2.96571C160.117 2.96571 159.487 3.114 159.079 3.44764C158.671 3.78128 158.449 4.18907 158.449 4.671C158.449 5.15292 158.634 5.56071 159.042 5.89435C159.412 6.22799 160.302 6.59871 161.711 6.96942C163.157 7.3772 164.232 7.82206 164.899 8.30399C165.566 8.78592 166.048 9.37906 166.382 10.1205C166.716 10.8619 166.901 11.7516 166.901 12.8267C166.901 14.3466 166.419 15.6441 165.492 16.6821C164.565 17.7201 163.083 18.2391 161.081 18.2391C157.522 18.2391 155.557 16.2373 155.149 12.1965ZM171.831 17.9425V3.29936H167.531V0.333646H179.023V3.29936H174.76V17.9425H171.831ZM180.21 17.9425V0.333646H186.363C187.92 0.333646 189.07 0.481927 189.737 0.815569C190.404 1.14921 190.96 1.66821 191.405 2.44671C191.85 3.22521 192.035 4.15199 192.035 5.26413C192.035 6.63577 191.702 7.74792 191.034 8.60056C190.367 9.4532 189.44 9.9722 188.217 10.1946C188.847 10.6395 189.366 11.1214 189.774 11.6775C190.182 12.1965 190.738 13.1603 191.442 14.532L193.184 17.9796H189.7L187.587 14.1613C186.808 12.7896 186.326 11.8999 186.03 11.5663C185.733 11.2326 185.474 10.9731 185.177 10.8619C184.88 10.7136 184.399 10.6766 183.694 10.6766H183.101V18.0538H180.21V17.9425ZM183.138 7.78499H185.288C186.623 7.78499 187.438 7.71085 187.809 7.59963C188.18 7.48842 188.476 7.26599 188.699 6.89528C188.921 6.52456 189.033 6.07971 189.033 5.48656C189.033 4.93049 188.921 4.48564 188.699 4.15199C188.476 3.81835 188.18 3.55885 187.772 3.44764C187.513 3.3735 186.697 3.29936 185.4 3.29936H183.101V7.78499H183.138ZM194.26 17.9425V0.333646H204.973V3.29936H197.151V7.19185H204.417V10.1576H197.151V14.9398H205.233V17.9055L194.26 17.9425ZM207.086 17.9425V0.333646H209.978V17.9425H207.086ZM215.427 17.9425V3.29936H211.127V0.333646H222.619V3.29936H218.319V17.9425H215.427Z" fill="#0062AE"/>
<path d="M98.3183 33.2158V30.2501H104.583V37.2566C103.249 38.8507 100.654 39.9999 98.3924 39.9999C93.9439 39.9999 91.0894 36.441 91.0894 30.8803C91.0894 27.7292 91.9791 25.2084 93.7585 23.5031C94.9448 22.3168 96.3535 21.7978 98.2812 21.7978C101.729 21.7978 103.805 23.5772 104.435 26.9507L101.543 27.618C101.136 25.8386 99.9494 24.8377 98.2812 24.8377C95.6121 24.8377 94.1292 26.9507 94.1292 30.6949C94.1292 34.6245 95.6491 36.96 98.2812 36.96C99.4304 36.96 100.728 36.3669 101.692 35.4401V33.2158H98.3183ZM107.401 39.7033V22.0573H113.555C115.26 22.0573 116.224 22.2056 116.965 22.5763C118.337 23.2436 119.227 24.9489 119.227 27.0249C119.227 29.7311 117.855 31.5105 115.408 31.9183C116.743 32.8822 117.299 33.5865 118.633 36.2557L120.413 39.7033H116.928L114.815 35.8479C114.296 34.9211 113.851 34.1055 113.666 33.846C112.887 32.5485 112.442 32.3261 110.923 32.3261H110.329V39.7033H107.401ZM110.292 29.5087H112.442L113.443 29.4716C114.667 29.4716 115.075 29.3604 115.556 28.9897C115.964 28.6189 116.187 27.9517 116.187 27.2102C116.187 26.3947 115.927 25.8015 115.445 25.4308C115.037 25.1342 114.63 25.023 113.703 25.023H112.554H110.255L110.292 29.5087ZM121.043 30.8062C121.043 28.2853 121.525 26.3205 122.6 24.6894C123.898 22.6875 125.603 21.7607 128.05 21.7607C132.387 21.7607 135.056 25.2455 135.056 30.8803C135.056 33.4012 134.537 35.4772 133.499 37.0712C132.276 38.9989 130.459 39.9628 128.05 39.9628C123.675 39.9999 121.043 36.5522 121.043 30.8062ZM124.046 30.8803C124.046 34.6616 125.566 36.96 128.05 36.96C130.57 36.96 132.053 34.6616 132.053 30.8062C132.053 26.9878 130.607 24.8377 128.05 24.8377C125.529 24.8006 124.046 26.9878 124.046 30.8803ZM137.169 22.0573V31.4734C137.169 34.4392 137.317 35.8849 137.725 36.9229C138.652 39.0731 140.246 39.9999 143.1 39.9999C145.288 39.9999 146.808 39.2955 147.771 37.7756C148.513 36.5893 148.698 35.2547 148.698 31.3622V22.0944H145.77V31.8071C145.77 32.8451 145.733 33.4012 145.733 33.6977C145.695 34.4021 145.621 34.884 145.51 35.2547C145.139 36.3669 144.287 36.96 142.989 36.96C141.284 36.96 140.32 35.9961 140.135 34.1426C140.061 33.6607 140.061 33.2899 140.061 31.6217V22.0573H137.169ZM151.442 39.7033V22.0573H156.113C158.893 22.0573 159.597 22.1685 160.45 22.7617C161.747 23.6514 162.489 25.3567 162.489 27.5068C162.489 29.8794 161.599 31.6588 160.005 32.5485C159.189 32.9563 158.337 33.1046 156.224 33.1046H154.333V39.7404H151.442V39.7033ZM154.37 25.023V30.0647H155.964C157.299 30.0647 157.781 29.9906 158.263 29.8052C159.041 29.4345 159.523 28.6189 159.523 27.5439C159.523 26.6171 159.189 25.9127 158.559 25.4679C158.04 25.0972 157.67 25.0601 155.779 25.0601L154.37 25.023Z" fill="#7C7C7B"/>
</g>
<defs>
<clipPath id="clip0_6001_29688">
<rect width="222.428" height="40" fill="white" transform="translate(0.190918)"/>
</clipPath>
</defs>
</svg>
