<svg width="220" height="40" viewBox="0 0 220 40" fill="none" xmlns="http://www.w3.org/2000/svg">
<g clip-path="url(#clip0_6369_31329)">
<path d="M52.4403 0H60.1515L59.7544 1.95346L59.6652 2.39011C59.3977 3.72018 59.1531 5.03877 58.9287 6.36884H51.1945C51.5541 4.22579 51.9714 2.10284 52.4403 0ZM57.7634 39.1295H50.0263C49.6523 35.1996 49.4595 31.2122 49.4595 27.1818C49.4595 21.129 49.8911 15.1737 50.7284 9.35075H58.4654H61.9786L61.124 11.7379H58.146C57.5188 16.7998 57.1965 21.9534 57.1965 27.1818C57.1936 31.2122 57.3864 35.1996 57.7634 39.1295ZM162.489 21.5512C162.181 16.0499 160.267 13.2978 156.748 13.2978C153.074 13.2978 151.109 16.0471 150.853 21.5512H162.489ZM170.171 25.8316H150.778C150.778 31.6747 153.399 34.5963 158.636 34.5963C161.375 34.5963 164.292 33.8925 167.388 32.4819L168.663 36.9663C165.277 38.8681 161.458 39.8189 157.206 39.8189C152.409 39.8189 148.735 38.4256 146.183 35.6391C143.717 32.9588 142.485 29.1956 142.485 24.355C142.485 19.6351 143.659 15.8719 146.004 13.0681C148.522 10.0603 152.101 8.55787 156.748 8.55787C161.24 8.55787 164.635 9.87358 166.928 12.505C169.089 15.0014 170.168 18.5176 170.171 23.0508V25.8316ZM140.733 16.5355C138.42 16.5355 136.472 17.1962 134.889 18.5234C132.864 20.2212 131.854 22.6601 131.854 25.8345V39.1323H123.61V9.35075H131.65V15.5415C132.058 13.7431 132.933 12.1804 134.276 10.8561C135.738 9.42831 137.355 8.71587 139.125 8.71587C139.838 8.71587 140.376 8.7647 140.73 8.86813V16.5355H140.733ZM108.519 28.7388C108.519 24.8147 106.862 22.8525 103.541 22.8525C100.155 22.8525 98.4627 24.8319 98.4627 28.7877C98.4627 32.4044 100.155 34.2143 103.541 34.2143C106.862 34.2143 108.519 32.3901 108.519 28.7388ZM116.555 39.1295H109.132L108.622 35.2082C107.874 36.5842 106.649 37.6615 104.948 38.4429C103.435 39.1382 101.818 39.4857 100.1 39.4885C93.4476 39.4885 90.1243 36.0671 90.1243 29.2214C90.1243 25.9609 91.2292 23.3812 93.4418 21.4765C95.5336 19.6783 98.2383 18.7762 101.556 18.7762C104.447 18.7762 106.752 19.6265 108.47 21.3243V17.3743C108.47 14.9468 106.692 13.7317 103.138 13.7317C99.9906 13.7317 97.2514 14.3522 94.9208 15.5903L94.1813 10.9021C97.6686 9.44267 101.349 8.71299 105.23 8.71299C112.783 8.71299 116.558 12.347 116.558 19.6178V39.1295H116.555ZM87.06 37.4259C86.1737 38.0033 84.8214 38.5464 83.003 39.0576C81.1989 39.5662 79.7027 39.8218 78.5116 39.8218C67.9807 39.8218 62.7181 34.5992 62.7181 24.1539C62.7181 19.2444 64.0877 15.4237 66.8268 12.6889C69.5631 9.93965 73.3929 8.56361 78.3073 8.56361C81.9126 8.56361 84.7035 9.25019 86.6773 10.6262L85.9091 15.619C84.3093 14.3637 82.1916 13.7345 79.556 13.7345C74.3337 13.7345 71.724 17.2594 71.724 24.3062C71.724 30.9968 74.0201 34.3436 78.6122 34.3436C79.7027 34.3436 81.0292 34.1482 82.5916 33.7575C84.1741 33.3696 85.3394 32.9445 86.0875 32.4849L87.06 37.4259Z" fill="black"/>
</g>
<defs>
<clipPath id="clip0_6369_31329">
<rect width="121.081" height="40" fill="white" transform="translate(49.4595)"/>
</clipPath>
</defs>
</svg>
