<svg width="1em" height="1em" viewBox="0 0 64 64" fill="none" xmlns="http://www.w3.org/2000/svg"><path d="M30.0389 1.28C18.5108 1.28 8.47239 7.60201 3.20367 16.9349L3.39446 16.9788C6.76262 17.7553 9.96568 19.1362 12.8459 21.0445V42.5782C10.4206 43.9994 7.85599 45.318 5.19228 46.3143L3.2 47.0651C8.46872 56.398 18.5072 62.72 30.0352 62.72C47.0191 62.72 60.8 48.9661 60.8 31.978C60.8037 15.0339 47.0265 1.28 30.0389 1.28ZM12.8715 21.0592L12.8789 21.0665H12.8752H12.8715V21.0592ZM30.0389 52.2114C22.4624 52.2114 16.2104 48.4497 12.9156 42.6441C15.616 39.9373 17.3001 36.0914 17.3001 31.8242C17.3001 27.557 15.66 23.81 13.0256 21.1141L12.9046 21.0116C14.6363 17.9531 17.0175 15.6529 19.9087 14.1145C22.8146 12.5688 26.2378 11.7923 30.0352 11.7923C41.1817 11.7923 50.2662 20.8614 50.2662 31.9817C50.2662 43.1459 41.1854 52.2114 30.0389 52.2114Z" fill="url(#paint0_linear_24_2554)"></path><defs><linearGradient id="paint0_linear_24_2554" x1="3.2" y1="32" x2="60.8" y2="32" gradientUnits="userSpaceOnUse"><stop stop-color="#BED9E5"></stop><stop offset="0.52" stop-color="#B0D4E5"></stop><stop offset="1" stop-color="#5DAFD2"></stop></linearGradient></defs></svg>