<svg width="147" height="40" viewBox="0 0 147 40" fill="none" xmlns="http://www.w3.org/2000/svg">
<g clip-path="url(#clip0_6001_29662)">
<path fill-rule="evenodd" clip-rule="evenodd" d="M29.1933 21.5112C31.6766 19.2925 34.2752 17.2838 37.6985 17.4998C36.0333 17.0095 34.331 16.655 32.6085 16.4398C32.4925 13.5632 29.3073 12.0625 26.5786 12.7152C24.9036 13.2578 23.3585 14.1402 22.04 15.3071C24.891 16.7675 27.3457 18.8969 29.1939 21.5132" fill="#757474"/>
<path fill-rule="evenodd" clip-rule="evenodd" d="M17.7116 24.9121C17.7112 23.0953 18.0969 21.2991 18.843 19.6426C19.5891 17.9861 20.6787 16.5071 22.0395 15.3034C16.5363 12.3447 9.08505 10.8534 0.297852 10.3954C5.42711 20.1401 11.7123 26.4781 17.8976 27.0987C17.774 26.3768 17.712 25.6458 17.7123 24.9134" fill="#AFAFAE"/>
<path fill-rule="evenodd" clip-rule="evenodd" d="M24.9967 25.0912C22.9609 26.6173 20.431 27.3332 17.8975 27.0999C18.4133 30.0786 19.9644 32.7794 22.2771 34.7262C24.5898 36.6729 27.5156 37.7404 30.5386 37.7406C30.9992 37.7407 31.4594 37.7158 31.9172 37.6659C28.3173 36.9412 25.2653 32.5992 26.7673 29.6059C28.3006 26.5439 30.8639 24.1246 29.5113 21.9926C29.4082 21.8303 29.3026 21.6699 29.1946 21.5112C27.8621 22.7813 26.46 23.9763 24.9947 25.0906" fill="#AFAFAE"/>
<path fill-rule="evenodd" clip-rule="evenodd" d="M9.02139 11.2767C14.0707 12.0767 18.4652 13.382 22.0392 15.3047C22.99 14.4632 24.0609 13.768 25.2165 13.242C25.1543 13.1629 25.0916 13.084 25.0285 13.0053C21.1165 8.13333 14.8386 3.85067 6.92676 0C7.20562 3.82481 7.90813 7.60685 9.02139 11.2767Z" fill="#757474"/>
<path fill-rule="evenodd" clip-rule="evenodd" d="M25.2173 13.2427C24.0617 13.7688 22.9909 14.4639 22.04 15.3053C24.8915 16.7652 27.3465 18.8947 29.1946 21.5113C28.5387 18.4809 27.1759 15.6483 25.2173 13.2447" fill="#3A3939"/>
<path fill-rule="evenodd" clip-rule="evenodd" d="M22.0389 15.3047C20.4013 16.7555 19.1612 18.6003 18.4362 20.6645C17.7111 22.7287 17.5251 24.9438 17.8957 27.1C20.4292 27.3333 22.9591 26.6175 24.9949 25.0914C26.4601 23.977 27.8623 22.7821 29.1948 21.512C27.3469 18.8955 24.8921 16.766 22.041 15.306" fill="#757474"/>
<path fill-rule="evenodd" clip-rule="evenodd" d="M54.044 16.8804H48.0506V7.49538H46.2979V18.4639H54.044V16.8804ZM68.4706 7.49538H66.7186V13.6196C66.7611 14.5077 66.4788 15.3809 65.9247 16.0762C65.6705 16.3804 65.3505 16.6227 64.9888 16.7846C64.627 16.9466 64.2332 17.0241 63.837 17.0111C63.4307 17.0266 63.026 16.9516 62.6521 16.7915C62.2783 16.6315 61.9446 16.3904 61.6753 16.0857C61.1038 15.3954 60.8117 14.5161 60.8567 13.621V7.49538H59.104V13.6196C59.0426 14.968 59.5096 16.2871 60.4056 17.2966C60.8439 17.7619 61.3771 18.1276 61.9689 18.3691C62.5608 18.6106 63.1976 18.7222 63.8363 18.6963C64.464 18.7205 65.0894 18.6078 65.6691 18.3661C66.2488 18.1244 66.7691 17.7595 67.1937 17.2966C68.0753 16.2801 68.5325 14.9637 68.4706 13.6196V7.49538ZM86.4188 7.49538H84.8934L80.4058 15.798L75.9378 7.49538H74.3986V18.4639H76.1013V11.46L79.8683 18.469H80.9492L84.7161 11.46V18.469H86.4195L86.4188 7.49538ZM94.2136 7.49538H92.4652V18.4683H94.2172L94.2136 7.49538ZM107.003 12.8177C107.483 12.7216 107.911 12.4538 108.207 12.0644C108.571 11.6107 108.76 11.0408 108.739 10.4591C108.756 10.0576 108.686 9.6572 108.533 9.28551C108.38 8.91383 108.149 8.57966 107.854 8.30603C107.196 7.74081 106.346 7.45053 105.48 7.49538H100.256V18.4639H105.595C106.527 18.5279 107.449 18.2353 108.174 17.6453C108.472 17.3656 108.707 17.0246 108.861 16.6458C109.015 16.267 109.085 15.8594 109.067 15.4508C109.095 14.8009 108.879 14.1639 108.461 13.6654C108.093 13.2265 107.572 12.9452 107.003 12.8794V12.8177ZM102.008 9.00192H105.3C105.757 8.98284 106.205 9.13867 106.552 9.43775C106.71 9.57774 106.835 9.75079 106.919 9.94462C107.002 10.1385 107.042 10.3483 107.036 10.5593C107.045 10.7852 107.006 11.0105 106.923 11.2207C106.84 11.4309 106.713 11.6213 106.552 11.7796C106.382 11.9378 106.182 12.0606 105.964 12.1408C105.747 12.221 105.515 12.257 105.283 12.2467H102.007L102.008 9.00192ZM102.008 16.961V13.653H105.467C105.943 13.6322 106.408 13.7932 106.769 14.1034C106.934 14.2529 107.064 14.4367 107.151 14.6418C107.237 14.847 107.277 15.0686 107.269 15.291C107.278 15.5165 107.238 15.7414 107.153 15.9504C107.068 16.1594 106.939 16.3477 106.775 16.5026C106.398 16.8257 105.911 16.99 105.416 16.961H102.008ZM116.338 7.49538H114.586V18.4683H116.338V7.49538ZM131.81 18.4639L127.846 14.075C128.775 14.0682 129.67 13.7214 130.36 13.1002C130.668 12.7878 130.909 12.4172 131.071 12.0101C131.232 11.6029 131.311 11.1676 131.302 10.7297C131.293 10.2917 131.196 9.86007 131.017 9.46006C130.839 9.06004 130.582 8.69978 130.262 8.40047C129.498 7.76975 128.526 7.44586 127.536 7.49174H122.378V18.4603H124.135V14.0881H125.724L129.638 18.4603L131.81 18.4639ZM124.135 12.5075V9.08545H127.541C128.069 9.06114 128.587 9.23005 128.999 9.56051C129.18 9.7122 129.324 9.90312 129.421 10.1188C129.517 10.3345 129.563 10.5694 129.556 10.8055C129.564 11.0403 129.517 11.2737 129.421 11.4878C129.324 11.7019 129.18 11.891 128.999 12.0404C128.585 12.3657 128.067 12.5313 127.541 12.5068L124.135 12.5075ZM136.843 7.49538V18.4639H140.674C142.289 18.5463 143.872 17.9971 145.088 16.9327C145.61 16.4146 146.024 15.7985 146.306 15.1197C146.589 14.441 146.734 13.713 146.734 12.9778C146.734 12.2426 146.589 11.5147 146.306 10.8359C146.024 10.1572 145.61 9.54103 145.088 9.02298C143.872 7.9585 142.289 7.40931 140.674 7.49174L136.843 7.49538ZM138.59 16.8804V9.08545H140.67C141.813 9.02612 142.935 9.41373 143.798 10.1663C144.542 10.9149 144.96 11.9274 144.96 12.9829C144.96 14.0384 144.542 15.051 143.798 15.7995C142.935 16.5522 141.813 16.9399 140.67 16.8804H138.59Z" fill="#757474"/>
<path d="M60.3438 24.6353H59.0908V32.8101H60.439V27.4537L63.3757 32.8101H63.9568L66.8812 27.4508V32.8101H68.2301V24.6353H66.9938L63.6626 30.6847L60.3438 24.6353Z" fill="#A3A3A3"/>
<path d="M74.3968 29.3205H78.7362V28.111H74.3968V25.8701H79.1045V24.6353H72.9971V32.8094H79.1292V31.5745H74.3968V29.3205Z" fill="#A3A3A3"/>
<path d="M86.6757 24.6316H83.7041V32.8064H86.6757C89.3706 32.8064 91.1793 31.1633 91.1793 28.719C91.1793 26.2747 89.3684 24.6316 86.6757 24.6316ZM86.6757 31.5723H85.1038V25.8672H86.6757C88.5549 25.8672 89.7687 26.9873 89.7687 28.7197C89.7687 30.4522 88.5549 31.5723 86.6757 31.5723Z" fill="#A3A3A3"/>
<path d="M96.967 24.6346H95.5673V32.8095H96.967V24.6346Z" fill="#A3A3A3"/>
<path d="M108.286 27.822L109.648 27.4407C109.432 26.556 108.916 25.7738 108.187 25.2274C107.459 24.6811 106.563 24.4046 105.653 24.4451C105.092 24.4451 104.535 24.5557 104.016 24.7706C103.497 24.9856 103.026 25.3007 102.629 25.6979C102.232 26.095 101.917 26.5666 101.702 27.0855C101.487 27.6045 101.376 28.1607 101.376 28.7224C101.376 29.2841 101.487 29.8403 101.702 30.3593C101.917 30.8782 102.232 31.3498 102.629 31.747C103.026 32.1441 103.497 32.4592 104.016 32.6742C104.535 32.8891 105.092 32.9998 105.653 32.9998C106.579 33.036 107.488 32.7436 108.219 32.1744C108.95 31.6052 109.456 30.7958 109.648 29.8894L108.289 29.6112C108.175 30.2197 107.846 30.7671 107.363 31.1538C106.88 31.5405 106.273 31.7406 105.655 31.7177C104.881 31.6907 104.148 31.3643 103.61 30.8073C103.072 30.2503 102.771 29.5062 102.771 28.7318C102.771 27.9575 103.072 27.2134 103.61 26.6564C104.148 26.0994 104.881 25.773 105.655 25.746C106.269 25.7221 106.872 25.9185 107.354 26.2996C107.836 26.6808 108.167 27.2217 108.286 27.825" fill="#A3A3A3"/>
<path d="M116.545 24.6316L113.005 32.81H114.514L115.262 30.9941H119.235L119.972 32.81H121.48L117.944 24.6316H116.545ZM115.765 29.7614L117.251 26.1352L118.722 29.7614H115.765Z" fill="#A3A3A3"/>
<path d="M126.842 24.6353H125.442V32.8101H131.232V31.5752H126.842V24.6353Z" fill="#A3A3A3"/>
</g>
<defs>
<clipPath id="clip0_6001_29662">
<rect width="146.5" height="40" fill="white" transform="translate(0.463867)"/>
</clipPath>
</defs>
</svg>
