<svg width="231" height="40" viewBox="0 0 231 40" fill="none" xmlns="http://www.w3.org/2000/svg">
<g clip-path="url(#clip0_6001_29691)">
<path d="M1.61067 39.901H0.917603V0H230.621V39.901H46.8582L52.6008 38.9109C67.2542 35.3465 73.6899 23.5644 79.9275 11.0891L86.7592 0.594059H73.3928C71.9077 0.594059 69.4324 4.85149 68.7394 6.23762C62.6998 18.4158 61.8087 37.8218 43.7889 37.9208V39.901H15.076C17.3532 38.5149 18.8384 35.8416 20.0265 33.3663C25.6701 21.3861 26.9572 2.47525 44.482 2.57426V0.594059C34.3829 0.29703 24.2839 5.14852 18.0463 12.9703C14.482 17.5248 12.3037 22.7723 9.43245 27.7228C7.05622 31.9802 4.28394 35.9406 1.61067 39.901ZM101.413 4.65347H93.2938V37.0297H99.9275V13.8614L112.502 36.9307H121.116V4.65347H114.482V28.1188L101.413 4.65347ZM134.977 4.65347H128.046V37.0297H134.977V4.65347ZM141.908 4.65347V37.0297H154.977C162.997 37.0297 170.027 31.0891 170.72 23.0693C172.106 4.55445 155.868 4.05941 141.908 4.65347ZM196.363 10.198V5.0495L195.868 4.55446H176.264V36.9307H196.363V31.6832H183.195V23.0693H194.878C195.868 21.7822 195.274 19.604 195.274 18.0198L194.878 17.5248H183.195V10.297L196.363 10.198ZM209.531 4.65347H202.799L202.304 5.14851V37.0297H209.531V22.7723L221.116 36.9307H230.324L216.165 19.901L230.026 4.55446H221.611L209.531 17.7228V4.65347ZM52.0067 27.9208C61.7097 18.2178 47.3532 2.87129 37.0562 11.9802C25.8681 21.7822 41.5117 38.4158 52.0067 27.9208Z" fill="white"/>
<path d="M1.60992 39.901C4.28319 35.8416 7.05547 31.9802 9.43171 27.8218C12.303 22.8713 14.4812 17.5248 18.0456 13.0693C24.2832 5.24754 34.3822 0.396051 44.4812 0.693081V2.67328C26.9565 2.57427 25.6693 21.4852 20.0258 33.4654C18.8376 35.8416 17.4515 38.5149 15.0753 40L1.60992 39.901Z" fill="#0071BD"/>
<path d="M43.8883 39.901V37.9208C61.9081 37.8218 62.7992 18.4159 68.8388 6.23768C69.5319 4.95055 71.9081 0.594116 73.4923 0.594116H86.8586L80.0269 11.0892C73.7893 23.4654 67.3537 35.3466 52.7002 38.9109L46.9576 39.901H43.8883Z" fill="#0071BD"/>
<path d="M101.413 4.65338L114.482 28.0197V4.65338H121.116V36.9306H112.502L99.9279 13.8613V36.9306H93.3932V4.65338H101.413Z" fill="black"/>
<path d="M141.908 4.65333C155.869 4.15828 172.106 4.55432 170.621 22.9702C170.027 31.089 162.998 36.9306 154.879 36.9306H141.809L141.908 4.65333ZM148.839 31.683H153.592C163.097 31.683 167.453 16.4355 157.948 11.485C157.354 11.188 155.077 10.1979 154.582 10.1979H148.839V31.683Z" fill="black"/>
<path d="M209.532 4.65338V17.8217L221.611 4.65338H230.027L216.166 19.9999L230.324 36.9306H221.116L209.532 22.7722V36.9306H202.304V5.14843L202.799 4.65338H209.532Z" fill="black"/>
<path d="M196.363 10.1979H183.194V17.5247H194.878L195.274 18.0197C195.175 19.6039 195.868 21.7821 194.878 23.0692H183.194V31.6831H196.363V36.9306H176.264V4.65338H195.868L196.363 5.14843V10.1979Z" fill="black"/>
<path d="M52.0067 27.9208C41.5117 38.4158 25.8681 21.7822 37.0562 11.9802C47.3533 2.9703 61.7097 18.2178 52.0067 27.9208Z" fill="#0071BD"/>
<path d="M134.977 4.65338H128.047V37.0296H134.977V4.65338Z" fill="black"/>
<path d="M148.839 31.6832V10.1981H154.581C154.977 10.1981 157.354 11.1882 157.948 11.4852C167.453 16.4357 163.096 31.6832 153.591 31.6832H148.839Z" fill="white"/>
</g>
<defs>
<clipPath id="clip0_6001_29691">
<rect width="229.703" height="40" fill="white" transform="translate(0.917603)"/>
</clipPath>
</defs>
</svg>
