<svg width="145" height="40" viewBox="0 0 145 40" fill="none" xmlns="http://www.w3.org/2000/svg">
<g clip-path="url(#clip0_6001_29679)">
<path d="M63.7067 40H39.3006C38.5352 39.9999 37.7774 39.8491 37.0703 39.5562C36.3632 39.2634 35.7207 38.8341 35.1796 38.2931C34.6384 37.752 34.2092 37.1097 33.9164 36.4028C33.6237 35.6959 33.4731 34.9383 33.4732 34.1732V24.863C33.4737 23.3183 34.0878 21.837 35.1806 20.7448C36.2733 19.6526 37.7553 19.0389 39.3006 19.0386H57.8711C59.4171 19.0386 60.8997 19.6524 61.993 20.7449C63.0863 21.8375 63.7006 23.3194 63.7009 24.8647V32.498H40.464V34.2467L63.7009 34.2207L63.7067 40ZM40.464 26.5388H56.8119V24.7924H40.464V26.5388Z" fill="#9CA3AF"/>
<path d="M30.4923 24.8647V34.175C30.4912 35.7199 29.8766 37.2013 28.7835 38.2935C27.6903 39.3857 26.2081 39.9995 24.6625 40H6.09202C4.54607 39.9997 3.06351 39.3857 1.97031 38.293C0.877099 37.2004 0.262728 35.7185 0.262268 34.1732L0.262268 24.863C0.262728 23.318 0.877093 21.8364 1.97024 20.7442C3.06339 19.6519 4.5458 19.0384 6.09144 19.0386H24.6619C26.208 19.0384 27.6908 19.6521 28.7842 20.7447C29.8775 21.8373 30.492 23.3193 30.4923 24.8647ZM7.25427 34.2432H23.2937V24.7924H7.25427V34.2432Z" fill="#9CA3AF"/>
<path d="M126.217 40H133.208V19.0386H126.217V40Z" fill="#9CA3AF"/>
<path d="M115.727 39.9987H122.72V0.339355H115.727V39.9987Z" fill="#9CA3AF"/>
<path d="M126.217 16.0587H133.208V0.339355H126.217V16.0587Z" fill="#D8232A"/>
<path d="M90.0245 19.0383L72.5203 19.0343C71.7565 19.0297 70.9993 19.176 70.2922 19.4646C69.5851 19.7533 68.9419 20.1787 68.3997 20.7164C67.8574 21.2541 67.4268 21.8935 67.1324 22.598C66.838 23.3025 66.6857 24.0582 66.6841 24.8217V39.9997H73.6773V24.791H90.0245V19.0372" fill="#9CA3AF"/>
<path d="M99.3799 0.339478H92.3891V40H99.3799V24.7925H113.365V19.0386H99.3799V0.339478Z" fill="#9CA3AF"/>
<path d="M140.53 8.80716C141.689 8.8009 142.799 8.33614 143.616 7.51445C144.434 6.69277 144.893 5.58099 144.893 4.42209V4.39722C144.898 3.82041 144.788 3.24839 144.57 2.71428C144.352 2.18016 144.03 1.69457 143.623 1.2856C143.216 0.876644 142.732 0.552441 142.199 0.331768C141.666 0.111095 141.094 -0.00166416 140.517 1.85592e-05C139.94 0.00170128 139.369 0.117793 138.837 0.341571C138.305 0.56535 137.823 0.89237 137.418 1.3037C137.014 1.71503 136.695 2.20249 136.48 2.73787C136.265 3.27324 136.159 3.84589 136.167 4.42267V4.44753C136.165 5.02064 136.277 5.58843 136.496 6.11823C136.714 6.64803 137.036 7.12939 137.441 7.53462C137.847 7.93984 138.328 8.26094 138.858 8.47943C139.388 8.69792 139.956 8.8095 140.53 8.80774V8.80716ZM140.538 8.18031C140.048 8.18382 139.562 8.0896 139.109 7.90318C138.656 7.71676 138.245 7.44188 137.9 7.09464C137.555 6.7474 137.282 6.33478 137.098 5.88094C136.914 5.4271 136.823 4.94116 136.829 4.45158V4.42845C136.826 3.44551 137.214 2.50152 137.907 1.80415C138.6 1.10677 139.541 0.713138 140.525 0.709841C141.508 0.706544 142.452 1.09385 143.15 1.78656C143.848 2.47927 144.242 3.42065 144.245 4.40358V4.42845C144.25 4.91856 144.157 5.40474 143.973 5.85902C143.789 6.3133 143.517 6.7267 143.172 7.07541C142.828 7.42413 142.418 7.70128 141.965 7.8909C141.513 8.08053 141.028 8.17888 140.538 8.18031ZM138.824 6.55073H139.677V5.02234H140.603L141.656 6.55073H142.685L141.506 4.87372C141.808 4.80265 142.076 4.62878 142.263 4.38196C142.451 4.13514 142.546 3.83078 142.534 3.52113C142.534 2.59589 141.806 2.11823 140.829 2.11823H138.824V6.55073ZM139.677 4.32089V2.86826H140.756C141.334 2.86826 141.658 3.11865 141.658 3.594C141.658 4.02019 141.333 4.32089 140.756 4.32089H139.677Z" fill="#9CA3AF"/>
</g>
<defs>
<clipPath id="clip0_6001_29679">
<rect width="144.63" height="40" fill="white" transform="translate(0.262268)"/>
</clipPath>
</defs>
</svg>
