<svg width="90" height="90" viewBox="0 0 90 90" fill="none" xmlns="http://www.w3.org/2000/svg">
<path d="M9.40776 47.2031C7.50187 47.2031 5.98927 47.6464 5.05146 48.4524L5.0212 48.4792L4.97582 48.4927C4.79431 48.533 4.6733 48.6001 4.59767 48.7345L4.58255 48.7479C-3.04098 57.9225 0.680026 71.6778 13.0834 80.0867C18.801 83.7942 25.4716 85.8494 31.8548 85.8494C39.1758 85.8494 45.438 83.2569 49.4767 78.5285C49.5069 78.4748 49.5372 78.421 49.5523 78.3404L49.5674 78.3136C52.6834 73.5986 43.3052 63.6987 32.8985 56.7673C24.1103 50.9509 14.8834 47.2031 9.40776 47.2031ZM44.833 80.6643C41.354 83.0822 36.8767 84.3718 31.9153 84.3718C25.8498 84.3718 19.5725 82.424 14.2481 78.8778C9.317 75.5867 5.68675 71.3285 3.76574 66.5598C1.90524 61.9389 1.87498 57.1703 3.69011 53.1404L3.84137 52.7778L3.94725 53.1539C4.41616 54.7792 5.45986 56.6061 7.03297 58.5673C10.1641 62.5434 15.0952 66.9225 20.9187 70.8986C29.6918 76.7151 38.9338 80.4628 44.4094 80.4628C44.5153 80.4628 44.6212 80.4628 44.7271 80.4628L45.1506 80.4494L44.833 80.6643ZM45.4078 69.8778C48.1607 73.4912 49.0834 76.4061 47.9036 77.8703L47.8884 77.8837C47.359 78.3539 46.3304 78.9181 44.4246 78.9181C39.1305 78.9181 30.0699 75.224 21.8867 69.7166C16.2447 65.9016 11.3136 61.536 8.37919 57.721C5.6565 54.3091 4.71868 51.2733 5.91364 49.7957L5.92877 49.7822C6.45818 49.3121 7.48675 48.7479 9.39263 48.7479C14.5355 48.7479 23.3842 52.3613 31.9304 57.9494C37.6178 61.724 42.4279 65.9554 45.4078 69.8778Z" fill="#46433E"/>
<path d="M8.60662 50.7358C8.48561 50.494 8.12259 50.3193 7.77469 50.3193C7.65368 50.3193 7.53267 50.3462 7.44192 50.3865C7.06376 50.5611 6.86713 51.0716 7.06376 51.4074L7.07889 51.4477C7.33603 51.9716 18.4234 71.7313 45.1209 77.4671H45.3327C45.7108 77.4671 46.1192 77.1044 46.331 76.7417C46.4217 76.6074 46.3915 76.4596 46.2554 76.2984C46.1495 76.1641 45.9528 76.0298 45.7411 75.9223C39.7965 74.6462 34.1394 72.5372 28.936 69.6626C24.7764 67.3522 20.889 64.5447 17.3949 61.3208C11.6923 56.0417 8.84864 51.2865 8.60662 50.7358Z" fill="#46433E"/>
<path d="M66.404 7.50897C64.6948 6.75673 63.1217 6.5418 61.8662 6.90449L61.8208 6.91792L61.7755 6.90449C61.5939 6.86419 61.4427 6.89106 61.3065 6.98509H61.2914C49.8864 12.2105 46.362 26.0194 53.2897 38.4179C56.5721 43.9925 61.5183 48.4523 67.2511 50.9642C73.8007 53.8388 80.7133 53.9732 86.6881 51.3403C86.7486 51.3 86.7939 51.2463 86.8393 51.206L86.8696 51.1791C92.0124 48.1836 88.5637 35.6105 82.6797 25.3075C77.7183 16.6567 71.3351 9.65822 66.404 7.50897ZM81.4847 51.4478C77.1587 52.2537 72.515 51.6493 68.0528 49.7015C62.6074 47.3105 57.9637 43.0926 54.9536 37.8134C52.1704 32.9105 51.036 27.6717 51.7015 22.6478C52.3519 17.7717 54.6965 13.4866 58.3267 10.5851L58.6444 10.3164L58.5536 10.6926C58.1603 12.3448 58.1755 14.3731 58.6141 16.7508C59.446 21.5463 61.6847 27.4164 64.9217 33.2731C69.8981 41.9239 76.2965 48.9224 81.2124 51.0582C81.3183 51.0985 81.4091 51.1523 81.515 51.1791L81.9082 51.3403L81.4847 51.4478ZM87.3839 41.9911C88.0645 46.3299 87.4141 49.2851 85.6444 50.1314L85.6141 50.1448C84.9032 50.3597 83.7082 50.4537 81.9839 49.7015C77.2494 47.6194 70.9721 40.7418 66.3738 32.6015C63.2124 26.9731 60.9889 21.103 60.2477 16.5358C59.5217 12.412 60.1872 9.3224 61.9872 8.4627L62.0175 8.44927C62.7284 8.23434 63.9234 8.14031 65.6477 8.89255C70.2612 10.9209 76.4024 17.6373 81.2578 25.9925C84.4948 31.6209 86.6578 37.3164 87.3839 41.9911Z" fill="#46433E"/>
<path d="M63.9372 10.3428C63.9372 10.0742 63.7103 9.79207 63.4077 9.65774C63.3019 9.60401 63.1809 9.57715 63.075 9.57715C62.6514 9.57715 62.2128 9.9667 62.2128 10.3563V10.3966C62.1825 10.9742 62.2733 33.0309 83.3288 48.6801L83.5103 48.7742C83.8582 48.9219 84.4178 48.7607 84.7657 48.5055C84.9019 48.4115 84.9624 48.2637 84.917 48.0756C84.8867 47.901 84.796 47.6995 84.6296 47.5249C79.9254 44.0324 75.917 39.9219 72.6951 35.2876C70.1086 31.5801 68.0212 27.5234 66.5237 23.2652C64.0582 16.3339 63.8918 10.9607 63.9372 10.3428Z" fill="#46433E"/>
<path d="M16.8659 35.8389C7.83564 35.8389 0.484375 29.3106 0.484375 21.2912C0.484375 13.2718 7.83564 6.75684 16.8659 6.75684C25.8961 6.75684 33.2474 13.2852 33.2474 21.3046C33.2474 29.324 25.8961 35.8389 16.8659 35.8389ZM16.8659 8.10012C8.66757 8.10012 1.99698 14.024 1.99698 21.3046C1.99698 28.5852 8.66757 34.5091 16.8659 34.5091C25.0642 34.5091 31.7348 28.5852 31.7348 21.3046C31.7348 14.024 25.0642 8.10012 16.8659 8.10012Z" fill="#54A261"/>
<path d="M16.5027 28.7459C16.2909 28.7459 16.0791 28.6653 15.9279 28.5175L7.65393 20.1354C7.38166 19.8533 7.41192 19.4369 7.72956 19.1817C8.04721 18.9399 8.51612 18.9668 8.80351 19.2489L16.3968 26.9459L25.4573 13.8354C25.6691 13.5131 26.138 13.419 26.501 13.6205C26.864 13.8086 26.9699 14.225 26.743 14.5474L17.1531 28.4235C17.0321 28.6116 16.8052 28.719 16.5783 28.7459C16.5329 28.7459 16.5178 28.7459 16.5027 28.7459Z" fill="#54A261"/>
</svg>
