<svg width="90" height="90" viewBox="0 0 90 90" fill="none" xmlns="http://www.w3.org/2000/svg">
<g clip-path="url(#clip0_3672_33826)">
<path d="M72.6803 32.3378C63.6501 32.3378 56.2988 25.072 56.2988 16.1617C56.2988 7.25143 63.6501 -0.0292969 72.6803 -0.0292969C81.7106 -0.0292969 89.0619 7.23648 89.0619 16.1617C89.0619 25.087 81.7106 32.3378 72.6803 32.3378ZM72.6803 1.46572C64.482 1.46572 57.8114 8.05874 57.8114 16.1617C57.8114 24.2647 64.482 30.8428 72.6803 30.8428C80.8787 30.8428 87.5492 24.2498 87.5492 16.1617C87.5492 8.07369 80.8787 1.46572 72.6803 1.46572Z" fill="#54A261"/>
<path d="M72.3191 24.4436C72.1073 24.4436 71.8955 24.3539 71.7443 24.1894L63.4703 14.8605C63.1981 14.5466 63.2283 14.0831 63.546 13.7991C63.8636 13.53 64.3325 13.5599 64.6199 13.8738L72.2132 22.4403L81.2737 7.86386C81.4855 7.50506 81.9544 7.40041 82.3174 7.62466C82.6804 7.83396 82.7863 8.29742 82.5594 8.65622L72.9695 24.0997C72.8485 24.309 72.6216 24.4286 72.3947 24.4585C72.3493 24.4436 72.3342 24.4436 72.3191 24.4436Z" fill="#54A261"/>
<path d="M26.6987 42.9665C24.8987 42.9665 22.3121 42.7871 20.1794 41.9649C16.6247 40.5894 7.92726 34.2954 7.56424 34.0263C7.3676 33.8918 7.26172 33.6675 7.26172 33.4283C7.26172 33.1891 7.38273 32.9649 7.56424 32.8303C7.89701 32.5911 15.7474 26.925 19.1962 25.3403C21.3441 24.3536 24.3542 23.7705 27.2584 23.7705C29.9659 23.7705 32.492 24.2639 34.5945 25.2207C39.5407 27.4483 46.181 32.4865 46.4533 32.7107C46.6197 32.8453 46.7407 33.0396 46.7407 33.2639C46.7558 33.4732 46.6651 33.6974 46.5138 33.8469C46.2415 34.116 39.6012 40.5147 33.5962 42.1443C31.5995 42.6526 29.0886 42.9665 26.6987 42.9665ZM9.28861 33.4134C11.5878 35.0429 17.971 39.4981 20.7239 40.5595C22.2365 41.1426 24.3088 41.4566 26.6987 41.4566C28.9676 41.4566 31.3273 41.1575 33.1878 40.6492C37.7861 39.3934 43.0046 34.9383 44.8046 33.3237C42.9441 31.9632 37.8163 28.3004 33.9441 26.5512C32.0533 25.6991 29.7239 25.2356 27.2432 25.2356C24.5508 25.2356 21.7827 25.7738 19.8163 26.6708C17.1542 27.8968 11.4516 31.8884 9.28861 33.4134Z" fill="#46433E"/>
<path d="M14.1277 33.653C13.9008 33.653 13.6588 33.5484 13.5227 33.354C13.2807 33.0251 13.3563 32.5467 13.6891 32.3075C13.916 32.1431 19.2555 28.2859 21.6151 27.2095C24.2924 25.9836 28.8 25.565 32.2487 27.1198C35.6219 28.6447 40.1445 32.0683 40.3261 32.2178C40.6588 32.472 40.7193 32.9354 40.4622 33.2643C40.205 33.5932 39.7361 33.653 39.4034 33.3989C39.358 33.369 34.8353 29.9304 31.6135 28.4803C28.6185 27.1198 24.5496 27.5085 22.2504 28.555C20.0269 29.5716 14.642 33.4587 14.5815 33.5035C14.4454 33.6082 14.279 33.653 14.1277 33.653Z" fill="#46433E"/>
<path d="M26.9846 40.8293C22.5526 40.8293 18.9375 37.2712 18.9375 32.8759C18.9375 30.9772 19.6182 29.1533 20.8736 27.7031C21.1459 27.3891 21.6299 27.3592 21.9476 27.6283C22.2652 27.8974 22.2955 28.3759 22.0232 28.6749C21.0098 29.841 20.4501 31.336 20.4501 32.8759C20.4501 36.434 23.3846 39.3343 26.9846 39.3343C30.5846 39.3343 33.519 36.434 33.519 32.8759C33.519 31.3808 32.9896 29.9157 32.0215 28.7646C31.7493 28.4506 31.7946 27.9722 32.1274 27.718C32.4602 27.4639 32.9291 27.4938 33.1862 27.8227C34.3661 29.243 35.0165 31.037 35.0165 32.8759C35.0316 37.2712 31.4165 40.8293 26.9846 40.8293Z" fill="#46433E"/>
<path d="M26.9835 35.148C25.5314 35.148 24.3516 33.9819 24.3516 32.5466C24.3516 31.1114 25.5314 29.9453 26.9835 29.9453C28.4356 29.9453 29.6154 31.1114 29.6154 32.5466C29.6154 33.9819 28.4356 35.148 26.9835 35.148ZM26.9835 31.4403C26.3633 31.4403 25.8642 31.9337 25.8642 32.5466C25.8642 33.1596 26.3633 33.653 26.9835 33.653C27.6037 33.653 28.1028 33.1596 28.1028 32.5466C28.1028 31.9337 27.6037 31.4403 26.9835 31.4403Z" fill="#46433E"/>
<path d="M35.0623 24.1896C34.9413 24.1896 34.8203 24.1597 34.6993 24.0999C34.3362 23.9056 34.2001 23.4421 34.3967 23.0833L36.0152 20.183C36.2119 19.8242 36.6808 19.6896 37.0438 19.884C37.4068 20.0783 37.5429 20.5418 37.3463 20.9006L35.7278 23.8009C35.5917 24.0551 35.3345 24.1896 35.0623 24.1896Z" fill="#46433E"/>
<path d="M37.9353 25.5949C37.8143 25.5949 37.6933 25.565 37.5723 25.5052C37.2093 25.3108 37.0731 24.8474 37.2698 24.4886L38.8883 21.5882C39.0849 21.2294 39.5538 21.0949 39.9168 21.2892C40.2799 21.4836 40.416 21.947 40.2194 22.3059L38.6009 25.2062C38.4647 25.4603 38.2076 25.5949 37.9353 25.5949Z" fill="#46433E"/>
<path d="M27.0906 57.4838C13.5225 57.4838 2.48047 46.5702 2.48047 33.1599C2.48047 19.7496 13.5225 8.83594 27.0906 8.83594C40.6586 8.83594 51.7006 19.7496 51.7006 33.1599C51.7006 46.5702 40.6586 57.4838 27.0906 57.4838ZM27.0906 10.331C14.3544 10.331 3.99307 20.5718 3.99307 33.1599C3.99307 45.7479 14.3544 55.9888 27.0906 55.9888C39.8267 55.9888 50.188 45.7479 50.188 33.1599C50.188 20.5718 39.8267 10.331 27.0906 10.331Z" fill="#46433E"/>
<path d="M27.0905 54.8522C14.9896 54.8522 5.14258 45.1196 5.14258 33.1595C5.14258 21.1994 14.9896 11.4668 27.0905 11.4668C39.1913 11.4668 49.0384 21.1994 49.0384 33.1595C49.0384 45.1196 39.1913 54.8522 27.0905 54.8522ZM27.0905 12.9618C15.8216 12.9618 6.65518 22.0216 6.65518 33.1595C6.65518 44.2974 15.8216 53.3572 27.0905 53.3572C38.3594 53.3572 47.5258 44.2974 47.5258 33.1595C47.5258 22.0216 38.3594 12.9618 27.0905 12.9618Z" fill="#46433E"/>
<path d="M28.2821 54.2174L26.7695 54.207L26.7498 56.9429L28.2624 56.9533L28.2821 54.2174Z" fill="#46433E"/>
<path d="M51.0884 32.5584L48.3203 32.5391L48.3094 34.0341L51.0774 34.0534L51.0884 32.5584Z" fill="#46433E"/>
<path d="M40.7947 27.1193C40.6737 27.1193 40.5527 27.0894 40.4317 27.0296C40.0686 26.8352 39.9325 26.3718 40.1292 26.013L41.7476 23.1127C41.9443 22.7539 42.4132 22.6193 42.7762 22.8137C43.1392 23.008 43.2754 23.4715 43.0787 23.8303L41.4602 26.7306C41.3241 26.9847 41.067 27.1193 40.7947 27.1193Z" fill="#46433E"/>
<path d="M44.7287 68.8456L36.0312 55.226L37.3018 54.4187L45.1976 66.7825L50.4161 63.5233L42.5203 51.1745L43.7909 50.3672L52.5035 63.9868L44.7287 68.8456Z" fill="#46433E"/>
<path d="M55.3617 88.6098C54.9684 88.6098 54.6054 88.4154 54.3936 88.0716L42.6104 69.638C42.4441 69.3839 42.3987 69.0699 42.4592 68.7709C42.5197 68.4719 42.7012 68.2178 42.9735 68.0533L52.5634 62.0583C52.7449 61.9387 52.9567 61.8789 53.1836 61.8789C53.5768 61.8789 53.9399 62.0733 54.1516 62.4171L65.9348 80.8507C66.2676 81.3889 66.1163 82.0915 65.5718 82.4204L55.9819 88.4155C55.8004 88.55 55.5886 88.6098 55.3617 88.6098ZM44.0777 69.1447L55.4827 86.9802L64.4676 81.359L53.0625 63.5384L44.0777 69.1447Z" fill="#46433E"/>
</g>
<defs>
<clipPath id="clip0_3672_33826">
<rect width="90" height="90" fill="white"/>
</clipPath>
</defs>
</svg>
