<svg width="90" height="90" viewBox="0 0 90 90" fill="none" xmlns="http://www.w3.org/2000/svg">
<path d="M59.6725 77.8451C58.9919 76.9983 58.7498 76.0287 58.5381 75.0454C58.5381 75.1 58.5381 75.1546 58.5381 75.2229V83.9361H35.5919L44.607 70.0332C44.7885 69.7601 44.7431 69.3777 44.5011 69.1319L42.3532 67.0287L44.9851 63.2047C45.0003 63.2047 45.0154 63.2047 45.0154 63.2047C45.4087 63.2047 45.7868 63.2184 46.1801 63.2457C46.2103 63.273 46.2557 63.2867 46.286 63.314C46.4524 63.3959 50.128 65.3898 50.37 70.798C48.57 71.1531 47.2238 72.6008 47.2238 74.3352C47.2238 76.3291 49.0238 77.9543 51.2322 77.9543C53.4406 77.9543 55.2406 76.3291 55.2406 74.3352C55.2406 72.6008 53.8792 71.1531 52.0793 70.798C51.9431 67.493 50.6574 65.2669 49.4322 63.8739C53.0624 65.0348 56.0272 67.5477 57.5095 70.7024C57.5398 70.0879 57.7061 69.5006 58.0087 68.8997C58.0692 68.7904 58.1448 68.6948 58.2356 68.6129C55.7398 64.748 51.1717 62.0165 46.0137 61.7024L46.4675 61.0332C46.6036 60.8284 46.6339 60.5826 46.5431 60.3504C46.4372 60.1182 46.2406 59.9543 45.9683 59.8997L38.2389 58.1516C37.9364 57.4414 37.407 55.8572 37.407 53.7677V53.754C39.57 51.9786 41.1734 49.5067 41.7935 46.6933C43.3061 46.6524 44.607 45.0272 44.8641 42.7874C45.0759 40.93 44.5011 39.3595 43.4574 38.704C44.0473 36.2184 46.1347 24.8694 37.0591 20.8542C35.2893 20.0621 33.4742 19.666 31.6893 19.666C27.6053 19.666 24.7313 21.7146 23.8843 22.3974C22.7498 22.4384 19.1045 22.7798 16.5935 25.3474C12.3582 29.6903 15.0356 36.4505 16.17 38.8132C15.8524 39.0863 15.5801 39.4414 15.3834 39.9058C15.0356 40.6979 14.8994 41.6948 15.0204 42.7191C15.2624 44.8769 16.5028 46.4885 17.9549 46.6114C18.4994 49.3838 19.9061 51.7874 21.8574 53.5492C21.8574 56.226 20.9498 58.097 20.844 58.3155L13.8708 59.886C13.6137 59.9543 13.3868 60.1182 13.2961 60.3367C13.1902 60.5552 13.2204 60.8147 13.3717 61.0196L13.9313 61.839C6.33807 62.4399 0.363281 68.2032 0.363281 75.2093V84.6873C0.363281 85.1106 0.741433 85.4521 1.21034 85.4521H3.01034C3.47925 85.4521 3.8574 85.1106 3.8574 84.6873C3.8574 84.2639 3.47925 83.9225 3.01034 83.9225H2.0574V75.2093C2.0574 70.5249 5.06748 66.4551 9.43891 64.5158C8.28933 65.9498 7.20026 68.1213 7.1095 71.2487C5.85404 71.7677 4.81034 72.5871 4.09942 73.6387C3.19185 74.9907 2.93471 76.534 3.38849 78.009C3.75152 79.2108 4.5532 80.2077 5.70278 80.9452C5.88429 81.5461 6.48933 81.9832 7.21538 81.9832C8.09269 81.9832 8.78849 81.3413 8.78849 80.5628C8.78849 79.7844 8.07757 79.1425 7.21538 79.1425C6.85236 79.1425 6.53471 79.2517 6.26244 79.4293C5.64227 78.9376 5.20362 78.3231 4.99185 77.6129C4.65908 76.5613 4.85572 75.4278 5.50614 74.4445C6.20194 73.4475 7.29101 72.71 8.60698 72.3686C9.90782 72.0408 11.2994 72.1501 12.4339 72.669C13.5683 73.2017 14.37 74.0621 14.7028 75.1137C14.9145 75.7692 14.9145 76.4657 14.7179 77.1213C14.6423 77.1076 14.5515 77.1076 14.4759 77.1076C13.5986 77.1076 12.9028 77.7495 12.9028 78.5279C12.9028 79.3064 13.6137 79.9483 14.4759 79.9483C15.3532 79.9483 16.049 79.3064 16.049 78.5279C16.049 78.4596 16.049 78.405 16.0339 78.3504C16.049 78.3367 16.049 78.3231 16.0641 78.3094C16.6087 77.1349 16.7145 75.8921 16.3364 74.7039C15.8826 73.229 14.7633 72.0272 13.2053 71.317C12.2675 70.88 11.1935 70.6615 10.1196 70.6615C9.68093 70.6615 9.24227 70.7024 8.81874 70.7707C9.18177 65.5947 12.7213 63.6827 12.8877 63.6008C12.9482 63.5735 12.9935 63.5325 13.0389 63.4915C13.6591 63.3959 14.2792 63.3413 14.9297 63.3276L17.4708 67.015L15.3229 69.1182C15.0658 69.364 15.0204 69.7328 15.2171 70.0196L24.2322 83.9225H7.20026C6.73135 83.9225 6.3532 84.2639 6.3532 84.6873C6.3532 85.1106 6.73135 85.4521 7.20026 85.4521H59.3851C59.854 85.4521 60.2322 85.1106 60.2473 84.6873V78.3094C60.0204 78.2002 59.8238 78.0363 59.6725 77.8451ZM53.5313 74.3216C53.5313 75.4824 52.4877 76.4111 51.2171 76.4111C49.9314 76.4111 48.9028 75.4687 48.9028 74.3216C48.9028 73.1744 49.9465 72.232 51.2171 72.232C52.5028 72.232 53.5313 73.1744 53.5313 74.3216ZM17.849 26.358C20.133 24.0363 23.7784 23.927 24.1868 23.927H24.2322C24.4742 23.927 24.6708 23.8451 24.8372 23.6812C24.8524 23.6539 27.4994 21.1956 31.6591 21.1956C33.2019 21.1956 34.775 21.537 36.3179 22.2199C40.8406 24.2275 42.0507 28.5841 42.2927 31.9027C42.5045 34.8253 42.0053 37.4338 41.7935 38.4035C41.7028 38.4308 41.612 38.4445 41.5213 38.4854C41.1734 31.7798 35.7885 31.3974 31.4322 31.0833C28.1498 30.8511 25.3061 30.6463 24.3078 28.3382C24.2171 28.147 24.0658 27.9968 23.854 27.9149C23.6574 27.8193 23.4154 27.8193 23.2036 27.9012C18.1364 29.7176 17.7885 35.1395 18.0608 38.3352C17.9549 38.3079 17.849 38.2942 17.7582 38.2942C16.775 36.3413 14.1734 30.1137 17.849 26.358ZM19.4977 45.6281C19.4675 45.3823 19.3011 45.1637 19.044 45.0408C18.9229 44.9725 18.7868 44.9452 18.6507 44.9452C18.5145 44.9452 18.3633 44.9862 18.2725 45.0408C18.2271 45.0681 18.1969 45.0818 18.1515 45.0818C17.7431 45.0818 16.8961 44.2077 16.7145 42.5552C16.6238 41.7768 16.7145 41.0257 16.9717 40.4657C17.1381 40.0697 17.3801 39.8375 17.5919 39.8238C17.7885 39.8238 18.1213 40.056 18.454 40.575C18.6053 40.8208 18.8927 40.971 19.1952 40.971C19.3011 40.971 19.3919 40.9574 19.4826 40.9301C19.8608 40.8071 20.1028 40.4521 20.0271 40.0833C19.286 36.1774 19.7246 31.4247 23.1582 29.6357C24.7616 32.1349 28.0893 32.3807 31.3112 32.6129C33.7313 32.7904 36.0305 32.9543 37.6036 33.9513C39.3431 35.0575 40.0692 37.0788 39.8271 40.3018C39.7969 40.6569 40.0692 40.9847 40.4473 41.0939C40.5229 41.1076 40.5835 41.1213 40.6742 41.1213C40.9767 41.1213 41.2792 40.971 41.4154 40.7115C41.7028 40.2199 42.0658 39.8921 42.3381 39.8921C42.5045 39.9058 42.7767 40.1516 42.9734 40.6296C43.2003 41.1759 43.2759 41.886 43.1851 42.6235C42.9885 44.2897 42.1414 45.1228 41.7179 45.1364C41.7028 45.1364 41.6574 45.1228 41.5818 45.0681C41.3398 44.9316 41.0372 44.9179 40.765 45.0135C40.4927 45.1228 40.3112 45.3413 40.2658 45.6144C39.4793 50.9134 34.8053 55.0651 29.6473 55.0651C24.5801 55.0651 20.2238 51.009 19.4977 45.6281ZM36.8927 59.2305L35.3045 66.1683C34.5028 66.3185 32.3851 66.6463 29.6927 66.6463C27.8927 66.6463 26.1532 66.4961 24.5045 66.2093L22.7801 58.6979C22.7498 58.575 22.7045 58.4794 22.6137 58.3838C22.9011 57.6873 23.3095 56.4308 23.4608 54.792C25.2759 55.9392 27.3935 56.6084 29.6322 56.6084C31.7952 56.6084 33.8977 55.9938 35.728 54.9012C35.97 57.4824 36.8624 59.1486 36.8927 59.2305ZM26.1683 83.9361L16.9868 69.7464L19.1498 67.6296C19.407 67.3701 19.4524 66.9877 19.2557 66.7009L15.3986 61.1288L21.3129 59.7904L26.8339 83.9361H26.1683ZM28.5582 83.9361L24.8675 67.8208C26.4255 68.053 28.044 68.1759 29.7078 68.1759C31.9767 68.1759 33.8221 67.9574 34.9263 67.7798L31.2204 83.9225H28.5582V83.9361ZM32.975 83.9361L38.5112 59.7768L44.4255 61.1152L40.5683 66.6873C40.3717 66.9741 40.4171 67.3565 40.6742 67.6159L42.8372 69.7328L33.6406 83.9361H32.975Z" fill="#46433E"/>
<path d="M70.2754 4.69824C59.5661 4.69824 50.8535 12.5647 50.8535 22.2339C50.8535 25.6482 51.9577 28.9668 53.9997 31.7938C54.4233 32.504 53.2283 37.6254 51.398 42.979C51.2922 43.2794 51.4132 43.6209 51.7006 43.8121C51.8367 43.9077 52.0182 43.9623 52.1997 43.9623C52.3661 43.9623 52.5174 43.9213 52.6535 43.8394C56.1628 41.8181 62.0165 38.8136 63.877 38.8136C63.9829 38.8136 64.0132 38.8272 64.0132 38.8272C66.0098 39.4418 68.1275 39.7559 70.2602 39.7559C80.9695 39.7559 89.6821 31.8894 89.6821 22.2202C89.6821 12.5511 80.9846 4.69824 70.2754 4.69824ZM55.4367 30.9608C53.546 28.3659 52.5476 25.3477 52.5476 22.2202C52.5476 13.3978 60.5039 6.21418 70.2754 6.21418C80.0468 6.21418 88.0031 13.3978 88.0182 22.2066C88.0182 31.0291 80.0619 38.2127 70.2905 38.2127C68.3392 38.2127 66.4031 37.9259 64.5728 37.3659C64.3611 37.2976 64.1342 37.2703 63.877 37.2703C61.714 37.2703 56.6619 39.8242 53.6518 41.4767C54.9981 37.3113 56.3443 32.2172 55.4367 30.9608Z" fill="#46433E"/>
<path d="M75.6898 16.5939C75.6898 16.1705 75.3116 15.8291 74.8427 15.8291C74.3738 15.8291 73.9957 16.1705 73.9957 16.5939V18.3147C73.9957 18.7381 74.3738 19.0795 74.8427 19.0795H79.0932C80.2276 19.0795 81.1806 19.9126 81.1806 20.9642V23.6956C81.1806 24.7335 80.2579 25.5802 79.0932 25.5802H74.8427C74.3738 25.5802 73.9957 25.9217 73.9957 26.345V30.1827C73.9957 31.2206 73.073 32.0673 71.9083 32.0673H68.8831C67.7335 32.0673 66.7957 31.2343 66.7957 30.1827C66.7957 29.7593 66.4175 29.4179 65.9486 29.4179C65.4797 29.4179 65.1016 29.7593 65.1016 30.1827C65.1016 32.081 66.8108 33.5969 68.8831 33.5969H71.9083C73.9957 33.5969 75.6747 32.0537 75.6595 30.1963V27.1235H79.0629C81.1503 27.1235 82.8444 25.5802 82.8444 23.7092V20.9778C82.8444 19.0931 81.1352 17.5635 79.0629 17.5635H75.6595V16.5939H75.6898Z" fill="#46433E"/>
<path d="M65.1331 28.3114C65.1331 28.7347 65.5113 29.0762 65.9802 29.0762C66.4491 29.0762 66.8273 28.7347 66.8273 28.3114V26.3447C66.8273 25.9214 66.4491 25.58 65.9802 25.58H61.76C60.6104 25.58 59.6726 24.7469 59.6726 23.6953V20.9639C59.6726 19.9396 60.5953 19.0792 61.76 19.0792H66.0104C66.4794 19.0792 66.8575 18.7378 66.8575 18.3144V14.4768C66.8575 13.4525 67.7802 12.5921 68.9449 12.5921H71.9701C73.1046 12.5921 74.0575 13.4252 74.0575 14.4768C74.0575 14.9001 74.4357 15.2416 74.9046 15.2416C75.3735 15.2416 75.7516 14.9001 75.7516 14.4768C75.7516 12.5921 74.0424 11.0625 71.9701 11.0625H68.9449C66.8424 11.0625 65.1634 12.6057 65.1634 14.4768V17.5359H61.76C59.6575 17.5359 57.9785 19.0792 57.9785 20.9502V23.6816C57.9785 25.5799 59.6878 27.0959 61.76 27.0959H65.1634V28.3114H65.1331Z" fill="#46433E"/>
<path d="M73.1354 85.466C64.1052 85.466 56.7539 78.8286 56.7539 70.689C56.7539 62.5494 64.1052 55.8984 73.1354 55.8984C82.1657 55.8984 89.5169 62.5358 89.5169 70.689C89.5169 78.8423 82.1657 85.466 73.1354 85.466ZM73.1354 57.2641C64.9371 57.2641 58.2665 63.2869 58.2665 70.689C58.2665 78.0912 64.9371 84.1003 73.1354 84.1003C81.3337 84.1003 88.0043 78.0775 88.0043 70.689C88.0043 63.3006 81.3337 57.2641 73.1354 57.2641Z" fill="#54A261"/>
<path d="M72.7722 78.255C72.5604 78.255 72.3487 78.1731 72.1974 78.0229L63.9235 69.5008C63.6512 69.2141 63.6814 68.7907 63.9991 68.5312C64.3167 68.2854 64.7857 68.3127 65.073 68.5995L72.6663 76.425L81.7268 63.1093C81.9386 62.7816 82.4075 62.686 82.7705 62.8908C83.1335 63.082 83.2394 63.5054 83.0125 63.8332L73.4226 77.9409C73.3016 78.1321 73.0747 78.2414 72.8478 78.2687C72.8025 78.255 72.7873 78.255 72.7722 78.255Z" fill="#54A261"/>
</svg>
