<svg width="90" height="90" viewBox="0 0 90 90" fill="none" xmlns="http://www.w3.org/2000/svg">
<g clip-path="url(#clip0_3748_11513)">
<path d="M28.0858 49.895C28.0858 49.8792 28.0858 49.8477 28.0858 49.8161C28.0413 49.7687 28.0116 49.7056 28.0116 49.6424C28.0116 49.2161 28.0116 48.7582 28.0562 48.3319C28.071 48.2687 28.0858 48.2213 28.1155 48.174C27.4627 46.7529 25.6823 44.0687 21.4835 43.9266C19.9553 43.9266 18.709 44.2424 17.6259 44.7477C10.8306 41.2898 2.78909 45.9003 2.47752 46.0582C2.18078 46.0582 2.01758 46.5477 2.01758 46.7213C2.01758 46.895 2.18078 47.2108 2.47752 47.3845C2.64072 47.3845 6.80986 49.6898 10.979 49.3582C13.2935 49.2003 14.6734 48.2055 16.2312 47.2266C16.6912 46.9108 17.3143 46.5634 17.7743 46.2319C17.9226 46.2319 17.9226 46.0582 18.071 46.0582C19.0057 45.7266 20.0888 45.395 21.3202 45.395C25.9642 45.5687 26.884 49.1687 26.884 49.3424C27.0324 49.674 27.344 50.0055 27.6556 50.0055C27.8039 50.0055 27.8039 50.0055 27.7891 49.9898C27.9078 49.9898 27.9968 49.9424 28.0858 49.895ZM15.4597 45.9161C14.0799 46.7529 12.8336 47.5582 10.979 47.7319C8.66446 47.8898 6.34992 47.2424 4.79206 46.5792C7.1066 45.5845 11.7357 44.1161 15.7713 45.7582C15.7713 45.7582 15.6229 45.9161 15.4597 45.9161Z" fill="#46433E"/>
<path d="M62.4475 71.2575C62.2843 71.2575 62.2843 71.2575 62.1508 71.2575C61.6909 71.0838 61.5276 70.5944 61.6909 70.1049C63.3971 65.8259 63.5455 62.3681 61.9876 60.0786C60.4446 57.6154 57.8036 57.1259 56.8837 56.9523C54.7176 56.7786 53.1745 57.7733 51.7799 58.7681C50.3852 59.7628 48.8422 60.5838 46.676 60.8996C43.2784 61.2154 41.7354 59.5891 41.5722 59.5891C41.2754 59.2733 41.2754 58.7681 41.5722 58.4365C41.8689 58.1207 42.3437 58.1207 42.6552 58.4365C42.6552 58.4365 43.8867 59.5891 46.5128 59.4312C48.3674 59.2733 49.6137 58.4365 50.9935 57.6154C52.6998 56.6207 54.3911 55.4838 57.0173 55.6417C58.1003 55.6417 61.498 56.4628 63.3674 59.4154C65.0736 62.2102 65.0736 66.1733 63.2042 71.0996C63.0707 71.0838 62.7591 71.2575 62.4475 71.2575Z" fill="#46433E"/>
<path d="M55.6524 55.6263C55.0293 55.4526 42.8335 50.0368 36.1866 54.6316C33.7237 56.2737 32.329 59.2421 32.1658 63.3473C32.0026 66.8052 32.7889 70.0895 34.1688 73.5473C34.243 73.721 34.3765 73.8473 34.5249 73.9263C34.5249 73.9263 34.5397 73.9263 34.5397 73.9105C34.5842 73.8947 34.6287 73.8631 34.6732 73.8473C34.6881 73.7526 34.7622 73.6737 34.8513 73.6579C35.1035 73.6105 35.3557 73.5473 35.6228 73.5316C35.6376 73.3895 35.6228 73.2316 35.5634 73.0579C34.1688 69.7579 33.5456 66.8052 33.7088 63.521C33.8572 60.0631 34.9403 57.6 37.1065 56.1316C42.4329 52.4052 52.6851 56.3684 54.7029 57.1579C55.0738 56.7789 55.5783 56.621 56.0827 56.5421C56.1124 56.5421 56.1569 56.5421 56.1866 56.5579C56.2311 56.1473 56.0382 55.7684 55.6524 55.6263Z" fill="#46433E"/>
<path d="M48.5458 57.7577C48.2491 57.7577 47.7743 57.4419 47.7743 57.0945C47.7743 56.9366 47.0028 51.8366 49.7773 46.4051C49.9257 46.0893 50.4004 45.9156 50.8604 46.0893C51.1571 46.2629 51.3203 46.7524 51.1571 47.2419C48.6942 52.184 49.3025 56.9524 49.3025 56.9524C49.3025 57.2682 49.0058 57.7577 48.5458 57.7577Z" fill="#46433E"/>
<path d="M37.5665 70.4208C37.2697 70.4208 36.9433 70.2471 36.795 69.9313C36.6318 69.7734 34.792 65.3208 36.335 60.0629C36.4982 59.5734 36.9582 59.3998 37.2697 59.5734C37.7297 59.7471 37.8929 60.2366 37.7297 60.5682C36.4982 65.3366 38.1896 69.284 38.1896 69.284C38.3528 69.7734 38.1896 70.105 37.8929 70.4366C37.878 70.4208 37.7148 70.4208 37.5665 70.4208Z" fill="#46433E"/>
<path d="M60.6085 90.0001C60.4453 90.0001 60.3118 90.0001 60.1486 90.0001L12.6857 84.237C10.5195 83.9212 8.82812 81.9317 8.82812 79.6264C8.82812 77.3212 10.5344 75.1738 12.6857 75.0159L60.1338 69.2527C62.7599 68.9369 65.0744 71.0685 65.0744 73.8633V85.2159C65.0893 87.8527 63.0714 90.0001 60.6085 90.0001ZM60.6085 70.9106C60.4453 70.9106 60.4453 70.9106 60.3118 70.9106L12.8489 76.6738C11.4542 76.8317 10.386 78.158 10.386 79.6264C10.386 81.1106 11.4691 82.4212 12.8489 82.5791L60.297 88.3422C62.0032 88.5001 63.3979 87.1896 63.3979 85.3896V74.037C63.5314 72.2212 62.2999 70.9106 60.6085 70.9106Z" fill="#46433E"/>
<path d="M10.3717 83.2584H4.80788C2.64171 83.2584 0.787109 81.2847 0.787109 78.9794V32.9215C0.787109 30.6163 2.64171 28.6426 4.80788 28.6426H24.2738C26.4399 28.6426 28.2945 30.6163 28.2945 32.9215V73.8794C28.2945 74.3689 27.9978 74.7005 27.523 74.7005C27.0482 74.7005 26.7515 74.3847 26.7515 73.8794V32.9215C26.7515 31.4373 25.6684 30.3005 24.2886 30.3005H4.95625C3.56159 30.3005 2.49334 31.4531 2.49334 32.9215V78.9794C2.49334 80.4636 3.57643 81.6005 4.95625 81.6005H10.52C10.98 81.6005 11.2916 81.9163 11.2916 82.4215C11.2767 82.9268 10.8316 83.2584 10.3717 83.2584Z" fill="#46433E"/>
<path d="M78.992 81.4426L65.0899 81.2847C64.6299 81.2847 64.3184 80.9689 64.3184 80.4636C64.3184 79.9584 64.6151 79.6426 65.0899 79.6426L78.992 79.8005C79.4519 79.8005 79.7635 80.1163 79.7635 80.6215C79.7783 81.1268 79.3035 81.4426 78.992 81.4426Z" fill="#46433E"/>
<path d="M65.089 81.2841C64.7923 81.2841 64.4659 81.1262 64.3175 80.7946C64.1543 80.3051 64.3175 79.9735 64.7775 79.642L77.4481 73.7209C77.908 73.5472 78.2196 73.7209 78.5312 74.2104C78.6795 74.6999 78.5312 75.0314 78.0712 75.363L65.4006 81.2841C65.2374 81.2841 65.089 81.2841 65.089 81.2841Z" fill="#46433E"/>
<path d="M77.2839 88.8471C77.1207 88.8471 76.9872 88.8471 76.824 88.6892L64.6133 81.126C64.3166 80.9681 64.1534 80.4629 64.3166 79.9734C64.4649 79.6576 64.9397 79.4839 65.3996 79.6576L77.6103 87.2208C77.9071 87.3787 78.0703 87.8839 77.9071 88.3734C77.9071 88.6892 77.6103 88.8471 77.2839 88.8471Z" fill="#46433E"/>
<path d="M4.95511 73.547C4.49517 73.547 4.18359 73.2312 4.18359 72.726V56.447C4.18359 55.9576 4.48033 55.626 4.95511 55.626C5.41505 55.626 5.72662 55.9418 5.72662 56.447V72.7418C5.72662 73.2155 5.26668 73.547 4.95511 73.547Z" fill="#46433E"/>
<path d="M56.425 78.4892C55.965 78.4892 55.6534 78.1734 55.6534 77.6682L55.4902 70.5945C55.4902 70.105 55.787 69.7734 56.2617 69.7734C56.7365 69.7734 57.0333 70.0892 57.0333 70.5945L57.1965 77.6682C57.1816 78.1576 56.8849 78.4892 56.425 78.4892Z" fill="#46433E"/>
<path d="M51.0089 88.6894C50.549 88.6894 50.2374 88.3736 50.2374 87.8684L50.0742 80.7947C50.0742 80.3052 50.371 79.9736 50.8457 79.9736C51.3205 79.9736 51.6172 80.2894 51.6172 80.7947L51.7805 87.8684C51.7953 88.1999 51.4689 88.5157 51.0089 88.6894Z" fill="#46433E"/>
<path d="M47.6105 79.7998C47.1506 79.7998 46.839 79.484 46.839 78.9787L46.6758 71.905C46.6758 71.4156 46.9725 71.084 47.4473 71.084C47.9221 71.084 48.2188 71.3998 48.2188 71.905L48.382 78.9787C48.3968 79.4682 48.0704 79.7998 47.6105 79.7998Z" fill="#46433E"/>
<path d="M37.5675 86.5419C37.1076 86.5419 36.796 86.2261 36.796 85.7209L36.6328 80.6209C36.6328 80.1314 36.9296 79.7998 37.4043 79.7998C37.7011 79.7998 38.1758 80.1156 38.1758 80.6209L38.339 85.7209C38.3539 86.0524 38.0275 86.5419 37.5675 86.5419Z" fill="#46433E"/>
<path d="M31.8546 79.9739C31.3947 79.9739 31.0831 79.6581 31.0831 79.1528L30.9199 74.2107C30.9199 73.7212 31.2167 73.3896 31.6914 73.3896C32.1662 73.3896 32.4629 73.7054 32.4629 74.2107L32.6262 79.1528C32.6113 79.4686 32.3146 79.9739 31.8546 79.9739Z" fill="#46433E"/>
<path d="M23.0421 80.4631C22.5822 80.4631 22.2706 80.1473 22.2706 79.6421L22.1074 74.7C22.1074 74.2105 22.4042 73.8789 22.8789 73.8789C23.3537 73.8789 23.6504 74.1947 23.6504 74.7L23.8137 79.6421C23.8137 80.1315 23.5021 80.4631 23.0421 80.4631Z" fill="#46433E"/>
<path d="M20.1046 80.132C19.6447 80.132 19.3331 79.8162 19.3331 79.3109L19.1699 75.032C19.1699 74.5425 19.4667 74.2109 19.9414 74.2109C20.4162 74.2109 20.7129 74.5267 20.7129 75.032L20.8762 79.3109C20.8762 79.6425 20.5794 80.132 20.1046 80.132Z" fill="#46433E"/>
<path d="M21.958 25.8478H7.43278C5.57818 25.8478 4.03516 24.2057 4.03516 22.232C4.03516 20.2583 5.57818 18.6162 7.43278 18.6162H21.958C23.8126 18.6162 25.3556 20.2583 25.3556 22.232C25.3556 24.2057 23.8126 25.8478 21.958 25.8478ZM7.43278 20.432C6.3497 20.432 5.57818 21.2531 5.57818 22.4057C5.57818 23.5583 6.3497 24.3794 7.43278 24.3794H21.958C23.0411 24.3794 23.8126 23.5583 23.8126 22.4057C23.8126 21.2531 23.0411 20.432 21.958 20.432H7.43278Z" fill="#46433E"/>
<path d="M25.668 30.4417H3.70956C3.41282 30.4417 3.08641 30.268 2.93804 29.9523C2.78967 29.6365 2.93804 29.2891 3.10125 28.9575L7.56712 24.6786C7.73033 24.5049 7.86386 24.5049 8.02706 24.5049H21.0093C21.1725 24.5049 21.306 24.5049 21.4692 24.6786L25.8015 28.7838C26.0983 28.9575 26.2615 29.2733 26.2615 29.447C26.4395 30.1259 26.128 30.4417 25.668 30.4417ZM5.72736 28.8154H23.665L20.8906 26.1944H8.51668L5.72736 28.8154Z" fill="#46433E"/>
<path d="M73.5911 34.9263C64.5407 34.9263 57.1816 27.0947 57.1816 17.4632C57.1816 7.83158 64.5407 0 73.5911 0C82.6416 0 90.0006 7.83158 90.0006 17.4632C90.0006 27.0947 82.6416 34.9263 73.5911 34.9263ZM73.5911 1.61053C65.3864 1.61053 58.695 8.71579 58.695 17.4632C58.695 26.2105 65.3716 33.3158 73.5911 33.3158C81.8107 33.3158 88.4873 26.2105 88.4873 17.4632C88.4873 8.71579 81.8107 1.61053 73.5911 1.61053Z" fill="#C65049"/>
<path d="M65.1342 27.2206C64.9413 27.2206 64.7485 27.1416 64.6001 26.9837C64.3182 26.6679 64.3182 26.1627 64.6001 25.8469L81.4844 7.95742C81.7811 7.65742 82.2559 7.65742 82.5526 7.95742C82.8345 8.27321 82.8345 8.77847 82.5526 9.09426L65.6832 26.9995C65.52 27.1416 65.3271 27.2206 65.1342 27.2206Z" fill="#C65049"/>
<path d="M81.9884 27.2525C81.7956 27.2525 81.6027 27.1735 81.4543 27.0156L64.6294 9.06301C64.3475 8.74722 64.3475 8.24196 64.6294 7.92617C64.9261 7.62617 65.4009 7.62617 65.6976 7.92617L82.5226 25.8946C82.8045 26.2104 82.8045 26.7156 82.5226 27.0314C82.389 27.1893 82.1813 27.2525 81.9884 27.2525Z" fill="#C65049"/>
</g>
<defs>
<clipPath id="clip0_3748_11513">
<rect width="90" height="90" fill="white"/>
</clipPath>
</defs>
</svg>
