<svg width="90" height="90" viewBox="0 0 90 90" fill="none" xmlns="http://www.w3.org/2000/svg">
<path d="M82.9663 44.8022H70.5932C70.1243 44.8022 69.8066 44.4824 69.8066 44.0103V32.9697C69.8066 32.8022 69.8066 32.8022 69.8066 32.6499L73.573 24.2895C73.7394 23.9697 74.0419 23.8174 74.3596 23.8174H79.0638C79.3814 23.8174 79.6991 23.9849 79.8503 24.2895L83.6167 32.6499C83.6167 32.8174 83.6167 32.8174 83.6167 32.9697V44.0103C83.7377 44.4976 83.2688 44.8022 82.9663 44.8022ZM71.3797 43.2336H81.9377V33.1524L78.5797 25.4316H74.9798L71.3797 33.1524V43.2336Z" fill="#46433E"/>
<path d="M59.6268 67.0664C57.4335 67.8583 54.6201 68.3304 51.3226 68.3304C48.1915 68.3304 44.9091 67.8583 42.247 67.2187C35.6823 65.3304 28.1646 58.3558 25.8201 56.2999C28.1646 54.5639 35.5159 49.0512 41.1579 46.5385C43.8201 45.2745 47.1024 44.6502 50.5512 44.6502C54.3176 44.6502 58.2201 45.442 60.8823 46.6908C62.1377 47.3304 63.847 48.2745 65.7377 49.5233V47.6349C64.1646 46.6908 62.773 45.7466 61.6688 45.2745C58.7041 43.8583 54.6352 43.0664 50.7024 43.0664C46.936 43.0664 43.5024 43.706 40.689 45.107C33.9579 48.2593 24.7159 55.3405 24.4133 55.6603C24.247 55.8278 24.0957 55.9801 24.0957 56.2999C24.0957 56.4522 24.0957 56.772 24.2621 56.9395C24.5797 57.2593 33.8066 66.2441 41.9444 68.6045C44.6066 69.3964 48.0402 69.8684 51.3377 69.8684C53.8335 69.8684 57.2823 69.5486 60.2621 68.4522C61.6688 67.9801 63.5444 66.7162 65.7377 65.4674V63.5791C63.7865 65.1933 61.1848 66.442 59.6268 67.0664Z" fill="#46433E"/>
<path d="M58.2206 47.9549C54.6206 46.3712 48.3584 45.7468 43.8206 47.7874C39.1164 49.9955 32.945 54.5641 32.6273 54.7164C32.3097 55.0362 32.1584 55.5082 32.4609 55.828C32.7786 56.1478 33.187 56.2392 33.5046 55.9194C33.5046 55.9194 37.4979 53.1478 41.2492 50.7722C40.6139 52.1884 40.0391 53.9245 40.0391 55.5082C40.0391 61.493 44.8946 66.3813 50.8391 66.3813C56.7836 66.3813 61.6391 61.493 61.6391 55.5082C61.6391 53.9245 61.2458 52.1428 60.55 50.9549C62.0777 51.7316 64.2862 53.4676 65.708 54.4118V52.691C63.2425 50.9549 60.1114 48.762 58.2206 47.9549ZM50.824 65.1021C45.6509 65.1021 41.4912 60.8077 41.4912 55.7671C41.4912 53.559 42.2777 51.5032 43.6845 49.7824C43.6845 49.7824 44.4559 49.2646 44.7735 49.1123C49.0088 47.224 54.6357 47.8027 57.9181 49.3864C58.1601 49.4778 58.2357 49.5387 58.2357 49.5387C59.6425 51.2747 60.429 53.3306 60.429 55.6757C60.2626 60.8839 55.8307 65.1021 50.824 65.1021Z" fill="#46433E"/>
<path d="M51.0195 51.7461C49.1439 51.7461 47.5859 53.3299 47.5859 55.2029C47.5859 57.0913 49.159 58.6598 51.0195 58.6598C52.8801 58.6598 54.4532 57.076 54.4532 55.2029C54.4683 53.3299 52.759 51.7461 51.0195 51.7461ZM51.0195 57.1065C50.0817 57.1065 49.1439 56.3146 49.1439 55.2182C49.1439 54.1217 49.9305 53.3299 51.0195 53.3299C51.9574 53.3299 52.8952 54.1217 52.8952 55.2182C52.9103 56.3146 51.9725 57.1065 51.0195 57.1065Z" fill="#46433E"/>
<path d="M31.7785 46.5533C31.9448 46.7208 32.2474 46.8731 32.4137 46.8731C32.5801 46.8731 32.7314 46.8731 32.8827 46.7056C33.2003 46.3858 33.3516 45.9137 33.049 45.5939L29.7667 41.0254C29.449 40.7056 28.9801 40.5533 28.6625 40.8731C28.3448 41.1929 28.1936 41.665 28.4961 41.9848L31.7785 46.5533Z" fill="#46433E"/>
<path d="M27.863 49.8579C28.0294 49.8579 28.1806 49.8579 28.3319 49.7056C28.6495 49.3858 28.8008 48.9137 28.4983 48.5939L25.2159 44.0254C24.8983 43.7056 24.4293 43.5533 24.1117 43.8731C23.7941 44.1929 23.6428 44.665 23.9453 44.9848L27.2277 49.5533C27.3941 49.7056 27.5453 49.8579 27.863 49.8579Z" fill="#46433E"/>
<path d="M41.0209 41.6654C41.1873 41.9852 41.4898 42.1375 41.6562 42.1375C41.8226 42.1375 41.9739 42.1375 41.9739 41.97C42.2915 41.8177 42.4428 41.3304 42.2915 40.8583L39.6293 35.8177C39.463 35.4979 38.994 35.3456 38.5251 35.4979C38.2075 35.6502 38.0562 36.1375 38.2075 36.6096L41.0209 41.6654Z" fill="#46433E"/>
<path d="M36.0014 43.8582C36.1678 44.178 36.4703 44.3303 36.6367 44.3303C36.8031 44.3303 36.9543 44.3303 36.9543 44.178C37.272 44.0105 37.4233 43.5384 37.272 43.0663L34.6098 38.0257C34.4434 37.7059 33.9745 37.5537 33.5056 37.7059C33.188 37.8734 33.0367 38.3455 33.188 38.8176L36.0014 43.8582Z" fill="#46433E"/>
<path d="M83.269 76.0202H70.8959C67.7648 76.0202 65.2539 73.5075 65.2539 70.34V48.9136C65.2539 45.7613 67.7497 43.2334 70.8959 43.2334H83.269C86.4001 43.2334 88.911 45.7461 88.911 48.9136V70.34C88.911 73.4923 86.4001 76.0202 83.269 76.0202ZM70.911 44.9694C68.7178 44.9694 66.8421 46.7055 66.8421 49.0659V70.5075C66.8421 72.7156 68.5968 74.5126 70.9564 74.5126H83.3295C85.5228 74.5126 87.3531 72.8679 87.3531 70.5075V49.0659C87.3531 46.8578 85.6287 44.9694 83.2842 44.9694H70.911Z" fill="#46433E"/>
<path d="M53.8488 32.9847C49.4622 32.9847 45.7109 29.3603 45.7109 24.7918C45.7109 20.5278 52.7445 7.29431 53.0622 6.83746C53.3798 6.36538 54.1664 6.36538 54.4689 6.83746C54.7866 7.47705 61.8202 20.543 61.8202 24.7918C61.8202 29.208 58.2202 32.9847 53.8488 32.9847ZM53.8488 8.72578C51.5042 13.142 47.284 21.807 47.284 24.6395C47.284 28.2639 50.2488 31.2486 53.8488 31.2486C57.4487 31.2486 60.4135 28.2639 60.4135 24.6395C60.2622 21.807 56.1933 13.142 53.8488 8.72578Z" fill="#46433E"/>
<path d="M55.2563 30.0004C54.9386 30.0004 54.7874 29.8481 54.621 29.6806C54.4697 29.3608 54.4697 28.8887 54.9386 28.5689C56.3454 27.6248 57.2832 26.0562 57.2832 24.305C57.2832 23.6654 56.9655 22.2644 55.7101 19.0968C55.5437 18.6248 55.7101 18.305 56.179 17.9852C56.6479 17.8177 56.9655 17.9852 57.2832 18.4573C58.3874 21.2897 59.0075 23.0258 59.0075 24.2897C59.0075 26.6502 57.7521 28.706 55.8764 29.9699C55.4227 30.0004 55.2563 30.0004 55.2563 30.0004Z" fill="#46433E"/>
<path d="M17.1237 35.3607C8.09345 35.3607 0.742188 27.9597 0.742188 18.8684C0.742188 9.77699 8.09345 2.37598 17.1237 2.37598C26.154 2.37598 33.5052 9.77699 33.5052 18.8684C33.5052 27.9597 26.154 35.3607 17.1237 35.3607ZM17.1237 3.91405C8.92538 3.91405 2.25479 10.6298 2.25479 18.8836C2.25479 27.1374 8.92538 33.8531 17.1237 33.8531C25.322 33.8531 31.9926 27.1374 31.9926 18.8836C31.9926 10.6298 25.322 3.91405 17.1237 3.91405Z" fill="#54A261"/>
<path d="M16.7449 27.3047C16.5331 27.3047 16.3213 27.2134 16.1701 27.0458L7.89612 17.5433C7.62385 17.2235 7.6541 16.7514 7.97175 16.4621C8.2894 16.188 8.75831 16.2184 9.0457 16.5382L16.639 25.2641L25.6995 10.4164C25.9112 10.0509 26.3802 9.94432 26.7432 10.1728C27.1062 10.3859 27.2121 10.858 26.9852 11.2235L17.3953 26.9392C17.2743 27.1524 17.0474 27.2743 16.8205 27.3047C16.7902 27.3047 16.7751 27.3047 16.7449 27.3047Z" fill="#54A261"/>
</svg>
