<svg width="90" height="90" viewBox="0 0 90 90" fill="none" xmlns="http://www.w3.org/2000/svg">
<g clip-path="url(#clip0_3672_30573)">
<path d="M28.0137 44.0867C28.0137 44.0715 28.0137 44.041 28.0137 44.0105C27.9683 43.9649 27.9381 43.9039 27.9381 43.843C27.9381 43.4319 27.9381 43.0055 27.9835 42.5943C27.9986 42.5334 28.0137 42.4877 28.044 42.442C27.3936 41.0867 25.5936 38.5283 21.3734 38.4065C19.8305 38.4065 18.5751 38.711 17.486 39.1831C10.649 35.8938 2.55658 40.2796 2.25406 40.4319C1.95154 40.4319 1.78516 40.9039 1.78516 41.0562C1.78516 41.2085 1.95154 41.5283 2.25406 41.6806C2.42045 41.6806 6.61037 43.8735 10.8003 43.5537C13.1297 43.4014 14.5213 42.4572 16.0793 41.5283C16.5482 41.2237 17.1683 40.9039 17.6373 40.5841C17.7885 40.5841 17.7885 40.4166 17.9398 40.4166C18.8776 40.0968 19.9667 39.7923 21.207 39.7923C25.881 39.9598 26.8036 43.3862 26.8036 43.5537C26.9549 43.8735 27.2726 44.1781 27.5751 44.1781C27.7263 44.1781 27.7263 44.1781 27.7112 44.1628C27.8322 44.1781 27.923 44.1324 28.0137 44.0867ZM15.3078 40.31C13.9162 41.1019 12.6608 41.8786 10.8003 42.0308C8.47087 42.1831 6.14146 41.5588 4.58348 40.9344C6.91289 39.9902 11.5717 38.5892 15.6255 40.1578C15.6255 40.1578 15.4742 40.31 15.3078 40.31Z" fill="#46433E"/>
<path d="M62.5778 64.4164C62.4114 64.4164 62.4114 64.4164 62.2753 64.4164C61.8064 64.2489 61.6551 63.7921 61.8064 63.32C63.5156 59.254 63.6669 55.9647 62.1089 53.7718C60.5509 51.4266 57.9039 50.9545 56.9812 50.8022C54.803 50.6347 53.245 51.5789 51.8534 52.523C50.4467 53.4672 48.9039 54.2439 46.7257 54.5484C43.3072 54.853 41.7492 53.2997 41.598 53.2997C41.2955 52.9951 41.2955 52.523 41.598 52.2032C41.9005 51.8987 42.3694 51.8987 42.6871 52.2032C42.6871 52.2032 43.9274 53.2997 46.5745 53.1474C48.435 52.9951 49.6904 52.2033 51.082 51.4266C52.7913 50.4824 54.5005 49.4012 57.1476 49.5535C58.2366 49.5535 61.6551 50.3302 63.5308 53.1474C65.24 55.8124 65.24 59.5738 63.3644 64.2642C63.198 64.2642 62.8955 64.4164 62.5778 64.4164Z" fill="#46433E"/>
<path d="M55.7388 49.553C55.1186 49.3855 42.8362 44.2383 36.1505 48.6088C33.6699 50.1774 32.2631 52.9946 32.1119 56.9083C31.9455 60.1977 32.732 63.3195 34.1236 66.6088C34.1993 66.7763 34.3354 66.8982 34.4867 66.9743C34.4867 66.9743 34.5018 66.9743 34.5018 66.9591C34.5472 66.9439 34.5925 66.9134 34.6379 66.8982C34.653 66.8068 34.7287 66.7307 34.8194 66.7154C35.0766 66.6697 35.3337 66.6088 35.5909 66.5936C35.606 66.4565 35.5909 66.3043 35.5304 66.1367C34.1236 62.9997 33.5035 60.1824 33.6699 57.0606C33.8211 53.7713 34.9102 51.4261 37.0883 50.0251C42.443 46.4769 52.7589 50.2535 54.7858 50.9997C55.164 50.6342 55.6631 50.4819 56.1774 50.421C56.2077 50.421 56.253 50.421 56.2833 50.4362C56.3136 50.0403 56.132 49.6748 55.7388 49.553Z" fill="#46433E"/>
<path d="M48.5844 51.579C48.2819 51.579 47.813 51.2744 47.813 50.9546C47.813 50.8023 47.0415 45.9445 49.8247 40.782C49.976 40.4774 50.4449 40.3099 50.9138 40.4774C51.2163 40.645 51.3827 41.1018 51.2163 41.5739C48.7357 46.2795 49.3558 50.8176 49.3558 50.8176C49.3558 51.1069 49.0533 51.579 48.5844 51.579Z" fill="#46433E"/>
<path d="M37.5428 63.6245C37.2402 63.6245 36.9226 63.457 36.7713 63.1524C36.605 63.0001 34.7596 58.7666 36.3024 53.7565C36.4688 53.2844 36.9226 53.1321 37.2402 53.2844C37.7092 53.4519 37.8604 53.9088 37.7092 54.2286C36.4688 58.7666 38.1781 62.5281 38.1781 62.5281C38.3444 63.0001 38.1781 63.3047 37.8755 63.6245C37.8604 63.6245 37.694 63.6245 37.5428 63.6245Z" fill="#46433E"/>
<path d="M60.7152 82.2644C60.5488 82.2644 60.4127 82.2644 60.2463 82.2644L12.5085 76.7822C10.3303 76.4776 8.62109 74.5893 8.62109 72.3964C8.62109 70.2035 10.3303 68.1629 12.5085 68.0106L60.2463 62.5284C62.8934 62.2238 65.2228 64.2492 65.2228 66.9142V77.7111C65.2228 80.2238 63.1959 82.2644 60.7152 82.2644ZM60.7152 64.0969C60.5488 64.0969 60.5488 64.0969 60.4127 64.0969L12.6749 69.5792C11.2682 69.7314 10.1942 70.9954 10.1942 72.3964C10.1942 73.8127 11.2833 75.0614 12.6749 75.2137L60.4127 80.6959C62.1219 80.8482 63.5287 79.5995 63.5287 77.8786V67.0817C63.6648 65.3457 62.4244 64.0969 60.7152 64.0969Z" fill="#46433E"/>
<path d="M10.1802 75.8373H4.58358C2.40543 75.8373 0.544922 73.9642 0.544922 71.7713V27.9439C0.544922 25.751 2.40543 23.8779 4.58358 23.8779H24.1718C26.35 23.8779 28.2105 25.751 28.2105 27.9439V66.9287C28.2105 67.4008 27.9079 67.7053 27.439 67.7053C26.9701 67.7053 26.6676 67.4008 26.6676 66.9287V27.9439C26.6676 26.5277 25.5785 25.4465 24.1869 25.4465H4.73484C3.32811 25.4465 2.25417 26.5429 2.25417 27.9439V71.7713C2.25417 73.1876 3.34324 74.2688 4.73484 74.2688H10.3315C10.8004 74.2688 11.1029 74.5734 11.1029 75.0454C11.1029 75.5328 10.6491 75.8373 10.1802 75.8373Z" fill="#46433E"/>
<path d="M79.2142 74.1167L65.2226 73.9644C64.7537 73.9644 64.4512 73.6599 64.4512 73.1878C64.4512 72.7157 64.7537 72.4111 65.2226 72.4111L79.2142 72.5634C79.6831 72.5634 79.9856 72.868 79.9856 73.3401C80.0007 73.8121 79.5318 74.1167 79.2142 74.1167Z" fill="#46433E"/>
<path d="M65.2249 73.9646C64.9224 73.9646 64.6048 73.8123 64.4535 73.4925C64.2871 73.0204 64.4535 72.7159 64.9224 72.3961L77.6737 66.7615C78.1426 66.594 78.4451 66.7615 78.7627 67.2336C78.914 67.7057 78.7627 68.0103 78.2938 68.3301L65.5426 73.9646C65.3762 73.9646 65.2249 73.9646 65.2249 73.9646Z" fill="#46433E"/>
<path d="M77.5064 81.1674C77.34 81.1674 77.2038 81.1674 77.0375 81.0151L64.7551 73.8121C64.4526 73.6598 64.2862 73.1877 64.4526 72.7156C64.6038 72.411 65.0728 72.2435 65.5417 72.411L77.824 79.6141C78.1265 79.7664 78.2929 80.2385 78.1265 80.7105C78.1265 81.0151 77.824 81.1674 77.5064 81.1674Z" fill="#46433E"/>
<path d="M4.73432 66.6095C4.26541 66.6095 3.96289 66.305 3.96289 65.8329V50.3304C3.96289 49.8583 4.26541 49.5537 4.73432 49.5537C5.20323 49.5537 5.50575 49.8583 5.50575 50.3304V65.8329C5.52087 66.2898 5.05197 66.6095 4.73432 66.6095Z" fill="#46433E"/>
<path d="M56.512 71.2999C56.0431 71.2999 55.7406 70.9953 55.7406 70.5232L55.5742 63.7923C55.5742 63.3202 55.8767 63.0156 56.3456 63.0156C56.8146 63.0156 57.1171 63.3202 57.1171 63.7923L57.2835 70.5232C57.2835 70.9953 56.9809 71.2999 56.512 71.2999Z" fill="#46433E"/>
<path d="M51.0667 81.0157C50.5978 81.0157 50.2953 80.7111 50.2953 80.2391L50.1289 73.5081C50.1289 73.036 50.4314 72.7314 50.9003 72.7314C51.3692 72.7314 51.6718 73.036 51.6718 73.5081L51.8382 80.2391C51.8533 80.5436 51.5356 80.8482 51.0667 81.0157Z" fill="#46433E"/>
<path d="M47.6468 72.5479C47.1779 72.5479 46.8754 72.2434 46.8754 71.7713L46.709 65.0403C46.709 64.5682 47.0115 64.2637 47.4804 64.2637C47.9493 64.2637 48.2518 64.5682 48.2518 65.0403L48.4182 71.7713C48.4334 72.2434 48.1157 72.5479 47.6468 72.5479Z" fill="#46433E"/>
<path d="M37.5433 78.9746C37.0744 78.9746 36.7719 78.6701 36.7719 78.198L36.6055 73.3401C36.6055 72.868 36.908 72.5635 37.3769 72.5635C37.6794 72.5635 38.1483 72.868 38.1483 73.3401L38.3147 78.198C38.3298 78.5026 38.0122 78.9746 37.5433 78.9746Z" fill="#46433E"/>
<path d="M31.7952 72.7159C31.3263 72.7159 31.0238 72.4113 31.0238 71.9393L30.8574 67.2337C30.8574 66.7616 31.1599 66.457 31.6289 66.457C32.0978 66.457 32.4003 66.7616 32.4003 67.2337L32.5667 71.9393C32.5667 72.2438 32.2641 72.7159 31.7952 72.7159Z" fill="#46433E"/>
<path d="M22.932 73.1876C22.4631 73.1876 22.1605 72.883 22.1605 72.4109L21.9941 67.7054C21.9941 67.2333 22.2967 66.9287 22.7656 66.9287C23.2345 66.9287 23.537 67.2333 23.537 67.7054L23.7034 72.4109C23.7034 72.8678 23.4009 73.1876 22.932 73.1876Z" fill="#46433E"/>
<path d="M19.9808 72.8683C19.5119 72.8683 19.2094 72.5637 19.2094 72.0917L19.043 68.0257C19.043 67.5536 19.3455 67.249 19.8144 67.249C20.2833 67.249 20.5858 67.5536 20.5858 68.0257L20.7522 72.0917C20.7522 72.3962 20.4497 72.8683 19.9808 72.8683Z" fill="#46433E"/>
<path d="M21.8428 21.2133H7.23099C5.37048 21.2133 3.8125 19.6448 3.8125 17.7717C3.8125 15.8986 5.37048 14.3301 7.23099 14.3301H21.8428C23.7033 14.3301 25.2612 15.8986 25.2612 17.7717C25.2612 19.6448 23.7033 21.2133 21.8428 21.2133ZM7.23099 16.0509C6.14191 16.0509 5.37048 16.8275 5.37048 17.924C5.37048 19.0204 6.14191 19.7971 7.23099 19.7971H21.8428C22.9318 19.7971 23.7033 19.0204 23.7033 17.924C23.7033 16.8275 22.9318 16.0509 21.8428 16.0509H7.23099Z" fill="#46433E"/>
<path d="M25.5779 25.5833H3.49386C3.19134 25.5833 2.8737 25.4158 2.72244 25.1113C2.57118 24.8067 2.72244 24.4869 2.88882 24.1671L7.38126 20.1011C7.54765 19.9336 7.68378 19.9336 7.85017 19.9336H20.9039C21.0703 19.9336 21.2065 19.9336 21.3729 20.1011L25.7292 24.0148C26.0317 24.1823 26.1981 24.4869 26.1981 24.6392C26.3493 25.2788 26.0317 25.5833 25.5779 25.5833ZM5.52076 24.03H23.5661L20.7678 21.5326H8.31907L5.52076 24.03Z" fill="#46433E"/>
<path d="M73.6628 33.5486C64.6325 33.5486 57.2812 26.1476 57.2812 17.0563C57.2812 7.96489 64.6325 0.579102 73.6628 0.579102C82.693 0.579102 90.0443 7.98012 90.0443 17.0715C90.0443 26.1629 82.693 33.5486 73.6628 33.5486ZM73.6628 2.10194C65.4644 2.10194 58.7939 8.81768 58.7939 17.0715C58.7939 25.3253 65.4644 32.041 73.6628 32.041C81.8611 32.041 88.5317 25.3253 88.5317 17.0715C88.5317 8.81768 81.8611 2.10194 73.6628 2.10194Z" fill="#54A261"/>
<path d="M73.2995 25.5079C73.0878 25.5079 72.876 25.4165 72.7248 25.249L64.4508 15.7464C64.1785 15.4266 64.2088 14.9546 64.5264 14.6652C64.8441 14.3911 65.313 14.4216 65.6004 14.7414L73.1937 23.4672L82.2542 8.61953C82.4659 8.25405 82.9348 8.14745 83.2979 8.37588C83.6609 8.58907 83.7668 9.06115 83.5399 9.42664L73.95 25.1576C73.829 25.3708 73.6021 25.4926 73.3752 25.5231C73.3449 25.5079 73.3147 25.5079 73.2995 25.5079Z" fill="#54A261"/>
</g>
<defs>
<clipPath id="clip0_3672_30573">
<rect width="90" height="90" fill="white"/>
</clipPath>
</defs>
</svg>
