<svg width="90" height="90" viewBox="0 0 90 90" fill="none" xmlns="http://www.w3.org/2000/svg">
<path d="M72.6803 33.093C63.6501 33.093 56.2988 25.9225 56.2988 17.1291C56.2988 8.33564 63.6501 1.15039 72.6803 1.15039C81.7106 1.15039 89.0619 8.32088 89.0619 17.1291C89.0619 25.9373 81.7106 33.093 72.6803 33.093ZM72.6803 2.6258C64.482 2.6258 57.8114 9.13236 57.8114 17.1291C57.8114 25.1258 64.482 31.6176 72.6803 31.6176C80.8787 31.6176 87.5492 25.111 87.5492 17.1291C87.5492 9.14711 80.8787 2.6258 72.6803 2.6258Z" fill="#54A261"/>
<path d="M72.3191 25.3035C72.1073 25.3035 71.8955 25.215 71.7443 25.0527L63.4703 15.8461C63.1981 15.5363 63.2283 15.0789 63.546 14.7986C63.8636 14.533 64.3325 14.5625 64.6199 14.8724L72.2132 23.3265L81.2737 8.94121C81.4855 8.58711 81.9544 8.48383 82.3174 8.70514C82.6804 8.9117 82.7863 9.36908 82.5594 9.72318L72.9695 24.9642C72.8485 25.1707 72.6216 25.2888 72.3947 25.3183C72.3493 25.3035 72.3342 25.3035 72.3191 25.3035Z" fill="#54A261"/>
<path d="M65.7377 86.2373H8.18304C7.75951 86.2373 7.39648 85.898 7.39648 85.4701C7.39648 85.057 7.74438 84.7029 8.18304 84.7029H64.9662V74.1685C64.9662 66.3193 58.0688 59.6799 49.8856 59.6799C49.462 59.6799 49.099 59.3406 49.099 58.9127C49.099 58.4849 49.4469 58.1455 49.8856 58.1455C58.9007 58.1455 66.5242 65.4783 66.5242 74.1537V85.4406C66.5242 85.898 66.1763 86.2373 65.7377 86.2373Z" fill="#45423D"/>
<path d="M3.53905 86.238H1.54241C1.11888 86.238 0.755859 85.8987 0.755859 85.4708V74.1839C0.755859 65.4347 8.04662 58.3232 17.0164 58.3232C17.4399 58.3232 17.8029 58.6626 17.8029 59.0905C17.8029 59.5036 17.455 59.8577 17.0164 59.8577C8.9088 59.8577 2.31384 66.2905 2.31384 74.1987V84.7331H3.52393C3.94746 84.7331 4.31048 85.0724 4.31048 85.5003C4.31048 85.8987 3.96258 86.238 3.53905 86.238Z" fill="#45423D"/>
<path d="M41.7935 55.4903C41.5061 55.4903 41.2187 55.328 41.0977 55.0624C41.0372 54.9591 39.7969 52.4067 39.7969 48.6149C39.7969 48.2018 40.1448 47.8477 40.5834 47.8477C41.0221 47.8477 41.37 48.187 41.37 48.6149C41.37 52.0526 42.5044 54.369 42.5196 54.3985C42.7011 54.7821 42.5498 55.2247 42.1565 55.4165C42.0204 55.4608 41.8994 55.4903 41.7935 55.4903Z" fill="#45423D"/>
<path d="M24.4439 55.3428C24.3229 55.3428 24.217 55.3133 24.1111 55.269C23.7178 55.092 23.5666 54.6346 23.7481 54.251C23.7632 54.2215 24.8977 51.8904 24.8977 48.4674C24.8977 48.0543 25.2456 47.7002 25.6842 47.7002C26.1077 47.7002 26.4708 48.0395 26.4708 48.4674C26.4708 52.2445 25.2304 54.8117 25.1699 54.915C25.0035 55.1805 24.7313 55.3428 24.4439 55.3428Z" fill="#45423D"/>
<path d="M32.9603 51.8316C26.7435 51.8316 21.3738 46.7709 20.1788 39.9398C18.5755 39.8955 17.2292 38.0217 16.957 35.4398C16.836 34.2447 16.9721 33.0644 17.3502 32.1496C17.804 31.0726 18.5301 30.4234 19.4225 30.3349C19.4528 30.3349 19.604 30.3201 19.6192 30.3201C19.8612 30.3201 20.1032 30.3644 20.3301 30.4381C19.9973 26.6021 20.3301 20.0808 25.8965 17.9267C26.0931 17.8529 26.3049 17.8529 26.4864 17.9414C26.683 18.0152 26.8192 18.1775 26.8948 18.3545C28.0292 21.1873 31.2057 21.4381 34.8813 21.7185C39.6914 22.0873 45.5906 22.5447 45.878 30.6299C46.1956 30.4676 46.5435 30.3791 46.8763 30.3791C46.9065 30.3791 47.0578 30.3791 47.0729 30.3939C48.7671 30.5709 49.8259 32.7545 49.5385 35.4988C49.2662 38.1103 47.8746 40.0135 46.2561 40.0135C46.241 40.0135 46.2259 40.0135 46.1805 40.0135C44.8948 46.7119 39.2225 51.8316 32.9603 51.8316ZM20.8292 38.2726C20.9502 38.2726 21.0713 38.3021 21.1923 38.3611C21.4192 38.4791 21.5855 38.7004 21.6158 38.9512C22.4175 45.4431 27.3032 50.3267 32.9755 50.3267C38.7536 50.3267 43.957 45.325 44.8494 38.9217C44.8797 38.6562 45.0612 38.4349 45.3032 38.3316C45.5452 38.2283 45.8326 38.2431 46.0595 38.3906C46.1805 38.4644 46.241 38.4939 46.2864 38.4939C46.9065 38.4939 47.8595 37.2988 48.0561 35.3512C48.2679 33.3447 47.557 31.9873 46.9822 31.9283C46.604 31.9283 46.1654 32.3414 45.8175 32.9906C45.6511 33.3152 45.2729 33.4775 44.9099 33.3742C44.562 33.2709 44.32 32.9463 44.3351 32.5922C44.9099 24.0644 40.2208 23.6955 34.8057 23.2676C31.236 22.9873 27.5452 22.707 25.8511 19.6676C21.8729 21.748 21.3133 27.4873 22.1755 32.3414C22.236 32.7103 22.0242 33.0644 21.6612 33.1824C21.2981 33.3004 20.9049 33.1529 20.7234 32.8283C20.3906 32.2381 19.9671 31.8545 19.6494 31.8545C19.3318 31.884 19.0292 32.2086 18.8175 32.725C18.5301 33.4037 18.4242 34.3332 18.5301 35.2775C18.7418 37.225 19.6797 38.4201 20.2696 38.4201C20.3603 38.4201 20.4208 38.3906 20.4965 38.3611C20.5721 38.3021 20.6931 38.2726 20.8292 38.2726Z" fill="#45423D"/>
<path d="M47.1329 31.7798C47.0724 31.7798 47.0118 31.7798 46.9362 31.7503C46.5127 31.647 46.2707 31.2339 46.3614 30.8356C46.4068 30.688 50.1278 15.5651 40.3564 10.9028C32.8539 7.31754 27.5597 12.629 27.5144 12.688C27.3631 12.8503 27.1816 12.9389 26.9245 12.9241C26.8942 12.9241 22.5228 12.8651 19.8152 15.8749C15.6404 20.4929 18.6959 28.1356 19.7245 30.3634C19.7396 30.3929 19.8001 30.5405 19.8152 30.5552C19.9513 30.9536 19.7245 31.3815 19.316 31.5143C18.9228 31.647 18.4992 31.4405 18.348 31.0716C17.1682 28.5339 13.8555 20.1684 18.6354 14.8569C21.4034 11.788 25.4421 11.4339 26.6219 11.4044C27.8471 10.3126 33.4892 5.94541 41.0371 9.54541C51.9429 14.7536 48.0404 30.5405 47.874 31.2044C47.7984 31.5585 47.4808 31.7798 47.1329 31.7798Z" fill="#45423D"/>
<path d="M50.3533 59.7097L46.481 59.6064C44.2121 59.2966 42.2609 57.8212 41.3533 55.7704L41.3231 55.6966L41.0508 54.8704L42.4878 54.4277L42.7449 55.2245C43.4407 56.7736 44.923 57.8802 46.6323 58.131L50.3684 58.2195L50.3533 59.7097Z" fill="#45423D"/>
<path d="M15.6714 59.857L19.5436 59.7537C21.8126 59.4439 23.7638 57.9684 24.6714 55.9176L24.7016 55.8439L25.5941 53.7635L24.4142 52.4209L23.2798 55.3717C22.584 56.9209 21.1016 58.0275 19.3924 58.2783L15.6562 58.3668L15.6714 59.857Z" fill="#45423D"/>
<path d="M45.1215 58.5293C44.6223 59.5473 43.4122 60.5359 41.6576 61.3326C39.071 62.4981 35.6072 63.1473 31.9164 63.1473C28.2257 63.1473 24.7618 62.4981 22.1752 61.3326C20.6626 60.6539 19.5736 59.8277 18.9685 58.9719C18.8173 59.0309 18.666 59.0457 18.4996 59.0457C18.0761 59.0162 17.6525 58.9719 17.2441 58.9424C18.6206 62.2326 24.5803 64.6375 31.9164 64.6375C39.1618 64.6375 45.0458 62.2916 46.5282 59.0752C46.0441 58.9424 45.5601 58.7801 45.1215 58.5293Z" fill="#45423D"/>
</svg>
