<svg width="90" height="90" viewBox="0 0 90 90" fill="none" xmlns="http://www.w3.org/2000/svg">
<path d="M17.033 36.7044C8.05673 36.7044 0.742188 28.7012 0.742188 18.896C0.742188 9.09077 8.05673 1.07129 17.033 1.07129C26.0093 1.07129 33.3238 9.07454 33.3238 18.896C33.3238 28.7174 26.0093 36.7044 17.033 36.7044ZM17.033 2.74337C8.88759 2.74337 2.25554 9.99986 2.25554 18.9122C2.25554 27.8245 8.88759 35.0648 17.033 35.0648C25.1784 35.0648 31.8104 27.8083 31.8104 18.9122C31.8104 10.0161 25.1932 2.74337 17.033 2.74337Z" fill="#54A261"/>
<path d="M16.6771 28.0196C16.4694 28.0196 16.2617 27.9222 16.0985 27.7436L7.87891 17.4839C7.61185 17.1429 7.64152 16.6235 7.95309 16.315C8.26466 16.0228 8.73944 16.0553 9.02134 16.3962L16.5733 25.828L25.5792 9.78905C25.7869 9.39944 26.2617 9.2858 26.6178 9.52931C26.9739 9.75658 27.0777 10.2761 26.8552 10.6657L17.3151 27.6624C17.1964 27.8897 16.9739 28.0196 16.7365 28.052C16.7068 28.0196 16.692 28.0196 16.6771 28.0196Z" fill="#54A261"/>
<path d="M86.158 89.1073H46.6921C45.2678 89.1073 44.0957 87.8248 44.0957 86.2664V23.2794C44.0957 21.7209 45.2678 20.4385 46.6921 20.4385H51.6625V22.2242H46.6921C46.158 22.2242 45.7278 22.695 45.7278 23.2794V86.2664C45.7278 86.8508 46.158 87.3216 46.6921 87.3216H86.158C86.6921 87.3216 87.1224 86.8508 87.1224 86.2664V23.2794C87.1224 22.695 86.6921 22.2242 86.158 22.2242H81.8553V20.4385H86.158C87.5823 20.4385 88.7545 21.7209 88.7545 23.2794V86.2664C88.7545 87.8411 87.5823 89.1073 86.158 89.1073Z" fill="#46433E"/>
<path d="M80.0001 27.9866H53.739C52.3147 27.9866 51.1426 26.7041 51.1426 25.1456V18.1651C51.1426 16.6067 52.3147 15.3242 53.739 15.3242H80.0001C81.4245 15.3242 82.5966 16.6067 82.5966 18.1651V25.1456C82.5966 26.7203 81.4245 27.9866 80.0001 27.9866ZM53.739 17.1099C53.2049 17.1099 52.7746 17.5807 52.7746 18.1651V25.1456C52.7746 25.7301 53.2049 26.2008 53.739 26.2008H80.0001C80.5343 26.2008 80.9645 25.7301 80.9645 25.1456V18.1651C80.9645 17.5807 80.5343 17.1099 80.0001 17.1099H53.739Z" fill="#46433E"/>
<path d="M74.9851 23.4089H58.2937C56.8694 23.4089 55.6973 22.1264 55.6973 20.568V15.292H57.3293V20.568C57.3293 21.1524 57.7596 21.6232 58.2937 21.6232H74.9851C75.5192 21.6232 75.9495 21.1524 75.9495 20.568V15.292H77.5815V20.568C77.5815 22.1264 76.4243 23.4089 74.9851 23.4089Z" fill="#46433E"/>
<path d="M83.6355 42.0783L60.9352 42.0621C60.4901 42.0621 60.1191 41.6562 60.1191 41.1692C60.1191 40.6822 60.4901 40.2764 60.9352 40.2764L83.6355 40.2926C84.0806 40.2926 84.4515 40.6984 84.4515 41.1855C84.4515 41.6887 84.0806 42.0783 83.6355 42.0783Z" fill="#46433E"/>
<path d="M83.6355 50.925L60.9352 50.9088C60.4901 50.9088 60.1191 50.5029 60.1191 50.0159C60.1191 49.5289 60.4901 49.123 60.9352 49.123L83.6355 49.1393C84.0806 49.1393 84.4515 49.5451 84.4515 50.0321C84.4515 50.5191 84.0806 50.925 83.6355 50.925Z" fill="#46433E"/>
<path d="M83.6355 59.4318L60.9352 59.4156C60.4901 59.4156 60.1191 59.0098 60.1191 58.5227C60.1191 58.0357 60.4901 57.6299 60.9352 57.6299L83.6355 57.6461C84.0806 57.6461 84.4515 58.052 84.4515 58.539C84.4515 59.0422 84.0806 59.4318 83.6355 59.4318Z" fill="#46433E"/>
<path d="M83.6355 67.9387L60.9352 67.9224C60.4901 67.9224 60.1191 67.5166 60.1191 67.0296C60.1191 66.5426 60.4901 66.1367 60.9352 66.1367L83.6355 66.1529C84.0806 66.1529 84.4515 66.5588 84.4515 67.0458C84.4515 67.5328 84.0806 67.9387 83.6355 67.9387Z" fill="#46433E"/>
<path d="M83.6355 76.7697L60.9352 76.7535C60.4901 76.7535 60.1191 76.3476 60.1191 75.8606C60.1191 75.3736 60.4901 74.9678 60.9352 74.9678L83.6355 74.984C84.0806 74.984 84.4515 75.3899 84.4515 75.8769C84.4515 76.3801 84.0806 76.7697 83.6355 76.7697Z" fill="#46433E"/>
<path d="M54.6438 44.5457H51.6022C50.5637 44.5457 49.7031 43.6203 49.7031 42.4677V39.156C49.7031 38.0197 50.5488 37.0781 51.6022 37.0781H54.6438C55.6824 37.0781 56.5429 38.0034 56.5429 39.156V42.484C56.5429 43.6203 55.6824 44.5457 54.6438 44.5457ZM51.6022 38.8638C51.4539 38.8638 51.3352 38.9937 51.3352 39.156V42.484C51.3352 42.6463 51.4539 42.7762 51.6022 42.7762H54.6438C54.7921 42.7762 54.9108 42.6463 54.9108 42.484V39.156C54.9108 38.9937 54.7921 38.8638 54.6438 38.8638H51.6022Z" fill="#46433E"/>
<path d="M54.6438 53.393H51.6022C50.5637 53.393 49.7031 52.4676 49.7031 51.315V47.9871C49.7031 46.8507 50.5488 45.9092 51.6022 45.9092H54.6438C55.6824 45.9092 56.5429 46.8345 56.5429 47.9871V51.3313C56.5429 52.4676 55.6824 53.393 54.6438 53.393ZM51.6022 47.7111C51.4539 47.7111 51.3352 47.841 51.3352 48.0033V51.3313C51.3352 51.4936 51.4539 51.6235 51.6022 51.6235H54.6438C54.7921 51.6235 54.9108 51.4936 54.9108 51.3313V48.0033C54.9108 47.841 54.7921 47.7111 54.6438 47.7111H51.6022Z" fill="#46433E"/>
<path d="M54.6438 62.24H51.6022C50.5637 62.24 49.7031 61.3147 49.7031 60.1621V56.8504C49.7031 55.714 50.5488 54.7725 51.6022 54.7725H54.6438C55.6824 54.7725 56.5429 55.6978 56.5429 56.8504V60.1783C56.5429 61.3147 55.6824 62.24 54.6438 62.24ZM51.6022 56.5582C51.4539 56.5582 51.3352 56.688 51.3352 56.8504V60.1783C51.3352 60.3406 51.4539 60.4705 51.6022 60.4705H54.6438C54.7921 60.4705 54.9108 60.3406 54.9108 60.1783V56.8504C54.9108 56.688 54.7921 56.5582 54.6438 56.5582H51.6022Z" fill="#46433E"/>
<path d="M54.6438 70.6814H51.6022C50.5637 70.6814 49.7031 69.7561 49.7031 68.6035V65.2918C49.7031 64.1554 50.5488 63.2139 51.6022 63.2139H54.6438C55.6824 63.2139 56.5429 64.1392 56.5429 65.2918V68.6197C56.5429 69.7561 55.6824 70.6814 54.6438 70.6814ZM51.6022 64.9996C51.4539 64.9996 51.3352 65.1294 51.3352 65.2918V68.6197C51.3352 68.782 51.4539 68.9119 51.6022 68.9119H54.6438C54.7921 68.9119 54.9108 68.782 54.9108 68.6197V65.2918C54.9108 65.1294 54.7921 64.9996 54.6438 64.9996H51.6022Z" fill="#46433E"/>
<path d="M54.6438 79.6101H51.6022C50.5637 79.6101 49.7031 78.6848 49.7031 77.5322V74.2205C49.7031 73.0841 50.5488 72.1426 51.6022 72.1426H54.6438C55.6824 72.1426 56.5429 73.0679 56.5429 74.2205V77.5484C56.5429 78.6848 55.6824 79.6101 54.6438 79.6101ZM51.6022 73.9283C51.4539 73.9283 51.3352 74.0582 51.3352 74.2205V77.5484C51.3352 77.7108 51.4539 77.8406 51.6022 77.8406H54.6438C54.7921 77.8406 54.9108 77.7108 54.9108 77.5484V74.2205C54.9108 74.0582 54.7921 73.9283 54.6438 73.9283H51.6022Z" fill="#46433E"/>
</svg>
