<svg width="90" height="90" viewBox="0 0 90 90" fill="none" xmlns="http://www.w3.org/2000/svg">
<path d="M30.1448 87.4107C29.6759 87.4107 29.3734 87.1062 29.3734 86.6341L29.207 66.6849C29.207 66.2128 29.5096 65.9082 29.9785 65.9082C30.4474 65.9082 30.7499 66.2128 30.7499 66.6849L30.9163 86.6341C30.9163 87.1062 30.6138 87.4107 30.1448 87.4107Z" fill="#46433E"/>
<path d="M39.3428 87.731H20.7831C20.3142 87.731 20.0117 87.4265 20.0117 86.9544C20.0117 86.4823 20.3142 86.1777 20.7831 86.1777H39.3579C39.8268 86.1777 40.1294 86.4823 40.1294 86.9544C40.1294 87.4112 39.8117 87.731 39.3428 87.731Z" fill="#46433E"/>
<path d="M29.9811 68.1016C29.8147 68.1016 29.8147 68.1016 29.6786 68.1016C29.376 67.9341 29.2097 67.6295 29.2097 67.325L9.56092 42.5026C9.39453 42.1981 9.39453 41.8783 9.39453 41.726C9.56092 41.4214 9.86344 41.2539 10.166 41.2539H49.0097C49.3122 41.2539 49.6298 41.4062 49.6298 41.726C49.7811 42.0306 49.7811 42.3503 49.6298 42.5026L30.6164 67.9493C30.6164 68.1016 30.2987 68.1016 29.9811 68.1016ZM11.8903 42.8072L30.1475 65.8935L47.4668 42.8072H11.8903Z" fill="#46433E"/>
<path d="M24.2024 50.1927C23.8998 50.1927 23.7335 50.0252 23.5822 49.8882L10.0141 31.6597H1.74018C1.27127 31.6597 0.96875 31.3552 0.96875 30.8831C0.96875 30.411 1.27127 30.1064 1.74018 30.1064H10.3166C10.6192 30.1064 10.7856 30.2587 10.9368 30.411L24.8225 48.944C25.1251 49.2486 24.9889 49.7207 24.6561 50.0404C24.52 50.1927 24.3688 50.1927 24.2024 50.1927Z" fill="#46433E"/>
<path d="M34.8202 53.8018C34.6538 53.8018 34.6538 53.8018 34.5177 53.8018C32.9597 53.8018 31.553 53.0252 30.1463 52.2333C28.5883 51.4567 26.8639 50.5125 24.6858 50.345C21.1009 50.1927 19.6942 52.8577 19.5278 53.01C19.3614 53.3145 18.9076 53.482 18.4387 53.3145C18.1362 53.147 17.9698 52.6902 18.1362 52.2181C18.1362 52.0658 20.0118 48.609 24.6858 48.7612C25.9261 48.7612 27.0303 49.0658 27.9681 49.5379C35.9244 45.9287 42.0051 50.3145 42.3227 50.482C42.4891 50.6343 42.6253 50.9541 42.6253 51.2587C42.6253 51.5633 42.4589 51.7308 42.1563 51.8831C42.1563 51.9135 38.0874 53.8018 34.8202 53.8018ZM30.1463 50.5125C30.4488 50.6648 30.6152 50.8171 30.9177 50.8171C32.3244 51.5937 33.4135 52.0658 34.669 52.2333C36.3782 52.2333 38.7227 51.609 40.2958 50.9846C38.4051 50.0404 34.669 48.9288 30.1463 50.5125Z" fill="#46433E"/>
<path d="M62.2437 87.746H49.916C46.8 87.746 44.2891 85.2333 44.2891 82.0811V55.8577C44.2891 55.3856 44.5916 55.0811 45.0605 55.0811H66.9025C67.3714 55.0811 67.6739 55.3856 67.6739 55.8577V82.0811C67.7042 85.2333 65.2084 87.746 62.2437 87.746ZM45.8622 56.6496V82.0963C45.8622 84.2892 47.5714 86.1775 49.916 86.1775H62.2437C64.4218 86.1775 66.2975 84.4567 66.2975 82.0963V56.6496H45.8622Z" fill="#46433E"/>
<path d="M66.9185 69.3811C66.616 69.3811 66.2983 69.0765 66.147 68.7567C66.147 68.5892 65.3756 65.1476 61.458 64.9801C60.3689 64.9801 59.5823 65.1324 58.8109 65.6045C58.6445 65.7567 58.6445 65.7567 58.5084 65.7567C58.0395 66.0613 57.737 66.3811 57.2681 66.7009C56.0277 67.6451 54.621 68.5892 52.579 68.7415C48.8277 68.8938 45.2428 66.8532 45.0916 66.8532C44.7891 66.7009 44.7891 66.5486 44.7891 66.2288C44.7891 65.9243 44.9554 65.7567 45.0916 65.6045C45.3941 65.4522 52.2613 61.0512 58.1907 64.3557C59.1286 63.8836 60.2176 63.5791 61.4731 63.5791C65.5269 63.7314 67.2512 66.8837 67.5538 68.4522C67.705 68.909 67.3874 69.2136 66.9185 69.3811C67.0849 69.3811 67.0849 69.3811 66.9185 69.3811ZM47.2697 66.0765C48.5101 66.5486 50.5521 67.3253 52.579 67.173C54.137 67.0055 55.226 66.2288 56.3302 65.4522C56.4815 65.2999 56.6328 65.2999 56.6328 65.1476C53.1991 63.7161 49.2966 65.1324 47.2697 66.0765Z" fill="#46433E"/>
<path d="M48.8261 83.5128C48.3572 83.5128 48.0547 83.2083 48.0547 82.7362V70.6448C48.0547 70.1727 48.3572 69.8682 48.8261 69.8682C49.295 69.8682 49.5975 70.1727 49.5975 70.6448V82.7362C49.5975 83.193 49.295 83.5128 48.8261 83.5128Z" fill="#46433E"/>
<path d="M72.695 44.3299C63.6496 44.3299 56.2832 36.9136 56.2832 27.807C56.2832 18.7004 63.6496 11.2842 72.695 11.2842C81.7403 11.2842 89.1067 18.7004 89.1067 27.807C89.1067 36.9136 81.7403 44.3299 72.695 44.3299ZM72.695 12.807C64.4815 12.807 57.7958 19.538 57.7958 27.807C57.7958 36.0761 64.4815 42.807 72.695 42.807C80.9084 42.807 87.5941 36.0761 87.5941 27.807C87.5941 19.538 80.9084 12.807 72.695 12.807Z" fill="#C65049"/>
<path d="M64.2254 37.0501C64.0288 37.0501 63.8321 36.974 63.696 36.8217C63.4086 36.5171 63.4086 36.045 63.696 35.7405L80.5918 18.7912C80.8943 18.5019 81.3632 18.5019 81.6658 18.7912C81.9532 19.0958 81.9532 19.5679 81.6658 19.8724L64.77 36.8217C64.6187 36.974 64.4221 37.0501 64.2254 37.0501Z" fill="#C65049"/>
<path d="M81.09 37.0807C80.8934 37.0807 80.6967 37.0046 80.5606 36.8523L63.7253 19.8422C63.4379 19.5376 63.4379 19.0655 63.7253 18.761C64.0278 18.4716 64.4967 18.4716 64.7993 18.761L81.6346 35.7863C81.922 36.0909 81.922 36.563 81.6346 36.8675C81.4833 37.0046 81.2867 37.0807 81.09 37.0807Z" fill="#C65049"/>
</svg>
