<svg width="90" height="90" viewBox="0 0 90 90" fill="none" xmlns="http://www.w3.org/2000/svg">
<path d="M73.15 36.7655C64.1047 36.7655 56.7383 30.2237 56.7383 22.1908C56.7383 14.158 64.0895 7.61621 73.15 7.61621C82.2106 7.61621 89.5618 14.158 89.5618 22.1908C89.5618 30.2237 82.1954 36.7655 73.15 36.7655ZM73.15 8.9595C64.9366 8.9595 58.2509 14.8968 58.2509 22.1908C58.2509 29.4849 64.9366 35.4222 73.15 35.4222C81.3635 35.4222 88.0492 29.4849 88.0492 22.1908C88.0492 14.8968 81.3635 8.9595 73.15 8.9595Z" fill="#C65049"/>
<path d="M64.6786 30.3445C64.4819 30.3445 64.2853 30.2773 64.1491 30.143C63.8617 29.8744 63.8617 29.4579 64.1491 29.1893L81.0449 14.252C81.3475 13.9967 81.8164 13.9967 82.1189 14.252C82.4063 14.5206 82.4063 14.937 82.1189 15.2057L65.2231 30.143C65.0718 30.2773 64.8752 30.3445 64.6786 30.3445Z" fill="#C65049"/>
<path d="M81.5431 30.3716C81.3465 30.3716 81.1499 30.3045 81.0137 30.1701L64.1784 15.1657C63.891 14.897 63.891 14.4806 64.1784 14.2119C64.481 13.9567 64.9499 13.9567 65.2524 14.2119L82.0877 29.2298C82.3751 29.4985 82.3751 29.9149 82.0877 30.1836C81.9364 30.3045 81.7398 30.3716 81.5431 30.3716Z" fill="#C65049"/>
<path d="M44.076 52.9658C43.713 52.9658 43.3954 52.7374 43.3349 52.4016C43.229 51.8509 43.1836 51.2732 43.1836 50.7091C43.1836 44.9329 48.4777 40.2314 54.9819 40.2314C60.3517 40.2314 65.0407 43.4553 66.4021 48.0628C66.6592 48.9225 66.7802 49.8091 66.7802 50.7091C66.7802 51.0852 66.4475 51.3807 66.0239 51.3807C65.6004 51.3807 65.2676 51.0852 65.2676 50.7091C65.2676 49.93 65.1617 49.1509 64.9349 48.3986C63.755 44.3822 59.6559 41.5747 54.9819 41.5747C49.3096 41.5747 44.6962 45.6717 44.6962 50.7091C44.6962 51.2061 44.7416 51.7031 44.8323 52.1867C44.8928 52.5494 44.6206 52.8986 44.2122 52.9523C44.1668 52.9523 44.1214 52.9658 44.076 52.9658Z" fill="#46433E"/>
<path d="M74.7984 48.0896C74.3749 48.0896 74.0421 47.7941 74.0421 47.4179C74.0421 45.0135 71.8337 43.0523 69.1261 43.0523C67.2808 43.0523 65.6018 43.9657 64.7547 45.4164C64.5581 45.7523 64.1043 45.8732 63.7413 45.6985C63.3631 45.5239 63.227 45.1209 63.4236 44.7985C64.5278 42.8911 66.7211 41.709 69.1413 41.709C72.6808 41.709 75.5698 44.2747 75.5698 47.4179C75.5547 47.7941 75.2219 48.0896 74.7984 48.0896Z" fill="#46433E"/>
<path d="M83.4792 56.136C83.2826 56.136 83.0859 56.0689 82.9498 55.9345C82.6473 55.6659 82.6473 55.2495 82.9498 54.9808C83.933 54.1077 84.4775 52.939 84.4775 51.7032C84.4775 49.151 82.133 47.0689 79.259 47.0689C76.8842 47.0689 74.7968 48.4928 74.2069 50.5345C74.101 50.8972 73.6926 51.1122 73.2842 51.0181C72.8758 50.9241 72.6338 50.5614 72.7397 50.1987C73.5111 47.5659 76.1884 45.7256 79.259 45.7256C82.9649 45.7256 85.9901 48.4122 85.9901 51.7032C85.9901 53.3017 85.2943 54.8062 84.0237 55.9345C83.8725 56.0689 83.6758 56.136 83.4792 56.136Z" fill="#46433E"/>
<path d="M69.3075 53.6775C69.1714 53.6775 69.0352 53.6506 68.9142 53.5835C68.5512 53.3954 68.4453 52.979 68.6571 52.6566C69.8823 50.8566 72.0453 49.7686 74.4201 49.7686C76.3411 49.7686 78.1714 50.4939 79.4419 51.77C79.7142 52.0521 79.6991 52.4686 79.3814 52.7238C79.0638 52.9656 78.5949 52.9521 78.3075 52.67C77.3243 51.676 75.9024 51.1118 74.405 51.1118C72.5596 51.1118 70.8957 51.9447 69.9428 53.3551C69.8066 53.5566 69.5646 53.6775 69.3075 53.6775Z" fill="#46433E"/>
<path d="M44.6979 61.5219C40.992 61.5219 37.9668 58.8354 37.9668 55.5443C37.9668 52.5891 40.4475 50.0368 43.7449 49.6204C44.1534 49.5667 44.5466 49.8219 44.6071 50.1846C44.6676 50.5473 44.3802 50.8966 43.9567 50.9503C41.4004 51.2727 39.4794 53.2473 39.4794 55.5443C39.4794 58.0965 41.8239 60.1786 44.6979 60.1786C45.1214 60.1786 45.4542 60.4742 45.4542 60.8503C45.4542 61.2264 45.1214 61.5219 44.6979 61.5219Z" fill="#46433E"/>
<path d="M52.7592 60.7839C49.855 60.7839 47.208 59.1719 46.1643 56.7674C46.013 56.4182 46.2097 56.0286 46.6029 55.8943C46.9962 55.76 47.4349 55.9346 47.5861 56.2839C48.4029 58.1645 50.4903 59.4406 52.7744 59.4406C55.845 59.4406 58.3408 57.2242 58.3408 54.4973C58.3408 54.054 58.2802 53.6242 58.1441 53.2077C58.0382 52.8451 58.2802 52.4824 58.6735 52.3883C59.0819 52.2943 59.4903 52.5092 59.5962 52.8585C59.7626 53.3958 59.8382 53.9465 59.8382 54.4973C59.8231 57.963 56.6466 60.7839 52.7592 60.7839Z" fill="#46433E"/>
<path d="M46.9664 79.5894C46.8454 79.5894 46.7244 79.5625 46.6034 79.5088C46.4068 79.4148 41.7177 77.1043 41.5664 73.3431C41.4152 69.7566 43.4572 67.1237 47.6622 65.5252C49.5681 64.7998 52.0942 64.1282 54.5446 63.4834C57.4336 62.7177 60.4286 61.9252 61.5933 61.1998C63.5143 60.0177 63.5899 57.5595 63.5899 57.5327C63.5899 57.1566 63.9378 56.861 64.3614 56.8745C64.7849 56.8745 65.1177 57.1834 65.1026 57.5595C65.1026 57.6939 65.0118 60.7431 62.4555 62.3148C61.0942 63.1476 58.1143 63.9401 54.9832 64.773C52.5782 65.4177 50.0975 66.076 48.2673 66.761C44.6521 68.1312 42.958 70.2804 43.0942 73.2894C43.2303 76.2983 47.3143 78.3133 47.3597 78.3401C47.7227 78.5148 47.8589 78.9312 47.6622 79.2536C47.4958 79.4551 47.2387 79.5894 46.9664 79.5894Z" fill="#46433E"/>
<path d="M47.0882 79.8317C46.8764 79.8317 46.6798 79.7645 46.5285 79.6168C46.4226 79.5093 43.821 76.9437 44.8495 73.7869C45.9386 70.4287 52.7756 70.0929 59.3857 69.7705C60.263 69.7302 61.1554 69.6899 62.0176 69.6362C64.6495 69.475 77.9907 68.3735 81.6058 61.778C82.7252 59.7496 82.7403 55.666 82.7403 55.6257C82.7403 55.2496 83.0731 54.9541 83.4966 54.9541C83.9201 54.9541 84.2529 55.2496 84.2529 55.6257C84.2529 55.8004 84.2378 60.0586 82.9672 62.369C81.3487 65.3243 77.9302 67.6078 72.8176 69.1526C68.3403 70.5093 63.8327 70.8854 62.1084 70.9929C61.2462 71.0466 60.3386 71.0869 59.4613 71.1272C53.668 71.4093 47.0882 71.7317 46.2865 74.1765C45.5 76.5944 47.6176 78.7168 47.6327 78.7302C47.905 78.9989 47.8899 79.4287 47.5874 79.6839C47.4512 79.778 47.2697 79.8317 47.0882 79.8317Z" fill="#46433E"/>
<path d="M64.1656 66.4925C63.8026 66.4925 63.4849 66.2507 63.4244 65.9283C63.3639 65.5657 63.6362 65.2164 64.0446 65.1627C74.4967 63.6716 74.3908 57.5194 74.3757 57.2507C74.3606 56.8746 74.6933 56.5657 75.1017 56.5522C75.5253 56.5388 75.8732 56.8209 75.8883 57.197C75.8883 57.2776 75.9639 59.1716 74.5421 61.2671C73.2412 63.1612 70.4127 65.6059 64.2866 66.4791C64.2564 66.4925 64.211 66.4925 64.1656 66.4925Z" fill="#46433E"/>
<path d="M22.9321 75.331C22.5086 75.331 22.1758 75.0221 22.1758 74.6594L22.2817 56.1892C22.2817 55.8131 22.6296 55.5176 23.038 55.5176C23.4615 55.5176 23.7943 55.8265 23.7943 56.1892L23.6884 74.6594C23.6884 75.0355 23.3405 75.331 22.9321 75.331Z" fill="#46433E"/>
<path d="M32.7489 75.6402H13.2211C12.7976 75.6402 12.4648 75.3446 12.4648 74.9685C12.4648 74.5924 12.7976 74.2969 13.2211 74.2969H32.7489C33.1724 74.2969 33.5052 74.5924 33.5052 74.9685C33.5052 75.3446 33.1573 75.6402 32.7489 75.6402Z" fill="#46433E"/>
<path d="M23.0527 57.3981C22.8258 57.3981 22.5989 57.3041 22.4476 57.1295L2.48126 33.5951C2.31488 33.3936 2.28463 33.125 2.40563 32.8966C2.52664 32.6683 2.79891 32.5205 3.08631 32.5205H43.9115C44.1989 32.5205 44.4712 32.6683 44.5922 32.8966C44.7132 33.125 44.6829 33.4071 44.5014 33.6086L23.809 56.6727V56.7265C23.809 57.022 23.5972 57.2772 23.2947 57.3578C23.2191 57.3981 23.1283 57.3981 23.0527 57.3981ZM4.59891 33.8638L22.9468 55.4907L42.3384 33.8638H4.59891Z" fill="#46433E"/>
<path d="M29.2529 40.7553C29.1016 40.7553 28.9352 40.715 28.7991 40.621C28.4663 40.3927 28.3907 39.9762 28.6478 39.6807L43.2142 22.4464C43.3504 22.2718 43.5773 22.1777 43.8193 22.1777H52.8798C53.3033 22.1777 53.6361 22.4733 53.6361 22.8494C53.6361 23.2255 53.3033 23.521 52.8798 23.521H44.1974L29.8579 40.4867C29.7067 40.6613 29.4798 40.7553 29.2529 40.7553Z" fill="#46433E"/>
<path d="M17.9533 44.0599C14.6861 44.0599 10.2844 42.327 10.0878 42.2464C9.84575 42.1524 9.66424 41.9375 9.64912 41.6957C9.61886 41.4539 9.73987 41.2255 9.96676 41.0778C10.239 40.9032 16.713 36.9002 25.0172 40.2584C26.076 39.9091 27.2407 39.6405 28.5416 39.5867C33.397 39.3852 35.2726 42.6226 35.3634 42.7569C35.5449 43.0927 35.3937 43.4957 35.0306 43.6569C34.6525 43.8181 34.1987 43.6837 34.0172 43.3614C33.9567 43.2539 32.4592 40.7688 28.6323 40.93C26.4088 41.024 24.6239 41.83 22.9147 42.6226C21.3869 43.3211 19.9348 43.9793 18.3163 44.0464C18.1953 44.0599 18.0743 44.0599 17.9533 44.0599ZM12.16 41.5479C13.7483 42.0718 16.3197 42.7972 18.2407 42.7166C19.5264 42.6629 20.7668 42.0987 22.2189 41.4405C22.5063 41.3061 22.8088 41.1718 23.1113 41.0375C18.2256 39.5061 14.1416 40.7017 12.16 41.5479Z" fill="#46433E"/>
</svg>
