<svg width="90" height="90" viewBox="0 0 90 90" fill="none" xmlns="http://www.w3.org/2000/svg">
<g clip-path="url(#clip0_3681_12122)">
<path d="M73.7784 74.0836C72.2514 74.0987 70.9664 73.7212 69.636 73.1776L61.3964 69.5232C58.8868 68.436 56.2259 68.4662 53.7767 70.0064L49.4226 72.3168C46.0059 74.2346 42.3926 74.0987 38.7339 72.0752L35.6497 70.2329C33.3366 68.7531 30.6607 68.4058 28.1964 69.3873L16.8122 73.4947C13.7734 74.6574 10.1449 74.1289 7.27245 72.1054L0.529628 67.8319C0.151667 67.4695 0.0156014 66.9863 0.378444 66.5937C0.756404 66.2162 1.25531 66.2162 1.64839 66.5937L8.37609 70.8219C10.9009 72.4679 13.7431 72.8303 16.2226 71.8487L27.6067 67.7413C30.4641 66.5786 33.6995 66.9108 36.572 68.7531L39.6561 70.5954C42.3472 72.2413 45.5977 72.4074 48.4248 70.8672L52.7789 68.5568C55.6212 66.8202 59.0531 66.79 62.1221 68.0584L70.3616 71.7128C72.6748 72.6189 74.7611 72.785 76.8475 71.8185L88.2165 65.8387C88.5945 65.6423 89.0631 65.7329 89.4411 66.0954C89.6376 66.4729 89.562 66.8504 89.1841 67.2279L77.815 73.1927C76.2729 73.8269 74.9123 74.0685 73.7784 74.0836Z" fill="#46433E"/>
<path d="M73.7779 74.1744C72.2509 74.1895 70.9659 73.812 69.6355 73.2684L61.3959 69.614C58.8863 68.5268 56.2254 68.557 53.7762 70.0973L49.407 72.4077C45.9902 74.3255 42.3769 74.1895 38.7183 72.1661L35.6341 70.3238C33.321 68.8439 30.645 68.4966 28.1807 69.4781L16.7965 73.5855C13.7577 74.7483 10.1293 74.2197 7.25682 72.1963L0.514003 67.9077C0.136042 67.5452 -2.36034e-05 67.062 0.362819 66.6694C0.725661 66.2919 1.23969 66.2919 1.63277 66.6694L8.36047 70.8976C10.8701 72.5436 13.7124 72.906 16.1918 71.9395L27.576 67.8322C30.4334 66.6694 33.6687 67.0016 36.5412 68.8439L39.6254 70.6862C42.3165 72.3322 45.5669 72.4983 48.3941 70.958L52.7482 68.6476C55.5904 66.911 59.0223 66.8808 62.0914 68.1493L70.3309 71.8036C72.6289 72.7097 74.7304 72.8758 76.8167 71.9093L88.1858 65.9295C88.5637 65.7332 89.0324 65.8238 89.4104 66.1862C89.6069 66.5637 89.5313 66.9412 89.1533 67.3187L77.7843 73.2986C76.2724 73.9026 74.9118 74.1593 73.7779 74.1744Z" fill="#46433E"/>
<path d="M73.7784 81.7848C72.2514 81.7999 70.9664 81.4224 69.636 80.8788L61.3964 77.2244C58.8868 76.1371 56.2259 76.1673 53.7767 77.7076L49.4226 80.018C46.0059 81.9358 42.3926 81.7999 38.7339 79.7764L35.6497 77.9341C33.3366 76.4543 30.6607 76.1069 28.1964 77.0885L16.8122 81.1959C13.7734 82.3586 10.1449 81.8301 7.27245 79.8066L0.529628 75.5331C0.151667 75.1707 0.0156014 74.6875 0.378444 74.2949C0.756404 73.9173 1.25531 73.9173 1.64839 74.2949L8.37609 78.5231C10.9009 80.169 13.7431 80.5314 16.2226 79.5499L27.6067 75.4425C30.4641 74.2798 33.6995 74.612 36.572 76.4543L39.6561 78.2965C42.3472 79.9425 45.5977 80.1086 48.4248 78.5684L52.7789 76.2579C55.6212 74.5214 59.0531 74.4912 62.1221 75.7596L70.3616 79.414C72.6748 80.32 74.7611 80.4861 76.8475 79.5197L88.2165 73.5398C88.5945 73.3435 89.0631 73.4341 89.4411 73.7965C89.6376 74.174 89.562 74.5516 89.1841 74.9291L77.815 80.909C76.2729 81.5281 74.9123 81.7697 73.7784 81.7848Z" fill="#46433E"/>
<path d="M73.7779 81.8757C72.2509 81.8908 70.9659 81.5133 69.6355 80.9696L61.3959 77.3153C58.8863 76.228 56.2254 76.2582 53.7762 77.7985L49.407 80.1089C45.9902 82.0267 42.3769 81.8908 38.7183 79.8673L35.6341 78.025C33.321 76.5451 30.645 76.1978 28.1807 77.1794L16.7965 81.2868C13.7577 82.4495 10.1293 81.921 7.25682 79.8975L0.514003 75.6391C0.136042 75.2767 -2.36034e-05 74.7935 0.362819 74.4008C0.740779 74.0233 1.23969 74.0233 1.63277 74.4008L8.36047 78.629C10.8701 80.275 13.7124 80.6374 16.1918 79.671L27.576 75.5636C30.4334 74.4008 33.6687 74.7331 36.5412 76.5753L39.6254 78.4176C42.3165 80.0636 45.5669 80.2297 48.3941 78.6894L52.7482 76.379C55.5904 74.6425 59.0223 74.6123 62.0914 75.8807L70.3309 79.5351C72.6289 80.4411 74.7304 80.6072 76.8167 79.6408L88.1858 73.6609C88.5637 73.4646 89.0324 73.5552 89.4104 73.9176C89.6069 74.2952 89.5313 74.6727 89.1533 75.0502L77.7843 81.03C76.2724 81.6341 74.9118 81.8606 73.7779 81.8757Z" fill="#46433E"/>
<path d="M73.7784 89.5168C72.2514 89.5319 70.9664 89.1543 69.636 88.6107L61.3964 84.9564C58.8868 83.8691 56.2259 83.8842 53.7767 85.4396L49.4226 87.75C46.0059 89.6678 42.3926 89.5319 38.7339 87.5084L35.6649 85.6359C33.3517 84.156 30.6758 83.8087 28.2115 84.7903L16.8273 88.8976C13.7885 90.0604 10.1601 89.5319 7.28757 87.5084L0.529628 83.25C0.151667 82.8876 0.0156014 82.4043 0.378444 82.0117C0.756404 81.6342 1.25531 81.6342 1.64839 82.0117L8.37609 86.2399C10.8858 87.8859 13.728 88.2483 16.2074 87.2819L27.5916 83.1896C30.449 82.0268 33.6843 82.359 36.5568 84.2013L39.641 86.0436C42.3321 87.6896 45.5825 87.8557 48.4097 86.3154L52.7638 84.005C55.6061 82.2684 59.0379 82.2382 62.107 83.5067L70.3465 87.1611C72.6445 88.0671 74.746 88.2332 76.8323 87.2668L88.2014 81.2869C88.5794 81.0906 89.048 81.1812 89.426 81.5436C89.6225 81.9211 89.5469 82.2986 89.169 82.6762L77.7999 88.656C76.2729 89.26 74.9123 89.4715 73.7784 89.5168Z" fill="#46433E"/>
<path d="M73.7784 89.592C72.2514 89.6071 70.9664 89.2295 69.636 88.6859L61.3964 85.0316C58.8868 83.9443 56.2259 83.9745 53.7767 85.5148L49.4075 87.8252C45.9907 89.743 42.3774 89.6071 38.7188 87.5836L35.6497 85.7413C33.3366 84.2614 30.6607 83.9141 28.1964 84.8956L16.8122 89.003C13.7734 90.1658 10.1449 89.6373 7.27245 87.6138L0.529628 83.3403C0.151667 82.9779 0.0156014 82.4946 0.378444 82.102C0.756404 81.7245 1.25531 81.7245 1.64839 82.102L8.37609 86.3302C10.8858 87.9762 13.728 88.3386 16.2074 87.3722L27.5916 83.2648C30.449 82.102 33.6843 82.4342 36.5568 84.2765L39.641 86.1188C42.3321 87.7648 45.5825 87.9309 48.4097 86.3906L52.7638 84.0802C55.6061 82.3436 59.0379 82.3134 62.107 83.5819L70.3465 87.2362C72.6445 88.1423 74.746 88.3084 76.8323 87.342L88.2014 81.3621C88.5794 81.1658 89.048 81.2564 89.426 81.6188C89.6225 81.9963 89.5469 82.3738 89.169 82.7514L77.7999 88.7312C76.2729 89.3352 74.9123 89.592 73.7784 89.592Z" fill="#46433E"/>
<path d="M51.2666 44.5618C50.6014 45.196 49.8303 45.6943 49.0593 46.2078C47.7591 46.9628 45.3099 47.0534 43.3747 46.9175C42.8607 46.9175 42.4828 46.5098 42.4828 46.0115C42.4828 45.5131 42.891 45.1205 43.3899 45.1205C45.4611 45.4074 47.3811 45.0601 48.0463 44.6675C50.9188 42.9007 52.7482 39.8353 52.5365 36.4829C52.4458 34.0366 51.448 31.7111 49.6489 30.1256C47.8498 28.5551 45.5518 27.498 43.1026 27.5735C38.1891 27.7699 34.2735 31.8319 34.3339 37.1172C34.2886 40.2128 35.9365 42.1608 37.2064 43.988C38.5973 45.9209 39.9882 47.899 39.4288 50.7229C39.4288 51.2363 38.8997 51.493 38.3857 51.4779C37.8716 51.4779 37.6146 50.9494 37.6297 50.436C37.917 48.3672 37.0401 46.9628 35.6341 45.2564C34.1072 43.1725 32.4744 40.9678 32.3988 37.2078C32.3534 31.1524 36.9343 26.1843 42.9968 25.8823C45.96 25.7917 48.7871 26.8638 50.9491 28.8269C53.111 30.7749 54.2449 33.5081 54.4566 36.347C54.6833 39.4427 53.489 42.4024 51.2666 44.5618Z" fill="#46433E"/>
<path d="M29.7224 50.3761C27.5302 50.4667 25.8672 51.8861 25.3229 53.9398L25.2776 54.1965L21.4375 71.3509C21.8003 71.0338 22.1783 70.7167 22.5714 70.3694C22.8435 70.1277 23.2215 70.0069 23.5843 70.0069L27.0767 54.7402C27.0918 54.5438 27.1069 54.4834 27.1069 54.4834C27.379 53.1999 28.392 52.173 29.6922 52.1881L38.8237 51.418C38.8539 50.7989 38.9749 50.1948 39.1109 49.5908L29.7224 50.3761Z" fill="#46433E"/>
<path d="M35.4982 59.2852C34.455 59.5268 33.5479 59.9647 32.9281 60.7499C31.9907 61.8825 30.9022 65.0687 29.9648 68.406C30.237 68.3003 30.5242 68.2248 30.8568 68.1946C31.2197 68.1492 31.5976 68.1644 31.9605 68.1946C32.8373 65.0385 33.7445 62.3959 34.4701 61.5654C34.6516 61.3539 34.8783 61.2029 35.1505 61.067C35.8157 60.5536 36.0576 59.557 35.4982 59.2852Z" fill="#46433E"/>
<path d="M61.3048 54.3023C61.3048 54.3023 61.3199 54.3627 61.3351 54.559L64.9332 70.2788C65.6136 70.5808 66.2939 70.8829 66.9742 71.2L63.1493 54.0305L63.1039 53.7738C62.5596 51.7201 60.9117 50.3157 58.7044 50.21L49.3008 49.4248C49.4671 50.0137 49.5578 50.6329 49.588 51.252L58.7196 52.0221C60.0349 52.007 61.0327 53.0188 61.3048 54.3023Z" fill="#46433E"/>
<path d="M58.3119 67.6661C57.4048 64.5554 56.3919 61.656 55.515 60.5839C54.9254 59.8138 53.988 59.3608 52.9449 59.1191C52.446 59.6175 52.6425 60.5386 53.2926 60.8708C53.5647 60.9916 53.7915 61.1577 53.9729 61.3691C54.6986 62.2148 55.6359 64.9631 56.5279 68.2248C57.0117 67.7718 57.6467 67.6359 58.3119 67.6661Z" fill="#46433E"/>
<path d="M69.3334 15.4627H58.4028C57.919 15.4627 57.541 15.0852 57.541 14.602C57.541 14.1187 57.919 13.7412 58.4028 13.7412H69.3334C69.8172 13.7412 70.1951 14.1187 70.1951 14.602C70.1951 15.0852 69.8172 15.4627 69.3334 15.4627Z" fill="#46433E"/>
<path d="M64.7508 9.37734V19.827C64.7508 20.3102 64.3729 20.6877 63.8891 20.6877C63.4053 20.6877 63.0273 20.3102 63.0273 19.827V9.37734C63.0273 8.89412 63.4053 8.5166 63.8891 8.5166C64.3426 8.5166 64.7508 8.89412 64.7508 9.37734Z" fill="#46433E"/>
<path d="M75.7432 6.91621C73.9441 6.91621 72.5078 5.45145 72.5078 3.68467C72.5078 1.90279 73.9743 0.453125 75.7432 0.453125C77.512 0.453125 78.9785 1.88769 78.9785 3.68467C78.9785 5.46655 77.5271 6.91621 75.7432 6.91621ZM75.7432 2.32561C75.0024 2.32561 74.3976 2.92964 74.3976 3.66957C74.3976 4.4095 75.0024 5.01353 75.7432 5.01353C76.484 5.01353 77.0887 4.4095 77.0887 3.66957C77.0887 2.94474 76.4688 2.32561 75.7432 2.32561Z" fill="#46433E"/>
<path d="M82.8334 22.0169C78.5852 22.0169 75.123 18.5589 75.123 14.3156C75.123 10.0723 78.5852 6.61426 82.8334 6.61426C85.7815 6.61426 88.4273 8.24513 89.7426 10.8877C89.9845 11.3559 89.7879 11.9297 89.3041 12.1562C88.8355 12.3978 88.261 12.2015 88.0342 11.7183C87.0364 9.72499 85.0407 8.50184 82.8183 8.50184C79.6132 8.50184 76.9977 11.1143 76.9977 14.3156C76.9977 17.5169 79.6132 20.1294 82.8183 20.1294C84.5116 20.1294 86.1293 19.3894 87.2329 18.1059C87.5655 17.6981 88.1854 17.6528 88.5785 18.0153C88.9866 18.3475 89.032 18.9666 88.6692 19.3592C87.2027 21.0505 85.071 22.0169 82.8334 22.0169Z" fill="#46433E"/>
<path d="M16.7062 32.9794C7.66541 32.9794 0.302734 25.6254 0.302734 16.5952C0.302734 7.56496 7.66541 0.210938 16.7062 0.210938C25.747 0.210938 33.1097 7.54986 33.1097 16.5952C33.1097 25.6405 25.747 32.9794 16.7062 32.9794ZM16.7062 1.721C8.49692 1.721 1.81458 8.3955 1.81458 16.5952C1.81458 24.7948 8.49692 31.4693 16.7062 31.4693C24.9155 31.4693 31.5979 24.7948 31.5979 16.5952C31.5979 8.3955 24.9155 1.721 16.7062 1.721Z" fill="#D14A43"/>
<path d="M8.25435 25.7623C8.05781 25.7623 7.86127 25.6868 7.7252 25.5358C7.43795 25.2338 7.43795 24.7656 7.7252 24.4636L24.6125 7.65659C24.9149 7.36968 25.3835 7.36968 25.6859 7.65659C25.9731 7.9586 25.9731 8.42673 25.6859 8.72874L8.78349 25.5358C8.63231 25.6868 8.43577 25.7623 8.25435 25.7623Z" fill="#D14A43"/>
<path d="M25.0948 25.7924C24.8983 25.7924 24.7017 25.7169 24.5657 25.5659L7.73888 8.69847C7.45162 8.39645 7.45162 7.92833 7.73888 7.62632C8.04124 7.3394 8.50991 7.3394 8.81228 7.62632L25.6391 24.4938C25.9263 24.7958 25.9263 25.2639 25.6391 25.5659C25.4879 25.7169 25.2914 25.7924 25.0948 25.7924Z" fill="#D14A43"/>
</g>
<defs>
<clipPath id="clip0_3681_12122">
<rect width="90" height="90" fill="white"/>
</clipPath>
</defs>
</svg>
