<svg width="90" height="90" viewBox="0 0 90 90" fill="none" xmlns="http://www.w3.org/2000/svg">
<path d="M9.40776 46.0918C7.50187 46.0918 5.98927 46.5787 5.05146 47.4639L5.0212 47.4934L4.97582 47.5082C4.79431 47.5525 4.6733 47.6262 4.59767 47.7738L4.58255 47.7885C-3.04098 57.8656 0.680026 72.9738 13.0834 82.2098C18.801 86.282 25.4716 88.5393 31.8548 88.5393C39.1758 88.5393 45.438 85.6918 49.4767 80.4983C49.5069 80.4393 49.5372 80.3803 49.5523 80.2918L49.5674 80.2623C52.6834 75.0836 43.3052 64.2098 32.8985 56.5967C24.1103 50.2082 14.8834 46.0918 9.40776 46.0918ZM44.833 82.8443C41.354 85.5 36.8767 86.9164 31.9153 86.9164C25.8498 86.9164 19.5725 84.777 14.2481 80.882C9.317 77.2672 5.68675 72.5902 3.76574 67.3525C1.90524 62.277 1.87498 57.0393 3.69011 52.6131L3.84137 52.2147L3.94725 52.6279C4.41616 54.4131 5.45986 56.4197 7.03297 58.5738C10.1641 62.941 15.0952 67.7508 20.9187 72.118C29.6918 78.5065 38.9338 82.6229 44.4094 82.6229C44.5153 82.6229 44.6212 82.6229 44.7271 82.6229L45.1506 82.6082L44.833 82.8443ZM45.4078 70.9967C48.1607 74.9656 49.0834 78.1672 47.9036 79.7754L47.8884 79.7902C47.359 80.3065 46.3304 80.9262 44.4246 80.9262C39.1305 80.9262 30.0699 76.8688 21.8867 70.8197C16.2447 66.6295 11.3136 61.8344 8.37919 57.6443C5.6565 53.8967 4.71868 50.5623 5.91364 48.9393L5.92877 48.9246C6.45818 48.4082 7.48675 47.7885 9.39263 47.7885C14.5355 47.7885 23.3842 51.7574 31.9304 57.8951C37.6178 62.041 42.4279 66.6885 45.4078 70.9967Z" fill="#46433E"/>
<path d="M8.60662 49.972C8.48561 49.7065 8.12259 49.5146 7.77469 49.5146C7.65368 49.5146 7.53267 49.5442 7.44192 49.5884C7.06376 49.7802 6.86713 50.3409 7.06376 50.7097L7.07889 50.754C7.33603 51.3294 18.4234 73.0327 45.1209 79.3327H45.3327C45.7108 79.3327 46.1192 78.9343 46.331 78.536C46.4217 78.3884 46.3915 78.2261 46.2554 78.0491C46.1495 77.9015 45.9528 77.754 45.7411 77.636C39.7965 76.2343 34.1394 73.9179 28.936 70.7605C24.7764 68.2228 20.889 65.1392 17.3949 61.5983C11.6923 55.7999 8.84864 50.5769 8.60662 49.972Z" fill="#46433E"/>
<path d="M66.404 2.49355C64.6948 1.66732 63.1217 1.43126 61.8662 1.82962L61.8208 1.84437L61.7755 1.82962C61.5939 1.78536 61.4427 1.81486 61.3065 1.91814H61.2914C49.8864 7.65749 46.362 22.8247 53.2897 36.4427C56.5721 42.5657 61.5183 47.464 67.2511 50.2231C73.8007 53.3804 80.7133 53.528 86.6881 50.6362C86.7486 50.5919 86.7939 50.5329 86.8393 50.4886L86.8696 50.4591C92.0124 47.169 88.5637 33.3591 82.6797 22.0427C77.7183 12.5411 71.3351 4.85421 66.404 2.49355ZM81.4847 50.7542C77.1587 51.6395 72.515 50.9755 68.0528 48.8362C62.6074 46.2099 57.9637 41.5772 54.9536 35.7788C52.1704 30.3936 51.036 24.6395 51.7015 19.1214C52.3519 13.7657 54.6965 9.05913 58.3267 5.87224L58.6444 5.57716L58.5536 5.99028C58.1603 7.80503 58.1755 10.0329 58.6141 12.6444C59.446 17.9116 61.6847 24.3591 64.9217 30.7919C69.8981 40.2936 76.2965 47.9804 81.2124 50.3263C81.3183 50.3706 81.4091 50.4296 81.515 50.4591L81.9082 50.6362L81.4847 50.7542ZM87.3839 40.3673C88.0645 45.1329 87.4141 48.3788 85.6444 49.3083L85.6141 49.3231C84.9032 49.5591 83.7082 49.6624 81.9839 48.8362C77.2494 46.5493 70.9721 38.9952 66.3738 30.0542C63.2124 23.8722 60.9889 17.4247 60.2477 12.4083C59.5217 7.8788 60.1872 4.48536 61.9872 3.54109L62.0175 3.52634C62.7284 3.29027 63.9234 3.187 65.6477 4.01322C70.2612 6.24109 76.4024 13.6181 81.2578 22.7952C84.4948 28.9772 86.6578 35.2329 87.3839 40.3673Z" fill="#46433E"/>
<path d="M63.9372 5.60661C63.9372 5.31153 63.7103 5.00169 63.4077 4.85415C63.3019 4.79513 63.1809 4.76562 63.075 4.76562C62.6514 4.76562 62.2128 5.19349 62.2128 5.62136V5.66562C62.1825 6.30005 62.2733 30.5263 83.3288 47.7148L83.5103 47.8181C83.8582 47.9804 84.4178 47.8033 84.7657 47.523C84.9019 47.4197 84.9624 47.2574 84.917 47.0509C84.8867 46.8591 84.796 46.6378 84.6296 46.446C79.9254 42.6099 75.917 38.0951 72.6951 33.005C70.1086 28.9328 68.0212 24.4771 66.5237 19.8001C64.0582 12.1869 63.8918 6.2853 63.9372 5.60661Z" fill="#46433E"/>
<path d="M16.8805 33.6979C7.82001 33.6979 0.46875 26.5127 0.46875 17.7045C0.46875 8.89629 7.82001 1.69629 16.8805 1.69629C25.941 1.69629 33.2923 8.88154 33.2923 17.7045C33.2923 26.5274 25.9259 33.6979 16.8805 33.6979ZM16.8805 3.1717C8.66707 3.1717 1.98135 9.69301 1.98135 17.7045C1.98135 25.716 8.66707 32.2373 16.8805 32.2373C25.094 32.2373 31.7797 25.716 31.7797 17.7045C31.7797 9.69301 25.094 3.1717 16.8805 3.1717Z" fill="#C65049"/>
<path d="M8.41097 26.6455C8.21433 26.6455 8.0177 26.5718 7.88156 26.4242C7.59417 26.1291 7.59417 25.6718 7.88156 25.3767L24.7774 8.95536C25.0799 8.67504 25.5488 8.67504 25.8513 8.95536C26.1387 9.25045 26.1387 9.70782 25.8513 10.0029L8.95551 26.4242C8.80425 26.5718 8.60761 26.6455 8.41097 26.6455Z" fill="#C65049"/>
<path d="M25.2756 26.6751C25.0789 26.6751 24.8823 26.6014 24.7462 26.4538L7.91086 9.98825C7.62346 9.69317 7.62346 9.2358 7.91086 8.94071C8.21338 8.66039 8.68229 8.66039 8.98481 8.94071L25.8201 25.421C26.1075 25.7161 26.1075 26.1735 25.8201 26.4686C25.6688 26.6014 25.4722 26.6751 25.2756 26.6751Z" fill="#C65049"/>
</svg>
