<svg width="90" height="90" viewBox="0 0 90 90" fill="none" xmlns="http://www.w3.org/2000/svg">
<g clip-path="url(#clip0_3672_30569)">
<path d="M24.5662 70.396C26.6384 70.396 28.3628 68.6565 28.3628 66.5994C28.3628 64.5422 26.6233 62.8027 24.5662 62.8027C22.509 62.8027 20.7695 64.5422 20.7695 66.5994C20.7695 68.6565 22.4939 70.396 24.5662 70.396ZM24.5662 64.2851C25.867 64.2851 26.8805 65.2985 26.8805 66.5994C26.8805 67.9002 25.867 68.9137 24.5662 68.9137C23.2653 68.9137 22.2519 67.9002 22.2519 66.5994C22.2519 65.2985 23.2653 64.2851 24.5662 64.2851Z" fill="#46433E"/>
<path d="M68.0974 70.397C70.1546 70.397 71.8941 68.6575 71.8941 66.6003C71.8941 64.5432 70.1546 62.8037 68.0974 62.8037C66.0403 62.8037 64.3008 64.5432 64.3008 66.6003C64.3008 68.6575 66.0252 70.397 68.0974 70.397ZM68.0974 64.2861C69.3831 64.2861 70.4117 65.2995 70.4117 66.6003C70.4117 67.9012 69.3983 68.9146 68.0974 68.9146C66.7966 68.9146 65.7831 67.9012 65.7831 66.6003C65.7831 65.2995 66.7966 64.2861 68.0974 64.2861Z" fill="#46433E"/>
<path d="M88.8958 62.4555L85.674 62.3194V55.4219C85.674 53.0773 83.6017 51.0051 81.2571 51.0051L68.4908 50.8538L57.237 37.4672C56.6168 36.5446 55.5429 36.0303 54.2269 36.0303H13.1597C12.9479 36.0303 12.7664 36.2118 12.6 36.3782L12.5849 36.3933L6.14118 45.3782H0.741176C0.363025 45.3782 0 45.7412 0 46.1193V64.3009C0 64.679 0.363025 65.042 0.741176 65.042H6.51933L9.18151 69.8521L9.21177 69.8824C9.36303 70.0488 9.54454 70.2303 9.92269 70.2303H15.3378C15.8218 71.4706 16.563 72.5899 17.516 73.558C19.3916 75.4488 21.8874 76.4773 24.5647 76.4773C27.2571 76.4773 29.7529 75.4336 31.6134 73.558C32.5815 72.5899 33.3076 71.4555 33.7916 70.2303L58.9311 70.3815C59.4151 71.5614 60.1261 72.6353 61.0487 73.558C62.9244 75.4488 65.4202 76.4773 68.0975 76.4773C70.7748 76.4773 73.2706 75.4336 75.1462 73.558C77.0067 71.6824 78.0202 69.2168 78.0202 66.5698C78.0202 63.9378 76.9765 61.4572 75.1008 59.5815C73.2101 57.6908 70.7445 56.6622 68.1126 56.6622C65.4807 56.6622 63 57.7059 61.1244 59.5815C59.2336 61.4723 58.205 63.953 58.205 66.5698C58.205 67.3563 58.2958 68.1429 58.4773 68.8841L34.2756 68.7328C34.4269 68.0219 34.5176 67.2958 34.5176 66.5546C34.5176 63.9227 33.4739 61.442 31.5983 59.5664C29.7076 57.6757 27.242 56.6471 24.6101 56.6471C21.9782 56.6471 19.4975 57.6908 17.6218 59.5664C15.7311 61.4572 14.7025 63.9378 14.7025 66.5546C14.7025 67.2353 14.763 67.8857 14.8992 68.5362H10.5126L7.66891 63.6051L7.63866 60.1261H12.721C13.0992 60.1261 13.4622 59.763 13.4622 59.3849V57.0857C13.4622 56.7076 13.0992 56.3446 12.721 56.3446H7.5479L7.51765 53.2588L62.8941 53.1076C63.2723 53.1076 63.6353 52.7446 63.6353 52.3664C63.6353 51.9883 63.2723 51.6252 62.8941 51.6252L7.50252 51.7765L7.45714 46.1345L13.6437 37.5278H54.3782C55.1345 37.5278 55.8454 37.8454 56.2538 38.4051L67.7193 52.1546C67.9008 52.321 68.0672 52.5025 68.279 52.5025L81.4084 52.6538C82.921 52.6538 84.1614 53.8941 84.1614 55.4067V55.9059H78.9277C78.5496 55.9059 78.1866 56.2689 78.1866 56.6471V59.0975C78.1866 59.4757 78.5496 59.8387 78.9277 59.8387H84.1614V63.0454C84.1614 63.4235 84.5244 63.7866 84.9025 63.7866L88.1244 63.9227V68.5362L79.563 68.6874C79.1849 68.6874 78.8218 69.0504 78.8218 69.4286C78.8218 69.8067 79.1849 70.1698 79.5781 70.1698L88.8958 70.0185C89.274 70.0185 89.637 69.6555 89.637 69.2773V63.1664C89.637 62.8336 89.274 62.4555 88.8958 62.4555ZM84.1311 57.4034V58.3412H79.8202V57.4034H84.1311ZM5.94454 59.1126V63.5446H1.51261V47.0269H5.83866L5.94454 59.1126ZM24.5647 58.1899C29.2084 58.1899 32.9748 61.9563 32.9748 66.6C32.9748 71.2437 29.2084 75.0101 24.5647 75.0101C19.921 75.0101 16.1546 71.2437 16.1546 66.6C16.1546 61.9563 19.921 58.1899 24.5647 58.1899ZM68.0975 58.1899C72.7261 58.1899 76.5076 61.9563 76.5076 66.6C76.5076 71.2437 72.7412 75.0101 68.0975 75.0101C63.4538 75.0101 59.6874 71.2437 59.6874 66.6C59.6874 61.9563 63.4538 58.1899 68.0975 58.1899ZM11.9193 57.721V58.795H7.56303L7.5479 57.721H11.9193Z" fill="#46433E"/>
<path d="M44.8784 48.4184C45.2565 48.4184 45.6196 48.0554 45.6196 47.6772V40.1142H53.8027C54.1809 40.1142 54.5439 39.7512 54.5439 39.373C54.5439 38.9949 54.1809 38.6318 53.8027 38.6318L14.6414 38.647C14.4296 38.647 14.2481 38.8285 14.0817 38.9949L14.0666 39.01L8.40947 47.1176L8.39434 47.1327C8.28846 47.3142 8.25821 47.526 8.28846 47.7226C8.30359 47.9192 8.39434 48.0856 8.54561 48.1915C8.60611 48.4033 8.84813 48.4033 8.98426 48.4033C9.21115 48.4033 9.39266 48.3579 9.72544 47.8739L15.0347 40.1444H26.7271V49.9159C26.7271 50.294 27.0901 50.657 27.4683 50.657C27.8464 50.657 28.2095 50.294 28.2095 49.9159V40.1142H44.1221V47.6772C44.1372 48.0554 44.5002 48.4184 44.8784 48.4184Z" fill="#46433E"/>
<path d="M47.4653 50.2329L62.1224 50.3842C62.4855 50.3842 62.667 50.2027 62.8334 50.0514L62.8787 50.006V49.9455C62.8787 49.6128 62.8787 49.2649 62.6972 49.0833L56.4199 41.4447C56.1023 41.127 55.7392 41.0665 55.3308 41.2632L55.3157 41.2783L55.3006 41.2934C54.9829 41.6111 54.9224 41.9892 55.1191 42.3825V42.3976L60.2771 48.7354H47.4502C47.072 48.7354 46.709 49.0985 46.709 49.4766C46.7241 49.8699 47.0871 50.2329 47.4653 50.2329Z" fill="#46433E"/>
<path d="M30.6765 85.7046C31.1756 85.6894 31.3874 85.2205 31.3874 84.9785C31.3723 84.676 31.2664 84.2676 30.6765 84.1768L15.0513 84.1315C14.5672 84.1163 14.2042 84.3886 14.2042 84.8575C14.1891 85.2659 14.3252 85.6138 15.0815 85.7046H30.6765Z" fill="#46433E"/>
<path d="M16.7443 89.9248C17.2435 89.9096 17.4553 89.4407 17.4553 89.1987C17.4401 88.8962 17.3343 88.4878 16.7443 88.397L1.104 88.3365C0.619966 88.3214 0.256941 88.5937 0.256941 89.0626C0.241815 89.471 0.37795 89.8189 1.13425 89.9096L16.7443 89.9248Z" fill="#46433E"/>
<path d="M88.8206 17.2743H50.7937C50.2643 17.2743 49.8861 16.9113 49.8861 16.3667C49.7046 14.9298 50.0676 13.6592 50.7937 13.1146C51.5046 12.4037 52.4122 12.0256 53.6827 12.0256H59.0827C59.7937 10.044 62.1533 7.15496 65.7533 7.15496C66.2827 7.15496 66.8424 7.15496 67.1903 7.33648C67.9012 3.55496 71.3348 0.484375 75.6609 0.484375C79.0794 0.484375 81.9685 3.19194 83.4054 5.88437C84.8424 6.06589 85.9164 6.5953 86.8239 7.50286C89.5315 10.3919 89.5315 16.155 89.5315 16.3365C89.5617 16.7298 89.35 17.2743 88.8206 17.2743ZM51.3836 15.8524L88.0643 15.8978C88.0643 14.2793 87.5197 10.4222 85.7197 8.60706C85.0088 7.89614 83.9651 7.36673 82.876 7.36673C82.513 7.36673 82.1651 7.18521 81.9685 6.83732C80.8794 4.49278 78.55 2.14824 75.6609 2.14824C72.0609 2.14824 68.9903 4.8558 68.6273 8.4558C68.6273 8.81883 68.4458 8.98521 68.2643 9.16673C68.0827 9.34824 67.7348 9.34824 67.3567 9.16673C66.6458 8.8037 66.0861 8.8037 65.3752 8.8037C62.4861 8.8037 60.5046 12.0558 60.1567 12.9482C59.9752 13.3113 59.6273 13.6592 59.2491 13.6592H53.3046C52.397 13.6592 51.9432 13.8104 51.5348 14.3247C51.3231 14.8995 51.3836 15.323 51.3836 15.8524Z" fill="#46433E"/>
<path d="M16.7282 32.8235C7.66767 32.8235 0.316406 25.4571 0.316406 16.4118C0.316406 7.36639 7.66767 0 16.7282 0C25.7887 0 33.1399 7.36639 33.1399 16.4118C33.1399 25.4571 25.7735 32.8235 16.7282 32.8235ZM16.7282 1.5126C8.51472 1.5126 1.82901 8.19832 1.82901 16.4118C1.82901 24.6252 8.51472 31.3109 16.7282 31.3109C24.9416 31.3109 31.6273 24.6252 31.6273 16.4118C31.6273 8.19832 24.9416 1.5126 16.7282 1.5126Z" fill="#C65049"/>
<path d="M8.25863 25.5934C8.06199 25.5934 7.86535 25.5178 7.72922 25.3665C7.44182 25.064 7.44182 24.5951 7.72922 24.2926L24.625 7.47238C24.9275 7.18499 25.3964 7.18499 25.699 7.47238C25.9864 7.7749 25.9864 8.24381 25.699 8.54633L8.80317 25.3816C8.65191 25.5178 8.45527 25.5934 8.25863 25.5934Z" fill="#C65049"/>
<path d="M25.1232 25.6236C24.9266 25.6236 24.7299 25.548 24.5938 25.3967L7.75851 8.51606C7.47112 8.21354 7.47112 7.74463 7.75851 7.44211C8.06104 7.15471 8.52994 7.15471 8.83246 7.44211L25.6678 24.3379C25.9552 24.6404 25.9552 25.1093 25.6678 25.4119C25.5165 25.5631 25.3199 25.6236 25.1232 25.6236Z" fill="#C65049"/>
</g>
<defs>
<clipPath id="clip0_3672_30569">
<rect width="90" height="90" fill="white"/>
</clipPath>
</defs>
</svg>
