<svg width="90" height="90" viewBox="0 0 90 90" fill="none" xmlns="http://www.w3.org/2000/svg">
<path d="M28.967 6.97839C28.4528 7.18325 27.878 6.99205 27.6511 6.52771C27.4242 6.06337 27.6359 5.5444 28.1502 5.33955C28.6645 5.13469 29.2393 5.32589 29.4662 5.79023C29.6931 6.25457 29.4813 6.77354 28.967 6.97839Z" fill="#46433E"/>
<path d="M18.7874 67.043C19.3387 67.043 19.7857 66.6394 19.7857 66.1416C19.7857 65.6438 19.3387 65.2402 18.7874 65.2402C18.236 65.2402 17.7891 65.6438 17.7891 66.1416C17.7891 66.6394 18.236 67.043 18.7874 67.043Z" fill="#46433E"/>
<path d="M70.9406 51.5972C67.9305 50.1495 63.9372 49.3574 59.6868 49.3574C59.5204 49.3574 59.3692 49.3574 59.1876 49.3574H59.0666C58.991 49.3574 58.9154 49.3574 58.8397 49.3574C54.5893 49.3574 50.5961 50.1632 47.6011 51.5972C39.8717 54.7383 29.6918 61.8809 29.3591 62.1814C29.1624 62.3589 28.9355 62.5638 28.9355 62.9599C28.9355 63.1647 28.9355 63.5334 29.1927 63.7383C29.2986 63.8339 39.7658 73.0114 49.0683 75.4834C49.749 75.6609 50.475 75.8248 51.2465 75.975C54.1507 76.6442 57.0397 76.7944 58.9608 76.7944C62.5002 76.7944 66.3271 76.3165 69.4582 75.4834C78.791 73.0114 89.2431 63.8339 89.3339 63.752C89.591 63.5334 89.591 63.1647 89.591 62.9599C89.591 62.5501 89.3641 62.3589 89.1675 62.1814C88.8347 61.8673 78.6549 54.7246 70.9406 51.5972ZM87.6398 63.0555C87.2313 63.3559 86.7322 63.752 86.1423 64.2026C82.5271 67.0023 75.7658 72.2057 69.6246 73.8309C67.0986 74.5137 62.712 75.2239 59.2482 75.2785C55.7843 75.2239 51.4129 74.5137 48.8717 73.8309C48.7053 73.7762 48.5238 73.7353 48.3271 73.6806C48.07 73.585 47.7977 73.5031 47.4498 73.4075C41.7171 71.4272 35.6515 66.7429 32.3843 64.23C31.8095 63.7793 31.2952 63.3969 30.8868 63.0828C31.1439 62.9189 31.4162 62.7277 31.749 62.5092C34.5624 60.6108 39.796 57.0873 44.6818 54.6564C45.5439 54.274 46.3759 53.9189 47.1019 53.6321C47.6313 53.4136 48.1003 53.2087 48.4935 53.0448C51.307 51.7747 55.9658 50.928 60.0801 50.928C63.6347 50.928 66.8717 51.6245 70.5776 53.1951C76.1591 55.3529 83.3439 60.1875 86.7927 62.5092C87.1103 62.7004 87.3826 62.8916 87.6398 63.0555Z" fill="#46433E"/>
<path d="M59.7617 52.8125C56.6759 52.8125 53.4541 53.3861 51.1701 54.3284C49.8995 54.7928 47.1617 56.336 43.0171 58.8626C42.8356 58.9718 42.7146 59.0401 42.7146 59.0538C42.518 59.1494 42.3969 59.6547 42.4877 59.9825C42.5482 60.201 42.76 60.5697 43.486 60.5151H43.5465L43.9549 60.2692C45.2558 59.4771 46.8289 58.5348 48.16 57.7564C47.4642 59.0401 47.1011 60.8565 47.1011 62.1539C47.1011 68.2586 52.607 73.2298 59.3684 73.2298C66.1297 73.2298 71.6356 68.2586 71.6356 62.1539C71.6356 60.7472 71.318 58.9035 70.4709 57.5105C74.0104 59.6001 75.9465 60.679 75.9617 60.6926L76.0373 60.7336C76.4759 61.0067 76.9146 61.2799 77.2927 61.2799C77.444 61.2799 77.5953 61.2252 77.686 61.1433C77.8978 60.9658 78.0037 60.7609 78.0188 60.5424C78.0188 60.3102 77.9129 60.0781 77.686 59.8869C77.4743 59.682 72.5583 56.4589 67.3852 54.2055C65.2373 53.2905 62.6205 52.8125 59.7617 52.8125ZM69.881 62.2768C69.881 67.3026 64.9499 71.7275 59.3533 71.7275C53.8171 71.7275 49.2339 67.7397 48.6743 62.4544C48.6743 60.119 49.5364 57.9475 51.1398 56.1721C51.1398 56.1721 51.2457 56.0765 51.5482 55.9263C53.8776 54.9293 56.7364 54.3831 59.5801 54.3831C61.8793 54.3831 64.0272 54.7381 66.0087 55.4347C66.3717 55.5439 67.2188 55.9263 67.4003 56.0083C68.9583 57.7154 69.881 60.0507 69.881 62.2768Z" fill="#46433E"/>
<path d="M59.339 58.0566C57.2516 58.0566 55.3608 59.7774 55.3457 61.6621C55.3457 63.656 57.1306 65.2676 59.339 65.2676C61.4415 65.2676 63.3323 63.5468 63.3323 61.6621C63.3171 59.6818 61.5323 58.0566 59.339 58.0566ZM61.502 61.6621C61.502 62.1538 61.2751 62.6454 60.8667 63.0142C60.4432 63.3965 59.8684 63.6287 59.3541 63.6287H59.339C58.2802 63.6287 57.1608 62.8366 57.1608 61.6621C57.1608 60.5286 58.3104 59.6955 59.339 59.6955C60.5642 59.6818 61.502 60.5422 61.502 61.6621Z" fill="#46433E"/>
<path d="M73.074 50.477C73.195 50.5452 73.3765 50.5862 73.5429 50.5862C73.8303 50.5862 74.0723 50.477 74.2387 50.2584L77.3849 45.8336L77.4001 45.8199C77.7026 45.3009 77.5967 44.9049 77.1278 44.659C76.9917 44.5634 76.8253 44.5361 76.674 44.5361C76.3715 44.5361 76.0992 44.6864 75.9328 44.9595L72.8017 49.4117L72.7866 49.439C72.5295 49.8624 72.6505 50.2311 73.074 50.477Z" fill="#46433E"/>
<path d="M76.977 51.7466C76.7652 52.1564 76.8711 52.5251 77.2946 52.7709C77.4156 52.8392 77.5971 52.8802 77.7635 52.8802C78.0509 52.8802 78.2929 52.7709 78.4593 52.5661L81.6207 48.1548L81.6358 48.1412C81.9383 47.6222 81.8324 47.2262 81.3635 46.9803C81.2274 46.8847 81.061 46.8574 80.9098 46.8574C80.6072 46.8574 80.335 47.0077 80.1686 47.2808L77.0224 51.7193L76.977 51.7466Z" fill="#46433E"/>
<path d="M80.8637 54.0142C80.6519 54.4239 80.7578 54.7927 81.1813 55.0385C81.3024 55.1068 81.4839 55.1478 81.6502 55.1478C81.9376 55.1478 82.1797 55.0385 82.3461 54.8336L85.5074 50.4224L85.5225 50.4088C85.825 49.8898 85.7192 49.4937 85.2502 49.2479C85.1141 49.1523 84.9477 49.125 84.7965 49.125C84.4939 49.125 84.2217 49.2752 84.0553 49.5484L80.8788 53.9869L80.8637 54.0142Z" fill="#46433E"/>
<path d="M84.7817 56.65C84.5699 57.0597 84.6758 57.4284 85.0993 57.6742C85.2203 57.7425 85.4018 57.7835 85.5682 57.7835C85.8556 57.7835 86.0976 57.6742 86.264 57.4694L89.4254 53.0582L89.4405 53.0445C89.743 52.5255 89.6371 52.1295 89.1682 51.8837C89.0321 51.7881 88.8657 51.7607 88.7144 51.7607C88.4119 51.7607 88.1396 51.911 87.9733 52.1841L84.827 56.6227L84.7817 56.65Z" fill="#46433E"/>
<path d="M26.1975 68.2852C26.7489 68.2852 27.1959 67.8816 27.1959 67.3838C27.1959 66.886 26.7489 66.4824 26.1975 66.4824C25.6462 66.4824 25.1992 66.886 25.1992 67.3838C25.1992 67.8816 25.6462 68.2852 26.1975 68.2852Z" fill="#46433E"/>
<path d="M22.6741 72.6006C23.2255 72.6006 23.6724 72.197 23.6724 71.6992C23.6724 71.2014 23.2255 70.7979 22.6741 70.7979C22.1227 70.7979 21.6758 71.2014 21.6758 71.6992C21.6758 72.197 22.1227 72.6006 22.6741 72.6006Z" fill="#46433E"/>
<path d="M73.15 32.6544C64.1047 32.6544 56.7383 26.0034 56.7383 17.8365C56.7383 9.66954 64.0895 3.01855 73.15 3.01855C82.2106 3.01855 89.5618 9.66954 89.5618 17.8365C89.5618 26.0034 82.1954 32.6544 73.15 32.6544ZM73.15 4.38426C64.9366 4.38426 58.2509 10.4207 58.2509 17.8365C58.2509 25.2522 64.9366 31.2887 73.15 31.2887C81.3635 31.2887 88.0492 25.2522 88.0492 17.8365C88.0492 10.4207 81.3635 4.38426 73.15 4.38426Z" fill="#C65049"/>
<path d="M64.6786 26.1261C64.4819 26.1261 64.2853 26.0578 64.1491 25.9212C63.8617 25.6481 63.8617 25.2247 64.1491 24.9516L81.0449 9.76493C81.3475 9.50544 81.8164 9.50544 82.1189 9.76493C82.4063 10.0381 82.4063 10.4614 82.1189 10.7346L65.2231 25.9212C65.0718 26.0578 64.8752 26.1261 64.6786 26.1261Z" fill="#C65049"/>
<path d="M81.5431 26.1533C81.3465 26.1533 81.1499 26.0851 81.0137 25.9485L64.1784 10.6936C63.891 10.4204 63.891 9.99705 64.1784 9.72391C64.481 9.46443 64.9499 9.46443 65.2524 9.72391L82.0877 24.9925C82.3751 25.2656 82.3751 25.689 82.0877 25.9622C81.9364 26.0851 81.7398 26.1533 81.5431 26.1533Z" fill="#C65049"/>
<path d="M10.951 32.941C10.588 32.941 10.2704 32.7089 10.2099 32.3674C10.104 31.8075 10.0586 31.2202 10.0586 30.6466C10.0586 24.7741 15.3527 19.9941 21.8569 19.9941C27.2267 19.9941 31.9157 23.2718 33.2771 27.9562C33.5342 28.8303 33.6552 29.7316 33.6552 30.6466C33.6552 31.029 33.3225 31.3295 32.8989 31.3295C32.4754 31.3295 32.1426 31.029 32.1426 30.6466C32.1426 29.8545 32.0367 29.0624 31.8099 28.2976C30.63 24.2142 26.5309 21.3598 21.8569 21.3598C16.1846 21.3598 11.5712 25.5252 11.5712 30.6466C11.5712 31.152 11.6166 31.6573 11.7073 32.1489C11.7678 32.5177 11.4956 32.8727 11.0872 32.9274C11.0418 32.9274 10.9964 32.941 10.951 32.941Z" fill="#46433E"/>
<path d="M41.6715 27.9832C41.2479 27.9832 40.9152 27.6827 40.9152 27.3003C40.9152 24.8557 38.7068 22.8618 35.9992 22.8618C34.1538 22.8618 32.4748 23.7905 31.6278 25.2654C31.4311 25.6069 30.9773 25.7298 30.6143 25.5522C30.2362 25.3747 30.1 24.965 30.2967 24.6372C31.4009 22.6979 33.5942 21.4961 36.0143 21.4961C39.5538 21.4961 42.4429 24.1046 42.4429 27.3003C42.4278 27.6827 42.095 27.9832 41.6715 27.9832Z" fill="#46433E"/>
<path d="M50.3542 36.1643C50.1575 36.1643 49.9609 36.096 49.8248 35.9594C49.5223 35.6863 49.5223 35.2629 49.8248 34.9898C50.808 34.1021 51.3525 32.9139 51.3525 31.6575C51.3525 29.0626 49.008 26.9458 46.134 26.9458C43.7592 26.9458 41.6718 28.3934 41.0819 30.4693C40.976 30.838 40.5676 31.0566 40.1592 30.961C39.7508 30.8654 39.5088 30.4966 39.6147 30.1279C40.3861 27.4511 43.0634 25.5801 46.134 25.5801C49.8399 25.5801 52.8651 28.3115 52.8651 31.6575C52.8651 33.2827 52.1693 34.8122 50.8987 35.9594C50.7475 36.096 50.5508 36.1643 50.3542 36.1643Z" fill="#46433E"/>
<path d="M36.1825 33.6646C36.0464 33.6646 35.9102 33.6373 35.7892 33.569C35.4262 33.3778 35.3203 32.9545 35.5321 32.6267C36.7573 30.7967 38.9203 29.6904 41.2951 29.6904C43.2161 29.6904 45.0464 30.4279 46.3169 31.7253C46.5892 32.0121 46.5741 32.4355 46.2564 32.695C45.9388 32.9408 45.4699 32.9272 45.1825 32.6404C44.1993 31.6297 42.7774 31.0561 41.28 31.0561C39.4346 31.0561 37.7707 31.9029 36.8178 33.3369C36.6816 33.5417 36.4396 33.6646 36.1825 33.6646Z" fill="#46433E"/>
<path d="M11.5709 41.6406C7.86505 41.6406 4.83984 38.9092 4.83984 35.5632C4.83984 32.5587 7.32052 29.9638 10.618 29.5405C11.0264 29.4858 11.4197 29.7453 11.4802 30.1141C11.5407 30.4828 11.2533 30.8379 10.8298 30.8925C8.27346 31.2203 6.35245 33.2279 6.35245 35.5632C6.35245 38.1581 8.69699 40.2749 11.5709 40.2749C11.9945 40.2749 12.3272 40.5754 12.3272 40.9578C12.3272 41.3402 11.9945 41.6406 11.5709 41.6406Z" fill="#46433E"/>
<path d="M19.6342 40.8892C16.73 40.8892 14.083 39.2504 13.0393 36.8057C12.888 36.4507 13.0847 36.0546 13.4779 35.918C13.8712 35.7815 14.3099 35.959 14.4611 36.3141C15.2779 38.2261 17.3653 39.5235 19.6494 39.5235C22.72 39.5235 25.2158 37.2701 25.2158 34.4977C25.2158 34.047 25.1552 33.61 25.0191 33.1866C24.9132 32.8179 25.1552 32.4491 25.5485 32.3535C25.9569 32.2579 26.3653 32.4765 26.4712 32.8315C26.6376 33.3778 26.7132 33.9378 26.7132 34.4977C26.6981 38.0212 23.5216 40.8892 19.6342 40.8892Z" fill="#46433E"/>
<path d="M13.8414 60.0096C13.7204 60.0096 13.5994 59.9823 13.4784 59.9276C13.2818 59.832 8.59268 57.483 8.44142 53.659C8.29016 50.0126 10.3322 47.3358 14.5372 45.7106C16.4431 44.9732 18.9691 44.2903 21.4196 43.6348C24.3086 42.8563 27.3036 42.0505 28.4683 41.3131C30.3893 40.1112 30.4649 37.612 30.4649 37.5847C30.4649 37.2023 30.8128 36.9018 31.2364 36.9155C31.6599 36.9155 31.9927 37.2296 31.9776 37.612C31.9776 37.7486 31.8868 40.8487 29.3305 42.4466C27.9691 43.2933 24.9893 44.0991 21.8582 44.9458C19.4532 45.6014 16.9725 46.2706 15.1423 46.9671C11.5271 48.3601 9.83302 50.5452 9.96915 53.6044C10.1053 56.6636 14.1893 58.7121 14.2347 58.7395C14.5977 58.917 14.7339 59.3404 14.5372 59.6681C14.3708 59.873 14.1137 60.0096 13.8414 60.0096Z" fill="#46433E"/>
<path d="M13.9612 60.2548C13.7495 60.2548 13.5528 60.1865 13.4016 60.0363C13.2957 59.927 10.694 57.3185 11.7226 54.1091C12.8117 50.6948 19.6486 50.3534 26.2587 50.0256C27.136 49.9847 28.0285 49.9437 28.8907 49.8891C31.5226 49.7252 44.8638 48.6053 48.4789 41.8997C49.5982 39.8375 49.6133 35.6857 49.6133 35.6448C49.6133 35.2624 49.9461 34.9619 50.3696 34.9619C50.7932 34.9619 51.1259 35.2624 51.1259 35.6448C51.1259 35.8223 51.1108 40.1516 49.8402 42.5006C48.2217 45.5052 44.8033 47.8269 39.6907 49.3974C35.2133 50.7768 30.7058 51.1592 28.9814 51.2684C28.1192 51.3231 27.2117 51.364 26.3344 51.405C20.5411 51.6918 13.9612 52.0196 13.1596 54.5052C12.373 56.9634 14.4907 59.1212 14.5058 59.1349C14.778 59.408 14.7629 59.8451 14.4604 60.1046C14.3243 60.2002 14.1428 60.2548 13.9612 60.2548Z" fill="#46433E"/>
<path d="M31.0386 46.6936C30.6756 46.6936 30.358 46.4478 30.2975 46.12C30.237 45.7513 30.5092 45.3962 30.9176 45.3416C41.3697 43.8256 41.2639 37.5707 41.2487 37.2976C41.2336 36.9152 41.5664 36.601 41.9748 36.5874C42.3983 36.5737 42.7462 36.8605 42.7613 37.2429C42.7613 37.3249 42.837 39.2505 41.4151 41.381C40.1143 43.3067 37.2857 45.7922 31.1597 46.6799C31.1294 46.6936 31.084 46.6936 31.0386 46.6936Z" fill="#46433E"/>
<path d="M7.13894 10.7754C7.6903 10.7754 8.13726 10.3718 8.13726 9.87402C8.13726 9.37621 7.6903 8.97266 7.13894 8.97266C6.58759 8.97266 6.14062 9.37621 6.14062 9.87402C6.14062 10.3718 6.58759 10.7754 7.13894 10.7754Z" fill="#46433E"/>
<path d="M14.5511 12.0186C15.1024 12.0186 15.5494 11.615 15.5494 11.1172C15.5494 10.6194 15.1024 10.2158 14.5511 10.2158C13.9997 10.2158 13.5527 10.6194 13.5527 11.1172C13.5527 11.615 13.9997 12.0186 14.5511 12.0186Z" fill="#46433E"/>
<path d="M11.0276 16.334C11.579 16.334 12.0259 15.9304 12.0259 15.4326C12.0259 14.9348 11.579 14.5312 11.0276 14.5312C10.4763 14.5312 10.0293 14.9348 10.0293 15.4326C10.0293 15.9304 10.4763 16.334 11.0276 16.334Z" fill="#46433E"/>
<path d="M13.4925 73.3389C14.0438 73.3389 14.4908 72.9353 14.4908 72.4375C14.4908 71.9397 14.0438 71.5361 13.4925 71.5361C12.9411 71.5361 12.4941 71.9397 12.4941 72.4375C12.4941 72.9353 12.9411 73.3389 13.4925 73.3389Z" fill="#46433E"/>
<path d="M10.8753 79.0195C11.4266 79.0195 11.8736 78.616 11.8736 78.1182C11.8736 77.6203 11.4266 77.2168 10.8753 77.2168C10.3239 77.2168 9.87695 77.6203 9.87695 78.1182C9.87695 78.616 10.3239 79.0195 10.8753 79.0195Z" fill="#46433E"/>
</svg>
