<svg width="90" height="90" viewBox="0 0 90 90" fill="none" xmlns="http://www.w3.org/2000/svg">
<g clip-path="url(#clip0_3681_12123)">
<path d="M70.7682 89.7715H67.7596C58.3106 89.7715 50.6758 81.8684 50.6758 72.5313V63.1941C50.6758 62.5838 51.084 62.1719 51.6887 62.1719H87.0507C87.6555 62.1719 88.0637 62.5838 88.0637 63.1941V72.5313C87.852 82.0668 80.0206 89.7715 70.7682 89.7715ZM52.2632 63.8654L52.3842 72.3634C52.3842 80.8767 58.9456 88.2458 68.1527 88.1695H71.1613C79.2496 88.0932 86.4611 80.8615 86.4611 72.3482L86.4762 63.8196L52.2632 63.8654Z" fill="#46433E"/>
<path d="M27.8033 89.8017H24.7948C15.3457 89.8017 7.71094 81.8987 7.71094 72.5615V63.2244C7.71094 62.6141 8.11914 62.2021 8.72387 62.2021H44.0859C44.6906 62.2021 45.0988 62.6141 45.0988 63.2244V72.5615C45.0837 81.8987 37.464 89.8017 27.8033 89.8017ZM9.31349 63.8651L9.26814 72.1801C9.22278 80.846 15.6632 87.9557 24.9913 88.1845H27.9999C36.5871 88.1998 43.3451 80.9986 43.3451 72.8667L43.4963 63.8194L9.38908 63.8651H9.31349Z" fill="#46433E"/>
<path d="M44.3712 75.7347C44.1898 75.7347 43.9932 75.7347 43.8118 75.5516C43.4338 75.1702 43.2524 74.5905 43.6304 74.2243C43.6304 74.0412 45.4748 71.5543 47.924 71.5543C49.6929 71.5086 50.9023 72.4392 52.2328 74.3616C52.6107 74.743 52.52 75.2007 52.1421 75.5821C51.7641 75.9636 51.371 75.7805 50.9931 75.3991C50.0406 74.0717 49.2393 73.1716 47.8635 73.1716C45.9133 73.1563 44.8701 75.3228 44.8701 75.3228C44.6433 75.4753 44.7643 75.7347 44.3712 75.7347Z" fill="#46433E"/>
<path d="M67.1726 77.4283L56.5746 68.3047C56.1664 67.8928 56.1513 67.4808 56.4839 67.0842C56.8921 66.718 57.2247 66.9011 57.6177 67.1147L68.3518 76.4213C68.6088 76.6807 68.5937 77.0164 68.2914 77.4283C67.9739 77.7487 67.3691 77.6266 67.1726 77.4283Z" fill="#46433E"/>
<path d="M25.6551 11.5188C19.8345 11.5188 14.9966 7.26211 14.1953 1.38823C14.1953 0.77796 14.4826 0.594878 14.9059 0.503337C15.4501 0.427053 15.692 0.671162 15.8886 1.05258C16.4933 5.91951 20.8625 9.84051 25.6853 9.84051C30.5081 9.84051 35.0739 6.25516 35.4821 1.18989C35.4821 0.579621 35.8903 -0.0306516 36.4648 0.0151189C37.0695 0.0151189 37.1753 0.48808 37.13 1.15938C36.495 7.04851 31.6722 11.5188 25.6551 11.5188Z" fill="#46433E"/>
<path d="M23.2365 9.68766C22.8283 9.48932 22.3445 9.74869 22.148 10.359L16.5391 29.7504C16.9473 29.7351 17.3403 29.7962 17.6881 30.025C17.8392 30.1013 17.9602 30.2081 18.0509 30.3149L23.6447 10.954C23.8564 10.542 23.8413 9.886 23.2365 9.68766Z" fill="#46433E"/>
<path d="M20.8183 8.46745C20.4101 8.26911 19.9112 8.68105 19.7146 9.07772L10.2656 23.6938C10.5378 23.8006 10.7645 23.9836 10.946 24.2125C11.0971 24.4108 11.3088 24.5787 11.5356 24.7312L21.0148 9.71851C21.2265 9.30658 21.2265 8.68105 20.8183 8.46745Z" fill="#46433E"/>
<path d="M1.1036 14.7225C0.907056 14.3106 0.952411 13.8681 1.57227 13.4562L15.9499 4.98867C16.3581 4.79033 16.6756 4.53096 17.0838 5.15649C17.2803 5.56843 17.5071 5.79728 16.9024 6.22447L2.32819 14.9666C1.87463 15.1802 1.30013 15.1039 1.1036 14.7225Z" fill="#46433E"/>
<path d="M18.6108 7.27776C18.2026 6.86582 17.7188 6.92685 17.3106 7.32353L0.680369 23.9229C0.393119 24.2128 0.196579 24.5942 0.257053 24.9146C0.544303 24.6248 0.876909 24.3654 1.25487 24.1365C1.43629 24.0297 1.61771 23.9077 1.79913 23.7856C1.81425 23.7704 1.82937 23.7704 1.84449 23.7551C1.92008 23.6941 2.02591 23.5873 2.08638 23.511C2.49458 23.0686 3.12955 23.0533 3.61334 23.3279L18.4748 8.42202C18.8678 8.02534 19.0341 7.65918 18.6108 7.27776Z" fill="#46433E"/>
<path d="M1.05762 7.97947C0.604064 8.05576 0.316814 7.79639 0.226104 7.43023C0.0749193 6.88098 0.377288 6.54533 0.966907 6.34699L15.405 2.59381C16.0097 2.39548 16.0853 2.7769 16.2668 3.38717C16.4482 3.99744 16.1609 3.95167 15.5411 4.16527L1.05762 7.97947Z" fill="#46433E"/>
<path d="M26.4579 34.0379C25.4752 34.0837 25.445 33.0157 25.445 32.619L24.9158 11.3663C24.9158 10.756 24.8553 10.9086 25.445 10.9086C26.0497 10.9086 26.4579 11.3205 26.4579 11.7172L27.0324 32.1003C27.0324 32.9089 27.1231 33.9616 26.4579 34.0379Z" fill="#46433E"/>
<path d="M35.3311 32.3901C34.9229 32.5121 34.5298 32.3291 34.3333 31.7035L28.2255 10.4966C28.0289 9.88628 28.1499 9.87102 28.5429 9.64217C29.1477 9.44383 29.4954 9.47435 29.6768 9.90154L35.9056 31.3831C36.1022 31.9934 35.7091 32.268 35.3311 32.3901Z" fill="#46433E"/>
<path d="M55.5291 17.4231C55.6047 17.2705 55.6501 17.1179 55.6803 17.0264C55.7559 16.7823 55.6652 16.5687 55.6954 16.3093L35.4821 4.42426C34.8773 4.22592 34.6354 4.60734 34.4389 5.00402C34.2424 5.59903 34.197 5.53801 34.6052 5.73634L54.8337 17.4536C55.0907 17.4231 55.2721 17.4688 55.5291 17.4231Z" fill="#46433E"/>
<path d="M47.2596 21.4055C47.4259 21.2224 47.6224 21.0546 47.8038 20.8563C47.8643 20.78 47.8945 20.7342 47.955 20.6732L34.0914 6.63691C33.6681 6.22497 33.3355 6.54537 32.9424 6.9573C32.5342 7.38449 32.7005 7.50655 33.1087 7.91848L46.9118 21.7717C47.063 21.6191 47.1537 21.5276 47.2596 21.4055Z" fill="#46433E"/>
<path d="M59.2188 8.43668L36.0574 2.08984C35.8457 2.57806 35.6794 3.09679 35.4375 3.56976L59.627 10.2522L59.6875 10.2675C59.7328 10.2217 60.0201 10.2828 60.0201 9.65723C60.0201 9.04695 59.8235 8.63502 59.2188 8.43668Z" fill="#46433E"/>
<path d="M69.5149 84.7672L56.4828 73.5687C56.0746 73.1568 56.0595 72.7448 56.3921 72.3482C56.8003 71.982 57.1329 72.1803 57.526 72.3787L70.679 83.7603C70.936 84.0196 70.9209 84.3553 70.6185 84.7672C70.3161 85.0724 69.7114 84.9656 69.5149 84.7672Z" fill="#46433E"/>
<path d="M24.3557 77.9166L13.7425 68.793C13.3343 68.3811 13.3192 67.9691 13.6518 67.5724C14.06 67.2063 14.3926 67.3894 14.7857 67.603L25.5198 76.9096C25.7768 77.169 25.7617 77.5046 25.4593 77.9166C25.157 78.2217 24.5522 78.1149 24.3557 77.9166Z" fill="#46433E"/>
<path d="M26.7004 85.2555L13.6683 74.057C13.2601 73.6451 13.245 73.2331 13.5776 72.8365C13.9858 72.4703 14.3184 72.6686 14.7115 72.867L27.8645 84.2486C28.1215 84.5079 28.1064 84.8436 27.8041 85.2555C27.5017 85.5759 26.9121 85.4691 26.7004 85.2555Z" fill="#46433E"/>
<path d="M33.6534 35.8691C32.8521 35.0605 31.8392 34.6486 30.4483 34.6486H24.4312C23.6299 32.4364 21.0144 29.1561 16.9929 29.1561C16.3882 29.1561 15.7834 29.1561 15.3752 29.3545C14.5739 25.1131 10.749 21.665 5.92621 21.665C3.74916 21.665 1.87447 22.5957 0.271918 23.9993C0.181207 24.0756 0.317273 24.3655 0.226562 24.4418C0.695234 24.5028 0.619642 24.7164 0.755707 25.0826C0.8313 25.1741 0.785944 25.0521 0.8313 25.1894C0.92201 25.0978 1.13367 25.2656 1.2395 25.1741C2.56992 24.0298 4.18759 23.2365 5.92621 23.2365C9.93259 23.2365 13.5005 26.1658 13.8936 30.2089C13.8936 30.6208 13.9541 30.8954 14.1658 31.0785C14.3623 31.2768 14.7705 31.2768 15.1787 31.0785C15.98 30.6666 16.5847 30.6666 17.3709 30.6666C20.576 30.6666 22.8135 34.6028 23.1915 35.6098C23.388 36.0217 23.7962 36.1285 24.2044 36.1285H30.8263C31.8392 36.1285 32.4137 36.4336 32.837 37.0134C33.0638 37.3796 33.1091 38.2187 33.1091 38.829L0.498694 38.9052C0.513813 39.1036 0.483576 39.3172 0.423102 39.5003C0.498694 39.8359 0.604523 40.1868 0.423102 40.4767L33.6836 40.5072C34.2884 40.5072 34.6966 40.0953 34.6966 39.485C34.878 37.8983 34.4547 36.4947 33.6534 35.8691Z" fill="#46433E"/>
<path d="M0.77104 25.357C1.19687 25.357 1.54208 25.0086 1.54208 24.5789C1.54208 24.1491 1.19687 23.8008 0.77104 23.8008C0.345206 23.8008 0 24.1491 0 24.5789C0 25.0086 0.345206 25.357 0.77104 25.357Z" fill="#46433E"/>
<path d="M0.483424 40.5066C0.917607 40.5066 1.26958 40.1514 1.26958 39.7133C1.26958 39.2751 0.917607 38.9199 0.483424 38.9199C0.0492406 38.9199 -0.302734 39.2751 -0.302734 39.7133C-0.302734 40.1514 0.0492406 40.5066 0.483424 40.5066Z" fill="#46433E"/>
<path d="M73.4152 33.2753C64.3744 33.2753 57.0117 25.8452 57.0117 16.7216C57.0117 7.59804 64.3744 0.167969 73.4152 0.167969C82.456 0.167969 89.8187 7.59804 89.8187 16.7216C89.8187 25.8452 82.456 33.2753 73.4152 33.2753ZM73.4152 1.69365C65.2059 1.69365 58.5236 8.43717 58.5236 16.7216C58.5236 25.0061 65.2059 31.7496 73.4152 31.7496C81.6245 31.7496 88.3069 25.0061 88.3069 16.7216C88.3069 8.43717 81.6245 1.69365 73.4152 1.69365Z" fill="#D14A43"/>
<path d="M64.9497 25.9824C64.7531 25.9824 64.5566 25.9061 64.4205 25.7535C64.1333 25.4484 64.1333 24.9754 64.4205 24.6703L81.3078 7.70471C81.6102 7.41483 82.0788 7.41483 82.3812 7.70471C82.6685 8.00985 82.6685 8.48281 82.3812 8.78795L65.4939 25.7535C65.3427 25.9061 65.1462 25.9824 64.9497 25.9824Z" fill="#D14A43"/>
<path d="M81.8058 26.0128C81.6092 26.0128 81.4127 25.9365 81.2766 25.7839L64.4498 8.74205C64.1626 8.43691 64.1626 7.96395 64.4498 7.65882C64.7522 7.36894 65.2209 7.36894 65.5232 7.65882L82.35 24.7159C82.6373 25.0211 82.6373 25.494 82.35 25.7992C82.1989 25.9365 82.0023 26.0128 81.8058 26.0128Z" fill="#D14A43"/>
<path d="M40.8053 22.9918L32.1727 8.52832C31.7645 8.86397 31.2807 9.09282 30.7969 9.29116L39.369 23.7241C39.7167 24.2734 40.1401 24.3496 40.5029 24.1208C40.8506 23.9072 41.153 23.541 40.8053 22.9918Z" fill="#46433E"/>
<path d="M49.1363 21.8328L34.1993 6.72852C33.8818 7.14045 33.4585 7.49136 33.0352 7.79649L47.9117 22.8855C48.3652 23.3432 48.8188 23.3127 49.106 23.0075C49.3782 22.7024 49.5898 22.2752 49.1363 21.8328Z" fill="#46433E"/>
<path d="M55.9236 16.3093L35.5893 4.43945C35.3928 4.92767 35.0904 5.37012 34.7578 5.78205L55.0316 17.6366C55.591 17.9417 56.0143 17.8044 56.2109 17.423C56.3923 17.0721 56.483 16.6144 55.9236 16.3093Z" fill="#46433E"/>
</g>
<defs>
<clipPath id="clip0_3681_12123">
<rect width="90" height="90" fill="white"/>
</clipPath>
</defs>
</svg>
