<svg width="90" height="90" viewBox="0 0 90 90" fill="none" xmlns="http://www.w3.org/2000/svg">
<g clip-path="url(#clip0_3672_30571)">
<path d="M52.9264 74.7406H49.5684C49.2659 74.7406 48.9482 74.5883 48.797 74.2685L44.7734 62.0249C44.7734 61.8726 44.7734 61.8726 44.7734 61.7203V39.5325C44.7734 39.0604 45.076 38.7559 45.5449 38.7559H56.9197C57.3886 38.7559 57.6911 39.0604 57.6911 39.5325V61.7356C57.6911 61.8878 57.6911 61.8878 57.6911 62.0401L53.6827 74.299C53.5465 74.5274 53.2289 74.7406 52.9264 74.7406ZM50.0222 73.2026H52.4575L56.1634 61.568V40.3092H46.1953V61.568L50.0222 73.2026Z" fill="#46433E"/>
<path d="M53.5769 51.3346H45.7265C45.2576 51.3346 44.9551 51.03 44.9551 50.5579C44.9551 50.0858 45.2576 49.7812 45.7265 49.7812H53.5769C54.0458 49.7812 54.3484 50.0858 54.3484 50.5579C54.3332 51.03 54.0156 51.3346 53.5769 51.3346Z" fill="#46433E"/>
<path d="M51.3075 39.9595C50.8385 39.9595 50.536 39.6702 50.536 39.2438L50.3848 1.0966C50.3848 0.670199 50.6873 0.380859 51.1562 0.380859C51.6251 0.380859 51.9276 0.670199 51.9276 1.0966L52.0789 39.2438C52.0789 39.6702 51.7764 39.9595 51.3075 39.9595Z" fill="#46433E"/>
<path d="M55.0146 2.69588H47.4667C46.9978 2.69588 46.6953 2.39131 46.6953 1.91923C46.6953 1.44715 46.9978 1.14258 47.4667 1.14258H55.0146C55.4835 1.14258 55.7861 1.44715 55.7861 1.91923C55.7861 2.39131 55.4684 2.69588 55.0146 2.69588Z" fill="#46433E"/>
<path d="M55.0127 6.12166H47.4648C46.9959 6.12166 46.6934 5.81709 46.6934 5.34501C46.6934 4.87293 46.9959 4.56836 47.4648 4.56836H55.0127C55.4816 4.56836 55.7841 4.87293 55.7841 5.34501C55.7841 5.81709 55.4665 6.12166 55.0127 6.12166Z" fill="#46433E"/>
<path d="M55.0127 9.83748H47.4648C46.9959 9.83748 46.6934 9.53291 46.6934 9.06083C46.6934 8.58875 46.9959 8.28418 47.4648 8.28418H55.0127C55.4816 8.28418 55.7841 8.58875 55.7841 9.06083C55.7841 9.53291 55.4665 9.83748 55.0127 9.83748Z" fill="#46433E"/>
<path d="M55.0146 13.234H47.4667C46.9978 13.234 46.6953 12.9294 46.6953 12.4573C46.6953 11.9852 46.9978 11.6807 47.4667 11.6807H55.0146C55.4835 11.6807 55.7861 11.9852 55.7861 12.4573C55.7861 12.9294 55.4684 13.234 55.0146 13.234Z" fill="#46433E"/>
<path d="M55.165 16.6597H47.6171C47.1482 16.6597 46.8457 16.3552 46.8457 15.8831C46.8457 15.411 47.1482 15.1064 47.6171 15.1064H55.165C55.6339 15.1064 55.9365 15.411 55.9365 15.8831C55.9365 16.3552 55.4676 16.6597 55.165 16.6597Z" fill="#46433E"/>
<path d="M46.7386 65.7409L46.542 65.9389C44.7117 67.4617 42.9722 68.482 40.3101 69.6699C37.2848 70.8729 34.5168 71.3754 30.7504 71.3754C27.226 71.3754 22.6882 70.5683 19.9958 69.7612C13.8395 67.949 7.10837 62.147 3.47812 59.0404C2.87308 58.5227 2.34367 58.0506 1.92014 57.7155C2.19241 57.5176 2.49493 57.2891 2.84283 57.015C6.29157 54.4262 13.4462 49.0353 19.0428 46.6293C22.7336 44.878 25.9857 44.1013 29.5403 44.1013C33.6697 44.1013 38.3134 45.0455 41.142 46.477C42.3369 47.0709 43.789 47.9389 45.5134 49.0658C45.4983 48.9897 45.4832 48.9135 45.468 48.8374C45.468 48.8374 45.468 48.8374 45.4832 48.8374C45.4075 48.5328 45.3622 48.1978 45.2865 47.8932C45.2411 47.6496 45.2411 47.3907 45.3168 47.1775C45.3319 47.1318 45.347 47.0861 45.3622 47.0556C45.226 46.9643 45.0899 46.8881 44.9689 46.7968C43.9252 46.1267 43.0479 45.5328 42.2159 45.1826C38.9487 43.5379 34.2445 42.5176 29.9336 42.5176C25.6983 42.5176 21.7353 43.4008 18.7554 44.9998C11.2075 48.3957 0.861315 56.4211 0.543668 56.7409C0.362155 56.9237 0.150391 57.1369 0.150391 57.5633C0.150391 57.7765 0.150391 58.1724 0.377281 58.3856C0.483164 58.4922 10.905 68.68 20.1924 71.4364C23.3084 72.3501 27.1353 72.8983 30.6445 72.8983C32.7924 72.8983 36.9369 72.6851 40.5672 71.2688C42.1252 70.7511 44.6664 69.3501 46.7084 67.8881L46.7689 67.8424L46.7386 65.7409Z" fill="#46433E"/>
<path d="M45.725 52.8725C45.725 52.7659 45.7402 52.6593 45.7704 52.5679C43.3049 50.8623 40.3704 48.8978 38.4343 48.0907C36.1351 47.04 32.9284 46.4004 29.8729 46.4004C27.0444 46.4004 24.4427 46.9029 22.325 47.908C17.1822 50.4207 12.2813 53.9841 12.0696 54.2126C11.8578 54.4258 11.7519 54.6694 11.767 54.9131C11.767 55.1415 11.8729 55.3547 12.0696 55.5222C12.1755 55.6288 12.2813 55.6593 12.4175 55.6593C12.7654 55.6593 13.204 55.3547 13.6276 55.0654L13.6881 55.0197C13.7032 55.0044 15.7149 53.7405 19.4208 51.3192C18.483 52.8725 18.12 55.0654 18.12 56.71C18.12 63.4715 23.5805 68.9689 30.2965 68.9689C37.0124 68.9689 42.4729 63.4715 42.4729 56.71C42.4729 55.2024 42.0645 53.04 41.3082 51.6237C42.6393 52.4765 44.2276 53.5425 45.5586 54.441C45.6645 54.4867 45.7704 54.5628 45.8763 54.639C45.8763 54.5324 45.8612 54.3953 45.846 54.2887C45.8007 53.8319 45.7553 53.375 45.725 52.9029C45.7099 52.8877 45.7099 52.8725 45.725 52.8725C45.7099 52.8725 45.7099 52.8725 45.725 52.8725ZM30.2511 67.4308C24.6091 67.4308 19.678 62.4816 19.678 56.8319C19.678 54.3344 20.6158 51.6999 22.1889 49.7811C22.3553 49.6897 23.2175 49.2633 23.6107 49.1263C25.5771 48.3496 27.7402 47.9537 30.0393 47.9537C32.883 47.9537 35.7418 48.5781 38.0712 49.6897C38.404 49.842 38.525 49.9791 38.525 49.9791C40.1435 51.9892 41.0057 54.4258 41.0057 57.0298C40.446 62.9537 35.8326 67.4308 30.2511 67.4308Z" fill="#46433E"/>
<path d="M30.2829 52.2188C28.135 52.2188 26.3652 53.97 26.3652 56.1629C26.3652 58.2187 28.2257 60.1071 30.2829 60.1071C32.4459 60.1071 34.2157 58.3406 34.2005 56.1629C34.2005 54.1071 32.3249 52.2188 30.2829 52.2188ZM30.2829 53.8786C31.3568 53.8786 32.5367 54.838 32.5215 56.1477C32.5215 57.4878 31.372 58.4015 30.2829 58.4015H30.2678C29.7232 58.4015 29.1333 58.1274 28.6946 57.6858C28.2711 57.2441 28.0442 56.6959 28.0442 56.1325C28.0442 54.8533 29.0274 53.8786 30.2829 53.8786Z" fill="#46433E"/>
<path d="M15.1871 43.3399C15.3232 43.5531 15.535 43.6597 15.8072 43.6597C15.9434 43.6597 16.1098 43.614 16.2308 43.5531C16.6089 43.279 16.7299 42.9135 16.5333 42.4871L13.4022 37.5227C13.2358 37.2333 12.9787 37.0811 12.7064 37.0811C12.5703 37.0811 12.419 37.1267 12.298 37.2029C11.8442 37.4618 11.7686 37.8425 12.0409 38.3907L15.1871 43.3399Z" fill="#46433E"/>
<path d="M11.2999 45.9737C11.436 46.1869 11.6478 46.2935 11.92 46.2935C12.0562 46.2935 12.2225 46.2631 12.3436 46.1869C12.7217 45.9128 12.8427 45.5473 12.6461 45.1209L9.49986 40.1565C9.33347 39.8671 9.07633 39.7148 8.80406 39.7148C8.66792 39.7148 8.51666 39.7605 8.39565 39.8367C7.94187 40.0956 7.86624 40.4763 8.13851 41.0245L11.2999 45.9737Z" fill="#46433E"/>
<path d="M7.41264 48.5024C7.54877 48.7156 7.76054 48.8222 8.03281 48.8222C8.18407 48.8222 8.33533 48.7766 8.45634 48.7156C8.83449 48.4415 8.95549 48.076 8.75886 47.6497L5.59751 42.7004C5.43113 42.4111 5.17398 42.2588 4.90171 42.2588C4.76558 42.2588 4.61432 42.3045 4.49331 42.3806C4.03953 42.6395 3.9639 43.0202 4.23617 43.5684L7.41264 48.5024Z" fill="#46433E"/>
<path d="M3.47904 51.4413C3.61518 51.6545 3.82694 51.7611 4.09921 51.7611C4.25047 51.7611 4.40173 51.7154 4.52274 51.6545C4.90089 51.3804 5.0219 51.0149 4.82526 50.5885L1.66392 45.6545C1.49753 45.3652 1.24039 45.2129 0.96812 45.2129C0.831985 45.2129 0.680725 45.2586 0.559716 45.3347C0.105935 45.5936 0.0303045 45.9743 0.302573 46.5225L3.47904 51.4413Z" fill="#46433E"/>
<path d="M88.6681 27.3354C87.9572 26.4674 86.9589 26.041 85.8244 26.041H63.6194C62.4849 26.041 61.5017 26.4674 60.7757 27.3354C60.0647 28.0512 59.7773 29.0562 59.7773 30.1984L62.4698 72.9141V73.0512L65.3286 80.6502C65.4647 80.9395 65.616 81.0766 65.8883 81.0766H66.7353V88.2339C66.7353 89.376 67.7336 90.2441 68.732 90.2441H81.2715C82.2698 90.2441 83.1168 89.3913 83.1017 88.2339V81.0766H83.8278C84.1152 81.0766 84.4025 80.772 84.4025 80.6349L86.9589 73.0359V72.8989L89.6664 30.1831C89.8177 29.2085 89.3941 28.2035 88.6681 27.3354ZM61.9404 28.3101C62.5 27.7314 63.1958 27.6095 63.9068 27.6095L85.537 27.5029C86.2479 27.5029 86.8681 27.9446 87.4429 28.508C88.0177 29.0715 88.0479 29.7872 88.0479 30.5029L87.0194 47.8329C86.7925 47.6806 86.5353 47.5892 86.2631 47.5436H86.1269C85.7034 47.5436 85.5824 47.574 85.295 47.7111C85.1286 41.1628 80.3034 40.371 76.0227 40.0969C73.0278 39.7923 70.3202 39.5182 69.3219 37.0816C69.3219 36.9446 69.1706 36.7314 69.0194 36.7314C68.8681 36.7314 68.7925 36.7314 68.5958 36.7923C63.8916 38.6502 63.7555 44.3913 64.0429 47.6806C63.7404 47.5436 63.6042 47.5436 63.332 47.5436H63.1958C62.9236 47.574 62.6815 47.6502 62.4547 47.8024L61.411 30.4116C61.3656 29.6958 61.3807 28.8735 61.9404 28.3101ZM62.5605 49.5689C62.7572 49.1882 63.0446 48.9903 63.3925 48.9903C63.695 48.9903 64.1185 48.8989 64.421 49.4014C64.5874 49.6908 65.0261 49.8278 65.3437 49.7517C65.7219 49.6146 66.0395 49.2644 65.979 48.9141C65.5555 46.904 64.421 41.0106 68.5505 38.4522C69.8513 41.1933 72.8462 41.0562 75.8412 41.3456C80.1068 41.7872 83.9336 42.1222 83.9941 49.2796C83.9941 49.5689 84.1303 49.843 84.4177 49.843C84.5538 49.843 85.0681 49.7364 85.2042 49.4623C85.6278 48.8989 85.8547 49.0359 86.3236 49.0816C86.5656 49.1121 86.7773 49.1882 86.9437 49.2948L86.7168 53.2085C86.4294 53.7263 86.0815 53.97 85.8093 54.0156C85.3706 54.0918 85.0076 53.7872 84.5387 53.9852C84.0244 54.1984 83.9639 54.6857 83.9639 54.8227C83.253 60.3963 79.0631 64.2491 74.2227 64.1882C69.7908 64.1121 65.9336 60.3354 65.2227 54.7466C65.2227 54.6095 64.8143 53.9243 64.1488 54.0461C63.6647 54.1375 63.1202 53.6958 62.7572 52.9649L62.5605 49.5689ZM80.8479 88.6908H69.2916C68.8832 88.6908 68.2933 88.4776 68.2479 87.6705H72.1505H78.1252H81.5589V87.8227C81.574 88.2644 81.2715 88.6908 80.8479 88.6908ZM77.1572 86.2085H73.1639V85.5232H77.1572V86.2085ZM81.574 86.2085H78.7V84.5334C78.7 84.2441 78.4126 83.97 78.1404 83.97H72.1505C71.8631 83.97 71.5908 84.2593 71.5908 84.5334V86.2085H68.2631V81.0918H81.5891L81.574 86.2085ZM83.3437 79.5385L66.3572 79.6146L63.937 72.5486L62.8933 55.2339C63.211 55.4471 63.5437 55.5689 63.8916 55.5689C64.7538 61.4471 69.3068 65.7567 74.4345 65.7567C79.7135 65.7567 84.4025 61.3101 85.4009 55.4319H85.537C85.9 55.4319 86.2479 55.3101 86.5807 55.0664L85.537 72.5943L83.3437 79.5385Z" fill="#46433E"/>
<path d="M75.4487 53.1629C75.6 53.4522 75.842 53.635 76.1294 53.6502C76.6285 53.6654 76.8554 53.1324 76.689 52.8278L76.2655 51.2593C76.2655 51.2593 76.1294 47.9548 76.1294 47.6806C76.1294 47.3913 75.842 47.1172 75.5697 47.1172C75.2823 47.1172 74.7227 47.4979 74.7227 47.7872C74.7227 47.9243 74.9344 50.7568 74.9344 51.4877L75.4487 53.1629Z" fill="#46433E"/>
<path d="M77.7166 58.8581C75.4325 58.9952 72.1804 58.919 71.7569 58.919C71.4695 58.782 70.9401 58.4926 70.6527 58.2033C70.3199 57.8073 69.2157 58.5078 69.8813 59.1322C70.0174 59.2693 70.8494 59.9545 71.2729 60.0916C71.409 60.0916 71.409 60.0916 72.1351 60.0916C72.9821 60.0916 74.4494 59.985 77.7166 59.985C78.004 59.985 78.2762 59.6957 78.2762 59.4216C78.2762 59.1474 77.9888 58.8581 77.7166 58.8581Z" fill="#46433E"/>
<path d="M67.4325 46.98C67.4325 46.98 67.6897 46.5536 69.3233 46.4318C71.0325 46.2947 71.8342 46.9648 71.8342 46.9648C71.9704 47.2694 72.3636 47.0562 72.651 46.9039C72.9384 46.7668 72.893 46.3861 72.7569 46.0968C72.7569 46.0968 71.8947 44.6653 69.3384 44.9546C67.0544 45.0917 66.3435 46.249 66.3435 46.3861C66.2376 47.2846 67.2813 47.1171 67.4325 46.98Z" fill="#46433E"/>
<path d="M73.8752 55.9953C74.1626 55.9953 74.8584 55.706 75.1761 55.5689C75.4635 55.4166 75.5996 55.1273 75.4635 54.8532C75.3273 54.5638 74.9643 54.3354 74.6769 54.4725C74.2382 54.777 73.8601 54.8227 73.724 54.8227C73.4366 54.8227 73.3307 55.2948 73.3307 55.5689C73.3156 55.843 73.5878 55.9953 73.8752 55.9953Z" fill="#46433E"/>
<path d="M76.7949 46.7213C77.0823 46.8583 77.4755 47.0563 77.6117 46.7822C77.6117 46.7822 78.4134 46.0969 80.1226 46.2492C81.7562 46.3862 82.0134 46.7974 82.0134 46.7974C82.1495 46.9345 83.1932 47.0867 83.1176 46.2035C83.1176 46.0664 82.4066 44.9091 80.1226 44.772C77.5663 44.4827 76.7041 45.9141 76.7041 45.9141C76.5528 46.2035 76.5226 46.5842 76.7949 46.7213Z" fill="#46433E"/>
<path d="M70.0781 49.2642C70.5041 49.2642 70.8495 48.9165 70.8495 48.4876C70.8495 48.0587 70.5041 47.7109 70.0781 47.7109C69.652 47.7109 69.3066 48.0587 69.3066 48.4876C69.3066 48.9165 69.652 49.2642 70.0781 49.2642Z" fill="#46433E"/>
<path d="M79.6386 49.5386C80.0647 49.5386 80.41 49.1909 80.41 48.762C80.41 48.3331 80.0647 47.9854 79.6386 47.9854C79.2126 47.9854 78.8672 48.3331 78.8672 48.762C78.8672 49.1909 79.2126 49.5386 79.6386 49.5386Z" fill="#46433E"/>
<path d="M16.8805 33.6697C7.83514 33.6697 0.46875 26.2535 0.46875 17.1469C0.46875 8.04027 7.82001 0.624023 16.8805 0.624023C25.941 0.624023 33.2923 8.04027 33.2923 17.1469C33.2923 26.2535 25.9259 33.6697 16.8805 33.6697ZM16.8805 2.14687C8.66707 2.14687 1.98135 8.87783 1.98135 17.1469C1.98135 25.4159 8.66707 32.1469 16.8805 32.1469C25.094 32.1469 31.7797 25.4159 31.7797 17.1469C31.7797 8.87783 25.094 2.14687 16.8805 2.14687Z" fill="#C65049"/>
<path d="M8.40902 26.3913C8.21238 26.3913 8.01574 26.3152 7.87961 26.1629C7.59221 25.8583 7.59221 25.3862 7.87961 25.0817L24.7754 8.14767C25.0779 7.85833 25.5468 7.85833 25.8494 8.14767C26.1368 8.45224 26.1368 8.92432 25.8494 9.22889L8.95356 26.1629C8.8023 26.3152 8.60566 26.3913 8.40902 26.3913Z" fill="#C65049"/>
<path d="M25.2736 26.4216C25.077 26.4216 24.8803 26.3454 24.7442 26.1931L7.90891 9.18299C7.62151 8.87842 7.62151 8.40634 7.90891 8.10177C8.21143 7.81243 8.68033 7.81243 8.98286 8.10177L25.8181 25.1272C26.1055 25.4317 26.1055 25.9038 25.8181 26.2084C25.6669 26.3454 25.4702 26.4216 25.2736 26.4216Z" fill="#C65049"/>
</g>
<defs>
<clipPath id="clip0_3672_30571">
<rect width="90" height="90" fill="white"/>
</clipPath>
</defs>
</svg>
