<svg width="90" height="90" viewBox="0 0 90 90" fill="none" xmlns="http://www.w3.org/2000/svg">
<path d="M73.15 39.0991C64.1047 39.0991 56.7383 32.2076 56.7383 23.7454C56.7383 15.2831 64.0895 8.3916 73.15 8.3916C82.2106 8.3916 89.5618 15.2831 89.5618 23.7454C89.5618 32.2076 82.1954 39.0991 73.15 39.0991ZM73.15 9.8067C64.9366 9.8067 58.2509 16.0614 58.2509 23.7454C58.2509 31.4293 64.9366 37.6841 73.15 37.6841C81.3635 37.6841 88.0492 31.4293 88.0492 23.7454C88.0492 16.0614 81.3635 9.8067 73.15 9.8067Z" fill="#C65049"/>
<path d="M64.6786 32.3342C64.4819 32.3342 64.2853 32.2634 64.1491 32.1219C63.8617 31.8389 63.8617 31.4002 64.1491 31.1172L81.0449 15.3813C81.3475 15.1125 81.8164 15.1125 82.1189 15.3813C82.4063 15.6644 82.4063 16.103 82.1189 16.3861L65.2231 32.1219C65.0718 32.2634 64.8752 32.3342 64.6786 32.3342Z" fill="#C65049"/>
<path d="M81.5431 32.3629C81.3465 32.3629 81.1499 32.2922 81.0137 32.1507L64.1784 16.3441C63.891 16.061 63.891 15.6224 64.1784 15.3393C64.481 15.0705 64.9499 15.0705 65.2524 15.3393L82.0877 31.1601C82.3751 31.4431 82.3751 31.8818 82.0877 32.1648C81.9364 32.2922 81.7398 32.3629 81.5431 32.3629Z" fill="#C65049"/>
<path d="M11.828 30.8352C10.996 30.5381 10.3305 29.9437 9.96745 29.1796C9.5893 28.4154 9.5893 27.5664 9.90695 26.7739L13.1288 18.9343C13.7641 17.3777 15.791 16.5145 17.47 17.123C19.2095 17.7456 20.0717 19.5711 19.4061 21.1843L16.1843 29.0381C15.6851 30.2267 14.4145 31.0475 13.038 31.0475C12.6145 31.0475 12.2061 30.9626 11.828 30.8352ZM14.5204 19.4154L11.2985 27.255C11.117 27.6937 11.1322 28.1748 11.3439 28.5994C11.5557 29.0381 11.9036 29.3635 12.3876 29.5333C12.5994 29.6041 12.8263 29.6465 13.0532 29.6465C13.8246 29.6465 14.5355 29.1937 14.8078 28.5145L18.0296 20.6748C18.4078 19.7692 17.9086 18.7645 16.9557 18.4107C16.7439 18.3399 16.517 18.2975 16.2901 18.2975C15.5036 18.3116 14.7927 18.7503 14.5204 19.4154Z" fill="#45423D"/>
<path d="M16.4564 25.7691L11.9035 23.604C11.5253 23.42 11.374 23.0096 11.5707 22.67C11.7673 22.3162 12.206 22.1889 12.569 22.3587L17.1219 24.5238C17.5001 24.7078 17.6514 25.1181 17.4547 25.4578C17.3337 25.7125 17.0614 25.8398 16.7892 25.8398C16.6833 25.8398 16.5774 25.8115 16.4564 25.7691Z" fill="#45423D"/>
<path d="M1.31641 40.9386C1.31641 38.165 3.73657 35.915 6.68615 35.915C9.65086 35.915 12.0559 38.165 12.0559 40.9386C12.0559 43.7122 9.63573 45.9622 6.68615 45.9622C3.72145 45.9622 1.31641 43.7122 1.31641 40.9386ZM2.81389 40.9386C2.81389 42.9339 4.55338 44.5613 6.68615 44.5613C8.81893 44.5613 10.5584 42.9339 10.5584 40.9386C10.5584 38.9433 8.81893 37.316 6.68615 37.316C4.55338 37.3301 2.81389 38.9433 2.81389 40.9386Z" fill="#45423D"/>
<path d="M3.0852 43.3306C2.84318 43.0193 2.91881 42.5806 3.25158 42.3542L9.68015 37.9674C10.0129 37.7551 10.4818 37.8117 10.7239 38.123C10.9659 38.4344 10.8902 38.873 10.5575 39.0995L4.12889 43.4863C3.99276 43.5853 3.8415 43.6136 3.69024 43.6136C3.46335 43.6278 3.22133 43.5287 3.0852 43.3306Z" fill="#45423D"/>
<path d="M62.9395 74.6181L54.1664 72.8209C53.3042 72.6369 52.5328 72.1416 52.0639 71.4341C51.5799 70.7265 51.4135 69.8775 51.6101 69.0567C51.9883 67.4011 53.8336 66.2973 55.6034 66.6511L64.3765 68.4483C66.1916 68.802 67.3412 70.5001 66.9479 72.1841C66.6151 73.6133 65.2235 74.6605 63.6504 74.6605C63.3933 74.6747 63.1664 74.6464 62.9395 74.6181ZM53.0471 69.3398C52.9563 69.7926 53.032 70.2737 53.3193 70.6558C53.5916 71.0379 54.0151 71.3209 54.4841 71.4199L63.2572 73.2171C64.2555 73.4294 65.2538 72.8067 65.4807 71.8869C65.7076 70.9388 65.0723 70.019 64.0588 69.8067L55.2857 68.0096C55.1496 67.9813 55.0286 67.9671 54.8925 67.9671C54 67.9813 53.2286 68.5615 53.0471 69.3398Z" fill="#45423D"/>
<path d="M58.3559 73.6559C57.9626 73.5427 57.7509 73.1465 57.8719 72.7785L59.4601 68.2502C59.5811 67.8823 60.0046 67.6842 60.3979 67.7974C60.7912 67.9106 61.003 68.3068 60.8819 68.6748L59.2937 73.2031C59.1878 73.4861 58.9004 73.6842 58.5828 73.6842C58.492 73.6842 58.4164 73.6842 58.3559 73.6559Z" fill="#45423D"/>
<path d="M67.8105 62.3205C67.5987 60.9903 67.9466 59.6743 68.7937 58.5988C69.6256 57.5234 70.8811 56.8158 72.303 56.6177C75.2828 56.1932 77.9752 58.1036 78.4139 60.8064C78.6256 62.1366 78.2777 63.4526 77.4307 64.5281C76.5987 65.6036 75.3433 66.3111 73.9214 66.5092C73.6492 66.5517 73.3618 66.5658 73.0895 66.5658C70.4273 66.58 68.2038 64.797 67.8105 62.3205ZM72.4845 58.0045C71.471 58.146 70.5635 58.6696 69.9584 59.4337C69.3534 60.212 69.0962 61.1602 69.2475 62.1224C69.5803 64.0469 71.5315 65.4337 73.6643 65.1366C74.6777 64.9951 75.5853 64.4715 76.1903 63.7073C76.7954 62.929 77.0525 61.9809 76.9013 61.0186C76.629 59.2781 74.9803 57.962 73.0895 57.962C72.908 57.962 72.7114 57.962 72.4845 58.0045Z" fill="#45423D"/>
<path d="M75.1159 64.5281L69.489 59.2498C69.2016 58.9668 69.2016 58.5281 69.489 58.2593C69.7915 57.9904 70.2604 57.9904 70.5478 58.2593L76.1596 63.5376C76.447 63.8206 76.447 64.2593 76.1596 64.5281C76.0234 64.6696 75.8268 64.7404 75.6302 64.7404C75.4486 64.7404 75.2671 64.6696 75.1159 64.5281Z" fill="#45423D"/>
<path d="M17.3203 80.873V60.057C17.3203 56.9862 19.9371 54.5381 23.2195 54.5381H40.1153C43.3976 54.5381 46.0144 56.9862 46.0144 60.057V80.8588C46.0144 83.9296 43.3976 86.3777 40.1153 86.3777H23.2043C19.9371 86.3777 17.3203 83.9154 17.3203 80.873ZM40.1153 56.2362H23.2043C20.7539 56.2362 18.9539 58.0617 18.9539 60.2126V81.0145C18.9539 83.3069 20.8749 84.906 23.159 84.906H40.0548C42.5052 84.906 44.3506 83.1654 44.3506 81.0145V60.1985C44.3657 57.9202 42.3993 56.2362 40.1153 56.2362Z" fill="#45423D"/>
<path d="M17.1074 48.9337V47.0092C17.1074 45.2544 18.6352 43.8252 20.5108 43.8252H42.8066C44.6822 43.8252 46.2099 45.2544 46.2099 47.0092V48.9337C46.2099 50.6884 44.6822 52.1176 42.8066 52.1176H20.5108C18.62 52.1176 17.1074 50.6884 17.1074 48.9337ZM20.5108 45.3676C19.5427 45.3676 18.7562 46.1035 18.7562 47.0092V48.9195C18.7562 49.8252 19.5427 50.561 20.5108 50.561H42.8066C43.7746 50.561 44.5612 49.8252 44.5612 48.9195V46.995C44.5612 46.0893 43.7746 45.3535 42.8066 45.3535H20.5108V45.3676Z" fill="#414141"/>
<path d="M39.4939 50.6885H37.709V56.0517H39.4939V50.6885Z" fill="#45423D"/>
<path d="M25.5466 50.8018H23.7617V56.165H25.5466V50.8018Z" fill="#45423D"/>
<path d="M44.8641 64.6416H18.3633V66.3114H44.8641V64.6416Z" fill="#45423D"/>
<path d="M44.788 77.915H18.2871V79.5849H44.788V77.915Z" fill="#45423D"/>
<path d="M23.8543 28.7688C26.5014 27.5094 29.7232 28.5141 31.0694 30.9764C32.4156 33.4528 31.3568 36.4669 28.7098 37.7264C26.0627 38.9858 22.8409 37.9811 21.4946 35.5188C20.1484 33.0424 21.2072 30.0283 23.8543 28.7688ZM24.535 30.0283C22.6442 30.9198 21.8728 33.1132 22.8409 34.882C23.7938 36.6509 26.1383 37.3726 28.0291 36.4669C29.9198 35.5754 30.6913 33.382 29.7232 31.6132C28.7551 29.8301 26.4257 29.1226 24.535 30.0283Z" fill="#45423D"/>
<path d="M22.355 31.3299C22.5365 30.9761 22.9903 30.8629 23.3684 31.0327L30.4474 34.4148C30.8104 34.5987 30.9466 35.0091 30.765 35.3629C30.5835 35.7166 30.1297 35.8299 29.7516 35.66L22.6877 32.278C22.5365 32.2072 22.4306 32.094 22.3701 31.9666C22.2491 31.7685 22.2491 31.528 22.355 31.3299Z" fill="#45423D"/>
</svg>
