<svg width="90" height="90" viewBox="0 0 90 90" fill="none" xmlns="http://www.w3.org/2000/svg">
<g clip-path="url(#clip0_3672_33823)">
<path d="M63.9985 85.4706H33.5649C33.217 85.4706 32.9296 85.2493 32.8388 84.9247C32.7783 84.7034 26.7279 62.882 25.5329 57.4673C24.1867 51.4624 36.1968 46.8443 36.7111 46.6525C36.8018 46.623 36.8926 46.6083 36.9833 46.6083L59.264 46.4902C59.3699 46.4902 59.4607 46.505 59.5514 46.5493C59.6876 46.6083 63.0002 47.9361 66.1918 49.8689C70.7296 52.6279 72.696 55.1952 72.0455 57.5115C71.0775 60.787 64.8002 84.6886 64.7397 84.9247C64.6489 85.2493 64.3464 85.4706 63.9985 85.4706ZM34.1548 83.9952H63.4237C64.3766 80.3656 69.701 60.123 70.5934 57.0984C71.4254 54.1329 64.059 49.9427 59.1279 47.9509L37.1497 48.0689C33.9128 49.323 26.1531 53.2329 27.0304 57.1427C28.1044 62.0558 33.2018 80.5722 34.1548 83.9952Z" fill="#45423D"/>
<path d="M58.5074 47.8325H37.3914C36.8469 47.8325 36.4082 47.4047 36.4082 46.8735V40.1309C36.4082 39.5997 36.8469 39.1719 37.3914 39.1719H58.5225C59.067 39.1719 59.5057 39.5997 59.5057 40.1309V46.8735C59.5057 47.4047 59.0519 47.8325 58.5074 47.8325ZM37.9057 46.3571H57.978V40.6325H37.9057V46.3571Z" fill="#45423D"/>
<path d="M54.0148 40.6622H41.8383C41.4148 40.6622 41.082 40.3376 41.082 39.9245V28.5933C41.082 27.9589 41.6114 27.4277 42.277 27.4277H53.5761C54.2266 27.4277 54.7711 27.9441 54.7711 28.5933V39.9245C54.7711 40.3228 54.4383 40.6622 54.0148 40.6622ZM42.6098 39.1868H53.2736V28.9031H42.6098V39.1868Z" fill="#45423D"/>
<path d="M48.1762 62.9114C47.7527 62.9114 47.4199 62.5868 47.4199 62.1737V46.977C47.4199 46.5638 47.7527 46.2393 48.1762 46.2393C48.5998 46.2393 48.9325 46.5638 48.9325 46.977V62.1737C48.9325 62.5868 48.5998 62.9114 48.1762 62.9114Z" fill="#45423D"/>
<path d="M56.9951 66.0096C56.7985 66.0096 56.617 66.0096 56.4203 65.9948C53.743 65.8768 51.2775 64.6375 48.6758 63.3391C45.6506 61.8194 42.5044 60.2407 38.5262 60.0637C31.4775 59.7391 28.8607 64.5932 28.7548 64.7997C28.5733 65.1686 28.1195 65.3014 27.7414 65.1243C27.3632 64.9473 27.2119 64.5047 27.4086 64.1358C27.5296 63.8997 30.5397 58.2047 38.6019 58.5883C42.9128 58.7948 46.3464 60.5063 49.3716 62.026C51.822 63.2506 54.1363 64.4161 56.496 64.5194C60.2321 64.6817 65.3598 62.9702 68.022 61.967C64.2708 60.6981 55.3918 58.2342 48.8119 60.6096C48.4187 60.7571 47.98 60.5506 47.8439 60.167C47.6926 59.7834 47.9044 59.3555 48.2977 59.2227C57.3582 55.9473 69.8674 61.0375 70.3968 61.2588C70.6691 61.3768 70.8506 61.6424 70.8657 61.9375C70.8657 62.2325 70.6993 62.4981 70.4119 62.6161C70.064 62.7637 62.5464 66.0096 56.9951 66.0096Z" fill="#45423D"/>
<path d="M27.8762 30.3496C27.7552 30.3496 27.6191 30.3201 27.5132 30.2611L19.1183 25.6725C18.7552 25.4807 18.6191 25.0234 18.8309 24.6693C19.0275 24.3152 19.4964 24.1824 19.8594 24.3889L28.2544 28.9775C28.6174 29.1693 28.7535 29.6266 28.5418 29.9807C28.4056 30.2168 28.1485 30.3496 27.8762 30.3496Z" fill="#45423D"/>
<path d="M19.392 41.9017C19.1198 41.9017 18.8626 41.769 18.7265 41.5181C18.5298 41.164 18.6509 40.7067 19.0139 40.5149L27.4088 35.9263C27.7719 35.7345 28.2408 35.8526 28.4374 36.2067C28.634 36.5608 28.513 37.0181 28.15 37.2099L19.7551 41.7985C19.6492 41.8722 19.513 41.9017 19.392 41.9017Z" fill="#45423D"/>
<path d="M27.9681 33.6981H17.395C16.9714 33.6981 16.6387 33.3735 16.6387 32.9604C16.6387 32.5472 16.9714 32.2227 17.395 32.2227H27.9681C28.3916 32.2227 28.7244 32.5472 28.7244 32.9604C28.7244 33.3735 28.3916 33.6981 27.9681 33.6981Z" fill="#45423D"/>
<path d="M16.1399 23.6211C16.0189 23.6211 15.8828 23.5916 15.7769 23.5326L7.38193 18.944C7.0189 18.7522 6.88277 18.2948 7.09453 17.9407C7.29117 17.5867 7.76008 17.4539 8.1231 17.6604L16.5181 22.2489C16.8811 22.4407 17.0172 22.8981 16.8055 23.2522C16.6542 23.4883 16.3971 23.6211 16.1399 23.6211Z" fill="#45423D"/>
<path d="M13.22 33.7576H2.64693C2.2234 33.7576 1.89062 33.433 1.89062 33.0199C1.89062 32.6068 2.2234 32.2822 2.64693 32.2822H13.22C13.6436 32.2822 13.9763 32.6068 13.9763 33.0199C13.9763 33.433 13.6284 33.7576 13.22 33.7576Z" fill="#45423D"/>
<path d="M6.98969 48.4818C6.71742 48.4818 6.46028 48.349 6.32414 48.0982C6.1275 47.7441 6.24851 47.2867 6.61154 47.0949L15.0065 42.5064C15.3695 42.3146 15.8384 42.4326 16.0351 42.7867C16.2317 43.1408 16.1107 43.5982 15.7477 43.79L7.35271 48.3933C7.2317 48.4523 7.1107 48.4818 6.98969 48.4818Z" fill="#45423D"/>
<path d="M46.8005 34.0379H45.7719C45.3484 34.0379 45.0156 33.7133 45.0156 33.3002C45.0156 32.8871 45.3484 32.5625 45.7719 32.5625H46.8005C47.224 32.5625 47.5568 32.8871 47.5568 33.3002C47.5568 33.7133 47.224 34.0379 46.8005 34.0379Z" fill="#45423D"/>
<path d="M35.8493 79.5252C35.5165 79.5252 35.1989 79.3039 35.1233 78.9646L31.977 66.6597C31.8712 66.2613 32.1283 65.8629 32.5216 65.7597C32.93 65.6564 33.3384 65.9072 33.4443 66.2908L36.5905 78.5957C36.6964 78.9941 36.4392 79.3924 36.046 79.4957C35.9703 79.5105 35.9098 79.5252 35.8493 79.5252Z" fill="#45423D"/>
<path d="M73.6344 33.2555C64.5739 33.2555 57.2227 26.0703 57.2227 17.2621C57.2227 8.45391 64.5739 1.25391 73.6344 1.25391C82.6949 1.25391 90.0462 8.43915 90.0462 17.2621C90.0462 26.0851 82.6798 33.2555 73.6344 33.2555ZM73.6344 2.72932C65.421 2.72932 58.7353 9.25063 58.7353 17.2621C58.7353 25.2736 65.421 31.7949 73.6344 31.7949C81.8479 31.7949 88.5336 25.2736 88.5336 17.2621C88.5336 9.25063 81.8479 2.72932 73.6344 2.72932Z" fill="#C65049"/>
<path d="M65.1629 26.2031C64.9663 26.2031 64.7696 26.1294 64.6335 25.9818C64.3461 25.6868 64.3461 25.2294 64.6335 24.9343L81.5293 8.51298C81.8318 8.23265 82.3007 8.23265 82.6033 8.51298C82.8907 8.80806 82.8907 9.26544 82.6033 9.56052L65.7075 25.9818C65.5562 26.1294 65.3596 26.2031 65.1629 26.2031Z" fill="#C65049"/>
<path d="M82.0275 26.2328C81.8309 26.2328 81.6342 26.159 81.4981 26.0114L64.6628 9.54587C64.3754 9.25079 64.3754 8.79341 64.6628 8.49833C64.9653 8.218 65.4342 8.218 65.7368 8.49833L82.5721 24.9787C82.8595 25.2737 82.8595 25.7311 82.5721 26.0262C82.4208 26.159 82.2242 26.2328 82.0275 26.2328Z" fill="#C65049"/>
</g>
<defs>
<clipPath id="clip0_3672_33823">
<rect width="90" height="90" fill="white"/>
</clipPath>
</defs>
</svg>
