<svg width="90" height="90" viewBox="0 0 90 90" fill="none" xmlns="http://www.w3.org/2000/svg">
<g clip-path="url(#clip0_3681_12780)">
<path d="M53.9536 15.9061C45.9822 15.9061 39.2511 10.3306 38.3133 2.92967C38.2679 2.54759 38.5553 2.19382 38.9788 2.13721C39.3873 2.09476 39.7654 2.36363 39.8259 2.75986C40.673 9.45325 46.7385 14.491 53.9536 14.491C61.0478 14.491 67.1133 9.53816 68.0511 2.97212C68.1116 2.59004 68.4898 2.30703 68.8982 2.36363C69.3066 2.42023 69.6091 2.77401 69.5486 3.15608C68.5049 10.4297 61.8041 15.9061 53.9536 15.9061Z" fill="#46433E"/>
<path d="M64.1354 37.0472C63.8026 37.0472 63.5001 36.835 63.4093 36.5236L57.3589 15.3963C57.253 15.0142 57.495 14.6321 57.8883 14.5331C58.2967 14.434 58.7051 14.6604 58.811 15.0284L64.8614 36.1557C64.9673 36.5378 64.7253 36.9199 64.332 37.0189C64.2715 37.0331 64.1959 37.0472 64.1354 37.0472Z" fill="#46433E"/>
<path d="M75.751 37.2312C75.4939 37.2312 75.2367 37.1038 75.1006 36.8774L60.9577 14.0236C60.746 13.684 60.867 13.2595 61.23 13.0614C61.593 12.8632 62.0468 12.9764 62.2586 13.3161L76.4014 36.1698C76.6132 36.5095 76.4922 36.934 76.1291 37.1321C76.0081 37.2029 75.8871 37.2312 75.751 37.2312Z" fill="#46433E"/>
<path d="M89.2584 21.4955C89.1374 21.4955 89.0013 21.4672 88.8803 21.3965L66.6148 9.36818C66.2517 9.17006 66.1307 8.74553 66.3425 8.40591C66.5542 8.06629 67.008 7.95308 67.3711 8.1512L89.6366 20.1795C89.9996 20.3776 90.1206 20.8021 89.9089 21.1418C89.7727 21.3682 89.5156 21.4955 89.2584 21.4955Z" fill="#46433E"/>
<path d="M89.2893 35.0945C89.0927 35.0945 88.8961 35.0238 88.7599 34.8823L64.3011 12.0002C63.9986 11.7172 63.9986 11.2785 64.3011 10.9955C64.6036 10.7124 65.0725 10.7124 65.3751 10.9955L89.8339 33.8775C90.1364 34.1606 90.1364 34.5992 89.8339 34.8823C89.6826 35.0238 89.486 35.0945 89.2893 35.0945Z" fill="#46433E"/>
<path d="M89.1992 11.9292C89.1387 11.9292 89.0631 11.9151 89.0026 11.9009L68.295 6.72169C67.8866 6.62264 67.6446 6.22641 67.7656 5.85848C67.8715 5.47641 68.295 5.24999 68.6883 5.3632L89.3959 10.5424C89.8043 10.6415 90.0463 11.0377 89.9253 11.4057C89.8345 11.717 89.532 11.9292 89.1992 11.9292Z" fill="#46433E"/>
<path d="M75.434 52.5711C73.1046 52.5711 70.9113 51.8352 69.2625 50.4767C67.8709 49.3305 66.9482 47.8163 66.5852 46.1182C65.8592 46.3446 65.0575 46.3871 64.5281 46.3871C63.6054 46.3871 62.6978 46.2597 62.0172 46.0333C59.9449 45.3399 58.5382 43.6277 57.9029 41.0805H52.1852C49.9617 41.0805 48.2676 40.7409 48.2676 36.4107C48.2676 36.0144 48.6004 35.7031 49.0239 35.7031H89.1987C89.6071 35.7031 89.9398 36.0144 89.955 36.3965C89.955 36.6512 90.0609 42.6088 87.0356 45.5239C86.0676 46.4578 84.8726 46.9814 83.4961 47.0805C82.0743 49.8116 79.0491 52.5711 75.434 52.5711ZM67.2054 44.2927C67.2961 44.2927 67.3869 44.3069 67.4777 44.3352C67.7499 44.4343 67.9466 44.6748 67.9617 44.9578C68.1886 48.5522 71.3348 51.156 75.434 51.156C78.5499 51.156 81.1819 48.5522 82.3012 46.1324C82.4222 45.8777 82.6945 45.7078 82.997 45.7078C84.1768 45.7078 85.1298 45.3258 85.9466 44.5616C88.0037 42.5946 88.3667 38.7031 88.4272 37.1465H49.8104C49.8709 38.2786 50.0978 39.0569 50.476 39.3824C50.8088 39.6795 51.3533 39.6937 52.2004 39.6937H58.5382C58.9012 39.6937 59.2188 39.9343 59.2793 40.2739C59.7331 42.6512 60.8222 44.1512 62.5314 44.7173C63.0457 44.8871 63.802 44.9861 64.5432 44.9861C65.5264 44.9861 66.3583 44.8022 66.676 44.505C66.8121 44.3635 67.0088 44.2927 67.2054 44.2927Z" fill="#46433E"/>
<path d="M53.6977 36.566C53.2742 36.566 52.9414 36.2547 52.9414 35.8584V15.6226C52.9414 15.2264 53.2742 14.915 53.6977 14.915C54.1212 14.915 54.454 15.2264 54.454 15.6226V35.8584C54.454 36.2547 54.1212 36.566 53.6977 36.566Z" fill="#46433E"/>
<path d="M41.1426 45.099C41.0821 45.099 41.0065 45.0848 40.9459 45.0707C40.5375 44.9716 40.3107 44.5754 40.4165 44.2075L48.8266 14.8867C48.9325 14.5046 49.356 14.2924 49.7493 14.3914C50.1577 14.4905 50.3846 14.8867 50.2787 15.2546L41.8686 44.5754C41.7779 44.9009 41.4754 45.099 41.1426 45.099Z" fill="#46433E"/>
<path d="M26.9695 45.0565C26.8485 45.0565 26.7123 45.0282 26.5913 44.9575C26.2283 44.7594 26.1073 44.3348 26.319 43.9952L45.3779 13.1745C45.5896 12.8348 46.0434 12.7216 46.4064 12.9197C46.7695 13.1179 46.8905 13.5424 46.6787 13.882L27.6199 44.7028C27.4838 44.9292 27.2417 45.0565 26.9695 45.0565Z" fill="#46433E"/>
<path d="M8.80345 26.5332C8.54631 26.5332 8.28916 26.4058 8.15303 26.1794C7.94127 25.8398 8.06227 25.4153 8.4253 25.2171L40.2656 8.00959C40.6287 7.81148 41.0824 7.92469 41.2942 8.26431C41.506 8.60393 41.385 9.02846 41.0219 9.22657L9.1816 26.4341C9.06059 26.5049 8.92446 26.5332 8.80345 26.5332Z" fill="#46433E"/>
<path d="M15.02 38.0661C14.8233 38.0661 14.6267 37.9954 14.4906 37.8539C14.188 37.5708 14.188 37.1322 14.4906 36.8491L42.2771 10.8539C42.5796 10.5708 43.0485 10.5708 43.3511 10.8539C43.6536 11.1369 43.6536 11.5756 43.3511 11.8586L15.5494 37.868C15.4133 37.9954 15.2166 38.0661 15.02 38.0661Z" fill="#46433E"/>
<path d="M1.98143 15.9197C1.64866 15.9197 1.34614 15.7074 1.25538 15.3961C1.1495 15.014 1.39151 14.6319 1.78479 14.5329L38.9495 5.22155C39.3579 5.12249 39.7663 5.34891 39.8722 5.71683C39.9781 6.09891 39.7361 6.48098 39.3428 6.58004L2.17807 15.8914C2.11756 15.9055 2.04193 15.9197 1.98143 15.9197Z" fill="#46433E"/>
<path d="M56.1325 43.9248H1.8149C1.39137 43.9248 1.05859 44.2361 1.05859 44.6324C1.05859 45.0286 1.39137 45.3399 1.8149 45.3399H55.3157C55.0132 46.8965 53.7124 48.1701 52.1998 48.1701H44.304C43.9258 48.1701 43.593 48.439 43.5477 48.7927C42.9729 53.3493 40.2199 54.7503 38.6166 55.1748C37.0888 55.5852 34.9712 55.2031 34.0788 54.3682C33.867 54.1701 33.5494 54.1135 33.2771 54.2125C33.0048 54.3116 32.8082 54.5522 32.793 54.8352C32.6418 57.3399 31.4166 59.5191 29.5258 61.0191C29.8737 61.4012 30.0099 61.939 29.6771 62.5191C29.6166 62.604 29.5712 62.7031 29.5107 62.788C29.9947 62.4908 30.4636 62.1512 30.8872 61.7691C32.5964 60.2691 33.7309 58.3022 34.1393 56.1512C35.6216 56.8446 37.6031 56.9437 39.025 56.5616C40.9006 56.0522 44.0922 54.4248 44.9393 49.6135H52.1846C54.7258 49.6135 56.8888 47.3493 56.8888 44.6607C56.8888 44.2361 56.5561 43.9248 56.1325 43.9248Z" fill="#46433E"/>
<path d="M17.0329 85.6128C7.98748 85.6128 0.621094 78.7213 0.621094 70.259C0.621094 61.7968 7.98748 54.9053 17.0329 54.9053C26.0782 54.9053 33.4446 61.7968 33.4446 70.259C33.4446 78.7213 26.0782 85.6128 17.0329 85.6128ZM17.0329 56.3204C8.81941 56.3204 2.1337 62.5751 2.1337 70.259C2.1337 77.943 8.81941 84.1977 17.0329 84.1977C25.2463 84.1977 31.932 77.943 31.932 70.259C31.932 62.5751 25.2463 56.3204 17.0329 56.3204Z" fill="#D14A43"/>
<path d="M8.56136 78.8488C8.36473 78.8488 8.16809 78.7781 8.03195 78.6366C7.74456 78.3535 7.74456 77.9148 8.03195 77.6318L24.9278 61.896C25.2303 61.6271 25.6992 61.6271 26.0017 61.896C26.2891 62.179 26.2891 62.6177 26.0017 62.9007L9.1059 78.6366C8.95464 78.7781 8.758 78.8488 8.56136 78.8488Z" fill="#D14A43"/>
<path d="M25.426 78.8776C25.2293 78.8776 25.0327 78.8068 24.8965 78.6653L8.06125 62.8587C7.77385 62.5757 7.77385 62.137 8.06125 61.854C8.36377 61.5851 8.83268 61.5851 9.1352 61.854L25.9705 77.6748C26.2579 77.9578 26.2579 78.3965 25.9705 78.6795C25.8192 78.8068 25.6226 78.8776 25.426 78.8776Z" fill="#D14A43"/>
</g>
<defs>
<clipPath id="clip0_3681_12780">
<rect width="90" height="90" fill="white"/>
</clipPath>
</defs>
</svg>
