<svg width="90" height="90" viewBox="0 0 90 90" fill="none" xmlns="http://www.w3.org/2000/svg">
<g clip-path="url(#clip0_3672_30567)">
<path d="M66.4028 52.3269C65.465 52.3269 64.512 52.146 63.7557 51.95C62.2431 51.5731 60.549 49.8847 59.2179 48.5731C58.8398 48.1963 58.8398 47.744 59.2179 47.3822C59.5961 47.0053 60.0499 47.0807 60.428 47.4576C61.744 49.1611 63.2717 50.2917 64.028 50.4726C67.6734 51.3621 71.0616 50.0807 73.149 47.6234C74.8583 45.739 75.8717 43.1762 75.6902 40.7339C75.5087 38.2917 74.1776 36.0153 72.4835 34.3118C68.8986 31.1309 63.423 31.0254 59.581 34.9902C57.312 37.2515 57.0852 39.4676 56.707 41.5179C56.3742 44.1711 55.7994 46.8093 53.5457 48.4978C53.1675 48.8746 53.0162 48.5731 52.6381 48.1963C52.2599 47.8194 52.4566 47.2616 52.8196 46.8847C54.5289 45.5731 54.8919 44.0656 55.0885 41.8043C55.4667 39.3621 55.8448 36.543 58.2952 33.9048C62.4398 29.5932 69.2465 29.2013 73.7541 33.151C76.023 35.2164 77.1423 37.8545 77.3389 40.6736C77.5356 43.4927 76.4011 46.3118 74.6919 48.3922C72.2566 51.0153 69.428 52.3269 66.4028 52.3269Z" fill="#46433E"/>
<path d="M53.7734 47.2613L38.3146 33.7236C36.6054 32.2161 34.5482 32.0201 32.6575 33.1658L32.5213 33.2563L14.1734 45.196C12.1012 46.5075 11.1482 48.9498 12.1012 51.0302C12.6608 52.1457 13.6138 53.2915 14.9297 53.6683C16.4424 54.0452 17.7583 53.8492 18.8928 53.1106C23.8087 49.9146 31.523 45.0151 33.7919 44.8342C35.8642 44.6533 38.5113 48.0302 39.6457 49.9146C37.3768 51.6181 29.844 56.8643 24.5499 60.4523L23.9903 60.8291C23.0071 61.3869 20.7381 62.9095 19.2104 63.8593C19.2558 63.8442 19.286 63.8442 19.286 63.8292C20.2692 63.4523 21.2222 63.0603 22.2508 62.7889C22.9466 62.608 23.96 62.5628 24.5197 62.0804C24.8222 61.8241 25.2003 61.7035 25.5482 61.7337C37.6793 53.0955 41.0373 51.0302 41.2491 50.4271C41.3096 50.2462 41.3852 49.7186 41.1432 49.2663C40.765 48.5126 37.2255 42.7387 33.4592 43.2965C30.2071 43.7337 19.1802 50.9698 17.8491 51.9045C17.2743 52.3116 16.4424 52.3417 15.5045 52.1457C14.5667 51.9648 13.9768 51.2261 13.5987 50.4573C13.039 49.1457 13.4928 47.6533 14.8087 46.7186L33.1264 34.794C33.323 34.6432 33.6104 34.4774 33.6104 34.4774C34.7297 33.7236 36.2726 33.9498 37.2104 34.8844L52.639 48.4372C53.0171 48.8141 53.5163 48.6935 53.8793 48.3166C54.2272 47.9096 54.1516 47.6382 53.7734 47.2613Z" fill="#46433E"/>
<path d="M72.1196 65.3374C70.0019 63.0611 66.9918 60.4681 66.2204 59.85L60.9414 55.1465L71.9078 65.4279C71.9834 65.3977 72.0439 65.3525 72.1196 65.3374Z" fill="#46433E"/>
<path d="M72.9073 65.3068C73.1341 65.3973 73.361 65.4726 73.5879 65.5631C73.6636 65.5932 73.7241 65.6083 73.7997 65.6234C71.9846 63.3922 68.7627 60.5128 67.1594 59.3068L61.5022 54.2264C61.1241 53.8495 60.7005 53.8646 60.3224 54.2415C59.9442 54.6184 60.2014 55.2063 60.5795 55.5832L65.5409 60.0154L66.2367 60.6184C67.356 61.5832 69.8215 63.6485 71.682 65.6385C71.9997 65.3068 72.4988 65.141 72.9073 65.3068Z" fill="#46433E"/>
<path d="M73.785 66.3623C72.2572 66.3774 70.9715 66.0005 69.6404 65.4578L61.3816 61.7945C58.8707 60.694 56.2085 60.7241 53.743 62.2769L49.3715 64.5834C45.953 66.498 42.3228 66.3623 38.6623 64.3422L35.5615 62.4879C33.2472 61.0105 30.5699 60.6638 28.0892 61.6437L16.6841 65.7442C13.6438 66.905 9.99843 66.3925 7.12448 64.3573L0.378258 60.1211C0.00010718 59.7593 -0.136027 59.2618 0.242124 58.8849C0.620275 58.508 1.13456 58.508 1.51271 58.8849L8.25893 63.1211C10.7699 64.7794 13.6287 65.1261 16.1094 64.1613L27.5144 60.0608C30.3732 58.9 33.6253 59.2316 36.4993 61.0708L39.585 62.91C42.2925 64.5683 45.5295 64.7191 48.3732 63.1814L52.7295 60.8749C55.5732 59.1563 59.022 59.111 62.0925 60.3774L70.3514 64.0407C72.6657 64.9452 74.7531 65.1261 76.8556 64.1462L88.2455 58.1764C88.6236 57.9804 89.0926 58.0708 89.4707 58.4327C89.6673 58.8095 89.5917 59.1864 89.2136 59.5633L77.8236 65.5332C76.2657 66.106 74.9346 66.3472 73.785 66.3623Z" fill="#46433E"/>
<path d="M73.785 73.9897C72.2572 74.0048 70.9715 73.6279 69.6404 73.0852L61.3816 69.4218C58.8707 68.3213 56.2085 68.3515 53.743 69.9043L49.3867 72.2108C45.9682 74.1254 42.3379 73.9897 38.6774 71.9696L35.5766 70.1002C33.2623 68.6228 30.585 68.2761 28.1043 69.256L16.6993 73.3565C13.6589 74.5173 10.0136 74.0048 7.1396 71.9696L0.378258 67.7334C0.00010718 67.3716 -0.136027 66.8741 0.242124 66.4972C0.620275 66.1203 1.13456 66.1203 1.51271 66.4972L8.25893 70.7334C10.7699 72.3917 13.6287 72.7384 16.1094 71.7736L27.5144 67.6731C30.3732 66.5123 33.6253 66.844 36.4993 68.6831L39.585 70.5223C42.2925 72.1806 45.5295 72.3314 48.3732 70.7937L52.7295 68.4872C55.5732 66.7686 59.022 66.7234 62.0925 67.9897L70.3514 71.653C72.6657 72.5575 74.7531 72.7384 76.8556 71.7585L88.2455 65.7887C88.6236 65.5927 89.0926 65.6831 89.4707 66.045C89.6673 66.4218 89.5917 66.7987 89.2136 67.1756L77.8236 73.1455C76.2657 73.7334 74.9346 73.9595 73.785 73.9897Z" fill="#46433E"/>
<path d="M73.785 74.0805C72.2572 74.0956 70.9715 73.7187 69.6404 73.176L61.3665 69.5127C58.8556 68.4122 56.1934 68.4423 53.7278 69.9951L49.3715 72.3016C45.953 74.2162 42.3228 74.0805 38.6623 72.0604L35.5766 70.2061C33.2623 68.7287 30.585 68.382 28.1043 69.3619L16.6993 73.4624C13.6589 74.6232 10.0136 74.1107 7.1396 72.0755L0.378258 67.8242C0.00010718 67.4624 -0.136027 66.9649 0.242124 66.588C0.620275 66.2112 1.13456 66.2112 1.51271 66.588L8.25893 70.8242C10.7699 72.4825 13.6287 72.8293 16.1094 71.8644L27.5144 67.7639C30.3732 66.6031 33.6253 66.9348 36.4993 68.774L39.585 70.6132C42.2925 72.2715 45.5295 72.4222 48.3732 70.8845L52.7295 68.578C55.5732 66.8594 59.022 66.8142 62.0925 68.0805L70.3514 71.7438C72.6657 72.6483 74.7531 72.8292 76.8556 71.8493L88.2455 65.8795C88.6236 65.6835 89.0926 65.774 89.4707 66.1358C89.6673 66.5127 89.5917 66.8896 89.2136 67.2664L77.8236 73.2363C76.2657 73.8091 74.9346 74.0654 73.785 74.0805Z" fill="#46433E"/>
<path d="M73.7845 81.7089C72.2568 81.7239 70.971 81.3471 69.6399 80.8043L61.3811 77.141C58.8702 76.0405 56.208 76.0707 53.7425 77.6234L49.3862 79.93C45.9677 81.8445 42.3374 81.7089 38.6769 79.6888L35.5761 77.8194C33.2618 76.342 30.5845 75.9953 28.1038 76.9752L16.6988 81.0757C13.6584 82.2365 10.0131 81.7239 7.1391 79.6888L0.362633 75.4375C-0.0155178 75.0757 -0.151652 74.5782 0.226499 74.2013C0.60465 73.8244 1.11894 73.8244 1.49709 74.2013L8.24331 78.4375C10.7542 80.0958 13.6131 80.4425 16.0937 79.4777L27.4988 75.3772C30.3576 74.2164 33.6097 74.5481 36.4836 76.3873L39.5694 78.2265C42.2769 79.8847 45.5139 80.0355 48.3576 78.4978L52.7139 76.1913C55.5576 74.4727 59.0063 74.4275 62.0769 75.6938L70.3357 79.3571C72.65 80.2616 74.7374 80.4425 76.84 79.4626L88.2299 73.4928C88.608 73.2968 89.0769 73.3873 89.4551 73.7491C89.6517 74.1259 89.5761 74.5028 89.1979 74.8797L77.808 80.8496C76.2652 81.4375 74.9189 81.6938 73.7845 81.7089Z" fill="#46433E"/>
<path d="M73.7845 81.7836C72.2568 81.7987 70.971 81.4218 69.6399 80.8791L61.366 77.2158C58.8551 76.1153 56.1929 76.1454 53.7273 77.6982L49.371 80.0047C45.9525 81.9193 42.3223 81.7836 38.6618 79.7635L35.5761 77.8942C33.2618 76.4168 30.5845 76.0701 28.1038 77.05L16.6836 81.1655C13.6433 82.3264 9.99793 81.8138 7.12398 79.7786L0.362633 75.5274C-0.0155178 75.1655 -0.151652 74.6681 0.226499 74.2912C0.60465 73.9143 1.11894 73.9143 1.49709 74.2912L8.24331 78.5274C10.7542 80.1856 13.6131 80.5324 16.0937 79.5676L27.4988 75.467C30.3576 74.3062 33.6097 74.6379 36.4836 76.4771L39.5694 78.3163C42.2769 79.9746 45.5139 80.1253 48.3576 78.5877L52.7139 76.2811C55.5576 74.5625 59.0063 74.5173 62.0769 75.7836L70.3357 79.447C72.65 80.3515 74.7374 80.5324 76.84 79.5525L88.2299 73.5826C88.608 73.3866 89.0769 73.4771 89.4551 73.8389C89.6517 74.2158 89.5761 74.5927 89.1979 74.9696L77.808 80.9394C76.2652 81.5274 74.9189 81.7836 73.7845 81.7836Z" fill="#46433E"/>
<path d="M73.7845 89.412C72.2568 89.4271 70.971 89.0502 69.6399 88.5075L61.3811 84.8441C58.8702 83.7436 56.208 83.7738 53.7425 85.3266L49.3862 87.6331C45.9677 89.5477 42.3374 89.412 38.6769 87.3919L35.561 85.5376C33.2467 84.0602 30.5694 83.7135 28.0887 84.6934L16.6836 88.7939C13.6433 89.9547 9.99793 89.4421 7.12398 87.407L0.362633 83.1557C-0.0155178 82.7939 -0.151652 82.2964 0.226499 81.9195C0.60465 81.5426 1.11894 81.5426 1.49709 81.9195L8.24331 86.1557C10.7542 87.814 13.6282 88.1607 16.1089 87.1808L27.5139 83.0803C30.3727 81.9195 33.6248 82.2512 36.4988 84.0904L39.5845 85.9296C42.292 87.5879 45.529 87.7386 48.3727 86.2009L52.729 83.8944C55.5727 82.1758 59.0215 82.1306 62.092 83.3969L70.3509 87.0602C72.6652 87.9648 74.7526 88.1457 76.8551 87.1658L88.245 81.1959C88.6231 80.9999 89.092 81.0904 89.4702 81.4522C89.6668 81.8291 89.5912 82.206 89.2131 82.5828L77.8231 88.5527C76.2652 89.1557 74.9189 89.3969 73.7845 89.412Z" fill="#46433E"/>
<path d="M73.7845 89.5028C72.2568 89.5179 70.971 89.141 69.6399 88.5983L61.3509 84.935C58.8399 83.8345 56.1778 83.8646 53.7122 85.4174L49.3559 87.7239C45.9374 89.6385 42.3072 89.5028 38.6467 87.4827L35.561 85.6284C33.2467 84.151 30.5694 83.8043 28.0887 84.7842L16.6836 88.8847C13.6433 90.0455 9.99793 89.533 7.12398 87.4978L0.362633 83.2314C-0.0155178 82.8696 -0.151652 82.3722 0.226499 81.9953C0.60465 81.6184 1.11894 81.6184 1.49709 81.9953L8.24331 86.2314C10.7542 87.8897 13.6131 88.2365 16.0937 87.2717L27.4988 83.1711C30.3576 82.0103 33.6097 82.342 36.4836 84.1812L39.5694 86.0204C42.2769 87.6787 45.5139 87.8294 48.3576 86.2918L52.7139 83.9852C55.5576 82.2666 59.0063 82.2214 62.0769 83.4877L70.3357 87.151C72.65 88.0556 74.7374 88.2365 76.84 87.2566L88.2299 81.2867C88.608 81.0907 89.0769 81.1812 89.4551 81.543C89.6517 81.9199 89.5761 82.2968 89.1979 82.6737L77.808 88.6435C76.2652 89.2314 74.9189 89.4877 73.7845 89.5028Z" fill="#46433E"/>
<path d="M16.8805 32.6233C7.82001 32.6233 0.46875 25.2816 0.46875 16.2816C0.46875 7.28159 7.82001 -0.0751953 16.8805 -0.0751953C25.941 -0.0751953 33.2923 7.26651 33.2923 16.2816C33.2923 25.2967 25.9259 32.6233 16.8805 32.6233ZM16.8805 1.43234C8.66707 1.43234 1.98135 8.09566 1.98135 16.2816C1.98135 24.4675 8.66707 31.1308 16.8805 31.1308C25.094 31.1308 31.7797 24.4675 31.7797 16.2816C31.7797 8.09566 25.094 1.43234 16.8805 1.43234Z" fill="#C65049"/>
<path d="M8.40902 25.4162C8.21238 25.4162 8.01574 25.3408 7.87961 25.19C7.59221 24.8885 7.59221 24.4212 7.87961 24.1197L24.7754 7.3408C25.0779 7.05437 25.5468 7.05437 25.8494 7.3408C26.1368 7.64231 26.1368 8.10964 25.8494 8.41115L8.95356 25.19C8.8023 25.3408 8.60566 25.4162 8.40902 25.4162Z" fill="#C65049"/>
<path d="M25.2736 25.4468C25.077 25.4468 24.8803 25.3714 24.7442 25.2206L7.90891 8.3965C7.62151 8.095 7.62151 7.62766 7.90891 7.32615C8.21143 7.03972 8.68033 7.03972 8.98286 7.32615L25.8181 24.1653C26.1055 24.4669 26.1055 24.9342 25.8181 25.2357C25.6669 25.3714 25.4702 25.4468 25.2736 25.4468Z" fill="#C65049"/>
</g>
<defs>
<clipPath id="clip0_3672_30567">
<rect width="90" height="90" fill="white"/>
</clipPath>
</defs>
</svg>
