<svg width="90" height="90" viewBox="0 0 90 90" fill="none" xmlns="http://www.w3.org/2000/svg">
<path d="M48.4643 56.7881H28.0441C28.0441 56.8871 28.029 56.9862 28.0138 57.0853C27.9382 57.4673 27.8323 57.8353 27.7416 58.2032H48.4643C50.4609 58.2032 52.0794 59.7173 52.0794 61.5853V82.0051H23.6878C23.6878 82.1607 23.6727 82.3164 23.6575 82.472C23.6122 82.8117 23.5365 83.1371 23.4004 83.4202H52.3517C53.0172 83.4202 53.5769 82.9107 53.5769 82.2739V61.5994C53.592 58.9532 51.2928 56.7881 48.4643 56.7881Z" fill="#46433E"/>
<path d="M52.3662 63.623H27.2267C27.1511 63.8212 27.0452 64.0193 26.8788 64.1608C26.9393 64.2598 26.9847 64.3731 27.015 64.4863C27.0452 64.6702 27.0755 64.8542 27.0906 65.0381H52.094V75.6938H24.8973C24.6553 75.9344 24.4284 76.2032 24.2015 76.458C23.9898 76.6985 23.7024 76.8117 23.3998 76.84C23.3696 76.9249 23.3393 77.0098 23.3242 77.1089H52.3814C53.0469 77.1089 53.6066 76.5995 53.6066 75.9627V64.7551C53.5914 64.1325 53.0469 63.623 52.3662 63.623Z" fill="#46433E"/>
<path d="M24.6105 77.731H6.71639C6.429 77.731 6.29286 77.5895 6.15673 77.3348L3.29791 70.2734V70.1319L0.605469 27.665C0.605469 26.6036 0.892864 25.6697 1.60379 25.0046C2.32984 24.2121 3.29791 23.8018 4.44749 23.8018H26.6223C27.7567 23.8018 28.7551 24.198 29.466 25.0046C30.192 25.797 30.6004 26.731 30.4643 27.665L27.7719 70.1461V70.2876L25.2156 77.3348C25.2004 77.4621 24.913 77.731 24.6105 77.731ZM7.1853 76.3584L24.1416 76.3018L26.3349 69.8489L28.8458 27.9621C28.8458 27.2829 28.8156 26.6461 28.2408 26.1084C27.666 25.5848 27.0307 25.1744 26.3349 25.1744L4.75001 25.2735C4.02396 25.2735 3.34328 25.3725 2.76849 25.9244C2.20883 26.448 2.1937 27.2121 2.23908 27.8631L4.78026 69.8065L7.1853 76.3584Z" fill="#46433E"/>
<path d="M22.0698 86.2218H9.54547C8.54715 86.2218 7.54883 85.4293 7.54883 84.3539V77.1652C7.54883 76.8963 7.83622 76.6416 8.10849 76.6416H23.3253C23.6127 76.6416 23.885 76.9105 23.885 77.1652V84.3539C23.9152 85.4435 23.053 86.2218 22.0698 86.2218ZM9.07656 77.618V83.7454C9.06143 84.5661 9.69673 84.7784 10.1203 84.7784H21.6463C22.0698 84.7784 22.3724 84.3822 22.3724 83.9859L22.3875 77.519L9.07656 77.618Z" fill="#46433E"/>
<path d="M8.71201 83.8438C8.42461 83.8438 8.15234 83.5042 8.15234 83.1646C8.15234 82.825 8.43974 82.4854 8.71201 82.4854H23.4902C23.7776 82.4854 23.7776 82.825 23.7776 83.1646C23.7776 83.5042 23.7776 83.8438 23.4902 83.8438H8.71201Z" fill="#46433E"/>
<path d="M18.9368 83.844H12.962C12.6746 83.844 12.4023 83.5751 12.4023 83.3204V80.9289C12.4023 80.66 12.6897 80.4053 12.962 80.4053H18.9368C19.2242 80.4053 19.4965 80.6741 19.4965 80.9289V83.3204C19.5116 83.7024 19.2091 83.844 18.9368 83.844ZM13.9603 82.91H17.9536V81.8487H13.9603V82.91Z" fill="#46433E"/>
<path d="M16.9263 52.2739C16.6389 52.2597 16.412 52.0899 16.2456 51.8211L15.7313 50.2503C15.7313 49.5711 15.5195 46.9531 15.5195 46.8258C15.5195 46.5569 16.0792 46.2031 16.3666 46.2031C16.654 46.2031 16.9263 46.472 16.9263 46.7267C16.9263 46.9956 17.0775 50.0522 17.0775 50.0522L17.501 51.5097C17.6523 51.7927 17.4103 52.288 16.9263 52.2739Z" fill="#46433E"/>
<path d="M12.9324 58.2732C12.2064 58.2732 12.2064 58.2732 12.0854 58.2732C11.6619 58.1317 10.8299 57.509 10.6938 57.3817C10.0282 56.8156 11.1324 56.1505 11.4652 56.5043C11.7526 56.7732 12.282 57.0279 12.5543 57.1694C12.9778 57.1694 16.2299 57.2401 18.514 57.1128C18.8013 57.1128 19.0736 57.3817 19.0736 57.6364C19.0736 57.8911 18.7862 58.16 18.514 58.16C15.2467 58.1741 13.7795 58.2732 12.9324 58.2732Z" fill="#46433E"/>
<path d="M7.14074 45.5375C7.14074 45.396 7.86679 44.3346 10.1206 44.2214C12.6769 43.9526 13.5391 45.2828 13.5391 45.2828C13.6903 45.5516 13.7206 45.9054 13.4483 46.0328C13.176 46.1743 12.7676 46.3582 12.6315 46.0752C12.6315 46.0752 11.8449 45.4384 10.1206 45.5799C8.50209 45.6931 8.24494 46.0894 8.24494 46.0894C8.07856 46.2309 7.06511 46.3724 7.14074 45.5375Z" fill="#46433E"/>
<path d="M14.6866 54.4527C14.3992 54.4527 14.127 54.3112 14.127 54.0565C14.127 53.8018 14.2328 53.3631 14.5051 53.3631C14.6564 53.3631 15.0194 53.3065 15.458 53.0376C15.7454 52.8961 16.0933 53.1225 16.2446 53.3914C16.3959 53.6603 16.2446 53.915 15.9572 54.0707C15.6547 54.1839 14.9589 54.4527 14.6866 54.4527Z" fill="#46433E"/>
<path d="M15.2471 63.5098C10.1345 63.5098 5.58159 59.5193 4.73453 54.0712C3.44882 54.0712 2.31436 52.6136 2.04209 50.6183C1.7547 48.4815 2.60176 46.7551 4.03873 46.6278H4.18999C4.47739 46.6278 4.61352 46.6278 4.91604 46.7693C4.62865 43.7127 4.76478 38.3919 9.45386 36.6655C9.6505 36.623 9.72613 36.623 9.87739 36.623C10.0286 36.623 10.1648 36.8212 10.1648 36.9485C11.1631 39.2127 13.8555 39.4674 16.8354 39.7363C21.1009 40.0051 25.9261 40.741 26.0925 46.8117C26.3799 46.6702 26.5009 46.6561 26.9244 46.6561H27.0757C27.8018 46.7976 28.3614 47.1797 28.7698 47.9721C29.0572 48.6514 29.1934 49.557 29.0572 50.491C28.7698 52.4863 27.6505 53.9438 26.3648 53.9438H26.2135C25.2001 59.3778 20.511 63.5098 15.2471 63.5098ZM6.0505 53.2787C6.77655 58.4721 10.6034 61.9674 15.0354 62.0523C19.8606 62.1089 24.0354 58.5429 24.7614 53.3778C24.7614 53.2363 24.8219 52.7976 25.3362 52.5995C25.8051 52.4155 26.1681 52.6844 26.6068 52.6278C27.0455 52.5712 27.7715 51.9627 27.9076 50.491C28.0589 49.6985 28.3614 49.3306 28.0892 48.6655C27.9379 48.2693 27.59 48.1136 27.1362 48.0429C26.6522 48.0004 26.4253 47.873 26.0169 48.3966C25.8656 48.6655 25.3816 48.7504 25.2303 48.7504C24.9429 48.7504 24.8068 48.4815 24.8068 48.2268C24.7463 41.59 20.9345 41.2787 16.669 40.8683C13.6892 40.5995 10.6791 40.7127 9.39335 38.1938C5.26394 40.5712 6.41352 46.0334 6.82193 47.9155C6.88243 48.241 6.56478 48.5664 6.20176 48.6938C5.88411 48.7504 5.44545 48.6372 5.26394 48.3683C4.97655 47.9013 4.52277 47.9863 4.23537 47.9863C3.50932 47.9863 3.04041 48.7646 3.17655 50.2363C3.32781 51.6938 4.22024 52.7976 4.99167 52.6702C5.62697 52.5146 6.0505 53.1514 6.0505 53.2787Z" fill="#46433E"/>
<path d="M22.8103 45.9197C22.8103 45.9197 22.5532 45.5376 20.9347 45.4102C19.2405 45.2687 18.4237 45.9055 18.4237 45.9055C18.2725 46.1744 17.8943 45.9763 17.6069 45.8489C17.3195 45.7216 17.3498 45.3678 17.5162 45.0989C17.5162 45.0989 18.3632 43.7829 20.9347 44.0376C23.2187 44.1791 23.9145 45.2404 23.9145 45.3536C23.975 46.1744 22.9313 46.047 22.8103 45.9197Z" fill="#46433E"/>
<path d="M10.8906 48.212C11.3166 48.212 11.662 47.8888 11.662 47.4903C11.662 47.0917 11.3166 46.7686 10.8906 46.7686C10.4645 46.7686 10.1191 47.0917 10.1191 47.4903C10.1191 47.8888 10.4645 48.212 10.8906 48.212Z" fill="#46433E"/>
<path d="M20.4511 48.4668C20.8772 48.4668 21.2225 48.1437 21.2225 47.7451C21.2225 47.3466 20.8772 47.0234 20.4511 47.0234C20.0251 47.0234 19.6797 47.3466 19.6797 47.7451C19.6797 48.1437 20.0251 48.4668 20.4511 48.4668Z" fill="#46433E"/>
<path d="M51.7453 3.02841C51.7151 2.39162 51.8058 1.96709 52.4109 1.96709C53.0008 1.92464 53.394 2.49068 53.394 3.05671C53.8024 7.75483 58.3705 11.0803 63.1957 11.0803C68.0209 11.0803 72.3924 7.44351 72.9974 2.92936C73.194 2.54728 73.4361 2.34917 73.9806 2.41992C74.389 2.50483 74.6915 2.67464 74.6915 3.24068C73.8898 8.68879 69.0646 12.6511 63.226 12.6511C57.1907 12.6369 52.3655 8.49067 51.7453 3.02841Z" fill="#46433E"/>
<path d="M65.2244 12.1129L70.8211 30.0705C70.9118 29.9714 71.0479 29.8723 71.1841 29.8016C71.532 29.6035 71.9253 29.5327 72.3337 29.5469L66.737 11.561C66.5404 11.0091 66.0412 10.7686 65.6479 10.9384C65.0278 11.1365 65.0126 11.7167 65.2244 12.1129Z" fill="#46433E"/>
<path d="M67.855 10.967L77.3391 24.9057C77.566 24.7501 77.7929 24.6085 77.929 24.4246C78.0954 24.2123 78.3374 24.0425 78.6097 23.9434L69.1559 10.3727C68.9592 9.99062 68.4449 9.62269 68.0517 9.80666C67.6433 10.0048 67.6433 10.585 67.855 10.967Z" fill="#46433E"/>
<path d="M86.5508 15.8063L71.9541 7.69778C71.3491 7.3157 71.576 7.10344 71.7726 6.70721C72.181 6.14117 72.4987 6.38174 72.9071 6.55155L87.2919 14.4053C87.897 14.7874 87.9575 15.1978 87.7608 15.5799C87.5642 15.9761 87.0045 16.0327 86.5508 15.8063Z" fill="#46433E"/>
<path d="M70.4126 9.77819L85.2815 23.6037C85.7807 23.3489 86.4008 23.3631 86.8092 23.7735C86.8697 23.8442 86.9756 23.9433 87.0512 23.9999C87.0664 24.014 87.0815 24.014 87.0966 24.0282C87.2781 24.1414 87.4597 24.2546 87.6412 24.3537C88.0042 24.5659 88.3521 24.8065 88.6395 25.0754C88.7 24.7782 88.4882 24.4103 88.216 24.1555L71.5773 8.71687C71.1689 8.33479 70.6849 8.29234 70.2765 8.67442C69.8529 9.05649 70.0042 9.39611 70.4126 9.77819Z" fill="#46433E"/>
<path d="M87.8214 9.3675L73.3155 5.82976C72.7104 5.63165 72.4079 5.65995 72.5894 5.10806C72.7861 4.54203 72.8617 4.18825 73.4516 4.37221L87.897 7.85335C88.502 8.03731 88.7743 8.34863 88.6382 8.85806C88.5625 9.19769 88.2751 9.43825 87.8214 9.3675Z" fill="#46433E"/>
<path d="M62.4096 33.5094C61.7138 33.4528 61.8197 32.4906 61.8349 31.7264L62.4096 12.8207C62.4096 12.467 62.818 12.0707 63.4231 12.0707C64.0281 12.0707 63.9525 11.9151 63.9525 12.4953L63.4231 32.2075C63.4231 32.5613 63.408 33.5519 62.4096 33.5094Z" fill="#46433E"/>
<path d="M52.9717 31.0616L59.1886 11.1371C59.3852 10.755 59.718 10.7125 60.323 10.8965C60.7314 11.0946 60.8373 11.1229 60.6407 11.6748L54.5297 31.3588C54.3331 31.9248 53.9398 32.1088 53.5314 31.9956C53.1533 31.8823 52.7751 31.6276 52.9717 31.0616Z" fill="#46433E"/>
<path d="M48.7356 24.0001C48.3574 23.6464 48.1456 23.5332 48.3574 23.1652L56.6011 9.82089C57.0095 9.25485 57.4179 9.58032 57.8263 9.76428C58.4314 10.1464 58.0683 10.4718 57.8717 10.8539L49.8398 23.7737C49.6431 24.1558 50.0061 24.1699 49.5826 24.1699C49.386 24.1699 49.1591 24.1982 48.7356 24.0001Z" fill="#46433E"/>
<path d="M32.8691 18.2969C32.6573 17.7309 32.0522 17.5328 32.4606 17.3488L53.38 6.05635C53.985 5.87238 54.227 6.21201 54.4237 6.59408C54.6203 7.14597 54.6808 7.07521 54.2573 7.27333L33.6556 18.4384C33.4438 18.6224 33.8674 18.8488 33.6707 18.8488C33.2623 18.8488 32.8691 18.6365 32.8691 18.2969Z" fill="#46433E"/>
<path d="M40.2809 22.9674C39.8725 22.6136 39.8725 22.0334 40.2809 21.6513L54.7717 8.12303C55.1801 7.76926 55.5128 8.05228 55.9213 8.4202C56.3448 8.80228 56.1784 8.91549 55.7549 9.31171L41.2944 22.8825C41.0977 23.0664 41.1128 23.1796 40.9162 23.1796C40.7196 23.1796 40.4927 23.1655 40.2809 22.9674Z" fill="#46433E"/>
<path d="M25.8354 11.703C25.8354 11.1369 26.032 10.7549 26.6371 10.5709L52.5782 3.97656C53.1833 3.97656 53.4556 4.18883 53.6522 4.75486C53.6522 5.3209 53.2287 5.30675 52.6236 5.49071L26.2287 12.2549L26.1682 12.269C25.7749 12.2407 25.8354 12.2549 25.8354 11.703Z" fill="#46433E"/>
<path d="M50.9604 23.717C50.1587 22.967 49.1453 22.5849 47.7537 22.5849H41.7335C40.9318 20.5331 38.315 17.4906 34.2915 17.4906C33.6864 17.4906 33.0814 17.4906 32.673 17.6746C31.8713 13.7406 28.0444 10.5566 23.2192 10.5566C19.3923 10.5566 16.1856 13.3727 14.5671 16.1887C12.9486 16.3727 11.7537 16.9387 10.7402 17.8868C9.04611 19.5849 8.2898 22.2595 7.95703 24.2831C8.47132 24.0991 9.04611 24.184 9.60577 24.2689C9.92342 22.3727 10.6495 20.0661 12.0108 18.8066C12.8125 18.0566 13.6444 17.6463 14.8696 17.6463C15.278 17.6463 15.7167 17.3774 15.9285 16.9953C17.1385 14.5472 20.0276 12.0283 23.2343 12.0283C27.2427 12.0283 30.8125 14.7453 31.2058 18.4953C31.2058 18.8774 31.2663 19.1321 31.478 19.3019C31.6747 19.4859 32.0831 19.4859 32.4915 19.3019C33.2932 18.9198 33.8982 18.9198 34.6848 18.9198C37.8915 18.9198 40.1301 22.5708 40.5083 23.5048C40.7049 23.8868 41.1133 23.9859 41.5217 23.9859H48.1469C49.1604 23.9859 49.7352 24.2689 50.1587 24.8066C50.3705 25.1321 50.4159 25.9246 50.4159 26.4906L29.0881 26.5048C29.678 26.8019 30.0411 27.2831 29.678 28.0048H50.9755C51.5806 28.0048 51.989 27.6227 51.989 27.0566C52.1705 25.5991 51.7772 24.2831 50.9604 23.717Z" fill="#46433E"/>
<path d="M54.1967 38.6181C54.1967 39.1842 54.6051 39.5663 55.2101 39.5663L88.4875 39.538C88.3059 39.2691 88.4118 38.9578 88.4875 38.6323C88.427 38.4625 88.3967 38.2502 88.4118 38.0804L55.7698 38.0238C55.7698 37.4578 55.8152 36.6936 56.0421 36.3398C56.4656 35.8021 57.0404 35.5191 58.0538 35.5191H64.6639C65.0723 35.5191 65.4807 35.42 65.6774 35.038C66.0858 34.104 68.2942 30.4531 71.5009 30.4531C72.3026 30.4531 72.9076 30.453 73.6942 30.8351C74.1026 31.0191 74.511 31.0191 74.7076 30.8351C74.9043 30.6512 74.9799 30.3964 74.9799 30.0285C75.3883 26.2785 78.9429 23.5615 82.9513 23.5615C84.8118 23.5615 86.5665 24.4106 87.9429 25.5993C88.0034 25.4861 88.0488 25.3587 88.1396 25.2738C88.2908 24.9342 88.427 24.5663 88.8959 24.4955C87.2471 23.0521 85.2807 22.0898 82.9664 22.0898C78.1412 22.0898 74.3143 25.288 73.5127 29.2361C73.1043 29.0521 72.4992 29.0521 71.8942 29.0521C67.8706 29.0521 65.2538 32.0663 64.4522 34.1464H58.432C57.0253 34.1464 56.0118 34.5285 55.2253 35.2785C54.4085 35.788 53.9849 37.1181 54.1967 38.6181Z" fill="#46433E"/>
<path d="M88.3066 25.67C88.7326 25.67 89.078 25.3468 89.078 24.9483C89.078 24.5497 88.7326 24.2266 88.3066 24.2266C87.8805 24.2266 87.5352 24.5497 87.5352 24.9483C87.5352 25.3468 87.8805 25.67 88.3066 25.67Z" fill="#46433E"/>
<path d="M88.3959 39.5235C88.8303 39.5235 89.1825 39.194 89.1825 38.7876C89.1825 38.3812 88.8303 38.0518 88.3959 38.0518C87.9615 38.0518 87.6094 38.3812 87.6094 38.7876C87.6094 39.194 87.9615 39.5235 88.3959 39.5235Z" fill="#46433E"/>
<path d="M73.15 86.7456C64.1047 86.7456 56.7383 79.8541 56.7383 71.3919C56.7383 62.9296 64.1047 56.0381 73.15 56.0381C82.1954 56.0381 89.5618 62.9296 89.5618 71.3919C89.5618 79.8541 82.1954 86.7456 73.15 86.7456ZM73.15 57.4532C64.9366 57.4532 58.2509 63.7079 58.2509 71.3919C58.2509 79.0758 64.9366 85.3305 73.15 85.3305C81.3635 85.3305 88.0492 79.0758 88.0492 71.3919C88.0492 63.7079 81.3635 57.4532 73.15 57.4532Z" fill="#D14A43"/>
<path d="M64.6786 79.9807C64.4819 79.9807 64.2853 79.9099 64.1491 79.7684C63.8617 79.4854 63.8617 79.0467 64.1491 78.7637L81.0449 63.0278C81.3475 62.759 81.8164 62.759 82.1189 63.0278C82.4063 63.3108 82.4063 63.7495 82.1189 64.0325L65.2231 79.7684C65.0718 79.9099 64.8752 79.9807 64.6786 79.9807Z" fill="#D14A43"/>
<path d="M81.5431 80.0094C81.3465 80.0094 81.1499 79.9387 81.0137 79.7972L64.1784 63.9906C63.891 63.7075 63.891 63.2688 64.1784 62.9858C64.481 62.717 64.9499 62.717 65.2524 62.9858L82.0877 78.8066C82.3751 79.0896 82.3751 79.5283 82.0877 79.8113C81.9364 79.9387 81.7398 80.0094 81.5431 80.0094Z" fill="#D14A43"/>
</svg>
