<svg width="90" height="90" viewBox="0 0 90 90" fill="none" xmlns="http://www.w3.org/2000/svg">
<g clip-path="url(#clip0_3672_33821)">
<path d="M30.1901 36.2367L11.1616 33.035L11.691 30.0694L31.612 33.4186C31.5968 32.9465 32.2321 32.6072 32.338 32.1498L11.2372 28.5793C11.0557 28.5498 10.859 28.594 10.7078 28.6973C10.5565 28.8006 10.4506 28.9629 10.4204 29.1547L9.63382 33.4924C9.57332 33.876 9.83046 34.2301 10.2086 34.3039L29.3582 37.535C29.4489 37.0629 29.9935 36.6645 30.1901 36.2367Z" fill="#45423D"/>
<path d="M55.0267 36.4429C54.9662 36.1626 54.7545 35.9413 54.4519 35.8823L41.2469 33.6396C41.2166 34.1118 41.141 34.5692 40.9898 35.0118L53.136 37.0774C53.3326 37.1069 53.4687 37.2987 53.4385 37.4905L53.0301 39.7478C52.9998 39.9396 52.8032 40.0724 52.6066 40.0429L39.6133 37.8298C39.6738 38.3019 39.6738 38.7741 39.6133 39.2462L52.9091 41.5036C53.1208 41.297 52.9242 41.0019 53.136 40.7954C52.9091 39.1282 53.7108 37.5495 55.0267 36.4429Z" fill="#45423D"/>
<path d="M45.4991 39.7479C45.4537 39.7479 45.4083 39.7479 45.3629 39.7331C44.9545 39.6594 44.6823 39.2758 44.7428 38.8774L45.3932 35.2479C45.4688 34.8495 45.8621 34.5839 46.2705 34.643C46.6789 34.7167 46.9512 35.1003 46.8907 35.4987L46.2403 39.1282C46.1646 39.4971 45.847 39.7479 45.4991 39.7479Z" fill="#45423D"/>
<path d="M13.8243 34.7755C13.7941 34.7755 13.7638 34.7755 13.7184 34.7608C13.4008 34.7018 13.1739 34.4067 13.2344 34.0968L13.9151 30.2903C13.9756 29.9804 14.2781 29.7591 14.5958 29.8181C14.9134 29.8772 15.1403 30.1722 15.0798 30.4821L14.3991 34.2886C14.3537 34.5837 14.1117 34.7755 13.8243 34.7755Z" fill="#45423D"/>
<path d="M12.9163 25.9968C12.8104 25.9968 12.6894 25.9673 12.5986 25.923C12.3415 25.805 6.3818 22.7804 5.92802 17.4247C5.6255 13.8247 9.2255 11.7296 12.1297 10.0329C13.5364 9.20662 15.0037 8.36564 15.2759 7.68695C16.1079 5.63613 14.1415 4.70662 13.9146 4.6181C13.5516 4.4558 13.3852 4.05744 13.5516 3.70335C13.7028 3.34925 14.1263 3.18695 14.4894 3.34925C15.6995 3.86564 17.6961 5.53285 16.607 8.2181C16.1532 9.33941 14.6255 10.2247 12.8709 11.2427C10.1784 12.8066 7.12298 14.5919 7.34987 17.3214C7.74315 21.9099 13.1885 24.6689 13.249 24.6984C13.5969 24.8755 13.7482 25.2886 13.5667 25.6427C13.4305 25.8492 13.1734 25.9968 12.9163 25.9968Z" fill="#45423D"/>
<path d="M15.7769 25.6279C15.7164 25.6279 15.671 25.6279 15.6105 25.6131C15.2323 25.5246 14.9903 25.1558 15.066 24.7869C15.0811 24.7279 15.3382 23.5033 14.3853 22.8836C11.6626 21.1131 10.0592 19.1508 9.95336 17.4984C9.75672 14.1197 14.3853 12.7623 14.5819 12.7033C14.9601 12.6 15.3534 12.8066 15.4744 13.1754C15.5802 13.5443 15.3685 13.9279 14.9903 14.0459C14.9601 14.0607 11.2542 15.1525 11.3903 17.4246C11.466 18.6049 12.9181 20.2426 15.187 21.7328C16.9567 22.8836 16.4878 25.0082 16.4727 25.1115C16.3971 25.4066 16.0945 25.6279 15.7769 25.6279Z" fill="#45423D"/>
<path d="M10.512 27.2368C10.4213 27.2368 10.3456 27.222 10.2549 27.1925C9.84647 27.0302 0.12042 23.2827 1.11874 15.3302C1.52714 12.0401 4.70361 10.2991 7.25992 8.89745C8.69689 8.10073 10.1792 7.28925 10.27 6.58106C10.3456 5.91712 10.2095 5.38597 9.83135 4.94335C8.77252 3.70401 6.30698 3.55647 6.29185 3.55647C5.89857 3.54171 5.59605 3.20237 5.61118 2.81876C5.6263 2.43515 5.9742 2.14007 6.36748 2.15483C6.48849 2.15483 9.46832 2.33187 10.9355 4.04335C11.586 4.79581 11.8431 5.71056 11.707 6.7581C11.5255 8.15974 9.87672 9.0745 7.97084 10.122C5.58092 11.4352 2.87336 12.9253 2.55571 15.522C1.69353 22.3975 10.7087 25.8794 10.7994 25.9089C11.1624 26.0417 11.3439 26.4548 11.2078 26.8089C11.0566 27.0745 10.7994 27.2368 10.512 27.2368Z" fill="#45423D"/>
<path d="M68.264 89.2034C67.9614 89.2034 67.674 89.0264 67.553 88.7165L63.4993 77.9313C63.4539 77.828 63.4387 77.71 63.4539 77.6067C63.469 77.5034 64.4976 66.8362 64.9514 63.5018C65.3749 60.4329 63.7413 49.81 63.59 48.8214L58.19 34.5985C56.6472 35.469 53.1228 37.9182 53.2892 42.0198C53.3648 43.8198 53.8791 45.9739 54.3782 48.0542C55.2556 51.6542 55.9967 54.7526 54.6656 56.405C54.1211 57.0837 53.274 57.4231 52.185 57.4231C47.3749 57.4231 43.6539 53.8821 41.4001 47.169C39.7514 42.2559 39.4791 37.446 39.464 37.2395C39.4488 37.0034 39.5547 36.7821 39.7362 36.6345C42.4892 34.3624 46.4673 30.1132 46.1951 27.8116L43.2455 27.4427C42.8522 27.3985 42.5648 27.0444 42.5799 26.6608C42.6858 25.1854 41.9598 23.9165 41.5211 23.2968C37.6186 25.2296 31.8556 35.1296 29.7984 39.1132C29.7077 40.6329 28.9816 53.2182 29.3446 58.0723C29.39 58.6329 29.1329 59.2673 28.8455 59.9313C28.6488 60.4034 28.3766 61.0526 28.4219 61.3329C28.6488 63.0886 29.632 64.3723 29.6472 64.387C29.7833 64.5493 29.8287 64.7706 29.7833 64.9772C29.7833 64.9919 29.4959 66.5116 29.7379 68.3116C29.9497 69.8903 31.7951 71.1296 31.8102 71.1444C31.9009 71.2034 31.9614 71.2772 32.0219 71.3509L42.1564 86.5329C42.1867 86.5772 42.2018 86.6214 42.232 86.6657L43.0337 88.687C43.185 89.0706 42.9883 89.4985 42.6102 89.646C42.2169 89.7936 41.7782 89.6018 41.627 89.2329L40.8556 87.2854L30.8572 72.2805C30.343 71.9116 28.5127 70.4804 28.2556 68.5034C28.0438 66.9542 28.1799 65.6116 28.2707 65.0214C27.9077 64.4755 27.1514 63.1919 26.9396 61.5247C26.8488 60.8608 27.1665 60.1231 27.469 59.3854C27.6354 58.9723 27.8774 58.3968 27.8623 58.1903C27.469 52.9526 28.2858 39.4526 28.3161 38.8919C28.3161 38.7886 28.3463 38.7001 28.3917 38.6116C28.4068 38.5673 30.343 34.8198 32.869 30.91C36.3329 25.5542 39.2522 22.4706 41.5362 21.7182C41.8236 21.6296 42.1413 21.7034 42.3379 21.9247C42.4135 21.9985 43.9715 23.7395 44.1077 26.0854L46.906 26.4247C47.1782 26.4542 47.4203 26.6313 47.511 26.8968C48.9177 30.4526 42.6253 36.1477 41.0068 37.5345C41.2186 40.1313 42.9278 55.9624 52.185 55.9624C53.1077 55.9624 53.3951 55.6083 53.4858 55.505C54.3631 54.4132 53.6219 51.3739 52.911 48.4231C52.3967 46.2837 51.8522 44.0559 51.7766 42.1083C51.5345 35.8673 58.0236 33.0346 58.2959 32.9165C58.4925 32.8427 58.7043 32.828 58.9009 32.9165C59.0976 32.9903 59.2488 33.1526 59.3093 33.3444L65.0421 48.3936C65.0572 48.4378 65.0724 48.4821 65.0875 48.5411C65.1631 49.0132 66.9329 60.3001 66.464 63.7083C66.0404 66.7772 65.1329 76.205 64.9967 77.5772L68.99 88.2149C69.1413 88.5985 68.9295 89.0264 68.5362 89.1591C68.4455 89.1886 68.3547 89.2034 68.264 89.2034Z" fill="#45423D"/>
<path d="M40.2204 37.9474C40.1296 37.9474 40.0237 37.9326 39.933 37.8884C39.5397 37.7261 39.3582 37.2982 39.5246 36.9294C39.5548 36.8556 42.5195 29.8621 42.5952 26.9261C42.6103 26.513 42.9431 26.2031 43.3666 26.2031C43.7901 26.2179 44.1078 26.5572 44.1078 26.9556C44.017 30.1572 41.0372 37.1802 40.9162 37.4753C40.7952 37.7851 40.5229 37.9474 40.2204 37.9474Z" fill="#45423D"/>
<path d="M31.0237 57.7621C30.6455 57.7621 30.3128 57.4818 30.2674 57.0982C30.2523 56.9506 28.7699 42.0047 28.4674 38.9506C28.422 38.5523 28.7245 38.1834 29.1481 38.1392C29.5565 38.0949 29.9346 38.39 29.98 38.8031C30.2825 41.8572 31.7649 56.8031 31.78 56.9506C31.8254 57.349 31.5229 57.7178 31.0993 57.7621C31.0691 57.7621 31.0388 57.7621 31.0237 57.7621Z" fill="#45423D"/>
<path d="M57.0258 43.642C56.693 43.642 56.3603 43.583 56.0729 43.4207C54.3636 42.5059 55.1804 39.4371 55.3619 38.8322C55.4829 38.4338 55.8913 38.2125 56.2997 38.3305C56.7082 38.4486 56.935 38.8469 56.814 39.2453C56.4661 40.3961 56.3905 41.9158 56.7989 42.1371C56.9502 42.2256 57.5552 42.1961 58.3115 41.7682C59.0829 41.3404 59.9149 40.5141 59.9451 39.4961C59.9602 39.083 60.293 38.7732 60.7166 38.7732C61.1401 38.7879 61.4577 39.1273 61.4577 39.5256C61.4123 40.9125 60.5199 42.2256 59.0678 43.0371C58.4779 43.3764 57.7216 43.642 57.0258 43.642Z" fill="#45423D"/>
<path d="M53.0156 46.4167C52.8795 46.4167 52.7433 46.3872 52.6223 46.3135C52.5164 46.2544 50.0358 44.7938 49.0526 44.1741C48.3417 43.879 43.5467 43.6282 41.8677 44.779C41.5198 45.0151 41.0509 44.9413 40.8089 44.602C40.5669 44.2626 40.6425 43.8053 40.9904 43.5692C43.1383 42.079 48.8711 42.2856 49.8543 42.9053C50.7921 43.4954 53.3786 45.0151 53.3938 45.0298C53.7568 45.2364 53.8627 45.6938 53.6509 46.0479C53.5148 46.2839 53.2727 46.4167 53.0156 46.4167Z" fill="#45423D"/>
<path d="M44.3654 52.569C44.32 52.569 44.2747 52.569 44.2293 52.5542C43.8209 52.4952 43.5335 52.1116 43.594 51.7132C43.6394 51.3739 43.9268 51.1231 44.2595 51.0936C44.4713 51.005 45.0461 50.6509 45.4847 50.3854C47.6629 49.0575 48.7671 48.4673 49.5839 48.8657C50.5368 49.3378 53.2747 49.6624 54.2579 49.7509C54.6814 49.7952 54.9839 50.1493 54.9385 50.5477C54.8931 50.9608 54.5301 51.2559 54.1217 51.2116C53.7436 51.1821 50.431 50.8575 49.0091 50.2083C48.5099 50.2673 47.0427 51.1821 46.3167 51.6247C45.1671 52.3182 44.7436 52.569 44.3654 52.569Z" fill="#45423D"/>
<path d="M73.6344 33.2555C64.5739 33.2555 57.2227 26.0703 57.2227 17.2621C57.2227 8.45391 64.5739 1.25391 73.6344 1.25391C82.6949 1.25391 90.0462 8.43915 90.0462 17.2621C90.0462 26.0851 82.6798 33.2555 73.6344 33.2555ZM73.6344 2.72932C65.421 2.72932 58.7353 9.25063 58.7353 17.2621C58.7353 25.2736 65.421 31.7949 73.6344 31.7949C81.8479 31.7949 88.5336 25.2736 88.5336 17.2621C88.5336 9.25063 81.8479 2.72932 73.6344 2.72932Z" fill="#C65049"/>
<path d="M65.1629 26.2031C64.9663 26.2031 64.7696 26.1294 64.6335 25.9818C64.3461 25.6868 64.3461 25.2294 64.6335 24.9343L81.5293 8.51298C81.8318 8.23265 82.3007 8.23265 82.6033 8.51298C82.8907 8.80806 82.8907 9.26544 82.6033 9.56052L65.7075 25.9818C65.5562 26.1294 65.3596 26.2031 65.1629 26.2031Z" fill="#C65049"/>
<path d="M82.0275 26.2328C81.8309 26.2328 81.6342 26.159 81.4981 26.0114L64.6628 9.54587C64.3754 9.25079 64.3754 8.79341 64.6628 8.49833C64.9653 8.218 65.4342 8.218 65.7368 8.49833L82.5721 24.9787C82.8595 25.2737 82.8595 25.7311 82.5721 26.0262C82.4208 26.159 82.2242 26.2328 82.0275 26.2328Z" fill="#C65049"/>
</g>
<defs>
<clipPath id="clip0_3672_33821">
<rect width="90" height="90" fill="white"/>
</clipPath>
</defs>
</svg>
