<svg width="90" height="90" viewBox="0 0 90 90" fill="none" xmlns="http://www.w3.org/2000/svg">
<path d="M81.4241 24.6085C80.1081 23.4398 78.6409 22.4458 77.0526 21.6398C77.0375 21.6398 77.0375 21.6264 77.0224 21.6264H77.0072C73.9669 20.1085 70.5182 19.2891 66.9333 19.2891C61.4425 19.2891 56.2997 21.1697 52.4274 24.6085C48.5551 28.0338 46.4375 32.601 46.4375 37.4771C46.4375 42.3532 48.5551 46.9204 52.4274 50.3592C56.1636 53.6771 61.0946 55.5443 66.3585 55.6786C66.3736 55.6786 66.3888 55.6786 66.4039 55.692H66.4795C66.5098 55.692 66.5249 55.692 66.5551 55.692C66.6913 55.692 66.8123 55.692 66.9484 55.692C72.4392 55.692 77.582 53.8114 81.4392 50.3726C85.3115 46.9338 87.4291 42.3532 87.4291 37.4906C87.4291 32.6279 85.2963 28.0473 81.4241 24.6085ZM85.9165 37.4906C85.9165 38.9816 85.7047 40.4189 85.2812 41.8025C82.5736 42.7697 79.6089 43.3473 76.4173 43.495C76.5232 43.0114 76.6594 42.5279 76.7955 42.0443C78.0509 37.3159 80.577 33.1114 83.9652 30.0622C85.2056 32.3055 85.9165 34.8309 85.9165 37.4906ZM61.3367 42.2995C63.2577 43.092 65.2997 43.71 67.4325 44.1532C66.6913 47.4174 66.1316 50.8159 65.7837 54.3085C61.1098 54.0532 56.8896 52.2935 53.7283 49.5667C56.7988 47.7667 59.4157 45.2547 61.3367 42.2995ZM68.9451 44.4353C70.6997 44.7174 72.5148 44.8652 74.3602 44.8786C73.9064 47.5517 73.8762 50.3189 74.2694 53.0458C72.1215 53.8517 69.7619 54.3085 67.3115 54.3488C67.6593 50.9637 68.2039 47.6458 68.9451 44.4353ZM75.1165 41.7085C74.935 42.3129 74.7686 42.9309 74.6325 43.5488C72.8022 43.5488 71.0022 43.401 69.2627 43.1323C69.535 42.0309 69.8375 40.9294 70.1551 39.8547C71.9551 33.7159 74.2997 27.9801 76.977 23.2114C79.503 24.6085 81.6207 26.5294 83.1636 28.7861C79.3972 32.0234 76.6291 36.4697 75.1165 41.7085ZM68.6577 39.5055C68.3249 40.607 68.0224 41.7219 67.7501 42.8503C65.7535 42.4473 63.8476 41.8697 62.0627 41.1309C62.94 39.5995 63.6358 37.9741 64.1199 36.2816C65.6022 31.0159 65.103 25.6428 62.7434 21.0622C64.0896 20.7935 65.5115 20.6458 66.9484 20.6458C70.1098 20.6458 73.0896 21.3309 75.7215 22.5532C72.9988 27.1473 70.5636 32.9906 68.6577 39.5055ZM61.3215 21.3846C63.6207 25.7368 64.0896 30.8413 62.6224 35.798C62.1232 37.4368 61.4425 39.0085 60.5955 40.4861C55.6795 38.1622 51.8073 34.6294 49.7955 30.3174C49.7955 30.304 49.7804 30.304 49.7804 30.304C52.0341 26.0726 56.2089 22.795 61.3215 21.3846ZM59.8543 41.6547C57.9787 44.4756 55.4829 46.8398 52.5636 48.5055C49.6896 45.5503 47.9501 41.7085 47.9501 37.504C47.9501 35.5562 48.3283 33.7025 49.0089 31.9562C51.2476 36.0264 55.0896 39.3846 59.8543 41.6547ZM75.8879 52.3607C75.6005 49.9965 75.6913 47.4443 76.1602 44.8517C79.1249 44.7174 82.0442 44.2204 84.7367 43.3741C83.1031 47.2294 79.9266 50.4264 75.8879 52.3607Z" fill="#46433E"/>
<path d="M79.6383 78.2996C79.0938 77.3459 78.0198 76.6071 76.7492 76.2847L65.2232 73.5444C65.1778 73.5175 65.1324 73.4907 65.0871 73.4638L65.0417 73.4369H64.9963C64.9509 73.4369 64.9207 73.4504 64.8904 73.4504L61.4417 72.631C61.0938 72.5369 60.6854 72.5638 60.2921 72.6981C60.2013 72.631 60.0803 72.5907 59.9291 72.5638C59.8988 72.5504 59.8383 72.5369 59.7173 72.4966C56.8887 71.6772 51.0652 69.0847 43.835 60.8638C43.7896 60.8101 43.7291 60.7563 43.6686 60.716C42.2921 58.8623 40.5375 57.1698 38.4198 55.7324C39.0249 54.6981 39.4787 53.5832 39.7207 52.4011C40.3711 49.325 39.645 46.2354 37.6938 43.6966C35.7425 41.1578 32.7476 39.4384 29.2837 38.8608C25.8198 38.2832 22.3408 38.928 19.482 40.6608C19.1341 40.8757 18.8013 41.1041 18.4837 41.3459C18.4686 41.3593 18.4534 41.3593 18.4534 41.3727C16.5476 42.8101 15.1106 44.7444 14.3694 46.9205C13.84 48.4519 13.6887 50.0504 13.8854 51.6086C11.8736 52.213 10.0131 53.019 8.33411 54.0265C4.56773 56.3101 2.02655 59.4399 0.9526 63.0802C-0.438996 67.5802 0.634953 72.4429 3.99294 76.7951C7.19966 80.9593 12.4635 84.1563 18.4232 85.5399C24.398 86.9235 30.5845 86.4802 35.8635 84.2772L36.2266 84.1026C36.3778 84.0354 36.5291 83.9683 36.6803 83.9011C36.7408 83.8877 36.7862 83.8742 36.8316 83.8474C50.5358 78.9578 57.282 80.7713 57.3425 80.7847H57.3576C57.4635 80.7981 57.5694 80.825 57.6753 80.825C57.9627 81.1339 58.3408 81.3489 58.7644 81.416L65.5862 83.028C65.5862 83.028 65.6013 83.028 65.6013 83.0414H65.6165H65.6467L72.1661 84.5862C72.1963 84.5996 72.2266 84.613 72.2417 84.6265H72.2568H72.2719C72.3324 84.6399 72.3778 84.6399 72.4383 84.6399L74.0719 85.0295C74.6467 85.1772 75.2518 85.2041 75.8417 85.1369C76.0383 85.1638 76.1896 85.1235 76.2955 85.0563C76.84 84.9354 77.3845 84.7339 77.8686 84.4384C78.8064 83.8742 79.5173 83.0817 79.9257 82.1683L80.0921 81.3892C80.4249 80.4489 80.2585 79.4011 79.6383 78.2996ZM58.7946 79.4548L60.4434 74.2966C60.4736 74.1489 60.5644 74.0951 60.6854 74.028L60.8971 73.9205L63.9375 74.6459L62.0618 80.8519L59.1879 80.1668C59.0215 80.1399 58.8703 79.925 58.7946 79.8444C58.719 79.7638 58.7492 79.6026 58.7946 79.4548ZM65.4501 75.0086L67.0988 75.3981L65.2232 81.6041L63.5745 81.2145L65.4501 75.0086ZM68.6266 75.7608L70.4871 76.2041L68.6114 82.4101L66.7509 81.9668L68.6266 75.7608ZM72.0148 76.5533L73.7543 76.9698L71.8787 83.1757L70.124 82.7593L72.0148 76.5533ZM75.282 77.3325L76.1291 77.5339C76.4921 77.628 76.7946 77.7623 77.082 77.9504L75.3425 83.9145C75.04 83.9145 74.7526 83.8877 74.4803 83.8071L73.3913 83.5518L75.282 77.3325ZM78.3375 79.3071C78.5795 79.8041 78.6249 80.3817 78.4887 81.0533L78.3223 81.819C78.1862 82.4235 77.7627 83.0011 77.1425 83.3907L78.3375 79.3071ZM57.1761 79.4145C55.1946 79.0384 50.0971 78.5817 41.3997 80.9727C41.8383 80.5966 42.2467 80.2071 42.64 79.8041C50.5509 78.2593 54.1509 78.4339 54.4232 78.4474C54.6047 78.4877 54.7711 78.4474 54.9677 78.3265C55.1039 78.2459 55.1492 78.2056 55.4366 77.8698L55.4518 77.8429L56.1627 75.5459V75.5324L56.5862 74.1892C56.6467 73.9205 56.5408 73.5713 56.2081 73.4101C54.6955 72.6713 51.4434 70.8175 46.5123 66.8414C46.4064 66.3578 46.2702 65.8608 46.1039 65.3772C52.5778 71.6504 57.4635 73.3429 58.9913 73.7459C58.9459 73.8399 58.9005 73.9205 58.8551 74.0145L57.2064 79.1593C57.2064 79.2533 57.1913 79.3339 57.1761 79.4145ZM35.7274 83.1489C35.5459 83.2295 35.3795 83.3101 35.2131 83.3907C30.2518 85.4056 24.398 85.7951 18.7711 84.4653C13.0686 83.122 8.24336 80.1936 5.18789 76.231C2.19294 72.3489 1.24 67.8489 2.48033 63.5638C3.49378 60.1787 5.92907 57.1698 9.33243 55.1011C10.7997 54.2145 12.403 53.5026 14.1576 52.9787C14.2484 53.2877 14.3392 53.5966 14.4602 53.9056C12.7509 54.4429 11.1778 55.128 9.78621 55.9742C6.60974 57.8951 4.43159 60.5817 3.47865 63.7116C2.96437 65.4578 2.88873 67.2175 3.17613 68.9504C3.17613 68.9907 3.19126 69.031 3.19126 69.0713C3.70554 71.9727 5.27865 74.7668 7.66857 77.1444C7.7442 77.2787 7.85008 77.3862 8.01647 77.4802C10.8148 80.1265 14.6266 82.222 19.119 83.2966C20.0871 83.525 21.0702 83.713 22.0534 83.8339C22.0837 83.8608 22.1291 83.8742 22.1744 83.9011L22.2501 83.9414L22.3257 83.9011C22.3408 83.8877 22.3711 83.8877 22.3862 83.8742C27.7711 84.4922 33.1408 83.4578 37.2551 80.9593C38.4198 80.2474 39.4484 79.4548 40.3408 78.5817C41.9139 77.0369 43.0484 75.2772 43.6534 73.3429C44.4703 70.5489 44.2282 67.5668 42.9576 64.7459C41.7476 62.0727 39.6904 59.6548 36.9375 57.7071C37.1644 57.4519 37.3913 57.1966 37.603 56.928C43.7291 61.1996 46.5425 67.7145 44.7425 73.6384C43.7896 76.9563 41.3997 79.8444 37.845 82.0071C37.1795 82.4235 36.4686 82.813 35.7274 83.1489ZM5.08201 70.6429L5.20302 70.5757L5.36941 70.0519L10.6787 71.4489L9.02991 76.3116L8.63663 76.2041H8.62151C6.97277 74.525 5.76268 72.631 5.08201 70.6429ZM4.91563 64.0474C4.961 63.8862 5.02151 63.725 5.08201 63.5772L5.77781 63.7653L4.50722 67.6608C4.41647 66.4519 4.5526 65.2429 4.91563 64.0474ZM9.43832 57.8683L14.7778 59.2922L13.1139 64.2086L7.72907 62.7981L9.2568 58.0966C9.27193 58.0563 9.27193 58.016 9.27193 57.9757C9.34756 57.9354 9.39294 57.8951 9.43832 57.8683ZM24.7913 73.6921L19.5123 72.2951L21.0249 67.7683L26.3039 69.1518L24.7913 73.6921ZM14.203 65.9683L19.482 67.3519L17.9694 71.8787L12.6753 70.4817L14.203 65.9683ZM19.0434 73.6519L24.3375 75.0489L22.719 79.9384L17.4249 78.5414L19.0434 73.6519ZM26.319 74.0951L27.8165 69.5548L33.2316 70.9787L31.719 75.5056L26.319 74.0951ZM12.6602 65.5653L11.1324 70.0921L5.80806 68.6951L7.29042 64.1548L12.6602 65.5653ZM33.6854 69.622L28.2551 68.1981L29.8585 63.3354L35.2887 64.7862L33.6854 69.622ZM12.2215 71.8519L17.5156 73.2489L15.882 78.125L10.5879 76.728L12.2215 71.8519ZM25.8803 75.4519L31.2803 76.8757L29.6467 81.7653L24.277 80.3414L25.8803 75.4519ZM34.7593 71.3817L40.6282 72.9265L39.1913 77.4802L33.2618 75.922L34.7593 71.3817ZM41.0669 71.5563L35.2282 70.025L36.8316 65.2026L41.9593 66.5727C42.0803 66.9757 42.1862 67.3787 42.2618 67.7951L41.0669 71.5563ZM19.9358 66.0086L14.6568 64.6116L16.3055 59.6951L21.5694 61.1056L19.9358 66.0086ZM26.7425 67.7951L21.4635 66.4116L23.0971 61.522L28.361 62.9324L26.7425 67.7951ZM16.7593 58.3519L16.9257 57.8548C17.1829 58.1101 17.44 58.3653 17.7123 58.6071L16.7593 58.3519ZM15.7459 56.4175L15.2316 57.9489L11.0568 56.8205C12.2518 56.1489 13.598 55.5847 15.0198 55.1683C15.2467 55.5847 15.4887 56.0145 15.7459 56.4175ZM6.21647 62.3951L5.6568 62.2474C6.0047 61.5757 6.4131 60.931 6.89714 60.3265L6.21647 62.3951ZM15.4282 79.4817L15.0501 80.6101C13.6131 79.9653 12.282 79.1996 11.1022 78.3399L15.4282 79.4817ZM16.9711 79.8847L22.2652 81.2817L21.8417 82.5444C21.0097 82.4235 20.1929 82.2757 19.3761 82.0742C18.3929 81.8324 17.44 81.5369 16.5173 81.2011L16.9711 79.8847ZM23.8232 81.6981L27.6047 82.6921C26.2585 82.813 24.882 82.8265 23.4904 82.719L23.8232 81.6981ZM32.8081 77.2787L38.0871 78.6757C37.5274 79.1325 36.9223 79.5757 36.2719 79.9653C34.7593 80.8921 33.035 81.5907 31.2047 82.0742L32.8081 77.2787ZM37.2854 63.8325L38.3139 60.7429C39.5997 62.019 40.6131 63.4295 41.3089 64.9071L37.2854 63.8325ZM37.0434 59.6011L35.7728 63.4295L30.3274 61.9787L30.4938 61.4683C31.8249 61.1324 33.0955 60.6086 34.2753 59.8966C34.8501 59.5474 35.3946 59.1578 35.8938 58.728C36.2871 58.9966 36.6652 59.2922 37.0434 59.6011ZM34.3358 58.1235C33.3375 57.7339 32.4904 57.0757 31.7492 56.1086C30.8568 54.9668 30.4484 53.5832 30.5089 52.1459C30.8417 50.0235 31.9459 48.331 33.7156 47.2563C34.7593 46.625 35.924 46.0877 37.2551 45.9668C39.3576 50.0772 38.2081 55.1548 34.3358 58.1235ZM32.9139 45.9802C30.7207 47.3101 29.3442 49.4996 29.1627 51.9713C29.0114 53.6907 29.5408 55.4101 30.6148 56.8205C31.2501 57.6533 32.082 58.3384 33.156 58.9295C30.6148 60.4339 27.635 60.931 24.8215 60.5145L22.961 60.0175C22.9308 59.9907 22.9005 59.9772 22.8551 59.9638H22.84H22.8249C22.7644 59.9504 22.6887 59.9504 22.6282 59.9504L22.0081 59.7892C20.1929 59.0638 18.5744 57.922 17.3492 56.3907C17.319 56.1892 17.198 56.0145 16.9862 55.8802C18.3022 55.7727 19.3459 55.2892 20.4652 54.6175C22.0232 53.6638 23.324 52.213 23.8232 50.7892C24.7761 48.3847 24.4131 45.913 22.8249 43.8444C22.1593 42.9847 21.2518 42.3668 20.3139 41.8698C20.3291 41.8563 20.3442 41.8563 20.3442 41.8429C25.6383 38.619 32.6417 39.8414 36.3022 44.5966C36.3476 44.6638 36.3929 44.7175 36.4383 44.7847C35.2131 44.8787 34.0181 45.2951 32.9139 45.9802ZM19.1492 42.622C20.1627 43.0519 21.0702 43.7369 21.7358 44.5832C23.0669 46.3026 23.2787 48.3041 22.3862 50.3862C21.766 51.622 20.8736 52.616 19.6938 53.328C18.4988 54.0533 17.5761 54.4698 16.2299 54.5638C16.1845 54.4563 16.124 54.3489 16.0787 54.2414C14.2333 50.0907 15.5039 45.4966 19.1492 42.622ZM46.845 68.9907C50.5055 71.9324 53.2131 73.5444 54.9224 74.3907L54.635 75.2638C54.635 75.2638 54.635 75.2638 54.635 75.2772L54.045 77.0907H53.9089C52.1997 77.1847 49.0686 77.3459 44.0165 78.2459C45.0148 76.9429 45.7862 75.5593 46.2551 74.1354C46.7845 72.4563 46.966 70.7235 46.845 68.9907Z" fill="#46433E"/>
<path d="M16.7282 35.2078C7.68279 35.2078 0.316406 28.6661 0.316406 20.6332C0.316406 12.6004 7.66767 6.05859 16.7282 6.05859C25.7887 6.05859 33.1399 12.6004 33.1399 20.6332C33.1399 28.6661 25.7735 35.2078 16.7282 35.2078ZM16.7282 7.40188C8.51472 7.40188 1.82901 13.3392 1.82901 20.6332C1.82901 27.9273 8.51472 33.8646 16.7282 33.8646C24.9416 33.8646 31.6273 27.9273 31.6273 20.6332C31.6273 13.3392 24.9416 7.40188 16.7282 7.40188Z" fill="#C65049"/>
<path d="M8.25863 28.7859C8.06199 28.7859 7.86535 28.7187 7.72922 28.5844C7.44182 28.3158 7.44182 27.8993 7.72922 27.6307L24.625 12.6934C24.9275 12.4381 25.3964 12.4381 25.699 12.6934C25.9864 12.962 25.9864 13.3784 25.699 13.6471L8.80317 28.5844C8.65191 28.7187 8.45527 28.7859 8.25863 28.7859Z" fill="#C65049"/>
<path d="M25.1232 28.813C24.9266 28.813 24.7299 28.7459 24.5938 28.6115L7.75851 13.6071C7.47112 13.3384 7.47112 12.922 7.75851 12.6533C8.06104 12.3981 8.52994 12.3981 8.83246 12.6533L25.6678 27.6712C25.9552 27.9399 25.9552 28.3563 25.6678 28.625C25.5165 28.7459 25.3199 28.813 25.1232 28.813Z" fill="#C65049"/>
</svg>
