<svg width="90" height="90" viewBox="0 0 90 90" fill="none" xmlns="http://www.w3.org/2000/svg">
<path d="M63.3033 39.8075C60.2024 39.8075 56.8747 39.2745 54.2276 38.6502C46.3167 36.4573 37.4529 27.7009 36.9991 27.3964C36.8478 27.2441 36.6965 27.0918 36.8478 26.772C36.9991 26.4674 36.9991 26.2999 37.1503 26.1476C37.4529 25.8431 46.3167 18.9598 52.9873 15.9903C55.7856 14.7416 59.0377 14.1172 62.7587 14.1172C66.631 14.1172 70.5184 14.8938 73.468 16.3101C78.1268 18.503 88.5184 26.1476 88.9873 26.4674C89.1386 26.6197 89.2898 26.772 89.2898 27.0918C89.2898 27.3964 89.1386 27.5639 88.9873 27.7162C88.5184 28.0207 76.8713 36.6248 72.2125 38.4979C69.2932 39.5943 65.6327 39.8075 63.3033 39.8075ZM38.8596 26.9243C41.0377 28.9497 48.3285 35.3608 54.6966 37.2339C57.1772 37.8583 60.4445 38.3304 63.394 38.3304C66.6613 38.3304 69.4445 37.8583 71.4713 37.0817C75.3436 35.5131 84.2075 29.1172 87.1571 27.0766C84.5251 25.2035 76.4478 19.4167 72.7117 17.6959C70.0797 16.4471 66.3436 15.6705 62.6226 15.6705C59.2041 15.6705 56.1033 16.2949 53.6226 17.5436C48.1772 19.904 41.0377 25.2187 38.8596 26.9243Z" fill="#46433E"/>
<path d="M80.1085 26.7256C79.9572 26.7256 79.806 26.7256 79.6396 26.5733C79.6396 26.5733 72.3942 21.6241 69.4446 20.2231C66.3438 18.8221 60.7471 18.1977 56.7085 20.0708C52.3673 22.0962 46.211 26.5581 46.211 26.5581C45.9085 26.8627 45.4396 26.7104 45.1219 26.4058C44.8194 26.1013 44.9707 25.6292 45.2732 25.3094C45.5757 25.1571 51.5808 20.6952 56.0732 18.6546C60.5808 16.614 66.6312 17.086 70.0497 18.8068C73.1505 20.2079 80.2446 25.1571 80.5623 25.3246C80.8648 25.6292 81.0312 26.1013 80.7135 26.4211C80.5774 26.5733 80.4261 26.7256 80.1085 26.7256Z" fill="#46433E"/>
<path d="M63.0756 36.9289C57.3277 36.9289 52.5176 32.2386 52.5176 26.2995C52.5176 23.802 53.289 21.4568 54.847 19.5837C55.1495 19.2792 55.6184 19.2792 55.9361 19.4315C56.2386 19.736 57.0403 19.3858 56.0873 20.5279C54.6957 22.0964 54.0756 24.1218 54.0756 26.3147C54.0756 31.3096 58.1142 35.3756 63.0756 35.3756C68.0369 35.3756 72.0756 31.3096 72.0756 26.3147C72.0756 24.1218 71.3041 22.0964 69.8974 20.3756C69.5949 20.071 69.5949 19.599 70.0487 19.2792C69.9428 19.2487 70.8201 18.9746 71.1377 19.4315C72.6957 21.3046 73.6184 23.802 73.6184 26.3147C73.4672 32.0863 68.8235 36.9289 63.0756 36.9289Z" fill="#46433E"/>
<path d="M63.0758 29.1168C61.2153 29.1168 59.8086 27.7158 59.8086 25.8274C59.8086 23.9391 61.2002 22.5381 63.0758 22.5381C64.9363 22.5381 66.343 23.9391 66.343 25.8274C66.3279 27.5635 64.7851 29.1168 63.0758 29.1168ZM63.0758 24.1218C62.138 24.1218 61.3666 24.8985 61.3666 25.8427C61.3666 26.7868 62.138 27.5635 63.0758 27.5635C64.0136 27.5635 64.7851 26.7868 64.7851 25.8427C64.7851 24.8985 63.9985 24.1218 63.0758 24.1218Z" fill="#46433E"/>
<path d="M52.2151 14.1172C51.9126 14.1172 51.7462 13.9649 51.5949 13.6451L49.4168 9.73138C49.2655 9.42681 49.4168 8.95473 49.7193 8.63494C50.0218 8.48265 50.4907 8.63494 50.8084 8.93951L52.9865 12.838C53.1378 13.1425 52.9865 13.6146 52.684 13.9344C52.5176 14.1172 52.3663 14.1172 52.2151 14.1172Z" fill="#46433E"/>
<path d="M48.3264 16.142C48.0239 16.142 47.8575 15.9897 47.7062 15.6699L45.5281 11.7714C45.3768 11.4669 45.5281 10.9948 45.8306 10.675C46.1331 10.5227 46.602 10.675 46.9197 10.9795L49.0978 14.878C49.2491 15.1826 49.0978 15.6547 48.7953 15.9745C48.6441 15.9897 48.4777 16.142 48.3264 16.142Z" fill="#46433E"/>
<path d="M44.6077 18.183C44.3051 18.183 44.1388 18.0307 43.9875 17.7109L41.8093 13.8124C41.6581 13.5079 41.8093 13.0358 42.1119 12.716C42.4144 12.5637 42.8833 12.716 43.2009 13.0206L45.3791 16.919C45.5303 17.2236 45.3791 17.6957 45.0766 18.0155C44.7589 18.183 44.6077 18.183 44.6077 18.183Z" fill="#46433E"/>
<path d="M18.2132 83.0404C18.062 83.0404 18.062 83.0404 17.9107 83.0404C17.4418 82.8881 17.2906 82.416 17.4418 82.0962C17.4418 81.9439 20.709 73.5074 21.6317 71.3145C22.1006 70.218 22.7208 69.2891 23.1897 68.3449C23.6586 67.5683 24.1275 66.7764 24.2788 66.152C25.5191 62.4058 26.2906 59.4363 26.6082 57.7155C26.7595 55.9947 27.2284 53.9693 27.546 52.081L27.8485 50.5124C28.3174 48.4871 29.2401 45.35 30.0267 43.7967C30.3292 43.3246 30.6469 41.9236 30.9645 40.8272C31.267 39.7307 31.5847 38.6343 31.9023 37.8576L32.0536 37.553C33.6116 34.1114 34.2317 32.086 33.9141 31.4617C33.6116 30.8373 32.9763 30.5175 32.6737 30.3652C31.9023 30.0607 30.8132 30.0607 30.1931 30.3652C29.7242 30.5175 28.5141 31.6444 26.1847 35.8627C26.0334 36.1673 25.4132 37.7358 24.9443 38.9845C24.3242 40.8576 23.5527 42.883 23.0838 43.8272C22.7813 44.4515 22.4637 45.2282 22.146 46.1723C21.0569 48.8221 20.588 49.9185 19.8166 49.9185C18.5763 49.9185 17.7746 49.416 15.4452 47.2383C15.2939 47.086 15.1427 46.7662 15.2939 46.614C15.4452 45.0454 15.9141 43.7967 16.2317 42.7155C16.5342 41.9388 16.504 40.9642 16.504 40.5074C16.3527 40.0353 16.504 39.4871 16.8065 39.3348C19.4384 38.5581 21.3443 34.6749 22.1309 32.9541C22.4334 32.1774 22.5998 31.8576 22.9023 31.7053C23.0536 31.7053 23.0536 31.553 23.2048 31.553C25.383 31.081 28.8015 26.7104 29.8754 24.9896L30.0267 24.8373C31.4183 23.8931 35.1544 21.015 35.6233 18.6698C35.7746 17.4211 34.6553 15.9287 34.0351 15.3043C33.7326 15.6089 33.2637 16.081 32.7948 16.4008C30.1628 19.0505 25.0351 23.8931 20.225 25.7815C18.9847 26.2535 18.0469 27.8068 17.4267 28.751C17.2754 29.0556 17.1242 29.3754 16.9578 29.5277C16.6553 29.8322 16.4889 30.152 16.1863 30.6241C14.946 32.1926 13.2821 34.7662 9.39475 37.8881L9.24349 38.0403C8.15442 38.9845 6.91408 39.9135 5.97626 40.3855C5.50736 40.5378 3.34433 41.3297 2.70904 42.883C2.40652 43.8272 2.55778 45.3805 2.8603 46.949C3.16282 48.6698 3.48047 50.3906 3.16282 51.7916C2.8603 53.3601 4.41828 66.3348 4.87206 68.3602C5.64349 71.482 3.01156 78.6698 2.69391 79.4464C2.54265 79.9185 2.07374 80.0708 1.7561 79.9185C1.28719 79.7662 1.13593 79.2942 1.28719 78.9744C2.05862 76.949 3.91912 71.0099 3.29895 68.817C2.69391 66.7916 1.15105 53.3449 1.45357 51.4718C1.7561 50.3754 1.45357 48.6546 1.15105 47.2535C0.848533 45.3805 0.530886 43.5074 0.999793 42.2586C1.93761 40.0657 4.41828 39.1368 5.18971 38.817C5.96114 38.5124 7.36786 37.416 7.98803 36.7916L8.13929 36.6393C11.8603 33.5175 13.5695 31.1723 14.8099 29.6038C15.1124 29.1317 15.43 28.8272 15.7477 28.5074C15.899 28.3551 15.899 28.2028 16.0502 28.0353C16.6704 26.9388 17.7595 25.0657 19.62 24.4414C24.2788 22.7206 29.0889 17.8779 31.7359 15.3805C33.5964 13.6596 33.7477 13.3551 34.3679 13.6596C35.1393 14.1317 37.4687 16.3094 36.9998 18.8221C36.3796 21.9439 31.8721 25.5378 31.1006 26.0099C30.3292 26.9541 26.7595 32.1013 23.8099 32.8931C23.8099 33.0454 23.6586 33.1977 23.5074 33.5175C22.5695 35.3906 20.7847 39.152 17.9863 40.4008C17.9863 41.0251 17.7746 41.7865 17.6082 42.7307C17.3057 43.6749 16.988 44.7561 16.8368 46.0201C18.546 47.7409 19.0149 48.0454 19.4687 48.0454C19.7712 47.5733 20.2401 46.3246 20.709 45.3957C21.0116 44.4515 21.4805 43.6749 21.7981 43.0505C22.267 42.1063 23.0384 40.2332 23.6586 38.3602C24.2788 36.4871 24.7477 35.3906 24.899 35.0708C26.7595 31.6292 28.4687 29.6038 29.709 28.9794C30.6469 28.5074 32.1897 28.5074 33.43 28.9794C34.5191 29.4515 35.1393 30.0759 35.6082 31.0048C36.0771 32.4058 35.1393 34.9033 33.5964 38.3449L33.4452 38.6495C33.1427 39.2739 32.9763 40.3703 32.6737 41.2992C32.3712 42.7003 31.9023 43.949 31.5847 44.7409C30.8132 45.9896 30.0267 48.8068 29.5729 50.9845L29.2704 52.3855C28.9679 54.1063 28.499 56.1317 28.3326 57.8525C28.1813 59.7256 27.2435 62.5429 26.0032 66.6089C25.7006 67.3855 25.2317 68.1774 24.7628 68.9541C24.2939 69.8982 23.6737 70.8272 23.3712 71.7713C22.4334 73.9642 19.1813 82.4008 19.1813 82.553C18.8334 82.8881 18.5309 83.0404 18.2132 83.0404Z" fill="#46433E"/>
<path d="M32.9609 37.2489C32.8096 37.2489 32.8096 37.2489 32.6584 37.2489C32.1894 37.0967 31.5693 36.9444 30.9491 36.7769C29.2399 36.3048 28.1508 36.1525 27.6819 35.5281C26.5928 34.1271 28.771 30.0611 29.5424 29.117C29.8449 28.8124 30.3138 28.6449 30.6315 28.9647C30.934 29.2692 31.1004 29.7413 30.7827 30.0611C29.1491 31.5535 28.771 34.1271 28.9222 34.7515C29.0735 34.9038 30.4802 35.2236 31.2516 35.3758C32.0231 35.5281 32.6432 35.6804 33.2634 35.8479C33.7323 36.0002 33.8836 36.4723 33.7323 36.7921C33.581 37.0967 33.2785 37.2489 32.9609 37.2489Z" fill="#46433E"/>
<path d="M20.0882 48.9598C19.9369 48.9598 19.9369 48.9598 19.7857 48.9598C19.3168 48.8075 19.1655 48.3354 19.3168 48.0156C19.468 47.711 19.468 47.5435 18.6966 46.9191C17.7588 46.1425 16.5184 44.8938 16.3672 42.2288C16.3672 41.7567 16.6697 41.4521 17.1386 41.4521C17.6075 41.4521 17.7588 41.6653 17.7588 42.1374C17.91 44.1628 18.9991 45.1983 19.7705 45.8227C20.3907 46.4471 21.3285 47.2237 20.8596 48.64C20.6932 48.8075 20.3907 48.9598 20.0882 48.9598Z" fill="#46433E"/>
<path d="M31.7198 20.5279C31.0996 20.5279 30.4794 20.2234 29.708 19.7513L29.4055 19.599C29.103 19.4467 28.9366 18.9746 29.103 18.5025C29.2542 18.198 29.7231 18.0305 30.1921 18.198C30.3433 18.198 30.4946 18.3503 30.661 18.3503C30.9635 18.5025 31.5988 18.9746 31.9013 18.9746C32.3702 18.9746 33.7618 17.4061 34.8509 15.533C35.0021 15.2284 35.6223 15.0609 35.94 15.2284C36.2425 15.3807 36.4089 16.0051 36.2425 16.3249C35.4408 17.3909 33.429 20.3756 31.7198 20.5279Z" fill="#46433E"/>
<path d="M19.9966 38.6348C19.8453 38.6348 19.6941 38.6348 19.5277 38.4825C19.2252 38.1932 19.2252 37.7668 19.5277 37.4774C20.1478 36.7617 22.0083 35.7718 24.3378 36.8987C24.6403 37.051 24.8067 37.4774 24.6403 37.9038C24.489 38.1932 24.0201 38.3302 23.5512 38.1932C21.842 37.3404 20.4655 38.452 20.3142 38.5891C20.0117 38.7414 20.1478 38.6348 19.9966 38.6348Z" fill="#46433E"/>
<path d="M30.6305 56.939C30.3279 56.939 29.8893 56.9085 29.617 56.7867C28.8607 56.4974 28.1347 56.1471 27.5296 55.5228C27.2271 55.2182 27.2271 54.7461 27.5296 54.4263C27.8321 54.1217 28.3011 54.1217 28.6187 54.4263C29.0876 54.8984 29.5565 55.203 30.0103 55.3705C30.7817 55.5228 31.5683 55.3705 31.7195 55.2182C31.5683 53.9695 30.9481 52.7207 30.7817 52.4009C30.691 52.2182 30.691 52.2486 30.6305 52.0964C30.4792 51.472 30.1616 50.8476 30.0103 50.2233C29.7078 48.9745 29.2389 47.7258 28.9212 47.2537C28.6187 46.9491 29.1935 46.4923 29.5111 46.1725C29.8137 45.8679 29.8439 45.9898 30.1616 46.3096C30.6305 46.9339 30.933 48.1827 31.4019 49.7512C31.5532 50.3755 31.7044 50.9999 32.0221 51.6243C32.3246 52.0964 32.9599 53.3451 33.1111 54.7461C33.2624 55.3705 33.1565 55.8121 32.7027 56.3299C32.3851 56.6953 31.4019 56.939 30.6305 56.939Z" fill="#46433E"/>
<path d="M35.9079 50.2241C32.8071 50.2241 29.3886 47.8789 29.2373 47.7266C28.9348 47.422 29.0256 47.0413 29.3281 46.7215C29.6306 46.417 29.8575 46.1581 30.1751 46.4779C30.1751 46.4779 34.0474 49.2951 36.8457 48.5032C37.7835 48.1987 38.4188 47.6505 38.5701 47.1784C38.5701 47.1784 38.5701 47.0261 38.4188 46.8738C37.3298 45.7774 36.0743 44.9246 35.6054 44.6048C35.4541 44.4525 35.3029 44.3459 35.3029 44.3459C33.1247 42.4728 32.5046 42.2596 31.5819 41.7875C31.113 41.6352 30.9617 41.1631 31.113 40.6911C31.2642 40.219 31.7331 40.0667 32.202 40.219C33.4424 40.6911 34.0625 41.1631 36.3919 43.0362L36.4978 43.0972C37.118 43.4017 38.3735 44.3307 39.8104 45.5337C40.2793 46.0058 40.4306 46.6301 40.2793 47.2545C39.9768 48.351 39.16 49.1581 37.9197 49.8281C37.3298 50.1631 36.3768 50.2241 35.9079 50.2241Z" fill="#46433E"/>
<path d="M72.9528 87.8523C63.9074 87.8523 56.541 80.4361 56.541 71.3295C56.541 62.2229 63.9074 54.8066 72.9528 54.8066C81.9982 54.8066 89.3645 62.2229 89.3645 71.3295C89.3645 80.4361 81.9982 87.8523 72.9528 87.8523ZM72.9528 56.3295C64.7393 56.3295 58.0536 63.0604 58.0536 71.3295C58.0536 79.5985 64.7393 86.3295 72.9528 86.3295C81.1662 86.3295 87.8519 79.5985 87.8519 71.3295C87.8519 63.0604 81.1662 56.3295 72.9528 56.3295Z" fill="#C65049"/>
<path d="M64.4832 80.5886C64.2866 80.5886 64.09 80.5124 63.9538 80.3602C63.6664 80.0556 63.6664 79.5835 63.9538 79.2789L80.8496 62.3449C81.1521 62.0556 81.6211 62.0556 81.9236 62.3449C82.211 62.6495 82.211 63.1216 81.9236 63.4261L65.0278 80.3602C64.8765 80.5124 64.6799 80.5886 64.4832 80.5886Z" fill="#C65049"/>
<path d="M81.3478 80.6188C81.1512 80.6188 80.9546 80.5427 80.8184 80.3904L63.9831 63.3803C63.6957 63.0757 63.6957 62.6036 63.9831 62.299C64.2856 62.0097 64.7546 62.0097 65.0571 62.299L81.8924 79.3092C82.1798 79.6138 82.1798 80.0858 81.8924 80.3904C81.7411 80.5427 81.5445 80.6188 81.3478 80.6188Z" fill="#C65049"/>
</svg>
