<svg width="90" height="90" viewBox="0 0 90 90" fill="none" xmlns="http://www.w3.org/2000/svg">
<g clip-path="url(#clip0_3672_30572)">
<path d="M42.8682 66.2592C40.7959 67.7973 38.4211 69.3049 37.0144 69.777C34.8211 70.5689 31.9472 71.1628 28.6648 71.178C24.8984 71.1933 22.2816 70.5537 19.6194 69.9293C13.0396 68.041 5.40094 61.2034 3.0564 59.1476C5.41607 57.4115 12.7673 51.8836 18.4245 49.3709C21.0867 48.107 24.3841 47.4826 27.8329 47.4826C31.5993 47.4826 35.5169 48.2745 38.1791 49.5384C39.4346 50.178 41.1589 51.1222 43.0346 52.3861V50.4978C41.4614 49.5537 40.0547 48.6095 38.9656 48.1222C35.9858 46.7059 31.9169 45.9141 27.9841 45.9141C24.2177 45.9141 20.769 46.5537 17.9556 47.9699C11.2093 51.1222 1.96733 58.2186 1.64968 58.5384C1.48329 58.6907 1.33203 58.8582 1.33203 59.178C1.33203 59.3455 1.33203 59.6501 1.49842 59.8176C1.81606 60.1374 11.0581 69.1374 19.211 71.4978C21.8732 72.2897 25.3219 72.7618 28.6194 72.7618C31.1304 72.7618 34.5791 72.442 37.5589 71.3455C38.9656 70.8735 40.8564 69.6095 43.0497 68.3455L42.8682 66.2592Z" fill="#46433E"/>
<path d="M42.2329 56.9392C42.3993 56.2996 42.3992 55.8275 42.5505 55.2031C40.1908 53.4671 37.0598 51.5788 35.3354 50.6194C31.7354 49.0356 25.4581 48.4112 20.9203 50.4671C16.2161 52.6752 10.1051 57.4112 9.78748 57.5635C9.46984 57.8833 9.31858 58.3554 9.6211 58.6752C9.93875 58.995 10.4077 59.1473 10.7253 58.8427C10.7253 58.8427 14.4917 55.995 18.2429 53.6346C17.6077 55.0508 17.1387 56.6346 17.1387 58.2183C17.1387 64.2183 21.9942 69.1067 27.9539 69.1067C33.9135 69.1067 38.769 64.2183 38.769 58.2183C38.769 56.6346 38.4513 55.0661 37.8312 53.8021C39.4194 55.0508 40.9925 56.1473 42.2329 56.9392ZM27.9085 67.6447C22.7354 67.6447 18.8329 63.396 18.7119 58.5229C18.6665 56.3148 19.4984 54.259 20.9051 52.5229L21.0715 52.3554C21.2379 52.2031 21.5404 52.0813 21.8581 51.9138C26.0934 50.0255 31.569 50.6194 34.8665 52.1879C35.0329 52.1879 35.0329 52.3402 35.1841 52.3402C36.5908 54.0762 37.3774 56.132 37.3774 58.4924C37.3169 63.4874 33.0816 67.6447 27.9085 67.6447Z" fill="#46433E"/>
<path d="M27.9683 54.7314C26.0926 54.7314 24.5195 56.3152 24.5195 58.2035C24.5195 60.0918 26.0926 61.6756 27.9683 61.6756C29.8439 61.6756 31.417 60.0918 31.417 58.2035C31.417 56.3152 29.8439 54.7314 27.9683 54.7314ZM27.9683 59.9396C27.0305 59.9396 26.0926 59.1477 26.0926 58.0512C26.0926 56.9548 26.8792 56.1629 27.9683 56.1629C28.9061 56.1629 29.8439 56.9548 29.8439 58.0512C29.8439 59.1477 29.0725 59.9396 27.9683 59.9396Z" fill="#46433E"/>
<path d="M8.84827 49.3703C9.01465 49.5226 9.31717 49.6901 9.48356 49.6901C9.64995 49.6901 9.80121 49.6901 9.95247 49.5226C10.2701 49.2028 10.4214 48.7307 10.1189 48.4109L6.82137 43.8272C6.50373 43.5074 6.03482 43.3551 5.71717 43.6749C5.39953 43.9947 5.24827 44.4668 5.55079 44.7865L8.84827 49.3703Z" fill="#46433E"/>
<path d="M4.93082 52.6749C5.09721 52.6749 5.24847 52.6749 5.39973 52.5227C5.71738 52.2029 5.86864 51.7308 5.56612 51.411L2.26864 46.8425C1.95099 46.5227 1.48209 46.3704 1.16444 46.6749C0.846791 46.9947 0.695531 47.4668 0.998052 47.7866L4.29553 52.3704C4.46192 52.6749 4.61318 52.6749 4.93082 52.6749Z" fill="#46433E"/>
<path d="M18.0912 44.4828C18.2576 44.8026 18.5602 44.9549 18.7265 44.9549C18.8929 44.9549 19.0442 44.9549 19.0442 44.8026C19.3618 44.6503 19.5131 44.163 19.3618 43.691L16.6997 38.6351C16.5333 38.3153 16.0644 38.163 15.5954 38.3153C15.2778 38.4676 15.1265 38.9549 15.2778 39.427L18.0912 44.4828Z" fill="#46433E"/>
<path d="M13.2353 46.6908C13.4017 47.0106 13.7042 47.1629 14.0218 47.0106C14.1882 47.0106 14.3395 47.0106 14.3395 46.8431C14.6571 46.6908 14.8084 46.2035 14.6571 45.7314L11.8286 40.8431C11.6622 40.5233 11.1933 40.371 10.7244 40.5233C10.4067 40.6756 10.2554 41.1629 10.4067 41.635L13.2353 46.6908Z" fill="#46433E"/>
<path d="M52.5773 72.8835C45.8311 72.8835 40.3555 67.3556 40.3555 60.579C40.3555 53.7871 45.8462 48.2744 52.5773 48.2744C59.3084 48.2744 64.7992 53.8023 64.7992 60.579C64.8143 67.3556 59.3235 72.8835 52.5773 72.8835ZM52.6378 49.8277C46.8445 49.8277 41.9891 54.5638 41.9891 60.5485C41.9891 66.5485 46.6933 71.2693 52.6378 71.2693C58.5975 71.2693 63.2866 66.5333 63.2866 60.5485C63.2866 54.5638 58.4311 49.8277 52.6378 49.8277Z" fill="#46433E"/>
<path d="M45.3784 61.5225C44.9094 61.5225 44.5918 61.2027 44.5918 60.7306C44.5918 56.1468 48.1918 52.5225 52.7447 52.5225C53.2136 52.5225 53.5313 52.8423 53.5313 53.3143C53.5313 53.7864 53.2136 54.1062 52.7447 54.1062C49.1447 54.1062 46.1649 57.1062 46.1649 60.7306C46.1498 61.2027 45.8473 61.5225 45.3784 61.5225Z" fill="#46433E"/>
<path d="M56.9644 46.8426C55.0887 46.8426 53.5156 45.2588 53.5156 43.3705C53.5156 41.4822 55.0887 39.8984 56.9644 39.8984C58.84 39.8984 60.4131 41.4822 60.4131 43.3705C60.4131 45.2588 58.8551 46.8426 56.9644 46.8426ZM56.9644 41.4822C55.8602 41.4822 55.0887 42.2741 55.0887 43.3705C55.0887 44.4822 55.8753 45.2588 56.9644 45.2588C58.0534 45.2588 58.84 44.467 58.84 43.3705C58.8551 42.2741 57.9022 41.4822 56.9644 41.4822Z" fill="#46433E"/>
<path d="M68.4154 55.0508C66.691 55.0508 65.4355 53.6345 65.4355 52.0508C65.4355 50.467 66.8423 49.0508 68.4154 49.0508C69.9734 49.0508 71.3952 50.467 71.3952 52.0508C71.3952 53.6345 69.9734 55.0508 68.4154 55.0508ZM68.4154 50.6345C67.6288 50.6345 67.0087 51.2741 67.0087 52.0508C67.0087 52.8274 67.6439 53.467 68.4154 53.467C69.2019 53.467 69.8221 52.8274 69.8221 52.0508C69.8221 51.2741 69.2019 50.6345 68.4154 50.6345Z" fill="#46433E"/>
<path d="M44.8932 79.3554C43.1688 79.3554 41.5957 77.9392 41.5957 76.0356C41.5957 74.2996 43.0024 72.7158 44.8932 72.7158C46.7839 72.7158 48.1907 74.1321 48.1907 76.0356C48.0394 77.9392 46.6175 79.3554 44.8932 79.3554ZM44.8932 74.2387C43.9554 74.2387 43.1688 75.0305 43.1688 75.9747C43.1688 76.9189 43.9554 77.7107 44.8932 77.7107C45.831 77.7107 46.6176 76.9189 46.6176 75.9747C46.6176 75.0305 45.831 74.2387 44.8932 74.2387Z" fill="#46433E"/>
<path d="M69.8227 68.7868C67.7806 68.7868 66.2227 67.2031 66.2227 65.1625C66.2227 63.1066 67.7958 61.5381 69.8227 61.5381C71.8495 61.5381 73.4227 63.1218 73.4227 65.1625C73.4378 67.2031 71.8647 68.7868 69.8227 68.7868ZM69.8227 63.0914C68.7185 63.0914 67.7806 64.0355 67.7806 65.1472C67.7806 66.2589 68.7185 67.2031 69.8227 67.2031C70.9269 67.2031 71.8647 66.2589 71.8647 65.1472C71.8647 64.0508 70.9117 63.0914 69.8227 63.0914Z" fill="#46433E"/>
<path d="M81.4226 66.8829C76.7184 66.8829 72.8008 62.9387 72.8008 58.2027C72.8008 53.4666 76.7184 49.5225 81.4226 49.5225C86.1268 49.5225 90.0445 53.4666 90.0445 58.2027C90.0445 62.9387 86.1268 66.8829 81.4226 66.8829ZM81.4226 51.1062C77.505 51.1062 74.3739 54.2585 74.3739 58.2027C74.3739 62.1468 77.505 65.2991 81.4226 65.2991C85.3403 65.2991 88.4714 62.1468 88.4714 58.2027C88.4714 54.2585 85.3403 51.1062 81.4226 51.1062Z" fill="#46433E"/>
<path d="M76.4018 58.9945C75.9329 58.9945 75.6152 58.6747 75.6152 58.2026C75.6152 54.8828 78.2774 52.3701 81.4085 52.3701C81.8774 52.3701 82.1951 52.6899 82.1951 53.162C82.1951 53.6341 81.8774 53.9539 81.4085 53.9539C79.0489 53.9539 77.1732 55.8422 77.1732 58.2178C77.1883 58.6747 76.8707 58.9945 76.4018 58.9945Z" fill="#46433E"/>
<path d="M65.5876 82.8278C61.9876 82.8278 59.0078 79.8278 59.0078 76.2035C59.0078 72.5791 61.9876 69.5791 65.5876 69.5791C69.1876 69.5791 72.1675 72.5791 72.1675 76.2035C72.1675 79.8278 69.2028 82.8278 65.5876 82.8278ZM65.5876 71.1476C62.7591 71.1476 60.5658 73.3558 60.5658 76.2035C60.5658 79.0512 62.7591 81.2593 65.5876 81.2593C68.4162 81.2593 70.6095 79.0512 70.6095 76.2035C70.6095 73.3558 68.4162 71.1476 65.5876 71.1476Z" fill="#46433E"/>
<path d="M62.2905 77.1471C61.8216 77.1471 61.5039 76.8273 61.5039 76.3552C61.5039 73.8273 63.5459 71.7715 66.0568 71.7715C66.5258 71.7715 66.8434 72.0913 66.8434 72.5634C66.8434 73.0354 66.5258 73.3552 66.0568 73.3552C64.4837 73.3552 63.077 74.6192 63.077 76.3552C63.0921 76.8273 62.6232 77.1471 62.2905 77.1471Z" fill="#46433E"/>
<path d="M69.0498 47.9391C65.2834 47.9391 62.1523 44.7868 62.1523 40.9949C62.1523 37.2031 65.2834 34.0508 69.0498 34.0508C72.8162 34.0508 75.9473 37.2031 75.9473 40.9949C75.9473 44.7868 72.8011 47.9391 69.0498 47.9391ZM69.0498 35.6345C66.07 35.6345 63.7255 38.0102 63.7255 40.9949C63.7255 43.9949 66.0851 46.3554 69.0498 46.3554C72.0297 46.3554 74.3742 43.9797 74.3742 40.9949C74.3742 38.0102 72.0145 35.6345 69.0498 35.6345Z" fill="#46433E"/>
<path d="M65.435 42.106C64.9661 42.106 64.6484 41.7862 64.6484 41.3142C64.6484 38.634 66.8417 36.5781 69.3526 36.5781C69.8215 36.5781 70.1392 36.8979 70.1392 37.37C70.1392 37.8421 69.8215 38.1619 69.3526 38.1619C67.6283 38.1619 66.2215 39.5781 66.2215 41.3142C66.2215 41.7862 65.7526 42.106 65.435 42.106Z" fill="#46433E"/>
<path d="M37.7555 33.7459C28.7101 33.7459 21.3438 26.3296 21.3438 17.223C21.3438 8.11644 28.7101 0.700195 37.7555 0.700195C46.8009 0.700195 54.1673 8.11644 54.1673 17.223C54.1673 26.3296 46.8009 33.7459 37.7555 33.7459ZM37.7555 2.22304C29.5421 2.22304 22.8564 8.954 22.8564 17.223C22.8564 25.4921 29.5421 32.223 37.7555 32.223C45.969 32.223 52.6547 25.4921 52.6547 17.223C52.6547 8.954 45.969 2.22304 37.7555 2.22304Z" fill="#C65049"/>
<path d="M29.284 26.4675C29.0874 26.4675 28.8907 26.3914 28.7546 26.2391C28.4672 25.9345 28.4672 25.4624 28.7546 25.1579L45.6504 8.22384C45.9529 7.9345 46.4218 7.9345 46.7244 8.22384C47.0118 8.52841 47.0118 9.00049 46.7244 9.30506L29.8286 26.2391C29.6773 26.3914 29.4807 26.4675 29.284 26.4675Z" fill="#C65049"/>
<path d="M46.1486 26.4977C45.952 26.4977 45.7553 26.4216 45.6192 26.2693L28.7839 9.25916C28.4965 8.95459 28.4965 8.48251 28.7839 8.17794C29.0864 7.8886 29.5553 7.8886 29.8579 8.17794L46.6932 25.1881C46.9805 25.4927 46.9805 25.9647 46.6932 26.2693C46.5419 26.4216 46.3453 26.4977 46.1486 26.4977Z" fill="#C65049"/>
</g>
<defs>
<clipPath id="clip0_3672_30572">
<rect width="90" height="90" fill="white"/>
</clipPath>
</defs>
</svg>
