<svg width="90" height="90" viewBox="0 0 90 90" fill="none" xmlns="http://www.w3.org/2000/svg">
<g clip-path="url(#clip0_3730_11362)">
<path d="M12.3882 41.2857C12.0554 41.2857 11.7227 40.9989 11.7227 40.6848C11.7227 40.398 12.0554 40.0839 12.3882 40.0839L78.0806 39.9336V39.1825C78.0806 36.7925 75.9327 34.8669 73.4521 34.8669H35.047C34.7143 34.8669 34.3815 34.5801 34.3815 34.2659C34.3815 33.9792 34.7143 33.665 35.047 33.665H73.4218C76.7344 33.665 79.3664 36.1916 79.3664 39.1825V40.5345C79.3664 40.8213 79.0336 41.1355 78.7008 41.1355L12.3882 41.2857Z" fill="#46433E"/>
<path d="M12.3882 41.3403C12.0251 41.3403 11.6621 41.0125 11.6621 40.6847C11.6621 40.357 12.0251 40.0292 12.3882 40.0292L78.005 39.879V39.1961C78.005 36.8881 75.9024 34.9351 73.452 34.9351H35.047C34.684 34.9351 34.3209 34.6073 34.3209 34.2796C34.3209 33.9518 34.684 33.624 35.047 33.624H73.4218C76.7495 33.624 79.4419 36.1233 79.4419 39.1961V40.5482C79.4419 40.8759 79.0789 41.2037 78.7159 41.2037L12.3882 41.3403ZM35.047 33.7469C34.7445 33.7469 34.4571 34.0201 34.4571 34.2796C34.4571 34.539 34.7596 34.8122 35.047 34.8122H73.4218C75.9629 34.8122 78.126 36.8198 78.126 39.1961V40.0155H78.0503L12.373 40.1521C12.0705 40.1521 11.7831 40.4252 11.7831 40.6847C11.7831 40.9442 12.0856 41.2173 12.373 41.2173L78.7159 41.0671C79.0184 41.0671 79.3058 40.794 79.3058 40.5345V39.1824C79.3058 36.1779 76.6587 33.7333 73.4218 33.7333L35.047 33.7469Z" fill="#46433E"/>
<path d="M85.6441 83.1581H5.41555C2.76849 83.1581 0.605469 81.2324 0.605469 78.8424V78.2415C0.605469 77.9547 0.938242 77.6406 1.27101 77.6406H89.6072C89.9399 77.6406 90.2727 77.9274 90.2727 78.2415V78.9927C90.2727 81.2324 88.1248 83.1581 85.6441 83.1581ZM2.10295 78.8424C2.10295 80.4813 3.60043 81.9699 5.41555 81.9699H85.6592C87.4744 81.9699 88.9719 80.6179 88.9719 78.979H2.10295V78.8424Z" fill="#46433E"/>
<path d="M85.6441 83.24H5.41551C2.72307 83.24 0.544922 81.2734 0.544922 78.8561V78.2551C0.544922 77.9274 0.907947 77.5996 1.27097 77.5996H89.6071C89.9701 77.5996 90.3332 77.9274 90.3332 78.2551V79.0063C90.3483 81.2597 88.155 83.24 85.6441 83.24ZM1.27097 77.7225C0.968451 77.7225 0.681056 77.9957 0.681056 78.2551V78.8561C0.681056 81.2051 2.7987 83.1171 5.41551 83.1171H85.6592C88.0945 83.1171 90.2122 81.2051 90.2122 79.0199V78.2551C90.2122 77.982 89.9096 77.7225 89.6222 77.7225H1.27097ZM85.6441 82.0382H5.41551C3.70627 82.0382 2.16341 80.6724 2.0424 79.0473H2.02727V78.8287H2.16341C2.16341 78.8561 2.16341 78.8834 2.16341 78.9243H89.0323V78.9926C89.0172 80.6724 87.5197 82.0382 85.6441 82.0382ZM2.17854 79.0609C2.29954 80.6042 3.76677 81.9152 5.41551 81.9152H85.6592C87.4138 81.9152 88.8508 80.6451 88.8962 79.0609H2.17854Z" fill="#46433E"/>
<path d="M89.5461 78.8151C89.3949 78.8151 89.3949 78.8151 89.5461 78.8151H1.25539C0.937743 78.8151 0.589844 78.6649 0.589844 78.3645C0.589844 78.064 0.589844 77.7635 0.907491 77.6133L11.4806 72.3963C11.647 72.3963 11.647 72.2461 11.7982 72.2461H78.8066C78.973 72.2461 78.973 72.2461 79.1243 72.3963L89.6974 77.6133C90.0151 77.7635 90.1966 77.9001 90.1966 78.2142C90.1966 78.5147 89.8789 78.8151 89.5461 78.8151ZM4.05371 77.627H86.7176L78.6403 73.7484H11.9798L4.05371 77.627Z" fill="#46433E"/>
<path d="M89.5461 78.8834H1.25535C0.907448 78.8834 0.529297 78.7195 0.529297 78.3781C0.529297 78.0913 0.529297 77.7362 0.892322 77.5723L11.4654 72.3553H11.4806C11.5411 72.3553 11.5562 72.328 11.5864 72.3007C11.6318 72.2597 11.6923 72.2051 11.7982 72.2051H78.8066C78.9881 72.2051 79.0184 72.2187 79.1696 72.369L89.7276 77.5723C90.0453 77.7225 90.257 77.8728 90.257 78.2142C90.2722 78.5556 89.9091 78.8834 89.5461 78.8834ZM89.5461 78.7468C89.8486 78.7468 90.136 78.4737 90.136 78.2142C90.136 77.9547 90.0301 77.8318 89.6822 77.6816L79.1091 72.4646L79.094 72.4509C78.9579 72.328 78.9579 72.328 78.8066 72.328H11.8285C11.768 72.328 11.7528 72.3416 11.7226 72.3826C11.6772 72.4236 11.6167 72.4782 11.5259 72.4782L0.967952 77.6679C0.665431 77.7908 0.665431 78.0776 0.665431 78.3508C0.665431 78.6239 0.967952 78.7331 1.25535 78.7331L89.5461 78.7468ZM87.0201 77.6816H3.79652L11.9646 73.68H78.6705L87.0201 77.6816ZM4.34106 77.5586H86.4604L78.6402 73.8166H12.01L4.34106 77.5586Z" fill="#46433E"/>
<path d="M78.7314 73.6119H12.2222C11.9045 73.6119 11.5566 73.3251 11.5566 73.0109V40.4935C11.5566 40.2067 11.8743 39.8926 12.2222 39.8926C12.5398 39.8926 12.8877 40.1794 12.8877 40.4935V72.2735H78.0659V40.5345C78.0659 40.2477 78.3835 39.9335 78.7314 39.9335C79.0491 39.9335 79.397 40.2203 79.397 40.5345V72.8607C79.3819 73.3114 79.0642 73.6119 78.7314 73.6119Z" fill="#46433E"/>
<path d="M78.7314 73.6664H12.2221C11.8591 73.6664 11.4961 73.3386 11.4961 73.0109V40.4934C11.4961 40.1657 11.8591 39.8379 12.2221 39.8379C12.5852 39.8379 12.9482 40.1657 12.9482 40.4934V72.2188H77.9902V40.5344C77.9902 40.2066 78.3532 39.8789 78.7163 39.8789C79.0793 39.8789 79.4423 40.2066 79.4423 40.5344V72.8606C79.4574 73.366 79.0793 73.6664 78.7314 73.6664ZM12.2221 39.9608C11.9196 39.9608 11.6322 40.2339 11.6322 40.4934V73.0109C11.6322 73.284 11.9347 73.5435 12.2221 73.5435H78.7314C79.0188 73.5435 79.3213 73.2704 79.3213 72.8606V40.5344C79.3213 40.2613 79.0188 40.0018 78.7314 40.0018C78.444 40.0018 78.1415 40.2749 78.1415 40.5344V72.328H12.8121V40.4934C12.8121 40.2203 12.5095 39.9608 12.2221 39.9608Z" fill="#46433E"/>
<path d="M49.5223 38.0072H44.5761C44.0769 38.0072 43.7441 37.7204 43.7441 37.256C43.7441 36.8053 44.0618 36.5049 44.5761 36.5049H49.5223C50.0214 36.5049 50.3542 36.7917 50.3542 37.256C50.3391 37.7067 49.8399 38.0072 49.5223 38.0072Z" fill="#46433E"/>
<path d="M51.473 81.273H41.399C39.9015 81.273 38.752 80.235 38.752 78.883V78.7327C38.752 78.446 39.0696 78.1318 39.4175 78.1318H53.2881C53.6057 78.1318 53.9536 78.4186 53.9536 78.7327V79.0195C53.9536 80.2214 52.7889 81.273 51.473 81.273ZM40.2494 79.3337C40.4158 79.7843 40.915 80.0848 41.399 80.0848H51.473C51.9721 80.0848 52.4562 79.798 52.6225 79.3337H40.2494Z" fill="#46433E"/>
<path d="M51.4729 81.3275H41.4141C39.9015 81.3275 38.6914 80.2486 38.6914 78.8692V78.719C38.6914 78.3913 39.0544 78.0635 39.4175 78.0635H53.2729C53.6359 78.0635 53.999 78.3913 53.999 78.719V79.0058C54.0141 80.2623 52.8191 81.3275 51.4729 81.3275ZM39.4326 78.2C39.1301 78.2 38.8427 78.4732 38.8427 78.7327V78.8829C38.8427 80.1803 39.962 81.2046 41.4141 81.2046H51.4729C52.7586 81.2046 53.878 80.194 53.878 79.0331V78.7463C53.878 78.4732 53.5754 78.2137 53.288 78.2137L39.4326 78.2ZM51.4729 80.1394H41.399C40.8696 80.1394 40.3401 79.8116 40.1738 79.3472L40.1435 79.2516H52.7284L52.6981 79.3472C52.5317 79.8116 52.0023 80.1394 51.4729 80.1394ZM40.3553 79.4019C40.5368 79.7706 40.9603 80.0301 41.4141 80.0301H51.488C51.9418 80.0301 52.3654 79.7706 52.5469 79.4019H40.3553Z" fill="#46433E"/>
<path d="M12.2222 41.1218C11.9045 41.1218 11.5566 40.835 11.5566 40.5209V39.1688C11.5566 36.0414 14.2037 33.6514 17.5012 33.6514H55.6339C55.9516 33.6514 56.2995 33.9382 56.2995 34.2523C56.2995 34.5391 55.9818 34.8532 55.6339 34.8532H17.5012C15.0205 34.8532 12.8877 36.7788 12.8877 39.1688V40.5209C12.8877 40.9716 12.555 41.1218 12.2222 41.1218Z" fill="#46433E"/>
<path d="M12.2221 41.19C11.8591 41.19 11.4961 40.8622 11.4961 40.5345V39.1824C11.4961 36.055 14.1432 33.6104 17.5011 33.6104H55.6339C55.9969 33.6104 56.36 33.9381 56.36 34.2659C56.36 34.5937 55.9969 34.9214 55.6339 34.9214H17.5011C15.0356 34.9214 12.9633 36.8607 12.9633 39.1824V40.5345C12.9482 40.9442 12.6911 41.19 12.2221 41.19ZM17.5011 33.7469C14.2037 33.7469 11.6322 36.1369 11.6322 39.1961V40.5345C11.6322 40.8076 11.9347 41.0671 12.2221 41.0671C12.449 41.0671 12.8121 40.9988 12.8121 40.5345V39.1824C12.8121 36.8061 14.96 34.7985 17.5011 34.7985H55.6339C55.9364 34.7985 56.2238 34.5254 56.2238 34.2659C56.2238 34.0064 55.9213 33.7333 55.6339 33.7333L17.5011 33.7469Z" fill="#46433E"/>
<path d="M47.8732 49.9163H19.8144C19.3152 49.9163 18.9824 49.6295 18.9824 49.1652C18.9824 48.7145 19.3001 48.4141 19.8144 48.4141H47.8732C48.3723 48.4141 48.7051 48.7009 48.7051 49.1652C48.69 49.6295 48.1908 49.9163 47.8732 49.9163Z" fill="#46433E"/>
<path d="M47.8732 54.3822H19.8144C19.3152 54.3822 18.9824 54.0954 18.9824 53.631C18.9824 53.1667 19.3001 52.8799 19.8144 52.8799H47.8732C48.3723 52.8799 48.7051 53.1667 48.7051 53.631C48.7051 54.0954 48.1908 54.3822 47.8732 54.3822Z" fill="#46433E"/>
<path d="M47.8751 58.8617H19.8163C19.3171 58.8617 18.9844 58.5749 18.9844 58.1105C18.9844 57.6598 19.302 57.3594 19.8163 57.3594H47.8751C48.3743 57.3594 48.7071 57.6462 48.7071 58.1105C48.6919 58.5612 48.1928 58.8617 47.8751 58.8617Z" fill="#46433E"/>
<path d="M47.8751 63.3275H19.8163C19.3171 63.3275 18.9844 63.0407 18.9844 62.5763C18.9844 62.112 19.302 61.8252 19.8163 61.8252H47.8751C48.3743 61.8252 48.7071 62.112 48.7071 62.5763C48.7071 63.0407 48.1928 63.3275 47.8751 63.3275Z" fill="#46433E"/>
<path d="M72.1214 63.3276H52.6542C52.155 63.3276 51.8223 63.0408 51.8223 62.5764V49.1652C51.8223 48.7145 52.1399 48.4141 52.6542 48.4141H72.1214C72.6206 48.4141 72.9534 48.7009 72.9534 49.1652V62.5764C72.9534 63.0271 72.6206 63.3276 72.1214 63.3276ZM53.471 61.8389H71.2895V49.93H53.471V61.8389Z" fill="#46433E"/>
<path d="M73.5124 32.5724C64.4821 32.5724 57.1309 25.9351 57.1309 17.7818C57.1309 9.62855 64.4821 3.00488 73.5124 3.00488C82.5426 3.00488 89.8939 9.64221 89.8939 17.7955C89.8939 25.9487 82.5426 32.5724 73.5124 32.5724ZM73.5124 4.37059C65.3141 4.37059 58.6435 10.3934 58.6435 17.7955C58.6435 25.1976 65.3141 31.2204 73.5124 31.2204C81.7107 31.2204 88.3813 25.1976 88.3813 17.7955C88.3813 10.3934 81.7107 4.37059 73.5124 4.37059Z" fill="#54A261"/>
<path d="M73.1492 25.3478C72.9374 25.3478 72.7256 25.2659 72.5744 25.1156L64.3004 16.5936C64.0281 16.3068 64.0584 15.8835 64.376 15.624C64.6937 15.3781 65.1626 15.4055 65.45 15.6923L73.0433 23.5177L82.1038 10.2021C82.3155 9.87435 82.7845 9.77875 83.1475 9.98361C83.5105 10.1748 83.6164 10.5982 83.3895 10.9259L73.7996 25.0337C73.6786 25.2249 73.4517 25.3341 73.2248 25.3615C73.1945 25.3478 73.1643 25.3478 73.1492 25.3478Z" fill="#54A261"/>
</g>
<defs>
<clipPath id="clip0_3730_11362">
<rect width="90" height="90" fill="white"/>
</clipPath>
</defs>
</svg>
