<svg width="90" height="90" viewBox="0 0 90 90" fill="none" xmlns="http://www.w3.org/2000/svg">
<path d="M11.828 28.3138C10.996 28.0039 10.3305 27.3843 9.96745 26.5876C9.5893 25.7908 9.5893 24.9056 9.90695 24.0794L13.1288 15.9056C13.7641 14.2826 15.791 13.3826 17.47 14.0171C19.2095 14.6662 20.0717 16.5695 19.4061 18.2515L16.1843 26.44C15.6851 27.6794 14.4145 28.5351 13.038 28.5351C12.6145 28.5351 12.2061 28.4466 11.828 28.3138ZM14.5204 16.4072L11.2985 24.581C11.117 25.0384 11.1322 25.54 11.3439 25.9826C11.5557 26.44 11.9036 26.7794 12.3876 26.9564C12.5994 27.0302 12.8263 27.0744 13.0532 27.0744C13.8246 27.0744 14.5355 26.6023 14.8078 25.8941L18.0296 17.7203C18.4078 16.7761 17.9086 15.7285 16.9557 15.3597C16.7439 15.2859 16.517 15.2417 16.2901 15.2417C15.5036 15.2564 14.7927 15.7138 14.5204 16.4072Z" fill="#45423D"/>
<path d="M16.4564 23.0319L11.9035 20.7745C11.5253 20.5827 11.374 20.1548 11.5707 19.8007C11.7673 19.4319 12.206 19.2991 12.569 19.4761L17.1219 21.7335C17.5001 21.9253 17.6514 22.3532 17.4547 22.7073C17.3337 22.9729 17.0614 23.1056 16.7892 23.1056C16.6833 23.1056 16.5774 23.0761 16.4564 23.0319Z" fill="#45423D"/>
<path d="M1.31641 38.8471C1.31641 35.9553 3.73657 33.6094 6.68615 33.6094C9.65086 33.6094 12.0559 35.9553 12.0559 38.8471C12.0559 41.7389 9.63573 44.0848 6.68615 44.0848C3.72145 44.0848 1.31641 41.7389 1.31641 38.8471ZM2.81389 38.8471C2.81389 40.9274 4.55338 42.6241 6.68615 42.6241C8.81893 42.6241 10.5584 40.9274 10.5584 38.8471C10.5584 36.7668 8.81893 35.07 6.68615 35.07C4.55338 35.0848 2.81389 36.7668 2.81389 38.8471Z" fill="#45423D"/>
<path d="M3.08715 41.341C2.84513 41.0164 2.92076 40.559 3.25354 40.3229L9.68211 35.7491C10.0149 35.5278 10.4838 35.5869 10.7258 35.9114C10.9678 36.236 10.8922 36.6934 10.5594 36.9295L4.13085 41.5032C3.99471 41.6065 3.84345 41.636 3.69219 41.636C3.4653 41.6508 3.22328 41.5475 3.08715 41.341Z" fill="#45423D"/>
<path d="M62.9395 73.9624L54.1664 72.0886C53.3042 71.8968 52.5328 71.3804 52.0639 70.6427C51.5799 69.905 51.4135 69.0198 51.6101 68.164C51.9883 66.4378 53.8336 65.287 55.6034 65.6559L64.3765 67.5296C66.1916 67.8985 67.3412 69.669 66.9479 71.4247C66.6151 72.9149 65.2235 74.0067 63.6504 74.0067C63.3933 74.0214 63.1664 73.9919 62.9395 73.9624ZM53.0471 68.4591C52.9563 68.9313 53.032 69.4329 53.3193 69.8313C53.5916 70.2296 54.0151 70.5247 54.4841 70.628L63.2572 72.5018C64.2555 72.7231 65.2538 72.0739 65.4807 71.1149C65.7076 70.1263 65.0723 69.1673 64.0588 68.946L55.2857 67.0722C55.1496 67.0427 55.0286 67.028 54.8925 67.028C54 67.0427 53.2286 67.6477 53.0471 68.4591Z" fill="#45423D"/>
<path d="M58.3559 72.9587C57.9626 72.8407 57.7509 72.4276 57.8719 72.044L59.4601 67.3227C59.5811 66.939 60.0046 66.7325 60.3979 66.8505C60.7912 66.9686 61.003 67.3817 60.8819 67.7653L59.2937 72.4866C59.1878 72.7817 58.9004 72.9882 58.5828 72.9882C58.492 72.9882 58.4164 72.9882 58.3559 72.9587Z" fill="#45423D"/>
<path d="M67.8105 61.1403C67.5987 59.7535 67.9466 58.3813 68.7937 57.26C69.6256 56.1387 70.8811 55.401 72.303 55.1944C75.2828 54.7518 77.9752 56.7436 78.4139 59.5617C78.6256 60.9485 78.2777 62.3207 77.4307 63.442C76.5987 64.5633 75.3433 65.301 73.9214 65.5076C73.6492 65.5518 73.3618 65.5666 73.0895 65.5666C70.4273 65.5813 68.2038 63.7223 67.8105 61.1403ZM72.4845 56.6403C71.471 56.7879 70.5635 57.3338 69.9584 58.1305C69.3534 58.942 69.0962 59.9305 69.2475 60.9338C69.5803 62.9403 71.5315 64.3862 73.6643 64.0764C74.6777 63.9289 75.5853 63.383 76.1903 62.5862C76.7954 61.7748 77.0525 60.7862 76.9013 59.783C76.629 57.9682 74.9803 56.5961 73.0895 56.5961C72.908 56.5961 72.7114 56.5961 72.4845 56.6403Z" fill="#45423D"/>
<path d="M75.1159 63.4426L69.489 57.9393C69.2016 57.6442 69.2016 57.1869 69.489 56.9065C69.7915 56.6262 70.2604 56.6262 70.5478 56.9065L76.1596 62.4098C76.447 62.7049 76.447 63.1623 76.1596 63.4426C76.0234 63.5901 75.8268 63.6639 75.6302 63.6639C75.4486 63.6639 75.2671 63.5901 75.1159 63.4426Z" fill="#45423D"/>
<path d="M17.3184 80.4837V58.7805C17.3184 55.5788 19.9352 53.0264 23.2175 53.0264H40.1133C43.3957 53.0264 46.0125 55.5788 46.0125 58.7805V80.469C46.0125 83.6706 43.3957 86.2231 40.1133 86.2231H23.2024C19.9352 86.2231 17.3184 83.6559 17.3184 80.4837ZM40.1133 54.7969H23.2024C20.752 54.7969 18.952 56.7001 18.952 58.9428V80.6313C18.952 83.0214 20.873 84.6887 23.157 84.6887H40.0528C42.5032 84.6887 44.3486 82.8739 44.3486 80.6313V58.928C44.3637 56.5526 42.3974 54.7969 40.1133 54.7969Z" fill="#45423D"/>
<path d="M17.1074 47.1836V45.1771C17.1074 43.3476 18.6352 41.8574 20.5108 41.8574H42.8066C44.6822 41.8574 46.2099 43.3476 46.2099 45.1771V47.1836C46.2099 49.0132 44.6822 50.5033 42.8066 50.5033H20.5108C18.62 50.5033 17.1074 49.0132 17.1074 47.1836ZM20.5108 43.4656C19.5427 43.4656 18.7562 44.2328 18.7562 45.1771V47.1689C18.7562 48.1132 19.5427 48.8804 20.5108 48.8804H42.8066C43.7746 48.8804 44.5612 48.1132 44.5612 47.1689V45.1623C44.5612 44.2181 43.7746 43.4509 42.8066 43.4509L20.5108 43.4656Z" fill="#414141"/>
<path d="M39.4939 49.0127H37.709V54.6045H39.4939V49.0127Z" fill="#45423D"/>
<path d="M25.5466 49.1309H23.7617V54.7227H25.5466V49.1309Z" fill="#45423D"/>
<path d="M44.8641 63.5605H18.3633V65.3015H44.8641V63.5605Z" fill="#45423D"/>
<path d="M44.788 77.4004H18.2871V79.1414H44.788V77.4004Z" fill="#45423D"/>
<path d="M23.8543 26.1592C26.5014 24.8461 29.7232 25.8936 31.0694 28.4608C32.4156 31.0428 31.3568 34.1854 28.7098 35.4985C26.0627 36.8117 22.8409 35.7641 21.4946 33.1969C20.1484 30.6149 21.2072 27.4723 23.8543 26.1592ZM24.535 27.4723C22.6442 28.4018 21.8728 30.6887 22.8409 32.533C23.7938 34.3772 26.1383 35.1297 28.0291 34.1854C29.9198 33.2559 30.6913 30.969 29.7232 29.1248C28.7551 27.2658 26.4257 26.5281 24.535 27.4723Z" fill="#45423D"/>
<path d="M22.355 28.8302C22.5365 28.4613 22.9903 28.3433 23.3684 28.5204L30.4474 32.0466C30.8104 32.2384 30.9466 32.6663 30.765 33.0351C30.5835 33.404 30.1297 33.522 29.7516 33.345L22.6877 29.8187C22.5365 29.745 22.4306 29.6269 22.3701 29.4941C22.2491 29.2876 22.2491 29.0368 22.355 28.8302Z" fill="#45423D"/>
<path d="M72.7878 37.2093C63.7575 37.2093 56.4062 30.0388 56.4062 21.2306C56.4062 12.4224 63.7575 5.25195 72.7878 5.25195C81.818 5.25195 89.1693 12.4224 89.1693 21.2306C89.1693 30.0388 81.818 37.2093 72.7878 37.2093ZM72.7878 6.74212C64.5894 6.74212 57.9189 13.2487 57.9189 21.2454C57.9189 29.2421 64.5894 35.7487 72.7878 35.7487C80.9861 35.7487 87.6567 29.2421 87.6567 21.2454C87.6567 13.2487 80.9861 6.74212 72.7878 6.74212Z" fill="#54A261"/>
<path d="M72.4089 29.4051C72.1972 29.4051 71.9854 29.3165 71.8341 29.1543L63.5602 19.9477C63.2879 19.6379 63.3182 19.1805 63.6358 18.9002C63.9535 18.6346 64.4224 18.6641 64.7098 18.9739L72.303 27.428L81.3635 13.0428C81.5753 12.6887 82.0442 12.5854 82.4072 12.8067C82.7703 13.0133 82.8762 13.4706 82.6493 13.8247L73.0593 29.051C72.9383 29.2575 72.7114 29.3756 72.4846 29.4051C72.4543 29.4051 72.4392 29.4051 72.4089 29.4051Z" fill="#54A261"/>
</svg>
