<svg width="90" height="90" viewBox="0 0 90 90" fill="none" xmlns="http://www.w3.org/2000/svg">
<g clip-path="url(#clip0_3681_9917)">
<path d="M40.8247 57.9921C37.3457 57.9921 33.4734 57.4708 30.3726 56.7574C21.2667 54.4799 11.2078 45.5211 10.6179 45.1644C10.4213 44.986 10.2247 44.8077 10.4213 44.4647C10.6179 44.108 10.6179 43.9433 10.8146 43.765C11.2078 43.4083 21.2667 36.3839 29.0112 33.2284C32.3087 31.9936 35.9843 31.2939 40.2499 31.2939C44.6969 31.2939 49.1591 32.172 52.4566 33.5714C57.8717 35.8488 69.6852 43.7513 70.2751 44.108C70.4717 44.2863 70.6684 44.4647 70.6684 44.8077C70.6684 45.1644 70.4717 45.329 70.2751 45.5074C69.7003 45.8641 56.3289 54.6446 51.1104 56.579C47.7978 57.8138 43.5322 57.9921 40.8247 57.9921ZM12.9473 44.643C15.4583 46.7558 23.7927 53.4235 31.144 55.358C34.0482 56.0577 37.7238 56.4144 41.0213 56.4144C44.6969 56.4144 47.9944 55.893 50.3087 55.1796C54.7558 53.6019 64.8297 46.9205 68.3238 44.8214C65.223 42.8869 56.1171 36.9189 51.8667 35.1628C48.7658 33.9281 44.5154 33.05 40.2499 33.05C36.3776 33.05 32.702 33.7497 29.9944 34.9845C23.5961 37.4403 15.2616 42.8869 12.9473 44.643Z" fill="#46433E"/>
<path d="M60.1857 44.4651C59.9891 44.4651 59.7925 44.4651 59.611 44.2867C59.611 44.2867 51.2916 39.1968 47.9942 37.7837C44.5152 36.3843 38.1168 35.6709 33.4731 37.6053C28.4362 39.7181 21.4631 44.273 21.4631 44.273C21.0698 44.6297 20.495 44.4514 20.2984 44.0947C19.9051 43.7379 20.1017 43.2166 20.495 43.0383C20.8883 42.8599 27.6647 38.2913 32.8832 36.1922C38.1168 34.0794 44.8933 34.6145 48.9622 36.3706C52.4412 37.77 60.579 42.8736 60.9723 43.0383C61.3656 43.395 61.5471 43.9163 61.1689 44.0947C60.7757 44.3004 60.579 44.4651 60.1857 44.4651Z" fill="#46433E"/>
<path d="M40.6273 55.0149C34.0474 55.0149 28.6172 50.1033 28.6172 44.1216C28.6172 41.4875 29.5853 39.21 31.3248 37.0972C31.718 36.7405 32.2928 36.7405 32.4895 36.9189C32.8827 37.2756 33.8508 36.9189 32.6861 37.9753C31.1432 39.553 30.3567 41.6658 30.3567 43.9432C30.3567 49.0332 35.0004 53.2451 40.6121 53.2451C46.2239 53.2451 50.8676 49.0332 50.8676 43.9432C50.8676 41.6658 49.8995 39.553 48.3567 37.7969C47.9634 37.4402 47.9634 36.9189 48.5533 36.7405C48.3567 36.7405 49.5214 36.3838 49.718 36.9189C51.4575 38.8533 52.6222 41.4874 52.6222 43.9432C52.6374 50.0896 47.2222 55.0149 40.6273 55.0149Z" fill="#46433E"/>
<path d="M40.6288 46.9343C38.496 46.9343 36.9531 45.5349 36.9531 43.6004C36.9531 41.666 38.496 40.2666 40.6288 40.2666C42.7615 40.2666 44.3044 41.666 44.3044 43.6004C44.3195 45.3428 42.5649 46.9343 40.6288 46.9343ZM40.6288 41.8306C39.4641 41.8306 38.6926 42.7087 38.6926 43.5867C38.6926 44.6431 39.6607 45.3428 40.6288 45.3428C41.7935 45.3428 42.5649 44.4648 42.5649 43.5867C42.5649 42.7087 41.5968 41.8306 40.6288 41.8306Z" fill="#46433E"/>
<path d="M61.1241 83.2916C55.588 86.3785 48.7208 88.5599 40.4468 88.5599C24.1712 88.5599 13.3258 80.1224 7.13925 72.9197C3.66026 69.0508 1.72413 64.1392 1.72413 59.0492V18.659C1.72413 18.3023 1.92077 17.781 2.49556 17.781C2.88883 17.781 27.0905 13.2124 39.2821 1.97608C39.4788 1.79772 39.8569 1.61937 40.0535 1.61937C40.4468 1.61937 40.8703 1.66053 41.2485 1.93492C55.1947 13.1712 77.9443 17.6986 78.1409 17.6986C78.5342 17.6986 78.9577 18.2337 78.9577 18.7688L78.8972 61.2855C78.8972 62.0813 78.746 60.8191 78.6552 61.6011C79.2905 61.7383 79.9258 61.9166 80.4855 62.2047C80.6519 61.1072 80.7426 59.9959 80.7426 58.8846V18.4806C80.7426 17.2459 79.7746 16.2032 78.6098 16.0249C78.2166 16.0249 55.5729 11.6346 42.0048 0.562965C41.0367 -0.13673 39.2972 -0.13673 38.3292 0.741319C26.5006 11.7992 2.67707 16.1895 2.48043 16.1895C1.31572 16.5462 0.347656 17.4242 0.347656 18.6453V59.0355C0.347656 64.3038 2.28379 69.5721 5.95942 73.784C12.3577 81.1788 23.5964 89.9593 40.6283 89.9593C49.1594 89.9593 56.2535 87.7093 62.0166 84.4715C61.6535 84.1285 61.3661 83.7169 61.1241 83.2916Z" fill="#46433E"/>
<path d="M76.2659 19.3584C71.0323 18.302 53.229 13.9117 40.8256 4.43153C40.4323 4.07482 40.0542 4.25318 39.6609 4.43153C28.6189 13.9117 10.029 18.302 4.61385 19.3584C4.22057 19.3584 4.03906 19.7151 4.03906 20.0581V59.0489C4.03906 63.6175 5.77856 68.1861 8.8794 71.6983C14.8844 78.5443 25.1399 86.6251 40.629 86.6251C48.3433 86.6251 54.7718 84.5672 60.0054 81.6861C59.6424 81.2334 59.355 80.7257 59.1886 80.2181C54.1365 83.0581 47.9197 85.0474 40.4475 85.0474C25.7298 85.0474 15.8525 77.145 10.0441 70.6419C7.1399 67.3081 5.59705 63.0962 5.59705 58.8706V20.5794C11.6021 19.3446 29.2239 14.9544 40.0693 5.83092C52.276 14.7898 69.308 19.18 75.1164 20.5794V59.0489C75.1164 59.6251 75.0861 60.2151 75.0256 60.7776C75.6004 60.9148 76.1752 61.0657 76.75 61.1892C76.8256 60.5306 76.8559 59.8721 76.8559 59.2135V20.0581C76.8407 19.7013 76.6592 19.3584 76.2659 19.3584Z" fill="#46433E"/>
<path d="M40.2499 24.9694C39.8567 24.9694 39.4785 24.6127 39.4785 24.2697V4.95263C39.4785 4.59592 39.8718 4.25293 40.2499 4.25293C40.6432 4.25293 41.0214 4.60964 41.0214 4.95263V24.2697C41.0214 24.6264 40.6281 24.9694 40.2499 24.9694Z" fill="#46433E"/>
<path d="M41.0214 86.2682C40.6282 86.2682 40.25 85.9115 40.25 85.5685V66.2515C40.25 65.8948 40.6433 65.5518 41.0214 65.5518C41.4147 65.5518 41.7929 65.9085 41.7929 66.2515V85.5685C41.7929 85.9252 41.4147 86.2682 41.0214 86.2682Z" fill="#46433E"/>
<path d="M73.1354 89.6295C64.1052 89.6295 56.7539 82.9618 56.7539 74.7713C56.7539 66.5807 64.1052 59.9268 73.1354 59.9268C82.1657 59.9268 89.5169 66.5944 89.5169 74.7713C89.5169 82.9481 82.1657 89.6295 73.1354 89.6295ZM73.1354 61.2987C64.9371 61.2987 58.2665 67.349 58.2665 74.7713C58.2665 82.1935 64.9371 88.2576 73.1354 88.2576C81.3337 88.2576 88.0043 82.2072 88.0043 74.7713C88.0043 67.3353 81.3337 61.2987 73.1354 61.2987Z" fill="#54A261"/>
<path d="M72.7722 82.3853C72.5604 82.3853 72.3487 82.303 72.1974 82.1521L63.9235 73.5911C63.6512 73.303 63.6814 72.8777 63.9991 72.6171C64.3167 72.3701 64.7857 72.3975 65.073 72.6857L72.6663 80.5469L81.7268 67.1704C81.9386 66.8411 82.4075 66.7451 82.7705 66.9509C83.1335 67.143 83.2394 67.5683 83.0125 67.8975L73.4226 82.0698C73.3016 82.2619 73.0747 82.3716 72.8478 82.3991C72.8025 82.3853 72.7873 82.3853 72.7722 82.3853Z" fill="#54A261"/>
</g>
<defs>
<clipPath id="clip0_3681_9917">
<rect width="90" height="90" fill="white"/>
</clipPath>
</defs>
</svg>
