<svg width="90" height="90" viewBox="0 0 90 90" fill="none" xmlns="http://www.w3.org/2000/svg">
<g clip-path="url(#clip0_3748_12431)">
<path d="M40.4623 72.9707C40.2843 72.9707 40.0916 72.9707 39.9137 72.8043C39.543 72.4576 39.3651 71.9167 39.7357 71.5839C39.7357 71.4175 41.5743 69.1294 44.0059 69.1294C45.7703 69.0878 46.9713 69.9476 48.2909 71.7087C48.6616 72.0554 48.5726 72.4853 48.202 72.832C47.8313 73.1787 47.431 73.0123 47.0603 72.6656C46.1114 71.4452 45.3107 70.6132 43.9466 70.6132C42.0043 70.6132 40.9664 72.5962 40.9664 72.5962C40.7291 72.7349 40.8478 72.9707 40.4623 72.9707Z" fill="#46433E"/>
<path d="M52.4739 4.2573C52.4294 3.63327 52.5332 3.20337 53.1411 3.20337C53.7194 3.16177 54.1197 3.71647 54.1197 4.28504C54.5348 8.95838 59.0571 12.2588 63.861 12.2588C68.665 12.2588 72.9945 8.63943 73.6024 4.16023C73.7951 3.81354 74.0472 3.59166 74.581 3.661C75.011 3.74421 75.2927 3.91062 75.2927 4.47918C74.492 9.8875 69.6881 13.812 63.9055 13.812C57.9154 13.812 53.1263 9.70723 52.4739 4.2573Z" fill="#46433E"/>
<path d="M87.0945 17.0011L72.6085 8.94409C72.0154 8.5558 72.2378 8.33392 72.4306 7.9595C72.8309 7.39093 73.1571 7.62668 73.5574 7.80696L87.8507 15.6005C88.4586 15.9749 88.5031 16.3909 88.3103 16.7654C88.1027 17.1259 87.5393 17.1952 87.0945 17.0011Z" fill="#46433E"/>
<path d="M88.3538 10.5533L73.9568 7.05868C73.3341 6.85067 73.0524 6.90614 73.2303 6.33757C73.4082 5.76901 73.4823 5.42232 74.0903 5.6026L88.4428 9.0556C89.0359 9.23588 89.3324 9.55483 89.1842 10.0541C89.0952 10.3869 88.7987 10.6226 88.3538 10.5533Z" fill="#46433E"/>
<path d="M63.1037 34.5573C62.4365 34.488 62.5254 33.5173 62.5254 32.7823L63.1037 14.0057C63.1037 13.6313 63.504 13.2569 64.1119 13.2569C64.7198 13.2569 64.6309 13.1043 64.6309 13.6729L64.1119 33.2538C64.1119 33.6144 64.0823 34.5989 63.1037 34.5573Z" fill="#46433E"/>
<path d="M53.7044 32.117L59.9021 12.3281C60.08 11.9398 60.421 11.9121 61.0289 12.0924C61.4144 12.3004 61.533 12.3143 61.3403 12.8828L55.276 32.4083C55.0833 32.9907 54.6829 33.1571 54.2826 33.0462C53.9119 32.9352 53.5116 32.6856 53.7044 32.117Z" fill="#46433E"/>
<path d="M34.9028 19.2898L55.0082 8.5009C55.4086 8.30676 55.3641 8.3761 55.1713 7.8214C54.9786 7.44697 54.7414 7.10029 54.1334 7.28056L34.0428 18.2359C34.0725 18.4855 33.9835 18.6796 34.0577 18.9015C34.0873 18.9847 34.1318 19.1234 34.2059 19.2621C34.458 19.3037 34.6359 19.2621 34.9028 19.2898Z" fill="#46433E"/>
<path d="M42.7762 23.2555L56.4912 10.4974C56.8915 10.1091 57.0546 9.99819 56.6543 9.6099C56.2688 9.23547 55.9277 8.94426 55.5126 9.31868L41.7383 22.257C41.7976 22.3125 41.8272 22.3541 41.8866 22.4235C42.0645 22.6037 42.2572 22.7563 42.4203 22.9227C42.5389 23.0336 42.6279 23.1168 42.7762 23.2555Z" fill="#46433E"/>
<path d="M29.7441 12.0923C29.7441 12.6748 30.0259 12.6193 30.0703 12.6609H30.1296C30.1296 12.647 54.1791 6.48987 54.1791 6.48987C53.927 6.05998 53.7639 5.57462 53.5563 5.13086L30.5448 10.9829C29.9369 11.1632 29.7441 11.5376 29.7441 12.0923Z" fill="#46433E"/>
<path d="M20.5654 74.9817L10.0234 66.578C9.62307 66.2036 9.60824 65.8153 9.93444 65.4548C10.3348 65.1219 10.6758 65.2884 11.0613 65.4825L21.7367 74.0526C21.9888 74.2884 21.974 74.6073 21.6774 74.9817C21.3661 75.2591 20.7582 75.162 20.5654 74.9817Z" fill="#46433E"/>
<path d="M22.8924 81.7487L9.93355 71.4313C9.53322 71.0569 9.5184 70.6686 9.84459 70.3081C10.2449 69.9752 10.5859 70.1555 10.9714 70.3358L24.0489 80.8196C24.3009 81.0554 24.2861 81.3743 23.9896 81.7487C23.693 82.0399 23.0999 81.9429 22.8924 81.7487Z" fill="#46433E"/>
<path d="M49.137 25.4331C49.4929 25.655 49.9228 25.5718 50.2639 25.0726L58.7894 11.7736C58.3149 11.5795 57.8256 11.3715 57.4253 11.0664L48.8405 24.3931C48.4995 24.8923 48.796 25.2251 49.137 25.4331Z" fill="#46433E"/>
<path d="M40.5959 24.3931C40.8776 24.6704 41.3372 24.6982 41.782 24.2822L56.5646 10.3869C56.1494 10.1096 55.7194 9.77677 55.4081 9.40234L40.5662 23.3253C40.1066 23.7275 40.329 24.1157 40.5959 24.3931Z" fill="#46433E"/>
<path d="M33.5381 19.2477C33.7308 19.5944 34.1608 19.7192 34.7094 19.4419L54.8593 8.52815C54.5183 8.15373 54.2218 7.7377 54.029 7.29395L33.8198 18.2354C33.2564 18.5127 33.3453 18.9288 33.5381 19.2477Z" fill="#46433E"/>
<path d="M-0.0898438 18.5273C-0.0898438 10.1375 7.21988 3.30078 16.1902 3.30078C25.1606 3.30078 32.4703 10.1236 32.4703 18.5134C32.4703 26.9032 25.1606 33.7399 16.1902 33.7399C7.21988 33.7399 -0.0898438 26.9171 -0.0898438 18.5273ZM1.42251 18.5273C1.42251 26.1405 8.05019 32.3393 16.1902 32.3393C24.3303 32.3393 30.9579 26.1405 30.9579 18.5273C30.9579 10.914 24.3303 4.71527 16.1902 4.71527C8.05019 4.71527 1.42251 10.914 1.42251 18.5273Z" fill="#54A261"/>
<path d="M15.2279 26.293C15.0203 26.293 14.8127 26.2098 14.6496 26.0573L6.43543 17.293C6.16854 17.0018 6.1982 16.5581 6.50956 16.2946C6.82093 16.045 7.2954 16.0727 7.57711 16.3639L15.1241 24.4209L24.1241 10.7198C24.3316 10.387 24.8061 10.2899 25.162 10.498C25.5178 10.6921 25.6216 11.1359 25.3992 11.4687L15.8654 25.9879C15.7468 26.1821 15.5244 26.293 15.2872 26.3208C15.2872 26.293 15.2427 26.293 15.2279 26.293Z" fill="#54A261"/>
<path d="M26.0218 85.4793H18.3117C10.1272 85.4793 3.45508 79.2528 3.45508 71.584V63.5825C3.45508 61.8075 4.99709 60.3652 6.89495 60.3652H24.6874C31.404 60.3652 35.3035 61.8491 37.3793 63.0971C39.7813 64.5255 40.8636 66.2867 40.8636 67.3267V71.584C40.8785 79.2389 34.2063 85.4793 26.0218 85.4793ZM6.89495 61.6272C5.73844 61.6272 4.78951 62.5147 4.78951 63.5964V71.5979C4.78951 78.5732 10.8538 84.2451 18.3117 84.2451H26.0218C33.4798 84.2451 39.544 78.5732 39.544 71.5979V67.3406C39.544 66.4531 36.801 61.6272 24.6874 61.6272H6.89495Z" fill="#46433E"/>
<path d="M26.0217 85.5486H18.3117C10.0827 85.5486 3.38086 79.2805 3.38086 71.584V63.5825C3.38086 61.7659 4.95252 60.2959 6.89486 60.2959H24.6873C31.4336 60.2959 35.3331 61.7936 37.4237 63.0417C39.8405 64.4839 40.9377 66.2728 40.9377 67.3267V71.584C40.9377 75.3005 39.3957 78.809 36.5786 81.4438C33.7614 84.0925 30.0102 85.5486 26.0217 85.5486ZM6.89486 60.4346C5.04149 60.4346 3.52913 61.8491 3.52913 63.5825V71.584C3.52913 79.2112 10.1568 85.4099 18.3117 85.4099H26.0217C29.9657 85.4099 33.6725 83.9677 36.4748 81.3467C39.2622 78.7258 40.8043 75.2589 40.7894 71.584V67.3267C40.7894 66.3005 39.7071 64.5671 37.3347 63.1526C35.2738 61.9045 31.4039 60.4346 24.6873 60.4346H6.89486ZM26.0217 84.3144H18.3117C10.8092 84.3144 4.71529 78.6149 4.71529 71.5979V63.5964C4.71529 62.4731 5.69387 61.5578 6.89486 61.5578H24.6873C36.8603 61.5578 39.6181 66.4392 39.6181 67.3406V71.5979C39.6181 78.6149 33.5242 84.3144 26.0217 84.3144ZM6.89486 61.6965C5.76801 61.6965 4.86356 62.5424 4.86356 63.5964V71.5979C4.86356 78.5316 10.8982 84.1757 18.3117 84.1757H26.0217C33.4352 84.1757 39.4698 78.5316 39.4698 71.5979V67.3406C39.4698 66.4669 36.7417 61.6965 24.6873 61.6965H6.89486Z" fill="#46433E"/>
<path d="M74.283 87.0322H60.8794C53.4807 87.0322 47.4609 81.402 47.4609 74.4822V71.4729C47.4609 64.5531 53.4807 58.9229 60.8794 58.9229H74.283C81.6817 58.9229 87.7015 64.5531 87.7015 71.4729V74.4822C87.7015 81.402 81.6817 87.0322 74.283 87.0322ZM60.8794 60.1709C54.2221 60.1709 48.7954 65.2464 48.7954 71.4729V74.4822C48.7954 80.7087 54.2221 85.7842 60.8794 85.7842H74.283C80.9403 85.7842 86.367 80.7087 86.367 74.4822V71.4729C86.367 65.2464 80.9403 60.1709 74.283 60.1709H60.8794Z" fill="#46433E"/>
<path d="M74.2829 87.1016H60.8793C53.4361 87.1016 47.3867 81.4437 47.3867 74.4822V71.4729C47.3867 64.5115 53.4361 58.8535 60.8793 58.8535H74.2829C81.7261 58.8535 87.7755 64.5115 87.7755 71.4729V74.4822C87.7755 81.4437 81.7261 87.1016 74.2829 87.1016ZM60.8793 58.9922C53.5251 58.9922 47.535 64.5947 47.535 71.4729V74.4822C47.535 81.3604 53.5251 86.9629 60.8793 86.9629H74.2829C81.6371 86.9629 87.6272 81.3604 87.6272 74.4822V71.4729C87.6272 64.5947 81.6371 58.9922 74.2829 58.9922H60.8793ZM74.2829 85.8535H60.8793C54.1775 85.8535 48.7212 80.7503 48.7212 74.4822V71.4729C48.7212 65.2048 54.1775 60.1016 60.8793 60.1016H74.2829C80.9847 60.1016 86.4411 65.2048 86.4411 71.4729V74.4822C86.4411 80.7503 80.9847 85.8535 74.2829 85.8535ZM60.8793 60.2403C54.2516 60.2403 48.8694 65.2742 48.8694 71.4729V74.4822C48.8694 80.6809 54.2516 85.7148 60.8793 85.7148H74.2829C80.9106 85.7148 86.2928 80.6809 86.2928 74.4822V71.4729C86.2928 65.2742 80.9106 60.2403 74.2829 60.2403H60.8793Z" fill="#46433E"/>
<path d="M71.9848 84.9661C71.6141 84.9661 71.3175 84.6888 71.3175 84.3421C71.3175 83.9954 71.6141 83.7181 71.9848 83.7181H74.0605C74.4312 83.7181 74.7278 83.9954 74.7278 84.3421C74.7278 84.6888 74.4312 84.9661 74.0605 84.9661H71.9848ZM69.9238 84.9661H67.8777C67.507 84.9661 67.2105 84.6888 67.2105 84.3421C67.2105 83.9954 67.507 83.7181 67.8777 83.7181H69.9238C70.2945 83.7181 70.591 83.9954 70.591 84.3421C70.591 84.6888 70.2945 84.9661 69.9238 84.9661ZM65.8167 84.9661H63.7706C63.3999 84.9661 63.1034 84.6888 63.1034 84.3421C63.1034 83.9954 63.3999 83.7181 63.7706 83.7181H65.8167C66.1874 83.7181 66.4839 83.9954 66.4839 84.3421C66.4839 84.6888 66.1874 84.9661 65.8167 84.9661ZM61.7245 84.9661H61.0424C60.5531 84.9661 60.0638 84.9384 59.5894 84.8829C59.2187 84.8413 58.9666 84.5224 59.0111 84.1896C59.0556 83.8429 59.3966 83.6071 59.7525 83.6487C60.1676 83.7042 60.6124 83.7319 61.0276 83.7319H61.7096C62.0803 83.7319 62.3768 84.0093 62.3768 84.356C62.3768 84.7027 62.0803 84.9661 61.7245 84.9661ZM76.0918 84.772C75.7805 84.772 75.4988 84.564 75.4394 84.2728C75.3653 83.94 75.6025 83.6071 75.9584 83.5378C76.5811 83.4269 77.2039 83.2466 77.7969 83.0247C78.138 82.886 78.5235 83.0247 78.6717 83.3575C78.82 83.6903 78.6717 84.037 78.3159 84.1757C77.6487 84.4392 76.937 84.6333 76.2253 84.772C76.1808 84.772 76.1363 84.772 76.0918 84.772ZM57.6767 84.453C57.6025 84.453 57.5284 84.453 57.4691 84.4253C56.7871 84.2034 56.105 83.9261 55.4823 83.5933C55.1561 83.4269 55.0523 83.0386 55.2302 82.7473C55.4081 82.4423 55.8233 82.3452 56.1347 82.5116C56.6833 82.8028 57.2763 83.0524 57.8843 83.2466C58.2401 83.3575 58.418 83.7042 58.2994 84.037C58.2105 84.2866 57.9436 84.453 57.6767 84.453ZM79.8727 83.3159C79.6503 83.3159 79.4427 83.2188 79.3093 83.0386C79.1017 82.7473 79.1907 82.3591 79.5021 82.1788C80.0358 81.846 80.5399 81.4715 80.9848 81.0416C81.2516 80.8059 81.6668 80.8059 81.9337 81.0416C82.1857 81.2913 82.1857 81.6795 81.9337 81.9292C81.4147 82.4145 80.8513 82.8444 80.2434 83.2188C80.1248 83.2882 79.9913 83.3159 79.8727 83.3159ZM54.133 82.5532C53.9848 82.5532 53.8217 82.4977 53.703 82.4007C53.1544 81.9569 52.6503 81.4577 52.2055 80.9307C51.9831 80.6534 52.0276 80.2651 52.3241 80.0571C52.6207 79.849 53.0358 79.8906 53.2582 80.168C53.6586 80.6395 54.1034 81.0832 54.5778 81.4715C54.8595 81.6934 54.8892 82.0956 54.652 82.3452C54.5037 82.4839 54.3109 82.5532 54.133 82.5532ZM82.764 80.6395C82.6306 80.6395 82.4971 80.5979 82.3933 80.5286C82.082 80.3344 82.0078 79.9461 82.2154 79.6549C82.5712 79.1557 82.8826 78.6287 83.1347 78.074C83.2829 77.7551 83.6684 77.6025 84.0095 77.7412C84.3505 77.8799 84.5136 78.2404 84.3653 78.5594C84.0836 79.1834 83.7278 79.7797 83.3274 80.3483C83.194 80.5424 82.9864 80.6395 82.764 80.6395ZM51.6124 79.544C51.3752 79.544 51.138 79.4191 51.0193 79.1973C50.6932 78.5871 50.4263 77.9492 50.2335 77.2974C50.1297 76.9646 50.3373 76.6179 50.6932 76.5347C51.049 76.4376 51.4197 76.6318 51.5086 76.9646C51.6866 77.5332 51.909 78.1017 52.2055 78.6426C52.3686 78.9477 52.2352 79.3221 51.909 79.4746C51.82 79.5301 51.7162 79.544 51.6124 79.544ZM84.3653 77.1171C84.3208 77.1171 84.2763 77.1171 84.2319 77.1171C83.876 77.0478 83.6388 76.715 83.7129 76.3822C83.8464 75.7997 83.9205 75.2034 83.9205 74.5933C83.9205 73.9831 84.217 73.9831 84.5877 73.9831C84.9584 73.9831 85.2549 74.2743 85.2401 74.621C85.2401 75.3005 85.1511 75.98 85.0029 76.6457C84.9436 76.9369 84.6619 77.131 84.3505 77.131L84.3653 77.1171ZM50.5152 75.8691C50.1742 75.8691 49.8777 75.6195 49.848 75.3005C49.8184 75.0232 49.8184 74.7458 49.8184 74.4685V73.3313C49.8184 72.9846 50.1149 72.7073 50.4856 72.7073C50.8563 72.7073 51.1528 72.9846 51.1528 73.3313V74.4685C51.1528 74.7181 51.1676 74.9538 51.1824 75.2034C51.2121 75.5501 50.9304 75.8413 50.5745 75.8691H50.5152ZM84.5877 73.2897C84.217 73.2897 83.9205 73.0124 83.9205 72.6657V71.5424C83.9205 71.2928 83.9205 71.0432 83.8908 70.7936C83.8612 70.4469 84.1429 70.1557 84.4988 70.1279C84.8694 70.1002 85.1808 70.3498 85.2105 70.6965C85.2401 70.9738 85.2401 71.2512 85.2401 71.5424V72.6657C85.2549 73.0124 84.9584 73.2897 84.5877 73.2897ZM50.4856 72.0416C50.1149 72.0416 49.8184 71.7504 49.8184 71.4037C49.8332 70.7242 49.9073 70.0447 50.0556 69.3791C50.1297 69.0463 50.4856 68.8244 50.8414 68.8937C51.1973 68.9631 51.4345 69.2959 51.3604 69.6287C51.2269 70.2111 51.1528 70.8074 51.1528 71.4176C51.1528 72.0278 50.8414 72.0416 50.4856 72.0416ZM84.1874 69.49C83.8908 69.49 83.624 69.3097 83.5498 69.0324C83.3719 68.4638 83.1347 67.8953 82.853 67.3544C82.6899 67.0494 82.8233 66.6749 83.1495 66.5085C83.4757 66.356 83.876 66.4808 84.054 66.7859C84.3801 67.396 84.647 68.0339 84.8398 68.6857C84.9436 69.0185 84.736 69.3652 84.3801 69.4623C84.3208 69.4623 84.2467 69.49 84.1874 69.49ZM51.3307 68.2974C51.2418 68.2974 51.1528 68.2974 51.0638 68.242C50.7228 68.1033 50.5745 67.7427 50.708 67.4238C50.9897 66.7997 51.3455 66.2034 51.7607 65.6349C51.9683 65.3436 52.3834 65.2743 52.6948 65.4685C53.0062 65.6626 53.0803 66.0509 52.8727 66.3421C52.5169 66.8413 52.2055 67.3683 51.9534 67.923C51.8348 68.1587 51.5828 68.2974 51.3307 68.2974ZM82.3488 66.0925C82.1561 66.0925 81.9485 66.0093 81.8299 65.8567C81.4296 65.3853 80.9848 64.9415 80.5103 64.5532C80.2286 64.3313 80.1989 63.9292 80.4362 63.6796C80.6734 63.4161 81.1034 63.3883 81.3703 63.6102C81.9189 64.054 82.423 64.5532 82.8678 65.0802C83.0902 65.3575 83.0457 65.7458 82.7492 65.9538C82.6306 66.0509 82.4971 66.0925 82.3488 66.0925ZM53.6141 65.1495C53.4362 65.1495 53.2731 65.094 53.1396 64.9692C52.8876 64.7196 52.8876 64.3313 53.1396 64.0817C53.6586 63.6102 54.222 63.1665 54.8299 62.792C55.1413 62.5979 55.5564 62.6811 55.7492 62.9723C55.9567 63.2635 55.8678 63.6518 55.5564 63.8321C55.0226 64.1649 54.5185 64.5393 54.0589 64.9692C53.9551 65.094 53.792 65.1495 53.6141 65.1495ZM79.2648 63.5963C79.1462 63.5963 79.0424 63.5686 78.9386 63.5131C78.3752 63.2219 77.7969 62.9723 77.189 62.7782C76.8332 62.6672 76.6553 62.3205 76.7739 61.9877C76.8925 61.6549 77.2632 61.4885 77.619 61.5994C78.3011 61.8213 78.9831 62.0987 79.6058 62.4315C79.932 62.5979 80.0358 62.9862 79.8579 63.2774C79.7096 63.4854 79.4872 63.5963 79.2648 63.5963ZM57.0243 63.0416C56.7574 63.0416 56.5202 62.903 56.4016 62.6534C56.2681 62.3344 56.4312 61.9738 56.7574 61.8352C57.4246 61.5717 58.1363 61.3775 58.848 61.2527C59.2039 61.1834 59.5597 61.4053 59.6338 61.7381C59.708 62.0709 59.4708 62.4037 59.1149 62.4731C58.4922 62.584 57.8694 62.7643 57.2763 62.9862C57.1874 63.0278 57.1133 63.0416 57.0243 63.0416ZM75.395 62.376H75.306C74.8908 62.3205 74.4609 62.3067 74.0309 62.3067H73.334C72.9633 62.3067 72.6668 62.0293 72.6668 61.6826C72.6668 61.3359 72.9633 61.0586 73.334 61.0586H74.0309C74.5053 61.0586 74.9946 61.0863 75.4691 61.1418C75.8398 61.1834 76.0918 61.5024 76.0474 61.8352C76.0177 62.1541 75.7212 62.376 75.395 62.376ZM71.2879 62.3067H69.2418C68.8711 62.3067 68.5745 62.0293 68.5745 61.6826C68.5745 61.3359 68.8711 61.0586 69.2418 61.0586H71.2879C71.6586 61.0586 71.9551 61.3359 71.9551 61.6826C71.9551 62.0293 71.6586 62.3067 71.2879 62.3067ZM67.1808 62.3067H65.1347C64.764 62.3067 64.4675 62.0293 64.4675 61.6826C64.4675 61.3359 64.764 61.0586 65.1347 61.0586H67.1808C67.5515 61.0586 67.848 61.3359 67.848 61.6826C67.848 62.0293 67.5515 62.3067 67.1808 62.3067ZM63.0737 62.3067H61.0276C60.6569 62.3067 60.3604 62.0293 60.3604 61.6826C60.3604 61.3359 60.6569 61.0586 61.0276 61.0586H63.0737C63.4444 61.0586 63.7409 61.3359 63.7409 61.6826C63.7409 62.0293 63.4444 62.3067 63.0737 62.3067Z" fill="#46433E"/>
<path d="M74.0604 85.0355H71.9847C71.5695 85.0355 71.2433 84.7304 71.2433 84.3421C71.2433 83.9538 71.5695 83.6487 71.9847 83.6487H74.0604C74.4756 83.6487 74.8018 83.9538 74.8018 84.3421C74.8018 84.7304 74.4756 85.0355 74.0604 85.0355ZM71.9847 83.7874C71.6585 83.7874 71.3916 84.037 71.3916 84.3421C71.3916 84.6472 71.6585 84.8968 71.9847 84.8968H74.0604C74.3866 84.8968 74.6535 84.6472 74.6535 84.3421C74.6535 84.037 74.3866 83.7874 74.0604 83.7874H71.9847ZM69.9237 85.0355H67.8776C67.4624 85.0355 67.1362 84.7304 67.1362 84.3421C67.1362 83.9538 67.4624 83.6487 67.8776 83.6487H69.9237C70.3389 83.6487 70.6651 83.9538 70.6651 84.3421C70.6651 84.7304 70.3389 85.0355 69.9237 85.0355ZM67.8776 83.7874C67.5514 83.7874 67.2845 84.037 67.2845 84.3421C67.2845 84.6472 67.5514 84.8968 67.8776 84.8968H69.9237C70.2499 84.8968 70.5168 84.6472 70.5168 84.3421C70.5168 84.037 70.2499 83.7874 69.9237 83.7874H67.8776ZM65.8166 85.0355H63.7705C63.3553 85.0355 63.0291 84.7304 63.0291 84.3421C63.0291 83.9538 63.3553 83.6487 63.7705 83.6487H65.8166C66.2318 83.6487 66.558 83.9538 66.558 84.3421C66.558 84.7304 66.2318 85.0355 65.8166 85.0355ZM63.7705 83.7874C63.4443 83.7874 63.1774 84.037 63.1774 84.3421C63.1774 84.6472 63.4443 84.8968 63.7705 84.8968H65.8166C66.1428 84.8968 66.4097 84.6472 66.4097 84.3421C66.4097 84.037 66.1428 83.7874 65.8166 83.7874H63.7705ZM61.7244 85.0355H61.0423C60.553 85.0355 60.0489 85.0077 59.5745 84.9523C59.3817 84.9245 59.2038 84.8413 59.0852 84.6888C58.9665 84.5501 58.9072 84.356 58.9369 84.1757C58.9665 83.9954 59.0555 83.829 59.2186 83.7181C59.3669 83.6071 59.5745 83.5517 59.7672 83.5794C60.1675 83.6349 60.6123 83.6626 61.0275 83.6626H61.7095C62.1247 83.6626 62.4509 83.9677 62.4509 84.356C62.4509 84.7443 62.1247 85.0355 61.7244 85.0355ZM59.6782 83.7181C59.5448 83.7181 59.4114 83.7597 59.3076 83.8429C59.189 83.9399 59.1 84.0648 59.0852 84.2034C59.0703 84.3421 59.1148 84.4947 59.2038 84.6195C59.2927 84.7443 59.441 84.8136 59.5893 84.8275C60.0637 84.8829 60.5382 84.9107 61.0275 84.9107H61.7095C62.0357 84.9107 62.2878 84.6749 62.2878 84.3698C62.2878 84.0648 62.0209 83.8151 61.6947 83.8151H61.0127C60.5827 83.8151 60.1379 83.7874 59.7227 83.7319C59.6931 83.7319 59.6782 83.7319 59.6486 83.7319L59.6782 83.7181ZM76.24 84.8413H76.0918C75.7359 84.8413 75.4394 84.6056 75.3652 84.2866C75.2911 83.9261 75.5432 83.5517 75.9435 83.4685C76.5366 83.3575 77.1445 83.1911 77.7672 82.9554C77.9451 82.886 78.1527 82.886 78.3306 82.9554C78.5086 83.0247 78.6568 83.1634 78.731 83.3298C78.8051 83.4962 78.8051 83.6903 78.731 83.8568C78.6568 84.0232 78.5086 84.1618 78.3306 84.2312C77.6931 84.4808 76.9962 84.6888 76.2252 84.8275L76.24 84.8413ZM78.0637 83.0386C77.9896 83.0386 77.9007 83.0524 77.8265 83.0802C77.189 83.3159 76.5662 83.4962 75.9731 83.5933C75.6618 83.6487 75.4542 83.9538 75.5135 84.245C75.558 84.4947 75.81 84.6888 76.0918 84.6888H76.2104C76.9665 84.5363 77.6634 84.3421 78.2861 84.0925C78.4344 84.037 78.553 83.9261 78.6123 83.7874C78.6717 83.6487 78.6717 83.4962 78.6123 83.3714C78.553 83.2327 78.4344 83.1218 78.2861 83.0663C78.212 83.0386 78.1379 83.0247 78.0637 83.0247V83.0386ZM57.6766 84.5224C57.5876 84.5224 57.4987 84.5085 57.4542 84.4946C56.7128 84.2589 56.0456 83.9677 55.4525 83.6487C55.2894 83.5655 55.156 83.413 55.1115 83.2327C55.0522 83.0524 55.0819 82.8583 55.1857 82.7057C55.2746 82.5532 55.4377 82.4284 55.6305 82.3868C55.8232 82.3313 56.0308 82.3591 56.1939 82.4561C56.7425 82.7473 57.3207 82.997 57.9287 83.1911C58.3142 83.3159 58.5217 83.7042 58.3883 84.0648C58.2993 84.3282 58.0028 84.5224 57.6914 84.5224H57.6766ZM55.8084 82.4977C55.7491 82.4977 55.7046 82.4977 55.6453 82.5255C55.497 82.5671 55.3636 82.6641 55.2894 82.789C55.2153 82.9138 55.1857 83.0663 55.2301 83.2188C55.2746 83.3575 55.3784 83.4823 55.5118 83.5517C56.1049 83.8706 56.7573 84.148 57.4838 84.3837C57.5283 84.3837 57.6025 84.4114 57.6618 84.4114C57.899 84.4114 58.1362 84.2589 58.2104 84.037C58.3142 83.7458 58.1511 83.4269 57.8397 83.3298C57.2318 83.1356 56.6387 82.886 56.0753 82.5948C55.9863 82.5532 55.8825 82.5255 55.7787 82.5255L55.8084 82.4977ZM79.8726 83.3853C79.6206 83.3853 79.3982 83.2743 79.2499 83.0802C79.1313 82.9276 79.1016 82.7335 79.1461 82.5532C79.1906 82.3729 79.3092 82.2204 79.4723 82.1233C80.0506 81.7628 80.525 81.4022 80.9402 81C81.2367 80.7366 81.6964 80.7366 81.9929 81C82.2746 81.2774 82.2746 81.7073 81.9929 81.9846C81.474 82.47 80.8957 82.9138 80.2878 83.2882C80.1692 83.3575 80.0209 83.3991 79.8726 83.3991V83.3853ZM81.4591 80.9307C81.3109 80.9307 81.1478 80.9862 81.0291 81.0833C80.614 81.4854 80.1247 81.8598 79.5316 82.2343C79.3982 82.3175 79.3092 82.4284 79.2796 82.5809C79.2499 82.7335 79.2796 82.8722 79.3685 82.997C79.4871 83.1495 79.6651 83.2466 79.8726 83.2466C80.0802 83.2466 80.1099 83.2188 80.1988 83.1634C80.7919 82.789 81.3702 82.3591 81.8743 81.8876C82.0967 81.6657 82.0967 81.319 81.8743 81.0971C81.7557 81 81.6074 80.9446 81.4591 80.9446V80.9307ZM54.1329 82.6225C53.9698 82.6225 53.7771 82.5532 53.6585 82.4561C53.1247 82.0262 52.6058 81.527 52.1461 80.9723C51.8941 80.6534 51.9534 80.2235 52.2796 80.0016C52.6206 79.7658 53.0654 79.8213 53.3175 80.1264C53.7326 80.6118 54.1626 81.0416 54.6222 81.4161C54.7705 81.5409 54.8595 81.7073 54.8743 81.8876C54.8743 82.0678 54.8298 82.2481 54.6964 82.3868C54.5333 82.5393 54.3257 82.6225 54.1181 82.6225H54.1329ZM52.7392 79.9877C52.6058 79.9877 52.4871 80.0293 52.3685 80.1125C52.1016 80.2928 52.0572 80.6395 52.2647 80.8891C52.7244 81.4299 53.2137 81.9153 53.7474 82.3452C53.8512 82.4284 53.9995 82.4839 54.1329 82.4839C54.2664 82.4839 54.474 82.4145 54.5926 82.2897C54.6964 82.1927 54.7408 82.0401 54.726 81.9014C54.726 81.7489 54.6371 81.6102 54.5184 81.527C54.044 81.1387 53.5992 80.7088 53.184 80.2096C53.0654 80.0709 52.9023 79.9877 52.7244 79.9877H52.7392ZM82.7639 80.7088C82.6156 80.7088 82.4674 80.6672 82.3488 80.584C82.1857 80.4869 82.067 80.3205 82.0374 80.1403C82.0077 79.96 82.0374 79.7658 82.156 79.6133C82.5267 79.1002 82.8232 78.5732 83.0753 78.0463C83.1494 77.8799 83.2977 77.7412 83.4756 77.6718C83.6535 77.6025 83.8611 77.6025 84.039 77.6718C84.4245 77.8244 84.6025 78.2265 84.4394 78.5871C84.1725 79.1695 83.8166 79.7797 83.4015 80.3899C83.268 80.5979 83.0308 80.7088 82.7787 80.7088H82.7639ZM83.7425 77.7551C83.6684 77.7551 83.5942 77.7551 83.5201 77.7967C83.3718 77.8521 83.2532 77.9631 83.1939 78.1017C82.9567 78.6426 82.6453 79.1695 82.2746 79.6965C81.9039 80.2235 82.156 79.9739 82.1857 80.1125C82.2153 80.2651 82.3043 80.3899 82.4377 80.4731C82.5267 80.5424 82.6453 80.5702 82.7639 80.5702C82.9715 80.5702 83.1494 80.4731 83.268 80.3067C83.698 79.7104 84.039 79.1002 84.3059 78.5316C84.4394 78.2543 84.3059 77.9353 83.9946 77.8105C83.9204 77.7828 83.8463 77.7689 83.7573 77.7689L83.7425 77.7551ZM51.6123 79.6133C51.3306 79.6133 51.0786 79.4608 50.96 79.225C50.6189 78.601 50.352 77.9492 50.1741 77.3113C50.1148 77.131 50.1445 76.9369 50.2483 76.7843C50.352 76.6318 50.5003 76.507 50.6931 76.4654C50.8858 76.4099 51.0934 76.4376 51.2565 76.5347C51.4196 76.6318 51.553 76.7705 51.5975 76.9507C51.7903 77.5748 52.0275 78.1295 52.2944 78.6148C52.3834 78.7812 52.3982 78.9615 52.3389 79.1418C52.2796 79.3221 52.1461 79.4608 51.9682 79.544C51.8644 79.6133 51.731 79.6272 51.642 79.6272L51.6123 79.6133ZM50.8858 76.5763C50.8265 76.5763 50.7672 76.5763 50.7227 76.6041C50.5745 76.6457 50.441 76.7289 50.3669 76.8537C50.2927 76.9785 50.2631 77.131 50.3076 77.2836C50.5003 77.9215 50.7524 78.5594 51.0934 79.1695C51.1972 79.3637 51.4048 79.4746 51.6272 79.4746C51.8496 79.4746 51.8199 79.4608 51.8792 79.4192C52.0275 79.3498 52.1313 79.2389 52.1758 79.1002C52.2203 78.9615 52.2203 78.809 52.1461 78.6842C51.8792 78.1849 51.642 77.6302 51.4492 76.9923C51.4048 76.8537 51.3158 76.7289 51.1824 76.6595C51.0934 76.6179 50.9896 76.5902 50.9006 76.5902L50.8858 76.5763ZM84.3652 77.1865C84.3207 77.1865 84.2614 77.1865 84.2021 77.1726C83.8166 77.1033 83.5497 76.7289 83.6387 76.3544C83.7721 75.7581 83.8463 75.1618 83.8463 74.5794C83.8463 73.997 84.1725 73.8999 84.5876 73.8999C85.0028 73.8999 84.988 73.9692 85.1214 74.1079C85.2548 74.2466 85.329 74.4269 85.329 74.6071C85.3142 75.3144 85.24 76.0078 85.0918 76.6457C85.0324 76.9646 84.7211 77.1865 84.3652 77.1865ZM84.6025 74.0386C84.2614 74.0386 83.9946 74.2743 83.9946 74.5794C83.9946 75.1757 83.9204 75.772 83.787 76.3822C83.7277 76.6734 83.9352 76.9785 84.2466 77.0339C84.2911 77.0339 84.3207 77.0339 84.3652 77.0339C84.6469 77.0339 84.899 76.8537 84.9435 76.6041C85.0918 75.9662 85.1659 75.2866 85.1807 74.5933C85.1807 74.4407 85.1362 74.302 85.0176 74.1911C84.9138 74.0802 84.7656 74.0247 84.6025 74.0247V74.0386ZM50.5151 75.9384C50.1296 75.9384 49.8035 75.6611 49.7738 75.3005C49.7441 75.0232 49.7441 74.7319 49.7441 74.4685V73.3313C49.7441 72.943 50.0703 72.6379 50.4855 72.6379C50.9006 72.6379 51.2268 72.943 51.2268 73.3313V74.4685C51.2268 74.7042 51.2268 74.9261 51.2565 75.1618V75.1896C51.2862 75.564 50.9896 75.8968 50.5893 75.9245H50.53L50.5151 75.9384ZM50.4855 72.7766C50.1593 72.7766 49.8924 73.0262 49.8924 73.3313V74.4685C49.8924 74.7458 49.8924 75.0232 49.9221 75.3005C49.9517 75.5779 50.2038 75.7997 50.5151 75.7997H50.5745C50.8858 75.772 51.1379 75.5085 51.1082 75.2034V75.1757C51.0934 74.9399 51.0786 74.7042 51.0786 74.4685V73.3313C51.0786 73.0262 50.8117 72.7766 50.4855 72.7766ZM84.5876 73.3591C84.1725 73.3591 83.8463 73.054 83.8463 72.6657V71.5424C83.8463 71.2928 83.8315 71.0432 83.8166 70.7936C83.787 70.4192 84.0835 70.0863 84.4987 70.0586C84.9138 70.0309 85.2548 70.3082 85.2845 70.6965C85.3142 70.9738 85.3142 71.2512 85.3142 71.5424V72.6657C85.3142 72.846 85.2548 73.0262 85.1214 73.151C84.988 73.2897 84.7952 73.3591 84.5876 73.3591ZM84.558 70.1973C84.5431 70.1973 84.5283 70.1973 84.5135 70.1973C84.1873 70.225 83.9501 70.4885 83.9797 70.7936C83.9797 71.0432 84.0094 71.2928 84.0094 71.5424V72.6657C84.0094 72.9708 84.2763 73.2204 84.6025 73.2204C84.9286 73.2204 84.9138 73.1649 85.0324 73.054C85.1362 72.9569 85.1955 72.8182 85.1807 72.6657V71.5424C85.1807 71.2512 85.1807 70.9739 85.1511 70.7104C85.1214 70.4192 84.8694 70.1973 84.5728 70.1973H84.558ZM50.4855 72.111C50.0703 72.111 49.7441 71.792 49.7441 71.4037C49.759 70.6965 49.8331 70.0031 49.9814 69.3652C50.0703 68.9908 50.4707 68.7551 50.8562 68.8244C51.2565 68.9076 51.5086 69.282 51.4344 69.6426C51.301 70.2389 51.2268 70.8352 51.2268 71.4176C51.2268 72 50.8858 72.111 50.4855 72.111ZM50.7079 68.9492C50.441 68.9492 50.189 69.1295 50.1296 69.393C49.9814 70.0309 49.9072 70.6965 49.8924 71.4037C49.8924 71.7227 50.1593 71.9723 50.4855 71.9723C50.8117 71.9723 51.0786 71.7227 51.0786 71.4176C51.0786 70.8213 51.1527 70.225 51.2861 69.6148C51.3455 69.3236 51.1379 69.0185 50.8265 68.9631C50.782 68.9631 50.7524 68.9631 50.7079 68.9631V68.9492ZM84.1873 69.5594C83.8463 69.5594 83.5646 69.3514 83.4756 69.0463C83.2977 68.4916 83.0604 67.923 82.7787 67.3822C82.6008 67.0494 82.7343 66.6333 83.1049 66.4392C83.4756 66.2728 83.9056 66.3976 84.1132 66.7443C84.4542 67.3683 84.7211 68.0201 84.899 68.658C84.9583 68.8383 84.9287 69.0185 84.8397 69.1849C84.7359 69.3514 84.5876 69.4623 84.3949 69.5178C84.3059 69.5316 84.2318 69.5455 84.1873 69.5455V69.5594ZM83.4459 66.5085C83.357 66.5085 83.268 66.5224 83.1791 66.564C82.8825 66.7165 82.7639 67.0494 82.9122 67.3128C83.1939 67.8675 83.4311 68.4361 83.6091 69.0047C83.6684 69.2404 83.9056 69.4068 84.1725 69.4068C84.4394 69.4068 84.2763 69.4068 84.3504 69.3791C84.4987 69.3375 84.6321 69.2404 84.7062 69.1156C84.7804 68.9908 84.7952 68.8383 84.7507 68.6857C84.558 68.0478 84.3059 67.4099 83.9649 66.7997C83.8463 66.6056 83.6387 66.4947 83.4311 66.4947L83.4459 66.5085ZM51.3306 68.3668C51.212 68.3668 51.1231 68.3529 51.0341 68.2974C50.6634 68.1449 50.4855 67.7427 50.6486 67.396C50.9303 66.7859 51.2861 66.1757 51.7161 65.5933C51.8199 65.4407 51.9978 65.3298 52.1906 65.302C52.3833 65.2743 52.5909 65.3021 52.754 65.413C52.9171 65.5101 53.0357 65.6765 53.0654 65.8567C53.095 66.037 53.0654 66.2312 52.9468 66.3837C52.5761 66.8968 52.2796 67.4238 52.0275 67.9507C51.8941 68.2004 51.6272 68.3668 51.3306 68.3668ZM52.3092 65.4269C52.1165 65.4269 51.9385 65.5101 51.8199 65.6765C51.3899 66.2589 51.0489 66.8552 50.7672 67.4515C50.6486 67.7427 50.782 68.0617 51.0786 68.1726C51.1527 68.2004 51.2268 68.2281 51.3158 68.2281C51.553 68.2281 51.7754 68.1033 51.8644 67.8953C52.1016 67.3544 52.413 66.8275 52.7837 66.3005C52.8726 66.1757 52.9023 66.0232 52.8726 65.8845C52.843 65.7319 52.754 65.6071 52.6206 65.5239C52.5168 65.4546 52.3982 65.4269 52.2796 65.4269H52.3092ZM82.3488 66.1618C82.1115 66.1618 81.9039 66.0648 81.7705 65.8984C81.3553 65.413 80.9254 64.9831 80.4657 64.6087C80.3175 64.4839 80.2285 64.3175 80.2137 64.1372C80.2137 63.9569 80.2581 63.7766 80.3916 63.6379C80.525 63.4993 80.7029 63.4161 80.8957 63.4022C81.0885 63.4022 81.2812 63.4438 81.4295 63.5686C81.9633 64.0124 82.4822 64.4977 82.9418 65.0524C83.1939 65.3714 83.1346 65.8013 82.8084 66.0232C82.6898 66.1202 82.5415 66.1757 82.3636 66.1757L82.3488 66.1618ZM80.9402 63.527C80.9402 63.527 80.9105 63.527 80.8957 63.527C80.7326 63.527 80.5843 63.6102 80.4954 63.7212C80.3916 63.8321 80.3471 63.9708 80.3619 64.1233C80.3619 64.2759 80.4509 64.4145 80.5695 64.4977C81.044 64.886 81.4888 65.3159 81.9039 65.8151C82.0077 65.94 82.1857 66.0232 82.3636 66.0232C82.5415 66.0232 82.6156 65.9816 82.7194 65.8984C82.9863 65.7181 83.0308 65.3714 82.8232 65.1218C82.3636 64.5809 81.8743 64.0956 81.3405 63.6657C81.2367 63.5825 81.1033 63.527 80.955 63.527H80.9402ZM53.614 65.2188C53.4064 65.2188 53.2285 65.1495 53.0802 65.0247C52.7985 64.7473 52.7985 64.3175 53.0802 64.0401C53.6436 63.527 54.2219 63.0832 54.7853 62.7366C54.9484 62.6256 55.156 62.5979 55.3488 62.6395C55.5415 62.6811 55.7046 62.792 55.8084 62.9446C55.9122 63.0971 55.9567 63.2913 55.9122 63.4715C55.8677 63.6518 55.7491 63.8044 55.586 63.9014C55.0226 64.2481 54.5333 64.6225 54.1033 65.0247C53.9995 65.1495 53.8216 65.2188 53.5992 65.2188H53.614ZM55.2005 62.7504C55.0819 62.7504 54.9781 62.7782 54.8743 62.8475C54.3257 63.1942 53.7474 63.6241 53.1988 64.1233C52.9764 64.3452 52.9764 64.6919 53.1988 64.9138C53.3175 65.0247 53.4509 65.0663 53.614 65.0663C53.7771 65.0663 53.8957 65.0386 53.9995 64.9138C54.4443 64.4977 54.9484 64.1233 55.5118 63.7628C55.6453 63.6796 55.7343 63.5686 55.7639 63.4161C55.7936 63.2635 55.7639 63.1249 55.6749 63C55.586 62.8752 55.4674 62.792 55.3043 62.7643C55.2598 62.7643 55.2153 62.7643 55.1857 62.7643L55.2005 62.7504ZM79.2647 63.6657C79.1313 63.6657 79.0127 63.6379 78.9089 63.5686C78.3158 63.2635 77.7375 63.0278 77.1741 62.8336C76.9814 62.7782 76.8331 62.6534 76.7441 62.4869C76.6552 62.3205 76.6404 62.1403 76.7145 61.96C76.7738 61.7797 76.9072 61.641 77.0852 61.5578C77.2631 61.4746 77.4558 61.4608 77.6486 61.5301C78.3899 61.7658 79.0572 62.0571 79.6502 62.3621C79.8133 62.4453 79.9468 62.5979 79.9913 62.7782C80.0506 62.9584 80.0209 63.1526 79.9171 63.3051C79.754 63.527 79.5168 63.6657 79.2647 63.6657ZM77.3965 61.641C77.3076 61.641 77.2186 61.6549 77.1445 61.6965C77.011 61.7658 76.8924 61.8768 76.8479 62.0155C76.8034 62.1541 76.8034 62.3067 76.8776 62.4453C76.9517 62.5702 77.0703 62.6811 77.2186 62.7227C77.7969 62.903 78.3751 63.1526 78.983 63.4577C79.072 63.5131 79.1758 63.527 79.2796 63.527C79.4871 63.527 79.6799 63.4161 79.8133 63.2358C79.8875 63.111 79.9023 62.9584 79.8578 62.8198C79.8133 62.6811 79.7095 62.5563 79.5761 62.4869C78.983 62.168 78.3306 61.8906 77.6041 61.6549C77.5448 61.641 77.4707 61.6272 77.4114 61.6272L77.3965 61.641ZM57.0242 63.111C56.7128 63.111 56.4608 62.9446 56.3273 62.6811C56.1791 62.3205 56.357 61.9322 56.7128 61.7658C57.3652 61.5024 58.0769 61.3082 58.8183 61.1834C59.011 61.1418 59.2038 61.1834 59.3669 61.2805C59.53 61.3775 59.6486 61.544 59.6931 61.7242C59.7672 62.0848 59.5151 62.4592 59.1148 62.5424C58.5217 62.6534 57.9138 62.8198 57.2911 63.0555C57.2021 63.0971 57.1132 63.111 57.0094 63.111H57.0242ZM58.9814 61.3082C58.9369 61.3082 58.9072 61.3082 58.8628 61.3082C58.1362 61.433 57.4394 61.6272 56.787 61.8906C56.4904 62.0155 56.357 62.3344 56.4756 62.6256C56.5794 62.8336 56.787 62.9723 57.0242 62.9723C57.2614 62.9723 57.1725 62.9723 57.2466 62.9307C57.8842 62.695 58.5069 62.5147 59.1 62.4176C59.4114 62.3621 59.6189 62.0571 59.5596 61.7658C59.53 61.6272 59.441 61.5024 59.3076 61.4192C59.2038 61.3637 59.1 61.3221 58.9814 61.3221V61.3082ZM75.3949 62.4453H75.3059C74.9352 62.4037 74.5497 62.376 74.0308 62.376H73.3339C72.9188 62.376 72.5926 62.0709 72.5926 61.6826C72.5926 61.2943 72.9188 60.9893 73.3339 60.9893H74.0308C74.5201 60.9893 75.0094 61.017 75.4838 61.0725C75.6766 61.1002 75.8545 61.1834 75.9731 61.3359C76.0918 61.4746 76.1511 61.6688 76.1214 61.849C76.0918 62.1957 75.7804 62.4453 75.3949 62.4453ZM73.3339 61.1279C73.0077 61.1279 72.7408 61.3775 72.7408 61.6826C72.7408 61.9877 73.0077 62.2373 73.3339 62.2373H74.0308C74.5646 62.2373 74.9501 62.2651 75.3207 62.3067H75.3949C75.7062 62.3067 75.9435 62.0987 75.9731 61.8352C75.988 61.6826 75.9435 61.544 75.8545 61.4192C75.7656 61.2943 75.6173 61.225 75.469 61.2111C74.9946 61.1557 74.5201 61.1279 74.0456 61.1279H73.3488H73.3339ZM71.2878 62.376H69.2417C68.8265 62.376 68.5003 62.0709 68.5003 61.6826C68.5003 61.2943 68.8265 60.9893 69.2417 60.9893H71.2878C71.703 60.9893 72.0291 61.2943 72.0291 61.6826C72.0291 62.0709 71.703 62.376 71.2878 62.376ZM69.2417 61.1279C68.9155 61.1279 68.6486 61.3775 68.6486 61.6826C68.6486 61.9877 68.9155 62.2373 69.2417 62.2373H71.2878C71.614 62.2373 71.8809 61.9877 71.8809 61.6826C71.8809 61.3775 71.614 61.1279 71.2878 61.1279H69.2417ZM67.1807 62.376H65.1346C64.7194 62.376 64.3932 62.0709 64.3932 61.6826C64.3932 61.2943 64.7194 60.9893 65.1346 60.9893H67.1807C67.5959 60.9893 67.9221 61.2943 67.9221 61.6826C67.9221 62.0709 67.5959 62.376 67.1807 62.376ZM65.1346 61.1279C64.8084 61.1279 64.5415 61.3775 64.5415 61.6826C64.5415 61.9877 64.8084 62.2373 65.1346 62.2373H67.1807C67.5069 62.2373 67.7738 61.9877 67.7738 61.6826C67.7738 61.3775 67.5069 61.1279 67.1807 61.1279H65.1346ZM63.0736 62.376H61.0275C60.6123 62.376 60.2862 62.0709 60.2862 61.6826C60.2862 61.2943 60.6123 60.9893 61.0275 60.9893H63.0736C63.4888 60.9893 63.815 61.2943 63.815 61.6826C63.815 62.0709 63.4888 62.376 63.0736 62.376ZM61.0275 61.1279C60.7013 61.1279 60.4344 61.3775 60.4344 61.6826C60.4344 61.9877 60.7013 62.2373 61.0275 62.2373H63.0736C63.3998 62.2373 63.6667 61.9877 63.6667 61.6826C63.6667 61.3775 63.3998 61.1279 63.0736 61.1279H61.0275Z" fill="#46433E"/>
<path d="M4.90751 62.4588C4.74442 62.4588 4.58132 62.4172 4.43305 62.3201C4.06238 62.0705 3.98824 61.599 4.25513 61.2523L22.0327 38.3155C22.0624 38.2878 22.0772 38.26 22.1069 38.2323C24.1678 36.2492 27.2963 35.5836 30.0838 36.5127L36.2073 38.5512C36.6373 38.6899 36.8597 39.1337 36.6966 39.522C36.5484 39.9241 36.0739 40.1321 35.6588 39.9796L29.5352 37.9411C27.3704 37.22 24.9388 37.7331 23.3227 39.2585L5.57473 62.1537C5.41163 62.3617 5.15957 62.4727 4.90751 62.4727V62.4588Z" fill="#46433E"/>
<path d="M73.3497 33.7395C72.9494 33.8505 72.549 33.684 72.3563 33.1016L66.292 13.5762C66.0993 13.0076 66.2179 12.9938 66.6034 12.7857C67.2113 12.6055 67.5523 12.6332 67.7302 13.0215L73.9279 32.8104C74.1207 33.379 73.7204 33.6286 73.3497 33.7395Z" fill="#46433E"/>
<path d="M85.2109 23.616C85.374 23.4496 85.5667 23.2971 85.7446 23.1168C85.8039 23.0475 85.8336 23.0059 85.8929 22.9504L72.1186 10.012C71.7034 9.63762 71.3624 9.92883 70.9769 10.3033C70.5766 10.6915 70.7397 10.8025 71.14 11.1908L84.855 23.9489C85.0033 23.8102 85.0922 23.727 85.2109 23.616Z" fill="#46433E"/>
<path d="M78.7907 25.0864L70.2059 11.7598C69.8056 12.0649 69.3163 12.2729 68.8418 12.467L77.3673 25.7659C77.7084 26.2652 78.1383 26.3484 78.4942 26.1265C78.8352 25.9185 79.1318 25.5857 78.7907 25.0864Z" fill="#46433E"/>
<path d="M87.0648 24.0187L72.2229 10.0957C71.9115 10.4701 71.4816 10.8029 71.0664 11.0803L85.8489 24.9755C86.2938 25.3915 86.7534 25.3638 87.0351 25.0865C87.302 24.8091 87.5244 24.4208 87.0648 24.0187Z" fill="#46433E"/>
<path d="M84.6035 62.223C84.3515 62.223 84.0994 62.1121 83.9363 61.904L66.2032 39.0088C64.587 37.4834 62.1554 36.9703 59.9907 37.6914L53.8671 39.7299C53.4371 39.8686 52.9775 39.6606 52.8292 39.2723C52.681 38.8701 52.9034 38.4403 53.3185 38.3016L59.4421 36.2631C62.2296 35.3339 65.3581 36.0134 67.419 37.9826C67.4487 38.0104 67.4783 38.0381 67.4931 38.0658L85.2559 61.0027C85.5228 61.3493 85.4338 61.8208 85.078 62.0705C84.9297 62.1675 84.7666 62.2091 84.6035 62.2091V62.223Z" fill="#46433E"/>
<path d="M80.9851 62.043H83.8912C85.0477 62.043 85.9966 62.9305 85.9966 64.0122V66.855C86.6046 67.4513 87.0642 68.1863 87.3311 69.0045V64.0122C87.3311 62.2371 85.7891 60.7949 83.8912 60.7949H80.5996C80.7775 61.1832 80.911 61.5992 80.9851 62.043Z" fill="#46433E"/>
<path d="M87.4055 69.4758L87.2572 69.032C86.9903 68.2277 86.5455 67.5066 85.9376 66.9103H85.9228V64.0259C85.9228 62.9719 85.0183 62.126 83.8915 62.126H80.9261V62.0705C80.8519 61.6545 80.7185 61.2385 80.5406 60.8363L80.4961 60.7393H83.9063C85.8486 60.7393 87.4203 62.2092 87.4203 64.0259V69.4896L87.4055 69.4758ZM86.071 66.8271C86.5752 67.3263 86.9903 67.9365 87.2572 68.5883V64.012C87.2572 62.2785 85.7449 60.8641 83.8915 60.8641H80.7037C80.8668 61.2246 80.9706 61.599 81.0447 61.9735H83.8915C85.0925 61.9735 86.071 62.8887 86.071 64.012V66.8271Z" fill="#46433E"/>
</g>
<defs>
<clipPath id="clip0_3748_12431">
<rect width="90" height="90" fill="white"/>
</clipPath>
</defs>
</svg>
