<svg width="90" height="90" viewBox="0 0 90 90" fill="none" xmlns="http://www.w3.org/2000/svg">
<g clip-path="url(#clip0_3672_30574)">
<path d="M70.7744 89.9545H67.7643C58.3105 89.9545 50.6719 82.0662 50.6719 72.7464V63.4266C50.6719 62.8174 51.0803 62.4062 51.6853 62.4062H87.0651C87.6702 62.4062 88.0786 62.8174 88.0786 63.4266V72.7464C87.8668 82.2641 80.0315 89.9545 70.7744 89.9545ZM52.2601 64.0966L52.3811 72.5788C52.3811 81.0763 58.9458 88.4316 68.1576 88.3555H71.1677C79.2601 88.2794 86.4752 81.0611 86.4752 72.5636L86.4904 64.0509L52.2601 64.0966Z" fill="#46433E"/>
<path d="M27.7861 89.9848H24.776C15.3222 89.9848 7.68359 82.0964 7.68359 72.7766V63.4568C7.68359 62.8477 8.092 62.4365 8.69704 62.4365H44.0769C44.6819 62.4365 45.0903 62.8477 45.0903 63.4568V72.7766C45.0752 82.0964 37.4517 89.9848 27.7861 89.9848ZM9.28696 64.0964L9.24158 72.3959C9.1962 81.0457 15.6399 88.1421 24.9727 88.3705H27.9828C36.5744 88.3858 43.3357 81.1979 43.3357 73.0812L43.487 64.0507L9.36259 64.0964H9.28696Z" fill="#46433E"/>
<path d="M44.3639 75.9437C44.1823 75.9437 43.9857 75.9437 43.8042 75.761C43.426 75.3803 43.2445 74.8016 43.6227 74.4361C43.6227 74.2534 45.4681 71.7711 47.9185 71.7711C49.6882 71.7255 50.8983 72.6544 52.2294 74.5732C52.6075 74.9539 52.5168 75.4107 52.1386 75.7914C51.7605 76.1722 51.3672 75.9894 50.9891 75.6087C50.0361 74.2838 49.2344 73.3854 47.858 73.3854C45.9067 73.3701 44.863 75.5326 44.863 75.5326C44.6361 75.6848 44.7571 75.9437 44.3639 75.9437Z" fill="#46433E"/>
<path d="M67.1742 77.6352L56.5708 68.5286C56.1624 68.1174 56.1473 67.7063 56.4801 67.3103C56.8885 66.9449 57.2213 67.1276 57.6145 67.3408L68.354 76.6301C68.6112 76.889 68.596 77.224 68.2935 77.6352C67.9759 77.955 67.3708 77.8332 67.1742 77.6352Z" fill="#46433E"/>
<path d="M25.6374 11.8479C19.8139 11.8479 14.9736 7.5992 14.1719 1.73626C14.1719 1.12712 14.4593 0.94438 14.8828 0.85301C15.4273 0.776868 15.6694 1.02052 15.866 1.40123C16.471 6.2591 20.8425 10.1728 25.6677 10.1728C30.4929 10.1728 35.061 6.59413 35.4694 1.53829C35.4694 0.929152 35.8778 0.320015 36.4525 0.3657C37.0576 0.3657 37.1635 0.837781 37.1181 1.50783C36.4828 7.386 31.6576 11.8479 25.6374 11.8479Z" fill="#46433E"/>
<path d="M23.2184 10.0205C22.81 9.82258 22.326 10.0815 22.1293 10.6906L16.5176 30.0459C16.926 30.0307 17.3193 30.0916 17.6672 30.32C17.8184 30.3962 17.9394 30.5028 18.0302 30.6094L23.6268 11.2845C23.8386 10.8733 23.8235 10.2185 23.2184 10.0205Z" fill="#46433E"/>
<path d="M20.7982 8.80232C20.3898 8.60435 19.8907 9.01551 19.694 9.41145L10.2402 24.0003C10.5125 24.1069 10.7394 24.2896 10.9209 24.5181C11.0722 24.716 11.2839 24.8835 11.5108 25.0358L20.9949 10.051C21.2066 9.63988 21.2066 9.01551 20.7982 8.80232Z" fill="#46433E"/>
<path d="M1.07435 15.0458C0.877712 14.6346 0.92309 14.193 1.54326 13.7818L15.9281 5.33004C16.3365 5.13207 16.6542 4.87319 17.0626 5.49756C17.2592 5.90872 17.4861 6.13715 16.8811 6.56355L2.29956 15.2894C1.84578 15.5026 1.27099 15.4265 1.07435 15.0458Z" fill="#46433E"/>
<path d="M18.5908 7.61415C18.1824 7.20298 17.6984 7.26389 17.2899 7.65983L0.651291 24.2284C0.363896 24.5177 0.167258 24.8984 0.227762 25.2182C0.515157 24.9289 0.84793 24.67 1.22608 24.4416C1.40759 24.335 1.58911 24.2131 1.77062 24.0913C1.78574 24.0761 1.80087 24.0761 1.816 24.0608C1.89163 23.9999 1.99751 23.8933 2.05801 23.8172C2.46642 23.3756 3.10171 23.3603 3.58575 23.6344L18.4547 8.75628C18.8479 8.36034 19.0143 7.99486 18.5908 7.61415Z" fill="#46433E"/>
<path d="M1.02876 8.31505C0.574977 8.39119 0.287583 8.13231 0.196826 7.76683C0.0455657 7.21861 0.348087 6.88358 0.938003 6.68561L15.3834 2.93942C15.9884 2.74145 16.0641 3.12216 16.2456 3.7313C16.4271 4.34043 16.1397 4.29475 15.5195 4.50795L1.02876 8.31505Z" fill="#46433E"/>
<path d="M26.4411 34.3249C25.4579 34.3706 25.4276 33.3046 25.4276 32.9087L24.8982 11.6955C24.8982 11.0863 24.8377 11.2386 25.4276 11.2386C26.0327 11.2386 26.4411 11.6498 26.4411 12.0457L27.0159 32.3909C27.0159 33.198 27.1066 34.2488 26.4411 34.3249Z" fill="#46433E"/>
<path d="M35.3191 32.6805C34.9107 32.8024 34.5174 32.6196 34.3208 31.9953L28.2099 10.8278C28.0132 10.2186 28.1342 10.2034 28.5275 9.97496C29.1326 9.77699 29.4805 9.80745 29.662 10.2338L35.8939 31.6755C36.0905 32.2846 35.6973 32.5587 35.3191 32.6805Z" fill="#46433E"/>
<path d="M55.5281 17.7416C55.6037 17.5893 55.6491 17.437 55.6794 17.3456C55.755 17.102 55.6642 16.8888 55.6945 16.6299L35.471 4.76693C34.8659 4.56896 34.6239 4.94967 34.4273 5.34561C34.2306 5.93952 34.1852 5.87861 34.5936 6.07658L54.8323 17.772C55.0894 17.7415 55.271 17.7872 55.5281 17.7416Z" fill="#46433E"/>
<path d="M47.2552 21.7156C47.4216 21.5328 47.6182 21.3653 47.7997 21.1673C47.8602 21.0912 47.8905 21.0455 47.951 20.9846L34.0804 6.97444C33.6569 6.56327 33.3241 6.88307 32.9308 7.29424C32.5224 7.72063 32.6888 7.84246 33.0972 8.25363L46.9073 22.081C47.0585 21.9288 47.1493 21.8374 47.2552 21.7156Z" fill="#46433E"/>
<path d="M59.2191 8.77155L36.046 2.43652C35.8342 2.92383 35.6678 3.4416 35.4258 3.91368L59.6275 10.5837L59.688 10.599C59.7333 10.5533 60.0207 10.6142 60.0207 9.98982C60.0207 9.38069 59.8241 8.96952 59.2191 8.77155Z" fill="#46433E"/>
<path d="M69.5196 84.9596L56.481 73.7819C56.0726 73.3707 56.0575 72.9595 56.3902 72.5636C56.7986 72.1981 57.1314 72.3961 57.5247 72.5941L70.6844 83.9545C70.9415 84.2134 70.9264 84.5484 70.6238 84.9596C70.3213 85.2641 69.7163 85.1575 69.5196 84.9596Z" fill="#46433E"/>
<path d="M24.3378 78.1215L13.7193 69.0149C13.3109 68.6038 13.2957 68.1926 13.6285 67.7967C14.0369 67.4312 14.3697 67.6139 14.763 67.8271L25.5025 77.1165C25.7596 77.3753 25.7445 77.7104 25.442 78.1215C25.1394 78.4261 24.5344 78.3195 24.3378 78.1215Z" fill="#46433E"/>
<path d="M26.6837 85.4468L13.6451 74.2692C13.2366 73.858 13.2215 73.4469 13.5543 73.0509C13.9627 72.6854 14.2955 72.8834 14.6887 73.0814L27.8484 84.4418C28.1056 84.7007 28.0904 85.0357 27.7879 85.4468C27.4854 85.7666 26.8955 85.66 26.6837 85.4468Z" fill="#46433E"/>
<path d="M33.639 36.1523C32.8373 35.3452 31.8239 34.934 30.4323 34.934H24.4121C23.6104 32.7259 20.9936 29.4518 16.9701 29.4518C16.3651 29.4518 15.76 29.4518 15.3516 29.6497C14.5499 25.4162 10.723 21.9746 5.89783 21.9746C3.71968 21.9746 1.84405 22.9035 0.240691 24.3046C0.149934 24.3807 0.286069 24.67 0.195312 24.7462C0.66422 24.8071 0.58859 25.0203 0.724724 25.3858C0.800355 25.4771 0.754976 25.3553 0.800355 25.4924C0.891111 25.401 1.10288 25.5685 1.20876 25.4771C2.53985 24.335 4.15834 23.5431 5.89783 23.5431C9.90624 23.5431 13.476 26.467 13.8693 30.5025C13.8693 30.9137 13.9298 31.1878 14.1415 31.3705C14.3382 31.5685 14.7466 31.5685 15.155 31.3705C15.9567 30.9594 16.5617 30.9594 17.3483 30.9594C20.555 30.9594 22.7936 34.8883 23.1718 35.8934C23.3684 36.3046 23.7768 36.4112 24.1852 36.4112H30.8104C31.8239 36.4112 32.3987 36.7157 32.8222 37.2944C33.0491 37.6599 33.0945 38.4974 33.0945 39.1066L0.467581 39.1827C0.482707 39.3807 0.452455 39.5939 0.391951 39.7766C0.467581 40.1117 0.573464 40.4619 0.391951 40.7513L33.6693 40.7817C34.2743 40.7817 34.6827 40.3705 34.6827 39.7614C34.8642 38.1777 34.4407 36.7766 33.639 36.1523Z" fill="#46433E"/>
<path d="M0.742132 25.6597C1.16818 25.6597 1.51356 25.312 1.51356 24.8831C1.51356 24.4542 1.16818 24.1064 0.742132 24.1064C0.316083 24.1064 -0.0292969 24.4542 -0.0292969 24.8831C-0.0292969 25.312 0.316083 25.6597 0.742132 25.6597Z" fill="#46433E"/>
<path d="M0.454523 40.782C0.888925 40.782 1.24108 40.4275 1.24108 39.9901C1.24108 39.5528 0.888925 39.1982 0.454523 39.1982C0.0201212 39.1982 -0.332031 39.5528 -0.332031 39.9901C-0.332031 40.4275 0.0201212 40.782 0.454523 40.782Z" fill="#46433E"/>
<path d="M40.7947 23.2998L32.1577 8.86328C31.7493 9.19831 31.2653 9.42673 30.7812 9.6247L39.3577 24.0308C39.7056 24.579 40.1292 24.6552 40.4922 24.4267C40.8401 24.2135 41.1426 23.8481 40.7947 23.2998Z" fill="#46433E"/>
<path d="M49.1288 22.1425L34.1842 7.06641C33.8666 7.47757 33.4431 7.82783 33.0195 8.1324L47.9036 23.1933C48.3573 23.6502 48.8111 23.6197 49.0985 23.3151C49.3708 23.0106 49.5826 22.5842 49.1288 22.1425Z" fill="#46433E"/>
<path d="M55.9206 16.629L35.5761 4.78125C35.3794 5.26856 35.0769 5.71018 34.7441 6.12135L55.0282 17.9538C55.5878 18.2584 56.0114 18.1214 56.208 17.7406C56.3895 17.3904 56.4803 16.9335 55.9206 16.629Z" fill="#46433E"/>
<path d="M73.6647 33.4266C64.6345 33.4266 57.2832 26.0256 57.2832 16.9342C57.2832 7.84282 64.6345 0.457031 73.6647 0.457031C82.695 0.457031 90.0462 7.85805 90.0462 16.9494C90.0462 26.0408 82.695 33.4266 73.6647 33.4266ZM73.6647 1.97987C65.4664 1.97987 58.7958 8.69561 58.7958 16.9494C58.7958 25.2032 65.4664 31.919 73.6647 31.919C81.863 31.919 88.5336 25.2032 88.5336 16.9494C88.5336 8.69561 81.863 1.97987 73.6647 1.97987Z" fill="#54A261"/>
<path d="M73.2995 25.3711C73.0878 25.3711 72.876 25.2798 72.7248 25.1123L64.4508 15.6097C64.1785 15.2899 64.2088 14.8178 64.5264 14.5285C64.8441 14.2544 65.313 14.2848 65.6004 14.6046L73.1937 23.3305L82.2542 8.48281C82.4659 8.11733 82.9348 8.01073 83.2979 8.23916C83.6609 8.45235 83.7668 8.92444 83.5399 9.28992L73.95 25.0209C73.829 25.2341 73.6021 25.3559 73.3752 25.3864C73.3449 25.3711 73.3147 25.3711 73.2995 25.3711Z" fill="#54A261"/>
</g>
<defs>
<clipPath id="clip0_3672_30574">
<rect width="90" height="90" fill="white"/>
</clipPath>
</defs>
</svg>
