<svg width="90" height="90" viewBox="0 0 90 90" fill="none" xmlns="http://www.w3.org/2000/svg">
<g clip-path="url(#clip0_3681_12124)">
<path d="M24.5984 80.5491H6.71331C6.42606 80.5491 6.29 80.3993 6.15393 80.1297L3.29655 72.656V72.5062L0.605469 27.5586C0.605469 26.4353 0.892719 25.4468 1.60329 24.7428C2.32897 23.9041 3.29655 23.4697 4.44555 23.4697H26.6092C27.743 23.4697 28.7409 23.8891 29.4514 24.7428C30.1771 25.5816 30.5853 26.5701 30.4492 27.5586L27.7582 72.5212V72.6709L25.2031 80.1297C25.188 80.2645 24.9008 80.5491 24.5984 80.5491ZM7.18198 79.0963L24.1297 79.0364L26.3219 72.2066L28.8316 27.8731C28.8316 27.1542 28.8013 26.4802 28.2268 25.9111C27.6523 25.3569 27.0174 24.9225 26.3219 24.9225L4.74792 25.0274C4.02223 25.0274 3.3419 25.1322 2.7674 25.7164C2.20802 26.2705 2.1929 27.0793 2.23826 27.7683L4.77815 72.1617L7.18198 79.0963Z" fill="#46433E"/>
<path d="M22.0567 89.5353H9.5386C8.54078 89.5353 7.54297 88.6966 7.54297 87.5583V79.9497C7.54297 79.6651 7.83022 79.3955 8.10235 79.3955H23.3115C23.5987 79.3955 23.8709 79.6801 23.8709 79.9497V87.5583C23.9011 88.7115 23.0394 89.5353 22.0567 89.5353ZM9.06993 80.429V86.9142C9.05481 87.7829 9.68979 88.0076 10.1131 88.0076H21.6333C22.0567 88.0076 22.359 87.5882 22.359 87.1689L22.3741 80.3241L9.06993 80.429Z" fill="#46433E"/>
<path d="M8.70782 87.0199C8.42057 87.0199 8.14844 86.6604 8.14844 86.301C8.14844 85.9415 8.43569 85.582 8.70782 85.582H23.4785C23.7658 85.582 23.7658 85.9415 23.7658 86.301C23.7658 86.6604 23.7658 87.0199 23.4785 87.0199H8.70782Z" fill="#46433E"/>
<path d="M18.9296 87.0194H12.9578C12.6706 87.0194 12.3984 86.7348 12.3984 86.4653V83.9341C12.3984 83.6495 12.6857 83.3799 12.9578 83.3799H18.9296C19.2168 83.3799 19.489 83.6645 19.489 83.9341V86.4653C19.5041 86.8696 19.2017 87.0194 18.9296 87.0194ZM13.9556 86.0309H17.9469V84.9076H13.9556V86.0309Z" fill="#46433E"/>
<path d="M16.9177 53.605C16.6305 53.5901 16.4037 53.4103 16.2374 53.1258L15.7234 51.4633C15.7234 50.7443 15.5117 47.9735 15.5117 47.8387C15.5117 47.5541 16.0711 47.1797 16.3584 47.1797C16.6456 47.1797 16.9177 47.4643 16.9177 47.7339C16.9177 48.0184 17.0689 51.2536 17.0689 51.2536L17.4922 52.7963C17.6434 53.0958 17.4015 53.62 16.9177 53.605Z" fill="#46433E"/>
<path d="M12.9273 59.9555C12.2016 59.9555 12.2016 59.9555 12.0807 59.9555C11.6574 59.8057 10.8258 59.1467 10.6898 59.0119C10.0246 58.4128 11.1282 57.7089 11.4608 58.0833C11.7481 58.3679 12.2772 58.6375 12.5493 58.7873C12.9727 58.7873 16.2231 58.8622 18.506 58.7274C18.7933 58.7274 19.0654 59.0119 19.0654 59.2815C19.0654 59.5511 18.7781 59.8357 18.506 59.8357C15.2404 59.8507 13.7739 59.9555 12.9273 59.9555Z" fill="#46433E"/>
<path d="M7.13683 46.4748C7.13683 46.3251 7.86252 45.2017 10.1152 45.0819C12.6702 44.7974 13.5319 46.2052 13.5319 46.2052C13.6831 46.4898 13.7134 46.8643 13.4412 46.999C13.1691 47.1488 12.7609 47.3435 12.6248 47.044C12.6248 47.044 11.8387 46.37 10.1152 46.5198C8.49749 46.6396 8.24048 47.059 8.24048 47.059C8.07418 47.2087 7.06124 47.3585 7.13683 46.4748Z" fill="#46433E"/>
<path d="M14.6805 55.911C14.3932 55.911 14.1211 55.7612 14.1211 55.4916C14.1211 55.222 14.2269 54.7577 14.4991 54.7577C14.6502 54.7577 15.0131 54.6978 15.4515 54.4132C15.7388 54.2634 16.0865 54.5031 16.2377 54.7877C16.3889 55.0722 16.2377 55.3418 15.9504 55.5066C15.6481 55.6264 14.9526 55.911 14.6805 55.911Z" fill="#46433E"/>
<path d="M15.2385 65.4964C10.1285 65.4964 5.57782 61.2727 4.73119 55.5064C3.44613 55.5064 2.31224 53.9637 2.04011 51.8518C1.75286 49.5902 2.59949 47.763 4.03575 47.6282H4.18693C4.47418 47.6282 4.61025 47.6282 4.91261 47.778C4.62536 44.5428 4.76143 38.9113 9.44814 37.084C9.64468 37.0391 9.72027 37.0391 9.87146 37.0391C10.0226 37.0391 10.1587 37.2487 10.1587 37.3835C11.1565 39.78 13.8476 40.0495 16.8259 40.3341C21.0893 40.6187 25.9121 41.3975 26.0784 47.8229C26.3657 47.6731 26.4866 47.6581 26.9099 47.6581H27.0611C27.7868 47.8079 28.3462 48.2123 28.7544 49.051C29.0416 49.77 29.1777 50.7285 29.0416 51.717C28.7544 53.8289 27.6356 55.3716 26.3505 55.3716H26.1994C25.1864 61.1229 20.4997 65.4964 15.2385 65.4964ZM6.0465 54.6676C6.77218 60.1644 10.5971 63.8638 15.0268 63.9537C19.8496 64.0136 24.0223 60.2393 24.748 54.7725C24.748 54.6227 24.8085 54.1584 25.3225 53.9487C25.7912 53.754 26.154 54.0386 26.5924 53.9787C27.0309 53.9187 27.7566 53.2747 27.8926 51.717C28.0438 50.8783 28.3462 50.4889 28.074 49.7849C27.9229 49.3656 27.5751 49.2008 27.1216 49.1259C26.6378 49.081 26.411 48.9462 26.0028 49.5004C25.8516 49.7849 25.3678 49.8748 25.2167 49.8748C24.9294 49.8748 24.7933 49.5902 24.7933 49.3206C24.7329 42.2962 20.923 41.9667 16.6596 41.5323C13.6813 41.2477 10.6727 41.3676 9.38767 38.7016C5.26034 41.2178 6.40934 46.9991 6.81754 48.9911C6.87801 49.3356 6.56052 49.6801 6.19768 49.8149C5.88019 49.8748 5.44176 49.755 5.26034 49.4704C4.97309 48.9762 4.51953 49.066 4.23228 49.066C3.5066 49.066 3.03793 49.8898 3.17399 51.4474C3.32518 52.9901 4.21717 54.1584 4.98821 54.0236C5.62318 53.8588 6.0465 54.5328 6.0465 54.6676Z" fill="#46433E"/>
<path d="M22.7998 46.8802C22.7998 46.8802 22.5427 46.4758 20.9251 46.341C19.2318 46.1912 18.4154 46.8652 18.4154 46.8652C18.2642 47.1498 17.8863 46.9401 17.599 46.8053C17.3118 46.6705 17.342 46.296 17.5083 46.0115C17.5083 46.0115 18.3549 44.6186 20.9251 44.8881C23.2079 45.0379 23.9034 46.1612 23.9034 46.2811C23.9639 47.1498 22.9207 47.015 22.7998 46.8802Z" fill="#46433E"/>
<path d="M10.8843 49.306C11.3102 49.306 11.6554 48.964 11.6554 48.5422C11.6554 48.1203 11.3102 47.7783 10.8843 47.7783C10.4585 47.7783 10.1133 48.1203 10.1133 48.5422C10.1133 48.964 10.4585 49.306 10.8843 49.306Z" fill="#46433E"/>
<path d="M20.441 49.5756C20.8668 49.5756 21.212 49.2336 21.212 48.8117C21.212 48.3898 20.8668 48.0479 20.441 48.0479C20.0151 48.0479 19.6699 48.3898 19.6699 48.8117C19.6699 49.2336 20.0151 49.5756 20.441 49.5756Z" fill="#46433E"/>
<path d="M51.7199 1.48312C51.6897 0.809127 51.7804 0.359801 52.3851 0.359801C52.9747 0.314868 53.3678 0.91397 53.3678 1.51307C53.776 6.48561 58.3418 10.0053 63.1646 10.0053C67.9873 10.0053 72.3566 6.15611 72.9613 1.37827C73.1578 0.97388 73.3997 0.764194 73.944 0.839082C74.3522 0.928947 74.6546 1.10868 74.6546 1.70778C73.8533 7.47413 69.0305 11.6678 63.1948 11.6678C57.1625 11.6529 52.3398 7.26444 51.7199 1.48312Z" fill="#46433E"/>
<path d="M65.1911 11.0987L70.785 30.1052C70.8757 30.0004 71.0117 29.8955 71.1478 29.8206C71.4955 29.6109 71.8886 29.5361 72.2968 29.551L66.703 10.5146C66.5064 9.93046 66.0075 9.67584 65.6145 9.85557C64.9946 10.0653 64.9795 10.6793 65.1911 11.0987Z" fill="#46433E"/>
<path d="M67.8198 9.88532L77.2991 24.6382C77.5258 24.4734 77.7526 24.3237 77.8887 24.129C78.055 23.9043 78.2969 23.7246 78.569 23.6197L69.12 9.25627C68.9235 8.85187 68.4094 8.46246 68.0163 8.65717C67.6081 8.86685 67.6082 9.48093 67.8198 9.88532Z" fill="#46433E"/>
<path d="M86.5081 15.0079L71.9188 6.42577C71.314 6.02138 71.5408 5.79671 71.7373 5.37734C72.1455 4.77824 72.463 5.03286 72.8712 5.21259L87.2489 13.5251C87.8536 13.9295 87.9141 14.3639 87.7175 14.7683C87.521 15.1876 86.9616 15.2475 86.5081 15.0079Z" fill="#46433E"/>
<path d="M70.3772 8.62677L85.2387 23.2598C85.7376 22.9902 86.3574 23.0052 86.7656 23.4396C86.8261 23.5144 86.9319 23.6193 87.0075 23.6792C87.0226 23.6942 87.0377 23.6942 87.0529 23.7091C87.2343 23.829 87.4157 23.9488 87.5971 24.0536C87.96 24.2783 88.3077 24.5329 88.5949 24.8175C88.6554 24.503 88.4438 24.1135 88.1716 23.8439L71.5414 7.50345C71.1332 7.09906 70.6494 7.05413 70.2412 7.45852C69.8179 7.86291 69.969 8.22238 70.3772 8.62677Z" fill="#46433E"/>
<path d="M87.7765 8.19242L73.278 4.44803C72.6732 4.23835 72.3709 4.2683 72.5523 3.68418C72.7488 3.08508 72.8244 2.71064 73.414 2.90535L87.8521 6.58982C88.4569 6.78453 88.729 7.11403 88.5929 7.65322C88.5173 8.01269 88.2301 8.2673 87.7765 8.19242Z" fill="#46433E"/>
<path d="M62.3781 33.7443C61.6826 33.6843 61.7885 32.6659 61.8036 31.8571L62.3781 11.8471C62.3781 11.4727 62.7863 11.0533 63.391 11.0533C63.9958 11.0533 63.9202 10.8885 63.9202 11.5026L63.391 32.3663C63.391 32.7408 63.3759 33.7892 62.3781 33.7443Z" fill="#46433E"/>
<path d="M52.9444 31.1529L59.158 10.0645C59.3546 9.66011 59.6872 9.61517 60.2919 9.80988C60.7001 10.0196 60.806 10.0495 60.6094 10.6336L54.5016 31.4674C54.305 32.0665 53.912 32.2612 53.5038 32.1414C53.1258 32.0216 52.7478 31.752 52.9444 31.1529Z" fill="#46433E"/>
<path d="M48.7119 23.68C48.3339 23.3055 48.1223 23.1857 48.3339 22.7963L56.5735 8.67247C56.9817 8.07336 57.3899 8.41785 57.7981 8.61256C58.4028 9.01695 58.04 9.36143 57.8434 9.76582L49.8155 23.4403C49.619 23.8447 49.9818 23.8597 49.5585 23.8597C49.362 23.8597 49.1352 23.8896 48.7119 23.68Z" fill="#46433E"/>
<path d="M32.8512 17.6438C32.6395 17.0447 32.0348 16.835 32.443 16.6403L53.3518 4.68826C53.9565 4.49355 54.1984 4.85301 54.395 5.25741C54.5915 5.84153 54.652 5.76664 54.2287 5.97633L33.6374 17.7936C33.4257 17.9883 33.849 18.2279 33.6525 18.2279C33.2443 18.2279 32.8512 18.0033 32.8512 17.6438Z" fill="#46433E"/>
<path d="M40.2612 22.5861C39.853 22.2117 39.853 21.5976 40.2612 21.1932L54.7447 6.87469C55.1529 6.50025 55.4855 6.7998 55.8937 7.18922C56.317 7.59361 56.1507 7.71343 55.7274 8.1328L41.2742 22.4963C41.0776 22.691 41.0927 22.8108 40.8962 22.8108C40.6997 22.8108 40.4729 22.7958 40.2612 22.5861Z" fill="#46433E"/>
<path d="M25.8237 10.6641C25.8237 10.065 26.0202 9.66057 26.6249 9.46586L52.553 2.48633C53.1578 2.48633 53.4299 2.71099 53.6264 3.31009C53.6264 3.90919 53.2031 3.89422 52.5984 4.08892L26.2167 11.2482L26.1563 11.2632C25.7632 11.2332 25.8237 11.2482 25.8237 10.6641Z" fill="#46433E"/>
<path d="M50.9348 23.3803C50.1335 22.5865 49.1206 22.1821 47.7297 22.1821H41.7126C40.9113 20.0103 38.2958 16.7902 34.2743 16.7902C33.6696 16.7902 33.0648 16.7902 32.6566 16.9849C31.8554 12.8211 28.0304 9.45117 23.2076 9.45117C19.3827 9.45117 16.1776 12.4317 14.5599 15.4122C12.9422 15.6069 11.7479 16.206 10.7349 17.2095C9.04165 19.0068 8.28573 21.8376 7.95312 23.9794C8.46715 23.7847 9.04165 23.8745 9.60103 23.9644C9.91852 21.9574 10.6442 19.5161 12.0049 18.1831C12.8061 17.3893 13.6377 16.9549 14.8622 16.9549C15.2704 16.9549 15.7089 16.6703 15.9205 16.2659C17.13 13.6748 20.0176 11.0088 23.2227 11.0088C27.2291 11.0088 30.7971 13.8845 31.1901 17.8536C31.1901 18.258 31.2506 18.5276 31.4623 18.7073C31.6588 18.902 32.067 18.902 32.4752 18.7073C33.2765 18.3029 33.8812 18.3029 34.6674 18.3029C37.8725 18.3029 40.11 22.1671 40.488 23.1556C40.6845 23.56 41.0927 23.6649 41.5009 23.6649H48.1228C49.1357 23.6649 49.7102 23.9644 50.1335 24.5335C50.3452 24.878 50.3905 25.7168 50.3905 26.3159L29.0736 26.3309C29.6632 26.6454 30.026 27.1546 29.6632 27.9185H50.9499C51.5547 27.9185 51.9629 27.5141 51.9629 26.915C52.1443 25.3723 51.7512 23.9794 50.9348 23.3803Z" fill="#46433E"/>
<path d="M54.1693 39.151C54.1693 39.7501 54.5775 40.1545 55.1823 40.1545L88.4428 40.1245C88.2614 39.8399 88.3672 39.5104 88.4428 39.166C88.3823 38.9862 88.3521 38.7616 88.3672 38.5818L55.7416 38.5219C55.7416 37.9228 55.787 37.114 56.0138 36.7396C56.4371 36.1705 57.0116 35.8709 58.0245 35.8709H64.6313C65.0395 35.8709 65.4477 35.7661 65.6442 35.3617C66.0524 34.3732 68.2597 30.5089 71.4648 30.5089C72.2661 30.5089 72.8708 30.5089 73.657 30.9133C74.0652 31.108 74.4734 31.108 74.6699 30.9133C74.8665 30.7186 74.9421 30.449 74.9421 30.0596C75.3502 26.0906 78.9031 23.2149 82.9095 23.2149C84.769 23.2149 86.5228 24.1135 87.8985 25.3717C87.959 25.2518 88.0044 25.117 88.0951 25.0272C88.2463 24.6677 88.3823 24.2783 88.851 24.2034C87.2031 22.6757 85.2377 21.6572 82.9246 21.6572C78.1018 21.6572 74.2768 25.0421 73.4756 29.2209C73.0674 29.0262 72.4626 29.0262 71.8579 29.0262C67.8364 29.0262 65.2209 32.2164 64.4196 34.4181H58.4025C56.9965 34.4181 55.9835 34.8225 55.1974 35.6163C54.381 36.1555 53.9577 37.5634 54.1693 39.151Z" fill="#46433E"/>
<path d="M88.2613 25.4467C88.6871 25.4467 89.0323 25.1047 89.0323 24.6828C89.0323 24.2609 88.6871 23.9189 88.2613 23.9189C87.8354 23.9189 87.4902 24.2609 87.4902 24.6828C87.4902 25.1047 87.8354 25.4467 88.2613 25.4467Z" fill="#46433E"/>
<path d="M88.3526 40.1094C88.7867 40.1094 89.1387 39.7607 89.1387 39.3306C89.1387 38.9005 88.7867 38.5518 88.3526 38.5518C87.9184 38.5518 87.5664 38.9005 87.5664 39.3306C87.5664 39.7607 87.9184 40.1094 88.3526 40.1094Z" fill="#46433E"/>
<path d="M73.174 89.6109C64.1483 89.6109 56.8008 82.3319 56.8008 73.3903C56.8008 64.4487 64.1483 57.1846 73.174 57.1846C82.1997 57.1846 89.5473 64.4637 89.5473 73.4052C89.5473 82.3468 82.1997 89.6109 73.174 89.6109ZM73.174 58.6823C64.9798 58.6823 58.3126 65.2874 58.3126 73.4052C58.3126 81.5231 64.9798 88.1282 73.174 88.1282C81.3682 88.1282 88.0354 81.5231 88.0354 73.4052C88.0354 65.2874 81.3682 58.6823 73.174 58.6823Z" fill="#52AB62"/>
<path d="M72.8106 81.7021C72.599 81.7021 72.3873 81.6123 72.2361 81.4475L63.9663 72.1015C63.6942 71.787 63.7244 71.3227 64.0419 71.0381C64.3594 70.7685 64.8281 70.7985 65.1153 71.113L72.7048 79.6951L81.7607 65.0921C81.9724 64.7326 82.4411 64.6278 82.8039 64.8524C83.1667 65.0621 83.2726 65.5264 83.0458 65.8859L73.4607 81.3577C73.3398 81.5673 73.113 81.6872 72.8862 81.7171C72.8409 81.7021 72.8257 81.7021 72.8106 81.7021Z" fill="#52AB62"/>
</g>
<defs>
<clipPath id="clip0_3681_12124">
<rect width="90" height="90" fill="white"/>
</clipPath>
</defs>
</svg>
