<svg width="90" height="90" viewBox="0 0 90 90" fill="none" xmlns="http://www.w3.org/2000/svg">
<path d="M23.4753 67.5822H23.3996C20.4954 67.5672 18.9677 66.2494 18.1963 65.1563C16.8349 63.2394 16.8349 60.6937 17.44 59.0165C18.2719 56.7253 22.5526 47.905 22.7492 47.5306C22.8551 47.291 23.1122 47.1263 23.3845 47.1113C23.6719 47.1263 23.9139 47.2611 24.05 47.4857C24.5795 48.489 29.2232 57.3692 29.6316 59.0464C30.2366 61.4724 29.8736 63.8384 28.6484 65.3959C27.8618 66.4142 26.3492 67.5822 23.4753 67.5822ZM23.4148 49.4474C22.1593 52.0531 19.4215 57.7736 18.7862 59.4957C18.3173 60.7686 18.3021 62.8351 19.361 64.3326C20.1929 65.5306 21.5542 66.1296 23.3694 66.1446H23.4299C25.2601 66.1446 26.6215 65.6055 27.4534 64.5423C28.4063 63.3293 28.6786 61.4275 28.1795 59.4208C27.9526 58.3875 25.4114 53.296 23.4148 49.4474Z" fill="#46433E"/>
<path d="M24.8368 64.572C24.5948 64.572 24.3528 64.4522 24.2167 64.2276C24.0049 63.8981 24.1259 63.4489 24.4587 63.2392C25.7595 62.4605 25.8805 61.2026 24.9276 59.0313C24.7612 58.6719 24.9276 58.2376 25.2906 58.0728C25.6537 57.9081 26.0923 58.0729 26.2587 58.4323C26.7276 59.4805 28.1646 62.6702 25.215 64.4522C25.1091 64.5271 24.9579 64.572 24.8368 64.572Z" fill="#46433E"/>
<path d="M28.362 42.4094H28.2863C25.3821 42.3944 23.8544 41.0766 23.083 39.9834C21.7216 38.0666 21.7216 35.5208 22.3267 33.8436C23.1586 31.5525 27.4393 22.7322 27.6359 22.3578C27.7418 22.1182 27.9989 21.9535 28.2712 21.9385C28.5586 21.9535 28.8006 22.0882 28.9368 22.3129C29.4662 23.3162 34.1099 32.1964 34.5183 33.8736C35.1233 36.2995 34.7603 38.6656 33.5351 40.223C32.7788 41.2263 31.251 42.4094 28.362 42.4094ZM28.3166 24.2746C27.0611 26.8802 24.3233 32.6007 23.688 34.3228C23.2191 35.5957 23.204 37.6623 24.2628 39.1598C25.0947 40.3578 26.4561 40.9568 28.2712 40.9718H28.3317C30.162 40.9718 31.5233 40.4327 32.3552 39.3694C33.3082 38.1564 33.5805 36.2546 33.0813 34.248C32.8544 33.1997 30.2981 28.1232 28.3166 24.2746Z" fill="#46433E"/>
<path d="M29.7372 39.3845C29.4952 39.3845 29.2532 39.2647 29.1171 39.0401C28.9053 38.7106 29.0263 38.2614 29.3591 38.0517C30.6599 37.273 30.7809 36.0151 29.828 33.8437C29.6616 33.4843 29.828 33.0501 30.191 32.8853C30.554 32.7206 30.9927 32.8853 31.1591 33.2447C31.628 34.293 33.065 37.4827 30.1154 39.2647C29.9944 39.3546 29.8734 39.3845 29.7372 39.3845Z" fill="#46433E"/>
<path d="M61.6386 33.5592C58.3411 33.5592 54.8318 33.0201 52.0335 32.3612C43.6688 30.1 34.2907 20.9802 33.7915 20.6358C33.61 20.4561 33.4739 20.3213 33.61 19.9769C33.7915 19.6624 33.7915 19.4827 33.9276 19.318C34.2453 19.0035 43.6386 11.8304 50.7024 8.73061C53.6671 7.42778 57.1159 6.79883 61.0638 6.79883C65.1781 6.79883 69.2772 7.62246 72.4083 9.07503C77.3394 11.3512 88.3512 19.318 88.8352 19.6624C89.0167 19.8421 89.1528 19.9769 89.1528 20.3213C89.1528 20.6507 88.9713 20.8155 88.8352 20.9802C88.336 21.2947 76.0083 30.2497 71.0772 32.2115C67.9764 33.3196 64.1344 33.5592 61.6386 33.5592ZM35.7881 20.1566C38.0873 22.268 45.8167 28.9469 52.5629 30.8787C55.1797 31.5376 58.6436 32.0168 61.7596 32.0168C65.2083 32.0168 68.1579 31.5226 70.3209 30.714C74.4352 29.0817 83.7982 22.4178 86.9142 20.3063C84.1159 18.3446 75.5697 12.3246 71.6218 10.5426C68.8234 9.23976 64.8755 8.43111 60.9276 8.43111C57.2974 8.43111 54.0302 9.09001 51.3982 10.3928C45.6503 12.8338 38.0873 18.3745 35.7881 20.1566Z" fill="#46433E"/>
<path d="M88.7288 31.1629C88.4112 31.1929 88.2297 31.0431 88.0179 30.7287L85.4011 26.8501C85.2045 26.5506 85.3406 26.0565 85.628 25.6971C85.9305 25.5024 86.4297 25.6372 86.7927 25.9217L89.4246 29.7852C89.6213 30.0847 89.4851 30.5789 89.1977 30.9383C89.0767 31.148 88.8952 31.1629 88.7288 31.1629Z" fill="#46433E"/>
<path d="M84.826 33.604C84.5083 33.634 84.3268 33.4842 84.1151 33.1697L81.4831 29.3062C81.2865 29.0067 81.4226 28.5125 81.71 28.1531C82.0125 27.9584 82.5117 28.0932 82.8747 28.3777L85.5067 32.2413C85.7033 32.5408 85.5672 33.035 85.2798 33.3944C85.1436 33.4243 84.9772 33.5741 84.826 33.604Z" fill="#46433E"/>
<path d="M81.0609 36.0445C80.7432 36.0744 80.5617 35.9247 80.3499 35.6102L77.7331 31.7466C77.5365 31.4471 77.6726 30.9529 77.96 30.5935C78.2625 30.3989 78.7617 30.5336 79.1247 30.8182L81.7567 34.6817C81.9533 34.9812 81.8172 35.4754 81.5298 35.8348C81.2272 36.0295 81.0609 36.0445 81.0609 36.0445Z" fill="#46433E"/>
<path d="M77.5814 38.6056C77.2637 38.6356 77.0822 38.4858 76.8704 38.1714L74.2234 34.3228C74.0267 34.0233 74.1629 33.5291 74.4503 33.1697C74.7528 32.975 75.2519 33.1098 75.615 33.3943L78.2469 37.2579C78.4435 37.5574 78.3074 38.0516 78.02 38.411C77.7326 38.5757 77.5814 38.6056 77.5814 38.6056Z" fill="#46433E"/>
<path d="M6.80617 52.1579H6.74567C4.08348 52.143 2.69189 50.93 1.95071 49.9117C0.695248 48.1297 0.695248 45.7935 1.25491 44.2661C2.01121 42.1696 5.97424 34.0531 6.14063 33.6937C6.23138 33.4691 6.4734 33.3193 6.74567 33.3193C7.00281 33.3343 7.2297 33.4691 7.35071 33.6787C7.83474 34.6072 12.1003 42.7686 12.5087 44.326C13.0532 46.5722 12.7356 48.7436 11.6011 50.1663C10.8448 51.0797 9.46836 52.1579 6.80617 52.1579ZM6.77592 35.4907C5.62634 37.8717 3.10029 43.143 2.54063 44.7303C2.10197 45.9133 2.10197 47.8002 3.07004 49.1629C3.84147 50.2561 5.09693 50.8102 6.77592 50.8252H6.83642C8.51542 50.8252 9.77088 50.331 10.5423 49.3576C11.4196 48.2495 11.6616 46.4974 11.2079 44.6554C10.9356 43.697 8.60617 39.0099 6.77592 35.4907Z" fill="#46433E"/>
<path d="M8.09296 49.3876C7.86607 49.3876 7.63918 49.2678 7.5333 49.0732C7.33666 48.7737 7.45767 48.3544 7.76019 48.1447C8.95515 47.4259 9.07616 46.2728 8.19884 44.2662C8.03246 43.9367 8.19884 43.5324 8.53162 43.3976C8.86439 43.2329 9.27279 43.3976 9.40893 43.7271C9.84758 44.7005 11.1787 47.6356 8.45599 49.2678C8.31985 49.3577 8.19884 49.3876 8.09296 49.3876Z" fill="#46433E"/>
<path d="M73.2409 88.0678C64.2106 88.0678 56.8594 80.7899 56.8594 71.8498C56.8594 62.9097 64.2106 55.6318 73.2409 55.6318C82.2711 55.6318 89.6224 62.9097 89.6224 71.8498C89.6224 80.7899 82.2711 88.0678 73.2409 88.0678ZM73.2409 57.1443C65.0426 57.1443 58.372 63.7483 58.372 71.8648C58.372 79.9813 65.0426 86.5852 73.2409 86.5852C81.4392 86.5852 88.1098 79.9813 88.1098 71.8648C88.1098 63.7483 81.4241 57.1443 73.2409 57.1443Z" fill="#52AB62"/>
<path d="M72.862 80.1612C72.6503 80.1612 72.4385 80.0714 72.2873 79.9067L64.0133 70.5622C63.741 70.2478 63.7713 69.7835 64.0889 69.499C64.4066 69.2295 64.8755 69.2594 65.1629 69.5739L72.7562 78.1546L81.8167 63.5539C82.0284 63.1945 82.4973 63.0897 82.8604 63.3143C83.2234 63.524 83.3293 63.9882 83.1024 64.3476L73.5125 79.8018C73.3915 80.0115 73.1646 80.1313 72.9377 80.1612C72.9074 80.1612 72.8772 80.1612 72.862 80.1612Z" fill="#52AB62"/>
</svg>
