<svg width="90" height="90" viewBox="0 0 90 90" fill="none" xmlns="http://www.w3.org/2000/svg">
<g clip-path="url(#clip0_3748_11511)">
<path d="M73.0672 34.6423C64.0968 34.6423 56.7871 26.8581 56.7871 17.3212C56.7871 7.78437 64.0968 -0.015625 73.0672 -0.015625C82.0375 -0.015625 89.3472 7.76858 89.3472 17.3212C89.3472 26.8738 82.0375 34.6423 73.0672 34.6423ZM73.0672 1.61069C64.9271 1.61069 58.2995 8.66858 58.2995 17.337C58.2995 26.0054 64.9271 33.0475 73.0672 33.0475C81.2072 33.0475 87.8349 25.9896 87.8349 17.337C87.8349 8.68437 81.222 1.61069 73.0672 1.61069Z" fill="#54A261"/>
<path d="M72.7122 26.1946C72.5046 26.1946 72.2971 26.0999 72.134 25.9262L63.9198 15.9472C63.6529 15.6156 63.6826 15.1104 63.9939 14.8104C64.3053 14.5262 64.7798 14.5577 65.0615 14.8893L72.6084 24.063L81.6084 8.46301C81.816 8.08406 82.2905 7.97353 82.6463 8.21037C83.0022 8.43143 83.106 8.93669 82.8836 9.31564L73.3498 25.8472C73.2312 26.0683 73.0088 26.1946 72.7715 26.2262C72.7419 26.1946 72.7271 26.1946 72.7122 26.1946Z" fill="#54A261"/>
<path d="M31.0925 50.0522C20.3726 50.0522 11.6543 42.4732 11.6543 33.1574C11.6543 23.8416 20.3726 16.2627 31.0925 16.2627C41.8125 16.2627 50.5307 23.8416 50.5307 33.1574C50.5307 42.4732 41.8125 50.0522 31.0925 50.0522ZM31.0925 17.9995C21.277 17.9995 13.2853 24.8048 13.2853 33.1574C13.2853 41.5101 21.277 48.3153 31.0925 48.3153C40.908 48.3153 48.8998 41.5101 48.8998 33.1574C48.8998 24.8048 40.908 17.9995 31.0925 17.9995Z" fill="#46433E"/>
<path d="M30.6169 45.7734C26.065 45.7734 22.373 42.5208 22.373 38.5102C22.373 34.4997 26.0798 31.2471 30.6169 31.2471C35.1539 31.2471 38.8607 34.4997 38.8607 38.5102C38.8607 42.5208 35.1688 45.7734 30.6169 45.7734ZM30.6169 32.9839C26.9694 32.9839 24.004 35.4629 24.004 38.5102C24.004 41.5576 26.9694 44.0365 30.6169 44.0365C34.2643 44.0365 37.2297 41.5576 37.2297 38.5102C37.2297 35.4629 34.2643 32.9839 30.6169 32.9839Z" fill="#46433E"/>
<path d="M13.003 28.9582C9.28143 28.0424 6.67188 24.6319 6.67188 20.6687C6.67188 15.9793 10.3786 12.1582 14.9157 12.1582C18.7855 12.1582 22.092 14.874 22.9519 18.774L21.3654 19.1687C20.6982 16.1056 17.9701 13.895 14.9157 13.895C11.2682 13.895 8.30285 16.9424 8.30285 20.6687C8.30285 23.8108 10.3786 26.5266 13.3589 27.2529L13.003 28.9582Z" fill="#46433E"/>
<path d="M12.7215 23.3689C12.4694 23.3689 12.2322 23.2425 12.0691 23.0215C11.6095 22.3583 11.3574 21.5531 11.3574 20.7162C11.3574 18.632 12.8846 16.9268 14.7825 16.9268C15.5683 16.9268 16.3245 17.2268 16.9324 17.7636C17.2734 18.0794 17.3179 18.6162 17.0362 18.9794C16.7396 19.3425 16.2355 19.3899 15.8945 19.0899C15.5831 18.8057 15.1976 18.6636 14.7973 18.6636C13.8187 18.6636 13.0032 19.5794 13.0032 20.7162C13.0032 21.1899 13.1367 21.6162 13.3887 21.9794C13.6556 22.3583 13.5815 22.911 13.2108 23.1952C13.0625 23.3057 12.8846 23.3689 12.7215 23.3689Z" fill="#46433E"/>
<path d="M10.898 66.1584L12.0694 60.711L7.35437 61.7215C6.80577 61.8163 6.04959 61.8952 5.48616 61.8952C2.53559 61.8952 0.148438 59.3373 0.148438 56.211C0.148438 53.432 1.95733 51.3163 5.10066 50.3689L19.2012 45.2373L19.7349 46.8794L5.58995 52.0268H5.5603C4.13691 52.4531 1.77941 53.5426 1.77941 56.211C1.77941 58.3899 3.44004 60.1584 5.48616 60.1584C5.9458 60.1584 6.59819 60.0952 7.05783 60.0163L12.1287 58.9268C12.5883 58.832 13.0628 58.9899 13.389 59.3373C13.7152 59.7005 13.8486 60.2057 13.7448 60.6952L12.7218 65.432L12.6624 65.4163L12.6921 66.0636L10.898 66.1584Z" fill="#46433E"/>
<path d="M15.0186 87.0161C10.8522 87.0161 7.02685 83.0214 5.92965 77.5267C4.68418 71.353 7.39753 65.4793 11.9494 64.4372C12.4091 64.3267 12.8835 64.2793 13.358 64.2793C17.5244 64.2793 21.3497 68.274 22.4469 73.7688C23.6924 79.9425 20.9791 85.8161 16.4272 86.8582C15.9675 86.9688 15.4931 87.0161 15.0186 87.0161ZM13.3432 66.0161C12.9873 66.0161 12.6166 66.0635 12.2756 66.1425C8.59852 66.9793 6.46342 71.9214 7.51614 77.1635C8.45024 81.7898 11.6677 85.2793 15.0186 85.2793C15.3745 85.2793 15.7451 85.2319 16.0862 85.153C19.7633 84.3161 21.8984 79.374 20.8456 74.1319C19.9264 69.5056 16.6941 66.0161 13.3432 66.0161Z" fill="#46433E"/>
<path d="M30.322 87.3948C27.0156 87.3948 23.1754 86.858 19.3945 85.1053L20.0469 83.5106C30.5296 88.358 41.6795 83.479 41.7982 83.4316L42.4357 85.0264C42.3171 85.0737 39.4258 86.3527 35.1408 87.0159C33.7471 87.2369 32.1161 87.3948 30.322 87.3948Z" fill="#46433E"/>
<path d="M32.945 38.605H28.6749C28.2301 38.605 27.8594 38.2103 27.8594 37.7366C27.8594 37.2629 28.2301 36.8682 28.6749 36.8682H32.945C33.3899 36.8682 33.7605 37.2629 33.7605 37.7366C33.7605 38.2103 33.4047 38.605 32.945 38.605Z" fill="#46433E"/>
<path d="M30.8409 45.3952C30.3961 45.3952 30.0254 45.0005 30.0254 44.5268V38.4163C30.0254 37.9426 30.3961 37.5479 30.8409 37.5479C31.2857 37.5479 31.6564 37.9426 31.6564 38.4163V44.5268C31.6564 45.0005 31.3005 45.3952 30.8409 45.3952Z" fill="#46433E"/>
<path d="M25.2347 28.8161C24.4192 28.8161 23.752 28.1056 23.752 27.2372C23.752 26.3687 24.4192 25.6582 25.2347 25.6582C26.0501 25.6582 26.7174 26.3687 26.7174 27.2372C26.7174 28.1056 26.0501 28.8161 25.2347 28.8161Z" fill="#46433E"/>
<path d="M36.43 28.8161C35.6145 28.8161 34.9473 28.1056 34.9473 27.2372C34.9473 26.3687 35.6145 25.6582 36.43 25.6582C37.2455 25.6582 37.9127 26.3687 37.9127 27.2372C37.9127 28.1056 37.2455 28.8161 36.43 28.8161Z" fill="#46433E"/>
<path d="M30.9001 82.0419H30.7074L30.5887 81.9787C30.5294 81.963 30.4701 81.9314 30.4256 81.884C30.1736 81.7419 29.9215 81.5998 29.6695 81.4735C26.5706 79.7998 23.8869 78.3472 21.055 74.163L20.9808 74.0524L20.9364 73.9261C20.3284 71.984 18.8457 69.2998 17.8968 68.084L17.8079 67.9735L17.7634 67.8314C15.7766 62.1472 16.9924 57.0787 20.9957 54.2682C22.256 53.384 23.9462 52.8945 25.7403 52.8945C27.8606 52.8945 29.7288 53.5735 30.9001 54.7261C32.0714 53.5577 33.9396 52.8945 36.0599 52.8945C37.854 52.8945 39.5443 53.384 40.8046 54.2682C44.8079 57.063 46.0088 62.1314 44.0072 67.8156L43.9479 67.9893L43.8293 68.1156C43.251 68.763 42.7172 69.5524 42.2724 70.4524C41.798 71.384 41.3976 72.4419 41.0121 73.6893L40.9677 73.8156L40.8935 73.9261C37.9874 78.284 35.2741 79.7524 32.1159 81.4735C31.8639 81.6156 31.6118 81.7419 31.3597 81.884C31.3153 81.9156 31.256 81.9472 31.1967 81.963L31.078 82.0261L30.9001 82.0419ZM22.4487 73.263C25.0286 77.0208 27.4158 78.2998 30.4108 79.9261C30.5739 80.0209 30.737 80.0998 30.9001 80.1945C31.0632 80.0998 31.2263 80.0209 31.3894 79.9261C34.4438 78.2682 36.8606 76.9577 39.4998 73.0419C39.9001 71.7472 40.3301 70.6419 40.8342 69.6472C41.3235 68.6682 41.9018 67.7998 42.5393 67.0577C44.1999 62.1787 43.251 58.0577 39.9149 55.7366C38.9364 55.0419 37.5278 54.6472 36.0599 54.6472C34.1176 54.6472 32.4273 55.3261 31.6563 56.4314C31.4784 56.684 31.2115 56.8261 30.9001 56.8261C30.5887 56.8261 30.307 56.684 30.1439 56.4314C29.3729 55.3261 27.6826 54.6472 25.7403 54.6472C24.2873 54.6472 22.8787 55.0419 21.8853 55.7366C18.5344 58.0735 17.5706 62.2103 19.2312 67.1051C20.284 68.4787 21.7667 71.1787 22.4487 73.263Z" fill="#46433E"/>
<path d="M21.8404 64.5156C21.4401 64.5156 21.0991 64.2156 21.0398 63.7892C20.9953 63.505 20.9805 63.2208 20.9805 62.9366C20.9805 59.984 23.2342 57.584 26.0068 57.584C26.2144 57.584 26.422 57.5998 26.6296 57.6314C27.0744 57.6945 27.4006 58.1208 27.3413 58.5945C27.282 59.0682 26.8816 59.4156 26.4368 59.3524C26.3034 59.3366 26.1551 59.3208 26.0217 59.3208C24.1535 59.3208 22.6263 60.9471 22.6263 62.9366C22.6263 63.1261 22.6411 63.3156 22.6707 63.505C22.7449 63.9787 22.4335 64.4208 21.9887 64.4998C21.9294 64.5156 21.8849 64.5156 21.8404 64.5156Z" fill="#46433E"/>
<path d="M48.5731 29.1319L48.2025 27.4424C51.1827 26.7003 53.2585 24.0003 53.2585 20.8582C53.2585 17.1161 50.2931 14.0845 46.6456 14.0845C43.5764 14.0845 40.8631 16.3108 40.1959 19.3582L38.6094 18.9634C39.4693 15.0634 42.7758 12.3477 46.6456 12.3477C51.1975 12.3477 54.8894 16.1687 54.8894 20.8582C54.8894 24.8055 52.2947 28.2161 48.5731 29.1319Z" fill="#46433E"/>
<path d="M48.8543 23.5417C48.6912 23.5417 48.5133 23.4943 48.365 23.368C48.0092 23.0838 47.9202 22.547 48.1871 22.1522C48.4392 21.7891 48.5726 21.347 48.5726 20.8891C48.5726 19.768 47.7719 18.8365 46.7785 18.8365C46.3782 18.8365 45.9927 18.9943 45.6813 19.2628C45.3403 19.5786 44.8214 19.5312 44.5397 19.1522C44.2431 18.7891 44.2876 18.2364 44.6434 17.9364C45.2514 17.3996 46.0075 17.0996 46.7934 17.0996C48.6764 17.0996 50.2184 18.7891 50.2184 20.8891C50.2184 21.7259 49.9812 22.5312 49.5067 23.1943C49.3584 23.4154 49.1064 23.5417 48.8543 23.5417Z" fill="#46433E"/>
<path d="M50.9463 65.9844L49.1374 65.9054L49.167 65.258L49.1077 65.2738L48.0847 60.537C47.9809 60.0475 48.1143 59.5423 48.4405 59.1791C48.7667 58.8159 49.2412 58.6581 49.7008 58.7686L54.7716 59.8581C55.2313 59.937 55.8837 60.0002 56.3433 60.0002C58.3894 60.0002 60.0501 58.2317 60.0501 56.0528C60.0501 53.4002 57.6777 52.2949 56.2692 51.8844L56.2247 51.8686L42.1094 46.7212L42.6431 45.0791L56.7436 50.2107C59.887 51.1423 61.6959 53.2738 61.6959 56.0528C61.6959 59.1949 59.2939 61.737 56.3581 61.737C55.7947 61.737 55.0534 61.6738 54.4899 61.5633H54.4751L49.7749 60.5528L50.9463 65.9844Z" fill="#46433E"/>
<path d="M46.8377 86.8421C46.3633 86.8421 45.8888 86.7948 45.4292 86.6842C43.1754 86.179 41.3221 84.5053 40.1952 81.979C39.098 79.5316 38.8163 76.5632 39.4094 73.6106C40.5066 68.1158 44.332 64.1211 48.4984 64.1211C48.9728 64.1211 49.4473 64.1685 49.9069 64.279C54.4588 65.3211 57.1573 71.179 55.9267 77.3685C54.8295 82.8474 51.0041 86.8421 46.8377 86.8421ZM48.4984 65.8421C45.1474 65.8421 41.93 69.3316 40.9959 73.9579C40.4769 76.5316 40.7142 79.1211 41.6483 81.2211C42.5527 83.2421 44.0058 84.5842 45.7554 84.979C46.1112 85.0579 46.467 85.1053 46.8229 85.1053C50.1738 85.1053 53.3913 81.6158 54.3254 76.9895C55.3781 71.7474 53.243 66.8053 49.5659 65.9685C49.2249 65.8895 48.8542 65.8421 48.4984 65.8421Z" fill="#46433E"/>
</g>
<defs>
<clipPath id="clip0_3748_11511">
<rect width="90" height="90" fill="white"/>
</clipPath>
</defs>
</svg>
