<svg width="90" height="90" viewBox="0 0 90 90" fill="none" xmlns="http://www.w3.org/2000/svg">
<path d="M53.9391 38.1471H30.5996C30.1306 38.1471 29.8281 37.8425 29.8281 37.3704C29.8281 36.8983 30.1306 36.5938 30.5996 36.5938H53.9239C54.3928 36.5938 54.3323 36.8831 54.3323 37.3552C54.3475 37.812 54.2416 38.1471 53.9391 38.1471Z" fill="#46433E"/>
<path d="M53.591 76.8116H15.2011C14.7473 76.8116 14.4297 76.507 14.4297 76.0349V44.2532C14.4297 43.7811 14.7322 43.4766 15.2011 43.4766C15.6549 43.4766 15.9725 43.7811 15.9725 44.2532V75.2583H53.6062C54.0599 75.2583 54.3776 75.5629 54.3776 76.0349C54.3625 76.507 53.9087 76.8116 53.591 76.8116Z" fill="#46433E"/>
<path d="M66.8423 80.8928H58.9162C55.649 80.8928 53.002 78.2278 53.002 74.9385V35.4817C53.002 32.1923 55.649 29.5273 58.9162 29.5273H66.8423C70.1095 29.5273 72.7566 32.1923 72.7566 35.4817V57.8674C72.7566 58.3395 72.4541 58.0502 71.9851 58.0502C71.5162 58.0502 71.1986 58.3395 71.1986 57.8674V35.4817C71.1986 32.9842 69.1868 31.0959 66.8423 31.0959H58.9162C56.4356 31.0959 54.5599 33.1213 54.5599 35.4817V74.9385C54.5599 77.436 56.5717 79.3243 58.9162 79.3243H66.8423C68.249 79.3243 69.6406 78.5476 70.5784 77.2989C70.8809 76.9943 71.3499 76.8268 71.6675 77.1466C71.9851 77.4512 72.1364 77.9233 71.8339 78.2431C70.7297 79.7964 68.8692 80.8928 66.8423 80.8928Z" fill="#46433E"/>
<path d="M66.4936 53.1779C66.1911 53.1779 66.2365 52.9952 66.0852 52.8429C65.7827 52.5383 65.6163 52.4165 65.9189 52.0967C67.3256 51.0003 68.097 49.4317 68.097 47.7109C68.097 44.7414 65.6163 42.2287 62.6516 42.2287C60.0046 42.2287 57.6752 44.2541 57.3726 46.9343C57.3726 47.4064 56.9037 47.7109 56.4348 47.5586C55.9659 47.4063 55.6634 47.0865 55.8147 46.6145C56.2836 43.1728 59.2331 40.6602 62.6668 40.6602C66.5541 40.6602 69.6701 43.7972 69.6701 47.7109C69.6701 49.9038 68.581 52.0967 66.8718 53.3454C66.6903 53.4977 66.6449 53.1779 66.4936 53.1779Z" fill="#46433E"/>
<path d="M77.7316 86.0561C77.4291 86.0561 77.2627 85.9038 77.1115 85.7515C77.1115 85.7515 76.9451 85.5993 76.8089 85.447C76.5064 85.1424 75.8711 84.8226 75.2509 84.3505C74.4795 83.8784 73.693 83.4064 73.2392 82.9343C72.619 82.1576 71.5299 80.2693 69.972 77.2998C69.0341 75.2744 66.5535 68.5282 66.5535 68.2236V68.0713C66.5535 67.2947 66.2509 64.9343 65.6157 64.0053C64.8442 62.7566 62.0459 59.4673 61.577 59.1475L61.4257 58.98C60.9568 58.6754 60.1854 58.2033 59.414 57.2592C58.6425 56.1627 56.1467 53.0257 56.1467 52.8734C55.9955 52.7211 54.5888 51.0003 54.4375 49.2795C54.4375 48.5028 54.74 47.8632 55.3753 47.2541C56.1467 46.3099 57.5535 45.6855 58.6425 45.6855C59.8829 45.6855 62.061 47.5586 62.8476 48.5028C62.8476 48.5028 65.6459 50.6957 66.735 51.7921C67.2039 52.2642 67.5064 53.0409 67.9753 53.6652C68.4442 54.4419 68.7467 55.2338 69.382 55.5383C70.1535 56.1627 74.661 58.0358 77.4745 58.98C77.9434 59.1322 78.0946 59.6043 77.9434 59.9241C77.777 60.3962 77.3232 60.5485 77.0056 60.3962C75.7652 59.9241 69.6997 57.579 68.6106 56.6348C67.8392 56.0104 67.3703 55.0663 66.9014 54.2896C66.5988 53.6652 66.2812 53.1932 65.8123 52.7211C65.0409 51.7769 62.8627 50.2236 62.0762 49.584C60.6694 48.3353 59.2778 47.2388 58.8089 47.2388C58.34 47.2388 57.4022 47.5434 56.7972 48.3353C56.6308 48.4876 56.3283 48.8074 56.3283 49.2795C56.3283 50.3759 57.2661 51.6246 57.5686 51.9444C57.5686 52.0967 60.0493 55.3861 60.8358 56.3302C61.456 57.1069 62.0762 57.4267 62.5451 57.7465L62.6963 57.8987C63.4678 58.3708 66.4325 61.9647 67.3703 63.381C68.1417 64.7972 68.4594 67.447 68.6106 68.0866C68.9131 68.8632 71.0913 74.985 72.0291 76.8581C73.8896 80.6196 74.6762 81.8683 74.9787 82.1729C75.2812 82.4774 76.0678 82.9495 76.6879 83.4216C77.3081 83.7262 77.9283 84.1982 78.3972 84.6703C78.5636 84.8226 78.8661 84.9749 78.8661 85.1424C78.9115 85.7058 77.8829 86.0561 77.7316 86.0561Z" fill="#46433E"/>
<path d="M54.2409 51.9293C54.0897 51.9293 54.0897 51.9293 54.2409 51.9293C51.9115 51.4573 51.7603 50.9852 51.5939 50.6806C50.8225 48.6552 51.125 46.9192 52.5317 46.1425C52.8342 45.9903 53.1519 45.838 53.6208 45.5182C54.0897 45.3659 53.893 45.305 54.2107 45.7618C54.5132 46.2339 54.7099 46.7669 54.2409 47.0867C53.9384 47.239 53.6208 47.3913 53.3031 47.5588C52.5317 48.0309 52.683 49.2796 53.0006 50.0563C53.3031 50.2238 53.9384 50.3608 54.4073 50.5283C54.8762 50.6806 55.1788 51.0004 55.0275 51.4725C54.8611 51.6096 54.5586 51.9293 54.2409 51.9293Z" fill="#46433E"/>
<path d="M88.7734 62.7254C88.4708 62.7254 88.1532 62.5731 88.0019 62.2533C87.0641 59.5883 86.444 57.7152 86.444 57.7152C85.975 56.1467 85.0372 51.9284 84.7347 51.2888C84.4322 50.6644 83.328 49.8726 82.7229 49.568C82.5717 49.568 82.254 49.568 81.9515 49.568C81.1801 49.568 80.091 49.568 78.8356 49.0959C77.8977 48.7914 74.9482 47.9995 71.9835 47.2228C71.5145 47.0705 71.3633 46.7507 71.3633 46.2787C71.5145 45.8066 71.8322 45.6543 72.3011 45.6543C75.0994 46.2787 78.2154 47.2228 79.3045 47.5274C80.3935 47.832 81.3162 47.9995 81.9515 47.9995C82.5868 47.9995 82.8893 47.9995 83.3582 48.1518C83.9784 48.304 85.6876 49.4005 86.3078 50.6492C86.6103 51.5934 87.8658 56.6035 88.0171 57.2279C88.0171 57.2279 88.6372 59.101 89.4238 61.766C89.575 62.2381 89.2574 62.5426 88.9549 62.7101L88.7734 62.7254Z" fill="#46433E"/>
<path d="M53.6222 56.939C49.4171 56.939 48.797 56.1623 48.4944 55.8425C48.0255 55.2182 47.4054 53.0253 48.328 51.7765C49.0995 50.6801 52.0642 50.3603 53.3045 50.208C53.7734 50.208 54.0759 50.5126 54.0759 50.9847C54.0759 51.4567 53.7734 51.7613 53.3045 51.7613C51.5953 51.9136 49.7348 52.2334 49.4171 52.7055C48.9482 53.1775 49.4171 54.5786 49.5835 54.8984C49.7348 55.0506 50.6726 55.3704 53.7886 55.3704C54.2575 55.3704 54.56 55.675 54.56 56.1471C54.56 56.6192 54.2575 56.9237 53.7886 56.9237C53.7734 56.939 53.6222 56.939 53.6222 56.939Z" fill="#46433E"/>
<path d="M73.8458 58.3407L72.6055 57.3965C72.6055 57.3965 74.3147 55.2036 75.4038 54.1072C76.024 53.3305 76.9618 52.8585 77.5819 52.3864C78.0509 52.0818 78.5198 51.9143 78.671 51.6097C78.9735 51.3052 79.4424 51.3052 79.7601 51.4575C80.0626 51.762 80.0626 52.2341 79.9265 52.5539C79.624 53.026 78.9887 53.3305 78.5198 53.6503C77.8996 53.9549 77.2794 54.427 76.8105 54.8991C75.7063 56.3153 73.8458 58.3407 73.8458 58.3407Z" fill="#46433E"/>
<path d="M57.9781 53.0251C57.5092 53.0251 57.0403 52.8728 56.5713 52.553C56.5713 52.553 55.1646 51.6089 54.3932 50.3601C54.2419 50.0556 54.2419 49.5835 54.6957 49.2637C55.1646 48.9591 55.4671 49.1114 55.7848 49.5683C56.405 50.6647 57.1008 51.3652 57.494 51.5632C57.6453 51.7155 58.7192 51.2891 59.3848 50.6647C60.0352 50.0403 60.2772 49.5073 60.2772 49.5073C60.2924 49.0657 59.9596 47.8627 58.8705 47.2383C58.568 46.9337 58.447 46.5987 58.5982 46.2789C58.9008 45.9743 59.3697 45.9743 59.6873 46.1114C60.7764 47.0556 61.3966 48.7764 61.5478 48.9287C61.8503 49.553 61.6386 50.4515 61.0184 51.0911L59.4604 52.5073C59.0066 52.6748 58.5982 53.0251 57.9781 53.0251Z" fill="#46433E"/>
<path d="M53.7732 61.6298C49.5682 61.6298 48.7968 61.0054 48.4942 60.6857C47.7228 60.0613 47.2539 58.9648 47.2539 57.3963C47.2539 55.8278 49.1144 55.0511 49.2657 54.8988C49.5077 54.7618 49.5682 54.9445 49.8858 55.4166C50.1884 55.8887 50.3547 56.1476 49.901 56.2999C49.5984 56.4522 48.8119 56.9242 48.8119 57.3963C48.8119 58.0207 48.9631 58.9648 49.4321 59.4217C49.5984 59.4217 50.2035 59.7263 53.7884 60.0461C54.2573 60.0461 54.3026 60.3354 54.3026 60.8075C54.2875 60.975 54.0909 61.6298 53.7732 61.6298Z" fill="#46433E"/>
<path d="M53.9393 65.3911C53.7881 65.3911 53.7881 65.3911 53.6368 65.3911C49.7494 63.9749 49.2805 63.518 49.1292 63.1982C48.3578 61.9495 48.8267 60.2287 48.8267 60.0612C48.978 59.5891 49.4469 59.4368 49.7645 59.5891C50.2334 59.7414 50.3847 60.2135 50.2334 60.5333C50.0822 60.8378 49.9309 61.782 50.3847 62.4064C50.3847 62.4064 50.8536 62.8784 54.1208 63.9749C54.5897 64.1272 54.4687 64.6449 54.3175 64.9495C54.2872 65.2693 54.2418 65.3911 53.9393 65.3911Z" fill="#46433E"/>
<path d="M71.985 54.4265C71.8187 54.4265 71.8187 54.4265 71.6825 54.259C71.38 54.1067 71.0624 53.6347 71.38 53.1626L73.2405 49.4012C73.3918 49.0966 73.8607 48.9291 74.3296 49.0966C74.6321 49.2641 74.9498 49.7209 74.6321 50.193L72.7565 53.9545C72.6052 54.2742 72.2876 54.4265 71.985 54.4265Z" fill="#46433E"/>
<path d="M57.5084 85.1267H26.5605C26.0916 85.1267 25.7891 84.8221 25.7891 84.35C25.7891 82.9338 26.7269 81.8526 27.9672 81.6851L38.2378 79.812C38.7067 79.6444 39.1756 79.1876 39.1756 78.5632V76.2181C39.1756 75.746 39.4781 75.4414 39.947 75.4414H44.1521C44.621 75.4414 44.9235 75.746 44.9235 76.2181V78.5632C44.9235 79.1876 45.226 79.6597 45.8613 79.812L56.2832 81.8373C57.5235 81.9896 58.4613 83.2536 58.4613 84.5023C58.2949 84.8069 57.9773 85.1267 57.5084 85.1267ZM27.6496 83.5582H56.5706C56.4193 83.3906 56.2681 83.2536 55.9504 83.0861L45.5286 81.0607C44.2882 80.9084 43.3504 79.6444 43.3504 78.3957V76.812H40.7033V78.3805C40.7033 79.7967 39.7655 80.878 38.5252 81.0455L28.2546 82.9186C27.9672 83.2384 27.8008 83.4059 27.6496 83.5582Z" fill="#46433E"/>
<path d="M60.4584 63.9902H58.129C57.0399 63.9902 56.1172 63.0461 56.1172 61.9648C56.1172 60.8684 57.055 59.9395 58.129 59.9395H60.4584C61.5474 59.9395 62.4701 60.8836 62.4701 61.9648C62.4853 63.0461 61.7138 63.9902 60.4584 63.9902ZM58.1441 61.4775C57.8416 61.4775 57.6752 61.6298 57.6752 61.9496C57.6752 62.2542 57.8416 62.4217 58.1441 62.4217H60.4735C60.776 62.4217 60.9424 62.2694 60.9424 61.9496C60.9424 61.645 60.7911 61.4775 60.4735 61.4775H58.1441Z" fill="#46433E"/>
<path d="M60.4584 69.3047H58.129C57.0399 69.3047 56.1172 68.3605 56.1172 67.2793C56.1172 66.1828 57.055 65.2539 58.129 65.2539H60.4584C61.5474 65.2539 62.4701 66.1981 62.4701 67.2793C62.4701 68.3605 61.7138 69.3047 60.4584 69.3047ZM58.1441 66.8072C57.8416 66.8072 57.6752 66.9595 57.6752 67.2793C57.6752 67.5991 57.8416 67.7514 58.1441 67.7514H60.4735C60.776 67.7514 60.9424 67.5839 60.9424 67.2793C60.9424 66.9747 60.7911 66.8072 60.4735 66.8072H58.1441Z" fill="#46433E"/>
<path d="M60.4584 74.6347H58.129C57.0399 74.6347 56.1172 73.6906 56.1172 72.6094C56.1172 71.5129 57.055 70.584 58.129 70.584H60.4584C61.5474 70.584 62.4701 71.5281 62.4701 72.6094C62.4701 73.6906 61.7138 74.6347 60.4584 74.6347ZM58.1441 71.9698C57.8416 71.9698 57.6752 72.1221 57.6752 72.4419C57.6752 72.7617 57.8416 72.9139 58.1441 72.9139H60.4735C60.776 72.9139 60.9424 72.7617 60.9424 72.4419C60.9424 72.1221 60.7911 71.9698 60.4735 71.9698H58.1441Z" fill="#46433E"/>
<path d="M64.5125 51.137C64.21 51.137 64.0436 50.9848 63.8923 50.8325C63.5898 50.5279 63.7259 50.0558 64.0436 49.736C64.6638 49.2639 64.9814 48.4873 64.9814 47.8629C64.9814 46.4467 63.8923 45.5178 62.652 45.5178C61.7142 45.5178 60.7915 46.1421 60.3226 47.0863C60.1713 47.5584 59.7024 47.7106 59.3848 47.5584C58.9159 47.3908 58.7646 46.934 58.9159 46.6142C59.536 45.0457 60.9276 43.9492 62.652 43.9492C64.8302 43.9492 66.5394 45.67 66.5394 47.8629C66.5394 49.1117 65.9192 50.3604 64.9814 51.1523C64.8302 51.137 64.6638 51.137 64.5125 51.137Z" fill="#46433E"/>
<path d="M63.2714 45.1981C62.8025 45.1981 62.5 44.8935 62.5 44.4214L62.5454 42.1067C62.5454 41.6346 62.8479 41.3301 63.3168 41.3301C63.7857 41.3301 64.0882 41.6346 64.0882 42.1067L64.0429 44.4214C64.0429 44.726 63.7403 45.1981 63.2714 45.1981Z" fill="#46433E"/>
<path d="M68.7172 49.1117L65.9492 49.066C65.4803 49.066 65.1777 48.7614 65.1777 48.2893C65.1777 47.8173 65.4803 47.5127 65.9492 47.5127L68.7172 47.5584C69.1861 47.5584 69.4887 47.863 69.4887 48.335C69.4887 48.7919 69.171 49.1117 68.7172 49.1117Z" fill="#46433E"/>
<path d="M65.9045 63.9903H65.1331C64.1953 63.9903 63.4238 63.2137 63.4238 62.1172V61.6451C63.4238 61.173 63.5751 60.701 63.8927 60.3964C64.1953 60.0918 64.6642 60.0918 64.9818 60.3964C65.2843 60.701 65.2843 61.173 64.9818 61.4928C64.9818 61.4928 64.8154 61.6604 64.8154 61.7974V62.2695C64.8154 62.4218 64.9818 62.5741 64.9818 62.5741H65.7532C66.2222 62.5741 66.5247 62.8786 66.5247 63.3507C66.5398 63.8228 66.3734 63.9903 65.9045 63.9903Z" fill="#46433E"/>
<path d="M67.3112 69.3042H65.1331C64.1953 69.3042 63.4238 68.5276 63.4238 67.4311V66.959C63.4238 65.8626 64.1953 65.0859 65.1331 65.0859H66.6911C67.16 65.0859 67.4625 65.3905 67.4625 65.8626C67.4625 66.3347 67.16 66.6392 66.6911 66.6392H65.1331C65.1331 66.6392 64.9818 66.7915 64.9818 66.9438V67.4159C64.9818 67.5682 65.1331 67.7205 65.1331 67.7205H67.3112C67.7801 67.7205 68.0827 68.025 68.0827 68.4971C68.0827 68.9996 67.7801 69.3042 67.3112 69.3042Z" fill="#46433E"/>
<path d="M68.0827 74.6343H65.2843C64.1953 74.6343 63.4238 73.8576 63.4238 72.7612V72.2891C63.4238 71.1927 64.1953 70.416 65.2843 70.416H68.0827C68.3852 70.416 68.5516 70.416 68.8541 70.5683C69.323 70.7358 69.4742 71.1927 69.323 71.6647C69.1717 72.1368 68.7028 72.2891 68.2339 72.1368H65.2843C65.1179 72.1368 64.9818 72.2891 64.9818 72.4414V72.9135C64.9818 73.081 65.1482 73.218 65.2843 73.218H68.0827C68.2339 73.218 68.2339 73.0658 68.3852 73.0658C68.5516 72.5937 69.0053 72.4414 69.4742 72.5937C69.9432 72.746 70.0944 73.218 69.9432 73.6901C69.4894 74.1622 68.8692 74.6343 68.0827 74.6343Z" fill="#46433E"/>
<path d="M60.4584 37.0508H58.129C57.0399 37.0508 56.1172 36.1066 56.1172 35.0254C56.1172 33.9289 57.055 33 58.129 33H60.4584C61.5474 33 62.4701 33.9442 62.4701 35.0254C62.4853 36.1066 61.5626 37.0508 60.4584 37.0508ZM57.9777 34.5381C57.6752 34.5381 57.5088 34.7056 57.5088 35.0101C57.5088 35.3147 57.6752 35.4822 57.9777 35.4822H60.3071C60.6096 35.4822 60.776 35.3147 60.776 35.0101C60.776 34.7056 60.6248 34.5381 60.3071 34.5381H57.9777Z" fill="#46433E"/>
<path d="M67.7806 37.2031H65.4512C64.3621 37.2031 63.4395 36.2589 63.4395 35.1777C63.4395 34.0813 64.3773 33.1523 65.4512 33.1523H67.7806C68.8697 33.1523 69.7924 34.0965 69.7924 35.1777C69.8075 36.2589 68.8697 37.2031 67.7806 37.2031ZM65.3 34.5381C64.9974 34.5381 64.8311 34.7056 64.8311 35.0102C64.8311 35.3148 64.9974 35.4823 65.3 35.4823H67.6294C67.9319 35.4823 68.0983 35.3148 68.0983 35.0102C68.0983 34.7056 67.9319 34.5381 67.6294 34.5381H65.3Z" fill="#46433E"/>
<path d="M17.1667 44.4363C8.13642 44.4363 0.785156 37.0353 0.785156 27.9592C0.785156 18.883 8.13642 11.4668 17.1667 11.4668C26.1969 11.4668 33.5482 18.8678 33.5482 27.9592C33.5482 37.0506 26.1969 44.4363 17.1667 44.4363ZM17.1667 12.9896C8.96835 12.9896 2.29776 19.7054 2.29776 27.9592C2.29776 36.213 8.96835 42.9135 17.1667 42.9135C25.365 42.9135 32.0356 36.1978 32.0356 27.9592C32.0356 19.7206 25.365 12.9896 17.1667 12.9896Z" fill="#54A261"/>
<path d="M16.8054 36.3965C16.5936 36.3965 16.3819 36.3052 16.2306 36.1376L7.95667 26.6351C7.6844 26.3153 7.71465 25.8432 8.0323 25.5539C8.34995 25.2798 8.81885 25.3102 9.10625 25.63L16.6995 34.3559L25.76 19.5082C25.9718 19.1427 26.4407 19.0361 26.8037 19.2645C27.1668 19.4777 27.2726 19.9498 27.0457 20.3153L17.4558 36.0463C17.3348 36.2595 17.1079 36.3813 16.881 36.4118C16.8357 36.3965 16.8205 36.3965 16.8054 36.3965Z" fill="#54A261"/>
</svg>
