<svg width="90" height="90" viewBox="0 0 90 90" fill="none" xmlns="http://www.w3.org/2000/svg">
<path d="M76.5532 58.5838C76.2355 58.5838 76.0842 58.4163 75.9179 58.264L75.449 57.6244C74.1935 55.8884 71.2137 51.7767 69.9582 50.8326C69.0204 50.0407 68.3851 49.5686 67.7649 49.0965C67.4473 48.7767 66.9784 48.4569 66.6607 48.1524C64.3011 46.0965 63.0456 43.8884 62.1078 42.1524C61.6389 41.3605 61.3212 40.8884 61.0036 40.4163C60.217 39.4721 59.2792 38.6803 58.175 37.7361C57.3885 37.0965 56.4506 36.3199 55.8153 35.528C54.4086 33.9442 52.2002 32.0559 50.7935 31.4163C50.0069 30.9442 49.3868 30.3046 48.6002 29.5128C47.9649 28.8732 47.496 28.4011 46.8758 27.929C46.0893 27.4569 41.6876 24.1371 41.3851 22.0813C41.2187 21.4417 41.3851 20.8173 41.7027 20.3452C40.9162 20.0255 40.296 19.5534 39.812 19.0813C38.8742 18.1371 38.496 16.7209 38.9649 15.7615C39.1313 15.4417 39.2674 15.2133 47.9044 11.4214C48.691 11.1016 50.8842 10.1574 51.6708 9.83763C52.4574 9.51784 53.2439 9.19804 53.8641 8.89347C54.8019 8.42139 55.5885 8.10159 56.5263 7.62951C57.1616 7.462 57.6305 7.15743 58.0994 6.83763C58.7347 6.51784 59.2792 6.28941 59.7481 6.13713C61.4725 5.96961 66.6607 7.2488 67.1296 7.55337C67.4473 7.72088 67.9162 7.72088 68.3851 7.87317C69.0204 8.04068 69.7918 8.19296 70.2758 8.34525C70.7448 8.51276 71.849 9.28941 72.938 10.0813C73.8758 10.7209 74.98 11.4975 75.6002 11.8173C76.2355 12.1371 77.1733 12.4569 78.1111 12.6092C79.8355 12.929 81.5599 13.4011 82.9817 14.8173C84.2372 16.0813 84.7061 19.0813 84.5548 24.929C84.3885 29.193 84.7061 31.4011 85.0237 33.4569C85.175 34.0965 85.3414 35.0407 85.4927 35.9848C85.8103 38.193 86.2792 40.7209 86.7481 41.9848C87.5347 44.665 89.5767 47.5128 89.5767 47.5128C89.8943 47.8326 89.7279 48.3046 89.4103 48.6244C89.0926 48.9442 88.6237 48.7919 88.3061 48.4721C88.1548 48.3046 86.1128 45.4721 85.175 42.4721C84.7061 41.0559 84.2372 38.528 83.9195 36.3199C83.7683 35.3757 83.6019 34.4163 83.4506 33.7919C82.9817 31.5838 82.8153 29.2082 82.8153 24.7919C82.9666 19.7361 82.4977 16.7361 81.7111 15.7919C80.6069 14.6803 79.2002 14.3757 77.6271 14.0559C76.5229 13.8884 75.5851 13.5838 74.6473 13.1117C74.012 12.7919 72.9229 12.0001 71.8187 11.3757C70.8809 10.7361 69.7767 9.95946 69.3078 9.79195C68.8389 9.62444 68.2036 9.47215 67.7347 9.31987C67.2658 9.16758 66.7969 9.15235 66.3279 9.00007C65.0725 8.68027 60.8372 7.58383 59.5817 7.73611C59.4305 7.73611 58.9464 8.05591 58.4775 8.20819C57.8422 8.52799 57.2221 8.84778 56.5868 9.15235C55.649 9.47215 54.8624 9.79195 54.0758 10.264C53.4405 10.5838 52.6691 10.9036 51.8826 11.2082C51.096 11.528 48.9027 12.4722 48.1162 12.7919C43.0943 15.0001 40.4321 16.4315 39.9632 16.7361C39.9632 16.9036 39.9632 17.0559 40.1296 17.528C40.7649 18.3199 42.0204 18.9442 42.3229 18.7919C42.3229 18.7919 42.459 18.731 42.7918 18.4722C43.4271 18.0001 43.8809 17.8021 44.5162 17.8326C44.8338 17.8326 45.454 17.8326 46.0893 18.0001C46.8758 18.1676 47.2389 18.198 47.496 18.3199C49.538 18.0001 52.6842 17.3757 53.3044 16.5838C53.4708 16.4163 53.7733 16.264 53.9397 16.264C54.1061 16.264 54.1061 16.264 54.2574 16.4315C54.8927 16.5991 56.2994 17.0711 59.7481 15.3199C60.0658 15.1524 60.3834 15.1524 60.6859 15.4874C60.6859 15.4874 64.1347 18.4874 68.2187 17.6955C68.5363 17.6955 68.6876 17.6955 69.0053 17.863C69.1716 18.0305 69.3229 18.3351 69.1716 18.6549C68.7027 20.2386 70.1095 21.1828 71.3649 21.6549C71.8338 21.8224 72.1515 22.2945 72.1515 22.5991C72.1515 23.0711 71.9851 23.5432 71.6826 23.863C69.3229 25.9188 66.1918 28.2793 64.77 28.4468C62.7279 28.7666 58.659 27.1828 57.0859 26.0711C56.1481 25.4315 54.8927 24.3351 53.7885 23.2234C53.0019 22.5838 52.0641 21.6397 51.8977 21.4874C51.2624 21.1676 47.8137 20.0711 45.938 19.5838C45.6204 19.5838 45.1515 19.4163 44.6826 19.4163C44.0473 19.7361 42.6405 20.528 42.7918 21.6244C42.9582 22.5686 45.9229 25.264 47.6624 26.528C48.449 27.0001 49.0691 27.6397 49.5532 28.264C50.1884 28.9036 50.8086 29.528 51.4439 29.8478C52.8506 30.6397 55.2103 32.528 56.7834 34.264C57.4187 34.9036 58.1901 35.528 58.9767 36.3199C60.0809 37.264 61.17 38.2234 61.9565 39.1676C62.4254 39.6397 62.7431 40.2793 63.212 41.0711C64.1498 42.8072 65.254 44.863 67.4473 46.5991C67.9162 46.9188 68.2338 47.2386 68.7027 47.7107C69.338 48.1828 69.8069 48.6549 70.7448 49.4468C72.0002 50.3909 74.3599 53.3909 76.5532 56.5584L77.0221 57.198C77.3397 57.5178 77.1733 57.9899 76.8557 58.3097C76.8708 58.4163 76.7195 58.5838 76.5532 58.5838ZM50.5061 19.4011C51.6103 19.7209 52.3969 20.0407 52.5481 20.193C53.017 20.3605 53.8036 21.1371 54.9078 22.2488C56.012 23.193 57.1011 24.3046 57.8876 24.7767C59.4607 25.7209 63.0758 27.1524 64.4826 26.8326C65.2691 26.665 67.4624 25.0965 70.291 22.8884C68.5666 22.0965 67.4624 20.8326 67.4624 19.2488C64.1649 19.5686 61.1851 17.8326 59.9296 16.8732C56.6321 18.4569 54.9078 18.1371 53.97 17.9848C53.3347 18.6092 51.9128 19.0965 50.5061 19.4011Z" fill="#46433E"/>
<path d="M45.3329 26.3601C45.0152 26.3601 44.6976 26.1926 44.5463 25.888C44.3951 25.4159 44.5463 25.0961 45.0152 24.7763C46.422 24.1367 47.5262 22.5682 47.5262 22.0961C47.5262 21.624 46.3161 19.9184 44.2741 19.5986C43.8051 19.4311 43.7598 19.2484 43.7598 18.7763C43.911 18.3042 44.2287 18.1367 44.6976 18.1367C47.3598 18.6088 48.9329 20.6646 49.0841 21.9286C49.2354 23.1926 47.511 25.5682 45.6354 26.3448C45.6505 26.3601 45.4841 26.3601 45.3329 26.3601Z" fill="#46433E"/>
<path d="M39.8429 18.7616C39.5253 18.7616 39.2076 18.4418 39.0564 18.122C38.89 17.6499 39.2076 17.3301 39.6917 17.1779C39.6917 17.1779 42.9892 16.5383 43.927 13.5383C44.0782 13.0662 45.0766 13.0814 45.3942 13.2337C45.8631 13.4012 45.5001 13.6906 45.3488 14.0104C44.2295 17.985 40.1455 18.7616 39.8429 18.7616Z" fill="#46433E"/>
<path d="M67.9318 26.437C67.6141 26.437 67.4477 26.5131 67.4477 26.1933C67.4477 26.1933 66.5099 24.2897 66.3435 21.9293C66.3435 21.6095 66.1771 21.2897 66.0259 20.9852C65.7082 20.3456 65.2393 19.5689 65.557 18.4573C65.7234 17.9852 66.1923 17.8177 66.4948 17.9852C66.9637 18.1527 67.1301 18.6248 66.9637 18.9293C66.7973 19.4014 66.9637 19.7212 67.2813 20.1933C67.599 20.6654 67.7502 21.1375 67.9166 21.7771C68.083 23.8329 68.8545 25.4166 68.8545 25.4166C69.0057 25.7364 68.7032 25.9649 68.3855 26.2847C68.083 26.437 67.9318 26.437 67.9318 26.437Z" fill="#46433E"/>
<path d="M60.0823 43.5684C59.6134 43.5684 59.1445 43.4161 58.8269 43.2486C58.1916 42.9288 57.7227 42.3044 57.7227 41.5125C57.7227 39.9288 58.1916 38.3602 58.3579 37.8729C58.3579 37.4009 58.8269 37.0811 59.2958 37.0811C59.7647 37.0811 60.0823 37.5531 59.9311 37.8729C59.9311 37.8729 59.9311 38.0404 59.9311 38.1927C59.7647 38.6648 59.4622 40.0963 59.2958 41.5125C59.2958 41.5125 59.2958 41.68 59.4622 41.68C59.9311 41.9998 61.0353 41.8323 61.9731 41.0404C62.2907 40.7206 62.7596 40.8729 63.0773 41.1927C63.3949 41.5125 63.2437 41.9846 62.9109 42.3044C62.1243 43.2638 61.0201 43.5684 60.0823 43.5684Z" fill="#46433E"/>
<path d="M60.8666 27.3046C60.3977 27.3046 60.0801 27.1371 60.0801 26.665C60.0801 26.0254 60.2313 20.8173 62.1221 19.0813C63.0599 18.2894 63.6952 18.1371 64.9507 17.665L65.2229 17.8326C65.6918 17.665 66.0397 17.8173 66.2061 18.1371C66.3574 18.6092 66.0397 18.929 65.7372 19.0813H65.4196C64.3154 19.4011 63.8465 19.5534 63.2263 20.193C62.1221 21.1371 61.8196 24.4569 61.8196 26.5128C61.6532 27.1371 61.3355 27.3046 60.8666 27.3046Z" fill="#46433E"/>
<path d="M71.0774 24.0157C70.9262 24.0157 71.0774 24.3051 70.9262 24.3051C70.6085 24.1376 70.4573 23.9853 70.4573 23.833C70.2909 23.3609 70.4573 23.1934 71.7127 21.7771C71.8791 21.6096 72.1816 21.3051 72.348 20.9853C70.9413 19.8736 69.8371 18.1376 69.3682 16.7213C68.264 16.8888 66.8573 17.0411 65.6018 16.5538C64.1951 16.234 62.1531 15.1376 61.0489 14.0259C60.58 14.3457 60.1111 14.498 59.7934 14.8178C58.5379 15.6096 57.4337 16.234 55.4069 16.7213C54.7716 16.8888 54.1514 17.3609 53.5161 17.9853C52.8808 18.6249 52.1094 19.2492 51.1564 19.4015C50.6875 19.569 50.3699 19.234 50.2186 18.9294C50.0674 18.4574 50.385 18.1376 50.6875 17.9853C51.3228 17.8178 51.7917 17.3457 52.4119 16.8736C53.1985 16.234 53.985 15.4574 55.0741 15.2898C56.6472 14.97 57.7363 14.3457 58.8405 13.7061C59.4758 13.3863 59.9447 12.9142 60.7312 12.5944C61.0489 12.4269 61.3665 12.4269 61.669 12.7619C62.6069 13.7061 64.4976 14.97 66.0556 15.2898C67.3111 15.7619 68.5665 15.6096 69.6707 15.2898C69.822 15.2898 70.1396 15.2898 70.306 15.4574C70.4724 15.6249 70.6237 15.7771 70.6237 15.9294C70.7749 16.8736 72.348 19.569 73.7548 20.1934C73.906 20.3609 74.0724 20.5132 74.2237 20.833C74.3749 21.3051 74.2237 21.4726 72.8169 22.8888C72.4993 23.2086 71.8337 23.6502 71.6825 23.8025C71.6522 23.9548 71.38 24.0157 71.0774 24.0157Z" fill="#46433E"/>
<path d="M45.8015 53.9998C45.4839 53.9998 45.015 53.68 45.015 53.3602L41.3242 21.6851C41.3242 21.213 41.5511 21.6089 41.8688 21.4414C42.3377 21.4414 42.6553 21.7612 42.8066 22.081L46.5881 53.0556C46.5881 53.5277 46.2704 53.9998 45.8015 53.9998Z" fill="#46433E"/>
<path d="M60.2317 75.959C57.5695 75.959 54.1207 75.0148 49.5678 71.8473C45.9527 69.4717 45.9527 67.4311 45.8014 64.8879C45.8014 63.7763 45.635 62.36 45.1661 60.7763C44.5308 58.7204 43.1241 57.9285 41.551 57.1367C39.3577 56.025 36.998 54.6088 36.998 50.4971C37.1644 43.8575 38.8888 18.1062 39.0401 17.8016C39.0401 17.3296 39.509 17.0098 39.8266 17.0098C40.2955 17.0098 40.6132 17.4818 40.6132 17.8016C40.6132 18.1214 38.7224 43.8879 38.7224 50.3752C38.7224 53.5275 40.2955 54.4869 42.3375 55.5986C44.0619 56.5428 46.1039 57.6544 46.7241 60.3346C47.193 62.0707 47.3594 63.4869 47.3594 64.7509C47.5107 67.1265 47.677 68.5428 50.4905 70.4463C59.7476 76.7661 63.9829 73.5986 65.0871 72.5022L46.9056 27.7763C46.7392 27.3042 46.9056 26.9844 47.3745 26.6646C47.8434 26.4971 48.1611 26.6646 48.4787 27.1367L66.993 72.3346C67.1594 72.6544 66.993 72.8067 66.8266 73.1265C66.3577 73.4311 64.4821 75.959 60.2317 75.959Z" fill="#46433E"/>
<path d="M17.6217 34.8426C8.5915 34.8426 1.24023 27.4416 1.24023 18.3502C1.24023 9.25883 8.5915 1.87305 17.6217 1.87305C26.652 1.87305 34.0033 9.27406 34.0033 18.3654C34.0033 27.4568 26.652 34.8426 17.6217 34.8426ZM17.6217 3.39589C9.42343 3.39589 2.75284 10.1116 2.75284 18.3654C2.75284 26.6192 9.42343 33.335 17.6217 33.335C25.8201 33.335 32.4907 26.6192 32.4907 18.3654C32.4907 10.1116 25.8201 3.39589 17.6217 3.39589Z" fill="#54A261"/>
<path d="M17.2585 26.8024C17.0468 26.8024 16.835 26.711 16.6837 26.5435L8.40979 17.041C8.13752 16.7212 8.16778 16.2491 8.48542 15.9597C8.80307 15.6856 9.27198 15.7161 9.55937 16.0359L17.1527 24.7618L26.2132 9.89883C26.4249 9.53334 26.8938 9.42675 27.2569 9.65517C27.6199 9.86837 27.7258 10.3405 27.4989 10.7059L17.909 26.4369C17.7879 26.6501 17.5611 26.7719 17.3342 26.8024C17.2888 26.8024 17.2737 26.8024 17.2585 26.8024Z" fill="#54A261"/>
</svg>
