<svg viewBox="0 0 1270 302" fill="none" xmlns="http://www.w3.org/2000/svg"><g clip-path="url(#clip0_4025_25470)"><path d="M344 288.605H341.477V282.376H343.567L353.643 259.096H354.526L365.179 282.376H367.18V288.605H364.656V284.77H344.018V288.605H344ZM346.469 282.376H362.151L354.112 264.39L346.469 282.376Z" fill="currentColor"></path><path d="M387.547 284.77L391.224 259.115H391.638L402.075 280.179L412.421 259.115H412.835L416.531 284.77H414.007L411.466 266.424L402.381 284.77H401.732L392.54 266.28L390.016 284.77H387.547Z" fill="currentColor"></path><path d="M459.682 284.77H457.014V265.092L440.071 284.77H439.494V259.115H442.054V279.135L459.105 259.115H459.682V284.77Z" fill="currentColor"></path><path d="M481.258 261.617V259.096H495.335V261.617H489.603V284.77H486.99V261.617H481.258Z" fill="currentColor"></path><path d="M516.91 259.115H522.029C524.967 259.115 526.95 259.241 527.959 259.493C529.419 259.853 530.627 260.591 531.564 261.725C532.502 262.841 532.97 264.264 532.97 265.956C532.97 267.648 532.52 269.071 531.6 270.187C530.699 271.303 529.437 272.041 527.851 272.438C526.68 272.708 524.517 272.852 521.326 272.852H519.488V284.788H516.928V259.115H516.91ZM519.47 261.617V270.331L523.814 270.385C525.58 270.385 526.86 270.223 527.671 269.899C528.482 269.575 529.131 269.071 529.6 268.351C530.068 267.63 530.302 266.838 530.302 265.956C530.302 265.074 530.068 264.318 529.6 263.598C529.131 262.877 528.518 262.373 527.761 262.067C527.004 261.761 525.742 261.617 524.012 261.617H519.47Z" fill="currentColor"></path><path d="M566.478 259.115L578.465 284.77H575.689L571.651 276.326H560.584L556.583 284.77H553.717L565.847 259.115H566.478ZM566.154 264.57L561.756 273.86H570.534L566.154 264.57Z" fill="currentColor"></path><path d="M630.628 284.77H628.068V259.115H640.938V261.635H630.628V284.77Z" fill="currentColor"></path><path d="M674.734 258.466C678.627 258.466 681.889 259.763 684.503 262.355C687.117 264.948 688.432 268.134 688.432 271.933C688.432 275.732 687.117 278.883 684.503 281.494C681.889 284.104 678.699 285.418 674.932 285.418C671.165 285.418 667.902 284.122 665.289 281.512C662.675 278.901 661.359 275.75 661.359 272.059C661.359 269.593 661.954 267.306 663.144 265.2C664.333 263.093 665.974 261.455 668.028 260.249C670.101 259.06 672.336 258.466 674.734 258.466ZM674.86 260.951C672.967 260.951 671.165 261.455 669.452 262.427C667.74 263.417 666.424 264.75 665.469 266.424C664.514 268.098 664.027 269.971 664.027 272.023C664.027 275.066 665.09 277.641 667.199 279.747C669.308 281.854 671.868 282.898 674.86 282.898C676.861 282.898 678.699 282.412 680.393 281.457C682.088 280.485 683.422 279.171 684.359 277.497C685.314 275.822 685.783 273.968 685.783 271.915C685.783 269.863 685.314 268.044 684.359 266.388C683.404 264.75 682.07 263.417 680.339 262.427C678.627 261.455 676.788 260.951 674.86 260.951Z" fill="currentColor"></path><path d="M711.451 259.115H716.57C719.508 259.115 721.491 259.241 722.5 259.493C723.96 259.853 725.168 260.591 726.105 261.725C727.043 262.841 727.511 264.264 727.511 265.956C727.511 267.648 727.061 269.071 726.141 270.187C725.24 271.303 723.978 272.041 722.392 272.438C721.221 272.708 719.058 272.852 715.867 272.852H714.029V284.788H711.469V259.115H711.451ZM714.029 261.617V270.331L718.373 270.385C720.139 270.385 721.419 270.223 722.23 269.899C723.041 269.575 723.69 269.071 724.159 268.351C724.627 267.63 724.862 266.838 724.862 265.956C724.862 265.074 724.627 264.318 724.159 263.598C723.69 262.877 723.077 262.373 722.32 262.067C721.563 261.761 720.301 261.617 718.571 261.617H714.029Z" fill="currentColor"></path><path d="M765.093 284.77H762.533V272.852H761.073L751.827 284.77H748.654L757.901 272.852C755.738 272.834 754.062 272.564 752.836 272.023C751.61 271.483 750.673 270.673 750.024 269.629C749.357 268.567 749.033 267.342 749.033 265.938C749.033 264.264 749.501 262.841 750.457 261.707C751.412 260.555 752.656 259.817 754.17 259.457C755.179 259.223 757.108 259.115 759.974 259.115H765.093V284.77ZM757.991 261.617C756.225 261.617 754.963 261.761 754.206 262.067C753.449 262.373 752.836 262.877 752.367 263.579C751.899 264.282 751.664 265.074 751.664 265.92C751.664 266.766 751.899 267.612 752.349 268.315C752.818 269.035 753.449 269.557 754.278 269.881C755.107 270.205 756.369 270.367 758.081 270.367L762.515 270.331V261.617H757.991Z" fill="currentColor"></path><path d="M799.791 270.169V259.115H802.35V284.77H799.791V272.69H797.934C795.374 272.69 793.5 272.582 792.328 272.383C791.157 272.167 790.093 271.717 789.156 271.015C788.219 270.313 787.588 269.449 787.245 268.441C786.903 267.414 786.723 266.01 786.723 264.228V259.132H789.246V264.372C789.246 266.514 789.679 268.027 790.544 268.891C791.409 269.755 792.851 270.187 794.87 270.187H796.69H797.483H799.791V270.169Z" fill="currentColor"></path><path d="M826.484 259.115H841.211V261.635H829.062V269.683H841.12V272.203H829.062V282.286H841.12V284.806H826.502V259.115H826.484Z" fill="currentColor"></path><path d="M863.598 259.115H868.663C870.699 259.115 872.268 259.349 873.367 259.835C874.467 260.321 875.332 261.059 875.963 262.067C876.593 263.075 876.918 264.174 876.918 265.398C876.918 266.532 876.648 267.576 876.089 268.513C875.53 269.449 874.719 270.205 873.637 270.781C874.971 271.231 875.999 271.771 876.72 272.383C877.441 272.996 877.999 273.734 878.396 274.598C878.792 275.462 878.991 276.398 878.991 277.425C878.991 279.477 878.234 281.223 876.72 282.646C875.206 284.068 873.187 284.788 870.645 284.788H863.598V259.115ZM866.103 261.617V269.827H867.581C869.366 269.827 870.681 269.665 871.511 269.323C872.358 268.999 873.025 268.477 873.511 267.756C873.998 267.036 874.25 266.244 874.25 265.38C874.25 264.21 873.836 263.291 873.007 262.607C872.177 261.941 870.88 261.599 869.077 261.599H866.103V261.617ZM866.103 272.419V282.25H869.293C871.168 282.25 872.556 282.07 873.421 281.692C874.286 281.314 874.989 280.755 875.53 279.981C876.053 279.207 876.323 278.361 876.323 277.461C876.323 276.326 875.945 275.318 875.206 274.472C874.467 273.626 873.439 273.05 872.123 272.726C871.24 272.51 869.726 272.419 867.563 272.419H866.103Z" fill="currentColor"></path><path d="M912.443 259.115L924.429 284.77H921.654L917.616 276.326H906.549L902.548 284.77H899.682L911.812 259.115H912.443ZM912.119 264.57L907.721 273.86H916.499L912.119 264.57Z" fill="currentColor"></path><path d="M396.723 234.683H386.178V223.61H344.145V169.382H355.32V213.618H378.049V169.382H389.224V213.618H396.741V234.683H396.723Z" fill="currentColor"></path><path d="M445.587 223.592H404.869V169.364H444.74V179.356H416.044V189.817H439.152V199.647H416.044V213.6H445.587V223.592Z" fill="currentColor"></path><path d="M465.668 223.592H454.492V169.364H465.668V189.655H490.181V169.364H501.266V223.592H490.181V199.809H465.668V223.592Z" fill="currentColor"></path><path d="M509.646 179.356V169.364H555.177V179.356H537.963V223.592H526.788V179.356H509.646Z" fill="currentColor"></path><path d="M574.644 223.592H563.469V169.364H587.207C593.047 169.364 597.644 170.894 601.014 173.937C604.421 176.926 606.133 180.851 606.133 185.712C606.133 190.573 604.421 194.57 601.014 197.558C597.662 200.601 593.047 202.131 587.207 202.131H574.644V223.592ZM574.644 179.122V192.607H586.432C589.118 192.607 591.209 192.031 592.723 190.861C594.219 189.691 594.976 188.034 594.976 185.856C594.976 183.677 594.219 182.021 592.723 180.851C591.227 179.698 589.136 179.104 586.432 179.104H574.644V179.122Z" fill="currentColor"></path><path d="M384.954 136.399C379.096 142.196 371.778 145.077 363 145.077C354.222 145.077 346.922 142.196 341.118 136.435C335.314 130.673 332.43 123.616 332.43 115.28C332.43 106.944 335.35 99.9584 341.208 94.1611C347.066 88.3638 354.384 85.4832 363.162 85.4832C371.94 85.4832 379.24 88.3638 385.044 94.1251C390.83 99.8864 393.732 106.944 393.732 115.28C393.714 123.58 390.794 130.619 384.954 136.399ZM350.635 128.135C353.933 131.646 358.097 133.41 363.162 133.41C368.227 133.41 372.354 131.664 375.599 128.189C378.843 124.714 380.465 120.411 380.465 115.316C380.465 110.221 378.825 105.99 375.527 102.479C372.228 98.9682 368.064 97.2038 363 97.2038C357.935 97.2038 353.807 98.9502 350.563 102.425C347.318 105.918 345.696 110.203 345.696 115.298C345.678 120.339 347.336 124.624 350.635 128.135Z" fill="currentColor"></path><path d="M440.433 146.391H427.744V140.144C419.002 140.144 412.062 137.749 406.889 132.942C401.734 128.135 399.139 122.013 399.139 114.542C399.139 107.07 401.716 101.183 406.889 96.5197C412.044 91.8567 419.002 89.5162 427.744 89.5162V84.241H440.433V89.5162C449.121 89.5162 456.043 91.8567 461.234 96.5557C466.425 101.255 469.02 107.268 469.02 114.614C469.02 121.959 466.443 128.117 461.27 132.924C456.097 137.731 449.157 140.126 440.415 140.126V146.391H440.433ZM427.744 128.873V100.805C423.075 100.805 419.308 102.083 416.46 104.64C413.594 107.196 412.17 110.581 412.17 114.812C412.17 119.043 413.594 122.5 416.46 125.056C419.326 127.595 423.075 128.873 427.744 128.873ZM440.433 100.805V128.873C445.102 128.873 448.851 127.595 451.681 125.038C454.51 122.482 455.916 119.079 455.916 114.794C455.916 110.509 454.51 107.178 451.681 104.622C448.851 102.083 445.102 100.805 440.433 100.805Z" fill="currentColor"></path><path d="M490.453 144.086V98.1761H472.896V86.4915H520.68V98.1761H503.124V144.104H490.453V144.086Z" fill="currentColor"></path><path d="M523.076 144.086L547.788 86.0593H559.486L584.198 144.086H570.932L565.65 131.159H541.263L535.982 144.086H523.076ZM545.823 119.979H561.144L553.484 101.291L545.823 119.979Z" fill="currentColor"></path><path d="M598.401 86.4734H639.605V144.086H626.916V97.906H610.279V102.263C610.279 113.515 609.612 122.229 608.26 128.441C606.908 134.634 604.944 138.919 602.366 141.278C599.789 143.636 596.184 144.825 591.57 144.825C588.992 144.825 586.757 144.572 584.9 144.086L585.73 133.626C586.505 133.734 587.153 133.788 587.712 133.788C589.587 133.788 591.101 133.392 592.291 132.6C593.48 131.808 594.562 130.205 595.589 127.793C596.598 125.38 597.337 121.779 597.77 116.972C598.203 112.165 598.437 105.99 598.437 98.4101V86.4734H598.401Z" fill="currentColor"></path><path d="M651.051 144.086V86.4734H663.74V106.062H676.015C682.612 106.062 687.767 107.754 691.498 111.121C695.229 114.488 697.104 119.043 697.104 124.75C697.104 130.457 695.139 135.372 691.21 138.865C687.28 142.358 681.945 144.086 675.186 144.086H651.051ZM674.933 116.936H663.722V132.654H675.006C681.314 132.654 684.487 129.971 684.487 124.588C684.487 119.493 681.314 116.936 674.933 116.936Z" fill="currentColor"></path><path d="M704.441 144.086V86.4734H718.122L733.281 110.833L748.44 86.4734H762.12V144.086H749.521V106.476L733.281 131.087H732.956L716.896 106.728V144.086H704.441Z" fill="currentColor"></path><path d="M823.547 136.399C817.689 142.196 810.371 145.077 801.593 145.077C792.815 145.077 785.515 142.196 779.711 136.435C773.907 130.673 771.023 123.616 771.023 115.28C771.023 106.944 773.943 99.9584 779.801 94.1611C785.659 88.3638 792.977 85.4832 801.755 85.4832C810.533 85.4832 817.833 88.3638 823.637 94.1251C829.441 99.8864 832.325 106.944 832.325 115.28C832.325 123.616 829.387 130.619 823.547 136.399ZM789.228 128.135C792.527 131.646 796.691 133.41 801.755 133.41C806.82 133.41 810.948 131.664 814.192 128.189C817.437 124.714 819.059 120.411 819.059 115.316C819.059 110.221 817.419 105.99 814.12 102.479C810.822 98.9682 806.658 97.2038 801.593 97.2038C796.528 97.2038 792.401 98.9502 789.156 102.425C785.912 105.918 784.29 110.203 784.29 115.298C784.272 120.339 785.93 124.624 789.228 128.135Z" fill="currentColor"></path><path d="M848.872 86.4734H890.076V144.086H877.387V97.906H860.75V102.263C860.75 113.515 860.083 122.229 858.731 128.441C857.379 134.634 855.415 138.919 852.837 141.278C850.259 143.636 846.655 144.825 842.04 144.825C839.463 144.825 837.228 144.572 835.371 144.086L836.2 133.626C836.975 133.734 837.624 133.788 838.183 133.788C840.058 133.788 841.572 133.392 842.761 132.6C843.951 131.808 845.032 130.205 846.06 127.793C847.069 125.38 847.808 121.779 848.241 116.972C848.673 112.165 848.908 105.99 848.908 98.4101V86.4734H848.872Z" fill="currentColor"></path><path d="M951.504 136.399C945.646 142.196 938.328 145.077 929.55 145.077C920.772 145.077 913.472 142.196 907.668 136.435C901.864 130.673 898.98 123.616 898.98 115.28C898.98 106.944 901.9 99.9584 907.758 94.1611C913.616 88.3638 920.934 85.4832 929.713 85.4832C938.491 85.4832 945.791 88.3638 951.594 94.1251C957.398 99.8864 960.282 106.944 960.282 115.28C960.282 123.616 957.362 130.619 951.504 136.399ZM917.185 128.135C920.484 131.646 924.648 133.41 929.713 133.41C934.777 133.41 938.905 131.664 942.15 128.189C945.394 124.714 947.016 120.411 947.016 115.316C947.016 110.221 945.376 105.99 942.077 102.479C938.779 98.9682 934.615 97.2038 929.55 97.2038C924.485 97.2038 920.358 98.9502 917.113 102.425C913.869 105.918 912.247 110.203 912.247 115.298C912.247 120.393 913.887 124.624 917.185 128.135Z" fill="currentColor"></path><path d="M981.859 97.924V144.104H969.17V86.4915H1009.46V97.924H981.859Z" fill="currentColor"></path><path d="M1016.65 144.086V86.4734H1029.34V144.086H1016.65Z" fill="currentColor"></path><path d="M1074.81 144.086V122.608C1068.99 125.47 1063.91 126.892 1059.56 126.892C1053.58 126.892 1048.86 125.272 1045.4 122.031C1041.94 118.791 1040.21 113.966 1040.21 107.538V86.4734H1052.89V103.847C1052.89 111.301 1055.99 115.046 1062.21 115.046C1067.42 115.046 1071.64 113.804 1074.81 111.337V86.4734H1087.5V144.086H1074.81Z" fill="currentColor"></path><path d="M1098.95 144.086V86.4734H1111.64V109.267H1135.03V86.4734H1147.72V144.086H1135.03V120.951H1111.64V144.086H1098.95Z" fill="currentColor"></path><path d="M1208.86 86.4734V144.086H1196.33V106.314L1171.12 144.086H1159.17V86.4734H1171.7V124.246L1197.07 86.4734H1208.86Z" fill="currentColor"></path><path d="M1270 86.4734V144.086H1257.47V106.314L1232.26 144.086H1220.32V86.4734H1232.85V124.246L1258.23 86.4734H1270ZM1254.72 78.8217C1252.26 81.0182 1249.15 82.1164 1245.36 82.1164C1241.58 82.1164 1238.46 81.0182 1236.01 78.8217C1233.55 76.6252 1232.06 73.5465 1231.52 69.6036L1238.85 68.2893C1240.01 71.9621 1242.17 73.7985 1245.36 73.7985C1248.55 73.7985 1250.71 71.9621 1251.87 68.2893L1259.2 69.6036C1258.66 73.5645 1257.17 76.6432 1254.72 78.8217Z" fill="currentColor"></path><path d="M131.85 0C75.2169 0 25.9014 31.075 0.0180247 76.9493L0.955307 77.1654C17.502 80.9822 33.2375 87.7698 47.3868 97.1499V202.996C35.4725 209.981 22.8733 216.463 9.78739 221.36L0 225.051C25.8834 270.925 75.1989 302 131.832 302C215.269 302 282.969 234.395 282.969 150.892C282.987 67.6052 215.305 0 131.85 0ZM47.513 97.2219L47.5491 97.2579H47.531H47.513V97.2219ZM131.85 250.346C94.6295 250.346 63.9155 231.856 47.7293 203.32C60.9955 190.015 69.2688 171.111 69.2688 150.136C69.2688 129.161 61.2118 110.743 48.2701 97.492L47.6752 96.9878C56.1829 81.9545 67.8809 70.6479 82.0843 63.0862C96.3599 55.4885 113.177 51.6716 131.832 51.6716C186.591 51.6716 231.22 96.2497 231.22 150.91C231.22 205.786 186.609 250.346 131.85 250.346Z" fill="url(#mesh-gradient-1)"></path><path d="M131.85 0C75.2169 0 25.9014 31.075 0.0180247 76.9493L0.955307 77.1654C17.502 80.9822 33.2375 87.7698 47.3868 97.1499V202.996C35.4725 209.981 22.8733 216.463 9.78739 221.36L0 225.051C25.8834 270.925 75.1989 302 131.832 302C215.269 302 282.969 234.395 282.969 150.892C282.987 67.6052 215.305 0 131.85 0ZM47.513 97.2219L47.5491 97.2579H47.531H47.513V97.2219ZM131.85 250.346C94.6295 250.346 63.9155 231.856 47.7293 203.32C60.9955 190.015 69.2688 171.111 69.2688 150.136C69.2688 129.161 61.2118 110.743 48.2701 97.492L47.6752 96.9878C56.1829 81.9545 67.8809 70.6479 82.0843 63.0862C96.3599 55.4885 113.177 51.6716 131.832 51.6716C186.591 51.6716 231.22 96.2497 231.22 150.91C231.22 205.786 186.609 250.346 131.85 250.346Z" fill="url(#mesh-gradient-2)" style="mix-blend-mode: soft-light" opacity="0.7"></path></g><defs><linearGradient id="mesh-gradient-1" x1="0" y1="0" x2="1" y2="1"><stop offset="0%" stop-color="#E1F4FB"><animate attributeName="stop-color" values="#E1F4FB; #5AA5BD; #E1F4FB" dur="4s" repeatCount="indefinite" calcMode="spline" keySplines="0.4 0 0.6 1; 0.4 0 0.6 1" keyTimes="0; 0.5; 1"></animate></stop><stop offset="100%" stop-color="#5AA5BD"><animate attributeName="stop-color" values="#5AA5BD; #E1F4FB; #5AA5BD" dur="4s" repeatCount="indefinite" calcMode="spline" keySplines="0.4 0 0.6 1; 0.4 0 0.6 1" keyTimes="0; 0.5; 1"></animate></stop></linearGradient><linearGradient id="mesh-gradient-2" x1="1" y1="0" x2="0" y2="1"><stop offset="0%" stop-color="#E1F4FB"><animate attributeName="stop-color" values="#E1F4FB; #5AA5BD; #E1F4FB" dur="6s" repeatCount="indefinite" calcMode="spline" keySplines="0.4 0 0.6 1; 0.4 0 0.6 1" keyTimes="0; 0.5; 1"></animate></stop><stop offset="100%" stop-color="#5AA5BD"><animate attributeName="stop-color" values="#5AA5BD; #E1F4FB; #5AA5BD" dur="6s" repeatCount="indefinite" calcMode="spline" keySplines="0.4 0 0.6 1; 0.4 0 0.6 1" keyTimes="0; 0.5; 1"></animate></stop></linearGradient><filter id="mesh-composite"><feBlend mode="multiply" in="image1" in2="image2" result="blend"></feBlend><feTurbulence type="fractalNoise" baseFrequency="0.01" numOctaves="2" result="noise"></feTurbulence><feDisplacementMap in="blend" in2="noise" scale="20" xChannelSelector="R" yChannelSelector="G"></feDisplacementMap></filter><clipPath id="clip0_4025_25470"><rect width="1270" height="302" fill="white"></rect></clipPath></defs></svg>