<svg viewBox="0 0 420 101" fill="none" xmlns="http://www.w3.org/2000/svg"><g clip-path="url(#clip0_4126_11933)"><path d="M113.764 96.1109H112.93V94.0482H113.621L116.953 86.3398H117.245L120.768 94.0482H121.43V96.1109H120.595V94.8411H113.77V96.1109H113.764ZM114.581 94.0482H119.767L117.108 88.0926L114.581 94.0482Z" fill="currentColor"></path><path d="M128.166 94.8415L129.382 86.3462H129.519L132.971 93.3213L136.392 86.3462H136.529L137.751 94.8415H136.917L136.076 88.7666L133.072 94.8415H132.857L129.817 88.7189L128.983 94.8415H128.166Z" fill="currentColor"></path><path d="M152.022 94.8415H151.14V88.3254L145.536 94.8415H145.346V86.3462H146.192V92.9755L151.831 86.3462H152.022V94.8415Z" fill="currentColor"></path><path d="M159.156 87.1745V86.3398H163.812V87.1745H161.916V94.8411H161.052V87.1745H159.156Z" fill="currentColor"></path><path d="M170.947 86.3462H172.64C173.612 86.3462 174.267 86.3879 174.601 86.4714C175.084 86.5906 175.484 86.835 175.793 87.2106C176.103 87.5802 176.258 88.0512 176.258 88.6116C176.258 89.172 176.109 89.643 175.805 90.0126C175.507 90.3822 175.09 90.6266 174.566 90.7578C174.178 90.8472 173.463 90.8949 172.408 90.8949H171.8V94.8474H170.953V86.3462H170.947ZM171.794 87.1749V90.0603L173.23 90.0782C173.814 90.0782 174.238 90.0245 174.506 89.9172C174.774 89.8099 174.989 89.643 175.144 89.4045C175.299 89.166 175.376 88.9037 175.376 88.6116C175.376 88.3195 175.299 88.0691 175.144 87.8306C174.989 87.5922 174.786 87.4252 174.536 87.3239C174.285 87.2225 173.868 87.1749 173.296 87.1749H171.794Z" fill="currentColor"></path><path d="M187.339 86.3462L191.303 94.8415H190.385L189.05 92.0455H185.39L184.067 94.8415H183.119L187.131 86.3462H187.339ZM187.232 88.1526L185.778 91.2287H188.681L187.232 88.1526Z" fill="currentColor"></path><path d="M208.555 94.8415H207.709V86.3462H211.965V87.1808H208.555V94.8415Z" fill="currentColor"></path><path d="M223.142 86.1313C224.429 86.1313 225.508 86.5606 226.373 87.4191C227.237 88.2775 227.672 89.3327 227.672 90.5906C227.672 91.8485 227.237 92.8918 226.373 93.7562C225.508 94.6207 224.453 95.0559 223.207 95.0559C221.961 95.0559 220.883 94.6266 220.018 93.7622C219.154 92.8978 218.719 91.8545 218.719 90.6324C218.719 89.8156 218.915 89.0585 219.309 88.361C219.702 87.6635 220.245 87.121 220.924 86.7216C221.61 86.3281 222.349 86.1313 223.142 86.1313ZM223.183 86.9541C222.558 86.9541 221.961 87.121 221.395 87.4429C220.829 87.7708 220.394 88.2119 220.078 88.7664C219.762 89.3208 219.601 89.9408 219.601 90.6204C219.601 91.6279 219.953 92.4805 220.65 93.178C221.348 93.8755 222.194 94.2213 223.183 94.2213C223.845 94.2213 224.453 94.0603 225.013 93.7443C225.574 93.4224 226.015 92.9872 226.325 92.4328C226.641 91.8783 226.796 91.2643 226.796 90.5847C226.796 89.905 226.641 89.3029 226.325 88.7545C226.009 88.212 225.568 87.7708 224.996 87.4429C224.429 87.121 223.821 86.9541 223.183 86.9541Z" fill="currentColor"></path><path d="M235.283 86.3462H236.976C237.948 86.3462 238.603 86.3879 238.937 86.4714C239.42 86.5906 239.819 86.835 240.129 87.2106C240.439 87.5802 240.594 88.0512 240.594 88.6116C240.594 89.172 240.445 89.643 240.141 90.0126C239.843 90.3822 239.426 90.6266 238.901 90.7578C238.514 90.8472 237.799 90.8949 236.744 90.8949H236.136V94.8474H235.289V86.3462H235.283ZM236.136 87.1749V90.0603L237.572 90.0782C238.156 90.0782 238.58 90.0245 238.848 89.9172C239.116 89.8099 239.331 89.643 239.486 89.4045C239.641 89.166 239.718 88.9037 239.718 88.6116C239.718 88.3195 239.641 88.0691 239.486 87.8306C239.331 87.5922 239.128 87.4252 238.878 87.3239C238.627 87.2225 238.21 87.1749 237.638 87.1749H236.136Z" fill="currentColor"></path><path d="M253.022 94.8415H252.176V90.8949H251.693L248.635 94.8415H247.586L250.644 90.8949C249.929 90.8889 249.374 90.7995 248.969 90.6207C248.564 90.4418 248.254 90.1735 248.039 89.8278C247.818 89.476 247.711 89.0707 247.711 88.6056C247.711 88.0512 247.866 87.5802 248.182 87.2047C248.498 86.8231 248.909 86.5787 249.41 86.4595C249.744 86.382 250.382 86.3462 251.329 86.3462H253.022V94.8415ZM250.674 87.1749C250.09 87.1749 249.672 87.2225 249.422 87.3239C249.172 87.4252 248.969 87.5922 248.814 87.8247C248.659 88.0572 248.581 88.3195 248.581 88.5997C248.581 88.8799 248.659 89.1601 248.808 89.3926C248.963 89.631 249.172 89.8039 249.446 89.9112C249.72 90.0185 250.137 90.0722 250.703 90.0722L252.17 90.0603V87.1749H250.674Z" fill="currentColor"></path><path d="M264.497 90.0066V86.3462H265.344V94.8415H264.497V90.8412H263.883C263.037 90.8412 262.417 90.8055 262.03 90.7399C261.642 90.6684 261.29 90.5193 260.981 90.2868C260.671 90.0543 260.462 89.7682 260.349 89.4343C260.235 89.0945 260.176 88.6295 260.176 88.0393V86.3521H261.01V88.087C261.01 88.7964 261.153 89.2972 261.439 89.5833C261.726 89.8695 262.202 90.0126 262.87 90.0126H263.472H263.734H264.497V90.0066Z" fill="currentColor"></path><path d="M273.326 86.3462H278.196V87.1808H274.179V89.8457H278.166V90.6803H274.179V94.0188H278.166V94.8534H273.332V86.3462H273.326Z" fill="currentColor"></path><path d="M285.6 86.3462H287.275C287.948 86.3462 288.467 86.4237 288.83 86.5847C289.194 86.7456 289.48 86.99 289.689 87.3239C289.897 87.6577 290.005 88.0214 290.005 88.4268C290.005 88.8024 289.915 89.1481 289.731 89.4582C289.546 89.7682 289.277 90.0185 288.92 90.2093C289.361 90.3584 289.701 90.5372 289.939 90.7399C290.178 90.9426 290.362 91.187 290.494 91.4732C290.625 91.7593 290.69 92.0693 290.69 92.4091C290.69 93.0888 290.44 93.667 289.939 94.138C289.438 94.609 288.771 94.8474 287.93 94.8474H285.6V86.3462ZM286.428 87.1749V89.8933H286.917C287.507 89.8933 287.942 89.8397 288.216 89.7264C288.497 89.6191 288.717 89.4462 288.878 89.2078C289.039 88.9693 289.123 88.707 289.123 88.4208C289.123 88.0333 288.985 87.7293 288.711 87.5027C288.437 87.2822 288.008 87.1689 287.412 87.1689H286.428V87.1749ZM286.428 90.7518V94.0069H287.483C288.103 94.0069 288.562 93.9472 288.848 93.8221C289.134 93.6969 289.367 93.512 289.546 93.2557C289.719 92.9993 289.808 92.7192 289.808 92.4211C289.808 92.0455 289.683 91.7116 289.438 91.4314C289.194 91.1512 288.854 90.9605 288.419 90.8532C288.127 90.7816 287.626 90.7518 286.911 90.7518H286.428Z" fill="currentColor"></path><path d="M301.754 86.3462L305.718 94.8415H304.8L303.464 92.0455H299.804L298.481 94.8415H297.533L301.545 86.3462H301.754ZM301.646 88.1526L300.192 91.2287H303.095L301.646 88.1526Z" fill="currentColor"></path><path d="M131.2 78.2561H127.713V74.5897H113.812V56.6333H117.508V71.281H125.025V56.6333H128.721V71.281H131.206V78.2561H131.2Z" fill="currentColor"></path><path d="M147.36 74.5838H133.895V56.6274H147.08V59.9361H137.59V63.3998H145.232V66.6549H137.59V71.2751H147.36V74.5838Z" fill="currentColor"></path><path d="M154 74.5838H150.305V56.6274H154V63.3462H162.107V56.6274H165.773V74.5838H162.107V66.7085H154V74.5838Z" fill="currentColor"></path><path d="M168.545 59.9361V56.6274H183.602V59.9361H177.91V74.5838H174.214V59.9361H168.545Z" fill="currentColor"></path><path d="M190.04 74.5838H186.344V56.6274H194.194C196.126 56.6274 197.646 57.1342 198.76 58.1417C199.887 59.1313 200.453 60.4309 200.453 62.0406C200.453 63.6502 199.887 64.9737 198.76 65.9633C197.652 66.9708 196.126 67.4776 194.194 67.4776H190.04V74.5838ZM190.04 59.8586V64.3239H193.938C194.826 64.3239 195.518 64.1331 196.018 63.7456C196.513 63.3581 196.763 62.8096 196.763 62.0883C196.763 61.3669 196.513 60.8184 196.018 60.4309C195.524 60.0494 194.832 59.8527 193.938 59.8527H190.04V59.8586Z" fill="currentColor"></path><path d="M127.308 45.7115C125.37 47.6311 122.95 48.585 120.047 48.585C117.144 48.585 114.73 47.6311 112.811 45.7234C110.891 43.8157 109.938 41.4787 109.938 38.7185C109.938 35.9583 110.903 33.6452 112.84 31.7255C114.778 29.8059 117.198 28.8521 120.101 28.8521C123.004 28.8521 125.418 29.8059 127.337 31.7136C129.251 33.6213 130.211 35.9583 130.211 38.7185C130.205 41.4668 129.239 43.7978 127.308 45.7115ZM115.958 42.9751C117.049 44.1376 118.426 44.7218 120.101 44.7218C121.776 44.7218 123.141 44.1436 124.214 42.993C125.287 41.8424 125.823 40.4176 125.823 38.7304C125.823 37.0433 125.281 35.6423 124.19 34.4798C123.099 33.3173 121.722 32.7331 120.047 32.7331C118.372 32.7331 117.007 33.3113 115.934 34.4619C114.861 35.6185 114.325 37.0373 114.325 38.7245C114.319 40.3937 114.867 41.8126 115.958 42.9751Z" fill="currentColor"></path><path d="M145.654 49.0204H141.458V46.9517C138.567 46.9517 136.272 46.1588 134.561 44.5671C132.856 42.9753 131.998 40.9484 131.998 38.4743C131.998 36.0002 132.85 34.0508 134.561 32.5067C136.266 30.9627 138.567 30.1877 141.458 30.1877V28.4409H145.654V30.1877C148.528 30.1877 150.817 30.9627 152.533 32.5187C154.25 34.0746 155.108 36.0658 155.108 38.4981C155.108 40.9305 154.256 42.9694 152.545 44.5611C150.835 46.1529 148.54 46.9457 145.649 46.9457V49.0204H145.654ZM141.458 43.2197V33.9256C139.914 33.9256 138.668 34.3489 137.726 35.1954C136.779 36.042 136.308 37.1627 136.308 38.5637C136.308 39.9647 136.779 41.1093 137.726 41.9559C138.674 42.7965 139.914 43.2197 141.458 43.2197ZM145.654 33.9256V43.2197C147.198 43.2197 148.438 42.7965 149.374 41.9499C150.31 41.1034 150.775 39.9766 150.775 38.5578C150.775 37.1389 150.31 36.036 149.374 35.1895C148.438 34.3489 147.198 33.9256 145.654 33.9256Z" fill="currentColor"></path><path d="M162.197 48.2572V33.0551H156.391V29.186H172.193V33.0551H166.387V48.2632H162.197V48.2572Z" fill="currentColor"></path><path d="M172.986 48.2572L181.159 29.043H185.027L193.2 48.2572H188.813L187.066 43.9768H179.001L177.254 48.2572H172.986ZM180.509 40.2746H185.576L183.042 34.0865L180.509 40.2746Z" fill="currentColor"></path><path d="M197.896 29.1797H211.523V48.2568H207.327V32.9653H201.825V34.408C201.825 38.134 201.604 41.0194 201.157 43.0762C200.71 45.127 200.06 46.5458 199.208 47.3268C198.355 48.1078 197.163 48.5013 195.637 48.5013C194.785 48.5013 194.046 48.4178 193.432 48.2568L193.706 44.7931C193.962 44.8289 194.177 44.8468 194.362 44.8468C194.981 44.8468 195.482 44.7156 195.876 44.4533C196.269 44.191 196.627 43.6604 196.966 42.8616C197.3 42.0627 197.545 40.8704 197.688 39.2787C197.831 37.6869 197.908 35.6421 197.908 33.1322V29.1797H197.896Z" fill="currentColor"></path><path d="M215.309 48.2568V29.1797H219.505V35.6659H223.564C225.746 35.6659 227.451 36.2263 228.685 37.3411C229.919 38.4559 230.539 39.9642 230.539 41.8541C230.539 43.7439 229.889 45.3714 228.59 46.528C227.29 47.6845 225.526 48.2568 223.29 48.2568H215.309ZM223.207 39.2667H219.499V44.4712H223.231C225.317 44.4712 226.366 43.5829 226.366 41.8004C226.366 40.1133 225.317 39.2667 223.207 39.2667Z" fill="currentColor"></path><path d="M232.965 48.2568V29.1797H237.489L242.502 37.2457L247.515 29.1797H252.04V48.2568H247.873V35.803L242.502 43.9525H242.395L237.084 35.8865V48.2568H232.965Z" fill="currentColor"></path><path d="M272.354 45.7115C270.417 47.6311 267.997 48.585 265.094 48.585C262.191 48.585 259.777 47.6311 257.858 45.7234C255.938 43.8157 254.984 41.4787 254.984 38.7185C254.984 35.9583 255.95 33.6452 257.887 31.7255C259.825 29.8059 262.245 28.8521 265.148 28.8521C268.051 28.8521 270.465 29.8059 272.384 31.7136C274.304 33.6213 275.257 35.9583 275.257 38.7185C275.257 41.4787 274.286 43.7978 272.354 45.7115ZM261.005 42.9751C262.096 44.1376 263.473 44.7218 265.148 44.7218C266.823 44.7218 268.188 44.1436 269.261 42.993C270.334 41.8424 270.87 40.4176 270.87 38.7304C270.87 37.0433 270.328 35.6423 269.237 34.4798C268.146 33.3173 266.769 32.7331 265.094 32.7331C263.419 32.7331 262.054 33.3113 260.981 34.4619C259.908 35.6185 259.372 37.0373 259.372 38.7245C259.366 40.3937 259.914 41.8126 261.005 42.9751Z" fill="currentColor"></path><path d="M280.73 29.1797H294.357V48.2568H290.161V32.9653H284.659V34.408C284.659 38.134 284.438 41.0194 283.991 43.0762C283.544 45.127 282.894 46.5458 282.042 47.3268C281.189 48.1078 279.997 48.5013 278.471 48.5013C277.619 48.5013 276.88 48.4178 276.266 48.2568L276.54 44.7931C276.796 44.8289 277.011 44.8468 277.196 44.8468C277.815 44.8468 278.316 44.7156 278.71 44.4533C279.103 44.191 279.461 43.6604 279.8 42.8616C280.134 42.0627 280.379 40.8704 280.522 39.2787C280.665 37.6869 280.742 35.6421 280.742 33.1322V29.1797H280.73Z" fill="currentColor"></path><path d="M314.671 45.7115C312.734 47.6311 310.313 48.585 307.411 48.585C304.508 48.585 302.093 47.6311 300.174 45.7234C298.255 43.8157 297.301 41.4787 297.301 38.7185C297.301 35.9583 298.266 33.6452 300.204 31.7255C302.141 29.8059 304.561 28.8521 307.464 28.8521C310.367 28.8521 312.781 29.8059 314.701 31.7136C316.62 33.6213 317.574 35.9583 317.574 38.7185C317.574 41.4787 316.608 43.7978 314.671 45.7115ZM303.321 42.9751C304.412 44.1376 305.789 44.7218 307.464 44.7218C309.139 44.7218 310.504 44.1436 311.577 42.993C312.65 41.8424 313.187 40.4176 313.187 38.7304C313.187 37.0433 312.644 35.6423 311.553 34.4798C310.462 33.3173 309.086 32.7331 307.411 32.7331C305.735 32.7331 304.37 33.3113 303.297 34.4619C302.224 35.6185 301.688 37.0373 301.688 38.7245C301.688 40.4116 302.23 41.8126 303.321 42.9751Z" fill="currentColor"></path><path d="M324.71 32.9717V48.2632H320.514V29.186H333.836V32.9717H324.71Z" fill="currentColor"></path><path d="M336.213 48.2568V29.1797H340.409V48.2568H336.213Z" fill="currentColor"></path><path d="M355.449 48.2568V41.1446C353.523 42.0925 351.843 42.5635 350.406 42.5635C348.427 42.5635 346.865 42.027 345.721 40.9539C344.576 39.8808 344.004 38.2831 344.004 36.1548V29.1797H348.2V34.9326C348.2 37.4007 349.226 38.6408 351.282 38.6408C353.005 38.6408 354.4 38.2294 355.449 37.4127V29.1797H359.645V48.2568H355.449Z" fill="currentColor"></path><path d="M363.432 48.2568V29.1797H367.628V36.7271H375.365V29.1797H379.562V48.2568H375.365V40.5962H367.628V48.2568H363.432Z" fill="currentColor"></path><path d="M399.782 29.1797V48.2568H395.639V35.7494L387.3 48.2568H383.348V29.1797H387.49V41.6871L395.883 29.1797H399.782Z" fill="currentColor"></path><path d="M420.001 29.1799V48.2571H415.858V35.7496L407.518 48.2571H403.572V29.1799H407.715V41.6874L416.108 29.1799H420.001ZM414.946 26.6462C414.135 27.3735 413.104 27.7372 411.852 27.7372C410.6 27.7372 409.569 27.3735 408.758 26.6462C407.948 25.9189 407.453 24.8995 407.274 23.5939L409.7 23.1587C410.082 24.3749 410.797 24.9829 411.852 24.9829C412.907 24.9829 413.622 24.3749 414.004 23.1587L416.43 23.5939C416.251 24.9054 415.756 25.9249 414.946 26.6462Z" fill="currentColor"></path><path d="M43.6041 0.546387C24.8749 0.546387 8.56583 10.8361 0.00596091 26.0263L0.315928 26.0978C5.78805 27.3617 10.9919 29.6092 15.6712 32.7152V67.7635C11.7311 70.0766 7.5644 72.2228 3.23678 73.8443L0 75.0665C8.55987 90.2567 24.8689 100.546 43.5981 100.546C71.1912 100.546 93.5804 78.1605 93.5804 50.5106C93.5863 22.9322 71.2031 0.546387 43.6041 0.546387ZM15.713 32.7391L15.7249 32.751H15.7189H15.713V32.7391ZM43.6041 83.4425C31.2948 83.4425 21.1374 77.32 15.7845 67.8708C20.1717 63.4652 22.9078 57.2055 22.9078 50.2602C22.9078 43.315 20.2433 37.2162 15.9633 32.8285L15.7666 32.6616C18.5802 27.6836 22.4488 23.9397 27.146 21.4359C31.867 18.9201 37.4286 17.6562 43.5981 17.6562C61.7074 17.6562 76.4666 32.4171 76.4666 50.5166C76.4666 68.6876 61.7133 83.4425 43.6041 83.4425Z" fill="currentColor"></path></g><defs><clipPath id="clip0_4126_11933"><rect width="420" height="100" fill="currentColor" transform="translate(0 0.546387)"></rect></clipPath><linearGradient id="mesh-gradient-1" x1="0" y1="0" x2="1" y2="1"><stop offset="0%" stop-color="#E1F4FB"><animate attributeName="stop-color" values="#E1F4FB; #5AA5BD; #E1F4FB" dur="4s" repeatCount="indefinite" calcMode="spline" keySplines="0.4 0 0.6 1; 0.4 0 0.6 1" keyTimes="0; 0.5; 1"></animate></stop><stop offset="100%" stop-color="#5AA5BD"><animate attributeName="stop-color" values="#5AA5BD; #E1F4FB; #5AA5BD" dur="4s" repeatCount="indefinite" calcMode="spline" keySplines="0.4 0 0.6 1; 0.4 0 0.6 1" keyTimes="0; 0.5; 1"></animate></stop></linearGradient></defs></svg>