<svg width="90" height="61" viewBox="0 0 90 61" fill="none" xmlns="http://www.w3.org/2000/svg">
<g clip-path="url(#clip0_3837_20356)">
<circle cx="38" cy="30.7644" r="29" fill="#E0F2FE"/>
<g clip-path="url(#clip1_3837_20356)">
<path d="M15.5198 69.7526C15.4559 69.7526 15.3708 69.732 15.307 69.7115C15.0091 69.5883 14.8389 69.2599 14.9665 68.9724C14.9878 68.9109 17.4985 62.6288 18.2007 61.0069C18.5198 60.2473 18.9879 59.4878 19.3709 58.8103C19.7114 58.2149 20.0518 57.6606 20.222 57.25C21.1369 54.4375 21.8178 52.3229 21.9667 51.0295C22.137 49.7362 22.4348 48.2375 22.7114 46.9031L22.9242 45.8561C23.2221 44.3369 23.9455 42.0786 24.6264 40.9289C24.8604 40.5389 25.1158 39.5945 25.3711 38.6912C25.5839 37.9111 25.7966 37.131 26.0307 36.5356L26.1371 36.3303C27.3286 33.8462 27.818 32.3476 27.6052 31.8343C27.4137 31.3827 26.9243 31.1363 26.6477 31.0337C26.0094 30.7873 25.2221 30.7668 24.754 30.9926C24.3923 31.1568 23.371 31.8754 21.5199 35.0164C21.371 35.2628 20.9667 36.3508 20.5837 37.3157C20.0731 38.6502 19.4986 40.1488 19.1156 40.8468C18.8815 41.278 18.6262 41.9144 18.3496 42.5303C17.4985 44.5422 17.1794 45.2402 16.5411 45.2402C15.541 45.2402 15.1155 44.9322 13.3069 43.2488C13.1793 43.1256 13.1154 42.9409 13.1367 42.7766C13.2644 41.6064 13.5835 40.6621 13.8176 39.9025C14.0303 39.266 14.2006 38.7323 14.1155 38.4654C14.0303 38.178 14.2006 37.87 14.4984 37.7674C16.4772 37.1515 17.8602 34.2363 18.456 32.984C18.7326 32.4091 18.8177 32.2244 19.0092 32.0807C19.073 32.0191 19.1581 31.9986 19.2645 31.978C20.8816 31.6701 23.5412 28.4264 24.4349 27.1946C24.4774 27.133 24.52 27.092 24.5838 27.0509C25.6477 26.3324 28.4563 24.0741 28.7754 22.3907C28.9456 21.4463 28.1158 20.4404 27.669 20.0298C27.435 20.2351 27.0945 20.5635 26.7328 20.8715C24.6477 22.8013 20.7752 26.4145 17.0092 27.8105C16.0517 28.1595 15.3283 29.3092 14.9027 29.9866C14.7538 30.233 14.6261 30.4178 14.541 30.5204C14.3495 30.7462 14.1367 31.0131 13.8814 31.3211C12.9452 32.5118 11.5622 34.2979 8.58339 36.6793L8.41317 36.823C7.51953 37.5416 6.58334 38.2601 5.85991 38.4859C5.54075 38.5886 3.88113 39.2045 3.34921 40.3746C3.05132 41.0111 3.28537 42.2223 3.51942 43.3925C3.75347 44.6448 4.0088 45.9177 3.75347 47.0057C3.49815 48.1349 4.71094 57.7222 5.11521 59.2209C5.75353 61.4997 3.73219 66.7963 3.49815 67.3917C3.39176 67.6996 3.03005 67.8433 2.73217 67.7201C2.41301 67.6175 2.26407 67.2685 2.39173 66.9811C2.98749 65.4619 4.43434 61.1301 3.96624 59.5083C3.5407 57.9686 2.26407 48.1759 2.58323 46.7594C2.77472 45.9177 2.54067 44.7475 2.3279 43.5978C2.0513 42.2018 1.79597 40.8674 2.24279 39.9025C2.96622 38.3422 4.88116 37.5826 5.43437 37.3978C6.00885 37.1926 7.05143 36.3714 7.60464 35.9197L7.77486 35.776C10.6473 33.4972 11.9877 31.7727 12.8814 30.6231C13.1367 30.2741 13.3708 30.0072 13.5835 29.7608C13.6474 29.6992 13.7325 29.5555 13.8389 29.3708C14.307 28.6112 15.2006 27.2151 16.5198 26.7224C20.0518 25.4085 23.8179 21.9185 25.8392 20.0298C27.2222 18.7569 27.4137 18.5516 27.8818 18.7775C28.4776 19.0649 30.201 20.7688 29.8818 22.5754C29.4563 24.8953 25.903 27.482 25.286 27.9132C24.754 28.6522 21.9455 32.3476 19.6901 33.025C19.6475 33.1277 19.5624 33.2714 19.4986 33.4562C18.839 34.8727 17.4985 37.7058 15.2644 38.6912C15.2431 39.1429 15.0729 39.6561 14.8814 40.2515C14.6687 40.9084 14.4133 41.6885 14.2857 42.6329C15.6261 43.8852 15.9453 44.07 16.2645 44.111C16.4985 43.762 16.9028 42.7971 17.2006 42.1197C17.4773 41.4832 17.7539 40.8058 17.9879 40.3336C18.3283 39.6766 18.9028 38.219 19.3922 36.9051C19.9028 35.5707 20.222 34.7495 20.4135 34.4416C21.8816 31.937 23.1583 30.4178 24.1583 29.9661C24.9243 29.6171 26.0307 29.6171 26.9881 29.9866C27.7754 30.2946 28.3499 30.8078 28.6052 31.4237C29.0095 32.4297 28.3073 34.3184 27.1158 36.823L27.0307 37.0078C26.8392 37.5005 26.6264 38.2601 26.4137 38.9992C26.1371 40.0256 25.8817 40.9905 25.5626 41.5243C25.0094 42.4481 24.3072 44.5011 23.9881 46.0819L23.7753 47.1289C23.4987 48.4428 23.2008 49.9209 23.0519 51.1732C22.8817 52.5898 22.2221 54.6427 21.2433 57.6401C21.0305 58.1739 20.6901 58.7692 20.3071 59.4056C19.9028 60.0831 19.4986 60.7811 19.2007 61.4791C18.4986 63.0804 15.9878 69.342 15.9666 69.4036C15.9878 69.6089 15.7751 69.7526 15.5198 69.7526Z" fill="#1E697A"/>
<path d="M26.8179 36.0635C26.7541 36.0635 26.669 36.043 26.6052 36.0224C26.286 35.8992 25.7754 35.7966 25.2647 35.6734C23.9668 35.386 23.1583 35.1807 22.8178 34.7291C22.0093 33.7231 23.6689 30.7668 24.2009 30.0072C24.3923 29.7404 24.7541 29.6788 25.0307 29.8635C25.3073 30.0483 25.3711 30.3973 25.1796 30.6642C24.3923 31.7728 23.6689 33.6615 23.7966 34.0721C23.9455 34.1953 24.9456 34.4211 25.5413 34.5443C26.1158 34.6675 26.6477 34.7906 27.052 34.9344C27.3499 35.0575 27.5201 35.386 27.3924 35.6734C27.286 35.9403 27.0733 36.0635 26.8179 36.0635Z" fill="#1E697A"/>
<path d="M16.9245 44.6655C16.8607 44.6655 16.7756 44.645 16.7118 44.6244C16.4139 44.5012 16.2437 44.1728 16.3713 43.8854C16.4777 43.639 16.4777 43.5979 15.9032 43.1052C15.2436 42.5304 14.2436 41.6682 14.0521 39.6768C14.0308 39.3688 14.2649 39.0814 14.5841 39.0404C14.9032 39.0198 15.2011 39.2457 15.2436 39.5536C15.3926 41.0933 16.0947 41.7092 16.7118 42.243C17.2437 42.6946 17.9033 43.29 17.4777 44.2959C17.3926 44.5218 17.1586 44.6655 16.9245 44.6655Z" fill="#1E697A"/>
<path d="M25.8399 23.7662C25.3931 23.7662 24.9037 23.5199 24.3292 23.2119L24.0526 23.0682C23.7548 22.9245 23.6484 22.5755 23.7973 22.2881C23.9462 22.0007 24.308 21.898 24.6058 22.0417C24.6909 22.0828 24.7973 22.1444 24.925 22.206C25.159 22.3292 25.6697 22.6166 25.8612 22.6166C26.2655 22.5755 27.3506 21.4258 28.1804 20.1325C28.3506 19.8656 28.7123 19.7835 29.0102 19.9477C29.2868 20.112 29.3719 20.461 29.2017 20.7484C28.7762 21.4258 27.2442 23.6636 25.9676 23.7868C25.9037 23.7662 25.8825 23.7662 25.8399 23.7662Z" fill="#1E697A"/>
<path d="M17.2424 37.3157C17.0935 37.3157 16.9658 37.2747 16.8381 37.172C16.6041 36.9667 16.5828 36.5972 16.7956 36.3509C17.3062 35.7966 18.7531 35.0164 20.4765 35.9403C20.7744 36.084 20.8595 36.4535 20.7106 36.7204C20.5616 37.0078 20.1999 37.1105 19.902 36.9462C18.5616 36.2277 17.7105 37.0899 17.6892 37.131C17.5828 37.2542 17.4126 37.3157 17.2424 37.3157Z" fill="#1E697A"/>
<path d="M25.0304 50.578C24.7751 50.578 24.4985 50.5574 24.2644 50.4958C23.6687 50.3727 23.0942 50.0442 22.5623 49.5309C22.3282 49.3051 22.3282 48.9356 22.5623 48.7098C22.7963 48.4839 23.1793 48.4839 23.4133 48.7098C23.7963 49.0793 24.158 49.3051 24.5198 49.3667C25.1155 49.4899 25.69 49.3872 25.8815 49.2025C25.7538 48.2581 25.3283 47.4164 25.1793 47.1495C25.1368 47.0469 25.0942 46.9853 25.0942 46.9647C24.924 46.472 24.7751 45.9998 24.6261 45.5482C24.3495 44.6449 24.0517 43.7005 23.8176 43.3926C23.6261 43.1462 23.6899 42.7767 23.9453 42.5919C24.2219 42.4072 24.5836 42.4688 24.7751 42.7151C25.1368 43.1873 25.4134 44.0701 25.7538 45.1992C25.9028 45.6508 26.0304 46.123 26.2007 46.5952C26.3921 46.9442 26.8602 47.8886 27.0517 48.8945C27.1368 49.3257 27.0092 49.7157 26.69 50.0237C26.307 50.4137 25.6687 50.578 25.0304 50.578Z" fill="#1E697A"/>
<path d="M29.1371 45.5277C26.754 45.5277 24.1795 43.7621 24.0518 43.68C23.7752 43.4952 23.7327 43.1257 23.9241 42.8793C24.1156 42.6125 24.4774 42.5509 24.754 42.7562C24.7752 42.7767 27.7753 44.8297 29.8605 44.3164C30.6265 44.1317 31.2222 43.7005 31.3073 43.4131C31.3073 43.3721 31.3286 43.331 31.2222 43.2284C30.4137 42.4072 29.3711 41.7913 28.9668 41.5449C28.8605 41.4833 28.7753 41.4217 28.7541 41.4217C27.0306 40.0873 26.6051 39.8204 25.8391 39.492C25.5412 39.3688 25.3923 39.0198 25.5199 38.7324C25.6476 38.4449 26.0093 38.3012 26.3072 38.4244C27.2434 38.8145 27.754 39.143 29.4988 40.5184L29.5839 40.5595C30.0094 40.8264 31.1584 41.5039 32.0733 42.4277C32.435 42.7972 32.5627 43.2694 32.435 43.7211C32.1797 44.5628 31.1158 45.1787 30.1584 45.425C29.8179 45.5071 29.4988 45.5277 29.1371 45.5277Z" fill="#1E697A"/>
<path d="M73.5423 63.1216C73.3508 63.1216 73.1593 63.0189 73.0316 62.8547C70.2018 58.5434 64.7548 50.2905 64.3718 49.7978C64.1803 49.5515 63.5207 49.1614 62.9888 48.8329C62.3718 48.4634 61.776 48.0939 61.4356 47.7449C60.9462 47.2111 60.1802 45.9793 59.1376 43.9469L58.9887 43.6594C58.1802 42.0581 56.3503 37.1516 56.2865 36.9463C56.2652 36.9052 56.2652 36.8436 56.2439 36.8025C56.2014 36.2072 55.9673 34.5032 55.4992 33.7847C54.8822 32.8198 52.7545 30.4384 52.3715 30.192L52.2438 30.1099C51.8396 29.8841 51.2651 29.5761 50.648 28.8165C50.0097 28.0569 48.2012 25.696 48.1161 25.5934C48.031 25.4907 46.9033 24.2589 46.8607 22.945C46.8394 22.4113 47.0735 21.898 47.5203 21.4464C48.1586 20.81 49.2225 20.3378 49.9885 20.3378C50.9672 20.3378 52.6055 21.7543 53.2651 22.3702C53.3077 22.3907 55.478 23.951 56.2439 24.8132C56.6057 25.2033 56.8823 25.6755 57.1589 26.1477C57.4993 26.7225 57.8185 27.2563 58.2227 27.5642C58.7972 28.0159 62.3079 29.3708 64.3931 30.1099C64.691 30.2125 64.8612 30.5615 64.7335 30.8489C64.6271 31.1569 64.2654 31.3006 63.9676 31.1774C63.0314 30.8489 58.3717 29.145 57.478 28.447C56.9035 27.9953 56.4993 27.3384 56.1376 26.702C55.8822 26.2708 55.6482 25.8602 55.3716 25.5523C54.7971 24.9159 53.1162 23.6636 52.5204 23.2324C51.4991 22.2881 50.3502 21.4874 50.0097 21.4669C49.6693 21.4669 48.9033 21.7338 48.4139 22.2265C48.265 22.3907 48.0735 22.6371 48.0735 22.8834C48.0948 23.643 48.7969 24.5669 49.0735 24.8543C49.1161 24.9159 50.9885 27.3384 51.6055 28.0774C52.0949 28.6523 52.4992 28.8986 52.8821 29.1039L53.0311 29.186C53.6056 29.5145 55.9248 32.1834 56.5631 33.1688C57.2227 34.1748 57.4355 36.1661 57.478 36.6178C57.7121 37.2337 59.3717 41.6886 60.0526 43.0436L60.2441 43.4131C61.4781 45.7945 62.0739 46.6568 62.3718 46.9442C62.6058 47.1905 63.1803 47.5396 63.6697 47.8475C64.3718 48.2786 65.0527 48.6892 65.3719 49.0998C65.8612 49.7362 73.7338 61.705 74.0742 62.2183C74.2444 62.4851 74.1593 62.8341 73.8827 63.0189C73.7763 63.101 73.6699 63.1216 73.5423 63.1216Z" fill="#1E697A"/>
<path d="M36.0947 32.984H35.9883C34.3287 32.676 34.1585 32.2655 34.0734 32.1012C33.4563 30.6231 33.7117 29.3708 34.7543 28.7754C35.0096 28.6317 35.2862 28.488 35.5841 28.3648C35.8819 28.2416 36.2437 28.3648 36.3713 28.6522C36.499 28.9397 36.3713 29.2887 36.0734 29.4118C35.8394 29.5145 35.6053 29.6377 35.3713 29.7608C34.7117 30.1304 34.9245 31.0131 35.1372 31.5674C35.3287 31.6496 35.7968 31.7933 36.2011 31.8549C36.5203 31.9165 36.733 32.2244 36.6692 32.5323C36.6266 32.7992 36.3926 32.984 36.0947 32.984Z" fill="#1E697A"/>
<path d="M79.4142 47.7859C79.2227 47.7859 79.0525 47.7038 78.9248 47.56C78.8184 47.4163 76.4354 44.2958 75.9035 42.366C74.1587 36.7409 71.6055 29.2271 71.5842 29.145C71.2863 27.9748 70.4778 24.8953 70.265 24.3821C70.0735 23.8894 69.1586 23.3351 68.7118 23.1708C68.6054 23.1298 68.3288 23.1298 68.0522 23.1092C67.4352 23.0887 66.6053 23.0476 65.6266 22.7397C64.9244 22.5139 62.6265 21.898 60.3286 21.3437C60.0094 21.2616 59.8179 20.9536 59.903 20.6457C59.9881 20.3377 60.286 20.153 60.6265 20.2351C62.7542 20.7483 65.1798 21.3847 66.0096 21.6516C66.8181 21.9185 67.5203 21.939 68.0947 21.9596C68.5203 21.9801 68.8394 21.9801 69.1373 22.0828C69.5841 22.247 70.9672 22.9655 71.3714 23.9715C71.6268 24.649 72.6055 28.4059 72.7119 28.8165C72.7332 28.8575 75.3077 36.3714 77.0524 42.0376C77.5205 43.7621 79.861 46.821 79.8823 46.862C80.0738 47.1084 80.0312 47.4779 79.7546 47.6627C79.6695 47.7448 79.5419 47.7859 79.4142 47.7859Z" fill="#1E697A"/>
<path d="M61.9052 29.7609L60.9902 29.0218C60.9902 29.0218 62.352 27.4615 63.0754 26.5582C63.5648 25.9834 64.2031 25.6139 64.735 25.3059C65.0755 25.1212 65.3946 24.9364 65.5223 24.7722C65.735 24.5258 66.0968 24.4847 66.3521 24.69C66.6074 24.8953 66.65 25.2443 66.4372 25.4907C66.1606 25.8192 65.7563 26.045 65.3095 26.2914C64.8201 26.5582 64.3308 26.8457 63.9903 27.2562C63.2669 28.1801 61.9052 29.7609 61.9052 29.7609Z" fill="#1E697A"/>
<path d="M49.7545 25.7986C49.3715 25.7986 48.9885 25.696 48.7119 25.4702C48.7119 25.4702 47.6693 24.8132 47.031 23.8278C46.8608 23.5609 46.9459 23.2119 47.2225 23.0271C47.4991 22.8629 47.8608 22.945 48.0523 23.2119C48.5417 23.9715 49.414 24.5258 49.4353 24.5463C49.6055 24.6695 49.946 24.649 50.0524 24.5874L51.2652 23.5814C51.3503 23.4993 51.3928 23.294 51.3503 23.2119C51.2226 22.8424 50.8396 22.0006 50.3077 21.5695C50.0524 21.3642 50.0098 21.0152 50.2226 20.7689C50.4353 20.5225 50.7971 20.4814 51.0524 20.6867C51.946 21.3848 52.3928 22.6371 52.4354 22.7808C52.6907 23.2735 52.5205 24.0536 52.0099 24.4642L50.7971 25.4702C50.5417 25.6754 50.1375 25.7986 49.7545 25.7986Z" fill="#1E697A"/>
<path d="M60.5006 26.8457C60.4155 26.8457 60.3304 26.8252 60.2453 26.7841C59.9474 26.6404 59.8197 26.2914 59.9687 26.0245L61.373 23.253C61.5219 22.9656 61.8836 22.8424 62.1602 22.9861C62.4581 23.1298 62.5857 23.4788 62.4368 23.7457L61.0325 26.5172C60.9261 26.7225 60.7134 26.8457 60.5006 26.8457Z" fill="#1E697A"/>
<path d="M56.839 49.9005H39.6045C37.6683 49.9005 36.0938 48.3813 36.0938 46.5131V6.1518C36.0938 4.2836 37.6683 2.7644 39.6045 2.7644H56.839C58.7752 2.7644 60.3497 4.2836 60.3497 6.1518V28.139C60.3497 28.447 60.0731 28.7139 59.754 28.7139C59.4348 28.7139 59.1582 28.447 59.1582 28.139V6.1518C59.1582 4.92002 58.1156 3.91406 56.839 3.91406H39.6045C38.3279 3.91406 37.2853 4.92002 37.2853 6.1518V46.5131C37.2853 47.7449 38.3279 48.7508 39.6045 48.7508H56.839C58.1156 48.7508 59.1582 47.7449 59.1582 46.5131V43.7621C59.1582 43.4542 59.4348 43.1873 59.754 43.1873C60.0731 43.1873 60.3497 43.4542 60.3497 43.7621V46.5131C60.3284 48.3813 58.7752 49.9005 56.839 49.9005Z" fill="#1E697A"/>
<path d="M36.4576 37.5827C36.4151 37.5827 36.3725 37.5827 36.33 37.5622C34.798 37.2543 34.6278 36.8231 34.564 36.6589C33.9895 35.1602 34.2235 33.9695 35.181 33.3536C35.4151 33.2099 35.6704 33.0662 35.9257 32.943C36.2236 32.7993 36.5853 32.9225 36.713 33.2099C36.8619 33.4973 36.7342 33.8463 36.4364 33.9695C36.2236 34.0722 36.0108 34.1748 35.8193 34.298C35.2236 34.688 35.4576 35.6324 35.6278 36.1251C35.798 36.2072 36.2023 36.3304 36.564 36.4125C36.8832 36.4741 37.096 36.7821 37.0321 37.09C36.9683 37.398 36.7342 37.5827 36.4576 37.5827Z" fill="#1E697A"/>
<path d="M50.5415 8.04053H45.2648C44.4563 8.04053 43.7754 7.40411 43.7754 6.60345V5.57697C43.7754 4.79684 44.435 4.13989 45.2648 4.13989H50.5415C51.3501 4.13989 52.0309 4.77631 52.0309 5.57697V6.60345C52.0309 7.40411 51.3713 8.04053 50.5415 8.04053ZM45.2861 5.31008C45.1371 5.31008 44.9882 5.43326 44.9882 5.5975V6.62398C44.9882 6.76769 45.1159 6.91139 45.2861 6.91139H50.5415C50.6905 6.91139 50.8394 6.78822 50.8394 6.62398V5.5975C50.8394 5.45379 50.7118 5.31008 50.5415 5.31008H45.2861Z" fill="#1E697A"/>
<path d="M56.7552 48.5866H39.6909C38.4569 48.5866 37.4355 47.6217 37.4355 46.4105V6.27502C37.4355 5.0843 38.4356 4.09888 39.6909 4.09888H56.7552C57.9893 4.09888 59.0106 5.06377 59.0106 6.27502V28.2623C59.0106 28.5702 58.734 28.8371 58.4148 28.8371C58.0957 28.8371 57.8191 28.5702 57.8191 28.2623V6.27502C57.8191 5.72072 57.351 5.24854 56.7552 5.24854H39.6909C39.1164 5.24854 38.6271 5.70019 38.6271 6.27502V46.4105C38.6271 46.9648 39.0952 47.437 39.6909 47.437H56.7552C57.3297 47.437 57.8191 46.9853 57.8191 46.4105V40.8469C57.8191 40.539 58.0957 40.2721 58.4148 40.2721C58.734 40.2721 59.0106 40.539 59.0106 40.8469V46.431C58.9893 47.6217 57.9893 48.5866 56.7552 48.5866Z" fill="#1E697A"/>
</g>
</g>
<defs>
<clipPath id="clip0_3837_20356">
<rect width="90" height="60" fill="white" transform="translate(0 0.764404)"/>
</clipPath>
<clipPath id="clip1_3837_20356">
<rect width="78" height="66.9882" fill="white" transform="translate(2 2.7644)"/>
</clipPath>
</defs>
</svg>
