<svg width="90" height="61" viewBox="0 0 90 61" fill="none" xmlns="http://www.w3.org/2000/svg">
<g clip-path="url(#clip0_2727_5290)">
<circle cx="44.5" cy="31.2644" r="30.5" fill="#E0F2FE"/>
<path d="M34.2553 36.7184C33.0623 32.8037 29.2054 30.0757 24.8745 30.0757C22.0309 30.0757 19.318 31.247 17.4549 33.2969L16.7031 32.6958C18.746 30.4456 21.7204 29.1664 24.8582 29.1664C29.614 29.1664 33.8631 32.1718 35.1869 36.4718L34.2553 36.7184Z" fill="#1E697A"/>
<path d="M45.9572 47.0445H44.9766C44.9766 41.6502 40.3026 37.2115 34.5499 37.2115C28.7972 37.2115 24.1231 41.6502 24.1231 47.0445H23.1426C23.1426 41.0337 28.2579 36.2867 34.5499 36.2867C40.8419 36.2867 45.9572 41.0337 45.9572 47.0445Z" fill="#1E697A"/>
<path d="M43.9641 47.0449H42.9835C42.9835 42.5754 39.1756 39.046 34.5016 39.046C29.8275 39.046 26.0196 42.5754 26.0196 47.0449H25.0391C25.0391 42.113 29.2882 38.1212 34.5016 38.1212C39.7149 38.1212 43.9641 42.113 43.9641 47.0449Z" fill="#1E697A"/>
<path d="M34.4512 47.9694C34.1734 47.9694 33.9609 47.769 33.9609 47.507V39.0302C33.9609 38.7682 34.1734 38.5679 34.4512 38.5679C34.7291 38.5679 34.9415 38.7682 34.9415 39.0302V47.507C34.9415 47.769 34.7127 47.9694 34.4512 47.9694Z" fill="#1E697A"/>
<path d="M34.2226 47.7688C34.0918 47.7688 33.9774 47.7225 33.8794 47.6301L27.7018 41.8042C27.5057 41.6193 27.5057 41.3264 27.7018 41.1569C27.8979 40.972 28.2084 40.972 28.3882 41.1569L34.5658 46.9827C34.7619 47.1677 34.7619 47.4605 34.5658 47.6301C34.4841 47.7225 34.3533 47.7688 34.2226 47.7688Z" fill="#1E697A"/>
<path d="M34.6973 47.9231C34.5666 47.9231 34.4522 47.8769 34.3541 47.7844C34.158 47.5995 34.158 47.3066 34.3541 47.1371L40.7605 41.0955C40.9566 40.9106 41.2671 40.9106 41.4469 41.0955C41.643 41.2804 41.643 41.5733 41.4469 41.7428L35.0405 47.7844C34.9425 47.8769 34.8117 47.9231 34.6973 47.9231Z" fill="#1E697A"/>
<path d="M19.2688 45.5034L18.7949 44.6865C20.8704 43.6077 20.6253 39.2614 18.2556 35.1925C16.2291 31.694 11.5877 30.2144 10.1495 29.8137C9.77364 31.0158 8.80941 34.7302 10.0351 37.9822L9.11993 38.2904C7.50199 34.0366 9.28335 29.2896 9.36507 29.0893L9.51215 28.704L9.93707 28.7965C10.1986 28.8581 16.5069 30.2298 19.1217 34.7302C21.8347 39.4155 21.9 44.1471 19.2688 45.5034Z" fill="#1E697A"/>
<path d="M8.13996 47.7693C3.41689 45.2262 2.06043 39.2617 2.0114 38.9997L1.92969 38.599L2.33826 38.4603C2.59974 38.3832 8.72831 36.4567 13.4514 38.9997C17.9457 41.4194 20.6259 45.0105 19.7924 47.5227L18.8609 47.2453C19.5309 45.2108 16.9488 41.9434 12.9774 39.8011C9.31665 37.8283 4.5282 38.8456 3.09003 39.2155C3.48226 40.5717 4.9858 44.9796 8.64659 46.9524L8.13996 47.7693Z" fill="#1E697A"/>
<path d="M53.0997 41.7733C53.4698 41.7733 53.7698 41.4904 53.7698 41.1414C53.7698 40.7924 53.4698 40.5095 53.0997 40.5095C52.7297 40.5095 52.4297 40.7924 52.4297 41.1414C52.4297 41.4904 52.7297 41.7733 53.0997 41.7733Z" fill="#1E697A"/>
<path d="M49.8966 42.6672C50.2667 42.6672 50.5667 42.3843 50.5667 42.0353C50.5667 41.6864 50.2667 41.4034 49.8966 41.4034C49.5266 41.4034 49.2266 41.6864 49.2266 42.0353C49.2266 42.3843 49.5266 42.6672 49.8966 42.6672Z" fill="#1E697A"/>
<path d="M51.5958 44.7943C51.9659 44.7943 52.2659 44.5114 52.2659 44.1624C52.2659 43.8134 51.9659 43.5305 51.5958 43.5305C51.2258 43.5305 50.9258 43.8134 50.9258 44.1624C50.9258 44.5114 51.2258 44.7943 51.5958 44.7943Z" fill="#1E697A"/>
<path d="M53.9826 46.3356C54.3526 46.3356 54.6526 46.0527 54.6526 45.7037C54.6526 45.3547 54.3526 45.0718 53.9826 45.0718C53.6125 45.0718 53.3125 45.3547 53.3125 45.7037C53.3125 46.0527 53.6125 46.3356 53.9826 46.3356Z" fill="#1E697A"/>
<path d="M48.5568 45.3801C48.9268 45.3801 49.2268 45.0972 49.2268 44.7482C49.2268 44.3992 48.9268 44.1163 48.5568 44.1163C48.1867 44.1163 47.8867 44.3992 47.8867 44.7482C47.8867 45.0972 48.1867 45.3801 48.5568 45.3801Z" fill="#1E697A"/>
<path d="M18.3552 47.9077C18.2735 47.9077 18.1918 47.8923 18.11 47.8461L7.11131 41.8815C6.88251 41.7582 6.80079 41.4654 6.93154 41.2496C7.06228 41.0338 7.37279 40.9568 7.60159 41.0801L18.6003 47.0446C18.8291 47.1679 18.9108 47.4608 18.7801 47.6765C18.682 47.8152 18.5186 47.9077 18.3552 47.9077Z" fill="#1E697A"/>
<path d="M58.7537 58.3111H35.4489C23.682 58.3111 13.8763 54.6892 7.86215 48.0928L6.86523 47.0139H87.3047L86.6346 47.7691C83.5622 51.2523 79.4601 53.934 74.4429 55.7527C69.7525 57.448 64.4737 58.3111 58.7537 58.3111ZM9.02249 47.9387C14.8896 54.0419 24.2377 57.3864 35.4489 57.3864H58.7537C69.9649 57.3864 79.2967 54.0419 85.1801 47.9387H9.02249Z" fill="#1E697A"/>
<path d="M61.7118 60.5919H31.7227V57.3245H61.7118V60.5919ZM32.7032 59.6671H60.7312V58.2492H32.7032V59.6671Z" fill="#1E697A"/>
<path d="M78.7092 49.2896L40.1074 49.2324L40.1055 50.1572L78.7073 50.2143L78.7092 49.2896Z" fill="#1E697A"/>
<path d="M18.9114 44.9026C18.748 44.9026 18.5846 44.8255 18.4865 44.6868L12.4723 35.4086C12.3252 35.1929 12.407 34.9 12.6358 34.7767C12.8646 34.638 13.1751 34.7151 13.3058 34.9308L19.32 44.209C19.4671 44.4248 19.3854 44.7176 19.1566 44.8409C19.0748 44.8872 18.9931 44.9026 18.9114 44.9026Z" fill="#1E697A"/>
<path d="M47.5605 40.8492C47.25 40.8492 46.9395 40.7722 46.6616 40.6181C46.4982 40.5256 46.3348 40.4331 45.485 38.1829C44.9456 36.7804 44.2756 34.9001 43.5402 32.727C43.3114 32.0334 42.6576 30.0915 42.4288 29.3825C42.2 28.6581 41.9712 28.057 41.7588 27.4868C41.4646 26.7008 41.1868 25.961 40.958 25.0825C40.8272 24.5739 40.5821 24.0653 40.3533 23.6029C40.0918 23.0635 39.8794 22.6319 39.8794 22.2466C39.8467 20.7362 41.579 16.652 41.8078 16.1588C41.9549 15.8505 42.0693 15.496 42.2 15.1261C42.3798 14.5867 42.5759 14.0165 42.8538 13.5695C43.0989 13.1688 43.8343 12.3365 44.6188 11.4426C45.3215 10.6412 46.0406 9.80891 46.3838 9.36195C46.7924 8.7917 47.0702 8.02108 47.348 7.21965C47.822 5.87878 48.3613 4.36837 49.7014 3.38199C50.9108 2.50349 53.6891 2.3956 58.7553 3.02751C62.5305 3.50529 64.5897 3.50529 66.5182 3.35116C67.1719 3.30493 67.989 3.25869 68.8716 3.19704C70.8654 3.08915 73.1207 2.95044 74.3954 2.71926C76.9776 2.25689 79.7069 0.808137 79.7232 0.792725L80.2135 1.59416C80.0991 1.65581 77.3045 3.13539 74.5752 3.62858C73.2514 3.85977 70.9471 3.99848 68.9206 4.12178C68.0544 4.16801 67.2373 4.21425 66.5999 4.2759C64.6061 4.43002 62.4815 4.44544 58.6246 3.95224C56.9249 3.73647 51.7279 3.08915 50.3061 4.12178C49.2111 4.92322 48.7372 6.24867 48.2796 7.51248C47.9691 8.39098 47.6749 9.20783 47.1846 9.88597C46.8251 10.3792 46.0896 11.2268 45.3706 12.0437C44.6515 12.8605 43.8997 13.7236 43.6872 14.0473C43.4584 14.4172 43.295 14.9258 43.1152 15.419C42.9845 15.8043 42.8538 16.205 42.6903 16.5595C42.2981 17.3763 40.8109 21.0753 40.8436 22.2466C40.8436 22.4316 41.0397 22.8477 41.2358 23.2484C41.481 23.7416 41.7424 24.2965 41.8895 24.8975C42.102 25.7144 42.3635 26.4079 42.6576 27.2094C42.8864 27.795 43.1152 28.4115 43.344 29.1513C43.5728 29.8603 44.2102 31.7868 44.4554 32.4804C46.0733 37.2428 46.9722 39.4775 47.2173 39.8937C47.5278 40.0324 47.8874 39.9707 48.3123 39.6933C49.1621 39.1539 49.7177 38.1367 49.6687 37.8901C49.636 37.7976 49.538 37.6281 49.4563 37.4585C49.1621 36.8729 48.966 36.4567 49.015 36.1177C49.015 35.8402 49.1621 35.3779 49.3582 34.8076C49.538 34.1603 49.6524 33.8212 49.7178 33.6671C49.6851 31.9718 49.3746 29.1205 48.6391 28.3961L48.4594 28.2266L48.5084 27.9954C48.5247 27.9029 48.5737 27.8105 48.6064 27.7026C48.8189 27.1785 49.3255 25.9456 48.1325 22.8631L48.0181 22.5549L48.2796 22.3391C48.3123 22.3083 51.4337 19.5803 51.0088 15.9738L50.9271 15.234L51.6789 15.496C53.2151 16.0355 54.2611 14.8641 54.8821 13.8007C55.0455 13.5233 55.3397 13.3383 55.6829 13.3229C56.0261 13.3075 56.3366 13.4616 56.5327 13.7236C58.0526 15.8813 59.8667 18.6864 59.932 19.8885C60.0137 21.6301 58.1997 24.7896 57.1537 26.0689C56.5654 26.7932 55.4051 27.7488 54.3755 28.5811C53.64 29.1821 52.7902 29.8757 52.6268 30.1377C52.2672 30.708 50.9271 33.4822 50.3061 35.0696C50.2244 35.3625 50.1263 35.717 50.0119 36.1485C50.159 36.5955 50.7964 38.26 52.0221 38.1675C53.1007 38.0904 55.8463 35.6861 56.9903 34.3915L57.0067 34.3761C57.5133 33.8521 58.118 33.3743 58.69 32.9273C59.36 32.4033 59.9811 31.8947 60.3243 31.4478C61.1577 30.3227 63.1025 28.5194 64.7532 27.3635C65.4232 26.9011 66.0933 26.2846 66.796 25.6373C67.6949 24.8205 68.6264 23.9574 69.607 23.3717C70.0809 23.0943 70.702 22.8323 71.4374 22.5549C72.9409 21.9538 74.9838 21.1369 76.8305 19.5032C77.2064 19.1333 77.5496 18.8559 77.9091 18.5477C78.4158 18.1315 78.9387 17.6846 79.6251 16.9602C80.524 16.0046 83.4657 14.3555 86.4891 12.7064C86.7343 12.5677 86.9467 12.4598 87.1102 12.3673L87.6004 13.1688C87.437 13.2613 87.2246 13.3691 86.9631 13.5079C85.2634 14.4326 81.2594 16.6057 80.3442 17.5767C79.6088 18.3473 79.0368 18.8251 78.5302 19.2412C78.187 19.5341 77.8438 19.8115 77.5006 20.1505L77.4842 20.166C75.5067 21.9075 73.3658 22.7706 71.7969 23.4025C71.1105 23.68 70.5222 23.9111 70.1136 24.1577C69.2148 24.6972 68.3159 25.514 67.4497 26.3C66.747 26.9474 66.0279 27.6101 65.3088 28.1033C63.7562 29.1976 61.8605 30.9237 61.1087 31.9718C60.7001 32.5266 60.0301 33.066 59.311 33.6363C58.7553 34.0678 58.1833 34.5302 57.7257 34.9926C56.8269 36.0098 53.7217 38.9689 52.0875 39.0922C51.4501 39.1385 50.9108 38.9227 50.4695 38.5836C50.208 39.1847 49.6851 39.832 49.1294 40.2636C48.6391 40.6489 48.0835 40.8492 47.5605 40.8492ZM49.587 27.9646C50.2244 28.8431 50.5022 30.6001 50.633 31.9409C51.205 30.7542 51.7279 29.7524 51.826 29.6137C52.0548 29.2438 52.7248 28.7044 53.7708 27.8413C54.7513 27.0398 55.879 26.1305 56.402 25.4678C57.4806 24.1423 59.0332 21.214 58.9678 19.8885C58.9351 19.1488 57.7094 16.9756 55.7483 14.2168C54.784 15.8659 53.4766 16.6674 52.0548 16.4824C52.1201 19.6419 49.9465 22.0463 49.1948 22.786C50.3715 25.9302 49.8485 27.3327 49.587 27.9646Z" fill="#1E697A"/>
<path d="M55.3402 36.549C54.8826 35.1002 53.2483 33.6515 52.8234 33.6515C52.2024 33.6515 50.7152 34.4683 50.1269 36.2253L49.1953 35.9325C49.8981 33.7593 51.7775 32.7113 52.8071 32.7113C53.8694 32.7113 55.7488 34.6378 56.2718 36.2561L55.3402 36.549Z" fill="#1E697A"/>
<path d="M47.9689 40.1708C47.9689 40.14 47.6747 37.227 45.0762 36.0865L45.4847 35.2543C48.6062 36.626 48.9167 39.9704 48.9331 40.1091L47.9689 40.1708L48.4591 40.14L47.9689 40.1708Z" fill="#1E697A"/>
<path d="M52.3486 18.5937C52.0871 18.5937 51.7929 18.5475 51.4824 18.4088L51.9073 17.5765C52.3649 17.7769 52.6918 17.6536 53.2475 17.4378C53.6397 17.2837 54.0646 17.0987 54.6039 17.0987C56.516 17.1141 58.0522 16.5901 58.0686 16.5747L58.4118 17.484C58.3464 17.5149 56.6958 18.1005 54.5876 18.1005C54.5876 18.1005 54.5876 18.1005 54.5712 18.1005C54.2607 18.1005 53.9502 18.193 53.6397 18.3163C53.2638 18.455 52.8389 18.5937 52.3486 18.5937Z" fill="#1E697A"/>
<path d="M71.4537 26.8857C71.3883 26.8857 71.3229 26.8857 71.2576 26.8703C69.9011 26.7007 68.5937 26.2075 68.1034 26.0072C68.038 25.9763 67.989 25.9609 67.9727 25.9609L68.0707 25.6989L68.2505 25.067C68.2995 25.0824 68.3485 25.0978 68.4793 25.1441C68.9369 25.3136 70.1626 25.7914 71.4047 25.9455C71.5191 25.9609 71.6825 25.9455 71.8296 25.7297C72.1564 25.2674 72.1401 24.2502 71.5681 23.3871L72.4016 22.9093C73.1207 24.0036 73.2187 25.4061 72.6467 26.2384C72.3525 26.6699 71.9276 26.8857 71.4537 26.8857Z" fill="#1E697A"/>
<path d="M58.8039 23.464C58.2156 23.4178 53.1003 22.8938 51.8092 21.2138C51.6948 21.0751 51.5967 20.9518 51.515 20.8285C51.0738 20.2891 50.7632 19.8884 50.5508 18.8249L51.515 18.6554C51.6948 19.5031 51.8909 19.7651 52.2995 20.2737C52.3975 20.397 52.4956 20.5203 52.61 20.6744C53.3781 21.6916 56.8755 22.3698 58.902 22.5393L58.8039 23.464Z" fill="#1E697A"/>
<path d="M49.5054 30.7231C49.391 30.1529 48.9988 29.6289 48.5902 29.074C48.0836 28.3959 47.577 27.7023 47.4953 26.8392C47.3645 25.3905 46.9396 24.512 46.3839 23.4023C46.1225 22.8937 45.861 22.3543 45.5995 21.707L45.4688 21.3833L45.7629 21.1675C46.7762 20.4432 48.0019 18.8557 48.4922 17.6073L48.5085 17.5611C49.0315 16.5747 48.9825 15.3725 48.8844 14.4478L48.8354 13.97L49.342 13.9392C50.2572 13.8929 52.774 12.8295 53.6892 11.5503L53.8199 11.3653L54.0651 11.3499C54.3756 11.3345 54.4736 11.427 55.6503 12.6445C56.0099 13.0144 56.5002 13.523 56.6146 13.6155C56.5655 13.5847 56.4184 13.523 56.255 13.5539L56.3694 14.0008L56.827 14.2012L56.4511 14.4632C56.1243 14.5094 56.0589 14.4324 54.9476 13.2764C54.7188 13.0453 54.4083 12.7216 54.1795 12.4904C53.0845 13.6463 51.107 14.5402 49.914 14.8023C49.9794 15.7732 49.9467 16.9292 49.4074 17.9618C48.9007 19.241 47.7241 20.7976 46.6454 21.6915C46.8579 22.1693 47.0703 22.6009 47.2665 23.017C47.8385 24.1575 48.3287 25.1439 48.4758 26.7622C48.5249 27.3633 48.9498 27.9335 49.391 28.5346C49.8486 29.1511 50.3062 29.783 50.4697 30.5382L49.5054 30.7231Z" fill="#1E697A"/>
</g>
<defs>
<clipPath id="clip0_2727_5290">
<rect width="90" height="60" fill="white" transform="translate(0 0.764404)"/>
</clipPath>
</defs>
</svg>
