<svg width="90" height="61" viewBox="0 0 90 61" fill="none" xmlns="http://www.w3.org/2000/svg">
<g clip-path="url(#clip0_2727_5381)">
<ellipse cx="28.7642" cy="38.1054" rx="23.5337" ry="22.1937" fill="#E0F2FE"/>
<path d="M14.251 54.7043L13.4012 54.2419C13.8915 53.4405 15.5094 50.8204 15.8853 50.4659C16.2939 50.0806 16.9803 49.6491 17.4379 49.4949C17.5686 49.4487 17.7811 49.4179 18.0916 49.3562C18.9088 49.2021 20.4286 48.9093 21.4746 48.3236C22.0793 47.9845 22.7984 47.4759 23.6482 46.8749C24.8249 46.0426 26.165 45.087 27.5541 44.3472C28.2896 43.9619 29.4989 43.2838 30.9044 42.5132C34.0095 40.787 37.8828 38.6447 39.1575 38.1361C40.9226 37.458 44.0277 35.8243 44.0604 35.8088L44.1094 35.778L44.1584 35.7626C44.9592 35.5468 47.2636 34.6683 47.3616 33.5432C47.427 32.6956 46.7243 31.9404 45.2371 31.3239C45.2044 31.3085 45.1717 31.293 45.139 31.2776C44.9102 31.2468 44.1421 31.2468 43.5211 31.2622C43.472 31.2622 38.5529 31.4009 36.8859 33.1579L36.8532 33.1888C34.9574 34.8379 29.3355 35.9013 27.8156 35.9013C26.0833 35.9013 24.449 33.3891 24.2038 32.9884C23.926 32.6339 21.066 28.9504 21.0333 26.9314C21.0006 25.1281 22.7657 21.5987 23.8933 20.7356C24.1385 20.5353 24.4 20.4582 24.6288 20.5044C25.4296 20.3657 29.2211 17.1292 29.4172 16.0349L29.4989 15.5725L29.9892 15.6496C31.8523 15.9424 36.4773 14.879 36.7715 14.2625L36.9186 13.7385L37.4415 13.9542C38.3241 14.2933 39.2229 14.5861 41.2821 14.5399C43.5047 14.4937 44.8448 12.9987 45.1063 12.3359C45.3188 11.7657 45.2207 11.2108 45.139 10.918C43.325 10.656 39.37 10.1166 38.7326 10.1012C38.3241 10.1012 37.8174 10.1474 37.2291 10.1936C36.6734 10.2553 36.0361 10.3169 35.3497 10.3323C35.0391 10.3478 34.5325 10.3632 33.9115 10.3786C32.2118 10.4248 28.6818 10.5327 28.1588 10.6406C27.93 10.7793 27.1782 11.3804 26.5899 11.9044L26.5409 11.9352C26.5082 11.966 22.8964 14.4012 21.9649 15.0639C21.3112 15.5263 19.1702 17.5915 17.7484 18.9478C17.1764 19.5027 16.6861 19.965 16.4083 20.227C15.6892 20.8898 12.2245 28.3647 10.2144 32.9113C10.0509 33.3429 7.289 40.525 5.86718 42.9601C5.31152 43.9003 3.69358 45.9039 3.62821 45.9964L2.84375 45.4261C2.86009 45.4107 4.49438 43.3917 5.001 42.5132C6.40649 40.1089 9.26649 32.6647 9.29917 32.5877L9.31551 32.5723C9.85483 31.3547 14.6269 20.5969 15.7219 19.5797C15.9997 19.3331 16.49 18.8553 17.062 18.3159C18.5819 16.8517 20.6738 14.8481 21.3929 14.3395C22.3081 13.6922 25.6093 11.4574 25.9689 11.2108C26.3121 10.9026 27.358 10.0087 27.7666 9.80833C28.0444 9.66962 28.9596 9.59255 33.9115 9.45384C34.5162 9.43843 35.0391 9.42302 35.3497 9.40761C36.0034 9.37678 36.6244 9.31513 37.1637 9.2689C37.7847 9.20725 38.3077 9.16101 38.7817 9.16101C39.6315 9.17642 44.9919 9.94704 45.613 10.0241L45.8744 10.0549L45.9888 10.2861C46.0052 10.3323 46.5282 11.442 46.0542 12.6288C45.6456 13.6922 43.995 15.3876 41.3311 15.4492C39.5171 15.4955 38.4875 15.2951 37.4742 14.9406C36.9839 15.4184 35.9053 15.8345 34.271 16.189C33.0126 16.451 31.3947 16.6668 30.2997 16.6051C29.6623 17.9922 27.2273 20.0883 25.9525 20.9052C25.2171 21.3829 24.8412 21.46 24.6124 21.4292C23.9587 21.7837 22.0629 25.2052 22.0793 26.9314C22.0956 28.3955 24.2529 31.4318 25.07 32.4644L25.1027 32.5106C25.691 33.4662 26.9658 34.9766 27.881 34.9766C29.4335 34.9766 34.6469 33.8823 36.2485 32.526C38.226 30.4762 43.3576 30.3375 43.5701 30.3375C45.1554 30.2912 45.5639 30.3529 45.7274 30.4762C48.0807 31.4626 48.4893 32.711 48.4239 33.6049C48.2605 35.516 45.139 36.4716 44.567 36.6257C44.1421 36.8415 41.3148 38.3056 39.6151 38.9684C38.4058 39.4461 34.4018 41.6655 31.4927 43.2838C30.0873 44.0698 28.8615 44.748 28.1261 45.1333C26.786 45.8422 25.4786 46.767 24.3182 47.5838C23.4521 48.2003 22.7003 48.7243 22.0629 49.0942C20.8699 49.7724 19.252 50.0806 18.3694 50.2347C18.157 50.281 17.9118 50.3272 17.8465 50.3426C17.5196 50.4505 16.964 50.805 16.6534 51.0978C16.3593 51.3444 15.2316 53.1168 14.251 54.7043Z" fill="#1E697A"/>
<path d="M11.6354 29.5205L10.6875 29.3047C11.5537 25.8678 12.8774 20.643 12.9428 20.3194L12.9755 20.1036L13.1716 19.9957C14.0541 19.4871 18.1398 15.7111 19.6597 14.2777L21.5391 12.2896L21.6045 12.2587C22.5197 11.7655 23.6147 11.1182 23.8435 10.887C24.0886 10.0548 25.6249 8.74474 26.5564 8.62144C27.2918 8.52896 29.5962 8.34402 29.874 8.31319C30.1845 8.26696 32.9301 7.78918 33.829 7.66588C34.6461 7.55799 39.9739 7.23433 41.0035 7.32681C41.1179 7.31139 41.2813 7.29598 41.4774 7.26516C44.7296 6.8182 46.6908 6.74114 47.0667 7.6967C47.2955 8.28237 47.3445 10.101 46.0207 10.9025L45.4977 10.1164C46.2985 9.63865 46.2659 8.34402 46.1515 8.03577C45.9717 7.88165 45.1219 7.6967 41.6081 8.17448C41.3793 8.20531 41.1832 8.23613 41.0525 8.25154L40.9708 8.26696L40.8891 8.25154C40.3334 8.15907 34.9076 8.4519 33.9597 8.5752C33.0608 8.6985 30.0538 9.22252 30.0211 9.22252H29.972C29.9394 9.22252 27.4389 9.42288 26.6871 9.53076C26.1315 9.60782 24.8404 10.7329 24.7914 11.1182L24.7587 11.1953C24.7097 11.334 24.5789 11.7193 22.1602 13.0139L20.3625 14.9251C19.8231 15.4337 15.2798 19.7029 13.8744 20.6738C13.5638 21.9993 11.8478 28.7036 11.6354 29.5205Z" fill="#1E697A"/>
<path d="M23.5166 30.8464L22.6504 30.4149C22.9936 29.7984 23.9088 28.0568 23.9742 27.2553C24.0559 26.2227 24.9874 22.2309 25.3143 21.7069C25.4777 21.4449 26.0334 21.0442 27.6023 19.9499C28.2233 19.5184 29.0078 18.9789 29.1712 18.8248C29.3346 18.6707 29.3346 18.5628 29.3673 18.3162C29.3836 18.1467 29.4163 17.9463 29.498 17.6997C29.7105 17.1295 30.9199 16.0814 31.2794 15.7732L31.9331 16.4667C31.2794 17.0216 30.495 17.7922 30.4132 18.0234C30.3642 18.1621 30.3479 18.2854 30.3315 18.4395C30.2988 18.7324 30.2498 19.0868 29.8739 19.4721C29.6615 19.6725 29.0895 20.0732 28.1743 20.7205C27.4388 21.2291 26.3275 21.9843 26.1478 22.2001C25.9353 22.6162 25.0364 26.2535 24.9547 27.3478C24.8567 28.4575 23.6636 30.5998 23.5166 30.8464Z" fill="#1E697A"/>
<path d="M44.3699 36.5025C44.2718 36.4409 41.9511 35.1308 42.1799 33.2968C42.4087 31.4627 45.236 30.6304 45.3668 30.5996L45.6446 31.4781L45.4975 31.0312L45.6446 31.4781C44.9909 31.6631 43.2749 32.372 43.1605 33.4046C43.0298 34.4373 44.3535 35.4237 44.8765 35.7011L44.3699 36.5025Z" fill="#1E697A"/>
<path d="M44.5174 12.3822C43.9291 12.3822 43.259 12.3359 42.8505 12.151C42.1477 11.8428 40.4317 10.4248 40.252 10.2707L40.9057 9.57715C41.5921 10.1474 42.8505 11.1184 43.2917 11.3187C43.6676 11.4883 44.8443 11.4729 45.5634 11.4112L45.6614 12.3359C45.4817 12.3514 45.0404 12.3822 44.5174 12.3822Z" fill="#1E697A"/>
<path d="M43.716 9.25381C43.6343 9.25381 43.5689 9.25381 43.4872 9.25381C41.7386 9.17674 40.4638 8.03624 40.3984 7.99L41.0848 7.32727C41.1012 7.34268 42.1471 8.28283 43.5363 8.32907C44.6312 8.37531 46.3309 7.97459 46.3472 7.97459L46.5924 8.8685C46.527 8.88391 44.9417 9.25381 43.716 9.25381Z" fill="#1E697A"/>
<path d="M86.1596 40.0627H85.179V24.188H78.168L78.2007 23.6948C78.2333 23.2787 78.3641 22.878 78.5929 22.5389L78.6256 22.4927L78.6746 22.4464C79.1322 22.0611 79.41 21.4755 79.41 20.9052C79.41 19.7185 78.266 18.7321 76.8442 18.7321C75.4224 18.7321 74.2784 19.6722 74.2784 20.8436C74.2784 21.2289 74.3928 21.645 74.5725 21.8608L74.6052 21.8916C74.6706 21.9995 75.308 22.9705 75.3733 23.664L75.4224 24.1726H68.493V29.5823C68.6564 29.5515 68.7872 29.4899 68.9669 29.3974C69.5553 28.8117 70.4215 28.4572 71.2876 28.4572C73.1017 28.4572 74.5725 29.9522 74.5725 31.8017C74.5725 32.7573 74.1803 33.6666 73.4939 34.2985C72.8892 34.8533 72.1211 35.1462 71.3203 35.1462C70.5359 35.1307 69.9965 34.8379 69.5226 34.5605C69.1794 34.3755 68.8852 34.1906 68.493 34.1289V40.0627H67.5124V33.2042L67.97 33.1734C68.8852 33.1271 69.4899 33.4662 70.0129 33.7591C70.4378 33.9902 70.7973 34.206 71.3203 34.206C71.8596 34.2214 72.3826 34.0056 72.7912 33.6358C73.2815 33.1734 73.5756 32.5107 73.5756 31.8017C73.5756 30.4762 72.546 29.382 71.2713 29.382C70.6503 29.382 70.0456 29.644 69.6207 30.0755L69.5716 30.1218L69.5226 30.1526C68.9996 30.4608 68.5584 30.5687 67.9537 30.5225L67.4961 30.4916V23.2633H74.213C74.0823 22.955 73.8861 22.616 73.7554 22.4156C73.4612 22.0303 73.2651 21.4446 73.2651 20.859C73.2651 19.179 74.8504 17.8228 76.8115 17.8228C78.7563 17.8228 80.3579 19.2099 80.3579 20.9206C80.3579 21.7221 79.982 22.5389 79.361 23.0938C79.3283 23.1554 79.2956 23.2171 79.2629 23.2787H86.1269V40.0627H86.1596Z" fill="#1E697A"/>
<path d="M39.8436 31.6938L38.4545 24.3267L38.9448 24.2497C39.7292 24.1264 40.3502 24.373 40.8405 24.5733C41.2328 24.7429 41.5433 24.8662 41.8701 24.8045C43.1122 24.5888 43.913 23.3404 43.6678 22.0457C43.5534 21.3984 43.1939 20.8436 42.6873 20.4583C42.1806 20.0884 41.5923 19.9497 41.004 20.0421C40.2849 20.1654 39.8436 20.6124 39.5985 20.9823L39.5658 21.0285L39.5168 21.0748C39.1899 21.3676 38.8631 21.5371 38.4872 21.6296L37.9805 21.7529L36.6895 14.9098L37.6537 14.7403L38.7487 20.5045C38.765 20.4891 38.7977 20.4737 38.8304 20.4429C39.3207 19.7339 40.0234 19.2869 40.8405 19.1482C41.7067 19.0095 42.5729 19.2099 43.292 19.7493C43.9947 20.2733 44.4686 21.0285 44.6321 21.907C44.9753 23.6948 43.8149 25.421 42.0499 25.7293C41.4289 25.8372 40.9059 25.6214 40.4483 25.4364C40.1541 25.3131 39.8926 25.2052 39.6148 25.159L40.6444 30.615L46.2827 29.6594C46.1356 29.3203 45.9232 29.0891 45.678 28.8425C45.3021 28.4572 44.8772 28.0103 44.7301 27.1164C44.4523 25.421 45.727 23.8336 47.6392 23.5253C49.5676 23.2017 51.3817 24.3113 51.7085 25.9913C51.8556 26.8081 51.6431 27.702 51.1529 28.3494C51.0875 28.5189 51.0548 28.6884 51.0548 28.858L56.9873 27.8562L55.7779 21.4601L56.2028 21.3368C56.9546 21.121 57.5756 21.3984 58.0659 21.6142C58.4581 21.7837 58.785 21.9378 59.1772 21.8762C59.7165 21.7991 60.1905 21.5063 60.5173 21.0593C60.9259 20.5199 61.073 19.811 60.9422 19.1174C60.8278 18.4701 60.4683 17.9152 59.9453 17.5299C59.4387 17.16 58.8503 17.0213 58.262 17.1138C57.5429 17.2371 57.1017 17.6841 56.8729 18.054L56.8402 18.1002L56.7911 18.1464C56.4316 18.4547 55.9413 18.6396 55.8596 18.6704L55.3039 18.8554L54.0782 12.4131L44.8118 13.9851L44.6321 13.0758L54.8627 11.3496L56.0394 17.5453C56.0557 17.5299 56.0557 17.5299 56.0721 17.5145C56.5623 16.8056 57.2651 16.3586 58.0822 16.2199C58.9484 16.0812 59.8146 16.2815 60.55 16.821C61.2527 17.345 61.743 18.1002 61.9064 18.9787C62.0862 19.9188 61.8738 20.8744 61.3181 21.6142C60.8278 22.2615 60.1251 22.6776 59.3406 22.8009C58.6542 22.9088 58.1149 22.6622 57.641 22.4619C57.3631 22.3386 57.1343 22.2461 56.9219 22.1999L58.1313 28.5959L50.2867 29.9214L50.1723 29.5053C50.0089 28.9504 50.0416 28.4572 50.2704 27.9486L50.303 27.887L50.3357 27.8407C50.6953 27.3938 50.8587 26.7311 50.7606 26.1454C50.5318 24.9587 49.2244 24.2034 47.8353 24.4346C46.4461 24.6658 45.5309 25.7909 45.7107 26.9777C45.8088 27.5942 46.0702 27.8716 46.4134 28.2261C46.7893 28.6114 47.2142 29.0583 47.394 29.9368L47.4921 30.3992L39.8436 31.6938Z" fill="#1E697A"/>
<path d="M86.1601 23.7255H85.1796V7.54266H68.5099V13.0448C68.6733 13.014 68.804 12.9524 68.9838 12.8599C69.5722 12.2742 70.4383 11.9197 71.3045 11.9197C73.1185 11.9197 74.5894 13.4147 74.5894 15.2642C74.5894 17.0983 73.1349 18.6087 71.3372 18.6087C70.7652 18.6087 69.7846 18.3158 69.1799 17.8535C68.9511 17.7148 68.7387 17.6223 68.5099 17.5915V23.741H67.5293V16.6821L67.9869 16.6513C68.6406 16.6051 69.1963 16.7438 69.7519 17.0983L69.801 17.1291C70.1932 17.4373 70.9613 17.6839 71.3372 17.6839C72.5956 17.6839 73.6088 16.6051 73.6088 15.2642C73.6088 13.9233 72.5792 12.8445 71.3045 12.8445C70.6835 12.8445 70.0788 13.1065 69.6539 13.538L69.6048 13.5843L69.5558 13.6151C69.0328 13.9233 68.5916 14.0312 67.9869 13.985L67.5293 13.9542V6.61792H86.1601V23.7255Z" fill="#1E697A"/>
<path d="M86.1608 57.3244H68.0203V56.3997H85.1802V40.6791H79.3785C79.4602 40.9257 79.6073 41.1723 79.7544 41.4343C80.0486 41.9738 80.3918 42.5748 80.3918 43.3455C80.3918 44.1161 80.0649 44.8559 79.4602 45.4261C78.7902 46.058 77.8423 46.4279 76.8454 46.4279C74.9006 46.4279 73.299 45.0408 73.299 43.33C73.299 42.5132 73.6749 41.6963 74.2959 41.1261C74.394 40.972 74.4593 40.8333 74.492 40.6791H68.0039V39.7544H75.4399L75.4726 40.1859C75.5216 40.7562 75.4072 41.1877 75.0804 41.6655L75.0477 41.7118L74.9986 41.758C74.5574 42.1433 74.2632 42.7444 74.2632 43.33C74.2632 44.5322 75.4072 45.5032 76.829 45.5032C77.5645 45.5032 78.2509 45.2412 78.7411 44.7788C79.1661 44.3781 79.3949 43.8849 79.3949 43.3609C79.3949 42.8214 79.1334 42.3591 78.8719 41.8813C78.5941 41.3727 78.2999 40.8641 78.2999 40.2322V39.7698H86.1444V57.3244H86.1608Z" fill="#1E697A"/>
<path d="M68.5098 57.3245H50.0424V50.913C50.0097 50.9285 49.9933 50.9439 49.9607 50.9593C49.356 51.5604 48.5388 51.8994 47.689 51.8994C45.9076 51.8994 44.4531 50.4044 44.4531 48.555C44.4531 46.7209 45.9076 45.2105 47.689 45.2105C48.3264 45.2105 48.8493 45.5033 49.3723 45.7807C49.6011 45.904 49.8299 46.0273 50.0587 46.1198V39.7391H57.936L57.9687 40.1707C58.0177 40.7563 57.9033 41.1879 57.5764 41.6657L57.5437 41.7119L57.4947 41.7581C57.0534 42.1435 56.7593 42.7445 56.7593 43.3302C56.7593 44.5324 57.9033 45.5033 59.3251 45.5033C60.7142 45.5033 61.8256 44.5478 61.8909 43.3302C61.9073 42.8678 61.6294 42.3284 61.3516 41.8198C61.0738 41.2958 60.7796 40.7563 60.7796 40.2169V39.7545H68.5098V47.1987L68.0031 47.1833C67.4148 47.1679 66.9735 46.875 66.5813 46.6284C66.1728 46.3664 65.8296 46.1506 65.3066 46.1506C64.0155 46.1506 62.9696 47.2449 62.9696 48.5704C62.9696 49.8958 63.9828 50.9901 65.2249 50.9901C65.9603 50.9901 66.4669 50.6202 66.7774 50.2965L66.8265 50.2503L66.8755 50.2195C67.2187 50.0191 67.5292 49.8804 67.9868 49.8496L68.5098 49.8188V57.3245ZM51.0229 56.3998H67.5292V50.913C67.4965 50.9285 67.4802 50.9439 67.4475 50.9593C66.8265 51.5758 66.0584 51.8994 65.2249 51.8994C63.4435 51.8994 61.989 50.4044 61.989 48.555C61.989 46.7209 63.4762 45.2259 65.2902 45.2105C66.1237 45.2105 66.6794 45.565 67.137 45.8578C67.2841 45.9503 67.3985 46.0273 67.5292 46.1044V40.6793H61.8582C61.94 40.9105 62.0707 41.1571 62.2178 41.4037C62.5283 41.9893 62.8878 42.6675 62.8552 43.3764C62.7734 45.0872 61.2209 46.4281 59.3088 46.4281C57.364 46.4281 55.7624 45.041 55.7624 43.3302C55.7624 42.4979 56.1382 41.6811 56.7593 41.1262C56.8573 40.9721 56.9227 40.8334 56.9554 40.6793H51.0066V47.1987L50.5 47.1833C49.8953 47.1679 49.3723 46.875 48.8493 46.5976C48.4244 46.3664 48.0322 46.1506 47.6727 46.1506C46.4143 46.1506 45.4174 47.2295 45.4174 48.5704C45.4174 49.8958 46.4306 50.9901 47.6727 50.9901C48.2774 50.9901 48.833 50.7435 49.2743 50.2965L49.3233 50.2503L49.3723 50.2195C49.7482 50.0037 50.0751 49.8804 50.4836 49.8496L51.0229 49.8034V56.3998Z" fill="#1E697A"/>
</g>
<defs>
<clipPath id="clip0_2727_5381">
<rect width="90" height="60" fill="white" transform="translate(0 0.764404)"/>
</clipPath>
</defs>
</svg>
