<svg width="90" height="61" viewBox="0 0 90 61" fill="none" xmlns="http://www.w3.org/2000/svg">
<g clip-path="url(#clip0_5_11480)">
<circle cx="39.5" cy="30.2644" r="29.5" fill="#E0F2FE"/>
<path d="M60.5016 23.5595L32.2449 6.85262C32.1632 6.80639 32.1141 6.74474 32.0651 6.66767L31.7709 6.14366C31.5912 5.82 31.8363 5.43469 32.2285 5.43469H32.8822C32.9803 5.43469 33.0784 5.46552 33.1437 5.51175L42.5082 11.0602" fill="white"/>
<path d="M60.2403 23.9449L31.9835 7.23799C31.8364 7.14551 31.7057 7.02221 31.624 6.8835L31.3298 6.35949C31.1664 6.06665 31.1827 5.71217 31.3625 5.43475C31.5423 5.15733 31.8691 4.98779 32.2123 4.98779H32.866C33.0458 4.98779 33.2419 5.03403 33.389 5.1265L42.7535 10.6749L42.2305 11.4609L32.866 5.91253H32.2123C32.196 5.91253 32.196 5.91253 32.196 5.92794C32.196 5.94335 32.196 5.94335 32.196 5.94335L32.4902 6.46737L60.7469 23.1743L60.2403 23.9449Z" fill="#075985"/>
<path d="M38.6676 6.86804C38.1119 6.86804 37.6543 7.29959 37.6543 7.8236V27.166C37.6543 27.69 38.1119 28.1216 38.6676 28.1216C39.2232 28.1216 39.6808 27.69 39.6808 27.166V7.8236C39.6808 7.29959 39.2232 6.86804 38.6676 6.86804Z" fill="white"/>
<path d="M38.6676 28.5993C37.8341 28.5993 37.1641 27.9674 37.1641 27.1814V7.82357C37.1641 7.03754 37.8341 6.40564 38.6676 6.40564C39.5011 6.40564 40.1711 7.03754 40.1711 7.82357V27.166C40.1711 27.952 39.5011 28.5993 38.6676 28.5993ZM38.6676 7.33038C38.3734 7.33038 38.1446 7.54615 38.1446 7.82357V27.166C38.1446 27.4434 38.3734 27.6592 38.6676 27.6592C38.9618 27.6592 39.1906 27.4434 39.1906 27.166V7.82357C39.1906 7.56156 38.9454 7.33038 38.6676 7.33038Z" fill="#075985"/>
<path d="M43.8818 26.6573H9.10428C8.82646 26.6573 8.59766 26.4415 8.59766 26.1795V25.563C8.59766 25.301 8.82646 25.0852 9.10428 25.0852H43.8818C43.9799 25.0852 44.0616 25.1006 44.1433 25.1469L44.6826 25.4397C45.0095 25.6246 45.0258 26.0716 44.699 26.2565L44.1433 26.5802C44.0616 26.6264 43.9636 26.6573 43.8818 26.6573Z" fill="white"/>
<path d="M43.8819 27.1196H9.10434C8.54868 27.1196 8.10742 26.7035 8.10742 26.1794V25.563C8.10742 25.0389 8.54868 24.6228 9.10434 24.6228H43.8819C44.0617 24.6228 44.2251 24.669 44.3885 24.7461L44.9278 25.0389C45.2383 25.2085 45.4181 25.5013 45.4181 25.8404C45.4181 26.1794 45.2547 26.4723 44.9442 26.6572L44.3885 26.9809C44.2414 27.0579 44.0617 27.1196 43.8819 27.1196ZM9.10434 25.5321C9.08799 25.5321 9.08799 25.5475 9.08799 25.5475V26.164C9.08799 26.1794 9.10434 26.1794 9.10434 26.1794H43.8819C43.8819 26.1794 43.8819 26.1794 43.8982 26.1794L44.4539 25.8558C44.4539 25.8558 44.4702 25.8558 44.4702 25.8404C44.4702 25.825 44.4702 25.825 44.4539 25.825L43.9146 25.5321H9.10434Z" fill="#075985"/>
<path d="M9.36507 28.0597H10.6235C11.0647 28.0597 11.4079 27.7206 11.4079 27.3199V24.7769C11.4079 24.3608 11.0484 24.0371 10.6235 24.0371H9.36507C8.92381 24.0371 8.58061 24.3762 8.58061 24.7769V27.3199C8.56427 27.7361 8.92381 28.0597 9.36507 28.0597Z" fill="white"/>
<path d="M10.6074 28.522H9.34896C8.64622 28.522 8.07422 27.9826 8.07422 27.3199V24.7769C8.07422 24.1141 8.64622 23.5747 9.34896 23.5747H10.6074C11.3101 23.5747 11.8821 24.1141 11.8821 24.7769V27.3199C11.8984 27.9826 11.3101 28.522 10.6074 28.522ZM9.3653 24.4994C9.20187 24.4994 9.07113 24.6227 9.07113 24.7769V27.3199C9.07113 27.474 9.20187 27.5973 9.3653 27.5973H10.6237C10.7871 27.5973 10.9179 27.474 10.9179 27.3199V24.7769C10.9179 24.6227 10.7871 24.4994 10.6237 24.4994H9.3653Z" fill="#075985"/>
<path d="M10.5743 23.7751H9.59375V28.0906H10.5743V23.7751Z" fill="#075985"/>
<path d="M41.365 27.9059C40.6132 27.4897 39.7634 28.7381 38.7665 29.7245C37.7696 28.7381 36.8707 27.4897 36.1189 27.9059C35.1057 28.4607 36.6092 32.1134 38.6848 32.1751C38.7011 32.1751 38.7665 32.1751 38.7665 32.1751C38.7665 32.1751 38.7992 32.1751 38.8319 32.1751C40.891 32.1134 42.3782 28.4607 41.365 27.9059Z" fill="white"/>
<path d="M38.8157 32.6374C38.7993 32.6374 38.783 32.6374 38.7666 32.6374C38.7503 32.6374 38.7176 32.6374 38.7013 32.6374H38.6849C37.116 32.5912 35.8413 30.9729 35.4327 29.4625C35.1712 28.5223 35.3346 27.8134 35.874 27.5205C36.0537 27.4281 36.2335 27.3818 36.4296 27.3818C37.1814 27.3818 37.8024 28.0446 38.5378 28.8306C38.6032 28.9077 38.6849 28.9847 38.7666 29.0618C38.8484 28.9693 38.9464 28.8768 39.0281 28.7844C39.7309 28.0292 40.3356 27.3818 41.071 27.3818C41.2671 27.3818 41.4632 27.4281 41.6266 27.5205C42.1659 27.8134 42.3294 28.5378 42.0842 29.4779C41.6757 30.9729 40.4173 32.5912 38.8484 32.6374H38.8157ZM36.4296 28.2912C36.4133 28.2912 36.3969 28.2912 36.3642 28.3066C36.3152 28.3374 36.2008 28.6148 36.3642 29.2313C36.6748 30.4026 37.688 31.6819 38.7013 31.7127C38.7176 31.7127 38.7503 31.7127 38.7503 31.7127H38.783H38.832C39.8289 31.6819 40.8258 30.4181 41.1363 29.2467C41.2998 28.6302 41.1854 28.3374 41.1363 28.3066C41.1037 28.2912 41.0873 28.2912 41.071 28.2912C40.7932 28.2912 40.2048 28.9231 39.7636 29.3854C39.5511 29.6012 39.3386 29.8324 39.1262 30.0482L38.7666 30.4026L38.4071 30.0482C38.1946 29.8478 37.9985 29.632 37.8024 29.4317C37.3612 28.9539 36.7401 28.2912 36.4296 28.2912Z" fill="#075985"/>
<path d="M41.365 30.6028C40.6132 30.1866 39.7634 31.435 38.7665 32.4214C37.7696 31.435 36.8707 30.1866 36.1189 30.6028C35.1057 31.1576 36.6092 34.8103 38.6848 34.872C38.7011 34.872 38.7665 34.872 38.7665 34.872C38.7665 34.872 38.7992 34.872 38.8319 34.872C40.891 34.7949 42.3782 31.1576 41.365 30.6028Z" fill="white"/>
<path d="M38.8164 35.3189C38.8 35.3189 38.7837 35.3189 38.7674 35.3189C38.751 35.3189 38.7183 35.3189 38.702 35.3189H38.6693C37.1004 35.2727 35.8256 33.6544 35.4171 32.144C35.1556 31.2039 35.319 30.4949 35.8583 30.2021C36.0381 30.1096 36.2179 30.0634 36.414 30.0634C37.1658 30.0634 37.7868 30.7261 38.5222 31.5121C38.5876 31.5892 38.6693 31.6662 38.751 31.7433C38.8327 31.6508 38.9308 31.5583 39.0125 31.4659C39.7152 30.7107 40.3199 30.0634 41.0554 30.0634C41.2515 30.0634 41.4476 30.1096 41.611 30.2021C42.1503 30.4949 42.3138 31.2193 42.0686 32.1594C41.66 33.6544 40.4016 35.2727 38.8327 35.3189H38.8164ZM36.4303 30.9727C36.414 30.9727 36.3976 30.9727 36.365 30.9881C36.3159 31.0189 36.2015 31.2963 36.365 31.9128C36.6755 33.0842 37.6887 34.3634 38.702 34.3942C38.7183 34.3942 38.751 34.3942 38.751 34.3942H38.7837H38.8327C39.8296 34.3634 40.8266 33.0996 41.1371 31.9282C41.3005 31.3117 41.1861 31.0189 41.1371 30.9881C41.1044 30.9727 41.088 30.9727 41.0717 30.9727C40.7939 30.9727 40.2055 31.6046 39.7643 32.067C39.5518 32.2827 39.3394 32.5139 39.1269 32.7297L38.7674 33.0842L38.4078 32.7297C38.1954 32.5293 37.9992 32.3135 37.8031 32.1132C37.3619 31.6354 36.7408 30.9727 36.4303 30.9727Z" fill="#075985"/>
<path d="M38.6702 29.4468C39.2389 29.4468 39.6998 28.26 39.6998 26.7959C39.6998 25.3319 39.2389 24.145 38.6702 24.145C38.1016 24.145 37.6406 25.3319 37.6406 26.7959C37.6406 28.26 38.1016 29.4468 38.6702 29.4468Z" fill="white"/>
<path d="M38.6703 29.9247C37.6243 29.9247 37.1504 28.3065 37.1504 26.796C37.1504 25.2856 37.6243 23.6674 38.6703 23.6674C39.7162 23.6674 40.1902 25.2856 40.1902 26.796C40.1902 28.3065 39.7162 29.9247 38.6703 29.9247ZM38.6703 24.6229C38.4905 24.777 38.131 25.5168 38.131 26.796C38.131 28.0753 38.4905 28.8305 38.6703 28.9692C38.85 28.8151 39.2096 28.0753 39.2096 26.796C39.2096 25.5168 38.85 24.7616 38.6703 24.6229Z" fill="#075985"/>
<path d="M41.3005 33.1153C40.5488 32.6992 39.6989 33.9476 38.702 34.934C37.7051 33.9476 36.8063 32.6992 36.0545 33.1153C35.0412 33.6702 36.5448 37.3229 38.6203 37.3846C38.6367 37.3846 38.702 37.3846 38.702 37.3846C38.702 37.3846 38.7347 37.3846 38.7674 37.3846C40.8266 37.3229 42.3138 33.6856 41.3005 33.1153Z" fill="white"/>
<path d="M38.7344 37.8469C38.718 37.8469 38.7017 37.8469 38.6853 37.8469C38.669 37.8469 38.6363 37.8469 38.62 37.8469H38.5873C37.0184 37.8007 35.7436 36.1824 35.335 34.672C35.0736 33.7318 35.237 33.0229 35.7763 32.73C35.9561 32.6375 36.1358 32.5913 36.332 32.5913C37.0837 32.5913 37.7048 33.254 38.4402 34.0401C38.5056 34.1171 38.5873 34.1942 38.669 34.2712C38.7507 34.1788 38.8488 34.0863 38.9305 33.9938C39.6332 33.2386 40.2379 32.5913 40.9733 32.5913C41.1694 32.5913 41.3656 32.6375 41.529 32.73C42.0683 33.0229 42.2317 33.7472 41.9866 34.6874C41.578 36.1824 40.3196 37.8007 38.7507 37.8469H38.7344ZM36.3646 33.5006C36.3483 33.5006 36.332 33.5006 36.2993 33.516C36.2502 33.5469 36.1358 33.8243 36.2993 34.4408C36.6098 35.6121 37.623 36.8913 38.6363 36.9222C38.6526 36.9222 38.6853 36.9222 38.6853 36.9222H38.718H38.767C39.764 36.8913 40.7609 35.6275 41.0714 34.4562C41.2348 33.8397 41.1204 33.5469 41.0714 33.516C41.0387 33.5006 41.0224 33.5006 41.006 33.5006C40.7282 33.5006 40.1398 34.1325 39.6986 34.5949C39.4861 34.8107 39.2737 35.0419 39.0612 35.2576L38.7017 35.6121L38.3421 35.2576C38.1297 35.0573 37.9336 34.8415 37.7374 34.6411C37.2798 34.1634 36.6588 33.5006 36.3646 33.5006Z" fill="#075985"/>
<path d="M41.3005 35.8125C40.5488 35.3964 39.6989 36.6448 38.702 37.6311C37.7051 36.6448 36.8063 35.3964 36.0545 35.8125C35.0412 36.3673 36.5448 40.02 38.6203 40.0817C38.6367 40.0817 38.702 40.0817 38.702 40.0817C38.702 40.0817 38.7347 40.0817 38.7674 40.0817C40.8266 40.02 42.3138 36.3673 41.3005 35.8125Z" fill="white"/>
<path d="M38.7344 40.5288C38.718 40.5288 38.7017 40.5288 38.6853 40.5288C38.669 40.5288 38.6363 40.5288 38.62 40.5288H38.5873C37.0184 40.4825 35.7436 38.8643 35.335 37.3539C35.0736 36.4137 35.237 35.7047 35.7763 35.4119C35.9561 35.3194 36.1358 35.2732 36.332 35.2732C37.0837 35.2732 37.7048 35.9359 38.4402 36.7219C38.5056 36.799 38.5873 36.8761 38.669 36.9531C38.7507 36.8607 38.8488 36.7682 38.9305 36.6757C39.6332 35.9205 40.2379 35.2732 40.9733 35.2732C41.1694 35.2732 41.3656 35.3194 41.529 35.4119C42.0683 35.7047 42.2317 36.4291 41.9866 37.3693C41.578 38.8643 40.3196 40.4825 38.7507 40.5288H38.7344ZM36.3646 36.1825C36.3483 36.1825 36.332 36.1825 36.2993 36.1979C36.2502 36.2288 36.1358 36.5062 36.2993 37.1227C36.6098 38.294 37.623 39.5732 38.6363 39.604C38.6526 39.604 38.6853 39.604 38.6853 39.604H38.7017H38.7507C39.7476 39.5732 40.7445 38.3094 41.055 37.1381C41.2185 36.5216 41.1041 36.2288 41.055 36.1979C41.0224 36.1825 41.006 36.1825 40.9897 36.1825C40.7118 36.1825 40.1235 36.8144 39.6822 37.2768C39.4698 37.4926 39.2573 37.7237 39.0449 37.9395L38.6853 38.294L38.3258 37.9395C38.1133 37.7392 37.9172 37.5234 37.7211 37.323C37.2798 36.8452 36.6588 36.1825 36.3646 36.1825Z" fill="#075985"/>
<path d="M41.365 38.34C40.6132 37.9238 39.7634 39.1722 38.7665 40.1586C37.7696 39.1722 36.8707 37.9238 36.1189 38.34C35.1057 38.8948 36.6092 42.5475 38.6848 42.6092C38.7011 42.6092 38.7665 42.6092 38.7665 42.6092C38.7665 42.6092 38.7992 42.6092 38.8319 42.6092C40.891 42.5321 42.3782 38.8948 41.365 38.34Z" fill="white"/>
<path d="M38.8164 43.0561C38.8 43.0561 38.7837 43.0561 38.7674 43.0561C38.751 43.0561 38.7183 43.0561 38.702 43.0561H38.6693C37.1004 43.0099 35.8256 41.3916 35.4171 39.8812C35.1556 38.941 35.319 38.2321 35.8583 37.9392C36.0381 37.8468 36.2179 37.8005 36.414 37.8005C37.1658 37.8005 37.7868 38.4633 38.5222 39.2493C38.5876 39.3264 38.6693 39.4034 38.751 39.4805C38.8327 39.388 38.9308 39.2955 39.0125 39.2031C39.7152 38.4479 40.3199 37.8005 41.0554 37.8005C41.2515 37.8005 41.4476 37.8468 41.611 37.9392C42.1503 38.2321 42.3138 38.9565 42.0686 39.8966C41.66 41.3916 40.4016 43.0099 38.8327 43.0561H38.8164ZM36.4303 38.7099C36.414 38.7099 36.3976 38.7099 36.365 38.7253C36.3159 38.7561 36.2015 39.0335 36.365 39.65C36.6755 40.8213 37.6887 42.1006 38.702 42.1314C38.7183 42.1314 38.751 42.1314 38.751 42.1314H38.7674H38.8164C39.8133 42.1006 40.8102 40.8368 41.1207 39.6654C41.2842 39.0489 41.1698 38.7561 41.1207 38.7253C41.088 38.7099 41.0717 38.7099 41.0554 38.7099C40.7775 38.7099 40.1892 39.3418 39.7479 39.8041C39.5355 40.0199 39.323 40.2511 39.1106 40.4669L38.751 40.8213L38.3915 40.4669C38.179 40.2665 37.9829 40.0507 37.7868 39.8504C37.3619 39.3726 36.7408 38.7099 36.4303 38.7099Z" fill="#075985"/>
<path d="M41.365 41.0217C40.6132 40.6056 39.7634 41.854 38.7665 42.8404C37.7696 41.854 36.8707 40.6056 36.1189 41.0217C35.1057 41.5766 36.6092 45.2293 38.6848 45.2909C38.7011 45.2909 38.7665 45.2909 38.7665 45.2909C38.7665 45.2909 38.7992 45.2909 38.8319 45.2909C40.891 45.2293 42.3782 41.5766 41.365 41.0217Z" fill="white"/>
<path d="M38.8157 45.7533C38.7993 45.7533 38.783 45.7533 38.7666 45.7533C38.7503 45.7533 38.7176 45.7533 38.7013 45.7533H38.6849C37.116 45.707 35.8413 44.0887 35.4327 42.5783C35.1712 41.6382 35.3346 40.9292 35.874 40.6364C36.0537 40.5439 36.2335 40.4977 36.4296 40.4977C37.1814 40.4977 37.8024 41.1604 38.5378 41.9464C38.6032 42.0235 38.6849 42.1006 38.7666 42.1776C38.8484 42.0851 38.9464 41.9927 39.0281 41.9002C39.7309 41.145 40.3356 40.4977 41.071 40.4977C41.2671 40.4977 41.4632 40.5439 41.6266 40.6364C42.1659 40.9292 42.3294 41.6536 42.0842 42.5938C41.6757 44.0887 40.4173 45.707 38.8484 45.7533H38.8157ZM36.4296 41.407C36.4133 41.407 36.3969 41.407 36.3642 41.4224C36.3152 41.4532 36.2008 41.7307 36.3642 42.3472C36.6748 43.5185 37.688 44.7977 38.7013 44.8285C38.7176 44.8285 38.7503 44.8285 38.7503 44.8285H38.783H38.832C39.8289 44.7977 40.8258 43.5339 41.1363 42.3626C41.2998 41.7461 41.1854 41.4532 41.1363 41.4224C41.1037 41.407 41.0873 41.407 41.071 41.407C40.7932 41.407 40.2048 42.0389 39.7636 42.5013C39.5511 42.717 39.3386 42.9482 39.1262 43.164L38.7666 43.5185L38.4071 43.1486C38.1946 42.9482 37.9985 42.7325 37.8024 42.5321C37.3612 42.0543 36.7401 41.407 36.4296 41.407Z" fill="#075985"/>
<path d="M41.2986 43.5491C40.5468 43.1329 39.697 44.3813 38.7001 45.3677C37.7032 44.3813 36.8043 43.1329 36.0525 43.5491C35.0393 44.1039 36.5428 47.7566 38.6184 47.8183C38.6347 47.8183 38.7001 47.8183 38.7001 47.8183C38.7001 47.8183 38.7328 47.8183 38.7654 47.8183C40.8246 47.7566 42.3118 44.1039 41.2986 43.5491Z" fill="white"/>
<path d="M38.7336 48.2652C38.7173 48.2652 38.7009 48.2652 38.6846 48.2652C38.6683 48.2652 38.6356 48.2652 38.6192 48.2652H38.6029C37.034 48.219 35.7592 46.6007 35.3507 45.0903C35.0892 44.1502 35.2526 43.4412 35.7919 43.1484C35.9717 43.0559 36.1515 43.0096 36.3476 43.0096C37.0994 43.0096 37.7204 43.6724 38.4558 44.4584C38.5212 44.5355 38.6029 44.6125 38.6846 44.6896C38.7663 44.5971 38.8644 44.5046 38.9461 44.4122C39.6488 43.657 40.2535 43.0096 40.9889 43.0096C41.1851 43.0096 41.3812 43.0559 41.5446 43.1484C42.0839 43.4412 42.2473 44.1656 42.0022 45.1057C41.5936 46.6007 40.3352 48.219 38.7663 48.2652H38.7336ZM36.3639 43.919C36.3476 43.919 36.3312 43.919 36.2986 43.9344C36.2495 43.9652 36.1351 44.2426 36.2986 44.8591C36.6091 46.0305 37.6223 47.3097 38.6356 47.3405C38.6519 47.3405 38.6846 47.3405 38.6846 47.3405H38.7173H38.7663C39.7632 47.3097 40.7601 46.0459 41.0707 44.8745C41.2341 44.258 41.1197 43.9652 41.0707 43.9344C41.038 43.919 41.0216 43.919 41.0053 43.919C40.7275 43.919 40.1391 44.5509 39.6979 45.0132C39.4854 45.229 39.2729 45.4602 39.0605 45.676L38.701 46.0305L38.3414 45.676C38.129 45.4756 37.9328 45.2598 37.7367 45.0595C37.2791 44.5817 36.6581 43.919 36.3639 43.919Z" fill="#075985"/>
<path d="M41.2986 46.2308C40.5468 45.8147 39.697 47.0631 38.7001 48.0495C37.7032 47.0631 36.8043 45.8147 36.0525 46.2308C35.0393 46.7857 36.5428 50.4384 38.6184 50.5C38.6347 50.5 38.7001 50.5 38.7001 50.5C38.7001 50.5 38.7328 50.5 38.7654 50.5C40.8246 50.4384 42.3118 46.7857 41.2986 46.2308Z" fill="white"/>
<path d="M38.7336 50.9624C38.7173 50.9624 38.7009 50.9624 38.6846 50.9624C38.6683 50.9624 38.6356 50.9624 38.6192 50.9624H38.6029C37.034 50.9161 35.7592 49.2978 35.3507 47.7874C35.0892 46.8473 35.2526 46.1383 35.7919 45.8455C35.9717 45.753 36.1515 45.7068 36.3476 45.7068C37.0994 45.7068 37.7204 46.3695 38.4558 47.1555C38.5212 47.2326 38.6029 47.3097 38.6846 47.3867C38.7663 47.2943 38.8644 47.2018 38.9461 47.1093C39.6488 46.3541 40.2535 45.7068 40.9889 45.7068C41.1851 45.7068 41.3812 45.753 41.5446 45.8455C42.0839 46.1383 42.2473 46.8627 42.0022 47.8029C41.5936 49.2978 40.3352 50.9161 38.7663 50.9624H38.7336ZM36.3639 46.6161C36.3476 46.6161 36.3312 46.6161 36.2986 46.6315C36.2495 46.6623 36.1351 46.9398 36.2986 47.5563C36.6091 48.7276 37.6223 50.0068 38.6356 50.0376C38.6519 50.0376 38.6846 50.0376 38.6846 50.0376H38.7173H38.7663C39.7632 50.0068 40.7601 48.743 41.0707 47.5717C41.2341 46.9552 41.1197 46.6623 41.0707 46.6315C41.038 46.6161 41.0216 46.6161 41.0053 46.6161C40.7275 46.6161 40.1391 47.248 39.6979 47.7104C39.4854 47.9262 39.2729 48.1573 39.0605 48.3731L38.701 48.7276L38.3414 48.3731C38.129 48.1727 37.9328 47.957 37.7367 47.7566C37.2791 47.2634 36.6581 46.6161 36.3639 46.6161Z" fill="#075985"/>
<path d="M34.9744 27.9059C34.2226 27.4897 33.3728 28.7381 32.3759 29.7245C31.3789 28.7381 30.4801 27.4897 29.7283 27.9059C28.7151 28.4607 30.2186 32.1134 32.2941 32.1751C32.3105 32.1751 32.3759 32.1751 32.3759 32.1751C32.3759 32.1751 32.4085 32.1751 32.4412 32.1751C34.5004 32.1134 35.9876 28.4607 34.9744 27.9059Z" fill="white"/>
<path d="M32.425 32.6374C32.4087 32.6374 32.3924 32.6374 32.376 32.6374C32.3597 32.6374 32.327 32.6374 32.3106 32.6374H32.2943C30.7254 32.5912 29.4506 30.9729 29.0421 29.4625C28.7806 28.5223 28.944 27.8134 29.4833 27.5205C29.6631 27.4281 29.8429 27.3818 30.039 27.3818C30.7908 27.3818 31.4118 28.0446 32.1472 28.8306C32.2126 28.9077 32.2943 28.9847 32.376 29.0618C32.4577 28.9693 32.5558 28.8768 32.6375 28.7844C33.3402 28.0292 33.9449 27.3818 34.6804 27.3818C34.8765 27.3818 35.0726 27.4281 35.236 27.5205C35.7753 27.8134 35.9388 28.5378 35.6936 29.4779C35.285 30.9729 34.0266 32.5912 32.4577 32.6374H32.425ZM30.039 28.2912C30.0226 28.2912 30.0063 28.2912 29.9736 28.3066C29.9246 28.3374 29.8102 28.6148 29.9736 29.2313C30.2841 30.4026 31.2974 31.6819 32.3106 31.7127C32.327 31.7127 32.3597 31.7127 32.3597 31.7127H32.3924H32.4414C33.4383 31.6819 34.4352 30.4181 34.7457 29.2467C34.9092 28.6302 34.7948 28.3374 34.7457 28.3066C34.713 28.2912 34.6967 28.2912 34.6804 28.2912C34.4025 28.2912 33.8142 28.9231 33.3729 29.3854C33.1605 29.6012 32.948 29.8324 32.7356 30.0482L32.376 30.4026L32.0165 30.0482C31.804 29.8478 31.6079 29.632 31.4118 29.4317C30.9705 28.9539 30.3495 28.2912 30.039 28.2912Z" fill="#075985"/>
<path d="M34.9724 30.6028C34.2206 30.1866 33.3708 31.435 32.3739 32.4214C31.377 31.435 30.4781 30.1866 29.7264 30.6028C28.7131 31.1576 30.2166 34.8103 32.2922 34.872C32.3085 34.872 32.3739 34.872 32.3739 34.872C32.3739 34.872 32.4066 34.872 32.4393 34.872C34.4985 34.7949 35.9857 31.1576 34.9724 30.6028Z" fill="white"/>
<path d="M32.4238 35.3189C32.4075 35.3189 32.3911 35.3189 32.3748 35.3189C32.3584 35.3189 32.3257 35.3189 32.3094 35.3189H32.2767C30.7078 35.2727 29.4331 33.6544 29.0245 32.144C28.763 31.2039 28.9264 30.4949 29.4658 30.2021C29.6455 30.1096 29.8253 30.0634 30.0214 30.0634C30.7732 30.0634 31.3942 30.7261 32.1296 31.5121C32.195 31.5892 32.2767 31.6662 32.3584 31.7433C32.4401 31.6508 32.5382 31.5583 32.6199 31.4659C33.3227 30.7107 33.9273 30.0634 34.6628 30.0634C34.8589 30.0634 35.055 30.1096 35.2184 30.2021C35.7577 30.4949 35.9212 31.2193 35.676 32.1594C35.2675 33.6544 34.0091 35.2727 32.4401 35.3189H32.4238ZM30.0378 30.9727C30.0214 30.9727 30.0051 30.9727 29.9724 30.9881C29.9234 31.0189 29.809 31.2963 29.9724 31.9128C30.2829 33.0842 31.2961 34.3634 32.3094 34.3942C32.3257 34.3942 32.3584 34.3942 32.3584 34.3942H32.3911H32.4401C33.4371 34.3634 34.434 33.0996 34.7445 31.9282C34.9079 31.3117 34.7935 31.0189 34.7445 30.9881C34.7118 30.9727 34.6955 30.9727 34.6791 30.9727C34.4013 30.9727 33.8129 31.6046 33.3717 32.067C33.1592 32.2827 32.9468 32.5139 32.7343 32.7297L32.3748 33.0842L32.0152 32.7297C31.8028 32.5293 31.6067 32.3135 31.4105 32.1132C30.9693 31.6354 30.3483 30.9727 30.0378 30.9727Z" fill="#075985"/>
<path d="M32.2776 29.4468C32.8463 29.4468 33.3072 28.26 33.3072 26.7959C33.3072 25.3319 32.8463 24.145 32.2776 24.145C31.709 24.145 31.248 25.3319 31.248 26.7959C31.248 28.26 31.709 29.4468 32.2776 29.4468Z" fill="white"/>
<path d="M32.2777 29.9247C31.2318 29.9247 30.7578 28.3065 30.7578 26.796C30.7578 25.2856 31.2318 23.6674 32.2777 23.6674C33.3236 23.6674 33.7976 25.2856 33.7976 26.796C33.7976 28.3065 33.3236 29.9247 32.2777 29.9247ZM32.2777 24.6229C32.0979 24.777 31.7384 25.5168 31.7384 26.796C31.7384 28.0753 32.0979 28.8305 32.2777 28.9692C32.4575 28.8151 32.817 28.0753 32.817 26.796C32.817 25.5168 32.4575 24.7616 32.2777 24.6229Z" fill="#075985"/>
<path d="M34.908 33.1153C34.1562 32.6992 33.3064 33.9476 32.3094 34.934C31.3125 33.9476 30.4137 32.6992 29.6619 33.1153C28.6487 33.6702 30.1522 37.3229 32.2277 37.3846C32.2441 37.3846 32.3094 37.3846 32.3094 37.3846C32.3094 37.3846 32.3421 37.3846 32.3748 37.3846C34.434 37.3229 35.9212 33.6856 34.908 33.1153Z" fill="white"/>
<path d="M32.3594 37.8469C32.343 37.8469 32.3267 37.8469 32.3103 37.8469C32.294 37.8469 32.2613 37.8469 32.245 37.8469H32.2123C30.6434 37.8007 29.3686 36.1824 28.96 34.672C28.6986 33.7318 28.862 33.0229 29.4013 32.73C29.5811 32.6375 29.7608 32.5913 29.957 32.5913C30.7087 32.5913 31.3298 33.254 32.0652 34.0401C32.1306 34.1171 32.2123 34.1942 32.294 34.2712C32.3757 34.1788 32.4738 34.0863 32.5555 33.9938C33.2582 33.2386 33.8629 32.5913 34.5983 32.5913C34.7944 32.5913 34.9906 32.6375 35.154 32.73C35.6933 33.0229 35.8567 33.7472 35.6116 34.6874C35.203 36.1824 33.9446 37.8007 32.3757 37.8469H32.3594ZM29.9733 33.5006C29.957 33.5006 29.9406 33.5006 29.9079 33.516C29.8589 33.5469 29.7445 33.8243 29.9079 34.4408C30.2184 35.6121 31.2317 36.8913 32.245 36.9222C32.2613 36.9222 32.294 36.9222 32.294 36.9222H32.3267H32.3757C33.3726 36.8913 34.3695 35.6275 34.68 34.4562C34.8435 33.8397 34.7291 33.5469 34.68 33.516C34.6474 33.5006 34.631 33.5006 34.6147 33.5006C34.3368 33.5006 33.7485 34.1325 33.3072 34.5949C33.0948 34.8107 32.8823 35.0419 32.6699 35.2576L32.3103 35.6121L31.9508 35.2576C31.7383 35.0573 31.5422 34.8415 31.3461 34.6411C30.8885 34.1634 30.2675 33.5006 29.9733 33.5006Z" fill="#075985"/>
<path d="M34.908 35.8125C34.1562 35.3964 33.3064 36.6448 32.3094 37.6311C31.3125 36.6448 30.4137 35.3964 29.6619 35.8125C28.6487 36.3673 30.1522 40.02 32.2277 40.0817C32.2441 40.0817 32.3094 40.0817 32.3094 40.0817C32.3094 40.0817 32.3421 40.0817 32.3748 40.0817C34.434 40.02 35.9212 36.3673 34.908 35.8125Z" fill="white"/>
<path d="M32.3594 40.5288C32.343 40.5288 32.3267 40.5288 32.3103 40.5288C32.294 40.5288 32.2613 40.5288 32.245 40.5288H32.2123C30.6434 40.4825 29.3686 38.8643 28.96 37.3539C28.6986 36.4137 28.862 35.7047 29.4013 35.4119C29.5811 35.3194 29.7608 35.2732 29.957 35.2732C30.7087 35.2732 31.3298 35.9359 32.0652 36.7219C32.1306 36.799 32.2123 36.8761 32.294 36.9531C32.3757 36.8607 32.4738 36.7682 32.5555 36.6757C33.2582 35.9205 33.8629 35.2732 34.5983 35.2732C34.7944 35.2732 34.9906 35.3194 35.154 35.4119C35.6933 35.7047 35.8567 36.4291 35.6116 37.3693C35.203 38.8643 33.9446 40.4825 32.3757 40.5288H32.3594ZM29.9733 36.1825C29.957 36.1825 29.9406 36.1825 29.9079 36.1979C29.8589 36.2288 29.7445 36.5062 29.9079 37.1227C30.2184 38.294 31.2317 39.5732 32.245 39.604C32.2613 39.604 32.294 39.604 32.294 39.604H32.3103H32.3594C33.3563 39.5732 34.3532 38.3094 34.6637 37.1381C34.8271 36.5216 34.7127 36.2288 34.6637 36.1979C34.631 36.1825 34.6147 36.1825 34.5983 36.1825C34.3205 36.1825 33.7322 36.8144 33.2909 37.2768C33.0784 37.4926 32.866 37.7237 32.6535 37.9395L32.294 38.294L31.9344 37.9395C31.722 37.7392 31.5259 37.5234 31.3298 37.323C30.8885 36.8452 30.2675 36.1825 29.9733 36.1825Z" fill="#075985"/>
<path d="M34.9724 38.34C34.2206 37.9238 33.3708 39.1722 32.3739 40.1586C31.377 39.1722 30.4781 37.9238 29.7264 38.34C28.7131 38.8948 30.2166 42.5475 32.2922 42.6092C32.3085 42.6092 32.3739 42.6092 32.3739 42.6092C32.3739 42.6092 32.4066 42.6092 32.4393 42.6092C34.4985 42.5321 35.9857 38.8948 34.9724 38.34Z" fill="white"/>
<path d="M32.4238 43.0561C32.4075 43.0561 32.3911 43.0561 32.3748 43.0561C32.3584 43.0561 32.3257 43.0561 32.3094 43.0561H32.2767C30.7078 43.0099 29.4331 41.3916 29.0245 39.8812C28.763 38.941 28.9264 38.2321 29.4658 37.9392C29.6455 37.8468 29.8253 37.8005 30.0214 37.8005C30.7732 37.8005 31.3942 38.4633 32.1296 39.2493C32.195 39.3264 32.2767 39.4034 32.3584 39.4805C32.4401 39.388 32.5382 39.2955 32.6199 39.2031C33.3227 38.4479 33.9273 37.8005 34.6628 37.8005C34.8589 37.8005 35.055 37.8468 35.2184 37.9392C35.7577 38.2321 35.9212 38.9565 35.676 39.8966C35.2675 41.3916 34.0091 43.0099 32.4401 43.0561H32.4238ZM30.0378 38.7099C30.0214 38.7099 30.0051 38.7099 29.9724 38.7253C29.9234 38.7561 29.809 39.0335 29.9724 39.65C30.2829 40.8213 31.2961 42.1006 32.3094 42.1314C32.3257 42.1314 32.3584 42.1314 32.3584 42.1314H32.3748H32.4238C33.4207 42.1006 34.4176 40.8368 34.7281 39.6654C34.8916 39.0489 34.7772 38.7561 34.7281 38.7253C34.6955 38.7099 34.6791 38.7099 34.6628 38.7099C34.3849 38.7099 33.7966 39.3418 33.3553 39.8041C33.1429 40.0199 32.9304 40.2511 32.718 40.4669L32.3584 40.8213L31.9989 40.4669C31.7864 40.2665 31.5903 40.0507 31.3942 39.8504C30.9693 39.3726 30.3483 38.7099 30.0378 38.7099Z" fill="#075985"/>
<path d="M34.9744 41.0217C34.2226 40.6056 33.3728 41.854 32.3759 42.8404C31.3789 41.854 30.4801 40.6056 29.7283 41.0217C28.7151 41.5766 30.2186 45.2293 32.2941 45.2909C32.3105 45.2909 32.3759 45.2909 32.3759 45.2909C32.3759 45.2909 32.4085 45.2909 32.4412 45.2909C34.5004 45.2293 35.9876 41.5766 34.9744 41.0217Z" fill="white"/>
<path d="M32.425 45.7533C32.4087 45.7533 32.3924 45.7533 32.376 45.7533C32.3597 45.7533 32.327 45.7533 32.3106 45.7533H32.2943C30.7254 45.707 29.4506 44.0887 29.0421 42.5783C28.7806 41.6382 28.944 40.9292 29.4833 40.6364C29.6631 40.5439 29.8429 40.4977 30.039 40.4977C30.7908 40.4977 31.4118 41.1604 32.1472 41.9464C32.2126 42.0235 32.2943 42.1006 32.376 42.1776C32.4577 42.0851 32.5558 41.9927 32.6375 41.9002C33.3402 41.145 33.9449 40.4977 34.6804 40.4977C34.8765 40.4977 35.0726 40.5439 35.236 40.6364C35.7753 40.9292 35.9388 41.6536 35.6936 42.5938C35.285 44.0887 34.0266 45.707 32.4577 45.7533H32.425ZM30.039 41.407C30.0226 41.407 30.0063 41.407 29.9736 41.4224C29.9246 41.4532 29.8102 41.7307 29.9736 42.3472C30.2841 43.5185 31.2974 44.7977 32.3106 44.8285C32.327 44.8285 32.3597 44.8285 32.3597 44.8285H32.3924H32.4414C33.4383 44.7977 34.4352 43.5339 34.7457 42.3626C34.9092 41.7461 34.7948 41.4532 34.7457 41.4224C34.713 41.407 34.6967 41.407 34.6804 41.407C34.4025 41.407 33.8142 42.0389 33.3729 42.5013C33.1605 42.717 32.948 42.9482 32.7356 43.164L32.376 43.5185L32.0165 43.164C31.804 42.9636 31.6079 42.7479 31.4118 42.5475C30.9705 42.0543 30.3495 41.407 30.039 41.407Z" fill="#075985"/>
<path d="M34.908 43.5491C34.1562 43.1329 33.3064 44.3813 32.3094 45.3677C31.3125 44.3813 30.4137 43.1329 29.6619 43.5491C28.6487 44.1039 30.1522 47.7566 32.2277 47.8183C32.2441 47.8183 32.3094 47.8183 32.3094 47.8183C32.3094 47.8183 32.3421 47.8183 32.3748 47.8183C34.434 47.7566 35.9212 44.1039 34.908 43.5491Z" fill="white"/>
<path d="M32.3586 48.2652C32.3423 48.2652 32.3259 48.2652 32.3096 48.2652C32.2933 48.2652 32.2606 48.2652 32.2442 48.2652H32.2279C30.659 48.219 29.3842 46.6007 28.9757 45.0903C28.7142 44.1502 28.8776 43.4412 29.4169 43.1484C29.5967 43.0559 29.7765 43.0096 29.9726 43.0096C30.7244 43.0096 31.3454 43.6724 32.0808 44.4584C32.1462 44.5355 32.2279 44.6125 32.3096 44.6896C32.3913 44.5971 32.4894 44.5046 32.5711 44.4122C33.2738 43.657 33.8785 43.0096 34.6139 43.0096C34.8101 43.0096 35.0062 43.0559 35.1696 43.1484C35.7089 43.4412 35.8723 44.1656 35.6272 45.1057C35.2186 46.6007 33.9602 48.219 32.3913 48.2652H32.3586ZM29.9726 43.919C29.9562 43.919 29.9399 43.919 29.9072 43.9344C29.8582 43.9652 29.7438 44.2426 29.9072 44.8591C30.2177 46.0305 31.231 47.3097 32.2442 47.3405C32.2606 47.3405 32.2933 47.3405 32.2933 47.3405H32.326H32.375C33.3719 47.3097 34.3688 46.0459 34.6793 44.8745C34.8427 44.258 34.7283 43.9652 34.6793 43.9344C34.6466 43.919 34.6303 43.919 34.6139 43.919C34.3361 43.919 33.7478 44.5509 33.3065 45.0132C33.0941 45.229 32.8816 45.4602 32.6691 45.676L32.3096 46.0305L31.9501 45.676C31.7376 45.4756 31.5415 45.2598 31.3454 45.0595C30.8878 44.5817 30.2668 43.919 29.9726 43.919Z" fill="#075985"/>
<path d="M34.908 46.2308C34.1562 45.8147 33.3064 47.0631 32.3094 48.0495C31.3125 47.0631 30.4137 45.8147 29.6619 46.2308C28.6487 46.7857 30.1522 50.4384 32.2277 50.5C32.2441 50.5 32.3094 50.5 32.3094 50.5C32.3094 50.5 32.3421 50.5 32.3748 50.5C34.434 50.4384 35.9212 46.7857 34.908 46.2308Z" fill="white"/>
<path d="M32.3586 50.9624C32.3423 50.9624 32.3259 50.9624 32.3096 50.9624C32.2933 50.9624 32.2606 50.9624 32.2442 50.9624H32.2279C30.659 50.9161 29.3842 49.2978 28.9757 47.7874C28.7142 46.8473 28.8776 46.1383 29.4169 45.8455C29.5967 45.753 29.7765 45.7068 29.9726 45.7068C30.7244 45.7068 31.3454 46.3695 32.0808 47.1555C32.1462 47.2326 32.2279 47.3097 32.3096 47.3867C32.3913 47.2943 32.4894 47.2018 32.5711 47.1093C33.2738 46.3541 33.8785 45.7068 34.6139 45.7068C34.8101 45.7068 35.0062 45.753 35.1696 45.8455C35.7089 46.1383 35.8723 46.8627 35.6272 47.8029C35.2186 49.2978 33.9602 50.9161 32.3913 50.9624H32.3586ZM29.9726 46.6161C29.9562 46.6161 29.9399 46.6161 29.9072 46.6315C29.8582 46.6623 29.7438 46.9398 29.9072 47.5563C30.2177 48.7276 31.231 50.0068 32.2442 50.0376C32.2606 50.0376 32.2933 50.0376 32.2933 50.0376H32.326H32.375C33.3719 50.0068 34.3688 48.743 34.6793 47.5717C34.8427 46.9552 34.7283 46.6623 34.6793 46.6315C34.6466 46.6161 34.6303 46.6161 34.6139 46.6161C34.3361 46.6161 33.7478 47.248 33.3065 47.7104C33.0941 47.9262 32.8816 48.1573 32.6691 48.3731L32.3096 48.7276L31.9501 48.3731C31.7376 48.1727 31.5415 47.957 31.3454 47.7566C30.8878 47.2634 30.2668 46.6161 29.9726 46.6161Z" fill="#075985"/>
<path d="M28.7302 27.9059C27.9785 27.4897 27.1286 28.7381 26.1317 29.7245C25.1348 28.7381 24.2359 27.4897 23.4842 27.9059C22.4709 28.4607 23.9745 32.1134 26.05 32.1751C26.0663 32.1751 26.1317 32.1751 26.1317 32.1751C26.1317 32.1751 26.1644 32.1751 26.1971 32.1751C28.2563 32.1134 29.7435 28.4607 28.7302 27.9059Z" fill="white"/>
<path d="M26.1809 32.6374C26.1646 32.6374 26.1482 32.6374 26.1319 32.6374C26.1155 32.6374 26.0828 32.6374 26.0665 32.6374H26.0502C24.4812 32.5912 23.2065 30.9729 22.7979 29.4625C22.5364 28.5223 22.6999 27.8134 23.2392 27.5205C23.419 27.4281 23.5987 27.3818 23.7948 27.3818C24.5466 27.3818 25.1676 28.0446 25.9031 28.8306C25.9684 28.9077 26.0502 28.9847 26.1319 29.0618C26.2136 28.9693 26.3116 28.8768 26.3934 28.7844C27.0961 28.0292 27.7008 27.3818 28.4362 27.3818C28.6323 27.3818 28.8284 27.4281 28.9919 27.5205C29.5312 27.8134 29.6946 28.5378 29.4495 29.4779C29.0409 30.9729 27.7825 32.5912 26.2136 32.6374H26.1809ZM23.7948 28.2912C23.7785 28.2912 23.7622 28.2912 23.7295 28.3066C23.6804 28.3374 23.566 28.6148 23.7295 29.2313C24.04 30.4026 25.0532 31.6819 26.0665 31.7127C26.0828 31.7127 26.1155 31.7127 26.1155 31.7127H26.1482H26.1972C27.1942 31.6819 28.1911 30.4181 28.5016 29.2467C28.665 28.6302 28.5506 28.3374 28.5016 28.3066C28.4689 28.2912 28.4526 28.2912 28.4362 28.2912C28.1584 28.2912 27.57 28.9231 27.1288 29.3854C26.9163 29.6012 26.7039 29.8324 26.4914 30.0482L26.1319 30.4026L25.7723 30.0482C25.5599 29.8478 25.3638 29.632 25.1676 29.4317C24.71 28.9539 24.089 28.2912 23.7948 28.2912Z" fill="#075985"/>
<path d="M28.7302 30.6028C27.9785 30.1866 27.1286 31.435 26.1317 32.4214C25.1348 31.435 24.2359 30.1866 23.4842 30.6028C22.4709 31.1576 23.9745 34.8103 26.05 34.872C26.0663 34.872 26.1317 34.872 26.1317 34.872C26.1317 34.872 26.1644 34.872 26.1971 34.872C28.2563 34.7949 29.7435 31.1576 28.7302 30.6028Z" fill="white"/>
<path d="M26.1816 35.3189C26.1653 35.3189 26.1489 35.3189 26.1326 35.3189C26.1162 35.3189 26.0836 35.3189 26.0672 35.3189H26.0345C24.4656 35.2727 23.1909 33.6544 22.7823 32.144C22.5208 31.2039 22.6843 30.4949 23.2236 30.2021C23.4033 30.1096 23.5831 30.0634 23.7792 30.0634C24.531 30.0634 25.152 30.7261 25.8874 31.5121C25.9528 31.5892 26.0345 31.6662 26.1162 31.7433C26.198 31.6508 26.296 31.5583 26.3777 31.4659C27.0805 30.7107 27.6852 30.0634 28.4206 30.0634C28.6167 30.0634 28.8128 30.1096 28.9762 30.2021C29.5156 30.4949 29.679 31.2193 29.4338 32.1594C29.0253 33.6544 27.7669 35.2727 26.198 35.3189H26.1816ZM23.7956 30.9727C23.7792 30.9727 23.7629 30.9727 23.7302 30.9881C23.6812 31.0189 23.5668 31.2963 23.7302 31.9128C24.0407 33.0842 25.054 34.3634 26.0672 34.3942C26.0836 34.3942 26.1162 34.3942 26.1162 34.3942H26.1489H26.198C27.1949 34.3634 28.1918 33.0996 28.5023 31.9282C28.6657 31.3117 28.5513 31.0189 28.5023 30.9881C28.4696 30.9727 28.4533 30.9727 28.4369 30.9727C28.1591 30.9727 27.5708 31.6046 27.1295 32.067C26.917 32.2827 26.7046 32.5139 26.4921 32.7297L26.1326 33.0842L25.773 32.7297C25.5606 32.5293 25.3645 32.3135 25.1684 32.1132C24.7108 31.6354 24.0897 30.9727 23.7956 30.9727Z" fill="#075985"/>
<path d="M26.0335 29.4468C26.6021 29.4468 27.0631 28.26 27.0631 26.7959C27.0631 25.3319 26.6021 24.145 26.0335 24.145C25.4649 24.145 25.0039 25.3319 25.0039 26.7959C25.0039 28.26 25.4649 29.4468 26.0335 29.4468Z" fill="white"/>
<path d="M26.0336 29.9247C24.9876 29.9247 24.5137 28.3065 24.5137 26.796C24.5137 25.2856 24.9876 23.6674 26.0336 23.6674C27.0795 23.6674 27.5534 25.2856 27.5534 26.796C27.5534 28.3065 27.0795 29.9247 26.0336 29.9247ZM26.0336 24.6229C25.8538 24.777 25.4942 25.5168 25.4942 26.796C25.4942 28.0753 25.8538 28.8305 26.0336 28.9692C26.2133 28.8151 26.5729 28.0753 26.5729 26.796C26.5729 25.5168 26.2133 24.7616 26.0336 24.6229Z" fill="#075985"/>
<path d="M28.6658 33.1153C27.914 32.6992 27.0642 33.9476 26.0673 34.934C25.0703 33.9476 24.1715 32.6992 23.4197 33.1153C22.4065 33.6702 23.91 37.3229 25.9855 37.3846C26.0019 37.3846 26.0673 37.3846 26.0673 37.3846C26.0673 37.3846 26.0999 37.3846 26.1326 37.3846C28.1918 37.3229 29.679 33.6856 28.6658 33.1153Z" fill="white"/>
<path d="M26.0996 37.8469C26.0832 37.8469 26.0669 37.8469 26.0506 37.8469C26.0342 37.8469 26.0015 37.8469 25.9852 37.8469H25.9525C24.3836 37.8007 23.1088 36.1824 22.7003 34.672C22.4388 33.7318 22.6022 33.0229 23.1415 32.73C23.3213 32.6375 23.5011 32.5913 23.6972 32.5913C24.449 32.5913 25.07 33.254 25.8054 34.0401C25.8708 34.1171 25.9525 34.1942 26.0342 34.2712C26.1159 34.1788 26.214 34.0863 26.2957 33.9938C26.9984 33.2386 27.6031 32.5913 28.3386 32.5913C28.5347 32.5913 28.7308 32.6375 28.8942 32.73C29.4335 33.0229 29.597 33.7472 29.3518 34.6874C28.9432 36.1824 27.6848 37.8007 26.1159 37.8469H26.0996ZM23.7299 33.5006C23.7135 33.5006 23.6972 33.5006 23.6645 33.516C23.6155 33.5469 23.5011 33.8243 23.6645 34.4408C23.975 35.6121 24.9883 36.8913 26.0015 36.9222C26.0179 36.9222 26.0506 36.9222 26.0506 36.9222H26.0832H26.1323C27.1292 36.8913 28.1261 35.6275 28.4366 34.4562C28.6 33.8397 28.4856 33.5469 28.4366 33.516C28.4039 33.5006 28.3876 33.5006 28.3712 33.5006C28.0934 33.5006 27.5051 34.1325 27.0638 34.5949C26.8514 34.8107 26.6389 35.0419 26.4264 35.2576L26.0669 35.6121L25.7074 35.2576C25.4949 35.0573 25.2988 34.8415 25.1027 34.6411C24.6451 34.1634 24.024 33.5006 23.7299 33.5006Z" fill="#075985"/>
<path d="M28.6658 35.8125C27.914 35.3964 27.0642 36.6448 26.0673 37.6311C25.0703 36.6448 24.1715 35.3964 23.4197 35.8125C22.4065 36.3673 23.91 40.02 25.9855 40.0817C26.0019 40.0817 26.0673 40.0817 26.0673 40.0817C26.0673 40.0817 26.0999 40.0817 26.1326 40.0817C28.1918 40.02 29.679 36.3673 28.6658 35.8125Z" fill="white"/>
<path d="M26.0996 40.5288C26.0832 40.5288 26.0669 40.5288 26.0506 40.5288C26.0342 40.5288 26.0015 40.5288 25.9852 40.5288H25.9525C24.3836 40.4825 23.1088 38.8643 22.7003 37.3539C22.4388 36.4137 22.6022 35.7047 23.1415 35.4119C23.3213 35.3194 23.5011 35.2732 23.6972 35.2732C24.449 35.2732 25.07 35.9359 25.8054 36.7219C25.8708 36.799 25.9525 36.8761 26.0342 36.9531C26.1159 36.8607 26.214 36.7682 26.2957 36.6757C26.9984 35.9205 27.6031 35.2732 28.3386 35.2732C28.5347 35.2732 28.7308 35.3194 28.8942 35.4119C29.4335 35.7047 29.597 36.4291 29.3518 37.3693C28.9432 38.8643 27.6848 40.4825 26.1159 40.5288H26.0996ZM23.7299 36.1825C23.7135 36.1825 23.6972 36.1825 23.6645 36.1979C23.6155 36.2288 23.5011 36.5062 23.6645 37.1227C23.975 38.294 24.9883 39.5732 26.0015 39.604C26.0179 39.604 26.0506 39.604 26.0506 39.604H26.0669H26.1159C27.1128 39.5732 28.1098 38.3094 28.4203 37.1381C28.5837 36.5216 28.4693 36.2288 28.4203 36.1979C28.3876 36.1825 28.3712 36.1825 28.3549 36.1825C28.0771 36.1825 27.4887 36.8144 27.0475 37.2768C26.835 37.4926 26.6226 37.7237 26.4101 37.9395L26.0506 38.294L25.691 37.9395C25.4786 37.7392 25.2824 37.5234 25.0863 37.323C24.6451 36.8452 24.024 36.1825 23.7299 36.1825Z" fill="#075985"/>
<path d="M28.7302 38.34C27.9785 37.9238 27.1286 39.1722 26.1317 40.1586C25.1348 39.1722 24.2359 37.9238 23.4842 38.34C22.4709 38.8948 23.9745 42.5475 26.05 42.6092C26.0663 42.6092 26.1317 42.6092 26.1317 42.6092C26.1317 42.6092 26.1644 42.6092 26.1971 42.6092C28.2563 42.5321 29.7435 38.8948 28.7302 38.34Z" fill="white"/>
<path d="M26.1816 43.0561C26.1653 43.0561 26.1489 43.0561 26.1326 43.0561C26.1162 43.0561 26.0836 43.0561 26.0672 43.0561H26.0345C24.4656 43.0099 23.1909 41.3916 22.7823 39.8812C22.5208 38.941 22.6843 38.2321 23.2236 37.9392C23.4033 37.8468 23.5831 37.8005 23.7792 37.8005C24.531 37.8005 25.152 38.4633 25.8874 39.2493C25.9528 39.3264 26.0345 39.4034 26.1162 39.4805C26.198 39.388 26.296 39.2955 26.3777 39.2031C27.0805 38.4479 27.6852 37.8005 28.4206 37.8005C28.6167 37.8005 28.8128 37.8468 28.9762 37.9392C29.5156 38.2321 29.679 38.9565 29.4338 39.8966C29.0253 41.3916 27.7669 43.0099 26.198 43.0561H26.1816ZM23.7956 38.7099C23.7792 38.7099 23.7629 38.7099 23.7302 38.7253C23.6812 38.7561 23.5668 39.0335 23.7302 39.65C24.0407 40.8213 25.054 42.1006 26.0672 42.1314C26.0836 42.1314 26.1162 42.1314 26.1162 42.1314H26.1326H26.1816C27.1785 42.1006 28.1754 40.8368 28.486 39.6654C28.6494 39.0489 28.535 38.7561 28.486 38.7253C28.4533 38.7099 28.4369 38.7099 28.4206 38.7099C28.1428 38.7099 27.5544 39.3418 27.1132 39.8041C26.9007 40.0199 26.6882 40.2511 26.4758 40.4669L26.1162 40.8213L25.7567 40.4669C25.5443 40.2665 25.3481 40.0507 25.152 39.8504C24.7108 39.3726 24.0897 38.7099 23.7956 38.7099Z" fill="#075985"/>
<path d="M28.7302 41.0217C27.9785 40.6056 27.1286 41.854 26.1317 42.8404C25.1348 41.854 24.2359 40.6056 23.4842 41.0217C22.4709 41.5766 23.9745 45.2293 26.05 45.2909C26.0663 45.2909 26.1317 45.2909 26.1317 45.2909C26.1317 45.2909 26.1644 45.2909 26.1971 45.2909C28.2563 45.2293 29.7435 41.5766 28.7302 41.0217Z" fill="white"/>
<path d="M26.1809 45.7533C26.1646 45.7533 26.1482 45.7533 26.1319 45.7533C26.1155 45.7533 26.0828 45.7533 26.0665 45.7533H26.0502C24.4812 45.707 23.2065 44.0887 22.7979 42.5783C22.5364 41.6382 22.6999 40.9292 23.2392 40.6364C23.419 40.5439 23.5987 40.4977 23.7948 40.4977C24.5466 40.4977 25.1676 41.1604 25.9031 41.9464C25.9684 42.0235 26.0502 42.1006 26.1319 42.1776C26.2136 42.0851 26.3116 41.9927 26.3934 41.9002C27.0961 41.145 27.7008 40.4977 28.4362 40.4977C28.6323 40.4977 28.8284 40.5439 28.9919 40.6364C29.5312 40.9292 29.6946 41.6536 29.4495 42.5938C29.0409 44.0887 27.7825 45.707 26.2136 45.7533H26.1809ZM23.7948 41.407C23.7785 41.407 23.7622 41.407 23.7295 41.4224C23.6804 41.4532 23.566 41.7307 23.7295 42.3472C24.04 43.5185 25.0532 44.7977 26.0665 44.8285C26.0828 44.8285 26.1155 44.8285 26.1155 44.8285H26.1482H26.1972C27.1942 44.7977 28.1911 43.5339 28.5016 42.3626C28.665 41.7461 28.5506 41.4532 28.5016 41.4224C28.4689 41.407 28.4526 41.407 28.4362 41.407C28.1584 41.407 27.57 42.0389 27.1288 42.5013C26.9163 42.717 26.7039 42.9482 26.4914 43.164L26.1319 43.5185L25.7723 43.164C25.5599 42.9636 25.3638 42.7479 25.1676 42.5475C24.71 42.0543 24.089 41.407 23.7948 41.407Z" fill="#075985"/>
<path d="M28.6638 43.5491C27.912 43.1329 27.0622 44.3813 26.0653 45.3677C25.0684 44.3813 24.1695 43.1329 23.4178 43.5491C22.4045 44.1039 23.9081 47.7566 25.9836 47.8183C25.9999 47.8183 26.0653 47.8183 26.0653 47.8183C26.0653 47.8183 26.098 47.8183 26.1307 47.8183C28.1899 47.7566 29.6771 44.1039 28.6638 43.5491Z" fill="white"/>
<path d="M26.0989 48.2652C26.0825 48.2652 26.0662 48.2652 26.0498 48.2652C26.0335 48.2652 26.0008 48.2652 25.9845 48.2652H25.9681C24.3992 48.219 23.1245 46.6007 22.7159 45.0903C22.4544 44.1502 22.6178 43.4412 23.1572 43.1484C23.3369 43.0559 23.5167 43.0096 23.7128 43.0096C24.4646 43.0096 25.0856 43.6724 25.821 44.4584C25.8864 44.5355 25.9681 44.6125 26.0498 44.6896C26.1316 44.5971 26.2296 44.5046 26.3113 44.4122C27.0141 43.657 27.6188 43.0096 28.3542 43.0096C28.5503 43.0096 28.7464 43.0559 28.9098 43.1484C29.4492 43.4412 29.6126 44.1656 29.3674 45.1057C28.9589 46.6007 27.7005 48.219 26.1316 48.2652H26.0989ZM23.7292 43.919C23.7128 43.919 23.6965 43.919 23.6638 43.9344C23.6148 43.9652 23.5004 44.2426 23.6638 44.8591C23.9743 46.0305 24.9876 47.3097 26.0008 47.3405C26.0172 47.3405 26.0498 47.3405 26.0498 47.3405H26.0825H26.1316C27.1285 47.3097 28.1254 46.0459 28.4359 44.8745C28.5993 44.258 28.4849 43.9652 28.4359 43.9344C28.4032 43.919 28.3869 43.919 28.3705 43.919C28.0927 43.919 27.5044 44.5509 27.0631 45.0132C26.8506 45.229 26.6382 45.4602 26.4257 45.676L26.0662 46.0305L25.7066 45.676C25.4942 45.4756 25.2981 45.2598 25.102 45.0595C24.6444 44.5817 24.0233 43.919 23.7292 43.919Z" fill="#075985"/>
<path d="M28.6638 46.2308C27.912 45.8147 27.0622 47.0631 26.0653 48.0495C25.0684 47.0631 24.1695 45.8147 23.4178 46.2308C22.4045 46.7857 23.9081 50.4384 25.9836 50.5C25.9999 50.5 26.0653 50.5 26.0653 50.5C26.0653 50.5 26.098 50.5 26.1307 50.5C28.1899 50.4384 29.6771 46.7857 28.6638 46.2308Z" fill="white"/>
<path d="M26.0989 50.9624C26.0825 50.9624 26.0662 50.9624 26.0498 50.9624C26.0335 50.9624 26.0008 50.9624 25.9845 50.9624H25.9681C24.3992 50.9161 23.1245 49.2978 22.7159 47.7874C22.4544 46.8473 22.6178 46.1383 23.1572 45.8455C23.3369 45.753 23.5167 45.7068 23.7128 45.7068C24.4646 45.7068 25.0856 46.3695 25.821 47.1555C25.8864 47.2326 25.9681 47.3097 26.0498 47.3867C26.1316 47.2943 26.2296 47.2018 26.3113 47.1093C27.0141 46.3541 27.6188 45.7068 28.3542 45.7068C28.5503 45.7068 28.7464 45.753 28.9098 45.8455C29.4492 46.1383 29.6126 46.8627 29.3674 47.8029C28.9589 49.2978 27.7005 50.9161 26.1316 50.9624H26.0989ZM23.7292 46.6161C23.7128 46.6161 23.6965 46.6161 23.6638 46.6315C23.6148 46.6623 23.5004 46.9398 23.6638 47.5563C23.9743 48.7276 24.9876 50.0068 26.0008 50.0376C26.0172 50.0376 26.0498 50.0376 26.0498 50.0376H26.0825H26.1316C27.1285 50.0068 28.1254 48.743 28.4359 47.5717C28.5993 46.9552 28.4849 46.6623 28.4359 46.6315C28.4032 46.6161 28.3869 46.6161 28.3705 46.6161C28.0927 46.6161 27.5044 47.248 27.0631 47.7104C26.8506 47.9262 26.6382 48.1573 26.4257 48.3731L26.0662 48.7276L25.7066 48.3731C25.4942 48.1727 25.2981 47.957 25.102 47.7566C24.6444 47.2634 24.0233 46.6161 23.7292 46.6161Z" fill="#075985"/>
<path d="M22.3396 27.9059C21.5878 27.4897 20.738 28.7381 19.7411 29.7245C18.7442 28.7381 17.8453 27.4897 17.0935 27.9059C16.0803 28.4607 17.5838 32.1134 19.6594 32.1751C19.6757 32.1751 19.7411 32.1751 19.7411 32.1751C19.7411 32.1751 19.7738 32.1751 19.8065 32.1751C21.8657 32.1134 23.3529 28.4607 22.3396 27.9059Z" fill="white"/>
<path d="M19.7903 32.6374C19.7739 32.6374 19.7576 32.6374 19.7412 32.6374C19.7249 32.6374 19.6922 32.6374 19.6759 32.6374H19.6595C18.0906 32.5912 16.8159 30.9729 16.4073 29.4625C16.1458 28.5223 16.3093 27.8134 16.8486 27.5205C17.0283 27.4281 17.2081 27.3818 17.4042 27.3818C18.156 27.3818 18.777 28.0446 19.5124 28.8306C19.5778 28.9077 19.6595 28.9847 19.7412 29.0618C19.823 28.9693 19.921 28.8768 20.0027 28.7844C20.7055 28.0292 21.3102 27.3818 22.0456 27.3818C22.2417 27.3818 22.4378 27.4281 22.6012 27.5205C23.1406 27.8134 23.304 28.5378 23.0588 29.4779C22.6503 30.9729 21.3919 32.5912 19.823 32.6374H19.7903ZM17.4042 28.2912C17.3879 28.2912 17.3715 28.2912 17.3389 28.3066C17.2898 28.3374 17.1754 28.6148 17.3389 29.2313C17.6494 30.4026 18.6626 31.6819 19.6759 31.7127C19.6922 31.7127 19.7249 31.7127 19.7249 31.7127H19.7576H19.8066C20.8035 31.6819 21.8004 30.4181 22.111 29.2467C22.2744 28.6302 22.16 28.3374 22.111 28.3066C22.0783 28.2912 22.0619 28.2912 22.0456 28.2912C21.7678 28.2912 21.1794 28.9231 20.7382 29.3854C20.5257 29.6012 20.3132 29.8324 20.1008 30.0482L19.7412 30.4026L19.3817 30.0482C19.1692 29.8478 18.9731 29.632 18.777 29.4317C18.3358 28.9539 17.7147 28.2912 17.4042 28.2912Z" fill="#075985"/>
<path d="M22.3396 30.6028C21.5878 30.1866 20.738 31.435 19.7411 32.4214C18.7442 31.435 17.8453 30.1866 17.0935 30.6028C16.0803 31.1576 17.5838 34.8103 19.6594 34.872C19.6757 34.872 19.7411 34.872 19.7411 34.872C19.7411 34.872 19.7738 34.872 19.8065 34.872C21.8657 34.7949 23.3529 31.1576 22.3396 30.6028Z" fill="white"/>
<path d="M19.791 35.3189C19.7747 35.3189 19.7583 35.3189 19.742 35.3189C19.7256 35.3189 19.6929 35.3189 19.6766 35.3189H19.6439C18.075 35.2727 16.8003 33.6544 16.3917 32.144C16.1302 31.2039 16.2936 30.4949 16.8329 30.2021C17.0127 30.1096 17.1925 30.0634 17.3886 30.0634C18.1404 30.0634 18.7614 30.7261 19.4968 31.5121C19.5622 31.5892 19.6439 31.6662 19.7256 31.7433C19.8073 31.6508 19.9054 31.5583 19.9871 31.4659C20.6899 30.7107 21.2945 30.0634 22.03 30.0634C22.2261 30.0634 22.4222 30.1096 22.5856 30.2021C23.1249 30.4949 23.2884 31.2193 23.0432 32.1594C22.6346 33.6544 21.3762 35.2727 19.8073 35.3189H19.791ZM17.4049 30.9727C17.3886 30.9727 17.3723 30.9727 17.3396 30.9881C17.2905 31.0189 17.1761 31.2963 17.3396 31.9128C17.6501 33.0842 18.6633 34.3634 19.6766 34.3942C19.6929 34.3942 19.7256 34.3942 19.7256 34.3942H19.7583H19.791C20.7879 34.3634 21.7848 33.0996 22.0953 31.9282C22.2588 31.3117 22.1444 31.0189 22.0953 30.9881C22.0626 30.9727 22.0463 30.9727 22.03 30.9727C21.7521 30.9727 21.1638 31.6046 20.7225 32.067C20.5101 32.2827 20.2976 32.5139 20.0852 32.7297L19.7256 33.0842L19.3661 32.7297C19.1536 32.5293 18.9575 32.3135 18.7614 32.1132C18.3365 31.6354 17.7155 30.9727 17.4049 30.9727Z" fill="#075985"/>
<path d="M19.6448 29.4468C20.2135 29.4468 20.6744 28.26 20.6744 26.7959C20.6744 25.3319 20.2135 24.145 19.6448 24.145C19.0762 24.145 18.6152 25.3319 18.6152 26.7959C18.6152 28.26 19.0762 29.4468 19.6448 29.4468Z" fill="white"/>
<path d="M19.6449 29.9247C18.5989 29.9247 18.125 28.3065 18.125 26.796C18.125 25.2856 18.5989 23.6674 19.6449 23.6674C20.6908 23.6674 21.1648 25.2856 21.1648 26.796C21.1648 28.3065 20.6908 29.9247 19.6449 29.9247ZM19.6449 24.6229C19.4651 24.777 19.1056 25.5168 19.1056 26.796C19.1056 28.0753 19.4651 28.8305 19.6449 28.9692C19.8247 28.8151 20.1842 28.0753 20.1842 26.796C20.1842 25.5168 19.8247 24.7616 19.6449 24.6229Z" fill="#075985"/>
<path d="M22.2751 33.1153C21.5234 32.6992 20.6735 33.9476 19.6766 34.934C18.6797 33.9476 17.7809 32.6992 17.0291 33.1153C16.0158 33.6702 17.5194 37.3229 19.5949 37.3846C19.6113 37.3846 19.6766 37.3846 19.6766 37.3846C19.6766 37.3846 19.7093 37.3846 19.742 37.3846C21.8012 37.3229 23.2884 33.6856 22.2751 33.1153Z" fill="white"/>
<path d="M19.709 37.8469C19.6926 37.8469 19.6763 37.8469 19.6599 37.8469C19.6436 37.8469 19.6109 37.8469 19.5946 37.8469H19.5619C17.993 37.8007 16.7182 36.1824 16.3097 34.672C16.0482 33.7318 16.2116 33.0229 16.7509 32.73C16.9307 32.6375 17.1105 32.5913 17.3066 32.5913C18.0583 32.5913 18.6794 33.254 19.4148 34.0401C19.4802 34.1171 19.5619 34.1942 19.6436 34.2712C19.7253 34.1788 19.8234 34.0863 19.9051 33.9938C20.6078 33.2386 21.2125 32.5913 21.9479 32.5913C22.144 32.5913 22.3402 32.6375 22.5036 32.73C23.0429 33.0229 23.2063 33.7472 22.9612 34.6874C22.5526 36.1824 21.2942 37.8007 19.7253 37.8469H19.709ZM17.3393 33.5006C17.3229 33.5006 17.3066 33.5006 17.2739 33.516C17.2249 33.5469 17.1105 33.8243 17.2739 34.4408C17.5844 35.6121 18.5976 36.8913 19.6109 36.9222C19.6272 36.9222 19.6599 36.9222 19.6599 36.9222H19.6926H19.7416C20.7386 36.8913 21.7355 35.6275 22.046 34.4562C22.2094 33.8397 22.095 33.5469 22.046 33.516C22.0133 33.5006 21.997 33.5006 21.9806 33.5006C21.7028 33.5006 21.1144 34.1325 20.6732 34.5949C20.4607 34.8107 20.2483 35.0419 20.0358 35.2576L19.6763 35.6121L19.3167 35.2576C19.1043 35.0573 18.9082 34.8415 18.712 34.6411C18.2545 34.1634 17.6334 33.5006 17.3393 33.5006Z" fill="#075985"/>
<path d="M22.2732 35.8125C21.5214 35.3964 20.6716 36.6448 19.6747 37.6311C18.6778 36.6448 17.7789 35.3964 17.0271 35.8125C16.0139 36.3673 17.5174 40.02 19.593 40.0817C19.6093 40.0817 19.6747 40.0817 19.6747 40.0817C19.6747 40.0817 19.7074 40.0817 19.7401 40.0817C21.7993 40.02 23.2864 36.3673 22.2732 35.8125Z" fill="white"/>
<path d="M19.7246 40.5288C19.7082 40.5288 19.6919 40.5288 19.6756 40.5288C19.6592 40.5288 19.6265 40.5288 19.6102 40.5288H19.5775C18.0086 40.4825 16.7338 38.8643 16.3253 37.3539C16.0638 36.4137 16.2272 35.7047 16.7665 35.4119C16.9463 35.3194 17.1261 35.2732 17.3222 35.2732C18.074 35.2732 18.695 35.9359 19.4304 36.7219C19.4958 36.799 19.5775 36.8761 19.6592 36.9531C19.7409 36.8607 19.839 36.7682 19.9207 36.6757C20.6234 35.9205 21.2281 35.2732 21.9636 35.2732C22.1597 35.2732 22.3558 35.3194 22.5192 35.4119C23.0585 35.7047 23.222 36.4291 22.9768 37.3693C22.5682 38.8643 21.3098 40.4825 19.7409 40.5288H19.7246ZM17.3385 36.1825C17.3222 36.1825 17.3058 36.1825 17.2732 36.1979C17.2241 36.2288 17.1097 36.5062 17.2732 37.1227C17.5837 38.294 18.5969 39.5732 19.6102 39.604C19.6265 39.604 19.6592 39.604 19.6592 39.604H19.6756H19.7246C20.7215 39.5732 21.7184 38.3094 22.0289 37.1381C22.1924 36.5216 22.078 36.2288 22.0289 36.1979C21.9962 36.1825 21.9799 36.1825 21.9636 36.1825C21.6857 36.1825 21.0974 36.8144 20.6561 37.2768C20.4437 37.4926 20.2312 37.7237 20.0188 37.9395L19.6592 38.294L19.2997 37.9395C19.0872 37.7392 18.8911 37.5234 18.695 37.323C18.2537 36.8452 17.6327 36.1825 17.3385 36.1825Z" fill="#075985"/>
<path d="M22.3396 38.34C21.5878 37.9238 20.738 39.1722 19.7411 40.1586C18.7442 39.1722 17.8453 37.9238 17.0935 38.34C16.0803 38.8948 17.5838 42.5475 19.6594 42.6092C19.6757 42.6092 19.7411 42.6092 19.7411 42.6092C19.7411 42.6092 19.7738 42.6092 19.8065 42.6092C21.8657 42.5321 23.3529 38.8948 22.3396 38.34Z" fill="white"/>
<path d="M19.791 43.0561C19.7747 43.0561 19.7583 43.0561 19.742 43.0561C19.7256 43.0561 19.6929 43.0561 19.6766 43.0561H19.6439C18.075 43.0099 16.8003 41.3916 16.3917 39.8812C16.1302 38.941 16.2936 38.2321 16.8329 37.9392C17.0127 37.8468 17.1925 37.8005 17.3886 37.8005C18.1404 37.8005 18.7614 38.4633 19.4968 39.2493C19.5622 39.3264 19.6439 39.4034 19.7256 39.4805C19.8073 39.388 19.9054 39.2955 19.9871 39.2031C20.6899 38.4479 21.2945 37.8005 22.03 37.8005C22.2261 37.8005 22.4222 37.8468 22.5856 37.9392C23.1249 38.2321 23.2884 38.9565 23.0432 39.8966C22.6346 41.3916 21.3762 43.0099 19.8073 43.0561H19.791ZM17.4049 38.7099C17.3886 38.7099 17.3723 38.7099 17.3396 38.7253C17.2905 38.7561 17.1761 39.0335 17.3396 39.65C17.6501 40.8213 18.6633 42.1006 19.6766 42.1314C19.6929 42.1314 19.7256 42.1314 19.7256 42.1314H19.742H19.791C20.7879 42.1006 21.7848 40.8368 22.0953 39.6654C22.2588 39.0489 22.1444 38.7561 22.0953 38.7253C22.0626 38.7099 22.0463 38.7099 22.03 38.7099C21.7521 38.7099 21.1638 39.3418 20.7225 39.8041C20.5101 40.0199 20.2976 40.2511 20.0852 40.4669L19.7256 40.8213L19.3661 40.4669C19.1536 40.2665 18.9575 40.0507 18.7614 39.8504C18.3365 39.3726 17.7155 38.7099 17.4049 38.7099Z" fill="#075985"/>
<path d="M22.3396 41.0217C21.5878 40.6056 20.738 41.854 19.7411 42.8404C18.7442 41.854 17.8453 40.6056 17.0935 41.0217C16.0803 41.5766 17.5838 45.2293 19.6594 45.2909C19.6757 45.2909 19.7411 45.2909 19.7411 45.2909C19.7411 45.2909 19.7738 45.2909 19.8065 45.2909C21.8657 45.2293 23.3529 41.5766 22.3396 41.0217Z" fill="white"/>
<path d="M19.7903 45.7533C19.7739 45.7533 19.7576 45.7533 19.7412 45.7533C19.7249 45.7533 19.6922 45.7533 19.6759 45.7533H19.6595C18.0906 45.707 16.8159 44.0887 16.4073 42.5783C16.1458 41.6382 16.3093 40.9292 16.8486 40.6364C17.0283 40.5439 17.2081 40.4977 17.4042 40.4977C18.156 40.4977 18.777 41.1604 19.5124 41.9464C19.5778 42.0235 19.6595 42.1006 19.7412 42.1776C19.823 42.0851 19.921 41.9927 20.0027 41.9002C20.7055 41.145 21.3102 40.4977 22.0456 40.4977C22.2417 40.4977 22.4378 40.5439 22.6012 40.6364C23.1406 40.9292 23.304 41.6536 23.0588 42.5938C22.6503 44.0887 21.3919 45.707 19.823 45.7533H19.7903ZM17.4042 41.407C17.3879 41.407 17.3715 41.407 17.3389 41.4224C17.2898 41.4532 17.1754 41.7307 17.3389 42.3472C17.6494 43.5185 18.6626 44.7977 19.6759 44.8285C19.6922 44.8285 19.7249 44.8285 19.7249 44.8285H19.7576H19.8066C20.8035 44.7977 21.8004 43.5339 22.111 42.3626C22.2744 41.7461 22.16 41.4532 22.111 41.4224C22.0783 41.407 22.0619 41.407 22.0456 41.407C21.7678 41.407 21.1794 42.0389 20.7382 42.5013C20.5257 42.717 20.3132 42.9482 20.1008 43.164L19.7412 43.5185L19.3817 43.164C19.1692 42.9636 18.9731 42.7479 18.777 42.5475C18.3358 42.0543 17.7147 41.407 17.4042 41.407Z" fill="#075985"/>
<path d="M22.2751 43.5491C21.5234 43.1329 20.6735 44.3813 19.6766 45.3677C18.6797 44.3813 17.7809 43.1329 17.0291 43.5491C16.0158 44.1039 17.5194 47.7566 19.5949 47.8183C19.6113 47.8183 19.6766 47.8183 19.6766 47.8183C19.6766 47.8183 19.7093 47.8183 19.742 47.8183C21.8012 47.7566 23.2884 44.1039 22.2751 43.5491Z" fill="white"/>
<path d="M19.7258 48.2652C19.7095 48.2652 19.6931 48.2652 19.6768 48.2652C19.6605 48.2652 19.6278 48.2652 19.6114 48.2652H19.5951C18.0262 48.219 16.7514 46.6007 16.3429 45.0903C16.0814 44.1502 16.2448 43.4412 16.7841 43.1484C16.9639 43.0559 17.1437 43.0096 17.3398 43.0096C18.0915 43.0096 18.7126 43.6724 19.448 44.4584C19.5134 44.5355 19.5951 44.6125 19.6768 44.6896C19.7585 44.5971 19.8566 44.5046 19.9383 44.4122C20.641 43.657 21.2457 43.0096 21.9811 43.0096C22.1772 43.0096 22.3734 43.0559 22.5368 43.1484C23.0761 43.4412 23.2395 44.1656 22.9944 45.1057C22.5858 46.6007 21.3274 48.219 19.7585 48.2652H19.7258ZM17.3398 43.919C17.3234 43.919 17.3071 43.919 17.2744 43.9344C17.2254 43.9652 17.111 44.2426 17.2744 44.8591C17.5849 46.0305 18.5982 47.3097 19.6114 47.3405C19.6278 47.3405 19.6605 47.3405 19.6605 47.3405H19.6931H19.7422C20.7391 47.3097 21.736 46.0459 22.0465 44.8745C22.2099 44.258 22.0955 43.9652 22.0465 43.9344C22.0138 43.919 21.9975 43.919 21.9811 43.919C21.7033 43.919 21.115 44.5509 20.6737 45.0132C20.4613 45.229 20.2488 45.4602 20.0363 45.676L19.6768 46.0305L19.3173 45.676C19.1048 45.4756 18.9087 45.2598 18.7126 45.0595C18.255 44.5817 17.6339 43.919 17.3398 43.919Z" fill="#075985"/>
<path d="M22.2751 46.2308C21.5234 45.8147 20.6735 47.0631 19.6766 48.0495C18.6797 47.0631 17.7809 45.8147 17.0291 46.2308C16.0158 46.7857 17.5194 50.4384 19.5949 50.5C19.6113 50.5 19.6766 50.5 19.6766 50.5C19.6766 50.5 19.7093 50.5 19.742 50.5C21.8012 50.4384 23.2884 46.7857 22.2751 46.2308Z" fill="white"/>
<path d="M19.7258 50.9624C19.7095 50.9624 19.6931 50.9624 19.6768 50.9624C19.6605 50.9624 19.6278 50.9624 19.6114 50.9624H19.5951C18.0262 50.9161 16.7514 49.2978 16.3429 47.7874C16.0814 46.8473 16.2448 46.1383 16.7841 45.8455C16.9639 45.753 17.1437 45.7068 17.3398 45.7068C18.0915 45.7068 18.7126 46.3695 19.448 47.1555C19.5134 47.2326 19.5951 47.3097 19.6768 47.3867C19.7585 47.2943 19.8566 47.2018 19.9383 47.1093C20.641 46.3541 21.2457 45.7068 21.9811 45.7068C22.1772 45.7068 22.3734 45.753 22.5368 45.8455C23.0761 46.1383 23.2395 46.8627 22.9944 47.8029C22.5858 49.2978 21.3274 50.9161 19.7585 50.9624H19.7258ZM17.3398 46.6161C17.3234 46.6161 17.3071 46.6161 17.2744 46.6315C17.2254 46.6623 17.111 46.9398 17.2744 47.5563C17.5849 48.7276 18.5982 50.0068 19.6114 50.0376C19.6278 50.0376 19.6605 50.0376 19.6605 50.0376H19.6931H19.7422C20.7391 50.0068 21.736 48.743 22.0465 47.5717C22.2099 46.9552 22.0955 46.6623 22.0465 46.6315C22.0138 46.6161 21.9975 46.6161 21.9811 46.6161C21.7033 46.6161 21.115 47.248 20.6737 47.7104C20.4613 47.9262 20.2488 48.1573 20.0363 48.3731L19.6768 48.7276L19.3173 48.3731C19.1048 48.1727 18.9087 47.957 18.7126 47.7566C18.255 47.2634 17.6339 46.6161 17.3398 46.6161Z" fill="#075985"/>
<path d="M68.9185 52.3805C68.8694 52.3343 64.653 46.9708 63.5253 45.6146C63.035 45.0289 62.3977 44.4278 61.842 43.9038C61.3027 43.3952 60.7961 42.9174 60.4692 42.5013L60.4529 42.4859C58.7042 39.9583 57.4294 38.078 56.8738 36.7833C56.3672 35.612 55.6481 34.2711 55.0107 33.0844C54.8309 32.7607 54.6675 32.4371 54.5041 32.1442C53.736 30.6955 52.4612 28.8922 51.6604 28.1524C51.2192 27.7363 50.6962 26.8886 50.1242 25.9793C49.7156 25.332 49.3071 24.6539 48.9475 24.2069L48.8168 24.0682C47.3132 22.4037 45.728 20.5234 45.8587 19.3674C45.9241 18.7201 46.3327 18.1191 47.0027 17.6413C47.8035 17.071 48.8821 16.7936 49.6829 16.9323C51.0557 17.1635 53.0822 18.8588 54.5531 20.2305C54.8146 20.4771 55.3539 21.1707 56.2201 22.3112C57.0699 23.4209 58.0505 24.6847 58.5734 25.2395C58.9493 25.6248 59.4069 26.1797 59.8482 26.7345C60.3385 27.3356 61.0739 28.2295 61.3844 28.4607C61.7766 28.3374 62.0218 28.0908 63.0677 26.4263C62.6428 25.5015 62.0708 24.7309 61.6132 24.099C61.1883 23.5288 60.8451 23.051 60.698 22.604C58.2793 22.2804 56.2854 19.9994 55.3212 18.8743C55.2068 18.7355 55.0761 18.5968 54.9944 18.5044C52.641 18.4735 48.7841 15.5914 48.0977 15.0674C47.444 14.8362 43.2275 13.2796 42.1489 11.1835C41.3481 9.61148 42.5248 7.57705 42.9987 7.16092C43.3256 6.8835 43.538 6.99139 45.2213 7.83906C47.7381 9.11828 52.4285 11.5226 56.2691 11.8617C57.6746 11.985 58.8676 13.0484 59.5867 13.6649C59.7338 13.8036 59.8972 13.9423 59.9626 13.9731C60.2404 14.1427 60.5346 14.3585 60.8778 14.6051C62.0872 15.4681 63.9012 16.7936 67.3659 18.2424L67.5783 18.3348C68.2647 18.6277 69.5231 19.1517 70.1605 19.1979C70.7652 19.2287 72.8081 19.4599 73.9194 20.7391C74.6058 21.5252 74.7202 22.8352 74.8509 24.2223C74.9653 25.3782 75.0634 26.565 75.5046 27.351C76.2074 28.6148 77.7109 38.2783 77.7272 39.8658C77.7436 41.5765 80.3911 45.3525 81.4044 46.678L80.6036 47.2174C80.4402 47.0171 76.763 42.2239 76.7467 39.8658C76.7303 38.2629 75.2268 28.8306 74.6385 27.7826C74.1155 26.827 73.9847 25.5478 73.8703 24.3148C73.7559 23.128 73.6415 21.8951 73.1513 21.3248C72.2687 20.3076 70.4383 20.1381 70.0788 20.1226C69.327 20.0764 68.2157 19.6295 67.1534 19.1825L66.941 19.09C63.3619 17.595 61.4988 16.2388 60.2568 15.3448C59.9299 15.0982 59.6357 14.8979 59.3906 14.7438C59.2598 14.6667 59.0964 14.528 58.884 14.3276C58.2629 13.7728 57.217 12.8635 56.1547 12.7556C52.118 12.3857 47.3132 9.93513 44.7311 8.62509C44.2571 8.37849 43.7668 8.1319 43.489 8.0086C43.1458 8.50179 42.5248 9.78101 43.0151 10.752C43.8159 12.3086 47.2479 13.7728 48.4899 14.2043L48.5716 14.2352L48.637 14.2814C49.8627 15.237 53.4091 17.6721 55.1251 17.5488L55.2395 17.5334L55.3376 17.5796C55.5337 17.6567 55.6644 17.8108 56.0566 18.2578C56.9228 19.2596 58.9493 21.5868 61.1066 21.6793L61.5642 21.6947V22.1262C61.5642 22.4191 61.9564 22.9585 62.3813 23.5288C62.9043 24.2377 63.5743 25.1316 64.0319 26.2567L64.1137 26.4725L63.9993 26.6729C62.7245 28.7073 62.3977 29.1388 61.4661 29.37C60.8941 29.5087 60.4038 28.9385 59.0474 27.2739C58.6225 26.7499 58.1649 26.1951 57.8217 25.8406C57.266 25.2549 56.2691 23.9757 55.4029 22.8352C54.7329 21.9721 54.0465 21.0628 53.834 20.8624C51.9219 19.0746 50.3367 17.9649 49.4705 17.8108C48.9312 17.7183 48.1304 17.9495 47.5584 18.3502C47.1171 18.6585 46.8393 19.0438 46.8066 19.4291C46.7085 20.2768 48.8495 22.6503 49.5359 23.4363L49.6829 23.6058C50.0752 24.099 50.5164 24.7926 50.925 25.4861C51.4316 26.2876 51.9383 27.1352 52.2978 27.4589C53.2784 28.3682 54.6021 30.341 55.3212 31.6973C55.4846 31.9901 55.6481 32.3138 55.8115 32.6374C56.4489 33.8396 57.1843 35.1959 57.7073 36.398C58.2466 37.6156 59.4886 39.4651 61.2046 41.9464C61.4825 42.3009 61.9727 42.7479 62.4794 43.2257C63.0677 43.7651 63.7214 44.3816 64.2444 45.0135C65.3884 46.3852 69.6212 51.7486 69.6539 51.7949L68.9185 52.3805Z" fill="#075985"/>
<path d="M48.7368 23.4516L48.1484 22.7118C48.459 22.496 48.9492 22.2186 49.4722 21.9412C50.1096 21.5867 51.2863 20.9394 51.466 20.662C51.4987 20.2304 50.2567 18.5659 49.1127 17.672L49.7337 16.963C50.4201 17.5024 52.8552 19.8913 52.3812 21.001C52.1688 21.4942 51.3353 21.9874 49.9625 22.7426C49.4722 22.9892 49.0146 23.2512 48.7368 23.4516Z" fill="#075985"/>
<path d="M60.485 28.7378C59.864 27.9517 59.9457 27.027 60.0601 25.8557C60.1418 24.9001 60.2562 23.7134 59.9947 22.28L60.959 22.1105C61.2531 23.6671 61.1387 24.9155 61.0407 25.9327C60.9426 26.9499 60.8772 27.6743 61.2858 28.1829L60.485 28.7378Z" fill="#075985"/>
<path d="M46.3984 10.875C45.1236 10.875 43.2932 8.74815 42.7539 8.0546L43.5384 7.49976C44.6333 8.85604 46.0061 10.0274 46.4147 9.95031C46.6925 9.90407 46.9704 9.65747 47.2645 9.41088L47.9346 10.089C47.575 10.4127 47.1501 10.7672 46.5945 10.8596C46.5291 10.875 46.4637 10.875 46.3984 10.875Z" fill="#075985"/>
<path d="M57.839 25.1469C57.7736 25.1469 57.7246 25.1469 57.7246 25.1469L57.79 24.2221C57.8063 24.2221 58.9176 24.2684 60.1924 23.4669L60.748 24.2375C59.4079 25.0698 58.2149 25.1469 57.839 25.1469Z" fill="#075985"/>
<path d="M47.3949 33.7313C46.8229 33.7313 46.2835 33.608 45.924 33.2998C45.5808 33.007 45.4337 32.5908 45.5318 32.1285C45.7769 30.9109 46.3653 29.755 46.5941 29.308C46.6267 29.2618 46.6431 29.231 46.6431 29.2001C47.3949 27.0578 48.7023 24.6843 49.2253 23.96L50.0424 24.484C49.5685 25.1467 48.2937 27.474 47.5746 29.5084C47.5583 29.5546 47.5419 29.6009 47.4766 29.7087C47.2641 30.1095 46.7248 31.1883 46.496 32.298C46.4633 32.4675 46.5123 32.5446 46.5777 32.6062C46.8392 32.822 47.6237 32.8991 48.4408 32.6371C50.1895 32.0976 51.693 29.2464 52.1343 28.1983L53.0495 28.5374C52.9841 28.7069 51.3008 32.745 48.7513 33.531C48.3101 33.6543 47.8525 33.7313 47.3949 33.7313Z" fill="#075985"/>
</g>
<defs>
<clipPath id="clip0_5_11480">
<rect width="90" height="60" fill="white" transform="translate(0 0.764404)"/>
</clipPath>
</defs>
</svg>
