<svg width="90" height="61" viewBox="0 0 90 61" fill="none" xmlns="http://www.w3.org/2000/svg">
<g clip-path="url(#clip0_5_11719)">
<ellipse cx="28.7642" cy="38.1054" rx="23.5337" ry="22.1937" fill="#E0F2FE"/>
<path d="M70.5033 42.3157C70.4215 42.3157 70.3398 42.3157 70.2581 42.3157C66.8098 42.177 63.4758 40.6049 61.1061 38.0002C60.5178 37.3529 59.4065 36.3665 58.099 35.2106C54.9285 32.4056 50.5813 28.5679 49.4537 25.7475C48.8 24.1446 48.228 21.6016 47.705 18.2109C47.6723 17.9643 47.8521 17.7177 48.1136 17.6868C48.3751 17.656 48.6365 17.8256 48.6692 18.0721C49.1595 21.3396 49.7479 23.8826 50.3525 25.4084C51.4148 28.0439 55.664 31.7891 58.7528 34.5325C60.0765 35.7038 61.2205 36.7056 61.8252 37.3837C64.9467 40.8053 68.7709 41.3139 70.2745 41.3755C73.5267 41.4988 77.5143 38.6938 77.547 38.663C77.7595 38.5088 78.07 38.5551 78.2334 38.7554C78.3969 38.9558 78.3478 39.2486 78.1354 39.4027C77.9883 39.526 74.0497 42.3157 70.5033 42.3157Z" fill="#075985"/>
<path d="M27.195 53.8287L27.1133 52.9039C27.2931 52.8885 45.7768 51.486 49.5357 47.4942C53.9646 42.8089 53.3435 31.0339 53.3435 30.9106L54.3241 30.8644C54.3568 31.3576 54.9615 43.1326 50.2711 48.1107C46.2507 52.3799 27.9631 53.767 27.195 53.8287Z" fill="#075985"/>
<path d="M70.585 31.327C69.5227 31.327 68.5095 31.2345 68.0682 31.0342C67.3001 30.6797 64.1296 27.7976 63.5086 27.2273C63.3125 27.0424 63.3125 26.7496 63.4922 26.58C63.6883 26.3951 63.9825 26.3951 64.1786 26.5646C65.5841 27.8438 68.0192 29.9707 68.4931 30.2019C69.0651 30.4793 72.2683 30.4639 73.1835 30.1711C74.066 29.9091 76.5502 27.8747 78.021 26.58C78.2171 26.4105 78.5276 26.4105 78.7074 26.5954C78.8872 26.7804 78.8872 27.0732 78.6911 27.2428C78.2988 27.5818 74.8505 30.618 73.494 31.0342C72.9711 31.2191 71.7617 31.327 70.585 31.327Z" fill="#075985"/>
<path d="M70.9287 27.9207C70.9123 27.9207 70.8796 27.9207 70.8633 27.9207C70.2423 27.9052 69.7193 27.6278 69.2617 27.3812C68.9675 27.2271 68.6897 27.073 68.4609 27.0422C68.1177 27.0113 67.1371 27.1038 66.2873 27.1809C65.5192 27.2579 64.7184 27.335 64.1464 27.3504C62.839 27.3812 61.3845 26.9497 61.3191 26.9343C61.0576 26.8572 60.9268 26.5952 61.0086 26.3486C61.0903 26.102 61.3681 25.9787 61.6296 26.0558C61.6459 26.0558 62.986 26.4565 64.13 26.4411C64.6694 26.4257 65.4375 26.3486 66.1892 26.287C67.2352 26.1791 68.134 26.102 68.5916 26.1482C69.0002 26.1945 69.3924 26.3948 69.752 26.5952C70.1279 26.7956 70.5201 27.0113 70.896 27.0113C71.2228 27.0267 71.468 26.888 71.8112 26.6877C72.1871 26.4719 72.6447 26.2253 73.3147 26.1174C74.1482 25.9787 75.4556 26.1482 76.5996 26.287C77.188 26.364 77.76 26.4257 78.1685 26.4565C79.2799 26.5027 80.5219 26.1482 80.5383 26.1482C80.7997 26.0712 81.0776 26.2099 81.1593 26.4565C81.241 26.7031 81.0939 26.9651 80.8324 27.0422C80.7834 27.0576 79.4269 27.4583 78.1359 27.3966C77.6783 27.3812 77.1063 27.3042 76.4852 27.2271C75.4066 27.0884 74.1809 26.9343 73.4782 27.0422C72.9879 27.1192 72.661 27.3042 72.3178 27.5045C71.9092 27.6895 71.5007 27.9207 70.9287 27.9207Z" fill="#075985"/>
<path d="M78.3971 27.289C78.2664 27.289 78.1356 27.2428 78.0376 27.1503C76.7955 25.9328 74.671 24.1912 73.8538 24.1449C73.2001 24.0987 72.6281 24.4686 72.1215 24.7922C71.6802 25.0697 71.3043 25.3163 70.8794 25.3008C70.4872 25.2854 70.0296 25.0697 69.523 24.8077C69 24.5611 68.428 24.2374 67.9704 24.2374C67.5128 24.2374 65.7314 25.532 64.0481 27.0887C63.852 27.2736 63.5415 27.2582 63.3617 27.0887C63.1656 26.9037 63.182 26.6109 63.3617 26.4414C64.3913 25.4858 66.9081 23.2664 68.0194 23.3281C68.6895 23.3589 69.3759 23.698 69.9806 23.9908C70.3238 24.1603 70.7487 24.3761 70.9285 24.3761C71.0429 24.3761 71.3534 24.1603 71.5658 24.037C72.1378 23.6671 72.9059 23.174 73.9029 23.2202C75.4064 23.3127 78.1847 25.979 78.7403 26.503C78.9201 26.688 78.9201 26.9808 78.724 27.1503C78.6423 27.2428 78.5279 27.289 78.3971 27.289Z" fill="#075985"/>
<path d="M71.0263 20.3069C70.0457 20.3069 69.4901 19.8292 69.0488 19.4284C68.6239 19.0431 68.3134 18.7811 67.6433 18.8428C66.0908 18.9969 65.4534 17.3478 65.3063 16.3614C65.2736 16.1148 65.4697 15.8836 65.7312 15.8374C65.9927 15.8066 66.2378 15.9915 66.2869 16.2381C66.2869 16.2689 66.5647 18.0105 67.5453 17.918C68.6566 17.8101 69.2449 18.3342 69.7189 18.7503C70.1274 19.1048 70.4543 19.3976 71.0917 19.3822C71.9905 19.3514 72.3501 19.0431 72.775 18.6732C73.2326 18.2879 73.7555 17.841 74.8178 17.9026C75.112 17.918 75.3571 17.841 75.5533 17.6868C75.9945 17.3015 76.1253 16.5001 76.1416 16.2381C76.1579 15.9761 76.3704 15.7911 76.6482 15.7911C76.9261 15.8065 77.1222 16.0223 77.1222 16.2689C77.1222 16.4076 77.0405 17.656 76.207 18.365C75.8147 18.7041 75.3081 18.8582 74.7525 18.8274C74.0987 18.7965 73.8373 19.0123 73.4287 19.3668C72.9547 19.7675 72.3664 20.2761 71.108 20.3069C71.0917 20.3069 71.059 20.3069 71.0263 20.3069Z" fill="#075985"/>
<path d="M23.9574 20.9236L23.2383 20.2917C23.3363 20.1992 23.4671 20.1068 23.6795 19.968C23.7613 19.9218 23.8757 19.8448 23.892 19.8139C23.941 19.7677 24.0554 19.6444 24.1698 19.5057C24.7582 18.843 25.8531 17.5946 27.2586 17.2247C30.9684 16.2383 35.1195 13.0788 37.3585 11.3988C38.8457 10.2737 39.0418 10.1196 39.4177 10.3508C39.957 10.6744 41.5096 12.4777 41.0193 14.1576C40.3656 16.3924 36.5087 18.6426 35.904 18.9817C35.7896 19.105 35.4791 19.444 35.0542 19.8602L34.3351 19.2283C34.858 18.7042 35.2012 18.3343 35.2012 18.3189L35.2503 18.2573L35.3156 18.211C36.4596 17.5791 39.5648 15.5601 40.0551 13.8956C40.3492 12.863 39.4994 11.7071 39.0581 11.2755C38.7967 11.4451 38.3717 11.7841 37.9468 12.0924C35.6588 13.8185 31.4097 17.0551 27.5038 18.0878C26.4088 18.3806 25.4282 19.4749 24.9053 20.0605C24.7582 20.2301 24.6438 20.3534 24.5621 20.4304C24.4967 20.4921 24.3823 20.5691 24.2352 20.677C24.1535 20.7849 23.9901 20.8774 23.9574 20.9236Z" fill="#075985"/>
<path d="M36.5912 14.5274C36.0356 14.5274 35.5453 14.2808 35.1367 14.0187L35.6597 13.2481C36.0029 13.4485 36.3134 13.6489 36.5912 13.6489C36.9998 13.6489 38.1275 12.2772 38.9446 10.7513L39.8108 11.1366C39.3859 11.9535 37.8823 14.5274 36.5912 14.5274Z" fill="#075985"/>
<path d="M41.7241 22.5725L41.1684 21.8019L48.7025 17.0087C48.6208 16.7929 48.4083 16.3768 48.0324 15.8374L46.6923 13.8954C46.3164 13.356 46.0059 13.0169 45.8261 12.8474L35.3831 19.3668L34.8438 18.5962L45.5156 11.9227C45.9732 11.6452 46.4472 12.1076 46.6433 12.308C46.9048 12.57 47.2153 12.9553 47.5095 13.3714L48.8496 15.3134C49.1437 15.7295 49.3889 16.1456 49.536 16.4847C49.6504 16.7313 49.9118 17.3324 49.4542 17.6098L41.7241 22.5725Z" fill="#075985"/>
<path d="M37.0338 24.6838C35.7427 24.6838 34.3045 24.4989 33.2586 24.0211C33.0298 23.9132 32.7356 23.8978 32.4741 23.9903C31.1831 24.4372 28.274 24.5143 28.1596 24.5143L28.127 23.5896C28.1596 23.5896 31.0033 23.4971 32.1473 23.1118C32.6703 22.9422 33.2259 22.9576 33.6999 23.1734C35.4649 24.0057 38.6517 23.7745 39.5179 23.4508C40.1716 23.2042 40.7436 22.4182 41.0378 21.8171L41.9203 22.2024C41.7242 22.5878 41.0214 23.8824 39.8611 24.3139C39.3218 24.5297 38.2268 24.6838 37.0338 24.6838Z" fill="#075985"/>
<path d="M12.0774 52.5492C12.0774 50.4685 11.5381 46.3534 11.5381 46.3072L10.8844 39.572C10.8027 39.1405 9.80575 33.4996 10.3287 31.0336C10.6066 29.6928 11.6198 28.9068 12.4533 28.3673C12.6331 28.2594 12.8455 28.1207 13.107 27.982C14.0059 27.458 15.346 26.672 16.2285 25.7626L16.6207 25.3619C17.9281 24.0211 19.8893 21.9866 20.9025 21.3085C21.9648 20.5841 28.3058 18.3648 29.9728 18.5189C30.8717 18.6113 38.2586 19.644 41.0533 20.2296C41.4128 20.3067 41.707 20.5225 41.8867 20.8615C42.1155 21.2777 42.0992 21.8325 41.8704 22.2949L40.9879 21.9096C41.0859 21.6938 41.1023 21.4318 41.0042 21.2623C40.9552 21.1698 40.8898 21.139 40.8408 21.1236C37.9645 20.5071 30.6102 19.4898 29.8748 19.4282C28.5673 19.3049 22.4878 21.3547 21.4745 22.0483C20.543 22.6802 18.5492 24.7454 17.3398 25.9784L16.9476 26.3791C15.9833 27.3655 14.5615 28.1978 13.63 28.7526C13.3848 28.8913 13.1724 29.03 13.0089 29.1225C12.3226 29.5541 11.5218 30.186 11.293 31.2032C10.7863 33.5458 11.8486 39.3717 11.865 39.4179V39.4487L12.5187 46.1839C12.535 46.338 13.058 50.376 13.0743 52.5184L12.0774 52.5492Z" fill="#075985"/>
<path d="M12.7636 35.0257C12.7473 34.9487 12.5675 33.1917 13.2539 31.9278C13.6461 31.1881 14.2181 30.8798 14.7575 30.5716C15.1333 30.3712 15.5092 30.1554 15.8688 29.7855C16.8003 28.8146 22.4876 23.8056 23.5336 23.3894C24.5305 23.0041 27.2924 23.3894 27.8481 23.4819C28.273 23.5282 32.1953 24.0368 32.947 24.2834C33.4537 24.4529 34.7121 25.2081 36.2973 26.1945C36.8857 26.5644 37.4086 26.8726 37.7028 27.0422C38.2584 27.3504 39.0756 27.9977 39.5986 28.4601C40.7752 29.4773 40.906 29.8164 40.7589 30.14C40.1052 31.6042 37.7028 31.6196 35.7743 31.0185C35.2677 30.8644 34.614 30.4637 33.993 30.0784C33.519 29.7855 32.7999 29.354 32.5875 29.3232C30.8715 29.4156 27.2761 28.4139 27.1126 28.3676L27.3905 27.4737C27.4232 27.4891 30.9859 28.4755 32.5385 28.3984C32.9797 28.383 33.5517 28.7067 34.5159 29.2924C35.0716 29.6314 35.6926 30.0167 36.0849 30.14C37.5394 30.587 39.239 30.6178 39.762 29.9243C39.3861 29.4773 37.997 28.2597 37.2125 27.8282C36.902 27.6586 36.379 27.335 35.7743 26.9651C34.6957 26.3024 33.0614 25.3006 32.6365 25.1619C32.1462 24.9923 29.3679 24.607 27.7337 24.4067C26.4753 24.2217 24.4814 24.0368 23.9421 24.2525C23.174 24.5608 17.6992 29.3078 16.6205 30.4174C16.1629 30.8952 15.689 31.1418 15.2804 31.373C14.7738 31.6504 14.4143 31.8508 14.1528 32.344C13.6135 33.3612 13.7605 34.9024 13.7769 34.9178L12.7636 35.0257Z" fill="#075985"/>
<path d="M24.9887 47.6792C24.5802 43.5949 22.2758 41.0057 21.2953 39.896C20.8377 39.3874 20.6579 39.1716 20.7559 38.8634C21.5404 36.5824 21.7692 34.1472 21.7202 33.839C21.5731 33.1917 21.9653 32.6368 22.6517 32.4827C23.5342 32.2977 25.0051 31.7737 26.2635 30.9415L26.4269 30.8336L26.623 30.8644C26.7538 30.8798 26.8845 30.9415 27.0643 31.0339C27.5873 31.2651 28.5515 31.6967 30.1041 31.7121C31.2481 31.7275 32.1796 31.4809 32.5718 31.0494C32.6699 30.9415 32.7189 30.849 32.7353 30.7411C32.3267 30.4637 30.9049 29.7085 29.6138 29.0458L26.3125 28.2135C26.051 28.1518 25.7895 28.1518 25.5281 28.2289C21.3933 29.4619 19.2361 30.3404 18.9419 30.6486C18.5824 31.0339 18.2392 31.7891 17.8796 32.5906C17.5528 33.3304 17.1932 34.101 16.752 34.7637C15.9348 36.0121 15.8204 37.4917 15.8204 37.5071L14.8398 37.4455C14.8398 37.3684 14.9706 35.7193 15.9185 34.2859C16.327 33.6694 16.6539 32.9297 16.9808 32.2207C17.373 31.3422 17.7489 30.5253 18.2228 30.0321C18.8602 29.3694 22.3902 28.1981 25.2502 27.3504C25.6751 27.2271 26.1491 27.2117 26.574 27.3196L29.9733 28.1827L30.0223 28.2135C33.6014 30.0167 33.6504 30.2171 33.6831 30.4637C33.7648 30.8798 33.6178 31.3114 33.3072 31.6658C32.7189 32.3132 31.5422 32.6676 30.0877 32.6522C28.3227 32.6214 27.195 32.1282 26.6394 31.8816C26.623 31.8662 26.6067 31.8662 26.574 31.8508C25.2502 32.6831 23.763 33.2071 22.8478 33.392C22.6354 33.4383 22.619 33.5461 22.6517 33.654C22.7661 34.178 22.4556 36.7519 21.7202 38.9713C21.8019 39.0637 21.9163 39.187 22.0143 39.3103C23.0603 40.4817 25.4954 43.2251 25.9203 47.6021L24.9887 47.6792Z" fill="#075985"/>
<path d="M26.1982 56.6802L25.332 56.2332C25.9857 55.0927 26.3126 54.2605 26.6068 53.459C27.0644 52.2261 27.4729 51.1626 28.9601 49.4981C31.0684 47.1246 32.7027 39.9116 32.768 39.6188C32.817 39.3568 33.4381 35.8274 34.3533 34.1783C35.2848 32.4983 37.2133 30.6951 37.2786 30.618L37.965 31.2808C37.9487 31.2962 36.0693 33.0532 35.2031 34.6098C34.3369 36.1665 33.7159 39.7421 33.7159 39.7883V39.8038C33.6505 40.112 31.9999 47.5253 29.6956 50.0992C28.3228 51.6404 27.9632 52.5805 27.522 53.7827C27.2278 54.5687 26.8846 55.478 26.1982 56.6802Z" fill="#075985"/>
<path d="M27.177 35.6885L26.8665 35.334C26.3762 34.7946 24.8563 33.2996 23.8594 32.9451L24.2026 32.082C25.2975 32.4827 26.6377 33.7465 27.2587 34.3784C27.8961 33.7773 28.8603 32.6677 28.8113 31.7737L29.7918 31.7429C29.8735 33.5153 27.6346 35.3186 27.5365 35.3956L27.177 35.6885Z" fill="#075985"/>
<path d="M39.2706 22.2182C38.4207 22.2182 37.4892 22.1258 36.8518 21.8021C36.1327 21.4476 36.1654 20.6462 36.1818 20.1068V20.0143L37.1623 20.0451V20.1376C37.146 20.4612 37.1296 20.8928 37.3094 20.9853C38.29 21.4784 40.5453 21.2627 41.3298 21.124L41.4932 22.0333C41.3134 22.0641 40.3492 22.2182 39.2706 22.2182Z" fill="#075985"/>
<path d="M39.7618 30.3555C39.6638 30.3555 39.5657 30.3555 39.4677 30.34C38.34 30.2322 36.7221 29.5848 35.9539 28.583C35.7905 28.3673 35.3656 27.6121 36.5096 26.826L37.0816 27.5658C36.9018 27.6891 36.6403 27.9049 36.7384 28.0436C37.5555 29.1225 39.6474 29.5694 40.007 29.3845C40.007 29.3845 39.9906 29.3845 39.9743 29.3999L40.6443 30.078C40.4646 30.263 40.1704 30.3555 39.7618 30.3555Z" fill="#075985"/>
<path d="M33.0445 31.4964C32.7667 31.4502 30.2662 31.0803 29.4654 29.8782C29.2039 29.4774 29.1386 29.0305 29.302 28.5681L30.2335 28.8455C30.1682 29.0459 30.1845 29.2154 30.2989 29.385C30.7238 30.0169 32.2927 30.4638 33.1916 30.5871L33.0445 31.4964Z" fill="#075985"/>
<path d="M38.8809 28.4294C38.8809 28.4294 40.6295 25.7322 40.5642 23.4821L38.8809 28.4294Z" fill="white"/>
<path d="M39.2886 28.676L38.4551 28.1982C38.4714 28.1674 40.122 25.5781 40.073 23.4975L41.0536 23.4821C41.1026 25.8247 39.3703 28.5527 39.2886 28.676Z" fill="#075985"/>
<path d="M38.7468 24.5587L38.1914 23.7965L35.0664 25.8218L35.6218 26.5839L38.7468 24.5587Z" fill="#075985"/>
<path d="M49.3052 17.0861L48.7495 16.3154L49.3869 15.8993C49.3052 15.7144 49.1417 15.4215 48.8802 15.0362L47.8016 13.4642C47.5401 13.0789 47.3113 12.8323 47.1642 12.6781L46.5432 13.0789L46.0039 12.3083L46.8864 11.7534C47.2133 11.553 47.6545 11.553 48.6351 12.9556L49.7137 14.5276C50.678 15.9301 50.4982 16.3154 50.1877 16.5158L49.3052 17.0861Z" fill="#075985"/>
<path d="M65.2443 4.06681L64.7012 3.29688L48.4952 13.4643L49.0383 14.2342L65.2443 4.06681Z" fill="#075985"/>
<path d="M58.9162 9.96506C58.7527 9.96506 58.6056 9.888 58.5076 9.7647L56.6282 7.08296C56.4811 6.86719 56.5464 6.58977 56.7589 6.43565C56.9877 6.29694 57.2819 6.35859 57.4453 6.55895L59.3247 9.24068C59.4718 9.45646 59.4064 9.73388 59.194 9.888C59.0959 9.93424 58.9979 9.96506 58.9162 9.96506Z" fill="#075985"/>
<path d="M62.2658 7.71506C62.1023 7.71506 61.9552 7.638 61.8572 7.5147L59.9778 4.83296C59.8307 4.61719 59.896 4.33977 60.1085 4.18565C60.3373 4.04694 60.6315 4.10859 60.7949 4.30895L62.6743 6.99068C62.8214 7.20646 62.756 7.48388 62.5436 7.638C62.4619 7.69965 62.3638 7.71506 62.2658 7.71506Z" fill="#075985"/>
<path d="M63.5079 7.08335C63.3445 7.08335 63.1974 7.00629 63.0994 6.88299L61.22 4.20125C61.0729 3.98548 61.1382 3.70806 61.3507 3.55393C61.5795 3.41522 61.8737 3.47687 62.0371 3.67723L63.9165 6.35897C64.0636 6.57474 63.9982 6.85216 63.7858 7.00629C63.6877 7.06793 63.5897 7.08335 63.5079 7.08335Z" fill="#075985"/>
<path d="M64.4723 6.1277C64.3089 6.1277 64.1618 6.05063 64.0637 5.92734L62.4621 3.64632C62.3151 3.43055 62.3804 3.15313 62.5929 2.999C62.8217 2.86029 63.1159 2.92194 63.2793 3.1223L64.8809 5.40332C65.028 5.61909 64.9626 5.89651 64.7501 6.05063C64.6684 6.09687 64.5704 6.1277 64.4723 6.1277Z" fill="#075985"/>
<path d="M65.4701 5.29522C65.3066 5.29522 65.1596 5.21816 65.0615 5.09486L63.6887 3.15291C63.5416 2.93714 63.607 2.65972 63.8194 2.5056C64.0482 2.36688 64.3424 2.42853 64.5058 2.62889L65.8786 4.57084C66.0257 4.78661 65.9604 5.06403 65.7479 5.21816C65.6662 5.2798 65.5681 5.29522 65.4701 5.29522Z" fill="#075985"/>
<path d="M59.9943 9.19455C59.8308 9.19455 59.6838 9.11749 59.5857 8.99419L57.7063 6.31246C57.5592 6.09668 57.6246 5.81926 57.837 5.66514C58.0658 5.52643 58.36 5.58808 58.5234 5.78844L60.4028 8.47018C60.5499 8.68595 60.4846 8.96337 60.2721 9.11749C60.1904 9.16373 60.0923 9.19455 59.9943 9.19455Z" fill="#075985"/>
<path d="M61.09 8.42392C60.9265 8.42392 60.7795 8.34686 60.6814 8.22356L58.802 5.54183C58.6549 5.32605 58.7203 5.04863 58.9327 4.89451C59.1615 4.7558 59.4557 4.81745 59.6191 5.01781L61.4985 7.69955C61.6456 7.91532 61.5803 8.19274 61.3678 8.34686C61.2698 8.3931 61.188 8.42392 61.09 8.42392Z" fill="#075985"/>
</g>
<defs>
<clipPath id="clip0_5_11719">
<rect width="90" height="60" fill="white" transform="translate(0 0.764404)"/>
</clipPath>
</defs>
</svg>
