<svg width="90" height="61" viewBox="0 0 90 61" fill="none" xmlns="http://www.w3.org/2000/svg">
<g clip-path="url(#clip0_2727_5533)">
<ellipse cx="28.7642" cy="38.1054" rx="23.5337" ry="22.1937" fill="#E0F2FE"/>
<path d="M58.2957 46.9724L5.54102 46.9189L5.53935 47.8437L58.2941 47.8971L58.2957 46.9724Z" fill="#1E697A"/>
<path d="M37.0639 47.5076C36.5246 43.2076 32.6513 39.9556 28.0426 39.9556C23.5157 39.9556 19.6424 43.146 19.0541 47.3689L18.0898 47.2456C18.7599 42.5603 23.0417 39.0309 28.059 39.0309C33.1579 39.0309 37.4561 42.6219 38.0444 47.3998L37.0639 47.5076Z" fill="#1E697A"/>
<path d="M32.3892 59.0823L23.0411 59.0052C22.7632 59.0052 22.5508 58.7894 22.5508 58.5274C22.5508 58.2654 22.7796 58.0651 23.0411 58.0651L32.3892 58.1267C32.667 58.1267 32.8795 58.3579 32.8795 58.6045C32.8795 58.8665 32.667 59.0823 32.3892 59.0823Z" fill="#1E697A"/>
<path d="M28.1251 39.9708C27.8472 39.9708 27.6348 39.7704 27.6348 39.5084V28.4116C27.6348 28.1496 27.8472 27.9492 28.1251 27.9492C28.4029 27.9492 28.6153 28.1496 28.6153 28.4116V39.5084C28.6153 39.7704 28.3865 39.9708 28.1251 39.9708Z" fill="#1E697A"/>
<path d="M25.4135 39.9554C25.2011 39.9554 25.005 39.8167 24.9396 39.6164L20.8866 25.3446C20.8212 25.098 20.9683 24.8514 21.2298 24.7743C21.4912 24.7127 21.7527 24.8514 21.8344 25.098L25.8875 39.3698C25.9528 39.6164 25.8057 39.863 25.5443 39.94C25.4952 39.9554 25.4462 39.9554 25.4135 39.9554Z" fill="#1E697A"/>
<path d="M23.1572 40.9573C22.9937 40.9573 22.8303 40.8802 22.7322 40.7261L13.3515 25.4371C13.2207 25.2213 13.3024 24.9285 13.5312 24.8052C13.76 24.6819 14.0705 24.7589 14.2013 24.9747L23.5821 40.2637C23.7128 40.4795 23.6311 40.7723 23.4023 40.8956C23.3206 40.9264 23.2389 40.9573 23.1572 40.9573Z" fill="#1E697A"/>
<path d="M19.7075 44.1013C19.6258 44.1013 19.5441 44.0859 19.4624 44.0396L5.24412 36.3027C5.01532 36.1794 4.93361 35.8865 5.06435 35.6708C5.19509 35.455 5.50561 35.3779 5.73441 35.5012L19.9527 43.2382C20.1815 43.3615 20.2632 43.6543 20.1324 43.8701C20.0507 44.0242 19.8873 44.1013 19.7075 44.1013Z" fill="#1E697A"/>
<path d="M21.0977 42.3445C20.9669 42.3445 20.8525 42.2983 20.7545 42.2058L5.14709 27.4871C4.95097 27.3021 4.95097 27.0093 5.14709 26.8398C5.3432 26.6548 5.65371 26.6548 5.83348 26.8398L21.4409 41.5585C21.637 41.7434 21.637 42.0363 21.4409 42.2058C21.3428 42.2983 21.2284 42.3445 21.0977 42.3445Z" fill="#1E697A"/>
<path d="M18.7614 45.8737C18.7124 45.8737 18.6797 45.8737 18.6306 45.8583L5.40929 42.5138C5.1478 42.4522 4.98437 42.1902 5.06609 41.9436C5.13146 41.697 5.40929 41.5583 5.67077 41.6199L18.8921 44.9644C19.1536 45.026 19.317 45.2881 19.2353 45.5346C19.17 45.735 18.9738 45.8737 18.7614 45.8737Z" fill="#1E697A"/>
<path d="M31.1977 25.6371H5.53944C5.27796 25.6371 5.04916 25.4368 5.04916 25.1902C5.04916 25.0669 4.98378 22.0461 6.69978 20.3661C7.36984 19.7188 8.18698 19.3643 9.18389 19.3027C10.1645 17.4532 12.1419 16.2819 14.3319 16.2819C17.0775 16.2819 19.4145 18.1159 19.9702 20.5819C20.5095 20.3199 21.1632 20.1812 21.915 20.1812C23.6146 20.1812 25.0691 21.2909 25.5267 22.8629H29.1875C30.6747 22.8629 31.6716 23.7722 31.7043 25.1131C31.7043 25.1285 31.7043 25.1593 31.7043 25.1747C31.688 25.4368 31.4592 25.6371 31.1977 25.6371ZM6.04607 24.7124H30.642C30.3969 23.8647 29.4817 23.7876 29.1712 23.7876H25.1182C24.873 23.7876 24.6769 23.6181 24.6279 23.4023C24.3991 22.0769 23.2387 21.1059 21.8986 21.1059C21.0325 21.1059 20.3787 21.3217 19.9211 21.7378C19.7904 21.8611 19.5779 21.9073 19.3982 21.8457C19.2184 21.784 19.0877 21.6145 19.0877 21.445C18.9406 19.0715 16.8487 17.2066 14.3155 17.2066C12.4198 17.2066 10.7038 18.27 9.93566 19.9346C9.85395 20.1041 9.67418 20.212 9.49441 20.212C8.64458 20.212 7.95818 20.474 7.40252 20.998C6.3239 22.0615 6.0951 23.8801 6.04607 24.7124Z" fill="#1E697A"/>
<path d="M28.1251 39.9709C27.8472 39.9709 27.6348 39.7705 27.6348 39.5085V25.3292C27.6348 25.0672 27.8472 24.8668 28.1251 24.8668C28.4029 24.8668 28.6153 25.0672 28.6153 25.3292V39.5085C28.6153 39.7705 28.3865 39.9709 28.1251 39.9709Z" fill="#1E697A"/>
<path d="M30.8545 40.048C30.8055 40.048 30.7728 40.048 30.7237 40.0326C30.4623 39.9709 30.2988 39.7089 30.3805 39.4623L35.9534 19.8425C36.0188 19.5959 36.2966 19.4572 36.5581 19.5189C36.8196 19.5805 36.983 19.8425 36.9013 20.0891L31.3284 39.7089C31.2631 39.9093 31.0669 40.048 30.8545 40.048Z" fill="#1E697A"/>
<path d="M33.0928 41.0497C33.0111 41.0497 32.9294 41.0343 32.8476 40.9881C32.6188 40.8648 32.5371 40.572 32.6679 40.3562L45.2355 19.8116C45.3662 19.5959 45.6768 19.5188 45.9056 19.6421C46.1344 19.7654 46.2161 20.0582 46.0853 20.274L33.5177 40.8186C33.436 40.9573 33.2726 41.0497 33.0928 41.0497Z" fill="#1E697A"/>
<path d="M36.542 44.1938C36.3786 44.1938 36.2151 44.1167 36.1171 43.9626C35.9863 43.7468 36.0681 43.454 36.2969 43.3307L56.6273 32.2647C56.8561 32.1414 57.1667 32.2184 57.2974 32.4342C57.4281 32.65 57.3464 32.9428 57.1176 33.0661L36.7871 44.1321C36.7054 44.1783 36.6237 44.1938 36.542 44.1938Z" fill="#1E697A"/>
<path d="M35.1524 42.437C35.0217 42.437 34.9073 42.3908 34.8092 42.2983C34.6131 42.1133 34.6131 41.8205 34.8092 41.651L52.5575 24.9132C52.7536 24.7283 53.0641 24.7283 53.2439 24.9132C53.44 25.0982 53.44 25.391 53.2439 25.5606L35.5119 42.2983C35.4139 42.3908 35.2831 42.437 35.1524 42.437Z" fill="#1E697A"/>
<path d="M37.4894 45.9505C37.2769 45.9505 37.0808 45.8118 37.0155 45.6115C36.9501 45.3649 37.0972 45.1183 37.3587 45.0412L61.0885 39.0458C61.3499 38.9842 61.6114 39.1229 61.6931 39.3695C61.7585 39.6161 61.6114 39.8627 61.3499 39.9397L37.6201 45.9351C37.5875 45.9505 37.5384 45.9505 37.4894 45.9505Z" fill="#1E697A"/>
<path d="M51.332 20.397H26.6543C26.3765 20.397 26.1641 20.1966 26.1641 19.9346C26.1641 18.1776 27.4551 16.8521 29.1711 16.8521H33.8125C34.3355 14.9873 36.1332 13.6618 38.2087 13.6618C39.1239 13.6618 39.9901 13.9084 40.7255 14.3554C41.3466 11.2729 44.2229 8.96106 47.6549 8.96106C50.0083 8.96106 52.2145 10.0707 53.522 11.951C53.6691 12.1668 53.6037 12.4442 53.3912 12.5984C53.1624 12.7371 52.8683 12.6754 52.7048 12.4751C51.5772 10.8568 49.6814 9.90121 47.6549 9.90121C44.4517 9.90121 41.7878 12.2747 41.5917 15.2801C41.5754 15.465 41.461 15.6192 41.2812 15.6808C41.1014 15.7425 40.889 15.6962 40.7582 15.5729C40.0882 14.941 39.1893 14.602 38.2251 14.602C36.46 14.602 35.0055 15.7579 34.695 17.407C34.6623 17.6228 34.4499 17.7923 34.2047 17.7923H29.1548C28.1415 17.7923 27.3571 18.5013 27.1773 19.4876H51.3157C51.5935 19.4876 51.806 19.688 51.806 19.95C51.806 20.212 51.5935 20.397 51.332 20.397Z" fill="#1E697A"/>
<path d="M42.2777 53.8419L13.8575 53.7649C13.5796 53.7649 13.3672 53.5183 13.3672 53.2563C13.3672 52.9942 13.5796 52.7631 13.8575 52.7631L42.2777 52.8709C42.5555 52.8709 42.7679 53.1021 42.7679 53.3641C42.7679 53.6107 42.5555 53.8419 42.2777 53.8419Z" fill="#1E697A"/>
<path d="M37.5547 56.4618L18.6133 56.3847C18.3355 56.3847 18.123 56.1381 18.123 55.8915C18.123 55.6295 18.3355 55.3983 18.6133 55.3983L37.5547 55.4908C37.8325 55.4908 38.045 55.722 38.045 55.984C38.045 56.2306 37.8162 56.4618 37.5547 56.4618Z" fill="#1E697A"/>
<path d="M72.9532 48.632H61.7911C61.5132 48.632 61.3008 48.4316 61.3008 48.1696V46.2585C61.3008 45.9965 61.5132 45.7961 61.7911 45.7961H72.9532C73.231 45.7961 73.4435 45.9965 73.4435 46.2585V48.1696C73.4435 48.4162 73.2147 48.632 72.9532 48.632ZM62.2814 47.7073H72.4629V46.7209H62.2814V47.7073Z" fill="#1E697A"/>
<path d="M70.2891 56.4617H64.4384C63.18 56.4617 62.1504 55.4907 62.1504 54.304V48.2932C62.1504 48.0312 62.3628 47.8308 62.6407 47.8308H72.0868C72.3647 47.8308 72.5771 48.0312 72.5771 48.2932V54.304C72.5771 55.5061 71.5475 56.4617 70.2891 56.4617ZM63.131 48.771V54.3194C63.131 54.9975 63.7193 55.5524 64.4384 55.5524H70.2891C71.0082 55.5524 71.5966 54.9975 71.5966 54.3194V48.771H63.131Z" fill="#1E697A"/>
<path d="M72.4955 43.5151H62.8042C62.5918 43.5151 62.412 43.3918 62.3466 43.1914C62.3303 43.1606 61.4314 40.5867 60.9248 39.5695C60.4672 38.6294 59.6337 37.4889 58.6858 36.148C57.4928 34.4835 56.022 32.4182 54.6982 29.9831C52.3121 25.5752 50.9884 22.6623 50.8249 19.8881C50.8086 19.7031 50.8086 19.5336 50.8086 19.3486C50.8086 10.8102 58.2773 3.84387 67.4619 3.84387C67.4783 3.84387 67.511 3.84387 67.5273 3.84387H67.56C67.6254 3.84387 67.7071 3.84387 67.7888 3.84387C76.9898 3.84387 84.4748 10.7948 84.4748 19.3486C84.4748 22.3078 83.1674 25.2515 80.6016 29.9831C79.2778 32.4182 77.807 34.4835 76.6139 36.148C75.666 37.4735 74.8326 38.6294 74.375 39.5695C73.8683 40.5867 72.9695 43.1606 72.9531 43.1914C72.8878 43.3918 72.708 43.5151 72.4955 43.5151ZM63.1474 42.5903H72.136C72.3975 41.8506 73.0675 40.0473 73.4761 39.1996C73.9664 38.1978 74.8162 37.0111 75.7804 35.6548C76.9571 34.0211 78.4116 31.9713 79.7027 29.5824C82.2032 24.9895 83.4616 22.1537 83.4616 19.364C83.4616 11.3342 76.4178 4.78402 67.7561 4.78402C67.6744 4.78402 67.609 4.78402 67.5273 4.78402H67.4293C58.7839 4.78402 51.7565 11.3188 51.7565 19.364C51.7565 19.5182 51.7565 19.6877 51.7728 19.8572C51.9199 22.4773 53.211 25.2978 55.5317 29.5824C56.8228 31.9559 58.2936 34.0057 59.4703 35.6548C60.4509 37.0265 61.2844 38.1978 61.791 39.1996C62.2159 40.0473 62.886 41.866 63.1474 42.5903Z" fill="#1E697A"/>
<path d="M63.9975 43.0531C63.9812 43.0531 63.9975 43.0531 63.9975 43.0531C63.7197 43.0531 63.5072 42.8681 63.5072 42.6215C63.5563 40.2172 62.1017 37.0269 59.3235 31.0777C59.2417 30.9082 59.1437 30.7078 59.0129 30.4458C57.8689 28.1031 55.1724 22.6164 55.1233 17.2991C55.0743 11.2729 61.0231 5.27756 61.2846 5.03096C61.4644 4.84601 61.7749 4.84601 61.971 5.01555C62.1671 5.18508 62.1835 5.47791 61.9873 5.66286C61.922 5.72451 56.0549 11.6428 56.1039 17.2837C56.1529 22.4006 58.7678 27.7641 59.8955 30.0451C60.0262 30.3071 60.1243 30.5229 60.206 30.6924C63.1313 36.9344 64.5368 40.0014 64.4715 42.6061C64.4715 42.8989 64.259 43.0531 63.9975 43.0531Z" fill="#1E697A"/>
<path d="M65.5663 43.0532C65.3048 43.0532 65.0924 42.8529 65.076 42.6063C65.076 42.5446 64.8145 36.6725 63.7032 32.8503C63.6542 32.6962 63.6052 32.5266 63.5398 32.3109C62.837 29.999 61.0066 23.8803 61.072 17.6538C61.1701 9.36197 65.2394 4.33757 65.4029 4.1218C65.5663 3.92144 65.8768 3.89061 66.0893 4.04474C66.3017 4.19886 66.3344 4.49169 66.171 4.69205C66.122 4.7537 62.1343 9.71646 62.0363 17.6538C61.9709 23.7416 63.7849 29.7678 64.4713 32.0488C64.5367 32.2646 64.5857 32.4496 64.6348 32.5883C65.7788 36.5184 66.0402 42.298 66.0402 42.5446C66.0566 42.8066 65.8441 43.0224 65.5663 43.0224C65.5826 43.0532 65.5663 43.0532 65.5663 43.0532Z" fill="#1E697A"/>
<path d="M70.6643 43.0528C70.4029 43.0528 70.1741 42.8832 70.1741 42.6366C70.1087 40.032 71.5142 36.9341 74.4395 30.7075C74.5212 30.538 74.6356 30.3222 74.75 30.0602C75.8777 27.7638 78.5089 22.4157 78.5416 17.2989C78.5906 11.6425 72.7235 5.73965 72.6582 5.678C72.4784 5.49305 72.4784 5.20022 72.6745 5.03068C72.8706 4.86115 73.1811 4.86115 73.3609 5.0461C73.6224 5.29269 79.5712 11.2881 79.5222 17.3143C79.4731 22.6315 76.7929 28.1183 75.6326 30.4609C75.5018 30.7229 75.4038 30.9233 75.322 31.0928C72.5274 37.042 71.0893 40.2169 71.1383 42.6212C71.171 42.8832 70.9585 43.0528 70.6643 43.0528C70.6807 43.0528 70.6807 43.0528 70.6643 43.0528Z" fill="#1E697A"/>
<path d="M69.0955 43.0528H69.0791C68.8013 43.0374 68.6052 42.8216 68.6052 42.575C68.6215 42.3284 68.8667 36.5488 70.0107 32.6187C70.0597 32.4646 70.1087 32.2796 70.1741 32.0792C70.8605 29.8136 72.6746 23.772 72.6092 17.6842C72.5275 9.70061 68.5235 4.76869 68.4745 4.72245C68.311 4.52209 68.3437 4.22926 68.5562 4.07513C68.7686 3.92101 69.0791 3.95183 69.2426 4.15219C69.4223 4.36797 73.4917 9.39237 73.5734 17.6842C73.6388 23.9107 71.792 30.0294 71.1056 32.3413C71.0403 32.557 70.9912 32.7266 70.9422 32.8807C69.8309 36.7029 69.5694 42.575 69.5694 42.6367C69.5858 42.8524 69.357 43.0528 69.0955 43.0528Z" fill="#1E697A"/>
<path d="M62.7715 46.4436C62.4937 46.4436 62.2812 46.2433 62.2812 45.9813V43.0529C62.2812 42.7909 62.4937 42.5906 62.7715 42.5906C63.0494 42.5906 63.2618 42.7909 63.2618 43.0529V45.9813C63.2618 46.2433 63.033 46.4436 62.7715 46.4436Z" fill="#1E697A"/>
<path d="M72.5782 46.4436C72.3003 46.4436 72.0879 46.2433 72.0879 45.9813V43.0529C72.0879 42.7909 72.3003 42.5906 72.5782 42.5906C72.856 42.5906 73.0685 42.7909 73.0685 43.0529V45.9813C73.0685 46.2433 72.8397 46.4436 72.5782 46.4436Z" fill="#1E697A"/>
<path d="M69.1446 46.7519C68.8668 46.7519 68.6543 46.5516 68.6543 46.2896V43.2071C68.6543 42.9451 68.8668 42.7448 69.1446 42.7448C69.4224 42.7448 69.6349 42.9451 69.6349 43.2071V46.2896C69.6349 46.5516 69.4061 46.7519 69.1446 46.7519Z" fill="#1E697A"/>
<path d="M65.5508 45.9813C65.273 45.9813 65.0605 45.7809 65.0605 45.5189V42.7447C65.0605 42.4827 65.273 42.2823 65.5508 42.2823C65.8287 42.2823 66.0411 42.4827 66.0411 42.7447V45.5189C66.0411 45.7809 65.8123 45.9813 65.5508 45.9813Z" fill="#1E697A"/>
</g>
<defs>
<clipPath id="clip0_2727_5533">
<rect width="90" height="60" fill="white" transform="translate(0 0.764404)"/>
</clipPath>
</defs>
</svg>
