<svg width="90" height="61" viewBox="0 0 90 61" fill="none" xmlns="http://www.w3.org/2000/svg">
<g clip-path="url(#clip0_2727_5468)">
<ellipse cx="28.7642" cy="38.3056" rx="23.5337" ry="22.1937" fill="#E0F2FE"/>
<path d="M72.446 36.4258V52.208H69.0957V36.4258" fill="white"/>
<path d="M72.446 52.6703H69.0958C68.8179 52.6703 68.6055 52.4699 68.6055 52.2079V36.4257C68.6055 36.1637 68.8179 35.9634 69.0958 35.9634C69.3736 35.9634 69.586 36.1637 69.586 36.4257V51.7456H71.9558V36.4257C71.9558 36.1637 72.1682 35.9634 72.446 35.9634C72.7239 35.9634 72.9363 36.1637 72.9363 36.4257V52.2079C72.9363 52.4545 72.7239 52.6703 72.446 52.6703Z" fill="#1E697A"/>
<path d="M58.7608 25.1205L58.7598 24.1958L6.6098 24.2737L6.61085 25.1984L58.7608 25.1205Z" fill="#1E697A"/>
<path d="M59.7647 12.7368H35.4629C35.1851 12.7368 34.9727 12.5365 34.9727 12.2745C34.9727 10.8873 35.9369 9.96261 37.3751 9.96261H40.8234C41.281 8.51386 42.6865 7.46582 44.2554 7.46582C44.9418 7.46582 45.5628 7.60453 46.0858 7.86654C46.6251 5.53929 48.8314 3.81311 51.4462 3.81311C53.5218 3.81311 55.4012 4.92279 56.3327 6.67979C57.2643 6.74144 58.0487 7.08051 58.6861 7.697C60.3367 9.28447 60.2714 12.182 60.2714 12.2899C60.255 12.5365 60.0426 12.7368 59.7647 12.7368ZM36.0186 11.8121H59.2745C59.2254 11.0106 58.9966 9.31529 57.9834 8.32891C57.4767 7.83572 56.823 7.58912 56.0222 7.58912C55.8261 7.58912 55.6463 7.48123 55.581 7.3117C54.8619 5.73965 53.2439 4.73785 51.4626 4.73785C49.0765 4.73785 47.1154 6.49485 46.9683 8.72963C46.952 8.91457 46.8376 9.0687 46.6578 9.13035C46.478 9.192 46.2656 9.14576 46.1348 9.02246C45.6936 8.60633 45.0725 8.39056 44.2881 8.39056C43.046 8.39056 41.951 9.29988 41.7222 10.5175C41.6732 10.7332 41.4771 10.9028 41.232 10.9028H37.3751C36.656 10.8873 36.1657 11.2264 36.0186 11.8121Z" fill="#1E697A"/>
<path d="M39.7782 19.6724H6.76568C6.48785 19.6724 6.27539 19.472 6.27539 19.21V17.5301C6.27539 17.5146 6.27539 17.5146 6.27539 17.4992L6.34076 16.6361C6.3571 14.2472 8.4163 12.2899 10.9494 12.2899C11.2436 12.2899 11.9954 12.2899 12.7798 12.3053H13.8421C14.9698 10.1476 17.2905 8.77588 19.8563 8.77588C23.1085 8.77588 25.8378 10.9644 26.4425 13.8928C27.1289 13.4766 27.946 13.2609 28.8122 13.2609C30.7733 13.2609 32.4893 14.5092 32.9959 16.2971H37.3922C39.0428 16.2971 40.2358 17.4992 40.2685 19.1638C40.2685 19.1792 40.2685 19.1946 40.2685 19.2254C40.2685 19.472 40.0397 19.6724 39.7782 19.6724ZM7.25596 18.7476H39.2552C39.0755 17.8075 38.3727 17.2064 37.3922 17.2064H32.62C32.3749 17.2064 32.1788 17.0523 32.1298 16.8211C31.8356 15.3107 30.4138 14.1702 28.8122 14.1702C27.897 14.1702 27.0471 14.4938 26.4261 15.0795C26.2954 15.2028 26.0829 15.249 25.9031 15.1874C25.7234 15.1257 25.5926 14.9716 25.5926 14.7867C25.4129 11.9354 22.8961 9.70062 19.8726 9.70062C17.5846 9.70062 15.5254 10.9644 14.6102 12.9372C14.5285 13.1067 14.3488 13.1992 14.1526 13.1992L12.7798 13.2146C11.9954 13.2146 11.2436 13.2146 10.9494 13.2146C8.93927 13.2146 7.32133 14.7558 7.32133 16.6516C7.32133 16.667 7.32133 16.6824 7.32133 16.6824L7.25596 17.5455V18.7476Z" fill="#1E697A"/>
<path d="M18.7923 54.3197C18.7106 54.3197 18.6452 54.3043 18.5635 54.2735C18.3184 54.1502 18.2203 53.8728 18.3511 53.657L34.0729 24.7898C34.2036 24.5586 34.4978 24.4662 34.7266 24.5895C34.9717 24.7128 35.0698 24.9902 34.939 25.206L19.2336 54.0732C19.1355 54.2273 18.9721 54.3197 18.7923 54.3197Z" fill="#1E697A"/>
<path d="M58.8999 54.6586C58.7201 54.6586 58.5567 54.5661 58.4586 54.412L42.4917 25.0208C42.361 24.7896 42.459 24.5122 42.7042 24.4043C42.9493 24.281 43.2435 24.3735 43.3579 24.6046L59.3412 53.9959C59.4719 54.227 59.3738 54.5045 59.1287 54.6123C59.0633 54.6432 58.9816 54.6586 58.8999 54.6586Z" fill="#1E697A"/>
<path d="M70.8449 36.965C63.8501 36.965 58.1465 31.6015 58.1465 24.9896C58.1465 18.3778 63.8338 13.0143 70.8449 13.0143C77.8559 13.0143 83.5432 18.3778 83.5432 24.9896C83.5432 31.6015 77.8396 36.965 70.8449 36.965ZM70.8449 13.9544C64.3894 13.9544 59.1271 18.9172 59.1271 25.005C59.1271 31.0929 64.3894 36.0556 70.8449 36.0556C77.3003 36.0556 82.5627 31.0929 82.5627 25.005C82.5627 18.9018 77.3003 13.9544 70.8449 13.9544Z" fill="#1E697A"/>
<path d="M75.1267 54.1498H66.416V53.071C66.416 52.4699 66.939 51.9767 67.5764 51.9767H73.9827C74.6201 51.9767 75.1431 52.4699 75.1431 53.071V54.1498H75.1267Z" fill="white"/>
<path d="M75.1268 54.6122H66.4161C66.1382 54.6122 65.9258 54.4118 65.9258 54.1498V53.0709C65.9258 52.2078 66.6612 51.5143 67.5764 51.5143H73.9828C74.898 51.5143 75.6334 52.2078 75.6334 53.0709V54.1498C75.6171 54.4118 75.4046 54.6122 75.1268 54.6122ZM66.9064 53.6874H74.6365V53.0709C74.6365 52.7164 74.3423 52.439 73.9665 52.439H67.5601C67.1842 52.439 66.89 52.7164 66.89 53.0709V53.6874H66.9064Z" fill="#1E697A"/>
<path d="M74.9145 54.6585H58.8985C58.6207 54.6585 58.4082 54.4581 58.4082 54.1961C58.4082 53.9341 58.6207 53.7338 58.8985 53.7338H74.9145C75.1923 53.7338 75.4048 53.9341 75.4048 54.1961C75.4048 54.4581 75.176 54.6585 74.9145 54.6585Z" fill="#1E697A"/>
<path d="M80.307 54.6585H77.3653C77.0875 54.6585 76.875 54.4581 76.875 54.1961C76.875 53.9341 77.0875 53.7338 77.3653 53.7338H80.307C80.5848 53.7338 80.7973 53.9341 80.7973 54.1961C80.7973 54.4581 80.5685 54.6585 80.307 54.6585Z" fill="#1E697A"/>
<path d="M82.7579 54.6585H82.2676C81.9898 54.6585 81.7773 54.4581 81.7773 54.1961C81.7773 53.9341 81.9898 53.7338 82.2676 53.7338H82.7579C83.0357 53.7338 83.2482 53.9341 83.2482 54.1961C83.2482 54.4581 83.0194 54.6585 82.7579 54.6585Z" fill="#1E697A"/>
<path d="M33.2411 27.2247H18.8594C18.5816 27.2247 18.3691 27.0243 18.3691 26.7623C18.3691 26.5003 18.5816 26.2999 18.8594 26.2999H33.2411C33.519 26.2999 33.7314 26.5003 33.7314 26.7623C33.7314 27.0243 33.5026 27.2247 33.2411 27.2247Z" fill="#1E697A"/>
<path d="M26.0509 29.2283H12.4864C12.2086 29.2283 11.9961 29.028 11.9961 28.766C11.9961 28.5039 12.2086 28.3036 12.4864 28.3036H26.0509C26.3288 28.3036 26.5412 28.5039 26.5412 28.766C26.5412 29.028 26.3124 29.2283 26.0509 29.2283Z" fill="#1E697A"/>
<path d="M72.6924 15.8198C72.0878 15.7119 71.4667 15.6503 70.8457 15.6503L72.6924 15.8198Z" fill="white"/>
<path d="M72.6932 16.2821C72.6605 16.2821 72.6278 16.2821 72.5952 16.2667C72.0232 16.1588 71.4348 16.1126 70.8301 16.1126C70.5523 16.1126 70.3398 15.9122 70.3398 15.6502C70.3398 15.3882 70.5523 15.1879 70.8301 15.1879C71.4838 15.1879 72.1376 15.2495 72.7749 15.3574C73.0364 15.4036 73.2162 15.6502 73.1672 15.8968C73.1345 16.128 72.9384 16.2821 72.6932 16.2821Z" fill="#1E697A"/>
<path d="M70.8452 34.8078C65.1089 34.8078 60.4512 30.4153 60.4512 25.0055C60.4512 20.2586 64.0466 16.2051 68.9985 15.3575C69.26 15.3112 69.5214 15.4808 69.5705 15.7274C69.6195 15.974 69.4397 16.2206 69.1782 16.2668C64.7003 17.022 61.4481 20.7055 61.4481 25.0055C61.4481 29.9067 65.6645 33.883 70.8616 33.883C74.3916 33.883 77.5948 32.049 79.2127 29.0898C79.4415 28.6583 79.654 28.2113 79.8011 27.7489C80.1116 26.855 80.2587 25.9303 80.2587 24.9901C80.2587 23.7263 79.9809 22.5242 79.4415 21.3837C79.2618 21.0138 79.0493 20.6439 78.8205 20.2894C78.6407 20.0274 78.461 19.7808 78.2649 19.5342C77.9543 19.1643 77.6111 18.7944 77.2353 18.4707C76.9084 18.1933 76.5652 17.9313 76.2057 17.6847C75.9769 17.546 75.9278 17.2532 76.0749 17.0374C76.222 16.8216 76.5325 16.7754 76.7613 16.9141C77.1535 17.1761 77.5458 17.4689 77.9053 17.7772C78.3139 18.1317 78.6898 18.5324 79.0493 18.9485C79.2781 19.2105 79.4742 19.488 79.6703 19.7808C79.9318 20.1661 80.1606 20.5668 80.3567 20.9829C80.9451 22.2468 81.2556 23.5876 81.2556 24.9747C81.2556 26.0073 81.0758 27.04 80.749 28.0109C80.5692 28.5195 80.3567 29.0127 80.0953 29.4905C78.2812 32.7733 74.7348 34.8078 70.8452 34.8078Z" fill="#1E697A"/>
<path d="M70.6661 51.2679C70.3882 51.2679 70.1758 51.0675 70.1758 50.8055V38.1674C70.1758 37.9054 70.3882 37.7051 70.6661 37.7051C70.9439 37.7051 71.1564 37.9054 71.1564 38.1674V50.8055C71.1564 51.0675 70.9276 51.2679 70.6661 51.2679Z" fill="#1E697A"/>
<path d="M75.8943 30.9233H72.7892C72.5113 30.9233 72.2989 30.7229 72.2989 30.4609V25.2207H70.5012V25.6985C70.5012 26.4383 69.9292 27.024 69.1774 27.024C68.9322 27.024 68.7034 26.9623 68.4746 26.839L64.2582 24.4347C63.8333 24.2035 63.5555 23.772 63.5555 23.2942C63.5391 22.8318 63.7843 22.4157 64.1928 22.1691L68.4583 19.549C68.6871 19.4103 68.9486 19.3333 69.1937 19.3333C69.9292 19.3333 70.5012 19.9189 70.5012 20.6587V21.5218H74.4888C75.6001 21.5218 76.3846 22.2616 76.3846 23.325V30.4609C76.3846 30.7229 76.1558 30.9233 75.8943 30.9233ZM73.2794 29.9985H75.404V23.325C75.404 22.7856 75.0608 22.4465 74.4888 22.4465H70.0109C69.733 22.4465 69.5206 22.2462 69.5206 21.9842V20.6587C69.5206 20.4275 69.3735 20.258 69.1937 20.258C69.1284 20.258 69.063 20.2734 68.9813 20.3196L64.7158 22.9397C64.5524 23.0322 64.536 23.1863 64.536 23.2634C64.536 23.4175 64.6177 23.5408 64.7648 23.6179L68.9813 26.0222C69.0466 26.053 69.112 26.0838 69.1774 26.0838C69.3735 26.0838 69.5206 25.9143 69.5206 25.6831V24.743C69.5206 24.481 69.733 24.2806 70.0109 24.2806H72.7892C73.067 24.2806 73.2794 24.481 73.2794 24.743V29.9985Z" fill="#1E697A"/>
<path d="M18.6953 54.3503H6.60161C6.32378 54.3503 6.11133 54.1499 6.11133 53.8879C6.11133 53.6259 6.32378 53.4255 6.60161 53.4255H18.6953C18.9731 53.4255 19.1856 53.6259 19.1856 53.8879C19.1856 54.1499 18.9568 54.3503 18.6953 54.3503Z" fill="#1E697A"/>
<path d="M9.86886 52.3467H6.76372C6.48589 52.3467 6.27344 52.1464 6.27344 51.8844C6.27344 51.6224 6.48589 51.422 6.76372 51.422H9.86886C10.1467 51.422 10.3591 51.6224 10.3591 51.8844C10.3591 52.1464 10.1303 52.3467 9.86886 52.3467Z" fill="#1E697A"/>
<path d="M12.3217 52.3467H11.668C11.3902 52.3467 11.1777 52.1464 11.1777 51.8844C11.1777 51.6224 11.3902 51.422 11.668 51.422H12.3217C12.5996 51.422 12.812 51.6224 12.812 51.8844C12.812 52.1464 12.5832 52.3467 12.3217 52.3467Z" fill="#1E697A"/>
<path d="M39.8104 30.7693H37.4406C37.3099 30.7693 37.1792 30.7231 37.0811 30.6306C36.983 30.5382 36.934 30.4149 36.9504 30.2916L37.1792 26.7467C37.1955 26.5001 37.408 26.3152 37.6694 26.3152H39.5652C39.8267 26.3152 40.0392 26.5001 40.0555 26.7467L40.2843 30.2916C40.3006 30.4149 40.2516 30.5382 40.1536 30.6306C40.0718 30.7231 39.9411 30.7693 39.8104 30.7693ZM37.9636 29.8446H39.2874L39.124 27.2245H38.1434L37.9636 29.8446Z" fill="#1E697A"/>
<path d="M40.2515 39.4003H36.9992C36.8685 39.4003 36.7378 39.354 36.6397 39.2615C36.5416 39.1691 36.4926 39.0458 36.509 38.9225L36.9012 32.2952C36.9175 32.0486 37.13 31.8636 37.3915 31.8636H39.8592C40.1207 31.8636 40.3332 32.0486 40.3495 32.2952L40.7418 38.9225C40.7418 39.0458 40.7091 39.1691 40.611 39.2615C40.513 39.354 40.3986 39.4003 40.2515 39.4003ZM37.5222 38.4755H39.7448L39.4016 32.773H37.8654L37.5222 38.4755Z" fill="#1E697A"/>
<path d="M41.0031 54.5042H36.2473C36.1165 54.5042 35.9858 54.4579 35.8877 54.3655C35.7897 54.273 35.7407 54.1497 35.757 54.0264L36.4597 41.3883C36.4761 41.1417 36.6885 40.9568 36.95 40.9568H40.3167C40.5781 40.9568 40.7906 41.1417 40.8069 41.3883L41.5097 54.0264C41.5097 54.1497 41.4607 54.273 41.3789 54.3655C41.2972 54.4579 41.1338 54.5042 41.0031 54.5042ZM36.7703 53.5794H40.4964L39.8427 41.8661H37.4076L36.7703 53.5794Z" fill="#1E697A"/>
</g>
<defs>
<clipPath id="clip0_2727_5468">
<rect width="90" height="60" fill="white" transform="translate(0 0.764404)"/>
</clipPath>
</defs>
</svg>
