<svg width="90" height="61" viewBox="0 0 90 61" fill="none" xmlns="http://www.w3.org/2000/svg">
<g clip-path="url(#clip0_6347_31299)">
<mask id="mask0_6347_31299" style="mask-type:luminance" maskUnits="userSpaceOnUse" x="0" y="0" width="90" height="60">
<path d="M89.788 0.388672H0V59.9754H89.788V0.388672Z" fill="white"/>
</mask>
<g mask="url(#mask0_6347_31299)">
<path d="M28.6951 59.7122C41.6617 59.7122 52.1733 49.8442 52.1733 37.6714C52.1733 25.4986 41.6617 15.6306 28.6951 15.6306C15.7284 15.6306 5.2168 25.4986 5.2168 37.6714C5.2168 49.8442 15.7284 59.7122 28.6951 59.7122Z" fill="#E0F2FE"/>
<path d="M42.8806 46.335H1.45117V9.09521H42.7338V10.0136H2.42943V45.4166H42.8806V46.335Z" fill="#1E697A"/>
<path d="M56.1044 50.0393H48.1968C45.05 50.0393 42.4902 47.6362 42.4902 44.6821V6.14132C42.4902 3.18724 45.05 0.78418 48.1968 0.78418H56.1044C59.2511 0.78418 61.8109 3.18724 61.8109 6.14132V28.5648H60.8326V6.14132C60.8326 3.69234 58.7131 1.70255 56.1044 1.70255H48.1968C45.5881 1.70255 43.4685 3.69234 43.4685 6.14132V44.6821C43.4685 47.1311 45.5881 49.1209 48.1968 49.1209H56.1044C57.6859 49.1209 59.1533 48.3862 60.0337 47.1617L60.8489 47.6821C59.7728 49.1668 58.012 50.0393 56.1044 50.0393Z" fill="#1E697A"/>
<path d="M55.8269 24.3245L55.2563 23.5898C56.7237 22.5796 57.6041 20.9572 57.6041 19.2582C57.6041 16.3041 55.0443 13.8857 51.8813 13.8857C49.0443 13.8857 46.615 15.8755 46.2237 18.5082L45.2617 18.3857C45.7182 15.3092 48.5715 12.9827 51.8976 12.9827C55.5824 12.9827 58.5987 15.799 58.5987 19.2735C58.5824 21.248 57.5552 23.1459 55.8269 24.3245Z" fill="#1E697A"/>
<path d="M69.7831 58.7022C69.7504 58.6716 67.2396 55.5491 66.62 54.7379C66.3428 54.3859 65.495 53.8808 64.7286 53.4369C63.9297 52.9624 63.1634 52.5185 62.7395 52.09C62.071 51.4012 60.9786 49.6257 59.4949 46.8247C58.4841 44.9114 56.1199 38.6512 56.0221 38.391L56.0058 38.3298V38.2685C56.0058 38.2379 55.7612 35.4522 54.9949 34.2889C54.1471 32.9879 51.2613 29.8655 50.8047 29.6053C50.7395 29.5747 50.6906 29.544 50.6254 29.4981C50.1036 29.2226 49.3863 28.84 48.6036 27.9063C47.8047 26.9726 45.5058 24.0798 45.3102 23.8195C45.1308 23.6359 43.7612 22.1053 43.696 20.5593C43.6797 19.9624 43.9406 19.3655 44.4949 18.8451C45.3591 18.0032 46.7123 17.5134 47.5112 17.5134C48.7178 17.5134 51.0656 19.5491 51.5873 20.0236C51.8971 20.2379 54.5384 22.1053 55.5004 23.1461C55.9406 23.6359 56.3156 24.2328 56.658 24.7991C57.1145 25.5491 57.5384 26.2532 58.1254 26.6971C58.908 27.2787 63.4406 28.993 66.3102 30.0032L65.9678 30.8604C65.2178 30.6002 58.6797 28.2889 57.5221 27.4165C56.8047 26.8808 56.2993 26.0542 55.8265 25.2583C55.4841 24.692 55.158 24.1716 54.783 23.743C53.8536 22.7328 51.0167 20.7583 51.0004 20.743L50.9515 20.7124C49.7449 19.6257 48.0819 18.4471 47.5276 18.4471C46.9406 18.4471 45.8645 18.8757 45.2123 19.5032C44.9678 19.7481 44.6743 20.1155 44.6906 20.5593C44.7395 21.8451 46.0602 23.2379 46.0765 23.2532L46.1091 23.2838C46.1417 23.3144 48.5873 26.4063 49.4026 27.3553C50.0873 28.1512 50.658 28.4573 51.1471 28.7175C51.2123 28.7481 51.2776 28.794 51.3428 28.8247C52.0439 29.2226 55.0765 32.6053 55.8754 33.8144C56.7069 35.0849 56.9841 37.7022 57.033 38.1461C57.2776 38.7889 59.5112 44.6512 60.4406 46.4267C62.2341 49.84 63.0982 51.0491 63.5221 51.4777C63.8645 51.8144 64.5982 52.2583 65.2994 52.6716C66.2124 53.2073 67.0602 53.7124 67.4515 54.2022C68.0711 54.9981 70.582 58.1206 70.5983 58.1512L69.7831 58.7022Z" fill="#1E697A"/>
<path d="M43.2223 22.8555C41.1843 22.4882 40.9886 22.0443 40.9234 21.8912C40.1571 20.1004 40.4343 18.677 41.6897 17.9729C42.0158 17.7892 42.3745 17.6208 42.7495 17.4678L43.1408 18.3096C42.7984 18.4474 42.4886 18.6004 42.1951 18.7688C41.119 19.3657 41.4777 20.7127 41.8038 21.4933C41.9995 21.6157 42.7169 21.83 43.4017 21.9525L43.2223 22.8555Z" fill="#1E697A"/>
<path d="M86.0223 52.7332C85.8756 52.5342 82.468 47.7281 81.7995 45.3403C79.5169 38.1312 76.1419 28.5342 76.1093 28.4271L76.093 28.3965C75.6202 26.575 74.6419 22.9781 74.381 22.3352C74.0876 21.5852 72.7832 20.8352 72.1799 20.6209C72.0006 20.5597 71.6256 20.5444 71.2343 20.5291C70.4517 20.4985 69.3593 20.4679 68.1365 20.0699C67.1908 19.7638 64.1745 18.9832 61.1582 18.2791L61.3865 17.3914C64.1908 18.0342 67.3539 18.8454 68.4462 19.1975C69.5386 19.5495 70.5006 19.5801 71.2669 19.6107C71.7886 19.6261 72.2125 19.6414 72.5386 19.7638C73.256 20.024 74.8539 20.9118 75.2941 22.0138C75.6365 22.8556 76.9408 27.7842 77.0386 28.1669C77.2017 28.6261 80.4952 37.9934 82.7289 45.0954C83.3647 47.3607 86.7886 52.1822 86.8212 52.2281L86.0223 52.7332Z" fill="#1E697A"/>
<path d="M42.6359 27.6002C39.962 27.6002 38.3152 27.2788 37.7446 26.6359C37.2881 26.1155 36.7174 24.141 37.5489 23.0696C38.2989 22.1053 41.4294 21.8298 42.375 21.7686L42.4402 22.6869C40.7283 22.7941 38.6739 23.192 38.3478 23.6206C37.8261 24.2941 38.2826 25.8094 38.5109 26.0543C38.8044 26.391 40.2717 26.7124 42.9294 26.6818L42.9457 27.6002C42.8315 27.6002 42.7337 27.6002 42.6359 27.6002Z" fill="#1E697A"/>
<path d="M62.8867 29.1155L62.1367 28.5338C62.153 28.5185 63.9302 26.5134 64.8758 25.3961C65.4792 24.692 66.2781 24.2481 66.9792 23.8655C67.452 23.6053 67.8922 23.3604 68.1042 23.1155L68.8705 23.6971C68.5444 24.0798 68.0227 24.3553 67.4846 24.6614C66.8487 25.0134 66.1477 25.3961 65.6585 25.9777C64.6965 27.0951 62.903 29.1002 62.8867 29.1155Z" fill="#1E697A"/>
<path d="M47.136 23.9576C46.712 23.9576 46.2881 23.8505 45.9947 23.6362C45.799 23.5137 44.5925 22.7178 43.8262 21.5852L44.6577 21.0954C45.3588 22.1209 46.549 22.8709 46.549 22.8709L46.5979 22.9015C46.8099 23.0699 47.4783 23.0699 47.7066 22.8862L49.3044 21.6005C49.5164 21.4321 49.6142 21.0188 49.5001 20.8046L49.4838 20.7586C49.4838 20.7433 48.962 19.3199 48.0653 18.6311L48.6849 17.927C49.7447 18.7382 50.3316 20.2229 50.4131 20.4525C50.7066 21.0494 50.511 21.876 49.9566 22.3199L48.3588 23.6056C48.049 23.8352 47.5925 23.9576 47.136 23.9576Z" fill="#1E697A"/>
<path d="M43.011 31.9014C38.9675 31.6412 38.0871 31.3657 37.7447 31.1361C36.9458 30.5697 36.5219 29.5902 36.5545 28.3197C36.5708 26.9575 38.3806 26.284 38.4621 26.2534L38.8208 27.1106C38.8045 27.1106 37.5491 27.6004 37.5327 28.3351C37.5164 29.0085 37.6469 29.9269 38.3317 30.4014C38.4458 30.4779 39.1306 30.7381 43.0762 30.983L43.011 31.9014Z" fill="#1E697A"/>
<path d="M42.8162 35.5745C38.952 34.3501 38.577 33.8296 38.414 33.6001C37.6477 32.5287 38.1368 30.9521 38.1531 30.8909L39.0988 31.1511C39.0009 31.4879 38.8216 32.4981 39.2292 33.0949C39.2618 33.1409 39.6694 33.6154 43.1259 34.7021L42.8162 35.5745Z" fill="#1E697A"/>
<path d="M63.5261 21.4957L62.6465 21.0938L60.8125 24.6305L61.6921 25.0325L63.5261 21.4957Z" fill="#1E697A"/>
<path d="M42.978 43.9471H3.89648V11.4675H42.8313V12.3859H4.87475V43.0287H42.978V43.9471Z" fill="#1E697A"/>
<path d="M45.4883 54.0951H10.9883V53.6359C10.9883 52.4879 11.8687 51.5236 13.0589 51.3553L24.4231 49.5185C25.1568 49.4114 25.6785 48.8298 25.6785 48.141V45.4165H31.2546V48.1257C31.2546 48.8145 31.7763 49.3961 32.51 49.5032L43.8905 51.3553C45.0807 51.539 45.9611 52.5032 45.9611 53.6359V54.0951H45.4883ZM12.0481 53.1767H44.9013C44.722 52.7022 44.2818 52.3349 43.7274 52.2583L32.347 50.4063C31.1568 50.2226 30.2763 49.2583 30.2763 48.1257V46.3349H26.6568V48.141C26.6568 49.289 25.7763 50.2532 24.5861 50.4216L13.222 52.2583C12.6676 52.3349 12.2274 52.7022 12.0481 53.1767Z" fill="#1E697A"/>
<path d="M49.8265 34.2434H47.1363C46.2396 34.2434 45.5059 33.5546 45.5059 32.7128V32.4679C45.5059 31.626 46.2396 30.9373 47.1363 30.9373H49.8265C50.7233 30.9373 51.4569 31.626 51.4569 32.4679V32.7128C51.4406 33.5699 50.7233 34.2434 49.8265 34.2434ZM47.1363 31.8709C46.7776 31.8709 46.4841 32.1464 46.4841 32.4832V32.7281C46.4841 33.0648 46.7776 33.3403 47.1363 33.3403H49.8265C50.1852 33.3403 50.4787 33.0648 50.4787 32.7281V32.4832C50.4787 32.1464 50.1852 31.8709 49.8265 31.8709H47.1363Z" fill="#1E697A"/>
<path d="M49.8265 39.2177H47.1363C46.2396 39.2177 45.5059 38.529 45.5059 37.6871V37.4422C45.5059 36.6004 46.2396 35.9116 47.1363 35.9116H49.8265C50.7233 35.9116 51.4569 36.6004 51.4569 37.4422V37.6871C51.4406 38.529 50.7233 39.2177 49.8265 39.2177ZM47.1363 36.8453C46.7776 36.8453 46.4841 37.1208 46.4841 37.4575V37.7024C46.4841 38.0392 46.7776 38.3147 47.1363 38.3147H49.8265C50.1852 38.3147 50.4787 38.0392 50.4787 37.7024V37.4575C50.4787 37.1208 50.1852 36.8453 49.8265 36.8453H47.1363Z" fill="#1E697A"/>
<path d="M49.8265 44.1767H47.1363C46.2396 44.1767 45.5059 43.488 45.5059 42.6461V42.4012C45.5059 41.5594 46.2396 40.8706 47.1363 40.8706H49.8265C50.7233 40.8706 51.4569 41.5594 51.4569 42.4012V42.6461C51.4406 43.488 50.7233 44.1767 49.8265 44.1767ZM47.1363 41.8043C46.7776 41.8043 46.4841 42.0798 46.4841 42.4165V42.6614C46.4841 42.9982 46.7776 43.2737 47.1363 43.2737H49.8265C50.1852 43.2737 50.4787 42.9982 50.4787 42.6614V42.4165C50.4787 42.0798 50.1852 41.8043 49.8265 41.8043H47.1363Z" fill="#1E697A"/>
<path d="M53.9844 22.1668L53.4137 21.4322C54.1148 20.9577 54.5224 20.1924 54.5224 19.3811C54.5224 17.973 53.3159 16.8403 51.8159 16.8403C50.6746 16.8403 49.6474 17.5138 49.2724 18.524L48.3594 18.2179C48.8811 16.8556 50.2833 15.9373 51.8322 15.9373C53.8702 15.9373 55.517 17.4832 55.517 19.3964C55.5007 20.4832 54.93 21.524 53.9844 22.1668Z" fill="#1E697A"/>
<path d="M52.615 13.1973H51.6367V16.5646H52.615V13.1973Z" fill="#1E697A"/>
<path d="M58.6475 18.7075H55.0605V19.6259H58.6475V18.7075Z" fill="#1E697A"/>
<path d="M55.3852 34.2888H54.4395C53.5754 34.2888 52.8906 33.6307 52.8906 32.8348V32.4674C52.8906 32.0848 53.0537 31.7174 53.3471 31.4419L54.0319 32.0848C53.9178 32.1919 53.8689 32.3296 53.8689 32.4674V32.8348C53.8689 33.1256 54.1298 33.3705 54.4395 33.3705H55.3852V34.2888Z" fill="#1E697A"/>
<path d="M56.9504 39.2482H54.4395C53.5754 39.2482 52.8906 38.59 52.8906 37.7941V37.4267C52.8906 36.6155 53.5917 35.9727 54.4395 35.9727H56.2004V36.891H54.4395C54.1298 36.891 53.8689 37.1359 53.8689 37.4267V37.7941C53.8689 38.0849 54.1298 38.3298 54.4395 38.3298H56.9504V39.2482Z" fill="#1E697A"/>
<path d="M57.2602 44.2074H54.4395C53.5754 44.2074 52.8906 43.5492 52.8906 42.7533V42.386C52.8906 41.5747 53.5917 40.9319 54.4395 40.9319H57.2602C57.4721 40.9319 57.6678 40.9625 57.8471 41.039L57.4721 41.8809C57.4069 41.8502 57.3254 41.8349 57.2602 41.8349H54.4395C54.1298 41.8349 53.8689 42.0798 53.8689 42.3707V42.738C53.8689 43.0288 54.1298 43.2737 54.4395 43.2737H57.2602C57.4884 43.2737 57.7004 43.1513 57.7982 42.937L58.695 43.289C58.4504 43.8554 57.8798 44.2074 57.2602 44.2074Z" fill="#1E697A"/>
<path d="M49.7289 7.54929H47.0386C46.1419 7.54929 45.4082 6.86052 45.4082 6.01867V5.77378C45.4082 4.93194 46.1419 4.24316 47.0386 4.24316H49.7289C50.6256 4.24316 51.3593 4.93194 51.3593 5.77378V6.01867C51.3593 6.86052 50.6256 7.54929 49.7289 7.54929ZM47.0549 5.17684C46.6962 5.17684 46.4028 5.45235 46.4028 5.78908V6.03398C46.4028 6.37072 46.6962 6.64623 47.0549 6.64623H49.7289C50.0876 6.64623 50.381 6.37072 50.381 6.03398V5.78908C50.381 5.45235 50.0876 5.17684 49.7289 5.17684H47.0549Z" fill="#1E697A"/>
<path d="M57.098 7.57979H54.4078C53.511 7.57979 52.7773 6.89102 52.7773 6.04919V5.80429C52.7773 4.96246 53.511 4.27368 54.4078 4.27368H57.098C57.9947 4.27368 58.7284 4.96246 58.7284 5.80429V6.04919C58.7284 6.89102 57.9947 7.57979 57.098 7.57979ZM54.4078 5.20736C54.0491 5.20736 53.7556 5.48287 53.7556 5.8196V6.0645C53.7556 6.40122 54.0491 6.67673 54.4078 6.67673H57.098C57.4567 6.67673 57.7502 6.40122 57.7502 6.0645V5.8196C57.7502 5.48287 57.4567 5.20736 57.098 5.20736H54.4078Z" fill="#1E697A"/>
</g>
</g>
<defs>
<clipPath id="clip0_6347_31299">
<rect width="90" height="60" fill="white" transform="translate(0 0.264648)"/>
</clipPath>
</defs>
</svg>
