<svg width="90" height="61" viewBox="0 0 90 61" fill="none" xmlns="http://www.w3.org/2000/svg">
<g clip-path="url(#clip0_2727_5343)">
<ellipse cx="28.7642" cy="38.3056" rx="23.5337" ry="22.1937" fill="#E0F2FE"/>
<path d="M78.9193 18.9327H36.9836V18.008H77.9387V17.0524C77.9387 14.5711 75.7978 12.5521 73.1666 12.5521H35.2676V11.6273H73.1666C76.3371 11.6273 78.9193 14.0625 78.9193 17.0524V18.9327Z" fill="#1E697A"/>
<path d="M85.4563 60.469H5.60524C3.34993 60.469 1.51953 58.7429 1.51953 56.616V55.8916H89.542V56.616C89.542 58.7429 87.7116 60.469 85.4563 60.469ZM2.5001 56.8163C2.6145 58.3422 3.95461 59.5443 5.60524 59.5443H85.4563C87.0906 59.5443 88.4471 58.3422 88.5615 56.8163H2.5001Z" fill="#1E697A"/>
<path d="M89.0847 56.7392H1.96105C1.73225 56.7392 1.53613 56.6004 1.4871 56.3847C1.43807 56.1843 1.53613 55.9685 1.73225 55.8607L12.1263 50.6205C12.1917 50.5897 12.2734 50.5588 12.3551 50.5588H78.5109C78.5926 50.5588 78.6743 50.5742 78.7397 50.6051L89.2971 55.8452C89.4933 55.9377 89.5913 56.1535 89.5423 56.3693C89.5096 56.585 89.3135 56.7392 89.0847 56.7392ZM3.92219 55.8144H87.0909L78.3965 51.499H12.4858L3.92219 55.8144Z" fill="#1E697A"/>
<path d="M78.9194 51.437H12.1426V21.7068H13.1231V50.5123H77.9388V18.9325H36.6568V18.0078H78.9194V51.437Z" fill="#1E697A"/>
<path d="M47.4763 16.066H43.8809C43.6031 16.066 43.3906 15.8656 43.3906 15.6036C43.3906 15.3416 43.6031 15.1412 43.8809 15.1412H47.4763C47.7542 15.1412 47.9666 15.3416 47.9666 15.6036C47.9666 15.8656 47.7378 16.066 47.4763 16.066Z" fill="#1E697A"/>
<path d="M43.3076 41.4503C42.7682 41.4503 42.2126 41.3424 41.7223 41.065C39.6631 39.8782 38.4537 35.8402 38.274 35.2083C37.7837 34.5148 35.1852 30.6925 35.3813 28.5194C35.2996 28.4269 35.1525 28.3036 35.0381 28.1957C33.9758 27.1939 31.8022 25.1441 31.7041 22.8785C31.2629 22.6935 30.8053 22.3236 30.2496 21.8921C29.645 21.3989 28.8932 20.7978 27.9943 20.32C26.1803 21.1061 25.9024 21.3064 25.739 21.6609C25.9515 21.9692 26.8013 22.7244 27.3733 23.233C27.8963 23.6953 28.4356 24.1731 28.7951 24.5584C29.3018 25.0979 30.5275 26.1151 31.5897 27.009C32.6847 27.9183 33.3548 28.4886 33.5836 28.7506C34.8747 30.2456 36.4109 32.28 36.5253 33.5592C36.5907 34.3144 36.1821 35.3008 35.512 35.9943C34.9564 36.5646 34.2863 36.9037 33.5999 36.9037C32.3905 36.9037 30.6092 35.2391 29.0239 33.6979L28.8932 33.5592C28.4683 33.1893 27.8146 32.7269 27.1772 32.2954C26.2947 31.6943 25.4775 31.1241 25.0853 30.6771C24.3826 29.8757 22.6502 28.5194 21.2284 27.6717C20.9342 27.5022 20.6237 27.3172 20.2968 27.1169C19.1365 26.4233 17.8127 25.6219 16.6524 25.0362C15.3613 24.3889 13.5309 23.0326 11.0958 21.1831L11.0795 21.1677C10.6709 20.8286 10.2297 20.3046 9.75572 19.7652C9.26543 19.195 8.70978 18.5476 8.15412 18.0544C6.84669 16.8831 1.71504 12.4598 1.66602 12.429L2.31973 11.7508C2.36876 11.7971 7.51675 16.2204 8.82418 17.3917C9.42886 17.9466 10.0009 18.6093 10.5075 19.195C10.9487 19.7036 11.3737 20.1967 11.7169 20.4896C14.1193 22.3082 15.9006 23.6337 17.11 24.2502C18.303 24.8513 19.6431 25.6527 20.8198 26.3617C21.1303 26.5466 21.4408 26.7316 21.735 26.9165C23.0751 27.7179 24.9872 29.1359 25.8371 30.1223C26.1476 30.4767 26.9647 31.0316 27.7492 31.571C28.4192 32.0334 29.1056 32.4957 29.5632 32.9119L29.5796 32.9273L29.7267 33.0814C30.4621 33.8058 32.7174 36.0097 33.5999 36.0097C33.9921 36.0097 34.4171 35.7786 34.7929 35.4087C35.2669 34.9155 35.5937 34.1911 35.5447 33.6825C35.4793 32.8811 34.4824 31.309 32.8155 29.3671C32.6357 29.1513 31.7695 28.4269 30.936 27.7334C29.8411 26.824 28.6154 25.7914 28.0597 25.2057C27.7328 24.8513 27.2099 24.3889 26.7032 23.9419C25.1016 22.524 24.5623 22 24.7748 21.4914C25.1016 20.6437 25.5756 20.3817 27.8146 19.4107L28.027 19.3182L28.2395 19.4261C29.3508 19.9656 30.2006 20.6591 30.9033 21.214C31.4427 21.6609 31.9656 22.077 32.2598 22.1079L32.7174 22.1541L32.6847 22.5857C32.5703 24.5892 34.7766 26.6853 35.7245 27.5792C36.1494 27.9799 36.2965 28.1187 36.3619 28.3036L36.3945 28.4115L36.3782 28.5194C36.084 30.0914 38.274 33.59 39.1401 34.8076L39.1892 34.8692L39.2055 34.9463C39.5324 36.1485 40.6927 39.4313 42.2289 40.3252C43.1768 40.8646 44.5496 40.4177 45.1053 40.1556C44.9909 39.8782 44.7948 39.4159 44.5823 38.9535C43.471 36.4413 41.3955 31.7868 41.4118 28.0262C41.4118 27.0244 40.562 25.9918 40.0553 25.3599C39.8756 25.1441 39.7612 24.99 39.6795 24.8513C39.5487 24.6047 39.3526 24.3272 39.1401 24.0036C38.3393 22.7706 37.1136 20.9211 35.9043 17.4842L35.8389 17.2838C35.4793 16.2512 35.1198 15.2032 35.1525 14.4942C35.1688 14.1705 35.1688 12.4752 34.2046 11.5659C33.6653 11.0573 32.4069 10.8415 31.1812 10.6103C29.9064 10.3791 28.5827 10.1479 27.6511 9.56227C26.6215 8.91496 16.9956 6.60312 15.345 6.43358C12.9262 6.14075 8.31755 2.27227 8.12144 2.10273L8.77515 1.40918C10.0335 2.47263 13.7107 5.27766 15.4594 5.46261C17.0937 5.63214 26.9647 7.9594 28.2068 8.74542C28.9749 9.2232 30.2006 9.43898 31.3773 9.65475C32.7991 9.91676 34.1556 10.1479 34.9073 10.8569C36.1331 12.0128 36.1657 13.924 36.1494 14.4788C36.1331 15.0799 36.558 16.2974 36.7868 16.9448L36.8521 17.1451C38.0125 20.4742 39.2055 22.2774 39.99 23.4642C40.2188 23.8032 40.4149 24.0961 40.562 24.3735C40.5947 24.4351 40.7254 24.5892 40.8561 24.7434C41.4445 25.4677 42.4087 26.6699 42.4087 27.9799C42.3924 31.5556 44.4189 36.1022 45.4975 38.5528C46.2166 40.1865 46.3146 40.4022 45.9878 40.6797C45.6609 40.9417 44.5006 41.4503 43.3076 41.4503Z" fill="#1E697A"/>
<path d="M36.0991 33.7595C35.3146 32.6498 33.3862 30.9236 32.6998 31.1086C32.0787 31.2781 30.7059 33.3742 30.0195 34.0986" fill="#F8F8F8"/>
<path d="M30.3968 34.4068L29.6777 33.7904C29.9065 33.5592 30.217 33.1584 30.5439 32.7269C31.4591 31.5402 32.0474 30.8158 32.5868 30.6771C33.7798 30.3534 36.0188 32.8194 36.5254 33.5129L35.7082 34.0369C34.8911 32.8964 33.3058 31.5864 32.8482 31.571C32.5541 31.6943 31.7696 32.7269 31.3284 33.2817C30.9852 33.7133 30.6583 34.1294 30.3968 34.4068Z" fill="#1E697A"/>
<path d="M25.6758 22.1079C26.8525 23.1251 27.6042 20.8441 30.8238 21.6917L25.6758 22.1079Z" fill="#F8F8F8"/>
<path d="M26.2963 22.8476C25.9857 22.8476 25.6589 22.7397 25.332 22.4623L26.0021 21.7842C26.2472 22 26.378 21.9845 27.048 21.6763C27.8325 21.3064 28.9928 20.7516 30.954 21.2756L30.6925 22.1695C29.1072 21.7534 28.2084 22.1695 27.5056 22.5086C27.1134 22.6473 26.7212 22.8476 26.2963 22.8476Z" fill="#1E697A"/>
<path d="M45.352 40.4794C45.352 40.4794 42.6717 38.1214 42.9659 37.135C43.0803 36.7651 43.4072 36.4877 43.7504 36.1948" fill="#F8F8F8"/>
<path d="M45.0088 40.8185C44.3224 40.2174 42.1325 38.1676 42.4757 37.0116C42.6228 36.503 43.0477 36.164 43.4072 35.8557L44.0609 36.5493C43.7668 36.7959 43.4889 37.027 43.4236 37.2736C43.3092 37.6435 44.3878 39.0152 45.6789 40.1557L45.0088 40.8185Z" fill="#1E697A"/>
<path d="M32.8974 24.7892C32.8974 24.7892 33.2733 26.6695 31.7207 27.9025L32.8974 24.7892Z" fill="#F8F8F8"/>
<path d="M32.0312 28.257L31.4102 27.548C32.7339 26.5 32.4234 24.8971 32.4234 24.8817L33.3876 24.7122C33.404 24.8046 33.7799 26.8699 32.0312 28.257Z" fill="#1E697A"/>
<path d="M23.2238 29.49C22.7172 29.49 22.0962 29.4437 21.3771 29.3975C20.9031 29.3667 20.3965 29.3204 19.8899 29.305C19.8736 29.305 19.8409 29.305 19.8082 29.305C19.416 29.3358 18.3864 29.4283 17.3568 29.2434C16.9482 29.1663 16.6377 28.9351 16.4742 28.5806C16.1801 27.9179 16.4742 26.9932 16.8992 26.3767C17.2097 25.9143 17.7163 25.5444 18.4027 25.2516L18.7949 26.0993C18.2883 26.315 17.9288 26.577 17.7163 26.8853C17.3568 27.3939 17.2587 27.9796 17.3731 28.2262C17.4058 28.2878 17.4385 28.3186 17.5365 28.3495C18.419 28.519 19.3669 28.4419 19.7101 28.4111C19.8082 28.3957 19.8572 28.3957 19.9062 28.3957C20.4292 28.4265 20.9358 28.4573 21.4261 28.4882C22.4557 28.5652 23.4199 28.6269 23.8285 28.5344L24.0737 29.4283C23.8775 29.4591 23.5834 29.49 23.2238 29.49Z" fill="#1E697A"/>
<path d="M21.2291 36.0096C20.9676 36.0096 20.7061 35.9325 20.4937 35.7784C19.8073 35.2852 19.6112 34.1601 19.7092 33.2662C20.0034 30.7848 23.6805 28.6271 23.8276 28.55L24.3342 29.3361C24.3016 29.3515 20.9186 31.3397 20.6734 33.3741C20.5754 34.1601 20.8042 34.8537 21.0657 35.054C21.1147 35.0849 21.1801 35.1465 21.3762 35.0694C22.4548 34.6533 23.4517 33.9443 23.8276 33.6823C23.9257 33.6053 23.9747 33.5745 24.0074 33.559C25.9358 32.5264 26.3444 32.2336 26.9328 31.6633L27.6355 32.3106C26.9328 32.9888 26.4261 33.3124 24.4977 34.3605C24.4813 34.3759 24.4486 34.3913 24.3996 34.4221C23.991 34.715 22.9288 35.4702 21.7357 35.9325C21.5886 35.9634 21.3925 36.0096 21.2291 36.0096Z" fill="#1E697A"/>
<path d="M51.7897 58.5271H41.5427C40.3334 58.5271 39.3691 57.6024 39.3691 56.4773V56.354C39.3691 56.092 39.5816 55.8916 39.8594 55.8916H53.4894C53.7672 55.8916 53.9796 56.092 53.9796 56.354V56.4773C53.9633 57.6178 52.9827 58.5271 51.7897 58.5271ZM40.3987 56.8163C40.5458 57.2787 41.0034 57.6024 41.5427 57.6024H51.7897C52.329 57.6024 52.7866 57.2633 52.9337 56.8163H40.3987Z" fill="#1E697A"/>
</g>
<defs>
<clipPath id="clip0_2727_5343">
<rect width="90" height="60" fill="white" transform="translate(0 0.764404)"/>
</clipPath>
</defs>
</svg>
