<svg width="90" height="61" viewBox="0 0 90 61" fill="none" xmlns="http://www.w3.org/2000/svg">
<g clip-path="url(#clip0_5_11626)">
<ellipse cx="28.7642" cy="38.3056" rx="23.5337" ry="22.1937" fill="#E0F2FE"/>
<path d="M62.7574 48.8509H10.6074V7.65393H69.7195V18.3809H68.7389V8.57867H11.588V47.9262H62.7574V48.8509Z" fill="#075985"/>
<path d="M40.5641 30.4487L40.4661 30.4179C40.0902 30.2946 39.747 29.9863 39.5509 29.5702C39.3548 29.1387 39.3221 28.6917 39.4855 28.3372L39.5182 28.2602L39.5836 28.1985C41.2015 26.6419 41.2996 26.5956 41.3976 26.5494L44.9113 25.0698L44.7316 25.9329C44.6825 26.2257 45.3853 27.3354 46.2187 28.291L46.6437 28.7688L43.0482 30.2329C42.9502 30.2638 42.8685 30.31 40.6458 30.4487H40.5641ZM40.368 28.7688C40.3517 28.8921 40.368 29.0462 40.4497 29.2003C40.5314 29.3544 40.6295 29.4623 40.7112 29.524C41.5774 29.4623 42.5089 29.4007 42.7214 29.3699L45.0747 28.4143C44.6498 27.8903 44.1105 27.1659 43.8817 26.534L41.8389 27.3971C41.6754 27.5358 40.989 28.1677 40.368 28.7688Z" fill="#075985"/>
<path d="M68.6727 58.4989C68.1825 57.42 66.7933 54.6612 66.6462 54.4146C66.5645 54.2913 66.4828 54.1372 66.3847 53.9831C65.682 52.7809 64.3909 50.5615 63.4921 49.7601C62.7893 49.1436 62.3481 48.6504 61.9722 48.2189C61.7107 47.926 61.4492 47.6486 61.155 47.3558L61.1387 47.3404C59.5371 45.6604 58.7853 43.8572 58.2297 42.5317C57.9845 41.9615 57.7884 41.4683 57.5596 41.1292C57.0857 40.374 56.3339 39.6188 55.6148 38.879C55.0265 38.2779 54.4218 37.6615 53.9642 37.0604C52.9836 35.7503 51.3984 34.1629 50.4505 33.5001C49.9275 33.1457 49.4372 32.5754 48.9306 31.9589C48.5384 31.4965 48.1298 31.0188 47.6885 30.618C47.0675 30.1094 44.0441 27.3198 43.9624 25.8248C43.9297 25.3008 44.1258 24.8693 44.42 24.5148C43.848 24.2682 43.276 23.7904 42.9328 23.3743C42.3117 22.6191 42.1973 21.833 42.6223 21.2166C42.7367 21.0624 42.802 20.9391 44.9429 20.261C46.2667 19.8449 48.0317 19.3208 50.0909 18.766C50.7447 18.5811 52.575 18.0879 53.2451 17.9183C53.9152 17.7488 54.4872 17.5638 55.0265 17.3943C55.7619 17.1631 56.4646 16.9474 57.2981 16.7778C57.7721 16.6853 58.246 16.485 58.6873 16.3155C59.2102 16.0997 59.6188 15.9456 59.9947 15.9456C61.4165 15.9456 65.2081 17.4714 65.6657 17.6717C65.9435 17.795 66.2703 17.9029 66.6135 18.0108C67.1202 18.1803 67.6431 18.3345 68.0681 18.5965C68.4276 18.8122 69.163 19.4133 70.0129 20.1069C70.7483 20.708 71.5001 21.3244 71.925 21.6019C72.4479 21.9563 73.1507 22.1875 73.9025 22.4495C75.1445 22.8811 76.5663 23.3589 77.4652 24.4994C78.2823 25.532 78.3314 27.8592 77.6286 32.0668C77.1056 35.1801 77.073 36.8908 77.171 38.5091C77.2037 39.0486 77.2364 39.7421 77.2691 40.4665C77.3344 42.131 77.4162 43.9959 77.5959 45.0593C77.9718 47.1862 79.2629 49.4827 79.2792 49.5135L78.4131 49.945C78.364 49.8526 77.0239 47.4945 76.6154 45.2135C76.4192 44.1038 76.3375 42.1927 76.2722 40.4973C76.2395 39.7729 76.2231 39.0948 76.1741 38.5554C76.0597 36.8908 76.1087 35.1184 76.6317 31.9281C76.8605 30.5256 77.5796 26.241 76.648 25.0542C75.929 24.1449 74.7196 23.7288 73.5429 23.328C72.7258 23.0506 71.9577 22.7886 71.3366 22.3725C70.879 22.0642 70.1109 21.4323 69.3591 20.8158C68.6074 20.1993 67.8229 19.5674 67.5287 19.3825C67.2019 19.1821 66.7279 19.0434 66.2867 18.8893C65.9271 18.7814 65.5513 18.6581 65.2244 18.504C64.3092 18.0879 61.008 16.8549 59.9784 16.8549C59.8149 16.8549 59.4064 17.009 59.0632 17.1477C58.5892 17.3327 58.0662 17.5484 57.5106 17.6563C56.7425 17.8104 56.0888 18.0108 55.337 18.242C54.7813 18.4115 54.2093 18.5965 53.5066 18.7814C52.8365 18.951 51.0225 19.4596 50.3688 19.6291C45.9562 20.8621 43.848 21.5556 43.4067 21.756C43.2923 21.9718 43.3413 22.2492 43.5375 22.5728C43.9787 23.2664 44.8939 23.775 45.1554 23.775C45.2535 23.775 45.4005 23.6671 45.564 23.6055C46.136 23.3589 46.5282 23.2047 46.8714 23.2664C47.1329 23.2818 47.5251 23.3897 48.0154 23.5592C48.6528 23.7288 48.9796 23.8366 49.1267 23.8983C50.712 23.8983 53.3432 23.6979 54.0296 23.1277L54.2257 22.9736L54.4708 23.0198C54.4872 23.0198 56.0397 23.3435 59.864 22.1105L60.1908 22.0026L60.4033 22.2646C60.4523 22.3108 60.485 22.3879 60.5667 22.4958C61.0733 23.2664 62.6096 25.6091 65.7964 25.1775L66.6299 25.0696L66.3194 25.8094C65.5513 27.6435 68.1171 28.8302 68.2151 28.8765L68.9996 29.2309L68.2805 29.6779C67.7739 29.9861 63.3286 32.7295 61.7924 32.7604C61.7761 32.7604 61.7597 32.7604 61.7434 32.7604C60.0928 32.7604 57.2001 31.2037 56.0397 30.3252C55.3697 29.8166 54.5035 28.8302 53.7517 27.9671C53.2124 27.3352 52.5914 26.6263 52.3626 26.4876C51.8396 26.1793 49.3228 25.0234 47.852 24.484C47.5741 24.4069 47.2473 24.3144 46.8224 24.2065C46.3975 24.3298 44.8939 24.7922 44.9593 25.7786C45.0083 26.5954 47.0512 28.861 48.3586 29.9399L48.3749 29.9553C48.8489 30.4023 49.2901 30.8955 49.6987 31.3887C50.1727 31.9435 50.6302 32.4829 51.0388 32.7604C52.0848 33.4693 53.719 35.1338 54.7813 36.5364C55.2062 37.0912 55.7619 37.6615 56.3502 38.2625C57.102 39.0331 57.8865 39.8192 58.4094 40.6514C58.6709 41.0522 58.8834 41.5762 59.1449 42.1927C59.7005 43.5181 60.3869 45.1672 61.8741 46.7239C62.2173 47.0321 62.4625 47.325 62.7403 47.6332C63.1162 48.0647 63.5247 48.5117 64.1948 49.0974C65.2081 49.9913 66.4991 52.2106 67.2673 53.5515C67.3653 53.7056 67.447 53.8598 67.5124 53.9831C67.6922 54.3067 69.114 57.1118 69.5879 58.1598L68.6727 58.4989ZM50.9081 24.746C51.9213 25.2083 52.7385 25.6091 52.8692 25.6861C53.2124 25.9019 53.719 26.4567 54.4872 27.3506C55.2226 28.1829 56.0397 29.1385 56.6281 29.5854C57.8374 30.4947 60.534 31.851 61.7434 31.8202C62.5769 31.8048 65.2081 30.4023 67.0548 29.2926C66.0742 28.6607 64.9956 27.5356 65.1917 26.1331C63.0181 26.1947 61.2041 25.1775 59.7986 23.0814C56.7261 24.0216 55.0592 23.9908 54.4708 23.9291C53.7027 24.4377 52.1665 24.6535 50.9081 24.746Z" fill="#075985"/>
<path d="M76.8456 28.7533L75.865 28.6917C75.914 28.1214 75.865 26.4569 75.1786 25.7325C74.7537 25.2856 74.2961 25.0852 73.7241 24.8386C73.1357 24.5766 72.4493 24.2838 71.6649 23.6364C70.1777 22.4189 61.7284 18.4117 59.6856 18.3038C58.8848 18.2576 54.2107 18.8124 52.4784 19.0436L52.3477 18.1343C53.0014 18.0572 58.705 17.3328 59.7346 17.3945C62.0716 17.5178 70.8477 21.7561 72.3023 22.9429C72.9887 23.4977 73.577 23.7597 74.1327 23.9909C74.7537 24.2683 75.342 24.5149 75.914 25.116C77.0253 26.2873 76.8619 28.6608 76.8456 28.7533Z" fill="#075985"/>
<path d="M46.5291 29.3545L46.2676 28.4606C47.5913 28.1215 48.9315 26.8269 48.9641 26.4724C48.9641 26.0255 48.3268 24.7616 46.6761 24.2376L46.9867 23.3591C49.0295 24.0064 49.9611 25.5939 49.9447 26.4878C49.9284 27.4742 47.9509 28.9846 46.5291 29.3545Z" fill="#075985"/>
<path d="M43.1311 23.1895L43.082 22.2648L43.1147 22.7272L43.082 22.2648C43.1147 22.2648 45.8113 22.0798 46.9063 19.9838L47.7888 20.3999C46.416 22.9892 43.2618 23.1741 43.1311 23.1895Z" fill="#075985"/>
<path d="M64.0488 31.4507C64.0324 31.389 63.5258 30.0019 63.5748 28.2449C63.5912 27.9983 63.4768 27.7517 63.3624 27.4743C63.1499 26.9965 62.8884 26.3955 63.2807 25.6403L64.1632 26.0564C63.9834 26.4109 64.0651 26.6729 64.2776 27.1198C64.4247 27.4435 64.5881 27.8288 64.5717 28.2758C64.5227 29.8632 64.9803 31.1424 64.9803 31.1424L64.0488 31.4507Z" fill="#075985"/>
<path d="M52.4943 26.5494L51.8242 25.8713C51.8569 25.8405 52.7884 25.0236 55.2235 23.6827L55.7138 24.4842C53.4095 25.7634 52.5106 26.534 52.4943 26.5494Z" fill="#075985"/>
<path d="M48.4414 24.114L80.0485 11.3218C80.1955 11.2601 80.4897 11.3064 80.8819 11.5221C81.7154 11.9691 82.124 13.0942 81.6501 13.8648C81.552 14.0189 81.4703 14.1114 81.3886 14.1576L52.2983 25.9018C52.2983 25.9018 50.1411 24.6996 48.4414 24.114Z" fill="white"/>
<path d="M52.2496 26.4259L52.0371 26.3026C52.0208 26.2871 49.9125 25.1158 48.2619 24.5456L47.1016 24.1448L79.8363 10.8903C80.1468 10.767 80.6044 10.844 81.0947 11.1215C81.634 11.4143 82.0425 11.9229 82.2223 12.5394C82.3857 13.0942 82.3204 13.6491 82.0425 14.1114C81.8955 14.358 81.732 14.5122 81.5523 14.5892L52.2496 26.4259ZM49.7001 24.0986C50.8114 24.5764 51.8737 25.1312 52.3149 25.3778L81.1273 13.7416C81.1437 13.7261 81.1764 13.6953 81.2091 13.6337C81.3561 13.3871 81.3888 13.0942 81.2908 12.7706C81.1927 12.4007 80.9312 12.0924 80.6207 11.9229C80.3756 11.7842 80.2285 11.7688 80.1958 11.7688L49.7001 24.0986Z" fill="#075985"/>
<path d="M76.7964 12.2931L75.6524 12.7708C75.2602 12.9404 75.0804 13.3719 75.2439 13.7572L76.2571 15.9149C76.4369 16.2848 76.8945 16.4544 77.3031 16.3003L78.4471 15.8225C78.8393 15.6529 79.0191 15.2214 78.8556 14.8361L77.8424 12.6784C77.6626 12.2931 77.205 12.1235 76.7964 12.2931Z" fill="white"/>
<path d="M76.9924 16.8244C76.4858 16.8244 76.0282 16.547 75.8157 16.1L74.8025 13.9423C74.5247 13.3258 74.8025 12.6168 75.4562 12.3548L76.6002 11.8771C76.7636 11.8154 76.9434 11.7692 77.1232 11.7692C77.6298 11.7692 78.0874 12.0466 78.2999 12.4935L79.3131 14.6513C79.4439 14.9441 79.4602 15.2678 79.3295 15.576C79.1987 15.8842 78.9699 16.1154 78.6594 16.2387L77.5154 16.7165C77.352 16.7782 77.1722 16.8244 76.9924 16.8244ZM77.1232 12.6939C77.0741 12.6939 77.0415 12.7093 77.0088 12.7247L75.8648 13.2025C75.7177 13.2642 75.6523 13.4337 75.7177 13.5724L76.7309 15.7301C76.78 15.838 76.8944 15.8997 77.0088 15.8997C77.0578 15.8997 77.0905 15.8842 77.1232 15.8688L78.2672 15.3911C78.3325 15.3602 78.3979 15.2986 78.4306 15.2369C78.4633 15.1599 78.4633 15.0828 78.4306 15.0212L77.4173 12.8634C77.352 12.7556 77.2376 12.6939 77.1232 12.6939Z" fill="#075985"/>
<path d="M78.4177 15.9914L76.7188 12.3691L75.822 12.7432L77.521 16.3655L78.4177 15.9914Z" fill="#075985"/>
<path d="M56.8746 43.4722C56.368 43.4722 55.8941 43.3643 55.5345 43.1331C55.0933 42.8403 54.8808 42.4088 54.9625 41.931C55.1423 40.7905 55.6489 39.7116 55.8287 39.3109C55.845 39.2647 55.8614 39.2184 55.8777 39.203L56.1555 39.3109L56.8093 39.4958C56.7929 39.5421 56.7766 39.5729 56.7275 39.6808C56.5478 40.0507 56.0902 41.0525 55.9267 42.0697C55.9104 42.1622 55.9267 42.2546 56.0902 42.3625C56.4987 42.6245 57.4139 42.6399 58.2311 42.193L58.7214 42.9944C58.133 43.3181 57.4793 43.4722 56.8746 43.4722Z" fill="#075985"/>
<path d="M59.3751 31.7587L58.3945 31.6508C58.4599 31.1731 59.0482 26.8885 60.6662 25.8558C60.7969 25.7634 60.9113 25.6863 61.0257 25.6092C61.5487 25.2548 61.9246 24.9927 62.9378 24.8386L63.1013 25.7479C62.3168 25.8712 62.0717 26.0408 61.5977 26.3644C61.4833 26.4415 61.3526 26.534 61.2218 26.611C60.274 27.2275 59.5712 30.0942 59.3751 31.7587Z" fill="#075985"/>
<path d="M47.3471 12.5241H15.4786C15.2007 12.5241 14.9883 12.3237 14.9883 12.0617C14.9883 11.7997 15.2007 11.5994 15.4786 11.5994H47.3471C47.6249 11.5994 47.8374 11.7997 47.8374 12.0617C47.8374 12.3237 47.6086 12.5241 47.3471 12.5241Z" fill="#075985"/>
<path d="M47.3471 14.6818H15.4786C15.2007 14.6818 14.9883 14.4815 14.9883 14.2194C14.9883 13.9574 15.2007 13.7571 15.4786 13.7571H47.3471C47.6249 13.7571 47.8374 13.9574 47.8374 14.2194C47.8374 14.4815 47.6086 14.6818 47.3471 14.6818Z" fill="#075985"/>
<path d="M38.9145 30.3098C38.7184 30.3098 38.5386 30.2019 38.4569 30.0324C38.3588 29.8012 38.4732 29.5238 38.7184 29.4313L39.748 29.0152C39.9931 28.9227 40.2873 29.0306 40.3854 29.2618C40.4834 29.493 40.369 29.7704 40.1239 29.8629L39.0943 30.279C39.0289 30.2944 38.9635 30.3098 38.9145 30.3098Z" fill="#075985"/>
<path d="M34.7631 16.9937H15.4786C15.2007 16.9937 14.9883 16.7933 14.9883 16.5313C14.9883 16.2693 15.2007 16.069 15.4786 16.069H34.7631C35.0409 16.069 35.2534 16.2693 35.2534 16.5313C35.2534 16.7933 35.0246 16.9937 34.7631 16.9937Z" fill="#075985"/>
<path d="M34.7631 19.1514H15.4786C15.2007 19.1514 14.9883 18.9511 14.9883 18.6891C14.9883 18.427 15.2007 18.2267 15.4786 18.2267H34.7631C35.0409 18.2267 35.2534 18.427 35.2534 18.6891C35.2534 18.9511 35.0246 19.1514 34.7631 19.1514Z" fill="#075985"/>
<path d="M21.0003 38.7868C20.8042 38.7868 20.6081 38.6789 20.5427 38.4939C20.3466 38.0007 20.1668 37.4921 20.0198 36.9681C20.0034 36.9219 19.9871 36.8756 19.9871 36.8294C19.9054 36.5366 19.84 36.2283 19.7746 35.9355C19.4151 35.9971 19.0392 36.0588 18.6796 36.105C18.5162 36.1358 18.3364 36.0742 18.2384 35.9509C18.1403 35.8276 18.0913 35.6581 18.1403 35.5039C18.3691 34.8104 18.8758 34.3172 19.4968 33.9011C19.3334 31.8666 19.5622 29.8014 20.1995 27.8286C20.2486 27.6591 20.3956 27.5358 20.5754 27.505C20.7552 27.4741 20.935 27.5358 21.0494 27.6745C22.0463 28.8613 22.5039 30.5412 22.2914 32.3753C22.2914 32.4215 22.2751 32.4677 22.2751 32.514C23.1249 32.1749 23.9911 31.8975 24.8736 31.7896C24.8899 31.7742 24.9063 31.7588 24.9226 31.7433C25.6253 31.1269 26.7367 31.2193 27.9297 31.9591C28.1585 32.0978 28.3709 32.252 28.5507 32.4061C29.662 30.1713 30.8877 27.9828 32.1952 25.8559C32.3096 25.6555 32.5711 25.5784 32.7999 25.6555C33.0287 25.7326 33.1594 25.9637 33.1104 26.1795L32.7835 27.6283C32.7345 27.8749 32.473 28.0444 32.1952 27.9828C32.1461 27.9673 32.1135 27.9519 32.0644 27.9365C31.0675 29.6473 30.1196 31.3889 29.2535 33.1613C29.5476 33.6236 29.662 34.086 29.5803 34.5638C29.4332 35.3344 28.8122 35.8122 28.2729 36.2283C27.9951 36.4441 27.7172 36.6599 27.5211 36.891C27.374 37.076 27.0962 37.1222 26.8837 36.9989C26.6713 36.8911 26.5896 36.6445 26.6713 36.4287C27.1289 35.3652 27.6028 34.3172 28.1095 33.2846C27.9624 33.1305 27.7989 33.0072 27.6355 32.8993C26.4588 35.5656 24.0564 37.7387 21.1801 38.7405C21.1147 38.7868 21.0494 38.7868 21.0003 38.7868ZM21.0003 36.7986C21.082 37.1068 21.1964 37.4151 21.2945 37.7233C22.0299 37.4305 22.7327 37.0452 23.37 36.5828C23.2066 36.4749 23.1249 36.2591 23.1903 36.0742L23.4844 35.2111C22.8144 35.3652 22.128 35.5039 21.4416 35.6272C21.2945 36.028 21.1474 36.4133 21.0003 36.7986ZM20.51 34.3943C20.5264 34.5484 20.5427 34.7025 20.5754 34.8566C20.6244 34.8566 20.6571 34.8412 20.7062 34.8412C20.7715 34.6254 20.8532 34.4097 20.9186 34.2093C20.7715 34.2555 20.6408 34.3326 20.51 34.3943ZM25.037 33.9165C25.1841 33.9165 25.3312 33.9781 25.4292 34.1014C25.5436 34.2555 25.56 34.4559 25.4619 34.61C25.4456 34.6409 25.4292 34.6563 25.4129 34.6871C25.8868 34.1168 26.2791 33.4849 26.6059 32.8222C26.2137 32.7143 25.8051 32.6835 25.3802 32.6989C25.3148 32.8376 25.2495 33.0072 25.2004 33.1459L24.9389 33.9319C24.9716 33.9165 25.0043 33.9165 25.037 33.9165ZM22.0626 33.6391C21.9809 33.9781 21.8992 34.3018 21.7848 34.6254C22.4712 34.4867 23.1412 34.348 23.8276 34.1939L24.2689 32.8684V32.853C23.5335 33.0226 22.7817 33.3154 22.0626 33.6391ZM20.8206 29.1387C20.4774 30.5258 20.3466 31.9591 20.412 33.3771C20.461 33.3462 20.5264 33.3154 20.5754 33.3C20.7715 33.2075 20.984 33.0996 21.1801 33.0072C21.2291 32.776 21.2618 32.5448 21.2782 32.2982C21.4252 31.1269 21.2618 30.0326 20.8206 29.1387Z" fill="#075985"/>
<path d="M30.7086 35.9199C30.4798 35.9199 30.2673 35.7658 30.2346 35.55C30.1856 35.3034 30.3654 35.0568 30.6269 35.0106C32.2611 34.7177 33.9281 34.6253 35.5787 34.7331C35.8566 34.7486 36.0527 34.9643 36.0363 35.2263C36.02 35.4883 35.7912 35.6733 35.5134 35.6579C33.9445 35.5654 32.3592 35.6425 30.8066 35.9199C30.7739 35.9199 30.7413 35.9199 30.7086 35.9199Z" fill="#075985"/>
<path d="M50.434 25.3161C50.2379 25.3161 50.0581 25.2082 49.9764 25.0387C49.8784 24.8075 49.9928 24.5301 50.2379 24.4376L75.2425 14.4196C75.4876 14.3271 75.7818 14.435 75.8798 14.6662C75.9779 14.8974 75.8635 15.1748 75.6183 15.2673L50.6138 25.2853C50.5648 25.3007 50.4994 25.3161 50.434 25.3161Z" fill="#075985"/>
</g>
<defs>
<clipPath id="clip0_5_11626">
<rect width="90" height="60" fill="white" transform="translate(0 0.764404)"/>
</clipPath>
</defs>
</svg>
